<svg xmlns="http://www.w3.org/2000/svg" viewBox="0 0 512 512" style="enable-background:new 0 0 512 512" xml:space="preserve"><path d="M80 255.9V158c0-43.2 35-78 78-78h196c43.2 0 78 35 78 78v196c0 43.2-35 78-78 78H80" style="fill:#007acc"/><path d="M159.5 205v11.3h35.9v102.2h25.4V216.3h35.9v-11.1c0-6.2 0-11.3-.2-11.3 0-.2-21.8-.2-48.4-.2l-48.4.2v11.3l-.2-.2zm161.2-11.5c7 1.7 12.4 4.9 17.3 9.8 2.6 2.8 6.4 7.5 6.6 8.8 0 .4-11.9 8.5-19.2 13-.2.2-1.3-.9-2.4-2.8-3.6-5.1-7.1-7.3-13-7.7-8.3-.6-13.7 3.8-13.7 11.1 0 2.3.4 3.4 1.3 5.3 1.9 3.8 5.3 6 16 10.7 19.8 8.5 28.2 14.1 33.5 22 5.8 9 7.1 23 3.2 33.7-4.3 11.5-15.2 19.4-30.5 21.8-4.9.8-15.8.8-21.1-.2-11.1-2.1-21.6-7.5-28-14.7-2.6-2.8-7.5-10.2-7.1-10.5l2.6-1.7 10.3-6 7.7-4.5 1.9 2.4c2.3 3.6 7.3 8.5 10.3 10.2 9 4.7 20.9 4 26.9-1.3 2.6-2.3 3.6-4.9 3.6-8.3 0-3.2-.6-4.7-2.1-7-2.3-3-6.6-5.5-19-11.1-14.3-6-20.3-10-26-15.8-3.2-3.6-6.2-9.2-7.5-13.7-.9-4-1.3-13.7-.4-17.7 3-13.7 13.4-23.5 28.2-26.2 4.6-1.5 16.1-.9 20.6.4z" style="fill:#fff"/></svg>