<?xml version="1.0" encoding="utf-8"?>
<!-- Generator: Adobe Illustrator 25.2.0, SVG Export Plug-In . SVG Version: 6.00 Build 0)  -->
<svg version="1.1" id="Layer_1" xmlns="http://www.w3.org/2000/svg" xmlns:xlink="http://www.w3.org/1999/xlink" x="0px" y="0px"
	 viewBox="0 0 456 330" style="enable-background:new 0 0 456 330;" xml:space="preserve">
<style type="text/css">
	.st0{fill:#FFFFFF;}
	.st1{fill:none;stroke:#A2A5B9;stroke-width:4;stroke-linecap:round;stroke-miterlimit:10;}
	.st2{fill:#FFFFFF;stroke:#A2A5B9;stroke-width:4;stroke-linecap:round;stroke-miterlimit:10;}
</style>
<g>
	<path class="st0" d="M32.2,307c-6.8,0-12.3-5.5-12.3-12.3V39.3c0-6.8,5.5-12.3,12.3-12.3h391.6c6.8,0,12.3,5.5,12.3,12.3v255.4
		c0,6.8-5.5,12.3-12.3,12.3L32.2,307L32.2,307z"/>
	<path class="st1" d="M423.8,28c6.2,0,11.3,5.1,11.3,11.3v255.4c0,6.2-5.1,11.3-11.3,11.3H32.2c-6.2,0-11.3-5.1-11.3-11.3V39.3
		C20.9,33.1,26,28,32.2,28H423.8"/>
</g>
<line class="st1" x1="70.9" y1="183.5" x2="100.2" y2="183.5"/>
<line class="st1" x1="70.9" y1="221.5" x2="100.2" y2="221.5"/>
<line class="st1" x1="70.9" y1="145.5" x2="100.2" y2="145.5"/>
<line class="st1" x1="70.9" y1="107.5" x2="100.2" y2="107.5"/>
<g>
	<circle class="st2" cx="175.4" cy="87.5" r="25"/>
	<line class="st1" x1="218.4" y1="75.5" x2="320.2" y2="75.5"/>
	<line class="st1" x1="218.8" y1="88.1" x2="288.7" y2="88.1"/>
	<line class="st1" x1="218.8" y1="100.9" x2="299.6" y2="100.9"/>
	<line class="st1" x1="150.4" y1="164.5" x2="252.2" y2="164.5"/>
	<line class="st1" x1="150.8" y1="177.1" x2="220.8" y2="177.1"/>
	<line class="st1" x1="150.8" y1="189.9" x2="231.6" y2="189.9"/>
	<line class="st1" x1="299.7" y1="164.5" x2="401.5" y2="164.5"/>
	<line class="st1" x1="300" y1="177.1" x2="370" y2="177.1"/>
	<line class="st1" x1="300" y1="189.9" x2="380.9" y2="189.9"/>
	<line class="st1" x1="150.4" y1="230.5" x2="252.2" y2="230.5"/>
	<line class="st1" x1="150.8" y1="243.1" x2="220.8" y2="243.1"/>
	<line class="st1" x1="150.8" y1="255.9" x2="231.6" y2="255.9"/>
	<line class="st1" x1="299.7" y1="230.5" x2="401.5" y2="230.5"/>
	<line class="st1" x1="300" y1="243.1" x2="370" y2="243.1"/>
	<line class="st1" x1="300" y1="255.9" x2="380.9" y2="255.9"/>
</g>
<circle class="st2" cx="47.5" cy="53.5" r="15"/>
<circle class="st2" cx="47.5" cy="107.5" r="11"/>
<circle class="st2" cx="47.5" cy="145.5" r="11"/>
<circle class="st2" cx="47.5" cy="183.5" r="11"/>
<circle class="st2" cx="47.5" cy="221.5" r="11"/>
<path class="st1" d="M125.2,306H32.3c-6.3,0-11.4-5.1-11.4-11.4V39.4C20.9,33.1,26,28,32.3,28h92.9V306z"/>
</svg>