<svg xmlns="http://www.w3.org/2000/svg" viewBox="0 0 512 512" style="enable-background:new 0 0 512 512" xml:space="preserve"><linearGradient id="a" gradientUnits="userSpaceOnUse" x1="-24.199" y1="33.578" x2="588.917" y2="520.27"><stop offset="0" style="stop-color:#9013fe"/><stop offset="1" style="stop-color:#6610f2"/></linearGradient><path style="fill:url(#a)" d="M0 0h512v512H0z"/><linearGradient id="b" gradientUnits="userSpaceOnUse" x1="189.147" y1="349.681" x2="289.153" y2="180.549" gradientTransform="matrix(1 0 0 -1 0 514)"><stop offset="0" style="stop-color:#fff"/><stop offset="1" style="stop-color:#f1e5fc"/></linearGradient><path d="M267.1 364.5c47.3 0 75.8-23.2 75.8-61.4 0-28.9-20.3-49.8-50.5-53.1v-1.2c22.2-3.6 39.6-24.2 39.6-47.2 0-32.8-25.9-54.1-65.3-54.1H178v217h89.1zM212.4 175h45.9c25 0 39.1 11.1 39.1 31.3 0 21.5-16.5 33.5-46.4 33.5h-38.7c.1 0 .1-64.8.1-64.8zm0 161.9v-71.4H258c32.7 0 49.6 12 49.6 35.5s-16.5 35.9-47.6 35.9h-47.6z" style="fill:url(#b);stroke:#fff"/></svg>