<svg id="b7219f87-1653-4a2f-8cad-603228258308" data-name=" 1" xmlns="http://www.w3.org/2000/svg" viewBox="0 0 2529.78 2100"><title>people</title><ellipse cx="726.28" cy="1974.72" rx="550.55" ry="50.1" fill="#202028" opacity="0.11"/><path d="M406.36,1917.75s-97.08,46.77-97.73,68,40.13,22.66,88,17.54,85.44-27,85.44-27l10.35-11v12.43l38.19-12.43s8.58-29.76,3.88-55.54c-1-5.73-9.78-18.77-19.87-21.59C491.15,1881.57,451.45,1892.66,406.36,1917.75Z" fill="#2e2e47"/><path d="M447.16,1900.54s16.81-6.57,23.14-.24,31,21.83,34.59,15.1c11.45-21.68,19.58-20.13,19.58-21.29S545.4,1837,528.83,1834s-53.14.67-56.55,7.49S450.57,1898.59,447.16,1900.54Z" fill="#eae6e4"/><path d="M1002.22,1924.63c14.63,12.24,40,47.19,43.41,54.93,11.46,25.87-5.43,38.38-29.56,39.55-38.07,1.85-106.88-45.66-106.88-45.66s-5.47-15.48-3.4-40.69c.46-5.61,7.61-19,17-22.65C944.78,1901.58,949.53,1880.56,1002.22,1924.63Z" fill="#2e2e47"/><path d="M988.85,1915.63s-31.64-19-49.51-1.64c-22.13,21.51-25.28,3.93-25.39,2.82s-7.32-53.77,8.32-58.15,52.62,1.4,56.55,7.63S985.39,1914.08,988.85,1915.63Z" fill="#eae6e4"/><path d="M994.37,338.6S1233.5,502,1283.53,611.51c52.76,115.45-14.18,295.36-61.21,357.32s-53.13,4.69-79.87-5,2.73-277.65,2.73-277.65S1012.77,458.6,994.37,338.6Z" fill="#eae6e4"/><path d="M948,116.19s3.89-18.27-23.48-34.2-66.53.12-77.79,7.33-35,23.39-38.77,52.75,1.69,85.46,34.29,88.52S951.94,138.58,948,116.19Z" fill="#8b5cf6"/><path d="M1158.45,942.05l-549.58,6-79,453.84s-17.5,51.06-21.18,68.63c-7.91,37.79-17.48,153.45-17.48,153.45l-41.74,239.71s48.46,12.61,61.9,14.58c63.51,9.3,91.38-5.34,91.38-5.34S708.35,1601.05,743,1518.25c7.72-18.43,156.62-340.71,156.62-340.71l-53,691.82s26.33,12.18,79.62,12.18c68.68,0,81.62-12.18,81.62-12.18S1171.29,1039.34,1158.45,942.05Z" fill="#8b5cf6"/><path d="M727.24,384.15c62.52-94.69,172.86-95.46,239.38-64.27,70.07,32.84,107.81,155.92,107.81,155.92s70.88,128.66,87.43,265.55-3.41,200.7-3.41,200.7-98.58,21.79-269.8,21.76C818.59,963.8,608.87,948,608.87,948S633.15,835.61,652,702.2C667.73,590.56,675.43,462.61,727.24,384.15Z" fill="#eae6e4"/><path d="M948.26,167.47s9.31-3.9,14.1,1.14,2,31.35-5.82,31.78S939.42,174,948.26,167.47Z" fill="#ffe2bd"/><path d="M952.8,125s7,13.73,8.31,21c2.88,15.31,0,42.18-2.06,44.05S935.41,122.52,952.8,125Z" fill="#8b5cf6"/><path d="M920.88,334.68c23.83-7.19-7.77-46-17.37-56.95s-64.23-36.89-64.23-36.89,2.58,53.41-28.64,74C823.15,337,890.7,343.78,920.88,334.68Z" fill="#ffe2bd"/><path d="M835.72,169.25c-2.54,1.75-6.8,1.62-12.54,3.4-10,3.1-8.66,17.74-4.95,27s18.32,13,18.32,13,2.3-13.71,2.5-17.35C840.29,172.78,836,174.91,835.72,169.25Z" fill="#ffe2bd"/><path d="M848.65,184.52c1.28,12.6,1.34,33.07,8.72,41.85s8,11.8,12.79,7.52,88.07-5.56,93.83-13.1c-1.31-13.56-3.65-26.47-4.85-34.4-2.22-14.8,3.09-41.25-11.58-64.18S876.25,94.27,855,112s-16.59,48.66-16.59,48.66a15.47,15.47,0,0,1-.76,6.09C841.49,169.69,847.77,175.84,848.65,184.52Z" fill="#ffe2bd"/><path d="M962,214.24c-9.13-2.6-15.85,6.69-24.64,5.42-15.86-2.3-37.28-5.24-49.69-1.33S875,229.6,870.16,233.89s-5.41,1.25-12.79-7.52-7.44-29.25-8.72-41.85c-.88-8.68-7.16-14.83-11-17.82a5.29,5.29,0,0,1-1.95,2.55c.4,7.62.85,24.4.65,28.3-.32,6.1-1.38,9.36-2.59,11a13.51,13.51,0,0,0-2.54,10.66c1.87,8.83,4.94,22,8.33,30.59,5.51,14,40.14,48.29,73.6,47.25s52.17-19.89,56.08-41.2C971.07,246,973.31,217.48,962,214.24Z" fill="#8b5cf6"/><path d="M908.59,228.53a35.23,35.23,0,0,1-9.06.15c-5.93-.67-15.45-1.07-15.62,3.23-.25,6.25,9.63,24.26,15.63,22.66s6.07-8.1,9.22-9.32,12.94-1.89,16.31,3,6.69,8.87,9.44,4.88,7.39-21.89,3.44-24.86C934.71,225.82,917.5,227.2,908.59,228.53Z" fill="#ffe2bd"/><path d="M948,116.19c-20.4-18-71.7-21.92-92.93-4.24s-28.2,45.65-28.2,45.65c.07,2.74-3.08,13.63-3.64,15.05,4.52-1.57,21-.24,23.4,4.7,2.58-6.28,5.79-18.49,7.8-25.16,2.88-9.5,16-28.28,34.32-21.87,0,0,39.17,6.45,52.31-3.72,2.42-1.86,8.89,10.48,13.68,11.32C953.1,132.62,954.69,122.14,948,116.19Z" fill="#8b5cf6"/><path d="M933.33,230.59c-19.94,5.61-35.09,0-35.09,0s-4,12,15.45,12.91S933.33,230.59,933.33,230.59Z" fill="#fff"/><path d="M923.3,203.45s11.36,10.93,7.85,17.91-17,6.42-24.44,1.66S908.48,194.26,923.3,203.45Z" fill="#ffe2bd"/><path d="M931.18,210.88a1.16,1.16,0,0,1-.57-.15,20.69,20.69,0,0,1-5.94-5.83c-2.49-3.61-5.12-9.77-3.49-18.6,3.05-16.58,8.33-24.64,16.14-24.64h0a29.4,29.4,0,0,1,18.1,6,1.14,1.14,0,0,1-1.49,1.73,27.63,27.63,0,0,0-16.61-5.49h0c-6.53,0-11.08,7.45-13.9,22.77s7.88,21.78,8.33,22a1.14,1.14,0,0,1-.57,2.12Z" fill="#2e2e47"/><path d="M872.64,173.12a1.14,1.14,0,0,1-.32-2.24c.68-.2,16.76-4.89,27.33-2.58a1.14,1.14,0,0,1-.49,2.23c-10-2.19-26,2.49-26.2,2.54A1.13,1.13,0,0,1,872.64,173.12Z" fill="#2e2e47"/><path d="M875.93,186.49a1.08,1.08,0,0,1-.68-.23,1.13,1.13,0,0,1-.24-1.57c.16-.22,4-5.19,18.83-4.43l4.21.56a1.14,1.14,0,1,1-.3,2.26l-4.12-.55c-13.29-.69-16.76,3.48-16.79,3.53A1.18,1.18,0,0,1,875.93,186.49Z" fill="#2e2e47"/><path d="M880,183.34s-3,8.59,4.51,10,9-6.33,8.88-9.05S886,179.08,880,183.34Z" fill="#2e2e47"/><path d="M950.48,183.94a1.21,1.21,0,0,1-.49-.11l-3-1.43c-10-3.57-13.73-.43-13.77-.4a1.15,1.15,0,0,1-1.6-.09,1.12,1.12,0,0,1,.06-1.59c.18-.17,4.64-4.18,16.14,0l.1,0,3.05,1.46a1.14,1.14,0,0,1,.54,1.52A1.15,1.15,0,0,1,950.48,183.94Z" fill="#2e2e47"/><path d="M934.36,181.06s-3.61,8.17,2.22,10.37,8.1-5.24,8.38-8S939.72,177.53,934.36,181.06Z" fill="#2e2e47"/><path d="M959.05,185.67s5.05,21.94,1.25,31.69,8.35,14.9,8.89,11.89S970.39,193.17,959.05,185.67Z" fill="#8b5cf6"/><path d="M765.68,341.34s-257.75,197-306.28,291.32-16,149.48,58.83,159.22S764.4,493.19,765.68,341.34Z" fill="#eae6e4"/><path d="M903.27,1169.15a1.17,1.17,0,0,1-1-.66,1.15,1.15,0,0,1,.55-1.52c6-2.81,147.15-68.93,167.2-67.12,3.25.3,5.17,1.46,5.7,3.45,2,7.44-19.84,24.46-30.14,32a123,123,0,0,1,13.25-1.48c12.86-.64,20,1.78,21.31,7.2a1.14,1.14,0,1,1-2.22.53c-2-8.62-27.32-5.16-36.89-3.09a1.14,1.14,0,0,1-.9-2c13.7-9.62,34.87-27,33.39-32.53-.33-1.2-2.19-1.62-3.7-1.76-19.49-1.8-164.57,66.23-166,66.92A1.2,1.2,0,0,1,903.27,1169.15Z" fill="#fff"/><path d="M676.88,572a1.14,1.14,0,0,1-.74-2c38.62-33,65.58-112.41,65.85-113.21a1.14,1.14,0,1,1,2.16.73c-.27.8-27.42,80.81-66.53,114.22A1.13,1.13,0,0,1,676.88,572Z" fill="#2e2e47"/><path d="M713.82,523.52a1.14,1.14,0,0,1-.62-2.09c14.26-9.36,25.79-25.49,32.95-37.37a196.65,196.65,0,0,0,12.29-23.88,1.14,1.14,0,1,1,2.11.86,196,196,0,0,1-12.42,24.16c-7.29,12.1-19,28.54-33.68,38.13A1.13,1.13,0,0,1,713.82,523.52Z" fill="#2e2e47"/><path d="M856.38,1178.15h0c-.2,0-19.89-.83-42.39-4-30.33-4.26-51.05-10.5-61.59-18.55-1.68-1.28-3.81-3.21-2.89-5.18s3.07-6.54,71.94,6.7c33.63,6.46,67.17,14.14,67.5,14.22a1.14,1.14,0,1,1-.51,2.22c-.33-.08-33.88-7.76-67.49-14.22-63.91-12.27-69-8.77-69.37-7.95h0s0,.7,2.2,2.4c24.47,18.68,101.91,22,102.69,22.07a1.16,1.16,0,0,1,1.1,1.19A1.14,1.14,0,0,1,856.38,1178.15Z" fill="#fff"/><path d="M909.31,1178.15a1.14,1.14,0,0,1-.23-2.25c3.84-.8,94.44-19.6,113.76-19.6a1.14,1.14,0,0,1,0,2.28c-19.08,0-112.36,19.35-113.3,19.55A.9.9,0,0,1,909.31,1178.15Z" fill="#fff"/><path d="M894.22,342.77s11.69,19.9,22.21,15.43,12.54-15.3,7.16-19.6C920.18,335.88,921.26,323.86,894.22,342.77Z" fill="#2e2e47"/><path d="M743,1209a1.14,1.14,0,0,1-.17-2.27l129.89-20a1.14,1.14,0,1,1,.35,2.25l-129.89,20Z" fill="#fff"/><path d="M1026.74,963.81v32.61l123.92-7.76s6-24.93,1.86-36.75C1152.52,951.91,1099.55,964.88,1026.74,963.81Z" fill="#2e2e47"/><path d="M907.86,323.86s-73.34-19-80.49-27.58c-4.87-5.83-26.63,22.92-26.63,22.92s69.47,30,83.16,31.9l26.53-13,22.9,6.83s.64-19.41,0-24.64-10.82-16.74-10.82-16.74Z" fill="#fff"/><ellipse cx="883.9" cy="205.23" rx="12.47" ry="7.4" fill="#ffa982"/><path d="M963.2,202.34c0,4.09-5.58,7.4-12.47,7.4s-12.48-3.31-12.48-7.4,5.59-7.4,12.48-7.4S963.2,198.26,963.2,202.34Z" fill="#ffa982"/><path d="M921.81,348.74S965.53,477.63,979,532.88s38.32,146.31,42.8,194.58l-70.17,74.65-59.22-64.2s17.33-199.56,18-252.31-4-136.86-4-136.86Z" fill="#8b5cf6"/><path d="M828.8,854.69,625.46,873.21a14.85,14.85,0,0,1-16.13-13.44L579.75,534.94a14.85,14.85,0,0,1,13.43-16.14l203.34-18.51a14.85,14.85,0,0,1,16.14,13.43l29.58,324.84A14.84,14.84,0,0,1,828.8,854.69Z" fill="#3db797"/><rect x="737.63" y="522.3" width="61.06" height="111.39" transform="translate(-49.26 72.05) rotate(-5.2)" fill="#fff"/><path d="M558.83,533.76l31.91,350.42a13.69,13.69,0,0,0,14.88,12.39L831.9,876a13.68,13.68,0,0,0,12.39-14.88L822.61,623a18.13,18.13,0,0,0-19.7-16.42L790,607.78a14.06,14.06,0,0,1-15.28-12.73l-7.31-80.28a11.79,11.79,0,0,0-12.81-10.67L569.5,521A11.78,11.78,0,0,0,558.83,533.76Z" fill="#3db797"/><path d="M822.61,624.16a1.15,1.15,0,0,1-1.14-1A17,17,0,0,0,803,607.74l-12.9,1.17a15.21,15.21,0,0,1-16.52-13.76l-7.31-80.28a10.64,10.64,0,0,0-11.56-9.63,1.14,1.14,0,0,1-1.24-1,1.13,1.13,0,0,1,1-1.24,12.93,12.93,0,0,1,14,11.69l7.31,80.28a12.92,12.92,0,0,0,14,11.7l12.9-1.17a19.25,19.25,0,0,1,20.94,17.44,1.14,1.14,0,0,1-1,1.24Z" fill="#fff"/><path d="M1168.25,988.42c-9.56-2.92-17.14-12.71-28.65-11.54s-35.14,5.21-34.34-3,17.46-14.1,17.46-14.1-32.85,12.82-33.07,8.65,5-7.84,5-7.84-13.83-.45-11.21-5.2,33.86-16,33.86-16-36.69-13.38-31.42-17,25.47,1.18,39.72,4.16,40.6-.15,54.74,23.13S1176.59,991,1168.25,988.42Z" fill="#ffe2bd"/><path d="M1165.47,903.21h-.2a1.14,1.14,0,0,1-.93-1.32c7.23-41.18-2.37-149.16-6.3-183.75-4.65-40.84-51.52-171.15-63-197.6-11.06-25.47-40.06-91-40.35-91.7a1.14,1.14,0,0,1,2.09-.92c.29.66,29.29,66.24,40.35,91.72,11.51,26.5,58.5,157.2,63.16,198.25,4,34.66,13.56,143,6.29,184.39A1.14,1.14,0,0,1,1165.47,903.21Z" fill="#2e2e47"/><path d="M1155.14,699.74a1.14,1.14,0,0,1-.78-2A342.32,342.32,0,0,1,1187.73,671c25.67-18,47.5-27.71,64.88-28.8a1.15,1.15,0,0,1,1.21,1.07,1.13,1.13,0,0,1-1.07,1.2c-40.51,2.55-96.27,54.42-96.83,54.94A1.12,1.12,0,0,1,1155.14,699.74Z" fill="#2e2e47"/><path d="M1164.1,709.19a1.14,1.14,0,0,1-.67-2.06c3.6-2.58,88.47-63,110.76-48.81,2.83,1.8,4.08,3.95,3.72,6.4-1,6.54-14.12,14.43-40.21,24.11-18.9,7-37.78,12.31-38,12.36a1.14,1.14,0,1,1-.62-2.2c20.72-5.8,74.86-23.32,76.53-34.61.08-.55.33-2.22-2.68-4.14-8.58-5.45-29.94,1.18-61.77,19.19-24.3,13.74-46.22,29.39-46.44,29.55A1.15,1.15,0,0,1,1164.1,709.19Z" fill="#2e2e47"/><path d="M1168.1,675.35a1.13,1.13,0,0,1-.87-1.87,192.73,192.73,0,0,1,19.83-19.88c15.62-13.49,29.62-20.91,41.62-22.08a1.15,1.15,0,0,1,.22,2.28c-27.57,2.66-59.6,40.76-59.92,41.14A1.13,1.13,0,0,1,1168.1,675.35Z" fill="#2e2e47"/><path d="M563,641.34S757.41,739,755.49,775.49c-.88,16.61-33.73,71-53.93,75.39C630.22,866.57,504.37,807.09,468.92,775,423.44,733.88,483.45,608.83,563,641.34Z" fill="#eae6e4"/><path d="M777.84,770.81c16.37,9.53,67.2,20,57.42,27.75-15.67,12.38-39.27-6.37-43.31,0s55.22,62.82,44.4,68.79c-9,5-33-28.53-36-23.64s36.7,30,33,36.37-43.55-20-44.67-18.61,32.93,28,29.7,31.93-39.33-25-42.32-22.83,26.75,21.07,20.33,24.81-51.83-38-58.83-43.18c-13.74-10.24-46.06-43.42-42-64.33C702.8,750.43,770.73,766.68,777.84,770.81Z" fill="#ffe2bd"/><path d="M543.76,1397.71a1.15,1.15,0,0,1-1-.57,1.13,1.13,0,0,1,.42-1.56c.27-.15,27-15.48,55.09-30.16,57.14-29.88,63.78-28,66-27.43,2,.56,2.5,1.68,2.57,2.52.14,1.61.45,5.38-28.77,21-14.14,7.58-28.55,14.34-28.69,14.4a1.14,1.14,0,1,1-1-2.06c27.88-13.06,56.5-29.05,56.16-33.19,0-.13-.3-.34-.91-.51-10.65-3-89.74,40.41-119.32,57.37A1.12,1.12,0,0,1,543.76,1397.71Z" fill="#fff"/><path d="M454.29,708.4h-.23c-1.52-.21-1.82-2.29-2-4.22-1.38-16.24,11.43-53.75,47.24-66.86,35.41-13,75.06,8.57,75.46,8.79a1.14,1.14,0,0,1-1.1,2c-.39-.22-39.15-21.25-73.57-8.65C465.43,652.15,453,688.32,454.35,704a15,15,0,0,0,.19,1.49,102.43,102.43,0,0,0,4.53-10.85c4.22-11.1,9.48-24.92,15.6-29.29a1.13,1.13,0,0,1,1.59.27,1.15,1.15,0,0,1-.27,1.59c-5.55,4-10.89,18-14.79,28.24C457.52,705.09,456.16,708.4,454.29,708.4Z" fill="#2e2e47"/><path d="M560.43,633.8a1.14,1.14,0,0,1-.7-.24c-.28-.21-27.8-21.24-56.29-15a1.14,1.14,0,0,1-1.36-.87,1.16,1.16,0,0,1,.87-1.36c29.55-6.5,57.9,15.18,58.18,15.4a1.14,1.14,0,0,1-.7,2Z" fill="#2e2e47"/><path d="M615.67,951.91l-6.8,27.37s118.52,18,223.78,17.11l5-29S692.31,963.85,615.67,951.91Z" fill="#2e2e47"/><path d="M855.05,968.46l-4.11,31.44s91.82,4.39,161.24-3.51l1.87-32.58S950.22,974.15,855.05,968.46Z" fill="#2e2e47"/><path d="M1768,393.43s-330.33,194-339,302,166.93,92.38,236.53,9.33S1768,393.43,1768,393.43Z" fill="#eae6e4"/><ellipse cx="1863.01" cy="1950.18" rx="453.53" ry="45.49" fill="#202028" opacity="0.11"/><path d="M1778.56,384.82c53-26.51,82.47-39.94,168.5,1.42,92.34,44.4,102.2,290.22,122.89,357.22s3.63,69.16-29.87,107.59-55.85,7.69-121.86-4.14-196.07-16.75-224.64,0-53,1.43-68.83-24.74C1606.41,791.79,1628.79,459.7,1778.56,384.82Z" fill="#eae6e4"/><path d="M1692.39,1835s-14.45,38.73-25.43,51.45-64.74,46.24-72.83,55.49-12.14,34.1,3.47,37.57,93.64-12.14,105.77-17.92,19.66-24.28,21.39-24.28,0,20.23,0,20.23l37.57-1.15s17.92-56.65,15.61-72.83-12.14-42.78-11-48.56S1695.86,1826.13,1692.39,1835Z" fill="#2e2e47"/><path d="M2120.31,1835s14.45,38.73,25.43,51.45,67.47,25.55,75.56,34.8,12.14,34.1-3.47,37.57-96.36,4.12-108.5-1.66-19.65-19.85-21.39-19.85,0,20.23,0,20.23l-37.57-1.15s-17.92-56.65-15.61-72.83,12.14-42.78,11-48.56S2116.84,1826.13,2120.31,1835Z" fill="#2e2e47"/><path d="M2041,718.4c12,11.88,21.91,21.13,30,28.34l-1-3.28c-8.54-27.65-15.23-85.75-26.64-147.58l-95.52-92.29S1991.9,669.9,2041,718.4Z" fill="#2e2e47"/><path d="M1638.4,924.75c8.33-54.63,25.62-111.34,49.26-121.19s251.77-21.73,284.5,9.11c38.43,36.21,35.7,78.48,67.07,209.15,13,54,90.91,814.3,90.91,814.3s-7.21,20.85-62.86,27.54c-74.35,8.94-110.91-6.69-110.91-6.69s-29.61-351.28-60.91-532.07c-23.55-136-51.57-232.89-60-235.3,0,0-28.71,214.86-24.6,418.38,3.54,175.21,28.2,340,28.2,340s-20,8.28-88.36,11.21c-52.64,2.26-101.52-11.28-101.52-11.28s12.56-136,6.77-305.3C1647.5,1295.42,1619.3,1050,1638.4,924.75Z" fill="#3db797"/><path d="M1935,425s20-50.81,49.56-23.57,156.78,185.11,156.78,185.11S2204.57,404,2248.91,416.5,2329.7,460.66,2312,507s-29.53,102.38-54.19,161.58c-19.24,46.18-56.81,80.23-102.89,98s-114.51-82.92-134.81-108.07C1942,561.65,1935,425,1935,425Z" fill="#eae6e4"/><path d="M1940.74,246.4s5.9,63.39-53.17,69.06S1923,213.09,1940.74,246.4Z" fill="#3db797"/><path d="M1891,348.55c-4.79-18.94,4.12-47.67,4.12-47.67s-45.43,16.69-51.09,48.58c0,.06,0,.16,0,.24C1851.4,350.45,1874.45,352.3,1891,348.55Z" fill="#ffa982"/><path d="M1885.89,318.14l-33.45,12.79a44.7,44.7,0,0,0-8,16.92,80.32,80.32,0,0,0,18.61-1.39C1877.7,343.76,1885.13,320.22,1885.89,318.14Z" fill="#2e2e47"/><path d="M1899.18,300a15.81,15.81,0,0,0,12.35-3c4.9-3.61,6.6-16.78,2.78-21.39s-9.33-5.1-10.53-5.58,5.21-23.09-.48-37.73-18.06-29.2-40.68-30.24-35.3,10-43.76,18.66-11.32,28.23-13.15,37.48-4.36,11.77-6.65,16.59c-5.3,11.13-7.79,19.14-5.76,32.68s14.37,28.1,36.21,30.3S1887.55,333.58,1899.18,300Z" fill="#ffa982"/><path d="M1830.3,288.75c-4.5,0-10-2-11.79-5.9-1-2.18-1.2-5.83,3.47-10.86,4.26-4.6,10.1-10.9,10.46-13l0-.17c0-.06,2-6.26-.39-10.05a6.87,6.87,0,0,0-5.37-2.91c-5.35-.95-13.52-1.82-15.16-.83a1.14,1.14,0,0,1-1.57-.38,1.15,1.15,0,0,1,.39-1.57c3-1.8,14.41.12,16.67.52a9,9,0,0,1,7,3.95c2.87,4.5.91,11.07.65,11.92-.48,2.38-3.81,6.3-11,14.08-2.1,2.27-4.34,5.56-3.06,8.37,1.36,3,6.33,4.69,10.12,4.56,1.82-.06,2.61-.54,2.69-.75a1.14,1.14,0,0,1,2.13.81c-.51,1.34-2.19,2.13-4.74,2.22Z" fill="#2e2e47"/><path d="M1867.4,253.08a1.11,1.11,0,0,1-.63-.19A42.82,42.82,0,0,0,1849.7,247a1.15,1.15,0,0,1-1-1.26,1.14,1.14,0,0,1,1.26-1A44.64,44.64,0,0,1,1868,251a1.14,1.14,0,0,1,.32,1.58A1.12,1.12,0,0,1,1867.4,253.08Z" fill="#2e2e47"/><path d="M1858,267.36c-2.34-1.08-4.9-.72-6.06.79s-3.17,5.35-1.2,7.14c7.83,7.14,10-4.31,9.87-5.2C1860.38,269,1859.69,268.17,1858,267.36Z" fill="#2e2e47"/><path d="M1863.67,273.08a1.14,1.14,0,0,1-.73-.27,44.78,44.78,0,0,0-8.28-5c-4.54-2.21-6.59-.29-7.12.35a1.13,1.13,0,0,1-1.6.17,1.15,1.15,0,0,1-.17-1.61c.79-1,3.84-3.91,9.89-1a45.47,45.47,0,0,1,8.75,5.35,1.14,1.14,0,0,1-.74,2Z" fill="#2e2e47"/><path d="M1817.36,258a4.14,4.14,0,0,1,3.64,3.82c.07,1.78-.36,6.19-2.49,6.7-8.45,2-4.65-8.87-4.13-9.55A2.81,2.81,0,0,1,1817.36,258Z" fill="#2e2e47"/><path d="M1824.89,264.31a1.14,1.14,0,0,1-1.12-.94c-.32-.66-2.6-3-6.64-3.5-4.28-.51-6.17.75-6.19.77a1.15,1.15,0,0,1-1.58-.28,1.13,1.13,0,0,1,.25-1.57c.25-.19,2.61-1.79,7.78-1.18s8.54,3.94,8.64,5.49a1.13,1.13,0,0,1-1.07,1.2Zm-1.11-.91Zm0-.16Z" fill="#2e2e47"/><path d="M1851.28,281.1s15.51-1.8,19,3.62-13.74,7.38-21.84,5S1847.4,281.36,1851.28,281.1Z" fill="#f2836d"/><path d="M1894.27,356.46a26.87,26.87,0,0,1-3.25-7.91c-16.57,3.75-39.62,1.9-47,1.15,0,.22-.1.5-.17.89-2.59,13-18,11.94-41,26.17,4.48,11.74,16.62,26.18,49,28.22,40.91,2.57,64.85-16.24,74.67-26.41C1911.64,366.39,1898.93,363.8,1894.27,356.46Z" fill="#ffa982"/><path d="M1803.75,272.18s11.35,0,12.48,5.62-11.47,5.58-16.58,2.37S1801,272,1803.75,272.18Z" fill="#f2836d"/><path d="M1662.53,567.83a1.14,1.14,0,0,1-1.14-1.14c0-2.69,2.44-13,6.41-29.49,2.34-9.76,4.76-19.85,6.59-28.28,4.51-20.86,33.86-62,35.11-63.78a1.14,1.14,0,0,1,1.85,1.33c-.3.43-30.32,42.54-34.73,62.93-1.83,8.46-4.26,18.56-6.6,28.33-3.27,13.58-6.35,26.41-6.35,29A1.14,1.14,0,0,1,1662.53,567.83Z" fill="#2e2e47"/><path d="M1928,211.7s19.55,1.14,27.51-13,12.32-21.2,2-30-24-18.91-36.61-17-21.75,32.37-23.41,42S1926.09,211.69,1928,211.7Z" fill="#3db797"/><path d="M1823.27,794a1.13,1.13,0,0,1-1.08-.78c-.31-.91-7.5-22.62-2.7-40.17,7.27-26.61,8.26-33.6,10.88-52.31,2.56-18.26,4.24-76.21,3-101.66-.3-5.89-.82-13-1.43-21.29-1.88-25.65-4.46-60.79-1.9-86.25,3.31-32.93,12.8-86,12.89-86.55a1.14,1.14,0,0,1,2.25.41c-.1.53-9.57,53.52-12.87,86.37-2.54,25.26,0,60.28,1.91,85.86.61,8.27,1.13,15.42,1.43,21.34,1.33,26.09-.34,83.34-3,102.08s-3.63,25.86-10.94,52.6c-4.62,16.88,2.58,38.63,2.66,38.84a1.14,1.14,0,0,1-.72,1.45A1.13,1.13,0,0,1,1823.27,794Z" fill="#2e2e47"/><path d="M1912.05,163.44a1.43,1.43,0,0,0,1.58-1.2c2.09-13.7,19.93-15.76,20.11-15.78a1.41,1.41,0,0,0,1.26-1.56,1.43,1.43,0,0,0-1.56-1.27c-.2,0-20.2,2.33-22.62,18.18a1.42,1.42,0,0,0,1.19,1.62Z" fill="#3db797"/><path d="M1944,210.28a23.75,23.75,0,0,1-4.13.11,1.48,1.48,0,0,1,.25-2.94,29.51,29.51,0,0,0,20.58-7.77c9.12-8.41,7.77-15.47,7.71-15.77a1.48,1.48,0,0,1,2.89-.64c.08.36,1.87,8.93-8.6,18.58A32.33,32.33,0,0,1,1944,210.28Z" fill="#3db797"/><path d="M1810,288.46s15.33,9.77,34,8.46c0,0-10.12,13-26.09,9.58S1810,288.46,1810,288.46Z" fill="#fff"/><path d="M2263.8,389s1.95-13.38,7.09-20.67,2.76-38.81,9.32-35.61.65,24.27,4.22,26.93,45.7-39.32,47.24-36.89-18.78,24.74-16,26.65,25.48-25.78,29.13-23.34-19.9,30.32-19.11,31.07,26.09-19.86,28.25-17.69-26.19,28.63-25,30.69,21.31-13.64,23.21-9.18-29.26,24.48-32.65,29.75-26.39,20-38.5,16.79S2259.81,395.24,2263.8,389Z" fill="#ffa982"/><path d="M2268.12,383s-25,43.59-28.92,47.82,8.46,19.74,22.28,23.4,17.2-.28,17.77-4.51,10.71-40.32,13-47.94S2287.73,374.6,2268.12,383Z" fill="#ffa982"/><path d="M1560.58,498.08l-.45,0a5,5,0,0,0-5.46,5.55h0l6.39.49L1588,845.19l232.59,17.95L1793.17,516Z" fill="#8b5cf6"/><polygon points="1817.6 865.43 1585.01 847.48 1558.28 480.08 1787.48 498.03 1817.6 865.43" fill="#fff"/><polygon points="1814.68 868.64 1582.09 850.7 1554.67 503.59 1787.26 521.54 1814.68 868.64" fill="#8b5cf6"/><path d="M1529.35,636.36s176.65,33.57,189,55.46c4.8,8.53,2.63,59.25-14.75,77.51-27.2,28.61-116.79,19.35-191.73,3.62C1389,747.17,1443.44,619.73,1529.35,636.36Z" fill="#eae6e4"/><path d="M1732.14,709.94s7.94-12.29,17.48-16.17,14.62-4.6,20.54-8.41c8.8-5.64,20.13-22,21.49-14.13,1.81,10.56.62,15.87-15.54,28.17-4.42,3.36,3.69,7.72-8.33,10.64S1730.59,712.15,1732.14,709.94Z" fill="#ffa982"/><path d="M1790.89,720c-3.65-3.08-4.88-5-1.84-4.81s35,18.19,38.81,14.7-20.91-22.92-26-27.34-28.3-6.9-39.45-3.29c-6.71,2.18-14.6,4.94-19.4,5-15.48.28-28.08-.85-34.08-3.11-36.45-13.77-27.4,38.34-15.61,43.89,6.44,3,37.71,12,45.16,12.52,10.67.73,12.89-3.82,22.85-2.76s35.24,14.38,39.91,11.29-12.8-18.35-12.8-18.35,22.81,11.6,29.15,9.82,0-10.58,0-10.58,12.71,9.3,13.52,1.39S1794.54,723,1790.89,720Z" fill="#ffa982"/><path d="M1869.28,272.81a1.14,1.14,0,1,1,0-2.28c.25,0,25.85,0,34.29-1.62a1.14,1.14,0,0,1,.42,2.25C1895.34,272.79,1870.34,272.81,1869.28,272.81Z" fill="#2e2e47"/><path d="M1814.79,276.17c-7.12,0-12-3.47-13.13-7.1-1.47-4.54,1.31-16.19,4.09-19.54a2.74,2.74,0,0,1,2.45-1.24c.21,0,20.84,4.15,21.29,9.74.25,3-2.22,9.52-5.91,13.76-2.33,2.69-4.91,4.19-7.47,4.34C1815.66,276.16,1815.22,276.17,1814.79,276.17Zm-6.87-25.62a4.65,4.65,0,0,0-1.2,1.66c-2.3,4.37-3.87,13.13-2.89,16.16h0c1,2.94,5.53,5.87,12.15,5.48,2.43-.14,4.54-2,5.88-3.55,3.49-4,5.54-9.94,5.36-12.09,0-.07-.24-1.84-8.38-4.7A73.91,73.91,0,0,0,1807.92,250.55Z" fill="#2e2e47"/><path d="M1855.49,289.26c-9.09,0-15.52-3.93-17.18-7.82-1.91-4.48.41-15.48,3.36-19.28,1.2-1.55,2.35-1.74,3.1-1.62.25,0,24.78,5.34,25.63,11a7.28,7.28,0,0,1-.06,2.21c-.91,5.57-6.61,15.53-14.77,15.55Zm-11.08-26.47c-.13,0-.47.16-.94.77-2.47,3.18-4.61,13.35-3.06,17h0c1.33,3.13,7.07,6.44,15.08,6.44h.07c6.68,0,11.78-9,12.52-13.64a4.83,4.83,0,0,0,.07-1.5c-.4-2.65-18-8.16-23.73-9Z" fill="#2e2e47"/><path d="M1839.83,270.45a1.14,1.14,0,0,1-.82-.35c-3.43-3.56-12-4.93-12.09-4.94a1.14,1.14,0,1,1,.35-2.25c.38,0,9.41,1.49,13.38,5.6a1.14,1.14,0,0,1-.82,1.94Z" fill="#2e2e47"/><path d="M1820.67,221.68c-23.31-12.32,12.66-51.8,37.18-51.88,22.42-.08,24.64,12.19,24.64,12.19s16.56.77,39.52,8.79,28.41,33.51,21.4,57.05-21.67,31.76-29.53,31.47-15.14-7.07-15.14-7.07-3.45,5.92-1,17.24c1.72,7.92,1,10.94,2.16,21.6s-1.31,15.94-2.29,14.83-2.6-20.8-7.16-23.52-9.54-19.79-9.39-25.2,1-37.43,1-37.43S1836.84,230.23,1820.67,221.68Z" fill="#3db797"/><path d="M2134.72,739.06a1.77,1.77,0,0,1-1.4-.77c-4.35-5.44-7.61-16.18-10.4-52.89-2.62-34.41,17.14-98.52,17.34-99.17a1.14,1.14,0,1,1,2.18.68c-.2.64-19.83,64.34-17.24,98.32s5.58,45.41,9.24,50.75c.8-4.74,0-22-.62-36.18-.68-15.12-1.39-30.75-.75-37.83,1.5-16.51,7.12-39.49,7.18-39.72a1.14,1.14,0,1,1,2.21.55c-.06.22-5.64,23-7.11,39.38-.63,6.92.07,22.47.75,37.52,1.46,32.21,1.32,38.45-.87,39.27A1.51,1.51,0,0,1,2134.72,739.06Z" fill="#2e2e47"/><path d="M2112,719.92h0a1.14,1.14,0,0,1-1.11-1.17c0-.34.76-34.91,1.88-62.06,1.12-27.35,18.6-66.21,18.78-66.6a1.14,1.14,0,0,1,2.07.94c-.17.39-17.47,38.85-18.57,65.76-1.12,27.12-1.88,61.67-1.88,62A1.16,1.16,0,0,1,2112,719.92Z" fill="#2e2e47"/><path d="M1454.23,688.86h-.14c-1-.07-1.86-.85-2.42-2.34-4.1-10.67,7.18-34.23,38.3-48.9,16-7.53,35.88-5.73,49.76-2.9a150.21,150.21,0,0,1,26.47,8,1.14,1.14,0,1,1-.91,2.09c-.44-.19-44.77-19-74.35-5.11-29.88,14.08-40.93,36.15-37.14,46,.28.75.5.89.5.89,1.06-.22,4-5.65,6.32-10,5.73-10.67,14.38-26.8,26.67-31.45,20.92-7.91,37.14-5.25,37.82-5.13a1.14,1.14,0,0,1-.38,2.25c-.16,0-16.33-2.66-36.63,5-11.49,4.35-19.9,20-25.47,30.39C1458.5,685.37,1456.53,688.86,1454.23,688.86Z" fill="#2e2e47"/><path d="M1480.93,684.22h-.15a1.14,1.14,0,0,1-1-1.27c.09-.75,2.6-18.45,25.48-28.75,22.56-10.15,46-8.57,46.23-8.55a1.14,1.14,0,0,1-.17,2.27c-.22,0-23.11-1.54-45.13,8.36-11.32,5.1-17.28,12.15-20.29,17.17a28.67,28.67,0,0,0-3.86,9.79A1.14,1.14,0,0,1,1480.93,684.22Z" fill="#2e2e47"/><path d="M1554.67,634.53a1.06,1.06,0,0,1-.59-.17c-24-14.59-69.26-5-69.71-4.94a1.15,1.15,0,0,1-1.36-.88,1.14,1.14,0,0,1,.87-1.35,172.59,172.59,0,0,1,26.22-3.11c19.54-.82,34.74,2,45.16,8.33a1.14,1.14,0,0,1-.59,2.12Z" fill="#2e2e47"/><path d="M1845.12,1015.35a1.11,1.11,0,0,1-.65-.2C1788.3,976.68,1722.22,971,1721.56,971a1.14,1.14,0,1,1,.18-2.27c.67,0,67.33,5.73,124,44.56a1.14,1.14,0,0,1,.3,1.58A1.12,1.12,0,0,1,1845.12,1015.35Z" fill="#fff"/><path d="M1704.4,1011.36c-14.14,0-14.45-1.8-14.64-2.9-.3-1.7,1-3.74,19.3-8.14,42-10.09,94.09-2.92,94.61-2.84a1.14,1.14,0,1,1-.32,2.25c-.51-.07-52.16-7.18-93.76,2.8-12.89,3.1-16.36,4.85-17.3,5.55,3.38,1.49,22.81,1.41,45.11-1a1.14,1.14,0,0,1,.25,2.27c-10.67,1.16-22.32,1.92-31.15,2Z" fill="#fff"/><path d="M2009.37,951.9a1.16,1.16,0,0,1-.51-.12c-32-16-52.66-42.92-61.4-80-.28-1.19-.55-2.31-.66-2.55a1.18,1.18,0,0,1,.48-1.53,1.12,1.12,0,0,1,1.5.39,14.61,14.61,0,0,1,.9,3.17c8.58,36.42,28.84,62.83,60.2,78.51a1.14,1.14,0,0,1-.51,2.16Z" fill="#fff"/><path d="M2098.12,1827.2h-.07A1.14,1.14,0,0,1,2097,1826c0-.38,2.17-38.42-3.73-60.54-3.65-13.71-10.58-118.3-16.14-202.34-3.62-54.79-6.76-102.11-7.94-108.31-.71-3.75-2.76-19.07-5.58-40.28-9-67.34-27.64-207.45-40.26-247.6-16.39-52.15-31.62-224.45-31.77-226.18a1.15,1.15,0,0,1,1-1.24,1.12,1.12,0,0,1,1.23,1c.16,1.73,15.36,173.78,31.68,225.7,12.68,40.33,31.36,180.58,40.34,248,2.82,21.17,4.86,36.46,5.56,40.15,1.21,6.34,4.35,53.73,8,108.59,5.55,83.94,12.47,188.41,16.07,201.9,6,22.48,3.82,60.88,3.79,61.27A1.13,1.13,0,0,1,2098.12,1827.2Z" fill="#fff"/><path d="M2006.56,829.52a1.15,1.15,0,0,1-.77-.3c-.24-.22-25.11-22.43-65.3-27.63a1.14,1.14,0,1,1,.29-2.26c40.93,5.29,66.3,28,66.55,28.2a1.14,1.14,0,0,1-.77,2Z" fill="#2e2e47"/><path d="M2038.71,809.78a1.14,1.14,0,0,1-.79-.32c-.17-.16-16.57-15.79-45.64-27.4s-104-14.37-104.76-14.4a1.14,1.14,0,0,1-1.1-1.17,1.17,1.17,0,0,1,1.18-1.11c3.09.11,76,2.78,105.52,14.56s46.22,27.72,46.38,27.88a1.14,1.14,0,0,1-.79,2Z" fill="#2e2e47"/><path d="M1790.27,1836.23h0a1.15,1.15,0,0,1-1.11-1.17c0-1,2.4-96.09-4.27-126.06-6.81-30.66-6-100-3.73-139,1.16-20.2.65-48.17.11-77.79-.5-27.45-1-55.83-.11-77.85.75-18.24,0-50.47-.73-84.59-1.12-49.92-2.4-106.49.74-132.07,5.2-42.46,20-97.21,20.16-97.76a1.14,1.14,0,1,1,2.2.6c-.15.54-14.92,55.15-20.1,97.43-3.11,25.42-1.84,81.91-.72,131.74.76,34.17,1.49,66.43.73,84.74-.91,22-.39,50.3.11,77.72.54,29.66,1,57.68-.11,78-2.23,39-3.08,108,3.68,138.43,6.72,30.24,4.35,125.64,4.32,126.6A1.14,1.14,0,0,1,1790.27,1836.23Z" fill="#fff"/><path d="M1835.46,1090.74a1.14,1.14,0,0,1-1.11-.89l-17.87-79.38a1.14,1.14,0,1,1,2.23-.5l17.86,79.38a1.14,1.14,0,0,1-.86,1.36A1.07,1.07,0,0,1,1835.46,1090.74Z" fill="#fff"/></svg>