<svg xmlns="http://www.w3.org/2000/svg" xml:space="preserve" id="Layer_1" x="0" y="0" style="enable-background:new 0 0 2100 2100" version="1.1" viewBox="0 0 2100 2100"><style>.st1{fill:#6106ef}.st2{fill:#a28ff2}.st3{fill:#ed3e86}.st4{fill:#686874}.st6{fill:#c4b0ff}.st8{fill:#5e6d7f}.st11{fill:#fff}.st12{fill:#90abfb}.st14{fill:#d6004a}.st15{fill:#86929e}.st20{fill:#eee}.st22{fill:#4ea844}</style><g style="opacity:9.000000e-02"><path d="M993.5 1507.1v567.4c0 14.1-11.4 25.5-25.5 25.5H25.5c-14.1 0-25.5-11.4-25.5-25.5v-567.4c0-14.1 11.4-25.5 25.5-25.5H968c14.1 0 25.5 11.4 25.5 25.5zM2100 687.6v609.6c0 14.1-11.4 25.5-25.5 25.5h-345c-14.1 0-25.5-11.4-25.5-25.5V687.6c0-14.1 11.4-25.5 25.5-25.5h345c14.1-.1 25.5 11.4 25.5 25.5zM259.2 1120.7H25.5c-14.1 0-25.5-11.4-25.5-25.5V861.5C0 847.4 11.4 836 25.5 836h233.7c14.1 0 25.5 11.4 25.5 25.5v233.7c0 14.1-11.4 25.5-25.5 25.5z" class="st1"/><path d="M1628 1967.4h-232.5c-14.1 0-25.5-11.4-25.5-25.5v-232.5c0-14.1 11.4-25.5 25.5-25.5H1628c14.1 0 25.5 11.4 25.5 25.5v232.5c0 14.1-11.4 25.5-25.5 25.5z" class="st2"/><path d="M1918.4 1677.7c-14.1 0-25.5-11.4-25.5-25.5s11.4-25.5 25.5-25.5 25.5 11.4 25.5 25.5-11.4 25.5-25.5 25.5zm-25.5-1437.1h51v51h-51z" class="st3"/><path d="M1789 497.5h-82c-14.1 0-25.5-11.4-25.5-25.5v-81.9c0-14.1 11.4-25.5 25.5-25.5h81.9c14.1 0 25.5 11.4 25.5 25.5V472c.1 14.1-11.4 25.5-25.4 25.5z" class="st2"/><path d="M495 791.5h51.5V843H495z" class="st3"/><path d="M205.2 327h-61.8c-14.1 0-25.5-11.4-25.5-25.5v-61.8c0-14.1 11.4-25.5 25.5-25.5h61.8c14.1 0 25.5 11.4 25.5 25.5v61.8c0 14.1-11.4 25.5-25.5 25.5z" class="st2"/><path d="M1382.1 25.5v544.2c0 14.1-11.4 25.5-25.5 25.5h-965c-14.1 0-25.5-11.4-25.5-25.5V25.5C366 11.4 377.5 0 391.6 0h965.1c14 0 25.4 11.4 25.4 25.5z" class="st1"/></g><path d="M1356.3 201.5c1.8-.7 3.6-1.5 5.4-2.3-1.8.8-3.6 1.5-5.4 2.3zM946.1 2100c1-1.6 1.9-3.2 2.8-4.8 4.4-7.7 8.5-15.6 12.4-23.6-4.7 9.7-9.8 19.1-15.2 28.4z" class="st4"/><circle cx="146.7" cy="362.2" r="9" class="st4"/><circle cx="763.8" cy="90" r="8.1" class="st4" transform="rotate(-45.001 763.804 90.01)"/><circle cx="1226.8" cy="220.8" r="5.8" class="st4"/><circle cx="2001.8" cy="268.2" r="6.2" class="st4"/><circle cx="1601.7" cy="455.7" r="7.7" class="st4" transform="rotate(-76.714 1601.757 455.76)"/><circle cx="1970.5" cy="1214.5" r="4.5" class="st4"/><circle cx="1806.5" cy="1682.5" r="6.7" class="st4"/><circle cx="961.5" cy="2069" r="8" class="st4"/><circle cx="94.5" cy="1801" r="7.5" class="st4"/><circle cx="406" cy="1355.5" r="7" class="st4"/><path d="M529.9 508.5h-37.5V471h37.5v37.5zm-32.4-5H525V476h-27.5v27.5zM807.2 229h-83.4v-83.4h83.4V229zm-78.3-5h73.4v-73.4h-73.4V224zm750.2-114h-30V80h30v30zm-25-5h20V85h-20v20zm461.6 217.2h-74.2V248h74.2v74.2zm-69.2-5h64.2V253h-64.2v64.2zm50.7 280.5h-33.7V564h33.7v33.7zm-28.7-5h23.7V569h-23.7v23.7zM1744.7 1076h-86.2v-86.2h86.2v86.2zm-81.2-5h76.2v-76.2h-76.2v76.2zm371 699h-114v-114h114v114zm-109-5h104v-104h-104v104zm-34.6 74h-29.4v-29.4h29.4v29.4zm-24.4-5h19.4v-19.4h-19.4v19.4zm-313 175h-71v-71h71v71zm-66-5h61v-61h-61v61zm-1219-163h-72v-72h72v72zm-67-5h62v-62h-62v62zM311 1179.8H203.5v-107.5H311v107.5zm-102.5-5H306v-97.5h-97.5v97.5zm218.3-8.3h-48.3v-48.3h48.3v48.3zm-43.3-5h38.3v-38.3h-38.3v38.3zm145.3-346.7h-88.3v-88.3h88.3v88.3zm-83.3-5h78.3v-78.3h-78.3v78.3zM295.5 398h-110V288h110v110zm-105-5h100V293h-100v100z" class="st4"/><path d="M806.1 1529.4c.1 0 .2-.1.3-.1 6.8-2.4 9.7-5.2 14-9.3 1.1-1 2.3-2.2 3.8-3.5.1-.1.3-.3.5-.4 1-.8 2.1-1.8 3.3-2.7 2.8-2.2 6.3-4.7 10.9-7.6.8-.5 1.6-1 2.5-1.5h.1l.6-.3c3.2-1.9 5.9-3.4 9.4-5.1 2.2-1 4.8-2.2 8-3.5.1 0 .1 0 .2-.1 2.4-1 5.1-2.1 8.3-3.3h.1c1.2-.5 2.5-1 3.9-1.5.9-.3 1.8-.7 2.7-1 1.7-.6 3.5-1.3 5.4-2.1l1.5-.6c5-1.9 10.9-4.1 17.6-6.7.4-.1.8-.3 1.1-.4.9-.3 1.7-.6 2.5-1 2-.7 3.9-1.5 5.7-2.2 2.3-.9 4.4-1.7 6.5-2.6h.1c2.1-.8 4-1.6 6-2.3 1.3-.5 2.6-1.1 3.8-1.5 16.8-6.9 26.1-12.2 30-19.2 9-16.2 2.8-35.1 1.3-39.1-11.7-32.3-53.7-46.3-84.4-45.7-8.9.2-21 4-43.2 11.7-2.4.8-5 1.7-7.6 2.6-2.9 1-5.7 2-8.5 3-2.4.9-4.7 1.7-6.9 2.5-5.9 2.1-11.3 4.1-16.2 6.1-.4.1-.7.3-1.1.4-1.4.6-2.8 1.1-4.1 1.6-1.9.8-3.8 1.5-5.6 2.2-1.2.5-2.4 1-3.5 1.5l-1.5.6c-14.4 6-23.8 10.7-30.3 14.5-.4.3-.9.5-1.3.8-5.6 3.4-8.7 6.1-10.9 8.3-.6.6-1.2 1.3-1.7 1.8-6.9 7.7-25.4 28.5-22 52.7 5.6 38.2 63.7 65.1 98.7 53zm-75-118.6c2.8-.8 6.2-2.1 10.3-3.8.5-.2 1-.4 1.5-.7.5-.2 1-.5 1.6-.7 2.3-1 4.8-2.2 7.5-3.6 4.8-2.4 10.3-5.3 16.7-8.8 2.7-1.5 5.5-3 8.5-4.8 3-1.7 6.2-3.6 9.6-5.6l4.5-2.7c5.3-3.2 10.4-6.3 15.3-9.3 4.5-2.8 8.8-5.6 13-8.3 1.5-.9 2.9-1.9 4.3-2.8h.1c.9-.6 1.9-1.2 2.8-1.8l.1-.1c2.4-1.6 4.8-3.2 7.1-4.7 1.8-1.2 3.6-2.4 5.3-3.5h.1c.5-.4 1.1-.8 1.7-1.2.1-.1.2-.1.3-.2.1 0 .1-.1.1-.1.6-.4 1.2-.9 1.9-1.3h.1c3.7-2.5 7.2-5 10.5-7.3 1.7-1.2 3.3-2.3 4.8-3.4.3-.2.5-.4.7-.5 1.4-1 2.7-1.9 4-2.9l.6.3c.4.2.7.3 1.1.5l1.5.6c3 1.3 5.9 2.4 8.9 3.4.5.2 1 .4 1.6.5 4.9 1.6 9.8 2.9 14.6 3.8 6.3 1.2 12.4 1.8 18.3 1.9h3.7c11.8-.3 22.5-2.8 30.9-7.2 3.3-1.7 6.2-3.7 8.8-5.9.7-.6 1.4-1.2 2.1-1.9 3.9-3.8 8.2-9.2 13.3-17.8 2.2-3.8 4.6-8.3 7.2-13.5 2-4.1 4.1-8.4 3.5-12.9-.8-6.6-6-10.9-8.9-13.2-35-28.1-65.7-36.9-65.7-36.9-12.3-3.5-27.7-8-47.9-8.3-1.2 0-2.4-.1-3.6 0-8.6.1-16.9.8-24.8 2.2-.2 0-.5.1-.7.1-3.3.6-6.5 1.3-9.7 2.1-16.2 4-30.4 10.3-42.3 17.2-.1 0-.1.1-.2.1-13.6 7.9-24.3 16.5-31.6 23.1-.7.6-1.4 1.3-2 1.8-1 .9-1.9 1.8-2.7 2.6-3 2.9-5 5.1-5.9 6.2l-1.8 2.1c-18.5 21.2-31.8 48.1-25.6 54.7 2.2 2.3 5.9 1.2 9.8.4 2.4-.5 4.8-.8 7-.2.4.1.8.2 1.2.5.4.2.9.4 1.3.7 2 1.5 3 3.9 3.2 7v.2c.1.6.1 1.3 0 2v.2c-.2 5.8-2.5 13.4-5 21.3-1.5 4.6-3.1 9.4-4.6 13.9-.2.5-.3 1-.5 1.6-3.3 11-5.2 20.7-.6 24.9 1.4 1.3 4.4 2.6 13.1 0zm25-174.3c.3.6.5 1.1.7 1.5.2.3.3.6.4.8.6-.3 1.2-.5 1.8-.8l.4-.2h.2c1.3-.6 2.7-1.2 4-1.7 1-.4 1.9-.8 2.9-1.2.8-.3 1.7-.7 2.6-1.1.1 0 .2-.1.3-.1s.2-.1.3-.1c.3-.1.6-.3 1-.4 6.9-2.8 13.7-5.4 20.2-7.7 1.9-.7 3.7-1.3 5.5-1.9h.1c.2-.1.3-.1.5-.2 3.2-1.1 6.4-2.1 9.5-3 5-1.6 9.9-3 14.7-4.3l5.7-1.5c.7-.2 1.5-.4 2.2-.6 1.9-.5 3.8-1 5.7-1.4.2 0 .4-.1.7-.1 2-.5 4-.9 6-1.3 1-.3 2-.5 3-.7.8-.2 1.6-.3 2.3-.5h.1c.4-.1.8-.2 1.3-.2.3-.1.6-.1.9-.2h.1l1.5-.3c.6-.1 1.3-.2 1.9-.3h.1c.3-.1.5-.1.8-.2h.1c.5-.1 1-.2 1.4-.2h.1c2.5-.5 4.9-.9 7.2-1.2h.2c.2 0 .3-.1.5-.1h.2c1.2-.2 2.3-.4 3.4-.5.9-.1 1.9-.3 2.8-.4.4 0 .8-.1 1.2-.2.7-.1 1.3-.2 2-.3.3-.1.7-.1 1-.1s.7-.1 1-.1c.7-.1 1.3-.2 1.9-.3.3 0 .7-.1 1-.1s.6-.1.9-.1c2.6-.3 5.1-.6 7.6-.9 1.3-.1 2.6-.3 3.9-.4.3 0 .6-.1.9-.1.3 0 .6-.1.9-.1h.6c.3 0 .5 0 .8-.1h.1c.7-.1 1.4-.2 2.1-.2.3 0 .6-.1.9-.1.8-.1 1.7-.2 2.5-.2h.2c.2 0 .3 0 .5-.1.2 0 .3 0 .5-.1h.8c.3 0 .7-.1 1-.1h.3c.5 0 .9-.1 1.4-.1h1.1c.4-.1.9-.1 1.3-.1.3 0 .6-.1 1-.1h.1l.8-.1c1.1-.1 2.2-.2 3.4-.3l2.4-.3h1c.3 0 .5 0 .8-.1h.2c.3 0 .6-.1 1-.1h1.4c.2 0 .4 0 .6-.1h.3l2.1-.3c.3 0 .5-.1.8-.1.4-.1.9-.1 1.3-.2.4 0 .9-.1 1.3-.2 21.3-2.8 38.5-7.6 51.1-21.3 7.1-7.7 11.8-17.2 18.1-32.6 2-4.9 4.2-10.4 6.6-16.6 1-2.4 2.8-7.4 1-12.5-1.3-3.9-4.4-6.8-8.3-9.1-13.8-8.1-27.7-14-40.3-18.2-14.1-4.8-26.5-7.6-35.2-9.2-8-1.5-12.8-1.9-12.8-1.9-38.6-3.4-64.8-5.7-88.1-.2-3.4.8-6.8 1.7-10.1 2.9-3.7 1.3-7.3 2.8-11 4.5h-.1c-2.4 1.2-4.8 2.4-7.2 3.8-8.5 4.9-23 13.5-34.1 30-19.4 29-15.6 63.9-8.8 88.5.6 2.3 1.3 4.5 2 6.6 3.6 9.4 7.1 17.2 9 21.1z" style="fill:#b59bff"/><path d="M710.3 1496.2c-.4-1.7-.8-3.4-1-5.1-.4-3-.5-6-.4-8.8 0-.7.1-1.3.1-2 1.5-16.4 11.1-30.3 18.1-38.8 1.7-2 3.2-3.8 4.5-5.2l.4-.4.4-.5c.4-.4.8-.9 1.3-1.4 1.9-1.9 5.2-4.9 11.3-8.6.1 0 .1-.1.2-.1.4-.2.8-.5 1.2-.8.1 0 .2-.1.3-.1 6.7-3.9 15.2-8.1 26-12.7 1.4-.6 2.9-1.2 4.4-1.9h.1c.5-.2.9-.4 1.5-.6.8-.4 1.7-.7 2.6-1.1l.9-.4c1.8-.7 3.7-1.5 5.6-2.2.8-.3 1.6-.6 2.5-1l1.6-.6c.4-.2.8-.3 1.1-.4 5-1.9 10.5-4 16.3-6.1l1.5-.5c1.8-.6 3.6-1.3 5.4-1.9l2.6-.9c1.9-.7 3.9-1.4 5.8-2 1.4-.5 2.9-1 4.2-1.5 1.2-.4 2.3-.8 3.4-1.2 6.5-2.3 11.2-3.8 15.1-5.1 14.6-4.8 22.4-6.6 29-6.7 28.8-.6 62.2 10.5 79.2 32.9 3.4 4.5 6.2 9.4 8.1 14.8 1.5 4.3 5.3 16.8 2.7 30-.6 3-1.6 6.1-3 9.2l-1.2 2.4c-.4.8-.9 1.5-1.4 2.2-5.1 6.9-15 12.1-29.8 18.2-.1.1-.2.1-.4.2-1.3.5-2.5 1-3.8 1.5l-1.6.6c-1.3.5-2.7 1.1-4.1 1.6h-.1c-.1 0-.1.1-.2.1-1.3.5-2.7 1.1-4.1 1.6l-.7.3-1.8.7c-.7.3-1.5.6-2.2.8-1.1.4-2.1.8-3.2 1.2-.1 0-.2.1-.3.1l-1.1.4c-.5.2-.9.4-1.4.5l-18.7 7.1c-.4.2-.7.3-1.1.4l-6.5 2.5c-.7.3-1.5.6-2.2.8h-.1l-.7.3c-.5.2-1.1.4-1.6.6s-.9.4-1.4.5c-.1 0-.1.1-.2.1-3.1 1.2-5.8 2.3-8.1 3.2-.2.1-.3.1-.5.2-2.9 1.2-5.4 2.3-7.7 3.4-3.3 1.6-6 3-9.2 4.9l-.3.2c-.2.1-.4.2-.5.3-.4.2-.8.5-1.2.7s-.7.5-1.1.7c-3.9 2.4-7.4 4.9-10.6 7.4-1 .7-1.8 1.5-2.7 2.2-.1.1-.3.2-.4.4l-.3.3-.2.2c-1.4 1.3-2.6 2.4-3.7 3.4l-.4.4c-1.6 1.5-3.1 2.9-4.7 4.2-1.9 1.5-4 2.9-6.7 4.1-1 .4-2.1.9-3.2 1.3-.1 0-.1.1-.2.1l-.9.3c-19.7 6.5-46.9 1.7-69.3-12.2-16.4-10.4-27.4-24-31.2-38.7zm34.8 33.5c20.6 12.8 46.3 17.4 64.1 11.6l.9-.3c2.2-.8 4-1.6 5.5-2.5 2.6-1.6 4.5-3.4 7.1-5.8l.4-.4c1.1-1.1 2.4-2.2 3.7-3.4l.4-.4s.1-.1.2-.1l.1-.1c1-.9 2-1.7 3.2-2.7 3.4-2.7 7-5.2 11.2-7.8.3-.2.7-.4 1-.6l1.5-.9s.1 0 .1-.1l.6-.3c3.4-2 6.2-3.5 9.7-5.2 2.4-1.1 5.1-2.3 8.1-3.6.1 0 .1-.1.2-.1 2.4-1 5-2 8.2-3.3.1 0 .2-.1.3-.1l3-1.2.8-.3.2-.1c.7-.3 1.3-.5 2-.8l6.5-2.5c.3-.1.6-.2 1-.4l18.8-7.2c.5-.2.9-.3 1.4-.5l.8-.3c.1-.1.2-.1.3-.1 1.2-.4 2.3-.9 3.4-1.3.8-.3 1.5-.6 2.2-.9l1.5-.6 1-.4 3.9-1.5c.1 0 .2-.1.3-.1 1.5-.6 2.9-1.1 4.3-1.7l1.5-.6 3.6-1.5c.1 0 .1-.1.2-.1 10.6-4.4 18.7-8.2 23.8-12.5h.1c2.1-1.7 3.7-3.5 4.7-5.4.7-1.2 1.3-2.4 1.8-3.7 4.1-10.2 2.6-21.1.9-27.8-.5-2.2-1.1-4-1.5-5.1-10.7-29.5-49.1-44.3-81.5-43.6-5.8.1-13.4 1.9-27.2 6.4-3.9 1.3-8.6 2.9-15 5.1-1.1.4-2.3.8-3.4 1.2l-4.2 1.5c-2 .7-3.9 1.4-5.8 2l-2.6.9c-1.9.7-3.6 1.3-5.4 1.9l-1.5.5c-5.7 2.1-11.2 4.1-16.3 6.1l-.9.3-1.7.6-2.4.9c-1.9.8-3.8 1.5-5.6 2.2l-.9.4c-.9.4-1.7.7-2.5 1.1-.1 0-.1.1-.2.1-.4.2-.9.3-1.3.5-.1 0-.1.1-.2.1-12.5 5.2-22.5 10-29.8 14.2-.3.1-.5.3-.8.5-.1.1-.3.2-.5.3-5.6 3.4-8.5 6-10.3 7.8-.4.4-.8.9-1.1 1.2l-.5.5c-.6.7-1.3 1.4-2 2.3-1.2 1.4-2.6 3-4.1 4.9-7.7 9.8-17.6 25.5-15.1 43.1.4 3 1.2 6 2.4 8.9 4.4 11.6 14 22.4 27.4 30.8z" class="st4"/><path d="M717.4 1410.3c.2-1.1.4-2.2.7-3.3.6-2.5 1.3-5.1 2.1-7.6.2-.6.3-1.1.5-1.7.9-2.7 1.8-5.5 2.7-8.3.5-1.5 1-3 1.5-4.4.1-.4.3-.8.4-1.2 2.4-7.3 4.7-14.9 4.9-20.5v-2.1c-.1-2.4-.8-3.6-1.4-4.2-.2-.3-.5-.4-.6-.5-.2-.2-.4-.3-.7-.4h-.1c-.1 0-.2-.1-.3-.1-.1-.1-.2-.1-.5-.2-1.2-.3-2.6-.2-4 0-.6.1-1.1.2-1.6.3l-1.1.2c-3.9.8-8.4 1.7-11.5-1.5s-3-8.8-.9-15.6c2.7-8.7 8.6-19.2 15.3-28.8 1.7-2.5 3.6-5 5.4-7.3 1.9-2.5 3.9-4.8 5.8-7 .6-.7 1.3-1.4 1.9-2.1.7-.8 2.8-3.1 6.1-6.4l2-1.8 2.8-2.6c9.8-8.9 20.6-16.8 32-23.4.1 0 .1-.1.2-.1.1-.1.1-.1.2-.1 13.8-7.9 28.4-13.9 43.1-17.5 3.4-.8 6.6-1.5 9.8-2.1.3-.1.6-.1.9-.2 8.2-1.4 16.7-2.2 25.2-2.3h3.7c20.5.4 36 4.8 48.5 8.4h.1c1.3.4 31.8 9.3 66.8 37.4.6.5 1.4 1.1 2.3 1.9 3 2.7 7 7.2 7.7 13.3.7 5.6-1.9 10.8-3.8 14.6-2.4 5-4.9 9.6-7.3 13.7-4.7 8-9 13.8-13.6 18.4l-.2.2c-.8.7-1.5 1.4-2.2 2-2.9 2.5-6 4.6-9.4 6.3-8.9 4.7-20 7.3-32.3 7.6-1.2 0-2.5.1-3.8 0h-.2c-6-.1-12.2-.7-18.5-1.9-5.1-1-10.2-2.3-14.9-3.9l-1.8-.6c-2.9-1-6-2.1-9.1-3.5l-1.5-.7c-.8.6-1.7 1.2-2.5 1.8l-.2.1c-.2.1-.4.3-.6.4-.8.6-1.7 1.2-2.6 1.8-.7.5-1.4 1-2.2 1.6-3.7 2.6-7.1 5-10.5 7.3h-.1c-.4.3-.8.5-1.2.8l-.5.4c-.1.1-.2.1-.2.2-.1.1-.2.1-.3.2-.5.4-1.1.7-1.6 1.1-.1 0-.1.1-.2.1l-1.8 1.2c-1.1.7-2.2 1.5-3.3 2.2-.1.1-.1.1-.2.1-2.1 1.4-4.2 2.8-6.4 4.2l-.7.5c-.1 0-.2.1-.3.1-.4.2-.7.5-1.1.7-.5.3-1.1.7-1.6 1l-.9.6c-1.1.7-2.2 1.5-3.4 2.2-4.2 2.7-8.5 5.4-13 8.3-5.4 3.4-10.4 6.4-15.3 9.4l-1.9 1.1c-.9.5-1.7 1-2.5 1.5-.1.1-.3.2-.4.2-3.2 1.9-6.3 3.7-9.2 5.4-.1 0-.2.1-.2.1-3.1 1.8-6.1 3.5-8.5 4.8-.7.4-1.4.8-2.1 1.1-5.5 3-10.4 5.6-14.7 7.7-2.9 1.5-5.6 2.7-7.5 3.6-.6.3-1.1.5-1.7.8-.5.2-1 .4-1.5.7-.2.1-.3.1-.4.2-.6.2-1.1.4-1.6.6-2.5 1-4.7 1.8-6.7 2.5-.7.2-1.3.4-1.9.6-2.8.8-5.3 1.3-7.4 1.5-1.9.2-3.5.1-5-.3-.7-.2-1.3-.4-1.9-.7-.7-.4-1.4-.8-2-1.4-4.5-3.4-4.8-9.6-3.5-16.7zm17.6 12.1c2.7-.8 5.9-2 9.9-3.7.5-.2 1-.5 1.5-.7s1-.4 1.5-.7c1.9-.9 4.5-2.1 7.4-3.5 4.8-2.4 10.2-5.2 16.5-8.7 2.4-1.3 5.2-2.9 8.2-4.6.1-.1.2-.1.3-.2 3-1.7 6.1-3.6 9.5-5.5l.1-.1s.1-.1.2-.1c.8-.5 1.6-1 2.5-1.5l1.9-1.1c3-1.8 6-3.6 9.1-5.5 2-1.2 4-2.5 6.1-3.8 4.5-2.8 8.8-5.6 13-8.3 1.4-.9 2.9-1.9 4.2-2.8l.1-.1 1.5-.9c.4-.3.9-.6 1.3-.8h.1l.1-.1.6-.4c2.1-1.4 4.2-2.8 6.1-4.1l.2-.2c1.1-.8 2.3-1.5 3.4-2.3l1.9-1.3c.6-.4 1.2-.8 1.7-1.2.1-.1.2-.1.3-.2.1 0 .1-.1.1-.1l.6-.4c.4-.3.9-.6 1.3-.9 3.4-2.3 6.8-4.6 10.4-7.2.7-.5 1.5-1 2.2-1.5.9-.6 1.8-1.3 2.7-1.9.1-.1.3-.2.4-.3l.3-.2c1-.7 1.9-1.3 2.8-2l1.2-.9c.9-.6 2-.7 3-.3.1.1.3.1.4.2l.1.1c.1 0 .1 0 .1.1.1.1.3.1.4.2.2.1.4.2.5.2l1.4.6c3 1.3 5.9 2.4 8.7 3.3.1 0 .1 0 .1.1.4.2.9.3 1.5.5 4.6 1.5 9.4 2.8 14.3 3.7 6 1.1 12 1.7 17.7 1.8h3.6c11.3-.3 21.4-2.6 29.6-6.9 3-1.5 5.7-3.3 8.2-5.5.6-.5 1.2-1.1 1.8-1.7 0-.1.1-.1.1-.2 4.3-4.2 8.3-9.6 12.8-17.2 2.4-4 4.8-8.5 7.1-13.4 2-4.1 3.7-7.7 3.2-11.2-.3-2.7-1.6-4.9-3.1-6.8-1.6-1.9-3.4-3.4-4.7-4.4-34-27.3-64.4-36.3-64.7-36.3h-.2c-12.2-3.5-27.3-7.8-46.9-8.2h-3.5c-8.2.1-16.4.8-24.3 2.2h-.4c-.1 0-.2 0-.3.1-3.1.5-6.2 1.2-9.5 2-14.1 3.5-28.1 9.2-41.4 16.9-.1.1-.2.1-.3.2-11.1 6.4-21.5 14.1-31 22.7l-4.6 4.3-1.2 1.2c-2.4 2.5-4 4.2-4.6 4.9-.6.7-1.2 1.3-1.8 2-3.5 4-6.6 8-9.5 12-2 2.8-3.9 5.6-5.5 8.3-4.3 7-7.5 13.4-9.4 18.6-2.2 5.9-2.7 10.2-1.3 11.6.8.8 3.5.3 5.9-.2l1.1-.2c1.1-.2 2.2-.4 3.4-.5 1.6-.1 3.3-.1 5 .3h.1c.3.1.6.2 1 .3.2.1.4.2.7.3.6.3 1.2.6 1.7 1 2.6 2 4.1 5 4.4 9.1v.3c.1.7.1 1.5 0 2.3v.3c-.3 6.3-2.6 14.3-5.2 22-.6 1.9-1.2 3.8-1.9 5.7-.9 2.8-1.8 5.5-2.7 8.3-.1.4-.3.9-.5 1.5-.6 2-1.2 4.2-1.8 6.5-.4 1.6-.7 3.2-1 4.8-.8 4.6-.7 8.7 1.3 10.5.6.5 1.5.8 2.7.9.6 0 1.3 0 2-.1 2 .1 3.9-.3 6.2-1z" class="st4"/><path d="M749 1229c-.6-1.9-1.2-3.9-1.7-5.8-.4-1.5-.8-2.9-1.2-4.5-2-8.2-3.7-17.3-4.3-26.9-1.2-19.4 1.9-40.7 14.6-59.6 3-4.5 6.3-8.4 9.6-11.9 3.4-3.5 6.9-6.6 10.2-9.1 4.3-3.3 8.4-5.9 11.7-7.9 1.3-.8 2.4-1.4 3.5-2.1 1.1-.6 2.3-1.3 3.4-1.9 1.3-.7 2.7-1.4 4-2.1.3-.1.5-.2.7-.3 3.5-1.7 7-3.1 10.5-4.3.1 0 .1-.1.2-.1 3.3-1.2 6.8-2.2 10.4-3 23.8-5.5 49.8-3.3 89.1.2.2 0 5 .4 13.1 1.9 11.8 2.2 24.1 5.4 35.6 9.3 6.5 2.2 12.8 4.7 19 7.3 2.9 1.3 5.7 2.6 8.5 3.9.8.4 1.6.8 2.5 1.2 3.8 1.9 7.4 3.9 11 6 1 .6 1.9 1.2 2.8 1.8 3.5 2.5 5.7 5.5 6.9 8.9 2.2 6.3-.2 12.4-1.1 14.6-1.8 4.7-3.5 8.9-5.1 12.8-.4 1-.8 1.9-1.1 2.8-.1.3-.3.7-.4 1-1.3 3.1-2.5 5.9-3.6 8.6-4.7 10.7-9 18.4-15 25-7 7.7-15.9 13.2-27.2 16.9-7 2.3-15.2 4-25.7 5.4-.5.1-.9.1-1.5.2-.4 0-.7.1-1.2.1l-3 .4h-.2c-.2 0-.4 0-.6.1-.1 0-.2 0-.4.1h-1l-1 .1h-.2c-.2 0-.4 0-.5.1h-.7c-.2 0-.4.1-.6.1l-6.5.7h-.1c-.4 0-.7.1-1.1.1-.4 0-.8.1-1.2.1h-1.3l-1.3.1h-.4l-1.5.1h-1c-.2 0-.4.1-.6.1-.8.1-1.5.2-2.4.2-.3 0-.6.1-.9.1-.7 0-1.4.1-2.1.2h-.1c-.2 0-.4 0-.6.1h-1.3c-.2 0-.4 0-.5.1-.3 0-.5.1-.8.1l-3.9.4c-2.5.3-5 .6-7.6.9-.3 0-.5.1-1 .1l-.4.1c-.2 0-.4 0-.4.1-.3.1-.6.1-.9.1-.3 0-.6.1-1 .1h-.2c-.2 0-.4.1-.7.1l-.5.1c-.2 0-.4.1-.7.1-.6.1-1.3.2-2 .3l-3.8.5h-.1c-.8.1-1.6.2-2.4.4l-.9.1c-.1 0-.3.1-.4.1h-.3c-.1 0-.2 0-.3.1h-.1c-2.5.4-5.1.8-7 1.2h-.2c-.3.1-.7.1-1 .2-.1 0-.3.1-.4.1h-.1l-.7.1h-.3l-1.9.3c-.4.1-.8.2-1.2.2-.1 0-.2 0-.3.1l-2 .4h-.2c-.4.1-.8.2-1.1.2-.4.1-.7.1-1.1.2h-.2c-.9.2-1.8.4-2.9.6-2 .4-3.9.8-5.9 1.3-.1 0-.3.1-.3.1-.1 0-.3.1-.4.1-1.8.4-3.6.9-5.6 1.4-.6.1-1.2.3-1.9.5l-.3.1c-1.3.3-2.6.7-3.9 1l-1.6.4-.2.1c-4.7 1.3-9.6 2.7-14.4 4.2-.1.1-.3.1-.4.1-2.7.8-5.5 1.7-8.3 2.7l-.8.3c-.1.1-.2.1-.4.1-.2.1-.4.1-.6.2-1.7.6-3.4 1.2-5.2 1.8-6.6 2.3-13.4 4.9-20 7.6-.1 0-.2.1-.2.1-.3.1-.5.2-.7.3-.1.1-.2.1-.4.1-.1.1-.3.1-.4.2-.8.4-1.7.7-2.5 1.1-1 .4-1.9.8-2.9 1.2-1.3.5-2.5 1.1-3.8 1.7-.1 0-.1.1-.2.1-.1.1-.3.1-.4.2l-1 .5c-.3.1-.7.3-1 .4-.4.2-.9.3-1.4.3-1 0-2-.5-2.5-1.5-.2-.3-.4-.7-.6-1.1l-.2-.5c-.2-.3-.3-.7-.5-1-.6-1.2-1.3-2.8-2.2-4.8-1.9-4.3-4.3-10.3-6.6-17.5v-.1c-.3.4-.4.1-.4-.2zm109-9h.3c.4-.1.7-.1 1.1-.2.2-.1.4-.1.7-.1 1.9-.4 4.4-.8 6.9-1.2h.3c.1 0 .2 0 .3-.1.1 0 .2 0 .4-.1h.2l1-.2c.8-.1 1.5-.2 2.3-.3h.2l4-.6c.7-.1 1.4-.2 2-.3.3-.1.6-.1.9-.1h.3c.3 0 .6-.1.9-.1h.1c.3-.1.7-.1 1-.1s.5-.1.9-.1l.4-.1c.2 0 .4 0 .4-.1.4-.1.7-.1 1-.1 2.6-.3 5.1-.6 7.7-.9l3.8-.4c.3 0 .6-.1 1-.1h1l.6-.1c.2 0 .3 0 .5-.1h.2c.7-.1 1.4-.1 2.1-.2.2 0 .4 0 .6-.1h.2c.9-.1 1.7-.2 2.5-.2h.1c.2 0 .3 0 .5-.1.2 0 .4-.1.6-.1.2 0 .4 0 .6-.1l1-.1c.2 0 .4-.1.4 0l1.3-.1h.2c.2 0 .4-.1.6-.1h.4c.4 0 .8-.1 1.2-.1.3 0 .5 0 .8-.1h.2l6.6-.7h1.1c.2 0 .4 0 .6-.1h.3l.8-.1h1.1c.2 0 .3-.1.4-.1h.7l2.8-.3c.4-.1.9-.1 1.4-.2.4-.1.8-.1 1.2-.2 10.2-1.4 18.1-3 24.7-5.2 10.4-3.4 18.2-8.2 24.6-15.2 6.5-7.1 11-16 16.6-29.6l.9-2.1c1-2.4 2-5 3.1-7.7.4-.9.7-1.9 1.1-2.8.8-1.9 1.6-3.9 2.4-6 .7-1.9 2.4-6.2 1-10.4-.5-1.4-1.3-2.8-2.5-4s-2.6-2.3-4.5-3.4c-1.7-1-3.4-2-5.2-2.9-.8-.5-1.7-.9-2.5-1.3-2.8-1.5-5.7-2.9-8.6-4.2-7.5-3.5-15.4-6.7-23.5-9.5-14.2-4.8-26.7-7.6-34.8-9.1-7.7-1.4-12.4-1.8-12.5-1.8-38.7-3.4-64.3-5.6-87.2-.3-2.9.7-5.6 1.4-8.3 2.3-.4.1-.9.3-1.3.5l-.2.1c-3.6 1.2-7.1 2.7-10.7 4.4-2.4 1.2-4.7 2.4-7 3.7-1.4.8-3 1.8-4.9 2.9-5.1 3.1-11.5 7.5-17.8 13.6-2.3 2.3-4.6 4.8-6.8 7.6-1.2 1.6-2.5 3.2-3.6 5-15.3 22.8-15.6 49.5-11.7 71.4.7 4.2 1.7 8.2 2.6 11.9.2.9.5 1.8.7 2.6.6 2.1 1.2 4.2 1.9 6.4v.1c1.2 3.7 2.4 7.1 3.6 10.1l.6 1.5c1.7 4.2 3.2 7.5 4.2 9.7 1.3-.6 2.7-1.2 3.9-1.7 1-.4 2-.9 3-1.3.8-.3 1.7-.7 2.5-1.1.1-.1.2-.1.3-.1s.2-.1.3-.1c.4-.2.8-.3 1.1-.4 6.8-2.8 13.6-5.4 20.4-7.7 1.9-.7 3.8-1.3 5.6-2 .1 0 .2-.1.3-.1s.2-.1.3-.1l.9-.3c2.6-.8 5.6-1.8 8.5-2.7l.2-.1c4.9-1.5 9.9-3 14.7-4.3.1 0 .1 0 .2-.1l1.7-.5c1.3-.3 2.7-.7 4-1l.3-.1c.7-.2 1.3-.3 1.9-.5 1.9-.5 3.9-1 5.7-1.4.1 0 .2 0 .3-.1.1 0 .3-.1.4-.1 2-.5 4-.9 5.9-1.3 1-.2 2.1-.5 3.1-.7.1 0 .2 0 .3-.1.3-.1.7-.1 1-.2.4-.1.7-.1 1.1-.2h.2l.5-.1c.3-.1.5-.1.8-.2l.6-.1c.2-.1.3-.1.5-.1.4-.1.9-.2 1.4-.3l.7-.1c.4-.1.8-.1 1.2-.2h.1l1-.5z" class="st4"/><path d="M1187.7 1442.3c-2.1 21.4-16.6 44.3-21.5 52.1-3.1 4.9-6.4 9.5-9.9 13.7l-.1.1c-1.7 2.1-3.5 4.2-5.3 6.1-.5.6-1.1 1.2-1.6 1.7-1.6 1.7-3.3 3.4-5 5-5.5 5.2-11.1 9.8-16.9 14-.3.2-.5.4-.8.6-.1.1-.3.2-.4.3h-.1c-5 3.6-10 6.7-14.9 9.7-.3.2-.6.4-1 .6-.2.1-.3.2-.5.3l-.6.3c-1.2.7-2.4 1.4-3.5 2.1-.5.3-1 .6-1.5.8-.3.2-.6.3-.9.5-.1 0-.2.1-.3.2-.3.2-.7.4-1 .6-.6.3-1.1.6-1.7 1l-2.7 1.5c-.9.5-1.7 1-2.6 1.4-.5.3-.9.5-1.4.7-1.3.7-2.5 1.3-3.7 2-.5.3-1.1.6-1.6.9-.4.2-.7.4-1 .5l-.6.3h-.1l-.6.3c-.4.2-.9.5-1.3.7s-.7.4-1.1.5c-1.5.8-3.1 1.5-4.6 2.2-.3.1-.7.3-1 .5h-.2c-.1 0-.1.1-.2.1h-.1l-.1.1h-.1c-1.3.6-2.6 1.2-3.8 1.7h-.1c-.6.3-1.3.6-1.9.8-.5.2-1 .5-1.5.7-1.2.6-2.5 1.1-3.7 1.6-.1.1-.3.1-.5.2-.9.4-1.8.8-2.7 1.1-.3.1-.7.2-1 .4-1.6.7-3.2 1.2-4.7 1.8-.7.2-1.3.5-2 .7-1.3.5-2.6 1-3.9 1.4-.6.2-1.1.4-1.7.6l-.9.3c-.3.1-.6.2-1 .3l-1.7.5c-1.3.4-2.6.9-3.9 1.2-.1 0-.2.1-.3.1-.9 1-1.8 2.1-2.8 3.1l-.5.5c-.1.1-.1.2-.2.2-.1.1-.2.2-.2.3-.2.2-.4.5-.7.8-.6.7-1.2 1.3-1.8 2l-4.8 5.4-.1.1c-.8 1-1.7 1.9-2.5 2.9-.2.2-.3.4-.5.6 0 0 0 .1-.1.1-.2.2-.3.4-.5.6-.4.5-.8.9-1.2 1.4-.8.9-1.6 1.8-2.4 2.8-.4.5-.8.9-1.2 1.4-.2.2-.4.5-.6.7-.2.2-.4.5-.6.7-.8.9-1.6 1.9-2.5 2.8-.1.1-.2.3-.4.4-.1.1-.2.3-.4.4-.6.7-1.1 1.3-1.7 2v.1h-.1l-.1.1c-.7.8-1.3 1.5-2 2.3l-.1.1c-.9 1.1-1.8 2.1-2.7 3.2-.3.5-.7.9-1.1 1.4l-1.2 1.4c-4.7 5.5-9.5 11.3-14.3 17.2-1.3 1.7-2.7 3.3-4 4.9l-.1.1-.1.1c-.2.2-.4.5-.6.7-.6.8-1.3 1.6-1.9 2.4-.3.4-.7.8-1 1.2-.3.3-.5.6-.7.9l-1.5 1.8c-.3.3-.5.7-.8 1-2.2 2.7-4.3 5.5-6.5 8.3-.2.2-.4.5-.5.7l-.9 1.2c-1.1 1.4-2.2 2.9-3.3 4.3-.4.5-.8 1-1.1 1.5s-.7.9-1 1.3c-1.1 1.5-2.3 3-3.4 4.5-1.3 1.7-2.6 3.4-3.8 5.1l-.6.9c-.2.3-.4.6-.6.8-2.4 3.2-4.7 6.3-6.8 9.3-.7 1-1.3 1.9-2 2.8-.5.7-1 1.4-1.4 2-.2.2-.4.5-.5.7-.2.2-.4.5-.5.7-1.1 1.5-2.1 3.1-3.2 4.7-.6.9-1.2 1.8-1.7 2.7-.4.5-.7 1-1 1.6-.2.3-.4.6-.5.9-.2.3-.3.5-.5.8v.1c-.2.3-.3.6-.5.9-.1.1-.2.2-.2.3-.1.1-.2.2-.2.4-.1.1-.1.2-.2.3 0 0 0 .1-.1.1 0 0 0 .1-.1.2l-1.3 2.2c-.2.4-.4.7-.7 1.1-.7 1.2-1.4 2.5-2.1 3.7-1.2 2.1-2.2 4.1-3.3 6.1l-1.5 3-1.5 3c-.3.6-.6 1.3-.9 1.9-.3.7-.6 1.3-.9 1.9l-1.5 3.3c-.4.8-.7 1.6-1.1 2.4l-.5 1.2c-1.4 3.1-2.7 6.2-4.2 9.5-1 2.3-2 4.6-3.1 7-2.2 5-4.7 10.3-7.5 16.1-.1.1-.1.2-.2.4-.2.2-.3.5-.4.8l-.6 1.2c-.2.4-.4.9-.6 1.2-.2.4-.4.8-.6 1.3l-.6 1.2c-.4.9-.9 1.7-1.3 2.6-1.4 2.6-2.8 5.4-4.3 8.3-.5 1-1 1.9-1.5 2.9s-1.1 2-1.6 3c-1.7 3-3.4 6.1-5.2 9.4-.4.7-.9 1.5-1.3 2.3-.7 1.1-1.4 2.3-2 3.5-.2.4-.4.8-.7 1.2-2.3 4-4.8 8.2-7.5 12.6-.5.8-.9 1.5-1.4 2.3s-1 1.6-1.4 2.3c-.3.5-.6 1-.9 1.6-.7 1.1-1.4 2.2-2 3.2-.7 1-1.4 2.1-2 3.2-3.1 4.9-6 9.4-8.7 13.6l-.1.1c-1.4 2-2.6 4-3.9 5.8v.1c-1.6 2.4-3.1 4.7-4.6 6.8-.2.2-.3.5-.5.7s-.3.5-.5.7c-.5.8-1 1.5-1.5 2.3-1.5 2.2-3 4.4-4.5 6.4-.4.5-.8 1.1-1.2 1.6l-.9 1.2c-.4.5-.7 1-1.1 1.6-.1.1-.2.2-.2.4-.4.5-.7 1-1.1 1.5-.2.2-.4.5-.6.7-.2.2-.3.5-.5.7-.3.4-.6.9-1 1.3-.4.6-.8 1.1-1.2 1.6-1.1 1.5-2.1 2.9-3.2 4.3-.3.4-.7.9-1 1.4h-.1c-2.3 3-4.5 5.9-6.6 8.7-.3.4-.7.9-1 1.3-.1.1-.2.3-.3.4-3 3.9-5.9 7.8-8.9 11.8-.7 1-1.4 1.9-2.1 2.9-.2.2-.3.5-.5.7-.6.7-1.1 1.5-1.7 2.2-.5.8-1.1 1.6-1.7 2.3-.3.5-.6.9-1 1.3-.8 1.1-1.5 2.2-2.3 3.3v.2c-.3.4-.6.8-.9 1.3-1.8 2.6-3.6 5.3-5.5 8.1-.7 1.1-1.5 2.2-2.3 3.4-1.5 2.3-3.1 4.7-4.7 7.3-.2.2-.3.4-.5.7-.5.7-.9 1.5-1.4 2.3-.1.1-.1.2-.2.4-.5.9-1.1 1.7-1.7 2.7 0 .1-.1.2-.2.3-.4.6-.7 1.2-1.1 1.8-.6.9-1.1 1.8-1.6 2.7l-2.7 4.5c-.7 1.3-1.5 2.5-2.2 3.8l-.9 1.5c-.6 1.1-1.3 2.2-1.9 3.2-.7 1.2-1.3 2.4-2 3.5-1.1 2-2.3 4-3.4 6-1 1.7-1.9 3.4-2.9 5.1-1 1.9-2 3.7-3 5.6-1 1.8-2 3.7-2.9 5.5 0 0-1.8 3.4-3.6 6.9-2.5 4.9-5.7 11.4-8.7 17.6-3.7 7.8-7.3 15.4-9.4 20-1.4 3.2-2.8 6.5-2.8 6.5-.8 1.9-1.5 3.4-1.9 4.5-.9 2.2-2.2 5.1-3.6 8.6-1.5 15.8-3 31.5-4.5 47.3H366.1c0-2.1 0-4.3.1-6.5 0-1.6.1-3.1.1-4.7 0-1.3 0-2.6.1-3.9 0-1 .1-2 .1-3v-2.7c.1-6.2.3-12.9.4-19.7 0-1.5.1-3 .1-4.5.4-10.1.9-18.1 1.1-22.3 4.5-24.4 7.8-45.3 10.2-63.1.2-1.2.3-2.5.5-3.7.2-1.3.3-2.6.5-3.8.2-1.3.4-2.7.5-4 .2-1.4.3-2.8.5-4.1 0-.2 0-.4.1-.6.2-1.7.4-3.5.6-5.2l.3-2.7c.2-1.8.4-3.7.6-5.4.1-1 .2-1.9.3-2.8.2-1.6.3-3.2.5-4.8.2-1.6.3-3.2.4-4.8.2-2.9.5-5.7.7-8.4.1-1.7.2-3.3.3-4.9 0-.8.1-1.6.1-2.4.1-1.6.2-3.3.3-4.9l.6-9.9c.1-1.4.1-2.8.2-4.2 0-.3 0-.6.1-.9 0-.4 0-.8.1-1.1v-1.1c.1-1 .1-2 .2-3 .1-1.7.2-3.3.3-4.9.1-.8.1-1.6.2-2.4 0-.8.1-1.6.2-2.4.1-2 .2-4.2.3-6.3.1-1 .1-2 .2-3 0-1 .1-2 .2-3 .1-1.5.2-3 .3-4.4.3-4.7.6-9.4 1-14 .1-1.4.2-2.7.3-4v-1.6c0-.4 0-.7.1-1l.6-8.7c.2-2.7.4-5.4.6-8 0-.3 0-.5.1-.8 0-.8.1-1.7.2-2.5.1-1.9.3-3.8.4-5.6.1-1.9.2-3.7.4-5.6l.3-4.2c0-.4 0-.9.1-1.3 0-.3 0-.6.1-.9 0-.4 0-.8.1-1.2v-.4c.2-2.9.4-5.7.6-8.6.2-3.6.5-7.2.8-10.8.1-1.8.3-3.6.4-5.3.2-1.7.3-3.5.4-5.3 0-.9.1-1.7.2-2.6 0-.9.1-1.7.2-2.6v-.7c.1-.6.1-1.2.2-1.8.2-3.1.5-6.1.7-9.1l.1-1.9c0-.7.1-1.4.2-2.1s.1-1.4.2-2.1c0-.5.1-1 .1-1.5 0-.4 0-.7.1-1 0-.9.1-1.7.2-2.5.1-1.3.2-2.6.3-3.8v-1.2c.1-1.5.3-3 .4-4.5l.3-4.5c.1-.8.2-1.7.2-2.5.1-1 .2-2.1.3-3.1.1-1 .2-2.1.3-3.1 0-.5.1-.9.1-1.3.1-1.6.3-3.2.4-4.8.1-1.8.3-3.7.5-5.5v-.2l.1-1.1c0-.7.1-1.5.2-2.2.1-1.2.2-2.5.3-3.7.2-2.7.5-5.5.7-8.2 0-.4.1-.8.1-1.1 0-.4.1-.8.1-1.2v-.8c.1-.7.1-1.5.2-2.2 0-.2 0-.5.1-.7v-.2c.1-1 .2-2 .3-3.1 0-.4.1-.7.1-1.1.1-1.1.2-2.2.3-3.2v-.5l.3-3.6c0-.5.1-1.1.1-1.6.2-1.6.3-3.2.5-4.8v-.7c0-.2 0-.5.1-.7.4-4.9.9-9.5 1.3-14.1.2-1.7.3-3.4.5-5 0-.4.1-.8.1-1.2 0-.4.1-.8.1-1.2 0-.4.1-.8.1-1.2.1-1.2.2-2.4.3-3.5.5-4.4.9-8.7 1.3-12.8 0-.2.1-.5.1-.8 0-.2 0-.5.1-.7.2-2 .4-3.9.6-5.7.2-2.1.5-4.2.7-6.2 0-.2.1-.3 0-.5.2-1.6.4-3.1.5-4.7.4-3.2.7-6.3 1.1-9.2l.3-2.7v-.3c0-.1 0-.3.1-.5v-.6c.1-.6.2-1.3.3-2.2 0-.4.1-.9.2-1.4 0-.2.1-.5.1-.8v-.4c0-.2 0-.5.1-.7 0-.1 0-.3.1-.4v-.2c0-.2 0-.4.1-.6 0-.1 0-.2.1-.4.2-1.3.4-2.7.6-4.3v-.2c0-.3.1-.6.1-.8 0-.3.1-.6.1-.9v-.6c.2-1.1.3-2.3.5-3.5.1-.4.1-.7.2-1.1v-.2c.3-1.9.6-3.9 1-6.1.1-.4.1-.7.2-1.1.1-.3.1-.7.2-1.1.1-.9.3-1.8.5-2.8v-.1c.1-.6.2-1.3.3-2 0-.3.1-.7.2-1 0-.4.1-.7.2-1.1.2-.8.3-1.6.4-2.5 0-.3.1-.6.2-.8.2-.9.3-1.9.5-2.8.4-2.5.9-5.1 1.4-7.8.2-1.1.4-2.3.6-3.5 0-.2.1-.4.1-.6.1-.8.3-1.6.5-2.4l.3-1.8c.5-2.4 1-4.9 1.5-7.4.2-1 .4-2.1.6-3.2.2-.9.4-1.8.5-2.7.5-2.6 1.1-5.2 1.6-7.9.2-.9.4-1.8.6-2.8.2-1.2.5-2.3.7-3.5.2-.8.3-1.6.5-2.4.3-1.5.6-2.9 1-4.4.2-1 .5-2.1.7-3.1l1.2-5.1 1.5-6.6c.8-3.3 1.6-6.5 2.3-9.7.5-2.1 1-4.1 1.5-6.1 0-.2.1-.3.1-.5s.1-.3.1-.5c.3-1.3.7-2.6 1-3.9.2-1 .5-1.9.7-2.8.8-3.1 1.6-6.1 2.4-9 .2-.7.4-1.5.6-2.3.3-1 .5-1.9.8-2.8 1.6-5.4 3.1-10.5 4.5-15.1.2-.7.5-1.4.7-2.1.1-.3.2-.5.2-.8 0 0 0-.1.1-.1v-.2c.1-.2.2-.5.2-.7l.3-.9v-.1c.2-.7.4-1.3.6-2 .1-.3.2-.6.3-1l.3-.9c.1-.3.2-.6.3-1 0-.1 0-.1.1-.2.1-.2.2-.5.3-.7 0-.1 0-.2.1-.2 0-.1.1-.2.1-.4.1-.4.2-.7.4-1.1 0-.1 0-.2.1-.2.1-.2.1-.4.2-.6l.3-.9c.2-.6.4-1.2.6-1.7.3-.7.5-1.5.8-2.3.1-.2.1-.4.2-.5s.1-.3.2-.4c.4-1 .7-2.1 1.1-3 .1-.3.2-.5.3-.8.1-.2.2-.4.2-.7.4-1 .7-1.9 1.1-2.8.2-.4.4-.9.5-1.3 0-.1.1-.2.1-.3.3-.7.5-1.3.8-1.9 0-.1.1-.2.1-.2.1-.2.1-.3.2-.4v-.2l.3-.6c.2-.4.3-.8.5-1.2.3-.7.6-1.5.9-2.2.1-.2.2-.4.2-.6.4-.8.7-1.7 1.1-2.4.3-.6.5-1.1.8-1.7 0-.1 0-.1.1-.2.2-.3.3-.5.4-.8.2-.3.3-.6.5-.9.4-.8.7-1.5 1.1-2.2l.2-.4c.2-.4.4-.7.5-1v-.1c.2-.4.4-.8.6-1.1l.3-.6c.1-.1.1-.2.1-.3 0-.1 0-.1.1-.1 0 0 0-.1.1-.1.1-.2.2-.4.3-.5v-.1l.1-.1c0-.1.1-.2.1-.2.4-.6.7-1.2 1-1.7s.5-.9.8-1.3c0 0 0-.1.1-.1 0-.1.1-.2.2-.3.2-.3.3-.5.5-.8.1-.2.2-.2.2-.4.2-.3.4-.6.5-.9.3-.5.7-1.1 1-1.6.5-.7.9-1.4 1.3-2.1l.6-.9c0-.1.1-.1.2-.2l.6-.9c.3-.5.7-1 1-1.5.2-.2.3-.5.5-.7.8-1.1 1.6-2.3 2.5-3.5 0-.1 0-.1.1-.2.2-.2.3-.5.5-.7.4-.5.7-1.1 1.2-1.6v-.1c.1-.2.2-.3.4-.5.1-.1.2-.2.2-.3 0-.1.1-.2.2-.3v-.1c0-.1.1-.1.2-.2.3-.5.7-1 1-1.5.2-.2.4-.5.6-.8s.3-.5.5-.8.4-.6.6-.8c.2-.3.4-.6.6-.8.1-.1.2-.3.3-.4v-.1c.1-.1.2-.2.2-.4.1-.2.3-.5.4-.7l.2-.2c.6-.9 1.3-1.9 2-2.9.2-.2.3-.5.5-.7.3-.5.6-.9.9-1.4l.1-.1c.3-.5.7-1 1.1-1.5.1-.2.3-.4.4-.6.2-.2.3-.5.5-.7.3-.5.6-.9.9-1.3.6-.9 1.3-1.8 2-2.8.2-.2.3-.4.5-.7.1-.2.3-.4.5-.7.1-.2.2-.3.4-.5.8-1.2 1.7-2.4 2.5-3.7.2-.2.3-.5.5-.7 0-.1.1-.2.1-.2l.9-1.3c.1-.1.2-.3.3-.4.1-.1.1-.2.2-.3.7-1 1.4-2.1 2.1-3.2l.1-.1c.1-.1.2-.3.3-.5 0-.1.1-.1.1-.2.2-.2.3-.5.5-.7.1-.1.2-.2.2-.3.9-1.3 1.8-2.7 2.7-4.1.1-.2.2-.4.3-.5.2-.2.4-.5.6-.8s.4-.6.6-.8c.2-.3.5-.7.7-1.1v-.2s.1-.1.1-.2l.1-.1c0-.1.1-.1.2-.2 0-.1.1-.1.1-.2.1-.2.2-.4.4-.6 0-.1.1-.2.2-.2.1-.2.2-.3.3-.5.1-.1.1-.2.2-.3.1-.1.1-.2.2-.3.2-.2.3-.5.5-.7 0-.1.1-.2.2-.3.1-.1.2-.2.2-.4l.1-.1s0-.1.1-.1c.1-.1.2-.3.3-.4.1-.1.2-.2.3-.4.4-.6.9-1.3 1.3-2 .1-.1.1-.2.2-.2l.1-.2c.2-.3.4-.6.7-1v-.1c0-.1.1-.1.1-.2.1-.1.2-.3.3-.5.1-.3.3-.5.5-.8.1-.2.2-.3.3-.5.1-.1.1-.2.2-.2.1-.2.2-.3.3-.5.2-.3.4-.6.5-.8.1-.1.1-.2.2-.3.2-.2.4-.5.5-.8v-.1c.2-.2.3-.5.5-.7l1.2-1.8c.6-1 1.2-1.9 1.9-2.9l.6-.9c.2-.2.3-.4.4-.7.7-1 1.4-2.1 2.1-3.2 0-.1.1-.1.2-.2l.9-1.5c.7-1.1 1.5-2.2 2.2-3.4.3-.5.6-.9.9-1.4.3-.4.5-.8.8-1.2.3-.4.5-.8.8-1.3 1-1.5 2-3 3-4.6.5-.7 1-1.5 1.5-2.3l1.5-2.4c.2-.4.5-.8.7-1.2.3-.4.5-.8.8-1.2.3-.4.6-.9.8-1.3.1-.2.2-.3.4-.5.1-.2.2-.4.3-.5.4-.5.7-1 1-1.5l2.1-3.3c.2-.4.5-.8.7-1.2 0-.1.1-.1.1-.2.2-.3.4-.6.6-1l.2-.3c.4-.6.8-1.3 1.2-1.9 0-.1.1-.1.1-.2.2-.3.4-.7.6-1 .5-.9 1.1-1.9 1.7-2.8.3-.4.5-.9.8-1.3.1-.3.3-.5.5-.8.2-.5.5-.9.8-1.4.1-.2.2-.3.3-.5.3-.5.6-1.1.9-1.6.3-.5.6-1.1.9-1.6l.3-.6c0-.1.1-.2.1-.2.4-.8.9-1.7 1.4-2.5.3-.6.6-1.2 1-1.8 0 0 0-.1.1-.1 1-2 2.1-4 3.2-6 .3-.6.6-1.2 1-1.9.7-1.4 1.5-2.8 2.2-4.3 0-.1.1-.2.2-.3.3-.6.6-1.2 1-1.9.1-.1.1-.3.2-.4.1-.1.1-.2.2-.2.3-.6.6-1.2.9-1.7.1-.2.2-.5.4-.7.7-1.5 1.4-2.9 2.1-4.4.1-.1.1-.2.1-.2l.6-1.2c.1-.2.2-.5.3-.7s.2-.5.3-.7l.3-.6c.3-.7.7-1.3 1-2 .2-.5.4-.9.6-1.3.2-.4.4-.9.7-1.4.2-.4.4-.9.6-1.3.2-.5.4-.9.6-1.4l.6-1.2c1.1-2.3 2.2-4.7 3.3-7.1.8-1.8 1.7-3.7 2.5-5.5.2-.4.4-.7.5-1.1.2-.4.4-.8.5-1.2.3-.7.6-1.4 1-2.2.1-.2.2-.4.3-.5.1-.3.2-.5.3-.8.1-.1.1-.2.2-.4.1-.1.1-.2.2-.3.7-1.7 1.5-3.4 2.2-5 .9-2 1.8-4 2.6-6l2.7-6c.4-1 .8-1.9 1.2-2.9 1.3-3.1 2.7-6.2 4-9.4.6-1.5 1.3-3.1 1.9-4.6l1.5-3.6c.5-1.3 1.1-2.7 1.7-4 .4-1 .8-2.1 1.3-3.1l1.2-3c.3-.7.6-1.4.8-2 .4-.9.7-1.8 1.1-2.7.1-.2.2-.5.3-.7 0-.1 0-.1.1-.2.1-.2.2-.4.2-.6 0-.1.1-.2.1-.3l1.2-3c2.2-5.5 4.5-11 6.6-16.4.5-1.3 1-2.7 1.6-4 .6-1.4 1.2-2.9 1.7-4.3l.6-1.5.6-1.5v-.1c.1-.2.2-.5.3-.8s.2-.5.3-.8c0-.1.1-.2.1-.3 0-.2.1-.3.2-.5l.6-1.5v-.2l2.7-6.9c.1-.2.2-.4.2-.6.1-.2.1-.4.2-.6.1-.2.2-.5.3-.8.1-.2.1-.3.2-.5.9-2.4 1.8-4.8 2.7-7.1.4-.9.7-1.7 1-2.6 0-.1.1-.2.1-.3.1-.3.3-.6.4-1 .5-1.3 1-2.6 1.5-3.8.3-.8.6-1.7 1-2.5.2-.6.5-1.2.7-1.8 0-.1.1-.2.1-.3 0-.1.1-.2.1-.3.6-1.6 1.2-3.2 1.9-4.8 1.2-3.2 2.4-6.4 3.5-9.3l.6-1.5c.2-.5.3-1 .5-1.5.1-.3.2-.7.4-1 .3-.7.5-1.4.7-2 .7-1.7 1.3-3.5 1.9-5.1.3-.9.6-1.7.9-2.5.1-.2.1-.4.2-.6.1-.2.1-.3.2-.5.1-.3.2-.7.4-1 .2-.5.3-1 .5-1.5.1-.2.1-.4.2-.6 0-.1.1-.1.1-.2 0-.2.1-.3.1-.4s.1-.2.2-.4c0 0 0-.1.1-.2.1-.2.2-.4.2-.6 0-.1 0-.2.1-.2.1-.2.1-.3.2-.5.1-.1.1-.2.1-.3.1-.3.2-.6.3-.8 0-.1.1-.2.1-.4.2-.5.3-1 .5-1.4.2-.5.3-1 .5-1.4.4-1.1.7-2.2 1.1-3.1.1-.2.1-.4.2-.5.1-.4.3-.7.4-1.1.1-.2.1-.4.2-.5.1-.2.1-.3.2-.5 1.9-1.9 3.7-3.8 5.7-5.7l5.7-5.7 88.8-90.3 5.7-5.7c4.7-4.7 9.4-9.5 14-14.3 4.7-4.8 9.4-9.5 14-14.3l3.3-3.4 5.8-5.9 1-1 13-13.2c2.1-2.1 4.2-4.3 6.3-6.4 1.4-1.5 2.9-2.9 4.3-4.4l1.3-.4c.5-.2 1-.3 1.4-.5.9-.3 1.7-.6 2.6-.9h.2c.8-.3 1.7-.6 2.5-.9h.2c.8-.3 1.6-.6 2.5-.9 1-.4 2.1-.7 3.2-1.1.2-.1.4-.1.6-.2.9-.3 1.8-.6 2.7-1l3.3-1.2.7-.2c.5-.2.9-.3 1.4-.5.1 0 .2-.1.4-.1.3-.1.5-.2.8-.3.1 0 .1 0 .1-.1.2-.1.5-.2.7-.3 1-.4 2.1-.7 3.2-1.2.2 0 .3-.1.4-.2.7-.2 1.4-.5 2-.7.3-.1.5-.2.8-.3 1.3-.5 2.6-1 4-1.5.2-.1.5-.2.7-.3l.4-.1c.6-.2 1.2-.4 1.7-.6.6-.2 1.2-.4 1.8-.7l1.5-.6c.8-.3 1.6-.6 2.5-.9.4-.1.8-.3 1.2-.4.2-.1.3-.1.5-.2.8-.3 1.5-.6 2.3-.9 1.6-.6 3.2-1.2 4.9-1.9.4-.1.7-.3 1.1-.4.8-.3 1.6-.6 2.5-1 2.2-.8 4.4-1.7 6.6-2.5.3-.2.7-.3 1.1-.5.5-.2 1.1-.4 1.6-.7.7-.3 1.4-.5 2.1-.8.7-.2 1.4-.5 2.1-.8.2-.1.4-.2.7-.2l.8-.3c1-.4 2.1-.8 3.2-1.2 5.9-2.4 11.9-4.8 18.1-7.4 4-1.7 7.8-3.3 11.4-4.9 7.9-3.4 15.1-6.5 21.7-9.4 3.1-1.4 6-2.7 8.9-3.9 1.7-.7 3.4-1.5 5-2.2 9.2-4 16.9-7.3 23.3-9.5l2.4-.9c11.6-3.9 18.8-4.2 24 .1.2.2.4.3.6.5.4.3.7.7 1 1 2.8 3.2 4.2 7.7 4.7 13.1 0 .5.1.9.1 1.4v3.4c0 .7-.1 1.4-.1 2.2v.1c0 .3 0 .6-.1.9v.2c0 .3 0 .7-.1 1v.6c0 .4-.1.9-.1 1.3 0 .2 0 .4-.1.6-.1.6-.1 1.2-.2 1.8l-.1.8c-.1.9-.3 1.8-.5 2.7 0 .2-.1.5-.1.7s-.1.5-.2.7c-.2 1.1-.4 2.2-.7 3.3-.5 2.2-1 4.5-1.7 6.7-.1.3-.2.6-.2.8-.1.3-.2.6-.2.9l-.3.9c-.2.7-.4 1.4-.6 2-.1.3-.2.7-.3 1 0 .1 0 .2-.1.2-.1.3-.2.6-.3.8-.1.3-.2.7-.3 1-1.3 4.1-2.8 8.2-4.3 12-.2.5-.4.9-.5 1.4-.2.6-.5 1.1-.7 1.7l-1.2 3c-.2.4-.3.7-.5 1.1v.2c0 .1-.1.1-.1.2l-.3.8c0 .1-.1.2-.1.3-.1.4-.3.7-.5 1-.1.1-.1.2-.2.3-1.4 3.3-2.9 6.2-4.1 8.8-.8 1.6-1.7 3.2-2.6 4.8-.5.9-1 1.7-1.5 2.5-.2.4-.4.7-.7 1.1-.2.4-.5.9-.8 1.3 0 .1-.1.1-.1.2-.1.1-.1.2-.2.3-.2.3-.3.5-.5.8-.1.1-.1.2-.2.3-.1.2-.2.3-.3.5s-.2.4-.4.6c-.1.1-.1.2-.2.3 0 .1-.1.1-.1.2-.1.2-.2.3-.3.4l-.1.1v.1c-.1.2-.3.4-.4.6-.1.1-.2.3-.3.4-.5.7-.9 1.3-1.3 1.9l-.1.1c-.1.2-.3.5-.5.7s-.3.5-.5.7c0 0-.1.1-.1.2-.1 0-.1.1-.2.2l-.2.3c-.4.5-.7 1-1.1 1.5-.4.5-.8 1-1.1 1.5-.5.7-1 1.3-1.4 1.9-.3.3-.5.7-.7 1-.1.1-.2.3-.4.4-1 1.2-2 2.5-3 3.6 0 0-.1.1-.1.2 0 0-.1.1-.1.2l-.1.1-.1.1-.3.3c-.2.3-.5.6-.7.8s-.4.5-.6.7c-.5.5-.9 1-1.3 1.4-.4.5-.9.9-1.3 1.4-.7.7-1.3 1.5-2 2.2l-.5.5c-.8.8-1.5 1.6-2.3 2.3-.1 0-.1.1-.2.2h-.1c-.1 0-.1.1-.2.2-.2.2-.3.3-.5.4-.2.2-.4.5-.7.6l-.1.1c-.1.2-.3.3-.4.4l-.6.6s-.1.1-.1.2c-.5.5-1 .9-1.4 1.3h-.1c-.1 0-.1.1-.2.2s-.2.1-.2.2l-.1.1v.1c-.3.3-.7.6-1 .9 0 .1-.1.1-.2.2h-.1l-2.7 2.4-.3.3c-.1.1-.2.2-.4.3-.3.2-.5.5-.8.7l-1.5 1.2c-.1.1-.2.1-.2.2-1.1.9-2.2 1.8-3.2 2.6-.4.3-.8.6-1.2 1l-1.2.9c-.1.1-.3.2-.4.4 0 0-.1 0-.2.1l-.2.2s-.1.1-.2.1-.1.1-.2.2-.3.2-.4.3c-.4.3-.7.5-1.1.8-.2.1-.4.3-.5.4 0 0-.1 0-.1.1-.1.1-.2.2-.3.2-.2.1-.3.3-.5.4-1.2.9-2.4 1.8-3.6 2.6l-3 2.1c-.1.1-.2.1-.3.2-.5.4-1.1.7-1.6 1.1-.2.2-.4.2-.5.4-.1 0-.1.1-.2.1-.2.1-.4.3-.6.4-.2.1-.4.2-.6.4-.9.5-1.7 1-2.5 1.5-.5.3-1.1.7-1.7 1-.4.3-.9.5-1.3.8-.4.2-.9.5-1.3.7-.1.1-.3.2-.5.3s-.4.2-.5.3c-.1 0-.1 0-.2.1-.2.1-.4.2-.6.4l-.6.3c-.4.2-.8.5-1.2.7-.2.1-.4.2-.7.4-.1 0-.1.1-.2.1-.2.1-.3.2-.5.3-.4.2-.7.4-1.1.6-1.2.7-2.4 1.3-3.6 1.9l-1.8.9c-1.5.8-3.1 1.5-4.5 2.2-.3.1-.5.2-.7.3-.3.2-.6.3-.9.4-.7.3-1.5.7-2.2 1-.6.3-1.1.5-1.7.7-.1 0-.3.1-.4.2-.2 0-.3.1-.4.2-.1.1-.2.1-.4.2-.1 0-.1 0-.2.1h-.1c-.8.3-1.5.6-2.2.9-.4.2-.7.3-1 .4l-.3.6c0 .1-.1.2-.2.3-.5 1-1 1.9-1.5 2.9-.1.2-.2.3-.2.4-.6 1.1-1.2 2.2-1.7 3.3-.5.8-.9 1.7-1.4 2.5-.5.9-.9 1.7-1.4 2.6-.5.9-1 1.7-1.4 2.6-.5.9-1 1.7-1.5 2.6-1 1.7-2 3.5-3 5.3l-2.1 3.6-2.1 3.6c-1.4 2.4-2.9 4.8-4.4 7.2-.6 1-1.2 2-1.8 2.9-.9 1.5-1.9 2.9-2.8 4.4l-2.7 4.2c-.9 1.4-1.9 2.9-2.8 4.3-.9 1.4-1.9 2.8-2.8 4.2-.7 1.1-1.5 2.1-2.2 3.2-4.2 6.1-8.6 12.2-13.3 18.4-1.3 1.7-2.7 3.5-4 5.3l-.1.1c-.2.3-.5.6-.7.9-.1.2-.3.4-.4.6-.5.6-1 1.2-1.5 1.9-.7.8-1.4 1.7-2 2.5-.7.9-1.5 1.8-2.2 2.7-.5.6-1 1.2-1.4 1.7 0 0-.1.1-.1.2-.2.2-.3.4-.5.6-.2.3-.5.6-.7.8-.1.1-.1.2-.2.2l-.2.2c-.1.1-.1.2-.2.2-.4.5-.9 1-1.3 1.5l-.7.9c-.5.6-.9 1.1-1.4 1.6-.2.3-.5.6-.7.8-.2.2-.3.4-.5.5-.6.8-1.2 1.5-1.9 2.3l-.3.3v.1h-.1v.1c-.1 0-.1.1-.1.2l-.1.1c-.1.2-.3.3-.4.5 0 .1-.1.1-.1.2-.1 0-.1.1-.2.2l-.1.1v.1l-.1.1s0 .1-.1.1l-.1.1c-.1.1-.2.2-.3.4 0 .1-.1.1-.1.2-.1.1-.2.2-.3.4-.1.1-.1.1-.1.2l-.4.4-.1.1c-.2.2-.5.5-.7.8 0 0-.1 0-.1.1l-.1.1-.1.1c-.1.1-.1.2-.2.2 0 .1-.1.2-.2.2l-.2.2-.5.5c-.2.2-.4.4-.5.6l-.2.2-.1.1c-.1.1-.3.3-.4.5-.2.3-.5.6-.7.9l-.3.3s-.1.1-.1.2c-.3.3-.6.7-.9 1l-.1.1-.1.1c-.1.2-.2.3-.4.5l-.1.1c-.1 0-.1.1-.2.2l-.2.2v.1c-.7.8-1.4 1.6-2.2 2.3-.4.4-.7.8-1.1 1.2-.6.6-1.2 1.3-1.8 2-.3.3-.6.7-.9 1-.3.3-.6.7-.9 1 0 .1-.1.1-.1.1-2.5 2.7-5 5.2-7.4 7.8 0 .1-.1.1-.2.2l-.1.1c-.1.1-.2.2-.2.3-.3.3-.5.6-.8.8l-1.2 1.2-.3.3-.3.3-.4.4-.4.4-.1.1-.2.2v.1h-.1l-1.5 1.5v1.1c0 .6-.1 1.2-.1 1.9v.2c-.3 5.1-.8 10.5-1.4 16.2v.1c-.1.9-.2 1.9-.3 2.8v.1c0 .2-.1.5-.1.7-.1.8-.2 1.7-.3 2.6 0 .1 0 .2-.1.2 0 .3-.1.7-.1 1v.3c-.1.5-.1 1-.2 1.5l-.3 2.4c-.1.5-.1 1-.2 1.5v.3c0 .2 0 .4-.1.6v.4c-.1.7-.2 1.5-.3 2.2-.2 1.4-.4 2.9-.7 4.3-.1.4-.1.8-.2 1.2-.1.7-.2 1.5-.4 2.3 0 .1 0 .3-.1.5-.2 1-.4 2.1-.6 3.1v.3c-.5 2.7-1 5.5-1.6 8.3 0 .1 0 .2-.1.3 0 .1 0 .3-.1.5-.1.6-.2 1.3-.4 1.9 0 .2-.1.4-.1.6s-.1.4-.1.6c0 .2-.1.5-.1.7-.3 1.3-.5 2.6-.8 3.9v.1c-.1.7-.3 1.5-.5 2.2-.1.5-.2.9-.3 1.4-.1.3-.1.6-.2.8l-.3 1.2v.1c-.3 1.3-.7 2.6-1 3.9-.2 1-.5 2-.7 3-.1.2-.1.4-.1.5-.3 1.3-.7 2.7-1 4-.2.9-.5 1.8-.8 2.7v.2c0 .1 0 .2-.1.2 0 .1 0 .2-.1.3-.1.3-.2.6-.2.9-.1.3-.2.6-.2.9h-.1l-.6 2.1c-.1.2-.1.4-.2.6v.1c-.4 1.4-.8 2.7-1.2 4.1-.1.5-.3 1-.5 1.5l-.3 1.1c-.3 1-.6 2-.9 2.9-.2.5-.3 1-.5 1.6 0 .1 0 .1-.1.2 0 .1-.1.2-.1.3 0 .1-.1.3-.1.4l-.9 2.7c-.3.9-.6 1.8-.9 2.6-.3.9-.6 1.8-.9 2.6-.1.4-.3.9-.5 1.3-.5 1.5-1.1 3-1.6 4.5-.3.8-.6 1.7-1 2.5-.7 2-1.5 4-2.2 6-.6 1.6-1.3 3.2-1.9 4.8-.1.3-.2.5-.3.8 0 .1-.1.2-.1.2-.6 1.5-1.2 3-1.9 4.5l-.9 2.1c-.1.2-.2.5-.3.7-.5 1.1-1 2.3-1.5 3.4-.2.3-.3.7-.5 1-.1.2-.2.5-.3.7-.1.3-.2.5-.4.8-.1.2-.1.3-.2.5-.7 1.5-1.3 2.9-2 4.3-.6 1.2-1.1 2.4-1.7 3.6-.1.3-.3.6-.4.9 0 .1-.1.3-.2.4-.1.1-.2.3-.2.5-.3.6-.6 1.1-.8 1.7v.2l-.1.1c-1.1 2.2-2.2 4.4-3.2 6.5 0 0 0 .1-.1.2l-.3.6c-.3.6-.6 1.2-.9 1.7-.4.7-.7 1.4-1.1 2.1 0 .1-.1.2-.2.3-.1.1-.2.3-.2.5-.1.1-.1.2-.2.3 0 .1 0 .2-.1.2v.1l-.1.1c0 .1 0 .1-.1.2.1.6.2 1.3.4 1.9v.1c0 .4.1.7.2.9 0 .2.1.3.1.5s.1.3.1.4v.2c0 .1.1.2 0 .3 0 .1 0 .2.1.3.3 1.4.5 2.7.7 4.1 0 .2.1.4.1.6v.1c.1.4.1.8.2 1.2.1.4.1.8.2 1.2v.1c0 .2.1.3.1.5v.6c.1 1 .3 2 .4 3l.3 2.4c0 .1 0 .2.1.3v.3c.2 1.2.3 2.5.4 3.7v.2c.1.8.2 1.7.3 2.5.1.9.2 1.8.2 2.7.1.7.1 1.5.2 2.3.1.7.1 1.5.2 2.3v.4c.1.4.1.8.1 1.2 0 .7.1 1.3.1 2 .3 5.2.4 10.1.4 14.8v2c0 1 0 2-.1 3v2.2c0 .4 0 .8-.1 1.3 0 .6 0 1.2-.1 1.8 0 .6 0 1.2-.1 1.8 0 1.2-.1 2.4-.2 3.5s-.2 2.1-.2 3.1v.5c0 .5-.1 1-.1 1.5v.2l-.3 3c-.1 1.3-.3 2.5-.5 3.7-1.7 13.3-4.8 27.5-4.1 42.8.1 2.6.3 5.2.7 7.7v.3c.1.4.1.7.1 1 .3 1.9.7 3.9 1.1 5.9.9 4 2.1 8 3.7 12.1.1.2.1.4.2.6.5 1.3 1 2.7 1.5 4.2.2.5.3 1 .6 1.5.2.5.4 1 .6 1.6v.1c.1.1.1.2.2.4.2.5.4.9.7 1.4.2.3.3.6.5.9.2.5.5.9.8 1.4s.5.9.9 1.3c.1.2.2.3.3.5.3.5.7 1 1.1 1.5.2.3.5.6.7.9 0 0 0 .1.1.1.1.1.1.2.2.3 0 0 0 .1.1.1l.6.6.3.3.3.3c.2.2.4.5.6.7.5.5 1 1 1.4 1.5.7.8 1.5 1.6 2.2 2.4 0 0 .1.1.1.2s.1.1.2.2l.7.7.7.7c.2.3.5.5.7.8.6.6 1.1 1.2 1.7 1.8.6.7 1.3 1.5 2 2.2.9 1 1.7 1.9 2.5 2.9l.4.4s0 .1.1.1c.6.6 1.2 1.3 1.8 2.1.4.5.9 1 1.2 1.5.6.6 1.1 1.3 1.7 2 1 1.2 1.9 2.3 2.9 3.5.6.7 1.1 1.4 1.7 2.1.2.2.4.5.6.7.4.5.7.9 1.1 1.3 1.9 2.2 3.7 4.5 5.5 6.8 2.2 2.7 4.4 5.5 6.5 8.2 1.6 2 3.1 4 4.7 6 .6.7 1.1 1.4 1.7 2.1l4.2 5.4c.4.5.7 1 1.2 1.5.1.2.2.3.4.5 2.2 2.8 4.4 5.5 6.6 8.3.2.2.3.4.5.7l3.9 4.8c.1.1.2.2.2.3l.1.1c.5.7 1.1 1.3 1.7 2 0 .1.1.1.2.2v.1c.3.4.6.7.9 1.1.3.4.6.7.9 1.1h.1s.1.1.1.2c.1.2.3.4.5.6.1.1.3.3.4.5.2.2.3.4.5.6.8 1 1.6 1.9 2.5 2.9.7.9 1.5 1.7 2.2 2.5.6.6 1.2 1.3 1.8 1.9l1.1 1.1c.4.3.7.7 1.1 1 .7.7 1.5 1.3 2.3 1.9v.1l1.2.9s.1 0 .1.1c.4.3.8.5 1.2.7.1 0 .2.1.2.1.1.1.2.2.4.2.3.2.6.3.9.5.1 0 .1.1.2.1.1.1.2.1.3.2.1 0 .1.1.2.1.3.2.7.3 1 .5.1 0 .1.1.2.1.3.1.7.3 1 .4.1 0 .2.1.4.1.5.1.9.2 1.3.3.2.1.4.1.6.1h.1c.1 0 .3.1.5.1.3 0 .5 0 .8.1.1 0 .3 0 .4.1h3.1c9.4-.6 16.7-7.8 19.8-10.7.5-.5 1-.9 1.4-1.3.2-.2.5-.4.7-.6l.3-.3.3-.3c.2-.2.4-.4.6-.5.2-.2.4-.3.6-.5.4-.3.8-.7 1.1-1 1-.8 2-1.6 2.9-2.4l.3-.2.8-.7.8-.7c.3-.2.5-.5.8-.7s.6-.4.9-.7c.8-.6 1.6-1.2 2.4-1.7l.3-.3c.1-.1.2-.2.3-.2.8-.5 1.6-1.1 2.3-1.7.1 0 .1 0 .1-.1h.1l.1-.1.3-.2c.2-.2.5-.4.8-.5.2-.2.5-.3.8-.5l.2-.2s.1 0 .1-.1h.1c.1 0 .2-.2.3-.2.2-.2.5-.3.7-.5.1-.1.2-.2.4-.2.1-.1.3-.2.4-.3l.2-.2c.1-.1.2-.1.2-.1h.1l.1-.1c.2-.1.4-.2.6-.4.2-.1.4-.2.6-.4.4-.2.8-.5 1.2-.8.1-.1.2-.2.4-.2 1.7-1.1 3.3-2.1 5-3.2l.9-.6c1.8-1.1 3.6-2.2 5.4-3.2 1-.6 2-1.2 3-1.7.7-.4 1.4-.8 2-1.2h.1c.3-.2.6-.3.8-.5.9-.5 1.8-1 2.8-1.5l.6-.3c.5-.2.9-.5 1.4-.7.4-.3.9-.5 1.4-.8s1.1-.6 1.6-.9c.3-.2.5-.3.8-.4 1.1-.6 2.3-1.2 3.4-1.9 1.2-.7 2.5-1.3 3.7-1.9.1 0 .1-.1.2-.1 0 0 .1-.1.2-.1.1-.1.2-.2.4-.2 0 0 .1 0 .1-.1l.2-.1c.1 0 .1-.1.1-.1 1-.5 1.9-1 2.9-1.5.2-.1.3-.2.5-.2l3.3-1.8c.3-.2.6-.3.9-.5.3-.2.5-.3.8-.5.5-.3 1.1-.6 1.7-.9l3.3-1.8c.6-.3 1.2-.7 1.7-1 .1 0 .2-.1.2-.1.8-.4 1.6-.9 2.4-1.3.7-.3 1.3-.7 1.9-1 1.1-.6 2.2-1.2 3.2-1.8 1.5-.9 3-1.7 4.5-2.6.7-.5 1.5-.9 2.2-1.3 1.5-.9 3-1.8 4.4-2.7.7-.4 1.3-.9 2-1.2.1-.1.2-.1.3-.2.6-.4 1.3-.9 2-1.3.7-.5 1.4-1 2.1-1.4.8-.6 1.6-1.1 2.5-1.6l.1-.1c.3-.2.6-.4 1-.6.2-.1.3-.2.5-.3 0 0 .1 0 .1-.1.1-.1.2-.2.3-.2.4-.3.8-.5 1.2-.8s.8-.5 1.2-.8c.8-.6 1.7-1.1 2.5-1.7.4-.2.8-.5 1.3-.8l.6-.3c.2-.1.4-.3.6-.4.4-.2.8-.5 1.2-.8.4-.3.9-.6 1.3-.9.2-.1.4-.3.7-.4.2-.1.5-.3.7-.4s.3-.2.5-.3c.2-.1.3-.2.5-.3.2-.1.3-.2.5-.3.6-.3 1.2-.7 1.8-1.1.1-.1.2-.2.4-.2l.2-.1s.1 0 .1-.1c0 0 .1 0 .1-.1.6-.4 1.1-.7 1.7-1.1.2-.2.5-.3.7-.5.8-.5 1.6-1 2.5-1.6.1-.1.2-.1.3-.2.2-.1.3-.2.4-.3.2-.1.4-.2.5-.3.6-.4 1.2-.7 1.7-1.1 1.7-1.1 3.5-2.2 5.3-3.4.2-.1.5-.2.7-.4.2-.2.4-.3.6-.4.4-.2.8-.5 1.2-.7l2.4-1.5c1.2-.7 2.5-1.5 3.8-2.3 0 0 .1-.1.2-.1 1.2-.8 2.5-1.5 3.7-2.3.3-.2.6-.3.9-.5.3-.2.6-.4.9-.5.3-.2.6-.4.9-.5l.9-.6c.3-.2.6-.3.9-.5.3-.2.6-.3.8-.5.5-.3 1-.6 1.4-.9.6-.3 1.2-.7 1.8-1 .2-.1.4-.3.7-.4.8-.5 1.7-1 2.5-1.5.9-.5 1.7-1 2.5-1.5l1.1-.6c.4-.2.7-.5 1.1-.7.8-.4 1.5-.9 2.3-1.3.7-.5 1.5-.9 2.3-1.3.8-.5 1.5-.9 2.3-1.3.1-.1.1-.1.3-.2.4-.3.9-.5 1.5-.8.5-.3 1-.6 1.6-.9 1.5-.7 3-1.5 4.6-2.3 2-1 4.1-1.9 6.3-2.9 2.9-1.3 6-2.6 9.4-3.8 1.9-.7 3.8-1.4 5.8-2.1 1.3-.5 2.7-.9 4.1-1.3h.1c3.7-1.1 7.5-2.2 11.6-3.2h.1c.1 0 .2 0 .3-.1 8.6-2 18-3.6 28.1-4.2 3.9-.3 7.9-.4 11.9-.4h3.3c21.5.2 47.1 1.2 58.2 17.9 1.3 2 2.4 4.2 3.2 6.4v.1c3 8.1 3.4 14.1 2.8 20.3z" class="st6"/><path d="m617 1061-1.3-.5 1.3.5zm430.4 408.2c0-16.2 17-29.1 35.7-38.6 2-1.1 4.1-2.1 6.2-3 .6-.3 1.2-.5 1.8-.8 10.2-4.7 20.3-8.4 27.7-11.1 2.3-.8 4.5-1.6 6.6-2.3 2-.6 3.8-1.2 5.6-1.7 5.4-1.5 10-2.5 13.9-3 7.6-1 12.8-.3 17 .6 5.5 1.2 13.5 3.7 20.6 8.6 5.5 3.8 10.6 9 13.6 16.2 4.3 10.3 2.5 20.4-.5 28.9-.2.5-.3.9-.5 1.3-1.3 3.5-2.8 6.6-4.1 9.4 0 .1-.1.2-.1.2-9.8 21-25.7 31.9-39.8 41.5-1.2.8-2.5 1.7-3.7 2.5-9 6.2-17.7 11.9-26.1 16.3-4.2 2.2-8.3 4-12.3 5.3-2.3.7-4.5 1.3-6.6 1.7-6.4 1.1-12 .4-16.8-2-5.3-2.7-6.9-6.2-11.3-15.4-3-6.4-7.6-16.1-15.9-31.1-2.7-5-4.8-8.6-6.4-11.3-3.7-6.9-4.6-8.5-4.6-12.2zm10.1 9c1.5 2.7 3.6 6.3 6.4 11.4 8.4 15.2 13 25 16 31.5 4.3 9.1 5.2 10.9 8.6 12.6 4.9 2.5 11.1 2.5 18.7 0 3.5-1.1 7-2.7 10.7-4.6 6.5-3.3 13.3-7.7 20.4-12.4 3.1-2 6.2-4.2 9.3-6.3 5-3.4 10.2-7 15.3-11.1 7.4-6 14.4-13.2 19.9-22.9.9-1.6 1.8-3.3 2.6-5 .7-1.4 1.4-2.9 2.1-4.6.2-.4.4-.9.6-1.4 3.5-8.3 6.6-18.8 2.3-29.1-.8-1.9-1.8-3.7-2.9-5.3-7-10-19.5-14.2-27-15.9-1.2-.3-2.5-.5-4-.7-3.2-.4-7.1-.4-12.4.4-4.5.7-10.1 2-16.9 4.3-2 .7-4.2 1.4-6.4 2.2-7.1 2.6-17.4 6.4-27.9 11.2-.6.3-1.2.6-1.8.8-2.1 1-4.1 2-6.2 3.1-16.7 8.6-31.6 19.8-31.6 32.7.2 2.1.4 2.6 4.2 9.1zm-208.8-619v-.2c.1-.8.2-1.6.5-2.4.6-2.1 1.6-3.9 3.1-5.6 5.1-6 15.2-10.6 29.4-17.1l5.1-2.3 2.3-1 3.9-1.8c.6-.3 1.2-.6 1.8-.8 15.7-7.1 28.5-12.8 43.3-18.1 2.2-.8 4.4-1.6 6.7-2.3l1.1-.4c.4-.1.7-.3 1.1-.4l.9-.3c5.4-1.8 10.8-3.4 16.8-5.1.1 0 .2-.1.3-.1 7.2-2 13.4-3.6 18.8-4 1.9-.1 3.6-.1 5.3.1 1.4.2 2.8.5 4 1 1.8.7 3.4 1.6 4.9 3 2.8 2.5 4.7 6 5.6 9.8.7 3 .8 6.1.1 9-.2.9-.5 1.7-.8 2.5-1.2 2.9-2.9 5.4-4.6 7.6-3.9 4.7-8.3 7.5-10 8.4-.8.4-1.5.9-2.3 1.3-.9.5-1.8 1.1-2.8 1.7-1.3.8-2.6 1.6-4 2.4-.4.3-.9.5-1.3.8-4.6 2.8-9.5 5.9-14.6 9.1-4 2.5-8.2 5.2-12.6 7.9-.3.2-.6.3-.9.5-.3.2-.5.4-.8.5-11.8 7.3-24.3 14.8-36 20.7l-1.8.9c-2.1 1-4.2 2-6.2 3-4.5 2.1-8.9 3.8-13 5.2-4.2 1.4-8 2.3-11.4 2.7-6.3.8-11.4-.1-15.5-2.6-2.3-1.4-5.2-4-9.2-11.9-4.4-8.7-7.9-15.5-7.2-21.7zm12.6 18.8c3.8 7.5 6 8.9 7 9.4 3 1.8 6.6 2.4 11.5 1.7 3-.4 6.5-1.2 10.3-2.5 4.1-1.3 8.4-3.1 13-5.2 2-.9 4.1-1.9 6.2-3l1.8-.9c11.6-5.9 23.9-13.3 35.6-20.6.3-.2.6-.4.8-.5.3-.2.6-.3.9-.5 4-2.5 7.9-4.9 11.6-7.3 4.6-2.9 9.2-5.8 13.4-8.4 1.8-1.1 3.6-2.2 5.3-3.3l1.5-.9c1.7-1.1 3.4-2 5-2.9.3-.2.8-.4 1.3-.8 1.8-1.2 4.8-3.4 7.3-6.6 1.3-1.6 2.5-3.5 3.4-5.6 1.9-4.4.3-11-3.4-14.4-3.9-3.6-10.7-3-19.7-.8-1 .3-2.1.5-3.1.8-.3.1-.5.1-.8.2-1.3.3-2.5.7-3.9 1.1-5.5 1.6-10.7 3.1-15.6 4.7l-.9.3c-1.5.5-3.1 1-4.5 1.5-.4.1-.7.3-1.1.4-.1 0-.2.1-.4.1-.2.1-.5.2-.7.2-16 5.6-29.5 11.6-46.5 19.3-.6.3-1.2.5-1.8.8l-3.3 1.5-2.9 1.3-4.5 2.1c-11.4 5.2-20.2 9.2-25.1 13.4-1.2 1-2.1 2-2.8 3.1-.8 1.2-1.3 2.5-1.4 3.8-.5 4.7 2.6 10.8 6.5 18.5zm-134.927 202.8 2.082-5.733 67.015 24.342-2.082 5.733zm-21.768 188.839 1.465-5.922 33.877 8.383-1.465 5.922zm46.725-328.512 4.942-3.576 17.938 24.792-4.942 3.576zM735.165 951.8l5.797-1.9 8.69 26.51-5.796 1.901zm-143.7 213.28 3.94-4.656 34.12 28.876-3.94 4.656zm-8.97 21.593 4.195-4.428 23.52 22.285-4.196 4.428z" class="st4"/><path d="M1527.3 332.7v1467.8c0 34.3-27.8 62-62 62h-618c-34.3 0-62-27.8-62-62V332.7c0-34.3 27.8-62 62-62h618c34.2-.1 62 27.7 62 62z" style="fill:#313c4c"/><path d="M1527.3 1393.1c1.5-.8 3-1.7 4.5-2.5v-7.1h-.4c-.4.1-.7.1-1 .2-1.1.2-2.1.3-3.1.5V1203c-1.3-1-2.7-2-4-3-.2-.1-.4-.3-.5-.4v447.8c.4.1.8.2 1.1.2 1.2.2 2.3.5 3.4.7v-1.6h.2l.1.1.3.1 1.2.3c.9.3 1.9.6 2.8.9v-2.5c-1.6-.9-3-1.9-4.2-3l-.1-.1 4.2 1.2v-169.1l-4.5-3.3v-78.2zm-742.1-183.6v22.2c-1.5 1.6-3 3.3-4.5 4.9v125.2c1.5-1 3.1-2 4.5-3v23c1.6-.5 3.1-1 4.5-1.5v-171.8c-.1 0-.2.1-.3.1-1.3.2-2.7.5-4.2.9zm680.1-943.4h-618c-36.7 0-66.6 29.9-66.6 66.6v1467.8c0 20.3 9.1 38.5 23.5 50.7 2.2 1.9 4.6 3.7 7.1 5.3 5.5 3.5 11.5 6.3 17.9 8.1 1.2.3 2.5.7 3.8.9 4.6 1 9.4 1.5 14.3 1.5h618c31 0 57.1-21.2 64.5-49.9.2-1 .5-2 .7-2.9.4-2.1.8-4.3 1-6.4.1-.9.2-1.9.2-2.8.1-1.5.2-2.9.2-4.4V332.7c0-36.8-29.9-66.6-66.6-66.6zm57.5 1534.4v.4c0 2.6-.2 5.2-.6 7.7-.1.7-.2 1.5-.4 2.2-4.9 26.8-28.4 47.1-56.6 47.1h-618c-1.9 0-3.7-.1-5.6-.3-2.5-.2-5-.6-7.4-1.2-6.3-1.5-12.2-4-17.5-7.3-2.5-1.6-5-3.4-7.2-5.4-12.1-10.5-19.8-26.1-19.8-43.3V332.7c0-31.7 25.8-57.5 57.5-57.5h618c13.8 0 26.5 4.9 36.4 13 .1 0 .1.1.2.1.5.4.9.8 1.4 1.2.8.7 1.7 1.5 2.5 2.3 3.9 3.9 7.3 8.3 10 13.2 0 .1.1.1.1.2.5 1 1 1.9 1.5 2.9.3.5.5 1.1.7 1.6s.5 1.1.7 1.6c0 .1 0 .1.1.1.4 1 .8 2.1 1.1 3.2.2.6.4 1.1.5 1.7.3 1.1.6 2.3.9 3.5s.5 2.3.7 3.5.3 2.4.5 3.6c.1.6.1 1.2.1 1.8.1.6.1 1.2.1 1.8v1470h.1z" class="st8"/><path d="M785.6 417.7h420.7c1.5 0 1.5-2.3 0-2.3H785.6c-1.5 0-1.5 2.3 0 2.3z" class="st8"/><path d="M1321.6 417.7h205.3c1.5 0 1.5-2.3 0-2.3h-205.3c-1.5 0-1.5 2.3 0 2.3z" class="st4"/><path d="m893 322.4-19.3 16.7h-7.5l23.2-20.1z" class="st8"/><path d="m893 355.7-19.3-16.6h-7.5l23.2 20z" style="opacity:.6;fill:#5e6d7f;enable-background:new"/><path d="M1394 325.8h49.4c3.9 0 3.9-6.1 0-6.1H1394c-3.9 0-3.9 6.1 0 6.1zm0 16.3h49.4c3.9 0 3.9-6.1 0-6.1H1394c-3.9 0-3.9 6.1 0 6.1zm0 16.3h49.4c3.9 0 3.9-6.1 0-6.1H1394c-3.9 0-3.9 6.1 0 6.1z" class="st8"/><path d="M1061.1 1812.1h190.4c6 0 6-8.4 0-8.4h-190.4c-6-.1-6.1 8.4 0 8.4z" class="st8" style="opacity:.41"/><path d="M909.7 490.5h-14.8v40.1H883v-40.1h-14.5v-9.2h41.2v9.2zm24.4 13.8c-.2 0-.5-.1-.8-.1s-.7-.1-1-.1c-.4 0-.7 0-1-.1h-.9c-1.8 0-3.3.3-4.4.8-1.1.6-1.9 1.4-2.5 2.6v23.2h-11.4V494h10.7l.4 4.7c.9-1.7 2-3 3.4-4 1.3-.9 2.9-1.4 4.6-1.4.6 0 1.1 0 1.7.1.6.1 1.1.2 1.5.3l-.3 10.6zm23.7 26.3c-.2-.5-.5-1-.6-1.5-.2-.6-.3-1.1-.5-1.8-.9 1.1-2 2-3.4 2.8s-3.2 1.2-5.4 1.2c-1.7 0-3.3-.3-4.8-.8s-2.8-1.3-3.9-2.2c-1.1-1-2-2.1-2.7-3.5s-1-2.8-1-4.5c0-1.9.3-3.6 1-5.1s1.7-2.7 3.1-3.8c1.4-1 3.2-1.8 5.3-2.4 2.2-.6 4.7-.8 7.7-.8h3.5v-1.9c0-1.6-.3-2.8-1-3.7-.7-.9-1.8-1.4-3.3-1.4-1.3 0-2.3.3-3 1s-1 1.7-1 3h-11.4c0-1.7.4-3.3 1.1-4.7.8-1.5 1.8-2.7 3.2-3.8 1.4-1.1 3.1-1.9 5.1-2.5s4.2-.9 6.6-.9c2.2 0 4.2.3 6.1.8 1.9.5 3.5 1.4 4.8 2.5 1.4 1.1 2.4 2.5 3.2 4.1s1.2 3.5 1.2 5.7v15c0 1.2 0 2.2.1 3.1.1.9.2 1.7.3 2.3.1.7.3 1.3.5 1.8s.4 1 .7 1.5v.6l-11.5-.1zm-7.1-7.4c1.4 0 2.6-.3 3.5-.9.9-.6 1.6-1.3 2-2.1v-5.9h-3.6c-1.1 0-2 .1-2.7.4-.7.3-1.3.7-1.8 1.2-.4.5-.8 1.1-.9 1.7-.2.6-.3 1.3-.3 2 0 1 .4 1.9 1 2.5.8.7 1.7 1.1 2.8 1.1zm33.7-29.2.4 4.3c1.2-1.6 2.7-2.9 4.5-3.7 1.8-.8 3.7-1.3 5.9-1.3 1.7 0 3.2.2 4.6.7 1.4.5 2.6 1.3 3.6 2.4s1.8 2.6 2.4 4.4c.6 1.8.8 4.1.8 6.7v23h-11.4v-23.1c0-1.1-.1-2-.4-2.7-.2-.7-.6-1.3-1-1.7-.4-.4-1-.7-1.6-.8-.6-.1-1.4-.2-2.2-.2-1.2 0-2.2.2-3 .7s-1.4 1.1-1.9 1.9v25.8h-11.4V494h10.7zm47.8 26.3c0-.5-.1-.9-.3-1.3-.2-.4-.6-.7-1.1-1s-1.3-.6-2.2-.9c-.9-.3-2.1-.6-3.5-.9-1.8-.4-3.5-.9-5-1.5-1.6-.6-2.9-1.4-4.1-2.3-1.2-.9-2.1-2-2.7-3.2-.7-1.2-1-2.7-1-4.3 0-1.6.3-3 1-4.4s1.6-2.6 2.9-3.7c1.3-1.1 2.9-1.9 4.7-2.5 1.9-.6 4-.9 6.4-.9 2.5 0 4.7.3 6.7.9s3.7 1.4 5.1 2.5c1.4 1 2.5 2.3 3.2 3.8s1.1 3.1 1.1 4.8H1032c0-1.4-.3-2.5-1-3.2-.7-.8-1.9-1.1-3.6-1.1-.6 0-1.1.1-1.6.3-.5.2-1 .4-1.3.7-.4.3-.7.7-.9 1.1s-.3.9-.3 1.4c0 1 .5 1.8 1.4 2.4 1 .6 2.5 1.1 4.6 1.6 1.8.3 3.6.8 5.3 1.3 1.7.5 3.2 1.2 4.5 2.1s2.3 2 3.1 3.3c.8 1.3 1.2 3 1.2 4.9 0 1.6-.4 3.1-1.1 4.5s-1.8 2.6-3.2 3.6c-1.4 1-3.1 1.8-5 2.4-2 .6-4.2.9-6.6.9-2.6 0-5-.4-7-1.1-2-.7-3.7-1.7-5.1-2.9-1.4-1.2-2.4-2.5-3.1-4-.7-1.5-1-2.9-1-4.4h10.7c0 1.7.6 2.9 1.7 3.7 1.1.8 2.5 1.2 4.2 1.2 1.6 0 2.7-.3 3.5-.9.4-1 .8-1.9.8-2.9zm28.3 10.3h-11.4v-51.9h11.4v51.9zm27.6 0c-.2-.5-.5-1-.6-1.5-.2-.6-.3-1.1-.5-1.8-.9 1.1-2 2-3.4 2.8s-3.2 1.2-5.4 1.2c-1.7 0-3.3-.3-4.8-.8s-2.8-1.3-3.9-2.2c-1.1-1-2-2.1-2.7-3.5s-1-2.8-1-4.5c0-1.9.3-3.6 1-5.1s1.7-2.7 3.1-3.8c1.4-1 3.2-1.8 5.3-2.4 2.2-.6 4.7-.8 7.7-.8h3.5v-1.9c0-1.6-.3-2.8-1-3.7-.7-.9-1.8-1.4-3.3-1.4-1.3 0-2.3.3-3 1s-1 1.7-1 3h-11.4c0-1.7.4-3.3 1.1-4.7.8-1.5 1.8-2.7 3.2-3.8 1.4-1.1 3.1-1.9 5.1-2.5s4.2-.9 6.6-.9c2.2 0 4.2.3 6.1.8s3.5 1.4 4.8 2.5c1.4 1.1 2.4 2.5 3.2 4.1.8 1.6 1.2 3.5 1.2 5.7v15c0 1.2 0 2.2.1 3.1.1.9.2 1.7.3 2.3.1.7.3 1.3.5 1.8s.4 1 .7 1.5v.6l-11.5-.1zm-7.1-7.4c1.4 0 2.6-.3 3.5-.9.9-.6 1.6-1.3 2-2.1v-5.9h-3.6c-1.1 0-2 .1-2.7.4-.7.3-1.3.7-1.8 1.2-.4.5-.8 1.1-.9 1.7-.2.6-.3 1.3-.3 2 0 1 .4 1.9 1 2.5.8.7 1.7 1.1 2.8 1.1zm36.6-38.3v9.1h6v7.9h-6v16.7c0 .7.1 1.3.2 1.8s.3.9.6 1.1c.3.3.7.5 1.1.6.5.1 1.1.2 1.8.2s1.2 0 1.6-.1c.4 0 .8-.1 1.2-.2v8.1c-1 .3-2 .6-3 .7-1 .2-2.2.3-3.4.3-1.8 0-3.5-.2-4.9-.6-1.4-.4-2.6-1.1-3.6-2s-1.7-2.1-2.2-3.5-.8-3.1-.8-5.1v-18.2h-4.7V494h4.7v-9.1h11.4zm28.2 46.4c-3 0-5.6-.5-8-1.4s-4.3-2.2-5.9-3.9c-1.6-1.6-2.8-3.5-3.7-5.6-.8-2.1-1.3-4.4-1.3-6.8v-1.3c0-2.7.4-5.1 1.1-7.5.7-2.3 1.8-4.3 3.3-6s3.3-3 5.5-4 4.8-1.5 7.7-1.5c2.6 0 4.9.4 7 1.3 2.1.8 3.8 2 5.2 3.6 1.4 1.6 2.5 3.4 3.3 5.6s1.1 4.7 1.1 7.4v4.6h-22.7c.4 2.1 1.3 3.7 2.7 4.8 1.4 1.2 3.2 1.8 5.3 1.8 1.6 0 3.1-.3 4.6-.9 1.5-.6 2.8-1.6 3.9-2.9l5.2 6.2c-.6.8-1.3 1.6-2.2 2.4-.9.8-2 1.4-3.2 2s-2.6 1.1-4.1 1.5c-1.4.4-3.1.6-4.8.6zm-1.3-29.2c-1 0-1.8.2-2.5.5s-1.3.8-1.7 1.4c-.5.6-.8 1.3-1.1 2.1-.3.8-.5 1.7-.6 2.6h11.5v-.9c0-1.8-.4-3.2-1.4-4.2-1-1-2.4-1.5-4.2-1.5z" class="st11"/><path d="M1456.9 679H855.7c-20.3 0-36.8-16.5-36.8-36.8v-16.8c0-20.3 16.5-36.8 36.8-36.8h601.2c20.3 0 36.8 16.5 36.8 36.8v16.8c0 20.3-16.5 36.8-36.8 36.8zm-601.2-83.8c-16.6 0-30.2 13.5-30.2 30.2v16.8c0 16.6 13.5 30.2 30.2 30.2h601.2c16.6 0 30.2-13.5 30.2-30.2v-16.8c0-16.6-13.5-30.2-30.2-30.2H855.7z" class="st8"/><path d="M1430.5 651.7c-6.1 0-11.9-2.7-16-7.3-3.7-4.3-5.5-9.7-5.1-15.3s3-10.8 7.2-14.5c3.8-3.3 8.8-5.2 13.8-5.2 6.1 0 11.9 2.7 16 7.3 3.7 4.3 5.5 9.7 5.1 15.3s-3 10.8-7.2 14.5c-3.8 3.3-8.7 5.2-13.8 5.2zm0-33.3c-2.9 0-5.7 1.1-7.9 3-2.4 2.1-3.9 5.1-4.2 8.3-.2 3.2.8 6.4 2.9 8.8 2.3 2.7 5.7 4.2 9.2 4.2 2.9 0 5.7-1.1 7.9-3 2.5-2.1 3.9-5.1 4.2-8.3.2-3.2-.8-6.4-2.9-8.8-2.3-2.7-5.7-4.2-9.2-4.2z" class="st12"/><path d="m1413.7 642.5-14.1 12.3c-3.6 3.2 1.7 8.4 5.3 5.3l14.1-12.3c3.7-3.2-1.6-8.5-5.3-5.3z" class="st12"/><path d="M891.6 643.4c0-.6-.1-1.2-.3-1.6-.2-.5-.5-.9-1-1.3s-1.1-.8-2-1.2c-.8-.4-1.9-.8-3.3-1.2-1.5-.4-2.8-.9-4-1.5s-2.3-1.2-3.2-1.9-1.6-1.6-2.1-2.6-.8-2.1-.8-3.3.3-2.4.8-3.4 1.3-1.9 2.2-2.7 2.1-1.3 3.4-1.8c1.3-.4 2.8-.6 4.4-.6 1.7 0 3.3.2 4.6.7 1.4.5 2.5 1.2 3.5 2 .9.9 1.7 1.8 2.2 3 .5 1.1.8 2.3.8 3.6h-5.3c0-.7-.1-1.4-.3-2s-.6-1.2-1.1-1.6-1.1-.8-1.8-1.1-1.6-.4-2.6-.4c-.9 0-1.7.1-2.4.3s-1.3.5-1.7.9c-.5.4-.8.8-1 1.3s-.3 1.1-.3 1.7c0 1.1.5 2.1 1.6 2.8 1.1.8 2.7 1.4 4.9 2.1 1.7.5 3.2 1.1 4.5 1.7 1.3.6 2.3 1.3 3.1 2.1s1.4 1.6 1.9 2.6c.4 1 .6 2.1.6 3.3 0 1.3-.3 2.4-.8 3.5-.5 1-1.2 1.9-2.2 2.6-.9.7-2.1 1.3-3.4 1.7-1.3.4-2.8.6-4.5.6-1.5 0-2.9-.2-4.3-.6-1.4-.4-2.7-1-3.8-1.8s-2-1.8-2.7-3-1-2.6-1-4.2h5.3c0 1 .2 1.8.5 2.5s.8 1.3 1.4 1.7c.6.4 1.3.8 2.1 1s1.7.3 2.6.3c1.8 0 3.2-.4 4.2-1.1.8-.9 1.3-1.9 1.3-3.1zm19.4 8.3c-1.7 0-3.2-.3-4.5-.8-1.3-.6-2.5-1.3-3.4-2.3s-1.7-2.1-2.2-3.5c-.5-1.3-.8-2.8-.8-4.3v-.8c0-1.8.3-3.4.8-4.8s1.3-2.7 2.2-3.7 2-1.8 3.3-2.3c1.2-.5 2.6-.8 4-.8 1.6 0 3.1.3 4.3.8s2.2 1.3 3 2.3 1.4 2.2 1.8 3.5c.4 1.4.6 2.9.6 4.5v2.2h-14.8c.1.9.3 1.7.6 2.4s.7 1.4 1.2 1.9 1.1 1 1.8 1.3 1.5.5 2.4.5c1.3 0 2.3-.3 3.3-.8.9-.5 1.7-1.2 2.4-2.1l2.7 2.6c-.4.5-.8 1.1-1.4 1.6-.5.5-1.2 1-1.9 1.4s-1.5.7-2.4 1c-.9 0-1.9.2-3 .2zm-.6-19.4c-1.4 0-2.5.5-3.4 1.5s-1.4 2.3-1.6 4.1h9.7v-.4c0-.7-.2-1.3-.3-1.9-.2-.6-.4-1.2-.8-1.7s-.8-.9-1.4-1.1c-.7-.4-1.4-.5-2.2-.5zm27.1 18.9c-.1-.3-.3-.6-.3-.9-.1-.4-.2-.8-.2-1.2-.3.3-.7.7-1.1 1-.4.3-.9.6-1.4.8s-1 .4-1.6.5-1.2.2-1.9.2c-1.1 0-2.2-.2-3.1-.5-.9-.3-1.8-.8-2.4-1.4-.7-.6-1.2-1.3-1.6-2.1-.4-.8-.6-1.7-.6-2.7 0-1.2.2-2.3.7-3.2s1.1-1.7 2-2.3 2-1.1 3.2-1.4c1.3-.3 2.7-.5 4.4-.5h3.2V636c0-1.2-.3-2.1-1-2.8s-1.7-1.1-3-1.1c-.6 0-1.1.1-1.6.2-.5.2-.9.4-1.2.6-.3.3-.6.6-.8 1s-.3.8-.3 1.2h-5.1c0-.9.2-1.8.7-2.6.4-.8 1.1-1.6 1.9-2.2.8-.6 1.8-1.2 2.9-1.6 1.2-.4 2.4-.6 3.9-.6 1.3 0 2.4.2 3.5.5s2 .8 2.8 1.5c.8.6 1.4 1.5 1.8 2.4.4 1 .6 2.1.6 3.4v10c0 2 .3 3.7.9 4.9v.4h-5.3zm-5.6-3.6c.6 0 1.1-.1 1.6-.2.5-.2 1-.4 1.4-.6.4-.3.8-.5 1.1-.9.3-.3.5-.7.7-1v-4.3H934c-1.9 0-3.3.3-4.2 1s-1.4 1.6-1.4 2.8c0 .5.1.9.2 1.3.2.4.4.7.7 1s.7.5 1.1.7c.4.1.9.2 1.5.2zm27.1-14.3c-.3-.1-.7-.1-1-.1h-1.1c-1.2 0-2.2.2-3 .7s-1.3 1.1-1.7 2v15.5h-5.1v-22.6h4.9l.1 2.5c.6-.9 1.3-1.6 2.1-2.2.8-.5 1.8-.8 3-.8.3 0 .6 0 1 .1s.6.1.8.2v4.7zm12.1 14.3c.6 0 1.2-.1 1.7-.3s1-.5 1.4-.8.7-.7 1-1.2c.2-.5.4-1 .4-1.5h4.8c0 1.1-.3 2.1-.8 3.1s-1.2 1.8-2 2.5-1.8 1.3-2.9 1.7c-1.1.4-2.3.6-3.5.6-1.7 0-3.3-.3-4.6-.9-1.3-.6-2.4-1.4-3.2-2.4-.9-1-1.5-2.2-1.9-3.6-.4-1.4-.6-2.8-.6-4.4v-.7c0-1.5.2-3 .6-4.4.4-1.4 1.1-2.6 1.9-3.6.9-1 1.9-1.9 3.2-2.5s2.8-.9 4.5-.9c1.4 0 2.6.2 3.7.6 1.1.4 2.1 1 2.9 1.8.8.8 1.4 1.7 1.9 2.7s.7 2.2.7 3.5h-4.8c0-.6-.1-1.2-.4-1.7-.2-.5-.5-1-.9-1.4s-.8-.7-1.4-1c-.5-.2-1.2-.4-1.8-.4-1 0-1.9.2-2.6.6-.7.4-1.2 1-1.6 1.7-.4.7-.7 1.5-.8 2.3-.1.9-.2 1.8-.2 2.7v.7c0 .9.1 1.8.2 2.7.1.9.4 1.6.8 2.3.4.7.9 1.2 1.6 1.7.8.3 1.7.5 2.7.5zm18.2-16.5c.8-.9 1.7-1.6 2.8-2.1s2.2-.8 3.5-.8c1.1 0 2.1.2 3 .5s1.7.8 2.3 1.5 1.1 1.6 1.5 2.6c.4 1.1.5 2.4.5 3.9v14.6h-5.1v-14.6c0-1.6-.3-2.7-1-3.3s-1.7-1-3-1c-1.1 0-2 .2-2.7.7s-1.4 1.2-1.8 2v16.2h-5.1v-32.1h5.1v11.9z" class="st8"/><path d="M966.1 805.8c-.5 2.2-1.1 4.3-1.8 6.3l.2.1h-.2c-2.3 6.4-5.9 12.2-10.4 17-5.3 5.7-12 10.1-19.5 12.8-2.1.7-4.2 1.4-6.5 1.8l-14.7.8c-1.9-.2-3.7-.4-5.5-.8-2.1-.4-4.2-1-6.2-1.7-7.6-2.7-14.3-7.1-19.7-12.9-4.5-4.9-8.1-10.6-10.4-17h-.2l.1-.1c-.7-2.1-1.3-4.2-1.8-6.3-.7-3.3-1.1-6.7-1.1-10.2 0-3.4.3-6.7 1-9.8.4-2.2 1-4.3 1.8-6.4 2.2-6.4 5.8-12.3 10.3-17.2 5.4-5.8 12.1-10.4 19.7-13.1 2.1-.7 4.2-1.4 6.5-1.8 3.3-.7 6.6-1 10.1-1s6.9.4 10.1 1c2.1.4 4.2 1 6.3 1.8 7.7 2.7 14.5 7.3 19.9 13.1 4.5 4.9 8.1 10.7 10.3 17.1h.1-.1c.7 2.1 1.3 4.2 1.8 6.4.6 3.2 1 6.5 1 9.8 0 3.6-.4 7-1.1 10.3z" style="fill:#3620a4"/><path d="M934.5 842.1c-2.1.7-4.2 1.4-6.5 1.8l-14.7.8c-1.9-.2-3.7-.4-5.5-.8-2.1-.4-4.2-1-6.2-1.7l-.1-24.7v-43.3l-.1-25c2.1-.7 4.2-1.4 6.5-1.8 3.3-.7 6.6-1 10.1-1s6.9.4 10.1 1c2.1.4 4.2 1 6.3 1.8l.1 25.1v67.8z" class="st11"/><path d="M964.5 812.3h-.2c-2.3 6.4-5.9 12.2-10.4 17l-19.5-11.8-6.4-3.9-2.2-1.3-7.9-4.7-2.8-1.7-7.3-4.4-6.3-3.8-2.9-1.8-16.6-10-10.6-6.4c2.2-6.4 5.8-12.3 10.3-17.2l19.8 11.9 6.4 3.9 2.2 1.3 7.9 4.7 2.8 1.7 7.3 4.4 6.3 3.8 2.9 1.8 16.6 10 10.4 6.3.2.2z" class="st11"/><path d="m964.5 779.4-10.7 6.4-16.6 10-2.9 1.8-6.4 3.8-7.3 4.4-2.8 1.7-7.9 4.7-2.2 1.3-6.3 3.8-19.7 11.9c-4.5-4.9-8.1-10.6-10.4-17h-.2l.1-.1 10.5-6.3 16.6-10 2.9-1.8 6.3-3.8 7.3-4.4 2.8-1.7 7.9-4.7 2.2-1.3 6.3-3.8 19.8-12c4.9 4.8 8.4 10.6 10.7 17.1z" class="st11"/><path d="M966.1 805.8c-.5 2.2-1.1 4.3-1.8 6.3l.2.1h-93.3l.1-.1c-.7-2.1-1.3-4.2-1.8-6.3-.7-3.3-1.1-6.7-1.1-10.2 0-3.4.3-6.7 1-9.8.4-2.2 1-4.3 1.8-6.4h93.3-.1c.7 2.1 1.3 4.2 1.8 6.4.6 3.2 1 6.5 1 9.8 0 3.5-.4 6.9-1.1 10.2z" class="st11"/><path d="M928 747.3v96.5c-2.6.5-5.7.9-9.2 1-2 0-3.8 0-5.5-.2-1.9-.2-3.7-.4-5.5-.8v-96.6c3.3-.7 6.6-1 10.1-1 3.5.1 6.8.5 10.1 1.1z" class="st14"/><path d="M967.2 795.6c0 3.5-.4 6.9-1.1 10.2h-96.5c-.7-3.3-1.1-6.7-1.1-10.2 0-3.4.3-6.7 1-9.8h96.7c.7 3.2 1 6.5 1 9.8z" class="st14"/><path d="M1017.7 794.4H1007v6.7h12.7v5.2h-19.5V778h19.5v5.3H1007v6h10.7v5.1zm10.4-9 .2 2.5c.7-.9 1.6-1.6 2.6-2.1s2.2-.7 3.4-.7c1 0 1.9.1 2.7.4.8.3 1.5.7 2.1 1.4s1 1.5 1.3 2.5.5 2.3.5 3.9v13.2h-6.6v-13.2c0-.6-.1-1.2-.2-1.6-.1-.4-.3-.7-.6-1-.3-.2-.6-.4-.9-.5-.4-.1-.8-.1-1.3-.1-.7 0-1.3.1-1.7.4-.5.3-.8.6-1.1 1.1v14.8h-6.5v-21h6.1zm15.6 10.3c0-1.6.2-3 .6-4.4.4-1.3 1-2.5 1.7-3.4s1.6-1.7 2.7-2.2 2.3-.8 3.6-.8c1.2 0 2.2.2 3 .6.8.4 1.5.9 2.1 1.6l.2-1.8h5.9v20.2c0 1.5-.3 2.8-.8 3.9s-1.2 2.1-2.2 2.8c-.9.8-2.1 1.4-3.4 1.8-1.3.4-2.8.6-4.4.6-.7 0-1.4-.1-2.2-.2-.7-.1-1.5-.3-2.1-.6s-1.3-.6-1.9-1-1.1-.8-1.5-1.4l2.7-3.8c.5.6 1.2 1.1 2 1.5s1.7.6 2.8.6c1.4 0 2.5-.4 3.2-1.1.7-.7 1.1-1.8 1.1-3.2v-.8c-.6.7-1.3 1.2-2.1 1.5-.8.4-1.7.5-2.7.5-1.3 0-2.5-.3-3.6-.8s-2-1.3-2.7-2.2-1.3-2.1-1.7-3.4c-.4-1.3-.6-2.7-.6-4.2v-.3h.3zm6.6.4c0 .8.1 1.5.2 2.2s.4 1.3.7 1.8c.3.5.7.9 1.2 1.2s1 .4 1.6.4c.7 0 1.4-.1 1.9-.4.5-.2.9-.6 1.2-1v-8.8c-.3-.5-.7-.8-1.2-1.1-.5-.2-1.1-.4-1.8-.4-.6 0-1.1.1-1.6.4-.5.3-.9.7-1.2 1.2-.3.5-.5 1.1-.7 1.8s-.2 1.4-.2 2.3l-.1.4zm24 10.3h-6.6v-29.8h6.6v29.8zm3.9-26.4c0-.5.1-.9.3-1.3.2-.4.4-.7.7-1 .3-.3.7-.5 1.1-.7s.9-.2 1.5-.2c.5 0 1 .1 1.5.2.4.2.8.4 1.1.7s.6.6.7 1c.2.4.3.8.3 1.3s-.1.9-.3 1.3c-.2.4-.4.7-.7 1-.3.3-.7.5-1.1.7s-.9.2-1.5.2c-.5 0-1-.1-1.5-.2-.4-.2-.8-.4-1.1-.7-.3-.3-.6-.6-.7-1-.2-.5-.3-.9-.3-1.3zm7 26.4h-6.6v-21h6.6v21zm14.3-5.9c0-.3-.1-.5-.2-.7s-.3-.4-.7-.6c-.3-.2-.7-.4-1.3-.5-.5-.2-1.2-.3-2-.5-1-.2-2-.5-2.9-.9s-1.7-.8-2.3-1.3c-.7-.5-1.2-1.1-1.6-1.9-.4-.7-.6-1.5-.6-2.4s.2-1.7.6-2.5.9-1.5 1.7-2.1c.7-.6 1.6-1.1 2.7-1.4 1.1-.4 2.3-.5 3.7-.5 1.4 0 2.7.2 3.8.5 1.1.3 2.1.8 2.9 1.4.8.6 1.4 1.3 1.8 2.2.4.8.6 1.8.6 2.8h-6.6c0-.8-.2-1.4-.6-1.9-.4-.4-1.1-.7-2.1-.7-.3 0-.7 0-.9.1-.3.1-.5.2-.8.4-.2.2-.4.4-.5.6-.1.2-.2.5-.2.8 0 .6.3 1 .8 1.4s1.4.7 2.7.9c1.1.2 2.1.4 3.1.7s1.8.7 2.6 1.2 1.3 1.1 1.8 1.9c2.2 4.3.7-1.8.7 2.8 0 .9-.2 1.8-.6 2.6s-1 1.5-1.8 2c-.8.6-1.8 1-2.9 1.4-1.1.3-2.4.5-3.8.5-1.5 0-2.8-.2-4-.6-1.2-.4-2.1-1-2.9-1.7s-1.4-1.4-1.8-2.3c-.4-.8-.6-1.7-.6-2.5h6.1c0 1 .3 1.7 1 2.1.6.4 1.4.7 2.4.7.9 0 1.6-.2 2-.5.5-.5.7-.9.7-1.5zm16.5-12.9c.7-.8 1.4-1.5 2.3-1.9.9-.5 1.9-.7 3-.7 1 0 2 .1 2.9.4.9.3 1.6.8 2.2 1.4.6.7 1.1 1.5 1.4 2.6s.5 2.4.5 3.9v13h-6.6v-13.1c0-.6-.1-1.2-.2-1.6-.1-.4-.3-.8-.6-1-.3-.3-.6-.4-.9-.5-.4-.1-.8-.1-1.3-.1-.7 0-1.3.1-1.8.3s-.8.5-1.1.9v15.1h-6.5v-29.8h6.5v11.1h.2z" class="st15"/><path d="m1431.9 817.3-1.6-.5c-3.7-1.1-7.1-3-9.9-5.6-1.6-1.4-2.9-3.1-4.1-4.9l-13.4-.7c-3.8-.2-6.8-3.3-6.8-7.2v-5.7c0-3.8 3-7 6.8-7.2l13.4-.7c1.4-2.2 3.2-4.1 5.2-5.7 2.6-2.1 5.5-3.7 8.7-4.7l1.6-.5.1 43.4zm-2.4-40c-2.3.9-4.4 2.2-6.3 3.7-2 1.6-3.7 3.5-5 5.7l-.3.5-14.6.7c-2.5.1-4.5 2.2-4.5 4.8v5.7c0 2.5 2 4.6 4.5 4.8l14.7.7.3.6c1.1 1.8 2.4 3.5 4 4.9 2.1 1.9 4.6 3.5 7.3 4.5l-.1-36.6zm10.7 27.3-1.2-2.1c2.5-1.5 4-4.1 4-7s-1.5-5.5-4-7l1.2-2.1c3.2 1.9 5.2 5.3 5.2 9-.1 4-2 7.3-5.2 9.2z" class="st8"/><path d="m1445 811-1.2-2.1c4.7-2.8 7.6-7.8 7.6-13.3s-2.8-10.5-7.6-13.3l1.2-2.1c5.5 3.2 8.8 9 8.8 15.4s-3.3 12.1-8.8 15.4zm-12-6.1c-1.8 0-3.2-1.4-3.2-3.2v-12.3c0-1.8 1.4-3.2 3.2-3.2 1.8 0 3.2 1.4 3.2 3.2v12.3c0 1.8-1.5 3.2-3.2 3.2zm0-16.2c-.4 0-.8.3-.8.8v12.3c0 .4.3.8.8.8.4 0 .8-.3.8-.8v-12.3c-.1-.5-.4-.8-.8-.8z" class="st8"/><path d="M1433.4 862.2H879.1c-32.6 0-59.1-26.5-59.1-59.1v-14.9c0-32.6 26.5-59.1 59.1-59.1h554.3c32.6 0 59.1 26.5 59.1 59.1v14.9c.1 32.6-26.5 59.1-59.1 59.1zM879.1 733.4c-30.2 0-54.7 24.5-54.7 54.7V803c0 30.2 24.5 54.7 54.7 54.7h554.3c30.2 0 54.7-24.5 54.7-54.7v-14.9c0-30.2-24.5-54.7-54.7-54.7H879.1z" class="st8"/><path d="M964.4 954.1h-92.9v-.1c2.3-6.4 5.9-12.2 10.4-17 5.4-5.7 12.1-10.2 19.7-12.9 2-.7 4.1-1.3 6.2-1.7 1.8-.4 3.6-.6 5.5-.8 1.5-.1 3-.2 4.6-.2 3.5 0 6.9.4 10.1 1 2.2.5 4.4 1.1 6.5 1.8 7.5 2.7 14.1 7.1 19.5 12.8 4.5 4.9 8 10.7 10.4 17.1-.1 0-.1 0 0 0z" style="fill:#111"/><path d="M967.2 970.7c0 3.4-.3 6.7-1 9.8-.4 2.2-1 4.3-1.8 6.4 0 .1-.1.2-.1.3h-92.9c0-.1-.1-.2-.1-.3-.7-2.1-1.3-4.2-1.8-6.4-.6-3.2-1-6.5-1-9.8 0-3.5.4-6.9 1.1-10.2.5-2.2 1.1-4.3 1.8-6.3h92.9c.7 2 1.3 4.2 1.8 6.3.7 3.3 1.1 6.7 1.1 10.2z" style="fill:#e1082e"/><path d="M964.3 987.3c-2.2 6.3-5.7 12-10.2 16.8-5.4 5.9-12.2 10.4-19.9 13.1-2 .7-4.1 1.3-6.3 1.8-3.3.7-6.7 1-10.1 1-3.4 0-6.8-.4-10.1-1-2.2-.5-4.4-1.1-6.5-1.8-7.6-2.7-14.4-7.2-19.7-13.1-4.5-4.8-8-10.5-10.2-16.8h93z" style="fill:#fdcf42"/><path d="M1018.8 981.3c-.4.4-.9.8-1.5 1.3s-1.4.9-2.4 1.3c-.9.4-2 .7-3.2 1s-2.6.4-4.1.4c-1.9 0-3.6-.3-5.1-.9-1.5-.6-2.8-1.5-3.9-2.7-1.1-1.2-1.9-2.6-2.5-4.3s-.9-3.7-.9-5.9v-1.6c0-2.2.3-4.2.9-5.9.6-1.7 1.4-3.1 2.5-4.3s2.3-2.1 3.8-2.7c1.5-.6 3.1-.9 4.9-.9 2 0 3.6.2 5 .7s2.6 1.1 3.5 2 1.6 1.9 2.1 3c.5 1.2.8 2.5 1 3.9h-6.6c-.1-.7-.3-1.3-.5-1.9-.2-.5-.5-1-.9-1.4s-.9-.7-1.4-.9c-.6-.2-1.2-.3-2-.3s-1.6.2-2.2.5-1.2.9-1.7 1.6c-.5.7-.8 1.6-1.1 2.6s-.4 2.3-.4 3.7v1.6c0 2.8.5 4.9 1.4 6.4 1 1.4 2.5 2.1 4.6 2.1.5 0 1 0 1.5-.1.4-.1.8-.2 1.1-.3s.6-.2.8-.4c.2-.1.4-.3.6-.4v-4.4h-4.7v-4.7h11.5l-.1 11.9zm13.9 3.9c-1.7 0-3.2-.3-4.6-.8-1.3-.5-2.5-1.3-3.4-2.2-.9-.9-1.6-2-2.1-3.2s-.7-2.5-.7-3.9v-.7c0-1.5.2-3 .6-4.3.4-1.3 1.1-2.5 1.9-3.4.8-1 1.9-1.7 3.2-2.3s2.7-.8 4.4-.8c1.5 0 2.8.2 4 .7s2.2 1.2 3 2.1c.8.9 1.4 2 1.9 3.2.4 1.3.7 2.7.7 4.3v2.7h-13c.2 1.2.7 2.1 1.5 2.8s1.8 1 3.1 1c.9 0 1.8-.2 2.6-.5.9-.3 1.6-.9 2.2-1.7l3 3.5c-.3.5-.8.9-1.3 1.4-.5.4-1.1.8-1.8 1.2-.7.3-1.5.6-2.3.8-1 0-1.9.1-2.9.1zm-.8-16.7c-.6 0-1 .1-1.4.3s-.7.5-1 .8-.5.7-.6 1.2c-.2.5-.3 1-.3 1.5h6.6v-.5c0-1-.2-1.9-.8-2.4-.6-.6-1.4-.9-2.5-.9zm24.9 1.3h-2.2c-1 0-1.9.2-2.5.5s-1.1.8-1.4 1.5v13.3h-6.5v-21h6.1l.2 2.7c.5-1 1.2-1.7 1.9-2.3.8-.5 1.7-.8 2.7-.8.3 0 .6 0 1 .1.3 0 .6.1.9.2l-.2 5.8zm8.6-6 .2 2.5c.7-.9 1.5-1.6 2.5-2.1s2.1-.8 3.5-.8c1.2 0 2.3.2 3.2.7.9.5 1.6 1.3 2.1 2.4.7-1 1.5-1.8 2.5-2.3 1-.6 2.2-.8 3.6-.8 1 0 1.8.1 2.6.4.8.3 1.5.7 2.1 1.4.6.6 1 1.5 1.4 2.5.3 1 .5 2.3.5 3.9v13.2h-6.6v-13.2c0-.6-.1-1.2-.2-1.6-.1-.4-.3-.7-.5-1s-.5-.4-.8-.5-.7-.1-1.1-.1c-.7 0-1.2.2-1.7.5s-.9.7-1.2 1.3v14.6h-6.6v-13.2c0-.7-.1-1.2-.2-1.6-.1-.4-.3-.7-.5-1-.2-.2-.5-.4-.8-.5s-.7-.1-1.1-.1c-.6 0-1.2.2-1.7.5s-.9.7-1.2 1.3v14.6h-6.5v-21h6.5zm39.9 21c-.1-.3-.3-.5-.4-.9-.1-.3-.2-.7-.3-1-.5.6-1.2 1.2-2 1.6-.8.4-1.8.7-3.1.7-1 0-1.9-.2-2.7-.5-.9-.3-1.6-.7-2.3-1.3s-1.2-1.2-1.5-2c-.4-.8-.6-1.6-.6-2.6 0-1.1.2-2.1.6-2.9.4-.9 1-1.6 1.8-2.2s1.8-1 3.1-1.4c1.2-.3 2.7-.5 4.4-.5h2v-1.1c0-.9-.2-1.6-.6-2.1s-1-.8-1.9-.8c-.8 0-1.3.2-1.7.6-.4.4-.6 1-.6 1.7h-6.5c0-1 .2-1.9.7-2.7.4-.8 1.1-1.6 1.9-2.2.8-.6 1.8-1.1 2.9-1.4 1.1-.3 2.4-.5 3.8-.5 1.3 0 2.4.2 3.5.5s2 .8 2.8 1.4c.8.6 1.4 1.4 1.8 2.3.4.9.7 2 .7 3.3v8.6c0 .7 0 1.3.1 1.8s.1.9.2 1.3.2.7.3 1c.1.3.2.6.4.8v.3h-6.8v.2zm-4.1-4.2c.8 0 1.5-.2 2-.5s.9-.7 1.2-1.2v-3.4h-2.1c-.6 0-1.1.1-1.5.3s-.8.4-1 .7c-.3.3-.4.6-.5 1s-.2.8-.2 1.2c0 .6.2 1.1.6 1.4.3.3.8.5 1.5.5zm19.3-16.8.2 2.5c.7-.9 1.6-1.6 2.6-2.1s2.2-.7 3.4-.7c1 0 1.9.1 2.7.4.8.3 1.5.7 2.1 1.4.6.6 1 1.5 1.3 2.5s.5 2.3.5 3.9v13.2h-6.6v-13.2c0-.6-.1-1.2-.2-1.6-.1-.4-.3-.7-.6-1-.3-.2-.6-.4-.9-.5-.4-.1-.8-.1-1.3-.1-.7 0-1.3.1-1.7.4-.5.3-.8.6-1.1 1.1v14.8h-6.5v-21h6.1z" class="st15"/><path d="m1431.9 992.3-1.6-.5c-3.7-1.1-7.1-3-9.9-5.6-1.6-1.4-2.9-3.1-4.1-4.9l-13.4-.7c-3.8-.2-6.8-3.3-6.8-7.2v-5.7c0-3.8 3-7 6.8-7.2l13.4-.7c1.4-2.2 3.2-4.1 5.2-5.7 2.6-2.1 5.5-3.7 8.7-4.7l1.6-.5.1 43.4zm-2.4-39.9c-2.3.9-4.4 2.2-6.3 3.7-2 1.6-3.7 3.5-5 5.7l-.3.5-14.6.7c-2.5.1-4.5 2.2-4.5 4.8v5.7c0 2.5 2 4.6 4.5 4.8l14.7.7.3.6c1.1 1.8 2.4 3.5 4 4.9 2.1 1.9 4.6 3.5 7.3 4.5l-.1-36.6zm10.7 27.3-1.2-2.1c2.5-1.5 4-4.1 4-7s-1.5-5.5-4-7l1.2-2.1c3.2 1.9 5.2 5.3 5.2 9-.1 3.9-2 7.3-5.2 9.2z" class="st8"/><path d="m1445 986-1.2-2.1c4.7-2.8 7.6-7.8 7.6-13.3s-2.8-10.5-7.6-13.3l1.2-2.1c5.5 3.2 8.8 9 8.8 15.4s-3.3 12.2-8.8 15.4zm-12-6c-1.8 0-3.2-1.4-3.2-3.2v-12.3c0-1.8 1.4-3.2 3.2-3.2 1.8 0 3.2 1.4 3.2 3.2v12.3c0 1.7-1.5 3.2-3.2 3.2zm0-16.2c-.4 0-.8.3-.8.8v12.3c0 .4.3.8.8.8.4 0 .8-.3.8-.8v-12.3c-.1-.5-.4-.8-.8-.8z" class="st8"/><path d="M1433.4 1037.2H879.1c-32.6 0-59.1-26.5-59.1-59.1v-14.9c0-32.6 26.5-59.1 59.1-59.1h554.3c32.6 0 59.1 26.5 59.1 59.1v14.9c.1 32.6-26.5 59.1-59.1 59.1zM879.1 908.5c-30.2 0-54.7 24.5-54.7 54.7v14.9c0 30.2 24.5 54.7 54.7 54.7h554.3c30.2 0 54.7-24.5 54.7-54.7v-14.9c0-30.2-24.5-54.7-54.7-54.7H879.1z" class="st8"/><path d="M901.1 1102.5v92.7c-7.4-2.7-14-7.1-19.2-12.7-4.5-4.9-8.1-10.6-10.4-17v-.1c-.7-2.1-1.3-4.2-1.8-6.3-.7-3.3-1.1-6.7-1.1-10.2 0-3.4.3-6.7 1-9.8.4-2.2 1.1-4.3 1.8-6.4.1-.1.1-.2.1-.3 2.2-6.3 5.7-12 10.2-16.8 5.2-5.8 11.9-10.4 19.4-13.1z" style="fill:#3b32ed"/><path d="M934.7 1102.5v92.8c-.1 0-.1 0-.2.1-2.1.7-4.2 1.4-6.5 1.8-3.3.7-6.7 1-10.1 1-1.5 0-3.1-.1-4.6-.2-1.9-.2-3.7-.4-5.5-.8-2.2-.4-4.2-1-6.2-1.7-.2-.1-.3-.1-.5-.2v-92.7c.1 0 .2-.1.2-.1 2.1-.7 4.3-1.4 6.5-1.8 3.2-.7 6.6-1 10.1-1s6.8.4 10.1 1c2.1.4 4.2 1 6.2 1.8h.5z" class="st20"/><path d="M967.2 1148.9c0 3.5-.4 6.9-1.1 10.2-.5 2.2-1.1 4.3-1.8 6.3v.1c-2.3 6.4-5.9 12.2-10.4 17-5.3 5.6-11.9 10-19.3 12.7v-92.8c7.5 2.7 14.2 7.2 19.5 13 4.5 4.8 8 10.5 10.2 16.8 0 .1.1.2.1.3.7 2.1 1.3 4.2 1.8 6.4.7 3.4 1 6.7 1 10z" style="fill:#d5002b"/><path d="M1022.5 1152.4h-11v11.3h-6.8v-28.3h18.9v5.3h-12.1v6.5h11v5.2zm15.8-3.8h-2.2c-1 0-1.9.2-2.5.5s-1.1.8-1.4 1.5v13.3h-6.5v-21h6.1l.2 2.7c.5-1 1.2-1.7 1.9-2.3s1.7-.8 2.7-.8c.3 0 .6 0 1 .1.3 0 .6.1.9.2l-.2 5.8zm12.2 15.4c-1.7 0-3.2-.3-4.6-.8-1.3-.5-2.5-1.3-3.4-2.2s-1.6-2-2.1-3.2-.7-2.5-.7-3.9v-.7c0-1.5.2-3 .6-4.3s1.1-2.5 1.9-3.4c.8-1 1.9-1.7 3.2-2.3 1.3-.6 2.7-.8 4.4-.8 1.5 0 2.8.2 4 .7s2.2 1.2 3 2.1 1.4 2 1.9 3.2c.4 1.3.7 2.7.7 4.3v2.7h-13c.2 1.2.7 2.1 1.5 2.8.8.7 1.8 1 3.1 1 .9 0 1.8-.2 2.6-.5.9-.3 1.6-.9 2.2-1.7l3 3.5c-.3.5-.8.9-1.3 1.4-.5.4-1.1.8-1.8 1.2-.7.3-1.5.6-2.3.8s-1.9.1-2.9.1zm-.8-16.7c-.6 0-1 .1-1.4.3-.4.2-.7.5-1 .8s-.5.7-.6 1.2c-.2.5-.3 1-.3 1.5h6.6v-.5c0-1-.2-1.9-.8-2.4s-1.4-.9-2.5-.9zm18.3-4.7.2 2.5c.7-.9 1.6-1.6 2.6-2.1s2.2-.7 3.4-.7c1 0 1.9.1 2.7.4.8.3 1.5.7 2.1 1.4.6.6 1 1.5 1.3 2.5s.5 2.3.5 3.9v13.2h-6.6v-13.2c0-.6-.1-1.2-.2-1.6s-.3-.7-.6-1c-.3-.2-.6-.4-.9-.5-.4-.1-.8-.1-1.3-.1-.7 0-1.3.1-1.7.4-.5.3-.8.6-1.1 1.1v14.8h-6.5v-21h6.1zm25.2 16.4c.9 0 1.6-.2 2.1-.7s.8-1.2.7-2.1h6.1c0 1.2-.2 2.3-.7 3.2-.4 1-1.1 1.8-1.9 2.5s-1.7 1.2-2.8 1.6c-1.1.4-2.3.6-3.5.6-1.6 0-3.1-.3-4.3-.8-1.2-.5-2.3-1.3-3.1-2.2-.8-1-1.4-2.1-1.9-3.4-.4-1.3-.6-2.7-.6-4.2v-.4c0-1.5.2-2.9.6-4.2.4-1.3 1-2.4 1.8-3.4s1.8-1.7 3.1-2.2c1.2-.5 2.6-.8 4.3-.8 1.3 0 2.5.2 3.6.6s2 .9 2.8 1.6 1.4 1.6 1.8 2.6.7 2.2.7 3.6h-6.1c0-.5-.1-.9-.2-1.3s-.3-.8-.5-1.1c-.2-.3-.6-.5-.9-.7-.4-.2-.8-.3-1.3-.3-.7 0-1.2.2-1.6.5s-.7.7-.9 1.2c-.2.5-.4 1.1-.4 1.8s-.1 1.4-.1 2.2v.4c0 .8 0 1.5.1 2.2s.2 1.3.4 1.8.5.9 1 1.2 1.1.2 1.7.2zm18.2-14.1c.7-.8 1.4-1.5 2.3-1.9.9-.5 1.9-.7 3-.7 1 0 2 .1 2.9.4s1.6.8 2.2 1.4 1.1 1.5 1.4 2.6.5 2.4.5 3.9v13h-6.6v-13.1c0-.6-.1-1.2-.2-1.6s-.3-.8-.6-1c-.3-.3-.6-.4-.9-.5-.4-.1-.8-.1-1.3-.1-.7 0-1.3.1-1.8.3-.5.2-.8.5-1.1.9v15.1h-6.5v-29.8h6.5v11.1h.2z" class="st15"/><path d="m1431.9 1168.5-1.6-.5c-3.7-1.1-7.1-3-9.9-5.6-1.6-1.4-2.9-3.1-4.1-4.9l-13.4-.7c-3.8-.2-6.8-3.3-6.8-7.2v-5.7c0-3.8 3-7 6.8-7.2l13.4-.7c1.4-2.2 3.2-4.1 5.2-5.7 2.6-2.1 5.5-3.7 8.7-4.7l1.6-.5.1 43.4zm-2.4-40c-2.3.9-4.4 2.2-6.3 3.7-2 1.6-3.7 3.5-5 5.7l-.3.5-14.6.7c-2.5.1-4.5 2.2-4.5 4.8v5.7c0 2.5 2 4.6 4.5 4.8l14.7.7.3.6c1.1 1.8 2.4 3.5 4 4.9 2.1 1.9 4.6 3.5 7.3 4.5l-.1-36.6zm10.7 27.4-1.2-2.1c2.5-1.5 4-4.1 4-7s-1.5-5.5-4-7l1.2-2.1c3.2 1.9 5.2 5.3 5.2 9-.1 3.9-2 7.3-5.2 9.2z" class="st8"/><path d="m1445 1162.2-1.2-2.1c4.7-2.8 7.6-7.8 7.6-13.3s-2.8-10.5-7.6-13.3l1.2-2.1c5.5 3.2 8.8 9 8.8 15.4s-3.3 12.2-8.8 15.4zm-12-6.1c-1.8 0-3.2-1.4-3.2-3.2v-12.3c0-1.8 1.4-3.2 3.2-3.2 1.8 0 3.2 1.4 3.2 3.2v12.3c0 1.8-1.5 3.2-3.2 3.2zm0-16.2c-.4 0-.8.3-.8.8v12.3c0 .4.3.8.8.8.4 0 .8-.3.8-.8v-12.3c-.1-.4-.4-.8-.8-.8z" class="st8"/><path d="M1433.4 1213.4H879.1c-32.6 0-59.1-26.5-59.1-59.1v-14.9c0-32.6 26.5-59.1 59.1-59.1h554.3c32.6 0 59.1 26.5 59.1 59.1v14.9c.1 32.6-26.5 59.1-59.1 59.1zm-554.3-128.7c-30.2 0-54.7 24.5-54.7 54.7v14.9c0 30.2 24.5 54.7 54.7 54.7h554.3c30.2 0 54.7-24.5 54.7-54.7v-14.9c0-30.2-24.5-54.7-54.7-54.7H879.1z" class="st8"/><path d="M901.1 1371v-92.7c-7.4 2.7-14 7.1-19.2 12.7-4.5 4.9-8.1 10.6-10.4 17v.1c-.7 2.1-1.3 4.2-1.8 6.3-.7 3.3-1.1 6.7-1.1 10.2 0 3.4.3 6.7 1 9.8.4 2.2 1.1 4.3 1.8 6.4.1.1.1.2.1.3 2.2 6.3 5.7 12 10.2 16.8 5.2 5.9 11.9 10.4 19.4 13.1z" class="st22"/><path d="M934.7 1371v-92.8c-.1 0-.1 0-.2-.1-2.1-.7-4.2-1.4-6.5-1.8-3.3-.7-6.7-1-10.1-1-1.5 0-3.1.1-4.6.2-1.9.2-3.7.4-5.5.8-2.2.4-4.2 1-6.2 1.7-.2.1-.3.1-.5.2v92.7c.1 0 .2.1.2.1 2.1.7 4.3 1.4 6.5 1.8 3.2.7 6.6 1 10.1 1s6.8-.4 10.1-1c2.1-.4 4.2-1 6.2-1.8.2.1.3 0 .5 0z" class="st20"/><path d="M967.2 1324.6c0-3.5-.4-6.9-1.1-10.2-.5-2.2-1.1-4.3-1.8-6.3v-.1c-2.3-6.4-5.9-12.2-10.4-17-5.3-5.6-11.9-10-19.3-12.7v92.8c7.5-2.7 14.2-7.2 19.5-13 4.5-4.8 8-10.5 10.2-16.8 0-.1.1-.2.1-.3.7-2.1 1.3-4.2 1.8-6.4.7-3.4 1-6.6 1-10z" style="fill:#d40029"/><path d="M1017.2 1339.3h-6.8V1311h6.8v28.3zm12-26.2v5.2h3.5v4.5h-3.5v9.6c0 .4 0 .8.1 1 .1.3.2.5.3.7.2.2.4.3.7.3s.6.1 1 .1h.9c.2 0 .5 0 .7-.1v4.7c-.6.2-1.2.3-1.7.4-.6.1-1.2.1-1.9.1-1 0-2-.1-2.8-.4-.8-.2-1.5-.6-2.1-1.1-.6-.5-1-1.2-1.3-2s-.4-1.8-.4-2.9v-10.4h-2.7v-4.5h2.7v-5.2h6.5zm17.9 26.2c-.1-.3-.3-.5-.4-.9-.1-.3-.2-.7-.3-1-.5.6-1.2 1.2-2 1.6s-1.8.7-3.1.7c-1 0-1.9-.2-2.7-.5-.9-.3-1.6-.7-2.3-1.3-.6-.5-1.2-1.2-1.5-2-.4-.8-.6-1.6-.6-2.6 0-1.1.2-2.1.6-2.9.4-.9 1-1.6 1.8-2.2s1.8-1 3.1-1.4c1.2-.3 2.7-.5 4.4-.5h2v-1.1c0-.9-.2-1.6-.6-2.1s-1-.8-1.9-.8c-.8 0-1.3.2-1.7.6-.4.4-.6 1-.6 1.7h-6.5c0-1 .2-1.9.7-2.7s1.1-1.6 1.9-2.2 1.8-1.1 2.9-1.4 2.4-.5 3.8-.5c1.3 0 2.4.2 3.5.5s2 .8 2.8 1.4 1.4 1.4 1.8 2.3.7 2 .7 3.3v8.6c0 .7 0 1.3.1 1.8 0 .5.1.9.2 1.3s.2.7.3 1c.1.3.2.6.4.8v.3h-6.8v.2zm-4.1-4.3c.8 0 1.5-.2 2-.5s.9-.7 1.2-1.2v-3.4h-2.1c-.6 0-1.1.1-1.5.3-.4.2-.8.4-1 .7-.3.3-.4.6-.5 1s-.2.8-.2 1.2c0 .6.2 1.1.6 1.4.4.4.9.5 1.5.5zm20.3 4.3h-6.6v-29.8h6.6v29.8zm3.9-26.4c0-.5.1-.9.3-1.3.2-.4.4-.7.7-1 .3-.3.7-.5 1.1-.7s.9-.2 1.5-.2c.5 0 1 .1 1.5.2.4.2.8.4 1.1.7.3.3.6.6.7 1 .2.4.3.8.3 1.3s-.1.9-.3 1.3c-.2.4-.4.7-.7 1-.3.3-.7.5-1.1.7s-.9.2-1.5.2c-.5 0-1-.1-1.5-.2-.4-.2-.8-.4-1.1-.7-.3-.3-.6-.6-.7-1-.2-.4-.3-.8-.3-1.3zm7 26.4h-6.6v-21h6.6v21zm15.5 0c-.1-.3-.3-.5-.4-.9-.1-.3-.2-.7-.3-1-.5.6-1.2 1.2-2 1.6s-1.8.7-3.1.7c-1 0-1.9-.2-2.7-.5-.9-.3-1.6-.7-2.3-1.3-.6-.5-1.2-1.2-1.5-2-.4-.8-.6-1.6-.6-2.6 0-1.1.2-2.1.6-2.9.4-.9 1-1.6 1.8-2.2s1.8-1 3.1-1.4c1.2-.3 2.7-.5 4.4-.5h2v-1.1c0-.9-.2-1.6-.6-2.1s-1-.8-1.9-.8c-.8 0-1.3.2-1.7.6-.4.4-.6 1-.6 1.7h-6.5c0-1 .2-1.9.7-2.7.4-.8 1.1-1.6 1.9-2.2s1.8-1.1 2.9-1.4 2.4-.5 3.8-.5c1.3 0 2.4.2 3.5.5s2 .8 2.8 1.4 1.4 1.4 1.8 2.3.7 2 .7 3.3v8.6c0 .7 0 1.3.1 1.8 0 .5.1.9.2 1.3s.2.7.3 1c.1.3.2.6.4.8v.3h-6.8v.2zm-4.1-4.3c.8 0 1.5-.2 2-.5s.9-.7 1.2-1.2v-3.4h-2.1c-.6 0-1.1.1-1.5.3-.4.2-.8.4-1 .7-.3.3-.4.6-.5 1s-.2.8-.2 1.2c0 .6.2 1.1.6 1.4.4.4.9.5 1.5.5zm19.4-16.7.2 2.5c.7-.9 1.6-1.6 2.6-2.1s2.2-.7 3.4-.7c1 0 1.9.1 2.7.4s1.5.7 2.1 1.4c.6.6 1 1.5 1.3 2.5s.5 2.3.5 3.9v13.2h-6.6v-13.2c0-.6-.1-1.2-.2-1.6s-.3-.7-.6-1c-.3-.2-.6-.4-.9-.5-.4-.1-.8-.1-1.3-.1-.7 0-1.3.1-1.7.4s-.8.6-1.1 1.1v14.8h-6.5v-21h6.1z" class="st15"/><path d="m1431.9 1344.7-1.6-.5c-3.7-1.1-7.1-3-9.9-5.6-1.6-1.4-2.9-3.1-4.1-4.9l-13.4-.7c-3.8-.2-6.8-3.3-6.8-7.2v-5.7c0-3.8 3-7 6.8-7.2l13.4-.7c1.4-2.2 3.2-4.1 5.2-5.7 2.6-2.1 5.5-3.7 8.7-4.7l1.6-.5.1 43.4zm-2.4-40c-2.3.9-4.4 2.2-6.3 3.7-2 1.6-3.7 3.5-5 5.7l-.3.5-14.6.7c-2.5.1-4.5 2.2-4.5 4.8v5.7c0 2.5 2 4.6 4.5 4.8l14.7.7.3.6c1.1 1.8 2.4 3.5 4 4.9 2.1 1.9 4.6 3.5 7.3 4.5l-.1-36.6zm10.7 27.3-1.2-2.1c2.5-1.5 4-4.1 4-7s-1.5-5.5-4-7l1.2-2.1c3.2 1.9 5.2 5.3 5.2 9-.1 3.9-2 7.3-5.2 9.2z" class="st8"/><path d="m1445 1338.4-1.2-2.1c4.7-2.8 7.6-7.8 7.6-13.3s-2.8-10.5-7.6-13.3l1.2-2.1c5.5 3.2 8.8 9 8.8 15.4s-3.3 12.1-8.8 15.4zm-12-6.1c-1.8 0-3.2-1.4-3.2-3.2v-12.3c0-1.8 1.4-3.2 3.2-3.2 1.8 0 3.2 1.4 3.2 3.2v12.3c0 1.8-1.5 3.2-3.2 3.2zm0-16.2c-.4 0-.8.3-.8.8v12.3c0 .4.3.8.8.8.4 0 .8-.3.8-.8v-12.3c-.1-.5-.4-.8-.8-.8z" class="st8"/><path d="M1433.4 1389.6H879.1c-32.6 0-59.1-26.5-59.1-59.1v-14.9c0-32.6 26.5-59.1 59.1-59.1h554.3c32.6 0 59.1 26.5 59.1 59.1v14.9c.1 32.6-26.5 59.1-59.1 59.1zm-554.3-128.8c-30.2 0-54.7 24.5-54.7 54.7v14.9c0 30.2 24.5 54.7 54.7 54.7h554.3c30.2 0 54.7-24.5 54.7-54.7v-14.9c0-30.2-24.5-54.7-54.7-54.7H879.1z" class="st8"/><path d="M901.1 1451.1v92.7c-2.2-.8-4.4-1.8-6.5-2.9-4.9-2.6-9.3-6-13-10.1-4.4-4.8-8-10.5-10.2-16.8 0-.1-.1-.2-.1-.3-.7-2.1-1.4-4.2-1.8-6.4-.6-3.2-1-6.5-1-9.8 0-3.5.4-6.9 1.1-10.2.5-2.2 1.1-4.3 1.8-6.3v-.1c2.3-6.4 5.9-12.2 10.4-17 3.7-3.9 8-7.2 12.7-9.8 2.2-1.3 4.4-2.2 6.6-3z" class="st22"/><path d="M934.7 1451.1v92.8c-.1.1-.3.1-.4.2-2 .7-4.1 1.3-6.2 1.8-3.3.7-6.7 1-10.1 1-3.5 0-6.8-.4-10.1-1-2.2-.5-4.4-1.1-6.5-1.8-.1 0-.2-.1-.2-.1v-92.7c.2-.1.3-.1.5-.2 2-.7 4.1-1.3 6.2-1.7 1.8-.4 3.6-.6 5.5-.8 1.5-.2 3-.2 4.6-.2 3.5 0 6.8.4 10.1 1 2.2.5 4.4 1.1 6.4 1.8 0-.2.1-.2.2-.1z" style="fill:#eef3ff"/><path d="M967.2 1497.4c0 3.4-.3 6.7-1 9.8-.4 2.2-1 4.3-1.8 6.4 0 .1-.1.2-.1.3-2.2 6.3-5.7 12-10.2 16.8-3.7 4.1-8.1 7.5-13 10.1-2.1 1.1-4.3 2.1-6.5 2.9v-92.8c2.2.8 4.4 1.8 6.5 2.9 4.8 2.5 9.1 5.9 12.8 9.8 4.6 4.9 8.1 10.6 10.4 17v.1c.7 2 1.3 4.1 1.8 6.3.8 3.5 1.1 6.9 1.1 10.4z" style="fill:#fd8647"/><path d="m1431.9 1518.6-1.6-.5c-3.7-1.1-7.1-3-9.9-5.6-1.6-1.4-2.9-3.1-4.1-4.9l-13.4-.7c-3.8-.2-6.8-3.3-6.8-7.2v-5.7c0-3.8 3-7 6.8-7.2l13.4-.7c1.4-2.2 3.2-4.1 5.2-5.7 2.6-2.1 5.5-3.7 8.7-4.7l1.6-.5.1 43.4zm-2.4-39.9c-2.3.9-4.4 2.2-6.3 3.7-2 1.6-3.7 3.5-5 5.7l-.3.5-14.6.7c-2.5.1-4.5 2.2-4.5 4.8v5.7c0 2.5 2 4.6 4.5 4.8l14.7.7.3.6c1.1 1.8 2.4 3.5 4 4.9 2.1 1.9 4.6 3.5 7.3 4.5l-.1-36.6zm10.7 27.3-1.2-2.1c2.5-1.5 4-4.1 4-7s-1.5-5.5-4-7l1.2-2.1c3.2 1.9 5.2 5.3 5.2 9-.1 3.9-2 7.3-5.2 9.2z" class="st8"/><path d="m1445 1512.3-1.2-2.1c4.7-2.8 7.6-7.8 7.6-13.3s-2.8-10.5-7.6-13.3l1.2-2.1c5.5 3.2 8.8 9 8.8 15.4s-3.3 12.2-8.8 15.4zm-12-6c-1.8 0-3.2-1.4-3.2-3.2v-12.3c0-1.8 1.4-3.2 3.2-3.2 1.8 0 3.2 1.4 3.2 3.2v12.3c0 1.7-1.5 3.2-3.2 3.2zm0-16.2c-.4 0-.8.3-.8.8v12.3c0 .4.3.8.8.8.4 0 .8-.3.8-.8v-12.3c-.1-.5-.4-.8-.8-.8z" class="st8"/><path d="M1433.4 1563.5H879.1c-32.6 0-59.1-26.5-59.1-59.1v-14.9c0-32.6 26.5-59.1 59.1-59.1h554.3c32.6 0 59.1 26.5 59.1 59.1v14.9c.1 32.6-26.5 59.1-59.1 59.1zm-554.3-128.7c-30.2 0-54.7 24.5-54.7 54.7v14.9c0 30.2 24.5 54.7 54.7 54.7h554.3c30.2 0 54.7-24.5 54.7-54.7v-14.9c0-30.2-24.5-54.7-54.7-54.7H879.1z" class="st8"/><path d="M941.1 1454v86.9c-2.1 1.1-4.3 2.1-6.5 2.9-.1.1-.3.1-.4.2-2 .7-4.1 1.3-6.2 1.8-3.3.7-6.7 1-10.1 1-3.5 0-6.8-.4-10.1-1-2.2-.5-4.4-1.1-6.5-1.8-.1 0-.2-.1-.2-.1-2.2-.8-4.4-1.8-6.5-2.9v-87c2.1-1.2 4.3-2.1 6.5-2.9.2-.1.3-.1.5-.2 2-.7 4.1-1.3 6.2-1.7 1.8-.4 3.6-.6 5.5-.8 1.5-.2 3-.2 4.6-.2 3.5 0 6.8.4 10.1 1 2.2.5 4.4 1.1 6.4 1.8.1 0 .1 0 .2.1 2.3.8 4.5 1.7 6.5 2.9z" class="st20"/><path d="M1016.5 1512.2h-6.8V1484h6.8v28.2zm17-15.1h-2.2c-1 0-1.9.2-2.5.5s-1.1.8-1.4 1.5v13.2h-6.5v-20.9h6.1l.2 2.7c.5-1 1.2-1.7 1.9-2.3.8-.5 1.7-.8 2.7-.8.3 0 .6 0 1 .1.3 0 .6.1.9.2l-.2 5.8zm12.2 15.4c-1.7 0-3.2-.3-4.6-.8-1.3-.5-2.5-1.3-3.4-2.2-.9-.9-1.6-2-2.1-3.2s-.7-2.5-.7-3.9v-.7c0-1.5.2-2.9.6-4.3s1.1-2.5 1.9-3.4c.8-1 1.9-1.7 3.2-2.3 1.3-.6 2.7-.8 4.4-.8 1.5 0 2.8.2 4 .7s2.2 1.2 3 2.1 1.4 2 1.9 3.2.6 2.7.6 4.3v2.6h-13c.2 1.2.7 2.1 1.5 2.8.8.7 1.8 1 3.1 1 .9 0 1.8-.2 2.6-.5.9-.3 1.6-.9 2.2-1.7l3 3.5c-.3.5-.8.9-1.3 1.4-.5.4-1.1.8-1.8 1.2-.7.3-1.5.6-2.3.8-.9.1-1.8.2-2.8.2zm-.8-16.6c-.6 0-1 .1-1.4.3s-.7.5-1 .8-.5.7-.6 1.2c-.2.5-.3 1-.3 1.5h6.6v-.5c0-1-.2-1.9-.8-2.4-.7-.6-1.4-.9-2.5-.9zm19.1 16.3h-6.5v-29.7h6.5v29.7zm15.8 0c-.1-.3-.3-.5-.4-.9s-.2-.7-.3-1c-.5.6-1.2 1.2-2 1.6s-1.8.7-3.1.7c-1 0-1.9-.2-2.7-.5-.9-.3-1.6-.7-2.3-1.3-.6-.5-1.2-1.2-1.5-2-.4-.8-.6-1.6-.6-2.6 0-1.1.2-2.1.6-2.9s1-1.6 1.8-2.2 1.8-1 3.1-1.4c1.2-.3 2.7-.5 4.4-.5h2v-1.1c0-.9-.2-1.6-.6-2.1s-1-.8-1.9-.8c-.7 0-1.3.2-1.7.6-.4.4-.6.9-.6 1.7h-6.5c0-1 .2-1.9.6-2.7.4-.8 1-1.6 1.8-2.2s1.8-1.1 2.9-1.4 2.4-.5 3.8-.5c1.3 0 2.4.2 3.5.5s2 .8 2.8 1.4 1.4 1.4 1.8 2.3.7 2 .7 3.3v8.6c0 .7 0 1.3.1 1.8 0 .5.1.9.2 1.3s.2.7.3 1c.1.3.2.6.4.8v.3h-6.6v.2zm-4.1-4.3c.8 0 1.5-.2 2-.5s.9-.7 1.2-1.2v-3.3h-2.1c-.6 0-1.1.1-1.5.3s-.8.4-1 .7c-.3.3-.4.6-.5 1s-.2.8-.2 1.2c0 .6.2 1.1.6 1.4.4.2.9.4 1.5.4zm19.3-16.7.2 2.5c.7-.9 1.6-1.6 2.6-2.1s2.1-.7 3.4-.7c1 0 1.9.1 2.7.4.8.3 1.5.7 2.1 1.4.6.6 1 1.5 1.3 2.5s.5 2.3.5 3.8v13.2h-6.5V1499c0-.6-.1-1.1-.2-1.5s-.3-.7-.6-.9c-.3-.2-.6-.4-.9-.5-.4-.1-.8-.1-1.2-.1-.7 0-1.3.1-1.7.4-.5.3-.8.6-1.1 1.1v14.8h-6.5v-20.9h5.9v-.2zm15.5 10.3c0-1.6.2-3 .5-4.4.3-1.3.9-2.4 1.5-3.4.7-.9 1.5-1.7 2.5-2.2s2.2-.8 3.5-.8c1 0 1.9.2 2.6.6s1.5.9 2.1 1.6v-10.6h6.5v29.7h-5.9l-.3-2.2c-.6.8-1.3 1.5-2.2 1.9-.8.5-1.8.7-2.9.7-1.3 0-2.5-.3-3.5-.8s-1.9-1.3-2.5-2.2c-.7-.9-1.2-2.1-1.5-3.4s-.5-2.7-.5-4.2v-.3h.1zm6.6.4c0 .8.1 1.5.2 2.2s.3 1.3.5 1.8c.3.5.6.9 1 1.2.4.3.9.4 1.6.4s1.4-.2 1.9-.5.9-.8 1.2-1.3v-8c-.6-1.2-1.6-1.9-3.1-1.9-.6 0-1.1.1-1.5.4s-.8.7-1 1.2c-.3.5-.4 1.1-.6 1.8-.1.7-.2 1.4-.2 2.3v.4z" class="st4"/><path d="M966.2 1659c-.5-2.2-1.1-4.3-1.8-6.3v-.1c-2.3-6.4-5.9-12.2-10.4-17-5.3-5.6-11.9-10-19.3-12.7-.1 0-.1 0-.2-.1-2.1-.7-4.2-1.4-6.5-1.8-3.3-.7-6.7-1-10.1-1-1.5 0-3.1.1-4.6.2-1.9.2-3.7.4-5.5.8-2.2.4-4.2 1-6.2 1.7-.2.1-.3.1-.5.2-7.4 2.7-14 7.1-19.2 12.7-4.5 4.9-8.1 10.6-10.4 17v.1c-.7 2.1-1.3 4.2-1.8 6.3-.7 3.3-1.1 6.7-1.1 10.2 0 3.4.3 6.7 1 9.8.4 2.2 1.1 4.3 1.8 6.4.1.1.1.2.1.3 2.2 6.3 5.7 12 10.2 16.8 5.3 5.8 12 10.3 19.5 13 .1 0 .2.1.2.1 2.1.7 4.3 1.4 6.5 1.8 3.2.7 6.6 1 10.1 1s6.8-.4 10.1-1c2.1-.4 4.2-1 6.2-1.8.1-.1.3-.1.4-.1 7.5-2.7 14.2-7.2 19.5-13 4.5-4.8 8-10.5 10.2-16.8 0-.1.1-.2.1-.3.7-2.1 1.3-4.2 1.8-6.4.6-3.2 1-6.5 1-9.8-.1-3.5-.4-6.9-1.1-10.2z" class="st20"/><path d="M945 1663.4c-.3-1.2-.6-2.4-1-3.5v-.1c-1.3-3.6-3.3-6.8-5.8-9.6-3-3.2-6.7-5.6-10.8-7.1h-.1c-1.2-.4-2.4-.8-3.6-1-1.8-.4-3.7-.6-5.7-.6-.9 0-1.7 0-2.6.1-1.1.1-2.1.2-3.1.5-1.2.2-2.4.6-3.5 1-.1 0-.2.1-.3.1-4.2 1.5-7.8 4-10.8 7.1-2.6 2.7-4.6 6-5.8 9.6-.4 1.2-.8 2.3-1 3.6-.4 1.9-.6 3.8-.6 5.7 0 1.9.2 3.7.5 5.5.2 1.2.6 2.4 1 3.6 0 .1 0 .1.1.2 1.2 3.5 3.2 6.8 5.7 9.5 3 3.2 6.7 5.8 10.9 7.3 0 0 .1 0 .1.1 1.2.4 2.4.8 3.6 1 1.8.4 3.7.6 5.7.6s3.8-.2 5.7-.6c1.2-.2 2.4-.6 3.5-1 .1 0 .2-.1.2-.1 4.2-1.5 8-4.1 10.9-7.3 2.5-2.7 4.5-5.9 5.7-9.5 0-.1 0-.1.1-.2.4-1.2.7-2.4 1-3.6.4-1.8.5-3.6.5-5.5.1-2-.1-3.9-.5-5.8z" style="fill:#ea0f35"/><path d="m1431.9 1689.2-1.6-.5c-3.7-1.1-7.1-3-9.9-5.6-1.6-1.4-2.9-3.1-4.1-4.9l-13.4-.7c-3.8-.2-6.8-3.3-6.8-7.2v-5.7c0-3.8 3-7 6.8-7.2l13.4-.7c1.4-2.2 3.2-4.1 5.2-5.7 2.6-2.1 5.5-3.7 8.7-4.7l1.6-.5.1 43.4zm-2.4-39.9c-2.3.9-4.4 2.2-6.3 3.7-2 1.6-3.7 3.5-5 5.7l-.3.5-14.6.7c-2.5.1-4.5 2.2-4.5 4.8v5.7c0 2.5 2 4.6 4.5 4.8l14.7.7.3.6c1.1 1.8 2.4 3.5 4 4.9 2.1 1.9 4.6 3.5 7.3 4.5l-.1-36.6zm10.7 27.3-1.2-2.1c2.5-1.5 4-4.1 4-7s-1.5-5.5-4-7l1.2-2.1c3.2 1.9 5.2 5.3 5.2 9-.1 3.9-2 7.3-5.2 9.2z" class="st8"/><path d="m1445 1683-1.2-2.1c4.7-2.8 7.6-7.8 7.6-13.3s-2.8-10.5-7.6-13.3l1.2-2.1c5.5 3.2 8.8 9 8.8 15.4s-3.3 12.1-8.8 15.4zm-12-6.1c-1.8 0-3.2-1.4-3.2-3.2v-12.3c0-1.8 1.4-3.2 3.2-3.2 1.8 0 3.2 1.4 3.2 3.2v12.3c0 1.8-1.5 3.2-3.2 3.2zm0-16.2c-.4 0-.8.3-.8.8v12.3c0 .4.3.8.8.8.4 0 .8-.3.8-.8v-12.3c-.1-.5-.4-.8-.8-.8z" class="st8"/><path d="M1433.4 1734.2H879.1c-32.6 0-59.1-26.5-59.1-59.1v-14.9c0-32.6 26.5-59.1 59.1-59.1h554.3c32.6 0 59.1 26.5 59.1 59.1v14.9c.1 32.5-26.5 59.1-59.1 59.1zm-554.3-128.8c-30.2 0-54.7 24.5-54.7 54.7v14.9c0 30.2 24.5 54.7 54.7 54.7h554.3c30.2 0 54.7-24.5 54.7-54.7v-14.9c0-30.2-24.5-54.7-54.7-54.7H879.1z" class="st8"/><path d="M1021.8 1655.6h6.7v19.1c0 1.4-.2 2.7-.7 3.8-.5 1.1-1.2 2.1-2 2.9-.9.8-1.9 1.4-3 1.8-1.2.4-2.4.6-3.8.6a16 16 0 0 1-3.9-.5c-1.2-.4-2.2-.9-3-1.6s-1.5-1.6-2-2.7-.7-2.4-.7-3.9h6.7c0 .7.1 1.3.2 1.8s.3.8.6 1.1c.2.3.5.5.9.6s.8.2 1.2.2c.9 0 1.7-.3 2.2-1s.8-1.7.8-2.9v-19.3h-.2zm22.3 27.9c-.1-.3-.3-.5-.4-.9s-.2-.6-.3-1c-.5.6-1.1 1.2-1.9 1.6s-1.8.7-3 .7c-1 0-1.9-.2-2.7-.5-.8-.3-1.6-.7-2.2-1.3-.6-.5-1.1-1.2-1.5-2s-.6-1.6-.6-2.5c0-1.1.2-2 .6-2.9.4-.8 1-1.6 1.8-2.1s1.8-1 3-1.3 2.7-.5 4.3-.5h2v-1.1c0-.9-.2-1.6-.6-2.1s-1-.8-1.9-.8c-.7 0-1.3.2-1.7.6-.4.4-.6.9-.6 1.7h-6.5c0-1 .2-1.9.6-2.7.4-.8 1-1.5 1.8-2.1s1.7-1.1 2.9-1.4c1.1-.3 2.4-.5 3.7-.5 1.2 0 2.4.2 3.4.5 1.1.3 2 .8 2.7 1.4.8.6 1.4 1.4 1.8 2.3s.7 2 .7 3.2v8.5c0 .7 0 1.3.1 1.8 0 .5.1.9.2 1.3s.2.7.3 1c.1.3.2.6.4.8v.3h-6.4zm-4-4.2c.8 0 1.5-.2 2-.5s.9-.7 1.1-1.2v-3.3h-2c-.6 0-1.1.1-1.5.2-.4.2-.7.4-1 .7-.2.3-.4.6-.5 1s-.2.7-.2 1.1c0 .6.2 1.1.6 1.4.4.4.9.6 1.5.6zm32.8-6c0 1.5-.2 2.9-.5 4.2-.3 1.3-.9 2.4-1.5 3.4-.7 1-1.5 1.7-2.5 2.2s-2.2.8-3.5.8c-1 0-1.9-.2-2.7-.6-.8-.4-1.4-.9-2-1.5v9.7h-6.5v-28.7h6l.2 1.9c.6-.7 1.3-1.3 2.1-1.7.8-.4 1.7-.6 2.8-.6 1.3 0 2.5.3 3.5.8s1.9 1.2 2.5 2.1c.7.9 1.2 2 1.5 3.3.4 1.3.5 2.7.5 4.3l.1.4zm-6.4-.4c0-.8-.1-1.5-.2-2.2s-.3-1.3-.5-1.7c-.2-.5-.6-.9-1-1.1s-.9-.4-1.5-.4c-.8 0-1.4.1-1.9.4s-.9.7-1.1 1.2v8.2c.3.5.7 1 1.1 1.3.5.3 1.1.5 2 .5.6 0 1.1-.1 1.5-.4s.7-.7 1-1.2c.2-.5.4-1.1.5-1.8.1-.7.2-1.4.2-2.2l-.1-.6zm21 10.6c-.1-.3-.3-.5-.4-.9-.1-.3-.2-.6-.3-1-.5.6-1.1 1.2-1.9 1.6s-1.8.7-3 .7c-1 0-1.9-.2-2.7-.5-.8-.3-1.6-.7-2.2-1.3s-1.1-1.2-1.5-2-.6-1.6-.6-2.5c0-1.1.2-2 .6-2.9.4-.8 1-1.6 1.8-2.1.8-.6 1.8-1 3-1.3s2.7-.5 4.3-.5h2v-1.1c0-.9-.2-1.6-.6-2.1s-1-.8-1.9-.8c-.7 0-1.3.2-1.7.6-.4.4-.6.9-.6 1.7h-6.5c0-1 .2-1.9.6-2.7.4-.8 1-1.5 1.8-2.1s1.7-1.1 2.9-1.4 2.4-.5 3.7-.5c1.2 0 2.4.2 3.4.5 1.1.3 2 .8 2.7 1.4.8.6 1.4 1.4 1.8 2.3s.7 2 .7 3.2v8.5c0 .7 0 1.3.1 1.8 0 .5.1.9.2 1.3s.2.7.3 1c.1.3.2.6.4.8v.3h-6.4zm-4.1-4.2c.8 0 1.5-.2 2-.5s.9-.7 1.1-1.2v-3.3h-2c-.6 0-1.1.1-1.5.2-.4.2-.7.4-1 .7s-.4.6-.5 1-.2.7-.2 1.1c0 .6.2 1.1.6 1.4.4.4.9.6 1.5.6zm18.7-16.5.2 2.4c.7-.9 1.6-1.6 2.6-2.1s2.1-.7 3.4-.7c1 0 1.8.1 2.6.4s1.5.7 2.1 1.4c.6.6 1 1.5 1.3 2.5s.5 2.3.5 3.8v13.1h-6.5v-13.1c0-.6-.1-1.1-.2-1.5s-.3-.7-.6-.9c-.2-.2-.6-.4-.9-.5s-.8-.1-1.2-.1c-.7 0-1.3.1-1.7.4-.5.3-.8.6-1.1 1.1v14.6h-6.5v-20.7h6v-.1z" class="st15"/><path d="M907.4 1504.4c-9.6 7.3-19.3 9.4-25.6 10.5-27.3 5-49.8-3.8-49.8-3.8-7.9-3.1-15-7.3-51.5-43.1-11-10.8-20.1-19.9-26.5-26.5-8.8 3.3-172.2 67-202.8 228.2-26.3 138.1 56.4 287 203.8 348.3 41-67.9 79.1-118.2 107.3-152.6 0 0 80.3-97.8 99.5-141.9 0 0 9.2-20.7 18.9-38 1.4-2.5 2.8-4.8 2.8-4.8.5-.9 1-1.6 1.3-2.2 0-.1 0-.1.1-.2 0-.1.1-.1.1-.1.1-.1.1-.2.2-.3.1-.1.1-.3.2-.4.1-.1.1-.2.2-.3.2-.3.4-.6.5-.9v-.1c.2-.2.3-.5.5-.8s.4-.6.5-.9c.3-.5.7-1 1-1.6.6-.9 1.1-1.8 1.7-2.7 1-1.6 2.1-3.2 3.2-4.7.2-.3.3-.5.5-.8.1-.3.3-.5.5-.7.5-.7.9-1.4 1.4-2 2.8-3.9 5.7-7.9 8.8-12.1l.6-.9c.2-.3.4-.5.6-.8 1.3-1.7 2.6-3.4 3.8-5.1 1.2-1.5 2.3-3 3.4-4.5.3-.5.7-.9 1-1.3.4-.5.8-1 1.1-1.5 1.1-1.5 2.2-2.9 3.3-4.3l.9-1.2c.2-.2.4-.4.5-.7 2.2-2.8 4.3-5.6 6.5-8.3.3-.3.5-.7.8-1l1.5-1.8c.2-.3.5-.6.7-.9.3-.4.6-.8 1-1.2.6-.8 1.3-1.6 1.9-2.4.2-.3.4-.5.6-.8l.1-.1c0-.1.1-.1.1-.2 1.3-1.7 2.6-3.3 4-4.9 4.8-5.9 9.6-11.6 14.3-17.2l1.2-1.3c.3-.5.7-.9 1.1-1.3 1-1.1 1.9-2.2 2.8-3.3.7-.8 1.3-1.6 2-2.3 0-.1.1-.1.1-.2l.1-.1c.5-.7 1.1-1.3 1.7-2l.4-.4c.1-.2.3-.3.4-.4.8-1 1.7-1.9 2.5-2.9.2-.2.4-.5.6-.7.2-.3.4-.5.6-.7.4-.5.8-.9 1.2-1.4.8-.9 1.6-1.8 2.4-2.8.4-.5.8-1 1.2-1.4.2-.2.4-.4.5-.6.1 0 .1-.1.1-.2.2-.2.3-.4.5-.6.8-1 1.7-1.9 2.5-2.9l.1-.1c1.6-1.8 3.2-3.7 4.8-5.4.6-.7 1.2-1.4 1.8-2 .2-.2.5-.5.7-.8l.3-.3c.1-.1.2-.2.2-.3l.5-.5c1-1.1 1.9-2.1 2.8-3.1 1.3-.4 2.7-.8 4.2-1.3l1.7-.6.9-.3.9-.3c.6-.2 1.1-.4 1.7-.6 1.9-.6 3.8-1.4 5.8-2.1 1.5-.6 3.1-1.2 4.7-1.8.3-.1.7-.3 1-.4.9-.3 1.8-.7 2.7-1.1.2-.1.3-.1.5-.2 1.2-.5 2.4-1 3.7-1.6.5-.2 1-.5 1.5-.7.7-.3 1.3-.6 2-.9 1.3-.6 2.5-1.2 3.8-1.7h.3c.1 0 .1-.1.2-.1h.2c.3-.2.7-.3 1-.5h.1c1.5-.7 3-1.5 4.5-2.2.4-.2.7-.4 1.1-.5.5-.2.9-.4 1.3-.7.2-.1.4-.2.7-.3h.1l.6-.3c.3-.2.6-.3 1-.5.6-.3 1.1-.6 1.6-.9 1.2-.7 2.5-1.3 3.7-2 .4-.2.9-.5 1.4-.7.9-.5 1.7-.9 2.6-1.4l2.7-1.5c.6-.3 1.1-.6 1.7-.9.4-.2.7-.4 1-.6.1 0 .2-.1.3-.2.3-.2.6-.3.9-.5.5-.3 1-.6 1.5-.8 1.2-.7 2.4-1.4 3.5-2.1l.6-.3c.2-.1.3-.2.5-.3l.9-.6c5.1-3.1 10.3-6.4 15.4-10.1h.1c.3-.2.5-.4.8-.6 5.7-4.1 11.4-8.8 16.9-14 1.1-1 2.2-2.1 3.2-3.2 3-3 5.9-6.3 8.7-9.7l.1-.1c2.3-2.8 4.5-5.7 6.6-8.8 1.1-1.6 2.2-3.2 3.3-4.9 4.9-7.7 19.4-30.7 21.5-52.1.4-3.9.4-7.6-.2-11.3-.3-2.2-.8-4.3-1.5-6.4v-.2c-.8-2.2-1.9-4.3-3.2-6.3-.1-.1-.1-.2-.2-.3-11.2-16.4-36.6-17.3-58-17.5-1.1.1-2.2 0-3.4 0-4 0-8 .1-11.9.4-10.1.7-19.4 2.2-28 4.2-.1 0-.2 0-.3.1h-.1c-4 1-7.9 2.1-11.6 3.2h-.1c-1.4.4-2.8.8-4.1 1.3-2 .7-4 1.4-5.8 2.1-3.4 1.3-6.5 2.5-9.4 3.8-4 1.8-7.6 3.5-10.9 5.2-.6.3-1.1.6-1.6.9s-1 .5-1.5.8c-.2.1-.2.1-.3.2-.8.4-1.5.9-2.3 1.3-.8.4-1.5.9-2.3 1.3-.7.5-1.5.9-2.3 1.3-.4.2-.8.4-1.1.7l-1.1.6c-.9.5-1.7 1-2.5 1.5s-1.7 1-2.5 1.5c-.3.2-.5.3-.7.4-.6.4-1.1.7-1.8 1-.5.3-1 .6-1.4.9-.3.2-.6.4-.9.5-.3.2-.6.3-.9.5l-.9.6c-.3.2-.6.3-.9.6-.3.2-.6.3-.9.6-.3.2-.6.4-.9.5-1.3.8-2.6 1.6-3.8 2.4-1.3.7-2.6 1.5-3.8 2.3-.8.5-1.5.9-2.3 1.4-.4.3-.8.5-1.3.8-.2.1-.4.3-.6.4s-.4.2-.7.4c-1.8 1.2-3.6 2.2-5.3 3.4-.6.4-1.2.7-1.8 1.1-.2.1-.3.2-.5.3-.1.1-.3.2-.4.3-.1.1-.3.2-.4.2-.8.5-1.7 1.1-2.5 1.6l-2.4 1.5h-.1c0 .1-.1.1-.1.1l-.2.1c-.1.1-.3.2-.4.2l-1.8 1.2c-.1.1-.3.2-.4.3-.2.1-.3.2-.5.3-.2.1-.3.2-.5.3-.3.2-.5.3-.7.4-.3.2-.4.3-.7.4-.4.3-.9.6-1.3.9-.4.3-.8.5-1.2.8-.2.1-.4.3-.6.4-.2.1-.4.2-.6.4v.1c-.4.3-.9.6-1.3.8-.9.6-1.7 1.1-2.5 1.7-.4.3-.8.5-1.2.8s-.8.5-1.2.8c-.4.2-.6.4-.9.6l-.9.6c-.1 0-.1.1-.1.1-.8.6-1.6 1.1-2.5 1.6-.7.5-1.4.9-2.1 1.4-.7.4-1.4.8-2 1.3-.1.1-.2.1-.3.2-.7.4-1.4.9-2 1.3-1.5.9-2.9 1.8-4.4 2.7-.7.4-1.5.9-2.2 1.3-1.5.8-3 1.7-4.5 2.6-1 .6-2.1 1.2-3.2 1.8-.6.4-1.2.7-1.9 1.1-.8.5-1.6.9-2.4 1.3-.1 0-.2.1-.3.2-.6.3-1.2.7-1.8 1l-3.3 1.8c-.6.3-1.1.6-1.7.9-.3.1-.6.3-.8.5-.3.1-.6.3-.9.4l-3.3 1.8c-1.1.6-2.3 1.2-3.4 1.8 0 0-.1 0-.1.1l-.1.1-.1.1c-.1 0-.3.1-.4.2-.1 0-.2.1-.2.1-.1 0-.1 0-.2.1-1.3.6-2.5 1.3-3.7 2-1.1.6-2.3 1.2-3.4 1.9-.3.2-.5.3-.8.4-.6.3-1.1.6-1.6.9-.5.2-.9.5-1.4.7s-.9.5-1.4.8c-.2.1-.4.2-.5.3-.9.5-1.9 1-2.8 1.5-.3.2-.6.3-.8.5h-.1l-2.1 1.2-3 1.8c-1.8 1-3.6 2.1-5.4 3.2l-.9.6c-1.7 1-3.4 2.1-5 3.2-.1.1-.3.2-.4.2-.4.3-.8.5-1.2.8-.2.1-.4.3-.6.4-.2.1-.4.3-.6.4 0 0-.1 0-.1.1 0 0-.1 0-.1.1-.1 0-.2.1-.2.1-.1 0-.2.1-.2.1-.1.1-.3.2-.4.3-.1.1-.3.2-.4.2-.3.2-.5.4-.8.5-.1.1-.2.2-.3.2h-.1c0 .1-.1.1-.1.1-.1.1-.2.1-.2.2-.3.2-.5.3-.8.5s-.5.3-.8.5l-.3.2-.1.1h-.1s0 .1-.1.1c-.9.7-1.8 1.3-2.7 2-.1.1-.2.2-.3.2-.7.5-1.5 1.2-2.3 1.8-.3.2-.6.5-.9.7-.3.2-.6.4-.9.7l-.9.7-.8.7-.2.2c-1 .8-1.9 1.6-2.9 2.4-.4.4-.8.7-1.1 1-.9.7-3.1 2.8-5.9 5z" class="st6"/><path d="M1090.3 1444.2c0-16.2 17-29.1 35.7-38.6 2-1.1 4.1-2.1 6.2-3 .6-.3 1.2-.6 1.8-.8 10.2-4.7 20.2-8.4 27.7-11.1 2.3-.8 4.5-1.6 6.7-2.3 2-.6 3.8-1.2 5.6-1.7 5.4-1.5 10-2.5 13.9-3 7.6-1 12.8-.3 16.9.6 5.5 1.2 13.5 3.7 20.6 8.6 5.5 3.8 10.6 9 13.5 16.2 4.3 10.3 2.5 20.4-.5 28.9-.2.4-.3.9-.5 1.3-1.3 3.5-2.8 6.6-4.1 9.4 0 .1-.1.2-.1.2-9.8 21-25.7 31.9-39.8 41.5-1.2.8-2.4 1.7-3.7 2.5-9 6.1-17.7 11.9-26.1 16.3-4.2 2.2-8.3 4-12.3 5.3-2.3.7-4.5 1.3-6.5 1.7-6.4 1.1-12 .4-16.8-2.1-5.3-2.7-6.9-6.2-11.3-15.4-3-6.4-7.6-16.1-15.9-31.1-2.8-5-4.8-8.6-6.4-11.3-3.7-6.8-4.6-8.4-4.6-12.1zm10.1 9c1.5 2.7 3.6 6.3 6.4 11.4 8.4 15.2 13 25 16 31.5 4.3 9.1 5.2 10.9 8.6 12.6 4.9 2.5 11 2.5 18.7 0 3.5-1.1 7-2.7 10.7-4.6 6.5-3.3 13.3-7.6 20.4-12.4 3.1-2 6.2-4.1 9.4-6.3 4.9-3.4 10.1-6.9 15.2-11.1h.1c7.4-6 14.4-13.2 19.8-22.9.9-1.6 1.8-3.3 2.6-5 .6-1.4 1.4-2.9 2.1-4.6.2-.5.4-.9.6-1.4 3.5-8.3 6.6-18.8 2.3-29.1-.8-1.9-1.8-3.6-2.9-5.2v-.1c-7-10-19.5-14.2-26.9-15.9-1.2-.3-2.5-.5-4-.7-3.2-.4-7.1-.4-12.3.4-4.5.7-10.1 2-16.9 4.2-2.1.7-4.2 1.4-6.4 2.2-7.1 2.6-17.4 6.4-27.9 11.2-.6.3-1.2.6-1.8.8-2.1 1-4.1 2-6.2 3-16.7 8.6-31.6 19.8-31.6 32.7 0 2.3.2 2.8 4 9.3z" class="st4"/><path d="M1150.9 1514.3c-.3.7-.9 1.3-1.6 1.7l-79.6 40.6-14.7 16.7-86 97.5-31.6 64.7c-.1.2-.3.5-.4.7l-25.3 30.1-109.2 130-58.5 116.8-18.3 36.6-5 50.2h-6.9l5.2-51.5c0-.4.2-.8.3-1.2l18.5-37.1 58.7-117.3c.1-.2.3-.5.4-.7l125.5-149.5 9-10.7 23.4-47.8 8.2-16.9c.1-.3.3-.5.5-.8l50-56.7.1-.1 2.2-2.5 26.2-29.6 23-26.1c.3-.3.6-.6 1-.8l80.2-40.9c1.7-.8 3.7-.2 4.6 1.5.4 1.2.4 2.2.1 3.1zm75.9-119.4c0 1.1-.6 2.2-1.5 2.8-1.6 1-3.7.6-4.7-1-3.5-5.3-7.6-10-12.4-14-2-1.6-4-3.1-6-4.4-14.9-9.6-31-10.9-40-10.7-27.5 1.6-54.2 8-79.3 19-27.8 12.1-53.4 30-74.6 52-1.8 1.9-3.6 3.7-5.3 5.7-1 1.1-2 2.1-2.9 3.2-.5.5-1.1.9-1.8 1.1-1.4.3-2.9.7-4.3 1.1h-.1c-2 .5-4 1-6 1.6-18.1 4.9-35.6 11.6-52.5 19.8-20.8 10.2-40.5 22.8-58.4 37.6-.9.7-2 1-3.1.6-27.6-7.8-53.6-21.8-75.1-40.4-18.4-15.9-33.6-35-45.1-56.6-.4-.7-.5-1.6-.3-2.5 9.7-37 10.8-73.5 3.4-108.6-1.7-8.3-4-16.6-6.7-24.6-.2-.7-.2-1.5 0-2.1l31.6-97.1-.1-9.6-4.1-265.8-.2-16.1c-38.5 27.9-72.4 60-100.7 95.5-59.2 73.9-92.3 158.3-92.6 159.2-1.6 4-3.2 8.4-5 13.1-10.2 27.2-24.2 64.6-46.5 96.6-.7 1-1.9 2.7-3.6 5.1-4.7 6.7-13.2 18.7-24.8 35.4-11.5 16.5-20.9 30.1-27.1 39.1-30.6 67.4-53.4 136.9-67.8 206.4-2.8 13.4-11.2 54.2-24.2 208.5-5.4 64.2-10 128.8-13.6 192.1 0 .2 0 .4-.1.5l-16.6 77-7.4 85.5h-6.8l7.4-86.3v-.4l16.6-77c3.6-63.3 8.2-127.9 13.6-192.1 13-154.7 21.5-195.8 24.3-209.3 14.5-70.1 37.5-140.1 68.3-208.1.1-.2.2-.4.3-.5 6.2-9 15.6-22.7 27.3-39.4 11.6-16.7 20.1-28.7 24.8-35.4 1.7-2.4 2.9-4.1 3.6-5.1 21.8-31.3 35.6-68.2 45.7-95.1 1.8-4.7 3.4-9.1 5-13.2.3-.9 33.7-86.2 93.6-161 30.1-37.6 66.2-71.4 107.4-100.5 1-.7 2.4-.8 3.5-.3 1.1.6 1.8 1.7 1.9 3l.2 15.9 3.6 234.7.7 47.9c0 .4 0 .7-.2 1.1l-31.4 96.6c2.6 7.9 4.8 16.1 6.6 24.3 7.5 35.7 6.5 72.8-3.1 110.4 11 20.4 25.4 38.4 42.9 53.5 20.3 17.6 44.8 30.9 70.8 38.5 17.9-14.6 37.6-27.2 58.3-37.3 20.1-9.9 41.4-17.5 63.2-22.7 23.3-26.5 52.5-47.9 84.5-61.9 25.9-11.3 53.4-17.9 81.8-19.6 11.2-.2 32.6 1.6 50.6 16.7 5.3 4.4 9.9 9.6 13.7 15.5.6.8.8 1.5.8 2.1z" class="st4"/></svg>