<?xml version="1.0" encoding="utf-8"?>
<!-- Generator: Adobe Illustrator 23.0.1, SVG Export Plug-In . SVG Version: 6.00 Build 0)  -->
<svg version="1.1" id="Layer_1" xmlns="http://www.w3.org/2000/svg" xmlns:xlink="http://www.w3.org/1999/xlink" x="0px" y="0px"
	 viewBox="0 0 341.1 71" style="enable-background:new 0 0 341.1 71;" xml:space="preserve">
<style type="text/css">
	.st0{fill:#261B3D;}
	.st1{fill:#6631DB;}
	.st2{clip-path:url(#SVGID_5_);}
	.st3{clip-path:url(#SVGID_6_);fill:url(#SVGID_7_);}
	.st4{clip-path:url(#SVGID_12_);}
	.st5{clip-path:url(#SVGID_13_);fill:url(#SVGID_14_);}
	.st6{fill:#8E75EA;}
</style>
<g>
	<g>
		<path class="st0" d="M83.4,46.3H99l0.1-6.6H85.7c-2.9,0-4.6-1.2-5.1-3.6c0-0.6,0-1.3,0-1.9c0-0.7,0-1.4,0-1.9l0,0V22.1
			c0.3-1.5,0.9-2.6,1.8-3.2c0.8-0.7,2-1,3.4-1h23.6c-0.6,1.7-1.1,3.2-1.6,4.4c-0.4,1.3-0.8,2.4-1.2,3.4l0,0h-5.8v0.1H91v6.4
			l13.3-0.1c1.4,0,2.5,0.3,3.4,1c0.8,0.7,1.4,1.8,1.8,3.2c0,0.1,0,0.2,0,0.3s0,0.2,0,0.3h0.1v13.5c-0.6,2.4-2.3,3.6-5.1,3.6h-7.7
			v0.1l-16.3,0.2L83.4,46.3z"/>
		<path class="st0" d="M111.2,54.1V18h9.8v14.3l8.9,0.1V17.9h9.9V18h0.1l-0.1,0.2v20h-0.1v8.1h0.1l-0.1,0.3v7.5h-9.8V39.8H121v14.3
			H111.2z"/>
		<path class="st0" d="M170.1,54.1h-28.7V18h9.8l0.1,28.5h8.8V18.1h0.2V18h9.8L170.1,54.1z"/>
		<path class="st0" d="M181.7,54.2h-9.9V36.7l-0.1-0.1l0.1-0.1V18l23.6-0.1c1.4,0,2.5,0.3,3.4,1s1.4,1.8,1.8,3.2c0,2.4,0,4.4,0,5.9
			c0,1.4,0,2.6,0,3.4c0,0.8,0,1.4,0,1.8c0,0.3,0,0.7,0,0.9c-0.3,1.3-0.8,2.3-1.4,2.9c-0.7,0.7-1.4,1.1-2.5,1.3v0.2H193l7.5,15.8
			h-10.1L183,38.5v-6.2h7.2v-6.8h-8.9L181.7,54.2z"/>
		<path class="st0" d="M212,54.1h-9.7V18h9.8L212,54.1z"/>
		<path class="st0" d="M229,36.5l15,17.7h-11.5l-9-9.8v0.1v9.7h-9.7V42.6l-0.1-0.1l0.1-0.1V18h9.8l-0.1,10.3l7.1-10.4h11.7l-0.3,0.3
			h0.2L229,36.5z"/>
		<path class="st0" d="M245.6,18h28.7l-2.9,7.8h-16v6.6h16V40h-16v6.3l18.8-0.1l-2.8,7.9h-25.9L245.6,18L245.6,18z"/>
		<path class="st0" d="M304.4,54.1h-9.8v-0.2h-0.2V25.6h-8.8l-0.1,28.5h-9.8V18h28.7L304.4,54.1z"/>
	</g>
	<g>
		<path class="st1" d="M329.5,34.2h-6.4v-8.1h2.2v6.4h1.9v-6.3l0,0l0,0h2.2L329.5,34.2z"/>
		<path class="st1" d="M333.2,34.2H331v-8.1h2.2V34.2z"/>
	</g>
	<g>
		<path class="st1" d="M334.1,43.4h-11.8c-3.9,0-7-3.1-7-7V24.5c0-3.9,3.1-7,7-7h11.8c3.9,0,7,3.1,7,7v11.8
			C341.1,40.2,338,43.4,334.1,43.4z M322.2,18.4c-3.4,0-6.2,2.8-6.2,6.2v11.8c0,3.4,2.8,6.2,6.2,6.2H334c3.4,0,6.2-2.8,6.2-6.2V24.5
			c0-3.4-2.8-6.2-6.2-6.2C334.1,18.4,322.2,18.4,322.2,18.4z"/>
	</g>
</g>
<g>
	<path class="st1" d="M65.3,29.2C57.9,16.3,43.6,9,28.8,10.5C32.4,5,36.5,1.4,40.3,0.4c-4,0.8-7.9,2.3-11.5,4.3
		C15.9,12.2,8.6,26.5,10.1,41.3C4.6,37.7,1,33.6,0,29.8c0.8,4,2.3,7.9,4.3,11.5C11.7,54.2,26,61.5,40.8,60
		c-3.6,5.5-7.7,9.1-11.5,10.1c4-0.8,7.9-2.3,11.5-4.3C53.7,58.3,61,44,59.5,29.2c5.5,3.6,9.1,7.7,10.1,11.5l0,0
		C68.8,36.7,67.4,32.8,65.3,29.2z M40.4,44.9C35,48,28.2,46.2,25.1,40.8c-3.1-5.3-1.3-12.2,4.1-15.3l0,0c5.3-3.1,12.2-1.3,15.3,4.1
		C47.5,35,45.7,41.8,40.4,44.9z"/>
	<g>
		<g>
			<g>
				<defs>
					<polygon id="SVGID_1_" points="1,1 2,1 1,2 					"/>
				</defs>
				<clipPath id="SVGID_2_">
					<use xlink:href="#SVGID_1_"  style="overflow:visible;"/>
				</clipPath>
			</g>
			<g>
				<defs>
					<polygon id="SVGID_3_" points="1,1 2,1 1,2 					"/>
				</defs>
				<defs>
					<polygon id="SVGID_4_" points="-1,-1 -2,-1 -1,-2 					"/>
				</defs>
				<clipPath id="SVGID_5_">
					<use xlink:href="#SVGID_3_"  style="overflow:visible;"/>
				</clipPath>
				<clipPath id="SVGID_6_" class="st2">
					<use xlink:href="#SVGID_4_"  style="overflow:visible;"/>
				</clipPath>
				
					<linearGradient id="SVGID_7_" gradientUnits="userSpaceOnUse" x1="30.5965" y1="-573.775" x2="28.8346" y2="-332.6181" gradientTransform="matrix(1 0 0 -1 0 -327.0465)">
					<stop  offset="0" style="stop-color:#FFFFFF"/>
					<stop  offset="1" style="stop-color:#000000"/>
				</linearGradient>
				<rect x="-0.1" y="13.7" class="st3" width="58.4" height="56.4"/>
			</g>
		</g>
	</g>
	<path class="st1" d="M29.3,70c3.8-1,7.8-4.6,11.4-10.1c-14.7,1.5-29-5.8-36.4-18.6C2.2,37.7,0.8,33.9,0,29.8
		c1,3.8,4.6,7.8,10.1,11.4c-1-10,2-19.8,8.1-27.4c-7.2,9.7-6.4,23.5,2.4,32.3c9.7,9.7,25.4,9.7,35.1,0c0.9-0.9,1.7-1.9,2.5-2.9
		c-2.6,9.3-8.7,17.3-17.4,22.3C37.2,67.7,33.4,69.2,29.3,70L29.3,70z"/>
	<g>
		<g>
			<g>
				<defs>
					<polygon id="SVGID_8_" points="1,1 2,1 1,2 					"/>
				</defs>
				<clipPath id="SVGID_9_">
					<use xlink:href="#SVGID_8_"  style="overflow:visible;"/>
				</clipPath>
			</g>
			<g>
				<defs>
					<polygon id="SVGID_10_" points="1,1 2,1 1,2 					"/>
				</defs>
				<defs>
					<polygon id="SVGID_11_" points="-1,-1 -2,-1 -1,-2 					"/>
				</defs>
				<clipPath id="SVGID_12_">
					<use xlink:href="#SVGID_10_"  style="overflow:visible;"/>
				</clipPath>
				<clipPath id="SVGID_13_" class="st4">
					<use xlink:href="#SVGID_11_"  style="overflow:visible;"/>
				</clipPath>
				
					<linearGradient id="SVGID_14_" gradientUnits="userSpaceOnUse" x1="39.0046" y1="-150.8204" x2="40.7652" y2="-391.9772" gradientTransform="matrix(1 0 0 -1 0 -327.0465)">
					<stop  offset="0" style="stop-color:#FFFFFF"/>
					<stop  offset="1" style="stop-color:#000000"/>
				</linearGradient>
				<rect x="11.3" y="0.4" class="st5" width="58.4" height="56.4"/>
			</g>
		</g>
	</g>
	<path class="st6" d="M40.2,0.5c-3.8,1-7.8,4.6-11.4,10.1c14.7-1.5,29,5.8,36.4,18.6c2.1,3.6,3.5,7.4,4.3,11.5
		c-1-3.8-4.6-7.8-10.1-11.4c1,10-2,19.8-8.1,27.4c7.2-9.7,6.4-23.5-2.4-32.3c-9.7-9.7-25.4-9.7-35.1,0c-0.9,0.9-1.7,1.9-2.5,2.9
		C14,17.9,20.1,9.8,28.8,4.9C32.3,2.8,36.2,1.3,40.2,0.5z"/>
</g>
</svg>
