<?xml version="1.0" encoding="UTF-8"?><svg id="Layer_1" xmlns="http://www.w3.org/2000/svg" xmlns:xlink="http://www.w3.org/1999/xlink" viewBox="0 0 169.81 169.81"><defs><clipPath id="clippath"><path d="m114.62,11.89l-12.29-7.1c-11.08-6.4-23.76-6.4-34.84,0l-21.62,12.48-21.62,12.48c-11.08,6.4-17.42,17.38-17.42,30.17v49.93c0,12.79,6.34,23.78,17.42,30.17l21.62,12.48,21.62,12.49c11.08,6.4,23.76,6.4,34.84,0l21.62-12.49,9.33-5.39,12.29-7.1c11.08-6.4,17.42-17.38,17.42-30.17v-49.93c0-12.79-6.34-23.78-17.42-30.17l-21.62-12.48-9.33-5.39Zm-29.71,52.38c11.39,0,20.63,9.24,20.63,20.63s-9.24,20.63-20.63,20.63-20.63-9.24-20.63-20.63,9.24-20.63,20.63-20.63Zm-48.37,48.56l-29.71-17.15,29.71-.36v-10.79c.13-17.42,9.47-32.65,23.39-41.06l24.98-14.42,29.71-17.15-14.54,25.91,9.82,5.67c14.02,8.47,23.39,23.86,23.39,41.43v62.24s-15.17-25.55-15.17-25.55l-9.87,5.7c-6.92,3.82-14.87,5.99-23.33,5.99s-16.4-2.17-23.31-5.98l-25.06-14.47Z" clip-rule="evenodd" fill="none" stroke-width="0"/></clipPath><linearGradient id="linear-gradient" x1="35.08" y1="141.79" x2="141.1" y2="20.76" gradientUnits="userSpaceOnUse"><stop offset="0" stop-color="#5b21b6"/><stop offset="1" stop-color="#8fa0ed"/></linearGradient></defs><g clip-path="url(#clippath)"><rect x="6.82" y="-1.6" width="156.17" height="173.01" fill="url(#linear-gradient)" stroke-width="0"/></g></svg>