<?xml version="1.0" encoding="utf-8"?>
<!-- Generator: Adobe Illustrator 23.0.1, SVG Export Plug-In . SVG Version: 6.00 Build 0)  -->
<svg version="1.1" id="Layer_1" xmlns="http://www.w3.org/2000/svg" xmlns:xlink="http://www.w3.org/1999/xlink" x="0px" y="0px"
	 viewBox="0 0 102.8 21" style="enable-background:new 0 0 102.8 21;" xml:space="preserve">
<style type="text/css">
	.st0{fill-rule:evenodd;clip-rule:evenodd;fill:#269CDD;}
	.st1{fill-rule:evenodd;clip-rule:evenodd;fill:#FFFFFF;}
</style>
<g>
	<path class="st0" d="M8.7,7c1.2-4.7,4.1-7,8.7-7c7,0,7.9,5.2,11.4,6.1c2.3,0.6,4.4-0.3,6.1-2.6c-1.2,4.7-4.1,7-8.7,7
		c-7,0-7.9-5.2-11.4-6.1C12.5,3.8,10.5,4.7,8.7,7L8.7,7z M0,17.5c1.2-4.7,4.1-7,8.7-7c7,0,7.9,5.2,11.4,6.1c2.3,0.6,4.4-0.3,6.1-2.6
		c-1.2,4.7-4.1,7-8.7,7c-7,0-7.9-5.2-11.4-6.1C3.8,14.3,1.7,15.1,0,17.5z"/>
	<path class="st1" d="M41.3,8.1H39V6.7h6.2v1.4h-2.3v6.2h-1.6V8.1z M48.2,13.6c-0.2,0.2-0.5,0.4-0.7,0.6c-0.3,0.2-0.6,0.2-1.1,0.2
		c-0.2,0-0.5,0-0.7-0.1c-0.2-0.1-0.4-0.2-0.6-0.3s-0.3-0.3-0.4-0.5s-0.2-0.5-0.2-0.8c0-0.4,0.1-0.7,0.3-0.9c0.2-0.2,0.4-0.4,0.7-0.6
		c0.3-0.1,0.6-0.2,0.9-0.3c0.3-0.1,0.7-0.1,1-0.1l0.7,0v-0.3c0-0.3-0.1-0.6-0.3-0.7s-0.4-0.2-0.7-0.2c-0.6,0-0.9,0.2-1,0.7l-1.4-0.1
		c0.1-0.6,0.4-1,0.8-1.3s1-0.4,1.7-0.4c0.4,0,0.8,0,1.1,0.2s0.5,0.3,0.7,0.4c0.2,0.2,0.3,0.4,0.4,0.7c0.1,0.3,0.1,0.6,0.1,0.9v3.5
		h-1.4V13.6L48.2,13.6z M48.1,11.8l-0.7,0c-0.3,0-0.6,0-0.8,0.1s-0.3,0.1-0.4,0.2s-0.2,0.2-0.2,0.3S46,12.6,46,12.7
		c0,0.2,0.1,0.3,0.2,0.4s0.3,0.2,0.5,0.2c0.4,0,0.7-0.1,0.9-0.3c0.1-0.1,0.2-0.2,0.3-0.4s0.1-0.3,0.1-0.6L48.1,11.8L48.1,11.8z
		 M50.8,8.7h1.5v5.5h-1.5V8.7z M50.8,6.7h1.5V8h-1.5V6.7z M53.6,6.7H55v7.6h-1.5V6.7z M55.7,8.7h1.6l0.8,3.7l1.1-3.6h1.3l1,3.6
		l0.8-3.7h1.6l-1.6,5.5h-1.4l-1-3.7l-1,3.7h-1.4L55.7,8.7L55.7,8.7z M64.5,8.7H66v5.5h-1.5V8.7z M64.4,6.7H66V8h-1.5V6.7z M67.2,8.7
		h1.4v0.8c0.2-0.3,0.5-0.6,0.8-0.7s0.6-0.2,0.9-0.2c0.6,0,1.1,0.2,1.4,0.5s0.5,0.8,0.5,1.6v3.7h-1.5v-3.5c0-0.4-0.1-0.7-0.2-0.8
		s-0.3-0.2-0.6-0.2c-0.2,0-0.4,0-0.5,0.1s-0.3,0.1-0.4,0.2c-0.1,0.1-0.2,0.2-0.3,0.4c-0.1,0.1-0.1,0.3-0.1,0.5v3.3h-1.5L67.2,8.7
		L67.2,8.7z M77.3,13.5c-0.4,0.6-1,0.9-1.7,0.9c-0.8,0-1.4-0.3-1.7-0.8s-0.6-1.3-0.6-2.2c0-0.4,0.1-0.8,0.2-1.2
		c0.1-0.4,0.3-0.7,0.5-0.9c0.2-0.3,0.5-0.5,0.8-0.6c0.3-0.1,0.6-0.2,1-0.2c0.3,0,0.6,0,0.8,0.1S77,9,77.3,9.3V6.7h1.5v7.6h-1.4
		L77.3,13.5L77.3,13.5z M77.3,11.4c0-0.4,0-0.6-0.1-0.9s-0.2-0.4-0.3-0.5c-0.1-0.1-0.3-0.2-0.4-0.3c-0.1,0-0.3-0.1-0.5-0.1
		c-0.2,0-0.3,0-0.5,0.1c-0.1,0.1-0.3,0.2-0.4,0.3s-0.2,0.3-0.3,0.5s-0.1,0.5-0.1,0.8c0,0.3,0,0.6,0.1,0.8c0.1,0.2,0.1,0.4,0.3,0.5
		s0.2,0.2,0.4,0.3s0.3,0.1,0.5,0.1c0.4,0,0.6-0.1,0.9-0.3c0.1-0.1,0.3-0.3,0.3-0.5c0.1-0.2,0.1-0.5,0.1-0.8L77.3,11.4L77.3,11.4z
		 M88.9,11.7c0,0.4-0.1,0.8-0.3,1.1c-0.1,0.3-0.4,0.6-0.6,0.9c-0.3,0.3-0.6,0.5-1,0.6c-0.4,0.1-0.8,0.2-1.3,0.2
		c-0.6,0-1.1-0.1-1.5-0.3c-0.4-0.2-0.8-0.5-1.1-0.8c-0.3-0.3-0.5-0.8-0.7-1.3s-0.2-1-0.2-1.6c0-0.6,0.1-1.2,0.2-1.7s0.4-0.9,0.7-1.3
		s0.7-0.6,1.1-0.8s0.9-0.3,1.5-0.3c0.5,0,0.9,0.1,1.3,0.2s0.7,0.3,0.9,0.5s0.4,0.5,0.6,0.8c0.2,0.3,0.3,0.7,0.3,1.1l-1.6,0.2
		c-0.1-0.4-0.2-0.8-0.4-1.1s-0.6-0.4-1.1-0.4c-0.6,0-1.1,0.2-1.4,0.7s-0.5,1.1-0.5,1.9c0,0.8,0.2,1.5,0.5,1.9
		c0.3,0.4,0.8,0.7,1.4,0.7c0.5,0,0.8-0.1,1.1-0.4s0.4-0.6,0.4-1.1L88.9,11.7z M91.2,11.8c0,0.5,0.2,0.8,0.4,1s0.7,0.3,1.2,0.3
		c0.2,0,0.5,0,0.6-0.1s0.3-0.1,0.4-0.2c0.1-0.1,0.2-0.2,0.2-0.3c0-0.1,0.1-0.3,0.1-0.4c0-0.2-0.1-0.4-0.2-0.6s-0.4-0.3-0.8-0.4
		l-1-0.2c-0.4-0.1-0.7-0.2-1-0.3s-0.5-0.3-0.8-0.4S90,9.9,89.9,9.6s-0.2-0.6-0.2-0.9c0-0.3,0.1-0.7,0.2-1c0.1-0.3,0.4-0.5,0.6-0.7
		c0.3-0.2,0.6-0.3,0.9-0.4s0.8-0.1,1.2-0.1c0.6,0,1,0.1,1.4,0.2S94.8,7,95,7.2s0.4,0.5,0.5,0.7s0.2,0.6,0.2,0.9L94.2,9
		c-0.1-0.4-0.2-0.7-0.4-0.9s-0.6-0.3-1-0.3c-0.3,0-0.5,0-0.7,0.1S91.8,8,91.7,8c-0.1,0.1-0.2,0.2-0.2,0.3c0,0.1-0.1,0.2-0.1,0.3
		c0,0.3,0.1,0.5,0.2,0.6s0.4,0.3,0.8,0.3l1,0.2c0.8,0.2,1.4,0.4,1.8,0.8s0.6,0.9,0.6,1.6c0,0.3-0.1,0.6-0.2,0.9
		c-0.1,0.3-0.3,0.5-0.6,0.7c-0.3,0.2-0.6,0.4-0.9,0.5c-0.4,0.1-0.8,0.2-1.3,0.2c-1,0-1.8-0.2-2.4-0.7s-0.8-1.1-0.9-2L91.2,11.8
		L91.2,11.8z M98.1,11.8c0,0.5,0.2,0.8,0.4,1s0.7,0.3,1.2,0.3c0.3,0,0.5,0,0.6-0.1s0.3-0.1,0.4-0.2c0.1-0.1,0.2-0.2,0.2-0.3
		c0-0.1,0.1-0.3,0.1-0.4c0-0.2-0.1-0.4-0.2-0.6c-0.2-0.2-0.4-0.3-0.8-0.4l-1-0.2c-0.4-0.1-0.7-0.2-1-0.3s-0.5-0.3-0.8-0.4
		s-0.4-0.4-0.5-0.7s-0.2-0.6-0.2-0.9c0-0.3,0.1-0.7,0.2-1c0.1-0.3,0.3-0.5,0.6-0.7s0.6-0.3,0.9-0.4s0.8-0.1,1.2-0.1
		c0.6,0,1,0.1,1.4,0.2s0.7,0.3,0.9,0.5s0.4,0.5,0.5,0.7s0.2,0.6,0.2,0.9L101.1,9c-0.1-0.4-0.2-0.7-0.4-0.9s-0.6-0.3-1-0.3
		c-0.3,0-0.5,0-0.7,0.1S98.7,8,98.6,8c-0.1,0.1-0.2,0.2-0.2,0.3c0,0.1-0.1,0.2-0.1,0.3c0,0.3,0.1,0.5,0.2,0.6s0.4,0.3,0.8,0.3
		l1.1,0.2c0.8,0.2,1.4,0.4,1.8,0.8s0.6,0.9,0.6,1.6c0,0.3-0.1,0.6-0.2,0.9c-0.1,0.3-0.3,0.5-0.6,0.7c-0.2,0.2-0.6,0.4-0.9,0.5
		s-0.8,0.2-1.3,0.2c-1,0-1.8-0.2-2.4-0.7s-0.8-1.1-0.9-2L98.1,11.8z"/>
</g>
</svg>
