<?xml version="1.0" encoding="utf-8"?>
<!-- Generator: Adobe Illustrator 23.0.1, SVG Export Plug-In . SVG Version: 6.00 Build 0)  -->
<svg version="1.1" id="Layer_1" xmlns="http://www.w3.org/2000/svg" xmlns:xlink="http://www.w3.org/1999/xlink" x="0px" y="0px"
	 viewBox="0 0 109.7 27" style="enable-background:new 0 0 109.7 27;" xml:space="preserve">
<style type="text/css">
	.st0{fill:#007ACC;}
</style>
<path class="st0" d="M13.6,2.9H7.9v17.5H5.6V2.9H0V0.9h13.6V2.9z M22.5,6.4L16,22.6c-1.1,2.9-2.8,4.3-4.8,4.3
	c-0.6,0-1.1-0.1-1.5-0.2v-2c0.5,0.2,0.9,0.2,1.3,0.2c1.1,0,2-0.7,2.5-2l1.1-2.6L9.3,6.4h2.5l3.8,10.7c0,0.1,0.1,0.5,0.3,1.1h0.1
	l0.3-1l4-10.8L22.5,6.4z M26.1,18.4L26.1,18.4l-0.1,8.4h-2.2V6.4h2.2v2.5h0.1c1.1-1.9,2.7-2.8,4.8-2.8c1.8,0,3.2,0.6,4.2,1.9
	s1.5,2.9,1.5,5c0,2.3-0.6,4.2-1.7,5.6s-2.7,2.1-4.7,2.1C28.5,20.7,27.1,19.9,26.1,18.4L26.1,18.4z M26.1,12.7v2
	c0,1.2,0.4,2.1,1.1,2.9s1.7,1.2,2.9,1.2c1.4,0,2.4-0.5,3.2-1.6s1.2-2.5,1.2-4.3c0-1.6-0.4-2.8-1.1-3.6S31.6,8,30.4,8
	c-1.3,0-2.3,0.5-3.1,1.4S26.1,11.4,26.1,12.7z M50.2,14h-9.8c0,1.6,0.5,2.8,1.3,3.6s1.9,1.3,3.3,1.3c1.6,0,3-0.5,4.3-1.6v2.1
	c-1.2,0.9-2.8,1.3-4.9,1.3c-2,0-3.5-0.6-4.6-1.9s-1.7-3-1.7-5.3c0-2.2,0.6-3.9,1.8-5.3s2.8-2,4.6-2s3.2,0.6,4.2,1.8s1.5,2.8,1.5,4.9
	L50.2,14L50.2,14z M47.9,12.1c0-1.3-0.3-2.3-0.9-3S45.5,8,44.4,8c-1.1,0-2,0.4-2.7,1.1s-1.2,1.7-1.4,3L47.9,12.1z M52.2,19.6v-2.7
	c0.3,0.3,0.6,0.5,1,0.7s0.8,0.4,1.2,0.5s0.9,0.3,1.3,0.3s0.8,0.1,1.2,0.1c1.3,0,2.3-0.3,2.9-0.8s1-1.3,1-2.3c0-0.5-0.1-1-0.3-1.4
	c-0.2-0.4-0.5-0.8-0.9-1.1c-0.4-0.3-0.8-0.6-1.3-0.9l-1.7-0.9l-1.7-1c-0.5-0.3-1-0.7-1.4-1.2c-0.4-0.4-0.7-0.9-0.9-1.5
	s-0.3-1.2-0.3-1.9c0-0.9,0.2-1.7,0.5-2.3s0.8-1.2,1.4-1.6s1.2-0.7,2-1c0.7-0.2,1.5-0.3,2.3-0.3c1.8,0,3,0.2,3.9,0.7v2.6
	c-1.1-0.8-2.4-1.2-4.1-1.2c-0.5,0-0.9,0.1-1.4,0.2S55.9,3,55.6,3.3s-0.6,0.5-0.9,0.9S54.4,5,54.4,5.6c0,0.5,0.1,0.9,0.3,1.3
	s0.4,0.7,0.8,1s0.7,0.6,1.2,0.9l1.7,0.9l1.8,1.1c0.6,0.4,1.1,0.8,1.5,1.3s0.8,1,1,1.5s0.4,1.2,0.4,1.9c0,1-0.2,1.8-0.5,2.4
	c-0.3,0.6-0.8,1.2-1.4,1.6c-0.6,0.4-1.3,0.7-2,0.9s-1.6,0.3-2.4,0.3c-0.3,0-0.6,0-1-0.1l-1.3-0.2c-0.4-0.1-0.8-0.2-1.2-0.4
	C52.7,19.9,52.4,19.8,52.2,19.6L52.2,19.6z M74.9,19.8c-1.1,0.6-2.3,1-3.8,1c-2,0-3.6-0.6-4.8-1.9c-1.2-1.3-1.8-3-1.8-5
	c0-2.3,0.7-4.1,2-5.5s3.1-2.1,5.3-2.1c1.2,0,2.3,0.2,3.2,0.7v2.3c-1-0.7-2.1-1.1-3.3-1.1c-1.4,0-2.6,0.5-3.5,1.5s-1.4,2.4-1.4,4
	c0,1.6,0.4,2.9,1.3,3.9c0.9,0.9,2,1.4,3.5,1.4c1.2,0,2.4-0.4,3.4-1.2L74.9,19.8L74.9,19.8z M83.5,8.7c-0.4-0.3-1-0.5-1.7-0.5
	c-1,0-1.8,0.5-2.4,1.4s-1,2.1-1,3.7v7.1h-2.2v-14h2.2v2.9h0.1c0.3-1,0.8-1.7,1.5-2.3s1.4-0.8,2.2-0.8c0.6,0,1,0.1,1.3,0.2L83.5,8.7z
	 M86.1,2.9c-0.4,0-0.7-0.1-1-0.4s-0.4-0.6-0.4-1s0.1-0.8,0.4-1s0.6-0.4,1-0.4c0.4,0,0.8,0.1,1,0.4c0.3,0.3,0.4,0.6,0.4,1
	c0,0.4-0.1,0.7-0.4,1C86.8,2.8,86.5,2.9,86.1,2.9L86.1,2.9z M87.2,20.4h-2.2v-14h2.2V20.4z M90.8,18.4L90.8,18.4l-0.1,8.4h-2.2V6.4
	h2.2v2.5h0.1c1.1-1.9,2.7-2.8,4.8-2.8c1.8,0,3.2,0.6,4.2,1.9c1,1.2,1.5,2.9,1.5,5c0,2.3-0.6,4.2-1.7,5.6c-1.1,1.4-2.7,2.1-4.7,2.1
	C93.2,20.7,91.8,19.9,90.8,18.4L90.8,18.4z M90.7,12.8v2c0,1.2,0.4,2.1,1.1,2.9s1.7,1.2,2.9,1.2c1.4,0,2.4-0.5,3.2-1.6
	c0.8-1,1.1-2.5,1.1-4.3c0-1.6-0.4-2.8-1.1-3.6C97.3,8.4,96.3,8,95.1,8c-1.3,0-2.3,0.5-3.1,1.4C91.1,10.3,90.7,11.4,90.7,12.8
	L90.7,12.8z M109.7,20.3c-0.5,0.3-1.2,0.4-2.1,0.4c-2.4,0-3.7-1.4-3.7-4.1V8.3h-2.4V6.4h2.4V3l2.2-0.7v4.1h3.5v1.9h-3.5v7.9
	c0,0.9,0.2,1.6,0.5,2c0.3,0.4,0.8,0.6,1.6,0.6c0.6,0,1.1-0.2,1.5-0.5L109.7,20.3z"/>
</svg>
