<svg id="Layer_1" data-name="Layer 1" xmlns="http://www.w3.org/2000/svg" viewBox="0 0 328.5 204.1"><defs><style>.cls-1{fill:#471b47;}.cls-1,.cls-10,.cls-2,.cls-3,.cls-4,.cls-5,.cls-6,.cls-7,.cls-8,.cls-9{fill-rule:evenodd;}.cls-11,.cls-2{fill:#fff;}.cls-3{fill:#643062;}.cls-4{fill:#0fb283;}.cls-5{fill:#06d6a0;}.cls-6{fill:#95e8d0;}.cls-7{fill:#4e254f;}.cls-8{fill:#ccc0cc;}.cls-9{fill:#d6d0d6;}.cls-10{fill:#2f1130;}</style></defs><path class="cls-1" d="M196.9,189.9a7,7,0,0,1,7,7.1,7.3,7.3,0,0,1-7.3,7.1,7,7,0,0,1-7-7.1A7.37,7.37,0,0,1,196.9,189.9Z"/><path class="cls-2" d="M196.9,193.6a3.37,3.37,0,0,1,3.4,3.4,3.46,3.46,0,0,1-3.5,3.4,3.37,3.37,0,0,1-3.4-3.4A3.46,3.46,0,0,1,196.9,193.6Z"/><path class="cls-1" d="M143.4,189.9a7,7,0,0,1,7,7.1,7.3,7.3,0,0,1-7.3,7.1,7,7,0,0,1-7-7.1A7.37,7.37,0,0,1,143.4,189.9Z"/><path class="cls-2" d="M143.3,193.6a3.37,3.37,0,0,1,3.4,3.4,3.46,3.46,0,0,1-3.5,3.4,3.37,3.37,0,0,1-3.4-3.4A3.52,3.52,0,0,1,143.3,193.6Z"/><path class="cls-1" d="M136.3,192.6h67.6a7.28,7.28,0,0,0,7.2-7.1l.1-5.7a1.32,1.32,0,0,0-1.3-1.3H130.8a1.42,1.42,0,0,0-1.4,1.3l-.1,5.7a7,7,0,0,0,7,7.1Z"/><path class="cls-3" d="M153.5,3.1h41.3a10,10,0,0,1,7.3,3.1,9.87,9.87,0,0,1,2.9,7.4l-1.4,66.3a11,11,0,0,1-3.2,7.4,10.67,10.67,0,0,1-7.5,3.1H151.6a10,10,0,0,1-7.3-3.1,9.87,9.87,0,0,1-2.9-7.4l1.4-66.3A11,11,0,0,1,146,6.2,10.26,10.26,0,0,1,153.5,3.1Zm41.1,3.4H153.3a7.12,7.12,0,0,0-5,2.1,7.46,7.46,0,0,0-2.2,5l-1.4,66.3a7,7,0,0,0,2,5,6.72,6.72,0,0,0,4.9,2.1H193a7.12,7.12,0,0,0,5-2.1,7.46,7.46,0,0,0,2.2-5l1.4-66.3a7,7,0,0,0-2-5,6.94,6.94,0,0,0-5-2.1Z"/><path class="cls-3" d="M144.6,54.1a4.85,4.85,0,0,1,4.9,5.8,7.14,7.14,0,0,1-6.8,5.8,4.85,4.85,0,0,1-4.9-5.8A7.34,7.34,0,0,1,144.6,54.1Zm57.9,0a4.85,4.85,0,0,1,4.9,5.8,7.14,7.14,0,0,1-6.8,5.8,4.85,4.85,0,0,1-4.9-5.8A7.25,7.25,0,0,1,202.5,54.1Z"/><path class="cls-1" d="M161.5,0h25.3a4.72,4.72,0,0,1,4.7,4.8,5,5,0,0,1-4.9,4.8H161.3a4.72,4.72,0,0,1-4.7-4.8A5,5,0,0,1,161.5,0Z"/><path class="cls-3" d="M161.6,0H174a2.33,2.33,0,0,1,2.3,2.3,2.35,2.35,0,0,1-2.4,2.3H161.5a2.33,2.33,0,0,1-2.3-2.3A2.42,2.42,0,0,1,161.6,0Z"/><path class="cls-1" d="M167.1,48.1h12.2a8,8,0,0,1,8,8.1l-.2,8.1H158.7l.2-8.1A8.15,8.15,0,0,1,167.1,48.1Zm2.1,2.9c-2.9,0-6.1,2.5-5.3,5.2l1.4,5.2h15.1l1.8-5.2c1-2.7-2.2-5.2-5.1-5.2Z"/><path class="cls-1" d="M132,60h81.8a9.37,9.37,0,0,1,9.4,9.6L220.9,176a9.84,9.84,0,0,1-9.8,9.6H129.3a9.37,9.37,0,0,1-9.4-9.6l2.2-106.4A10,10,0,0,1,132,60Z"/><path class="cls-3" d="M187.3,61.3h27.2a5.58,5.58,0,0,1,5.6,5.8,6,6,0,0,1-5.9,5.8H187a5.58,5.58,0,0,1-5.6-5.8,6,6,0,0,1,5.9-5.8Z"/><path class="cls-4" d="M143.3,82.8h58.3a6.66,6.66,0,0,1,6.7,6.8l-2,95.9H134.4l2-95.9a6.89,6.89,0,0,1,6.9-6.8Z"/><path class="cls-5" d="M143.3,82.8h58.3a6.66,6.66,0,0,1,6.7,6.8l-1,48.7a40.06,40.06,0,0,1-36.5,24.3,38.06,38.06,0,0,1-35.5-24.3l1-48.7A7,7,0,0,1,143.3,82.8Z"/><path class="cls-6" d="M143.1,81.3,201.4,79a6.68,6.68,0,0,1,7,6.6l.1,4.8a6.75,6.75,0,0,0-7-6.6L143.2,86a7,7,0,0,0-6.7,7.1l-.1-4.8a7,7,0,0,1,6.7-7Z"/><path class="cls-1" d="M202.2,85.9l.6,3.5a3.14,3.14,0,0,1-3.1,3.7h-2a3,3,0,0,1-2.4-1.1,3,3,0,0,1-.6-2.6l.7-3.5a3.2,3.2,0,0,1,3.1-2.6h.7a3,3,0,0,1,3,2.6Z"/><path class="cls-3" d="M200.2,85.2l.4,2.6a2.62,2.62,0,0,1-.5,1.9,2.5,2.5,0,0,1-1.8.8h-1.5a2.14,2.14,0,0,1-2.1-2.7l.5-2.6a2.35,2.35,0,0,1,2.3-1.9h.5A2.17,2.17,0,0,1,200.2,85.2Z"/><path class="cls-2" d="M172.2,93.3a7.47,7.47,0,0,1,7.5,7.7,7.92,7.92,0,0,1-7.8,7.7,7.22,7.22,0,0,1-4.4-1.4,7.38,7.38,0,0,1,4.3-2.8c2.8-.7,5.4-.1,6,1.4a2.92,2.92,0,0,0,.1-1.6c-.6-2.4-4.4-3.4-8.5-2.3a13.83,13.83,0,0,0-4.4,2.1,7.8,7.8,0,0,1,7.2-10.8Z"/><path class="cls-3" d="M171.5,125.6a7.85,7.85,0,0,1,5.7,2.4,8.36,8.36,0,0,1,2.3,5.7l-.1,5.6a2.5,2.5,0,0,1-.8,1.8,2.41,2.41,0,0,1-1.8.7H165.5a2.41,2.41,0,0,1-1.7-.7,2.87,2.87,0,0,1-.7-1.8l.1-5.6a7.93,7.93,0,0,1,2.5-5.7A8.25,8.25,0,0,1,171.5,125.6Zm4.3,3.7a6,6,0,0,0-4.3-1.8,6.28,6.28,0,0,0-4.4,1.8,6.37,6.37,0,0,0-1.9,4.4l-.1,5.6c0,.1.1.3.1.4a.52.52,0,0,0,.4.2h11.3a.76.76,0,0,0,.4-.2.52.52,0,0,0,.2-.4l.1-5.6A6.47,6.47,0,0,0,175.8,129.3Z"/><path class="cls-4" d="M166.3,141.8H176l-.3,13.2h-9.6Z"/><path class="cls-2" d="M167,142.8h8.3a.68.68,0,0,0,.7-.7v-2.3a.68.68,0,0,0-.7-.7H167a.68.68,0,0,0-.7.7v2.3A.68.68,0,0,0,167,142.8Z"/><path class="cls-1" d="M130.4,204.1H30.3a4.44,4.44,0,0,1-4.4-4.4V180a4.44,4.44,0,0,1,4.4-4.4H130.4a4.44,4.44,0,0,1,4.4,4.4v19.7a4.44,4.44,0,0,1-4.4,4.4Z"/><path class="cls-3" d="M25.9,196.3V180a4.44,4.44,0,0,1,4.4-4.4H75.7C75.6,185.4,68.4,199.3,25.9,196.3Z"/><path class="cls-3" d="M25.9,192H134.8v2.2H25.9Z"/><path class="cls-5" d="M25.9,186.4H134.8v2.2H25.9Zm0,4.8H134.8v2.2H25.9Z"/><path class="cls-5" d="M68.4,191.1h3.9v3.3a3.48,3.48,0,0,0,3.5,3.5l9.1.1a3.48,3.48,0,0,0,3.5-3.5v-3.3h3.9v5.2a5.14,5.14,0,0,1-5.2,5.1l-13.5-.1a5.14,5.14,0,0,1-5.1-5.2Zm-28.5-8.3a3.22,3.22,0,0,1,3.2,3.2v4.9a3.2,3.2,0,0,1-6.4,0V186A3.29,3.29,0,0,1,39.9,182.8Zm79.5,0a3.22,3.22,0,0,1,3.2,3.2v4.9a3.2,3.2,0,1,1-6.4,0V186A3.22,3.22,0,0,1,119.4,182.8Z"/><path class="cls-5" d="M40.6,184.3a3.22,3.22,0,0,1,3.2,3.2v4.9a3.2,3.2,0,1,1-6.4,0v-4.9A3.16,3.16,0,0,1,40.6,184.3Zm79.4,0a3.22,3.22,0,0,1,3.2,3.2v4.9a3.2,3.2,0,0,1-6.4,0v-4.9A3.29,3.29,0,0,1,120,184.3Z"/><path class="cls-6" d="M39.7,185.1a1.75,1.75,0,0,1,1.7,1.7V188a1.7,1.7,0,1,1-3.4,0v-1.2A1.69,1.69,0,0,1,39.7,185.1Zm79.6,0a1.75,1.75,0,0,1,1.7,1.7V188a1.7,1.7,0,1,1-3.4,0v-1.2A1.75,1.75,0,0,1,119.3,185.1Z"/><path class="cls-3" d="M145.4,147.1H45.3a4.44,4.44,0,0,0-4.4,4.4v19.7a4.44,4.44,0,0,0,4.4,4.4H145.4a4.44,4.44,0,0,0,4.4-4.4V151.5A4.44,4.44,0,0,0,145.4,147.1Z"/><path class="cls-3" d="M40.9,161.4v9.9a4.44,4.44,0,0,0,4.4,4.4H145.4a4.44,4.44,0,0,0,4.4-4.4v-9.9Z"/><path class="cls-5" d="M40.9,161.4H149.8v2.2H40.9Z"/><path class="cls-5" d="M55.3,165.6a3.14,3.14,0,0,0,3.1-3.2v-4.9a3.22,3.22,0,0,0-3.2-3.2,3.14,3.14,0,0,0-3.1,3.2v4.9A3.22,3.22,0,0,0,55.3,165.6Zm79.5,0a3.14,3.14,0,0,0,3.1-3.2v-4.9a3.22,3.22,0,0,0-3.2-3.2,3.14,3.14,0,0,0-3.1,3.2v4.9A3.16,3.16,0,0,0,134.8,165.6Z"/><path class="cls-1" d="M55.6,167a3.22,3.22,0,0,0,3.2-3.2V159a3.2,3.2,0,1,0-6.4,0v4.9A3.27,3.27,0,0,0,55.6,167Zm79.5,0a3.22,3.22,0,0,0,3.2-3.2V159a3.2,3.2,0,0,0-6.4,0v4.9A3.2,3.2,0,0,0,135.1,167Z"/><path class="cls-3" d="M134,161.1a1.75,1.75,0,0,0,1.7-1.7v-1.2a1.7,1.7,0,0,0-3.4,0v1.2A1.69,1.69,0,0,0,134,161.1Zm-79.3.2a1.75,1.75,0,0,0,1.7-1.7v-1.2a1.7,1.7,0,1,0-3.4,0v1.2A1.75,1.75,0,0,0,54.7,161.3Z"/><path class="cls-1" d="M40.9,160.3H149.8v2.2H40.9Z"/><path class="cls-1" d="M107.3,162l-3.9-.1-.1,3.3a3.61,3.61,0,0,1-3.6,3.4l-9.1-.3a3.61,3.61,0,0,1-3.4-3.6l.1-3.3-3.9-.1-.2,5.2a5.23,5.23,0,0,0,5,5.4l13.5.5a5.23,5.23,0,0,0,5.4-5l.2-5.4Zm124.2-56.4h34.6a7.23,7.23,0,0,1,5.5,2.6,9.45,9.45,0,0,1,2.3,6.2v17.4a9.45,9.45,0,0,1-2.3,6.2,7.39,7.39,0,0,1-5.5,2.6H231.5A7.23,7.23,0,0,1,226,138a9.45,9.45,0,0,1-2.3-6.2V114.4a9.45,9.45,0,0,1,2.3-6.2A7.23,7.23,0,0,1,231.5,105.6Zm34.6,3.3H231.5a4.79,4.79,0,0,0-3.5,1.6,5.82,5.82,0,0,0-1.4,3.9v17.4a6.37,6.37,0,0,0,1.4,3.9,4.63,4.63,0,0,0,3.5,1.6h34.6a4.79,4.79,0,0,0,3.5-1.6,5.82,5.82,0,0,0,1.4-3.9V114.4a6.37,6.37,0,0,0-1.4-3.9A5,5,0,0,0,266.1,108.9Z"/><path class="cls-1" d="M234.6,101.4H263a5.4,5.4,0,0,1,0,10.8H234.6a5.44,5.44,0,0,1-5.4-5.4A5.38,5.38,0,0,1,234.6,101.4Z"/><path class="cls-3" d="M234.7,101.4h13.9a2.6,2.6,0,0,1,0,5.2H234.7a2.65,2.65,0,0,1-2.6-2.6A2.58,2.58,0,0,1,234.7,101.4Z"/><path class="cls-1" d="M319.6,117.7h-7.9a1.11,1.11,0,0,0-1.1,1.1v15.7a1.11,1.11,0,0,0,1.1,1.1h15.7a1.11,1.11,0,0,0,1.1-1.1v-7.9a8.86,8.86,0,0,0-8.9-8.9Zm0,86.4h-7.9a1.11,1.11,0,0,1-1.1-1.1V187.3a1.11,1.11,0,0,1,1.1-1.1h15.7a1.11,1.11,0,0,1,1.1,1.1v7.9a8.79,8.79,0,0,1-8.9,8.9Z"/><path class="cls-7" d="M221.1,119.4h95.8a8.92,8.92,0,0,1,8.9,8.9v65.6a8.92,8.92,0,0,1-8.9,8.9H221.1a8.92,8.92,0,0,1-8.9-8.9V128.3a8.92,8.92,0,0,1,8.9-8.9Z"/><path class="cls-1" d="M304.6,119.4h5a8.92,8.92,0,0,1,8.9,8.9v65.6a8.92,8.92,0,0,1-8.9,8.9h-5a8.92,8.92,0,0,0,8.9-8.9V128.3a8.92,8.92,0,0,0-8.9-8.9Z"/><path class="cls-8" d="M302.9,119.4h5a8.92,8.92,0,0,1,8.9,8.9v65.6a8.92,8.92,0,0,1-8.9,8.9h-5a8.92,8.92,0,0,0,8.9-8.9V128.3a8.92,8.92,0,0,0-8.9-8.9Z"/><path class="cls-9" d="M316.8,140.5v53.4a8.92,8.92,0,0,1-8.9,8.9h-5a8.92,8.92,0,0,0,8.9-8.9V141.1c0,3.8,5,3.3,5-.6Z"/><path class="cls-8" d="M316.8,175.4v18.5a8.92,8.92,0,0,1-8.9,8.9h-5a8.92,8.92,0,0,0,8.9-8.9V175.3C311.8,179.9,316.8,180.1,316.8,175.4Z"/><path class="cls-1" d="M199.5,119.4h92.8a8.92,8.92,0,0,1,8.9,8.9v65.6a8.92,8.92,0,0,1-8.9,8.9H199.5a8.92,8.92,0,0,1-8.9-8.9V128.3a8.92,8.92,0,0,1,8.9-8.9Z"/><path class="cls-10" d="M301.2,167.7v26.2a8.92,8.92,0,0,1-8.9,8.9H199.5a8.92,8.92,0,0,1-8.9-8.9V166.4C200.5,177.3,255.7,191,301.2,167.7Z"/><path class="cls-6" d="M212.6,119.4h11.2v83.4H212.6Zm58.6,0h11.2v83.4H271.2Z"/><path class="cls-3" d="M197.9,117.7h7.9a1.11,1.11,0,0,1,1.1,1.1v15.7a1.11,1.11,0,0,1-1.1,1.1H190a1.11,1.11,0,0,1-1.1-1.1v-7.9A9.07,9.07,0,0,1,197.9,117.7Zm0,86.4h7.9a1.11,1.11,0,0,0,1.1-1.1V187.3a1.11,1.11,0,0,0-1.1-1.1H190a1.11,1.11,0,0,0-1.1,1.1v7.9a9,9,0,0,0,9,8.9Zm97.5-86.4h-7.9a1.11,1.11,0,0,0-1.1,1.1v15.7a1.11,1.11,0,0,0,1.1,1.1h15.7a1.11,1.11,0,0,0,1.1-1.1v-7.9a9,9,0,0,0-8.9-8.9Zm0,86.4h-7.9a1.11,1.11,0,0,1-1.1-1.1V187.3a1.11,1.11,0,0,1,1.1-1.1h15.7a1.11,1.11,0,0,1,1.1,1.1v7.9a8.92,8.92,0,0,1-8.9,8.9Z"/><path class="cls-5" d="M212.3,118.1h8.6a1.32,1.32,0,0,1,1.3,1.3v83.4a1.32,1.32,0,0,1-1.3,1.3h-8.6a1.32,1.32,0,0,1-1.3-1.3V119.4A1.32,1.32,0,0,1,212.3,118.1Z"/><path class="cls-4" d="M222.2,133.9v16.3a5,5,0,0,1-2.7.7h-5.9a6,6,0,0,1-2.7-.7V133.9a5,5,0,0,1,2.7-.7h5.9A6,6,0,0,1,222.2,133.9Zm-2.7,2h-5.9a2.73,2.73,0,0,0-1.9.8,2.56,2.56,0,0,0-.8,1.9v7.2a2.73,2.73,0,0,0,.8,1.9,2.56,2.56,0,0,0,1.9.8h5.9a2.73,2.73,0,0,0,1.9-.8,2.56,2.56,0,0,0,.8-1.9v-7.2a2.73,2.73,0,0,0-.8-1.9A2.56,2.56,0,0,0,219.5,135.9Zm2.7,43.5v24.7H211V180C211,184.7,222.2,185.3,222.2,179.4Z"/><path class="cls-2" d="M216.6,130.2a2.11,2.11,0,0,0,2.1-2.1,2.1,2.1,0,0,0-4.2,0A2.11,2.11,0,0,0,216.6,130.2Zm0,24.9a2.11,2.11,0,0,0,2.1-2.1,2.1,2.1,0,1,0-4.2,0A2.11,2.11,0,0,0,216.6,155.1Z"/><circle class="cls-11" cx="216.6" cy="140.5" r="2.1"/><path class="cls-2" d="M216.6,167.5a2.1,2.1,0,0,0,0-4.2,2.18,2.18,0,0,0-2.1,2.1A2,2,0,0,0,216.6,167.5Z"/><path class="cls-3" d="M213.6,131.8h5.9a4.9,4.9,0,0,1,3.7,1.6,5.23,5.23,0,0,1,1.6,3.7v7.2a4.9,4.9,0,0,1-1.6,3.7,5.23,5.23,0,0,1-3.7,1.6h-5.9a4.9,4.9,0,0,1-3.7-1.6,5.23,5.23,0,0,1-1.6-3.7v-7.2a4.9,4.9,0,0,1,1.6-3.7A5.06,5.06,0,0,1,213.6,131.8Zm5.9,2.6h-5.9a2.73,2.73,0,0,0-1.9.8,2.56,2.56,0,0,0-.8,1.9v7.2a2.73,2.73,0,0,0,.8,1.9,2.56,2.56,0,0,0,1.9.8h5.9a2.73,2.73,0,0,0,1.9-.8,2.56,2.56,0,0,0,.8-1.9v-7.2a2.73,2.73,0,0,0-.8-1.9A2.56,2.56,0,0,0,219.5,134.4Z"/><path class="cls-3" d="M216.6,142a1.58,1.58,0,0,0,1.6-1.6v-6.9a1.6,1.6,0,1,0-3.2,0v6.9A1.58,1.58,0,0,0,216.6,142Z"/><path class="cls-5" d="M270.9,118.1h8.6a1.32,1.32,0,0,1,1.3,1.3v83.4a1.32,1.32,0,0,1-1.3,1.3h-8.6a1.32,1.32,0,0,1-1.3-1.3V119.4A1.32,1.32,0,0,1,270.9,118.1Z"/><path class="cls-2" d="M275.2,130.2a2.11,2.11,0,0,0,2.1-2.1,2.18,2.18,0,0,0-2.1-2.1,2.1,2.1,0,1,0,0,4.2Zm0,24.9a2.11,2.11,0,0,0,2.1-2.1,2.18,2.18,0,0,0-2.1-2.1,2.1,2.1,0,1,0,0,4.2Z"/><circle class="cls-11" cx="275.2" cy="140.5" r="2.1"/><path class="cls-2" d="M275.2,167.5a2.1,2.1,0,1,0-2.1-2.1A2.05,2.05,0,0,0,275.2,167.5Z"/><path class="cls-3" d="M275.2,142a1.58,1.58,0,0,0,1.6-1.6v-6.9a1.6,1.6,0,0,0-3.2,0v6.9A1.72,1.72,0,0,0,275.2,142ZM114.8,59.2c15.6-4.1,28.2,9.7,28.2,31s-12.6,41.8-28.2,45.9l-1.5.3c12-7.4,20.4-24.7,19.4-42.4-1-19-12.2-31.9-25.9-31.1A30.3,30.3,0,0,1,114.8,59.2Z"/><path class="cls-1" d="M114.8,59.2c8.5-2.2,16.1.8,21.2,7.5-2.6,3.4-6,9.4-4.9,17.1-3.7-13.2-13.2-21.6-24.3-20.9A30.3,30.3,0,0,1,114.8,59.2ZM131,124.8c-4.6,5.6-10.2,9.6-16.2,11.2l-1.5.3c6.4-3.9,11.7-10.6,15.2-18.6C128.5,117.8,127,123.8,131,124.8Z"/><path class="cls-3" d="M96.2,49.1C116.8,49.1,132,66,130,86.6l-4.9,50.1a11.92,11.92,0,0,1-11.5,10.5H59.5A9.41,9.41,0,0,1,50,136.7l5-50.2C57,65.9,75.6,49.1,96.2,49.1Z"/><path class="cls-1" d="M127.5,111.6l-2.5,25a11.92,11.92,0,0,1-11.5,10.5h-54A9.41,9.41,0,0,1,50,136.6l2.5-25h56C107.3,124.4,126.4,122.4,127.5,111.6Z"/><path class="cls-1" d="M84.7,64.2a25.55,25.55,0,0,1,25.8,28.6l-3.8,38.3a9,9,0,0,1-8.8,8H56.7a7.1,7.1,0,0,1-7.2-8l3.8-38.3C54.8,77.1,68.9,64.2,84.7,64.2Z"/><path class="cls-3" d="M98.1,37.2a7.93,7.93,0,0,1,8,8.4l-.3,5.7a9,9,0,0,1-8.9,8.4,7.93,7.93,0,0,1-8-8.4l.3-5.7A9.11,9.11,0,0,1,98.1,37.2Zm-.2,5.9a5.42,5.42,0,0,0-5.3,5L92.4,52a4.73,4.73,0,0,0,4.8,5,5.42,5.42,0,0,0,5.3-5l.2-3.9A4.79,4.79,0,0,0,97.9,43.1Z"/><path class="cls-5" d="M79.8,62.8a25.55,25.55,0,0,1,25.8,28.6l-3.8,38.3a9,9,0,0,1-8.8,8H51.8a7.1,7.1,0,0,1-7.2-8l3.8-38.3C49.9,75.6,64,62.8,79.8,62.8Z"/><path class="cls-4" d="M104.4,103.8l-2.6,25.8a9,9,0,0,1-8.8,8H51.8a7.1,7.1,0,0,1-7.2-8l2.2-22.4C45.5,131.7,89.8,131,104.4,103.8Z"/><path class="cls-2" d="M77.1,70.4a4,4,0,0,1,4,4.6,5.37,5.37,0,0,1-5.2,4.6,4,4,0,0,1-4-4.6c0-.2.1-.3.1-.5a2.33,2.33,0,0,0,2.4,1.6,3.32,3.32,0,0,0,3.2-2.9A2.32,2.32,0,0,0,76,70.5,4.1,4.1,0,0,1,77.1,70.4Z"/><path class="cls-6" d="M60.3,71.9c2.5-1.9,5.2-2.3,6.1-.9s-.4,4-2.9,5.8-5.2,2.3-6.1.9S57.8,73.8,60.3,71.9Z"/><path class="cls-2" d="M48.2,92.4h57.1v1.7H48.2Z"/><path class="cls-1" d="M108.6,95l.7,3.5a3.17,3.17,0,0,1-.7,2.6,3,3,0,0,1-2.4,1.1h-2a3,3,0,0,1-2.4-1.1,3.34,3.34,0,0,1-.7-2.6l.7-3.5a3.11,3.11,0,0,1,3.1-2.5h.7A3.09,3.09,0,0,1,108.6,95Z"/><path class="cls-2" d="M106.6,94.3l.5,2.6a2.24,2.24,0,0,1-.5,1.9,2.5,2.5,0,0,1-1.8.8h-1.5a2.5,2.5,0,0,1-1.8-.8,2.16,2.16,0,0,1-.5-1.9l.5-2.6a2.28,2.28,0,0,1,2.3-1.9h.5A2.56,2.56,0,0,1,106.6,94.3Z"/><path class="cls-1" d="M69.1,58a40.78,40.78,0,0,1,21.2-6.2c1.2,0,2.4.1,3.6.2a33.23,33.23,0,0,1,30.4,33.6c0,1.2-.1,2.4-.2,3.7l-1.7-.2c.1-1.2.2-2.3.2-3.5a31.9,31.9,0,0,0-8.2-21.7A31.5,31.5,0,0,0,93.7,53.6c-1.1-.1-2.3-.2-3.5-.2a35.83,35.83,0,0,0-10.4,1.5A37.69,37.69,0,0,0,70,59.3Z"/><path class="cls-1" d="M127.2,91l.7,3.5a3.17,3.17,0,0,1-.7,2.6,3,3,0,0,1-2.4,1.1h-2a3,3,0,0,1-2.4-1.1,3.34,3.34,0,0,1-.7-2.6l.7-3.5a3.11,3.11,0,0,1,3.1-2.5h.7A3.09,3.09,0,0,1,127.2,91Z"/><path class="cls-3" d="M125.2,90.3l.5,2.6a2.24,2.24,0,0,1-.5,1.9,2.5,2.5,0,0,1-1.8.8h-1.5a2.5,2.5,0,0,1-1.8-.8,2.16,2.16,0,0,1-.5-1.9l.5-2.6a2.28,2.28,0,0,1,2.3-1.9h.5A2.46,2.46,0,0,1,125.2,90.3Z"/><path class="cls-5" d="M252.5,52.1a12.29,12.29,0,0,0-12.3,12.3,12.51,12.51,0,0,0,4.1,9.2l6.5,6.5a2.42,2.42,0,0,0,3.5,0l6.5-6.5,1.2-1.2c.1-.1.1-.1.1-.2a12.17,12.17,0,0,0,2.5-5.4A12.48,12.48,0,0,0,252.5,52.1Zm0,17.6a5.8,5.8,0,1,1,5.8-5.8,5.8,5.8,0,0,1-5.8,5.8Zm33.7,31.2a5,5,0,1,0-5-5A5,5,0,0,0,286.2,100.9Zm15.6,3.4a1.7,1.7,0,1,0-1.7-1.7A1.69,1.69,0,0,0,301.8,104.3ZM18.4,145.4a3.3,3.3,0,1,0-3.3-3.3A3.33,3.33,0,0,0,18.4,145.4ZM121,39.5a3.1,3.1,0,1,0-3.1-3.1A3.12,3.12,0,0,0,121,39.5ZM26.3,159.1a1.4,1.4,0,1,0-1.4-1.4A1.5,1.5,0,0,0,26.3,159.1Z"/></svg>