<svg xmlns="http://www.w3.org/2000/svg" viewBox="0 0 500 436.53"><path d="M424.94,218.23a173.08,173.08,0,0,1-15,70.9A175,175,0,0,1,179,378.23h-.08A174.75,174.75,0,0,1,75.06,219.86a79.44,79.44,0,0,1,9.31-2.29c30.68-5.38,61.84,4,91.22,14.28s59.4,21.71,90.48,20.48c41.21-1.55,77.93-24.8,115.87-41a196,196,0,0,1,41.85-12.89A176,176,0,0,1,424.94,218.23Z" fill="#c4abf4"/><path d="M423.79,198.4a196,196,0,0,0-41.85,12.89c-37.94,16.24-74.66,39.49-115.87,41-31.08,1.23-61.11-10.2-90.48-20.48s-60.54-19.66-91.22-14.28a79.44,79.44,0,0,0-9.31,2.29,11.13,11.13,0,0,1-.08-1.63A174.82,174.82,0,0,1,249.92,43.29,174.86,174.86,0,0,1,423.79,198.4Z" fill="#7d38ce" opacity="0.2"/><path d="M425,218.22a173.12,173.12,0,0,1-15,70.91A175,175,0,0,1,179,378.23H179A175,175,0,0,1,75,218.22,175.07,175.07,0,0,1,321,58.3,175,175,0,0,1,425,218.22Z" fill="none" stroke="#6898ff" stroke-miterlimit="10" stroke-width="0.75"/><path d="M425,218.22a173.12,173.12,0,0,1-15,70.91c-20.24,8-43.9,14.44-70,19a528.69,528.69,0,0,1-90,7.51A527.69,527.69,0,0,1,160,308.14c-26.11-4.57-49.77-11-70-18.93a174.93,174.93,0,0,1,.08-142c20.24-7.92,43.9-14.36,69.93-18.93a548.26,548.26,0,0,1,179.91,0c26.11,4.57,49.77,11,70,19A174.38,174.38,0,0,1,425,218.22Z" fill="none" stroke="#7d38ce" stroke-miterlimit="10" stroke-width="0.75"/><path d="M347.36,218.22a527.67,527.67,0,0,1-7.43,89.92c-4.57,26.11-11,49.77-18.93,70a174.93,174.93,0,0,1-142,.08H179C171,358,164.59,334.25,160,308.14a527.41,527.41,0,0,1-7.51-89.92A527.38,527.38,0,0,1,160,128.31c4.57-26.11,11-49.77,18.93-70A175.54,175.54,0,0,1,321,58.3c7.92,20.24,14.36,43.9,18.93,70A527.64,527.64,0,0,1,347.36,218.22Z" fill="none" stroke="#7d38ce" stroke-miterlimit="10" stroke-width="0.75"/><line x1="249.95" y1="43.3" x2="249.95" y2="393.23" fill="none" stroke="#7d38ce" stroke-miterlimit="10" stroke-width="0.75"/><line x1="424.92" y1="218.26" x2="74.98" y2="218.26" fill="none" stroke="#7d38ce" stroke-miterlimit="10" stroke-width="0.75"/><path d="M331.38,178c0,109.59-81.41,130.26-81.41,130.26V128.31a65.32,65.32,0,0,0,79.92,24.86A204.55,204.55,0,0,1,331.38,178Z" fill="#9d68ea"/><path d="M250,128.31V308.22S168.55,287.55,168.55,178A204.55,204.55,0,0,1,170,153.17,65.33,65.33,0,0,0,250,128.31Z" fill="#7d38ce"/><path d="M265.32,207.4a15.36,15.36,0,1,0-23.75,12.84L238,251.93h23.92l-3.57-31.69A15.32,15.32,0,0,0,265.32,207.4Z" fill="#ffd648"/><circle cx="250" cy="218.26" r="196.25" fill="none" stroke="#fff" stroke-linecap="round" stroke-linejoin="round" stroke-width="0.5" stroke-dasharray="2 2"/><path d="M413.47,127.36H331.36a10.47,10.47,0,0,1-9.06-15.72l7.43-12.88c8.14-1.26,16.55-.23,24.78.78,9.45,1.18,19.18,2.31,28.39-.1s17.34-8.26,23.64-15.53l16,27.73A10.48,10.48,0,0,1,413.47,127.36Z" fill="#ffc200"/><path d="M406.54,83.91c-6.3,7.27-14.36,13.13-23.64,15.53s-18.94,1.28-28.39.1c-8.23-1-16.64-2-24.78-.78l13.08-22.67,20.54-35.56a10.47,10.47,0,0,1,18.14,0L402,76.09Z" fill="#ffd648"/><path d="M372.29,66.32h0a5.62,5.62,0,0,1,5.63,5.87l-.83,20a4.8,4.8,0,0,1-4.8,4.6h0a4.81,4.81,0,0,1-4.8-4.6l-.83-20A5.63,5.63,0,0,1,372.29,66.32Zm-5.78,40.79a5.91,5.91,0,1,1,5.91,5.91A5.91,5.91,0,0,1,366.51,107.11Z"/></svg>