<svg xmlns="http://www.w3.org/2000/svg" viewBox="0 0 500 436.53"><path d="M476.45,410.7H24.15c-.4,0-.6-.8-.6-1.8s.3-1.8.6-1.8h452.3m-189-390.9a28,28,0,0,0-16.7,5.6A34.8,34.8,0,0,0,209.15,44a11.18,11.18,0,0,0,11.2,11.2h83.8A11.18,11.18,0,0,0,315.35,44,27.89,27.89,0,0,0,287.45,16.2Zm16.7,35.4h-83.8a7.6,7.6,0,0,1-7.6-7.6,31.23,31.23,0,0,1,56.3-18.6,1.52,1.52,0,0,0,1.2.7,1.79,1.79,0,0,0,1.4-.4,24.32,24.32,0,0,1,40.2,18.4,7.73,7.73,0,0,1-7.7,7.5Z" fill="#7d38ce"/><path d="M364,264.2h28.7v37.6H364Zm-34.9-158.8a9.4,9.4,0,1,0-9.4-9.4A9.39,9.39,0,0,0,329.05,105.4Zm-64.9,158.8h28.7v37.6h-28.7Zm50,0h28.7v37.6h-28.7Zm57.4-119.3V116.7h-85.2v28.2a40.18,40.18,0,0,1-24.2,36.8h133.4A40,40,0,0,1,371.55,144.9Zm-18.4,29.2a1.58,1.58,0,0,1-1.6,1.6h-45a1.58,1.58,0,0,1-1.6-1.6v-50a1.58,1.58,0,0,1,1.6-1.6h45a1.58,1.58,0,0,1,1.6,1.6Z" fill="none"/><path d="M248.05,336.1H409v1.7H248.05Zm0-87.1H409v1.7H248.05Zm140.3,119.2h4.4v5.9h-4.4Zm0-17.5h4.4v5h-4.4Zm-8.2-45.6h12.5v11.1h-12.5Zm8.2-86.8h4.4v5.9h-4.4Zm0-17.4h4.4v5h-4.4Zm0,8.2h4.4V215h-4.4Zm0,18.4h4.4v5h-4.4Zm0,131.4h4.4v5.9h-4.4Zm0,18.5h4.4v5h-4.4Zm-8.4,0h5.1v5H380Zm0-9.2h5.1v5.9H380Zm0-9.3h5.1v5.9H380Zm0-8.2h5.1v5H380Zm0-123.2h5.1v5H380Zm0-9.2h5.1v5.9H380Zm0-9.2h5.1V215H380Zm0-8.2h5.1v5H380Zm-8.5,176.5h5.3v5h-5.3Zm0-9.2h5.3v5.9h-5.3Zm0-9.3h5.3v5.9h-5.3Zm0-8.2h5.3v5h-5.3Zm0-123.2h5.3v5h-5.3Zm0-9.2h5.3v5.9h-5.3Zm0-9.2h5.3V215h-5.3Zm0-8.2h5.3v5h-5.3ZM364,377.4h4.2v5H364Zm0-9.2h4.2v5.9H364Zm0-9.3h4.2v5.9H364Zm0-8.2h4.2v5H364Zm0-123.2h4.2v5H364Zm0-9.2h4.2v5.9H364Zm0-9.2h4.2V215H364Zm0-8.2h4.2v5H364Zm-69.3-97.4v9.9h68.7v-9.9a17.38,17.38,0,0,1-15.7-17.3V76h-37.4V86.2A17.15,17.15,0,0,1,294.65,103.5Zm34.4-20.2A12.7,12.7,0,1,1,316.35,96,12.72,12.72,0,0,1,329.05,83.3ZM364,305.1h12.9v11.1H364Zm-3.7-69.3h36.2v.9h-36.2Zm0,83.6h36.2v.9h-36.2Zm0,66.2h36.2v.9h-36.2Z" fill="none"/><path d="M409,405.9V341.1H248.05v64.8h13.2V349.1a1.58,1.58,0,0,1,1.6-1.6h31.3a1.58,1.58,0,0,1,1.6,1.6v56.8ZM357,384a1.58,1.58,0,0,1,1.6-1.6h2.1V349.2a1.58,1.58,0,0,1,1.6-1.6h32a1.58,1.58,0,0,1,1.6,1.6v33.3H398a1.58,1.58,0,0,1,1.6,1.6v4.1a1.58,1.58,0,0,1-1.6,1.6h-39.5a1.58,1.58,0,0,1-1.6-1.6V384Zm-49.8,0a1.58,1.58,0,0,1,1.6-1.6h2.1V349.2a1.58,1.58,0,0,1,1.6-1.6h32a1.58,1.58,0,0,1,1.6,1.6v33.3h2.1a1.58,1.58,0,0,1,1.6,1.6v4.1a1.58,1.58,0,0,1-1.6,1.6h-39.5a1.58,1.58,0,0,1-1.6-1.6V384Zm-59.1-130v78.8H409V254Zm51.8,68a1.58,1.58,0,0,1-1.6,1.6h-39.5a1.58,1.58,0,0,1-1.6-1.6v-4.1a1.58,1.58,0,0,1,1.6-1.6h2.1V262.7a1.58,1.58,0,0,1,1.6-1.6h32a1.58,1.58,0,0,1,1.6,1.6v53.6h2.1a1.58,1.58,0,0,1,1.6,1.6V322Zm50,0a1.58,1.58,0,0,1-1.6,1.6h-39.5a1.58,1.58,0,0,1-1.6-1.6v-4.1a1.58,1.58,0,0,1,1.6-1.6h2.1V262.7a1.58,1.58,0,0,1,1.6-1.6h32a1.58,1.58,0,0,1,1.6,1.6v53.6h2.1a1.58,1.58,0,0,1,1.6,1.6V322Zm48.2,1.6h-39.5A1.58,1.58,0,0,1,357,322v-4.1a1.58,1.58,0,0,1,1.6-1.6h2.1V262.7a1.58,1.58,0,0,1,1.6-1.6h32a1.58,1.58,0,0,1,1.6,1.6v53.6H398a1.58,1.58,0,0,1,1.6,1.6V322a1.4,1.4,0,0,1-1.5,1.6Zm-150-77.9H409V184.9H248.05ZM357,234.1a1.58,1.58,0,0,1,1.6-1.6h2.1V199.3a1.58,1.58,0,0,1,1.6-1.6h32a1.58,1.58,0,0,1,1.6,1.6v33.3H398a1.58,1.58,0,0,1,1.6,1.6v4.1a1.58,1.58,0,0,1-1.6,1.6h-39.5a1.58,1.58,0,0,1-1.6-1.6v-4.2Zm-49.8,0a1.58,1.58,0,0,1,1.6-1.6h2.1V199.3a1.58,1.58,0,0,1,1.6-1.6h32a1.58,1.58,0,0,1,1.6,1.6v33.3h2.1a1.58,1.58,0,0,1,1.6,1.6v4.1a1.58,1.58,0,0,1-1.6,1.6h-39.5a1.58,1.58,0,0,1-1.6-1.6v-4.2Zm-50,0a1.58,1.58,0,0,1,1.6-1.6h2.1V199.3a1.58,1.58,0,0,1,1.6-1.6h32a1.58,1.58,0,0,1,1.6,1.6v33.3h2.1a1.58,1.58,0,0,1,1.6,1.6v4.1a1.58,1.58,0,0,1-1.6,1.6h-39.5a1.58,1.58,0,0,1-1.6-1.6v-4.2Zm51-61.6h41.7V125.8h-41.7Zm2.5-42.7a1.58,1.58,0,0,1,1.6-1.6h33.5a1.58,1.58,0,0,1,1.6,1.6v38.8a1.58,1.58,0,0,1-1.6,1.6h-33.5a1.58,1.58,0,0,1-1.6-1.6Z" fill="none"/><path d="M314,131.4h30.2v35.5H314Zm24.5,236.8h4.4v5.9h-4.4Zm0-17.5h4.4v5h-4.4Zm-8.1-45.6h12.5v11.1h-12.5Zm8.1-86.8h4.4v5.9h-4.4Zm0-17.4h4.4v5h-4.4Zm0,8.2h4.4V215h-4.4Zm0,18.4h4.4v5h-4.4Zm0,131.4h4.4v5.9h-4.4Zm0,18.5h4.4v5h-4.4Zm-8.3,0h5.1v5h-5.1Zm0-9.2h5.1v5.9h-5.1Zm0-9.3h5.1v5.9h-5.1Zm0-8.2h5.1v5h-5.1Zm0-123.2h5.1v5h-5.1Zm0-9.2h5.1v5.9h-5.1Zm0-9.2h5.1V215h-5.1Zm0-8.2h5.1v5h-5.1Zm-8.6,176.5h5.3v5h-5.3Zm0-9.2h5.3v5.9h-5.3Zm0-9.3h5.3v5.9h-5.3Zm0-8.2h5.3v5h-5.3Zm0-123.2h5.3v5h-5.3Zm0-9.2h5.3v5.9h-5.3Zm0-9.2h5.3V215h-5.3Zm0-8.2h5.3v5h-5.3Zm-7.4,176.5h4.2v5h-4.2Zm0-9.2h4.2v5.9h-4.2Zm0-9.3h4.2v5.9h-4.2Zm0-8.2h4.2v5h-4.2Zm0-123.2h4.2v5h-4.2Zm0-9.2h4.2v5.9h-4.2Zm0-9.2h4.2V215h-4.2Zm0-8.2h4.2v5h-4.2Zm0,104.2h12.9v11.1h-12.9Zm-3.8-69.3h36.2v.9h-36.2Zm0,83.6h36.2v.9h-36.2Zm0,66.2h36.2v.9h-36.2Zm-30-80.5h12.5v11.1h-12.5Zm8.2-86.8H293v5.9h-4.4Zm0-17.4H293v5h-4.4Zm0,8.2H293V215h-4.4Zm0,18.4H293v5h-4.4Zm-.3,127.9h-19.5v50.5h19.5Zm-1.4,29.9a1.6,1.6,0,1,1-3.2,0v-7a1.6,1.6,0,1,1,3.2,0Zm-6.7-157.8h5.1v5h-5.1Zm0-9.2h5.1v5.9h-5.1Zm0-9.2h5.1V215h-5.1Zm0-8.2h5.1v5h-5.1Zm-8.5,26.6H277v5h-5.3Zm0-9.2H277v5.9h-5.3Zm0-9.2H277V215h-5.3Zm0-8.2H277v5h-5.3Zm-7.5,26.6h4.2v5h-4.2Zm0-9.2h4.2v5.9h-4.2Zm0-9.2h4.2V215h-4.2Zm0-8.2h4.2v5h-4.2Z" fill="none"/><path d="M292.55,405.9V350.7h-28.1v55.2h1V353.8a1.58,1.58,0,0,1,1.6-1.6H290a1.58,1.58,0,0,1,1.6,1.6v52.1Zm-28.4-100.8h12.9v11.1h-12.9Zm-3.7-69.3h36.2v.9h-36.2Zm0,83.6h36.2v.9h-36.2Z" fill="none"/><path d="M413.25,183.3a1.58,1.58,0,0,0-1.6-1.6h-1A36.52,36.52,0,0,1,375,145V115.1a1.58,1.58,0,0,0-1.6-1.6h-6.6V102a1.58,1.58,0,0,0-1.6-1.6,14.09,14.09,0,0,1-9.9-4.1,13.84,13.84,0,0,1-4.1-9.9V74.6a1.58,1.58,0,0,0-1.6-1.6H309a1.58,1.58,0,0,0-1.6,1.6V86.4a14.06,14.06,0,0,1-14.1,14,1.58,1.58,0,0,0-1.6,1.6v11.5h-6.6a1.58,1.58,0,0,0-1.6,1.6V145a36.81,36.81,0,0,1-36.7,36.8,1.58,1.58,0,0,0-1.6,1.6V407.6a1.58,1.58,0,0,0,1.6,1.6h163.9a1.58,1.58,0,0,0,1.6-1.6V184.9a2,2,0,0,0,1-1.6ZM268.75,355.4h19.5v50.5h-19.5Zm21.2-3.2h-22.8a1.58,1.58,0,0,0-1.6,1.6v52.1h-1V350.7h28.1v55.2h-1V353.8A1.73,1.73,0,0,0,290,352.2Zm4.2-4.8h-31.3a1.58,1.58,0,0,0-1.6,1.6v56.8h-13.2V341H409v64.8H295.85V349a1.67,1.67,0,0,0-1.7-1.6ZM409,245.7H248.05V184.9H409Zm0,5H248.05V249H409Zm0,87.1H248.05v-1.7H409Zm-160.9-5V254H409v78.8Zm62.3-256.7h37.4V86.3a17.38,17.38,0,0,0,15.7,17.3v9.9h-68.7v-9.9a17.29,17.29,0,0,0,15.7-17.2V76.1Zm-23.9,68.8V116.7h85.2v28.2a39.79,39.79,0,0,0,24,36.8H262.25A40.18,40.18,0,0,0,286.45,144.9Z" fill="#7d38ce"/><path d="M329.05,108.6a12.7,12.7,0,1,0-12.7-12.7A12.72,12.72,0,0,0,329.05,108.6Zm0-22.1a9.4,9.4,0,1,1-9.4,9.4A9.39,9.39,0,0,1,329.05,86.5Zm22.5,36h-45a1.58,1.58,0,0,0-1.6,1.6v50a1.58,1.58,0,0,0,1.6,1.6h45a1.58,1.58,0,0,0,1.6-1.6v-50A1.58,1.58,0,0,0,351.55,122.5Zm-1.7,50h-41.7V125.8h41.7Z" fill="#7d38ce"/><path d="M312.25,170.1h33.5a1.58,1.58,0,0,0,1.6-1.6V129.7a1.58,1.58,0,0,0-1.6-1.6h-33.5a1.58,1.58,0,0,0-1.6,1.6v38.8A1.58,1.58,0,0,0,312.25,170.1Zm1.7-38.7h30.2v35.5H314Zm-5.2,258.4h39.5a1.58,1.58,0,0,0,1.6-1.6V384a1.58,1.58,0,0,0-1.6-1.6h-2.1V349.1a1.58,1.58,0,0,0-1.6-1.6h-32a1.58,1.58,0,0,0-1.6,1.6v33.2h-2.1a1.58,1.58,0,0,0-1.6,1.6V388a1.56,1.56,0,0,0,1.5,1.8Zm34.1-34.1h-4.4v-5h4.4Zm-12.7,26.6v-5h5.1v5Zm-8.6,0v-5h5.3v5Zm13.7-17.4h-5.1V359h5.1Zm-5.1,9.2v-5.9h5.1v5.9Zm8.3-5.9h4.4v5.9h-4.4Zm0-9.3h4.4v5.9h-4.4Zm-11.6,0v5.9h-5.3v-5.9Zm-8.5,6h-4.2V359h4.2v5.9Zm3.2,3.3h5.3v5.9h-5.3Zm13.7-12.5h-5.1v-5h5.1Zm-8.4,0h-5.3v-5h5.3Zm-12.7,12.5h4.2v5.9h-4.2Zm24.3,14.1v-5h4.4v5Zm-20.1-31.6v5h-4.2v-5Zm-4.2,26.7h4.2v5h-4.2Zm-3.8,8.2h36.2v.9h-36.2Zm48.3,4.2h39.5a1.58,1.58,0,0,0,1.6-1.6V384a1.58,1.58,0,0,0-1.6-1.6H396V349.1a1.58,1.58,0,0,0-1.6-1.6h-32a1.58,1.58,0,0,0-1.6,1.6v33.2h-2.1a1.58,1.58,0,0,0-1.6,1.6V388a1.63,1.63,0,0,0,1.6,1.8Zm21.3-7.5v-5h5.1v5Zm-8.5,0v-5h5.3v5Zm21.2-17.4h-4.4V359h4.4Zm0,9.2h-4.4v-5.9h4.4Zm-7.6-9.2H380V359h5.1Zm-5.1,9.2v-5.9h5.1v5.9Zm-3.2-15.2v5.9h-5.3v-5.9Zm-8.6,6H364V359h4.2v5.9Zm0,3.3v5.9H364v-5.9Zm3.3,0h5.3v5.9h-5.3Zm21.2-12.5h-4.4v-5h4.4Zm-7.6,0H380v-5h5.1v5Zm-8.3,0h-5.3v-5h5.3Zm11.6,26.6v-5h4.4v5Zm-20.2-31.6v5H364v-5Zm0,26.7v5H364v-5Zm-7.9,8.2h36.2v.9h-36.2ZM258.75,239.9h39.5a1.58,1.58,0,0,0,1.6-1.6v-4.1a1.58,1.58,0,0,0-1.6-1.6h-2.1V199.3a1.58,1.58,0,0,0-1.6-1.6h-32a1.58,1.58,0,0,0-1.6,1.6v33.2h-2.1a1.58,1.58,0,0,0-1.6,1.6v4.1a1.48,1.48,0,0,0,1.5,1.7Zm34.1-34.1h-4.4v-5h4.4Zm-12.7,26.7v-5h5.1v5Zm-8.5,0v-5H277v5Zm13.6-17.4h-5.1v-5.9h5.1Zm-5.1,9.2v-5.9h5.1v5.9Zm8.4-6H293v5.9h-4.4Zm0-9.2H293V215h-4.4Zm-11.7,0V215h-5.3v-5.9Zm-8.5,6h-4.2v-5.9h4.2Zm3.3,3.2H277v5.9h-5.3Zm13.6-12.5h-5.1v-5h5.1Zm-8.4,0h-5.3v-5h5.3Zm-12.7,12.5h4.2v5.9h-4.2Zm24.4,14.2v-5H293v5Zm-20.2-31.6v5h-4.2v-5Zm-4.2,26.6h4.2v5h-4.2Zm-3.7,8.3h36.2v.9h-36.2Zm48.3,4.1h39.5a1.58,1.58,0,0,0,1.6-1.6v-4.1a1.58,1.58,0,0,0-1.6-1.6h-2.1V199.3a1.58,1.58,0,0,0-1.6-1.6h-32a1.58,1.58,0,0,0-1.6,1.6v33.2h-2.1a1.58,1.58,0,0,0-1.6,1.6v4.1a1.48,1.48,0,0,0,1.5,1.7Zm34.1-34.1h-4.4v-5h4.4Zm-12.7,26.7v-5h5.1v5Zm-8.6,0v-5h5.3v5Zm13.7-17.4h-5.1v-5.9h5.1Zm-5.1,9.2v-5.9h5.1v5.9Zm8.3-6h4.4v5.9h-4.4Zm0-9.2h4.4V215h-4.4Zm-11.6,0V215h-5.3v-5.9Zm-8.5,6h-4.2v-5.9h4.2Zm3.2,3.2h5.3v5.9h-5.3Zm13.7-12.5h-5.1v-5h5.1Zm-8.4,0h-5.3v-5h5.3Zm-12.7,12.5h4.2v5.9h-4.2Zm24.3,14.2v-5h4.4v5Zm-20.1-31.6v5h-4.2v-5Zm-4.2,26.6h4.2v5h-4.2Zm-3.8,8.3h36.2v.9h-36.2Zm48.3,4.1h39.5a1.58,1.58,0,0,0,1.6-1.6v-4.1a1.58,1.58,0,0,0-1.6-1.6H396V199.3a1.58,1.58,0,0,0-1.6-1.6h-32a1.58,1.58,0,0,0-1.6,1.6v33.2h-2.1a1.58,1.58,0,0,0-1.6,1.6v4.1a1.55,1.55,0,0,0,1.6,1.7Zm21.3-7.4v-5h5.1v5Zm-8.5,0v-5h5.3v5Zm21.2-17.4h-4.4v-5.9h4.4Zm0,9.2h-4.4v-5.9h4.4Zm-7.6-9.2H380v-5.9h5.1Zm-5.1,9.2v-5.9h5.1v5.9Zm-3.2-15.2V215h-5.3v-5.9Zm-8.6,6H364v-5.9h4.2v5.9Zm0,3.2v5.9H364v-5.9Zm3.3,0h5.3v5.9h-5.3Zm21.2-12.5h-4.4v-5h4.4Zm-7.6,0H380v-5h5.1v5Zm-8.3,0h-5.3v-5h5.3Zm11.6,26.7v-5h4.4v5Zm-20.2-31.6v5H364v-5Zm0,26.6v5H364v-5Zm-7.9,8.3h36.2v.9h-36.2Zm-62,80.4h-2.1V262.6a1.58,1.58,0,0,0-1.6-1.6h-32a1.58,1.58,0,0,0-1.6,1.6v53.6h-2.1a1.58,1.58,0,0,0-1.6,1.6v4.1a1.58,1.58,0,0,0,1.6,1.6h39.5a1.58,1.58,0,0,0,1.6-1.6v-4.1a1.73,1.73,0,0,0-1.7-1.6Zm-1.6,4.1h-36.2v-.9h36.2Zm-3.8-18.5h-28.7V264.2h28.7Zm-12.5,14.4V305.1h12.5v11.1Zm-16.2-11.1h12.9v11.1h-12.9Zm84.1,11.1h-2.1V262.6a1.58,1.58,0,0,0-1.6-1.6h-32a1.58,1.58,0,0,0-1.6,1.6v53.6h-2.1a1.58,1.58,0,0,0-1.6,1.6v4.1a1.58,1.58,0,0,0,1.6,1.6h39.5a1.58,1.58,0,0,0,1.6-1.6v-4.1a1.73,1.73,0,0,0-1.7-1.6Zm-1.7,4.1h-36.2v-.9h36.2Zm-3.7-18.5h-28.7V264.2h28.7Zm-12.5,14.4V305.1h12.5v11.1Zm-16.2-11.1h12.9v11.1h-12.9Zm83.9,11.1H396V262.6a1.58,1.58,0,0,0-1.6-1.6h-32a1.58,1.58,0,0,0-1.6,1.6v53.6h-2.1a1.58,1.58,0,0,0-1.6,1.6v4.1a1.58,1.58,0,0,0,1.6,1.6h39.5a1.58,1.58,0,0,0,1.6-1.6v-4.1a1.67,1.67,0,0,0-1.7-1.6Zm-1.6,4.1h-36.2v-.9h36.2Zm-16.3-4.1V305.1h12.5v11.1Zm12.5-14.4H364V264.2h28.7ZM364,305.1h12.9v11.1H364Z" fill="#7d38ce"/><path d="M285.25,376.7a1.58,1.58,0,0,0-1.6,1.6v7a1.6,1.6,0,1,0,3.2,0v-7A1.58,1.58,0,0,0,285.25,376.7Z" fill="#7d38ce"/><path d="M185.85,126.8V84.6h-36v42.2a44.3,44.3,0,0,1-27.6,41h91.1A44.47,44.47,0,0,1,185.85,126.8Zm-18-35.4a11,11,0,1,1-11,11A11,11,0,0,1,167.85,91.4Zm15.3,69.9a1.58,1.58,0,0,1-1.6,1.6h-27.3a1.58,1.58,0,0,1-1.6-1.6V136.2A15.36,15.36,0,0,1,168,120.9a15.36,15.36,0,0,1,15.3,15.3v25.1Z" fill="none"/><path d="M157.05,262.2h9.7v10.2h-9.7Zm-42.7-39.8h9.7v8.8h-9.7Zm0-12.1h9.7v8.8h-9.7Zm-.3,51.9h9.7v10.2h-9.7Zm0,13.5h9.7v8.8h-9.7Zm32.4,79.7H127v50.5h19.5Zm-1.4,29.9a1.6,1.6,0,1,1-3.2,0v-7a1.6,1.6,0,1,1,3.2,0Z" fill="none"/><path d="M150.75,405.9V350.7h-28.1v55.2h1V353.8a1.58,1.58,0,0,1,1.6-1.6h22.8a1.58,1.58,0,0,1,1.6,1.6v52.1Zm-23.7-130.2h9.7v8.8h-9.7Zm0-13.5h9.7v10.2h-9.7Zm.3-65.3h9.7v10.2h-9.7Zm-.3,90.9h9.7v8.8h-9.7Zm0,12h9.7V310h-9.7Zm.3-89.5h9.7v8.8h-9.7Zm0,12.1h9.7v8.8h-9.7Zm29.7,65.4h9.7v8.8h-9.7Zm-29.7-53.4h9.7v10.2h-9.7Zm29.7,41.3h9.7v8.8h-9.7Zm0,24.1h9.7V310h-9.7Zm.2-102.9H167v10.2h-9.7Zm0,25.5H167v8.8h-9.7Zm0-12.1H167v8.8h-9.7Zm0,24.1H167v10.2h-9.7Zm12.8,41.3h9.7v8.8h-9.7Zm-.6,75h10.2v9.7h-10.2Zm0,13h10.2v9.7h-10.2Zm.6-101.5h9.7v10.2h-9.7Zm0,25.6h9.7v8.8h-9.7Zm.2-90.9H180v10.2h-9.7Zm-.2,102.9h9.7V310h-9.7ZM156,134.5h23.8a12,12,0,0,0-11.9-10.4A12,12,0,0,0,156,134.5Zm-.1,3.3H180v21.8h-24.1Zm14.4,72.5H180v8.8h-9.7Zm0,24.1H180v10.2h-9.7Zm0-12H180v8.8h-9.7ZM150,81.4h35.8a18,18,0,0,0-35.8,0Zm33,269.3h8.8v9.7H183Zm16.5-88.5h9.7v10.2h-9.7ZM183,363.7h8.8v9.7H183Zm12.1-13h8.8v9.7h-8.8Zm0,13h8.8v9.7h-8.8Zm4.4-88h9.7v8.8h-9.7Zm0,24.1h9.7V310h-9.7Zm0-12h9.7v8.8h-9.7Zm.3-90.9h9.7v10.2h-9.7Zm0,13.4h9.7v8.8h-9.7Zm0,12.1h9.7v8.8h-9.7Zm0,12h9.7v10.2h-9.7Zm7.3,116.3h10.2v9.7h-10.2Zm0,13h10.2v9.7h-10.2Zm5.4-101.5h9.7v10.2h-9.7Zm0,13.5h9.7v8.8h-9.7Zm0,12.1h9.7v8.8h-9.7Zm0,12h9.7V310h-9.7Zm.3-102.9h9.7v10.2h-9.7Zm0,13.4h9.7v8.8h-9.7Zm0,12.1h9.7v8.8h-9.7Zm0,12h9.7v10.2h-9.7ZM107.25,171h121.2v3.8H107.25Z" fill="none"/><path d="M107.25,178.1V328.7h121.2V178.1Zm32.8,133.6a1.58,1.58,0,0,1-1.6,1.6h-26a1.58,1.58,0,0,1-1.6-1.6V260.6a1.58,1.58,0,0,1,1.6-1.6h26a1.58,1.58,0,0,1,1.6,1.6Zm.2-65.4a1.58,1.58,0,0,1-1.6,1.6h-26a1.58,1.58,0,0,1-1.6-1.6V195.2a1.58,1.58,0,0,1,1.6-1.6h26a1.58,1.58,0,0,1,1.6,1.6Zm42.8,65.4a1.58,1.58,0,0,1-1.6,1.6h-26a1.58,1.58,0,0,1-1.6-1.6V260.6a1.58,1.58,0,0,1,1.6-1.6h26a1.58,1.58,0,0,1,1.6,1.6Zm.2-65.4a1.58,1.58,0,0,1-1.6,1.6h-26a1.58,1.58,0,0,1-1.6-1.6V195.2a1.58,1.58,0,0,1,1.6-1.6h26a1.58,1.58,0,0,1,1.6,1.6Zm42.2,65.4a1.58,1.58,0,0,1-1.6,1.6h-26a1.58,1.58,0,0,1-1.6-1.6V260.6a1.58,1.58,0,0,1,1.6-1.6h26a1.58,1.58,0,0,1,1.6,1.6Zm.3-65.4a1.58,1.58,0,0,1-1.6,1.6h-26a1.58,1.58,0,0,1-1.6-1.6V195.2a1.58,1.58,0,0,1,1.6-1.6h26a1.58,1.58,0,0,1,1.6,1.6ZM107.25,332h121.2v4.4H107.25Zm0,7.6v66.3h12.1V349.1a1.58,1.58,0,0,1,1.6-1.6h31.3a1.58,1.58,0,0,1,1.6,1.6v56.8h74.5V339.6ZM220.55,375a1.58,1.58,0,0,1-1.6,1.6h-51.1a1.58,1.58,0,0,1-1.6-1.6V349a1.58,1.58,0,0,1,1.6-1.6H219a1.58,1.58,0,0,1,1.6,1.6Z" fill="none"/><path d="M114.05,287.8h9.7v8.8h-9.7Zm.3-90.9h9.7v10.2h-9.7Zm0,37.5h9.7v10.2h-9.7Zm-.3,65.4h9.7V310h-9.7Zm46-197.3a7.8,7.8,0,1,0,7.8-7.8A7.81,7.81,0,0,0,160.05,102.5Z" fill="none"/><path d="M230.05,167.7a41.06,41.06,0,0,1-41-41V84.5h7.2a1.6,1.6,0,0,0,0-3.2H189a21.27,21.27,0,0,0-42.4,0h-7.3a1.6,1.6,0,1,0,0,3.2h7.2v42.2a41.06,41.06,0,0,1-41,41,1.58,1.58,0,0,0-1.6,1.6V407.5a1.58,1.58,0,0,0,1.6,1.6H230a1.58,1.58,0,0,0,1.6-1.6V169.3A1.44,1.44,0,0,0,230.05,167.7ZM127,355.4h19.5v50.5H127Zm21.1-3.2h-22.8a1.58,1.58,0,0,0-1.6,1.6v52.1h-1V350.7h28.1v55.2h-1V353.8A1.67,1.67,0,0,0,148.05,352.2Zm5.9,53.7V349.1a1.58,1.58,0,0,0-1.6-1.6h-31.3a1.58,1.58,0,0,0-1.6,1.6v56.8h-12.1V339.6h121.2v66.3Zm74.5-231.1H107.25V171h121.2v3.8Zm0,157.2v4.4H107.25V332Zm-121.2-3.3V178.1h121.2V328.7Zm78.5-247.3H150a18,18,0,0,1,35.8,0Zm-35.9,45.4V84.6h36v42.2a44.3,44.3,0,0,0,27.6,41h-91.1A44.47,44.47,0,0,0,149.85,126.8Z" fill="#7d38ce"/><path d="M167.85,113.5a11,11,0,1,0-11-11A11,11,0,0,0,167.85,113.5Zm7.8-11a7.8,7.8,0,1,1-7.8-7.8A7.81,7.81,0,0,1,175.65,102.5Zm-7.8,18.3a15.36,15.36,0,0,0-15.3,15.3v25.1a1.58,1.58,0,0,0,1.6,1.6h27.3a1.58,1.58,0,0,0,1.6-1.6V136.1a15.21,15.21,0,0,0-15.2-15.3Zm11.9,13.7H156a12.23,12.23,0,0,1,3.4-6.9,12,12,0,0,1,20.4,6.9Zm-23.9,3.3H180v21.8h-24.1ZM138.35,259h-26a1.58,1.58,0,0,0-1.6,1.6v51.1a1.58,1.58,0,0,0,1.6,1.6h26a1.58,1.58,0,0,0,1.6-1.6V260.6A1.52,1.52,0,0,0,138.35,259Zm-1.6,3.2v10.2h-9.7V262.2Zm-13,25.6v8.8h-9.7v-8.8Zm3.3,0h9.7v8.8h-9.7Zm0-12.1h9.7v8.8h-9.7Zm-3.3,0v8.8h-9.7v-8.8Zm3.3,24.1h9.7V310h-9.7V299.8Zm-3.3-37.6v10.2h-9.7V262.2Zm-9.7,37.6h9.7V310h-9.7V299.8Zm67.3-40.8h-26a1.58,1.58,0,0,0-1.6,1.6v51.1a1.58,1.58,0,0,0,1.6,1.6h26a1.58,1.58,0,0,0,1.6-1.6V260.6A1.52,1.52,0,0,0,181.35,259Zm-24.3,40.8h9.7V310h-9.7Zm9.7-3.2h-9.7v-8.8h9.7Zm0-12.1h-9.7v-8.8h9.7Zm0-12.1h-9.7V262.2h9.7Zm3.3,15.4h9.7v8.8h-9.7Zm0-3.3v-8.8h9.7v8.8Zm9.7-12.1h-9.7V262.2h9.7Zm-9.7,37.6V299.8h9.7V310Zm53.8-51h-26a1.58,1.58,0,0,0-1.6,1.6v51.1a1.58,1.58,0,0,0,1.6,1.6h26a1.58,1.58,0,0,0,1.6-1.6V260.6A1.58,1.58,0,0,0,223.85,259Zm-1.6,3.2v10.2h-9.7V262.2Zm-13,25.6v8.8h-9.7v-8.8Zm3.2,0h9.7v8.8h-9.7Zm0-12.1h9.7v8.8h-9.7Zm-3.2,0v8.8h-9.7v-8.8Zm3.2,24.1h9.7V310h-9.7V299.8Zm-3.2-37.6v10.2h-9.7V262.2Zm-9.8,37.6h9.7V310h-9.7V299.8Zm-60.8-106.2h-26a1.58,1.58,0,0,0-1.6,1.6v51.1a1.58,1.58,0,0,0,1.6,1.6h26a1.58,1.58,0,0,0,1.6-1.6V195.2A1.58,1.58,0,0,0,138.65,193.6Zm-24.3,51V234.4h9.7v10.2Zm13-25.5v-8.8h9.7v8.8Zm-3.3,0h-9.7v-8.8h9.7Zm0,3.3v8.8h-9.7v-8.8Zm3.3,8.8v-8.8h9.7v8.8Zm9.7-24.2h-9.7V196.8h9.7V207Zm-13-10.1V207h-9.7V196.8h9.7Zm3.3,47.7V234.4h9.7v10.2Zm54.3-51h-26a1.58,1.58,0,0,0-1.6,1.6v51.1a1.58,1.58,0,0,0,1.6,1.6h26a1.58,1.58,0,0,0,1.6-1.6V195.2A1.58,1.58,0,0,0,181.65,193.6ZM180,207h-9.7V196.8H180Zm-12.9,15.4v8.8h-9.7v-8.8Zm3.2,0H180v8.8h-9.7Zm0-12.1H180v8.8h-9.7v-8.8Zm-3.2,0v8.8h-9.7v-8.8Zm3.2,24.1H180v10.2h-9.7Zm-3.2-37.5V207h-9.7V196.8h9.7Zm-9.8,37.5H167v10.2h-9.7Zm66.8-40.8h-26a1.58,1.58,0,0,0-1.6,1.6v51.1a1.58,1.58,0,0,0,1.6,1.6h26a1.58,1.58,0,0,0,1.6-1.6V195.2A1.52,1.52,0,0,0,224.05,193.6Zm-24.3,51V234.4h9.7v10.2Zm13-25.5v-8.8h9.7v8.8Zm-3.3,0h-9.7v-8.8h9.7Zm0,3.3v8.8h-9.7v-8.8Zm3.3,8.8v-8.8h9.7v8.8Zm9.7-24.2h-9.7V196.8h9.7V207Zm-13-10.1V207h-9.7V196.8h9.7Zm3.3,47.7V234.4h9.7v10.2ZM219,347.4h-51.1a1.58,1.58,0,0,0-1.6,1.6v26a1.58,1.58,0,0,0,1.6,1.6H219a1.58,1.58,0,0,0,1.6-1.6V349A1.64,1.64,0,0,0,219,347.4Zm-1.7,13h-10.2v-9.7h10.2Zm-47.8,3.3h10.2v9.7h-10.2Zm34.4-3.3h-8.8v-9.7h8.8Zm-12.1,0H183v-9.7h8.8v9.7Zm-12.1,0h-10.2v-9.7h10.2Zm3.3,3.3h8.8v9.7H183v-9.7Zm12.1,0h8.8v9.7h-8.8Zm12,9.7v-9.7h10.2v9.7Zm-63.7,3.3a1.58,1.58,0,0,0-1.6,1.6v7a1.6,1.6,0,1,0,3.2,0v-7A1.52,1.52,0,0,0,143.35,376.7Z" fill="#7d38ce"/><path d="M237.65,276.4l-3.4,3.4h15.6l-3.5-3.4Zm-3.5,6.7a8.08,8.08,0,0,0,15.8,0Zm4.5-10.2h6.8v.3h-6.8Zm-25.9,130h-4.7v3h19.3v-3h-14.6Zm1.7-37.7h6.6v34.4h-6.6Z" fill="none"/><path d="M82.89,280.3l-6.2-6.2v-2.9a1.58,1.58,0,0,0-1.6-1.6h-3.4V257.9a13.8,13.8,0,0,0-27.6,0v9h-3.2a1.58,1.58,0,0,0-1.6,1.6v2.9a1.58,1.58,0,0,0,1.6,1.6h3.2v88.8h-3.3a1.58,1.58,0,0,0-1.6,1.6v36h-4.8a1.58,1.58,0,0,0-1.6,1.6v6.3a1.58,1.58,0,0,0,1.6,1.6H57a1.58,1.58,0,0,0,1.6-1.6V401a1.58,1.58,0,0,0-1.6-1.6h-4.8v-36a1.58,1.58,0,0,0-1.6-1.6h-3.3V273h3.2a1.58,1.58,0,0,0,1.6-1.6v-2.9a1.58,1.58,0,0,0-1.6-1.6h-3.2v-9a10.5,10.5,0,0,1,10.5-10.5,10.2,10.2,0,0,1,7.4,3.1,10.43,10.43,0,0,1,3.1,7.5v11.7h-3.4a1.58,1.58,0,0,0-1.6,1.6v2.9l-6.2,6.2a1.74,1.74,0,0,0-.4,1.8,1.64,1.64,0,0,0,1.5,1h.5a11.32,11.32,0,0,0,22.4,0h.5a1.54,1.54,0,0,0,1.5-1,1.64,1.64,0,0,0-.2-1.9ZM55.29,405.9H35.89v-3h19.4ZM49,365.2v34.4h-6.6V365.2Zm21-75.7a8.06,8.06,0,0,1-7.9-6.4h15.8a8,8,0,0,1-7.9,6.4Zm-7.8-9.7,3.4-3.4h8.7l3.4,3.4Zm11.2-6.9v.3h-6.8v-.3Z" fill="#7d38ce"/></svg>