<?xml version="1.0" encoding="utf-8"?>
<!-- Generator: Adobe Illustrator 28.2.0, SVG Export Plug-In . SVG Version: 6.00 Build 0)  -->
<svg version="1.1" id="Layer_1" xmlns="http://www.w3.org/2000/svg" xmlns:xlink="http://www.w3.org/1999/xlink" x="0px" y="0px"
	 viewBox="0 0 389 389" style="enable-background:new 0 0 389 389;" xml:space="preserve">
<style type="text/css">
	.st0{fill:none;stroke:#BBBDC4;stroke-linecap:round;stroke-linejoin:round;stroke-dasharray:8;}
	.st1{fill:#8B5CF6;}
	.st2{fill:#FFFFFF;}
	.st3{fill:none;stroke:#DEDCE5;stroke-miterlimit:10;}
	.st4{fill:#70767C;}
	.st5{fill:#222028;}
	.st6{opacity:0.2;fill:#B8BAC1;enable-background:new    ;}
	.st7{fill:#B8BAC1;}
</style>
<g>
	<g id="e3544d63-4d15-4617-821f-1324f28b27d0">
		<path class="st0" d="M54.7,125.5h279.6c11.7,0,21.2,9.5,21.2,21.2v108.6c0,11.7-9.5,21.2-21.2,21.2H54.7
			c-11.7,0-21.2-9.5-21.2-21.2V146.7C33.5,135,43,125.5,54.7,125.5z"/>
		
			<image style="overflow:visible;opacity:0.15;enable-background:new    ;" width="332" height="122" xlink:href="9F201651.png"  transform="matrix(1 0 0 1 32 219)">
		</image>
		<path class="st1" d="M92,239.5h210c18.5,0,33.5,15,33.5,33.5l0,0c0,18.5-15,33.5-33.5,33.5H92c-18.5,0-33.5-15-33.5-33.5l0,0
			C58.5,254.5,73.5,239.5,92,239.5z"/>
		<path class="st2" d="M141.4,279.7v-1.3l5.1-5.5c0.6-0.6,1.1-1.2,1.5-1.7c0.3-0.4,0.6-0.9,0.9-1.4c0.2-0.4,0.3-0.9,0.3-1.3
			c0-0.5-0.1-1-0.4-1.4c-0.3-0.4-0.6-0.7-1.1-0.9c-0.5-0.2-1-0.3-1.5-0.3c-0.5,0-1.1,0.1-1.5,0.4c-0.4,0.2-0.8,0.6-1,1
			c-0.2,0.5-0.4,1-0.4,1.5h-1.8c0-0.8,0.2-1.6,0.6-2.4c0.4-0.7,1-1.2,1.7-1.6c0.7-0.4,1.6-0.6,2.4-0.6c0.8,0,1.6,0.2,2.4,0.6
			c0.7,0.4,1.2,0.9,1.6,1.5c0.4,0.6,0.6,1.4,0.6,2.1c0,0.6-0.1,1.1-0.3,1.6c-0.3,0.6-0.6,1.2-1.1,1.8c-0.5,0.6-1.2,1.5-2.1,2.4
			L144,278v0.1h7.1v1.6L141.4,279.7z"/>
		<path class="st2" d="M155.4,279.9c-0.4,0-0.7-0.1-0.9-0.4c-0.3-0.3-0.4-0.6-0.4-1c0-0.7,0.6-1.3,1.3-1.3c0.4,0,0.7,0.1,0.9,0.4
			c0.3,0.2,0.4,0.6,0.4,1c0,0.2-0.1,0.5-0.2,0.7c-0.1,0.2-0.3,0.4-0.5,0.5C155.9,279.8,155.7,279.8,155.4,279.9z"/>
		<path class="st2" d="M164.5,280c-0.9,0-1.8-0.2-2.6-0.5c-0.7-0.3-1.4-0.8-1.8-1.4c-0.5-0.6-0.7-1.3-0.7-2.1h1.9
			c0,0.5,0.2,0.9,0.5,1.3c0.3,0.4,0.7,0.6,1.2,0.8c0.5,0.2,1.1,0.3,1.6,0.3c0.6,0,1.2-0.1,1.8-0.3c0.5-0.2,0.9-0.6,1.2-1
			c0.3-0.4,0.4-0.9,0.4-1.4c0-1.1-0.6-2.1-1.6-2.5c-0.6-0.3-1.3-0.4-2-0.4H163v-1.6h1.2c0.6,0,1.1-0.1,1.6-0.3
			c0.4-0.2,0.8-0.5,1.1-0.9c0.3-0.4,0.4-0.9,0.4-1.4c0-0.5-0.1-0.9-0.4-1.4c-0.2-0.4-0.6-0.7-1-0.9c-0.5-0.2-1-0.3-1.5-0.3
			c-0.5,0-1,0.1-1.5,0.3c-0.4,0.2-0.8,0.5-1.1,0.8c-0.3,0.4-0.5,0.8-0.5,1.3h-1.8c0-0.8,0.3-1.5,0.7-2.1c0.5-0.6,1.1-1.1,1.8-1.4
			c0.8-0.3,1.6-0.5,2.4-0.5c0.8,0,1.7,0.2,2.4,0.6c1.3,0.7,2.1,2,2.1,3.5c0,0.8-0.2,1.6-0.7,2.2c-0.5,0.6-1.1,1.1-1.8,1.3v0.1
			c0.9,0.1,1.7,0.6,2.3,1.2c0.6,0.7,0.8,1.6,0.8,2.4c0,0.8-0.2,1.6-0.7,2.2c-0.5,0.7-1.1,1.2-1.8,1.6
			C166.3,279.8,165.4,280,164.5,280z"/>
		<path class="st2" d="M172.9,268.1v-0.8c0-0.5,0.1-1.1,0.4-1.5c0.2-0.5,0.6-0.8,1-1.1c0.5-0.3,1.1-0.4,1.6-0.4
			c0.6,0,1.1,0.1,1.6,0.4c0.4,0.3,0.8,0.7,1,1.1c0.2,0.5,0.3,1,0.3,1.5v0.8c0,0.5-0.1,1.1-0.3,1.5c-0.2,0.5-0.6,0.8-1,1.1
			c-0.5,0.3-1,0.4-1.6,0.4c-0.6,0-1.1-0.1-1.6-0.4c-0.4-0.3-0.8-0.7-1-1.1C173,269.2,172.9,268.7,172.9,268.1z M173.5,279.7
			l10.5-15.3h1.7l-10.5,15.3L173.5,279.7z M174.5,267.3v0.8c0,0.4,0.1,0.9,0.3,1.2c0.2,0.4,0.7,0.6,1.1,0.5c0.4,0,0.9-0.2,1.1-0.5
			c0.2-0.4,0.3-0.8,0.3-1.2v-0.8c0-0.4-0.1-0.9-0.3-1.2c-0.2-0.4-0.7-0.6-1.1-0.5c-0.4,0-0.9,0.2-1.1,0.5
			C174.6,266.5,174.4,266.9,174.5,267.3L174.5,267.3z M180.5,276.9v-0.8c0-0.5,0.1-1.1,0.4-1.5c0.2-0.5,0.6-0.8,1-1.1
			c0.5-0.3,1.1-0.4,1.6-0.4c0.6,0,1.1,0.1,1.6,0.4c0.4,0.3,0.8,0.7,1,1.1c0.2,0.5,0.3,1,0.3,1.5v0.8c0,0.5-0.1,1.1-0.3,1.5
			c-0.2,0.5-0.6,0.8-1,1.1c-0.5,0.3-1.1,0.4-1.6,0.4c-0.6,0-1.1-0.1-1.6-0.4c-0.4-0.3-0.8-0.7-1-1.1
			C180.6,277.9,180.5,277.4,180.5,276.9L180.5,276.9z M182.1,276.1v0.8c0,0.4,0.1,0.9,0.3,1.2c0.2,0.4,0.7,0.6,1.1,0.5
			c0.4,0,0.9-0.2,1.1-0.5c0.2-0.4,0.3-0.8,0.3-1.2v-0.8c0-0.4-0.1-0.9-0.3-1.2c-0.2-0.4-0.7-0.6-1.1-0.5c-0.4,0-0.9,0.2-1.1,0.5
			C182.1,275.2,182,275.6,182.1,276.1L182.1,276.1z"/>
		<path class="st2" d="M196,279.7v-15.3h5.2c1,0,2,0.2,2.9,0.6c0.7,0.4,1.3,0.9,1.7,1.7c0.4,0.7,0.6,1.6,0.6,2.4
			c0,0.8-0.2,1.7-0.6,2.4c-0.4,0.7-1,1.3-1.7,1.6c-0.9,0.4-1.9,0.6-2.9,0.6H197v-1.7h4.1c0.7,0,1.4-0.1,2-0.4c0.5-0.2,0.8-0.6,1.1-1
			c0.2-0.5,0.4-1,0.3-1.6c0-0.6-0.1-1.1-0.3-1.6c-0.2-0.5-0.6-0.8-1.1-1.1c-0.6-0.3-1.3-0.4-2-0.4h-3.3v13.6L196,279.7z
			 M203.2,272.9l3.8,6.9h-2.1l-3.7-6.9H203.2z"/>
		<path class="st2" d="M213.8,280c-1,0-2-0.2-2.9-0.7c-0.8-0.5-1.4-1.2-1.8-2.1c-0.4-1-0.7-2-0.6-3.1c0-1.1,0.2-2.1,0.6-3.1
			c0.4-0.9,1-1.6,1.8-2.1c0.8-0.5,1.8-0.8,2.7-0.8c0.6,0,1.2,0.1,1.8,0.3c0.6,0.2,1.1,0.6,1.6,1c0.5,0.5,0.9,1.1,1.1,1.8
			c0.3,0.9,0.4,1.8,0.4,2.7v0.7h-8.8v-1.5h7c0-0.6-0.1-1.2-0.4-1.7c-0.5-1-1.6-1.7-2.8-1.6c-0.6,0-1.3,0.2-1.8,0.5
			c-0.5,0.3-0.9,0.8-1.2,1.4c-0.3,0.6-0.4,1.2-0.4,1.8v1c0,0.8,0.1,1.5,0.4,2.2c0.3,0.6,0.7,1,1.3,1.4c1,0.5,2.1,0.6,3.1,0.3
			c0.4-0.1,0.7-0.3,1-0.6c0.3-0.3,0.5-0.6,0.6-1l1.7,0.5c-0.2,0.6-0.5,1.1-0.9,1.5c-0.4,0.4-1,0.8-1.6,1
			C215.2,279.9,214.5,280,213.8,280z"/>
		<path class="st2" d="M230.3,268.3l-4.3,11.4h-1.8l-4.2-11.4h1.9l3.2,9.1h0.1l3.2-9.1H230.3z"/>
		<path class="st2" d="M236.8,280c-1,0-1.9-0.2-2.7-0.7c-0.8-0.5-1.4-1.2-1.8-2.1c-0.5-1-0.7-2-0.6-3.1c0-1.1,0.2-2.2,0.6-3.1
			c1.3-2.5,4.4-3.5,6.9-2.2c0.1,0.1,0.2,0.1,0.3,0.2c0.8,0.5,1.4,1.2,1.8,2.1c0.5,1,0.7,2.1,0.6,3.1c0,1.1-0.2,2.1-0.6,3.1
			c-0.4,0.8-1,1.6-1.8,2.1C238.7,279.8,237.8,280,236.8,280z M236.8,278.4c0.7,0,1.4-0.2,1.9-0.6c0.5-0.4,0.9-1,1.1-1.6
			c0.5-1.4,0.5-2.9,0-4.3c-0.2-0.6-0.6-1.2-1.1-1.6c-1.2-0.8-2.7-0.8-3.9,0c-0.5,0.4-0.9,1-1.1,1.6c-0.5,1.4-0.5,2.9,0,4.3
			c0.2,0.6,0.6,1.2,1.1,1.6C235.4,278.2,236.1,278.4,236.8,278.4L236.8,278.4z"/>
		<path class="st2" d="M246.4,264.5v15.3h-1.8v-15.3H246.4z"/>
		<path class="st2" d="M259,268.3l-4.2,11.5H253l-4.2-11.5h1.9l3.2,9.1h0.2l3.2-9.1H259z"/>
		<path class="st2" d="M262.3,266.4c-0.3,0-0.6-0.1-0.9-0.4c-0.5-0.4-0.5-1.1-0.1-1.6c0,0,0,0,0.1-0.1c0.2-0.2,0.5-0.4,0.9-0.4
			c0.3,0,0.7,0.1,0.9,0.4c0.5,0.4,0.5,1.1,0.1,1.6c0,0,0,0-0.1,0.1C262.9,266.3,262.6,266.4,262.3,266.4z M261.4,279.7v-11.4h1.8
			v11.5L261.4,279.7z"/>
		<path class="st2" d="M268.1,272.9v6.9h-1.8v-11.5h1.7v1.8h0.1c0.3-0.6,0.7-1.1,1.2-1.4c0.6-0.4,1.4-0.6,2.1-0.5
			c0.7,0,1.4,0.2,2,0.5c0.6,0.3,1.1,0.8,1.4,1.4c0.4,0.8,0.5,1.6,0.5,2.4v7.3h-1.8v-7.1c0-0.8-0.2-1.5-0.7-2.1
			c-0.5-0.5-1.2-0.8-1.9-0.8c-0.5,0-1,0.1-1.5,0.4c-0.4,0.3-0.8,0.6-1,1.1C268.2,271.7,268.1,272.3,268.1,272.9z"/>
		<path class="st2" d="M283.3,284.3c-0.7,0-1.5-0.1-2.2-0.3c-0.6-0.2-1.1-0.5-1.5-0.9c-0.4-0.3-0.7-0.7-1-1.1l1.4-1
			c0.2,0.2,0.4,0.4,0.6,0.7c0.3,0.3,0.6,0.5,1,0.7c0.5,0.2,1.1,0.3,1.7,0.3c0.8,0,1.6-0.2,2.3-0.7c0.6-0.5,1-1.3,0.9-2.1v-2.3h-0.1
			c-0.2,0.3-0.3,0.5-0.5,0.8c-0.3,0.3-0.6,0.6-1,0.8c-0.6,0.3-1.2,0.4-1.8,0.4c-0.9,0-1.7-0.2-2.5-0.7c-0.8-0.5-1.4-1.1-1.7-1.9
			c-0.4-0.9-0.7-2-0.6-3c0-1.1,0.2-2.1,0.6-3.1c0.4-0.8,1-1.5,1.7-2c0.8-0.5,1.6-0.7,2.5-0.7c0.6,0,1.2,0.1,1.8,0.4
			c0.4,0.2,0.7,0.5,1,0.8c0.2,0.3,0.4,0.6,0.5,0.8h0.2v-1.8h1.7v11.8c0,0.9-0.2,1.7-0.7,2.4c-0.5,0.6-1.1,1.1-1.8,1.4
			C284.9,284.2,284.1,284.3,283.3,284.3z M283.2,278c0.6,0,1.3-0.1,1.8-0.5c0.5-0.3,0.9-0.8,1.1-1.4c0.3-0.7,0.4-1.4,0.4-2.2
			c0-0.7-0.1-1.5-0.4-2.2c-0.2-0.6-0.6-1.1-1.1-1.5c-1.1-0.7-2.6-0.7-3.7,0c-0.5,0.4-0.9,0.9-1.1,1.5c-0.3,0.7-0.4,1.4-0.4,2.1
			c0,0.7,0.1,1.4,0.4,2.1C280.7,277.3,281.9,278.1,283.2,278L283.2,278z"/>
		
			<image style="overflow:visible;opacity:0.15;enable-background:new    ;" width="259" height="203" xlink:href="9F201653.png"  transform="matrix(1 0 0 1 67 36)">
		</image>
		<path class="st2" d="M101.8,57h187.3c4.3,0,7.8,3.5,7.8,7.8v131.3c0,4.3-3.5,7.8-7.8,7.8H101.8c-4.3,0-7.8-3.5-7.8-7.8V64.8
			C94,60.5,97.5,57,101.8,57z"/>
		<path class="st3" d="M101.8,57h187.3c4.3,0,7.8,3.5,7.8,7.8v131.3c0,4.3-3.5,7.8-7.8,7.8H101.8c-4.3,0-7.8-3.5-7.8-7.8V64.8
			C94,60.5,97.5,57,101.8,57z"/>
		<path class="st4" d="M116.6,79.4h-1c-0.1-0.3-0.2-0.5-0.3-0.8c-0.1-0.2-0.3-0.4-0.5-0.6c-0.2-0.2-0.4-0.3-0.7-0.3
			c-0.3-0.1-0.5-0.1-0.8-0.1c-0.5,0-1,0.1-1.4,0.4c-0.4,0.3-0.8,0.7-1,1.1c-0.3,0.6-0.4,1.2-0.4,1.8c0,0.6,0.1,1.3,0.4,1.8
			c0.2,0.5,0.6,0.9,1,1.1c0.4,0.3,0.9,0.4,1.4,0.4c0.3,0,0.5,0,0.8-0.1c0.3-0.1,0.5-0.2,0.7-0.3c0.4-0.3,0.7-0.8,0.8-1.3h1
			c-0.1,0.4-0.2,0.8-0.4,1.2c-0.4,0.7-1,1.2-1.8,1.4c-0.4,0.1-0.8,0.2-1.2,0.2c-0.7,0-1.3-0.2-1.9-0.5c-0.6-0.4-1-0.9-1.3-1.5
			c-0.3-0.7-0.5-1.5-0.5-2.3c0-0.8,0.1-1.6,0.5-2.3c0.3-0.6,0.7-1.1,1.3-1.5c0.6-0.4,1.2-0.5,1.9-0.5c0.4,0,0.8,0.1,1.2,0.2
			c0.4,0.1,0.7,0.3,1,0.5c0.3,0.2,0.6,0.5,0.8,0.9C116.3,78.6,116.5,79,116.6,79.4z"/>
		<path class="st4" d="M118.2,85.2v-8.4h2.8c0.6,0,1.1,0.1,1.6,0.3c0.4,0.2,0.7,0.5,0.9,0.9c0.4,0.8,0.4,1.8,0,2.6
			c-0.2,0.4-0.5,0.7-0.9,0.9c-0.5,0.2-1,0.4-1.6,0.3h-2.3V81h2.3c0.4,0,0.7-0.1,1.1-0.2c0.3-0.1,0.5-0.3,0.6-0.6
			c0.1-0.3,0.2-0.6,0.2-0.9c0-0.3-0.1-0.6-0.2-0.9c-0.1-0.3-0.3-0.5-0.6-0.6c-0.3-0.2-0.7-0.2-1.1-0.2h-1.8v7.5L118.2,85.2z
			 M122.1,81.4l2.1,3.8H123l-2-3.8H122.1z"/>
		<path class="st4" d="M125.5,85.2v-8.4h5v0.9h-4v2.8h3.8v0.9h-3.8v2.8h4.1v0.9H125.5z"/>
		<path class="st4" d="M135,85.2h-2.6v-8.4h2.7c0.7,0,1.4,0.2,2.1,0.5c0.6,0.3,1,0.8,1.3,1.4c0.3,0.7,0.5,1.5,0.5,2.2
			c0,0.8-0.1,1.5-0.5,2.2c-0.3,0.6-0.8,1.1-1.4,1.4C136.5,85,135.8,85.2,135,85.2z M133.4,84.3h1.5c0.6,0,1.2-0.1,1.7-0.4
			c0.4-0.3,0.8-0.7,1-1.1c0.2-0.6,0.4-1.1,0.4-1.8c0-0.6-0.1-1.2-0.3-1.8c-0.2-0.5-0.6-0.9-1-1.1c-0.5-0.3-1.1-0.4-1.6-0.4h-1.6
			L133.4,84.3z"/>
		<path class="st4" d="M141.7,76.8v8.4h-1v-8.4H141.7z"/>
		<path class="st4" d="M143.2,77.7v-0.9h6.3v0.9h-2.6v7.5h-1v-7.5H143.2z"/>
		<path class="st4" d="M154.3,85.2v-8.4h2.9c0.5,0,1,0.1,1.4,0.3c0.4,0.2,0.7,0.5,0.9,0.8c0.2,0.3,0.3,0.7,0.3,1.1
			c0,0.3-0.1,0.6-0.2,0.9c-0.1,0.2-0.3,0.4-0.5,0.6c-0.2,0.1-0.4,0.2-0.7,0.3v0.1c0.3,0,0.5,0.1,0.8,0.3c0.3,0.2,0.5,0.4,0.6,0.7
			c0.2,0.3,0.3,0.7,0.3,1.1c0,0.4-0.1,0.8-0.3,1.1c-0.2,0.4-0.5,0.6-0.9,0.8c-0.5,0.2-1.1,0.3-1.6,0.3H154.3z M155.3,80.5h1.9
			c0.3,0,0.6-0.1,0.8-0.2c0.2-0.1,0.4-0.3,0.6-0.5c0.1-0.2,0.2-0.5,0.2-0.8c0-0.3-0.1-0.7-0.4-0.9c-0.3-0.3-0.8-0.4-1.2-0.4h-1.9
			V80.5z M155.3,84.3h2c0.5,0,1-0.1,1.4-0.4c0.3-0.2,0.4-0.6,0.4-0.9c0-0.3-0.1-0.6-0.2-0.8c-0.1-0.2-0.4-0.4-0.6-0.6
			c-0.3-0.2-0.6-0.2-0.9-0.2h-2.1L155.3,84.3z"/>
		<path class="st4" d="M162.1,85.2h-1.1l3.1-8.4h1l3.1,8.4h-1.1l-2.5-7h-0.1L162.1,85.2z M162.5,81.9h4.3v0.9h-4.3V81.9z"/>
		<path class="st4" d="M169.6,85.2v-8.4h1v7.5h3.9v0.9H169.6z"/>
		<path class="st4" d="M176.9,85.2h-1.1l3.1-8.4h1.1l3.1,8.4h-1.1l-2.5-7h-0.1L176.9,85.2z M177.3,81.9h4.3v0.9h-4.3V81.9z"/>
		<path class="st4" d="M190.9,76.8v8.4h-1l-4.6-6.6h-0.1v6.6h-1v-8.4h1l4.6,6.6h0.1v-6.6H190.9z"/>
		<path class="st4" d="M199.7,79.4h-1c-0.1-0.3-0.2-0.5-0.3-0.8c-0.1-0.2-0.3-0.4-0.5-0.6c-0.2-0.1-0.5-0.3-0.7-0.3
			c-0.3-0.1-0.5-0.1-0.8-0.1c-0.5,0-1,0.1-1.4,0.4c-0.4,0.3-0.8,0.7-1,1.1c-0.3,0.6-0.4,1.2-0.4,1.8c0,0.6,0.1,1.3,0.4,1.8
			c0.2,0.5,0.6,0.9,1,1.1c0.4,0.3,0.9,0.4,1.4,0.4c0.3,0,0.5,0,0.8-0.1c0.3-0.1,0.5-0.2,0.7-0.3c0.2-0.2,0.4-0.3,0.5-0.6
			c0.1-0.2,0.3-0.5,0.3-0.8h1c-0.1,0.4-0.2,0.8-0.4,1.2c-0.2,0.3-0.4,0.6-0.8,0.8c-0.3,0.2-0.6,0.4-1,0.5c-0.4,0.1-0.8,0.2-1.2,0.2
			c-0.7,0-1.3-0.2-1.9-0.5c-0.6-0.4-1-0.9-1.3-1.5c-0.3-0.7-0.5-1.5-0.5-2.3c0-0.8,0.1-1.6,0.5-2.3c0.6-1.2,1.8-2,3.2-2
			c0.4,0,0.8,0.1,1.2,0.2c0.4,0.1,0.7,0.3,1,0.5c0.3,0.2,0.6,0.5,0.8,0.9C199.5,78.7,199.6,79,199.7,79.4z"/>
		<path class="st4" d="M201.3,85.2v-8.4h5.1v0.9h-4v2.8h3.8v0.9h-3.8v2.8h4.1v0.9H201.3z"/>
		<path class="st5" d="M122.9,168.4c-0.1-0.9-0.6-1.7-1.4-2.2c-0.9-0.5-1.9-0.8-2.9-0.8c-0.8,0-1.5,0.1-2.2,0.4
			c-0.6,0.2-1.1,0.6-1.5,1.1c-0.3,0.5-0.5,1-0.5,1.6c0,0.5,0.1,0.9,0.4,1.3c0.2,0.4,0.6,0.7,0.9,0.9c0.4,0.2,0.8,0.4,1.2,0.6
			c0.4,0.1,0.8,0.3,1.2,0.4l1.9,0.5c0.6,0.2,1.1,0.3,1.7,0.5c0.6,0.2,1.2,0.5,1.8,0.9c0.6,0.4,1,0.9,1.4,1.5
			c0.4,0.7,0.6,1.5,0.5,2.3c0,1-0.3,2-0.8,2.8c-0.6,0.9-1.4,1.6-2.3,2c-1.2,0.5-2.4,0.8-3.7,0.7c-1.2,0-2.4-0.2-3.5-0.7
			c-0.9-0.4-1.7-1-2.3-1.8c-0.6-0.8-0.9-1.8-1-2.7h2.4c0,0.7,0.3,1.3,0.7,1.8c0.4,0.5,1,0.8,1.6,1c0.7,0.2,1.4,0.3,2.1,0.3
			c0.8,0,1.6-0.1,2.4-0.4c0.6-0.3,1.2-0.7,1.7-1.2c0.4-0.5,0.6-1.2,0.6-1.8c0-0.6-0.2-1.1-0.5-1.5c-0.4-0.4-0.9-0.8-1.4-1
			c-0.6-0.3-1.2-0.5-1.9-0.6l-2.3-0.7c-1.3-0.3-2.5-1-3.5-1.8c-0.9-0.8-1.3-1.9-1.3-3.1c0-1,0.3-2,0.9-2.8c0.6-0.8,1.4-1.5,2.3-1.9
			c2.1-0.9,4.5-0.9,6.6,0c0.9,0.4,1.7,1,2.3,1.8c0.6,0.7,0.9,1.6,0.9,2.6L122.9,168.4z M117.8,185v-23.8h1.5V185H117.8z"/>
		<path class="st5" d="M135,182.9c-1.2,0-2.3-0.2-3.4-0.7c-0.9-0.4-1.7-1.1-2.3-1.9c-0.5-0.8-0.8-1.8-0.8-2.7c0-0.8,0.2-1.5,0.5-2.2
			c0.3-0.7,0.8-1.3,1.3-1.7c0.5-0.4,1.2-0.8,1.9-0.9v-0.1c-0.9-0.2-1.7-0.8-2.2-1.5c-1-1.6-1.1-3.7-0.1-5.3c0.5-0.8,1.2-1.4,2.1-1.8
			c1.9-0.9,4.1-0.9,5.9,0c0.8,0.4,1.5,1,2,1.8c0.5,0.8,0.8,1.7,0.8,2.6c0,1-0.3,1.9-0.8,2.7c-0.5,0.8-1.3,1.3-2.1,1.5v0.1
			c0.7,0.1,1.3,0.4,1.9,0.9c0.6,0.5,1,1.1,1.3,1.7c0.3,0.7,0.5,1.5,0.5,2.2c0,1-0.3,1.9-0.8,2.7c-0.6,0.8-1.4,1.5-2.3,1.9
			C137.3,182.7,136.1,182.9,135,182.9z M135,180.9c0.8,0,1.5-0.1,2.2-0.4c0.6-0.2,1.1-0.7,1.4-1.2c0.3-0.5,0.5-1.1,0.5-1.8
			c0-0.7-0.2-1.3-0.6-1.9c-0.4-0.6-0.9-1-1.5-1.3c-1.4-0.6-2.9-0.6-4.3,0c-0.6,0.3-1.1,0.7-1.5,1.3c-0.4,0.6-0.6,1.2-0.5,1.9
			c0,0.6,0.2,1.3,0.5,1.8c0.4,0.5,0.9,0.9,1.4,1.2C133.5,180.7,134.2,180.9,135,180.9L135,180.9z M135,171.9c0.6,0,1.3-0.1,1.8-0.4
			c1.1-0.5,1.7-1.7,1.7-2.9c0-0.6-0.1-1.2-0.4-1.7c-0.3-0.5-0.7-0.9-1.2-1.1c-0.6-0.3-1.2-0.4-1.8-0.4c-0.6,0-1.3,0.1-1.9,0.4
			c-0.5,0.2-0.9,0.6-1.2,1.1c-0.3,0.5-0.4,1.1-0.4,1.7c-0.1,1.2,0.6,2.3,1.7,2.9C133.7,171.7,134.4,171.8,135,171.9L135,171.9z"/>
		<path class="st5" d="M145.6,182.6l8.5-16.8v-0.1h-9.8v-2h12.2v2.1l-8.5,16.8H145.6z"/>
		<path class="st5" d="M158,178.7v-1.9l8.4-13.2h1.4v2.9h-0.9l-6.3,10v0.1h11.2v2L158,178.7z M166.9,182.6v-19h2.2v19H166.9z"/>
		<path class="st5" d="M177.6,180l-0.1,1c-0.1,0.7-0.3,1.5-0.5,2.3s-0.4,1.6-0.7,2.3s-0.4,1.3-0.6,1.7h-1.7l0.3-1.6
			c0.1-0.6,0.3-1.4,0.4-2.2s0.2-1.6,0.3-2.4l0.1-1L177.6,180z"/>
		<path class="st5" d="M187.3,182.9c-1.1,0-2.2-0.2-3.3-0.6c-0.9-0.4-1.7-1-2.3-1.8c-0.6-0.8-0.9-1.7-0.9-2.6h2.3
			c0,0.6,0.3,1.1,0.6,1.6c0.4,0.4,0.9,0.8,1.5,1c1.3,0.5,2.8,0.5,4.2-0.1c0.6-0.3,1.1-0.7,1.5-1.2c0.4-0.5,0.5-1.1,0.5-1.8
			c0-0.7-0.2-1.3-0.5-1.9c-0.4-0.6-0.9-1-1.5-1.3c-0.8-0.3-1.6-0.5-2.4-0.5h-1.5v-2h1.5c0.7,0,1.4-0.1,2-0.4c0.5-0.2,1-0.6,1.4-1.1
			c0.3-0.5,0.5-1.1,0.5-1.7c0-0.6-0.1-1.2-0.4-1.7c-0.3-0.5-0.7-0.9-1.2-1.1c-0.6-0.3-1.2-0.4-1.8-0.4c-0.6,0-1.3,0.1-1.9,0.4
			c-0.5,0.2-1,0.6-1.4,1c-0.4,0.5-0.6,1-0.6,1.6h-2.2c0-0.9,0.3-1.9,0.9-2.6c0.6-0.8,1.3-1.4,2.2-1.8c0.9-0.4,2-0.6,3-0.6
			c1,0,2.1,0.2,3,0.7c0.8,0.4,1.5,1.1,1.9,1.9c0.4,0.8,0.7,1.6,0.7,2.5c0,1-0.3,1.9-0.8,2.7c-0.6,0.8-1.4,1.3-2.3,1.6v0.1
			c1.1,0.1,2.1,0.7,2.8,1.5c0.7,0.9,1,1.9,1,3c0,1-0.3,2-0.8,2.8c-0.6,0.8-1.4,1.5-2.3,1.9C189.6,182.6,188.4,182.9,187.3,182.9z"/>
		<path class="st5" d="M197.1,178.7v-1.9l8.4-13.2h1.4v2.9h-0.9l-6.3,10v0.1h11.2v2L197.1,178.7z M206,182.6v-19h2.2v19H206z"/>
		<path class="st5" d="M220.7,163.6v19h-2.3V166h-0.1l-4.6,3.1v-2.3l4.8-3.2L220.7,163.6z"/>
		<path class="st6" d="M277.4,168.2v14.4c0,0.7-0.5,1.2-1.2,1.2l0,0h-28.8c-0.7,0-1.2-0.5-1.2-1.2v-14.4H277.4z"/>
		<path class="st7" d="M276.2,161h-28.8c-1.3,0-2.4,1.1-2.4,2.4c0,0,0,0,0,0v19.2c0,1.3,1.1,2.4,2.4,2.4c0,0,0,0,0,0h28.8
			c1.3,0,2.4-1.1,2.4-2.4c0,0,0,0,0,0v-19.2C278.6,162.1,277.5,161,276.2,161C276.2,161,276.2,161,276.2,161z M276.2,163.4v3.6
			h-28.8v-3.6H276.2z M276.2,182.6h-28.8v-13.2h28.8L276.2,182.6z M273.8,179c0,0.7-0.5,1.2-1.2,1.2l0,0h-4.8
			c-0.7,0-1.2-0.5-1.2-1.2c0-0.7,0.5-1.2,1.2-1.2h4.8C273.3,177.8,273.8,178.3,273.8,179L273.8,179z M264.2,179
			c0,0.7-0.5,1.2-1.2,1.2l0,0h-2.4c-0.7,0-1.2-0.5-1.2-1.2c0-0.7,0.5-1.2,1.2-1.2c0,0,0,0,0,0h2.4
			C263.7,177.8,264.2,178.3,264.2,179C264.2,179,264.2,179,264.2,179L264.2,179z"/>
		<path class="st2" d="M122.7,283.1h-21.3c-1.9,0-3.4-1.5-3.4-3.4l0,0v-13.3c0-1.9,1.5-3.4,3.4-3.4h0h21.3c1.9,0,3.4,1.5,3.4,3.4
			l0,0v13.3C126.1,281.6,124.6,283.1,122.7,283.1L122.7,283.1z M101.3,264.4c-1.1,0-1.9,0.9-1.9,1.9v13.3c0,1.1,0.9,1.9,1.9,1.9
			h21.3c1.1,0,1.9-0.9,1.9-1.9v-13.3c0-1.1-0.9-1.9-1.9-1.9H101.3z"/>
		<path class="st2" d="M112,277.8c-2.6,0-4.8-2.1-4.8-4.8s2.1-4.8,4.8-4.8s4.8,2.1,4.8,4.8l0,0C116.8,275.6,114.6,277.8,112,277.8z
			 M112,269.8c-1.8,0-3.2,1.5-3.2,3.2s1.5,3.2,3.2,3.2s3.2-1.5,3.2-3.2C115.2,271.2,113.8,269.8,112,269.8z M120.7,273.8
			c-0.4,0-0.7-0.3-0.7-0.8c0-0.2,0.1-0.3,0.2-0.5l0,0c0.3-0.3,0.7-0.3,1.1-0.1c0,0,0,0,0,0c0.3,0.3,0.3,0.7,0.1,1.1
			C121.1,273.7,120.9,273.8,120.7,273.8L120.7,273.8z M103.3,273.8c-0.2,0-0.4-0.1-0.5-0.2c-0.3-0.3-0.3-0.8,0-1c0,0,0,0,0,0l0,0
			c0.3-0.3,0.8-0.3,1.1,0c0.3,0.3,0.3,0.8,0.1,1.1c0,0,0,0,0,0C103.8,273.7,103.6,273.8,103.3,273.8z"/>
		<path class="st1" d="M113.9,121h7.4c2.1,0,3.9,1.7,3.9,3.9v13.2c0,2.1-1.7,3.9-3.9,3.9h-7.4c-2.1,0-3.9-1.7-3.9-3.9v-13.2
			C110,122.7,111.7,121,113.9,121z"/>
		<path class="st1" d="M132.9,100h7.4c2.1,0,3.9,1.7,3.9,3.9v34.2c0,2.1-1.7,3.9-3.9,3.9h-7.4c-2.1,0-3.9-1.7-3.9-3.9v-34.2
			C129,101.7,130.7,100,132.9,100z"/>
		<path class="st1" d="M151.8,109h7.4c2.1,0,3.9,1.7,3.9,3.9v25.2c0,2.1-1.7,3.9-3.9,3.9h-7.4c-2.1,0-3.9-1.7-3.9-3.9v-25.2
			C147.9,110.7,149.7,109,151.8,109z"/>
		<path class="st1" d="M170.8,118h7.4c2.1,0,3.9,1.7,3.9,3.9v16.2c0,2.1-1.7,3.9-3.9,3.9h-7.4c-2.1,0-3.9-1.7-3.9-3.9v-16.2
			C166.9,119.7,168.7,118,170.8,118z"/>
		<path class="st1" d="M189.8,122h7.4c2.1,0,3.9,1.7,3.9,3.9v12.2c0,2.1-1.7,3.9-3.9,3.9h-7.4c-2.1,0-3.9-1.7-3.9-3.9v-12.2
			C185.9,123.7,187.6,122,189.8,122z"/>
		<path class="st1" d="M208.8,127h7.4c2.1,0,3.9,1.7,3.9,3.9v7.2c0,2.1-1.7,3.9-3.9,3.9h-7.4c-2.1,0-3.9-1.7-3.9-3.9v-7.2
			C204.9,128.7,206.6,127,208.8,127z"/>
		<path class="st1" d="M227.7,130h7.4c2.1,0,3.9,1.7,3.9,3.9v4.2c0,2.1-1.7,3.9-3.9,3.9h-7.4c-2.1,0-3.9-1.7-3.9-3.9v-4.2
			C223.9,131.7,225.6,130,227.7,130z"/>
		<path class="st1" d="M246.7,122h7.4c2.1,0,3.9,1.7,3.9,3.9v12.2c0,2.1-1.7,3.9-3.9,3.9h-7.4c-2.1,0-3.9-1.7-3.9-3.9v-12.2
			C242.8,123.7,244.6,122,246.7,122z"/>
		<path class="st1" d="M265.7,116h7.4c2.1,0,3.9,1.7,3.9,3.9v18.2c0,2.1-1.7,3.9-3.9,3.9h-7.4c-2.1,0-3.9-1.7-3.9-3.9v-18.2
			C261.8,117.7,263.6,116,265.7,116z"/>
	</g>
</g>
</svg>
