<?xml version="1.0" encoding="utf-8"?>
<!-- Generator: Adobe Illustrator 28.2.0, SVG Export Plug-In . SVG Version: 6.00 Build 0)  -->
<svg version="1.1" id="Layer_1" xmlns="http://www.w3.org/2000/svg" xmlns:xlink="http://www.w3.org/1999/xlink" x="0px" y="0px"
	 viewBox="0 0 389 389" style="enable-background:new 0 0 389 389;" xml:space="preserve">
<style type="text/css">
	.st0{fill:none;stroke:#BBBDC4;stroke-linecap:round;stroke-linejoin:round;}
	.st1{fill:none;stroke:#BBBDC4;stroke-linecap:round;stroke-linejoin:round;stroke-dasharray:7.92,7.92;}
	.st2{fill:#8B5CF6;}
	.st3{fill:#FFFFFF;}
	.st4{opacity:0.2;fill:#FFFFFF;enable-background:new    ;}
	.st5{fill:none;stroke:#DEDCE5;stroke-miterlimit:10;}
	.st6{fill:#222028;}
	.st7{fill:#70767C;}
	.st8{fill:#B8BAC1;}
	.st9{fill:none;stroke:#8B5CF6;stroke-width:2;stroke-miterlimit:10;}
</style>
<g>
	<g id="bd1b8123-aa72-4075-a677-6c7968c0ed53">
		<line class="st0" x1="64.5" y1="167.5" x2="64.5" y2="163.5"/>
		<path class="st1" d="M64.5,155.6v-44.3c0-10.3,8.4-18.7,18.7-18.8c0,0,0,0,0,0h224.5c10.3,0,18.7,8.4,18.8,18.7c0,0,0,0,0,0v48.3"
			/>
		<line class="st0" x1="326.5" y1="163.5" x2="326.5" y2="167.5"/>
		
			<image style="overflow:visible;opacity:0.45;enable-background:new    ;" width="255" height="122" xlink:href="E6963E8A.png"  transform="matrix(1 0 0 1 67 48)">
		</image>
		<path class="st2" d="M127,68.5h133c18.5,0,33.5,15,33.5,33.5l0,0c0,18.5-15,33.5-33.5,33.5H127c-18.5,0-33.5-15-33.5-33.5l0,0
			C93.5,83.5,108.5,68.5,127,68.5z"/>
		<path class="st3" d="M150,101.9V100h11.4v1.9L150,101.9z M154.7,106.6V95.2h1.9v11.4L154.7,106.6z"/>
		<path class="st3" d="M175.5,96.5c-0.1-0.8-0.6-1.6-1.3-2c-0.8-0.5-1.8-0.8-2.7-0.7c-0.7,0-1.4,0.1-2.1,0.4c-0.5,0.2-1,0.6-1.4,1
			c-0.3,0.4-0.5,1-0.5,1.5c0,0.4,0.1,0.9,0.4,1.2c0.2,0.3,0.5,0.6,0.9,0.8c0.4,0.2,0.7,0.4,1.1,0.6c0.4,0.1,0.8,0.2,1.1,0.3l1.8,0.5
			c0.5,0.1,1,0.3,1.5,0.5c0.6,0.2,1.1,0.5,1.6,0.9c0.5,0.4,1,0.8,1.3,1.4c0.4,0.6,0.5,1.4,0.5,2.1c0,0.9-0.2,1.8-0.7,2.6
			c-0.5,0.8-1.3,1.4-2.2,1.8c-2.2,0.9-4.6,0.9-6.8,0.1c-0.9-0.4-1.6-1-2.2-1.7c-0.5-0.7-0.8-1.6-0.9-2.6h2.2c0,0.6,0.3,1.2,0.7,1.7
			c0.4,0.5,0.9,0.8,1.5,1c0.6,0.2,1.3,0.3,2,0.3c0.8,0,1.5-0.1,2.2-0.4c0.6-0.2,1.1-0.6,1.6-1.1c0.4-0.5,0.6-1.1,0.6-1.7
			c0-0.5-0.2-1-0.5-1.4c-0.4-0.4-0.8-0.7-1.3-0.9c-0.6-0.2-1.1-0.4-1.7-0.6l-2.2-0.6c-1.2-0.3-2.3-0.9-3.3-1.7
			c-0.8-0.7-1.3-1.8-1.2-2.9c0-0.9,0.3-1.8,0.8-2.6c0.6-0.8,1.3-1.4,2.2-1.7c1-0.4,2-0.6,3.1-0.6c1,0,2.1,0.2,3,0.6
			c0.8,0.4,1.6,0.9,2.1,1.7c0.5,0.7,0.8,1.5,0.8,2.4L175.5,96.5z M170.8,112V89.8h1.4V112H170.8z"/>
		<path class="st3" d="M181.1,109.8v-1.6l5.8-6.4c0.7-0.8,1.2-1.4,1.7-2c0.4-0.5,0.7-1,1-1.6c0.2-0.5,0.3-1,0.3-1.6
			c0-0.6-0.1-1.1-0.4-1.6c-0.3-0.4-0.7-0.8-1.2-1c-0.5-0.3-1.1-0.4-1.7-0.4c-0.6,0-1.2,0.1-1.8,0.4c-0.5,0.3-0.9,0.7-1.2,1.2
			c-0.3,0.5-0.4,1.1-0.4,1.8h-2c0-1,0.2-1.9,0.7-2.7c0.5-0.8,1.1-1.4,1.9-1.8c0.9-0.4,1.8-0.7,2.8-0.7c1,0,1.9,0.2,2.8,0.7
			c0.8,0.4,1.4,1,1.9,1.8c0.5,0.7,0.7,1.6,0.7,2.5c0,0.7-0.1,1.3-0.4,1.9c-0.3,0.7-0.7,1.4-1.2,2.1c-0.6,0.8-1.4,1.7-2.4,2.8l-4,4.3
			v0.1h8.2v1.9L181.1,109.8z"/>
		<path class="st3" d="M197.3,109.9c-0.9,0-1.6-0.7-1.6-1.6s0.7-1.6,1.6-1.6c0.9,0,1.6,0.7,1.6,1.6c0,0.3-0.1,0.5-0.2,0.8
			c-0.1,0.2-0.3,0.4-0.6,0.6C197.9,109.8,197.6,109.9,197.3,109.9z"/>
		<path class="st3" d="M207.7,110c-1,0-1.9-0.2-2.8-0.6c-0.8-0.4-1.5-0.9-1.9-1.7c-0.5-0.7-0.8-1.5-0.8-2.4h2.1
			c0.1,0.8,0.5,1.5,1.1,2c0.7,0.5,1.5,0.8,2.3,0.8c1.4,0,2.6-0.7,3.3-1.9c0.7-1.3,0.7-2.8,0-4.1c-0.3-0.6-0.8-1.1-1.4-1.4
			c-0.6-0.4-1.3-0.5-2-0.5c-0.6,0-1.1,0.1-1.7,0.2c-0.5,0.1-1,0.4-1.4,0.7l-2-0.2l1.1-8.7h9.2V94h-7.4l-0.6,5.2h0.1
			c0.4-0.3,0.9-0.6,1.4-0.7c0.5-0.2,1.1-0.3,1.7-0.3c1,0,2,0.3,2.9,0.8c0.8,0.5,1.5,1.2,2,2.1c0.5,0.9,0.8,2,0.7,3.1
			c0,1-0.2,2.1-0.8,3c-0.5,0.9-1.2,1.6-2.1,2.1C209.8,109.8,208.8,110,207.7,110z"/>
		<path class="st3" d="M217.3,109.8V92.1h2.1v8.8h0.2l8-8.8h2.8l-7.4,8l7.4,9.7h-2.6l-6.1-8.2l-2.2,2.5v5.7L217.3,109.8z"/>
		<path class="st4" d="M140.1,101.8c0,5.6-4.5,10.1-10.1,10.1c-5.6,0-10.1-4.5-10.1-10.1c0-5.6,4.5-10.1,10.1-10.1
			S140.1,96.3,140.1,101.8L140.1,101.8z"/>
		<path class="st3" d="M130,90.8c-6.1,0-11,4.9-11,11s4.9,11,11,11s11-4.9,11-11S136.1,90.8,130,90.8z M130,111
			c-5.1,0-9.2-4.1-9.2-9.2c0-5.1,4.1-9.2,9.2-9.2c5.1,0,9.2,4.1,9.2,9.2l0,0C139.2,106.9,135.1,111,130,111z M135.2,96.6
			c0.4,0.4,0.4,0.9,0,1.3l0,0l-4.6,4.6c-0.3,0.4-0.9,0.4-1.3,0.1c-0.4-0.3-0.4-0.9-0.1-1.3c0,0,0,0,0.1-0.1l4.6-4.6
			C134.3,96.2,134.9,96.2,135.2,96.6z M126.3,88.1c0-0.5,0.4-0.9,0.9-0.9h5.5c0.5-0.1,1,0.3,1,0.8c0.1,0.5-0.3,1-0.8,1
			c-0.1,0-0.1,0-0.2,0h-5.5C126.7,89,126.3,88.6,126.3,88.1z"/>
		<path class="st3" d="M260.3,91.3c0.2,0,0.5,0.1,0.7,0.3l8.7,8.7c0.1,0.1,0.2,0.2,0.2,0.3c0,0.1,0.1,0.2,0.1,0.4l0,0
			c0,0.1,0,0.2-0.1,0.4c0,0.1-0.1,0.2-0.2,0.3l-8.7,8.7c-0.4,0.4-0.9,0.4-1.3,0c0,0,0,0,0,0c-0.4-0.4-0.4-1,0-1.3l7.1-7.1h-15.2
			c-0.5,0-0.9-0.4-0.9-0.9c0-0.5,0.4-0.9,0.9-0.9h15.2l-7.1-7.1c-0.4-0.4-0.4-1,0-1.3C259.8,91.4,260.1,91.3,260.3,91.3z"/>
		<g transform="translate(12 140)">
			
				<image style="overflow:visible;enable-background:new    ;" width="201" height="201" id="bef67e78-2122-48f2-8d68-349a8f51f326" xlink:href="E6963E8E.png"  transform="matrix(1 0 0 1 12 140)">
			</image>
		</g>
		<path class="st3" d="M47.3,160.5h128.4c4.9,0,8.8,3.9,8.8,8.8v128.4c0,4.9-3.9,8.8-8.8,8.8H47.3c-4.9,0-8.8-3.9-8.8-8.8V169.3
			C38.5,164.4,42.4,160.5,47.3,160.5z"/>
		<path class="st5" d="M47.3,160.5h128.4c4.9,0,8.8,3.9,8.8,8.8v128.4c0,4.9-3.9,8.8-8.8,8.8H47.3c-4.9,0-8.8-3.9-8.8-8.8V169.3
			C38.5,164.4,42.4,160.5,47.3,160.5z"/>
		<g transform="translate(177 140)">
			
				<image style="overflow:visible;enable-background:new    ;" width="201" height="201" id="bef67e78-2122-48f2-8d68-349a8f51f326_00000051368093693051571910000004806980055994421940_" xlink:href="E6963E89.png"  transform="matrix(1 0 0 1 177 140)">
			</image>
		</g>
		<path class="st3" d="M212.3,160.5h128.4c4.9,0,8.8,3.9,8.8,8.8v128.4c0,4.9-3.9,8.8-8.8,8.8H212.3c-4.9,0-8.8-3.9-8.8-8.8V169.3
			C203.5,164.4,207.4,160.5,212.3,160.5z"/>
		<path class="st5" d="M212.3,160.5h128.4c4.9,0,8.8,3.9,8.8,8.8v128.4c0,4.9-3.9,8.8-8.8,8.8H212.3c-4.9,0-8.8-3.9-8.8-8.8V169.3
			C203.5,164.4,207.4,160.5,212.3,160.5z"/>
		<path class="st6" d="M67,274c-0.1-0.9-0.6-1.7-1.3-2.2c-0.9-0.5-1.9-0.8-2.9-0.8c-0.8,0-1.5,0.1-2.2,0.4c-0.6,0.2-1.1,0.6-1.5,1.1
			c-0.3,0.5-0.5,1-0.5,1.6c0,0.5,0.1,0.9,0.4,1.3c0.3,0.4,0.6,0.7,1,0.9c0.4,0.2,0.8,0.4,1.2,0.6c0.4,0.1,0.8,0.3,1.2,0.4l1.9,0.5
			c0.6,0.2,1.1,0.3,1.7,0.5c0.6,0.2,1.2,0.5,1.8,0.9c0.6,0.4,1,0.9,1.4,1.5c0.4,0.7,0.6,1.5,0.6,2.2c0,1-0.3,2-0.8,2.8
			c-0.6,0.9-1.4,1.6-2.3,2c-1.2,0.5-2.4,0.8-3.7,0.7c-1.2,0-2.4-0.2-3.5-0.7c-0.9-0.4-1.7-1-2.3-1.8c-0.6-0.8-0.9-1.7-1-2.7h2.4
			c0,0.7,0.3,1.3,0.7,1.8c0.4,0.5,1,0.8,1.6,1c0.7,0.2,1.4,0.3,2.1,0.3c0.8,0,1.6-0.1,2.4-0.4c0.6-0.3,1.2-0.7,1.7-1.2
			c0.4-0.5,0.6-1.2,0.6-1.8c0-0.6-0.2-1.1-0.5-1.5c-0.4-0.4-0.9-0.8-1.4-1c-0.6-0.3-1.2-0.5-1.9-0.6l-2.3-0.7
			c-1.3-0.3-2.5-0.9-3.5-1.8c-0.9-0.8-1.3-1.9-1.3-3.1c0-1,0.3-2,0.9-2.8c0.6-0.8,1.4-1.5,2.3-1.9c1-0.5,2.2-0.7,3.3-0.7
			c1.1,0,2.2,0.2,3.3,0.6c0.9,0.4,1.7,1,2.3,1.8c0.6,0.7,0.9,1.6,0.9,2.6L67,274z M61.9,290.6v-23.8h1.5v23.8L61.9,290.6z"/>
		<path class="st6" d="M79.7,269.2v19h-2.3v-16.6h-0.1l-4.6,3.1v-2.3l4.8-3.1H79.7z"/>
		<path class="st6" d="M85.1,288.2v-1.7l6.3-6.9c0.7-0.8,1.3-1.5,1.8-2.1c0.4-0.5,0.8-1.1,1.1-1.7c0.2-0.5,0.3-1.1,0.3-1.7
			c0-0.6-0.2-1.2-0.5-1.7c-0.3-0.5-0.8-0.9-1.3-1.1c-0.6-0.3-1.2-0.4-1.8-0.4c-0.7,0-1.3,0.1-1.9,0.5c-0.5,0.3-1,0.7-1.2,1.3
			c-0.3,0.6-0.5,1.2-0.4,1.9h-2.2c0-1,0.2-2,0.8-2.9c0.5-0.8,1.2-1.5,2.1-2c0.9-0.5,2-0.7,3-0.7c1,0,2.1,0.2,3,0.7
			c0.8,0.4,1.5,1.1,2,1.9c0.5,0.8,0.7,1.7,0.7,2.7c0,0.7-0.1,1.4-0.4,2c-0.3,0.8-0.8,1.5-1.3,2.2c-0.8,1-1.6,2-2.6,3l-4.3,4.6v0.1
			h8.8v2L85.1,288.2z"/>
		<path class="st6" d="M101.3,288.2v-19h2.3v9.4h0.2l8.5-9.4h3l-8,8.6l8,10.4h-2.8l-6.6-8.8l-2.4,2.7v6.2L101.3,288.2z"/>
		<path class="st6" d="M233,274c-0.1-0.9-0.6-1.7-1.4-2.2c-0.9-0.5-1.9-0.8-2.9-0.8c-0.8,0-1.5,0.1-2.2,0.4
			c-0.6,0.2-1.1,0.6-1.5,1.1c-0.3,0.5-0.5,1-0.5,1.6c0,0.5,0.1,0.9,0.4,1.3c0.3,0.4,0.6,0.7,0.9,0.9c0.4,0.2,0.8,0.4,1.2,0.6
			c0.4,0.1,0.8,0.3,1.2,0.4l1.9,0.5c0.6,0.2,1.1,0.3,1.7,0.5c0.6,0.2,1.2,0.5,1.8,0.9c0.6,0.4,1,0.9,1.4,1.5
			c0.4,0.7,0.6,1.5,0.6,2.2c0,1-0.3,2-0.8,2.8c-0.6,0.9-1.4,1.6-2.3,2c-1.2,0.5-2.4,0.8-3.7,0.7c-1.2,0-2.4-0.2-3.5-0.7
			c-0.9-0.4-1.7-1-2.3-1.8c-0.6-0.8-0.9-1.7-1-2.7h2.4c0,0.7,0.3,1.3,0.7,1.8c0.4,0.5,1,0.8,1.6,1c0.7,0.2,1.4,0.3,2.1,0.3
			c0.8,0,1.6-0.1,2.4-0.4c0.6-0.3,1.2-0.7,1.7-1.2c0.4-0.5,0.6-1.2,0.6-1.8c0-0.6-0.2-1.1-0.5-1.5c-0.4-0.4-0.9-0.8-1.4-1
			c-0.6-0.3-1.2-0.5-1.9-0.6l-2.3-0.7c-1.3-0.3-2.5-0.9-3.5-1.8c-0.9-0.8-1.3-1.9-1.3-3.1c0-1,0.3-2,0.9-2.8
			c0.6-0.8,1.4-1.5,2.3-1.9c1-0.5,2.2-0.7,3.3-0.7c1.1,0,2.2,0.2,3.3,0.6c0.9,0.4,1.7,1,2.3,1.8c0.6,0.7,0.9,1.6,0.9,2.6L233,274z
			 M227.9,290.6v-23.8h1.5v23.8L227.9,290.6z"/>
		<path class="st6" d="M239,288.2v-1.7l6.3-6.9c0.7-0.8,1.3-1.5,1.8-2.1c0.4-0.5,0.8-1.1,1.1-1.7c0.2-0.5,0.3-1.1,0.4-1.7
			c0-0.6-0.2-1.2-0.5-1.7c-0.3-0.5-0.8-0.9-1.3-1.1c-0.6-0.3-1.2-0.4-1.9-0.4c-0.7,0-1.3,0.1-1.9,0.5c-0.5,0.3-1,0.7-1.2,1.3
			c-0.3,0.6-0.5,1.2-0.4,1.9h-2.2c0-1,0.2-2,0.8-2.9c0.5-0.8,1.2-1.5,2.1-2c0.9-0.5,2-0.7,3-0.7c1,0,2.1,0.2,3,0.7
			c0.8,0.4,1.5,1.1,2,1.9c0.5,0.8,0.7,1.7,0.7,2.7c0,0.7-0.1,1.4-0.4,2c-0.3,0.8-0.8,1.5-1.3,2.2c-0.8,1-1.6,2-2.6,3l-4.3,4.6v0.1
			h8.8v2L239,288.2z"/>
		<path class="st6" d="M261.2,288.5c-1.1,0-2.2-0.2-3.3-0.6c-0.9-0.4-1.7-1-2.3-1.8c-0.6-0.8-0.9-1.7-0.9-2.6h2.3
			c0,0.6,0.3,1.1,0.6,1.6c0.4,0.5,0.9,0.8,1.5,1c1.3,0.5,2.8,0.5,4.2-0.1c0.6-0.3,1.1-0.7,1.5-1.2c0.4-0.5,0.6-1.1,0.5-1.8
			c0-0.7-0.2-1.3-0.5-1.9c-0.4-0.6-0.9-1-1.5-1.3c-0.8-0.3-1.6-0.5-2.5-0.5h-1.5v-2h1.5c0.7,0,1.4-0.1,2-0.4c0.5-0.3,1-0.6,1.3-1.1
			c0.3-0.5,0.5-1.1,0.5-1.8c0-0.6-0.1-1.2-0.4-1.7c-0.3-0.5-0.7-0.9-1.2-1.1c-0.6-0.3-1.2-0.4-1.8-0.4c-0.6,0-1.3,0.1-1.9,0.4
			c-0.6,0.2-1,0.6-1.4,1c-0.4,0.5-0.6,1-0.6,1.6h-2.2c0-0.9,0.3-1.9,0.9-2.6c0.6-0.8,1.3-1.4,2.2-1.8c0.9-0.4,2-0.6,3-0.6
			c1,0,2.1,0.2,3,0.7c0.8,0.4,1.5,1.1,1.9,1.9c0.4,0.8,0.7,1.6,0.7,2.5c0,1-0.3,1.9-0.8,2.7c-0.6,0.8-1.4,1.3-2.3,1.6v0.1
			c1.1,0.1,2.1,0.7,2.8,1.5c0.7,0.9,1,1.9,1,3c0,1-0.3,2-0.8,2.8c-0.6,0.8-1.4,1.5-2.3,1.9C263.4,288.2,262.3,288.5,261.2,288.5z"/>
		<path class="st6" d="M277.5,269c0.8,0,1.6,0.2,2.3,0.4c0.8,0.3,1.5,0.8,2.1,1.4c0.7,0.8,1.2,1.7,1.5,2.8c0.4,1.4,0.6,2.9,0.6,4.4
			c0,1.5-0.1,3-0.5,4.5c-0.3,1.2-0.7,2.3-1.4,3.3c-0.6,0.8-1.3,1.5-2.2,2c-0.9,0.5-1.9,0.7-2.9,0.7c-1,0-2-0.2-2.8-0.6
			c-0.8-0.4-1.5-1-2-1.8c-0.5-0.8-0.9-1.7-1-2.6h2.3c0.2,0.8,0.6,1.6,1.2,2.1c0.7,0.6,1.5,0.9,2.4,0.9c1.4,0,2.7-0.7,3.5-1.9
			c0.9-1.6,1.4-3.5,1.3-5.4h-0.1c-0.3,0.5-0.8,1-1.2,1.4c-0.5,0.4-1,0.7-1.6,0.9c-0.6,0.2-1.2,0.3-1.9,0.3c-1.1,0-2.1-0.3-3-0.8
			c-0.9-0.5-1.7-1.3-2.2-2.2c-1.1-2-1.1-4.4,0-6.5c0.5-1,1.3-1.8,2.2-2.3C275.2,269.2,276.3,269,277.5,269z M277.5,271
			c-0.7,0-1.5,0.2-2.1,0.6c-0.6,0.4-1.1,0.9-1.5,1.6c-0.7,1.4-0.7,3,0,4.3c0.3,0.6,0.8,1.2,1.4,1.5c0.6,0.4,1.4,0.6,2.1,0.6
			c0.6,0,1.1-0.1,1.6-0.3c0.5-0.2,1-0.6,1.3-1c0.4-0.4,0.7-0.9,0.9-1.4c0.5-1.2,0.4-2.6-0.2-3.7c-0.4-0.6-0.9-1.2-1.5-1.6
			C279,271.2,278.2,271,277.5,271z"/>
		<path class="st6" d="M288,288.2v-19h2.3v9.4h0.2l8.5-9.4h3l-8,8.6l8,10.4h-2.8l-6.6-8.8l-2.4,2.7v6.2L288,288.2z"/>
		<path class="st7" d="M220.4,187.9v-8.4h2.8c0.6,0,1.1,0.1,1.6,0.3c0.4,0.2,0.7,0.5,0.9,0.9c0.2,0.4,0.3,0.9,0.3,1.3
			c0,0.5-0.1,0.9-0.3,1.3c-0.2,0.4-0.5,0.7-0.9,0.9c-0.5,0.2-1,0.3-1.6,0.3h-2.3v-0.9h2.2c0.4,0,0.7-0.1,1.1-0.2
			c0.3-0.1,0.5-0.3,0.6-0.6c0.1-0.3,0.2-0.6,0.2-0.9c0-0.3-0.1-0.6-0.2-0.9c-0.1-0.3-0.3-0.5-0.6-0.6c-0.3-0.2-0.7-0.2-1.1-0.2h-1.8
			v7.5H220.4z M224.3,184.2l2.1,3.8h-1.2l-2-3.8H224.3z"/>
		<path class="st7" d="M227.7,187.9v-8.4h5v0.9h-4v2.8h3.8v0.9h-3.8v2.8h4.1v0.9L227.7,187.9z"/>
		<path class="st7" d="M241.3,182.2h-1c-0.1-0.3-0.2-0.5-0.3-0.8c-0.1-0.2-0.3-0.4-0.5-0.6c-0.2-0.1-0.5-0.3-0.7-0.3
			c-0.3-0.1-0.5-0.1-0.8-0.1c-0.5,0-1,0.1-1.4,0.4c-0.4,0.3-0.8,0.7-1,1.1c-0.5,1.2-0.5,2.5,0,3.7c0.2,0.5,0.6,0.9,1,1.1
			c0.4,0.3,0.9,0.4,1.4,0.4c0.3,0,0.5,0,0.8-0.1c0.2-0.1,0.5-0.2,0.7-0.3c0.2-0.2,0.4-0.3,0.5-0.6c0.2-0.2,0.3-0.5,0.3-0.8h1
			c-0.1,0.4-0.2,0.8-0.4,1.1c-0.2,0.3-0.4,0.6-0.8,0.9c-0.3,0.2-0.6,0.4-1,0.5c-0.4,0.1-0.8,0.2-1.2,0.2c-0.7,0-1.3-0.2-1.9-0.5
			c-0.6-0.4-1-0.9-1.3-1.5c-0.6-1.5-0.6-3.1,0-4.6c0.3-0.6,0.7-1.1,1.3-1.5c0.9-0.6,2.1-0.7,3.1-0.3c0.4,0.1,0.7,0.3,1,0.5
			c0.3,0.2,0.6,0.5,0.8,0.9C241.1,181.4,241.2,181.8,241.3,182.2z"/>
		<path class="st7" d="M243.9,179.6v8.4h-1v-8.4H243.9z"/>
		<path class="st7" d="M246,187.9v-8.4h2.8c0.6,0,1.1,0.1,1.6,0.4c0.4,0.2,0.7,0.6,0.9,1c0.4,0.8,0.4,1.8,0,2.7
			c-0.2,0.4-0.5,0.8-0.9,1c-0.5,0.2-1,0.4-1.6,0.4h-2V184h2c0.4,0,0.8-0.1,1.1-0.2c0.3-0.1,0.5-0.4,0.6-0.6c0.1-0.3,0.2-0.6,0.2-0.9
			c0-0.3-0.1-0.6-0.2-0.9c-0.1-0.3-0.3-0.5-0.6-0.6c-0.3-0.2-0.7-0.2-1.1-0.2H247v7.5L246,187.9z"/>
		<path class="st7" d="M254.3,179.6v8.4h-1v-8.4H254.3z"/>
		<path class="st7" d="M256.3,187.9v-8.4h5v0.9h-4v2.8h3.8v0.9h-3.8v2.8h4.1v0.9L256.3,187.9z"/>
		<path class="st7" d="M269.8,179.6v8.4h-1l-4.6-6.6h-0.1v6.6h-1v-8.4h1l4.6,6.6h0.1v-6.6H269.8z"/>
		<path class="st7" d="M271.4,180.5v-0.9h6.3v0.9H275v7.5h-1v-7.5H271.4z"/>
		<path class="st8" d="M220.1,212.4h1.2l2.1,5.1h0.1l2.1-5.1h1.2v6.5h-0.9v-4.7h-0.1l-1.9,4.7H223l-1.9-4.7H221v4.7h-0.9
			L220.1,212.4z"/>
		<path class="st8" d="M229.5,219c-0.3,0-0.6-0.1-0.8-0.2c-0.5-0.2-0.8-0.8-0.8-1.3c0-0.2,0-0.5,0.1-0.7c0.1-0.2,0.3-0.3,0.4-0.4
			c0.2-0.1,0.4-0.2,0.6-0.2c0.2-0.1,0.5-0.1,0.7-0.1l0.7-0.1c0.1,0,0.3,0,0.4-0.1c0.1-0.1,0.1-0.1,0.1-0.2l0,0
			c0-0.2-0.1-0.5-0.2-0.6c-0.2-0.2-0.4-0.3-0.7-0.2c-0.3,0-0.5,0.1-0.8,0.2c-0.2,0.1-0.3,0.3-0.4,0.5l-0.9-0.2
			c0.1-0.3,0.2-0.5,0.5-0.7c0.2-0.2,0.4-0.3,0.7-0.4c0.3-0.1,0.6-0.1,0.8-0.1c0.2,0,0.4,0,0.6,0.1c0.2,0,0.4,0.1,0.6,0.2
			c0.2,0.1,0.4,0.3,0.5,0.5c0.1,0.3,0.2,0.6,0.2,0.9v3.3H231v-0.7l0,0c-0.1,0.1-0.2,0.3-0.3,0.4c-0.1,0.1-0.3,0.2-0.5,0.3
			C230,219,229.7,219,229.5,219z M229.7,218.2c0.2,0,0.5-0.1,0.7-0.2c0.4-0.2,0.6-0.6,0.6-1v-0.6c-0.1,0.1-0.1,0.1-0.2,0.1l-0.3,0.1
			l-0.4,0.1h-0.3c-0.2,0-0.3,0.1-0.5,0.1c-0.1,0.1-0.3,0.1-0.4,0.2c-0.1,0.1-0.1,0.3-0.1,0.4c0,0.2,0.1,0.4,0.3,0.5
			C229.2,218.1,229.4,218.2,229.7,218.2L229.7,218.2z"/>
		<path class="st8" d="M233.6,220.8c-0.1,0-0.3,0-0.4,0c-0.1,0-0.2,0-0.3-0.1l0.2-0.8c0.2,0,0.3,0.1,0.5,0.1c0.1,0,0.3-0.1,0.4-0.2
			c0.1-0.1,0.2-0.3,0.3-0.5l0.1-0.3l-1.8-5h1l1.2,3.8h0.1l1.2-3.8h1l-2,5.6c-0.1,0.2-0.2,0.5-0.4,0.6c-0.1,0.2-0.3,0.3-0.5,0.4
			C234.1,220.7,233.8,220.8,233.6,220.8z"/>
		<path class="st8" d="M243,212.4v6.5h-1v-5.6l0,0l-1.6,1v-0.9l1.6-1.1L243,212.4z"/>
		<path class="st8" d="M244.7,218.9v-0.7l2.2-2.3c0.2-0.2,0.4-0.5,0.6-0.6c0.1-0.2,0.3-0.3,0.4-0.5c0.1-0.2,0.1-0.4,0.1-0.5
			c0-0.2-0.1-0.4-0.2-0.6c-0.1-0.2-0.2-0.3-0.4-0.4c-0.2-0.1-0.4-0.1-0.6-0.1c-0.2,0-0.4,0-0.6,0.1c-0.2,0.1-0.3,0.2-0.4,0.4
			c-0.1,0.2-0.1,0.4-0.1,0.6h-0.9c0-0.4,0.1-0.7,0.3-1.1c0.2-0.3,0.4-0.5,0.8-0.7c0.3-0.2,0.7-0.3,1.1-0.2c0.4,0,0.8,0.1,1.1,0.2
			c0.3,0.2,0.6,0.4,0.7,0.7c0.2,0.3,0.3,0.6,0.3,1c0,0.2-0.1,0.5-0.1,0.7c-0.1,0.3-0.3,0.5-0.5,0.8c-0.2,0.3-0.5,0.6-0.9,1l-1.3,1.4
			v0.1h2.9v0.8L244.7,218.9z"/>
		<path class="st8" d="M251.5,218l-0.1,0.4c0,0.3-0.1,0.5-0.2,0.8c-0.1,0.3-0.1,0.5-0.2,0.8s-0.1,0.4-0.2,0.6h-0.7l0.1-0.5
			c0-0.2,0.1-0.5,0.1-0.8s0.1-0.6,0.1-0.8V218L251.5,218z"/>
		<path class="st8" d="M255.2,218.9v-0.7l2.2-2.3c0.2-0.2,0.4-0.5,0.6-0.6c0.1-0.2,0.3-0.3,0.3-0.5c0.1-0.2,0.1-0.4,0.1-0.5
			c0-0.2-0.1-0.4-0.2-0.6c-0.1-0.2-0.2-0.3-0.4-0.4c-0.2-0.1-0.4-0.1-0.6-0.1c-0.2,0-0.4,0-0.6,0.1c-0.2,0.1-0.3,0.2-0.4,0.4
			c-0.1,0.2-0.1,0.4-0.1,0.6h-0.9c0-0.4,0.1-0.7,0.3-1.1c0.2-0.3,0.4-0.5,0.8-0.7c0.3-0.2,0.7-0.3,1.1-0.2c0.4,0,0.8,0.1,1.1,0.2
			c0.3,0.2,0.6,0.4,0.7,0.7c0.2,0.3,0.3,0.6,0.3,1c0,0.2-0.1,0.5-0.1,0.7c-0.1,0.3-0.3,0.5-0.5,0.8c-0.3,0.4-0.6,0.7-0.9,1l-1.3,1.4
			v0.1h2.9v0.8L255.2,218.9z"/>
		<path class="st8" d="M263,219c-0.5,0-0.9-0.1-1.3-0.4c-0.4-0.3-0.7-0.7-0.8-1.1c-0.4-1.2-0.4-2.5,0-3.6c0.2-0.5,0.4-0.9,0.8-1.1
			c0.8-0.5,1.8-0.5,2.6,0c0.4,0.3,0.7,0.7,0.8,1.1c0.4,1.2,0.4,2.5,0,3.6c-0.2,0.5-0.4,0.9-0.8,1.2C263.9,218.9,263.5,219,263,219z
			 M263,218.1c0.4,0,0.8-0.3,1-0.6c0.3-0.6,0.4-1.2,0.4-1.9c0-0.5,0-0.9-0.2-1.4c-0.1-0.3-0.3-0.6-0.5-0.9c-0.2-0.2-0.5-0.3-0.8-0.3
			c-0.4,0-0.8,0.3-1,0.6c-0.3,0.6-0.4,1.2-0.4,1.9c0,0.5,0.1,0.9,0.2,1.4c0.1,0.3,0.2,0.6,0.5,0.9
			C262.4,218.1,262.7,218.2,263,218.1L263,218.1z"/>
		<path class="st8" d="M266.5,218.9v-0.7l2.2-2.3c0.2-0.2,0.4-0.5,0.6-0.6c0.1-0.2,0.3-0.3,0.4-0.5c0.1-0.2,0.1-0.4,0.1-0.5
			c0-0.2,0-0.4-0.1-0.6c-0.1-0.2-0.2-0.3-0.4-0.4c-0.2-0.1-0.4-0.1-0.6-0.1c-0.2,0-0.4,0-0.6,0.1c-0.2,0.1-0.3,0.2-0.4,0.4
			c-0.1,0.2-0.2,0.4-0.1,0.6h-0.9c0-0.4,0.1-0.7,0.3-1.1c0.2-0.3,0.4-0.5,0.8-0.7c0.3-0.2,0.7-0.3,1.1-0.2c0.4,0,0.8,0.1,1.1,0.2
			c0.3,0.2,0.6,0.4,0.7,0.7c0.3,0.5,0.3,1.1,0.1,1.7c-0.1,0.3-0.3,0.5-0.5,0.8c-0.3,0.4-0.6,0.7-0.9,1l-1.3,1.4v0.1h3v0.8
			L266.5,218.9z"/>
		<path class="st8" d="M274.4,219c-0.4,0-0.8-0.1-1.2-0.2c-0.3-0.1-0.6-0.4-0.8-0.6c-0.2-0.3-0.3-0.6-0.3-0.9h1
			c0,0.2,0.1,0.4,0.2,0.5c0.1,0.1,0.3,0.3,0.5,0.3c0.4,0.2,0.9,0.2,1.3,0c0.2-0.1,0.3-0.2,0.5-0.4c0.1-0.2,0.2-0.4,0.2-0.6
			c0-0.2,0-0.4-0.2-0.6c-0.1-0.2-0.3-0.3-0.5-0.4c-0.2-0.1-0.5-0.1-0.8-0.1h-0.5v-0.8h0.5c0.2,0,0.4,0,0.6-0.1
			c0.2-0.1,0.3-0.2,0.4-0.4c0.1-0.2,0.2-0.4,0.2-0.6c0-0.4-0.2-0.7-0.5-0.9c-0.2-0.1-0.4-0.1-0.6-0.1c-0.2,0-0.4,0-0.6,0.1
			c-0.2,0.1-0.3,0.2-0.5,0.3c-0.1,0.2-0.2,0.3-0.2,0.5h-1c0-0.3,0.1-0.7,0.3-0.9c0.2-0.3,0.5-0.5,0.8-0.6c0.3-0.2,0.7-0.2,1.1-0.2
			c0.4,0,0.8,0.1,1.1,0.2c0.3,0.2,0.5,0.4,0.7,0.6c0.2,0.3,0.3,0.6,0.2,0.9c0,0.3-0.1,0.7-0.3,0.9c-0.2,0.3-0.5,0.4-0.8,0.5l0,0
			c0.4,0,0.7,0.2,1,0.5c0.2,0.3,0.4,0.6,0.4,1c0,0.4-0.1,0.7-0.3,1c-0.2,0.3-0.5,0.5-0.8,0.7C275.1,218.9,274.7,219,274.4,219z"/>
		<path class="st7" d="M63.1,182.2h-1c-0.1-0.3-0.2-0.5-0.3-0.8c-0.1-0.2-0.3-0.4-0.5-0.6c-0.2-0.1-0.5-0.3-0.7-0.3
			c-0.3-0.1-0.5-0.1-0.8-0.1c-0.5,0-1,0.1-1.4,0.4c-0.4,0.3-0.8,0.7-1,1.1c-0.5,1.2-0.5,2.5,0,3.7c0.2,0.5,0.6,0.9,1,1.1
			c0.4,0.3,0.9,0.4,1.4,0.4c0.3,0,0.5,0,0.8-0.1c0.2-0.1,0.5-0.2,0.7-0.3c0.2-0.2,0.4-0.3,0.5-0.6c0.1-0.2,0.3-0.5,0.3-0.8h1
			c-0.1,0.4-0.2,0.8-0.4,1.1c-0.2,0.3-0.4,0.6-0.8,0.9c-0.3,0.2-0.6,0.4-1,0.5c-0.4,0.1-0.8,0.2-1.2,0.2c-1.4,0-2.6-0.8-3.2-2
			c-0.6-1.5-0.6-3.1,0-4.6c0.3-0.6,0.7-1.1,1.3-1.5c0.6-0.4,1.2-0.5,1.9-0.5c0.4,0,0.8,0.1,1.2,0.2c0.4,0.1,0.7,0.3,1,0.5
			c0.3,0.2,0.6,0.5,0.8,0.9C62.9,181.4,63,181.8,63.1,182.2z"/>
		<path class="st7" d="M64.7,187.9v-8.4h1v3.7h4.5v-3.7h1v8.4h-1v-3.7h-4.4v3.7H64.7z"/>
		<path class="st7" d="M73.2,187.9v-8.4h5v0.9h-4v2.8H78v0.9h-3.8v2.8h4.1v0.9L73.2,187.9z"/>
		<path class="st7" d="M86.8,182.2h-1c-0.1-0.3-0.2-0.5-0.3-0.8c-0.3-0.4-0.7-0.8-1.2-0.9c-0.3-0.1-0.5-0.1-0.8-0.1
			c-0.5,0-1,0.1-1.4,0.4c-0.4,0.3-0.8,0.7-1,1.1c-0.5,1.2-0.5,2.5,0,3.7c0.2,0.5,0.6,0.9,1,1.1c0.4,0.3,0.9,0.4,1.4,0.4
			c0.3,0,0.5,0,0.8-0.1c0.3-0.1,0.5-0.2,0.7-0.3c0.2-0.2,0.4-0.3,0.5-0.6c0.2-0.2,0.3-0.5,0.3-0.8h1c-0.1,0.4-0.2,0.8-0.4,1.1
			c-0.2,0.3-0.4,0.6-0.8,0.9c-0.3,0.2-0.6,0.4-1,0.5c-0.4,0.1-0.8,0.2-1.2,0.2c-0.7,0-1.3-0.2-1.9-0.5c-0.6-0.4-1-0.9-1.3-1.5
			c-0.6-1.5-0.6-3.1,0-4.6c0.3-0.6,0.8-1.1,1.3-1.4c0.6-0.4,1.2-0.5,1.9-0.5c0.4,0,0.8,0.1,1.2,0.2c0.4,0.1,0.7,0.3,1,0.5
			c0.3,0.2,0.6,0.5,0.8,0.9C86.6,181.4,86.7,181.8,86.8,182.2z"/>
		<path class="st7" d="M88.4,187.9v-8.4h1v4.1h0.1l3.8-4.1h1.3l-3.5,3.8l3.5,4.6h-1.2l-2.9-3.9l-1,1.2v2.7L88.4,187.9z"/>
		<path class="st7" d="M96.9,179.6v8.4h-1v-8.4H96.9z"/>
		<path class="st7" d="M105.6,179.6v8.4h-1l-4.6-6.6h0v6.6h-1v-8.4h1l4.6,6.6h0.1v-6.6H105.6z"/>
		<path class="st7" d="M113.3,182.2c-0.1-0.3-0.2-0.5-0.3-0.7c-0.1-0.2-0.3-0.4-0.5-0.6c-0.2-0.2-0.4-0.3-0.7-0.4
			c-0.3-0.1-0.5-0.1-0.8-0.1c-0.5,0-0.9,0.1-1.3,0.4c-0.4,0.3-0.8,0.7-1,1.1c-0.5,1.2-0.5,2.5,0,3.7c0.4,0.9,1.4,1.5,2.4,1.5
			c0.4,0,0.9-0.1,1.3-0.3c0.4-0.2,0.7-0.5,0.9-0.9c0.2-0.4,0.3-0.9,0.3-1.3l0.3,0.1h-2.5v-0.9h3.2v0.9c0,0.6-0.1,1.3-0.4,1.8
			c-0.3,0.5-0.7,0.9-1.2,1.2c-0.5,0.3-1.1,0.4-1.8,0.4c-0.7,0-1.4-0.2-2-0.5c-0.6-0.4-1-0.9-1.3-1.5c-0.3-0.7-0.5-1.5-0.5-2.3
			c0-0.6,0.1-1.2,0.3-1.8c0.2-0.5,0.4-1,0.8-1.4c0.3-0.4,0.7-0.7,1.2-0.9c0.5-0.2,1-0.3,1.5-0.3c0.4,0,0.8,0.1,1.2,0.2
			c0.4,0.1,0.7,0.3,1,0.6c0.3,0.2,0.6,0.5,0.8,0.9c0.2,0.3,0.3,0.7,0.4,1.1L113.3,182.2z"/>
		<path class="st9" d="M38.5,236.1c0,0,12-4.6,20,5.4s31-14,31-14s12-20,26-3s35-6,35-6s22-26.3,34-3.7"/>
		<path d="M166.3,288.4h-18.7c-0.4,0-0.8-0.3-0.8-0.8s0.3-0.8,0.8-0.8h18.7c0.4,0,0.8,0.3,0.8,0.8S166.7,288.4,166.3,288.4z
			 M165,284.4c-0.4,0-0.7-0.3-0.8-0.8V277c0-0.4,0.3-0.8,0.8-0.8s0.8,0.3,0.8,0.8v6.7C165.7,284.1,165.4,284.4,165,284.4z
			 M159.7,284.4c-0.4,0-0.8-0.3-0.8-0.8V277c0-0.4,0.3-0.8,0.8-0.8s0.8,0.3,0.8,0.8v6.7C160.4,284.1,160.1,284.4,159.7,284.4z
			 M154.3,284.4c-0.4,0-0.7-0.3-0.8-0.8V277c0-0.4,0.3-0.8,0.8-0.8s0.8,0.3,0.8,0.8v6.7C155.1,284.1,154.7,284.4,154.3,284.4z
			 M149,284.4c-0.4,0-0.7-0.3-0.8-0.8V277c0-0.4,0.3-0.8,0.8-0.8s0.8,0.3,0.8,0.8v6.7C149.7,284.1,149.4,284.4,149,284.4z
			 M169,274.4c-0.1,0-0.3,0-0.4-0.1l-11.6-7.1l-11.6,7.1c-0.3,0.2-0.8,0.1-1-0.2c-0.2-0.3-0.1-0.8,0.2-1l12-7.3
			c0.2-0.1,0.5-0.1,0.8,0l12,7.3c0.3,0.2,0.4,0.7,0.2,1C169.5,274.3,169.3,274.4,169,274.4z M159.7,273.8h-5.3
			c-0.4,0-0.8-0.3-0.8-0.8s0.3-0.8,0.8-0.8h5.3c0.4,0,0.8,0.3,0.8,0.8S160.1,273.8,159.7,273.8z"/>
	</g>
</g>
</svg>
