<svg version="1.1" id="Layer_1" xmlns="http://www.w3.org/2000/svg" xmlns:xlink="http://www.w3.org/1999/xlink" x="0" y="0" viewBox="0 0 503.4 503.4" style="enable-background:new 0 0 503.4 503.4" xml:space="preserve"><style>.st2{fill:#797bf2}.st3{stroke-width:.7242;stroke-linecap:round;stroke-linejoin:round}.st3,.st4{fill:none;stroke:#263238;stroke-miterlimit:10}.st7{fill:#263238;stroke-width:.7251}.st7,.st8,.st9{stroke:#263238;stroke-linecap:round;stroke-linejoin:round;stroke-miterlimit:10}.st8{fill:#263238;stroke-width:.8831}.st9{fill:none}.st11{fill:#fff}.st12{fill:#b2b2b2}.st13,.st14,.st15,.st16,.st17{fill:#797bf2;stroke:#263238;stroke-linecap:round;stroke-linejoin:round;stroke-miterlimit:10}.st14,.st15,.st16,.st17{fill:#263238}.st15,.st16,.st17{fill:#fff}.st16,.st17{fill:none;stroke:#7d7d7d}.st17{stroke:#263238;stroke-width:3}.st18{fill:#263238}.st19{fill:#fff;stroke-width:.7242;stroke-linecap:round;stroke-linejoin:round}.st19,.st22,.st23,.st24,.st27{stroke:#263238;stroke-miterlimit:10}.st22{fill:#a3a3a3}.st23,.st24,.st27{stroke-linecap:round}.st23{fill:#a3a3a3;stroke-linejoin:round}.st24,.st27{fill:none}.st24{stroke-width:.5;stroke-linejoin:round}.st27{stroke-width:2}</style><g id="Layer_12"><defs><circle id="SVGID_1_" cx="251.7" cy="251.7" r="251.7"/></defs><clipPath id="SVGID_2_"><use xlink:href="#SVGID_1_" style="overflow:visible"/></clipPath><path style="clip-path:url(#SVGID_2_);fill:#e9eaff" d="M-2.1-4.3h507.7v507.7H-2.1z"/><defs><circle id="SVGID_3_" cx="251.7" cy="251.7" r="251.7"/></defs><clipPath id="SVGID_4_"><use xlink:href="#SVGID_3_" style="overflow:visible"/></clipPath><g style="clip-path:url(#SVGID_4_)"><path class="st2" d="M52.8 231.6c3.7-.3 11-4.3 11-4.3.1 0-4.1-4-4.4-4.2-3.4-2.5-11.5-5.4-15.4-2.7-2.8 2-2.9 5.9-.7 8.3 2.3 2.6 6.4 3.1 9.5 2.9z"/><path class="st2" d="M66.7 251.7c3.4-1.2 9-6.6 9.4-7 3 3.1 6.3 6.1 9.8 9 2 1.6 4.1 3.2 6.2 4.7-1.1-.6-2-1.1-2.2-1.1-4-1.5-12.5-2.2-15.5 1.5-2.2 2.7-1.2 6.4 1.5 8.2 2.8 1.9 6.9 1.3 9.9.3 3-1.1 7.9-5.6 9.2-6.8l2.4 1.8c3.9 2.8 7.8 5.6 11.6 8.4 1.3 1 2.6 2 3.9 3.1-.9-.5-1.7-.9-1.9-1-4-1.5-12.5-2.2-15.5 1.5-2.2 2.7-1.2 6.4 1.5 8.2 2.8 1.9 6.9 1.3 9.9.3 2.9-1 7.4-5.1 8.9-6.6 1.3 1.1 2.5 2.2 3.7 3.3.8.8 1.6 1.5 2.4 2.3s1.5 1.6 2.3 2.4c1.4 1.6 2.8 3.2 4.1 4.8.9 1.1 1.8 2.1 2.6 3.2-1.3-1-3.9-2.9-4.1-3.1-3.7-2.1-12-4.1-15.6-.9-2.5 2.3-2.2 6.2.3 8.4 2.5 2.3 6.6 2.4 9.7 1.8 3.4-.7 9.5-4.9 10.3-5.5 1.4 1.7 2.8 3.5 4.1 5.1 3.4 4.4 6.2 8.3 8.4 11.5l2.8-1.5c-2.3-3.2-5.4-7.2-9-11.7-1.4-1.8-3-3.7-4.6-5.6.4-.5 2.6-3.1 4.3-5.7 3.4 1.2 10.3 1 11.2 1 .2 2.2.4 4.4.6 6.5.4 5.4.6 10.1.7 13.9l3-1.6c-.2-3.6-.5-7.8-.9-12.5-.2-2.3-.5-4.7-.8-7.2.9-.3 8.1-2.3 10.7-4.6 2.4-2.1 4.9-5.4 4.7-8.7-.2-3.3-3-6-6.4-5.4-4.7.8-8.4 8.5-9 12.7 0 .2-.1 3-.2 4.7-.1-1-.2-2-.4-3.1-.3-2.1-.6-4.1-1-6.3-.2-1.1-.4-2.1-.6-3.2-.2-1.1-.5-2.2-.8-3.3-.7-2.6-1.4-5.1-2.3-7.7 1.8-.2 8.2-1.2 11-2.9 2.7-1.7 5.7-4.6 6-7.9.3-3.3-2.1-6.4-5.5-6.3-4.8 0-9.6 7.1-10.9 11.2-.1.3-.7 3.3-1 4.9-.5-1.5-1-3.1-1.6-4.6-1.7-4.4-3.5-8.9-5.3-13.3-.6-1.4-1.1-2.7-1.6-4.1.6-.1 8.3-1.1 11.3-3 2.7-1.7 5.7-4.6 6-7.9.3-3.3-2.1-6.4-5.5-6.3-4.8 0-9.6 7.1-10.9 11.2-.1.3-.9 4.6-1.1 5.8-1.2-3-2.4-6-3.4-9-1.4-4.1-2.6-8.3-3.4-12.4.3 0 8.3-1 11.4-3 2.7-1.7 5.7-4.6 6-7.9.3-3.3-2.1-6.4-5.5-6.3-4.8 0-9.6 7.1-10.9 11.2-.1.3-1 5-1.1 5.8 0-.2-.1-.5-.2-.7-.8-4.4-1.1-8.7-1.1-12.8 0-2.4.1-4.7.2-6.9 1.5 0 8.4-.3 11.4-1.7 2.9-1.4 6.1-3.9 6.8-7.2.7-3.2-1.3-6.6-4.7-6.9-4.7-.5-10.3 6-12 9.9-.1.2-.8 2.5-1.3 4.1l.3-3c.4-3.6.9-6.8 1.4-9.7.3-1.6.6-3.1.9-4.5 1.5-.8 7.3-4.1 9.3-6.7 1.9-2.5 3.6-6.3 2.7-9.5-.9-3.2-4.2-5.2-7.4-3.9-4.4 1.8-6.4 10.1-6.1 14.3 0 .4 1.1 6.1 1.1 6h.1c-.3 1.3-.6 2.7-1 4.3-.6 2.9-1.2 6.1-1.6 9.7-.5 3.6-.8 7.5-.9 11.6 0 4.2.1 8.5.9 13v.2c-.6-1.2-2.5-4.7-2.7-4.9-2.4-3.5-9.2-8.7-13.8-7.3-3.3 1-4.6 4.7-3.3 7.7 1.3 3.1 5 4.9 8.1 5.7 3.5.9 11.1-.5 11.7-.7.8 4.3 1.9 8.6 3.3 12.9.8 2.5 1.7 4.9 2.6 7.4-.6-1.1-1.1-2-1.2-2.1-2.4-3.5-9.2-8.7-13.8-7.3-3.3 1-4.6 4.7-3.3 7.7 1.3 3.1 5 4.9 8.1 5.7s9.7-.3 11.4-.6c.4.9.7 1.9 1.1 2.8 1.7 4.5 3.5 9 5 13.4.6 1.6 1 3.1 1.5 4.7-.5-.9-1-1.7-1-1.8-2.4-3.5-9.2-8.7-13.8-7.3-3.3 1-4.6 4.7-3.3 7.7 1.3 3.1 5 4.9 8.1 5.7 3 .7 9-.2 11.1-.5.5 1.6.9 3.2 1.3 4.8.2 1.1.5 2.1.7 3.2s.4 2.2.6 3.2c.3 2.1.6 4.2.8 6.2.2 1.4.3 2.8.4 4.1-.5-1.6-1.6-4.6-1.8-4.8-1.3-2.5-4.3-6.1-7.6-8-.2-.4-.4-.7-.6-1.1-2-2.6-5.8-3.3-8.3-1-3.5 3.2-2.3 11.7-.5 15.6.1.2 1.5 2.6 2.4 4-.7-.8-1.3-1.5-2-2.3-1.4-1.6-2.8-3.1-4.3-4.8-.8-.8-1.5-1.6-2.3-2.3-.8-.8-1.7-1.5-2.5-2.3-2-1.8-4-3.5-6.2-5.2 1.4-1.2 6.2-5.6 7.5-8.5s2.2-6.9.6-9.9c-1.6-2.9-5.2-4.2-8.1-2.3-3.9 2.7-4.1 11.2-2.9 15.3.1.3 1.2 3.1 1.9 4.6l-3.9-3c-3.9-2.8-7.8-5.5-11.8-8.2-1.2-.8-2.4-1.7-3.6-2.5.5-.4 6.3-5.5 7.8-8.7 1.3-2.9 2.2-6.9.6-9.9-1.6-2.9-5.2-4.2-8.1-2.3-3.9 2.7-4.1 11.2-2.9 15.3.1.3 1.8 4.4 2.3 5.4-2.7-1.8-5.3-3.7-7.8-5.6-3.5-2.7-6.7-5.5-9.7-8.4.2-.2 6.4-5.4 7.9-8.8 1.3-2.9 2.2-6.9.6-9.9-1.6-2.9-5.2-4.2-8.1-2.3-3.9 2.7-4.1 11.2-2.9 15.3.1.3 1.9 4.7 2.3 5.5-.2-.2-.4-.3-.6-.5-3.1-3.2-5.7-6.7-8-10.1-1.3-2-2.5-3.9-3.6-5.8 1.2-.9 6.9-4.9 8.6-7.7 1.6-2.7 3-6.6 1.7-9.8-1.2-3.1-4.7-4.7-7.8-3.1-4.2 2.2-5.3 10.7-4.6 14.9 0 .2.7 2.5 1.2 4.1-.5-.9-1-1.8-1.4-2.6-1.7-3.2-3-6.2-4.2-8.9-.6-1.5-1.2-2.9-1.7-4.2.8-1.5 3.8-7.5 4-10.7s-.4-7.3-3-9.4c-2.5-2.1-6.4-2-8.3.8-2.7 3.9.3 11.9 2.8 15.3.2.3 4.2 4.5 4.3 4.4v-.1c.5 1.3 1 2.6 1.6 4.1 1.1 2.7 2.4 5.8 4 9s3.4 6.7 5.7 10.2c2.3 3.5 4.8 7.1 7.9 10.4l.1.1c-1.2-.7-4.7-2.5-4.9-2.6-4-1.5-12.5-2.2-15.5 1.5-2.2 2.7-1.2 6.4 1.5 8.2 3.4 1.5 7.5.9 10.5-.1z"/><path class="st2" d="M128.5 193.9c.1 0-1.2-5.6-1.4-6-1.4-4-6.6-10.9-11.3-10.7-3.4.1-5.6 3.3-5.2 6.6.5 3.3 3.5 6.1 6.3 7.6 3.2 1.8 11.5 2.5 11.6 2.5zM413.9 373.6c-2.8-.2-8.2-3.2-8.2-3.2-.1 0 3.1-3 3.3-3.1 2.5-1.9 8.5-4 11.4-2 2.1 1.5 2.1 4.4.5 6.2-1.6 1.8-4.7 2.2-7 2.1z"/><path class="st2" d="M403.6 388.5c-2.5-.9-6.7-4.9-7-5.2-2.2 2.3-4.7 4.6-7.3 6.7-1.5 1.2-3 2.4-4.6 3.5.8-.4 1.5-.8 1.6-.8 2.9-1.2 9.3-1.6 11.5 1.1 1.6 2 .9 4.8-1.1 6.1-2.1 1.4-5.1 1-7.4.2s-5.9-4.1-6.8-5c-.6.4-1.2.9-1.8 1.3-2.9 2.1-5.8 4.1-8.6 6.3-1 .7-1.9 1.5-2.9 2.3.7-.4 1.3-.7 1.4-.7 2.9-1.2 9.3-1.6 11.5 1.1 1.6 2 .9 4.8-1.1 6.1-2.1 1.4-5.1 1-7.4.2-2.2-.8-5.5-3.8-6.6-4.9-.9.8-1.9 1.6-2.8 2.5-.6.6-1.2 1.1-1.8 1.7-.6.6-1.1 1.2-1.7 1.8-1 1.2-2.1 2.4-3.1 3.5-.7.8-1.3 1.6-2 2.4 1-.8 2.9-2.2 3.1-2.3 2.7-1.6 8.9-3 11.6-.7 1.9 1.7 1.6 4.6-.2 6.2-1.9 1.7-4.9 1.8-7.2 1.3-2.6-.5-7.1-3.7-7.7-4.1-1.1 1.3-2.1 2.6-3 3.8-2.5 3.3-4.6 6.2-6.3 8.5l-2.1-1.1c1.7-2.4 4-5.4 6.7-8.7 1.1-1.3 2.2-2.7 3.4-4.1-.3-.3-1.9-2.3-3.2-4.3-2.5.9-7.7.8-8.4.7-.2 1.7-.3 3.3-.4 4.8-.3 4-.4 7.5-.5 10.3l-2.3-1.2c.1-2.6.4-5.8.7-9.3.2-1.7.4-3.5.6-5.4-.7-.2-6-1.7-8-3.4-1.8-1.5-3.7-4-3.5-6.5.1-2.4 2.2-4.5 4.7-4 3.5.6 6.2 6.3 6.7 9.4 0 .2.1 2.2.1 3.5.1-.8.2-1.5.3-2.3.2-1.5.5-3.1.7-4.7.2-.8.3-1.6.5-2.4.1-.8.4-1.6.6-2.5.5-1.9 1.1-3.8 1.7-5.7-1.3-.2-6.1-.9-8.1-2.2-2-1.2-4.2-3.4-4.4-5.9-.2-2.4 1.5-4.7 4.1-4.7 3.5 0 7.1 5.3 8.1 8.3.1.2.5 2.4.7 3.7.4-1.1.8-2.3 1.2-3.4 1.2-3.3 2.6-6.6 4-9.9l1.2-3c-.5-.1-6.2-.8-8.4-2.2-2-1.2-4.2-3.4-4.4-5.9-.2-2.4 1.5-4.7 4.1-4.7 3.5 0 7.1 5.3 8.1 8.3.1.2.7 3.4.8 4.3.9-2.2 1.8-4.5 2.5-6.7 1.1-3.1 1.9-6.2 2.5-9.2-.2 0-6.2-.8-8.5-2.2-2-1.2-4.2-3.4-4.4-5.9-.2-2.4 1.5-4.7 4.1-4.7 3.5 0 7.1 5.3 8.1 8.3.1.2.7 3.7.8 4.3 0-.2.1-.4.1-.5.6-3.3.8-6.5.8-9.5 0-1.8-.1-3.5-.2-5.1-1.1 0-6.2-.2-8.5-1.3-2.1-1-4.6-2.9-5.1-5.3s1-4.9 3.5-5.1c3.5-.4 7.7 4.5 8.9 7.4.1.2.6 1.8 1 3.1-.1-.7-.1-1.5-.2-2.2-.3-2.7-.7-5.1-1.1-7.2-.2-1.2-.5-2.3-.7-3.3-1.1-.6-5.4-3.1-6.9-5-1.4-1.9-2.7-4.7-2-7.1s3.1-3.9 5.5-2.9c3.3 1.3 4.7 7.5 4.5 10.7 0 .3-.8 4.5-.8 4.5h-.1c.2 1 .5 2 .7 3.2.4 2.1.9 4.6 1.2 7.2.3 2.7.6 5.6.7 8.7 0 3.1-.1 6.3-.6 9.7v.1c.5-.9 1.9-3.5 2-3.7 1.8-2.6 6.9-6.5 10.2-5.5 2.4.8 3.4 3.5 2.4 5.7-1 2.3-3.7 3.7-6 4.2-2.6.6-8.3-.4-8.7-.5-.6 3.2-1.4 6.4-2.4 9.6-.6 1.8-1.2 3.7-1.9 5.5.4-.8.8-1.5.9-1.6 1.8-2.6 6.9-6.5 10.2-5.5 2.4.8 3.4 3.5 2.4 5.7-1 2.3-3.7 3.7-6 4.2-2.3.6-7.2-.2-8.5-.4-.3.7-.5 1.4-.8 2.1-1.3 3.3-2.6 6.7-3.7 10-.4 1.2-.8 2.3-1.1 3.5.4-.7.7-1.3.8-1.4 1.8-2.6 6.9-6.5 10.2-5.5 2.4.8 3.4 3.5 2.4 5.7-1 2.3-3.7 3.7-6 4.2-2.2.6-6.7-.1-8.2-.4-.3 1.2-.7 2.4-1 3.6-.2.8-.4 1.6-.5 2.4s-.3 1.6-.4 2.4c-.2 1.5-.4 3.1-.6 4.6-.1 1-.2 2-.3 3.1.4-1.2 1.2-3.4 1.3-3.6.9-1.9 3.2-4.5 5.6-6 .1-.3.3-.5.5-.8 1.5-2 4.3-2.5 6.2-.8 2.6 2.4 1.7 8.7.4 11.6-.1.2-1.1 1.9-1.8 3 .5-.6 1-1.1 1.5-1.7 1-1.2 2.1-2.3 3.2-3.5.6-.6 1.1-1.2 1.7-1.7.6-.6 1.2-1.1 1.8-1.7 1.5-1.3 3-2.6 4.6-3.8-1-.9-4.6-4.1-5.6-6.3-1-2.1-1.6-5.1-.5-7.3 1.2-2.2 3.9-3.1 6-1.7 2.9 2 3 8.4 2.1 11.4-.1.2-.9 2.3-1.4 3.4 1-.7 1.9-1.5 2.9-2.2 2.9-2.1 5.8-4.1 8.8-6.1.9-.6 1.8-1.2 2.7-1.9-.4-.3-4.7-4.1-5.8-6.5-1-2.1-1.6-5.1-.5-7.3 1.2-2.2 3.9-3.1 6-1.7 2.9 2 3 8.4 2.1 11.4-.1.2-1.3 3.3-1.7 4 2-1.4 3.9-2.8 5.8-4.2 2.6-2 5-4.1 7.2-6.3-.2-.1-4.7-4-5.9-6.5-1-2.1-1.6-5.1-.5-7.3 1.2-2.2 3.9-3.1 6-1.7 2.9 2 3 8.4 2.1 11.4-.1.2-1.4 3.5-1.7 4.1l.4-.4c2.3-2.4 4.3-5 6-7.5 1-1.5 1.9-2.9 2.7-4.3-.9-.6-5.1-3.6-6.4-5.7-1.2-2-2.2-4.9-1.3-7.3.9-2.3 3.5-3.5 5.8-2.3 3.1 1.6 3.9 8 3.4 11.1 0 .2-.5 1.9-.9 3.1.4-.7.7-1.3 1.1-2 1.2-2.4 2.2-4.6 3.1-6.6.5-1.1.9-2.2 1.3-3.2-.6-1.1-2.9-5.6-3-8s.3-5.4 2.2-7c1.9-1.6 4.7-1.5 6.2.6 2 2.9-.2 8.9-2.1 11.4-.2.2-3.1 3.3-3.2 3.3v-.1c-.3.9-.7 2-1.2 3.1-.8 2-1.8 4.3-3 6.7-1.2 2.4-2.5 5-4.2 7.6s-3.6 5.2-5.9 7.7l-.1.1c.9-.5 3.5-1.9 3.7-1.9 2.9-1.2 9.3-1.6 11.5 1.1 1.6 2 .9 4.8-1.1 6.1-1.6 1.1-4.7.8-6.9 0z"/><path class="st2" d="M357.7 345.5c-.1 0 .9-4.2 1-4.4 1.1-3 4.9-8.1 8.4-8 2.5.1 4.2 2.5 3.9 4.9-.3 2.5-2.6 4.5-4.7 5.7-2.4 1.3-8.6 1.8-8.6 1.8z"/><circle transform="matrix(.9971 -.07646 .07646 .9971 -12.93 31.675)" class="st3" cx="407.2" cy="184.7" r="33.2"/><path class="st4" d="M407.1 192.9c-3.7 0-6.7-3-6.7-6.7V165a6.7 6.7 0 0 1 13.4 0v21.2c0 3.7-3 6.7-6.7 6.7z"/><path class="st4" d="M407.2 197.7c-6.5 0-11.8-5.3-11.8-11.8v-10c0-.7.5-1.2 1.2-1.2s1.2.5 1.2 1.2v10c0 5.2 4.2 9.4 9.4 9.4s9.4-4.2 9.4-9.4v-10c0-.7.5-1.2 1.2-1.2s1.2.5 1.2 1.2v10c0 6.5-5.3 11.8-11.8 11.8z"/><path class="st4" d="M407.2 210.5c-.7 0-1.2-.5-1.2-1.2v-12.7c0-.7.5-1.2 1.2-1.2s1.2.5 1.2 1.2v12.7c0 .6-.5 1.2-1.2 1.2z"/><path class="st4" d="M415.4 211.1H399c-.7 0-1.2-.5-1.2-1.2s.5-1.2 1.2-1.2h16.3c.7 0 1.2.5 1.2 1.2.1.7-.5 1.2-1.1 1.2z"/><circle class="st3" cx="96.9" cy="95.2" r="30.8"/><path class="st4" d="m115.9 86.2-9 5.2v-4.3c0-2-1.6-3.7-3.7-3.7H82.9c-2 0-3.7 1.6-3.7 3.7v16.4c0 2 1.6 3.7 3.7 3.7h20.3c2 0 3.7-1.6 3.7-3.7v-4.3l9 5.2V86.2z"/><circle class="st3" cx="410.4" cy="277" r="17.4"/><path class="st4" d="m421.1 271.9-5.1 2.9v-2.4c0-1.1-.9-2.1-2.1-2.1h-11.5c-1.1 0-2.1.9-2.1 2.1v9.2c0 1.1.9 2.1 2.1 2.1H414c1.1 0 2.1-.9 2.1-2.1v-2.4l5.1 2.9v-10.2h-.1z"/><circle transform="rotate(-13.286 88.818 385.19)" class="st3" cx="88.8" cy="385.2" r="19.8"/><path class="st4" d="M98.8 381H78.7c-2.4 0-4.1 2.1-3.7 4.5l.6 3.1c.1.4.5.8.9.8h6c.5 0 .9-.4.9-.9V385h10.5v3.4c0 .5.4.9.9.9h6c.5 0 .8-.3.9-.8l.6-3.1c.7-2.2-1.1-4.4-3.5-4.4z"/><path d="M331.4 62.9h-66.5l-2.8 5.1c-2.9 5.5-8.8 8.9-15.1 8.9s-12.1-3.4-15.1-8.9l-2.8-5.1h-66.5c-7.1 0-12.9 5.6-12.9 12.5V418c0 6.9 5.8 12.5 12.9 12.5h168.8c7.1 0 12.9-5.6 12.9-12.5V75.5c-.1-7-5.8-12.6-12.9-12.6z" style="fill:#d6d6d6"/><path style="fill:none;stroke:#263238;stroke-width:.8211;stroke-linecap:round;stroke-linejoin:round;stroke-miterlimit:10" d="M317.4 67.9h13.4v7.4h-13.4z"/><path class="st7" d="M317.4 67.9h10.5v7.4h-10.5zM330.8 69.9h1.9v3.2h-1.9z"/><path class="st8" d="M160.8 70.1h2.5v4.2h-2.5zM164.7 68.7h2.5v5.7h-2.5zM168.6 66.9h2.5v7.4h-2.5z"/><path class="st9" d="M155.7 77.7h182.6"/><path d="M281.8 295.4c-.6-4.2-1.3-8.8-1.8-12.4 4.7-6.1 8-14.2 8.9-21.2.6-4.3.5-11.9.1-20.2 1.1-.8 2.2-2.2 3-4 1.9-4.6 8.4-19.1.9-23.4-1.8-1-3.2-1.2-4.4-1 .5-3 1.3-6.3 2.6-9.2 3.9-8.8 11.4-17.1 8.3-29.3-3.1-12.3-16.2-18.8-20.1-13.6-3.9 5.3-3.9 9.6-11.4 3.9-7.4-5.7-18-13.6-34.1-9.2s-18 8.3-10.1 16.6c0 0-25.8-1.3-32.4 13.1-4.6 10.1 3.1 14.7 7.9 17.2-.6.3-1.1.7-1.4 1.4l-13 25.2 3.3-33.7c.2-2.1-1.3-4-3.4-4.2-2-.2-3.8 1.1-4.2 3l-7.8 34.2-2.6-.3 1.6-34.2c.1-2.3-1.7-4.1-4-4-1.8.1-3.2 1.4-3.5 3.2l-5.3 34.4-4.7-.3v-27.3c0-2.3-2.1-4.1-4.3-3.7v117.9l.6-1.2 2.5 1.9 12.9-17.7-5-2.6c4.5-7.6 11-19 11-19s12.6-2.3 16.3-8.7c3.6-6.5 6.1-14.5 10.5-20.6s8.5-8.5 10.1-13.3v-.1c2 4.9 5.9 9.6 7.6 11.8 2.3 3 5.4 4.2 6.8 2.7.1.9.2 1.9.4 2.9 1.5 7.6 3.3 14.7 5.1 18.5 1.4 2.9 3.7 5.9 6.5 8.9-1.8-1-3.8-.4-4.7 1.2-.7.8-1.4 2-2.2 3.6-3.4 8.1-11 17.6-10.4 23.4 0 .2 0 .4.1.7-8.8.8-31.3 2.9-34.7 5.7-2.4 2-19.3 18.1-33.3 31.6v66.6l29.6-18 5.1 38.2h133V300.4c-14.8-2.7-34.5-5.2-34.5-5.2l-1.4.2zm-72.6-73c-1.8 1.8-2.2 4.2-1.8 6.8-1.5-.4-4.1.5-7 2.6-5.2 4-10.5 8.5-10.5 8.5l9.8-24.7c.1.1.2.1.2.2 3.8 2.8 8.5 4.2 10.4 5.5l-1.1 1.1z" style="opacity:.2;enable-background:new"/><path class="st11" d="M205.7 433.9h140.8V295.7c-15.7-2.8-36.6-5.5-36.6-5.5l-65.2 11.7s-36 2.7-40.5 6.3c-4.5 3.6-55.4 52.8-55.4 52.8v63.4l51.5-31.3 5.4 40.8z"/><path class="st12" d="M295.2 421.9c-.2.2-.2.5 0 .7l7.9 7.4c.1.1.2.1.4.1.1 0 .3-.1.4-.2.2-.2.2-.5 0-.7l-7.9-7.4c-.3-.1-.6-.1-.8.1zM305.2 365.5c-.2-.2-.5-.2-.7 0l-5.1 5.5c0-.1 0-.3-.1-.4-.2-.2-.5-.2-.7 0l-5.1 4.6c-.2.2-.2.5 0 .7.1.1.2.2.4.2.1 0 .2 0 .3-.1l4.1-3.8-.2.2c-.2.2-.2.5 0 .7.1.1.2.1.4.1.1 0 .3-.1.4-.2l6.5-6.9c0-.1 0-.4-.2-.6zM299.7 330c-.2-.2-.5-.3-.7-.1l-6.9 5.5c-.2.2-.3.5-.1.7.1.1.3.2.4.2s.2 0 .3-.1l6.9-5.5c.2-.2.2-.5.1-.7zM206.3 323.3l6.5-6.9c.2-.2.2-.5 0-.7s-.5-.2-.7 0l-6.5 6.9c-.2.2-.2.5 0 .7.1.1.2.1.4.1 0 0 .2 0 .3-.1zM289.5 355.3c.1 0 .3-.1.4-.2.2-.2.2-.5 0-.7L282 347c-.2-.2-.5-.2-.7 0s-.2.5 0 .7l7.9 7.4c.1.2.2.2.3.2zM274.3 373.8c.4 0 .5-.3.5-.6l-1.4-10.6c0-.3-.3-.5-.6-.4-.3 0-.5.3-.4.6l1.4 10.6c0 .2.2.4.5.4zM285.5 409.9l-6.5 6.9c-.2.2-.2.5 0 .7.1.1.2.1.4.1.1 0 .3-.1.4-.2l6.5-6.9c.2-.2.2-.5 0-.7-.3-.1-.6-.1-.8.1zM205 375.7h.2c.3-.1.4-.4.3-.7l-4.6-11.1c-.1-.3-.4-.4-.7-.3s-.4.4-.3.7l4.6 11.1c.1.1.3.3.5.3zM306.2 411.3c.1 0 .2 0 .3-.1l6.9-5.5c.2-.2.3-.5.1-.7-.2-.2-.5-.3-.7-.1l-6.9 5.5c-.2.2-.3.5-.1.7.1.1.2.2.4.2zM304.8 344.4c-.1-.3-.4-.4-.7-.3-.3.1-.4.4-.3.7l4.6 11.1c.1.2.3.3.5.3h.2c.3-.1.4-.4.3-.7l-4.6-11.1zM307.1 404.3s.1 0 0 0c.4 0 .5-.3.5-.6l-1.4-10.6c0-.3-.3-.5-.6-.4-.3 0-.5.3-.4.6l1.4 10.6c0 .2.3.4.5.4zM150.8 420.8c.2-.2.2-.5 0-.7s-.5-.2-.7 0l-1.2 1.1v1.4l1.9-1.8zM177.3 366.5c-.2.2-.2.5 0 .7l7.9 7.4c.1.1.2.1.4.1.1 0 .3-.1.4-.2.2-.2.2-.5 0-.7l-7.9-7.4c-.3-.1-.6-.1-.8.1zM187.3 343.4c-.2-.2-.5-.2-.7 0l-5.1 4.6c-.2.2-.2.5 0 .7.1.1.2.2.4.2.1 0 .2 0 .3-.1l5.1-4.6c.2-.3.2-.6 0-.8zM196.6 328.7c.1.2.3.3.5.3h.2c.3-.1.4-.4.3-.7l-4.2-10-.8.8 4 9.6zM195.7 349.4c-.2-.2-.5-.3-.7-.1l-6.9 5.5c-.2.2-.3.5-.1.7.1.1.3.2.4.2.1 0 .2 0 .3-.1l6.9-5.5c.2-.2.2-.5.1-.7zM194.4 390l-5.1 4.6c-.2.2-.2.5 0 .7.1.1.2.2.4.2.1 0 .2 0 .3-.1l5.1-4.6c.2-.2.2-.5 0-.7-.1-.3-.4-.3-.7-.1zM170.3 393.2c.3 0 .5-.3.5-.6l-1.4-10.6c0-.3-.3-.5-.6-.4-.3 0-.5.3-.4.6l1.4 10.6c0 .2.2.4.5.4zM161.5 362.3c.1 0 .3-.1.4-.2l6.5-6.9c.2-.2.2-.5 0-.7s-.5-.2-.7 0l-6.5 6.9c-.2.2-.2.5 0 .7.1.1.2.2.3.2zM148.9 382l2.3-1.9c.2-.2.3-.5.1-.7s-.5-.3-.7-.1l-1.7 1.4v1.3zM155.8 393.6c-.3.1-.4.4-.3.7l4.6 11.1c.1.2.3.3.5.3h.2c.3-.1.4-.4.3-.7l-4.6-11.1c-.2-.3-.5-.4-.7-.3zM212.5 423.6c.1.1.2.1.4.1.1 0 .3-.1.4-.2l6.5-6.9c.2-.2.2-.5 0-.7s-.5-.2-.7 0l-6.5 6.9c-.4.3-.3.6-.1.8zM252.1 425.3c-.1-.3-.4-.4-.7-.3s-.4.4-.3.7l3.4 8.1h1.1l-3.5-8.5zM229.3 427.9c-.2-.2-.5-.2-.7 0s-.2.5 0 .7l5.5 5.2h1.5l-6.3-5.9zM314.9 377.5c-.2-.2-.5-.2-.7 0s-.2.5 0 .7l7.9 7.4c.1.1.2.1.4.1.1 0 .3-.1.4-.2.2-.2.2-.5 0-.7l-8-7.3zM272.3 335c-.2-.2-.5-.2-.7 0l-6.5 6.9c-.2.2-.2.5 0 .7.1.1.2.1.4.1.1 0 .3-.1.4-.2l6.5-6.9c.2-.1.1-.4-.1-.6zM229.9 335.9c.1 0 .3-.1.4-.2.2-.2.2-.5 0-.7l-7.9-7.4c-.2-.2-.5-.2-.7 0s-.2.5 0 .7l7.9 7.4c.1.2.2.2.3.2zM228.5 406.6c.1 0 .1 0 0 0 .3 0 .5-.3.5-.6l-1.4-10.6c0-.3-.3-.5-.6-.4-.3 0-.5.3-.4.6l1.4 10.6c.1.2.3.4.5.4zM331.3 401.1l-5.1 4.6c-.2.2-.2.5 0 .7.1.1.2.2.4.2.1 0 .2 0 .3-.1l5.1-4.6c.2-.2.2-.5 0-.7-.2-.3-.5-.3-.7-.1zM337.6 374.9c-.1-.3-.4-.4-.7-.3-.3.1-.4.4-.3.7l4.6 11.1c.1.2.3.3.5.3h.2c.3-.1.4-.4.3-.7l-4.6-11.1zM332.5 360.5c-.2-.2-.5-.3-.7-.1l-6.9 5.5c-.2.2-.3.5-.1.7.1.1.3.2.4.2s.2 0 .3-.1l6.9-5.5c.2-.2.3-.5.1-.7zM318 419c-.3.1-.4.4-.3.7l4.6 11.1c.1.2.3.3.5.3h.2c.3-.1.4-.4.3-.7l-4.6-11.1c-.1-.2-.4-.4-.7-.3zM226.6 368.6c.2-.2.2-.5 0-.7s-.5-.2-.7 0l-6.5 6.9c-.2.2-.2.5 0 .7.1.1.2.1.4.1.1 0 .3-.1.4-.2l6.4-6.8zM253.9 362.8c-.2-.2-.5-.3-.7-.1l-6.9 5.5c-.2.2-.3.5-.1.7.1.1.3.2.4.2.1 0 .2 0 .3-.1l6.9-5.5c.2-.1.3-.5.1-.7zM252.7 403.4l-5.1 4.6c-.2.2-.2.5 0 .7.1.1.2.2.4.2.1 0 .2 0 .3-.1l5.1-4.6c.2-.2.2-.5 0-.7-.2-.3-.5-.3-.7-.1zM234.1 356.7c.1 0 .2 0 .3-.1l5.1-4.6c.2-.2.2-.5 0-.7s-.5-.2-.7 0l-5.1 4.6c-.2.2-.2.5 0 .7.1.1.2.1.4.1zM258.4 377c-.3.1-.4.4-.3.7l4.6 11.1c.1.2.3.3.5.3h.2c.3-.1.4-.4.3-.7l-4.6-11.1c-.2-.3-.5-.4-.7-.3zM240 310.6c-.2-.2-.5-.3-.7-.1l-6.9 5.5c-.2.2-.3.5-.1.7.1.1.3.2.4.2.1 0 .2 0 .3-.1l6.9-5.5c.3-.2.3-.5.1-.7zM244.5 324.8c-.3.1-.4.4-.3.7l4.6 11.1c.1.2.3.3.5.3h.2c.3-.1.4-.4.3-.7l-4.6-11.1c-.1-.3-.4-.5-.7-.3zM239.6 417.3c.1 0 .2 0 .3-.1l6.9-5.5c.2-.2.3-.5.1-.7s-.5-.3-.7-.1l-6.9 5.5c-.2.2-.3.5-.1.7.1.1.3.2.4.2zM214.7 354.4c.3 0 .5-.3.5-.6l-1.4-10.6c0-.3-.3-.5-.6-.4-.3 0-.5.3-.4.6l1.4 10.6c0 .2.2.4.5.4zM243.4 388c.1.1.2.1.4.1.1 0 .3-.1.4-.2.2-.2.2-.5 0-.7l-7.9-7.4c-.2-.2-.5-.2-.7 0s-.2.5 0 .7l7.8 7.5z"/><path class="st9" d="M205.7 433.9h140.8V295.7c-15.7-2.8-36.6-5.5-36.6-5.5l-65.2 11.7s-36 2.7-40.5 6.3c-4.5 3.6-55.4 52.8-55.4 52.8v63.4l51.5-31.3 5.4 40.8z"/><path class="st13" d="M296.9 337.9s-9.9 18.4-14.8 34.6-13 62.1-13 62.1h43.6s4.5-57.6 12.1-77.4 8.5-23.4 8.5-23.4l-36.4 4.1z"/><path class="st14" d="M253.1 327.3s21.4 19.6 45.5 27.6c24.1 7.9 40.5-9.6 42-15.7 1.4-6-40.9.5-59.5-5.7-18.7-6.2-30.1-13-28-6.2z"/><path class="st14" d="M259.6 272.2s-4-4-7.6 4.5c-3.3 7.8-10.1 27-10.3 26.1 1.8 5.8-.9 14.4 14.8 26.5s40.7 21.1 54.9 21.1c15.3 0 25.6-4.5 29.2-11.2s4-14.8 4-20.2c0-5.4-1.3-10.3-4-18-2.7-7.6-16.2-15.3-22.5-22.5s-.4-5.4-13.5-10.3-29.7-2.7-34.6-1.8c-5 .9-10.4 5.8-10.4 5.8z"/><path class="st15" d="M258.7 264.6s1.8 26.1 3.1 33.3c1.3 7.2 28.3 22.5 37.8 21.6 9.4-.9 10.8-14.4 9.9-22.9s-3.6-25.2-3.6-25.2-25.2 8.1-34.2.9c-9-7.3-13-7.7-13-7.7z"/><path class="st14" d="M262.1 292.4c19.4-2.6 34.8-8.8 34.8-8.8l9.8-7.4c-.4-2.9-.8-4.8-.8-4.8s-25.2 8.1-34.2.9-13-7.6-13-7.6 1.2 17.6 2.4 27.9c.3-.1.6-.2 1-.2z"/><path class="st13" d="M337.8 296.5c.4 3.7.1 11.1-8.5 13.1-11.7 2.7-38.7 0-57.1-9-15.9-7.7-17.7-23.4-18-27.7-.8.8-1.5 2.1-2.3 3.9-3.6 8.5-11.7 18.7-11 24.7.2 2.2-.2 15.7 15.5 27.9 15.7 12.1 40.7 21.1 54.9 21.1 15.3 0 25.6-4.5 29.2-11.2s4-14.8 4-20.2c0-5.4-1.3-10.3-4-18-.5-1.6-1.5-3.1-2.7-4.6z"/><path class="st9" d="M339.1 318.3c1.2-1.3 2.4-2.6 3.5-4.1M247.7 285.7s-4.9 14.4 16.9 33.8c18.8 16.7 50.1 17.8 69.5 3.1"/><path class="st9" d="M248.1 296.9s-.8 25.6 25.2 42.9"/><path class="st14" d="M247.2 160.3s-27.3-1.4-34.3 13.9 12.5 18.5 12.1 20.9c-.5 2.3-7.9 7.4-2.8 11.1 5.1 3.7 11.6 5.1 12.1 7s4.2 9.7 4.2 9.7 4.6 2.8 7.9.9c3.2-1.9 2.3-10.2 5.1-14.4s2.8-9.3 12.1-16.2c9.3-7 31.1-7.4 34.8-6 3.7 1.4 9.3 1.9 11.6 5.6 2.3 3.7 1.9 22.7 3.7 22.7s.9-12.5 5.1-21.8 12.1-18.1 8.8-31.1c-3.2-13-17.1-19.9-21.3-14.4-4.2 5.6-4.2 10.2-12.1 4.2s-19-14.4-36.2-9.7c-17.3 4.6-19.1 8.8-10.8 17.6z"/><path class="st16" d="M260.8 147.5c-1.9-.6-3.2-.9-3.7-.9M279.1 181.1s9.5-4.8 9.5-12.1c0-8.4-12.1-15.3-21.4-19.1"/><path class="st16" d="M276.6 181.9s3.1-10.6-7.9-15.8c-7.8-3.7-17.4-4.2-17.4-4.2M223.7 174.8h-3.1M268.3 178.2s-5.4-6.2-19.1-5c-8.4.8-15.4 1.2-20.7 1.5M310.6 169.1c1.1-.8 2.3-1.8 3.4-2.9 5.8-5.8 0-14.1 0-14.1M302 173.2s2.3-.5 5.4-2.1M245 191s-10.8 9.6-16.2 10.8"/><path class="st15" d="M311 210.4s1.5-10.5 9.4-5.9c8 4.6 1.1 19.9-1 24.8-2 4.9-6.3 7-7.5 2.5-1.1-4.6-.9-21.4-.9-21.4zM242.6 216.4s-4.2-9.7-10.7-3.2 4.2 19.5 7.4 23.6c3.2 4.2 7.9 5.1 7.9.5s-4.6-20.9-4.6-20.9z"/><path class="st15" d="M243.7 209.8s3 40.9 8.6 52.5c5.6 11.6 25 26 38 25.5s24.1-18.5 26-32.9-3.2-64-3.2-64-4.2-14.4-11.6-15.3c-7.4-.9-15.3 6.5-23.2 7-7.9.5-13.9-7.4-22.2-4.2-8.3 3.2-12.1 10.2-8.8 13 3.2 2.8 6.5 5.1 2.8 10.2-3.8 5.1-6.4 8.2-6.4 8.2z"/><path class="st17" d="M310.2 199.7s-2.3-2.8-7.4-2.8-8.8 2.8-8.8 2.8M274.6 204.3s-9.7-4.2-17.1 4.2"/><path class="st18" d="M270.4 217.5c0 2.4-1.1 4.4-2.5 4.4s-2.5-2-2.5-4.4 1.1-4.4 2.5-4.4c1.3 0 2.5 2 2.5 4.4zM300.5 213.8c0 2.4-1.1 4.4-2.5 4.4s-2.5-2-2.5-4.4 1.1-4.4 2.5-4.4 2.5 2 2.5 4.4z"/><path class="st9" d="m262 223.8 9.3.5M298.7 222.4l7.4-3.7"/><path class="st14" d="M316.3 254.9c.7-5.6.4-16.4-.3-27.6-.3 3.2-.9 7.2-2 10.5-2.3 6.5-2.3 8.8-3.7 10.2-1.4 1.4-2.8-1.9-5.1-5.1s-23.2 0-23.2 0c-2.3-.5-13.4 1.4-18.5 3.2-5.1 1.9-6 7.9-5.6 10.2.5 2.3-5.1-3.2-7.9-11.1-2.8-7.9-5.6-21.8-5.6-21.8s1.2 9.3 2.5 19.3c1.6 8.1 3.5 15.6 5.4 19.6 5.6 11.6 25 26 38 25.5s24.1-18.6 26-32.9z"/><path class="st16" d="M261.6 272.6s5.7 7.5 17.2 12.3"/><path class="st15" d="M276.4 254.9s3.2 6 10.2 7c7 .9 8.8-9.7 8.8-9.7l-18.1.9c0-.1-1.8-1-.9 1.8z"/><path class="st15" d="M274.6 253s1.9 11.1 11.6 13 12.1-14.8 12.1-14.8l-23.7 1.8z"/><path class="st14" d="M280.8 253.4s.9 5.5 5.7 6.4 5.9-7.3 5.9-7.3l-11.6.9z"/><path class="st15" d="M302.8 249.8s-11.6 5.1-18.5 5.1c-7 0-14.4-2.3-14.4-2.3s13-3.7 19-3.7c6-.1 13.9.9 13.9.9zM292.6 202.5s-5.6 7.9-5.1 9.3c.5 1.4 7.4 26 4.2 29.7-3.2 3.7-8.3 3.2-12.1.9-3.7-2.3-7.4-6-6-7.9s3.7-2.3 3.7-2.3M153.9 289.3l7.8-19.8s.9-1.8-2.9-7c-3.8-5.1-2.3-10.8.3-21.5 2.2-9.1 5.6-42.2 6.6-52 .2-1.6 1.3-3 2.9-3.4h0c2.5-.7 5.1 1.2 5.1 3.8v28.9l5 .3 5.6-36.4c.3-1.9 1.9-3.3 3.7-3.4h0c2.4-.1 4.4 1.8 4.2 4.2l-1.7 36.2 2.8.4 8.2-36.2c.5-2 2.4-3.4 4.5-3.2h0c2.2.2 3.8 2.2 3.6 4.5l-3.5 35.7 13.7-26.7c.7-1.4 2.3-2.1 3.8-1.6h0c1.8.5 2.8 2.5 2.1 4.3l-14.1 35.5s5.6-4.7 11.1-9c5.6-4.3 10.2-3.8 8.5 1.3s-6 7.7-10.7 14.1c-4.7 6.4-7.3 14.9-11.1 21.8-3.8 6.8-17.2 9.2-17.2 9.2s-14.8 26.2-16.1 27.1l-22.2-7.1z"/><path class="st9" d="m169.4 218.3 39.3 2.7"/><path class="st15" d="M181.6 264.6s-4.1-8.2 5.7-20.6 15.4-10.7 15.4-10.7"/><path class="st11" d="m147.2 349.9 24.7-44.8-22.2-19.6-2.5 1.9z"/><path class="st12" d="M149.5 308.2c.1 0 .2 0 .3-.1l6.9-5.5c.2-.2.3-.5.1-.7s-.5-.3-.7-.1l-6.9 5.5c-.2.2-.3.5-.1.7.1.1.2.2.4.2zM162 316.2c-.1-.3-.4-.4-.7-.3s-.4.4-.3.7l1.9 4.7.6-1.2-1.5-3.9z"/><path class="st9" d="m147.2 349.9 24.7-44.8-22.2-19.6-2.5 1.9z"/><path class="st15" d="m153.5 275.7-6.3 9.1v7l25.1 19.3 13.7-18.8z"/><circle transform="rotate(-5.671 200.502 404.9)" class="st19" cx="200.5" cy="404.9" r="13.2"/><path class="st18" d="M200.5 408.1c-1.5 0-2.7-1.2-2.7-2.7V397c0-1.5 1.2-2.7 2.7-2.7 1.5 0 2.7 1.2 2.7 2.7v8.5c0 1.4-1.2 2.6-2.7 2.6z"/><path class="st18" d="M200.5 410.1c-2.6 0-4.7-2.1-4.7-4.7v-4c0-.3.2-.5.5-.5s.5.2.5.5v4c0 2.1 1.7 3.7 3.7 3.7 2.1 0 3.7-1.7 3.7-3.7v-4c0-.3.2-.5.5-.5s.5.2.5.5v4c.1 2.5-2.1 4.7-4.7 4.7z"/><path class="st18" d="M200.5 415.1c-.3 0-.5-.2-.5-.5v-5.1c0-.3.2-.5.5-.5s.5.2.5.5v5.1c0 .3-.2.5-.5.5z"/><path class="st18" d="M203.8 415.4h-6.5c-.3 0-.5-.2-.5-.5s.2-.5.5-.5h6.5c.3 0 .5.2.5.5s-.2.5-.5.5z"/><circle class="st19" cx="288.2" cy="404.9" r="13.2"/><path class="st18" d="m296.4 401-3.9 2.2v-1.8c0-.9-.7-1.6-1.6-1.6h-8.7c-.9 0-1.6.7-1.6 1.6v7c0 .9.7 1.6 1.6 1.6h8.7c.9 0 1.6-.7 1.6-1.6v-1.8l3.9 2.2V401z"/><circle cx="244.4" cy="404.9" style="fill:#263238;stroke:#263238;stroke-width:.7242;stroke-linecap:round;stroke-linejoin:round;stroke-miterlimit:10" r="13.2"/><path class="st2" d="M251.1 402.1H237.8c-1.6 0-2.8 1.4-2.5 3l.4 2.1c.1.3.3.5.6.5h4c.3 0 .6-.3.6-.6v-2.3h7v2.3c0 .3.3.6.6.6h4c.3 0 .6-.2.6-.5l.4-2.1c.4-1.6-.8-3-2.4-3z"/><path class="st14" d="M353.7 180.7c.8 0 1.4-.6 1.4-1.4v-36.5c0-.8-.6-1.4-1.4-1.4h-3.5V71.7c0-9.7-7.9-17.5-17.5-17.5H161.4c-9.7 0-17.5 7.9-17.5 17.5v360.1c0 9.7 7.9 17.5 17.5 17.5h171.3c9.7 0 17.5-7.9 17.5-17.5V212.1h3.5c.8 0 1.4-.6 1.4-1.4v-16.3c0-.8-.6-1.4-1.4-1.4h-3.5v-12.4l3.5.1h0zm-9.5 237.4c0 6.9-5.8 12.5-12.9 12.5H162.6c-7.1 0-12.9-5.6-12.9-12.5V75.5c0-6.9 5.8-12.5 12.9-12.5h66.5l2.8 5.1c2.9 5.5 8.8 8.9 15.1 8.9s12.1-3.4 15.1-8.9l2.8-5.1h66.5c7.1 0 12.9 5.6 12.9 12.5l-.1 342.6h0z"/><path class="st15" d="M251.6 64.9c0-2.5-2.1-4.6-4.6-4.6s-4.6 2.1-4.6 4.6 2.1 4.6 4.6 4.6 4.6-2.1 4.6-4.6z"/><path style="fill:#fff;stroke:#fff;stroke-width:3;stroke-linecap:round;stroke-linejoin:round;stroke-miterlimit:10" d="M164 85.7h56.5V183H164z"/><path class="st13" d="M220.5 183v-29.7c-.4-.6-1-1.1-1.6-1.6-4.7-3.6-19.4-1.7-22.2-1.6-2.8.2-6.9.1-6.9.1s-8.2.3-15 .6c-4.5.2-8.1 2.8-10.4 5.9V183h56.1z"/><path class="st22" d="M183.8 150.3s-6.4.9-7.4 7.9 1.4 11.3 7.2 15.2 9.6 7.6 9.6 7.6 12.2-10.3 14-16.9c1.9-6.6-.9-12.3-3.9-13.3-3-1.1-19.5-.5-19.5-.5zM220.5 183v-7l-2.3.6-.8 6.4zM170.1 183l-.5-2.1-5.2-.5v2.6z"/><path class="st4" d="M166.8 167.9c1 4.2 1.9 8.3 2.9 12.5"/><path class="st18" d="M218.2 138.1c.5-.4 1.4-1 2.3-1.7v-27.3c-1.1-.9-2.7-1.5-3.1-2.7-.6-1.8 1.3-4.1 0-6.3s-6.5-.2-9-.8c-2.5-.6-3.1-1.8-4-3.9-1-2.2-4.6-1.2-5.7-1-1.1.2 2.9-3.7.8-6.1-2.1-2.4-9-.2-9.7 2.2-.8 2.4-3.6 0-4.4-2-.8-2-6.3-3.7-6.3-.2 0 1.7.7 2.8 1.4 3.6-1.8-1.1-4.7-2.6-6.6-1.4-2.9 1.8 1.5 4.1 1.5 4.1h-5.3c-1.7 0-3.8.7-5.6 1.6v7.3h.1-.1v45c2 0 3.5-.6 3.5.4 0 1.6.6 4.5 3.6 3.3 3.1-1.2 5.5-3.3 5.5-1.8s1.5 4.5 3.4 3.7 3.2-4.7 4.4-2.9c1.1 1.8 4 4.5 5.9 2.6 1.9-2 2.9-3.5 5.2-.6s5.2 3.5 5.9.6c.8-2.9 2.5-1.6 5.3 0 2.9 1.6 7.1.8 7.1-2.2 0-2.9-1.5-5.5.4-5.9s5.7-1.6 4.8-3.5c-1-2-2.9-3-1.3-4.1z"/><path class="st4" d="M217.6 180.9c.6-4.7 1.2-9.3 1.8-14"/><path class="st22" d="M184.4 160.7s.4-7.6.4-10.2v-6l13.8-.9s.7 10.7 3.6 15.2"/><path class="st23" d="M175.2 128.3s-2.9 3.2-2.9 4.3 2 4 3.6 4.5 2.1-.6 2.1-1.3c0-.6-2.8-7.5-2.8-7.5z"/><path class="st22" d="M204.5 127.1s3.9 1.8 4.4 2.8c.4 1-.3 4.5-1.5 5.5s-2.2.2-2.4-.3c-.4-.7-.5-8-.5-8z"/><path class="st23" d="M179.7 110.3s-5.3 3.5-5.9 8.4c-.6 4.9 3.7 20.6 5.5 23.2 1.8 2.7 11.8 8.8 14.7 8.4 2.9-.4 9.6-9.6 10.8-11.6s.2-17.3-.8-23.9c-1-6.5-8.2-8-14.9-8s-9.4 3.5-9.4 3.5z"/><path class="st18" d="M186.7 126.1c0 1-.5 1.7-1.1 1.7s-1.1-.8-1.1-1.7c0-1 .5-1.7 1.1-1.7s1.1.8 1.1 1.7zM198.1 124.8c0 1-.5 1.7-1.1 1.7s-1.1-.8-1.1-1.7c0-1 .5-1.7 1.1-1.7s1.1.8 1.1 1.7z"/><path class="st9" d="M193.1 123.1s-.4 5.2.7 5.5c1.2.3 2.2 2.9 0 3.8-2.2.9-3.2-.1-3.5-1.2"/><path class="st24" d="m182.6 128.8 3.9-.2M196.7 127.5l3.4-1.6"/><path class="st18" d="M177.8 108.7s3.5 1 2.2 2.7c-1.2 1.6-3.7 4.3-1.8 4.7 1.8.4 2.2.8 1 1.2-1.2.4-3.5 2.2-.2 2.7 3.3.4 4.7-.4 5.7-3.3s1-2 3.5-.6c2.4 1.4 4.3-3.1 3.3-4.7s-2.7-.4-2.4-2.9c.2-2.4 1.4-3.9 1.4-3.9l3.1 1.8s-2.4 2-.6 3.9c1.8 1.8 4.1 2.2 2.7 2.7-1.4.4-3.5 2.9-.8 3.3s4.5-1.4 4.5-3.1c0-1.6-1.2-3.3 0-4.5l2.7-2.7s-.4-3.3-7.7-4.5-13.3 1.8-14.5 3.1c-1.5 1.2-2.1 4.1-2.1 4.1z"/><path d="M184.8 136.4s3 4.1 4.8 5.2c1.8 1 5.4.6 7-.7s2.9-6 2.9-6-3.7 1.9-7.9 2c-4.1.1-6.8-.5-6.8-.5z" style="fill:#a6a6a6;stroke:#263238;stroke-width:.5;stroke-miterlimit:10"/><path class="st15" d="M188 137.6s1.7 2.2 4.3 2c4.1-.2 5.4-4 5.4-4l-11.1 1.1 1.4.9z"/><path d="M199.8 134.2s-1 .8-2.9.9c-2 .1-4.1.7-4.1.7s-1.1-.4-3.4.1-5.2.1-5.2.1 2.4 1.7 8.3 1.2c6.8-.5 7.3-3 7.3-3z" style="fill:gray;stroke:#263238;stroke-width:.5;stroke-miterlimit:10"/><path class="st27" d="M180.3 122.7c.5-.7 1.4-1.6 2.9-2.3 2.5-1.2 4-.6 4-.6M193.8 118.1s2.4-1.4 4.9-.5c1.1.4 1.8 1 2.1 1.4"/><path class="st9" d="M46.3 449.3h415.3"/></g></g></svg>