<svg version="1.1" id="Layer_1" xmlns="http://www.w3.org/2000/svg" xmlns:xlink="http://www.w3.org/1999/xlink" x="0" y="0" viewBox="0 0 733 500" style="enable-background:new 0 0 733 500" xml:space="preserve"><style>.st5{fill:#919191}.st7{fill:#fff;stroke:#263238}.st10,.st11,.st7,.st8{stroke-miterlimit:10}.st8{fill:#858585;stroke:#263238;stroke-linecap:round;stroke-linejoin:round}.st10,.st11{fill:none;stroke:gray}.st11{fill:#fff;stroke:#263238;stroke-linejoin:round}.st12{stroke-linecap:round}.st12,.st14,.st16{fill:none;stroke:#263238;stroke-linejoin:round;stroke-miterlimit:10}.st16{fill:#62cc9a;stroke-linecap:round}.st17{fill:#263238}.st18{fill:#fff;stroke:#263238;stroke-linecap:round;stroke-linejoin:round;stroke-miterlimit:10}.st19{fill:#62cc9a}.st20{opacity:.4}.st21{fill:#fff}.st22,.st23{fill:#263238;stroke:#263238;stroke-linecap:round;stroke-linejoin:round;stroke-miterlimit:10}.st23{fill:none;stroke-width:2}</style><g id="Plant"><defs><path id="SVGID_1_" d="M0 0h733v500H0z"/></defs><clipPath id="SVGID_2_"><use xlink:href="#SVGID_1_" style="overflow:visible"/></clipPath><g style="clip-path:url(#SVGID_2_)"><path d="M-128.4 492.7s43.5 171.6 182.6 222.6 253.6-44.8 366-83.6c58.9-20.3 119.9 3.8 180.1 0 192.4-11.9 301.8-297.8 246.7-483C799.3-11.6 691.3-111 513.8-163.4s-300.9-97.3-480.9 16.1C-147.2-33.9-176 268.9-128.4 492.7z" style="fill:#92e3a9"/><path d="M-128.4 492.7s43.5 171.6 182.6 222.6 253.6-44.8 366-83.6c58.9-20.3 119.9 3.8 180.1 0 192.4-11.9 301.8-297.8 246.7-483C799.3-11.6 691.3-111 513.8-163.4s-300.9-97.3-480.9 16.1C-147.2-33.9-176 268.9-128.4 492.7z" style="opacity:.7;fill:#fff;enable-background:new"/></g><defs><path id="SVGID_3_" d="M0 0h733v500H0z"/></defs><clipPath id="SVGID_4_"><use xlink:href="#SVGID_3_" style="overflow:visible"/></clipPath><g style="clip-path:url(#SVGID_4_)"><path d="M361 50.4v163.8h-87.6V50.4H361m3.1-3H270.3v170H364.1v-170z" style="fill:none;stroke:#a2a7a9;stroke-miterlimit:10"/><path class="st5" d="M278.6 81.4c.9.7 1.8 1.2 2.8 1.7 1.9 1 3.9 1.8 5.9 2.5 1 .3 2 .7 3.1 1 1 .3 2.1.6 3.2.6V87c-1-.1-2.1-.4-3.1-.7-1-.3-2-.7-3-1.1-2-.8-3.9-1.7-5.8-2.7-.9-.5-1.8-1.1-2.6-1.8-.8-.6-1.6-1.4-2-2.3l-.1-.3c0-.1 0-.2-.1-.3-.1-.2 0-.4 0-.6.1-.4.3-.8.6-1.2.6-.7 1.5-1.3 2.4-1.7.5-.2.9-.4 1.4-.6s1-.4 1.5-.5c1-.3 2-.7 3-.9l1.5-.4 1.6-.3c1-.2 2.1-.3 3.1-.4 4.2-.3 8.4.2 12.7.5 4.3.4 8.6.7 12.9.7 4.3-.1 8.7-.4 12.9-1.1 4.2-.8 8.5-1.6 12.6-2.9l1.5-.5 1.5-.6c.5-.2 1-.4 1.5-.7.5-.3 1-.4 1.5-.7.9-.6 1.9-1.1 2.7-2l.6-.6c.2-.2.3-.5.5-.7.2-.5.4-1.1.1-1.7l-.2.1c.1.5-.1 1-.3 1.4-.1.2-.3.4-.5.6-.2.2-.3.4-.6.5-.8.6-1.8 1.1-2.7 1.5l-1.5.6c-.5.2-1 .3-1.5.5-.5.1-1 .3-1.5.5l-1.5.4c-4.1 1-8.3 1.6-12.5 2.2-2.1.2-4.2.5-6.3.7-2.1.2-4.2.3-6.3.4-4.2.2-8.5 0-12.7-.2-2.2-.1-4.5-.3-6.8-.4.1-1.5 0-3-.2-4.5-.1-.9-.3-1.9-.6-2.9-.1-.2-.2-.5-.3-.7-.1-.2-.3-.5-.4-.7 0 0 0-.1.1-.2.1-.2.4-.5.6-.7.3-.2.6-.5.9-.7.7-.5 1.4-.9 2.2-1.3 1.5-.8 3.2-1.4 4.9-1.9 1.7-.4 3.5-.8 5.2-.9 1.7-.1 3.5.2 5.2.8 3.4 1.1 6.5 3.2 9.2 5.6l.2-.2c-1.2-1.4-2.6-2.6-4.1-3.7-1.5-1.1-3.1-2.1-4.9-2.8-1.7-.7-3.6-1.2-5.6-1.2-1.9-.1-3.8.2-5.7.6-1.9.4-3.7.9-5.5 1.6-.9.4-1.8.8-2.6 1.4-.8.6-1.7 1.2-2.3 2.4-.1.3-.3.7-.3 1.1 0 .5.2.9.4 1.3.2.2.2.3.3.5.1.2.2.3.3.5.4.7.6 1.6.9 2.4l1.2 4.2c-1.9 0-3.7 0-5.6.2-1.1.1-2.2.2-3.2.5l-1.6.3-1.6.4c-1.1.3-2.1.6-3.1 1s-2 .8-3 1.3-2 1.1-2.7 2.1c-.4.5-.6 1.1-.7 1.7 0 .3 0 .7.1.9 0 .2.1.3.1.5l.2.4c.8.9 1.6 1.7 2.5 2.4z"/><path class="st5" d="M323.4 107.9c-.3-.7-.7-1.4-1.1-2.1-.8-1.4-1.6-2.7-2.5-4-1.4-2.1-2.9-4.2-4.5-6.2.6-1.1 1.2-2.3 1.7-3.5.6-1.4 1.2-2.7 1.7-4.2 1.4.3 2.9.3 4.4.1 1.7-.2 3.3-.8 4.8-1.6l2.1-1.2c.7-.4 1.3-.9 2-1.4 1.3-1 2.5-2.1 3.5-3.4.5-.7.9-1.4 1.2-2.2.1-.4.2-.8.2-1.3 0-.4-.1-.9-.4-1.3l-.2.1c.1.7-.2 1.4-.6 2s-.9 1.1-1.5 1.6c-.3.2-.6.5-.9.7s-.6.5-.9.7l-.9.7-1 .6-3.9 2.5c-1.2.8-2.6 1.4-4 1.8-1.4.3-2.9.4-4.4.1s-2.9-.8-4.2-1.5c-2.7-1.4-5.1-3.5-7-5.9l-.2.1c.8 1.3 1.8 2.6 2.9 3.7s2.3 2.2 3.7 3.1c1.3.9 2.8 1.5 4.4 1.9-2 2.7-3.8 5.5-5.7 8.2-1.1 1.6-2.1 3.1-3.3 4.6-.6.7-1.2 1.4-1.8 1.9-.3.3-.6.4-.9.5H305.8s-.1-.1-.2-.1c-.5-.4-.9-1.3-1.2-2.1-.3-.9-.6-1.8-.8-2.7-.5-1.8-.9-3.7-1.2-5.6-.7-3.8-1.1-7.6-1.5-11.4h-.2c0 3.9.3 7.7.6 11.6.2 1.9.5 3.9.9 5.8.2 1 .4 1.9.7 2.9.2.5.3 1 .6 1.4.2.5.5 1 1 1.5.1.1.3.2.4.3l.6.3c.2.1.4.1.6.1s.4 0 .6-.1c.7-.2 1.2-.5 1.7-.8.9-.6 1.6-1.4 2.3-2.1 1.4-1.5 2.5-3.1 3.5-4.8.3-.5.5-1 .8-1.5 1.5 2 2.9 4.1 4.2 6.2.8 1.3 1.6 2.7 2.4 4 .4.7.7 1.4 1 2.1.1.4.3.7.3 1.1.1.4.1.5-.1.7-.5.3-1.4.4-2.1.4h-2.3c-1.5-.1-3.1-.2-4.6-.4-3.1-.4-6.2-.9-9.2-1.4-3.1-.5-6.1-1.1-9.2-1.7l-4.6-.9-1.2-.2-.6-.1h-.8c-.1 0-.2.1-.3.1-.2.1-.3.2-.3.4 0 .1-.1.1-.1.2v.6c0 .3.1.5.1.7l.3 1.2c1 3 2.3 5.9 3.6 8.8l3.7 8.6c2.4 5.7 4.8 11.5 6.6 17.4.9 2.9 1.7 5.9 2 8.9.2 1.5.2 3-.1 4.2-.2.6-.4 1.2-.8 1.6-.5.5-1 1.1-1.6 1.6-2.2 2.2-4.5 4.2-6.9 6.2-2.3 2.1-4.7 4.1-7 6.2-2.3 2.1-4.6 4.3-6.6 6.8-1 1.2-2 2.5-2.8 3.9s-1.5 2.9-1.7 4.4h.2c.8-3 2.9-5.4 5-7.6 2.1-2.2 4.5-4.3 6.9-6.3 4.8-4 9.8-7.7 14.5-12l1.7-1.7c.7-.8 1.1-1.7 1.3-2.6.4-1.8.4-3.5.2-5.1-.4-3.3-1.3-6.3-2.3-9.3-2-6-4.5-11.7-7.1-17.5l-3.9-8.5c-1.3-2.8-2.6-5.7-3.7-8.5-.1-.4-.2-.7-.3-1v-.2l.4.1 1.2.2 4.6.8 9.3 1.5c3.1.5 6.2.9 9.3 1.2 1.6.1 3.1.3 4.7.3h2.4c.4 0 .8-.1 1.2-.1.4-.1.8-.2 1.2-.4.2-.1.4-.3.5-.7.1-.3 0-.5-.1-.7.2-.6.1-1-.1-1.3zm-34.8-1z"/><path class="st5" d="M358 110.7c-.4-.4-.8-.6-1.3-.8-.9-.3-1.7-.3-2.6-.4-3.3 0-6.5.5-9.7.7-1.6.1-3.2.3-4.8.2-.8 0-1.6 0-2.4-.1s-1.6-.2-2.3-.5c-1.4-.6-2.7-1.6-3.7-2.8-1.1-1.2-2-2.5-2.8-3.9-1.6-2.8-2.8-5.8-3.7-8.9l-.2.1c.8 3.1 2 6.2 3.5 9.1.8 1.4 1.7 2.8 2.7 4.1 1.1 1.2 2.3 2.4 3.9 3.1.8.4 1.6.5 2.4.6s1.6.2 2.5.2c1.6 0 3.3 0 4.9-.1 3.2-.2 6.5-.6 9.6-.5.8 0 1.6.1 2.2.4.3.1.6.3.8.5.2.2.2.4.2.7 0 .1 0 .3-.1.5-.1.1-.1.3-.2.4-.2.3-.3.6-.6 1-.4.6-.9 1.3-1.4 1.9-2 2.5-4.2 4.9-6.4 7.3-4.3 4.8-8.7 9.7-12.7 14.8-2 2.6-3.9 5.2-5.6 8.1l-1.2 2.1c-.4.7-.8 1.5-1.1 2.2-.4.7-.7 1.5-1 2.3s-.6 1.6-.8 2.4c-.5 1.6-.7 3.4-.6 5.2.1.4.1.9.2 1.3l.4 1.3c.3.8.6 1.5.8 2.3 1.2 3 2.4 6 3.5 9.1 1.1 3 2.2 6 3.2 9.1.9 3.1 1.6 6.2 2.2 9.3.5 3.2.7 6.3.6 9.5s-.7 6.4-1.5 9.5l.2.1c1.2-3 2-6.2 2.4-9.5.3-3.3.3-6.6 0-9.8-.4-3.3-1-6.5-1.8-9.7-.9-3.2-1.9-6.3-2.9-9.3-1.1-3.1-2.3-6.1-3.4-9.1-.3-.7-.6-1.5-.8-2.2l-.3-1c-.1-.4-.1-.7-.1-1.1-.1-1.4 0-2.9.5-4.4.2-.7.4-1.5.7-2.2.3-.7.5-1.5.9-2.2.3-.7.7-1.4 1-2.1.4-.7.7-1.4 1.1-2.1 1.6-2.8 3.4-5.4 5.3-8 3.8-5.2 8.1-10.1 12.3-14.9 2.1-2.5 4.3-4.9 6.3-7.5.5-.6 1-1.3 1.5-2 .2-.3.4-.7.6-1.1.1-.2.2-.5.2-.7.1-.2.1-.5.1-.7-.1-.8-.3-1.4-.7-1.8z"/><path d="M203.6 93.3v.3c.2 2 1 14.2-1.8 17.6-3 3.8-10.1 8.1-21 10.4s-18.7 3.5-22.2 11.6-6.3 34.1-6.3 34.1 3.3 3 8.1 4.3 7.8.8 9.6 1.3l1.8.5 4.3-8.1 7.6 39.9-.3 14.2s-12.4 26.3-16.7 49.3-5.6 93.2-5.8 104.1-1 21-1 21l-.3 42.8h128.9s-.5-101.2-5.3-133.5-21.2-81-22.2-83.8-1.3-4-1.3-5.1-.3-8.3-.8-9.9c-.5-1.5-.5-3-.5-3s4.3-11.1 4.3-16.9v-11.1l3 5.3s3 2.5 9.4-.3c6.3-2.8 10.4-9.9 12.4-11.4s2.8-2.5 2.8-2.5-5.1-19.5-9.6-30.3c-4.5-10.9-22-14.7-27.8-16.7s-16.9-5.6-18.7-8.8c-1.8-3.3-1.3-15.4-1.3-15.4l-29.3.1z" style="fill:#263238;stroke:#263238;stroke-miterlimit:10"/><path class="st7" d="m262.7 173.4 3 5.3s3 2.5 9.4-.3c6.3-2.8 10.4-9.9 12.4-11.4s2.8-2.5 2.8-2.5-5.1-19.5-9.6-30.3c-4.5-10.9-22-14.7-27.8-16.7s-16.9-5.6-18.7-8.8c-1.8-3.3-1.3-15.4-1.3-15.4h-29.3v.3c.2 2 1 14.2-1.8 17.6-3 3.8-10.1 8.1-21 10.4s-18.7 3.5-22.2 11.6-6.3 34.1-6.3 34.1 3.3 3 8.1 4.3 7.8.8 9.6 1.3l1.8.5 4.3-8.1 7.6 39.9s45.2 9.2 74.8-3.8c0 0 4.3-11.1 4.3-16.9-.1-5.8-.1-11.1-.1-11.1z"/><path class="st8" d="M218 128.6c17.5.7 28.2-6.5 33.5-11.6-6-2.1-15.7-5.3-17.3-8.4-1.8-3.3-1.3-15.4-1.3-15.4h-29.3v.3c.2 2 1 14.2-1.8 17.6-2.4 3-7.4 6.3-14.8 8.7 3.8 3.2 12.7 8.1 31 8.8z"/><path d="M232.9 93.3c0 3.3-6.6 6-14.6 6-8.1 0-14.6-2.7-14.6-6s6.6-6 14.6-6 14.6 2.7 14.6 6z" style="fill:#a3a3a3;stroke:#263238;stroke-linecap:round;stroke-linejoin:round;stroke-miterlimit:10"/><path class="st10" d="M196.6 208s-1.7 2-1.3 5.7c.3 3.7.3 10.7.3 10.7S194 244 194.3 261M192 221s-6.3 36.7-4 54M174.2 270.8c-.1 1-.2 1.9-.3 2.9M189.6 224.7s-11 20.9-14.6 40.7M238.9 276.5c-.1 1.4-.1 2.8-.2 4.1M235.6 211.3V223s3.4 26.8 3.4 47.7M250.3 207l1.3 12.7s8.7 29.7 8.7 53.7M270 264.5c.4 2.7.6 5.3.6 7.5M254.6 205c0 1 1.7 13 1.7 13s8.3 21.2 12.3 39"/><path class="st7" d="M411 88c-16 0-29 13-29 29v305.5h9V117c0-11 9-20 20-20h186.5v-9H411z"/><path class="st11" d="m562 148.6-5.7-4c-8-5.5-14.5-13.6-18.6-23.3l-4.8-11.1H525.3l-4.8 11.1c-4.2 9.7-10.6 17.8-18.6 23.3l-5.7 4c-3.2 2.2-5.2 6.2-5.2 10.6h76.1c.1-4.4-1.9-8.4-5.1-10.6zm-30.8 5.9h-32.7c0-3.5 5.6-6.8 7.8-8.5l4-3.2c5.5-4.5 10-11 12.9-18.9l3.3-9h5.3l3.3 9c2.9 7.9 7.4 14.4 12.9 18.9l4 3.2c2.2 1.8 7.7 5 7.7 8.5h-28.5z"/><path class="st12" d="M529.1 110v-8.2s4.7-3.5 4.7-8.6-3.9-7-8.2-5.4"/><path d="m518.1 123.6 8.8 25.3 10.8-27.7s18.4 18.8 24.5 22.1 11.6 7.7 13.2 16.5c1.7 8.8 10.5 96.9 10.5 96.9l-20.4 1.1 1.8 49.8h-82.2l5-52h-19.3s12.1-95.3 15.4-101.9c3.3-6.4 31.9-30.1 31.9-30.1z" style="fill:#263238;stroke:#263238;stroke-linejoin:round;stroke-miterlimit:10"/><path class="st11" d="m509.8 129.7 5 27 10.4-17.6-6.6-18.8zM537.7 121.3l-9.1 18.3 9.3 18.2 7.7-30.3z"/><path class="st10" d="m565.4 258-4.4-83.7"/><path class="st14" d="m490 255.8 7.7-81.5"/><path class="st11" d="m540.2 148.6-5.7-4c-8-5.5-14.5-13.6-18.6-23.3l-4.8-11.1h-7.5l-4.8 11.1c-4.2 9.7-10.6 17.8-18.6 23.3l-5.7 4c-3.2 2.2-5.2 6.2-5.2 10.6h76.1c0-4.4-2-8.4-5.2-10.6zm-30.8 5.9h-32.8c0-3.5 5.6-6.8 7.8-8.5l4-3.2c5.5-4.5 10-11 12.9-18.9l3.3-9h5.3l3.3 9c2.9 7.9 7.4 14.4 12.9 18.9l4 3.2c2.2 1.8 7.7 5 7.7 8.5h-28.4z"/><path class="st12" d="M507.3 110v-8.2s4.7-3.5 4.7-8.6-3.9-7-8.2-5.4"/><path d="m496.3 123.6 8.8 25.3 10.8-27.7s18.4 18.8 24.5 22.1 11.6 7.7 13.2 16.5c1.7 8.8 10.5 96.9 10.5 96.9l-20.4 1.1 1.8 49.8h-82.2l5-52H449s12.1-95.3 15.4-101.9c3.3-6.4 31.9-30.1 31.9-30.1z" style="fill:#62cc9a;stroke:#263238;stroke-linejoin:round;stroke-miterlimit:10"/><path class="st11" d="m488 129.7 5 27 10.4-17.6-6.6-18.8zM515.9 121.3l-9.2 18.3 9.4 18.2 7.7-30.3z"/><path class="st14" d="m543.6 258-4.4-83.7M468.2 255.8l7.7-81.5"/><path class="st11" d="m492.4 152-6-4.2c-8.4-5.8-15.3-14.4-19.7-24.6l-5-11.8h-8.1l-5 11.8c-4.4 10.2-11.2 18.8-19.7 24.6l-6 4.2c-3.4 2.3-5.4 6.6-5.4 11.2H498c-.1-4.6-2.2-8.8-5.6-11.2zm-32.5 6.3h-34.6c0-3.7 5.9-7.1 8.2-9l4.2-3.4c5.8-4.7 10.6-11.6 13.6-19.9l3.5-9.5h5.5l3.5 9.5c3 8.3 7.8 15.2 13.6 19.9l4.2 3.4c2.3 1.9 8.1 5.3 8.1 9h-29.8z"/><path class="st12" d="M457.7 111.3v-8.6s4.9-3.7 4.9-9-4.1-7.4-8.6-5.7"/><path class="st11" d="M434.7 139s9.2 10.6 20.7 10.7c12.2.2 26.6-10.5 26.6-10.5s4.2 3.9 10.6 7.4 10.6 8.6 14 17.4c3.7 9.9 12 36.7 12 36.7l-23.8 1.2 3.3 53.9H419l5.4-54.9h-23.1s7.6-36.3 11.1-43.2c3.4-7 22.3-18.7 22.3-18.7z"/><path class="st14" d="m424.3 200.9 1.2-28.8M494.7 201.9l-1.8-28"/><path class="st12" d="M138.9 436.8h460"/><path class="st16" d="M160.7 379.2s-.2-6-2.8-10.2c-2.5-4.2-11.8-7.2-16.6-5.1s-7.2 3.5-7.2 3.5 7.2 2.1 13.6 6.5c6.5 4.4 13 5.3 13 5.3zM170.4 382.2s-5.5-5.3-6.5-12.7c-.9-7.4 6.9-18.9 6.9-18.9s3.9 7.2 6.2 15.5c2.4 8.3-6.6 16.1-6.6 16.1zM181 379.9s-1.4-6.9 1.2-11.8c2.5-4.8 9.2-4.4 15.9-2.3s8.8 2.1 8.8 2.1-7.8 5.3-14.5 8.1c-6.8 2.8-11.4 3.9-11.4 3.9z"/><path class="st17" d="M170.5 404.8c-.3 0-.6-.3-.6-.6v-33c0-.3.3-.6.6-.6s.6.3.6.6v33c0 .3-.3.6-.6.6zM173.2 404.8c-.4-.1-.6-.4-.6-.7.1-.8 2.9-20.4 12.4-31.2.2-.2.6-.3.8-.1.2.2.3.6.1.8-9.2 10.6-12.1 30.4-12.1 30.6 0 .4-.3.6-.6.6zM167.7 404.4c-.3 0-.6-.3-.6-.6 0-.2.1-19-11.1-27.9-.3-.2-.3-.6-.1-.8.2-.3.6-.3.8-.1 11.6 9.3 11.5 28.1 11.5 28.9.1.2-.2.5-.5.5zM176.9 404.1h-.2c-.3-.1-.5-.4-.4-.7.1-.2 1.7-6.2 5.4-11.3.2-.3.6-.3.8-.1.3.2.3.6.1.8-3.6 4.9-5.2 10.8-5.2 10.9 0 .2-.2.4-.5.4z"/><path class="st16" d="M180.6 394.9s-.2-6.5 2.5-7.4c2.8-.9 5.3 1.4 7.4 2.8 2.1 1.4 4.4 2.8 4.4 6.9 0 4.2-1.6 11.8-1.6 11.8s-2.3-7.2-6.2-10.4c-4-3.2-6.5-3.7-6.5-3.7z"/><path class="st17" d="M163.5 404.4c-.3 0-.5-.2-.6-.4 0-.1-1.8-5.6-6-8.9-.3-.2-.3-.6-.1-.8.2-.3.6-.3.8-.1 4.5 3.5 6.4 9.3 6.4 9.5.1.3-.1.6-.5.7.2-.1.1 0 0 0z"/><path class="st16" d="M160.7 397s.9-4.2-1.4-7.2-7.8-2.3-10.6.9c-2.8 3.2-6.7 12.9-6.7 12.9s5.5-4.4 12-4.4c6.5.1 6.7-2.2 6.7-2.2z"/><path class="st18" d="M179.1 439.7h-18.4l-9.2-30.4h36.8zM151.4 404.2h37.1v5.1h-37.1zM546.3 384.6h8.7v5h-8.7z"/><path class="st8" d="M567 439.7h-32.8l7.8-51.5h17.2z"/><path class="st12" d="m540.9 396.7 15.9-8.4M540.9 401l15.9-8.4M560.2 397.1l-16 8.9M543.7 411.5l5.5-2.7M563.3 417.2l-23.1 12.1M542.7 433.9l18.4-9.6M540.6 434.8l-4.5 2.6M565 431l-11.8 6.2"/><path class="st18" d="M523.1 384.6h8.7v5h-8.7z"/><path class="st18" d="M543.7 439.7H511l7.8-51.5H536z"/><path class="st12" d="m517.7 396.7 15.9-8.4M517.7 401l15.9-8.4M537 397.1l-16 8.9M520.5 411.5l5.5-2.7M540.1 417.2 517 429.3M519.4 433.9l18.5-9.6M517.4 434.8l-4.5 2.6M541.8 431l-11.9 6.2"/><path class="st19" d="M388.4 260.5s-39.7 7.7-50.3 10.3c-10.7 2.7-14.7 10.7-18.3 19.7-3.7 9-29.7 66-31 69.3s7 5.3 17.3 9 16.3 7.7 19.3 3.7 10.7-19.3 10.7-19.3l-3.3 83.7h123l-5.3-87.3s4.7-68 4.3-70.7c-.3-2.7-41-18.7-45.3-19-4.4-.4-21.1.6-21.1.6z"/><g class="st20"><path class="st21" d="m334.4 394.5-.2 5.1c28.2 4.5 70.1 8 119.4 1.9l-.3-5c-47.4 5.9-88.5 2.9-118.9-2zM440.3 315.1c-2.3 2.1-23.7 20.4-48.4 22-26.2 1.7-48.9-11.6-49-11.7L313 306c-.7 1.5-1.4 3-2.1 4.6l29.4 19.1c1 .6 24.2 14.2 52 12.4 27.8-1.8 50.7-22.6 51.6-23.5.1-.1.3-.3.4-.5.1-.1 3.5-5.2 8.9-11 .2-2.6.3-5.1.5-7.5-7.3 6.8-12.3 14-13.4 15.5zM298.3 338.6c-.7 1.6-1.4 3.1-2.1 4.6l36.7 16.1c.9-1.8 1.7-3.3 2.3-4.5l-36.9-16.2z"/><path class="st21" d="M320.3 289.1c13.1 6.7 50.3 25.4 62.1 26.6 11.8 1.1 51.7-26.5 69.2-39.1-1.4-.7-3.1-1.6-5.1-2.5-23.6 16.8-55.4 37.5-63.6 36.7-9.8-.9-41.8-16.4-60.6-26.1-.6 1.3-1.3 2.9-2 4.4zM336.4 360.8c1.7.5 42 12.6 73 9 26.6-3.1 38.1-12 41.4-15.1l-.3-5.2s.1-1.8.3-4.7c-2.1 2.8-2.9 4.9-3.2 6.1-2.1 2-12.6 10.9-38.7 14-29.1 3.4-68.2-8-70.9-8.8l-1.9-.8-.2 5.4.3.1c0-.1.1-.1.2 0z"/><path class="st21" d="M370.2 326.9c21.6 3.7 47.8-8.9 64.2-22.9 5.9-5 13.2-10.6 19.9-15.5.1-2.6.3-4.8.3-6.4-7.7 5.5-16.5 12.1-23.5 18.1-15.5 13.3-40.1 25.2-60.1 21.8-16.3-2.8-42.8-20.9-52.7-28-.6 1.3-1.3 2.9-2.1 4.7 10.8 7.6 37 25.3 54 28.2zM454.9 422.3l-.3-5c-25.6 1.3-76.5 3.1-121-.5l-.2 5c19.8 1.6 40.7 2.2 60.2 2.2 24.6-.1 46.9-1 61.3-1.7zM352.4 385.5c30.4 4.4 86.7.1 100.2-1.1l-.9-14.8c-.4.8-.6 1.2-.6 1.3-.2.4-.2.9-.1 1.3l1.3 7.1c-13 1.1-69.6 5.4-99.1 1.1-5.9-.8-11.9-1.9-18-3l-.2 5c5.8 1.2 11.7 2.2 17.4 3.1z"/><path class="st21" d="M337.2 344c2 1.2 30.1 17.8 60.1 14.2 30.5-3.6 50.7-23.6 51.6-24.4.2-.2.4-.4.5-.8 0 0 .5-1 2.3-2.7.1-2.2.3-4.6.5-7-4.7 3.6-6.4 6-7.1 7.2-2.5 2.3-21.5 19.5-48.4 22.7-28.7 3.4-56.7-13.4-57-13.5l-.1-.1-33.7-17.8c-.7 1.5-1.4 3-2.1 4.6l33.4 17.6z"/></g><path class="st12" d="m336.1 353.2 8.3-40.1"/><path class="st18" d="M330.5 274.3c12 8.4 47 32.4 53.6 31.8 6.1-.5 33.7-26.4 46.7-38.9-9.8-3.9-19.3-7.3-21.3-7.5-4.3-.3-21 .7-21 .7s-39.7 7.7-50.3 10.3c-3.1.9-5.6 2.1-7.7 3.6z"/><path class="st12" d="M388.4 260.5s-39.7 7.7-50.3 10.3c-10.7 2.7-14.7 10.7-18.3 19.7-3.7 9-29.7 66-31 69.3s7 5.3 17.3 9 16.3 7.7 19.3 3.7 10.7-19.3 10.7-19.3l-3.3 83.7h123l-5.3-87.3s4.7-68 4.3-70.7c-.3-2.7-41-18.7-45.3-19-4.4-.4-21.1.6-21.1.6z"/><path class="st18" d="M418.8 261.8s-1 19.7-5.3 48.7-4.3 27.7-4.3 41 3.3 56 3.3 56h5.3s-4.3-45-4-56.7 3-35 6-45.3 4-41 4-41l-5-2.7zM377.5 262.2l-7.1 1.6s-3 19.3-1.7 38 3.3 24.3 3.3 24.3 1.7-45.3 3-53.7c1.4-8.2 2.5-10.2 2.5-10.2zM372.1 326.2s.7 21-.7 43c-1.3 22-1.3 41.3-1.3 41.3l6 .3s-.7-25.3-.7-46.7c0-21.3-3.3-37.9-3.3-37.9zM381.4 281.5l1-33.7h34.7l-.7 30.7"/><path class="st22" d="m416.9 257-8.4-9.2h-26l-.7 24.6c1.9.8 6.6 1.8 14.6-.5 10.4-3 19.5-13.3 20.6-14.6l-.1-.3zM366.1 165.7c-6.9 6.9-12.8 16.5-13.1 25-.3 9.9-6.2 24-9.3 25.4-3.1 1.4-4.1 2.4-4.1 2.4s6.5 3.1 9.3 2.7c2.7-.3 5.1-1.4 5.1-1.4s-2.1 2.7-3.4 4.1l-1.4 1.4 5.5 1.4s-3.8 2.4-6.5 3.1c-2.7.7-4.5.7-4.5.7s.7 6.2 7.9 8.2c7.2 2.1 12.7 1 12.7 1l-4.1 4.1s1 1 7.9 1.4c6.9.3 10.3-1.7 10.3-1.7l42.2-1.7s1 3.4 5.8 5.1c4.8 1.7 7.2 2.4 7.2 2.4s-.7-2.7-1-4.1c-.3-1.4-1-6.9-1-6.9s2.4 6.2 13.7 6.5c11.3.3 15.1-6.2 15.1-6.2s-4.1 0-6.9-3.8c-2.7-3.8-3.1-5.1-3.1-5.1s4.5 1.7 7.9 1.4 6.2-2.7 6.2-2.7-13.4-9.6-14.1-16.1-2.4-31.9-7.2-40.5-13-16.5-34.3-20.2c-11.5-2-23.6 1.3-33.6 6.9-3 1.7-6.2 4.2-9.2 7.2z"/><path class="st18" d="M420.8 196.9s-20.4 17.7-52.2 22.6c0 0 .1 20.2 11 33.6 11.8 14.6 19.1 14.8 22.1 14.5 8.3-.7 25.1-20.2 25.9-23.6.8-3.4 1.9-16.3 1.9-24.6s-9.8-13.8-8.7-22.5z"/><path class="st17" d="M362.2 225.4c-.6 0-1-.5-1.1-1 0-.6.4-1.1 1-1.1 41.9-1.2 56.9-24.4 57.1-24.6.3-.5 1-.6 1.5-.3s.7 1 .3 1.5c-.6.9-15.7 24.3-58.8 25.5z"/><path class="st12" d="M381.3 231.6s3 .7 7.3 0M411.9 231.3s4.7.9 8.4-.2"/><path class="st17" d="M416.6 228.5c0 1.7-.7 3-1.5 3s-1.5-1.3-1.5-3 .7-3 1.5-3 1.5 1.3 1.5 3z"/><path class="st18" d="M430.8 223.8c-.6-1.2-2-1.9-4.2-2.2-3.5-.5-22.5.8-23.3.8l-.3.1-.6.3v-.1h-5.9v.1l-.6-.3-.3-.1c-.8-.1-19.8-1.3-23.3-.8-2.2.3-3.6 1.1-4.2 2.2-.4.8-.4 1.8 0 2.7.1.2.2.5.3.8 1.1 3.1 4 11.3 14.3 11.7h1.4c10.3 0 12.8-4.9 14.4-9.5.1-.4.2-.8.3-1.1h1.5c.1.4.2.7.3 1.1 1.5 4.6 4.1 9.5 14.4 9.5h1.4c10.3-.4 13.2-8.6 14.3-11.7.1-.4.2-.7.3-.8.2-.9.3-1.8-.2-2.7zm-32.5 1.1h2.2c-.2.4-.3.9-.4 1.4h-1.4c-.1-.5-.3-1-.4-1.4zm-2.1 4.1c-1.5 4.6-3.6 8.3-13.5 7.9-8.8-.3-11.3-7.3-12.3-10.3-.2-.5-.3-.8-.4-1.1-.1-.2-.2-.5-.1-.7s.6-.8 2.6-1.1c.5-.1 1.3-.1 2.4-.1 5.1 0 15.7.6 20.3.9.4.4 2 1.5 1 4.5zm32.6-3.4c-.1.2-.2.6-.4 1.1-1.1 3-3.5 9.9-12.3 10.3-9.9.4-12-3.4-13.5-7.9-1-3 .6-4.1 1.1-4.3 5.6-.4 20-1.2 22.7-.8 2 .3 2.5.9 2.6 1.1 0 0-.1.3-.2.5z"/><path class="st12" d="M393.4 242.4s3.6 2.8 6.2 2.6 5.2-2 5.8-3.2M390.6 247.4s1.5 4.8 10.4 4.4c6.4-.3 7.8-5 7.8-5"/><path class="st23" d="M406.5 219.8s6.6-3.6 11.8-3c5.2.6 7.4 2.4 7.4 2.4M392.3 219.7s-4.7-2-9.9-1.6c-5.2.4-9 2.4-9 2.4"/><path class="st17" d="M385.5 228.5c0 1.7-.7 3-1.5 3s-1.5-1.3-1.5-3 .7-3 1.5-3 1.5 1.3 1.5 3z"/><path class="st19" d="M449.1 276.2s16.7 5.3 20 8.7c3.3 3.3 24 52.3 30 60.3s3 11.7 0 14.7-22 11-29.3 11.7-15 2.3-18.3-10.7-4-31.7-7.3-41.3c-3.3-9.7-4.3-11-4.3-11"/><g class="st20"><path class="st21" d="M460.6 317.8c-8.5 5-12.5 8.8-14.4 11 .4 2.1.7 4.2 1 6.5.9-.8 1.5-1.4 1.6-1.5.2-.2.4-.4.5-.8 0 0 2.1-4.1 13.7-10.9 5.5-3.2 13.1-6.3 19.9-8.8-.7-1.5-1.4-3.1-2.1-4.6-6.7 2.5-14.4 5.7-20.2 9.1zM468.8 330.7c-12.4 6.5-17.6 12.9-19.8 16.9.4 2.6.8 5.2 1.3 7.7 1-.8 1.4-1.4 1.5-1.5.3-.3.5-.8.6-1.2 0-.1 1.7-8.5 18.8-17.4 7.1-3.7 13.7-5.6 19.1-6.6-.7-1.5-1.5-3.1-2.2-4.7-5.7 1-12.3 3.1-19.3 6.8zM453.5 366.3c1 1.8 2.2 3.1 3.5 3.9 2.2-3.9 7.9-11.7 19.4-17.2 7.9-3.7 16.5-5.9 23.2-7.1-.2-.2-.3-.5-.5-.7-.6-.8-1.4-2.2-2.4-3.8-6.7 1.3-14.8 3.5-22.5 7.2-11.4 5.3-17.7 12.9-20.7 17.7zM441.8 313.1c.5 1.4 1.2 3.3 2 5.6l.1-.1c.1-.1.3-.3.4-.5.2-.2 13.4-20 29.2-25.3-.8-1.7-1.6-3.3-2.3-4.5-13.9 5.1-25.3 19.2-29.4 24.8zM448.3 279c1-.7 2-1.4 2.9-2.1-1.3-.4-2.1-.7-2.1-.7l-.8 2.8zM445.4 288.8l-2.3 8.1c7.1-5.5 14.7-11 20.7-15.2-1.7-.8-3.6-1.6-5.5-2.3-3.9 2.8-8.4 6.1-12.9 9.4z"/></g><path d="M449.1 276.2s16.7 5.3 20 8.7c3.3 3.3 24 52.3 30 60.3s3 11.7 0 14.7-22 11-29.3 11.7-15 2.3-18.3-10.7-4-31.7-7.3-41.3c-3.3-9.7-4.3-11-4.3-11" style="fill:none;stroke:#263238;stroke-miterlimit:10"/><path class="st18" d="M500.4 377.8s-3-13-5.7-17.7-22.7-.7-30.3 2.3-47.3 13.3-59.7 16.3c-12.3 3-20.3 6.7-24.7 11-4.3 4.3-24.3 14.3-23 16.3s7.7 2 12 2 15-3.3 16-4 2.3-.7 2.3-.7L380 409s1 3 4.7.7 10.3-7 11.7-8c1.3-1 7.7-3.3 9.7-5.3s3.3-5.3 3.3-5.3 45.3 1.3 66.3-2c21.1-3.3 23.7-8.9 24.7-11.3z"/><path class="st12" d="M365.1 408.2s0-1.7 3.7-3 10-3 17.3-9M387.4 403.5s4.7-3.3 7.3-5.7M360.8 407.5s-.3-2.7 4-4.7 8.7-3.3 16.7-9.7"/><path class="st18" d="M324.1 394.5s-2.3-8.7-5.7-23.7c-3.3-15-16.3-16.7-22-15.3-5.7 1.3-9.3 5.7-7.7 14.7 1.7 9 15.7 35 17.7 37.3s16 .7 19.7-3.7c3.7-4.3-2-9.3-2-9.3z"/><path class="st18" d="M310.1 405.8s11.7-8.7 15.3-10.3c3.7-1.7 16.7-1.7 21-.7s10 13 10 13-37 2-42.3 2-7.3 1-7.7-2.3"/><path class="st12" d="M334.4 409.2s-8.7-9-10.3-10.7M341.1 408.2l-10-11.7M349.4 408.5s-6.7-9.7-10.3-12.7"/><path class="st16" d="M226 331.9h10.7v16.6H226z"/><path class="st12" d="m225.9 336.9 6.3-4.6M226.1 340.9l10.6-9M227.7 339.5l3.5 5.1M230.8 337.2l3.9 6M233.8 334.6l2.8 5.1M226.8 348.6l9.8-7M232.4 348.1l4-2.3"/><path class="st18" d="m300.9 348-2.1 2.5h-51.3l-2.2-2.5h-29.8v22.9h115.3V348z"/><path class="st18" d="M352.2 397.3h-32.7l-7-57.4h46.7z"/><path class="st18" d="m349.2 339.9-.5 57.4h3.5l7-57.4zM297.6 358.5h-48c-.9 0-1.7-.7-1.7-1.7v-.2c0-.9.7-1.7 1.7-1.7h48c.9 0 1.7.7 1.7 1.7v.2c0 .9-.8 1.7-1.7 1.7z"/><path class="st18" d="M220.5 370.9v71.2h173.7v-24.6c0-3.6-2.9-6.4-6.4-6.4H267.4c-2.7 0-4.8-2.2-4.8-4.8v-9.6c0-10.4 5.2-20 13.9-25.7h0l-56-.1z"/><path class="st18" d="M215.5 370.9v71.2h173.7v-31H262.4c-2.7 0-4.8-2.2-4.8-4.8v-9.6c0-10.4 5.2-20 13.9-25.7h0l-56-.1z"/><circle class="st8" cx="230.6" cy="427.4" r="11"/><path class="st8" d="m318.3 387.5 1.2 9.8h32.7l1.2-9.8z"/><path style="fill:#666;stroke:#263238;stroke-linecap:round;stroke-linejoin:round;stroke-miterlimit:10" d="m348.8 387.5-.1 9.8h3.5l1.2-9.8z"/><path class="st16" d="M279.2 450s-61.8 1.8-66.4.9c-4.5-.9 14.5-7.3 40-10.5 25.4-3.2 67.3 10 67.3 10l-40.9-.4z"/><path class="st16" d="M352.3 404.9c-4.5.1-9.1.5-13.6 1-8.3.9-24.2-.1-30.5 6.1 0 0-9.1 14.1-12.7 20s-6.4 9.5-10 10.9-19.1 7.7-19.1 7.7h129.1s19 .7 25.3-7.1c6.9-8.3-4.8-17.8-10.8-22.3-9.9-7.4-20.7-10.6-32.5-13.8-8.3-2.1-16.7-2.7-25.2-2.5z"/><path class="st16" d="M390.5 440.2s20.3-4 38.2-.5c17.8 3.5 43.1.5 55 1.5s31.2 3.5 31.2 3.5-29.7 5-45.1 5.9c-15.4 1-29.7 2-29.7 2s-7.9.5-28.8-5.9l-20.8-6.5z"/><path class="st22" d="M347.9 450.6s12.4-1 27.8-6.9 24.3-5 35.7-.5 15.4 8.4 28.8 9.4l-92.3-2z"/></g></g></svg>