<svg xmlns="http://www.w3.org/2000/svg" xmlns:xlink="http://www.w3.org/1999/xlink" viewBox="0 0 733 500" style="enable-background:new 0 0 733 500" xml:space="preserve"><style>.st1{fill:none;stroke:#263238;stroke-linecap:round;stroke-linejoin:round;stroke-miterlimit:10}.st3{fill:#263238}.st4,.st5{fill:#e9a681;stroke:#263238;stroke-linecap:round;stroke-linejoin:round;stroke-miterlimit:10}.st5{fill:#92e3a9}.st6{opacity:.2}.st9{fill:#fff}.st10{fill:#999;stroke:#263238;stroke-linecap:round;stroke-linejoin:round;stroke-miterlimit:10}.st15{opacity:.2;clip-path:url(#XMLID_6_)}.st20{opacity:.2;fill-opacity:.7}.st21,.st23{opacity:.4;fill:#f9d3c0}.st23{fill:#92e3a9}</style><g id="Plant"><path style="fill:#f6e0d5" d="M0 0h733v500H0z" id="Background_Simple_1_"/><path class="st1" d="m541.1 314.8-.8 7 13.6-15.9c1.7.2 3.3.3 4.9.3M524.1 266.5c-1.8 2.7-2.9 5.7-3.3 9-1.3 11.6 7.8 22.6 21.6 27.7l-.7 6.3M529.4 260.7c-.9.7-1.7 1.5-2.5 2.3M580.4 260.7c-5.6-4-12.8-6.8-20.9-7.7-8.6-1-16.7.4-23.3 3.4M568.3 305.2c13-2.7 22.8-11 24-21.8.8-7.5-2.7-14.8-9-20.4"/><path class="st1" d="M536.3 268.4c2.2.4 4.6-.1 6.4-1.4 1.6 1.3 3.2 2.5 4.9 3.8-.3.1-.3-.6.1-.6s.6.3.9.6c1.1 1.2 3.1 1.2 4.7.9 1.6-.4 3.2-1 4.9-.9 1 .1 1.9.4 2.9.7 6.7 2.1 13.6 3.1 20.6 4.1M530.5 275.5c1-.1 6.6 0 7.4-.7.5.8.9 1.6 1.4 2.4l1.5-1.5c.3 1 .5 2 .8 2.9 1.1.3 1-1.9 1.9-2.6.6-.4 1.4 0 1.8.5.4.6.4 1.3.5 2 2.3.2 4.6.4 6.8.6.4 0 .9.1 1.3.1.5-.7 1.2-1.3 2-1.6-.2 1.6 1.7 2.5 3.3 2.8 7.8 1.6 15.6 3 23.5 4.1M533.6 286.4c.6.4 1.4-.4 2.2-.5.8-.1 1.4.5 2.1.8s1.8.2 1.8-.6c.2 1 1.4 1.4 2.4 1.5 8.8 1.2 17.5 2.5 26.3 3.7M182.2 252.2l10.5 14.2-2.1-18.5s3.6-1.7 7.2-4.3c10.8-7.8 15.1-20.3 11.2-30.5-2.8-7.1-9.3-11.9-17.5-13.8M140.6 229.9c-.3 3.2.1 6.4 1.3 9.4 4.3 10.9 17.4 16.4 32 14.5M142.6 222.3c-.5 1.1-.8 2.1-1.2 3.2M187.8 198.6c-6.8-.9-14.5 0-22.1 2.9-8 3.1-14.6 8.1-19 13.8"/><path class="st1" d="M152.3 225.9c2.1-.6 4-2.2 5-4.2 2 .4 4 .7 6.1 1.1-.3.3-.6-.4-.3-.6.3-.2.7 0 1 .1 1.6.5 3.3-.3 4.6-1.4 1.3-1.1 2.4-2.4 3.9-3.1.9-.4 1.9-.6 2.9-.8 6.9-1.3 13.5-3.6 20.1-5.9M150.5 234.9c.9-.5 5.8-3.1 6.2-4 .8.5 1.5 1 2.3 1.5.2-.7.4-1.3.7-2 .7.8 1.4 1.5 2 2.3 1.1-.3 0-2.2.5-3.2.3-.6 1.2-.7 1.8-.4.6.3 1 .9 1.3 1.5l6.3-2.7c.4-.2.8-.3 1.2-.5.1-.9.5-1.7 1-2.3.5 1.5 2.7 1.4 4.2.9 7.6-2.2 15.2-4.6 22.7-7.3M158.3 243.1c.8.1 1.1-1 1.7-1.4.6-.4 1.5-.2 2.2-.2.8 0 1.7-.7 1.4-1.3.6.8 1.9.6 2.8.2 8.3-3 16.6-6 25-8.9"/><defs><path id="XMLID_89_" d="M487.1 322.9H237.8c-4.9 0-8.8-3.9-8.8-8.8V89.4c0-4.9 3.9-8.8 8.8-8.8h249.3c4.9 0 8.8 3.9 8.8 8.8V314c0 4.9-3.9 8.9-8.8 8.9z"/></defs><use xlink:href="#XMLID_89_" style="overflow:visible;fill:#e9a681"/><clipPath id="XMLID_2_"><use xlink:href="#XMLID_89_" style="overflow:visible"/></clipPath><path d="M495.9 213.3v101c0 4.7-3.8 8.5-8.5 8.5H237.5c-4.7 0-8.5-3.8-8.5-8.5v-20h.5v13.5c0 5.4 4.4 9.8 9.8 9.8h241.4c5.4 0 9.8-4.4 9.8-9.8v-79.5c0-3.8-3-6.8-6.8-6.8H229v-8.2h266.9z" style="opacity:.2;clip-path:url(#XMLID_2_)"/><use xlink:href="#XMLID_89_" style="overflow:visible;fill:none;stroke:#263238;stroke-linecap:round;stroke-linejoin:round;stroke-miterlimit:10"/><path class="st3" d="M472.7 242.1v-11.6c0-2.4-1.9-4.3-4.3-4.3H256.5c-2.4 0-4.3 1.9-4.3 4.3v11.6c0 2.4-1.9 4.3-4.3 4.3s-4.3 1.9-4.3 4.3v22.8c0 11 8.9 19.9 19.9 19.9 1.8 0 3.2 1.4 3.2 3.2v6.8c0 5.3 4.3 9.5 9.5 9.5h172.5c5.3 0 9.5-4.3 9.5-9.5v-6.8c0-1.8 1.4-3.2 3.2-3.2 11 0 19.9-8.9 19.9-19.9v-22.8c0-2.4-1.9-4.3-4.3-4.3s-4.3-1.9-4.3-4.3z"/><path class="st4" d="M268.5 232.8H261c-1.9 0-3.4 1.5-3.4 3.4v1.9c0 3.9 3.2 8.9 7.1 8.9 3.9 0 7.1-5 7.1-8.9v-1.9c.1-1.9-1.5-3.4-3.3-3.4zM286.2 232.8h-7.4c-1.9 0-3.4 1.5-3.4 3.4v1.9c0 3.9 3.2 8.9 7.1 8.9 3.9 0 7.1-5 7.1-8.9v-1.9c0-1.9-1.5-3.4-3.4-3.4zM304 232.8h-7.4c-1.9 0-3.4 1.5-3.4 3.4v1.9c0 3.9 3.2 8.9 7.1 8.9 3.9 0 7.1-5 7.1-8.9v-1.9c0-1.9-1.5-3.4-3.4-3.4zM321.7 232.8h-7.4c-1.9 0-3.4 1.5-3.4 3.4v1.9c0 3.9 3.2 8.9 7.1 8.9 3.9 0 7.1-5 7.1-8.9v-1.9c.1-1.9-1.5-3.4-3.4-3.4zM339.5 232.8h-7.4c-1.9 0-3.4 1.5-3.4 3.4v1.9c0 3.9 3.2 8.9 7.1 8.9 3.9 0 7.1-5 7.1-8.9v-1.9c0-1.9-1.5-3.4-3.4-3.4zM357.3 232.8h-7.4c-1.9 0-3.4 1.5-3.4 3.4v1.9c0 3.9 3.2 8.9 7.1 8.9 3.9 0 7.1-5 7.1-8.9v-1.9c0-1.9-1.5-3.4-3.4-3.4zM375 232.8h-7.4c-1.9 0-3.4 1.5-3.4 3.4v1.9c0 3.9 3.2 8.9 7.1 8.9 3.9 0 7.1-5 7.1-8.9v-1.9c.1-1.9-1.5-3.4-3.4-3.4zM392.8 232.8h-7.4c-1.9 0-3.4 1.5-3.4 3.4v1.9c0 3.9 3.2 8.9 7.1 8.9s7.1-5 7.1-8.9v-1.9c0-1.9-1.5-3.4-3.4-3.4zM410.6 232.8h-7.4c-1.9 0-3.4 1.5-3.4 3.4v1.9c0 3.9 3.2 8.9 7.1 8.9 3.9 0 7.1-5 7.1-8.9v-1.9c0-1.9-1.6-3.4-3.4-3.4zM428.3 232.8h-7.4c-1.9 0-3.4 1.5-3.4 3.4v1.9c0 3.9 3.2 8.9 7.1 8.9 3.9 0 7.1-5 7.1-8.9v-1.9c0-1.9-1.5-3.4-3.4-3.4zM446.1 232.8h-7.4c-1.9 0-3.4 1.5-3.4 3.4v1.9c0 3.9 3.2 8.9 7.1 8.9 3.9 0 7.1-5 7.1-8.9v-1.9c0-1.9-1.5-3.4-3.4-3.4zM463.8 232.8h-7.4c-1.9 0-3.4 1.5-3.4 3.4v1.9c0 3.9 3.2 8.9 7.1 8.9 3.9 0 7.1-5 7.1-8.9v-1.9c.1-1.9-1.5-3.4-3.4-3.4zM268.5 270.4H261c-1.9 0-3.4 1.5-3.4 3.4v1.9c0 3.9 3.2 8.9 7.1 8.9 3.9 0 7.1-5 7.1-8.9v-1.9c.1-1.8-1.5-3.4-3.3-3.4z"/><path class="st5" d="M286.2 270.4h-7.4c-1.9 0-3.4 1.5-3.4 3.4v1.9c0 3.9 3.2 8.9 7.1 8.9 3.9 0 7.1-5 7.1-8.9v-1.9c0-1.8-1.5-3.4-3.4-3.4z"/><path class="st4" d="M304 270.4h-7.4c-1.9 0-3.4 1.5-3.4 3.4v1.9c0 3.9 3.2 8.9 7.1 8.9 3.9 0 7.1-5 7.1-8.9v-1.9c0-1.8-1.5-3.4-3.4-3.4z"/><path class="st5" d="M321.7 270.4h-7.4c-1.9 0-3.4 1.5-3.4 3.4v1.9c0 3.9 3.2 8.9 7.1 8.9 3.9 0 7.1-5 7.1-8.9v-1.9c.1-1.8-1.5-3.4-3.4-3.4z"/><path class="st4" d="M339.5 270.4h-7.4c-1.9 0-3.4 1.5-3.4 3.4v1.9c0 3.9 3.2 8.9 7.1 8.9 3.9 0 7.1-5 7.1-8.9v-1.9c0-1.8-1.5-3.4-3.4-3.4zM357.3 270.4h-7.4c-1.9 0-3.4 1.5-3.4 3.4v1.9c0 3.9 3.2 8.9 7.1 8.9 3.9 0 7.1-5 7.1-8.9v-1.9c0-1.8-1.5-3.4-3.4-3.4zM375 270.4h-7.4c-1.9 0-3.4 1.5-3.4 3.4v1.9c0 3.9 3.2 8.9 7.1 8.9 3.9 0 7.1-5 7.1-8.9v-1.9c.1-1.8-1.5-3.4-3.4-3.4zM392.8 270.4h-7.4c-1.9 0-3.4 1.5-3.4 3.4v1.9c0 3.9 3.2 8.9 7.1 8.9s7.1-5 7.1-8.9v-1.9c0-1.8-1.5-3.4-3.4-3.4zM410.6 270.4h-7.4c-1.9 0-3.4 1.5-3.4 3.4v1.9c0 3.9 3.2 8.9 7.1 8.9 3.9 0 7.1-5 7.1-8.9v-1.9c0-1.8-1.6-3.4-3.4-3.4zM428.3 270.4h-7.4c-1.9 0-3.4 1.5-3.4 3.4v1.9c0 3.9 3.2 8.9 7.1 8.9 3.9 0 7.1-5 7.1-8.9v-1.9c0-1.8-1.5-3.4-3.4-3.4z"/><path class="st5" d="M446.1 270.4h-7.4c-1.9 0-3.4 1.5-3.4 3.4v1.9c0 3.9 3.2 8.9 7.1 8.9 3.9 0 7.1-5 7.1-8.9v-1.9c0-1.8-1.5-3.4-3.4-3.4zM463.8 270.4h-7.4c-1.9 0-3.4 1.5-3.4 3.4v1.9c0 3.9 3.2 8.9 7.1 8.9 3.9 0 7.1-5 7.1-8.9v-1.9c.1-1.8-1.5-3.4-3.4-3.4z"/><path class="st4" d="M259.6 252.2h-7.4c-1.9 0-3.4 1.5-3.4 3.4v1.9c0 3.9 3.2 8.9 7.1 8.9s7.1-5 7.1-8.9v-1.9c0-1.9-1.5-3.4-3.4-3.4zM277.3 252.2h-7.4c-1.9 0-3.4 1.5-3.4 3.4v1.9c0 3.9 3.2 8.9 7.1 8.9 3.9 0 7.1-5 7.1-8.9v-1.9c.1-1.9-1.5-3.4-3.4-3.4z"/><path class="st5" d="M295.1 252.2h-7.4c-1.9 0-3.4 1.5-3.4 3.4v1.9c0 3.9 3.2 8.9 7.1 8.9 3.9 0 7.1-5 7.1-8.9v-1.9c0-1.9-1.5-3.4-3.4-3.4z"/><path class="st4" d="M312.9 252.2h-7.4c-1.9 0-3.4 1.5-3.4 3.4v1.9c0 3.9 3.2 8.9 7.1 8.9 3.9 0 7.1-5 7.1-8.9v-1.9c0-1.9-1.6-3.4-3.4-3.4zM330.6 252.2h-7.4c-1.9 0-3.4 1.5-3.4 3.4v1.9c0 3.9 3.2 8.9 7.1 8.9 3.9 0 7.1-5 7.1-8.9v-1.9c0-1.9-1.5-3.4-3.4-3.4zM348.4 252.2H341c-1.9 0-3.4 1.5-3.4 3.4v1.9c0 3.9 3.2 8.9 7.1 8.9 3.9 0 7.1-5 7.1-8.9v-1.9c0-1.9-1.5-3.4-3.4-3.4zM366.1 252.2h-7.4c-1.9 0-3.4 1.5-3.4 3.4v1.9c0 3.9 3.2 8.9 7.1 8.9 3.9 0 7.1-5 7.1-8.9v-1.9c.1-1.9-1.5-3.4-3.4-3.4zM383.9 252.2h-7.4c-1.9 0-3.4 1.5-3.4 3.4v1.9c0 3.9 3.2 8.9 7.1 8.9 3.9 0 7.1-5 7.1-8.9v-1.9c0-1.9-1.5-3.4-3.4-3.4zM401.7 252.2h-7.4c-1.9 0-3.4 1.5-3.4 3.4v1.9c0 3.9 3.2 8.9 7.1 8.9 3.9 0 7.1-5 7.1-8.9v-1.9c0-1.9-1.5-3.4-3.4-3.4zM419.4 252.2H412c-1.9 0-3.4 1.5-3.4 3.4v1.9c0 3.9 3.2 8.9 7.1 8.9 3.9 0 7.1-5 7.1-8.9v-1.9c.1-1.9-1.5-3.4-3.4-3.4zM437.2 252.2h-7.4c-1.9 0-3.4 1.5-3.4 3.4v1.9c0 3.9 3.2 8.9 7.1 8.9 3.9 0 7.1-5 7.1-8.9v-1.9c0-1.9-1.5-3.4-3.4-3.4zM455 252.2h-7.4c-1.9 0-3.4 1.5-3.4 3.4v1.9c0 3.9 3.2 8.9 7.1 8.9 3.9 0 7.1-5 7.1-8.9v-1.9c0-1.9-1.6-3.4-3.4-3.4zM472.7 252.2h-7.4c-1.9 0-3.4 1.5-3.4 3.4v1.9c0 3.9 3.2 8.9 7.1 8.9 3.9 0 7.1-5 7.1-8.9v-1.9c0-1.9-1.5-3.4-3.4-3.4zM430.3 305.5H294.6c-1.8 0-3.2-1.4-3.2-3.2v-9.7c0-1.8 1.4-3.2 3.2-3.2h135.7c1.8 0 3.2 1.4 3.2 3.2v9.7c0 1.8-1.4 3.2-3.2 3.2z"/><path class="st5" d="M448.5 290.3H441c-1.9 0-3.4 1.5-3.4 3.4v1.9c0 3.9 3.2 8.9 7.1 8.9 3.9 0 7.1-5 7.1-8.9v-1.9c.1-1.8-1.5-3.4-3.3-3.4zM283.8 290.3h-7.4c-1.9 0-3.4 1.5-3.4 3.4v1.9c0 3.9 3.2 8.9 7.1 8.9 3.9 0 7.1-5 7.1-8.9v-1.9c.1-1.8-1.5-3.4-3.4-3.4z"/><path class="st6" d="M268.9 238.2c.4 0 .7 0 1.1.1v-2.1c0-.8-.7-1.5-1.5-1.5H261c-.8 0-1.5.7-1.5 1.5v1.9c0 2.7 2 6.2 4.4 6.9-.7-3.1.9-6.8 5-6.8zM287 237.7h.7v-1.5c0-.8-.7-1.5-1.5-1.5h-7.4c-.8 0-1.5.7-1.5 1.5v1.9c0 3 2.4 6.8 5 7-1.2-3.1.4-7.4 4.7-7.4zM305.3 237.4h.1v-1.2c0-.8-.7-1.5-1.5-1.5h-7.4c-.8 0-1.5.7-1.5 1.5v1.9c0 3.1 2.5 7 5.2 7h.4c-1.3-3.2.3-7.7 4.7-7.7zM321.9 236.9c.5 0 .9.1 1.3.1v-.9c0-.8-.7-1.5-1.5-1.5h-7.4c-.8 0-1.5.7-1.5 1.5v1.9c0 2.9 2.2 6.5 4.7 6.9-1.7-3-.2-8 4.4-8zM340.6 236.9h.4v-.7c0-.8-.7-1.5-1.5-1.5h-7.4c-.8 0-1.5.7-1.5 1.5v1.9c0 3.1 2.5 7 5.2 7h.4c-1.7-3.2-.3-8.2 4.4-8.2zM358.5 237.1h.2v-.9c0-.8-.7-1.5-1.5-1.5h-7.4c-.8 0-1.5.7-1.5 1.5v1.9c0 3.1 2.5 7 5.2 7h.5c-1.6-3.2-.1-8 4.5-8zM375.7 236.9c.3 0 .6 0 .8.1v-.8c0-.8-.7-1.5-1.5-1.5h-7.4c-.8 0-1.5.7-1.5 1.5v1.9c0 3 2.5 6.9 5.1 7-1.7-3.1-.2-8.2 4.5-8.2zM394.3 237.2v-1c0-.8-.7-1.5-1.5-1.5h-7.4c-.8 0-1.5.7-1.5 1.5v1.9c0 3.1 2.5 7 5.2 7 .3 0 .5 0 .8-.1-1.5-3.1 0-7.7 4.4-7.8zM410.6 236.8c.5 0 1 .1 1.5.2v-.8c0-.8-.7-1.5-1.5-1.5h-7.4c-.8 0-1.5.7-1.5 1.5v1.9c0 2.8 2.1 6.4 4.6 6.9-1.9-3.1-.4-8.2 4.3-8.2zM428.7 236.8c.4 0 .7 0 1.1.1v-.7c0-.8-.7-1.5-1.5-1.5h-7.4c-.8 0-1.5.7-1.5 1.5v1.9c0 3 2.4 6.8 5 7-1.9-3.1-.4-8.3 4.3-8.3zM446.8 237.3c.3 0 .5 0 .8.1v-1.2c0-.8-.7-1.5-1.5-1.5h-7.4c-.8 0-1.5.7-1.5 1.5v1.9c0 3 2.4 6.8 5 7-1.5-3.2.1-7.8 4.6-7.8zM465.3 237.1v-.9c0-.8-.7-1.5-1.5-1.5h-7.4c-.8 0-1.5.7-1.5 1.5v1.9c0 3.1 2.5 7 5.2 7 .4 0 .8-.1 1.1-.2-1.4-3 0-7.5 4.1-7.8zM269.4 274h.6v-.2c0-.8-.7-1.5-1.5-1.5H261c-.8 0-1.5.7-1.5 1.5v1.9c0 3.1 2.5 7 5.2 7 .2 0 .4 0 .6-.1-2.2-3-.9-8.6 4.1-8.6zM286.8 274c.3 0 .6 0 .9.1v-.3c0-.8-.7-1.5-1.5-1.5h-7.4c-.8 0-1.5.7-1.5 1.5v1.9c0 3.1 2.5 7 5.2 7h.2c-2.3-3-.9-8.7 4.1-8.7zM304.4 274.3c.4 0 .7 0 1 .1v-.5c0-.8-.7-1.5-1.5-1.5h-7.4c-.8 0-1.5.7-1.5 1.5v1.9c0 3 2.5 6.9 5.1 7-1.9-3.2-.5-8.5 4.3-8.5zM322.5 274.4c.3 0 .5 0 .8.1v-.6c0-.8-.7-1.5-1.5-1.5h-7.4c-.8 0-1.5.7-1.5 1.5v1.9c0 3.1 2.5 7 5.2 7h.1c-2-3.2-.5-8.4 4.3-8.4zM339.8 274c.4 0 .8 0 1.1.1v-.3c0-.8-.7-1.5-1.5-1.5H332c-.8 0-1.5.7-1.5 1.5v1.9c0 3.1 2.5 7 5.2 7-2.2-3-.8-8.7 4.1-8.7zM357.9 274.2c.3 0 .6 0 .9.1v-.4c0-.8-.7-1.5-1.5-1.5h-7.4c-.8 0-1.5.7-1.5 1.5v1.9c0 3.1 2.5 7 5.2 7h.2c-2.2-3.2-.8-8.6 4.1-8.6zM376.3 274.5h.2v-.7c0-.8-.7-1.5-1.5-1.5h-7.4c-.8 0-1.5.7-1.5 1.5v1.9c0 3.1 2.5 7 5.2 7 .2 0 .4 0 .6-.1-1.8-3.1-.3-8.1 4.4-8.1zM394.2 274.2s.1 0 0 0l.1-.3c0-.8-.7-1.5-1.5-1.5h-7.4c-.8 0-1.5.7-1.5 1.5v1.9c0 3.1 2.5 7 5.2 7 .3 0 .6-.1.9-.2-2-3.1-.6-8.4 4.2-8.4zM411.5 273.8h.6c0-.8-.7-1.4-1.5-1.4h-7.4c-.8 0-1.5.7-1.5 1.5v1.9c0 3.1 2.5 7 5.2 7 .2 0 .5 0 .7-.1-2.5-3.1-1.2-8.9 3.9-8.9zM429.8 274v-.2c0-.8-.7-1.5-1.5-1.5h-7.4c-.8 0-1.5.7-1.5 1.5v1.9c0 3.1 2.5 7 5.2 7 .3 0 .7-.1 1-.2-2.1-3-.7-8.5 4.2-8.5zM447.2 274h.4v-.2c0-.8-.7-1.5-1.5-1.5h-7.4c-.8 0-1.5.7-1.5 1.5v1.9c0 3.1 2.5 7 5.2 7 .2 0 .5 0 .7-.1-2.2-3-.9-8.6 4.1-8.6zM464.7 274.8h.6v-1c0-.8-.7-1.5-1.5-1.5h-7.4c-.8 0-1.5.7-1.5 1.5v1.9c0 3.1 2.5 7 5.2 7-1.5-3.1 0-7.9 4.6-7.9zM260.9 256.1h.1v-.5c0-.8-.7-1.5-1.5-1.5h-7.4c-.8 0-1.5.7-1.5 1.5v1.9c0 3.1 2.5 7 5.2 7 .3 0 .5 0 .8-.1-1.9-3.1-.4-8.3 4.3-8.3zM278.3 256.1h.5v-.5c0-.8-.7-1.5-1.5-1.5h-7.4c-.8 0-1.5.7-1.5 1.5v1.9c0 3.1 2.5 7 5.2 7h.4c-1.9-3.1-.5-8.4 4.3-8.4zM296.5 256.1l.1-.5c0-.8-.7-1.5-1.5-1.5h-7.4c-.8 0-1.5.7-1.5 1.5v1.9c0 3.1 2.5 7 5.2 7 .3 0 .5 0 .8-.1-1.9-3.1-.5-8.3 4.3-8.3zM313.9 256h.5v-.4c0-.8-.7-1.5-1.5-1.5h-7.4c-.8 0-1.5.7-1.5 1.5v1.9c0 3.1 2.5 7 5.2 7 .2 0 .4 0 .5-.1-2.1-3-.7-8.4 4.2-8.4zM331.1 256.1c.3 0 .7 0 1 .1v-.6c0-.8-.7-1.5-1.5-1.5h-7.4c-.8 0-1.5.7-1.5 1.5v1.9c0 3.1 2.5 7 5.2 7-2-3.1-.6-8.4 4.2-8.4zM349.1 255.5c.3 0 .5 0 .8.1-.1-.8-.7-1.4-1.5-1.4H341c-.8 0-1.5.7-1.5 1.5v1.9c0 3.1 2.5 7 5.2 7 .2 0 .4 0 .6-.1-2.7-3-1.4-9 3.8-9zM367 256.3h.7v-.6c0-.8-.7-1.5-1.5-1.5h-7.4c-.8 0-1.5.7-1.5 1.5v1.9c0 3.1 2.5 7 5.2 7h.2c-1.9-3.2-.5-8.3 4.3-8.3zM385.4 255.6c0-.8-.7-1.5-1.5-1.5h-7.4c-.8 0-1.5.7-1.5 1.5v1.9c0 3.1 2.5 7 5.2 7 .5 0 1-.2 1.5-.4-2-3-.8-8.1 3.7-8.5zM403.2 256v-.4c0-.8-.7-1.5-1.5-1.5h-7.4c-.8 0-1.5.7-1.5 1.5v1.9c0 3.1 2.5 7 5.2 7 .4 0 .8-.1 1.2-.3-1.8-3-.5-7.9 4-8.2zM420.3 255.7h.6v-.1c0-.8-.7-1.5-1.5-1.5H412c-.8 0-1.5.7-1.5 1.5v1.9c0 3.1 2.5 7 5.2 7 .2 0 .4 0 .6-.1-2.3-3-1-8.7 4-8.7zM438.7 256.4v-.7c0-.8-.7-1.5-1.5-1.5h-7.4c-.8 0-1.5.7-1.5 1.5v1.9c0 3.1 2.5 7 5.2 7 .3 0 .6-.1.9-.1-1.6-3.2-.2-8 4.3-8.1zM455.6 255.9c.3 0 .6 0 .8.1v-.3c0-.8-.7-1.5-1.5-1.5h-7.4c-.8 0-1.5.7-1.5 1.5v1.9c0 3.1 2.5 7 5.2 7h.3c-2.2-3.2-.8-8.7 4.1-8.7zM473.5 256.6h.7v-1c0-.8-.7-1.5-1.5-1.5h-7.4c-.8 0-1.5.7-1.5 1.5v1.9c0 3 2.5 7 5.2 7-1.6-3.1-.1-7.9 4.5-7.9zM293.3 302.4v-9.9c0-.7.5-1.2 1.2-1.2h135.8c.7 0 1.2.5 1.2 1.2v9.9c0 .7-.5 1.2-1.2 1.2H294.5c-.6 0-1.2-.5-1.2-1.2zM449.9 294.8v-1c0-.8-.7-1.5-1.5-1.5H441c-.8 0-1.5.7-1.5 1.5v1.9c0 3.1 2.5 7 5.2 7 .2 0 .4 0 .7-.1-1.5-3.2 0-7.8 4.5-7.8zM284.5 294.1c.3 0 .6 0 .9.1v-.4c0-.8-.7-1.5-1.5-1.5h-7.4c-.8 0-1.5.7-1.5 1.5v1.9c0 3.1 2.5 7 5.2 7h.2c-2.2-3.1-.8-8.6 4.1-8.6zM491.4 147.9H233.5v-56c0-3.5 2.8-6.4 6.4-6.4H485c3.5 0 6.4 2.8 6.4 6.4v56z"/><defs><path id="XMLID_86_" d="M465 96.1H260s-1.9-19.3-9-41.9h223c-7 21.7-9 41.9-9 41.9z"/></defs><use xlink:href="#XMLID_86_" style="overflow:visible;fill:#fff"/><clipPath id="XMLID_3_"><use xlink:href="#XMLID_86_" style="overflow:visible"/></clipPath><path d="M467 82.6c-1.5 8.1-2 13.5-2 13.5H260s-.5-5.3-2-13.5h209z" style="opacity:.2;clip-path:url(#XMLID_3_)"/><use xlink:href="#XMLID_86_" style="overflow:visible;fill:none;stroke:#263238;stroke-linecap:round;stroke-linejoin:round;stroke-miterlimit:10"/><path class="st3" d="M261.1 131.3h201.1V214H261.1z"/><g style="opacity:.4"><path class="st9" d="M356.6 206.8c.4 0 .7 0 1.1.1 1.3-20.6 2.6-41.3 3.9-62-1.7 20.6-3.3 41.3-5 61.9zM353.2 206.5c.4 0 .7.1 1.1.1 2.3-20.5 4.6-41.1 6.9-61.8-2.7 20.7-5.3 41.3-8 61.7zM349.8 206.1c.4 0 .7.1 1.1.1 3.3-20.3 6.6-40.7 9.9-61.4-3.7 20.7-7.3 41.1-11 61.3zM346.5 205.6c.4.1.7.1 1.1.2 4.2-20 8.5-40.3 12.9-61-4.8 20.7-9.4 40.9-14 60.8zM343.1 205c.4.1.7.1 1.1.2 5.2-19.6 10.5-39.7 15.8-60.4-5.7 20.6-11.3 40.7-16.9 60.2zM339.8 204.2c.4.1.7.2 1.1.3 6.1-19.2 12.4-39.1 18.7-59.7-6.7 20.6-13.4 40.4-19.8 59.4zM336.5 203.3c.4.1.7.2 1.1.3 7-18.6 14.3-38.3 21.7-58.9-7.8 20.7-15.5 40.2-22.8 58.6zM333.1 202.3c.4.1.7.2 1.1.4 7.9-18 16.2-37.3 24.6-57.9-8.7 20.5-17.4 39.7-25.7 57.5zM329.9 201.1c.4.1.7.3 1.1.4 8.8-17.3 18.1-36.2 27.4-56.8-9.8 20.6-19.5 39.4-28.5 56.4zM326.6 199.8c.4.2.7.3 1.1.5 9.6-16.5 19.9-35 30.3-55.6-10.8 20.5-21.5 38.9-31.4 55.1zM323.4 198.3c.4.2.7.4 1.1.5 10.3-15.7 21.7-33.7 33.1-54.2-11.8 20.6-23.6 38.4-34.2 53.7zM320.2 196.7c.4.2.7.4 1.1.6 11-14.7 23.4-32.2 35.9-52.6-12.9 20.4-25.6 37.7-37 52z"/><path class="st9" d="M317.1 194.9c.4.2.7.4 1.1.7 11.7-13.6 25-30.6 38.6-50.9-14 20.3-27.7 37-39.7 50.2z"/><path class="st9" d="M314.1 192.9c.4.3.7.5 1.1.7 12.3-12.4 26.6-28.8 41.2-49-15 20.3-29.8 36.4-42.3 48.3z"/><path class="st9" d="M356 144.6c-16.1 20.2-31.9 35.5-44.8 46.1.4.3.7.6 1.1.8 12.7-11.1 28.1-26.7 43.7-46.9z"/><path class="st9" d="M355.6 144.6c-17.1 20-33.9 34.6-47.3 43.8.3.3.7.6 1.1.9 13.2-9.8 29.5-24.7 46.2-44.7z"/><path class="st9" d="M355.2 144.5c-18.2 19.9-35.9 33.6-49.6 41.3l1 1c13.6-8.3 30.9-22.4 48.6-42.3z"/><path class="st9" d="M354.8 144.5c-19.2 19.6-37.8 32.5-51.7 38.6.3.4.6.7 1 1.1 13.8-6.8 32-20 50.7-39.7z"/><path class="st9" d="m300.8 180.2.9 1.2c14-5.2 33-17.4 52.7-36.9-20.1 19.3-39.6 31.2-53.6 35.7z"/><path class="st9" d="M298.8 177.1c.3.4.5.8.8 1.3 14-3.5 33.9-14.8 54.4-34-20.9 19-41.2 29.9-55.2 32.7z"/><path class="st9" d="M297 174c.2.4.4.9.7 1.3 14-1.9 34.6-12.2 55.9-31C331.9 163 311 172.8 297 174z"/><path class="st9" d="M295.6 170.9c.2.4.4.9.6 1.3 13.9-.3 35-9.6 57-27.9-22.3 18.1-43.7 26.9-57.6 26.6zM360 206.9h1.1c.3-20.7.6-41.4 1-62.1-.8 20.7-1.4 41.4-2.1 62.1zM363.4 206.9h1.1c-.7-20.7-1.3-41.4-2-62.1.2 20.7.5 41.4.9 62.1zM366.8 206.8c.4 0 .7 0 1.1-.1-1.7-20.6-3.3-41.3-5-62 1.2 20.8 2.5 41.5 3.9 62.1zM370.1 206.6c.4 0 .7-.1 1.1-.1-2.7-20.4-5.3-41-8-61.7 2.3 20.7 4.6 41.3 6.9 61.8zM373.5 206.3c.4 0 .7-.1 1.1-.1-3.6-20.2-7.3-40.7-11-61.4 3.3 20.7 6.6 41.2 9.9 61.5zM376.9 205.8c.4-.1.7-.1 1.1-.2-4.6-19.9-9.3-40.2-13.9-60.9 4.2 20.8 8.5 41.1 12.8 61.1zM380.2 205.3c.4-.1.7-.1 1.1-.2-5.6-19.5-11.2-39.6-16.9-60.3 5.3 20.7 10.6 40.8 15.8 60.5zM383.6 204.6c.4-.1.7-.2 1.1-.3-6.5-19-13.2-38.9-19.9-59.5 6.3 20.7 12.6 40.6 18.8 59.8zM386.9 203.8c.4-.1.7-.2 1.1-.3-7.4-18.5-15.1-38-22.8-58.7 7.4 20.6 14.7 40.3 21.7 59zM390.2 202.8c.4-.1.7-.2 1.1-.4-8.3-17.8-17-37-25.7-57.7 8.4 20.7 16.7 40 24.6 58.1zM393.5 201.7c.4-.1.7-.3 1.1-.4-9.1-17.1-18.8-35.9-28.6-56.5 9.4 20.5 18.7 39.5 27.5 56.9zM396.8 200.4c.4-.2.7-.3 1.1-.5-9.9-16.3-20.6-34.7-31.5-55.3 10.4 20.7 20.8 39.2 30.4 55.8zM400 199c.4-.2.7-.3 1.1-.5-10.6-15.3-22.4-33.3-34.3-53.8 11.5 20.5 22.9 38.6 33.2 54.3zM403.2 197.5c.4-.2.7-.4 1.1-.6-11.3-14.3-24.1-31.7-37.1-52.2 12.5 20.5 24.9 38.1 36 52.8z"/><path class="st9" d="M406.3 195.7c.4-.2.7-.4 1.1-.7-12-13.2-25.8-30-39.8-50.4 13.6 20.5 27 37.5 38.7 51.1z"/><path class="st9" d="M368 144.6c14.7 20.4 29.1 36.8 41.4 49.2.4-.2.7-.5 1.1-.7-12.5-12-27.4-28.1-42.5-48.5z"/><path class="st9" d="M368.4 144.6c15.7 20.3 31.2 36 44 47.2.4-.3.7-.6 1.1-.8-13.1-10.7-28.9-26.1-45.1-46.4z"/><path class="st9" d="M368.8 144.6c16.8 20.2 33.2 35.1 46.5 44.9.4-.3.7-.6 1.1-.9-13.5-9.2-30.3-23.9-47.6-44z"/><path class="st9" d="M369.2 144.5c17.9 20 35.3 34.2 48.8 42.5.4-.3.7-.7 1-1-13.7-7.7-31.5-21.5-49.8-41.5z"/><path class="st9" d="M369.6 144.5c18.9 19.9 37.2 33.1 51 39.8.3-.4.7-.7 1-1.1-13.9-6-32.7-18.9-52-38.7z"/><path class="st9" d="m423.1 181.5.9-1.2c-14-4.4-33.7-16.3-54-35.8 19.9 19.6 39.1 31.9 53.1 37z"/><path class="st9" d="M425.2 178.5c.3-.4.6-.8.8-1.3-14.1-2.7-34.5-13.6-55.7-32.8 20.9 19.3 40.9 30.7 54.9 34.1z"/><path class="st9" d="M427.1 175.4c.2-.4.5-.9.7-1.3-14-1-35.1-10.9-57-29.7 21.6 18.9 42.3 29.2 56.3 31z"/><path class="st9" d="M371.2 144.3c22.2 18.5 43.6 27.7 57.5 27.9.2-.4.4-.9.6-1.4-13.9.6-35.6-8.2-58.1-26.5z"/></g><path class="st6" d="M333.1 146.3c-3.8 9.7.3 38 27.7 38 27.3 0 37.3-19.9 36.2-32.1l36.5-5.9s11.2 30.9-12.6 52.6c-23.8 21.6-106.1 20.2-123.5 3.8-17.4-16.4-7.8-48.9-7.8-48.9l43.5-7.5z"/><path class="st10" d="M493.4 104.4v-6.8c0-.5.3-1 .8-1.1l5-1.6V88c0-1.7 1.4-3.1 3.1-3.1h6c.6 0 1.1.5 1.1 1.1v2.2c0 .6-.5 1.1-1.1 1.1h-7.6V96c0 .4-.2.8-.6 1l-4.3 2.6v4.8h-2.4z"/><path class="st3" d="M493.4 104.4h6.6v19.7h-6.6z"/><defs><path id="XMLID_93_" d="M500 102.7h8.2v23H500z"/></defs><use xlink:href="#XMLID_93_" style="overflow:visible;fill:#757575"/><clipPath id="XMLID_4_"><use xlink:href="#XMLID_93_" style="overflow:visible"/></clipPath><path style="opacity:.2;clip-path:url(#XMLID_4_)" d="M500 116.7h8.2v9H500z"/><use xlink:href="#XMLID_93_" style="overflow:visible;fill:none;stroke:#263238;stroke-linecap:round;stroke-linejoin:round;stroke-miterlimit:10"/><path transform="rotate(-180 228.177 114.204)" class="st3" d="M224.9 104.4h6.6v19.7h-6.6z"/><defs><path id="XMLID_95_" transform="rotate(-180 220.772 114.204)" d="M216.7 102.7h8.2v23h-8.2z"/></defs><use xlink:href="#XMLID_95_" style="overflow:visible;fill:#757575"/><clipPath id="XMLID_5_"><use xlink:href="#XMLID_95_" style="overflow:visible"/></clipPath><path style="opacity:.2;clip-path:url(#XMLID_5_)" d="M216.7 116.7h8.2v8.8h-8.2z"/><use xlink:href="#XMLID_95_" style="overflow:visible;fill:none;stroke:#263238;stroke-linecap:round;stroke-linejoin:round;stroke-miterlimit:10"/><path class="st4" d="M230.5 115.4h0c1.2-3.2.3-6.8-2.4-9l-4.8-4c-1.3-1.1-3.3-.9-4.3.5l-19.2 26.5c-.4.5-.6 1.1-.6 1.7v28.4c0 1.6 1.3 2.9 2.9 2.9h0c1.6 0 2.9-1.3 2.9-2.9v-23.1c0-.6.2-1.1.5-1.6l14.4-20c.5-.7 1.6-.9 2.3-.3l2.6 2.2c.7.6 1.5.9 2.3.9h0c1.5.1 2.8-.8 3.4-2.2z"/><circle class="st10" cx="226.5" cy="111.4" r="1.4"/><path class="st3" d="M237.6 94.9h249.7v38.7H237.6z"/><path d="M483.7 106.8H241.1c-.8 0-1.4-.6-1.4-1.4v-6.2c0-.8.6-1.4 1.4-1.4h242.6c.8 0 1.4.6 1.4 1.4v6.2c0 .8-.6 1.4-1.4 1.4z" style="opacity:.2;fill:#fff"/><defs><path id="XMLID_91_" d="M465 141.3H260s-9-18.8-9-41.9h223c0 19.4-9 41.9-9 41.9z"/></defs><use xlink:href="#XMLID_91_" style="overflow:visible;fill:#fff"/><clipPath id="XMLID_6_"><use xlink:href="#XMLID_91_" style="overflow:visible"/></clipPath><g style="opacity:.7;clip-path:url(#XMLID_6_)"><path class="st1" d="M276.5 138.2s4.5-.2 7-1.7 2.3 1.4 3.8 1.6c1.4.2 4.8-1 6.6-1 1.8 0 .4 1.1 2.5 1 2-.1.9.1 2-.1s8.7-1.5 8.7-1.5 4.4-.8 5.3-.4c.9.4 2.1 2.6 3.4 2 1.3-.6.6-1 2.6-1s3.6.5 3.6.5.2-.5 1.1-.5h1.6s3.4.9 3.9.9 4.6-.9 4.7-.9c.1 0 3.9-1 3.9-1s1.5 1.6 3 1.8c1.5.2 3-.2 4.1.3 1.1.5 4.7-.2 4.7-.2s1.4 0 2.6.2c1.2.2 1.3.3 3.4-.1 2.1-.4 3-.7 6.2-.1s6.2-.9 7.6-.9c1.4 0 6.9.6 8.8.6 1.9 0 6.9.7 10.4.3 3.5-.4 5.8.5 8.1.5 2.4 0 4.9-.1 5.4-.1s3.1-1.7 6.9-1.3c3.7.4.4-.5 2.7 0 2.3.5 4.1 1 5.1 1.1 1 .1 2.3-.1 2.3-.1l4-.3h19.9M272.4 130.5s12.3 0 14.6-.2c2.2-.2 3.4-1.3 4.6-1.3s7.2 1.1 7.2 1.1.4-1.1 2-1.1.8.2 2.3.7.7 0 1.5.6 3.7 1.1 3.7 1.1 5.6.3 5.8-1.1c.2-1.3 3 1.1 3 1.1s7.6-1.1 10.5-1.1c2.9 0 10.2-.6 10.2-.6s6 .8 6.3.8c.3 0 1.3 1.6 2.3.9 1.1-.7 2.1-1.5 3.4-1.3 1.3.2 3.4 1.3 3.4 1.3l2.8-1.5 3.2.2s3.3 2.2 5.6 1.3c2.3-.9 5.2-2.4 5.2-2.4l2.9 2.4h1.9l5.6-1.1s1.3 1.8 3.6 1.1c2.4-.7 24.9 0 30.6 0 5.7 0 7-1.5 7-1.5l4.4 1.5h22"/></g><path class="st15" d="M467 135.5c-1.2 3.6-2.1 5.8-2.1 5.8h-205s-1-2.1-2.4-5.8H467zM471.3 120.4c-.7 3-1.5 5.9-2.2 8.5H255.4c-.7-2.5-1.5-5.4-2.2-8.5h218.1z"/><use xlink:href="#XMLID_91_" style="overflow:visible;fill:none;stroke:#263238;stroke-linecap:round;stroke-linejoin:round;stroke-miterlimit:10"/><defs><path id="XMLID_94_" d="M231.4 92.9h6.1v42.7h-6.1z"/></defs><use xlink:href="#XMLID_94_" style="overflow:visible;fill:#757575"/><clipPath id="XMLID_7_"><use xlink:href="#XMLID_94_" style="overflow:visible"/></clipPath><path style="opacity:.2;clip-path:url(#XMLID_7_)" d="M231.4 122.9h5.9v12.7h-5.9z"/><use xlink:href="#XMLID_94_" style="overflow:visible;fill:none;stroke:#263238;stroke-linecap:round;stroke-linejoin:round;stroke-miterlimit:10"/><defs><path id="XMLID_92_" d="M487.4 92.9h6.1v42.7h-6.1z"/></defs><use xlink:href="#XMLID_92_" style="overflow:visible;fill:#757575"/><clipPath id="XMLID_8_"><use xlink:href="#XMLID_92_" style="overflow:visible"/></clipPath><path style="opacity:.2;clip-path:url(#XMLID_8_)" d="M487.3 122.9h6.2v12.7h-6.2z"/><use xlink:href="#XMLID_92_" style="overflow:visible;fill:none;stroke:#263238;stroke-linecap:round;stroke-linejoin:round;stroke-miterlimit:10"/><path class="st10" d="M487.4 91.1v31.1H237.5V91.1h-2.4v33.2h254.7V91.1z"/><path d="M502.2 143.5v69.8c0 2.5-2 4.4-4.4 4.4H227.1c-2.5 0-4.4-2-4.4-4.4v-69.8c0-2.5 2-4.4 4.4-4.4h124.7v4.4s-21.3 18.5-58 25.3c5.3 23.8 34 42 68.7 42s63.4-18.2 68.7-42c-36.8-6.8-58-25.3-58-25.3v-4.4h124.7c2.3 0 4.3 2 4.3 4.4z" style="fill:#f2bf75;stroke:#263238;stroke-linecap:round;stroke-linejoin:round;stroke-miterlimit:10"/><defs><path id="XMLID_90_" d="M502.2 143.5v69.8c0 2.5-2 4.4-4.4 4.4H227.1c-2.4 0-4.4-2-4.4-4.4v-69.8c0-2.4 2-4.4 4.4-4.4h124.7v4.4s-21.3 18.5-58 25.3c5.3 23.8 34 42 68.7 42s63.4-18.2 68.7-42c-36.8-6.8-58.1-25.3-58.1-25.3v-4.4h124.7c2.4 0 4.4 2 4.4 4.4z"/></defs><use xlink:href="#XMLID_90_" style="overflow:visible;fill:#f4ccb8"/><clipPath id="XMLID_9_"><use xlink:href="#XMLID_90_" style="overflow:visible"/></clipPath><path d="M496.2 144.6V209c0 1.8-1.5 3.3-3.3 3.3H229.8c-1.8 0-3.3-1.5-3.3-3.3v-64.5c0-1.8 1.5-3.3 3.3-3.3h122v2.2s-21.3 18.5-58 25.3c5.3 23.8 34 42 68.7 42s63.4-18.2 68.7-42c-36.8-6.8-58.1-25.3-58.1-25.3v-2.2H493c1.7.1 3.2 1.6 3.2 3.4z" style="clip-path:url(#XMLID_9_);fill:#e9a681;stroke:#2e353a;stroke-linecap:round;stroke-linejoin:round;stroke-miterlimit:10"/><use xlink:href="#XMLID_90_" style="overflow:visible;fill:none;stroke:#263238;stroke-linecap:round;stroke-linejoin:round;stroke-miterlimit:10"/><path class="st20" d="m412.8 238.5 13.3 37.1s5.8-40.8 9.2-40.8c3.4 0 10.8 22.3 10.8 22.3s4.6-11.6 8.9-12.1c4.3-.4 8.2 28.6 8.2 28.6l.7 64.4-5.4 97.3s-34.8-38.3-44.9-48.2c-10.1-9.9-19.8-31.6-22.6-36-2.8-4.4-3.5-27.5-3.5-27.5s5.6-6.4 5.2-15.9c0 0 8.2-13.7 7.7-23.7-.7-10.1-1.9-49.3 12.4-45.5z"/><path class="st9" d="m517.4 418.1-52.6 27.7c0-.3-6.9-11.5-15.3-24.2-3.8-5.7-7.9-11.8-11.7-17.2-6.3-8.9-14.4-16.6-15.1-18.3-2-5-17.4-23.7-20.9-31-3.4-7.3-4.2-29.9-5.8-35.3-1.5-5.3 2.8-10.4 6.3-12.9s7.2-9 7.2-9-3.9-15.1-3.9-22.8c0-7.7-2.6-34.4.5-36.9s5.9-1.4 6.7.3c2.6 5.7 4.9 19.9 6.8 26.5 2 6.6 5.7 25.6 7.5 27 1.8 1.4 5.1-3.8 5.1-3.8s.3-16 1-22.6l-1-21s-1.9-12.6 2.5-13.8c6-1.6 8.2 2.1 8.9 3.7.7 1.6 3.5 10.8 3.5 10.8s.1.2.2.6c0 .1 0 .1.1.2v.1c0 .2.1.4.1.6.1.4.2.9.4 1.5 1.3 5.2 3.9 15.6 3.8 18.2-.2 3.5-1.4 22.7.3 26.7l2.7-26.5s-4.4-20.4-3.1-23.4c1.3-3 7.1.3 7.8 1.5.7 1.2 6.4 8.2 7.4 10.9l1 2.7s1.4-6.3 4.7-4.7c3.3 1.6 3.7 9.7 4 13.2.2 3.5 2.6 26.2 3 26.2.4 0 4.2 11.8 3.7 19.6-1.1 16.6 1.8 29 1.9 35.4.1 6.4-4.7 21.2-4.7 21.2.2.3 3.3 5.6 4.2 10.3.6 3.4 11.8 15.9 21 25.8 6.2 6.4 11.5 12 11.8 12.7z"/><path class="st21" d="M449.5 421.6c-3.8-5.7-7.9-11.8-11.7-17.2-6.3-8.9-14.4-16.6-15.1-18.3-2-5-17.4-23.7-20.9-31-3.4-7.3-4.2-29.9-5.8-35.3-1.5-5.3 2.8-10.4 6.3-12.9s7.2-9 7.2-9-3.9-15.1-3.9-22.8c0-7.7-2.6-34.4.5-36.9s5.9-1.4 6.7.3c2.6 5.7 4.9 19.9 6.8 26.5 2 6.6 5.7 25.6 7.5 27 1.8 1.4 5.1-3.8 5.1-3.8s.3-16 1-22.6l-1-21s-1.9-12.6 2.5-13.8c6-1.6 8.2 2.1 8.9 3.7.7 1.6 3.5 10.8 3.5 10.8s.1.2.2.6c0 .1 0 .1.1.2v.1c0 .2.1.4.1.6.1.4.2.9.4 1.5-1.6-2.4-3.7-4.5-6.5-5.1-8-1.6-6.3 7.3-5.5 12.7.8 5.3-.3 10.7-.3 10.7l2-1.1c-1.4 2.6-3.5 23.9-3.5 28.7 0 4.8-3.8 6.3-7.1 4.9-3.4-1.4-4.6-23.2-7.1-27.1-2.6-3.9-9.7 3.6-10 10.4-.3 6.8 6 27.2 4.5 32-1.5 4.8-1.5 23-1.5 23l-1.8-4.7c.1.6 0 2.8-3.9 9.1-4.9 8.2-2.1 15.6-2.1 15.6 2.3 5.1 14.2 18.8 16.2 20.2 0 0 1.5-5.9 6-4.4 0 0-2.4 3.6-3.3 8-.9 4.4 8.5 7.2 11.5 11.3 1.7 2.4 2.9 10.1 14 29.1zM505.5 405.1c-9.4-9.4-25.8-18.4-24.8-20.8 1.3-3.2-.4-9.9-3.2-15.3-2.9-5.5 1-14.3 1-14.3l1.8 5.1s2.3-7.9.5-18.1c-1.8-10.2-3.2-6.6-3.2-6.6s.4-9.2 2-14.2 3-17.2.8-24.4c-2.2-7.2-7-5.9-8.3-3.4-1.3 2.5.1 12.1 1.1 15.3 1 3.2-3.4 8.5-3.5 4.5-.1-4-1.8-15-1.8-15l3.4-22.2-3.4-17.6s1.4-6.3 4.7-4.7c3.3 1.6 3.7 9.7 4 13.2.2 3.5 2.6 26.2 3 26.2.4 0 4.2 11.8 3.7 19.6-1.1 16.6 1.8 29 1.9 35.4.1 6.4-4.7 21.2-4.7 21.2.2.3 3.3 5.6 4.2 10.3.3 3.4 11.6 15.8 20.8 25.8 0-.1 0-.1 0 0zM466.7 255.4c.2.5.3.9.5 1.2-3.2-7.4-8.6-5.1-9.6-3-1 2.2 2.3 15.1 3 17.1.7 2-2.9 18.1-3.4 23.5-.5 5.3-1.9 6.4-1.9 6.4-3.6.3-4-9.6-4-11 .1 1.5.4 2.6.7 3.3l2.7-26.5s-4.4-20.4-3.1-23.4c1.3-3 7.1.3 7.8 1.5.6 1.2 6.3 8.2 7.3 10.9z"/><path class="st1" d="M517.4 418.1c-.7-1.5-31.9-33-33-38.8-.9-4.8-4.2-10.3-4.2-10.3s4.8-14.8 4.7-21.2c-.1-6.4-3-18.8-1.9-35.4.5-7.8-3.3-19.5-3.7-19.6-.4 0-2.8-22.7-3-26.2-.2-3.5-.6-11.6-3.9-13.2-3.3-1.6-4.7 4.7-4.7 4.7l-1-2.7c-1-2.7-6.7-9.7-7.4-10.9-.7-1.2-6.6-4.4-7.8-1.5-1.3 3 3.1 23.4 3.1 23.4l-2.7 26.6c-1.7-4-.5-23.2-.4-26.7.2-3.5-4.6-21.2-4.6-21.2s-2.8-9.2-3.5-10.8c-.7-1.6-2.9-5.4-8.9-3.7-4.4 1.2-2.5 13.8-2.5 13.8l1 21c-.7 6.7-1 22.6-1 22.6s-3.2 5.1-5.1 3.8c-1.8-1.4-5.5-20.4-7.5-27-2-6.6-4.3-20.8-6.8-26.5-.8-1.7-3.6-2.8-6.7-.3s-.5 29.3-.5 36.9c0 7.7 3.9 22.7 3.9 22.7s-3.7 6.5-7.2 9-7.9 7.6-6.3 12.9c1.5 5.3 2.3 28 5.8 35.3 3.4 7.3 18.8 26 20.9 31 .7 1.7 8.7 9.4 15.1 18.3 12.5 17.5 27 41 27 41.4"/><path class="st1" d="M409.5 297.9s2.5 12.3 2.4 14.3c0 0-2.2 9.5-2.2 15.6 0 0-3.2 5-4.1 7.2-.8 2.2-2.3 7.7-1.7 10.7"/><path class="st1" d="M405 316s6.1.1 5.7 2.6M409.7 327.9s-3.9-1.7-5.3.6M432.2 288.2s-.3 9.4-2.8 8.7M451.9 293s-.7 5.2 1.2 6.7M467.7 258.1s2.7 13 3.3 16.1c.6 3-3.1 18.8-3 22.9.1 4.1 1.8 9.9 1.6 12.7M478.5 356.8s-.9 8.5 1.7 12.1M426.1 373.6s-5.8 5.3-3.7 11.8M464.3 307.6c.1 3.7-2.1 8.1-2.3 13.3M445.8 304.2c1.2 3.1-1.5 9.7-1.9 12.2-.4 2.5.6 5.8.6 5.8M480.6 314.8c-.5 3.2-2.8 5.6-3.2 15.6M423.8 303.3c1.7 1.8.5 10.6 1 12M455.1 252.9s5.7-4.2 10.6.8M435.5 243.3s1-1.7 5.8-1.3c4.8.4 5.7 3.1 5.7 3.1"/><path d="M421.4 271.8s-1.6-2.4-5.9-1.6c-4.3.8-6.2 6.8-6.2 6.8" style="fill:#fff;stroke:#263238;stroke-linecap:round;stroke-linejoin:round;stroke-miterlimit:10"/><path class="st1" d="M479.4 292.8s-3.6-5.2-7.8-3"/><path class="st20" d="M327.7 255c6 4.7.9 33.2.9 33.2l.5 9.3 10.3-4.4L344 313s-.1 7.3 3.7 10c0 0 .9 16.3 0 28.2-.9 11.9-20 25.9-26.6 38.4-6.5 12.5-49.4 49.3-49.4 49.3l-36.3-17.3 26.2-105.9 23.5-30.2 13.9-34.8s2.4 22.7 1 38l27.7-33.7z"/><path class="st9" d="M337.8 318.4c-.9 4.4 1.3 28.4.9 31.6-.4 3.2-19.5 24.9-20.4 26.6-1 1.7-13.7 9-16.7 12.5-13.9 16.2-21.5 31.1-27.5 46-1.2 2.9-2.3 5.8-3.4 8.7l-55.1-32c4.6-5.7 9-10.8 13-15.5 8.1-9.4 14.4-16.9 17.5-24.1.5-1.2 2-3.4 3.3-5.2 1.2-1.8 2.3-3.2 2.3-3.2s-4-11.3-3.1-14.8c.9-3.5-1.2-32.6-1.2-32.6s-2.7-19.8-5.4-24.8c-.7-1.3-.9-2.7-.9-4.2.1-4.6 2.8-10.3 4.1-17.1 1.7-9 .9-13.4 6.4-10.3 5.5 3.1 2.9 22 2.9 22l8.3 18.3c2.2-4.4 0-17.3-.1-20.4 0-.5 0-1.3-.1-2.4-.2-5.3-.5-16.2-.1-20.5 0-.2 0-.5.1-.7.7-4.5 3.1-18.7 4.6-20.2 2.3-2.3 5.9-4.3 9.2 1 1.9 3 1.1 26.8 1.1 26.8s7.8-9.5 10.2-11.8c2.4-2.3 9.6-6.5 11.5-1.6 1.9 4.9-5.2 20-5.2 20 1.5 3.5 1.7 13.2 1.7 13.2s3.4 12.1 5.4 12h.1c.6-.1 1.3-2.3 1.9-5.4 1.7-7.6 3.6-20.5 5-21.7.2-.2.5-.5 1-.8 0-.1.1-.1.2-.1.1-.1.2-.2.4-.3 3.5-3.1 11-10.1 11-10.1s.5-3.3 7.1-2.3c6.5 1-2.9 20.3-2.9 20.3-1.3 6.1-3.3 21.9-3.3 21.9-.6 6.6-.3 24.2-.3 24.2s3.1-10.3 2.9-14c-.2-3.7 6.1-12.9 8-15.3 1.9-2.4 10.2-1.5 7.9 3-2.4 4.5-1.4 19-2.3 23.3z"/><path class="st23" d="M246 372.5c.5-1.2 2-3.4 3.3-5.2 0 0-3.3 9-3.6 13.8-.2 3.2-8.5 8.6-17.2 15.5 8.1-9.5 14.4-17 17.5-24.1z"/><path class="st21" d="M249.3 367.3c1.2-1.8 2.3-3.2 2.3-3.2s-4-11.3-3.1-14.8c.9-3.5-1.2-32.6-1.2-32.6s-2.7-19.8-5.4-24.8l6.2 10.9s-.6 8.6 1.2 13.3c1.8 4.7 4 19.1 4 19.1s-2.6 12.1-1.7 16.4c.9 4.4 4.9 2.8 4.9 2.8s2.1 7.8-7.2 12.9zM263.8 285.4c4.3 25.1-3.1 18.2-5.8 12.8-2.7-5.4-8.9-15.7-13.7-13.5-1.5.7-2.5 1.7-3.2 2.9.1-4.6 2.8-10.3 4.1-17.1 1.7-9 .9-13.4 6.4-10.3 5.5 3.1 2.9 22 2.9 22l8.3 18.3c2.2-4.4 0-17.3-.1-20.4 0-.5 0-1.3-.1-2.4.3 2.3.7 4.9 1.2 7.7zM274.3 260.6s-4.6-6.1-8.6-5.8c-1.3.1-2.4.7-3.1 2.3 0-.2 0-.5.1-.7.7-4.5 3.1-18.7 4.6-20.2 2.3-2.3 5.9-4.3 9.2 1 1.9 3 1.1 26.8 1.1 26.8s7.8-9.5 10.2-11.8c2.4-2.3 9.6-6.5 11.5-1.6 1.9 4.9-5.2 20-5.2 20 1.5 3.5 1.7 13.2 1.7 13.2s3.4 12.1 5.4 12c-4.6 8.6-7.6-10.4-7.6-10.4.7-3.9-1.7-12.4-1.5-14.7.3-2.2-4.2-10.2-11.7-8-7.5 2.2-2.1 31.7-2.1 31.7-2.5 4.1-2.5 7.7-2.5 7.8-2.3-2.9 0-11 0-11-2-7.7-1.5-30.6-1.5-30.6z"/><path class="st23" d="M309.2 267.9c-3.2 3.4-2.8 11.8-6 22.5 1.7-7.6 3.6-20.5 5-21.7.2-.1.6-.4 1-.8z"/><path class="st21" d="M337.8 318.4c-.9 4.4 1.3 28.4.9 31.6-.4 3.2-19.5 24.9-20.4 26.6-1 1.7-13.7 9-16.7 12.5-13.9 16.2-21.5 31.1-27.5 46 1.8-5.9 4.6-14.4 8.3-22.8 6.6-14.8 9.3-17.4 13.2-21.6 3.9-4.2 3.5-13.2 3.5-13.2s3.9-1 8.9-1 19.8-21.1 24.9-24.8c5.1-3.7 6-3.7 0-11.9s-4.3 1.3-6.1 1c-1.8-.3-2.8 3.6-2.8 3.6-.6-8.3-6-18-7.1-20.4-1.2-2.4 2.7-16.6 1.9-20.6-.8-4 3.4-28 3.4-28s-.5-9.2-8.9-9.3c-1.5 0-2.7.4-3.6 1.1 3.5-3.1 11-10.1 11-10.1s.5-3.3 7.1-2.3c6.5 1-2.9 20.3-2.9 20.3-1.3 6.1-3.3 21.9-3.3 21.9-.6 6.6-.3 24.2-.3 24.2s3.1-10.3 2.9-14c-.2-3.7 6.1-12.9 8-15.3 1.9-2.4 10.2-1.5 7.9 3-2.4 4.7-1.4 19.2-2.3 23.5z"/><path class="st1" d="M270.6 444c6.8-17.9 14.4-35.4 30.9-54.8 3-3.5 15.7-10.8 16.7-12.5 1-1.7 20.1-23.4 20.4-26.7.4-3.2-1.8-27.2-.9-31.6.9-4.4-.1-18.8 2.2-23.3 2.3-4.5-6-5.3-7.9-3-1.8 2.4-8.2 11.6-8 15.3.2 3.7-2.9 14-2.9 14s-.4-17.6.3-24.2c0 0 2-15.8 3.3-21.9 0 0 9.4-19.3 2.9-20.3s-7.1 2.3-7.1 2.3-10.4 9.8-12.5 11.4c-2 1.6-4.9 26.6-6.9 27.1-2.1.5-5.5-12-5.5-12s-.2-9.7-1.7-13.2c0 0 7.1-15.1 5.2-20-1.9-4.9-9.1-.7-11.5 1.6-2.4 2.3-10.2 11.8-10.2 11.8s.8-23.8-1.1-26.8c-3.4-5.3-7-3.4-9.2-1-1.5 1.6-3.9 15.8-4.6 20.2-.7 4.5 0 20.5.1 23.6.1 3.1 2.3 15.9.1 20.4l-8.3-18.3s2.6-18.9-2.9-22c-5.5-3.1-4.6 1.4-6.4 10.3-1.7 9-5.9 16.3-3.2 21.3s5.4 24.8 5.4 24.8 2.1 29.1 1.1 32.6c-.9 3.5 3.1 14.8 3.1 14.8s-4.6 6.1-5.6 8.4c-4.7 10.6-16.4 22.2-30.5 39.5"/><path class="st1" d="M277.5 264.1s-1.7 2-1.7 5.8 2.5 24.6 2.5 24.6-1.8 2.1-1.9 4M321.3 321.4s.3 5.5 2.7 10.1c2.3 4.6 1.6 7.2.8 9.9s-.8 7.3-.8 7.3M263.7 296.4s1.7 5.5-1.5 8.1M301.3 295.8s.3 2.2-2.7 2.4M321.9 270.8s-7.7-8.4-13.7-2.1"/><path class="st1" d="M290.7 266.1s-3.5-4.5-6.6-4.2c-3.1.3-7.2 2.1-7.7 4.6M325.4 338.7s2 2.7 2.7 5.9M305.4 304.6c-2.4 4.5-1.2 12-2.1 14.1M280 297.2c.6 2.6-1.2 6.7-1.5 9.8-.3 3.1 2.2 7.8 1.8 12.1M263.8 307.7s-2.1 4.8-2 8c.1 3.2 1.2 10.1 1.2 10.1M248.4 307.4s-.8 5 1 8.5 3.5 11 3.5 11M251.7 364s2.8-.5 3.5-4.1M301.9 379.3s1.9 7.1-1.8 11.6M241.3 286.7s5.4-5.3 9.5-.8M262.6 256.5s4-4.2 8.7.3"/></g></svg>