<svg version="1.1" id="Layer_1" xmlns="http://www.w3.org/2000/svg" x="0" y="0" viewBox="-549 170.9 500 500" style="enable-background:new -549 170.9 500 500" xml:space="preserve"><style>.st0{fill:#6799d0}.st1{fill:#0d4580}.st2{fill:#085a9c}.st3{fill:#fff}</style><path id="XMLID_29_" class="st0" d="M-549 170.9h500v500h-500z"/><path id="XMLID_3_" class="st0" d="M-136.6 345.7c0-6.1-1.3-11.6-4-16.2-2.6-4.6-6.5-8.4-11.7-11.4-43.2-24.9-86.5-49.8-129.7-74.7-11.7-6.7-22.9-6.5-34.5.3-17.2 10.1-103.4 59.5-129 74.4-10.6 6.1-15.7 15.5-15.7 27.7v150.4c0 6 1.3 11.3 3.8 15.9 2.6 4.7 6.6 8.7 11.9 11.8 25.7 14.9 111.8 64.2 129 74.4 11.6 6.8 22.9 7.1 34.5.3 43.2-25 86.5-49.8 129.7-74.7 5.4-3.1 9.3-7 11.9-11.8 2.5-4.6 3.8-9.9 3.8-15.9V345.7"/><path id="XMLID_4_" class="st1" d="M-298.5 420.4-457.6 512c2.6 4.7 6.6 8.7 11.9 11.8 25.7 14.9 111.8 64.2 129 74.4 11.6 6.8 22.9 7.1 34.5.3 43.2-25 86.5-49.8 129.7-74.7 5.4-3.1 9.3-7 11.9-11.8l-157.9-91.6"/><path id="XMLID_5_" class="st1" d="M-345.6 447.5c9.3 16.2 26.7 27.1 46.6 27.1 20.1 0 37.6-11 46.8-27.4l-46.3-26.8-47.1 27.1"/><path id="XMLID_6_" class="st2" d="M-136.6 345.7c0-6.1-1.3-11.6-4-16.2l-157.9 90.9 158.1 91.6c2.5-4.6 3.8-9.9 3.8-15.9V345.7"/><path id="XMLID_9_" class="st3" d="M-252.2 447.2c-9.2 16.3-26.7 27.4-46.8 27.4-20 0-37.4-10.9-46.6-27.1-4.5-7.9-7.1-16.9-7.1-26.6 0-29.7 24-53.7 53.7-53.7 19.8 0 37.1 10.8 46.4 26.8l46.9-27c-18.7-32.2-53.5-53.9-93.4-53.9-59.6 0-107.8 48.3-107.8 107.8 0 19.5 5.2 37.9 14.3 53.7 18.6 32.3 53.6 54.1 93.6 54.1 40.1 0 75.1-21.9 93.7-54.4l-46.9-27.1"/><path id="XMLID_20_" class="st2" d="m-158 339.5 109-60.9v276.3l-109-53.2z"/><path id="XMLID_24_" class="st1" d="m-449 506.9-101 57.5v107.5h500v-117l-99.5-48-150.2 82.2z"/><path id="XMLID_21_" style="fill:#813084" d="m-139.7 510.6-.4.8 91.1 44v-.5z"/><path id="XMLID_25_" style="fill:#6a1577" d="m-50 554.9 1 .5v115.5h-1z"/><path class="st3" d="M-161.6 396.6h-12.6v12.6h-12.7v12.7h12.7v12.6h12.6v-12.6h12.7v-12.7h-12.7zM-207.7 396.6h-12.7v12.6H-233v12.7h12.6v12.6h12.7v-12.6h12.6v-12.7h-12.6z"/></svg>