<svg xmlns="http://www.w3.org/2000/svg" viewBox="0 0 2438 2438" style="enable-background:new 0 0 2438 2438" xml:space="preserve"><path d="M969.2 1968.4c137.9 0 249.8-111.9 249.8-249.8v-249.8H969.2c-137.9 0-249.8 111.9-249.8 249.8s112 249.8 249.8 249.8z" style="fill:#0acf83"/><path d="M719.4 1219c0-137.9 111.9-249.8 249.8-249.8H1219v499.6H969.2c-137.8 0-249.8-111.9-249.8-249.8z" style="fill:#a259ff"/><path d="M719.4 719.4c0-137.9 111.9-249.8 249.8-249.8H1219v499.6H969.2c-137.8 0-249.8-111.9-249.8-249.8z" style="fill:#f24e1e"/><path d="M1219 469.6h249.8c137.9 0 249.8 111.9 249.8 249.8s-111.9 249.8-249.8 249.8H1219V469.6z" style="fill:#ff7262"/><path d="M1718.6 1219c0 137.9-111.9 249.8-249.8 249.8S1219 1356.9 1219 1219s111.9-249.8 249.8-249.8 249.8 111.9 249.8 249.8z" style="fill:#1abcfe"/></svg>