<svg version="1.1" id="Calque_1" xmlns="http://www.w3.org/2000/svg" x="0" y="0" viewBox="0 0 250 250" style="enable-background:new 0 0 250 250" xml:space="preserve"><style>.st1,.st2{fill:#e11f22;stroke:#e11f22;stroke-width:9.375000e-02;stroke-miterlimit:10}.st2{fill:#0b6fb6;stroke:#0b6fb6}</style><path style="fill:none" d="M0 0h250v250H0z"/><path class="st1" d="M142.5 38.2c4 4.5 5.3 11 4.1 16.8-1.2 6.6-4.9 12.3-9.1 17.3-3.4 4-7.4 7.6-11.5 10.9-4.8 3.8-9.5 8-12.5 13.4-2.5 4.4-3.1 9.8-1.4 14.6 2.8 8.2 9.4 14.3 13 22-4-3.5-7.9-7.1-11.5-11-3.8-4.1-7.4-8.4-9.8-13.4-1.6-3.6-2.3-7.7-1.1-11.5 1.2-3.8 4-6.9 6.7-9.8 7.7-7.7 17.1-13.3 24.6-21.1 4.1-4.3 7.6-9.4 8.8-15.3 1-4.2.6-8.6-.3-12.9z"/><path class="st1" d="M136.2 86.4c8.2-6 17.8-9.9 27.5-12.7-7.7 4.9-15.7 9.4-22.4 15.7-2.4 2.3-4.7 5-5.8 8.2-.8 2.4-.5 5.1.5 7.4 1.8 4.1 4.8 7.4 7.1 11.1 1.9 3.2 2.3 7.2.8 10.7-2.2 5-6.6 8.7-11.2 11.6-.6.3-1.1 1-1.8 1.1 3-2.7 5.4-6.6 5.3-10.8-.1-3.1-1.8-5.9-3.8-8.1-4.2-5-7.7-11.3-7-18.1.8-6.8 5.6-12.2 10.8-16.1z"/><path class="st2" d="M165.3 135.2c1.8-2.2 4.6-2.7 7.2-3 4.5-.6 9.3.5 12.6 3.6 2.8 2.5 4.4 6.4 3.8 10.1-.6 4.4-3.6 8-6.9 10.7-6 4.8-13.3 7.6-20.7 9.4.4-.5.9-.9 1.4-1.2 5.6-3 11.1-6.5 15.2-11.4 2.5-3 4.4-7 3.6-11-.8-4.7-5.4-8-10-8.3-2-.1-4.1.7-6.2 1.1zM80.3 139.1c7.8-3.3 16.2-5.5 24.7-5.4-4.9 1.4-10 2.7-14.7 4.9-1.1.6-2.4 1.1-3 2.3-.3.9.6 1.5 1.3 1.8 2.9 1.2 6 1.4 9.1 1.6 10.8.7 21.7.3 32.5-.4 10.7-.7 21.2-2.1 31.8-3.8-2.3 1.1-4.7 2.2-6.9 3.6-1.1.8-2.5 1-3.7 1.3-12.9 2.9-26.2 3.8-39.4 4-5.1 0-10.2 0-15.3-.4-5.7-.4-11.4-.8-16.9-2.3-1.6-.5-3.3-1-4.6-2.1-.6-.5-.6-1.5-.1-2.1 1.5-1.5 3.5-2.2 5.2-3zM90.3 157.2c2.2-1.7 4.8-2.7 7.4-3.6-.8 1-2 2-2.1 3.4 0 .9.7 1.6 1.4 2 1.4.7 3 1 4.5 1.2 8.1.8 16.3 1.3 24.5.8 7.5-.4 14.9-1.6 22.3-2.9 2 1.9 4.4 3.2 7 4.4-8.9 2.6-18.1 4.1-27.3 4.9-8.7.6-17.5.6-26.2-.8-3.4-.6-6.9-1.4-10.1-3-1.3-.7-2.7-1.6-3.1-3-.2-1.6.8-2.7 1.7-3.4zM95.2 175.6c1.9-1.6 4.4-2.4 6.7-3-.8.7-2.1 1.6-1.5 2.8 1.1 1.5 3.3 1.6 4.9 2 7.1.9 14.4 1.5 21.5.9 5.4-.3 10.7-1.3 16-2.2 3 1.8 6.2 3.3 9.5 4.7-5 2.2-10.4 3.7-15.7 4.7-9 1.6-18.4 1.8-27.5.4-4-.7-8.1-1.6-11.8-3.6-1.4-.8-2.9-1.7-3.5-3.3-.3-1.3.4-2.6 1.4-3.4z"/><path class="st2" d="M71.7 187.6c3.9-1.3 7.9-2.4 12-2.5 1.6 0 3.3 0 4.8.9-4.9.3-9.8 1.5-14.2 3.8-1 .6-2.1 1.2-2.5 2.3 0 1.3 1.5 1.7 2.5 2.2 6.1 2.3 12.7 3 19.1 3.7 19.2 1.6 38.4 1.2 57.6-.6 7.2-.8 14.5-1.6 21.5-3.6 2.2-.8 4.8-1.5 6.3-3.5.9-1.2.3-2.7-.6-3.7 1.4.8 3.5 1.8 3.2 3.8-.6 2-2.6 3.1-4.3 4.1-5.4 2.7-11.4 4.1-17.3 5.4-17.2 3.4-34.8 4.1-52.4 3.6-13.2-.5-26.4-1.7-39.4-4-2.3-.6-4.9-1-6.6-2.8-1.1-1.3-.1-3 .9-4 2.7-2.6 6.1-3.9 9.4-5.1z"/><path class="st2" d="M177.1 202c4.3-1.5 8.8-3 12-6.4-.5 3.7-3.7 6.2-6.9 7.9-6 3.1-12.7 4.6-19.4 5.8-14.1 2.2-28.5 2.8-42.8 2.5-9.8-.3-19.6-.7-29.2-2.7-2.3-.6-4.7-1.1-6.7-2.4 8.5 1.4 17.2 2 25.9 2.4 14.3.4 28.5-.1 42.7-1.9 8.2-1.2 16.5-2.6 24.4-5.2z"/></svg>