<svg xmlns="http://www.w3.org/2000/svg" viewBox="-180 272 250 250" style="enable-background:new -180 272 250 250" xml:space="preserve"><path style="fill:#f35045" d="M-180 272H70v250h-250z"/><path d="M-34.7 454c-.9 0-1.7-.5-2.2-1.3l-19.5-32.6-36.5 9.9c-1.2.3-2.4-.2-3-1.3l-42.6-80.2c-.4-.7-.4-1.6 0-2.4.4-.8 1.1-1.3 2-1.4l36.2-4.9c1-.1 2 .3 2.6 1.2l43.8 73 50.8-13.8-17-23.9c-.5-.7-.6-1.6-.3-2.4.3-.8 1-1.4 1.8-1.6l23.8-5.6c1-.2 2 .1 2.6.9l20.6 25.7c.5.7.7 1.6.4 2.4-.3.8-.9 1.5-1.8 1.7l-21.7 5.9 18.9 26.6c.5.7.6 1.5.4 2.3-.2.8-.8 1.4-1.6 1.7l-56.8 19.9c-.4.2-.6.2-.9.2zm-16.6-35.2 17.7 29.5 51.6-18-18-25.4-51.3 13.9zm-80.9-69.3 39.9 75.1 33.1-9-42.1-70.3-30.9 4.2zm118.4 27.1 15.9 22.3 19.7-5.4-17.1-21.3-18.5 4.4z" style="fill:#fff"/></svg>