<svg version="1.1" id="Calque_1" xmlns="http://www.w3.org/2000/svg" x="0" y="0" viewBox="0 0 250 250" style="enable-background:new 0 0 250 250" xml:space="preserve"><style>.st0{fill:#8e37e2}</style><path class="st0" d="m177.5 194-18.1-27.5c-10-15.1-30.3-45.9-45.2-68.4-14.8-22.6-27.3-41.3-27.6-41.6-1.2-1.3-1.9-1.5-6.5-1.5-3.9 0-4.2 0-5.1.5-.5.3-1.3.9-1.7 1.4l-.7.9-.1 44.9v44.9l.5 1c.3.6.8 1.2 1.5 1.6l1 .6h3.9c3.4 0 4-.1 4.7-.4.9-.5 1.4-.9 2-2 .4-.8.4-2.1.5-34.3 0-18.4.1-33.5.2-33.5s10.5 15.3 23.1 33.9l22.9 34 18.3 24.7c10.1 13.6 18.5 24.9 18.6 25l7.8-4.2zM154.8 52.3c-.7-.4-1.3-.4-4.6-.4-3.5 0-3.9 0-4.8.5-1.1.6-1.9 1.6-2.2 2.8-.1.5-.2 11.1-.2 30.1v29.3l7.1 10.9 7.1 10.9.1-40.2c0-28 0-40.5-.2-41.1-.3-1.2-1.2-2.3-2.3-2.8z"/></svg>