<svg version="1.1" id="Calque_1" xmlns="http://www.w3.org/2000/svg" x="0" y="0" viewBox="0 0 250 250" style="enable-background:new 0 0 250 250" xml:space="preserve"><style>.st0{fill:#56b3b4}.st1{fill:#ea5e5e}.st2{fill:#bf85bf}.st3{fill:#f7ba3e}.st4{opacity:.5;fill:#d0d4d8;enable-background:new}</style><g id="Page-1"><g id="prettier-icon-dark"><g id="Icon-_x28_Dark_x29_"><g id="Group"><path id="Rectangle" class="st0" d="M160.1 79.4h7c2 0 3.5 1.5 3.5 3.5s-1.5 3.5-3.5 3.5h-7c-2 0-3.5-1.5-3.5-3.5s1.5-3.5 3.5-3.5z"/><path id="Rectangle_1_" class="st1" d="M54.8 191.7h35.1c2 0 3.5 1.5 3.5 3.5s-1.5 3.5-3.5 3.5H54.8c-2 0-3.5-1.5-3.5-3.5s1.5-3.5 3.5-3.5z"/><path id="Rectangle_2_" class="st2" d="M139 135.5h21.1c2 0 3.5 1.5 3.5 3.5s-1.5 3.5-3.5 3.5H139c-2 0-3.5-1.5-3.5-3.5 0-1.9 1.6-3.5 3.5-3.5z"/><path id="Rectangle_3_" class="st1" d="M96.9 135.5H125c2 0 3.5 1.5 3.5 3.5s-1.5 3.5-3.5 3.5H96.9c-2 0-3.5-1.5-3.5-3.5 0-1.9 1.6-3.5 3.5-3.5z"/><path id="Rectangle_4_" class="st0" d="M54.8 135.5h28.1c2 0 3.5 1.5 3.5 3.5s-1.5 3.5-3.5 3.5H54.8c-2 0-3.5-1.5-3.5-3.5 0-1.9 1.5-3.5 3.5-3.5z"/><path id="Rectangle_5_" class="st2" d="M54.8 163.6h35.1c2 0 3.5 1.5 3.5 3.5s-1.5 3.5-3.5 3.5H54.8c-2 0-3.5-1.5-3.5-3.5 0-1.9 1.5-3.5 3.5-3.5z"/><path id="Rectangle_6_" class="st2" d="M54.8 107.5h35.1c2 0 3.5 1.5 3.5 3.5s-1.5 3.5-3.5 3.5H54.8c-2 0-3.5-1.5-3.5-3.5s1.5-3.5 3.5-3.5z"/><path id="Rectangle_7_" class="st3" d="M89.9 65.3h70.2c2 0 3.5 1.5 3.5 3.5s-1.5 3.5-3.5 3.5H89.9c-2 0-3.5-1.5-3.5-3.5 0-1.9 1.5-3.5 3.5-3.5z"/><path id="Rectangle_8_" class="st1" d="M54.8 65.3h21.1c2 0 3.5 1.5 3.5 3.5s-1.5 3.5-3.5 3.5H54.8c-2 0-3.5-1.5-3.5-3.5 0-1.9 1.5-3.5 3.5-3.5z"/><path id="Rectangle_9_" class="st3" d="M82.9 177.6h7c2 0 3.5 1.5 3.5 3.5s-1.5 3.5-3.5 3.5h-7c-2 0-3.5-1.5-3.5-3.5s1.5-3.5 3.5-3.5z"/><path id="Rectangle_10_" class="st0" d="M82.9 93.4h7c2 0 3.5 1.5 3.5 3.5s-1.5 3.5-3.5 3.5h-7c-2 0-3.5-1.5-3.5-3.5s1.5-3.5 3.5-3.5z"/><path id="Rectangle_11_" class="st0" d="M54.8 177.6h14c2 0 3.5 1.5 3.5 3.5s-1.5 3.5-3.5 3.5h-14c-2 0-3.5-1.5-3.5-3.5s1.5-3.5 3.5-3.5z"/><path id="Rectangle_12_" class="st3" d="M54.8 93.4h14c2 0 3.5 1.5 3.5 3.5s-1.5 3.5-3.5 3.5h-14c-2 0-3.5-1.5-3.5-3.5s1.5-3.5 3.5-3.5z"/><path id="Rectangle_13_" class="st4" d="M146.1 177.6h7c2 0 3.5 1.5 3.5 3.5s-1.5 3.5-3.5 3.5h-7c-2 0-3.5-1.5-3.5-3.5s1.5-3.5 3.5-3.5z"/><path id="Rectangle_14_" class="st4" d="M103.9 177.6H132c2 0 3.5 1.5 3.5 3.5s-1.5 3.5-3.5 3.5h-28.1c-2 0-3.5-1.5-3.5-3.5s1.6-3.5 3.5-3.5z"/><path id="Rectangle_15_" class="st4" d="M167.1 177.6h28.1c2 0 3.5 1.5 3.5 3.5s-1.5 3.5-3.5 3.5h-28.1c-2 0-3.5-1.5-3.5-3.5s1.6-3.5 3.5-3.5z"/><path id="Rectangle_16_" class="st0" d="M111 121.5h56.2c2 0 3.5 1.5 3.5 3.5s-1.5 3.5-3.5 3.5H111c-2 0-3.5-1.5-3.5-3.5s1.5-3.5 3.5-3.5z"/><path id="Rectangle_17_" class="st3" d="M75.9 121.5H97c2 0 3.5 1.5 3.5 3.5s-1.5 3.5-3.5 3.5H75.9c-2 0-3.5-1.5-3.5-3.5s1.5-3.5 3.5-3.5z"/><path id="Rectangle_18_" class="st1" d="M54.8 121.5h7c2 0 3.5 1.5 3.5 3.5s-1.5 3.5-3.5 3.5h-7c-2 0-3.5-1.5-3.5-3.5s1.5-3.5 3.5-3.5z"/><path id="Rectangle_19_" class="st2" d="M118 79.4h28.1c2 0 3.5 1.5 3.5 3.5s-1.5 3.5-3.5 3.5H118c-2 0-3.5-1.5-3.5-3.5s1.5-3.5 3.5-3.5z"/><path id="Rectangle_20_" class="st0" d="M54.8 79.4h49.1c2 0 3.5 1.5 3.5 3.5s-1.5 3.5-3.5 3.5H54.8c-2 0-3.5-1.5-3.5-3.5s1.5-3.5 3.5-3.5z"/><path id="Rectangle_21_" class="st3" d="M75.9 149.6H139c2 0 3.5 1.5 3.5 3.5s-1.5 3.5-3.5 3.5H75.9c-2 0-3.5-1.5-3.5-3.5s1.5-3.5 3.5-3.5z"/><path id="Rectangle_22_" class="st2" d="M54.8 149.6h7c2 0 3.5 1.5 3.5 3.5s-1.5 3.5-3.5 3.5h-7c-2 0-3.5-1.5-3.5-3.5s1.5-3.5 3.5-3.5z"/><path id="Rectangle_23_" class="st1" d="M139 93.4h35.1c2 0 3.5 1.5 3.5 3.5s-1.5 3.5-3.5 3.5H139c-2 0-3.5-1.5-3.5-3.5s1.6-3.5 3.5-3.5z"/><path id="Rectangle_24_" class="st3" d="M139 107.5h35.1c2 0 3.5 1.5 3.5 3.5s-1.5 3.5-3.5 3.5H139c-2 0-3.5-1.5-3.5-3.5s1.6-3.5 3.5-3.5z"/><path id="Rectangle_25_" class="st0" d="M54.8 51.3H139c2 0 3.5 1.5 3.5 3.5s-1.5 3.5-3.5 3.5H54.8c-2 0-3.5-1.5-3.5-3.5s1.5-3.5 3.5-3.5z"/><path id="Rectangle_26_" class="st4" d="M153.1 51.3h42.1c2 0 3.5 1.5 3.5 3.5s-1.5 3.5-3.5 3.5h-42.1c-2 0-3.5-1.5-3.5-3.5s1.5-3.5 3.5-3.5z"/><path id="Rectangle_27_" class="st4" d="M153.1 149.6h14c2 0 3.5 1.5 3.5 3.5s-1.5 3.5-3.5 3.5h-14c-2 0-3.5-1.5-3.5-3.5s1.5-3.5 3.5-3.5z"/><path id="Rectangle_28_" class="st4" d="M181.2 149.6h14c2 0 3.5 1.5 3.5 3.5s-1.5 3.5-3.5 3.5h-14c-2 0-3.5-1.5-3.5-3.5-.1-2 1.5-3.5 3.5-3.5z"/><path id="Rectangle_29_" class="st4" d="M174.1 135.5h21.1c2 0 3.5 1.5 3.5 3.5s-1.5 3.5-3.5 3.5h-21.1c-2 0-3.5-1.5-3.5-3.5 0-1.9 1.6-3.5 3.5-3.5z"/><path id="Rectangle_30_" class="st4" d="M174.1 65.3h21.1c2 0 3.5 1.5 3.5 3.5s-1.5 3.5-3.5 3.5h-21.1c-2 0-3.5-1.5-3.5-3.5 0-1.9 1.6-3.5 3.5-3.5z"/><path id="Rectangle_31_" class="st4" d="M181.2 121.5h14c2 0 3.5 1.5 3.5 3.5s-1.5 3.5-3.5 3.5h-14c-2 0-3.5-1.5-3.5-3.5s1.5-3.5 3.5-3.5z"/><path id="Rectangle_32_" class="st4" d="M181.2 79.4h14c2 0 3.5 1.5 3.5 3.5s-1.5 3.5-3.5 3.5h-14c-2 0-3.5-1.5-3.5-3.5-.1-2 1.5-3.5 3.5-3.5z"/><path id="Rectangle_33_" class="st4" d="M188.2 93.4h7c2 0 3.5 1.5 3.5 3.5s-1.5 3.5-3.5 3.5h-7c-2 0-3.5-1.5-3.5-3.5s1.5-3.5 3.5-3.5z"/><path id="Rectangle_34_" class="st4" d="M188.2 107.5h7c2 0 3.5 1.5 3.5 3.5s-1.5 3.5-3.5 3.5h-7c-2 0-3.5-1.5-3.5-3.5s1.5-3.5 3.5-3.5z"/><path id="Rectangle_35_" class="st4" d="M132 163.6h63.2c2 0 3.5 1.5 3.5 3.5s-1.5 3.5-3.5 3.5H132c-2 0-3.5-1.5-3.5-3.5 0-1.9 1.6-3.5 3.5-3.5z"/><path id="Rectangle_36_" class="st4" d="M103.9 163.6h14c2 0 3.5 1.5 3.5 3.5s-1.5 3.5-3.5 3.5h-14c-2 0-3.5-1.5-3.5-3.5 0-1.9 1.6-3.5 3.5-3.5z"/><path id="Rectangle_37_" class="st4" d="M160.1 191.7h35.1c2 0 3.5 1.5 3.5 3.5s-1.5 3.5-3.5 3.5h-35.1c-2 0-3.5-1.5-3.5-3.5s1.5-3.5 3.5-3.5z"/><path id="Rectangle_38_" class="st4" d="M103.9 191.7H146c2 0 3.5 1.5 3.5 3.5s-1.5 3.5-3.5 3.5h-42.1c-2 0-3.5-1.5-3.5-3.5s1.6-3.5 3.5-3.5z"/><path id="Rectangle_39_" class="st4" d="M103.9 93.4H125c2 0 3.5 1.5 3.5 3.5s-1.5 3.5-3.5 3.5h-21.1c-2 0-3.5-1.5-3.5-3.5s1.6-3.5 3.5-3.5z"/><path id="Rectangle_40_" class="st4" d="M103.9 107.5H125c2 0 3.5 1.5 3.5 3.5s-1.5 3.5-3.5 3.5h-21.1c-2 0-3.5-1.5-3.5-3.5s1.6-3.5 3.5-3.5z"/></g></g></g></g></svg>