<svg xmlns="http://www.w3.org/2000/svg" viewBox="-744 366 110.4 109.8" style="enable-background:new -744 366 110.4 109.8" xml:space="preserve"><path style="fill:#2e323a" d="M-744 366h110.4v109.8H-744z"/><g transform="translate(-44.938 -67.469)"><linearGradient id="a" gradientUnits="userSpaceOnUse" x1="-632.665" y1="454.916" x2="-591.585" y2="413.698" gradientTransform="matrix(1 0 0 -1 -44.938 909.447)"><stop offset="0" style="stop-color:#387eb8"/><stop offset="1" style="stop-color:#366994"/></linearGradient><path d="M-644.2 447.1c-21.1 0-19.8 9.1-19.8 9.1v9.5h20.1v2.8H-672s-13.5-1.5-13.5 19.8 11.8 20.5 11.8 20.5h7V499s-.4-11.8 11.6-11.8h20s11.2.2 11.2-10.8v-18.2s1.8-11.1-20.3-11.1zm-11 6.4c2 0 3.6 1.6 3.6 3.6s-1.6 3.6-3.6 3.6-3.6-1.6-3.6-3.6 1.5-3.6 3.6-3.6z" style="fill:url(#a)"/><linearGradient id="b" gradientUnits="userSpaceOnUse" x1="-607.403" y1="428.677" x2="-563.283" y2="386.407" gradientTransform="matrix(1 0 0 -1 -44.938 909.447)"><stop offset="0" style="stop-color:#ffe052"/><stop offset="1" style="stop-color:#ffc331"/></linearGradient><path d="M-643.6 529.8c21.1 0 19.8-9.1 19.8-9.1v-9.5h-20.1v-2.8h28.1s13.5 1.5 13.5-19.8-11.8-20.5-11.8-20.5h-7v9.9s.4 11.8-11.6 11.8h-20s-11.2-.2-11.2 10.8v18.2s-1.7 11 20.3 11zm11.1-6.4c-2 0-3.6-1.6-3.6-3.6s1.6-3.6 3.6-3.6 3.6 1.6 3.6 3.6c.1 2-1.6 3.6-3.6 3.6z" style="fill:url(#b)"/></g></svg>