<svg version="1.1" id="Calque_1" xmlns="http://www.w3.org/2000/svg" x="0" y="0" viewBox="0 0 250 250" style="enable-background:new 0 0 250 250" xml:space="preserve"><style>.st1{fill:#61dafb}</style><path style="fill:#10283d" d="M0 0h250v250H0z"/><path class="st1" d="M204.9 125c0-10.6-13.3-20.6-33.6-26.8 4.7-20.7 2.6-37.2-6.6-42.5-2.1-1.2-4.6-1.8-7.3-1.8v7.3c1.5 0 2.7.3 3.7.8 4.4 2.5 6.4 12.2 4.9 24.7-.4 3.1-.9 6.3-1.7 9.6-6.4-1.6-13.4-2.8-20.7-3.6-4.4-6-9-11.5-13.6-16.3 10.6-9.9 20.6-15.3 27.4-15.3v-7.3c-9 0-20.7 6.4-32.6 17.5-11.9-11-23.6-17.3-32.6-17.3v7.3c6.7 0 16.7 5.4 27.4 15.2-4.6 4.8-9.1 10.2-13.5 16.3-7.4.8-14.3 2-20.7 3.6-.7-3.3-1.3-6.4-1.7-9.4-1.5-12.4.4-22.1 4.8-24.7 1-.6 2.2-.8 3.7-.8V54c-2.7 0-5.2.6-7.4 1.8-9.2 5.3-11.2 21.7-6.5 42.4-20.3 6.3-33.5 16.3-33.5 26.8 0 10.6 13.3 20.6 33.6 26.8-4.7 20.7-2.6 37.2 6.6 42.5 2.1 1.2 4.6 1.8 7.3 1.8 9 0 20.7-6.4 32.6-17.5 11.9 11 23.6 17.3 32.6 17.3 2.7 0 5.2-.6 7.4-1.8 9.2-5.3 11.2-21.7 6.5-42.4 20.3-6.1 33.5-16.1 33.5-26.7zm-42.4-21.7c-1.2 4.2-2.7 8.5-4.4 12.9-1.3-2.6-2.7-5.2-4.3-7.8-1.5-2.6-3.1-5.1-4.7-7.6 4.7.6 9.1 1.4 13.4 2.5zM147.6 138c-2.5 4.4-5.1 8.6-7.9 12.4-4.9.4-9.8.7-14.7.7-4.9 0-9.8-.2-14.7-.6-2.7-3.9-5.3-8-7.9-12.4-2.5-4.3-4.7-8.6-6.8-13 2-4.4 4.3-8.7 6.7-13 2.5-4.4 5.1-8.6 7.9-12.4 4.9-.4 9.8-.7 14.7-.7 4.9 0 9.8.2 14.7.6 2.7 3.9 5.3 8 7.9 12.4 2.5 4.3 4.7 8.6 6.8 13-2 4.3-4.3 8.7-6.7 13zm10.5-4.3c1.8 4.4 3.3 8.7 4.5 13-4.3 1-8.8 1.9-13.4 2.6 1.6-2.5 3.2-5.1 4.7-7.7s2.9-5.2 4.2-7.9zm-33 34.8c-3-3.1-6.1-6.6-9.1-10.4 2.9.1 5.9.2 9 .2 3.1 0 6.1-.1 9.1-.2-3 3.8-6 7.3-9 10.4zm-24.3-19.2c-4.6-.7-9.1-1.5-13.4-2.6 1.2-4.2 2.7-8.5 4.4-12.9 1.3 2.6 2.7 5.2 4.3 7.8 1.6 2.7 3.1 5.2 4.7 7.7zm24.1-67.8c3 3.1 6.1 6.6 9.1 10.4-2.9-.1-5.9-.2-9-.2-3.1 0-6.1.1-9.1.2 3-3.8 6-7.3 9-10.4zm-24.1 19.2c-1.6 2.5-3.2 5.1-4.7 7.7s-2.9 5.2-4.2 7.8c-1.8-4.4-3.3-8.7-4.5-13 4.2-.9 8.7-1.8 13.4-2.5zm-29.5 40.8c-11.5-4.9-19-11.4-19-16.5s7.5-11.6 19-16.5c2.8-1.2 5.9-2.3 9-3.3 1.9 6.4 4.3 13 7.3 19.8-3 6.8-5.4 13.4-7.2 19.7-3.2-.9-6.3-2-9.1-3.2zm17.5 46.6c-4.4-2.5-6.4-12.2-4.9-24.7.4-3.1.9-6.3 1.7-9.6 6.4 1.6 13.4 2.8 20.7 3.6 4.4 6 9 11.5 13.6 16.3-10.6 9.9-20.6 15.3-27.4 15.3-1.5-.1-2.7-.4-3.7-.9zm77.3-24.9c1.5 12.4-.4 22.1-4.8 24.7-1 .6-2.2.8-3.7.8-6.7 0-16.7-5.4-27.4-15.2 4.6-4.8 9.1-10.2 13.5-16.3 7.4-.8 14.3-2 20.7-3.6.8 3.4 1.4 6.6 1.7 9.6zm12.6-21.7c-2.8 1.2-5.9 2.3-9 3.3-1.9-6.4-4.3-13-7.3-19.8 3-6.8 5.4-13.4 7.2-19.7 3.2 1 6.3 2.1 9.2 3.3 11.5 4.9 19 11.4 19 16.5-.1 5-7.6 11.5-19.1 16.4zM92.4 54z"/><circle class="st1" cx="125" cy="125" r="14.9"/><path class="st1" d="M157.4 53.9z"/></svg>