<svg xmlns="http://www.w3.org/2000/svg" viewBox="2244 -223.5 480 480" style="enable-background:new 2244 -223.5 480 480" xml:space="preserve"><path d="M2627.2 35.6c-12 .1-22.4 2.9-31.1 7.2-3.2-6.4-6.4-11.9-7-16.1-.6-4.8-1.3-7.8-.6-13.5.7-5.8 4.1-13.9 4.1-14.6-.1-.6-.7-3.5-7.6-3.6-6.9-.1-12.9 1.3-13.5 3.1s-2 6-2.9 10.2c-1.2 6.3-13.8 28.6-21 40.3-2.3-4.6-4.4-8.6-4.8-11.8-.6-4.8-1.3-7.8-.6-13.5.7-5.8 4.1-13.9 4.1-14.6-.1-.6-.7-3.5-7.6-3.6-6.9-.1-12.9 1.3-13.5 3.1s-1.4 6.1-2.9 10.2c-1.4 4.2-18.1 41.4-22.5 51.1-2.2 5-4.2 8.9-5.6 11.6-1.4 2.7-.1.2-.2.5-1.2 2.3-1.9 3.5-1.9 3.5v.1c-.9 1.7-1.9 3.3-2.4 3.3-.3 0-1-4.5.1-10.6 2.5-12.9 8.5-33.1 8.4-33.8 0-.3 1.1-3.9-3.9-5.7-4.9-1.8-6.6 1.2-7 1.2-.4 0-.7 1.1-.7 1.1S2492 18 2476.2 18c-9.9 0-23.6 10.8-30.3 20.6-4.3 2.3-13.4 7.3-23 12.6-3.7 2-7.5 4.2-11.1 6.1l-.7-.8c-19.2-20.4-54.6-34.9-53.1-62.3.5-10 4-36.3 68-68.2 52.4-26.1 94.4-19 101.7-3 10.4 22.8-22.4 65.1-76.9 71.2-20.8 2.3-31.7-5.7-34.4-8.7-2.9-3.1-3.3-3.3-4.4-2.7-1.7.9-.7 3.8 0 5.4 1.6 4.2 8.3 11.7 19.7 15.5 10 3.3 34.4 5.1 63.8-6.3 33-12.8 58.8-48.3 51.2-78-7.7-30.2-57.8-40.1-105.1-23.3-28.2 10-58.7 25.7-80.7 46.3-26.1 24.4-30.3 45.7-28.5 54.5 6.1 31.5 49.6 52.1 67 67.3-.9.5-1.7.9-2.4 1.3-8.7 4.3-41.9 21.6-50.2 40-9.4 20.8 1.5 35.7 8.7 37.7 22.4 6.2 45.3-5 57.7-23.4 12.3-18.4 10.8-42.3 5.2-53.2l-.2-.4 6.8-4c4.4-2.6 8.8-5 12.6-7.1-2.1 5.8-3.7 12.7-4.5 22.8-.9 11.8 3.9 27.1 10.2 33.1 2.8 2.6 6.2 2.7 8.2 2.7 7.4 0 10.7-6.1 14.4-13.4 4.6-8.9 8.6-19.2 8.6-19.2s-5 27.9 8.7 27.9c5 0 10-6.5 12.3-9.8v.1s.1-.2.4-.7c.3-.4.5-.8.8-1.3v-.1c2-3.5 6.5-11.5 13.2-24.6 8.6-17 16.9-38.3 16.9-38.3s.8 5.2 3.3 13.8c1.5 5.1 4.7 10.6 7.2 16.1-2 2.8-3.2 4.4-3.2 4.4l.1.1c-1.6 2.1-3.4 4.4-5.3 6.7-6.8 8.2-15 17.5-16.1 20.2-1.3 3.1-1 5.5 1.5 7.4 1.8 1.3 5 1.6 8.4 1.3 6.2-.4 10.4-1.9 12.6-2.9 3.3-1.2 7.2-3 10.8-5.7 6.7-5 10.8-12 10.4-21.4-.2-5.2-1.9-10.2-4-15.1.6-.9 1.2-1.7 1.8-2.7 10.6-15.5 18.8-32.5 18.8-32.5s.8 5.2 3.3 13.8c1.3 4.4 3.8 9.1 6.1 13.8-9.9 8.1-16.1 17.5-18.3 23.6-4 11.4-.9 16.5 5 17.7 2.6.5 6.4-.7 9.2-1.9 3.5-1.1 7.7-3.1 11.6-6 6.7-5 13.1-11.9 12.8-21.2-.2-4.3-1.3-8.5-2.9-12.5 8.4-3.5 19.4-5.5 33.2-3.8 29.8 3.5 35.7 22.1 34.6 29.9-1.1 7.8-7.4 12.1-9.4 13.4-2.1 1.3-2.7 1.7-2.5 2.7.3 1.4 1.2 1.3 3 1.1 2.5-.4 15.7-6.4 16.2-20.7.7-18.4-16.7-38.5-47.8-38.3zm-229.8 77.5c-9.8 10.8-23.7 14.9-29.6 11.4-6.4-3.7-3.9-19.6 8.2-31 7.4-7 16.9-13.4 23.2-17.3 1.4-.9 3.5-2.1 6.1-3.7.4-.3.7-.4.7-.4l1.5-.9c4.6 16.2.3 30.5-10.1 41.9zm72-49c-3.4 8.4-10.6 29.9-15 28.7-3.8-1-6-17.3-.7-33.4 2.7-8.1 8.4-17.7 11.7-21.5 5.4-6 11.3-8 12.8-5.6 1.7 3.3-6.7 26.6-8.8 31.8zm59.4 28.4c-1.5.7-2.8 1.3-3.4.9-.5-.3.6-1.3.6-1.3s7.4-8 10.4-11.7c1.7-2.1 3.7-4.6 5.8-7.4v.8c0 9.7-9.2 16.1-13.4 18.7zm45.8-10.4c-1.1-.8-.9-3.3 2.7-11.1 1.4-3.1 4.6-8.2 10.2-13.1.7 2 1.1 4 1 5.8-.1 12-8.7 16.5-13.9 18.4z" style="fill:#cf649a"/></svg>