<svg version="1.1" id="Layer_1" xmlns="http://www.w3.org/2000/svg" x="0" y="0" viewBox="0 0 480 480" style="enable-background:new 0 0 480 480" xml:space="preserve"><style>.st2{opacity:.405;fill-rule:evenodd;clip-rule:evenodd;fill:#8e75ff;enable-background:new}</style><g id="Branding"><g id="Logo-White-Background" transform="translate(-436 -387)"><g id="Logo" transform="translate(435 387)"><g transform="translate(0 23)" id="Monogram" style="opacity:.9746"><path id="Combined-Shape-Copy" d="M290.9 271.7v-98.5c0-3.5-2.8-6.4-6.4-6.4h-98V65.1h199.2c3.5 0 6.4 2.8 6.4 6.4v200.3l-101.2-.1z" style="fill-rule:evenodd;clip-rule:evenodd;fill:#8e75ff"/><path id="Rectangle-Copy-6" class="st2" d="M186.6 65.1v101.7H93c-1.8 0-3.2-1.4-3.2-3.2 0-.8.4-1.6.9-2.2l95.9-96.3z"/><path id="Rectangle-Copy-7" class="st2" d="M290.9 365.6v-94h101.2L296.3 368c-1.3 1.3-3.3 1.3-4.5 0-.5-.7-.9-1.6-.9-2.4z"/><path id="Rectangle-Copy-8" class="st2" d="M186.6 166.8h101.2c1.8 0 3.2 1.4 3.2 3.2v101.7h-98c-3.5 0-6.4-2.8-6.4-6.4v-98.5z"/></g></g></g></g></svg>