<svg xmlns="http://www.w3.org/2000/svg" viewBox="0 0 250 250" style="enable-background:new 0 0 250 250" xml:space="preserve"><path d="M126.1 198.7c17-60.7 16.5-61 28.8-104.3l3 1.7c1.6.9 2.9.2 2.9-1.7V73.8c3.3-11.4 5.8-20.2 6.6-22.9h13.3l22.1 20.5-14.5 12.5 11 11.9-72.3 103c-.6.5-1.1.4-.9-.1zM134 67.8c.7 0 1.2.4 1.2.8v10.6c0 .4-.5.8-1.2.8h-17.9c-.7 0-1.2-.4-1.2-.8V68.6c0-.4.5-.8 1.2-.8H134zm22-11.7-19.7 11.3c.2.3.4.7.4 1.2v10.6c0 .5-.2 1-.6 1.4L156 92.1c1.4.8 2.5.1 2.5-1.4V57.5c0-1.6-1.1-2.2-2.5-1.4zm-42.7 23.1V68.6c0-.4.1-.8.4-1.2L94 56.1c-1.4-.8-2.5-.1-2.5 1.4v33.2c0 1.6 1.1 2.2 2.5 1.4l19.9-11.5c-.4-.4-.6-.9-.6-1.4zm9.9 119.5h.7c-17-60.7-16.5-61-28.8-104.3l-3 1.7c-1.6.9-2.9.2-2.9-1.7V73.8c-3.3-11.4-5.8-20.2-6.6-22.9H69.4L47.3 71.4l14.5 12.5-11 11.9 72.4 102.9zm1.3-96.6c3 0 5.4-2.4 5.4-5.4s-2.4-5.4-5.4-5.4-5.4 2.4-5.4 5.4c0 3 2.4 5.4 5.4 5.4zm0 31.9c3 0 5.4-2.4 5.4-5.4s-2.4-5.4-5.4-5.4-5.4 2.4-5.4 5.4 2.4 5.4 5.4 5.4zm0 31.9c3 0 5.4-2.4 5.4-5.4s-2.4-5.4-5.4-5.4-5.4 2.4-5.4 5.4 2.4 5.4 5.4 5.4z"/></svg>