<svg xmlns="http://www.w3.org/2000/svg" viewBox="0 0 480 480" style="enable-background:new 0 0 480 480" xml:space="preserve"><linearGradient id="a" gradientUnits="userSpaceOnUse" x1="49" y1="560.331" x2="431" y2="-76.331" gradientTransform="matrix(1 0 0 -1 0 482)"><stop offset="0" style="stop-color:#2383ae"/><stop offset="1" style="stop-color:#6dd7b9"/></linearGradient><path d="M144.5 201.8c12.7-50.9 44.6-76.4 95.5-76.4 76.4 0 86 57.3 124.1 66.8 25.5 6.4 47.8-3.2 66.9-28.6-12.7 50.9-44.6 76.4-95.5 76.4-76.4 0-86-57.3-124.1-66.9-25.5-6.3-47.8 3.2-66.9 28.7zM49 316.4c12.7-50.9 44.6-76.4 95.5-76.4 76.4 0 85.9 57.3 124.1 66.9 25.5 6.4 47.8-3.2 66.9-28.6-12.7 50.9-44.6 76.4-95.5 76.4-76.4 0-85.9-57.3-124.1-66.9-25.5-6.4-47.8 3.1-66.9 28.6z" style="fill-rule:evenodd;clip-rule:evenodd;fill:url(#a)"/></svg>