<svg xmlns="http://www.w3.org/2000/svg" viewBox="0 0 250 250" style="enable-background:new 0 0 250 250" xml:space="preserve"><defs><filter id="a" filterUnits="userSpaceOnUse" x="47.2" y="47.6" width="155.7" height="154.8"><feColorMatrix values="1 0 0 0 0 0 1 0 0 0 0 0 1 0 0 0 0 0 1 0"/></filter></defs><mask maskUnits="userSpaceOnUse" x="47.2" y="47.6" width="155.7" height="154.8" id="b"><path d="M157.6 201.7c2.5 1 5.2.9 7.7-.3l32-15.4c3.4-1.6 5.5-5 5.5-8.8V72.7c0-3.7-2.1-7.1-5.5-8.8l-32-15.4c-3.2-1.6-7-1.2-9.9.9-.4.3-.8.6-1.2 1l-61.3 55.9-26.7-20.2c-2.5-1.9-6-1.7-8.3.4l-8.6 7.8c-2.8 2.6-2.8 7 0 9.6L72.5 125l-23.2 21.1c-2.8 2.6-2.8 7 0 9.6l8.6 7.8c2.3 2.1 5.8 2.3 8.3.4l26.7-20.3 61.3 55.9c1 1 2.2 1.8 3.4 2.2zm6.4-112L117.4 125l46.5 35.3V89.7z" style="fill-rule:evenodd;clip-rule:evenodd;fill:#fff;filter:url(#a)"/></mask><g style="mask:url(#b)"><path d="m197.3 64-32.1-15.4c-3.7-1.8-8.1-1-11.1 1.9L49.3 146.1c-2.8 2.6-2.8 7 0 9.6l8.6 7.8c2.3 2.1 5.8 2.3 8.3.4L192.5 68c4.2-3.2 10.3-.2 10.3 5.1v-.4c0-3.7-2.1-7.1-5.5-8.7z" style="fill:#0065a9"/><path d="m197.3 186-32.1 15.4c-3.7 1.8-8.1 1-11.1-1.9L49.3 103.9c-2.8-2.6-2.8-7 0-9.6l8.6-7.8c2.3-2.1 5.8-2.3 8.3-.4L192.5 182c4.2 3.2 10.3.2 10.3-5.1v.4c0 3.7-2.1 7.1-5.5 8.7z" style="fill:#007acc"/><path d="M165.3 201.4c-3.7 1.8-8.1 1-11.1-1.9 3.6 3.6 9.7 1 9.7-4v-141c0-5.1-6.1-7.6-9.7-4 2.9-2.9 7.3-3.7 11.1-1.9l32 15.4c3.4 1.6 5.5 5 5.5 8.8v104.5c0 3.7-2.1 7.1-5.5 8.8l-32 15.3z" style="fill:#1f9cf0"/><g style="opacity:.25"><linearGradient id="c" gradientUnits="userSpaceOnUse" x1="124.953" y1="204.394" x2="124.953" y2="49.606" gradientTransform="matrix(1 0 0 -1 0 252)"><stop offset="0" style="stop-color:#fff"/><stop offset="1" style="stop-color:#fff;stop-opacity:0"/></linearGradient><path d="M157.5 201.7c2.5 1 5.2.9 7.7-.3l32-15.4c3.4-1.6 5.5-5 5.5-8.8V72.7c0-3.7-2.1-7.1-5.5-8.8l-32-15.4c-3.2-1.6-7-1.2-9.9.9-.4.3-.8.6-1.2 1l-61.3 55.9-26.7-20.2c-2.5-1.9-6-1.7-8.3.4l-8.6 7.8c-2.8 2.6-2.8 7 0 9.6L72.4 125l-23.2 21.1c-2.8 2.6-2.8 7 0 9.6l8.6 7.8c2.3 2.1 5.8 2.3 8.3.4l26.7-20.3 61.3 55.9c1 1 2.2 1.8 3.4 2.2zm6.4-112L117.3 125l46.5 35.3V89.7z" style="fill-rule:evenodd;clip-rule:evenodd;fill:url(#c)"/></g></g></svg>