<svg version="1.1" id="ps_x5F_cc_x5F_app_x5F_RGB.svg" xmlns="http://www.w3.org/2000/svg" x="0" y="0" viewBox="0 0 2438 2438" style="enable-background:new 0 0 2438 2438" xml:space="preserve"><style>.st0{fill:#ff2bc2}</style><circle class="st0" cx="1219" cy="1219" r="1219"/><circle cx="1219" cy="1219" r="1053" style="fill:#2e001e"/><path class="st0" d="M1689 1119.5c-12.8-6-28.9-8.5-49.3-8.5-107.2 0-178.6 82.5-178.6 219.5 0 156.5 73.2 219.5 168.4 219.5 20.4 0 42.5-2.6 58.7-9.4v-421.1h.8zm-381.1 217.7c0-198.2 127.6-353 336.9-353 17.9 0 27.2 0 44.2 1.7V764.7c0-5.1 4.3-8.5 8.5-8.5h137c6.8 0 8.5 2.6 8.5 6.8v777.5c0 23 0 51.9 4.3 83.4 0 6 0 6.8-5.1 9.4-71.5 34-146.3 49.3-217.8 49.3-184.7 0-316.5-114-316.5-345.4zm-290.1-137.8 238.2 461.9c4.3 6.8 1.7 13.6-5.1 13.6h-148c-9.4 0-13.6-2.6-17.9-11.1-54.4-112.3-109.7-228.8-166.7-349.6h-1.7c-51 114-107.2 238.2-161.6 350.5-4.3 6.8-8.5 9.4-15.3 9.4H598.4c-8.5 0-9.4-6.8-5.1-11.9l233.1-448.3L601 768.1c-5.1-6.8 0-12.8 6-12.8h146.3c8.5 0 12.8 1.7 15.3 9.4 53.6 113.1 108 224.6 159.1 338.6h1.7C978.7 991 1033.1 877.9 1085 766.4c4.3-6.8 6.8-11.1 15.3-11.1h137c6.8 0 9.4 5.1 5.1 12.8l-224.6 431.3z"/></svg>