<?xml version="1.0" encoding="utf-8"?>
<!-- Generator: Adobe Illustrator 25.2.0, SVG Export Plug-In . SVG Version: 6.00 Build 0)  -->
<svg version="1.1" id="Layer_1" xmlns="http://www.w3.org/2000/svg" xmlns:xlink="http://www.w3.org/1999/xlink" x="0px" y="0px"
	 viewBox="0 0 180 180" style="enable-background:new 0 0 180 180;" xml:space="preserve">
<style type="text/css">
	.st0{clip-path:url(#SVGID_2_);}
	.st1{fill:#7E2448;}
	.st2{fill:#AC3062;}
	.st3{fill:#38312D;}
	.st4{fill:#EE5C30;}
	.st5{fill:#F2844F;}
	.st6{fill:#4F3E37;}
	.st7{fill:#15100D;}
	.st8{fill:#FBBB9E;}
	.st9{fill:#C13E24;}
	.st10{fill:#DA4E33;}
	.st11{fill:#B95D38;}
	.st12{fill:#F85939;}
	.st13{fill:#150F0C;}
	.st14{fill:#CC492F;}
</style>
<g>
	<defs>
		<rect id="SVGID_1_" width="180" height="180"/>
	</defs>
	<use xlink:href="#SVGID_1_"  style="overflow:visible;fill:#9A2DE0;"/>
	<clipPath id="SVGID_2_">
		<use xlink:href="#SVGID_1_"  style="overflow:visible;"/>
	</clipPath>
	<g class="st0">
		<g>
			<g>
				<g>
					<path class="st1" d="M84.7,25c2.8-0.8,5.7-1.2,8.5-0.7c1.1,0.2,2.2,0.6,3.3,1c0.8,0.3,1.7,0.6,2.5,0.9c1.1,0.4,2.1,1,3.1,1.7
						c0.6,0.4,1.2,0.9,1.8,1.4c0.5,0.5,0.8,1.1,1.2,1.7c0.4,0.7,0.7,1.5,1,2.2c0.2,0,0.4,0,0.5,0c-0.5,0.3-1.1,0.4-1.6,0.5
						c-1.1,0.4-2.2,0.8-3.3,1.3c-1.3,0.5-2.6,1.1-3.8,1.8c-1.7,0.9-3.3,1.9-4.9,3.1c-1.2,0.9-2.4,1.8-3.5,2.9c-1.1,1-2.1,2.1-3,3.3
						c-1.1,1.3-2,2.9-2.9,4.4c-1,1.7-1.8,3.5-2.5,5.4c-0.5,1.6-1.1,3.2-1.5,4.8c-0.4,1.8-0.8,3.7-1,5.5c0,0.6-0.1,1.2-0.2,1.8
						c-0.1,1.2,0.1,2.4,0.2,3.6c0.1,1.7,0.5,3.4,1,5c0.4,1.2,0.8,2.4,1.5,3.4c0.4,0.6,0.7,1.3,1.1,2c0.8,1.3,1.8,2.4,2.5,3.7
						c0.8,1.2,1.4,2.6,1.8,4c0.5,1.7,0.9,3.3,1,5.1c0,0.6-0.1,1.2-0.1,1.8c-0.9,0.3-1.9,0.6-2.9,0.8c-0.6,0.2-1.3-0.1-1.9,0
						c-0.4,0-0.7,0-1-0.1c-1-0.3-1.9-0.7-2.9-0.8c-0.9-0.1-1.6,0.5-2.1,1.1c-1,0.8-2.4,1.2-3.7,1.1c-0.8,0-1.5-0.2-2.1-0.4
						c-1.2-0.4-2.1-1.1-3.2-1.7s-2.3-1-3.6-1c-1.1,0-2.1,0.4-3.2,0.6c-0.8,0.2-1.6,0.4-2.4,0.3c-1.9-0.2-3.5-1.2-4.9-2.5
						c-0.9-0.8-1.7-1.8-2.2-2.9c-0.4-0.8-0.5-1.7-0.9-2.5c-0.2-0.4-0.4-0.7-0.5-1.1c-0.2-0.4-0.6-0.6-0.9-0.9
						c-1.3-1.2-2.4-2.8-2.5-4.6c-0.1-1,0.3-1.9,0.5-2.9c0.3-1.2,1-2.2,1.5-3.3c0.8-1.7,0.3-3.6,1-5.2c0.5-1.1,1.4-2.1,2.5-2.5
						c1-0.4,2.1-0.5,3-1.2c0.8-0.6,1.2-1.5,1.3-2.4c0.2-1.1,0.2-2.2-0.3-3.2c-0.3-0.9-0.7-1.8-0.8-2.8c-0.1-0.9,0-1.9,0.2-2.8
						c0.3-1.8,0.8-3.6,1.8-5.1c0.9-1.3,2-2.4,3.1-3.5c0.7-0.6,1-1.4,1.4-2.2c0.7-1.3,1.4-2.6,2.6-3.5c0.8-0.6,1.7-1,2.6-1.2
						c0.7-0.1,1.5-0.1,2.1-0.4c0.9-0.3,1.7-0.8,2.4-1.4c0.8-0.8,1.4-1.9,1.9-2.9c0.4-0.9,0.8-1.8,1.3-2.6c0.4-0.7,1-1.4,1.5-2
						c1.3-2,3.2-3.7,5.4-4.7C82.5,25.9,83.6,25.3,84.7,25z"/>
					<path class="st2" d="M141.6,56c-0.6-2-1.4-3.9-2.6-5.7c0,0.2,0,0.3,0,0.5c-0.1-0.2-0.3-0.4-0.5-0.6c-0.1-0.1-0.3-0.2-0.4-0.3
						c-0.2-0.8-0.5-1.7-1-2.4c-0.1-0.2-0.4-0.5-0.2-0.8c-0.7-1-1.6-1.8-2.3-2.7c-0.6-0.7-1.4-1.3-2-2.1c-0.5-0.6-1.1-1.1-1.7-1.6
						c0,0-0.1,0-0.2,0c0-0.1-0.1-0.1-0.2-0.2c-0.5-0.6-1.1-1.1-1.7-1.5c-0.5-0.4-1.1-0.8-1.7-1.1c-1.4-0.8-3-1.5-4.5-2.2
						c-3.6-1.7-7.6-2.4-11.5-2.5c-0.9,0-1.9,0.1-2.8,0.1c-0.7,0-1.3,0.1-2,0.3c-0.5,0.3-1.1,0.4-1.6,0.5c-1.1,0.4-2.2,0.8-3.3,1.3
						c-1.3,0.5-2.6,1.1-3.8,1.8c-1.7,0.9-3.3,1.9-4.9,3.1c-1.2,0.9-2.4,1.8-3.5,2.9c-1.1,1-2.1,2.1-3,3.3c-1.1,1.3-2,2.9-2.9,4.4
						c-1,1.7-1.9,3.5-2.5,5.4c-0.6,1.6-1.1,3.2-1.5,4.8c-0.4,1.8-0.8,3.7-1,5.5c0,0.6-0.1,1.2-0.2,1.8c-0.1,1.2,0.1,2.4,0.2,3.6
						c0.1,1.7,0.5,3.4,1,5c0.4,1.2,0.8,2.4,1.5,3.4c0.4,0.6,0.7,1.3,1.1,2c0.8,1.3,1.7,2.4,2.5,3.7c0.8,1.2,1.4,2.6,1.8,4
						c0.5,1.7,0.9,3.3,1,5.1c0,0.6-0.1,1.2-0.1,1.8c1.5-0.5,3-1.1,4.3-2.1c2-1.7,3.5-3.7,5.1-5.7c1.7-2,3.7-3.6,6-4.7
						c1.9-0.8,3.8-1.5,5.7-2.3c3.9-1.7,7.5-3.9,11.1-6.3c3-2.1,6.1-4.2,9.4-5.8c1-0.5,2.1-0.8,3.1-1.2c0.8-0.3,1.5-0.7,2.2-1
						s1.3-0.6,2-0.9c0.9-0.5,1.9-0.8,2.6-1.5c-0.2,0.3-0.3,0.5-0.1,0.8c0.2,0,0.4,0,0.5,0c0.3-0.2,0.7,0,0.9-0.2
						c0.6-0.6,1.1-1.5,1.4-2.3c0.4-0.8,0.6-1.8,0.8-2.7c0-0.6,0-1.2,0-1.7C142.1,58,141.9,57,141.6,56z"/>
					<path class="st3" d="M37.8,218.1c0.1-0.3,0.2-0.5,0.4-0.8c0.4-1,0.8-2.1,1.2-3c1.3-2.8,2.6-5.5,3.7-8.3
						c0.4-1.1,0.9-2.1,1.4-3.1c0.4-0.9,0.8-1.8,1.2-2.7c1-1.8,1.7-3.7,2.5-5.6c0.4-0.7,0.7-1.5,1.1-2.2h0.1c0.2,0.8,0.5,1.6,0.8,2.3
						c0.7,1.6,1.4,3,2.1,4.6c1,2.2,2,4.5,3,6.7c0.4,0.8,0.7,1.5,1,2.3c0.5,1.4,1.1,2.9,1.7,4.3c0.4,0.8,0.4,1.8,0.7,2.7
						c0.2,1,0.4,2,0.6,2.9h60.5c0.2-0.7,0.4-1.3,0.7-2c0.4-1.2,0.7-2.4,1.2-3.5c0.4-1,0.7-2.1,1.2-3.1c0.3-0.6,0.6-1.2,0.8-1.7
						c0.4-0.9,0.9-1.7,1.5-2.5c-0.1,0-0.2,0-0.3,0c0.4-0.5,0.8-1.1,1.2-1.7c0.2-0.4,0.4-0.8,0.7-1.1c0.6-0.8,1.2-1.6,1.6-2.5
						c0.2-0.4,0.5-0.7,0.8-1c0.4-0.4,0.5-0.8,0.7-1.3c0.2-0.7,0.5-1.4,0.7-2.1c0.3-1.1,0.6-2.3,0.5-3.4c-0.1-1.2-0.2-2.4-0.6-3.5
						c-0.2-0.6-0.4-1.3-0.7-1.9c-0.6-1.1-1.2-2.1-1.8-3.1c-0.9-1.8-1.4-3.7-1.9-5.7c-0.2-0.8-0.5-1.7-0.6-2.6c0-1.2-0.2-2.4-0.2-3.6
						c0-2.6,0-5.3,0.4-7.9c-0.1,1.1,0.2,2.1,0.3,3.2c0.2,1,0,2.1,0,3.1c0,1.3-0.1,2.6,0.1,3.8c0.6-1.1,0.9-2.2,1.4-3.3
						c0.7-2,1.3-3.9,1.8-6c0,1-0.1,2.1-0.3,3.1c-0.2,0.9-0.2,1.9-0.6,2.8c-0.4,1-0.8,2-1.3,2.9c-0.3,0.5-0.6,0.9-0.8,1.4
						c-0.1,0.5,0.1,1.1,0.2,1.6c0.3,1.3,0.7,2.7,1.2,3.9c0.6,1.6,1.2,3.1,2.1,4.6c0.5,0.8,0.8,1.7,1.2,2.5s0.6,1.8,0.8,2.7
						c0.1,1,0.3,2.1,0.3,3.1c-0.1,0.9-0.3,1.8-0.6,2.7c-0.3,1-0.9,1.9-1.4,2.8c-0.2,0.5-0.5,0.9-0.9,1.3c-0.7,0.9-1.4,1.8-2.1,2.8
						c-0.5,0.7-0.7,1.6-1.2,2.2v0.1c0.1,0.1,0.1,0.3,0.2,0.4c0.4,1.7,0.9,3.3,1.3,4.9c0.3,1,0.5,2.1,0.7,3.1c0.3,1.4,0.7,2.8,1,4.2
						h19.3c0-0.2,0-0.4-0.1-0.6c-0.2-1.7-0.3-3.5-0.5-5.2c-0.3-2.5-0.5-5.1-0.9-7.6c-0.3-1.7-0.5-3.3-0.7-5
						c-0.2-2.4-0.5-4.8-1.1-7.1c-0.3-1.1-0.4-2.2-0.5-3.3c-0.3-1.8-0.5-3.6-1-5.3c-0.4-1.1-0.5-2.3-0.8-3.4
						c-0.4-1.9-0.8-3.9-1.3-5.8c-0.3-2.3-0.8-4.6-1.2-6.8c-0.4-2.3-1.1-4.6-1.7-6.8c-0.4-1.2-0.7-2.5-1.1-3.7
						c-0.2-0.7-0.5-1.3-0.8-2c0-0.1-0.3-0.6-0.4-0.8c-0.4-0.8-0.8-1.6-1.2-2.4H135V152c-0.4-0.9-0.9-1.8-1.4-2.6s-1-1.6-1.9-2.1
						c-0.5-0.4-1-0.9-1.5-1.3c-0.9-0.8-1.9-1.6-2.9-2.4c-1.4-1.1-3-2-4.4-3.1c-0.8-0.6-1.6-1.1-2.3-1.7c-0.9-0.7-1.7-1.5-2.5-2.3
						c-0.6-0.6-1.3-1.2-1.8-1.9c-0.4-0.4-0.7-0.9-1.1-1.4c-0.5-0.6-0.8-1.2-1.3-1.9c-0.6-0.8-1-1.9-1.5-2.8
						c-0.2-0.4-0.3-0.9-0.6-1.2c-0.2-0.7-0.4-1.4-0.6-2.1c-0.4-1.2-0.6-2.5-0.7-3.8c0-0.8,0-1.7-0.1-2.6c-0.1,0-0.2,0-0.3,0v-0.2
						v0.1c0,0,0,0.1-0.1,0.1c-0.4,0.6-1.2,0.8-1.9,1.1c-0.8,0.4-1.7,0.7-2.5,0.8c-1.3,0.2-2.7-0.2-4-0.1c-1,0-1.9-0.2-2.9-0.2
						c-0.8,0-1.5-0.3-2.3-0.3s-1.4-0.4-2.2-0.6c-0.8-0.2-1.5-0.4-2.2-0.7c-1.6-0.6-3.3-1-4.9-1.9c-0.5-0.2-0.9-0.7-1.4-0.9
						c-0.7-0.4-1.4-0.8-2-1.3c-0.4-0.4-0.8-0.6-1.2-1c-0.2-0.2-0.2-0.5-0.3-0.8c-0.8,0.7-0.9,1.7-1.3,2.6c-0.5,1.1-1,2.3-1.3,3.5
						c-0.2,0.7-0.6,1.3-0.8,2c-0.4,0.8-0.6,1.7-1.1,2.4c-1.2,1.9-2.4,3.7-3.9,5.4c-0.2,0.3-0.5,0.5-0.7,0.8l0,0
						c-0.3,0.3-0.5,0.6-0.8,0.9c-1.3,1.2-2.7,2.2-4.1,3.2c-1.7,1.2-3.3,2.2-5,3.3c-1.7,1.1-3.4,2.1-5,3.3c-1.1,0.8-2.3,1.3-3.4,2
						c-3.3,1.8-6.3,4.1-9,6.7c-1.2,1.1-2.4,2.2-3.4,3.4c-0.6,0.7-1.1,1.4-1.7,2.1c-0.6,0.9-1.2,1.8-1.7,2.8
						c-0.5,0.8-0.8,1.8-1.3,2.6s-1,1.5-1.4,2.3s-0.8,1.7-1.3,2.5c-0.4,0.8-0.8,1.5-1.2,2.3c-0.9,2-1.7,4-2.6,5.9
						c-0.5,0.9-1,1.9-1.3,2.9c-0.4,1-0.6,2-1,2.9c-0.7,1.8-1.4,3.5-2.1,5.3c-0.4,1-0.6,2-0.9,2.9c-0.4,1.3-0.8,2.6-1.3,3.9
						c-0.7,2-1.4,3.9-2,5.9c-0.5,1.9-1.2,3.8-1.7,5.8c-0.4,1.2-2.5,9.1-4.1,15.1L37.8,218.1L37.8,218.1z"/>
				</g>
				<g>
					<path class="st4" d="M140.2,65.8c-0.5-0.7-1.4-0.8-2.1-0.9c-0.7-0.2-1.3-0.4-2-0.5c0-0.1,0-0.3,0-0.4c0.3-0.9,0.4-1.9,0.5-2.9
						c0-0.8,0.2-1.5,0.1-2.3c-0.4,1.4-0.8,2.8-1.4,4.1c0,0.1,0,0.3-0.1,0.4c0,0,0,0.1-0.1,0.1c0,0.2-0.1,0.4-0.1,0.6
						c-1-0.3-2.1-0.6-3.1-1c-0.9-0.3-1.9-0.7-2.8-1.2c0-0.8-0.1-1.7-0.1-2.5c0-1-0.1-1.9,0-2.9c0-0.5,0-1.1,0.1-1.7
						c0,0.3-0.1,0.5-0.1,0.8c0,0.1,0,0.2-0.1,0.2c0,0.7-0.2,1.3-0.3,1.9c0,0.7-0.2,1.4-0.3,2.1c-0.1,0.4-0.1,0.9-0.4,1.4
						c0,0-0.1,0-0.2,0c-0.1-0.2-0.4-0.4-0.6-0.5c-2.6-1.4-5.3-2.6-8.1-3.5c0.2-1.5,0.2-2.9,0.4-4.4c0.2-0.9,0.3-1.9,0.5-2.9
						c-0.8,2.3-1.4,4.6-2,6.9c-2.2-0.7-4.5-1.2-6.7-1.7c0.6-2.1,1.2-4.2,2-6.3c0.4-1,0.7-2.1,1.3-3c-0.1,0.1-0.2,0.2-0.3,0.2
						c-1.1,1.7-2,3.5-2.8,5.4c-0.5,1.2-0.9,2.4-1.4,3.5c-0.8-0.2-1.6-0.4-2.5-0.4c-0.4,0-0.8-0.3-1.2-0.4c-0.5-0.1-1-0.4-1.5-0.5
						c0,0-0.2,0-0.3,0c0.7,0.4,1.3,0.9,2,1.4c0.4,0.3,0.7,0.6,1.1,0.8c0.3,0.1,0.7,0.3,0.9,0.4c1.9,1.4,4,2.5,6.2,3.4
						c1.7,0.8,3.4,1.8,5.1,2.5c1.8,0.7,3.5,1.7,5.3,2.5c0.8,0.4,1.7,0.7,2.5,1.1s1.7,0.8,2.6,1.2c1.7,1,3.5,1.9,5.3,2.9
						c1.3,0.7,2.4,1.8,3.5,2.7c0.4-1.5,0.8-3,1.1-4.6C140.1,67.3,140,66.5,140.2,65.8z"/>
					<path class="st5" d="M102.5,50.9c0.5-0.2,1.2-0.1,1.7-0.4c0.1,0,0.2,0,0.3,0c0,0.3,0,0.5,0,0.8c-0.2,0.7-0.2,1.3-0.3,2.1
						c0.2,0.1,0.4,0.2,0.6,0.3c0,0-0.2,0-0.3,0c0.7,0.4,1.3,0.9,2,1.4c0.4,0.3,0.7,0.6,1.1,0.8c0.3,0.1,0.7,0.3,0.9,0.4
						c1.9,1.4,4,2.5,6.2,3.4c1.7,0.8,3.4,1.8,5.1,2.5c1.8,0.7,3.5,1.7,5.3,2.5c0.8,0.4,1.7,0.7,2.5,1.1s1.7,0.8,2.6,1.2
						c1.7,1,3.5,1.9,5.3,2.9c1.3,0.7,2.4,1.8,3.5,2.7c-0.2,0.8-0.5,1.6-0.8,2.5c-0.5,1.4-0.8,2.8-1.4,4.1c-0.3,0.8-0.6,1.6-1,2.3
						c-0.4,0.8-0.8,1.7-1.2,2.5c-0.4,1-1,1.9-1.6,2.9c-0.8,1.5-1.6,3.1-2.5,4.6c-0.6,1.1-1.2,2.2-1.9,3.3c-0.3,0.4-0.6,0.9-0.8,1.4
						c-1-0.5-2.2-0.5-3.3-0.3c-1.4,0.3-2.7,0.9-3.7,2.1c-0.5,0.6-1,1.3-1.5,2c-0.7,1.1-1,2.4-0.8,3.7c0.1,0.9,0.5,1.7,0.8,2.5
						c0.1,0.4,0.4,0.8,0.7,1.1c-1.3,1.5-2.8,2.8-4.3,3.9c-1.3,0.9-2.5,2-3.9,2.7c-0.1,0.1-0.3,0.1-0.4,0.1c-0.4,0-0.8,0.1-1.1,0.4
						c-0.8,0.5-1.7,0.5-2.6,0.6c-0.8,0-1.5,0.3-2.3,0.1c-1.1-0.3-2.2-0.6-3.3-1.1c-0.7-0.4-1.4-0.6-2.2-0.8
						c-0.6-0.1-1.3-0.3-1.7-0.8c-1.7-1.6-3.6-2.9-5-4.8c-0.7-0.9-1.3-1.8-1.9-2.9c-0.2-0.4-0.5-0.8-0.8-1.2c-0.3-0.4-0.7-0.7-1-1.1
						c-0.5-0.8-0.8-1.7-1.2-2.6c-0.3-0.8-0.6-1.6-0.8-2.4c-0.1-0.4-0.7-0.3-0.8-0.7c-0.3-0.5-0.4-1.1-0.6-1.7c-0.2,0-0.3,0-0.5,0
						c0,0.3,0,0.7,0.1,1c0.3,1,0.6,2.1,1.1,3c0.8,1.7,1.7,3.5,2.3,5.4c0.4,1.2,1,2.3,1.5,3.5c0.3,0.6,0.5,1.2,0.8,1.8
						c0.3,0.6,0.5,1.2,0.7,1.8c0.3,1.2,0.7,2.4,1.1,3.6c0.3,0.8,0.5,1.6,0.8,2.4c0.2,0.5,0.3,1,0.5,1.5c0.1,0.3,0.3,0.6,0.4,0.9
						c-1-0.2-2-0.5-2.9-0.8c-0.9-0.4-1.9-0.7-2.9-1c-0.7-0.2-1.2-0.6-1.9-0.8c-0.5-0.2-0.9-0.7-1.4-0.9c-0.7-0.4-1.4-0.8-2-1.3
						c-0.4-0.4-0.8-0.6-1.2-1c-0.2-0.2-0.2-0.5-0.3-0.8c0-1.1,0.2-2.1,0.3-3.2c0.1-1.7,0.2-3.3,0.4-4.9c0-1.7,0.1-3.3,0.1-5
						c0.1-1.8,0-3.6-0.1-5.4c-0.1-0.9,0-1.9-0.1-2.8c0-1.5-0.3-2.9-0.4-4.4c-0.1-0.9-0.1-1.8-0.1-2.7c0-0.4-0.1-0.8,0-1.2
						c0.3-1.4,0.6-2.8,1-4.1c0.3-1.2,0.5-2.4,0.8-3.6c0.4-1.8,1.1-3.6,1.4-5.4c0.5-1.2,0.8-2.4,1.3-3.5c0.8-1.7,1.7-3.4,2.8-5
						c1.6-2.2,3.3-4.2,5.3-6.2c1.2-1.2,2.6-2.3,4.1-3.2C100.1,52.1,101.3,51.4,102.5,50.9z"/>
					<path class="st4" d="M75.2,58.2c1.3-0.5,2.7-0.5,4-0.3c1.2,0.3,2.3,0.6,3.3,1.2c0.7,0.4,1.5,0.8,1.9,1.5
						c0.2,0.6,0.2,1.3,0.3,1.9c0.1,0.6,0.3,1.2,0.4,1.9c0.1,1,0.3,2,0.4,3c0.1,1.1,0,2.1,0,3.2c-0.3,1.8-0.9,3.6-1.4,5.4
						c-0.3,1.2-0.6,2.4-0.8,3.6c-0.4,1.4-0.8,2.8-1,4.1c0-0.2-0.3-0.2-0.5-0.3c-0.9-0.2-1.7-0.5-2.6-0.8c-1.3-0.4-2.8-1-3.8-2
						c-0.8-0.7-1.6-1.3-2.1-2.2c-0.3-0.5-0.7-1.1-1-1.6c-0.5-0.8-0.9-1.7-1.2-2.7c-0.2-0.6-0.5-1.2-0.7-1.9
						c-0.2-0.8-0.3-1.6-0.4-2.4c-0.2-1.1-0.1-2.1,0-3.2c0.1-1,0.4-2.1,0.6-3.1c0.3-0.8,0.6-1.7,1-2.4c0.5-0.8,1.2-1.5,1.9-2.1
						C73.8,58.8,74.5,58.4,75.2,58.2z"/>
					<path class="st4" d="M98.1,72.4C98,72.2,98.2,72,98.3,72c0.5,0,0.8,0.6,1.3,0.8c0.6,0.2,1.2,0.4,1.8,0.6c1.2,0.5,2.6,1,3.7,1.8
						c0.6,0.4,1.2,0.9,1.8,1.3c0.6,0.4,1.3,0.9,1.8,1.5c0.4,0.6,1.2,0.9,1.7,1.4c0.1,0.1,0.1,0.3,0.2,0.5c-0.9,0.2-1.9,0.3-2.8,0.1
						c-0.4-0.1-0.8-0.2-1.1-0.5c-0.2-0.4-0.5-0.7-0.8-1.1c-0.3-0.3-0.7-0.3-1.1-0.4c-0.9-0.2-1.9-0.2-2.8-0.5
						c-0.4-0.1-0.8-0.1-1-0.4c-0.4-0.4-0.9-0.8-1.2-1.3c-0.4-0.6-0.7-1.2-0.9-1.9C98.5,73.4,98.2,72.9,98.1,72.4z"/>
					<path class="st4" d="M123.9,84.4c0.3-0.1,0.6-0.3,0.9-0.1c0.2,0.1,0.4,0.4,0.6,0.5c0.6,0,1.2,0,1.8,0.1c0.1,0.3,0,0.5-0.2,0.8
						c0.3,0.3,0.7,0.6,1,0.8c0.3,0.2,0.7,0.3,0.8,0.7c0.3,0.5,0.8,0.9,0.9,1.5v0.2c-0.6-0.6-1.2-1.3-2-1.7c-0.7-0.2-1.4-0.2-2.1-0.3
						c-0.4,0.7-1.2,1-1.7,1.7c-1,1.3-1.9,2.7-2.7,4.1c-0.3,0.5-0.5,0.9-0.6,1.5c-0.2,0.6,0,1.2-0.3,1.8c-0.2,0.4-0.7,0.4-1.1,0.5
						c-0.9,0.2-1.9,0.5-2.8,0.7c-0.2,0-0.5,0.1-0.7,0c0-0.4,0.5-0.5,0.8-0.6c0.8-0.1,1.6-0.4,2.1-1c0-0.2,0-0.4,0-0.7
						c-0.2-0.6-0.3-1.2-0.7-1.7c-0.4-0.6-0.4-1.3-0.4-2c0.1-0.6,0-1.2,0.1-1.7c0.1-0.8,0.3-1.5,0.6-2.2c0.4-0.9,0.9-1.7,1.7-2.2
						c0.3-0.2,0.7-0.2,1-0.3c0.7-0.1,1.4-0.3,2.1-0.3C123.3,84.4,123.6,84.5,123.9,84.4z"/>
					<path class="st4" d="M94.9,85.3c0.5-0.1,1-0.2,1.6-0.1c0.5,0,1,0.1,1.5,0.2c0.8,0,1.5,0.3,2.2,0.5c0.8,0.3,1.3,0.8,1.9,1.3
						c0.7,0.6,1,1.5,1.4,2.3c0.3,0.6,0.6,1.3,0.6,2c0,0.5-0.1,1-0.1,1.5c0,0.6-0.2,1.2-0.5,1.8c-0.5,0.9-1,1.9-1.8,2.6
						c-0.8,0.6-1.4,1.2-2.4,1.5c-0.6,0.2-1.2,0-1.9,0c-1.1,0.1-2.1-0.3-3.1-0.7c-0.9-0.4-2-0.8-2.5-1.7c-0.4-0.5-0.2-1.2-0.7-1.7
						c-0.6-0.8-0.7-1.8-0.7-2.7c-0.1-0.9-0.1-1.8,0.2-2.7c0.1-0.4,0.4-0.8,0.6-1.1c0.1-0.3,0.2-0.6,0.4-0.9c0.4-0.5,0.9-0.9,1.5-1.2
						c0.4-0.2,0.8-0.5,1.2-0.8c0.2,1.5,0.4,2.9,0.8,4.4c0.2,0.6,0.4,1.2,0.6,1.7c0.1,0.4,0.2,0.8,0.6,0.9c-0.1-0.8-0.2-1.6-0.4-2.3
						c-0.2-0.9-0.2-1.9-0.5-2.9C95.1,86.8,94.9,86,94.9,85.3z"/>
					<path class="st4" d="M85.6,95c0.1,0,0.3,0,0.5,0c0.2,0.6,0.4,1.2,0.6,1.7c0.1,0.4,0.7,0.3,0.8,0.7c0.2,0.8,0.5,1.6,0.8,2.4
						c0.4,0.9,0.7,1.8,1.2,2.6c0.3,0.4,0.7,0.7,1,1.1s0.6,0.8,0.8,1.2c0.5,1,1.2,1.9,1.9,2.9c1.4,1.9,3.3,3.2,5,4.8
						c0.5,0.4,1.1,0.6,1.7,0.8c0.8,0.2,1.5,0.4,2.2,0.8c1,0.5,2.1,0.8,3.3,1.1c0.8,0.2,1.5-0.1,2.3-0.1c0.9-0.1,1.9-0.1,2.6-0.6
						c0.3-0.2,0.7-0.4,1.1-0.4c-0.4,0.2-0.4,0.7-0.5,1c-0.2,0.4-0.2,0.9-0.4,1.3c-0.2,0.9-0.3,1.9-0.4,2.8c0,0,0,0.1-0.1,0.1
						c-0.6,0.4-1.2,0.7-1.9,1.1c-0.8,0.4-1.7,0.7-2.5,0.8c-1.3,0.2-2.7-0.2-4-0.1c-1,0-1.9-0.2-2.9-0.2c-0.8,0-1.5-0.3-2.3-0.3
						s-1.4-0.4-2.2-0.6c-0.8-0.2-1.5-0.4-2.2-0.7c-1.6-0.6-3.3-1-4.9-1.9c0.7,0.2,1.2,0.5,1.9,0.8c1,0.3,1.9,0.6,2.9,1
						c0.9,0.4,1.9,0.7,2.9,0.8c-0.1-0.3-0.2-0.6-0.4-0.9c-0.2-0.5-0.3-1-0.5-1.5c-0.3-0.8-0.6-1.6-0.8-2.4c-0.4-1.2-0.8-2.4-1.1-3.6
						c-0.1-0.6-0.4-1.2-0.7-1.8s-0.5-1.2-0.8-1.8c-0.5-1.2-1.1-2.3-1.5-3.5c-0.6-1.9-1.5-3.7-2.3-5.4c-0.4-1-0.8-2-1.1-3
						C85.6,95.7,85.6,95.3,85.6,95z"/>
					<path class="st4" d="M124.5,95.7c1.1-0.2,2.3-0.2,3.3,0.3c-0.5,0.8-1,1.7-1.6,2.6c-1.9,2.9-3.9,5.9-6.3,8.6
						c-0.4-0.3-0.6-0.7-0.7-1.1c-0.3-0.8-0.7-1.7-0.8-2.5c-0.1-1.3,0.2-2.6,0.8-3.7c0.4-0.7,0.9-1.4,1.5-2
						C121.8,96.7,123.1,96.1,124.5,95.7z"/>
				</g>
				<g>
					<g>
						<path class="st6" d="M95.8,71c0.7-0.4,1.5-0.4,2.3-0.3c1.8,0,3.6,0.4,5.4,0.9c2,0.6,3.8,1.6,5.6,2.7c0.8,0.5,1.7,1.2,2.2,2.1
							c0.2,0.4,0.3,0.7,0.4,1.1c0.1-0.4,0.1-0.7,0.4-0.9c0.1,0.4,0,0.8,0,1.1c0.1,0,0.2,0,0.3,0c0,0.3-0.1,0.6-0.2,0.9
							c-0.3,0.5-0.6,1.1-1,1.6c-0.5-0.1-0.9-0.4-1.3-0.8c-1.5-1.5-3.1-2.9-5-3.9c-1.1-0.6-2.1-1.1-3.3-1.7c-1.8-0.8-3.7-1.6-5.4-2.4
							C96,71.2,95.9,71.1,95.8,71z"/>
						<path class="st7" d="M102.4,77.2c0.3-0.2,0.7-0.1,1.1,0c0.3,0.1,0.4,0.5,0.4,0.8c0.1,0.8-0.4,1.5-1,2c-0.4,0.4-1.1,0.4-1.5,0
							s-0.4-1-0.2-1.4C101.4,78,101.8,77.5,102.4,77.2z"/>
						<path class="st8" d="M99.2,79.6c0.4,0.3,0.7,0.6,1.1,0.9s0.8,0.6,1.2,0.9c0.3,0.2,0.6,0.3,0.8,0.6c-0.6-0.1-1-0.4-1.5-0.8
							s-1-0.7-1.4-1.1C99.3,80.1,99.3,79.8,99.2,79.6z"/>
						<path class="st6" d="M122.6,82.7c1.5-1,3.4-1,5.1-0.5c2.1,0.6,4,1.6,5.5,3.2c0.2,0.2,0.1,0.4,0.1,0.7c-0.3,0-0.5,0-0.8,0
							c-2.3-0.8-4.7-1-7.1-1.2c-1.4,0-2.7,0.1-4.1,0.2c-0.1-0.2-0.3-0.4-0.1-0.7c0.4-0.8,0.5-1.9,1.4-2.4
							C122.7,82.3,122.6,82.6,122.6,82.7z"/>
						<path class="st7" d="M125.4,87.3c0.4-0.2,0.9,0,1.2,0.3c0.2,0.3,0.1,0.6,0.1,0.9c-0.1,0.6-0.6,1-1,1.4
							c-0.3,0.3-0.8,0.4-1.2,0.1c-0.2-0.2-0.3-0.4-0.3-0.7C124.1,88.5,124.7,87.7,125.4,87.3z"/>
						<path class="st8" d="M122.3,89.8c0.2,0,0.4,0,0.5,0.1c0.7,0.5,1.4,1,2.2,1.2c0.4,0.1,0.8,0.1,1.1,0.3
							c-0.8,0.1-1.5-0.2-2.2-0.4C123.2,90.8,122.6,90.4,122.3,89.8z"/>
						<path class="st9" d="M105.2,98.9c0.1,0,0.2,0.1,0.3,0.2c0.6,0.4,1.1,1.1,1.9,1.3c0.1,0.2,0.2,0.4,0.4,0.6c0.2,0,0.4,0,0.5,0
							c0,0.1,0,0.3,0,0.4c0.3,0.2,0.6,0.4,0.8,0.6c0.1-0.2,0.3-0.4,0.4-0.6c0.1,0,0.2,0,0.3,0.1c-0.1,0.3-0.2,0.5-0.4,0.8
							c0.5,0.3,1.1,0.5,1.7,0.8c0.4-0.4,0.8-0.8,1-1.4c0.1,0,0.2,0,0.3,0c-0.1,0.6-0.5,1.1-0.9,1.5c0.3,0,0.7,0.3,0.9,0
							c0.4-0.4,0.6-1,1.1-1.3c0,0.6-0.4,1.1-0.8,1.6c0.4,0,0.9,0,1.2-0.4c0.2-0.4,0.4-0.7,0.8-1c-0.1,0.5-0.4,0.9-0.6,1.3
							c0.7-0.2,1-0.8,1.6-1.2c-0.1,0.3-0.3,0.6-0.4,0.9c-0.1,0.1-0.3,0.3-0.4,0.4c-0.7,0.4-1.6,0.3-2.4,0.2c-1,0-1.8-0.5-2.7-0.9
							c-1.6-0.8-2.7-2.2-4.2-3.1C105.3,99.5,105.2,99.2,105.2,98.9z"/>
						<path class="st10" d="M105.5,99.1c0.8,0,1.5,0.3,2.3,0.4c0.7,0.1,1.5,0.3,2.2,0.3c0.9,0.1,1.8,0.4,2.7,0.7
							c0,0,0.1,0.1,0.2,0.1c0.2,0.1,0.4,0.4,0.6,0.4s0.4-0.1,0.6-0.2c0,0,0.1,0,0.2,0c0.6,0,1.3,0.2,1.5,0.8
							c0.1,0.6-0.2,1.2-0.7,1.6c0.1-0.3,0.3-0.6,0.4-0.9c-0.6,0.4-0.9,1-1.6,1.2c0.2-0.4,0.5-0.8,0.6-1.3c-0.3,0.3-0.5,0.6-0.8,1
							s-0.8,0.3-1.2,0.4c0.4-0.4,0.8-0.9,0.8-1.6c-0.5,0.3-0.7,0.9-1.1,1.3c-0.3,0.3-0.6,0-0.9,0c0.4-0.4,0.8-0.9,0.9-1.5
							c-0.1,0-0.2,0-0.3,0c-0.3,0.5-0.6,1-1,1.4c-0.5-0.3-1.1-0.5-1.7-0.8c0.1-0.3,0.2-0.5,0.4-0.8c-0.1,0-0.2,0-0.3-0.1
							c-0.1,0.2-0.3,0.4-0.4,0.6c-0.3-0.2-0.6-0.4-0.8-0.6c0-0.1,0-0.3,0-0.4c-0.2,0-0.3,0.1-0.5,0s-0.3-0.4-0.4-0.6
							C106.6,100.2,106.1,99.6,105.5,99.1z"/>
						<g>
							<path class="st11" d="M102.4,76.8c1.3,0.4,2.7,0.9,3.7,2c0.3,0.3,0.4,0.6,0.6,0.9c0.1,0,0.2,0,0.3,0
								c-0.1-0.6-0.4-1.2-0.9-1.6c-1-1-2.4-1.7-3.7-1.9c-0.5,0-1.3,0.1-1.5,0.7C101.3,76.8,101.8,76.6,102.4,76.8z"/>
							<path class="st11" d="M118.5,86.4c-0.4,0.4-0.6,0.9-0.8,1.4c-0.3,0.7-0.5,1.4-0.6,2.2c0,0.6-0.1,1.3,0,1.9
								c0.2,0.9,0.7,1.8,1,2.7c0.1,0.3,0.2,0.8-0.1,1.1c-0.7,0.4-1.5,0.7-2.3,0.8c-0.3,0.1-0.7,0.1-0.9,0.4c0.1,0.2,0.3,0.3,0.5,0.3
								c0.8,0,1.5-0.4,2.2-0.7c0.5-0.1,1-0.4,1.2-0.8c0.3-0.4-0.1-0.9-0.2-1.4c-0.2-0.7-0.6-1.3-0.8-2c-0.4-2,0-4.1,1.2-5.8
								c0.3-0.3,0.4-0.8,0.5-1.1C119.1,85.5,118.8,85.9,118.5,86.4z"/>
							<path class="st11" d="M129,87.8c-0.7-0.5-1.5-0.9-2.4-1.2c-0.8-0.3-1.7-0.2-2.4,0c1.5,0.1,2.9,0.5,4.3,1.2
								c0.4,0.2,0.6,0.6,1.1,0.7C129.5,88.3,129.3,88,129,87.8z"/>
							<path class="st11" d="M114.3,94.6c-0.4,0-0.8,0.4-0.7,0.8c0.4,0.3,1.1,0,1.3-0.4C115,94.7,114.6,94.6,114.3,94.6z"/>
							<path class="st11" d="M112.8,97.3c-0.5,0.9-0.3,2.1-0.2,3.2c0,0,0.1,0.1,0.2,0.1c0-0.5-0.1-1-0.1-1.4
								C112.7,98.6,112.9,98,112.8,97.3z"/>
							<path class="st11" d="M114.1,97.5c-0.4,1.1-0.3,2.3,0,3.4c0,0,0.1,0,0.2,0c0-0.7-0.2-1.4-0.2-2.1
								C114.1,98.4,114.2,97.9,114.1,97.5z"/>
							<path class="st11" d="M107,114.8c-0.5,0.1-1.1,0-1.6,0c-0.8-0.1-1.7-0.3-2.5-0.6c-1-0.4-1.9-0.9-2.8-1.4
								c-1.4-0.8-2.6-1.9-3.7-2.9c-1.4-1.3-2.7-2.7-3.9-4.2c-1.3-1.7-2.5-3.4-3.7-5.2c-0.3-0.6-0.7-1.2-1-1.8c-0.5-1-1-2-1.5-3
								c-0.4-1.1-0.9-2.1-1.6-3c0.1,0.6,0.4,1.1,0.5,1.7c0.2,0.7,0.4,1.5,0.8,2.1c0.7,1.2,1.3,2.5,1.9,3.7c0.6,1.1,1.1,2.2,1.8,3.1
								c0.6,0.8,1,1.6,1.7,2.4c0.5,0.7,1,1.3,1.6,1.9s1.1,1.3,1.7,1.9c1.3,1.2,2.6,2.6,4.1,3.6c0.9,0.6,1.9,1,2.8,1.5
								c1,0.5,2.1,0.7,3.2,0.9c0.4,0.1,0.8,0,1.2,0c0.4,0,0.7,0,1.1,0c0.7-0.1,1.5-0.2,2.2-0.4c0.7-0.2,1.3-0.4,1.8-0.9
								c-0.7,0.2-1.5,0.4-2.2,0.5C108.4,114.6,107.7,114.6,107,114.8z"/>
						</g>
						<path class="st12" d="M105.4,99.8c1.5,0.9,2.6,2.3,4.2,3.1c0.8,0.4,1.7,0.9,2.7,0.9c0.8,0,1.7,0.1,2.4-0.2
							c0,0.6-0.3,1.2-0.7,1.6c-0.6,0.4-1.3,0.7-2.1,0.8c-1.2,0.2-2.5-0.3-3.4-1.1c-0.9-0.6-1.5-1.4-2.1-2.3
							C106.1,101.7,105.6,100.8,105.4,99.8z"/>
					</g>
					<g>
						<path class="st1" d="M132.6,49.4c-0.1-2.4-0.3-4.8-1.1-7c-0.2-0.6-0.5-1.2-0.9-1.7c0.2,0,0.3-0.1,0.5-0.1
							c-0.5-0.4-0.9-0.8-1.4-1.2c-1.3-0.3-2.5-0.8-3.8-1c-1-0.1-1.9-0.1-2.9-0.2c-1-0.1-2.1,0-3.1,0.1c-1.2,0.2-2.5,0.4-3.6,0.9
							c-0.9,0.4-1.8,0.7-2.6,1.2c-0.9,0.5-1.8,0.9-2.7,1.6c-2.4,1.7-4.1,4-5.5,6.5c-0.4,0.7-0.8,1.4-1.2,2.1c-0.1,0.2,0,0.4,0.1,0.6
							c0.2-0.4,0.4-0.7,0.5-0.9c0.7-1.2,1.6-2.6,2.7-3.5c0.1-0.2,0.3-0.4,0.4-0.5c0.8-1.2,2-2.2,3.1-3.1c0.7-0.6,1.4-1,2.2-1.4
							c0.5-0.3,1-0.5,1.6-0.7c-0.9,1.1-1.7,2.2-2.4,3.4c-1.4,2.5-2.6,5.1-3.6,7.8c-0.3,0.8-0.5,1.6-0.8,2.5v0.1c0.1,0,0.2,0,0.3,0
							c0.1-0.2,0.1-0.5,0.2-0.7c0.9-2.7,1.9-5.3,3.3-7.8c0.7-1.3,1.5-2.6,2.4-3.8c0.4-0.4,0.7-0.9,1.1-1.3c0.3-0.4,0.8-0.6,1.2-0.7
							c0.8-0.2,1.5-0.5,2.3-0.7c-0.4,0.9-1,1.8-1.4,2.7c-1.2,2.5-2.3,5.1-3.2,7.8c-0.6,1.7-1.2,3.5-1.6,5.3c0.1,0,0.2,0.1,0.3,0.2
							c0.1-0.5,0.3-0.9,0.4-1.4c0.9-3.1,2.1-6.2,3.3-9.1c0.8-1.8,1.6-3.6,2.6-5.3c0.1-0.2,0.3-0.4,0.5-0.4c0.7-0.1,1.5-0.2,2.2-0.3
							c-1.7,3.9-2.9,8-3.9,12.1c-0.4,1.7-0.8,3.4-1.1,5.1c0.1,0,0.3,0,0.4,0.1c0.6-3.3,1.5-6.5,2.5-9.6c0.8-2.6,1.6-5.2,2.6-7.7
							c0.7,0,1.4,0,2.1,0.1c0,1.3-0.1,2.7-0.3,4.1c-0.2,1.9-0.4,3.8-0.8,5.7c-0.5,3-1.2,5.9-2,8.9c0.1,0,0.1,0,0.2,0.1
							c0.9-3.5,1.8-7,2.5-10.6c0.4-2.7,0.9-5.4,0.8-8.1c0.9,0.1,1.8,0.3,2.7,0.5c0.6,1.7,0.8,3.4,0.8,5.2c0,2.5-0.2,5-0.5,7.5
							s-0.6,4.9-1,7.4c0,0.1,0,0.3-0.1,0.4c0.1,0,0.2,0,0.3,0l0,0c0-0.2,0.1-0.4,0.1-0.7c0.5-2.6,0.9-5.3,1.2-7.9
							c0.3-2.2,0.5-4.5,0.5-6.7c0-1.1-0.1-2.3-0.3-3.4c-0.1-0.6-0.4-1.1-0.5-1.7c0.5,0.1,1,0.2,1.5,0.4c0.2,0,0.3,0.3,0.4,0.4
							c0.9,1.7,1.3,3.6,1.6,5.5c0.3,2.3,0.4,4.6,0.3,6.8c-0.1,2.2-0.2,4.4-0.4,6.6c-0.1,0.7-0.2,1.4-0.3,2.1c0,0.3-0.1,0.6-0.2,0.9
							l0,0c0.1,0,0.2,0,0.3,0c0,0,0-0.1,0-0.2c0.5-1.8,0.7-3.7,0.8-5.5c0.1-1.4,0.2-2.8,0.3-4.2C132.5,51.7,132.6,50.5,132.6,49.4z"
							/>
						<path class="st1" d="M135.3,49.8c0.2,1.1,0.2,2.3,0.3,3.4c0,2.1,0.1,4.1-0.2,6.2c0.1,0.6,0.1,1.2,0,1.7l0,0c0,0.4,0,0.7,0,1.1
							c0-0.1,0.1-0.2,0.3-0.3c0.1-1.3,0.1-2.7,0.4-4.1c0.4-2.3,0.3-4.7,0.1-7c-0.1-1-0.3-2.1-0.6-3.1c-0.3-0.8-0.5-1.6-0.9-2.3
							c-0.5-1-1-2-1.7-2.9c-0.4-0.4-0.8-0.9-1.2-1.3c0,0.5,0.4,0.9,0.7,1.3c0.8,1.1,1.4,2.2,2,3.3c0.1,0.4,0.2,0.7,0.4,1.1
							C135,47.9,135.1,48.8,135.3,49.8z"/>
						<path class="st1" d="M137.1,47.6c-0.1-0.2-0.4-0.5-0.2-0.8c0.4,0.6,0.8,1.3,1.2,2c0.3,0.5,0.6,1,0.9,1.5
							c0,0.7,0.2,1.5,0.3,2.2c0.3,3.3,0,6.6-0.7,9.8c-0.2,0.8-0.3,1.6-0.8,2.2c0.1-0.8,0.4-1.5,0.5-2.2c0.4-2,0.6-3.9,0.6-5.9
							c0-1.2,0-2.5-0.1-3.7C138.4,50.9,138.1,49.1,137.1,47.6z"/>
						<path class="st2" d="M85.2,95.7C85.3,95.8,85.3,95.8,85.2,95.7L85.2,95.7z"/>
					</g>
					<g>
						<path class="st13" d="M110.1,119.2c-0.6,0.4-1.2,0.7-1.9,1.1C108.9,120,109.7,119.9,110.1,119.2z"/>
						<path class="st13" d="M81.4,124.6c0.6,0.4,1.2,0.7,1.7,1.2c0.4,0.4,1.1,0.6,1.6,0.9c0.1-0.1,0.2-0.2,0.3-0.3
							c-0.4-0.4-0.9-0.7-1.4-1.1c-1.1-0.7-2.1-1.5-3-2.3c-0.3-0.2-0.6-0.5-0.9-0.6s-0.5,0.1-0.7,0.2C79.6,123.5,80.6,124,81.4,124.6
							z"/>
						<path class="st13" d="M79.6,127.2c0.5,0.5,1.1,0.9,1.7,1.4c0.8,0.6,1.6,1.2,2.4,1.8c0-0.1,0.1-0.2,0.2-0.3
							c-0.1-0.1-0.1-0.1-0.2-0.2v-0.2c-0.6-0.4-1.3-0.8-1.8-1.3c0-0.1,0.1-0.2,0.1-0.4c-0.4-0.4-0.9-0.8-1.3-1.2
							c-0.6-0.6-1.1-1.3-1.7-2c-0.2-0.2-0.4-0.2-0.7-0.2c0.1,0.7,0.5,1.2,0.9,1.7C79.3,126.6,79.4,127,79.6,127.2z"/>
						<path class="st13" d="M131.7,190.3c-0.1-0.9-0.3-1.9-0.8-2.7c-0.4-0.8-0.8-1.7-1.2-2.5c-0.9-1.4-1.5-3-2.1-4.6
							c-0.5-1.3-0.9-2.6-1.2-3.9c-0.1-0.5-0.3-1-0.2-1.6c0.2-0.5,0.6-0.9,0.8-1.4c0.5-0.9,0.9-1.9,1.3-2.9c0.4-0.9,0.4-1.9,0.6-2.8
							c0.2-1,0.3-2.1,0.3-3.1c-0.5,2-1.2,4-1.8,6c-0.4,1.1-0.8,2.3-1.4,3.3c-0.2-1.3-0.2-2.5-0.1-3.8c0-1,0.2-2.1,0-3.1
							c-0.2-1.1-0.4-2.1-0.3-3.2c-0.3,2.6-0.4,5.3-0.4,7.9c0,1.2,0.2,2.4,0.2,3.6c0,0.9,0.4,1.7,0.6,2.6c0.5,1.9,1.1,3.9,1.9,5.7
							c0.5,1.1,1.2,2.1,1.8,3.1c0.3,0.6,0.5,1.2,0.7,1.9c0.4,1.1,0.5,2.3,0.6,3.5s-0.2,2.3-0.5,3.4c-0.2,0.7-0.5,1.4-0.7,2.1
							c-0.2,0.5-0.4,0.9-0.7,1.3c-0.3,0.3-0.6,0.6-0.8,1c-0.4,0.9-1,1.7-1.6,2.5c-0.3,0.3-0.4,0.7-0.7,1.1c-0.3,0.6-0.7,1.2-1.2,1.7
							c0.1,0,0.2,0,0.3,0c0.2-0.2,0.4-0.5,0.6-0.7c0,0.3-0.1,0.5-0.1,0.8c0.5-0.7,0.7-1.6,1.2-2.2c0.6-0.9,1.3-1.9,2.1-2.8
							c0.4-0.4,0.7-0.8,0.9-1.3c0.4-0.9,1.1-1.8,1.4-2.8c0.3-0.9,0.5-1.8,0.6-2.7C132.1,192.4,131.9,191.3,131.7,190.3z"/>
						<path class="st13" d="M51.7,188c0.8-1.2,0.9-2.6,1.2-3.9c0.5-2.9,0.7-5.8,0.6-8.7c0-1.1,0-2.2-0.1-3.3c-0.1,0-0.2,0-0.3,0
							c-0.2,1.5,0,3-0.2,4.6c-0.2,0.8-0.3,1.7-0.4,2.6c-0.2,1.3-0.4,2.7-0.7,4c-0.1,0.8-0.3,1.5-0.5,2.2c-0.4,1.2-0.8,2.4-1.1,3.6
							c-0.3,0.8-0.4,1.7-0.8,2.5c-0.1,0.2-0.3,0.5,0,0.6c0.2,0.1,0.4-0.1,0.6-0.3c0.5-0.7,0.8-1.4,1.2-2.1
							C51.3,189.1,51.4,188.6,51.7,188z"/>
						<path class="st13" d="M56.7,178.9c-0.5,1.7-1.3,3.2-2,4.9s-1.4,3.5-2.5,5.2c-0.3,0.7-0.8,1.3-1.2,2.1
							c-0.3,0.4-0.6,0.8-0.8,1.3c0.4-0.4,0.8-0.8,1.2-1.2c0.7-0.7,1.1-1.6,1.7-2.5c1-1.6,1.7-3.3,2.4-5.1c0.8-2,1.5-4.1,2-6.2
							c-0.1,0-0.2,0-0.3,0C57,177.8,56.9,178.3,56.7,178.9z"/>
						<path class="st13" d="M82.9,208.5c-1.1-0.4-2.2-0.9-3.3-1.4c-0.8-0.4-1.5-0.9-2.1-1.4c-1.4-1.1-2.7-2.2-3.9-3.5
							c-1.2-1.3-2.2-2.7-3.1-4.2c-1-1.6-2-3.2-2.9-4.9h-0.1c0.3,0.8,0.6,1.7,0.9,2.5c0.4,1.7,1.5,3,2.2,4.6c0.5,1.1,1.5,1.9,2.3,2.8
							c1.6,1.6,3.4,3.2,5.5,4.1c1,0.4,1.9,0.9,2.9,1.2c1.1,0.4,2.2,0.7,3.3,1c0.3,0,0.6,0,0.9,0c0,0,0-0.1,0-0.2
							C84.6,208.8,83.7,208.7,82.9,208.5z"/>
					</g>
					<path class="st14" d="M78.8,67.3c-0.8-1.8-2-3.7-3.9-4.5c-0.3-0.1-0.4,0.4-0.1,0.5c1.8,0.7,2.9,2.8,3.7,4.5
						c0.8,2,1.2,4.1,1.2,6.2c0,0.3,0.5,0.3,0.5,0C80.3,71.6,79.8,69.4,78.8,67.3z"/>
				</g>
			</g>
		</g>
	</g>
</g>
</svg>
