<svg xmlns="http://www.w3.org/2000/svg" viewBox="0 0 250 250" style="enable-background:new 0 0 250 250" xml:space="preserve"><path d="m138 94.1-6.3 10.9-21.6-37.4-66.2 114.8h44.9c0 6 4.9 10.9 10.9 10.9H43.9c-3.9 0-7.5-2.1-9.5-5.5s-2-7.5 0-10.9l66.2-114.7c2-3.4 5.6-5.5 9.5-5.5 3.9 0 7.5 2.1 9.5 5.5L138 94.1z" style="fill:#00c58e"/><path d="M185.9 176.9 144.4 105 138 94.1l-6.3 10.9-41.5 71.9c-2 3.4-2 7.5 0 10.9 2 3.4 5.6 5.5 9.5 5.5h76.7c3.9 0 7.5-2.1 9.5-5.5 1.9-3.3 1.9-7.5 0-10.9zm-86.2 5.5 38.4-66.4 38.3 66.4H99.7z" style="fill:#2f495e"/><path d="M215.6 187.8c-2 3.4-5.6 5.5-9.5 5.5h-29.7c6 0 10.9-4.9 10.9-10.9H206l-53.2-92.1-8.5 14.8-6.3-11 5.4-9.3c2-3.4 5.6-5.5 9.5-5.5s7.5 2.1 9.5 5.5l53.2 92.1c1.9 3.4 1.9 7.5 0 10.9z" style="fill:#108775"/></svg>