<svg xmlns="http://www.w3.org/2000/svg" viewBox="0 0 500 500"><rect x="211.37" y="148.68" width="77.51" height="118.91" fill="#1d2438"/><path d="M128.26,246.63l-24.49-42.34s-16.16-14.11-8.51-41.71S133.89,135,138.63,135h33.62s11.93.31,16.29,2.08c0,0,2.28-2,13.59-2l16.76-.05s30.07-.31,30.61,15.41l-.16,104.12-117.76-.62Z" fill="#363d5b"/><path d="M371.74,246.65l24.49-42.33s16.16-14.11,8.51-41.71S366.11,135,361.37,135H327.75s-11.93.31-16.29,2.07c0,0-2.28-2-13.59-2L281.11,135S251,134.7,250.5,150.42l.16,104.12,117.76-.62Z" fill="#363d5b"/><rect x="187.98" y="136.85" width="0.87" height="104.66" fill="#1d2438"/><rect x="311.15" y="136.88" width="0.87" height="104.66" fill="#1d2438"/><path d="M399.47,267.29l-10.64-59s-44.22,23.12-139,23.82l0-.06c-95.33-.58-139.8-23.84-139.8-23.84l-10.64,59H234.94l0,.07Z" fill="#283049" opacity="0.4"/><rect x="104.18" y="261.15" width="291.57" height="18.26" fill="#1d2438"/><path d="M432.44,253.14s-4,30.5-26.61,58.68l-23.35-.32,13.23-43.89S414.86,269.33,432.44,253.14Z" fill="#bd9e85"/><path d="M67.56,253.11s4,30.51,26.61,58.68l23.35-.31-13.23-43.89S85.14,269.3,67.56,253.11Z" fill="#bd9e85"/><path d="M438.54,360.41C429.82,311.39,395,300,395,300l-144.7,8.2L105.09,300s-34.86,11.36-43.58,60.39c0,0-1,4.67,4.36,4.59l30.27-.08s6.15-36.63,53.41-36.63h95.73v0H350.5c47.26,0,53.41,36.63,53.41,36.63l30.27.07C439.55,365.08,438.54,360.41,438.54,360.41Z" fill="#fcd2b1"/><path d="M105.09,300S70.23,311.37,61.51,360.4c0,0-1,4.67,4.36,4.59l30.27-.08a45.48,45.48,0,0,1,25.48-31.06Z" fill="#fcd2b1"/><path d="M438.54,360.43C429.82,311.4,395,300,395,300l-17.19,33.55a45.54,45.54,0,0,1,26.14,31.35l30.27.08C439.55,365.1,438.54,360.43,438.54,360.43Z" fill="#fcd2b1"/><polyline points="106.05 313.35 108.8 301.21 102.42 266.65 94.95 267.28 103.51 313.04" fill="#bd9e85"/><polyline points="393.85 313.74 391.1 301.6 397.48 267.04 404.95 267.67 396.39 313.42" fill="#bd9e85"/><path d="M103.72,203.62s17.43,5.39,31.33,41.71l.42,1.45-7.68,2.29Z" fill="#283049"/><path d="M395.85,204.09s-17.43,5.39-31.33,41.71l-.42,1.45,7.68,2.28Z" fill="#283049"/><path d="M65,242.71s15.53,26.54,38.82,26.54l-1.44-22Z" fill="#917460"/><path d="M72.61,250.47s6.62,10.81,18.6,11l.24,7.23s-20.86-3-27.94-23.11Z" fill="#fcd2b1"/><path d="M97.54,255.14s-10.48-2.08-20.64-3.43c0,0-32.69-3.63-32.69-29.05S76.58,193.29,89,196.82s29.27,12.45,42.75,49Z" fill="#4f5c84"/><path d="M71.08,242.27c-19.72-2.75-24.22-8.46-24.65-9.07,7.35,15.94,30.47,18.51,30.47,18.51,10.16,1.35,20.64,3.43,20.64,3.43l10.84-3C98.69,248.09,87.88,244.61,71.08,242.27Z" fill="#314160"/><path d="M433,245.37s-14,23.9-35,23.9l1.31-19.84Z" fill="#917460"/><path d="M427.39,250.49s-6.62,10.82-18.6,11.05l-.24,7.24s20.86-3,27.94-23.11Z" fill="#fcd2b1"/><path d="M402.46,255.16s10.48-2.07,20.64-3.42c0,0,32.69-3.63,32.69-29.05S423.42,193.32,411,196.85s-29.27,12.45-42.75,49Z" fill="#4f5c84"/><path d="M429,242c19.76-2.8,24.27-8.63,24.7-9.26-7.37,16.28-30.53,18.91-30.53,18.91-10.19,1.37-20.69,3.49-20.69,3.49l-10.86-3C401.34,248,412.16,244.41,429,242Z" fill="#314160"/><path d="M405,253.09l5.13-.06a1.62,1.62,0,0,1,1.61,1.67c.06,1.66-4.72,41.86-9.91,58.26,0,0-.63,1.81-1.8,1.81l-4.71,0a1.72,1.72,0,0,1-1.36-2.14c.31-1.87,3-5.68,9.53-57C403.49,255.63,403.55,253.23,405,253.09Z" fill="#fcd2b1"/><path d="M95,253.06,89.87,253a1.62,1.62,0,0,0-1.61,1.66c-.06,1.66,4.72,41.87,9.91,58.26,0,0,.63,1.82,1.8,1.82l4.71,0a1.73,1.73,0,0,0,1.36-2.14c-.31-1.87-3-5.69-9.53-57C96.51,255.6,96.45,253.2,95,253.06Z" fill="#fcd2b1"/><path d="M452.46,235.21a22.19,22.19,0,0,0,1.42-2.86c-5.21,6-17.11,7.9-29.72,9.89l-5,.81a107.76,107.76,0,0,0-26.72,8.42l.56,1.11a106.21,106.21,0,0,1,26.36-8.29l5-.81c11.23-1.79,21.9-3.48,28.09-8.12Z" fill="#1d2438"/><path d="M47.69,235.53a22.81,22.81,0,0,1-1.42-2.87c5.2,6,17.11,7.9,29.72,9.9l5,.81a107.34,107.34,0,0,1,26.71,8.41l-.55,1.11a106.38,106.38,0,0,0-26.37-8.29c-1.67-.28-3.35-.55-5-.81-11.22-1.78-21.9-3.48-28.09-8.12Z" fill="#1d2438"/><path d="M96.86,258.32l1.44,10.4s.77,3.82,6.3,3.93l113.23.08s31.57.75,31.59-6.89v-12.1s-.15-3.33-5.21-5.45-24.64-7.89-59.09-7.89-73.05,8.88-85,12.71A4.59,4.59,0,0,0,96.86,258.32Z" fill="#6475a0"/><path d="M175.3,259.68c-26.54,0-70.23.65-78.13.77l1.16,8.81s.78,4,6.31,4.12l113.23.08s31.57.79,31.59-7.21v-5.81C241,260.31,201.34,259.68,175.3,259.68Z" fill="#314160"/><path d="M403.14,258.34l-1.44,10.4s-.77,3.82-6.3,3.94l-113.23.07s-31.57.76-31.59-6.88v-12.1s.15-3.33,5.21-5.45,24.64-7.89,59.09-7.89,73.05,8.87,85,12.71A4.59,4.59,0,0,1,403.14,258.34Z" fill="#6475a0"/><path d="M324.7,259.71c26.54,0,70.23.65,78.13.77l-1.16,8.81s-.78,4-6.31,4.12l-113.23.08s-31.57.79-31.59-7.21v-5.81C259,260.33,298.66,259.71,324.7,259.71Z" fill="#314160"/><path d="M97.18,261.07l0-1.24c.69,0,68.66-.85,87.55-.65,19.09.21,64.76.64,64.76.64v1.25s-45.67-.44-64.77-.64C165.83,260.23,97.86,261.07,97.18,261.07Z" fill="#1d2438"/><path d="M402.81,261.13v-1.25c-.68,0-68.66-.85-87.54-.65-19.09.21-64.76.64-64.76.64v1.25s45.67-.43,64.76-.64C334.16,260.28,402.12,261.12,402.81,261.13Z" fill="#1d2438"/><path d="M104.42,297.94c0,.06,0,.11,0,.17a10.11,10.11,0,0,0,5.22,7.23c4.67,2.47,45.26,12.63,92.53,12.32l17.08-.08h52.3l26.24.13c47.27.31,87.86-9.85,92.53-12.31a10.13,10.13,0,0,0,5.22-7.24l0-.22Z" fill="#bd9e85"/><path d="M396.22,275H251.83V275H233.78v0h-130s-4.82.26-4.2,4.8a142.46,142.46,0,0,0,4.86,19.73s.55,2.27,5.22,3.45,45.26,6,92.53,5.86l17.08,0h52.3l26.24.06c47.27.15,87.86-4.69,92.53-5.87s5.22-3.44,5.22-3.44a142.46,142.46,0,0,0,4.86-19.73C401,275.27,396.22,275,396.22,275Z" fill="#283049"/></svg>