<svg xmlns="http://www.w3.org/2000/svg" viewBox="0 0 500 500"><path d="M493.15,213.1a12.47,12.47,0,0,0-5.95-6.47c-4.77-2.64-15.38-7.31-15.38-7.31s-1.66-.92-5.9-1H449.53s-20.38,72-20.38,72.17,15.5,2.19,15.5,2.19l36.11-50.54Z" fill="#8d56db"/><path d="M6.85,213.15a12.47,12.47,0,0,1,6-6.47c4.77-2.63,15.38-7.3,15.38-7.3s1.66-.93,5.9-1H50.47s20.38,72,20.38,72.16-15.5,2.19-15.5,2.19L19.24,222.17Z" fill="#8d56db"/><path d="M61.46,270.39s-10.86-47.63-12.05-50,2.14-12.58,9.38-13.57S72,244.36,72,244.36l-5.32,20.07" fill="#7241bf"/><path d="M438.06,268.66s10.85-47.64,12-50.05S448,206,440.72,205s-13.2,37.59-13.2,37.59l5.31,20.07" fill="#7241bf"/><polygon points="436.48 267.55 449.02 206.13 423.01 217.04 395.54 251.59 405.55 265.08 436.48 267.55" fill="#6128b2"/><path d="M57.67,205.84s-1.93,3.31,0,13.67,8.89,45.7,8.89,45.7L99.1,253.75Z" fill="#166f74"/><path d="M75.66,255s-4.6-39.68-7.3-58.44-11.51-46-3.83-47.9,27,2.93,34.13,3.73,30,2.88,40.15,2.64,36.29-4.2,38.85-.64,1.74,31.37,1.74,31.37L167.82,257.2l-92.21-1.4" fill="#2c2b2d"/><path d="M77.16,253.49s2.87-39.4,1.09-52.33S69.33,161.33,73.06,159s17.48,2,29.46,3.33,34,4.13,49.28,1.6,31,10.33,31,10.33,3.94,28.19,3.87,29.67-11,38.12-10.06,38.79-9.55,18.19-9.55,18.19l-18.89,7.21-72.86-7Z" fill="#343435"/><path d="M141.33,239.25s23.41,1.69,23.13-35.43l3.41,55.78h-52Z" fill="#2c2b2d"/><path d="M163.33,254.07s-5.18-79.9-7.28-89.7-2.31-14.48,2.6-16.93,13.09-.63,18.1-.67,31.59,3.58,50.74,3.7,38.44-.77,38.44-.77,7.37-1.27,7.31,5.65-1.59,18.75-1.63,22-6.16,73-6.16,73Z" fill="#e6e7e8"/><path d="M272.74,161.78c.83-9.29-12.61-5.28-15.79-4.51s-35.65,3.3-60.68-.37-29-4.36-31.49.18,10.16,27.61,12.16,48.61c1.74,18.27-3.46,42.16-4.84,48.06l93.16-3.47s6.13-69.75,6.17-73c0-2.34.84-9.22,1.31-15.47Z" fill="#fff"/><path d="M187.84,252.68S257.77,253.85,241,195l23.16,51.58.49,11.29-30.34-1.42L188,255.14" fill="#d1d3d4"/><path d="M250.73,253.2s-6.45-41.09-10-60.5-13.59-47.38-6.08-49.68,26.82,1.9,34,2.43,29.86,1.71,39.87,1,35.73-5.92,38.44-2.32,3.22,32.57,3.22,32.57l-8.05,74.85-91.36,2.47" fill="#787a7a"/><path d="M252.15,251.59s.95-41.13-1.43-54.51S240,156,243.57,153.41s17.4,1.34,29.32,2.22,33.85,2.85,48.87-.44S353,164.62,353,164.62s5.24,29.17,5.24,30.71-9.06,40.14-8.1,40.8-8.59,19.33-8.59,19.33l-18.35,8.31-72.47-4.17Z" fill="#878888"/><path d="M302.45,251.26s17.88-8.77,17.64-24.56c0,0,10,8.77,10.25,14.91s0,13.85,0,13.85l-7.63,4.14-13.35-1.54Z" fill="#787a7a"/><path d="M320.8,253.2s-1.66-80-3.33-89.9-1.67-14.55,3.33-16.81,13.12-.15,18.12,0,31.41,4.75,50.54,5.57,38.44.66,38.44.66,7.42-1,7.06,5.92-2.41,18.68-2.59,21.88S423,253.2,423,253.2Z" fill="#2c2b2d"/><path d="M434.18,165c1.24-9.24-12.37-5.74-15.59-5.08s-35.75,2-60.61-2.63-28.78-5.43-31.46-1,8.94,28,10,49c.93,18.33-5.31,42-6.94,47.84h93.23s9.18-69.47,9.36-72.68c.13-2.33,1.25-9.18,2-15.4A.19.19,0,0,0,434.18,165Z" fill="#343435"/><path d="M399.65,176.58s15,1.48,42.91-4c0,0,22.71-5.76,18.78,7.24,0,0-12.52,25.66-12.7,27.14s-11.08,44.58-12.16,46.56-5.9,4.6-14.84,2-58.46-2.8-58.46-2.8-.72-6.91,6.79-26.81,15-35.37,15-35.37S388.21,175.26,399.65,176.58Z" fill="#fff"/><path d="M457.68,173.37c-4.17-.33-15.85,8.23-25,21.5s-10,22-9.54,32.13,3.49,31.5,12,28.1a4.28,4.28,0,0,0,1.42-1.45c1.08-2,12-45.07,12.16-46.55S461.37,180,461.37,180a10,10,0,0,0,.42-2.08C461.65,176.62,461,173.63,457.68,173.37Z" fill="#d1d3d4"/><path d="M385.6,253.2c-24.15-1.08-16-26.23-14.16-31.09-.5,1.3-1,2.61-1.51,3.95-7.51,19.91-6.8,26.82-6.8,26.82s10.37,0,22.47.32Z" fill="#d1d3d4"/><path d="M75.85,257.06s3-7.11,25.4-7.33,301.08-.44,301.08-.44,20,.19,31,13.69-59,29.08-59,29.08H310.79L126.52,274.73l-44.58-11Z" fill="#9b7b80"/><rect x="62.53" y="298.64" width="374.13" height="47.71" fill="#6128b2"/><path d="M66.56,346.35h-44a23.32,23.32,0,0,1-5-11.19C16.86,328.91,6.85,213.1,6.85,213.1s1.25-1.81,5.18-1.81H34.38s8.58-.33,12,11.35c0,0,9.63,28.84,16.17,54.94l4.15,17.55Z" fill="#6f34c1"/><path d="M433.44,346.35h44a23.32,23.32,0,0,0,5-11.19c.71-6.25,10.72-122.06,10.72-122.06s-1.25-1.81-5.18-1.81H465.62s-8.58-.33-12,11.35c0,0-9.63,28.84-16.17,54.94l-4.15,17.55Z" fill="#6f34c1"/><path d="M441.13,294.89c0,3.44-3.21,6.22-7.17,6.22H67.48c-4,0-7.17-2.78-7.17-6.22V273.76c0-3.43,3.21-6.21,7.17-6.21H434c4,0,7.17,2.78,7.17,6.21Z" fill="#6128b2"/><rect x="69.73" y="301.11" width="361.4" height="45.24" fill="#6f34c1"/><path d="M424.7,256.36s-5-4.77-20.2-4.77H97c-15.2,0-20.21,4.77-20.21,4.77L62.53,267.29l16.55,5.36h343.3l16.55-5.36Z" fill="#c3bdc6"/><path d="M440.6,292.43c0,3.43-3.21,6.21-7.16,6.21H68c-3.95,0-7.15-2.78-7.15-6.21V271.3c0-3.44,3.2-6.22,7.15-6.22H433.44c3.95,0,7.16,2.78,7.16,6.22Z" fill="#9b7b80"/><path d="M100.45,175s-15,2-43.05-2.38c0,0-22.94-4.93-18.45,7.92,0,0,13.62,25.18,13.86,26.66s13,44.14,14.15,46.07,6.1,4.39,14.92,1.43,58.29-4.92,58.29-4.92.42-6.93-7.94-26.55-16.53-34.79-16.53-34.79S111.82,173.22,100.45,175Z" fill="#878888"/><path d="M42.33,173.87c4.15-.48,16.19,7.64,25.93,20.56s11,21.66,10.92,31.76-2.12,31.6-10.77,28.52a4.47,4.47,0,0,1-1.48-1.4c-1.16-1.93-13.92-44.6-14.16-46.07s-13.85-26.66-13.85-26.66a10.37,10.37,0,0,1-.51-2.07C38.5,177.25,39.05,174.25,42.33,173.87Z" fill="#787a7a"/><path d="M117.79,251c24.08-2,14.83-26.79,12.81-31.58.56,1.28,1.12,2.57,1.68,3.89,8.36,19.62,7.95,26.55,7.95,26.55s-10.36.41-22.44,1.14Z" fill="#787a7a"/></svg>