<svg xmlns="http://www.w3.org/2000/svg" viewBox="0 0 500 500"><rect x="87.27" y="189.6" width="320.02" height="61.82" fill="#4d4948"/><path d="M50.21,248.67,15.9,237.07a2.84,2.84,0,0,0-3.52,1.59,20.25,20.25,0,0,0-1.63,5.62c-1.28,11.77,3,22.1,7.91,36.12l12.72,34.73c4.15,10.15,7.92,18.34,10.66,24.08H58.21Z" fill="#ada7a6"/><polygon points="50.45 248.67 93.77 223.78 93.77 314.44 53.6 330.07 50.45 248.67" fill="#736d6c"/><path d="M16,237.44a1.5,1.5,0,0,1-.26-2.78A229.28,229.28,0,0,1,85.38,212c8.59,1,17.19,4.13,25.79,5.16C90.76,228,70.36,237.86,50,248.75,38.63,245.33,27.32,240.87,16,237.44Z" fill="#cecdcb"/><path d="M449.79,248.67l34.31-11.6a2.84,2.84,0,0,1,3.52,1.59,20.25,20.25,0,0,1,1.63,5.62c1.28,11.77-3,22.1-7.91,36.12l-12.72,34.73c-4.15,10.15-7.92,18.34-10.66,24.08H441.79Z" fill="#ada7a6"/><polygon points="430.09 334.05 430.09 338 385.73 338 381.26 333.79 430.09 334.05" fill="#fcd2b1"/><polygon points="450.51 248.67 408.15 227.43 408.15 314.44 442.36 339.21 450.51 248.67" fill="#736d6c"/><path d="M484,237.44a1.5,1.5,0,0,0,.26-2.78A229.28,229.28,0,0,0,414.62,212c-8.59,1-17.19,4.13-25.79,5.16,20.41,10.89,40.81,20.75,61.22,31.64C461.37,245.33,472.68,240.87,484,237.44Z" fill="#cecdcb"/><rect x="47.72" y="263.37" width="400.84" height="34.05" rx="5" fill="#baaeaf"/><path d="M52.36,297.42H446.49a0,0,0,0,1,0,0V331a3.34,3.34,0,0,1-3.34,3.34H55.7A3.34,3.34,0,0,1,52.36,331V297.42A0,0,0,0,1,52.36,297.42Z" fill="#999190"/><g opacity="0.24"><rect x="52.36" y="297.42" width="394.13" height="9.29" fill="#676767"/></g><polygon points="52.36 264.71 90.53 237.46 408.32 237.46 445.12 263.95 52.36 264.71" fill="#c2bab9"/><path d="M86.63,167.51a6.9,6.9,0,0,1,7.58-7.3,612.33,612.33,0,0,0,73.71,2.91,611.53,611.53,0,0,0,73-5.91,6.91,6.91,0,0,1,7.85,7.51,273.94,273.94,0,0,0,1.92,67.44,6.83,6.83,0,0,1-7.38,7.83c-22.12-2-46.19-3.27-72-3.27-28.55,0-55,1.52-79.14,3.91a6.84,6.84,0,0,1-7.48-7.58c1.16-9.91,2-20.64,2.36-32.1C87.46,189,87.23,177.83,86.63,167.51Z" fill="#baaeaf"/><path d="M413.37,167.51a6.9,6.9,0,0,0-7.58-7.3,612.33,612.33,0,0,1-73.71,2.91,611.53,611.53,0,0,1-73-5.91,6.91,6.91,0,0,0-7.85,7.51,272.91,272.91,0,0,1,1.08,35.2,272.71,272.71,0,0,1-3,32.24,6.83,6.83,0,0,0,7.38,7.83c22.12-2,46.19-3.27,72-3.27,28.55,0,55,1.52,79.14,3.91a6.84,6.84,0,0,0,7.48-7.58c-1.16-9.91-2-20.64-2.36-32.1C412.54,189,412.77,177.83,413.37,167.51Z" fill="#baaeaf"/><polygon points="212.02 209.73 208 205 203.71 209.49 204.21 203.3 198 203.44 202.73 199.42 198.24 195.13 204.43 195.62 204.29 189.42 208.31 194.14 212.6 189.66 212.11 195.84 218.31 195.71 213.59 199.73 218.07 204.02 211.88 203.52 212.02 209.73" fill="#736d6c"/><polygon points="132.58 209.73 128.55 205 124.27 209.49 124.76 203.3 118.56 203.44 123.28 199.42 118.8 195.13 124.98 195.62 124.84 189.42 128.87 194.14 133.15 189.66 132.66 195.84 138.86 195.71 134.14 199.73 138.62 204.02 132.44 203.52 132.58 209.73" fill="#736d6c"/><polygon points="376.07 209.73 372.05 205 367.76 209.49 368.26 203.3 362.05 203.44 366.78 199.42 362.29 195.13 368.48 195.62 368.34 189.42 372.36 194.14 376.65 189.66 376.16 195.84 382.36 195.71 377.64 199.73 382.12 204.02 375.94 203.52 376.07 209.73" fill="#736d6c"/><polygon points="296.63 209.73 292.6 205 288.32 209.49 288.81 203.3 282.61 203.44 287.33 199.42 282.85 195.13 289.03 195.62 288.89 189.42 292.92 194.14 297.2 189.66 296.71 195.84 302.91 195.71 298.19 199.73 302.67 204.02 296.49 203.52 296.63 209.73" fill="#736d6c"/><polygon points="64.52 334.05 64.52 338 112.2 338 115.02 333.79 64.52 334.05" fill="#fcd2b1"/></svg>