<svg xmlns="http://www.w3.org/2000/svg" viewBox="0 0 500 500"><polygon points="451.65 317.27 454.82 355.49 444.73 355.49 433.04 317.27 451.65 317.27" fill="#fcd2b1"/><polygon points="423.47 316.29 422.41 326.82 414.97 326.82 409.66 316.95 423.47 316.29" fill="#bd9e85"/><polygon points="88.22 138.08 93.56 138.08 93.56 293.01 60.6 320.63 44.12 196.31 75.87 183.92 88.22 138.08" fill="#a1a7aa"/><polygon points="104.16 147.64 390 147.64 425.64 267.86 425.64 300.54 70.15 300.54 73.34 249.24 104.16 147.64" fill="#a1a7aa"/><polygon points="63.82 232.65 96 224.09 251.91 224.09 257.85 235.18 63.82 232.65" fill="#e7ecee"/><polygon points="54.73 317.27 51.55 355.49 61.65 355.49 73.34 317.27 54.73 317.27" fill="#fcd2b1"/><polygon points="82.9 316.29 83.97 326.82 91.4 326.82 96.72 316.95 82.9 316.29" fill="#bd9e85"/><polygon points="411.78 138.08 406.53 138.08 406.53 293.01 439.44 320.63 455.9 196.31 424.14 183.92 411.78 138.08" fill="#a1a7aa"/><polygon points="436.18 232.65 404.81 224.09 252.1 224.09 252.58 234 436.18 232.65" fill="#e7ecee"/><rect x="61.3" y="277.17" width="378.29" height="43.47" fill="#d7dfe2"/><g opacity="0.2"><rect x="61.3" y="277.17" width="378.29" height="6.99" fill="#1d1d1b"/></g><path d="M69,144.78l-4.65,36.65H81.84L88,137.86H76.53l-2.51.81A7.43,7.43,0,0,0,69,144.78Z" fill="#d7dfe2"/><path d="M431,144.78l4.65,36.65H418.16l-6.11-43.57h11.42l2.51.81A7.43,7.43,0,0,1,431,144.78Z" fill="#d7dfe2"/><polygon points="46.15 197.33 81.84 181.09 63.77 181.09 27.96 196.05 46.15 197.33" fill="#e7ecee"/><polygon points="453.85 194.94 418.16 181.09 436.22 181.09 469.65 195.71 453.85 194.94" fill="#e7ecee"/><path d="M107.54,114.49h128a13.78,13.78,0,0,1,14,13.54v83.42a13.79,13.79,0,0,1-14,13.55h-128a13.79,13.79,0,0,1-14-13.55V128A13.78,13.78,0,0,1,107.54,114.49Z" fill="#d7dfe2"/><polygon points="149.32 169.74 143.48 172.05 145.32 178.05 139.87 174.92 136.33 180.1 135.38 173.9 129.12 174.35 133.38 169.74 129.12 165.13 135.38 165.59 136.33 159.38 139.87 164.56 145.32 161.43 143.48 167.44 149.32 169.74" fill="#a1a7aa"/><polygon points="208.82 169.74 202.98 172.05 204.82 178.05 199.38 174.92 195.83 180.1 194.88 173.9 188.62 174.35 192.88 169.74 188.62 165.13 194.88 165.59 195.83 159.38 199.38 164.56 204.82 161.43 202.98 167.44 208.82 169.74" fill="#a1a7aa"/><path d="M392.64,114.49H266.23A13.69,13.69,0,0,0,252.39,128v83.42A13.7,13.7,0,0,0,266.23,225H392.64a13.69,13.69,0,0,0,13.83-13.55V128A13.68,13.68,0,0,0,392.64,114.49Z" fill="#d7dfe2"/><polygon points="350.68 169.74 356.52 172.05 354.68 178.05 360.13 174.92 363.67 180.1 364.62 173.9 370.88 174.35 366.62 169.74 370.88 165.13 364.62 165.59 363.67 159.38 360.13 164.56 354.68 161.43 356.52 167.44 350.68 169.74" fill="#a1a7aa"/><polygon points="291.18 169.74 297.02 172.05 295.18 178.05 300.62 174.92 304.17 180.1 305.12 173.9 311.38 174.35 307.12 169.74 311.38 165.13 305.12 165.59 304.17 159.38 300.62 164.56 295.18 161.43 297.02 167.44 291.18 169.74" fill="#a1a7aa"/><path d="M24.72,209.32l6.47,23L35.08,295l1.76,18.8a7.58,7.58,0,0,0,7.55,6.88H61.65l-.35-36.48-8.5-57.56-6.38-30.28-16.07-.6h0A11.93,11.93,0,0,0,24.72,209.32Z" fill="#d7dfe2"/><path d="M475.28,209.32l-6.47,23L464.92,295l-1.75,18.8a7.59,7.59,0,0,1-7.56,6.88H438.35l.35-36.48,8.5-57.56,6.38-30.28,16.07-.6h0A11.93,11.93,0,0,1,475.28,209.32Z" fill="#d7dfe2"/><rect x="58.5" y="232.34" width="190.7" height="44.83" rx="7.43" fill="#e5eaee"/><rect x="250.44" y="232.34" width="191.06" height="44.83" rx="7.43" fill="#e5eaee"/></svg>