<svg xmlns="http://www.w3.org/2000/svg" viewBox="0 0 500 500"><polygon points="323.42 298.17 336.47 387.27 328.4 387.27 305.68 294.54 322.81 294.54 323.42 298.17" fill="#fcd2b1"/><polygon points="314.2 287.53 303.84 287.53 326.56 380.26 311.71 288.76 314.2 287.53" fill="#bd9e85"/><polygon points="176.77 297.92 163.72 387.01 171.79 387.01 194.51 294.29 177.39 294.29 176.77 297.92" fill="#fcd2b1"/><polygon points="185.99 287.28 196.35 287.28 173.63 380.01 188.48 288.51 185.99 287.28" fill="#bd9e85"/><rect x="184.21" y="267.8" width="131.18" height="21.3" fill="#686258"/><path d="M342.24,204.29s-18.18-11.93-19.85-87.19c0,0,.08-6.06-3.35-8.32s-11.15-.26-17.17.52-32.92,3.06-51.63,2.8h-.77c-18.71.26-45.7-2-51.64-2.8s-13.74-2.77-17.17-.52-3.35,8.32-3.35,8.32c-1.67,75.26-19.84,87.19-19.84,87.19l12.6,55.31,79.78-4.81,79.79,4.81Z" fill="#978e7c"/><path d="M329.87,205.47l.11-1.79s-11.68-18.29-6.26-61.63c4.54,53.3,18.57,62.52,18.57,62.52l-3.13,13.77Z" fill="#a59c8b"/><path d="M169.89,205.53l-.11-1.79s11.68-18.3,6.26-61.64c-4.54,53.31-18.57,62.53-18.57,62.53l3.13,13.77Z" fill="#a59c8b"/><path d="M251.59,120.22c45.25-.63,60.67-8,65.79-12.13-3.88-1-10.34.53-15.53,1.21-5.94.77-32.93,3-51.64,2.79h-.77c-18.71.26-45.7-2-51.64-2.79-4.85-.63-10.79-2-14.72-1.39C186.14,111.32,199.41,121,251.59,120.22Z" fill="#ccc3b4" opacity="0.4"/><path d="M329.39,203.9s-17.92,20.39-75.7,20.78l-.05-.21c-63.49,1.34-82.86-20.73-82.86-20.73l9,46.82,69.59-7.73,71.1,7.9Z" fill="#5a554a" opacity="0.3"/><path d="M342.22,204.28a7.74,7.74,0,0,0-6.62-2.49s-19-.17-20.92,42.76l2.09,1.67Z" fill="#686258"/><path d="M158.13,204.06a7.73,7.73,0,0,1,6.62-2.5s19-.16,20.92,42.77L183.58,246Z" fill="#686258"/><path d="M366.4,221.3s-16-10.32-24.06-17c0,0-21.17-12.85-26.53,40.18,0,0,18.15,18.66,13.87,33.28Z" fill="#a59c8b"/><path d="M133.4,221.3s16-10.32,24.07-17c0,0,21.16-12.85,26.52,40.18,0,0-18.15,18.66-13.86,33.28Z" fill="#a59c8b"/><path d="M315.78,245.48s20.07,4.74,17,24.65l-2.72,13.39-15,2.39-19.7-1-3-34.27,23.45-5.18" fill="#686258"/><path d="M184.44,245.59s-20.18,4.73-17.12,24.59l2.74,13.34,15.1,2.39,19.8-1L208,250.76l-23.58-5.17" fill="#686258"/><path d="M331,265.24l-6-3.57-74.94.69-74.94-.69-6,3.57s-3.45,16.34,34.18,16.34h93.57C334.44,281.58,331,265.24,331,265.24Z" fill="#898072"/><path d="M252.53,232.45h-5.89c-85.94-1.06-77.58,32.79-77.58,32.79H330.84S339.26,231.2,252.53,232.45Z" fill="#ccc3b4"/><path d="M250.07,249.45h0c-84.05.32-81,16.41-81,16.41h162S334.12,249.77,250.07,249.45Z" fill="#938a79"/><path d="M355.88,223.64s-9.44-4.13-25.92-18.49a11.61,11.61,0,0,1,12.37-.91c8,6.69,24.06,17,24.06,17l-6.22,9.56C357.94,227.05,355.88,223.64,355.88,223.64Z" fill="#ccc3b4"/><path d="M144,223.68s9.44-4.13,25.91-18.48a11.58,11.58,0,0,0-12.36-.92c-8,6.69-24.06,17-24.06,17l6.22,9.57C141.92,227.09,144,223.68,144,223.68Z" fill="#ccc3b4"/><path d="M368.18,222.13a10.61,10.61,0,0,0-14.11,2c-2.39,3.12-14,20.74-22.18,49.42a13.66,13.66,0,0,1-13.72,9.95H181.83a13.66,13.66,0,0,1-13.72-9.95c-8.19-28.68-19.79-46.3-22.18-49.42a10.61,10.61,0,0,0-14.11-2c-5.85,3.68-3.51,11-3.51,11a343.79,343.79,0,0,1,14.89,54.75c5.12,29,35.62,28.2,35.62,28.2H321.18s30.5.78,35.62-28.2a343.79,343.79,0,0,1,14.89-54.75S374,225.81,368.18,222.13Z" fill="#938a79"/><path d="M324.37,313.42H174.73a47.6,47.6,0,0,1-17.63-3.62c10.1,6.58,21.71,6.3,21.71,6.3H321.17s13.06.33,23.52-7.56A47.13,47.13,0,0,1,324.37,313.42Z" fill="#686258"/></svg>