<svg xmlns="http://www.w3.org/2000/svg" viewBox="0 0 500 500"><path d="M119.83,304.15c.4-3.72,2-3,3.55-7.14.77-2,1.21-4.68,1.43-4.68h-21c-.35,0-.49,2.22,0,4.68.77,3.63,1.61,1.7,7.55,14.9,1.88,4.16,3,6.61,1.78,9-1.29,2.57-4.19,2.42-5.33,5.17-.94,2.23-.08,4.67.89,6.58,1.92,3.26,3.85,6.48,5.77,9.74,2.29-.53,2.18-.53,4.46-1.06.14-1.88.29-3.76.43-5.64,4.91-9.12,4.79-15.38,3.56-19.56C121.75,312.12,119.28,309.19,119.83,304.15Z" fill="#bd9e85"/><path d="M386.25,304.15c-.4-3.72-2-3-3.56-7.14-.76-2-1.21-4.68-1.42-4.68h21c.36,0,.5,2.22,0,4.68-.77,3.63-1.61,1.7-7.56,14.9-1.87,4.16-3,6.61-1.77,9,1.29,2.57,4.18,2.42,5.33,5.17.93,2.23.08,4.67-.89,6.58l-5.78,9.74c-2.28-.53-2.17-.53-4.45-1.06-.15-1.88-.29-3.76-.44-5.64-4.91-9.12-4.78-15.38-3.55-19.56C384.33,312.12,386.8,309.19,386.25,304.15Z" fill="#bd9e85"/><path d="M433.39,160.77c-.62-1.9-6.56-19.25-22.36-31.19-30-22.68-82.39-15.67-131.24,16.48a250.67,250.67,0,0,1-35.9,20,255.72,255.72,0,0,1-78.28,21.19c-16.38,1.74-37.87,3.85-64.74-2.36-6.18-1.42-11.23-3-14.71-4.12C76.29,203.34,77.33,218.52,82,229c32.88,73.39,289.3,19.74,329,11.19C413.4,237.65,446.47,200.65,433.39,160.77Z" fill="#844011"/><path d="M198.1,256c-58.92,0-98.87-3.64-107.87-23.73-3.4-7.59-.67-25.24,3-37,1.64.43,3.3.76,4.94,1.14a173.3,173.3,0,0,0,39.46,4.42A263,263,0,0,0,166.86,199a269.09,269.09,0,0,0,81.89-22.18,263.12,263.12,0,0,0,37.59-21c27.16-17.87,55.74-27.75,80.39-27.75,14.91,0,27.77,3.77,37.2,10.89,13,9.84,18.07,24.83,18.27,25.46,9.38,28.6-10.48,56.76-17.52,65.42C365.12,238.26,273.85,256,198.12,256Z" fill="#7d38ce"/><path d="M351,150.65l-3.71-2.54,2.24-3.9-4.29,1.32-1.65-4.18-1.65,4.18-4.3-1.32,2.24,3.9-3.7,2.54,4.44.67-.33,4.48,3.3-3,3.3,3-.33-4.48Zm-7.41.48a2.55,2.55,0,1,1,2.54-2.55A2.55,2.55,0,0,1,343.55,151.13Z" fill="#6128b2"/><path d="M322.29,167.3l-3.71-2.54,2.24-3.89-4.3,1.32L314.87,158l-1.64,4.18-4.3-1.32,2.24,3.89-3.71,2.54,4.44.68-.32,4.48,3.29-3.05,3.3,3.05-.32-4.48Zm-7.42.48a2.55,2.55,0,1,1,2.55-2.55A2.55,2.55,0,0,1,314.87,167.78Z" fill="#6128b2"/><path d="M351,177.07l-3.71-2.53,2.24-3.9L345.2,172l-1.65-4.18L341.9,172l-4.3-1.32,2.24,3.9-3.7,2.53,4.44.68-.33,4.48,3.3-3,3.3,3-.33-4.48Zm-7.41.48a2.55,2.55,0,1,1,2.54-2.54A2.55,2.55,0,0,1,343.55,177.55Z" fill="#6128b2"/><path d="M322.29,193.73l-3.71-2.54,2.24-3.89-4.3,1.31-1.65-4.17-1.64,4.17-4.3-1.31,2.24,3.89-3.71,2.54,4.44.68-.32,4.48,3.29-3,3.3,3-.32-4.48Zm-7.42.48a2.55,2.55,0,1,1,2.55-2.55A2.55,2.55,0,0,1,314.87,194.21Z" fill="#6128b2"/><path d="M381.74,138.53,378,136l2.24-3.9L376,133.42l-1.65-4.18-1.65,4.18-4.29-1.32,2.23,3.9-3.7,2.53,4.44.68-.33,4.48,3.3-3.05,3.3,3.05-.33-4.48Zm-7.41.48a2.55,2.55,0,1,1,2.55-2.54A2.55,2.55,0,0,1,374.33,139Z" fill="#6128b2"/><path d="M410.41,148.31l-3.7-2.54,2.24-3.89-4.3,1.31L403,139l-1.65,4.18-4.29-1.31,2.24,3.89-3.71,2.54L400,149l-.33,4.47,3.3-3,3.3,3L406,149Zm-7.41.48a2.55,2.55,0,1,1,2.55-2.55A2.55,2.55,0,0,1,403,148.79Z" fill="#6128b2"/><path d="M381.74,165,378,162.43l2.24-3.9L376,159.85l-1.65-4.18-1.65,4.18-4.29-1.32,2.23,3.9-3.7,2.53,4.44.68-.33,4.48,3.3-3.05,3.3,3.05-.33-4.48Zm-7.41.48a2.55,2.55,0,1,1,2.55-2.55A2.55,2.55,0,0,1,374.33,165.44Z" fill="#6128b2"/><path d="M287.56,179.41l-3.7-2.53,2.23-3.9-4.29,1.32-1.65-4.18-1.65,4.18L274.21,173l2.24,3.9-3.71,2.53,4.44.68-.33,4.48,3.3-3,3.3,3-.33-4.48Zm-7.41.48a2.55,2.55,0,1,1,2.55-2.55A2.55,2.55,0,0,1,280.15,179.89Z" fill="#6128b2"/><path d="M258.89,196.07l-3.71-2.54,2.24-3.89L253.13,191l-1.65-4.18L249.83,191l-4.29-1.31,2.23,3.89-3.7,2.54,4.44.68-.33,4.48,3.3-3,3.3,3-.33-4.48Zm-7.41.48A2.55,2.55,0,1,1,254,194,2.55,2.55,0,0,1,251.48,196.55Z" fill="#6128b2"/><path d="M287.56,205.84l-3.7-2.54,2.23-3.89-4.29,1.31-1.65-4.17-1.65,4.17-4.29-1.31,2.24,3.89-3.71,2.54,4.44.68-.33,4.48,3.3-3.05,3.3,3.05-.33-4.48Zm-7.41.48a2.55,2.55,0,1,1,2.55-2.55A2.55,2.55,0,0,1,280.15,206.32Z" fill="#6128b2"/><path d="M258.89,222.5,255.18,220l2.24-3.9-4.29,1.32-1.65-4.18-1.65,4.18-4.29-1.32,2.23,3.9-3.7,2.54,4.44.67-.33,4.48,3.3-3,3.3,3-.33-4.48Zm-7.41.48a2.55,2.55,0,1,1,2.55-2.55A2.55,2.55,0,0,1,251.48,223Z" fill="#6128b2"/><path d="M403.49,183.75l-3.71-2.54,2.24-3.89-4.29,1.32-1.65-4.18-1.65,4.18-4.3-1.32,2.24,3.89-3.7,2.54,4.44.68-.33,4.48,3.3-3,3.3,3-.33-4.48Zm-7.41.48a2.55,2.55,0,1,1,2.54-2.55A2.55,2.55,0,0,1,396.08,184.23Z" fill="#b17577"/><path d="M374.82,200.41l-3.71-2.54,2.24-3.89-4.3,1.31-1.65-4.18-1.65,4.18L361.46,194l2.24,3.89L360,200.41l4.44.67-.32,4.48,3.29-3,3.3,3-.32-4.48Zm-7.42.48a2.55,2.55,0,1,1,2.55-2.55A2.55,2.55,0,0,1,367.4,200.89Z" fill="#6128b2"/><path d="M403.49,210.18l-3.71-2.54,2.24-3.89-4.29,1.31-1.65-4.17-1.65,4.17-4.3-1.31,2.24,3.89-3.7,2.54,4.44.68-.33,4.48,3.3-3.05,3.3,3.05-.33-4.48Zm-7.41.48a2.55,2.55,0,1,1,2.54-2.55A2.55,2.55,0,0,1,396.08,210.66Z" fill="#b17577"/><path d="M374.82,226.83l-3.71-2.53,2.24-3.9-4.3,1.32-1.65-4.18-1.65,4.18-4.29-1.32,2.24,3.9L360,226.83l4.44.68-.32,4.48,3.29-3.05,3.3,3.05-.32-4.48Zm-7.42.48a2.55,2.55,0,1,1,2.55-2.54A2.54,2.54,0,0,1,367.4,227.31Z" fill="#6128b2"/><path d="M340.09,212.52l-3.7-2.54,2.23-3.89-4.29,1.31-1.65-4.18L331,207.4l-4.29-1.31L329,210l-3.71,2.54,4.44.68-.33,4.48,3.3-3.05,3.3,3.05-.33-4.48Zm-7.41.48a2.55,2.55,0,1,1,2.55-2.55A2.55,2.55,0,0,1,332.68,213Z" fill="#6128b2"/><path d="M311.42,229.17l-3.71-2.53,2.24-3.9-4.29,1.32L304,219.88l-1.65,4.18-4.3-1.32,2.24,3.9-3.7,2.53,4.44.68-.33,4.48,3.3-3.05,3.3,3.05-.33-4.48Zm-7.41.48a2.55,2.55,0,1,1,2.55-2.54A2.55,2.55,0,0,1,304,229.65Z" fill="#6128b2"/><path d="M340.09,239l-3.7-2.54,2.23-3.89-4.29,1.31-1.65-4.18L331,233.83l-4.29-1.31,2.24,3.89L325.27,239l4.44.67-.33,4.48,3.3-3,3.3,3-.33-4.48Zm-7.41.48a2.55,2.55,0,1,1,2.55-2.55A2.55,2.55,0,0,1,332.68,239.43Z" fill="#b17577"/><path d="M311.42,255.6l-3.71-2.54,2.24-3.89-4.29,1.32L304,246.31l-1.65,4.18-4.3-1.32,2.24,3.89-3.7,2.54,4.44.68-.33,4.48,3.3-3.05,3.3,3.05-.33-4.48Zm-7.41.48a2.55,2.55,0,1,1,2.55-2.55A2.55,2.55,0,0,1,304,256.08Z" fill="#b17577"/><path d="M224.7,212.92l-3.7-2.53,2.23-3.9-4.29,1.32-1.65-4.18-1.65,4.18-4.29-1.32,2.24,3.9-3.71,2.53,4.44.68-.33,4.48,3.3-3.05,3.3,3.05-.33-4.48Zm-7.41.48a2.55,2.55,0,1,1,2.55-2.55A2.55,2.55,0,0,1,217.29,213.4Z" fill="#6128b2"/><path d="M196,229.58,192.32,227l2.24-3.89-4.29,1.31-1.65-4.18L187,224.46l-4.29-1.31,2.23,3.89-3.7,2.54,4.44.68-.33,4.47,3.3-3,3.3,3-.33-4.47Zm-7.41.48a2.55,2.55,0,1,1,2.55-2.55A2.55,2.55,0,0,1,188.62,230.06Z" fill="#6128b2"/><path d="M224.7,239.35l-3.7-2.54,2.23-3.89-4.29,1.31-1.65-4.17-1.65,4.17-4.29-1.31,2.24,3.89-3.71,2.54,4.44.68-.33,4.48,3.3-3,3.3,3-.33-4.48Zm-7.41.48a2.55,2.55,0,1,1,2.55-2.55A2.55,2.55,0,0,1,217.29,239.83Z" fill="#b17577"/><path d="M196,198.68l-3.71-2.53,2.24-3.9-4.29,1.32-1.65-4.18L187,193.57l-4.29-1.32,2.23,3.9-3.7,2.53,4.44.68-.33,4.48,3.3-3.05,3.3,3.05-.33-4.48Zm-7.41.48a2.55,2.55,0,1,1,2.55-2.55A2.55,2.55,0,0,1,188.62,199.16Z" fill="#6128b2"/><path d="M132.63,201l-3.7-2.54,2.24-3.89-4.3,1.32-1.65-4.18-1.65,4.18-4.29-1.32,2.24,3.89L117.81,201l4.44.68-.33,4.48,3.3-3.05,3.3,3.05-.33-4.48Zm-7.41.48a2.55,2.55,0,1,1,2.55-2.55A2.55,2.55,0,0,1,125.22,201.5Z" fill="#b17577"/><path d="M161.31,210.79l-3.71-2.53,2.24-3.9-4.29,1.32-1.65-4.18-1.65,4.18-4.3-1.32,2.24,3.9-3.71,2.53,4.44.68L150.6,216l3.3-3,3.29,3-.32-4.48Zm-7.41.48a2.55,2.55,0,1,1,2.54-2.54A2.55,2.55,0,0,1,153.9,211.27Z" fill="#6128b2"/><path d="M132.63,227.45l-3.7-2.54,2.24-3.89-4.3,1.31-1.65-4.17-1.65,4.17L119.28,221l2.24,3.89-3.71,2.54,4.44.68-.33,4.48,3.3-3.05,3.3,3.05-.33-4.48Zm-7.41.48a2.55,2.55,0,1,1,2.55-2.55A2.55,2.55,0,0,1,125.22,227.93Z" fill="#6128b2"/><path d="M439,158.94c-1.13-3.47-7.65-21.4-24.41-34-12.52-9.46-29.06-14.45-47.84-14.45-28.06,0-60.09,10.9-90.22,30.74a246.68,246.68,0,0,1-35.06,19.54A251.51,251.51,0,0,1,165,181.42a249.76,249.76,0,0,1-27.31,1.78,156.08,156.08,0,0,1-35.48-4c-4.77-1.11-9.55-2.41-14.19-3.94l-5.09-1.61-2.15,5.05c-9.13,20.87-10.51,39-4.1,53.31C89,259.61,129.89,274.17,198.1,274.17h0c80,0,176.41-19.49,214.15-27.62l1.82-1,1.26-1.38C419.25,240,453,201.68,439,158.94ZM198.1,249.64c-55.62,0-95.42-7.3-103.32-24.93-2.29-5.12.84-14.53,2.66-22.46a179.2,179.2,0,0,0,40.24,4.48,268.64,268.64,0,0,0,29.8-1.91,275.24,275.24,0,0,0,83.71-22.67,269.88,269.88,0,0,0,38.38-21.39C315.81,143.49,343.22,134,366.73,134c13.62,0,25.26,3.35,33.66,9.69,11.59,8.75,16.18,22.46,16.22,22.6,8,24.4-.26,56.94-7.28,66C371.48,240.26,272.47,249.64,198.1,249.64Z" fill="#fcd2b1"/><path d="M22,179.23c-.62-2.43,11.91-12.81,20-15.51,9.12-3.05,21.19-6.94,36.49-4.71,6.6,1,12.95,1.88,19.42,6.47,12.3,8.73,14.7,23.37,15.3,27.07,3.92,23.94-16.06,46.4-18.45,48.84-.25-5.55,1.42-17.77-1.56-27.06-2.7-8.44-8.8-27.43-23.54-36.49C49.33,165.34,22.91,182.75,22,179.23Z" fill="#6128b2"/><path d="M26.72,222.57c-6.45-2.7-9.57-8.63-10.59-10.59-6.2-11.82-2.12-28.11,7.65-37.67,11-10.81,26-9.68,29.42-9.42,20.37,1.55,32.21,17.85,34.14,20.6,11.27,16.11,14.86,42.71,4.12,59.44-4.23,6.59-12.8,14.94-12.95,28.25a32.46,32.46,0,0,0,.59,6.48l-25.31.58q-1.17-18.53-2.35-37.07c4-13.47,2.53-18.6,0-20.6C49.32,220.89,40,228.1,26.72,222.57Z" fill="#7d38ce"/><path d="M408.28,237.07a17.06,17.06,0,0,0-8.58-5.87c-11.22-3.36-22.4-2.16-33.88-2.25-6.54-.06-13.14-.17-19.71-.17H147.2c-6.36,0-12.69.2-19,.05-11.15-.25-27-1.85-33.54,9.8l-18.4,28.54c0-.07,174.14,0,174.14,0s174.14-.17,174.14-.1l-8.68-16.5C413.35,245.92,411.4,240.93,408.28,237.07Z" fill="#8f58dd"/><path d="M55.85,356.71l0-.07c-2.09-4.13-2.52-7.76-1.25-10.8a10.41,10.41,0,0,1,4.5-4.78,6.63,6.63,0,0,0,2.63-2.43c1.11-2.21-.16-5.38-2.39-10.34A139.17,139.17,0,0,0,51.55,313a15.94,15.94,0,0,1-2.41-5.75c-1-4.72-.34-7.68.44-11.1A48.12,48.12,0,0,0,50.85,281a28.57,28.57,0,0,0-.36-3.52c-.18-1.14-.43-2.71-.8-6.37-1.6-15.62-2.4-23.45.1-31a27.29,27.29,0,0,1,3.17-6.6,24.14,24.14,0,0,0,3.27-7.42c1.12-4,3-10.56-.23-15.06a3.15,3.15,0,0,0-2.59-1.29A3.51,3.51,0,0,0,52,210l-.69.31c-2.42,4-6.25,8.46-9.63,9.76a10.82,10.82,0,0,1-3.86.67c-7.21,0-16.67-6.1-19.26-15.17-2.44-8.54,1.85-17.12,7.18-21.83,4.38-3.88,10.62-6,17.58-6,9.62,0,19.25,3.94,25.14,10.29,9.91,10.7,8.28,27.35,7.09,39.5a101.74,101.74,0,0,1-2.79,15.17c-1.61,6.65-2.78,11.45-.82,18.7a21.81,21.81,0,0,0,2.85,6.52,34.12,34.12,0,0,1,4.22,10c1.85,6.75,5,18.06.51,29.71a33,33,0,0,1-2.61,5.3,11.37,11.37,0,0,0-2,5.29c-.44,4,.77,6.81,2.16,10A43.46,43.46,0,0,1,79,333.13c2.32,7.86.75,17-4.65,27.24l-.67,8.68-9.27,2.16Z" fill="#fcd2b1"/><path d="M72.63,317.91c.53-4.92,2.62-5.72,4.7-11.18,4.17-10.92,1.18-21.83-.59-28.25-2.66-9.73-5-8.85-7.06-16.48-3.41-12.57,1.94-18.5,3.53-34.72,1.19-12.08,2.73-27.74-6.47-37.67-9.43-10.17-29.12-13.23-39.43-4.12-4.67,4.13-8.64,11.85-6.47,19.42,2.69,9.45,13.94,15.29,20,13,2.81-1.08,6.44-5.32,8.7-9.18l.13-.24,1.4-.6a5.63,5.63,0,0,1,6.81,1.73l0,.05c3.8,5.31,1.86,12.55.59,17.07-2.23,7.89-4.31,7.61-6.47,14.12-2.34,7.07-1.56,14.72,0,30,.73,7.2,1,6.12,1.17,10,.85,15.45-3.61,17.19-1.76,25.9,1,4.8,2.13,3.12,10,20.6,2.49,5.51,4,9.18,2.36,12.36-1.72,3.4-5.55,3.42-7.06,7.06-1.24,2.95-.11,6.3,1.17,8.83l7.65,12.94,5.9-1.37c.19-2.48.39-5,.58-7.45,6.5-12.08,6.34-20.37,4.7-25.9C75.17,328.46,71.9,324.59,72.63,317.91Z" fill="#fcd2b1"/><path d="M478.3,179.23c.62-2.43-12.12-12.81-20.21-15.51-9.12-3.05-21.18-6.94-36.49-4.71-6.6,1-13,1.88-19.42,6.47-12.3,8.73-14.69,23.37-15.3,27.07-3.92,23.94,15.85,42.29,18.24,44.73.26-5.55-1.21-13.66,1.77-22.95,2.71-8.44,8.8-27.43,23.54-36.49C450.78,165.34,477.41,182.75,478.3,179.23Z" fill="#6128b2"/><path d="M473.4,221.39c11.87-5,15.36-20.86,12.44-32.3-4.42-17.31-21.91-26.67-38.93-25.37-20.36,1.55-32.21,17.85-34.14,20.6-11.27,16.1-14.85,42.71-4.12,59.44,4.23,6.59,12.8,14.94,13,28.25a32.27,32.27,0,0,1-.59,6.47l25.31.59q1.17-18.54,2.35-37.08c-4-13.47-2.52-18.6,0-20.6C450.38,220,459.7,227.12,473.4,221.39Z" fill="#7d38ce"/><path d="M426.43,369.05l-.66-8.68c-5.41-10.22-7-19.38-4.66-27.24a43.46,43.46,0,0,1,1.87-4.92c1.4-3.24,2.6-6,2.17-10a11.59,11.59,0,0,0-1.95-5.29,32.06,32.06,0,0,1-2.62-5.3c-4.44-11.64-1.34-22.95.52-29.71a33.89,33.89,0,0,1,4.21-10,21.81,21.81,0,0,0,2.85-6.52c2-7.25.8-12-.82-18.7a100.61,100.61,0,0,1-2.78-15.17c-1.2-12.15-2.83-28.8,7.09-39.5,5.88-6.35,15.51-10.29,25.14-10.29,6.95,0,13.19,2.13,17.57,6,5.33,4.71,9.62,13.29,7.18,21.83-2.59,9.07-12.05,15.17-19.26,15.17a10.86,10.86,0,0,1-3.86-.67c-3.38-1.3-7.21-5.77-9.62-9.76l-.7-.31a3.51,3.51,0,0,0-1.4-.29,3.12,3.12,0,0,0-2.56,1.25c-3.24,4.54-1.38,11.15-.26,15.1a24.39,24.39,0,0,0,3.27,7.42,27.29,27.29,0,0,1,3.17,6.6c2.5,7.55,1.7,15.38.11,31-.38,3.66-.62,5.23-.8,6.37a26.39,26.39,0,0,0-.37,3.52,47.74,47.74,0,0,0,1.28,15.16c.77,3.43,1.44,6.38.44,11.1a16.13,16.13,0,0,1-2.42,5.75,141.14,141.14,0,0,0-7.75,15.32c-2.23,5-3.5,8.13-2.39,10.34a6.63,6.63,0,0,0,2.63,2.43,10.41,10.41,0,0,1,4.5,4.78c1.27,3,.85,6.67-1.25,10.8l-.07.13-8.53,14.44Z" fill="#fcd2b1"/><path d="M427.49,317.91c-.54-4.92-2.63-5.72-4.71-11.18-4.16-10.92-1.17-21.83.59-28.25,2.66-9.73,5-8.85,7.06-16.48,3.41-12.57-1.94-18.5-3.53-34.72-1.19-12.08-2.73-27.74,6.47-37.67,9.43-10.17,29.12-13.23,39.43-4.12,4.67,4.13,8.64,11.85,6.48,19.42-2.7,9.45-13.95,15.29-20,13-2.8-1.08-6.44-5.32-8.69-9.18l-.14-.24-1.39-.6a5.62,5.62,0,0,0-6.81,1.73l0,.05c-3.79,5.31-1.86,12.55-.59,17.07,2.23,7.89,4.32,7.61,6.48,14.12,2.34,7.07,1.56,14.72,0,30-.74,7.2-1,6.12-1.18,10-.85,15.45,3.61,17.19,1.76,25.9-1,4.8-2.13,3.12-10,20.6-2.48,5.51-3.95,9.18-2.36,12.36,1.72,3.4,5.55,3.42,7.07,7.06,1.23,2.95.1,6.3-1.18,8.83l-7.65,12.94-5.9-1.37-.57-7.45c-6.51-12.08-6.34-20.37-4.71-25.9C424.94,328.46,428.21,324.59,427.49,317.91Z" fill="#fcd2b1"/><path d="M248.6,317.71a15.21,15.21,0,0,0-8.14-5.15,7.58,7.58,0,0,0-1.48-.15,11.53,11.53,0,0,0-3.21,0,23,23,0,0,1-5.4.31H230c-3.19,0-7.93.08-20.85-3.08-4.95-1.21-8-1.79-10.15-2.41a27.25,27.25,0,0,0-7.1-1.26c-.94-.06-1.81,0-2.68,0-1.26,0-2.28.1-3.18.15s-1.5.11-2.19.11a14.72,14.72,0,0,1-4.89-.82,22.45,22.45,0,0,1-7.13-4c-1.63-1.25-2.8-2.14-4.78-2.39-.3,0-.59-.05-.86-.05-1.59,0-2.81.62-4.84,1.65-1,.54-2.24,1.14-3.7,1.76a54.89,54.89,0,0,1-20.73,4.1c-6.91,0-13.09-1.46-17.87-4.24-.57-.33-1.12-.68-1.66-1-1.84-1.17-3.3-2.1-5.52-2.2h-.41c-4.06,0-7.91,2.67-9.36,3.68-.66.46-1.24.9-1.78,1.35-1.35,1.13-2.32,2.07-2.67,2.42-1.29,1.28-3.93,2.45-14.56,2.45-2,0-4.29-.05-6.76-.13l-1.51-.06-6.17-14.85a10.75,10.75,0,0,1,1.06-10.45,11.16,11.16,0,0,1,9.61-4.73H421.28A11,11,0,0,1,432,294.06l-2,4.66c-1.19,2.93-2.38,5.8-3.58,8.68l-.58,1.37-1.51,0c-2.47.08-4.74.12-6.76.12-10.63,0-13.27-1.17-14.55-2.43-.36-.37-1.34-1.31-2.68-2.44-.54-.45-1.12-.89-1.78-1.35-1.45-1-5.3-3.68-9.36-3.68h-.41c-2.22.1-3.68,1-5.52,2.2-.54.35-1.09.7-1.67,1-4.77,2.78-10.95,4.24-17.86,4.24a55,55,0,0,1-20.74-4.1c-1.46-.62-2.64-1.22-3.69-1.76-2-1-3.25-1.65-4.84-1.65a6.44,6.44,0,0,0-.86.06c-2,.24-3.15,1.14-4.78,2.39a22.45,22.45,0,0,1-7.13,4,14.76,14.76,0,0,1-4.89.82c-.69,0-1.4,0-2.19-.09s-1.92-.11-3.18-.11c-.87,0-1.75,0-2.69.08a28,28,0,0,0-7.09,1.39c-2.19.62-5.2.94-10.15,2.15-12.92,3.16-17.66,3.08-20.85,3.08h-.33a23,23,0,0,1-5.4-.31,12,12,0,0,0-3.21-.3,8.06,8.06,0,0,0-1.48.29,15.36,15.36,0,0,0-8.14,5.21l-1.76,2Z" fill="#fcd2b1"/><path d="M250.36,280.24h-171A9.21,9.21,0,0,0,70.86,293l5.59,13.45c14,.49,18.43-.49,19.57-1.62.14-.13,1.22-1.21,2.82-2.56.53-.45,1.16-.93,2-1.49,1.81-1.25,6.3-4.31,11.22-4.08,3.6.16,5.65,2,8.26,3.55,10.77,6.26,26.89,4.08,36.49,0,4.81-2,6.71-4,10.6-3.53,5,.61,6.1,4.42,12.36,6.48,4.38,1.43,5.6.15,12.36.58,4.92.32,5.09,1.05,17.66,4.12,13.69,3.36,17.82,3.56,20.6,3.54,4.46,0,6.56-2,10.59-1.18a17.76,17.76,0,0,1,9.42,5.88,17.76,17.76,0,0,1,9.42-5.88c4-.84,6.13,1.14,10.59,1.18,2.77,0,6.9-.18,20.6-3.54,12.57-3.07,12.74-3.8,17.65-4.12,6.77-.43,8,.85,12.36-.58,6.26-2.06,7.34-5.87,12.37-6.48,3.89-.48,5.79,1.49,10.59,3.53,9.6,4.07,25.73,6.25,36.5,0,2.61-1.52,4.66-3.39,8.26-3.55,4.92-.23,9.41,2.83,11.22,4.08a24.13,24.13,0,0,1,1.95,1.49c1.61,1.35,2.69,2.43,2.83,2.56,1.13,1.13,5.54,2.11,19.57,1.62,1.84-4.43,3.68-9,5.52-13.48a9.21,9.21,0,0,0-8.51-12.72Z" fill="#fcd2b1"/><path d="M471.58,197.08c2.31,5.57.66,11.54-3.69,13.36s-9.75-1.23-12.07-6.79-.67-11.54,3.68-13.36S469.26,191.52,471.58,197.08Z" fill="#fcd2b1"/><path d="M33.26,197.08c-2.31,5.57-.67,11.54,3.68,13.36s9.76-1.23,12.08-6.79.66-11.54-3.69-13.36S35.58,191.52,33.26,197.08Z" fill="#fcd2b1"/><path d="M417.44,257.37A35.87,35.87,0,0,0,402,246.89c-51,1.37-102,.29-153.06,1.67-51-1.38-102-.44-153.06-1.81a36.55,36.55,0,0,0-15.43,10.64,35.09,35.09,0,0,0-7.53,15.93A6.42,6.42,0,0,0,79.26,281H419.12a6,6,0,0,0,6-7.06A35.24,35.24,0,0,0,417.44,257.37Z" fill="#7d38ce"/><path d="M234.47,295.84a6.18,6.18,0,1,1-6.18-6.18A6.18,6.18,0,0,1,234.47,295.84Z" fill="#bd9e85"/><path d="M276.84,295.84a6.18,6.18,0,1,1-6.18-6.18A6.18,6.18,0,0,1,276.84,295.84Z" fill="#bd9e85"/></svg>