<svg xmlns="http://www.w3.org/2000/svg" viewBox="0 0 500 500"><path d="M104.78,124H392.91a6.73,6.73,0,0,1,6.73,6.73V244a0,0,0,0,1,0,0H98.05a0,0,0,0,1,0,0V130.72A6.73,6.73,0,0,1,104.78,124Z" fill="#fcd2b1"/><path d="M233.56,207.85H130.78a10.06,10.06,0,0,1-10.07-10.06H243.62A10.05,10.05,0,0,1,233.56,207.85Z" fill="#bd9e85"/><path d="M366.6,207.85H263.81a10.05,10.05,0,0,1-10.06-10.06H376.66A10.06,10.06,0,0,1,366.6,207.85Z" fill="#bd9e85"/><rect x="119.59" y="128.49" width="125.15" height="75.2" rx="4.73" fill="#a8acaf"/><rect x="252.44" y="128.49" width="125.53" height="75.2" rx="2.49" fill="#a8acaf"/><rect x="89.05" y="278.89" width="322.1" height="61.55" fill="#fcd2b1"/><path d="M403.64,286.42H96.58a7.53,7.53,0,0,1-7.53-7.53H411.16A7.53,7.53,0,0,1,403.64,286.42Z" fill="#bd9e85"/><path d="M416.21,244.32l-19.51-25c-2.4-1.94-12.59-3-15.67-3H114.38c-3.25,0-11.2,1.17-13.65,3.3L83.31,243.68Z" fill="#e0e5e9"/><rect x="103.69" y="114.25" width="289.79" height="4.62" fill="#707375"/><circle cx="99.85" cy="116.05" r="4.36" fill="#707375"/><circle cx="398.36" cy="116.05" r="4.36" fill="#707375"/><rect x="132.93" y="114.25" width="15.9" height="14.24" fill="#a8acaf"/><rect x="214.99" y="114.25" width="15.9" height="14.24" fill="#a8acaf"/><rect x="263.72" y="114.25" width="15.9" height="14.24" fill="#a8acaf"/><path d="M115.49,363.78c0,3.26-6,5.9-13.34,5.9s-13.33-2.64-13.33-5.9,6-5.9,13.33-5.9S115.49,360.52,115.49,363.78Z" fill="#fcd2b1"/><path d="M102.15,357.88a27.73,27.73,0,0,0-3.07.17c5.88.61,10.26,2.94,10.26,5.73s-4.38,5.12-10.26,5.73a27.73,27.73,0,0,0,3.07.17c7.37,0,13.34-2.64,13.34-5.9S109.52,357.88,102.15,357.88Z" fill="#bd9e85"/><rect x="345.79" y="114.25" width="15.9" height="14.24" fill="#a8acaf"/><path d="M94.46,340.44h14.36a0,0,0,0,1,0,0v21.47A2.12,2.12,0,0,1,106.7,364H94.46a0,0,0,0,1,0,0V340.44A0,0,0,0,1,94.46,340.44Z" fill="#fcd2b1"/><polygon points="109.33 365.32 105.23 368.4 105.23 340.44 109.33 340.44 109.33 365.32" fill="#bd9e85"/><path d="M380.15,363.78c0,3.26,6,5.9,13.34,5.9s13.33-2.64,13.33-5.9-6-5.9-13.33-5.9S380.15,360.52,380.15,363.78Z" fill="#fcd2b1"/><path d="M393.49,357.88a27.73,27.73,0,0,1,3.07.17c-5.88.61-10.26,2.94-10.26,5.73s4.38,5.12,10.26,5.73a27.73,27.73,0,0,1-3.07.17c-7.37,0-13.34-2.64-13.34-5.9S386.12,357.88,393.49,357.88Z" fill="#bd9e85"/><path d="M386.82,340.44h12.24a2.12,2.12,0,0,1,2.12,2.12V364a0,0,0,0,1,0,0H386.82a0,0,0,0,1,0,0V340.44A0,0,0,0,1,386.82,340.44Z" transform="translate(788 704.48) rotate(180)" fill="#fcd2b1"/><polygon points="386.31 365.32 390.41 368.4 390.41 340.44 386.31 340.44 386.31 365.32" fill="#bd9e85"/><path d="M160.76,164.17l-5-2.3,1.91-5.19-4.94,2.49-2.88-4.73-1.12,5.42-5.49-.7,3.53,4.26-4,3.85,5.53-.1.54,5.5,3.37-4.39,4.64,3-1.33-5.36Zm-9,2.21a2.87,2.87,0,1,1,2.86-2.86A2.87,2.87,0,0,1,151.72,166.38Z" fill="#707375"/><path d="M221.74,164.17l-5-2.3,1.9-5.19-4.93,2.49-2.88-4.73-1.13,5.42-5.48-.7,3.53,4.26-4,3.85,5.53-.1.54,5.5,3.36-4.39,4.65,3-1.34-5.36Zm-9.05,2.21a2.87,2.87,0,1,1,2.87-2.86A2.86,2.86,0,0,1,212.69,166.38Z" fill="#707375"/><path d="M293.71,164.17l-5-2.3,1.9-5.19-4.93,2.49-2.88-4.73-1.13,5.42-5.48-.7,3.53,4.26-4,3.85,5.53-.1.54,5.5,3.37-4.39,4.64,3-1.34-5.36Zm-9,2.21a2.87,2.87,0,1,1,2.86-2.86A2.86,2.86,0,0,1,284.67,166.38Z" fill="#707375"/><path d="M354.69,164.17l-5-2.3,1.9-5.19-4.94,2.49-2.87-4.73-1.13,5.42-5.49-.7,3.53,4.26-4,3.85,5.53-.1.54,5.5,3.36-4.39,4.64,3-1.33-5.36Zm-9.05,2.21a2.87,2.87,0,1,1,2.87-2.86A2.86,2.86,0,0,1,345.64,166.38Z" fill="#707375"/><rect x="375.92" y="116.56" width="4.1" height="7.44" fill="#707375"/><rect x="119.59" y="116.56" width="4.1" height="7.44" fill="#707375"/><path d="M83.69,238.55H416.31a5.9,5.9,0,0,1,5.9,5.9v31.19a6,6,0,0,1-6,6H84.16a6.37,6.37,0,0,1-6.37-6.37V244.44a5.9,5.9,0,0,1,5.9-5.9Z" fill="#a8acaf"/></svg>