<svg xmlns="http://www.w3.org/2000/svg" viewBox="0 0 500 500"><polygon points="92.74 208.61 92.74 295.63 407.93 292.11 417.85 206.33 92.74 208.61" fill="#6128b2"/><path d="M371.92,223.15h0l26.16,13.67,87.23-67.46c-7.13-8.37-14.49-11.22-20.15-14-37.82-18.37-80.75,3.34-83.91,5.6L362,198.9Z" fill="#a87bef"/><polygon points="249.47 222.53 311 219.67 371.93 223.15 398.08 236.82 253.2 236.82 249.47 222.53" fill="#a87bef"/><path d="M463.3,226.88c2.49-.45,14.18-3.39,23-17.41,2.13-3.4,8.36-14.51,5-28-4.26-16.87-20.17-23.66-23-24.86-16.59-7.07-33.23-1-39.16,1.86-25.95,12.73-38.29,59.09-26.73,114.37C351,273.91,300.86,275,249.47,276v50.35H446.09a7.77,7.77,0,0,0,7.76-7.24C456,288.35,461.18,257.61,463.3,226.88Z" fill="#8f58dd"/><path d="M246.36,154.77A35.25,35.25,0,0,1,262.53,151c9.92.23,13.67,5,23.62,4.35,6.7-.45,5.7-2.68,13.05-3.73,12.72-1.81,16.7,4.72,29.21,3.11,7.84-1,6.12-3.55,13.68-4.35,11.58-1.23,15,4.8,28,3.73,5.3-.44,5.89-1.54,12.43-1.86,5.23-.26,14.75-1.21,15.54,1.24.74,2.26-6.71,5.12-12.43,10.57-8,7.64-9.27,17.91-11.81,33.56-2.3,14.2,2.75,21.92-1.87,25.49-3.8,2.94-10,2.46-13.67,1.24-11.45-3.81-28.35-4-62.16-3.11-33.66.88-38.72,6.8-46.62,1.24C241.18,216.69,235.12,200.62,246.36,154.77Z" fill="#7d38ce"/><path d="M411.94,319.87l.12-2c1.19-18.93,3.66-38.15,6.05-56.73s4.83-37.57,6-56.33a40.33,40.33,0,0,1,6-26.3c4.67-7.13,11.48-11.82,18.69-12.88a23.85,23.85,0,0,1,3.53-.25c12.22,0,25.81,8.11,26.57,20.18.64,10.33-8.12,20.57-20.15,23.82-2.07,18-5.05,36.21-7.93,53.85-2.95,18-6,36.66-8.06,55l-.18,1.65Z" fill="#6128b2"/><path d="M457.05,207.9c12.49-2.79,20.58-12.86,20-22.2-.78-12.43-16.68-19.87-28-18.21-13.51,2-25.2,17.73-23.08,37.3-2.37,37.74-9.71,75.48-12.07,113.22h27C445.05,281.3,452.92,244.6,457.05,207.9Z" fill="#7d38ce"/><path d="M128.08,223.15h0l-26.16,13.67L14.69,169.36c7.13-8.37,14.49-11.22,20.15-14,37.82-18.37,80.75,3.34,83.91,5.6L138,198.9Z" fill="#a87bef"/><polygon points="250.53 222.53 189 219.67 128.07 223.15 101.92 236.82 246.8 236.82 250.53 222.53" fill="#a87bef"/><path d="M36.7,226.88c-2.49-.45-14.18-3.39-23-17.41-2.13-3.4-8.36-14.51-5-28,4.26-16.87,20.17-23.66,23-24.86,16.59-7.07,33.23-1,39.16,1.86,26,12.73,38.29,59.09,26.73,114.37,51.38,1,101.52,2.08,152.91,3.11v50.35H53.91a7.77,7.77,0,0,1-7.76-7.24C44,288.35,38.82,257.61,36.7,226.88Z" fill="#8f58dd"/><path d="M253.64,154.77A35.25,35.25,0,0,0,237.47,151c-9.92.23-13.67,5-23.62,4.35-6.7-.45-5.7-2.68-13-3.73-12.72-1.81-16.7,4.72-29.21,3.11-7.84-1-6.12-3.55-13.68-4.35-11.58-1.23-15,4.8-28,3.73-5.3-.44-5.89-1.54-12.43-1.86-5.23-.26-14.75-1.21-15.54,1.24-.74,2.26,6.71,5.12,12.43,10.57,8,7.64,9.27,17.91,11.81,33.56,2.3,14.2-2.75,21.92,1.87,25.49,3.8,2.94,10,2.46,13.67,1.24,11.45-3.81,28.35-4,62.16-3.11,33.66.88,38.72,6.8,46.62,1.24C258.82,216.69,264.88,200.62,253.64,154.77Z" fill="#7d38ce"/><path d="M56.79,319.87l-.19-1.65c-2.06-18.29-4.94-36.92-7.73-54.93-2.74-17.66-5.57-35.91-7.63-53.89-12-3.25-20.79-13.49-20.15-23.82.76-12.07,14.35-20.18,26.57-20.18a23.85,23.85,0,0,1,3.53.25c7.21,1.06,14,5.75,18.69,12.88a40.33,40.33,0,0,1,6,26.3c1.18,18.71,3.63,37.74,6,56.13,2.4,18.62,4.87,37.87,6.07,56.93l.12,2Z" fill="#6128b2"/><path d="M43,207.9C30.46,205.11,22.37,195,23,185.7c.78-12.43,16.68-19.87,28-18.21,13.51,2,25.2,17.73,23.08,37.3,2.37,37.74,9.71,75.3,12.07,113.22H58.46C54.32,281.33,47.08,244.6,43,207.9Z" fill="#7d38ce"/><path d="M97.8,276.91h0a4,4,0,0,0,4,4h296.5a4,4,0,0,0,4-4h0a4,4,0,0,0-4-4H101.84A4,4,0,0,0,97.8,276.91Z" fill="#6128b2"/><polygon points="86.14 319.87 83.35 287.55 416.86 287.55 413.77 319.87 86.14 319.87" fill="#6128b2"/><polygon points="85.37 289.41 414.81 289.41 412.06 318.01 87.86 318.01 85.37 289.41" fill="#7d38ce"/><circle cx="170.53" cy="178.45" r="5.59" transform="translate(-42.33 303.42) rotate(-76.72)" fill="#6128b2"/><path d="M215.28,178.45a5.59,5.59,0,1,1-5.59-5.59A5.6,5.6,0,0,1,215.28,178.45Z" fill="#6128b2"/><circle cx="249.47" cy="178.45" r="5.59" transform="translate(-53.12 228.67) rotate(-45)" fill="#6128b2"/><circle cx="289.87" cy="178.45" r="5.59" transform="matrix(0.16, -0.99, 0.99, 0.16, 67.29, 436)" fill="#6128b2"/><path d="M335.25,178.45a5.6,5.6,0,1,1-5.59-5.59A5.6,5.6,0,0,1,335.25,178.45Z" fill="#6128b2"/><path d="M154.37,200.21a5.6,5.6,0,1,1-5.6-5.6A5.6,5.6,0,0,1,154.37,200.21Z" fill="#6128b2"/><circle cx="187.93" cy="200.21" r="5.59" transform="translate(-50.09 337.12) rotate(-76.72)" fill="#6128b2"/><circle cx="227.72" cy="200.21" r="5.59" transform="translate(-19.45 375.83) rotate(-76.72)" fill="#6128b2"/><circle cx="268.12" cy="200.21" r="5.59" transform="translate(-56.21 117.84) rotate(-22.5)" fill="#6128b2"/><circle cx="307.9" cy="200.21" r="5.59" transform="translate(-51.39 276.36) rotate(-45)" fill="#6128b2"/><path d="M355.76,200.21a5.6,5.6,0,1,1-5.59-5.6A5.59,5.59,0,0,1,355.76,200.21Z" fill="#6128b2"/><path d="M250.53,243.48v25.84a6.74,6.74,0,0,0,6.82,6.66H396a6.74,6.74,0,0,0,6.82-6.66V243.48a6.74,6.74,0,0,0-6.82-6.66H257.35A6.74,6.74,0,0,0,250.53,243.48Z" fill="#8f58dd"/><path d="M249.47,243.48v25.84a6.73,6.73,0,0,1-6.8,6.66H104.6a6.73,6.73,0,0,1-6.8-6.66V243.48a6.73,6.73,0,0,1,6.8-6.66H242.67A6.73,6.73,0,0,1,249.47,243.48Z" fill="#8f58dd"/><rect x="69.67" y="326.33" width="30.52" height="13.12" fill="#fcd2b1"/><polygon points="99.72 339.33 106.7 332.89 106.7 326.09 99.95 326.33 99.72 339.33" fill="#bd9e85"/><rect x="400.36" y="326.33" width="30.52" height="13.12" transform="translate(831.24 665.79) rotate(180)" fill="#fcd2b1"/><polygon points="400.59 339.33 393.36 332.89 393.36 326.09 400.24 326.33 400.59 339.33" fill="#bd9e85"/></svg>