<svg xmlns="http://www.w3.org/2000/svg" viewBox="0 0 2745 1830"><rect x="0.02" y="0.05" width="2744.95" height="1829.89" fill="#bbf2e0"/><path d="M775.9,1787.59l24.83-12.83,67.55-34.94,99.9-51.65,121.88-63,133.48-69,134.31-69.45,125.25-64.76L1589.28,1367l76.35-39.48c12-6.22,24.22-12.22,36.13-18.68l1.54-.8c3.92-2,.45-8-3.47-5.92L1675,1315l-67.55,34.93q-49.95,25.84-99.91,51.66l-121.87,63-133.49,69L1117.88,1603,992.64,1667.8l-106.18,54.91-76.35,39.48c-12,6.22-24.22,12.22-36.13,18.68-.51.28-1,.53-1.54.8-3.92,2-.46,7.95,3.46,5.92Z" fill="#739998"/><path d="M422.32,77.11V1647.3c0,21.21-.32,42.44,0,63.65,0,.93,0,1.86,0,2.78,0,4.42,6.86,4.43,6.86,0V143.54c0-21.2.32-42.44,0-63.65,0-.93,0-1.85,0-2.78,0-4.42-6.86-4.42-6.86,0Z" fill="#739998"/><path d="M961.81,147.14q0,20.67.1,41.33.15,55.74.29,111.48l.42,165.93.51,201.06q.27,110.85.56,221.71.27,111.15.56,222.29.27,104.34.53,208.68.22,87.57.44,175.16.16,63.4.32,126.82c.05,19.89-.2,39.81.15,59.7,0,.87,0,1.74,0,2.61,0,4.41,6.87,4.42,6.86,0q0-20.67-.1-41.33-.15-55.74-.28-111.48l-.42-165.94-.51-201.05q-.29-110.86-.56-221.72l-.57-222.28q-.25-104.34-.53-208.68-.21-87.58-.44-175.16-.17-63.42-.32-126.83c-.05-19.89.2-39.81-.15-59.69,0-.87,0-1.74,0-2.61,0-4.42-6.87-4.43-6.86,0Z" fill="#739998"/><path d="M1072.47,174.81V1569.15c0,18.83-.3,37.69,0,56.52,0,.83,0,1.65,0,2.47,0,4.42,6.87,4.43,6.87,0V233.8c0-18.83.3-37.69,0-56.52,0-.83,0-1.65,0-2.47,0-4.42-6.87-4.43-6.87,0Z" fill="#739998"/><path d="M1003.31,154.06V1600.65c0,19.54-.31,39.11,0,58.64,0,.86,0,1.71,0,2.57,0,4.42,6.86,4.42,6.86,0V215.26c0-19.54.31-39.1,0-58.64,0-.85,0-1.71,0-2.56,0-4.42-6.86-4.43-6.86,0Z" fill="#739998"/><path d="M1143.37,202.47v1331.3c0,18-.3,36,0,54,0,.79,0,1.57,0,2.36,0,4.42,6.86,4.42,6.86,0V258.8c0-18,.3-36,0-54,0-.79,0-1.57,0-2.36,0-4.41-6.86-4.42-6.86,0Z" fill="#739998"/><path d="M1418.3,277.11V1399.94c0,15.16-.26,30.35,0,45.52,0,.66,0,1.32,0,2,0,4.41,6.86,4.42,6.86,0V324.62c0-15.16.27-30.36,0-45.52,0-.66,0-1.32,0-2,0-4.41-6.86-4.42-6.86,0Z" fill="#739998"/><path d="M1442.51,863.86v546.63c0,7.38-.2,14.78,0,22.15,0,.32,0,.65,0,1,0,4.41,6.86,4.42,6.86,0V887c0-7.38.2-14.78,0-22.15,0-.32,0-.65,0-1,0-4.41-6.86-4.42-6.86,0Z" fill="#739998"/><path d="M1442.51,284V787.15c0,6.82-.21,13.69,0,20.51,0,.29,0,.58,0,.87,0,4.42,6.86,4.43,6.86,0V305.41c0-6.82.21-13.69,0-20.51,0-.29,0-.58,0-.87,0-4.42-6.86-4.42-6.86,0Z" fill="#739998"/><path d="M1478.82,989.23v373c0,17.18-.63,34.49,0,51.66,0,.24,0,.48,0,.71,0,4.42,6.86,4.43,6.86,0v-373c0-17.18.63-34.49,0-51.66,0-.23,0-.47,0-.71,0-4.42-6.86-4.43-6.86,0Z" fill="#739998"/><path d="M1478.82,802.48v16.43a3.43,3.43,0,0,0,6.86,0V802.48a3.43,3.43,0,0,0-6.86,0Z" fill="#739998"/><path d="M1478.39,301.32v351.5c0,16.19-.62,32.51,0,48.68,0,.23,0,.46,0,.69,0,4.42,6.86,4.42,6.86,0V350.69c0-16.19.62-32.51,0-48.68,0-.23,0-.46,0-.69,0-4.42-6.86-4.42-6.86,0Z" fill="#739998"/><path d="M1522.05,1134.47V1393c0,4.41,6.86,4.42,6.86,0V1134.47c0-4.41-6.86-4.42-6.86,0Z" fill="#739998"/><path d="M1522.05,323.8V768.46c0,20.52-.66,41.17,0,61.69,0,.28,0,.57,0,.86,0,4.42,6.86,4.42,6.86,0V386.35c0-20.52.66-41.17,0-61.69,0-.28,0-.57,0-.86,0-4.42-6.86-4.43-6.86,0Z" fill="#739998"/><path d="M1679.4,1249.46v64.84c0,4.42,6.86,4.43,6.86,0v-64.84c0-4.41-6.86-4.42-6.86,0Z" fill="#739998"/><path d="M1679.4,381.44V815.71c0,20.07-.65,40.25,0,60.31,0,.27,0,.54,0,.81,0,4.42,6.86,4.43,6.86,0V442.56c0-20.07.65-40.25,0-60.31,0-.27,0-.54,0-.81,0-4.42-6.86-4.43-6.86,0Z" fill="#739998"/><path d="M1696.69,1257.71v45.35c0,4.42,6.86,4.43,6.86,0v-45.35c0-4.41-6.86-4.42-6.86,0Z" fill="#739998"/><path d="M1696.69,388.35V820.57c0,19.88-.67,39.89,0,59.77,0,.27,0,.54,0,.82,0,4.41,6.86,4.42,6.86,0V448.94c0-19.88.67-39.89,0-59.77,0-.27,0-.54,0-.82,0-4.41-6.86-4.42-6.86,0Z" fill="#739998"/><path d="M1726.09,813.72v89.91c0,4.42,6.86,4.43,6.86,0V813.72c0-4.42-6.86-4.42-6.86,0Z" fill="#739998"/><path d="M1726.09,398.73v308c0,4.17-.29,8.45,0,12.61,0,.18,0,.36,0,.53,0,4.42,6.86,4.43,6.86,0v-308c0-4.17.29-8.45,0-12.61,0-.18,0-.36,0-.53,0-4.42-6.86-4.43-6.86,0Z" fill="#739998"/><path d="M1012.82,667.61V843.12a3.48,3.48,0,0,0,3.43,3.43h13.83a3.49,3.49,0,0,0,3.44-3.43V665.88c0-1.69-1.59-3.66-3.44-3.43l-13.83,1.73c-4.32.54-4.38,7.41,0,6.86l13.83-1.73-3.43-3.43V843.12l3.43-3.44h-13.83l3.43,3.44V667.61C1019.68,663.19,1012.82,663.19,1012.82,667.61Z" fill="#739998"/><path d="M1030.08,846.55l32-.87a3.48,3.48,0,0,0,3.43-3.43V667.61a3.5,3.5,0,0,0-3.43-3.43l-32-1.73c-4.41-.24-4.4,6.62,0,6.86l32,1.73-3.43-3.43V842.25l3.43-3.43-32,.86c-4.4.12-4.42,7,0,6.87Z" fill="#739998"/><path d="M1452.57,702.28V803.92a3.48,3.48,0,0,0,3.44,3.43h8a3.48,3.48,0,0,0,3.43-3.43V701.28c0-1.68-1.59-3.66-3.43-3.43l-8,1c-4.33.54-4.38,7.41,0,6.87l8-1-3.44-3.43V803.92l3.44-3.43h-8c1.14,1.14,2.28,2.29,3.43,3.43V702.28C1459.44,697.87,1452.57,697.86,1452.57,702.28Z" fill="#739998"/><path d="M1464,807.35l18.52-.5a3.49,3.49,0,0,0,3.43-3.43V702.28a3.5,3.5,0,0,0-3.43-3.43l-18.52-1c-4.42-.24-4.4,6.63,0,6.86l18.52,1-3.43-3.44V803.42l3.43-3.43-18.52.5c-4.41.12-4.43,7,0,6.86Z" fill="#739998"/><path d="M1708.06,721.21v92.22a3.47,3.47,0,0,0,3.43,3.43h7.27a3.47,3.47,0,0,0,3.43-3.43V720.3c0-1.68-1.58-3.66-3.43-3.43l-7.27.91c-4.32.54-4.38,7.41,0,6.86l7.27-.91-3.43-3.43v93.13l3.43-3.43h-7.27l3.44,3.43V721.21C1714.93,716.8,1708.06,716.79,1708.06,721.21Z" fill="#739998"/><path d="M1718.76,816.86l16.81-.45A3.49,3.49,0,0,0,1739,813V721.21a3.5,3.5,0,0,0-3.43-3.43l-16.81-.91c-4.41-.24-4.4,6.63,0,6.86l16.81.91-3.43-3.43V813l3.43-3.43-16.81.45c-4.41.12-4.42,7,0,6.86Z" fill="#739998"/><path d="M867.57,122.93V1668c0,20.87-.32,41.77,0,62.63,0,.92,0,1.83,0,2.74,0,4.42,6.86,4.42,6.86,0V188.3c0-20.87.32-41.76,0-62.63,0-.91,0-1.83,0-2.74,0-4.42-6.86-4.42-6.86,0Z" fill="#739998"/><path d="M1525.1,441.37l84.62,26.39,12,3.73c4.22,1.32,6-5.31,1.82-6.62l-84.62-26.38-12-3.73c-4.22-1.32-6,5.3-1.82,6.61Z" fill="#739998"/><path d="M1146.54,323.34,1212.85,344l105.69,33,24.27,7.56c4.22,1.32,6-5.3,1.82-6.61l-66.3-20.68-105.69-32.95-24.27-7.57c-4.23-1.32-6,5.3-1.83,6.62Z" fill="#739998"/><path d="M425.7,98.57,470,112.37l106.22,33.12,128.43,40L815,220c18,5.59,35.84,12,54,16.84.25.06.5.15.75.23,4.23,1.32,6-5.3,1.83-6.62l-44.25-13.79L721.11,183.5,592.68,143.45,482.29,109c-18-5.59-35.84-12-54-16.84l-.75-.23c-4.23-1.32-6,5.3-1.83,6.61Z" fill="#739998"/><path d="M1525,448.2l86,26.41,12.36,3.8c4.23,1.3,6-5.33,1.82-6.62l-86-26.41-12.36-3.8c-4.23-1.29-6,5.33-1.82,6.62Z" fill="#739998"/><path d="M1146.21,331.89l66.67,20.47L1319.05,385l24.26,7.45c4.23,1.3,6-5.33,1.83-6.62l-66.67-20.47-106.17-32.6L1148,325.27c-4.23-1.29-6,5.33-1.83,6.62Z" fill="#739998"/><path d="M425.7,110.68l44.36,13.62,106.12,32.58,128.3,39.39,110.88,34c17.91,5.5,35.77,11.78,53.9,16.55l.76.23c4.23,1.3,6-5.32,1.82-6.61l-44.36-13.62L721.36,194.27,593.07,154.89l-110.89-34c-17.91-5.5-35.77-11.78-53.89-16.55-.26-.06-.51-.15-.76-.23-4.23-1.3-6,5.32-1.83,6.62Z" fill="#739998"/><path d="M1524.72,502.29,1610,523.22l12.31,3c4.29,1,6.12-5.57,1.83-6.62l-85.24-20.93-12.31-3c-4.29-1.06-6.11,5.56-1.82,6.61Z" fill="#739998"/><path d="M1147.64,409.7,1213.91,426l104.72,25.71,24.11,5.92c4.29,1.05,6.11-5.56,1.82-6.62l-66.27-16.27L1173.58,409l-24.12-5.92c-4.28-1.06-6.11,5.56-1.82,6.61Z" fill="#739998"/><path d="M425.13,232.29l44.63,11,106.36,26.12,128.5,31.55L815.7,328.2c18,4.42,36,9.33,54.08,13.28.26,0,.52.12.78.19,4.29,1.05,6.12-5.57,1.82-6.62l-44.63-11L721.39,298l-128.5-31.55L481.81,239.15c-18-4.43-36-9.34-54.08-13.28l-.78-.19c-4.29-1.06-6.12,5.56-1.82,6.61Z" fill="#739998"/><path d="M1524.86,509.51l85.25,20.2,12.15,2.88c4.3,1,6.13-5.6,1.83-6.62l-85.25-20.2-12.15-2.88c-4.3-1-6.13,5.6-1.83,6.62Z" fill="#739998"/><path d="M1146,419.76l66.82,15.83,106,25.11,24.28,5.75c4.29,1,6.13-5.6,1.83-6.61L1278.1,444l-106-25.11-24.28-5.75c-4.29-1-6.13,5.6-1.82,6.62Z" fill="#739998"/><path d="M425.7,249.44l44.45,10.5,105.93,25,128.81,30.41,110.67,26.14c18,4.24,35.87,9,53.93,12.74l.75.18c4.3,1,6.13-5.6,1.83-6.62l-44.45-10.5-105.93-25q-64.41-15.23-128.81-30.42L482.21,255.74c-17.95-4.24-35.87-9-53.93-12.74l-.75-.18c-4.3-1-6.13,5.6-1.83,6.62Z" fill="#739998"/><path d="M1525.15,570l85.65,16,12,2.25c4.32.8,6.17-5.81,1.82-6.62l-85.64-16-12-2.25c-4.32-.8-6.17,5.81-1.83,6.62Z" fill="#739998"/><path d="M1145.59,499.21l67.06,12.51,106,19.76L1343,536c4.32.81,6.17-5.8,1.83-6.61l-67.06-12.51-106-19.76-24.4-4.55c-4.31-.8-6.16,5.81-1.82,6.62Z" fill="#739998"/><path d="M425.13,364.86l44.29,8.26L575.78,393l128.64,24,111.16,20.73c17.95,3.35,35.89,6.94,53.89,10.05l.73.14c4.32.8,6.17-5.81,1.82-6.62L827.73,433,721.38,413.15l-128.65-24L481.57,368.43c-17.95-3.35-35.89-6.94-53.89-10.05l-.73-.14c-4.32-.8-6.16,5.81-1.82,6.62Z" fill="#739998"/><path d="M1524.62,578.15l86,15.61,12.25,2.23c4.32.78,6.17-5.83,1.82-6.62l-86-15.62-12.25-2.22c-4.32-.79-6.17,5.83-1.82,6.62Z" fill="#739998"/><path d="M1146.76,509.51l66.45,12.07L1319,540.79l24.09,4.38c4.32.79,6.17-5.83,1.82-6.62l-66.45-12.07-105.78-19.21-24.09-4.38c-4.32-.78-6.17,5.83-1.82,6.62Z" fill="#739998"/><path d="M426.57,378.69,471,386.76,576.77,406l128.67,23.37L816,449.44c18,3.27,36,6.75,54,9.81l.73.13c4.32.78,6.17-5.83,1.83-6.62l-44.39-8.06L722.4,425.48,593.72,402.11,483.13,382c-18-3.27-36-6.76-54-9.81l-.73-.13c-4.31-.79-6.17,5.82-1.82,6.61Z" fill="#739998"/><path d="M1525.54,638.32l84.65,11,11.83,1.54c4.37.56,4.33-6.3,0-6.87l-84.65-11-11.83-1.54c-4.37-.57-4.33,6.3,0,6.86Z" fill="#739998"/><path d="M1147,589.1l66.85,8.69,105.67,13.74,24.39,3.18c4.37.56,4.32-6.31,0-6.87l-66.86-8.69-105.67-13.74L1147,582.24c-4.37-.57-4.33,6.3,0,6.86Z" fill="#739998"/><path d="M427.48,495.53,472,501.32l106.07,13.79,128.2,16.67L817.4,546.24,854.09,551c5.71.74,11.52,1.89,17.26,2.24.25,0,.5.07.75.1,4.36.57,4.32-6.3,0-6.86l-44.52-5.79L721.51,526.9,593.32,510.24,482.18,495.78,445.48,491c-5.7-.74-11.51-1.89-17.26-2.24-.24,0-.49-.07-.74-.1-4.37-.57-4.33,6.3,0,6.86Z" fill="#739998"/><path d="M1525.57,648.46l85.35,10.67,12.26,1.53c4.37.55,4.33-6.32,0-6.86l-85.35-10.68-12.26-1.53c-4.38-.55-4.34,6.32,0,6.87Z" fill="#739998"/><path d="M1148.18,601.25l66.35,8.3,105.31,13.17,24.23,3c4.37.55,4.33-6.32,0-6.86l-66.35-8.3-105.31-13.17-24.23-3c-4.38-.54-4.34,6.33,0,6.87Z" fill="#739998"/><path d="M427.48,511.09l44.18,5.53,106.1,13.27L706.11,546l110.94,13.88,36.54,4.57c5.73.71,11.56,1.83,17.32,2.16.25,0,.5.07.75.1,4.37.54,4.33-6.32,0-6.87l-44.18-5.52L721.38,541,593,524.94,482.09,511.06l-36.55-4.57c-5.72-.72-11.55-1.83-17.31-2.17-.25,0-.5-.06-.75-.09-4.37-.55-4.33,6.32,0,6.86Z" fill="#739998"/><path d="M426.62,625.22l44.47,3.37,106,8L706,646.38l110.86,8.39,36.78,2.79c5.78.44,11.64,1.19,17.44,1.32.25,0,.5,0,.75.06,4.4.33,4.38-6.54,0-6.87l-44.48-3.36-106-8-128.95-9.77-110.85-8.39-36.79-2.79c-5.78-.44-11.63-1.2-17.43-1.32-.25,0-.51,0-.75-.06-4.41-.33-4.39,6.53,0,6.87Z" fill="#739998"/><path d="M427.48,639.05l44.21,3.19,105.36,7.62,128.18,9.26,110.47,8,36.48,2.64c5.71.41,11.49,1.14,17.2,1.24.26,0,.51,0,.76.06,4.41.32,4.38-6.55,0-6.86l-44.2-3.2-105.37-7.61L592.39,644.1l-110.47-8-36.49-2.64c-5.7-.41-11.48-1.13-17.2-1.24-.25,0-.5,0-.75,0-4.41-.32-4.39,6.54,0,6.86Z" fill="#739998"/><path d="M427.48,755.77l44.39.69,105.75,1.65,127.84,2,111.14,1.73c17.83.28,35.81,1.25,53.65.84H871c4.42.07,4.42-6.79,0-6.86l-44.38-.69-105.76-1.65-127.84-2-111.14-1.74c-17.83-.28-35.81-1.25-53.64-.83l-.76,0c-4.42-.06-4.42,6.8,0,6.87Z" fill="#739998"/><path d="M427.48,767.87l44.12.35,105.11.82,127.44,1,110.13.86c17.74.14,35.62.94,53.37.42h.76c4.42,0,4.42-6.83,0-6.86l-44.12-.35-105.11-.82-127.44-1-110.13-.87c-17.74-.14-35.63-.93-53.37-.42h-.76c-4.42,0-4.42,6.83,0,6.86Z" fill="#739998"/><path d="M426.62,881.13l44.15-1.3,106-3.1L704.49,873l110.38-3.24c17.85-.52,35.81-.56,53.65-1.57l.75,0c4.41-.13,4.43-7,0-6.86l-44.15,1.29-106,3.11L591.4,869.44,481,872.67c-17.85.53-35.81.57-53.65,1.57l-.75,0c-4.41.13-4.43,7,0,6.86Z" fill="#739998"/><path d="M427.48,893.23l44-1.72,105.67-4.14,127.78-5,109.8-4.29c17.91-.71,35.89-1,53.77-2.11l.76,0c4.41-.17,4.43-7,0-6.86l-44,1.72-105.67,4.14-127.78,5L482,884.24c-17.9.7-35.89,1-53.77,2.1-.25,0-.51,0-.76,0-4.4.17-4.42,7,0,6.86Z" fill="#739998"/><path d="M424.89,1007.07l44.68-4,106.52-9.61,129.54-11.69L817,971.7c18.13-1.64,36.3-3.07,54.42-4.91l.75-.07c4.36-.39,4.4-7.26,0-6.86l-44.69,4L721,973.5,591.41,985.18,480.05,995.23c-18.13,1.63-36.3,3.07-54.42,4.91l-.74.07c-4.37.39-4.41,7.25,0,6.86Z" fill="#739998"/><path d="M427.48,1019.46l44.11-4.22,105.9-10.14,127.68-12.22,110.38-10.56c17.94-1.72,35.91-3.26,53.84-5.15l.75-.07c4.36-.42,4.4-7.29,0-6.87L826,974.45l-105.9,10.14L592.45,996.81l-110.38,10.56c-17.94,1.72-35.91,3.26-53.84,5.15l-.75.08c-4.36.41-4.4,7.28,0,6.86Z" fill="#739998"/><path d="M427.53,1141.24l44.49-6.06,106-14.44,128.13-17.45,111.09-15.12,36.67-5c5.7-.77,11.61-1.18,17.25-2.35.25,0,.5-.07.75-.1,4.35-.59,2.5-7.2-1.83-6.62l-44.49,6.06-106,14.44-128.13,17.45-111.09,15.13-36.67,5c-5.7.78-11.61,1.19-17.25,2.35-.25,0-.5.07-.75.1-4.35.6-2.5,7.21,1.83,6.62Z" fill="#739998"/><path d="M426.62,1128.85l44.2-5.68L577,1109.51l127.95-16.46,110.6-14.23q26.94-3.46,53.89-6.93l.75-.1c4.32-.56,4.37-7.42,0-6.86l-44.21,5.68L719.8,1084.27l-127.94,16.46L481.26,1115q-27,3.46-53.9,6.93l-.74.1c-4.32.55-4.38,7.42,0,6.86Z" fill="#739998"/><path d="M427.53,1258.25l44.31-8.45,106.38-20.29,127.87-24.38,111.17-21.19,36.61-7c5.74-1.1,11.64-1.89,17.31-3.3.24-.06.49-.1.74-.14,4.33-.83,2.49-7.44-1.83-6.62l-44.31,8.45L719.4,1195.63,591.53,1220l-111.18,21.2-36.6,7c-5.74,1.09-11.64,1.89-17.32,3.3-.23.06-.48.09-.73.14-4.33.82-2.49,7.44,1.83,6.62Z" fill="#739998"/><path d="M426.38,1275.54l44.56-8.89,106.2-21.19,128.33-25.6,111-22.13,36.79-7.34c5.76-1.15,11.68-2,17.38-3.47.24-.06.49-.1.73-.15,4.33-.86,2.5-7.48-1.82-6.61L825,1189.05l-106.2,21.18-128.34,25.6-111,22.14-36.79,7.34c-5.76,1.15-11.68,2-17.38,3.47l-.73.14c-4.33.86-2.49,7.48,1.83,6.62Z" fill="#739998"/><path d="M427,1393.69l44.16-11,106-26.55L705.5,1324l111-27.79c18-4.5,36.27-8.35,54.06-13.53l.78-.2c4.28-1.07,2.47-7.69-1.82-6.61l-44.16,11.05-106.05,26.55L591,1345.56l-111,27.79c-18,4.5-36.27,8.35-54.06,13.53-.26.08-.52.13-.78.2-4.28,1.07-2.47,7.69,1.82,6.61Z" fill="#739998"/><path d="M426.38,1411l44.28-11.62L577,1371.43l128.68-33.8L817,1308.41c18-4.73,36.32-8.86,54.16-14.22.26-.08.52-.14.78-.21,4.26-1.12,2.45-7.74-1.83-6.62L825.81,1299l-106.35,27.93-128.69,33.8-111.29,29.22c-18,4.73-36.32,8.86-54.16,14.22-.25.08-.51.14-.77.21-4.27,1.12-2.46,7.74,1.83,6.61Z" fill="#739998"/><path d="M428.1,1527.42l44.35-13.9,105.69-33.13,127.77-40L817,1405.55c17.85-5.6,35.9-10.79,53.62-16.81l.76-.23c4.2-1.32,2.41-7.94-1.82-6.62l-44.35,13.9-105.69,33.12-127.77,40-111,34.8c-17.86,5.6-35.9,10.79-53.62,16.81l-.76.24c-4.2,1.31-2.41,7.94,1.82,6.62Z" fill="#739998"/><path d="M427,1544.71l44.33-14.21,106.4-34.08,128.26-41.09,110.81-35.5c17.93-5.75,36-11.11,53.84-17.25l.75-.24c4.19-1.34,2.4-8-1.82-6.62l-44.33,14.2L718.78,1444,590.52,1485.1l-110.81,35.5c-17.93,5.75-36,11.11-53.83,17.25l-.75.24c-4.19,1.34-2.4,8,1.82,6.62Z" fill="#739998"/><path d="M427,1660.56l44.67-16.16,106.47-38.52,128.68-46.55L818,1519.08c18.09-6.54,36.3-12.85,54.31-19.65l.73-.26c4.12-1.49,2.34-8.12-1.83-6.62l-44.66,16.16L720.1,1547.23l-128.67,46.55L480.17,1634c-18.1,6.54-36.31,12.85-54.31,19.65l-.73.26c-4.12,1.49-2.35,8.12,1.82,6.62Z" fill="#739998"/><path d="M427,1684.76,471,1668l105.77-40.22,128-48.64,110.55-42c17.87-6.79,35.81-13.42,53.61-20.38l.73-.28c4.09-1.55,2.31-8.19-1.82-6.62l-44,16.75L718,1566.81,590,1615.45l-110.55,42c-17.87,6.79-35.81,13.42-53.61,20.38l-.73.28c-4.09,1.55-2.32,8.19,1.82,6.61Z" fill="#739998"/><path d="M1147.67,680.55l66.3,3.82,104.83,6,24.26,1.39c4.41.26,4.39-6.6,0-6.86l-66.31-3.82-104.83-6-24.25-1.39c-4.42-.26-4.4,6.61,0,6.86Z" fill="#739998"/><path d="M1147.09,690.06l66.59,3.51,106,5.59,24.2,1.28c4.41.23,4.4-6.63,0-6.86l-66.59-3.51-106-5.6-24.2-1.27c-4.42-.24-4.4,6.63,0,6.86Z" fill="#739998"/><path d="M1147.09,767.87l66.5.49,105.14.77,24.33.18c4.41,0,4.42-6.83,0-6.86l-66.51-.49-105.14-.77-24.32-.18c-4.42,0-4.42,6.83,0,6.86Z" fill="#739998"/><path d="M1147.67,776.52l65.86.13,105.42.23,24.11,0c4.41,0,4.42-6.85,0-6.87l-65.87-.13-105.42-.23-24.1-.05c-4.42,0-4.43,6.86,0,6.87Z" fill="#739998"/><path d="M1147.67,851.45l66.31-2.11,105.7-3.35,24.24-.77c4.41-.14,4.43-7,0-6.86l-66.32,2.1-105.69,3.35-24.24.77c-4.41.14-4.43,7,0,6.87Z" fill="#739998"/><path d="M1146.51,860.67l66.65-2.65,106.12-4.22,24.22-1c4.4-.18,4.42-7,0-6.86l-66.65,2.64-106.12,4.22-24.22,1c-4.4.17-4.42,7,0,6.86Z" fill="#739998"/><path d="M1146.51,938.48l67.16-5.21L1319.83,925l24.5-1.9c4.37-.34,4.41-7.2,0-6.86l-67.17,5.21L1171,929.72l-24.5,1.9c-4.37.34-4.41,7.2,0,6.86Z" fill="#739998"/><path d="M1147.09,948.28l66.45-5.59,105.81-8.89,24.15-2c4.36-.37,4.4-7.23,0-6.86L1277,930.49l-105.8,8.89-24.15,2c-4.37.36-4.41,7.23,0,6.86Z" fill="#739998"/><path d="M1147.67,1031.68l66.45-8.25,105.48-13.1,24.26-3c4.33-.53,4.38-7.4,0-6.86l-66.45,8.26-105.48,13.1-24.26,3c-4.33.54-4.38,7.41,0,6.86Z" fill="#739998"/><path d="M1147.09,1040.33l66.82-8.46,105.62-13.37,24.37-3.08c4.33-.55,4.38-7.42,0-6.87l-66.82,8.46-105.62,13.37-24.37,3.09c-4.32.54-4.38,7.41,0,6.86Z" fill="#739998"/><path d="M1147.42,1122.63l66.59-12.42,106.23-19.83,24.5-4.57c4.34-.81,2.5-7.42-1.82-6.61l-66.59,12.42-106.23,19.82-24.5,4.57c-4.34.81-2.5,7.43,1.82,6.62Z" fill="#739998"/><path d="M1148,1132.43l66.5-12.86L1320,1099.18l24.22-4.68c4.33-.84,2.5-7.45-1.83-6.62l-66.5,12.86-105.5,20.39-24.22,4.68c-4.33.84-2.5,7.45,1.82,6.62Z" fill="#739998"/><path d="M1148,1213.12l66.5-16.21,105.56-25.73,24.3-5.92c4.29-1,2.47-7.67-1.82-6.62L1276,1174.85l-105.55,25.73-24.3,5.92c-4.29,1-2.48,7.67,1.82,6.62Z" fill="#739998"/><path d="M1146.85,1227l66.89-17.47,105.66-27.6,24.28-6.34c4.27-1.12,2.46-7.74-1.82-6.62L1275,1186.39,1169.3,1214l-24.28,6.35c-4.27,1.11-2.46,7.73,1.83,6.61Z" fill="#739998"/><path d="M1148,1308.8l66.45-21.8,105.76-34.7,24-7.89c4.18-1.37,2.39-8-1.83-6.61L1276,1259.6l-105.75,34.69-24,7.89c-4.18,1.37-2.39,8,1.82,6.62Z" fill="#739998"/><path d="M1146.85,1318l67-21.74,106-34.37,24.49-7.94c4.18-1.36,2.39-8-1.83-6.62l-67,21.74-106,34.37L1145,1311.4c-4.18,1.36-2.39,8,1.83,6.62Z" fill="#739998"/><path d="M1148,1397.56l66.73-25.24,105.5-39.91,24.31-9.2c4.1-1.55,2.32-8.19-1.82-6.62L1276,1341.84l-105.5,39.9-24.31,9.2c-4.1,1.55-2.32,8.19,1.82,6.62Z" fill="#739998"/><path d="M1146.85,1410.82l66.81-26.37,106-41.85L1344,1333c4.06-1.61,2.29-8.24-1.83-6.62l-66.81,26.37-106,41.85L1145,1404.2c-4.06,1.6-2.29,8.24,1.83,6.62Z" fill="#739998"/><path d="M1347.06,1485.49V306.39c0-15.89.27-31.81,0-47.7,0-.68,0-1.36,0-2,0-4.42-6.86-4.42-6.86,0v1178c0,16.19-.24,32.39,0,48.57,0,.76,0,1.52,0,2.28,0,4.41,6.86,4.42,6.86,0Z" fill="#739998"/><path d="M1627.18,859.54V365.59c0-4.42-6.86-4.43-6.86,0v494c0,4.42,6.86,4.43,6.86,0Z" fill="#739998"/><path d="M1627.18,1343.7V1197.3c0-4.42-6.86-4.42-6.86,0v146.4c0,4.41,6.86,4.42,6.86,0Z" fill="#739998"/><path d="M1525.91,701.73l85.57,4.92,12.13.7c4.41.26,4.4-6.61,0-6.86L1538,695.57l-12.13-.7c-4.41-.26-4.39,6.61,0,6.86Z" fill="#739998"/><path d="M1525.48,710.38l85.34,3.41,11.92.48c4.42.17,4.41-6.69,0-6.86L1537.41,704l-11.93-.48c-4.42-.17-4.41,6.69,0,6.87Z" fill="#739998"/><path d="M1525.91,772.19l85.34.38,11.93.06c4.41,0,4.42-6.85,0-6.87l-85.34-.38-11.93,0c-4.41,0-4.42,6.84,0,6.86Z" fill="#739998"/><path d="M1526.78,779.54l84.35-.75,12-.11c4.41,0,4.42-6.9,0-6.87l-84.35.76-12,.11c-4.42,0-4.43,6.9,0,6.86Z" fill="#739998"/><path d="M1537.58,837.47l75.08-.38,10.52-.05c4.41,0,4.42-6.89,0-6.87l-75.08.38-10.52.06c-4.41,0-4.42,6.88,0,6.86Z" fill="#739998"/><path d="M1560.06,845.25l54.8-1.13,7.88-.17c4.41-.09,4.43-7,0-6.86L1568,838.22l-7.89.17c-4.41.09-4.42,7,0,6.86Z" fill="#739998"/><path d="M1527.83,1227.7l70-29.21,10.11-4.22c4-1.68,2.25-8.32-1.82-6.62l-70,29.21-10.11,4.22c-4,1.68-2.25,8.32,1.82,6.62Z" fill="#739998"/><path d="M1528.65,1237.73l79.84-34.87,11.23-4.9c4-1.76.55-7.68-3.46-5.93l-79.84,34.87-11.23,4.9c-4,1.76-.55,7.68,3.46,5.93Z" fill="#739998"/><path d="M514.56,212.42l-60.64-17.34-8.67-2.48,2.52,3.31q-.22-19.2-.43-38.4L443,160.82l60.55,18.74,8.8,2.72L509.83,179l.39,36.76c0,4.41,6.91,4.42,6.86,0L516.69,179a3.53,3.53,0,0,0-2.52-3.31l-60.55-18.73-8.8-2.73a3.47,3.47,0,0,0-4.34,3.31l.42,38.4a3.51,3.51,0,0,0,2.52,3.31l60.64,17.34,8.68,2.48C517,220.25,518.81,213.63,514.56,212.42Z" fill="#739998"/><path d="M512,338.65l-58.44-11.33-8.3-1.61,2.52,3.31q-.21-19.18-.41-38.36L443,294l58.35,12.74,8.43,1.84-2.52-3.31q.18,18.36.37,36.71c.05,4.42,6.91,4.43,6.87,0q-.19-18.34-.38-36.71a3.49,3.49,0,0,0-2.52-3.31l-58.34-12.74-8.43-1.84a3.47,3.47,0,0,0-4.34,3.31q.19,19.17.41,38.36a3.45,3.45,0,0,0,2.52,3.3l58.44,11.33,8.29,1.61C514.46,346.1,516.3,339.49,512,338.65Z" fill="#739998"/><path d="M511.06,460.14l-58.34-6.8-8.4-1c1.14,1.14,2.29,2.28,3.43,3.43q-.21-19.17-.41-38.33L443,420.77,501.36,429l8.41,1.18-2.52-3.31q.18,18.35.37,36.69c.05,4.41,6.91,4.42,6.87,0q-.19-18.35-.38-36.69c0-1.34-1.05-3.1-2.52-3.3l-58.37-8.24-8.4-1.19c-2.14-.3-4.37.85-4.34,3.31q.19,19.17.41,38.33a3.53,3.53,0,0,0,3.43,3.43l58.34,6.8,8.4,1C515.43,467.51,515.4,460.64,511.06,460.14Z" fill="#739998"/><path d="M511.63,587.81l-60-3.81-8.48-.54,3.43,3.43-.42-38.3L442.75,552l60,5.24,8.48.74-3.43-3.43.39,36.67c.05,4.41,6.91,4.42,6.86,0q-.19-18.33-.38-36.67a3.53,3.53,0,0,0-3.44-3.43l-60-5.24-8.49-.75a3.47,3.47,0,0,0-3.43,3.44q.21,19.14.43,38.3a3.5,3.5,0,0,0,3.43,3.43l60,3.81,8.48.54C516,595,516,588.08,511.63,587.81Z" fill="#739998"/><path d="M510.48,711.15l-58-1.3-8.19-.18,3.43,3.43q-.21-19.14-.41-38.29l-3.43,3.43,58,2.74,8.2.38-3.43-3.43q.19,18.33.38,36.65c0,4.42,6.9,4.43,6.86,0q-.2-18.32-.37-36.65a3.5,3.5,0,0,0-3.44-3.43l-58-2.73-8.2-.39a3.46,3.46,0,0,0-3.43,3.43q.19,19.14.4,38.29a3.49,3.49,0,0,0,3.44,3.43l58,1.3,8.2.18C514.9,718.11,514.9,711.25,510.48,711.15Z" fill="#739998"/><path d="M512.78,837.38l-59.22.71-8.37.1,3.43,3.43-.42-38.27-3.43,3.43,59.25.72,8.38.1L509,804.17q.19,18.33.38,36.64c0,4.41,6.91,4.42,6.87,0l-.39-36.64a3.48,3.48,0,0,0-3.43-3.43L453.15,800l-8.38-.11a3.48,3.48,0,0,0-3.43,3.44l.42,38.27a3.47,3.47,0,0,0,3.43,3.43l59.22-.71,8.37-.1C517.2,844.19,517.21,837.33,512.78,837.38Z" fill="#739998"/><path d="M510.39,958l-58.64,5.82-8.29.83,3.43,3.43-.42-38.24L443,933.29l58.67-4.4,8.3-.62-3.43-3.43q.19,18.3.38,36.61c0,4.41,6.91,4.42,6.86,0q-.18-18.32-.38-36.61a3.46,3.46,0,0,0-3.43-3.43l-58.67,4.4-8.3.62a3.5,3.5,0,0,0-3.43,3.43q.21,19.13.41,38.24c0,1.72,1.57,3.61,3.44,3.43l58.64-5.83,8.29-.82C514.74,964.45,514.79,957.58,510.39,958Z" fill="#739998"/><path d="M510.14,1076l-58.33,9.07-8.4,1.3q2.16,1.66,4.34,3.31-.21-19.11-.41-38.21-1.72,1.71-3.43,3.43l58.37-7.65,8.4-1.1-3.43-3.43q.18,18.3.37,36.58c.05,4.42,6.91,4.43,6.87,0q-.19-18.29-.38-36.58c0-1.67-1.57-3.67-3.43-3.43l-58.37,7.64-8.4,1.1c-1.83.24-3.46,1.38-3.43,3.44q.19,19.1.41,38.21c0,2.43,2.16,3.65,4.34,3.31l58.34-9.07,8.4-1.31C516.32,1082,514.47,1075.33,510.14,1076Z" fill="#739998"/><path d="M510.14,1198.31l-58.44,10.62-8.29,1.51,4.34,3.31q-.21-19.11-.41-38.21l-2.52,3.31,58.37-9.17,8.4-1.32-4.34-3.31q.18,18.29.37,36.57c.05,4.42,6.91,4.43,6.87,0q-.19-18.28-.38-36.57c0-2.43-2.16-3.65-4.34-3.31l-58.37,9.18-8.41,1.32a3.42,3.42,0,0,0-2.51,3.3q.19,19.11.41,38.21a3.49,3.49,0,0,0,4.34,3.31l58.44-10.62,8.3-1.51C516.31,1204.14,514.47,1197.53,510.14,1198.31Z" fill="#739998"/><path d="M510.14,1326.27l-58.51,15.78-8.22,2.21q2.16,1.66,4.34,3.31-.21-19.08-.41-38.16l-2.52,3.3,58.44-14.32,8.33-2-4.34-3.31q.18,18.27.37,36.54c.05,4.41,6.91,4.42,6.87,0q-.19-18.27-.38-36.54a3.47,3.47,0,0,0-4.34-3.31l-58.45,14.33-8.33,2a3.46,3.46,0,0,0-2.51,3.31q.19,19.08.41,38.16a3.47,3.47,0,0,0,4.34,3.31l58.51-15.78c2.74-.73,5.49-1.47,8.23-2.22C516.23,1331.74,514.42,1325.12,510.14,1326.27Z" fill="#739998"/><path d="M510.14,1458.55l-58.26,18.71-8.47,2.72,4.34,3.31q-.21-19.08-.41-38.15l-2.52,3.31,58.42-17.33,8.35-2.48q-2.18-1.65-4.34-3.31.18,18.27.37,36.53c.05,4.41,6.91,4.42,6.87,0q-.19-18.27-.38-36.53a3.46,3.46,0,0,0-4.34-3.3l-58.42,17.33-8.36,2.47a3.51,3.51,0,0,0-2.51,3.31q.19,19.08.41,38.15a3.46,3.46,0,0,0,4.34,3.31l58.27-18.71,8.47-2.73C516.16,1463.82,514.36,1457.19,510.14,1458.55Z" fill="#739998"/><path d="M510.14,1589.1l-55,19.14-7.89,2.74,4.35,3.31-.39-38.14-2.52,3.31,54.93-17.69,8-2.57-4.34-3.31q.18,18.25.35,36.52c.05,4.41,6.91,4.42,6.87,0l-.36-36.52a3.46,3.46,0,0,0-4.34-3.31l-54.94,17.69-8,2.57a3.51,3.51,0,0,0-2.52,3.31q.19,19.06.38,38.14c0,2.11,2.2,4.06,4.35,3.31l55-19.14,7.89-2.75C516.11,1594.27,514.33,1587.64,510.14,1589.1Z" fill="#739998"/><path d="M1217.74,392.44l-41.85-12-6-1.71,2.52,3.31q-.15-13.26-.29-26.51l-4.34,3.31,41.78,12.93,6.08,1.88-2.52-3.3.27,25.36c0,4.42,6.91,4.43,6.86,0l-.27-25.36a3.52,3.52,0,0,0-2.52-3.31l-41.79-12.93-6.07-1.88a3.45,3.45,0,0,0-4.34,3.3q.13,13.26.29,26.51a3.52,3.52,0,0,0,2.52,3.31l41.85,12,6,1.71C1220.17,400.28,1222,393.66,1217.74,392.44Z" fill="#739998"/><path d="M1216,479.56l-40.33-7.82-5.73-1.11,2.52,3.31q-.14-13.24-.28-26.48l-4.34,3.31,40.26,8.8,5.82,1.27-2.52-3.31q.14,12.68.26,25.34c0,4.41,6.91,4.42,6.86,0q-.13-12.67-.26-25.34a3.48,3.48,0,0,0-2.52-3.31l-40.27-8.79-5.81-1.27a3.47,3.47,0,0,0-4.34,3.3q.13,13.25.28,26.48a3.48,3.48,0,0,0,2.52,3.31l40.33,7.82,5.73,1.11C1218.44,487,1220.29,480.4,1216,479.56Z" fill="#739998"/><path d="M1215,563.37l-40.26-4.69L1169,558l3.43,3.43q-.14-13.21-.28-26.45l-4.34,3.31,40.28,5.68,5.8.82-2.52-3.31q.14,12.66.26,25.32c0,4.42,6.91,4.43,6.86,0q-.13-12.66-.26-25.32c0-1.34-1-3.1-2.52-3.3l-40.28-5.69-5.8-.82c-2.14-.3-4.37.85-4.34,3.31q.13,13.23.28,26.45a3.52,3.52,0,0,0,3.43,3.43l40.26,4.7,5.8.67c1.86.22,3.41-1.73,3.43-3.43C1218.49,564.77,1216.87,563.59,1215,563.37Z" fill="#739998"/><path d="M1215.44,651.48l-41.39-2.62-5.86-.38,3.43,3.44q-.13-13.23-.29-26.44l-3.43,3.43,41.41,3.62,5.86.51-3.43-3.43.27,25.31c0,4.41,6.91,4.42,6.86,0l-.27-25.31a3.52,3.52,0,0,0-3.43-3.43l-41.41-3.62-5.86-.51a3.46,3.46,0,0,0-3.43,3.43q.15,13.21.29,26.44a3.51,3.51,0,0,0,3.43,3.43l41.39,2.63,5.86.37C1219.85,658.63,1219.83,651.76,1215.44,651.48Z" fill="#739998"/><path d="M1214.64,736.61l-40-.89-5.66-.13,3.43,3.43q-.14-13.21-.28-26.42-1.73,1.71-3.43,3.43l40,1.88,5.66.27-3.43-3.43q.13,12.64.26,25.29c0,4.42,6.91,4.43,6.86,0q-.12-12.64-.26-25.29a3.49,3.49,0,0,0-3.43-3.43l-40-1.89-5.66-.27a3.48,3.48,0,0,0-3.43,3.44q.13,13.2.28,26.42a3.48,3.48,0,0,0,3.43,3.43l40,.9,5.66.13C1219.06,743.57,1219.06,736.71,1214.64,736.61Z" fill="#739998"/><path d="M1216.23,823.73l-40.87.49-5.78.07,3.43,3.43q-.13-13.22-.28-26.42l-3.44,3.43,40.9.51,5.78.07-3.43-3.43q.14,12.63.26,25.28c0,4.41,6.91,4.43,6.86,0q-.12-12.64-.26-25.28a3.5,3.5,0,0,0-3.43-3.44l-40.89-.5-5.79-.07a3.47,3.47,0,0,0-3.43,3.43q.15,13.22.29,26.42a3.48,3.48,0,0,0,3.43,3.43l40.87-.49,5.78-.07C1220.65,830.54,1220.66,823.68,1216.23,823.73Z" fill="#739998"/><path d="M1214.58,907l-40.47,4-5.72.57,3.43,3.43q-.15-13.2-.29-26.39l-3.43,3.43,40.49-3,5.73-.43-3.43-3.43q.13,12.63.26,25.26c0,4.41,6.91,4.42,6.86,0q-.12-12.63-.26-25.26a3.46,3.46,0,0,0-3.43-3.43l-40.49,3-5.73.43a3.5,3.5,0,0,0-3.43,3.43q.13,13.2.28,26.39c0,1.72,1.57,3.62,3.44,3.43l40.47-4,5.72-.57a3.52,3.52,0,0,0,3.43-3.43C1218,908.71,1216.42,906.81,1214.58,907Z" fill="#739998"/><path d="M1214.13,988.46l-40.27,6.26-5.79.9,4.34,3.31q-.14-13.18-.28-26.37-1.73,1.71-3.43,3.43l40.28-5.28,5.8-.76-3.43-3.43q.14,12.63.26,25.25c0,4.41,6.91,4.42,6.86,0q-.13-12.63-.26-25.25c0-1.68-1.57-3.67-3.43-3.43q-20.15,2.64-40.28,5.28l-5.8.75c-1.83.24-3.46,1.38-3.43,3.44q.13,13.19.28,26.37c0,2.43,2.16,3.65,4.34,3.31l40.27-6.26,5.79-.9c1.85-.29,2.83-2.58,2.4-4.22C1217.83,988.9,1216,988.18,1214.13,988.46Z" fill="#739998"/><path d="M1214.13,1072.87l-40.33,7.33-5.73,1,4.34,3.31q-.14-13.18-.28-26.37l-2.52,3.31,40.28-6.33,5.8-.91-4.34-3.31q.14,12.61.26,25.24c0,4.41,6.91,4.42,6.86,0q-.13-12.62-.26-25.24c0-2.43-2.16-3.65-4.34-3.31l-40.29,6.33-5.79.91a3.43,3.43,0,0,0-2.52,3.31q.13,13.18.28,26.37a3.49,3.49,0,0,0,4.34,3.31l40.34-7.33,5.72-1C1220.29,1078.7,1218.45,1072.09,1214.13,1072.87Z" fill="#739998"/><path d="M1214.13,1161.18l-40.38,10.89-5.68,1.53,4.34,3.31q-.14-13.17-.28-26.34l-2.52,3.31,40.33-9.89,5.75-1.41-4.34-3.31q.14,12.62.26,25.22c0,4.41,6.91,4.43,6.86,0q-.13-12.62-.26-25.22a3.47,3.47,0,0,0-4.34-3.31l-40.34,9.89-5.74,1.41a3.47,3.47,0,0,0-2.52,3.31q.13,13.17.28,26.34a3.47,3.47,0,0,0,4.34,3.31l40.38-10.89,5.68-1.53C1220.21,1166.65,1218.4,1160,1214.13,1161.18Z" fill="#739998"/><path d="M1214.13,1252.48l-40.22,12.91-5.84,1.88,4.34,3.31q-.14-13.17-.28-26.33l-2.52,3.31,40.32-12,5.76-1.71-4.34-3.31q.14,12.6.26,25.21c0,4.41,6.91,4.42,6.86,0q-.13-12.61-.26-25.21a3.46,3.46,0,0,0-4.34-3.31l-40.32,12-5.76,1.71a3.5,3.5,0,0,0-2.52,3.31q.13,13.17.28,26.33a3.45,3.45,0,0,0,4.34,3.3l40.22-12.91,5.84-1.88C1220.14,1257.75,1218.35,1251.12,1214.13,1252.48Z" fill="#739998"/><path d="M1214.13,1342.58l-38,13.21-5.45,1.89,4.35,3.31-.27-26.32-2.52,3.3,37.91-12.2,5.52-1.78-4.35-3.31q.14,12.6.25,25.21c0,4.41,6.9,4.42,6.86,0l-.24-25.21a3.47,3.47,0,0,0-4.35-3.31L1176,1329.58l-5.51,1.78a3.5,3.5,0,0,0-2.52,3.31q.13,13.15.26,26.32c0,2.1,2.2,4.06,4.35,3.31l38-13.21,5.44-1.89C1220.1,1347.75,1218.31,1341.12,1214.13,1342.58Z" fill="#739998"/><path d="M1574.6,489.56l-30.53-8.73-4.36-1.24,2.52,3.31-.21-19.33-4.35,3.31,30.47,9.43,4.43,1.37-2.51-3.31q.09,9.25.19,18.5c0,4.41,6.91,4.42,6.86,0q-.09-9.25-.19-18.5a3.52,3.52,0,0,0-2.52-3.31l-30.47-9.43-4.43-1.37a3.46,3.46,0,0,0-4.35,3.31q.12,9.66.22,19.33a3.5,3.5,0,0,0,2.52,3.3l30.52,8.73,4.36,1.25C1577,497.39,1578.84,490.77,1574.6,489.56Z" fill="#739998"/><path d="M1573.29,553.09l-29.41-5.71-4.18-.81,2.52,3.31q-.1-9.64-.2-19.3l-4.35,3.31L1567,540.3l4.23.93c-.83-1.11-1.67-2.21-2.51-3.31l.18,18.47c0,4.42,6.91,4.43,6.87,0q-.11-9.24-.19-18.47a3.49,3.49,0,0,0-2.52-3.31l-29.36-6.42-4.24-.92a3.48,3.48,0,0,0-4.35,3.31l.21,19.3a3.48,3.48,0,0,0,2.52,3.31l29.41,5.7,4.17.81a3.53,3.53,0,0,0,4.23-2.39A3.46,3.46,0,0,0,1573.29,553.09Z" fill="#739998"/><path d="M1572.38,614.17,1543,610.74l-4.23-.49,3.43,3.43q-.1-9.64-.2-19.29l-4.35,3.31,29.38,4.15,4.22.6c-.83-1.11-1.67-2.21-2.51-3.31l.18,18.46c0,4.41,6.91,4.42,6.87,0q-.11-9.23-.19-18.46c0-1.35-1-3.1-2.52-3.31l-29.37-4.15-4.23-.6c-2.15-.3-4.37.85-4.35,3.31l.21,19.29a3.52,3.52,0,0,0,3.43,3.43l29.36,3.43,4.23.49c1.84.21,3.43-1.73,3.43-3.43A3.51,3.51,0,0,0,1572.38,614.17Z" fill="#739998"/><path d="M1572.67,678.42l-30.19-1.92-4.26-.27q1.71,1.72,3.43,3.43l-.21-19.27-3.44,3.43,30.2,2.64,4.27.37c-1.14-1.14-2.28-2.29-3.43-3.43q.11,9.23.2,18.45c0,4.41,6.91,4.42,6.86,0q-.11-9.23-.19-18.45a3.52,3.52,0,0,0-3.44-3.43l-30.2-2.64L1538,657a3.48,3.48,0,0,0-3.43,3.44q.11,9.63.21,19.27a3.53,3.53,0,0,0,3.44,3.44L1568.4,685l4.27.27C1577.08,685.56,1577.06,678.7,1572.67,678.42Z" fill="#739998"/><path d="M1572.09,740.5l-29.17-.66-4.13-.09,3.43,3.43q-.1-9.63-.2-19.27l-3.44,3.43,29.19,1.38,4.13.19-3.43-3.43q.09,9.22.19,18.45c0,4.41,6.9,4.42,6.86,0q-.09-9.23-.19-18.45a3.5,3.5,0,0,0-3.43-3.43l-29.19-1.38-4.13-.19a3.46,3.46,0,0,0-3.43,3.43l.21,19.27a3.48,3.48,0,0,0,3.43,3.43l29.17.65,4.13.1C1576.5,747.46,1576.5,740.59,1572.09,740.5Z" fill="#739998"/><path d="M1573.25,804l-29.81.36-4.21,0,3.43,3.43-.21-19.26L1539,792l29.82.36,4.22.06-3.44-3.44q.11,9.22.2,18.44c0,4.42,6.91,4.43,6.86,0q-.11-9.21-.19-18.44a3.49,3.49,0,0,0-3.43-3.43l-29.82-.36-4.22-.05a3.47,3.47,0,0,0-3.43,3.43l.21,19.26a3.47,3.47,0,0,0,3.43,3.43l29.8-.36,4.22,0C1577.66,810.83,1577.67,804,1573.25,804Z" fill="#739998"/><path d="M1568.77,1178.13c.06,2.53.12,5,.17,7.58l2.52-3.31-27.67,9.63-4,1.38,4.35,3.31q-.11-9.6-.2-19.19l-2.52,3.3,18.45-5.87c4.2-1.34,2.4-8-1.82-6.62l-18.45,5.88a3.51,3.51,0,0,0-2.52,3.31q.09,9.6.2,19.19c0,2.11,2.19,4.06,4.34,3.31l27.68-9.63,4-1.38a3.53,3.53,0,0,0,2.52-3.31l-.18-7.58c-.1-4.41-7-4.42-6.86,0Z" fill="#739998"/><path d="M802.75,258.08l-21.33-5.89,2.52,3.31V233.6l-4.34,3.3,21.33,6.25-2.52-3.31v21.55c0,4.42,6.86,4.43,6.86,0V239.84a3.51,3.51,0,0,0-2.52-3.31l-21.33-6.24a3.46,3.46,0,0,0-4.34,3.31v21.9a3.52,3.52,0,0,0,2.52,3.31l21.33,5.89C805.19,265.88,807,259.26,802.75,258.08Z" fill="#739998"/><path d="M802.75,301.18,781.42,296l2.52,3.31V277.4l-4.34,3.31,21.33,5.54-2.52-3.31v21.55c0,4.42,6.86,4.42,6.86,0V282.94a3.49,3.49,0,0,0-2.52-3.31l-21.33-5.54a3.47,3.47,0,0,0-4.34,3.31v21.9a3.48,3.48,0,0,0,2.52,3.31l21.33,5.19C805.22,308.84,807.05,302.23,802.75,301.18Z" fill="#739998"/><path d="M802.75,369.61l-21.33-5.89,2.52,3.31V345.12l-4.34,3.31,21.33,6.25-2.52-3.31v21.55c0,4.42,6.86,4.42,6.86,0V351.37a3.51,3.51,0,0,0-2.52-3.31l-21.33-6.24a3.46,3.46,0,0,0-4.34,3.3V367a3.52,3.52,0,0,0,2.52,3.31l21.33,5.89C805.19,377.41,807,370.79,802.75,369.61Z" fill="#739998"/><path d="M802.75,412.71l-21.33-5.19,2.52,3.31v-21.9l-4.34,3.31,21.33,5.54-2.52-3.31V416c0,4.41,6.86,4.42,6.86,0V394.47a3.49,3.49,0,0,0-2.52-3.31l-21.33-5.54a3.47,3.47,0,0,0-4.34,3.31v21.9a3.48,3.48,0,0,0,2.52,3.31l21.33,5.19C805.22,420.37,807.05,413.76,802.75,412.71Z" fill="#739998"/><path d="M802.75,476.82l-18.65-2.51-2.68-.36,2.52,3.31v-21.9l-4.34,3.31,18.65,2.81,2.68.41-2.52-3.31v21.55a3.43,3.43,0,1,0,6.86,0V458.58a3.46,3.46,0,0,0-2.52-3.31l-18.65-2.82-2.68-.4c-2.16-.33-4.34.87-4.34,3.31v21.9c0,1.33,1.06,3.11,2.52,3.31l18.65,2.51,2.68.36c1.83.24,3.68-.44,4.22-2.4C805.59,479.44,804.6,477.07,802.75,476.82Z" fill="#739998"/><path d="M801.84,519.79l-18.68-1.89-2.65-.27,3.43,3.43v-21.9l-3.43,3.43,18.68,2.21,2.65.31-3.43-3.43v21.54a3.43,3.43,0,1,0,6.86,0V501.68a3.52,3.52,0,0,0-3.43-3.43L783.16,496l-2.65-.31c-1.84-.22-3.43,1.75-3.43,3.43v21.9a3.52,3.52,0,0,0,3.43,3.44l18.68,1.89,2.65.27c1.84.18,3.43-1.72,3.43-3.44A3.51,3.51,0,0,0,801.84,519.79Z" fill="#739998"/><path d="M801.84,588.23l-18.65-2.13-2.68-.31,3.43,3.43v-21.9l-3.43,3.43,18.64,2.44,2.69.35-3.43-3.43v21.55a3.43,3.43,0,1,0,6.86,0V570.11c0-2-1.59-3.19-3.43-3.43l-18.65-2.44-2.68-.35c-1.84-.24-3.43,1.77-3.43,3.43v21.9a3.52,3.52,0,0,0,3.43,3.43l18.64,2.13,2.69.31c1.84.21,3.43-1.73,3.43-3.43A3.51,3.51,0,0,0,801.84,588.23Z" fill="#739998"/><path d="M801.84,631.32l-18.67-1.51-2.66-.22,3.43,3.43v-21.9l-3.43,3.43,18.63,1.82,2.7.27-3.43-3.43v21.54a3.43,3.43,0,1,0,6.86,0V613.21a3.52,3.52,0,0,0-3.43-3.44L783.21,608l-2.7-.26c-1.85-.18-3.43,1.72-3.43,3.43V633a3.52,3.52,0,0,0,3.43,3.44L799.18,638l2.66.22a3.46,3.46,0,0,0,3.43-3.44A3.5,3.5,0,0,0,801.84,631.32Z" fill="#739998"/><path d="M801.84,696l-18.65-.62-2.68-.09,3.43,3.43v-21.9l-3.43,3.43,18.64.93,2.69.13-3.43-3.43v21.55a3.43,3.43,0,1,0,6.86,0V677.89a3.5,3.5,0,0,0-3.43-3.43l-18.65-.93-2.68-.13a3.47,3.47,0,0,0-3.43,3.43v21.9a3.49,3.49,0,0,0,3.43,3.43l18.64.62,2.69.09a3.46,3.46,0,0,0,3.43-3.43A3.5,3.5,0,0,0,801.84,696Z" fill="#739998"/><path d="M801.84,739.11H780.51l3.43,3.43V720.63l-3.43,3.44,18.66.3,2.67,0L798.41,721v21.55a3.43,3.43,0,0,0,6.86,0V721a3.48,3.48,0,0,0-3.43-3.43l-18.66-.31-2.67,0a3.48,3.48,0,0,0-3.43,3.43v21.91a3.48,3.48,0,0,0,3.43,3.43h21.33a3.43,3.43,0,1,0,0-6.86Z" fill="#739998"/><path d="M801.84,803.21l-18.65.9-2.68.13,3.43,3.43v-21.9l-3.43,3.43,18.64-.59,2.69-.08-3.43-3.43v21.55a3.43,3.43,0,1,0,6.86,0V785.1a3.48,3.48,0,0,0-3.43-3.44l-18.65.59-2.68.08a3.5,3.5,0,0,0-3.43,3.44v21.9a3.46,3.46,0,0,0,3.43,3.43l18.64-.9,2.69-.12a3.44,3.44,0,0,0,0-6.87Z" fill="#739998"/><path d="M801.84,846.31l-18.66,1.51-2.67.22,3.43,3.43v-21.9L780.51,833l18.66-1.2,2.67-.18-3.43-3.43v21.55a3.43,3.43,0,1,0,6.86,0V828.19a3.46,3.46,0,0,0-3.43-3.43L783.18,826l-2.67.17a3.5,3.5,0,0,0-3.43,3.43v21.9a3.46,3.46,0,0,0,3.43,3.43l18.66-1.51,2.67-.22a3.51,3.51,0,0,0,3.43-3.43A3.46,3.46,0,0,0,801.84,846.31Z" fill="#739998"/><path d="M802.27,907l-19,2-2.72.29,3.43,3.43v-21.9l-3.43,3.43,19-1.72,2.72-.25-3.43-3.43v21.55a3.43,3.43,0,0,0,6.86,0V888.84a3.46,3.46,0,0,0-3.43-3.43l-19,1.72-2.72.25a3.51,3.51,0,0,0-3.43,3.43v21.9c0,1.71,1.58,3.63,3.43,3.43l19-2,2.72-.29a3.52,3.52,0,0,0,3.43-3.43C805.7,908.69,804.12,906.76,802.27,907Z" fill="#739998"/><path d="M801.36,950.18l-19,2.65-2.75.38,4.34,3.31v-21.9l-3.43,3.43,19.06-2.34,2.7-.34-3.43-3.43v21.55a3.43,3.43,0,0,0,6.86,0V931.94c0-1.68-1.58-3.66-3.43-3.43l-19.06,2.34-2.7.33c-1.84.23-3.43,1.39-3.43,3.44v21.9c0,2.46,2.18,3.61,4.34,3.31l19-2.65,2.74-.38c1.84-.26,2.84-2.6,2.4-4.22C805,950.6,803.2,949.93,801.36,950.18Z" fill="#739998"/><path d="M800.93,1013.86l-18.66,2.78-2.67.4,4.34,3.31v-21.9l-3.43,3.43,18.66-2.48,2.67-.35-3.43-3.43v21.55a3.43,3.43,0,1,0,6.86,0V995.62c0-1.68-1.58-3.68-3.43-3.43l-18.66,2.47-2.67.36c-1.84.24-3.43,1.37-3.43,3.43v21.9c0,2.44,2.18,3.63,4.34,3.31l18.66-2.79,2.67-.4c1.83-.27,2.84-2.58,2.4-4.22C804.61,1014.29,802.77,1013.58,800.93,1013.86Z" fill="#739998"/><path d="M800.93,1057l-21.33,3.89,4.34,3.31v-21.91l-2.52,3.31,21.33-3.54q-2.18-1.65-4.34-3.31v21.55c0,4.42,6.86,4.43,6.86,0v-21.55c0-2.41-2.18-3.66-4.34-3.3l-21.33,3.53a3.46,3.46,0,0,0-2.52,3.31v21.91a3.47,3.47,0,0,0,4.34,3.3l21.33-3.89a3.46,3.46,0,0,0,2.4-4.22A3.51,3.51,0,0,0,800.93,1057Z" fill="#739998"/><path d="M800.93,1120.63l-18.67,3.17-2.66.45,4.34,3.31v-21.91l-2.52,3.31,18.67-2.85,2.66-.41-4.34-3.31v21.55c0,4.42,6.86,4.43,6.86,0v-21.55c0-2.43-2.18-3.64-4.34-3.31l-18.67,2.86-2.66.41a3.44,3.44,0,0,0-2.52,3.3v21.91c0,2.4,2.18,3.67,4.34,3.31l18.67-3.17,2.66-.45c1.83-.31,2.85-2.56,2.4-4.22A3.52,3.52,0,0,0,800.93,1120.63Z" fill="#739998"/><path d="M800.93,1163.73l-21.33,4.32,4.34,3.31v-21.9l-2.52,3.31,21.33-4-4.34-3.31V1167c0,4.42,6.86,4.42,6.86,0v-21.55a3.48,3.48,0,0,0-4.34-3.31l-21.33,4a3.46,3.46,0,0,0-2.52,3.31v21.9a3.48,3.48,0,0,0,4.34,3.31l21.33-4.32a3.43,3.43,0,1,0-1.82-6.62Z" fill="#739998"/><path d="M800.93,1232.16l-21.33,4.48,4.34,3.31v-21.9l-2.52,3.31,21.33-4.13q-2.18-1.65-4.34-3.31v21.55c0,4.42,6.86,4.42,6.86,0v-21.55a3.48,3.48,0,0,0-4.34-3.31l-21.33,4.13a3.46,3.46,0,0,0-2.52,3.31V1240a3.48,3.48,0,0,0,4.34,3.31l21.33-4.48a3.43,3.43,0,0,0-1.82-6.62Z" fill="#739998"/><path d="M800.93,1275.26l-21.33,5.19,4.34,3.31v-21.91l-2.52,3.31,21.33-4.83-4.34-3.31v21.55c0,4.41,6.86,4.42,6.86,0V1257a3.47,3.47,0,0,0-4.34-3.31l-21.33,4.83a3.48,3.48,0,0,0-2.52,3.31v21.91a3.46,3.46,0,0,0,4.34,3.3l21.33-5.18C807,1280.84,805.22,1274.21,800.93,1275.26Z" fill="#739998"/><path d="M800.93,1341.53l-21.33,6.35,4.34,3.31v-21.9l-2.52,3.31,21.33-6-4.34-3.31v21.55c0,4.41,6.86,4.42,6.86,0v-21.55a3.46,3.46,0,0,0-4.34-3.31l-21.33,6a3.51,3.51,0,0,0-2.52,3.31v21.9a3.46,3.46,0,0,0,4.34,3.31l21.33-6.35C807,1346.89,805.17,1340.26,800.93,1341.53Z" fill="#739998"/><path d="M800.93,1384.63l-21.33,7.06,4.34,3.31v-21.91l-2.52,3.31,21.33-6.7-4.34-3.31v21.55c0,4.41,6.86,4.42,6.86,0v-21.55a3.46,3.46,0,0,0-4.34-3.31l-21.33,6.71a3.51,3.51,0,0,0-2.52,3.3V1395a3.46,3.46,0,0,0,4.34,3.3l21.33-7a3.52,3.52,0,0,0,2.4-4.23A3.46,3.46,0,0,0,800.93,1384.63Z" fill="#739998"/><path d="M800.49,1455.8l-20.89,7.93,4.34,3.31v-21.9l-2.52,3.31,20.9-7.58-4.35-3.31v21.55c0,4.41,6.87,4.42,6.87,0v-21.55c0-2.09-2.22-4.08-4.35-3.31l-20.89,7.58a3.55,3.55,0,0,0-2.52,3.31V1467c0,2.06,2.22,4.12,4.34,3.31l20.9-7.93a3.53,3.53,0,0,0,2.39-4.23C804.26,1456.54,802.23,1455.13,800.49,1455.8Z" fill="#739998"/><path d="M800.49,1498.9l-20.89,8.64,4.34,3.31V1489l-2.52,3.31,20.9-8.3-4.35-3.3v21.54c0,4.42,6.87,4.42,6.87,0v-21.54c0-2-2.23-4.15-4.35-3.31l-20.89,8.29a3.56,3.56,0,0,0-2.52,3.31v21.9c0,2,2.23,4.18,4.34,3.31l20.9-8.65c1.71-.71,2.93-2.27,2.39-4.22C804.27,1499.67,802.22,1498.18,800.49,1498.9Z" fill="#739998"/><path d="M1324,405.17l-15.61-4.31,2.52,3.31v-16l-4.35,3.3,15.61,4.58-2.52-3.31v15.77a3.43,3.43,0,0,0,6.86,0V392.71a3.5,3.5,0,0,0-2.51-3.31l-15.61-4.57a3.47,3.47,0,0,0-4.35,3.31v16a3.52,3.52,0,0,0,2.52,3.31l15.61,4.31a3.43,3.43,0,0,0,1.83-6.62Z" fill="#739998"/><path d="M1324,436.72l-15.61-3.8,2.52,3.31v-16l-4.35,3.31,15.61,4.05-2.52-3.31V440a3.43,3.43,0,1,0,6.86,0V424.25a3.49,3.49,0,0,0-2.51-3.31l-15.61-4.05a3.47,3.47,0,0,0-4.35,3.31v16a3.49,3.49,0,0,0,2.52,3.31l15.61,3.79a3.43,3.43,0,1,0,1.83-6.61Z" fill="#739998"/><path d="M1324,482.76l-15.61-4.31,2.52,3.31v-16L1306.6,469l15.61,4.57-2.52-3.31v15.77a3.43,3.43,0,0,0,6.86,0V470.3A3.51,3.51,0,0,0,1324,467l-15.61-4.57a3.47,3.47,0,0,0-4.35,3.31v16a3.5,3.5,0,0,0,2.52,3.31l15.61,4.31a3.43,3.43,0,0,0,1.83-6.62Z" fill="#739998"/><path d="M1324,514.31l-15.61-3.8,2.52,3.31v-16l-4.35,3.31,15.61,4-2.52-3.31v15.78a3.43,3.43,0,0,0,6.86,0V501.84a3.48,3.48,0,0,0-2.51-3.3l-15.61-4.06a3.47,3.47,0,0,0-4.35,3.31v16a3.49,3.49,0,0,0,2.52,3.31l15.61,3.8a3.43,3.43,0,0,0,1.83-6.62Z" fill="#739998"/><path d="M1324,563.82,1310.38,562l-2-.27L1311,565V549l-4.35,3.31,13.65,2.06,2,.3-2.52-3.31v15.77a3.43,3.43,0,0,0,6.86,0V551.36a3.45,3.45,0,0,0-2.51-3.31L1310.38,546l-2-.3a3.58,3.58,0,0,0-3,.62,3.34,3.34,0,0,0-1.36,2.69v16c0,1.34,1.06,3.11,2.52,3.31l13.65,1.84,2,.26a3.78,3.78,0,0,0,2.64-.35,3.42,3.42,0,0,0,1.58-2.05C1326.8,566.43,1325.94,564.08,1324,563.82Z" fill="#739998"/><path d="M1323.12,595.24l-13.67-1.38-1.94-.2,3.44,3.43v-16l-3.44,3.43,13.68,1.62,1.93.22-3.43-3.43v15.77a3.43,3.43,0,0,0,6.86,0V582.9a3.53,3.53,0,0,0-3.43-3.43l-13.67-1.61-1.94-.23c-1.84-.22-3.43,1.75-3.43,3.43v16a3.52,3.52,0,0,0,3.43,3.43l13.68,1.39,1.93.19a3.43,3.43,0,0,0,3.43-3.43A3.53,3.53,0,0,0,1323.12,595.24Z" fill="#739998"/><path d="M1323.12,643.31l-13.64-1.56-2-.22L1311,645v-16l-3.44,3.43,13.65,1.78,2,.26-3.43-3.43v15.77a3.43,3.43,0,0,0,6.86,0V631c0-2-1.58-3.19-3.43-3.43l-13.64-1.79-2-.25c-1.84-.24-3.43,1.76-3.43,3.43v16a3.53,3.53,0,0,0,3.43,3.43l13.65,1.56,2,.22c1.79.21,3.51-1.72,3.43-3.43A3.53,3.53,0,0,0,1323.12,643.31Z" fill="#739998"/><path d="M1323.12,674.85l-13.66-1.11-2-.15L1311,677V661l-3.44,3.43,13.64,1.33,2,.19-3.43-3.43v15.77a3.43,3.43,0,0,0,6.86,0V662.51a3.52,3.52,0,0,0-3.43-3.43l-13.63-1.33-2-.19c-1.84-.18-3.43,1.72-3.43,3.43v16a3.52,3.52,0,0,0,3.43,3.43l13.67,1.11,1.94.15a3.44,3.44,0,0,0,3.43-3.43A3.52,3.52,0,0,0,1323.12,674.85Z" fill="#739998"/><path d="M1323.12,719.6l-13.64-.45-2-.07,3.44,3.44v-16l-3.44,3.43,13.65.67,2,.1-3.43-3.43V723a3.43,3.43,0,0,0,6.86,0V707.26a3.5,3.5,0,0,0-3.43-3.43l-13.64-.68-2-.1a3.48,3.48,0,0,0-3.43,3.44v16a3.5,3.5,0,0,0,3.43,3.43l13.65.45,2,.06a3.45,3.45,0,0,0,3.43-3.43A3.5,3.5,0,0,0,1323.12,719.6Z" fill="#739998"/><path d="M1323.12,751.14h-15.61l3.44,3.44v-16l-3.44,3.43,13.66.22,1.95,0c-1.14-1.14-2.29-2.28-3.43-3.43v15.78a3.43,3.43,0,0,0,6.86,0V738.8a3.49,3.49,0,0,0-3.43-3.43l-13.65-.22-2,0a3.48,3.48,0,0,0-3.43,3.44v16a3.48,3.48,0,0,0,3.43,3.43h15.61a3.44,3.44,0,0,0,0-6.87Z" fill="#739998"/><path d="M1323.12,797.2l-13.64.65-2,.1,3.44,3.43v-16l-3.44,3.43,13.65-.43,2-.06-3.43-3.43v15.77a3.43,3.43,0,0,0,6.86,0V784.86a3.47,3.47,0,0,0-3.43-3.43l-13.64.43-2,.06a3.49,3.49,0,0,0-3.43,3.43v16a3.47,3.47,0,0,0,3.43,3.43l13.65-.65,2-.1a3.43,3.43,0,1,0,0-6.86Z" fill="#739998"/><path d="M1323.12,828.74l-13.65,1.11-2,.16,3.44,3.43v-16l-3.44,3.43,13.66-.88,1.95-.13-3.43-3.43v15.77a3.43,3.43,0,1,0,6.86,0V816.4a3.46,3.46,0,0,0-3.43-3.43l-13.65.88-2,.13a3.5,3.5,0,0,0-3.43,3.43v16a3.46,3.46,0,0,0,3.43,3.43l13.66-1.11,1.95-.15a3.5,3.5,0,0,0,3.43-3.44C1326.48,830.44,1325,828.59,1323.12,828.74Z" fill="#739998"/><path d="M1323.44,874.28l-13.93,1.24-2,.17,3.44,3.44v-16l-3.44,3.43,13.93-1,2-.14-3.43-3.44v15.78a3.43,3.43,0,1,0,6.86,0V861.94a3.46,3.46,0,0,0-3.43-3.43l-13.93,1-2,.14a3.51,3.51,0,0,0-3.43,3.44v16a3.46,3.46,0,0,0,3.43,3.43l13.93-1.24,2-.17a3.51,3.51,0,0,0,3.43-3.43C1326.79,876,1325.35,874.12,1323.44,874.28Z" fill="#739998"/><path d="M1323.44,905.83l-13.94,1.69-2,.24,3.44,3.43v-16l-3.44,3.43,14-1.46,2-.21-3.43-3.43v15.77a3.43,3.43,0,1,0,6.86,0V893.49c0-1.71-1.58-3.63-3.43-3.43l-13.94,1.46-2,.21a3.51,3.51,0,0,0-3.43,3.43v16c0,1.69,1.58,3.65,3.43,3.43l14-1.69,2-.24c1.77-.21,3.52-1.42,3.43-3.43C1326.79,907.59,1325.35,905.6,1323.44,905.83Z" fill="#739998"/><path d="M1322.21,956l-13.65,2-2,.29,4.35,3.31v-16l-3.44,3.43,13.66-1.81,1.95-.26c-1.14-1.14-2.29-2.28-3.43-3.43v15.77a3.43,3.43,0,0,0,6.86,0V943.55c0-1.67-1.58-3.68-3.43-3.43l-13.65,1.81-2,.26c-1.84.24-3.43,1.38-3.43,3.43v16a3.38,3.38,0,0,0,1.36,2.7,3.57,3.57,0,0,0,3,.61l13.65-2,2-.29c1.78-.27,2.91-2.6,2.39-4.22A3.55,3.55,0,0,0,1322.21,956Z" fill="#739998"/><path d="M1322.21,987.56l-15.61,2.84,4.35,3.31v-16l-2.52,3.31L1324,978.4l-4.35-3.31v15.78a3.43,3.43,0,0,0,6.86,0V975.09c0-2.41-2.18-3.66-4.34-3.31l-15.61,2.59a3.46,3.46,0,0,0-2.52,3.31v16a3.48,3.48,0,0,0,4.35,3.31l15.61-2.85a3.44,3.44,0,0,0,2.39-4.22A3.52,3.52,0,0,0,1322.21,987.56Z" fill="#739998"/><path d="M1322.21,1038.77l-13.66,2.32-2,.33,4.35,3.31v-16l-2.52,3.3,13.66-2.08c.64-.11,1.3-.2,2-.3l-4.35-3.31v15.77a3.43,3.43,0,0,0,6.86,0v-15.77a3.37,3.37,0,0,0-1.35-2.7,3.61,3.61,0,0,0-3-.61l-13.66,2.09-2,.3a3.44,3.44,0,0,0-2.52,3.31v16c0,2.41,2.19,3.67,4.35,3.3l13.66-2.31,2-.33a3.44,3.44,0,0,0,2.39-4.22A3.53,3.53,0,0,0,1322.21,1038.77Z" fill="#739998"/><path d="M1322.21,1070.31l-15.61,3.17,4.35,3.31v-16l-2.52,3.3,15.61-2.9-4.35-3.31v15.77a3.43,3.43,0,0,0,6.86,0v-15.77a3.48,3.48,0,0,0-4.34-3.31l-15.61,2.91a3.45,3.45,0,0,0-2.52,3.31v16a3.49,3.49,0,0,0,4.35,3.31l15.61-3.17a3.45,3.45,0,0,0,2.39-4.22A3.52,3.52,0,0,0,1322.21,1070.31Z" fill="#739998"/><path d="M1322.21,1119.25l-15.61,3.27,4.35,3.31v-16l-2.52,3.31,15.61-3-4.35-3.31v15.77a3.43,3.43,0,1,0,6.86,0v-15.77a3.49,3.49,0,0,0-4.34-3.31l-15.61,3a3.47,3.47,0,0,0-2.52,3.31v16a3.48,3.48,0,0,0,4.35,3.31l15.61-3.28a3.45,3.45,0,0,0,2.39-4.22A3.51,3.51,0,0,0,1322.21,1119.25Z" fill="#739998"/><path d="M1322.21,1150.79l-15.61,3.79,4.35,3.31v-16l-2.52,3.31,15.61-3.54-4.35-3.3v15.77a3.43,3.43,0,0,0,6.86,0v-15.77a3.47,3.47,0,0,0-4.34-3.31l-15.61,3.53a3.49,3.49,0,0,0-2.52,3.31v16a3.47,3.47,0,0,0,4.35,3.31l15.61-3.79a3.43,3.43,0,0,0-1.83-6.62Z" fill="#739998"/><path d="M1322.21,1201.88l-15.61,4.66,4.35,3.31v-16l-2.52,3.3,15.61-4.39-4.35-3.31v15.77a3.43,3.43,0,1,0,6.86,0v-15.77a3.47,3.47,0,0,0-4.34-3.31l-15.61,4.4a3.49,3.49,0,0,0-2.52,3.31v16a3.46,3.46,0,0,0,4.35,3.3l15.61-4.65a3.43,3.43,0,0,0-1.83-6.62Z" fill="#739998"/><path d="M1322.21,1233.43l-15.61,5.17,4.35,3.3v-16l-2.52,3.3,15.61-4.91-4.35-3.31v15.78a3.43,3.43,0,0,0,6.86,0V1221a3.45,3.45,0,0,0-4.34-3.3l-15.61,4.91a3.52,3.52,0,0,0-2.52,3.31v16a3.46,3.46,0,0,0,4.35,3.31L1324,1240a3.43,3.43,0,0,0-1.83-6.61Z" fill="#739998"/><path d="M1321.89,1281.77l-15.29,5.81,4.35,3.31v-16l-2.52,3.31,15.29-5.55-4.35-3.31v15.77a3.44,3.44,0,0,0,6.87,0v-15.77c0-2.09-2.22-4.09-4.35-3.31l-15.29,5.55a3.56,3.56,0,0,0-2.52,3.31v16c0,2.06,2.22,4.11,4.35,3.31l15.29-5.81a3.53,3.53,0,0,0,2.4-4.22C1325.59,1282.53,1323.69,1281.09,1321.89,1281.77Z" fill="#739998"/><path d="M1321.89,1313.31l-15.29,6.33L1311,1323v-16l-2.52,3.31,15.29-6.07-4.35-3.31v15.77a3.44,3.44,0,0,0,6.87,0v-15.77c0-2-2.23-4.15-4.35-3.31l-15.29,6.07a3.57,3.57,0,0,0-2.52,3.31v16c0,2,2.23,4.18,4.35,3.31l15.29-6.33c1.65-.68,3-2.31,2.4-4.22C1325.6,1314.12,1323.67,1312.58,1321.89,1313.31Z" fill="#739998"/><path d="M2105.36,1743.77l-137.55,1c-1.87-66-1.19-232.16-.1-251.07l1.47-4.7c43.83,13.48,79.14,23.52,125.57,28.61,15.64,1.71,31.41,2.47,47.15,3a1503.44,1503.44,0,0,0,200.29-7c29.25-3,60-7.47,84.21-23.54l.19.24c25.28,78.6,10.12,169.18,22.84,250.8Z" fill="#bfd9ef"/><path d="M1920.62,1315.06a22.81,22.81,0,0,0,10.74-24.49l.49-3.79,37.72,5-.06.49c0,3.48-.49,13.91-1.28,28.43C1953.2,1324.06,1920.62,1315.06,1920.62,1315.06Z" fill="#fff"/><path d="M1973.75,1205.47l-.39,1.89c-.22,5.71-.31,11.41-.31,17.08l-1.34,3.48L1909,1203.64l-.52-2.29C1929.77,1196.66,1952,1200.84,1973.75,1205.47Z" fill="#fff"/><path d="M1969.57,1291.75l184.1,24.28,16.44-11.25-198.4-76.86,1.34-3.48c0-5.67.09-11.37.31-17.08l.39-1.89c4,.82,8,1.71,12,2.53,18.15,3.78,37.3,6.74,55.78,3.66,8.27-1.37,18.15-8.44,25.9-8.63,7.9-.15,19.89,7.44,27.2,10.4A1084.71,1084.71,0,0,1,2205,1265.77l.13-.06c1,2.29,2,4.51,3.2,6.71,68.2,28.3,150,53.41,230.7,65.57l-.34,2.17a499.68,499.68,0,0,1-3.81,143.59,87.48,87.48,0,0,1-8.48,6.35c-24.18,16.07-55,20.58-84.21,23.54a1503.44,1503.44,0,0,1-200.29,7c-15.74-.52-31.51-1.28-47.15-3-46.43-5.09-81.74-15.13-125.57-28.61l-5.61-1.74-2.69-2.65c-.18-37.09,4.91-119.56,7.35-164,.79-14.52,1.31-25,1.28-28.43Z" fill="#fff"/><path d="M2214.82,1163.14l-1.49-1.86c-45-12.29-86.47-19-136.21-28.49-44.81-8.51-156.13-8.69-164.21-7.38-7.69,1.25-15.71,2.81-23.85,4.45l-.37-1.86c14.79-63.47,25.07-125.44,33.18-190.1,3.54-28.22,3.42-57.65,13.21-84.43a153.2,153.2,0,0,1,45-64.87c23-19.83,135.66-72.65,162.19-86.71-10.85,17.17-17.1,23.63-27.78,54.16s23.64,52.49,76.55,34.32,92.33-51.58,109.62-73.48c13.82-17.51,14.15-33.67,6.83-38.67,28,14.46,75.67,34.77,102.21,51.24,24.86,15.4,49.41,31.9,69.54,53.16,61.15,64.57,47.21,163.75,48.95,245.71,1.34,64.32,1.16,245.89-14,279.93-13.84,31.11-44.89,34.19-71.77,30.25-1.12-.15-2.28-.33-3.41-.52-80.67-12.16-162.5-37.27-230.7-65.57-1.16-2.2-2.23-4.42-3.2-6.71a108,108,0,0,1-8.91-39.68c-.12-4.43,0-8.82.27-13.21.55-8.84,1.59-17.78,5-26C2204.09,1180.43,2209,1169.36,2214.82,1163.14Z" fill="#fff"/><path d="M1867.4,1186.47l-.34-.55c-21.5.37-28,21-49.41,18.58l-.46.12-13.48-46.73,1.26-.36c7.19-5.46,10.24-8.91,17-12.72,6.2-3.51,13.39-4.7,20.44-5.83,14.82-2.38,31-6,46.67-9.12,8.14-1.64,16.16-3.2,23.85-4.45,8.08-1.31,119.4-1.13,164.21,7.38,49.74,9.46,91.19,16.2,136.21,28.49l1.49,1.86c-5.85,6.22-10.73,17.29-13.38,23.7-3.36,8.2-4.4,17.14-5,26-.24,4.39-.39,8.78-.27,13.21a108,108,0,0,0,8.91,39.68l-.13.06a1084.71,1084.71,0,0,0-110.38-52.34c-7.31-3-19.3-10.55-27.2-10.4-7.75.19-17.63,7.26-25.9,8.63-18.48,3.08-37.63.12-55.78-3.66-4-.82-8-1.71-12-2.53-21.74-4.63-44-8.81-65.27-4.12-1.52.31-3,.71-4.57,1.13-14.28,4-27.06,12.11-40.81,17.6-8.66,3.42-38.34,4.76-40.32-1.95-.64-2.23,1.71-5.28,8.75-9.42C1843.49,1201.69,1855.32,1193.7,1867.4,1186.47Z" fill="#ffe4ce"/><path d="M1694.37,1248.14a21.55,21.55,0,0,0,.61,3l-2.56-.4c-10.89-1.22-27.6-7-34.92-15.15a44.53,44.53,0,0,1-5.89-9.19q-6.54-12.3-13.11-24.61c-.46-.82-.89-1.68-1.34-2.5-1.22-2.32-2.41-5.34-.71-7.32,1.13-1.34,3.08-1.59,4.82-1.59a35.16,35.16,0,0,1,30.75,19.16c1.4,2.84,2.44,5.89,4.3,8.45,4,5.43,8.38,5.76,14.82,7.68l1-.06C1692.63,1233.44,1693.37,1241.34,1694.37,1248.14Z" fill="#ffe4ce"/><path d="M1747.75,1244.18l2.38,2.35c-4,3.14-2.9,8.66,2.47,14.24,9.24,9.67,17.5,19.67,25.86,29.83l-.43.36c-23-10.49-54.26-21.77-76.64-33.24-1.92-1-3.94-2-5.19-3.81a8.39,8.39,0,0,1-1.22-2.75,21.55,21.55,0,0,1-.61-3c-1-6.8-1.74-14.7-2.25-22.51-1.29-19-1.29-37.51-.86-38.22a6,6,0,0,1,4.21-2.37c5.43-.83,13.45,2.41,16.62,6.92s4.49,10,5.62,15.37c2.71,13.18,4.48,19.52,5.3,29.13l1.62-.15Z" fill="#ffe4ce"/><path d="M1857.21,1301.61c-12.11,12.26-45.14,3.93-58.59,4.11-2.53,0-5.21.07-7.5-1.13a15.19,15.19,0,0,1-4.27-3.93c-2.84-3.35-5.61-6.74-8.39-10.06-8.36-10.16-16.62-20.16-25.86-29.83-5.37-5.58-6.5-11.1-2.47-14.24,2.07-1.62,5.55-2.6,10.55-2.6,12.93,0,25.25,8.88,35.56,18.94l.92-.94q13,4.71,26.38,8.47c4.36,1.26,8.78,2.41,13.21,3.48,1,.28,2,.52,3,.77l92,12.13-.49,3.79a22.81,22.81,0,0,1-10.74,24.49c-30.19-5.71-34.34-3.2-64.26-8.82Z" fill="#ffe4ce"/><path d="M1604.76,1022.26c5,16.22,3.48,31-3.26,33.06s-16.19-9.42-21.14-25.65-3.47-31,3.27-33.06S1599.82,1006,1604.76,1022.26Z" fill="#cecece"/><path d="M1831.87,1255.43l5.09,17.66-.21.79c-4.43-1.07-8.85-2.22-13.21-3.48l.15-.48-102.6-353.16s-7.2-12.69-20.16-20.31S1438,819.71,1434.12,818.64c-.4-10.37,6.28-11,6.28-11s258.52,73.51,271.48,81.28,20.19,20.74,20.19,20.74l71.64,248.21,13.48,46.73,4,14Z" fill="#dbdbdb"/><path d="M1863.1,1220.08c13.75-5.49,26.53-13.57,40.81-17.6,1.52-.42,3-.82,4.57-1.13l.52,2.29,62.71,24.28,198.4,76.86-335.47-50.14-2.77.79-10.65-36.84,1.56-.46C1824.76,1224.84,1854.44,1223.5,1863.1,1220.08Z" fill="#ededed"/><path d="M2170.11,1304.78,2153.67,1316l-184.1-24.28-37.72-5-92-12.13c-1-.25-2-.49-3-.77l.21-.79-5.09-17.66,2.77-.79Z" fill="#dbdbdb"/><path d="M1637.16,1199.31c.45.82.88,1.68,1.34,2.5l-1,.52-95.43-37.3a16.25,16.25,0,0,1-9.7-10.53c-14.49-48.55-93.24-313-97.17-328.66a33.71,33.71,0,0,1-1.1-7.2c3.9,1.07,253.94,70.24,266.81,77.81s20.16,20.31,20.16,20.31l102.6,353.16-.15.48q-13.36-3.78-26.38-8.47l-.92.94c-10.31-10.06-22.63-19-35.56-18.94-5,0-8.48,1-10.55,2.6l-2.38-2.35-23.12-7.87-1.62.15c-.82-9.61-2.59-16-5.3-29.13-1.13-5.4-2.45-10.89-5.62-15.37s-11.19-7.75-16.62-6.92a6,6,0,0,0-4.21,2.37c-.43.71-.43,19.19.86,38.22l-1,.06c-6.44-1.92-10.86-2.25-14.82-7.68-1.86-2.56-2.9-5.61-4.3-8.45a35.16,35.16,0,0,0-30.75-19.16c-1.74,0-3.69.25-4.82,1.59C1634.75,1194,1635.94,1197,1637.16,1199.31Zm-35.66-144c6.74-2,8.21-16.84,3.26-33.06s-14.39-27.7-21.13-25.65-8.18,16.87-3.27,33.06S1594.79,1057.39,1601.5,1055.32Z" fill="#ededed"/><path d="M2308.3,339.92s21.54-7.43-3.72-17.09-29-36.4-43.83-46.06c-17.83-11.14-17.08-8.17-29.71-10.4-8.17-1.48-37.89,3-46.06,1.49-16.34-3-53.49-13.37-75-11.89-14.86.75-28.23,11.15-40.11,22.29-10.4,9.66-27.49,20.8-46.06,17.83-7.43-1.49,3,14.11,3,14.11l-29,24.52-11.15,26.74s0,29,.75,37.89c1.48,8.91-6,29.71-13.37,37.14s11.14,5.94,11.14,5.94-2.23,20.06,6.68,34.17c8.92,13.38,23,31.2,23,31.2L2023,513l259.26,74.29s25.26,14.86,25.26,7.43c0-6.69-11.14-16.34-11.88-28.23-2.23-38.63,40.85-52.74,46-87.66s-1.48-40.11-3-60.17,8.17-31.2.75-49C2331.32,351.06,2308.3,339.92,2308.3,339.92Z" fill="#7d38ce" fill-rule="evenodd"/><path d="M2310.52,686.83c-37.14-40.11-37.14-144.11-37.14-144.11a53.35,53.35,0,0,0,21.54-13.37c7.43-7.43,14.86-20.8,14.86-29,.74-48.28-37.14-33.42-37.14-33.42l-11.89,5.2s-4.46,20.05-12.63,32.68c-6.68,10.4-9.66,5.95-13.37,6.69-2.23.74-4.46-24.52-35.66-26.75-24.51-1.48-39.37-7.42-51.25-14.11-27.49-15.6-21.55-28.23-27.49-50.51-4.46-14.86-51.26-22.29-49,1.48.74,5.94-5.94,45.32-12.63,55.72-10.4,17.08-30.46,14.11-32.68,13.37-2.23,0-7.43-4.46-7.43-4.46s3.71,22.29,4.45,35.66c1.49,22.28,2.23,47.54,13.37,72.06,9.66,20.8,23,45.31,36.41,60.91a158,158,0,0,0,36.4,30.46l28.23-.75,3.71,23s-53.61,58.39-13.41,83.89,100.29-16.42,137-39.77S2317.25,693.83,2310.52,686.83Z" fill="#ffe4ce" fill-rule="evenodd"/><path d="M2015.27,486.43c3.36,16.74,4.45,33.73,5.87,50.71,1.18,14,2.73,27.92,7.17,41.31a252.2,252.2,0,0,0,35,68c7.16,9.88,15.1,19.36,24.41,27.3,7.57,6.46,16.56,12.94,26.65,14.39,11.14,1.59,22.64-1.4,33-5.34a173.75,173.75,0,0,0,35.78-19c13.14-8.93,25.72-19.24,35.86-31.53,9.32-11.31,16.08-24.14,22.42-37.29,1.91-4-4-7.45-5.93-3.47-5.28,11-10.75,21.85-18,31.65-8.18,11.05-18.5,20.47-29.44,28.73a190.87,190.87,0,0,1-33.89,20.67c-10.21,4.78-21.54,9-32.94,9.19-10,.19-18.33-4.6-26-10.65-9.13-7.2-17-16.07-24-25.35a247.63,247.63,0,0,1-34.88-64.94c-11-30.83-8.1-64.37-14.48-96.19-.87-4.33-7.49-2.5-6.62,1.82Z" fill="#571519"/><path d="M2260.26,476.59c8.06-4.34,17.71-7.93,27-5.61a23.8,23.8,0,0,1,14.82,11.8c7.67,13.63,3.23,29.74-5.82,41.58a48.82,48.82,0,0,1-29.7,18c-4.32.86-2.49,7.47,1.83,6.62,22.3-4.42,41-22.85,44.27-45.7,2.18-15.34-5.86-32.57-20.86-38.09-11.72-4.32-24.49-.19-35,5.46-3.89,2.09-.43,8,3.47,5.92Z" fill="#571519"/><path d="M2281.3,495.19a24.75,24.75,0,0,0-6.46,5.83,61.42,61.42,0,0,0-4.43,6.09c-.25.4-.5.79-.73,1.19a3.43,3.43,0,1,0,5.92,3.47c.61-1.06,1.29-2.08,2-3.08.33-.47.67-.94,1-1.4a4,4,0,0,1,.58-.77c.06,0-.53.67-.31.39l.15-.18c.11-.15.22-.29.34-.43a35.94,35.94,0,0,1,2.66-3c.52-.51,1.06-1,1.62-1.46s-.57.42-.17.13c.14-.1.28-.21.42-.3a10.34,10.34,0,0,1,.89-.57,3.43,3.43,0,1,0-3.47-5.92Z" fill="#571519"/><path d="M2085.44,517c3.53,7.91,7.56,18.59,4.4,27.25-1.89,5.15-7,8.27-8.74,13.43-3.81,11,7.83,20.58,16.72,24.43,4,1.74,7.51-4.17,3.46-5.92-7-3-18.48-11.06-11.77-19.33,4.14-5.1,7.42-9.69,8.12-16.45.95-9.12-2.63-18.71-6.26-26.88-1.79-4-7.71-.54-5.93,3.47Z" fill="#571519"/><path d="M2156.67,518c-.74-9.66-5.2,0-11.88,0s-12.63-8.17-12.63,1.48c.74,9.66,5.94,17.09,12.63,16.35S2156.67,527,2156.67,518Z" fill="#571519" fill-rule="evenodd"/><path d="M2165.42,507.81c-10.56,5.21-24,7.47-35.24,3.37a3.43,3.43,0,0,0-1.83,6.62c13,4.73,28.41,1.91,40.53-4.06,4-1.95.49-7.88-3.46-5.93Z" fill="#571519"/><path d="M2166.58,468.1c-15.51-5.8-33.19-6.37-48.63,0a3.54,3.54,0,0,0-2.39,4.22c.42,1.62,2.5,3.1,4.22,2.39,14.46-6,30.44-5.43,45,0,4.14,1.55,5.93-5.08,1.83-6.61Z" fill="#571519"/><path d="M2062.9,523.24c-.74-8.92-4.45,0-10.39.74s-11.89-6.69-11.15,1.49c.75,8.91,6.69,15.6,12.63,14.85S2063.65,531.41,2062.9,523.24Z" fill="#571519" fill-rule="evenodd"/><path d="M2065.13,516c.67-.3-.48.17-.7.25-.46.17-.92.32-1.39.46-1.08.32-2.18.59-3.29.81a36.59,36.59,0,0,1-6.81.7c-4.74.08-9.41-.54-13.32-3-3.76-2.33-7.21,3.6-3.46,5.93,4.95,3.07,11,4,16.78,3.9a41,41,0,0,0,15.66-3.16c1.69-.74,2.09-3.23,1.23-4.69-1-1.76-3-2-4.7-1.23Z" fill="#571519"/><path d="M2064.81,472.55c-12.69-5-27.33-4.64-37.52,5.34-3.15,3.1,1.7,7.95,4.86,4.86,8.48-8.32,20.46-7.67,30.83-3.58,1.72.68,3.77-.75,4.22-2.4a3.51,3.51,0,0,0-2.39-4.22Z" fill="#571519"/><path d="M2082.22,617c18.91,13.59,46.78,7.39,63.59-6.48,3.4-2.82-1.48-7.65-4.86-4.86-14.6,12.06-39,17.13-55.27,5.41-3.59-2.58-7,3.37-3.46,5.93Z" fill="#571519"/><path d="M2081,364c-6.55-.43-13.28.55-18.92,4.07-5,3.15-8.79,7.86-11.74,12.94-6.61,11.42-10,24.43-17.38,35.44A43.27,43.27,0,0,1,2014.62,432c-4,1.81-.54,7.73,3.46,5.93,13.11-5.91,21.44-17.33,27.37-30,4.92-10.56,8.32-23.66,17.19-31.77,5.08-4.64,11.67-5.77,18.34-5.33,4.41.3,4.39-6.57,0-6.86Z" fill="#571519"/><path d="M2109.94,399.84c-4.33-7.35-11.49-16.21-21-16s-13.92,9.7-16.65,17.46c-3.53,10-4.65,20.65-6,31.12-1.58,12.14-3.72,24.25-8,35.77a27.68,27.68,0,0,1-6.76,11c-4,3.71-9.35,5.15-14.6,6-4.35.68-2.5,7.29,1.83,6.62,8.27-1.29,15.84-4.63,20.92-11.5,5.48-7.42,7.88-17.42,9.87-26.25,2.32-10.28,3.33-20.76,4.85-31.18,1.35-9.24,3-20.27,8.37-28.14,7.06-10.26,17.29,1.93,21.19,8.58,2.24,3.8,8.18.35,5.93-3.47Z" fill="#571519"/><path d="M2037.43,455.8a30.17,30.17,0,0,1-1.46,11.07,24.91,24.91,0,0,1-4.94,8.76,16.17,16.17,0,0,1-7.73,4.92,13.12,13.12,0,0,1-4.83.54,19.61,19.61,0,0,1-5.67-1.11,3.43,3.43,0,0,0-1.82,6.62c6.75,2.19,14.25,1.77,20.28-2.21,5.76-3.8,9.61-9.87,11.55-16.43a38.12,38.12,0,0,0,1.49-12.16c-.17-4.4-7-4.42-6.87,0Z" fill="#571519"/><path d="M2114.81,420.32c7.37,22.76,17.87,46.08,40.56,57a87.09,87.09,0,0,0,26,7.53c10.12,1.43,20.48,2.39,30.19,5.75,10.89,3.77,18.58,11.36,19.72,23.19.42,4.35,7.29,4.4,6.86,0-1-10.72-5.94-19.78-15.24-25.47-8.57-5.23-18.82-7.12-28.61-8.56-9.28-1.37-18.84-2-27.73-5.19s-17.3-7.78-23.93-14.78c-10.71-11.33-16.52-26.68-21.24-41.26-1.36-4.18-8-2.39-6.62,1.83Z" fill="#571519"/><path d="M2247,450c4.74,12,8.18,25.66,4.83,38.48a27.74,27.74,0,0,1-3.64,8.6c-.29.44-.59.87-.89,1.3-.46.66.47-.5-.27.33-.21.24-.41.48-.63.7-3.19,3.06,1.67,7.91,4.85,4.85,3.71-3.58,5.93-9.1,7.2-14,3.66-14,.36-29-4.83-42.12-1.6-4.06-8.24-2.3-6.62,1.82Z" fill="#571519"/><path d="M2181.67,244.66c-.14.4-.28.79-.43,1.18,0,.12-.46,1.15-.24.63-.26.61-.54,1.21-.83,1.8a29.56,29.56,0,0,1-2,3.46c-.22.32-.45.63-.67.94.34-.48,0,0-.16.19-.35.43-.72.84-1.1,1.23s-.88.88-1.35,1.29l-.61.51c.66-.55-.1.06-.25.17a20.48,20.48,0,0,1-2.94,1.71c-.16.08-1.07.48-.27.14l-.75.3c-.55.21-1.11.39-1.68.56a30.22,30.22,0,0,1-3.63.82c-.35.06-.69.12-1,.16.63-.08-.06,0-.31,0-.73.08-1.47.14-2.21.19a3.51,3.51,0,0,0-3.43,3.43,3.46,3.46,0,0,0,3.43,3.43c5.76-.37,11.74-1.54,16.51-5,5.26-3.81,8.42-9.32,10.57-15.35a3.43,3.43,0,1,0-6.62-1.82Z" fill="#571519"/><path d="M2188.86,272.65c20.6-2.8,44-9.39,63.23,2,15.85,9.42,23.79,25.53,36.11,38.47a60.66,60.66,0,0,0,25.87,16c4.22,1.35,6-5.27,1.82-6.62a54,54,0,0,1-23.79-15.22c-5.69-6.22-10.3-13.32-15.61-19.86-6.14-7.57-13.45-14.52-22-19.29-9.39-5.24-20.18-6.94-30.81-6.68-12.33.3-24.44,2.94-36.62,4.6-4.36.59-2.5,7.2,1.82,6.61Z" fill="#571519"/><path d="M2305.87,342.34c8.61,6.81,17.88,13.33,24.76,22,7.13,9,9.09,19.41,5.56,30.37-1.36,4.21,5.26,6,6.62,1.82a37.6,37.6,0,0,0-5.5-34.67c-7.2-9.79-17.15-16.92-26.59-24.38-3.43-2.71-8.32,2.12-4.85,4.85Z" fill="#571519"/><path d="M2334,421.8c7.4,27.48,7.75,60.11-9.53,83.91-4.31,5.94-9.73,10.86-14.76,16.16a61.16,61.16,0,0,0-12.48,18.69c-5.85,14-9.25,32.73,1.11,45.49,1.43,1.75,3.07,3.27,4.61,4.91a6.42,6.42,0,0,0,.91,1c.45.27-.24.25,0-.55.53-1.76.86-1.24-.72-1-7.55,1.06-15.76-3.29-20.07-9.32-2.55-3.56-8.5-.14-5.93,3.47a30.23,30.23,0,0,0,20.08,12.48c4.3.65,13.09.84,13.47-5.35.26-4.09-4.85-7.26-7.15-10.08-4.63-5.68-5.41-12.94-4.73-20a59.08,59.08,0,0,1,10.45-28.66c4.48-6.17,10.44-11.09,15.5-16.77,13.47-15.11,19.91-33.56,20.59-53.65a146.74,146.74,0,0,0-4.74-42.54c-1.14-4.26-7.76-2.46-6.61,1.82Z" fill="#571519"/><path d="M2142.14,260.44a109.58,109.58,0,0,0-18-6.2,49.56,49.56,0,0,0-28.37,2.33c-20.24,7.75-32.31,28.06-52.94,35.07-5.48,1.87-13.5,2.86-18.07,0-3.76-2.35-7.21,3.58-3.47,5.92s9.22,3,13.65,2.65c10.86-.74,20.86-6.44,29.38-12.87,8.27-6.23,15.42-14.07,24.16-19.65a48.71,48.71,0,0,1,29.57-7.53c4.33.33,8.62,1.79,12.71,3.21,2,.68,3.94,1.42,5.89,2.18l1.7.69c.61.25,1,.42.32.13,4,1.71,7.51-4.2,3.46-5.93Z" fill="#571519"/><path d="M2025,308c-17.4,10.13-32.27,24.46-38.84,43.87a78.65,78.65,0,0,0-3.89,24.59c-.07,9.11.71,18.11-.19,27.22-1,9.81-3.53,21.54-12,27.64-3.57,2.54-.14,8.5,3.46,5.92,15.28-10.92,16.36-32.86,16-50-.2-8.38-.61-16.57,1-24.85a64.07,64.07,0,0,1,10.07-24.06c7.11-10.34,17.17-18.18,27.93-24.44,3.82-2.22.37-8.15-3.46-5.93Z" fill="#571519"/><path d="M1984.07,439.29c-12.65,31,17.39,55.94,34.31,77.63,2.72,3.47,7.54-1.41,4.85-4.86-15.37-19.69-44-42.76-32.54-70.94,1.66-4.09-5-5.87-6.62-1.83Z" fill="#571519"/><path d="M2126,365.92c.51-16.41,4.91-33,15.78-45.7a60.85,60.85,0,0,1,12.78-11.3,67.87,67.87,0,0,1,10.27-5.47,38.76,38.76,0,0,1,5.45-1.83c4.3-1,2.48-7.61-1.82-6.61-19.06,4.42-35.21,20.82-42.65,38.29-4.41,10.33-6.33,21.43-6.67,32.62-.14,4.41,6.72,4.41,6.86,0Z" fill="#571519"/><path d="M2272.18,565a430.47,430.47,0,0,0,6.49,48.5c3.65,20,8.09,40.37,15.94,59.24,3.31,8,7.26,16.16,13.56,22.21,3.18,3.06,8-1.79,4.85-4.86-5.17-5-8.53-11.67-11.36-18.18a191.67,191.67,0,0,1-8.95-26.71,459.38,459.38,0,0,1-11.32-58.13c-1-7.33-1.86-14.69-2.35-22.07-.29-4.39-7.15-4.42-6.86,0Z" fill="#571519"/><path d="M2134.13,686.26a233.5,233.5,0,0,1,7.65,32.08q1.09,6.15,2,12.33c.19,1.23.36,2.46.53,3.69.11.85-.1-.75,0-.06l.06.45c0,.12,0,.25,0,.37a3.54,3.54,0,0,0,3.43,3.43c1.67,0,3.66-1.59,3.43-3.43-2.14-17-5.14-34.35-10.52-50.68-1.38-4.18-8-2.39-6.62,1.82Z" fill="#571519"/><path d="M2300.65,680.4c10.84-.87,8.35,13.52,6,19.87-3.82,10.24-11.5,18.75-19.05,26.46-16.61,16.95-36.14,31.08-56.89,42.53a255,255,0,0,1-40.56,18.08c-12.57,4.29-25.86,7.08-39.2,6.35-15.84-.86-35.55-8.74-34.93-27.52.2-5.89,2.64-11.48,4.69-16.91a181.17,181.17,0,0,1,8.18-18.81c4.76-9.27,10.79-17.76,16.36-26.54,2.37-3.74-3.56-7.19-5.92-3.47-5.57,8.79-11.61,17.27-16.36,26.54a186.16,186.16,0,0,0-7.73,17.47c-2.34,6-5,12.1-5.8,18.53-2.62,20.58,14.89,33.73,33.44,36.7,29.62,4.76,60.11-8.12,85.83-21.55,23.53-12.3,45.8-28.06,64.33-47.15,9.43-9.71,19.05-20.94,21.87-34.53,2.14-10.29-1.21-24-14.24-22.91-4.37.35-4.41,7.21,0,6.86Z" fill="#571519"/><path d="M2305,681.1c32.68,16.91,67.18,30.45,98.91,49.18,35.09,20.7,71.44,45.55,92.61,81.26,18.81,31.72,25.24,68.89,27.39,105.22,2.18,36.9.06,73.85.77,110.78,1.08,56,.81,112.16-1.33,168.18-1,27.14-2.31,54.42-5.79,81.39-1.11,8.54-2.38,17.23-4.89,25.49a46.57,46.57,0,0,1-7.5,14.7,45.41,45.41,0,0,1-18.09,14.38c-14.55,6.47-31.2,5.7-46.59,3.39-23.66-3.56-47.17-8.17-70.46-13.65a1042.78,1042.78,0,0,1-131.46-40.36q-14.78-5.61-29.36-11.66c-4.08-1.69-5.86,4.95-1.83,6.62a1057.31,1057.31,0,0,0,130.88,44.48c23.38,6.27,47,11.72,70.76,16.17,18.87,3.54,38.7,8.15,58,6.65,15.95-1.25,31.59-7.13,41.93-19.82,6.71-8.23,10.33-17.49,12.45-27.72,5-24,6.23-48.87,7.56-73.25,1.74-31.88,2.49-63.82,2.87-95.74q.48-41.89-.05-83.79c-.46-33.52.42-67-.12-100.56-.6-37.22-3.61-75.54-17.57-110.44a163.41,163.41,0,0,0-28.25-46.84c-14.56-16.73-32.36-30.55-50.63-43a454.68,454.68,0,0,0-50.34-30c-17.77-9-35.88-17.33-53.86-25.91-7.57-3.61-15.13-7.26-22.58-11.11-3.92-2-7.39,3.89-3.46,5.92Z" fill="#571519"/><path d="M2211.29,1271c-10.19-19.86-13-41.41-10.94-63.47a78.48,78.48,0,0,1,7.79-27.09c3.06-6.35,6.9-14.7,13.58-18,4-1.93.49-7.85-3.46-5.92-7.49,3.65-12.07,12.33-15.59,19.47a86.91,86.91,0,0,0-8.89,28.7c-2.83,24.12.44,48,11.59,69.72,2,3.93,7.94.46,5.92-3.46Z" fill="#571519"/><path d="M2444.88,1237.59c-3.33-11.83-13.51-21.77-22.08-30a270.14,270.14,0,0,0-28.42-23.87c-3.55-2.59-6.76-4.45-11.24-5.29-10-1.88-20.43-2.41-30.54-3.81-21.13-2.94-42.17-6.47-63.25-9.76-23-3.58-46.12-7-69.36-8.73-4.41-.34-4.39,6.53,0,6.86,40.82,3.12,81.11,11,121.58,16.93,9.35,1.37,18.73,2.66,28.12,3.76,6.3.74,13.39.53,18.8,4.23a231.53,231.53,0,0,1,24.45,19.84,173.44,173.44,0,0,1,15.78,16.07c3.88,4.59,7.89,9.77,9.55,15.65,1.2,4.24,7.82,2.44,6.61-1.83Z" fill="#571519"/><path d="M2206.74,1263.1q-28.44-15.48-57.75-29.29-14.8-7-29.84-13.47c-9-3.91-18.3-7.28-27.12-11.55-7-3.37-14.14-7.68-21.94-8.69-8.22-1.07-15.67,3.79-23,6.64-9.33,3.6-20.1,3.42-30,2.79-10.74-.68-21.33-2.64-31.85-4.84-20.31-4.26-41-9.42-61.86-8.44a91,91,0,0,0-29.31,6.24c-9.07,3.59-17.64,8.24-26.52,12.25-9.34,4.22-19,5.31-29.22,5-3.63-.12-8.11-.29-11.29-1.8a8.2,8.2,0,0,1-1.15-.76c.2.07.11.39.23.38s-.21.18.43-.51a22.13,22.13,0,0,1,2.45-2.29c3.51-2.71,7.61-4.75,11.38-7.07,4.77-2.94,9.49-6,14.22-9,9.85-6.23,19.74-12.43,30.12-17.72,19.3-9.84,41.23-10.69,62.37-12.85,4.35-.44,4.4-7.3,0-6.86-19.23,2-39.31,2.7-57.48,10-19.65,7.84-37.08,21-55.07,32-5,3-23.2,13-11.79,20.18,3.47,2.18,8,2.66,12,3a88.74,88.74,0,0,0,15.55-.16,55.9,55.9,0,0,0,13-2.28c9-3.06,17.41-8,26-12,10-4.58,20.29-7.84,31.27-8.67s22.19.23,33.12,2c21.63,3.6,42.84,10,64.85,11.15,10,.53,20.9.51,30.33-3.13,7.92-3,15.46-8.28,24.18-5.58,4.74,1.47,9.16,3.82,13.6,6s9.13,4.09,13.77,6q17.75,7.35,35.2,15.36,34.41,15.74,67.64,33.88c3.88,2.11,7.35-3.81,3.47-5.93Z" fill="#571519"/><path d="M1867.07,1182.77c-9.8.27-17.74,4.66-25.57,10.16a64.07,64.07,0,0,1-10.7,6.56,25.63,25.63,0,0,1-13.15,1.86c-4.39-.44-4.36,6.43,0,6.87,9.59,1,17.77-2.74,25.47-8.08,7.43-5.15,14.56-10.24,24-10.51,4.41-.13,4.43-7,0-6.86Z" fill="#571519"/><path d="M1813,1186.57c12.19-8.11,22.23-22.24,37-25.72,9.38-2.22,19-3.66,28.48-5.46,9.73-1.84,19.46-3.62,29.23-5.22,4.35-.71,2.51-7.33-1.82-6.62-9.77,1.6-19.5,3.38-29.23,5.22s-20,3.2-29.7,5.76c-15,4-25,17.82-37.42,26.11-3.66,2.44-.23,8.38,3.46,5.93Z" fill="#571519"/><path d="M2214.24,1158.25c-35-9.5-70.55-16.25-106.15-22.86-14.38-2.66-28.72-5.76-43.22-7.66-11.28-1.49-22.61-2.44-34-3.2-24.87-1.68-49.81-2.46-74.73-2.76-9.51-.12-19-.17-28.54-.06-4.81.06-9.71,0-14.5.5-9,1-17.91,3.15-26.74,5-10.55,2.16-21.08,4.42-31.66,6.43-9.55,1.82-19.74,2.53-28.89,6-8.77,3.28-15.33,9.7-22.62,15.3-3.45,2.65,0,8.62,3.47,5.92,6.26-4.81,12.08-10.63,19.34-13.93,8.18-3.72,17.75-4.27,26.49-5.88,17.84-3.27,35.52-7.39,53.37-10.62,2.2-.4,4.4-.76,6.6-1.14.47-.08,1-.17,1.42-.23-1.19.15-.68.09-.4.06.81-.07,1.61-.12,2.42-.16,2.57-.14,5.15-.19,7.73-.24,8.65-.16,17.32-.14,26-.07,24.13.2,48.26.87,72.35,2.27,11.73.68,23.45,1.54,35.13,2.83,12.28,1.35,24.34,3.74,36.48,6,39.82,7.41,79.7,14.57,118.82,25.21,4.27,1.16,6.09-5.46,1.82-6.62Z" fill="#571519"/><path d="M1692.43,1247.61a66.52,66.52,0,0,1-24.55-8.09,27.85,27.85,0,0,1-9.54-8.1c-3.2-4.59-5.58-9.85-8.2-14.78q-4.32-8.09-8.62-16.18c-.68-1.27-3.42-5.08-2-6.17,1.27-1,5.52,0,7,.32a32.11,32.11,0,0,1,21.71,15.38c2.73,4.81,4.14,10.19,8.6,13.84,3.86,3.16,8.72,4.1,13.39,5.45,4.25,1.22,6.07-5.4,1.82-6.62-4.62-1.33-9.63-2-12.75-6.09-1.93-2.52-2.9-5.66-4.31-8.48a36,36,0,0,0-4.34-6.64,38.84,38.84,0,0,0-27.59-14.13c-5.38-.31-11.18,1.65-10.84,8.06.16,2.9,1.78,5.54,3.1,8l5,9.38c3.24,6.1,6.38,12.26,9.76,18.28a35.22,35.22,0,0,0,10.17,11.73c9.18,6.63,21,10.36,32.18,11.67,4.38.52,4.34-6.35,0-6.86Z" fill="#571519"/><path d="M1779.75,1288.28c-15.77-7.18-31.94-13.45-47.91-20.17-7.9-3.32-15.77-6.74-23.49-10.47-3.15-1.53-8.43-3.08-9.9-6.54s-1.4-8.25-1.79-12c-1.43-13.69-2.07-27.5-2.21-41.26,0-2.16,0-4.32,0-6.48,0-.72,0-1.42.06-2.14,0-.19,0-.42,0-.61,0-.86.07,0,0,0-1.4.83,1.37.11.83.18a15.17,15.17,0,0,1,2.33-.21,14.82,14.82,0,0,1,4.51.9,14.4,14.4,0,0,1,8.82,7.68c2.13,4.38,2.92,9.33,3.91,14.06.94,4.44,2,8.87,2.84,13.33a133.57,133.57,0,0,1,2.34,24.85c0,4.41,6.92,4.42,6.86,0a142.14,142.14,0,0,0-2.4-25.72c-1.72-8.87-3-18.41-6.27-26.85-3.1-8-9.12-13.39-17.76-14.81-5.38-.89-12.42.46-12.88,6.86-1,13.07.23,26.67,1.18,39.7.32,4.22.69,8.44,1.16,12.64s.59,8.89,2.26,12.77,4.86,5.64,8.39,7.43c4.31,2.19,8.7,4.24,13.1,6.23,20.64,9.3,41.91,17.11,62.51,26.5,4,1.81,7.48-4.1,3.46-5.93Z" fill="#571519"/><path d="M1858.19,1292.23c-1.45,10.77-13.42,12.66-22.36,12.9-10.92.31-21.68-1.6-32.54-2.38-2.41-.18-4.83,0-7.24-.19-5.27-.31-8.28-5.82-11.36-9.54-6.32-7.63-12.58-15.31-19.1-22.78q-4.69-5.37-9.59-10.56c-1.8-1.92-5.22-5.11-4.86-8.15.71-5.89,13.19-3.88,16.81-2.89,17,4.64,29.74,20.3,40.67,33.19,2.86,3.38,7.69-1.5,4.85-4.85-11.58-13.67-24.91-29.27-42.7-34.67-7-2.13-17.69-3-23.52,2.46-5.33,5-2.43,12.42,1.57,17.23,7.39,8.85,15.49,17.14,22.88,26,3.94,4.74,7.84,9.51,11.8,14.24,3.36,4,6.51,6.7,11.91,7.11,6,.45,11.91.58,17.89,1.22a185.5,185.5,0,0,0,20.53,1.43c13.94-.06,29.08-3.87,31.22-19.8.59-4.36-6.28-4.32-6.86,0Z" fill="#571519"/><path d="M1723.71,1239.91l23.13,7.85a3.46,3.46,0,0,0,4.22-2.4,3.5,3.5,0,0,0-2.4-4.22l-23.13-7.85a3.43,3.43,0,0,0-1.82,6.62Z" fill="#571519"/><path d="M1796.25,1265.52q11.49,4.11,23.21,7.56c6.66,2,13.5,4.2,20.36,5.29,1,.17,2,.27,3,.4l20.3,2.68,80.53,10.61,101.13,13.33,82.55,10.88q11,1.47,22.06,2.91a28.14,28.14,0,0,0,4.08.54,5.08,5.08,0,0,0,2.93-1.13c3.06-2,6-4.12,9.05-6.19l6.38-4.36c2.14-1.47,2.36-5.8-.82-6.27l-33.41-5-80.21-12-96.63-14.45-83.88-12.54c-13.56-2-27.14-4.49-40.76-6.09l-.57-.09c-4.32-.64-6.18,6-1.82,6.62l33.4,5,80.21,12,96.64,14.45,83.87,12.54,27.73,4.14c4.12.62,8.85,2.05,13,2a3.56,3.56,0,0,1,.57.08c-.27-2.09-.55-4.17-.82-6.27-5.09,3.49-10.65,6.67-15.43,10.56-1.77,1.44,1,.56.39.17a5.49,5.49,0,0,0-1.63-.22l-18.09-2.38-77.39-10.2L1956,1286.83l-84.78-11.18-24.73-3.26c-8.63-1.14-16.76-3.46-25.18-5.93-7.81-2.28-15.55-4.82-23.22-7.56-4.16-1.49-6,5.14-1.82,6.62Z" fill="#571519"/><path d="M1855,1309.74c21.47,4,43.29,4.9,64.76,8.92,4.31.81,6.16-5.8,1.82-6.62-21.47-4-43.29-4.9-64.75-8.92-4.32-.81-6.17,5.81-1.83,6.62Z" fill="#571519"/><path d="M2371.52,897.39a82.14,82.14,0,0,0-20.5,44.48c-2.46,19.17.26,39,1,58.19,1.49,36.73,1.62,73.5,2.4,110.25.45,21.71,1.18,43.41,2.42,65.08.25,4.39,7.11,4.42,6.86,0-2.07-36.38-2.6-72.81-3.16-109.24-.28-18.18-.61-36.36-1.23-54.53-.62-18.46-2.41-37-2.35-55.48.07-20,5.86-38.83,19.37-53.9,2.94-3.28-1.9-8.15-4.85-4.85Z" fill="#571519"/><path d="M1981.78,890c-8.81,59.32-13.92,119-14,179,0,17.6.31,35.19.92,52.77.15,4.4,7,4.42,6.86,0-2-59.39-.48-118.73,6-177.82,1.93-17.41,4.23-34.78,6.8-52.11.64-4.32-6-6.18-6.61-1.82Z" fill="#571519"/><path d="M2140.54,699.21c-46.5,24.57-94.87,45.54-140.3,72.16-8.52,5-17.06,10.16-24.48,16.73a157.34,157.34,0,0,0-35.84,46c-9.86,19.32-14.76,39.86-17.23,61.31-1.32,11.49-2.12,23-3.32,34.53-1.28,12.28-3,24.53-4.68,36.76-7.45,53.95-17,107.6-29.31,160.65-1,4.3,5.61,6.13,6.61,1.82,10.9-46.82,19.62-94.11,26.61-141.67,3.42-23.25,6.71-46.56,8.82-70,2-22.49,4-45.11,12.29-66.33,11.36-29,31.48-54.11,58-70.35,24-14.65,49.25-27.23,74.34-39.83,23.92-12,48.22-23.37,71.9-35.88,3.91-2.07.44-8-3.46-5.93Z" fill="#571519"/><path d="M1966.09,1292.54c.15,19.25-1.86,38.68-2.94,57.89-1.76,30.85-3.5,61.7-4.71,92.58-.55,14-1,27.93-1,41.9,0,4.41,6.88,4.42,6.86,0-.11-27.67,1.47-55.36,2.88-83,1.47-28.51,3.18-57,4.73-85.52.43-7.93,1.1-15.93,1-23.87,0-4.41-6.89-4.42-6.86,0Z" fill="#571519"/><path d="M1969.92,1207.64q-.29,8.53-.31,17.08a3.43,3.43,0,0,0,6.86,0q0-8.54.32-17.08a3.47,3.47,0,0,0-3.43-3.43,3.51,3.51,0,0,0-3.44,3.43Z" fill="#571519"/><path d="M2435.26,1340.46a498.24,498.24,0,0,1-1.28,127.26q-.57,4-1.2,8.08c-.3,1.93-.18,5-1.27,6.6s-3.66,2.85-5.1,3.85q-3,2.07-6.08,3.9a115.76,115.76,0,0,1-23.42,10.35c-16.93,5.46-34.66,7.91-52.29,9.76q-63.45,6.63-127.33,7.73c-42.15.76-85,1-126.87-4-43.1-5.09-84.6-17-125.94-29.74-4.23-1.31-6,5.32-1.83,6.62,37.56,11.59,75.26,22.61,114.25,28.21,42.87,6.16,86.6,6.4,129.83,5.91q66-.74,131.7-7.25c17.89-1.78,35.89-3.83,53.28-8.56a139.68,139.68,0,0,0,24.67-9.13,101.7,101.7,0,0,0,11.49-6.53c1.69-1.11,3.33-2.27,4.94-3.48s4-2.51,5-4.27c1.26-2.13,1.17-5.71,1.55-8.15q.77-4.77,1.41-9.56,1.23-8.91,2.17-17.88,1.82-17.73,2.37-35.57a503.41,503.41,0,0,0-3.22-74.16c-.51-4.34-7.37-4.39-6.86,0Z" fill="#571519"/><path d="M2423.28,1491.52c19.72,61.84,17.95,127.32,22.33,191.35,1.24,18.13,3,36.22,5.79,54.18.67,4.36,7.28,2.51,6.61-1.82-9.83-63.72-6-128.67-15.86-192.4a350.32,350.32,0,0,0-12.26-53.13c-1.33-4.19-8-2.4-6.61,1.82Z" fill="#571519"/><path d="M1964.27,1494c-1.38,24.79-.84,49.79-1,74.6q-.27,60.47.17,120.94c.16,18.51.37,37,.88,55.53.13,4.41,7,4.42,6.87,0-1-36.06-1.07-72.16-1.14-108.23-.07-37.19,0-74.39.41-111.58.12-10.41,0-20.86.63-31.26.25-4.41-6.61-4.4-6.86,0Z" fill="#571519"/><path d="M2063.4,1564.15q1.28,51.46,6.92,102.69c.47,4.34,7.34,4.39,6.86,0q-5.66-51.18-6.92-102.69c-.11-4.41-7-4.43-6.86,0Z" fill="#571519"/><path d="M2076.05,1690.61c3.29,9.66,11.36,16.19,16.63,24.67a62.34,62.34,0,0,1,9.31,29.9c.22,4.39,7.08,4.42,6.86,0a69.86,69.86,0,0,0-8.8-30.93,84.84,84.84,0,0,0-9.09-12.64c-3.27-3.92-6.62-7.92-8.3-12.82-1.41-4.16-8-2.38-6.61,1.82Z" fill="#571519"/><path d="M2171,1301.77l-25.94-10-62.3-24.14-75.4-29.21-65.22-25.27-21.6-8.36c-3.33-1.29-6.73-3-10.18-4a3.66,3.66,0,0,1-.46-.18c-4.12-1.59-5.91,5-1.83,6.62l25.94,10,62.3,24.14,75.39,29.2,65.23,25.27,21.6,8.37c3.32,1.29,6.73,3,10.18,4a4.28,4.28,0,0,1,.46.17c4.12,1.6,5.91-5,1.83-6.61Z" fill="#571519"/><path d="M1840.27,1272.46q-2.79-9.63-5.57-19.26l-14.31-49.61q-9.86-34.12-19.7-68.24l-21.81-75.55q-10.17-35.21-20.32-70.4-7.82-27-15.62-54.1c-2.45-8.5-4.65-17.13-7.37-25.55a11.58,11.58,0,0,0-1.12-2.46,62.74,62.74,0,0,0-14.29-16.38c-4.93-4-9.56-6.16-15.41-8.22-16.2-5.72-32.71-10.61-49.15-15.6q-36.75-11.15-73.63-21.87-37.32-10.94-74.68-21.68-26.77-7.71-53.56-15.36c-3.82-1.09-7.63-2.3-11.48-3.28-5.57-1.41-10.08,3.8-11.15,8.89-1.42,6.78.88,13.66,2.73,20.15s3.74,13,5.64,19.5q9.4,32.25,19,64.46,12.25,41.46,24.56,82.91,12.06,40.59,24.13,81.17,9,30.27,18,60.52c2.58,8.67,4.15,19.13,12.36,24.33,5.1,3.22,11.72,4.93,17.28,7.11l66.93,26.16,14.92,5.83c4.11,1.61,5.9-5,1.82-6.61L1590,1180.38l-33.15-13c-5.22-2-11.79-3.55-16.4-6.87-4.1-3-5.07-7.66-6.42-12.19l-3-10.07q-4-13.45-8-26.93-10.87-36.49-21.71-73-12.4-41.74-24.78-83.5-11.05-37.3-22.06-74.64c-4.67-15.89-9.37-31.77-13.91-47.7-1.57-5.53-4.48-12.69-2.51-18.2a5.62,5.62,0,0,1,1.15-2c.21-.22,1.32-1,.89-.72,1.73-1.16,0,.72-.49-.3.15.32,2.22.63,2.54.72q19.33,5.5,38.65,11,34,9.75,67.93,19.61,38,11,75.9,22.28c20.49,6.1,41,12.23,61.36,18.73,6.22,2,12.44,4,18.58,6.21,1,.36,2,.73,3,1.11l1.11.44c-.05,0-.46-.25.31.14,5.13,2.59,9.52,6.62,13.33,10.88a58.85,58.85,0,0,1,5.81,7.61c.47.74,1.15,2.33.67.88.2.6.35,1.22.52,1.83l3,10.48,12.54,43.45,18.6,64.41q10.61,36.77,21.22,73.53l20.7,71.71q8.5,29.48,17,59,4.95,17.19,9.92,34.38c.44,1.53.88,3.06,1.33,4.6,1.22,4.23,7.84,2.43,6.62-1.83Z" fill="#571519"/><path d="M1827,1269.29q-4.1-14.07-8.18-28.15-10.08-34.71-20.17-69.42l-25.92-89.24L1747.62,996l-18.08-62.21q-2.2-7.63-4.43-15.27c-1.92-6.6-7-12-11.92-16.7-6.61-6.33-13-9.42-21.36-12.23-9.14-3.08-18.38-5.89-27.61-8.68-28.08-8.5-56.28-16.6-84.49-24.66q-44.65-12.75-89.37-25.24-26.41-7.39-52.85-14.73l-2.53-.7c-4.26-1.18-6.08,5.44-1.82,6.62q18.49,5.12,37,10.29Q1512,844.19,1553.83,856c29.83,8.46,59.65,17,89.38,25.77,18.06,5.35,36.48,10.27,54.09,17l.61.25c.74.3-.72-.35-.06,0,.32.15.65.28,1,.45a46.59,46.59,0,0,1,10.69,8.32,59.87,59.87,0,0,1,7.71,9.47c.38.58,1.18,2.3.59.68a1.24,1.24,0,0,1,0,.16c1.07,3.11,1.85,6.34,2.76,9.5q7.85,27,15.68,54,12,41.17,23.93,82.35l26.22,90.25,21.87,75.29q5.78,19.89,11.56,39.8c.18.61.36,1.22.53,1.83,1.23,4.23,7.86,2.43,6.62-1.83Z" fill="#571519"/><path d="M1601.46,1023.45a62,62,0,0,1,2.8,16.25c.06,3.5,0,7.7-1.87,10.8-3.28,5.52-9.55-2.83-11.51-5.78a62,62,0,0,1-9.89-29.61c-.2-3.12-.65-16.51,5.29-14.85,3.42,1,6.14,4.76,8,7.53a60.43,60.43,0,0,1,7.19,15.66c1.31,4.2,7.94,2.41,6.62-1.82a66.11,66.11,0,0,0-8.35-18c-2.56-3.68-5.71-7.4-9.87-9.31-3.76-1.72-8-1.39-11.07,1.61-3.27,3.24-4.25,8.18-4.63,12.58-1.13,12.91,3.13,27.3,9.88,38.24,3.92,6.35,12.47,16.57,20.88,11,4.4-2.94,5.64-8.85,6.07-13.75.65-7.49-.79-15.21-2.91-22.36C1606.83,1017.4,1600.2,1019.2,1601.46,1023.45Z" fill="#571519"/><path d="M1928.05,1291.76a19.41,19.41,0,0,1-9.14,20.63,3.47,3.47,0,0,0,.82,6.27c6.19,1.7,12.51,3.06,18.84,4.18,9.91,1.77,20.78,3.6,30.77,1.4,4.31-1,2.48-7.57-1.82-6.62-9.06,2-19.29.05-28.26-1.6-5.94-1.09-11.88-2.38-17.71-4,.27,2.09.55,4.18.82,6.27a26.41,26.41,0,0,0,12.29-28.38c-1-4.31-7.58-2.48-6.61,1.83Z" fill="#571519"/><path d="M1798.41,1085.92q4,6.15,7.93,12.28a3.43,3.43,0,0,0,5.93-3.46q-4-6.13-7.93-12.28a3.43,3.43,0,0,0-5.93,3.46Z" fill="#571519"/><path d="M1826.47,1055q3.55,13.63,7.1,27.28c1.11,4.27,7.73,2.46,6.61-1.82q-3.54-13.65-7.09-27.28c-1.11-4.27-7.73-2.46-6.62,1.82Z" fill="#571519"/><path d="M1867.63,1083.81q1.69-6.54,3.38-13.08a3.43,3.43,0,1,0-6.61-1.83L1861,1082a3.43,3.43,0,0,0,6.62,1.83Z" fill="#571519"/></svg>