<svg xmlns="http://www.w3.org/2000/svg" viewBox="0 0 2745 1830"><rect x="-10.64" y="-7.09" width="2766.27" height="1844.18" fill="#ffeab8"/><path d="M1169.33,355.18a42.26,42.26,0,0,0-51.21,67.24c28.4,21.63,31.54-1.28,53.73,15.31,9.67,7.23,21.17,3.81,28.5-5.8s7.79-21.91-2-29C1180.35,389.81,1197.73,376.82,1169.33,355.18Z" fill="#fff3d6" fill-rule="evenodd"/><path d="M978.12,1682.47s-14.08-46.73-16-51.89-4-10-4-10-7.16,31.85-8,37.6-2.65,24.51-2.65,24.51S958.91,1682.63,978.12,1682.47Z" fill="#a5b497" fill-rule="evenodd"/><path d="M1181.92,441.58s6.4,10.75,15.13,13.56c18.27,5.9,32.41-17.21,22.57-28.45-4.5-5.14-13.84-9.88-13.84-9.88-.57,5.11-2.46,12.21-6.21,16.1C1195.37,437.27,1189.57,440.35,1181.92,441.58Z" fill="#b7b7b7" fill-rule="evenodd"/><path d="M800.73,1671l.47-80.34,1.26-43.24s-8.4-37.22-19.81-37.22a57.61,57.61,0,0,0-25.36,6c-5.33,2.55-33.2,19.14-63.27,24.09s-78.4,6.94-87.86,6.85-56.46-2.64-58.7-2.86-35.19-4.53-35.19-4.53,17.72,15,19.75,15.54,59.14,37.79,74.68,46.22,52.49,25.26,73,35.29S744.39,1660.32,800.73,1671Z" fill="#3dd8ac" fill-rule="evenodd"/><path d="M1799,1268.16l-7,68.32s-27.83,54.59-34.3,68.18-22.38,46.56-26.76,54-30.12,46.12-58,71.77-42,44.49-42,44.49,60.21-34.27,88.19-44.67,54.31-19,54.31-19l12.29-3.89s-.39,54.6,0,75.34,2.08,63.08,3.08,77.13,3.47,29.4,3.47,29.4-55.94,14.87-92.11,21.25-89.66,13.77-98.57,14.84-56.88,7.53-65.66,9.28-30.77,6.78-40.69,10-27.27,9.77-27.27,9.77c-16.51,1.8-53.21,2.83-68.95.13-16.67-11.93-29-37-123.73-61.17-47.77-12.21-49.83-9-60.35-10s-81.1-4.58-86.49-4.61l-8.33,0s-24.41-140-30.84-169.17,2.12-39.71,7.88-41.87,16.72-1.46,43.29,10.2,54.29,25.56,79.39,42.61,43.69,30.93,43.69,30.93l34.38,27.85S1267.41,1530,1253,1474.5s-41-173.65-45.73-191.3-34.94-121.14-64.32-166.26-38.48-57.19-42.9-62.52-28.48-32.93-28.48-32.93,32.65,7.17,37.36,8.31,62.64,14.94,80,23.56,47.06,26.46,62.22,40.69,33.93,31,52.66,57.62,36.47,55.27,36.47,55.27,27.1,50,36.53,73.38,16.85,43.62,16.85,43.62l3.37,7.06-12.66-64.35-16.56-91.37s-13.23-88.73-15.35-120.49-5.76-122.19-6.7-134.11-11.91-111.54-16.09-130.3S1306.59,676.92,1296.12,643s-36.37-103.88-41.39-114.56-8.17-17.05-8.17-17.05a113.57,113.57,0,0,1-11.42,3.88c-6.07,1.69-31.3,5.29-38.67-5.61s-8.51-13.74-8.51-13.74a21.79,21.79,0,0,1,6.15-2.57,78.27,78.27,0,0,1,14.71-1.69c5.65.08,8.9-.22,14.24,1.17s16.71,5.66,16.71,5.66l-21.57-33.38s-10.15,1.93-13.2-.37-5.08-8-5.08-8,13.5-2.7,16.57-6.55,5.52-13.46,7-13.84,4.52.15,5,1.35,3,3.16,3.41,5.59-.53,4.45-.55,7.16,2.13,8.88,2.13,8.88,20.31,35.59,24.75,44.32,15.52,28.6,15.52,28.6-9.21-46.68-10.92-55.73-16.81-104.6-18.42-134.87-5-112.64,10.79-161.52,31.27-77.38,79-95.4,71.43-5.39,75.33-4.87,10.41,7.71,10.41,7.71,38.45,5.59,46.17,13.36,13.16,6.58,15.74,6.45,39.3,12.69,61.06,41,54.51,74.42,68.55,81.94A138.68,138.68,0,0,1,1636,247.44s-23.56,9.57-29,12-24.77,5.14-29.12,5.2-15.45-.67-22.88-2.68-20.28-10.93-20.28-10.93,20,59.1,23.24,66.67,10.44,21.45,10.44,21.45,11.59.14,13.82,1.51,5.81,5.66,7.08,7.95a8.59,8.59,0,0,1,1.09,4.44s-14.91,1.25-21.89,4.79-12,6.71-14.08,8.6-6.75,7-6.75,7-9-7.47-6.49-13.51,5.24-8.44,7-11.14a16,16,0,0,1,2.71-3.49l-19-57.91-5.81-17.13s-3.42,41.28-12.28,69.49-27.07,60.55-27.07,60.55-3.44-24.2-13.1-47.18S1434.87,285,1414,254.72s-61.38-87.24-57.88-112.15,16.09-37,28.07-42.41,14.1-6.18,14.1-6.18-5.58-6.81-28.29-4-49.24,16.4-59.69,28.53-33.19,39.91-40.79,80.65-13.27,71-11.87,114.83,7.89,107.31,10.25,121.59,6-12.79,8.54-21.29,15.81-41.76,15.81-41.76a154.93,154.93,0,0,1,13,45.65c2.85,25-.66,61.84-5.58,87.42s-8.53,41.92-8.53,41.92,11.56,49.38,16.29,68.07,22.59,88.06,30,123,22.44,96,24.87,152.71,1.9,88.17,1.93,92.67.88,13.68.88,13.68,17-44.33,43.5-70.67,42.21-41.71,42.21-41.71l9.66-6s-9.15,17.77-9.45,28.8-10.52,44-8.86,64.43-4.29,60.41-5.67,81.1-14.37,72.09-30.51,95.6-22.45,31.19-22.45,31.19,17.24,90.78,19.49,101.36,17,79.46,18.9,88.68,12.68,53.77,12.68,53.77S1446,1392,1451,1381.29s32.54-72.3,79-112,101.38-59.06,131.24-66.06,20.91-4,20.91-4-7.7,30.06-9.29,37.67-6.35,32.58-7.84,43.77-4.44,41.76-4.68,48,.41,41.24.41,41.24,31.43-31.66,44.29-42.14S1767.14,1280.7,1799,1268.16Z" fill="#3dd8ac" fill-rule="evenodd"/><path d="M2041.9,1505.1s7.37,54.7,8.09,66,4.58,58.79,4.58,58.79,49.34-19.65,76-23.94,68-7.76,77-7.89,25.19-.07,25.19-.07S2138.51,1534.52,2041.9,1505.1Z" fill="#3dd8ac" fill-rule="evenodd"/><path d="M1534.53,1679.8a2.39,2.39,0,0,1,.38-3.37c28.55-22.81,80.59-51.3,250-89.7a2.4,2.4,0,1,1,1.07,4.68c-168.47,38.19-220,66.3-248.08,88.77a2.4,2.4,0,0,1-1.49.53A2.38,2.38,0,0,1,1534.53,1679.8Zm697.28-79.55c-.73-.3-73.84-30.26-183.5-37.36a2.4,2.4,0,0,1-2.24-2.55,2.38,2.38,0,0,1,2.55-2.24c110.52,7.15,184.3,37.41,185,37.72a2.4,2.4,0,0,1-.92,4.62A2.3,2.3,0,0,1,2231.81,1600.25Z" fill="#83e5c6"/><path d="M1595.57,1646.73a2.4,2.4,0,0,0,1.9-.94c35.49-46.19,88-97.92,88.51-98.44a2.4,2.4,0,0,0-3.37-3.43c-.52.52-53.25,52.49-88.95,98.94a2.4,2.4,0,0,0,.44,3.37A2.44,2.44,0,0,0,1595.57,1646.73Z" fill="#83e5c6"/><path d="M1719.32,1607.4a2.39,2.39,0,0,0,2.36-2c4.73-30,48.47-90.68,48.91-91.28a2.4,2.4,0,1,0-3.89-2.82c-1.83,2.52-44.86,62.18-49.76,93.35a2.41,2.41,0,0,0,2.38,2.78Z" fill="#83e5c6"/><path d="M1773.87,1695.84a2.4,2.4,0,0,0,1.86-3.92c-30.69-37.44-117.78-69.12-121.47-70.45a2.4,2.4,0,1,0-1.63,4.52c.89.32,89.54,32.56,119.38,69A2.41,2.41,0,0,0,1773.87,1695.84Z" fill="#83e5c6"/><path d="M1628.35,1724.33a2.41,2.41,0,0,0,1.31-4.42c-31.87-20.74-89.14-45.53-89.71-45.77a2.4,2.4,0,1,0-1.9,4.41c.57.24,57.47,24.86,89,45.39A2.44,2.44,0,0,0,1628.35,1724.33Z" fill="#83e5c6"/><path d="M2104.73,1614.44a2.4,2.4,0,0,0,.93-4.62c-1.42-.59-35.1-14.68-53.45-17.82a2.4,2.4,0,1,0-.81,4.73c17.8,3,52.06,17.38,52.4,17.52A2.38,2.38,0,0,0,2104.73,1614.44Z" fill="#83e5c6"/><path d="M2064.79,1564.14a2.38,2.38,0,0,0,1.69-.7c14.25-14.15,44.73-30.76,45-30.92a2.41,2.41,0,0,0-2.29-4.23c-1.28.7-31.39,17.1-46.13,31.74a2.4,2.4,0,0,0,0,3.4A2.38,2.38,0,0,0,2064.79,1564.14Z" fill="#83e5c6"/><path d="M1407.3,1707.52c-1-.87-98-87.71-245.62-117.24-17.78-3.56-36.72-6.3-57.9-8.4a2.4,2.4,0,1,1,.47-4.78c21.35,2.11,40.44,4.89,58.37,8.47,149,29.8,246.94,117.51,247.91,118.39a2.4,2.4,0,0,1-3.23,3.56ZM709.43,1589.13c-80.43-2.64-179.08-39.76-198-47.18a2.4,2.4,0,0,1,1.75-4.47c18.83,7.36,116.79,44.24,196.44,46.84,19.84.66,51.54-1.19,90.92-3.68a2.44,2.44,0,0,1,2.55,2.25,2.41,2.41,0,0,1-2.25,2.55c-34,2.14-62.39,3.82-82.41,3.82C715.2,1589.26,712.2,1589.22,709.43,1589.13Z" fill="#83e5c6"/><path d="M1354.47,1668.29a2.4,2.4,0,0,0,2.19-3.4c-.69-1.49-16.88-36.6-31.34-53.86a2.4,2.4,0,0,0-3.68,3.08c14,16.78,30.49,52.42,30.65,52.78A2.4,2.4,0,0,0,1354.47,1668.29Z" fill="#83e5c6"/><path d="M1278.71,1627.7a2.64,2.64,0,0,0,.73-.11,2.41,2.41,0,0,0,1.56-3c-9.22-29-67.19-108.66-69.65-112a2.4,2.4,0,1,0-3.88,2.83c.6.82,60,82.41,69,110.67A2.41,2.41,0,0,0,1278.71,1627.7Z" fill="#83e5c6"/><path d="M1226.64,1687.1a2.39,2.39,0,0,0,1.36-.42c24-16.61,89.18-40.14,89.83-40.37a2.4,2.4,0,1,0-1.62-4.52c-2.7,1-66.41,24-91,40.94a2.4,2.4,0,0,0,1.38,4.37Z" fill="#83e5c6"/><path d="M1373.34,1735.94a2.4,2.4,0,0,0,1.55-.57c14.71-12.53,31.8-17.14,35.24-17.61a2.4,2.4,0,0,0-.66-4.76c-4,.54-21.94,5.3-37.69,18.71a2.4,2.4,0,0,0,1.56,4.23Z" fill="#83e5c6"/><path d="M1111.9,1631.45a2.41,2.41,0,0,0,1.15-.3c30.45-16.64,60-29.83,69.66-34.16,5-2.22,5.18-2.31,5.08-4l-4.79.34,2.4-.21-1.2-2.07c-.31.16-1.51.69-3.45,1.56-9.74,4.35-39.39,17.59-70,34.33a2.4,2.4,0,0,0,1.16,4.51Z" fill="#83e5c6"/><path d="M1139.47,1586.33a2.36,2.36,0,0,0,.9-.17,2.41,2.41,0,0,0,1.33-3.13c-.74-1.82-18.41-45-47.92-69.06a2.4,2.4,0,0,0-3,3.73c28.53,23.24,46.32,66.7,46.5,67.13A2.38,2.38,0,0,0,1139.47,1586.33Z" fill="#83e5c6"/><path d="M784.33,1586.46a2.34,2.34,0,0,0,1.27-.37,2.4,2.4,0,0,0,.76-3.31c-1.35-2.17-33.44-53-57.13-55.35a2.4,2.4,0,0,0-.47,4.78c21.37,2.09,53.21,52.61,53.53,53.12A2.41,2.41,0,0,0,784.33,1586.46Z" fill="#83e5c6"/><path d="M655.37,1628.65a2.39,2.39,0,0,0,.63-.09c.41-.11,42.14-11.68,87.53-40.23a2.4,2.4,0,1,0-2.56-4.06c-44.74,28.15-85.83,39.55-86.24,39.66a2.4,2.4,0,0,0,.64,4.72Z" fill="#83e5c6"/><path d="M669.57,1585.4a2.4,2.4,0,0,0,1.73-4.06c-1.17-1.23-29-30.25-55.82-36.61a2.4,2.4,0,1,0-1.11,4.67c25.38,6,53.18,35,53.46,35.25A2.37,2.37,0,0,0,669.57,1585.4Z" fill="#83e5c6"/><path d="M1407.38,1575.41a2.45,2.45,0,0,0,1.29-.38,2.4,2.4,0,0,0,.73-3.32,346.16,346.16,0,0,1-35.88-82.13l-1.49-5.31c-14.34-51-44.17-157.07-107.91-288-65.73-135-192.38-177.27-193.65-177.68a2.4,2.4,0,1,0-1.48,4.57c1.25.41,126,42.08,190.81,175.21,63.56,130.58,93.31,236.39,107.61,287.24l1.49,5.31a351.37,351.37,0,0,0,36.45,83.42A2.41,2.41,0,0,0,1407.38,1575.41Z" fill="#83e5c6"/><path d="M1365.29,1471.68a2.42,2.42,0,0,0,2.09-1.2c1.81-3.16,44.36-78.09,33.57-132.53a2.41,2.41,0,0,0-4.72.93c10.45,52.67-32.58,128.45-33,129.21a2.4,2.4,0,0,0,.89,3.27A2.37,2.37,0,0,0,1365.29,1471.68Z" fill="#83e5c6"/><path d="M1340.77,1392.32a2.27,2.27,0,0,0,.77-.13,2.39,2.39,0,0,0,1.5-3c-2-6.39,4.61-98.28,7.44-137.52,1.1-15.13,1.82-25.12,1.89-27.37a2.4,2.4,0,0,0-2.32-2.48,2.43,2.43,0,0,0-2.48,2.33c-.07,2.15-.83,12.64-1.88,27.17-5.9,81.77-9.16,133.61-7.19,139.41A2.39,2.39,0,0,0,1340.77,1392.32Z" fill="#83e5c6"/><path d="M1294.34,1270.53a2.39,2.39,0,0,0,2.39-2.24c.3-4.43,7-108.8-11.08-142.8a2.4,2.4,0,1,0-4.24,2.25c17.46,32.81,10.6,139.16,10.53,140.23a2.4,2.4,0,0,0,2.24,2.55Z" fill="#83e5c6"/><path d="M1225.28,1140.14a2.6,2.6,0,0,0,.61-.07,2.4,2.4,0,0,0,1.71-2.93c-17.48-66.81-48.8-89.86-50.12-90.81a2.4,2.4,0,1,0-2.8,3.9c.31.23,31.28,23.17,48.28,88.12A2.4,2.4,0,0,0,1225.28,1140.14Z" fill="#83e5c6"/><path d="M1265.89,1207.82a2.4,2.4,0,0,0,1.35-4.38c-.55-.38-56.23-38.28-124.44-91.27a2.4,2.4,0,0,0-3,3.79c68.34,53.09,124.14,91.07,124.69,91.45A2.42,2.42,0,0,0,1265.89,1207.82Z" fill="#83e5c6"/><path d="M1315.22,1321.71a2.4,2.4,0,0,0,.43-4.77c-.51-.09-52.22-10-111.68-53.35a2.41,2.41,0,0,0-2.83,3.89c60.4,44.06,113.12,54.09,113.65,54.19A3.13,3.13,0,0,0,1315.22,1321.71Z" fill="#83e5c6"/><path d="M1353.43,1432a2.4,2.4,0,1,0,.09-4.8c-.57,0-60.67.34-120.93-43.23a2.4,2.4,0,0,0-2.82,3.89C1289.83,1431.32,1349.89,1432,1353.43,1432Z" fill="#83e5c6"/><path d="M1393,1549a2.4,2.4,0,0,0,.08-4.8c-.63,0-63.91-2.66-127-35.07a2.4,2.4,0,0,0-2.2,4.27c64,32.92,128.34,35.58,129,35.6Z" fill="#83e5c6"/><path d="M1430.61,1756.94a2.42,2.42,0,0,0,2.35-1.89c.24-1.12,25.34-113.94,87-282.3,61.52-168,162.83-270.81,163.84-271.83a2.4,2.4,0,1,0-3.4-3.39c-1,1-103.05,104.54-165,273.57-61.77,168.69-86.93,281.8-87.18,282.92a2.4,2.4,0,0,0,1.83,2.86A2.37,2.37,0,0,0,1430.61,1756.94Z" fill="#83e5c6"/><path d="M1556,1386a2.39,2.39,0,0,0,2.38-2.14c12.85-118.73,39.48-156.88,39.75-157.25a2.4,2.4,0,0,0-3.9-2.81c-1.12,1.56-27.64,39.55-40.62,159.54a2.4,2.4,0,0,0,2.13,2.65Z" fill="#83e5c6"/><path d="M1500.19,1523.36l.36,0a2.4,2.4,0,0,0,2-2.73c-16.07-106.68-5.64-212.06-5.54-213.11a2.4,2.4,0,1,0-4.77-.49c-.11,1.06-10.6,107,5.56,214.32A2.4,2.4,0,0,0,1500.19,1523.36Z" fill="#83e5c6"/><path d="M1465.08,1630.84a2.37,2.37,0,0,0,1.2-.32,2.41,2.41,0,0,0,.88-3.29c-30.42-52.58-44.56-147.57-44.7-148.53a2.4,2.4,0,0,0-4.75.7c.14,1,14.41,96.86,45.29,150.24A2.4,2.4,0,0,0,1465.08,1630.84Z" fill="#83e5c6"/><path d="M1443.11,1707.21a2.4,2.4,0,0,0,1.8-4c-.19-.23-19.94-23.07-37.09-70a2.4,2.4,0,0,0-4.51,1.64c17.49,47.91,37.16,70.62,38,71.57A2.4,2.4,0,0,0,1443.11,1707.21Z" fill="#83e5c6"/><path d="M1458.37,1657.52c10.81,0,84.35-1.89,142.36-51a2.41,2.41,0,0,0-3.11-3.67c-61,51.6-139.67,49.86-140.45,49.8a2.37,2.37,0,0,0-2.47,2.33,2.4,2.4,0,0,0,2.33,2.48Z" fill="#83e5c6"/><path d="M1487.48,1560.71a2.16,2.16,0,0,0,.66-.1c116.74-33.48,176-95.42,176.57-96a2.4,2.4,0,1,0-3.49-3.29c-.58.61-59,61.62-174.4,94.72a2.4,2.4,0,0,0,.66,4.71Z" fill="#83e5c6"/><path d="M1523,1460.36a2.36,2.36,0,0,0,.78-.13c74.79-25.92,137.54-118.12,138.17-119a2.4,2.4,0,1,0-4-2.69c-.62.92-62.5,91.79-135.76,117.19a2.4,2.4,0,0,0,.79,4.67Z" fill="#83e5c6"/><path d="M1486.81,402.72a2.4,2.4,0,0,0,2.39-2.18c11.41-122-23.15-249.49-84-310a2.4,2.4,0,0,0-3.38,3.4c59.94,59.62,93.92,185.53,82.64,306.2a2.41,2.41,0,0,0,2.17,2.62Z" fill="#83e5c6"/><path d="M1386.06,216.17a2.4,2.4,0,0,0,2.38-2.11c5.37-44,8.47-61.35,32.86-102.76a2.4,2.4,0,0,0-4.14-2.43c-24.88,42.22-28,59.85-33.49,104.61a2.41,2.41,0,0,0,2.1,2.68Z" fill="#83e5c6"/><path d="M1435.54,288.44a2.4,2.4,0,0,0,2.4-2.32c1.38-39.44,8.23-71.76,22.22-104.78a2.4,2.4,0,1,0-4.42-1.87c-14.23,33.58-21.2,66.42-22.6,106.48a2.4,2.4,0,0,0,2.31,2.49Z" fill="#83e5c6"/><path d="M1470.57,348.51a2.33,2.33,0,0,0,1-.2,2.39,2.39,0,0,0,1.23-3.16c-2.86-6.52,6.62-42.34,13.27-63.4a2.4,2.4,0,0,0-4.58-1.44c-3,9.38-17.51,56.68-13.08,66.77A2.38,2.38,0,0,0,1470.57,348.51Z" fill="#83e5c6"/><path d="M1512,171.58a2.4,2.4,0,0,0,2-3.77c-15-21.56-57.25-28.88-75.31-32l-.41-.07a2.4,2.4,0,0,0-.81,4.74l.4.06c16,2.77,58.37,10.11,72.18,30A2.42,2.42,0,0,0,1512,171.58Z" fill="#83e5c6"/><path d="M1523.32,300.56a2.41,2.41,0,0,0,2.38-2.07c1.52-10.76-21-38.1-45.45-66-2.17-2.48-4-4.5-5.17-5.94a2.4,2.4,0,0,0-3.66,3.11c1.23,1.45,3,3.5,5.22,6,12.5,14.26,45.72,52.13,44.3,62.2a2.4,2.4,0,0,0,2,2.71A1.84,1.84,0,0,0,1523.32,300.56Z" fill="#83e5c6"/><path d="M1383.57,1182.71a2.38,2.38,0,0,0,1.82-.83c51.42-59.85,54.69-123.61,57.86-185.28,2.12-41.22,4.12-80.15,19.78-117.2a2.4,2.4,0,0,0-3.24-3.1c-15.73,7.45-84.8,72.9-97.66,123.21a2.4,2.4,0,0,0,4.65,1.19c11-43.19,67.07-100.08,89-116.23-13.46,35.69-15.37,72.77-17.37,111.89-3.13,60.86-6.36,123.79-56.71,182.39a2.4,2.4,0,0,0,1.82,4Z" fill="#2e2020"/><path d="M1405.7,1671.19a2.41,2.41,0,0,0,.92-4.63c-122.12-50.15-147.28-164.13-176.41-296.1-25.08-113.67-53.46-242.23-153.11-345.55,19.62,4.37,71.08,16.15,98.19,25.64,63,22.06,124.8,85,173.9,177.26,41.82,78.57,69.36,169.11,71.88,236.28a2.4,2.4,0,1,0,4.8-.18c-2.54-67.85-30.3-159.18-72.44-238.36-49.67-93.31-112.37-157.07-176.56-179.53-34.06-11.92-105.91-27.38-106.64-27.53a2.4,2.4,0,0,0-2.2,4c103.27,103.28,132.08,233.8,157.49,349,29.42,133.29,54.83,248.41,179.27,299.51A2.29,2.29,0,0,0,1405.7,1671.19Z" fill="#2e2020"/><path d="M1414.42,1756.93a1.83,1.83,0,0,0,.33,0,2.4,2.4,0,0,0,2-2.71c-10.23-73.28-20.68-215.11,24.32-341.68,42.74-120.2,122.68-190.94,237.64-210.31-5.45,19.82-30.15,116-17.9,189.53,27.8,166.83-156.5,318.34-213.64,360.81a2.4,2.4,0,1,0,2.86,3.85c57.7-42.87,243.77-195.93,215.52-365.45-13.48-80.83,18.47-190,18.8-191a2.41,2.41,0,0,0-.5-2.26,2.37,2.37,0,0,0-2.18-.79c-118.82,18.76-201.29,90.78-245.12,214.05-45.34,127.53-34.85,270.24-24.56,343.95A2.4,2.4,0,0,0,1414.42,1756.93Z" fill="#2e2020"/><path d="M1627.35,1577.74a2.39,2.39,0,0,1-.07-3.39l16.21-16.83c76.55-79.44,76.55-79.44,108.34-146.23,9.35-19.67,21-44.14,38-78a2.4,2.4,0,0,1,4.29,2.16c-17,33.83-28.65,58.27-38,77.91-32.12,67.5-32.12,67.5-109.22,147.5l-16.2,16.83a2.4,2.4,0,0,1-3.39.06Zm31.69-206a2.38,2.38,0,0,1-.09-3.39c45.17-47.69,88.07-79.38,139.09-102.75a2.41,2.41,0,1,1,2,4.37c-50.44,23.1-92.88,54.46-137.62,101.68a2.39,2.39,0,0,1-3.39.09Z" fill="#2e2020"/><path d="M1433.65,1429.62a2.5,2.5,0,0,0,.47,0,2.41,2.41,0,0,0,1.89-2.82c-7-35.18-14.23-69-21.23-101.61-27.9-130.17-52-242.59-47.61-377.13.56-17.28-.73-34.47-2-51.1-6.72-89.47-29.84-180.83-52.2-269.17-24.69-97.54-50.22-198.39-52.69-294.63-3.46-135.11,27.8-217,90.42-236.76,12.62-4,36.31-7.64,46.12-.44a2.4,2.4,0,1,0,2.84-3.87c-11.33-8.31-36.36-4.71-50.41-.27-45.23,14.29-98.22,67.79-93.77,241.46,2.48,96.78,28.08,197.9,52.83,295.68,22.31,88.15,45.38,179.31,52.07,268.36,1.24,16.5,2.52,33.56,2,50.59-4.4,135.13,19.75,247.81,47.72,378.29,7,32.64,14.23,66.39,21.22,101.53A2.4,2.4,0,0,0,1433.65,1429.62Z" fill="#2e2020"/><path d="M1274.71,536.08a2.34,2.34,0,0,0,1-.23,2.4,2.4,0,0,0,1.32-2.69c-66.86-298.86-17.67-401.7,35.37-435.34,32.62-20.69,93-28.27,106.1-7.91a2.4,2.4,0,0,0,4-2.6c-15-23.35-77.24-16-112.71,6.46-53.47,33.91-103.34,135.52-40.64,426.11-3.56-6.62-7.56-14.59-11.09-21.62-2.83-5.62-5.5-10.94-7.46-14.6-6.4-12-18.55-30.82-18.67-31a2.4,2.4,0,1,0-4,2.6c.12.19,12.17,18.9,18.48,30.68,1.93,3.61,4.58,8.89,7.4,14.49,6.86,13.67,14.65,29.17,19,34.74A2.38,2.38,0,0,0,1274.71,536.08Z" fill="#2e2020"/><path d="M1398.59,1340.82a2.5,2.5,0,0,0,.47,0,2.4,2.4,0,0,0,1.88-2.83C1365.8,1162.83,1353.7,1087,1351.31,983c-5-217.33-71.9-444-131.22-519.46a2.4,2.4,0,0,0-3.78,3c58.85,74.8,125.2,300.23,130.19,516.6,2.41,104.32,14.53,180.32,49.74,355.74A2.4,2.4,0,0,0,1398.59,1340.82Z" fill="#2e2020"/><path d="M1465.64,1755.25a2.4,2.4,0,0,1,1.32-3.13c45.77-18.58,83.45-23.12,131.15-28.86,46.9-5.65,105.28-12.68,190.48-36.29a2.4,2.4,0,1,1,1.28,4.63c-85.55,23.71-144.12,30.76-191.19,36.43-47.34,5.7-84.74,10.2-129.91,28.54a2.39,2.39,0,0,1-3.13-1.32Zm586.74-124.35a2.4,2.4,0,0,1,1.22-3.16c50.59-22.44,103.58-32.35,170.88-32.19-65.92-42.37-125.94-71.24-183.26-88.15a2.4,2.4,0,0,1,1.36-4.61c59.78,17.64,122.41,48.14,191.46,93.23a2.4,2.4,0,0,1,1,2.72,2.22,2.22,0,0,1-2.33,1.7c-70.49-1.15-125.16,8.63-177.14,31.69a2.42,2.42,0,0,1-1,.2A2.38,2.38,0,0,1,2052.38,1630.9Zm-442.95-42.81a2.41,2.41,0,0,1,.76-3.31c69.49-43.63,109.88-59.79,174.11-79.51a2.4,2.4,0,0,1,1.41,4.59c-63.82,19.59-103.94,35.65-173,79a2.37,2.37,0,0,1-1.27.37A2.41,2.41,0,0,1,1609.43,1588.09Z" fill="#2e2020"/><path d="M1202.94,458.51c8.34,0,14.91-5.21,18.42-10.54,5.15-7.84,5.18-17,.07-22.86-4.75-5.43-14.17-10.24-14.57-10.44a2.4,2.4,0,1,0-2.17,4.29c.09,0,9,4.58,13.13,9.31s2.81,12.06-.48,17.06c-3.47,5.27-10.68,10.4-19.55,7.53-7.74-2.5-13.74-12.41-13.8-12.51a2.4,2.4,0,1,0-4.13,2.45c.28.48,7,11.57,16.45,14.63A21.69,21.69,0,0,0,1202.94,458.51Z" fill="#2e2020"/><path d="M1212.2,468.94a15.33,15.33,0,0,0,3-.29c8.51-1.7,17.45-12.45,19.17-20.21,1.17-5.22-1.92-10.57-5.49-13.56-2.54-2.12-5.09-2.88-7-2.07a2.4,2.4,0,0,0,1.71,4.48,8.18,8.18,0,0,1,3.9,3c.89,1.11,2.89,4,2.2,7.1-1.36,6.15-9.09,15.27-15.42,16.54a12.19,12.19,0,0,1-10.41-3c-.73-.71-1.9-2.15-1.6-3.74a2.4,2.4,0,1,0-4.72-.89c-.53,2.79.52,5.65,2.94,8.05A17,17,0,0,0,1212.2,468.94Z" fill="#2e2020"/><path d="M1547.26,376.49a2.4,2.4,0,0,0,1.56-4.23c-5.32-4.56-6.72-9.61-4.16-15,4.66-9.83,21-17.78,32.4-15.74,6.72,1.2,10.47,5.54,11.13,12.91A2.4,2.4,0,1,0,1593,354c-.85-9.51-6.2-15.63-15.07-17.21-13.43-2.4-32,6.72-37.58,18.41-3.5,7.39-1.6,14.75,5.37,20.72A2.41,2.41,0,0,0,1547.26,376.49Z" fill="#2e2020"/><path d="M1550.26,349.51a2.33,2.33,0,0,0,.68-.1,2.39,2.39,0,0,0,1.62-3c-.17-.58-17.26-58.45-24.15-77a2.4,2.4,0,1,0-4.5,1.68c6.83,18.38,23.87,76.09,24,76.67A2.38,2.38,0,0,0,1550.26,349.51Z" fill="#2e2020"/><path d="M1568.47,341.59a2.4,2.4,0,0,0,2-3.66c-9.82-16.05-19.32-44.86-28.5-72.72-5.25-15.91-10.2-30.94-15.2-43.68a2.4,2.4,0,1,0-4.47,1.75c5,12.62,9.88,27.59,15.1,43.43,9.27,28.12,18.86,57.2,29,73.73A2.4,2.4,0,0,0,1568.47,341.59Z" fill="#2e2020"/><path d="M1486.25,404.16a2.39,2.39,0,0,1-1.86-2.15c-3.83-47.86-40.61-100.46-73.06-146.87-35.82-51.24-66.76-95.49-55.26-128.75,5.8-16.78,22-29,49.4-37.34,30-9.12,59.55,2.3,83.21,32.18,45.84,57.89,61.48,176.33.18,281.8a2.38,2.38,0,0,1-2.07,1.19A2.48,2.48,0,0,1,1486.25,404.16ZM1406.86,93.65c-25.86,7.86-41,19.08-46.25,34.31-10.7,31,21.05,76.35,54.66,124.42,31.15,44.56,66.25,94.76,73.07,141.81,56-102,40.5-214.5-3.43-270-17.38-21.95-38-33.39-59.48-33.39A63.69,63.69,0,0,0,1406.86,93.65Z" fill="#2e2020"/><path d="M1574.86,267.14c21.08,0,44-7.73,62.29-17.58a2.44,2.44,0,0,0,1.27-2,2.4,2.4,0,0,0-1.12-2.11c-37.25-23.71-46.19-36.12-64-60.84-8.07-11.21-18.12-25.15-33.47-43.65-20.25-24.4-49.42-34.76-70.32-39.15a2.4,2.4,0,1,0-1,4.7c20.16,4.23,48.25,14.18,67.62,37.52,15.24,18.37,25.24,32.24,33.27,43.39,17,23.65,26.67,37,61.83,59.84-30.64,15.49-72.59,24.32-95.33.33a2.4,2.4,0,1,0-3.48,3.3C1543.52,262.56,1558.64,267.14,1574.86,267.14Z" fill="#2e2020"/><path d="M1290.58,549.83a2.41,2.41,0,0,1-1.78-2.9c0-.08.32-1.31.8-3.48a2.4,2.4,0,0,1-2.14-2c-.13-.75-13.61-75.43-16.93-98.64-3.42-23.89,19.3-71,20.27-73a2.31,2.31,0,0,1,2.17-1.35,2.4,2.4,0,0,1,2.16,1.38c.57,1.21,13.95,30.12,13.95,71.35,0,41-15.45,106.13-15.61,106.78a2.39,2.39,0,0,1-2.33,1.84A2.74,2.74,0,0,1,1290.58,549.83Zm-15.3-107.66c2.81,19.65,13,76.5,16,93.57,4.38-20.38,13-64.21,13-94.47A186.67,186.67,0,0,0,1292.83,377C1287.08,389.72,1272.69,424,1275.28,442.17Z" fill="#2e2020"/><path d="M1218.85,520.46c12.12,0,23.62-4.9,28.25-8.52a2.4,2.4,0,0,0-3-3.79c-5.18,4.06-21.27,10.25-35,6.17-8.44-2.5-14.62-8.5-18.42-17.84,27.63-6.5,41.17,1.29,46.36,4.28a11.13,11.13,0,0,0,2.4,1.18,2.4,2.4,0,0,0,1.34-4.61,13.42,13.42,0,0,1-1.34-.74c-5.27-3-21.29-12.23-52.55-4.12a2.43,2.43,0,0,0-1.51,1.19,2.4,2.4,0,0,0-.16,1.91c4.21,12.31,11.78,20.17,22.51,23.36A39,39,0,0,0,1218.85,520.46Z" fill="#2e2020"/><path d="M1193.18,440.34a2.4,2.4,0,0,0,.72-4.7c-2.56-.81-10.24-8.57-11.18-10.58-1.12-2.41-2.11-3.13-3.78-3.75a6.17,6.17,0,0,1-1.61-.81c-2.71-1.89-2.5-4.78-1.39-6.86a6.09,6.09,0,0,1,7.64-3.11c1.65.65,2.39,1.91,3.26,3.37a9.26,9.26,0,0,0,2.78,3.35c1.47,1,8.15,6.69,12.28,10.28a2.4,2.4,0,1,0,3.15-3.62c-1.07-.94-10.57-9.2-12.78-10.66a6.49,6.49,0,0,1-1.3-1.79,11.16,11.16,0,0,0-5.64-5.4c-5.86-2.29-11.3.94-13.63,5.32-2.14,4-2.08,9.62,2.9,13.07a11.35,11.35,0,0,0,2.67,1.37,3.15,3.15,0,0,1,.47.19,3.61,3.61,0,0,1,.63,1.07c1.34,2.89,9.84,11.8,14.1,13.14A2.21,2.21,0,0,0,1193.18,440.34Z" fill="#b7b7b7"/><path d="M1173,420.91a2.41,2.41,0,0,0,1.25-4.46c-10.71-6.51-21.37-10.09-32.65-13.89l-.24-.08c5.77-5.24,14-15.39,21.52-24.86,2.68,6.23,6.44,13,10.09,19.51,2.29,4.11,4.46,8,6.29,11.62a2.4,2.4,0,0,0,4.29-2.16c-1.88-3.73-4.07-7.65-6.38-11.8-4.35-7.78-8.83-15.83-11.3-22.74a2.41,2.41,0,0,0-4.14-.7l-2.61,3.28c-6.13,7.71-18.87,23.76-23.94,26.6a2.39,2.39,0,0,0-1.22,2.31,2.42,2.42,0,0,0,1.61,2.06l4.49,1.51c11,3.71,21.44,7.21,31.69,13.45A2.37,2.37,0,0,0,1173,420.91Z" fill="#b7b7b7"/><path d="M1179.22,426.52a2.35,2.35,0,0,0,1-.22,21.77,21.77,0,0,0,11.31-12.09,2.4,2.4,0,1,0-4.47-1.76,17.09,17.09,0,0,1-8.84,9.48,2.41,2.41,0,0,0,1,4.59Z" fill="#b7b7b7"/><path d="M1397.22,1756.19c-67.74-67-190.65-75-277.21-75.15a2.4,2.4,0,1,1,0-4.8c87.4.19,211.59,8.33,280.58,76.54a2.4,2.4,0,0,1,0,3.39,2.37,2.37,0,0,1-1.71.71A2.41,2.41,0,0,1,1397.22,1756.19ZM945,1682.7a2.41,2.41,0,0,1,2.38-2.42c2.86,0,6.67,0,10.74,0,7.1,0,15,0,19.94-.16a2.44,2.44,0,0,1,2.46,2.35,2.4,2.4,0,0,1-2.34,2.45c-5,.12-12.92.15-20,.16l-10.72,0A2.41,2.41,0,0,1,945,1682.7Zm-144.71-9.37a686.15,686.15,0,0,1-91.51-23.27c-104.28-34.67-197.07-107.73-198-108.46a2.41,2.41,0,0,1-.69-2.88,2.38,2.38,0,0,1,2.62-1.36c.83.15,84.68,15.2,174.17,1.7C717,1534.51,744.3,1521.31,767,1509a2.4,2.4,0,1,1,2.29,4.22c-23.1,12.51-50.87,25.93-81.73,30.58-72.69,11-141.71,3.26-166.29-.24,24.08,17.88,102.59,73.22,189,101.94a681.69,681.69,0,0,0,90.88,23.11,2.4,2.4,0,0,1-.44,4.76A2.25,2.25,0,0,1,800.29,1673.33ZM1297.51,1583c-68.88-61.85-130.07-91.72-180.83-112.78a2.4,2.4,0,0,1,1.83-4.44c51.15,21.22,112.79,51.32,182.21,113.65a2.4,2.4,0,1,1-3.21,3.57Z" fill="#2e2020"/><path d="M1170.41,439.65c-9.58-7.16-15.05-6.39-21.38-5.5-7.71,1.09-16.44,2.31-32.37-9.82a44.66,44.66,0,0,1,54.12-71.06c16.53,12.6,18.34,22.84,19.78,31.06,1.12,6.37,2,11.39,9.22,16.64a19.61,19.61,0,0,1,8.18,13.2c.92,6.25-1.16,13.25-5.7,19.22C1197,440.34,1190,444,1183,444A20.82,20.82,0,0,1,1170.41,439.65Zm-32-90.35a39.87,39.87,0,0,0-18.81,71.21c14.34,10.91,21.69,9.88,28.79,8.88,6.77-.95,13.76-1.93,24.92,6.41,9.28,6.95,19.33,2.33,25.16-5.32,3.76-5,5.5-10.64,4.77-15.61a14.94,14.94,0,0,0-6.26-10c-8.79-6.39-9.92-12.85-11.12-19.68-1.44-8.17-2.92-16.62-18-28.08a39.55,39.55,0,0,0-24.07-8.15A41.23,41.23,0,0,0,1138.38,349.3Z" fill="#2e2020"/><path d="M1069,1429.27s12.35-4.49,18.42-3.49,18.4,4.73,18.4,4.73.93-9.16.74-12.84,2.13-11,2.13-11,5.34-55.25,2-84.08-1.93-48.1-11.84-77.08S1066.92,1141,1066.92,1141s-21.11-64.7-30.92-69.5-44.37-21.49-51.13-23.71-18.61-5-18.61-5-5.94-11.17-8.33-14-9.42-9-9.42-9-88.46,3.54-90.17,5.63a13.2,13.2,0,0,0-3.34,7.26,85.13,85.13,0,0,1-2.43,9.28s-19.48,6-25.38,7.72S784,1061.73,775,1068.3s-14.45,13.08-16.56,16.88-9.57,17-20.5,55.81-37.4,139.51-37.4,139.51-1,6.67-1.06,23,5.55,56.8,7.92,69.37,16.16,70.39,22.77,80.1,11.92,12.83,12.41,13.25,1.16,3.37,1.56,4.28,7.56,9,9.89,9,24.65-17.85,29.73-20.28,12-1.8,12.21-5.3-.39-7.77-2.16-10.38a18.77,18.77,0,0,1-2.45-5.67s5.61-10.59-.54-40.34-17.25-69.72-17.25-69.72l-4.48-11.85s2.5-6.18,1.1-10.23a21.68,21.68,0,0,1-1.36-6.68l35.9-94a12.29,12.29,0,0,1,2.41,3.46c.65,1.7,24.7,61,24.7,61s13.59,34.9,13.22,41.7-3.58,42.77-11.42,69.22-10.37,36.12-10.37,36.12,38.6,42.64,93,46.64S1069,1429.27,1069,1429.27Z" fill="#fff" fill-rule="evenodd"/><path d="M1126.33,1745.88s-11.4-95.59-12.51-103.41-28.08-159.43-33.3-169.33-17.75-61.19-17.75-61.19-19.82,18.88-30,24.1-33.38,14.29-56.13,17.58-55.59-.27-67.91-2.76-48.57-12.44-59.22-17.49a255.4,255.4,0,0,1-23.23-13.11s-29.19,79-25.68,154.91,1.07,142.37,1.07,142.37,139,14.38,141.66,14.62,4.06-55.53,5.13-62.88,9.69-48.72,9.69-48.72,17.85,53.76,21.13,65.93,12.48,49.89,12.48,49.89S1052,1741.06,1126.33,1745.88Z" fill="#5e5e66" fill-rule="evenodd"/><path d="M1103.86,1431.78s-10.76-6.51-18.18-6.14a111.07,111.07,0,0,0-16.67,2.1c-1.29.39,3,12.85,5.41,19.51a29.93,29.93,0,0,1,.74,16.62c-.8,3.6-5.23,16.54-4.65,19.24s-.66,8.36,2.67,10,7.2-.18,7.2-.18-5.33,13.15-5.12,16.73-2.77,15.08.09,15.7,6.55-.18,8.11-3,2.78.49,6.46-4,6.34-5.52,8.21-10.57,3.32-5.66,6.84-10.82a120.09,120.09,0,0,0,8.66-14.81c1-2.36,3.14-14.77,2.6-18.66s-4.81-9.71-5.89-11.87S1104.13,1440.49,1103.86,1431.78Z" fill="#f9ebe0" fill-rule="evenodd"/><path d="M1106,1442.09c-13.69-15.07-23.84-13.3-37-12.82,0,0,7.73-4.11,14.26-3.69s20.3,4.13,20.3,4.13L1105,1439Z" fill="#fbc8ba" fill-rule="evenodd"/><path d="M793.12,1454.3s-16.55,5.07-21.83,8.42-13.9,10.81-15.33,13.21,2.53,8.72,2.53,8.72,13.77,35.19,16.34,39.68,23,33.38,25.91,35.33,8.74,5.68,11,6.22,3.7,1.21,4.1-1.68a57.68,57.68,0,0,0,.15-8s7.91,6.15,12.41,7.15,8.64,3.53,10.17,1.59.64-7.35.64-7.35,5.85,2.92,7.35,2.09,3.78-2.25,2.72-4.27-4.68-10.68-4.68-10.68l-13.72-17.64-.46-6.2s20.38,20.11,23.09,21.39,9,2.59,7.47-4.14a45.49,45.49,0,0,0-5.47-12.87s-18.79-23-23.37-29.88-14.08-20.14-14.08-20.14,8.95-11.08,13.14-10.82,7.56,3.56,10.71,4.08,6.68.53,6.83-1.12.2-5.87-.54-6.09-12.31-13.51-15.63-12.77-11.17,4.91-15.12,5.87-11.72,3.07-14,3.08S793.12,1454.3,793.12,1454.3Z" fill="#f9ebe0" fill-rule="evenodd"/><path d="M795,1456.14c-17.27,8.28-25.24,16.35-34.82,32.64L755.31,1477s13.32-13.08,18.11-15.4A53,53,0,0,1,795,1456.14Z" fill="#fbc8ba" fill-rule="evenodd"/><path d="M941,1085.3s-8-13.44-9.91-15.84-7.63-5.79-11-7.38-25.6-7.95-29.23-9.13-20.86-8.53-23.4-10.93-5.66-4.91-5.76-8.41,1-5.45-.27-11.6-5.81-19.33-5.81-19.33-21.31-57.18-6.3-79.69,36-51.93,51.33-58.54,22.21-11.7,28.21-7.2,21.31,42.74,23.56,48.94,4.75,9.65,7.14,11,13.31,3.44,14.29,5.26,2.18,5.75,1.77,7.59-2.16,7.11-1.82,9.2,9.25,37.15,10.52,41.19.7,14.16-11.48,17.55-19.08,5.89-21.25,8.77-7,14.49-4,22.09a40.14,40.14,0,0,0,7.27,12.09s-2.27,8.08-4,11.47-5.59,11.18-6.42,13.88S942.19,1075.9,941,1085.3Z" fill="#f9ebe0" fill-rule="evenodd"/><path d="M920.36,856c17.74,24.39,2.8,107.83-45.41,97.44C868.9,952.16,900.64,870.75,920.36,856Z" fill="#fbc8ba" fill-rule="evenodd"/><path d="M978.51,995.5s-30.73,4.32-37.19,4.62-10.35,3-6.75,8.26,12.08,13,12.31,11.61S940.72,1005.38,978.51,995.5Z" fill="#fbc8ba" fill-rule="evenodd"/><path d="M793.89,898.46s-8.76,5.57-10,8.71-3.54,10.57-3.62,13.42.45,12.61,2.4,15.09a15.51,15.51,0,0,0,5.2,3.89S787.79,909.79,793.89,898.46Z" fill="#fff" fill-rule="evenodd"/><path d="M783,906.56s-22.9.22-34.88,8.44-15.4,18.35-16.39,21.82-6.76,38.63,1.76,61.88,14.2,35.11,12.71,46.08-7.49,36.65-8.17,42.52-3,21.56.21,28.55a78.67,78.67,0,0,1,4,10.1s9.9-34.38,15.93-41.86a86.9,86.9,0,0,1,19.34-17.52c6.5-4.37,17.82-8,17.82-8s4.87-16.88-2.61-33.34-19.31-47.73-20.47-54.83-6.61-17.5,8.28-38.75C779.07,925,779.06,912.78,783,906.56Z" fill="#e82d5e" fill-rule="evenodd"/><path d="M871.6,950.83s4.91,2.47,6.88,1.92S891.09,947,891.09,947s12.17-10.95,15.21-16.28,7.23-17,7.23-17,6.46-21.36,6.29-26.8-1.41-15.59-1.33-17.41,1.28-7.24,2.7-6.84,7.64,1.55,8.73,2.3,13.86,13.09,15.86,20.3,5.46,18.61,5.46,18.61l2.36,4.49s4.75-23.62,2.33-32.13S945.84,850.81,936,848.4s-14.26-4.7-17-4a73.2,73.2,0,0,1-8,1.28s-25.19-6.05-50.62,2.11-51.11,21.77-60.31,39-12.63,37.3-12.22,52.12,7.45,34.89,11,40.71,11.58,16.53,20.19,22.05,7.91,7.24,14.4,9.58,11.33,1.45,14.09,1.73,8,.48,11.71-2,11.56-8.69,13.59-12.36,6-9,5.64-12a51.45,51.45,0,0,1-.19-7s-14.52-7.09-16.08-9.56-4.73-9.62-5-12S862.77,948.56,871.6,950.83Z" fill="#e82d5e" fill-rule="evenodd"/><path d="M957.59,917.68s7.26,2.43,10.52,3.41,6.75.4,6.82,3.44a23.62,23.62,0,0,1-1.23,8.61c-.88,2.1-1.94,4.47-1.94,4.47S965.19,937.88,957.59,917.68Z" fill="#f8aba8" fill-rule="evenodd"/><path d="M970.84,955.32c-.69,1.82-4.24,1.67-5.09,3.07-.28.46,1.21,5.39,4,8.22,2.45,2.49,6,2.12,5.62,4.5-.8,4.51-11.48,5.37-16.36.91s-5.8-9.46-5.5-12.52C953.93,955.19,973.72,947.71,970.84,955.32Z" fill="#f8aba8" fill-rule="evenodd"/><path d="M969.55,955.76s1.79,11.72,2.91,13.06-9.4-.23-12.64-2.82a20.7,20.7,0,0,1-5-6.25Z" fill="#fff" fill-rule="evenodd"/><path d="M939.34,932.2c5.33-2.19,10.93-.84,12.51,3s-1.47,8.73-6.8,10.92-10.93.83-12.5-3S934,934.38,939.34,932.2Z" fill="#f8aba8" fill-rule="evenodd"/><path d="M942,921.71a4.62,4.62,0,1,0,5.48,2.71A4.35,4.35,0,0,0,942,921.71Z" fill="#2e2020" fill-rule="evenodd"/><path d="M942.16,931a5.78,5.78,0,0,1-3-3.15,5.25,5.25,0,0,1,2.5-7,4.71,4.71,0,0,1,3.61,0,5.9,5.9,0,0,1,3.08,7.55,4.7,4.7,0,0,1-2.53,2.56,4.43,4.43,0,0,1-1.72.34A4.88,4.88,0,0,1,942.16,931Zm.14-8.43a3.44,3.44,0,0,0-1.51,4.59,4,4,0,0,0,2.07,2.17,2.9,2.9,0,0,0,2.22,0,2.86,2.86,0,0,0,1.55-1.58,4.1,4.1,0,0,0-2.12-5.18,3.07,3.07,0,0,0-1.18-.24A2.74,2.74,0,0,0,942.3,922.55Z" fill="#2e2020"/><path d="M954.83,1042.1a2.4,2.4,0,0,0,.66-4.71c-2.41-.69-3.85-3.42-4.63-5.6-2.63-7.31-1.54-17.84,1.1-21.68,3.6-5.2,10.53-7,17.24-8.65,8.42-2.12,17.13-4.32,18-13.73.6-6.28-2.83-18.09-6.16-29.51-2.19-7.56-4.27-14.7-4.89-19.25a11.12,11.12,0,0,1,.82-4.62c.9-2.87,2-6.45.13-10.78-1.18-2.7-4-3.52-7-4.38-.73-.22-1.49-.44-2.28-.7-11.65-3.9-12.88-9-15.33-19.28-.57-2.35-1.18-4.91-2-7.69-5.57-19.2-18.28-27.83-18.82-28.19a2.4,2.4,0,0,0-2.67,4c.12.08,11.82,8.1,16.87,25.53.79,2.7,1.38,5.18,1.93,7.47,2.49,10.43,4.3,18,18.48,22.71.85.29,1.67.53,2.46.76,1.7.49,3.64,1.06,3.92,1.69,1.17,2.69.48,4.88-.31,7.43a14.87,14.87,0,0,0-1,6.69c.66,4.91,2.79,12.22,5,20,3,10.47,6.51,22.34,6,27.7-.55,5.75-5.84,7.37-14.42,9.54-7.22,1.82-15.4,3.88-20,10.58-3.86,5.59-4.64,17.75-1.68,26,1.67,4.64,4.38,7.62,7.85,8.6A2.48,2.48,0,0,0,954.83,1042.1Z" fill="#2e2020"/><path d="M968.44,971.67a22,22,0,0,0,5.39-.71,2.4,2.4,0,0,0-1.21-4.65c-4.36,1.12-10.2,1-14.54-4.92,7.13-1.88,12.92-4,13.2-4.14a2.4,2.4,0,1,0-1.68-4.5,148.75,148.75,0,0,1-15.82,4.77A2.4,2.4,0,0,0,952.2,961C955.8,967.94,961.56,971.67,968.44,971.67Z" fill="#2e2020"/><path d="M934.89,929.31a2.38,2.38,0,0,0,2.21-1.47c1.69-4,4-6.5,10.28-6.52a2.41,2.41,0,0,0,0-4.81c-9.52,0-12.85,5.08-14.69,9.47a2.39,2.39,0,0,0,1.28,3.14A2.35,2.35,0,0,0,934.89,929.31Z" fill="#2e2020"/><path d="M923.84,906.65a2.4,2.4,0,0,0,2-1c6.1-8.82,14.51-7.23,14.59-7.22a2.4,2.4,0,1,0,1-4.7c-.46-.1-11.61-2.21-19.49,9.19a2.4,2.4,0,0,0,2,3.77Z" fill="#2e2020"/><path d="M880.22,982c2.83,0,4.45-.43,7.8-2.19a2.4,2.4,0,1,0-2.22-4.25c-3.18,1.66-3.83,1.72-7.4,1.59-5.87-.24-12.26-5.6-16-10.81-2.37-3.31-3.28-6.11-2.69-8.31.53-2,2.38-3.75,5.52-5.19,3.51-1.64,8.49,2.48,10,4a2.4,2.4,0,1,0,3.51-3.28c-.32-.35-8.05-8.53-15.47-5.13-4.5,2.06-7.24,4.86-8.16,8.32-1,3.65.19,7.8,3.44,12.33,4.28,6,11.71,12.49,19.69,12.82C878.94,982,879.61,982,880.22,982Z" fill="#2e2020"/><path d="M879.82,970.32a2.4,2.4,0,0,0,1.4-4.35,29.43,29.43,0,0,0-10.71-4.49,2.4,2.4,0,1,0-.85,4.73,24.9,24.9,0,0,1,8.78,3.67A2.36,2.36,0,0,0,879.82,970.32Z" fill="#2e2020"/><path d="M845.33,1014.73a41.38,41.38,0,0,0,24-7.47c10-7.18,14.3-18,11.31-28.36a2.4,2.4,0,1,0-4.61,1.34c2.44,8.42-1.11,17.07-9.51,23.12-10.42,7.52-28,10.2-44-.74-20.68-14.23-32.76-40-32.32-69.07.44-28.64,13.11-53.74,33.92-67.14,22.51-14.83,62.22-26.23,87.21-18.81a2.41,2.41,0,0,0,1.25,0c10.93-2.65,23.26,1.12,31.4,9.61,10.82,11.3,13.28,29.72,6.92,51.87a2.4,2.4,0,1,0,4.62,1.32c6.85-23.86,4-43.93-8.08-56.51-9.15-9.54-23-13.85-35.36-11.11-26.65-7.54-66.87,4-90.58,19.57-22.14,14.26-35.65,40.85-36.1,71.09-.47,30.63,12.39,58,34.4,73.11A44.74,44.74,0,0,0,845.33,1014.73Z" fill="#2e2020"/><path d="M875,955.87a2.31,2.31,0,0,0,.37,0c34.37-5.34,49.85-51.88,45.82-82.9-.66-5.11.07-7.48,1-8,1.53-.87,5.7,1.32,8,3.16a2.4,2.4,0,1,0,3-3.75c-1.36-1.08-8.39-6.38-13.36-3.6-3.16,1.78-4.27,6-3.38,12.8,3.78,29.08-10.29,72.64-41.79,77.53a2.4,2.4,0,0,0,.36,4.78Z" fill="#2e2020"/><path d="M861.7,1036a2.39,2.39,0,0,0,2.31-1.74c1.65-5.75-1-19.51-3.51-24.55a2.4,2.4,0,1,0-4.29,2.15c2.22,4.45,4.37,16.95,3.19,21.08a2.39,2.39,0,0,0,1.64,3A2.15,2.15,0,0,0,861.7,1036Z" fill="#2e2020"/><path d="M871.17,953.48a2.33,2.33,0,0,0,1.14-.29c.69-.37,16.82-9.29,24.58-25.37a2.4,2.4,0,1,0-4.33-2.09c-7.09,14.7-22.39,23.16-22.54,23.24a2.4,2.4,0,0,0,1.15,4.51Z" fill="#2e2020"/><path d="M1002.61,1450.92l.31,0a2.4,2.4,0,0,0,2.08-2.69c-.2-1.54-19.83-154.51-13.12-188,15.93-79.66,3.91-92.64-14.29-112.28-10.05-10.86-21.45-23.17-31-50.61-6.52-18.77-12.16-35-36.2-41.46l-4.07-1.07c-12.56-3.26-35.94-9.34-41.32-19.12a8.24,8.24,0,0,1-.64-6.83,2.41,2.41,0,0,0-4.58-1.47,13,13,0,0,0,1,10.62c6.38,11.59,30.13,17.76,44.32,21.45l4,1.06c20.59,5.54,25.68,17.59,32.92,38.4,9.87,28.39,22.15,41.64,32,52.29,17.2,18.56,28.55,30.83,13.1,108.07-6.86,34.3,12.25,183.27,13.07,189.6A2.39,2.39,0,0,0,1002.61,1450.92Z" fill="#2e2020"/><path d="M944.33,1100.48a2.48,2.48,0,0,0,.65-.09,2.4,2.4,0,0,0,1.66-3c-5.84-20.62.38-32.51,5.38-42.07,5.31-10.15,9.89-18.91-3.25-31.66a2.4,2.4,0,1,0-3.35,3.44c10.57,10.26,7.48,16.18,2.34,26s-12.11,23.14-5.74,45.6A2.4,2.4,0,0,0,944.33,1100.48Z" fill="#2e2020"/><path d="M960.51,1089.58c2.11,0,4.93-1.55,7.44-8,5.17-13.38,7.2-46.81-19.53-64.77a2.4,2.4,0,0,0-2.68,4c22.78,15.3,21.13,41.66,20.08,49.38-1.22,9-4,13.7-5.24,14.52-.41-.5-1.54-2.42-2-8.69-.93-12.1-2.88-17.23-6.74-17.69-5-.61-9.27,8.83-11.91,16.86a2.4,2.4,0,1,0,4.56,1.5c2-6.15,5.09-12.24,6.71-13.43.52.75,1.86,3.55,2.59,13.13.64,8.36,2.63,12.67,6.09,13.18A4.51,4.51,0,0,0,960.51,1089.58Z" fill="#2e2020"/><path d="M913.46,1107.51a5.15,5.15,0,0,0,2.63-.69c3.83-2.23,3.79-8.47,3.72-17.12,0-5.22-.09-11.14.89-16.07.35-1.77.85-2.22,1-2.23,2.45-.5,10.69,8.45,17.44,19.1a2.4,2.4,0,1,0,4-2.57c-4.33-6.84-15.21-22.6-22.38-21.26-1.71.32-3.93,1.63-4.79,6-1.07,5.41-1,11.59-1,17,0,4.82.09,12.1-1.33,12.92-.15.1-1,.11-2.71-.91-9.69-5.64-20.28-15-28-21.78-1.52-1.34-2.93-2.58-4.22-3.69-6.8-5.88-22.74-19.67-23.71-27.63-1.11-9.06,2.45-21.54,6.35-22.26a2.4,2.4,0,1,0-.88-4.72c-8.6,1.59-11.28,19-10.24,27.56s12.8,19.84,25.34,30.68c1.28,1.1,2.68,2.34,4.19,3.66,7.88,7,18.67,16.46,28.77,22.33A10.15,10.15,0,0,0,913.46,1107.51Z" fill="#2e2020"/><path d="M742.54,1468.62a2.4,2.4,0,0,0,.43-4.77c-2.22-.41-4.78-2.64-7.41-6.45-21-30.56-38.31-146.2-32.7-176.47,4.13-22.33,36.31-136.33,46.68-171.72,9.35-31.86,24.88-39,38.58-45.23,12.43-5.68,52.94-16.53,65.06-19.71a2.4,2.4,0,0,0-1.22-4.65c-12.21,3.21-53.05,14.15-65.84,20-13.91,6.36-31.22,14.28-41.19,48.25-9.42,32.13-42.43,148.61-46.79,172.2-5.87,31.67,11.41,148,33.46,180.06,3.47,5,6.9,7.8,10.5,8.45A2.28,2.28,0,0,0,742.54,1468.62Z" fill="#2e2020"/><path d="M791.32,1440.24a2.48,2.48,0,0,0,1.08-.26c1.84-.92,3-3,3.6-6.33,4-22.76-19.15-113.17-26.86-121.35-13.94-14.81-31.87-21.75-32.63-22a2.4,2.4,0,0,0-1.71,4.49c.18.06,17.69,6.86,30.84,20.84,6.8,7.22,28.51,91.93,25.82,115.91-.4,3.54-1.22,4.19-1.23,4.2a2.4,2.4,0,0,0,1.09,4.54Z" fill="#2e2020"/><path d="M952.47,1457.24c42.51,0,86.08-12,115.78-48a2.4,2.4,0,0,0,.42-2.3c-15.26-44.91-23.68-134.42-11.65-182.53,6.4-25.63,11.1-52.27-7.46-71.71-17.2-18-21.48-33-24.92-45.11l-.24-.8a2.4,2.4,0,1,0-4.61,1.31l.23.81c3.39,11.91,8,28.23,26.07,47.11,16.87,17.67,12.34,42.9,6.27,67.23-12.11,48.43-3.87,138,11.33,184-52.78,62.53-143.92,45.53-180.8,35.27S826,1419,825.47,1415.63c.24-.65.64-1.91,1.15-3.5,17.7-55.39,24-93,18.55-111.72s-23.64-64.35-37.67-97.88a2.4,2.4,0,1,0-4.43,1.85c15.09,36,32.53,80.14,37.49,97.36,5.13,17.81-1.1,54.45-18.52,108.93-.52,1.61-.92,2.89-1.19,3.77-.46,1.47-1.83,6,15.44,15.27C860.66,1442.84,905.93,1457.24,952.47,1457.24Z" fill="#2e2020"/><path d="M768.19,1303a2.4,2.4,0,0,0,2.24-1.54l48.93-128.12a2.4,2.4,0,0,0-4.49-1.72l-48.93,128.12a2.4,2.4,0,0,0,1.39,3.1A2.34,2.34,0,0,0,768.19,1303Z" fill="#2e2020"/><path d="M769.06,1318.32a2.39,2.39,0,0,0,2.13-1.31,19.36,19.36,0,0,0,.76-13.9c-2-6-6.91-11-14.63-14.9a2.4,2.4,0,0,0-2.15,4.3c18.07,9,12,21.79,11.74,22.33a2.41,2.41,0,0,0,1.06,3.22A2.49,2.49,0,0,0,769.06,1318.32Z" fill="#2e2020"/><path d="M1106.39,1416.39a2.38,2.38,0,0,0,2.19-1.42c12.61-28.27,1.74-140.72-2.52-153.71-1.39-4.23-4-13.27-7.33-24.7-12-41.32-34.34-118.22-51.16-151.79-11.4-22.77-42.6-33-67.67-41.15-5-1.65-9.78-3.2-14.16-4.78a2.4,2.4,0,1,0-1.63,4.52c4.45,1.6,9.24,3.17,14.3,4.82,24.22,7.92,54.36,17.77,64.86,38.74,16.63,33.18,38.89,109.81,50.85,151,3.46,11.92,6,20.54,7.38,24.85,4.11,12.56,14.56,123.66,2.7,150.26a2.39,2.39,0,0,0,1.21,3.17A2.28,2.28,0,0,0,1106.39,1416.39Z" fill="#2e2020"/><path d="M943.28,1734.57a2.42,2.42,0,0,0,2.41-2.33c1.06-35.3,8.15-152.43,54.5-177.41a2.4,2.4,0,0,0-2.28-4.23c-47.28,25.48-55.63,135.42-57,181.5a2.4,2.4,0,0,0,2.33,2.47Z" fill="#2e2020"/><path d="M799.22,1717.6c-.55-26.74-.6-52.77-.65-77.94-.06-26-.11-52.8-.71-80.43a2.41,2.41,0,0,1,2.35-2.46,2.34,2.34,0,0,1,2.46,2.35c.59,27.68.64,54.55.7,80.53,0,25.15.1,51.15.65,77.85a2.4,2.4,0,0,1-4.8.1Zm15.78-261a2.4,2.4,0,0,1-1.83-2.86,188.18,188.18,0,0,1,10.86-34.4,2.4,2.4,0,1,1,4.41,1.89,182.89,182.89,0,0,0-10.58,33.54,2.38,2.38,0,0,1-2.86,1.83Z" fill="#2e2020"/><path d="M1123.94,1746.13c-5.55-53.7-17.45-154.75-34.72-228.26a2.4,2.4,0,0,1,4.68-1.1c17.33,73.77,29.26,175.06,34.82,228.87a2.39,2.39,0,0,1-2.14,2.63l-.25,0A2.4,2.4,0,0,1,1123.94,1746.13ZM1074,1458.25c-4.4-15.76-9.56-32.64-13.56-45.59a2.4,2.4,0,0,1,4.59-1.42c4,13,9.18,29.9,13.6,45.72a2.4,2.4,0,0,1-1.66,3,2.48,2.48,0,0,1-.65.09A2.42,2.42,0,0,1,1074,1458.25Z" fill="#2e2020"/><path d="M991.71,1738.79a2.21,2.21,0,0,0,.51,0,2.4,2.4,0,0,0,1.84-2.85c-6.71-31.35-24.51-95.93-33.77-116.31a2.4,2.4,0,0,0-4.37,2c9,19.77,26.93,84.9,33.44,115.33A2.4,2.4,0,0,0,991.71,1738.79Z" fill="#2e2020"/><path d="M1105.83,1432.91a2.36,2.36,0,0,0,1.13-.28,2.4,2.4,0,0,0,1.2-1.53c.42-1.68,3.9-16.48-3.61-21a2.5,2.5,0,0,0-.63-.27c-.46-.12-1-.3-1.73-.51-7.15-2.16-26.14-7.9-39.68,5.61a2.4,2.4,0,1,0,3.39,3.4c11.51-11.48,27.9-6.52,34.9-4.41.56.18,1.07.32,1.49.45,2.68,2,2.47,8.47,1.73,13-14-4.76-25.1-6.26-36.17-.16a2.4,2.4,0,0,0,2.32,4.21c10.17-5.61,20.87-3.62,34.85,1.39A2.56,2.56,0,0,0,1105.83,1432.91Z" fill="#2e2020"/><path d="M753.24,1482.46a14.72,14.72,0,0,1-10-7.29c-2.8-4.78-3.2-10.57-2.13-13.81,3.62-11.07,27-27.15,43-27.15l1,0a2.36,2.36,0,0,1,.52.09,15.76,15.76,0,0,1,10.83,9.31c1.94,4.61,1.77,9.78.47,12.12a2.11,2.11,0,0,1-2.75,1.13c-3.23-.45-31.66,8.17-38.27,24.15a2.38,2.38,0,0,1-2.69,1.43Zm38.81-37a11,11,0,0,0-7.4-6.46c-14.69-.48-36.14,15.14-39,23.83-.59,1.8-.45,6.19,1.72,9.9a10.16,10.16,0,0,0,5,4.48c5.68-11,19.08-17.84,26.83-21,.44-.18,8.83-3.63,13.83-4A13.73,13.73,0,0,0,792.05,1445.48Z" fill="#2e2020"/><path d="M817.4,1476.69a2.38,2.38,0,0,0,2.05-1.16c3.46-5.7,8.22-7.66,12.42-8.82a16.63,16.63,0,0,1,3.46,1.71c2.25,1.34,5,3,8.15,3.31,5.77.58,7.61-2.19,8.19-3.88,1.85-5.39-4.48-14.52-14.41-20.8-3.8-2.4-9.21-.13-16.08,2.74-8.67,3.62-19.46,8.13-27.74,2.86a2.4,2.4,0,1,0-2.58,4c10.39,6.64,23,1.37,32.18-2.47,4.67-2,10-4.17,11.65-3.11,9.39,5.93,13.14,13.14,12.44,15.18-.24.69-1.85.8-3.18.66-2-.2-4.23-1.5-6.17-2.66-2.49-1.47-4.85-2.86-7.19-2.21-4.81,1.33-10.89,3.78-15.25,11a2.42,2.42,0,0,0,.81,3.3A2.46,2.46,0,0,0,817.4,1476.69Z" fill="#2e2020"/><path d="M812.8,1569a5.74,5.74,0,0,0,3.2-.89c3.35-2.22,3.15-7.36-.59-15.28a2.4,2.4,0,1,0-4.34,2.05c3.57,7.57,2.29,9.21,2.28,9.23-1.07.68-6.69-1.35-12-7.33-23.65-26.6-29.6-43.18-35.35-59.21a183.37,183.37,0,0,0-8.19-20.15,2.4,2.4,0,0,0-4.3,2.12,178.84,178.84,0,0,1,8,19.65c5.9,16.46,12,33.48,36.28,60.78C802.11,1564.89,808.22,1569,812.8,1569Z" fill="#2e2020"/><path d="M836.3,1568a5.59,5.59,0,0,0,4.3-1.63c2.27-2.45,1.54-6.84-2-11.76a2.4,2.4,0,1,0-3.91,2.78c2.12,3,2.57,5.25,2.32,5.74-.06,0-3.09,1.39-16.6-6.77-12.43-7.51-26-28.87-31.44-39.11a2.4,2.4,0,1,0-4.24,2.25c5.65,10.65,19.87,32.92,33.2,41C826.33,1565.47,832.33,1568,836.3,1568Z" fill="#2e2020"/><path d="M846.22,1562.51a5.28,5.28,0,0,0,4-1.67c4-4.32-.66-14.57-7.13-22-3.72-4.3-6.72-8.19-9.4-11.94,6.13,6.68,11.83,12.55,15.4,15.27,5.9,4.49,10.19,5.34,12.77,2.55,4.17-4.52-.6-16.74-5.72-22.46a231.64,231.64,0,0,1-17.4-21.52c-2.67-3.74-5.24-7.63-7.72-11.39-5.61-8.5-10.46-15.84-15.09-19.63a2.4,2.4,0,1,0-3,3.72c4.07,3.32,9,10.73,14.12,18.56,2.51,3.8,5.1,7.72,7.82,11.53a240.39,240.39,0,0,0,17.73,21.94c3.86,4.3,6.4,11.38,6.1,14.83a2.16,2.16,0,0,1-.33,1.17c-.28.14-2.15.06-6.33-3.12-5.8-4.41-18.72-19-28.15-29.61-7.57-8.53-11.6-13-13.09-14.07a2.4,2.4,0,0,0-3.22,3.5,215.63,215.63,0,0,1,14.92,20.69,198.72,198.72,0,0,0,17,23.12c6.53,7.54,8.24,14.54,7.24,15.6,0,0-2.45,1.25-11.63-5.68-14.07-10.61-28.92-29-37-45.84a2.41,2.41,0,0,0-4.34,2.08c8.35,17.44,23.78,36.56,38.4,47.59C838.24,1560.25,842.87,1562.51,846.22,1562.51Z" fill="#2e2020"/><path d="M786.39,941.81a4.91,4.91,0,0,0,2.88-.92,2.4,2.4,0,0,0-2.8-3.91c-.06,0-.28,0-.59-.14-1.72-1-4.42-5.59-3.63-16.85,1.07-15.22,13.06-19.56,13.57-19.74a2.4,2.4,0,0,0-1.55-4.54c-.63.21-15.51,5.46-16.81,23.94-1.1,15.63,3.89,20.16,6.08,21.38A5.86,5.86,0,0,0,786.39,941.81Z" fill="#2e2020"/><path d="M742.2,1128.35a2.36,2.36,0,0,0,1.27-.36,2.41,2.41,0,0,0,.77-3.31c-9.24-14.81-4.06-41.77,2.22-66.19,5-19.29.37-30.89-4.94-44.32-5.8-14.65-12.37-31.26-10-63.56,1-13.42,5.77-23.82,14.23-30.9,15.37-12.87,38-10.68,38.25-10.66a2.4,2.4,0,0,0,.51-4.78c-1-.1-24.85-2.45-41.81,11.73-9.52,8-14.89,19.48-16,34.26-2.44,33.4,4.63,51.3,10.32,65.68,5.21,13.17,9.33,23.57,4.76,41.36-6.54,25.4-11.84,53.58-1.65,69.92A2.41,2.41,0,0,0,742.2,1128.35Z" fill="#2e2020"/><path d="M794.25,1061.39a2.4,2.4,0,0,0,2-1c7.93-11,.23-30.1-8.69-52.27-10.93-27.17-23.31-58-5.38-74.66a2.4,2.4,0,1,0-3.28-3.51c-20.34,18.95-7.3,51.36,4.21,80,8,20,15.63,38.86,9.25,47.67a2.41,2.41,0,0,0,1.94,3.81Z" fill="#2e2020"/><path d="M738,1089.7a2.4,2.4,0,0,0,2.38-2.09c3.35-25.84-2.85-45.06-8.84-63.64-8.7-27-16.92-52.47,6.57-95.43a2.4,2.4,0,1,0-4.21-2.3c-24.48,44.77-16,71.21-6.93,99.21,5.83,18.08,11.86,36.77,8.65,61.54a2.4,2.4,0,0,0,2.07,2.69Z" fill="#2e2020"/><path d="M1049,1277.17a2.39,2.39,0,0,0,1.75-.75c.1-.11,10.17-10.64,23.32-10.64a2.4,2.4,0,1,0,0-4.8c-15.27,0-26.36,11.66-26.82,12.15a2.39,2.39,0,0,0,1.75,4Z" fill="#2e2020"/><path d="M1099.35,1505.82a2.43,2.43,0,0,0,1.59-.6c7.82-6.93,22.56-30.18,17.51-42.54-.88-2.15-2.33-5-4-8.22-3.65-7.08-9.17-17.77-8.23-22.19a2.4,2.4,0,0,0-4.7-1c-.63,3,.3,6.89,2,11.2a9.28,9.28,0,0,1-1.38-2.26c-1.56-3.58-4.64-4.33-7.11-4.93s-4.4-1.08-6.2-3.52c-.67-.91-1.94-2.63-12.37.14a2.41,2.41,0,0,0-1.71,2.94,2.38,2.38,0,0,0,2.94,1.7c3.06-.81,6.44-1.51,7.72-1.36,2.75,3.36,6,4.17,8.48,4.76s3.29.9,3.85,2.19a15.34,15.34,0,0,0,5.51,6.5,12,12,0,0,1,5,6.58,2.4,2.4,0,0,0,2.1,1.63c1.59,3.08,3,5.73,3.74,7.65,3.73,9.14-8.46,30.22-16.25,37.12a2.4,2.4,0,0,0,1.59,4.2Z" fill="#2e2020"/><path d="M1075.88,1497.32l.5,0c8.33-.78,14.19-23.9,14.23-24.14,1.2-6.39,3.79-22.08,1.79-29.75a2.4,2.4,0,0,0-4.64,1.22c1.43,5.49,0,17.88-1.87,27.64-1.11,5.86-7,20-10,20.25-.14,0-1-.5-2-3-1.37-3.49.49-11.61,2.29-19.46,2.26-9.87,4.59-20.08,2.08-26.34a2.4,2.4,0,1,0-4.46,1.8c2,4.86-.31,14.74-2.31,23.47-2.13,9.34-4,17.41-2.07,22.29C1071.08,1495.27,1073.23,1497.32,1075.88,1497.32Z" fill="#2e2020"/><path d="M1077.57,1528.46c3,0,6.55-1.88,8.94-6.47,2.92-5.59,11.3-28.62,12.56-32.42,1-3,4.47-25.67,4.87-28.24a2.41,2.41,0,0,0-2-2.74,2.43,2.43,0,0,0-2.74,2c-1.46,9.55-4,25.46-4.68,27.45-1.46,4.41-9.62,26.64-12.26,31.71-1.53,2.94-3.75,4.19-5.11,3.83s-1.4-2.13-1.38-2.89c.06-5.93,5.28-23.1,8.08-30.15a2.41,2.41,0,0,0-4.47-1.78c-2.48,6.25-8.34,24.63-8.42,31.87,0,4.67,2.56,7,5,7.61A6.43,6.43,0,0,0,1077.57,1528.46Z" fill="#2e2020"/><path d="M1085,1523.34c7.83,0,14.58-14.4,16.53-19l1.62-3.77c3.79-8.8,6.3-14.61,8.79-27.6a2.4,2.4,0,1,0-4.72-.9c-2.39,12.47-4.69,17.79-8.49,26.6l-1.62,3.79c-4,9.31-9.54,16.49-12.36,16a2.4,2.4,0,1,0-.8,4.74A6.2,6.2,0,0,0,1085,1523.34Z" fill="#2e2020"/><path d="M807.44,963.67c-2.28-4.14-5.74-11-8.14-11.25-7.91-.78.13,12.85,2.15,15.24C816.13,985,815.41,978.2,807.44,963.67Z" fill="#3b2f2f" fill-rule="evenodd"/><path d="M816.42,957.89c-2.1-4-5.28-10.63-7.59-10.8-7.65-.56-.2,12.57,1.69,14.86C824.3,978.56,823.76,971.9,816.42,957.89Z" fill="#3b2f2f" fill-rule="evenodd"/><path d="M893.08,905.84c-2,17.11,11.39-3.13,6.58-15.11-3.42-8.52-9.54-6.25-8.59-1.78C891.92,893,893.77,899.83,893.08,905.84Z" fill="#7c6565" fill-rule="evenodd"/><path d="M904.2,905.07c-3.7,15.81,11-1.69,7.8-13.43-2.28-8.35-8.26-6.89-7.86-2.6C904.51,892.93,905.5,899.52,904.2,905.07Z" fill="#7c6565" fill-rule="evenodd"/><path d="M1569,681.48A138.37,138.37,0,1,0,1820.89,567c-48.37-106.43-92.94-45.21-131.22-127.47-16.69-35.87-55.17-43.85-91.2-27.48s-56.43,51.12-39.26,86.78C1590.85,564.53,1520.57,575.05,1569,681.48Z" fill="#fff3d6" fill-rule="evenodd"/><path d="M2033.67,1441s-9.22-59.27-8.27-73.14,6.4-44.38,12.78-66.6,30.87-106.47,35.1-137.27,9.94-83.26-3.07-98-15.14-17-21.11-19.37-12.11-4.4-12.11-4.4-7.49-19-10.3-21.25a12.7,12.7,0,0,0-8.54-2.81c-2.52.1-90.22.73-92.64,1.4s-4.44,1-4.44,1l-15.87-12.42-79.7-51s-33.47-25-36.2-27.46-12.49-11.12-12.49-11.12-9.2-31.06-10.59-35.55-13-45.38-14-52.91-9.32-59.67-13.12-67.57-12-14.89-12-14.89,3.51-12.78.91-16.4-4.31-8.48-7.3-8.23-42,.41-45.44,1.36-5.59,6.44-5.79,8.94.84,13,1.17,14.81,1,3.8-.57,6.6-7.23,8.89-5.62,36.66,5.2,31.74,6.3,36.52,4.73,19.89,4.73,19.89,27.2,65.42,32.4,80.63,6.59,28.36,5.39,33.29.48,10.49,2.79,14.13,8.45,9.62,8.45,9.62a115,115,0,0,0,8.71,35.2c7.64,17.25,25.18,52.06,39.31,73.49s38.52,54.33,41.54,57.49,2.71,4.63,2.71,4.63-15.64,91.32-17.77,111.91-10.22,105.37-11.7,122.75-4.37,49.78-4.37,49.78S1867.74,1498.11,2033.67,1441Z" fill="#fff" fill-rule="evenodd"/><path d="M1643.54,404.58c-15.2-51.93-54.58-56.38-77-45.81-22,10.37-44.89,39.66-7.15,88.44C1567.83,434.63,1591.27,400.67,1643.54,404.58Z" fill="#b7b7b7" fill-rule="evenodd"/><path d="M1796.91,1741.31s-10.5-108.6-11.12-144.64-.19-94.41-.06-99.21,2.22-53.85,2.22-53.85,32.57,18.34,67.48,20.29,68.4,3.29,97.58-3.34,52-11.1,53.59-11.53,23-6.76,23-6.76,10.28,63.16,16.34,97.07,12.7,139.06,13.74,178.33C1968.17,1729.15,1884.35,1734.64,1796.91,1741.31Z" fill="#5e5e66" fill-rule="evenodd"/><path d="M1753.49,933.09s-5.45-13.7-3.72-20.59,6.23-28.34-1.77-41.63-14.48-26.34-15.36-29.87-4.18-8.23-6.35-8.63-3.84-1.3-5.16,1.37a16.65,16.65,0,0,0-2,11.1,146.46,146.46,0,0,0,4.26,19.07,19.57,19.57,0,0,1,.93,5.12s-21.68-22.76-25-29.66-13.94-26.66-16-28.76-6.29-4.62-7.5-1.21-1.55,8-.2,11.28,9,19.13,11.53,25.29,5,12.75,3.67,14.31-8.09-1.79-11.71-7.15S1655,820.25,1654,819a30.82,30.82,0,0,0-8.81-6.25c-3.51-1.53-8.06.39-7.93,2.26s2.89,8,4.91,11.16,18.09,28.65,20.63,32.92,6.8,15.09,6.8,15.09-14.39-16.9-16.64-20.34-13.84-19.81-16-21-4.58-2.4-5.61,2.09,2.44,9.65,3.75,14.56,9,21.6,15.29,27.38,11.26,16.32,11.26,16.32-11.54-10-13.83-12.16-12.86-12.41-16.47-13.23-7,.52-6.53,3.38,5.63,11.34,8.52,14.94,8.05,9.29,10.08,10.83,27.14,17.56,37.57,25.93,26.3,24.71,26.3,24.71l7.51,10.11S1726.21,941.18,1753.49,933.09Z" fill="#f9ebe0" fill-rule="evenodd"/><path d="M1719.59,722.39s1.7-35,6.56-49.62,3.81-25,4.14-30.13a124.47,124.47,0,0,1,1.94-13.11s8.62-15.13,9.4-18.44.8-7.26-2.73-7.86-7.68-.09-9.82,1.11-7.77,7.79-9.86,12-3.78,11.49-6.36,13.59a30.56,30.56,0,0,0-3.42,3.09s-3.1-26.06-3.19-32.49-6.24-33.3-7.66-34.74-6.75-2.65-7.64,2.16-.85,12.07-.33,17.76.74,20.34.57,26.06-.62,10.61-.62,10.61-8.38-17.89-10.49-23.94-6.41-17-7.92-20-5.65-11.14-8.06-13.63-6.19-4.77-7.48-3.53-3.23,2.9-2.69,6.74a50.38,50.38,0,0,0,3.86,14.29c2.73,6.53,5.87,15.3,8.34,19.25s6.48,26.21,6.48,26.21-11.56-22.11-14.68-26.75-9.66-16-11.47-17.13-5.72-3.39-6.62-.37a21.74,21.74,0,0,0,.07,11.43c1.15,3.5,13.39,27.39,14,32.86s3.12,12.75.61,10.52-6-8.87-8.12-13.5-6.56-13-8.66-14.37-4.79-1.92-6.57-.59-3.1,2.83-1.48,7.34,14.49,32.08,17.76,41.61,12.54,35.6,16.61,40.1,7.68,7,9.29,10.56,3.93,15.68,3.93,15.68S1695.9,733.24,1719.59,722.39Z" fill="#fbf1ea" fill-rule="evenodd"/><path d="M1738.33,609.21c-2.89,6.9-14.52,13.61-13.2,6.22.66-3.69,4.41-8,8.1-9C1736,605.6,1739.19,607.15,1738.33,609.21Z" fill="#fdd9cf" fill-rule="evenodd"/><path d="M1701.34,582.79c.45,3.6,1.35,8.56-1.88,8.93s-5.75-6.57-5.92-10.06C1692.36,558.32,1700.23,573.91,1701.34,582.79Z" fill="#fdd9cf" fill-rule="evenodd"/><path d="M1660.07,565.61c1.34-.2,11.22,18.63,6.9,19.21C1661.57,585.55,1652.91,563.94,1660.07,565.61Z" fill="#fdd9cf" fill-rule="evenodd"/><path d="M1693.46,665.11c-4.5,12,1.5,25.07,7.2,22.06s17.77-20.52,18.72-27.36C1723.11,632.85,1704.67,635.21,1693.46,665.11Z" fill="#fdd9cf" fill-rule="evenodd"/><path d="M1677.25,677s-9.6-16.21-15-15-3.9,15.31.3,20.41S1686.86,695.28,1677.25,677Z" fill="#fdd9cf" fill-rule="evenodd"/><path d="M1645.36,588.27c1.26,1.48,4.05,4.29,5.71,8,2.28,5,2.75,10.64-2.86,6.83C1644,600.2,1639.35,586.32,1645.36,588.27Z" fill="#fdd9cf" fill-rule="evenodd"/><path d="M1633.8,612.43c3-.21,9.64,9.87,5.08,11.38C1636.63,624.56,1629.36,616.32,1633.8,612.43Z" fill="#fdd9cf" fill-rule="evenodd"/><path d="M2020.36,1027s-4.34-15.28-4.34-23.38,12.61-125.47-8.4-140.78-25.32-16-32-16.26-30.37,16.65-34.9,23-8.37,16.82-9.58,19.54-4.67,9.68-7.71,11.19-13,4-15.75,5-6.83.54-6.36,4.7,3.46,10.83-4.46,31.49l-7.93,20.65s-1.21,15.8,7.23,19.37,18.82,7.23,22.08,8.56a9.43,9.43,0,0,1,5.35,5.24c.45,1.35,5.26,31.2,5.26,31.2s-4.11,6.17-3.18,8.12,4.35,9.89,4.35,9.89,12.36-5.89,37.86-7.82S1996.52,1032.74,2020.36,1027Z" fill="#f9ebe0" fill-rule="evenodd"/><path d="M1933.38,1041.72c-.39-1.21-4.89-16.41-4.89-16.41s-3.74,4.69-2.84,9.37,4.35,9.89,4.35,9.89Z" fill="#fbc8ba" fill-rule="evenodd"/><path d="M1950.38,860.05s-7.73,6.45-10.72,10-8.2,16.83-9.11,18.6-4.16,4.05-5.9,1.15-2-9.06-2-9.06-6.35,1.61-6-3.74,3.69-20.56,5.37-23.65a72.74,72.74,0,0,1,7.71-10.71c2.69-3.14,15.3-10.6,20.49-10.5s6.91-1.17,10.34-2.71,26.79-10,36.8-8.16,18,3.3,23.94,5.87,13.89,7,13.89,7,20.68,7.7,30.52,15.79,17.42,14.66,19.4,17.47,17,20.08,19.28,30.4,3.45,16.23,3.5,20.14-1.81,27.5-9.23,38.16a151.81,151.81,0,0,1-16.82,20.06c-1.65,1.67-7.08,7.64-10,.24-6.88,5.89-13.69,11.47-13.69,11.47s-15,9.79-20.06,11.32-14.09,8.74-16.16,11.08-2.75,3.19-2.75,3.19-10.77-11.59-13-17.89-6.29-24.28-4-27.07,7.58-8.42,8-9.41,2.88-10.86-2.83-12.65-8.73-1.71-10.42-.43-7.49,8.38-7.28,5,2.25-11,2.37-13-2-8.06-2-8.06-6.81-2.55-8.06-4.62-11.75-16.45-11.75-16.45-2.23,1.58-6-2.16-12.59-15.08-13.76-18.11-3.47-17-2.66-20S1950.38,860.05,1950.38,860.05Z" fill="#7d38ce" fill-rule="evenodd"/><path d="M1902.1,984s21.62,3.72,29.73,4.92,12.61,3.6,5.4,10.8-10.1,10.58-10.61,13.28,2.47-25.7-24.41-28.64Z" fill="#fbc8ba" fill-rule="evenodd"/><path d="M2020.36,1029.4a2.34,2.34,0,0,0,.74-.12,2.4,2.4,0,0,0,1.55-3c-2.69-8.38-2.85-13.36-2.85-13.41a2.47,2.47,0,0,0-2.47-2.34A2.4,2.4,0,0,0,2015,1013c0,.23.16,5.65,3.09,14.77A2.4,2.4,0,0,0,2020.36,1029.4Z" fill="#2e2020"/><path d="M1920.68,901.11s-8.5,21.08-17,23.16c-1-.5-1.71-4.19-1.71-4.19l-.15-5.72s-1-4.36-.64-4.26,2.29-3.13,2.29-3.13,5.82-2.46,8.3-2.72C1917.41,903.65,1915.59,902.49,1920.68,901.11Z" fill="#f8aba8" fill-rule="evenodd"/><path d="M1940.94,920.57c4.83,2.81,7.07,7.72,5,11s-7.66,3.64-12.49.84-7.07-7.73-5-11S1936.11,917.77,1940.94,920.57Z" fill="#f8aba8" fill-rule="evenodd"/><path d="M1941.2,906a4.83,4.83,0,1,1-6.32,1.55A4.62,4.62,0,0,1,1941.2,906Z" fill="#2e2020" fill-rule="evenodd"/><path d="M1984,977.07c.5,0,1,0,1.53-.07,9.2-.73,21.77-8.07,26.07-18.66,1.93-4.77.89-8.29-.32-10.4a12.27,12.27,0,0,0-8.79-5.77c-4.48-.63-8.12,2.3-8.52,2.64a2.4,2.4,0,0,0,3.08,3.68s2.36-1.9,4.76-1.57a7.45,7.45,0,0,1,5.3,3.41c1,1.73,1,3.82,0,6.21-3.49,8.61-14.18,15.06-22,15.68-2.34.17-5.4-.08-6.78-2.37a2.4,2.4,0,0,0-4.11,2.48C1976.13,975.42,1979.56,977.07,1984,977.07Z" fill="#2e2020"/><path d="M1988.06,961.94a2.37,2.37,0,0,0,1.8-.81c3.63-4.08,10-.74,10.24-.59a2.4,2.4,0,0,0,2.3-4.22c-.4-.22-10-5.33-16.13,1.62a2.4,2.4,0,0,0,1.79,4Z" fill="#2e2020"/><path d="M1933.38,1044.12a2.34,2.34,0,0,0,.74-.12,2.4,2.4,0,0,0,1.54-3c-5.63-17.29-9.48-33.87-9.82-42.26-.41-9.91-9.46-12.59-17.44-15-6.39-1.89-13-3.85-15.64-9.08-2.21-4.35-1.74-10.75,1.43-19.56.63-1.73,1.78-4.72,3.12-8.15,5.29-13.67,7.84-20.56,8-22.73.21-3.57-.83-9.2-1.74-13.3-.41-1.82,2.25-2.75,8.77-4.28,5.49-1.29,11.71-2.76,15.43-6.77,2.47-2.67,5.7-9.13,7.2-14.4,3-10.42,7.36-14.55,15.33-22.06l1.47-1.37a2.41,2.41,0,1,0-3.3-3.5L1947,860c-8,7.55-13.33,12.54-16.66,24.23-1.42,5-4.35,10.57-6.1,12.45-2.72,2.94-8.19,4.23-13,5.36-6.5,1.53-13.86,3.26-12.36,10,1.18,5.28,1.77,9.65,1.64,12-.17,2-5,14.52-7.65,21.27-1.35,3.49-2.52,6.51-3.15,8.26-3.65,10.13-4,17.77-1.21,23.36,3.59,7.08,11.54,9.44,18.57,11.52,8.51,2.52,13.75,4.37,14,10.53.36,8.93,4.21,25.61,10.06,43.55A2.39,2.39,0,0,0,1933.38,1044.12Z" fill="#2e2020"/><path d="M1948.71,912.74a2.4,2.4,0,0,0,1.86-3.92c-5.07-6.21-9.83-11-16.69-6.08a2.4,2.4,0,1,0,2.78,3.92c2.54-1.81,4-2.34,10.19,5.2A2.41,2.41,0,0,0,1948.71,912.74Z" fill="#2e2020"/><path d="M1941.48,888.9a2.37,2.37,0,0,0,.82-.15,11.47,11.47,0,0,1,6.65-.21,2.4,2.4,0,0,0,1.15-4.66,16.24,16.24,0,0,0-9.45.36,2.4,2.4,0,0,0,.83,4.66Z" fill="#2e2020"/><path d="M1719.59,724.8a2,2,0,0,0,.54-.07,2.39,2.39,0,0,0,1.8-2.88c-1.91-8.28.51-19.61,3.57-34,2.89-13.54,6.49-30.4,7.51-50.24.36-7.15,4.16-13.62,7.21-18.82s5.49-9.35,4.28-13.17a7.83,7.83,0,0,0-4.61-4.62c-5.6-2.53-13.84,1.2-17.29,5-2.16,2.37-4.21,6.58-6.59,11.46-1.08,2.21-2.22,4.55-3.45,6.87-3.18,6-7,9.4-10.65,12.68-5.25,4.68-10.2,9.11-11.84,19.63a2.4,2.4,0,0,0,4.74.74c1.38-8.83,5.32-12.34,10.3-16.79,3.8-3.39,8.11-7.24,11.69-14,1.26-2.37,2.42-4.76,3.52-7,2.13-4.36,4.14-8.47,5.83-10.34,2.34-2.56,8.53-5.3,11.76-3.84,1.14.51,1.81,1.08,2,1.7.56,1.77-1.67,5.59-3.84,9.28-3.32,5.65-7.44,12.68-7.87,21-1,19.47-4.55,36.11-7.41,49.49-3.18,14.93-5.7,26.72-3.55,36.05A2.41,2.41,0,0,0,1719.59,724.8Z" fill="#6d6363"/><path d="M1676.48,726.64a2.4,2.4,0,0,0,2.4-2.35c.17-9-1.33-16.27-9.19-22.72-7.09-5.83-12.73-22.46-17.26-35.81-1.92-5.68-3.74-11-5.44-14.87-1.61-3.64-3.41-7.59-5.19-11.5-4.31-9.45-8.76-19.22-9.75-22.81s-.31-5.4.38-5.74c.94-.46,3.4.4,5.94,3.75,2,2.65,4.23,7.55,6.37,12.28,4.17,9.22,6.33,13.67,9.69,13.86a3.58,3.58,0,0,0,3-1.67c1-1.62,1.92-5-2.71-15.79-1.82-4.23-3.67-8.22-5.41-11.94-3.91-8.38-7.28-15.62-7.88-20.78-.54-4.66.46-6,.74-6,1.39-.33,6.38,3.1,9.81,11.39,2.58,6.22,12.83,25.29,18.55,31.36A2.4,2.4,0,0,0,1674,624c-4.9-5.2-14.94-23.48-17.61-29.91-3.88-9.37-10.54-15.47-15.46-14.19-2,.52-5.29,2.69-4.3,11.23.69,5.93,4.22,13.5,8.29,22.26,1.72,3.68,3.56,7.63,5.36,11.81a47.93,47.93,0,0,1,2.83,8.09c-1.31-2.38-2.86-5.79-4-8.37-2.25-5-4.57-10.12-6.91-13.2-3.69-4.88-8.36-6.9-11.9-5.16-1.23.61-5.1,3.23-2.88,11.32,1.09,4,5.42,13.47,10,23.53,1.77,3.9,3.57,7.84,5.17,11.46s3.4,8.89,5.28,14.46c5,14.66,10.61,31.28,18.77,38,6.41,5.27,7.58,10.92,7.43,18.92a2.39,2.39,0,0,0,2.35,2.44Z" fill="#6d6363"/><path d="M1709.43,635.47a2,2,0,0,0,.43,0,2.4,2.4,0,0,0,1.94-2.79,225.61,225.61,0,0,1-3.23-38.26c0-4.12-3.35-30-11.62-32.79-1.39-.47-4.13-.71-6.83,2.89-3.56,4.73-2.62,14.12-1.8,22.41.29,2.85.55,5.54.55,7.46v2.2c0,5.4,0,13.52-.2,19.39-1.44-3.77-3.14-8.82-4.55-13-1.74-5.14-3.54-10.47-5.26-15-2.57-6.78-11.65-29-20.2-29.57-1.74-.11-4.19.48-6.12,4-1.84,3.36-2.53,10.21,8.6,33.51,7.12,14.89,9.32,33.94,9.34,34.13a2.4,2.4,0,0,0,4.78-.53c-.1-.82-2.32-20-9.79-35.67-10-20.94-9.76-27.24-8.72-29.14.32-.58.93-1.52,1.57-1.53,3.68.26,11.27,13.9,16.06,26.49,1.68,4.44,3.46,9.71,5.19,14.82,6.18,18.28,7.51,21.53,10.69,21.14,2.51-.28,2.8-3.25,2.9-4.22.52-5.28.51-17.07.51-24.88v-2.19c0-2.16-.28-5-.58-7.94-.66-6.67-1.57-15.81.86-19,.68-.9,1.25-1.28,1.47-1.22,3.66,1.23,8.34,20,8.34,28.24a229.54,229.54,0,0,0,3.31,39.11A2.39,2.39,0,0,0,1709.43,635.47Z" fill="#6d6363"/><path d="M1753.8,936a2.36,2.36,0,0,0,1.36-.43,2.39,2.39,0,0,0,.62-3.33c-5.82-8.5-4.24-16.81-2.4-26.42,2.29-12,4.89-25.68-7.06-42-2.88-3.93-5.43-9.9-7.89-15.68-4.44-10.4-8.31-19.39-14.63-18.52a7,7,0,0,0-5.26,3.71c-3.76,6.55-1.73,21.52,5.17,38.14a2.4,2.4,0,0,0,4.44-1.84c-6.87-16.53-7.93-29.57-5.44-33.91a2.27,2.27,0,0,1,1.73-1.34c2.73-.32,6.85,9.27,9.57,15.64,2.57,6,5.23,12.27,8.43,16.64,10.72,14.63,8.43,26.64,6.22,38.24-1.87,9.78-3.8,19.89,3.16,30A2.41,2.41,0,0,0,1753.8,936Z" fill="#2e2020"/><path d="M1714.81,960.09a2.51,2.51,0,0,0,1.35-.41,2.42,2.42,0,0,0,.64-3.34c-16-23.64-34-35.68-54.9-49.62-4.81-3.22-9.82-6.57-15.07-10.22-8.54-6-16.44-18.54-19.45-23.67a3.14,3.14,0,0,1,.87-3.39c1.47-1.14,4.39.13,7.64,3.32,19.32,19,22.81,21.17,24.56,21.72a2.4,2.4,0,0,0,2.65-3.73c-3.38-4.51-18.36-25.62-22.57-33.7l-.82-1.57c-3.55-6.77-9.48-18.11-6.44-21.4.21-.22.3-.22.44-.2,2.64.24,7.88,6.54,15.57,18.73,2.58,4.09,17.89,25,21.94,25a2.4,2.4,0,0,0,2.31-2.08c.38-2.85-4.93-12.17-24.73-43.36-3.44-5.41-6.16-9.69-7.41-11.8-1.8-3.05-2.28-5.61-1.17-6.36,1.76-1.21,7,.25,10.86,5.19l2.93,3.74c6.76,8.6,13.14,16.73,18.26,24.41l1.34,2c5.65,8.52,10.11,15.24,17,14.95a3.49,3.49,0,0,0,2.89-1.69c2-3.42-.9-11-10.24-30.73-2.44-5.14-4.55-9.58-5.4-12-2-5.75-.44-9.25.32-9.52,2.38,1.63,8.7,7.26,16.9,25.89,8,18.29,34,40.35,35.1,41.28a2.4,2.4,0,0,0,3.1-3.67c-.26-.21-26.2-22.28-33.8-39.55-8.4-19.07-15.26-25.65-18.6-27.88a4.77,4.77,0,0,0-5.74.2c-2.66,2.07-4.37,7.6-1.8,14.85.93,2.63,3.08,7.18,5.58,12.44,3.58,7.56,10,21.13,10.41,25.48-3.76-.73-7.31-6.09-11.7-12.72l-1.35-2c-5.22-7.83-11.66-16-18.48-24.71l-2.93-3.73c-5.07-6.49-12.86-9.27-17.35-6.2-1.31.89-5.18,4.45-.25,12.78,1.29,2.17,4,6.48,7.48,11.93,4.13,6.5,10.67,16.8,15.89,25.45a124.1,124.1,0,0,1-7.29-10.11c-7.93-12.58-13.91-20.47-19.19-20.95a5.13,5.13,0,0,0-4.4,1.72c-5.35,5.77.78,17.48,5.71,26.88l.81,1.57c2.25,4.32,7.17,11.8,11.92,18.73-2.51-2.39-5.46-5.25-8.94-8.67-7.45-7.32-12.24-5-14-3.68-2.81,2.19-3.77,6.68-2.06,9.61,3.16,5.4,11.52,18.69,20.85,25.18,5.27,3.67,10.31,7,15.14,10.27,21.3,14.23,38.12,25.46,53.59,48.32A2.4,2.4,0,0,0,1714.81,960.09Z" fill="#2e2020"/><path d="M1921.89,1059.31a2.39,2.39,0,0,0,2.23-1.51c2.81-7,9-15.59,22.77-16.54.78,0,78-5.71,82.19-17.89.38-1.11.65-3.29-1.79-5.48-3.18-2.87-8.87-2.23-9.51-2.14a2.4,2.4,0,0,0,.61,4.76c1.32-.17,4.47-.15,5.69,1a1.83,1.83,0,0,1,.46.53c-2.12,5.63-52.4,12.72-78,14.48-12.65.87-22.21,7.81-26.9,19.55a2.4,2.4,0,0,0,1.34,3.12A2.34,2.34,0,0,0,1921.89,1059.31Z" fill="#2e2020"/><path d="M2037,1044.58h.16a2.4,2.4,0,0,0,2.24-2.55c-.38-5.72-8.48-21.85-12.05-24a2.4,2.4,0,0,0-2.46,4.13c1.84,1.41,9.39,15.14,9.72,20.16A2.4,2.4,0,0,0,2037,1044.58Z" fill="#2e2020"/><path d="M1889.07,1468.31c61.63,0,121.47-17.27,145.34-25.07a2.41,2.41,0,0,0,1.63-2.68c-.65-3.84-1.29-7.57-1.92-11.22-6.24-36.17-11.18-64.74,1.7-110.94,2.88-10.34,6-21.07,9.12-32,21.59-75.09,46.06-160.21,31.84-210.44-3.77-13.36-11.49-23.33-22.93-29.65-36-19.88-102.78-.26-151.55,14.07-15.18,4.46-28.29,8.31-38.6,10.49a2.4,2.4,0,0,0-1.86,2.84,2.43,2.43,0,0,0,2.85,1.86c10.49-2.22,23.69-6.09,39-10.58,48-14.09,113.65-33.38,147.88-14.47,10.42,5.75,17.17,14.5,20.64,26.75,13.84,48.92-10.43,133.33-31.85,207.8-3.15,11-6.24,21.72-9.13,32.08-13.16,47.24-8.15,76.27-1.8,113,.51,3,1,6,1.56,9.16-40.13,12.91-166.27,47.32-245.5.1,1.88-20.18,3.53-39.83,5.12-58.86,6-71.6,11.66-139.22,28.84-225.3a2.4,2.4,0,1,0-4.7-.94c-17.25,86.35-22.92,154.1-28.92,225.84-1.63,19.48-3.32,39.63-5.26,60.31a2.39,2.39,0,0,0,1.14,2.28C1812.9,1461.83,1851.32,1468.31,1889.07,1468.31Z" fill="#2e2020"/><path d="M1909.64,1062.69c1.9,0,3.69-2.29,6.7-6.16a64.64,64.64,0,0,1,5.28-6.23,17.81,17.81,0,0,1-.07,2.17,2.4,2.4,0,0,0,4.79.36c.26-3.32.15-6.86-2.56-7.91-3.28-1.25-6.41,2.47-11.23,8.66-.88,1.12-2,2.52-2.78,3.46a6,6,0,0,1-.28-.85c-1.51-6.24,3.17-21.24,7.77-27.88,4.71-6.81,9.41-6.49,9.46-6.48a2.4,2.4,0,0,0,.54-4.77c-.31,0-7.55-.74-14,8.52-4.83,7-10.51,23.37-8.49,31.74a7.3,7.3,0,0,0,3.5,5A2.83,2.83,0,0,0,1909.64,1062.69Z" fill="#2e2020"/><path d="M1930,1047a2.41,2.41,0,0,0,1.61-4.19c-4.78-4.31-4.27-12.3-1.36-17.62a2.4,2.4,0,1,0-4.21-2.3c-3.89,7.1-4.33,17.46,2.35,23.49A2.41,2.41,0,0,0,1930,1047Z" fill="#2e2020"/><path d="M1921.49,1023.37a2.4,2.4,0,0,0,1.67-4.13c-10.43-10-30.35-22.39-53.42-36.69-32.78-20.34-69.93-43.38-91.2-66.75A2.4,2.4,0,0,0,1775,919c21.72,23.87,59.17,47.1,92.22,67.6,22.83,14.16,42.56,26.39,52.62,36.07A2.36,2.36,0,0,0,1921.49,1023.37Z" fill="#2e2020"/><path d="M1864.27,1097.5a2.39,2.39,0,0,0,2.35-2c.78-4.14-34.28-84.78-64.44-121.11-11.37-13.71-21-20.37-29.49-20.37a2.41,2.41,0,0,0,0,4.81c32,0,87.63,128.53,89.17,136.26a2.39,2.39,0,0,0,2,2.33A2.28,2.28,0,0,0,1864.27,1097.5Z" fill="#2e2020"/><path d="M1868.78,1172.28c27.1,0,58.15-6.87,88.6-13.61,28-6.2,57-12.6,82.46-13.65a2.42,2.42,0,0,0,2.3-2.5,2.34,2.34,0,0,0-2.5-2.3c-25.9,1.06-55.07,7.52-83.29,13.76-51,11.28-103.66,22.94-134.72,1.58-15-10.33-96.85-128.13-94.71-171a2.39,2.39,0,0,0-2.28-2.51,2.35,2.35,0,0,0-2.52,2.28c-2.21,44.39,79.5,163.33,96.79,175.22C1832.48,1168.85,1849.64,1172.28,1868.78,1172.28Z" fill="#2e2020"/><path d="M2059.65,1720.07a2.41,2.41,0,0,0,2.4-2.52C2055.61,1589,2050,1528,2031.15,1442a2.41,2.41,0,0,0-4.7,1c18.76,85.67,24.38,146.47,30.81,274.77A2.39,2.39,0,0,0,2059.65,1720.07Z" fill="#2e2020"/><path d="M1896.07,1736.05l.32,0a2.4,2.4,0,0,0,2.06-2.7c-14.3-106.87-28.54-170.44-59-179.12a2.4,2.4,0,1,0-1.32,4.62c27.7,7.9,42.24,75.73,55.54,175.14A2.41,2.41,0,0,0,1896.07,1736.05Z" fill="#2e2020"/><path d="M1796.91,1743.71a1.94,1.94,0,0,0,.34,0,2.41,2.41,0,0,0,2-2.72c-13.7-95.91-13.6-216.42-9-297.22a2.4,2.4,0,1,0-4.79-.28c-4.67,81-4.77,201.92,9,298.18A2.41,2.41,0,0,0,1796.91,1743.71Z" fill="#2e2020"/><path d="M1559.39,449.61a2.39,2.39,0,0,0,1.89-3.86c-16.34-21.2-22.67-40.09-18.8-56.15,4.13-17.13,18.92-25.75,25.09-28.66a48.21,48.21,0,0,1,39.88-.21c15.64,7,27.32,22.43,33.79,44.52a2.4,2.4,0,1,0,4.61-1.35c-8.69-29.67-24.6-42.23-36.43-47.55a53.07,53.07,0,0,0-43.9.25c-14.36,6.77-24.46,18.39-27.71,31.87-4.23,17.55,2.39,37.81,19.67,60.21A2.41,2.41,0,0,0,1559.39,449.61Z" fill="#2e2020"/><path d="M1778.83,933.56a2.39,2.39,0,0,0,2.37-2.1c.72-5.72-3.86-20.82-11.38-45-6.27-20.13-13.37-43-15.23-56.72l-.37-2.69c-3.31-24.61-7.44-55.23-16.74-71.13a2.4,2.4,0,1,0-4.15,2.42c8.82,15.08,12.88,45.17,16.13,69.35l.37,2.69c1.91,14.17,9.08,37.19,15.4,57.5,5.82,18.68,11.83,38,11.21,43a2.39,2.39,0,0,0,2.08,2.68A1.56,1.56,0,0,0,1778.83,933.56Z" fill="#2e2020"/><path d="M1675.46,850.18a2.78,2.78,0,0,0,.57-.07,2.4,2.4,0,0,0,1.77-2.9l-.86-3.51c-6.5-26.7-15.41-63.26-8-82.85a2.4,2.4,0,1,0-4.49-1.7c-7.93,21,1.18,58.38,7.84,85.69l.85,3.5A2.41,2.41,0,0,0,1675.46,850.18Z" fill="#2e2020"/><path d="M1718.52,983.31c-4.78-4.74-8.94-13.81-7.64-22,1.11-6.93,10.68-15.91,19.67-21.74,4.91-3.19,17.28-10.34,26.12-8,7.32,2,19.63,15.67,18.4,25.19a2.4,2.4,0,0,1-2.1,2.07c-23.77,2.83-33,14.64-38.43,21.7-2.68,3.45-4.61,5.94-7.36,6.41a5.8,5.8,0,0,1-1.11.1C1723.63,987.06,1721,985.76,1718.52,983.31Zm36.91-47.08c-4.76-1.28-13.3,1.54-22.27,7.37-9.43,6.11-16.8,13.88-17.53,18.47-1.05,6.52,2.45,14,6.27,17.83,1.67,1.65,3.36,2.52,4.47,2.33.91-.16,2.75-2.53,4.38-4.62,5.77-7.44,15.34-19.76,39.54-23.25C1769.42,947.59,1760.27,937.53,1755.43,936.23Z" fill="#2e2020"/><path d="M1675.54,755.38c-8.53-3.46-10.41-13.17-9.43-20.43.81-6,3.87-12.41,8.85-13a2.37,2.37,0,0,1,1.21.17c12.64,5.33,30.23,4.46,42.78-2.11a2.39,2.39,0,0,1,1.68-.2c4.71,1.14,8,4.55,9.44,9.88,2.13,7.68,0,18.64-1.59,20.19-4.89,4.81-19.21,8.78-33.33,8.78C1688.18,758.67,1681.25,757.7,1675.54,755.38Zm49.1-26.59a7.5,7.5,0,0,0-4.33-4.07c-13.62,6.77-31.56,7.62-45.25,2.14-1.63.73-3.57,4.13-4.19,8.73-.76,5.56.49,12.91,6.47,15.34,15.88,6.45,41.48,1.11,47.51-4.22C1725.54,744.78,1727.56,734.89,1724.64,728.79Z" fill="#6d6363"/><path d="M1906.16,936.54s-3.41,11.36-4.7,12.53,9.34,1.09,12.9-1a21,21,0,0,0,5.86-5.49Z" fill="#fff" fill-rule="evenodd"/><path d="M1907.57,952.64c5.82,0,11.07-2.92,15-8.52a2.4,2.4,0,0,0-1.09-3.62,151.57,151.57,0,0,1-15-6.94,2.4,2.4,0,1,0-2.3,4.22c.26.14,5.7,3.09,12.49,6-5.13,5.28-10.92,4.56-15.09,2.83a2.4,2.4,0,1,0-1.83,4.44A20.42,20.42,0,0,0,1907.57,952.64Z" fill="#2e2020"/><path d="M1842,1464.32a2.4,2.4,0,0,0,2.4-2.3c3.48-85.42,10.95-179.92,41.84-292.09a2.4,2.4,0,1,0-4.63-1.27c-31.1,112.93-38.69,211.57-42,293.16a2.4,2.4,0,0,0,2.3,2.5Z" fill="#2e2020"/><path d="M1881.28,1092.6l2-1.3,1.89-1.48c-7-9-16.46-21.16-29.37-20.76a2.4,2.4,0,1,0,.15,4.8C1866.48,1073.47,1875,1084.55,1881.28,1092.6Z" fill="#2e2020"/><path d="M1627.89,524.43a34.66,34.66,0,0,0,20.61-7.11c10.34-7.86,16.88-22.38,8.18-37.13a31.74,31.74,0,0,0-5.45-6.92c-2.26-2.25-3.28-3.27-3.31-9.58,0-11-17-51.95-26.18-60.3a2.4,2.4,0,1,0-3.22,3.56c8,7.21,24.56,47.36,24.6,56.76,0,7.9,1.72,10,4.71,13a27,27,0,0,1,4.72,6c7.69,13,1.06,24.78-7,30.86-9.48,7.21-24.74,9.7-35.86-1.85-5.6-5.81-6.26-12.29-6.91-18.55-.44-4.36-.87-8.48-3-11.9-4.5-7.27-24.78-52.29-25-52.74a2.41,2.41,0,1,0-4.39,2c.85,1.86,20.62,45.76,25.29,53.3,1.54,2.48,1.89,5.9,2.3,9.86.65,6.41,1.47,14.39,8.22,21.39A29.42,29.42,0,0,0,1627.89,524.43Z" fill="#b7b7b7"/><path d="M1622,655.47a2.41,2.41,0,0,0,1.08-.25c3.6-1.8,7.94-4,12.82-6.46,32.69-16.53,93.52-47.3,114.45-49a2.4,2.4,0,0,0,1.46-4.14q-6.36-6-12.57-11.86c-28.68-27-55.78-52.5-78.84-86.72a2.41,2.41,0,0,0-4,2.69c23.37,34.66,50.66,60.34,79.54,87.53,3,2.79,6,5.6,9,8.46-24.87,5-78.33,32.1-111.19,48.71l-9,4.55c1.69-25.07-.65-55.14-2.92-84.27-1.24-16.07-2.42-31.24-2.93-45.27a2.37,2.37,0,0,0-2.48-2.31,2.4,2.4,0,0,0-2.32,2.48c.51,14.13,1.69,29.35,3,45.47,2.38,30.61,4.84,62.26,2.58,87.74a2.42,2.42,0,0,0,1,2.2A2.46,2.46,0,0,0,1622,655.47Z" fill="#b7b7b7"/><path d="M1620.62,479.13c2.35,0,5.42-1,8.28-4.87,7.07-9.64-13.85-57.63-18.11-67.15a2.4,2.4,0,1,0-4.38,2c12,26.78,22.23,57.42,18.61,62.35-2.33,3.19-4.24,2.95-4.87,2.87-10.6-1.3-25.11-36.7-30.56-50-1-2.48-1.83-4.46-2.4-5.74a2.4,2.4,0,1,0-4.39,2c.56,1.25,1.35,3.19,2.34,5.61,10.92,26.66,22.65,51.54,34.43,53A8.67,8.67,0,0,0,1620.62,479.13Z" fill="#b7b7b7"/><path d="M1600.17,493.17a2.43,2.43,0,0,0,1.66-.66c12.59-12.06,28.14-18.44,45-18.44a2.41,2.41,0,0,0,2.46-2.4,2.35,2.35,0,0,0-2.46-2.4c-18.09,0-34.79,6.83-48.29,19.77a2.39,2.39,0,0,0-.07,3.39A2.36,2.36,0,0,0,1600.17,493.17Z" fill="#b7b7b7"/><path d="M1662.54,581.71c2.46,0,5.54-1,8.38-4.91,7.06-9.61-12.71-57.48-16.74-67a2.4,2.4,0,0,0-4.42,1.87c11.35,26.73,20.92,57.32,17.29,62.26-2.22,3-4.08,3.1-5.28,2.88-11.65-2.06-28.07-42.24-31.69-54.72a2.4,2.4,0,1,0-4.61,1.33c.15.55,17.94,55,35.47,58.12A8.91,8.91,0,0,0,1662.54,581.71Z" fill="#b7b7b7"/><path d="M1714.68,627.89a2.4,2.4,0,0,0,2-3.73c-8.51-12.77-29.2-35.78-39.15-46.83-2.67-3-5-5.55-5.47-6.15a2.4,2.4,0,0,0-4.37,1.86c.2.75.2.75,6.27,7.5,9.87,11,30.41,33.8,38.72,46.28A2.38,2.38,0,0,0,1714.68,627.89Z" fill="#b7b7b7"/><path d="M1663.14,648a2.32,2.32,0,0,0,.78-.13,2.41,2.41,0,0,0,1.49-3.06c-5.82-16.89-8.62-69.42-8.65-69.95a2.36,2.36,0,0,0-2.52-2.27,2.4,2.4,0,0,0-2.27,2.52c.11,2.19,2.86,53.74,8.9,71.27A2.4,2.4,0,0,0,1663.14,648Z" fill="#b7b7b7"/><path d="M1923.92,890.92a2.4,2.4,0,0,0,1.68-4.11c-.18-.21-3.65-4.64,4.74-16.86a2.4,2.4,0,1,0-3.95-2.72c-11,16-4.83,22.39-4.09,23.07A2.39,2.39,0,0,0,1923.92,890.92Z" fill="#2e2020"/><path d="M1916.66,879.39a2.4,2.4,0,0,0,2.4-2.3c.63-15.9,5.61-27.63,14.8-34.87,9.68-7.64,22-8.59,30.4-6.94a2.4,2.4,0,0,0,.93-4.71c-9.39-1.86-23.35-.77-34.3,7.88-10.35,8.15-15.94,21.09-16.63,38.45a2.4,2.4,0,0,0,2.3,2.49Z" fill="#2e2020"/><path d="M2040.15,839.74a2.4,2.4,0,0,0,1.38-4.37c-45.76-32.1-87-5.42-87.43-5.14a2.4,2.4,0,0,0,2.65,4c1.58-1,39-25.11,82,5.08A2.42,2.42,0,0,0,2040.15,839.74Z" fill="#2e2020"/><path d="M2080.2,980.18a2.39,2.39,0,0,0,1.7-.71c19.16-19.1,28.73-39.18,28.46-59.68-.29-21.67-11.45-43.06-33.16-63.57-29.23-27.63-62.06-24.85-63.44-24.72a2.4,2.4,0,0,0,.45,4.78c.33,0,32.1-2.65,59.69,23.43,20.73,19.59,31.38,39.82,31.66,60.14.25,19.16-8.85,38.07-27,56.22a2.41,2.41,0,0,0,1.69,4.11Z" fill="#2e2020"/><path d="M1984.21,928.59a2.4,2.4,0,0,0,1.41-4.35c-.12-.08-11.9-8.74-13.78-20.63a2.4,2.4,0,1,0-4.74.75c2.2,13.9,15.16,23.38,15.71,23.78A2.45,2.45,0,0,0,1984.21,928.59Z" fill="#2e2020"/><path d="M2026.13,952.32a2.41,2.41,0,0,0,1.83-4c-.08-.09-8-9.52-7.44-17.17a2.4,2.4,0,1,0-4.78-.35c-.7,9.62,8.18,20.19,8.56,20.63A2.4,2.4,0,0,0,2026.13,952.32Z" fill="#2e2020"/><path d="M2047.94,965.13A2.39,2.39,0,0,0,2050,964a2.41,2.41,0,0,0-.81-3.3c-.09-.06-9.36-5.79-10.26-15.46a2.42,2.42,0,0,0-2.61-2.17,2.4,2.4,0,0,0-2.17,2.61c1.12,12.13,12.09,18.86,12.56,19.14A2.41,2.41,0,0,0,2047.94,965.13Z" fill="#2e2020"/><path d="M2068.23,968.11a2.38,2.38,0,0,0,1.12-.28c.43-.24,10.73-6,9-26.31a2.4,2.4,0,1,0-4.78.4c1.42,17-6.2,21.5-6.53,21.68a2.41,2.41,0,0,0,1.17,4.51Z" fill="#2e2020"/><path d="M1988.63,953.26a2.4,2.4,0,0,0,2.16-1.34c.25-.5,6-12.49,1.48-22.95a2.4,2.4,0,0,0-4.41,1.92c3.68,8.44-1.33,18.81-1.38,18.91a2.39,2.39,0,0,0,2.15,3.46Z" fill="#2e2020"/><path d="M2019.2,1015.8a2.4,2.4,0,0,0,1.46-4.31c-12.44-9.5-19.14-31.79-15.7-42.7a2.4,2.4,0,0,0-4.58-1.45c-4,12.59,3.26,37.2,17.37,48A2.39,2.39,0,0,0,2019.2,1015.8Z" fill="#2e2020"/><path d="M2019.2,1015.8a2.39,2.39,0,0,0,1.9-.93c5.84-7.52,12.93-11,21.14-15.12,10.11-5,21.58-10.71,33.19-25.29a2.4,2.4,0,1,0-3.76-3c-11,13.74-21.9,19.18-31.57,24-8.37,4.16-16.28,8.09-22.79,16.48a2.39,2.39,0,0,0,.42,3.37A2.46,2.46,0,0,0,2019.2,1015.8Z" fill="#2e2020"/><path d="M1964.22,909.09a2.37,2.37,0,0,0,1.75-.76,2.39,2.39,0,0,0-.12-3.39c-10.12-9.42-22.38-24.52-12-46.83,10-21.71,26.51-16,27.21-15.72a2.4,2.4,0,1,0,1.65-4.51c-.22-.07-21.33-7.46-33.22,18.21-13,28.06,6.66,46.35,13.12,52.36A2.39,2.39,0,0,0,1964.22,909.09Z" fill="#2e2020"/><path d="M1968.14,872.78c-2.81,14.78-8.69-5.58-1.56-14.32,5.07-6.22,9.58-2.73,7.63.76C1972.44,862.37,1969.12,867.59,1968.14,872.78Z" fill="#7c6565" fill-rule="evenodd"/><path d="M1960.34,868.07c-2.17,14.4-8.62-5.07-2-13.79,4.68-6.2,9.18-3,7.41.45C1964.12,857.85,1961.1,863,1960.34,868.07Z" fill="#7c6565" fill-rule="evenodd"/><path d="M2093,929.68c.92-4.63,2.14-12.24,4.36-13.19,7.31-3.13,3.75,12.3,2.55,15.18C2091.11,952.66,2089.75,945.94,2093,929.68Z" fill="#3b2f2f" fill-rule="evenodd"/><path d="M1734.88,758.29A2.28,2.28,0,0,0,1736,758a2.39,2.39,0,0,0,1.07-3.22c-2.19-4.39-7.7-8.42-7.93-8.59a2.4,2.4,0,0,0-2.83,3.88c1.33,1,5.08,4.09,6.47,6.86A2.41,2.41,0,0,0,1734.88,758.29Z" fill="#6d6363"/><path d="M1666.77,762.12a2.39,2.39,0,0,0,2.3-1.73,14.13,14.13,0,0,1,4.82-6.92,2.4,2.4,0,0,0-2.72-4,18.78,18.78,0,0,0-6.71,9.52,2.4,2.4,0,0,0,1.63,3A2.33,2.33,0,0,0,1666.77,762.12Z" fill="#6d6363"/><path d="M2082.66,926.88c.79-4.44,1.81-11.73,4-12.59,7.13-2.84,4,11.93,2.88,14.67C2081.38,949,2079.88,942.45,2082.66,926.88Z" fill="#3b2f2f" fill-rule="evenodd"/><path d="M1566.76,682.48c-27.27-60-17.39-89.91-8.66-116.28,6.75-20.41,12.58-38-1.06-66.35-7.39-15.35-8.4-31.45-2.93-46.54,6.55-18.07,22.36-33.91,43.37-43.46,39.39-17.9,78.19-6.12,94.37,28.65C1709.31,476,1728.12,483,1748,490.33c22.91,8.46,48.87,18,75,75.66a140.77,140.77,0,0,1-256.31,116.49Zm32.71-268.26c-19.85,9-34.74,23.86-40.84,40.72-5,13.86-4.08,28.67,2.74,42.83,14.48,30.06,8.07,49.43,1.29,69.94-8.45,25.54-18,54.48,8.47,112.78,31,68.26,111.79,98.55,180,67.53s98.55-111.79,67.53-180c-25.35-55.8-49.24-64.61-72.34-73.14-20.86-7.71-40.56-15-58.86-54.31-10.39-22.33-30.14-34.34-53.51-34.34C1623.08,406.19,1611.38,408.81,1599.47,414.22Z" fill="#2e2020"/><path d="M1549.27,892.45a3.21,3.21,0,0,0,2.86-1.75l52.09-102.29a3.2,3.2,0,0,0-5.71-2.9l-52.09,102.28a3.21,3.21,0,0,0,2.85,4.66Z" fill="#fff"/><path d="M1531.53,851.4a3.19,3.19,0,0,0,2.72-1.52L1570.79,791a3.2,3.2,0,0,0-5.44-3.38l-36.54,58.89a3.21,3.21,0,0,0,2.72,4.89Z" fill="#fff"/><path d="M1851.4,861.11a3.2,3.2,0,0,0,2.52-5.17l-50.66-65.2a3.2,3.2,0,0,0-5.06,3.93l50.67,65.2A3.2,3.2,0,0,0,1851.4,861.11Z" fill="#fff"/><path d="M1887.88,796.2a3.2,3.2,0,0,0,2.09-5.63l-28.23-24.29a3.2,3.2,0,1,0-4.18,4.85l28.23,24.3A3.2,3.2,0,0,0,1887.88,796.2Z" fill="#fff"/><path d="M1892.37,827.23a3.21,3.21,0,0,0,2.27-5.46l-57.1-57.45a3.2,3.2,0,0,0-4.54,4.51l57.1,57.46A3.16,3.16,0,0,0,1892.37,827.23Z" fill="#fff"/><path d="M1493,778a3.18,3.18,0,0,0,2.33-1l36.22-38.51a3.2,3.2,0,0,0-4.66-4.39l-36.23,38.51A3.19,3.19,0,0,0,1493,778Z" fill="#fff"/><path d="M1454.55,792a3.22,3.22,0,0,0,2.3-1l50.92-52.29a3.2,3.2,0,0,0-4.59-4.46l-50.92,52.28a3.21,3.21,0,0,0,2.29,5.44Z" fill="#fff"/><path d="M1448.47,703.69a3.2,3.2,0,0,0,1.63-.44L1494.7,677a3.2,3.2,0,0,0-3.25-5.52l-44.6,26.27a3.2,3.2,0,0,0,1.62,6Z" fill="#fff"/><path d="M1513,492.38a3.2,3.2,0,0,0,1.86-5.8l-38.46-27.46a3.2,3.2,0,1,0-3.72,5.21l38.46,27.46A3.18,3.18,0,0,0,1513,492.38Z" fill="#fff"/><path d="M1483.92,490.35a3.21,3.21,0,0,0,1.4-6.09l-46.72-22.65a3.2,3.2,0,0,0-2.79,5.76L1482.52,490A3.19,3.19,0,0,0,1483.92,490.35Z" fill="#fff"/><path d="M1386.23,658.14a2.71,2.71,0,0,0,.69-.08l98.75-21.69a3.2,3.2,0,1,0-1.37-6.25l-98.75,21.69a3.2,3.2,0,0,0,.68,6.33Z" fill="#fff"/><path d="M1488,601.38a3.21,3.21,0,0,0,0-6.41l-46.49,0a3.21,3.21,0,0,0,0,6.41l46.49,0Z" fill="#fff"/><path d="M1737.51,392.57a3.2,3.2,0,0,0,3.14-2.58l9.84-49.64a3.2,3.2,0,1,0-6.28-1.25l-9.84,49.65a3.2,3.2,0,0,0,2.52,3.76A3.34,3.34,0,0,0,1737.51,392.57Z" fill="#fff"/><path d="M1771.66,404a3.2,3.2,0,0,0,3-2l10.74-25.81a3.2,3.2,0,1,0-5.91-2.46l-10.74,25.81a3.19,3.19,0,0,0,1.72,4.18A3.15,3.15,0,0,0,1771.66,404Z" fill="#fff"/><path d="M1794.69,448.42a3.2,3.2,0,0,0,2.66-1.42l40.31-60.22a3.2,3.2,0,0,0-5.33-3.56L1792,443.44a3.2,3.2,0,0,0,2.66,5Z" fill="#fff"/><path d="M1817.72,446.58a3.2,3.2,0,0,0,2.43-1.12l39-45.53a3.2,3.2,0,0,0-4.86-4.17l-39,45.53a3.2,3.2,0,0,0,2.43,5.29Z" fill="#fff"/><path d="M1964.71,746.9a3.2,3.2,0,0,0,1.67-5.94l-96-58.4a3.2,3.2,0,1,0-3.32,5.47l96,58.4A3.15,3.15,0,0,0,1964.71,746.9Z" fill="#fff"/><path d="M1886.58,640.25l60.87-1.87a3.19,3.19,0,0,0,3.1-3.3,3.14,3.14,0,0,0-3.3-3.1l-60.77,1.86a3.21,3.21,0,0,0,.1,6.41Z" fill="#fff"/><path d="M1904.54,603.31a2.36,2.36,0,0,0,.38,0l98.28-11.63a3.2,3.2,0,1,0-.75-6.36l-98.28,11.63a3.2,3.2,0,0,0,.37,6.38Z" fill="#fff"/><path d="M1890.68,547.32a3.38,3.38,0,0,0,1-.15l50-16.09a3.2,3.2,0,1,0-2-6.09l-50,16.08a3.2,3.2,0,0,0,1,6.25Z" fill="#fff"/><path d="M1905.18,526.3a3.34,3.34,0,0,0,1.11-.2l64.41-23.72a3.2,3.2,0,0,0-2.21-6l-64.42,23.72a3.2,3.2,0,0,0,1.11,6.21Z" fill="#fff"/><path d="M1856,494.23a3.19,3.19,0,0,0,1.67-.48l61-37.59a3.2,3.2,0,0,0-3.36-5.45l-61,37.59a3.2,3.2,0,0,0,1.69,5.93Z" fill="#fff"/><path d="M1496,551.21a3.2,3.2,0,0,0,1.12-6.2l-67.91-25.3a3.2,3.2,0,0,0-2.24,6L1494.83,551A3.17,3.17,0,0,0,1496,551.21Z" fill="#fff"/></svg>