<svg xmlns="http://www.w3.org/2000/svg" viewBox="0 0 2745 1830"><path d="M0,1830H2745V0H0Z" fill="#7d38ce"/><path d="M2100,520.71c1.94-3.89,1.5-9.54,2.42-13.91,3.11-14.79,4.88-29,3.93-44.15-.13-2.17.64-5.15,0-7.26-3.14-10.47-11.42-18.54-14.82-28.73-.09-.29-.21-.69,0-.91,1.71-1.71,6.87-1.9,9.08-2.72s4.89-2.86,7-4.23c.29-.19,1.53-1.5.91-2.12-7.93-7.93-26.78-8.08-36.9-14.21-20-12.13-34.81-30.86-59-35.39-12-2.25-23,8-35.08,5.44-6.62-1.41-12.15-6.52-18.75-8.46-11.85-3.49-27.91-1.93-39.61,1.51-7.15,2.1-16.15,8-20.87,13.91-2.27,2.84-3.74,6.16-6.35,8.77-2.29,2.29-5.5,3.83-7.56,6.35-5.74,7-9.93,16.44-17.85,21.47-9.81,6.25-22.5,9.67-32,16-1.8,1.2-9.59,3.54-9.08,6.65s14.25,6.59,17.54,7c.92.1,3.75-.53,4.54,0,.45.3-.31,1.05-.6,1.51a79.25,79.25,0,0,0-5.45,9.68c-4.2,9.47-9.77,18.45-12.7,28.43-5.33,18.12,7.5,46.66,16.33,60.78,6.73,10.77,15.43,34.52,16.33,47.18,0,.6,4.22-6.18,13.26-6.44,33.92-1,120.5-1,167.67-13.4,24.42-6.44,24.1-47.62,25-46.69Z" fill="#a978ef"/><path d="M2066.05,531.33c13.26-8.18,25.9-16,38.13.14,3,3.92,6.15,8.78,6,13.95-.42,11.76-6.13,25.25-13.74,33-5.33,5.46-9.41,3.33-12.14,10.27-1.47,3.74,4.73,27.47,4.51,35.13-1,35.57-20.72,79.59-46.94,103.18-6.58,5.91-32,49.34-36.64,41.56-8.4-14.25-27.24-25.8-35.76-35.11-17.53-19.12-37.12-36.16-54.85-55.09-6.33-6.74-16.9-22.52-21.63-30.45-10.62-17.81-13.69-36-16.82-55.87-3.57-22.77-13.84-46.51-13.84-46.51s15.75-15.7,18.19-17.48c1.09-.79,1.81-.48,2.69.35,10,9.36,22.39,16.2,32.12,25.5.81.78,1.34,3.05,2.29,2.46,1.26-.78-1.62-4.23-1.89-4.56a32.43,32.43,0,0,1-6.85-13.87c-.33-1.53-2-4.55-.42-4.69s12,8.15,13.74,9.73c12.58,11.19,22.06,12.2,37.52,13.53,1.7.15,11.38-1.21,12.41-2.44,1.7-2-5-5.24-6.85-6.68-8.23-6.45-20.9-24.08-24-34.2,0-.09-1.07-3.35-.33-3.81.3-.19,30.72,12.39,34.59,13.46,14,3.86,23.19.58,37.8.5,3.3,0,15.56-2.87,18.31-.58,8.07,6.75,9.54,46.81,12.18,47.85,4.7,1.85,9.82-10.16,9.51-13.64Z" fill="#ffe4ce"/><path d="M2100.26,610.3c10,3.33,17.24,17.6,29.76,21.77,58.14,19.38,123.4,24.25,165.58,73.87,30.16,35.49,54.2,85.07,69.15,130.44s20,70.23,28.08,111.07c3.84,19.45,6.76,33.09,10.13,57.64s1.84,46.88-9.28,69.14c-5.6,11.19-29.77,30.55-29.77,30.55s3.54,50.38,5.82,67.46c3.6,27,3.93,56.46,3.93,83.6,0,9.79-.46,38.54-.46,38.54s-72.16,14-99.8,17.76c-31.36,4.28-65.21,6.87-96.92,5.49-32.95-1.43-63-.33-95.62-5.49-28.13-4.44-56.32-14.5-82.56-24-7.29-2.66-24.26-20.67-31-24.7-8.35-5,2.07-42.3,2.69-49.49a799.85,799.85,0,0,0,2.36-103.44c-.12-3-.15-23.36-2.73-25.94s-13.83,29.48-22.55,37.79c-10,9.56-62.5.11-74.35-6.86-9.15-5.38-33.37-9.22-39-18.69-5.21-8.68-6.59-21.8.5-24.74,4.86-2,13.37,7.72,19.34,7.33,4.08-.26,6.76-9.57,7.16-13.53,1.15-11.51,5.85-36,2-49.37-2.93-10.07-12.22-5.59-16.38-11.83-2.28-3.43-1.13-17.06-.94-21.83.75-18.8,2.11-36.55-.67-55.47-7.25-49.3-14.76-100.65-8.37-144.45,2.45-16.8,6.75-21.71,15.55-36.37,6.11-10.19,27.05-24.17,36.36-31.34,8.53-6.56,21.1-22.2,32.29-23.44,10.06-1.12,24.2,20.65,40.83,34.78,15.14,12.86,24.87,17.5,30,24.07,4.63,5.94,11.84,22,16.51,20.81,3-.75,6.45-13.67,9.09-15.65,22-16.51,69.46-89.22,69.46-118.74Z" fill="#fff"/><path d="M2373.2,1467.91c6.59-13.19.56-57.59.56-73.83,0-11.72-4.67-98.37-4.67-98.37s-52.52,14.85-62.93,16.33c-54.55,7.8-132.54,6.49-187.39,3.93-46.5-2.16-65.92-5.93-109.88-21.75-4.64-1.68-40.56-24.64-40.56-24.64s-5.58,51.87-5.24,66.67c1.12,47-2.83,83-2.83,130.06Z" fill="#698ab5"/><path d="M1981.16,650.92c0,27-41.54,30.53-49.14,7.74Z" fill="#fff"/><path d="M1863.45,1017c.49-1.28-8.38-4.79-10-5.73a33.06,33.06,0,0,1-13.24-13.61c-8-16.25-11.54-35.68-20.85-51.1-3.17-5.26-7.94-9.17-11.54-14-14.78-20-18.52-43.69-28-66-2.12-5-6.44-20.84-15.23-13.66-9.45,7.72-2.53,33.81-9,37.86-4.88,3.06-11.56-9.27-15-11.21-4.26-2.4-12.73,7.77-15.32,10.93-8.4,10.2-10.21,22.79-12.72,35.24-1.24,6.16-9.92,33.74-8.3,39.78,3.3,12.3,22.53,20.3,31.41,27,7.31,5.5,12.19,14.34,19.3,19.72,12.22,9.27,25.76,16.91,37.58,26.64,17.48,14.39,29.3,27.85,51,34.77,1.69.54,10.37,5.72,10.48,5.68,4.94-1.49,11-29.57,10.53-34.78Z" fill="#ffe4ce"/><path d="M2149.92,999.22c-4.34-2-12.1,1-17.34-.91-14.44-5.21-30.59-19.22-42-29.15-33.09-28.75-56.6-64.12-105.9-59-12.83,1.33-4.09,11.6-11.22,16.75-9.58,6.94-8.37,8-9.54,18.18-.25,2.13-4.73,2.84-5.33,6-1.37,7,2.3,12.74,2.48,19.56.13,4.82-3.34,9.45-3.29,14.75.15,16.89,5.89,47.06,24.43,54.56,12.86,5.21,25,4.86,38.56,6.18,21.12,2.07,41,11.28,61.61,14.83,7.84,1.35,16.5-.53,24.13,1.33,9,2.19,18.74,2.8,27.5,5.87,7.52,2.64,17.36,8.64,25.33,7.82,4.12-.43,5.58-12.75,5.56-16.44-.06-11.5,3.81-40.82-5.69-49.83Z" fill="#ffe4ce"/><path d="M1836,1101.53a20.64,20.64,0,0,1-3.56-.31,3.81,3.81,0,0,1,1.31-7.51c4.22.73,8-.52,11.53-3.83,13.17-12.33,17.45-46.27,16-60.26-1.26-11.86-4.57-18.9-7.07-18.9H1854a3.82,3.82,0,0,1-.14-7.63h.36c10.32,0,13.59,16.06,14.62,25.71,1.67,15.7-3.15,52.42-18.33,66.63A21,21,0,0,1,1836,1101.53Z" fill="#571419"/><path d="M2262.06,1002.09a3.82,3.82,0,0,1-3.76-3.22c-3.1-19.64-56.34-151.42-78.8-199.77a3.81,3.81,0,1,1,6.91-3.21c20.9,45,76,180,79.42,201.79a3.81,3.81,0,0,1-3.17,4.36A4,4,0,0,1,2262.06,1002.09Z" fill="#571419"/><path d="M2308.3,1009.66a4,4,0,0,1-.59,0c-39.53-6.1-80.14-6.61-119.42-7.11-13.3-.16-27.05-.34-40.57-.72a3.82,3.82,0,0,1-3.7-3.92,3.76,3.76,0,0,1,3.92-3.7c13.46.38,27.18.55,40.44.72,39.54.5,80.43,1,120.49,7.19a3.81,3.81,0,0,1-.57,7.58Z" fill="#571419"/><path d="M2373.87,1300.12a3.81,3.81,0,0,1-3.81-3.82c0-33.37-4.68-150.58-11.91-182.65a3.81,3.81,0,0,1,7.44-1.68c7.34,32.57,12.09,150.74,12.09,184.33A3.82,3.82,0,0,1,2373.87,1300.12Z" fill="#571419"/><path d="M1965.38,1268.8H1965a3.82,3.82,0,0,1-3.44-4.16l.75-7.76c5-51,16.53-170.33-1.5-225.72-8.65-26.54-37.89-120.46-54.83-176.55-5.87-19.4-23.42-35.75-23.59-35.91a3.81,3.81,0,0,1,5.17-5.61c.78.73,19.26,17.95,25.71,39.32,16.93,56.05,46.15,149.88,54.79,176.39,18.52,56.91,6.83,177.37,1.84,228.81l-.75,7.75A3.81,3.81,0,0,1,1965.38,1268.8Z" fill="#571419"/><path d="M2171.28,1323.77c-45.92,0-87.33-2.8-110.64-8.11-31.06-7.06-73.27-21-98-47a3.81,3.81,0,1,1,5.54-5.24c23.43,24.69,64.14,38,94.17,44.85,60.59,13.77,245,10.54,307.78-15.3a3.81,3.81,0,1,1,2.9,7C2333.41,1316.28,2246.33,1323.77,2171.28,1323.77Z" fill="#571419"/><path d="M2372.67,1472h-.12a3.8,3.8,0,0,1-3.69-3.92c0-1.18,3.49-118.09-1.84-170.94a3.81,3.81,0,1,1,7.59-.76c5.37,53.34,1.9,170.75,1.86,171.93A3.81,3.81,0,0,1,2372.67,1472Z" fill="#571419"/><path d="M1960.88,1472.72a3.82,3.82,0,0,1-3.81-3.81v-12.64c-.06-52.5-.18-150.21,6.69-185.75a3.81,3.81,0,0,1,7.49,1.44c-6.74,34.83-6.62,132.06-6.56,184.3v12.65A3.81,3.81,0,0,1,1960.88,1472.72Z" fill="#571419"/><path d="M2121.6,1472.59a3.79,3.79,0,0,1-2.57-1c-.39-.35-9.48-8.74-13.14-20.25-7.61-23.91-8.24-51.88-8.24-78.47a3.81,3.81,0,0,1,7.62,0c0,26,.61,53.29,7.89,76.16,3.05,9.58,10.93,16.86,11,16.93a3.82,3.82,0,0,1-2.57,6.63Z" fill="#571419"/><path d="M2025.45,918.18a3.81,3.81,0,0,1-3.79-3.47q-.92-10.1-1.76-20.18c-3.33-38.75-6.76-78.82-16.3-117a3.81,3.81,0,0,1,7.4-1.85c9.68,38.73,13.15,79.11,16.49,118.16.58,6.71,1.15,13.43,1.76,20.14a3.81,3.81,0,0,1-3.45,4.14Z" fill="#571419"/><path d="M1845.24,1009a3.81,3.81,0,0,1-3.82-3.81c0-.6,0-60.52-1.2-80.34-.8-13.7-2.77-28.05-4.86-43.24-6.15-44.87-12.51-91.27,9.58-129.43,10.32-17.82,27.66-29.26,44.42-40.33,10.67-7,20.75-13.69,28.77-21.72a3.81,3.81,0,0,1,5.4,5.39c-8.58,8.58-19.45,15.75-30,22.7-16,10.57-32.6,21.52-42,37.79-20.78,35.89-14.6,81-8.62,124.56,2.1,15.34,4.09,29.84,4.91,43.84,1.18,20,1.22,78.31,1.22,80.78a3.82,3.82,0,0,1-3.81,3.81Z" fill="#571419"/><path d="M1924.5,1131.86c-28.7,0-68.8-14.82-88.25-27.33-.26-.17-.55-.33-.85-.49-5.36-2.92-10.26-7.51-6.43-28.18a3.81,3.81,0,0,1,7.5,1.4c-3.15,17,.3,18.84,2.59,20.09.46.25.91.5,1.31.76,28,18,87.2,35,104.53,21.16,13.19-10.53,23.26-40.9,23.36-41.2a3.82,3.82,0,0,1,7.25,2.38c-.44,1.33-10.91,32.84-25.85,44.77C1943.78,1129.92,1934.88,1131.86,1924.5,1131.86Z" fill="#571419"/><path d="M1937.6,1030.44a3.8,3.8,0,0,1-1.5-.31c-4.24-1.82-8.37-3.67-12.45-5.51-14.3-6.43-27.79-12.5-43.75-15.64-2.45-.43-19.83-1.64-23.74-1.15a3.87,3.87,0,0,1-2.71.41,3.82,3.82,0,0,1-2.9-4.55c.83-3.73,4.07-4,16.47-3.34,5.8.29,12.91.86,14.35,1.15,16.81,3.31,30.7,9.55,45.41,16.17,4,1.81,8.12,3.65,12.32,5.45a3.81,3.81,0,0,1-1.5,7.32ZM1858,1005.36Zm0,0h0Z" fill="#571419"/><path d="M1964.33,794.44a3.46,3.46,0,0,1-.92-.12c-2.16-.56-4.61-1.2-15.9-35.91-4.9-15.06-11.4-36.82-13.58-48.58a3.81,3.81,0,1,1,7.5-1.38c3.24,17.49,16.93,60.31,23.06,74.77l.91-1.89c4.35-9,10.31-21.32,21.09-22.56,7.44-.87,15.14,3.78,23.56,14.17a3.81,3.81,0,1,1-5.92,4.8c-6.47-8-12.26-11.93-16.76-11.4-6.62.77-11.52,10.91-15.1,18.31-1.76,3.62-3.14,6.48-4.67,8.33A4.44,4.44,0,0,1,1964.33,794.44Z" fill="#571419"/><path d="M2001.67,771.75a3.81,3.81,0,0,1-3.4-2.1c-1.76-3.47-9-13-17.22-19.78-1.47-1.21-2.94-2.39-4.38-3.55-9.93-8-19.31-15.59-24.28-25.66a3.81,3.81,0,1,1,6.84-3.37c4.23,8.57,12.57,15.3,22.23,23.1q2.19,1.75,4.42,3.58c8.86,7.26,16.84,17.58,19.19,22.24a3.82,3.82,0,0,1-1.68,5.13A3.92,3.92,0,0,1,2001.67,771.75Z" fill="#571419"/><path d="M2008.33,778a3.73,3.73,0,0,1-1.31-.23,3.81,3.81,0,0,1-2.27-4.89c3.66-10,11.22-18.56,18.52-26.82,3-3.42,5.88-6.64,8.38-9.88a348.79,348.79,0,0,0,42.7-72.41c3.77-8.55,16.13-41,16-50.39a3.81,3.81,0,0,1,3.76-3.87h.06a3.81,3.81,0,0,1,3.81,3.75c.21,13.23-16.47,53.21-16.64,53.59a356.41,356.41,0,0,1-43.63,74c-2.66,3.44-5.73,6.91-8.71,10.27-6.83,7.73-13.9,15.72-17.07,24.39A3.82,3.82,0,0,1,2008.33,778Z" fill="#571419"/><path d="M2067.68,781.75c-3.46,0-8.57-3.13-18.32-9.6-3.93-2.6-8.38-5.55-10-6.16-10.16-3.71-13.82-.82-21.11,4.92-1.81,1.43-3.76,3-6,4.53a3.81,3.81,0,1,1-4.4-6.23c2.09-1.48,3.94-2.94,5.65-4.29,7.66-6,14.28-11.26,28.44-6.09,2.39.87,6,3.21,11.64,7,4,2.67,10.48,7,13.31,8.06,3.73-4.8,9.85-25.49,12.24-33.61,1.1-3.71,2-6.64,2.58-8.41,3.55-10.21,7.68-20.84,12.07-32.09,8.18-21,16.64-42.74,21.35-62.43a11.13,11.13,0,0,0-2-9.21c-4.95-7.27-16.51-12-18.78-12.33a3.74,3.74,0,0,1-3.63-3.91,3.81,3.81,0,0,1,4-3.7c3.25.08,16.89,5.36,23.88,14.48,3.91,5.1,5.27,10.78,3.92,16.44-4.83,20.2-13.39,42.18-21.67,63.43-4.36,11.18-8.47,21.74-12,31.82-.57,1.66-1.42,4.54-2.46,8.07-6.59,22.29-11.08,35-15.91,38.43A4.7,4.7,0,0,1,2067.68,781.75Z" fill="#571419"/><path d="M1965.62,722.67a27.27,27.27,0,0,1-7.33-.95c-31.86-9.56-63.81-55.45-76.35-85-4.48-10.52-6.57-23-8.6-35.11-1.84-10.93-3.73-22.24-7.37-31.9-.58-1.81-1.14-3.56-1.74-5.4-1.64-5-3.49-10.7-5-16.48a3.81,3.81,0,1,1,7.36-2c1.49,5.58,3.31,11.17,4.92,16.09.6,1.87,1.18,3.64,1.7,5.27,3.82,10.16,5.78,21.84,7.68,33.13,2,12.19,4,23.7,8.1,33.39,13.84,32.64,45.1,72.75,71.45,80.66,16.61,4.64,47.65-15.17,68-37,14.71-15.67,19.92-28.43,26.19-46.1a3.81,3.81,0,1,1,7.18,2.55c-6.59,18.58-12.08,32-27.8,48.75C2014.33,703.68,1986,722.67,1965.62,722.67Z" fill="#571419"/><path d="M2078.91,594a3.81,3.81,0,0,1-1.1-7.46c18.73-5.66,26.68-22.18,27.8-34.61.39-7.83-3.86-18.57-11.66-22.7-7.48-4-17.44-1.53-28.81,7a3.81,3.81,0,0,1-4.59-6.09c17.57-13.25,29.81-11.49,37-7.69,10.88,5.77,16.2,19.75,15.69,30-1.33,14.93-10.82,34.61-33.2,41.37A3.75,3.75,0,0,1,2078.91,594Z" fill="#571419"/><path d="M2079.33,563.62a3.8,3.8,0,0,1-3.48-5.36c.4-.89,4-8.82,8.73-12.23a3.81,3.81,0,1,1,4.47,6.17c-2.3,1.67-5.05,6.51-6.24,9.17A3.83,3.83,0,0,1,2079.33,563.62Z" fill="#571419"/><path d="M1943.87,636.41a3.94,3.94,0,0,1-1.12-.16c-1.61-.5-15.71-5.11-17-15.73-.81-4.39,1.26-7.44,3.09-10.13,2-2.9,3.85-5.65,3.26-11.12-.35-3.25-2.49-9.73-6.36-16.26a3.81,3.81,0,1,1,6.56-3.88c3.93,6.64,6.83,14.22,7.38,19.32.9,8.26-2.24,12.87-4.53,16.24-1.6,2.34-2.13,3.27-1.89,4.5l.06.34c.49,4.57,8.07,8.33,11.67,9.43a3.81,3.81,0,0,1-1.11,7.45Z" fill="#571419"/><path d="M1960.91,584.19a3.82,3.82,0,0,1-2.91-6.28c9.78-11.54,26.21-10.14,34.26-6.54a3.81,3.81,0,0,1-3.1,7c-6.49-2.89-18.63-3.4-25.34,4.51A3.82,3.82,0,0,1,1960.91,584.19Z" fill="#571419"/><path d="M1949.12,538a3.81,3.81,0,0,1-3-6.15c.55-.7,13.66-17.1,41-9.69a3.81,3.81,0,0,1-2,7.36c-22.54-6.09-32.92,6.88-33,7A3.81,3.81,0,0,1,1949.12,538Z" fill="#571419"/><path d="M1889.65,598.58a3.81,3.81,0,0,1-3.15-6c5.52-8.16,18.65-9.8,27.43-6.22a3.81,3.81,0,0,1-2.88,7.06c-6.52-2.66-15.22-1-18.24,3.44A3.81,3.81,0,0,1,1889.65,598.58Z" fill="#571419"/><path d="M1875.5,557.18a3.81,3.81,0,0,1-3-6.19c10-12.45,25.48-9.43,26.13-9.29a3.81,3.81,0,1,1-1.53,7.47c-.46-.08-11.64-2.17-18.64,6.58A3.82,3.82,0,0,1,1875.5,557.18Z" fill="#571419"/><path d="M2041.91,577.57a3.87,3.87,0,0,1-2.14-.65,3.81,3.81,0,0,1-1.62-3.79c.3-1.82,6.86-45.17-33.18-72.14a3.81,3.81,0,0,1,4.26-6.32c32.66,22,37,54.76,37,70.55,7-7.18,16.31-21.8,9.6-44.82a3.81,3.81,0,0,1,7.32-2.14c11.51,39.49-19,58.57-19.26,58.76A3.82,3.82,0,0,1,2041.91,577.57Z" fill="#571419"/><path d="M2100.31,529.22a3.88,3.88,0,0,1-1.06-.15,3.81,3.81,0,0,1-2.6-4.73c6.85-23.6,12-51.7-1.49-81.2a3.81,3.81,0,1,1,6.93-3.18c14.57,31.77,9.12,61.56,1.88,86.51A3.81,3.81,0,0,1,2100.31,529.22Z" fill="#571419"/><path d="M1859.29,603a3.81,3.81,0,0,1-2.81-6.39s6.76-8.49-3.07-29.53c-3-6.3-7.14-12.5-11.5-19.06-15.73-23.66-33.55-50.47-3.46-91.88a3.81,3.81,0,1,1,6.17,4.48c-27,37.12-12.11,59.5,3.63,83.18,4.32,6.49,8.78,13.2,12,20,5.58,12,6.53,20.81,5.87,26.94a18.56,18.56,0,0,0,4.34-5.88,3.81,3.81,0,1,1,6.92,3.19c-5.16,11.21-16.6,14.64-17.08,14.78A3.88,3.88,0,0,1,1859.29,603Z" fill="#571419"/><path d="M1843.24,450.36c-6.76,0-12.29-2.12-15-5s-2.37-5.84-1.12-7.71a3.81,3.81,0,0,1,2.58-1.66c.1,0,12.16-2.13,28.69-14.91,8.66-6.37,14.94-13.53,21.59-21.11s13.72-15.62,23.63-23.34c22.36-18.21,51.22-21,71.75-6.81a3.81,3.81,0,1,1-4.32,6.28c-17.73-12.22-42.91-9.6-62.68,6.49-9.41,7.33-16.14,15-22.65,22.41-6.93,7.9-13.47,15.36-22.73,22.17-11,8.53-20.31,12.7-26,14.68,4.41,1.43,12.57,1.88,21.8-3.72a3.82,3.82,0,0,1,4,6.53A37.7,37.7,0,0,1,1843.24,450.36Z" fill="#571419"/><path d="M2088.21,429.52a34.6,34.6,0,0,1-14.18-3,3.82,3.82,0,0,1,3.15-6.95,26.18,26.18,0,0,0,19.38.91,15.06,15.06,0,0,0,1.4-.6c-6.08-1-17.07-4.05-32.87-17.12-2.52-2.09-5-4.17-7.38-6.21-20.42-17.35-36.55-31-65.42-20.68a3.81,3.81,0,1,1-2.58-7.17c33-11.87,51.52,3.84,72.94,22,2.38,2,4.81,4.08,7.31,6.15,16.92,14,27.31,15.27,31.74,15.81,2.06.25,5.44.67,6.07,3.93.73,2.63-.25,5.39-2.72,7.63C2101.56,427.41,2095.25,429.52,2088.21,429.52Z" fill="#571419"/><path d="M1959.92,561.45c-9.92,0-23.56-1.8-34.81-9.85-25.11-17.87-29.3-42.31-29.46-43.34a3.81,3.81,0,0,1,7.52-1.22h0c0,.22,3.95,22.4,26.37,38.36,10.89,7.78,24.93,8.7,33.82,8.31-11.19-10.75-31.22-36.26-29.41-80a3.81,3.81,0,0,1,7.62.31c-2.27,55,32.89,79.16,33.24,79.4a3.81,3.81,0,0,1-1.37,6.9A73.8,73.8,0,0,1,1959.92,561.45Z" fill="#571419"/><path d="M1916.45,560.29a3.84,3.84,0,0,1-1.29-.22c-1.1-.4-27-10-36.77-40.71-13.31-40.54,1.45-65.9,2.08-67a3.81,3.81,0,0,1,6.55,3.91c-.2.34-13.52,23.72-1.38,60.7a58.81,58.81,0,0,0,21.58,29.87c-3.22-7.15-6.74-16.75-7.77-26.25a3.82,3.82,0,0,1,7.59-.82c1.8,16.63,12.56,34.51,12.67,34.69a3.81,3.81,0,0,1-3.26,5.79Z" fill="#571419"/><path d="M2004.24,529.48c-19.76,0-47.18-5.24-64.21-17.17a3.81,3.81,0,1,1,4.37-6.24c20.15,14.1,57.52,18.12,73.4,14.59a3.81,3.81,0,0,1,1.66,7.44A72.13,72.13,0,0,1,2004.24,529.48Z" fill="#571419"/><path d="M1858.06,551.8a3.81,3.81,0,0,1-1.21-7.43c26.07-8.77,20.54-29.69,20.29-30.57a3.81,3.81,0,0,1,7.34-2.06c.08.28,7.65,28.8-25.2,39.86A4,4,0,0,1,1858.06,551.8Z" fill="#571419"/><path d="M2089.63,632.17a3.81,3.81,0,0,1-3.68-2.83c-2.43-9.15-4.45-18-5.54-24.29a3.81,3.81,0,1,1,7.51-1.31c1.06,6.08,3,14.7,5.4,23.64a3.82,3.82,0,0,1-2.71,4.67A4.11,4.11,0,0,1,2089.63,632.17Z" fill="#571419"/><path d="M1803.05,1001.77a3.79,3.79,0,0,1-3.47-2.24c-5.15-11.37-15.09-20.81-21.67-27.06-4.75-4.51-7.07-6.78-7.9-9.09-1.67-4.87.31-9.91,2.06-14.35a30.58,30.58,0,0,0,1.73-5.21,3.82,3.82,0,0,1,7.52,1.31,36.73,36.73,0,0,1-2.15,6.68c-1.27,3.23-2.71,6.88-2,9.05.43.84,3.49,3.75,5.94,6.08,7,6.66,17.61,16.72,23.37,29.44a3.81,3.81,0,0,1-3.47,5.39Z" fill="#571519"/><path d="M1775.53,957.78a3.81,3.81,0,0,1-1-7.5,72.74,72.74,0,0,0,7.36-2.32,3.81,3.81,0,0,1,2.94,7,81.56,81.56,0,0,1-8.39,2.66A4,4,0,0,1,1775.53,957.78Z" fill="#571519"/><path d="M1744.08,987a3.82,3.82,0,0,1-3.58-2.49c-3.21-8.73-4.13-12.22-.31-21.5.18-.44,20.06-43.78,31.73-44.69h.06c9.72,0,29.44,22.44,30.17,31.71.06,6.61-5.07,15.09-10.06,19.61-3.66,3.32-7.46,4.87-10.93,4.51a3.81,3.81,0,0,1,.8-7.58c1.19.14,3.08-.83,5-2.58,4.36-4,7.59-10.46,7.57-13.63-.45-5.58-16.78-23.75-22-24.41-5.13,2-20.65,28.75-25.26,40-2.81,6.81-2.42,8.28.41,16a3.8,3.8,0,0,1-3.58,5.12Z" fill="#571519"/><path d="M1855,1086.93a3.77,3.77,0,0,1-1.62-.36c-12.59-5.92-27.83-13.23-29.38-14.14-16.74-11.31-56.17-47.37-74.69-66.22-4.85-4.94-9.82-9.32-14.62-13.54-13.33-11.73-24.84-21.86-18.59-33.61,6.44-12.18,34.18-49.6,43.67-55,2.82-1.61,7.84-2.35,15.85,3.22,8.75,6.1,20.12,19.6,18.77,27.74a3.82,3.82,0,0,1-7.53-1.25c.53-3.16-6.83-14.13-15.6-20.23-4.53-3.15-7-3.25-7.7-2.86-7.53,4.3-34.4,40.05-40.73,52-3.25,6.13,4.3,13.23,16.89,24.31,4.68,4.12,10,8.79,15,13.92,17.88,18.2,57.42,54.37,73.33,65.13.91.52,13.49,6.6,28.55,13.68a3.81,3.81,0,0,1-1.63,7.26Z" fill="#571519"/><path d="M1760,1015.6a3.77,3.77,0,0,1-2.42-.87c-7.72-6.33-16.91-12.45-25-17.85s-15.2-10.12-19.71-14.23l-.9-.7c-4.22-3.27-11.29-8.75-11.72-16.45-.86-7.65,25.68-61.9,37.09-72.37a15.28,15.28,0,0,1,11.41-4.44c8.61.52,15.64,8.74,19.84,13.66l1,1.18a3.81,3.81,0,1,1-5.75,5l-1.06-1.24c-3.42-4-9.13-10.67-14.51-11a7.73,7.73,0,0,0-5.79,2.44c-10.48,9.62-34.44,60.58-34.64,66.3.24,4.26,5.59,8.41,8.78,10.89l1.18.92c4.27,3.89,11.42,8.64,19,13.68,8.26,5.5,17.62,11.73,25.63,18.31a3.81,3.81,0,0,1-2.42,6.76Z" fill="#571519"/><path d="M1706.3,959a3.66,3.66,0,0,1-3.61-2.76c-2.33-9,14-57.25,21.85-68.29,3.55-4.57,7.14-6.87,11-7.17,6-.42,10.64,4,14.75,7.86l1.69,1.59a3.81,3.81,0,0,1-5.15,5.61c-.6-.54-1.19-1.1-1.78-1.67-3-2.85-6.12-5.8-8.69-5.8h-.25c-2,.16-4.11,2.33-5.51,4.13-8.09,11.35-21.62,56.2-20.57,61.87a3.91,3.91,0,0,1-2.9,4.52A3.83,3.83,0,0,1,1706.3,959Z" fill="#571519"/><path d="M1862.6,1021a3.82,3.82,0,0,1-1.6-.35c-18.93-8.8-20.37-12.26-21-13.74-3.69-7.79-5.74-15.15-7.73-22.27-2.3-8.3-4.49-16.13-9.19-24.44-4.39-7.74-10.15-14.87-15.72-21.77-5.77-7.14-11.74-14.52-16.44-22.81-4.81-8.86-7.68-20.76-10.21-31.27-2.62-10.84-5.58-23.13-9.52-25-.28-.13-1-.48-2.71.34-8.23,3.72-7.94,26.12-5.48,37.63a3.81,3.81,0,0,1-7.46,1.59c-2.1-9.88-4.84-39.56,9.71-46.13a10.34,10.34,0,0,1,9.2-.32c7.24,3.42,10.08,15.19,13.67,30.1,2.42,10,5.16,21.43,9.47,29.35,4.35,7.68,10.12,14.82,15.7,21.72,5.77,7.14,11.73,14.52,16.42,22.8,5.17,9.12,7.58,17.78,9.91,26.15,1.9,6.81,3.86,13.86,7.34,21.23.65.93,5.14,4.29,17.23,9.91a3.81,3.81,0,0,1-1.61,7.27Z" fill="#571519"/><path d="M2148.55,1007.74h-.3c-30.47-2.43-49-22.94-66.87-42.79-7.29-8.08-14.83-16.43-23-23.32-4.35-3.66-9.34-6.59-14.62-9.69-6-3.52-12.21-7.17-17.57-12.06-3.43-3.13-7.09-2.77-12.79-1.91a47.34,47.34,0,0,1-7.18.71h-.06c-2.53,0-5.54-.24-8.72-.49-6.55-.52-16.44-1.3-19.3.92a6.81,6.81,0,0,0-.36,4.3,4,4,0,0,0,1.78,2.79,3.81,3.81,0,0,1-3.31,6.87c-3.45-1.67-5.7-5.18-6.18-9.63-.34-3.29.34-8,3.39-10.35,5.19-4,15-3.26,24.58-2.51,3,.24,5.9.47,8.13.47a42.91,42.91,0,0,0,6.1-.62c5.7-.86,12.78-1.92,19.06,3.82,4.77,4.35,10.37,7.64,16.29,11.12,5.32,3.12,10.82,6.35,15.67,10.43,8.58,7.22,16.3,15.78,23.76,24.05,17.67,19.59,34.37,38.1,61.81,40.29a3.81,3.81,0,0,1-.3,7.61Z" fill="#571519"/><path d="M2010.08,1008a4,4,0,0,1-.84-.09c-8.7-2-15.5-10.17-20.46-16.17l-1.76-2.11c-9.23-10.82-15.35-20-22.79-32.19l-.65-1c-3.29-5.32-7.39-11.94-1.44-20,4.85-6.6,13.76-10.32,25.09-10.47,14.71-.12,30,5.66,36.46,13.93l.34.43c2.47,3.16,7.09,9,6.19,14.81a9.09,9.09,0,0,1-4,6.17,3.81,3.81,0,0,1-4.27-6.31c.68-.47.74-.84.77-1,.39-2.5-3.41-7.34-4.66-8.93l-.35-.45c-5-6.43-18.16-11.17-30.33-11-8.89.12-15.66,2.74-19.06,7.36-2.66,3.62-1.69,5.9,1.78,11.5l.67,1.09c7.25,11.87,13.19,20.79,22.09,31.23.57.66,1.18,1.4,1.83,2.19,4.26,5.15,10.1,12.21,16.26,13.59a3.81,3.81,0,0,1-.83,7.53Z" fill="#571519"/><path d="M2022,961.75c-10.84,0-25.59-13.73-28.54-16.58a3.81,3.81,0,1,1,5.3-5.48c6.56,6.33,18.19,15,23.69,14.41a3.81,3.81,0,1,1,.83,7.58A10.86,10.86,0,0,1,2022,961.75Z" fill="#571519"/><path d="M1990.53,1027.6a3.84,3.84,0,0,1-2-.55c-13.82-8.34-19.11-22.11-24.23-35.42-1.55-4-3.14-8.16-4.94-12.06-1.87-4.07-6.76-16.26-6.88-23.8,0-3.27,4.67-9.66,8.17-10.12a4.19,4.19,0,0,1,4.62,3.16,3.81,3.81,0,0,1-2.78,4.62,3.89,3.89,0,0,1-.56.1,12,12,0,0,0-1.81,2.5c.24,5.28,3.78,15.17,6.16,20.35,1.9,4.12,3.55,8.38,5.13,12.51,4.87,12.67,9.48,24.64,21.06,31.63a3.81,3.81,0,0,1-2,7.08Zm-30.46-71.38Zm-2.17-5.56Z" fill="#571519"/><path d="M1981.9,1038.76a3.78,3.78,0,0,1-2-.55,50.17,50.17,0,0,1-9.15-7.92c-8.08-8.83-11.46-22.53-14.16-33.54l-.38-1.54a88,88,0,0,1-2.12-11.47c-.3-2.91-1.21-11.77,4.91-13.28a3.81,3.81,0,0,1,2.7,7.06c-.45,1.65-.3,6.92,1.91,15.87l.38,1.54c2.5,10.16,5.61,22.81,12.39,30.21a42.85,42.85,0,0,0,7.45,6.54,3.81,3.81,0,0,1-2,7.08Z" fill="#571519"/><path d="M2163.55,1085.23h-.3c-12-1-23.81-4.82-35.24-8.56-6.44-2.1-12.53-4.09-18.66-5.61-8.91-2.19-18.38-3.4-27.54-4.57-7-.9-14.34-1.84-21.43-3.22-6.34-1.23-12.78-2.69-19-4.09-11.38-2.57-23.15-5.23-34.74-6.63-18.07-2.18-29.9-6-36.16-11.75-4.35-4-8-19.15-9-23.71a3.81,3.81,0,1,1,7.45-1.64c2,9.06,5.11,18.27,6.66,19.72,5,4.55,15.73,7.85,31.94,9.8,12,1.45,23.94,4.16,35.5,6.77,6.18,1.4,12.56,2.84,18.8,4,6.84,1.33,14,2.25,20.93,3.13,9.38,1.2,19.08,2.44,28.41,4.74,6.4,1.58,12.91,3.71,19.2,5.77,11,3.6,22.39,7.32,33.48,8.2a3.81,3.81,0,0,1-.31,7.61Z" fill="#571519"/><path d="M2038.89,965.11a3.89,3.89,0,0,1-2-.54c-2.37-1.43-5.06-1.62-8.79-1.88-2.05-.14-4.36-.3-6.94-.71a3.81,3.81,0,1,1,1.18-7.53c2.26.35,4.31.49,6.29.64,4.24.29,8.24.57,12.18,2.93a3.82,3.82,0,0,1-2,7.09Z" fill="#571519"/><path d="M2297,1120.22c-53.64,0-108.8-9.24-146.48-19.33a3.82,3.82,0,0,1,2-7.37c51,13.67,134.51,25.77,201.81,14.86,36.2-5.86,49.65-56.44,45.45-90.7-11.4-92.81-31-199.2-89.75-284.49-36-52.22-75.83-64.3-122-78.3-19.68-6-40-12.14-62.15-21.78a3.81,3.81,0,0,1,3-7c21.72,9.46,41.85,15.57,61.32,21.47,47.51,14.41,88.55,26.86,126,81.27,59.71,86.65,79.53,194.16,91,287.89,4.41,35.89-9,92.23-51.79,99.16A368.94,368.94,0,0,1,2297,1120.22Z" fill="#571419"/><path d="M2151.81,1100.22a10,10,0,0,1-3-.46c-6.24-1.91-10.82-9.3-13.61-22a3.81,3.81,0,0,1,7.44-1.64c2.4,10.87,5.91,15.56,8.4,16.32,1.24.39,2.64-.19,4.21-1.67,4.38-4.16,9.13-16.21,6.86-50-1.63-24.35-6.77-37.09-11.15-38.9-1.37-.57-3.18.12-5.38,2a3.81,3.81,0,1,1-5-5.74c5.69-5,10.39-4.56,13.32-3.34,11.45,4.75,14.84,30.5,15.84,45.42,2,29.9-1,48.22-9.22,56A12.72,12.72,0,0,1,2151.81,1100.22Z" fill="#571419"/><path d="M2077.21,1315H2077a3.8,3.8,0,0,1-3.59-4,934,934,0,0,0-2.68-135.57c-1.95-21.39-15.51-110.38-15.65-111.28a3.81,3.81,0,0,1,7.54-1.15c.56,3.67,13.73,90.12,15.7,111.74a939.47,939.47,0,0,1,2.7,136.69A3.81,3.81,0,0,1,2077.21,1315Z" fill="#571419"/><path d="M1933.09,658s10,29.87,30.42,25.42c18.64-4,18.45-36.15,18.45-36.15Z" fill="#c67472" fill-rule="evenodd"/><path d="M1959.27,687.71c-20,0-29.37-27.24-29.79-28.49a3.8,3.8,0,0,1,.29-3.09,3.88,3.88,0,0,1,2.51-1.85l48.87-10.73a3.83,3.83,0,0,1,4.63,3.71c0,1.43,0,35.28-21.48,39.89A22.93,22.93,0,0,1,1959.27,687.71Zm-20.93-27c3.31,7.27,11.63,21.71,24.35,18.94,11.38-2.45,14.39-19.22,15.18-27.62Z" fill="#571519"/><path d="M1255.57,1126.87c0-3.25,47.84-8.75,47.33-26.59-1.43-49.89-69.08-162-75.52-229.17-7-72.57-10.8-161.51-11.72-166.9-3.07-17.9-5.4-41.46-9.25-56.45-9.35-36.29-21.86-59.16-62.73-68.6-8.63-2-22.83-11.52-32-7.59-11.1,4.76-7,30.51-7,39,0,24.07-8.71,72.23-41.21,70-43.14-3-66.77-38.17-89.49-69.42-11.25-15.46-34.47-47.72-34.47-47.72s-74.6,27.52-98.93,39.68c-53,26.48-69.59,60.73-99.8,111.09-13.1,21.81-23.54,47.9-36.62,70.32-8.71,14.94-20.56,38.5-28.76,54-16.23,30.76-42.13,75.9-31.16,111.56,6.75,21.93,42.62,24.54,61.6,24.54,37.28,0,65.13-16.39,95.14-37,8.16-5.62,32.79-21.28,32.79-21.28s-19.61-25.09-22.07-31.74c-4.18-11.36,1.23-30.59-3.65-38.86s-21.18,7.28-21.18,7.28,24.15-36.78,29.83-51c3.93-9.82,10.68-17.91,19-25,.55-.47,15.65,47.91,17.39,55.38,4.65,19.91,6.38,40.12,10.85,60.19,7,31.39,13.32,60.37,18.07,92.4,1.73,11.71-4.19,52.07,2.7,56,7.49,4.28,42.65,18.49,50.6,19.31,31.66,3.25,45.24,7.27,77.24,8.11,24.17.64,69.68-2.21,93.81-8.24,9.94-2.49,45.32-15.58,49.1-26.91,8.79-26.36-3.66-18.63,12-60.71,5.27-14.21,25.82,83.78,21.55,53.89-.54-3.84,27.9,40.11,22.91,41.77Z" fill="#f8fffe"/><path d="M1044.21,293.12s54.23-14.61,98.85,13c24.75,15.28,33.22,9.19,53.22,30.64,12.68,13.84,22.21,43.72,22.21,43.72s8.65,28.67,4.26,42.38c-4.64,15.26-14,20.14-24.37,28.06a241.11,241.11,0,0,0-19.2,16.08l-191-11.57s-4.37,23.32-13.16,44.32c-7.84,18.49-15.61,30-22.27,34.82S941.67,537,939,540.34c-10.55,12.17-2.88,27.32-2.88,27.32l-15,6.62s-4-8.14-6.7-8c-6.41,0-6.3,12.32-6.3,12.32l-20.44,4.13s-.65-15.6,3.3-29.92,12.07-27.94,12.07-27.94-9.43,5.4-18.54,5.51c-12.22-.41-15-9.41-15-9.41s17.16-.39,29.6-17.59,19.63-51.28,19.63-51.28-12.38-31.95,2.33-76C936,330.92,968.36,293,982.21,283.48c10.9-7.83,26.84-13.76,38-10.32C1035,277.72,1044.21,293.12,1044.21,293.12Z" fill="#e82d5e" fill-rule="evenodd"/><path d="M955.5,557c30.62-23.83,42.67-94,42.67-94a37.87,37.87,0,0,1-13.55-11.84c-4.35-6.06-8-16.28-7.08-22,5-33.9,29.86-19.15,29.86-19.15s24.57,16.33,39.49,16.64,24.92-15.15,24.92-15.15.35,1.13,9.87-4.79,21.36-19.47,30-23.39c17.4-8.37,60.78,7.3,60.81,16.92.19,5.38,1.68,15.78,5,28.08,2.36,8.4,9.24,18.61,9.24,18.61s-8.27,21.09-10.33,30.36c-3.6,15.44-7,33.05-17.65,48.94-9.16,13.46-21.34,29.09-32.5,38.48-14.79,12-18,12.62-18,12.62l3.21,48-4,32-33.29,26.8-41.42-16.65-46-42.59-41.69-59.74S940.18,568.86,955.5,557Z" fill="#ffe4ce" fill-rule="evenodd"/><path d="M1214.79,1468.58c6.19-67.38-13.23-158.47-20.1-216.53-4.8-40.52-13.94-73.89-19.67-114.33-1.84-12.94-20.53-100.28-20.53-100.28s-52.5,23.45-61.8,26.21c-21.18,6.29-57.48,7.87-79.73,6.67-36.23-2-62.12-4.69-97.2-13.66-4.5-1.15-24.3-18.41-29.46-14.12-22,18.32-29.89,75-36.75,101.12-7.44,28.32-7.56,67-4.91,97,5.93,67,17.5,118.85,22.41,185.53,1.1,14.9.37,26.66-.94,41Z" fill="#86a8c3"/><path d="M837.76,913.16c17.43-5.68,37-25.19,54.9-33.85,29.18-14.09,80.89-20.8,102-46.44,5.72-7-.32-13.06-.15-19.06.09-3.22,2.38-6.26,2.1-9.76-.61-7.59-5-9.62-7.21-15.75-4.66-12.89-4.91-33.86-17.63-41.91-11.46-7.26-23.24,6.22-32.67,8.8-3.89,1.07-8-2.24-12.67-.8-12.79,3.93-27,13.79-36.09,23.27-13.68,14.19-12.82,35.43-29.91,47.19-11,7.55-25.1,14.39-37.46,19.09-5,1.9-11.91,1.44-15.14,6.53-2.88,4.55,3.83,41.93,9.9,44.6,2.3,1,.29,4.13,2.34,3Z" fill="#ffe4ce"/><path d="M905.47,786a3.81,3.81,0,0,1-1.89-7.12c17.66-10.06,49.94-24.68,51.31-25.3a3.81,3.81,0,0,1,3.14,7c-.33.15-33.32,15.1-50.68,25A3.76,3.76,0,0,1,905.47,786Z" fill="#571519"/><path d="M960,789.87a3.81,3.81,0,0,1-2.24-6.9c11.76-8.48,22.11-18.57,22.47-21.86-3.66-6.21-10.71-11.49-13.49-11.77-5.45-.56-19.47,5.78-23.77,9a3.81,3.81,0,0,1-4.58-6.1c4.06-3,20.39-11.37,29.13-10.5,6.59.68,15.43,8.82,19.56,16,4,8.36-11.33,21.67-24.86,31.41A3.75,3.75,0,0,1,960,789.87Z" fill="#571519"/><path d="M974.15,810.11a3.82,3.82,0,0,1-2.93-6.26c1.09-1.31,2.3-2.69,3.54-4.12,4.53-5.2,11.37-13.06,11.42-16.91-.17-4.25-3.84-9.58-6.39-11.94a3.81,3.81,0,1,1,5.17-5.6c2.93,2.71,8.55,9.84,8.85,17.45-.09,6.84-6.8,14.55-13.29,22-1.21,1.39-2.39,2.73-3.45,4A3.79,3.79,0,0,1,974.15,810.11Z" fill="#571519"/><path d="M985,829.13A3.8,3.8,0,0,1,981.9,823l2.37-3.14c3.9-5.13,8.75-11.51,8.84-14.6.23-7.36-5.91-12.73-6-12.79a3.81,3.81,0,1,1,4.9-5.83c.37.31,9.05,7.72,8.69,18.85-.16,5.52-5.13,12.06-10.39,19-.78,1-1.57,2.07-2.33,3.09A3.81,3.81,0,0,1,985,829.13Z" fill="#571519"/><path d="M795.43,946.86a3.82,3.82,0,0,1-2.26-6.89c7.86-5.76,27.2-18.07,42.74-28,9.62-6.12,17.93-11.41,21-13.55,24.43-17,33.12-21,45.14-26.58l4-1.86c5.14-2.41,14.57-5.63,25.49-9.36,18.6-6.37,44.08-15.08,51.57-21.49,15-12.93,12.62-18.37,8.85-22.84a3.81,3.81,0,0,1,5.84-4.91c10.89,12.93.53,24.72-9.72,33.54-8.61,7.36-32.77,15.62-54.08,22.91-10.7,3.66-19.95,6.82-24.72,9l-4,1.88c-12.11,5.61-20.1,9.31-44,25.92-3.22,2.23-11.59,7.56-21.27,13.72-15.45,9.84-34.67,22.07-42.32,27.69A3.8,3.8,0,0,1,795.43,946.86Z" fill="#571519"/><path d="M841,839.14a3.81,3.81,0,0,1-3.24-1.76,3.76,3.76,0,0,1,1.09-5.19,29.62,29.62,0,0,1,5.46-2.31c6.75-2.43,19.3-7,23.88-15.65a154.85,154.85,0,0,0,6.65-14.86c4.17-10.23,8.48-20.81,15.63-27.55,5.48-5.19,20.54-16.44,31-20.4,11-3.91,19.33-1.39,24.92,7.44a3.82,3.82,0,0,1-6.45,4.08c-2.68-4.24-6.45-7.7-15.84-4.36-9.32,3.52-23.46,14.1-28.41,18.79-6,5.6-9.94,15.4-13.8,24.87a163.73,163.73,0,0,1-7,15.58c-5.94,11.27-20.3,16.45-28,19.24a41.12,41.12,0,0,0-3.89,1.52A3.84,3.84,0,0,1,841,839.14Z" fill="#571519"/><path d="M1156.15,1037.15H1156a3.83,3.83,0,0,1-3.62-4c1.75-35,10.29-68.3,18.56-100.55,6.92-27,14.07-54.94,17.07-83.4,3.33-31.61-3.86-61.34-11.46-92.82-6.22-25.78-12.66-52.43-12.66-80a3.81,3.81,0,1,1,7.62,0c0,26.67,6.33,52.88,12.45,78.22,7.42,30.72,15.1,62.49,11.63,95.41-3,29-10.28,57.22-17.27,84.49-8.17,31.88-16.61,64.85-18.32,99A3.81,3.81,0,0,1,1156.15,1037.15Z" fill="#571519"/><path d="M1305.21,1103.78a3.82,3.82,0,0,1-3.59-2.5c-4.76-13.08-8.92-25.33-13.33-38.3-11.62-34.24-24.79-73-55.46-146.51-10-24.06-19.74-150-24.4-210.46-1.15-14.85-2-26.58-2.31-28-.87-4.83-1.54-9.71-2.25-14.87-4.82-35.26-9.8-71.72-77.42-88.48a3.81,3.81,0,1,1,1.83-7.4c72.64,18,78.47,60.61,83.15,94.85.69,5.08,1.35,9.88,2.19,14.55.32,1.78,1,10.12,2.41,28.81,4.27,55.42,14.28,185.18,23.84,208.11,30.76,73.71,44,112.65,55.64,147,4.4,12.94,8.54,25.15,13.28,38.15a3.8,3.8,0,0,1-2.28,4.88A3.72,3.72,0,0,1,1305.21,1103.78Z" fill="#571519"/><path d="M709,978.54c-25.59,0-50.32-7.32-62.11-18a3.81,3.81,0,0,1,5.12-5.65c14.17,12.85,58.93,23.29,94.07,9.72,9.8-3.78,27.4-13.08,52.3-27.63a3.81,3.81,0,1,1,3.85,6.58c-25.26,14.76-43.23,24.24-53.4,28.16C736.47,976.46,722.59,978.54,709,978.54Z" fill="#571519"/><path d="M646.83,958.46a3.82,3.82,0,0,1-3.22-1.77c-13.23-20.83,3.88-70.53,4.61-72.63,6.4-18.33,20.35-41.77,33.84-64.44,10.32-17.35,20.07-33.74,25.91-46.87,31.3-70.32,74.62-136.22,105.34-160.26C824.65,603.61,855.4,591.67,888,579c33.62-13.06,71.74-27.87,77.22-35.84a3.81,3.81,0,0,1,6.28,4.32c-6.35,9.24-34.74,20.76-80.74,38.63C860.11,598,828.46,610.31,818,618.49c-29.37,23-72.71,89.17-103.07,157.36-6,13.54-15.89,30.12-26.33,47.67-13.3,22.34-27,45.45-33.19,63.05-6.74,19.32-13.74,52.86-5.38,66a3.81,3.81,0,0,1-1.17,5.26A3.73,3.73,0,0,1,646.83,958.46Z" fill="#571519"/><path d="M688,895.13a3.8,3.8,0,0,1-3.08-6c19.21-26.45,56.42-33.45,89.26-39.62,13-2.44,25.26-4.75,35.79-8.06,14.12-4.43,43.54-15,43.84-15.13a3.81,3.81,0,0,1,2.58,7.18c-.3.11-29.87,10.74-44.13,15.22-11,3.45-23.45,5.8-36.67,8.28-33,6.2-67.08,12.61-84.5,36.61A3.81,3.81,0,0,1,688,895.13Z" fill="#571519"/><path d="M788.9,852.2a3.81,3.81,0,0,1-3.25-5.79c7.14-11.8,15.45-24.95,24.25-38.86,15.28-24.16,31.08-49.14,42.58-70a3.81,3.81,0,0,1,6.68,3.68c-11.61,21.06-27.47,46.14-42.81,70.39-8.78,13.89-17.08,27-24.18,38.74A3.83,3.83,0,0,1,788.9,852.2Z" fill="#571519"/><path d="M867.66,1463.73h-.35a3.81,3.81,0,0,1-3.45-4.14c2.26-24.92-5.62-81.95-13.24-137.09-7.87-56.93-15.3-110.7-13.18-136.08,3.55-42.59,18-81.89,29.56-113.47,7.46-20.35,13.91-37.92,14.58-49.37,1.24-20.93-7.22-60.72-14-92.69-2.69-12.67-5-23.61-6.45-32a3.81,3.81,0,1,1,7.51-1.29c1.41,8.21,3.72,19.08,6.4,31.67,6.89,32.42,15.47,72.77,14.18,94.72-.74,12.58-7.05,29.78-15,51.55C862.73,1106.71,848.5,1145.48,845,1187c-2,24.54,5.67,80.4,13.13,134.41,7.68,55.57,15.62,113,13.28,138.82A3.8,3.8,0,0,1,867.66,1463.73Z" fill="#571519"/><path d="M1095,584.24c-19.71,0-45.18-21.8-58.52-37.8-12.72-15.12-17-27.47-21.64-43.27a3.81,3.81,0,1,1,7.31-2.15c4.52,15.37,8.37,26.5,20.17,40.52,16.32,19.57,41.74,37.9,56.08,34.73,22.46-5.42,51-38.22,64.59-65.49,4-8,6.14-17.78,8.45-28.1,2.16-9.62,4.39-19.56,8.24-28.3a3.61,3.61,0,0,1,.22-.44,38.31,38.31,0,0,0,2.73-6.23l.42-1.12a3.81,3.81,0,1,1,7.13,2.69l-.4,1.08a45.94,45.94,0,0,1-3.22,7.3c-3.49,8-5.62,17.51-7.68,26.69-2.31,10.29-4.7,20.94-9,29.8-12.37,24.89-42.17,62.9-69.71,69.55A23.48,23.48,0,0,1,1095,584.24Z" fill="#571519"/><path d="M1002.68,468.58a3.94,3.94,0,0,1-1.3-.22C982.27,461.42,975,443.89,974.52,431c-.24-8.81,4.82-20.77,14.67-25.64,6.25-3.09,16.52-4.48,30,6.41a3.81,3.81,0,1,1-4.79,5.93c-8.18-6.61-15.72-8.51-21.81-5.5-6.75,3.34-10.61,12.06-10.43,18.56.36,10.5,6.3,24.8,21.84,30.44a3.81,3.81,0,0,1-1.3,7.39Z" fill="#571519"/><path d="M1003.66,443.1a3.83,3.83,0,0,1-3.56-2.45c-.94-2.45-3-6.53-4.76-7.93a3.81,3.81,0,1,1,4.81-5.92c4,3.24,6.77,10.33,7.07,11.12a3.81,3.81,0,0,1-2.2,4.92A3.61,3.61,0,0,1,1003.66,443.1Z" fill="#571519"/><path d="M1117,511.38a3.81,3.81,0,0,1-.91-7.51c3-.76,9.45-3.5,10-7.09a3.4,3.4,0,0,1,.07-.34c.21-.81-.08-1.44-1.34-3.54-1.74-2.89-4.38-7.26-3.19-14.49.72-4.41,3.59-10.86,7.31-16.43a3.81,3.81,0,0,1,6.34,4.24c-3.42,5.11-5.67,10.62-6.13,13.43-.73,4.46.63,6.71,2.2,9.31,1.42,2.36,3.18,5.28,2.24,9.22-1.68,9.36-14.27,12.73-15.71,13.09A3.67,3.67,0,0,1,1117,511.38Z" fill="#571519"/><path d="M1082.42,457.55c1.63-6.68,3.64.6,8.32,1.37s9.79-4.27,8.67,2.49c-1.63,6.68-6.12,11.28-10.72,10C1083.57,470,1081.39,463.79,1082.42,457.55Z" fill="#571519" fill-rule="evenodd"/><path d="M1098.93,463.14c-9.09,0-18.12-4.08-23.71-8.12a3.81,3.81,0,0,1,4.47-6.18c5.7,4.12,15.37,7.85,23.14,6.31a3.81,3.81,0,1,1,1.48,7.48A27.85,27.85,0,0,1,1098.93,463.14Z" fill="#571519"/><path d="M1086.55,420.13a3.81,3.81,0,0,1-1.86-7.14,46.53,46.53,0,0,1,36-3.78,3.81,3.81,0,1,1-2.21,7.3,38.86,38.86,0,0,0-30.07,3.14A3.79,3.79,0,0,1,1086.55,420.13Z" fill="#571519"/><path d="M1147.89,472c1.55-6.16,3.13.51,7.21,1.71s9.09-3.31,7.63,2.33-6.48,10.15-10.55,8.95S1146.44,477.68,1147.89,472Z" fill="#571519" fill-rule="evenodd"/><path d="M1160.9,476.93a32.35,32.35,0,0,1-16.23-4.56,3.82,3.82,0,0,1,4.19-6.38c3.63,2.39,12,4.55,16.78,2.49a3.82,3.82,0,0,1,3,7A19.87,19.87,0,0,1,1160.9,476.93Z" fill="#571519"/><path d="M1181.29,444.78a3.82,3.82,0,0,1-3.7-2.89c-2.2-8.86-11-11.55-16.06-12.37a3.81,3.81,0,1,1,1.22-7.53c11.76,1.91,19.86,8.49,22.24,18.06a3.81,3.81,0,0,1-2.78,4.62A4.2,4.2,0,0,1,1181.29,444.78Z" fill="#571519"/><path d="M1066.07,413.65c-12.17,0-23.51-5-28.39-10a3.81,3.81,0,0,1,5.45-5.33c5.45,5.56,26.58,13.11,41.06,1.88a136.53,136.53,0,0,0,10.75-10.07c12.6-12.57,28.27-28.2,42.87-25.07,7.67,1.66,13.76,8.32,18.12,19.82a3.81,3.81,0,1,1-7.13,2.7c-3.38-8.92-7.62-14-12.6-15.06-10.51-2.27-25.18,12.34-35.88,23a140.05,140.05,0,0,1-11.46,10.69A36.61,36.61,0,0,1,1066.07,413.65Z" fill="#571519"/><path d="M1043.44,425.94a28.18,28.18,0,0,1-13.32-3.29,3.81,3.81,0,0,1,3.83-6.59,20.73,20.73,0,0,0,21.87-1.94,3.81,3.81,0,0,1,4.45,6.19A28.4,28.4,0,0,1,1043.44,425.94Z" fill="#571519"/><path d="M1191.53,454.16a3.78,3.78,0,0,1-2.55-1c-13.91-12.5-15.88-26.15-17.47-37.12-1.23-8.47-2.2-15.15-7.8-19.86a3.81,3.81,0,0,1,4.91-5.83c7.82,6.57,9.09,15.33,10.43,24.6,1.56,10.76,3.17,21.89,15,32.54a3.81,3.81,0,0,1-2.55,6.65Z" fill="#571519"/><path d="M1178.06,474.39a3.8,3.8,0,0,1-3.56-5.18c2.88-7.49,11-13.36,19.67-19.59,10.31-7.42,21-15.09,24.06-25.8,3.09-9.84,3-29.86-14.65-69.83-2.43-5.92-19.65-34.68-43.93-30.78a3.81,3.81,0,0,1-1.21-7.53c29.09-4.65,48.82,27.19,52.15,35.32,14.93,33.73,20,59,14.94,75-3.8,13.16-16.07,22-26.9,29.79-7.69,5.54-15,10.77-17,16.13A3.81,3.81,0,0,1,1178.06,474.39Z" fill="#571519"/><path d="M981.07,424.43a3.82,3.82,0,0,1-3.75-3.18c-7.82-46.12,1.86-86.65,25.9-108.41,37.5-34.93,99.89-37.77,148.32-6.72a3.81,3.81,0,0,1-4.11,6.42c-45.54-29.19-104-26.71-139.05,5.92-22.14,20-30.93,58-23.54,101.52a3.82,3.82,0,0,1-3.12,4.4A4.74,4.74,0,0,1,981.07,424.43Z" fill="#571519"/><path d="M941.23,542.75c-.59,0-1.19,0-1.79-.08a3.81,3.81,0,1,1,.65-7.6c16,1.37,33.73-29.75,45.25-79.28a3.81,3.81,0,0,1,7.43,1.73C986.74,483.44,969.81,542.75,941.23,542.75Z" fill="#571519"/><path d="M937.26,479.75a3.73,3.73,0,0,1-1.85-.48c-1.84-1-44.55-26.06-12.94-115.44,23.85-66,71.57-98,90.4-96.8,20.35,1.47,30.82,15.93,35.24,24.41a3.81,3.81,0,1,1-6.76,3.53c-4.51-8.64-13.2-19.19-29-20.33-13.27-.86-58.88,25.89-82.68,91.76-19.37,54.77-9.36,83.33-.11,96.54a169.24,169.24,0,0,1-3-49.35,3.81,3.81,0,1,1,7.6.61c-2.91,36.49,6.54,60.06,6.64,60.29a3.81,3.81,0,0,1-3.53,5.26Z" fill="#571519"/><path d="M933.57,564.11a3.82,3.82,0,0,1-3.81-3.68c-.58-16.72,7.5-32.14,22.62-54.75a3.81,3.81,0,0,1,6.34,4.24c-14.23,21.28-21.84,35.59-21.34,50.24a3.8,3.8,0,0,1-3.67,3.94Z" fill="#571519"/><path d="M918,570.41a3.81,3.81,0,0,1-3.66-2.73c-4.66-15.74,2.31-35.62,2.61-36.46a3.81,3.81,0,1,1,7.18,2.56c-.06.18-6.42,18.4-2.47,31.73a3.82,3.82,0,0,1-2.58,4.74A3.67,3.67,0,0,1,918,570.41Z" fill="#571519"/><path d="M887.48,583.92a3.81,3.81,0,0,1-3.74-3.07c-.87-4.35-.77-9.25.32-15.86,3.27-19.92,8.55-29.38,14.67-40.33a181.78,181.78,0,0,0,11.31-23,3.81,3.81,0,0,1,7.08,2.84,192.66,192.66,0,0,1-11.73,23.91c-6,10.75-10.76,19.25-13.81,37.85-.93,5.66-1,9.72-.36,13.14a3.8,3.8,0,0,1-3.74,4.55Z" fill="#571519"/><path d="M887.49,534.2l-.81,0c-12.29-.45-20.78-11.14-21.14-11.6a3.81,3.81,0,0,1,4.38-5.9c.45.16,12.19,4.06,24.63-13.14,15.17-21,19.94-52.32,20-52.64a3.81,3.81,0,1,1,7.54,1.12c-.2,1.35-5.1,33.52-21.35,56-7.67,10.61-15.52,14.74-21.69,16.14a17.49,17.49,0,0,0,8,2.41c5.06.18,10.06-2.44,14.87-7.76a3.82,3.82,0,1,1,5.66,5.12C901.36,530.74,894.62,534.19,887.49,534.2Z" fill="#571519"/><path d="M956.31,435.33a3.83,3.83,0,0,1-2.84-1.27c-24.75-27.61-8.22-79.56,5.45-105.91a3.81,3.81,0,1,1,6.77,3.51c-11.9,22.92-28.56,72.75-6.54,97.31a3.82,3.82,0,0,1-2.84,6.36Z" fill="#571519"/><path d="M968,549.46a3.77,3.77,0,0,1-2.31-.78,3.82,3.82,0,0,1-.73-5.34c13.9-18.3,25-57.67,28-69.29a3.82,3.82,0,1,1,7.38,1.94c-3.16,12-14.6,52.54-29.34,72A3.81,3.81,0,0,1,968,549.46Z" fill="#571519"/><path d="M1063.8,607.39a3.82,3.82,0,0,1-3.67-4.86,158.85,158.85,0,0,1,11.06-27.28,3.81,3.81,0,0,1,6.75,3.55,153.57,153.57,0,0,0-10.48,25.82A3.82,3.82,0,0,1,1063.8,607.39Z" fill="#571519"/><path d="M1073.72,685.3q-10.44,0-23.1-5C1000.93,660.64,969,612,945.75,576.51c-2.42-3.7-4.75-7.25-7-10.62a3.81,3.81,0,1,1,6.34-4.24c2.27,3.39,4.61,7,7,10.68,22.73,34.65,53.85,82.11,101.3,100.88,17,6.72,30.2,5.77,39.28-2.82,18.65-17.65,16.56-63.11,7.88-89.13a3.82,3.82,0,1,1,7.24-2.42c9,26.9,12,76.36-9.88,97.08A34,34,0,0,1,1073.72,685.3Z" fill="#571519"/><path d="M849.3,834.16a3.81,3.81,0,0,1-3.78-3.3c-.63-4.75-9.74-41.74-13.19-55.59a3.81,3.81,0,1,1,7.4-1.85c.51,2.05,12.53,50.29,13.35,56.43a3.81,3.81,0,0,1-3.28,4.28Z" fill="#571519"/><path d="M1015.45,1074c-50.85,0-98.5-10.23-134.45-29.65a3.81,3.81,0,0,1,3.62-6.71c49.48,26.73,122,35.49,194.13,23.45,22.45-3.76,67.18-16.19,74-29.25a3.81,3.81,0,1,1,6.77,3.51c-10.84,20.92-78.78,33.14-79.46,33.25A391.9,391.9,0,0,1,1015.45,1074Z" fill="#571519"/><path d="M837.29,918.66a3.84,3.84,0,0,1-1.67-.38c-20.72-10.06-31.68-33.85-31.68-68.8a3.81,3.81,0,1,1,7.62,0c0,22.19,4.76,51,27.39,61.94a3.81,3.81,0,0,1-1.66,7.24Z" fill="#571519"/><path d="M1215.89,1471a3.8,3.8,0,0,1-3.81-3.81c0-34.89-18.95-198.38-28.52-253.67-2.63-15.19-5.58-33.28-8.7-52.42-7.36-45-15.7-96.12-22.4-124.87a3.81,3.81,0,1,1,7.43-1.73c6.76,29,15.12,80.2,22.49,125.37,3.12,19.13,6.07,37.19,8.7,52.35,9.6,55.51,28.62,219.82,28.62,255A3.81,3.81,0,0,1,1215.89,1471Z" fill="#571519"/><path d="M1257.56,1127.2c7.68,1.88,15.23,31.94,18.27,40,2.29,6.1,6.59,16,10.82,20.76,8.83,9.92,19.66,16.58,25.21,29.6,5.34,12.53,4.94,39.54,12,48,17.47,20.79,10.89-21.13,9.82-28.75-.73-5.15-3-12.48-2-17.61.06-.26.63-3.22,1.39-2.66,9.46,7.13,17.32,26.68,14.09,39.07-1.12,4.28-9.56,22.76-1.87,25.35,3,1,5.68-3.3,7.72-2.49,4.43,1.76,6.11,9.31,12.13-1,1.48-2.53,7.2-15.75,10.53-16.21,2.76-.39,1.27,10.29,7.74,8.9,24.11-5.16,17.12-47.25,10.4-62-6-13.22-17.88-26.31-28.37-35.83-5.13-4.64-14.36-5.67-19.56-10.58-7.81-7.36-23.7-17.26-29.82-26.15-4-5.77-7.84-30.74-12-33-.1-.06-4.43,6.81-4.93,7.36-3.93,4.41-12.74,10.72-19,8.64Z" fill="#ffe4ce"/><path d="M1252.27,1128a3.78,3.78,0,0,1-3.13-1.63l-7.58-10.85c-40.57-58.08-55.76-79.81-78.62-148.37a3.82,3.82,0,0,1,7.24-2.41c22.51,67.51,37.52,89,77.63,146.41l7.58,10.86a3.8,3.8,0,0,1-3.12,6Z" fill="#571519"/><path d="M1369.69,1251.22h0c-5,0-10.28-3.43-16.17-10.41a68.8,68.8,0,0,1-8.78-14.54c-2.1-4.34-3.76-7.77-6.71-10.15-1.42-1.23-2.56-2.23-3.64-3.19a176.05,176.05,0,0,0-17.28-13.51c-3-2-6-3.81-8.92-5.52-8.76-5.12-17-10-24.13-21.79a3.81,3.81,0,0,1,6.54-3.93c6.09,10.16,13.2,14.32,21.44,19.14,3,1.78,6.19,3.62,9.44,5.85a179.19,179.19,0,0,1,18,14c1.06.93,2.17,1.91,3.49,3,4.18,3.4,6.37,7.91,8.68,12.69a61.28,61.28,0,0,0,7.79,13c5.81,6.88,9.16,7.64,10.33,7.64a2.13,2.13,0,0,0,2-1c.51-.71-1.94-5.61-3.41-8.54-1.17-2.33-2.49-5-3.69-7.86-.83-2-1.58-4-2.3-5.81a77.84,77.84,0,0,0-5.67-12.53,105.85,105.85,0,0,0-6.76-9.86c-1.41-1.9-3-4.07-5.06-6.93-5.07-7.77-8.07-13.32-11.53-19.75l-1-1.9a3.81,3.81,0,0,1,6.71-3.62l1,1.9c3.52,6.54,6.31,11.7,11.12,19.07,1.91,2.69,3.49,4.82,4.88,6.68a114.8,114.8,0,0,1,7.18,10.48,85.81,85.81,0,0,1,6.25,13.72c.7,1.8,1.42,3.68,2.23,5.63,1.09,2.64,2.29,5,3.46,7.37,3.22,6.44,6,12,2.56,16.69A10.1,10.1,0,0,1,1369.69,1251.22Z" fill="#571519"/><path d="M1314.35,1230.83a3.82,3.82,0,0,1-3.77-3.28c-.38-2.7-1.93-10.52-4.49-14.26-4.34-6.46-9.4-11.33-14.75-16.48a136.7,136.7,0,0,1-13.2-14c-4.24-5.56-5.94-11.09-8.1-18.1a155,155,0,0,0-13.94-33.26,3.82,3.82,0,0,1,6.68-3.69,164,164,0,0,1,14.55,34.71c2,6.52,3.46,11.24,6.84,15.67a129.06,129.06,0,0,0,12.46,13.18c5.4,5.21,11,10.59,15.78,17.71,4,5.85,5.56,16.29,5.72,17.46a3.81,3.81,0,0,1-3.24,4.31A4.9,4.9,0,0,1,1314.35,1230.83Z" fill="#571519"/><path d="M1383.78,1275.41a7.72,7.72,0,0,1-3.35-.75c-4-1.89-5.72-6.72-4.51-12.31.87-4,1.74-7,2.45-9.42a34.49,34.49,0,0,0,1.37-5.7c.24-3,.87-10.9-.7-16.06-1.18-4.87-11.52-16.65-15.14-19.59a3.81,3.81,0,1,1,4.81-5.92c3,2.4,15.81,15.78,17.68,23.51,1.94,6.33,1.25,14.91.95,18.58a38,38,0,0,1-1.66,7.33c-.66,2.27-1.5,5.11-2.31,8.89-.54,2.51.11,3.69.35,3.81s1.13-.13,2.34-1.63c4.07-4.92,8.48-14.6,8.93-17.29,1.27-7.2,2.35-21.38,2.35-23.26-.08-3.32-3.25-7.72-6.62-12.36-1.26-1.75-2.55-3.53-3.76-5.37-2.09-3-4.43-6.63-6.69-10.16-4.14-6.46-8.84-13.78-11.75-16.47a62.7,62.7,0,0,0-10.26-7.12c-1.91-1.14-3.78-2.27-5.55-3.46-7.68-5.49-26.73-20.05-33.81-26.61-7.41-6.75-19.82-38.62-20-38.93a3.82,3.82,0,0,1,7.13-2.73c4.14,10.84,13.69,32.15,18,36,6.88,6.37,25.53,20.62,33,26,1.57,1.06,3.34,2.12,5.12,3.19a68.46,68.46,0,0,1,11.5,8.05c3.64,3.36,8.19,10.45,13,18,2.22,3.47,4.52,7.05,6.58,10,1.2,1.82,2.43,3.52,3.63,5.18,4.08,5.64,7.94,11,8.06,16.75a241.77,241.77,0,0,1-2.45,24.63c-.76,4.43-6,15.33-10.54,20.82C1389.66,1273.85,1386.67,1275.41,1383.78,1275.41Z" fill="#571519"/><path d="M1326.92,1218.59c-2.59,0-5.25-.13-8.05-.34a3.81,3.81,0,1,1,.56-7.6c7.67.56,13.73.54,20.22-1.35a3.81,3.81,0,1,1,2.13,7.32A51.79,51.79,0,0,1,1326.92,1218.59Z" fill="#571519"/><path d="M1356.14,1287.78a7.55,7.55,0,0,1-1.16-.09c-1.67-.28-4-1.34-5.8-4.79-2.5-4.13,0-12.65,1.14-16.11.74-2,1.52-3.87,2.3-5.79,2.38-5.84,5.34-13.12,4.7-16.33a3.81,3.81,0,0,1,7.48-1.49c1.08,5.46-1.93,12.86-5.12,20.69-.76,1.86-1.51,3.72-2.19,5.5-1.91,5.63-1.91,9.14-1.6,9.94a6.85,6.85,0,0,0,.46.76,13.86,13.86,0,0,0,3.48-2.75c.58-.65,18.26-20.27,18-40.86,0-4.09-5.3-13.25-8.15-18.17-1.08-1.87-2-3.42-2.47-4.42a3.81,3.81,0,1,1,6.84-3.37c.45.9,1.26,2.29,2.23,4,4.84,8.36,9.18,16.32,9.18,21.94.28,23.12-18.08,43.93-20.18,46.22C1362.43,1285.4,1359.46,1287.78,1356.14,1287.78Z" fill="#571519"/><path d="M1345.7,1285.6h-.36a7,7,0,0,1-6.34-5.08c-2.38-6.44-1.45-12,.6-24.28l.27-1.61c2-12.18,1.34-17.28-9.74-35.75a3.81,3.81,0,1,1,6.54-3.92c12,20,13.09,26.73,10.72,40.93l-.27,1.61c-1.92,11.48-2.64,15.8-1,20.36a5.89,5.89,0,0,0,2.2-1.83,3.88,3.88,0,0,1,5.12-1.67,3.72,3.72,0,0,1,1.76,5C1354,1281.94,1349.92,1285.6,1345.7,1285.6Zm.64-7.33Z" fill="#571519"/><path d="M1330.89,1274.33c-2.92,0-7.19-1.77-11-10.18-2.17-5.14-5.27-16.14-7.26-25.67-.68-3.25-1.3-6.27-1.85-9-1.21-5.93-2.26-11.07-2.85-12.47a3.81,3.81,0,0,1,7-3c.85,2,1.66,5.94,3.29,13.91.55,2.69,1.16,5.69,1.85,8.93,1.87,9,4.84,19.6,6.77,24.18,1.55,3.43,3,4.92,3.73,5.43l0-.06c.63-1.2.36-4.72.2-6.83-.32-3.46-.92-7.88-1.56-12.57-1.41-10.36-3-22.11-2.59-30.78a3.81,3.81,0,1,1,7.61.36c-.38,8,1.17,19.36,2.53,29.4.65,4.76,1.27,9.26,1.6,13,.31,3.91.61,7.89-.94,10.82a7.26,7.26,0,0,1-6.57,4.52Z" fill="#571519"/><path d="M1253.56,1128.64a3.81,3.81,0,0,1-.2-7.62c16.82-.88,40.34-10.24,48.54-22.77a3.81,3.81,0,0,1,6.38,4.17c-9.78,14.95-35.92,25.24-54.52,26.21Z" fill="#571519"/><path d="M1128.87,530.9s-7.27,18.71-25.63,14.28c-16.8-4-18.6-25.41-18.6-25.41Z" fill="#fff" fill-rule="evenodd"/><path d="M1108.66,549.67a27.34,27.34,0,0,1-6.32-.78c-19.25-4.6-21.42-27.81-21.5-28.8a3.82,3.82,0,0,1,4.73-4l44.23,11.13a3.75,3.75,0,0,1,2.45,1.95,3.8,3.8,0,0,1,.17,3.13C1129.87,538.84,1121.93,549.67,1108.66,549.67Zm-19.11-24.73c1.64,5.79,5.56,14.38,14.57,16.53,10.12,2.45,16.17-3.7,19.08-8.07Z" fill="#571519"/><path d="M2506.92,1472.81h0l-2268.84-.12a3.82,3.82,0,0,1,0-7.63l2268.84.13a3.81,3.81,0,0,1,0,7.62Z" fill="#571419"/><path d="M1465.46,740.73c-6.4,10.54-22.59,12.63-35,19.89-6.75,3.58-28.72,20.53-42.26,49-8.2,17.82-12.2,52-17,88.32-1.86,13.13-9.75,38.43-20.16,51.76C1335,971,1314,979,1305.94,989.87c-14.21,19.34-9.48,30.48-7,48.3,2,16.73-.87,19.39-.87,19.39l38.67-9.89,63.69-6.59,99.17,46.21,100.81-18,72,21.91,18.91,23s-2.68-5.07-2.6-21.58c0-16,6.42-31.85,0-52.21-10.5-33-43.33-56.07-46.58-71.32-8-41.84,5.65-76.68,7.46-89.28,1-9.49-3-33.87-10.16-52.18a189.61,189.61,0,0,0-27.26-46.45s18.58-9.83,15.31-14.43c-2.31-3.43-6.17,3.11-24.31-1.93-4.64-1.54-17.23-8.67-31.61-19.19-17.39-12.42-36-28.16-41.21-29.75C1511.12,710.73,1481.47,714.12,1465.46,740.73Z" fill="#3dd8ac" fill-rule="evenodd"/><path d="M1400,1042c15.36-4.3,25.17-7.53,35.57-15.53,11-9,8-42.92,8-42.92s-11.16-10.73-16-25.61c-4.36-14.83-5-19.15-5-19.15s-11.17-5.39-18.38-13.05c-4.85-4.76-5.93-20.31-5.93-20.31s16.5.07,28.33-11.52c18.91-18.32,16-47.92,30.74-72,8.3-13.54,22.13-18.53,38.27-20.1,11.81-.93,22.42-.39,29,3.47,8.54,5.13,10,16.47,14,24.86,3.1,6.18,11.26,15,18.74,20a57.09,57.09,0,0,0,23.09,8.73s4.77,26.59,3,44.52-10.43,29.31-10.43,29.31a42.14,42.14,0,0,0,16.94-9.47c7.66-7.22,13.11-18.91,13.11-18.91s11.44,2.75,11.47,18.21c-.22,7.43-4.08,14-7.73,18.39a70.81,70.81,0,0,1-6.55,6.8,30.9,30.9,0,0,1-19.2,5.51s-.8,2.58-8.67,17.23-22.3,25.45-22.3,25.45-3.81,33.32,2.55,44.09c5.53,8.55,17.79,19.77,17.79,19.77l27.1,9.88-39.24,41.5-34.79,30.61-33.53,19.08c.18.21-27,18.85-43.29-1.29-10.94-13.55-24-27-32-47.4C1401.86,1080.62,1397.23,1042.77,1400,1042Z" fill="#ffe4ce" fill-rule="evenodd"/><path d="M1162.94,1183s-30.25,34.84-41.18,45.77c-23,23-45.83,51-54.64,78.25-4.77,14.73-3.37,29.52-3.37,47.28,0,19.2,5.41,44.29,27.41,50.58,42.82,12.23,88.74-44.71,116.15-77.34,14-16.63,30.35-29.69,48.3-55.46s19.76-24.25,22.26-22.59c1.36.91-8.7,28.12-11.82,44.77-3.47,18.47-.92,41.89-.45,62.3.46,20-1.24,37,1.25,54.87,1.21,8.66,4.05,52.38,4.05,52.38l332.32,1.3s9.78-66.62,13.14-65.78c1.82.46,3.79,55.38,4.67,57.74,4.39,11.72,20.23,48.34,28.71,58,16.2,18.52,51.08-8.51,62.57-28.1,23.92-40.82,12.09-116.12,12.09-162.61,0-56.5-4.76-132.61-18.69-175.87-3.41-10.58-11.71-26.64-17.82-35-3.76-5.16-15.52-6.26-19.14-11.42-16-22.89-69.86-33.66-69.86-33.66s-24.6,29.14-34.76,38c-8.3,7.23-33.15,30.15-54.18,45-19.53,13.75-42.31,17.81-52.67,15.87-15-2.82-43.86-60.84-43.86-60.84l-9-32.93-4-33.62s-114.12,7-119.17,29.55c-3.73,16.64-4.79,18.41-9.29,28.53-8.9,20-19.76,45.71-35.41,62.35s-8.18,14.76-13.17,25.74c-2.15,4.72-1.53,10.38-4.54,14.91-2.29,3.43-8.42,7.63-8.42,11.65Z" fill="#feffff"/><path d="M1167.39,1179.75c-.8.4.36-1.79.72-2.62,1.89-4.36,4.55-8.71,6.2-13.12,4.67-12.45,8.11-24.28,8.11-37.67,0-12.66-10.88-54.52-.72-63.89,7.94-7.33,57-21.67,69.14-18.36,3.63,1,4.53,5.63,7.87,7.15,2.44,1.11,7.77-3,8.82-1.91,5.74,5.74,18.83,22.28,15.26,30.76s-10,14.36-14.07,22.41c-4.18,8.38-3.78,18.14-9,26.23-7.66,11.73-19.31,21.85-25.76,34.09-6.61,12.57-15.14,23.85-21.45,36.48-1.29,2.58-2.65,12-5.25,13.35-1.06.53-5.39-1.43-6.91-1.43-14.84,0-18.13-7.89-26.47-17.16-1.39-1.56-4-1.46-4-4.3Z" fill="#ffe4ce"/><path d="M1612.31,1080.4c-10.41,6.94-40.36,43-36,56.19,4.62,13.89,13,14,21.1,21.4,7.47,6.85,14.31,22.61,19,31.52a154.71,154.71,0,0,1,13.08,35.08c1.59,7.14,1,18.52,6.24,23.78,6,6,54.27,1.9,56.49-4.76,3.86-11.57-3.89-20.07-5.35-31.21-2.27-17.18-4.17-34.3-6.84-51.43-3.12-20,8.23-49.64-5.65-66.3-2.88-3.45-7.11-2.21-10.41-3.86Z" fill="#ffe4ce"/><path d="M1097.64,1410.54a48.1,48.1,0,0,1-12.28-1.52c-13.09-3.46-19.73-22.61-22-30.69-8.93-32-3.39-72.74,7.37-90.69,10.47-17.45,32.12-42.43,53.06-66.58,14.13-16.29,27.47-31.68,36.93-44.19a3.82,3.82,0,0,1,6.09,4.6c-9.62,12.71-23,28.19-37.26,44.59-20.72,23.9-42.16,48.62-52.28,65.5-9.74,16.25-14.84,55-6.57,84.73,2.91,10.44,9,23.35,16.58,25.35,22.43,5.93,49.18-10.1,54.75-15.16,31-28.13,45.08-89.45,56.43-138.72,3.07-13.32,6-25.91,8.93-36.52a3.81,3.81,0,1,1,7.34,2c-2.91,10.44-5.79,22.94-8.84,36.19-11.59,50.3-26,112.9-58.73,142.64C1141.08,1397.67,1119.39,1410.54,1097.64,1410.54Z" fill="#571419"/><path d="M1665.44,1524.43c-27.52,0-40.06-37.17-47.15-65.53-4.88-19.49-4.19-39.33-3.53-58.52.13-3.9.27-7.79.36-11.7.62-26.68,3-53.6,5.28-79.63,1.81-20.58,3.68-41.86,4.67-62.8a3.81,3.81,0,0,1,7.62.35c-1,21.11-2.88,42.46-4.7,63.12-2.27,25.91-4.63,52.7-5.25,79.14-.09,3.93-.22,7.86-.36,11.78-.67,19.52-1.31,38,3.31,56.42,6.62,26.5,18.07,61.51,41.65,59.67.46,0,46.41-11.07,51.94-73.75a3.81,3.81,0,0,1,7.6.67c-5.51,62.43-50.83,80-58.94,80.68C1667.1,1524.4,1666.26,1524.43,1665.44,1524.43Z" fill="#571419"/><path d="M1712.58,1446a3.36,3.36,0,0,1-.63-.06,3.8,3.8,0,0,1-3.14-4.38c4.61-27.69.26-49.77-4.79-75.34-1.11-5.65-2.26-11.46-3.34-17.51-5.74-32-8.71-69.23-11.26-104.66a3.81,3.81,0,1,1,7.61-.55c2.53,35.23,5.48,72.27,11.15,103.86,1.08,6,2.22,11.78,3.32,17.38,5.19,26.3,9.67,49,4.83,78.07A3.81,3.81,0,0,1,1712.58,1446Z" fill="#571419"/><path d="M1723.27,1444.71a3.9,3.9,0,0,1-.59,0,3.82,3.82,0,0,1-3.19-4.35c7-45.66-2.76-205.36-7.47-245.94-5.65-48.75-25.1-76.94-33.64-83a3.81,3.81,0,1,1,4.4-6.23c11.18,7.89,31.08,38.84,36.81,88.31,3.92,33.8,14.89,199.54,7.44,248A3.8,3.8,0,0,1,1723.27,1444.71Z" fill="#571419"/><path d="M1272.21,1469.68a3.81,3.81,0,0,1-3.79-3.47c-1.16-13-5.44-90.49-6.4-111.54-1.83-40.52.76-72.15,7.93-96.69,4.65-15.89,9.5-31.63,14.2-46.85,8.78-28.48,17.08-55.39,21.36-75.06a3.81,3.81,0,1,1,7.45,1.62c-4.35,20-12.69,47-21.53,75.69-4.68,15.2-9.53,30.91-14.16,46.73-6.93,23.73-9.43,54.55-7.63,94.22.93,20.46,5.26,98.64,6.37,111.2a3.81,3.81,0,0,1-3.46,4.14Z" fill="#571419"/><path d="M1659.49,1259a70.73,70.73,0,0,1-28.91-6.63,3.81,3.81,0,0,1,3.12-7c20.9,9.37,40.93,7.56,56.41-5.09a3.81,3.81,0,1,1,4.83,5.9A55.09,55.09,0,0,1,1659.49,1259Z" fill="#571419"/><path d="M1210,1216.58c-9,0-31-10.5-41.91-20.43-6.62-6-9.43-11.78-8.34-17.09a3.81,3.81,0,1,1,7.47,1.53c-.41,2,1,4.82,4,8,10.44,11,34.46,21,38.73,20.4a3.76,3.76,0,0,1,4.7,2.55,3.87,3.87,0,0,1-2.6,4.78A7.37,7.37,0,0,1,1210,1216.58Z" fill="#571419"/><path d="M1142.54,1394a3.82,3.82,0,0,1-1.87-7.14c30-16.84,92.29-89.27,132.85-146.73a3.81,3.81,0,0,1,6.22,4.4c-41,58.13-104.44,131.62-135.33,149A3.81,3.81,0,0,1,1142.54,1394Z" fill="#571419"/><path d="M1633.25,1250a3.82,3.82,0,0,1-3.81-3.65,74,74,0,0,0-2.06-9.71c-2.48-8.45-7.73-20.34-11.21-28.2-1.06-2.4-1.94-4.39-2.5-5.74-5.41-12.78-9.54-25.23-12.85-35.22-2.6-7.86-5.06-15.28-6.37-17-2.06-3-8.17-5.5-11.56-6.4a3.81,3.81,0,1,1,1.94-7.37c1.17.31,11.63,3.19,15.8,9.32,1.88,2.45,3.74,7.92,7.43,19,3.27,9.87,7.33,22.15,12.64,34.67.56,1.34,1.41,3.27,2.44,5.6,3.56,8.05,8.93,20.21,11.56,29.13a76.08,76.08,0,0,1,2.36,11.54,3.8,3.8,0,0,1-3.64,4Z" fill="#571519"/><path d="M1691.12,1246.5a3.82,3.82,0,0,1-3.81-3.73c0-1.06-.31-3.38-.47-4.77-.09-.7-.16-1.27-.18-1.55-1.12-8.76-2.62-18.51-4.06-28-2.09-13.6-4.25-27.67-5.32-39.2-1.09-12.88-1.21-27.07-1.31-39.59s-.2-24.1-1.34-28.41c-1.73-6-6.38-7.18-15.91-9.08-1.77-.36-3.6-.72-5.49-1.16-14.75-4-27.45-6.31-37.92-7a4.56,4.56,0,0,0-3.7,1c-1.64,1.52-2,4.52-2,5.25a3.8,3.8,0,0,1-3.81,3.76h0a3.8,3.8,0,0,1-3.77-3.85c0-.69.2-6.81,4.46-10.76a12.28,12.28,0,0,1,9.36-3c11,.68,24.19,3.09,39.28,7.17,1.68.39,3.45.74,5.15,1.08,9.59,1.92,18.65,3.73,21.76,14.53,1.41,5.31,1.5,16.37,1.61,30.37.11,12.39.22,26.43,1.28,39,1.06,11.27,3.19,25.23,5.26,38.73,1.46,9.48,3,19.28,4.11,28.29,0,.38.1.85.17,1.45.26,2.14.49,4.18.53,5.5a3.83,3.83,0,0,1-3.73,3.91Z" fill="#571519"/><path d="M1600.54,1161.69c-4,0-15.44-.55-19.47-6.45l-.28-.4c-5.39-7.71-11.37-17.59-9.69-25.51.85-4.77,6.35-9.52,9.79-11.19l.29-.13c4.94-1.91,11.59-.54,19.29,1.06,6.38,1.31,13.6,2.81,19.77,2.2a3.81,3.81,0,1,1,.75,7.58c-7.31.71-15.15-.89-22.06-2.32-5.88-1.21-11.94-2.46-14.86-1.46-2.4,1.24-5.24,4.37-5.48,5.72-.83,3.91,2,10.49,8.45,19.69l.31.43c1.38,2,8.48,3.26,14,3.14a3.81,3.81,0,0,1,.19,7.62Z" fill="#571519"/><path d="M1590.37,1151.89a3.81,3.81,0,0,1-.7-7.56,9,9,0,0,0,3-1.31,3.81,3.81,0,1,1,4.5,6.16,16.81,16.81,0,0,1-6.14,2.65A4.34,4.34,0,0,1,1590.37,1151.89Z" fill="#571519"/><path d="M1577.45,1127.86a3.59,3.59,0,0,1-.91-.11,3.81,3.81,0,0,1-2.8-4.6,58.73,58.73,0,0,1,5.09-13.1c3.36-5.46,7.1-10.19,16.92-9.4a208.83,208.83,0,0,1,22.18,2.62c8.83,1.37,17.15,2.66,24.62,2.48a3.87,3.87,0,0,1,3.91,3.72,3.83,3.83,0,0,1-3.72,3.91c-8.1.19-17.2-1.21-26-2.57a203.2,203.2,0,0,0-21.47-2.55c-5.59-.45-7.09,1.11-9.89,5.65a52.05,52.05,0,0,0-4.25,11A3.81,3.81,0,0,1,1577.45,1127.86Z" fill="#571519"/><path d="M1592.42,1106.7a3.81,3.81,0,0,1-3.76-3.23,13.64,13.64,0,0,1,3.25-10.69c3.35-3.76,8.73-5.51,16-5.21,16.68.19,48.73,4.49,50.08,4.67a3.81,3.81,0,0,1-1,7.56c-.33,0-32.94-4.42-49.28-4.61-5-.19-8.42.72-10.16,2.67a6.29,6.29,0,0,0-1.4,4.44,3.81,3.81,0,0,1-3.18,4.35A3.92,3.92,0,0,1,1592.42,1106.7Z" fill="#571519"/><path d="M1163.52,1187.1a4.6,4.6,0,0,1-1.77-.43,4.06,4.06,0,0,1-2.18-4.82,3.78,3.78,0,0,1,1.41-2c.55-.86,1.68-2.75,3.9-6.8,12.32-21.46,12.64-35.94,12.64-36.08,0-15.35,0-31.15-1.87-46.48-.76-6.39-2.16-18.26.23-25.41,3.66-11,20-15.43,33.19-19l1.47-.41c6.41-1.86,18.21-4.24,26-5.81l2.44-.49c12.06-2,20.23,3.89,22.51,16.3a3.8,3.8,0,0,1-3,4.44A3.84,3.84,0,0,1,1254,1057c-1.54-8.38-5.74-11.52-13.61-10.19l-2.33.48c-7.69,1.54-19.3,3.88-25.45,5.67l-1.55.43c-10.8,2.94-25.59,7-28,14.07-1.85,5.52-.52,16.7.11,22.07,1.94,15.78,1.93,31.83,1.92,47.34.07,4.32-2.23,20-13.61,39.87C1167.43,1184.25,1165.87,1187.1,1163.52,1187.1Z" fill="#571519"/><path d="M1190.93,1095.93a4,4,0,0,1-.69-.06,3.81,3.81,0,0,1-3.07-4.43c.27-1.46.51-3,.76-4.63,1-6.34,2.1-13.53,5.18-18.86,5.57-10.73,20.11-13.33,30.72-15.22,2.25-.4,4.36-.78,6.21-1.2,1.4-.27,2.77-.65,4.19-1,6.08-1.68,14.41-4,20.33,2.7,3.22,3.31,3.89,7.17,4.53,10.9l.21,1.15c1.1,8.34-1.23,15.54-6.55,20.45-5.57,5.14-13.7,7-22.3,5.16a3.81,3.81,0,1,1,1.6-7.45c6.15,1.32,11.81.11,15.53-3.31,3.44-3.18,4.93-8,4.18-13.67l-.18-1c-.6-3.47-1-5.36-2.61-7-2.7-3-6.78-2.18-12.71-.53-1.63.45-3.21.88-4.66,1.15-1.82.42-4,.82-6.43,1.25-9.56,1.7-21.46,3.83-25.37,11.37-2.45,4.25-3.45,10.69-4.33,16.36-.27,1.69-.52,3.32-.8,4.84A3.8,3.8,0,0,1,1190.93,1095.93Z" fill="#571519"/><path d="M1231.3,1077.65a3.81,3.81,0,0,1-.37-7.6c6.39-.63,8.84-1.11,8.86-1.11a3.81,3.81,0,0,1,1.5,7.48c-.11,0-2.73.54-9.61,1.22Z" fill="#571519"/><path d="M1230.72,1145.93a4.11,4.11,0,0,1-.69-.06,3.8,3.8,0,0,1-3.06-4.43c3.22-17.66,1.61-26.2-.63-38-.58-3.08-1.2-6.37-1.78-10.05-1-5.42-2.76-18.75,4.36-22.91a3.81,3.81,0,1,1,3.84,6.59c-1.12.66-2.48,5.73-.69,15,.59,3.73,1.2,6.94,1.77,10,2.29,12.15,4.1,21.75.63,40.8A3.81,3.81,0,0,1,1230.72,1145.93Z" fill="#571519"/><path d="M1243.18,1101.46c-4.52,0-9.43-1.65-13.3-3.18a3.81,3.81,0,0,1,2.81-7.09c9.52,3.78,12.68,2.52,13.59,1.81,1.07-.75,1.87-2.84,2.52-4.52a26.94,26.94,0,0,1,1.47-3.38c.49-1,1.09-2.17,1.68-3.29,3.45-6.59,4.83-9.73,1.17-15a3.81,3.81,0,0,1,6.27-4.34c6.44,9.32,2.65,16.54-.69,22.9-.55,1.05-1.12,2.13-1.66,3.25a22.23,22.23,0,0,0-1.12,2.61c-1,2.66-2.29,6-5.12,7.92A12,12,0,0,1,1243.18,1101.46Z" fill="#571519"/><path d="M1208.19,1214.29a3.81,3.81,0,0,1-3.4-5.54l14.23-28.08a128.81,128.81,0,0,1,18.45-26.53,83.66,83.66,0,0,0,9.06-11.91c5.75-9.14,9.54-18.69,13.55-28.8,1.47-3.7,2.94-7.41,4.51-11.1a55.14,55.14,0,0,1,5.27-9.18c2.82-4.29,5.74-8.74,6.16-12.33.82-6.64-3.42-21-8.7-26.15a2.58,2.58,0,0,0-2.52-.94,3.3,3.3,0,0,0-2.19,2.43c-.67,2-.77,6.6-.31,11.35a3.81,3.81,0,1,1-7.59.75c-.28-2.92-.79-10.14.61-14.33a10.83,10.83,0,0,1,7.56-7.58,10,10,0,0,1,9.8,2.89c7.14,6.91,12,23.66,10.91,32.49-.63,5.37-4,10.57-7.35,15.6a50.64,50.64,0,0,0-4.6,7.9c-1.58,3.72-3,7.37-4.47,11-4,10-8.06,20.31-14.13,30a90.93,90.93,0,0,1-9.78,12.9,122,122,0,0,0-17.47,25.06l-14.19,28A3.83,3.83,0,0,1,1208.19,1214.29Z" fill="#571519"/><path d="M1602.48,1468.3a4,4,0,0,1-.75-.08,3.81,3.81,0,0,1-3-4.48c3.79-18.93,14.8-86.09,14.91-86.77a3.81,3.81,0,1,1,7.52,1.24c-.11.67-11.14,68-15,87A3.83,3.83,0,0,1,1602.48,1468.3Z" fill="#571419"/><path d="M1282.48,1072.75a3.81,3.81,0,0,1-2.24-6.9c22.71-16.47,56.62-21.43,86.54-25.81,12.81-1.87,24.92-3.64,35.19-6.15a3.81,3.81,0,1,1,1.81,7.4c-10.62,2.6-22.9,4.4-35.9,6.3-29.05,4.25-62,9.07-83.16,24.43A3.82,3.82,0,0,1,1282.48,1072.75Z" fill="#571419"/><path d="M1656.64,1091.52a3.75,3.75,0,0,1-1.87-.5c-3.54-2-12.06-4.68-21.92-7.79-10.41-3.29-23.37-7.37-35.19-12.17a3.82,3.82,0,0,1,2.87-7.07c11.54,4.69,23.79,8.56,34.61,12s19.15,6,23.39,8.44a3.81,3.81,0,0,1-1.89,7.13Z" fill="#571419"/><path d="M1468.15,1172.08q-1.08,0-2.1-.09c-11.25-1-22.18-7.77-32.48-20.19-24-29-39.5-83-36.78-110.09a3.81,3.81,0,0,1,7.59.76c-2.52,25.13,12.56,77.33,35.06,104.46,9,10.8,18.12,16.67,27.27,17.46.57,0,1.16.08,1.76.08,28.57,0,94.08-54.36,127.35-99a3.82,3.82,0,1,1,6.12,4.56C1566.9,1117,1499.47,1172.08,1468.15,1172.08Z" fill="#571419"/><path d="M1497,1018.08a4.19,4.19,0,0,1-.5,0c-.78-.1-19.25-2.72-43.9-23.22-17.21-14.18-22-27.86-24.84-36-3.82-10.06-5.88-21.32-8-33.92a3.81,3.81,0,0,1,7.52-1.26c2,12.2,4,23.07,7.62,32.57,2.79,8,7,19.94,22.55,32.78,22.78,18.95,39.86,21.51,40,21.53a3.81,3.81,0,0,1-.5,7.59Z" fill="#571519"/><path d="M1504.75,915a3.8,3.8,0,0,1-2.23-.72c-1.16-.84-11.31-8.49-9.68-17.89.85-4.56,4-6.78,6.48-8.56s3.85-2.85,4.5-5.23a83,83,0,0,0-.84-11.74,3.81,3.81,0,0,1,7.56-1c.13,1,1.25,9.74.84,13.76a4.17,4.17,0,0,1-.08.49c-1.31,5.47-4.92,8-7.56,9.92-2.26,1.61-3.14,2.34-3.4,3.7-.71,4.09,5.06,9.21,6.65,10.36a3.81,3.81,0,0,1-2.24,6.9Zm2.84-31.76h0Z" fill="#571519"/><path d="M1462.08,874.88c.54-5.28,3.47-6.18,7.69-5.75s8.19,1.5,7.66,6.77-4.13,9.17-8.35,8.74C1464.81,884.74,1461.55,880.15,1462.08,874.88Z" fill="#571519" fill-rule="evenodd"/><path d="M1454.07,847.5a3.81,3.81,0,0,1-2-7.06c.75-.46,18.57-11.07,38.45-.32a3.81,3.81,0,1,1-3.63,6.71c-16-8.62-30.26-.24-30.86.13A3.77,3.77,0,0,1,1454.07,847.5Z" fill="#571519"/><path d="M1593.91,934.14a3.82,3.82,0,0,1-2.94-6.23c.47-.57,4.68-5.53,9.71-6.44A3.82,3.82,0,0,1,1602,929c-1.64.29-4,2.39-5.18,3.78A3.81,3.81,0,0,1,1593.91,934.14Z" fill="#571519"/><path d="M1470.89,876.1a23.17,23.17,0,0,1-2.33-.12c-4.42-.5-8.85-2.6-11.78-4l-.9-.43a3.81,3.81,0,1,1,3.2-6.91l1,.44c2.47,1.17,6.21,2.94,9.34,3.3a17.2,17.2,0,0,0,10-2.29,3.81,3.81,0,1,1,3.71,6.66A25.35,25.35,0,0,1,1470.89,876.1Z" fill="#571519"/><path d="M1498.91,1018.18a16.06,16.06,0,0,1-1.8-.07,3.81,3.81,0,0,1,.75-7.58c.3,0,14.9,1.06,40.73-12.3,18.39-9.74,27.51-21.89,31.32-28.27a157.62,157.62,0,0,0,13.41-29.83,3.81,3.81,0,0,1,7.23,2.43,162.69,162.69,0,0,1-14.1,31.32c-4.2,7-14.26,20.48-34.33,31.11C1518.89,1017,1503.89,1018.18,1498.91,1018.18Z" fill="#571519"/><path d="M1570.12,858.74a3.8,3.8,0,0,1-2.65-1.08c-.51-.48-12.8-12-30.09-6.78a3.81,3.81,0,1,1-2.21-7.29c21.68-6.57,37,8,37.61,8.61a3.81,3.81,0,0,1-2.66,6.54Z" fill="#571519"/><path d="M1424.81,941.51a3.78,3.78,0,0,1-1.18-.19,38.52,38.52,0,0,1-25.1-26.81c-.82-3.63-1.63-7.26-1.25-11a3.81,3.81,0,1,1,7.58.77c-.25,2.55.39,5.43,1.08,8.48A30.76,30.76,0,0,0,1426,934.07a3.81,3.81,0,0,1-1.19,7.44Z" fill="#571519"/><path d="M1420.9,917.14a3.82,3.82,0,0,1-3.38-2c-.85-1.58-2.75-4.12-4.31-4.73a3.82,3.82,0,0,1,2.82-7.09c4.76,1.9,7.89,7.62,8.23,8.26a3.81,3.81,0,0,1-1.59,5.15A3.75,3.75,0,0,1,1420.9,917.14Z" fill="#571519"/><path d="M1504.62,933.53c-14.24-1.44-28.64-1.3-28.64-1.3s3.61,22.2,25.12,25.45c20.52,2.61,31.25-19.21,31.25-19.21A209.81,209.81,0,0,0,1504.62,933.53Z" fill="#fff" fill-rule="evenodd"/><path d="M1504.57,961.72a30,30,0,0,1-4-.26c-19.28-2.91-27-20-28.4-28.62a3.81,3.81,0,0,1,3.72-4.43c.6,0,14.78-.12,29.06,1.33h0a212.32,212.32,0,0,1,28.31,5,3.82,3.82,0,0,1,2.46,5.38C1535.31,941.09,1524.91,961.71,1504.57,961.72ZM1481,936.07c2.15,5.93,7.65,15.88,20.68,17.84,12.4,1.59,20.75-7.35,24.69-12.93a203.84,203.84,0,0,0-22.13-3.66h0C1495.38,936.42,1486.37,936.15,1481,936.07Z" fill="#571519"/><path d="M1554.36,884.74c.14-1.4.73-4.76-.56-6.33-1.93-2.36-5.57-.68-8.68-1-4.22-.43-5.47,0-6,5.24s2.2,9.82,6.42,10.25C1549.7,893.85,1553.82,890,1554.36,884.74Z" fill="#571519" fill-rule="evenodd"/><path d="M1549.79,883.77c-.6,0-1.2,0-1.79-.08a23.11,23.11,0,0,1-13.42-6,3.81,3.81,0,1,1,5.13-5.64,15.6,15.6,0,0,0,9,4.08c3.12.26,7.35-.71,10.13-1.35l1.08-.25a3.81,3.81,0,1,1,1.67,7.44l-1,.23A48.53,48.53,0,0,1,1549.79,883.77Z" fill="#571519"/><path d="M1586.16,860.71c-8.6,0-18.5-1.67-27.66-7.23-16.36-10.07-23-27.32-31.16-52.49-2.65-8-6.64-12.19-11.87-12.59-7.16-.51-15.29,6-17.61,10.51a3.81,3.81,0,0,1-6.79-3.46c3.33-6.51,14.23-15.47,25-14.65,5.91.45,13.91,3.9,18.54,17.81,7.92,24.29,13.74,39.65,27.9,48.36,7.58,4.61,16,6,23.32,6.08-9.91-4.95-20.63-15.32-26.52-36.73a3.81,3.81,0,0,1,7.35-2c11,40,39.1,35.55,40.28,35.35a3.81,3.81,0,0,1,2,7.33A72,72,0,0,1,1586.16,860.71Z" fill="#571519"/><path d="M1692.71,1115.71a3.81,3.81,0,0,1-3.76-3.23c-1.9-12.28-1-23.19-.08-33.75,1.11-13.15,2.16-25.58-2.42-39.42-5.2-15.67-13.59-24.51-22.48-33.86-8.41-8.85-17.1-18-22.39-33-6.7-18.79-2.91-39.58,1.11-61.6,3.39-18.54,6.89-37.73,3.64-55.7-4.78-26.27-17.87-47.75-36.06-71.9a3.81,3.81,0,0,1,6.09-4.59c18.85,25,32.43,47.38,37.47,75.13,3.5,19.34-.12,39.22-3.63,58.43-3.84,21-7.46,40.8-1.43,57.68,4.75,13.44,12.51,21.6,20.72,30.25,9.08,9.55,18.46,19.43,24.2,36.72,5.07,15.33,3.9,29.13,2.77,42.47-.85,10.11-1.74,20.56,0,31.93a3.85,3.85,0,0,1-3.77,4.4Z" fill="#571519"/><path d="M1599.73,785.34c-1,0-2.11,0-3.2-.09a3.81,3.81,0,0,1-3.58-4,3.76,3.76,0,0,1,4-3.58c12.09.7,20.89-3.46,25.82-7.14-7.29.06-18.11-1.15-30.89-7.83-15.85-8.18-27.93-18.45-41.92-30.34l-3.41-2.89C1521.79,709,1496,716.68,1480,730.66c-2,1.69-10.26,11.5-10.67,15.5-1.27,8.83,8.91,25.57,12.94,31.29a3.81,3.81,0,0,1-6.23,4.39c-1.66-2.36-16.19-23.42-14.27-36.62.74-7.33,11.56-19,13.3-20.37,17.33-15.24,47.81-24.79,76.36-1.26l3.46,2.93c14.19,12.07,25.4,21.6,40.49,29.38,16,8.36,28,7.15,33.77,6.57l.6-.06a4.32,4.32,0,0,1,4.16,1.71c.77,1.07,1.38,2.91-.09,5.58C1630.93,775,1618.92,785.34,1599.73,785.34Z" fill="#571519"/><path d="M1405.79,906.5a44.73,44.73,0,0,1-18.74-4.23,3.81,3.81,0,0,1,.79-7.08c1.16-.31,28.85-8.2,35.23-51.61a3.81,3.81,0,1,1,7.54,1.11c-4.77,32.47-20.76,47.22-31.28,53.55a31.24,31.24,0,0,0,16.79-1.21c8.81-3.35,15.73-11.3,20.58-23.63a235.6,235.6,0,0,0,7-22.84c5.8-21.41,11.29-41.64,32.08-50.13a3.81,3.81,0,0,1,2.89,7.06c-17.31,7.07-22.09,24.68-27.62,45.07a241.51,241.51,0,0,1-7.28,23.6c-5.69,14.48-14.12,23.9-25.07,28A36.52,36.52,0,0,1,1405.79,906.5Z" fill="#571519"/><path d="M1297.4,1063.67a3.82,3.82,0,0,1-3.8-3.5,5.13,5.13,0,0,1,.7-2.81c1-2.12,4.09-8.58,1.38-22.43-7.21-41.92,17.68-59.13,35.85-71.7,5.87-4.06,11-7.57,14.11-11.25,15-17.06,24.09-43.69,27-79.17,5-66.72,30.1-107.85,76.65-125.71a3.81,3.81,0,1,1,2.74,7.11c-43.53,16.7-67,55.69-71.78,119.2-3.1,37.18-12.82,65.29-28.9,83.58-3.77,4.38-9.48,8.33-15.52,12.51-17.41,12-39.06,27-32.69,64,3.18,16.24-.72,24.41-2,27.09l-.1.22a3.81,3.81,0,0,1-3.36,2.79Zm3.8-4.12h0Zm0,0h0Z" fill="#571519"/><path d="M1574.45,937a3.81,3.81,0,0,1-2.53-6.67c.18-.16,19.61-18.67,6.32-70a3.81,3.81,0,1,1,7.38-1.91c9.18,35.45,3.76,56.69-1.76,67.78,8.64-4.77,20-16.65,19.86-46.11a3.82,3.82,0,0,1,3.8-3.82h0a3.82,3.82,0,0,1,3.81,3.8c.15,54.14-36.31,56.91-36.68,56.94Z" fill="#571519"/><path d="M1649,1086.72a3.83,3.83,0,0,1-3.64-2.66c-3.19-10-9.78-18.53-16.76-27.51-14.18-18.25-30.26-38.93-26.66-80.59a3.86,3.86,0,0,1,4.13-3.47,3.8,3.8,0,0,1,3.47,4.12c-3.35,38.69,11.11,57.28,25.08,75.26,7.41,9.53,14.4,18.53,18,29.88a3.82,3.82,0,0,1-3.63,5Z" fill="#571519"/><path d="M1626.13,1080.25h-.22a3.83,3.83,0,0,1-3.59-4c.8-13.9-3.09-29.21-6.11-35.64a3.81,3.81,0,0,1,6.9-3.24c3.13,6.66,7.75,23.23,6.82,39.32A3.81,3.81,0,0,1,1626.13,1080.25Z" fill="#571519"/><path d="M1331.4,1052.49a3.81,3.81,0,0,1-3.68-2.8c-.34-1.25-.7-2.51-1.07-3.78-3.48-12.1-7.81-27.16,3.12-45.92a3.81,3.81,0,1,1,6.58,3.84c-9.29,15.94-5.77,28.15-2.37,40,.38,1.31.75,2.6,1.1,3.88a3.8,3.8,0,0,1-3.68,4.81Z" fill="#571519"/><path d="M1383.9,1042.19a3.81,3.81,0,0,1-2.65-6.54c14.79-14.38,13.16-27.75,11.28-43.24-1.35-11.13-2.75-22.64,1.74-35.37a3.81,3.81,0,1,1,7.19,2.54c-3.9,11-2.61,21.65-1.36,31.91,2,16,4,32.62-13.54,49.63A3.79,3.79,0,0,1,1383.9,1042.19Z" fill="#571519"/><path d="M1583.18,956a3.81,3.81,0,0,1-.21-7.62c13.56-.73,29.55-8.51,30-28,0-5.27-1.54-12.06-8.67-13.91a3.81,3.81,0,0,1,1.91-7.38c9.1,2.36,14.35,10.14,14.39,21.36-.52,23.25-19,34.6-37.2,35.57Z" fill="#571519"/><path d="M1402.05,1045.66a3.81,3.81,0,0,1-.37-7.61c15.16-1.48,31.92-10.72,33.84-18.66,2.41-9.95,5.51-37.72,5.54-38a3.81,3.81,0,0,1,7.58.84c-.13,1.16-3.18,28.54-5.71,39-3,12.55-23.4,22.77-40.5,24.45Z" fill="#571519"/><path d="M1595.29,1074.09a3.74,3.74,0,0,1-1.23-.21c-10.29-3.51-44.17-16.47-48.27-35.92a2.2,2.2,0,0,1-.06-.37c-1.71-15.45,3-42.25,3.26-43.38a3.81,3.81,0,1,1,7.5,1.35c0,.26-4.73,26.6-3.21,41,2.78,12.28,25,23.88,43.24,30.11a3.81,3.81,0,0,1-1.23,7.42Z" fill="#571519"/><path d="M1642.4,1347.52l-513.33-.16-15.81,10.31-.08,30.66,24.07,276.12,16.63,19.41,467.95-1.73,9.4-24.78,29.58-298.2Z" fill="#a9adb2"/><path d="M1410.22,1509.82c0-13.59-9.45-24.61-21.11-24.61s-21.12,11-21.12,24.61,9.45,24.6,21.12,24.6S1410.22,1523.4,1410.22,1509.82Z" fill="#fff"/><path d="M1602.69,1688.93c-3.14,0-5.65-.15-6.75-.23l-419.53-.3c-2.29-.12-22.92-.14-30.55-5.3-11.23-7.6-12.08-24.5-12.11-25.21l-20.36-230.12c0-.25-1.72-21.73-3-33.62-1.28-12.14-1.63-16.41-1.63-16.41-.16-2.08-1.36-20.46,7.06-27.53,8.2-6.9,26.25-5.79,29-5.57l489.19-.43c2.15-.2,18-1.19,24.94,9.54,6.68,10.37,3.69,30.38,3.33,32.63l-28.17,271c0,.54-.82,19.4-10.67,27.26C1619,1688.24,1609.42,1688.93,1602.69,1688.93Zm-426.28-8.15,419.8.3c7.42.51,19.42.1,22.51-2.37,5.94-4.73,7.66-17.37,7.83-21.84l28.21-271.49c.88-5.53,2.15-20.79-2.18-27.5h0c-4.72-7.32-17.83-6.08-18-6.07a2.47,2.47,0,0,1-.39,0l-489.51.42h-.32c-6.74-.56-19.12,0-23.64,3.79-4.28,3.6-4.79,15.76-4.37,21.09,0,0,.36,4.27,1.62,16.22s3,33.56,3,33.78l20.36,230.26c0,.3.75,14,8.78,19.39,4.3,2.92,18.38,4,26.26,4Z" fill="#571419"/><path d="M615.54,548.73c24.19,1.44,44.16-13.18,44.16-13.18s28.74-3.22,53.67,12.59c31.9,20.92,62.36,66,68.31,82.63,8.91,22.92,10.47,56.85,17.69,83.81,6.62,24.1,13.25,48.76,10,69.52-3.17,23.63-25.46,36.56-35.08,50.48-6.79,9.87-1.49,20.16-.29,24.18.61,2.29-8.62,1.25-16.17-5-5.82-5.11-10.46-8.51-10.46-8.51s-15.9,18-38.37,15.42c-35.73-3.6-110.48,1.32-169.43-19.85a25.56,25.56,0,0,1-12.2-9.06S521.15,837,509,832c-12.14-4.46-9.37-13.7-9.37-13.7s-13.7,9.37-22.43,1.42c-2.91-2.85,5.15-2.94,6.2-11,2.69-16.15-16.55-36.64-13.84-51.05,3.81-18.47,16.78-41.07,25.73-62.46C502,679,511.36,643.78,518.65,627c6.71-16.19,13.4-34.11,26.48-47.5C567.29,555.64,591.36,547.29,615.54,548.73Z" fill="#f4c04d" fill-rule="evenodd"/><path d="M548.91,844.93s2.7-10.57,6.51-29a351.27,351.27,0,0,0,7.38-57.06L539.59,743a43,43,0,0,1,16-12.85c13.74-5.92,52.75-16.17,71.59-29.63,33.1-22.84,25.48-34.83,42-46,8-5.85,19.47-8.87,35-6.75,17.86,2.09,32.92,10,34.13,15.13,1.22,5.74,4.26,18.94,10.73,30.95,4.13,8.58,10.14,29.8,10.14,29.8s-.52,5.19-1,15.55c-.94,17.28-1.29,36.85-9.69,55.94-7.29,16.2-17.42,35.31-27.63,47.52A122.57,122.57,0,0,1,693,866.63l-27.07-2-5.52,19.63,9.56,6.24-9.05,23.57-18.89,15-13.57,33-10.61-37.71L575.3,888.52Z" fill="#ffe4ce" fill-rule="evenodd"/><path d="M465.51,746c-2.11-8.45,3.14-18.33,5.1-26.53,1.85-7.7,2.48-17,6.81-23.81,10.91-17.15,33-26.54,45.91-42.51,7.64-9.44,11.32-26.2,13.95-37.75,2.34-10.32,7.36-23.83,4.08-34.35-1.7-5.44-7.8-8.75-9.19-14.29-1-3.89-.25-9.47-4.42-11.9-7.58-4.42-16.76-2.45-24.83-2.72-76.32-2.55-68.89,85.54-75.5,138.42-2.18,17.49-29.63,41.54-8.5,50,5.86,2.35,5.91,5.79,13.6,5.79Z" fill="#ffe4ce"/><path d="M730.19,860.52c-1.84-5.2,16.68,7.24,19,8.73a387.33,387.33,0,0,0,40.17,21.94c41.9,20,61.67,50.2,73.63,94.34,2.08,7.69,7.69,28.52,7.59,36.48-.13,9.86-.94,16.41.44,26,1.81,12.6,15.2,18.28,17,29.65,1.33,8.52-3.42,14.75-4.42,22.75-1.06,8.58-2,15.52-4,24.26-1.74,8,2.09,25-3.51,31.49-5,5.79-12.45,16.28-18.5,23-5.22,5.79-9.76,7.56-6.37,15.22,9.71,21.94,26.28,24.4,46.76,27.75,7.06,1.15,26.1-3.1,33-1.46,2.9.69,13.5-10.25,13.13-7.3-.73,5.86-10.76,34.29-14,38.81-6.25,8.71-11.83,16.16-18.09,24.52-7.72,10.31-17.79,26.21-29.47,32.27-38.36,19.9-66.36-34.5-74.7-61.16-15.94-51-9.1-93.94-30.34-143.86-5.18-12.15-19-42.6-19-42.6s-13.23,27.2-15.45,31.66c-13.58,27.2-20.6,101.75-20.6,101.75s-72.24,39.82-92.74,43.73c-41.18,7.85-76.4,11.34-117.88-.75-15.73-4.59-50.29-20.69-65.6-26.28-16.32-6-54.44-49.08-54.44-49.08s4.17-49.7,5.69-67.5c.61-7.09,1.94-35.23,1.94-35.23s-26.63,15.23-36.4,18.43c-27.87,9.11-90.5,8-87.9-34.23,3-49.55,9.06-80.5,26.68-124.3,12.67-31.52,38.34-58.59,48.86-91,5.27-16.24,20.08-40.33,29-54.52,7.49-11.94,16.38-38.75,23.72-41.94,5-2.19,12.14,10.79,22.81,13.91,18,5.27,42.61,3,42.61,3l-7.95,66.38s60.59,19.06,66.31,16.19c5.51-2.76,16-31.89,24.17-24,6.31,6.07-9.12,21.71-3.82,30.77,15.44,26.4,32.74,56.25,53.19,79.18,4.21,4.73,13.46,4.58,16.89,9,2.09,2.69,7.16,41.67,12.74,42.37,1.71.21,1.71-3,2.67-4.44,7.17-10.76-1.06-27.78,7.93-38.21,9.69-11.24,21.18-12.31,24.75-28.7,1.55-7.08-7.34-15-3.66-21.64,5.55-10.07,18-.19,19.35-10.83Z" fill="#fff"/><path d="M941.92,1208.13c4.31-.88,2.52-17.45,2.06-20.86-2.87-21.46-13-40.9-8.19-63.35,2-9.25,7.22-15.94,10.88-24.68,5.93-14.19,9.86-29.55,16.61-43.38,4.79-9.82,13.79-22.08,13.67-33.43-.35-32.76-58.17-74.67-90.33-64.09-5.72,1.89-8.51,10.75-7.61,16,1.34,7.82,8.71,11.11,6.55,20.69-4.58,20.33-21.25,32.49-16.46,56.15,2.18,10.76,18.36,19.16,18,29-.28,9-5.24,18.9-6.85,27.88-3.65,20.34-3.49,38.33-10.34,58.38-4.28,12.52-24.2,13.91-19.81,31.44,1.33,5.32,9.51,9.13,13.56,11.48,17.72,10.31,53.17,22.18,70.46,5.94Z" fill="#ffe4ce"/><path d="M769.61,1467.87c1.89-.95-7.3-52.13-9.44-74-5.1-52.35-23.52-98.88-33.48-150.09-1.36-7,.15-41.17-10-43.72-.55-.13-38.41,21.37-41.62,23.7-21.09,15.23-83,22.73-108.81,21.77-52.64-2-76.49-10.64-122.82-36.2-8.8-4.85-51.06-45.3-51.06-45.3s-14.26,44.88-19.24,65.44c-15.06,62.21-62.27,162.65-62.27,237.62Z" fill="#778196"/><path d="M476.91,667.88a3.77,3.77,0,0,1-1.27-.22,3.81,3.81,0,0,1-2.33-4.86c2.71-7.67.12-15.11-2.62-23-.91-2.64-1.86-5.36-2.6-8.1-1.73-5.9-2.24-22.11-2.29-23.94a3.81,3.81,0,0,1,7.62-.21c.14,4.69.76,17.82,2,22.08.69,2.56,1.55,5,2.47,7.67,2.9,8.36,6.2,17.84,2.6,28A3.81,3.81,0,0,1,476.91,667.88Z" fill="#571519"/><path d="M479.72,611.42c-3,0-6.64-.17-9.79-.36a3.81,3.81,0,1,1,.47-7.61c5.23.32,11.72.48,13,.2a3.74,3.74,0,0,1,4.74,2.44,3.86,3.86,0,0,1-2.48,4.84A23.73,23.73,0,0,1,479.72,611.42Z" fill="#571519"/><path d="M410.44,735.53a3.6,3.6,0,0,1-1.2-.2,3.8,3.8,0,0,1-2.41-4.82c10.82-32.39,18-53.79,19.39-63.77s2.12-20.35,2.8-30.28c.54-8.09,1.11-16.46,2.07-24.78.19-1.35.35-2.73.53-4.17,1.34-11.22,3.18-26.58,15.39-31.15,7.69-2.83,16.73-2.05,23.74-1.05l21.81,3.1c3.7.53,12.36,1.76,16.09,11.15,4.08,10.29-6.85,30.06-12.79,38l-.72,1.1c-2.59,3.92-6.49,9.83-11.76,10.38a9.65,9.65,0,0,1-8.4-3c-2.77-3.08-3.62-8-2.38-13.91a80,80,0,0,1,5.27-15,3.81,3.81,0,1,1,6.88,3.28,73.88,73.88,0,0,0-4.69,13.28c-.83,3.92-.2,6.34.59,7.22.17.19.59.64,1.94.5.77-.08,2.46-1.36,6.18-7l.9-1.35c8-10.7,13.83-25.88,11.89-30.76s-6-5.83-10.08-6.41l-21.8-3.1c-6.13-.87-13.95-1.59-20,.64-7.85,2.94-9.37,15.64-10.48,24.92-.18,1.5-.35,2.93-.54,4.23-.93,8-1.49,16.32-2,24.32-.68,10.08-1.38,20.49-2.85,30.84-1.52,10.67-8.76,32.33-19.71,65.11A3.81,3.81,0,0,1,410.44,735.53Z" fill="#571519"/><path d="M496.4,624.68a3.81,3.81,0,0,1-.68-7.56c4.49-.82,9-6.69,12.18-15.69,4.1-11.78,3.68-22.33,2.08-24.14-4.45-5.07-23.07-8-27.45-8-1.43.08-3.34.09-5.42.09-12.65,0-23.41.82-27,10.57a3.81,3.81,0,0,1-7.16-2.62c5.68-15.54,23.49-15.56,34.13-15.58,1.93,0,3.7,0,5.22-.08h0c3.1,0,26.08,2.23,33.38,10.54,4.85,5.52,3.31,20.44-.6,31.68-2.42,6.94-8,18.86-18,20.69A4.11,4.11,0,0,1,496.4,624.68Z" fill="#571519"/><path d="M508.16,615a3.81,3.81,0,0,1-1.37-7.37c3.36-1.3,6.73-5.46,9.48-11.7,4.86-11,5.93-23.86,4.51-27.52-.87-1.85-9.29-6.06-22.3-7.49-12.26-1.35-22,.62-25.53,5.14a3.81,3.81,0,1,1-6-4.65c8.22-10.67,28.93-8.61,35.08-7.73,10.37,1.49,23.38,5.52,25.89,12,2.56,6.59.43,21.87-4.64,33.37-3.63,8.22-8.37,13.66-13.72,15.73A3.87,3.87,0,0,1,508.16,615Z" fill="#571519"/><path d="M466.85,745.53a4.17,4.17,0,0,1-.85-.09,3.81,3.81,0,0,1-2.86-4.57c8.05-35.09,14.67-47.87,25.6-61.73a177.76,177.76,0,0,1,13.49-14.6c10.08-10.13,20.52-20.61,23-33.81a208.7,208.7,0,0,1,6.41-24.16c4.83-15.44,6.66-22.59-.66-30.12a3.82,3.82,0,1,1,5.47-5.32c10.79,11.11,7.12,22.85,2.47,37.72a202.24,202.24,0,0,0-6.2,23.31c-3,15.49-14.22,26.81-25.12,37.76a172.52,172.52,0,0,0-12.91,13.94c-10.41,13.22-16.37,24.83-24.15,58.71A3.82,3.82,0,0,1,466.85,745.53Z" fill="#571519"/><path d="M516.67,607.3a3.81,3.81,0,0,1-1.72-7.21c11.39-5.78,15.81-19.58,15.14-30.69-.41-6.8-2.55-9.82-3.47-10.16-10.45-4-27.25-3.77-29.83-1.83a3.81,3.81,0,0,1-4.58-6.1c6-4.48,26.28-3.33,37.07.79,4.72,1.71,7.89,8,8.42,16.84.82,13.6-4.83,30.61-19.31,37.95A3.78,3.78,0,0,1,516.67,607.3Z" fill="#571519"/><path d="M905.75,1067.12a3.82,3.82,0,0,1-1.78-.45c-6.26-3.31-16.07-10.15-16.48-10.43a3.81,3.81,0,0,1,4.36-6.26c.1.07,9.85,6.86,15.69,10a3.82,3.82,0,0,1-1.79,7.19Z" fill="#571519"/><path d="M889.47,1079.22a3.84,3.84,0,0,1-1.44-.28c-3-1.23-14.65-9.49-16.65-13.39-6.61-12.87,1.45-35.17,10-41.32,9-6.32,30.58,4.84,52,16.82,3.3,1.85,6.71,3.76,7.63,4.1a3.81,3.81,0,1,1-2.62,7.16,85.33,85.33,0,0,1-8.74-4.61c-25.26-14.14-40-20-43.82-17.26-6.07,4.35-12.3,22.65-7.69,31.63,1.25,1.92,10.46,8.87,12.75,9.81a3.81,3.81,0,0,1-1.44,7.34Z" fill="#571519"/><path d="M872,1052.74a3.81,3.81,0,0,1-3.54-2.39c-5.67-14.07,7.41-40.2,18.21-47.39,14.25-10.07,65,24.09,65.5,24.44a3.81,3.81,0,0,1-4.42,6.21C930.62,1021.41,897,1005,891,1009.25c-8.31,5.53-19.54,28.1-15.45,38.26a3.82,3.82,0,0,1-3.53,5.23Z" fill="#571519"/><path d="M874.36,1029.74a3.81,3.81,0,0,1-3.81-3.73c-.35-15.3,17.5-36.57,26.76-43.2,14.77-10.44,58.85,24.57,59.28,24.93a3.81,3.81,0,0,1-4.85,5.88c-15.39-12.71-43.79-29-50-24.6-9.48,6.78-23.82,26-23.57,36.82a3.82,3.82,0,0,1-3.72,3.9Z" fill="#571519"/><path d="M942,1186.91a3.8,3.8,0,0,1-3.61-2.59c-3.39-10-6.36-49-4.11-63.56s27-65.19,37.57-86.27c6.36-12.89.81-20.31-2.5-24.73-.4-.54-.75-1-1-1.43-31.19-39.32-49-50.16-54.75-47.37-5.94,2.75-15.1,13.74-21.1,23.18-3.67,6.4-4.2,8.71-4.06,13.25a3.81,3.81,0,1,1-7.62.23c-.19-6.29.92-10,5.15-17.42,1.45-2.29,13.69-21.18,24.38-26.13,11.85-5.71,33.44,11,64.13,49.73.39.56.69,1,1,1.39,3.49,4.67,11.65,15.59,3.22,32.69-16.7,33.41-35.15,73-36.86,84-2.17,14,1,51.85,3.79,59.94a3.83,3.83,0,0,1-2.39,4.84A4,4,0,0,1,942,1186.91Z" fill="#571519"/><path d="M886.43,990.52a3.8,3.8,0,0,1-3-1.42c-8-10-10.57-20.28-6.67-26.92,1.76-3,6.35-7.7,17.37-5.81a13.89,13.89,0,0,1,8.07,3.34l.32.24a3.81,3.81,0,1,1-4.56,6.11l-.33-.24a6.89,6.89,0,0,0-4.6-1.9c-3-.51-7.93-.87-9.69,2.13s-.63,10,6,18.27a3.81,3.81,0,0,1-3,6.2Z" fill="#571519"/><path d="M873.59,1162.8a3.82,3.82,0,0,1-3.27-5.78c4.94-8.19,6.84-20.28,5.82-37-1.39-19.93,18-59.27,18.81-60.94a3.81,3.81,0,1,1,6.83,3.39c-.19.39-19.28,39.15-18,57,1.13,18.58-1.06,31.73-6.89,41.41A3.82,3.82,0,0,1,873.59,1162.8Z" fill="#571519"/><path d="M871.43,1030.12a3.81,3.81,0,0,1-3.78-3.32c-.09-.74-9.81-74.15-40.33-109.87-26.72-31.25-97.91-54.83-98.63-55.07a3.81,3.81,0,0,1,2.38-7.24c3,1,73.95,24.49,102,57.36,32,37.46,41.71,110.74,42.11,113.84a3.81,3.81,0,0,1-3.3,4.27A4,4,0,0,1,871.43,1030.12Z" fill="#571519"/><path d="M862.55,1320.52a29.82,29.82,0,0,1-9.27-1.5c-36.23-11.78-56.31-89.91-60.48-116.34-1.11-7-2-14.16-2.85-21.06-.8-6.43-1.62-13.09-2.62-19.6a352.11,352.11,0,0,0-8.5-41c-5.4-19.44-14.73-44.12-22.68-60a3.81,3.81,0,1,1,6.82-3.41c8.28,16.55,17.6,41.22,23.2,61.39a355.93,355.93,0,0,1,8.69,41.86c1,6.62,1.86,13.33,2.66,19.83.85,6.83,1.72,13.9,2.81,20.8,4.82,30.47,25.42,100.56,55.31,110.28,10,3.25,20.2-.54,31.23-11.57,8-8,16.57-17.55,27.12-30.22,11.89-14.27,21-33.32,25-52.27,3.15-15,.32-30-2.69-45.82s-6.09-32.19-2.79-48.71a3.81,3.81,0,1,1,7.48,1.5c-3,15.06-.19,30,2.81,45.79s6.12,32.35,2.65,48.81c-4.23,20.13-13.93,40.38-26.59,55.58-10.7,12.85-19.47,22.62-27.58,30.73C882.34,1315.52,872.38,1320.52,862.55,1320.52Z" fill="#571519"/><path d="M821.58,1237.94l-.38,0a3.81,3.81,0,0,1-3.42-4.17c2.74-27.37,11.43-34.59,22.44-43.73,1.36-1.12,2.76-2.29,4.21-3.53,6-5.2,26-23.43,30.55-39.71a3.81,3.81,0,0,1,7.34,2.06c-5,17.83-24.69,36.3-32.91,43.41-1.48,1.29-2.92,2.48-4.32,3.64-10.41,8.65-17.3,14.36-19.72,38.61A3.82,3.82,0,0,1,821.58,1237.94Z" fill="#571519"/><path d="M767.85,1471a3.82,3.82,0,0,1-3.81-3.59c-1.91-33.57-4.82-73.31-15.16-120.41-3-13.46-6.37-27.06-9.67-40.21-11.39-45.39-23.17-92.31-18-141.21,3-29,12-70.46,28.06-100.07a229.46,229.46,0,0,1,12.48-19.74c10.26-15,19.95-29.26,19.95-48.82a3.81,3.81,0,1,1,7.62,0c0,21.91-10.81,37.77-21.27,53.11A224,224,0,0,0,756,1069.16c-15.51,28.63-24.21,69-27.18,97.24-5,47.55,6.6,93.81,17.83,138.55,3.31,13.21,6.74,26.87,9.72,40.44,10.46,47.64,13.39,87.75,15.33,121.6a3.81,3.81,0,0,1-3.59,4Z" fill="#571519"/><path d="M311.22,1461.73h-.15a3.81,3.81,0,0,1-3.66-4c1.83-47.27,28.35-127,45.9-179.74,4.73-14.23,8.82-26.52,11.75-36.1,9.05-29.53,15.9-56,21-81,1.86-9.16,8.77-68.28,10.24-106.08a3.75,3.75,0,0,1,4-3.66,3.8,3.8,0,0,1,3.66,4c-1.48,38.13-8.5,98-10.38,107.29-5.12,25.24-12,52-21.15,81.76-3,9.67-7.06,22-11.81,36.28-17.41,52.34-43.72,131.44-45.51,177.63A3.81,3.81,0,0,1,311.22,1461.73Z" fill="#571519"/><path d="M326,1087.52a99.23,99.23,0,0,1-17.34-1.51c-13.76-2.43-30.81-7.8-33.91-19.57-17.2-65.33,15.93-140.28,46.75-191.65,17.09-28.47,34.56-62.6,51.46-95.62,9.1-17.79,17.71-34.59,26.22-50.5,2.24-4.2,9.27-5.69,12.19-6.14a3.81,3.81,0,0,1,1.16,7.54c-2.8.43-6,1.56-6.7,2.31-8.41,15.74-17,32.51-26.08,50.27-17,33.12-34.49,67.38-51.71,96.07-30.06,50.11-62.44,123-45.92,185.78,1.6,6,11.75,11.16,27.87,14,35.08,6.18,72.3-8.5,97.14-38.31,11.83-14.2,16.53-36.68,20-56.64,2.5-14.37,5.08-28.73,7.65-43.09,4.45-24.8,9.05-50.44,13.17-75.74l2.86-17.46c3.89-23.71,7.92-48.22,11.22-72.44.92-6.75,4.18-27.35,4.32-28.22a3.81,3.81,0,1,1,7.53,1.19c0,.21-3.38,21.39-4.29,28.06-3.31,24.32-7.35,48.89-11.26,72.65L455.45,866c-4.12,25.36-8.73,51-13.18,75.86-2.57,14.35-5.15,28.69-7.64,43.05-3.64,20.93-8.61,44.58-21.65,60.22C390.44,1072.13,358.27,1087.52,326,1087.52Z" fill="#571519"/><path d="M449.78,752.4c-18.77,0-38.9-4.75-49.9-18.51a3.81,3.81,0,1,1,5.95-4.76c12.73,15.91,40.9,17.61,61.16,14.23a3.82,3.82,0,0,1,1.26,7.53A113.68,113.68,0,0,1,449.78,752.4Z" fill="#571519"/><path d="M575.33,1249.61c-34.13,0-69.28-8.11-109.33-24.25-30.26-12.19-73.34-47-79.47-64.33a3.81,3.81,0,0,1,7.18-2.55c5,13.93,45.38,47.82,75.14,59.81,81.67,32.9,142.4,31.53,216.62-4.88,14.71-7.22,31.9-17.39,34.78-22a3.81,3.81,0,1,1,6.48,4c-5.33,8.57-32.51,22.2-37.9,24.85C648.87,1239.86,612.72,1249.61,575.33,1249.61Z" fill="#571519"/><path d="M683.53,871.51c-18.91,0-44.89-13.67-64.11-29.9-16.52-13.82-23.15-25.71-31.37-42.29a3.81,3.81,0,0,1,6.83-3.39c7.79,15.71,14,27,29.44,39.85,21.33,18,52.29,32.92,67.21,26.75,23.49-10.25,48-51,57.2-82.84,2.8-9.4,3.5-20.11,4.25-31.45.54-8.11,1.09-16.49,2.46-24.61a3.81,3.81,0,1,1,7.52,1.28,237.64,237.64,0,0,0-2.37,23.83c-.74,11.26-1.51,22.91-4.54,33.1-8.35,28.89-33,75.24-61.54,87.7A28.56,28.56,0,0,1,683.53,871.51Z" fill="#571519"/><path d="M568,765.47a3.72,3.72,0,0,1-.81-.09c-13-2.78-23.53-10.26-29.77-21.06a3.81,3.81,0,1,1,6.6-3.82c5.15,8.91,14,15.1,24.77,17.42a3.82,3.82,0,0,1-.79,7.55Z" fill="#571519"/><path d="M564.25,739a3.82,3.82,0,0,1-3.39-2.07,53.66,53.66,0,0,0-3.75-6.28,3.82,3.82,0,0,1,6-4.65,61.88,61.88,0,0,1,4.48,7.44,3.81,3.81,0,0,1-1.65,5.13A3.73,3.73,0,0,1,564.25,739Z" fill="#571519"/><path d="M698.36,789.24a3.82,3.82,0,0,1-1.55-7.31c2.52-1.12,9.71-5.36,9.66-9.84,0-.12,0-.23,0-.35.08-1.08-.5-1.86-2.2-3.8-2.53-2.9-6-6.88-6.09-14.75-.06-4.83,1.79-12.25,4.72-18.89a3.81,3.81,0,1,1,7,3.07c-2.86,6.48-4.11,12.69-4.08,15.73.06,5.06,2.08,7.38,4.22,9.82,1.93,2.22,4.33,5,4.06,9.24,0,10.18-12.73,16.1-14.19,16.75A3.85,3.85,0,0,1,698.36,789.24Z" fill="#571519"/><path d="M652.33,738.2c.49-7.48,4,0,9.21-.11s9.7-6.44,9.79,1c-.48,7.49-4.44,13.29-9.63,12.77C655.94,751.4,651.84,745.11,652.33,738.2Z" fill="#571519" fill-rule="evenodd"/><path d="M664.17,741.28a49,49,0,0,1-20.47-4.74,3.81,3.81,0,0,1,3.33-6.86c7,3.38,18.18,5.57,26.33,2.4a3.81,3.81,0,1,1,2.76,7.11A33,33,0,0,1,664.17,741.28Z" fill="#571519"/><path d="M648.9,702.24a3.81,3.81,0,0,1-2.59-6.61c5.89-5.44,21.47-17.36,39-10.33a3.81,3.81,0,1,1-2.84,7.08c-13.47-5.41-26.13,4.39-31,8.85A3.78,3.78,0,0,1,648.9,702.24Z" fill="#571519"/><path d="M548.46,847.24a3.82,3.82,0,0,1-3.6-5.06c8.34-24.09,11.74-59.1,12.59-69.25a3.81,3.81,0,1,1,7.6.63c-1.11,13.3-4.59,46.86-13,71.11A3.83,3.83,0,0,1,548.46,847.24Z" fill="#571519"/><path d="M657.7,902.51l-.4,0a3.82,3.82,0,0,1-3.4-4.18A173.52,173.52,0,0,1,660.61,867a3.81,3.81,0,1,1,7.26,2.32,167.12,167.12,0,0,0-6.38,29.81A3.81,3.81,0,0,1,657.7,902.51Z" fill="#571519"/><path d="M724.87,740.79c.5-6.91,3.45,0,8.06.48s9.15-5.29,8.65,1.05c-.49,6.91-5,12.15-9.65,11.62S724.38,747.7,724.87,740.79Z" fill="#571519" fill-rule="evenodd"/><path d="M734.14,743.72a33.73,33.73,0,0,1-12.54-2.28,3.82,3.82,0,0,1,3-7c4.43,1.91,14,2.65,18.84-.53a3.81,3.81,0,1,1,4.17,6.38C743.8,742.79,738.86,743.72,734.14,743.72Z" fill="#571519"/><path d="M749.57,709.73a3.82,3.82,0,0,1-3.37-2c-4.28-8-9.93-11.47-19.52-12a3.81,3.81,0,0,1,.39-7.61c12.32.64,20.29,5.57,25.86,16a3.81,3.81,0,0,1-1.57,5.16A3.74,3.74,0,0,1,749.57,709.73Z" fill="#571519"/><path d="M773.5,864.88a3.82,3.82,0,0,1-2.85-1.28c-5.22-5.87-7.68-12-7.31-18.32.75-12.52,12.43-22.86,22.74-32,3.22-2.86,6.27-5.55,8.8-8.14,16.82-17.77,10.91-45.61,2.11-77.5-4.13-14.73-5.94-27.55-7.86-41.12-2.26-15.95-4.59-32.44-11.06-52.9-10.37-31.73-39.26-65.34-73.59-85.59-35.33-20.85-54.51-2.9-54.7-2.72a3.82,3.82,0,0,1-5.31-5.48c.94-.91,23.61-22.14,63.89,1.63,35.83,21.14,66,56.4,77,89.83,6.67,21.09,9,37.9,11.35,54.16,1.88,13.32,3.66,25.89,7.66,40.14,9.08,32.92,15.61,64.16-4,84.83-2.76,2.83-5.91,5.62-9.24,8.57-9.19,8.13-19.61,17.35-20.17,26.72-.26,4.24,1.5,8.43,5.38,12.79a3.82,3.82,0,0,1-2.84,6.35Z" fill="#571519"/><path d="M759.61,859.29a3.9,3.9,0,0,1-1.85-.48c-16.53-9.19-17.9-29-3.85-55.72a3.81,3.81,0,0,1,6.75,3.54c-6.84,13-15.83,36.26.81,45.51a3.82,3.82,0,0,1-1.86,7.15Z" fill="#571519"/><path d="M512.46,835.76a3.77,3.77,0,0,1-.88-.1c-7.88-1.87-13.83-7.76-17.19-17-6.24-17.18-2.27-41.73,3.35-49.27a3.82,3.82,0,1,1,6.12,4.56c-3.95,5.29-7.72,27.21-2.3,42.1,2.48,6.83,6.44,10.93,11.78,12.2a3.81,3.81,0,0,1-.88,7.52Z" fill="#571519"/><path d="M474.92,825.27a3.81,3.81,0,0,1-2-7c9.41-6,6.58-13.23-.19-27.79-3.34-7.22-7.14-15.4-8.53-24.13-2.73-17.26,5.92-33.1,15.08-49.87a257.21,257.21,0,0,0,12.5-25c3.42-8.39,6.43-16.37,9.19-24.39a3.81,3.81,0,1,1,7.21,2.48c-2.81,8.15-5.87,16.27-9.35,24.81a264.84,264.84,0,0,1-12.86,25.79c-8.89,16.27-16.57,30.33-14.24,45,1.22,7.69,4.63,15,7.92,22.12,6.31,13.58,12.83,27.63-2.65,37.44A3.8,3.8,0,0,1,474.92,825.27Z" fill="#571519"/><path d="M539.19,589.57a3.76,3.76,0,0,1-2.3-.78,3.8,3.8,0,0,1-.73-5.34c29.92-39.36,77.91-42.22,96.46-37.45a3.81,3.81,0,1,1-1.9,7.38c-17-4.36-60.89-1.63-88.49,34.68A3.81,3.81,0,0,1,539.19,589.57Z" fill="#571519"/><path d="M716,625.59a3.82,3.82,0,0,1-3.76-3.21c-2.35-14.64-12.25-28-25.83-35a44.3,44.3,0,0,0-41.07.07,3.81,3.81,0,0,1-3.44-6.8c15.57-7.88,32.61-7.9,48-.07a55.83,55.83,0,0,1,29.9,40.56,3.83,3.83,0,0,1-3.16,4.37A4.3,4.3,0,0,1,716,625.59Z" fill="#571519"/><path d="M523.35,831.35a3.79,3.79,0,0,1-3-1.51c-4.83-6.41-9.23-15.36-5.3-33.21a3.81,3.81,0,0,1,7.45,1.64c-3.42,15.53.24,22.07,3.93,27a3.8,3.8,0,0,1-3,6.1Z" fill="#571519"/><path d="M712.3,863.94a43.14,43.14,0,0,1-7.39-.61,3.81,3.81,0,1,1,1.32-7.51c8,1.4,25.8.3,29.46-12.12a3.82,3.82,0,0,1,7.32,2.16C739,859.52,724.18,863.94,712.3,863.94Z" fill="#571519"/><path d="M523.82,775.2h-.31a3.81,3.81,0,0,1-3.49-4.11c1.79-22.2,17.71-39,47.32-49.82,4.56-1.56,8.94-2.94,13.28-4.31,24.69-7.81,48-15.19,68.56-41.51,2.6-3.39,5.16-6.83,7.68-10.21,14.9-20,27.73-37.3,41.51-35.59,8.08,1,14.93,8.49,20.93,22.9a3.81,3.81,0,0,1-7,2.93c-4.78-11.49-9.77-17.64-14.83-18.26-9.35-1.1-22.11,16-34.46,32.57-2.53,3.41-5.12,6.88-7.76,10.32-22,28.22-46.44,35.94-72.29,44.11-4.29,1.36-8.62,2.73-13,4.21-9.9,3.63-40,14.68-42.34,43.27A3.81,3.81,0,0,1,523.82,775.2Z" fill="#571519"/><path d="M778.86,783.67a3.79,3.79,0,0,1-3.74-4.56c2.07-10.38-2.67-19.49-9.85-33.29a262.41,262.41,0,0,1-15-32.85c-3.92-10.74-6.28-19.54-8.17-26.62-3.56-13.32-5.52-20.66-13.59-26.57a3.81,3.81,0,0,1,4.5-6.16c10.25,7.5,12.72,16.76,16.46,30.76,1.85,6.93,4.15,15.55,8,26A252,252,0,0,0,772,742.3c7.36,14.13,13.16,25.29,10.56,38.3A3.8,3.8,0,0,1,778.86,783.67Z" fill="#571519"/><path d="M620.14,929.61a3.79,3.79,0,0,1-3.65-2.79c-.65-.44-1.45-1-2.22-1.45-11.65-7.54-42.6-27.55-66.84-71.85-7.86-14.35-6.3-26.54-2.57-32.61a3.81,3.81,0,1,1,6.5,4c-2.87,4.68-3.13,14.21,2.76,25,23.32,42.6,53.08,61.86,64.29,69.11,4.79,3.1,7,4.51,6.09,7.65a4.2,4.2,0,0,1-4.27,3Z" fill="#571519"/><path d="M579.25,973.28c-8,0-16.09-16.41-34.58-61.65-2.67-6.53-5-12.17-6.86-16.49-5.23-12-16.64-41.2-19.35-54.35-1.22-5.92,3.71-23.48,11.85-33.12,4.74-5.6,20.57-9.49,27.06-8.59a3.81,3.81,0,1,1-1,7.55c-4.54-.63-17.57,2.88-20.18,6-7.17,8.48-10.75,23.87-10.21,26.65,2.47,12,13.43,40.36,18.87,52.84,1.92,4.41,4.24,10.08,6.93,16.66,7,17.19,21.45,52.47,27.51,56.71,2.08-1.61,6-8.41,9-13.47,8.42-14.52,18.89-32.59,33-29.61a3.81,3.81,0,0,1-1.58,7.46c-8.65-1.79-18,14.24-24.81,26-6,10.32-9.94,17.13-15.19,17.46Zm.47-7.55Z" fill="#571519"/><path d="M660.72,972.19a4.68,4.68,0,0,1-1.63-.3c-3.56-1.36-3.93-5.74-4.66-14.44-1.22-14.5-3.12-28.55-11.26-28.05a3.81,3.81,0,0,1-1.69-7.34c10.56-4.29,26.69-20.92,21.85-33.35a3.81,3.81,0,1,1,7.1-2.76c5.53,14.19-6.54,30.34-18.26,38.73,7.7,6.4,9,21.88,9.86,32.13.11,1.33.23,2.79.37,4.15,8.87-13.2,21.89-47.2,21-70.26-.34-8.8-2.64-15-6.82-18.34a3.81,3.81,0,0,1,4.78-5.94c6,4.81,9.23,12.88,9.66,24,1.13,29.1-17,71.1-26.72,80.25A5.13,5.13,0,0,1,660.72,972.19Z" fill="#571519"/><path d="M568,1248a3.69,3.69,0,0,1-.93-.11,3.81,3.81,0,0,1-2.78-4.62c8.37-33.47,9.16-43,9.68-49.26a62.66,62.66,0,0,1,3-15.56c.51-1.71,2.06-5.22,5.24-12.37,12.43-28,45.47-102.31,49.72-163.57.32-4.68-2.46-16.14-5.41-28.28-3.44-14.17-7.73-31.8-9.44-47.67a3.81,3.81,0,1,1,7.58-.81c1.66,15.36,5.88,32.73,9.27,46.68s6,24.75,5.61,30.61c-4.34,62.6-37.78,137.82-50.37,166.14-2.51,5.66-4.5,10.14-4.89,11.44a55.27,55.27,0,0,0-2.71,14c-.54,6.53-1.36,16.4-9.88,50.46A3.8,3.8,0,0,1,568,1248Z" fill="#571519"/><path d="M460.49,818.82a3.81,3.81,0,0,1-.19-7.62c3.88-.2,9.37-.34,14-.47l5.26-.15a3.81,3.81,0,1,1,.25,7.62l-5.31.15c-4.54.13-10,.27-13.79.47Z" fill="#571519"/><path d="M632,985.4a3.82,3.82,0,0,1-3.82-3.82c0-16.61.89-28.81,2.73-37.32,1.5-7,4-18.63,12-22.76a3.82,3.82,0,0,1,3.5,6.78c-4.81,2.48-6.92,12.31-8.06,17.59-1.72,8-2.55,19.65-2.55,35.71A3.82,3.82,0,0,1,632,985.4Z" fill="#571519"/><path d="M910.05,1227.54c-19.36,0-43.68-6.36-55.52-18.08-6-5.93-8.59-13-7.52-20.39a3.81,3.81,0,0,1,7.55,1.09c-.73,5.06,1,9.6,5.33,13.88,12.24,12.11,41.71,18,59.87,15.19,7.63-1.19,20.11-5.24,21.12-11a3.82,3.82,0,0,1,7.52,1.31c-2.22,12.71-23.27,16.61-27.47,17.26A71.19,71.19,0,0,1,910.05,1227.54Z" fill="#571519"/><path d="M713.29,805.82s-5.47,31.09-25.67,29.4c-18.47-1.49-22.77-33.52-22.77-33.52Z" fill="#c67472" fill-rule="evenodd"/><path d="M689.28,839.1c-.65,0-1.31,0-2-.08-21.28-1.72-26-35.38-26.23-36.81a3.82,3.82,0,0,1,4.1-4.31L713.61,802a3.8,3.8,0,0,1,3.43,4.46C716.8,807.85,711,839.1,689.28,839.1Zm-19.77-33.18c2.18,9.58,7.83,24.64,18.41,25.5,12.52,1,18.48-14.54,20.63-22.18Z" fill="#571519"/><path d="M433,540.53A3.78,3.78,0,0,1,429.9,539l-21.8-30a3.81,3.81,0,0,1,6.17-4.48l21.8,30a3.82,3.82,0,0,1-3.09,6Z" fill="#571419"/><path d="M416.66,557.34a3.8,3.8,0,0,1-1.53-.33L391,546.41a3.81,3.81,0,1,1,3.06-7L418.2,550a3.82,3.82,0,0,1-1.54,7.31Z" fill="#571419"/><path d="M455.37,530.51a3.81,3.81,0,0,1-3.72-3l-4.36-20.78a3.81,3.81,0,1,1,7.46-1.57l4.36,20.79a3.81,3.81,0,0,1-2.95,4.51A3.55,3.55,0,0,1,455.37,530.51Z" fill="#571419"/><g opacity="0"><path d="M1736.71,1126.63a3.81,3.81,0,0,1-2.07-7l31.13-20.19a3.81,3.81,0,0,1,4.15,6.4L1738.78,1126A3.83,3.83,0,0,1,1736.71,1126.63Z" fill="#571419"/><path d="M1722.68,1108.64a3.82,3.82,0,0,1-3.4-5.53l11.85-23.55a3.81,3.81,0,0,1,6.81,3.43l-11.85,23.55A3.81,3.81,0,0,1,1722.68,1108.64Z" fill="#571419"/><path d="M1747.44,1148.71a3.81,3.81,0,0,1-.58-7.58l21-3.26a3.82,3.82,0,1,1,1.17,7.54l-21,3.25A4,4,0,0,1,1747.44,1148.71Z" fill="#571419"/></g><path d="M1386.54,758.51a3.82,3.82,0,0,1-2.22-.72l-30.13-21.67a3.81,3.81,0,0,1,4.45-6.19l30.13,21.67a3.81,3.81,0,0,1-2.23,6.91Z" fill="#571419"/><path d="M1374.51,780.23a4,4,0,0,1-1-.13L1348,773.4A3.81,3.81,0,1,1,1350,766l25.5,6.69a3.82,3.82,0,0,1-1,7.51Z" fill="#571419"/><path d="M1404.14,739.88a3.83,3.83,0,0,1-3.08-1.57l-12.53-17.15a3.81,3.81,0,0,1,6.16-4.49l12.53,17.14a3.82,3.82,0,0,1-3.08,6.07Z" fill="#571419"/><g opacity="0"><path d="M1135.94,1110.8a3.61,3.61,0,0,1-1.43-.28l-34.39-14a3.81,3.81,0,0,1,2.87-7.06l34.39,14a3.81,3.81,0,0,1-1.44,7.34Z" fill="#571419"/><path d="M1104.89,1137.48a3.81,3.81,0,0,1-.54-7.59l26.09-3.78a3.81,3.81,0,0,1,1.1,7.55l-26.1,3.78A5.09,5.09,0,0,1,1104.89,1137.48Z" fill="#571419"/><path d="M1149.65,1090.45a3.81,3.81,0,0,1-2.76-1.17l-14.69-15.34a3.82,3.82,0,0,1,5.51-5.28L1152.4,1084a3.82,3.82,0,0,1-2.75,6.45Z" fill="#571419"/></g><path d="M1703,1000.84a3.77,3.77,0,0,1-2.08-.62c-5.55-3.64-11-8-13.51-15.22a3.81,3.81,0,1,1,7.21-2.48c1.42,4.14,4.36,7.32,10.47,11.32a3.81,3.81,0,0,1-2.09,7Z" fill="#571419"/><path d="M1692.43,1006.24a3.84,3.84,0,0,1-1.82-.46c-4.39-2.39-7.39-5.56-10-10.61a3.81,3.81,0,1,1,6.74-3.55c2.27,4.29,4.34,6,7,7.46a3.81,3.81,0,0,1-1.83,7.16Z" fill="#571419"/><path d="M970.17,870.26c-.47,0-.95,0-1.44,0a3.81,3.81,0,1,1,.48-7.61c4.36.29,8.42-1.22,14.46-5.33a3.81,3.81,0,1,1,4.29,6.3C982.83,867.07,977.14,870.26,970.17,870.26Z" fill="#571419"/><path d="M975.15,880.45a3.81,3.81,0,0,1-.34-7.61c4.83-.45,7.24-1.69,9.56-3.56a3.81,3.81,0,1,1,4.78,5.93c-3.89,3.14-8,4.7-13.64,5.22Z" fill="#571419"/><path d="M2004,1071c-4.83,0-10-1.08-14-4.07a3.81,3.81,0,0,1,4.58-6.1c4.2,3.16,11.16,2.76,14.61,2a3.81,3.81,0,0,1,1.59,7.46A32.51,32.51,0,0,1,2004,1071Z" fill="#571419"/><path d="M2002,1082.43c-3.4,0-6.41-.93-10.14-2.94a3.81,3.81,0,0,1,3.6-6.72c4.06,2.18,6.12,2.48,10.53,1.52a3.81,3.81,0,1,1,1.63,7.44A25.88,25.88,0,0,1,2002,1082.43Z" fill="#571419"/></svg>