<svg xmlns="http://www.w3.org/2000/svg" viewBox="0 0 2745 1830"><path d="M0,1830H2745V0H0Z" fill="#7d38ce"/><path d="M1655.25,1137.71,2317.09,1277l-167,48.8-498.48-108.6Z" fill="#8c56d8"/><path d="M238.28,1492.58l1415.33-279.26,504,114.88L1065.33,1658.82Z" fill="#8c56d8"/><path d="M1466,1591.21c-17.71,0-17.53,53.6-8.76,56.53,37.61,12.53,88.58,23.28,127.07,7.88,23.87-9.55,41.18-47.39,11.39-64.41-12.48-7.13-56.92,16.23-81.94,7.89Z" fill="#8b8f96"/><path d="M244.33,1492.9a4.58,4.58,0,0,1-.87-9.07l1406.13-272.47a4.58,4.58,0,0,1,1.74,9L245.2,1492.81A4.36,4.36,0,0,1,244.33,1492.9Z" fill="#571519"/><path d="M2318.9,1283a4.63,4.63,0,0,1-1-.1l-659.27-142.13-.68,71a4.57,4.57,0,0,1-4.57,4.53h-.05a4.58,4.58,0,0,1-4.53-4.62l.73-76.64a4.64,4.64,0,0,1,1.72-3.53,4.53,4.53,0,0,1,3.82-.89L2319.86,1274a4.57,4.57,0,0,1-1,9Z" fill="#571419"/><path d="M2630.69,1228.43a4.66,4.66,0,0,1-1-.1l-654.77-142.72-318.42,52.26a4.58,4.58,0,0,1-1.49-9l319.29-52.4a4.73,4.73,0,0,1,1.72,0l655.62,142.9a4.58,4.58,0,0,1-1,9Z" fill="#571419"/><path d="M2150.12,1328.08a4.56,4.56,0,0,1-1-.11l-498.68-107.75a4.57,4.57,0,0,1,1.93-8.94L2151.09,1319a4.58,4.58,0,0,1-1,9Z" fill="#571419"/><path d="M1765.68,1465.45c-23.41,6.85-34.07,2.59-57.67-1.38-12.12-2-33-8.16-45-10.81-42.36-9.33-82.35-19.72-124.82-28.67-32.53-6.86-66.71-15-98.28-24.65-3.5-1.06-30-10.35-17.2-18.51,9.33-6,18.43-6.78,30.64-9.56,21.28-4.85,47.17-9.68,65.44-15.15,38.47-11.53,79.11-21.28,118.18-32.43,26.86-7.68,44.74-10.72,72.22-14.67,14.64-2.11,37.79,1.12,52.15,5.61,14.54,4.55,56.83,7.43,56.83,7.43s30.92-76,47.91-108.83c13.34-25.74,35.84-74.79,35.84-74.79s23-72.86,39.76-78.75c17-6,48.36-14.22,79.42-14.35,41.81-.17,92.93-5.63,116.89-6.68,7.82-.35,20.27-13.94,26.17-5.75,5.16,7.16-12.8,46.49-15.93,54.79-11.61,30.8-29.91,68.33-45.61,105.66-12.68,30.14-22.39,60.62-35.34,83.74-13.15,23.51-26.26,65.66-38.41,90a60.81,60.81,0,0,1-28.5,27.47s-56.22,18.66-84.14,29.65c-27.29,10.74-69.77,22.88-97.42,31.32-13.08,4-31.47,10.85-44.82,14.77Z" fill="#a9adb2"/><path d="M1590.16,1390.34l182.08-53,38.46,3.35-40,93.73Z" fill="#969696"/><path d="M1996.73,1229c7.17-15.61,17.57-26.16,23.23-23.56s4.44,17.36-2.73,33-17.58,26.16-23.23,23.56S1989.56,1244.62,1996.73,1229Z" fill="#fff"/><path d="M1774.86,1474.36c-3.39,0-6.57-.75-8.75-2.88-5.93-5.83-1.27-15.66-.37-17.42l157.55-356.79c1.22-3.44,9.87-27,19.54-35h0c10.18-8.41,31.81-10.87,34.25-11.12l172.85-19.4.39,0c2.5,0,15.27,0,18.37,8.32,2.6,6.9-2.75,18-4.62,21.59l-126.78,298.58c-.35.83-8.78,20.58-21.6,29.93-8.59,6.26-30.63,15.21-31.57,15.59l-193.62,65.06C1787.93,1471.86,1781.06,1474.36,1774.86,1474.36Zm173.79-405c-6.7,5.53-14.39,24.35-16.79,31.13,0,.11-.08.22-.13.33l-157.68,357.08a2.92,2.92,0,0,1-.14.31c-1.45,2.75-2,6.14-1.39,6.75,1.51,1,8.87-.33,14.81-2.72L1981,1397.17h0s21.67-8.81,29.35-14.41c10.79-7.86,18.49-25.91,18.56-26.09l126.87-298.77a3,3,0,0,1,.17-.36c2.65-5,5-12.16,4.23-14.26-.42-1.12-4.85-2.57-9.4-2.39l-172.67,19.38c-5.89.61-22.58,3.44-29.41,9.08Zm-21.1,29.61h0Z" fill="#571419"/><path d="M1768,1470.46a4.56,4.56,0,0,1-3.83-2.08,24.21,24.21,0,0,1-3-15.81c1.11-8.3,6.08-18.39,6.29-18.82l153-345.37c.93-2.32,9.92-24.22,19.69-32.28,10.3-8.5,32-11.58,33-11.71l167.25-20c.89-.11,9.15-1.1,14.77,0,9.31,1.87,14.88,8.37,14.88,17.39a4.58,4.58,0,0,1-4.57,4.58h0a4.59,4.59,0,0,1-4.58-4.58c0-1.71,0-6.91-7.53-8.42-3.52-.71-9.75-.17-11.85.1l-167.2,20c-5.48.76-21.41,4-28.3,9.68s-14.62,22.67-17.08,28.79l-153.1,345.69c-.12.27-4.59,9.37-5.5,16.15a15.81,15.81,0,0,0,1.57,9.6,4.57,4.57,0,0,1-3.83,7.08Z" fill="#571419"/><path d="M1743.4,1473.43c-11.74,0-24.73-3.49-25.3-3.64l-265.3-60.5c-.57-.12-15.65-3.36-25.7-9.17a42.46,42.46,0,0,1-15.44-15.21,4.58,4.58,0,1,1,8.09-4.28,33.75,33.75,0,0,0,11.94,11.57c8.77,5.08,22.93,8.12,23.07,8.15l265.56,60.56c.3.08,13.37,3.67,24,3.35a39.93,39.93,0,0,0,14.54-2.64c1.63-.57,3.32-1.15,5.31-1.64a4.58,4.58,0,1,1,2.16,8.9,43.37,43.37,0,0,0-4.45,1.38,49,49,0,0,1-17.37,3.15Z" fill="#571419"/><path d="M1764,1466a4.49,4.49,0,0,1-1-.11l-348-79.37a4.58,4.58,0,0,1-.11-8.9l268.25-67.7a106,106,0,0,1,28.09-4.74c15.57-.52,34.34,2.46,35.13,2.58l72.5,12.11a4.57,4.57,0,0,1-1.5,9l-72.48-12.1c-.16,0-18.68-2.94-33.34-2.47a97.28,97.28,0,0,0-25.6,4.32l-.38.11-250,63.08L1765,1457a4.57,4.57,0,0,1-1,9Z" fill="#571419"/><path d="M1772.06,1438.87a4.75,4.75,0,0,1-1-.11l-186.67-41.07a4.58,4.58,0,0,1-.32-8.86l184.67-54.95a4.14,4.14,0,0,1,1.82-.17l41.2,4.67a4.57,4.57,0,0,1,3.69,6.35l-39.2,91.37A4.59,4.59,0,0,1,1772.06,1438.87Zm-168.4-46.32L1769.35,1429l35.28-82.24-34.16-3.86Z" fill="#571419"/><path d="M847.71,1591.21s25.08-47.62,34.3-63.76c4.9-8.57-18.87-7-6.72-31.49,11.91-24,26.05-48.77,47.15-62.28,12-7.69,48.43-6.8,63.32-9.09,26.88-4.13,22.88,18.41,26.37,39.33.72,4.32-11.93,18.92-8.2,22.65,2,2,11.07,1.22,13.26-.15,12.92-8.07,8-35.18,9.39-47.67,1.84-16.58,28-42.22,28-42.22s47.64-2.94,66.17-4c33.08-1.83,62.83-6.3,96.15-6.3,12.13,0,99.46-5.48,99.46-5.48l13.4,20.36-16,67.95,8.09,1.78s13.24,22.7,13.3,36.15c.11,24.64-16.45,115.41-16.45,115.41s-52,6.78-80.74,5.58c-20.16-.84-47.15,3.84-68.25,3.84-18.61,0-52.29,1.83-52.29,1.83s-74.78.78-114.19,6.69c-14.91,2.23-83.32,3.67-83.32,3.67Z" fill="#a19692"/><path d="M920.15,1647.43a4.57,4.57,0,0,1-2.71-.88l-69.91-51.38a4.58,4.58,0,0,1-1.39-5.72l49.34-99.62a4.58,4.58,0,0,1,3.86-2.54l423-21.32a4.62,4.62,0,0,1,4.48,2.87l13.93,35a4.56,4.56,0,0,1,.27,2.37l-17.79,119.5a4.56,4.56,0,0,1-4.32,3.89l-398.58,17.86ZM856,1590.07l65.52,48.15,393.21-17.62,17-114.55-12.26-30.78-417.07,21Z" fill="#571419"/><path d="M739.87,1616.91a10.85,10.85,0,0,1-6.66-2.28c-.24-.18-.47-.38-.7-.58a12.19,12.19,0,0,1-7.44,1.66,14,14,0,0,1-8.91-4.15,9.73,9.73,0,0,1-8.28,2.24,14.15,14.15,0,0,1-8.93-6.22,10.11,10.11,0,0,1-7.15,2,13.17,13.17,0,0,1-8.15-4.43,13.12,13.12,0,0,1-13.23-.41,15.31,15.31,0,0,1-2.62-2.09,14.8,14.8,0,0,1-5.56,1.07,13.51,13.51,0,0,1-10.32-4.42,17.77,17.77,0,0,1-2.39-3.26c-2.41-.74-5.14-2.6-7.78-6.57a35.52,35.52,0,0,1-5.66-12.22,28.92,28.92,0,0,1-.84-12.66,36.38,36.38,0,0,1,1.61-5.68l.1-.29c1.56-4.52,4.82-7.23,8.88-7.52a13.41,13.41,0,0,1,2.71-5.88c4-4.63,8.46-5.42,11.44-5.2a14.06,14.06,0,0,1,3.51.68,11.15,11.15,0,0,1,6.87-5.46,18.25,18.25,0,0,1,10,.18,11,11,0,0,1,6.33-4.56,20.2,20.2,0,0,1,15.1,2,16.82,16.82,0,0,1,6.06-4.43,16.53,16.53,0,0,1,14.89.74c.23-.23.47-.46.71-.67a10.92,10.92,0,0,1,10.06-2.65,20.73,20.73,0,0,1,6.92,3,18.1,18.1,0,0,1,6.07-4c3.74-1.55,8.8-.37,13.14,1.92a12,12,0,0,1,4.5-1.44,22.53,22.53,0,0,1,13.72,2.52,14.42,14.42,0,0,1,8.57-3.73,16.24,16.24,0,0,1,7.29,1.33,14,14,0,0,1,10.4-3.09,13.82,13.82,0,0,1,5.09,1.79,19.84,19.84,0,0,1,14.3-3.31s.74.1,1.78.28a21.61,21.61,0,0,1,2.84-1.9l.61-.35c2.22-1.27,4.52-2.59,8.62-1.59a23.81,23.81,0,0,1,4.45,1.54c8.43-4.61,18.42.52,22.45,4.31,5.83,5.47,11.54,14.65,11.15,22.8a4.58,4.58,0,1,1-9.14-.45c.21-4.32-3.35-11.06-8.27-15.68-.06,0-3.67-3-7.57-3.55,2.78,4.28,4.08,9.75,3.62,16l0,.41c-.27,3.75-.75,10.5-5,13.47a6.7,6.7,0,0,1,3,.38c4.44,1.61,6.56,5.71,6.34,12.23a4.57,4.57,0,0,1,4.29,7.15c-3.07,4.41-6,6.19-8.5,6.69-2.39,3.92-5.62,7.57-8.89,9.3a10.26,10.26,0,0,1-9.42.42c-2,3.7-4.56,6.63-7.51,7.42a12.8,12.8,0,0,1-8-.29,17.84,17.84,0,0,1-5.36,5.64,11,11,0,0,1-11.2.35,12.35,12.35,0,0,1-1.48-.89,23.49,23.49,0,0,1-3.22,2.84c-5.08,3.71-9.32,2.26-11.39,1.07l-.64-.4a14.5,14.5,0,0,1-8.47,5.52,11.29,11.29,0,0,1-9.83-2.4,15.47,15.47,0,0,1-1.88-1.83,18.68,18.68,0,0,1-5.57,4.76,10.76,10.76,0,0,1-8.9.67,9.8,9.8,0,0,1-2.95-1.74,15.48,15.48,0,0,1-7,3.6A11.94,11.94,0,0,1,739.87,1616.91Zm-1.43-9.83.32.28a1.88,1.88,0,0,0,1.69.34,7.52,7.52,0,0,0,3.92-2.57,30.35,30.35,0,0,1-1.06-4c-1.26-6.47-.93-14.91,3.81-19.2a5.48,5.48,0,0,1,5.93-1c5.11,2.27,5.17,12.22,5.17,12.33a29,29,0,0,1-3.31,12.57,1.53,1.53,0,0,0,.54.44,1.62,1.62,0,0,0,1.5-.19c1.74-.91,3.57-3.27,5.12-6a27,27,0,0,1-1-7c0-3.49.68-11.72,6.49-12.72a6.13,6.13,0,0,1,5.65,1.85c2.91,3.16,2,8.87,1.18,12a43.4,43.4,0,0,1-2.36,6.47,9.79,9.79,0,0,0,2.41,3.43,2.25,2.25,0,0,0,2.13.56c2-.42,3.48-2.11,4.62-4.45a29,29,0,0,1-2.11-12.54c.3-3.37,1-7.25,3.86-9.24a6.15,6.15,0,0,1,5.24-.87c6.25,1.72,5.13,10,4.76,12.76a46.77,46.77,0,0,1-1.76,9.29,3.73,3.73,0,0,0,1,.94c.11.06.39.23,1.43-.53a13.62,13.62,0,0,0,3.21-3.32,32.34,32.34,0,0,1-1.16-11.26c.49-10,3.69-11.55,4.73-12.06a5.42,5.42,0,0,1,5.57.48c2,1.41,3.1,5.05,3.17,10.83a32.8,32.8,0,0,1-2,12,3.56,3.56,0,0,0,.79.58,1.87,1.87,0,0,0,2.19,0,11.43,11.43,0,0,0,3.48-4.54c-3.2-6.8-2.55-16.73.59-22a5.85,5.85,0,0,1,6.63-3c4.47,1.19,6,7.4,6,9.06a49,49,0,0,1-2.66,14.32,4.36,4.36,0,0,0,1.55-.11c1.12-.86,2.45-3.28,3.6-6.14a18.07,18.07,0,0,1-1.47-6.93c0-8.56,1.67-11,3.36-12.26a5.36,5.36,0,0,1,4.82-.85c2,.6,5.24,2.57,5.14,9.14a39.66,39.66,0,0,1-1.81,9.82,2.06,2.06,0,0,0,.31.23c.21.13.47.29,1.34-.17a15.72,15.72,0,0,0,4.62-4.81,18.25,18.25,0,0,1-3.17-9.26c-.25-2.71-.4-9.34,3.45-12.31l.09-.06a11.23,11.23,0,0,1-2.62,0,12.26,12.26,0,0,1-7.41-3.34c-3.19,7-8.62,6.54-10.23,6.23a9.91,9.91,0,0,1-6.8-4.75c-1.24,2.87-3.44,6.68-6.56,8.49a7.57,7.57,0,0,1-6.11.79,7.81,7.81,0,0,1-4.09-2.94,7.44,7.44,0,0,1-6.5,2.81c-4.46-.52-6.68-5.13-7.74-8.77-.57,3.06-1.67,5.72-3.71,7.55a8.21,8.21,0,0,1-6.72,2c-3.49-.44-5.7-4.18-7-7.75-1,4.76-3,7.55-6.3,8.47a7.2,7.2,0,0,1-5.77-.83c-3.94-2.45-5.44-8.43-5.9-10.88-.11-.56-2.18-11.93,1.18-20.36a6.77,6.77,0,0,0-3.65-.75,9.1,9.1,0,0,0-3.14,2.11,30.38,30.38,0,0,1,4.51,18.83c-.28,3.19-.77,8.61-4.19,11.71a5.15,5.15,0,0,1-5.18,1c-3.81-1.31-5.7-6.73-6.17-9.41-.77-4.39-2.3-13.18,0-20.83a11.84,11.84,0,0,0-4.36-2,1.93,1.93,0,0,0-1.93.57q-.15.13-.3.3a63.35,63.35,0,0,1,4.25,12.06c.25,1.35,2.27,13.33-2.47,18.92a7.36,7.36,0,0,1-5.81,2.72c-5.73-.09-9.42-5.53-9.86-14.56a45.12,45.12,0,0,1,2.71-17.73,7.45,7.45,0,0,0-6.6-.2,7.71,7.71,0,0,0-2.64,1.94A28.37,28.37,0,0,1,715,1556c0,1.49-1.08,11.75-7.4,13.31a7.8,7.8,0,0,1-6.69-1.39c-2.8-2.13-4.23-6-4.9-9,0,7.82-3.45,10.4-6.4,11.19a7.13,7.13,0,0,1-5.74-.88c-2.81-1.77-4.77-5.63-5.82-11.45a38.57,38.57,0,0,1-.73-13.73,9.1,9.1,0,0,0-4.61,0,2.52,2.52,0,0,0-1.44,1.48,27.83,27.83,0,0,1,3.59,4.31c2.25,3.33,4.74,10.86,2.94,16.48a9.36,9.36,0,0,1-5,5.78,6.72,6.72,0,0,1,2.91,1.42,9.31,9.31,0,0,1,2.94,6.11c.55-2.18,1.69-4.6,4.23-5.59a5.92,5.92,0,0,1,6.24,1.37c2.88,2.67,4.89,9.09,3.29,14.38-.21.69-.39,1.52-.59,2.4a38.5,38.5,0,0,1-1.77,6l.12.3a4,4,0,0,0,2.72,1.92,6.53,6.53,0,0,0,2.4-2,40.4,40.4,0,0,1-.66-4.1,47.64,47.64,0,0,1-.25-6.44c0-.68.25-6.68,4.15-9.14a6.42,6.42,0,0,1,6.14-.32c2.07,1,6.59,4.22,3.81,14.1a34.15,34.15,0,0,1-3.19,7.5c.92,2.29,2.33,4.29,4.47,4.73.52-.08,1.12-.64,1.74-1.52a45.15,45.15,0,0,1-1.77-12.94V1590c0-2.58-.11-6.9,2.84-9.58a6,6,0,0,1,6.19-1.24c4.39,1.65,6.16,8,6.26,8.9.37,3.2-.76,9.94-3.37,15.71a5.49,5.49,0,0,0,4.2,2.8,3.15,3.15,0,0,0,1.77-.28,36.43,36.43,0,0,1-2-9.33c-.71-11.21,2.11-17.81,7.94-18.58a6.33,6.33,0,0,1,5,1.52c2.55,2.22,3.11,6.1,3.12,9C741.79,1592.72,741.43,1600.77,738.44,1607.08Zm-63.8-10.52a6.28,6.28,0,0,0,.63.46c.55.35,1.92,1.19,4.49-.12-.16-.5-.31-1-.46-1.53a42.56,42.56,0,0,1-1.35-7.18c0-.16,0-.32,0-.48A29.66,29.66,0,0,1,674.64,1596.56Zm-15.41-2.9a4.11,4.11,0,0,0,2.9.95,5.48,5.48,0,0,0,.7,0,27.5,27.5,0,0,1-1.07-3.85A16.1,16.1,0,0,1,659.23,1593.66Zm166.28-2.58Zm-170.07-12.31c-.07.58-.14,1.23-.19,2a19.72,19.72,0,0,0,0,3,17.22,17.22,0,0,0,.94-2.72,16,16,0,0,0,.43-2.3c-.37,0-.7.07-1,.09Zm143.88,1Zm-153.93-17.48a26.67,26.67,0,0,0-1.12,3.9,19.75,19.75,0,0,0,.65,8.71,34.81,34.81,0,0,0,1.3,4,30.1,30.1,0,0,1,1.23-6.52A46.52,46.52,0,0,1,645.39,1562.27Zm17.35,5.51a12.06,12.06,0,0,1,2.93,6.48,10.06,10.06,0,0,1,2.67-1.61,5.79,5.79,0,0,1-1.25-.49c-3.22-1.69-4.24-5.71-4.74-7.64a48,48,0,0,1-1.33-14.86.31.31,0,0,0,0-.1,5.43,5.43,0,0,0-1.6-.37c-.88-.06-2.26.11-4,2.08a5.56,5.56,0,0,0-1,2.67c4,2.86,7.29,7.53,8,12.24C662.6,1566.74,662.68,1567.27,662.74,1567.78Zm42-17.55a41.83,41.83,0,0,0-.13,4.81,13.45,13.45,0,0,0,.72,3.52,11.67,11.67,0,0,0,.47-2.36A20.54,20.54,0,0,0,704.77,1550.23Zm19.75-.51a21.85,21.85,0,0,0-.08,4.29c0,.09,0,.31,0,.4a21.58,21.58,0,0,0,.37,3.12A29,29,0,0,0,724.52,1549.72Zm85-10.85a24.35,24.35,0,0,0-1.28,7.72,34.76,34.76,0,0,0,.63,8.28,17.48,17.48,0,0,0,2.27-4.72C811.74,1547.42,810.88,1542.73,809.48,1538.87Zm-30.87,3.85a14.61,14.61,0,0,0-.9,7.08,33.89,33.89,0,0,0,1.19,4.25,41.81,41.81,0,0,0,.35-7A16.11,16.11,0,0,0,778.61,1542.72Zm-17.61-.49a38.61,38.61,0,0,0,.4,10.57c.08.4.17.81.28,1.21a42.29,42.29,0,0,0,.08-6.26A38.93,38.93,0,0,0,761,1542.23Zm-72.7-2.1a24.5,24.5,0,0,1,7.17,12.85,39.94,39.94,0,0,1,1.86-12,11.13,11.13,0,0,0-8.28-1.21A2.1,2.1,0,0,0,688.3,1540.13Zm107.77,1.13a40.33,40.33,0,0,0,0,9.25c0,.36.11.78.2,1.2a37.79,37.79,0,0,0,.41-7.21A16,16,0,0,0,796.07,1541.26ZM828,1532c-2,3.51-2.73,8.39-2.31,14.6.13,1.93.56,4,1.38,4.57.5-.67,1.43-2.6,1.86-6.52A32.41,32.41,0,0,0,828,1532Zm14.3-1.38c-1.81,3.64-3,11.66-.85,15.74a3,3,0,0,0,2.45,1.89,22.6,22.6,0,0,0,1-6.19l0-.44C845.13,1538.56,844.89,1534.05,842.27,1530.61ZM768,1534.4a24.22,24.22,0,0,1,1.85,5.58,29.32,29.32,0,0,1,2.11-4.74A12.64,12.64,0,0,0,768,1534.4Zm16.62-.18a21.29,21.29,0,0,1,2.45,5,31.38,31.38,0,0,1,1.39-5.74,7.11,7.11,0,0,0-1.66-.12A4.58,4.58,0,0,0,784.65,1534.22Zm31.24-3.36a32.75,32.75,0,0,1,1.53,3.21,26.19,26.19,0,0,1,1.31-4.07A10,10,0,0,0,815.89,1530.86Zm-14.56.78c.27.37.54.74.79,1.13.21-.43.43-.85.66-1.27A5.32,5.32,0,0,0,801.33,1531.64Z" fill="#571419"/><path d="M879.61,1527.79c-4.23,0-9.83-2.66-13.44-14.73-4.77-15.92,49.27-79.91,53.19-82.17,13.83-8,76-16.21,83.67-7.14,3.12,3.69,7.67,14.36,8.17,15.57,5.93,14.07,7.55,34.26-5.71,48.75a4.58,4.58,0,1,1-6.75-6.18c10.34-11.3,8.86-27.56,4-39-2-4.8-5-10.91-6.51-12.94-7-3.39-57.94.78-72.14,8.78-7.43,6.11-51,62.36-49.18,71.76,1.88,6.26,4.09,8.17,4.7,8.17a.59.59,0,0,1,.23,0,4.57,4.57,0,0,1,.21,9.14Zm44.36-89,0,0Z" fill="#571419"/><path d="M914.38,1492.3a4.49,4.49,0,0,1-2.28-.61,4.58,4.58,0,0,1-1.68-6.25c1.68-2.92,6.14-9.83,11.17-11.13a6.87,6.87,0,0,1,5.32.73c3.51,2.11,7.19,6.91,7.42,12a4.57,4.57,0,1,1-9.14.42,7,7,0,0,0-2-3.77,29.28,29.28,0,0,0-4.85,6.32A4.55,4.55,0,0,1,914.38,1492.3Z" fill="#571419"/><path d="M1021,1485.41a4.72,4.72,0,0,1-.64-.05,4.56,4.56,0,0,1-3.9-5.16l6.94-50a4.58,4.58,0,0,1,.83-2.07l25.54-35a4.63,4.63,0,0,1,3.45-1.87l265.48-14.75a4.6,4.6,0,0,1,4.16,2.18l11.37,18.63a4.61,4.61,0,0,1,.52,3.57c-.16.57-15.45,57.53-17.22,64.62a4.58,4.58,0,0,1-8.88-2.23c1.63-6.5,14-52.71,16.75-62.87l-8.92-14.61-260.59,14.48-23.58,32.32-6.79,48.85A4.58,4.58,0,0,1,1021,1485.41Z" fill="#571419"/><path d="M1059.28,1417.08a4.57,4.57,0,0,1-.25-9.14l268.84-14.76a4.57,4.57,0,0,1,.5,9.13l-268.84,14.76Z" fill="#571419"/><path d="M921.23,1643.16H921a4.57,4.57,0,0,1-4.36-4.77l4.92-107.52-15-25.57a4.57,4.57,0,1,1,7.89-4.63l15.71,26.73a4.64,4.64,0,0,1,.62,2.53l-5,108.87A4.58,4.58,0,0,1,921.23,1643.16Z" fill="#571419"/><path d="M1723.57,1750.27l916.6-336.88L2639,1723.24Z" fill="#7d38ce"/><path d="M104.81,1474.85l54.44-13,880.45,197.48L2321,1277.2l318.8,10.22.41,125.87L1729.88,1750l-1622-3.25Z" fill="#7d38ce"/><path d="M1042.34,1660.51a5.23,5.23,0,0,1-1-.1L158.89,1468l-52,7.93a4.57,4.57,0,1,1-1.37-9l52.87-8.06a4.47,4.47,0,0,1,1.67.05l882.15,192.29L2317.6,1274a4.58,4.58,0,0,1,2.6,8.78l-1276.56,377.5A4.45,4.45,0,0,1,1042.34,1660.51Z" fill="#571419"/><path d="M1984.63,1740.42a4.57,4.57,0,0,1-1.65-8.84l653-252.3a4.58,4.58,0,0,1,3.3,8.54l-653,252.29A4.55,4.55,0,0,1,1984.63,1740.42Z" fill="#571419"/><path d="M1745.16,1748.87a4.58,4.58,0,0,1-1.59-8.87l887.05-328.62a4.58,4.58,0,0,1,3.19,8.58l-887.06,328.62A4.42,4.42,0,0,1,1745.16,1748.87Z" fill="#571419"/><path d="M2636.16,1292.27H2636l-317.4-9a4.56,4.56,0,0,1-4.44-4.7,4.48,4.48,0,0,1,4.7-4.44l317.4,9a4.58,4.58,0,0,1-.12,9.15Z" fill="#571419"/><path d="M1006.47,1755a4.48,4.48,0,0,1-1.71-.33,4.57,4.57,0,0,1-2.53-6l35.61-88.23a4.58,4.58,0,0,1,8.49,3.43l-35.61,88.22A4.59,4.59,0,0,1,1006.47,1755Z" fill="#571419"/><path d="M1465.49,1587.09c2.45-5.38-9,15.44-11.13,22.4-5.26,17.53-6.52,27.7,8.9,37.59,22,14.06,123.29,23.43,141.7-2.72,7.16-10.19,4-23.48.86-35-1.87-6.87,3.14-13.93-8.49-17.17-9.31-2.58-17.38,4.44-26.83,4.39-16.93-.12-57.1,2.18-57.1,2.18Z" fill="#9a6d53"/><path d="M1461,1583.17c-18.36-12.24,12.62-64.38,26.7-72,6.57-3.54,26.37-8.39,30.48-12.5,1.68-1.68-3.41-5.56-2.51-11.66,1.41-9.58,10-10.73,15.72-9.78s14.13,2.83,14.53,8.55c.47,6.87-8.82,10.86-4.13,13.67,7.9,4.74,18.3,6.85,26.68,10.57,12.39,5.51,40.71,61.12,31.63,72-10.84,13-62.79,20.91-79.3,18.16-11.4-1.9-44.15-7.49-44.15-7.49Z" fill="#ffca74"/><path d="M1530.32,1604.47c-46.65,0-73.72-19.43-74.86-20.27a3.47,3.47,0,0,1-.42-.34,17,17,0,0,1-4.44-14.55,16.25,16.25,0,0,1,5.38-10,10.18,10.18,0,0,0,1-1c.25-1.11.55-2.45.87-3.83,4.73-20.56,11.87-51.63,58.73-57.09a4.58,4.58,0,0,1,1.06,9.09c-40.45,4.71-46.23,29.85-50.87,50.06-.33,1.4-.64,2.77-1,4.09a10.67,10.67,0,0,1-3.44,5.28,7.23,7.23,0,0,0-2.7,4.83,8.05,8.05,0,0,0,1.49,6.36c3,2,28.91,18.79,71.23,18.28,48.15-.61,66.9-18.57,67.09-18.75h0s1.61-2.08.78-6.71c-.49-2.76-1.23-3.25-2.58-4.13a8.84,8.84,0,0,1-4.12-4.85c-.63-2-1.24-4.21-1.89-6.53-4.66-16.67-10.46-37.41-36.66-45.18-.76-.19-6.4-1.22-10.12-1.9l-1.48-.28a4.58,4.58,0,0,1,1.66-9l1.47.28c7.6,1.39,10.26,1.89,11,2.13,31.08,9.21,38.19,34.65,42.89,51.49.58,2.07,1.13,4,1.69,5.85.15.11.33.22.51.33,2.61,1.71,5.5,4,6.59,10.18,1.68,9.44-2.79,14.26-3.31,14.78-.83.84-21.14,20.77-73.44,21.45Z" fill="#571419"/><path d="M1533.45,1587.76c-33.91,0-60.31-10.62-64.52-12.42a4.57,4.57,0,0,1,3.58-8.42c6.06,2.58,60.8,24.54,114.92.8a4.57,4.57,0,1,1,3.67,8.38A142.94,142.94,0,0,1,1533.45,1587.76Z" fill="#571419"/><path d="M1531.39,1666h-.07c-52.5,0-81.36-21.67-82.56-22.59a4.59,4.59,0,0,1-1.77-3.16c-.09-.92-2.32-22.8,1.74-36.4,4.44-14.83,16-19.62,16.52-19.82a4.58,4.58,0,0,1,3.44,8.48c-.41.17-8.08,3.57-11.19,14-2.89,9.65-2,25.2-1.59,30.77,6.52,4.27,32.87,19.6,75.41,19.61h.07c51.38,0,68.44-15.47,71.91-19.34,0-4.85,0-20.21-1.65-30s-11.46-16-11.56-16a4.57,4.57,0,1,1,4.7-7.85c.55.32,13.44,8.18,15.88,22.31,2.16,12.51,1.77,32.38,1.76,33.22a4.56,4.56,0,0,1-.7,2.32C1611.11,1642.5,1595.7,1666,1531.39,1666Z" fill="#571419"/><path d="M1530.36,1512.81a20,20,0,1,1,20.26-20A20.13,20.13,0,0,1,1530.36,1512.81Zm0-30.75a10.8,10.8,0,1,0,11.11,10.8A11,11,0,0,0,1530.36,1482.06Z" fill="#571419"/><path d="M1094.51,247.4c-16.2-20.94-26.33-37.14-45.91-42.54-11.48-3.38-27-10.81-62.8-14.18-29.71-2.7-64.82,5.4-74.95,13.5-11.48,8.1-24.31,1.35-42.54,20.26S846,248.07,831.17,275.08c-8.1,14.18-13.5,20.26-14.17,36.46,0,16.21,14.85,31.06,14.85,31.06s-.68,6.76,8.78,35.79a384.11,384.11,0,0,0,20.93,51.32l222.83-42.54s22.28-22.28,31.06-41.86,6.07-27.69,6.07-27.69h23a50.17,50.17,0,0,1-19.58-16.2C1112.74,283.86,1101.27,256.17,1094.51,247.4Z" fill="#f4c04d" fill-rule="evenodd"/><path d="M1011.41,556s18.23,4,33.76-11.48c14.18-14.18,32.41-47.26,43.21-68.2s6.08-56.72,6.76-66.17c2-28.36,7.42-44.56,5.4-56.72-.68-2.7,0-9.45-7.43-25.66-8.1-16.2-14.18-20.26-20.26-23-25-12.15-50.64-7.42-57.39-.67-6.08,5.4-18.91,21.61-31.74,28.36a119.92,119.92,0,0,1-31.06,10.8A304.22,304.22,0,0,0,920.93,375c-6.76,7.42-16.21,42.54-16.21,42.54l-17.55-21.61s-11.48-3.38-19.58-4.05c-17.56-.68-20.26,14.18-20.94,20.93C844,447.24,879.06,458,879.06,458s-3,32-7.27,63.68c-1.63,12.28,11.57,29.95,11.57,29.95l36.26,34.69L964.77,614l20,2.81,16.61-14.07,4.64-13.07Z" fill="#ffe4ce" fill-rule="evenodd"/><path d="M749.74,1090c4.24-44.75,12.72-90.53,14.59-135.22.67-16-2.55-32.23,1-48.12,7.15-32.12,21.79-61.87,21.61-96.17-.1-18.61-3.78-37.58-3.57-56.59.42-37.79-26.14-93.36-45.8-117.38-7.25-8.85-31.06-18.65-29.81-18.53,11.64,1.11,29.48-14.11,49.48-22.76,36.37-15.73,76.61-30.21,76.61-30.21s68,80.71,82.67,116.47c5.66,13.76,23.29,35.77,23.29,35.77s19.57,21.42,25,33.35c3.35,7.39,39.56,45.75,46.39,44.9,18.08-2.26,19.88-34.45,23.46-47.42,10.05-36.49,21.34-64.7,19.77-102.88-.28-6.67-5.2-52.94-5.2-52.94s60.59,14.54,74.32,20.61c14.57,6.44,43,23,43,23s6,63.28,3.79,86.84c-3.87,40.82,6.57,75.33,7.55,116.1.5,20.63.58,55.81,1.63,76.19,2.86,55.36.8,99.89-2.83,155.63-1.77,27.2,1.56,55.17,1.26,82.32-.24,21,0,74.36,0,74.36s-58.61,13.65-81.37,16.5c-37.54,4.69-88.52,20.87-125.3,6.48-5.33-2.08-7.06-16.37-13.2-20.89-15.1-11.12-37.16-17.1-53.65-27.4Z" fill="#676767"/><path d="M862.49,514.45c-7.85,1.57-10.67,12.43-13.78,18.66-4,7.95-11.88,17.73-12.58,26.77-1.49,19.29,9.68,44.81,19.87,60.44,5,7.74,13.53,15,17,23.53,3.68,8.92,27,43.54,27,43.54s11.25-12,14-14.74c.35-.35,5.49,13.54,6.18,14.23,11.33,11.33,16.92,22.18,23.62,36.4,13.14,27.92,69.59,80.63,69.59,80.63s17.4-22.55,19.37-39.6c1.35-11.73,6.25-27.55,9.84-38.71,6.53-20.32,3.41-44,6.78-64.23.89-5.31,6.54,11.8,7.81,9.25,3.81-7.62,1.82-16.59-.27-31.46-2.78-19.74-7-46.09-11-56.56-2.62-7-3.31-20-9.27-25.23-7.38-6.46-20.5-4.73-23.85,1.26-5.38,9.61-1.51,30.85-5.69,37.12-4.4,6.6-10.7,15.48-18.11,19.19-7.83,3.92-33-.25-58.75-19.5-22.75-17-46.44-48.94-52.3-51.87Z" fill="#fff"/><path d="M952.14,631.68c-6.21-2.07,2.28,15.16,2.84,16.63,4.07,10.69,8.19,13.68,11.15,24.52,1,3.72,5.9,12.85,7.11,16.85,4.11,13.72-3.19,64.22-3.19,64.22s12.81,16.59,23.73,25.33c2.27,1.81,18.85,21.38,21.74,19.57,5.17-3.22,8.26-18.24,11.56-23.07,22.74-33.24-7.64-59.2-13.82-93.19-2.28-12.56,24.87-73.74-9.2-70.33-7.27.73-14.28,4.07-21.49,5.27-7.41,1.24-15.51.25-22.31,3.65Z" fill="#f4c04d"/><path d="M728.76,1390c-2.14,0-2-.5-2-2.53,0-16.55,2.06-32.51.5-49.07-2-21.39,3.94-45.37,6.07-66.77.42-4.13.81-19.42,5.06-22.26,3.17-2.11,39,10,42.49,11.13,37.62,12,68.52,26,109.26,27.82,24.21,1.1,51.73,1.44,74.36-8.09,11.7-4.93,16.44-29.72,27.92-32.85,33.15-9,43.12,4.71,85.07.27s61-18,82.77-18c3.32,0,13.6-7.38,15.86-3.64,4.57,7.62,3.6,30.83,2.35,39.56-1.93,13.52,1.37,28.4,5.56,41Z" fill="#5c5754"/><path d="M712.79,621.33c-10.29-7.86-50.14,32.12-54.92,39.25-25.53,38.11-39.35,93.64-42.32,139.42-2.2,34-5,58.33-7.9,92.39-4.61,53.51-6.53,127.66-6.53,127.66s3,55.41,3.41,58.1c7.5,44.8-3,67.26,26.89,96.63,11,10.84,38.08,31.4,49.72,41.8,18,16.13,40.44,22.81,60.39,34.16,24.78,14.09,47.69,31.8,76.17,41.59,23.59,8.1,36.17,22.52,56.8,33.21,11.09,5.75,24,16.74,36,19,8.87,1.7,26.69,9.9,36,5.33,21.19-10.35,50.42-62.05,46.58-93.94-.95-7.9-8.18-13.53-14-18.55-10.9-9.39-38.67-26.32-52.45-29-8.15-1.56-14.47-5.75-21.52-10.86-4.63-3.35-7.5-9-12.49-11.76-13-7.26-23.42-16.1-35.85-24.27s-21.59-16.44-32.64-24.88c-8.27-6.33-26.92-18.9-35.44-24.79-9.16-6.34-28.41-13.87-36.76-24.58-4.11-5.27-1.63-18.43-1.63-18.43s4.15-42,4.33-61.84a1318.72,1318.72,0,0,1,7.95-135.34c1.53-13.5,9.89,5,11.62-8.84,1.56-12.46,8.87-55,9.83-67.26,2.47-31.49.79-58.84-10.86-88.2-9.72-24.5-16.19-69.55-49.41-81Z" fill="#fff"/><path d="M1168.65,639.73c2,4.88-8,37.36-8.31,47.48-.74,25.11,4.79,41.46,6.87,66.41,2.3,27.62,9.25,54.19,10.09,82.17,1,33.19-2.29,66.31.72,99.47,2.47,27.15.81,67.13,2,94.33,1.66,36.41-4,66.94-1.53,103.24,2.31,34.77.67,28.26-2.26,71.65-.86,12.6,2.71,55.6,9.94,54.7,2.08-.27,19.57-3.91,30.68-6.21,16.14-3.35,36.29,1,36.67-1.25,3.13-18.74,4.93-57.85,2.53-82.11-1.76-17.82,3.56-34.11,2.66-48.38-1-16.74-3.19-35.11-2.63-51.64,1.18-34-4.15-62.23-9.39-95.76-8-51.3-19.09-94.2-26.16-146.09-2.93-21.49-6.85-51.15-10.61-72.51-3.87-21.9-2.65-26.85-9-48.44-2.91-9.91-9.59-42.6-17-50C1179.33,652.15,1167.59,637.08,1168.65,639.73Z" fill="#fff"/><path d="M963.42,1337.73c2.39-4.34,27.14-59.46,34.24-62.53,14.61-6.3,40.82.65,55.82,2.68,20,2.69,38-.26,57.66,4.17,9.22,2.09,32.34,7,41.28,9.53,12.78,3.55,17.64-17.54,28.39-23.62,3.43-1.93,3-7.65,7-9.4,17.41-7.61,43.45-8.86,60.77-4.58,6.53,1.62,7.94,10.34,12.58,16.33,3.49,4.5,10.51,6,13.44,9.9,14.17,18.84,30.8,35.48,36.2,55.78.71,2.69,1.58,5.74.71,8.5-2.85,9.06-13-.06-15.73,4-3.21,4.85,2.65,9.62-.21,12.87-6.34,7.22-13.65-2.71-18.52-1.29-5.13,1.5-18.38,6.36-25,.58-1.95-1.72-37.51-26.47-58.12-44-1.89-1.6-7.37-9.15-8.91-10.5-5.34-4.69,1.78-8.09.7-7.78-6.86,2,45.83,33.74,48.34,47.1,3.36,17.82-42.8,18.11-54.72,18.15-4.89,0-13,1.79-16.44-.08-3.8-2.09-5.68,8.14-10,8.31a451.7,451.7,0,0,1-52.49-1.06c-8.57-.7-17.89-.93-26.47-.79-19.87.34-51.73,3.83-67.21-7.79Z" fill="#ffe4ce"/><path d="M840.92,823.5l94.9-5.13L937.49,869l-94.89,5.14Z" fill="#fff"/><path d="M855.26,1316.19a4.49,4.49,0,0,1-2-.48c-51.14-25.57-219.41-112.5-237.94-157.89-32-78.51-22.82-348.94,27.59-478.69,21.51-55.37,100-83.89,163.07-106.81,9.25-3.36,18-6.54,26.15-9.65a4.57,4.57,0,1,1,3.27,8.54c-8.22,3.15-17,6.34-26.3,9.72-61.33,22.28-137.65,50-157.67,101.51C602.63,808,593,1079,623.75,1154.36c13.76,33.72,129.67,101.23,233.56,153.16a4.58,4.58,0,0,1-2,8.67Z" fill="#571419"/><path d="M750.38,1088.31h-.23a4.56,4.56,0,0,1-4.34-4.79c1.24-24.79,17.93-235.41,18.1-237.54a4.57,4.57,0,0,1,9.12.72c-.17,2.13-16.85,212.62-18.09,237.28A4.57,4.57,0,0,1,750.38,1088.31Z" fill="#571419"/><path d="M912.29,1207a4.59,4.59,0,0,1-2.65-.85c-21.64-15.39-42.74-31.42-63.14-46.92-48.75-37-90.85-69-117.71-75.22a4.57,4.57,0,0,1,2.07-8.91c28.77,6.65,71.59,39.18,121.18,76.85,20.34,15.45,41.38,31.44,62.9,46.74a4.58,4.58,0,0,1-2.65,8.31Z" fill="#571419"/><path d="M938.9,1356.58a4.58,4.58,0,0,1-.76-9.09c8.81-1.49,21.51-15,33.12-35.36,13.61-23.8,21.89-50.49,18.45-59.5a4.57,4.57,0,1,1,8.54-3.26c5.35,14-6.12,44.71-19,67.31-6.31,11-22.8,37-39.55,39.83A3.91,3.91,0,0,1,938.9,1356.58Z" fill="#571419"/><path d="M857.33,1315.45a4.57,4.57,0,0,1-1.19-9c10.68-2.91,38.15-45.46,49.81-77.18,6.83-18.58,4.24-22.69,4.13-22.86a4.58,4.58,0,1,1,7.55-5.17c3.67,5.36,2.66,15.56-3.09,31.19-10.87,29.55-39.81,78.44-56,82.85A4.63,4.63,0,0,1,857.33,1315.45Z" fill="#571419"/><path d="M1252.44,1257.5a4.48,4.48,0,0,1-2-.48,4.58,4.58,0,0,1-2.06-6.13c7.43-15,5.18-50,4-68.87-.39-6.12-.7-11-.63-13.76,2.55-100.83-.45-151.18-24.15-269.67-2.48-12.4-5.65-35.07-9.32-61.32-5.45-39-12.24-87.61-20-126.15-6.15-30.44-15.49-64.26-48.71-80.3-18.57-9-71.35-30.46-101.83-38.63a4.57,4.57,0,1,1,2.37-8.83c31,8.3,84.59,30.11,103.44,39.22,40.1,19.36,48.94,63.19,53.7,86.73,7.83,38.81,14.64,87.54,20.12,126.69,3.65,26.11,6.8,48.66,9.22,60.79,23.88,119.36,26.9,170.09,24.33,271.71-.07,2.39.25,7.28.61,12.94,1.35,21.08,3.62,56.37-4.91,73.52A4.57,4.57,0,0,1,1252.44,1257.5Z" fill="#571419"/><path d="M1179.11,1176.89a4.58,4.58,0,0,1-.95-9.05c15.72-3.32,46.87-8,78.9-2.11a4.58,4.58,0,0,1-1.67,9c-30.48-5.64-60.28-1.13-75.33,2.07A5.17,5.17,0,0,1,1179.11,1176.89Z" fill="#571419"/><path d="M1181.32,1266.74a4.53,4.53,0,0,1-3.22-7.76c8.52-8.16,64.42-11.72,74.88-7.92a4.58,4.58,0,1,1-3.13,8.6c-9.23-3.36-60,1.26-65.44,5.94A4.73,4.73,0,0,1,1181.32,1266.74Z" fill="#571419"/><path d="M767.33,889.59a4.49,4.49,0,0,1-1.91-.42,4.57,4.57,0,0,1-2.25-6.06c25.38-55.48,20.33-162.24-10.4-219.68-12-22.5-27.29-35.82-44.09-38.51a4.58,4.58,0,0,1,1.45-9c19.73,3.17,37.26,18.12,50.71,43.23,31.83,59.5,37,170.21,10.65,227.81A4.58,4.58,0,0,1,767.33,889.59Z" fill="#571419"/><path d="M1014.74,805.49a4.51,4.51,0,0,1-2.71-.89c-2.44-1.79-60.17-45-102.27-130.91a4.57,4.57,0,1,1,8.21-4c34.8,71,81.65,113,95.49,124.38,7.37-13.44,28.46-58.07,31.35-132.42a4.57,4.57,0,1,1,9.14.35c-3.59,92.68-34.1,139.53-35.4,141.47a4.5,4.5,0,0,1-3,2A4.15,4.15,0,0,1,1014.74,805.49Z" fill="#571419"/><path d="M1182.53,1262.56a4.57,4.57,0,0,1-4.48-3.7c-3.47-17.75-5.32-31.85-5.17-55.51.38-59.71.91-108.83,1.33-148.29,1.5-139.42,2-181.49-8.08-265.09-1.67-14-3.27-25.47-4.67-35.63-5.56-40.13-8.09-58.45-.83-116.37a4.61,4.61,0,0,1,5.11-4,4.56,4.56,0,0,1,4,5.1c-7.11,56.73-4.63,74.67.81,114,1.41,10.21,3,21.77,4.7,35.8,10.1,84.19,9.65,126.41,8.14,266.28-.42,39.45-.95,88.56-1.33,148.25-.14,22.88,1.65,36.53,5,53.7a4.59,4.59,0,0,1-3.62,5.37A5.24,5.24,0,0,1,1182.53,1262.56Z" fill="#571419"/><path d="M1023.65,1249.84h-.17a4.58,4.58,0,0,1-4.41-4.74c.14-3.67,13.18-367.5-9.27-442.57a4.57,4.57,0,1,1,8.76-2.62c22.89,76.5,10.21,430.49,9.66,445.52A4.58,4.58,0,0,1,1023.65,1249.84Z" fill="#571419"/><path d="M980.7,690.79a12.85,12.85,0,0,1-8.6-3c-15-12.58-24.25-40.72-27.06-53.84A4.57,4.57,0,1,1,954,632c3.63,16.91,13.28,39.74,24,48.76,2.11,1.76,5.9.66,11.9-1.38,5.61-1.91,12-4.06,18.56-2.92,3.72-3.47,6.68-27,6.4-51.15a4.58,4.58,0,0,1,4.52-4.63h.06a4.58,4.58,0,0,1,4.57,4.53c.14,11.66-.18,50.35-9.91,58.46a8.18,8.18,0,0,1-6.92,1.85c-4.41-.85-9.45.86-14.34,2.52C988.93,689.36,984.74,690.79,980.7,690.79Z" fill="#571419"/><path d="M970.06,759.13a4.57,4.57,0,0,1-4.58-4.57c0-6.93,3.45-59.33,8.8-68.24a4.57,4.57,0,1,1,7.84,4.71c-3.33,5.55-7.49,51.75-7.49,63.53A4.56,4.56,0,0,1,970.06,759.13Z" fill="#571419"/><path d="M1036.5,748a4.58,4.58,0,0,1-4.39-3.29c-.13-.44-12.95-43.78-26-59.71a4.57,4.57,0,1,1,7.08-5.79c14.19,17.36,27.11,61.07,27.66,62.92a4.58,4.58,0,0,1-3.11,5.68A4.41,4.41,0,0,1,1036.5,748Z" fill="#571419"/><path d="M1057.82,678.14a4.55,4.55,0,0,1-4-2.3c-11.49-20-35.4-61.74-60.51-57.85a4.58,4.58,0,1,1-1.4-9c31.32-4.86,57.34,40.54,69.84,62.35a4.57,4.57,0,0,1-4,6.85Z" fill="#571419"/><path d="M900.31,692.73h-.23a4.57,4.57,0,0,1-4.34-4.79c.39-8,53.87-71.94,74.13-76.39a4.58,4.58,0,0,1,2,8.94c-16.58,3.64-63.72,60.69-67,68.55A4.58,4.58,0,0,1,900.31,692.73Zm4.57-4.35Z" fill="#571419"/><path d="M1058.16,678.23a4.58,4.58,0,0,1-4.54-4.1c-2.81-26.71-8.41-78.79-9.52-84.71l-.23-1.28c-4.14-23.88-11.28-29.86-16.54-30.68a4.57,4.57,0,0,1,1.4-9c18,2.79,22.64,29.41,24.16,38.16l.2,1.15c1.46,7.76,9.3,82.28,9.63,85.45a4.59,4.59,0,0,1-4.07,5Z" fill="#571419"/><path d="M980.89,621.2c-40.37,0-97.46-61.05-101.65-67-14.57-20.65-18.9-37.88-12.51-49.84a4.58,4.58,0,0,1,8.07,4.32c-4.58,8.57-.35,22.86,11.92,40.24,6.2,8.79,66.2,69.64,99.6,62.57a4.57,4.57,0,0,1,1.9,9A34.79,34.79,0,0,1,980.89,621.2Z" fill="#571419"/><path d="M899.68,691.83a4.59,4.59,0,0,1-4.1-2.53c-7.91-15.84-15.82-27.91-25.84-43.2-3.42-5.22-7-10.73-10.91-16.81L856.69,626c-9.41-14.64-23.63-36.78-26-53.88-1.3-9.43,3.4-20.79,7.17-29.91.68-1.65,1.32-3.22,1.9-4.68,1.48-3.8,15.11-37.12,35.23-37.12a4.57,4.57,0,1,1,0,9.14c-10.53,0-22,19.21-26.71,31.32-.59,1.51-1.26,3.13-2,4.83-3.35,8.11-7.52,18.2-6.56,25.18,2.07,15.09,15.63,36.21,24.61,50.18l2.15,3.36c3.85,6,7.45,11.53,10.85,16.72,9.78,14.91,18.22,27.8,26.38,44.11a4.58,4.58,0,0,1-2,6.14A4.5,4.5,0,0,1,899.68,691.83Z" fill="#571419"/><path d="M727.45,1398a4.58,4.58,0,0,1-4.56-4.33c-2.51-45.24.13-103.24,6.57-144.31a4.57,4.57,0,0,1,9,1.41c-6.36,40.51-9,97.73-6.47,142.4a4.57,4.57,0,0,1-4.32,4.82Z" fill="#571419"/><path d="M1035.34,1252.54c-17.23,0-32.64-1-44.45-2.65a4.57,4.57,0,1,1,1.3-9.05c43.08,6.2,133.13,1.48,182-20.32a4.57,4.57,0,0,1,3.73,8.35C1139.87,1245.84,1081.18,1252.54,1035.34,1252.54Z" fill="#571419"/><path d="M1203.67,1323.93a4.57,4.57,0,0,1-4.45-3.55l-.29-1.25c-1.43-6.33-2.48-10.93-9.74-17.46a13,13,0,0,0-3.61,3.95,4.57,4.57,0,1,1-7.85-4.7c.75-1.26,4.78-7.57,10.36-8.42a8.46,8.46,0,0,1,7,2.14c9.65,8.59,11.25,15.65,12.8,22.47l.27,1.22a4.59,4.59,0,0,1-4.46,5.6Z" fill="#571519"/><path d="M1241.67,1351.47a4.57,4.57,0,0,1-4.54-4c-.45-3.86-2.54-9-4.75-14.42-2.62-6.46-5.6-13.78-6.9-21.42a4.58,4.58,0,1,1,9-1.54c1.13,6.66,3.79,13.2,6.36,19.52,2.45,6,4.76,11.7,5.36,16.8a4.58,4.58,0,0,1-4,5.08A5.06,5.06,0,0,1,1241.67,1351.47Z" fill="#571519"/><path d="M1271.26,1366.17l-.42,0a4.58,4.58,0,0,1-4.14-5c.49-5.25-3.65-16.54-5.42-21.36-.42-1.15-.77-2.08-1-2.73a81.36,81.36,0,0,0-3.83-9c-2.53-5.35-5.14-10.89-6-17.63a4.58,4.58,0,0,1,9.09-1.1c.64,5.27,2.83,9.92,5.14,14.82a90.08,90.08,0,0,1,4.24,10c.2.58.51,1.43.89,2.48,2.32,6.3,6.63,18,6,25.36A4.57,4.57,0,0,1,1271.26,1366.17Z" fill="#571519"/><path d="M1287.46,1370.2c-4.8,0-10.67-2.16-17.74-6.49a4.57,4.57,0,1,1,4.78-7.8c10.65,6.53,14.23,5.07,14.84,4.72,1-.57,1.27-2.18,1.23-3.38-.11-2.9-2.54-8-4.49-12a71,71,0,0,1-3.59-8.31c-2.46-7.61-3.51-9.75-9.33-21.62l-2.69-5.49a4.58,4.58,0,1,1,8.22-4l2.69,5.48c5.78,11.8,7.16,14.61,9.82,22.84a62.36,62.36,0,0,0,3.13,7.16c2.56,5.34,5.2,10.85,5.38,15.64.19,5.06-2,9.4-5.74,11.62A12.6,12.6,0,0,1,1287.46,1370.2Z" fill="#571519"/><path d="M1302,1351.77c-7.57,0-13.22-5.91-15.36-8.14-.23-.24-.41-.44-.54-.56a4.63,4.63,0,0,1-.37-6.43,4.5,4.5,0,0,1,6.31-.53c.27.23.69.64,1.21,1.19,3.18,3.32,7,6.5,11.11,4.82.62-.24.87-.47.89-.55.71-2.12-3.66-9.36-6.55-14.16-.94-1.56-1.9-3.15-2.84-4.77-1.35-2.34-2.84-5.35-4.42-8.55-3.09-6.24-6.93-14-10.19-17.28s-6.75-6.44-10-9.41c-8.75-7.93-17-15.41-23.47-27.31a4.58,4.58,0,1,1,8-4.37c5.72,10.53,13.07,17.19,21.57,24.9,3.36,3,6.84,6.19,10.37,9.73,4.31,4.33,8.34,12.49,11.9,19.68,1.51,3.06,2.94,6,4.14,8,.91,1.57,1.85,3.13,2.76,4.64,5.06,8.4,9.43,15.65,7.39,21.77a10,10,0,0,1-6.13,6.14A15.15,15.15,0,0,1,1302,1351.77Z" fill="#571519"/><path d="M1263.71,1371a26.39,26.39,0,0,1-14.16-4.79c-8.38-6-13.27-18.7-14.39-25.32a4.57,4.57,0,0,1,9-1.52c.79,4.67,4.73,15.15,10.69,19.4,2.59,1.85,7.17,3.5,9.87,3a2.08,2.08,0,0,0,1.54-.9,4.57,4.57,0,0,1,7.63,5,11.2,11.2,0,0,1-7.5,4.85A15,15,0,0,1,1263.71,1371Z" fill="#571519"/><path d="M1032.88,1374.26a4.25,4.25,0,0,1-.8-.07c-28.23-5-53.25-13.94-76.49-27.33a4.58,4.58,0,1,1,4.57-7.93c22.3,12.85,46.35,21.44,73.51,26.25a4.57,4.57,0,0,1-.79,9.08Z" fill="#571519"/><path d="M1146.12,1377.86a4.57,4.57,0,0,1-.5-9.12c8.23-.92,10.83-4.45,11.43-5.51a2.55,2.55,0,0,0,.45-1.78c-7.15-3.93-24-7.16-36.25-9.51l-3.58-.69c-4.05-.79-9.11-1.59-14.48-2.44-11.42-1.81-23.24-3.69-28.71-5.94a4.57,4.57,0,1,1,3.48-8.46c4.49,1.85,16.27,3.71,26.67,5.36,5.44.87,10.58,1.68,14.78,2.49l3.57.69c13.6,2.62,30.54,5.86,39,10.59a9.42,9.42,0,0,1,4.43,10.37c-1.11,5.52-7,12.48-19.83,13.92Z" fill="#571519"/><path d="M1199.82,1352.54a4.59,4.59,0,0,1-2.79-1c-3.41-2.35-34.61-13.28-53.14-18.89-9.44-2.86-21.58-5.48-33.32-8-6.57-1.42-12.78-2.76-18.17-4.07a4.57,4.57,0,1,1,2.16-8.89c5.28,1.28,11.43,2.61,17.94,4,11.92,2.57,24.24,5.23,34,8.2,11.76,3.56,51,16.47,56.08,20.4a4.58,4.58,0,0,1-2.8,8.2Z" fill="#571519"/><path d="M1223.82,1352.52a4.54,4.54,0,0,1-3.58-1.73c-8.35-10.51-38.51-25.79-68.67-34.8-17-5.1-45.33-12.89-45.61-13a4.58,4.58,0,1,1,2.43-8.83c.28.08,28.66,7.9,45.8,13,28.09,8.4,62.26,24.1,73.21,37.88a4.58,4.58,0,0,1-.74,6.43A4.53,4.53,0,0,1,1223.82,1352.52Z" fill="#571519"/><path d="M1226.84,1357a4.57,4.57,0,0,1-.17-9.14c2.42-.1,3.1-.65,3.1-.66.18-1.36-3.79-8.12-12.87-13.92-2-1.29-4.2-2.74-6.55-4.29-11.41-7.58-27-18-48.67-26-29.82-11.06-67.15-17.11-84.14-17.88-19.13-.87-39.38-2-58.1-4.87-4.45-.69-14.44-2.11-20.4-3-1.49-.21-2.81-.4-3.94-.63l-.66,0,0-.12c-3-.7-4.46-1.88-4.05-5a4.58,4.58,0,0,1,5.09-4l.32,0,4.51.65c6,.85,16,2.28,20.51,3,18.27,2.84,38.24,3.91,57.12,4.77,17.58.79,56.16,7,86.9,18.44,22.63,8.39,38.77,19.1,50.55,26.92,2.3,1.53,4.43,2.94,6.41,4.21,9.54,6.08,18.81,16.27,16.65,24.25-.68,2.54-3.08,6.85-11.44,7.18Z" fill="#571519"/><path d="M840.73,877.79a4.59,4.59,0,0,1-4.57-4.38L834,823a4.58,4.58,0,0,1,4.35-4.77l97.85-4.68a4.47,4.47,0,0,1,3.31,1.19,4.52,4.52,0,0,1,1.48,3.17l2.21,50.39a4.58,4.58,0,0,1-4.36,4.77L841,877.78Zm2.57-50.61,1.8,41.24,88.72-4.24L932,822.93Z" fill="#571519"/><path d="M1155.83,1297.4a4.58,4.58,0,0,1-3.52-7.49c27.83-33.63,28.57-33.52,31.7-33a4.71,4.71,0,0,1,3.59,2.85,4.59,4.59,0,0,1-2.22,5.81c-2.93,2.76-15.22,17.16-26,30.21A4.59,4.59,0,0,1,1155.83,1297.4Z" fill="#571419"/><path d="M993.87,1255.91a4.57,4.57,0,0,1-4.49-3.71c-3.87-7.55-56.38-39.6-74.28-43.71a4.58,4.58,0,1,1,2-8.92c16.59,3.81,80,38.8,81.28,51.31a4.58,4.58,0,0,1-4.1,5A3.62,3.62,0,0,1,993.87,1255.91Zm-4.43-3.58h0Z" fill="#571519"/><path d="M937.5,1356.77a4.54,4.54,0,0,1-1-.1c-25.08-5.38-78.41-31-83.6-42a4.57,4.57,0,0,1,8.27-3.91c3.31,6,50,31.13,77.25,37a4.58,4.58,0,0,1-1,9Z" fill="#571519"/><path d="M1139.24,1378.27c-7.54,0-16.55-.83-24.21-1.53-4.18-.38-7.79-.71-10.45-.84-3.09-.16-8.33-.11-15,0-15.2.14-38.15.36-57.49-1.87a4.58,4.58,0,1,1,1.05-9.09c18.77,2.17,41.38,1.94,56.35,1.81,6.79-.07,12.15-.12,15.52,0,2.85.14,6.54.48,10.82.87,9.72.89,23,2.11,30.26,1.12a4.58,4.58,0,0,1,1.24,9.07A62,62,0,0,1,1139.24,1378.27Z" fill="#571519"/><path d="M1183.75,1368.79c-6,0-11.44-.89-19.89-2.66a4.58,4.58,0,1,1,1.88-9c12.78,2.69,17.53,3.15,29,1.57,3.69-.51,7.1-2.38,7.59-3.38,0,0-.68-1.2-3.84-3.12a4.57,4.57,0,1,1,4.75-7.81c7.86,4.78,8.72,9.61,8,12.81-1.43,6.89-10.64,9.92-15.3,10.56A88.94,88.94,0,0,1,1183.75,1368.79Z" fill="#571519"/><path d="M1206.24,1365.64c-.57,0-1.08,0-1.51-.06a4.59,4.59,0,0,1-4.1-5,4.54,4.54,0,0,1,5-4.1c3.84.37,12.63-1.76,14.51-4.54.18-.26.31-.46-.12-1.29a4.58,4.58,0,0,1,8.12-4.23,10,10,0,0,1-.42,10.65C1223.36,1363.51,1211.79,1365.64,1206.24,1365.64Z" fill="#571519"/><path d="M988,620.14a4.57,4.57,0,0,1-1.82-8.77c12.1-5.27,21.47-23.53,22.35-33.29.28-3.05.2-5.69-1.06-11.64a4.58,4.58,0,0,1,9-1.89c1.3,6.19,1.62,10,1.22,14.36-1.14,12.49-12.27,34.07-27.82,40.85A4.76,4.76,0,0,1,988,620.14Z" fill="#571419"/><path d="M1017.38,558.68c-14.22,0-41.42-5.86-76.68-28.13-22.89-14.56-38.57-38.86-39.22-39.89a4.58,4.58,0,0,1,7.71-4.93c.15.24,15.28,23.65,36.41,37.1,39,24.63,67,28,76.43,26.36,11.5-1.81,28.8-18.16,42.14-39.76,10.26-16.9,18.77-39.05,21.66-56.42,1.74-9.57,1.74-20.6,1.74-32.27,0-5.83,0-11.86.23-17.79,0-8.31,1.7-18.57,3.2-27.62.6-3.62,1.17-7,1.56-9.95,2-16.28-1.44-47.76-27.4-62.25a4.58,4.58,0,1,1,4.46-8c37.2,20.77,32.66,66.29,32,71.41-.41,3.06-1,6.55-1.61,10.28-1.45,8.7-3.09,18.57-3.09,26.29-.22,5.94-.22,11.88-.22,17.62,0,12.1,0,23.53-1.87,33.84-3.06,18.36-12,41.79-22.88,59.63-15.12,24.48-34.13,41.75-48.44,44A36.17,36.17,0,0,1,1017.38,558.68Z" fill="#571519"/><path d="M1010,594.51a3.15,3.15,0,0,1-.44,0,4.57,4.57,0,0,1-4.12-5c.24-2.49.41-5.43.6-8.64a203.13,203.13,0,0,1,2.48-24.42,4.58,4.58,0,1,1,9,1.65,193.35,193.35,0,0,0-2.35,23.31c-.19,3.34-.37,6.39-.62,9A4.59,4.59,0,0,1,1010,594.51Z" fill="#571519"/><path d="M1030.25,452.26a4.58,4.58,0,0,1-2-8.67c2.84-1.43,11-6.75,11-12.11,0-1.64-.79-2.63-3-5-3.08-3.3-7.3-7.83-7.76-17,0-4.89,1.57-11.78,5-21.94a4.58,4.58,0,0,1,8.68,2.9c-3,8.94-4.5,15.27-4.5,18.81.29,5.62,2.62,8.11,5.31,11,2.45,2.62,5.5,5.88,5.5,11.28,0,11.93-14.39,19.48-16,20.3A4.56,4.56,0,0,1,1030.25,452.26Z" fill="#571519"/><path d="M1076.16,399.75c0-7.43-3.37-14.19-8.77-14.19-4.73,0-9.45,5.41-9.45,13.51,0,7.42,3.37,14.18,8.77,14.18C1071.44,413.25,1076.16,407.17,1076.16,399.75Z" fill="#571519" fill-rule="evenodd"/><path d="M1085.61,356.38a4.57,4.57,0,0,1-2.62-.83c-.44-.3-11.69-7.73-27.12-.3a4.57,4.57,0,1,1-4-8.24c20.41-9.83,35.7.6,36.34,1a4.58,4.58,0,0,1-2.63,8.33Z" fill="#571519"/><path d="M1055.24,396.22a4.58,4.58,0,0,1-1.87-8.76c13.07-5.8,23.73-5.61,31.68.57a4.57,4.57,0,0,1-5.61,7.22c-5.09-3.95-12.6-3.76-22.35.57A4.5,4.5,0,0,1,1055.24,396.22Z" fill="#571519"/><path d="M974.21,399.07c0-7.43,4-13.5,9.45-14.18,5.4,0,10.13,5.4,10.13,13.5,0,7.43-4,13.51-9.45,14.18C979.61,412.57,974.88,406.49,974.21,399.07Z" fill="#571519" fill-rule="evenodd"/><path d="M958.68,358.4a4.58,4.58,0,0,1-2-8.67c1.25-.62,31-15.22,49.15-3.08a4.57,4.57,0,1,1-5.08,7.61c-11.48-7.66-32.75,0-40,3.66A4.52,4.52,0,0,1,958.68,358.4Z" fill="#571519"/><path d="M966.78,397.57a4.58,4.58,0,0,1-2.81-8.19c7.75-6,26.11-9.6,36.12-1.25a4.58,4.58,0,1,1-5.86,7c-6.24-5.21-20.09-2.1-24.64,1.44A4.58,4.58,0,0,1,966.78,397.57Z" fill="#571519"/><path d="M871.36,528.8a4.44,4.44,0,0,1-1.47-.24,4.58,4.58,0,0,1-2.86-5.8c1.83-5.42,4.44-18.77,6.42-51.53a4.58,4.58,0,0,1,9.14.55c-1.65,27.12-4,45.26-6.9,53.91A4.56,4.56,0,0,1,871.36,528.8Z" fill="#571519"/><path d="M880.35,461.72a4.56,4.56,0,0,1-1-.11c-22.33-4.78-33.9-23.08-37.27-38.61-3-13.68.27-25.87,8.86-32.57s21.4-6.88,34.79-.18a4.58,4.58,0,1,1-4.09,8.19c-10.11-5.06-19.24-5.35-25.07-.8s-7.82,13.22-5.56,23.39c2.78,12.77,12.18,27.76,30.26,31.64a4.58,4.58,0,0,1-1,9.05Z" fill="#571519"/><path d="M873.6,427.28a4.57,4.57,0,0,1-3.92-2.22c-1.22-2-4.09-5.38-6.64-6a4.58,4.58,0,0,1,2.21-8.88c7,1.76,11.75,9.33,12.27,10.19a4.57,4.57,0,0,1-3.92,6.93Z" fill="#571519"/><path d="M1022.71,492c-12.33,0-25.22-3.64-34.64-11.88a4.57,4.57,0,1,1,6-6.88c15.13,13.23,39.56,10.91,50.68,4.25a4.57,4.57,0,1,1,4.7,7.84C1042.37,489.64,1032.72,492,1022.71,492Z" fill="#571519"/><path d="M1133.87,325.65a37.43,37.43,0,0,1-11.89-1.92,4.58,4.58,0,0,1,2.9-8.68,28.39,28.39,0,0,0,9.69,1.42c-7.27-4.69-16-13.41-23.4-29.61-13.71-29.3-29.1-59-52.76-72.18C1029,198.25,963.91,188.5,932.58,201c-8.44,3.36-13.64,8-15.46,13.8a4.57,4.57,0,1,1-8.73-2.74c2.69-8.56,9.69-15.14,20.81-19.56,34.07-13.54,102-3.49,133.67,14.24,26,14.46,42.24,45.64,56.6,76.33,13.28,29,30.13,29.77,30.3,29.77a4.58,4.58,0,0,1,2.22,8.58A40.32,40.32,0,0,1,1133.87,325.65Z" fill="#571519"/><path d="M943.48,345a127.58,127.58,0,0,1-32-4.3,4.58,4.58,0,0,1,1.44-9c1.41.06,35.52.75,55.4-30.31a4.57,4.57,0,0,1,7.7,4.94,73,73,0,0,1-36.19,29.4c8.25.31,17.33-.33,25.45-3.11,18.48-6.16,28.64-19,38.25-32.73,1.4-1.78,2.64-3.47,3.91-5.18,6.23-8.45,13.44-18,22.86-17.84,6.1.13,11.73,4.14,17.23,12.27a4.58,4.58,0,1,1-7.58,5.13c-2.51-3.72-6.27-8.17-9.84-8.25-4.8-.2-10.39,7.46-15.31,14.12-1.33,1.8-2.63,3.57-3.93,5.21-10.37,14.83-21.57,28.91-42.66,35.94A76.88,76.88,0,0,1,943.48,345Z" fill="#571519"/><path d="M1093.72,391.49a4.48,4.48,0,0,1-1.29-.19,4.58,4.58,0,0,1-3.1-5.68c2.42-8.23,7.81-15.26,13-22.06,10.81-14.1,21-27.41,11.39-53.38a4.58,4.58,0,0,1,8.58-3.19c11.39,30.71-2,48.14-12.71,62.14-4.91,6.42-9.56,12.47-11.5,19.08A4.58,4.58,0,0,1,1093.72,391.49Z" fill="#571519"/><path d="M895.88,380a4.57,4.57,0,0,1-3.43-7.59c7.36-8.38,15.47-11.3,23.3-14.13,9.38-3.39,19.08-6.89,29.93-20.18a4.57,4.57,0,0,1,7.09,5.78c-12.45,15.26-23.85,19.37-33.91,23-7.37,2.66-13.73,5-19.55,11.57A4.53,4.53,0,0,1,895.88,380Z" fill="#571519"/><path d="M904,421.2a4.59,4.59,0,0,1-1.7-.33c-.79-.32-19.59-8.11-21.09-33a4.57,4.57,0,0,1,9.13-.56c.63,10.45,5.1,16.94,9,20.69.45-8.94,2.52-22.83,10.33-33.86a4.58,4.58,0,0,1,7.47,5.29c-10.35,14.6-8.65,36.59-8.63,36.81a4.58,4.58,0,0,1-4.56,5Z" fill="#571519"/><path d="M941,298.32a60.16,60.16,0,0,1-13-1.47,4.58,4.58,0,0,1,2-8.94c27.38,6,44.83-11.47,60.21-26.92,9-9,16.68-16.76,25.48-19,23.68-5.53,37.75,24.2,38.34,25.47a4.58,4.58,0,0,1-8.3,3.86h0c-.11-.25-11.5-24.26-27.9-20.44-6.25,1.57-13.48,8.83-21.14,16.53C982.74,281.42,965.91,298.32,941,298.32Z" fill="#571519"/><path d="M1071.44,275.35a4.66,4.66,0,0,1-1.67-.31,4.58,4.58,0,0,1-2.59-5.93c2.49-6.39,2.33-12.11-.49-17.5-6.39-12.2-25.11-19.48-34.12-21.63a4.57,4.57,0,1,1,2.12-8.89c3.08.73,30.37,7.7,40.11,26.28,4.06,7.75,4.36,16.19.9,25.07A4.57,4.57,0,0,1,1071.44,275.35Z" fill="#571519"/><path d="M849.29,399.59a4.55,4.55,0,0,1-4-2.3c-8.12-14.21-16.81-40.49-16.81-57a4.58,4.58,0,1,1,9.15,0c0,13.14,7.43,38.13,15.6,52.42a4.57,4.57,0,0,1-4,6.84Z" fill="#571519"/><path d="M840.51,355a4.58,4.58,0,0,1-2.77-.93c-11.73-8.92-30.93-32.69-19.66-58.79,21.46-51.51,44.13-79.55,69.29-85.69a4.58,4.58,0,1,1,2.17,8.89c-21.83,5.32-43,32.36-63,80.37-6.35,14.7-.56,27.79,5.9,36.56-1.33-10.72-.85-24.75,7.05-36.19a4.57,4.57,0,0,1,7.53,5.19c-12,17.35-2.28,44.16-2.18,44.43a4.57,4.57,0,0,1-1.57,5.27A4.63,4.63,0,0,1,840.51,355Z" fill="#571519"/><path d="M935,1356.79a4.89,4.89,0,0,1-1.25-.17c-13.41-3.79-72.13-29.16-79.67-42.62a4.58,4.58,0,1,1,8-4.47c4.87,8.69,57.84,33.68,74.17,38.28a4.58,4.58,0,0,1-1.24,9Z" fill="#571419"/><path d="M993.78,1253.81a4.6,4.6,0,0,1-2.57-.79c-31-21.12-68.74-43.45-75.76-42.64a4.57,4.57,0,0,1-1-9.09c13.57-1.55,66.15,33.41,82,44.16a4.58,4.58,0,0,1-2.58,8.36Z" fill="#571419"/><path d="M1269.61,484.78s-3-24.67-10.18-37.65-18.61-14.24-18.61-14.24,11.41-1.28,18.61-14.25S1269.61,381,1269.61,381s3,24.68,10.18,37.66,18.61,14.25,18.61,14.25-11.41,1.27-18.61,14.24S1269.61,484.78,1269.61,484.78Z" fill="#fff" fill-rule="evenodd"/><path d="M1166.3,515.26s-2.07-17.18-7.08-26.21-13-9.92-13-9.92,8-.89,13-9.92S1166.3,443,1166.3,443s2.08,17.18,7.09,26.22,13,9.92,13,9.92-7.95.88-13,9.92S1166.3,515.26,1166.3,515.26Z" fill="#fff" fill-rule="evenodd"/><path d="M1291.08,737.36s-2.08-17.18-7.09-26.21-13-9.92-13-9.92,8-.89,13-9.93,7.09-26.21,7.09-26.21,2.07,17.18,7.08,26.21,13,9.93,13,9.93-8,.88-13,9.92S1291.08,737.36,1291.08,737.36Z" fill="#fff" fill-rule="evenodd"/><path d="M725.47,545.89s-2.38-19.65-8.11-30-14.83-11.35-14.83-11.35,9.09-1,14.83-11.35,8.11-30,8.11-30,2.37,19.66,8.11,30,14.82,11.35,14.82,11.35-9.09,1-14.82,11.35S725.47,545.89,725.47,545.89Z" fill="#fff" fill-rule="evenodd"/></svg>