<svg xmlns="http://www.w3.org/2000/svg" viewBox="0 0 2745 1830"><path d="M0,1830H2745V0H0Z" fill="#ffeab8"/><path d="M1012,247.58s-2-16.53-6.82-25.23-12.47-9.54-12.47-9.54,7.65-.85,12.47-9.55S1012,178,1012,178s2,16.53,6.82,25.22,12.47,9.55,12.47,9.55-7.65.85-12.47,9.54S1012,247.58,1012,247.58Z" fill="#fff"/><path d="M477.44,676.79s-2.82-23.07-9.62-35.21-17.57-13.32-17.57-13.32,10.78-1.19,17.57-13.32,9.62-35.22,9.62-35.22,2.81,23.08,9.61,35.22,17.58,13.32,17.58,13.32-10.78,1.19-17.58,13.32S477.44,676.79,477.44,676.79Z" fill="#fff"/><path d="M1804.09,292.52s-2.37-19.61-8.09-29.92-14.79-11.32-14.79-11.32,9.07-1,14.79-11.32,8.09-29.92,8.09-29.92,2.37,19.61,8.09,29.92S1827,251.28,1827,251.28s-9.07,1-14.79,11.32S1804.09,292.52,1804.09,292.52Z" fill="#fff"/><path d="M2383.14,767.86s-2.75-23.18-9.39-35.37-17.16-13.39-17.16-13.39,10.52-1.2,17.16-13.39,9.39-35.37,9.39-35.37,2.75,23.18,9.39,35.37,17.17,13.39,17.17,13.39-10.53,1.19-17.17,13.39S2383.14,767.86,2383.14,767.86Z" fill="#fff"/><path d="M1428,201.43s-1.65-13.66-5.63-20.84-10.3-7.88-10.3-7.88,6.32-.71,10.3-7.88S1428,144,1428,144s1.65,13.65,5.63,20.84,10.3,7.88,10.3,7.88-6.31.7-10.3,7.88S1428,201.43,1428,201.43Z" fill="#fff"/><path d="M1164.83,326.39s-3.23-26.74-11-40.8-20.18-15.44-20.18-15.44,12.37-1.38,20.18-15.44,11-40.8,11-40.8,3.23,26.74,11,40.8S1196,270.15,1196,270.15s-12.37,1.38-20.17,15.44S1164.83,326.39,1164.83,326.39Z" fill="#fff"/><path d="M353.53,815s-1.89-15.62-6.45-23.84-11.78-9-11.78-9,7.22-.81,11.78-9,6.45-23.83,6.45-23.83S355.41,765,360,773.17s11.78,9,11.78,9-7.23.81-11.78,9S353.53,815,353.53,815Z" fill="#fff"/><path d="M1614.25,338.4s-1.88-15.62-6.44-23.84-11.79-9-11.79-9,7.23-.81,11.79-9,6.44-23.84,6.44-23.84,1.89,15.62,6.44,23.84,11.79,9,11.79,9-7.23.8-11.79,9S1614.25,338.4,1614.25,338.4Z" fill="#fff"/><path d="M2257.33,658.8s-1.89-15.62-6.44-23.83-11.79-9-11.79-9,7.23-.8,11.79-9,6.44-23.84,6.44-23.84,1.88,15.62,6.44,23.84,11.78,9,11.78,9-7.22.81-11.78,9S2257.33,658.8,2257.33,658.8Z" fill="#fff"/><path d="M1291.12,419.28c19.12-16.65,53.65-33.29,72.15-33.29,17.26,0,26.52-3.7,42.55,9.24,10.48,8.64,32.06,4.94,51.18,14.81,19.73,10.48,27.75,20.34,35.15,32.06s12.33,30.83,12.33,30.83,5.55,41.32,2.47,59.2-14.19,55.5-14.19,55.5-22.81,23.43-40.69,19.12c-30.22-7.4-64.13-45-82-45-21.58,0-75.23,49.33-103.59,35.76-8-3.69-19.74-50.56-21-75.84-.62-25.9,2.47-35.77,7.4-49.95C1259.06,457.51,1274.47,432.85,1291.12,419.28Z" fill="#f4c04d"/><path d="M1225.76,807.77c17.27-6.78,64.74-25.9,75.23-37,11.72-11.71,7.4-61,7.4-61a152.77,152.77,0,0,1-14.8-27.14c-6.79-16.65-12.33-40.08-12.33-40.08s-24-3.08-30.22-28.37c-7.4-27.74,15.42-31.44,15.42-31.44l19.11,11.1a45.15,45.15,0,0,1-3.7-16.65c0-8.64,4.93-21.59,4.93-21.59l12.34-22.2s9.25-11.1,14.18-19.11c7.4-11.72,12.34-27.75,32.68-30.22,8.64-1.23,28.37-4.93,40.09-.61,17.26,6.16,18.49,25.28,30.83,35.76,12.95,10.48,36.38,11.72,36.38,13,0,6.78,11.1,11.72,14.18,27.13,2.47,11.72-3.08,35.77-1.85,36.38,6.79,3.09,22.2-13.56,22.2-13.56s23.43-1.24,17.27,32.68c-3.08,15.42-30.83,28.37-30.83,28.37a190,190,0,0,1-10.49,36.38c-7.4,17.88-19.11,34.53-19.11,34.53s-4.94,45.63,4.31,57.35c7.4,9.25,41.32,28.37,56.12,33.3,34.53,11.1,98.05,33.3,98.05,33.3l-455.09-1.85C1148.06,834.9,1203.56,816.41,1225.76,807.77Z" fill="#ffe4ce"/><path d="M1309,712.19s34.53,35.15,69.06,34.53,68.45-37,68.45-37l-3.09,22.81s-32.06,38.85-61.66,45-70.92-48.09-70.92-48.09Z" fill="#ffbca9"/><path d="M1364.5,627.1c0-4.32,4.32-6.17,6.79-9.87,1.85-3.09,1.85-8,4.31-8,5.55,0,8.64,13.57,8.64,21s-4.94,11.1-9.87,11.1S1364.5,634.49,1364.5,627.1Z" fill="#ffaaa9"/><path d="M1301.61,626.48c.61-6.17,10.48-9.87,21-8.64,11.1,1.24,19.12,7.4,18.5,13.57s-10.48,9.87-21,8.63C1309,638.81,1301,632.64,1301.61,626.48Z" fill="#ffaaa9"/><path d="M1449.6,626.48c-.62-6.17-10.48-9.87-21-8.64-11.1,1.24-19.11,7.4-18.5,13.57s10.49,9.87,21,8.63C1442.2,638.81,1450.22,632.64,1449.6,626.48Z" fill="#ffaaa9"/><path d="M1285.57,576.53a63.24,63.24,0,0,1,1.85-21.58c3.08-11.1,10.48-24.05,10.48-24.05s22.82-35.77,41.32-46.87c9.87-6.17,32.68-6.17,43.78-4.31,9.25,1.84,8.64,4.93,8.64,4.93s-41.32-5.55-54.27,18.5-25.28,27.13-35.76,43.16C1293.59,560.5,1285.57,576.53,1285.57,576.53Z" fill="#ffbca9"/><path d="M1405.82,505.61s13,12.34,24.66,18.5c11.72,5.55,21.59,4.32,21.59,4.32s12.33,17.88,16.65,32.07a48.37,48.37,0,0,1,0,25.28s-4.94-22.2-14.19-33.92c-6.16-7.39-19.73-13-27.75-18.5C1407.67,519.8,1405.82,505.61,1405.82,505.61Z" fill="#ffbca9"/><path d="M1378.69,750.39h-.09c-.9,0-22.27-.9-52.9-23.41-21.07-15.32-28.19-31.59-32.44-41.32-8.09-17.52-13.14-41.5-16.24-58a3.05,3.05,0,0,1,6-1.13c3,16.19,8,39.67,15.8,56.63,4.29,9.81,10.73,24.54,30.48,38.9,28.94,21.26,49.28,22.22,49.48,22.23a3.05,3.05,0,0,1-.09,6.1Z" fill="#571519"/><path d="M1375,648a3.1,3.1,0,0,1-1.52-.41c-.55-.32-13.36-7.86-12.62-18.28.38-4.5,3.05-6.86,5.42-8.94,2.63-2.33,5.12-4.53,5.69-10.26.49-3.43-.3-9.1-2.39-17.46a3.05,3.05,0,0,1,5.92-1.48c2.35,9.4,3.13,15.46,2.53,19.68-.8,8-4.8,11.51-7.72,14.09-2.16,1.9-3.2,2.91-3.36,4.84-.39,5.46,6.79,10.9,9.59,12.53A3.05,3.05,0,0,1,1375,648Z" fill="#571519"/><path d="M1320.72,602.43c0-6.79,3.7-12.33,8.64-12.95,4.93,0,9.24,4.93,9.24,12.33,0,6.78-3.7,12.33-8.63,13C1325.66,614.76,1321.34,609.21,1320.72,602.43Z" fill="#571519"/><path d="M1282.49,644.94a3.34,3.34,0,0,1-.62-.06c-17.15-3.55-30.18-16.61-33.21-33.27-1.24-6.81-2.27-16.66,3-23.69,3.55-4.7,9.45-7.48,17.54-8.26a3,3,0,1,1,.59,6.07c-6.41.62-10.75,2.54-13.26,5.87-3,3.89-3.55,9.9-1.91,18.92a35.82,35.82,0,0,0,28.45,28.39,3,3,0,0,1-.62,6Z" fill="#571519"/><path d="M1310.24,564.78a3.05,3.05,0,0,1-1.68-5.6c.87-.57,21.5-13.8,43.8-2a3,3,0,1,1-2.85,5.39c-19.06-10.08-36.86,1.23-37.6,1.71A3,3,0,0,1,1310.24,564.78Z" fill="#571519"/><path d="M1475.5,643.09a3,3,0,0,1-.62-6,35.82,35.82,0,0,0,28.45-28.39c1.65-9.5.17-17.57-4-21.56-3.45-3.34-9-4.24-16.45-2.66a3.05,3.05,0,0,1-1.26-6c9.56-2,16.95-.59,21.95,4.24,8.06,7.79,6.7,21.49,5.74,27-3,16.69-16.08,29.75-33.23,33.3A3.15,3.15,0,0,1,1475.5,643.09Z" fill="#571519"/><path d="M1274.48,614.11a3.05,3.05,0,0,1-2.67-1.56c-1-1.84-3.42-5.13-5.48-6.16a3,3,0,0,1,2.72-5.46c4.42,2.21,7.73,8,8.09,8.65a3,3,0,0,1-1.18,4.14A3,3,0,0,1,1274.48,614.11Z" fill="#571519"/><path d="M1484.75,612.26a3,3,0,0,1-1.48-.39,3,3,0,0,1-1.19-4.14c.37-.65,3.67-6.44,8.09-8.65a3.05,3.05,0,0,1,2.73,5.46c-2.07,1-4.46,4.32-5.49,6.16A3.06,3.06,0,0,1,1484.75,612.26Z" fill="#571519"/><path d="M1313.94,599.31a3,3,0,0,1-1.88-5.45c6.43-5,22.69-7.77,32-1.34a3,3,0,0,1-3.47,5c-6.69-4.63-20-2.59-24.76,1.14A3.07,3.07,0,0,1,1313.94,599.31Z" fill="#571519"/><path d="M1377.28,687.36c-11.64,0-22.48-2.94-28.68-7.18a3.05,3.05,0,0,1,3.44-5c10.31,7.05,36.8,9.93,53.24-1.81a3,3,0,1,1,3.54,5C1399.73,684.78,1388.16,687.36,1377.28,687.36Z" fill="#571519"/><path d="M1379.46,750.39h-.26a3.05,3.05,0,0,1,.1-6.1h.12c.87,0,18-.3,46.18-21,20.43-14.86,29.78-31.49,33.54-40.08,7.85-17,12.8-40.5,15.83-56.69a3,3,0,1,1,6,1.13c-3.09,16.5-8.14,40.47-16.26,58.06-4,9.1-13.92,26.81-35.51,42.5C1400.08,749.61,1381.92,750.39,1379.46,750.39Z" fill="#571519"/><path d="M1431.1,602.43c0-6.79-3.7-12.33-8.63-12.95-4.94,0-9.25,4.93-9.25,12.33,0,6.78,3.7,12.33,8.63,13C1426.17,614.76,1430.48,609.21,1431.1,602.43Z" fill="#571519"/><path d="M1439.11,564.78a3,3,0,0,1-1.67-.5c-.74-.48-18.53-11.79-37.59-1.71a3.05,3.05,0,1,1-2.86-5.39c22.3-11.8,42.93,1.43,43.8,2a3,3,0,0,1-1.68,5.6Z" fill="#571519"/><path d="M1437.88,599.31a3,3,0,0,1-1.87-.64c-4.58-3.57-17.82-6.47-24.63-1.23a3,3,0,1,1-3.72-4.83c9.22-7.1,25.43-4,32.1,1.25a3,3,0,0,1-1.88,5.45Z" fill="#571519"/><path d="M1146.83,839.19a3.05,3.05,0,0,1-1.19-5.86c15.42-6.55,32.38-12.19,48.79-17.64,9.89-3.28,20.11-6.67,29.66-10.17,5-1.88,9.92-3.7,14.76-5.48,33.36-12.28,62.18-22.88,67.2-43,3.54-16.53,1.17-48,1.15-48.36a3,3,0,1,1,6.08-.46c.1,1.32,2.46,32.71-1.29,50.2-5.83,23.31-36,34.43-71,47.3-4.82,1.78-9.75,3.59-14.73,5.48-9.67,3.54-19.93,7-29.86,10.24-16.3,5.41-33.15,11-48.34,17.46A3,3,0,0,1,1146.83,839.19Z" fill="#571519"/><path d="M1606.85,841.66a3.25,3.25,0,0,1-1.14-.22c-13.86-5.55-28.73-10.58-43.12-15.45-11.06-3.75-22.5-7.62-33.28-11.66-5-1.9-9.92-3.71-14.75-5.48-35-12.88-65.2-24-71-47.2-3.77-17.6-1.42-49-1.32-50.31a3.05,3.05,0,1,1,6.09.47c0,.31-2.39,31.82,1.17,48.46,5,20,33.81,30.58,67.17,42.85,4.84,1.78,9.79,3.6,14.79,5.5,10.68,4,22.07,7.86,33.09,11.59,14.46,4.89,29.42,10,43.43,15.56a3.05,3.05,0,0,1-1.13,5.89Z" fill="#571519"/><path d="M1497.7,582.05a3.1,3.1,0,0,1-.73-.09,3.06,3.06,0,0,1-2.24-3.69c6.55-26.79,14.7-60.14,8.6-95.57-5.17-30.95-27.4-66.71-64-72.11a3.05,3.05,0,0,1,.89-6c39.66,5.85,63.65,44.08,69.16,77.13,6.32,36.66-2,70.7-8.68,98A3.06,3.06,0,0,1,1497.7,582.05Z" fill="#571519"/><path d="M1258.44,586.36a3,3,0,0,1-2.89-2.08c-1.08-3.19-26-78.85-1.66-125.1,23.45-44.37,75.21-70.6,102.8-74.37,36.57-4.49,65.14,5.54,71.16,24.94a3.05,3.05,0,0,1-5.83,1.81c-5.12-16.49-31.06-24.82-64.54-20.7-26.31,3.59-75.74,28.69-98.2,71.16-23.15,43.94,1.8,119.56,2,120.32a3,3,0,0,1-1.92,3.86A3,3,0,0,1,1258.44,586.36Z" fill="#571519"/><path d="M1448.39,532.33a45.27,45.27,0,0,1-20.5-4.87c-16.45-8.22-25.19-19.3-34-34.5-3.31-5.51-12-19.9-20-20h-.05c-3.34,0-6.65,2.59-9.83,7.71a3,3,0,1,1-5.18-3.22c4.4-7.07,9.54-10.72,15.11-10.59,11.51.09,20.73,15.45,25.16,22.83,9.8,17,18.31,25.67,31.51,32.27,13.7,6.85,27.16,4,36.21.27-14.51-1-37.49-8-53.83-38.65a3.05,3.05,0,1,1,5.39-2.87c23.27,43.63,60.32,35,60.7,34.86a3,3,0,0,1,2.6,5.37C1480.89,521.59,1466.75,532.33,1448.39,532.33Z" fill="#571519"/><path d="M1468.1,598.08a3.12,3.12,0,0,1-2-.79,3.06,3.06,0,0,1-.86-3.17c.09-.28,8.61-28.6-6.45-52.34a3.05,3.05,0,1,1,5.15-3.27c11.74,18.51,10.64,38.91,8.84,49.73,4.1-3.71,9-10.33,9.59-21.14a3.05,3.05,0,1,1,6.09.36c-1.33,22.6-18.4,30.07-19.12,30.38A3.08,3.08,0,0,1,1468.1,598.08Z" fill="#571519"/><path d="M1463.43,478.19c-31.78,0-50.25-22.91-59.76-34.72-1.89-2.33-4-5-4.79-5.44-9.26-4.9-24.78.7-34.8,18.52a3.05,3.05,0,0,1-5.32-3c12.29-21.86,31.28-27.11,42.93-20.94,1.78.89,3.64,3.2,6.73,7,10.18,12.62,31.36,38.89,68.91,30.92a3,3,0,1,1,1.27,6A72.94,72.94,0,0,1,1463.43,478.19Z" fill="#571519"/><path d="M1270.15,540.11a3.05,3.05,0,0,1-.26-6.09c31.43-2.76,39.09-17.07,46.5-30.9,5.16-9.63,10.49-19.58,24-22.68a3.05,3.05,0,0,1,1.36,5.95c-10.8,2.48-14.85,10-20,19.61-7.41,13.83-16.63,31-51.35,34.1Z" fill="#571519"/><path d="M1286.8,599.93a3,3,0,0,1-1.18-.24c-.73-.31-17.79-7.78-19.13-30.38a3.05,3.05,0,0,1,6.09-.36c.64,10.73,5.49,17.36,9.58,21.1-1.78-10.83-2.86-31.21,8.85-49.69a3.05,3.05,0,0,1,5.15,3.27c-15.1,23.81-6.53,52.06-6.44,52.34a3.07,3.07,0,0,1-.87,3.17A3,3,0,0,1,1286.8,599.93Z" fill="#571519"/><path d="M1522,783.62c24.8-10.38,51.89-7,77.93-7.26,33.76-.39,66.85-2.89,100.45-5.41,15.5-1.16,53.46-1.38,57.06-5.66s17.52-34.86,27.24-46.15c31.09-36.13,46.45-63.24,80.16-96.82,5.46-5.44,14.31-23.78,20.48-27.47.48-.28,13.65-13.41,14.19-13.28,6.54,1.48,63.39,34.9,66,38.72,2.34,3.46-16.92,25.59-18.69,28.6-14,23.9-25.59,52.41-39.62,76.32-28.92,49.28-48.08,105.93-92.53,143.34-22.12,18.61-53.66,24.77-80.05,34.6-17.2,6.41-45.84,24.76-65.54,21.91-7.89-1.14-18.22-30.32-20.27-37.83-5.09-18.61-29.24-62.52-49.38-70.77Z" fill="#fff"/><path d="M1092.55,929.78C1040.08,902.93,974.35,903.47,927,862,913.36,850,895.2,815.82,887.52,803,859.21,755.87,841.13,712,815,667.84c-8.36-14.11-26.16-34.72-27.14-51.1,12.46-5.23,32.46-11.29,43.69-18.82,7.08-4.76,8.11-11.21,15.63-15.23,11.44-6.11,27.36,20.77,30.15,24.58C907.77,649,936.88,683.61,967.74,725c11.54,15.49,23.12,42,28.9,42.28,79.08,3.22,179.81,11.76,258.9,8.66-11.19,4.88-27.11,14.15-39.24,15.55-30.19,3.47-74.65,48-88.87,71.32Z" fill="#fff"/><path d="M1125.46,1321.48c-8.88-11.84-25.07-27.21-37.59-43.12-10.17-12.92-23.12-29-30.11-43.87-3.79-8-8-26.49-17.25-23.34-16.89,5.74-53.48,3.85-77.49,3.54-15.34-.19-77.19.7-92.44-6.49-11.86-5.59-7.27-9.08-9.45-20.06s-6.87-26.68-3.66-38.37c3.39-12.39,1.14-10.36,13.18-15,12.51-4.85,43.76-13.81,55-15.23,37.71-4.78,99.33-15.15,100.31-18.1,9.24-27.72,29.25-69.28,36-101.47,4.2-20.15,16.87-38.73,24.18-57.94,15.31-40.21,45.89-93.7,81.43-121.67,19-15,108.86-58.21,131.91-53,2.87.65-6.13,16.47-6.1,22.37.06,9.46,14.69,23.75,26.72,32.68,17.15,12.72,42.78,19.78,54.41,18.61,26.9-2.69,45.93-11.74,68.91-29.82,5.87-4.61,13.79-15.5,14.38-27.28.39-7.83-7.63-18.58-2.86-19,9.12-.72,33.87,5.78,43.6,9.19,57.77,20.27,74.25,4.06,118.12,56.48,19.54,23.34,39,65.14,55.44,102.21,9.8,22.17,20.44,40.45,23.91,58.21,2.25,11.46,17.62,54,25.13,80.94,3.49,12.49,1.18,21.38,5.73,22.33,3.2.67,19,5.32,30.2,5.26,26.38-.15,69.41,12.22,94.62,18.48,7.25,1.8,44.5,7,45,18.72.18,4-6,58-6.58,58.64-24.52,24.8-162.6,6.6-173.9,11.74-7,3.18-36.25,57.87-48.21,76-6.64,10.08-11.84,14.55-18.48,24.63-1,1.44-17.11,35.32-17,34.76,3.62-18,8.15-44.64,10.42-51.19,10.19-29.36,10.19-43.86,11.68-75.1,1.32-27.69-40-11-56.7-25.27-5.7-4.87,4.89-8.82,6.52-17,2.46-12.24-18.64-6.76-22.45-14.27-1-2.06-16.6-20-19.54-19.33-9,2.2-2.54,13.23-2.34,20.18.43,14,4.87,26.74,1.28,28-10.41,3.74-42,2.11-52.67,1.7-15.22-.58-35.1-2.33-50.12-.21-28.17,4-47.55,3.29-76,1.76-20.2-1.08-41-1.62-61.07-4.82-35.22-5.64-81.27,1.48-116.51,2.54-16.14.49,1.52-42-7.66-47.41-4-2.34-24.71,21.88-41.77,27.91-9.85,3.49,12.24,9.5,2.82,17.89-9.17,8.17-33.1-2-46.52,8.23-8.34,6.37-10.45,32.71-9,39.53Z" fill="#fff"/><path d="M1119.81,1334.66c-43.85-19.73-86.13-22.22-130.18-28.76a71.08,71.08,0,0,0-27.42,1c-69,17.26-82,114.13-31.68,159.65,15.32,13.86,32.33,28.8,50.12,39.27,65.64,38.62,126.08,83.25,206.81,113.49,31.42,11.77,76,33.15,108,43,56.1,17.27,98.83,12.58,150.77,22.83,44.45,8.77,51.44-53.46,57-85.64,1.77-10.18,32.19,5.15,48.55-.79s22.45-16.81,38.69-22.83c18.84-7,46.47,6.71,64.78-1.54,31-14,77.27-43.17,120-72.39,13.24-9,58.51-44.86,76.82-70s9.57-38.53,3.78-64.46c-15.26-68.38-87.25-60.51-141.78-48.22-44.94,10.13-49.53,19.84-93.86,32.4Z" fill="#bdd1de"/><path d="M1094,1571.24c-4.76,1.59-21.48-1.55-37.6,3.87-10.89,3.66-20.7,11.78-29.56,17.23-9.31,5.74-17.43,8.76-19.29,10.62-13.45,13.45-14.39,25-9.11,39.92,4.87,13.72,14.68,31,33.08,38.07,20.57,7.92,24.39-1.06,45.31-1.78,12.46-.43,26.81-8.93,39.08-10.34,15.07-1.74,26.69-1.49,41.21-5.73,13.1-3.82,61.92-4.31,71.6-14,1.11-1.11,18.38-3.9,16.78-6.3-3.18-4.76-20.56-8.79-26.62-11.83-9.3-4.64-14.85-6.31-25-10.23-11.75-4.52-18.45-8-29.8-13.67Z" fill="#fff"/><path d="M1480,1676.3c6.43,9.64,17.74,7.85,35.53,8,19.8.14,46.41,1.41,57.84-2.4,21.18-7.06,42.89-7.16,65.45-10.07,46.85-6,95.81-10.92,140.49-22.09,27.62-6.9,35.9-42.6,26-68.44-6.09-15.84-28.4-18.83-45.64-22.92-13.78-3.26-22.46-5-32.79-1.6-45,14.79-57.86,15.44-93.43,17.81-10,.67-26.93-.69-35.93.6-11.82,1.68-47,23.28-59.13,26.76-5.63,1.61-33.27-7.92-33.91-7.06-3.08,4.11,1.67,20.77,0,26.87-1.87,6.87-11.39,13.06-9.77,19.55Z" fill="#fff"/><path d="M1927.1,1423.57l1.57-.78Z" fill="#87bda6"/><path d="M1134.3,1188c-3.85,0-25.07,6.24-29.35,22.3-6.45,24.17,6.63,64.94,7.19,67.92,6.79,36.21,14.27,79.6,21.76,125.14,3.24,19.75-.49,43.25,13.14,54,9.69,7.67,18.92,19.12,28,21.13,7.45,1.63,15.48-2.6,25.67-1.55,27.5,2.87,59.09,1.84,83.22,1.06,28.63-.93,80.94-3.19,114.33-2,35.45,1.31,76.64.48,118.53-.18,25-.39,55.92,5.24,75.33-6,29.34-16.91,32.91-87.11,41-125.82,2.65-12.74,26.77-128.68,21.74-138.74-3.67-7.35-18.6-9.24-22.44-16.92Z" fill="#cfcfcf"/><path d="M1987.45,466.26c-37.75-15.73-106.46-24.91-109.33-32.43-1.77-4.63,9.19-39.08,17.75-64.51,2.82-8.37,4.6-18.62,8.25-26.66,15,11.32,36.58,28.68,55.32,30.25,35.17,2.94,65.62-85.59,32.15-109.81-24.65-17.84-38.25-4.38-64.1-1.46,7.93-18.51,20.92-119.36,35.64-114.32,26.73,9.15,105.31,25.39,106.76,31.15S2030,214.73,2037.29,231c4.81,10.79,17.27,34.89,39.54,42.74,27.08,9.54,65.56.74,74.08-11.73,13.07-19.13,1.55-41.57-.13-62.08,29.2,2.47,64,21.05,101.61,29.32,3.32.73-3.5,23.18-4.28,26.49-9.28,39.81-14.42,50.14-26.58,89.17-11.27-12.44-17.68-23.61-35-29.28-47.58-15.57-99.1,99.65-30.79,114.47,13,2.81,32.82-1.57,43.34-4.71-17.84,42.89-7.56,48.6-25.4,91.5-9.48-1.58-41.81-12.16-51.29-13.74Z" fill="#feecd2"/><path d="M676,483.54C655.23,488.4,603.78,505,602.53,502c-5.31-13.16-12.88-73-30-100.55-9.37,8.81-10.72,19.53-30.06,23.28-50.91,9.87-84.72-112.25-10.34-113.93,9.07-.21,18.58,15.62,27.47,17.42-14.21-32.93-16.5-84.19-27.78-115.52-1.31-3.65,53.46-12.31,57.18-13.41,71.95-21.28,37.58-13.38,110.59-30.64,16.29-3.86,107.78-26.87,110.2-22.18,15.33,29.7,24.37,115.3,25.81,112.77,8.67-15.18,17.61-37.83,57.49-26.92,29.25,8,41.53,72.59,14.36,99.62-18.48,18.4-33.9-.89-51.58-1.9,6.56,21.11,7.51,40.95,12.24,58.14,7.71,28,24.49,52.23-13.07,53.56Z" fill="#e82d5e"/><path d="M814.2,453.52c-4.35-1.53-9.08.75-12.78,3-2.17,1.3-8,2.52-9.26,4.61-4.56,7.67,9.35,21,11.45,29.23.63,2.47.81,22.06-1.47,24.36-2.07,2.09-13.95-3.4-17.12-4.1a30.76,30.76,0,0,1-12-4.85c-5.3-3.72-8.48-11.12-11.28-16.59-15.6-30.5.7-46.6,2-78.37.35-8.42-4-35.85-17.77-35.79-9.21,0-2.88,21.25-6,41.79-1.88,12.28-10.45,23.65-10.61,28.43-.11,3.15,1.32,17.93-5,17.47-5.74-.41-9.76-18.92-10.1-22.65-.69-7.63,1.54-34.88-5.33-54.14-4.63-13-16.11-21.65-25.14-20.89-5.6.47-3.83,9.9-3.55,13.46.58,7.48,10.57,50.13,8,53.54-3.65,4.82-14.86-13.74-18.7-15.83C659.08,410.47,641,402,630.25,410c-8.64,6.43,10.27,19,15.76,21.47,3.52,1.59,5.44,8.21,9.17,9.76.37.16,4.6,7.09,3.79,7.53-3.47,1.87-24.94-6-26.72,3.91-2,11.31,9.59,12,17.67,16.84,22.1,13.12,42.56,34.35,60.29,53.13,21.35,22.63,44.14,51.48,63.16,76,3.82,4.92,8.63,17.48,15.39,18,7.73.56,23.36-7.93,29.41-11.93,9.57-6.33,22-10.64,28.49-21.53,3.68-6.18-2.35-17.21-1.85-24.11,2.08-28.74-3.11-57.9-16.72-83.14Z" fill="#feecd2"/><path d="M1905,581.46c-3.39-17.2.52-35.75,1.28-53.07.25-5.68,0-18.21,1.29-23.84,2.3-10.21,5.77-15.84,8.42-25.95,1.09-4.14,5.17-8.23,6.74-12.94,1.73-5.16,1.09-10.85,5.84-12.93,11.88-5.22,21.79,4.37,18.94,12.84-1.79,5.33-8,43.41-3.64,46.32,5.24,3.51,12.09-2.25,16.88-3.34,5.66-1.27,9.37-2.77,13.47-7,4.24-4.37,4.92-11.15,7.27-16.5,3.28-7.5,7.63-9.25,7-18.05-.49-7-2.12-17.35-4.29-23.54-4.06-11.59-8.22-22.88-10.35-35.19-1.89-10.85-.25-37,15.21-38.39,9.36-.87,9.33,12.73,9.88,18.68,1.55,16.83,3.66,38,12.34,52.54,1.32,2.2,2.38,17.84,7.35,15.78,10-4.12,4.73-45.77,9-58.34.52-1.56,2.65-24.08,7.51-31.74,7.29-11.48,24.2-22,22.6-3.31s-1.59,34.38-4.55,47.78c-.46,2.07-4.38,13.75-1.62,15.28,3.77,2.1,9.09-9.8,10.86-11.84,6-7,40.52-25.36,46.89-14.16,6.75,11.88-26.31,27.62-25.95,37.15.39,10,32.95-10.64,27.71,8.39-1.86,6.76-15.9,8.74-29.53,19.09-11.29,8.56-22.2,25.62-26.62,31.16-24.79,31.07-45.64,51.11-67.61,83.89-5.81,8.68-15.52,30.39-22.74,37.84-.14.14-1,.9-1.39.79-8.65-2.6-19.48-9.45-27.16-14.11-5.4-3.27-13-4.61-18-8.42Z" fill="#feecd2"/><path d="M1970.11,947.67c-10.09-10.83-22.89-22.15-42.55-19.51-35.23,4.71-42.1,67.17-14.77,96.74,13.74,14.86,48.8-6.56,61.1-8.71-5.55,43.24,5.76,63.65-1.78,97.52,50.07,4.24,101.49-1,150.73.76,8.67.31,36.27,4.54,60.48,2.27,23.3-2.19,67.82,2.91,68.61-2.79,7.53-54.42-2.67-201.4,4.11-277.35-11.08-8.13-84.13-1.86-108.7-1.06-8.38.27,28.79-31.41,22-55.24-5-17.53-54.61-29.17-57.65-29.1-4.91.1-47.71,12.8-51.88,33.18-4.55,22.23,29.34,52.3,18.45,52.34-27.38.11-74.77,3.49-102,.3-13.39-1.58-4.12,58.48-5.06,83.73Z" fill="#7d38ce"/><path d="M693.33,841.57c-2.59-4.48,22-27.92,21.09-46.19-1-20.39-35.2-34.61-50.93-35.18-12.21-.45-38.26-9.18-53.13,12.36-26,37.65,36.14,72.09,8.71,69.38-19.67-1.94-102.26-6.35-101.15,4.11,5.82,54.31-3.35,141.08.75,188.11s-5.22,47.78-1.18,82.91c.7,6.06,151.56,1.38,194.49,2.89,27.43,1,90,2.64,88.72-1-7.94-22.82,4.52-83.79,0-99.34,9.65-2.25,37,31.51,56.26,13.18,13.7-13,21.34-39.64,19.29-58.15-2.55-23-23.09-43.22-34.08-44.07-28.06-2.17-30.76,12.62-41.79,20.89,2.51-1.17,1-109.4,3.54-110.58Z" fill="#3dd8ac"/><path d="M1896.49,1141.39c.48-5.66,10.55-12.36,14.23-16.07,8.36-8.44,45.12-42.87,58.25-37.21,1.18.5,2.59,10.67,2.42,11.14-2.83,7.88-1,5.83,4,15.2,3,5.65,40.08,3.08,45.44.36,20.62-10.47,3-33.71,17.35-38.36,12.47-4,15.38,14,15.31,22.29,0,1.11-.25,15.14.08,14.93,11.63-7.56,13.59-42.9,19.28-56.14,2.64-6.13,11.89-13.23,18.17-7.62,4.68,4.17-5.93,33-6.92,40.61-.15,1.23-1.36,3.21-.23,3.69.64.28,2.3-1.08,2.39-1.14,3.39-2.11,35.89-33.45,39.09-25.41,2.47,6.21-12.19,25.4-10.81,27,2.91,3.45,8.54-3.91,11.29,4.58,4.09,12.66-11.15,26.17-18.7,33.39-19.57,18.72-44.46,50.26-70.17,60.5-8.36,3.34-12.94-1-20.93-1.69-12.59-1.07-26.33.11-39,.56-21.8.79-22.68-2.82-47.66-6.26-3.75-.51-29.54,4.15-33.42,4.67-.77.11-3.55,1.56-4,.46-1.17-3,5-20.54,6.24-23.31Z" fill="#feecd2"/><path d="M856.7,1143.93c-1.73,1.74-1.21.3-1.94-1.29-3.1-6.71-27.45-27-34.74-30.64-3.36-1.67-5.86-4.48-9.27-6-1.36-.61-4.1-3.21-4.1-1.72,0,6.16-9.77-6.48-6.63-1.45.09.15,1.68,15.52,1.45,15.67-2.45,1.63-19.79.32-22.91.72-16.88,2.2-13.72.43-31.1,1.45-3,.17-15.47,6.18-15.67-3.14s7.94-27.06-12.65-31.64c-9.45-2.1-12.39,15-12.6,20.55-.16,4-.49,14.9-2.81,11.65-6.26-8.77-3-24.94-5.82-35.17-1.7-6.1-7.07-11.83-9.28-17.91-1.36-3.75-6.24-14.89-12.73-11.65-13.69,6.85,6.44,45.33.43,49.84-2.34,1.75-14.78-19.45-17.48-22.44s-20.94-8.34-22.65-3.88c-4.94,12.83,9.29,18.58,12.51,28.26.67,2-8.13-.49-9.06.43-2.63,2.64-1.51,12.38-.64,15.32,5,17.2,19.65,29.8,31.71,41.86,14.89,14.89,25.5,36,48.11,41,16.93,3.76,34.44-1.15,51.14-3.24,7.76-1,15.69.75,23.52.44,17-.68,33.4-3.19,50.27-5,2.35-.24,13,3.91,14.88,2.38,13-10.85-9.71-36.89-3.67-49Z" fill="#feecd2"/><path d="M1115.33,1312.59a3,3,0,0,1-2-.76c-32.73-28.86-74.23-99.27-93.9-148-9.89-24.47,8.46-78.19,14.32-94.07,19.87-53.87,42.06-107.31,63.09-157,36.54-86.43,96.57-130.06,207.18-150.61a3,3,0,1,1,1.11,6c-108.32,20.13-167,62.72-202.68,147-21,49.65-43.15,103-63,156.77-4,10.93-23.69,66.65-14.38,89.68,19.41,48,60.21,117.4,92.27,145.67a3,3,0,0,1-2,5.33Z" fill="#571419"/><path d="M1163.68,1190.45a3,3,0,0,1-2.43-1.21c-13.29-17.64-23.52-32.78-30.21-49.33-3.33-8.22,5.6-25.89,24.49-61.89,10.71-20.43,22.86-43.59,33.79-68.34a3.05,3.05,0,0,1,5.58,2.47c-11,24.94-23.21,48.19-34,68.7-13.71,26.13-26.65,50.8-24.24,56.78,6.45,15.93,16.43,30.68,29.43,47.94a3,3,0,0,1-2.44,4.88Z" fill="#571419"/><path d="M1200.18,1188.8a3,3,0,0,1-3-3c0-79.61-3.57-143.12-11.24-199.86-1.68-12.49-3.85-25.33-5.94-37.76-4.78-28.38-9.73-57.73-9.73-86.56a3,3,0,1,1,6.1,0c0,28.32,4.9,57.41,9.64,85.55,2.11,12.47,4.28,25.37,6,38,7.7,57,11.29,120.78,11.29,200.67A3,3,0,0,1,1200.18,1188.8Z" fill="#571419"/><path d="M1560.89,1191.38a3,3,0,0,1-3-3.05c0-60.55,3.17-117.88,10.3-185.9.45-4.31,1.45-11,2.71-19.55,4.15-28,11.09-74.79,12.37-125a3,3,0,0,1,3-3h.08a3.05,3.05,0,0,1,3,3.13c-1.29,50.53-8.26,97.59-12.43,125.7-1.26,8.44-2.24,15.11-2.68,19.28-7.11,67.8-10.27,124.94-10.27,185.27A3.05,3.05,0,0,1,1560.89,1191.38Z" fill="#571419"/><path d="M1597.76,1191.2a3,3,0,0,1-1.63-.48,3,3,0,0,1-.94-4.21c8.48-13.36,16.77-29.76,20.15-39.9,3-8.94-14.44-48-29.82-82.42-6.26-14-12.74-28.52-18.29-41.86a3.05,3.05,0,1,1,5.63-2.35c5.53,13.27,12,27.73,18.23,41.72,21,47.07,33.53,76.41,30,86.84s-12.07,27.51-20.79,41.24A3,3,0,0,1,1597.76,1191.2Z" fill="#571419"/><path d="M1637.88,1327.74a3,3,0,0,1-1.7-.51,3.06,3.06,0,0,1-.84-4.24l10.31-15.33c42.38-63,90.42-134.37,84.6-175.51-12.62-89.23-70.21-231.76-111.32-294.84-21.43-32.88-110.53-54.57-153.35-65-6.38-1.55-11.91-2.9-16.26-4a3.05,3.05,0,0,1,1.55-5.9c4.32,1.14,9.81,2.47,16.15,4,46.92,11.42,134.27,32.68,157,67.59,41.45,63.6,99.52,207.33,112.25,297.32,6.15,43.46-40.49,112.75-85.58,179.77q-5.2,7.71-10.3,15.32A3,3,0,0,1,1637.88,1327.74Z" fill="#571419"/><path d="M1650.35,1577.09a3,3,0,0,1-1-5.91c61.83-22.52,215.61-121.25,210.91-173.16-2.85-31.49-13.19-54.39-30.73-68.08-18.34-14.31-44.89-18.86-78.93-13.51-38.08,6-73.13,16.09-117.19,33.84a3,3,0,1,1-2.29-5.65c44.53-17.94,80-28.17,118.53-34.22,35.78-5.61,63.91-.65,83.63,14.73,18.93,14.76,30,39.1,33.06,72.34,2.88,31.94-43.38,73.62-82.7,103-48.67,36.33-103.35,66-132.2,76.48A3.16,3.16,0,0,1,1650.35,1577.09Z" fill="#571419"/><path d="M1448.94,1686.68c-196.15,0-421.44-145.71-511.15-209.91-30.72-22-45.31-62.91-37.17-104.25,6.91-35.06,28.67-61,56.81-67.64,45-10.67,119,12,154.52,22.91,3.83,1.18,7.15,2.19,9.83,3a3,3,0,1,1-1.72,5.85c-2.7-.79-6-1.82-9.89-3-32.29-9.9-107.91-33.07-151.34-22.81-25.77,6.1-45.78,30.2-52.22,62.89-7.68,39,5.95,77.5,34.73,98.1,92.06,65.89,327.57,218.06,526,208.34a3,3,0,1,1,.3,6.09Q1458.34,1686.68,1448.94,1686.68Z" fill="#571419"/><path d="M1499.25,1585.94h-.19c-45.26-2.78-168.06-80.67-195.9-105.21a3,3,0,1,1,4-4.57c30.52,26.89,151,101.16,192.25,103.7a3,3,0,0,1-.19,6.09Z" fill="#571419"/><path d="M1127,1380.09a2.88,2.88,0,0,1-.91-.14c-30.3-9.48-73.21-16.06-101.92-15.59a3.11,3.11,0,0,1-3.09-3,3,3,0,0,1,3-3.09c29.33-.49,73,6.22,103.83,15.87a3,3,0,0,1-.91,6Z" fill="#571419"/><path d="M1469.4,1685.78a3,3,0,0,1-1.57-5.66c15.29-9.16,38.79-57.3,29.53-96.49a3.05,3.05,0,0,1,5.94-1.39c10,42.38-15.33,92.92-32.33,103.11A3.12,3.12,0,0,1,1469.4,1685.78Z" fill="#571419"/><path d="M1384.47,1533.17a3,3,0,0,1-1.65-5.61c21.62-13.88,63.43-39.27,100.49-53.36a3,3,0,0,1,2.17,5.7c-36.55,13.9-77.94,39-99.36,52.79A3,3,0,0,1,1384.47,1533.17Z" fill="#571419"/><path d="M1623.74,1392.61a3.05,3.05,0,0,1-1.8-5.52c9.8-7.13,39.62-28.86,86.14-47.49a3.05,3.05,0,0,1,2.27,5.67c-45.82,18.34-75.17,39.73-84.82,46.76A3.06,3.06,0,0,1,1623.74,1392.61Z" fill="#571419"/><path d="M1155,1172.1a3.05,3.05,0,0,1-1.41-5.76c7.32-3.8,29.62-15.39,35.06-20.62,1.55-1.49,6.21-8.61,7.55-15.8a3.05,3.05,0,1,1,6,1.12c-1.6,8.58-7,16.78-9.32,19.07-4.2,4-15.45,10.72-36.48,21.65A3.07,3.07,0,0,1,1155,1172.1Z" fill="#571419"/><path d="M1606,1175.49a3.08,3.08,0,0,1-1.41-.34c-13.55-7-30.13-16.93-35.62-22.21-2.38-2.3-7.73-10.51-9.32-19.08a3.05,3.05,0,0,1,6-1.12c1.33,7.18,6,14.3,7.55,15.8,4.4,4.24,19.11,13.35,34.21,21.19a3.05,3.05,0,0,1-1.41,5.76Z" fill="#571419"/><path d="M860.06,1141.71a3.05,3.05,0,0,1-1.49-5.72c24.84-13.81,108.32-27.65,148.45-34.29,8-1.33,14.17-2.35,17.69-3a3,3,0,0,1,1.13,6c-3.55.67-9.78,1.7-17.83,3-39.78,6.6-122.56,20.32-146.47,33.61A3,3,0,0,1,860.06,1141.71Z" fill="#571419"/><path d="M1895.14,1134.41a3.11,3.11,0,0,1-1.49-.38c-23.9-13.3-106.69-27-146.47-33.61-8-1.34-14.28-2.37-17.83-3a3,3,0,1,1,1.13-6c3.53.66,9.71,1.68,17.7,3,40.12,6.65,123.61,20.48,148.44,34.29a3.05,3.05,0,0,1-1.48,5.72Z" fill="#571419"/><path d="M980.75,1218.68c-36.55,0-79.83-2.94-114.76-8.5a3.05,3.05,0,1,1,1-6c59.33,9.45,142.75,11.32,175,3.94a3,3,0,1,1,1.37,5.94C1029.61,1217.17,1006.9,1218.68,980.75,1218.68Z" fill="#571419"/><path d="M1771.85,1211.87c-24.46,0-45.42-1.42-58.29-4.36a3.05,3.05,0,0,1,1.36-6c31.41,7.18,112.41,5,173.33-4.7a3,3,0,1,1,1,6C1852.4,1208.74,1808.25,1211.87,1771.85,1211.87Z" fill="#571419"/><path d="M1000.09,786.87a3,3,0,0,1-3-2.8c-1.41-17.4-35-62.82-45.27-76.33-39.4-51.85-72.11-92.22-102.94-127.06a3,3,0,1,1,4.56-4c30.94,35,63.75,75.44,103.24,127.41,13.48,17.74,45,61,46.49,79.53a3,3,0,0,1-2.79,3.28Z" fill="#571419"/><path d="M1091.29,931.18a3.22,3.22,0,0,1-.81-.11c-33.87-9.34-146.73-45.84-161.17-62.34-34.92-39.88-60.36-90.34-84.95-139.15-18.94-37.57-38.52-76.42-62.07-109.45a3.05,3.05,0,0,1,5-3.54c23.81,33.41,43.5,72.47,62.54,110.25,24.43,48.46,49.69,98.58,84.1,137.88,12.1,13.82,115.82,48.78,158.2,60.47a3,3,0,0,1-.81,6Z" fill="#571419"/><path d="M1249.31,781.42c-35.28,0-95.8-3.18-149.2-6-47.95-2.52-97.54-5.12-102.32-3.73a3,3,0,0,1-1.75-5.84c5.42-1.63,41.35.17,104.39,3.48,53.33,2.8,113.76,6,148.88,6a3,3,0,0,1,0,6.1Z" fill="#571419"/><path d="M1568.32,1480l-385.09-.22c-21.14,0-38.65-13.37-45.69-34.88a3,3,0,0,1-.1-.43l-38.36-221.31a3,3,0,0,1,0-.52,36.84,36.84,0,0,1,36.8-36.8h487.29a36.84,36.84,0,0,1,36.8,36.8,3,3,0,0,1-.06.6l-44.07,220.49a3.32,3.32,0,0,1-.14.49C1607.11,1466.61,1589.42,1480,1568.32,1480Zm-424.91-36.79c6.23,18.8,21.48,30.46,39.83,30.46l385.09.23c18.39,0,33.9-11.82,41.53-31.62l44-219.93a30.74,30.74,0,0,0-30.7-30.41H1135.83a30.74,30.74,0,0,0-30.7,30.45Zm513.46-220.57h0Z" fill="#571419"/><path d="M1358.46,1329.62c0-11.47,9.89-20.76,22.1-20.76s22.1,9.29,22.1,20.76-9.89,20.75-22.1,20.75S1358.46,1341.08,1358.46,1329.62Z" fill="#eae6e3"/><path d="M785.19,621.08a3.05,3.05,0,0,1-.85-6c28.33-8.24,50.64-21.53,64.54-38.42a3.05,3.05,0,1,1,4.71,3.88c-14.68,17.84-38,31.81-67.55,40.4A3.12,3.12,0,0,1,785.19,621.08Z" fill="#571419"/><path d="M1751.2,787.46H1751a3,3,0,0,1-2.8-3.28c1.51-18.52,33-61.79,46.5-79.53,39.46-51.95,72.27-92.44,103.23-127.41a3,3,0,1,1,4.56,4c-30.85,34.86-63.56,75.23-102.94,127.06-10.26,13.51-43.85,58.94-45.27,76.33A3,3,0,0,1,1751.2,787.46Z" fill="#571419"/><path d="M1668.85,929.25a3.05,3.05,0,0,1-.85-6c47.56-13.88,138.15-45.12,149.39-58,34.41-39.3,59.66-89.42,84.09-137.88,19-37.78,38.73-76.84,62.54-110.25a3.05,3.05,0,0,1,5,3.54c-23.54,33-43.13,71.88-62.06,109.45-24.6,48.81-50,99.28-85,139.16-13.5,15.43-110.22,47.52-152.26,59.79A2.85,2.85,0,0,1,1668.85,929.25Z" fill="#571419"/><path d="M1516.57,784a3.05,3.05,0,0,1-.09-6.1c36.84-1.19,87.8-4.26,132.75-7,64.28-3.87,100.89-6,106-4.45a3,3,0,0,1-1.75,5.84c-4.78-1.27-55.16,1.76-103.9,4.7-45,2.7-96,5.77-132.92,7Z" fill="#571419"/><path d="M1966.1,621.67a3.24,3.24,0,0,1-.86-.12c-29.51-8.59-52.87-22.56-67.55-40.4a3.05,3.05,0,1,1,4.71-3.88c13.9,16.89,36.22,30.18,64.55,38.42a3.05,3.05,0,0,1-.85,6Z" fill="#571419"/><path d="M865.51,1209.72a3,3,0,0,1-2.94-2.26c-3.42-12.75-10.84-45-6-68.65a3,3,0,1,1,6,1.22c-4.58,22.43,2.6,53.52,5.91,65.85a3,3,0,0,1-2.16,3.73A2.69,2.69,0,0,1,865.51,1209.72Z" fill="#571419"/><path d="M1889.68,1202.42a3.11,3.11,0,0,1-.79-.1,3.05,3.05,0,0,1-2.15-3.74c3.3-12.32,10.49-43.41,5.9-65.85a3,3,0,0,1,6-1.23c4.86,23.72-2.57,55.92-6,68.66A3.06,3.06,0,0,1,1889.68,1202.42Z" fill="#571419"/><path d="M1531.56,1688.82c-1.9,0-3.74,0-5.52-.1-14.76-.67-33.36-3.42-51.34-6.08l-.93-.14a3,3,0,1,1,.9-6l.92.14c17.84,2.64,36.28,5.36,50.7,6,28.43,1,73.5-6.68,113.27-13.47,12.87-2.2,25-4.27,36.43-6,25-3.88,42.89-5.52,57.24-6.84,12.72-1.17,21.91-2,29.44-3.89,5.69-1.43,26.19-8.75,32.18-15.35a3,3,0,1,1,4.51,4.1c-7.45,8.22-29.61,15.76-35.21,17.17-8,2-17.37,2.85-30.36,4-14.27,1.31-32,2.94-56.86,6.79-11.35,1.76-23.49,3.83-36.34,6C1603,1681.59,1560.67,1688.82,1531.56,1688.82Z" fill="#571519"/><path d="M1531.77,1603.82l-1.63,0c-8.09,0-16.63-1.83-25.67-3.77l-.92-.2a3,3,0,0,1,1.28-6l.92.2c9.09,2,17,3.63,24.45,3.63,20.06.31,31.1-6.82,41.78-13.78,7.35-4.8,15-9.76,25-11.77,7.6-1.41,16.14-1,26-.62,14.27.62,32,1.38,52.75-3.4a281.3,281.3,0,0,0,29.77-9.07c15.87-5.56,28.41-9.94,43.84-5.73,4.44,1.26,11,2.62,17.37,3.94,7.08,1.46,14.4,3,19.11,4.42a3.05,3.05,0,1,1-1.8,5.83c-4.43-1.36-11.61-2.85-18.55-4.28-6.46-1.34-13.15-2.72-17.77-4-13.56-3.7-24.72.21-40.19,5.62a284.88,284.88,0,0,1-30.39,9.25c-21.57,5-39.77,4.19-54.4,3.56-9.51-.41-17.73-.76-24.61.51-8.87,1.77-15.66,6.2-22.84,10.89C1564.67,1596,1552.64,1603.82,1531.77,1603.82Z" fill="#571519"/><path d="M1053,1686.19c-9.53,0-26.79-1-33.5-6.65a3.05,3.05,0,0,1,3.92-4.68c5.74,4.82,27.12,5.73,35,5.08s16.85-2.88,29.3-6c13.49-3.36,30.29-7.55,54.3-12,9.92-1.77,20.56-3.53,31.51-5.35,26.7-4.42,54.3-9,78-14.62a3,3,0,0,1,1.41,5.93c-23.9,5.68-51.6,10.27-78.4,14.71-10.92,1.81-21.54,3.57-31.42,5.33-23.81,4.4-40.5,8.57-53.92,11.91-12.73,3.17-21.92,5.47-30.27,6.14C1057.9,1686.1,1055.77,1686.19,1053,1686.19Z" fill="#571519"/><path d="M1012.85,1604.25a3,3,0,0,1-1.74-5.55c4.62-3.21,11.52-7,18.18-10.76,5.35-3,10.4-5.79,14.22-8.22,13.73-9.17,27.4-9.07,44.75-8.92,2.19,0,4.46,0,6.8,0a3,3,0,0,1,0,6.1c-2.36,0-4.64,0-6.85,0-16.92-.14-29.15-.24-41.37,7.93-4,2.57-9.16,5.42-14.58,8.44-6.54,3.64-13.3,7.4-17.67,10.44A3,3,0,0,1,1012.85,1604.25Z" fill="#571519"/><path d="M1796.62,1642.54a3,3,0,0,1-2.1-5.25c8.06-7.68,13-22.31,12.66-37.28-.29-11.75-3.9-21.46-9.9-26.64-3.28-2.83-8.31-4.53-15.89-6.51a3.05,3.05,0,0,1,1.54-5.91c8.45,2.21,14.15,4.2,18.34,7.81,7.3,6.29,11.67,17.63,12,31.1.41,16.61-5.31,33-14.56,41.84A3,3,0,0,1,1796.62,1642.54Z" fill="#571519"/><path d="M1021.27,1680a3,3,0,0,1-2-.78c-13.3-12-25-33.39-27.18-49.86-1.95-14.58,5.87-22.62,18.23-30.21a3.05,3.05,0,0,1,3.19,5.2c-12.7,7.8-16.73,14.13-15.38,24.2,2,15,13.08,35.22,25.22,46.14a3,3,0,0,1-2,5.31Z" fill="#571519"/><path d="M1905.14,586.68a3,3,0,0,1-3-2.62c-3.88-27,.77-74.53,3.53-88,1.38-6.78,3.87-11.76,6.75-17.53a130.55,130.55,0,0,0,10.49-26.75,3.05,3.05,0,0,1,5.89,1.61,138.84,138.84,0,0,1-10.92,27.87c-2.8,5.6-5,10-6.24,16-2.69,13.16-7.24,59.55-3.46,85.9a3.06,3.06,0,0,1-2.59,3.46A3.25,3.25,0,0,1,1905.14,586.68Z" fill="#571519"/><path d="M1944.41,518a3,3,0,0,1-3-2.3c-5.48-21.83-2.42-28.39.83-35.32,2.38-5.1,4.85-10.38,3.56-24.19a3,3,0,1,1,6.07-.57c1.45,15.47-1.5,21.78-4.11,27.34-2.89,6.19-5.39,11.53-.44,31.25a3,3,0,0,1-2.21,3.7A3.2,3.2,0,0,1,1944.41,518Z" fill="#571519"/><path d="M1927.87,537.65a3.06,3.06,0,0,1-2.6-4.65c7.5-12.14,16.69-23.72,46.33-32a3.05,3.05,0,1,1,1.64,5.88c-27.56,7.68-35.68,17.82-42.78,29.31A3,3,0,0,1,1927.87,537.65Z" fill="#571519"/><path d="M1966.85,525.66a2.45,2.45,0,0,1-.46,0,3,3,0,0,1-2.56-3.46c1.5-10.11,7.77-20.85,13.3-30.32,4.9-8.4,9.53-16.33,9.88-22,.25-4.08-2.46-12.94-5.33-22.31-4.18-13.64-9.37-30.62-9.39-44.65,0-30.76,12.71-35.29,18.2-35.82a3.05,3.05,0,0,1,.57,6.08c-6.14.58-12.7,8.7-12.67,29.74,0,13.12,5.06,29.61,9.12,42.86,3.3,10.78,5.9,19.29,5.59,24.48-.44,7.08-5.43,15.62-10.71,24.67-5.5,9.43-11.2,19.19-12.53,28.14A3.06,3.06,0,0,1,1966.85,525.66Z" fill="#571519"/><path d="M2016,519.37a3.06,3.06,0,0,1-3-3.79l.2-.79c2.57-10.31,8.6-34.45.89-54.1l-2.73-6.91c-4.71-11.91-9.17-23.15-12.83-35.74-1.94-6.65-2.35-14.63-2.74-22.35-.53-10.42-1.08-21.2-5.63-22.47a3.05,3.05,0,0,1,1.64-5.88c8.78,2.45,9.41,14.88,10.08,28,.38,7.37.77,15,2.5,20.95,3.59,12.32,8,23.43,12.65,35.2l2.74,6.94c8.41,21.46,2.06,46.92-.65,57.79l-.2.8A3,3,0,0,1,2016,519.37Z" fill="#571519"/><path d="M2036.06,519.72a3,3,0,0,1-1.24-.27,3,3,0,0,1-1.55-4c12.89-29.1,14-56,15.29-87.16.36-8.58.73-17.45,1.37-26.66a120,120,0,0,1,2.39-14.28c1.95-9.56,4.64-22.64,1.5-26.76a3.15,3.15,0,0,0-2.57-1.21h-.12c-3.47,0-14.12,8.59-18.75,22.83-2.66,8.18-2.42,20.42-2.2,32.25.15,7.67.29,14.92-.34,21.08-.83,8.23-4,14.54-6.41,19.15a25.31,25.31,0,0,0-2.18,4.94,3.05,3.05,0,0,1-6-1.14,27,27,0,0,1,2.75-6.58c2.25-4.41,5.06-9.9,5.77-17a179.74,179.74,0,0,0,.31-20.35c-.23-12.33-.47-25.09,2.5-34.24,5.13-15.82,17.59-27.54,25.08-27a9.27,9.27,0,0,1,7,3.6c4.83,6.32,2.19,19.22-.36,31.68A118.72,118.72,0,0,0,2056,402c-.63,9.13-1,18-1.35,26.49-1.26,30.45-2.46,59.22-15.81,89.38A3.09,3.09,0,0,1,2036.06,519.72Z" fill="#571519"/><path d="M2047.75,483.87a3,3,0,0,1-1.35-.32,3,3,0,0,1-1.39-4.08c7.8-15.83,24.92-34.62,40.65-50.91,3.66-3.79,7.77-7.38,11.4-10.55,5.85-5.12,11.38-10,12.35-13.28a2.19,2.19,0,0,0-.15-2c-.73-1.13-2.9-2.15-5.28-2.48-18.75-2.59-40.2,18.55-49.3,32.49a3,3,0,0,1-5.11-3.33c10.31-15.8,33.55-38.18,55.25-35.21,1.59.23,7,1.26,9.56,5.21a8.31,8.31,0,0,1,.89,7c-1.47,5-7.09,9.94-14.2,16.16-3.71,3.24-7.54,6.59-11,10.2-14.5,15-32.1,34.2-39.56,49.36A3.06,3.06,0,0,1,2047.75,483.87Z" fill="#571519"/><path d="M1966.61,620.48a3,3,0,0,1-2.79-4.27c15.67-36,44.42-70.05,72.21-103,8.37-9.91,16.28-19.28,23.73-28.58a119,119,0,0,1,27-25.1c2.29-1.59,4.94-3.2,7.75-4.92,5.23-3.18,14-8.52,14.23-11.13,0-.16-.26-.43-.38-.54-5.24-4.83-20.65-4.38-33.81,7.32a3.05,3.05,0,0,1-4.06-4.56c15.18-13.49,34-14.64,42-7.25a6.59,6.59,0,0,1,2.33,5.63c-.56,5.64-8.61,10.55-17.13,15.74-2.73,1.66-5.31,3.23-7.44,4.72a113.1,113.1,0,0,0-25.71,23.91c-7.5,9.36-15.43,18.75-23.82,28.7-27.52,32.59-56,66.29-71.29,101.48A3.06,3.06,0,0,1,1966.61,620.48Z" fill="#571519"/><path d="M845.3,584.37h-.25a3.06,3.06,0,0,1-2.8-3.28c2.13-26.53-5.31-72.56-8.82-85.52-1.6-5.91-4.08-10.19-7.22-15.6a138.32,138.32,0,0,1-12.63-27.14,3,3,0,1,1,5.77-2,130.73,130.73,0,0,0,12.14,26c3.23,5.57,6,10.38,7.83,17.06,3.59,13.27,11.19,60.39,9,87.6A3,3,0,0,1,845.3,584.37Z" fill="#571519"/><path d="M801.81,518.27a3.64,3.64,0,0,1-.56,0,3.06,3.06,0,0,1-2.44-3.56c3.69-19.89.84-24.8-2.46-30.48-3-5.22-6.46-11.13-6-26.75a2.94,2.94,0,0,1,3.14-2.95,3,3,0,0,1,3,3.14c-.42,13.87,2.42,18.76,5.17,23.49,3.74,6.45,7.28,12.55,3.18,34.67A3.05,3.05,0,0,1,801.81,518.27Z" fill="#571519"/><path d="M819.56,536.86a3,3,0,0,1-2.49-1.29c-7.81-11-16.55-20.64-44.53-26.59a3.05,3.05,0,0,1,1.27-6c30.1,6.4,40,17.38,48.24,29a3.06,3.06,0,0,1-2.49,4.82Z" fill="#571519"/><path d="M779.91,527.32a3,3,0,0,1-3-2.41c-1.89-8.85-8.18-18.23-14.27-27.3-5.83-8.7-11.34-16.92-12.22-24-.65-5.16,1.42-13.82,4-24.78,3.22-13.47,7.23-30.25,6.43-43.35-1.28-21-8.33-28.69-14.5-28.89a3.05,3.05,0,0,1,.19-6.1c5.51.18,18.52,3.91,20.4,34.62.86,14-3.27,31.27-6.59,45.14-2.27,9.54-4.43,18.54-3.92,22.6.7,5.61,5.82,13.24,11.24,21.32,6.11,9.11,13,19.43,15.16,29.42a3,3,0,0,1-2.34,3.62A2.85,2.85,0,0,1,779.91,527.32Z" fill="#571519"/><path d="M730.45,524.11a3.06,3.06,0,0,1-2.91-2.13l-.24-.76c-3.39-10.69-11.32-35.71-4.26-57.66l2.27-7c3.93-12.06,7.64-23.46,10.46-36,1.36-6.07,1.27-13.69,1.19-21.07-.16-13.18-.3-25.62,8.31-28.61a3,3,0,1,1,2,5.76c-4.46,1.55-4.34,12.34-4.22,22.78.1,7.72.19,15.71-1.33,22.47-2.88,12.83-6.64,24.36-10.61,36.56l-2.26,7c-6.47,20.09,1,43.82,4.27,53.95l.24.76a3,3,0,0,1-2,3.83A3,3,0,0,1,730.45,524.11Z" fill="#571519"/><path d="M710.46,525.71a3.06,3.06,0,0,1-2.71-1.65c-15.22-29.27-18.2-57.91-21.36-88.23-.89-8.49-1.8-17.28-3-26.34a120.62,120.62,0,0,0-3.12-13.32c-3.33-12.28-6.76-25-2.35-31.58a9.27,9.27,0,0,1,6.77-4c7.32-1,20.61,9.95,26.72,25.42,3.54,8.95,4.09,21.7,4.63,34a182.72,182.72,0,0,0,1.57,20.28c1.16,7,4.3,12.33,6.82,16.59a26.53,26.53,0,0,1,3.16,6.4,3,3,0,0,1-5.91,1.51,25.91,25.91,0,0,0-2.49-4.8c-2.64-4.45-6.25-10.55-7.6-18.71-1-6.1-1.31-13.34-1.65-21-.51-11.83-1-24.06-4.21-32.06-5.57-14.1-17-22-20.26-21.61A3.16,3.16,0,0,0,683,368c-2.87,4.3.62,17.19,3.16,26.6a117.85,117.85,0,0,1,3.28,14.11c1.21,9.15,2.13,18,3,26.51,3.24,31,6,57.81,20.71,86.05a3,3,0,0,1-1.29,4.11A3,3,0,0,1,710.46,525.71Z" fill="#571519"/><path d="M696.55,490.66a3,3,0,0,1-2.65-1.54c-8.4-14.67-27.16-32.71-42.56-46.8-3.7-3.38-7.74-6.49-11.64-9.49-7.49-5.76-13.4-10.31-15.18-15.24a8.32,8.32,0,0,1,.45-7.07c2.32-4.1,7.64-5.46,9.22-5.78,21.48-4.37,46.06,16.56,57.34,31.69a3,3,0,1,1-4.89,3.64C676.69,426.72,654,407,635.4,410.72c-2.35.47-4.45,1.62-5.11,2.8a2.2,2.2,0,0,0,0,2c1.17,3.26,7,7.73,13.16,12.48,3.82,2.93,8.14,6.26,12,9.82,16.71,15.27,35,33,43.74,48.28a3,3,0,0,1-2.65,4.56Z" fill="#571519"/><path d="M786.06,621.94a3,3,0,0,1-2.72-1.66c-17.48-34.16-48-66-77.47-96.82-9-9.41-17.51-18.29-25.58-27.17A113.12,113.12,0,0,0,653.14,474c-2.22-1.35-4.89-2.76-7.72-4.25-8.83-4.65-17.17-9.05-18.08-14.64a6.58,6.58,0,0,1,2-5.76c7.56-7.88,26.38-7.91,42.37,4.6a3.05,3.05,0,0,1-3.76,4.81c-13.86-10.85-29.27-10.34-34.21-5.19-.11.11-.37.41-.35.56.42,2.59,9.49,7.37,14.91,10.22,2.91,1.54,5.66,3,8,4.43a118.42,118.42,0,0,1,28.49,23.37c8,8.82,16.5,17.67,25.48,27.05,29.79,31.12,60.6,63.31,78.49,98.26a3.06,3.06,0,0,1-1.33,4.11A3,3,0,0,1,786.06,621.94Z" fill="#571519"/><path d="M1900.12,1140.15a3,3,0,0,1-2.19-5.17c8-8.27,56.11-48.78,70.7-49.86a3.05,3.05,0,0,1,.45,6.09c-10.59.78-55.57,36.4-66.76,48A3.05,3.05,0,0,1,1900.12,1140.15Z" fill="#571419"/><path d="M1936.34,1144.9a3.05,3.05,0,0,1-1.32-5.8c21.57-10.3,52.81-7,75.23-2.48a3.06,3.06,0,0,1-1.22,6c-21.5-4.37-51.35-7.57-71.38,2A3.06,3.06,0,0,1,1936.34,1144.9Z" fill="#571419"/><path d="M2024.82,1168.57a3.05,3.05,0,0,1-2.29-5.06c13.27-15.13,18.55-22.3,23.68-35,2.56-6.3,3.65-17.23,3.31-33.38-.23-11.44-2.55-16.16-4.47-16.74-1.52-.46-4.84,1.48-7.92,6-4.68,6.82-4.6,16.65-4.54,24.55,0,4.84.08,9-.94,12-2.9,8.72-8.91,15.76-18.9,22.17a3,3,0,1,1-3.29-5.13c8.75-5.62,14-11.65,16.41-19,.69-2.06.66-6,.62-10.07-.07-8.75-.15-19.64,5.61-28,4.54-6.63,10-9.75,14.7-8.36,5.66,1.69,8.55,9,8.82,22.45.36,17.24-.84,28.62-3.76,35.81-5.46,13.47-11,21-24.74,36.68A3.05,3.05,0,0,1,2024.82,1168.57Z" fill="#571419"/><path d="M2042.1,1175.19a3,3,0,0,1-1.87-.65,3,3,0,0,1-.52-4.28c9.58-12.23,31.53-42.41,34.36-52.4,2.15-7.61,7.46-26.9,10.29-41.46l.3-1.44c4.29-20.31,2.18-25.09,1.08-26.21-.16-.15-.46-.45-1.51-.24-13,2.61-15,17.54-16.87,32-.81,6.13-1.58,11.91-3.15,16.87-.49,1.55-.89,3-1.27,4.3-1.55,5.57-2.9,10.37-8.66,15.22a3.05,3.05,0,1,1-3.93-4.67c4.32-3.63,5.23-6.86,6.72-12.19.39-1.4.81-2.89,1.32-4.5,1.42-4.45,2.15-10,2.92-15.83,2.09-15.79,4.46-33.69,21.72-37.16a7.36,7.36,0,0,1,7,1.93c5.31,5.36,3.09,19.79.56,31.76l-.28,1.34c-2.87,14.79-8.24,34.28-10.42,42-3.34,11.84-27.3,44.12-35.42,54.49A3,3,0,0,1,2042.1,1175.19Z" fill="#571419"/><path d="M2055,1178.5a3.05,3.05,0,0,1-2.34-5,499.35,499.35,0,0,0,32.41-43.26c1.18-1.77,4-5.63,7.64-10.52,9.76-13.25,30.08-40.81,31.31-46.57.58-2.72-.59-3.39-1.09-3.67-3-1.73-10-.32-14.81,4.11-4.64,4.25-9,10-13.24,15.58a124.67,124.67,0,0,1-10.47,12.66,3.05,3.05,0,0,1-4.3-4.33,119.17,119.17,0,0,0,9.91-12c4.39-5.78,8.93-11.76,14-16.39,6.47-5.93,16.32-8.12,22-4.91,3.52,2,5,5.75,4,10.24-1.39,6.51-16.11,26.86-32.37,48.92-3.56,4.83-6.38,8.65-7.49,10.3a503.7,503.7,0,0,1-32.78,43.76A3,3,0,0,1,2055,1178.5Z" fill="#571419"/><path d="M2032.93,1197.32h-.3a3,3,0,0,1-3-3.08,3.07,3.07,0,0,1,3.08-3h.25c7.3,0,15-4,25.69-13.37,11.1-9.71,20.3-20.21,30.94-32.37l5.77-6.58c8.12-9.2,29.69-33.64,28.4-38.59-2.87-2.94-7.62-.82-9-.1a3.05,3.05,0,0,1-2.82-5.41c6.14-3.21,12.42-2.63,16.38,1.51,5.67,6-4.17,19.2-28.37,46.63q-2.94,3.33-5.76,6.56c-10.34,11.81-20.1,23-31.51,32.94C2054.24,1189.81,2044.14,1197.32,2032.93,1197.32Z" fill="#571419"/><path d="M2033.19,1197.49H2033c-4.31-.23-11.06-.83-19.61-1.59-32.44-2.86-86.73-7.66-120.57-2.8a3.05,3.05,0,0,1-.87-6c34.54-5,89.28-.12,122,2.77,8.49.75,15.19,1.34,19.39,1.56a3.05,3.05,0,0,1-.16,6.1Z" fill="#571419"/><path d="M858.21,1145.63a3.05,3.05,0,0,1-2.2-.93c-7.71-8-34.76-30.08-53-40.5a3,3,0,0,1,3-5.29c18.69,10.66,46.45,33.33,54.37,41.55a3,3,0,0,1-.08,4.31A3,3,0,0,1,858.21,1145.63Z" fill="#571419"/><path d="M825.63,1153.59a3.06,3.06,0,0,1-1.31-.3c-20-9.55-49.87-6.36-71.39-2a3.07,3.07,0,0,1-3.59-2.39,3,3,0,0,1,2.38-3.59c22.42-4.55,53.67-7.82,75.23,2.47a3.05,3.05,0,0,1-1.32,5.8Z" fill="#571419"/><path d="M737.15,1177.26a3.05,3.05,0,0,1-2.3-1c-13.77-15.71-19.28-23.21-24.75-36.68-2.91-7.19-4.11-18.57-3.76-35.81.28-13.41,3.17-20.76,8.83-22.45,4.66-1.4,10.15,1.73,14.7,8.36,5.76,8.4,5.67,19.3,5.61,28,0,4.11-.07,8,.62,10.06,2.44,7.33,7.66,13.35,16.41,19a3,3,0,1,1-3.3,5.13c-10-6.41-16-13.45-18.9-22.17-1-3-1-7.2-.93-12,.06-7.9.14-17.73-4.54-24.55-3.08-4.5-6.38-6.41-7.92-6-1.92.57-4.24,5.3-4.48,16.74-.33,16.15.75,27.07,3.31,33.39,5.14,12.65,10.42,19.82,23.69,35a3.05,3.05,0,0,1-2.29,5.06Z" fill="#571419"/><path d="M719.86,1183.88a3,3,0,0,1-2.4-1.17c-8.13-10.37-32.08-42.67-35.43-54.5-2.17-7.68-7.54-27.14-10.41-42l-.28-1.33c-2.53-12-4.76-26.41.55-31.77a7.4,7.4,0,0,1,7.05-1.93c17.25,3.47,19.62,21.37,21.71,37.16.78,5.86,1.51,11.38,2.92,15.83.51,1.61.93,3.1,1.32,4.49,1.5,5.34,2.4,8.56,6.72,12.2a3,3,0,0,1-3.92,4.67c-5.76-4.85-7.11-9.66-8.67-15.22-.38-1.33-.77-2.76-1.26-4.3-1.58-5-2.34-10.74-3.15-16.87-1.92-14.44-3.89-29.37-16.87-32-1.07-.22-1.36.08-1.51.24-1.11,1.12-3.21,5.91,1.08,26.22l.3,1.43c2.83,14.59,8.14,33.86,10.29,41.46,2.82,10,24.78,40.16,34.36,52.4a3.05,3.05,0,0,1-2.4,4.93Z" fill="#571419"/><path d="M707,1187.19a3,3,0,0,1-2.34-1.09,505.9,505.9,0,0,1-32.78-43.77c-1.12-1.65-3.94-5.48-7.51-10.32-16.25-22.06-31-42.39-32.35-48.89-1-4.5.51-8.24,4-10.25,5.64-3.22,15.49-1,22,4.91,5,4.63,9.58,10.6,14,16.37a119.57,119.57,0,0,0,9.93,12,3.05,3.05,0,0,1-4.3,4.33,123.77,123.77,0,0,1-10.48-12.67c-4.23-5.57-8.6-11.32-13.23-15.57-4.84-4.43-11.8-5.82-14.81-4.11-.5.29-1.67.95-1.09,3.68,1.22,5.75,21.53,33.3,31.29,46.54,3.62,4.9,6.47,8.77,7.66,10.54a499.77,499.77,0,0,0,32.4,43.26,3,3,0,0,1-2.34,5Z" fill="#571419"/><path d="M729,1206c-11.2,0-21.3-7.51-29.72-14.88-11.43-10-21.21-21.17-31.56-33-1.87-2.13-3.76-4.3-5.71-6.51-24.2-27.42-34-40.66-28.37-46.61,4-4.15,10.23-4.73,16.38-1.52a3.05,3.05,0,1,1-2.83,5.41c-1.38-.73-6.13-2.84-9.13.31-1.16,4.75,20.41,29.18,28.53,38.38l5.72,6.52c10.66,12.18,19.86,22.7,31,32.43,10.69,9.36,18.39,13.37,25.68,13.37h.29a3.05,3.05,0,0,1,0,6.1Z" fill="#571419"/><path d="M728.78,1206.18a3.05,3.05,0,0,1-.16-6.1c4.2-.22,10.9-.81,19.37-1.56,30.33-2.68,81.1-7.18,115.78-3.54a3,3,0,0,1-.64,6.06c-34.09-3.56-84.49.89-114.6,3.55-8.54.76-15.28,1.36-19.59,1.59Z" fill="#571419"/><path d="M1379.37,842.63l-1.67,0c-33.64-.78-68.52-18.93-81.14-42.22-6.44-11.89-6.42-23.7.06-34.17a3.05,3.05,0,0,1,5.19,3.21c-6.65,10.74-3.61,21.18.11,28.05,11.66,21.52,44.3,38.3,75.92,39l1.46,0c29.22,0,58.53-20,70.26-39.8,6.21-10.44,7.33-20.19,3.16-27.45a3.05,3.05,0,0,1,5.29-3c5.31,9.25,4.18,21.18-3.2,33.6C1442.37,820.79,1411.87,842.62,1379.37,842.63Z" fill="#571419"/><path d="M2164.08,433.58c-14.69,0-26-4-33.83-11.9-12.28-12.45-14.73-33.8-6.92-60.12,6.65-22.41,21.73-47.72,44.11-51.6,18.23-3.15,37,8.27,55.86,34a3.05,3.05,0,0,1-4.93,3.6c-17.08-23.35-34.34-34.27-49.89-31.58-19.63,3.4-33.17,26.68-39.3,47.32-7,23.75-5.08,43.47,5.41,54.1,11.33,11.48,33,13.12,62.58,4.75a3.05,3.05,0,0,1,1.66,5.87Q2179.13,433.58,2164.08,433.58Z" fill="#571419"/><path d="M2112.63,282.51a105.17,105.17,0,0,1-32.11-5.35c-25.38-8.4-41.79-23.17-45-40.54-3.54-19,8-39.56,34.15-61.07a3.05,3.05,0,0,1,3.87,4.72c-24,19.7-35.08,38.8-32,55.23,2.82,15.12,17.74,28.19,40.94,35.86,20.1,6.64,48.76,8.92,63.48-6.49,11.66-12.23,11.93-34.07.77-63.15a3,3,0,1,1,5.69-2.19c12.24,31.89,11.55,55.29-2,69.55C2141,278.9,2127,282.51,2112.63,282.51Z" fill="#571419"/><path d="M1956.14,375.44c-16.63,0-34.84-10.74-54.29-32.06a3.05,3.05,0,0,1,4.51-4.12c21,23.05,40.79,33.15,57.15,29.21,15-3.6,27.28-19.11,33.69-42.53,5.31-19.4,6.13-46.84-9.06-60.35-12.19-10.87-33-10.8-60.25.17a3,3,0,1,1-2.28-5.65c37.29-15,56.79-7.81,66.59.92,17.25,15.36,16.94,44.43,10.89,66.52-7,25.63-20.93,42.71-38.15,46.85A37.1,37.1,0,0,1,1956.14,375.44Z" fill="#571419"/><path d="M1989.88,469a2.71,2.71,0,0,1-.84-.12l-112.33-32a3.09,3.09,0,0,1-1.83-1.45,3,3,0,0,1-.27-2.32L1901,340.49a3,3,0,1,1,5.86,1.67l-25.59,89.66L1990.71,463a3,3,0,0,1-.83,6Z" fill="#571419"/><path d="M2171.93,521a2.92,2.92,0,0,1-.83-.12l-109-31.12a3,3,0,1,1,1.67-5.86l106.1,30.28,25.68-89.95a3,3,0,0,1,5.86,1.67l-26.5,92.89A3.06,3.06,0,0,1,2171.93,521Z" fill="#571419"/><path d="M2221,349a3.06,3.06,0,0,1-2.94-3.89l32.34-113.3-102-29.1a3.05,3.05,0,0,1,1.68-5.87L2255,226.74a3,3,0,0,1,2.09,3.77L2224,346.75A3.05,3.05,0,0,1,2221,349Z" fill="#571419"/><path d="M1926.31,266.11a2.71,2.71,0,0,1-.84-.12,3,3,0,0,1-2.1-3.76l33.5-117.41a3.05,3.05,0,0,1,3.77-2.1l112,32a3,3,0,1,1-1.67,5.86L1961.9,149.42,1929.24,263.9A3.06,3.06,0,0,1,1926.31,266.11Z" fill="#571419"/><path d="M535.79,428.82a32.91,32.91,0,0,1-4.06-.25c-16.44-2-31.23-17-38.59-39.05-10.1-30.26-6.42-59.89,8.93-72.06,9.24-7.3,26.71-12,57.55,7a3,3,0,0,1-3.2,5.19c-22-13.61-39.52-16.18-50.56-7.44-13.38,10.59-16.23,37.46-6.93,65.34,6.6,19.79,19.46,33.18,33.56,34.93s28-7.62,40.47-27.08a3.05,3.05,0,1,1,5.14,3.29C562.59,423,547.12,428.82,535.79,428.82Z" fill="#571419"/><path d="M887.7,342.17c-10.64,0-22.81-3.78-35.8-11.27a3,3,0,0,1,3-5.28c20.28,11.69,38,13.65,49.8,5.51,11.55-7.93,16.76-25.22,13.62-45.13-4.53-28.69-19.59-51-36.63-54.33-14.19-2.74-28.79,7.65-42.19,30.06a3,3,0,1,1-5.23-3.13c18.74-31.35,36.77-35.21,48.58-32.92,19.51,3.77,36.57,28.19,41.5,59.37,3.56,22.58-2.49,41.69-16.19,51.11A35.54,35.54,0,0,1,887.7,342.17Z" fill="#571419"/><path d="M558.94,330.57a3,3,0,0,1-3-2.33L527.8,212.75a3,3,0,0,1,.35-2.31,3.05,3.05,0,0,1,1.89-1.38L807.7,141.34a3.05,3.05,0,0,1,3.68,2.24l28.35,116.16a3,3,0,1,1-5.92,1.45L806.18,148,534.45,214.26,561.91,326.8a3.06,3.06,0,0,1-3,3.77Z" fill="#571419"/><path d="M602,507.19a3.06,3.06,0,0,1-3-2.33L572.86,397.41a3.05,3.05,0,0,1,5.93-1.45l25.5,104.49L667.67,485a3.05,3.05,0,0,1,1.45,5.93L602.77,507.1A3,3,0,0,1,602,507.19Z" fill="#571419"/><path d="M754.88,469.91a3,3,0,0,1-.72-6L876,434.18,850.34,328.94a3.05,3.05,0,0,1,5.93-1.45l26.4,108.2a3.06,3.06,0,0,1-.36,2.31,3,3,0,0,1-1.88,1.38L755.6,469.83A3.53,3.53,0,0,1,754.88,469.91Z" fill="#571419"/><path d="M1933.15,1033.69a33.77,33.77,0,0,1-12.51-2.34c-14.78-5.84-25.11-22.52-27-43.56-2.59-29.29,7.23-54.54,24.44-62.83,10.7-5.15,28.87-6.12,54.72,18.52a3,3,0,1,1-4.2,4.41c-18.47-17.59-35-23.62-47.87-17.43-14.7,7.08-23.34,30.44-21,56.8,1.65,18.72,10.51,33.44,23.13,38.42,13.11,5.17,29.52-.24,46.23-15.22a3.05,3.05,0,0,1,4.07,4.55C1959.44,1027.32,1945.63,1033.69,1933.15,1033.69Z" fill="#571419"/><path d="M2146,838.65a3,3,0,0,1-2.17-.91,3.06,3.06,0,0,1,0-4.31c20.27-20,28.31-39,22.64-53.62-5.32-13.67-22.46-22.68-44.74-23.51-26.9-1-49,7.93-56.24,22.75-6.82,13.92-.86,32.69,17.22,54.26a3.05,3.05,0,1,1-4.68,3.92c-24.94-29.77-23.57-49.53-18-60.87,8.31-17,32.58-27.22,61.95-26.16,24.75.92,44,11.42,50.19,27.4,4.67,12,4.3,32.2-24,60.17A3,3,0,0,1,2146,838.65Z" fill="#571419"/><path d="M2254.47,1019.19a3.06,3.06,0,0,1-3-3.05l-.07-177.3h-105.3a3.05,3.05,0,0,1,0-6.1H2254.4a3,3,0,0,1,3,3l.07,180.35a3,3,0,0,1-3.05,3.05Z" fill="#571419"/><path d="M1971.52,949.33a3,3,0,0,1-3-3.05V835.79a3,3,0,0,1,3-3h0l109.15.17a3.05,3.05,0,0,1,0,6.1h0l-106.1-.17V946.28A3,3,0,0,1,1971.52,949.33Z" fill="#571419"/><path d="M2028.18,1118.28h-56.66a3,3,0,0,1-3-3V1012.44a3,3,0,1,1,6.1,0v99.74h53.61a3,3,0,0,1,0,6.1Z" fill="#571419"/><path d="M2254.4,1118.28H2120.6a3.05,3.05,0,1,1,0-6.1h130.75V1011.72a3,3,0,1,1,6.1,0v103.51A3,3,0,0,1,2254.4,1118.28Z" fill="#571419"/><path d="M839.38,1038.9c-12.48,0-26.29-6.38-40-18.69a3,3,0,1,1,4.07-4.54c16.71,15,33.12,20.38,46.22,15.22,12.62-5,21.49-19.71,23.14-38.42,2.33-26.36-6.32-49.72-21-56.8-12.85-6.18-29.4-.16-47.86,17.43a3,3,0,1,1-4.21-4.41c25.85-24.64,44-23.67,54.72-18.52,17.21,8.29,27,33.54,24.45,62.83-1.86,21-12.2,37.72-27,43.56A34,34,0,0,1,839.38,1038.9Z" fill="#571419"/><path d="M626.54,843.86a3,3,0,0,1-2.14-.88c-28.32-28-28.7-48.17-24-60.18,6.22-16,25.45-26.47,50.2-27.39,29.35-1.07,53.63,9.18,61.94,26.16,5.55,11.34,6.93,31.1-18,60.86a3.05,3.05,0,0,1-4.68-3.92c18.08-21.57,24-40.33,17.22-54.26-7.26-14.82-29.32-23.77-56.25-22.74-22.27.82-39.41,9.83-44.73,23.5-5.67,14.57,2.37,33.62,22.63,53.63a3,3,0,0,1,0,4.31A3,3,0,0,1,626.54,843.86Z" fill="#571419"/><path d="M518.07,1024.39h0a3,3,0,0,1-3.05-3.05L515.08,841a3,3,0,0,1,3-3H626.48a3,3,0,0,1,0,6.1H521.18l-.06,177.3A3,3,0,0,1,518.07,1024.39Z" fill="#571419"/><path d="M801,954.53a3,3,0,0,1-3-3V844.05l-106.1.17h0a3.05,3.05,0,0,1,0-6.1L801,837.94h0a3.06,3.06,0,0,1,3,3V951.48A3,3,0,0,1,801,954.53Z" fill="#571419"/><path d="M733.07,1124.49a3.06,3.06,0,0,1,0-6.11l64.93-1v-99.78a3,3,0,1,1,6.1,0v102.79a3,3,0,0,1-3,3l-67.94,1Z" fill="#571419"/><path d="M638.58,1124.21h0l-120.45-.72a3,3,0,0,1-3-3V1016.93a3,3,0,0,1,6.1,0v100.48l117.41.69a3.06,3.06,0,0,1,0,6.11Z" fill="#571419"/></svg>