<svg xmlns="http://www.w3.org/2000/svg" viewBox="0 0 2745 1830"><rect x="0.17" y="2.45" width="2744.66" height="1825.1" fill="#bbf2e0"/><path d="M837.24,1169.45c-10,17-27.87,88.49-32.48,144l46.33,3.25s.36-26.89,15.43-64.13,18.62-63,18.62-63S845.54,1155.37,837.24,1169.45Z" fill="#5a646c"/><path d="M1776.88,1196.38c9.19,32.19,12.29,239.63,12.29,239.63l213.82,8.72s-12-144.2-22.56-226.35c-7.87-61.41-18.47-144.48-33.75-183.54l-278.9-24.73,12.65,92S1767.68,1164.2,1776.88,1196.38Z" fill="#5a646c"/><path d="M1564.3,735.43c-.57-31.91,1.71-95.17,15.39-108.28s69-38.18,69-38.18,35.9-19.38,40.47-29.07,17.09-12.54,17.09-12.54-13.68,35.34,37,59.84l9.69,56.42,12.54-59.84s14.25-17.09,21.66-29.06,12-43.88,12-43.88l28.49,41,46-22.86s64.51-.15,93.58,24.93,108.87,77.72,108.87,77.72l-16.85-88.23s-10.28-8.31-11.58-15.29-3-21.82-3-21.82,12.06-1.12,25.26-10.88,19-33.73,19-33.73,21.5,14.84,23.55,34.6c0,0,52.63,69.42,67,112.51s23.1,79.72,20.78,97.09-16.19,28.21-35.05,31.56-80.73-1.81-111.76-8.35-71.35-7.66-119.37-39.11c0,0-15.94,95.62-18.8,129.13s21.55,192.09,37.88,210.11c0,0-19.28,23.81-44.29,41.46-16.65,11.75-37.73,17.48-50.42,23.74l-85.79-37.21s-48.87-15.88-63.86-18.81-30.16-25.86-30.16-25.86l-4.4-37.8s27.43-94.3-20.53-165.17S1564.87,767.35,1564.3,735.43Z" fill="#fff"/><path d="M1680,324.21c.64,18.18-20.42,99.51-20.42,99.51s-3.19,37.64,16.27,60.6,25.84,23,30,45c0,0-.64,18.82-2.24,23s6.38,43.06,41.46,53.27l8,54.22,11.48-54.86s29.66-42.1,33.49-55.82a39.25,39.25,0,0,0-1.6-25.19s-8.29-30.94-4.14-38.28,16-27.11,13.71-41.46c0,0,7-.64,9.57-6.7s-5.1-33.81-5.1-33.81-4.78,10.53-18.18,2.87-31.26-24.24-39.87-36.68c-5.06-7.31-25.89-33.48-45-45.66C1694,315.62,1679.68,316.71,1680,324.21Z" fill="#fdebdf"/><path d="M2014.4,412.22c.84-9.74-3.11-17.13-3-28.81s5.57-41.52,20.43-23.81c0,0-6,23.57-1.93,31.95s18.5,47.45,27.42,54,23,21.8,30.48,39.65c0,0-6.9,36.87-36.49,39.73,0,0-5.92-27.68-13.89-26.45s-20.46.73-32.2-1.9-25.69-4.71-31.22-4.29-15.77-.35-10.8-13.64c0,0-10.24-13.21-2.92-19.69,0,0-13.09-13.62,1.21-21.2,0,0-11.13-10.06-4.78-16.16s22.14-7.79,28.49-11.86S2005.89,409,2014.4,412.22Z" fill="#fdebdf"/><path d="M1709.64,472l47.74-7.22s1.8,20.66-18.25,25.27S1709.64,472,1709.64,472Z" fill="#fff"/><path d="M1811.73,1092.19c-.91,2.74-1.09,1.52,0,3.69Z" fill="#fff"/><path d="M1750.54,428.31c-.53-3.33,5.44-6.82,13.35-7.8s14.73.92,15.27,4.25-5.44,6.82-13.35,7.8S1751.07,431.63,1750.54,428.31Z" fill="#f9aaa7"/><path d="M1680.27,438.17c-.53-3.33,5.44-6.82,13.35-7.8s14.74.93,15.27,4.25-5.44,6.82-13.35,7.8S1680.8,441.5,1680.27,438.17Z" fill="#f9aaa7"/><path d="M1723.45,412c6.16,6.52,14.8,31.35,5.11,32.58,0,0-8.28-5.81-6.69-10.74a47.35,47.35,0,0,0,2.46-13.21C1724.33,417.28,1717.29,405.48,1723.45,412Z" fill="#f9aaa7"/><path d="M994.77,520.94c8-2.06,32-9.12,43.3-40.48s19.73-90.19,41.22-85.26c0,0,16.91-5.28,23.61,10.93s20.43,73.63,41.57,83.49l3.53,18.32s8.1-18.32,14.08-15.14,8.46,40.16-11.27,49.67l-9.16,20.79s1.77,63.42,23.26,83.85c0,0-21.49,82.09-47.92,92.31s-43.68-31-50-41.23-28.9-58.48-28.9-58.48,6-7.75,4.23-19.73S1030,593.56,1030,593.56s-23.61-21.14-24.66-34.53c0,0-19.74-4.58-24.66-16.56S968.66,507.15,994.77,520.94Z" fill="#fdebdf"/><path d="M922.68,640.49s-25.46-34.36-11-64.93,34.43-64.69,33.47-85,0-66.62,12.88-85,39.68-63.93,99-51.22c0,0,25.54,5.38,31,13.45,0,0,13-6.87,30.18,3.62s57.54,44.63,73.85,99.15a654.27,654.27,0,0,1,4.43,106s8.28,30.33,29.79,50,30.84,36,24.1,57.79c0,0-22-14-38.61-17.88s-46.65-16.84-55.72-31.1-13.22-73.34-13.22-73.34l6.49-21s15.28-8.55,17.1-18.4,3.88-28.24-4.15-28.5-13,7.51-15.29,13l-4.92-18.92s-13.63-9.1-20.74-28.18-19.77-56.18-19.77-56.18-3.38-7.59-18.46-9-21.26,10.26-26.55,27.13-10.5,58.14-26.15,74.69S1001,521.14,995.7,522.18s-8.17-11-14.81-6.31-5.29,28.21,6.55,34.84,16.89,5.73,16.89,5.73,9,29.15,28.73,38.62c0,0,17.92,33.62,7.47,44.82s-30.14,8.47-42.09,5.23-32.13-9.71-46.81-10.21S922.68,640.49,922.68,640.49Z" fill="#7d38ce"/><path d="M728.73,673.46s5.89-34.54,3.84-39.25-6.35-7.06-3.38-22.56,5.17-30.39,5-44,.65-29.17,10-34.09,10.19-4.72,10.19-4.72,3.88-17.49,20.87-13L782,490.19s-.13-44.07,9.31-41.92,9.52,36.43,10.61,63.81-2.85,38.08,7.89,21.34S838.52,471,850.2,467.77s8.25,13.14-2.67,34-29.48,69-27.14,80c0,0,7.46,16.47,2,22.67s-39.29,35.35-39.29,35.35-7.22,25.68-5.18,42.37a38.11,38.11,0,0,1-21.55,2.47C744.5,682.39,728.73,673.46,728.73,673.46Z" fill="#fdebdf"/><path d="M909.91,825.23s29.72,144.85,21.3,172-77.72,123.81-95.3,170.17c.13,7.72,23.3,29.11,50.05,24.3,0,0,59-89.17,105.63-90.54s135.83-39.1,135.14-59.68-14.41-95.35-28.13-105.64-32.23-157.08,7.55-172.86,114.56-30.18,137.88,18.53,19.89,118,3.43,159.13-11.67,100.84-11.67,100.84,60.65,3.8,77.11,4.48c0,0-9.16-63.9-12.59-95.46s-13.75-197.12-19.24-223.87-11.66-34.3-33.61-44.59-84.38-34.3-84.38-34.3-23.32,93.29-48.69,96.72-52.14-52.13-59.68-69.28-15.78-35.67-15.78-35.67.23,9.06-19,9.81S954.77,629,935.17,636.56s-58,44.84-76.47,69.33S761.63,825.2,761.63,825.2s-2.39-22.73.68-41.61,16.87-100.11,16.87-100.11-23.53,4.09-33.57-1.7-20.73-12-20.73-12-71.6,191.71-71.24,225,15.56,71.64,40.53,76,56.08-10.86,91.18-40.89,85-68.28,85-68.28Z" fill="#e08281"/><path d="M1098,517.66c-.35-3.35,5.82-6.5,13.76-7s14.67,1.75,15,5.11-5.82,6.5-13.76,7S1098.31,521,1098,517.66Z" fill="#f9aaa7"/><path d="M1024.77,531c-.72-3.29,5-7.14,12.86-8.59s14.77,0,15.5,3.33-5,7.13-12.84,8.58S1025.51,534.25,1024.77,531Z" fill="#f9aaa7"/><path d="M1075.63,498.55s-7.35,30.78,4.69,35c0,0,7.8-4.91,4.68-9.81s-7.36-10.93-7.36-14.28S1075.63,498.55,1075.63,498.55Z" fill="#f9aaa7"/><path d="M850.22,1317.73s24.57-107.08,36.67-135.67,20.89-61.59,45.08-73.68,100.09-25.3,126.48-36.84,35.74-20.35,40.14-29.15,6-13.93,11.76-17.47c0,0,12.47,27,26.81,41.75s40,28.75,40,28.75l14.56,73.78s-9-68.64-2.87-74.82,26.72-24.6,32.37-32.8c7.56-11,21-23.87,20.35-36.66,0,0,11,2.7,15.38,11.31,0,0,64.71,6,87.67,9s89.28,10.91,101,9.43,83.13,2,109.87-9.88c0,0-6,20.13-20,25.56s-169.65,77.13-178.74,121.65-29.33,96.1-37.28,129.8-23,105-27.31,115.67c-2,5-51.45,1.87-103.27.94-59.5-1.06-122.26-.41-122.26-.41l-14.26-93.77-9.53-11.57-37.6-4.26Z" fill="#fff"/><path d="M1311.07,1024.67s210.28-19.71,245.83-41.12c0,0,19.12,34,.79,59-21.76,29.74-244.89.89-244.89.89Z" fill="#4e4e4e"/><path d="M1311.48,491c-10.45,7.88-75.29,22.76-89.6,33.6s-26.54,30.61-26.54,30.61-.65,33,8.66,44.66,46.51,43.5,48.43,58.13a107.27,107.27,0,0,1-.08,27.37s17.19,5.35,27.7,32.49c6.51,16.83,7,41.23,9.74,80.37,7.28,102.25,21.89,226.79,21.89,226.79s149.89,42,246.47-23.6l7.33-267.61s1.81-89.2,13.24-103.26S1611.53,608,1611.53,608s8.8-68.55,3.78-81.31-8.89-17.39-30.53-20.48-51-10.05-63.39-13.53-30.92-15.07-30.92-15.07,7,32.08-.78,54.88-32.46,64.94-59.91,70-66.48-31.31-75-40.2-22.42-39.42-22.42-39.42S1321.92,483.17,1311.48,491Z" fill="#85b3cf"/><path d="M1532,895.15c-7.54-5.57-14.94,2.17-16,16.62s7.62,46.88,29.43,46.88c0,0,7.65,26.61,13.1,33.43,0,0,12.52,37.44-14.46,71.24,0,0,19.71,35.42,66.13,55,42.6,18,72.26-13.79,77.28-25.91s15.39-32,6.3-43.31c0,0-21.76-21.06-18.37-51.63,0,0,22.27-39.22,25.19-47.33,0,0,16.88-3.9,23-14.6s7.89-32.91,4.33-40.38-10.12-12-18.88-2.92c0,0-19.92-17.51-38.43-22.7s-15.81,5.31-29.12,4.35-49.32-14-56.46-21.1c0,0,11.43,18.33,23.34,23.27,0,0-1.12,5.17-9.89,3.15s-33.7-15.51-44-24.94c0,0-1.8,20.45-18.2,32.58C1536.29,886.84,1533.22,896,1532,895.15Z" fill="#fdebdf"/><path d="M1544.9,905.69c-6.14-7.65-9.9-9.23-4.05-16.43S1554.58,866.54,1553,853c0,0,36.23,30.61,52.89,24.31,0,0-19.81-18.68-20.71-25.43,0,0,45.81,32.09,76.06,16.87,0,0,32.29,5.43,36.72,23.82,0,0,6,13.52,6,21.72,0,0,6-16.18,5.32-19.28s12.63-9.08,17.5-2c0,0-1.33-15.95,4.21-25.71s10.63-28.13,8.2-41.87-12.39-40.6-15.21-47.33,1.88-6.92-12.55-25.82S1665,718.08,1636.17,740c0,0-26.18-21.8-50.65-12.62s-57.48,22.84-73.36,60.88c0,0-15.29,46.51.9,80.39,0,0,2.5,22.63,10.2,30.91C1523.26,899.51,1529.39,896.9,1544.9,905.69Z" fill="#e82d5e"/><path d="M1924.63,1424.15c-9.91-5.29-19.51-7.16-28.19,6.38s-15.23,28.73-27,39.06-22,23.05-10.4,25.31,27.21-7,35.53-15.26c0,0-23.86,39.56-24.36,47.84s17,.54,24-8.15c0,0,19-2.67,27.69-3.24s13.74-3.92,17.78-3.4,13.5.21,21.2-8.83,20.16-43.6,22.25-50.4,1.73-6.63-2.75-13.63S1933.08,1413,1924.63,1424.15Z" fill="#fdebdf"/><path d="M1610.71,1511.58s8.84-3.12,26.22,5.46,47.33,1.48,64.6-.39c0,0,27.51-7.94,46.86,7.07s40,27.8,44.47,23.36,7.7-5.46-6.55-18.82-35.67-27.81-35.67-27.81,9-4.85,21.42,2,39.49,27.38,48.56,28,21.12-2.43,18.24-7.88-24-18.64-24-18.64,30.15,14.31,37.74,13.29,14.56-4.75,13.31-7.8-5.38-6-5.38-6,2.92-4.93-2.28-10.64-48.87-31.91-48.87-31.91,17.28-8.34,8.44-14.15-29.52-2.11-34.63-1.32c0,0-13.18-6.07-31.86-2.29s-88.22,17.75-107.71,16.32-35.33-2.68-35.33-2.68-9.12,13.89-10.41,22.52,8,33.32,8,33.32Z" fill="#fdebdf"/><path d="M1440.12,1399c.6,20.58-5.07,1.16,2.2,35.06,0,0,169.13,12.15,181.17,3.91l178.1-1.82,3.36-69.41,4.36-77.13s80.9,112.19,103.83,112.51l3,16.85s59.76,2.29,67.41,24.44l-8.2,32.56-6.57,14.77s7.51,2.45,22-6.86,40.16-26.55,42.35-50.62-11.71-36.57-22-58.68-51.51-72.73-69.3-99.29S1882.57,1148,1862.65,1121s-70.76-36.29-84.87-39.15c0,0-34.25-15.9-44.84-16.72-17.39-1.33-37.72-14.44-37.72-14.44a94.78,94.78,0,0,1-10.66,47.17c-12,22.34-50.55,25.07-71.45,20.05-33.92-8.14-63.23-41.8-69.58-54.72,0,0-35.15,15.09-67.2,22.69s-97.12,17.27-109.39,77.3-32.68,99.27-35.22,114Z" fill="#e08381"/><path d="M1347.16,1230.94c-16.65,49.94-41.25,144-50.33,180.36s-16.65,66-2,85.62,48.53,18.35,160.25,27.11,165,4,173.53-3.3l-.29-7.39-19.15-2s-8.25-17.93-7.35-28.25,2.72-27,9.81-26.35,12.74,1.71,12.74,1.71-1.89-5-4.64-7-9.24-.77-9.24-.77-128.51-16.54-153.85-20.57-24.4,0-24.4,0l31.17-128.94S1363.81,1181,1347.16,1230.94Z" fill="#e08381"/><path d="M1646,934.8c0-4.52,6.33-8.18,14.14-8.18s14.14,3.66,14.14,8.18-6.33,8.18-14.14,8.18S1646,939.32,1646,934.8Z" fill="#f9aaa7"/><path d="M1565.14,932.58c0-4.52,6.33-8.18,14.15-8.18s14.13,3.66,14.13,8.18-6.33,8.18-14.13,8.18S1565.14,937.09,1565.14,932.58Z" fill="#f9aaa7"/><path d="M1619.25,906.75c11,11.6,11.55,19.87,5.49,38.86,0,0-11.52-3.23-9.5-9.5s6.67-10.7,6.47-15.76S1612.65,899.81,1619.25,906.75Z" fill="#f9aaa7"/><path d="M1695.15,1048.32c10.36-3.26,29.94-17.84,42.78-19.65s54.48,1.49,66,22.51c0,0,5.08,7.52,11.74,7.47s13.82,11.29,13.78,25.19c0,0,15.48,10.75,15.56,19.88s-2.78,10.93-2.78,10.93,8.13,2.24,9.62,5.62-2,16.89-8.46,22.36-22.77,12.64-32.36,10.1c0,0-10.44-1-14,1.18s-3.83,4.5-8.62,4.91-12-8.32-10.26-20.56,12.31-42.2,10.09-49.42-12.43-7.24-17.23-10.2c0,0-14.42-4.29-16.85,7.82s-7.74,24.57-14.73,25.9-13-4.83-5.9-26,2.54-15.33,1.35-21.28c0,0-9.64-.37-16.31-3.71S1689.08,1050.23,1695.15,1048.32Z" fill="#fdebdf"/><path d="M1324,284.85c.31,9.61-3.3,31.52-14.1,40.82l-3.6,8.41s-14.71-5.1-14.11,12.31,16.21,39.92,30.92,38.72c0,0,8.71,21,13.81,25.81,0,0,6.9,46.83-4.5,61.24,0,0,2.37,18.24,27.18,35.67l41.19,23.42,23.08,63.65-2.56-68.38s21.54-19.88,32.92-36.6,13.6-30.09,13.6-30.09-14.16-13.93-15-28.53-.47-24.87-.47-24.87,13.71-31.7,15.15-38.26c0,0,15.82-3.85,21.16-12.48s6.25-24.73,3.06-35.2-7.62-12.81-16.23-4.74c0,0-7.47-13.41-11.3-21.25s-25.12-17-41.56-7.37c-13.45,7.88-58.34,5.33-67.63-2.5,0,0,2.33,9.78,6.64,11C1361.67,295.61,1348.14,297.42,1324,284.85Z" fill="#fdebdf"/><path d="M1310.55,330.88c6-4.09,16.09-28.92,14.18-45.29,0,0,18.18,15.47,39.47,10.83,0,0-6.32,1-9-12.38,0,0,39.51,20.65,67.44,3.52,0,0,35.6-4,43.24,13.75s4.6,30.39,4.6,30.39-3.28-12.55,5.45-16.64,10-4.25,10-4.25a369.42,369.42,0,0,0,4-48.65c.29-25.47-11.91-40.82-14.21-49.7s-32.58-65.19-78.41-38.46c0,0-26.2-18.28-53.48-7.09s-55.36,51.08-60.73,63.71c-11.56,27.18-5.29,55.52,4,70,0,0,1.36,20.19,10.65,29.74C1297.73,330.34,1304.54,335,1310.55,330.88Z" fill="#3dd8ac"/><path d="M1336.85,458.9a38,38,0,0,0-6,16s11.36,32.81,68.6,55.39l23.86,49.26-1.24-53.39s28.35-28,35.69-39.47,9.66-26.95,9.66-26.95l-13-19.05s9.77-5.91,19.14,4,19.77,26.17,21.53,41.61-7.8,65.74-24.76,86S1441,598.53,1430,601.39c-18.71,4.86-27.39-5.34-33-5.66-8.88-.51-54.77-37.09-61.43-61.84,0,0-9.45-16.45-16.93-28.18s-8.85-20.63-4.16-28.9S1342,451.5,1336.85,458.9Z" fill="#fff"/><path d="M1413,355.78c-.12-4.52,6.12-8.34,13.93-8.54s14.23,3.3,14.35,7.82-6.13,8.34-13.93,8.54S1413.14,360.3,1413,355.78Z" fill="#f9aaa7"/><path d="M1338.08,361.37c-.26-4.52,5.86-8.53,13.65-9s14.33,2.86,14.59,7.37-5.86,8.53-13.67,9S1338.33,365.88,1338.08,361.37Z" fill="#f9aaa7"/><path d="M1388.68,330.87c5.64,3.47,12.79,23.2,8,39,0,0-11.06-5-8.45-11.71a101.33,101.33,0,0,0,4.11-14.09S1383,327.4,1388.68,330.87Z" fill="#f9aaa7"/><path d="M1374.3,391.69l48-4.15s-5,16.59-20.57,19.44S1374.3,391.69,1374.3,391.69Z" fill="#fff"/><path d="M1092.56,914.74c-11.36-6.55-22-4.53-21.24,11.81s14.16,43.21,29.78,43.93c0,0,11.25,20.7,13.06,26.14s-.36,33-.36,33,6.15,35.84,69,70.07c0,0,26.16-25.39,34.67-34.39,11.65-12.32,26.76-29.91,25.59-35.76s-.39-30.78,2-36.24,13.56-28.48,14.84-33.1,8,3.33,17.43-7.18,14.62-23.59,13.85-35.13-2.82-20.51-10.26-17.95-12.56,13.08-12.56,13.08-12-6.92-12.31-12.57,8.49-29.1-1-30.68c0,0-8.75-22.82-14.81-31.51s-24-3.94-50.7,6.34c-35.18,13.55-77.29-9.76-76.5-4.22s-4.14,35-4.39,47.24S1095.27,916.3,1092.56,914.74Z" fill="#fdebdf"/><path d="M1149.65,850.89c37.46,1.11,67.06-7.65,76.77-21.4,0,0,17.38,29.46,27.67,39.73,0,0,2,21.53-2.15,28.71,0,0,11.2,19.34,17.9,12.57s10.41-11.12,10.41-11.12,8.22-22.26,9.19-36.29,2.34-45.3-12.14-74.7-49-34-57.23-32c0,0-35.21-24.52-72.45-15.58-22.35,5.36-55.93,28.38-68.1,53.21-13.68,27.94-18.82,43.56-15.31,77.51s6.27,35.15,13,40c0,0,7.31-5.92,14.28,6.42,3.22,5.71,2.41,3.79,5.5-2,3.6-6.74,11.43-16.06,12.59-29.07s-.52-23.49,5.84-41.51C1126.47,850.91,1145.08,850.76,1149.65,850.89Z" fill="#f4c04d"/><path d="M1155.91,981.76s10.72,18.14,28.45,17.72,25.35-18.34,25.35-18.34l-26.18-1.24Z" fill="#fff"/><path d="M1204.29,945c0-4.52,6.33-8.18,14.15-8.18s14.14,3.66,14.14,8.18-6.33,8.17-14.14,8.17S1204.29,949.47,1204.29,945Z" fill="#f9aaa7"/><path d="M1123.48,942.73c0-4.52,6.34-8.18,14.15-8.18s14.14,3.66,14.14,8.18-6.33,8.18-14.14,8.18S1123.48,947.25,1123.48,942.73Z" fill="#f9aaa7"/><path d="M1177.92,916.35c6.64,6.25,13.46,22.75,5.5,39.25,0,0-10.81-2.47-8.73-10.81s6.83-12.52,6.07-16.5S1171.28,910.09,1177.92,916.35Z" fill="#f9aaa7"/><path d="M1680,324.71s-3,70.09-19.93,97.56c0,0-1.69,30.42,10.14,50.7s29.58,34.22,29.58,34.22,9.29,30.42,5.91,40.14c0,0-25.77,12.68-22,41s16.9,56.61,17.32,67.6,1.28,25.77-8.87,42.25c0,0-12.94-36.23-30.24-50.15s-32.39-33.83-27.47-53.76l-21.72,14.11s-15.54-9.65-14.43-28.88,7.69-33.56,23-54.37,20.79-55.36,13-80.17-23.24-75.8-8.06-111.33,28-44.95,45.22-45c0,0,23.62-27.65,57.14-24.66s70.21,8.76,98.22,61.56,28,90,34.92,104.07,25.09,35.63,31.09,45.47,28,40,17.49,77.42c0,0-28-.78-36.8-1,0,0,16.51,29.39,11.4,45.73S1839.17,669.43,1838,680s16,35,27.23,41.09c0,0-27.94-5.87-37.56-17.38s-16.67-40.85-5.41-62.21,4.94-51.89-2.81-61.52-18.77-39.16-21.46-52.87-8.11-30.33-5-41.13c0,0,12.72-25.57,12.72-40,0,0,9.1-4.74,10.24-8.91s-5.77-33.73-5.77-33.73-3.5,9.25-17.85,2.61-34.93-27.65-50.29-47.43-39.86-41.08-47.65-39.47A52.08,52.08,0,0,0,1680,324.71Z" fill="#ef1884"/><path d="M1153.48,1135.05l18.9,8.9s-9.16,75.58-8.94,94.15,16.75,198.7,16.75,198.7l62.15-.44s-13.27-178.95-15.64-205.34-23.57-90.87-23.57-90.87l9.43-7.8s-13.94-47.6-19.52-39.5c-5.31,9.87-11.13,7.08-21,6.32C1160.8,1098.31,1153.48,1135.05,1153.48,1135.05Z" fill="#f4c04d"/><path d="M1739.47,524.51c-19.7,0-37.89-13.18-47.37-21.45-14.66-12.8-26.51-29.51-29.49-41.59a2,2,0,0,1,3.88-1c2.8,11.35,14.15,27.24,28.24,39.54,9.71,8.48,29,22.4,48.89,20.24,12.49-1.44,28-12.09,40.36-27.8,13.59-17.2,20.66-36.28,18.9-51a2,2,0,0,1,4-.47c1.88,15.79-5.5,36-19.73,54-13.24,16.76-29.33,27.71-43.06,29.3A44.1,44.1,0,0,1,1739.47,524.51Z" fill="#2e2020"/><path d="M1752.34,409.71a2,2,0,0,1-1.27-3.55c6.48-5.31,15.48-4.59,23.42-3.18a2,2,0,1,1-.7,3.94c-7-1.25-15-1.95-20.19,2.33A2,2,0,0,1,1752.34,409.71Z" fill="#2e2020"/><path d="M1768.77,411.63c-.52-3.55-3.19-6.33-6.3-5.87a6,6,0,0,0-4.85,7.06c.52,3.55,3.2,6.33,6.31,5.87A6,6,0,0,0,1768.77,411.63Z" fill="#2e2020"/><path d="M1728.08,445a2.15,2.15,0,0,1-.7-.12c-9.44-3.48-7.35-11-5.83-16.45a27.47,27.47,0,0,0,1.13-5.33,36.37,36.37,0,0,0-2.58-11.57,2,2,0,1,1,3.73-1.43,40.52,40.52,0,0,1,2.86,12.91v.2a30.32,30.32,0,0,1-1.29,6.29c-1.73,6.19-2.36,9.52,3.37,11.63a2,2,0,0,1-.69,3.87Z" fill="#2e2020"/><path d="M1661.67,443.47a2,2,0,0,1-1.9-1.39c-.82-2.53-4-13.87-3.21-19a2,2,0,0,1,4,.57c-.56,3.82,1.92,13.73,3,17.22a2,2,0,0,1-1.29,2.52A1.86,1.86,0,0,1,1661.67,443.47Z" fill="#2e2020"/><path d="M1678.88,421.89a2,2,0,0,1-1-3.72c9-5.23,16.88-6.5,23.45-3.77a2,2,0,0,1-1.54,3.69c-5.35-2.22-12-1-19.9,3.53A1.94,1.94,0,0,1,1678.88,421.89Z" fill="#2e2020"/><path d="M1697.42,422.6c-.52-3.55-3.2-6.33-6.31-5.87a6,6,0,0,0-4.85,7.06c.52,3.55,3.2,6.33,6.3,5.87A6,6,0,0,0,1697.42,422.6Z" fill="#2e2020"/><path d="M1800.75,409.65c-16.62,0-36.08-22.25-56.63-45.74-22-25.16-44.76-51.18-59.12-41a2,2,0,0,1-2.31-3.27c17.3-12.23,40.2,13.94,64.44,41.66,20,22.83,40.62,46.44,55.64,44.23a2,2,0,1,1,.59,3.95A17.44,17.44,0,0,1,1800.75,409.65Z" fill="#2e2020"/><path d="M1806.66,446.12a2,2,0,0,1-.91-3.78,32,32,0,0,0,7-4.87,2,2,0,0,1,2.68,3,35.78,35.78,0,0,1-7.84,5.47A1.88,1.88,0,0,1,1806.66,446.12Z" fill="#2e2020"/><path d="M1807.5,408.83a2,2,0,0,1-.62-.1,2,2,0,0,1-1.28-2.52,5.47,5.47,0,0,1,2.28-3.06,2,2,0,1,1,2.28,3.28,1.6,1.6,0,0,0-.76,1A2,2,0,0,1,1807.5,408.83Z" fill="#2e2020"/><path d="M1808.23,429.12l-.35,0a2,2,0,0,1-1.62-2.32,22.69,22.69,0,0,1,2.82-7.29,2,2,0,0,1,2.72-.83,2,2,0,0,1,.82,2.68,19.42,19.42,0,0,0-2.42,6.14A2,2,0,0,1,1808.23,429.12Z" fill="#2e2020"/><path d="M1740.23,382.93a2,2,0,0,1-1.33-.5,2,2,0,0,1-.16-2.83c7.59-8.49,25.62-8,35.41-5a2,2,0,0,1-1.16,3.83c-8.93-2.72-25.2-2.91-31.27,3.88A2,2,0,0,1,1740.23,382.93Z" fill="#2e2020"/><path d="M1670.39,395a2,2,0,0,1-1.34-3.48c10.12-9.14,26.3-11.71,34.48-8.31a2,2,0,0,1,1.08,2.62,2,2,0,0,1-2.61,1.07c-6.11-2.54-20.93-.84-30.27,7.59A2,2,0,0,1,1670.39,395Z" fill="#2e2020"/><path d="M1800,536.4a2,2,0,0,1-1.87-1.28c-8.11-21.11-8.75-45.95-8.77-47a2,2,0,0,1,4-.09c0,.25.65,25.21,8.51,45.65a2,2,0,0,1-1.14,2.58A2,2,0,0,1,1800,536.4Z" fill="#2e2020"/><path d="M1654.11,426a2,2,0,0,1-1.72-1,2,2,0,0,1,.68-2.74c13.41-8.06,24-73.23,23.72-95.28a2,2,0,1,1,4,0c.11,9.74-2.21,31.64-6.68,53-3.76,17.91-10.1,40.39-19,45.72A1.91,1.91,0,0,1,1654.11,426Z" fill="#2e2020"/><path d="M1820.32,642.15c-3.23,0-6.77-2-10.59-6a2,2,0,1,1,2.9-2.76c2.62,2.77,6.35,5.78,9.21,4.45,5.39-2.5,7.46-17.89,6.46-27-1.3-11.71-6.89-21.45-12.8-31.76-6.53-11.41-13.29-23.2-14.28-38.22-.94-11.92,2.84-23.39,6.49-34.48,2.6-7.91,5.06-15.38,5.94-23,4.35-33.94-.75-86.11-22.19-120.5a2,2,0,0,1,3.39-2.12c22,35.22,27.2,88.51,22.78,123.11-.94,8-3.58,16-6.13,23.78-3.52,10.71-7.17,21.79-6.29,32.94.93,14.13,7.45,25.51,13.76,36.52,5.85,10.21,11.91,20.78,13.31,33.31.75,6.86.07,26.94-8.75,31A7.65,7.65,0,0,1,1820.32,642.15Z" fill="#2e2020"/><path d="M1910.39,554.08a2.31,2.31,0,0,1-.37,0,2,2,0,0,1-1.59-2.34c7.22-37.64-11.69-65.41-30-92.27-12.3-18.06-23.92-35.12-27.16-54.33-7.68-45.52-24.59-81.73-51.68-110.7-16.46-17.62-46.93-29.3-74.14-28.39-15.12.5-36.42,5.12-52.09,24.27a2,2,0,1,1-3.09-2.53c13.15-16.08,32.19-25,55-25.74,28.27-.93,60,11.26,77.2,29.66,27.65,29.57,44.88,66.45,52.7,112.76,3.1,18.36,14.48,35.06,26.52,52.75,18.75,27.53,38.14,56,30.61,95.27A2,2,0,0,1,1910.39,554.08Z" fill="#2e2020"/><path d="M1612.63,609.93a2,2,0,0,1-1.16-.38c-20.62-14.82-17.91-47.19-3.58-68.68l3-4.45c12.14-18,22.62-33.6,25.1-62.37.94-10.83-2.47-23.32-6.42-37.78-5.41-19.8-12.13-44.44-11.4-76.66.28-18,11.31-47.31,27.27-62.29,7.19-6.75,14.6-10,22.08-9.63a2,2,0,0,1-.19,4c-6.33-.3-12.79,2.58-19.16,8.56-15.22,14.29-25.73,42.27-26,59.44-.73,31.66,5.92,56,11.25,75.53,4,14.84,7.55,27.65,6.55,39.19-2.57,29.79-13.83,46.53-25.76,64.26-1,1.46-2,2.93-3,4.42-13.3,19.95-16.1,49.79,2.58,63.22a2,2,0,0,1-1.17,3.63Z" fill="#2e2020"/><path d="M1735.69,492.27c-16.53,0-27.2-18-27.67-18.81a2,2,0,0,1-.12-1.75,2,2,0,0,1,1.31-1.17,202.49,202.49,0,0,1,23.12-4.79c12.83-1.89,25.13-2.35,25.26-2.35a2,2,0,0,1,1.5.6,2,2,0,0,1,.56,1.52c0,.24-1.71,23.53-21.21,26.59A23.42,23.42,0,0,1,1735.69,492.27ZM1713,473.68c3.49,4.87,12.83,15.93,24.94,14.47,13-2,16.56-15.29,17.47-20.64-4.14.22-13.16.82-22.45,2.19C1724.2,471,1716.75,472.73,1713,473.68Z" fill="#2e2020"/><path d="M1867,723.66a2,2,0,0,1-1.12-.34c-28.52-19.35-36.94-39.67-24.35-58.78,2.2-3.34,5.1-7.22,8.47-11.71,17.28-23.08,43.41-57.94,26.68-88.71-30.78-56.64-20.21-85.21-19.75-86.4a2,2,0,0,1,3.72,1.46c-.1.27-10.23,28.25,19.54,83,18,33-10.18,70.57-27,93-3.33,4.44-6.2,8.28-8.34,11.52-11.33,17.19-3.5,35.12,23.27,53.27a2,2,0,0,1-1.13,3.65Z" fill="#2e2020"/><path d="M1866.05,721.87l-.28,0c-24.23-3.43-40.17-13.53-47.37-30-8.68-19.88-1.68-45.06,5.79-55.82a2,2,0,1,1,3.28,2.28c-5.4,7.78-14.26,31.67-5.41,51.94,6.61,15.13,21.51,24.44,44.27,27.66a2,2,0,0,1-.28,4Z" fill="#2e2020"/><path d="M1807.13,395.13c-4.66,0-21.29-2.26-40.65-31.53-26.59-40.22-53.26-59.09-71.35-50.47a2,2,0,0,1-1.72-3.61c28.9-13.77,63.06,31.69,76.41,51.87,20.81,31.48,37.85,29.73,38,29.71a2,2,0,0,1,.56,4A10.8,10.8,0,0,1,1807.13,395.13Z" fill="#2e2020"/><path d="M1680.67,713.56c-7.83,0-14.73-11.88-15.49-13.24a2,2,0,0,1,3.48-2c1.65,2.92,7.36,11.2,12,11.2,1.94,0,3.68-1.57,5.24-4.58,7.25-14-12.85-43.16-34.59-64.31-20-19.47-24.13-39.47-13-62.94,10.38-21.86,18.7-55.37,12.44-77.28a2,2,0,1,1,3.85-1.09c6.57,23-1.63,56.81-12.68,80.08-10.46,22-6.71,40,12.15,58.36,17.55,17.08,44.75,50.83,35.35,69-2.29,4.42-5.2,6.69-8.66,6.75Z" fill="#2e2020"/><path d="M1690.62,702a2,2,0,0,1-1.65-3.12c16.14-23.64,7.83-48.77.5-70.93-2.51-7.6-4.88-14.77-6.16-21.47-5.49-28.94,2.8-55.65,19.28-62.13a2,2,0,1,1,1.46,3.72c-14.48,5.7-21.87,31-16.81,57.66,1.22,6.45,3.56,13.5,6,21,7.63,23.05,16.27,49.17-1,74.44A2,2,0,0,1,1690.62,702Z" fill="#2e2020"/><path d="M1704.06,552.73a2.24,2.24,0,0,1-.57-.08,2,2,0,0,1-1.35-2.48l.43-1.43c2.2-7.26,3.2-10.57-7.38-43a2,2,0,0,1,3.8-1.24c11,33.6,9.85,37.3,7.41,45.38-.14.45-.28.91-.42,1.39A2,2,0,0,1,1704.06,552.73Z" fill="#2e2020"/><path d="M1565.34,734.82a2,2,0,0,1-2-1.7c-3.06-20.33-1.67-71.5,12-101.12,5.33-11.55,18.81-18.09,33.07-25,8.11-3.93,16.5-8,23.48-13.11a2,2,0,0,1,2.36,3.23c-7.28,5.32-15.82,9.47-24.09,13.48-13.61,6.61-26.46,12.84-31.19,23.09-13.35,28.91-14.68,79-11.68,98.85a2,2,0,0,1-1.68,2.28Z" fill="#2e2020"/><path d="M2076.88,655.86a2,2,0,0,1-1.27-.45c-4-3.3-23.69-17.32-46.44-33.54-23.86-17-50.9-36.3-69.12-49.76-22.54-16.65-41.71-17-58.61-17.39-9.69-.2-18.85-.39-27.52-3.59a2,2,0,1,1,1.38-3.75c8,3,16.87,3.15,26.22,3.34,17.5.36,37.34.77,60.9,18.18,18.2,13.44,45.23,32.71,69.07,49.71,22.81,16.27,42.51,30.32,46.65,33.71a2,2,0,0,1-1.26,3.54Z" fill="#2e2020"/><path d="M2088.74,486.64a2,2,0,0,1-1.76-1.06c-4.19-7.86-18.64-24.77-27.15-33.44-6.37-6.47-10-14.56-14.64-24.79-1.29-2.85-2.62-5.8-4.11-8.94s-3.08-6.36-4.56-9.37c-5-10.25-9.39-19.1-10.43-25.79-.5-3.22.31-7.16,1.17-11.35,1.69-8.26,2.47-13.82-2.06-15.58a3.58,3.58,0,0,0-3.65.5c-5.45,3.88-8.91,19.52-8.58,28.18a71.63,71.63,0,0,0,2.24,14.06c1,4.46,2,8.66,1.66,12.8a2,2,0,0,1-4-.35c.31-3.5-.56-7.23-1.56-11.54a74.8,74.8,0,0,1-2.34-14.81c-.32-8.5,2.83-26.32,10.26-31.59a7.54,7.54,0,0,1,7.42-1c8,3.13,6.06,12.55,4.52,20.12-.75,3.65-1.53,7.42-1.14,9.93,1,6.08,5.17,14.68,10.07,24.64,1.49,3,3,6.14,4.58,9.42s2.84,6.14,4.14,9c4.46,9.87,8,17.67,13.85,23.64,7,7.15,22.91,25.15,27.83,34.36a2,2,0,0,1-.83,2.71A2,2,0,0,1,2088.74,486.64Z" fill="#2e2020"/><path d="M1965.08,440.46c-2.75,0-5.59-1.46-8-4.22-3.51-4-5.77-10.85-3-15.52s10.31-6.57,17.69-8.48c4.33-1.13,8.43-2.19,10.85-3.61,9-5.29,21.49-1.68,26.44.12,8.25,3,18.39,4.08,22.14,2.38a2,2,0,1,1,1.65,3.64c-5.26,2.38-16.92.72-25.15-2.26-4.43-1.61-15.52-4.86-23-.44-2.91,1.71-7.26,2.84-11.87,4-6.28,1.64-13.4,3.49-15.24,6.64-1.52,2.59-.35,7.48,2.61,10.88,1,1.15,3.59,3.69,6.35,2.57a69,69,0,0,0,6.78-3.44c5.67-3.13,12.09-6.68,18-5.65a2,2,0,0,1-.69,3.94c-4.47-.79-10,2.26-15.33,5.2a69,69,0,0,1-7.21,3.65A7.68,7.68,0,0,1,1965.08,440.46Z" fill="#2e2020"/><path d="M1960.87,460.85a1.36,1.36,0,0,1-.29,0c-.25,0-5.91-.94-8.14-8-2.11-6.69,3-14.49,7.65-17.14a2,2,0,0,1,2,3.47c-2.81,1.61-7.4,7.46-5.82,12.47,1.44,4.57,4.78,5.21,4.93,5.23a2,2,0,0,1,1.64,2.3A2,2,0,0,1,1960.87,460.85Z" fill="#2e2020"/><path d="M1967.33,479a23.94,23.94,0,0,1-3-.17c-4.72-.58-8-4.17-8.84-9.6-.66-4.41.61-10,4.25-11.6a100.83,100.83,0,0,1,10.06-3.18c6.75-1.94,15.16-4.35,18.12-6.38a2,2,0,1,1,2.26,3.29c-3.5,2.4-11.88,4.81-19.28,6.93-4,1.16-7.87,2.26-9.52,3-1.35.59-2.46,3.86-1.94,7.34.26,1.71,1.29,5.73,5.38,6.24,8.68,1.07,26.89-4.25,27.08-4.3a2,2,0,1,1,1.13,3.83C1992.29,474.6,1977.26,479,1967.33,479Z" fill="#2e2020"/><path d="M2051.44,526.58a2,2,0,0,1-2-1.53c-1.57-6.51-7.81-24.93-15.53-24.17-9.59,1-25-1.92-36.29-4-5.43-1-10.53-2-12.05-1.88-2.45.16-20.58,0-24.37-5-3.27-4.33-1.12-10.85,1.61-13.71a2,2,0,0,1,2.89,2.77c-1.53,1.6-3.19,6.05-1.31,8.53,1.7,2.25,14.65,3.84,20.93,3.44,1.9-.13,6,.61,13,1.93,11,2.06,26.15,4.88,35.16,4,12.62-1.27,19.12,24.3,19.82,27.21a2,2,0,0,1-1.47,2.42A2.59,2.59,0,0,1,2051.44,526.58Z" fill="#2e2020"/><path d="M2056.47,564.88a2,2,0,0,1-1.61-.81c-10.81-14.68-15.36-35.14-12-39.15a2.79,2.79,0,0,1,3.47-.69c2.52,1.23,19.56-4.58,28.45-15.29,9.23-11.14,13-23.88,11.49-26.27a2.4,2.4,0,0,1-.28-2.45,2.11,2.11,0,0,1,1.75-1.09c.83,0,1.77-.06,11.5,10,2.9,3,9.9,10.42,12.29,14.32,5,8.11,4.13,13.48-10.58,29.24-15.06,16.14-42.39,31.27-43.54,31.91A2.07,2.07,0,0,1,2056.47,564.88Zm-10.68-36.69c-.52,3.91,2,18.67,11.26,32.07,6-3.47,28.37-16.73,41-30.26,15.12-16.2,13.22-19.3,10.09-24.42-2.63-4.29-12.29-14.37-17.65-19.54-.79,7.09-6.25,17.77-12.62,25.46C2069,522.25,2052.14,529.29,2045.79,528.19Z" fill="#2e2020"/><path d="M2106.34,702a1.86,1.86,0,0,1-.91-.23c-7.91-4.06-16.91-16.28-25.36-34.41-5.84-12.5-13.39-53.31-18.39-80.31-2-10.85-3.59-19.42-4.53-23.36a2,2,0,0,1,3.88-.94c1,4,2.57,12.67,4.59,23.57,5,26.81,12.45,67.31,18.07,79.36,8,17.07,16.55,28.93,23.56,32.54a2,2,0,0,1-.91,3.78Z" fill="#2e2020"/><path d="M2146.05,761.42c-40.18,0-102.18-10.5-133.2-17.31-43.88-9.63-79.82-31.08-80.17-31.3a2,2,0,1,1,2.06-3.42c.35.21,35.75,21.33,79,30.81,40,8.78,131.65,23.8,159.89,14.22,25.95-8.81,24.83-37.8,24.81-38.09-3.94-57-28.84-109.65-42.93-131.75-9.51-14.9-20-31.75-29.36-46.61-5.35-8.54-10.27-16.4-14.34-22.84a2,2,0,1,1,3.39-2.13c4.06,6.44,9,14.31,14.34,22.85,9.3,14.85,19.84,31.69,29.33,46.58,14.3,22.42,39.56,75.8,43.56,133.66,0,.37,1.26,32.35-27.52,42.12C2168.18,760.48,2158.09,761.42,2146.05,761.42Z" fill="#2e2020"/><path d="M1729,1034.05h-.18c-20.87-1.85-41.78-4.53-53.39-11.49a2,2,0,0,1,2.06-3.43c10.91,6.55,31.29,9.13,51.68,10.93a2,2,0,0,1-.17,4Z" fill="#2e2020"/><path d="M1861.62,1117.42a2,2,0,0,1-.78-3.84c.27-.12,27.19-11.49,49.8-27.2,19.83-13.78,36.81-31.24,40.82-35.47-31.81-71.55-40-167.61-37.57-211.61.06-1.18,7.3-119.3,28.25-155a2,2,0,1,1,3.44,2c-17.76,30.31-26.37,128.57-27.7,153.23-2.37,43.87,5.79,139.94,37.77,211a2,2,0,0,1-.35,2.17c-.19.21-19.4,21-42.37,37s-50.27,27.49-50.54,27.6A1.93,1.93,0,0,1,1861.62,1117.42Z" fill="#2e2020"/><path d="M1792,1037.37a2,2,0,0,1-2-1.64c-3.28-18-8.9-62.7-14.85-110-6.61-52.52-13.44-106.83-17.23-125.51-7-34.49-9.31-66.81-7.73-108.08,1.39-36.07-6.3-76.63-7.64-83.34-3.88-1.91-18.89-9.75-29.31-21.76-7.26-8.37-16.69-32.45-10.89-41.73a2,2,0,0,1,3.39,2.12c-4.39,7,3.68,29.11,10.52,37,11.23,12.93,28.72,21.1,28.89,21.18a2,2,0,0,1,1.12,1.41c.1.45,9.45,45.51,7.92,85.27-1.58,40.93.72,73,7.65,107.14,3.82,18.82,10.66,73.2,17.28,125.8,5.94,47.22,11.55,91.82,14.81,109.76a2,2,0,0,1-1.61,2.32Z" fill="#2e2020"/><path d="M1752.47,671.74a2,2,0,0,1-2-1.73c-.68-5.06,9.07-55.47,11-65.52a2,2,0,0,1,.85-1.29c16.8-11.2,39.24-54.89,32.58-79.86a2,2,0,1,1,3.86-1c7.08,26.53-15.52,71-33.52,83.74-4.5,23.08-11.28,60-10.84,63.43a2,2,0,0,1-1.71,2.24Z" fill="#2e2020"/><path d="M1789.16,640.46a2,2,0,0,1-1.85-1.25c-7.08-17.54-14.83-29.61-20.24-31.51a2.75,2.75,0,0,0-2.44.1,2,2,0,0,1-2-3.48,6.77,6.77,0,0,1,5.72-.39c8.15,2.85,16.34,19.14,20.78,29.39,2.29-5.13,6.41-13.63,10.94-19.46,8.3-10.65,17.76-25.69,17.12-33a2,2,0,0,1,1.82-2.17,2,2,0,0,1,2.16,1.82c.94,10.65-13.5,30.1-17.94,35.8-6.4,8.23-12.19,22.74-12.25,22.89a2,2,0,0,1-1.85,1.26Z" fill="#2e2020"/><path d="M1728.37,659.42c-1.59,0-3-1.28-4-2.32-10.82-11.19-44-79.39-37.41-96.67a2,2,0,0,1,2.58-1.16,2,2,0,0,1,1.16,2.57c-2.74,7.25,4.09,30.74,17,58.47,9.4,20.16,16.87,31.64,19.94,34.47a241.38,241.38,0,0,1,5-27.95c3.93-15.83,7.18-18.51,9.57-19.09a2,2,0,1,1,.92,3.89s-2.81.84-6.61,16.16a233.61,233.61,0,0,0-4.94,28.05c-.26,2.29-1.35,3.12-2.22,3.42A2.9,2.9,0,0,1,1728.37,659.42Z" fill="#2e2020"/><path d="M1989.2,1340.39a2,2,0,0,1-2-2.07c2.24-61.19-29.7-263.76-35.49-286.28a2,2,0,1,1,3.87-1c5.82,22.6,37.86,226,35.61,287.42A2,2,0,0,1,1989.2,1340.39Z" fill="#2e2020"/><path d="M1082.12,618.68c-13.11,0-29.24-6-44.58-16.73-19.36-13.57-32.61-31.29-35.42-47.41a2,2,0,1,1,3.94-.69c2.63,15.1,15.26,31.86,33.78,44.83,16.9,11.84,35.34,17.78,48.12,15.51,20.29-3.77,35.21-23.22,42.3-34.47,10.27-16.32,16.78-35.37,16.19-47.41a2,2,0,1,1,4-.2c.63,12.79-6.12,32.78-16.8,49.74-7.43,11.81-23.16,32.22-45,36.27A37.52,37.52,0,0,1,1082.12,618.68Z" fill="#2e2020"/><path d="M1023.7,511.31a2,2,0,0,1-.9-3.79c7.41-3.73,16.06-7.1,24-3.78a2,2,0,1,1-1.54,3.69c-6.45-2.7-14.07.34-20.67,3.66A1.89,1.89,0,0,1,1023.7,511.31Z" fill="#2e2020"/><path d="M1031.49,514.71c-.53-3.66,1.29-7.19,4.49-7.66a6.22,6.22,0,0,1,6.87,5.53c.54,3.66-1.28,7.19-4.48,7.66S1032,517.91,1031.49,514.71Z" fill="#2e2020"/><path d="M1080.42,535.25a2,2,0,0,1-1.2-3.59c5.06-3.8,3.35-7.09-.1-12.56a30.38,30.38,0,0,1-3.12-5.82,1.06,1.06,0,0,1-.06-.19,42.06,42.06,0,0,1-1-13.56,2,2,0,1,1,4,.29,38.58,38.58,0,0,0,.87,12.21,29,29,0,0,0,2.71,4.94c3.11,4.93,7.37,11.69-.88,17.88A2,2,0,0,1,1080.42,535.25Z" fill="#2e2020"/><path d="M1151,525.9a2,2,0,0,1-1.92-2.54c1.17-4.17,4.21-10.09,8.92-13.06a2,2,0,1,1,2.14,3.37c-3.52,2.23-6.16,7-7.21,10.77A2,2,0,0,1,1151,525.9Z" fill="#2e2020"/><path d="M1145.52,514.09a2,2,0,0,1-2-2c.07-3.3-.32-14.13-2.09-17.93a2,2,0,1,1,3.62-1.69c2.26,4.83,2.52,17,2.47,19.7A2,2,0,0,1,1145.52,514.09Z" fill="#2e2020"/><path d="M1099.67,500.69a2,2,0,0,1-1.27-3.54c5.66-4.63,13.81-5.71,24.21-3.21a2,2,0,0,1-.94,3.89c-6.27-1.51-15-2.31-20.74,2.41A2,2,0,0,1,1099.67,500.69Z" fill="#2e2020"/><path d="M1104.72,504.5c-.54-3.66,1.28-7.2,4.48-7.66a6.23,6.23,0,0,1,6.88,5.53c.54,3.66-1.29,7.19-4.49,7.66A6.22,6.22,0,0,1,1104.72,504.5Z" fill="#2e2020"/><path d="M1055.38,462.79a1.94,1.94,0,0,1-1.19-.4,2,2,0,0,1-.41-2.79c13.52-18.14,21.15-34,24-49.88.72-3,2.84-11.85-.33-16.09a2,2,0,1,1,3.2-2.4c3.84,5.13,2.45,13.43,1.06,19.25-3,16.51-10.82,32.87-24.72,51.51A2,2,0,0,1,1055.38,462.79Z" fill="#2e2020"/><path d="M995.89,522.36a2,2,0,0,1-.29-4c33.79-4.93,49.24-59.05,57.54-88.12l.1-.35c.35-1.15.78-3,1.27-5.16,2.25-9.81,6-26.24,13.78-30.61a8.55,8.55,0,0,1,7.13-.66,2,2,0,0,1,1.27,2.52,2,2,0,0,1-2.52,1.28,4.56,4.56,0,0,0-3.92.35c-6.22,3.5-9.88,19.44-11.84,28-.54,2.32-1,4.14-1.33,5.39l-.09.33c-8.55,29.94-24.46,85.67-60.81,91A1.46,1.46,0,0,1,995.89,522.36Z" fill="#2e2020"/><path d="M978,518a2,2,0,0,1-.29-4c11.8-1.73,23.89-12.55,28.77-22a2,2,0,1,1,3.55,1.83c-6.19,12-19.83,22.41-31.74,24.15A1.46,1.46,0,0,1,978,518Z" fill="#2e2020"/><path d="M1152.61,491.28c-26.94,0-36.87-35.39-43.53-59.12-1-3.74-2-7.27-3-10.19-5.28-16.46-11.32-25.86-15.76-24.52a2,2,0,0,1-1.16-3.83c7.27-2.19,14.24,6.93,20.73,27.13,1,3,2,6.56,3,10.33,6.56,23.39,16.47,58.73,42.57,56.05a2,2,0,0,1,.41,4A31.19,31.19,0,0,1,1152.61,491.28Z" fill="#2e2020"/><path d="M1157.42,482.57c-9,0-15.41-7-21.21-13.28a2,2,0,0,1,2.94-2.71c7.74,8.4,13.91,14.11,23,11.21a2,2,0,1,1,1.22,3.8A19.14,19.14,0,0,1,1157.42,482.57Z" fill="#2e2020"/><path d="M1003.71,560h-.26c-15.2-2-27.61-15.55-29.52-32.26-.63-6,1.21-10.47,5.05-12.29,4-1.91,9.3-.3,13.76,4.21a2,2,0,0,1-2.85,2.81c-3.17-3.21-6.78-4.55-9.2-3.41-2.21,1.05-3.23,4.05-2.79,8.24C979.36,540.05,988.78,554,1004,556a2,2,0,0,1-.25,4Z" fill="#2e2020"/><path d="M1150.56,542.3a2,2,0,0,1-.59-3.9c4.92-1.53,9.24-6.33,12.16-13.53,3.84-9.46,4.23-20.72.93-26.78-1.08-2.14-2-2.1-2.31-2.09-3,.14-7.72,6.82-8.82,9.62a2,2,0,1,1-3.72-1.46c1-2.5,6.55-11.88,12.35-12.15,1.75-.08,4.21.59,6,4.23,3.86,7.07,3.56,19.49-.77,30.14-3.38,8.33-8.59,14-14.68,15.83A2,2,0,0,1,1150.56,542.3Z" fill="#2e2020"/><path d="M996.61,543.27a2,2,0,0,1-1.81-1.14c-2.34-4.94-5.18-6.06-10.87-7.94a2,2,0,0,1,1.26-3.8c6.22,2.06,10.19,3.64,13.22,10a2,2,0,0,1-.95,2.66A2,2,0,0,1,996.61,543.27Z" fill="#2e2020"/><path d="M1076.9,571.15c-6.86,0-13.88-1.46-17.72-5.64a2,2,0,1,1,2.94-2.7c3.54,3.85,12.9,5.35,22.77,3.66,8.75-1.51,15.56-5.21,17.36-9.43a2,2,0,1,1,3.68,1.56c-2.39,5.61-10,10-20.36,11.81A51.67,51.67,0,0,1,1076.9,571.15Z" fill="#2e2020"/><path d="M1015.84,483a2,2,0,0,1-1.11-3.66c8.77-5.84,26.4-11.62,36.38-5.5a2,2,0,0,1-2.09,3.41c-8.12-5-23.85-.06-32.08,5.42A2,2,0,0,1,1015.84,483Z" fill="#2e2020"/><path d="M1088.27,470.6a2,2,0,0,1-1.26-3.54c7.06-5.77,23.76-8,36.43-2a2,2,0,1,1-1.72,3.62c-11.72-5.57-26.89-2.85-32.18,1.47A2,2,0,0,1,1088.27,470.6Z" fill="#2e2020"/><path d="M760,829a1.94,1.94,0,0,1-1.08-.32,2,2,0,0,1-.6-2.76c10.91-16.89,45.58-60.59,78.93-99.5,24.73-28.85,69-78.68,87.73-88.4,17.24-8.95,41.46-3.11,62.83,2.05,18.48,4.46,35.94,8.68,44.65,2.34,18.21-13.24-2.62-44.56-2.83-44.87a2,2,0,1,1,3.31-2.24c1,1.42,23.17,34.86,1.87,50.35-10.2,7.41-28.53,3-47.94-1.69-20.69-5-44.14-10.65-60.05-2.39-31.37,16.28-145.54,156.16-165.14,186.51A2,2,0,0,1,760,829Z" fill="#2e2020"/><path d="M1313.27,1045.22a2,2,0,0,1-2-1.63c-8.66-46.72-14.43-122.68-19.53-189.7-5-65.61-9.29-122.28-15.07-139-8.17-23.73-39.52-35.56-69.84-47-12.35-4.66-25.13-9.47-35.9-15-30.06-15.72-30.91-87.63-30.94-90.69a2,2,0,0,1,4,0c0,.73.85,72.56,28.78,87.17,10.55,5.41,22.66,10,35.47,14.81,31.18,11.76,63.43,23.92,72.21,49.43,5.94,17.26,10.27,74.16,15.28,140.05,5.09,66.92,10.85,142.77,19.47,189.27a2,2,0,0,1-1.6,2.33A2.22,2.22,0,0,1,1313.27,1045.22Z" fill="#2e2020"/><path d="M922.68,641a2,2,0,0,1-1.53-.72c-30.55-36.51-11.71-68.85,3.43-94.84,4.23-7.27,8.23-14.14,10.67-20.35,7.32-18.59,7.85-35.64,8.41-53.7.27-8.85.56-18,1.72-27.32,5-38.17,24.8-68.71,54.34-83.77,26.12-13.33,57-12.35,84.63,2.67a2,2,0,1,1-1.91,3.51c-26.49-14.38-56-15.34-80.9-2.62-28.35,14.46-47.37,43.88-52.19,80.72-1.14,9.11-1.42,18.18-1.69,26.94-.55,17.6-1.11,35.79-8.68,55-2.56,6.49-6.63,13.48-11,20.89-14.51,24.91-32.57,55.91-3.81,90.27a2,2,0,0,1-.25,2.81A2,2,0,0,1,922.68,641Z" fill="#2e2020"/><path d="M999.74,645.48a2,2,0,0,1-1-3.73c18.78-10.78,21.83-19.85,12.56-37.32-3-5.62-7.33-11.66-11.92-18.07-10-13.88-21.27-29.61-21.27-45.45a2,2,0,1,1,4,0c0,14.55,10.91,29.73,20.52,43.12,4.68,6.52,9.1,12.67,12.21,18.52,10.25,19.32,6.43,30.88-14.1,42.67A2,2,0,0,1,999.74,645.48Z" fill="#2e2020"/><path d="M1252.28,685.07l-.28,0a2,2,0,0,1-1.7-2.26c3.79-26.47-10.16-39.79-24.93-53.89-13.06-12.46-26.55-25.35-29.78-47.95-2.83-19.82-2-34.9-1.21-49.49,1.11-20.26,2.15-39.39-7.63-67.83-8.53-24.8-24.4-50.79-42.44-69.54-20-20.8-39.71-29.61-55.45-24.82a2,2,0,0,1-1.16-3.83c17.25-5.25,38.38,3.94,59.49,25.88,18.42,19.14,34.62,45.69,43.34,71,10,29.18,9,48.69,7.84,69.34-.78,14.4-1.6,29.29,1.18,48.72,3,21.23,16,33.63,28.58,45.62,14.85,14.18,30.21,28.84,26.13,57.34A2,2,0,0,1,1252.28,685.07Z" fill="#2e2020"/><path d="M1112.57,744.61h-.22c-7.65-.19-16.83-6.26-27.3-18.05-23.66-26.66-48.84-77.43-48.06-85.71a2,2,0,1,1,4,.38c-.53,5.66,22.68,55.21,47.07,82.67,9.56,10.78,18,16.55,24.41,16.71,2.65,0,6.12-2,10-5.87,18.66-19,40.24-73.67,39.63-89.26a2,2,0,1,1,4-.15c.71,18.13-22.34,73.51-40.77,92.21C1120.65,742.23,1116.38,744.61,1112.57,744.61Z" fill="#2e2020"/><path d="M883.78,1194.86c-32.72,0-48.59-22.93-49.25-23.9a2,2,0,0,1-.26-1.71c8.39-27.36,32.9-66,56.61-103.27,11.72-18.44,22.79-35.86,31.59-51.41,12.83-22.63,7.4-69.22,2.21-102.29s-17-101.08-20.82-113.43a2,2,0,0,1,3.82-1.17c4,13.05,15.94,82.14,20.94,114,5.29,33.66,10.77,81.17-2.67,104.89-8.86,15.62-20,33.09-31.69,51.58-23.29,36.65-47.36,74.54-55.87,101.33a58,58,0,0,0,45.39,21.4,2,2,0,0,1,0,4Z" fill="#2e2020"/><path d="M804.68,1316.05a2,2,0,0,1-2-2.11c1.81-31.29,16.79-113,32.53-142.61a2,2,0,1,1,3.53,1.87c-15.23,28.63-30.33,110.78-32.07,141A2,2,0,0,1,804.68,1316.05Z" fill="#2e2020"/><path d="M703.32,974.18c-9.41,0-17.5-2.4-24.17-7.18-19.4-13.93-23.5-45-26.79-69.93-3.62-27.46,26-106.82,49.86-170.59,7.94-21.23,15.43-41.29,20.34-55.93a2,2,0,0,1,1.27-1.26,2,2,0,0,1,1.77.26c.29.2,29,20,52.44,11.7a2,2,0,0,1,2.63,2.29c-.18.92-18.68,92.58-18.29,119.56.42,28.82-9.33,82-25,96.37a2,2,0,1,1-2.7-2.94c14.33-13.2,24.08-64.94,23.67-93.37C758,778.36,772.72,703,776.1,686c-20.87,5.35-43.49-7.29-50.58-11.74-4.92,14.45-12,33.5-19.55,53.6-23.67,63.36-53.14,142.2-49.65,168.67,3.19,24.18,7.16,54.28,25.16,67.2,8.74,6.26,19.86,8,34,5.16,49.18-9.71,180.41-133.68,194.57-149.34a2,2,0,1,1,3,2.69C898.76,838,766.32,963,716.27,972.83A67,67,0,0,1,703.32,974.18Z" fill="#2e2020"/><path d="M727.92,675.4a2,2,0,0,1-.85-.19,2,2,0,0,1-1-2.66c2.32-4.95,4.38-32.87,3.54-37.34a2,2,0,1,1,3.93-.74c1,5.18-1.21,34.16-3.86,39.78A2,2,0,0,1,727.92,675.4Z" fill="#2e2020"/><path d="M737.8,643.62a2,2,0,0,1-1.56-.74c-1.17-1.45-2.25-2.66-3.3-3.84-4.76-5.33-7.9-8.86-7.63-21.21.17-7.74,2.05-17.76,3.71-26.6,1.42-7.58,2.77-14.74,2.77-19,0-1.61,0-3.34-.1-5.17-.23-9-.51-20.31,4.42-28,4.25-6.6,12.56-11.74,19.35-12a9.77,9.77,0,0,1,8.62,3.83c5.83,7.88,6.92,43.25,2.92,55-1.93,5.62-4.63,6.42-6.57,6.1-4.79-.79-8-9.82-8-15.44,0-7.65-5.43-26.4-5.48-26.59a2,2,0,0,1,3.84-1.12c.23.8,5.63,19.5,5.63,27.71,0,5.21,3,11.23,4.63,11.5.19,0,1.12-.5,2.13-3.45,3.9-11.37,2.36-44.92-2.34-51.29a5.92,5.92,0,0,0-5.29-2.21c-5.4.18-12.63,4.72-16.1,10.13-4.28,6.64-4,17.22-3.79,25.72,0,1.86.09,3.62.09,5.28,0,4.64-1.37,12-2.83,19.75-1.63,8.69-3.48,18.53-3.64,25.95-.24,10.77,2.19,13.5,6.62,18.47,1,1.15,2.19,2.46,3.42,4a2,2,0,0,1-.3,2.81A2,2,0,0,1,737.8,643.62Z" fill="#2e2020"/><path d="M767.7,645.17a18.62,18.62,0,0,1-2.25-.13,2,2,0,0,1,.46-4c7.71.91,17.43-4.31,32.49-17.47l1.92-1.67c14.45-12.6,23.18-20.21,21.47-26.86-2.1-8.15-6.79-19-13.08-22.79-14.72-8.84-32.23-15.6-34.82-11.58a3.87,3.87,0,0,0-.15,3.59c2.08,5.76,12.35,13.11,18,14.86,5.43,1.7,7.12,7.32,8.75,12.76,1,3.32,2,6.77,3.88,9.12a2,2,0,1,1-3.14,2.47c-2.33-3-3.47-6.76-4.57-10.45-1.45-4.84-2.71-9-6.12-10.09-6.39-2-17.83-9.92-20.51-17.31a7.81,7.81,0,0,1,.55-7.12c6.12-9.49,34.59,6.94,40.23,10.32,7.33,4.4,12.5,15.91,14.9,25.23,2.32,9-6.57,16.79-22.71,30.87L801,626.62C786.15,639.61,776.24,645.17,767.7,645.17Z" fill="#2e2020"/><path d="M763.36,616.16a2,2,0,0,1-.48-.06,2,2,0,0,1-1.47-2.41c2.07-8.53,18.23-18.25,25.78-17.13a2,2,0,0,1-.59,4c-5.15-.77-19.66,7.3-21.3,14.11A2,2,0,0,1,763.36,616.16Z" fill="#2e2020"/><path d="M777.57,684.92a2,2,0,0,1-2-2c0-8.88.49-38.45,6.75-46a2,2,0,1,1,3.08,2.55c-4.3,5.21-5.83,26.68-5.83,43.48A2,2,0,0,1,777.57,684.92Z" fill="#2e2020"/><path d="M767.63,586.46a5,5,0,0,1-2.73-.83,2,2,0,0,1,2.15-3.37,1,1,0,0,0,1.14,0c2.27-1.12,5-6.94,5.34-11.52a2,2,0,0,1,4,.33c-.4,4.82-3.25,12.64-7.56,14.77A5.2,5.2,0,0,1,767.63,586.46Z" fill="#2e2020"/><path d="M778.57,558.87a2,2,0,0,1-.64-.1,2,2,0,0,1-1.26-2.53c.05-.14,4.47-13.41,5.6-24.28.92-8.8-3-13.7-12.31-15.44-6.32-1.18-11.45,6.59-14.64,13.32a2,2,0,1,1-3.61-1.72c6.88-14.48,14.12-16.44,19-15.53,11.31,2.11,16.69,8.95,15.56,19.78-1.18,11.32-5.6,24.58-5.79,25.14A2,2,0,0,1,778.57,558.87Z" fill="#2e2020"/><path d="M765.26,537.5H765a2,2,0,0,1-1.74-2.23c.5-4,.58-11.72.58-11.8a2,2,0,0,1,4,0c0,.32-.09,8-.61,12.25A2,2,0,0,1,765.26,537.5Z" fill="#2e2020"/><path d="M819.69,583.51a2,2,0,0,1-2-2c.16-23.45,30.15-86.45,30.45-87.08,5-10.39,7.74-23.16,5.44-25.31-.58-.55-2.28-.15-4.42,1.06-8.88,5-24.24,36.23-33.41,54.88-5.72,11.64-8.54,17.3-10.1,18.75a3,3,0,0,1-3.39.81c-3.16-1.34-3.41-7.88-3.8-30.34-.09-5.25-.19-11.21-.37-17.55-.62-23-1.22-44.63-7.16-46.25a1.51,1.51,0,0,0-1.38.15c-2.72,1.88-3.65,11.68-4.39,19.55-.17,1.72-.33,3.44-.51,5.12-1.74,16.35-4.19,36.75-6,41.1a2,2,0,0,1-3.69-1.54c1.26-3,3.34-17.58,5.73-40,.17-1.66.34-3.37.5-5.07,1-10.47,1.85-19.52,6.1-22.45a5.45,5.45,0,0,1,4.7-.73c8.43,2.3,9.23,17.86,10.11,50,.18,6.36.28,12.33.37,17.59.19,11.11.37,21.69,1.23,25.61,1.69-2.73,5.13-9.72,8.47-16.52,13.22-26.87,25.84-51.42,35-56.6,4-2.26,7.07-2.42,9.12-.5,5.53,5.18-1.62,23.83-4.57,30-7.75,16.13-29.92,66.43-30,85.38A2,2,0,0,1,819.69,583.51Z" fill="#2e2020"/><path d="M1786,1087.47a1.91,1.91,0,0,1-.66-.11c-.86-.3-21.13-7.4-26.55-9.56a2,2,0,0,1,1.47-3.72c5.35,2.13,26.19,9.43,26.4,9.5a2,2,0,0,1-.66,3.89Z" fill="#2e2020"/><path d="M1706.42,950.66H1706a2,2,0,0,1,.15-4c2.83.11,5.75-1.42,8.74-4.53,8.07-8.4,13.75-25.8,13.07-34.61-.65-6.83-3.34-12.43-6.7-13.9-2.11-.93-4.63-.28-7.5,1.91a2,2,0,1,1-2.42-3.18c5.12-3.91,9.09-3.46,11.52-2.4,5.73,2.51,8.45,10.55,9.08,17.23.76,9.85-5.26,28.45-14.17,37.72C1714.09,948.73,1710.27,950.66,1706.42,950.66Z" fill="#2e2020"/><path d="M1711,930.76a2,2,0,0,1-1.9-2.64c1.95-5.83,4.81-10.5,9.87-16.12a2,2,0,1,1,3,2.68c-4.67,5.17-7.28,9.44-9,14.71A2,2,0,0,1,1711,930.76Z" fill="#2e2020"/><path d="M1623.49,947.17a2,2,0,0,1-.68-.12c-4.77-1.73-7.68-4.07-8.91-7.14-1.85-4.6.66-9.65,2.87-14.1a28.43,28.43,0,0,0,2.75-6.79c.31-3-1.42-6.68-2.81-9.61-.37-.8-.73-1.55-1-2.25a2,2,0,1,1,3.67-1.58c.29.66.62,1.37,1,2.12,1.61,3.41,3.62,7.66,3.16,11.82a31.15,31.15,0,0,1-3.14,8.07c-1.93,3.88-3.92,7.89-2.74,10.84.77,1.92,3,3.56,6.56,4.86a2,2,0,0,1-.68,3.88Z" fill="#2e2020"/><path d="M1542,960.69c-3.85,0-7.66-1.64-11.34-4.89-10.72-9.46-17.57-30-17.57-40,0-6.5,1.87-14.49,7.12-17.44,2.3-1.29,6.22-2.12,11.84,1.3a2,2,0,1,1-2.08,3.41c-3.18-1.93-5.8-2.34-7.8-1.22-3.51,2-5.08,8.42-5.08,14,0,9.12,6.81,28.67,16.22,37,3.32,2.93,6.65,4.21,9.89,3.81a2,2,0,0,1,.49,4A13.8,13.8,0,0,1,1542,960.69Z" fill="#2e2020"/><path d="M1535.44,937.72a2,2,0,0,1-1.85-1.23c-2.39-5.76-5.77-9.51-10.43-13.71a2,2,0,0,1,2.68-3c4.93,4.44,8.77,8.72,11.44,15.14a2,2,0,0,1-1.07,2.62A2.07,2.07,0,0,1,1535.44,937.72Z" fill="#2e2020"/><path d="M1604.59,880c-21.83-1.56-44.41-14-56.34-31.09-8.17-11.68-10.68-24.17-7.26-36.13a2,2,0,0,1,3.84,1.1c-3.88,13.6,1.5,25.31,6.7,32.74,11.27,16.11,32.65,27.92,53.2,29.38a2,2,0,0,1-.14,4Z" fill="#2e2020"/><path d="M1644.21,873.89c-22.63,0-48.48-8.87-61.93-22.31a2,2,0,0,1,2.83-2.83c15.62,15.62,49,24.71,72.8,19.85a2,2,0,1,1,.8,3.92A72.9,72.9,0,0,1,1644.21,873.89Z" fill="#2e2020"/><path d="M1696.61,894.44a2,2,0,0,1-1.94-1.53c-3-12.19-20-17.81-35-22.78A141.18,141.18,0,0,1,1643,863.9c-1.26-.63-2.6-1.23-4-1.86-6.82-3-14.55-6.49-15.5-14.12a2,2,0,1,1,4-.49c.68,5.39,7,8.22,13.17,11,1.47.65,2.84,1.27,4.15,1.92a138.75,138.75,0,0,0,16.15,6c16,5.29,34.14,11.28,37.63,25.63a2,2,0,0,1-1.47,2.41A2,2,0,0,1,1696.61,894.44Z" fill="#2e2020"/><path d="M1539.92,891.46a2,2,0,0,1-1.24-3.57c8.17-6.39,11.93-17.54,11.19-33.16a2,2,0,0,1,4-.19c.8,17-3.47,29.26-12.71,36.49A2,2,0,0,1,1539.92,891.46Z" fill="#2e2020"/><path d="M1545.89,908.37a2.08,2.08,0,0,1-.84-.18c-11.79-5.44-17-17.16-15.08-33.88a2,2,0,0,1,4,.46c-1.74,15.05,2.56,25.07,12.78,29.78a2,2,0,0,1-.84,3.82Z" fill="#2e2020"/><path d="M1607.08,877.53a1.94,1.94,0,0,1-.71-.13c-10.89-4.15-21.94-16-24.13-25.81a2,2,0,1,1,3.91-.87c1.9,8.55,12,19.27,21.64,22.94a2,2,0,0,1-.71,3.87Z" fill="#2e2020"/><path d="M1504.6,786.5a2,2,0,0,1-.57-3.92c12.32-3.69,17.74-11.09,24-19.65a94.62,94.62,0,0,1,12-14.22,89.16,89.16,0,0,1,46.9-22.77c19-2.79,36.53,1.93,49.31,13.29a2,2,0,1,1-2.66,3c-25.63-22.78-67.1-12.85-90.82,9.41a91.52,91.52,0,0,0-11.52,13.66c-6.42,8.77-12.48,17-26.08,21.12A2,2,0,0,1,1504.6,786.5Z" fill="#2e2020"/><path d="M1512.06,869.58a2,2,0,0,1-1.9-1.39c-7.83-24.49-13.13-70.06,6-88.13a2,2,0,0,1,2.74,2.91c-16.85,15.91-13,58.7-4.94,84a2,2,0,0,1-1.3,2.51A2.16,2.16,0,0,1,1512.06,869.58Z" fill="#2e2020"/><path d="M1524.5,901.4a2,2,0,0,1-1.24-.43c-8.44-6.74-14.83-29.45-9.57-42.59a2,2,0,1,1,3.71,1.48c-4.8,12,1.8,32.75,8.35,38a2,2,0,0,1,.31,2.81A2,2,0,0,1,1524.5,901.4Z" fill="#2e2020"/><path d="M1637.07,750.44a2,2,0,0,1-2-1.89c-.45-8.5-9.31-14.76-17.82-16.56a2,2,0,1,1,.82-3.91c9.7,2,20.41,9.25,21,20.26a2,2,0,0,1-1.89,2.1Z" fill="#2e2020"/><path d="M1729,778a2,2,0,0,1-1.09-.32c-5.86-3.83-9.31-9.73-13-16-4.75-8.14-9.68-16.55-20.56-21.17-30.41-13.15-46.7-4.75-54.52-.7a29.61,29.61,0,0,1-3.76,1.75,2,2,0,0,1-1.27-3.8,27,27,0,0,0,3.19-1.5c8.37-4.33,25.79-13.33,57.93.57,12.1,5.14,17.59,14.54,22.44,22.83,3.41,5.83,6.62,11.33,11.69,14.64A2,2,0,0,1,1729,778Z" fill="#2e2020"/><path d="M1726.46,893.94a2,2,0,0,1-1.73-1c-4.39-7.67,1.23-20.48,6.19-31.79,2.5-5.69,4.86-11.06,5.51-14.82,4.66-26.38-6.79-48.27-18.6-66.2a2,2,0,0,1,3.34-2.2c11.53,17.5,24.12,41.18,19.2,69.09-.74,4.23-3.19,9.82-5.79,15.74-4.35,9.92-9.77,22.27-6.38,28.19a2,2,0,0,1-.75,2.73A2,2,0,0,1,1726.46,893.94Z" fill="#2e2020"/><path d="M1704.57,913.85a2,2,0,0,1-1.77-2.93c6.21-11.94,1-23.52-4.46-33.44a2,2,0,1,1,3.51-1.91c6.34,11.62,11.27,24.17,4.49,37.2A2,2,0,0,1,1704.57,913.85Z" fill="#2e2020"/><path d="M1714,890a1.87,1.87,0,0,1-.57-.08,2,2,0,0,1-1.34-2.49c3.23-10.76,2.24-21.21-2.73-28.66a2,2,0,0,1,3.32-2.22c5.64,8.45,6.82,20.12,3.24,32A2,2,0,0,1,1714,890Z" fill="#2e2020"/><path d="M1623,1030.25c-12.29,0-23.93-4.42-39-14.79-24.34-16.7-42.49-46.36-44.14-72.15a2,2,0,1,1,4-.25c1.58,24.64,19,53.06,42.42,69.11,14.3,9.87,25.27,14.08,36.68,14.08,14.12,0,24-4.43,36.41-16.36,26.26-24.87,42.22-58.81,40.68-86.49a2,2,0,1,1,4-.22c1.63,29.25-14.43,63.58-41.91,89.6C1649.08,1025.35,1638.09,1030.25,1623,1030.25Z" fill="#2e2020"/><path d="M1563.3,886a2,2,0,0,1-1.06-3.69c12.08-7.63,26.8-4.66,34.5-2.21a2,2,0,0,1-1.21,3.81c-7-2.24-20.45-5-31.16,1.78A2,2,0,0,1,1563.3,886Z" fill="#2e2020"/><path d="M1676.72,883a1.94,1.94,0,0,1-.71-.13c-12.83-4.81-25.06-5.4-32.72-1.57a2,2,0,1,1-1.79-3.57c8.63-4.32,22.06-3.8,35.92,1.4a2,2,0,0,1-.7,3.87Z" fill="#2e2020"/><path d="M1673.24,911.85a1.91,1.91,0,0,1-.74-.14c-9.44-3.77-17-4-22.61-.64a2,2,0,0,1-2.06-3.42c6.7-4,15.5-3.91,26.15.35a2,2,0,0,1-.74,3.85Z" fill="#2e2020"/><path d="M1659.31,923.29c-3.49,0-6-3.49-6-7.46a6.71,6.71,0,0,1,6.47-7c3.47,0,6,3.48,6,7.46A6.7,6.7,0,0,1,1659.31,923.29Z" fill="#2e2020"/><path d="M1565.79,911.85a2,2,0,0,1-.63-3.89c8.44-2.81,18.13-5.05,26-.31a2,2,0,0,1-2.06,3.42c-6.5-3.9-15.13-1.84-22.71.68A2,2,0,0,1,1565.79,911.85Z" fill="#2e2020"/><path d="M1573.25,916.32c0-4,2.49-7.46,6-7.46a6.7,6.7,0,0,1,6.46,7c0,4-2.48,7.46-6,7.46A6.71,6.71,0,0,1,1573.25,916.32Z" fill="#2e2020"/><path d="M1559,1529.8c-32.4,0-73-1.37-113.62-4-36.64-2.37-124.12-9.2-145.14-21.21-27.71-15.83-17.22-52.64-5.08-95.25,2.75-9.68,5.6-19.68,8.09-29.76,12.93-52.34,29-108.64,43-150.61,3.25-9.75,5.88-20.45,8.67-31.78,8.44-34.34,18-73.26,48.83-90.94,20.34-11.67,45.23-16.92,69.3-22,23.83-5,46.34-9.76,63.74-20.21,34-20.38,17.31-79.73,17.14-80.33a2,2,0,0,1,3.84-1.11,133.72,133.72,0,0,1,4.46,33.82c-.06,24.26-8.15,41.91-23.38,51.05-18,10.79-40.81,15.6-65,20.69-23.76,5-48.34,10.19-68.13,21.54-29.34,16.83-38.29,53.23-46.94,88.43-2.81,11.41-5.45,22.19-8.76,32.1-14,41.87-30,98.06-42.89,150.3-2.51,10.15-5.37,20.19-8.14,29.89-11.68,41-21.77,76.41,3.22,90.69,31.51,18,247.67,29.41,308.45,22.79a2,2,0,1,1,.43,4C1599.22,1529.16,1581,1529.8,1559,1529.8Z" fill="#2e2020"/><path d="M1626,982.42c-9.11,0-18.06-2.32-23.52-6.54a2,2,0,0,1,2.44-3.17c9.86,7.62,34.35,8,44.13-1.82a2,2,0,0,1,2.83,2.83C1645.88,979.7,1635.84,982.42,1626,982.42Z" fill="#2e2020"/><path d="M1970.33,1317a2,2,0,0,1-1.59-.79c-22.5-29.42-43.34-70.46-63.5-110.17l-4.24-8.34c-3.84-7.55-7.53-15.63-11.09-23.45-12-26.37-24.46-53.64-46.54-70.09a2,2,0,0,1,2.38-3.21c22.92,17.07,35.56,44.82,47.8,71.65,3.54,7.77,7.21,15.81,11,23.29l4.23,8.34c20.08,39.54,40.84,80.43,63.11,109.55a2,2,0,0,1-.37,2.81A2,2,0,0,1,1970.33,1317Z" fill="#2e2020"/><path d="M1735.77,1069.62a2,2,0,0,1-.53-.08c-15.91-4.38-18-5.42-38.49-15.4l-2.39-1.16c-23.59-11.51-21.84-54.23-21.75-56a2,2,0,1,1,4,.19c0,.42-1.71,41.9,19.51,52.25l2.39,1.17c20.58,10,22.25,10.85,37.8,15.14a2,2,0,0,1-.53,3.93Z" fill="#2e2020"/><path d="M1803.09,1436.6a2,2,0,0,1-2-2.1c1.27-24.18,5.76-128.47,4.58-197a2,2,0,0,1,4-.07c1.18,68.6-3.32,173-4.58,197.22A2,2,0,0,1,1803.09,1436.6Z" fill="#2e2020"/><path d="M1912.1,1404.19c-2.65,0-5.55-1.15-8.94-3.53-22.08-15.52-83.83-93.63-98.19-116.23a2,2,0,0,1,3.37-2.14c13.86,21.8,75.85,100.15,97.12,115.1,3.22,2.26,5.76,3.14,7.75,2.68,3.36-.77,6-5.54,9.32-11.57,6.31-11.42,15-27.06,37.46-34a2,2,0,1,1,1.18,3.82c-21,6.5-29.16,21.33-35.14,32.15-3.81,6.91-6.83,12.36-11.92,13.54A9,9,0,0,1,1912.1,1404.19Z" fill="#2e2020"/><path d="M1981,1490.56a2,2,0,0,1-1.13-3.65c2.33-1.6,4.67-3.18,7-4.76,30.34-20.52,59-39.89,35.31-83.8-19.14-35.49-46.39-73.53-53.63-82.64a2,2,0,0,1,3.13-2.49c7.3,9.19,34.75,47.51,54,83.24,25.4,47.09-6.11,68.39-36.59,89-2.33,1.57-4.67,3.15-7,4.75A2,2,0,0,1,1981,1490.56Z" fill="#2e2020"/><path d="M1899.17,1522.37a42.21,42.21,0,0,1-6.37-.44,2,2,0,0,1,.69-3.94c.23,0,23.31,3.85,30.92-13,12.76-28.35,25.71-61.63,24.38-66a20,20,0,0,0-10-12.08,16.94,16.94,0,0,0-13.78-.29,2,2,0,1,1-1.43-3.73,20.85,20.85,0,0,1,17,.42,24.1,24.1,0,0,1,12,14.5c2.53,8.23-21.77,62.61-24.56,68.78C1921.91,1520.23,1907.54,1522.36,1899.17,1522.37Z" fill="#2e2020"/><path d="M1875.66,1534.6a5.84,5.84,0,0,1-4-1.52c-5.94-5.41-1.35-13.39,5.61-25.49,3.25-5.66,6.94-12.07,10.69-19.89,10.11-20.26,13.21-27.32,11.31-41.18a2,2,0,0,1,4-.54c2.06,15-1.4,22.87-11.68,43.48-3.8,7.93-7.69,14.69-10.82,20.12-6.71,11.68-9.79,17.44-6.38,20.54a1.94,1.94,0,0,0,1.71.46c5.65-.7,17.28-13.48,31.13-34.22,5.71-17,9.37-31.09,11.52-44.42a2,2,0,0,1,4,.64c-2.19,13.62-5.93,28-11.76,45.31a2.56,2.56,0,0,1-.23.47c-10.61,15.9-25.14,35.08-34.12,36.19C1876.24,1534.58,1876,1534.6,1875.66,1534.6Z" fill="#2e2020"/><path d="M1917.84,1519.76a9.63,9.63,0,0,1-3-.38,2,2,0,1,1,1.27-3.79c2,.66,10.76-.24,18.93-6.16,6.5-4.7,12.14-12,16.31-21.13,4.94-10.77,11.23-29.13,12.8-40a5.7,5.7,0,0,0-1.26-4.95c-2.81-3.09-9.48-3.46-11.81-3.35a2,2,0,0,1-.21-4c.42,0,10.31-.46,15,4.65a9.6,9.6,0,0,1,2.27,8.22c-1.64,11.35-8,29.79-13.13,41.07-4.45,9.74-10.54,17.59-17.6,22.7S1922.62,1519.76,1917.84,1519.76Z" fill="#2e2020"/><path d="M1938.1,1515.64a26,26,0,0,1-5.11-.5,2,2,0,1,1,.79-3.91c11.44,2.31,27.71-5.32,32.75-20,2.44-7.08,4.77-12.58,6.64-17,2.47-5.86,4.26-10.09,5-14.56a6.55,6.55,0,0,0-1.35-5.33c-2.35-3-7.16-4.71-10.62-5a2,2,0,0,1,.35-4c4.44.39,10.32,2.57,13.42,6.54a10.69,10.69,0,0,1,2.15,8.42c-.79,5-2.75,9.6-5.24,15.49-1.94,4.59-4.14,9.79-6.54,16.75C1965.23,1507.34,1950.62,1515.64,1938.1,1515.64Z" fill="#2e2020"/><path d="M1865.69,1495a11.8,11.8,0,0,1-7.72-2.4,6.26,6.26,0,0,1-2.34-4.54c-.36-5.59,6-12.53,13.48-20.56,2.13-2.3,4.34-4.69,6.34-7,4.12-4.79,7.77-11.67,11.3-18.32,4.23-8,8.23-15.51,12.9-19.26,8.33-6.7,20.9-6.48,26.9.47a2,2,0,1,1-3,2.61c-4.58-5.29-14.77-5.28-21.37,0-4,3.24-7.85,10.42-11.88,18-3.63,6.85-7.39,13.93-11.8,19.06-2,2.38-4.28,4.78-6.43,7.12-6,6.42-12.68,13.71-12.44,17.58a2.33,2.33,0,0,0,.93,1.73c5.23,4.38,21.12-.81,33-13.85a2,2,0,1,1,3,2.7C1887.15,1488.65,1874.62,1495,1865.69,1495Z" fill="#2e2020"/><path d="M1916,1421.58a2,2,0,0,1-2-1.58c-.48-2.22-2.76-13.51-.58-17.87a2,2,0,1,1,3.58,1.78c-1.15,2.3-.16,10.3.91,15.25a2,2,0,0,1-2,2.42Z" fill="#2e2020"/><path d="M1972,1494a8,8,0,0,1-2.51-.39,2,2,0,0,1,1.27-3.8c2.71.91,7.2-1.34,11.19-5.6,5.92-6.32,11.23-17.6,6.73-28.62-13.21-32.38-41.37-32.45-61.92-32.5-2.32,0-4.51,0-6.61-.06a2,2,0,1,1,.1-4c2,0,4.22,0,6.52,0,21.69.06,51.39.13,65.61,35,5.22,12.77-.79,25.68-7.51,32.86C1980.61,1491.5,1975.9,1494,1972,1494Z" fill="#2e2020"/><path d="M1976.28,1474.46a2,2,0,0,1-1.68-3.08c6-9.17,7.74-20.09,6.86-26.84a2,2,0,0,1,4-.51c1,7.47-1,19.5-7.47,29.52A2,2,0,0,1,1976.28,1474.46Z" fill="#2e2020"/><path d="M1614.6,1526a2,2,0,0,1-1.49-.66c-9.74-10.84-25.16-51.15-2.11-77.74a2,2,0,0,1,3,2.62c-11.76,13.57-12.07,30.31-10.26,42,2.32,14.9,8.64,26.4,12.33,30.49a2,2,0,0,1-1.49,3.33Z" fill="#2e2020"/><path d="M1610.87,1527.88a2,2,0,0,1-.16-4c7.2-.61,10.68-3.8,11.67-10.69a2,2,0,1,1,3.95.56c-1.24,8.74-6.24,13.35-15.29,14.11Z" fill="#2e2020"/><path d="M1345,1455.68a2,2,0,0,1-1.42-3.4c.4-.41,10-10.1,27.78-21.32,17.16-10.85,46-6.67,79.51-1.83l7.41,1.07c38,5.4,143.57,18.42,154.69,17.44a2,2,0,0,1,.34,4c-12.19,1-121.9-12.67-155.59-17.46l-7.42-1.07c-32.68-4.73-60.89-8.81-76.81,1.25-17.38,11-27,20.65-27.06,20.74A2,2,0,0,1,1345,1455.68Z" fill="#2e2020"/><path d="M1347.16,1432.07a2,2,0,0,1-.5-3.93c1.74-.45,42.87-11,59-5a2,2,0,0,1-1.41,3.74c-15-5.61-56.19,5-56.61,5.11A2.14,2.14,0,0,1,1347.16,1432.07Z" fill="#2e2020"/><path d="M1432.23,1428.67a2,2,0,0,1-.72-.13,2,2,0,0,1-1.15-2.58c2.39-6.23,4.81-19.73,7.38-34s5.2-29,8.15-38.5c1.49-4.85,3.35-11.54,5.49-19.29,13.86-50,21.95-73.42,30.44-71.1a2,2,0,0,1-1.06,3.85c-.14,0-3.6-.69-11.54,21.73-4.94,14-10,32.05-14,46.59-2.15,7.78-4,14.49-5.52,19.4-2.88,9.31-5.5,23.91-8,38-2.6,14.49-5.05,28.18-7.57,34.76A2,2,0,0,1,1432.23,1428.67Z" fill="#2e2020"/><path d="M1635.89,1123.55c-20.23,0-40.33-7.74-59.87-23.06-17.36-13.62-29.39-29.47-34.52-36.24l-.55-.72a2,2,0,1,1,3.18-2.42l.55.72c31.21,41.14,64.18,60.46,98,57.42,22.83-2,35.32-16.28,41.77-27.85,9.39-16.82,10.67-36,8.24-40.9a2,2,0,1,1,3.57-1.78c3.2,6.38,1.55,26.94-8.31,44.62-6.93,12.42-20.34,27.68-44.91,29.89C1640.64,1123.45,1638.26,1123.55,1635.89,1123.55Z" fill="#2e2020"/><path d="M1860.88,1504.84a2.08,2.08,0,0,1-1-.27,2,2,0,0,1-.7-2.74,5.49,5.49,0,0,0,.64-4.43c-1.85-6.89-15-14.21-24.54-19.56-1.79-1-3.47-1.94-5-2.82-3.55-2.07-8.06-4.89-13.28-8.16-13-8.13-29.13-18.26-39.83-22.4-10.36-4-42.37.18-90.13,11.83-24.77,6-63.62,3.75-78.4.76a2,2,0,1,1,.79-3.92c14.07,2.84,52.8,5.1,76.67-.73,34.34-8.37,78.26-17.19,92.51-11.67,11.06,4.28,27.39,14.52,40.51,22.74,5.19,3.25,9.67,6.06,13.17,8.09,1.5.88,3.18,1.81,4.94,2.79,10.76,6,24.16,13.5,26.45,22a9.43,9.43,0,0,1-1.06,7.51A2,2,0,0,1,1860.88,1504.84Z" fill="#2e2020"/><path d="M1853.45,1516.55a30.7,30.7,0,0,1-12.1-2.6c-14.07-6-37.86-18.86-38.1-19a2,2,0,1,1,1.9-3.51c.24.12,23.87,12.85,37.78,18.83,10.27,4.41,18.71,1.47,20.75-1,.22-.26.45-.62.32-.82-2.25-3.31-33-24.23-48.16-31.55-7-3.39-17.66-6.26-28-9-10.71-2.89-20.84-5.62-25.54-8.7a2,2,0,1,1,2.19-3.34c4.17,2.73,14,5.37,24.39,8.18s21.3,5.75,28.66,9.3c14.49,7,46.55,28.22,49.73,32.9a4.53,4.53,0,0,1-.54,5.61C1864.73,1514.29,1859.82,1516.55,1853.45,1516.55Z" fill="#2e2020"/><path d="M1825.25,1531.36c-.93,0-1.85,0-2.74-.12-5.43-.49-14.9-6.73-25.86-14-10.39-6.85-21.13-13.94-27.81-15.54-13.5-3.22-22.57-2.59-22.66-2.58a2,2,0,1,1-.3-4c.39,0,9.79-.68,23.89,2.69,7.37,1.76,18.41,9,29.08,16.08,9.63,6.35,19.59,12.92,24,13.32,7.81.71,15.22-2,16.23-4.12.07-.16.22-.47-.49-1.2-5-5.15-48.13-36.91-54.2-38.7-1.34-.4-4.17-1.13-7.77-2.07-20-5.19-41.68-11.07-46.73-15.14a2,2,0,0,1-.3-2.8,2,2,0,0,1,2.81-.31c4.81,3.87,32.1,11,45.22,14.38,3.64,1,6.51,1.69,7.91,2.11,7.25,2.14,51,34.67,55.92,39.73a4.9,4.9,0,0,1,1.23,5.72C1840.75,1529,1832.51,1531.36,1825.25,1531.36Z" fill="#2e2020"/><path d="M1789,1547.71c-5.68,0-12.19-2.72-16.83-6-1.64-1.14-3.57-2.65-5.8-4.4-9.61-7.53-24.15-18.91-40.48-20.52-11.95-1.18-29.85.75-45.64,2.45-11.42,1.23-21.29,2.29-27.12,2s-12.16-2.48-18.35-4.61c-9-3.08-18.25-6.26-25.64-3.83a2,2,0,0,1-1.24-3.8c8.67-2.85,18.58.56,28.18,3.85,6.2,2.13,12,4.14,17.25,4.4,5.52.28,15.24-.76,26.49-2,16-1.72,34.1-3.67,46.46-2.45,17.49,1.73,32.58,13.54,42.56,21.35,2.18,1.71,4.07,3.19,5.62,4.27,5.91,4.12,13.07,6.13,17.41,4.88a5.06,5.06,0,0,0,3.49-2.93c.16-.38.6-2.64-6.67-10-4.87-4.9-11.47-10.35-16.78-14.73-4.13-3.41-7.4-6.1-9.12-7.89-3-3.16-13.76-7.46-23.23-11.26-8.79-3.53-16.38-6.58-19.07-9a2,2,0,0,1,2.7-2.94c2.16,2,10.14,5.18,17.86,8.28,10.32,4.14,21,8.42,24.62,12.19,1.57,1.63,4.91,4.39,8.79,7.59,15.54,12.82,27.22,23.12,24.58,29.32a9,9,0,0,1-6.07,5.21A14.36,14.36,0,0,1,1789,1547.71Z" fill="#2e2020"/><path d="M1809.89,1462.4a2,2,0,0,1-1-3.75c4.27-2.36,7.85-6.47,8.51-9.78a3.82,3.82,0,0,0-.65-3.31c-1.53-1.92-10.9-1-17.74-.4-6.43.6-13.08,1.22-18,.56a2,2,0,0,1,.53-4c4.47.6,10.88,0,17.09-.58,11.39-1.07,18.51-1.55,21.24,1.9a7.8,7.8,0,0,1,1.44,6.58c-1,5.2-6,10-10.5,12.49A2,2,0,0,1,1809.89,1462.4Z" fill="#2e2020"/><path d="M1621.41,1459.1l-.3,0a2,2,0,0,1-1.68-2.28c.56-3.8-6.26-6.38-6.33-6.41a2,2,0,0,1,1.35-3.76c.41.15,10,3.66,8.93,10.76A2,2,0,0,1,1621.41,1459.1Z" fill="#2e2020"/><path d="M1473.26,368.51a2,2,0,0,1,0-4c2.61-.07,5.26-1.66,7.86-4.73,7.07-8.35,11.37-25,10.22-33.2-1-6.34-3.84-11.41-7-12.58-2-.73-4.29,0-6.83,2.21a2,2,0,1,1-2.61-3c4.63-4,8.43-3.82,10.81-2.95,5.58,2,8.63,9.47,9.62,15.75,1.3,9.23-3.28,27.11-11.12,36.37-3.37,4-7,6.05-10.81,6.15Z" fill="#2e2020"/><path d="M1476.76,349.51a2.22,2.22,0,0,1-.51-.06,2,2,0,0,1-1.42-2.45c1.49-5.6,3.9-10.18,8.34-15.78a2,2,0,0,1,3.13,2.49c-4.06,5.13-6.27,9.28-7.61,14.32A2,2,0,0,1,1476.76,349.51Z" fill="#2e2020"/><path d="M1395.44,370.09a1.85,1.85,0,0,1-.56-.08c-4.62-1.36-7.52-3.4-8.87-6.25-2-4.26,0-9.17,1.87-13.51a26.71,26.71,0,0,0,2.18-6.51c.1-2.83-1.72-6.13-3.18-8.79-.41-.74-.79-1.43-1.11-2.07a2,2,0,0,1,3.57-1.8c.3.6.66,1.25,1,1.94,1.72,3.12,3.86,7,3.67,11a29.28,29.28,0,0,1-2.48,7.81c-1.57,3.74-3.2,7.6-2,10.25.83,1.73,3,3.12,6.39,4.13a2,2,0,0,1-.57,3.91Z" fill="#2e2020"/><path d="M1318.93,387.62c-3.39,0-6.81-1.33-10.22-4-10.66-8.29-18.32-27.23-18.9-36.62-.39-6.13.9-13.8,5.7-16.91,2.12-1.37,5.8-2.39,11.33.52a2,2,0,0,1-1.86,3.54c-3.07-1.62-5.52-1.85-7.29-.7-2.72,1.76-4.29,7.11-3.9,13.3.54,8.55,8.07,26.48,17.38,33.71,3.27,2.55,6.44,3.55,9.43,3a2,2,0,1,1,.74,3.92A12.3,12.3,0,0,1,1318.93,387.62Z" fill="#2e2020"/><path d="M1312.14,366.39a2,2,0,0,1-1.79-1.11c-2.59-5.26-6-8.58-10.59-12.23a2,2,0,0,1,2.48-3.14c4.91,3.89,8.78,7.69,11.69,13.6a2,2,0,0,1-.91,2.68A2,2,0,0,1,1312.14,366.39Z" fill="#2e2020"/><path d="M1355.62,296.76c-13.28,0-27.94-6.35-37-16.36-5.73-6.32-11.87-17-8.6-31.88a2,2,0,1,1,3.9.85,30.93,30.93,0,0,0,7.67,28.34c9.17,10.12,25.21,16.35,38.16,14.81a2,2,0,0,1,.47,4A40.68,40.68,0,0,1,1355.62,296.76Z" fill="#2e2020"/><path d="M1386.7,293.62c-12.76,0-26-2.58-35.57-11a2,2,0,0,1,2.64-3c18,15.86,51.54,9,65.14,5.36a2,2,0,1,1,1,3.86A132.93,132.93,0,0,1,1386.7,293.62Z" fill="#2e2020"/><path d="M1475.91,304a2,2,0,0,1-1.76-1c-6.92-12.73-24.54-13.38-38.69-13.9-6.32-.24-11.78-.44-15.73-1.63-19.34-5.85-31.62-11-33.1-18.84a2,2,0,0,1,3.93-.74c1.32,7,20.91,12.91,30.33,15.75,3.45,1.05,8.67,1.24,14.72,1.46,15.16.56,34,1.26,42.05,16a2,2,0,0,1-.8,2.71A2,2,0,0,1,1475.91,304Z" fill="#2e2020"/><path d="M1313.62,322.65a2,2,0,0,1-1.33-3.49c7.27-6.46,10.13-17.13,8.51-31.72a2,2,0,1,1,4-.44c1.77,15.95-1.54,27.77-9.83,35.14A2,2,0,0,1,1313.62,322.65Z" fill="#2e2020"/><path d="M1320.22,338.19a2,2,0,0,1-.72-.13c-11.45-4.44-17.06-15.19-16.23-31.07a2,2,0,1,1,4,.21c-.74,14.19,3.86,23.32,13.69,27.13a2,2,0,0,1-.73,3.86Z" fill="#2e2020"/><path d="M1372.68,301.2a2,2,0,0,1-.59-.09c-11.28-3.51-18.55-9.91-21-18.51a2,2,0,1,1,3.84-1.11c2.64,9.16,11.45,13.65,18.37,15.8a2,2,0,0,1-.59,3.91Z" fill="#2e2020"/><path d="M1279.49,226.7a31.47,31.47,0,0,1-5.46-.63,2,2,0,0,1-1.75-2.33,2,2,0,0,1,2.31-1.63c7.5,1.31,13.32,2.32,27.82-23.33,8.78-15.54,28.92-28.81,50.13-33,16.82-3.35,32-.53,42.86,7.94a2,2,0,0,1-2.47,3.15c-9.88-7.74-24-10.29-39.61-7.17-20.13,4-39.19,16.48-47.43,31.06-7.14,12.65-12.93,20.11-18.21,23.49A14.61,14.61,0,0,1,1279.49,226.7Z" fill="#2e2020"/><path d="M1286.16,303.72a2,2,0,0,1-1.87-1.27c-8.73-22.37-12.1-64.65,4.66-82.59a2,2,0,0,1,2.92,2.73c-15.65,16.75-12.21,57-3.85,78.4a2,2,0,0,1-1.14,2.59A2,2,0,0,1,1286.16,303.72Z" fill="#2e2020"/><path d="M1299.71,332.91a2,2,0,0,1-1.14-.37c-8.35-5.86-15.72-26.91-11.54-39.6a2,2,0,0,1,3.8,1.25c-3.8,11.52,3.59,30.56,10,35.08a2,2,0,0,1-1.15,3.64Z" fill="#2e2020"/><path d="M1482.31,218.71l-.31,0c-7.17-1.1-9.37-6-12.15-12.28-3-6.82-7.2-16.16-20.2-26-15.22-11.49-33.21-13.05-53.46-4.63l-.87.36a2,2,0,0,1-1.5-3.71l.84-.34c21.65-9,41-7.28,57.4,5.13,13.83,10.44,18.23,20.33,21.44,27.54,2.84,6.37,4.29,9.22,9.1,9.95a2,2,0,0,1-.29,4Z" fill="#2e2020"/><path d="M1487.36,312a2,2,0,0,1-1.68-.9c-4.39-6.69-2.67-14.84-.48-25.16a148.68,148.68,0,0,0,3.21-19.87c1.63-20.54-12.29-53.73-28.23-58.27a2,2,0,1,1,1.09-3.84c8.49,2.42,17,11.64,23.25,25.3,5.69,12.39,8.71,26.61,7.87,37.13a152.72,152.72,0,0,1-3.28,20.38c-2.07,9.77-3.57,16.83-.08,22.13a2,2,0,0,1-1.67,3.1Z" fill="#2e2020"/><path d="M1469.69,334a2.1,2.1,0,0,1-.81-.17,2,2,0,0,1-1-2.64c5.11-11.53-.5-22.07-6.15-31.06a2,2,0,0,1,3.38-2.13c6.66,10.58,12.05,22.12,6.42,34.81A2,2,0,0,1,1469.69,334Z" fill="#2e2020"/><path d="M1477.16,311a2.3,2.3,0,0,1-.45-.05,2,2,0,0,1-1.5-2.4c2.4-10.28.86-20-4.23-26.68a2,2,0,0,1,3.18-2.42c5.81,7.63,7.62,18.57,4.95,30A2,2,0,0,1,1477.16,311Z" fill="#2e2020"/><path d="M1397,448.29c-10.55,0-21.09-3.6-34.58-11.71-23.9-14.29-42.72-41.14-45.79-65.3a2,2,0,0,1,4-.51c2.92,23,21,48.68,43.87,62.38,14,8.42,24.55,11.72,35.23,11.06,13.25-.84,22.25-5.57,33.19-17.48,23.19-24.9,36.18-57.71,33.11-83.6a2,2,0,0,1,4-.47c3.25,27.42-9.83,60.68-34.14,86.78-11.58,12.6-21.65,17.86-35.88,18.76C1399,448.26,1398,448.29,1397,448.29Z" fill="#2e2020"/><path d="M1335.27,316.13a2,2,0,0,1-1.17-3.62c10.94-7.91,25-6,32.4-4.12a2,2,0,0,1-1,3.88c-6.73-1.69-19.46-3.48-29.09,3.48A2,2,0,0,1,1335.27,316.13Z" fill="#2e2020"/><path d="M1409.35,307.27a2,2,0,0,1-1-3.73c7.88-4.58,20.57-4.88,33.94-.8a2,2,0,1,1-1.17,3.82c-12.32-3.76-23.82-3.59-30.76.44A2,2,0,0,1,1409.35,307.27Z" fill="#2e2020"/><path d="M1417.18,334.94a2,2,0,0,1-1.13-3.65c6.09-4.19,14.4-4.6,24.69-1.22a2,2,0,1,1-1.24,3.8c-6.22-2-14.94-3.58-21.18.72A2.09,2.09,0,0,1,1417.18,334.94Z" fill="#2e2020"/><path d="M1427.81,345.42c-3.27.2-5.81-2.92-6-6.67a6.3,6.3,0,0,1,5.67-6.92c3.27-.21,5.81,2.92,6,6.66A6.32,6.32,0,0,1,1427.81,345.42Z" fill="#2e2020"/><path d="M1339.13,340.3a2,2,0,0,1-.75-3.86c7.8-3.15,16.81-5.83,24.55-1.82a2,2,0,1,1-1.84,3.55c-6.3-3.26-14.26-.83-21.21,2A2,2,0,0,1,1339.13,340.3Z" fill="#2e2020"/><path d="M1346.53,343.94c-.23-3.74,1.89-7.16,5.17-7.37a6.31,6.31,0,0,1,6.48,6.17c.24,3.74-1.89,7.16-5.17,7.36A6.31,6.31,0,0,1,1346.53,343.94Z" fill="#2e2020"/><path d="M1198.3,552.23a2,2,0,0,1-1.1-.33,2,2,0,0,1-.56-2.77c16.9-25.51,44.71-34.35,71.6-42.9,14.88-4.74,28.94-9.21,40.92-16.29a2,2,0,0,1,2,3.44c-12.38,7.32-26.64,11.85-41.75,16.66-26.23,8.34-53.36,17-69.48,41.3A2,2,0,0,1,1198.3,552.23Z" fill="#2e2020"/><path d="M1330.67,474.85a2,2,0,0,1-1.58-3.22c14.19-18.4,4.93-57.17,4.84-57.56a2,2,0,0,1,3.88-.95c.41,1.67,9.8,41.05-5.55,61A2,2,0,0,1,1330.67,474.85Z" fill="#2e2020"/><path d="M1616.18,533.74a2,2,0,0,1-1.91-1.43c-2.78-9.42-5.14-13.12-15.43-19.48-3.64-2.26-16-4.88-30.29-7.92-25.51-5.42-60.44-12.84-78.16-24.81a2,2,0,0,1,2.24-3.31c17.07,11.53,51.56,18.86,76.75,24.21,15.87,3.37,27.33,5.81,31.57,8.43,11.23,6.95,14.13,11.53,17.15,21.75a2,2,0,0,1-1.35,2.48A1.87,1.87,0,0,1,1616.18,533.74Z" fill="#2e2020"/><path d="M1467.78,462.47a2,2,0,0,1-1.29-.47c-23.14-19.71-17.63-53.93-15.14-58.58a2,2,0,1,1,3.53,1.89c-2.18,4.06-6.79,35.76,14.2,53.64a2,2,0,0,1-1.3,3.52Z" fill="#2e2020"/><path d="M1397,408.82c-16.26,0-25.89-14.78-26.32-15.45a2,2,0,0,1,1.28-3c.13,0,12.73-2.61,26.21-3.87a213.57,213.57,0,0,1,24.64-.88,2,2,0,0,1,1.55.83,2,2,0,0,1,.3,1.73c-.22.75-5.59,18.22-24.37,20.48A26.51,26.51,0,0,1,1397,408.82Zm-21.09-15.17c3.57,4.24,12.11,12.43,23.9,11,12.18-1.46,17.9-10.61,20-15.13-4.07,0-12.08.06-21.27.92S1380.39,392.81,1375.87,393.65Z" fill="#2e2020"/><path d="M1452.82,580.35c-3.23,0-4.8-4.18-5.9-8.24-3.21-11.71-11.12-20.46-17.48-27.49-6.72-7.44-12-13.31-8.11-19.19,1.32-2,4.1-4.95,8-9,14.92-15.91,42.72-45.53,36.59-72.4a3,3,0,0,1,.74-3.11,2.61,2.61,0,0,1,2.78-.31c4.88,2,22.57,24,23.72,36.34,1.07,11.37-6,25.55-13.43,40.56-2.06,4.16-4.2,8.47-6.2,12.78-3,6.38-5.69,15.57-8.32,24.46C1460,572,1457.35,580.35,1452.82,580.35Zm17.54-134.14c4,28-23.27,57-38.16,72.91a94.51,94.51,0,0,0-7.54,8.53c-2.09,3.13,1.4,7.26,7.75,14.29,6.64,7.34,14.9,16.48,18.36,29.12,1,3.54,1.77,4.77,2.11,5.17,2.25-1.77,5.82-13.8,8.45-22.66,2.68-9,5.45-18.37,8.54-25,2-4.37,4.17-8.69,6.24-12.87,7.19-14.49,14-28.18,13-38.41C1488.27,468,1476.11,451.84,1470.36,446.21Z" fill="#2e2020"/><path d="M1469.81,445.8a2,2,0,0,1-1.36-.54c-2.9-2.7-8-3.28-12.65-1.45a2,2,0,0,1-1.46-3.73c6.07-2.37,12.83-1.47,16.84,2.25a2,2,0,0,1-1.37,3.47Z" fill="#2e2020"/><path d="M1383.59,590c-3.27,0-7.09-5.36-16.26-19.34-6.08-9.27-13-19.78-18.85-25.53-13.48-13.22-39-41.12-39.31-52.16-.19-7.92,11.27-30.17,17-30.63,1.29-.11,2.9.63,3.24,3.06,3.76,27.3,45.08,49.64,62.72,59.18,5.74,3.1,8.1,4.4,9,5.43,2.36,2.58.16,6.64-3.48,13.35-4.85,8.94-12.17,22.44-10.77,37.28.39,4.2.39,8.22-2.32,9.17A3.19,3.19,0,0,1,1383.59,590Zm-57.93-123c-3.8,3.65-12.66,19.06-12.49,25.84.19,7.72,19.52,31.18,38.11,49.4,6.18,6.06,13.2,16.76,19.4,26.2,4.44,6.77,9.85,15,12.39,17.08A22.17,22.17,0,0,0,1383,581c-1.51-16,6.16-30.19,11.24-39.55,1.84-3.4,4.12-7.61,4-8.83a84.12,84.12,0,0,0-7.9-4.54C1372.33,518.38,1330.59,495.81,1325.66,467Z" fill="#2e2020"/><path d="M1325.51,466.59a2,2,0,0,1-1.44-3.39c3.16-3.26,6.29-5.93,12.58-5.88a2,2,0,0,1,2,2,2,2,0,0,1-2,2c-4.73-.07-6.89,1.8-9.66,4.66A2,2,0,0,1,1325.51,466.59Z" fill="#2e2020"/><path d="M1423.36,584.65a2,2,0,0,1-1.91-1.43c-6.91-23.31-23.21-51.49-23.37-51.77a2,2,0,0,1,3.46-2,338.51,338.51,0,0,1,19.39,40.1l-1.36-40.49a2,2,0,0,1,4-.14l1.79,53.68a2,2,0,0,1-1.68,2Z" fill="#2e2020"/><path d="M1420.42,604.17c-16.9,0-34.26-10.86-46.59-20.77-25.15-20.23-45.28-49.15-45.17-59.6a2,2,0,0,1,4,0c-.09,8.32,18.63,36.3,43.68,56.45,13.63,11,33.6,23.17,51.33,19.08,45.61-10.5,67.89-68.81,63.07-119.11a2,2,0,1,1,4-.38c5,52-18.4,112.39-66.15,123.39A36.16,36.16,0,0,1,1420.42,604.17Z" fill="#2e2020"/><path d="M1290.08,772.12a2,2,0,0,1-2-1.83c0-.43-3.58-42.94-6.85-59.73-6.22-31.91-21-58.22-27.14-68a2,2,0,1,1,3.4-2.1c6.2,10,21.32,36.82,27.67,69.39,3.31,17,6.76,58.4,6.9,60.16a2,2,0,0,1-1.82,2.15Z" fill="#2e2020"/><path d="M1416.5,1041.94c-35.78,0-64.63-6.11-82.37-9.87-8.8-1.87-15.16-3.21-18.22-3a2,2,0,0,1-.28-4c3.62-.25,9.88,1.07,19.33,3.08,24.14,5.11,69.07,14.64,123.87,6.81,69-9.86,84.66-21.9,100.66-39.13a2,2,0,0,1,2.93,2.72c-16.58,17.86-32.71,30.32-103,40.37A303,303,0,0,1,1416.5,1041.94Z" fill="#2e2020"/><path d="M1426.46,603.94a2,2,0,0,1-2-1.66L1421,581.89a2,2,0,1,1,3.94-.68l3.51,20.39a2,2,0,0,1-1.63,2.31A1.87,1.87,0,0,1,1426.46,603.94Z" fill="#2e2020"/><path d="M1443.21,1432.07a2,2,0,0,1-2-1.66c-.19-1.06-4.46-26.19-3-36.76a2,2,0,1,1,4,.52c-1.33,10,3,35.31,3,35.57a2,2,0,0,1-1.64,2.3Z" fill="#2e2020"/><path d="M1397.61,288.94c-9.95,0-36.88-13.66-39.45-25.85a2,2,0,1,1,3.92-.82c2,9.52,27.2,23.21,35.89,22.66a2,2,0,0,1,.26,4Z" fill="#2e2020"/><path d="M637,1442.12,334.49,1440a2,2,0,0,1,0-4l302.5,2.12a2,2,0,0,1,0,4Z" fill="#334956"/><path d="M1289.15,1440.59l-225-.58a2,2,0,0,1,0-4l225,.59a2,2,0,1,1,0,4Z" fill="#334956"/><path d="M1889,1440.75l-385.44-.74a2,2,0,0,1,0-4l385.45.74a2,2,0,0,1,0,4Z" fill="#334956"/><path d="M2034.94,1440a2,2,0,0,1,0-4l375.21,0a2,2,0,0,1,0,4Z" fill="#334956"/><path d="M1232.31,922.22a2,2,0,0,1-.75-.14c-6.59-2.64-16-4.91-23-.65a2,2,0,0,1-2.06-3.43c6.74-4,15.93-3.91,26.6.37a2,2,0,0,1-.74,3.85Z" fill="#2e2020"/><path d="M1218.12,933.9c-3.55,0-6.07-3.55-6.07-7.6a6.83,6.83,0,0,1,6.58-7.09c3.55,0,6.08,3.54,6.08,7.59C1224.21,930.86,1221.67,933.9,1218.12,933.9Z" fill="#2e2020"/><path d="M1123.37,921.71a2,2,0,0,1-.63-3.89c8.59-2.87,18.46-5.15,26.49-.32a2,2,0,1,1-2,3.42c-6.63-4-15-2-23.18.69A2,2,0,0,1,1123.37,921.71Z" fill="#2e2020"/><path d="M1131,926.8c0-4,2.53-7.59,6.07-7.59a6.83,6.83,0,0,1,6.59,7.09c0,4.05-2.53,7.6-6.08,7.6A6.82,6.82,0,0,1,1131,926.8Z" fill="#2e2020"/><path d="M1266.62,961.24h-.44a2,2,0,0,1-1.92-2.07,2,2,0,0,1,2.07-1.92c2.89.1,5.88-1.45,8.93-4.62,8.23-8.56,14-26.3,13.32-35.29-.66-7-3.41-12.69-6.84-14.19-2.16-.95-4.75-.29-7.68,2a2,2,0,1,1-2.43-3.18c5.21-4,9.25-3.51,11.71-2.43,5.82,2.54,8.58,10.71,9.23,17.51.77,10-5.36,29-14.43,38.4C1274.41,959.27,1270.53,961.24,1266.62,961.24Z" fill="#2e2020"/><path d="M1271.33,941a2,2,0,0,1-.64-.1,2,2,0,0,1-1.26-2.53c2-5.94,4.89-10.69,10-16.4a2,2,0,1,1,3,2.67c-4.75,5.27-7.42,9.62-9.22,15A2,2,0,0,1,1271.33,941Z" fill="#2e2020"/><path d="M1182.15,957.69a2.08,2.08,0,0,1-.68-.12c-4.85-1.76-7.81-4.14-9.06-7.26-1.87-4.67.68-9.8,2.93-14.32a29.05,29.05,0,0,0,2.8-6.93c.32-3.1-1.44-6.82-2.86-9.81-.38-.81-.74-1.58-1-2.29a2,2,0,1,1,3.68-1.58c.28.67.63,1.4,1,2.16,1.64,3.47,3.68,7.79,3.21,12a31.63,31.63,0,0,1-3.19,8.21c-2,4-4,8.05-2.8,11.06.79,2,3.05,3.65,6.72,5a2,2,0,0,1-.69,3.88Z" fill="#2e2020"/><path d="M1099.1,971.46c-3.91,0-7.78-1.67-11.52-5-10.92-9.64-17.89-30.54-17.89-40.69,0-6.61,1.9-14.73,7.23-17.72,2.34-1.32,6.32-2.16,12,1.31a2,2,0,0,1-2.07,3.42c-3.26-2-5.94-2.4-8-1.25-3.59,2-5.19,8.6-5.19,14.24,0,9.3,6.94,29.22,16.53,37.69,3.4,3,6.8,4.31,10.11,3.9a2,2,0,0,1,.5,4A14.34,14.34,0,0,1,1099.1,971.46Z" fill="#2e2020"/><path d="M1092.47,948.06a2,2,0,0,1-1.84-1.23c-2.45-5.86-5.89-9.69-10.65-14a2,2,0,0,1,2.67-3c5,4.53,8.94,8.88,11.67,15.42a2,2,0,0,1-1.08,2.61A2.07,2.07,0,0,1,1092.47,948.06Z" fill="#2e2020"/><path d="M1181.64,1042.3c-12.48,0-24.34-4.5-39.64-15-24.78-17-43.26-47.22-44.94-73.47a2,2,0,0,1,4-.26c1.6,25.11,19.37,54.07,43.22,70.43,14.59,10.06,25.76,14.35,37.37,14.35,14.4,0,24.46-4.52,37.13-16.68,26.75-25.34,43-59.93,41.44-88.12a2,2,0,1,1,4-.23c1.66,29.78-14.69,64.74-42.67,91.25C1208.2,1037.32,1197,1042.3,1181.64,1042.3Z" fill="#2e2020"/><path d="M1120.85,895.37a2,2,0,0,1-1.07-3.69c12.28-7.76,27.26-4.74,35.11-2.25a2,2,0,0,1-1.21,3.81c-7.18-2.28-20.86-5.08-31.77,1.82A2,2,0,0,1,1120.85,895.37Z" fill="#2e2020"/><path d="M1236.36,892.33a1.93,1.93,0,0,1-.7-.13c-13.08-4.91-25.55-5.51-33.36-1.61a2,2,0,1,1-1.79-3.57c8.79-4.4,22.45-3.86,36.55,1.44a2,2,0,0,1-.7,3.87Z" fill="#2e2020"/><path d="M1112,1026.62a1.64,1.64,0,0,1-.38,0,2,2,0,0,1-1.59-2.34c2.42-12.67-.11-32.25-.14-32.45a2,2,0,0,1,4-.52c.11.82,2.64,20.41.1,33.72A2,2,0,0,1,1112,1026.62Z" fill="#2e2020"/><path d="M1182.91,1001.78c-19.24,0-29-18.53-29.39-19.33a2,2,0,0,1,0-1.86,2,2,0,0,1,1.54-1c.13,0,14-1.54,28.59-1.54a232.35,232.35,0,0,1,26.61,1.54,2,2,0,0,1,1.46,1,2,2,0,0,1,.13,1.76c-.31.77-7.81,19-28.14,19.49Zm-24.23-18.57c3.34,4.88,11.8,14.93,24.94,14.56,13.69-.36,20.73-9.95,23.34-14.57-4.29-.44-13.09-1.2-23.29-1.2S1163.55,982.77,1158.68,983.21Z" fill="#2e2020"/><path d="M1251.24,869.55a2,2,0,0,1-1.81-1.15c-1.54-3.3-4.5-7.31-7.94-11.95-4.62-6.25-10.37-14-14.86-23.18a2,2,0,1,1,3.59-1.76c4.33,8.84,9.72,16.13,14.48,22.56,3.57,4.82,6.64,9,8.35,12.64a2,2,0,0,1-1,2.65A2,2,0,0,1,1251.24,869.55Z" fill="#2e2020"/><path d="M1095,920.19a1.93,1.93,0,0,1-1-.3,2,2,0,0,1-.64-2.75c1.85-3,2.53-6.34,3.24-9.89.18-.89.36-1.78.56-2.67a2,2,0,0,1,3.9.87c-.19.86-.37,1.73-.54,2.58-.75,3.76-1.54,7.64-3.77,11.22A2,2,0,0,1,1095,920.19Z" fill="#2e2020"/><path d="M1074.42,911.53a2,2,0,0,1-1.73-1c-10.6-18.06-15.54-67.44-8.54-85.23.69-1.73,1.41-3.72,2.24-6,6.94-19.06,19.84-54.52,57.95-71.26,41.59-18.28,55.27-14.87,94.68,8,4.33-1.13,23.16-4.55,45.08,13.83,24.21,20.3,36.61,79,22.48,106.55a2,2,0,1,1-3.55-1.83c6.19-12,7.26-31.9,2.86-53.08-4.43-21.34-13.53-39.5-24.36-48.57-22.78-19.11-41.94-12.91-42.13-12.85a2,2,0,0,1-1.65-.16c-39.16-22.75-51.37-25.95-91.81-8.19-36.54,16-49.06,50.47-55.79,69-.84,2.33-1.57,4.33-2.28,6.11-6.06,15.39-2.42,63.54,8.27,81.75a2,2,0,0,1-1.72,3Z" fill="#2e2020"/><path d="M1154.27,853c-18.93,0-37.81-3.92-47.21-13.06a2,2,0,0,1,2.79-2.87c12.05,11.73,42.86,14,65.73,10.22,23.59-3.9,49.26-9.74,55.36-29.62a2,2,0,0,1,3.82,1.17c-6.77,22.07-33.76,28.29-58.52,32.4A136,136,0,0,1,1154.27,853Z" fill="#2e2020"/><path d="M1265.1,904.18a2,2,0,0,1-1.42-3.41c6.6-6.61,9.55-15.24,9.55-28a2,2,0,1,1,4,0c0,9.34-1.21,21.29-10.71,30.79A2,2,0,0,1,1265.1,904.18Z" fill="#2e2020"/><path d="M1248.49,904a1.92,1.92,0,0,1-1-.27,2,2,0,0,1-.71-2.74c9.59-16.31,8.36-21,5.38-32.44-.79-3.06-1.69-6.52-2.54-10.76a2,2,0,0,1,3.92-.78c.82,4.12,1.71,7.53,2.49,10.53,3.08,11.81,4.63,17.73-5.81,35.48A2,2,0,0,1,1248.49,904Z" fill="#2e2020"/><path d="M1267.7,913.13c-5.28,0-8.6-5.83-10.62-9.39l-.16-.27a2,2,0,0,1,3.48-2l.15.28c1.75,3.06,4.39,7.7,7.52,7.35a2,2,0,0,1,.44,4A7.57,7.57,0,0,1,1267.7,913.13Z" fill="#2e2020"/><path d="M1279.06,900a2,2,0,0,1-.79-.16,2,2,0,0,1-1-2.63c6.68-15.39,4.24-34.49,3.43-40.76-.07-.58-.13-1.06-.18-1.43a2,2,0,0,1,4-.45c0,.36.09.82.17,1.37.83,6.54,3.39,26.46-3.73,42.86A2,2,0,0,1,1279.06,900Z" fill="#2e2020"/><path d="M1149.15,1152.53a2.79,2.79,0,0,1-1.84-.73c-5.89-5.16-46.63-93-47-105.09,0-1.76-.15-3.25-.24-4.56-.58-8.45-.21-9.92,11.2-20.09a2,2,0,0,1,3.32,1.7c-3.17,29.13,62.12,72.06,62.78,72.49a2,2,0,0,1-1.47,3.64c-12.41-2.39-17.53,22.75-20.59,37.78-2.14,10.55-2.93,13.93-5.29,14.72A2.63,2.63,0,0,1,1149.15,1152.53Zm-38.6-124.47c-7,6.47-7,7.66-6.54,13.82.1,1.34.2,2.87.26,4.7.36,10.75,36.65,89,44.64,100.89.75-2.25,1.64-6.63,2.45-10.6,3.06-15,7.46-36.69,18.93-40.56C1155.58,1086.06,1113,1054.22,1110.55,1028.06Z" fill="#2e2020"/><path d="M1243.49,1029.69a2,2,0,0,1-1.78-1.08c-3.81-7.38-1.72-25.92.49-35.87a2,2,0,1,1,3.9.87c-2.18,9.81-4,27.13-.84,33.16a2,2,0,0,1-.86,2.69A1.86,1.86,0,0,1,1243.49,1029.69Z" fill="#2e2020"/><path d="M1186.33,1101.34a2,2,0,0,1-1.32-.5,2,2,0,0,1-.17-2.82c2.93-3.31,6.48-7.21,10.23-11.35,9.62-10.59,21.59-23.77,30.68-35.06,13.78-17.09,14.58-22,14.28-23.37a2,2,0,1,1,3.9-.86c1.89,8.5-18.73,32.06-45.9,62-3.74,4.12-7.28,8-10.2,11.31A2,2,0,0,1,1186.33,1101.34Z" fill="#2e2020"/><path d="M1220.6,1147a4.79,4.79,0,0,1-1.34-.2c-4.94-1.46-8.46-10.69-13.78-25.63-4-11.2-8.52-23.89-13.12-27.13a2,2,0,1,1,2.3-3.27c5.64,4,10.18,16.72,14.58,29.06,3.53,9.88,7.91,22.18,11.15,23.14.14,0,.37.11.87-.27,7.17-5.49,18.88-47.64,25.89-72.82,1.8-6.49,3.36-12.1,4.6-16.24,5-16.85,0-20.32-6.92-25.13-1.22-.85-2.47-1.72-3.72-2.69a2,2,0,0,1,2.46-3.15c1.16.9,2.37,1.74,3.54,2.55,7.37,5.11,14.33,9.94,8.47,29.56-1.23,4.11-2.78,9.7-4.58,16.17-10.06,36.16-19.71,69.1-27.31,74.92A5,5,0,0,1,1220.6,1147Z" fill="#2e2020"/><path d="M850.94,1318.45l-.26,0a2,2,0,0,1-1.73-2.24c3.48-26.9,14-69.62,26.94-108.83,8.74-26.61,26-74.09,43.38-93,13.1-14.28,41.56-21.16,74.52-29.13,38.59-9.32,82.33-19.89,105.81-45.14a2,2,0,0,1,2.93,2.72c-24.3,26.13-68.66,36.85-107.8,46.31-31,7.49-60.23,14.56-72.51,27.94-27,29.4-62.26,145.26-69.3,199.69A2,2,0,0,1,850.94,1318.45Z" fill="#2e2020"/><path d="M1471.8,1056.71c-41.91,0-86-3.42-100.82-6.21-13.74-2.59-35.91-4.3-57.36-6-26-2-50.54-3.92-58.49-7.25a2,2,0,1,1,1.55-3.69c7.35,3.09,32.72,5.05,57.25,7,21.55,1.67,43.84,3.4,57.78,6,31.37,5.89,157.66,11.7,181.88-3.75a2,2,0,0,1,2.15,3.37C1543.34,1054.1,1508.39,1056.71,1471.8,1056.71Z" fill="#2e2020"/><path d="M1328.23,1255.32a2,2,0,0,1-.79-.17,2,2,0,0,1-1-2.62c11.09-25.88,30.11-62.21,30.31-62.58a2,2,0,0,1,3.54,1.86c-.2.36-19.15,36.56-30.18,62.29A2,2,0,0,1,1328.23,1255.32Z" fill="#2e2020"/><path d="M967.11,1327.09a2,2,0,0,1-2-2c1-38.7,27.8-122.19,29-125.72a2,2,0,0,1,3.8,1.22c-.28.87-27.78,86.49-28.76,124.6A2,2,0,0,1,967.11,1327.09Z" fill="#2e2020"/><path d="M1792.54,1157.48a2,2,0,0,1-.09-4c5.9-.26,11.85-10,17.61-19.52,1.78-2.92,3.62-6,5.49-8.75,7.87-11.81,9.17-21.16,10.42-41.24.74-12-2.52-18-5.4-20.84a9.62,9.62,0,0,0-7.33-3.14c-5.32.33-9.92-5.54-14.35-11.21a54.56,54.56,0,0,0-5-5.83c-12.14-11.35-50.88-13.08-59.72-10.59-7.55,2.13-16.09,6.8-23.62,10.92-5.6,3.06-10.44,5.7-13.76,6.65a2,2,0,0,1-1.09-3.85c2.89-.82,7.54-3.36,12.93-6.31,7.72-4.22,16.47-9,24.46-11.25,9.22-2.6,49.66-1.46,63.53,11.51a56.24,56.24,0,0,1,5.38,6.29c3.38,4.32,7.58,9.69,10.79,9.69h.17a13.75,13.75,0,0,1,10.4,4.31c3.45,3.45,7.39,10.4,6.56,23.91-1.3,20.84-2.67,30.58-11.09,43.21-1.82,2.73-3.64,5.72-5.39,8.61-6.59,10.84-12.82,21.08-20.85,21.44Z" fill="#2e2020"/><path d="M1735.9,1114.68a5.16,5.16,0,0,1-1.41-.2c-7-2-7.74-12.91-2.18-32.3,5-17.48,6.84-30.71,5.07-36.31a2,2,0,1,1,3.8-1.21c2.62,8.23-1.29,25.54-5,38.62-4.56,15.91-4.76,26.13-.54,27.36a3,3,0,0,0,2-.56c5.57-3.24,13.43-16.45,15.23-23.94,2.3-9.54,11.09-24.43,25.91-26.32a2,2,0,1,1,.51,4c-12.72,1.63-20.57,15.15-22.53,23.29-2,8.47-10.49,22.62-17.11,26.46A7.51,7.51,0,0,1,1735.9,1114.68Z" fill="#2e2020"/><path d="M1786,1161.24h-.34c-4.53-.25-8-5.22-9.39-13.63-1.75-10.27,2.56-22.82,6-32.9,1.94-5.64,3.77-11,4-14.5.73-9.51-7.27-28.1-12.87-36.21a2,2,0,1,1,3.28-2.27c6.22,9,14.39,28.11,13.58,38.79-.31,4-2.14,9.35-4.25,15.49-3.31,9.65-7.44,21.66-5.86,30.92,1.2,7,3.71,10.21,5.67,10.32s4.18-2.34,5.69-7.64c.76-2.66,1.42-5.21,2.05-7.69,2.37-9.22,4.41-17.18,10-24.08,5.19-6.34,4.51-36.28,3.81-47.28a2,2,0,0,1,4-.25c.26,4.21,2.41,41.37-4.71,50.07-5.07,6.2-7,13.77-9.27,22.54-.64,2.49-1.3,5.08-2.07,7.79C1793.56,1157.33,1790.06,1161.24,1786,1161.24Z" fill="#2e2020"/><path d="M1800.81,1156.22a13.56,13.56,0,0,1-3.12-.34,2,2,0,0,1,.94-3.89c5.84,1.42,17.45-3.41,25.42-12.84,8.93-10.57,18.19-26.12,18.25-33.86s-10.57-16.91-15.25-19a2,2,0,1,1,1.6-3.65c5.31,2.32,17.72,12.84,17.65,22.65-.08,10.06-11.81,27.67-19.19,36.41C1819.88,1150.29,1808.81,1156.22,1800.81,1156.22Z" fill="#2e2020"/><path d="M1814.63,1155.63a12.57,12.57,0,0,1-5.14-.85,2,2,0,1,1,1.7-3.61c3,1.41,15.85,0,25.87-7.55s13.08-19.36,11.77-22.38c-1.17-2.67-5.74-4.38-7.24-4.76a2,2,0,0,1,1-3.88c.79.21,7.76,2.12,9.91,7,2.3,5.26-2.16,19-13,27.18C1831.33,1153,1821.19,1155.63,1814.63,1155.63Z" fill="#2e2020"/><path d="M1173.86,1144.77a2,2,0,0,1-1.82-1.17c-2.56-5.62-14.81-34-4.44-40.25,10.06-6.1,20.17-6.56,31.8-1.44,4.08,1.8,5.35,8.8,4,22-.94,9-2.76,17.41-2.83,17.76a2,2,0,0,1-1.84,1.57l-24.73,1.49Zm10.43-42.34a27.68,27.68,0,0,0-14.62,4.34c-5.25,3.17-.1,21.31,5.45,33.92l21.82-1.31c.57-2.82,1.78-9.27,2.46-15.87,1.66-16-1.27-17.79-1.61-17.94A33.47,33.47,0,0,0,1184.29,1102.43Z" fill="#2e2020"/><path d="M1173.58,1144.65a1.14,1.14,0,0,1-.26,0c-4.86-.61-18.41-7-19.94-7.69a2,2,0,1,1,1.71-3.61c4,1.89,15.15,6.88,18.74,7.34a2,2,0,0,1-.25,4Z" fill="#2e2020"/><path d="M1201.51,1141.93a2,2,0,0,1-.66-3.89c4.54-1.59,8.92-5.59,9-5.63a2,2,0,1,1,2.7,2.94,34.61,34.61,0,0,1-10.35,6.46A1.92,1.92,0,0,1,1201.51,1141.93Z" fill="#2e2020"/><path d="M1178.94,1436.89a2,2,0,0,1-2-1.81c-.69-7.4-16.9-181.5-17.34-200.35-.47-20,8.44-83.91,12.46-94.43a2,2,0,0,1,3.73,1.42c-3.82,10-12.64,73.77-12.2,92.92.44,18.71,17.16,198.26,17.33,200.07a2,2,0,0,1-1.8,2.17Z" fill="#2e2020"/><path d="M1243.18,1439.21a2,2,0,0,1-2-1.85c-.13-1.77-13.2-177.61-16.2-213.55-1.31-15.77-20.52-74.3-25.9-83.7a2,2,0,1,1,3.47-2c5.77,10.08,25.06,69,26.42,85.35,3,36,16.06,211.81,16.2,213.59a2,2,0,0,1-1.85,2.14Z" fill="#2e2020"/><path d="M1098.28,911.29a2,2,0,0,1-1.21-.4,2,2,0,0,1-.38-2.8c.11-.15,10.75-14.29,10.09-25.19l0-.8c-1-16.56-1.44-33.27,5.14-39.63a2,2,0,0,1,2.78,2.88c-5.81,5.61-4.59,25.71-3.93,36.51l0,.8c.75,12.39-10.42,27.22-10.9,27.85A2,2,0,0,1,1098.28,911.29Z" fill="#2e2020"/><path d="M1236,800.65a2,2,0,0,1-1.9-1.39c-4.22-13.12-12.68-35.08-17.42-38.17a2,2,0,0,1,2.18-3.35c7.49,4.88,17.88,36.69,19,40.3a2,2,0,0,1-1.29,2.51A1.86,1.86,0,0,1,1236,800.65Z" fill="#2e2020"/><path d="M1097.32,909.11a2.2,2.2,0,0,1-.61-.09,2,2,0,0,1-1.3-2.51c2.26-7.17-.34-35.23-1.53-45.43a2,2,0,0,1,1.76-2.22,2,2,0,0,1,2.21,1.75c.18,1.54,4.35,37.65,1.37,47.1A2,2,0,0,1,1097.32,909.11Z" fill="#2e2020"/><path d="M1759.46,437.64c-6.13,0-12.09-2.89-16.9-8.21-6.08-6.74-9.22-16.16-8-24,1.62-10.27,24.94-15.51,39.27-13.9,9.85,1.11,15.27,5.23,14.85,11.3-.69,10-4.81,33.52-28.16,34.79C1760.17,437.63,1759.82,437.64,1759.46,437.64ZM1738.52,406c-1,6.6,1.78,14.93,7,20.71,4.26,4.72,9.5,7.16,14.78,6.87,20.17-1.1,23.78-22.09,24.39-31.07.36-5.18-7.79-6.66-11.31-7.05-14.94-1.69-33.84,4-34.87,10.54Z" fill="#2e2020"/><path d="M1692.25,450.33c-18,0-26.7-17.87-29.81-26.27-2.11-5.71,1.92-11.19,11.06-15,13.61-5.72,37.07-7.3,41.59,2.25,3.4,7.18,3.05,17.11-.88,25.29-3.3,6.83-8.6,11.42-14.94,12.92A30.8,30.8,0,0,1,1692.25,450.33Zm4.78-41.91a59.35,59.35,0,0,0-22,4.29c-3.26,1.37-10.66,5.09-8.86,10,3.12,8.44,12.5,27.56,32.17,22.92,5.14-1.22,9.49-5,12.24-10.77,3.38-7,3.74-15.8.88-21.84C1710,410,1704.23,408.42,1697,408.42Z" fill="#2e2020"/><path d="M1712.36,411.77a2.09,2.09,0,0,1-.69-.12,2,2,0,0,1-1.2-2.58c1-2.68,6-5.1,10.41-6.1,3.58-.81,10.24-1.49,14.69,3a2,2,0,1,1-2.83,2.83c-2.56-2.56-6.5-2.61-9.36-2.19-5,.72-8.73,3.08-9.17,3.89A2,2,0,0,1,1712.36,411.77Z" fill="#2e2020"/><path d="M1221.81,951.53c-17.14,0-31.09-15.77-31.09-35.14a39.17,39.17,0,0,1,1.09-8.77,2,2,0,0,1,1.51-1.51,151.16,151.16,0,0,1,29-3.31,134.41,134.41,0,0,1,28,3.32,2,2,0,0,1,1.48,1.5,39.12,39.12,0,0,1,1.08,8.77C1252.86,935.76,1238.93,951.53,1221.81,951.53Zm-26.37-41.78a33.77,33.77,0,0,0-.72,6.64c0,17.17,12.15,31.14,27.09,31.14s27.06-14,27.06-31.14a34,34,0,0,0-.72-6.66,132.49,132.49,0,0,0-25.84-2.94A147.08,147.08,0,0,0,1195.44,909.75Z" fill="#2e2020"/><path d="M1136.51,954a29.51,29.51,0,0,1-20.12-8.2,37.47,37.47,0,0,1-11.52-23.7,38.86,38.86,0,0,1,.18-8.83,2,2,0,0,1,1.5-1.7,254.54,254.54,0,0,1,29.53-5.27,172.65,172.65,0,0,1,26.87-.56,2,2,0,0,1,1.76,1.35,39.22,39.22,0,0,1,2,8.61c2,19.27-10.24,36.39-27.27,38.16C1138.44,954,1137.47,954,1136.51,954Zm-27.64-38.87a32.71,32.71,0,0,0,0,6.56,33.38,33.38,0,0,0,10.26,21.17,25.24,25.24,0,0,0,19.89,7c14.84-1.54,25.47-16.69,23.7-33.77a33.74,33.74,0,0,0-1.37-6.46,175.57,175.57,0,0,0-24.84.62A245.38,245.38,0,0,0,1108.87,915.15Z" fill="#2e2020"/><path d="M1165.29,916.16a2,2,0,0,1-1.06-3.7c.7-.43,17.22-10.58,29.48-.32a2,2,0,1,1-2.56,3.06c-10.06-8.41-24.65.56-24.8.65A2,2,0,0,1,1165.29,916.16Z" fill="#2e2020"/><path d="M1250.82,910.82a2,2,0,0,1-.57-3.91l29.5-8.91a2,2,0,0,1,1.16,3.82l-29.51,8.92A1.93,1.93,0,0,1,1250.82,910.82Z" fill="#2e2020"/><path d="M1105.27,915.57l-.36,0L1080.16,911a2,2,0,1,1,.72-3.93l24.75,4.55a2,2,0,0,1-.36,4Z" fill="#2e2020"/><path d="M1087.65,1661.82a20,20,0,0,1-2.42-.15l-400.35-49.88c-10.33-1.29-20.21-10.67-22-20.9L614.05,1317.4c-.93-5.2.28-10,3.41-13.43s7.74-5.16,13-4.77l402.34,29.25c10.44.77,20.27,9.79,21.92,20.12L1102,1644.34c.83,5.23-.47,9.93-3.66,13.23A14.47,14.47,0,0,1,1087.65,1661.82ZM629,1303.14a11.24,11.24,0,0,0-8.58,3.51c-2.28,2.52-3.15,6.09-2.44,10l48.79,273.5c1.54,8.63,9.88,16.55,18.59,17.63l400.35,49.88c4,.5,7.42-.54,9.72-2.91s3.21-5.86,2.58-9.82l-47.25-295.77c-1.37-8.61-9.56-16.12-18.27-16.76l-402.33-29.26C629.78,1303.16,629.39,1303.14,629,1303.14Z" fill="#334956"/><path d="M1100.32,1647.42a2,2,0,0,1-.89-3.79l177-87.74a7.94,7.94,0,0,0,2.18-1.52,8.33,8.33,0,0,0-2.62-.65l-194.34-22.81a2,2,0,0,1,.47-4l194.34,22.82c4.7.55,6,2.4,6.28,3.86s-.29,3.65-4.5,5.84l-177.07,87.76A2,2,0,0,1,1100.32,1647.42Z" fill="#334956"/><path d="M1095,1660.17a2,2,0,0,1-.9-3.78l183.69-92.29a3.16,3.16,0,0,0,1.45-2.39l-.08-8.31a2,2,0,1,1,4,0l.08,8.32a7.11,7.11,0,0,1-3.63,6L1095.88,1660A2.08,2.08,0,0,1,1095,1660.17Z" fill="#334956"/><path d="M843.87,391.53s16-5.14,16-33.77c0,0-1.8,27.12,17.72,33,0,0-18.13,10.45-16.64,35.53C860.91,426.26,859.55,397.64,843.87,391.53Z" fill="#fff"/><path d="M675.31,559.28S687,555.52,687,534.61c0,0-1.31,19.81,12.95,24.08,0,0-13.25,7.64-12.16,26C687.76,584.66,686.77,563.75,675.31,559.28Z" fill="#fff"/><path d="M611.55,511.56s9.45-3,9.45-19.38c0,0-1.06,15.56,10.5,18.91,0,0-10.73,6-9.85,20.39C621.65,531.48,620.85,515.06,611.55,511.56Z" fill="#fff"/><path d="M1890,347s16-5.15,16-33.77c0,0-1.8,27.11,17.72,33,0,0-18.13,10.45-16.64,35.54C1907,381.7,1905.67,353.08,1890,347Z" fill="#fff"/><path d="M2040.45,378.74s11.66-3.76,11.66-24.68c0,0-1.31,19.81,12.94,24.09,0,0-13.24,7.64-12.15,26C2052.9,404.11,2051.91,383.2,2040.45,378.74Z" fill="#fff"/><path d="M1976.69,331s9.45-2.95,9.45-19.37c0,0-1.06,15.55,10.5,18.91,0,0-10.74,6-9.86,20.39C1986.78,350.94,1986,334.52,1976.69,331Z" fill="#fff"/><path d="M1596.19,199.17s11.66-3.76,11.66-24.67c0,0-1.31,19.81,13,24.08,0,0-13.24,7.64-12.16,26C1608.64,224.55,1607.65,203.64,1596.19,199.17Z" fill="#fff"/><path d="M766.45,1015s11.66-3.76,11.66-24.68c0,0-1.32,19.82,12.95,24.09,0,0-13.25,7.64-12.16,26C778.9,1040.35,777.91,1019.44,766.45,1015Z" fill="#fff"/><path d="M2058.05,849.79s11.66-3.77,11.66-24.68c0,0-1.31,19.81,12.95,24.09,0,0-13.25,7.63-12.16,26C2070.5,875.16,2069.52,854.25,2058.05,849.79Z" fill="#fff"/></svg>