<svg xmlns="http://www.w3.org/2000/svg" viewBox="0 0 2745 1830"><rect width="2745" height="1830" fill="#ffeab8"/><path d="M1865.3,771.32a3.82,3.82,0,0,1-3.38-5.57A10.89,10.89,0,0,0,1860,753c-5.15-5.3-14.25-5.54-24.35-.65a3.81,3.81,0,0,1-5.45-3.86c1.43-12.68,2.59-30-3.92-33.79-3-1.79-11.43-2.41-33.63,13.45a3.84,3.84,0,0,1-3.56.47,3.8,3.8,0,0,1-2.37-2.7c-4.24-18.13-14.38-30.73-27.82-34.56-10-2.85-20.5-.33-27.42,6.58a3.81,3.81,0,0,1-6.5-2.79c.38-14.56-18.58-34.54-46.12-48.59-30-15.3-72-24-99.83-2.7a3.82,3.82,0,0,1-6.07-2.33c-1-5.56-4.11-12.22-9.59-14.24-5.3-2-12.52.58-20.89,7.32a3.8,3.8,0,0,1-4.82,0c-54.51-45.13-171.94-72.25-241.64-55.79-25.53,6-42.69,17.51-49.62,33.22a3.83,3.83,0,0,1-3.35,2.27,3.78,3.78,0,0,1-3.5-2c-4.82-9-13-14.62-21.4-14.62H1218c-9.53.08-18.51,7.41-25.3,20.66a3.82,3.82,0,0,1-5.58,1.39c-24-16.73-52.49-21.71-80.26-14-25,6.89-46.77,23.88-55.51,43.28a3.82,3.82,0,0,1-6.41.88c-4.91-5.9-14-11-21.3-9-7.63,2.2-10.48,11.87-11.53,19.59a3.81,3.81,0,0,1-6.18,2.45c-10.13-8.22-19.43-11.45-26.17-9.1-7,2.42-12,10.66-15.12,24.5a3.82,3.82,0,0,1-6.06,2.19c-9.61-7.45-20.49-10-29.84-6.91-10.93,3.57-19.29,14.39-24.17,31.31a3.82,3.82,0,0,1-6,2c-11.7-9-21.31-11.9-28.54-8.71-11.55,5.09-15.74,25.37-16.38,32.75a3.82,3.82,0,0,1-5.55,3.06C829,724,823,726.2,821.27,727.59s-4.13,6.23.31,21.55a3.81,3.81,0,1,1-7.32,2.12c-4.38-15.09-3.67-24.75,2.16-29.55s15.61-3.88,30.42,3.06c1.66-9.28,6.59-27.69,20.14-33.66,8.94-3.94,19.65-1.75,31.9,6.5,7.28-20.72,18.81-28.5,27.5-31.34,10.25-3.35,21.74-1.55,32.21,4.89,3.88-13.38,10.15-21.65,18.67-24.62,8.18-2.85,17.94-.56,28.47,6.63,3.28-13.3,10.21-18.09,15.81-19.7,8.63-2.48,18.43,1.48,25.31,7.4,10.87-19.54,32.58-35.62,58-42.63A101.56,101.56,0,0,1,1188,611c10.61-18.09,23.18-21,30-21.06h.22c9.22,0,18.13,4.82,24.43,12.94,9.23-14.88,26.94-25.74,51.69-31.58,71.91-17,188,9.38,245.88,55.41,9.73-7.16,18.42-9.39,25.86-6.64,5.78,2.13,10.4,7.37,13,14.46,30.46-19.4,72.85-10.39,103.36,5.17,26.45,13.5,45.16,32.06,49.37,48.27a36.06,36.06,0,0,1,29.29-4c14.76,4.21,26.11,16.77,31.7,34.81,17.68-11.9,29.66-15.29,37.46-10.71,8.93,5.25,9.61,19.38,8.26,34.91,10.85-3.5,20.69-1.9,27.06,4.65a18.44,18.44,0,0,1,3.21,21.63A3.85,3.85,0,0,1,1865.3,771.32Z" fill="#f9c04e"/><path d="M1557.3,1085.1a3.8,3.8,0,0,1-3.22-5.84,43.93,43.93,0,0,1,7.12-7.88c4.35-4.11,7.35-7.17,6.25-9.13-6.35-11.39-14-27.8-6.78-38.84,5.14-7.9,16.56-11.31,34.86-10.32-3.26-13.18-1.87-23.85,4.09-31.06,5.75-6.95,15.09-10.1,27.85-9.33-1.42-15.78,1.19-26.57,8.07-33.72,6.26-6.5,15.61-9.53,28.57-9.08-2.15-12.93.78-25.09,8.32-33.94,8.85-10.38,23.26-15.57,40.9-14.86-1.41-9,.31-16.6,5.12-22.65,7.11-8.93,20.51-13.64,38.93-13.74-1.63-9.09.86-17.27,7.14-23,7.6-6.89,19.19-8.92,30.85-5.76-.73-8.84,3.15-17.7,11-24.31,10.4-8.8,27.92-13.52,45.29-5.89,2.08-12.8,9.18-22.27,20-26.41,11.24-4.29,24.56-1.84,34.45,6,8.59-12.08,18.11-18.55,28.34-19.25a29.59,29.59,0,0,1,16.7,4.1,31.57,31.57,0,0,1,3.16-18c4.47-8.82,13.25-15.57,25-19.3-5.24-11.06-4.5-22.35,2.26-30.93a27.4,27.4,0,0,1,26.9-9.8c6.23-27.67,13.22-41,34.2-44.9a18.86,18.86,0,0,1,1.14-17.08c4.89-8.32,15.73-13.66,27.63-14-2.8-8.87-1.75-17.33,3.08-22.57,3.82-4.15,11.21-7.83,25.2-3.78-.59-7.63,1.77-14.22,6.85-18.65,6.36-5.54,16.06-6.88,26.07-3.81,2.76-12.12,8.62-20.8,17.46-25.83,18.26-10.42,42.27-1,43.28-.62a3.81,3.81,0,1,1-2.83,7.08c-.21-.09-21.66-8.43-36.71.18-7.76,4.44-12.65,12.82-14.54,24.92a3.82,3.82,0,0,1-5.29,2.91c-8.79-3.84-17.38-3.49-22.42.92-4.29,3.74-5.46,10-3.3,17.6a3.81,3.81,0,0,1-5.09,4.58c-11-4.42-19.2-4.54-23.08-.33-3.64,4-3.45,11.89.48,19.76a3.81,3.81,0,0,1-3.85,5.49c-11.12-1.31-22.19,2.9-26.36,10-2.56,4.36-2.08,9.2,1.38,14a3.81,3.81,0,0,1-2.7,6c-21.76,2.2-27.32,12.29-34,43.58a3.8,3.8,0,0,1-4.93,2.82c-8.51-2.83-17.37-.39-22.58,6.23-5.59,7.08-5.35,17,.63,26.59a3.81,3.81,0,0,1-2.37,5.73c-11.91,2.79-20.68,8.69-24.7,16.64-3.45,6.79-3.38,14.8.19,23.16a3.81,3.81,0,0,1-6.41,4c-.08-.09-8.66-9.89-20-9.08-8.66.62-17,7.17-24.88,19.47a3.83,3.83,0,0,1-2.82,1.74,3.78,3.78,0,0,1-3.12-1.13c-8-8.15-19.9-11.1-29.71-7.36-9.57,3.66-15.14,12.68-15.7,25.4a3.81,3.81,0,0,1-5.74,3.11c-15.77-9.28-32.28-5.44-41.65,2.49-7.53,6.37-10.18,15-7.09,23a3.81,3.81,0,0,1-5.13,4.84c-10.85-4.89-22.66-4.08-29.39,2-5.16,4.68-6.48,11.77-3.71,20a3.81,3.81,0,0,1-.56,3.5,3.76,3.76,0,0,1-3.2,1.53c-18.27-.68-31.66,3.14-37.75,10.79-4.12,5.17-5,12.26-2.63,21.07a3.8,3.8,0,0,1-4.07,4.79c-17.45-1.78-31.47,2.43-39.48,11.84-7,8.2-9,19.61-5.65,32.14a3.82,3.82,0,0,1-.77,3.44,3.88,3.88,0,0,1-3.26,1.34c-13-1.21-22.25,1-27.53,6.45-5.73,6-7.53,16.48-5.48,32.17a3.84,3.84,0,0,1-1.08,3.18,3.79,3.79,0,0,1-3.18,1.09c-12.24-1.53-21.18.61-25.79,6.18-4.94,6-5.36,16.35-1.18,29.23a3.83,3.83,0,0,1-.65,3.56,3.92,3.92,0,0,1-3.33,1.41c-17.92-1.66-29.43.58-33.28,6.49-3.71,5.69-1.4,15.81,7,31,4.07,7.3-2.44,13.45-7.68,18.4a39.35,39.35,0,0,0-5.9,6.39A3.83,3.83,0,0,1,1557.3,1085.1Z" fill="#f9c04e"/><path d="M1998.56,912.07a3.81,3.81,0,0,1-3.68-4.8c2-7.52,6.06-12.95,12-16.11s12.48-3.39,17.6-2.86c-4.2-9.62-5.83-23.29,5.93-33.66,13.49-11.91,32.14-4.3,42.32,1.49a21.88,21.88,0,0,1,7.38-14.62,14.37,14.37,0,0,1,10.93-4c8.75.58,15.72,8.72,16.49,9.64a3.81,3.81,0,0,1-5.87,4.87c-1.52-1.82-6.49-6.61-11.14-6.9a6.59,6.59,0,0,0-5.23,2c-7.54,7-4.49,14.35-4.12,15.17a3.81,3.81,0,0,1-5.76,4.64c-.26-.19-25.6-19.24-40-6.57-14.12,12.46-1,30.29-.46,31a3.81,3.81,0,0,1-4.3,5.89c-.11,0-11.76-3.92-20.27.62-4.06,2.16-6.74,5.87-8.21,11.33A3.8,3.8,0,0,1,1998.56,912.07Z" fill="#f9c04e"/><path d="M1720.88,1035.78a3.81,3.81,0,0,1-3.69-4.8c2-7.52,6.07-12.94,12-16.11s12.47-3.37,17.6-2.86c-4.2-9.62-5.82-23.28,5.93-33.66,13.49-11.9,32.14-4.3,42.32,1.49a21.9,21.9,0,0,1,7.38-14.62,3.81,3.81,0,1,1,5.17,5.6c-7.53,7-4.48,14.35-4.11,15.17a3.82,3.82,0,0,1-5.76,4.65c-.25-.2-25.59-19.25-40-6.57-14,12.39-1,30.29-.46,31a3.81,3.81,0,0,1-4.3,5.88c-.12,0-11.78-3.91-20.27.62-4.06,2.17-6.75,5.88-8.22,11.34A3.8,3.8,0,0,1,1720.88,1035.78Z" fill="#f9c04e"/><path d="M1193.41,1085.1a3.8,3.8,0,0,1-3.23-1.78,39,39,0,0,0-5.91-6.39c-5.23-5-11.74-11.1-7.67-18.4,8.45-15.14,10.76-25.26,7.05-31-3.84-5.91-15.35-8.15-33.28-6.49a3.81,3.81,0,0,1-4-5c4.17-12.88,3.76-23.26-1.18-29.23-4.61-5.57-13.53-7.71-25.8-6.18a3.81,3.81,0,0,1-4.25-4.27c2-15.69.25-26.21-5.49-32.17-5.27-5.48-14.54-7.65-27.52-6.45a3.9,3.9,0,0,1-3.26-1.34,3.8,3.8,0,0,1-.77-3.44c3.34-12.53,1.34-23.94-5.65-32.14-8-9.41-22-13.62-39.49-11.84a3.8,3.8,0,0,1-4.06-4.79c2.37-8.81,1.49-15.9-2.63-21.07-6.09-7.65-19.5-11.48-37.75-10.79a3.82,3.82,0,0,1-3.76-5c2.77-8.21,1.45-15.3-3.71-20-6.73-6.1-18.54-6.91-29.39-2a3.81,3.81,0,0,1-5.13-4.84c3.09-8,.44-16.67-7.09-23-9.37-7.93-25.89-11.78-41.65-2.49a3.81,3.81,0,0,1-5.74-3.11c-.56-12.72-6.14-21.74-15.71-25.4-9.8-3.74-21.74-.79-29.7,7.36a3.77,3.77,0,0,1-3.12,1.13,3.83,3.83,0,0,1-2.82-1.74c-7.85-12.3-16.22-18.85-24.88-19.47-11.33-.8-19.91,9-20,9.09a3.81,3.81,0,0,1-6.41-4c3.57-8.36,3.63-16.37.19-23.16-4-8-12.8-13.85-24.71-16.64a3.81,3.81,0,0,1-2.36-5.73c6-9.57,6.22-19.51.64-26.59-5.22-6.62-14.09-9.07-22.59-6.23a3.79,3.79,0,0,1-4.93-2.82c-6.68-31.29-12.23-41.38-34-43.58a3.81,3.81,0,0,1-2.7-6c3.46-4.78,3.94-9.62,1.38-14-4.18-7.11-15.25-11.32-26.35-10a3.81,3.81,0,0,1-3.86-5.49c3.93-7.87,4.12-15.81.48-19.76-3.88-4.21-12.08-4.09-23.08.33a3.81,3.81,0,0,1-5.09-4.58c2.15-7.61,1-13.86-3.3-17.6-5-4.4-13.63-4.76-22.42-.92a3.83,3.83,0,0,1-5.3-2.91c-1.88-12.11-6.78-20.5-14.56-24.94-15.12-8.61-36.47-.25-36.68-.16a3.81,3.81,0,1,1-2.83-7.08c1-.41,25-9.8,43.28.62,8.84,5,14.7,13.71,17.46,25.83,10-3.08,19.71-1.73,26.07,3.81,5.07,4.43,7.44,11,6.85,18.65,14-4,21.37-.37,25.2,3.78,4.83,5.24,5.88,13.69,3.08,22.57,11.89.34,22.74,5.67,27.62,14a18.83,18.83,0,0,1,1.15,17.08c21,3.92,28,17.23,34.19,44.9a27.41,27.41,0,0,1,26.91,9.8c6.75,8.57,7.5,19.87,2.26,30.93,11.74,3.73,20.51,10.47,25,19.3a31.57,31.57,0,0,1,3.17,18,29.63,29.63,0,0,1,16.7-4.1c10.23.7,19.75,7.17,28.35,19.25,9.88-7.88,23.2-10.33,34.44-6,10.83,4.14,17.93,13.61,20,26.41,17.37-7.64,34.88-2.91,45.28,5.89,7.81,6.61,11.69,15.47,11,24.31,11.65-3.16,23.25-1.13,30.85,5.76,6.28,5.69,8.77,13.87,7.14,23,18.42.1,31.81,4.81,38.93,13.74,4.81,6,6.53,13.65,5.12,22.65,17.69-.7,32,4.48,40.89,14.86,7.55,8.85,10.48,21,8.32,33.94,12.92-.46,22.31,2.58,28.57,9.08,6.89,7.15,9.49,17.94,8.08,33.72,12.76-.74,22.1,2.38,27.85,9.33,6,7.21,7.35,17.88,4.09,31.06,18.29-1,29.71,2.42,34.86,10.32,7.19,11-.43,27.45-6.78,38.84-1.1,2,1.9,5,6.25,9.13,2.62,2.49,5.34,5,7.12,7.88a3.82,3.82,0,0,1-1.19,5.26A3.87,3.87,0,0,1,1193.41,1085.1Z" fill="#f9c04e"/><path d="M868.69,1387.67l-.35,0a3.81,3.81,0,0,1-3.45-4.15c0-.2,1.82-20.77-5.32-35.06a3.81,3.81,0,0,1,4.9-5.21c1.27.54,12.64,6,22.19,29.94a3.81,3.81,0,1,1-7.08,2.82,77.81,77.81,0,0,0-8.36-16,95.54,95.54,0,0,1,1.26,24.17A3.8,3.8,0,0,1,868.69,1387.67Z" fill="#f9c04e"/><path d="M901.64,1382a3.81,3.81,0,0,1-3.68-2.83c-3.63-13.6-3.22-30.21-2.13-39-9.17,10.31-12.06,25.21-12.1,25.35a3.81,3.81,0,1,1-7.4-1.82c.2-.82,5.13-20.35,23.07-33.4a3.82,3.82,0,0,1,5.91,4.13c-.06.21-5.81,21,0,42.82a3.81,3.81,0,0,1-2.7,4.67A4.19,4.19,0,0,1,901.64,1382Z" fill="#f9c04e"/><path d="M929.48,1384.35a3.82,3.82,0,0,1-3.39-2.07c-9.12-17.66-4.8-32.09-.91-39.75-20.09,2.47-9.74-1.26-23.45,13.5a3.82,3.82,0,0,1-5.59-5.2c.75-.8,18.43-19.58,36.55-15.51a3.8,3.8,0,0,1,2.08,6.17c-.52.63-12.9,16-1.9,37.3a3.82,3.82,0,0,1-3.39,5.56Z" fill="#f9c04e"/><path d="M682.51,1265.85a3.8,3.8,0,0,1-3.17-1.7A230.23,230.23,0,0,0,661.89,1241c1.06,11.74-1.64,19.7-8.14,24.2a3.82,3.82,0,0,1-5.24-.88l-9.3-12.66-9.3,12.66a3.81,3.81,0,0,1-6.82-1.56L620,1246.16c-6.23,4.36-13.06,10.78-13.06,15.87a3.82,3.82,0,0,1-3.82,3.82H558.79a3.82,3.82,0,0,1,0-7.63h41.06c3.15-11.25,19-20.5,21-21.61a3.81,3.81,0,0,1,5.62,2.62l2.51,13.46,7.17-9.76a4,4,0,0,1,6.14,0l9.74,13.26c2.92-4.46,3.25-12.11,1-22.85a3.8,3.8,0,0,1,2.68-4.45c2.34-.68,7.83-2.24,30,31a3.82,3.82,0,0,1-3.17,5.93Z" fill="#f9c04e"/><path d="M700,1265.85a4,4,0,0,1-1.22-.2,3.82,3.82,0,0,1-2.4-4.83c2.54-7.56,7.7-20.53,13.77-22.53a3.82,3.82,0,0,1,4.65,2l4.76,10.31A83.81,83.81,0,0,1,737.42,1219a3.81,3.81,0,0,1,6.6,3.11c-2.5,17,1.06,27.92,11.91,36.16h5.62c2.25-2,8.17-8.56,8.91-20.74a3.81,3.81,0,0,1,5.8-3c11.13,6.83,11.29,25.49,11.27,27.6a3.81,3.81,0,0,1-3.81,3.77h0a3.8,3.8,0,0,1-3.78-3.84c0-3.16-.62-10.26-3.16-15.58-3.29,12.63-11.2,18.43-11.6,18.71a3.8,3.8,0,0,1-2.22.72h-8.25a3.82,3.82,0,0,1-2.22-.72c-12.72-9.12-16.46-20.51-16.84-31.27a82.89,82.89,0,0,0-11.22,28.9,3.82,3.82,0,0,1-7.21.87l-7-15.16a82,82,0,0,0-6.55,14.78A3.81,3.81,0,0,1,700,1265.85Z" fill="#f9c04e"/><path d="M696.94,1265.85a3.81,3.81,0,0,1-3.8-3.61,84,84,0,0,1,3.54-28.25c-14.66,6.76-18.92,15.55-19,15.65a3.81,3.81,0,1,1-6.91-3.22c.28-.6,7.16-14.85,31.14-22.65a3.82,3.82,0,0,1,4.64,5.23,77.29,77.29,0,0,0-5.84,32.83,3.81,3.81,0,0,1-3.6,4Z" fill="#f9c04e"/><path d="M865.6,1265.85a3.83,3.83,0,0,1-3.18-1.7A230.29,230.29,0,0,0,845,1241c1.06,11.74-1.64,19.7-8.15,24.2a3.82,3.82,0,0,1-5.24-.88l-9.29-12.66L813,1264.29a3.77,3.77,0,0,1-3.92,1.46,3.83,3.83,0,0,1-2.9-3l-4.85-26c-5.55,8.93-11.3,19.91-11.3,25.32a3.81,3.81,0,1,1-7.62,0c0-11.92,16-34.91,17.82-37.49a3.82,3.82,0,0,1,6.87,1.5l5,26.65,7.16-9.76a3.84,3.84,0,0,1,3.08-1.55h0a3.83,3.83,0,0,1,3.07,1.55l9.74,13.26c2.91-4.46,3.25-12.11,1-22.85a3.82,3.82,0,0,1,2.68-4.45c2.35-.66,7.84-2.23,30,31a3.82,3.82,0,0,1-3.17,5.93Z" fill="#f9c04e"/><path d="M968.65,1265.85a3.82,3.82,0,0,1-3.17-5.93c22.16-33.26,27.65-31.7,30-31a3.82,3.82,0,0,1,2.68,4.45c-2.27,10.74-1.93,18.39,1,22.85l9.74-13.26a3.83,3.83,0,0,1,3.07-1.55h0a3.84,3.84,0,0,1,3.08,1.55l7.16,9.76,5-26.65a3.81,3.81,0,0,1,6.86-1.5c1.83,2.58,17.83,25.57,17.83,37.49a3.82,3.82,0,1,1-7.63,0c0-5.41-5.74-16.39-11.29-25.32l-4.86,26a3.81,3.81,0,0,1-6.82,1.56l-9.3-12.66-9.3,12.66a3.81,3.81,0,0,1-5.24.88c-6.51-4.5-9.2-12.46-8.14-24.2a231.75,231.75,0,0,0-17.45,23.18A3.8,3.8,0,0,1,968.65,1265.85Z" fill="#f9c04e"/><path d="M1079,1266.65a3.86,3.86,0,0,1-1.68-.39,21.49,21.49,0,0,1-11.34-17.14,125.53,125.53,0,0,0-14.92,16.09,3.82,3.82,0,0,1-6-4.74c12.3-15.55,21.1-22.68,26.16-21.26a3.81,3.81,0,0,1,2.68,4.45c-1.54,7.29,1.66,11.7,4.19,13.95l10.19-13.87a4,4,0,0,1,6.14,0l8.3,11.29,8.68-21.88a3.81,3.81,0,0,1,6.63-.83c1.35,1.86,13.22,18.57,13.22,30.52a3.82,3.82,0,0,1-7.63,0c0-5.67-4.21-14-7.84-20.06l-8.51,21.46a3.85,3.85,0,0,1-3.06,2.38,3.8,3.8,0,0,1-3.56-1.53l-9.3-12.65-9.3,12.65A3.8,3.8,0,0,1,1079,1266.65Z" fill="#9ebc7a"/><path d="M883.12,1265.85a3.93,3.93,0,0,1-1.21-.2,3.81,3.81,0,0,1-2.4-4.83c2.54-7.56,7.7-20.53,13.76-22.53a3.83,3.83,0,0,1,4.66,2l4.75,10.31A84,84,0,0,1,920.5,1219a3.81,3.81,0,0,1,6.6,3.11c-2.5,17,1.07,27.92,11.92,36.16h5.62c2.24-2,8.17-8.56,8.91-20.74a3.8,3.8,0,0,1,5.8-3c11.12,6.83,11.28,25.49,11.27,27.6a3.82,3.82,0,0,1-3.82,3.77h0A3.81,3.81,0,0,1,963,1262c0-3.16-.61-10.26-3.16-15.58-3.29,12.63-11.2,18.43-11.6,18.71a3.77,3.77,0,0,1-2.22.72h-8.25a3.87,3.87,0,0,1-2.22-.72c-12.72-9.12-16.45-20.51-16.84-31.27a83.15,83.15,0,0,0-11.21,28.9,3.82,3.82,0,0,1-7.21.87l-7-15.18a81.28,81.28,0,0,0-6.54,14.8A3.82,3.82,0,0,1,883.12,1265.85Z" fill="#f9c04e"/><path d="M880,1265.85a3.82,3.82,0,0,1-3.81-3.61c-.59-11.09-1.76-21.52-2.61-28.21-10.59,10.91-12.74,15.46-12.76,15.51a3.87,3.87,0,0,1-5,2,3.78,3.78,0,0,1-2-4.91c.28-.7,3.27-7.32,19.86-23.4a3.81,3.81,0,0,1,6.42,2.14c0,.17,2.71,17.37,3.74,36.5a3.81,3.81,0,0,1-3.61,4Z" fill="#f9c04e"/><path d="M2062.49,1265.85a3.81,3.81,0,0,1-3.17-5.93c22.17-33.28,27.65-31.7,30-31a3.8,3.8,0,0,1,2.68,4.45c-2.26,10.74-1.93,18.39,1,22.85l9.74-13.26a4,4,0,0,1,6.14,0l7.17,9.76,2.51-13.46a3.8,3.8,0,0,1,5.62-2.62c2,1.11,17.84,10.36,21,21.61h41.07a3.82,3.82,0,0,1,0,7.63h-44.34a3.82,3.82,0,0,1-3.81-3.82c0-5.09-6.83-11.51-13.06-15.87l-3.09,16.57a3.81,3.81,0,0,1-6.82,1.56l-9.3-12.66-9.3,12.66a3.82,3.82,0,0,1-5.24.88c-6.51-4.5-9.2-12.46-8.14-24.2a231.39,231.39,0,0,0-17.45,23.18A3.8,3.8,0,0,1,2062.49,1265.85Z" fill="#f9c04e"/><path d="M1536.72,1265.85a3.82,3.82,0,0,1-3.17-5.93c22.17-33.28,27.66-31.7,30-31a3.82,3.82,0,0,1,2.68,4.45c-2.27,10.74-1.93,18.39,1,22.85l9.74-13.26a4,4,0,0,1,6.15,0l7.17,9.76,2.51-13.46a3.8,3.8,0,0,1,5.62-2.62c2.2,1.24,21.53,12.52,21.53,25.42a3.82,3.82,0,1,1-7.63,0c0-5.09-6.83-11.51-13.06-15.87l-3.09,16.57a3.81,3.81,0,0,1-6.82,1.56l-9.3-12.66-9.3,12.66a3.82,3.82,0,0,1-5.24.88c-6.51-4.5-9.2-12.45-8.15-24.2a231.44,231.44,0,0,0-17.44,23.18A3.81,3.81,0,0,1,1536.72,1265.85Z" fill="#f9c04e"/><path d="M2045,1265.85a3.82,3.82,0,0,1-3.61-2.6,79.51,79.51,0,0,0-6.56-14.78l-7,15.16a3.81,3.81,0,0,1-7.2-.87,82.77,82.77,0,0,0-11.22-28.89c-.38,10.75-4.12,22.14-16.84,31.26a3.84,3.84,0,0,1-2.22.72h-8.25a3.74,3.74,0,0,1-2.21-.72c-.41-.28-8.32-6.08-11.61-18.71-2.54,5.32-3.18,12.42-3.16,15.58a3.8,3.8,0,0,1-3.78,3.84h0a3.81,3.81,0,0,1-3.81-3.77c0-2.11.14-20.77,11.27-27.6a3.81,3.81,0,0,1,5.8,3c.74,12.17,6.65,18.68,8.91,20.74h5.61c10.86-8.24,14.42-19.13,11.92-36.16a3.81,3.81,0,0,1,6.6-3.11,84,84,0,0,1,17.82,31.68l4.76-10.31a3.83,3.83,0,0,1,4.65-2c6.07,2,11.23,15,13.77,22.53a3.82,3.82,0,0,1-2.4,4.83A4,4,0,0,1,2045,1265.85Z" fill="#f9c04e"/><path d="M2048.06,1265.85h-.21a3.81,3.81,0,0,1-3.6-4,77.29,77.29,0,0,0-5.84-32.83,3.81,3.81,0,0,1,4.63-5.23c24,7.8,30.87,22,31.15,22.65a3.81,3.81,0,0,1-6.9,3.25c-.09-.19-4.56-9-19-15.67a84,84,0,0,1,3.54,28.24A3.81,3.81,0,0,1,2048.06,1265.85Z" fill="#f9c04e"/><path d="M1879.4,1265.85a3.82,3.82,0,0,1-3.17-5.93c22.17-33.28,27.66-31.7,30-31a3.82,3.82,0,0,1,2.68,4.45c-2.27,10.74-1.93,18.39,1,22.85l9.74-13.26a4,4,0,0,1,6.15,0l7.16,9.76,5-26.65a3.81,3.81,0,0,1,6.86-1.5c1.83,2.58,17.83,25.57,17.83,37.49a3.81,3.81,0,1,1-7.62,0c0-5.41-5.75-16.39-11.3-25.32l-4.86,26a3.81,3.81,0,0,1-6.82,1.56l-9.3-12.66-9.29,12.66a3.83,3.83,0,0,1-5.25.88c-6.5-4.5-9.2-12.45-8.14-24.2a231.75,231.75,0,0,0-17.45,23.18A3.8,3.8,0,0,1,1879.4,1265.85Z" fill="#f9c04e"/><path d="M1776.35,1265.85a3.8,3.8,0,0,1-3.17-1.7,231.39,231.39,0,0,0-17.45-23.18c1.06,11.74-1.63,19.7-8.14,24.2a3.82,3.82,0,0,1-5.24-.88l-9.3-12.66-9.3,12.66a3.81,3.81,0,0,1-6.82-1.56l-4.86-26c-5.55,8.93-11.3,19.91-11.3,25.32a3.81,3.81,0,1,1-7.62,0c0-11.92,16-34.91,17.83-37.49a3.81,3.81,0,0,1,6.86,1.5l5,26.65,7.16-9.76a4,4,0,0,1,6.15,0l9.74,13.26c2.92-4.46,3.25-12.11,1-22.85a3.82,3.82,0,0,1,2.68-4.45c2.33-.67,7.83-2.25,30,31a3.82,3.82,0,0,1-3.17,5.93Z" fill="#f9c04e"/><path d="M1666,1266.65a3.8,3.8,0,0,1-3.08-1.56l-9.3-12.65-9.3,12.65a3.81,3.81,0,0,1-6.62-.85l-8.51-21.45c-3.63,6-7.84,14.39-7.84,20a3.82,3.82,0,0,1-7.63,0c0-11.95,11.87-28.66,13.22-30.52a3.81,3.81,0,0,1,6.63.83l8.68,21.88,8.3-11.29a4,4,0,0,1,6.14,0l10.19,13.87c2.53-2.24,5.73-6.66,4.19-13.95a3.8,3.8,0,0,1,2.68-4.45c5.07-1.41,13.85,5.71,26.16,21.26a3.82,3.82,0,1,1-6,4.74,125.53,125.53,0,0,0-14.92-16.09,21.49,21.49,0,0,1-11.34,17.14A3.82,3.82,0,0,1,1666,1266.65Zm9.2-20.05Z" fill="#f9c04e"/><path d="M1861.88,1265.85a3.82,3.82,0,0,1-3.62-2.6,79.55,79.55,0,0,0-6.55-14.78l-7,15.16a3.87,3.87,0,0,1-3.92,2.19,3.82,3.82,0,0,1-3.29-3.06,83,83,0,0,0-11.21-28.89c-.39,10.75-4.12,22.14-16.84,31.26a3.87,3.87,0,0,1-2.22.72H1799a3.74,3.74,0,0,1-2.21-.72c-.4-.28-8.31-6.08-11.6-18.71-2.55,5.32-3.18,12.42-3.16,15.58a3.81,3.81,0,0,1-3.79,3.84h0a3.81,3.81,0,0,1-3.81-3.77c0-2.11.15-20.77,11.27-27.6a3.8,3.8,0,0,1,5.8,3c.74,12.17,6.65,18.68,8.91,20.74H1806c10.85-8.24,14.42-19.13,11.92-36.16a3.81,3.81,0,0,1,6.6-3.11,84,84,0,0,1,17.82,31.68l4.75-10.31a3.85,3.85,0,0,1,4.66-2c6.06,2,11.22,15,13.76,22.53a3.81,3.81,0,0,1-2.4,4.83A3.93,3.93,0,0,1,1861.88,1265.85Z" fill="#f9c04e"/><path d="M1865,1265.85h-.21a3.81,3.81,0,0,1-3.6-4c1-19.13,3.71-36.33,3.74-36.5a3.81,3.81,0,0,1,6.42-2.14c16.59,16.08,19.58,22.7,19.86,23.4a3.81,3.81,0,0,1-7,3c-.11-.22-2.37-4.8-12.76-15.51-.86,6.69-2,17.12-2.62,28.21A3.81,3.81,0,0,1,1865,1265.85Z" fill="#f9c04e"/><path d="M1861.87,1447a3.82,3.82,0,0,1-3.42-5.49c22.16-45.39,27.64-43.24,30.59-42.1a3.82,3.82,0,0,1,2.38,4.14c-2.32,15-2,25.86.94,32.41l9.46-17.56a3.81,3.81,0,0,1,6.71,0l6.83,9,2.54-14.94a3.81,3.81,0,0,1,6.1-2.5c.86.66,21.08,16.42,21.08,33.18a3.82,3.82,0,1,1-7.63,0c0-8-7.19-16.93-13-22.59l-3.16,23.11a3.81,3.81,0,0,1-7.14,1.29l-9-16.74-9,16.74a3.81,3.81,0,0,1-6,1c-6.3-5.94-8.81-16.63-7.61-32.51a330.08,330.08,0,0,0-17.28,31.41A3.81,3.81,0,0,1,1861.87,1447Z" fill="#f9c04e"/><path d="M1714.44,1607.81a3.71,3.71,0,0,1-1.67-.39,3.8,3.8,0,0,1-1.75-5.09c22.15-45.39,27.63-43.24,30.58-42.11a3.82,3.82,0,0,1,2.39,4.14c-2.33,15-2,25.86.94,32.41l9.46-17.56a3.81,3.81,0,0,1,6.71,0l6.82,12.68,2.54-18.57a3.82,3.82,0,0,1,6.11-2.51c.86.66,21.07,16.42,21.07,33.19a3.81,3.81,0,0,1-7.62,0c0-8-7.2-16.94-13-22.6l-3.16,23.11a3.81,3.81,0,0,1-7.13,1.3l-9-16.75-9,16.75a3.84,3.84,0,0,1-2.75,2,3.78,3.78,0,0,1-3.22-1c-6.3-5.94-8.82-20.26-7.61-36.14-4.94,7.58-11.74,23.7-17.28,35A3.8,3.8,0,0,1,1714.44,1607.81Z" fill="#f9c04e"/><path d="M1691.89,1602.14a3.77,3.77,0,0,1-1.23-.2,3.82,3.82,0,0,1-2.38-4.84,148.25,148.25,0,0,0,6.5-45.09A3.82,3.82,0,0,1,1701,1549c.89.72,22,17.81,23.08,43.52a3.81,3.81,0,0,1-7.62.32c-1-24.17-8-24.85-14.15-31.86a153,153,0,0,1-6.78,38.63A3.82,3.82,0,0,1,1691.89,1602.14Z" fill="#f9c04e"/><path d="M752.14,912.07a3.82,3.82,0,0,1-3.68-2.83c-1.46-5.47-4.16-9.18-8.23-11.35-8.43-4.47-20.13-.64-20.24-.6a3.81,3.81,0,0,1-4.3-5.89c.56-.75,13.58-18.65-.47-31-14.35-12.67-39.69,6.37-40,6.56a3.81,3.81,0,0,1-5.75-4.68c.36-.78,3.41-8.16-4.13-15.13a6.71,6.71,0,0,0-5.23-2c-4.66.3-9.62,5.08-11.14,6.9a3.81,3.81,0,0,1-5.87-4.87c.76-.92,7.74-9.06,16.49-9.64a14.38,14.38,0,0,1,10.93,4A21.93,21.93,0,0,1,678,856.13c10.17-5.79,28.82-13.4,42.32-1.49,11.76,10.37,10.13,24,5.93,33.66,5.12-.53,11.73-.26,17.6,2.86s10,8.59,12,16.11a3.82,3.82,0,0,1-2.7,4.67A3.74,3.74,0,0,1,752.14,912.07Z" fill="#f9c04e"/><path d="M1029.83,1035.78a3.82,3.82,0,0,1-3.68-2.82c-1.46-5.46-4.15-9.17-8.21-11.34-8.5-4.53-20.16-.66-20.27-.61a3.82,3.82,0,0,1-4.29-5.9c.56-.75,13.57-18.65-.47-31-14.35-12.68-39.69,6.37-39.95,6.57a3.81,3.81,0,0,1-5.75-4.68c.36-.79,3.41-8.16-4.13-15.14a3.81,3.81,0,0,1,5.18-5.6,22,22,0,0,1,7.38,14.62c10.17-5.79,28.82-13.4,42.32-1.49,11.75,10.38,10.12,24,5.93,33.66,5.12-.51,11.73-.26,17.6,2.86s10,8.59,12,16.11a3.81,3.81,0,0,1-2.7,4.67A3.74,3.74,0,0,1,1029.83,1035.78Z" fill="#f9c04e"/><path d="M1152.94,760.4c-2.32,1.54-34.46,29.64-34,37.11s6.16,22.91,21.62,20.73S1152.94,760.4,1152.94,760.4Z" fill="#fee299"/><path d="M1670.32,808.8a3.82,3.82,0,0,1-3.64-5c3.84-12.18-17-47.1-53-77.74-25.89-22-38.15-21.87-40.69-19.94l-2.54-2.84-2.72-2.67c2.1-2.15,14.46-11.34,50.89,19.64S1679.35,789,1674,806.13A3.81,3.81,0,0,1,1670.32,808.8Z" fill="#571519"/><path d="M1119.41,808.8a3.82,3.82,0,0,1-3.49-2.28c-1.34-3-1-6.91,1.11-11.86,11.5-27.37,81.68-93.68,91-97.18,8.83-3.32,13.52,1.4,14.77,4.35a3.81,3.81,0,0,1-7,3.09c-.5-.89-2.11-1.44-5.12-.3-3.47,1.59-27,22.2-49.88,46.13-33.06,34.56-39.41,49.38-37.95,52.69a3.83,3.83,0,0,1-3.49,5.36Z" fill="#571519"/><polygon points="1386.2 1648.91 1444.53 1656.73 1449.09 1620.49 1386.2 1648.91" fill="#ffe4ce"/><path d="M1466.48,1613.47c-6.28,5.5-15.13-.08-20.76,19-7.53,26.38,3.51,35.27,14.9,37.5,31.91,6.25,42.59,12.18,57.09,20.31,32,17.8,44.25,32.68,56.29,34.08,6.92.87,14.3-7.77,20.21-18.62,3.64-6.49-7.58-12-5-25.47,3.81-17,16.3-13.14,16.38-23.21.25-18.21-3.33-36.2-11.54-40.21-14.68-7.2-50.23-2.15-88.34-8.17-14.68-2.4-34-10-35-4.94C1471,1604.76,1471.58,1609.19,1466.48,1613.47Z" fill="#fff"/><path d="M1564.87,1720.17s12.6,10.63,18.43,9.85c10.75-1.73,25.77-20.41,31.94-44.66s2.66-64.33-8.47-70.35c-9.85-5.29-27.53-2-27.53-2Z" fill="#fff"/><path d="M1235.68,1375.12s-10.31,42.27-21.65,72.17-93.52,150-93.52,150l69.81,45.9,170.11-14L1504.77,1612h100.88l98.1-125.51L1572.81,1339Z" fill="#7d98a8"/><polygon points="1246.3 1611.98 1283.1 1607.95 1299.6 1679.11 1231.92 1682.34 1215.06 1629.2 1246.3 1611.98" fill="#ffe4ce"/><path d="M1101.62,1701.14c-19.41,7-32,13.14-46.38,10.15s-26.66-36.33-21.68-58.6,15.83-45.81,39.33-49.35c13.71-2.12,39.42-.12,70.9-1.43,13.78-.58,24.25-9.23,34.88-14.29,15.94-7.85,23.23-10.21,33.73-6.54s18.72,11.52,33.9,21.15l14.12,9.25-24.72,8.12c10.2,24.88,14.92,47,2.46,60.61Z" fill="#fff"/><path d="M1217.12,1435.64a3.73,3.73,0,0,1-1.89-.51,3.81,3.81,0,0,1-1.42-5.2c7.75-13.56,10.83-42.54,10.86-42.83a3.81,3.81,0,1,1,7.58.78c-.12,1.26-3.27,30.88-11.82,45.84A3.81,3.81,0,0,1,1217.12,1435.64Z" fill="#571519"/><path d="M1310,1483.05s-223.21-152.55-283.08-166.69-144,27.43-104.14,108.34c54.81,111.39,170.64,154.69,206.19,177.62Z" fill="#7d98a8"/><path d="M1222.28,914s-2.31,22-7.7,47.23c-5.24,24.53-19,40.91-22.54,90.42s22.1,210.92,23.87,327.61c114.93,79.57,360,54.65,368.58-18.43-58.35-74.26-5.49-402.21-5.49-402.21Z" fill="#fee299"/><path d="M819.93,238.71l.28.25c12,.24,26.24,6.43,38.18,14.29,18.67,12.29,34.63,7.66,50.08,27.48,15.85,19.48,77.23,104.5,77.23,104.5s94,110.48,124.39,148.35S1226.53,740.7,1226.53,740.7c-11.77,43.44-35.64,70.11-76.68,90.83,0,0-70.75-153.47-107.33-209.58-37.7-57.85-51.21-78.28-82.9-139.31l-38.48-75.45S898.24,356,885.91,347.9c-14.09-9.31-29.91-11-46.46-12.7-9.19-1.12-25.47-1.71-29.45-12.06a16.87,16.87,0,0,1-.53-1.79C797.3,314.05,791,294.21,786.81,274,779.46,238,819.93,238.71,819.93,238.71Z" fill="#ffe4ce"/><path d="M831.14,302.38a3.81,3.81,0,0,1-.26-7.61c4.23-.3,16-1.24,20.25-2.09,2-.62,4.34-1.47,6.8-2.37,9.68-3.54,21.74-7.94,31.49-4.56a3.81,3.81,0,1,1-2.49,7.2c-7.19-2.49-17.83,1.4-26.39,4.52-2.62,1-5.1,1.87-7.36,2.55a2,2,0,0,1-.33.09c-5.46,1.14-20.79,2.22-21.44,2.27Z" fill="#571519"/><path d="M830.41,302.33h-.15a3.81,3.81,0,0,1-3.66-4,109.27,109.27,0,0,0,0-11.67,3.81,3.81,0,0,1,7.15-2.63c.28.69,1,2.3.46,14.6A3.83,3.83,0,0,1,830.41,302.33Zm-3.78-15.55.08.2Z" fill="#571519"/><path d="M1148.51,833.27A3.82,3.82,0,0,1,1145,831c-.69-1.58-69.71-158.36-106.21-213.21l-2.66-4c-36.5-54.85-50.15-75.38-81.74-134.85l-39.2-75.1c-9.3-20.27-26.05-52.13-34.46-57.51-13.43-8.7-28.71-10.15-44.88-11.68-1-.12-2-.22-3.11-.32-10-1-25.13-2.46-29.63-13.86-2.5-6.55-1.88-15.14-1.43-21.41A187.11,187.11,0,0,1,803.9,279c.6-7.5,4-12.69,10.19-15.4,9.23-4.06,27.73,5.79,35.25,11.2.48.38,1,.73,1.62,1.14,3.32,2.22,8.34,5.59,8.93,10.29a9.07,9.07,0,0,1-2.6,8c-2.82,2.65-7.46,3.54-13.08,2.5a55.83,55.83,0,0,1-14.11-5,3.81,3.81,0,0,1,3.59-6.73,48.65,48.65,0,0,0,11.91,4.26c3.38.63,5.71.16,6.45-.54.11-.11.41-.39.28-1.47-.26-1.32-4.29-4-5.61-4.91-.79-.52-1.47-1-2-1.36-9.73-7-23.46-12.15-27.61-10.33-3.58,1.58-5.33,4.41-5.67,9.19a3,3,0,0,1-.06.42,177.15,177.15,0,0,0-2.12,19.44c-.4,5.57-1,13.18.93,18.11,2.77,7,15.1,8.23,23.26,9,1.12.11,2.18.21,3.16.32,16.3,1.55,33.24,3.15,48.22,12.86,13,8.3,34.74,55.24,37.18,60.57l39.1,74.9c31.4,59.11,45,79.55,81.34,134.17l2.66,4C1082,669,1151.31,826.34,1152,827.92a3.83,3.83,0,0,1-3.49,5.35Z" fill="#571519"/><path d="M805.09,324.23a3.83,3.83,0,0,1-1.24-.2c-15-5.12-14.79-23.28-14.7-33,0-1.06,0-2,0-2.93-.08-2,1.49-23.82,9.25-30.53,5.59-4.84,21.13-2.42,30.37.84,10.37,3.65,16.71,9.17,17.87,15.53a3.82,3.82,0,0,1-7.51,1.36c-.58-3.22-5-6.69-11.7-9.26-10.66-4.08-22.13-4.19-24.05-2.7-4.39,3.8-6.74,21.05-6.61,24.58,0,1,0,2.06,0,3.18-.11,11.34.55,22.67,9.54,25.75a3.81,3.81,0,0,1-1.23,7.42Z" fill="#571519"/><path d="M791.09,302.45a3.8,3.8,0,0,1-2.22-.71c-9.82-7-8.77-24.55-7.86-31.76.27-2.18,2.91-21.37,10.8-24.43,9.44-3.27,39.71,1.79,45.44,16.2a3.82,3.82,0,0,1-7.09,2.82c-3.76-9.47-29.42-14-35.72-11.87-1.78,1.14-5.9,11.47-6.34,24-.32,9.25,1.63,16.3,5.21,18.86a3.81,3.81,0,0,1-2.22,6.91Z" fill="#571519"/><path d="M1227.1,736.5a3.8,3.8,0,0,1-3.38-2c-.88-1.68-87.83-168.51-118-205.37C1075.42,492,981,383.08,980.07,382s-62.49-84.81-78.27-103.83c-8.77-11-17.43-13.71-27.45-16.8-7-2.15-14.15-4.37-22-9.44-16.51-10.65-39.81-19.19-51.08-8.21a3.82,3.82,0,0,1-5.32-5.47c14.48-14.09,40.76-5.48,60.53,7.28,7,4.49,13.66,6.56,20.12,8.55,10.3,3.17,20.94,6.45,31.13,19.28,15.87,19.13,75.75,100.43,78.3,103.88.76.86,95.24,109.83,125.65,147,30.62,37.46,115.22,199.78,118.81,206.67a3.81,3.81,0,0,1-1.62,5.14A3.87,3.87,0,0,1,1227.1,736.5Z" fill="#571519"/><path d="M848.19,282.11h-.28a3.8,3.8,0,0,1-3.52-4.08c.4-5.67-9-8.88-11.87-9.73a3.81,3.81,0,1,1,2.16-7.31c11.56,3.4,17.87,9.81,17.31,17.59A3.81,3.81,0,0,1,848.19,282.11Z" fill="#571519"/><path d="M782.26,281.05a3.82,3.82,0,0,1-3.12-1.62c-4.39-6.23-2.92-24.5.22-33.77,1.61-4.6,7.63-7.64,16.11-8.19,11.48-.73,27.35,3.3,34.35,17.14a3.81,3.81,0,0,1-6.81,3.44c-5.21-10.3-17.56-13.44-26.54-13-6.32.31-9.6,2.31-9.9,3.09-3.23,9.56-3.11,24.18-1.2,26.9a3.82,3.82,0,0,1-3.11,6Z" fill="#571519"/><path d="M1204.57,984.44s-2.23-12.37-31.23-65.42c-21.41-39.16-53.93-114-53.93-114,30.06,8,101.67-59.23,99.9-101.66,0,0,19.75,46.73,49.51,79.56,25.63,28.29,47.28,30.87,47.28,30.87l153,.51s26.22-3.09,51.86-31.38c29.75-32.83,49.51-79.56,49.51-79.56-1.77,42.43,69.84,109.62,99.89,101.66,0,0-32.51,74.88-53.92,114-29,53.05-38.61,72.54-38.61,72.54Z" fill="#fee299"/><path d="M1129,1606.13a3.83,3.83,0,0,1-2.07-.61c-6.31-4.07-15.51-9-26.16-14.62-50.86-27-136-72.23-181.38-164.52-19.59-39.81-8.87-66.78,3.57-82.39,21.81-27.37,65.91-40.54,104.87-31.35,59.87,14.15,275.21,161,284.35,167.26a3.81,3.81,0,0,1-4.3,6.3c-2.23-1.53-223.31-152.31-281.8-166.13-35.65-8.44-77.42,3.9-97.15,28.67-15.88,19.92-16.81,45.6-2.7,74.28,44.32,90.07,128.07,134.56,178.11,161.15,10.81,5.74,20.14,10.69,26.73,14.94a3.82,3.82,0,0,1-2.07,7Z" fill="#571519"/><path d="M1352,1558.6a3.55,3.55,0,0,1-.79-.09c-52.41-11.13-238.26-130.9-296.81-191.27a3.81,3.81,0,0,1,5.47-5.31c56.5,58.26,242.65,178.45,292.92,189.13a3.81,3.81,0,0,1-.79,7.54Z" fill="#571519"/><path d="M1238.16,1684a3.82,3.82,0,0,1-.07-7.63l67.41-1.2h.07a3.82,3.82,0,0,1,.06,7.63l-67.4,1.2Z" fill="#571519"/><path d="M1267.41,1612.89a37.23,37.23,0,0,1-9.77-1.29,3.81,3.81,0,0,1,2.16-7.31c.06,0,6.92,2,13.23.3a3.81,3.81,0,0,1,2,7.37A29.56,29.56,0,0,1,1267.41,1612.89Z" fill="#571519"/><path d="M1927.73,178.15l-.26.27c-12,1.42-25.49,9-36.6,18-17.37,14.05-33.71,11-47.15,32.24-13.87,20.94-66.64,111.55-66.64,111.55S1694.33,459.32,1667.81,500s-95.63,217.52-95.63,217.52c16,42.08,45.64,71.19,88.51,87.79,0,0,52.09-164.55,83-224,31.86-61.26,43.31-82.91,68.88-146.75l30.92-78.85s17.78-53.22,29.26-62.45c13.1-10.65,28.68-13.86,45-17.19,9-2,25.18-4.2,28.13-14.88a17.62,17.62,0,0,0,.35-1.84c11.4-8.45,15.77-28.82,17.91-49.38C1967.94,173.51,1927.73,178.15,1927.73,178.15Z" fill="#ffe4ce"/><path d="M1905.56,247.55c-3,0-5.84-.06-7.64-.24l-.33,0c-2.32-.44-4.88-1.08-7.6-1.75-8.83-2.19-19.83-4.91-26.72-1.67A3.81,3.81,0,0,1,1860,237c9.34-4.4,21.8-1.31,31.81,1.17,2.54.63,4.94,1.22,7,1.62,4.33.39,16.12.07,20.36-.09a3.87,3.87,0,0,1,4,3.67,3.81,3.81,0,0,1-3.67,4C1919,247.29,1911.88,247.55,1905.56,247.55Z" fill="#571519"/><path d="M1920.06,247.14a3.81,3.81,0,0,1-3.76-3.25c-1.81-12.18-1.32-13.85-1.11-14.57a3.81,3.81,0,0,1,7.39,1.85,109.06,109.06,0,0,0,1.26,11.6,3.81,3.81,0,0,1-3.21,4.33A3.64,3.64,0,0,1,1920.06,247.14Zm2.5-15.89c0,.07,0,.15,0,.21Z" fill="#571519"/><path d="M1660.69,809.11a3.83,3.83,0,0,1-3.64-5c.52-1.65,52.55-165.55,83.25-224.58l2.25-4.32c30.27-58.18,41.59-79.95,66.48-142.09l30.91-78.82c1.79-5.38,18.41-54.38,30.42-64,13.84-11.25,30.5-14.66,46.62-18l3-.64c8-1.67,20.16-4.19,22.18-11.51,1.33-5.06,0-12.58-1-18.06A177.57,177.57,0,0,0,1937,223a2.71,2.71,0,0,1-.09-.41c-.86-4.71-2.91-7.35-6.63-8.53-4.31-1.36-17.42,5.23-26.44,13.32-.34.33-1,.87-1.7,1.48-1.22,1-4.93,4.13-5,5.49,0,1.07.31,1.32.44,1.41.81.62,3.18.84,6.47-.15a48.41,48.41,0,0,0,11.39-5.51,3.81,3.81,0,0,1,4.29,6.3,55.74,55.74,0,0,1-13.5,6.52c-5.48,1.63-10.18,1.25-13.26-1.08a9.06,9.06,0,0,1-3.45-7.64c.08-4.74,4.71-8.62,7.77-11.18.56-.48,1.06-.89,1.4-1.22,7-6.28,24.33-18.06,33.94-15,6.42,2,10.38,6.82,11.79,14.23a185.18,185.18,0,0,1,4.33,19.73c1.13,6.18,2.66,14.66.89,21.4-3.27,11.85-18.14,14.95-28,17-1.06.22-2.07.43-3,.64-16,3.27-31,6.35-43.43,16.43-7.79,6.26-21,39.73-28.05,60.7l-31,79c-25,62.52-36.41,84.38-66.8,142.8l-2.25,4.32c-30.4,58.45-82.23,221.72-82.75,223.36A3.8,3.8,0,0,1,1660.69,809.11Z" fill="#571519"/><path d="M1947.59,266.21a3.82,3.82,0,0,1-1.62-7.27c8.62-4,8-15.37,6.74-26.64-.13-1.1-.25-2.13-.34-3.05-.25-3.63-4.45-20.53-9.22-23.83-2.06-1.28-13.46.06-23.62,5.26-6.43,3.28-10.4,7.19-10.64,10.46a3.83,3.83,0,0,1-4.08,3.52,3.79,3.79,0,0,1-3.52-4.07c.46-6.45,6.17-12.61,16.09-17.35,8.84-4.24,24-8.31,30.11-4.09,8.43,5.83,12.33,27.34,12.48,29.47.07.77.19,1.75.31,2.8,1.13,9.69,3.24,27.74-11.08,34.42A3.71,3.71,0,0,1,1947.59,266.21Z" fill="#571519"/><path d="M1959.17,243.05a3.82,3.82,0,0,1-2.54-6.66c3.29-2.93,4.47-10.15,3.16-19.31-1.78-12.38-7-22.21-9.1-23.22-6.26-1.43-31.29,5.87-34,15.68a3.81,3.81,0,1,1-7.34-2c4.15-14.94,33.72-23.21,43.29-21,8.32,2.24,13,21,13.51,23.17,1.67,7.07,4.6,24.38-4.42,32.42A3.79,3.79,0,0,1,1959.17,243.05Z" fill="#571519"/><path d="M1572.18,721.32a3.83,3.83,0,0,1-3.55-5.2c2.83-7.24,69.55-177.69,96-218.22,26.24-40.25,108.5-158.71,109.33-159.9,2-3.45,52.82-90.7,66.59-111.49,8.72-13.78,19-18.18,28.84-22.44,6.21-2.67,12.64-5.44,19.09-10.66,18.3-14.79,43.51-26.17,59.41-13.71a3.81,3.81,0,1,1-4.71,6c-12.39-9.71-34.62,1.28-49.9,13.64-7.27,5.88-14.18,8.86-20.87,11.74-9.64,4.14-18,7.72-25.46,19.58-13.69,20.67-66,110.53-66.56,111.43-1,1.45-83.19,119.82-109.38,160-26,39.87-94.58,215.06-95.27,216.82A3.79,3.79,0,0,1,1572.18,721.32Z" fill="#571519"/><path d="M1900.22,228.94a3.82,3.82,0,0,1-3.75-3.13c-1.39-7.67,4.2-14.73,15.33-19.35a3.81,3.81,0,1,1,2.92,7c-2.77,1.15-11.76,5.36-10.75,10.95a3.8,3.8,0,0,1-3.07,4.43A3.91,3.91,0,0,1,1900.22,228.94Z" fill="#571519"/><path d="M1965.66,220.82a3.69,3.69,0,0,1-1.84-.48,3.8,3.8,0,0,1-1.49-5.18c1.61-2.91.17-17.46-4.09-26.66-.36-.7-3.82-2.33-10.15-2-9,.52-20.93,5-25,15.77a3.81,3.81,0,1,1-7.13-2.7c5.48-14.51,20.83-20.23,32.32-20.71,8.4-.36,14.79,2,16.87,6.37,4.13,8.92,7.55,26.93,3.86,33.59A3.82,3.82,0,0,1,1965.66,220.82Z" fill="#571519"/><path d="M1467.4,1600.62h0a73.42,73.42,0,0,1-13.23-1.31,91.53,91.53,0,0,0-11.47-1.36,64.48,64.48,0,0,0-8.85-.12c-6.76.24-15.17.54-35.65-3.12a3.81,3.81,0,1,1,1.34-7.5c19.67,3.52,27.64,3.23,34,3a69.2,69.2,0,0,1,9.69.14,98,98,0,0,1,12.17,1.44,65.78,65.78,0,0,0,12,1.2,3.82,3.82,0,0,1,0,7.63Z" fill="#571519"/><path d="M1575,1728.23a12.33,12.33,0,0,1-1.47-.09c-7.46-.87-14.28-5.76-24.6-13.16a320.46,320.46,0,0,0-33.05-21.37c-14.24-8-24.52-13.74-56-19.9-7.49-1.46-13.26-5.2-16.7-10.8-4.58-7.49-5-18.08-1.14-31.49,4.12-14,10.07-16.68,16.86-18.6,2.08-.58,3.72-1,5.06-2.21l.06-.06c3.62-3,3.06-5.73,3-5.84a4.63,4.63,0,0,1,0-1.7,5.57,5.57,0,0,1,2.51-3.64c3.69-2.33,10-.87,21.74,2.12,5.09,1.3,10.37,2.65,15.12,3.43,17.38,2.74,34.17,3.15,49,3.51,17.77.43,31.8.77,40.43,5,13.15,6.42,13.79,35.06,13.67,43.68,0,6.59-4.2,9.3-7.53,11.48-3.54,2.32-7.2,4.72-8.94,12.51-1.14,5.82,1,9.79,3,13.63s4.26,8.08,1.58,12.87C1592.33,1717.14,1584.28,1728.23,1575,1728.23Zm-106-111.86a19,19,0,0,1-8,3.79c-4.48,1.26-8.35,2.35-11.6,13.39-3.22,11.23-3.11,19.78.31,25.37,2.32,3.79,6.25,6.25,11.67,7.31,32.64,6.39,43.93,12.72,58.21,20.72a325.87,325.87,0,0,1,33.78,21.83c9.36,6.71,15.54,11.15,21.08,11.79,4.28.56,10.54-5.84,16.43-16.65.6-1.07.16-2.22-1.64-5.63-2.27-4.3-5.38-10.19-3.71-18.75,2.44-10.91,8.1-14.62,12.23-17.33,3.16-2.06,4.06-2.76,4.08-5.18.26-18.82-3.6-33.92-9.39-36.75-7.14-3.5-21.1-3.84-37.26-4.23-15.05-.36-32.1-.78-50-3.61-5.1-.83-10.54-2.22-15.8-3.56-5-1.28-11.58-3-14.67-3.06C1474.56,1608.51,1473.47,1612.57,1469,1616.37Z" fill="#571519"/><path d="M1445.66,1663.17a4,4,0,0,1-1.12-.17c-12.9-4-30-6.78-52.81-10.32a3.82,3.82,0,0,1,1.18-7.54c23.09,3.6,40.48,6.46,53.87,10.57a3.82,3.82,0,0,1-1.12,7.46Z" fill="#571519"/><path d="M1582.82,1733.86c-7.08,0-17.31-8.16-20.41-10.78a3.81,3.81,0,0,1,4.92-5.82c5.35,4.51,13,9.33,15.46,9,8.88-1.43,22.94-19,28.76-41.82,6.47-25.47,1.52-61.67-6.59-66.06-7.08-3.8-20.47-2.47-25-1.63a3.81,3.81,0,0,1-1.38-7.5c.77-.14,19.11-3.44,30,2.42,14,7.57,16.32,51.24,10.37,74.65-6.23,24.46-21.61,45.32-35,47.49A9.81,9.81,0,0,1,1582.82,1733.86Z" fill="#571519"/><path d="M1481.38,1646.17c3.62-16.1,11.73-18.83,14-16,1.55,1.74-3.91,10.28-6,18.52-1.72,8.79-.07,14.87-3,15.26C1481.4,1665.4,1478.75,1657.19,1481.38,1646.17Z" fill="#571519"/><path d="M1502.9,1652.31c2.71-16.28,12-20.22,14.74-17.29,1.1,1.66-4,10.75-6.26,19.91s-.71,15.72-3.17,16.19C1503.1,1673,1501.09,1664,1502.9,1652.31Z" fill="#571519"/><path d="M1075.93,1712.48c-7.57,0-15.21-3.2-24.53-12.86-6-6.08-2.18-11.37.31-14.87,2.6-3.65,5.28-7.41,4-14.48-1.19-5.31-3.41-9.07-5.56-12.71-3.75-6.35-7.62-12.91-1.41-24.39,8.41-16.52,18.41-24.93,35.61-29.92,8.48-2.51,20.34-1.82,35.34-.94,11.37.66,24.26,1.42,38,.84,13.28-.55,27.81-3.51,41.86-6.36,9.45-1.92,18.38-3.73,26.37-4.69,11.18-1.37,18.62,3.62,24.6,7.62,1.66,1.11,3.22,2.16,4.7,3a18.84,18.84,0,0,0,5.28,1.74c2,.42,4.1.86,5.26,2.91a4.87,4.87,0,0,1,.3,4v0c-.45,1.3-1.42,2.71-3.44,5s-5.3,2.35-10.35,2.27c-4.19-.06-12-.17-13,2.34-1.15,2.89,1.15,7.62,3.59,12.62,2.27,4.66,4.84,9.94,5.79,15.75,2,9.69.74,23.63-5.47,31.23a14.19,14.19,0,0,1-11.23,5.55c-13.2,0-111.06,13.48-125.76,18-3.74,1.16-7.09,2.36-10.32,3.51C1088.61,1710.22,1082.29,1712.48,1075.93,1712.48Zm24.34-103.34c-5.52,0-10.24.37-13.83,1.43-15.13,4.39-23.53,11.47-31,26.15-4.2,7.77-2.39,10.84,1.23,17a49.42,49.42,0,0,1,6.45,15c2,10.38-2.35,16.44-5.2,20.44-2.56,3.59-2.53,3.62-1.05,5.13,13.74,14.26,20.84,11.72,36.41,6.16,3.15-1.12,6.72-2.4,10.64-3.62,16.45-5,116.56-18.3,128-18.31a6.65,6.65,0,0,0,5.32-2.74c4.44-5.43,5.47-17.22,3.88-25-.8-4.86-3-9.4-5.15-13.79-3.2-6.56-6.22-12.76-3.81-18.78,2.94-7.38,12.87-7.24,20.15-7.14,1,0,2.23,0,3.26,0a21.41,21.41,0,0,1-4-1.67c-1.8-1-3.51-2.12-5.33-3.34-5.43-3.64-11-7.42-19.43-6.38-7.7.92-16.48,2.71-25.78,4.59-14.34,2.92-29.17,5.93-43,6.51a377,377,0,0,1-38.76-.85C1112.3,1609.52,1105.88,1609.14,1100.27,1609.14Zm156.22,2.65Zm5.91-1.66h0Z" fill="#571519"/><path d="M1062.74,1715.87a40.77,40.77,0,0,1-8.28-.85c-5.31-1.1-10.45-5.3-14.86-12.13-9.11-14.11-13.21-35.57-9.76-51,7-31.07,21.64-49.15,42.48-52.3,7.78-1.19,18.81-1.12,32.78-1,11.4.07,24.33.16,38.53-.43,9.14-.39,17-4.84,24.53-9.15,2.89-1.65,5.88-3.35,8.87-4.78,15.72-7.73,24.48-10.93,36.63-6.69,7.3,2.55,13.33,6.81,21,12.21,4,2.8,8.45,6,13.72,9.32a3.81,3.81,0,1,1-4.08,6.44c-5.44-3.45-10-6.68-14-9.53-7.14-5.06-12.79-9.05-19.07-11.24-9-3.15-15.3-1.28-30.79,6.36-2.79,1.33-5.53,2.89-8.43,4.54-8,4.53-17,9.67-28,10.13-14.38.61-27.41.52-38.9.45-13.63-.1-24.39-.17-31.58.94-17.72,2.68-29.89,18.29-36.19,46.42-3,13.44.75,32.89,8.72,45.24,3.23,5,6.79,8.13,10,8.8,11.16,2.3,21.54-1.56,35.91-6.91,2.67-1,5.46-2,8.42-3.1a3.81,3.81,0,0,1,2.57,7.18c-2.92,1-5.69,2.08-8.33,3.06C1082.76,1712.19,1072.91,1715.87,1062.74,1715.87Z" fill="#571519"/><path d="M1199.06,1662.69c-.81-19.46-7.46-25.34-10.78-22.12-1.9,1.62,1.52,12.76,1.46,23s-3.23,17.06-.71,18.5C1194.08,1685,1199.64,1676.51,1199.06,1662.69Z" fill="#571519"/><path d="M1174,1664.76c-.82-19.46-7.47-25.33-10.78-22.12-1.91,1.62,1.52,12.76,1.45,23s-3.22,17.06-.7,18.49C1169.53,1687,1174.58,1678.08,1174,1664.76Z" fill="#571519"/><path d="M1577.78,995.38a3.82,3.82,0,0,1-3.42-5.5c.1-.2,10-20.18,38.68-72.68,17.59-32.17,43-89.29,51.17-107.79-12-.34-27.86-7.86-44.78-21.45-22-17.7-45.1-45.56-51.27-70.7-8,16.28-23.71,45.32-44.43,68.18-26.29,29-53.11,32.48-54.23,32.61a3.81,3.81,0,0,1-.91-7.57c.38-.05,25.3-3.47,49.49-30.16,29-32,48.63-78,48.82-78.49a3.81,3.81,0,0,1,7.32,1.64c-1,24.39,24.38,58,50,78.54,18,14.49,35.31,21.88,45.13,19.29a3.81,3.81,0,0,1,4.47,5.2c-.32.75-32.83,75.49-54.08,114.35-28.6,52.33-38.44,72.2-38.53,72.4A3.84,3.84,0,0,1,1577.78,995.38Z" fill="#571519"/><path d="M1204.56,988.26a3.83,3.83,0,0,1-3.74-3.1c-.12-.6-3-13.45-30.83-64.31-21.24-38.86-53.75-113.6-54.07-114.35a3.81,3.81,0,0,1,4.47-5.2c9.8,2.59,27.09-4.8,45.13-19.29,25.61-20.57,51-54.15,50-78.53a3.81,3.81,0,0,1,7.32-1.65c.2.46,19.86,46.54,48.82,78.49,24.4,26.92,44.7,29.62,44.91,29.64a3.81,3.81,0,0,1-.9,7.57c-1-.11-23.37-3.08-49.66-32.09-20.71-22.86-36.46-51.9-44.43-68.18-6.17,25.14-29.23,53-51.26,70.7-16.92,13.59-32.76,21.1-44.78,21.45,8.14,18.5,33.58,75.62,51.16,107.79,29,53,31.54,66,31.64,66.57a3.83,3.83,0,0,1-3.08,4.43A3.91,3.91,0,0,1,1204.56,988.26Z" fill="#571519"/><path d="M1400.78,1429c-66.62,0-137.74-12.45-187-46.58a3.82,3.82,0,0,1-1.64-3.08c-.92-60.55-8.22-132.54-14.65-196.06-5.87-57.85-10.93-107.8-9.21-131.88,2.38-33.29,9.22-51.61,15.25-67.77,2.9-7.79,5.65-15.15,7.37-23.18,5.27-24.69,7.6-46.61,7.63-46.83a3.81,3.81,0,0,1,7.58.8c0,.22-2.39,22.52-7.76,47.62-1.83,8.58-4.67,16.2-7.68,24.25-5.85,15.68-12.48,33.45-14.79,65.65-1.67,23.42,3.37,73.08,9.19,130.57,6.39,63,13.61,134.28,14.66,194.74,83.4,56.37,229.45,50.52,307.09,28.18,31.88-9.18,53.61-21.08,60.33-33-56.48-78.22-13.75-400.55-11.89-414.35a3.81,3.81,0,0,1,7.56,1c-.46,3.38-44.91,338.41,11.78,410.56a3.8,3.8,0,0,1,.51,3.86c-6.35,14.82-29.85,28.73-66.18,39.18C1495.37,1422.36,1449.27,1429,1400.78,1429Z" fill="#571519"/><path d="M1683.11,1503.18c-134.22,98.37-359.44,182.19-371,177.34s-22.94-16.2-31.22-30.94c-12.42-22.11-4.26-54.95,2.62-58,106.94-47.31,315-252.73,374.81-267.68,21.22-5.3,90.17-10.61,95.48,56.58s-48.3,137.83-48.3,137.83-47.44,59.05-98,88Z" fill="#7d98a8"/><path d="M1312.81,1684.35a6.16,6.16,0,0,1-2.2-.31c-12.27-5.14-24.33-17-33.08-32.59-9-16-8.26-37.44-3.55-51.56,2.14-6.43,4.82-10.39,8-11.77,55.17-24.42,139-92.54,213.06-152.64,71.29-57.89,132.86-107.88,162.37-115.26,16.62-4.15,51.14-6.6,75,10.6,15,10.75,23.42,27.37,25.16,49.38,5.35,67.85-46.84,137.5-49.06,140.43s-53.63,67-104.2,96a3.81,3.81,0,0,1-3.79-6.61c49.29-28.22,101.44-93.39,102-94s52.61-70.22,47.49-135.15c-1.56-19.67-9-34.41-22-43.79-21.68-15.6-54.45-13-68.75-9.39-27.85,7-91.75,58.85-159.4,113.79-74.38,60.4-158.68,128.85-214.79,153.68-4.22,2.4-12.52,31.83-.84,52.62,7.88,14,18.49,24.65,29.16,29.2a4.27,4.27,0,0,0,.54,0c19.48,0,235.46-80.44,367-176.83a3.81,3.81,0,1,1,4.51,6.15C1558.84,1599,1340.65,1684.35,1312.81,1684.35Z" fill="#571519"/><path d="M1467,528.5c6.36,4.06,25.66,27.75,36.69,56.83,2.22,6.23,9.73,42.18,14.76,58.82,9.5,30.69,29.18,47,30.16,70.56.06,3.14-4.29,21-12,29.53-6.15,6.92-16.52,11.31-23.63,22.44-19.31,29.15-37,5.44-37,5.44s-4,7.4-10.23,11.71-14,5-14,5l-113.92,6.43s-12.57-.8-21.56-5.33c-8.45-4.55-13.34-13.34-13.34-13.34a24.31,24.31,0,0,1-6.63,8.5c-4.63,3.75-10.86,6.49-13,6-7.9-2.46-7-7.71-11.77-13.37-2.15-2.58-10-5-12.71-7.6-27.71-25.62-32.7-40.17-29.82-53.3s18.69-33.85,30-70.17c8.36-27.37,11.4-58.82,13.37-65.14,5.47-14.23,13.36-39,44.84-61,9.29-6.46,28.7-3.71,39.07-8.62a164.36,164.36,0,0,1,35.83-13.26C1420.24,492.8,1463.27,526,1467,528.5Z" fill="#e82d5e" fill-rule="evenodd"/><path d="M1466.91,819.84s-4.65.68-13.73-8.56c-10.13-9.74-6.3-54.29-6.3-54.29a71,71,0,0,0,16.29-23.34c5.47-14.23,6.44-18.43,6.44-18.43s11.42-4.41,19.13-11.37c5.15-4.28,10.73-12.76,7.94-21.6-1.68-5.72-23.43-21-35.68-32.26-16.52-15.37-29.21-48.6-40-64.61s-44.14-10.12-53-6.28c-8.31,3.3-19.21,7.7-25.79,18.82s-11.82,37.37-21.89,57.45c-9.55,19.55-27.69,28.27-27.69,28.27l1.77-16.25s-11.47,1.8-12.74,17c-.38,7.33,2.89,14.07,6.12,18.72a70.34,70.34,0,0,0,5.89,7.2,30.51,30.51,0,0,0,18.45,7s.58,2.6,7.15,17.64,20.94,27.32,20.94,27.32l-.76,48.43-22.89,7.58s-9.12,60.76,36.54,71C1416.1,903.44,1466.91,819.84,1466.91,819.84Z" fill="#ffe4ce" fill-rule="evenodd"/><path d="M1391.57,705.4a243.94,243.94,0,0,1,28.26,1.57s-5.46,25.85-26.89,27.35c-20.39.85-29.06-26.09-29.06-26.09A173.59,173.59,0,0,1,1391.57,705.4Z" fill="#fff" fill-rule="evenodd"/><path d="M1392.48,788a3.81,3.81,0,0,1-.19-7.61c.23,0,17.2-1.19,41.06-17.95,16.36-11.38,21.42-22.79,24.76-30.33,4.56-9.6,7.5-21.06,10.12-32a3.82,3.82,0,0,1,7.42,1.78c-2.72,11.31-5.77,23.22-10.61,33.38-3.42,7.73-9.22,20.81-27.32,33.4-25.88,18.17-44.28,19.27-45,19.31Z" fill="#571519"/><path d="M1393.1,686a3.82,3.82,0,0,1-2-7.08c2-1.23,7.7-5.66,7.33-9.65-.13-1.29-.93-2.08-3-3.83-2.45-2.07-5.81-4.9-6.66-10.4a4,4,0,0,1,0-.5c-.08-4,1.72-12.51,1.93-13.47a3.81,3.81,0,0,1,7.45,1.6,83.12,83.12,0,0,0-1.76,11.47c.44,2.37,1.76,3.58,4,5.46s5.23,4.4,5.69,8.93c.87,9.46-9.75,16.18-11,16.91A3.76,3.76,0,0,1,1393.1,686Z" fill="#571519"/><path d="M1448.37,623.71a3.79,3.79,0,0,1-2.24-.73c-.55-.39-14-9.77-30.29-2.59a3.81,3.81,0,0,1-3.07-7c20.44-9,37.14,2.89,37.84,3.4a3.82,3.82,0,0,1-2.24,6.9Z" fill="#571519"/><path d="M1303.87,697.7a3.82,3.82,0,0,1-3.14-1.64c-1-1.4-3.19-3.69-4.75-4.11a3.81,3.81,0,0,1,2-7.37c4.9,1.3,8.65,6.54,9.07,7.13a3.81,3.81,0,0,1-3.13,6Z" fill="#571519"/><path d="M1419.92,655.59a3.81,3.81,0,0,1-2.5-6.69c4.56-4,9.68-5.81,14.78-5.34s11.13,4.28,11.81,4.71a3.81,3.81,0,1,1-4,6.47c-2-1.25-6.12-3.33-8.52-3.59-3.69-.34-7,1.72-9,3.51A3.76,3.76,0,0,1,1419.92,655.59Z" fill="#571519"/><path d="M1391.91,788c-1.66,0-17.4-.44-43.09-16.51-18.92-12.09-27.75-26.11-31.32-33.4a159.52,159.52,0,0,1-11.35-31.93,3.81,3.81,0,1,1,7.39-1.84,155.44,155.44,0,0,0,10.8,30.4c3.23,6.58,11.22,19.26,28.56,30.33,24.28,15.18,38.74,15.33,39,15.33h0a3.81,3.81,0,0,1,.1,7.62Z" fill="#571519"/><path d="M1333.32,625.44a3.8,3.8,0,0,1-2.43-6.74c.67-.57,16.9-13.67,37.73-5.46a3.81,3.81,0,1,1-2.8,7.09c-16.57-6.53-29.54,3.81-30.09,4.25A3.79,3.79,0,0,1,1333.32,625.44Z" fill="#571519"/><path d="M1475.4,694.84a3.76,3.76,0,0,1-2.05-.6,3.8,3.8,0,0,1-1.16-5.25c.39-.61,3.94-6,8.78-7.48a3.81,3.81,0,1,1,2.24,7.29c-1.54.47-3.66,2.84-4.6,4.3A3.81,3.81,0,0,1,1475.4,694.84Z" fill="#571519"/><path d="M1345,657.47a3.81,3.81,0,0,1-2.17-7c.62-.42,6.2-4.17,11.1-4.88,5.15-.66,10.33,1,15,4.75a3.81,3.81,0,0,1-4.77,6c-2.13-1.71-5.46-3.64-9.23-3.14-2.33.33-6,2.4-7.84,3.61A3.78,3.78,0,0,1,1345,657.47Z" fill="#571519"/><path d="M1312.68,720l-.52,0c-17.78-2.43-35.13-15.09-33.78-37.93.24-6.14,2.4-11.24,6.23-14.68s8.83-4.84,14.81-4.41a3.81,3.81,0,0,1-.54,7.61c-3.94-.28-7,.56-9.18,2.48-2.86,2.57-3.59,6.51-3.7,9.37-1.14,19.28,13.93,28.2,27.19,30a3.81,3.81,0,0,1-.51,7.59Z" fill="#571519"/><path d="M1469.05,717.47a3.81,3.81,0,0,1-.82-7.53c6.1-1.35,26-7.29,26.22-27.24a3.81,3.81,0,0,1,3.81-3.77h0a3.8,3.8,0,0,1,3.77,3.85c-.18,17-12.52,30.26-32.2,34.6A3.88,3.88,0,0,1,1469.05,717.47Z" fill="#571519"/><path d="M1489.78,787.17a4,4,0,0,1-.91-.11,22.62,22.62,0,0,1-14.51-12.2c-2.37-5-4-13.37,1.41-24.85a3.82,3.82,0,0,1,6.89,3.28c-3.31,6.94-3.79,13.27-1.41,18.3a15.19,15.19,0,0,0,9.43,8.06,3.81,3.81,0,0,1-.9,7.52Z" fill="#571519"/><path d="M1510,778.4a4,4,0,0,1-1.34-.24,3.81,3.81,0,0,1-2.24-4.9c3.57-9.59,10.9-16.41,18-23,8.92-8.3,17.34-16.13,19.5-29.33,2.53-16.13-7.16-33.15-15.71-48.17-3.14-5.51-6.11-10.72-8.32-15.61-5.86-13.27-9-25.85-12.29-39.16-3.86-15.53-7.85-31.59-16.62-49.64-14.72-30-41-54-68.55-62.55-36.65-11.91-52.15,6-52.3,6.19a3.81,3.81,0,0,1-5.85-4.89c.75-.9,19-22,60.46-8.57,29.45,9.18,57.48,34.66,73.09,66.47,9.12,18.78,13.21,35.24,17.17,51.15,3.22,13,6.27,25.25,11.85,37.89,2.05,4.53,4.93,9.59,8,15,9.18,16.11,19.57,34.36,16.61,53.14-2.58,15.8-12.8,25.32-21.82,33.71-6.74,6.27-13.1,12.19-16,20.09A3.82,3.82,0,0,1,1510,778.4Z" fill="#571519"/><path d="M1491.61,774.05a3.81,3.81,0,0,1-2.75-6.45c13.74-14.29,14.35-33.24,10.7-45.12a3.81,3.81,0,1,1,7.29-2.24c4.26,13.86,3.54,36-12.49,52.64A3.8,3.8,0,0,1,1491.61,774.05Z" fill="#571519"/><path d="M1516.33,727a3.47,3.47,0,0,1-.64-.06,3.81,3.81,0,0,1-3.13-4.39c4.14-24.54-17.52-41.31-27-47.38-24.32-16.58-41.3-30.06-56.09-65.55-11.91-28.58-24.68-45.34-35-46-5.47-.33-11,4.21-16.33,13.53a3.81,3.81,0,1,1-6.63-3.77c6.85-12.06,14.73-17.92,23.43-17.37,17.37,1.06,32.21,28.13,41.6,50.65,14,33.54,30.16,46.37,53.24,62.12,10.69,6.82,35.24,26,30.35,55A3.81,3.81,0,0,1,1516.33,727Z" fill="#571519"/><path d="M1273,695.69a3.81,3.81,0,0,1-.27-7.61c1.11-.1,28-2.7,46.78-40.22,3.15-6.48,5.59-14,8.18-22,6.72-20.69,13.67-42.09,34.5-46.26a3.81,3.81,0,1,1,1.5,7.47c-16.46,3.3-22.43,21.68-28.76,41.14-2.54,7.86-5.18,16-8.59,23-20.88,41.65-51.76,44.35-53.07,44.44Z" fill="#571519"/><path d="M1274.18,784.08a3.84,3.84,0,0,1-2.87-1.29c-21.51-24.48-6.84-55.21.46-67.29a3.81,3.81,0,1,1,6.52,3.94c-6.43,10.65-19.43,37.63-1.25,58.31a3.81,3.81,0,0,1-.35,5.38A3.77,3.77,0,0,1,1274.18,784.08Z" fill="#571519"/><path d="M1256.3,779.72a4.34,4.34,0,0,1-.71-.06,3.81,3.81,0,0,1-3-4.46c1-5.43-1.7-8.57-6.61-13.64-1.5-1.56-3.06-3.16-4.54-5-13.14-15.78-17.89-30.93-14.1-45,3.06-12.47,8.28-20.77,13.8-29.56,5.24-8.33,10.65-16.95,14.89-30.28,6.73-20.6,9-35.42,10.9-48.5,2.45-16.34,4.56-30.45,14.69-48.94,28.4-51.75,67.76-45.89,76-41.66a3.81,3.81,0,1,1-3.49,6.78c-6.9-3.54-40.34-7.85-65.8,38.55-9.48,17.29-11.4,30.14-13.83,46.4-2,13.37-4.28,28.53-11.19,49.71-4.52,14.23-10.46,23.67-15.69,32-5.41,8.61-10.09,16-12.88,27.4-3.12,11.62,1.12,24.46,12.6,38.24,1.3,1.59,2.75,3.08,4.14,4.52,4.89,5.06,10.44,10.79,8.61,20.37A3.8,3.8,0,0,1,1256.3,779.72Z" fill="#571519"/><path d="M1360.5,571.55a3.81,3.81,0,0,1-3.79-3.44c-1.17-12.08,2.1-22.34,9.44-29.66,8.37-8.35,21.44-12.32,35.86-10.89a3.81,3.81,0,1,1-.75,7.59c-12-1.18-23.08,2.06-29.73,8.7-5.75,5.74-8.18,13.65-7.23,23.52a3.81,3.81,0,0,1-3.43,4.16Z" fill="#571519"/><path d="M1281.06,793.92a5.83,5.83,0,0,1-1.27-.12,3.17,3.17,0,0,1-.78-.28,4.49,4.49,0,0,1-2.25-2.66c-.55-2,.49-3.55,1.49-5,2.39-3.5,8-11.7.76-30a3.81,3.81,0,1,1,7.09-2.8c6.14,15.52,4.25,25.53,1.62,31.53,4.72-1.83,10.21-5.22,10.8-10.53a3.81,3.81,0,1,1,7.58.83c-.55,5-3.42,9.47-8.29,12.93C1292.31,791.74,1284.78,793.92,1281.06,793.92Z" fill="#571519"/><path d="M1339.12,797.45c-15,0-27-4.59-34.46-13.27s-10.34-20.92-8.18-35.33A3.81,3.81,0,1,1,1304,750c-1.82,12.14.4,22.24,6.42,29.21s15.73,10.63,28.67,10.63a.45.45,0,0,0,.2,0,3.82,3.82,0,0,1,0,7.63Z" fill="#571519"/><path d="M1450.11,792.13a3.81,3.81,0,0,1-.26-7.61c3.57-.25,21.43-2.31,22.18-18.33a3.85,3.85,0,0,1,4-3.63,3.8,3.8,0,0,1,3.63,4c-.82,17.44-16.28,24.68-29.27,25.58Z" fill="#571519"/><path d="M1283.36,692.35a3.81,3.81,0,0,1-2.46-6.73c14.11-11.92,17.15-25.27,21-42.18,3.29-14.44,7-30.81,18.13-50.68a3.81,3.81,0,1,1,6.65,3.73c-10.57,18.9-14.17,34.7-17.35,48.64-4,17.58-7.46,32.75-23.52,46.32A3.83,3.83,0,0,1,1283.36,692.35Z" fill="#571519"/><path d="M1448.79,804.72a3.82,3.82,0,0,1-3.68-2.82c-4.07-15-2.11-43.45-2-44.65a3.79,3.79,0,0,1,4.07-3.54,3.83,3.83,0,0,1,3.54,4.08c0,.28-2,28.34,1.77,42.11a3.84,3.84,0,0,1-3.68,4.82Z" fill="#571519"/><path d="M1339.51,824.26a3.68,3.68,0,0,1-.73-.07,3.81,3.81,0,0,1-3-4.47c2.73-14.06.19-57.34.16-57.78a3.82,3.82,0,0,1,3.58-4,3.75,3.75,0,0,1,4,3.58c.1,1.82,2.61,44.68-.29,59.69A3.81,3.81,0,0,1,1339.51,824.26Z" fill="#571519"/><path d="M1392.05,738.14c-22.29,0-31.42-27.55-31.8-28.75a3.8,3.8,0,0,1,2.89-4.9,174.45,174.45,0,0,1,28.39-2.9h0a246.15,246.15,0,0,1,28.76,1.6,3.8,3.8,0,0,1,3.27,4.57c-.25,1.17-6.33,28.68-30.36,30.36C1392.82,738.14,1392.43,738.14,1392.05,738.14Zm-22.86-26.95c3.16,6.88,10.89,19.8,23.59,19.32,13.55-1,19.75-13.52,22.11-20.22a231.12,231.12,0,0,0-23.28-1.08A166.11,166.11,0,0,0,1369.19,711.19Zm22.38-5.79h0Z" fill="#571519"/><path d="M1367.46,894.58c-.75,0-1.5,0-2.26,0-16.49-.48-29.5-6.26-38.67-17.18-19.82-23.58-14.44-62.51-14.21-64.16a3.81,3.81,0,0,1,7.55,1.09c0,.37-5.11,37.25,12.51,58.19,7.72,9.17,18.83,14,33,14.44,57,1.79,98.71-69.85,99.12-70.57a3.81,3.81,0,1,1,6.62,3.78C1469.41,823.21,1427.93,894.58,1367.46,894.58Z" fill="#571519"/><path d="M1467.87,822.06a3.79,3.79,0,0,1-.94-.12c-20.14-5.1-21.87-21.76-21.94-22.47a3.82,3.82,0,0,1,7.6-.71c.06.56,1.5,12.06,16.21,15.79a3.81,3.81,0,0,1-.93,7.51Z" fill="#571519"/><path d="M1316,820.16h-.33a3.81,3.81,0,1,1,.18-7.62h0c.13,0,13,.18,22.22-8.32a3.81,3.81,0,1,1,5.15,5.61C1332.5,819.72,1318.43,820.16,1316,820.16Z" fill="#571519"/><path d="M1317.12,1698.15s20.62-42.23,25.78-40.22c-3,19.34-1.92,33.56,5.15,40.22l12.37-23,12.37,23,4.13-30.16s19.59,15.08,19.59,30.16Z" fill="#ffeab8"/><path d="M1294.57,1692.48a150.34,150.34,0,0,0,6.7-46.39s20.62,16.43,21.65,40.69Z" fill="#ffeab8"/><path d="M1317.12,1702a3.85,3.85,0,0,1-1.67-.39,3.81,3.81,0,0,1-1.75-5.1c22.16-45.39,27.63-43.24,30.58-42.1a3.81,3.81,0,0,1,2.39,4.13c-2.33,15-2,25.87.94,32.42l9.46-17.56a3.81,3.81,0,0,1,6.71,0l6.82,12.67,2.54-18.57a3.81,3.81,0,0,1,6.1-2.5c.86.66,21.08,16.42,21.08,33.18a3.82,3.82,0,1,1-7.63,0c0-8-7.19-20.57-13-26.23l-3.16,26.75a3.81,3.81,0,0,1-7.13,1.29l-9-16.74-9,16.74a3.81,3.81,0,0,1-6,1c-6.3-5.94-8.82-16.63-7.61-32.51a330.08,330.08,0,0,0-17.28,31.41A3.82,3.82,0,0,1,1317.12,1702Z" fill="#f9c04e"/><path d="M1294.57,1696.29a3.77,3.77,0,0,1-1.23-.2,3.82,3.82,0,0,1-2.38-4.84,148.15,148.15,0,0,0,6.5-45.08,3.81,3.81,0,0,1,6.19-3.06c.89.71,22,17.81,23.08,43.51a3.81,3.81,0,0,1-3.65,4,3.77,3.77,0,0,1-4-3.65c-.59-14-8.41-25.34-14.15-31.85a153,153,0,0,1-6.78,38.62A3.8,3.8,0,0,1,1294.57,1696.29Z" fill="#f9c04e"/><path d="M940.24,1543.17S960.85,1500.94,966,1503c-3,19.34-1.91,33.56,5.15,40.22l12.38-23,12.37,23c-.75-21.26,6.14-34.44,18.11-42.28,0,0-3.1,21.14,5.6,42.28Z" fill="#ffeab8"/><path d="M917.68,1537.5a150.34,150.34,0,0,0,6.7-46.39S945,1507.54,946,1531.8Z" fill="#ffeab8"/><path d="M1019.62,1547a3.82,3.82,0,0,1-3.53-2.36c-5.59-13.6-6.42-36.13-6.43-35.13-7.2,7.77-10.46,18.83-9.94,33.55a3.82,3.82,0,0,1-7.17,1.94l-9-16.75-9,16.75a3.81,3.81,0,0,1-6,1c-6.3-5.94-8.81-16.63-7.61-32.52a330.36,330.36,0,0,0-17.28,31.42,3.81,3.81,0,1,1-6.85-3.35c22.16-45.39,27.64-43.24,30.59-42.1a3.82,3.82,0,0,1,2.38,4.13c-2.32,15-2,25.86,1,32.42l9.45-17.57a3.81,3.81,0,0,1,3.36-2h0a3.8,3.8,0,0,1,3.35,2l5.91,11c2.09-14.07,8.49-24.68,19.13-31.65a3.77,3.77,0,0,1,4.13,0,3.82,3.82,0,0,1,1.73,3.76c0,.21-2.81,20.43,5.36,40.29a3.82,3.82,0,0,1-2.08,5A3.89,3.89,0,0,1,1019.62,1547Z" fill="#f9c04e"/><path d="M917.68,1541.31a3.8,3.8,0,0,1-3.61-5,147.82,147.82,0,0,0,6.5-45.09,3.81,3.81,0,0,1,6.19-3c.9.71,22,17.8,23.08,43.51a3.81,3.81,0,1,1-7.61.32c-.6-14-8.42-25.34-14.15-31.85a152.21,152.21,0,0,1-6.79,38.62A3.8,3.8,0,0,1,917.68,1541.31Z" fill="#f9c04e"/><path d="M1064.35,1436.51h436.74a10.47,10.47,0,0,0,10.44-11.16l-19.52-292a10.47,10.47,0,0,0-10.44-9.76H1044.83a10.45,10.45,0,0,0-10.44,11.16l19.52,292A10.46,10.46,0,0,0,1064.35,1436.51Z" fill="#e0e0e0"/><path d="M1501.09,1440.32H1064.35a14.31,14.31,0,0,1-14.24-13.32l-19.53-292a14.27,14.27,0,0,1,14.25-15.22h436.74a14.31,14.31,0,0,1,14.24,13.32l19.52,292a14.26,14.26,0,0,1-14.24,15.22Zm-456.26-313a6.66,6.66,0,0,0-6.64,7.09l19.53,292a6.66,6.66,0,0,0,6.63,6.21h436.74a6.64,6.64,0,0,0,6.63-7.09l-19.52-292a6.67,6.67,0,0,0-6.63-6.21Z" fill="#571519"/><path d="M1237.62,1277.28c1.15,14.91,12.74,26.17,25.88,25.16s22.87-13.92,21.72-28.83-12.74-26.17-25.88-25.16S1236.47,1262.37,1237.62,1277.28Z" fill="#9b9b9b"/><path d="M1958.79,289.34a3.82,3.82,0,0,1-1.78-7.19c23.58-12.45,21.84-42.35,21.81-42.65a3.81,3.81,0,0,1,7.61-.53c.1,1.42,2.18,35.12-25.86,49.93A3.81,3.81,0,0,1,1958.79,289.34Z" fill="#571519"/><path d="M1979.26,287.12a3.81,3.81,0,0,1-2.15-7c12.66-8.64,11.45-25.75,11.43-25.92a3.81,3.81,0,0,1,7.6-.64c.08.88,1.66,21.68-14.74,32.86A3.85,3.85,0,0,1,1979.26,287.12Z" fill="#571519"/><path d="M797,347.38a3.81,3.81,0,0,1-1.78-.44c-28-14.81-26-48.51-25.86-49.94a3.81,3.81,0,0,1,7.61.54c0,.36-1.74,30.21,21.82,42.65a3.82,3.82,0,0,1-1.79,7.19Z" fill="#571519"/><path d="M776.56,345.16a3.81,3.81,0,0,1-2.15-.67c-16.39-11.17-14.81-32-14.74-32.85a3.81,3.81,0,0,1,7.6.63h0c0,.18-1.23,17.29,11.44,25.92a3.82,3.82,0,0,1-2.15,7Z" fill="#571519"/></svg>