<svg xmlns="http://www.w3.org/2000/svg" viewBox="0 0 2745 1830"><rect x="0.17" y="2.45" width="2744.65" height="1825.1" fill="#7d38ce"/><path d="M560.69,1577.11a3.2,3.2,0,0,1-3.2-3.2l-.2-1230.7a3.21,3.21,0,1,1,6.41,0l.2,1230.71A3.21,3.21,0,0,1,560.69,1577.11Z" fill="#a376e5"/><path d="M510.82,395a3.21,3.21,0,0,1-2.32-5.42l49.35-51.67a3.16,3.16,0,0,1,2.27-1h0a3.24,3.24,0,0,1,2.27.94l51.89,51.67A3.2,3.2,0,1,1,609.8,394l-49.58-49.36L513.14,394A3.19,3.19,0,0,1,510.82,395Z" fill="#a376e5"/><path d="M957.75,1563.54a3.2,3.2,0,0,1-3.2-3.2V982.19a4.19,4.19,0,0,0-2.86-.87H739.2a4.21,4.21,0,0,0-2.86.87v578.15a3.21,3.21,0,0,1-6.41,0V982c0-4,4.07-7.08,9.27-7.08H951.69c5.2,0,9.27,3.11,9.27,7.08v578.35A3.2,3.2,0,0,1,957.75,1563.54Z" fill="#a376e5"/><path d="M1229.08,1577.11h-212.5a9.32,9.32,0,0,1-9.27-9.34V766.83a9.32,9.32,0,0,1,9.27-9.34h212.5a9.32,9.32,0,0,1,9.27,9.34v800.94A9.32,9.32,0,0,1,1229.08,1577.11ZM1016.58,763.9a2.9,2.9,0,0,0-2.86,2.93v800.94a2.9,2.9,0,0,0,2.86,2.93h212.5a2.9,2.9,0,0,0,2.86-2.93V766.83a2.9,2.9,0,0,0-2.86-2.93Z" fill="#a376e5"/><path d="M1508.74,1577.11H1296.25c-5.11,0-9.26-4.91-9.26-10.94V555.86c0-6,4.15-10.94,9.26-10.94h212.49c5.11,0,9.27,4.91,9.27,10.94V1566.17C1518,1572.2,1513.85,1577.11,1508.74,1577.11ZM1296.25,551.33c-1.35,0-2.85,1.86-2.85,4.53V1566.17c0,2.67,1.5,4.53,2.85,4.53h212.49c1.36,0,2.86-1.86,2.86-4.53V555.86c0-2.67-1.5-4.53-2.86-4.53Z" fill="#a376e5"/><path d="M1935.22,1574.8a8.5,8.5,0,0,1-6.92-3.94,14.15,14.15,0,0,1-2.36-8l-2.8-1146.31a14.22,14.22,0,0,1,2.32-8,8.53,8.53,0,0,1,6.92-4l212.49-.52h0a8.52,8.52,0,0,1,6.92,3.94,14.33,14.33,0,0,1,2.36,8l2.8,1146.31a14.18,14.18,0,0,1-2.33,8,8.48,8.48,0,0,1-6.91,4l-212.5.52ZM1932.4,410.92c-.75,0-1.4.84-1.65,1.2a7.87,7.87,0,0,0-1.2,4.39l2.8,1146.31a7.88,7.88,0,0,0,1.22,4.39c.25.36.9,1.18,1.64,1.18h0l212.49-.52c.75,0,1.41-.83,1.65-1.19a8,8,0,0,0,1.2-4.39L2147.76,416a7.93,7.93,0,0,0-1.22-4.38c-.25-.36-.9-1.18-1.65-1.18h0l-212.49.51Zm0-3.2h0Z" fill="#a376e5"/><path d="M641.54,1034.28a3.34,3.34,0,0,1-1.11-.2,3.2,3.2,0,0,1-1.89-4.12C675.73,929.82,733.45,819.81,734,818.71a3.21,3.21,0,0,1,3.86-1.55l180,60.76L1046.1,665.44a3.21,3.21,0,0,1,3.87-1.34l89.87,33.7L1288.7,434.43a3.2,3.2,0,0,1,3.6-1.52L1467.9,479l323.57-43.44,153.9-122.18a3.21,3.21,0,0,1,4,5L1794.76,441.1a3.21,3.21,0,0,1-1.57.67L1468.12,485.4a3.19,3.19,0,0,1-1.23-.07l-173.83-45.59-149,263.6a3.2,3.2,0,0,1-3.91,1.43l-90-33.73L922,883.44a3.2,3.2,0,0,1-3.77,1.38l-179.8-60.7c-8.67,16.7-59.9,116.56-93.89,208.07A3.21,3.21,0,0,1,641.54,1034.28Z" fill="#a376e5"/><path d="M1943.65,355.71a3.11,3.11,0,0,1-.67-.07,3.21,3.21,0,0,1-2.47-3.8l7.6-35.7-38.44.19h0a3.21,3.21,0,0,1,0-6.41l42.41-.22h0a3.22,3.22,0,0,1,3.14,3.88l-8.43,39.59A3.19,3.19,0,0,1,1943.65,355.71Z" fill="#a376e5"/><path d="M974.31,419.1a3.12,3.12,0,0,1-1.32-.29,3.2,3.2,0,0,1-1.6-4.24L1040,263a3.21,3.21,0,1,1,5.84,2.65l-68.63,151.6A3.2,3.2,0,0,1,974.31,419.1Z" fill="#a376e5"/><path d="M1193.68,330a3.19,3.19,0,0,1-3-2c-19.69-48.76-59-88.84-108-110a3.21,3.21,0,0,1,2.55-5.89,210.42,210.42,0,0,1,67.12,46.07,206,206,0,0,1,44.23,67.39,3.21,3.21,0,0,1-1.77,4.18A3.16,3.16,0,0,1,1193.68,330Z" fill="#a376e5"/><path d="M1001.35,403.51a3.12,3.12,0,0,1-1.32-.29,3.2,3.2,0,0,1-1.6-4.24l83.63-184.73a3.2,3.2,0,0,1,5.84,2.64l-83.63,184.74A3.21,3.21,0,0,1,1001.35,403.51Z" fill="#a376e5"/><path d="M1003.23,402.89a3.21,3.21,0,0,1-1.14-6.21l189.39-71.89a3.21,3.21,0,0,1,2.27,6l-189.39,71.89A3.22,3.22,0,0,1,1003.23,402.89Z" fill="#a376e5"/><path d="M1086.12,544.64a3.2,3.2,0,0,1-2.41-1.08L972.37,417.26a3.21,3.21,0,1,1,4.81-4.24l111.34,126.3a3.2,3.2,0,0,1-2.4,5.32Z" fill="#a376e5"/><path d="M1006.94,422.63a3.21,3.21,0,0,1-1.14-6.21l155.43-59a3.2,3.2,0,1,1,2.27,6l-155.42,59A3.28,3.28,0,0,1,1006.94,422.63Z" fill="#a376e5"/><path d="M1117.22,548.69a3.18,3.18,0,0,1-2.4-1.09L1003.47,421.3a3.21,3.21,0,1,1,4.81-4.24l111.34,126.3a3.2,3.2,0,0,1-2.4,5.33Z" fill="#a376e5"/><path d="M974.21,586.78q-4.53,0-9.09-.23a174.17,174.17,0,0,1-120-55.94c-31.13-33.75-47-77.34-44.71-122.73s22.5-87.16,56.87-117.6a176.45,176.45,0,0,1,186.16-29.34,3.2,3.2,0,0,1-2.54,5.88A169.59,169.59,0,0,0,982,253.15c-92-4.66-170.63,64.9-175.19,155s66.6,167.29,158.64,172a168.19,168.19,0,0,0,117.92-39.73,3.21,3.21,0,0,1,4.16,4.88A174.37,174.37,0,0,1,974.21,586.78Z" fill="#a376e5"/><path d="M1116.55,550.11a3.17,3.17,0,0,1-2.44-1.13,3.2,3.2,0,0,1,.36-4.52c34.65-29.45,55-70.4,57.26-115.32a159.45,159.45,0,0,0-11.46-68.33,3.21,3.21,0,0,1,6-2.4,167.61,167.61,0,0,1-5.85,138.1,169.7,169.7,0,0,1-41.74,52.84A3.22,3.22,0,0,1,1116.55,550.11Z" fill="#a376e5"/><path d="M874.43,555.17a3.25,3.25,0,0,1-1.87-.6,3.21,3.21,0,0,1-.73-4.48L970.2,413.37a3.2,3.2,0,0,1,5.2,3.74L877,553.84A3.18,3.18,0,0,1,874.43,555.17Z" fill="#a376e5"/><path d="M1042.09,385.87a3.21,3.21,0,0,1-3.13-2.54l-9.35-43.9a3.21,3.21,0,0,1,6.28-1.34l9.34,43.9a3.21,3.21,0,0,1-2.47,3.81A3.81,3.81,0,0,1,1042.09,385.87Z" fill="#a376e5"/><path d="M1069.28,375.84a3.2,3.2,0,0,1-3.11-2.44l-18.67-76.15a3.21,3.21,0,1,1,6.23-1.53l18.66,76.15a3.21,3.21,0,0,1-2.35,3.88A3.29,3.29,0,0,1,1069.28,375.84Z" fill="#a376e5"/><path d="M1093.41,364.49a3.2,3.2,0,0,1-3.1-2.41l-25.82-99.91a3.2,3.2,0,0,1,6.2-1.6l25.83,99.91a3.22,3.22,0,0,1-2.3,3.91A3.74,3.74,0,0,1,1093.41,364.49Z" fill="#a376e5"/><path d="M1117.82,355.6a3.21,3.21,0,0,1-3.09-2.36l-34.4-125.18a3.21,3.21,0,0,1,6.19-1.7l34.39,125.18a3.2,3.2,0,0,1-2.24,3.94A3.17,3.17,0,0,1,1117.82,355.6Z" fill="#a376e5"/><path d="M1146,347.13a3.21,3.21,0,0,1-3.09-2.38l-28.82-108.32a3.21,3.21,0,0,1,6.2-1.65L1149.1,343.1a3.2,3.2,0,0,1-2.27,3.92A3,3,0,0,1,1146,347.13Z" fill="#a376e5"/><path d="M1170.78,337.79a3.19,3.19,0,0,1-3.12-2.5l-14.33-62.9a3.21,3.21,0,1,1,6.25-1.43l14.33,62.91a3.2,3.2,0,0,1-2.42,3.83A2.94,2.94,0,0,1,1170.78,337.79Z" fill="#a376e5"/><path d="M1848.11,1574.55h-212.5c-5.19,0-9.27-5-9.27-11.3V507.59c0-6.33,4.08-11.29,9.27-11.29h212.5c5.2,0,9.27,5,9.27,11.29V1563.25C1857.38,1569.58,1853.31,1574.55,1848.11,1574.55ZM1635.61,502.71c-1.35,0-2.85,2.09-2.85,4.88V1563.25c0,2.8,1.5,4.89,2.85,4.89h212.5c1.35,0,2.86-2.09,2.86-4.89V507.59c0-2.79-1.51-4.88-2.86-4.88Z" fill="#a376e5"/><path d="M1382.39,1568.21l254.38,1.77.41-76.76-89.6,3.94Z" fill="#fff"/><path d="M1518.18,283.82c-21.23,5.18-59.54,34.57-63.69,63s-37.87,149.25-70.06,173.26-56.8,21.07-69.09,18.15-12.3-19.32-24-28.69-38.65,2.92-36.89,22.25,34,65.57,65.57,69.67c0,0,25.7,125.81,14.48,157.89,0,0,15.36,29.42,55.09,48.76s57.7,47.34,63.57,55.28,18.31,55.63,17.27,73.6c0,0,5.34-14.39,22-39.78s33.72-39.41,33.72-39.41l19.27,37.65s98.51-34.58,116.46-31.08l-9.19-149.31s-7.37-41.83-11.28-48.46-34.89-66-34.89-66,13.62-38.23,10.76-69.94-4.94-96-5-102.63-9.17-66.77-27.81-91S1539.4,278.65,1518.18,283.82Z" fill="#f9ebe0"/><path d="M1302.49,522.9c11.78,9.17,46.4-4.48,64.31-19.13s34.6-53.73,37-70,.81-27.68.81-27.68-30.12,57-52.92,79.37S1298.82,520.05,1302.49,522.9Z" fill="#f9ebe0"/><path d="M1475.23,1438.26c-3.72-6.37,19.37-13.8,35.91-28.94,26.27-24,52.37-57.14,52.37-57.14s31.14,137.19,39.93,157.77c0,0-75.1,48.67-107.82,48.82a146.69,146.69,0,0,0,3.6-47.8C1496.7,1485.31,1478.55,1443.94,1475.23,1438.26Z" fill="#f9ebe0"/><path d="M1516.75,289.16c6.18,4.14-18.54,24-22.47,32.06-12.46,27.17-18.83,57.52-25.3,86.93-10.7,52.84-32.63,99.2-78.23,129.87-17,11.37-40.27,17.66-60.66,15-2.94-.65-19.94-7.47-19.39-11.36-.1-.95,11.56.69,12.51.59,12.31-1.3,26.62-1.85,38.63-6,23.08-8.18,44-45.82,55.16-67.1,10.41-19.29,15.79-59.12,20.32-79.71,6.47-29.41,16.44-43.87,33.93-68.7C1482.91,304.22,1498.21,276.75,1516.75,289.16Z" fill="#fbc8ba"/><path d="M1302.67,529.12c7.57-.8,22.63-3.35,33.69-7.39s21.09-8.92,29.66-18.45,13.86-13.91,20.13-27,8-15.2,11.1-30.85,7.58-37.19,4.29-32.06-13,22.44-17.09,28.62-10.72,16.45-17.39,25.77-11.76,15.61-17.7,22.94c-6.87,7.42-8.57,9.52-19.23,17.35s-13.3,10-21.33,15.65C1299.63,527.52,1294.14,530,1302.67,529.12Z" fill="#fbc8ba"/><path d="M1606.41,501.35c-2.08-11.24-16-18.35-31-15.57S1550,500.17,1552.1,511.4s16,18.35,31,15.58S1608.48,512.59,1606.41,501.35Z" fill="#feaca9"/><path d="M1466,527.34c-2.08-11.23-16-18.35-31-15.57s-25.42,14.38-23.34,25.62,16,18.35,31,15.58S1468,538.58,1466,527.34Z" fill="#feaca9"/><path d="M1529.48,525.27c-2.08-11.23-19.66-22.51-17.92-39.3.07-4.85-4.06,9.47-6.14,24.39-1.43,8-2.33,18.83-1.63,22.57,2.07,11.24,6.37,24,13.17,18.87S1531.56,536.51,1529.48,525.27Z" fill="#feaca9"/><path d="M1386,662.27c2.69,12.07,62.62,159.21,118.07,211.53l19.68-19.67-20.13-49.64c-21,0-45.16-42-45.16-42l-10.74-19.22,13.42-46.52-27.28-9.39S1383.37,650.19,1386,662.27Z" fill="#fbc8ba"/><path d="M1484.38,1428.12c14.9-6.21,31.25,45.79,42,70s63.58-14.54,65.73-19.39l9.16,29.09s-56.57,51.19-103.45,48.49c0,0,3.24-49-1.61-65.73S1471.45,1433.5,1484.38,1428.12Z" fill="#fbc8ba"/><path d="M1543,876.1c11-16.07,79.37-51.7,115.73-36.18l-3.23,21.47s-98,21.37-110.1,35.76C1545.44,897.15,1532,892.17,1543,876.1Z" fill="#fbc8ba"/><path d="M1304.52,782.17l-53.79,24.2-69.36,20.79s22-29.52,12.35-41.87-65.89-41.19-65.21-89.24,11-81.68,33-106.39,38.43-48.74,28.14-78.94-19.38-95.94,19.73-155.59,83.35-105.46,112.93-122.6,64.87-30.06,110.45-17.43c0,0,85.2,14.16,89.23,70,0,0-38,8.28-52.13,30.14s-68.81,97.54-80.35,119.07-71.72,89.9-87.83,88.11c-3.94,2.51-.87-9.07-10.05-14.53s-35.8-7-33.87,24.61,32,62.56,63.15,70.1c0,0,20.39,114.3,17.46,133.39,0,0-17.1,5.12-22.15,21.35S1304.52,782.17,1304.52,782.17Z" fill="#f4c04d"/><path d="M1300.14,519.13c3,15.53,8.51,23.66,35.87,22.18s61.75-27.73,73.21-49.55,23.67-70.25,25.15-79.87,22.56-70.63,27.36-82.09c0,0-15.9,5.92-28.47,15.9s-23.3,42.9-23.3,42.9-5.92,51.4-14,74.32S1370,503.6,1353.76,512.1,1322,525.78,1300.14,519.13Z" fill="#f4c04d"/><path d="M1433.6,215.18c15.39-12.05,65.11-17.2,95.68-.68s86.43,55.56,110.68,102,33.93,78.89,28.38,106-17.16,90.63-9,107.88S1736,616,1744.71,662.14s5.34,52.82-12.33,81-45.12,56.64-45.12,56.64l-30-4.59s1-82.25-3.21-96.87-25.94-65.53-31.52-74.59-16.45-24-16.45-24,11-34.87,11.77-50.62-7-71.18-7-71.18-.12-63.38-2.29-80.08-11.21-41.33-25.61-60.38-62.88-48.27-66-53.47S1418.21,227.22,1433.6,215.18Z" fill="#f4c04d"/><path d="M1334.91,457.49c1.91-1.91,4.77-3.81,5.71-5.72,5.72-8.57,10.48-18.09,15.24-27.61,4.77-10.48-9.52.95-11.42,2.85C1340.62,431.77,1317.77,470.82,1334.91,457.49Z" fill="#3b2f2f"/><path d="M1318.38,443c13.33,0,4.76-.95,19-23.8C1360.28,383,1291.72,444,1318.38,443Z" fill="#3b2f2f"/><path d="M1282.1,318.53c11.43-3.81,3.81-2.86,12.38-14.29,2.86-3.8,4.77-7.61,7.62-11.42C1337.33,243.3,1245,330.91,1282.1,318.53Z" fill="#7c6565"/><path d="M1265,310.91c15.24-7.62,5.71-4.76,26.66-31.43,6.67-8.57,4.77-15.23-5.71-7.61C1282.1,274.72,1254.48,316.62,1265,310.91Z" fill="#7c6565"/><path d="M1228.26,753c.41-2.66,1.6-5.88,1.25-8-.45-10.28-2.22-20.78-4-31.28-2.34-11.27-7.13,6.39-7.55,9C1217.7,728.86,1222.28,773.87,1228.26,753Z" fill="#3b2f2f"/><path d="M1206.38,751.07c10.77-7.86,3.29-3.57,1.33-30.46C1204.82,677.91,1185.41,767.57,1206.38,751.07Z" fill="#3b2f2f"/><path d="M1331.14,738.47c-10.07,2.73-29.5,46.41-29.5,46.41l-45.7,17.68s-72.65,27.38-95.34,33.87-46.64,19.76-65,35.85-46,68.73-58.92,101.77-71.17,211.86-71.17,211.86-30.5,95.76-40.14,121.67-39,179.52-39.46,196.92,5.07,35.86,26,57.3c18.2,18.61,76.14,23.15,81,23.73,37.24,4.45,188.71.46,188.71.47s68.33,3.34,142.73-1.18,83.74-14.8,83.74-14.8c62.35,7.16,89.89-13.56,89.89-13.56,11.56-41.31-21-120.38-21-120.38l86.81-85.06c2.16,16.82,33.82,140.41,38.6,158.43s37.5,64.8,64.82,87.5,87,12,87,12c54-28.75,77.32-103,83.92-132.9s9.42-153.07,9.42-153.07S1825,1009.67,1824,978.7s-12.16-99-38.55-137.05S1659,793.87,1659,793.88l-.47,68.33c-21.38-2.78-113.35,33.33-113.36,33.33l-20.78-41.23c-20.18,11.18-49.43,78.09-49.43,78.09-1.75-22.69-26.73-81.22-43.78-96.12s-60.5-40.86-78.65-50.42-24.22-37.36-19.48-47.37A3.12,3.12,0,0,0,1331.14,738.47ZM1179.3,1211.39s22.58,205.74,30.81,223.72l-35.13-4.76-59.46-1.2s40.71-93.89,45-109.59S1179.3,1211.39,1179.3,1211.39Z" fill="#fff"/><path d="M2228.47,1575.33h0l-431.81-.1a3.21,3.21,0,1,1,0-6.41h0l431.81.1a3.21,3.21,0,0,1,0,6.41Z" fill="#a376e5"/><path d="M1639.4,1574.41H1403.85a3.21,3.21,0,1,1,0-6.41H1639.4a3.21,3.21,0,1,1,0,6.41Z" fill="#a376e5"/><path d="M919.2,1574.41H561.44a3.21,3.21,0,1,1,0-6.41H919.2a3.21,3.21,0,0,1,0,6.41Z" fill="#ccb864"/><path d="M1889,819.82a3.21,3.21,0,0,1-2.3-5.44L1964.19,735a3.2,3.2,0,0,1,4.58,4.48l-77.52,79.36A3.2,3.2,0,0,1,1889,819.82Z" fill="#302324"/><path d="M1874.36,808a3.2,3.2,0,0,1-2.33-5.4l62-65.68a3.21,3.21,0,0,1,4.67,4.41l-62,65.67A3.22,3.22,0,0,1,1874.36,808Z" fill="#302324"/><path d="M1585.23,1137.23a3.2,3.2,0,0,1-2.26-5.48l135.9-135a3.21,3.21,0,0,1,4.52,4.55l-135.9,135A3.19,3.19,0,0,1,1585.23,1137.23Z" fill="#302324"/><path d="M1598.91,1150a3.21,3.21,0,0,1-2.25-5.5l45.6-44.69a3.21,3.21,0,1,1,4.49,4.58l-45.6,44.69A3.15,3.15,0,0,1,1598.91,1150Z" fill="#302324"/><path d="M2182.12,1627.13a3.21,3.21,0,0,1-2.25-5.49l49.73-49.21L2180.65,1525a3.2,3.2,0,1,1,4.46-4.6l51.3,49.72a3.17,3.17,0,0,1,1,2.28,3.21,3.21,0,0,1-1,2.3l-52,51.51A3.2,3.2,0,0,1,2182.12,1627.13Z" fill="#a376e5"/><path d="M1514.6,556.25a3.21,3.21,0,0,1-1.89-5.81c5.26-3.8,16-16,11.46-23.86-1-1.51-2.08-3.12-3.25-4.82-8.07-11.71-20.27-29.42-4.54-47.87a3.21,3.21,0,1,1,4.88,4.16c-12.54,14.71-3.25,28.18,4.94,40.07,1.22,1.77,2.37,3.43,3.41,5.06l.06.1c7.06,12-6.11,27.23-13.2,32.36A3.19,3.19,0,0,1,1514.6,556.25Z" fill="#2e2020"/><path d="M1328.34,605.81h-.08c-23.72-.58-52.28-18.78-66.44-42.34-10-16.68-11.45-34.06-4-48.93l.06-.1c4.64-8.51,13.91-14.44,23.08-14.76a20.25,20.25,0,0,1,18.31,9.78,3.21,3.21,0,1,1-5.4,3.46,13.86,13.86,0,0,0-12.69-6.84c-7,.25-14.05,4.82-17.65,11.38-8.19,16.44-2.46,32.29,3.8,42.7,12.92,21.49,39.75,38.72,61.1,39.25a3.21,3.21,0,0,1-.07,6.41Z" fill="#2e2020"/><path d="M1312.23,562.51a3.21,3.21,0,0,1-2.65-1.39c-7.21-10.53-15.32-15-28-15.46a3.21,3.21,0,1,1,.23-6.41c14.78.53,24.66,6,33.06,18.25A3.2,3.2,0,0,1,1314,562,3.16,3.16,0,0,1,1312.23,562.51Z" fill="#2e2020"/><path d="M1411.1,439a3.21,3.21,0,0,1-1.48-6.06c23.4-12.1,45.61-16.1,66-11.9a3.21,3.21,0,1,1-1.3,6.28c-18.92-3.9-39.7-.09-61.76,11.32A3.22,3.22,0,0,1,1411.1,439Z" fill="#2e2020"/><path d="M1589.41,422.8a3.26,3.26,0,0,1-1.32-.28c-17-7.7-38.84-8.48-52-1.88a3.2,3.2,0,1,1-2.87-5.73c14.75-7.4,39-6.66,57.54,1.77a3.2,3.2,0,0,1-1.33,6.12Z" fill="#2e2020"/><path d="M1332,543a104.26,104.26,0,0,1-18.73-1.77,3.2,3.2,0,1,1,1.15-6.3c35.54,6.48,62.88-5.82,83.57-37.58,18.22-28,28.37-66,37.32-99.56,5.74-21.51,10.7-40.08,17-53.34,22.13-46.35,45.88-67.73,70.59-63.54a3.2,3.2,0,1,1-1.07,6.32c-21.55-3.65-43,16.53-63.72,60-6,12.71-11.15,31.91-16.57,52.23-9.08,34-19.37,72.56-38.15,101.4-10.43,16-22.2,27.17-36,34.11A77.72,77.72,0,0,1,1332,543Z" fill="#2e2020"/><path d="M1304.8,528.83a3.21,3.21,0,0,1-.13-6.41c39.58-1.55,67.11-20.14,84.18-56.82,14.64-31.47,18.58-69.46,21.75-100,1.4-13.53,2.61-25.21,4.55-33.81a3.2,3.2,0,1,1,6.25,1.41c-1.85,8.23-3.05,19.74-4.43,33.06-3.21,31-7.22,69.59-22.31,102-8.32,17.87-19.3,32-32.65,41.86-15.51,11.51-34.72,17.79-57.08,18.67Z" fill="#2e2020"/><path d="M1298.71,525.65a3.21,3.21,0,0,1-.5-6.38c33.89-5.38,89.07-76.25,101.88-114.34a3.2,3.2,0,1,1,6.07,2c-6.42,19.12-23.56,46.94-43.65,70.88-13.63,16.25-40,44-63.3,47.76A4.38,4.38,0,0,1,1298.71,525.65Z" fill="#2e2020"/><path d="M1619.37,452.17a3.16,3.16,0,0,1-1.91-.64,3.2,3.2,0,0,1-.66-4.48c11.15-15,14-53.34.57-86.64-9.88-24.43-32-55.22-81.13-63.24a3.21,3.21,0,1,1,1-6.33c22,3.59,40.79,11.92,55.94,24.78a107.87,107.87,0,0,1,30.1,42.38c14.75,36.46,10.77,76.6-1.37,92.88A3.21,3.21,0,0,1,1619.37,452.17Z" fill="#2e2020"/><path d="M1612.17,438.57a3.21,3.21,0,0,1-3.21-3.08c-2.5-66.23-22.13-103.93-65.62-126.07a3.21,3.21,0,0,1,2.91-5.72c45.84,23.34,66.51,62.68,69.12,131.54a3.21,3.21,0,0,1-3.08,3.33Z" fill="#2e2020"/><path d="M1515.13,265a3.16,3.16,0,0,1-2.59-1.32c-12.5-17.18-29.22-24.23-46.93-31.69-11.27-4.75-22.92-9.67-33.36-17.4a3.2,3.2,0,1,1,3.81-5.15c9.82,7.28,21.12,12,32,16.64,17.74,7.48,36.08,15.21,49.62,33.83a3.21,3.21,0,0,1-.71,4.48A3.15,3.15,0,0,1,1515.13,265Z" fill="#2e2020"/><path d="M1686.19,800.94a3.2,3.2,0,0,1-2.12-5.61c47-41.41,66.53-81.31,59.62-122-6-35.61-31.45-67.4-53.88-95.45-24.67-30.86-46-57.51-40.16-84.12l0-.13c23.8-90.16,20.25-119.88-22.39-187-37.39-58.87-106.06-114.13-186.66-92.63a3.21,3.21,0,0,1-1.65-6.2,141.86,141.86,0,0,1,59.81-3.05,160.46,160.46,0,0,1,53.59,19.44c30.49,17.41,59,45.46,80.32,79,19.65,30.95,33.48,57.71,37,87.68,3.55,29.77-2.66,62-13.84,104.36-5.12,23.6,15.29,49.12,38.92,78.68,22.91,28.65,48.87,61.13,55.2,98.37,7.31,43-12.88,84.87-61.71,127.87A3.24,3.24,0,0,1,1686.19,800.94Z" fill="#2e2020"/><path d="M1505.93,615.77c-11,0-20.29-2.66-25.52-5.36a3.2,3.2,0,0,1,2.95-5.69c13,6.72,46.17,9.35,64-15a3.21,3.21,0,1,1,5.17,3.79c-11.34,15.49-27.1,20.39-38.33,21.76A67.69,67.69,0,0,1,1505.93,615.77Z" fill="#2e2020"/><path d="M1336.44,757.36a3.11,3.11,0,0,1-.9-.13,3.21,3.21,0,0,1-2.18-4c6.76-23.09,1.37-49.19-5.44-82.24-4-19.43-8.55-41.44-11.19-66.21a3.2,3.2,0,1,1,6.37-.68c2.61,24.46,7.12,46.31,11.1,65.6,7,33.92,12.52,60.71,5.31,85.33A3.21,3.21,0,0,1,1336.44,757.36Z" fill="#2e2020"/><path d="M1542.76,488.12a3.2,3.2,0,0,1-2.27-5.47c15.67-15.78,34.29-18.42,48.58-6.88a3.21,3.21,0,1,1-4,5c-11.69-9.44-26.64-7-40,6.41A3.19,3.19,0,0,1,1542.76,488.12Z" fill="#2e2020"/><path d="M1559.36,485.7c-.81-7.57,3.31-13.76,10-14.47s12,4.47,13.62,11c.81,7.58-3.32,13.76-10,14.47A12.6,12.6,0,0,1,1559.36,485.7Z" fill="#2e2020"/><path d="M1419.55,500.3a3.2,3.2,0,0,1-2.27-5.46c15.68-15.78,34.3-18.41,48.59-6.88a3.2,3.2,0,0,1-4,5c-11.7-9.44-26.66-7-40,6.41A3.16,3.16,0,0,1,1419.55,500.3Z" fill="#2e2020"/><path d="M1435.43,498.12c-.8-7.58,3.32-13.77,10-14.47s12,4.47,13.62,11c.81,7.58-3.32,13.77-9.94,14.47A12,12,0,0,1,1435.43,498.12Z" fill="#2e2020"/><path d="M1165.84,837.12a3.21,3.21,0,0,1-.77-6.32c7.92-2,24.51-13.69,26.67-28.09,1.87-12.53-6.91-24.74-26.11-36.31-20.84-12.56-34-34.64-38.08-63.86-2.82-20.22-.91-43.22,5.37-64.77s16.61-40.69,29.15-54.1c33.9-36.29,31.21-47.45,21.19-89-1.67-6.91-3.55-14.73-5.49-23.57-7.19-32.87-1.45-64.89,18.07-100.77,18.5-34,48.22-68.78,77.07-101.48,21.7-24.58,51.48-43.65,83.87-53.71,29.81-9.26,58.88-10.05,79.76-2.17a3.21,3.21,0,1,1-2.27,6c-39.4-14.88-111.71,3.32-156.55,54.13-64.14,72.68-108.41,129.34-93.69,196.63,1.92,8.78,3.8,16.56,5.46,23.43,5.13,21.26,8.52,35.31,6,49-2.46,13.5-10.52,26.36-28.76,45.87-24.55,26.28-38.37,74.06-32.85,113.61,2.64,19,10.87,44.7,35,59.26,26.94,16.23,30.71,32.21,29.14,42.75-2.65,17.64-21.59,30.9-31.46,33.36A3,3,0,0,1,1165.84,837.12Z" fill="#2e2020"/><path d="M1253,806.79a3,3,0,0,1-1.14-.22,3.2,3.2,0,0,1-1.85-4.14c1.15-3,2.64-6.29,4.22-9.77,10.27-22.66,24.33-53.69-9.79-91.54-42.24-46.84-51-83.06-27.55-114A3.21,3.21,0,0,1,1222,591c-10.73,14.14-13.87,29.29-9.61,46.29,4.37,17.41,16.41,36.88,36.81,59.51,16.28,18,23.83,36.43,23.1,56.2-.63,16.67-7.06,30.87-12.23,42.28-1.54,3.39-3,6.59-4.07,9.42A3.22,3.22,0,0,1,1253,806.79Z" fill="#2e2020"/><path d="M1468.26,979.13a3.15,3.15,0,0,1-.61-.06,3.19,3.19,0,0,1-2.54-3.75c5-26-.84-90.34-15.6-110.44-15.1-20.55-58.36-54.27-85.51-69.56-31.7-17.87-42.69-39.39-30.94-60.6a3.21,3.21,0,0,1,5.61,3.11c-12.52,22.58,8.58,40.69,28.48,51.9,27.7,15.61,72,50.18,87.52,71.36,16.88,23,21.5,90.62,16.73,115.44A3.21,3.21,0,0,1,1468.26,979.13Z" fill="#2e2020"/><path d="M1401.38,938.63c-2.47,0-7.85-1.52-21.77-20.89a347.41,347.41,0,0,1-23.44-38.07c-6.63-12.62-18.26-29.2-28.52-43.83-11.83-16.85-22-31.41-24.7-39.43-2.57-7.76-.52-20.55,5.34-33.37,6.21-13.55,15-24,24.26-28.68a3.21,3.21,0,1,1,2.9,5.72c-16.78,8.52-30.82,41-26.41,54.31,2.36,7.13,12.8,22,23.85,37.77,10.88,15.51,22.13,31.54,29,44.53a340.46,340.46,0,0,0,22.47,36.62c10.34,14.5,15.17,17.88,16.75,18.66,8.5-23.77,29.5-63.83,55.14-65.5a3.21,3.21,0,1,1,.42,6.4c-20.9,1.36-41.17,37.65-49.69,61.7a5.57,5.57,0,0,1-4.88,4C1401.86,938.61,1401.64,938.63,1401.38,938.63Zm.29-6.43h0Z" fill="#2e2020"/><path d="M1067.9,1590.88c-76.93,0-140.21-4.7-158.49-23.68-23.3-24.2-34.18-49.37-34.25-79.22-.06-26.78,8.45-55.56,19.58-90.39,3.27-10.26,8.59-27.31,15.32-48.89,38.84-124.61,119.66-383.91,149.43-435.76,29-50.55,68.3-66.11,99.86-78.61,7.08-2.81,13.76-5.46,19.84-8.31,13.89-6.51,29.77-11.33,46.58-16.43,23.62-7.17,50.4-15.3,76.55-29.89a3.2,3.2,0,1,1,3.12,5.59c-26.75,14.94-53.88,23.17-77.81,30.43-16.58,5-32.24,9.79-45.72,16.11-6.26,2.93-13,5.62-20.2,8.46-30.63,12.13-68.76,27.24-96.66,75.85-29.42,51.23-113.13,319.79-148.87,434.46-6.74,21.6-12,38.65-15.34,48.94-22.24,69.61-33.5,114.73,13.19,163.21,11.17,11.6,44.35,18.38,101.45,20.73,50.89,2.09,112.81.37,172.69-1.3l23.32-.64c32.81-.87,63.61-.82,90.78-.77,44.51.07,83,.14,90.54-4.81,11.66-7.61,15.46-31.11,10.7-66.14-4-29.28-12.72-57.29-16.09-63.47-9-16.41-62.19-13-113.68-9.78-11.32.72-23,1.46-34.55,2-31.13,1.53-55.81-.72-77.58-2.71-25.16-2.29-46.89-4.28-69.57.83-23.34,5.26-36.8,15.65-44,23.45-7.76,8.42-10.08,15.72-10.1,15.79a3.21,3.21,0,0,1-6.14-1.86c.41-1.33,10.38-32.72,58.81-43.63,23.66-5.34,45.86-3.31,71.56-1,21.56,2,46,4.2,76.68,2.69,11.48-.57,23.17-1.31,34.47-2,58.38-3.7,108.8-6.9,119.71,13.1,4.29,7.85,13,37.34,16.82,65.67,3.61,26.62,4.19,60.79-13.55,72.38-8.78,5.73-38.29,6-94.06,5.85-27.13,0-57.88-.1-90.6.77l-23.32.64C1147.39,1589.73,1106,1590.88,1067.9,1590.88Z" fill="#2e2020"/><path d="M1118.35,1429a3.15,3.15,0,0,1-1.71-.5,3.21,3.21,0,0,1-1-4.42c26.85-42.49,57.06-160.71,62.57-215.36a3.2,3.2,0,0,1,6.37.65c-5.56,55.24-36.23,174.94-63.52,218.13A3.2,3.2,0,0,1,1118.35,1429Z" fill="#2e2020"/><path d="M1215.8,1438a3.22,3.22,0,0,1-3.11-2.44c-7.3-29.18-20.36-98.52-30.18-169.52-4.25-30.75-3.28-61.58-2.43-88.79,1.15-36.64,2.14-68.28-11.07-81.06a3.21,3.21,0,0,1,4.46-4.61c15.25,14.76,14.26,46.14,13,85.87-.84,27-1.8,57.5,2.38,87.71,9.43,68.21,22.68,139.42,30,168.85a3.2,3.2,0,0,1-2.33,3.89A3.47,3.47,0,0,1,1215.8,1438Z" fill="#2e2020"/><path d="M1544.41,895.45a3.18,3.18,0,0,1-2.72-1.51c-8-12.73-26.8-54.52-37.46-85.13-10.78-31-19.4-72.49-19.48-72.91a3.21,3.21,0,0,1,6.28-1.3c.08.42,8.61,41.51,19.26,72.1,10.53,30.25,29,71.39,36.83,83.85a3.21,3.21,0,0,1-2.71,4.9Z" fill="#2e2020"/><path d="M1489.64,754.71a3.48,3.48,0,0,1-.55,0c-11.89-2-17-9.39-19.14-15.18a3.2,3.2,0,1,1,6-2.25c2.3,6.14,7.09,9.88,14.23,11.11a3.2,3.2,0,0,1-.54,6.36Z" fill="#2e2020"/><path d="M1496.9,811.2a11.48,11.48,0,0,1-1.66-.12c-5.85-.84-11.28-5.88-18.74-17.39-2.15-3.32-4.45-6.81-6.79-10.36-9.1-13.84-18.52-28.14-21.68-35.91-4.49-11,4.51-40.13,16.33-52.79,10.53-11.28,40-5.41,64.48,1l3,.79c11.9,3,13.22,18.25,13.93,26.45.06.72.12,1.39.18,2a3.21,3.21,0,0,1-6.38.63c-.06-.64-.12-1.34-.19-2.08-.61-7.07-1.63-18.92-9.09-20.78l-3.1-.8c-12.1-3.15-48.9-12.73-58.18-2.79-10.69,11.45-18.35,38-15.08,46,2.92,7.18,12.58,21.85,21.1,34.79,2.34,3.56,4.66,7.08,6.81,10.4,6.09,9.39,10.62,14,14.27,14.53,1.26.18,3.35.08,6.81-2.89a3.21,3.21,0,1,1,4.18,4.86C1503.63,809.72,1500.26,811.2,1496.9,811.2Z" fill="#2e2020"/><path d="M1577.88,710.62a3.21,3.21,0,0,1-3.19-2.91c-1.22-13.15-10.56-19.7-30.26-21.25-27.59-2.16-39.87,1.79-42.17,6.21a3.21,3.21,0,0,1-5.69-3c4.46-8.57,20.74-11.81,48.36-9.64,22.8,1.79,34.62,10.63,36.15,27a3.22,3.22,0,0,1-2.9,3.49Z" fill="#2e2020"/><path d="M1609,710.88h-.22a3.21,3.21,0,0,1-3-3.41c.68-10.21-1-16.14-5.86-20.49-6.41-5.73-29.38-19.32-44.76-19.63-12.72-.24-23.39,5.58-25.88,14.18a3.21,3.21,0,1,1-6.16-1.78c3.3-11.38,16.52-19.11,32.17-18.8,18,.35,42.29,15.35,48.9,21.26,8.07,7.22,8.57,17,8,25.68A3.2,3.2,0,0,1,1609,710.88Z" fill="#2e2020"/><path d="M1582.26,673.2a3.2,3.2,0,0,1-3-2c-5.44-13.75-7.34-46-7.42-47.39a3.21,3.21,0,0,1,6.4-.37c0,.33,1.92,32.61,7,45.41a3.2,3.2,0,0,1-1.8,4.15A3.1,3.1,0,0,1,1582.26,673.2Z" fill="#2e2020"/><path d="M1658.29,867.68a3.2,3.2,0,0,1-3.2-3.13c0-.75-1.72-75.89-2-102.28a429.19,429.19,0,0,0-8-74.06c-2.79-13.45-15-37.49-25.79-58.71-2.83-5.58-5.51-10.86-7.91-15.72-4.78-9.7-11-15.68-18.38-17.79-6.42-1.83-13.62-.55-20.25,3.59-6.07,3.8-9.39,18.19-12.59,32.11-2.93,12.68-6,25.79-11.56,33.65a3.2,3.2,0,0,1-5.22-3.72c4.87-6.82,7.75-19.3,10.53-31.37,3.66-15.89,7.12-30.9,15.44-36.1s17.21-6.66,25.41-4.33c9.1,2.59,16.83,9.89,22.37,21.13,2.38,4.82,5,10.08,7.88,15.65,11,21.57,23.39,46,26.35,60.3a436.24,436.24,0,0,1,8.12,75.3c.3,26.35,2,101.45,2,102.21a3.2,3.2,0,0,1-3.13,3.27Z" fill="#2e2020"/><path d="M1606.8,604.33a3.09,3.09,0,0,1-1-.17,3.21,3.21,0,0,1-2-4.06,169.69,169.69,0,0,0,8.59-70V530c-.24-5.53-.7-9.46-1.23-14-.89-7.63-2-17.12-2.43-38.34a3.21,3.21,0,0,1,6.41-.13c.43,20.91,1.47,29.85,2.39,37.73.54,4.66,1,8.69,1.26,14.41a175.92,175.92,0,0,1-8.9,72.54A3.23,3.23,0,0,1,1606.8,604.33Z" fill="#2e2020"/><path d="M1463.71,700.79a3.22,3.22,0,0,1-1-.15c-38.71-12.21-80.39-35.93-89.2-50.76a3.21,3.21,0,0,1,5.51-3.28c7.22,12.16,45.37,35.23,85.62,47.93a3.2,3.2,0,0,1-1,6.26Z" fill="#2e2020"/><path d="M1421.49,1574.41l-7.51,0c-3.51,0-6.54,0-8.81,0h0a3.21,3.21,0,0,1,0-6.41c2.32,0,5.38,0,8.91,0,19.82.08,61.08.23,76.54-7.49,1.78-.89,3.25-3.54,4.24-7.65,6.4-26.53-10.2-100.17-21.17-115.09-6.23-8.46-23.31-4.45-41.41-.2-16.16,3.79-32.88,7.71-47,4.69a3.2,3.2,0,1,1,1.33-6.27c12.76,2.72,28.77-1,44.24-4.67,20.21-4.74,39.3-9.21,48,2.66,5.88,8,13,29.79,18.21,55.54,2.69,13.37,8.47,46.45,4,64.85-1.47,6.09-4,10.09-7.61,11.88C1478.36,1573.74,1444.19,1574.41,1421.49,1574.41Z" fill="#2e2020"/><path d="M1554.17,1023.87l-.43,0a3.2,3.2,0,0,1-2.75-3.6c2-14.54-3.19-36-8.18-56.79-6.83-28.38-13.27-55.2-1.84-65.75,7.77-7.17,29.84-17.57,54.93-25.87,13.37-4.43,46.5-14.37,65.24-11.14,6.24,1.07,10.43,3.57,12.46,7.43,11,21,25.4,76,20.74,95.49a3.21,3.21,0,0,1-6.24-1.5c3.94-16.39-9-69.82-20.18-91-1.31-2.5-5-3.61-7.87-4.1-12-2.07-35.24,2-62.14,10.9-23.92,7.92-45.55,18-52.59,24.5-8.66,8-2.37,34.21,3.72,59.55,5.13,21.34,10.43,43.41,8.31,59.13A3.22,3.22,0,0,1,1554.17,1023.87Z" fill="#2e2020"/><path d="M1719.83,1616.8c-1.06,0-2.12,0-3.19,0-15.8-.56-31.73-5.28-47.33-14-79.07-44.34-115.86-254.81-124.26-359.9-8.25-103-9.47-198.43-9.48-199.38a3.17,3.17,0,0,1,.58-1.88l.48-.69c15.21-21.73,25.25-36.09,56.49-51a456.88,456.88,0,0,1,61.34-23.52c36.56-10.75,44.43-5.71,47.17-1,6,10.31,26.18,111.44,50,232.61,4.22,21.48,8.22,41.76,11.42,57.8,3.78,18.87,7.87,37.13,11.83,54.79,13.83,61.62,25.77,114.84,15.91,157.55a3.2,3.2,0,1,1-6.24-1.44c9.52-41.29-2.27-93.85-15.92-154.71-4-17.7-8.08-36-11.86-54.94-3.21-16-7.2-36.33-11.43-57.82-17.27-87.77-43.36-220.41-49.28-230.63-.4-.67-4.87-6.36-39.81,3.92a450.13,450.13,0,0,0-60.39,23.15c-29.64,14.12-38.81,27.15-53.88,48.7.15,10.59,1.67,100.86,9.44,197.92,2,24.71,10.36,112.23,35.26,200.8,23.12,82.27,52.77,135.52,85.74,154,29.44,16.51,59.25,17.71,86.22,3.48,44-23.21,73.44-83.52,80.74-165.44,10-112.62-5.42-285.52-13.73-378.41-2.51-28-4.48-50.17-5-62-2.55-57-17.83-131-45.36-158.55-29.15-29.24-117.7-39.95-118.59-40a3.21,3.21,0,1,1,.75-6.37c3.73.44,91.67,11.09,122.38,41.9,33,33.09,45.22,117.89,47.23,162.78.52,11.71,2.5,33.79,5,61.74,8.32,93.09,23.81,266.36,13.72,379.55-7.49,84.13-38.16,146.29-84.12,170.54A88.76,88.76,0,0,1,1719.83,1616.8Z" fill="#2e2020"/><path d="M1474.9,1437.85a3.2,3.2,0,0,1-1.29-6.14c9.79-4.29,59.58-54.68,78.33-73.65,3.74-3.78,6.68-6.76,8.41-8.47a3.2,3.2,0,1,1,4.51,4.55c-1.7,1.68-4.64,4.66-8.36,8.43-34.32,34.73-70.7,70.8-80.32,75A3.1,3.1,0,0,1,1474.9,1437.85Z" fill="#2e2020"/><path d="M1501.58,1559.68a17.47,17.47,0,0,1-2.49-.16,3.21,3.21,0,0,1,.89-6.35c17.49,2.45,88.39-31.08,101.17-47.83a3.21,3.21,0,0,1,5.1,3.89C1592.5,1527.25,1524.35,1559.68,1501.58,1559.68Z" fill="#2e2020"/><path d="M1471,942.67a3.28,3.28,0,0,1-1.25-.25,3.21,3.21,0,0,1-1.7-4.21c.29-.67,29.45-68.23,53.94-83.16a3.2,3.2,0,1,1,3.33,5.47c-19.11,11.65-44.11,63.1-51.37,80.2A3.19,3.19,0,0,1,1471,942.67Z" fill="#2e2020"/><path d="M1480,1429h-.23a3.2,3.2,0,0,1-3-3.41c3-42.87,3.5-158.73-1.44-215.14-4.91-56.14-10.84-154.47-8.66-197.34a3.2,3.2,0,0,1,6.4.33c-2.16,42.56,3.76,140.5,8.65,196.45,5,56.68,4.42,173.08,1.45,216.14A3.21,3.21,0,0,1,1480,1429Z" fill="#2e2020"/><path d="M598.05,1570l529.49-442.67L1286.23,1159l428.12-340.66,179.32,29.95,154.72-162.94-42.17-40.62,196.92-80.85L2151.3,769.32,2098.63,724,1931.44,934.55l-173-27.39-392.56,363.45-177.77-29.9L830.17,1571.42Z" fill="#3dd8ac"/><path d="M834.47,1570.56l29.36,1,331.84-306.3,179.82,28.15L1766.36,928.8,1937.45,960l161.82-208.39,42.31,33.81,10.79-17.94L2098,726.09,1929.35,936.52l-168-27.11-390.59,357.66-180.2-26.86Z" fill="#2ebc90"/><path d="M2006,647.43l-2.73,25.47,32,24,12.14-12.09Z" fill="#749775"/><path d="M597,1574.55a3.2,3.2,0,0,1-2.06-5.66l531.17-445.12a3.18,3.18,0,0,1,2.7-.68L1287,1155.37l427.85-339.53a3.22,3.22,0,0,1,2.52-.65l173,29.23,153.14-159a3.21,3.21,0,0,1,4.62,4.45L1893.85,850.09a3.2,3.2,0,0,1-2.84.94l-173.28-29.28-427.9,339.56a3.23,3.23,0,0,1-2.63.64l-158.13-32.27-530,444.12A3.21,3.21,0,0,1,597,1574.55Z" fill="#2e2020"/><path d="M832,1573.23a3.21,3.21,0,0,1-2.18-5.56L1187.77,1237a3.23,3.23,0,0,1,2.7-.81l176.41,29.22L1759,904.86a3.18,3.18,0,0,1,2.7-.8l165.46,27.84,170.06-212.77a3.21,3.21,0,1,1,5,4L1931,937.38a3.22,3.22,0,0,1-3,1.16l-165.76-27.9-392.14,360.5a3.21,3.21,0,0,1-2.69.81L1191,1242.73,834.2,1572.38A3.16,3.16,0,0,1,832,1573.23Z" fill="#2e2020"/><path d="M2150.6,772.18a3.17,3.17,0,0,1-2.07-.76l-50.77-43.1a3.21,3.21,0,1,1,4.15-4.89l46.89,39.81,51.84-196.69-190.85,79,40.27,37.69a3.2,3.2,0,1,1-4.38,4.68l-43.91-41.09a3.21,3.21,0,0,1,1-5.3l201.42-83.39a3.21,3.21,0,0,1,4.33,3.78L2153.7,769.79a3.2,3.2,0,0,1-2.14,2.24A3.15,3.15,0,0,1,2150.6,772.18Z" fill="#2e2020"/><path d="M864.15,1574.12a3.21,3.21,0,0,1-2.19-5.55l331.31-308.29a3.26,3.26,0,0,1,2.7-.82l176.45,28.63L1764,924.55a3.22,3.22,0,0,1,2.77-.8l169.33,31.61,161.16-208.5-1.37-20.43a3.2,3.2,0,1,1,6.39-.43l1.46,21.64a3.25,3.25,0,0,1-.66,2.17l-163.1,211a3.22,3.22,0,0,1-3.13,1.19l-169.67-31.67-391.59,363.51a3.2,3.2,0,0,1-2.69.81L1196.49,1266,866.33,1573.26A3.17,3.17,0,0,1,864.15,1574.12Z" fill="#2e2020"/><path d="M2142,785.19a3.19,3.19,0,0,1-2-.71l-41.47-33.57a3.21,3.21,0,0,1,4-5l38.63,31.27,6.21-10.1a3.21,3.21,0,1,1,5.46,3.36l-8.12,13.21a3.14,3.14,0,0,1-2.73,1.52Z" fill="#2e2020"/><path d="M2033.2,700.72a3.2,3.2,0,0,1-2.08-.77l-27.95-23.85a3.21,3.21,0,0,1-1.12-2.27l-1.44-27.73a3.2,3.2,0,0,1,6.4-.34l1.37,26.36,26.91,23a3.21,3.21,0,0,1-2.09,5.64Z" fill="#2e2020"/></svg>