<svg xmlns="http://www.w3.org/2000/svg" viewBox="0 0 2745 1830"><rect x="0.02" y="0.05" width="2744.95" height="1829.89" fill="#7d38ce"/><path d="M2481.84,950.18l-43.19-4.26-117-11.55L2148,917.24l-211.1-20.83L1705.73,873.6l-234.16-23.11L1254,829l-184.48-18.2-132.17-13c-20.85-2.06-41.75-4.72-62.66-6.19-.9-.06-1.81-.18-2.71-.26-2.46-.25-4.57,2.29-4.57,4.57V841c0,1.79,1.41,4.14,3.36,4.41l42.94,6,116.87,16.42L1202.73,892l210.72,29.62,230.81,32.43,232.17,32.63,216.5,30.42,183.61,25.81,132,18.54q31.14,4.38,62.3,8.76l2.69.38c5.76.81,8.25-8,2.43-8.82l-42.94-6-116.86-16.42L2144,1015.12l-210.72-29.61-230.81-32.44-232.16-32.62L1253.77,890l-183.61-25.8-132-18.55-40.91-5.75c-7-1-14.32-2.71-21.4-3-.89,0-1.8-.26-2.69-.38l3.36,4.41V795.9L872,800.48l43.2,4.26,117,11.55,173.62,17.13,211.1,20.83,231.18,22.81,234.15,23.1,217.59,21.48,184.47,18.2,132.17,13c20.86,2.06,41.76,4.72,62.66,6.18.91.07,1.81.18,2.71.27,5.86.58,5.82-8.58,0-9.15Z" fill="#a273e5"/><path d="M1291,777.41l79-.9c17.44-.2,35-1.09,52.45-.3l182.41,8.31,64.17,2.92v-9.15l-138,2.1-218.18,3.33-49.92.76c-6,.09-5.82,8.7,0,9.15l33.12,2.56,90.16,7,133.35,10.32,162.68,12.6,178.17,13.8,179.83,13.93,167.09,12.94,141.69,11,101.6,7.87c16.1,1.25,32.24,2.94,48.37,3.75.7,0,1.4.1,2.09.16,5.87.45,5.85-8.7,0-9.15l-33.13-2.57-90.16-7-133.34-10.33-162.68-12.6-178.17-13.8-179.83-13.92-167.09-12.94-141.7-11-101.59-7.86c-15.93-1.24-32.38-3.83-48.37-3.75-.69,0-1.4-.11-2.09-.16v9.15l138-2.11,218.19-3.32,49.93-.76c5.9-.09,5.86-8.89,0-9.15l-158.83-7.23c-42.57-1.94-84.88-4.32-127.48-3.84l-91.72,1c-5.89.06-5.9,9.21,0,9.15Z" fill="#a273e5"/><path d="M872,800.48l40.25-2.22,97.06-5.34,117.06-6.45,101.47-5.59c16.33-.9,32.74-1.43,49-2.7l.68,0c5.85-.33,5.89-9.48,0-9.15l-40.25,2.21-97.06,5.35L1023.18,783,921.7,788.59c-16.33.9-32.74,1.44-49.05,2.7l-.68,0c-5.85.32-5.89,9.47,0,9.15Z" fill="#a273e5"/><path d="M985.42,857.55v276.81c0,12.71-.54,25.54,0,38.24,0,.18,0,.36,0,.54,0,5.89,9.15,5.9,9.15,0V896.33c0-12.71.53-25.54,0-38.24,0-.18,0-.36,0-.54,0-5.89-9.15-5.9-9.15,0Z" fill="#a273e5"/><path d="M1455.39,924.72v273.11c0,23.67-.55,47.41,0,71.08,0,.39,0,.79,0,1.18,0,5.89,9.15,5.9,9.15,0V994.14c0-22.67.44-45.39,0-68,0-.46,0-.91,0-1.37,0-5.88-9.15-5.9-9.15,0Z" fill="#afc6be"/><path d="M1352.88,746.67c-10.4.1-20.84.87-31.23,1.33l-48.27,2.14-11,.49,4.41,3.35-18.7-71.32-2.64-10.08-4.41,5.79,81.89-.69,11.76-.1-4.41-3.36q8,34.28,15.92,68.54c.75,3.24,1.51,6.47,2.26,9.7,1.33,5.74,10.15,3.31,8.82-2.43q-8-34.26-15.92-68.53c-.75-3.24-1.5-6.47-2.26-9.71a4.64,4.64,0,0,0-4.41-3.36l-81.89.69-11.76.1a4.62,4.62,0,0,0-4.41,5.79q9.34,35.67,18.7,71.33l2.64,10.08a4.65,4.65,0,0,0,4.41,3.36q39.24-1.75,78.48-3.47c4-.17,8-.45,12-.49C1358.76,755.77,1358.78,746.62,1352.88,746.67Z" fill="#a273e5"/><path d="M1285.87,754.41v37.93c0,5.89,9.15,5.9,9.15,0V754.41c0-5.89-9.15-5.9-9.15,0Z" fill="#a273e5"/><path d="M1273.36,754.67V790.5c0,5.89,9.15,5.9,9.15,0V754.67c0-5.88-9.15-5.89-9.15,0Z" fill="#a273e5"/><path d="M2542.91,607.18l-40.09-2.28-96.25-5.48-116-6.6-100.28-5.71-33.17-1.89c-5.13-.29-10.6-1.18-15.74-.89-.22,0-.46,0-.69,0l4.58,4.57q-.14-7.12-.26-14.25l-4.58,4.58,40.12,2.21,96.31,5.29,116.07,6.38,100.35,5.52,33.2,1.82c5.22.29,10.51.85,15.75.87l.68,0c5.88.33,5.86-8.82,0-9.15l-40.12-2.2-96.31-5.3-116.07-6.38-100.35-5.51-33.2-1.83c-5.22-.28-10.51-.85-15.75-.86-.22,0-.45,0-.68,0a4.61,4.61,0,0,0-4.57,4.57q.12,7.13.26,14.25a4.68,4.68,0,0,0,4.57,4.58l40.1,2.28L2277,601.2l116,6.6,100.28,5.71,33.18,1.88c5.22.3,10.51.88,15.74.9.22,0,.45,0,.68,0,5.88.33,5.86-8.82,0-9.15Z" fill="#a273e5"/><path d="M2155.6,361.51l38.32,1.55,92,3.73,110.47,4.47,96.17,3.89c15.49.63,31.19,2.07,46.7,1.89l.64,0c5.89.23,5.88-8.92,0-9.15l-38.33-1.55-92-3.73-110.47-4.47-96.18-3.89c-15.48-.63-31.18-2.07-46.69-1.89l-.64,0c-5.89-.24-5.88,8.92,0,9.15Z" fill="#a273e5"/><path d="M2545.09,383.82,2506,382.28l-93.56-3.68-113.13-4.45-98.11-3.86c-15.76-.62-31.71-2-47.48-1.86-.22,0-.44,0-.66,0-5.89-.23-5.88,8.92,0,9.15l39.13,1.54,93.56,3.68,113.14,4.45,98.1,3.86c15.76.62,31.71,2,47.48,1.87.22,0,.44,0,.67,0,5.88.23,5.87-8.92,0-9.15Z" fill="#a273e5"/><path d="M2557.44,199.52c-5-.6-10.13-.5-15.15-.62-10.6-.25-21.22-.4-31.82-.53q-48.1-.59-96.19-.79-56.7-.33-113.4-.5-48.16-.17-96.32-.27-15.79,0-31.61-.06c-4.8,0-10-.63-14.83,0a4.7,4.7,0,0,1-.65,0l4.58,4.58V187.07l-4.58,4.57,39.8.38,95.16.9,115.45,1.1,99.45.94c16.07.15,32.3,1,48.37.46.23,0,.46,0,.69,0,5.89,0,5.9-9.1,0-9.15l-39.79-.38-95.16-.9L2306,183.9l-99.45-.94c-16.07-.15-32.3-1-48.37-.46-.23,0-.46,0-.69,0a4.64,4.64,0,0,0-4.57,4.58V201.3a4.63,4.63,0,0,0,4.57,4.57l38.27.07q45.87.09,91.74.24,56.57.18,113.13.47,50.14.27,100.28.76c18.16.2,36.47-.09,54.61,1.1.65,0,1.3.08,1.94.16,5.84.7,5.79-8.46,0-9.15Z" fill="#a273e5"/><path d="M1822.06,40.8q-.49,8.07-1,16.14-1.32,21.84-2.63,43.69-2,32.43-3.92,64.87-2.38,39.41-4.75,78.81-2.62,43.35-5.24,86.7l-5.25,87.15q-2.47,40.8-4.93,81.61l-4.14,68.69-3,49.62c-.47,7.8-1.24,15.65-1.42,23.46,0,.34,0,.67,0,1-.16,2.55,2.22,4.46,4.57,4.57l32.85,1.58,78.88,3.79,95,4.57,82.47,4c13.26.64,26.74,2,40,1.92l.59,0c2.55.12,4.46-2.2,4.57-4.57q.4-8.4.79-16.78,1.08-22.71,2.15-45.41l3.18-67.43q1.93-41,3.86-81.92l4.26-90.11q2.13-45.28,4.27-90.58,2-42.41,4-84.82,1.68-35.68,3.37-71.38L2153,58.41c.38-8.1,1-16.23,1.15-24.33,0-.36,0-.71,0-1.06.28-5.89-8.87-5.88-9.15,0q-.39,8.38-.79,16.77-1.08,22.71-2.15,45.42L2139,162.63q-1.92,41-3.86,81.93-2.13,45-4.25,90.1-2.15,45.3-4.28,90.59-2,42.4-4,84.81-1.68,35.69-3.37,71.38L2116.76,633c-.38,8-1.41,16.3-1.15,24.33,0,.35,0,.71-.05,1.06l4.58-4.58-32.85-1.58-78.88-3.79-95-4.56-82.47-4-27.18-1.3c-4.15-.2-8.69-1-12.84-.62a5.83,5.83,0,0,1-.59,0l4.57,4.58q.49-8.09,1-16.15l2.64-43.68q2-32.44,3.91-64.88,2.37-39.41,4.76-78.81,2.61-43.35,5.23-86.7,2.63-43.57,5.26-87.15l4.92-81.61q2.07-34.34,4.15-68.69,1.48-24.81,3-49.61c.47-7.81,1.24-15.66,1.42-23.47,0-.33,0-.66.06-1,.35-5.88-8.8-5.86-9.15,0Z" fill="#a273e5"/><path d="M2160.06,33q-.39,8.38-.77,16.77-1,22.71-2.06,45.42-1.52,33.71-3.05,67.42l-3.72,81.93-4.08,90.1-4.11,90.59-3.84,84.81-3.24,71.38L2132.85,633c-.36,8-1.38,16.3-1.1,24.33,0,.35,0,.71-.05,1.06l4.58-4.58h-16.14c-5.89,0-5.9,9.15,0,9.15h16.14a4.66,4.66,0,0,0,4.57-4.57q.39-8.4.76-16.78,1-22.71,2.06-45.41l3.06-67.43q1.86-41,3.71-81.92,2-45.06,4.09-90.11,2.05-45.28,4.1-90.58,1.93-42.41,3.85-84.82l3.24-71.38q1.16-25.77,2.33-51.55c.37-8.1,1-16.23,1.11-24.33,0-.36,0-.71.05-1.06.26-5.89-8.89-5.88-9.15,0Z" fill="#a273e5"/><path d="M1564.46,938.16V1236c0,13.77-.57,27.68,0,41.44v.57c0,5.89,9.15,5.9,9.15,0V980.17c0-13.77.56-27.68,0-41.44,0-.19,0-.38,0-.57,0-5.89-9.15-5.9-9.15,0Z" fill="#afc6be"/><path d="M2258,579.42c.58-11.09.71-22.2.33-33.3-.34-10,0-21.09-2.94-30.71a22.6,22.6,0,0,0-6.79-10.88c-3.28-2.78-7.39-4.38-10.66-7.14-6.78-5.73-5.68-16-4.85-23.85.27-2.57-2.32-4.42-4.57-4.57l-18.14-1.21c-2.29-.15-4.82,2.23-4.58,4.58.74,7.07,2.27,17.8-4.41,22.64-3.42,2.47-7.66,3.49-11,6a20,20,0,0,0-6.85,10.19c-2.91,9.19-2.57,20.07-2.91,29.62-.42,11.35-.29,22.72.31,34.07.3,5.86,9.45,5.89,9.14,0-.58-11.11-.71-22.22-.33-33.34q.3-8.48,1-16.94c.35-4.31.48-9.09,2.46-13s6-5.11,9.55-6.86a21.63,21.63,0,0,0,9-7.61c4.63-7.26,4.08-16.61,3.23-24.79l-4.57,4.57,18.14,1.21c-1.53-1.53-3-3.06-4.58-4.58-.87,8.25-1.2,17.18,3,24.66,2.19,3.92,5.54,6.72,9.3,9.07s7.59,4.18,9.54,8.34,2.11,9,2.46,13.45c.43,5.43.75,10.88.95,16.32.41,11.35.28,22.7-.31,34-.31,5.88,8.84,5.86,9.15,0Z" fill="#a273e5"/><path d="M2518.52,186.8c.58-11.09.71-22.19.33-33.29-.34-10,0-21.1-2.94-30.72a22.52,22.52,0,0,0-6.79-10.87c-3.28-2.79-7.39-4.38-10.66-7.15-6.78-5.73-5.68-16-4.85-23.85.27-2.57-2.32-4.42-4.58-4.57l-18.13-1.2c-2.3-.16-4.82,2.22-4.58,4.57.53,5.08,1.13,10.51-.08,15.53s-4.19,7.33-8.66,9.44c-9.44,4.46-14.84,11-15.93,21.47-.6,5.85,8.55,5.81,9.15,0a14.25,14.25,0,0,1,6.46-11.09c4.06-2.61,8.8-3.74,12.32-7.24,7.32-7.29,6.87-18.62,5.89-28.11l-4.57,4.58L2489,85.5l-4.57-4.58c-.87,8.25-1.21,17.18,3,24.66,2.19,3.93,5.54,6.72,9.3,9.07s7.59,4.18,9.54,8.34,2.1,9,2.46,13.45q.64,8.15.94,16.33.61,17-.3,34c-.31,5.88,8.84,5.87,9.15,0Z" fill="#a273e5"/><path d="M2400.94,179c.58-11.09.71-22.2.33-33.29-.34-10-.06-21.1-2.94-30.72a22.52,22.52,0,0,0-6.79-10.87c-3.28-2.79-7.39-4.39-10.66-7.15-6.78-5.73-5.68-16-4.85-23.85.27-2.57-2.33-4.42-4.58-4.57l-18.13-1.2c-2.29-.16-4.82,2.22-4.58,4.57.53,5.08,1.13,10.51-.08,15.53s-4.19,7.33-8.66,9.44-8.58,4.36-11.27,8.7c-2.9,4.66-3.52,10.35-4,15.69-.55,5.86,8.61,5.82,9.15,0,.47-5.15,1.1-11,5.81-14,4.06-2.61,8.8-3.74,12.32-7.24,7.32-7.29,6.87-18.62,5.89-28.11l-4.57,4.58,18.13,1.2-4.57-4.58c-.87,8.25-1.21,17.18,3,24.66,2.18,3.93,5.54,6.72,9.3,9.07s7.59,4.18,9.54,8.34,2.1,9,2.46,13.45q.64,8.15.94,16.33c.41,11.34.29,22.69-.3,34-.31,5.88,8.84,5.87,9.15,0Z" fill="#a273e5"/><path d="M2265.22,186.24q.51-19.62,1-39.24.32-12,.62-24.07c.16-6.14-.42-14.34,4.3-18.85,2.61-2.49,6.49-3.44,9.57-5.21a19.93,19.93,0,0,0,8.08-8.39c3.5-7.08,3-15.37,2.23-23l-4.57,4.58,18.13,1.2L2300,68.69c-1.11,10.54-1.11,22.71,7.53,30.32,4.3,3.78,10.77,5.57,13.73,10.7s2.83,11.8,3.23,17.46c1.44,20.08.74,40.07-.14,60.14-.26,5.89,8.89,5.88,9.15,0,.88-20.07,1.58-40.06.14-60.14-.42-5.89-.6-12.13-2.56-17.75-2.06-5.92-5.92-9.87-11.18-13.1-4.69-2.88-8.83-5.41-10.4-11-1.5-5.36-.93-11.16-.35-16.62.27-2.58-2.32-4.43-4.58-4.58l-18.13-1.2c-2.3-.15-4.82,2.22-4.58,4.57.65,6.28,1.86,14.62-2,20.17s-12,6-16.35,11.22c-5.14,6.12-5.6,14.51-5.8,22.17q-.64,24.83-1.28,49.63-.19,7.79-.4,15.57c-.15,5.89,9,5.89,9.15,0Z" fill="#a273e5"/><path d="M2455.94,182.65c.46-8.88.57-17.78.27-26.66-.27-8.06-.11-16.9-2.28-24.73a19.78,19.78,0,0,0-4.89-8.76c-2.59-2.58-5.93-4-8.84-6.11-5.95-4.37-5-12.64-4.35-19.12.27-2.57-2.32-4.43-4.58-4.58l-14.62-1c-2.29-.15-4.82,2.23-4.58,4.58.43,4.14.95,8.6-.13,12.68-1.23,4.67-4.92,5.79-8.83,7.8-9.53,4.92-10.14,14.88-10.82,24.47-1.15,16.28-.22,32.52-.49,48.81-.09,5.89,9.06,5.89,9.15,0,.27-16.29-.66-32.53.49-48.81.3-4.26,0-10.43,2.76-14s8.08-4.18,11.39-7.07c6.71-5.9,6.47-15.75,5.63-23.87l-4.57,4.57,14.62,1-4.57-4.57c-.7,6.68-.92,13.83,2.3,20a20.64,20.64,0,0,0,7.09,7.41c3.08,2.06,6.68,3.44,8.3,7,1.44,3.15,1.6,6.82,1.87,10.22q.52,6.67.77,13.37c.34,9.14.23,18.28-.24,27.41-.31,5.88,8.84,5.87,9.15,0Z" fill="#a273e5"/><path d="M2432.64,582.58c.39-7.55.49-15.1.24-22.66-.23-7-.09-14.75-2-21.56a17.63,17.63,0,0,0-4.39-7.83c-2.19-2.17-5-3.38-7.44-5.16-5-3.61-4.2-10.53-3.63-16,.26-2.57-2.32-4.42-4.58-4.57l-12.53-.83c-2.3-.15-4.82,2.23-4.58,4.57.49,4.77,1.66,12-3.16,14.94-2.48,1.52-5.24,2.31-7.51,4.2a15.52,15.52,0,0,0-4.8,7.75c-1.88,6.48-1.72,13.92-2,20.61-.28,7.8-.18,15.6.22,23.39.3,5.86,9.45,5.89,9.15,0-.39-7.56-.49-15.12-.25-22.68q.2-5.65.63-11.28c.23-3,.16-6.83,1.79-9.48,1.48-2.37,4.54-3.08,6.88-4.36a15.37,15.37,0,0,0,6-5.77c3-5.2,2.71-11.56,2.12-17.32l-4.57,4.58,12.53.83-4.57-4.58c-.6,5.73-.75,11.77,1.87,17.06A17.74,17.74,0,0,0,2414,533c2.53,1.79,5.84,2.92,7.35,5.81,1.41,2.73,1.5,6.08,1.74,9.08q.45,5.67.65,11.36c.28,7.79.18,15.58-.22,23.37-.3,5.88,8.85,5.86,9.15,0Z" fill="#a273e5"/><path d="M2373.81,578.91q.17-21.82.32-43.66c.1-13.47,1.45-27.94-2.62-41-1.87-6-5.52-11.22-7.57-17.14a65.36,65.36,0,0,1-3-14.39,235.68,235.68,0,0,1-.76-31,4.67,4.67,0,0,0-4.58-4.58l-13.72-.9a4.6,4.6,0,0,0-4.57,4.57,236.46,236.46,0,0,1-.73,30.35,59,59,0,0,1-3,14.52c-2.1,5.58-5.72,10.41-7.58,16.12-4.13,12.63-2.75,26.84-2.66,39.92l.3,44.45c0,5.88,9.19,5.89,9.15,0l-.3-43.7c-.08-13.14-2-28.37,3.27-40.77,2.23-5.21,5.51-9.83,7.21-15.28a77.43,77.43,0,0,0,2.72-14.72,232.43,232.43,0,0,0,.79-30.89l-4.58,4.58,13.72.9-4.57-4.57a237.9,237.9,0,0,0,.71,30.44,84.42,84.42,0,0,0,2.77,15.61c1.71,5.72,5,10.7,7.2,16.21,5,12.58,3.33,27.27,3.24,40.5l-.33,44.41c0,5.89,9.11,5.9,9.15,0Z" fill="#a273e5"/><path d="M2333.48,488.58c-2.2-5.23-5.32-10.12-7-15.57a73.17,73.17,0,0,1-2.58-14.32,246.5,246.5,0,0,1-.61-29.4,4.67,4.67,0,0,0-4.57-4.58l-13.73-.9a4.62,4.62,0,0,0-4.57,4.58,248.33,248.33,0,0,1-.58,28.87,72.4,72.4,0,0,1-2.32,13.32c-1.49,5.24-4.62,9.68-6.82,14.62-1,2.28-.65,4.9,1.64,6.26,1.94,1.17,5.25.62,6.26-1.64,2.36-5.31,5.67-10.14,7.43-15.73a77.4,77.4,0,0,0,2.78-15,235.93,235.93,0,0,0,.76-30.66L2305,433l13.73.9-4.58-4.57a239.5,239.5,0,0,0,.7,30.31,86.71,86.71,0,0,0,2.6,15.1c1.64,5.79,4.86,10.81,7.17,16.31,1,2.3,3,3.89,5.63,3.2,2.16-.57,4.15-3.35,3.2-5.63Z" fill="#a273e5"/><path d="M2299.46,574q.16-21.83.32-43.66c.1-13.47,1.45-27.94-2.62-41-1.88-6-5.52-11.22-7.57-17.13a64.79,64.79,0,0,1-3-14.39,237.47,237.47,0,0,1-.77-31,4.66,4.66,0,0,0-4.57-4.58l-13.72-.9a4.6,4.6,0,0,0-4.58,4.57,234.7,234.7,0,0,1-.72,30.35,59,59,0,0,1-3,14.51c-2.09,5.58-5.71,10.41-7.58,16.13-4.12,12.63-2.74,26.84-2.65,39.91q.15,22.23.29,44.45c0,5.89,9.19,5.9,9.15,0q-.15-21.84-.29-43.69c-.09-13.14-2-28.37,3.27-40.77,2.22-5.21,5.51-9.83,7.2-15.29a77.2,77.2,0,0,0,2.73-14.71,232.47,232.47,0,0,0,.78-30.89l-4.57,4.58,13.72.9-4.58-4.57a239.74,239.74,0,0,0,.71,30.44,85,85,0,0,0,2.78,15.6c1.71,5.72,5,10.71,7.19,16.22,5,12.58,3.34,27.27,3.25,40.5l-.33,44.41c0,5.89,9.1,5.89,9.15,0Z" fill="#a273e5"/><path d="M2333.3,358.14c.36-6.87.45-13.73.22-20.6-.21-6.42-.08-13.49-1.82-19.72a16.47,16.47,0,0,0-4.1-7.3c-2-2-4.59-3.12-6.86-4.76-4.41-3.19-3.58-9.4-3.09-14.16.27-2.58-2.32-4.43-4.58-4.58l-11.39-.75c-2.3-.16-4.82,2.22-4.58,4.57.43,4.17,1.53,10.61-2.67,13.22-2.27,1.42-4.82,2.14-6.91,3.89a14.57,14.57,0,0,0-4.47,7.23c-1.72,5.93-1.58,12.73-1.8,18.85-.26,7.09-.17,14.19.2,21.27.3,5.86,9.45,5.9,9.15,0-.36-6.87-.45-13.75-.22-20.63q.16-5.13.56-10.25c.21-2.64.13-6.08,1.58-8.41,1.29-2.07,4.06-2.69,6.1-3.82a14.36,14.36,0,0,0,5.65-5.39c2.76-4.8,2.52-10.65,2-16l-4.57,4.58,11.39.75-4.57-4.57c-.55,5.28-.66,10.84,1.77,15.72a16.45,16.45,0,0,0,5.43,6.05c2.23,1.58,5.22,2.59,6.53,5.14s1.32,5.39,1.53,8.05q.4,5.16.59,10.33c.25,7.08.17,14.17-.2,21.25-.3,5.88,8.85,5.87,9.15,0Z" fill="#a273e5"/><path d="M2476.25,589c.35-6.86.44-13.73.22-20.6-.22-6.41-.09-13.49-1.83-19.72a16.37,16.37,0,0,0-4.1-7.3c-2-2-4.59-3.12-6.85-4.76-4.42-3.19-3.59-9.4-3.1-14.16.27-2.58-2.32-4.43-4.57-4.58l-11.4-.75c-2.29-.15-4.82,2.23-4.58,4.57.43,4.18,1.53,10.61-2.66,13.23-2.28,1.42-4.83,2.13-6.92,3.89A14.5,14.5,0,0,0,2426,546c-1.72,5.93-1.58,12.73-1.8,18.86-.25,7.09-.17,14.18.2,21.26.3,5.86,9.45,5.9,9.15,0-.35-6.87-.45-13.75-.22-20.62q.16-5.15.56-10.26c.21-2.64.13-6.08,1.58-8.4,1.29-2.08,4.06-2.7,6.11-3.82a14.49,14.49,0,0,0,5.64-5.4c2.76-4.8,2.53-10.64,2-16l-4.57,4.58,11.4.75-4.58-4.57c-.55,5.29-.66,10.84,1.77,15.72a16.57,16.57,0,0,0,5.43,6.06c2.23,1.57,5.22,2.58,6.53,5.13s1.32,5.39,1.53,8c.27,3.44.47,6.89.59,10.33.26,7.09.17,14.17-.19,21.25-.31,5.88,8.84,5.87,9.15,0Z" fill="#a273e5"/><path d="M2279.81,354.8q.14-20.06.29-40.13c.09-12.07,1.24-24.95-2.31-36.66-1.64-5.39-4.79-10.06-6.76-15.29a53.84,53.84,0,0,1-2.82-12.92,207.06,207.06,0,0,1-.76-28.83,4.68,4.68,0,0,0-4.58-4.58l-12.48-.82a4.61,4.61,0,0,0-4.57,4.58c.23,9.56.33,19.21-.79,28.72a48,48,0,0,1-2.82,12.53c-2.1,5.14-5.37,9.62-7,15-3.38,11.41-2.22,24-2.14,35.75l.27,40.17c0,5.88,9.19,5.89,9.15,0l-.27-40.17c-.08-11.56-1.72-24.82,2.65-35.81,1.95-4.89,5.09-9.16,6.73-14.2a68,68,0,0,0,2.55-13.28,207,207,0,0,0,.79-28.72l-4.58,4.57,12.48.82L2258.3,221a208.61,208.61,0,0,0,.76,28.83,73.69,73.69,0,0,0,2.55,13.59c1.58,5.07,4.52,9.51,6.45,14.42,4.51,11.44,3,24.83,2.89,36.86q-.15,20.07-.29,40.13c0,5.89,9.1,5.9,9.15,0Z" fill="#a273e5"/><path d="M2430.82,364.82q.15-20.07.29-40.13c.09-12.07,1.25-24.95-2.31-36.66-1.64-5.4-4.79-10.06-6.76-15.29a53.84,53.84,0,0,1-2.82-12.92,207.06,207.06,0,0,1-.76-28.83,4.68,4.68,0,0,0-4.58-4.58l-12.48-.82a4.61,4.61,0,0,0-4.57,4.57c.23,9.57.33,19.21-.78,28.73a48.46,48.46,0,0,1-2.83,12.53c-2.09,5.14-5.37,9.62-7,15-3.38,11.41-2.22,24-2.14,35.75l.27,40.16c0,5.89,9.19,5.9,9.15,0l-.27-40.16c-.08-11.56-1.72-24.82,2.65-35.81,2-4.89,5.09-9.17,6.73-14.2a68.8,68.8,0,0,0,2.56-13.28,208.7,208.7,0,0,0,.78-28.73l-4.58,4.58,12.48.82-4.57-4.57a208.61,208.61,0,0,0,.76,28.83,73.69,73.69,0,0,0,2.55,13.59c1.58,5.07,4.52,9.51,6.45,14.42,4.52,11.44,3,24.83,2.89,36.86q-.15,20.07-.29,40.13c-.05,5.89,9.1,5.9,9.15,0Z" fill="#a273e5"/><path d="M2389.32,362.07q.15-20.07.29-40.13c.09-12.07,1.25-24.95-2.31-36.67-1.64-5.39-4.79-10-6.76-15.28a53.92,53.92,0,0,1-2.82-12.93,207,207,0,0,1-.76-28.83,4.67,4.67,0,0,0-4.58-4.57l-12.48-.82a4.61,4.61,0,0,0-4.57,4.57c.23,9.56.33,19.21-.78,28.73a48.3,48.3,0,0,1-2.83,12.52c-2.09,5.15-5.37,9.63-7,15-3.38,11.42-2.22,24-2.14,35.75l.27,40.17c0,5.89,9.19,5.9,9.15,0l-.27-40.17c-.08-11.55-1.72-24.82,2.65-35.8,2-4.89,5.09-9.17,6.73-14.21a68.7,68.7,0,0,0,2.56-13.27c1.1-9.53,1-19.16.78-28.73L2359.9,232l12.48.82-4.57-4.58a208.57,208.57,0,0,0,.76,28.83,73.79,73.79,0,0,0,2.55,13.6c1.58,5.07,4.52,9.5,6.45,14.41,4.52,11.45,3,24.84,2.89,36.87q-.15,20.06-.29,40.13c0,5.89,9.11,5.89,9.15,0Z" fill="#a273e5"/><path d="M2243.11,272.55c-2-4.76-4.84-9.2-6.33-14.16a66.35,66.35,0,0,1-2.33-12.91,225.06,225.06,0,0,1-.55-26.74,4.66,4.66,0,0,0-4.58-4.57l-12.47-.82a4.61,4.61,0,0,0-4.58,4.57,223.41,223.41,0,0,1-.53,26.26,66,66,0,0,1-2.08,12c-1.36,4.73-4.19,8.74-6.17,13.2-1,2.26-.66,4.92,1.64,6.26,1.95,1.14,5.25.63,6.26-1.64,2.17-4.86,5.19-9.29,6.8-14.41a70.83,70.83,0,0,0,2.54-13.79,212.63,212.63,0,0,0,.69-27.88l-4.57,4.58,12.47.82-4.57-4.58a218.48,218.48,0,0,0,.63,27.56,81,81,0,0,0,2.38,13.85c1.5,5.27,4.43,9.83,6.53,14.83.95,2.28,3,3.91,5.63,3.2,2.14-.59,4.16-3.34,3.19-5.63Z" fill="#a273e5"/><path d="M2212.19,350.32l.3-40.13c.09-12.07,1.24-24.95-2.32-36.67-1.63-5.39-4.78-10-6.76-15.28a54,54,0,0,1-2.81-12.93,207,207,0,0,1-.77-28.83,4.66,4.66,0,0,0-4.57-4.57l-12.49-.82a4.6,4.6,0,0,0-4.57,4.57c.24,9.56.34,19.21-.78,28.73a48.28,48.28,0,0,1-2.82,12.52c-2.1,5.15-5.38,9.62-7,15-3.37,11.41-2.21,24-2.14,35.75l.27,40.17c0,5.89,9.19,5.9,9.15,0q-.14-20.08-.26-40.17c-.08-11.55-1.73-24.82,2.65-35.81,1.94-4.88,5.08-9.16,6.72-14.2a68.1,68.1,0,0,0,2.56-13.27,205.64,205.64,0,0,0,.78-28.73l-4.58,4.58,12.49.82-4.58-4.58a207,207,0,0,0,.77,28.83,73,73,0,0,0,2.55,13.6c1.57,5.07,4.51,9.5,6.45,14.41,4.51,11.45,3,24.83,2.89,36.87l-.3,40.13c0,5.89,9.11,5.89,9.15,0Z" fill="#a273e5"/><path d="M1839.62,84.89q-2.74,10.52-5.5,21h8.82c.21,1,0,0,0-.29,0,.49-.18.49,0,.1s.17-.48,0-.16-.08.26.12-.14l.22-.31c-.29.37-.33.44-.1.21.38-.41-.61.42.09-.08s-.14,0-.35,0c-.38,0-.34,0,.11,0l-.48-.08c.9.49-.93-.52-.07,0l-.51-.36c.25.28.24.27,0,0s-.26-.32-.06,0c-.08-.2-.16-.39-.23-.58.13.32,0,.81.12.22s-.07,0,0,.24c.19.83.15-.93,0-.12s.34-.69.09-.24c-.12.2-.08.15.13-.16a1.77,1.77,0,0,1,.73-.65c-.69.44,1-.27.09-.08l2.43,8.83a23.69,23.69,0,0,0,15.42-15.54,4.62,4.62,0,0,0-3.2-5.62,4.68,4.68,0,0,0-5.63,3.19q-1.83,5.54-3.67,11.06c-1.63,4.9,5.94,8.1,8.36,3.52l3.77-7.11a8.33,8.33,0,0,0,1-1.86c-.21,1.26-3.21,1.48-4.12.44a8.73,8.73,0,0,0,3.7,2.25A9.64,9.64,0,0,0,1873,96.31a4.58,4.58,0,0,0-8.82-2.44c-.16.49-.14.45.06-.13-.27.43-.24.39.1-.1-1,.63.87-.44-.16.14-.46.24-.41.23.14,0a4.91,4.91,0,0,1-.51.15c-.34.07-.23.06.35,0a4,4,0,0,1-.69,0c.64.1.71.09.2,0l.45.21c-.41-.26-.4-.23,0,.1q-.31-.27-.63-.51a7,7,0,0,0-4.44-1.79c-3.41,0-5.08,2.65-6.48,5.31l-3.77,7.11,8.37,3.53q1.83-5.53,3.67-11.06L1852,94.32c-.11.35-.23.7-.35,1.05-.23.7.27-.55,0,.13s-.59,1.18-.92,1.75c-.19.32-.39.63-.59.93-.08.11-.66.89-.2.32a19.84,19.84,0,0,1-2.79,2.81c.37-.31.1-.07-.12.09s-.61.41-.92.6c-.56.35-1.15.65-1.74,1-.26.14-.57.25-.11.07-.41.16-.83.3-1.25.43a4.58,4.58,0,0,0,2.43,8.83c7-1.49,7.17-11.46,1.85-15-3.14-2.06-7.28-1.16-10,1.16a10.22,10.22,0,0,0-3.15,9.88c.93,4.5,7.72,4.21,8.82,0q2.76-10.53,5.51-21a4.58,4.58,0,1,0-8.83-2.43Z" fill="#a273e5"/><path d="M1871.26,106c3.45-.44,6.87-1.34,8.37-4.85,1.33-3.1.29-7.1-3-8.48-2.86-1.2-7.1,1.06-9.19,3.09A8.56,8.56,0,0,0,1865,104c1.51,5.42,7.91,8.72,13.26,7.26,5.73-1.57,8.85-7.12,11-12.19.81-1.91.84-4-.72-5.55a4.63,4.63,0,0,0-5.54-.71c-4.23,2.81-4.77,8-1.64,11.84a4.5,4.5,0,0,0,4.45,1.18c5.33-1.52,10.8-5.43,9-11.77-1.92-6.83-10.94-6.22-14.3-1-2.82,4.35-1.69,10.78,3.18,13.09s11.68-.47,12.56-6h-8.82c.55,2.27,1.11,4.55,1.66,6.82a4.61,4.61,0,0,0,6.72,2.73,31.5,31.5,0,0,0,15.37-25.47c.26-4.63-6.33-6.11-8.52-2.31a85.82,85.82,0,0,0-9.54,24.37,4.59,4.59,0,0,0,8.36,3.52,64.45,64.45,0,0,1,10.74-12,4.55,4.55,0,0,0,.36-6,4.66,4.66,0,0,0-5.9-1.18c-5.06,2.25-6.93,9.16-4,13.75,3.29,5.14,10.24,5.34,14.65,1.72,1.91-1.57,1.63-4.84,0-6.47-1.89-1.89-4.55-1.57-6.47,0,.48-.39-.9-.22-.43,0-.39-.14.24-.78.87-1.06l-5.55-7.19a74,74,0,0,0-12.17,13.91l8.36,3.52a78,78,0,0,1,8.62-22.19l-8.53-2.3a22,22,0,0,1-10.84,17.57l6.73,2.74c-.56-2.28-1.11-4.55-1.67-6.82-1-4.16-8.1-4.57-8.82,0-.19,1.21.32-.26.4,0,0,0-.46.35-.45.21,0,.48-.26-.37.16,0,.12.12.44.47.57.57.38.27-.46.31,0,.06a1.77,1.77,0,0,1,.08-.55c-.16.46,0,0,.06,0a14.18,14.18,0,0,1-1.69-.47c-.26-.22-.34-.73-.59-.94-.51-.42.43-.2-.43-.25a10.2,10.2,0,0,0-2.18.74l4.45,1.17a1.58,1.58,0,0,1-.21,2.53l-6.26-6.26a31.76,31.76,0,0,1-2.84,5.61c-.72,1-2.14,2.33-2.83,2.39-.53,0-2.23-.7-2-1a5.46,5.46,0,0,1,.17.79s2.11-1,2.17-1l-4.45-1.17c-1.1-.88.37-3.46.39-3.44s-.68.19-.77.2c-2.44.32-4.57,1.88-4.57,4.58,0,2.23,2.11,4.89,4.57,4.57Z" fill="#a273e5"/><path d="M1933.59,83.58q-3.51,9.42-6.13,19.15h8.83a26.93,26.93,0,0,0-7.35-14.08c-1.08,2.61-2.15,5.21-3.23,7.81l15-1.92a5,5,0,0,0,3.23-1.34,4.65,4.65,0,0,0,1.34-3.23c-.1-2.22-2-4.9-4.57-4.58l-15,1.92a4.7,4.7,0,0,0-4.18,2.82,4.59,4.59,0,0,0,.94,5c.37.38.72.76,1.06,1.15a7.15,7.15,0,0,0,.6.72c-.35-.31-.44-.57-.06,0a21.1,21.1,0,0,1,1.7,2.8c.12.23.24.47.35.7.29.62.25.26,0-.09a5.62,5.62,0,0,1,.54,1.47,22.48,22.48,0,0,1,.82,3.33,4.57,4.57,0,0,0,4.41,3.36,4.7,4.7,0,0,0,4.42-3.36q2.61-9.7,6.13-19.15c.84-2.24-.93-5.11-3.2-5.63a4.7,4.7,0,0,0-5.63,3.2Z" fill="#a273e5"/><path d="M1940.82,91.7,1937,104.1a4.58,4.58,0,0,0,8.83,2.44l3.78-12.41a4.63,4.63,0,0,0-3.2-5.63,4.67,4.67,0,0,0-5.63,3.2Z" fill="#a273e5"/><path d="M1949.53,100.88c0-.45-.35.54-.06.25s-.78.42-.85.45l6.89,4c.61-4.6,3.94-9,8.21-11.34L1957,91.46a13,13,0,0,1-.36,8.06l8.83,2.43a12.45,12.45,0,0,1,1.69-4.26c.11-.13.72-.91.45-.45-.36.11-.39.12-.08,0s.28-.1-.12-.06c.13,0,1.26,0,.72,0-.32,0-.24,0,.23.12l-.33-.11c-.48-.63-.64-1.11-.62-.19a6.68,6.68,0,0,0,1.85,4.38,8,8,0,0,0,6.34,2.25,23.39,23.39,0,0,0,11.13-4.25c3.69-2.55,6.5-6.2,6.35-10.88-.08-2.32-2-4.78-4.58-4.58-4,.32-8,1.75-10.69,4.91a12.18,12.18,0,0,0-2.48,11.57,10.17,10.17,0,0,0,8.45,7.09,9.83,9.83,0,0,0,9.88-4.81c2.83-5.17-5.07-9.79-7.9-4.62-.21.38-.11.38-.21.33-.23.22-.21.2,0-.05l.28-.09c-.1,0-1.2.4-.72.22s-.71-.11,0,0c-.11,0-1.15-.37-.74-.2.26.11.63.6-.08-.13a2.86,2.86,0,0,1-.44-1.24,3.59,3.59,0,0,1,.95-2.27,5.89,5.89,0,0,1,3.66-1.61l-4.57-4.57s0,1.27,0,.84-.33.66,0,.06a3,3,0,0,1-1,1.35,14.63,14.63,0,0,1-4.07,2.55c-.31.14-1.18.49-1.83.72-.39.13-.78.26-1.18.36-1.41.39.29,0-.52.12a4.33,4.33,0,0,1-.72,0h.31a1.57,1.57,0,0,1,1.24,1.22c.31.87.4.88.26.05a7.73,7.73,0,0,0-1-3.7c-2.08-3.74-7.15-4.86-11-3.41-4.62,1.76-6.56,6.41-7.83,10.84a4.58,4.58,0,0,0,8.83,2.43,21.73,21.73,0,0,0,.35-12.92,4.63,4.63,0,0,0-6.72-2.74,25.32,25.32,0,0,0-12.74,19.24,4.45,4.45,0,0,0,2.26,4,4.8,4.8,0,0,0,4.62,0,9.6,9.6,0,0,0,5.44-8.6c.23-5.89-8.92-5.88-9.15,0Z" fill="#a273e5"/><path d="M1846.66,322.05l-4,2.29a4.64,4.64,0,0,0-1.64,6.26c3.13,5.12,9.46,3.68,13-.24,4.33-4.81,7.06-11.62,9.09-17.67,1.71-5.09-5.65-7.75-8.36-3.53a50.36,50.36,0,0,0-7.44,19.49c-.5,3.21,1.23,5.37,4.41,5.79a25,25,0,0,0,20.92-7.42,4.64,4.64,0,0,0,0-6.47c-3.36-3.31-8.41-2.44-11.11,1.27-2.91,4-1.35,9.1,2.68,11.65,8.38,5.31,19.73-.18,23.2-8.62a4.47,4.47,0,0,0-1.18-4.45,7.35,7.35,0,0,0-7.88-1.95,4.67,4.67,0,0,0-3.2,5.62,17,17,0,0,0,8.93,11.11c-.54-2.09-1.09-4.17-1.64-6.26-.36.74-.65,1.45-1.46,1.76-5.39,2.07-3.3,10.62,2.43,8.83a34.63,34.63,0,0,0,20.51-17c1.7-3.24-.45-6.59-4-6.89-4.45-.37-8.11,3.57-8.23,7.91-.13,4.8,3.42,7.91,7,10.43l-2.26-3.95,3.68-2.19c-.36,2.78-.73,5.57-1.09,8.36a35,35,0,0,0,18.68-11c1.55-1.75,1.94-4.76,0-6.47-7.49-6.57-17.91,3.5-11.47,11.29a10.15,10.15,0,0,0,12.2,2.52c4.52-2.05,6.9-6.25,8.79-10.62l-8.37-3.52-3.84,9.41c-1.92,4.67,4.57,7,7.64,4.45a42.8,42.8,0,0,1,11.55-6.93l-5.63-3.19c-.63-2.66.94-2.05-.35-1.28a6.85,6.85,0,0,0-1.68,1.94,6.64,6.64,0,0,0-1.15,5.11c.87,4.32,5.57,5.51,9.31,4.48,8.54-2.35,15.1-10.28,17-18.73,1.1-5-5.63-8.11-8.36-3.52a169.85,169.85,0,0,0-9.77,19c-1.62,3.69,1,7.54,5.16,6.72a12.81,12.81,0,0,0,9.66-8.87c.52-1.78,1-4.67.17-6.39q-.28-2.52-1.14.56l1.47-.25c1.62.27,4.27-.72,5.9-1,5.79-1,3.34-9.8-2.43-8.82-4.62.78-11.62.66-13.15,6.23-1,3.68,2.73,8.59-2.91,9.71q2.58,3.38,5.17,6.73a169,169,0,0,1,9.77-19l-8.37-3.53c-1.31,6-4.66,8.86-9.53,12a8.42,8.42,0,0,1-1.45.46c.28,3.92,1.06,5.3,2.34,4.16.49-.18,1.14-1.14,1.46-1.51a7.08,7.08,0,0,0,1.74-6.61c-.52-2.22-3.38-4.09-5.62-3.2a56.24,56.24,0,0,0-15.59,9.28l7.65,4.45q1.92-4.71,3.85-9.41c1.94-4.76-6.31-8.28-8.36-3.53-.87,2-1.71,4.41-3.32,6a8.4,8.4,0,0,1-2.11,1.22l-.5-.12q-.63,2-2.16.84v-6.47a26.57,26.57,0,0,1-14.65,8.61c-3.78.84-4.51,6.57-1.09,8.37,4.77,2.49,9.65-.48,10.09-5.71a4.61,4.61,0,0,0-2.27-4,21.37,21.37,0,0,0-1.91-1.51,1.69,1.69,0,0,1-.53-.63c-.28-.67-.62-.39-1,.85l-4-6.88a25.33,25.33,0,0,1-15,12.76c.8,2.94,1.62,5.88,2.43,8.83a12,12,0,0,0,6.94-6c1-2.1.71-5.1-1.65-6.26a8.06,8.06,0,0,1-4.73-5.64l-3.19,5.63-1-.4-1.17-4.46c-.9,2.18-3.46,3.37-5.64,3.72a24.31,24.31,0,0,1-3.09-.07,2.35,2.35,0,0,1-.94-.42q.73,2.87-2.75,1.38v-6.47a16.42,16.42,0,0,1-14.45,4.74c1.48,1.93,2.94,3.86,4.41,5.79a43.82,43.82,0,0,1,6.52-17.3l-8.36-3.53a53.19,53.19,0,0,1-3.7,8.61c-.63,1.15-1.29,2.3-2,3.41-.42.67-.86,1.32-1.33,2-1.2.75-.65,1.33,1.67,1.75-.55,2.08-1.09,4.17-1.64,6.26l4-2.29c5.11-2.92.51-10.83-4.61-7.9Z" fill="#a273e5"/><path d="M1960.48,334.84a270.27,270.27,0,0,1,36.44-.75,4.58,4.58,0,0,0,0-9.15,270.27,270.27,0,0,0-36.44.75,4.71,4.71,0,0,0-4.58,4.58c0,2.3,2.1,4.79,4.58,4.57Z" fill="#a273e5"/><path d="M2004.39,105.45h12.53a4.58,4.58,0,0,0,0-9.15h-12.53a4.58,4.58,0,0,0,0,9.15Z" fill="#a273e5"/><path d="M1840.76,139.26l2.66-1.89c3.68-2.62,2.4-8.28-2.31-8.53-8.45-.45-11.8,10.94-4.47,15.16,7.7,4.45,14.47-3.41,13.13-10.9-1-5.3-8.73-3.68-9,1.22a6.65,6.65,0,0,0,2,5.17,9.75,9.75,0,0,0,2,1.54l.82.38q3.14,2,3.18-4.64c.4,3,.81,6,1.22,9a18.79,18.79,0,0,0,10.84-7.62l-7.9-4.62a29.11,29.11,0,0,0-4.31,14.08c-.28,5.1,7.93,6.29,9,1.21.42-2,.83-4,1.25-6,.18-.89.36-1.79.55-2.68q.16-.81.36-1.62l-4.43-3.53c-.93.42-1.12,3.64-1,4.3a5.6,5.6,0,0,0,2.42,4c5.55,3.77,14.66-1.6,18.47-5.66,1.79-1.92,1.91-6-.93-7.19-3.82-1.64-8.53-1.17-10.74,2.88a7.92,7.92,0,0,0,3.27,10.61c3.31,1.72,6.86.61,9.58-1.62,1-.86,2-1.84,2.9-2.8.46-.46,1-.89,1.42-1.37.68-.74,1-.21.13-.39-.36-2.79-.73-5.57-1.09-8.36l-2.21,1c-2.16,1-2.9,4.36-1.64,6.26a52.27,52.27,0,0,0,6.49,8c.67-2.55,1.35-5.1,2-7.64l-2.39.5c.8,2.94,1.62,5.89,2.43,8.83a25.19,25.19,0,0,0,14.47-14.42c1.39-3.41-2.59-6.38-5.63-5.63a8.1,8.1,0,0,0-6.25,7.86,7.52,7.52,0,0,0,1.82,4.81,10.86,10.86,0,0,0,2,1.8l.78.54q2.57,2.19,4.53-2.85c.36,2.79.73,5.58,1.09,8.37l10-4.94c4.63-2.28,1.4-10-3.52-8.36-9,3-4.36,15.48,4.47,14,3.74-.65,7.9-3.24,9-7.06a6.73,6.73,0,0,0-6.54-8.68c-5.89-.07-5.89,9.08,0,9.15q-1.1-4.49-3.42-2.57c-1.67.25-2,1.6-1.11,4-1.18-2.79-2.35-5.57-3.52-8.36l-10,4.94c-3.4,1.67-2.72,7.66,1.1,8.36a6.15,6.15,0,0,0,7.62-5.61,7.28,7.28,0,0,0-1.16-4.93,9.43,9.43,0,0,0-2.35-2.28l-.78-.54q-1.43-1.47-1.32,1.2l-5.62-5.63a14.94,14.94,0,0,1-8.08,8c-5.38,2.17-3.46,10.07,2.43,8.83l2.39-.51c3.44-.73,4.32-5.31,2-7.65a40.44,40.44,0,0,1-5-6.18l-1.65,6.25,2.2-1c3.55-1.62,2.61-7.6-1.09-8.36s-6.43.45-9.12,2.82c-1.12,1-2,2.19-3.17,3.16a6.69,6.69,0,0,0-1,.76c-.46.24-.35.24.32,0q1.83,3.56-.68,2.69c-.31-2.39-.61-4.79-.92-7.18a12.35,12.35,0,0,1-4.3,3.16,11.2,11.2,0,0,1-2.27.68c-1.17.21-2.2-.39-.81.38l2.1,2.74c-.38,1.77-.33,2,.14.8a4.44,4.44,0,0,0,.6-1.84,5.94,5.94,0,0,0-.69-4.2,6.66,6.66,0,0,0-7.23-2.72c-6.31,1.66-6.41,11.19-7.47,16.29l9,1.22a19.44,19.44,0,0,1,3.06-9.46c3.16-5.1-4.51-9.29-7.9-4.62a9.07,9.07,0,0,1-5.38,3.42c-5,1.29-3.93,8.95,1.22,9a6,6,0,0,0,6.07-6.29,6.45,6.45,0,0,0-1.86-4.22,8.69,8.69,0,0,0-2-1.51l-.82-.39c-1.07-.71-1.15-.44-.26.81l-9,1.22c.07.4,0,2.44.17,2.45l-2.31-8.53c-.89.63-1.77,1.27-2.66,1.89-4.76,3.39-.2,11.32,4.62,7.91Z" fill="#a273e5"/><path d="M1840.76,191.13l2.66-1.89c3.68-2.62,2.4-8.27-2.31-8.53-8.45-.45-11.8,10.94-4.47,15.17,7.7,4.45,14.47-3.41,13.13-10.9-1-5.31-8.73-3.69-9,1.21a6.64,6.64,0,0,0,2,5.17,9.42,9.42,0,0,0,2,1.54l.82.38q3.14,2,3.18-4.64c.4,3,.81,6,1.22,9a18.85,18.85,0,0,0,10.84-7.63q-3.94-2.31-7.9-4.61a29.07,29.07,0,0,0-4.31,14.07c-.28,5.1,7.93,6.29,9,1.22.42-2,.83-4,1.25-6,.18-.89.36-1.78.55-2.67.11-.55.23-1.09.36-1.63l-4.43-3.52c-.93.41-1.12,3.63-1,4.29a5.6,5.6,0,0,0,2.42,4c5.55,3.78,14.66-1.6,18.47-5.66,1.79-1.91,1.91-6-.93-7.18-3.82-1.64-8.53-1.18-10.74,2.87a7.93,7.93,0,0,0,3.27,10.62c3.31,1.72,6.86.6,9.58-1.63a40.17,40.17,0,0,0,2.9-2.79c.46-.47,1-.9,1.42-1.38.68-.74,1-.2.13-.39-.36-2.78-.73-5.57-1.09-8.36l-2.21,1c-2.16,1-2.9,4.35-1.64,6.26a52.75,52.75,0,0,0,6.49,8c.67-2.55,1.35-5.1,2-7.65l-2.39.51c.8,2.94,1.62,5.88,2.43,8.82a25.17,25.17,0,0,0,14.47-14.41c1.39-3.41-2.59-6.38-5.63-5.63A8.08,8.08,0,0,0,1887,186a7.54,7.54,0,0,0,1.82,4.81,10.81,10.81,0,0,0,2,1.79l.78.55c1.71,1.45,3.22.51,4.53-2.85.36,2.79.73,5.57,1.09,8.36l10-4.94c4.63-2.28,1.4-10-3.52-8.36-9,3-4.36,15.49,4.47,14,3.74-.65,7.9-3.24,9-7.05a6.72,6.72,0,0,0-6.54-8.68c-5.89-.07-5.89,9.08,0,9.15q-1.1-4.5-3.42-2.58-2.51.39-1.11,4-1.77-4.17-3.52-8.36l-10,4.94c-3.4,1.68-2.72,7.66,1.1,8.36a6.14,6.14,0,0,0,7.62-5.61,7.28,7.28,0,0,0-1.16-4.93,9.39,9.39,0,0,0-2.35-2.27l-.78-.55q-1.43-1.45-1.32,1.2l-5.62-5.63a15,15,0,0,1-8.08,8c-5.38,2.16-3.46,10.07,2.43,8.82l2.39-.51c3.44-.73,4.32-5.31,2-7.64a40.52,40.52,0,0,1-5-6.19l-1.65,6.26,2.2-1c3.55-1.62,2.61-7.59-1.09-8.36s-6.43.45-9.12,2.82c-1.12,1-2,2.2-3.17,3.17a6.06,6.06,0,0,0-1,.76c-.46.24-.35.23.32,0q1.83,3.56-.68,2.69c-.31-2.4-.61-4.79-.92-7.19a12.22,12.22,0,0,1-4.3,3.16,11.2,11.2,0,0,1-2.27.68c-1.17.21-2.2-.39-.81.39l2.1,2.73c-.38,1.77-.33,2,.14.81a4.54,4.54,0,0,0,.6-1.84,5.94,5.94,0,0,0-.69-4.2,6.67,6.67,0,0,0-7.23-2.73c-6.31,1.67-6.41,11.19-7.47,16.29l9,1.22a19.48,19.48,0,0,1,3.06-9.46c3.16-5.1-4.51-9.29-7.9-4.61a9.1,9.1,0,0,1-5.38,3.41c-5,1.3-3.93,8.95,1.22,9a6,6,0,0,0,6.07-6.29,6.45,6.45,0,0,0-1.86-4.22,9.31,9.31,0,0,0-2-1.51l-.82-.39c-1.07-.71-1.15-.44-.26.81l-9,1.22c.07.41,0,2.45.17,2.45l-2.31-8.52-2.66,1.89c-4.76,3.38-.2,11.32,4.62,7.9Z" fill="#a273e5"/><path d="M1840.76,247.68l2.66-1.89c3.68-2.62,2.4-8.27-2.31-8.52-8.45-.46-11.8,10.93-4.47,15.16,7.7,4.45,14.47-3.41,13.13-10.9-1-5.31-8.73-3.69-9,1.21a6.64,6.64,0,0,0,2,5.17,9.42,9.42,0,0,0,2,1.54l.82.38q3.14,2,3.18-4.64c.4,3,.81,6,1.22,9a18.85,18.85,0,0,0,10.84-7.63l-7.9-4.61a29.07,29.07,0,0,0-4.31,14.07c-.28,5.1,7.93,6.29,9,1.22.42-2,.83-4,1.25-6,.18-.89.36-1.78.55-2.67.11-.55.23-1.09.36-1.63l-4.43-3.52c-.93.41-1.12,3.63-1,4.29a5.6,5.6,0,0,0,2.42,3.95c5.55,3.78,14.66-1.6,18.47-5.66,1.79-1.91,1.91-6-.93-7.18-3.82-1.64-8.53-1.18-10.74,2.87a7.93,7.93,0,0,0,3.27,10.62c3.31,1.72,6.86.6,9.58-1.63a40.17,40.17,0,0,0,2.9-2.79c.46-.46,1-.9,1.42-1.38.68-.74,1-.2.13-.39-.36-2.78-.73-5.57-1.09-8.36l-2.21,1c-2.16,1-2.9,4.35-1.64,6.26a52.75,52.75,0,0,0,6.49,8c.67-2.55,1.35-5.1,2-7.65l-2.39.51c.8,2.94,1.62,5.88,2.43,8.82a25.17,25.17,0,0,0,14.47-14.41c1.39-3.41-2.59-6.38-5.63-5.63a8.08,8.08,0,0,0-6.25,7.86,7.54,7.54,0,0,0,1.82,4.81,10.81,10.81,0,0,0,2,1.79l.78.55q2.57,2.19,4.53-2.85c.36,2.79.73,5.57,1.09,8.36l10-4.94c4.63-2.28,1.4-10-3.52-8.36-9,3-4.36,15.49,4.47,13.95,3.74-.65,7.9-3.24,9-7a6.72,6.72,0,0,0-6.54-8.68c-5.89-.07-5.89,9.08,0,9.15q-1.1-4.5-3.42-2.58-2.51.39-1.11,4-1.77-4.17-3.52-8.36l-10,4.94c-3.4,1.68-2.72,7.66,1.1,8.36a6.14,6.14,0,0,0,7.62-5.61,7.28,7.28,0,0,0-1.16-4.93,9.39,9.39,0,0,0-2.35-2.27l-.78-.55q-1.43-1.45-1.32,1.2l-5.62-5.63a15,15,0,0,1-8.08,8c-5.38,2.16-3.46,10.07,2.43,8.82l2.39-.51c3.44-.73,4.32-5.31,2-7.64a40.52,40.52,0,0,1-5-6.19l-1.65,6.26,2.2-1c3.55-1.62,2.61-7.59-1.09-8.36s-6.43.45-9.12,2.82c-1.12,1-2,2.2-3.17,3.17a6.06,6.06,0,0,0-1,.76c-.46.24-.35.23.32,0q1.83,3.56-.68,2.69c-.31-2.4-.61-4.79-.92-7.19a12.22,12.22,0,0,1-4.3,3.16,11.2,11.2,0,0,1-2.27.68c-1.17.21-2.2-.39-.81.39l2.1,2.73c-.38,1.77-.33,2,.14.81a4.54,4.54,0,0,0,.6-1.84,5.94,5.94,0,0,0-.69-4.2,6.67,6.67,0,0,0-7.23-2.73c-6.31,1.67-6.41,11.19-7.47,16.29l9,1.22a19.44,19.44,0,0,1,3.06-9.46c3.16-5.1-4.51-9.29-7.9-4.61a9.1,9.1,0,0,1-5.38,3.41c-5,1.3-3.93,9,1.22,9a6,6,0,0,0,6.07-6.29,6.45,6.45,0,0,0-1.86-4.22,9.31,9.31,0,0,0-2-1.51l-.82-.39c-1.07-.71-1.15-.44-.26.81l-9,1.22c.07.41,0,2.45.17,2.46l-2.31-8.53-2.66,1.89c-4.76,3.38-.2,11.32,4.62,7.9Z" fill="#a273e5"/><path d="M1840.76,218.79l2.66-1.88c3.68-2.62,2.4-8.28-2.31-8.53-8.45-.45-11.8,10.94-4.47,15.17,7.7,4.44,14.47-3.42,13.13-10.91-1-5.3-8.73-3.68-9,1.22a6.65,6.65,0,0,0,2,5.17,9.75,9.75,0,0,0,2,1.54l.82.38q3.14,2,3.18-4.64c.4,3,.81,6,1.22,9a18.79,18.79,0,0,0,10.84-7.62l-7.9-4.62a29.14,29.14,0,0,0-4.31,14.08c-.28,5.1,7.93,6.29,9,1.21.42-2,.83-4,1.25-6,.18-.89.36-1.79.55-2.68q.16-.81.36-1.62l-4.43-3.53c-.93.42-1.12,3.64-1,4.3a5.56,5.56,0,0,0,2.42,3.94c5.55,3.78,14.66-1.59,18.47-5.65,1.79-1.92,1.91-6-.93-7.19-3.82-1.64-8.53-1.17-10.74,2.88a7.92,7.92,0,0,0,3.27,10.61c3.31,1.72,6.86.61,9.58-1.62,1-.86,2-1.84,2.9-2.8.46-.46,1-.89,1.42-1.37.68-.74,1-.21.13-.39-.36-2.79-.73-5.58-1.09-8.36l-2.21,1c-2.16,1-2.9,4.36-1.64,6.26a52.27,52.27,0,0,0,6.49,8c.67-2.55,1.35-5.09,2-7.64l-2.39.5c.8,2.94,1.62,5.89,2.43,8.83a25.19,25.19,0,0,0,14.47-14.42c1.39-3.41-2.59-6.38-5.63-5.63a8.1,8.1,0,0,0-6.25,7.86,7.52,7.52,0,0,0,1.82,4.81,10.86,10.86,0,0,0,2,1.8l.78.54q2.57,2.19,4.53-2.85c.36,2.79.73,5.58,1.09,8.37l10-4.94c4.63-2.28,1.4-10-3.52-8.36-9,3-4.36,15.48,4.47,13.95,3.74-.65,7.9-3.24,9-7.05a6.72,6.72,0,0,0-6.54-8.68c-5.89-.07-5.89,9.08,0,9.15q-1.1-4.5-3.42-2.58-2.51.39-1.11,4-1.77-4.18-3.52-8.36l-10,4.94c-3.4,1.67-2.72,7.66,1.1,8.36a6.14,6.14,0,0,0,7.62-5.61,7.28,7.28,0,0,0-1.16-4.93,9.43,9.43,0,0,0-2.35-2.28l-.78-.54q-1.43-1.47-1.32,1.2l-5.62-5.63a14.94,14.94,0,0,1-8.08,8c-5.38,2.17-3.46,10.07,2.43,8.83l2.39-.51c3.44-.73,4.32-5.32,2-7.65a40,40,0,0,1-5-6.19l-1.65,6.26,2.2-1c3.55-1.62,2.61-7.59-1.09-8.36s-6.43.45-9.12,2.82c-1.12,1-2,2.19-3.17,3.16a6.69,6.69,0,0,0-1,.76c-.46.24-.35.24.32,0,1.22,2.36,1,3.26-.68,2.68-.31-2.39-.61-4.79-.92-7.18a12.35,12.35,0,0,1-4.3,3.16,11.2,11.2,0,0,1-2.27.68c-1.17.21-2.2-.39-.81.38l2.1,2.74c-.38,1.77-.33,2,.14.8a4.44,4.44,0,0,0,.6-1.84,5.9,5.9,0,0,0-.69-4.19,6.65,6.65,0,0,0-7.23-2.73c-6.31,1.66-6.41,11.19-7.47,16.29l9,1.22a19.44,19.44,0,0,1,3.06-9.46c3.16-5.1-4.51-9.29-7.9-4.62a9.07,9.07,0,0,1-5.38,3.42c-5,1.29-3.93,8.95,1.22,9a6,6,0,0,0,6.07-6.29A6.45,6.45,0,0,0,1853,215a8.69,8.69,0,0,0-2-1.51l-.82-.39c-1.07-.71-1.15-.44-.26.81l-9,1.22c.07.4,0,2.44.17,2.45L1838.8,209l-2.66,1.89c-4.76,3.39-.2,11.32,4.62,7.9Z" fill="#a273e5"/><path d="M2065.47,136.81c.33-.1,4.12-1.2,4.19-1l-.3,0,.31,0c.4,0,.81-.08,1.22-.1.67,0,1.34,0,2,0s1.34.05,2,.11l.61.07c-.7-.1-.81-.12-.3,0l.91.15a27.15,27.15,0,0,1,4.15,1.15,4.61,4.61,0,0,0,5.63-3.2,4.7,4.7,0,0,0-3.2-5.62A31,31,0,0,0,2063,128a4.57,4.57,0,1,0,2.43,8.82Z" fill="#a273e5"/><path d="M2109.76,137.08l17.34-1.15c2.38-.16,4.69-2,4.57-4.58-.1-2.34-2-4.74-4.57-4.57l-17.34,1.15c-2.39.15-4.69,2-4.58,4.57.11,2.34,2,4.75,4.58,4.58Z" fill="#a273e5"/><path d="M2064.54,166.19c.33-.1,4.12-1.2,4.19-1l-.3,0,.31,0,1.23-.1c.66,0,1.33,0,2,0s1.33.05,2,.11l.61.07-.3,0,.91.16a26,26,0,0,1,4.15,1.14,4.61,4.61,0,0,0,5.63-3.2,4.7,4.7,0,0,0-3.2-5.62,31,31,0,0,0-19.65-.35,4.57,4.57,0,0,0,2.43,8.82Z" fill="#a273e5"/><path d="M2108.83,166.46l17.34-1.15c2.38-.16,4.69-2,4.57-4.58-.1-2.34-2-4.74-4.57-4.57l-17.34,1.15c-2.38.15-4.69,2-4.57,4.57.1,2.34,2,4.75,4.57,4.58Z" fill="#a273e5"/><path d="M2063.61,195.58c.34-.11,4.12-1.21,4.19-1l-.3,0,.31,0,1.23-.1c.66,0,1.33,0,2,0s1.33.05,2,.11l.61.07-.3,0,.91.15a26.84,26.84,0,0,1,4.15,1.15,4.61,4.61,0,0,0,5.63-3.2,4.68,4.68,0,0,0-3.2-5.62,31,31,0,0,0-19.65-.35,4.58,4.58,0,0,0,2.43,8.83Z" fill="#a273e5"/><path d="M2107.9,195.84l17.34-1.15c2.38-.16,4.69-2,4.57-4.58-.1-2.34-2-4.74-4.57-4.57l-17.34,1.15c-2.38.15-4.69,2-4.57,4.57.1,2.35,2,4.75,4.57,4.58Z" fill="#a273e5"/><path d="M2062.72,223.79c.33-.11,4.12-1.2,4.19-1l-.3,0,.31,0c.4,0,.82-.07,1.22-.09.67,0,1.34,0,2,0s1.33.05,2,.12l.62.06-.31,0,.91.16a27.12,27.12,0,0,1,4.15,1.14,4.6,4.6,0,0,0,5.63-3.19,4.7,4.7,0,0,0-3.2-5.63,31.09,31.09,0,0,0-19.65-.35,4.58,4.58,0,1,0,2.43,8.83Z" fill="#a273e5"/><path d="M2107,224.05l17.34-1.15c2.38-.16,4.69-2,4.57-4.58-.1-2.34-2-4.74-4.57-4.57L2107,214.9c-2.39.16-4.69,2-4.58,4.57.11,2.35,2,4.75,4.58,4.58Z" fill="#a273e5"/><path d="M2062,248c.33-.1,4.12-1.2,4.19-1l-.3,0,.3,0,1.23-.1c.67,0,1.33,0,2,0s1.33.05,2,.11l.61.07c-.71-.1-.81-.12-.3,0l.91.15a27.47,27.47,0,0,1,4.15,1.15,4.6,4.6,0,0,0,5.62-3.2,4.68,4.68,0,0,0-3.19-5.62,31,31,0,0,0-19.66-.35A4.58,4.58,0,0,0,2062,248Z" fill="#a273e5"/><path d="M2106.25,248.25l17.33-1.16c2.39-.15,4.69-2,4.58-4.57-.11-2.34-2-4.75-4.58-4.58l-17.33,1.16c-2.39.15-4.7,2-4.58,4.57.1,2.34,2,4.75,4.58,4.58Z" fill="#a273e5"/><path d="M2061.17,273.06c.33-.1,4.11-1.2,4.19-1-.71.09-.81.11-.3.05l.3,0q.61-.06,1.23-.09c.66,0,1.33-.05,2,0s1.33.06,2,.12l.62.06-.31,0,.91.16a28,28,0,0,1,4.15,1.14,4.59,4.59,0,0,0,5.63-3.19,4.69,4.69,0,0,0-3.2-5.63,31.08,31.08,0,0,0-19.65-.34,4.58,4.58,0,0,0,2.44,8.82Z" fill="#a273e5"/><path d="M2105.45,273.32l17.34-1.15c2.38-.16,4.69-2,4.58-4.57-.11-2.35-2-4.75-4.58-4.58l-17.34,1.15c-2.38.16-4.69,2-4.57,4.58.1,2.34,2,4.74,4.57,4.57Z" fill="#a273e5"/><path d="M2050.51,379.14c.69-.2,1.39-.38,2.09-.53l1.06-.2c1.19-.2-.8.06.15,0a30.31,30.31,0,0,1,4.15-.15c.67,0,1.33.09,2,.16l-.3,0,.61.1.91.17a27.11,27.11,0,0,1,4.12,1.24,4.61,4.61,0,0,0,3.52-.46,4.58,4.58,0,0,0-1.09-8.37,31,31,0,0,0-19.64-.71,4.57,4.57,0,0,0,2.43,8.82Z" fill="#a273e5"/><path d="M2094.79,380.39l17.36-.78a4.58,4.58,0,0,0,0-9.15l-17.36.78a4.58,4.58,0,1,0,0,9.15Z" fill="#a273e5"/><path d="M2049,408.5c.69-.21,1.38-.39,2.09-.54l1.06-.2c1.19-.2-.81.06.15,0a30.25,30.25,0,0,1,4.15-.14c.66,0,1.33.08,2,.15l-.3,0,.61.1q.45.07.9.18a25.68,25.68,0,0,1,4.12,1.23,4.58,4.58,0,0,0,5.63-3.19,4.7,4.7,0,0,0-3.19-5.63,31.07,31.07,0,0,0-19.64-.72,4.58,4.58,0,1,0,2.43,8.83Z" fill="#a273e5"/><path d="M2093.22,409.74l17.36-.78a4.58,4.58,0,1,0,0-9.15l-17.36.78a4.58,4.58,0,0,0,0,9.15Z" fill="#a273e5"/><path d="M2047.39,437.85c.68-.2,1.38-.38,2.08-.53.35-.08.71-.14,1.06-.2,1.2-.2-.8.06.15,0a30.31,30.31,0,0,1,4.15-.15c.67,0,1.33.08,2,.16.51.06.4,0-.31-.05l.61.1.91.18a27.89,27.89,0,0,1,4.12,1.23,4.55,4.55,0,0,0,3.53-.46,4.64,4.64,0,0,0,2.1-2.73,4.71,4.71,0,0,0-3.2-5.63A31.07,31.07,0,0,0,2045,429a4.58,4.58,0,0,0,2.44,8.83Z" fill="#a273e5"/><path d="M2091.66,439.09l17.36-.77a4.58,4.58,0,1,0,0-9.15l-17.36.77a4.58,4.58,0,1,0,0,9.15Z" fill="#a273e5"/><path d="M2045.89,466c.68-.21,1.38-.39,2.08-.54l1.06-.2c1.2-.2-.8.07.15,0a30.3,30.3,0,0,1,4.15-.14c.67,0,1.33.08,2,.15l-.3,0,.61.1c.31.06.61.11.91.18a26.74,26.74,0,0,1,4.12,1.23,4.64,4.64,0,0,0,3.53-.46,4.57,4.57,0,0,0-1.1-8.36,31.07,31.07,0,0,0-19.64-.72,4.58,4.58,0,0,0,2.44,8.83Z" fill="#a273e5"/><path d="M2090.16,467.28l17.36-.78a4.58,4.58,0,1,0,0-9.15l-17.36.78a4.58,4.58,0,1,0,0,9.15Z" fill="#a273e5"/><path d="M2044.6,490.21c.69-.2,1.38-.38,2.08-.53.36-.08.71-.14,1.06-.2,1.2-.2-.8.06.16,0a30.19,30.19,0,0,1,4.15-.15c.66,0,1.32.09,2,.16l-.3,0,.6.1.91.17a26.77,26.77,0,0,1,4.12,1.24,4.59,4.59,0,0,0,5.63-3.2,4.71,4.71,0,0,0-3.19-5.63,31,31,0,0,0-19.64-.71,4.57,4.57,0,1,0,2.43,8.82Z" fill="#a273e5"/><path d="M2088.87,491.45l17.36-.77a4.58,4.58,0,1,0,0-9.15l-17.36.77a4.58,4.58,0,0,0,0,9.15Z" fill="#a273e5"/><path d="M2043.26,515.26c.69-.2,1.39-.38,2.09-.53l1.06-.2c1.19-.2-.8.06.15,0a30.31,30.31,0,0,1,4.15-.15c.67,0,1.33.09,2,.16l-.3,0,.61.1.91.17A27.11,27.11,0,0,1,2058,516a4.57,4.57,0,0,0,5.62-3.2,4.7,4.7,0,0,0-3.19-5.63,31,31,0,0,0-19.64-.71,4.57,4.57,0,0,0,2.43,8.82Z" fill="#a273e5"/><path d="M2087.54,516.51l17.36-.78c2.38-.11,4.69-2,4.57-4.57a4.64,4.64,0,0,0-4.57-4.58l-17.36.78a4.58,4.58,0,1,0,0,9.15Z" fill="#a273e5"/><path d="M1835.11,155.1c-5,2.05-8.19,7.86-4.93,12.93,3,4.71,10.23,4.94,13.76.74l-5.54.72c6.42,3.48,17.08-2.72,13.52-10.65s-16.31-1.24-13.66,6.62a4.7,4.7,0,0,0,4.41,3.36,23.12,23.12,0,0,0,9.58-2.38l-6.72-2.74q.72,2.87,1.43,5.74a4.69,4.69,0,0,0,5.63,3.19,21.27,21.27,0,0,0,13.51-9.06c3-4.2-4-9.66-7.18-5.55a114,114,0,0,0-11.42,17.73l8.36,3.53,3.54-8.78c.54-1.35,1.09-2.7,1.63-4.06.28-.67.55-1.35.82-2,.92-1.14.38-1.54-1.62-1.22q-.35-2.77-.71-5.54l-2.73,6.17c-1.46,3.3,1,8.14,5.16,6.72a69.26,69.26,0,0,0,14.26-6.7l-6.25-6.26a93.19,93.19,0,0,0-8.49,14.25l8.36,3.53c.7-2.25,1.45-4.49,2.36-6.66.39-.93.8-1.88,1.25-2.78s4.8-8.72.32-6.89c-3.21,1.32-5,6.49-1.09,8.37,5.26,2.48,11.38,1.05,14.25-4.27s-4.76-9.6-7.9-4.62a8.58,8.58,0,0,0-.18,8.95c1.06,2,4.33,3.05,6.26,1.64l6.45-4.73-6.72-5.16c-.44,1.79-.87,3.59-1.31,5.39-.54,2.19.69,5.23,3.19,5.62,7.66,1.21,14.8-2.81,17.09-10.38,1.16-3.81-3.34-7.22-6.72-5.17a12.59,12.59,0,0,0-6.13,8.55c-.44,2.3.61,5.11,3.19,5.63a16.06,16.06,0,0,0,18.95-11.52,4.61,4.61,0,0,0-7.64-4.45,35.83,35.83,0,0,0-8.59,13.34c-1.35,3.6,3.57,7.47,6.72,5.16l5.88-4.28-5.54-.72,2.88,2.54c1.76,1.56,4.75,1.95,6.47,0a22.47,22.47,0,0,1,5.45-4.6l-6.26-6.26-3.27,6.91c-2.14,4.52,3.29,9.39,7.18,5.55a23,23,0,0,0,6.94-18.22l-9,1.21q2.34,8.34,4.7,16.68c1.48,5.24,8.49,3.72,9-1.21.25-2.47,1.88-4,4-5.09l-6.89-4c.09,2.33-.35,5.33,1.15,7.28a10.11,10.11,0,0,0,5.12,3,13.07,13.07,0,0,0,11.31-2.11h-4.61c4.83,3.44,12.3,0,12.51-6.08.21-6.38-7-9.49-12.12-6.91s-.64,10.54,4.62,7.9q-2.28-2.37-.4-2.81a4.38,4.38,0,0,0-4.61,0c-2.06,1.57-3.76,1.74-5.92.25.76,1.31,1.51,2.63,2.27,4-.06-1.51-.11-3-.17-4.51a4.63,4.63,0,0,0-6.88-3.95c-5.17,2.58-7.94,7.36-8.51,13l9-1.22-4.71-16.68c-1.36-4.81-9.39-4.08-9,1.22a14.11,14.11,0,0,1-4.26,11.75l7.19,5.54,3.27-6.91c1.85-3.92-2.06-8.79-6.26-6.26a30.89,30.89,0,0,0-7.3,6h6.47l-2.88-2.54c-1.41-1.23-3.86-1.94-5.55-.71l-5.87,4.28,6.72,5.17a25.29,25.29,0,0,1,6.23-9.3l-7.65-4.45a6.77,6.77,0,0,1-7.69,5.13l3.19,5.63a3.88,3.88,0,0,1,1.93-3.09l-6.72-5.16a5.53,5.53,0,0,1-5.84,4l3.2,5.63,1.32-5.39c.86-3.53-3.31-7.66-6.72-5.17l-6.46,4.73,6.26,1.64.18.29-7.9-4.62c-.34.64-.86,1.4-1.73,1-.37,2.78-.73,5.57-1.1,8.36,6.35-2.6,5.27-12.14-1.84-12.76-8.38-.73-11.48,11.83-13.34,17.83-1.51,4.86,6.09,8.25,8.36,3.52a94,94,0,0,1,8.49-14.25c2.73-3.79-2.55-8.57-6.26-6.26a59.06,59.06,0,0,1-12.08,5.78l5.17,6.72,2.73-6.18a4.75,4.75,0,0,0-.72-5.54c-10.72-10.57-17.24,14.09-19.67,20.11-1.93,4.81,6,8.1,8.36,3.53a102.66,102.66,0,0,1,10-15.88L1858.2,159a12.23,12.23,0,0,1-8,4.86l5.63,3.19-1.44-5.73c-.76-3.07-4.14-4-6.72-2.73a11.83,11.83,0,0,1-5,1.13l4.41,3.36c0,1.12-.59,1.63-1.65,1.52l-2.1-2.73c-.06-.39-.91-.56-.31-.23-1.66-.9-4.22-.85-5.54.71-.59.7,1.25,1.14.06,1.63,5.38-2.2,3-11.05-2.43-8.83Z" fill="#a273e5"/><path d="M1835.11,266.79c-5,2-8.19,7.86-4.93,12.93,3,4.71,10.23,4.93,13.76.74l-5.54.72c6.42,3.48,17.08-2.72,13.52-10.65s-16.31-1.24-13.66,6.62a4.69,4.69,0,0,0,4.41,3.35,23.11,23.11,0,0,0,9.58-2.37l-6.72-2.74q.72,2.87,1.43,5.73a4.69,4.69,0,0,0,5.63,3.2,21.29,21.29,0,0,0,13.51-9.07c3-4.19-4-9.65-7.18-5.54a114,114,0,0,0-11.42,17.73l8.36,3.52,3.54-8.77c.54-1.36,1.09-2.71,1.63-4.06.28-.67.55-1.35.82-2,.92-1.14.38-1.54-1.62-1.22q-.35-2.77-.71-5.54l-2.73,6.17c-1.46,3.3,1,8.14,5.16,6.72a69.26,69.26,0,0,0,14.26-6.7l-6.25-6.26a92.71,92.71,0,0,0-8.49,14.25l8.36,3.53c.7-2.25,1.45-4.49,2.36-6.66.39-.94.8-1.88,1.25-2.78s4.8-8.72.32-6.89c-3.21,1.32-5,6.49-1.09,8.37,5.26,2.48,11.38,1,14.25-4.27s-4.76-9.6-7.9-4.62a8.56,8.56,0,0,0-.18,8.94c1.06,2,4.33,3.05,6.26,1.64l6.45-4.72-6.72-5.16c-.44,1.79-.87,3.59-1.31,5.38-.54,2.2.69,5.24,3.19,5.63,7.66,1.21,14.8-2.81,17.09-10.38,1.16-3.81-3.34-7.22-6.72-5.17a12.59,12.59,0,0,0-6.13,8.55c-.44,2.3.61,5.11,3.19,5.63A16.06,16.06,0,0,0,1913.09,269a4.61,4.61,0,0,0-7.64-4.45,35.87,35.87,0,0,0-8.59,13.33c-1.35,3.61,3.57,7.47,6.72,5.17l5.88-4.28-5.54-.72,2.88,2.54c1.76,1.55,4.75,1.95,6.47,0a22.74,22.74,0,0,1,5.45-4.61l-6.26-6.25-3.27,6.91c-2.14,4.52,3.29,9.39,7.18,5.55a23,23,0,0,0,6.94-18.23l-9,1.22q2.34,8.34,4.7,16.68c1.48,5.24,8.49,3.72,9-1.22.25-2.46,1.88-4,4-5.08l-6.89-3.95c.09,2.33-.35,5.33,1.15,7.28a10.17,10.17,0,0,0,5.12,3,13,13,0,0,0,11.31-2.11h-4.61c4.83,3.44,12.3,0,12.51-6.07.21-6.38-7-9.49-12.12-6.91s-.64,10.54,4.62,7.9q-2.28-2.38-.4-2.82a4.4,4.4,0,0,0-4.61,0c-2.06,1.58-3.76,1.75-5.92.26.76,1.31,1.51,2.63,2.27,3.95-.06-1.51-.11-3-.17-4.51a4.63,4.63,0,0,0-6.88-3.95c-5.17,2.58-7.94,7.36-8.51,13l9-1.21-4.71-16.68c-1.36-4.81-9.39-4.08-9,1.21a14.12,14.12,0,0,1-4.26,11.76l7.19,5.54,3.27-6.92c1.85-3.91-2.06-8.78-6.26-6.26a30.93,30.93,0,0,0-7.3,6h6.47l-2.88-2.54c-1.41-1.23-3.86-1.94-5.55-.71l-5.87,4.28,6.72,5.17a25.21,25.21,0,0,1,6.23-9.3l-7.65-4.45a6.77,6.77,0,0,1-7.69,5.13l3.19,5.62a3.88,3.88,0,0,1,1.93-3.08l-6.72-5.16a5.54,5.54,0,0,1-5.84,4c1.07,1.87,2.13,3.75,3.2,5.63l1.32-5.39c.86-3.53-3.31-7.66-6.72-5.17l-6.46,4.72,6.26,1.65.18.29-7.9-4.62c-.34.63-.86,1.4-1.73,1-.37,2.79-.73,5.58-1.1,8.37,6.35-2.61,5.27-12.15-1.84-12.76-8.38-.73-11.48,11.82-13.34,17.82-1.51,4.87,6.09,8.26,8.36,3.53a94.1,94.1,0,0,1,8.49-14.26c2.73-3.78-2.55-8.56-6.26-6.25a59.58,59.58,0,0,1-12.08,5.78c1.72,2.23,3.44,4.48,5.17,6.71l2.73-6.17a4.75,4.75,0,0,0-.72-5.54c-10.72-10.57-17.24,14.09-19.67,20.11-1.93,4.81,6,8.1,8.36,3.53a102.66,102.66,0,0,1,10-15.88l-7.19-5.54a12.23,12.23,0,0,1-8,4.86l5.63,3.19-1.44-5.73c-.76-3.07-4.14-4-6.72-2.73a12,12,0,0,1-5,1.12l4.41,3.36q-.06,1.69-1.65,1.53l-2.1-2.73c-.06-.39-.91-.56-.31-.23-1.66-.91-4.22-.85-5.54.71-.59.7,1.25,1.14.06,1.62,5.38-2.19,3-11.05-2.43-8.82Z" fill="#a273e5"/><path d="M1840.48,359.42c-5.78-1.45-10.66,5.07-7.22,10.15,3.86,5.72,10.88,2.85,14.79-1a4.61,4.61,0,0,0-.93-7.18c-7.15-3.75-13.26,6.2-6.73,10.94,5.68,4.12,14.74-1,15.22-7.61.26-3.67-4-5.42-6.88-3.95-4.28,2.2-4.87,8.46-1.28,11.57a7,7,0,0,0,7.84.74c2.36-1.21,3.22-3.81,5.34-5.09l-6.26-1.64c-.13-.91-.21-.91-.24,0a3.88,3.88,0,0,0-.06,1,6.13,6.13,0,0,0,.55,2.58,5.79,5.79,0,0,0,5.17,3.38c4.1.14,7.89-2.88,9.84-6.24s-.63-6.48-4-6.89c-5.87-.72-9.3,6.51-5.75,10.92,3.76,4.67,9.94,2.91,13-1.48H1865c3.82,5.72,13.69,4.91,13.52-3.07a6.58,6.58,0,0,0-5.58-6.43c-3.69-.46-6.43,2.15-7.92,5.26a4.65,4.65,0,0,0,2.73,6.72,10.83,10.83,0,0,0,3.1.47l1-.09q2.39.19-.54-1.46c.61,2.71,4.36,4.42,6.72,2.74a16.5,16.5,0,0,0,4.66-4.83l-8.37-3.52a18.6,18.6,0,0,0-.49,3.56c-.19,4.71,6.22,6,8.53,2.31a3.75,3.75,0,0,1,1.71-1.53l-6.88-4-.21,2.12c-.34,3.49,4.13,5.64,6.89,3.95a6.56,6.56,0,0,1,1.61-.86l-5.79-4.42c.35,4.23,3.21,8,7.8,8.06s7.44-3.85,7.84-8c.24-2.42-2.28-4.64-4.57-4.58-5.4.15-8.33,6.2-5.54,10.73a8.22,8.22,0,0,0,6.67,3.56c2.93.13,5.64-1.43,8.52-1.18,5.86.52,5.83-8.64,0-9.15a16.55,16.55,0,0,0-5.72.73,7.1,7.1,0,0,0-1.93.49c-.72-.14-.71.15,0,.88,1.1,1.35.43,2.38-2,3.09l-4.58-4.57.09-1h2.44c0,.31.08.62.13.93-.23-2.69-2.78-5.53-5.79-4.41a20.94,20.94,0,0,0-3.8,1.79l6.88,3.95.21-2.12c.35-3.62-4.1-5.49-6.89-4a13.42,13.42,0,0,0-5,4.82l8.52,2.31c.06-.38.11-.75.16-1.13a4.6,4.6,0,0,0-8.36-3.53,5.18,5.18,0,0,1-1.36,1.55l6.72,2.73a6.51,6.51,0,0,0-3.94-4.63c-2.08-.91-4-.09-6-.69.92,2.24,1.82,4.48,2.74,6.72.8-1.67,1.55-2.63,0-5a4.64,4.64,0,0,0-7.9,0l2.37.64V368l-1.68,1.24q-2-3.44-4-6.88l-1.23,1.4c-1.07.35-.7.92,1.13,1.71q1.71,2.79,1.65.83a5.64,5.64,0,0,0-1-4.59c-1.48-1.93-3.92-3.06-6.26-1.64a12.14,12.14,0,0,0-3.34,3c-.25.32-1.08,1.09-1.16,1.48-.63.53-.24.89,1.19,1.1q2.71.64.65,3l-6.89-3.95c.09-1.17.25-1.25-.88-.32-.56.17-.63.29-.24.37q2.82,1-2.84,4.52-.45-3.6-.92-7.18c-.46.46-.93.91-1.41,1.34-.92.38-.63.81.89,1.3v2.43l-1.2.93h-2.43l.62.16c5.71,1.43,8.15-7.39,2.43-8.83Z" fill="#a273e5"/><path d="M1840.48,383c-5.78-1.46-10.66,5.07-7.22,10.15,3.86,5.72,10.88,2.85,14.79-1a4.62,4.62,0,0,0-.93-7.19c-7.15-3.75-13.26,6.2-6.73,10.94,5.68,4.13,14.74-1,15.22-7.6.26-3.67-4-5.42-6.88-3.95-4.28,2.2-4.87,8.45-1.28,11.57a7,7,0,0,0,7.84.74c2.36-1.22,3.22-3.81,5.34-5.1l-6.26-1.64c-.13-.9-.21-.91-.24,0a3.85,3.85,0,0,0-.06,1,6.2,6.2,0,0,0,.55,2.58,5.78,5.78,0,0,0,5.17,3.37c4.1.14,7.89-2.87,9.84-6.24s-.63-6.47-4-6.88c-5.87-.72-9.3,6.5-5.75,10.91,3.76,4.68,9.94,2.92,13-1.47H1865c3.82,5.72,13.69,4.91,13.52-3.08a6.58,6.58,0,0,0-5.58-6.42c-3.69-.46-6.43,2.15-7.92,5.25a4.65,4.65,0,0,0,2.73,6.72,10.5,10.5,0,0,0,3.1.47l1-.08q2.39.18-.54-1.46c.61,2.7,4.36,4.41,6.72,2.73a16.47,16.47,0,0,0,4.66-4.82l-8.37-3.53a18.6,18.6,0,0,0-.49,3.57c-.19,4.7,6.22,6,8.53,2.31a3.77,3.77,0,0,1,1.71-1.54l-6.88-3.95-.21,2.12c-.34,3.5,4.13,5.64,6.89,3.95a6.56,6.56,0,0,1,1.61-.86l-5.79-4.41c.35,4.23,3.21,8,7.8,8.06s7.44-3.85,7.84-8c.24-2.42-2.28-4.64-4.57-4.58-5.4.15-8.33,6.2-5.54,10.74a8.24,8.24,0,0,0,6.67,3.56c2.93.12,5.64-1.43,8.52-1.18,5.86.51,5.83-8.64,0-9.15a16.31,16.31,0,0,0-5.72.72,7.11,7.11,0,0,0-1.93.5c-.72-.15-.71.14,0,.88,1.1,1.34.43,2.37-2,3.08l-4.58-4.57.09-1h2.44c0,.31.08.62.13.93-.23-2.69-2.78-5.54-5.79-4.41a21.59,21.59,0,0,0-3.8,1.78l6.88,3.95.21-2.12c.35-3.61-4.1-5.49-6.89-3.95a13.42,13.42,0,0,0-5,4.82l8.52,2.31c.06-.38.11-.76.16-1.14a4.59,4.59,0,0,0-8.36-3.52,5.14,5.14,0,0,1-1.36,1.54l6.72,2.74a6.52,6.52,0,0,0-3.94-4.64c-2.08-.9-4-.08-6-.68.92,2.24,1.82,4.48,2.74,6.72.8-1.68,1.55-2.64,0-5a4.64,4.64,0,0,0-7.9,0l2.37.65v2.43l-1.68,1.25-4-6.88-1.23,1.39c-1.07.35-.7.92,1.13,1.71q1.71,2.81,1.65.84a5.65,5.65,0,0,0-1-4.6c-1.48-1.93-3.92-3.05-6.26-1.64a12.34,12.34,0,0,0-3.34,3c-.25.31-1.08,1.09-1.16,1.47-.63.53-.24.9,1.19,1.11q2.71.65.65,3l-6.89-3.95c.09-1.18.25-1.25-.88-.32-.56.16-.63.29-.24.37q2.82,1-2.84,4.52c-.3-2.4-.61-4.79-.92-7.19-.46.47-.93.91-1.41,1.34-.92.38-.63.81.89,1.3v2.43l-1.2.93h-2.43l.62.16c5.71,1.44,8.15-7.38,2.43-8.82Z" fill="#a273e5"/><path d="M1825.43,366.18a1.62,1.62,0,0,1,0,.22c.06-.4.11-.81.17-1.21a2.72,2.72,0,0,1-.11.38c.15-.37.3-.73.46-1.09a5.55,5.55,0,0,1-.44.74c-.08.12-.15.24-.22.36l-.09.18a12.39,12.39,0,0,0-.52,1.26,5.61,5.61,0,0,0,0,3.12,5.25,5.25,0,0,0,.25.6c.06.15.16.42.26.61s0,.09.07.13a5.63,5.63,0,0,0,1,1.16,9.5,9.5,0,0,0,1,.78l.15.08a6.5,6.5,0,0,0,1.41.57,7.51,7.51,0,0,0,.77.11,6.48,6.48,0,0,0,.77.1,7.45,7.45,0,0,0,1.57-.18,2,2,0,0,0,.35-.09,13.33,13.33,0,0,0,1.23-.52l.17-.1a8.9,8.9,0,0,0,1.24-1,9.72,9.72,0,0,0,1-1.25,2.55,2.55,0,0,0,.27-.48,15.27,15.27,0,0,0,.65-1.57,10.47,10.47,0,0,0,.29-1.1,3.45,3.45,0,0,0,.08-1.83,3.28,3.28,0,0,0-.54-1.7,3.46,3.46,0,0,0-1.18-1.28,3.38,3.38,0,0,0-1.55-.82l-1.22-.16a4.57,4.57,0,0,0-2.31.62l-.93.72a4.55,4.55,0,0,0-1.17,2,8.16,8.16,0,0,1-.43,1.46c.16-.37.31-.73.47-1.09a3.83,3.83,0,0,1-.42.73l.71-.93a2.59,2.59,0,0,1-.4.41l.93-.72a1.35,1.35,0,0,1-.33.19l1.1-.46a1.73,1.73,0,0,1-.43.12l1.21-.16a2,2,0,0,1-.49,0l1.21.16a2.17,2.17,0,0,1-.42-.11l1.09.46a2.28,2.28,0,0,1-.3-.17l.93.71a1,1,0,0,1-.21-.21l.72.93a1,1,0,0,1-.13-.22l.46,1.09a.79.79,0,0,1-.06-.22c.06.41.11.81.17,1.22a1,1,0,0,1,0-.3c-.06.4-.11.81-.17,1.21a1.66,1.66,0,0,1,.11-.38c-.15.36-.3.73-.46,1.09a9.41,9.41,0,0,1,.58-1,6.08,6.08,0,0,0,.91-3.24,5.08,5.08,0,0,0-1.34-3.24,3.38,3.38,0,0,0-1.47-.94,3.45,3.45,0,0,0-1.76-.4l-1.22.17a4.58,4.58,0,0,0-2,1.17l-.71.93a4.46,4.46,0,0,0-.63,2.31Z" fill="#9ab7ae"/><path d="M1838,362.39a5.27,5.27,0,0,0,.16-1.38,5,5,0,0,0-.65-2.44,5.27,5.27,0,0,0-1.85-1.9.69.69,0,0,0-.17-.1,7.76,7.76,0,0,0-1.26-.52,7.26,7.26,0,0,0-1.39-.19,7.15,7.15,0,0,0-1.39.16l-.2.05a5.58,5.58,0,0,0-2.37,1.41,1.45,1.45,0,0,0-.17.18,8.52,8.52,0,0,0-1,1.32c-.08.15-.15.31-.22.46a3.28,3.28,0,0,0-.54,1.7,4.12,4.12,0,0,0,.89,3.38,3.57,3.57,0,0,0,1.29,1.18l1.09.46a4.59,4.59,0,0,0,2.44,0l1.09-.46a4.68,4.68,0,0,0,1.64-1.64,3.79,3.79,0,0,1,.45-.81c-.25.31-.48.62-.72.93a1.77,1.77,0,0,1,.3-.31l-.92.72a1.13,1.13,0,0,1,.26-.16l-1.09.47a.59.59,0,0,1,.19,0l-1.22.16h.23l-1.21-.16.24.06-1.09-.46a.57.57,0,0,1,.21.13l-.92-.72a.8.8,0,0,1,.13.13c-.24-.3-.48-.61-.71-.92a1.27,1.27,0,0,1,.07.12l-.47-1.1a.93.93,0,0,1,0,.13c-.06-.4-.11-.81-.16-1.21v.14c0-.4.1-.81.16-1.22v0a3.52,3.52,0,0,0-.09,1.82,3.36,3.36,0,0,0,.55,1.7,3.46,3.46,0,0,0,1.17,1.29,3.56,3.56,0,0,0,1.56.82l1.22.16a4.51,4.51,0,0,0,2.31-.63l.92-.71a4.55,4.55,0,0,0,1.18-2Z" fill="#9ab7ae"/><path d="M1765.5,1053.67l-1.47-.33a243.21,243.21,0,0,0-21-56.15c-6.35-11.93-16.26-20.41-24.83-30.81-17.72-21.5-36.93-41.78-56.51-61.55-1.68-1.67-3.33-3.35-5-5l2.93-2.93a422.54,422.54,0,0,0,100.89-69.72c11.17-10.4,45.57-47.15,46.73-59.26.37-3.84-2.9-11.84-7.65-21.17,49.4,16.07,104.24,35.59,151.7,56.67,29.89,13.27,60,27.94,83.11,51,23.58,23.48,38.59,54.44,47.74,86.4,10.73,37.49,16.62,76.65,13,115.08-1.1,11.68-6.5,44-14.73,86.38-22.42,115.32-65.82,305.21-100.71,357-17.45,26-37.82,49-58.23,62.13a78,78,0,0,1-20.31,9.63l-1.37.68a14.07,14.07,0,0,0-8-4.82c-22.57-4.64-72.41-14.58-79.73-13.27-.25.06-.64.12-1.1.18l-.18-3c-5.49-4.69-11-9.82-16.26-15.28-19.46-19.76-37.82-43.64-52.94-65.42-12-17.26-21.27-36.29-29.29-55.72-22.23-53.77-35.44-110.78-48.52-167.48q-16.11-69.72-32.21-139.48l.76-1.15c2.26,2.92,7.2,5.15,18.33,3.66a109.23,109.23,0,0,0,16.6-3.82c31.14-9.3,84.42-36.72,95.16-48.52A32,32,0,0,0,1765.5,1053.67Z" fill="#c0a0f2"/><path d="M2081.78,1593.65l-157.1-31.73-3.21-.48c20.41-13.18,40.78-36.18,58.23-62.13,34.89-51.82,78.29-241.71,100.71-357-3.81,98-1.77,214.44-2.65,312.5C2077.36,1498.51,2077.88,1550,2081.78,1593.65Z" fill="#c0a0f2"/><path d="M2014.11,1642.75a.62.62,0,0,0-.14.15c-10.42,10.49-32.88,19.92-63.77,27.42l-.82-3.37v-77.7H1952c42.41,10.5,68.46,24.68,68.46,40.31C2020.47,1634.11,2018.29,1638.5,2014.11,1642.75Z" fill="#fff"/><path d="M2014,1642.9c-12.27,15.81-50.25,56.9-123.81,72.19-25.35,7.32-69.53,12.45-117.71,12.45-58.27,0-107-6.72-133.78-18.5-30.45-10.24-95.92-33.48-113-73.53h0c7.83,18.25,51.32,34,113.76,43.38,38.42,5.76,84,9.08,132.93,9.08,69.72,0,132.71-6.76,177.75-17.65C1981.09,1662.82,2003.55,1653.39,2014,1642.9Z" fill="#d1d1d1"/><path d="M1949.38,1667l.82,3.37c-45,10.89-108,17.65-177.75,17.65-48.92,0-94.51-3.32-132.93-9.08l.37-2.48c0-4.58-.08-13-.19-23.24l4.91,0q150.26-5.6,300.56-7.05h4.21Z" fill="#997767"/><path d="M1949.38,1622v24.09h-4.21q-150.29,1.5-300.56,7.05l-4.91,0c-.07-7.31-.15-15.59-.26-24.05l5.17-.08q150.26-5.58,300.56-7Z" fill="#ffe1e1"/><path d="M1949.38,1589.25V1622h-4.21q-150.29,1.5-300.56,7l-5.17.08c-.22-17.18-.48-35.21-.7-48.07,0-2-.07-3.88-.11-5.58l2.14-.07c9.76-13.26,16.48.59,18.11,7.39.7,2.85,1.48,5.8,3.47,7.94s5.69,3,7.83,1c2.52-2.29,1.4-6.46,2.4-9.75,1.59-5.32,8.76-7.17,13.89-5s8.54,7,11.42,11.71c6.62-.85,6.36-11.46,11.94-15.08a10.16,10.16,0,0,1,7.35-1c6.68,1.37,12,6.84,14.81,13s3.66,13.15,4.25,20c.19,2,.74,4.58,2.77,5.06a4.07,4.07,0,0,0,3.18-1c5.69-4,7.28-11.71,7.17-18.66-.08-3.14-.37-6.32.48-9.35s3.21-5.87,6.32-6.13,6.28,3.22,4.84,6a18.74,18.74,0,0,1,20.06-3.54c2.66,1.18,5.43,3,8.2,2.21s4.06-3.58,6.5-4.76c4.32-2.11,9.24,1.55,14,1.33,5-.22,10.13-4.47,14.3-1.81,3.44,2.18,3,7.2,2.66,11.27a55.9,55.9,0,0,0,.63,15.11c.48,2.77,1.55,5.94,4.25,6.76,4.58,1.36,7.31-5,7.79-9.79.6-5.73,1.23-11.49,1.81-17.22.26-2.47.56-5,1.93-7.06s4.13-3.4,6.35-2.29c4.55,2.29,2.51,11.75,7.58,12.27,4.43.44,4.84-6.73,8.27-9.53,2.44-2,6.13-1.41,8.87.22a15.45,15.45,0,0,1,7.46,13.19c0,3.95-1.07,9.12,2.44,11,2.92,1.52,6.43-1,8-3.95,2.66-5,2.37-11,3.88-16.48s6.61-10.94,12-9.31c4.36,1.33,7.58,7,12,5.72,4.91-1.32,6.68-10.38,11.41-8.56,3.07,1.14,2.63,5.43,3.07,8.64.92,6.47,8.72,10.94,14.74,8.5h.18Z" fill="#997767"/><path d="M1949.38,1562v21.39h-.18c-6,2.44-13.82-2-14.74-8.5-.44-3.21,0-7.5-3.07-8.64-4.73-1.82-6.5,7.24-11.41,8.56-4.4,1.23-7.62-4.39-12-5.72-5.43-1.63-10.49,3.88-12,9.31s-1.22,11.49-3.88,16.48c-1.55,2.92-5.06,5.47-8,3.95-3.51-1.85-2.48-7-2.44-11a15.45,15.45,0,0,0-7.46-13.19c-2.74-1.63-6.43-2.22-8.87-.22-3.43,2.8-3.84,10-8.27,9.53-5.07-.52-3-10-7.58-12.27-2.22-1.11-5,.22-6.35,2.29s-1.67,4.59-1.93,7.06c-.58,5.73-1.21,11.49-1.81,17.22-.48,4.76-3.21,11.15-7.79,9.79-2.7-.82-3.77-4-4.25-6.76a55.9,55.9,0,0,1-.63-15.11c.37-4.07.78-9.09-2.66-11.27-4.17-2.66-9.35,1.59-14.3,1.81-4.76.22-9.68-3.44-14-1.33-2.44,1.18-3.88,4-6.5,4.76s-5.54-1-8.2-2.21a18.74,18.74,0,0,0-20.06,3.54c1.44-2.8-1.7-6.28-4.84-6s-5.47,3.11-6.32,6.13-.56,6.21-.48,9.35c.11,7-1.48,14.67-7.17,18.66a4.07,4.07,0,0,1-3.18,1c-2-.48-2.58-3-2.77-5.06-.59-6.8-1.37-13.75-4.25-20s-8.13-11.68-14.81-13a10.16,10.16,0,0,0-7.35,1c-5.58,3.62-5.32,14.23-11.94,15.08-2.88-4.73-6.32-9.57-11.42-11.71s-12.3-.3-13.89,5c-1,3.29.12,7.46-2.4,9.75-2.14,2-5.84,1.15-7.83-1s-2.77-5.09-3.47-7.94c-1.63-6.8-8.35-20.65-18.11-7.39l-2.14.07c-.07-3.87-.11-7-.18-9.12a10,10,0,0,1,8.27-10.16c35.25-6.06,173.61-23.72,191.35-26.49.55-.08,1-.15,1.32-.22,8.87-1.59,69.24,10.45,96.58,16.07a16.75,16.75,0,0,1,13.41,16.48Z" fill="#ffe1e1"/><path d="M1799.57,746.72c4.75,9.33,8,17.33,7.65,21.17-1.16,12.11-35.56,48.86-46.73,59.26a422.54,422.54,0,0,1-100.89,69.72l-2.93,2.93c-18-18-36.45-35.62-55.63-52.34-2.17-1.89-4.39-3.9-6.65-6l3.51-1.4c1.4-5.58,4.85-9.85,9.3-13.3,6.62-5.09,15.53-8.41,23.49-11.53,18.45-7.22,35.65-17.29,52.76-27.35,29.34-17.24,60.57-36.51,73.78-67.9,2.08-5,3.69-10.4,2.56-15.67l-7.35-12.54c8.24-1.31,11.68-3,16.44,3.87C1772.14,700.42,1789.32,726.68,1799.57,746.72Z" fill="#c0a0f2"/><path d="M1794.56,1535.57l-.09.1-237.2-47.89.64-3.14c2.32-50.72-24.18-115-30.83-210.12-7.69-110.59,35.74-175.22,24.4-271.17l-7.23-.55a19.86,19.86,0,0,0,6.43-5.95l1-1.65c11.1,6.32,21.68,14.37,29.28,19.43,18.21,12.2,34.37,22.48,55.14,24l0,.49a441,441,0,0,1,10.53,44.47l-.16,0c-4.6,3.66-16.89,13-15.83,18.46a10.12,10.12,0,0,0,1.8,4.27l-.76,1.15q16.11,69.78,32.21,139.48c13.08,56.7,26.29,113.71,48.52,167.48,8,19.43,17.27,38.46,29.29,55.72C1756.74,1491.93,1775.1,1515.81,1794.56,1535.57Z" fill="#c0a0f2"/><path d="M1636.05,1038.6c-20.77-1.49-36.93-11.77-55.14-24-7.6-5.06-18.18-13.11-29.28-19.43l-1,1.65a19.86,19.86,0,0,1-6.43,5.95c-14.64,8.84-43.16,6.53-53.16-6.28l-1.83.15a43.42,43.42,0,0,1-21.87-25.74c-1.13-3.51-2.14-7.14-3-10.8l-.25.06a73.34,73.34,0,0,1-9.75-20.4c-6.17-19.95-4.67-42.28,7.35-53.32,3.63-3.2,8.75-6.07,14.91-8.57,17.23-7,42.73-11.16,67-12.56l0-.28c-14.15-4.76-53-19.82-64.63-7.5-.36.36-.7.79-1.07,1.22-11.74,13.57-31.35,51.67-49.93,38.67-11.22-7.32,1.84-21,13.76-48.28,11.25-25.65,19.43-34.83,31.14-37.73l1.16-.24c12.38-2.59,65.91-1.8,87.84,7,1.28.52,2.53,1.1,3.78,1.74,10.34,5.1,19.89,13.67,28.67,21.56,2.26,2,4.48,4.06,6.65,6,19.18,16.72,37.64,34.32,55.63,52.34,1.68,1.68,3.33,3.36,5,5,19.58,19.77,38.79,40,56.51,61.55,8.57,10.4,18.48,18.88,24.83,30.81a243.21,243.21,0,0,1,21,56.15l1.47.33a32,32,0,0,1-3,4c-10.74,11.8-64,39.22-95.16,48.52a109.23,109.23,0,0,1-16.6,3.82c-1-8.06-2.44-17.15-4.14-26.42a441,441,0,0,0-10.53-44.47Z" fill="#ffe4ce"/><path d="M1639.89,1676.41l-.37,2.48c-62.44-9.35-105.93-25.13-113.76-43.38a14.88,14.88,0,0,1-1.29-6c0-20.17,43.37-37.94,109.32-48.43l5-.08c.22,12.86.48,30.89.7,48.07.11,8.46.19,16.74.26,24.05C1639.81,1663.41,1639.89,1671.83,1639.89,1676.41Z" fill="#fff"/><path d="M1646.55,1083.56c1.7,9.27,3.14,18.36,4.14,26.42-11.13,1.49-16.07-.74-18.33-3.66a10.12,10.12,0,0,1-1.8-4.27c-1.06-5.43,11.23-14.8,15.83-18.46Z" fill="#d3ab72"/><path d="M1632.36,1532.28a2.7,2.7,0,0,1-1.34.91l-360.88,117.64-.51-1.55-12.72-45.94h0l210.72-70.88a4,4,0,0,0-.46-7.62l-246.59-52.31-9.76-35.26,419.87,90.16A3,3,0,0,1,1632.36,1532.28Z" fill="#e6e6e6"/><path d="M1256.15,1655.38l14-4.55L1631,1533.19a2.7,2.7,0,0,0,1.34-.91c.28,10.64-18.48,17.84-27.42,20.8l-90.73,30.29-108.65,36.29-91.68,30.63-25.53,8.5c-2.77,1-5.52,1.92-8.32,2.78-7.44,2.32-24.77-2.11-26.84-5.86l-.13-.39a5.1,5.1,0,0,0,2.6-1.47Z" fill="#b7b7b7"/><path d="M1567.09,817.24a17.69,17.69,0,0,1-.24-14.76s20,18.6,39.92,23.78l.43.55c-4.45,3.45-7.9,7.72-9.3,13.3l-3.51,1.4c-8.78-7.89-18.33-16.46-28.67-21.56Z" fill="#ffe5bb"/><path d="M1489.26,996.67l1.83-.15c10,12.81,38.52,15.12,53.16,6.28l7.23.55c11.34,95.95-32.09,160.58-24.4,271.17,6.65,95.1,33.15,159.4,30.83,210.12l-.64,3.14-76.89-15.52c-4.15-84.19-36.38-122.92-43.07-221.22a156.71,156.71,0,0,1-.09-18.39l-.33,0c-41,55.69-136,149.11-180.5,157.13-10.43,1.89-41.11,9.28-53.8,10.43l-1.89.52-39.1-141.12.06,0,37.3-9.49a28,28,0,0,1,5.37-.55v-.64c77.34-70.7,139-208,207.48-288.46,19.34-2.26,30.17-7.84,30.51-11.44.18-2.32,4.94.48,10.89-8.79l1.19-.39a73.34,73.34,0,0,0,9.75,20.4l.25-.06c.85,3.66,1.86,7.29,3,10.8A43.42,43.42,0,0,0,1489.26,996.67Z" fill="#c0a0f2"/><path d="M1543.67,865.06l0,.28c-24.31,1.4-49.81,5.58-67,12.56l-.36-.88c1.15-7,2-10.65,2.71-17.33l-1-.91c.37-.43.71-.86,1.07-1.22C1490.63,845.24,1529.52,860.3,1543.67,865.06Z" fill="#ffe5bb"/><path d="M1409.65,962a209.58,209.58,0,0,1-24.64,1.4c-31.84,0-75.78-6.92-79.54-14.42s-21.89-16.23-31.14-57.16-7.47-85.58-7.47-85.58c0,4.6,64.71,8.35,117.87,8.35,39.1,0,72.75-2,87.81-4.91l.4,1.77c-11.71,2.9-19.89,12.08-31.14,37.73-11.92,27.33-25,41-13.76,48.28,18.58,13,38.19-25.1,49.93-38.67l1,.91c-.67,6.68-1.56,10.28-2.71,17.33l.36.88c-6.16,2.5-11.28,5.37-14.91,8.57-12,11-13.52,33.37-7.35,53.32l-1.19.39c-6,9.27-10.71,6.47-10.89,8.79C1442,952.57,1429,959.74,1409.65,962Z" fill="#fff"/><path d="M1481,806.23c0,1.22-3,2.38-8.45,3.44-15.06,2.87-48.71,4.91-87.81,4.91-53.16,0-117.87-3.75-117.87-8.35s64.71-8.36,117.87-8.36S1481,801.62,1481,806.23Z" fill="#e5e5e5"/><path d="M1467.2,1524.84a4,4,0,0,1,.46,7.62l-210.72,70.88h0l-36.3-130.81Z" fill="#d1d1d1"/><path d="M1220.61,1472.53l36.3,130.81,12.72,45.94.51,1.55-14,4.55-.49-1.53a5.49,5.49,0,0,0,1.4-5.37L1128,1191a29.64,29.64,0,0,0-22.08-20.89L555.53,1045.26a8.13,8.13,0,0,0-9.55,5.54l-.24-.08c4.45-13.55,18.82-16.35,28.88-14.1,9,2,8.7,1.34,17.72,3.36,40,9,450.4,103.15,492.15,112.51l32.24,6.9c8.3,1.86,20.59,12.71,22.88,20.92l22,79.27h0l39.1,141.12,4.54,16.38,5.61,20.19Z" fill="#f2f2f2"/><path d="M1257.06,1648.48a5.49,5.49,0,0,1-1.4,5.37,5.1,5.1,0,0,1-2.6,1.47,5.26,5.26,0,0,1-2.5,0l-545.27-123.7a45.73,45.73,0,0,1-34.13-32.27L545.92,1055.44a8.15,8.15,0,0,1,9.61-10.18l550.37,124.83A29.64,29.64,0,0,1,1128,1191ZM896.92,1401.65c13.54-4.61,18.48-27.06,11.07-50.11s-24.4-38.07-37.94-33.46-18.49,27.05-11.08,50.14S883.37,1406.25,896.92,1401.65Z" fill="#ededed"/><path d="M908,1351.54c7.41,23,2.47,45.5-11.07,50.11s-30.53-10.37-37.95-33.43-2.47-45.54,11.08-50.14S900.58,1328.45,908,1351.54Z" fill="#b7b7b7"/><path d="M1366.37,348.45c14.32-20.62,43.62-50.79,72-62.57,16.62-7.23,26.28-29,26.28-29s49.1-36,97.81-33.82c28,1.66,103.75,30.36,121.38,39.51,18.77,10,48.45,8.39,76,6,24.49-2-7.11,17.38-7.11,17.38l25.61,23.6s66.7,63.84,80.75,118.77c14.18,56,8.45,109.22,36.83,179.89,19.51,49.1,72.27,67.27,105.74,104.32,14.33,15.74,22.81,47.84,30,72.71,2,8,5.59,43.5-3.47,62.81-59.64-48.11-230.4-100.85-230.4-100.85s-28.1-68.59-45.39-55.33S1582.6,828.28,1568,820.06c-20.46-11.53-81.41-4-87-13.83s-40.2-7.64-67-8.51c-48-40.2-41.25-91.67-44-141.8S1342.73,512,1342.47,470.29,1352.06,369.07,1366.37,348.45Z" fill="#e82d5e" fill-rule="evenodd"/><path d="M1565.42,799s-20.7,9.53-46.94-10.91c-16-12.44-35.89-31.6-54.52-57.1-8.75-12.31-18.51-32.74-24.85-42.26-20.15-29.44-21.77-83.86-24.56-97.94-8.35-42.24-4.4-76.74-4.65-95.26.13-7.23,3.19-40.59,23.24-53.4,35.27-22.94,80.94-20.38,84.74-6.43,4.81,22.08,28.13,68.64,65.29,77.41s85.88,2.71,85.88,2.71,17.62,17.38,22.18,45.67c4.67,29.31-8.79,61.9-8.79,61.9a66.65,66.65,0,0,0,31.1-31.7c10.66-21.94,12.46-57.2,12.46-57.2s9-2.15,21-4.68c26.26-4.3,35.64,21.32,37.92,31.35,10.38,50.23-45.58,72.66-45.58,72.66s13,66.93,19.11,80.17c-13,51.87-135.72,109.3-151.29,113.25-14.43,3.66-12.69,18.16-12.69,18.16S1566,818.91,1568,820.06,1565.42,799,1565.42,799Z" fill="#ffe4ce" fill-rule="evenodd"/><path d="M1408.12,575.79c6.08,31.72,7.74,64.68,18.15,95.43a255,255,0,0,0,64.61,101.35c12.66,12.09,27.11,23.71,43.63,30,9.78,3.71,19.46,3.37,29.55,1.29,32.31-6.64,62.47-25.3,88.27-45.09,17.69-13.55,32.87-28.7,45.58-47a192.37,192.37,0,0,0,16.36-27.62c2.49-5.3-5.39-10-7.9-4.62a187.42,187.42,0,0,1-45.2,60.46,298.54,298.54,0,0,1-51,35.81c-12.61,7-25.84,13.1-39.73,17.1-8.31,2.4-17.37,4.83-26,3.1-14.48-2.89-27.67-12.88-38.64-22.24-30.09-25.69-53.42-60-67.72-96.83-12.85-33.08-14.46-69-21.09-103.51-1.11-5.78-9.93-3.33-8.82,2.43Z" fill="#571519"/><path d="M1484.25,559a144.06,144.06,0,0,1,6.75,16.37c1.38,4.1,2.89,8.5,2.91,12.87,0,7.38-3,12.83-7.35,18.54-3.69,4.92-6.31,10-5.35,16.38,1.14,7.57,6.48,13.43,12.41,17.85a56.44,56.44,0,0,0,13.6,7.46c5.5,2.11,7.88-6.73,2.43-8.82-1.19-.46.66.33-.68-.29s-2.57-1.2-3.83-1.88a43.11,43.11,0,0,1-9.14-6.3c-2.89-2.69-5.57-6.08-5.89-10.17-.23-3,1.31-5.42,3-7.78,5.14-7.2,9.38-13.6,9.9-22.78.69-12.32-5.68-25.26-10.86-36.07-2.54-5.31-10.43-.67-7.9,4.62Z" fill="#571519"/><path d="M1438.75,579.58c-4.43-10.34-3.35-20.82,3.77-25,6.58-2.81,16.39,1.89,21.21,13.17s3.36,20.82-3.76,25C1453.39,595.57,1443.18,589.92,1438.75,579.58Z" fill="#571519" fill-rule="evenodd"/><path d="M1466.9,505.81c-11.89-4.21-25-5-37.1-.95a45,45,0,0,0-15.07,8c-1.87,1.61-1.65,4.82,0,6.47a4.67,4.67,0,0,0,6.47,0c.94-.8-1,.65.06-.05.78-.54,1.55-1.08,2.36-1.58a38.47,38.47,0,0,1,8.61-4.05c10.64-3.55,21.71-2.77,32.24,1,2.33.82,5-.94,5.62-3.2a4.66,4.66,0,0,0-3.19-5.63Z" fill="#571519"/><path d="M1432.57,568.06c.08-.06,1-.74.53-.42l.55-.4c.52-.37,1-.72,1.6-1.06a33,33,0,0,1,3.42-1.84c.24-.11.93-.39.33-.15l1.06-.4c.65-.23,1.31-.44,2-.63a37.8,37.8,0,0,1,4.16-.9c7.23-1,15.39.64,22.63,2.82,5.65,1.71,8.06-7.12,2.43-8.82-8.78-2.65-18-4.23-27.14-2.87a36.82,36.82,0,0,0-18,8.2c-1.91,1.56-1.62,4.85,0,6.47,1.9,1.9,4.55,1.57,6.47,0Z" fill="#571519"/><path d="M1591,559.16c-5.11-10-14.76-15.43-21.6-13.09-7.29,3.72-10,14.26-4.84,24.29s14.76,15.43,21.6,13.08C1592.53,580.19,1595.19,569.65,1591,559.16Z" fill="#571519" fill-rule="evenodd"/><path d="M1544.1,504.75c10.59-8.5,26.18-8.43,38.93-6.47a111.93,111.93,0,0,1,23.27,6c5.5,2.13,7.88-6.72,2.43-8.83A115.18,115.18,0,0,0,1582,489c-15.37-2-31.82-.72-44.32,9.32-4.59,3.68,1.92,10.12,6.47,6.46Z" fill="#571519"/><path d="M1603.69,548.23c-7.3-4.47-16.69-6-25.12-5.91-9.45.06-19.52,2.41-26.41,9.26-4.18,4.16,2.29,10.63,6.47,6.47,5.17-5.14,13.18-6.61,20.54-6.58,6.89,0,14.48,1.34,19.91,4.66,5,3.08,9.63-4.83,4.61-7.9Z" fill="#571519"/><path d="M1533,680.63c-27.56,1.94-46.44,8.09-46.44,8.09s13.2,36.64,48.9,33.82c32.65-2.49,43.74-42.77,43.74-42.77S1556.52,679.13,1533,680.63Z" fill="#fff" fill-rule="evenodd"/><path d="M1533,676.06c-15.92,1.17-32.4,3.31-47.66,8.25-2.21.71-4.07,3.22-3.19,5.63,5.48,15.07,17.65,28.55,32.66,34.34a47.4,47.4,0,0,0,37.41-1.76c10-5,17.77-13.78,23.36-23.29a78.19,78.19,0,0,0,8-18.25,4.63,4.63,0,0,0-4.41-5.79c-15.39-.42-30.84-.09-46.2.87-5.85.36-5.89,9.51,0,9.15,15.36-1,30.81-1.29,46.2-.87-1.47-1.93-3-3.86-4.41-5.79-3.41,12.24-11.24,25.64-22.2,33.13-18,12.33-41,5.77-53.8-10.7a62.05,62.05,0,0,1-6.12-9.77c-.56-1.11-1.09-2.23-1.59-3.37.63,1.44,0,.07-.11-.34-1.07,1.88-2.13,3.76-3.2,5.63,14.51-4.69,30.09-6.81,45.23-7.92C1538.86,684.78,1538.91,675.62,1533,676.06Z" fill="#571519"/><path d="M1466.48,435.65a64.8,64.8,0,0,1,10.32-21c3.6-4.86,9.7-11.21,15.84-9.3,4.3,1.33,7.4,5.44,9.71,9.08,4.18,6.59,6.87,14,9.91,21.17,5.48,12.89,11.06,25.8,17.79,38.11,10.3,18.84,24.06,36.15,45,43.39,14.63,5.06,30.86,7.11,46.27,7.57a185.22,185.22,0,0,0,39.81-3.22c14.49-2.73,29.65-6.92,42.72-14,4.77-2.59,1.35-9.32-3.53-8.36-.6.12-1.21.2-1.82.29,1.86-.28-.58.06-1.1.11-1.05.11-2.1.2-3.16.27a105.78,105.78,0,0,1-18.32-.41,101.19,101.19,0,0,1-52.32-21.63c-12.2-9.87-21.88-22.21-29.59-35.82-2.9-5.13-10.81-.52-7.9,4.62,13.17,23.25,32.35,42.95,57.16,53.53a112.4,112.4,0,0,0,49.11,9,70.85,70.85,0,0,0,10.37-1.11c-1.17-2.79-2.35-5.57-3.52-8.36-10.59,5.73-23.13,9.35-35.39,12-27.8,6.08-58.81,6-86-3.17-21-7.1-33.53-26.55-43.12-45.4-6.89-13.53-12.66-27.59-18.6-41.55-4.15-9.75-10.52-22.53-21.94-25.15-9.56-2.2-17.93,4.32-23.52,11.37a73.16,73.16,0,0,0-13,25.49c-1.6,5.68,7.23,8.11,8.82,2.44Z" fill="#571519"/><path d="M1775,311.72c36.59,28.66,65.22,69.49,78.88,114,5.19,16.88,7.2,34.32,8.87,51.84,1.94,20.41,3.5,40.86,6.38,61.18,5.84,41.28,17.73,83,49.41,112.08,13.89,12.74,30.16,22.3,45.45,33.2,17.31,12.34,32.24,27.21,43,45.63,11,18.69,17.4,39.94,20.53,61.3,2.29,15.6,3.47,33-.77,48.41a24.88,24.88,0,0,1-2.5,6.35c-3,5.11,5,9.72,7.9,4.61s4.28-11.16,5.11-17a134.18,134.18,0,0,0,1-25.42,191.91,191.91,0,0,0-13.11-61.54,148.92,148.92,0,0,0-37.73-55.23c-14.42-13.14-31.28-23-47-34.33-16.71-12-31.08-26.72-40.82-45-9.88-18.56-15.41-39.18-19.16-59.77-3.8-20.83-5.64-41.95-7.53-63-1.6-17.86-3-36-6.94-53.5-10.29-45.22-37.42-87.91-71.38-119.09q-6.36-5.84-13.16-11.16c-4.58-3.59-11.1,2.84-6.47,6.47Z" fill="#571519"/><path d="M1457.12,374.6c-4.64-23.41-9-47.62-7.38-71.59,1.24-17.88,7.22-35.86,23.2-45.68,21.85-13.43,43.25-26.65,69-30.91,18.06-3,36.69-1.5,54.43,2.7a217.56,217.56,0,0,1,34.47,11.42c13.45,5.67,26,13.1,39.15,19.28,19.38,9.09,40.51,15.47,62.08,15.33a106.87,106.87,0,0,0,31.28-5.24c.47-.15,1-.27,1.42-.43,1.12-.4.47,0,.08-.07-2.64-.55-3.1-1.54-3.85-3.73.17.5-.29-1.17,0-.39.2.5.23-.42,0,0s-.45.86-.7,1.28c-2.53,4.26-6.84,8.33-11,11.87-13.26,11.18-30.53,18.4-48,17a57.18,57.18,0,0,1-15.08-3.47c-5.54-2-7.93,6.82-2.43,8.83,20,7.29,41.67,3.69,59.74-7.11a87,87,0,0,0,18.71-14.87c3.06-3.26,7.72-8,7.91-12.81.41-10.4-15.48-2.89-20.27-1.87-16.58,3.54-33.91,1.76-50.11-2.8-13.9-3.91-26.76-10-39.45-16.78a292.28,292.28,0,0,0-40-17.91c-20.64-7.32-42.66-11.81-64.63-10.79A135,135,0,0,0,1508.26,227c-11.82,5.1-22.74,11.82-33.65,18.59-6.76,4.2-13.51,8.18-18.75,14.32a61.69,61.69,0,0,0-12.68,25.62c-5.66,23.15-2.44,48,1.38,71.15,1.12,6.81,2.39,13.59,3.73,20.36,1.15,5.77,10,3.32,8.83-2.44Z" fill="#571519"/><path d="M1437,437.11c-15.69,4.7-24.17,18.29-27.69,33.59-4.52,19.66-3.24,40.52-1.86,60.47,1.3,18.78,4.11,38.61-1.56,57-1.33,4.32-3.58,9-6.18,11.82a27.29,27.29,0,0,1-2,1.92,5.83,5.83,0,0,1-1.55,1.14c-.66.4-1.33.77-2,1.12-.15.08-1.12.49-.53.25s-.61.22-.82.28c-.74.21-1.47.41-2.21.59-.33.08-.67.12-1,.17.2,0,.79-.05-.14,0-1.2.06-2.36,0-3.55,0-1.43-.05.2.09-.34,0a5.31,5.31,0,0,0-1-.2,3.48,3.48,0,0,1-.92-.24l2.74,6.72c10.65-19.18,12.25-44.7.31-63.55-3.14-5-11.06-.37-7.9,4.62,10.22,16.13,8.75,38-.31,54.31a4.65,4.65,0,0,0,2.73,6.73c11.54,3.76,23.52-3.33,29.24-13.18,7.71-13.25,8.3-30.24,7.83-45.12-.69-22.2-3.93-44.19-2.37-66.45,1.17-16.66,5.22-37.64,23.53-43.13,5.63-1.68,3.23-10.52-2.43-8.82Z" fill="#571519"/><path d="M1421.77,290.93c-22.43,13.13-42,29.34-55.31,52-8.6,14.69-14.55,30.88-19,47.26a285.32,285.32,0,0,0-10,65.27c-1.14,32.92,3.78,65.32,10.8,97.38,4.5,20.54,9.87,41,13.24,61.74,3.75,23.18,3.48,46.67,4.36,70.06,1.57,42,9.12,88.79,45.18,115.56,4.73,3.52,9.3-4.42,4.62-7.9-30.4-22.57-38.31-63.2-40.25-98.71-1.22-22.36-.68-44.82-3.13-67.11-2.41-21.84-7.83-43.12-12.65-64.5-6.75-29.94-12.59-59.94-13.14-90.74a273.67,273.67,0,0,1,5.86-62.73c3.74-17.38,8.79-34.76,16.57-50.8A124.17,124.17,0,0,1,1394.43,322c9.55-9.17,20.57-16.48,32-23.15,5.08-3,.48-10.89-4.61-7.9Z" fill="#571519"/><path d="M1667,520c20.6,25.46,26.36,60.15,23,92a55.88,55.88,0,0,1-1,6.78c-.61,3.09,2.1,7,5.63,5.62,5.91-2.22,11.14-6.59,15.36-11.17,10.89-11.82,16.56-27.53,18.81-43.24,2.16-15.13,1.58-30.39-.45-45.5-.33-2.47-1.86-4.55-4.58-4.58-2.21,0-4.9,2.13-4.57,4.58,2.89,21.52,3.49,44.87-5.06,65.3a60.34,60.34,0,0,1-9.25,15.42,50.6,50.6,0,0,1-5.07,5.18q-1.07.95-2.19,1.83c.86-.67-1.12.79-1.56,1.08-1.12.75-2.28,1.41-3.46,2.05a11.28,11.28,0,0,0-1,.5c-.58.4,1.35-.54.64-.27,1.87,1.88,3.75,3.75,5.63,5.63,4.93-24.84,2.44-52.94-6.48-76.51a112.74,112.74,0,0,0-17.86-31.21c-3.71-4.58-10.15,1.93-6.48,6.47Z" fill="#571519"/><path d="M1829.11,629.52c4.7,33.15,16.53,64.35,37.7,90.49,15.49,19.12,35.16,33.87,52.14,51.51,8.57,8.9,16,18.73,20.81,30.16,1,2.3,4.31,2.76,6.26,1.65,2.37-1.35,2.6-4,1.64-6.27-9-21.15-26.43-36.57-43.09-51.68-19.62-17.81-37.78-36.58-49.71-60.56-9-18.08-14.1-37.81-16.93-57.73-.82-5.81-9.64-3.34-8.82,2.43Z" fill="#571519"/><path d="M1731.6,540.11c9-4.56,19.56-7.37,29.45-3.88,7.43,2.63,13,8.64,16.49,15.55,8.32,16.55,3.09,36.74-7.16,51.18a61.93,61.93,0,0,1-29.66,22c-5.51,2-3.13,10.81,2.43,8.82,23.92-8.55,42.63-29,46.77-54.4,3.18-19.53-4.07-42.28-23.38-50.78-13.09-5.76-27.25-2.63-39.56,3.58-5.25,2.66-.63,10.55,4.62,7.9Z" fill="#571519"/><path d="M1748.44,586.05a35.47,35.47,0,0,1,4.31-7.07l-.72.92a26.58,26.58,0,0,1,4.6-4.7l-.93.72a16.42,16.42,0,0,1,3.47-2l-1.1.46.33-.13a4.94,4.94,0,0,0,2.73-2.1,4.55,4.55,0,0,0-1.64-6.26,4.41,4.41,0,0,0-3.52-.46,23.92,23.92,0,0,0-9.62,7.07,42.89,42.89,0,0,0-5.08,7.51c-.26.48-.51,1-.73,1.47a5,5,0,0,0-.46,3.52,4.69,4.69,0,0,0,2.1,2.74,4.64,4.64,0,0,0,3.53.46,4.42,4.42,0,0,0,2.73-2.1Z" fill="#571519"/><path d="M1738.52,655.23c3.69,20.77,9.3,41.22,15.5,61.37,1.73,5.61,10.56,3.22,8.82-2.44-6.19-20.14-11.81-40.59-15.49-61.36-1-5.79-9.85-3.34-8.83,2.43Z" fill="#571519"/><path d="M1569.36,803.06c3.62,8.9,6.59,18.07,9.39,27.26a4.58,4.58,0,0,0,8.83-2.44c-2.81-9.19-5.78-18.35-9.39-27.26-.9-2.2-3.09-4-5.63-3.19-2.13.69-4.16,3.25-3.2,5.63Z" fill="#571519"/><path d="M549.93,1052.53c2.3-7,8.32-11.18,15.57-11.92,6.64-.69,13.6,1.48,20.11,2.66,4.81.87,9.58,2,14.36,3.13q18.74,4.24,37.48,8.54,63.49,14.5,127,29l152.12,34.83q62.37,14.27,124.73,28.52l35.55,8.1c12.8,2.89,25.74,5.2,38.48,8.31,8.12,2,17.58,10,20,18.12.54,1.81,1,3.64,1.51,5.46q3.85,13.92,7.72,27.84l29.3,105.68,37.74,136.08q17,61.36,34,122.74,9.38,33.84,18.76,67.67l.87,3.14c1.57,5.67,10.4,3.27,8.82-2.43l-13.44-48.49q-16-57.87-32.09-115.74l-38.37-138.39-32.16-116c-4.65-16.76-8.83-33.74-14-50.36-3.5-11.33-15.66-21.8-27.13-24.35-9.56-2.13-19.16-4.11-28.74-6.16-8.73-1.87-17.42-3.91-26.13-5.89q-56.67-12.92-113.34-25.91l-151.58-34.7q-68.7-15.73-137.41-31.45c-27.92-6.38-55.81-12.74-83.86-18.44-14.7-3-29.82,2.91-34.72,17.9-1.83,5.61,7,8,8.82,2.43Z" fill="#571519"/><path d="M1251.78,1650.93l-13-2.94-35.46-8-52.92-12-65.3-14.82-72.63-16.47-74.88-17-72.07-16.35-64.2-14.56-51.27-11.63-33.25-7.54c-7.22-1.64-14.83-2.87-21.36-6.46a42,42,0,0,1-20.1-25.58c-.66-2.3-1.3-4.61-1.95-6.91q-4.77-16.89-9.53-33.8l-15.33-54.34Q639,1368.74,629.52,1335q-10.35-36.72-20.71-73.44l-20.31-72q-8.91-31.59-17.83-63.19-6.63-23.53-13.28-47.08c-2.22-7.88-4.51-15.74-6.67-23.64-.79-2.89-.25-6.31,3.76-5.91a41.27,41.27,0,0,1,4.78,1.08l27.11,6.15,46.13,10.46,60.66,13.76,70,15.89,74.47,16.88,73.92,16.77L980,1146.23l58,13.14,42.53,9.65,22.14,5c4.45,1,8.72,2.39,12.38,5.3,4.8,3.82,7.49,9,9.11,14.8q3.45,12.21,6.89,24.42,6.64,23.54,13.28,47.07,8.85,31.39,17.72,62.81,10.1,35.82,20.21,71.65l20.76,73.59q9.67,34.33,19.36,68.65,8,28.39,16,56.8,5.36,19,10.73,38l2.7,9.58c.53,1.86,1.94,4.42-1.24,4-2.48-.33-4.56,2.33-4.58,4.57,0,2.74,2.14,4.26,4.58,4.58,7.26.95,12.43-5.92,10.88-12.72-.12-.5-.29-1-.43-1.5q-1.2-4.31-2.42-8.59-5.13-18.19-10.27-36.4-7.95-28.2-15.91-56.42l-19.4-68.75-20.94-74.23q-10.23-36.3-20.48-72.59l-18.09-64.13q-6.75-24-13.51-47.91-3.52-12.47-7-24.92c-3.81-13.51-13.36-23.22-27.2-26.39-6.91-1.58-13.83-3.13-20.74-4.7l-42.12-9.55L985,1138l-68.81-15.61-74.57-16.91L766,1088.31l-70.74-16-61.13-13.86-46.43-10.54-26.62-6c-1.42-.33-2.85-.7-4.28-1-10-1.9-17.67,6.69-15.13,16.38,1.85,7.07,4,14.08,6,21.11l12.9,45.73q8.85,31.41,17.71,62.8,10.26,36.34,20.5,72.68,10.49,37.13,21,74.26,9.69,34.32,19.37,68.64l15.64,55.45q4.9,17.37,9.8,34.73c.68,2.42,1.36,4.85,2,7.26a51.65,51.65,0,0,0,18.53,27.35c8.4,6.34,17.84,8.54,27.72,10.78l32.13,7.29,50.83,11.53,64.65,14.67L933,1588l75.61,17.15L1082,1621.8l66,15,53.58,12.15,35.42,8,12.33,2.79C1255.08,1661.05,1257.53,1652.24,1251.78,1650.93Z" fill="#571519"/><path d="M1209.54,1441.66l39,8.38,94,20.18,116.32,25,105.2,22.59,60.73,13c.89.19,3.57,1.29,4.45,1,.06,0,.23.09.28.06-.51.39-1.59-4.37.25-3-.12-.09-1,.33-1.12.36-5.91,1.33-11.78,3.84-17.53,5.72l-81.22,26.47-112,36.52-103.35,33.69L1257,1650.3l-2.67.87c-5.58,1.82-3.19,10.66,2.43,8.83l41.68-13.59,97.63-31.82,114.57-37.35,91.55-29.84,24.69-8.05c1.65-.54,3.33-1,5-1.61,7-2.55,8-12.42.08-14.72-3.76-1.09-7.76-1.67-11.59-2.49l-29.93-6.43-97-20.83L1375.7,1468l-104.83-22.51-56.3-12.09-2.6-.56c-5.74-1.23-8.2,7.59-2.43,8.82Z" fill="#571519"/><path d="M1627.79,1532.05c.08,7.38-11.85,12-17.38,14.18-11.56,4.65-23.68,8.11-35.49,12.06l-82.66,27.6L1327,1641.08c-15.14,5.06-30.25,10.17-45.4,15.19a26.44,26.44,0,0,1-14.39.53,43.45,43.45,0,0,1-7-2c-.78-.3-1.52-.67-2.27-1-.52-.26-1.17-.92-.83-.41-3.23-4.9-11.15-.32-7.9,4.61,4.44,6.75,16.44,8.33,23.76,8.73,5.69.3,10.54-1.49,15.88-3.29,7.31-2.47,14.64-4.89,22-7.34l88.06-29.41,176.28-58.87c13.75-4.59,28-8.49,41.28-14.29,8.86-3.87,20.58-10.37,20.47-21.49-.06-5.89-9.21-5.9-9.15,0Z" fill="#571519"/><path d="M1219.37,1477l75.94,16.1,129,27.35,37.54,8c.95.2,2.49.87,3.46.73.17,0,.45.19.61.13-.13,0-.15-1.47.44-1.16-1-.51-6.44,2.17-7.41,2.5l-107.62,36.2-94,31.63-1.61.54c-5.55,1.87-3.17,10.71,2.43,8.82l82.43-27.73,116.1-39c3.75-1.26,7.53-2.47,11.26-3.79,2.17-.77,4.22-1.72,5.55-3.73a8.65,8.65,0,0,0-5.18-13.06c-8.3-2.3-17-3.61-25.44-5.4L1317,1488.31l-93.66-19.85-1.54-.33c-5.74-1.22-8.2,7.6-2.43,8.82Z" fill="#571519"/><path d="M903.58,1352.74c3.8,12.18,6.5,30.41-2.89,41-7.84,8.81-19.06,1.79-25.33-5.13-10.26-11.3-15.64-27.85-15.24-43,.26-9.41,4.1-25.15,16.55-23.69,5.78.68,10.79,4.77,14.6,8.88,5.75,6.21,9.67,14,12.31,22,1.84,5.56,10.68,3.18,8.83-2.43-4.93-14.87-15.1-32.65-31.5-36.87-15.58-4-26.38,9.06-29,23.13-3.46,18.74,2.33,39.74,13.88,54.75,8.18,10.64,22.86,20.87,36.34,12.94,17.57-10.34,15.37-37.55,10.26-54C910.66,1344.7,901.82,1347.1,903.58,1352.74Z" fill="#571519"/><path d="M1755.39,705.58c1.23,7.34-3.18,15.25-6.71,21.4a92.45,92.45,0,0,1-11.74,16c-9.28,10.22-20.29,18.65-31.77,26.24-25.72,17-52.92,32.45-81.54,43.94-12.56,5.05-26.22,11.62-30.16,25.74-1.58,5.69,7.24,8.11,8.83,2.44,3.39-12.18,17.59-17,28.15-21.08,15.63-6.1,30.39-13.91,44.9-22.3,24.71-14.28,51.06-28.73,70-50.65,9.91-11.49,21.6-28.21,18.91-44.16-1-5.79-9.8-3.34-8.82,2.43Z" fill="#571519"/><path d="M1616.1,846.66a4.32,4.32,0,0,1,4.43.18,15.75,15.75,0,0,1,4.71,4.11,21.15,21.15,0,0,1,1.52,2.27c.23.4.43.82.65,1.22.5.93-.18-.61.06.14.37,1.17.82,2.32,1.2,3.49,2.23,6.87,4.21,13.82,6.19,20.77.55,1.94,1.11,3.89,1.65,5.84,1.59,5.66,10.42,3.26,8.82-2.44s-3.17-11.21-4.83-16.8c-2.23-7.54-4-15.55-9.32-21.59-4.22-4.76-11.1-8.65-17.51-6-2.28.94-3.9,3-3.19,5.62.59,2.16,3.32,4.15,5.62,3.2Z" fill="#571519"/><path d="M1661.89,900.83c47.22-23.41,90.58-55.34,125.26-95.13,6.61-7.59,13.15-15.4,18.63-23.85,3.51-5.43,6.9-11.32,5.64-18-1.35-7.12-5.09-14-8.38-20.37-4.43-8.59-9.32-17-14.33-25.2-4.49-7.38-9.09-14.69-13.86-21.89-2-3-4-6.32-7.08-8.36-5.06-3.33-11-1.56-16.53-.66-5.8,1-3.34,9.77,2.43,8.83,3.81-.63,7.9-2.38,10.71,1a60.51,60.51,0,0,1,3.44,5.09q6,9.12,11.69,18.44c4.77,7.79,9.41,15.67,13.73,23.72,3.31,6.19,6.8,12.58,8.76,19.35.17.61.32,1.21.47,1.82.08.36.21,1.53.13.57a7.62,7.62,0,0,1,.05,1.35c-.05.74,0,0,0-.16a7.23,7.23,0,0,1-.25,1,35.14,35.14,0,0,1-4,7.85c-4.91,7.78-10.85,14.9-16.86,21.85A361.46,361.46,0,0,1,1739,840a420.79,420.79,0,0,1-81.71,52.93c-5.28,2.61-.65,10.51,4.61,7.9Z" fill="#571519"/><path d="M1571.6,815.94c-.26-.44-.48-.9-.71-1.36-.4-.81.35.94.07.15-.11-.28-.21-.56-.31-.84a18.54,18.54,0,0,1-.71-3.12c0,.41.11.81.16,1.22a18.75,18.75,0,0,1,0-4.85c-.06.4-.11.81-.16,1.21a19.09,19.09,0,0,1,.46-2.25c.09-.33.19-.66.3-1l.22-.6c.17-.51-.49,1.11-.12.27a5,5,0,0,0,.47-3.53,4.69,4.69,0,0,0-2.11-2.73,4.57,4.57,0,0,0-3.52-.46,4.41,4.41,0,0,0-2.74,2.1,22.13,22.13,0,0,0,.8,20.39,4.62,4.62,0,0,0,6.26,1.64,4.67,4.67,0,0,0,1.64-6.26Z" fill="#571519"/><path d="M1768.45,1052.12a261.1,261.1,0,0,0-13.93-41.5,147,147,0,0,0-9.49-19.1,109.44,109.44,0,0,0-12.47-15.9c-9.56-10.54-18.56-21.53-28-32.16-10.07-11.3-20.47-22.31-31-33.14-21.25-21.79-43.06-43.08-65.92-63.19-10.07-8.86-19.76-18.41-30.87-26a73,73,0,0,0-27.39-11.2c-19.31-3.9-39.49-5-59.15-4.55-6.42.13-13.25.16-19.47,1.93-7.71,2.2-13.74,7.24-18.55,13.51-7.56,9.86-12,21.48-17.29,32.6-4.74,10-11.23,19.61-14.56,30.18-2.4,7.6-.44,14.59,6.7,18.63s15.31,2.5,21.88-2c7.75-5.33,13.64-13,19.18-20.42,2.72-3.66,5.32-7.4,8-11.09,2-2.8,4-6,6.66-8.34,5.32-4.68,15-3.12,21.35-2.05a186.07,186.07,0,0,1,28.21,7.66c3.4,1.15,6.78,2.35,10.17,3.5,5.6,1.88,8-7,2.44-8.83-16.06-5.42-32.62-12-49.78-12.38-7.5-.17-15.14,1.3-20.28,7.16-5.29,6-9.62,12.93-14.38,19.38-4.9,6.62-10.32,13.93-17.44,18.33-4.36,2.7-11.6,3.83-14.39-1.5-.78-1.49.17-4.74,1-7a107.44,107.44,0,0,1,6.06-12.56c6-11.46,10.84-23.48,16.95-34.87,3.79-7.07,8.31-14.78,15.46-18.93,5-2.93,9.71-3.18,15.09-3.48a276.94,276.94,0,0,1,54.22,2.34c8.21,1.17,16.86,2.57,24.48,6,11.44,5.15,20.82,14,30,22.32,21.22,19.11,42.26,38.22,62.43,58.45,20.37,20.43,40.35,41.3,58.79,63.5,8.07,9.7,17.81,18.42,24.36,29.29,7,11.67,12.13,24.82,16.39,37.73,2.2,6.63,4.09,13.35,5.76,20.13,1.41,5.71,10.24,3.29,8.83-2.43Z" fill="#571519"/><path d="M1560.21,860.17c-27.18.23-56.09,2.73-81.78,12.17-9.63,3.55-19.23,8.22-25,17-6.24,9.46-7.75,21.74-6.92,32.82a82.51,82.51,0,0,0,13.75,40.3c3.31,4.83,11.24.26,7.91-4.62a73.86,73.86,0,0,1-12.1-31.62c-1.37-10-1-21.38,4.13-30.4,4.38-7.77,12.64-11.71,20.72-14.68,11.17-4.12,23-6.57,34.71-8.39a310.11,310.11,0,0,1,44.63-3.46c5.88-.05,5.9-9.2,0-9.15Z" fill="#571519"/><path d="M1557.51,899.7c-16.36-1.08-32.86-1.19-49.15,1-12.74,1.69-25.75,4.66-36.95,11.21-4.39,2.57-9.08,5.68-11.43,10.34-2.72,5.39-3.17,11.83-3,17.77a108.82,108.82,0,0,0,3.29,22.55c1.77,7.25,3.93,14.57,8,20.92,4.84,7.67,12,14.5,20.52,18,5.44,2.23,7.81-6.61,2.43-8.82,1.55.64.44.2-.33-.21a42.1,42.1,0,0,1-3.67-2.17,38.5,38.5,0,0,1-9.35-8.88c-7.65-10.21-10.47-25-11.47-37.43-.42-5.23-.67-11,1.13-16,1.41-3.94,5.1-6.11,8.55-8.14,9.8-5.73,21.27-8.39,32.42-10,16.21-2.29,32.78-2,49.07-1,5.88.39,5.86-8.76,0-9.15Z" fill="#571519"/><path d="M1556.29,937.93c-16.79-1.69-34.38-1.06-50.65,3.74-5.25,1.55-10.66,3.55-15.19,6.69s-7.23,7.6-8.86,12.93c-3.92,12.77-2.19,28.6,6.65,39,7.5,8.78,20.29,11.93,31.35,12.39,12.52.52,27.53-2.49,35.05-13.48,3.34-4.87-4.59-9.46-7.9-4.62-4.87,7.11-15.68,8.84-23.62,9-9,.17-19.86-1.51-26.68-7.91-7.67-7.21-8.94-19.82-6.64-29.6.86-3.7,2.41-7.72,5.26-9.75a42.07,42.07,0,0,1,12.21-5.52c15.75-4.84,32.72-5.3,49-3.66,5.85.59,5.81-8.57,0-9.15Z" fill="#571519"/><path d="M1520.14,990.43c7.92-1.28,16.32,2.13,23.26,5.58,8.5,4.21,16.42,9.52,24.19,14.94,15.37,10.7,30.92,22.15,48.8,28.27a78.92,78.92,0,0,0,35.18,3.48c5.77-.71,5.85-9.87,0-9.15a72.54,72.54,0,0,1-31.13-2.61c-9.59-3.06-18.4-8.08-26.86-13.45-15.82-10-30.48-22.35-47.52-30.33-8.92-4.18-18.43-7.15-28.35-5.56-5.79.94-3.33,9.76,2.43,8.83Z" fill="#571519"/><path d="M1476.41,806.23c-.14,1.57.75-3.56.92-2.46.11.76.28-1,.3-.26,0,.35-.27.19-.75.34a43.31,43.31,0,0,1-5.1,1.3,158,158,0,0,1-16.08,2.15c-17.43,1.65-35,2.26-52.47,2.55-35.82.61-71.84-.11-107.55-3-5.56-.46-11.14-.94-16.67-1.74-2-.28-3.9-.59-5.82-1-.75-.16-1.49-.36-2.24-.55-.22-.06-.44-.14-.66-.21-1-.29-.17.11-.19,0s-.31-.15-.37-.22c1,1.14,1.7,1.24,1.7,3.21,0,1.75-.55,1.92-1.37,2.95s0-.2,0,0c0-.33-.72.26-.11,0,.21-.07.42-.15.62-.2.79-.21,1.56-.43,2.35-.61a115.39,115.39,0,0,1,13.74-2c33.47-3.47,67.42-4.11,101-4,20.84,0,41.73.55,62.5,2.23,6.6.53,13.21,1.12,19.73,2.28a57.61,57.61,0,0,1,6.34,1.46q.47.14.9.3c1,.37-.89-.27.19.1a1.62,1.62,0,0,1,.52.32c-.79-.88-1.34-.77-1.52-2.91.51,5.82,9.67,5.87,9.15,0-.37-4.14-3.84-5.77-7.4-6.82-5.09-1.5-10.51-2.07-15.75-2.69-18.43-2.19-37.07-2.83-55.62-3.21-38.94-.79-78.29-.19-117.1,3.51-5.75.55-11.53,1.14-17.21,2.21-3.17.6-7.52,1.26-9.39,4.26-5.61,9,13.05,10.38,17.42,10.94,16,2,32.26,2.83,48.4,3.52q30.52,1.31,61.09,1.2c22.37-.11,44.84-.63,67.12-2.84a136.23,136.23,0,0,0,19.7-2.91c3.93-1,8.32-2.53,8.74-7.17C1486.08,800.36,1476.92,800.4,1476.41,806.23Z" fill="#571519"/><path d="M1449.33,944.78c-.09.28-.24.41-.14.3a9.47,9.47,0,0,1-1.13,1.08,19.78,19.78,0,0,1-4.56,2.43,79.49,79.49,0,0,1-15.62,4.17,235.19,235.19,0,0,1-41.13,3.45c-12.24.08-24.5-.37-36.71-1.27-10.42-.76-21-1.71-31.17-4.14a39.39,39.39,0,0,1-8.67-3c-.68-.35-.35-.28-.32,0a17.86,17.86,0,0,0-1.57-4.83c-2.4-5.69-6.73-10-10.86-14.47-15.24-16.41-19.62-38.17-22.64-59.77a355.54,355.54,0,0,1-3.38-62.46c.22-5.89-8.93-5.88-9.15,0a363.8,363.8,0,0,0,2.67,56.95c2.93,24.48,7.11,50.44,24,69.51,4,4.58,8.68,8.34,11,13.83,1,2.33,1.27,5.46,3.55,7.6,2.45,2.31,5.91,3.5,9.06,4.47,10.24,3.12,21.27,4.12,31.88,5,12.86,1.14,25.79,1.68,38.69,1.72,16.3.06,32.8-.93,48.81-4.1,8.56-1.69,23.06-4.29,26.2-14,1.8-5.61-7-8-8.83-2.43Z" fill="#571519"/><path d="M1474.44,859.69c-.08.81-.17,1.63-.27,2.44-.05.38-.11.76-.14,1.14.13-1.38.06-.46,0-.13q-.29,2-.63,4c-.5,2.89-1.05,5.78-1.53,8.68a5,5,0,0,0,.47,3.52,4.65,4.65,0,0,0,2.73,2.11c2.21.5,5.21-.67,5.63-3.2,1-6.18,2.25-12.31,2.88-18.55.24-2.39-2.28-4.68-4.58-4.58a4.7,4.7,0,0,0-4.57,4.58Z" fill="#571519"/><path d="M1632.69,1043.9a380.87,380.87,0,0,1,13.29,62.32c.31,2.47,1.88,4.54,4.58,4.57,2.23,0,4.88-2.12,4.57-4.57a394.31,394.31,0,0,0-13.62-64.76c-1.7-5.62-10.53-3.22-8.82,2.44Z" fill="#571519"/><path d="M1643.15,1080.35c-8.06,6.39-23.23,17.31-14.4,28.72,8.49,11,28.41,4.85,39,1.73,17-5,33.46-12.4,49.38-20.17,14.25-7,28.8-14.36,41.58-23.85,6.58-4.88,12.36-10.87,14.27-19.15,2-8.56-.62-18.58-9.33-22.1-5.46-2.2-7.83,6.64-2.43,8.82,1.75.71,2.66,3.33,3,5a15.79,15.79,0,0,1-2,10.86c-2.46,4.38-6.3,7.43-10.33,10.26-11.16,7.82-23.35,14.26-35.52,20.35a365.71,365.71,0,0,1-42.41,18.36c-7.71,2.7-15.69,5.19-23.8,6.28a39.07,39.07,0,0,1-7.94.36,14.91,14.91,0,0,1-4.83-1.16c-1.42-.69-1.23-.69-1.8-1.72-.14-.25-.52-1.2,0,0a5.31,5.31,0,0,1-.32-1c-.19-1.34-.49,0-.06-1,2.42-5.85,9.65-10.37,14.44-14.17,4.62-3.66-1.9-10.09-6.47-6.47Z" fill="#571519"/><path d="M1944.74,1548.67a140.23,140.23,0,0,0,19.12-19.55c9-11.38,17.94-23.31,25-36.07,10.5-19.1,17.92-40,24.85-60.6,9.28-27.57,17.23-55.57,24.68-83.67,8.27-31.19,15.84-62.56,23-94q10.14-44.54,19.13-89.33c4.76-23.62,9.31-47.29,13.43-71,2.81-16.22,5.74-32.51,6.56-49,1.28-25.57-1.45-51.27-6.64-76.3-4.87-23.57-11.62-46.9-22-68.66-9.81-20.56-23.09-39.63-40.11-54.87-17.24-15.44-37.46-27-58.23-37-44.77-21.53-91.66-38.83-138.61-54.91q-17-5.82-34.06-11.37c-5.61-1.82-8,7-2.43,8.83,46.9,15.27,93.56,31.68,138.93,51.12,42,18,85.06,38.1,111.74,76.9,12.89,18.75,21.95,39.83,28.3,61.61,7.15,24.52,12.19,49.78,13.77,75.3a241.68,241.68,0,0,1-1.26,46c-.11.87.12-.86,0,0,0,.33-.09.66-.13,1-.1.76-.21,1.51-.32,2.26-.23,1.6-.47,3.2-.71,4.79q-.89,5.76-1.85,11.52c-3.6,21.67-7.66,43.26-11.89,64.82q-8.4,42.78-17.82,85.37c-6.88,31.09-14.14,62.08-22,92.94-7.35,28.87-15.17,57.64-24.07,86.08-7,22.21-14.35,44.51-24.16,65.65a166.39,166.39,0,0,1-13.3,23.65c-8.3,12.2-16.76,24.84-27.47,35.11-2.51,2.41-5.2,4.63-7.85,6.9-4.48,3.83,2,10.28,6.47,6.47Z" fill="#571519"/><path d="M1627.18,1108.7c14.74,63.83,28.78,127.88,44.51,191.47,7.56,30.56,16,61,26.63,90.6,10.4,28.9,22.57,57.47,40.11,82.82,7.87,11.37,15.39,23,23.85,34a202.51,202.51,0,0,0,28.44,29.59c4.44,3.82,10.94-2.62,6.47-6.47a200.58,200.58,0,0,1-25.66-26.06c-7.24-9-13.57-18.68-20.08-28.2-8.31-12.17-16.31-24.3-23-37.48a426.08,426.08,0,0,1-18.34-42.47c-22.14-58.86-35-120.75-49.11-181.88l-25-108.31c-1.32-5.74-10.15-3.31-8.82,2.43Z" fill="#571519"/><path d="M1763.6,1035.83c22,53.09,43.44,106.47,69.69,157.63,6.72,13.09,13.63,26.08,21.14,38.74,7.6,12.82,15.93,25.2,23.68,37.94a439.22,439.22,0,0,1,36.35,74.83,447.67,447.67,0,0,1,23.31,90.83c.86,5.81,9.68,3.34,8.82-2.43a450.89,450.89,0,0,0-54-156.63c-7.14-12.55-15.07-24.62-22.75-36.85-8-12.66-15.34-25.64-22.33-38.85-13.44-25.41-25.74-51.36-37.31-77.66-13.1-29.78-25.37-59.92-37.8-90-2.22-5.36-11.08-3-8.83,2.43Z" fill="#571519"/><path d="M1645.05,1175.52c13.28,10,33.46,6.18,48.21,2.31,20.14-5.3,39.54-14.06,57.75-24.08a215.63,215.63,0,0,0,24.36-15.32c4.68-3.46.12-11.41-4.62-7.9-14.09,10.44-29.88,18.85-45.82,26.07-16.81,7.61-35.38,14.83-54,15.83-7.4.4-15.17-.21-21.27-4.81-4.71-3.55-9.27,4.4-4.62,7.9Z" fill="#571519"/><path d="M1866.8,996.37c-16.84,18.94-21.53,44.21-24.28,68.61-2.85,25.18-6.47,50.26-9.38,75.43q-2.6,22.39-3.43,44.94c-.23,5.89,8.92,5.88,9.15,0,.94-24.29,3.71-48.32,7-72.39,1.74-12.75,3.42-25.52,4.79-38.32,1.29-12.05,2.53-24.11,5.37-35.92,3.14-13.07,8.24-25.74,17.26-35.88,3.9-4.39-2.55-10.88-6.47-6.47Z" fill="#571519"/><path d="M2075.84,1142c-2.28,59.09-2.44,118.24-2.45,177.37,0,58.49-.7,117-.27,175.49.25,33.22,1.17,66.49,4.16,99.59.52,5.82,9.68,5.88,9.15,0-5.25-58.16-4.09-116.58-3.9-174.9.19-59.92-.24-119.84.32-179.75.3-32.61.88-65.22,2.14-97.8.22-5.89-8.93-5.88-9.15,0Z" fill="#571519"/><path d="M1458.72,1040q-3.32,51.48-11.5,102.49c-2.7,16.65-6,33.18-9.13,49.75-3.06,16.25-5.69,32.72-5.67,49.29,0,15.5,2,31.17,4.37,46.48q2.89,19,7.6,37.62c5.33,21.25,12.46,42,18.53,63,7.52,26.05,12.35,52.46,13.49,79.58.24,5.86,9.39,5.89,9.15,0a334.27,334.27,0,0,0-11.15-72.44c-5.58-20.88-12.72-41.31-18.46-62.15a417.58,417.58,0,0,1-13.86-79.7c-2.5-33.66,6.72-66.47,12.35-99.37A1099,1099,0,0,0,1467.87,1040c.38-5.88-8.78-5.86-9.15,0Z" fill="#571519"/><path d="M1546.89,1003.34c3.68,31.68,1.37,63.32-4.07,94.66-5.34,30.78-12.73,61.17-17,92.13a442.34,442.34,0,0,0-1.15,108.59c3.69,34.13,10.31,67.77,17.33,101.35,5.78,27.68,12.56,56.07,11.35,84.55-.25,5.89,8.9,5.88,9.15,0,1.07-25.1-4.11-50.22-9.13-74.67-6.64-32.43-13.7-64.78-17.94-97.64-4.74-36.74-6.2-73.48-2-110.35,3.61-31.32,10.89-62,16.64-93,6.49-34.94,10.06-70.19,5.94-105.64-.67-5.79-9.83-5.85-9.15,0Z" fill="#571519"/><path d="M1410.88,956.6c-29.94,35-54.75,74.14-79.41,112.92-26,40.89-51.51,82.26-80.94,120.81-15,19.66-31.2,38.58-49.45,55.32-4.35,4,2.14,10.45,6.47,6.47,33.6-30.83,60.49-68.56,85.7-106.32,27-40.46,52-82.25,79.24-122.58,14-20.73,28.59-41.13,44.86-60.15,3.81-4.46-2.63-11-6.47-6.47Z" fill="#571519"/><path d="M1270.51,1322.56c-1.39-14.32-5.11-28.46-12.46-40.93-6.57-11.13-16-20.1-26.83-27.07-10.09-6.5-21.6-11.54-33.77-8.84-6,1.34-12,3-18,4.58l-19,4.84c-5.7,1.45-3.29,10.28,2.43,8.82l34.19-8.7a34.52,34.52,0,0,1,4.9-1.06c6.34-.67,11.93,1.34,17.51,4.16,10.23,5.19,20.06,12.72,26.85,22.06,8.92,12.28,13.58,27.14,15,42.14.56,5.81,9.71,5.87,9.15,0Z" fill="#571519"/><path d="M1430.92,1229.57c-24.66,33.43-53.5,64.18-83.71,92.61-15,14.15-30.63,27.83-47.36,39.94-12.19,8.83-25.53,18-40.19,22.18-8.33,2.36-17.09,3.66-25.56,5.47-10.39,2.23-20.91,4.82-31.51,5.84-5.81.56-5.87,9.72,0,9.15,18.56-1.79,36.74-7,55-10.59,14.66-2.84,28.21-11.27,40.37-19.57,36-24.58,67.77-56,97.16-88a637.71,637.71,0,0,0,43.69-52.41c3.5-4.74-4.44-9.31-7.9-4.62Z" fill="#571519"/><path d="M614.92,1292.9l-26.49-5.35-63.65-12.84-77.42-15.63-66.6-13.45c-10.8-2.17-21.57-4.6-32.41-6.54l-.47-.09c-5.75-1.16-8.21,7.65-2.43,8.82l26.49,5.35L435.59,1266,513,1281.64l66.6,13.45c10.8,2.18,21.57,4.6,32.41,6.54l.47.09c5.75,1.16,8.21-7.65,2.43-8.82Z" fill="#571519"/><path d="M1795.68,1531.24l-15.78-3.18-42.71-8.62-63.43-12.81-77.06-15.55L1511.92,1474l-85.57-17.28-79.45-16-67.17-13.55-48.54-9.8c-7.65-1.55-15.3-3.19-23-4.64l-1-.2c-5.75-1.16-8.21,7.66-2.43,8.82l15.78,3.19,42.71,8.62,63.43,12.81,77.06,15.55,84.78,17.11,85.57,17.28,79.45,16,67.17,13.56,48.54,9.8c7.66,1.55,15.3,3.19,23,4.64l1,.19c5.75,1.17,8.21-7.65,2.43-8.82Z" fill="#571519"/><path d="M2399.5,1653.13l-44.4-8.91-106.65-21.38L2119,1596.89l-111.55-22.37c-18-3.62-36.08-7.55-54.19-10.87l-.76-.15c-5.75-1.15-8.21,7.66-2.43,8.82l44.4,8.9,106.65,21.39,129.43,26,111.55,22.37c18.05,3.62,36.08,7.55,54.19,10.87l.76.15c5.75,1.15,8.21-7.66,2.43-8.82Z" fill="#571519"/><path d="M1950.78,1593.67c14.83,3.69,29.8,8,43.54,14.81,7.49,3.72,17.42,8.88,20.8,17.14a10.7,10.7,0,0,1,.76,3.4,17,17,0,0,1,0,1.75c0-.58,0,.08-.18.86a13.32,13.32,0,0,1-2.7,5.52,8,8,0,0,1-.73.9c-.45.5-.9,1-1.37,1.47a38,38,0,0,1-3.39,3.07,65.46,65.46,0,0,1-8.13,5.37c-17.47,9.92-37.71,15.14-57.16,19.5-28.46,6.38-57.5,10.13-86.55,12.56-67.4,5.65-136,4.85-203.12-3.91-25.72-3.36-51.53-8-76.34-15.65-14.56-4.5-31.88-10.21-42.42-21.26a17.35,17.35,0,0,1-3.87-5.58c-.31-.68.36,1,0-.1-.08-.23-.17-.45-.24-.69-.14-.51-.29-1-.41-1.54-.3-1.27-.09-.19-.11-.69a17.94,17.94,0,0,1,0-1.94,14,14,0,0,1,2.81-6.59,35.08,35.08,0,0,1,7.24-6.82c8.51-6.16,18.48-10.27,28.33-13.74a328.57,328.57,0,0,1,42.61-11.44c8.29-1.72,16.61-3.2,25-4.54,5.8-.93,3.34-9.75-2.43-8.82-29.71,4.76-61,10.7-88,24.59-12.24,6.29-29.26,18.35-23.63,34.48,4.87,13.91,21.32,21.49,33.86,26.72,22.55,9.41,46.86,14.65,70.86,18.75,69.4,11.87,141,13.72,211.13,9.3,32-2,64-5.51,95.49-11.68,22.54-4.43,45.55-10,66.27-20.16,11.08-5.46,25.39-14.18,26.43-27.94.64-8.65-5.16-16-11.54-21.12-10.31-8.27-23-13.37-35.4-17.61-8.16-2.79-16.47-5.11-24.83-7.2-5.72-1.42-8.15,7.4-2.44,8.83Z" fill="#571519"/><path d="M1520,1633.32c6,16.93,18.87,29.94,33.11,40.41,15.38,11.32,32.71,19.77,50.28,27.09,7.64,3.18,15.37,6.11,23.16,8.86,6.77,2.4,13.45,5,20.24,7.36,19.38,6.62,40,9.7,60.28,11.87a631.09,631.09,0,0,0,81.8,3c25.39-.62,50.85-2.5,75.91-6.64,9.44-1.56,18.6-3.9,27.9-6a276.27,276.27,0,0,0,33.86-9.77,222.9,222.9,0,0,0,51.25-26.63,195.77,195.77,0,0,0,31.29-27.12c4.58-5,9.33-10.26,12.87-16.06.16-.26.34-.51.5-.77,3.09-5-4.82-9.63-7.9-4.62-.59,1-1.23,1.87-1.88,2.78s-2,2.74-2.25,3l-1.24,1.58-2,2.43a179.36,179.36,0,0,1-25.13,24.23,207.56,207.56,0,0,1-43.77,26.52c-19.19,8.71-39.63,14-60.13,18.59-22.19,5-45,7.18-67.69,8.47a669.25,669.25,0,0,1-81.36-.27c-22-1.41-44-3.87-65.41-9.19-14.51-3.61-28.61-9.23-42.61-14.44-16.59-6.16-32.9-13.26-48.17-22.23-14.87-8.72-29.76-19.57-39-34.45a54.67,54.67,0,0,1-5.1-10.42c-2-5.51-10.81-3.14-8.82,2.43Z" fill="#571519"/><path d="M1644.47,1676.39c0-19.46-.34-38.93-.6-58.38q-.22-16.38-.49-32.74-.11-6.45-.23-12.88c-.06-3.15-1-7.74,1.43-10.17,2.18-2.2,6.88-2.21,9.84-2.67q5.52-.87,11-1.69,13.46-2,26.91-3.85,33.31-4.66,66.67-9.06,29.43-3.93,58.86-7.86c6-.8,11.92-1.59,17.87-2.45,1.45-.2,2.9-.43,4.35-.65.36-.06,1.19-.1-.25,0,.46,0,.91-.08,1.37-.07,1.46,0,2.91.07,4.37.18,22.49,1.79,45,7,67.05,11.39q8.14,1.62,16.3,3.28c5.8,1.18,11.76,2,14.63,7.93,1.77,3.69,1.2,8.46,1.2,12.45V1667c0,5.89,9.15,5.9,9.15,0v-91.19c0-4.45.08-8.91,0-13.37a22.18,22.18,0,0,0-4.09-12.92c-4.18-5.7-9.91-7.79-16.57-9.15-24.15-4.94-48.36-9.88-72.75-13.52-7.23-1.08-15.13-2.83-22.46-1.72q-5.8.89-11.62,1.68c-17.76,2.44-35.54,4.77-53.31,7.14-41.18,5.48-82.49,10.54-123.51,17.18-5.05.82-9.68,1.92-12.91,6.32-3,4.09-2.87,8.66-2.76,13.45.2,9.38.34,18.77.48,28.16q.51,33.69.82,67.39,0,5,0,10c0,5.89,9.15,5.9,9.15,0Z" fill="#571519"/><path d="M1644,1578.64c1.24-1.59,3.32-5,5.64-3.83,1.94,1,3.22,4.32,3.92,6.2,2.51,6.63,3.39,14.85,11.92,16.21a9.15,9.15,0,0,0,9.54-4.37,13.8,13.8,0,0,0,1.52-5.66c.14-1.45-.08-3.29.72-4.58,1.59-2.52,5.62-2.33,8-1.25,4,1.82,6.52,6,8.74,9.56a4.74,4.74,0,0,0,5.16,2.11c4.1-.78,6.77-3.88,8.54-7.46,1.42-2.86,2.52-8.1,6.25-8.68,5.11-.78,10.09,4.08,12.52,8,3.32,5.34,4.36,11.77,5,17.93.47,4.61.82,10.85,6.37,12.19,5.31,1.3,10.22-3.58,12.6-7.79,2.58-4.56,3.49-9.93,3.55-15.11,0-2.83-.48-5.81.15-8.59a5.09,5.09,0,0,1,1.67-3.09.8.8,0,0,1,.8-.31c.42.35.43.42,0,.21-1.59,4.58,4.48,7.31,7.64,4.45a14.27,14.27,0,0,1,15.14-2.54c6,2.53,10.69,4.12,16.07-.66,2.39-2.13,3.26-2.46,6.49-1.62,3,.76,5.83,1.6,8.91,1.29,2.66-.27,5-1.28,7.57-2,3-.9,3.89-.4,4,2.78.22,8.52-3.64,29.23,9.43,30.76s12.67-19.37,13.51-27.36c.25-2.48-.1-7.5,2-9.2.37-.3-.06-.67.41.36a17.35,17.35,0,0,1,.8,2.84c1,3.89,2.61,7.92,7,9,5.18,1.25,8.48-2.57,10.56-6.72.73-1.45,1.31-3.56,3.06-3.85,2.64-.45,5.47,2.85,6.57,4.82,2.71,4.83.12,10.45,2.11,15.49a9,9,0,0,0,13.1,4.37c5.85-3.38,7.3-10.19,8.23-16.35.52-3.4,1.89-14,7.64-12.58,2.51.63,4.56,3.39,6.8,4.61a10.29,10.29,0,0,0,7.61,1.12,12.43,12.43,0,0,0,6.11-4.4c.75-.93,1.42-1.93,2.16-2.86.16-.2.68-.79.7-.87.28-.87.42-.18.27-.58,0,.15-1.27-.36-1.19-.44s.33,1.51.35,1.69c.21,1.44.19,2.9.46,4.33a14.83,14.83,0,0,0,4,7.51,16,16,0,0,0,16.41,4.18c5.54-1.9,3.16-10.74-2.43-8.83-4.86,1.67-8.64-1.66-9.18-6.39-.57-5-2-10.75-8.07-11.11-4.82-.29-7.26,3.52-9.9,6.86-.81,1-1.37,2.06-2.64,1.89-2-.26-4.4-3.35-6.2-4.34-5.18-2.85-10.9-1.59-15.1,2.35-4.78,4.48-5.8,10.57-6.77,16.73-.43,2.71-.73,6.35-2.59,8.53-.11.14-1.18,1.29-1.63,1.22.53.08.38,0,.25-.45a11.28,11.28,0,0,1,0-3.53c.23-6.15-.94-11.75-5.22-16.45-3.61-4-9.6-6.89-15-5.21a11.06,11.06,0,0,0-5.87,4.55c-.66,1-3.28,4.63-3.1,5.7,0,.09,1.09.54,1.22.3s-.39-1.26-.48-1.59a29.93,29.93,0,0,0-2-6.13,9.05,9.05,0,0,0-12.93-3.68c-5.93,3.52-5.93,11.08-6.56,17.14-.38,3.59-.75,7.18-1.13,10.77-.21,2-.39,5.8-2.16,7.25-.44.37.39.54-.07.12-.72-.65-.91-2.54-1.07-3.42a48.82,48.82,0,0,1-.64-11.13c.23-5.34,1.47-11.51-2.41-15.94-5.1-5.83-11.34-2.5-17.48-1.13-3.16.71-6-.72-9-1.31a12.88,12.88,0,0,0-9.59,1.4,27.56,27.56,0,0,0-3.25,2.76c-1.57,1.36-2.42.92-4.26.09a28.38,28.38,0,0,0-9.21-2.82,23.65,23.65,0,0,0-18.12,6.27l7.65,4.45c1.47-4.26-.81-8.68-4.66-10.74-4.17-2.23-9.14-.68-12.19,2.68-7.12,7.84-1.13,19.2-6.08,27.9-.5.89-1.37,1.58-1.86,2.45-.68,1.2-.64-.23-.14,1.18.75,2.11.49-.2.45-.08.26-.71-.29-2.55-.37-3.33-.15-1.57-.34-3.13-.55-4.7a48.2,48.2,0,0,0-4.82-16.36c-4.34-8.07-13.3-15.32-23-13.81-4.71.74-8,3.89-10.14,8-1.28,2.46-2.28,7.67-5.39,8.26l5.17,2.11c-4.85-7.77-11.72-15.9-21.85-14.69a14.16,14.16,0,0,0-10.4,6,14,14,0,0,0-2,6.37c-.1.92.08,4.17-.68,4.24-2.92.28-3.76-7.38-4.43-9.31a27.43,27.43,0,0,0-5.35-9.56c-6.36-6.85-14.54-3.78-19.64,2.79-3.56,4.6,2.87,11.12,6.47,6.48Z" fill="#571519"/><path d="M1644.6,1633.63q116.87-4.34,233.77-6.21,33.41-.53,66.82-.86c5.88-.06,5.89-9.21,0-9.15q-116.93,1.17-233.81,4.79-33.39,1-66.78,2.28c-5.86.22-5.89,9.37,0,9.15Z" fill="#571519"/><path d="M1644.6,1657.72q116.87-4.34,233.77-6.21,33.41-.52,66.82-.86c5.88-.06,5.89-9.21,0-9.15q-116.93,1.15-233.81,4.79-33.39,1-66.78,2.28c-5.86.22-5.89,9.37,0,9.15Z" fill="#571519"/><path d="M1338.29,776.46c-10-2.36-15-12.38-14.59-22.08.52-11.22,7.16-20.36,12.89-29.53,5.22-8.36,9.84-17.73,8.65-27.86a31.57,31.57,0,0,0-15.63-23.68c-5.11-2.94-9.72,5-4.61,7.9A22.13,22.13,0,0,1,1335.53,706c-2.64,10.22-10.17,18.39-15,27.58-5.13,9.8-8,21.75-4.48,32.57,3,9.18,10.21,16.89,19.78,19.15,5.73,1.34,8.18-7.48,2.44-8.83Z" fill="#571519"/><path d="M1350.59,716.66c1.69,5.53-1,10.85-3.39,15.77-2.72,5.68-5.5,11.42-5.82,17.82-.6,12.22,7.46,23.46,18.64,27.8,2.31.9,5-1,5.63-3.19.71-2.59-.88-4.74-3.2-5.63-9.12-3.54-13.82-14.31-11-23.47,3.19-10.53,11.56-19.87,8-31.53-1.72-5.61-10.55-3.22-8.82,2.43Z" fill="#571519"/><path d="M1296.53,938.42c8,3.73,16.75,5.76,25.43,7.36A304.83,304.83,0,0,0,1357.1,950c23.54,1.54,47.86,1.49,71.09-3.12,9.16-1.82,18.9-4.45,26.2-10.57,4.51-3.8-2-10.24-6.47-6.48a35,35,0,0,1-7.6,4.19,79.8,79.8,0,0,1-12,3.51,187.89,187.89,0,0,1-31.17,3.73,326.84,326.84,0,0,1-68.82-3.58c-9-1.5-19.21-3.45-27.14-7.12-5.31-2.46-10,5.43-4.62,7.9Z" fill="#571519"/></svg>