<svg xmlns="http://www.w3.org/2000/svg" viewBox="0 0 2745 1830"><path d="M0,1830H2745V0H0Z" fill="#ffeab8"/><path d="M2440.09,1650.3h0l-2135.91-1.46a3.05,3.05,0,0,1,0-6.1h0l2135.91,1.46a3,3,0,0,1,0,6.1Z" fill="#6ea0a2"/><path d="M1040,544.63c-3.35,0-11.84-2.91-36.38-14.73-4.3-2.07-8.89-4.72-12.93-7.06a87.83,87.83,0,0,0-8.58-4.63A183.64,183.64,0,0,1,946,521.76c-67.15,0-121.77-35.62-121.77-79.41S878.82,363,946,363s121.77,35.62,121.77,79.4c0,25.51-18.88,49.59-50.51,64.46-.59,2.66,5.64,15.72,24.26,31.87,2.45,2.12,1.26,4.22,1,4.62A2.44,2.44,0,0,1,1040,544.63Zm-57.86-32.57c2,0,4.66,1.48,11.6,5.5,4,2.28,8.43,4.87,12.53,6.85,8.25,4,15.78,7.35,21.62,9.81-11-11.38-17.55-22.23-16.71-28.27a5.71,5.71,0,0,1,3.24-4.57c29.55-13.84,47.19-35.9,47.19-59,0-40.42-51.89-73.3-115.67-73.3S830.3,401.93,830.3,442.35,882.19,515.66,946,515.66a177.44,177.44,0,0,0,35.42-3.52A4,4,0,0,1,982.17,512.06Z" fill="#571419"/><path d="M930,442.2a6.22,6.22,0,0,1-2.08,4.7,6.94,6.94,0,0,1-4.92,2,7.42,7.42,0,0,1-5.29-2,6.26,6.26,0,0,1-2.08-4.7,6.44,6.44,0,0,1,2.08-4.75,7.3,7.3,0,0,1,5.29-2,6.83,6.83,0,0,1,4.92,2A6.4,6.4,0,0,1,930,442.2Z" fill="#571419"/><path d="M952.43,442.2a6.22,6.22,0,0,1-2.08,4.7,7,7,0,0,1-4.93,2,7.4,7.4,0,0,1-5.28-2,6.22,6.22,0,0,1-2.08-4.7,6.4,6.4,0,0,1,2.08-4.75,7.27,7.27,0,0,1,5.28-2,6.85,6.85,0,0,1,4.93,2A6.4,6.4,0,0,1,952.43,442.2Z" fill="#571419"/><path d="M974.88,442.2a6.22,6.22,0,0,1-2.08,4.7,7,7,0,0,1-4.93,2,7.4,7.4,0,0,1-5.28-2,6.22,6.22,0,0,1-2.08-4.7,6.4,6.4,0,0,1,2.08-4.75,7.27,7.27,0,0,1,5.28-2,6.87,6.87,0,0,1,4.93,2A6.4,6.4,0,0,1,974.88,442.2Z" fill="#571419"/><path d="M1150.76,532c0-35.89,8.28-87.42,56.13-150.92,15.65-20.24,46.93-30.37,67.18-43.25,13.8-9.2,18.4-32.21,32.21-43.25,21.16-17.48,50.61-22.08,66.25-22.08,21.17,0,42.33,12,72.7,32.2,13.8,9.21,55.21,34.05,83.73,40.49,20.25,4.6,32.21-7.36,36.82-2.76,9.2,11.05-24.85,25.77-24.85,25.77s49.69,56.13,75.46,110.42c12.88,27.61,9.2,67.18,9.2,71.78,0,5.52-8.29,91.1-4.6,112.26,10.12,65.34,76.37,85.58,95.7,127.91,14.72,30.37,15.64,72.7,20.24,104.91,3.69,26.68,10.12,45.09,22.09,54.29,11,8.28,27.85,4.57,34.28,11-5.54,32.38-42.19,25.88-42.19,25.88s-258.95-82-260.79-83.82c-11-16.57-133.43,3.68-194.17,7.36-17.48.92-170.24-1.84-227.29,39.57-12.88,9.2-34,12-47.85,10.12s-19.32-9.2-19.32-11c0-8.28,34-3.68,43.25-28.53,12.88-32.2-20.25-89.26-2.76-124.23,20.24-38.64,59.81-56.13,80-88.33,22.09-35.89,25.77-78.22,25.77-98.47C1149.84,589,1150.76,536.56,1150.76,532Z" fill="#e82d5e"/><path d="M1158.12,911.09c25.77-10.12,109.64-44.46,125.29-61,17.48-17.49,13-70.8,13-70.8s-27-31.06-37.11-55c-10.12-24.85-18.4-59.81-18.4-59.81s-13.8-2.77-29.45-15.65c0,0,13.81,7.36,41.41-37.73,12-19.32,16.57-73.61,26.69-99.38,16.56-40.49,28.53-48.77,58-58.89a117.79,117.79,0,0,1,73.62-.92s7.36,15.64,13.8,26.68c2.77,4.6,15.64,28.53,30.37,37.73a72.53,72.53,0,0,0,39.57,12s20.25,72.7,16.56,93.87-12,45.09-12,45.09l32.21-13.81s-8.28,37.73-19.33,64.42-41.2,64.21-41.2,64.21-10.18,38,3.62,55.47c5.13,6.42,19.13,22.13,38.74,33.21,22.58,12.77,51.42,20.8,63.24,24.74,92,29.44,85.48,83.65,137,125.06,42.32,34,49,127.08,49,127.08l-789.31-14.71s.42-76.16,36.31-116.65C1052.11,967.49,1091.87,937.78,1158.12,911.09Z" fill="#ffe4ce"/><path d="M1294.91,774.25s45.23,46,90.45,45.22S1475,771,1475,771l-4,29.88s-42,50.87-80.76,59-92.86-63-92.86-63Z" fill="#ffbca9"/><path d="M1396.46,641.47c0-6.44-6.44-9.2-10.12-14.72-2.77-4.6-2.77-12-6.45-12-8.28,0-12.88,20.25-12.88,31.29s7.36,16.56,14.72,16.56S1396.46,652.51,1396.46,641.47Z" fill="#ffaaa9"/><path d="M1271.31,640.55c.92-9.2,15.64-14.72,31.28-12.88,16.57,1.84,28.53,11,27.61,20.24s-15.64,14.72-31.29,12.88C1282.35,659,1269.47,649.75,1271.31,640.55Z" fill="#ffaaa9"/><path d="M1491.24,640.55c-.92-9.2-15.65-14.72-31.29-12.88-16.56,1.84-28.53,11-27.61,20.24s15.65,14.72,31.29,12.88C1480.19,659,1492.16,649.75,1491.24,640.55Z" fill="#ffaaa9"/><path d="M1556.57,457.43c-3.68-6.44-1.84-9.2-11-18.41-8.28-9.2-12-20.24-2.76-23,5.52-1.84,11,1.84,15.64,9.2a54.57,54.57,0,0,1,6.45,18.41C1567.61,463,1559.33,463,1556.57,457.43Z" fill="#68423a"/><path d="M1535.41,462c-1.84-1.84-3.68-5.52-8.28-11-4.61-6.44-12-9.21-12.89-15.65-.92-5.52,6.44-9.2,12-6.44,7.37,4.6,13.81,18.41,15.65,25.77C1542.77,460.19,1540.93,464.79,1535.41,462Z" fill="#68423a"/><path d="M1211.49,417.86c12.89-10.12,27.61-14.72,29.45-9.2s-10.12,10.12-20.24,20.24-12,22.09-19.33,18.41S1198.61,428.9,1211.49,417.86Z" fill="#c1877b"/><path d="M1229,440.87c9.2-9.21,21.16-13.81,23-9.21s-7.36,8.28-14.72,17.49c-7.36,8.28-7.36,17.48-13.8,15.64S1219.78,450.07,1229,440.87Z" fill="#c1877b"/><path d="M1339.4,714.17c0-17.49,19.33-23,42.33-23s46,4.6,46,22.09S1413,762,1383.57,761.1C1355.05,760.18,1339.4,731.65,1339.4,714.17Z" fill="#ffbca9"/><path d="M1536.33,641.47l9.2-31.29,1.84-37.73s25.77-4.6,29.45,17.49c1.84,9.2.92,33.13-7.37,46-12.88,19.32-35,27.61-37.72,27.61Z" fill="#ffe4ce"/><path d="M1243.7,622.15c16.57-23,26.69-70.86,34-100.31,8.28-38.65,42.33-63.49,42.33-63.49,6.44,0-22.08,62.57-33.13,96.62C1264,622.15,1226.22,645.15,1243.7,622.15Z" fill="#ffbca9"/><path d="M1411.18,454.67c1.84,0,17.48,37.73,39.57,56.13,20.24,17.48,46,16.56,46,16.56s8.28,21.17,10.12,35.89c4.6,25.77,7.36,43.25,7.36,46,0,6.44-3.68-26.68-19.32-43.25-17.48-18.4-43.25-28.52-50.61-35.89C1422.22,507.12,1404.74,455.59,1411.18,454.67Z" fill="#ffbca9"/><path d="M1386.34,825.8h-.09c-1.32,0-32.76-1.33-78.1-34.64-31.11-22.63-41.63-46.68-47.92-61-9.83-21.44-16.23-48.91-22.42-75.48l-.76-3.27A3,3,0,0,1,1243,650l.76,3.27c6.12,26.27,12.45,53.43,22,74.37,6.45,14.74,16.17,37,46,58.62,43.83,32.2,74.37,33.45,74.67,33.46a3.05,3.05,0,0,1-.08,6.1Z" fill="#571419"/><path d="M1379.9,672.13a3.05,3.05,0,0,1-1.54-5.69c.16-.09,15.83-9.34,15.05-20.15-.28-3.42-2.18-5.25-5.52-8.2-4.4-3.88-9.88-8.72-11-20.24-.85-5.88.34-15,3.76-28.65a3,3,0,1,1,5.91,1.48c-3.17,12.66-4.35,21.31-3.62,26.43.93,9.27,5,12.9,9,16.41,3.47,3.07,7.06,6.23,7.56,12.3,1,14.65-17.29,25.44-18.07,25.89A3,3,0,0,1,1379.9,672.13Z" fill="#571419"/><path d="M1299.83,605.58c0-10.12.75-11.05,11.31-9.6,13.48,0,15.38-2.36,15.38,8.68,0,10.12-5.52,18.41-12.88,19.32S1300.75,616.62,1299.83,605.58Z" fill="#571419"/><path d="M1215.17,649.75c10.13,13.81,23,14.73,27.61,15.64Z" fill="#571419"/><path d="M1242.78,667.38a2.58,2.58,0,0,1-.39,0c-.42-.09-.92-.17-1.48-.27-5.75-1-17.7-3-27.33-16.15a2,2,0,1,1,3.19-2.34c8.68,11.84,19.57,13.69,24.81,14.59l1.59.28a2,2,0,0,1-.39,3.93Z" fill="#571419"/><path d="M1285.11,547.9a3,3,0,0,1-1.67-5.6c1.26-.83,31.33-20.12,63.83-2.91a3,3,0,1,1-2.85,5.39c-29.36-15.53-57.35,2.44-57.63,2.62A3,3,0,0,1,1285.11,547.9Z" fill="#571419"/><path d="M1533.56,664.77a3.05,3.05,0,0,1-.27-6.09c31.55-2.87,41.38-43.23,41.47-43.64,1.73-10,2.35-23.71-4.67-31.78-4.21-4.84-10.9-7.15-19.86-6.84h-.1a3.05,3.05,0,0,1-.1-6.1c10.87-.36,19.19,2.63,24.66,8.92,8.6,9.88,8,25.56,6,37-2.81,12.66-16.66,45.77-46.9,48.52Z" fill="#571419"/><path d="M1313.76,600.4c-10.25,0-20.51-3.11-25.92-7.32a3.05,3.05,0,1,1,3.74-4.82c7.49,5.83,28.26,9,38.72,1.74a3.05,3.05,0,0,1,3.48,5C1328.25,598.84,1321,600.4,1313.76,600.4Z" fill="#571419"/><path d="M1387.52,825.8h-.37a3.05,3.05,0,0,1,.1-6.1h.17c1.58,0,27.49-.53,69.81-31.61,30.77-22.38,44.87-47.46,50.54-60.42,9.21-20.28,15.53-45.77,21-70.3.44-2.2.89-4.69,1.34-7.18s.94-5.14,1.41-7.48a3,3,0,0,1,6,1.2c-.46,2.3-.92,4.84-1.39,7.37s-.92,5.05-1.37,7.35c-5.54,24.92-12,50.78-21.38,71.52-5.9,13.49-20.59,39.65-52.51,62.86C1417.74,824.67,1391.1,825.8,1387.52,825.8Z" fill="#571419"/><path d="M1464.55,605.58c0-10.12.33-11.42-15.15-9.23-7.36,0-11.54-2.73-11.54,8.31,0,10.12,5.53,18.41,12.89,19.32S1463.63,615.7,1464.55,605.58Z" fill="#571419"/><path d="M1476.51,547.9a3,3,0,0,1-1.67-.5c-.28-.18-28.37-18.11-57.63-2.62a3.05,3.05,0,0,1-2.86-5.39c32.5-17.2,62.57,2.08,63.84,2.91a3.05,3.05,0,0,1-1.68,5.6Z" fill="#571419"/><path d="M1450.36,600.3c-7.32,0-14.55-1.67-19.87-5.76a3,3,0,0,1,3.71-4.84c10.71,8.24,31.45,3.74,38.6-1.83a3,3,0,0,1,3.75,4.81C1470.9,597.07,1460.54,600.3,1450.36,600.3Z" fill="#571419"/><path d="M1473.43,841.44a3,3,0,0,1-2.74-1.69c-8-16.16-3.38-55.59-3.18-57.26a3.05,3.05,0,1,1,6.06.73c0,.39-4.62,39.28,2.59,53.82a3.05,3.05,0,0,1-1.38,4.09A3.13,3.13,0,0,1,1473.43,841.44Z" fill="#571419"/><path d="M1291.92,841.8a3,3,0,0,1-2.73-4.4c6-12,2.82-47.47,1.1-60.1a3,3,0,0,1,6-.82c.27,1.93,6.34,47.44-1.68,63.63A3,3,0,0,1,1291.92,841.8Z" fill="#571419"/><path d="M1385.42,705a477,477,0,0,0-47.86,2.77s9.2,36.8,46,38.64c35,.92,48.77-37.72,48.77-37.72A337.33,337.33,0,0,0,1385.42,705Z" fill="#fff"/><path d="M1384.79,749.44l-1.3,0c-38.69-1.93-48.79-40.56-48.89-40.95a3.06,3.06,0,0,1,2.61-3.78c.24,0,24.38-2.77,48.21-2.77a346.93,346.93,0,0,1,47.41,3.71,3.06,3.06,0,0,1,2.39,4C1435.07,710.07,1420.59,749.44,1384.79,749.44Zm-43.2-39.07c3.19,8.8,14.11,31.56,42.14,33,26.14.68,40-23.12,44.24-32.23a336,336,0,0,0-42.55-3.08C1367.4,708,1349.19,709.61,1341.59,710.37Z" fill="#571419"/><path d="M1500.68,531.55a84.42,84.42,0,0,1-36.52-7.87c-28.92-14-43-42.12-61.29-83.42-6.61-14.73-15.43-22-26-21.8-14,.36-28.18,14.16-31.81,23.51a3.05,3.05,0,0,1-5.69-2.21c4.25-10.91,20-26.95,37.34-27.4,9.14-.24,22.16,4,31.78,25.41,17.71,40.09,31.34,67.33,58.36,80.41,21.28,10.13,44.3,7.7,60,3.79-19.57-2.41-48.14-14.52-66-60.68a3,3,0,1,1,5.68-2.2c27.13,70,77.94,56.74,80.07,56.14a3,3,0,0,1,2.17,5.67A119.51,119.51,0,0,1,1500.68,531.55Z" fill="#571419"/><path d="M1757,989.76a39.39,39.39,0,0,1-4.92-.31,3,3,0,0,1,.76-6.05c11.95,1.48,21.62-3.75,27.6-8.42a44.88,44.88,0,0,0,11.26-12.56c-1,0-2.08-.07-3.19-.1-14.59-.36-39-1-50-43.1-5.14-19.38-6.25-35.46-7.32-51-1.42-20.6-2.77-40.05-13.68-64.47-12-26.88-29.16-41.58-45.7-55.8-15.78-13.56-32.1-27.59-43.53-51.81-14.47-30.43-11.59-66.55-8.53-104.79,2.63-33,5.34-67-3.6-98.11-13-45.23-39.7-80.41-75.69-119.32a3.05,3.05,0,0,1,4.48-4.14c36.58,39.55,63.69,75.39,77.07,121.77,9.25,32.17,6.49,66.8,3.82,100.29-3,37.4-5.81,72.73,8,101.69,10.87,23.05,26,36,42,49.8,17.05,14.65,34.68,29.8,47.29,57.93,11.36,25.41,12.73,45.39,14.19,66.54,1.06,15.26,2.15,31,7.14,49.87,9.8,37.69,30.52,38.21,44.22,38.55,2,0,3.8.09,5.47.24a3.7,3.7,0,0,1,3.63,1c2.13,2.28.32,5.84-.37,7.18C1793,973.32,1777.75,989.76,1757,989.76Z" fill="#571419"/><path d="M1310.88,397a3,3,0,0,1-2.3-1.05c-1.28-1.47-31.16-36.15-30.2-58.27,0-11.59,16.16-32.94,18.38-35.15,27.65-29.78,75.63-49.46,127.15-15.11l6.38,4.4c26.84,18.5,48,33.11,75.87,44.07,30.07,12,52.09,7.53,61.49,5.62l1.21-.25a3.82,3.82,0,0,1,3.92,1.12c1.22,1.38,1.29,3.37.21,5.91-3.9,9.16-24.08,29.75-58.62,31.22a3.15,3.15,0,0,1-3.18-2.92,3.06,3.06,0,0,1,2.92-3.18c30.52-1.3,47.44-18,52.17-25.41-11.06,2.15-33.12,5.26-62.37-6.44-28.46-11.21-51-26.74-77.08-44.72l-6.34-4.37c-48.3-32.2-93.32-13.73-119.34,14.29-2.94,2.94-16.67,22.44-16.67,31.05-.86,19.86,28.4,53.79,28.7,54.14a3.05,3.05,0,0,1-2.3,5.05Zm259.41-49.82-.13,0A.28.28,0,0,0,1570.29,347.17Z" fill="#571419"/><path d="M1192,654.33a49.55,49.55,0,0,1-8.78-.67,3,3,0,0,1-.39-5.86c.44-.16,45.05-17.11,48.58-95.73a3.12,3.12,0,0,1,3.19-2.91,3.06,3.06,0,0,1,2.91,3.18c-2.73,60.64-28.5,86.31-43,96,16.69-.48,49.6-8.58,64.59-62,3.33-11.46,6-23.47,8.66-35.07,9.27-41.12,18-80,52.66-98.38a3,3,0,1,1,2.86,5.38c-32.16,17.11-40.62,54.62-49.57,94.34-2.64,11.7-5.37,23.79-8.74,35.41C1248.41,647.31,1209.53,654.33,1192,654.33Z" fill="#571419"/><path d="M1022.24,960.88c-8.87,0-17.33-2.46-21.91-6.72-3.34-3.09-3.75-6.3-3.51-8.44.56-3.4,4-4,9.6-4.86,9.58-1.56,25.63-4.18,34.48-18.05,8.11-12.73,8.48-32.49,1.1-58.75-19.13-68,19.76-101.12,48.16-125.29,9.68-8.24,18-15.36,23.13-22.67,23.35-32.69,34.62-81,33.5-143.59-3-114.63,32.48-189,108.42-227.31a3.05,3.05,0,1,1,2.75,5.45c-73.61,37.15-108,109.67-105.07,221.73,1.14,64-10.5,113.48-34.61,147.24-5.53,7.93-14.58,15.63-24.16,23.79-28.66,24.39-64.32,54.75-46.25,119,7.88,28,7.26,49.43-1.83,63.68-10.31,16.18-28.74,19.17-38.64,20.79-1.5.24-3.25.52-4.38.79a5.24,5.24,0,0,0,1.46,2c4,3.74,14.55,6.41,25.17,4.42a3,3,0,0,1,1.13,6A47.19,47.19,0,0,1,1022.24,960.88Z" fill="#571419"/><path d="M1498.6,670.29a3.05,3.05,0,0,1-2.26-5.1c.33-.37,33.12-38.75-3.34-132.11a3,3,0,1,1,5.68-2.22c29.12,74.57,15.73,115.21,7.24,130.84a56.33,56.33,0,0,0,23.78-19.49c14.54-20.57,18.23-51.29,11-91.3a3,3,0,1,1,6-1.08c7.56,41.78,3.49,74.09-12.12,96-14.86,20.91-34.66,24.24-35.5,24.37A3.89,3.89,0,0,1,1498.6,670.29Z" fill="#571419"/><path d="M1656,935.3h-.19a3.05,3.05,0,0,1-2.86-3.23c2.51-41.79-16.29-63.43-38.06-88.48-25-28.81-53.39-61.45-54.89-132.12a3,3,0,0,1,3-3.11h.06a3,3,0,0,1,3,3c1.45,68.46,29,100.22,53.39,128.25,21.7,25,42.2,48.57,39.55,92.85A3,3,0,0,1,1656,935.3Z" fill="#571419"/><path d="M1610.86,918.74a2.93,2.93,0,0,1-1.18-.24,3.05,3.05,0,0,1-1.63-4c14.46-34.34-.72-76.88-9.87-91a3,3,0,1,1,5.12-3.31c10.1,15.6,25.92,59.77,10.38,96.7A3.07,3.07,0,0,1,1610.86,918.74Z" fill="#571419"/><path d="M1100.15,936.23a3.05,3.05,0,0,1-2.46-4.86c13.77-18.78,7.66-34-.07-53.2-8.31-20.65-17.72-44.06-3-76.91a3,3,0,1,1,5.56,2.49c-13.64,30.48-4.75,52.62,3.11,72.15,7.77,19.32,15.1,37.57-.67,59.08A3.06,3.06,0,0,1,1100.15,936.23Z" fill="#571419"/><path d="M1220.69,891.14a3,3,0,0,1-1.61-.47,3,3,0,0,1-1-4.2c23.23-37.07,13.49-66.1,3.19-96.84-8.6-25.65-17.5-52.17-9.08-85.41a3,3,0,0,1,5.91,1.49c-8,31.51.63,57.17,8.95,82,10.78,32.15,21,62.51-3.8,102A3.06,3.06,0,0,1,1220.69,891.14Z" fill="#571419"/><path d="M1690,802.51c5.52,15.64,3.68,31.28-1.84,31.28-6.44,0-6.44-12.88-12-25.76s-16.57-18.41-10.12-24.85C1671.6,777.66,1684.48,786.86,1690,802.51Z" fill="#c1877b"/><path d="M1663.32,803.42c5.52,12,6.44,23.93.92,24.85-4.61,0-6.45-9.2-12-19.32-5.52-9.2-14.72-12.89-10.12-17.49C1646.75,785.94,1657.79,791.46,1663.32,803.42Z" fill="#c1877b"/><path d="M969.37,1688.45c-8.13-5.54-16.47-9.6-37.74-16.59s-36.78-21.56-61.67-34a44.75,44.75,0,0,1-23.91-33.08c-3.95-23.75.3-69.33,6.64-103.55,9.7-52.25,19.11-114.62,30.49-150,10.54-32.74,21.26-89.47,33.28-129.53,9.68-32.26,19.49-67.33,30.63-99.15,13.17-37.62,22.87-64.2,37.19-99.77,4.31-10.71,18.38-41.35,27.83-48.92,41.61-33.28,77.95-43.49,128.66-60.4,19.61-6.53,38.09-13.37,56.94-21.45,2.66-1.14,18.91-8.89,21.59-8.89.06,0,38.1,49.61,47.63,55.69,23,14.64,25.13,23.92,46.43,36.76,33.73,20.33,38.8,35.3,84.09,31.18,40.1-3.64,102-65,125.44-92.63,12-14.13,22.28-34,32-29.83,8.76,3.75,37.66,14.91,50,21.1s31.78,10.74,43.81,15.9c36,15.41,49.74,17.12,81.66,43.72,22.3,18.58,33.07,37.64,44.42,62.93,10.44,23.25,10.47,28.93,22.66,55.76s15.51,56.45,25.65,83.49c10.9,29.07,12.81,44.7,18.49,74.25,2.73,14.21,11,36,11.92,51,1.48,22.91,10.71,46.78,17,69.94s13.51,88.78,20.1,117.09,3.85,38.07,6.32,60.35c1,8.85.2,29.37,1.32,36.11,3.7,22.17-3.5,35.11-19.35,53.4-19,21.9-29.85,25.73-40.66,31.27s-19.87,10.95-26,12.18c-8,1.6-19.77,15-27,13.16-5.77-1.44-25.07,4.61-18.1,4.61Z" fill="#fff"/><path d="M955.93,1239.39c-1.63,3.27-9.56,4.85-10.84,13.07-2.76,17.62,2,46.76,2.56,54.84,3.51,47.37,7.25,81.7,8.68,128.8.78,25.92,3.35,57.23,4.79,83.08,3,53.82,4.29,106.41,10.51,160,2.92,25.12,5.38,77.82,12.22,77.46,7.91-.41,68.08,4.88,85.5,3,37.45-4,77.55-2.18,118.66-2.18,53,0,106,2.56,159.08,2.3,73.71-.36,138.65-3.6,215.81.68,23.8,1.32,56.61-4.65,80.31-2.28,12.34,1.24,33.55-2.2,46-1,22,2.16,54.88,5.84,75.69-1.09,3.48-1.16,6-12.23,8.71-42.25s1.56-46.38,4.89-75.28c4.15-36,0-70,4.56-106,4-32.11,4.88-59.64,7.84-92.22,3-33.32,4.29-73.9,6.52-107.31.36-5.41,7.51-52.42,5.93-77.88-.63-10.25-7.67-13.77-9.45-14.66Z" fill="#898178"/><path d="M1215.64,479.15c-6.61-9.84,13.53-55.21,17.7-65.24,14.67-35.35,83.61-79.52,124.43-84,51.84-5.72,73.55-1.13,122.49,23.15,12.85,6.37,21,11.08,30.61,20.58,4.86,4.83,19.27,20.25,19.27,20.25s23.21,41.29,32.27,65c4.74,12.37,8.85,29.58,10.9,42.78,2.84,18.32.72,38.87,3.79,57.14,1.49,8.9,7.49,12.19,11,19.76,11,24,3.43,62.84-19.16,90.25-11.73,14.24-28.24,20.66-33.28-6-4.62-24.45-1.09-62.33,8.47-84.85,2.75-6.48,17.27-13.54,22.79-17.81s-17.2-102.65-29.94-117.91-28.81-43.58-39.68-53.1-27.24-17.88-39.7-25.74c-13.64-8.62-25.23-11.93-40.16-14.89-11.91-2.37-37.22-1.69-49.48-.14-26.55,3.36-62.29,13.58-82.83,31.69-10.86,9.58-35.21,31.05-41.73,44Z" fill="#898178"/><path d="M1439.87,771.36c0,27,59.57-.76,10.63-12.26Z" fill="#898178"/><path d="M968.87,1690a3.21,3.21,0,0,1-1.17-.23c-3-1.23-6.22-2.56-9.74-4-31.65-12.87-84.64-34.39-105.94-60.74-30.38-37.57,21.6-253.55,38.26-318.85,39.12-153.39,88.11-294.33,114-327.83,19.79-25.66,84-48.47,146.08-70.54,65.88-23.41,134-47.62,139.68-72.23a3.05,3.05,0,0,1,6,1.37c-6.42,27.86-73,51.54-143.59,76.61-61.26,21.77-124.6,44.28-143.29,68.51C983.65,1015,935.13,1155,896.19,1307.7c-43.33,169.87-58.43,290-39.43,313.51,20.31,25.12,72.39,46.27,103.5,58.91,3.53,1.44,6.81,2.77,9.78,4a3.05,3.05,0,0,1-1.17,5.87Z" fill="#571419"/><path d="M1776.49,1692.62a3,3,0,0,1-1.17-5.87c3.84-1.58,8.54-3.24,14-5.17,29.38-10.41,78.58-27.83,100.56-72,14.31-28.77-1.79-160.66-39.14-320.74-38.91-166.77-83.51-290.47-113.63-315.15-39.21-32.14-98.7-53.28-151.18-71.93-57.11-20.29-106.44-37.82-116.48-64.64a3.05,3.05,0,0,1,5.72-2.14c9,24.16,57.13,41.25,112.8,61,53,18.81,113,40.14,153,72.95,37.78,31,85.94,190.91,115.7,318.48,31.82,136.39,56.12,289.74,38.66,324.85-23.08,46.43-73.73,64.36-104,75.08-5.36,1.9-10,3.54-13.68,5.06A3,3,0,0,1,1776.49,1692.62Z" fill="#571419"/><path d="M995.15,1762.31c-6.29,0-11.48-2-15.46-5.85-7.91-7.72-7.87-20.21-7.86-20.74l-30.71-467.88a3.05,3.05,0,0,1,2.84-3.25,3.09,3.09,0,0,1,3.25,2.85l30.71,468.12c0,.33,0,10.69,6.05,16.56,3,2.88,7,4.24,12.06,4.08a3,3,0,0,1,3.16,2.93,3.05,3.05,0,0,1-2.94,3.16Z" fill="#571419"/><path d="M1803.11,1272.44h-.23a3,3,0,0,1-2.81-3.27c.59-7.86.84-12.73.72-14.45-.86-12.84-12.77-12.61-13.25-12.59l-402.6,1.75h0a3.05,3.05,0,0,1,0-6.1l402.51-1.75c6.2-.21,18.44,3.36,19.45,18.28.14,2.07-.09,6.94-.73,15.32A3.05,3.05,0,0,1,1803.11,1272.44Z" fill="#571419"/><path d="M1754.61,1762.55h0l-759.41-.26a3,3,0,0,1,0-6.1h0l759.41.26a3.05,3.05,0,1,1,0,6.1Z" fill="#571419"/><path d="M1061.09,1240.79a3,3,0,0,1-3-2.91c-1.69-36.89,7.08-77.39,13.48-107,3.42-15.84,6.38-29.52,5.47-33.65-2.28-10.31-9.66-19.74-16.18-28.06-1.08-1.38-2.14-2.73-3.15-4.06a3,3,0,1,1,4.84-3.71c1,1.32,2,2.65,3.11,4,6.92,8.84,14.76,18.86,17.34,30.51,1.15,5.19-1.09,16-5.47,36.26-6.33,29.24-15,69.3-13.35,105.39a3,3,0,0,1-2.91,3.18Z" fill="#571419"/><path d="M1699.27,1242a3,3,0,0,1-3-2.86c-1.86-30.23-8.64-59.53-14.1-83.07-6.77-29.25-11.66-50.37-5.82-62,4.06-8.13,5.41-10.82,12.37-24.51a3,3,0,1,1,5.43,2.77c-6.94,13.66-8.29,16.35-12.35,24.47-4.85,9.71.08,31,6.32,57.94,5.5,23.77,12.35,53.34,14.23,84.07a3,3,0,0,1-2.85,3.24Z" fill="#571419"/><path d="M1389.71,1009.56c-67.81,0-151.51-95.27-170.4-121.06a3.06,3.06,0,0,1,4.93-3.61c27.41,37.44,106.69,118.57,165.53,118.57l1.68,0c47.73-1.28,131.42-90.4,151.47-118.53a3.05,3.05,0,0,1,5,3.54c-17.29,24.26-103.58,119.68-156.28,121.09Z" fill="#571419"/><path d="M1326.58,1494.2a45.6,45.6,0,1,1,45.6,45.24A45.42,45.42,0,0,1,1326.58,1494.2Z" fill="#bebebe" style="isolation:isolate"/><path d="M1568.09,562.24a3,3,0,0,1-3-2.76C1549.28,394,1450.91,343.92,1371.37,351.29c-78.75,7.31-158.54,73.08-150.11,166.6a3.05,3.05,0,1,1-6.08.55c-4-44.4,11.12-86.82,42.56-119.44,29.12-30.21,70.33-49.82,113.07-53.78,82.29-7.62,184.11,43.75,200.32,213.68a3.05,3.05,0,0,1-2.75,3.33Z" fill="#571419"/><path d="M1575.21,561.76h0a3,3,0,0,1-3-3.09c1.43-98.81-34.11-172.12-100.07-206.43-59.52-30.95-136.81-24.79-192.33,15.35-48.77,35.27-71.08,90.35-61.22,151.11a3,3,0,1,1-6,1c-10.25-63.13,13-120.36,63.67-157,57.34-41.46,137.2-47.81,198.71-15.82,68.12,35.43,104.83,110.69,103.36,211.93A3,3,0,0,1,1575.21,561.76Z" fill="#571419"/><path d="M1547.38,686.46a11.71,11.71,0,0,1-8.26-3.45c-13-12.55-10.63-57.94-6-83.61h0c3.9-21.72,14.6-37.29,27.94-40.63,8.58-2.16,17.12,1.22,23.46,9.24,15.78,20,11.51,57.89,3.43,78.42-8.86,22.5-21.9,36.23-37.73,39.71A12.49,12.49,0,0,1,1547.38,686.46Zm-8.28-86c-5.44,30.38-5.37,68.88,4.25,78.13a5.67,5.67,0,0,0,5.53,1.58c17.37-3.82,27.73-21.69,33.36-36,7.33-18.62,11.59-54.51-2.54-72.4-4.85-6.14-11-8.66-17.19-7.1-10.81,2.71-20,16.75-23.41,35.79Z" fill="#571419"/><path d="M1468.69,767.84c-.37,0-.73,0-1.08,0a3,3,0,0,1-2.86-3.22,3,3,0,0,1,3.23-2.86c19.91,1.19,74.92-40.13,77.39-75.65a3.05,3.05,0,0,1,6.09.43C1548.71,726,1492,767.84,1468.69,767.84Z" fill="#571419"/><path d="M1452.81,786.33a17.51,17.51,0,0,1-16.9-12.2c-1.49-4.63,0-9.09,4-12.25,6.76-5.27,19.64-6.21,26.5-1.93a9.69,9.69,0,0,1,4.62,10.67h0c-1.91,9.08-8.67,15.23-17.23,15.68C1453.48,786.32,1453.15,786.33,1452.81,786.33Zm2.63-23c-4.33,0-9,1.16-11.76,3.31s-2.41,4.19-2,5.57a11.52,11.52,0,0,0,11.78,8c4.54-.24,10-3.21,11.57-10.84h0a3.62,3.62,0,0,0-1.88-4.24A15.15,15.15,0,0,0,1455.44,763.38Zm12.61,6.61h0Z" fill="#571419"/><path d="M944.33,1272.44a3.05,3.05,0,0,1-3-2.82c-.65-8.51-.87-13.23-.73-15.32,1-14.93,13.26-18.48,19.54-18.27l426,1.75a3.05,3.05,0,0,1,0,6.1h0l-426-1.76c-1.39,0-12.5.08-13.35,12.59-.11,1.71.13,6.58.73,14.45a3,3,0,0,1-2.81,3.27Z" fill="#571419"/><path d="M1752.34,1762.61c-.37,0-.73,0-1.1,0a3,3,0,0,1,.11-6.09h.11c5,.16,9.12-1.2,12.08-4.1,6.06-5.92,6-16.2,6-16.3l30.73-468.36a3.09,3.09,0,0,1,3.24-2.84,3,3,0,0,1,2.84,3.24l-30.72,468.12c0,.29.06,12.78-7.84,20.5C1763.83,1760.65,1758.63,1762.61,1752.34,1762.61Z" fill="#571419"/></svg>