<svg xmlns="http://www.w3.org/2000/svg" viewBox="0 0 430 294"><path d="M172.85,103.77c-1.13-6.33-6.27-12-9.84-17-6.84-9.55-8.45-17.45-7.27-28.94,3.14-30.63-31.08-29.35-44.57-8.94A147,147,0,0,1,96,67.91a21.26,21.26,0,0,0-5.37,12.74c-.61,16.93,20,13.21,21.16,28.18.33,4.26-6,12.49-3.5,17.4,2.6,5.16,7.49,8,9.27,13.89,3.29,10.91,32.51,5.95,39.7,4.91a6.35,6.35,0,0,0,3.82-2.82c-.56,1.6-1.1,3.16-1.61,4.65-1.3,3.8,4.53,1.54,5.42-.69C170.4,132.24,175.57,119,172.85,103.77Z" fill="#5ba354"/><path d="M297.89,73.65c-1-1.5-3.37.48-4.15,2.29-2.49-2.16-5.95-2.77-9.51-4.26-10.35-4.34-20.4-9.38-30.77-13.68-15.12-6.28-29.06-18.55-45.71-20.22-.78-.08-11.47-4.32-12-4.69l-.73-.53a2.74,2.74,0,0,0-2.1-.45c-.07-1.24-1.41.55-1.49-.69-.28-4.6-5.42-2.53-5.59.37-1.91,33,0,66.59.28,99.62q.2,24.92.12,49.83c0,14.06-3.4,32.08.34,45.75-3.08.89-6.42,6.67-2.38,7.33,35.09,5.76,76.61-6.61,99.9-34.87,13.27-16.09,18.08-41,20.86-61.13S309.87,91.11,297.89,73.65Z" fill="#b7b7b7"/><path d="M295.12,179.5c-.05-6.09,1.09-12.68-.34-18.6-.39-1.61-2.13-.56-3.27.63-10.7-2.63-23.46-.74-34.29-.73-13.86,0-28-.88-41.82-.15l-.14-.19c-1-1.56-3.8.38-4.57,1.17s-2.67,3.63-1.14,4.67l.32.23s.07.07.1.11c-1.32,5.55-.8,11.57-.76,17.24,0,4.47-1.13,10.31,1,14.37-.28,1,0,1.8,1.46,1.92,3.92.34,7.86.49,11.81.56.58.81,1.74.68,3,.05,8,.05,16.1-.23,24.09-.23,12.79,0,26,.89,38.74-.32a1.79,1.79,0,0,0,.85.72c1.57.79,4-1.79,4.05-3.49a2.85,2.85,0,0,0,.7-2.32C296.27,190.1,295.17,184.75,295.12,179.5Zm-64.45,14.08c.26-8.66.56-17.31,1.36-25.94,7.4-.12,14.8-.34,22.13-.33,3.52,0,7.15.13,10.8.26.45,5.54.26,11.07.24,16.62,0,2.75-.5,6.43,0,9.52-2.21,0-4.41.1-6.59.09C249.32,193.8,240,193.52,230.67,193.58Zm59.27-24.37a6.76,6.76,0,0,0-.42-.91,3.64,3.64,0,0,0-1.73-1.5c.76-.13,1.52-.24,2.27-.39C290,167.34,290,168.27,289.94,169.21Z" fill="#7f7f7f"/><path d="M184.4,241.22s-.05,0-.08,0a352.05,352.05,0,0,0,.59-36.32c0-1.38-.66-1.85-1.51-1.77,0-.36.07-.71.09-1.06,1.23-19,3.36-38.61,1.35-57.66,1.07-2.23.4-4.94-2.65-4.36-6.41,1.23-12.82-.46-19.26-.33A79.48,79.48,0,0,0,143.52,143c-8.69-.75-17.37-1.59-26.1-2.26-1.11-.08-2.71,1.1-3.83,2.5-7.14-1.45-14.44-3.05-21.25-.94a4.39,4.39,0,0,0-1.17.69l-.92-.93a3.22,3.22,0,0,0-3.63-.43c-1.4-2.7-6.26,2.15-6.64,3.88-3.56,16.09-1.28,34.22-1.18,50.67,0,8.2,0,16.4.06,24.6s-1.41,16.92,1.78,24.43c.52,1.23,1.47,1.24,2.44.73,13.29,3.38,29,1.13,42.66,1.16,14.73,0,31.45,2.25,46.08-.78a11.34,11.34,0,0,0,4.31,1.06,13.19,13.19,0,0,0,6.32-.77C184.13,246,186.68,242.56,184.4,241.22Z" fill="#c49257"/><path d="M368.94,243.83c-23.12-4-47.41-2.07-70.77-2.07q-36.85,0-73.69-.09c-50.36-.09-101.17-2.08-151.49.06-3.56.15-9.47,8.37-4,8.61,2,.08,3.93.12,5.9.2-2.16,2.38-3.31,5.57.13,5.84,7.06.55,14.18.77,21.32.85-.83,1.75-.67,3.34,1.63,3.47,12.46.64,25,.91,37.51,1-1.81,2-3.15,4.69-.63,5.35,12.3,3.24,26.79,1.15,39.44,1.12l44.11-.11Q240,268,261.65,268c12.81,0,26,1,38.55-1.88,1.09-.24,3.74-2.85,3.68-4.47,15,.38,30.33.81,44.83-2.28a7,7,0,0,0,3-2.74c2.82-.36,5.61-.81,8.36-1.38,1.58-.32,6.11-5.31,2.89-6.13-.37-.1-.75-.16-1.13-.24,1.85-.22,3.71-.41,5.55-.69C369,247.94,371.56,244.28,368.94,243.83Z" fill="#b7b7b7"/><path d="M49.32,242.38q28.84,0,57.7,0h263.1c.13,0,.32-.29.14-.29H115.88q-29.13,0-58.27.05H51.08c-.07,0-.18.16-.08.16q28.53,0,57.06.06l64.45,0H370.12c.13,0,.32-.29.14-.29H114.83q-29.44,0-58.89,0H49.42c-.09,0-.23.2-.1.21Z"/><path d="M79.35,138.51V163q0,12.19,0,24.39v48.32c0,4.51-.06,9,0,13.52v.37c0,.13.21,0,.21-.1,0-3.66,0-7.33,0-11V190.3q0-12.2,0-24.39l0-24.39v-3.1c0-.12-.19,0-.19.09Z"/><path d="M76.06,139.64c13.94.14,27.88,0,41.82,0H183c.12,0,.29-.27.13-.27H114.6c-.12,0-.3.28-.13.28h61.82c.13,0,.32-.3.14-.3l-33.25,0c-3.13,0-6.26,0-9.39,0-.07,0-.17.16-.08.16,11.07,0,22.14.06,33.21.06h9.37c.13,0,.32-.3.14-.3H114.6c-.12,0-.3.28-.13.28H183c.12,0,.29-.27.13-.27H99.8c-7.88,0-15.77,0-23.65,0-.08,0-.21.18-.09.18Z"/><path d="M183.8,29.27l0,42.44q0,21.3,0,42.59V157q0,21.14,0,42.27,0,20.69,0,41.38c0,1.66,0,3.32,0,5,0,.11.18,0,.18-.09.09-13.75,0-27.51,0-41.27q0-21,0-42V119.64q0-21.4,0-42.8l0-42.49V29.19c0-.1-.16,0-.16.08Z"/><path d="M323.26,241.41q.11-30.57.07-61.15v-61c0-11.3,0-22.6,0-33.9,0-.14-.23,0-.23.11q0,5.63.05,11.25c0,.09.13,0,.13-.06,0-3.77,0-7.54.05-11.3,0-.14-.23,0-.23.11-.07,20.22,0,40.45,0,60.67q0,30.57,0,61.13,0,17.1.07,34.2c0,.07.13,0,.13-.06Z"/><path d="M183.81,29.33c8,3.14,16,6.4,23.92,9.66q15.45,6.33,30.87,12.73,16.34,6.75,32.68,13.46c9.73,4,19.48,8,29.26,11.84,6.9,2.73,13.8,5.54,20.85,7.89l1.75.58c.07,0,.19-.13.11-.15-6.57-2.19-13-4.8-19.46-7.34-9.57-3.76-19.09-7.62-28.6-11.5q-16.29-6.66-32.55-13.39Q227,46.65,211.35,40.21c-8.32-3.42-16.63-6.82-25-10.13L184,29.13c-.09,0-.24.16-.14.2Z"/><path d="M183.81,45.29c8,3.14,16,6.4,23.92,9.66q15.45,6.33,30.87,12.73,16.34,6.75,32.68,13.46c9.73,4,19.48,8,29.26,11.84,6.9,2.73,13.8,5.54,20.85,7.89l1.75.58c.07,0,.19-.13.11-.15-6.57-2.19-13-4.8-19.46-7.34-9.57-3.76-19.09-7.62-28.6-11.5Q258.9,75.8,242.64,69.07,227,62.61,211.35,56.17c-8.32-3.42-16.63-6.82-25-10.13L184,45.09c-.09,0-.24.16-.14.2Z"/><path d="M215.54,163l0,22.47v6.36c0,.15.24,0,.24-.11v-18.8c0-.15-.24,0-.24.12,0,1,0,1.93.05,2.9,0,.09.14,0,.14-.07.06-1,.05-2,.05-2.95,0-.15-.24,0-.24.12v18.79c0,.15.24,0,.24-.11q0-11.22,0-22.45v-6.36c0-.11-.18,0-.18.09Z"/><path d="M216.43,163.81c4.64.13,9.29.06,13.94.07h41.78c5.23,0,10.47,0,15.7,0,.08,0,.2-.18.09-.18-9.31-.11-18.61-.05-27.92-.05h-27.8c-5.24,0-10.48-.07-15.72.06-.06,0-.17.15-.07.15Z"/><path d="M288.66,162.94c-.06,6.85-.05,13.69-.05,20.54v5.8c0,.17.27,0,.27-.12,0-5.86,0-11.72,0-17.58,0-1.65,0-3.31,0-5,0-.13-.21,0-.21.1-.06,2.94,0,5.87,0,8.81v13.76c0,.17.27,0,.27-.12q0-10.26,0-20.51c0-1.93,0-3.85,0-5.78,0-.09-.13,0-.14.07Z"/><path d="M216.84,193.07c4.75.08,9.5.05,14.24.05h42.84c5.34,0,10.67,0,16,0,.11,0,.27-.26.12-.26l-2.94,0c-.09,0-.21.2-.09.2h.53c.08,0,.2-.18.09-.18l-1.8,0c-.06,0-.16.15-.07.15h1.78c.08,0,.2-.18.09-.18h-.53c-.09,0-.21.2-.09.2l2.91,0c.11,0,.28-.25.12-.26-9.53-.09-19.05,0-28.58,0H233c-5.34,0-10.69,0-16,.05-.07,0-.18.16-.08.17Z"/><path d="M91.25,140.92q0,19.49,0,39t0,38.78c0,7.28,0,14.56.06,21.84,0,.1.15,0,.15-.07.13-13,.06-26,.06-39s0-25.84,0-38.76V140.82c0-.13-.21,0-.21.1Z"/><path d="M105.36,138.72q0,21.33,0,42.67t0,42.44c0,8,0,15.94,0,23.92,0,.1.18,0,.18-.09l0-2.49c0-.08-.12,0-.12.06l0,2.52c0,.1.18,0,.18-.09.1-14.22,0-28.45,0-42.67s0-28.29,0-42.44q0-12,0-23.92c0-.1-.18,0-.18.09Z"/><path d="M117.89,139.34c-.06,13.79,0,27.57,0,41.36s0,27.46,0,41.18c0,7.69-.11,15.38,0,23.06,0,.13.22,0,.22-.11v-.62c0-.12-.19,0-.2.09v.64c0,.13.22,0,.22-.11.11-6.91,0-13.84,0-20.76V162.3q0-11.52,0-23c0-.11-.18,0-.18.08Z"/><path d="M132,138.09q0,10.86,0,21.72v64.46c0,5.93-.06,11.87,0,17.8v.62c0,.1.16,0,.16-.08v-.27c0-.09-.16,0-.16.07v.28c0,.1.16,0,.16-.08.08-5.28,0-10.55,0-15.83V162.39c0-7.23,0-14.46,0-21.68,0-.9,0-1.8,0-2.7,0-.11-.18,0-.18.08Z"/><path d="M146.58,141.76v-.62c0-.12-.19,0-.19.09-.05,6.63,0,13.27,0,19.9V221.7c0,6.45-.06,12.9,0,19.35l0,2.3c0,.09.14,0,.14-.07.1-6.39.06-12.78.06-19.18V163.6q0-10,0-20v-2.42c0-.12-.19,0-.19.09v.62c0,.11.18,0,.18-.09Z"/><path d="M158.93,141.23c0,13.73,0,27.46,0,41.2v41c0,7.7-.1,15.4,0,23.09,0,.12.19,0,.18-.08s0-.42,0-.62-.16,0-.16.07,0,.42,0,.63.18,0,.18-.08c.13-6.87,0-13.75,0-20.61V205.2q0-20.47,0-41,0-11.55,0-23.09c0-.12-.19,0-.19.09Z"/><path d="M171.47,139c-.09,13.49,0,27,0,40.47v40.24c0,7.56,0,15.13,0,22.69,0,.13.22,0,.22-.11.05-13.48,0-27,0-40.45V161.63c0-7.56,0-15.12-.05-22.68,0-.1-.17,0-.17.08Z"/><path d="M210.11,156.26c0,5.41,0,10.81,0,16.21s0,10.83,0,16.24v9.14c0,.16.26,0,.26-.13,0-.69,0-1.39,0-2.08,0-.14-.23,0-.23.11l0,.61c0,.12.17,0,.18-.08l0-.64c0-.14-.22,0-.23.11,0,.7,0,1.4,0,2.1,0,.16.26,0,.26-.13V181.53q0-8.11,0-16.23c0-3,0-6.08,0-9.12,0-.12-.18,0-.18.08Z"/><path d="M210,197.86c3.69,0,7.37.07,11.05.07.14,0,.33-.29.15-.29h-.44c-.13,0-.32.29-.14.29H241c.13,0,.32-.29.14-.29h-16.5c-.13,0-.32.29-.14.29h57.35c5.26,0,10.52,0,15.77,0,.1,0,.24-.21.1-.21-4.68-.09-9.37,0-14.05,0h-59c-.13,0-.32.29-.14.29H241c.13,0,.32-.29.14-.29H220.71c-.13,0-.32.29-.14.29H221c.14,0,.33-.29.15-.29-3.71,0-7.42.06-11.13.07-.06,0-.15.14-.07.15Z"/><path d="M294.29,157.51c-.07,2.63,0,5.26-.05,7.88s0,5.27,0,7.91v15.77c0,2.92-.05,5.85,0,8.77,0,.15.24,0,.24-.11,0-.35,0-.69,0-1,0-.1-.16,0-.16.08,0,.35,0,.71,0,1.06,0,.15.24,0,.24-.11.06-2.59,0-5.18,0-7.77V166.3c0-3,0-5.91-.06-8.87,0-.1-.16,0-.16.08Z"/><path d="M209.93,158c5.5.1,11,0,16.51,0H275.8c6.1,0,12.2,0,18.29,0,.14,0,.32-.29.14-.29-1,0-2,0-3,.05-.08,0-.2.18-.09.18l2.9.06c.14,0,.32-.29.14-.29-10.88,0-21.77,0-32.65,0h-33c-6.18,0-12.36-.08-18.53,0-.1,0-.25.22-.11.22Z"/><path d="M98.28,138.17a16.78,16.78,0,0,1-4.19-.22,4.21,4.21,0,0,1-2.81-2.58,6.85,6.85,0,0,1-.46-5,8.85,8.85,0,0,1,2.87-3.55c1.26-1,2.61-2,3.77-3.09,0,0,.08-.12,0-.15-3.22-1.14-6.82-1.68-9.67-3.68a8.28,8.28,0,0,1-3.09-4,11.27,11.27,0,0,1-.57-3.25,8.86,8.86,0,0,1,.73-3.72c.8-2,1.85-4.33,1.07-6.54-.6-1.69-2.22-2.63-3.68-3.49a20.34,20.34,0,0,1-8-9.16,32.54,32.54,0,0,1-3-13.2A20.94,20.94,0,0,1,74.92,63.7c2.62-3.63,6.48-6,10.48-7.78,4.17-1.91,8.54-3.41,12.65-5.46a30.63,30.63,0,0,0,10.24-8.11,33.33,33.33,0,0,0,3.65-5.66,43.18,43.18,0,0,1,3.46-5.92,13.08,13.08,0,0,1,4.14-3.87,9.32,9.32,0,0,1,5.29-1,22,22,0,0,1,6.71,2A59.74,59.74,0,0,1,137.73,31c7.44,4.34,14.3,10.76,16.76,19.26a25.48,25.48,0,0,1,.07,13.37,43.12,43.12,0,0,1-3,7.58c-1.06,2.27-2.31,5-2,7.54.24,2,1.7,3,3.22,4,1,.65,1.85,1.38,2.81,2s2,1.4,3,2.13a27.36,27.36,0,0,1,8.89,10.36,30,30,0,0,1,2.22,8.38,26.26,26.26,0,0,1-.17,8.93,13.23,13.23,0,0,1-3.09,6.52,11.54,11.54,0,0,1-5.68,3.5,6.6,6.6,0,0,1-6-1.52l-.16.16c1.23,1,2.91,1.73,3.75,3.12a3.25,3.25,0,0,1,.35,2.53,3.88,3.88,0,0,1-1.53,2.05,12.84,12.84,0,0,0-3.2,2.9c-.77,1.14-.14,2.84-1.14,3.85-1.68,1.69-4.27-.37-6-.84-.09,0-.23.16-.14.19,1.67.44,3.5,2,5.3,1.34a2.33,2.33,0,0,0,1.45-1.36,11.46,11.46,0,0,0,.34-2.11c.31-1.83,2.12-2.8,3.46-3.83a3.82,3.82,0,0,0,1.69-4c-.48-2-2.7-2.89-4.15-4-.07-.06-.23.1-.16.16a6.67,6.67,0,0,0,5.73,1.63,11.15,11.15,0,0,0,5.4-2.85,11.83,11.83,0,0,0,3.31-4.93,23.28,23.28,0,0,0,1.13-8.81c-.27-5.35-1.65-10.81-4.84-15.18a28.29,28.29,0,0,0-4.9-5.06c-1.93-1.58-4-2.92-6-4.42-1.53-1.16-3.68-2.08-4.41-4a6.58,6.58,0,0,1,0-3.83,22.55,22.55,0,0,1,1.57-4.27,51,51,0,0,0,3.09-7.5,27.79,27.79,0,0,0,1-6.9,24.83,24.83,0,0,0-3.19-12.38A34.05,34.05,0,0,0,144,35a52.54,52.54,0,0,0-11.86-7.12c-3.71-1.64-8-3.26-12-1.48-3.53,1.58-5.72,5.22-7.48,8.49A52.35,52.35,0,0,1,109,41.27a29,29,0,0,1-4.84,5.12c-3.79,3.13-8.31,5-12.82,6.87C87.22,55,83,56.54,79.38,59.14A19.18,19.18,0,0,0,71.94,69.6a29,29,0,0,0-.15,13,27.56,27.56,0,0,0,5.32,12,17.83,17.83,0,0,0,4.38,3.88c1.61,1,3.58,1.89,4.28,3.79.94,2.56-.62,5.09-1.41,7.45a9.71,9.71,0,0,0,.27,6.38c1.28,3.38,4.49,4.95,7.73,6,1.66.53,3.34,1,5,1.55l0-.14c-2.14,2.11-5.29,3.55-6.58,6.41a6.4,6.4,0,0,0,0,4.79A4.78,4.78,0,0,0,93.39,138c1.49.6,3.24.39,4.81.39.08,0,.18-.17.08-.17Z"/><path d="M99,137.05v.83l.14-.14c-2.71.34-4.86-1.33-6.41-3.38a37,37,0,0,1-4.38-8.62c-1.18-3-2.23-6-3.65-8.86a13.49,13.49,0,0,0-2-3.08c-1.35-1.52-2.86-2.91-4.32-4.32-3.23-3.08-6.54-6.24-8.65-10.22a16,16,0,0,1-2-6.62,13.08,13.08,0,0,1,1.57-6.51c2.09-4.1,5.49-7.33,8.5-10.73s5.84-6.6,7.66-10.69a28.54,28.54,0,0,0,1.87-6.06c.46-2.31.5-4.7,1.12-7A17.41,17.41,0,0,1,96,41.84a28.19,28.19,0,0,1,13.42-4.43,29.91,29.91,0,0,1,14.18,2.8,64.57,64.57,0,0,1,12.84,8.22,140.36,140.36,0,0,1,12.17,10.41,68.88,68.88,0,0,1,10.29,12.55,33.2,33.2,0,0,1,4.81,15.22,28.08,28.08,0,0,1-.44,8,34.85,34.85,0,0,1-2.49,6.73,52.09,52.09,0,0,0-2.6,6.34,12.65,12.65,0,0,0-.62,6.24c.68,3.11,3.55,4.48,5.93,6.15a10.09,10.09,0,0,1,3.29,3.43c1.33,2.49,1,5.42.29,8.05-.33,1.28-.74,2.53-1.08,3.81a2.07,2.07,0,0,1-.26.83,2.36,2.36,0,0,1-.54.4,3.58,3.58,0,0,1-1.74.69c-.1,0-.24.23-.1.22a4.38,4.38,0,0,0,2.49-1.19c.31-.28.3-.77.41-1.16.19-.72.4-1.43.6-2.14.75-2.58,1.44-5.32.76-8a8.42,8.42,0,0,0-2.92-4.36c-1.22-1-2.61-1.75-3.88-2.68a7.4,7.4,0,0,1-2.82-3.41c-.74-2-.33-4.33.23-6.36,1.29-4.67,4.1-8.76,5.22-13.49a27.86,27.86,0,0,0,.5-7.89,33.5,33.5,0,0,0-1.41-7.95,31.6,31.6,0,0,0-3.29-7.45A58.64,58.64,0,0,0,154.62,65,91.59,91.59,0,0,0,142.8,53.2c-2.05-1.75-4.18-3.39-6.3-5.05s-4.24-3.24-6.49-4.69a39.15,39.15,0,0,0-13.39-5.79,27.79,27.79,0,0,0-14.79,1.13A24.1,24.1,0,0,0,91.6,45.44a16.44,16.44,0,0,0-3.06,5.32,42.69,42.69,0,0,0-1.23,6.92,28.67,28.67,0,0,1-5.2,12.39c-2.77,3.75-6.19,7-9.19,10.54-2.81,3.34-5.5,7.31-5.42,11.85A15.51,15.51,0,0,0,69.35,99a26.54,26.54,0,0,0,3.88,5.58c2.89,3.3,6.32,6.08,9.27,9.33a14,14,0,0,1,2,3.25c.68,1.4,1.27,2.85,1.85,4.3,1.26,3.2,2.42,6.46,4,9.53,1.23,2.4,2.8,5.09,5.3,6.36a5.69,5.69,0,0,0,3.37.55.16.16,0,0,0,.12-.14V137c0-.11-.18,0-.18.09Z"/><path d="M242.94,170.59,229.73,183.8l-3.7,3.71.08.08.63-.63c.08-.08,0-.16-.08-.08l-.63.63c-.08.08,0,.16.08.08,4.42-4.39,8.82-8.81,13.22-13.21l3.7-3.7c.1-.1,0-.19-.09-.09Z"/><path d="M247.64,170l-6.58,6.59c-.09.09,0,.18.1.09l6.58-6.57c.11-.11,0-.21-.1-.11Z"/><path d="M283.36,168.08q-6.74,6.71-13.45,13.43c-1.27,1.26-2.52,2.53-3.77,3.81-.08.08,0,.15.07.08,4.52-4.45,9-9,13.46-13.43l3.78-3.8c.09-.09,0-.18-.09-.09Z"/><path d="M50.38,242.75l-3.24-.21c-.52,0-1.26,1.09-.55,1.14,3.29.24,6.65.16,9.95.16.66,0,1.59-1.46.7-1.46l-13.78,0c-.67,0-1.63,1.49-.72,1.49h7.1c.68,0,1.64-1.5.72-1.5H40.12c-.68,0-1.65,1.51-.72,1.51l137.26,0H313.07c25.59,0,51.18-.15,76.76.13.78,0,1.86-1.71.82-1.71-4.33,0-8.68,0-13,.14-.66,0-1.54,1.49-.69,1.43l1.72-.11c.54,0,1.31-1.25.58-1.21l-2.15.14c-.38,0-1.07.9-.45.94l2,.13c.55,0,1.34-1.16.58-1.21l-1.61-.11c-.66,0-1.57,1.4-.69,1.43,4.28.17,8.59.13,12.88.14.78,0,1.86-1.72.82-1.71-45.66.5-91.35.14-137,.13H117.15l-77,0c-.68,0-1.65,1.51-.72,1.51H49.84c.68,0,1.64-1.5.72-1.5h-7.1c-.67,0-1.63,1.49-.72,1.49h13.8c.66,0,1.59-1.46.7-1.46-3.35,0-6.76-.08-10.1.16-.51,0-1.24,1.18-.55,1.14l3.44-.21c.29,0,.82-.69.35-.72Z"/><path d="M184.13,27.84c-.07,1.41-.12,2.82-.13,4.24,0,.86,1.43,0,1.43-.69V30.24c0-.87-1.43,0-1.43.69v.73c0,.87,1.43,0,1.43-.69V24.29c0-.88-1.44,0-1.44.69q0,42.26,0,84.52v84.44c0,15.81,0,31.63-.05,47.45,0,.94,1.55,0,1.55-.74v-.84c0-.95-1.55,0-1.55.75,0,2.93,0,5.87-.08,8.81,0,1,1.72,0,1.71-.83,0-1.24,0-2.48-.08-3.71,0-1-1.57,0-1.54.74,0,.18,0,.37,0,.55a3.65,3.65,0,0,0,0,.49c0,.87,1.44,0,1.44-.7v-.22c0-.88-1.44,0-1.44.69v.23c0,.87,1.44,0,1.44-.7,0,.22,0-.41,0-.51s0-.38,0-.57c0-.93-1.52,0-1.54.74,0,1.26-.08,2.53-.09,3.8,0,1,1.72,0,1.71-.83,0-2.91-.06-5.82-.08-8.73,0-.95-1.56,0-1.55.75v.83c0,.94,1.55,0,1.55-.74-.17-28.17-.05-56.34-.05-84.5s0-56.3,0-84.44q0-23.71,0-47.42c0-.88-1.44,0-1.44.69v6.68c0,.87,1.43,0,1.43-.69v-.73c0-.87-1.43,0-1.43.69v1.15c0,.87,1.43,0,1.43-.69,0-1.38-.05-2.74-.12-4.12,0-.75-1.16.08-1.18.57Z"/><path d="M323.48,84.87a23.44,23.44,0,0,0-.35,4c0,.85,1.39,0,1.39-.67V87c0-.85-1.39,0-1.39.67,0,1.53,0,3.07,0,4.6,0,.88,1.43,0,1.44-.69q0-3.35,0-6.71c0-.93-1.54,0-1.54.74-.08,20.88,0,41.75.09,62.63.07,20.72,0,41.44.23,62.15.12,11.72,0,23.45-.21,35.16,0,.8,1.31,0,1.32-.63v-.42c0-.81-1.33,0-1.34.64l0,1.27c0,.84,1.37,0,1.39-.67,0-.43,0-.86.05-1.28s-.48-.42-.76-.3a1.28,1.28,0,0,0-.74,1l0,.86c0,.9,1.63,0,1.58-.77l0-.81c-.05-.93-1.53,0-1.5.72,0,.41.05.82.06,1.23,0,.85,1.4,0,1.39-.67l0-1.24c0-.82-1.35,0-1.34.64v.41c0,.81,1.34,0,1.32-.63-.43-20.88-.06-41.76-.05-62.65s.13-41.58.22-62.37c.05-11.67,0-23.35-.06-35,0-.94-1.54,0-1.54.74q0,3.33.05,6.66c0,.88,1.45,0,1.44-.69,0-1.53,0-3.05,0-4.58,0-.85-1.39,0-1.39.67v1.25c0,.85,1.39,0,1.39-.67a18.78,18.78,0,0,0-.35-3.67c-.08-.37-.66.15-.69.33Z"/><path d="M186,28.89c.84.4,1.33.66,2.18,1L192,31.49c3.79,1.56,7.57,3.15,11.35,4.73l15.32,6.44,17.94,7.58q9.56,4,19.11,8.12l19.06,8.13q8.81,3.75,17.61,7.53,7.35,3.17,14.68,6.42c3.52,1.56,7,3.12,10.54,4.72,1.69.76,3.37,1.53,5,2.38l.09.06c-.26-.16-.07-.08-.07,0s0,0,0,0c-.23-.38-.66-.94.75-1.49-.86.34-1.28,2.05,0,1.55.54-.21,1.23-1.13.67-1.62a3.11,3.11,0,0,0-.62-.35c-.73-.38-1.48-.72-2.23-1.07-3-1.36-5.93-2.66-8.91-4q-6.81-3-13.66-5.92c-5.68-2.45-11.35-4.93-17-7.39q-9.45-4.08-18.91-8.13Q253,55,243.25,50.91q-9.33-4-18.67-7.89-8.15-3.44-16.32-6.81-6.37-2.64-12.77-5.21c-1.53-.6-3.05-1.21-4.59-1.78l-1.74-.64-.76-.26a6.59,6.59,0,0,0-.65-.19l-1-.24c-.43-.1-1.28.74-.72,1Z"/><path d="M186,44.54c.84.4,1.33.66,2.18,1L192,47.14c3.79,1.56,7.57,3.15,11.35,4.73,5.11,2.13,10.22,4.29,15.32,6.44,6,2.53,12,5,17.94,7.58q9.56,4,19.11,8.12l19.06,8.13q8.81,3.75,17.61,7.53c4.9,2.1,9.79,4.26,14.68,6.42,3.52,1.56,7,3.12,10.54,4.71,1.69.77,3.37,1.54,5,2.39l.09.06c-.26-.16-.07-.08-.07,0s0,0,0,0c-.23-.38-.66-.94.75-1.49-.86.34-1.28,2,0,1.54.54-.2,1.23-1.12.67-1.61a2.68,2.68,0,0,0-.62-.35c-.73-.38-1.48-.73-2.23-1.07-3-1.36-5.93-2.67-8.91-4q-6.81-3-13.66-5.92c-5.68-2.45-11.35-4.93-17-7.39q-9.45-4.08-18.91-8.14-9.74-4.16-19.48-8.28l-18.67-7.9q-8.15-3.42-16.32-6.8-6.37-2.64-12.77-5.21c-1.53-.6-3.05-1.21-4.59-1.78-.58-.22-1.16-.44-1.74-.64L188.4,44a4.66,4.66,0,0,0-.65-.19l-1-.24c-.43-.1-1.28.74-.72,1Z"/><path d="M209.6,157.92q0,7.77,0,15.53c0,5.15,0,10.31,0,15.46,0,1.46,0,2.91,0,4.36,0,.74,0,1.47-.07,2.21l-.08,1.15a4.13,4.13,0,0,0,0,.5,1.21,1.21,0,0,0,.19.54c.16.28.5.17.72,0s.57-.56.41-.83l0-.08c-.31-.52-1.3.32-1.05.75l.13.22c.18.33.66,0,.75-.27l.12-.32c.08-.22.1-.53-.22-.54a.88.88,0,0,0-.73.53l0,.1c-.09.25-.11.58.23.6a1,1,0,0,0,.8-.58,2.76,2.76,0,0,0,.23-1.05c0-.34,0-.68-.06-1,0-.63-.09-1.25-.1-1.88,0-1.29,0-2.59,0-3.89,0-2.56-.07-5.12,0-7.68.07-5.2,0-10.4,0-15.59,0-2.91,0-5.81,0-8.72,0-.27-.31-.28-.5-.19a.82.82,0,0,0-.49.67Z"/><path d="M210.23,158.05a24.43,24.43,0,0,0,2.57.1,1.13,1.13,0,0,0,.91-.67c.13-.27.13-.68-.26-.68h-2.72a1.16,1.16,0,0,0-.93.67c-.12.27-.12.7.28.7,11,0,21.92,0,32.88,0s21.89-.09,32.84-.08c3.08,0,6.17,0,9.25,0l4.51,0a40.76,40.76,0,0,0,4.69,0,1.15,1.15,0,0,0,.95-.76c.13-.36,0-.66-.46-.57l-.88.18c-.24.05-1,.81-.45.94l.7.18c.72.19,1.65-1.22.79-1.32a32.07,32.07,0,0,0-4.16,0l-4.05,0c-2.76,0-5.51,0-8.26,0H261.94c-2.73,0-5.47-.07-8.2-.07H229.2l-18.47,0a1.14,1.14,0,0,0-.93.67c-.12.27-.12.7.28.7h2.72a1.11,1.11,0,0,0,.91-.67c.13-.26.13-.69-.26-.68-.9,0-1.77,0-2.66.09a1,1,0,0,0-.79.58c-.12.25-.09.55.23.58Z"/><path d="M294.5,157.82c-.11,5.18-.05,10.36-.05,15.54v15.49c0,2.92-.1,5.83-.14,8.74,0,.46.52.38.78.22a1,1,0,0,0,.57-1,2.13,2.13,0,0,0-.11-.33c-.09-.23-.38-.19-.56-.11a1,1,0,0,0-.54.64c0,.15-.09.3-.12.45-.08.41.2.6.59.47a1.16,1.16,0,0,0,.77-1c0-2.54-.13-5.08-.14-7.62s0-5.17,0-7.76V166c0-2.9,0-5.8-.05-8.71,0-.28-.31-.29-.51-.19a.82.82,0,0,0-.49.68Z"/><path d="M210.22,198.08l.3,0c.57,0,1.38-1.21.6-1.26h-.3c-.58,0-1.43,1.22-.62,1.29,1.35.1,2.73,0,4.09,0h12.17q8.08,0,16.16,0c10.76-.05,21.52,0,32.28,0h13.62q1.07,0,2.13.09c.34,0,.69.08,1,.08s.73,0,1.1-.06a1.19,1.19,0,0,0,1-.7c.13-.26.14-.74-.28-.72l-.54,0a1.19,1.19,0,0,0-.93.68c-.13.29-.12.68.27.7l.52,0a1.15,1.15,0,0,0,1-.7c.14-.3.13-.7-.28-.72a12.42,12.42,0,0,0-1.83,0c-.69.06-1.37.12-2.07.12H261.32c-10.74,0-21.48-.09-32.23-.09H215.44c-1.53,0-3.09-.06-4.62.05a1.1,1.1,0,0,0-.88.63c-.11.24-.12.68.26.66l.32,0a1.08,1.08,0,0,0,.85-.62c.11-.23.12-.66-.25-.64l-.32,0a1,1,0,0,0-.82.6c-.12.26-.11.6.24.62Z"/><path d="M288.63,163.11a39.65,39.65,0,0,0-.19,5.56c0,1.83,0,3.66,0,5.49,0,3.63,0,7.26,0,10.9,0,2.08,0,4.16,0,6.24,0,.36.4.37.64.26a1.08,1.08,0,0,0,.63-.87c0-.36,0-.72,0-1.08a1.34,1.34,0,0,0-.19-.81l.07.19h0c0-.29-.31-.3-.51-.21a.86.86,0,0,0-.5.69v0l.06-.25a4.82,4.82,0,0,0-.19,2.07c0,.36.39.37.64.26a1.08,1.08,0,0,0,.63-.87q-.07-10.91,0-21.8c0-1,0-2,0-3.08a20.17,20.17,0,0,0-.15-3c-.09-.52-.81,0-.85.31Z"/><path d="M215.75,191.4c1.19.07,2.38,0,3.57,0H244c9.36,0,18.73,0,28.09,0,2.63,0,5.26,0,7.88,0,1.28,0,2.56,0,3.83.07l1.92.06c.33,0,.65,0,1,0a3.68,3.68,0,0,0,1.11-.31c.27-.1.91-.67.44-.92a1.86,1.86,0,0,0-.67-.31,5.62,5.62,0,0,0-.82,0l-1.84.06-3.52.07c-2.37,0-4.75,0-7.12,0-4.68,0-9.35,0-14,0H220.38c-1.35,0-2.7,0-4,0a1,1,0,0,0-.83.61c-.12.26-.11.6.24.62Z"/><path d="M215.34,163.91c2.32.14,4.66.08,7,.08h21l13.88,0c4.66,0,9.33-.05,14,0,2.6,0,5.2.08,7.8.14l3.83.08a34.42,34.42,0,0,0,4.06-.13,1.26,1.26,0,0,0,1-.84c.15-.42,0-.71-.51-.64l-.65.1a1.18,1.18,0,0,0-.73.62c-.08.17-.15.58.12.64l.56.1a1.14,1.14,0,0,0,1.12-.62c.19-.34.25-.8-.24-.86s-1.12-.06-1.67-.08-1.22-.06-1.84-.05c-1.15,0-2.31,0-3.46.06l-7.08.14c-4.68.07-9.36.06-14,.05-9.28,0-18.56-.05-27.85,0h-7.87c-2.63,0-5.28-.07-7.91.08a1,1,0,0,0-.8.58c-.12.25-.1.58.23.6Z"/><path d="M215.11,163.87a5.08,5.08,0,0,0-.15.65,2.58,2.58,0,0,0,0,.62,11.81,11.81,0,0,1,0,1.19c0,.35.39.36.62.25a1,1,0,0,0,.61-.84l0-1.89c0-.37-.4-.37-.65-.26a1.08,1.08,0,0,0-.63.87c0,3.46,0,6.91,0,10.36s-.08,6.86-.13,10.29l0,2.89c0,.5,0,1,0,1.49,0,.24,0,.48,0,.72a2.1,2.1,0,0,0,.24.63c.24.54.93-.22,1-.5a5.2,5.2,0,0,0,.21-.67,4.14,4.14,0,0,0,.06-.7c0-.46.06-.92.05-1.39l0-2.54c0-1.71,0-3.42-.08-5.14,0-3.4-.06-6.79-.06-10.19,0-2,0-3.91,0-5.86,0-.36-.4-.38-.65-.26a1.08,1.08,0,0,0-.63.87l0,1.87c0,.35.38.36.62.25a1,1,0,0,0,.61-.84c0-.41,0-.81,0-1.22a2.73,2.73,0,0,0,0-.57,1.94,1.94,0,0,0-.17-.58c-.08-.22-.35-.18-.52-.1a1,1,0,0,0-.51.6Z"/><path d="M79.2,138.89a49.94,49.94,0,0,0-.23,5.19c0,1.66,0,3.33,0,5,0,3.35,0,6.71,0,10.06,0,6.64,0,13.27,0,19.91Q79,199,79,218.89c0,7.49-.28,15-.07,22.48,0,.89,1.47,0,1.45-.7s-.17-1.45-.26-2.17-.89.09-.93.45c-.09.8-.23,1.61-.26,2.42,0,.42.46.41.73.29a1.22,1.22,0,0,0,.72-1c.18-6.72,0-13.45-.06-20.17s0-13.31,0-20q.08-19.93.11-39.89,0-5.58,0-11.16c0-1.82,0-3.64,0-5.46a49.22,49.22,0,0,0-.24-5.57c-.09-.62-.87.09-.91.43Z"/><path d="M80.17,137.74l-.55.41-.7.6c-.37.34-.72.69-1.08,1a1.12,1.12,0,0,0-.31.52.47.47,0,0,0,.07.43c.3.25.73,0,1-.24a4.83,4.83,0,0,0,1-1.07c.13-.24.13-.61-.19-.66a1,1,0,0,0-.87.47,1.74,1.74,0,0,0-.11.18h0c-.08.22-.08.23,0,0-.07.17-.15.41,0,.57s.4.08.57,0c-.21.08-.21.08,0,0h0l0-1.17a5.1,5.1,0,0,0-1.07.95l.71.71c.34-.36.69-.71,1-1.08l.59-.69c.15-.18.27-.38.42-.56s.2-.37.06-.48a.38.38,0,0,0-.48.06Z"/><path d="M78.39,139.76c5,.13,10.08.25,15.12.26a1.2,1.2,0,0,0,1-.71c.13-.29.13-.73-.28-.73-3.06,0-6.12,0-9.19,0a1.23,1.23,0,0,0-1,.73c-.13.29-.13.75.29.75,12.86,0,25.72,0,38.57,0s25.8,0,38.7,0l10.89,0q2.72,0,5.43,0l2.7,0c.42,0,.84,0,1.25,0a12.52,12.52,0,0,0,1.49-.25c.26,0,1-.87.48-1s-.73-.17-1.1-.22a8.08,8.08,0,0,0-1.1,0l-2.53,0c-1.64,0-3.29,0-4.93,0h-9.62l-19.23,0q-19.32,0-38.63,0-10.83,0-21.66,0a1.25,1.25,0,0,0-1,.73c-.13.29-.13.75.29.75,3.07,0,6.14,0,9.2,0a1.2,1.2,0,0,0,1-.71c.13-.28.14-.73-.28-.73-5.13,0-10.25.14-15.38.26-.4,0-1,.9-.44.92Z"/><path d="M90.53,140a7.85,7.85,0,0,1,0,.84c0,.35.4.35.62.24a1,1,0,0,0,.61-.83c0-.21,0-.43,0-.64,0-.36-.39-.37-.64-.25a1.08,1.08,0,0,0-.63.86v.42c0,.36.39.37.64.25a1.07,1.07,0,0,0,.63-.86v-.63c0-.36-.4-.36-.64-.25a1.08,1.08,0,0,0-.63.86c0,7.59,0,15.18,0,22.77s0,15.07,0,22.61c0,2.1,0,4.21,0,6.31,0,1,0,2.1,0,3.15a11.34,11.34,0,0,0,.16,1.53c.07.51.08,1,.11,1.54s.64,0,.63-.29l0-.41c0-.37-.56,0-.57.27l0,.43c0,.19.2.18.32.13a.56.56,0,0,0,.31-.42c0-.47,0-.94.08-1.4s.16-1.05.18-1.57c0-.95,0-1.91,0-2.86,0-1.86,0-3.72,0-5.57q0-5.69,0-11.37,0-11.34,0-22.67c0-4.26,0-8.52,0-12.79,0-.36-.4-.36-.64-.25a1.06,1.06,0,0,0-.63.86v.63c0,.36.39.37.64.25a1.07,1.07,0,0,0,.63-.86v-.42c0-.36-.4-.37-.64-.25a1.06,1.06,0,0,0-.63.86c0,.21,0,.41,0,.62s.37.36.62.24a1,1,0,0,0,.61-.83,7.85,7.85,0,0,1,0-.84c0-.34-.39-.35-.62-.24a1,1,0,0,0-.61.83Z"/><path d="M105.13,140.13c0,.43-.08.86-.08,1.3,0,.29.31.28.51.2a.87.87,0,0,0,.5-.69c0-.63,0-1.26,0-1.89,0-.31-.33-.3-.53-.21a.88.88,0,0,0-.52.71c-.07,10.59,0,21.17,0,31.75s0,21.11.06,31.67l0,8.88,0,4.36c0,1.5,0,3,.08,4.51,0,.42.71,0,.69-.33,0-.14,0-.27,0-.41,0-.38-.63,0-.63.3s0,.29,0,.44.22.19.35.13a.6.6,0,0,0,.34-.46c.09-1.36.06-2.73.07-4.09l0-3.91,0-8q0-7.94,0-15.87,0-15.85,0-31.7c0-5.94,0-11.88,0-17.81,0-.3-.32-.3-.53-.21a.88.88,0,0,0-.52.71c0,.63,0,1.25,0,1.88s1,0,1-.49,0-.81-.08-1.22c0-.24-.25-.25-.43-.17a.72.72,0,0,0-.42.58Z"/><path d="M117.9,140.12a36.81,36.81,0,0,0-.19,4.33l0,4.32c0,2.88,0,5.76,0,8.64,0,5.74,0,11.48,0,17.22,0,1.55,0,3.09,0,4.64,0,.75,0,1.5,0,2.25a11.84,11.84,0,0,0,.16,2.15c0,.19.31.13.42.08a.77.77,0,0,0,.42-.48,16,16,0,0,0,.15-2.08c0-.68,0-1.35,0-2V175q0-4.22,0-8.43c0-5.79,0-11.58,0-17.37l0-4.83a33.1,33.1,0,0,0-.18-4.67c0-.22-.23-.23-.41-.15a.65.65,0,0,0-.39.54Z"/><path d="M131.68,141.37c0,6.56-.06,13.12-.07,19.68v2.74c0,.46,0,.91,0,1.36a8.08,8.08,0,0,0,.15,1.31c.06.32.58-.13.61-.29a9,9,0,0,0,.15-1.26l0-1.26c0-.81,0-1.62,0-2.43,0-1.64,0-3.28,0-4.92l0-9.77,0-5.54c0-.23-.24-.23-.4-.16a.68.68,0,0,0-.4.54Z"/><path d="M145.82,140.15c-.2,8.65-.06,17.32,0,26s.07,17.21,0,25.82c0,4.85,0,9.69.12,14.53,0,.34.54,0,.54-.26.29-8.67.09-17.36.11-26s.11-17.28.15-25.92c0-4.85.05-9.7-.07-14.55,0-.26-.28-.27-.46-.19a.81.81,0,0,0-.46.63Z"/><path d="M159.67,141q-.1,9.13-.14,18.27c0,.83,0,1.66,0,2.5V163a2.67,2.67,0,0,0,.12,1.29c.21.33.7,0,.8-.3a6.43,6.43,0,0,0,.16-2.32c0-.77,0-1.54,0-2.31,0-1.51,0-3,0-4.54,0-3,0-6-.07-9.07l-.06-5.14c0-.22-.25-.22-.4-.15a.67.67,0,0,0-.4.53Z"/><path d="M172,139.09q-.1,16.46-.13,32.91l0,32.69q0,4.6,0,9.21c0,3-.05,6.09.2,9.12,0,.44.74,0,.71-.34l-.05-.61c0-.4-.6.05-.62.3l0,.65c0,.21.23.2.36.14a.58.58,0,0,0,.35-.48c.21-2.76.18-5.54.19-8.31s0-5.48,0-8.22q0-8.22,0-16.42c0-10.89,0-21.78,0-32.67q0-9.18-.11-18.38c0-.52-.83,0-.84.41Z"/></svg>