<svg xmlns="http://www.w3.org/2000/svg" viewBox="0 0 430 294"><g style="isolation:isolate"><path d="M241.6,255.67c.54-3.73.09-7.52,0-11.42-.18-5.54-.27-11.07-.22-16.62.1-11.13.31-22.25.24-33.38,0-.76-.3-1.12-.76-1.21a1.85,1.85,0,0,0-.86.06c-6.77-1.95-14.61-.93-21.58-.93H193.75c-16.44,0-32.89-.16-49.33.09a3,3,0,0,0-2.13,1.16l-.33-.83c-.62-1.56-3,.8-2.78,2,3.56,18.37,15.08,35.13,29.67,46.5,14.26,11.11,33.7,22.95,52.4,22.22a2.22,2.22,0,0,0,1.17-.51c4,1,13.11-1.24,15.36-1.59a.84.84,0,0,0,.7.26c1,.88,4.2-1.28,4.1-3A3.8,3.8,0,0,0,241.6,255.67Z" fill="#515151"/><path d="M280.49,161.13c-.74-4.24-1.63-8-1.54-12.3.05-2.48.89-5.11.27-7.55-.46-1.8-5-1.29-8.25-.64a1.1,1.1,0,0,0-.85-.2c-9.89.82-19.71-.28-29.59.21a1.49,1.49,0,0,0-.56.14.73.73,0,0,0-.31-.17c-.42-1.41-3.48.36-3.6,2.1v.07a1.47,1.47,0,0,0,0,.9c-.34,6.73.45,13.46.21,20.19a1,1,0,0,0,1,1c6.28.33,12.75-.44,19.07-.44,7,0,14.06.9,21,.33C279.09,164.66,280.81,162.93,280.49,161.13Z" fill="#515151"/><path d="M280,120.36a2.91,2.91,0,0,0,0-.3c0-6.51-.3-13-.38-19.51,0-1.11-1.21-1.16-2-.77a33.9,33.9,0,0,1-5.1.84,1.1,1.1,0,0,0-1-.39c-2.25,0-4.52.23-6.79.43a.72.72,0,0,0-.84-.54,18.86,18.86,0,0,1-4.31-.21,7.45,7.45,0,0,0-1.63-.16l-.19,0,0,0-.51,0a3,3,0,0,0-1.48.79,32.49,32.49,0,0,0-9.6-.19,2.07,2.07,0,0,0-.84.41,45.16,45.16,0,0,0-4.66-.25,1,1,0,0,0-.39,0,1.24,1.24,0,0,0-.1-.2.7.7,0,0,0-.51-.49c-1.39-.81-3.42,1.67-3.44,2.89,0,5.42.28,10.72,0,16.15-.17,3,1.1,4.6,4,4.56,3.07,0,35.87-.38,35.77-1,.39,2.39,3.42.25,4-1.46l0,0c0-.1,0-.21,0-.32s0,0,0-.06,0-.07,0-.1Z" fill="#515151"/><path d="M279.52,81.08c-.32-1.74-.45-2.81-.74-4.09a35.15,35.15,0,0,0,.47-4.48,61.57,61.57,0,0,0-.4-13.09c-.23-1.53-1.4-1.22-2.41-.38-.15-.32-.48-.52-1.09-.52a106.54,106.54,0,0,0-11,.93,1.3,1.3,0,0,0-.33-.19l-1-.4a1,1,0,0,0-.09-.13,1.19,1.19,0,0,0-.93-.32,0,0,0,0,1,0,0l-.19,0-.17,0h0a1.75,1.75,0,0,0-.51,0,2.54,2.54,0,0,0-.93.33l-.14.07a5.24,5.24,0,0,0-.61.34,2.75,2.75,0,0,0-.44-.06c-2.76-.14-5.53-.21-8.3-.35a2.92,2.92,0,0,0-1.71.76c-2.65-.19-5.26-.47-7.78-.85a2.23,2.23,0,0,0-1.54.57c-.26-2.24-3.87.43-3.94,2.06A97.7,97.7,0,0,0,236,72.67a23.19,23.19,0,0,0,.39,2.67,1,1,0,0,0-.06.32c-.11,2.33-.41,4.62-.75,6.92-.12.83.08,1.47,1,1.56,6.87.67,14.25.23,21.19.27,3.4,0,6.79-.17,10.17-.47,2.43-.21,5.66-1.62,7.68.43C277.25,86,279.81,82.61,279.52,81.08Z" fill="#515151"/><path d="M351.74,232.19V202.67q0-28.3,0-56.6c0-18.86-.09-37.72,0-56.58.09-19.55-.68-38.93-1.25-58.45,0-.85-.8-.64-1.43-.13-.62-1.36-2.44-1-3.68-.95a32.28,32.28,0,0,0-4.19.34.78.78,0,0,0-.41-.37,1.33,1.33,0,0,0-1.1-.06,2.17,2.17,0,0,0-.49.15,3.81,3.81,0,0,0-1.12.86s0,0-.05.05a9.58,9.58,0,0,0-.37-1.37c-.54-1.61-3.21.7-3.09,1.85.88,8.49-5.16,18.9-8.32,26.62-3.54,8.68-7.47,17.2-11.54,25.64-7.2,15-16.36,28.27-28.46,39.68a122.33,122.33,0,0,1-22.85,16.79l-1,.09c-2.05.25-4.33.63-6.62.85-.15-.34-.52-.55-1.23-.54-2.44,0-4.82-.21-7.25,0a2.69,2.69,0,0,0-.95.37c-.07-.15-.12-.3-.19-.44-.48-.94-1.4-.46-2.08.22-.67-.85-2.26.71-2.5,1.27a6.43,6.43,0,0,0-.39,2.5,8.91,8.91,0,0,0,.12,2.48s0,.09.07.13c0,.61-.08,1.22-.09,1.83s-.06,1.3-.09,2a130.93,130.93,0,0,1-16.77,4.7c-4,.9-8.93,2.1-11.34,5.74-1.28,2,.12,2.72,1.49,2.19a50.18,50.18,0,0,0-.38,8.33c0,2.45-.48,5.64.07,8.28a3.14,3.14,0,0,0-1.19,2.74.75.75,0,0,0,.46.46,2.41,2.41,0,0,0,2-.57,1.47,1.47,0,0,0,1.44-.48c6.07,1.45,13.54.32,19.56.32,5.23,0,11,.63,16.46.23-.17,8.32-.51,16.61-.63,25a1.24,1.24,0,0,0,0,.27c-.1,8.81-.09,17.61-.1,26.42q0,7.25,0,14.47c0,3.58-.5,7.34.34,10.82a1.41,1.41,0,0,0,.11,1.61c.58.59,1.5.23,2.13-.14,6.63,1.17,13.78.51,20.46.52l24.26,0c16.15,0,32.31.13,48.47,0,1.56,0,3.67-2.62,3.41-3.93a2,2,0,0,0,.07-.31C352.46,249.29,351.74,240.54,351.74,232.19Z" fill="#c4c4c4"/><path d="M334.14,213q.06-12.57.09-25.16c.31-7,1.34-15,0-21.71,2-14,.74-28.8.73-42.83q0-13-.11-25.94s0,0,0-.08c.21-12.05.82-24.54-.57-36.53-.08-.73-.42-1-.86-1a1.27,1.27,0,0,0-.75-.19l-1.25,0a9,9,0,0,0-5.17-.14,3.72,3.72,0,0,0-1.4,1l-.42-.07c-1.17-.08-2.32,0-3.47-.07-.16-.43-.61-.64-1.45-.23s-2.53-.52-3.42-.55c-1.5-.07-4.68,3.26-2.51,4.17-.91,14.29-.39,28.76-.46,43.08-.06,13.53-1.55,28.32.69,41.77a1,1,0,0,0,0,.24c-.23,16.18-.14,32.37-.12,48.55q0,12.11,0,24.22c0,5.9-1.47,14.25.36,20.15a3.46,3.46,0,0,0-.6.87l-.07.15c-.33.73-.44,1.63.39,2,4.31,2.14,9.52.54,14.14.42,2.31-.06,6.41,1.06,6.61-2.57,0-.34-.21-.86-.59-.92h-.05C336.15,232.83,334.1,222,334.14,213Z" fill="#515151"/><path d="M205.35,215.65c0-6.33-.3-12.76-.82-18.89-.16-1.95-.32-2.63-2.06-3-5-1.14-10.49-.52-15.57-.52-3.12,0-6.24-.16-9.36,0-2.55.12-5.27.92-7.9,1.2a1.65,1.65,0,0,0-.62-1.12,1.28,1.28,0,0,0-1.06-.1,2.15,2.15,0,0,0-.62.18,3.86,3.86,0,0,0-1.51,1.32,2.34,2.34,0,0,0-.59,1.56,35.91,35.91,0,0,0-.05,4.64c0,.41,0,.85.09,1.28A137.1,137.1,0,0,0,165,218c0,2.09-.43,4.16-.31,6.26.37,6.32,11.79,4.6,15.66,4.33,5.49-.39,11.22-.22,16.72-.06,2,.06,4.26.65,6-.41a4.25,4.25,0,0,0,1.77-2.49,1.63,1.63,0,0,0,.07-.36C205.22,222.12,205.33,218.9,205.35,215.65Z" fill="#c4c4c4"/><path d="M279.36,104.64a6.89,6.89,0,0,0-.18-2.22c-.23-.63-1-1.26-1.16-1.83s-.55-.35-1-.06a1.81,1.81,0,0,0-.47-.11,64.42,64.42,0,0,0-14.22-.36c-2.05.25-4.33.63-6.62.85-.15-.34-.52-.55-1.23-.54-2.44,0-4.82-.21-7.25,0a2.51,2.51,0,0,0-.95.37c-.07-.15-.12-.3-.19-.44-.48-.94-1.4-.47-2.08.22-.67-.85-2.26.71-2.5,1.27a6.4,6.4,0,0,0-.39,2.5,9,9,0,0,0,.12,2.48s0,.09.07.13c0,.61-.08,1.21-.09,1.83-.05,2.26-.45,4.76.28,6.93a.59.59,0,0,0,.7.47,1.07,1.07,0,0,0,.37,1l0,0a1.15,1.15,0,0,0,.27.14l.1,0a1.87,1.87,0,0,0,.37.07c5.34.4,10.73.2,16.08.19,5.65,0,11.57.38,17.05-1.16a3.78,3.78,0,0,0,1.67-1.54c1-1.19,1.16-3.42,1.2-4.83C279.44,108.27,279.36,106.45,279.36,104.64Z" fill="#c4c4c4"/><path d="M279.36,63.12a7,7,0,0,0-.18-2.23c-.23-.62-1-1.26-1.16-1.83s-.55-.35-1-.05a1.81,1.81,0,0,0-.47-.11,63.82,63.82,0,0,0-14.22-.36c-2.05.24-4.33.62-6.62.85-.15-.34-.52-.56-1.23-.55-2.44,0-4.82-.2-7.25,0a2.9,2.9,0,0,0-.95.37c-.07-.15-.12-.29-.19-.44-.48-.94-1.4-.46-2.08.22-.67-.84-2.26.71-2.5,1.27a6.45,6.45,0,0,0-.39,2.51,8.86,8.86,0,0,0,.12,2.47.76.76,0,0,0,.07.13c0,.61-.08,1.22-.09,1.83-.05,2.26-.45,4.76.28,6.93a.59.59,0,0,0,.7.47,1.06,1.06,0,0,0,.37,1l0,0a1.17,1.17,0,0,0,.27.15l.1,0a1.87,1.87,0,0,0,.37.07c5.34.39,10.73.2,16.08.19,5.65,0,11.57.38,17.05-1.17a3.72,3.72,0,0,0,1.67-1.54c1-1.19,1.16-3.41,1.2-4.83C279.44,66.74,279.36,64.92,279.36,63.12Z" fill="#c4c4c4"/><path d="M113.21,227.36c-3.29-1.1-7.31-.45-10.67-.24-7.11.44-14.27,0-21.38,0-4.75,0-11-1.79-15.72,0-5.17-1.33-12.15-.4-15.71,2.86-5.67,5.19-5.28,13.22-3.17,20,2.67,8.6,19.49,6.35,25.88,5.88,12.09-.9,24.14-1.44,36.26-1.18,6.24.13,10.84-3.59,11.46-10C120.75,238.55,120.1,229.65,113.21,227.36Z" fill="#5ba354"/><path d="M283.24,206.19a10.13,10.13,0,0,0-7,6.24c-1.63-4.2-4.1-7.94-7.79-9.35-7.25-2.78-10.76,9.13-11.38,13.71-1.1,8.09.47,17.7,6.69,23.4,5.36,4.9,11,1.24,14.26-3.65,1.07,4,2.22,8.42,7.2,6,5.74-2.86,6.06-12,6.34-17.4C291.74,221.2,290.48,204.37,283.24,206.19Z" fill="#5ba354"/><path d="M364.78,205.51c-2.18-7.94-4.67-14.56-3.37-22.94.74-4.76,1.36-9.65-.11-14.33-1.12-3.56-4.53-4.66-7.45-2.56-3.29,2.35-3.3,7-2.19,10.44a.78.78,0,0,0,.29.41c-.87,9.17-.11,18.75-.11,27.86v17.15c0,3.89-.9,8.17,1.06,11.58a4.18,4.18,0,0,0-1.54,1.78c-2.27,8.66,9.71,7.55,13.87,3.62C373.41,230.78,367.19,214.27,364.78,205.51Z" fill="#5ba354"/><path d="M89.53,254.35c-.13,2.09-.2,4.16-.18,6.25,0,.39.44.41.72.27a1.16,1.16,0,0,0,.69-.95c0-.72,0-1.43,0-2.15,0-.38-.43-.39-.69-.27a1.18,1.18,0,0,0-.68.93c0,1.2,0,2.39-.08,3.58,0,.44.49.44.78.3a1.28,1.28,0,0,0,.75-1c0-.26,0-.52,0-.78a.39.39,0,0,0-.25-.37h0a1,1,0,0,0-1,.5c-.15.2-.38.78,0,.89h0c.38.1.72-.2.94-.47l0,0c.19-.23.34-.75,0-.89s-.8.24-1,.5a2,2,0,0,0-.25,1.39c0,.43.47.45.78.3a1.26,1.26,0,0,0,.75-1c0-1.17-.07-2.34-.08-3.51,0-.38-.42-.39-.69-.27a1.18,1.18,0,0,0-.68.93c0,.72,0,1.44,0,2.17,0,.4.44.4.72.27a1.18,1.18,0,0,0,.69-.95c0-2,0-4.05-.17-6.08,0-.29-.32-.31-.54-.21a.91.91,0,0,0-.52.72Z"/><path d="M88.93,255.78c0-.87-.74-1.1-1.48-1-1.5.28-3.06.32-4.2-.84S80,255.17,80,256.33c0,.68,0,1.37,0,2.05s-.25,1.62.24,2.2a.72.72,0,0,0,.5.24,1.1,1.1,0,0,0,.94.53c1.23.07,2.44.33,3.68.36a3.71,3.71,0,0,0,3-2.2,2.75,2.75,0,0,0,.23-.85c0-.09.07-.18.1-.28A8.8,8.8,0,0,0,88.93,255.78Z" fill="#9b805a"/><path d="M252.69,222.84c0-12,.64-24.31-.48-36.3.59-.84.95-1.84.22-2.57s-1.82-.33-2.68.31a1.78,1.78,0,0,0-1.33.47c-4.44-1.12-9.7-.37-14.13-.37H128.14c-14.45,0-29.47-1.15-43.84.3a1.42,1.42,0,0,0-.2,0,.8.8,0,0,0-.47-.71l-.12-.05h0c-1.32-.53-4.29,1.6-4.1,3.36,0,.52,0,1,0,1.55a1.87,1.87,0,0,0,0,.32q0,10.31,0,20.6c0,5.83-.47,11.85.83,17.58.25,1.1,1.46.47,2.32-.34a13.71,13.71,0,0,0,3.19,1.34c1.49.53,3.18-1.41,3.23-2.75a7.51,7.51,0,0,0-.21-2.63.77.77,0,0,0-.31-.42c1.14-4.94.39-10.57.39-15.53,0-4,.73-9.31.33-14,26.63.27,53.26.2,79.89.21l44.05,0c9.74,0,20.3,1,30.06-.37-.89,10.2-.34,20.64-.32,30.84,0,11.81-1,24.19.53,35.91.06.51.26.76.52.85-.15.68,0,1.4.88,1.42l3.34.12a2.4,2.4,0,0,0,1.48-.53,3.84,3.84,0,0,0,2.62-2.15C254.05,247.66,252.7,234.72,252.69,222.84Z" fill="#9b805a"/><path d="M373.39,263.78c-26.39-2.49-53.44-.94-79.93-.95l-83.25,0-83.2,0c-27.75,0-55.64-.81-83.38.17-2,.07-5.16,4.51-2.22,4.61,5,.19,10,.29,15,.37-.33.9-.15,1.67,1,1.69,5,.09,10.1.15,15.15.21-.87,1.15-1.15,2.42.49,2.59a180.89,180.89,0,0,0,21,.54,7.86,7.86,0,0,0-.69,1.14A1.35,1.35,0,0,0,95.28,276a8.34,8.34,0,0,0,1-.6c19.69,2.5,40.34.93,60.17,1q30.69.06,61.39.09l61.39.07c20.39,0,41,.94,61.33.07,1.63.23,3.6-2,3.93-3.68q3.83-.07,7.65-.19c1.4,0,3.33-2.07,3.69-3.56l2.07-.19a3.64,3.64,0,0,0,2-1.46q6-.3,12.05-.8C373.15,266.6,375.34,264,373.39,263.78Z" fill="#c4c4c4"/><path d="M241.8,228.53c0-10.72.66-21.86-.68-32.53.18-.38.19-.74-.12-1,0-.14,0-.28-.05-.42-.16-1.15-1.21-.89-2-.25-6.29-1.59-13.5-.66-19.86-.66H192.3c-17,0-34.16-.63-51.15.08-2.1.09-5.59,4.84-2.39,5l1.73.06c-1.09,1-2.14,2.6-.67,3.05,6.69,2.09,15.11.76,22.09.76h49c7.41,0,15.45.87,22.79-.76-1.14,9.14-.25,18.87-.24,27.94,0,10.23-1,21.06.84,31.15.3,1.67,2.87-.36,3.37-1.43,0,.25.08.49.13.73.34,1.7,3.07-.68,3.22-1.55C242.73,248.86,241.82,238.47,241.8,228.53Z" fill="#c4c4c4" style="mix-blend-mode:multiply"/><path d="M49.68,261.4q68.23,0,136.47,0H396c.11,0,.26-.23.12-.23l-55.67,0c-.09,0-.22.2-.1.2h7.46c.09,0,.22-.2.1-.2H275.13l-72.46,0H161.6c-.11,0-.26.24-.11.24H268.32c.12,0,.3-.27.13-.27H135.27c-.13,0-.31.29-.13.29h66.58c.14,0,.34-.31.15-.31H98c-.14,0-.35.33-.15.33h12.42c.15,0,.35-.32.16-.32H98c-.14,0-.35.33-.15.33H201.72c.14,0,.34-.31.15-.31h-66.6c-.13,0-.31.29-.13.29H268.32c.12,0,.3-.27.13-.27H161.6c-.11,0-.26.24-.11.24H234.3q36.24,0,72.48,0h41.07c.09,0,.22-.2.1-.2h-7.46c-.09,0-.22.2-.1.2H396c.11,0,.26-.23.12-.23H126.26q-38.24,0-76.48,0c-.09,0-.22.2-.1.2Z"/><path d="M80,183.32q0,15.15,0,30.29v46.75c0,.16.25,0,.25-.12q0-15.15,0-30.3,0-4.23,0-8.45c0-.14-.23,0-.23.1q0,15.16,0,30.32,0,4.22,0,8.45c0,.16.25,0,.25-.12V230.32q0-15,0-30,0-8.53,0-17.06c0-.12-.19,0-.19.09Z"/><path d="M81.48,183.88c6.43,0,12.87,0,19.3,0h79.58c.13,0,.3-.27.13-.27H125.82c-5.14,0-10.28,0-15.42.06-.08,0-.19.17-.08.17,9.1.1,18.2,0,27.31,0h42.73c.13,0,.3-.27.13-.27H103.4c-6.48,0-13,0-19.44,0l-2.37,0c-.1,0-.24.21-.11.21Z"/><path d="M183.35,182.89c4.69,0,9.37,0,14.05,0h3.34c.12,0,.29-.26.13-.26H182.48c-.12,0-.29.27-.13.27h55.54l13.38,0h1.66c.1,0,.23-.21.1-.21l-3.49,0c-.07,0-.17.16-.08.16l3.47,0c.1,0,.23-.21.1-.21-4.43,0-8.87,0-13.3,0H182.48c-.12,0-.29.27-.13.27h18.39c.12,0,.29-.26.13-.26-4.52,0-9,0-13.55,0l-3.86,0c-.1,0-.25.22-.11.22Z"/><path d="M252.4,184.81c-.1,9.86,0,19.71,0,29.57v46c0,.16.25,0,.25-.12V251.3c0-3,.08-6-.05-8.92,0-.1-.15,0-.15.07-.13,3,0,6,0,9v8.94c0,.16.25,0,.25-.12V201.39c0-5.55,0-11.11,0-16.66,0-.11-.17,0-.17.08Z"/><path d="M214.29,182.25q0-17.9.06-35.78V90.78c0-.16-.26,0-.26.13V153c0,5.8-.06,11.61.06,17.42,0,.1.16,0,.16-.08.1-5.16.06-10.33.06-15.49V90.78c0-.16-.26,0-.26.13v35.75q0,17.84,0,35.67,0,10,.05,20c0,.08.14,0,.14-.07Z"/><path d="M214.29,84.85c.05-2.54,0-5.08,0-7.62V45.57c0-.13-.22,0-.22.1V77.09c0,2.94,0,5.89,0,8.83,0,.11.18,0,.18-.09.1-5.23,0-10.48,0-15.71s0-10.47,0-15.7V45.57c0-.13-.22,0-.22.1q0,7.65,0,15.29V76.35c0,2.85,0,5.71,0,8.57,0,.08.14,0,.14-.07Z"/><path d="M209.8,45c-1.16,0-2.31-.05-3.46-.05-.13,0-.32.29-.14.29,19.64,0,39.28,0,58.92,0s39.07,0,58.6,0c11,0,22,0,33,0,.13,0,.31-.28.14-.28-1.66,0-3.33,0-5,0-.09,0-.23.21-.1.21l4.95,0c.13,0,.31-.28.14-.28-19.64-.05-39.28,0-58.92,0s-39.07,0-58.6,0q-16.53,0-33,0c-.13,0-.32.29-.14.29,1.17,0,2.33,0,3.5,0,.09,0,.22-.2.1-.2Z"/><path d="M350.81,46.15q0,41.73-.07,83.44,0,41.49,0,83v46.81c0,.15.24,0,.24-.12V183.43q0-37.69,0-75.4,0-21.3,0-42.6c0-.17-.29,0-.29.14,0,9.61,0,19.21,0,28.81,0,.15.24,0,.24-.11,0-9.62,0-19.23,0-28.84,0-.17-.29,0-.29.14q0,37.91,0,75.81v118c0,.15.24,0,.24-.12q0-41.7,0-83.4v-83c0-15.59-.05-31.18-.06-46.77,0-.08-.14,0-.14.06Z"/><path d="M334.87,59.11q0,36.51,0,73,0,36.32,0,72.63v41c0,.17.28,0,.28-.13q0-26.37,0-52.75V140.57c0-9.91,0-19.82,0-29.73,0-.13-.21,0-.21.1-.12,17.59,0,35.18,0,52.76q0,26.13,0,52.26v29.75c0,.17.28,0,.28-.13v-73q0-36.3,0-72.62l0-40.95c0-.12-.21,0-.21.1Z"/><path d="M333,59l-13.89,0h-4c-.13,0-.32.29-.14.29,4.14,0,8.28,0,12.42,0,.13,0,.32-.3.14-.29-.83,0-1.67,0-2.51,0-.08,0-.21.19-.09.2.82,0,1.64,0,2.46.05.13,0,.32-.29.14-.29-4.14,0-8.28,0-12.42,0-.13,0-.32.29-.14.29,4.65,0,9.29,0,13.94-.05h4c.08,0,.19-.18.08-.18Z"/><path d="M313,58.59c-.17,24.14,0,48.27,0,72.41V243.64c0,.17.28,0,.28-.14,0-13.11.2-26.25-.05-39.36,0-.11-.17,0-.18.08-.25,13.13,0,26.28,0,39.42,0,.17.28,0,.28-.14V99.1c0-13.53.05-27.06-.05-40.6,0-.11-.18,0-.18.09Z"/><path d="M313.07,245c4.6.1,9.2.06,13.81.06h3.55c.14,0,.32-.29.14-.29h-8.94c-.13,0-.32.29-.14.29,2.49,0,5,0,7.47,0,.1,0,.24-.21.11-.21-2.48,0-5,0-7.44,0-.13,0-.32.29-.14.29h8.94c.14,0,.32-.29.14-.29-4.52,0-9.05,0-13.58,0-1.28,0-2.56,0-3.84.05-.07,0-.19.17-.08.17Z"/><path d="M235.49,59.09q0,9.3,0,18.62V83c0,.15.25,0,.25-.13q0-9.19,0-18.41c0-1.64,0-3.29,0-4.93,0-.13-.21,0-.21.1l0,2.47c0,.09.15,0,.15-.07l0-2.5c0-.13-.21,0-.21.1-.06,6.1,0,12.2,0,18.29V83c0,.15.25,0,.25-.13q0-9.3,0-18.6c0-1.74,0-3.49,0-5.23,0-.11-.18,0-.19.09Z"/><path d="M235.79,59.38a18.94,18.94,0,0,0,2.13.06h15.13c5.73,0,11.47,0,17.21,0,3.25,0,6.51,0,9.76-.06.08,0,.2-.18.09-.18h-.75c-.07,0-.18.16-.08.16H280c.08,0,.2-.18.09-.18-5.75-.1-11.51-.06-17.26-.06H238.37c-.83,0-1.67,0-2.49.06-.07,0-.2.17-.09.18Z"/><path d="M280,59.34c-.07,3.18,0,6.36,0,9.55v9.42c0,1.79,0,3.58,0,5.37,0,.12.18,0,.18-.08.11-3.18.05-6.37.05-9.55s0-6.28,0-9.42c0-1.79,0-3.59,0-5.38,0-.12-.18,0-.18.09Z"/><path d="M236.27,84c5.66,0,11.32,0,17,0s11.38,0,17.07,0c3.23,0,6.47,0,9.7,0,.08,0,.19-.18.08-.18-5.71-.1-11.42,0-17.13,0H236.4c-.12,0-.3.27-.13.27Z"/><path d="M235.49,99.59q0,9.31,0,18.62v5.25c0,.15.25,0,.25-.13q0-9.19,0-18.4c0-1.65,0-3.29,0-4.94,0-.13-.21,0-.21.1l0,2.47c0,.09.15,0,.15-.07l0-2.5c0-.13-.21,0-.21.1-.06,6.1,0,12.2,0,18.29v5.08c0,.15.25,0,.25-.13q0-9.3,0-18.6c0-1.74,0-3.49,0-5.23,0-.11-.18,0-.19.09Z"/><path d="M235.79,99.88c.71.07,1.42.06,2.13.06h15.13c5.73,0,11.47,0,17.21,0,3.25,0,6.51,0,9.76-.06.08,0,.2-.18.09-.18h-.75c-.07,0-.18.16-.08.16H280c.08,0,.2-.18.09-.18-5.75-.1-11.51-.06-17.26-.06H238.37c-.83,0-1.67,0-2.49.06-.07,0-.2.17-.09.18Z"/><path d="M280,99.84c-.07,3.18,0,6.36,0,9.55v9.42c0,1.79,0,3.58,0,5.37,0,.12.18,0,.18-.08.11-3.18.05-6.37.05-9.55s0-6.28,0-9.42c0-1.79,0-3.59,0-5.38,0-.12-.18,0-.18.09Z"/><path d="M236.27,124.53c5.66,0,11.32,0,17,0s11.38,0,17.07,0c3.23,0,6.47,0,9.7,0,.08,0,.19-.17.08-.17-5.71-.11-11.42-.06-17.13-.06H236.4c-.12,0-.3.27-.13.27Z"/><path d="M235.49,140.09q0,9.32,0,18.62V164c0,.16.25,0,.25-.12q0-9.21,0-18.41c0-1.65,0-3.29,0-4.94,0-.13-.21,0-.21.1l0,2.47c0,.09.15,0,.15-.07l0-2.5c0-.13-.21,0-.21.1-.06,6.1,0,12.2,0,18.3V164c0,.16.25,0,.25-.12q0-9.3,0-18.61c0-1.74,0-3.48,0-5.23,0-.11-.18,0-.19.09Z"/><path d="M235.79,140.38a18.94,18.94,0,0,0,2.13.06h32.34c3.25,0,6.51,0,9.76-.05.08,0,.2-.19.09-.19l-.75,0c-.07,0-.18.15-.08.15l.74,0c.08,0,.2-.18.09-.19-5.75-.1-11.51,0-17.26,0H238.37c-.83,0-1.67,0-2.49.06-.07,0-.2.16-.09.17Z"/><path d="M280,140.34c-.07,3.18,0,6.37,0,9.55v9.42c0,1.79,0,3.58,0,5.38,0,.11.18,0,.18-.09.11-3.18.05-6.37.05-9.55s0-6.28,0-9.42c0-1.79,0-3.59,0-5.38,0-.11-.18,0-.18.09Z"/><path d="M236.27,165h34c3.23,0,6.47,0,9.7-.06.08,0,.19-.17.08-.17-5.71-.11-11.42-.06-17.13-.06H236.4c-.12,0-.3.27-.13.27Z"/><path d="M313.34,225.62c4.41-4.29,8.72-8.7,13.06-13.06l3.7-3.72c.06-.06,0-.12-.06-.06-4.39,4.32-8.74,8.68-13.09,13-1.24,1.24-2.48,2.47-3.7,3.73-.08.09,0,.17.09.08Z"/><path d="M330.84,208.27c.67-.63,1.32-1.28,2-1.93s1.34-1.27,1.95-2c.07-.08,0-.14-.08-.07-.69.6-1.32,1.29-2,1.95s-1.3,1.3-1.93,2c0,0,0,.09,0,0Z"/><path d="M335.2,197.76c.05-1.21,0-2.43,0-3.64V183.24c0-1.36,0-2.73-.05-4.1,0-.09-.14,0-.14.07-.13,4.84,0,9.69,0,14.54,0,1.37,0,2.74,0,4.11,0,.13.2,0,.2-.1Z"/><path d="M312.84,231.34c3.25,3.34,6.55,6.62,9.84,9.91,1.25,1.25,2.5,2.52,3.81,3.72.06.06.2-.08.14-.15-1.84-2-3.81-3.89-5.73-5.81l-4.1-4.09c-1.26-1.25-2.52-2.5-3.8-3.74-.06-.06-.22.1-.16.16Z"/><path d="M313.34,173.2c4.41-4.3,8.72-8.7,13.06-13.07,1.24-1.24,2.47-2.47,3.7-3.72.06-.06,0-.12-.06-.06q-6.59,6.48-13.09,13c-1.24,1.23-2.48,2.47-3.7,3.72-.08.09,0,.17.09.09Z"/><path d="M312.84,123.48c5.67,5.77,11.41,11.47,17.13,17.19,1.61,1.61,3.22,3.22,4.87,4.79.06.06.2-.09.15-.15-2.78-2.93-5.67-5.75-8.52-8.6s-5.73-5.73-8.61-8.59q-2.42-2.41-4.86-4.8c-.06-.07-.22.09-.16.16Z"/><path d="M312.84,179.26c5.67,5.77,11.41,11.47,17.13,17.19,1.61,1.61,3.22,3.22,4.87,4.79.06.06.2-.08.15-.15-2.78-2.93-5.67-5.74-8.52-8.6s-5.73-5.73-8.61-8.59c-1.61-1.6-3.23-3.21-4.86-4.8-.06-.06-.22.09-.16.16Z"/><path d="M313.34,120.77c4.41-4.29,8.72-8.7,13.06-13.06q1.86-1.86,3.7-3.73c.06-.06,0-.12-.06-.06-4.39,4.32-8.74,8.69-13.09,13-1.24,1.24-2.48,2.47-3.7,3.72-.08.09,0,.18.09.09Z"/><path d="M312.84,71.05c5.67,5.77,11.41,11.47,17.13,17.19,1.61,1.61,3.22,3.23,4.87,4.79.06.06.2-.08.15-.14-2.78-2.93-5.67-5.75-8.52-8.6s-5.73-5.74-8.61-8.6L313,70.89c-.06-.06-.22.09-.16.16Z"/><path d="M257,106.63c-3.66,3.66-7.39,7.27-11,11-.07.07,0,.14.07.07,3.74-3.59,7.35-7.31,11-11,.11-.11,0-.22-.11-.11Z"/><path d="M262.74,107.38c-1.8,1.8-3.63,3.57-5.38,5.42-.07.07,0,.14.07.07,1.84-1.75,3.62-3.59,5.42-5.39.1-.1,0-.21-.11-.1Z"/><path d="M271.32,66c-3.77,3.77-7.56,7.53-11.31,11.32l-3.2,3.24s0,.08,0,0q5.68-5.64,11.35-11.3l3.21-3.21c.09-.09,0-.18-.09-.09Z"/><path d="M256.6,71.42c-2,2-4,4-6,6-.07.07,0,.14.07.07,2-2,4-4,6-5.95.1-.09,0-.19-.09-.09Z"/><path d="M262,145.77l-5.59,5.59c-1.87,1.86-3.75,3.7-5.57,5.61-.06.06,0,.12.06.06,1.9-1.82,3.75-3.7,5.61-5.57l5.59-5.59c.1-.1,0-.2-.1-.1Z"/><path d="M270.76,144.84c-2.24,2.23-4.49,4.45-6.69,6.73-.06.06,0,.12.06.06,2.27-2.2,4.49-4.45,6.73-6.69.11-.11,0-.21-.1-.1Z"/><path d="M278,234.17a12.76,12.76,0,0,1-4.1,5.35c-1.74,1.4-4,2.65-6.32,2.34s-4-2.4-5.07-4.29a19.94,19.94,0,0,1-2.35-6.87,38.86,38.86,0,0,1,.75-15.11c.25-1.06.56-2.11.88-3.15a31,31,0,0,1,1.23-3.55,6.88,6.88,0,0,1,2.27-3,4.25,4.25,0,0,1,4.24,0,13,13,0,0,1,3.43,2.59,12.55,12.55,0,0,1,2.37,3.45,31.61,31.61,0,0,1,2.32,8.16l.33,2c0,.12.2,0,.19-.09a32.73,32.73,0,0,1,.59-8.89,9.34,9.34,0,0,1,1.8-4.14,3.15,3.15,0,0,1,3.93-.78,6.72,6.72,0,0,1,2.17,2.17,14.34,14.34,0,0,1,1.36,2.57,23.82,23.82,0,0,1,1.5,8.7c0,1.5,0,3,.09,4.49s.12,3.09.06,4.64a15,15,0,0,1-.72,4.31c-.25.69-.54,1.37-.85,2l-.42.91a5.92,5.92,0,0,1-.45.91,7.88,7.88,0,0,1-2,2,4.21,4.21,0,0,1-1.38.67,1.58,1.58,0,0,1-1.26-.11,2.55,2.55,0,0,1-.6-.78c-.23-.39-.42-.79-.61-1.2-.39-.86-.73-1.75-1.09-2.62-.13-.31-.25-.62-.4-.91-.05-.1-.24.05-.19.13a48.09,48.09,0,0,0,2.23,5,1.71,1.71,0,0,0,.59.66,1.89,1.89,0,0,0,1.22.09,5.84,5.84,0,0,0,2.57-1.58,9.16,9.16,0,0,0,.94-1,7.07,7.07,0,0,0,.79-1.49,19.73,19.73,0,0,0,1.54-4.06,21.44,21.44,0,0,0,.36-4.67c0-1.61-.11-3.21-.15-4.81a39.56,39.56,0,0,0-.81-9.22,13.47,13.47,0,0,0-3.17-6.06,3.89,3.89,0,0,0-2.54-1.29,3.45,3.45,0,0,0-1.85.49,6.28,6.28,0,0,0-2.37,3.47,21.38,21.38,0,0,0-.95,5.14,39.37,39.37,0,0,0-.11,4.61l0,.78.19-.09a46.13,46.13,0,0,0-2-8.53,15.89,15.89,0,0,0-2-3.82,13.7,13.7,0,0,0-3.08-3,6.58,6.58,0,0,0-4-1.49,4.25,4.25,0,0,0-3.11,1.79,11.77,11.77,0,0,0-1.73,3.45c-.39,1.12-.74,2.27-1.06,3.41a40.58,40.58,0,0,0-1.45,15.46,22.46,22.46,0,0,0,2,7.33,14.13,14.13,0,0,0,1.94,3,6.84,6.84,0,0,0,2.7,2.16c2.13.82,4.48,0,6.3-1.18a14.57,14.57,0,0,0,4.91-5.17,8.77,8.77,0,0,0,.58-1.29c0-.11-.14,0-.16,0Z"/><path d="M268.67,241.65c-.07,2.3,0,4.61,0,6.9v6.86c0,1.31-.07,2.64,0,3.94,0,.09.15,0,.15-.08.09-1.15.05-2.32.05-3.48s0-2.29,0-3.43c0-2.29,0-4.57,0-6.86,0-1.31,0-2.63,0-3.94,0-.11-.18,0-.18.09Z"/><path d="M283.22,241.64c-.06,4.61.41,9.2.61,13.8,0,.63.05,1.26.07,1.89s0,1.36.05,2c0,.11.17,0,.17-.08a26.46,26.46,0,0,0,0-3.45c0-1.16-.11-2.32-.18-3.47-.14-2.29-.3-4.58-.41-6.87-.06-1.3-.1-2.61-.12-3.91,0-.1-.15,0-.15.07Z"/><path d="M351.57,175.45a19.14,19.14,0,0,1,1.66-3,18.32,18.32,0,0,1,2.75-3.33,4.71,4.71,0,0,1,3.27-1.56,3.27,3.27,0,0,1,2.65,2.69,7.77,7.77,0,0,1-.08,3.22,6.86,6.86,0,0,1-1.06,2.66s-.05.11,0,.11H363a5.79,5.79,0,0,1,1.32.1c.7.17.6.77.46,1.34-.28,1.21-.65,2.39-1,3.58a2.1,2.1,0,0,0,0,1.42,2.3,2.3,0,0,0,1.63,1.06,2.22,2.22,0,0,0,2.48-1.21c.52-.87.85-2.15,1.87-2.57s2,.47,2.6,1.28a12.38,12.38,0,0,1,1.73,3.85,7.61,7.61,0,0,1,.29,3.84,12.14,12.14,0,0,1-1.88,3.51,3.29,3.29,0,0,0-.71,2.68,3.36,3.36,0,0,0,1.1,1.48c.61.52,1.21,1,1.85,1.5a25.26,25.26,0,0,1,3,2.31,5.6,5.6,0,0,1,1.57,3.29,9.64,9.64,0,0,1-.86,5.42c-.77,1.67-1.82,3.19-2.53,4.89a8.31,8.31,0,0,0-.68,2.38c-.07.71-.09,1.42-.12,2.13a11.66,11.66,0,0,1-.72,4.35,3.91,3.91,0,0,1-1.42,1.72,5.47,5.47,0,0,1-2.61.95,4.07,4.07,0,0,1-3.9-2.34,4.47,4.47,0,0,1-.37-2.34L366,221c0,2.37.05,4.74-.11,7.11a30.45,30.45,0,0,1-.63,4.57,9.22,9.22,0,0,1-1.48,3.57,2.9,2.9,0,0,1-3.24,1,.13.13,0,0,0-.13.08,16,16,0,0,1-1.06,2.21,5.12,5.12,0,0,1-1.73,2,1.71,1.71,0,0,1-1,.25,1.35,1.35,0,0,1-.83-.58c-.38-.46-.58-1-.92-1.52a2.06,2.06,0,0,0-1.79-.91c-.08,0-.18.16-.08.17A2.06,2.06,0,0,1,354.8,240a7.06,7.06,0,0,0,1,1.6c1.22,1.12,2.73-.62,3.35-1.58a15.41,15.41,0,0,0,1.34-2.66l-.13.08a3,3,0,0,0,2.94-.58,6.71,6.71,0,0,0,1.76-3.15,32.31,32.31,0,0,0,1.05-9.24c0-1.18,0-2.36,0-3.54,0-.1-.14,0-.15.07a4.2,4.2,0,0,0,6.26,4.2,5.15,5.15,0,0,0,1.65-1.2,5,5,0,0,0,.92-1.78,17.54,17.54,0,0,0,.51-4.4,10.08,10.08,0,0,1,.28-2.39,13.85,13.85,0,0,1,1.12-2.7,32.39,32.39,0,0,0,2.47-5,9.14,9.14,0,0,0,.13-5,5.76,5.76,0,0,0-1.94-2.9c-1.06-.88-2.24-1.6-3.31-2.46s-2.44-1.8-2.16-3.27a10.39,10.39,0,0,1,1.75-3.15,6.15,6.15,0,0,0,1-3.67,13.59,13.59,0,0,0-1-3.87,7.46,7.46,0,0,0-2.08-3.22,1.82,1.82,0,0,0-2.46.07c-.78.74-1,1.87-1.67,2.71a1.82,1.82,0,0,1-1.61.7,2.33,2.33,0,0,1-2-1.12,2.82,2.82,0,0,1,.2-1.76c.2-.69.37-1.39.56-2.09a13.1,13.1,0,0,0,.35-1.37,1.2,1.2,0,0,0,0-.75c-.3-.57-1.39-.46-1.89-.46-.74,0-1.49,0-2.23,0l0,.11a6.7,6.7,0,0,0,1-2.27,9.35,9.35,0,0,0,.31-2.93,3.22,3.22,0,0,0-5.56-2.57,15.42,15.42,0,0,0-3.06,3.34,21,21,0,0,0-2.14,3.66c0,.11.1.08.14,0Z"/><path d="M357.8,241.12c.07,0,.16-.15.07-.15s-.16.15-.07.15Z"/><path d="M356.26,240.71a113.94,113.94,0,0,1,.49,14.19c-.09,1.36-.29,2.7-.46,4,0,.09.1,0,.11,0a21.32,21.32,0,0,0,.49-3.47c.1-1.2.14-2.4.14-3.61,0-2.4-.15-4.79-.32-7.18-.09-1.34-.19-2.68-.28-4,0-.1-.17,0-.17.08Z"/><path d="M352.32,176.51a10,10,0,0,1-.42-5.46,20.56,20.56,0,0,1,1.71-5.64c1.25-2.68,3.84-6.58,7.3-4.87a8.68,8.68,0,0,1,3.27,3.29,19.34,19.34,0,0,1,1.3,2.52c.45,1.07,1,2.07,1.48,3.15a15.22,15.22,0,0,1,1.24,6.24,12.33,12.33,0,0,1-.51,3.13,21.54,21.54,0,0,1-1.42,3.41c-1.84,3.8-4.11,7.6-4.88,11.81a13.51,13.51,0,0,0,.21,6.13,27.44,27.44,0,0,0,2.33,5.47c.95,1.77,2,3.49,2.88,5.28a28.07,28.07,0,0,1,2.15,5.66,40.73,40.73,0,0,1,.74,13.26c-.07.89-.05,1.79-.11,2.68s-.18,1.9-.33,2.84a20.07,20.07,0,0,1-1.58,5.47,7.59,7.59,0,0,1-4.07,4,4.17,4.17,0,0,1-4.37-1.14,9.26,9.26,0,0,1-1.69-2.41c0-.09-.22.06-.18.14a6.68,6.68,0,0,0,3.71,3.67A4.77,4.77,0,0,0,365.4,244c3-2.42,3.83-6.57,4.24-10.19.11-1,.17-1.9.2-2.85s.12-2.08.17-3.13a49.51,49.51,0,0,0-.13-7.1,28.27,28.27,0,0,0-1.35-6.36,36.84,36.84,0,0,0-2.73-5.79c-2.05-3.69-4.47-7.53-4.49-11.89,0-4.62,2.35-8.81,4.34-12.84a24.44,24.44,0,0,0,2.55-6.46,13.44,13.44,0,0,0-.39-6.14,23.45,23.45,0,0,0-1.3-3.35c-.27-.56-.59-1.09-.82-1.66s-.41-.92-.64-1.37a11.51,11.51,0,0,0-3.05-4,4.21,4.21,0,0,0-3.55-.93,6.66,6.66,0,0,0-3.65,3,19.39,19.39,0,0,0-2.45,5.33,15.94,15.94,0,0,0-.76,5.89,7.4,7.4,0,0,0,.58,2.41c0,.09.18,0,.15-.11Z"/><path d="M89.9,192.76c-.06,8.85,0,17.7,0,26.55v37.5c0,1.26,0,2.53,0,3.79,0,.11.19,0,.19-.09s0-.33,0-.49-.13,0-.13.07,0,.34,0,.51.18,0,.19-.09c0-1.13,0-2.27,0-3.4v-3.25q0-3.31,0-6.63V207.56c0-5,0-9.92,0-14.88,0-.1-.17,0-.17.08Z"/><path d="M90.67,192.59c19.74.09,39.47,0,59.2,0h58.9c11.08,0,22.16.09,33.23,0,.09,0,.2-.18.09-.18-9.86-.11-19.72,0-29.58,0H124c-11.07,0-22.15,0-33.23,0-.1,0-.25.22-.11.23Z"/><path d="M243.2,192.76q0,12,0,24.09v6.73c0,.13.2,0,.2-.1q0-6.34,0-12.68c0-.14-.23,0-.23.11q0,8.58,0,17.16c0,.16.26,0,.27-.13v-9.7c0-.16-.28,0-.28.14v17.71c0,5.82,0,11.63,0,17.45,0,3.27,0,6.53,0,9.79,0,.13.2,0,.2-.09V261.5c0-.13-.2,0-.2.1,0,2,0,4,0,6,0,.15.24,0,.24-.11V266c0-.14-.23,0-.23.11,0,.5,0,1,0,1.49,0,.15.24,0,.24-.11,0-2,0-4,0-5.95,0-.13-.2,0-.2.1v1.73c0,.13.2,0,.2-.09,0-5.82,0-11.64,0-17.46s0-11.7,0-17.55v-10c0-.16-.28,0-.28.14q0,4.85,0,9.69c0,.16.27,0,.27-.13q0-8.56,0-17.14c0-.14-.23,0-.23.11q0,6.33,0,12.67c0,.13.2,0,.2-.1q0-12,0-24.09,0-3.34,0-6.71c0-.11-.18,0-.18.08Z"/><path d="M139.09,192.76q0,14.16,0,28.3t0,28.14q0,7.95,0,15.88c0,.15.24,0,.24-.11,0-2.65,0-5.31,0-8,0-.15-.26,0-.26.12v3.23c0,.16.26,0,.26-.12q0-12.63,0-25.26t0-25.24q0-7.05,0-14.1c0-.16-.26,0-.26.12,0,2.07,0,4.14,0,6.21,0,.16.25,0,.25-.12v-6.21c0-.16-.26,0-.26.12q0,12.54,0,25.08t0,25.3v14.22c0,.16.26,0,.26-.12V257c0-.15-.26,0-.26.12q0,4,0,7.95c0,.15.24,0,.24-.11,0-9.43,0-18.86,0-28.28s0-18.77,0-28.15q0-7.93,0-15.87c0-.11-.19,0-.19.09Z"/><path d="M165.68,192.76q0,13.28,0,26.55t0,26.47c0,5,0,10.06,0,15.08,0,.16.26,0,.26-.12,0-1,0-2,0-3,0-.13-.21,0-.21.1l0,.74c0,.11.17,0,.17-.09l0-.75c0-.13-.21,0-.21.1,0,1,0,2,0,3,0,.16.26,0,.26-.12q0-13.35,0-26.7t0-26.44q0-7.46,0-14.92c0-.11-.18,0-.18.08Z"/><path d="M190.53,194.25c-.05,8.56,0,17.12,0,25.68s0,17,0,25.52c0,4.81,0,9.62,0,14.42,0,.18.29,0,.29-.13,0-.83,0-1.66,0-2.49,0-.16-.27,0-.27.14,0,.82,0,1.64.05,2.46,0,.11.17,0,.17-.09,0-.83.05-1.67.05-2.51,0-.16-.27,0-.27.14,0,.83,0,1.65,0,2.48,0,.18.29,0,.29-.13,0-8.55,0-17.1,0-25.65V208.56c0-4.8,0-9.6,0-14.39,0-.11-.17,0-.17.08Z"/><path d="M216.85,193.26q0,9.36,0,18.72v29.25c0,.14.24,0,.24-.12v-3c0-.14-.23,0-.23.12,0,6.26,0,12.53,0,18.8,0,1.76,0,3.53,0,5.29,0,.12.19,0,.19-.1,0-1.24,0-2.49,0-3.73,0-.14-.23,0-.23.11v.74c0,.13.2,0,.21-.1v-.75c0-.14-.23,0-.23.11,0,1.24,0,2.48,0,3.72,0,.12.19,0,.19-.1q0-9.41,0-18.81v-5.3c0-.14-.23,0-.23.12,0,1,0,2,0,3,0,.14.24,0,.24-.12q0-9.35,0-18.71t0-18.75c0-3.49,0-7,0-10.48,0-.13-.21,0-.21.09Z"/><path d="M49.16,231.75c-.37,2.78-.79,5.57-1,8.37a37,37,0,0,0,0,8.73c.32,2.15.94,4.54,3.17,5.4,2,.78,4.37.33,6.43,0a34.5,34.5,0,0,1,3.5-.44c1.73-.09,3.46-.1,5.19-.06,3.67.07,7.32.37,11,.65s7.48.51,11.22.51H99.5c3.72,0,7.38-.69,11.08-1a41.15,41.15,0,0,1,4.71-.11c1,0,2.09.1,3.13,0a5,5,0,0,0,2.25-.57,3.21,3.21,0,0,0,1.33-1.68,11,11,0,0,0,.38-3.67c0-1.82.08-3.64.13-5.46s.06-3.7,0-5.55c-.06-1.47-.22-2.92-.41-4.38a10.36,10.36,0,0,0-.93-3.55,3.46,3.46,0,0,0-2.38-1.81,14.71,14.71,0,0,0-3.86-.26c-1.35,0-2.7.15-4,.21-1.71.07-3.42.24-5.12.37q-2.88.22-5.75.4c-3.88.24-7.77.43-11.65.6-1,0-1.94.12-2.91.14a25.38,25.38,0,0,1-2.76-.14c-1.87-.16-3.73-.43-5.6-.55-.47,0-.95-.05-1.42-.06a7.49,7.49,0,0,0-1.25.15c-.91.15-1.82.36-2.71.58a50.43,50.43,0,0,1-5.43,1.16,35.71,35.71,0,0,1-5.85,0,15.05,15.05,0,0,0-2.6,0,11,11,0,0,0-2.19.56,9.91,9.91,0,0,1-4.48.87c-.08,0-.21.18-.09.2a9.4,9.4,0,0,0,4.3-.81A13.38,13.38,0,0,1,57.6,230a13.79,13.79,0,0,1,2.65,0,36.75,36.75,0,0,0,5.65,0A40.27,40.27,0,0,0,71.1,229c.88-.22,1.76-.43,2.64-.61.43-.08.86-.16,1.29-.21a7.82,7.82,0,0,1,1.53,0c1.85.09,3.68.34,5.52.52.9.09,1.8.16,2.7.18s1.93-.06,2.89-.1l5.68-.27c3.76-.19,7.52-.4,11.28-.68l2.84-.22c.88-.07,1.78-.2,2.67-.21,1.24,0,2.48-.13,3.72-.19a21.5,21.5,0,0,1,4,.07,3.88,3.88,0,0,1,2.88,1.51,8.46,8.46,0,0,1,1.11,3.61c.19,1.37.35,2.75.42,4.13.19,3.6,0,7.21-.07,10.81,0,1.91.33,5-1.78,6a6.06,6.06,0,0,1-2.49.43c-1.06,0-2.13,0-3.19-.07a81.54,81.54,0,0,0-10.34.81,101,101,0,0,1-10.87.3c-3.59,0-7.17,0-10.76-.15-7.13-.38-14.23-1.29-21.38-1-2.26.11-4.47.7-6.74.82-2.11.11-4.34-.29-5.41-2.33a11.2,11.2,0,0,1-1-3.56,29.21,29.21,0,0,1-.23-4.18,74,74,0,0,1,.75-8.92c.16-1.25.34-2.5.51-3.76,0-.11-.14,0-.15,0Z"/><path d="M61.81,252.15V256c0,.63,0,1.26,0,1.89s0,1.31,0,1.95c0,.1.15,0,.15-.07.06-.63,0-1.28,0-1.92v-5.79c0-.11-.19,0-.19.09Z"/><path d="M67,253.14v6.22a10.88,10.88,0,0,0,0,2c0,.07.12,0,.13-.06a12.81,12.81,0,0,0,0-2v-6.27c0-.12-.19,0-.19.09Z"/><path d="M74.24,254.14c0,1.32,0,2.64,0,4,0,.1.16,0,.16-.07,0-1.33,0-2.66,0-4,0-.12-.18,0-.18.09Z"/><path d="M96.91,256.65c.06,0,.15-.14.06-.14s-.15.14-.06.14Z"/><path d="M101.32,252.89v5.59a11.41,11.41,0,0,0,0,1.85c0,.06.1,0,.1,0a13.08,13.08,0,0,0,.05-1.77V252.8c0-.11-.19,0-.19.09Z"/><path d="M106.79,252.89v5.89a14,14,0,0,0,0,2.05c0,.07.11,0,.11,0a13.83,13.83,0,0,0,0-1.93V252.8c0-.11-.18,0-.18.09Z"/><path d="M113.5,252.65c-.24,2.64-.26,5.3-.49,7.94,0,.1.16,0,.17-.08.24-2.65.26-5.31.5-7.95,0-.11-.18,0-.18.09Z"/><path d="M214.28,44.6c0-4.73.05-9.46.05-14.19,0-.14-.22,0-.22.11,0,4.14-.08,8.28,0,12.42,0,.13.22,0,.22-.1l0-1c0-.1-.15,0-.16.07l0,1c0,.13.21,0,.22-.1.08-4.14,0-8.29,0-12.43,0-.14-.22,0-.22.11,0,4.71,0,9.43,0,14.14,0,.07.12,0,.12-.06Z"/><path d="M214.17,29.83c18.32.15,36.64,0,55,0s36.6,0,54.91,0l30.5,0c.13,0,.31-.29.14-.29H344.24c-.13,0-.32.29-.14.29,2.82,0,5.65,0,8.47-.05.09,0,.22-.2.1-.2h-.51c-.07,0-.19.18-.08.18h.49c.09,0,.22-.19.1-.2-2.81-.06-5.62,0-8.43,0-.13,0-.32.29-.14.29h10.44c.13,0,.31-.29.14-.29H245.17c-10.3,0-20.6-.06-30.9,0-.09,0-.23.2-.1.21Z"/><path d="M350.3,26.78c-.11,2.65,0,5.32,0,8,0,.15.24,0,.24-.12V26.18c0-.15-.26,0-.26.12V43c0,.15.26,0,.26-.12,0-.66,0-1.32,0-2,0-.14-.24,0-.24.12s0,.49,0,.74.19,0,.2-.1c0-.25,0-.5,0-.76s-.24,0-.24.12c0,.66,0,1.33,0,2,0,.15.26,0,.26-.12V26.18c0-.15-.26,0-.26.12v8.45c0,.15.24,0,.24-.12,0-2.64.07-5.29,0-7.93,0-.1-.15,0-.16.08Z"/><path d="M213.3,30.92c0,1.35-.05,2.7-.07,4,0,.78,1.27,0,1.28-.62.06-2.49.13-5,.16-7.46,0-.46-.5-.46-.81-.32a1.35,1.35,0,0,0-.79,1.09c0,1.13,0,2.26,0,3.39s1.62,0,1.62-.78V27.18c0-1-1.63,0-1.63.78v2.47c0,1,1.64-.05,1.64-.79V27.48c0-1-1.64.05-1.64.79v1.54c0,1,1.64,0,1.64-.79V27.79c0-1-1.65,0-1.66.79q0,26,.09,51.89c.09,17.19,0,34.39,0,51.57,0,9.76,0,19.51,0,29.26,0,.94,1.54,0,1.54-.74v-8c0-.93-1.54,0-1.54.74q0,7.62,0,15.24V176c0,2.6-.12,5.2-.06,7.8,0,1,1.63,0,1.62-.77,0-.51,0-1,0-1.53,0-.93-1.54,0-1.54.74,0,.52,0,1,0,1.56s.51.46.82.32a1.37,1.37,0,0,0,.8-1.09c.06-2.53-.06-5.07-.05-7.6V167.8q0-7.62,0-15.25c0-.93-1.54,0-1.54.74v8c0,.94,1.54,0,1.54-.74,0-17.3,0-34.61,0-51.91s.05-34.4.07-51.6c0-9.75.05-19.51,0-29.26,0-1-1.66,0-1.66.79v1.23c0,1,1.65,0,1.64-.79V27.48c0-1-1.64.05-1.64.79v2.16c0,1,1.64-.05,1.64-.79V27.18c0-1-1.64,0-1.63.78V31c0,1,1.62,0,1.62-.78,0-1.13,0-2.26,0-3.38s-1.61,0-1.6.77c0,2.44.1,4.87.16,7.31,0,.79,1.3,0,1.28-.62,0-1.32,0-2.64-.07-4,0-.71-1.13,0-1.14.54Z"/><path d="M216.39,29c-1.22,0-2.44-.07-3.66-.08a1.41,1.41,0,0,0-1.13.83c-.15.32-.15.83.33.84h2.15a1.41,1.41,0,0,0,1.15-.83c.15-.34.15-.86-.34-.86h-1.53a1.42,1.42,0,0,0-1.17.85c-.15.33-.15.86.34.86,18.22.13,36.43.05,54.65.05H337c4.88,0,9.78.19,14.66.07a1.64,1.64,0,0,0,1.32-1c.17-.37.18-1-.38-1-1.37,0-2.73.08-4.1.2a1.35,1.35,0,0,0-1.06.77c-.15.33-.13.74.31.78,1.31.12,2.6.16,3.91.2a1.62,1.62,0,0,0,1.32-1c.18-.4.18-1-.38-1-4.39-.11-8.81.07-13.2.07H243.9c-10.18,0-20.36,0-30.54.05a1.44,1.44,0,0,0-1.17.85c-.15.33-.15.87.34.86h1.55a1.41,1.41,0,0,0,1.15-.83c.15-.33.15-.86-.34-.86h-2.16a1.41,1.41,0,0,0-1.13.83c-.15.32-.15.84.33.84,1.25,0,2.49,0,3.73-.08a1.26,1.26,0,0,0,1-.75c.14-.31.14-.75-.3-.76Z"/><path d="M351.78,31.93l.07-1.27c0-.73-1.2,0-1.23.59l0,.32c0,.76,1.24,0,1.27-.61,0-.73.06-1.46.07-2.19s-1.4,0-1.41.68l0,1.24c0,.87,1.44,0,1.45-.69l.05-3.73c0-.94-1.54.05-1.55.75-.16,6.77,0,13.55,0,20.33v60.81c0,27,.16,54,.17,81,0,15.16-.1,30.31-.19,45.47,0,1,1.68,0,1.69-.81l0-6.49c0-1.06-1.75,0-1.75.85v1.23c0,1.08,1.77,0,1.77-.85s0-1.43,0-2.15c0-1.07-1.76,0-1.75.84,0,1.83.14,3.66.14,5.48,0,.89,1.47,0,1.47-.71,0-1.86.13-3.74.14-5.61,0-1.07-1.75.05-1.75.84s0,1.44,0,2.16c0,1.08,1.78,0,1.77-.85v-1.23c0-1.07-1.76,0-1.75.85l0,6.45c0,1,1.69,0,1.69-.81-.08-13.44-.19-26.88-.19-40.32s.06-27.08.1-40.62q.13-40.54.07-81.09V49c0-7.59.13-15.19-.05-22.77,0-.95-1.56.05-1.55.75l.05,3.67c0,.88,1.46,0,1.45-.69l0-1.23c0-.86-1.42,0-1.41.68s0,1.41.07,2.12,1.31,0,1.27-.61l0-.3c-.05-.76-1.27,0-1.23.59l.07,1.2c.05.7,1.06-.07,1.09-.52Z"/><path d="M351.43,240.15c.06-.69.17-1.4.2-2.09s0-1.35,0-2c0-.41-.45-.42-.73-.28a1.18,1.18,0,0,0-.71,1c0,1.85,0,3.7,0,5.56,0,.43.47.44.77.3a1.32,1.32,0,0,0,.75-1c0-1.81,0-3.61,0-5.41s0-3.58-.05-5.37c0-.42-.47-.43-.76-.29a1.27,1.27,0,0,0-.74,1q0,6.26.11,12.5c0,4.35,0,8.7,0,13.06,0,2.46,0,4.93-.07,7.39,0,.42.45.42.74.29a1.24,1.24,0,0,0,.72-1c0-1.55,0-3.1,0-4.64,0-.44-.48-.45-.78-.31a1.3,1.3,0,0,0-.77,1.05,10.92,10.92,0,0,0,.2,1.89c0,.26.43.19.58.12a1.06,1.06,0,0,0,.58-.68,14.35,14.35,0,0,0,.19-2.07c0-.44-.49-.45-.78-.31a1.33,1.33,0,0,0-.77,1.05c0,1.53,0,3.07.05,4.6,0,.41.45.43.74.29a1.24,1.24,0,0,0,.72-1c-.06-4.34-.09-8.67-.13-13s.05-8.64.09-13l.06-7c0-.42-.47-.43-.76-.29a1.24,1.24,0,0,0-.74,1c0,1.81-.05,3.61-.05,5.42s0,3.58,0,5.37c0,.43.47.44.77.3a1.3,1.3,0,0,0,.75-1c0-1.84,0-3.69,0-5.53,0-.41-.45-.42-.73-.28a1.18,1.18,0,0,0-.71,1c0,.66,0,1.32,0,2s.13,1.27.2,1.9c0,.27.29.3.5.2a.88.88,0,0,0,.5-.68Z"/><path d="M80.08,184.83a3.63,3.63,0,0,0,.14-.8c0-.36-.39-.37-.64-.25a1.08,1.08,0,0,0-.63.86v.4c0,.36.39.37.64.25a1.06,1.06,0,0,0,.63-.86v-3.17c0-.36-.39-.37-.64-.25a1.07,1.07,0,0,0-.63.86c0,6.46-.06,12.93-.07,19.39s0,12.86,0,19.29c0,1.83,0,3.66-.07,5.49s-.08,3.67,0,5.5c0,.46.49.47.81.32a1.35,1.35,0,0,0,.8-1.1,11.6,11.6,0,0,0-.21-2.19c-.07-.34-.59-.14-.76,0a.9.9,0,0,0-.43.87l.11.54c.05.22.36.15.49.09a.86.86,0,0,0,.48-.56l.11-.64c.06-.31-.12-.53-.45-.45a1.09,1.09,0,0,0-.74.75,14.74,14.74,0,0,0-.21,2.39c0,.46.51.47.81.32a1.35,1.35,0,0,0,.8-1.1c0-1.61,0-3.22,0-4.83l-.06-4.82c0-3.21,0-6.42,0-9.64q0-9.65,0-19.3c0-3.64-.06-7.27-.06-10.91,0-.36-.39-.37-.64-.25a1.07,1.07,0,0,0-.63.86V185c0,.36.39.37.64.25a1.06,1.06,0,0,0,.63-.86V184c0-.36-.39-.37-.64-.25a1.08,1.08,0,0,0-.63.86,3.07,3.07,0,0,0,.14.67c.06.21.36.16.5.09a.9.9,0,0,0,.49-.57Z"/><path d="M80.92,182.87l-2.46,0c-.78,0-1.9,1.73-.83,1.74,22.94.19,45.89,0,68.84,0s45.68,0,68.53-.08q9.62,0,19.23,0c6.12,0,12.27-.19,18.38,0,.7,0,1.7-1.52.75-1.55s-2-.09-3-.15-1.93,1.9-.89,1.84,2.1-.11,3.15-.14c.7,0,1.69-1.58.75-1.55-5.48.16-11,0-16.47,0H219.6l-34.2-.09c-22.83-.07-45.66,0-68.49,0-12.82,0-25.63-.09-38.45,0-.78,0-1.89,1.75-.83,1.74l2.47,0c.76,0,1.87-1.69.82-1.7Z"/><path d="M251.57,184.88c-.07.58-.12,1.16-.21,1.73a10.31,10.31,0,0,0,0,1.47c0,.42.45.43.74.29a1.25,1.25,0,0,0,.73-1V184.9c0-.42-.47-.43-.76-.29a1.28,1.28,0,0,0-.74,1v1.85c0,.42.47.43.76.3a1.29,1.29,0,0,0,.74-1c0-1.64,0-3.27,0-4.91,0-.41-.45-.42-.73-.29a1.22,1.22,0,0,0-.7,1v32.08c0,10.67,0,21.33,0,32,0,3,0,6-.06,9a72.55,72.55,0,0,0,.15,8.85c.1.81,1.37,0,1.3-.62a11.66,11.66,0,0,1-.14-1.17c0-.29-.31-.29-.51-.2a.84.84,0,0,0-.51.69,11.23,11.23,0,0,1-.14,1.3c0,.37.43.36.66.26a1.12,1.12,0,0,0,.64-.88,71.57,71.57,0,0,0,.16-8q0-4-.05-7.94c0-5.31-.06-10.63-.06-15.94q0-16,0-32v-18c0-.41-.45-.42-.73-.29a1.22,1.22,0,0,0-.7,1c0,1.64,0,3.29,0,4.94,0,.42.47.43.76.3a1.27,1.27,0,0,0,.74-1V184.9c0-.42-.46-.43-.76-.29a1.26,1.26,0,0,0-.74,1l0,2.46c0,.42.45.43.74.29a1.25,1.25,0,0,0,.73-1,11.39,11.39,0,0,0,0-1.43c-.08-.51-.14-1-.21-1.53,0-.27-.28-.29-.49-.19a.86.86,0,0,0-.49.66Z"/><path d="M241.62,193.86c-.1.95-.14,1.89-.16,2.85,0,.42.47.42.75.29a1.26,1.26,0,0,0,.74-1c0-.91-.06-1.83-.06-2.74l0-2.78c0-.4-.44-.41-.71-.28a1.16,1.16,0,0,0-.69.95c0,9.39,0,18.78.05,28.17s0,18.72-.07,28.08l0,7.94c0,1.3,0,2.59,0,3.89s.13,2.61.23,3.92c.06.67,1.13,0,1.09-.52l-.06-.76c-.05-.6-1,0-1,.46a1,1,0,0,1,0,.17c0,.26.29.26.47.18a.78.78,0,0,0,.46-.64,1.28,1.28,0,0,1,0-.17c0-.28-.32-.27-.49-.19a.81.81,0,0,0-.48.65l-.06.82c0,.31.36.3.55.21a.91.91,0,0,0,.54-.73c.09-1.24.22-2.48.23-3.71s0-2.3,0-3.45l0-7q0-7-.07-14.06c0-9.36,0-18.72.06-28.08,0-5.28,0-10.55,0-15.82,0-.4-.44-.41-.71-.28a1.16,1.16,0,0,0-.69.95v2.77c0,.93-.07,1.86-.06,2.8,0,.41.46.43.75.29a1.26,1.26,0,0,0,.74-1c0-.9-.06-1.79-.16-2.69,0-.32-.34-.35-.59-.24a1,1,0,0,0-.58.8Z"/><path d="M89.81,195.43a2.08,2.08,0,0,0,.29-.8,6.08,6.08,0,0,0,0-.61v-.83c0-.4-.44-.4-.71-.28a1.21,1.21,0,0,0-.69,1v.67c0,.4.45.41.72.28a1.2,1.2,0,0,0,.7-1l0-1.59c0-.41-.46-.42-.74-.29a1.26,1.26,0,0,0-.72,1c0,4.63,0,9.25,0,13.87V221c0,2.58,0,5.16,0,7.74,0,.43.48.45.78.3a1.27,1.27,0,0,0,.76-1c0-.47,0-.94-.06-1.42a6,6,0,0,0-.24-1.32c0-.2-.34-.15-.47-.09a.89.89,0,0,0-.47.55,10.19,10.19,0,0,0-.24,1.55q0,.74-.06,1.47c0,.44.49.44.78.3a1.31,1.31,0,0,0,.76-1c.07-4.64,0-9.3,0-13.94s0-9.49,0-14.24q0-3.78,0-7.57c0-.41-.45-.42-.74-.29a1.26,1.26,0,0,0-.72,1l0,1.58c0,.4.44.41.72.28a1.2,1.2,0,0,0,.7-1v-.66c0-.39-.43-.41-.71-.28a1.19,1.19,0,0,0-.69,1v.82a4.89,4.89,0,0,0,0,.54.89.89,0,0,0,.3.56c.22.25.65-.18.73-.36Z"/><path d="M91.31,192.59l-2.73-.09c-.7,0-1.69,1.52-.74,1.54,1.23,0,2.46,0,3.69,0,.71,0,1.72-1.58.75-1.58h-4c-.71,0-1.73,1.58-.76,1.58q30.39.06,60.77,0l60.57-.08c11.28,0,22.55,0,33.83.18a1.52,1.52,0,0,0,1.24-.9c.16-.35.17-.93-.36-.92s-1.27.07-1.9.11a1.36,1.36,0,0,0-1.09.79c-.16.34-.14.78.32.81s1.19.1,1.79.11c.85,0,2-1.84.88-1.82-20.18.25-40.36.18-60.54.15s-40.34-.07-60.5-.07q-17.13,0-34.25,0c-.71,0-1.73,1.59-.76,1.58h4c.71,0,1.72-1.58.75-1.58-1.23,0-2.47,0-3.7,0a1.3,1.3,0,0,0-1,.76c-.13.3-.14.79.31.78q1.41,0,2.82-.09c.56,0,1.51-1.32.65-1.36Z"/><path d="M138.15,193.85a74.67,74.67,0,0,0-.12,7.92c0,2.63,0,5.25-.07,7.88,0,.44.47.44.77.31a1.28,1.28,0,0,0,.75-1c.07-5.24.06-10.48,0-15.72,0-.45-.49-.46-.8-.31a1.34,1.34,0,0,0-.78,1.07c0,6.42.16,12.84.22,19.27s0,12.88,0,19.33c0,3.63,0,7.25,0,10.88,0,.32.35.33.58.22a1,1,0,0,0,.56-.77q0-2.31,0-4.62c0-.32-.36-.33-.58-.22a1,1,0,0,0-.56.77c-.07,5.39-.1,10.77-.13,16.16l0,4.55c0,.41.46.42.74.29a1.22,1.22,0,0,0,.72-1c0-.62,0-1.24,0-1.85,0-.43-.46-.43-.75-.3a1.25,1.25,0,0,0-.73,1l0,1.85c0,.43.48.44.77.3a1.29,1.29,0,0,0,.75-1v-.31c0-.43-.47-.44-.77-.3a1.27,1.27,0,0,0-.75,1c0,1,0,2.05,0,3.08,0,.43.48.45.78.3a1.29,1.29,0,0,0,.76-1c0-.6,0-1.2-.05-1.81a12,12,0,0,0-.22-1.79.29.29,0,0,0-.15-.14h0l.15.24V258c0-.28-.3-.28-.5-.2a.83.83,0,0,0-.48.67v0c0,.28.3.29.5.2a.83.83,0,0,0,.48-.67v0c0-.28-.3-.28-.5-.2a.83.83,0,0,0-.48.67v.08l.13-.37a2,2,0,0,0-.24.91,8.8,8.8,0,0,0-.11,1.26c0,.66,0,1.31-.06,2,0,.44.48.44.78.3a1.29,1.29,0,0,0,.76-1c0-1,0-2.05,0-3.07,0-.43-.47-.45-.77-.3a1.27,1.27,0,0,0-.75,1v.3c0,.43.47.45.77.3a1.27,1.27,0,0,0,.75-1l0-1.84c0-.42-.46-.44-.75-.3a1.24,1.24,0,0,0-.73,1c0,.61,0,1.23,0,1.84,0,.41.45.42.74.29a1.24,1.24,0,0,0,.72-1c0-5.35,0-10.7-.1-16l-.06-4.51c0-.32-.35-.33-.58-.22a1,1,0,0,0-.56.77q0,2.31,0,4.62c0,.32.36.32.58.22a1,1,0,0,0,.56-.77c.07-6.45,0-12.91,0-19.37s0-12.91.12-19.37q.09-5.47.12-11c0-.45-.49-.46-.8-.31a1.32,1.32,0,0,0-.78,1.07c0,5.23,0,10.46,0,15.69,0,.43.47.45.77.31a1.29,1.29,0,0,0,.75-1c0-2.61-.08-5.21-.07-7.82a67.65,67.65,0,0,0-.12-7.8c0-.31-.33-.34-.58-.22a1,1,0,0,0-.56.77Z"/><path d="M312.82,59.86c-.09,1.26-.15,2.5-.15,3.77,0,.83,1.37,0,1.37-.66V60.19c0-.83-1.37,0-1.38.67,0,1.22,0,2.45,0,3.68,0,.82,1.35,0,1.34-.64,0-2.46,0-4.92,0-7.38,0-.77-1.27,0-1.28.62-.18,24.58-.09,49.16-.09,73.74s-.07,49.15.06,73.73c.08,13.8.16,27.59-.09,41.39,0,.92,1.51-.05,1.53-.74,0-1.12,0-2.24-.06-3.36,0-.89-1.39.08-1.41.68,0,1.14-.08,2.27-.06,3.42,0,.93,1.54,0,1.53-.74-.46-24.56,0-49.13,0-73.69s0-49.17,0-73.75c0-13.77,0-27.53-.09-41.3,0-.78-1.28,0-1.28.62,0,2.47,0,4.93,0,7.4,0,.82,1.34,0,1.34-.64,0-1.24,0-2.47,0-3.71,0-.83-1.38,0-1.38.67v2.77c0,.83,1.37,0,1.37-.66,0-1.22-.07-2.41-.16-3.62-.05-.7-1,.07-1.06.51Z"/><path d="M334.16,59.81c0,1.86-.05,3.72-.05,5.57,0,.61,1,0,1-.47,0-2.27,0-4.53,0-6.79,0-.62-1,0-1,.5-.26,20.31-.31,40.63-.31,61l0,60.83c0,11.28.11,22.57.14,33.85,0,.88,1.43,0,1.43-.69,0-7.18,0-14.37,0-21.55,0-.86-1.41,0-1.41.67,0,13.21.05,26.41,0,39.62l0,11.23c0,.92,1.51,0,1.51-.73,0-2.74-.15-5.49-.17-8.23,0-.71-1.17,0-1.17.56,0,2.89-.08,5.79-.12,8.68,0,.85,1.4,0,1.41-.67V241.9c0-.87-1.42,0-1.43.68l0,3.41c0,.92,1.5,0,1.51-.72,0-1.13,0-2.25-.05-3.37,0-.88-1.4.06-1.41.68,0,1.14-.06,2.27,0,3.41,0,.92,1.52,0,1.51-.72l0-3.37c0-.88-1.44,0-1.43.68v1.23c0,.86,1.41,0,1.41-.67,0-2.86-.15-5.72-.12-8.57,0-.71-1.16,0-1.17.56,0,2.8-.19,5.6-.17,8.4,0,.92,1.52,0,1.51-.73-.06-13.19-.05-26.39-.05-39.58V192c0-.86-1.41,0-1.41.67q0,10.78,0,21.57c0,.87,1.43,0,1.43-.69.05-20.21.13-40.43.12-60.64s0-40.58,0-60.86c0-11.32-.15-22.63-.29-33.94,0-.63-1,0-1,.5,0,2.25,0,4.51,0,6.76,0,.61,1,0,1-.47,0-1.84,0-3.68-.06-5.52,0-.54-.87,0-.88.42Z"/><path d="M315.15,59.07,314,59c-.57,0-1.39,1.2-.6,1.26.5.05,1,.06,1.5.07a1.16,1.16,0,0,0,.95-.69c.14-.28.13-.7-.27-.71l-3.06-.06a1.25,1.25,0,0,0-1,.75c-.15.3-.14.76.3.77,3,.06,6,0,8.95,0l8.85,0c1.64,0,3.29,0,4.93.06a1.46,1.46,0,0,0,1.19-.87c.17-.35.16-.87-.35-.89l-.75,0a2.26,2.26,0,0,0-1.22.27c-.33.18-1,.83-.6,1.24s1.16.28,1.73.27a1.48,1.48,0,0,0,1.19-.87c.16-.33.16-.9-.35-.89-5.9.13-11.81.08-17.72.1-1.71,0-3.42,0-5.13,0a1.28,1.28,0,0,0-1,.75c-.14.29-.14.78.3.77l3.1-.06a1.17,1.17,0,0,0,.95-.69c.13-.27.13-.72-.27-.71s-1.05,0-1.58.07a1.11,1.11,0,0,0-.86.62c-.1.23-.12.67.26.64l1.28-.1a.89.89,0,0,0,.72-.52c.11-.23.09-.52-.21-.54Z"/><path d="M314.65,245a4.67,4.67,0,0,0-2.77-.42,1.34,1.34,0,0,0-1.07.78c-.14.31-.14.8.32.8,5.67,0,11.34-.07,17,.07a45.78,45.78,0,0,0,4.83,0,1.45,1.45,0,0,0,1.14-.83c.14-.3.16-.89-.33-.85-.87.07-1.74.17-2.6.28a1,1,0,0,0-.77.55c-.12.26-.09.53.23.58.77.1,1.55.2,2.33.27a1.39,1.39,0,0,0,1.14-.83c.17-.36.14-.81-.33-.85-1.43-.12-2.89,0-4.32,0s-2.84.08-4.26.08H311.88a1.34,1.34,0,0,0-1.07.78c-.14.31-.14.8.32.8a7.66,7.66,0,0,0,3.15-.41c.17-.07.65-.56.37-.75Z"/><path d="M227.53,44.89h-.62a1.46,1.46,0,0,0-1.17.85c-.15.34-.15.87.35.87,1.33,0,2.67,0,4,0a1.44,1.44,0,0,0,1.16-.84c.15-.33.15-.86-.34-.86l-8.63,0a1.4,1.4,0,0,0-1.13.82c-.15.33-.15.84.33.84,15.06,0,30.12-.09,45.18-.08s30-.11,45.07.06q12.58.14,25.19.14a1.59,1.59,0,0,0,1.28-.94c.18-.37.17-1-.37-1l-8.62,0a1.63,1.63,0,0,0-1.3.95c-.17.37-.17,1,.38,1,2.6,0,5.21,0,7.8-.2a1.29,1.29,0,0,0,1-.75c.13-.27.15-.8-.3-.76l-2.55.19c-.46,0-1.29,1.07-.54,1.13s1.58.11,2.37.19,1.66-1.43.72-1.51c-2.52-.24-5.07-.21-7.6-.21a1.65,1.65,0,0,0-1.3.95c-.17.37-.17,1,.38,1h8.63a1.59,1.59,0,0,0,1.28-.94c.18-.37.17-1-.37-1-15,0-30,.19-45,.19H247.66c-8.46,0-16.92-.07-25.38-.08a1.4,1.4,0,0,0-1.13.82c-.15.33-.15.84.33.84l8.61,0a1.42,1.42,0,0,0,1.16-.84c.15-.33.15-.86-.34-.86-1.33,0-2.67,0-4,0a1.46,1.46,0,0,0-1.17.85c-.15.33-.15.87.35.87h.61a1.45,1.45,0,0,0,1.16-.85c.16-.34.16-.86-.33-.86Z"/><path d="M234.94,60.47a4.57,4.57,0,0,0-.13,1.43c0,.41.45.42.73.29a1.24,1.24,0,0,0,.72-1V57.92c0-.4-.45-.42-.73-.28a1.2,1.2,0,0,0-.71,1c0,6.84.08,13.67,0,20.51,0,1.92-.1,3.85,0,5.77,0,.39.43.41.72.28a1.19,1.19,0,0,0,.7-1,11.6,11.6,0,0,0-.14-1.57c-.12-.69-1.06,0-1.12.4-.09.62-.13,1.23-.16,1.85,0,.4.46.4.72.28a1.21,1.21,0,0,0,.7-1c.07-1.69,0-3.39,0-5.08s0-3.41,0-5.11c0-3.41.05-6.82.05-10.22V57.92c0-.4-.45-.41-.73-.28a1.2,1.2,0,0,0-.71,1V61.9c0,.41.45.42.73.29a1.22,1.22,0,0,0,.72-1,3.18,3.18,0,0,0-.14-1.3c-.1-.25-.4-.21-.59-.12a1.15,1.15,0,0,0-.59.69Z"/><path d="M237.09,83.25a6.48,6.48,0,0,0-1-.08,1.26,1.26,0,0,0-1,.75c-.15.31-.14.77.3.78,1,0,2,0,3.07,0a1.34,1.34,0,0,0,1.08-.79c.14-.31.14-.8-.32-.8h-4.93a1.32,1.32,0,0,0-1.07.78c-.15.31-.14.8.31.8l18.25,0c6,0,12.09-.06,18.14,0H275c.85,0,1.69,0,2.53.06a14.7,14.7,0,0,0,2.57.11,1.47,1.47,0,0,0,1.16-.85c.14-.3.16-.91-.34-.86-.28,0-.56.07-.84.11a1.39,1.39,0,0,0-.86.73c-.09.2-.18.69.15.75s.48.09.73.12c.47,0,1-.46,1.16-.85s.14-.82-.34-.86a13.2,13.2,0,0,0-2.35.08c-.78.06-1.55.08-2.34.08h-4.48c-3,0-6.09,0-9.13,0l-18.08-.08-10.26,0a1.32,1.32,0,0,0-1.07.78c-.15.31-.14.8.31.8h4.93a1.36,1.36,0,0,0,1.08-.79c.14-.31.14-.8-.32-.8q-1.55,0-3.09,0a1.28,1.28,0,0,0-1,.75c-.14.3-.14.79.3.78s.71,0,1.06-.08a1.21,1.21,0,0,0,.94-.68c.14-.31.1-.64-.28-.69Z"/><path d="M279,60a51.31,51.31,0,0,0-.28,6.45c0,2.1,0,4.2,0,6.3,0,.4.44.42.72.28a1.18,1.18,0,0,0,.71-1c0-1.22,0-2.43-.09-3.65,0-.6,0-1.2-.07-1.8s-.13-1.12-.15-1.69c0-1.2-.07-2.4,0-3.6s.22-2.54.26-3.82c0-.38-.43-.38-.68-.26a1.13,1.13,0,0,0-.67.91c-.1,3.31-.1,6.63-.12,9.94s0,6.48,0,9.72c0,.9,0,1.81,0,2.71,0,.45,0,.9,0,1.35a9.15,9.15,0,0,0,.23,1.16c.06.22.37.16.51.09a.86.86,0,0,0,.49-.58c.07-.35.15-.71.21-1.07a9.51,9.51,0,0,0,.05-1.31c0-.83,0-1.66,0-2.49,0-1.65,0-3.29,0-4.94,0-3.23,0-6.47,0-9.7,0-1.84-.05-3.69-.1-5.53,0-.38-.41-.39-.68-.26a1.13,1.13,0,0,0-.67.91c0,1.2.18,2.38.26,3.57a35.82,35.82,0,0,1,0,3.59c0,.62-.12,1.22-.15,1.84s0,1.24-.07,1.86c0,1.25-.06,2.49-.08,3.74,0,.41.45.41.72.28a1.2,1.2,0,0,0,.71-1c0-2.09.07-4.19,0-6.28,0-1,0-2.08-.06-3.12a21.54,21.54,0,0,0-.21-3c-.1-.59-.91,0-1,.35Z"/><path d="M238,58a6.39,6.39,0,0,0-1.06-.2,1.2,1.2,0,0,0-1,.71c-.14.3-.12.71.28.73l.4,0a1.22,1.22,0,0,0,1-.73c.14-.31.13-.72-.29-.75l-.82,0a1.3,1.3,0,0,0-1,.75c-.14.3-.13.77.3.77,5.49,0,11,0,16.46,0h23.42a12.08,12.08,0,0,0,2.46-.3.92.92,0,0,0,.55-.47c.06-.14.11-.43-.09-.48a8.45,8.45,0,0,0-1.93-.31H245.76c-3.08,0-6.16,0-9.25,0a1.3,1.3,0,0,0-1,.75c-.14.3-.14.78.3.77.28,0,.56,0,.83,0a1.26,1.26,0,0,0,1-.73c.13-.27.14-.77-.29-.75l-.43,0a1.24,1.24,0,0,0-1,.71c-.12.27-.13.75.28.73a8.43,8.43,0,0,0,1.24-.19,1,1,0,0,0,.61-.52c.07-.15.13-.48-.1-.53Z"/><path d="M235.74,99.53a51.86,51.86,0,0,0-.2,5.29v4.46a1.55,1.55,0,0,0,.08.71c.29.6,1.46-.4,1-.88l-.06-.07.07.19a16.48,16.48,0,0,1-.11-2l0-1a2.76,2.76,0,0,0-.13-1c-.11-.26-.45.11-.49.23a7.54,7.54,0,0,0-.14,2l0,.93,0,.54a1.72,1.72,0,0,1,0,.56c-.14.28-.07.61.29.57a1,1,0,0,0,.76-.7,4.1,4.1,0,0,0,.07-1.4v-1.22l0-2.6a43.32,43.32,0,0,0-.2-5.1c0-.23-.23-.24-.41-.16a.71.71,0,0,0-.4.55Z"/><path d="M237,99.53l-.06-.25c-.1-.67-1.15,0-1.08.52a14.05,14.05,0,0,1,.07,2.34v2.39l0,4.68c0,3.18,0,6.37,0,9.55,0,1.84,0,3.68-.1,5.52,0,.37.41.37.65.26a1.09,1.09,0,0,0,.64-.88c0-1.17.07-2.35.09-3.53,0-.42-.46-.43-.74-.29a1.21,1.21,0,0,0-.73,1,7.66,7.66,0,0,0,0,1.07c0,.28,0,.8.33.93l-.17-.27v0c0,.32.35.33.57.23a1,1,0,0,0,.56-.77v0l-.16.42a2.41,2.41,0,0,0,.31-1.24,7.79,7.79,0,0,0,0-1.08c0-.42-.45-.43-.74-.29a1.21,1.21,0,0,0-.73,1c0,1.15,0,2.29.09,3.44,0,.36.39.38.65.26a1.09,1.09,0,0,0,.64-.88c-.11-3.17-.1-6.34-.1-9.52s0-6.27-.05-9.41l0-2.62a18.7,18.7,0,0,1,0-2.7c.1-.77-1-.24-1,.26,0,.14-.05.29-.07.43-.08.42.26.55.6.39a1,1,0,0,0,.59-1Z"/><path d="M237.09,122.68l-.6,0a1.21,1.21,0,0,0-1,.71c-.13.28-.12.71.29.72l1.22,0a1.22,1.22,0,0,0,1-.72c.14-.3.13-.74-.3-.75l-2.44-.05a1.32,1.32,0,0,0-1.06.78c-.15.31-.14.79.31.79,5.84.11,11.69,0,17.53,0s11.68-.09,17.52,0l4.82,0c.83,0,1.66,0,2.49,0,.43,0,.86,0,1.28-.07s.91-.17,1.37-.25a1,1,0,0,0,.6-.52c.07-.14.13-.47-.1-.52s-.67-.19-1-.24a9.81,9.81,0,0,0-1.09-.07c-.72,0-1.44,0-2.17,0l-4.38,0c-2.93,0-5.85.06-8.78,0-5.83,0-11.65,0-17.47-.06-3.29,0-6.57,0-9.86,0a1.31,1.31,0,0,0-1.06.78c-.14.3-.15.8.31.79l2.49,0a1.23,1.23,0,0,0,1-.72c.13-.29.13-.76-.3-.75l-1.24,0a1.21,1.21,0,0,0-1,.71c-.13.27-.13.73.29.72l.63,0a1.15,1.15,0,0,0,.92-.67c.14-.29.12-.67-.27-.69Z"/><path d="M279.59,101.42c-.17,2.11-.13,4.22-.14,6.33,0,1,0,2.11,0,3.16s0,2,.09,3.07c0,.31.34.33.57.22a1,1,0,0,0,.55-.76c-.06-1.55-.07-3.09-.1-4.64,0-.76,0-1.53,0-2.29a10.79,10.79,0,0,0-.21-2.2c-.05-.23-.4.1-.43.21a27.63,27.63,0,0,0-.25,4.73c0,1.57,0,3.15-.09,4.73,0,.32.35.32.57.22a1,1,0,0,0,.55-.76c0-1.06.09-2.1.09-3.16s0-2.1,0-3.15c0-2.06,0-4.13-.14-6.19,0-.27-.3-.29-.51-.19a.84.84,0,0,0-.49.67Z"/><path d="M279.79,101.8a1,1,0,0,0,.84-.61c.11-.24.11-.62-.25-.62a1,1,0,0,0-.83.61c-.11.24-.11.62.24.62Z"/><path d="M280.65,99.47v-.62c0-.32-.36-.33-.58-.23a1,1,0,0,0-.57.78c-.08,6.24-.15,12.48-.15,18.71v5.19c0,.41.45.42.74.29a1.26,1.26,0,0,0,.72-1c0-1.59,0-3.17,0-4.75,0-.43-.48-.44-.78-.3a1.31,1.31,0,0,0-.76,1c0,1.23,0,2.46,0,3.69,0,.41.45.43.76.29a1.23,1.23,0,0,0,.73-1,2.81,2.81,0,0,0-.16-1.08c-.1-.25-.4-.21-.59-.12a1.15,1.15,0,0,0-.58.68,5.14,5.14,0,0,0-.16,1.24c0,.42.48.42.76.29a1.24,1.24,0,0,0,.73-1c.06-1.23,0-2.47,0-3.71,0-.43-.48-.44-.78-.3a1.31,1.31,0,0,0-.76,1c0,1.57,0,3.14,0,4.71,0,.41.45.42.74.29a1.26,1.26,0,0,0,.72-1c0-6.17,0-12.33-.08-18.5l-.08-5.25c0-.32-.35-.33-.58-.23a1,1,0,0,0-.57.78V100c0,.32.35.33.58.23a.93.93,0,0,0,.55-.77Z"/><path d="M238.58,99.22a4.39,4.39,0,0,0-1.08-.15,1.13,1.13,0,0,0-.92.67c-.13.27-.12.67.27.68,1.22,0,2.44.06,3.66.07a1.24,1.24,0,0,0,1-.74c.14-.29.14-.75-.29-.75l-5.12,0a1.26,1.26,0,0,0-1,.75c-.15.3-.14.78.3.78h25c2.76,0,5.53,0,8.29,0l4.65.09q1.17,0,2.34,0c.77,0,1.56,0,2.33,0a1.57,1.57,0,0,0,1.26-.92c.15-.34.18-1-.37-.93h-.35a1.58,1.58,0,0,0-1.24.9c-.16.34-.17,1,.36.92l1.42-.08a1.41,1.41,0,0,0,1.11-.82c.14-.29.16-.87-.32-.83a16.68,16.68,0,0,0-1.7.27,1,1,0,0,0-.63.55c-.07.15-.14.5.11.55a11.3,11.3,0,0,0,1.43.28,1.35,1.35,0,0,0,1.11-.82c.17-.35.14-.79-.32-.83l-1.33-.09a1.53,1.53,0,0,0-1.24.9c-.17.38-.15.9.36.92l.34,0a1.55,1.55,0,0,0,1.26-.92c.16-.38.17-.91-.37-.93-.7,0-1.4,0-2.1,0l-2.11,0-4.18.09c-2.8.06-5.6,0-8.39,0h-26a1.26,1.26,0,0,0-1,.75c-.15.3-.14.78.3.78l5.14,0a1.26,1.26,0,0,0,1-.74c.14-.29.14-.75-.29-.75-1.24,0-2.49,0-3.73.07a1.13,1.13,0,0,0-.92.67c-.12.25-.12.69.27.68a6.26,6.26,0,0,0,1.22-.15,1,1,0,0,0,.61-.52c.07-.15.13-.48-.1-.53Z"/><path d="M235.52,141c-.07,1.64-.16,3.28-.18,4.91,0,.78,0,1.56.06,2.34s0,1.65,0,2.47c0,.33.36.33.58.23a1,1,0,0,0,.56-.77c0-2,.11-4,.14-6s0-3.86,0-5.79c0-.43-.46-.44-.76-.3a1.26,1.26,0,0,0-.74,1c0,3.24,0,6.47.06,9.71l.1,4.85c0,1.58,0,3.16,0,4.75,0,1.83,0,3.65-.05,5.48,0,.37.41.38.66.26a1.09,1.09,0,0,0,.64-.88c0-2.68,0-5.36.06-8,0-.4-.44-.41-.72-.28a1.19,1.19,0,0,0-.7,1c0,1.37,0,2.74,0,4.1,0,.67,0,1.33.05,2a14.64,14.64,0,0,0,.23,2c.08.54.83,0,.87-.32.1-.71.21-1.42.24-2.13s0-1.44,0-2.16c0-1.38,0-2.77,0-4.16,0-.4-.44-.41-.72-.28a1.21,1.21,0,0,0-.7,1l.06,8c0,.37.4.38.66.26a1.07,1.07,0,0,0,.64-.88c0-1.61,0-3.22,0-4.84s-.06-3.15,0-4.73c.06-3.25.16-6.51.19-9.76,0-1.86,0-3.71,0-5.56,0-.43-.46-.44-.76-.3a1.28,1.28,0,0,0-.74,1c0,1.92,0,3.83.05,5.75s.1,3.91.13,5.86c0,.33.35.34.58.23a1,1,0,0,0,.56-.77c0-.82,0-1.64,0-2.45s.08-1.6.06-2.39c0-1.59-.11-3.16-.18-4.74,0-.24-.25-.25-.42-.17a.71.71,0,0,0-.42.57Z"/><path d="M237.34,164.11a10.2,10.2,0,0,0-1.66-.23,1.27,1.27,0,0,0-1,.74c-.14.3-.13.75.3.75l2.65,0a1.32,1.32,0,0,0,1.07-.78c.15-.32.14-.79-.31-.8-1,0-2,0-3.08,0a1.37,1.37,0,0,0-1.09.8c-.15.31-.14.82.32.81,5.85,0,11.7,0,17.54,0l17.48,0c3.26,0,6.53.11,9.78-.05a1.25,1.25,0,0,0,1-.71c.12-.27.13-.75-.29-.73l-.63,0a1.18,1.18,0,0,0-.93.68c-.13.28-.12.67.27.69l.6,0a1.2,1.2,0,0,0,1-.71c.14-.3.12-.71-.29-.73-2.89-.15-5.79,0-8.68,0h-8.68l-17.5,0c-3.28,0-6.57,0-9.86,0a1.35,1.35,0,0,0-1.09.8c-.15.32-.14.81.32.81,1,0,2.06,0,3.09,0a1.36,1.36,0,0,0,1.07-.78c.14-.31.14-.81-.31-.8l-2.7,0a1.29,1.29,0,0,0-1,.74c-.13.29-.13.76.3.75a14.67,14.67,0,0,0,1.87-.22.94.94,0,0,0,.6-.52c.07-.13.13-.48-.1-.52Z"/><path d="M278.88,140.79c0,1.08-.11,2.16-.11,3.24s0,2.11,0,3.16c0,.26.29.27.47.19a.79.79,0,0,0,.46-.63v-2a18.35,18.35,0,0,1,.05-2.1,20,20,0,0,0,.08-2.05c0-.7,0-1.41.05-2.11,0-.37-.41-.38-.66-.26a1.11,1.11,0,0,0-.64.88c0,2.71-.07,5.43-.09,8.14,0,1.33,0,2.67,0,4s.06,2.68.06,4c0,1.53,0,3.06,0,4.59,0,.4.44.41.72.28a1.18,1.18,0,0,0,.69-1v-2.68c0-.4-.45-.41-.72-.28a1.2,1.2,0,0,0-.7,1v4.6c0,.73,0,1.46,0,2.19,0,.38,0,.76,0,1.13a8.2,8.2,0,0,0,0,1.11c.13.87,1.51,0,1.41-.68s-.16-1.15-.24-1.73c0-.25-.26-.28-.47-.18a.8.8,0,0,0-.46.63c-.07.59-.13,1.19-.22,1.79,0,.35.14.6.52.51a1.21,1.21,0,0,0,.85-.85,18.78,18.78,0,0,0,.05-2.25c0-.77,0-1.54,0-2.3v-4.66c0-.4-.44-.41-.72-.28a1.2,1.2,0,0,0-.7,1v2.66c0,.4.44.41.72.28a1.18,1.18,0,0,0,.69-1c0-2.71,0-5.41,0-8.12s0-5.36,0-8c0-1.52,0-3-.05-4.55,0-.37-.4-.38-.66-.26a1.09,1.09,0,0,0-.64.88c0,.67,0,1.34,0,2a19.77,19.77,0,0,0,.08,2,16.48,16.48,0,0,1,.05,2v2.08c0,.26.29.27.47.19a.79.79,0,0,0,.46-.63c0-1.07,0-2.14,0-3.2s-.08-2.09-.12-3.13c0-.22-.23-.22-.39-.15a.65.65,0,0,0-.38.52Z"/><path d="M238.57,139.48a2.7,2.7,0,0,0-.78-.19l-.68,0a1.2,1.2,0,0,0-1,.71c-.14.28-.13.72.28.72h.82a1.2,1.2,0,0,0,1-.71c.14-.28.13-.73-.28-.73h-3.69a1.18,1.18,0,0,0-1,.71c-.14.28-.13.73.28.73l7.39,0a1.25,1.25,0,0,0,1-.73c.13-.29.13-.75-.29-.75h-2.88a1.23,1.23,0,0,0-1,.73c-.14.29-.14.75.29.75,5.23,0,10.47.06,15.7.07h20.13c1.44,0,2.88.09,4.32.11a1.57,1.57,0,0,0,1.27-.93c.16-.37.18-.94-.37-.95-.33,0-.66,0-1,0a4.81,4.81,0,0,0-1.13.22,1.35,1.35,0,0,0-.81.69c-.1.23-.15.59.14.7a2.9,2.9,0,0,0,.91.23c.33,0,.65,0,1,0a1.57,1.57,0,0,0,1.27-.93c.16-.36.18-.95-.37-.95-1.31,0-2.62.11-3.94.11h-11.7c-5.27,0-10.53,0-15.8.05l-8.9,0a1.23,1.23,0,0,0-1,.73c-.14.29-.14.75.29.75h2.88a1.27,1.27,0,0,0,1-.73c.13-.29.13-.75-.29-.75l-7.4,0a1.18,1.18,0,0,0-1,.71c-.14.28-.13.73.28.73h3.7a1.2,1.2,0,0,0,1-.71c.14-.28.13-.73-.28-.73h-.82a1.2,1.2,0,0,0-1,.71c-.13.28-.13.73.28.72h.69a3.89,3.89,0,0,0,1-.19,1,1,0,0,0,.6-.5c.07-.17.12-.45-.1-.52Z"/><path d="M51.12,261.58l-5.33,0c-.73,0-1.77,1.61-.78,1.61H52.4c.73,0,1.78-1.63.78-1.63H43.74c-.74,0-1.79,1.63-.79,1.63H54c.74,0,1.8-1.65.79-1.65l-14.38,0c-.73,0-1.77,1.61-.78,1.61H49.94c.72,0,1.74-1.59.77-1.59l-16.44,0c-.7,0-1.69,1.55-.74,1.55q67-.11,134.06-.11c44.67,0,89.34-.21,134,0,24.63.13,49.26.3,73.89.32.92,0,2.23-2,1-2h-9.85c-.93,0-2.25,2.05-1,2.05h11.91c.92,0,2.24-2.06,1-2.05h-6.16c-.92,0-2.22,2-1,2h4.12c.91,0,2.17-2,1-2l-3.32.07c-.84,0-2,1.89-.89,1.86s2.23-.08,3.35-.15c.7,0,1.69-1.61.75-1.56l-2.53.15c-.52,0-1.44,1.22-.61,1.27l2.39.14c.71.05,1.72-1.5.75-1.56s-2.14-.12-3.21-.15c-.84,0-2,1.84-.89,1.86l3.25.08c.91,0,2.18-2,1-2h-4.1c-.92,0-2.22,2-1,2h6.16c.92,0,2.24-2.05,1-2.05h-11.9c-.93,0-2.25,2.05-1,2.05h9.86c.92,0,2.22-2,1-2-44.44,0-88.88.27-133.31.34q-67,.1-134,0-37.44,0-74.88-.07c-.7,0-1.69,1.55-.74,1.55l16.41,0c.72,0,1.74-1.59.77-1.59H40.45c-.73,0-1.77,1.61-.78,1.61l14.37,0c.74,0,1.8-1.65.79-1.65-3.7,0-7.4,0-11.09,0-.74,0-1.79,1.63-.79,1.63H52.4c.73,0,1.78-1.63.78-1.63-2.46,0-4.93,0-7.39,0-.73,0-1.77,1.61-.78,1.61l5.35,0c.7,0,1.72-1.57.76-1.57Z"/><path d="M79.37,253.3a22.76,22.76,0,0,0-.2,3.3c0,.41.45.42.73.29a1.21,1.21,0,0,0,.71-1v-3.7c0-.41-.44-.42-.72-.28a1.19,1.19,0,0,0-.72,1c0,1.58,0,3.15,0,4.72s.08,3.21,0,4.82c0,.39.44.4.7.27a1.19,1.19,0,0,0,.69-.94,4.51,4.51,0,0,0,0-.9,1.25,1.25,0,0,0-.31-.68c-.21-.28-.68.19-.77.37a3.6,3.6,0,0,0-.3,1,6.76,6.76,0,0,0,0,.9c0,.39.42.4.7.27a1.17,1.17,0,0,0,.69-.94c-.06-1.61,0-3.23,0-4.84v-4.72c0-.41-.44-.42-.72-.28a1.19,1.19,0,0,0-.72,1c0,1.24,0,2.47,0,3.7,0,.41.45.42.73.29a1.21,1.21,0,0,0,.71-1,17.05,17.05,0,0,0-.2-3.11c0-.23-.39-.16-.52-.1a1,1,0,0,0-.52.6Z"/><path d="M167.32,203c-4.44,4.38-8.83,8.81-13.23,13.22-1.24,1.24-2.47,2.49-3.7,3.73-.07.07,0,.14.07.07q6.64-6.58,13.24-13.2,1.86-1.86,3.71-3.73c.1-.09,0-.19-.09-.09Z"/><path d="M162.69,219c-3.08,3.08-6.18,6.14-9.23,9.25-.08.08,0,.16.08.08,3.11-3.05,6.18-6.14,9.25-9.23.11-.1,0-.2-.1-.1Z"/><path d="M209.51,231.63l-16.87,16.86-2.32,2.31c-.79.79-1.63,1.55-2.36,2.4-.07.09,0,.15.08.08.76-.65,1.44-1.4,2.14-2.11l2.06-2,4.22-4.23,8.46-8.46,4.69-4.7c.1-.1,0-.2-.1-.1Z"/><path d="M211.66,217.46c-3.69,3.69-7.4,7.38-11.06,11.11-.06.06,0,.11.05.06,3.73-3.66,7.42-7.37,11.12-11.07.1-.1,0-.21-.11-.1Z"/><path d="M202.42,204.83l-8.62,8.63c-.11.1,0,.21.1.1l8.63-8.62c.1-.11,0-.22-.11-.11Z"/><path d="M169.47,242.1q-5,5-9.94,9.92c-.9.9-1.81,1.79-2.67,2.73-.07.07,0,.13.07.06,1.65-1.53,3.21-3.16,4.8-4.75l5-5,2.86-2.86c.09-.1,0-.19-.1-.1Z"/><path d="M235.69,202.06c-3.08,3.08-6.17,6.16-9.23,9.25-.08.08,0,.16.08.08,3.09-3.06,6.17-6.15,9.25-9.23.1-.1,0-.21-.1-.1Z"/><path d="M230.15,243c-3.5,3.48-7,6.95-10.46,10.48-.07.07,0,.14.07.07,3.53-3.44,7-7,10.48-10.46.1-.09,0-.19-.09-.09Z"/><path d="M328.4,67.78c-2.58,2.56-5.16,5.11-7.69,7.71-.08.08,0,.15.07.07,2.6-2.53,5.16-5.11,7.71-7.69.09-.09,0-.18-.09-.09Z"/><path d="M327.16,73.32c-2,2-3.92,3.88-5.83,5.87-.06.07,0,.13.06.06,2-1.91,3.92-3.88,5.87-5.83.1-.1,0-.2-.1-.1Z"/><path d="M326.85,119.52,323,123.37c-1.28,1.28-2.59,2.54-3.83,3.87-.05.06,0,.12.06.06,1.33-1.24,2.59-2.54,3.88-3.83l3.84-3.85c.1-.1,0-.2-.1-.1Z"/><path d="M326.85,126.6l-5.54,5.54c-1.85,1.85-3.73,3.67-5.53,5.57-.06.07,0,.13.07.07,1.9-1.8,3.72-3.68,5.56-5.53L327,126.7c.11-.1,0-.2-.1-.1Z"/><path d="M324.7,181.74q-4.83,4.8-9.63,9.62c-.89.9-1.78,1.81-2.68,2.71-.07.07,0,.14.07.07q4.85-4.78,9.65-9.61c.9-.89,1.79-1.8,2.69-2.7.09-.1,0-.19-.1-.09Z"/><path d="M330,168.81c-1.87,1.83-3.72,3.67-5.55,5.55-.07.07,0,.14.08.07,1.87-1.82,3.71-3.68,5.54-5.54.08-.08,0-.16-.07-.08Z"/><path d="M328.39,155.25c-1.85,1.84-3.71,3.68-5.53,5.55-.08.08,0,.16.08.08,1.87-1.82,3.71-3.68,5.56-5.53.1-.11,0-.21-.11-.1Z"/><path d="M325.62,230.7c-2.36,2.36-4.78,4.68-7.07,7.1-.07.08,0,.15.08.08,2.42-2.3,4.74-4.71,7.1-7.07.1-.11,0-.22-.11-.11Z"/><path d="M327.16,216.23l-3.07,3.08c-.1.1,0,.19.09.1l3.08-3.08c.11-.1,0-.21-.1-.1Z"/></g></svg>