<svg xmlns="http://www.w3.org/2000/svg" xml:space="preserve" style="enable-background:new 0 0 46.8 34" viewBox="0 0 46.8 34"><linearGradient id="a" x1=".331" x2="46.515" y1="16.997" y2="16.997" gradientUnits="userSpaceOnUse"><stop offset="0" style="stop-color:#ffffc6"/><stop offset=".578" style="stop-color:#ffcc61"/><stop offset="1" style="stop-color:#fde18b"/></linearGradient><path d="M42.1 33.7H4.8c-2.5 0-4.5-2-4.5-4.5V4.8C.3 2.3 2.3.3 4.8.3h37.3c2.5 0 4.5 2 4.5 4.5v24.4c-.1 2.5-2.1 4.5-4.5 4.5z" style="fill:url(#a)"/><path d="M46.5 11.1H34.2c-2.9 0-5.2-2.3-5.2-5.2C29 3 31.3.7 34.2.7V0c-3.1 0-5.7 2.5-5.9 5.6h-9.8C18.4 2.5 15.8 0 12.7 0v.7c2.9 0 5.2 2.3 5.2 5.2 0 2.9-2.3 5.2-5.2 5.2H0v11.8h12.6c2.9 0 5.2 2.3 5.2 5.2s-2.3 5.2-5.2 5.2v.7c3.1 0 5.7-2.5 5.9-5.6h9.8c.2 3.1 2.7 5.6 5.9 5.6v-.7c-2.9 0-5.2-2.3-5.2-5.2s2.3-5.2 5.2-5.2h12.6V11.1h-.3zM.7 22.2V11.8h12c2.9 0 5.2 2.3 5.2 5.2 0 2.9-2.3 5.2-5.2 5.2H.7zm27.6 5.6h-9.8c-.1-2.4-1.7-4.5-3.9-5.2 2.3-.8 4-3 4-5.6 0-2.6-1.7-4.8-4-5.6 2.2-.8 3.8-2.8 3.9-5.2h9.8c.1 2.4 1.7 4.5 3.9 5.2-2.3.8-4 3-4 5.6 0 2.6 1.7 4.8 4 5.6-2.2.7-3.8 2.8-3.9 5.2zm5.9-5.6c-2.9 0-5.2-2.3-5.2-5.2 0-2.9 2.3-5.2 5.2-5.2h12v10.4h-12z" style="fill:#e8ab5b"/><path d="M42.1 33.7H4.8c-2.5 0-4.5-2-4.5-4.5V4.8C.3 2.3 2.3.3 4.8.3h37.3c2.5 0 4.5 2 4.5 4.5v24.4c-.1 2.5-2.1 4.5-4.5 4.5z" style="fill:none;stroke:#e8ab5b;stroke-width:.6629;stroke-miterlimit:10"/></svg>