<svg id="f52bbd1f-2e07-4119-b3b5-2ff8fb716f57" data-name="Layer 1" xmlns="http://www.w3.org/2000/svg" viewBox="0 0 500 500"><title>man-looking</title><path d="M162.52,392.13s53.67-15.85,80.12-14.87,112.83,22.63,118.24,29.57-18.86,94.64-52.83,85-51-61.38-69.42-65.63S170.19,441,166.37,434,107.55,418.86,162.52,392.13Z" fill="#202028" opacity="0.11"/><path d="M200.76,391.65s-17.46,18.29-20.25,20.15-18.72,9.2-18,15.27,22.52,3,34.16-1.26,26-12.54,32.88-17.09S207.32,389.79,200.76,391.65Z" fill="#2e2e47"/><path d="M190.64,266.38s-9.62,14.68-11.14,24.3,2.69,79.36,4.71,90.5,32,26.44,36.06,26.94,33.07-.37,32.56-6.45c-.24-2.87,3.24-15.11,4.31-23.15,1.19-9,0-13.67,0-13.67s9.92,7.31,11.94,13.38,7.09,40,8.61,46.34S299.48,438,303,437.45s29.84-7.59,31.87-9.11-10.12-113.84-12.66-127S311.12,277,303,272.46,210.88,255.25,190.64,266.38Z" fill="#2e2e47"/><path d="M182.79,282.58s-2.11,9.11,3.63,12,40.32,3.71,49.26,4.72,82.07,6.25,83.68-3.71c1-6.15-20.58-1.52-27.67-2.19S182.79,282.58,182.79,282.58Z" fill="#573ec1"/><path d="M284.19,109.84s44.1,3.38,63.31,12.27,14.94,75.4,4.62,96.74-7.75,73.67-23.05,76.16c-5.49.9-15.77,6.48-39.24,5.88-9.4-.24-29-6-38.82-6.47-34.08-1.78-66.77-5.25-69.42-10.86-5.34-11.28-24.9-101.64-29.36-124.46-5.6-28.66,40.91-50.51,64.38-51.93S284.19,109.84,284.19,109.84Z" fill="#bfb2f9"/><path d="M225.9,16s17.9-10.81,43.52-8.78c18,1.43,22.24,10.84,26.5,15.48,5.88,6.39,3.19,22.51,6.62,37.11s-12.88,59.3-22.61,64.05-55.08,2.08-64.68-8-12.6-54.09-12.6-66.4S205.86,15.17,225.9,16Z" fill="#8b5cf6"/><path d="M276.72,131.06s0,23.18-2,25.19-22.86,19.2-22.86,19.2-24.48-21.77-24.77-27.5.12-12.31.12-12.31Z" fill="#ffa982"/><path d="M306.91,263.73s10.94,22.35,23.26,31c4.88-1.65,7.81-8.79,10-18.28Z" fill="#2e2e47"/><path d="M276,188.49a.83.83,0,0,1-.51-.19L260,175.51l-7,1.2a.81.81,0,0,1-.28-1.59l7.4-1.26a.8.8,0,0,1,.65.17l15.17,12.5c2.66-3.49,14.93-19.9,15.91-26.55,1.09-7.38-7.68-25.54-7.77-25.72a.81.81,0,0,1,.37-1.08.82.82,0,0,1,1.08.38c.37.76,9.08,18.78,7.91,26.66s-16.1,27.14-16.73,28a.8.8,0,0,1-.55.3Z" fill="#2e2e47"/><path d="M276.68,135.43,227,144.62l0,1.51c2.91,3.9,12,15,21.95,15.23,8.44.18,20.2-4.26,26.45-6.92C276.31,150.4,276.59,141,276.68,135.43Z" fill="#2e2e47"/><path d="M222.18,189.42a.76.76,0,0,1-.21,0,.8.8,0,0,1-.49-.39c-.51-.92-12.41-22.62-13.93-33.81-1.64-12.1,3.28-27.75,12.09-29.8A.8.8,0,1,1,220,127c-7.87,1.84-12.37,16.83-10.85,28,1.33,9.78,11.23,28.59,13.34,32.52l24.25-14.25a.81.81,0,0,1,.94.08l2.53,2.2a.8.8,0,0,1,.08,1.13.79.79,0,0,1-1.13.08l-2.1-1.81L222.59,189.3A.73.73,0,0,1,222.18,189.42Z" fill="#2e2e47"/><path d="M224.23,45c5.56-1.89,19.35,4,27.89,4,16.08,0,31.3-5.17,33.76,1.15,3.77,9.69,4.93,34.05,4.93,34.05s2.22,1.7,2.9.7c1.54-2.26,5.19-8.39,8.35-6.75,8.31,4.29-2.58,29.65-6.34,31s-4.84,0-4.84,0a184.73,184.73,0,0,1-2.49,23.69c-1.59,9.22-13,22.28-36.22,22.28-24.62,0-39.16-20.36-40.95-27.12-3.85-14.44-2.13-22.08-2.13-22.08s-6.44,2.31-9.55-9c-2.43-8.83-3.39-19.44,1.47-21,5.74-1.85,5.22,4.59,7.42,6.57,1.87,1.67,3.68.86,4,0C213.29,80.51,207.07,50.78,224.23,45Z" fill="#ffa982"/><path d="M231.21,116.7s23.65,3,41.26,0c0,0-11.41,12.81-23.23,13.7S231.21,116.7,231.21,116.7Z" fill="#fff"/><path d="M349.85,123.57s29,31.19,52.23,64.11c17.28,24.45,32.57,52.77,35.37,65.71,6.58,30.37-19.84,50.49-46.73,46.23-29.84-4.73-90.78-27-88.84-44.25s17.71-42.66,37.58-36.42c8.7,2.73,29.6,11.35,29.6,11.35s-45.32-36.8-39.75-69.19S349.85,123.57,349.85,123.57Z" fill="#bfb2f9"/><path d="M319.44,228.42s9.87-13.91,13.67-6.83-17.26,38.16-25.06,39.23S309.61,237.15,319.44,228.42Z" fill="#2e2e47"/><path d="M329.07,229.13l-10.61-13.61s-5.93-21.56-6.14-23.88-9.06-8-14.12-10.11-12.21-3.79-16.64-2.11-4.84,6.32-5.26,12.22-2.11,7.93-1.48,11.34,2.74,20.89,4.22,23S293,230.83,293,230.83s10,14,21.8,14.84S329.07,229.13,329.07,229.13Z" fill="#ffa982"/><path d="M309.83,193.05s-6.51-13-6.1-20.12-.65-12.06-5.4-10.41S292.65,181.83,296,187,309.83,193.05,309.83,193.05Z" fill="#ffa982"/><path d="M306.91,187.2a.83.83,0,0,1-.52-.19c-4.61-3.88-12.36-6.11-12.44-6.14a.8.8,0,0,1-.56-1,.82.82,0,0,1,1-.56c.33.1,8.16,2.35,13,6.46a.81.81,0,0,1-.52,1.42Z" fill="#2e2e47"/><path d="M154.83,142.43s-46.6,38.11-87.31,100.24c-17,26,5,60.41,32.07,63.34,30,3.25,92-41.19,94.59-58.3s-25-35.1-21.86-67.82S154.83,142.43,154.83,142.43Z" fill="#bfb2f9"/><path d="M173.68,224.32s-8.6-7.07-13.66-5.15-2.53,10.33,3.29,16.12,20.94,14.11,24,12.11,1.89-9.79-1.21-14.13S173.68,224.32,173.68,224.32Z" fill="#2e2e47"/><path d="M161.45,223.11l5.6-7.19S173,194.36,173.2,192s9.06-8,14.12-10.11,12.21-3.79,16.64-2.11,4.84,6.32,5.26,12.22,2.11,7.93,1.48,11.34-2.74,20.89-4.22,23-13.94,4.86-13.94,4.86-2.13,9.09-13.93,9.94S161.45,223.11,161.45,223.11Z" fill="#ffa982"/><path d="M175.69,193.45s6.51-13,6.1-20.12.65-12.06,5.4-10.41,5.68,19.31,2.3,24.51S175.69,193.45,175.69,193.45Z" fill="#ffa982"/><path d="M178.61,187.6a.78.78,0,0,1-.61-.29.81.81,0,0,1,.09-1.14c4.88-4.1,12.71-6.35,13-6.45a.8.8,0,0,1,1,.56.79.79,0,0,1-.55,1c-.08,0-7.83,2.26-12.44,6.14A.85.85,0,0,1,178.61,187.6Z" fill="#2e2e47"/><path d="M286.54,423.78s6.08,29.36,8.35,40.24,4.31,25.05,13.16,27.84,11.64-35.94,12.15-41.76,5.82-25-2-33.63S285.78,411.64,286.54,423.78Z" fill="#2e2e47"/><path d="M241.6,177.19l5.55-3.26,4.22,2.75s6.41-2.33,8.86-2l4.12,3.39s-2.44,9.64-5.47,10.57l-3,.93,8.51,93.29-15.71,18-16.25-21.53L245,188.61Z" fill="#7b57ea"/><path d="M222.86,76.64a.78.78,0,0,1-.54-.21.81.81,0,0,1-.06-1.14c.24-.26,5.82-6.24,16.5-4.49a.81.81,0,1,1-.26,1.59,18.72,18.72,0,0,0-11.23,1.38,13.53,13.53,0,0,0-3.82,2.6A.78.78,0,0,1,222.86,76.64Z" fill="#2e2e47"/><path d="M252.49,109a15,15,0,0,1-8.38-2.75.81.81,0,1,1,1-1.28,13.2,13.2,0,0,0,9.09,2.29,3.31,3.31,0,0,0,2.51-1.48c.91-1.48.47-3.78.22-4.55-.66-2.06-6.34-20.24-3.61-24.56a12.64,12.64,0,0,1,7.1-5.18c3.62-1.1,7.76-.91,12.31.54C282,75,283,77.2,283.12,77.81a.81.81,0,0,1-1.57.35c-.08-.16-1.2-2-9.33-4.6-9.23-2.94-15.12.12-17.56,4-.54.86-1.13,3.67,1,12.87,1.23,5.36,2.8,10.29,2.81,10.34s1.11,3.48-.37,5.89a4.93,4.93,0,0,1-3.64,2.22A13.08,13.08,0,0,1,252.49,109Zm29-30.93Zm0,0Zm0,0Z" fill="#2e2e47"/><path d="M277.31,84.75a.82.82,0,0,1-.68-.38,11.8,11.8,0,0,0-7.28-4.61,10.88,10.88,0,0,0-8.46,1.67.81.81,0,0,1-1-1.26,12.35,12.35,0,0,1,9.8-2A13.27,13.27,0,0,1,278,83.52a.81.81,0,0,1-.26,1.11A.82.82,0,0,1,277.31,84.75Z" fill="#2e2e47"/><path d="M272,81.06c.9,1.51-.09,5.08-2.21,6.09s-4.67-.37-5-4,2-4.07,2-4.07A4.06,4.06,0,0,1,272,81.06Z" fill="#2e2e47"/><path d="M240.8,83.2a.8.8,0,0,1-.6-.27,11.84,11.84,0,0,0-8-3.31,10.93,10.93,0,0,0-8.06,3.07.8.8,0,0,1-1.13.07.82.82,0,0,1-.07-1.14A12.38,12.38,0,0,1,232.3,78a13.28,13.28,0,0,1,9.1,3.85.8.8,0,0,1-.07,1.14A.76.76,0,0,1,240.8,83.2Z" fill="#2e2e47"/><path d="M235.06,80.46c1.15,1.33.78,5-1.15,6.37s-4.66.43-5.63-3,1.25-4.35,1.25-4.35A4.05,4.05,0,0,1,235.06,80.46Z" fill="#2e2e47"/><path d="M243.06,133.07a.81.81,0,0,1-.22-1.58c.27-.08,6.65-1.91,11.06-.59a.8.8,0,0,1,.54,1,.79.79,0,0,1-1,.54c-3.95-1.18-10.09.58-10.15.6A.91.91,0,0,1,243.06,133.07Z" fill="#2e2e47"/><path d="M427.18,275H427c-1.27-.17-1.93-2.12-3.43-6.9a84.94,84.94,0,0,0-3.91-10.7c-3.21-6.81-37.84-21.3-50.91-26.31a.79.79,0,0,1-.46-1,.8.8,0,0,1,1-.46c1.94.74,47.65,18.33,51.79,27.13a87.36,87.36,0,0,1,4,10.9,35.61,35.61,0,0,0,2,5.58c1.84-3,3.22-7.38-1.85-15.46a.8.8,0,0,1,.25-1.11.81.81,0,0,1,1.11.25c5.69,9.06,3.74,14.22,1.77,17.31A1.48,1.48,0,0,1,427.18,275Z" fill="#2e2e47"/><path d="M353.59,216.22a.8.8,0,0,1-.61-.28c-.05-.06-5.19-6-16.72-22.42-4.91-7-8-18.38-9.07-33.82a171.76,171.76,0,0,1-.2-21.08.8.8,0,0,1,.86-.75.81.81,0,0,1,.75.85c0,.38-2.37,37.71,9,53.87,11.47,16.35,16.57,22.24,16.62,22.29a.81.81,0,0,1-.61,1.34Z" fill="#2e2e47"/><path d="M265.88,296.37a.77.77,0,0,1-.41-.11c-14.91-8.78-50.54-17.54-50.9-17.62a.81.81,0,0,1,.38-1.57c.36.09,36.23,8.91,51.34,17.8a.81.81,0,0,1-.41,1.5Z" fill="#2e2e47"/><path d="M66.94,250.3a.75.75,0,0,1-.38-.1.8.8,0,0,1-.38-1,51.59,51.59,0,0,1,5.43-11c4.9-7.49,11-12.17,17.57-13.53,15.42-3.2,42.85-9,43.13-9a.81.81,0,0,1,.33,1.58c-.27.05-27.71,5.84-43.14,9-10.6,2.2-17.09,12.94-20,19.09A67.28,67.28,0,0,1,86.36,233.5a134.61,134.61,0,0,1,24.47-9.45A199,199,0,0,1,140.29,218a.81.81,0,0,1,.18,1.6,197.12,197.12,0,0,0-29.22,6C96.87,229.75,77.62,237.34,67.57,250A.81.81,0,0,1,66.94,250.3Z" fill="#2e2e47"/><path d="M243,45.34a37.61,37.61,0,0,0,19.61,8.22c11.89,1.27,23.07-1.52,19.7-2.91s-17-.25-20.75-3.67S239.8,42.36,243,45.34Z" fill="#8b5cf6"/><path d="M258,366.32a.81.81,0,0,1-.78-.6c0-.11-2.74-10.46-5-13.68a27.55,27.55,0,0,1-2.49-6c-1.58-4.62-3.55-10.38-6.79-11.8-5.37-2.34-28.92-14.84-29.92-15.37a.81.81,0,0,1,.76-1.43c.24.13,24.5,13,29.8,15.33,3.9,1.7,6,7.83,7.67,12.75a27.62,27.62,0,0,0,2.29,5.58c2.41,3.45,5.12,13.75,5.23,14.19a.81.81,0,0,1-.58,1A.64.64,0,0,1,258,366.32Z" fill="#fff"/><path d="M298.52,407.64a4.22,4.22,0,0,1-2.38-.73c-6.38-4.19-23.8-18.84-24.54-19.46a.81.81,0,1,1,1-1.23c.18.15,18.09,15.2,24.38,19.35a2.78,2.78,0,0,0,2.26.36c4.63-1.1,10.48-11.25,12.68-15.07.66-1.15,1-1.72,1.19-2a.81.81,0,0,1,1.28,1c-.16.2-.58.94-1.08,1.8-2.72,4.73-8.39,14.58-13.7,15.84A4.92,4.92,0,0,1,298.52,407.64Z" fill="#fff"/><path d="M248.37,340.87a.81.81,0,0,1-.81-.76c0-.11-.71-11.57-1.36-14.68s-2-21.93-2-22.72a.8.8,0,1,1,1.6-.11c0,.19,1.36,19.38,2,22.49s1.37,14.45,1.4,14.93a.8.8,0,0,1-.75.85Z" fill="#fff"/><path d="M229.6,409.53h-.09c-.11,0-11.32-1.17-18.9-3.44-7.74-2.32-14-9.66-14.25-10a.8.8,0,0,1,.09-1.13.81.81,0,0,1,1.14.1c.06.07,6.2,7.29,13.48,9.47,7.44,2.23,18.5,3.37,18.61,3.38a.81.81,0,0,1,.72.88A.82.82,0,0,1,229.6,409.53Z" fill="#fff"/><path d="M315,399.45a.79.79,0,0,1-.48-.16.8.8,0,0,1-.17-1.12c3.05-4.12,10.94-15.59,10.81-19.23,0-.8-.28-.85-.38-.87-1.61-.31-6.24,3.72-6.68,4.71a.81.81,0,1,1-1.47-.66c.63-1.41,5.76-6.15,8.46-5.63.6.12,1.62.58,1.68,2.39.17,4.86-10,18.69-11.12,20.25A.81.81,0,0,1,315,399.45Z" fill="#fff"/><ellipse cx="273.34" cy="98.61" rx="8.99" ry="5.99" fill="#f2836d"/><ellipse cx="225.76" cy="98.61" rx="8.99" ry="5.99" fill="#f2836d"/></svg>