<svg xmlns="http://www.w3.org/2000/svg" xml:space="preserve" style="enable-background:new 0 0 368.2 320" viewBox="0 0 368.2 320"><path d="m178.9 293.1-14-1.5.7-12.9" style="fill:none;stroke:#8b5cf6;stroke-width:2;stroke-linecap:round;stroke-linejoin:round;stroke-miterlimit:10"/><path d="M174.5 282.9s143-101.9 72-162" style="fill:none;stroke:#8b5cf6;stroke-width:2;stroke-miterlimit:10;stroke-dasharray:12.2724,12.2724"/><path d="M25.2 74.9c-.1-.4-.1-.9-.1-1.5s.1-1.1.3-1.7c.3-.8.5-1.5.9-2.2.3-.7.7-1.4 1.1-2 .4-.6.8-1.2 1.2-1.7.4-.5.8-.9 1.2-1.2.2-.2.5-.4.7-.6.3-.2.5-.4.8-.6.3-.2.6-.4.9-.5l.9-.3c.3 0 .6 0 .9.1.3.1.6.2.8.4.2.2.4.4.6.7.2.3.3.6.3.9v.5c0 .1 0 .2-.1.3 0 .1-.1.1-.2.2s-.2 0-.3.1h-.4c-.1-.1-.2-.1-.3-.2-.1-.1-.1-.2-.2-.3 0-.1-.1-.2-.2-.3-.1-.1-.1-.2-.2-.2-.1-.1-.2-.1-.3-.1-.3 0-.6.2-.9.3-.3.2-.7.4-1 .7-.3.3-.7.6-1 .9-.3.3-.6.7-.9 1-.3.3-.5.7-.8 1l-.6.9c-.2.4-.5.8-.6 1.3-.2.4-.3.9-.5 1.3-.1.4-.2.9-.2 1.3s0 .9.1 1.4c.1.4.1.7.3.9.1.3.3.5.4.6.2.2.4.3.6.4.2.1.5.1.8 0 .6-.1 1.2-.2 1.7-.4s1-.4 1.5-.7c.5-.3.9-.6 1.3-.9.4-.3.9-.7 1.3-1.1h.6c.1 0 .2.1.3.2.1.1.2.2.2.3.1.1.1.2.1.3 0 .2 0 .5-.2.8-.2.3-.4.5-.6.8-.3.3-.6.5-.9.8-.3.2-.7.5-1 .7-.3.2-.7.4-1 .5-.3.2-.6.3-.7.3-.2.1-.3.1-.5.2-.1.1-.3.1-.5.2s-.4.1-.7.2c-.3.1-.7.1-1.1.2h-.8c-.2-.1-.4-.1-.6-.2-.2-.1-.4-.2-.5-.3-.1-.1-.3-.2-.3-.3-.5-.4-.9-.9-1.2-1.4-.1-.8-.3-1.4-.4-2zm13.5 2.6v-.7c0-.2 0-.3.1-.4v-.3l2.3-15.5c0-.1.1-.1.1-.2l.1-.1c.1 0 .1-.1.2-.1h.6c.1 0 .2.1.3.2.1.1.1.2.2.3 0 .1.1.2.1.4v1.5l-1.1 8.3 1-.3c1.1-.4 2.3-.9 3.5-1.3 1.2-.5 2.4-.9 3.5-1.3.1-.1.2-.2.3-.5.1-.2.1-.5.2-.9.1-.3.1-.8.2-1.2.1-.5.1-1 .2-1.6l.1-.8c0-.4.1-.8.1-1.2s.1-.8.1-1.1c.1-.3.2-.6.3-.8.1-.2.3-.4.6-.4.4-.1.7 0 .9.2.2.2.4.5.4.9 0 .2 0 .6-.1 1.2s-.2 1.3-.4 2.1c-.1.3-.1.6-.2.9-.1.3-.1.6-.2.9-.1.3-.1.6-.1.8v.6c0 .1.1.3.1.4.1.1.1.3.1.4 0 .3 0 .6-.1.9s-.1.2-.4.5v.7l-.1.6c0 .4-.1.8-.1 1.3v2.4c0 .4 0 .8-.1 1.2 0 .2-.1.3-.1.4s-.2.2-.3.3c-.1.1-.2.2-.4.2-.1.1-.3.1-.4.1-.2 0-.3 0-.5-.1-.1-.1-.2-.1-.3-.3-.1-.1-.1-.2-.2-.3 0-.1-.1-.2-.1-.3v-3c0-.8.1-1.6.1-2.6h-.1c-.2 0-.4.1-.6.2-.2.1-.5.2-.8.3-.1.1-.3.2-.6.3-.3.1-.6.2-.9.4-.3.1-.7.3-1.1.5-.4.2-.8.3-1.2.5L41 73.4c-.1.3-.2.6-.3 1-.1.4-.1.7-.2 1.1-.1.4-.1.7-.1 1.1 0 .3-.1.7-.1 1 0 .1 0 .2-.1.3-.1.1-.1.2-.2.3-.1.1-.2.2-.3.2s-.2.1-.3.1H39c-.1-.1-.2-.1-.3-.2s-.1-.2-.2-.4c.2-.2.2-.3.2-.4zm27-3.6h-.4c-.1 0-.3-.1-.3-.2-.1-.1-.2-.2-.2-.3s-.1-.2-.1-.4v-.5c0-.2.1-.4.1-.7.1-.3.1-.5.2-.8.1-.3.1-.6.2-.8.1-.3.1-.5.2-.7 0-.2.1-.4.1-.5v-.5c0-.2 0-.4.1-.6 0-.2 0-.5.1-.7s0-.5.1-.8c-.1 0-.2.1-.4.1-.1 0-.3.1-.5.1-.2.1-.5.1-.7.2-.2.1-.5.2-.7.3-.2.1-.5.2-.7.3-.3.1-.5.2-.8.3-.4.2-.9.3-1.3.5s-.9.3-1.4.4c-.1 0-.3 0-.4-.1-.1-.1-.3-.1-.4-.1-.4.3-.5.6-.5.9-.1.3-.2.6-.2.9-.1.3-.1.6-.2.9 0 .3-.1.6-.1.8v2.3c0 .1 0 .2-.1.3-.1.1-.1.2-.2.3l-.3.3c-.1.1-.2.1-.3.1-.2 0-.4 0-.5-.1s-.3-.2-.4-.4c-.1-.2-.2-.4-.2-.6-.1-.2-.1-.4-.1-.6-.1-.5-.1-.9 0-1.4 0-.5.1-1 .2-1.5s.3-1.1.4-1.6c.2-.5.4-1.1.6-1.6.2-.5.4-1.1.7-1.7.3-.6.6-1.3.9-2l1.2-2.1c.4-.7.9-1.3 1.4-1.9.5-.6 1-1 1.6-1.4s1.1-.6 1.7-.7c.6-.1 1.1-.1 1.6.1.4.2.8.4 1.1.8.3.3.5.8.7 1.2s.3 1 .4 1.6c.1.5.1 1 .1 1.6v1.6c0 .5 0 1-.1 1.5 0 .5-.1.9-.1 1.3l-.2 1.6v.3c0 .2 0 .3-.1.5 0 .2-.1.4-.1.6 0 .2-.1.5-.1.7 0 .2-.1.4-.1.6 0 .2-.1.3-.1.5s0 .4-.1.6c0 .2-.1.4-.2.6-.1.2-.2.3-.3.4-.3.1-.5.2-.8.2zm-1.5-14c-.3 0-.7.2-1 .4-.3.2-.6.4-.9.7-.3.3-.6.6-.8.9-.3.3-.5.7-.7 1-.2.4-.4.7-.6 1.1s-.4.7-.5 1c0 0-.1.1-.1.2s-.1.2-.1.3c0 .1-.1.2-.1.3 0 .1-.1.2-.1.3l1.1-.2c.4-.1.9-.2 1.4-.3.5-.1 1-.3 1.6-.4.5-.2 1-.3 1.4-.5.4-.1.7-.3 1-.3v-1.6c0-.2-.1-.5-.1-.7 0-.2-.1-.4-.1-.7-.1-.2-.1-.5-.2-.7-.1-.2-.2-.4-.4-.5s-.5-.3-.8-.3zm8.9-1c0-.2 0-.4.1-.6 0-.2.1-.4.2-.6.1-.2.2-.4.4-.5.2-.1.4-.2.7-.3.3 0 .5 0 .7.1.2.1.4.2.6.4.2.1.4.3.7.7.2.4.5.8.8 1.3.3.5.6 1.1.9 1.8.3.7.7 1.4 1.1 2.1.4.7.8 1.5 1.2 2.3.4.8.9 1.5 1.5 2.2.1.1.2.2.3.4.1.1.2.3.3.4l.3.3c0 .1 0 .1.1.1 0 0 0-.1.1-.2v-.9c0-.2 0-.3.1-.4l.3-1.2c.1-.5.2-1 .3-1.7s.2-1.4.3-2.3c.1-.9.2-2 .4-3.2 0-.3.1-.6.1-1s.1-.8.1-1.2v-3.2c0-.2 0-.3.1-.4s.1-.2.1-.3l.2-.2h.4c.2 0 .3 0 .4.1.2.2.3.4.5.6.2.3.3.6.3 1.1 0 .3.1.6.1 1.1V57c0 .4-.1 1-.1 1.5s-.1 1-.1 1.5c-.1.5-.1.9-.2 1.3s-.1.7-.1 1c-.1.5-.1.9-.2 1.4l-.3 1.5c-.1.5-.2 1.1-.3 1.7-.1.6-.3 1.2-.4 1.9l-.3.9c-.1.3-.2.6-.4.9-.2.3-.3.5-.5.7s-.5.3-.8.3h-.5c-.1 0-.4-.1-.5-.2-.7-.6-1.4-1.3-2-2.2-.6-.8-1.2-1.7-1.7-2.6s-1-1.9-1.4-2.8c-.4-1-.8-1.9-1.2-2.8l-.1-.2c0-.1-.1-.2-.1-.3 0-.1-.1-.2-.1-.3 0-.1-.1-.2-.1-.2 0-.1-.1-.1-.1-.1s-.1.1-.1.3c0 .2-.1.4-.1.6 0 .2-.1.4-.1.6s0 .3-.1.4c0 .2-.1.5-.1.9-.1.4-.1.8-.2 1.3s-.1 1-.2 1.5-.2 1-.2 1.5c-.1.5-.1.9-.2 1.4-.1.4-.1.8-.2 1 0 .2-.1.5-.1.8-.1.3-.1.6-.2 1-.1.3-.1.6-.1.9s-.1.4-.1.5c0 .3-.1.5-.3.7-.2.2-.3.3-.5.3-.1 0-.2 0-.4-.1-.1-.1-.2-.1-.3-.2l-.3-.3c-.1-.1-.1-.2-.1-.3v-.3c0-.1 0-.4.1-.7l.1-1.2 1.5-11.6zm27.6 1.7c-.1 0-.2.1-.5.2-.2.1-.5.2-.7.4-.3.1-.6.3-.9.5-.3.2-.6.3-.9.5-.3.1-.5.3-.7.4-.2.1-.3.2-.4.2-.1 0-.1 0-.2.1s-.2.1-.2.1c-.1 0-.2.1-.2.1-.1 0-.1.1-.2.1h-.4c-.1 0-.3-.2-.4-.3l-.3-.3c-.1-.1-.1-.3-.1-.4 0-.3 0-.6.2-.8.1-.2.3-.4.5-.5.2-.1.5-.2.7-.3.2-.1.5-.1.6-.2 0 0 .1 0 .1-.1.1 0 .1-.1.2-.1s.2-.1.2-.1c.1 0 .1-.1.2-.1.1-.1.3-.2.6-.4s.6-.3.9-.5c.3-.2.6-.3 1-.5.3-.1.6-.2.8-.3h.7c.2.1.4.1.6.3.2.1.3.3.4.5.1.2.2.4.2.7v.7c-.1.9-.3 1.7-.7 2.5s-.8 1.5-1.3 2.2-1.1 1.3-1.8 1.8c-.7.6-1.4 1-2.1 1.4-.1.1-.3.1-.4.2-.2.1-.4.2-.5.2s-.4.1-.6.2c-.2.1-.3.1-.5.1-.3 0-.5.1-.7.1H93c-.1 0-.2 0-.3-.1-.5-.1-.9-.3-1.3-.5s-.7-.5-1-.8c-.3-.3-.6-.7-.8-1.1s-.3-.9-.4-1.4c-.1-.5-.1-1.1 0-1.8.1-.6.2-1.3.5-1.9.2-.7.5-1.3.8-2 .3-.7.7-1.3 1.1-1.9.4-.6.8-1.2 1.3-1.7s.9-1 1.4-1.5c.3-.3.6-.5.9-.8.3-.3.7-.5 1-.8.4-.2.7-.4 1.1-.6.4-.2.8-.3 1.1-.3h.9c.3 0 .6.1.9.3.3.1.5.3.7.5.2.2.3.5.3.7v.7c0 .2-.1.3-.1.4 0 .1-.1.2-.1.2-.1 0-.1 0-.2.1-.2 0-.4 0-.6-.1-.2-.1-.3-.2-.5-.3-.2-.1-.3-.2-.4-.3-.1-.1-.3-.1-.5-.1h-.3c-.6.2-1.1.5-1.7 1L95 56.6c-.6.6-1.1 1.2-1.6 1.9s-.9 1.4-1.3 2.1c-.4.7-.6 1.4-.8 2.1-.2.7-.2 1.4-.1 2 .1.5.3.9.5 1.2.3.3.7.6 1.2.9.3.1.5.2.8.3.3.1.6.1.8 0 .3 0 .6-.1.9-.3.3-.2.6-.3.9-.5.3-.2.6-.4.8-.6.3-.2.5-.4.7-.6.7-.6 1.3-1.3 1.7-2.1.4-.8.8-1.6 1-2.4v-.1c.2.2.2.2.2.1zm4.4 6.6v-.8c.1-1 .3-2.1.4-3.1.2-1 .4-2 .5-3 .1-1 .2-1.8.3-2.5.1-.7.2-1.3.2-1.8.1-.5.1-.9.2-1.3s.1-.7.2-1.1c.1-.2.1-.4.2-.7l.3-.6c.1-.2.2-.4.3-.5.1-.1.3-.2.4-.2h.7c.2.1.3.2.3.2l.2.4c.1 0 .3-.1.4-.1.2-.1.3-.1.5-.2s.3-.1.5-.2.3-.1.3-.2c.5-.2.9-.4 1.3-.5s.8-.3 1.2-.4c.4-.1.7-.2 1.1-.3.3-.1.7-.1 1-.2.3-.1.6-.1.8-.1.2 0 .4 0 .5.1.1 0 .2.1.3.2.1.1.1.2.1.3v.3c0 .1-.1.2-.2.3-.1.1-.2.2-.4.3-.2.1-.4.2-.6.2-.1 0-.2.1-.5.2-.2.1-.5.2-.8.2s-.5.2-.8.3-.4.1-.5.2c0 0-.1.1-.3.1l-.6.3c-.2.1-.5.2-.7.3-.3.1-.5.2-.8.4-.3.1-.5.2-.7.3-.2.1-.4.2-.5.3-.4.2-.7.5-1 .9-.2.3-.4.7-.5 1.1 0 .1 0 .2-.1.4 0 .2-.1.4-.1.6 0 .2-.1.4-.1.7 0 .2-.1.5-.1.7 0 .2-.1.4-.1.6 0 .2-.1.3-.1.4v.4c.1 0 .3-.1.7-.3.3-.2.7-.3 1.2-.6.4-.2.9-.5 1.4-.7s1-.5 1.5-.7c.5-.2.9-.4 1.3-.6.4-.2.6-.2.8-.3.3 0 .4 0 .5.1.1.1.2.2.2.3 0 .3 0 .5-.2.7l-.6.6c-.1.1-.2.1-.5.3-.2.1-.5.2-.7.4-.3.1-.5.3-.8.4s-.4.2-.5.3c-.7.4-1.2.7-1.7 1-.4.2-.8.5-1 .6-.3.2-.5.3-.6.4-.1.1-.3.2-.4.2s-.3.1-.4.2c-.2.1-.4.1-.6.3 0 .2-.1.4-.1.7 0 .3-.1.7-.1 1 0 .4-.1.7-.1 1v.6c0 .1.1.2.1.3 0 .1.1.1.2.1h.3c.4-.1.8-.2 1.3-.3.5-.2 1-.4 1.4-.6.4-.2.8-.5 1.1-.7.3-.2.6-.5.9-.7s.6-.4.8-.6c.3-.2.6-.3.9-.3h.6c.1 0 .2.1.2.1.1.1.1.1.1.2 0 .2-.1.4-.2.7-.2.2-.4.5-.6.7-.3.2-.5.5-.9.7-.3.2-.7.5-1 .7-.3.2-.7.4-1 .6-.3.2-.6.3-.9.5-.6.3-1.3.6-1.9.8-.6.2-1.2.3-1.7.4-.6.1-1 0-1.3-.1-.1-.5-.3-.9-.4-1.3zm29.5-5.4c.1-1.3.2-2.6.4-3.9.2-1.3.3-2.6.5-3.9.1-.5.1-1 .2-1.5 0-.4.1-.8.1-1.2v-1c0-.3 0-.5-.1-.8v-.4c-.1 0-.2.1-.5.2s-.5.3-.9.5c-.3.2-.7.4-1 .6-.4.2-.7.4-1 .7-.2.2-.4.3-.6.4-.2.1-.3.2-.4.3-.1.1-.2.1-.3.2-.1 0-.2.1-.3.1-.2 0-.4 0-.6-.2-.2-.2-.3-.4-.4-.7v-.4c0-.1.1-.2.1-.4.1-.1.1-.2.2-.3s.2-.2.4-.3c1.7-1.3 3.5-2.3 5.4-3 1.9-.7 3.8-1.3 5.7-1.5.2 0 .3 0 .6-.1.2 0 .4 0 .7-.1h1.3c.2 0 .3.1.5.3.1.1.2.3.3.5v.4c0 .1 0 .3-.1.4-.1.1-.1.2-.2.3-.1.1-.2.1-.4.2h-.9c-.4 0-.7 0-1.1.1-.7.1-1.4.2-2.1.4-.7.1-1.4.3-2.1.6l-.1.1v.2c0 .4.1.8.1 1.1v.9c0 .3-.1.7-.1 1-.1.4-.1.8-.2 1.3s-.2 1.1-.3 1.8c-.1.7-.2 1.6-.3 2.6l-.2 2.2c-.1.5-.1 1-.1 1.4v1.2c0 .1-.1.3-.3.4-.2.1-.4.2-.7.3-.2 0-.3 0-.4-.1-.1-.1-.3-.2-.4-.3-.1-.1-.2-.3-.2-.4-.2.1-.2 0-.2-.2zm9.5.1v-.7c0-.2 0-.3.1-.4v-.3l2.3-15.5c0-.1.1-.1.1-.2l.1-.1c.1 0 .1-.1.2-.1h.6c.1 0 .2.1.3.2.1.1.1.2.2.3 0 .1.1.2.1.4V47l-1.1 8.3 1-.3c1.1-.4 2.3-.9 3.5-1.3 1.2-.5 2.4-.9 3.5-1.3.1-.1.2-.2.3-.5.1-.2.1-.5.2-.9.1-.3.1-.8.2-1.2s.1-1 .2-1.6l.1-.8c0-.4.1-.8.1-1.2s.1-.8.1-1.1.2-.6.3-.8c.1-.2.3-.4.6-.4.4-.1.7 0 .9.2.2.2.4.5.4.9 0 .2 0 .6-.1 1.2s-.2 1.3-.4 2.1c-.1.3-.1.6-.2.9-.1.3-.1.6-.2.9-.1.3-.1.6-.1.8v.6c0 .1.1.3.1.4.1.1.1.3.1.4 0 .3 0 .6-.1.9s-.4.5-.6.8v.7l.1.3c0 .4-.1.8-.1 1.3v2.4c0 .4 0 .8-.1 1.2 0 .2-.1.3-.1.4l-.3.3c-.1.1-.2.2-.4.2s-.3.1-.4.1c-.2 0-.3 0-.5-.1-.1-.1-.2-.1-.3-.3-.1-.1-.1-.2-.2-.3s-.1-.2-.1-.3v-3c0-.8.1-1.6.1-2.6h-.1c-.2 0-.4.1-.6.2-.2.1-.5.2-.8.3-.1.1-.3.2-.6.3-.3.1-.6.2-.9.4-.3.1-.7.3-1.1.5s-.8.3-1.2.5l-2.9 1.3c-.1.3-.2.6-.3 1-.1.4-.1.7-.2 1.1-.1.4-.1.7-.1 1.1 0 .3-.1.7-.1 1 0 .1 0 .2-.1.3-.1.1-.1.2-.2.3-.1.1-.2.2-.3.2-.1.1-.2.1-.3.1h-.4c-.1-.1-.2-.1-.3-.2-.1-.1-.1-.2-.2-.4s.3-.3.2-.4zm17.1-3v-.8c.1-1 .3-2.1.4-3.1.2-1 .4-2 .5-3 .1-1 .2-1.8.3-2.5.1-.7.2-1.3.2-1.8.1-.5.1-.9.2-1.3s.1-.7.2-1.1c.1-.2.1-.4.2-.7l.3-.6c.1-.2.2-.4.3-.5.1-.1.3-.2.4-.2h.7c.2.1.3.2.3.2l.2.4c.1 0 .3-.1.4-.1.2-.1.3-.1.5-.2s.3-.1.5-.2.3-.1.3-.2c.5-.2.9-.4 1.3-.5.4-.2.8-.3 1.2-.4.4-.1.7-.2 1.1-.3.3-.1.7-.1 1-.2.3-.1.6-.1.8-.1.2 0 .4 0 .5.1.1 0 .2.1.3.2.1.1.1.2.1.3v.3c0 .1-.1.2-.2.3-.1.1-.2.2-.4.3-.2.1-.4.2-.6.2-.1 0-.2.1-.5.2-.2.1-.5.2-.8.2-.3.1-.5.2-.8.3-.2.1-.4.1-.5.2 0 0-.1.1-.3.1l-.6.3c-.2.1-.5.2-.7.3-.3.1-.5.2-.8.4-.3.1-.5.2-.7.3-.2.1-.4.2-.5.3-.4.2-.7.5-1 .9s-.4.7-.5 1.1c0 .1 0 .2-.1.4 0 .2-.1.4-.1.6 0 .2-.1.4-.1.7 0 .2-.1.5-.1.7 0 .2-.1.4-.1.6s-.1.3-.1.4v.4c.1 0 .3-.1.7-.3.3-.2.7-.3 1.2-.6.4-.2.9-.5 1.4-.7.5-.3 1-.5 1.5-.7.5-.2.9-.4 1.3-.6s.6-.2.8-.3c.3 0 .4 0 .5.1s.2.2.2.3c0 .3 0 .5-.2.7l-.6.6c-.1.1-.2.1-.5.3-.2.1-.5.2-.7.4-.3.1-.5.3-.8.4-.2.1-.4.2-.5.3-.7.4-1.2.7-1.7 1-.4.2-.8.5-1 .6-.3.2-.5.3-.6.4-.1.1-.3.2-.4.2s-.3.1-.4.2c-.2.1-.4.1-.6.3 0 .2-.1.4-.1.7 0 .3-.1.7-.1 1 0 .4-.1.7-.1 1v.6c0 .1.1.2.1.3 0 .1.1.1.2.1h.3c.4-.1.8-.2 1.3-.3s1-.4 1.4-.6c.4-.2.8-.5 1.1-.7.3-.2.6-.5.9-.7.3-.2.6-.4.8-.6.3-.2.6-.3.9-.3h.6c.1 0 .2.1.2.1.1.1.1.1.1.2 0 .2-.1.4-.2.7-.2.2-.4.5-.6.7-.3.2-.5.5-.9.7-.3.2-.7.5-1 .7-.3.2-.7.4-1 .6-.3.2-.6.3-.9.5-.6.3-1.3.6-1.9.8-.6.2-1.2.3-1.7.4-.6.1-1 0-1.3-.1-.1-.5-.3-.9-.4-1.3zm25.4-8.4c.1-.8.1-1.5.2-2.1.1-.6.2-1.2.3-1.7l.3-1.5c.1-.5.2-1 .2-1.5l.1-.6v-1.8c0-.2 0-.4.1-.6.1-.2.1-.3.3-.5.1-.1.3-.2.5-.2h.6c.2 0 .3.1.4.3.1.1.2.3.3.4s.1.3.1.5v.9c0 .3-.1.8-.2 1.2-.1.5-.3 1-.4 1.6-.1.6-.3 1.2-.4 1.8l-.3 2.1c0 .4-.1.9-.1 1.3 0 .5 0 .9.1 1.3 0 .3.1.6.2.9.1.3.2.5.4.7.2.2.4.3.6.4.2.1.5.1.9.1.3 0 .5-.1.8-.2s.6-.2 1-.5c.5-.3 1-.8 1.5-1.3s.9-1 1.2-1.6c.4-.6.7-1.2 1-1.9.3-.7.5-1.3.7-2 .2-.7.4-1.4.5-2.1l.3-2.1v-1.6c0-.3 0-.5-.1-.8 0-.3-.1-.6-.1-1 0-.3 0-.6.1-.8.1-.2.3-.4.6-.4.2 0 .4 0 .5.2.2.1.3.3.4.5.1.2.2.4.3.7.1.2.1.5.2.6.1.4.1.8.1 1.2 0 .4 0 .9-.1 1.3-.1.9-.2 1.8-.4 2.7-.2.9-.4 1.8-.7 2.7-.3.9-.7 1.8-1.1 2.6-.4.9-1 1.7-1.6 2.5-.3.4-.6.8-1 1.2-.4.4-.8.7-1.2 1.1-.4.3-.8.6-1.3.8-.5.2-.9.4-1.4.4-.7.1-1.3.1-1.8 0s-1-.3-1.4-.6c-.4-.3-.7-.7-.9-1.1-.2-.4-.4-1-.5-1.5 0-.3-.1-.6-.1-.9.3-.5.3-.8.3-1.1zm16.2-3.5c0-.3.1-.6.1-1s.1-.7.1-1.1c.1-.4.1-.8.2-1.2.1-.4.1-.8.2-1.2.1-.4.1-.7.1-1 0-.3.1-.6.1-.8.1-.5.1-1 .2-1.5s.1-1 .1-1.6c.1-.3.3-.5.5-.7.2-.2.5-.3.8-.3.3.1.5.2.6.4.2.2.3.4.3.7v.7c0 .3-.1.5-.1.8-.1.3-.1.6-.2 1-.1.3-.1.7-.2 1-.1.6-.2 1.3-.4 1.9-.1.6-.2 1.3-.3 2 0 .2-.1.4-.1.6 0 .2-.1.4-.1.6 0 .2-.1.5-.1.7 0 .3-.1.6-.1.9 0 .4-.1.8-.1 1.2v2.4c0 .4 0 .8-.1 1.3 0 .2-.1.3-.1.4l-.3.3c-.1.1-.2.2-.4.2-.1.1-.2.1-.4.1h-.3c-.1 0-.2 0-.3-.1l-.3-.3c-.1-.1-.1-.2-.1-.4v-.2l.7-5.8zm16.9 1.4c.3.1.5.1.8.2.3.1.6.2.9.2.3.1.6.1.9.1h1l1.2-.3 1.2-.6c.4-.2.7-.5 1-.9.3-.3.6-.7.9-1.1.3-.4.5-.8.7-1.2s.3-.6.4-.9c.1-.3.2-.5.2-.7v-.5c0-.2-.1-.3-.3-.5-.1-.1-.3-.2-.6-.3-.2-.1-.5-.1-.7-.1-.3 0-.6 0-.8.1-.2 0-.4.1-.6.1-.2 0-.5.1-.7.1-.2 0-.5.1-.7.1-.2 0-.4.1-.6.1h-.8c-.3 0-.5-.1-.8-.2-.3-.1-.5-.2-.8-.4-.2-.2-.5-.4-.7-.7-.1-.1-.1-.2-.2-.3-.1-.1-.1-.3-.1-.4v-1c0-.4.2-.8.4-1.2.2-.4.4-.8.7-1.2l.9-1.2c.3-.4.7-.8 1.1-1.1.4-.4.7-.7 1.1-1 .4-.3.7-.6 1-.8.5-.3.9-.6 1.4-.7.5-.2 1-.3 1.5-.4h.9c.3 0 .5.1.8.2.2.1.4.3.6.5.2.2.2.4.3.7v.4c0 .1-.1.2-.1.3l-.2.2c-.1 0-.1.1-.2.1h-.6c-.2 0-.3 0-.5-.1-.2 0-.3-.1-.5-.1h-.5c-.5.1-1.1.3-1.6.6s-1 .7-1.5 1.1c-.5.4-.9.9-1.4 1.4-.4.5-.8 1-1.1 1.4-.2.2-.3.5-.3.7-.1.2-.1.4-.1.6 0 .3.2.5.5.6s.6.2.9.1c.2 0 .4-.1.7-.1.3 0 .5-.1.8-.1.3-.1.5-.1.8-.1.2 0 .5-.1.7-.1.5-.1.9-.1 1.4 0 .4.1.8.2 1.2.4.4.2.7.5.9.8.3.3.4.8.5 1.2v.9c0 .3-.1.6-.2 1-.1.3-.2.7-.4 1s-.3.7-.5 1c-.3.6-.7 1.1-1.1 1.7-.4.5-.9 1-1.4 1.4s-1.1.8-1.6 1.1c-.6.3-1.2.5-1.9.6-.3 0-.6.1-.9.1-.3 0-.6 0-.9-.1-.3-.1-.6-.1-.9-.3-.3-.1-.5-.3-.8-.4l-.6-.6c-.1-.2-.2-.5-.3-.7v-.4c-.1-.2 0-.2.2-.3zm18.9-2c.1-1.3.2-2.6.4-3.9.2-1.3.3-2.6.5-3.9.1-.5.1-1 .2-1.5 0-.4.1-.8.1-1.2v-1c0-.3 0-.5-.1-.8v-.4c-.1 0-.2.1-.5.2-.2.1-.5.3-.9.5-.3.2-.7.4-1 .6-.4.2-.7.4-1 .7-.2.2-.4.3-.6.4-.2.1-.3.2-.4.3-.1.1-.2.1-.3.2s-.2.1-.3.1c-.2 0-.4 0-.6-.2-.2-.2-.3-.4-.4-.7v-.4c0-.1.1-.2.1-.4s.1-.2.2-.3c.1-.1.2-.2.4-.3 1.7-1.3 3.5-2.3 5.4-3 1.9-.7 3.8-1.3 5.7-1.5.2 0 .3 0 .6-.1.2 0 .4 0 .7-.1h1.3c.2 0 .3.1.5.3.1.1.2.3.3.5v.4c0 .1 0 .3-.1.4-.1.1-.1.2-.2.3-.1.1-.2.1-.4.2h-.9c-.4 0-.7 0-1.1.1-.7.1-1.4.2-2.1.4s-1.4.3-2.1.6l-.1.1v.2c0 .4.1.8.1 1.1v.9c0 .3-.1.7-.1 1-.1.4-.1.8-.2 1.3s-.2 1.1-.3 1.8-.2 1.6-.3 2.6l-.2 2.2c-.1.5-.1 1-.1 1.4v1.2c0 .1-.1.3-.3.4-.2.1-.4.2-.7.3-.2 0-.3 0-.4-.1-.1-.1-.3-.2-.4-.3-.1-.1-.2-.3-.2-.4-.2.2-.2 0-.2-.2zm11.2 2c0-.2 0-.4.1-.6l.3-.6c.1-.2.3-.5.5-.7.2-.2.4-.5.6-.8.4-.5.8-1 1.2-1.6.4-.6.8-1.1 1.2-1.7.2-.3.3-.5.4-.6.1-.2.2-.3.2-.4 0-.1.1-.2.1-.3v-.2c-.4-.4-.7-.7-1-1.2-.3-.4-.6-.9-.9-1.4-.3-.5-.5-1-.7-1.5-.2-.5-.4-1-.7-1.5-.2-.4-.4-.9-.6-1.3-.2-.4-.4-.8-.6-1.1-.2-.2-.3-.5-.5-.7-.1-.3-.2-.5-.3-.9v-.5c0-.2 0-.4.1-.6.1-.2.2-.3.3-.5.1-.1.3-.2.5-.2s.4 0 .6.1c.2.1.4.3.6.5s.3.4.5.7c.1.2.3.5.4.7.1.3.3.7.4 1.2.2.5.4.9.5 1.4.2.5.4.9.5 1.4.2.4.3.8.4 1 .1.3.3.6.5.9.2.3.3.5.4.7.1.2.3.3.4.5.1.1.2.2.3.1.1 0 .2-.1.3-.4.5-.9 1-1.9 1.5-2.9l1.5-3c.2-.4.3-.7.5-1 .1-.3.3-.6.4-.9.1-.3.2-.5.3-.8.1-.3.2-.5.2-.8l.1-1.2c0-.1 0-.3.1-.4.1-.1.1-.3.2-.4l.3-.3c.1-.1.2-.1.4-.2h.5c.2.1.3.1.4.3.1.1.2.2.3.4.1.2.1.3.1.5v.7c0 .3-.1.6-.2.8l-.3.9c-.1.3-.2.6-.4.8-.8 1.7-1.7 3.4-2.6 5.1-.9 1.7-1.8 3.4-2.7 5-.8 1.4-1.6 2.7-2.4 4-.8 1.2-1.5 2.3-2.2 3.2-.1.2-.3.4-.5.6-.2.2-.4.3-.6.3h-.3c-.1 0-.2-.1-.2-.2-.1-.1-.1-.2-.2-.3-.1.1-.2 0-.2-.1zm14.9-9.9c.2-1.1.4-2.1.5-3.1.2-1 .3-1.9.4-2.7.1-.8.2-1.6.2-2.2V29c0-.4.2-.7.3-.9.2-.2.4-.4.7-.4.2 0 .3 0 .5.1.1.1.3.2.4.3.1.1.2.3.2.4.1.2.1.3.1.5v.6c-.1.7-.2 1.4-.3 2.2-.1.8-.3 1.5-.4 2.3-.1.8-.3 1.6-.4 2.4-.1.8-.2 1.6-.3 2.3l-.1.8c0 .4-.1.8-.1 1.1v.9c0 .1.1.2.1.3.1.1.1.1.3.1.3 0 .7-.1 1-.3.4-.2.8-.3 1.2-.6s.8-.4 1.2-.7c.4-.2.8-.5 1.1-.7.2-.1.3-.2.5-.3.1-.1.3-.2.5-.3s.4-.3.8-.5c.3-.2.8-.5 1.3-.8.1-.1.2-.1.3-.1s.1-.1.2-.1h.3c.1 0 .2.1.2.1.1.1.1.1.1.2s.1.2.1.3v.7c-.1.2-.2.3-.3.4l-.4.4c-.1.1-.3.2-.4.3-.1.1-.3.1-.3.2-.1.1-.3.1-.4.2l-.6.3c-.2.1-.4.2-.7.4-.2.1-.5.2-.7.4-.2.1-.4.2-.5.3-.2.1-.3.1-.3.2-.3.2-.6.4-1 .6-.4.2-.7.4-1.1.6-.4.2-.7.4-1 .5-.3.1-.6.2-.8.3-.3 0-.5.1-.7 0s-.3-.1-.5-.1c-.1-.1-.3-.1-.4-.2-.1-.1-.3-.2-.6-.3-.2-.1-.4-.2-.5-.4s-.2-.4-.2-.7v-1.4c0-.2 0-.3.1-.5l.4-1.9zm13.2 3.1v-.8c.1-1 .3-2.1.4-3.1.2-1 .4-2 .5-3 .1-1 .2-1.8.3-2.5.1-.7.2-1.3.2-1.8.1-.5.1-.9.2-1.3s.1-.7.2-1.1c.1-.2.1-.4.2-.7l.3-.6c.1-.2.2-.4.3-.5.1-.1.3-.2.4-.2h.7c.2.1.3.2.3.2l.2.4c.1 0 .3-.1.4-.1.2-.1.3-.1.5-.2s.3-.1.5-.2.3-.1.3-.2c.5-.2.9-.4 1.3-.5s.8-.3 1.2-.4c.4-.1.7-.2 1.1-.3.3-.1.7-.1 1-.2.3-.1.6-.1.8-.1.2 0 .4 0 .5.1.1 0 .2.1.3.2.1.1.1.2.1.3v.3c0 .1-.1.2-.2.3-.1.1-.2.2-.4.3-.2.1-.4.2-.6.2-.1 0-.2.1-.5.2-.2.1-.5.2-.8.2-.3.1-.5.2-.8.3-.2.1-.4.1-.5.2 0 0-.1.1-.3.1l-.6.3c-.2.1-.5.2-.7.3-.3.1-.5.2-.8.4-.3.1-.5.2-.7.3-.2.1-.4.2-.5.3-.4.2-.7.5-1 .9-.2.3-.4.7-.5 1.1 0 .1 0 .2-.1.4 0 .2-.1.4-.1.6 0 .2-.1.4-.1.7 0 .2-.1.5-.1.7 0 .2-.1.4-.1.6s-.1.3-.1.4v.4c.1 0 .3-.1.7-.3.3-.2.7-.3 1.2-.6.4-.2.9-.5 1.4-.7.5-.3 1-.5 1.5-.7.5-.2.9-.4 1.3-.6.4-.2.6-.2.8-.3.3 0 .4 0 .5.1s.2.2.2.3c0 .3 0 .5-.2.7l-.6.6c-.1.1-.2.1-.5.3-.2.1-.5.2-.7.4-.3.1-.5.3-.8.4-.2.1-.4.2-.5.3-.7.4-1.2.7-1.7 1-.4.2-.8.5-1 .6-.3.2-.5.3-.6.4-.1.1-.3.2-.4.2-.1.1-.3.1-.4.2-.2.1-.4.1-.6.3 0 .2-.1.4-.1.7 0 .3-.1.7-.1 1 0 .4-.1.7-.1 1v.6c0 .1.1.2.1.3s.1.1.2.1h.3c.4-.1.8-.2 1.3-.3.5-.2 1-.4 1.4-.6.4-.2.8-.5 1.1-.7.3-.2.6-.5.9-.7.3-.2.6-.4.8-.6.3-.2.6-.3.9-.3h.6c.1 0 .2.1.2.1.1.1.1.1.1.2 0 .2-.1.4-.2.7-.2.2-.4.5-.6.7s-.5.5-.9.7c-.3.2-.7.5-1 .7-.3.2-.7.4-1 .6-.3.2-.6.3-.9.5-.6.3-1.3.6-1.9.8-.6.2-1.2.3-1.7.4-.6.1-1 0-1.3-.1-.1-.5-.3-.8-.4-1.3zM40.4 100.4c.1.5 0 1.1-.2 1.7-.2.6-.7 1.2-1.3 1.8-.2.2-.4.4-.7.6-.3.2-.6.4-.9.7-.3.2-.7.5-1.1.7-.4.2-.8.4-1.1.6-.4.2-.8.3-1.1.5-.4.1-.7.2-1.1.3h-.4c-.1 0-.2 0-.4-.1-.1-.1-.2-.1-.3-.2l-.4-.4c-.2.2-.3.3-.5.4-.2.1-.4.2-.6.2h-.5c-.1 0-.1-.1-.2-.1 0-.1-.1-.1-.1-.2s-.1-.1-.1-.2c-.1-.4-.1-.7 0-1.1.1-.4.1-.7.2-1.1l.3-2.1c.1-.7.2-1.5.3-2.2s.2-1.4.3-2.2.2-1.4.2-2l.1-1.3v-.2c0-.1 0-.2-.1-.3 0-.1-.1-.2-.1-.3v-.3c0-.1 0-.3.1-.5 0-.2.1-.4.2-.5.1-.2.2-.3.3-.4.1-.1.2-.2.4-.2h.5c.2 0 .4 0 .5-.1h.2c.1 0 .2 0 .3-.1.1 0 .2-.1.4-.2s.4-.2.7-.3c.4-.2.8-.4 1.1-.5.3-.2.7-.3 1-.4l.9-.3c.3-.1.6-.1.9-.2.4-.1.8-.1 1.2-.1.4 0 .7.1 1 .2.3.1.6.3.8.6.2.2.3.6.4.9.1.7 0 1.3-.3 1.9-.3.6-.7 1.1-1.3 1.7-.6.5-1.3 1.1-2.1 1.6S36 97.8 35 98.3c.9 0 1.7.1 2.3.1.7.1 1.2.2 1.7.4s.8.4 1 .7c.2.2.3.5.4.9zm-4-.4h-4.2c-.1 1-.3 1.9-.4 2.7-.1.9-.2 1.7-.3 2.6h1.4c.3-.1.6-.2 1-.3.3-.1.7-.3 1.1-.5.4-.2.7-.4 1.1-.6.4-.2.7-.5 1.1-.7.1-.1.3-.2.4-.4.1-.1.3-.3.4-.5.1-.2.2-.3.2-.5.1-.2.1-.4 0-.5 0-.3-.2-.5-.6-.7-.2-.5-.6-.6-1.2-.6zm-3.9-2.1c.4-.2.8-.4 1.2-.7.4-.2.9-.5 1.3-.8.5-.3.9-.6 1.4-.9.5-.3.9-.6 1.4-1 .2-.1.3-.3.5-.4.2-.2.3-.3.4-.5l.3-.6c.1-.2.1-.4.1-.5 0-.1-.1-.2-.1-.3l-.3-.3c-.1-.1-.3-.1-.5-.1h-.7l-1.2.3c-.5.2-.9.3-1.3.6s-.8.4-1.1.6-.5.4-.6.6c0 0 0 .1-.1.3 0 .1 0 .3-.1.4 0 .2-.1.3-.1.5 0 .1-.1.3-.1.3v.4c0 .2 0 .3-.1.6 0 .2-.1.5-.1.7-.1.2-.1.5-.2.8zm12.1 8.7c0-.2 0-.4.1-.6l.3-.6c.1-.2.3-.5.5-.7.2-.2.4-.5.6-.8.4-.5.8-1 1.2-1.6.4-.6.8-1.1 1.2-1.7.2-.2.3-.5.4-.6.1-.2.2-.3.2-.4 0-.1.1-.2.1-.3v-.2c-.4-.4-.7-.7-1-1.2-.3-.4-.6-.9-.9-1.4-.3-.5-.5-1-.7-1.5-.2-.5-.4-1-.7-1.5-.2-.4-.4-.9-.6-1.3-.2-.4-.4-.8-.6-1.1-.2-.2-.3-.5-.5-.7-.1-.3-.2-.5-.3-.9V89c0-.2 0-.4.1-.6.1-.2.2-.3.3-.5.1-.1.3-.2.5-.2s.4 0 .6.1c.2.1.4.3.6.5.2.2.3.4.5.7.1.2.3.5.4.7.1.3.3.7.4 1.2.2.5.4.9.5 1.4s.4.9.5 1.4c.2.4.3.8.4 1 .1.3.3.6.5.9.2.3.3.5.4.7.1.2.3.3.4.5.1.1.2.2.3.1.1 0 .2-.1.3-.4.5-.9 1-1.9 1.5-2.9l1.5-3c.2-.4.3-.7.5-1 .1-.3.3-.6.4-.9.1-.3.2-.5.3-.8s.2-.5.2-.8l.1-1.2c0-.1 0-.3.1-.4.1-.1.1-.3.2-.4l.3-.3c.1-.1.2-.1.4-.2h.5c.2.1.3.1.4.3.1.1.2.2.3.4.1.2.1.3.1.5v.7c0 .3-.1.6-.2.8l-.3.9c-.1.3-.2.6-.3.8-.8 1.7-1.7 3.4-2.6 5.1-.9 1.7-1.8 3.4-2.7 5-.8 1.4-1.6 2.7-2.4 4s-1.5 2.3-2.2 3.2c-.1.2-.3.4-.5.6-.2.2-.4.3-.6.3h-.3c-.1 0-.2-.1-.2-.2-.1-.1-.1-.2-.2-.3-.2.2-.2.1-.3-.1zm25.1-8c.3.1.5.1.8.2.3.1.6.2.9.2.3.1.6.1.9.1h1l1.2-.3 1.2-.6c.4-.2.7-.5 1-.9.3-.3.6-.7.9-1.1.3-.4.5-.8.7-1.2.2-.3.3-.6.4-.9.1-.3.2-.5.2-.7v-.5c0-.2-.1-.3-.3-.5-.1-.1-.3-.2-.6-.3-.2-.1-.5-.1-.7-.1-.3 0-.6 0-.8.1-.2 0-.4.1-.6.1-.2 0-.5.1-.7.1-.2 0-.5.1-.7.1-.2 0-.4.1-.6.1h-.8c-.3 0-.5-.1-.8-.2-.3-.1-.5-.2-.8-.4-.2-.2-.5-.4-.7-.7-.1-.1-.1-.2-.2-.4-.1-.1-.1-.3-.1-.4v-1c0-.4.2-.8.4-1.2.2-.4.4-.8.7-1.2l.9-1.2c.3-.4.7-.8 1.1-1.1.4-.4.7-.7 1.1-1 .4-.3.7-.6 1-.8.5-.3.9-.6 1.4-.7.5-.2 1-.3 1.5-.4h.9c.3 0 .5.1.8.2.2.1.4.3.6.5.2.2.2.4.3.7v.4c0 .1-.1.2-.1.3 0 .1-.1.1-.2.2-.1 0-.1.1-.2.1h-.6c-.2 0-.3 0-.5-.1-.2 0-.3-.1-.5-.1h-.5c-.5.1-1.1.3-1.6.6s-1 .7-1.5 1.1c-.5.4-.9.9-1.4 1.4-.4.5-.8 1-1.1 1.4-.2.2-.3.5-.3.7s-.1.4-.1.6c0 .3.2.5.5.6.3.1.6.2.9.1.2 0 .4-.1.7-.1.3 0 .5-.1.8-.1.3 0 .5-.1.8-.1.2 0 .5-.1.7-.1.5-.1.9-.1 1.4 0 .4.1.8.2 1.2.4s.7.5.9.8c.3.3.4.8.5 1.2v.9c0 .3-.1.6-.2 1s-.2.7-.4 1c-.2.3-.3.7-.5 1-.3.6-.7 1.1-1.1 1.7-.4.5-.9 1-1.4 1.4-.5.4-1.1.8-1.6 1.1-.6.3-1.2.5-1.9.6-.3 0-.6.1-.9.1-.3 0-.6 0-.9-.1-.3-.1-.6-.1-.9-.3-.3-.1-.5-.3-.8-.4l-.6-.6c-.1-.2-.2-.5-.3-.7v-.4c0-.1.1-.2.2-.2zm14.4-.4v-.8c.1-1 .3-2.1.4-3.1.2-1 .4-2 .5-3 .1-1 .2-1.8.3-2.5.1-.7.2-1.3.2-1.8.1-.5.1-.9.2-1.3s.1-.7.2-1.1c.1-.2.1-.4.2-.7s.2-.4.3-.6.2-.4.3-.5c.1-.1.3-.2.4-.2h.7c.2.1.3.2.3.2l.2.4c.1 0 .3-.1.4-.1.2-.1.3-.1.5-.2s.3-.1.5-.2.3-.1.3-.2c.5-.2.9-.4 1.3-.5.4-.2.8-.3 1.2-.4.4-.1.7-.2 1.1-.3.3-.1.7-.1 1-.2.3-.1.6-.1.8-.1.2 0 .4 0 .5.1.1 0 .2.1.3.2.1.1.1.2.1.3v.3c0 .1-.1.2-.2.3-.1.1-.2.2-.4.3-.2.1-.4.2-.6.2-.1 0-.2.1-.5.2-.2.1-.5.2-.8.2-.3.1-.5.2-.8.3-.2.1-.4.1-.5.2 0 0-.1.1-.3.1l-.6.3c-.2.1-.5.2-.7.3-.3.1-.5.2-.8.4-.3.1-.5.2-.7.3-.2.1-.4.2-.5.3-.4.2-.7.5-1 .9-.2.3-.4.7-.5 1.1 0 .1 0 .2-.1.4s-.1.4-.1.6c0 .2-.1.4-.1.7 0 .2-.1.5-.1.7 0 .2-.1.4-.1.6 0 .2-.1.3-.1.4v.4c.1 0 .3-.1.7-.3.3-.2.7-.3 1.2-.6.5-.2.9-.5 1.4-.7.5-.2 1-.5 1.5-.7.5-.2.9-.4 1.3-.6.4-.2.6-.2.8-.3.3 0 .4 0 .5.1.1.1.2.2.2.3 0 .3 0 .5-.2.7l-.6.6c-.1.1-.2.1-.5.3-.2.1-.5.2-.7.4-.3.1-.5.3-.8.4-.2.1-.4.2-.5.3-.7.4-1.2.7-1.7 1-.4.2-.8.5-1 .6-.3.2-.5.3-.6.4-.1.1-.3.2-.4.2-.1.1-.3.1-.4.2-.1.1-.4.1-.6.3 0 .2-.1.4-.1.7 0 .3-.1.7-.1 1 0 .3-.1.7-.1 1v.6c0 .1.1.2.1.3 0 .1.1.1.2.1h.3c.4-.1.8-.2 1.3-.3.5-.2 1-.4 1.4-.6.4-.2.8-.5 1.1-.7.3-.2.6-.5.9-.7.3-.2.6-.4.8-.6.3-.2.6-.3.9-.3h.6c.1 0 .2.1.2.1s.1.1.1.2c0 .2-.1.4-.2.7-.2.2-.4.5-.6.7-.3.2-.5.5-.9.7-.3.2-.7.5-1 .7-.3.2-.7.4-1 .6-.3.2-.6.3-.9.5-.6.3-1.3.6-1.9.8-.6.2-1.2.3-1.7.4-.6.1-1 0-1.3-.1s-.4-.8-.4-1.3zm14.2-7.1c.2-1.1.4-2.1.5-3.1.2-1 .3-1.9.4-2.7.1-.8.2-1.6.2-2.2v-1.5c0-.4.2-.7.3-.9.2-.2.4-.4.7-.4.2 0 .3 0 .5.1.1.1.3.2.4.3.1.1.2.3.2.4.1.2.1.3.1.5v.6c-.1.7-.2 1.4-.3 2.2-.1.8-.3 1.5-.4 2.3-.1.8-.3 1.6-.4 2.4-.1.8-.2 1.6-.3 2.3l-.1.8c0 .4-.1.8-.1 1.1v.9c0 .1.1.2.1.3.1.1.1.1.3.1.3 0 .7-.1 1-.3.4-.2.8-.3 1.2-.6.4-.2.8-.4 1.2-.7.4-.2.8-.5 1.1-.7.2-.1.3-.2.5-.3.1-.1.3-.2.5-.3.2-.1.4-.3.8-.5.3-.2.8-.5 1.3-.8.1-.1.2-.1.3-.1.1 0 .1-.1.2-.1h.3c.1 0 .2.1.2.1.1.1.1.1.1.2s.1.2.1.3v.7c-.1.2-.2.3-.3.4l-.4.4c-.1.1-.3.2-.4.3-.1.1-.3.1-.3.2-.1.1-.3.1-.4.2l-.6.3c-.2.1-.4.2-.7.4-.2.1-.4.3-.7.4-.2.1-.4.2-.5.3-.2.1-.3.1-.3.2-.3.2-.6.4-1 .6-.4.2-.7.4-1.1.6-.4.2-.7.4-1 .5-.3.1-.6.2-.8.3-.3 0-.5.1-.7 0-.2 0-.3-.1-.5-.1-.1-.1-.3-.1-.4-.2-.1-.1-.3-.2-.6-.3-.2-.1-.4-.2-.5-.4 0-.2 0-.4-.1-.6v-1.4c0-.2 0-.3.1-.5l.3-2zm13.3 3.1v-.8c.1-1 .3-2.1.4-3.1.2-1 .4-2 .5-3s.2-1.8.3-2.5c.1-.7.2-1.3.2-1.8.1-.5.1-.9.2-1.3s.1-.7.2-1.1c.1-.2.1-.4.2-.7l.3-.6c.1-.2.2-.4.3-.5.1-.1.3-.2.4-.2h.7c.2.1.3.2.3.2l.2.4c.1 0 .3-.1.4-.1.2-.1.3-.1.5-.2s.3-.1.5-.2.3-.1.3-.2c.5-.2.9-.4 1.3-.5.4-.2.8-.3 1.2-.4.4-.1.7-.2 1.1-.3.3-.1.7-.1 1-.2.3-.1.6-.1.8-.1.2 0 .4 0 .5.1.1 0 .2.1.3.2.1.1.1.2.1.3v.3c0 .1-.1.2-.2.3-.1.1-.2.2-.4.3-.2.1-.4.2-.6.2-.1 0-.2.1-.4.2s-.5.2-.8.2c-.3.1-.5.2-.8.3-.2.1-.4.1-.5.2 0 0-.1.1-.3.1l-.6.3c-.2.1-.5.2-.7.3s-.5.2-.8.4-.5.2-.7.3c-.2.1-.4.2-.5.3-.4.2-.7.5-1 .9-.2.3-.4.7-.5 1.1 0 .1 0 .2-.1.4 0 .2-.1.4-.1.6 0 .2-.1.4-.1.7 0 .2-.1.5-.1.7 0 .2-.1.4-.1.6 0 .2-.1.3-.1.4v.4c.1 0 .3-.1.7-.3.3-.2.7-.3 1.2-.6.4-.2.9-.5 1.4-.7.5-.2 1-.5 1.5-.7.5-.2.9-.4 1.3-.6.4-.2.6-.2.8-.3.3 0 .4 0 .5.1s.2.2.2.3c0 .3 0 .5-.2.7l-.6.6c-.1.1-.2.1-.5.3-.2.1-.5.2-.7.4-.3.1-.5.3-.8.4-.2.1-.4.2-.5.3-.7.4-1.2.7-1.7 1-.4.2-.8.5-1 .6-.3.2-.5.3-.6.4-.1.1-.3.2-.4.2-.1.1-.3.1-.4.2-.2.1-.4.1-.6.3 0 .2-.1.4-.1.7 0 .3-.1.7-.1 1 0 .3-.1.7-.1 1v.6c0 .1.1.2.1.3 0 .1.1.1.2.1h.3c.4-.1.8-.2 1.3-.3.5-.2 1-.4 1.4-.6.4-.2.8-.5 1.1-.7s.6-.5.9-.7.6-.4.8-.6c.3-.2.6-.3.9-.3h.6c.1 0 .2.1.2.1s.1.1.1.2c0 .2-.1.4-.2.7-.2.2-.4.5-.6.7-.3.2-.5.5-.9.7-.3.2-.7.5-1 .7-.3.2-.7.4-1 .6s-.6.3-.9.5c-.6.3-1.3.6-1.9.8-.6.2-1.2.3-1.7.4-.6.1-1 0-1.3-.1s-.5-.8-.5-1.3zm13.4-6c-.1-.4-.1-.9-.1-1.5s.1-1.1.3-1.7c.3-.8.5-1.5.9-2.2.3-.7.7-1.4 1.1-2 .4-.6.8-1.2 1.2-1.7.4-.5.8-.9 1.2-1.2.2-.2.5-.4.7-.6.3-.2.5-.4.8-.6s.6-.4.9-.5l.9-.3c.3 0 .6 0 .9.1.3.1.6.2.8.4.2.2.4.4.6.7.2.3.3.6.3.9v.5c0 .1 0 .2-.1.3 0 .1-.1.1-.2.2-.1 0-.2 0-.3.1h-.4c-.1-.1-.2-.1-.3-.2s-.1-.2-.2-.3c0-.1-.1-.2-.2-.3-.1-.1-.1-.2-.2-.2-.1-.1-.2-.1-.3-.1-.3 0-.6.2-.9.3-.3.2-.7.4-1 .7-.3.3-.6.6-1 .9-.3.3-.6.7-.9 1-.3.3-.5.7-.8 1l-.6.9c-.2.4-.5.8-.6 1.3-.2.4-.3.9-.5 1.3-.1.4-.2.9-.2 1.3s0 .9.1 1.4c.1.4.1.7.3.9.1.3.3.5.4.6.2.2.4.3.6.4.2.1.5.1.8 0 .6-.1 1.2-.2 1.7-.4s1-.4 1.5-.7c.5-.3.9-.6 1.3-.9.4-.3.9-.7 1.3-1.1h.6c.1 0 .2.1.3.2.1.1.2.2.2.3.1.1.1.2.1.3 0 .2 0 .5-.2.8-.2.3-.4.5-.6.8-.3.3-.6.5-.9.8-.4.2-.7.5-1 .7s-.7.4-1 .5c-.3.2-.5.3-.7.3-.2.1-.3.1-.5.2-.1.1-.3.1-.5.2s-.4.1-.7.2c-.3.1-.6.1-1.1.2h-.8c-.3 0-.4-.1-.6-.2-.2-.1-.4-.2-.5-.3-.1-.1-.3-.2-.3-.3-.5-.4-.9-.9-1.2-1.4-.2-.9-.3-1.4-.4-2zm18.5.3c.1-1.3.2-2.6.4-3.9.2-1.3.3-2.6.5-3.9.1-.5.1-1 .2-1.5 0-.4.1-.8.1-1.2v-1c0-.3 0-.5-.1-.8v-.4c-.1 0-.2.1-.5.2-.2.1-.5.3-.9.5-.3.2-.7.4-1 .6-.4.2-.7.4-1 .7-.2.2-.4.3-.6.4-.2.1-.3.2-.4.3-.1.1-.2.1-.3.2-.1 0-.2.1-.3.1-.2 0-.4 0-.6-.2-.2-.2-.3-.4-.4-.7v-.4c0-.1.1-.2.1-.4.1-.1.1-.2.2-.3.1-.1.2-.2.4-.3 1.7-1.3 3.5-2.3 5.4-3 1.9-.7 3.8-1.3 5.7-1.5.2 0 .3 0 .6-.1.2 0 .4 0 .7-.1h1.3c.2 0 .3.1.5.3.1.1.2.3.3.5v.4c0 .1 0 .3-.1.4s-.1.2-.2.3c-.1.1-.2.1-.4.2h-.9c-.4 0-.7 0-1.1.1-.7.1-1.4.2-2.1.4-.7.1-1.4.3-2.1.6l-.1.1v.2c0 .4.1.8.1 1.1v.9c0 .3-.1.7-.1 1-.1.4-.1.8-.2 1.3s-.2 1.1-.3 1.8c-.1.7-.2 1.6-.3 2.6l-.2 2.2c-.1.5-.1 1-.1 1.4v1.2c0 .1-.1.3-.3.4-.2.1-.4.2-.7.3-.2 0-.3 0-.4-.1-.1-.1-.3-.2-.4-.3-.1-.1-.2-.3-.2-.4-.2.1-.2-.1-.2-.2zm10.6-6.3c0-.3.1-.6.1-1s.1-.7.1-1.1c.1-.4.1-.8.2-1.2.1-.4.1-.8.2-1.2.1-.4.1-.7.1-1 0-.3.1-.6.1-.8.1-.5.1-1 .2-1.5s.1-1 .1-1.6c.1-.3.3-.5.5-.7s.5-.3.8-.3c.3.1.5.2.6.4.2.2.3.4.3.7v.7c0 .3-.1.5-.1.8-.1.3-.1.6-.2.9-.1.3-.1.7-.2 1-.1.6-.2 1.3-.4 1.9-.1.6-.2 1.3-.3 2 0 .2-.1.4-.1.6 0 .2-.1.4-.1.6s-.1.5-.1.7c0 .3-.1.6-.1.9 0 .4-.1.8-.1 1.2v2.4c0 .4 0 .8-.1 1.3 0 .2-.1.3-.1.4l-.3.3c-.1.1-.2.2-.4.2-.1.1-.2.1-.4.1h-.3c-.1 0-.2 0-.3-.1l-.3-.3c-.1-.1-.1-.2-.1-.4v-.2l.7-5.7zm7.7-8.4c0-.2 0-.4.1-.6 0-.2.1-.4.2-.6.1-.2.2-.4.4-.5.2-.1.4-.2.7-.3.3 0 .5 0 .7.1.2.1.4.2.6.4.2.1.4.3.7.7.2.4.5.8.8 1.3.3.5.6 1.1.9 1.8.3.7.7 1.4 1.1 2.1.4.7.8 1.5 1.2 2.3.4.8.9 1.5 1.5 2.2.1.1.2.2.3.4.1.1.2.3.3.4l.3.3c.1.1.2.1.2.1s0-.1.1-.2v-.9c0-.2 0-.3.1-.4l.3-1.2c.1-.5.2-1 .3-1.7.1-.7.2-1.4.3-2.3.1-.9.2-2 .4-3.2 0-.3.1-.6.1-1s.1-.8.1-1.2v-3.3c0-.2 0-.3.1-.4 0-.1.1-.2.1-.3l.2-.2h.4c.2 0 .3 0 .4.1.2.2.3.4.5.6.2.3.3.6.3 1.1 0 .3.1.6.1 1.1v1.3c0 .5-.1 1-.1 1.5s-.1 1-.1 1.5c-.1.5-.1.9-.2 1.3s-.1.7-.1 1c-.1.5-.1.9-.2 1.4l-.3 1.5c-.1.5-.2 1.1-.3 1.7-.1.6-.3 1.2-.4 1.9l-.3.9c-.1.3-.2.6-.4.9-.2.3-.3.5-.5.7-.2.2-.5.3-.8.3h-.5c-.2 0-.4-.1-.5-.2-.7-.6-1.4-1.3-2-2.2-.6-.8-1.2-1.7-1.7-2.6-.5-.9-1-1.9-1.4-2.8-.4-1-.8-1.9-1.2-2.8l-.1-.2c0-.1-.1-.2-.1-.3 0-.1-.1-.2-.1-.3 0-.1-.1-.2-.1-.2l-.1-.1s-.1.1-.1.3c0 .2-.1.4-.1.6 0 .2-.1.4-.1.6 0 .2 0 .3-.1.4 0 .2-.1.5-.1.9s-.1.8-.2 1.3-.1 1-.2 1.5-.2 1-.2 1.5c-.1.5-.1.9-.2 1.4-.1.4-.1.8-.2 1 0 .2-.1.5-.1.8-.1.3-.1.6-.2 1-.1.3-.1.6-.1.9 0 .3-.1.4-.1.5 0 .3-.1.5-.3.7-.2.2-.3.3-.5.3-.1 0-.2 0-.4-.1-.1-.1-.2-.1-.3-.2l-.3-.3c-.1-.1-.1-.2-.1-.3v-.3c0-.1 0-.4.1-.7L160 85l1.8-11.2zm27.6 1.6c-.1 0-.2.1-.5.2-.2.1-.5.2-.7.4-.3.1-.6.3-.9.5-.3.2-.6.3-.9.5-.3.1-.5.3-.7.4-.2.1-.3.2-.4.2-.1 0-.1 0-.2.1s-.2.1-.2.1l-.2.1c-.1 0-.1.1-.2.1h-.4c-.1 0-.2-.1-.4-.2l-.3-.3c-.1-.1-.1-.3-.1-.4 0-.3 0-.6.1-.8.1-.2.3-.4.5-.5.2-.1.5-.2.7-.3.2-.1.5-.1.6-.2 0 0 .1 0 .1-.1.1 0 .1-.1.2-.1s.2-.1.2-.1c.1 0 .1-.1.2-.1.1-.1.3-.2.6-.4s.6-.3.9-.5c.3-.2.6-.3.9-.5.3-.1.6-.2.8-.3h.7c.2.1.4.1.6.3s.3.3.4.5c.1.2.2.4.2.7v.7c-.1.9-.3 1.7-.7 2.5-.3.8-.8 1.5-1.3 2.2-.5.7-1.1 1.3-1.8 1.8-.7.6-1.4 1-2.1 1.4-.1.1-.3.1-.4.2-.2.1-.4.2-.5.2-.2.1-.4.1-.6.2-.2.1-.3.1-.5.1-.3 0-.5.1-.7.1h-.9c-.1 0-.2 0-.3-.1-.5-.1-.9-.3-1.3-.5s-.7-.5-1-.8c-.3-.3-.6-.7-.8-1.1-.2-.4-.3-.9-.4-1.4-.1-.5-.1-1.1 0-1.8.1-.6.2-1.3.5-1.9.2-.7.5-1.3.8-2 .3-.7.7-1.3 1.1-1.9.4-.6.8-1.2 1.3-1.7s.9-1 1.4-1.5c.3-.3.6-.5.9-.8.3-.3.7-.5 1-.8.4-.2.7-.4 1.1-.6.4-.2.8-.3 1.1-.3h.9c.3 0 .6.1.9.3.3.1.5.3.7.5.2.2.3.5.3.7v.7c0 .1-.1.3-.1.4 0 .1-.1.2-.1.2-.1 0-.1 0-.2.1-.2 0-.4 0-.6-.1-.2-.1-.3-.2-.5-.3-.2-.1-.3-.2-.4-.3-.1-.1-.3-.1-.5-.1h-.3c-.6.2-1.1.5-1.7 1-.6.4-1.2 1-1.8 1.5-.6.6-1.1 1.2-1.6 1.9s-.9 1.4-1.3 2.1c-.4.7-.6 1.4-.8 2.1-.2.7-.2 1.4-.1 2 .1.5.3.9.5 1.2.3.3.7.6 1.2.9.3.1.5.2.8.3s.6.1.8 0c.3 0 .6-.1.9-.3.3-.2.6-.3.9-.5.3-.2.6-.4.8-.6.3-.2.5-.4.7-.6.7-.6 1.3-1.3 1.7-2.1.4-.8.8-1.6 1-2.4v-.1c.4.2.4.2.4 0 0 .1 0 .1 0 0zm14.9.1.3-1.8c.2-.6.4-1.2.6-1.9.3-.6.6-1.3.9-1.9.3-.6.7-1.2 1.1-1.8.4-.6.8-1.2 1.2-1.7.4-.5.9-1.1 1.3-1.5.2-.2.4-.3.6-.4.2-.1.4-.1.6-.2h.7c.2 0 .4.1.6.3.1.1.1.1.2.1s.1.1.2 0v-.1s0-.1.1-.1c0 0 0-.1.1-.2 0-.1.1-.1.1-.1.1-.1.3-.1.4-.2.2 0 .3-.1.5-.1h1c.3.1.6.2.9.4.6.4 1.2 1 1.6 1.7.4.7.7 1.5.8 2.3.1.8.1 1.6 0 2.5-.1.8-.2 1.6-.5 2.4-.3.8-.6 1.5-1 2.2-.4.7-.8 1.4-1.4 2-.5.6-1.1 1.2-1.7 1.6-.6.5-1.3.9-2 1.2-.7.3-1.4.5-2.2.6-.7.1-1.4.1-1.9 0-.6-.1-1.1-.4-1.6-.7-.4-.3-.8-.8-1.1-1.3-.3-.5-.5-1.1-.6-1.8 0-.3-.1-.6-.1-.9.3 0 .3-.3.3-.6zm2 .5v1c.1.4.2.8.4 1.1.2.3.4.5.7.7.3.2.6.3 1 .3.4.1.8 0 1.2 0 .5-.1 1-.2 1.6-.5.5-.2 1-.6 1.5-.9.5-.4.9-.8 1.3-1.3s.8-1.1 1.1-1.7c.3-.6.6-1.3.8-2 .2-.7.4-1.4.5-2.2v-.9c0-.3 0-.6-.1-.8l-.3-1.2c-.2-.4-.4-.7-.6-1-.3-.3-.6-.5-1-.6-.4-.1-.9-.2-1.4-.1-.1 0-.1.1-.2.1s-.1.2-.1.3c0 .1-.1.2-.1.3 0 .1-.1.2-.2.3-.1.1-.2.2-.3.2-.1.1-.2.1-.4.1h-.3c-.1 0-.2-.1-.3-.2-.1 0-.1-.1-.1-.1h-.1c-.1 0-.1.1-.2.1l-.3.3-.3.3c-.1.1-.2.2-.2.3-.4.6-.8 1.2-1.3 1.9-.4.7-.8 1.4-1.1 2.1-.3.7-.6 1.4-.8 2.1-.2.7-.3 1.3-.4 2zm16.4-11.2c0-.2 0-.4.1-.6 0-.2.1-.4.2-.6.1-.2.2-.4.4-.5s.4-.2.7-.3c.3 0 .5 0 .7.1s.4.2.6.4c.2.1.4.3.7.7.2.4.5.8.8 1.3.3.5.6 1.1.9 1.8.3.7.7 1.4 1.1 2.1.4.7.8 1.5 1.2 2.3.4.8.9 1.5 1.5 2.2.1.1.2.2.3.4.1.1.2.3.3.4l.3.3c.1.1.2.1.2.1s0-.1.1-.2v-.9c0-.2 0-.3.1-.4l.3-1.2c.1-.5.2-1 .3-1.7.1-.7.2-1.4.3-2.3.1-.9.2-2 .4-3.2 0-.3.1-.6.1-1s.1-.8.1-1.2v-3.3c0-.2 0-.3.1-.4 0-.1.1-.2.1-.3l.2-.2h.4c.2 0 .3 0 .4.1.2.2.3.4.5.6.2.3.3.6.3 1.1 0 .3.1.6.1 1.1v1.3c0 .5-.1 1-.1 1.5s-.1 1-.1 1.5c-.1.5-.1.9-.2 1.3s-.1.7-.1 1c-.1.5-.1.9-.2 1.4l-.3 1.5c-.1.5-.2 1.1-.3 1.7-.1.6-.3 1.2-.4 1.9l-.3.9c-.1.3-.2.6-.4.9-.2.3-.3.5-.5.7-.2.2-.5.3-.8.3h-.5c-.2 0-.4-.1-.5-.2-.7-.6-1.4-1.3-2-2.2-.6-.8-1.2-1.7-1.7-2.6-.5-.9-1-1.9-1.4-2.8s-.8-1.9-1.2-2.8l-.1-.2c0-.1-.1-.2-.1-.3 0-.1-.1-.2-.1-.3 0-.1-.1-.2-.1-.2 0-.1-.1-.1-.1-.1s-.1.1-.1.3c0 .2-.1.4-.1.6 0 .2-.1.4-.1.6s0 .3-.1.4c0 .2-.1.5-.1.9s-.1.8-.2 1.3-.1 1-.2 1.5-.2 1-.2 1.5c-.1.5-.1.9-.2 1.4-.1.4-.1.8-.2 1 0 .2-.1.5-.1.8-.1.3-.1.6-.2 1-.1.3-.1.6-.1.9s-.1.4-.1.5c0 .3-.1.5-.3.7-.2.2-.3.3-.5.3-.1 0-.2 0-.4-.1s-.2-.1-.3-.2l-.3-.3c-.1-.1-.1-.2-.1-.3v-.3c0-.1 0-.4.1-.7L221 76l1.7-11.2zm16.4 10.5v-.8c.1-1 .3-2.1.4-3.1.2-1 .4-2 .5-3 .1-1 .2-1.8.3-2.5.1-.7.2-1.3.2-1.8.1-.5.1-.9.2-1.3s.1-.7.2-1.1c.1-.2.1-.4.2-.7l.3-.6c.1-.2.2-.4.3-.5.1-.1.3-.2.4-.2h.7c.2.1.3.2.3.2l.2.4c.1 0 .3-.1.4-.1.2-.1.3-.1.5-.2s.3-.1.5-.2.3-.1.3-.2c.5-.2.9-.4 1.3-.5.4-.2.8-.3 1.2-.4.4-.1.7-.2 1.1-.3.3-.1.7-.1 1-.2.3-.1.6-.1.8-.1.2 0 .4 0 .5.1.1 0 .2.1.3.2s.1.2.1.3v.3c0 .1-.1.2-.2.3-.1.1-.2.2-.4.3-.2.1-.4.2-.6.2-.1 0-.2.1-.5.2-.2.1-.5.2-.8.2-.3.1-.5.2-.8.3-.2.1-.4.1-.5.2 0 0-.1.1-.3.1l-.6.3c-.2.1-.5.2-.7.3-.3.1-.5.2-.8.4-.3.1-.5.2-.7.3-.2.1-.4.2-.5.3-.4.2-.7.5-1 .9-.2.3-.4.7-.5 1.1 0 .1 0 .2-.1.4 0 .2-.1.4-.1.6 0 .2-.1.4-.1.7 0 .2-.1.5-.1.7 0 .2-.1.4-.1.6 0 .2-.1.3-.1.4v.4c.1 0 .3-.1.7-.3.3-.2.7-.3 1.2-.6s.9-.5 1.4-.7c.5-.2 1-.5 1.5-.7.5-.2.9-.4 1.3-.6.4-.2.6-.2.8-.3.3 0 .4 0 .5.1.1.1.2.2.2.3 0 .3 0 .5-.2.7l-.6.6c-.1.1-.2.1-.5.3-.2.1-.5.2-.7.4-.3.1-.5.3-.8.4-.2.1-.4.2-.5.3-.7.4-1.2.7-1.7 1-.4.2-.8.5-1 .6-.3.2-.5.3-.6.4-.1.1-.3.2-.4.2-.1.1-.3.1-.4.2-.2.1-.4.1-.6.3 0 .2-.1.4-.1.7 0 .3-.1.7-.1 1 0 .3-.1.7-.1 1v.6c0 .1.1.2.1.3 0 .1.1.1.2.1h.3c.4-.1.8-.2 1.3-.3.5-.2 1-.4 1.4-.6.4-.2.8-.5 1.1-.7.3-.2.6-.5.9-.7.3-.2.6-.4.8-.6.3-.2.6-.3.9-.3h.6c.1 0 .2.1.2.1.1.1.1.1.1.2 0 .2-.1.4-.2.7-.2.2-.4.5-.6.7-.3.2-.5.5-.9.7-.3.2-.7.5-1 .7-.3.2-.7.4-1 .6-.3.2-.6.3-.9.5-.6.3-1.3.6-1.9.8-.6.2-1.2.3-1.7.4-.6.1-1 0-1.3-.1-.1-.5-.3-.8-.4-1.3zm24.4-8.5.3-1.8c.2-.6.4-1.2.6-1.9.3-.6.6-1.3.9-1.9.3-.6.7-1.2 1.1-1.8.4-.6.8-1.2 1.2-1.7.4-.5.9-1.1 1.3-1.5.2-.2.4-.3.6-.4.2-.1.4-.1.6-.2h.7c.2 0 .4.1.6.3l.2.2c.1 0 .1.1.2 0V56s0-.1.1-.1c0 0 0-.1.1-.2 0-.1.1-.1.1-.1.1-.1.3-.1.4-.2.2 0 .3-.1.5-.1h1c.3.1.6.2.9.4.6.4 1.2 1 1.6 1.7.4.7.7 1.5.8 2.3.1.8.1 1.6 0 2.5-.1.8-.2 1.6-.5 2.4-.3.8-.6 1.5-1 2.2-.4.7-.8 1.4-1.4 2-.5.6-1.1 1.2-1.7 1.6-.6.5-1.3.9-2 1.2-.7.3-1.4.5-2.2.6-.7.1-1.4.1-1.9 0-.6-.1-1.1-.4-1.6-.7-.4-.3-.8-.8-1.1-1.3-.3-.5-.5-1.1-.6-1.8 0-.3-.1-.6-.1-.9.2-.1.2-.4.3-.7zm2 .4v1c.1.4.2.8.4 1.1.2.3.4.5.7.7.3.2.6.3 1 .3.4.1.8 0 1.2 0 .5-.1 1-.2 1.6-.5.5-.2 1-.6 1.5-.9.5-.4.9-.8 1.3-1.3s.8-1.1 1.1-1.7c.3-.6.6-1.3.8-2 .2-.7.4-1.4.5-2.2v-.9c0-.3 0-.6-.1-.8l-.3-1.2c-.2-.4-.4-.7-.6-1s-.6-.5-1-.6-.9-.2-1.4-.1c-.1 0-.1.1-.2.1 0 .1-.1.2-.1.3 0 .1-.1.2-.1.3 0 .1-.1.2-.2.3-.1.1-.2.2-.3.2-.1.1-.2.1-.4.1h-.3c-.1 0-.2-.1-.3-.2-.1 0-.1-.1-.1-.1h-.1c-.1 0-.2.1-.2.1l-.3.3-.3.3c-.1.1-.2.2-.2.3-.4.6-.8 1.2-1.3 1.9-.4.7-.8 1.4-1.1 2.1-.3.7-.6 1.4-.8 2.1-.2.7-.4 1.4-.4 2zm18.4-9.9c0 .1-.1.3-.2.5s-.1.5-.2.8c-.1.3-.1.6-.2 1-.1.3-.1.6-.1.9 0 .3-.1.5-.1.8v1.2c.8-.4 1.6-.8 2.4-1.1.8-.3 1.6-.5 2.4-.6.1 0 .3 0 .5-.1h.6c.2 0 .4.1.6.2.2.1.3.2.3.4v.4c0 .1-.1.2-.1.4l-.3.3h-.4c-.5.1-1.1.2-1.6.4l-1.5.6c-.5.2-1 .5-1.5.8l-1.5.9-.4 5c0 .1 0 .3-.1.4-.1.1-.2.2-.3.2h-.3c-.3 0-.5 0-.6-.3-.1-.2-.2-.5-.3-.9 0-.3-.1-.6-.1-1v-2.8c-.1-.1-.2-.2-.3-.4s-.2-.3-.2-.5c0-.3 0-.6.1-.8.1-.2.3-.4.6-.7l.1-.1c0-.1 0-.1.1-.2v-.4l.2-1.7c.1-.7.2-1.3.2-1.8s.1-1 .2-1.4c.1-.4.1-.8.2-1.1.1-.3.1-.6.2-.9 0-.1 0-.2.1-.4 0-.2.1-.4.2-.6.1-.2.2-.4.3-.5.1-.1.2-.2.4-.2.3 0 .6-.1.7 0 .1 0 .2.1.3.2l.1.2c.1 0 .3-.1.5-.2s.4-.2.7-.2c.2-.1.4-.2.6-.2s.3-.1.4-.2c.5-.2.9-.4 1.3-.5.4-.2.8-.3 1.1-.4.4-.1.7-.2 1-.3.3-.1.7-.1 1-.2h.9c.1 0 .2.1.3.1.1.1.1.2.1.3v.3c0 .1 0 .2-.1.3s-.1.2-.2.3-.2.2-.4.3c0 0-.1.1-.3.1-.1 0-.3.1-.5.2s-.4.1-.5.2c-.2.1-.4.1-.5.2-.3.1-.6.2-.9.4-.3.1-.7.3-1.1.4-.4.2-.7.3-1.1.5-.4.2-.7.3-1 .5-.3.2-.6.3-.9.5-.6.1-.8.3-.9.5zm24.8 6.8c.1-1.3.2-2.6.4-3.9.2-1.3.3-2.6.5-3.9.1-.5.1-1 .2-1.5 0-.4.1-.8.1-1.2v-1c0-.3 0-.5-.1-.8v-.4c-.1 0-.2.1-.5.2-.2.1-.5.3-.9.5-.3.2-.7.4-1 .6-.4.2-.7.4-1 .7-.2.2-.4.3-.6.4-.2.1-.3.2-.4.3s-.2.1-.3.2c-.1 0-.2.1-.3.1-.2 0-.4 0-.6-.2-.2-.2-.3-.4-.4-.7v-.4c0-.1.1-.2.1-.4.1-.1.1-.2.2-.3s.2-.2.4-.3c1.7-1.3 3.5-2.3 5.4-3 1.9-.7 3.8-1.3 5.7-1.5.2 0 .3 0 .6-.1.2 0 .4 0 .7-.1h1.3c.2 0 .3.1.5.3s.2.3.3.5v.4c0 .1 0 .3-.1.4-.1.1-.1.2-.2.3s-.2.1-.4.2h-.9c-.4 0-.7 0-1.1.1-.7.1-1.4.2-2.1.4-.7.1-1.4.3-2.1.6l-.1.1v.2c0 .4.1.8.1 1.1v.9c0 .3-.1.7-.1 1s-.1.8-.2 1.3-.2 1.1-.3 1.8c-.1.7-.2 1.6-.3 2.6l-.2 2.2c-.1.5-.1 1-.1 1.4v1.2c0 .1-.1.3-.3.4-.2.1-.4.2-.7.3-.2 0-.3 0-.4-.1-.1-.1-.3-.2-.4-.3-.1-.1-.2-.3-.2-.4-.2.1-.3-.1-.2-.2zm9.5 0v-.7c0-.1 0-.3.1-.4v-.3l2.3-15.5c0-.1.1-.1.1-.2l.1-.1c.1 0 .1-.1.2-.1h.6c.1 0 .2.1.3.2.1.1.1.2.2.3 0 .1.1.2.1.4v1.5l-1.1 8.3 1-.3c1.1-.4 2.3-.9 3.5-1.3 1.2-.5 2.4-.9 3.5-1.3.1-.1.2-.2.3-.5.1-.2.1-.5.2-.9.1-.3.1-.8.2-1.2.1-.5.1-1 .2-1.6l.1-.8c0-.4.1-.8.1-1.2 0-.4.1-.8.1-1.1.1-.3.2-.6.3-.8.1-.2.3-.4.6-.4.4-.1.7 0 .9.2.2.2.4.5.4.9 0 .2 0 .6-.1 1.2s-.2 1.3-.4 2.1c-.1.3-.1.6-.2.9-.1.3-.1.6-.2.9s-.1.6-.1.8v.6c0 .1.1.3.1.4.1.1.1.3.1.4 0 .3 0 .6-.1.9-.1.2-.4.5-.6.8v.7l-.1.6c0 .4-.1.8-.1 1.3v2.4c0 .4 0 .8-.1 1.2 0 .2-.1.3-.1.4l-.3.3c-.1.1-.2.2-.4.2-.1.1-.3.1-.4.1-.2 0-.3 0-.5-.1-.1-.1-.2-.1-.3-.3-.1-.1-.1-.2-.2-.3 0-.1-.1-.2-.1-.3v-3c0-.8.1-1.6.1-2.6h-.1c-.2 0-.4.1-.6.2-.2.1-.5.2-.8.3-.1.1-.3.2-.6.3-.3.1-.6.2-.9.4-.3.1-.7.3-1.1.5-.4.2-.8.3-1.2.5l-2.9 1.3c-.1.3-.2.6-.3 1-.1.4-.1.7-.2 1.1-.1.4-.1.7-.1 1.1 0 .3-.1.7-.1 1 0 .1 0 .2-.1.3-.1.1-.1.2-.2.3-.1.1-.2.2-.3.2s-.2.1-.3.1h-.4c-.1-.1-.2-.1-.3-.2-.1-.1-.1-.2-.2-.4.4-.4.4-.5.4-.7zm17.1-3v-.8c.1-1 .3-2.1.4-3.1.2-1 .4-2 .5-3 .1-1 .2-1.8.3-2.5.1-.7.2-1.3.2-1.8.1-.5.1-.9.2-1.3s.1-.7.2-1.1c.1-.2.1-.4.2-.7l.3-.6c.1-.2.2-.4.3-.5.1-.1.3-.2.4-.2h.7c.2.1.3.2.3.2l.2.4c.1 0 .3-.1.4-.1.2-.1.3-.1.5-.2s.3-.1.5-.2.3-.1.3-.2c.5-.2.9-.4 1.3-.5.4-.2.8-.3 1.2-.4.4-.1.7-.2 1.1-.3.3-.1.7-.1 1-.2.3-.1.6-.1.8-.1.2 0 .4 0 .5.1.1 0 .2.1.3.2.1.1.1.2.1.3v.3c0 .1-.1.2-.2.3-.1.1-.2.2-.4.3-.2.1-.4.2-.6.2-.1 0-.2.1-.4.2s-.5.2-.8.2c-.3.1-.5.2-.8.3-.2.1-.4.1-.5.2 0 0-.1.1-.3.1l-.6.3c-.2.1-.5.2-.7.3-.3.1-.5.2-.8.4-.3.1-.5.2-.7.3-.2.1-.4.2-.5.3-.4.2-.7.5-1 .9-.2.3-.4.7-.5 1.1 0 .1 0 .2-.1.4 0 .2-.1.4-.1.6 0 .2-.1.4-.1.7 0 .2-.1.5-.1.7 0 .2-.1.4-.1.6 0 .2-.1.3-.1.4v.4c.1 0 .3-.1.7-.3.3-.2.7-.3 1.2-.6s.9-.5 1.4-.7c.5-.2 1-.5 1.5-.7.5-.2.9-.4 1.3-.6.4-.2.6-.2.8-.3.3 0 .4 0 .5.1.1.1.2.2.2.3 0 .3 0 .5-.2.7l-.6.6c-.1.1-.2.1-.5.3-.2.1-.5.2-.7.4-.3.1-.5.3-.8.4-.2.1-.4.2-.5.3-.7.4-1.2.7-1.7 1-.4.2-.8.5-1 .6-.3.2-.5.3-.6.4-.1.1-.3.2-.4.2-.1.1-.3.1-.4.2-.2.1-.4.1-.6.3 0 .2-.1.4-.1.7 0 .3-.1.7-.1 1 0 .3-.1.7-.1 1v.6c0 .1.1.2.1.3 0 .1.1.1.2.1h.3c.4-.1.8-.2 1.3-.3.5-.2 1-.4 1.4-.6.4-.2.8-.5 1.1-.7.3-.2.6-.5.9-.7.3-.2.6-.4.8-.6.3-.2.6-.3.9-.3h.6c.1 0 .2.1.2.1.1.1.1.1.1.2 0 .2-.1.4-.2.7-.2.2-.4.5-.6.7-.3.2-.5.5-.9.7-.3.2-.7.5-1 .7-.3.2-.7.4-1 .6-.3.2-.6.3-.9.5-.6.3-1.3.6-1.9.8-.6.2-1.2.3-1.7.4-.6.1-1 0-1.3-.1s-.5-.8-.5-1.3zM33.1 128.8l.3-1.8c.2-.6.4-1.2.6-1.9.3-.6.6-1.3.9-1.9.3-.6.7-1.2 1.1-1.8s.8-1.2 1.2-1.7.9-1.1 1.3-1.5c.2-.2.4-.3.6-.4.2-.1.4-.1.6-.2h.7c.2 0 .4.1.6.3.1.1.1.1.2.1s.1.1.2 0v-.1s0-.1.1-.1c0 0 0-.1.1-.2 0-.1.1-.1.1-.1.1-.1.3-.1.4-.2.2 0 .3-.1.5-.1h1c.3.1.6.2.9.4.6.4 1.2 1 1.6 1.7.4.7.7 1.5.8 2.3.1.8.1 1.6 0 2.5-.1.8-.2 1.6-.5 2.4-.3.8-.6 1.5-1 2.2-.4.7-.8 1.4-1.4 2-.5.6-1.1 1.2-1.7 1.6s-1.3.9-2 1.2c-.7.3-1.4.5-2.2.6-.7.1-1.4.1-1.9 0s-1.1-.4-1.6-.7c-.4-.3-.8-.8-1.1-1.3-.3-.5-.5-1.1-.6-1.8 0-.3-.1-.6-.1-.9.3 0 .3-.3.3-.6zm2 .5v1c.1.4.2.8.4 1.1.2.3.4.5.7.7.3.2.6.3 1 .3.4.1.8 0 1.2 0 .5-.1 1-.2 1.6-.5.5-.2 1-.6 1.5-.9.5-.4.9-.8 1.3-1.3s.8-1.1 1.1-1.7c.3-.6.6-1.3.8-2 .2-.7.4-1.4.5-2.2v-.9c0-.3 0-.6-.1-.8l-.3-1.2c-.2-.4-.4-.7-.6-1-.3-.3-.6-.5-1-.6-.4-.1-.8-.2-1.4-.1-.1 0-.1.1-.2.1 0 .1-.1.2-.1.3 0 .1-.1.2-.1.3 0 .1-.1.2-.2.3-.1.1-.2.2-.3.2-.1.1-.2.1-.4.1h-.3c-.1 0-.2-.1-.3-.2-.1 0-.1-.1-.1-.1h-.1c-.1 0-.1.1-.2.1l-.3.3-.3.3c-.1.1-.2.2-.2.3-.4.6-.8 1.2-1.3 1.9s-.8 1.4-1.1 2.1c-.3.7-.6 1.4-.8 2.1-.2.6-.3 1.3-.4 2zm14.7 2.3c0-.1 0-.3.1-.4 0-.1.1-.3.1-.4 0-.2.1-.3.1-.6 0-.2.1-.5.1-.8l.2-1.8c0-.4.1-.9.1-1.4s.1-1 .2-1.6c.1-.5.1-1 .2-1.5s.2-1.1.3-1.6c.1-.6.2-1.1.3-1.7s.2-1.2.2-1.8v-.1c0-.1 0-.1-.1-.1H51c-.2 0-.2-.1-.3-.2-.1-.1-.1-.2-.2-.3 0-.1-.1-.2-.1-.4v-.8c0-.2.1-.4.2-.5.1-.1.2-.2.4-.3s.3-.1.4-.2c.1-.1.2-.1.3-.1s.2-.1.2-.2c.1-.2.1-.3.1-.5s.1-.4.2-.5c.1-.2.2-.3.3-.4.1-.1.3-.2.5-.2s.3 0 .5.1c.1.1.3.2.4.3.1.1.2.3.3.4.1.1.2.3.2.4.8-.1 1.4-.1 2-.2h1.3c.6 0 1.2.1 1.7.2.6.1 1.1.3 1.6.6s.9.6 1.3 1 .6.9.7 1.5c0 .3.1.6 0 .9v.4c0 .3-.1.6-.2.9-.2.3-.3.6-.5.8-.6.7-1.2 1.3-1.9 1.9-.7.5-1.5 1-2.3 1.4-.8.4-1.6.8-2.5 1.1-.9.3-1.7.6-2.6.9l-.3.1c-.2 0-.3.1-.3.2-.1.5-.1 1-.2 1.4 0 .4-.1.8-.1 1.1s0 .7-.1 1.1-.1.8-.1 1.2c0 .1-.1.3-.1.5l-.3.6c-.1.2-.2.4-.4.5-.2.1-.3.2-.5.3-.1 0-.3 0-.4-.1-.1-.1-.2-.1-.3-.2-.1-.1-.1-.2-.2-.4s-.1-.3-.1-.4v-.1c.1.1.1 0 .2 0zm3.2-8.9v1h.1s.1 0 .2-.1.3-.1.4-.1c.2-.1.3-.1.5-.2s.4-.1.5-.2l1.5-.6c.5-.2 1-.5 1.6-.8l1.5-.9c.5-.3.9-.6 1.2-.9.4-.3.7-.7.9-1 .2-.3.3-.6.2-.9 0-.2-.1-.3-.1-.5-.1-.1-.1-.3-.2-.4-.3-.3-.6-.6-1-.7-.4-.2-.8-.3-1.2-.3-.4 0-.8-.1-1.3 0-.4 0-.9.1-1.3.1-.1 0-.3 0-.5.1-.2 0-.5.1-.7.2-.2.1-.5.1-.7.2s-.3.1-.4.2l-.1.1v.1c0 .2-.1.4-.2.7-.1.3-.1.6-.2.9-.1.3-.1.7-.2 1.1-.1.4-.1.8-.2 1.1s-.1.7-.2 1c-.1.3-.1.6-.1.8zm16.6 4.7c.1-1.3.2-2.6.4-3.9.2-1.3.3-2.6.5-3.9.1-.5.1-1 .2-1.5 0-.4.1-.8.1-1.2v-1c0-.3 0-.5-.1-.8v-.4c-.1 0-.2.1-.5.2-.2.1-.5.3-.9.5-.3.2-.7.4-1 .6-.4.2-.7.4-1 .7-.2.2-.4.3-.6.4-.2.1-.3.2-.4.3-.1.1-.2.1-.3.2-.1 0-.2.1-.3.1-.2 0-.4 0-.6-.2-.2-.2-.3-.4-.4-.7v-.4c0-.1.1-.2.1-.4.1-.1.1-.2.2-.3.1-.1.2-.2.4-.3 1.7-1.3 3.5-2.3 5.4-3 1.9-.7 3.8-1.3 5.7-1.5.2 0 .3 0 .6-.1.2 0 .4 0 .7-.1h1.3c.2 0 .3.1.5.3.2.1.2.3.3.5v.4c0 .1 0 .3-.1.4-.1.1-.1.2-.2.3-.1.1-.2.1-.4.2h-.9c-.4 0-.7 0-1.1.1-.7.1-1.4.2-2.1.4-.7.1-1.4.3-2.1.6l-.1.1v.2c0 .4.1.8.1 1.1v.9c0 .3-.1.7-.1 1-.1.4-.1.8-.2 1.3s-.2 1.1-.3 1.8c-.1.7-.2 1.6-.3 2.6l-.2 2.2c-.1.5-.1 1-.1 1.4v1.2c0 .1-.1.3-.3.4-.2.1-.4.2-.7.3-.2 0-.3 0-.4-.1-.1-.1-.3-.2-.4-.3-.1-.1-.2-.3-.2-.4-.2.1-.3-.1-.2-.2zm10.6-6.3c0-.3.1-.6.1-1s.1-.7.1-1.1c.1-.4.1-.8.2-1.2.1-.4.1-.8.2-1.2.1-.4.1-.7.1-1 0-.3.1-.6.1-.8.1-.5.1-1 .2-1.5s.1-1 .1-1.6c.1-.3.3-.5.5-.7.2-.2.5-.3.8-.3.3.1.5.2.6.4.2.2.3.4.3.7v.7c0 .3-.1.5-.1.8-.1.3-.1.6-.2.9-.1.3-.1.7-.2 1-.1.6-.2 1.3-.4 1.9-.1.6-.2 1.3-.3 2 0 .2-.1.4-.1.6 0 .2-.1.4-.1.6 0 .2-.1.5-.1.7 0 .3-.1.6-.1.9 0 .4 0 .8-.1 1.2v2.4c0 .4 0 .8-.1 1.3 0 .2-.1.3-.1.4l-.3.3c-.1.1-.2.2-.4.2-.1.1-.2.1-.4.1h-.3c-.1 0-.2 0-.3-.1l-.3-.3c-.1-.1-.1-.2-.1-.4v-.2l.7-5.7zm5.5-.1.3-1.8c.2-.6.4-1.2.6-1.9.3-.6.6-1.3.9-1.9.3-.6.7-1.2 1.1-1.8.4-.6.8-1.2 1.2-1.7s.9-1.1 1.3-1.5c.2-.2.4-.3.6-.4.2-.1.4-.1.6-.2h.7c.2 0 .4.1.6.3l.2.2c.1 0 .1.1.2 0v-.1s0-.1.1-.1c0 0 0-.1.1-.2 0-.1.1-.1.1-.1.1-.1.3-.1.4-.2.2 0 .3-.1.5-.1h1c.3.1.6.2.9.4.6.4 1.2 1 1.6 1.7.4.7.7 1.5.8 2.3.1.8.1 1.6 0 2.5-.1.8-.2 1.6-.5 2.4-.3.8-.6 1.5-1 2.2-.4.7-.8 1.4-1.4 2-.5.6-1.1 1.2-1.7 1.6-.6.5-1.3.9-2 1.2-.7.3-1.4.5-2.2.6-.7.1-1.4.1-1.9 0-.6-.1-1.1-.4-1.6-.7-.4-.3-.8-.8-1.1-1.3s-.5-1.1-.6-1.8c0-.3-.1-.6-.1-.9.2-.1.2-.4.3-.7zm2 .5v1c.1.4.2.8.4 1.1.2.3.4.5.7.7.3.2.6.3 1 .3.4.1.8 0 1.2 0 .5-.1 1-.2 1.6-.5.5-.2 1-.6 1.5-.9.5-.4.9-.8 1.3-1.3s.8-1.1 1.1-1.7c.3-.6.6-1.3.8-2 .2-.7.4-1.4.5-2.2v-.9c0-.3 0-.6-.1-.8l-.3-1.2c-.2-.4-.4-.7-.6-1s-.6-.5-1-.6c-.4-.1-.8-.2-1.4-.1-.1 0-.1.1-.2.1 0 .1-.1.2-.1.3 0 .1-.1.2-.1.3s-.1.2-.2.3c-.1.1-.2.2-.3.2s-.2.1-.4.1h-.3c-.1 0-.2-.1-.3-.2-.1 0-.1-.1-.1-.1h-.1c-.1 0-.1.1-.2.1l-.3.3-.3.3c-.1.1-.2.2-.2.3-.4.6-.8 1.2-1.3 1.9-.4.7-.8 1.4-1.1 2.1-.3.7-.6 1.4-.8 2.1-.3.7-.4 1.4-.4 2zm16.3-11.2c0-.2 0-.4.1-.6 0-.2.1-.4.2-.6.1-.2.2-.4.4-.5.2-.1.4-.2.7-.3.3 0 .5 0 .7.1.2.1.4.2.6.4.2.1.4.3.7.7.2.4.5.8.8 1.3.3.5.6 1.1.9 1.8.3.7.7 1.4 1.1 2.1.4.7.8 1.5 1.2 2.3.4.8.9 1.5 1.5 2.2.1.1.2.2.3.4.1.1.2.3.3.4l.3.3c.1.1.2.1.2.1s0-.1.1-.2v-.9c0-.2 0-.3.1-.4l.3-1.2c.1-.5.2-1 .3-1.7.1-.7.2-1.4.3-2.3.1-.9.2-2 .4-3.2 0-.3.1-.6.1-1s.1-.8.1-1.2v-3.2c0-.2 0-.3.1-.4 0-.1.1-.2.1-.3l.2-.2c.1-.1.2 0 .4 0s.3 0 .4.1c.2.2.3.4.5.6.2.3.3.6.3 1.1 0 .3.1.6.1 1.1v1.3c0 .5-.1 1-.1 1.5s-.1 1-.1 1.5c-.1.5-.1.9-.2 1.3s-.1.7-.1 1c-.1.5-.1.9-.2 1.4l-.3 1.5c-.1.5-.2 1.1-.3 1.7-.1.6-.3 1.2-.4 1.9l-.3.9c-.1.3-.2.6-.4.9-.2.3-.3.5-.5.7-.2.2-.5.3-.8.3h-.5c-.2 0-.4-.1-.5-.2-.7-.6-1.4-1.3-2-2.2-.6-.8-1.2-1.7-1.7-2.6-.5-.9-1-1.9-1.4-2.8-.4-1-.8-1.9-1.2-2.8l-.1-.2c0-.1-.1-.2-.1-.3 0-.1-.1-.2-.1-.3 0-.1-.1-.2-.1-.2 0-.1-.1-.1-.1-.1s-.1.1-.1.3c0 .2-.1.4-.1.6 0 .2-.1.4-.1.6 0 .2 0 .3-.1.4 0 .2-.1.5-.1.9-.1.4-.1.8-.2 1.3s-.1 1-.2 1.5-.2 1-.2 1.5c-.1.5-.1.9-.2 1.4-.1.4-.1.8-.2 1 0 .2-.1.5-.1.8s-.1.6-.2 1-.1.6-.1.9c0 .3-.1.4-.1.5 0 .3-.1.5-.3.7-.2.2-.3.3-.5.3-.1 0-.2 0-.4-.1-.1-.1-.2-.1-.3-.2l-.3-.3c-.1-.1-.1-.2-.1-.3v-.3c0-.1 0-.4.1-.7l.1-1.2 1.4-11.6zm16.1 8.8c.3.1.5.1.8.2.3.1.6.2.9.2s.6.1.9.1h1l1.2-.3c.4-.1.8-.4 1.2-.6.4-.2.7-.5 1-.9.3-.3.6-.7.9-1.1.3-.4.5-.8.7-1.2.2-.3.3-.6.4-.9.1-.3.2-.5.2-.7v-.5c0-.2-.1-.3-.3-.5-.1-.1-.3-.2-.6-.3-.2-.1-.5-.1-.7-.1-.3 0-.6 0-.8.1-.2 0-.4.1-.6.1-.2 0-.5.1-.7.1-.2 0-.5.1-.7.1-.2 0-.4.1-.6.1h-.8c-.3 0-.5-.1-.8-.2-.3-.1-.5-.2-.8-.4s-.5-.4-.7-.7c-.1-.1-.1-.2-.2-.4-.1-.1-.1-.3-.1-.4v-1c0-.4.2-.8.3-1.2.2-.4.4-.8.7-1.2l.9-1.2c.3-.4.7-.8 1.1-1.1.4-.4.7-.7 1.1-1 .4-.3.7-.6 1-.8.5-.3.9-.6 1.4-.7.5-.2 1-.3 1.5-.4h.9c.3 0 .5.1.8.2.2.1.4.3.6.5.2.2.2.4.3.7v.4c0 .1-.1.2-.1.3 0 .1-.1.1-.2.2-.1 0-.1.1-.2.1h-.6c-.2 0-.3 0-.5-.1-.2 0-.3-.1-.5-.1h-.5c-.5.1-1.1.3-1.6.6s-1 .7-1.5 1.1c-.5.4-.9.9-1.4 1.4-.4.5-.8 1-1.1 1.4-.2.2-.3.5-.3.7s-.1.4-.1.6c0 .3.2.5.5.6.3.1.6.2.9.1.2 0 .4-.1.7-.1.3 0 .5-.1.8-.1.3 0 .5-.1.8-.1.2 0 .5-.1.7-.1.5-.1.9-.1 1.4 0 .4.1.8.2 1.2.4.4.2.7.5.9.8.3.3.4.8.5 1.2v.9c0 .3-.1.6-.2 1-.1.3-.2.7-.4 1-.2.3-.3.7-.5 1-.3.6-.7 1.1-1.1 1.7-.4.5-.9 1-1.4 1.4-.5.4-1.1.8-1.6 1.1-.6.3-1.2.5-1.9.6-.3 0-.6.1-.9.1-.3 0-.6 0-.9-.1-.3-.1-.6-.1-.9-.3-.3-.1-.5-.3-.8-.4l-.6-.6c-.2-.2-.2-.5-.3-.7v-.4c0-.1.2-.2.3-.2zm36.2-7.8c.1.5 0 1.1-.2 1.7-.2.6-.7 1.2-1.3 1.8-.2.2-.4.4-.7.6s-.6.4-.9.7-.7.5-1.1.7c-.4.2-.8.4-1.1.6s-.8.3-1.1.5c-.4.1-.7.2-1.1.3h-.4c-.1 0-.2 0-.4-.1-.1-.1-.2-.1-.3-.2l-.4-.4c-.2.2-.3.3-.5.4-.2.1-.4.2-.6.2h-.5c-.1 0-.1-.1-.2-.1 0-.1-.1-.1-.1-.2s-.1-.1-.1-.2c-.1-.4-.1-.7 0-1.1.1-.4.1-.7.2-1.1l.3-2.1c.1-.7.2-1.5.3-2.2.1-.7.2-1.4.3-2.2.1-.7.2-1.4.2-2l.1-1.3v-.2c0-.1 0-.2-.1-.3 0-.1-.1-.2-.1-.3v-.3c0-.1 0-.3.1-.5s.1-.4.2-.5c.1-.2.2-.3.3-.4.1-.1.2-.2.4-.2h.5c.2 0 .4 0 .5-.1h.2c.1 0 .2 0 .3-.1.1 0 .2-.1.4-.2s.4-.2.7-.3c.4-.2.8-.4 1.1-.5.3-.2.7-.3 1-.4l.9-.3c.3-.1.6-.1.9-.2.4-.1.8-.1 1.2-.1.4 0 .7.1 1 .2.3.1.6.3.8.6.2.2.3.6.4.9.1.7 0 1.3-.3 1.9-.3.6-.7 1.1-1.3 1.7-.6.5-1.3 1.1-2.1 1.6s-1.8 1.1-2.8 1.6c.9 0 1.7.1 2.3.1.7.1 1.2.2 1.7.4s.8.4 1 .7c.2.1.4.5.4.9zm-3.9-.5h-4.2c-.1 1-.3 1.9-.4 2.7-.1.9-.2 1.7-.3 2.6h1.4c.3-.1.6-.2 1-.3.3-.1.7-.3 1.1-.5.4-.2.7-.4 1.1-.6.4-.2.7-.5 1.1-.7.1-.1.3-.2.4-.4.1-.1.3-.3.4-.5.1-.2.2-.3.2-.5.1-.2.1-.4 0-.5 0-.3-.2-.5-.6-.7s-.7-.5-1.2-.6zm-3.9-2c.4-.2.8-.4 1.2-.7.4-.2.9-.5 1.3-.8.5-.3.9-.6 1.4-.9.5-.3.9-.6 1.4-1 .2-.1.3-.3.5-.4.2-.2.3-.3.4-.5l.3-.6c.1-.2.1-.4.1-.5 0-.1-.1-.2-.1-.3l-.3-.3c-.1-.1-.3-.1-.5-.1h-.7l-1.2.3c-.5.2-.9.3-1.3.6-.4.2-.8.4-1.1.6-.3.2-.5.4-.6.6 0 0 0 .1-.1.3 0 .1 0 .3-.1.4 0 .2-.1.3-.1.5 0 .1-.1.3-.1.3v.4c0 .2 0 .3-.1.6 0 .2-.1.5-.1.7-.1.2-.2.5-.2.8zm10.9 6.3v-.8c.1-1 .3-2.1.4-3.1.2-1 .4-2 .5-3 .1-1 .2-1.8.3-2.5.1-.7.2-1.3.2-1.8.1-.5.1-.9.2-1.3s.1-.7.2-1.1c.1-.2.1-.4.2-.7l.3-.6c.1-.2.2-.4.3-.5.1-.1.3-.2.4-.2h.7c.2.1.3.2.3.2l.2.4c.1 0 .3-.1.4-.1.2-.1.3-.1.5-.2s.3-.1.5-.2.3-.1.3-.2c.5-.2.9-.4 1.3-.5.4-.2.8-.3 1.2-.4.4-.1.7-.2 1.1-.3.3-.1.7-.1 1-.2.3-.1.6-.1.8-.1.2 0 .4 0 .5.1.1 0 .2.1.3.2.1.1.1.2.1.3v.3c0 .1-.1.2-.2.3-.1.1-.2.2-.4.3-.2.1-.4.2-.6.2-.1 0-.2.1-.5.2-.2.1-.5.2-.8.2-.3.1-.5.2-.8.3-.2.1-.4.1-.5.2 0 0-.1.1-.3.1l-.6.3c-.2.1-.5.2-.7.3-.3.1-.5.2-.8.4-.3.1-.5.2-.7.3-.2.1-.4.2-.5.3-.4.2-.7.5-1 .9-.2.3-.4.7-.5 1.1 0 .1 0 .2-.1.4s-.1.4-.1.6c0 .2-.1.4-.1.7 0 .2-.1.5-.1.7 0 .2-.1.4-.1.6 0 .2-.1.3-.1.4v.4c.1 0 .3-.1.7-.3.3-.2.7-.3 1.2-.6.5-.2.9-.5 1.4-.7.5-.2 1-.5 1.5-.7.5-.2.9-.4 1.3-.6.4-.2.6-.2.8-.3.3 0 .4 0 .5.1s.2.2.2.3c0 .3 0 .5-.2.7l-.6.6c-.1.1-.2.1-.5.3-.2.1-.5.2-.7.4-.3.1-.5.3-.8.4-.2.1-.4.2-.5.3-.7.4-1.2.7-1.7 1-.4.2-.8.5-1 .6-.3.2-.5.3-.6.4-.1.1-.3.2-.4.2-.1.1-.3.1-.4.2-.2.1-.4.1-.6.3 0 .2-.1.4-.1.7 0 .3-.1.7-.1 1 0 .3-.1.7-.1 1v.6c0 .1.1.2.1.3 0 .1.1.1.2.1h.3c.4-.1.8-.2 1.3-.3.5-.2 1-.4 1.4-.6.4-.2.8-.5 1.1-.7.3-.2.6-.5.9-.7.3-.2.6-.4.8-.6.3-.2.6-.3.9-.3h.6c.1 0 .2.1.2.1.1.1.1.1.1.2 0 .2-.1.4-.2.7-.2.2-.4.5-.6.7-.3.2-.5.5-.9.7-.3.2-.7.5-1 .7s-.7.4-1 .6c-.3.2-.6.3-.9.5-.6.3-1.3.6-1.9.8s-1.2.3-1.7.4c-.6.1-1 0-1.3-.1s-.4-.8-.4-1.3zm14.2-7.2c.2-1.1.4-2.1.5-3.1.2-1 .3-1.9.4-2.7.1-.8.2-1.6.2-2.2s.1-1.1 0-1.5c0-.4.2-.7.4-.9.2-.2.4-.4.7-.4.2 0 .3 0 .5.1.1.1.3.2.4.3s.2.3.2.4c.1.2.1.3.1.5v.6c-.1.7-.2 1.4-.3 2.2-.1.8-.3 1.5-.4 2.3-.1.8-.3 1.6-.4 2.4-.1.8-.2 1.6-.3 2.3l-.1.8c0 .4-.1.8-.1 1.1v.9c0 .1.1.2.1.3.1.1.1.1.3.1.3 0 .7-.1 1-.3s.8-.3 1.2-.6c.4-.2.8-.4 1.2-.7.4-.2.8-.5 1.1-.7.2-.1.3-.2.5-.3.1-.1.3-.2.5-.3.2-.1.4-.3.8-.5s.8-.5 1.3-.8c.1-.1.2-.1.3-.1.1 0 .1-.1.2-.1h.3c.1 0 .2.1.2.1.1.1.1.1.1.2s.1.2.1.3v.7c-.1.2-.2.3-.3.4l-.4.4c-.1.1-.3.2-.4.3-.1.1-.3.1-.3.2-.1.1-.3.1-.4.2l-.6.3c-.2.1-.4.2-.7.4-.2.1-.4.3-.7.4-.2.1-.4.2-.5.3-.2.1-.3.1-.3.2-.3.2-.6.4-1 .6-.4.2-.7.4-1.1.6-.4.2-.7.4-1 .5-.3.1-.6.2-.8.3-.3 0-.5.1-.7 0s-.3-.1-.5-.1c-.1-.1-.3-.1-.4-.2-.1-.1-.3-.2-.6-.3-.2-.1-.4-.2-.5-.4-.1-.2-.2-.4-.2-.7v-1.4c0-.2 0-.3.1-.5l.3-1.9zm12.7-1.7.3-1.8c.2-.6.4-1.2.6-1.9.3-.6.6-1.3.9-1.9.3-.6.7-1.2 1.1-1.8.4-.6.8-1.2 1.2-1.7.4-.5.9-1.1 1.3-1.5.2-.2.4-.3.6-.4.2-.1.4-.1.6-.2h.7c.2 0 .4.1.6.3l.2.2c.1 0 .1.1.2 0v-.1s0-.1.1-.1c0 0 0-.1.1-.2l.1-.1c.1-.1.3-.1.4-.2.2 0 .3-.1.5-.1h1c.3.1.6.2.9.4.6.4 1.2 1 1.6 1.7.4.7.7 1.5.8 2.3.1.8.1 1.6 0 2.5-.1.8-.2 1.6-.5 2.4-.3.8-.6 1.5-1 2.2-.4.7-.8 1.4-1.4 2-.5.6-1.1 1.2-1.7 1.6-.6.5-1.3.9-2 1.2s-1.4.5-2.2.6c-.7.1-1.4.1-1.9 0-.6-.1-1.1-.4-1.6-.7-.4-.3-.8-.8-1.1-1.3-.3-.5-.5-1.1-.6-1.8 0-.3-.1-.6-.1-.9.3-.1.3-.4.3-.7zm2 .4v1c.1.4.2.8.4 1.1.2.3.4.5.7.7.3.2.6.3 1 .3.4.1.8 0 1.2 0 .5-.1 1-.2 1.6-.5.5-.2 1-.6 1.5-.9.5-.4.9-.8 1.3-1.3s.8-1.1 1.1-1.7c.3-.6.6-1.3.8-2s.4-1.4.5-2.2v-.9c0-.3 0-.6-.1-.8l-.3-1.2c-.2-.4-.4-.7-.6-1-.3-.3-.6-.5-1-.6-.4-.1-.9-.2-1.4-.1-.1 0-.1.1-.2.1 0 .1-.1.2-.1.3 0 .1-.1.2-.1.3 0 .1-.1.2-.2.3-.1.1-.2.2-.3.2-.1.1-.2.1-.4.1h-.3c-.1 0-.2-.1-.3-.2-.1 0-.1-.1-.1-.1h-.1c-.1 0-.1.1-.2.1l-.3.3-.3.3c-.1.1-.2.2-.2.3-.4.6-.8 1.2-1.3 1.9s-.8 1.4-1.1 2.1c-.3.7-.6 1.4-.8 2.1-.2.7-.3 1.4-.4 2zm14.8-2.2c.1-.7.2-1.4.3-2.2.2-.8.3-1.6.5-2.4.2-.8.3-1.6.5-2.5.2-.8.3-1.7.4-2.5 0-.2 0-.4.1-.6v-.5c.1-.2.2-.4.3-.5.1-.1.3-.2.5-.2h.5c.2 0 .3.1.4.2.1.1.2.2.3.4.1.2.2.4.2.6v.9c-.2.8-.4 1.6-.6 2.3-.2.8-.4 1.5-.6 2.2-.2.7-.3 1.4-.5 2.1l-.3 2.1v1.8c0 .3 0 .6.1.8 0 .2.1.3.1.5s.1.3.2.4c.1.1.2.2.3.2.1.1.2.1.3.1.3 0 .6-.2 1-.6.4-.4.7-.8 1.1-1.4.4-.6.8-1.2 1.2-2 .4-.8.8-1.5 1.1-2.4.4-.8.7-1.7 1-2.6.3-.9.5-1.7.7-2.6 0-.2.1-.3.2-.3.1-.1.2-.1.4-.1.3 0 .5 0 .8.2.2.1.4.4.4.6v.4l-.1.5c-.1.4-.1.7-.2 1-.1.3-.1.6-.1.9 0 .4-.1.7-.1 1.1v.9c0 .3 0 .5.1.8 0 .3.1.5.1.8 0 .1 0 .3.1.5 0 .2.1.4.2.7.1.2.2.5.3.7.1.2.2.5.3.7.1.2.2.3.4.5.1.1.3.2.4.1.2 0 .5-.2.7-.4.2-.2.4-.5.7-.9.2-.4.4-.8.6-1.3.2-.5.4-1 .6-1.6s.3-1.1.5-1.7c.1-.6.3-1.2.4-1.7.1-.6.2-1.1.3-1.6.1-.5.1-1 .1-1.4V92c0-.4 0-.8.1-1.2 0-.1 0-.3.1-.5s.1-.3.2-.4.2-.3.3-.4.2-.2.4-.2c.3 0 .6 0 .7.2.1.2.2.5.3.9 0 .3.1.7.1 1.1v1.3c0 .5 0 .9-.1 1.4 0 .5-.1.9-.1 1.4-.1.9-.2 1.8-.4 2.8-.2 1-.5 1.9-.7 2.8-.3.9-.6 1.8-1 2.6s-.7 1.6-1.1 2.2c-.1.2-.3.4-.5.7-.2.2-.4.5-.6.7-.2.2-.5.4-.7.5s-.5.2-.7.3c-.5.1-1 0-1.4-.3-.4-.2-.7-.6-1-1.1-.3-.5-.5-1-.8-1.6-.2-.6-.4-1.3-.5-2-.3.7-.6 1.3-.9 1.8l-.9 1.5c-.2.3-.5.7-.8 1.1-.3.4-.6.8-.9 1.1-.3.4-.7.7-1 .9-.4.3-.7.4-1.1.5-.4.1-.8 0-1.1-.1-.3-.1-.6-.3-.8-.5-.2-.2-.4-.5-.5-.9-.1-.4-.2-.7-.3-1.2-.1-.5-.1-1-.1-1.5-.4-.5-.4-1-.4-1.5z" style="fill:#8b5cf6"/></svg>