<?xml version="1.0" encoding="utf-8"?>
<!-- Generator: Adobe Illustrator 25.2.0, SVG Export Plug-In . SVG Version: 6.00 Build 0)  -->
<svg version="1.1" id="Calque_1" xmlns="http://www.w3.org/2000/svg" xmlns:xlink="http://www.w3.org/1999/xlink" x="0px" y="0px"
	 viewBox="0 0 300 300" style="enable-background:new 0 0 300 300;" xml:space="preserve">
<style type="text/css">
	.st0{fill-rule:evenodd;clip-rule:evenodd;fill:none;}
	.st1{fill:#25CAAC;}
</style>
<rect class="st0" width="300" height="300"/>
<g>
	<path class="st1" d="M82.4,196.7c7.4,5.2,19.4,5.2,26.8,0c7.4-5.2,7.4-13.5,0-18.7c-7.4-5.2-19.4-5.2-26.8,0S75,191.6,82.4,196.7z"
		/>
	<path class="st1" d="M159.2,126.6c11.1,7.7,29.1,7.7,40.2,0c11.1-7.7,11.1-20.3,0-28c-11.1-7.7-29.1-7.7-40.2,0
		C148.1,106.3,148.1,118.9,159.2,126.6z"/>
	<path class="st1" d="M118.4,161.7c9.2,6.5,24.2,6.5,33.5,0c9.2-6.5,9.2-16.9,0-23.4c-9.2-6.5-24.2-6.5-33.5,0
		C109.2,144.8,109.2,155.2,118.4,161.7z"/>
	<path class="st1" d="M58.9,157c5.5,3.9,14.5,3.9,20.1,0c5.5-3.9,5.5-10.1,0-14c-5.5-3.9-14.5-3.9-20.1,0
		C53.4,146.9,53.4,153.1,58.9,157z"/>
	<path class="st1" d="M118.4,86.9c9.2,6.5,24.2,6.5,33.5,0s9.2-16.9,0-23.4c-9.2-6.5-24.2-6.5-33.5,0
		C109.2,70,109.2,80.5,118.4,86.9z"/>
	<path class="st1" d="M82.4,122c7.4,5.2,19.4,5.2,26.8,0c7.4-5.2,7.4-13.5,0-18.7c-7.4-5.2-19.4-5.2-26.8,0
		C75,108.4,75,116.8,82.4,122z"/>
	<path class="st1" d="M118.4,236.4c9.2,6.5,24.2,6.5,33.5,0c9.2-6.5,9.2-16.9,0-23.4c-9.2-6.5-24.2-6.5-33.5,0
		C109.2,219.5,109.2,230,118.4,236.4z"/>
	<path class="st1" d="M208,164c11.1,7.7,29.1,7.7,40.2,0c11.1-7.7,11.1-20.3,0-28c-11.1-7.7-29.1-7.7-40.2,0
		C196.9,143.7,196.9,156.3,208,164z"/>
	<path class="st1" d="M159.2,201.4c11.1,7.7,29.1,7.7,40.2,0c11.1-7.7,11.1-20.3,0-28c-11.1-7.7-29.1-7.7-40.2,0
		C148.1,181.1,148.1,193.7,159.2,201.4z"/>
</g>
</svg>
