<?xml version="1.0" encoding="utf-8"?>
<!-- Generator: Adobe Illustrator 25.2.0, SVG Export Plug-In . SVG Version: 6.00 Build 0)  -->
<svg version="1.1" id="Calque_1" xmlns="http://www.w3.org/2000/svg" xmlns:xlink="http://www.w3.org/1999/xlink" x="0px" y="0px"
	 viewBox="0 0 300 300" style="enable-background:new 0 0 300 300;" xml:space="preserve">
<style type="text/css">
	.st0{fill-rule:evenodd;clip-rule:evenodd;fill:#7F57F1;}
	.st1{fill-rule:evenodd;clip-rule:evenodd;fill:#F9F9F9;}
</style>
<rect class="st0" width="300" height="300"/>
<g>
	<path class="st1" d="M122.4,131.3c-10.3-10.3-27.1-10.3-37.5,0c-10.3,10.3-10.3,27.1,0,37.5c10.3,10.3,27.1,10.3,37.5,0l18.7-18.7
		L122.4,131.3z"/>
	<path class="st1" d="M150,141.1l18.7-18.7c10.3-10.3,10.3-27.1,0-37.5c-10.3-10.3-27.1-10.3-37.5,0c-10.3,10.3-10.3,27.1,0,37.5
		L150,141.1z"/>
	<path class="st1" d="M150,158.9l-18.7,18.7c-10.3,10.3-10.3,27.1,0,37.5c10.3,10.3,27.1,10.3,37.5,0c10.3-10.3,10.3-27.1,0-37.5
		L150,158.9z"/>
	<path class="st1" d="M177.6,131.3L158.9,150l18.7,18.7c10.3,10.3,27.1,10.3,37.5,0c10.3-10.3,10.3-27.1,0-37.5
		C204.7,120.9,187.9,120.9,177.6,131.3z"/>
</g>
</svg>
