<?xml version="1.0" encoding="utf-8"?>
<!-- Generator: Adobe Illustrator 25.2.0, SVG Export Plug-In . SVG Version: 6.00 Build 0)  -->
<svg version="1.1" id="Calque_1" xmlns="http://www.w3.org/2000/svg" xmlns:xlink="http://www.w3.org/1999/xlink" x="0px" y="0px"
	 viewBox="0 0 300 300" style="enable-background:new 0 0 300 300;" xml:space="preserve">
<style type="text/css">
	.st0{fill-rule:evenodd;clip-rule:evenodd;fill:#EFFFE9;}
	.st1{fill:#B6EFA2;}
	.st2{fill:#88E169;}
	.st3{fill:#55AE36;}
</style>
<rect class="st0" width="300" height="300"/>
<g>
	<path class="st1" d="M221.3,203.6c16.6-14.8,26.8-34.9,26.8-56.9c0-45.8-43.9-82.9-98.1-82.9s-98.1,37.1-98.1,82.9
		s43.9,82.9,98.1,82.9c15.4,0,29.9-3,42.9-8.3c15.2,9.4,33.9,16.1,54.5,14.7C236.5,233.2,227.1,222,221.3,203.6z"/>
	<path class="st2" d="M222,146.7c0,33.7-32.2,61.1-72,61.1s-72-27.3-72-61.1s32.2-61.1,72-61.1S222,113,222,146.7z"/>
	<path class="st3" d="M195.8,146.7c0,21.7-20.5,39.3-45.8,39.3s-45.8-17.6-45.8-39.3s20.5-39.3,45.8-39.3S195.8,125,195.8,146.7z"/>
</g>
</svg>
