<?xml version="1.0" encoding="utf-8"?>
<!-- Generator: Adobe Illustrator 25.2.0, SVG Export Plug-In . SVG Version: 6.00 Build 0)  -->
<svg version="1.1" id="Calque_1" xmlns="http://www.w3.org/2000/svg" xmlns:xlink="http://www.w3.org/1999/xlink" x="0px" y="0px"
	 viewBox="0 0 300 300" style="enable-background:new 0 0 300 300;" xml:space="preserve">
<style type="text/css">
	.st0{fill:#80475B;}
	.st1{fill:#FFFFFF;}
</style>
<rect class="st0" width="300" height="300"/>
<g>
	<path class="st1" d="M80.5,135.8c3.9-15.5,12.8-29.3,25.4-39.2c12.6-9.9,28.1-15.2,44.1-15.2s31.5,5.4,44.1,15.2
		c12.6,9.9,21.5,23.6,25.4,39.2h-6.3c-10.6-0.2-21,3-29.7,9.1c-0.5,0.4-1,0.7-1.6,1h-0.7c-0.5-0.3-1.1-0.6-1.6-1
		c-8.8-5.9-19.1-9.1-29.7-9.1s-20.9,3.2-29.7,9.1c-0.5,0.4-1,0.7-1.6,1H118c-0.5-0.3-1.1-0.6-1.6-1c-8.7-6-19.1-9.2-29.7-9.1H80.5z
		 M202,168.6c3.2-2.5,7.2-3.8,11.3-3.7h8.4v-16.8h-8.4c-7.2-0.1-14.2,2.2-20,6.4c-3.3,2.4-7.2,3.7-11.3,3.7s-8-1.3-11.3-3.7
		c-6-4.2-13.1-6.4-20.3-6.4c-7.3,0-14.4,2.2-20.3,6.4c-3.3,2.4-7.2,3.7-11.3,3.7c-4.1,0-8-1.3-11.3-3.7c-5.9-4.3-13-6.5-20.3-6.4
		h-8.7v16.8h8.4c4.1-0.1,8.1,1.2,11.3,3.7c6,4.2,13,6.4,20.3,6.4s14.4-2.2,20.3-6.4c3.2-2.5,7.2-3.8,11.3-3.7
		c4.1-0.1,8.1,1.2,11.3,3.7c6,4.2,13.1,6.4,20.3,6.4C188.9,175,196,172.7,202,168.6L202,168.6z M202,198.6c3.2-2.5,7.2-3.8,11.3-3.7
		h8.4v-16.8h-8.4c-7.2-0.1-14.2,2.2-20,6.4c-3.3,2.4-7.2,3.7-11.3,3.7s-8-1.3-11.3-3.7c-6-4.2-13.1-6.4-20.3-6.4
		c-7.3,0-14.4,2.2-20.3,6.4c-3.3,2.4-7.2,3.7-11.3,3.7c-4.1,0-8-1.3-11.3-3.7c-5.9-4.3-13-6.5-20.3-6.4h-8.7v16.8h8.4
		c4.1-0.1,8.1,1.2,11.3,3.7c6,4.2,13,6.4,20.3,6.4s14.4-2.2,20.3-6.4c3.2-2.5,7.2-3.8,11.3-3.7c4.1-0.1,8.1,1.2,11.3,3.7
		c6,4.2,13.1,6.4,20.3,6.4C188.9,205,196,202.8,202,198.6L202,198.6z"/>
</g>
</svg>
