<?xml version="1.0" encoding="utf-8"?>
<!-- Generator: Adobe Illustrator 25.2.0, SVG Export Plug-In . SVG Version: 6.00 Build 0)  -->
<svg version="1.1" id="Calque_1" xmlns="http://www.w3.org/2000/svg" xmlns:xlink="http://www.w3.org/1999/xlink" x="0px" y="0px"
	 viewBox="0 0 300 300" style="enable-background:new 0 0 300 300;" xml:space="preserve">
<style type="text/css">
	.st0{fill:#D4296F;}
	.st1{fill:#FFFFFF;}
</style>
<rect class="st0" width="300" height="300"/>
<g>
	<path class="st1" d="M192.4,150c0,5.6-1.1,11.1-3.2,16.2c-2.1,5.1-5.3,9.8-9.2,13.8c-3.9,3.9-8.6,7.1-13.8,9.2
		c-5.1,2.1-10.7,3.2-16.2,3.2s-11.1-1.1-16.2-3.2c-5.1-2.1-9.8-5.3-13.8-9.2c-3.9-3.9-7.1-8.6-9.2-13.8c-2.1-5.1-3.2-10.7-3.2-16.2
		s1.1-11.1,3.2-16.2c2.1-5.1,5.3-9.8,9.2-13.8c3.9-3.9,8.6-7.1,13.8-9.2c5.1-2.1,10.7-3.2,16.2-3.2V65.2c-11.1,0-22.2,2.2-32.5,6.5
		C107.3,75.9,97.9,82.2,90,90c-7.9,7.9-14.1,17.2-18.4,27.5c-4.3,10.3-6.5,21.3-6.5,32.5c0,11.1,2.2,22.2,6.5,32.5
		c4.3,10.3,10.5,19.6,18.4,27.5c7.9,7.9,17.2,14.1,27.5,18.4c10.3,4.3,21.3,6.5,32.5,6.5c11.1,0,22.2-2.2,32.5-6.5
		c10.3-4.3,19.6-10.5,27.5-18.4c7.9-7.9,14.1-17.2,18.4-27.5c4.3-10.3,6.5-21.3,6.5-32.5H192.4z"/>
	<path class="st1" d="M168.7,128.8c-0.3-0.2-0.5-0.5-0.8-0.7c-0.1-0.1-0.2-0.1-0.2-0.2c-0.3-0.2-0.6-0.4-0.9-0.7
		c-0.1,0-0.1-0.1-0.2-0.1c-0.3-0.2-0.6-0.5-1-0.7c0,0,0,0-0.1,0c-3.7-2.5-8.1-4.1-12.8-4.6c-0.2,0-0.3,0-0.5,0
		c-0.3,0-0.6-0.1-0.9-0.1c-0.5,0-0.9,0-1.4,0s-1,0-1.4,0c-0.3,0-0.6,0-0.9,0.1c-0.2,0-0.3,0-0.5,0c-4.7,0.5-9.1,2.1-12.8,4.6
		c0,0,0,0-0.1,0c-0.3,0.2-0.7,0.4-1,0.7c-0.1,0-0.1,0.1-0.2,0.1c-0.3,0.2-0.6,0.4-0.9,0.7c-0.1,0.1-0.2,0.1-0.2,0.2
		c-0.3,0.2-0.5,0.4-0.8,0.7c-0.1,0.1-0.2,0.2-0.3,0.2c-0.3,0.3-0.6,0.6-0.9,0.9c0,0,0,0-0.1,0.1c0,0,0,0-0.1,0.1
		c-0.3,0.3-0.6,0.6-0.9,0.9c-0.1,0.1-0.2,0.2-0.2,0.3c-0.2,0.3-0.4,0.5-0.7,0.8c-0.1,0.1-0.1,0.2-0.2,0.3c-0.2,0.3-0.4,0.6-0.7,0.8
		c0,0.1-0.1,0.1-0.1,0.2c-0.2,0.3-0.5,0.6-0.7,1c0,0,0,0,0,0.1c-2.5,3.7-4.1,8.1-4.6,12.8c0,0.2,0,0.3,0,0.5c0,0.3-0.1,0.6-0.1,0.9
		c0,0.5,0,1,0,1.4h0c0,15.6,12.7,28.3,28.3,28.3s28.3-12.7,28.3-28.3c0-0.5,0-0.9,0-1.4c0-0.4-0.1-0.8-0.1-1.2c0-0.1,0-0.1,0-0.2
		c-0.5-4.7-2.1-9.1-4.6-12.9c0,0,0,0,0,0c-0.2-0.3-0.5-0.7-0.7-1c0,0-0.1-0.1-0.1-0.1c-0.2-0.3-0.5-0.6-0.7-0.9
		c-0.1-0.1-0.1-0.1-0.2-0.2c-0.2-0.3-0.5-0.5-0.7-0.8c-0.1-0.1-0.1-0.2-0.2-0.3c-0.3-0.3-0.6-0.6-0.9-0.9c0,0,0,0-0.1-0.1
		c0,0,0,0-0.1-0.1c-0.3-0.3-0.6-0.6-0.9-0.9C168.9,129,168.8,128.9,168.7,128.8z"/>
</g>
</svg>
