<svg xmlns="http://www.w3.org/2000/svg" xml:space="preserve" style="enable-background:new 0 0 300 300" viewBox="0 0 300 300"><path d="M.4.4H300V300H.4z" style="fill:#6f269e"/><path d="M265.6 131.7v-.9l-1.7-12.6c-.2-1.5-.9-2.9-1.9-4.1l-.3-.3-.5-.5-29.7-25.5.8.8c-.7-.8-1.5-1.5-2.5-1.9-1-.4-2-.7-3.1-.6h-9c-1.5 0-2.9.4-4.1 1.3-1.2-.9-2.7-1.3-4.2-1.3h-9c-1.2 0-2.3.3-3.4.8s-1.9 1.4-2.5 2.4c-.9 1.4-1.3 3.2-1 4.9l1.1 7.9c-.7-.4-1.6-.6-2.4-.6h-43.6c-1.6 0-3.1.5-4.4 1.3-1.3.8-2.3 1.9-2.9 3.3l-3.4-2.9c-1.3-1.2-3.1-1.9-4.9-1.9H64.6c-1.6 0-3.1.5-4.5 1.3-1.8 1.1-3.2 2.8-3.8 4.9L34.7 180c-.4 1.2-.4 2.5-.1 3.7.3 1.2 1 2.3 2 3.1.2.2.5.4.8.6 0 0-.4-.3-.7-.5l29.7 25.6c1.3 1.2 2.9 1.8 4.6 1.8h69c1.6 0 3.1-.5 4.5-1.3.8-.4 1.4-1 2-1.6l.2-.3.4-.5.3-.5 3.2 2.8c1.2 1.1 2.8 1.7 4.5 1.7h69.1c1.6-.1 3.1-.5 4.5-1.3.7-.4 1.4-1 2-1.6l.2-.3.4-.5c.2-.3.4-.6.5-1 .2-.3.3-.6.4-.9l19.8-66.3v-3h6.4c.6.1 1.1.1 1.7 0h.4c.4-.1.7-.3 1-.4h.5l.9-.7.4-.3.7-.9v-.3l.5-.8v-.7c.1-.3.2-.6.2-.9v-.7c-.1-.3.9-2.2.9-2.3z" style="fill:#4b1277"/><path d="M135.1 106.8c.3.2.4.5.5.9.1.3.1.7-.1 1l-21.7 72.5c-.3.8-.8 1.5-1.6 1.9-.6.4-1.3.6-2 .7H41.3c-.6 0-1.1-.3-1.6-.7-.2-.2-.4-.5-.5-.9-.1-.3-.1-.7.1-1L61 108.7c.3-.8.8-1.5 1.5-1.9.6-.4 1.3-.6 2-.6h68.9c.7 0 1.3.2 1.7.6zm-36 59.8 13-43.3H75.8l-12.9 43.3h36.2m101.8-59c.2.3.5.5.9.6.3.1.7.2 1 .2h9c.3 0 .7-.1 1-.2.3-.2.6-.4.7-.7.2-.2.3-.5.3-.7.1-.3.1-.5 0-.8L212 93c-.2-.6-.5-1.1-.9-1.6-.2-.3-.5-.5-.9-.6-.3-.1-.7-.2-1-.2h-9c-.3 0-.7.1-1 .2-.3.2-.6.4-.7.7-.3.7-.5 1.1-.3 1.5l1.8 12.9c.1.6.4 1.2.9 1.7zm28.4-14.7c-.2-.6-.5-1.1-.9-1.6-.2-.3-.5-.5-.8-.6-.3-.1-.7-.2-1-.2h-9c-.3 0-.7.1-1 .2-.3.2-.5.4-.7.7-.3.4-.5 1-.4 1.5l1.8 12.9c.1.6.4 1.2.8 1.7.2.3.5.5.9.6s.7.2 1 .2h9c.3 0 .7-.1 1-.2.3-.2.5-.4.7-.7.2-.2.3-.5.3-.7.1-.3.1-.6 0-.8l-1.7-13zM193 112.4l-.9-6.4h-43.4c-.7 0-1.3.3-1.9.6-.4.2-.7.5-.9.8-.2.3-.4.7-.5 1.1l-3.6 12.1c-.1.3-.2.6-.1 1 .1.3.2.6.4.9.4.4 1 .6 1.5.6h52.8l-13 43.3h-52.6c-.7 0-1.3.2-1.9.6-.7.4-1.2 1.1-1.4 1.9l-3.7 12.1c-.1.3-.2.6-.1 1 .1.3.2.6.4.9.4.4.9.7 1.5.7h69.1c.7-.1 1.4-.3 2-.7.7-.4 1.3-1.1 1.5-1.9l19.9-66.3h-22.4c-.4 0-.7-.1-1-.2-.3-.1-.6-.3-.9-.6-.4-.2-.7-.8-.8-1.5z" style="fill:#fff"/></svg>