<?xml version="1.0" encoding="utf-8"?>
<!-- Generator: Adobe Illustrator 25.2.0, SVG Export Plug-In . SVG Version: 6.00 Build 0)  -->
<svg version="1.1" id="Calque_1" xmlns="http://www.w3.org/2000/svg" xmlns:xlink="http://www.w3.org/1999/xlink" x="0px" y="0px"
	 viewBox="0 0 300 300" style="enable-background:new 0 0 300 300;" xml:space="preserve">
<style type="text/css">
	.st0{fill:#442781;}
	.st1{fill:#61459C;}
	.st2{fill:#A992DB;}
	.st3{fill:#FF7917;}
</style>
<g>
	<path class="st0" d="M51.8,173.1c0-9.9,1.9-19.6,5.7-28.7c3.8-9.1,9.3-17.4,16.3-24.3c7-7,15.2-12.5,24.3-16.3
		c9.1-3.8,18.9-5.7,28.7-5.7v75H51.8z"/>
	<path class="st1" d="M51.8,173.1c0,9.9,1.9,19.6,5.7,28.7c3.8,9.1,9.3,17.4,16.3,24.3c7,7,15.2,12.5,24.3,16.3
		c9.1,3.8,18.9,5.7,28.7,5.7v-75H51.8z"/>
	<path class="st2" d="M201.9,173.1c0,9.9-1.9,19.6-5.7,28.7c-3.8,9.1-9.3,17.4-16.3,24.3c-7,7-15.2,12.5-24.3,16.3
		c-9.1,3.8-18.9,5.7-28.7,5.7v-75H201.9z"/>
	<path class="st3" d="M248.2,108.2c0,31.1-25.2,56.3-56.3,56.3h-56.3v-56.3c0-31.1,25.2-56.3,56.3-56.3S248.2,77.1,248.2,108.2z"/>
</g>
</svg>
