<?xml version="1.0" encoding="utf-8"?>
<!-- Generator: Adobe Illustrator 25.2.0, SVG Export Plug-In . SVG Version: 6.00 Build 0)  -->
<svg version="1.1" id="Calque_1" xmlns="http://www.w3.org/2000/svg" xmlns:xlink="http://www.w3.org/1999/xlink" x="0px" y="0px"
	 viewBox="0 0 300 300" style="enable-background:new 0 0 300 300;" xml:space="preserve">
<style type="text/css">
	.st0{fill:#3064E8;}
	.st1{fill-rule:evenodd;clip-rule:evenodd;fill:#FFFFFF;}
	.st2{fill:#FFFFFF;}
</style>
<rect x="0.4" y="0.4" class="st0" width="299.6" height="299.6"/>
<g>
	<path class="st1" d="M171.7,204.3c5.7,0,11.3-1.1,16.6-3.3c5.3-2.2,10.1-5.4,14.1-9.4c4-4,7.2-8.8,9.4-14.1
		c2.2-5.3,3.3-10.9,3.3-16.6c0-17.3-6.9-33.8-19.1-46c-12.2-12.2-28.8-19.1-46-19.1s-33.8,6.9-46,19.1c-12.2,12.2-19.1,28.8-19.1,46
		c0,5.7,1.1,11.3,3.3,16.6c2.2,5.3,5.4,10.1,9.4,14.1c4,4,8.8,7.2,14.1,9.4c5.3,2.2,10.9,3.3,16.6,3.3H171.7z M150,113.1
		c-12.7,0-24.8,5-33.8,14s-14,21.1-14,33.8c0,3.4,0.7,6.8,2,10c1.3,3.2,3.2,6,5.6,8.5c2.4,2.4,5.3,4.3,8.5,5.6c3.2,1.3,6.5,2,10,2
		h43.4c3.4,0,6.8-0.7,10-2c3.2-1.3,6-3.2,8.5-5.6c2.4-2.4,4.3-5.3,5.6-8.5c1.3-3.2,2-6.5,2-10c0-12.7-5-24.8-14-33.8
		C174.8,118.1,162.7,113.1,150,113.1z"/>
	<path class="st1" d="M119.6,226c-7.4,0-14.8-1.7-21.6-5c-6.8-3.3-13.1-8.1-18.3-14.1c-5.2-6-9.4-13.2-12.2-21.1
		c-2.8-7.9-4.3-16.4-4.3-24.9c0-23,9.1-45.1,25.4-61.4C104.9,83.2,127,74,150,74s45.1,9.1,61.4,25.4c16.3,16.3,25.4,38.4,25.4,61.4
		c0,8.6-1.5,17-4.3,24.9c-2.8,7.9-7,15.1-12.2,21.1c-5.2,6-11.5,10.8-18.3,14.1c-6.8,3.3-14.2,5-21.6,5H119.6z M100.9,111.7
		c13-13,30.7-20.3,49.1-20.3s36.1,7.3,49.1,20.3c13,13,20.3,30.7,20.3,49.1c0,6.6-1.1,13.1-3.3,19.1c-2.1,6-5.2,11.3-9,15.6
		c-3.8,4.3-8.1,7.6-12.7,9.8c-4.6,2.2-9.4,3.3-14.1,3.3h-60.8c-4.8,0-9.5-1.1-14.1-3.3c-4.6-2.2-8.9-5.5-12.7-9.8
		c-3.8-4.3-6.9-9.6-9-15.6c-2.1-6-3.3-12.5-3.3-19.1C80.5,142.4,87.9,124.8,100.9,111.7z"/>
	<path class="st2" d="M171.7,182.6H150c-1.5,0-2.9-0.1-4.3-0.4c-2.7-0.6-5.4-1.6-7.7-3.2c-3.6-2.4-6.4-5.8-8-9.7
		c-0.5-1.3-0.9-2.6-1.2-4c-0.6-2.8-0.6-5.7,0-8.6c0.8-4.2,2.9-8.1,5.9-11.1c3-3,6.9-5.1,11.1-5.9c0.1,0,0.3-0.1,0.4-0.1
		c1.3-0.2,2.6-0.3,3.8-0.3c2.8,0,5.7,0.6,8.3,1.7c4,1.6,7.4,4.4,9.7,8c2.4,3.6,3.7,7.8,3.7,12.1h-17.4c0-0.9-0.3-1.7-0.7-2.4
		c-0.5-0.7-1.2-1.3-1.9-1.6c-0.8-0.3-1.7-0.4-2.5-0.2c-0.8,0.2-1.6,0.6-2.2,1.2c-0.6,0.6-1,1.4-1.2,2.2c-0.2,0.8-0.1,1.7,0.2,2.5
		c0.3,0.8,0.9,1.5,1.6,1.9c0.7,0.5,1.6,0.7,2.4,0.7h21.7c0.6,0,1.1-0.1,1.7-0.3c0.5-0.2,1-0.5,1.4-0.9s0.7-0.9,0.9-1.4
		c0.2-0.5,0.3-1.1,0.3-1.7c0-6.9-2.7-13.5-7.6-18.4c-4.9-4.9-11.5-7.6-18.4-7.6c-0.7,0-1.5,0-2.2,0.1c-1.8,0.2-3.6,0.5-5.3,1
		c-1.7,0.5-3.3,1.2-4.9,2.1c-1.8,1-3.5,2.2-5,3.6c-0.3,0.3-0.6,0.6-0.9,0.9c-2.1,2.1-3.9,4.6-5.1,7.3c-0.6,1.3-1.2,2.7-1.5,4.2
		c-0.5,1.6-0.7,3.3-0.9,5c0,0.6-0.1,1.3-0.1,1.9c0,3.4,0.7,6.8,2,10c2,4.8,5.3,8.8,9.6,11.7c0,0,0,0,0.1,0h-7.3
		c-2.9,0-5.7-0.6-8.3-1.7c-2.6-1.1-5-2.7-7-4.7c-2-2-3.6-4.4-4.7-7s-1.7-5.5-1.7-8.3c0-11.5,4.6-22.6,12.7-30.7
		c8.1-8.1,19.2-12.7,30.7-12.7s22.6,4.6,30.7,12.7c8.1,8.1,12.7,19.2,12.7,30.7c0,2.9-0.6,5.7-1.7,8.3s-2.7,5-4.7,7s-4.4,3.6-7,4.7
		C177.4,182,174.6,182.6,171.7,182.6z"/>
</g>
</svg>
