<svg xmlns="http://www.w3.org/2000/svg" viewBox="0 0 250 250"><path d="M125,249a36.17,36.17,0,0,1-18.09-4.83l-76-43.91a36.28,36.28,0,0,1-18.09-31.33V81.09A36.28,36.28,0,0,1,30.86,49.76L106.91,5.85a36.29,36.29,0,0,1,36.18,0l76,43.91a36.28,36.28,0,0,1,18.09,31.33v87.82a36.28,36.28,0,0,1-18.09,31.33l-76,43.91A36.17,36.17,0,0,1,125,249ZM125,6.55a30.69,30.69,0,0,0-15.32,4.09L33.63,54.55A30.73,30.73,0,0,0,18.3,81.09v87.82a30.73,30.73,0,0,0,15.33,26.54l76.05,43.91a30.75,30.75,0,0,0,30.64,0l76.05-43.91a30.73,30.73,0,0,0,15.33-26.54V81.09a30.73,30.73,0,0,0-15.33-26.54L140.32,10.64A30.69,30.69,0,0,0,125,6.55Z" fill="#a78bfa"/><path d="M101.59,170c-6.49,0-11.91-2-15.77-5.84-6-6-7.44-15.8-4-27.54C85.17,125.29,92.69,113.35,103,103s22.26-17.87,33.61-21.2c11.74-3.45,21.52-2,27.54,4h0c6,6,7.44,15.8,4,27.54-3.34,11.35-10.86,23.28-21.2,33.61s-22.27,17.86-33.61,21.2A41.87,41.87,0,0,1,101.59,170Zm46.82-86.29a38.13,38.13,0,0,0-10.71,1.7c-10.76,3.16-22.13,10.35-32,20.24s-17.09,21.27-20.25,32c-3.05,10.36-2,18.82,3,23.83s13.47,6.09,23.83,3c10.76-3.16,22.13-10.35,32-20.24s17.08-21.27,20.24-32c3.05-10.36,2-18.82-3-23.83h0c-3.14-3.14-7.65-4.74-13.13-4.74Zm-12.16,50.65c0-12.34-8.29-20.63-20.63-20.63a1.88,1.88,0,0,0,0,3.75c10.25,0,16.88,6.63,16.88,16.88a1.88,1.88,0,0,0,3.75,0Zm15-15c0-12.34-8.28-20.62-20.62-20.62a1.88,1.88,0,1,0,0,3.75c10.25,0,16.87,6.62,16.87,16.87a1.88,1.88,0,1,0,3.75,0Zm-30,30c0-12.34-8.29-20.63-20.63-20.63a1.88,1.88,0,0,0,0,3.75c10.25,0,16.88,6.63,16.88,16.88a1.88,1.88,0,0,0,3.75,0Z" fill="#a78bfa"/></svg>