<svg xmlns="http://www.w3.org/2000/svg" viewBox="0 0 250 250"><path d="M125,249a36.17,36.17,0,0,1-18.09-4.83l-76-43.91a36.28,36.28,0,0,1-18.09-31.33V81.09A36.28,36.28,0,0,1,30.86,49.76L106.91,5.85a36.29,36.29,0,0,1,36.18,0l76,43.91a36.28,36.28,0,0,1,18.09,31.33v87.82a36.28,36.28,0,0,1-18.09,31.33l-76,43.91A36.17,36.17,0,0,1,125,249ZM125,6.55a30.69,30.69,0,0,0-15.32,4.09L33.63,54.55A30.73,30.73,0,0,0,18.3,81.09v87.82a30.73,30.73,0,0,0,15.33,26.54l76.05,43.91a30.75,30.75,0,0,0,30.64,0l76.05-43.91a30.73,30.73,0,0,0,15.33-26.54V81.09a30.73,30.73,0,0,0-15.33-26.54L140.32,10.64A30.69,30.69,0,0,0,125,6.55Z" fill="#a78bfa"/><path d="M120.65,157.57h0a8.31,8.31,0,0,1-2.52,6l-11.18,11a2.24,2.24,0,0,1-1.52.61,2.18,2.18,0,0,1-1.56-.66,2.22,2.22,0,0,1,0-3.08L115,160.48a4.62,4.62,0,0,0,.61-.78H92.39a15.23,15.23,0,0,1-15.22-15.22v-13a2.18,2.18,0,1,1,4.35,0v13a10.87,10.87,0,0,0,10.87,10.87h23.3a3.84,3.84,0,0,0-.65-.82l-11.17-10.92a2.18,2.18,0,1,1,3.08-3.09l11.18,10.92a8.61,8.61,0,0,1,2.52,6Zm11.22-59.1,11.18,10.92a2.24,2.24,0,0,0,1.52.61,2.2,2.2,0,0,0,1.56-3.74L135,95.34a3.84,3.84,0,0,1-.65-.82h23.3a10.87,10.87,0,0,1,10.87,10.87v13a2.18,2.18,0,1,0,4.35,0v-13a15.23,15.23,0,0,0-15.22-15.22h-23.3a3.49,3.49,0,0,1,.6-.78l11.18-10.92A2.18,2.18,0,1,0,143,75.38l-11.17,11a8.72,8.72,0,0,0-2.53,6h0a8.67,8.67,0,0,0,2.53,6Zm45.31,46.1V162A15.24,15.24,0,0,1,162,177.18H144.57A15.24,15.24,0,0,1,129.35,162V144.57a15.24,15.24,0,0,1,15.22-15.22H162A15.24,15.24,0,0,1,177.18,144.57Zm-4.35,0A10.87,10.87,0,0,0,162,133.7H144.57a10.87,10.87,0,0,0-10.87,10.87V162a10.87,10.87,0,0,0,10.87,10.87H162A10.87,10.87,0,0,0,172.83,162ZM120.65,88v17.39a15.24,15.24,0,0,1-15.22,15.22H88a15.24,15.24,0,0,1-15.22-15.22V88A15.24,15.24,0,0,1,88,72.82h17.39A15.24,15.24,0,0,1,120.65,88Zm-4.35,0a10.87,10.87,0,0,0-10.87-10.87H88A10.87,10.87,0,0,0,77.17,88v17.39A10.87,10.87,0,0,0,88,116.3h17.39a10.87,10.87,0,0,0,10.87-10.87Z" fill="#a78bfa"/></svg>