<svg xmlns="http://www.w3.org/2000/svg" viewBox="0 0 250 250"><path d="M125,249a36.17,36.17,0,0,1-18.09-4.83l-76-43.91a36.28,36.28,0,0,1-18.09-31.33V81.09A36.28,36.28,0,0,1,30.86,49.76L106.91,5.85a36.29,36.29,0,0,1,36.18,0l76,43.91a36.28,36.28,0,0,1,18.09,31.33v87.82a36.28,36.28,0,0,1-18.09,31.33l-76,43.91A36.17,36.17,0,0,1,125,249ZM125,6.55a30.69,30.69,0,0,0-15.32,4.09L33.63,54.55A30.73,30.73,0,0,0,18.3,81.09v87.82a30.73,30.73,0,0,0,15.33,26.54l76.05,43.91a30.75,30.75,0,0,0,30.64,0l76.05-43.91a30.73,30.73,0,0,0,15.33-26.54V81.09a30.73,30.73,0,0,0-15.33-26.54L140.32,10.64A30.69,30.69,0,0,0,125,6.55Z" fill="#a78bfa"/><path d="M109.76,130.1,68.74,145a2.13,2.13,0,0,0-.78,3.52L82.43,163,68,177.36A2.15,2.15,0,0,0,69.53,181a2.12,2.12,0,0,0,1.51-.63L85.46,166l14.46,14.47a2.18,2.18,0,0,0,1.52.62,2.4,2.4,0,0,0,.46,0,2.13,2.13,0,0,0,1.55-1.36l14.85-41,0,0a6.7,6.7,0,0,0-8.55-8.5Zm4.51,7.1L100.57,175,73.36,147.83l37.82-13.69a2.42,2.42,0,0,1,3.09,3.06Zm55.77-16A42.84,42.84,0,0,1,127.24,164a43.66,43.66,0,0,1-6.75-.53,2.14,2.14,0,0,1,.67-4.23,38.51,38.51,0,1,0-32.43-38,39.9,39.9,0,0,0,.47,6.09,2.14,2.14,0,0,1-4.22.66,43.47,43.47,0,0,1-.53-6.75,42.8,42.8,0,0,1,85.59,0Zm-21.4,0a21.39,21.39,0,0,0-42.7-2,2.17,2.17,0,0,1-2.33,1.94,2.15,2.15,0,0,1-1.94-2.32,25.68,25.68,0,1,1,27.91,27.9h-.2a2.14,2.14,0,0,1-.19-4.27,21.28,21.28,0,0,0,19.45-21.31Z" fill="#a78bfa"/></svg>