<svg xmlns="http://www.w3.org/2000/svg" viewBox="0 0 250 250"><path d="M125,249a36.17,36.17,0,0,1-18.09-4.83l-76-43.91a36.28,36.28,0,0,1-18.09-31.33V81.09A36.28,36.28,0,0,1,30.86,49.76L106.91,5.85a36.29,36.29,0,0,1,36.18,0l76,43.91a36.28,36.28,0,0,1,18.09,31.33v87.82a36.28,36.28,0,0,1-18.09,31.33l-76,43.91A36.17,36.17,0,0,1,125,249ZM125,6.55a30.69,30.69,0,0,0-15.32,4.09L33.63,54.55A30.73,30.73,0,0,0,18.3,81.09v87.82a30.73,30.73,0,0,0,15.33,26.54l76.05,43.91a30.75,30.75,0,0,0,30.64,0l76.05-43.91a30.73,30.73,0,0,0,15.33-26.54V81.09a30.73,30.73,0,0,0-15.33-26.54L140.32,10.64A30.69,30.69,0,0,0,125,6.55Z" fill="#a78bfa"/><path d="M136.34,152.22H113.66a15.91,15.91,0,0,1-15.88-15.88V113.66a15.91,15.91,0,0,1,15.88-15.88h22.68a15.91,15.91,0,0,1,15.88,15.88v22.68A15.91,15.91,0,0,1,136.34,152.22Zm-22.68-49.9a11.34,11.34,0,0,0-11.34,11.34v22.68a11.34,11.34,0,0,0,11.34,11.34h22.68a11.34,11.34,0,0,0,11.34-11.34V113.66a11.34,11.34,0,0,0-11.34-11.34Zm65.77,61.24V145.41a15.89,15.89,0,0,0-15.87-15.87,2.27,2.27,0,1,0,0,4.53,11.34,11.34,0,0,1,11.34,11.34v18.15a11.34,11.34,0,0,1-11.34,11.34H145.41a11.34,11.34,0,0,1-11.34-11.34,2.27,2.27,0,1,0-4.53,0,15.89,15.89,0,0,0,15.87,15.87h18.15A15.89,15.89,0,0,0,179.43,163.56ZM88.71,118.2a2.25,2.25,0,0,0-2.27-2.27A11.34,11.34,0,0,1,75.1,104.59V86.44A11.34,11.34,0,0,1,86.44,75.1h18.15a11.34,11.34,0,0,1,11.34,11.34,2.27,2.27,0,1,0,4.53,0,15.89,15.89,0,0,0-15.87-15.87H86.44A15.89,15.89,0,0,0,70.57,86.44v18.15a15.89,15.89,0,0,0,15.87,15.87A2.24,2.24,0,0,0,88.71,118.2Z" fill="#a78bfa"/></svg>