<svg xmlns="http://www.w3.org/2000/svg" viewBox="0 0 250 250"><path d="M125,249a36.17,36.17,0,0,1-18.09-4.83l-76-43.91a36.28,36.28,0,0,1-18.09-31.33V81.09A36.28,36.28,0,0,1,30.86,49.76L106.91,5.85a36.29,36.29,0,0,1,36.18,0l76,43.91a36.28,36.28,0,0,1,18.09,31.33v87.82a36.28,36.28,0,0,1-18.09,31.33l-76,43.91A36.17,36.17,0,0,1,125,249ZM125,6.55a30.69,30.69,0,0,0-15.32,4.09L33.63,54.55A30.73,30.73,0,0,0,18.3,81.09v87.82a30.73,30.73,0,0,0,15.33,26.54l76.05,43.91a30.75,30.75,0,0,0,30.64,0l76.05-43.91a30.73,30.73,0,0,0,15.33-26.54V81.09a30.73,30.73,0,0,0-15.33-26.54L140.32,10.64A30.69,30.69,0,0,0,125,6.55Z" fill="#a78bfa"/><path d="M148.68,106.47a5.64,5.64,0,0,1-3.86-3A30.79,30.79,0,0,0,87.12,111a31.23,31.23,0,0,0-.32,10.77,6.06,6.06,0,0,1-1.49,5.35A21.13,21.13,0,0,0,100,163.51h41.36c15.91,0,29.31-12.46,29.88-27.78a28.87,28.87,0,0,0-22.52-29.26Zm-7.36,53.19H100c-10,0-17.33-7.29-17.33-17.33A17.05,17.05,0,0,1,88,129.89a9.83,9.83,0,0,0,2.64-8.69,27.27,27.27,0,0,1,.28-9.44,26.87,26.87,0,0,1,21.22-20.93,28.16,28.16,0,0,1,5.14-.47,26.83,26.83,0,0,1,24.13,14.89,9.51,9.51,0,0,0,6.45,5,25,25,0,0,1,19.51,25.35c-.49,13.27-12.16,24.07-26,24.07Zm-3.74-34.08a1.93,1.93,0,0,1,0,2.72,1.89,1.89,0,0,1-1.36.56,1.93,1.93,0,0,1-1.36-.56L125,118.43v27.76a1.93,1.93,0,1,1-3.85,0V118.43l-9.86,9.87a1.93,1.93,0,0,1-2.73-2.72L119,115.15a5.78,5.78,0,0,1,3.34-1.55,1.9,1.9,0,0,1,1.48,0,5.66,5.66,0,0,1,3.35,1.55l10.43,10.43Z" fill="#a78bfa"/></svg>