<svg xmlns="http://www.w3.org/2000/svg" viewBox="0 0 250 250"><path d="M125,249a36.17,36.17,0,0,1-18.09-4.83l-76-43.91a36.28,36.28,0,0,1-18.09-31.33V81.09A36.28,36.28,0,0,1,30.86,49.76L106.91,5.85a36.29,36.29,0,0,1,36.18,0l76,43.91a36.28,36.28,0,0,1,18.09,31.33v87.82a36.28,36.28,0,0,1-18.09,31.33l-76,43.91A36.17,36.17,0,0,1,125,249ZM125,6.55a30.69,30.69,0,0,0-15.32,4.09L33.63,54.55A30.73,30.73,0,0,0,18.3,81.09v87.82a30.73,30.73,0,0,0,15.33,26.54l76.05,43.91a30.75,30.75,0,0,0,30.64,0l76.05-43.91a30.73,30.73,0,0,0,15.33-26.54V81.09a30.73,30.73,0,0,0-15.33-26.54L140.32,10.64A30.69,30.69,0,0,0,125,6.55Z" fill="#a78bfa"/><path d="M147,173H103a18,18,0,0,1-18-18V95a18,18,0,0,1,18-18h44a18,18,0,0,1,18,18v60A18,18,0,0,1,147,173ZM103,81A14,14,0,0,0,89,95v60a14,14,0,0,0,14,14h44a14,14,0,0,0,14-14V95a14,14,0,0,0-14-14Zm46,18a2,2,0,0,0-2-2H123a2,2,0,0,0,0,4h24A2,2,0,0,0,149,99Zm0,24a2,2,0,0,0-2-2H123a2,2,0,0,0,0,4h24A2,2,0,0,0,149,123Zm0,24a2,2,0,0,0-2-2H123a2,2,0,0,0,0,4h24A2,2,0,0,0,149,147Zm-38-42h-8a2,2,0,0,1-2-2V95a2,2,0,0,1,2-2h8a2,2,0,0,1,2,2v8A2,2,0,0,1,111,105Zm-6-4h4V97h-4Zm6,28h-8a2,2,0,0,1-2-2v-8a2,2,0,0,1,2-2h8a2,2,0,0,1,2,2v8A2,2,0,0,1,111,129Zm-6-4h4v-4h-4Zm6,28h-8a2,2,0,0,1-2-2v-8a2,2,0,0,1,2-2h8a2,2,0,0,1,2,2v8A2,2,0,0,1,111,153Zm-6-4h4v-4h-4Z" fill="#a78bfa"/></svg>