<svg xmlns="http://www.w3.org/2000/svg" viewBox="0 0 250 250"><path d="M125,249a36.17,36.17,0,0,1-18.09-4.83l-76-43.91a36.28,36.28,0,0,1-18.09-31.33V81.09A36.28,36.28,0,0,1,30.86,49.76L106.91,5.85a36.29,36.29,0,0,1,36.18,0l76,43.91a36.28,36.28,0,0,1,18.09,31.33v87.82a36.28,36.28,0,0,1-18.09,31.33l-76,43.91A36.17,36.17,0,0,1,125,249ZM125,6.55a30.69,30.69,0,0,0-15.32,4.09L33.63,54.55A30.73,30.73,0,0,0,18.3,81.09v87.82a30.73,30.73,0,0,0,15.33,26.54l76.05,43.91a30.75,30.75,0,0,0,30.64,0l76.05-43.91a30.73,30.73,0,0,0,15.33-26.54V81.09a30.73,30.73,0,0,0-15.33-26.54L140.32,10.64A30.69,30.69,0,0,0,125,6.55Z" fill="#a78bfa"/><path d="M143.62,75.35H106.38A18.64,18.64,0,0,0,87.76,94V156a18.64,18.64,0,0,0,18.62,18.62h37.24A18.64,18.64,0,0,0,162.24,156V94A18.64,18.64,0,0,0,143.62,75.35ZM158.1,156a14.5,14.5,0,0,1-14.48,14.48H106.38A14.5,14.5,0,0,1,91.9,156V94a14.5,14.5,0,0,1,14.48-14.48h37.24A14.5,14.5,0,0,1,158.1,94ZM145.69,98.11a2.07,2.07,0,0,1-2.07,2.06H106.38a2.07,2.07,0,1,1,0-4.13h37.24A2.07,2.07,0,0,1,145.69,98.11Zm0,20.68a2.07,2.07,0,0,1-2.07,2.07H106.38a2.07,2.07,0,0,1,0-4.14h37.24A2.07,2.07,0,0,1,145.69,118.79ZM125,139.48a2.07,2.07,0,0,1-2.07,2.07H106.38a2.07,2.07,0,1,1,0-4.14h16.55A2.07,2.07,0,0,1,125,139.48Z" fill="#a78bfa"/></svg>