<svg xmlns="http://www.w3.org/2000/svg" viewBox="0 0 250 250"><path d="M125,249a36.17,36.17,0,0,1-18.09-4.83l-76-43.91a36.28,36.28,0,0,1-18.09-31.33V81.09A36.28,36.28,0,0,1,30.86,49.76L106.91,5.85a36.29,36.29,0,0,1,36.18,0l76,43.91a36.28,36.28,0,0,1,18.09,31.33v87.82a36.28,36.28,0,0,1-18.09,31.33l-76,43.91A36.17,36.17,0,0,1,125,249ZM125,6.55a30.69,30.69,0,0,0-15.32,4.09L33.63,54.55A30.73,30.73,0,0,0,18.3,81.09v87.82a30.73,30.73,0,0,0,15.33,26.54l76.05,43.91a30.75,30.75,0,0,0,30.64,0l76.05-43.91a30.73,30.73,0,0,0,15.33-26.54V81.09a30.73,30.73,0,0,0-15.33-26.54L140.32,10.64A30.69,30.69,0,0,0,125,6.55Z" fill="#a78bfa"/><path d="M169,97.42,154.64,82A18.42,18.42,0,0,0,134,77.57L87.29,97.41a18.3,18.3,0,0,0-11.17,16.87v4.61a10.2,10.2,0,0,0,10.19,10.18h77.38a10.19,10.19,0,0,0,10.18-10.18v-9A18.3,18.3,0,0,0,169,97.42Zm-80.1,3.74,46.75-19.83a14.28,14.28,0,0,1,16,3.42L166,100.19a14.19,14.19,0,0,1,2.8,4.44H84a14.18,14.18,0,0,1,4.92-3.47Zm80.92,17.73a6.11,6.11,0,0,1-6.11,6.1H86.31a6.11,6.11,0,0,1-6.11-6.1v-4.61a14.34,14.34,0,0,1,1.13-5.58h88.42c0,.4.05.79.05,1.19Zm-6.11,34.61H86.31a10.19,10.19,0,1,0,0,20.37h77.38a10.19,10.19,0,0,0,0-20.37Zm0,16.3H86.31a6.11,6.11,0,0,1,0-12.22h77.38a6.11,6.11,0,1,1,0,12.22Zm10.18-24.44a2,2,0,0,1-2,2,2,2,0,0,1-1.33-.49s-4.35-3.68-5.35-4.45a5.87,5.87,0,0,0-7,0,14.49,14.49,0,0,1-17.42,0,5.88,5.88,0,0,0-7,0,14.49,14.49,0,0,1-17.42,0,5.88,5.88,0,0,0-7,0,14.49,14.49,0,0,1-17.42,0,5.87,5.87,0,0,0-7,0c-1,.77-5.35,4.45-5.35,4.45a2,2,0,0,1-2.77-3c.14-.14,4.76-4,5.62-4.7a10,10,0,0,1,12,0,10.32,10.32,0,0,0,12.44,0,10,10,0,0,1,12,0,10.32,10.32,0,0,0,12.44,0,10,10,0,0,1,12,0,10.32,10.32,0,0,0,12.44,0,10,10,0,0,1,12,0c.87.67,4.13,3.47,5.17,4.35a2,2,0,0,1,1.06,1.78Z" fill="#a78bfa"/></svg>