<svg xmlns="http://www.w3.org/2000/svg" viewBox="0 0 250 250"><path d="M125,249a36.17,36.17,0,0,1-18.09-4.83l-76-43.91a36.28,36.28,0,0,1-18.09-31.33V81.09A36.28,36.28,0,0,1,30.86,49.76L106.91,5.85a36.29,36.29,0,0,1,36.18,0l76,43.91a36.28,36.28,0,0,1,18.09,31.33v87.82a36.28,36.28,0,0,1-18.09,31.33l-76,43.91A36.17,36.17,0,0,1,125,249ZM125,6.55a30.69,30.69,0,0,0-15.32,4.09L33.63,54.55A30.73,30.73,0,0,0,18.3,81.09v87.82a30.73,30.73,0,0,0,15.33,26.54l76.05,43.91a30.75,30.75,0,0,0,30.64,0l76.05-43.91a30.73,30.73,0,0,0,15.33-26.54V81.09a30.73,30.73,0,0,0-15.33-26.54L140.32,10.64A30.69,30.69,0,0,0,125,6.55Z" fill="#a78bfa"/><path d="M133.21,167.57a2,2,0,0,1-2,2H106.8a18.32,18.32,0,0,1-18.29-18.29V90.36A18.31,18.31,0,0,1,106.8,72.08h36.57a18.3,18.3,0,0,1,18.28,18.28v16.26a2,2,0,0,1-4.06,0V90.36a14.24,14.24,0,0,0-14.22-14.22H106.8A14.24,14.24,0,0,0,92.58,90.36v61a14.24,14.24,0,0,0,14.22,14.23h24.38A2,2,0,0,1,133.21,167.57ZM145.4,94.43a2,2,0,0,0-2-2H106.8a2,2,0,0,0,0,4.06h36.57A2,2,0,0,0,145.4,94.43Zm-8.13,20.31a2,2,0,0,0-2-2H106.8a2,2,0,0,0,0,4.07h28.44A2,2,0,0,0,137.27,114.74ZM106.8,133a2,2,0,1,0,0,4.06h16.25a2,2,0,1,0,0-4.06ZM186,143.19a26.41,26.41,0,1,1-26.41-26.41A26.44,26.44,0,0,1,186,143.19Zm-4.06,0a22.35,22.35,0,1,0-22.35,22.35A22.38,22.38,0,0,0,182,143.19Zm-13.6-3.58-9,8.65a3.58,3.58,0,0,1-5,0l-4.59-4.5a2,2,0,1,0-2.84,2.9l4.59,4.51a7.67,7.67,0,0,0,5.34,2.15,7.57,7.57,0,0,0,5.32-2.16l9-8.63a2,2,0,1,0-2.82-2.93Z" fill="#a78bfa"/></svg>