<svg xmlns="http://www.w3.org/2000/svg" viewBox="0 0 250 250"><path d="M125,249a36.17,36.17,0,0,1-18.09-4.83l-76-43.91a36.28,36.28,0,0,1-18.09-31.33V81.09A36.28,36.28,0,0,1,30.86,49.76L106.91,5.85a36.29,36.29,0,0,1,36.18,0l76,43.91a36.28,36.28,0,0,1,18.09,31.33v87.82a36.28,36.28,0,0,1-18.09,31.33l-76,43.91A36.17,36.17,0,0,1,125,249ZM125,6.55a30.69,30.69,0,0,0-15.32,4.09L33.63,54.55A30.73,30.73,0,0,0,18.3,81.09v87.82a30.73,30.73,0,0,0,15.33,26.54l76.05,43.91a30.75,30.75,0,0,0,30.64,0l76.05-43.91a30.73,30.73,0,0,0,15.33-26.54V81.09a30.73,30.73,0,0,0-15.33-26.54L140.32,10.64A30.69,30.69,0,0,0,125,6.55Z" fill="#a78bfa"/><path d="M133.91,137.11a2,2,0,0,1-.28,2.86,23.35,23.35,0,0,1-14.7,5.4,18.92,18.92,0,0,1-9.65-2.88,2,2,0,0,1,2.07-3.5,15,15,0,0,0,7.58,2.31,19.22,19.22,0,0,0,12.12-4.48,2,2,0,0,1,2.86.28Zm38.33-37.18a10.2,10.2,0,0,1-8.63,4.75h-5a36.11,36.11,0,0,1,3,14.24,43.74,43.74,0,0,1-42.74,42.73,32.45,32.45,0,0,1-14.25-3.53v5.49a10.21,10.21,0,0,1-4.74,8.63,10.07,10.07,0,0,1-5.42,1.6,9.78,9.78,0,0,1-4.16-.93,30.6,30.6,0,0,1-13.27-13.2,9.92,9.92,0,0,1,.67-9.58,10.2,10.2,0,0,1,8.63-4.75h5.55a32.24,32.24,0,0,1-3.53-14.24A43.76,43.76,0,0,1,131.14,88.4a36.05,36.05,0,0,1,14.24,3v-5a10.2,10.2,0,0,1,4.75-8.63,9.94,9.94,0,0,1,9.59-.67,30.55,30.55,0,0,1,13.19,13.26,9.94,9.94,0,0,1-.67,9.59Zm-3-7.87A26.57,26.57,0,0,0,158,80.77a5.84,5.84,0,0,0-5.69.41,6.16,6.16,0,0,0-2.86,5.2V94.9a2,2,0,0,1-3.18,1.69c-4.2-2.85-10.63-4.12-15.14-4.12a39.66,39.66,0,0,0-38.66,38.66,29.91,29.91,0,0,0,4.63,15.25,2,2,0,0,1,0,2,2,2,0,0,1-1.77,1h-9a6.12,6.12,0,0,0-5.2,2.87,5.82,5.82,0,0,0-.41,5.68,26.39,26.39,0,0,0,11.28,11.22,5.79,5.79,0,0,0,5.68-.41,6.15,6.15,0,0,0,2.87-5.2V154.7a2,2,0,0,1,3.07-1.75,30,30,0,0,0,15.24,4.63,39.66,39.66,0,0,0,38.67-38.66c0-4.51-1.27-10.94-4.12-15.13a2,2,0,0,1,1.68-3.19h8.46a6.13,6.13,0,0,0,5.19-2.86,5.85,5.85,0,0,0,.42-5.68Z" fill="#a78bfa"/></svg>