<svg xmlns="http://www.w3.org/2000/svg" viewBox="0 0 250 250"><path d="M125,249a36.17,36.17,0,0,1-18.09-4.83l-76-43.91a36.28,36.28,0,0,1-18.09-31.33V81.09A36.28,36.28,0,0,1,30.86,49.76L106.91,5.85a36.29,36.29,0,0,1,36.18,0l76,43.91a36.28,36.28,0,0,1,18.09,31.33v87.82a36.28,36.28,0,0,1-18.09,31.33l-76,43.91A36.17,36.17,0,0,1,125,249ZM125,6.55a30.69,30.69,0,0,0-15.32,4.09L33.63,54.55A30.73,30.73,0,0,0,18.3,81.09v87.82a30.73,30.73,0,0,0,15.33,26.54l76.05,43.91a30.75,30.75,0,0,0,30.64,0l76.05-43.91a30.73,30.73,0,0,0,15.33-26.54V81.09a30.73,30.73,0,0,0-15.33-26.54L140.32,10.64A30.69,30.69,0,0,0,125,6.55Z" fill="#a78bfa"/><path d="M150.06,70.33H99.94a20.52,20.52,0,0,0-20.5,20.5v68.34a20.52,20.52,0,0,0,20.5,20.5h50.12a20.52,20.52,0,0,0,20.5-20.5V90.83A20.52,20.52,0,0,0,150.06,70.33ZM166,159.17a16,16,0,0,1-15.95,16H99.94a16,16,0,0,1-16-16V90.83a16,16,0,0,1,16-16h50.12a16,16,0,0,1,15.95,16ZM141,88.55h-31.9a6.85,6.85,0,0,0-6.83,6.83v54.68a11.4,11.4,0,0,0,11.39,11.39h22.78a11.4,11.4,0,0,0,11.39-11.39V95.38A6.85,6.85,0,0,0,141,88.55Zm-34.17,59.23V125h36.44v22.78Zm2.27-54.67H141a2.27,2.27,0,0,1,2.27,2.27v25.06H106.78V95.38A2.27,2.27,0,0,1,109.05,93.11Zm27.34,63.78H113.61a6.84,6.84,0,0,1-6.44-4.55h35.66A6.84,6.84,0,0,1,136.39,156.89Z" fill="#a78bfa"/></svg>