<svg xmlns="http://www.w3.org/2000/svg" viewBox="0 0 250 250"><path d="M125,249a36.17,36.17,0,0,1-18.09-4.83l-76-43.91a36.28,36.28,0,0,1-18.09-31.33V81.09A36.28,36.28,0,0,1,30.86,49.76L106.91,5.85a36.29,36.29,0,0,1,36.18,0l76,43.91a36.28,36.28,0,0,1,18.09,31.33v87.82a36.28,36.28,0,0,1-18.09,31.33l-76,43.91A36.17,36.17,0,0,1,125,249ZM125,6.55a30.69,30.69,0,0,0-15.32,4.09L33.63,54.55A30.73,30.73,0,0,0,18.3,81.09v87.82a30.73,30.73,0,0,0,15.33,26.54l76.05,43.91a30.75,30.75,0,0,0,30.64,0l76.05-43.91a30.73,30.73,0,0,0,15.33-26.54V81.09a30.73,30.73,0,0,0-15.33-26.54L140.32,10.64A30.69,30.69,0,0,0,125,6.55Z" fill="#a78bfa"/><path d="M155.51,84.32h-61a18.32,18.32,0,0,0-18.31,18.3v44.76a18.32,18.32,0,0,0,18.31,18.3h61a18.32,18.32,0,0,0,18.31-18.3V102.62A18.32,18.32,0,0,0,155.51,84.32Zm14.24,18.3v18.31H100.59V88.39h54.92A14.25,14.25,0,0,1,169.75,102.62Zm-89.5,44.76V102.62A14.25,14.25,0,0,1,94.49,88.39h2v73.22h-2A14.25,14.25,0,0,1,80.25,147.38Zm75.26,14.23H100.59V125h69.16v22.38A14.25,14.25,0,0,1,155.51,161.61Z" fill="#a78bfa"/></svg>