<svg xmlns="http://www.w3.org/2000/svg" viewBox="0 0 250 250"><path d="M125,249a36.17,36.17,0,0,1-18.09-4.83l-76-43.91a36.28,36.28,0,0,1-18.09-31.33V81.09A36.28,36.28,0,0,1,30.86,49.76L106.91,5.85a36.29,36.29,0,0,1,36.18,0l76,43.91a36.28,36.28,0,0,1,18.09,31.33v87.82a36.28,36.28,0,0,1-18.09,31.33l-76,43.91A36.17,36.17,0,0,1,125,249ZM125,6.55a30.69,30.69,0,0,0-15.32,4.09L33.63,54.55A30.73,30.73,0,0,0,18.3,81.09v87.82a30.73,30.73,0,0,0,15.33,26.54l76.05,43.91a30.75,30.75,0,0,0,30.64,0l76.05-43.91a30.73,30.73,0,0,0,15.33-26.54V81.09a30.73,30.73,0,0,0-15.33-26.54L140.32,10.64A30.69,30.69,0,0,0,125,6.55Z" fill="#a78bfa"/><path d="M160.58,172.44H89.42a21.38,21.38,0,0,1-21.35-21.35V98.91A21.38,21.38,0,0,1,89.42,77.56h71.16a21.38,21.38,0,0,1,21.35,21.35v52.18A21.38,21.38,0,0,1,160.58,172.44ZM89.42,82.3A16.63,16.63,0,0,0,72.81,98.91v52.18A16.63,16.63,0,0,0,89.42,167.7h71.16a16.63,16.63,0,0,0,16.61-16.61V98.91A16.63,16.63,0,0,0,160.58,82.3Zm66.42,47.44H132.12a7.12,7.12,0,0,1-7.12-7.11V108.4a7.12,7.12,0,0,1,7.12-7.12h23.72A7.12,7.12,0,0,1,163,108.4v14.23A7.12,7.12,0,0,1,155.84,129.74ZM132.12,106a2.39,2.39,0,0,0-2.38,2.38v14.23a2.38,2.38,0,0,0,2.38,2.37h23.72a2.37,2.37,0,0,0,2.37-2.37V108.4a2.38,2.38,0,0,0-2.37-2.38Zm-16.61,21.35a2.37,2.37,0,0,0-2.37-2.37H89.42a2.37,2.37,0,0,0,0,4.74h23.72A2.37,2.37,0,0,0,115.51,127.37Zm47.44,19a2.37,2.37,0,0,0-2.37-2.37H89.42a2.37,2.37,0,1,0,0,4.74h71.16A2.37,2.37,0,0,0,163,146.35Z" fill="#a78bfa"/></svg>