<svg xmlns="http://www.w3.org/2000/svg" viewBox="0 0 250 250"><path d="M125,249a36.17,36.17,0,0,1-18.09-4.83l-76-43.91a36.28,36.28,0,0,1-18.09-31.33V81.09A36.28,36.28,0,0,1,30.86,49.76L106.91,5.85a36.29,36.29,0,0,1,36.18,0l76,43.91a36.28,36.28,0,0,1,18.09,31.33v87.82a36.28,36.28,0,0,1-18.09,31.33l-76,43.91A36.17,36.17,0,0,1,125,249ZM125,6.55a30.69,30.69,0,0,0-15.32,4.09L33.63,54.55A30.73,30.73,0,0,0,18.3,81.09v87.82a30.73,30.73,0,0,0,15.33,26.54l76.05,43.91a30.75,30.75,0,0,0,30.64,0l76.05-43.91a30.73,30.73,0,0,0,15.33-26.54V81.09a30.73,30.73,0,0,0-15.33-26.54L140.32,10.64A30.69,30.69,0,0,0,125,6.55Z" fill="#a78bfa"/><path d="M125,179.18a2.26,2.26,0,0,1-2.26-2.25V161.05a35.79,35.79,0,0,1-13.94-3.77l-8,13.71a2.27,2.27,0,0,1-3.09.82,2.25,2.25,0,0,1-.82-3.08l8-13.73A36.3,36.3,0,0,1,95,145.08l-13.66,8A2.26,2.26,0,1,1,79,149.13l13.66-7.95a35.77,35.77,0,0,1-3.76-13.93H73.07a2.26,2.26,0,1,1,0-4.52H88.94a35.94,35.94,0,0,1,3.78-14l-13.7-8a2.26,2.26,0,1,1,2.26-3.91l13.72,8a36.6,36.6,0,0,1,10-10L97,81.22A2.26,2.26,0,1,1,101,79l8,13.7a35.82,35.82,0,0,1,13.83-3.72V73.07a2.26,2.26,0,0,1,4.52,0V88.94a35.65,35.65,0,0,1,13.88,3.75l8-13.73A2.26,2.26,0,0,1,153,81.23l-8,13.73a36.45,36.45,0,0,1,10,10l13.76-8a2.26,2.26,0,1,1,2.28,3.91l-13.76,8a35.85,35.85,0,0,1,3.76,13.92h15.87a2.26,2.26,0,0,1,0,4.52H161.06a35.79,35.79,0,0,1-3.75,13.9l13.72,8a2.28,2.28,0,0,1,.82,3.09,2.3,2.3,0,0,1-3.1.82l-13.72-8a36.26,36.26,0,0,1-9.88,9.91l8,13.76a2.26,2.26,0,0,1-3.92,2.27l-8-13.74a35.84,35.84,0,0,1-14,3.8v15.87a2.26,2.26,0,0,1-2.25,2.26Zm0-85.79A31.61,31.61,0,1,0,156.61,125,31.65,31.65,0,0,0,125,93.39Zm0,54.18a22.64,22.64,0,0,1-16.78-7.46,22.36,22.36,0,0,1-5.68-17.51,22.79,22.79,0,0,1,18.86-19.89,24.58,24.58,0,0,1,9.45.38,5,5,0,0,1,2.23,8.5,17.5,17.5,0,0,0-5.83,12.49c0,4.92,2.73,10,7.29,13.52a5,5,0,0,1-1.39,8.69,26.1,26.1,0,0,1-8.16,1.29Zm.14-40.64a18.6,18.6,0,0,0-3,.24A18.22,18.22,0,0,0,107,123.07a17.9,17.9,0,0,0,4.54,14,18.15,18.15,0,0,0,13.43,6,22.12,22.12,0,0,0,6.63-1,.51.51,0,0,0,.32-.4.47.47,0,0,0-.18-.47c-5.65-4.41-9-10.79-9-17.09A22,22,0,0,1,130,108.3a.52.52,0,0,0-.24-.83,19,19,0,0,0-4.61-.54Z" fill="#a78bfa"/></svg>