<?xml version="1.0" encoding="utf-8"?>
<!-- Generator: Adobe Illustrator 25.2.0, SVG Export Plug-In . SVG Version: 6.00 Build 0)  -->
<svg version="1.1" id="Layer_1" xmlns="http://www.w3.org/2000/svg" xmlns:xlink="http://www.w3.org/1999/xlink" x="0px" y="0px"
	 viewBox="0 0 750 500" style="enable-background:new 0 0 750 500;" xml:space="preserve">
<style type="text/css">
	.st0{fill:#E0E0E0;}
	.st1{fill:#F5F5F5;}
	.st2{fill:#8026CD;}
	.st3{fill:#263238;}
	.st4{fill:#455A64;}
	.st5{fill:#FAFAFA;}
	.st6{fill:#FFBE9D;}
	.st7{fill:#EB996E;}
	.st8{fill:#FFFFFF;}
	.st9{opacity:0.3;enable-background:new    ;}
</style>
<g id="Background_Complete">
	<path class="st0" d="M231.4,357.4h20.3v81.1h-20.3V357.4z M261.2,375.1h20.3v63.4h-20.3V375.1z M291.5,389.6h20.3v48.9h-20.3V389.6
		z M319.6,409.5h20.3v29h-20.3V409.5z"/>
	<path class="st1" d="M592.6,126.1l59.4,3c-1.6,32.6-29.8,58.1-62.4,56.4c-32.6-1.6-58.1-29.8-56.4-62.4
		c1.6-32.6,29.8-58.1,62.4-56.4c5.2,0.3,10.3,1.2,15.3,2.8L592.6,126.1z"/>
	<path class="st0" d="M623.2,72.2L607,115.4l45.5,0.7C652.6,116.2,651.2,89.8,623.2,72.2z M76.8,293.4v-43.9
		c24.1,0,43.9,19.8,43.9,43.9s-19.8,43.9-43.9,43.9c-23.7,0-43.4-19.2-43.9-42.9L76.8,293.4z"/>
	<path class="st1" d="M66.1,281.5l-43.9,1c0-11.4,4.5-23.4,12.5-31.6c8-8.2,19.4-13,30.8-13.3L66.1,281.5z"/>
	<path class="st0" d="M669.7,178.1l6.5-11.3l6.5-11.4l6.6,11.4l6.5,11.3h-9v43.7h-8.1v-43.7H669.7z"/>
	<path class="st1" d="M694.5,140.1l4.1-7l4-7l4,7l4.1,7h-5.6v27h-5v-27H694.5z"/>
</g>
<g id="Plant">
	<path class="st2" d="M602.6,342.7c-5.3-3.3-11.3-5.4-17.5-6c-2.9-0.3-6-0.2-8.3,1.5c-0.5,0.4-1,0.9-0.9,1.5c0.1,0.4,0.5,0.8,0.8,1
		C583.9,346.2,594.7,346.9,602.6,342.7 M602.1,342.2c-4-3.1-7.9-6.2-11.3-9.9c-3.4-3.7-6.1-8.2-7.1-13.1c-0.3-1.5-0.4-3.2,0.6-4.4
		C593.3,321.8,600.4,330.9,602.1,342.2"/>
	<path class="st2" d="M602.5,342.6c-0.7-4.9-0.9-10,0.2-14.8c1.1-4.8,3.8-9.5,7.9-12.2c1.6,3.6,0.9,7.8-0.2,11.6
		c-1.7,5.9-4.4,11.5-7.8,16.5 M611.3,358.5c-5.4,0.7-10,3.5-14,7.1s-6.9,8.5-8,13.8c5.3-0.3,9.7-4,13-8.2
		C605.5,367,607.7,362.5,611.3,358.5 M613.3,361c-4.3-10.6-2.8-23.5,4-32.7C620.3,339.1,619.2,351.4,613.3,361 M624.9,374.9
		c-4.9-0.3-9.8,0.9-14,3.3s-7.7,6.1-9.9,10.5c-0.3,0.6-0.6,1.3-0.2,1.9c0.3,0.5,1,0.5,1.6,0.5c4.7-0.3,8.9-3.1,12.3-6.4
		C618.2,381.5,621.2,377.7,624.9,374.9 M624.6,374.2c-2.5-8-2.7-16.8-0.4-24.9c0.9-3.2,2.4-6.6,5.3-8.1c0.3-0.1,0.5-0.2,0.8-0.1
		s0.4,0.4,0.5,0.6c1.1,2.2,1.4,4.7,1.3,7.1c-0.1,2.4-0.6,4.8-1.1,7.2c-0.9,4.4-1.4,9.2-3.9,13c-0.6,0.9-1.1,1.9-1.5,2.9
		c-0.5,1-0.5,1.3-0.9,2.1 M655.4,378.8c-2.3-8.7,0.1-19.3,5.6-26.4c0.4-0.5,0.9-1.1,1.6-1c1,0.1,1.3,1.4,1.2,2.5
		C663.5,362.7,660.5,371.4,655.4,378.8 M658.2,380.7c10.6,2.8,22.7,0.1,31.5-6.4c-5.2-2.6-11.4-3.4-17.1-2.1
		C667,373.5,661.8,376,658.2,380.7 M660.6,374.9c5.9-9.7,17.3-16,28.6-16.5c-1.3,4.6-5.1,8.2-9.4,10.3c-4.3,2.2-9,3.1-13.7,4
		C664.3,373,661.8,373.4,660.6,374.9 M656,346.7c1.6-5.5,3.2-11,3.7-16.8c0.4-5.7-0.4-11.7-3.3-16.6c-5.5,10.7-6.1,23.2-0.5,33.9
		 M674.7,337.3c6.5-11.8,19.7-21.2,33-22.5C702.6,327.7,688.5,337.6,674.7,337.3 M670.6,339.6c9.7,1.5,17.9,7.6,26.9,11.4
		c1.9,0.8,4,1.4,6.1,1.2c2.1-0.3,4.1-1.7,4.6-3.7c0.4-1.7-0.4-3.5-1.6-4.7c-1.2-1.2-2.8-2-4.4-2.7c-9.8-4.1-20.4-4.2-30.7-1.7"/>
	<path class="st2" d="M665,346.4c2.2,0.6,2.9,1.8,4.7,3.2c5.9,5,12.9,8.6,20.4,10.5c0.8,0.2,1.8,0.3,2.2-0.4
		c0.3-0.6-0.1-1.4-0.5-1.9c-3.1-3.9-7.6-6.6-12.3-8.4s-8.8-3.9-14.4-3.4 M658.7,305.5c7.8,7.3,18.9,11.1,29.6,10.1
		c0.5,0,1-0.1,1.3-0.5c0.7-0.8-0.1-2.1-1-2.7C679.9,305.6,669.4,302.8,658.7,305.5"/>
	<path class="st2" d="M666.2,302.8c10.4-7.8,24.6-10.1,36.9-6.1c-4.7,4.6-11.1,7-17.6,7.7S672.5,304.4,666.2,302.8 M663.2,284
		c-0.9-8.7-0.3-15.5-0.9-24.3c0-0.7-0.2-1.5-0.9-1.8c-0.9-0.3-1.7,0.8-2,1.7c-2.6,8-1.2,17.3,3.7,24.2"/>
	<path class="st2" d="M662.6,284.9c5.9-3.6,10.3-8.4,14.4-14c2.8-3.9,5.2-8.5,4.6-13.3c-4-0.1-7.8,2.1-10.4,5.2
		c-2.6,3-4.1,6.8-5.3,10.6C664.7,277.3,663.9,281.2,662.6,284.9 M676.7,281c12.9-4.8,25-11.9,35.4-20.9c-4.2-1.7-9.1-0.7-13.3,1
		c-9.7,3.9-17.6,10.5-22.3,19.8 M666.6,289.7c6.5,0.7,13.2,1.2,19.7,0.1c6.4-1.1,12.4-3.6,18.4-6.1c0.5-0.2,1-0.5,1.2-0.9
		c0.2-0.5,0-1.2-0.4-1.6s-1-0.6-1.6-0.7c-6.5-1.8-13.5-1-19.8,1.2C677.6,283.8,672.4,286.3,666.6,289.7 M629.2,305.8
		c-4.5-9-4.2-19.5-0.3-28.8c2.7,4.1,3,9.4,2.5,14.3s-2,10-2.1,14.9 M611.4,296.8c-11.1-0.2-22.3,4.5-29.8,12.7
		c5.6,0.9,11.3-0.6,16.3-3c5.1-2.5,9.5-5.9,14-9.4 M599.5,292.8c-5.4-0.4-10.7-1.1-15.9,0.5s-10,5.2-12.1,10.3
		c5.1,0.6,10.3-0.7,14.9-2.8C591,298.7,595.2,295.7,599.5,292.8 M617.2,293c-4.9-3.2-9.9-6.5-15.6-7.8c-5.7-1.3-12.3-0.3-16.3,4
		c4.6,2.7,10.2,3,15.6,3s11.9-0.1,17,1.7"/>
	<path class="st2" d="M617.2,293.3c-8.4-8.2-11.6-23-8.2-34.2C615.6,269,618.6,281.4,617.2,293.3 M640.2,269.9
		c1.6-3.7,2.7-7.5,4.1-11.3c1.4-3.7,3.2-7.4,5.9-10.4s6.4-5.2,10.4-5.4c-2.5,11.3-10,21.4-20.1,27.1 M636.1,274.8
		c-2.6-3.6-5.6-8.5-9.2-11.2c-3.5-2.7-8.2-4.3-12.5-3.3C618.8,268.2,627.1,273.8,636.1,274.8 M636.9,270.2
		c-1.7-4.4-3.4-8.8-4.1-13.4c-0.7-4.6-0.3-9.6,2.1-13.6c4.6,8.7,6.1,18,2.3,27.1 M640.3,243.3c2.6-8.6,10.5-15,19-17.9
		c1.1-0.4,2.2-0.7,3.3-0.5s2.2,0.9,2.5,2.1c0.3,1.5-0.9,2.8-2,3.8C656.4,236.4,648.6,240.7,640.3,243.3 M640.4,236.2
		c0.3-5.6,0.7-11.2,2.5-16.5s5.3-10.2,10.4-12.5c0.9,5.6-1.6,11.2-4.6,16s-6.6,9.4-8.4,14.8 M640.2,240c-2.2-6.3-2.4-14.3-6.1-19.7
		c-2.6-3.8-6.8-6.4-9.1-10.5c-1.5,3.8-1,8.1,0.5,11.9c1.6,3.8,4.2,7,7,10S637.7,236.9,640.2,240"/>
	<path class="st3" d="M640.3,424.9c-0.2,0-0.3-41.9-0.3-93.5c0-51.7,0.1-93.5,0.3-93.5s0.3,41.9,0.3,93.5
		C640.6,383.1,640.5,424.9,640.3,424.9z"/>
	<path class="st3" d="M676.9,299.5c0,0-0.5,0.2-1.6,0.6s-2.6,0.9-4.3,1.5c-3.7,1.2-8.7,3-14.1,5.3s-10.5,4.2-13.4,6.7
		c-1.4,1.2-2.3,2.6-2.7,3.6s-0.5,1.6-0.5,1.6v-0.4c0-0.3,0.1-0.7,0.3-1.2c0.4-1,1.2-2.5,2.6-3.8c1.5-1.3,3.5-2.5,5.8-3.6
		s4.9-2.2,7.6-3.3c5.5-2.2,10.5-4,14.2-5.1c1.8-0.6,3.4-1,4.4-1.3C676.3,299.6,676.9,299.4,676.9,299.5L676.9,299.5z"/>
	<path class="st3" d="M688.9,270c0,0-0.1,0.2-0.4,0.5c-0.4,0.3-0.8,0.8-1.3,1.3c-1.2,1.1-2.9,2.7-5,4.6c-4.3,3.9-10.2,9.1-16.7,14.9
		s-12.2,11.3-16.1,15.5c-2,2.1-3.5,3.8-4.5,5c-0.5,0.6-0.9,1-1.2,1.4c-0.3,0.3-0.4,0.5-0.5,0.5c0,0,0.1-0.2,0.4-0.5
		c0.3-0.3,0.6-0.8,1.1-1.5c1-1.3,2.5-3,4.4-5.2c3.8-4.3,9.4-9.9,16-15.7c6.5-5.8,12.5-11,16.8-14.7c2.1-1.8,3.9-3.3,5.1-4.4
		c0.6-0.5,1-0.9,1.4-1.2C688.7,270.1,688.9,270,688.9,270L688.9,270z"/>
	<path class="st3" d="M658.4,297.1c-0.2-0.1,1.2-3.2,2.5-7.2c1.4-4,2-7.3,2.2-7.3s-0.2,3.5-1.6,7.5c-0.7,2-1.4,3.8-2,5
		C658.9,296.4,658.4,297.1,658.4,297.1L658.4,297.1z M640.3,322.4c0,0-0.4-0.4-1-1.2c-0.7-0.9-1.5-2-2.6-3.3
		c-2.2-2.8-5.2-6.7-8.5-10.9c-3.4-4.2-6.4-8-8.7-10.7c-1.1-1.3-1.9-2.4-2.6-3.3l-0.9-1.2l1.1,1.1c0.7,0.7,1.6,1.8,2.8,3.1
		c2.3,2.7,5.5,6.4,8.8,10.6c3.4,4.2,6.3,8.1,8.4,11c1,1.4,1.9,2.6,2.4,3.4C640.1,321.9,640.4,322.4,640.3,322.4z"/>
	<path class="st3" d="M632.3,312.1c-0.1,0.1-2.2-2.4-3.4-6.3c-0.8-2.7-0.9-5.2-0.8-6.3h0.3c-0.1,0.5-0.2,0.7-0.3,0.7
		c0,0-0.1-0.3,0-0.8h0.3c0.1,1.1,0.3,3.5,1.1,6.2C630.6,309.4,632.5,312,632.3,312.1L632.3,312.1z M621.9,299.1
		c-0.1,0.1-0.8-0.8-2.3-1.4c-1.6-0.6-3.9-0.7-6.5-0.5s-4.9,0.7-6.6,1.1c-1.7,0.4-2.7,0.7-2.7,0.6s0.9-0.5,2.6-1.1
		c1.6-0.5,4-1.1,6.6-1.3c2.6-0.2,5.1,0,6.7,0.7C621.4,298.1,622,299.1,621.9,299.1L621.9,299.1z M619.5,295.9c0,0.1-1.4-0.5-3.6-1.3
		s-5.4-1.6-9-1.8c-3.6-0.3-6.8,0-9.2,0.5c-2.3,0.4-3.7,0.8-3.8,0.7c0,0,0.3-0.2,1-0.4c0.6-0.2,1.6-0.5,2.7-0.8
		c2.3-0.5,5.6-0.9,9.3-0.6c3.6,0.3,6.9,1.2,9.1,2c1.1,0.4,2,0.8,2.6,1.2C619.2,295.7,619.5,295.9,619.5,295.9L619.5,295.9z
		 M640.2,282.6c-0.2,0-1.3-4-2.6-9.1s-2.2-9.2-2-9.3c0.2,0,1.3,4,2.6,9.1S640.4,282.5,640.2,282.6z"/>
	<path class="st3" d="M640.4,282.6c-0.2,0.1-0.9-2.7-2.9-5.5c-1.9-2.8-4.4-4.3-4.3-4.4c0-0.1,0.7,0.2,1.7,0.9
		c0.9,0.7,2.1,1.8,3.1,3.2C640.1,279.7,640.6,282.6,640.4,282.6z M640.3,402.6c-0.1,0-0.2-1-0.7-2.8s-1.3-4.3-2.8-7.3
		c-2.9-5.9-8.2-13.4-14.9-20.9c-3.3-3.8-6.5-7.4-9.3-10.8c-2.7-3.4-5-6.7-6.6-9.6s-2.7-5.3-3.3-7.1c-0.3-0.9-0.5-1.6-0.7-2
		c-0.1-0.5-0.2-0.7-0.2-0.7c0.1,0,0.4,1,1,2.7c0.7,1.7,1.8,4.1,3.5,7c1.7,2.8,3.9,6,6.7,9.4c2.7,3.4,6,6.9,9.3,10.7
		c6.7,7.5,12,15.1,14.8,21.1c1.4,3,2.2,5.6,2.6,7.4c0.2,0.9,0.3,1.6,0.4,2.1C640.3,402.4,640.3,402.6,640.3,402.6L640.3,402.6z
		 M673.4,365.3c0,0-0.6,0.4-1.7,1s-2.7,1.6-4.5,3s-3.8,3.2-5.9,5.4c-2.1,2.2-4.2,4.7-6.4,7.5c-4.4,5.5-8.4,10.3-10.9,14.2
		c-1.2,1.9-2.1,3.5-2.7,4.7c-0.6,1.1-0.9,1.8-1,1.7c0,0,0-0.2,0.2-0.5c0.1-0.3,0.3-0.8,0.6-1.4c0.5-1.2,1.4-2.8,2.6-4.8
		c2.4-4,6.4-8.9,10.8-14.3c2.2-2.7,4.3-5.3,6.5-7.5c2.1-2.2,4.2-4,6.1-5.3c1.9-1.4,3.5-2.3,4.6-2.8c0.6-0.3,1-0.5,1.4-0.6
		C673.2,365.3,673.4,365.2,673.4,365.3L673.4,365.3z"/>
	<path class="st3" d="M674,377.4c0,0.1-1.4,0.3-3.7,0.5c-2.3,0.3-5.4,0.7-8.7,1.7c-3.3,1.1-6,2.7-7.8,4.1s-2.6,2.5-2.7,2.5
		c0,0,0.1-0.3,0.5-0.8s1-1.2,1.9-2c1.7-1.5,4.5-3.2,7.9-4.3c3.4-1.1,6.6-1.4,8.8-1.6C672.6,377.3,674,377.3,674,377.4L674,377.4z"/>
	<path class="st3" d="M652.2,384.8c-0.2-0.1,1.5-2.6,2.7-6s1.5-6.4,1.7-6.4c0.1,0,0.1,0.8-0.1,2c-0.1,1.2-0.4,2.9-1.1,4.6
		c-0.6,1.8-1.5,3.2-2.1,4.2C652.8,384.3,652.3,384.9,652.2,384.8L652.2,384.8z M684.1,332.7l-0.6,0.3c-0.5,0.2-1,0.5-1.7,0.8
		c-0.8,0.3-1.7,0.7-2.7,1.3c-1,0.5-2.2,1.1-3.5,1.8c-0.6,0.4-1.3,0.7-2,1.1s-1.4,0.9-2.1,1.3c-1.5,0.9-2.9,2-4.5,3.1
		c-3.1,2.3-6.3,5.1-9.4,8.3c-3.1,3.2-5.7,6.6-8,9.7c-1.1,1.6-2.1,3.1-3,4.6c-0.4,0.7-0.9,1.4-1.3,2.2c-0.4,0.7-0.7,1.4-1.1,2
		c-0.7,1.3-1.2,2.5-1.7,3.6c-0.5,1-0.9,2-1.2,2.7s-0.5,1.3-0.7,1.7l-0.3,0.6c0,0,0-0.2,0.2-0.6c0.2-0.5,0.4-1.1,0.6-1.8
		c0.3-0.8,0.6-1.7,1.1-2.8c0.5-1.1,1-2.3,1.6-3.6c0.3-0.7,0.7-1.4,1-2.1c0.4-0.7,0.8-1.4,1.2-2.2c0.8-1.5,1.9-3.1,2.9-4.7
		c2.2-3.2,4.9-6.6,8-9.8c3.1-3.2,6.4-6,9.5-8.3c1.6-1.1,3.1-2.2,4.6-3.1c0.7-0.5,1.4-0.9,2.1-1.3c0.7-0.4,1.4-0.8,2-1.1
		c1.3-0.7,2.5-1.3,3.6-1.8s2-0.9,2.8-1.2c0.7-0.3,1.3-0.5,1.8-0.7C683.9,332.8,684.1,332.7,684.1,332.7L684.1,332.7z"/>
	<path class="st3" d="M657.9,350.3c-0.1,0,0.2-1,1.4-2.1s3.3-2.2,5.8-2.2c2.5-0.1,4.6,0.6,6.1,1.2s2.3,1.1,2.3,1.1
		c0,0.1-1-0.2-2.4-0.7c-1.5-0.5-3.6-1.1-5.9-1c-2.3,0.1-4.4,1-5.5,1.9C658.4,349.4,658,350.3,657.9,350.3L657.9,350.3z M654,354.3
		c-0.2-0.1,1.3-2.3,1.6-5.4c0.4-3.1-0.6-5.5-0.4-5.6c0.1,0,0.4,0.5,0.7,1.6c0.3,1,0.5,2.5,0.3,4.1s-0.7,3-1.2,3.9
		C654.5,353.9,654,354.3,654,354.3L654,354.3z"/>
	<path class="st4" d="M611.4,408.6c0.9,16,5.7,32.3,13.1,48.7h32.3c7.1-16.3,11.6-32.5,12.4-48.7H611.4z"/>
	<path class="st5" d="M663.9,434.5c0,0.2-10.6,0.3-23.7,0.3s-23.7-0.1-23.7-0.3c0-0.2,10.6-0.3,23.7-0.3S663.9,434.3,663.9,434.5z
		 M663.2,440.3c0,0.2-10,0.3-22.2,0.3c-12.3,0-22.2-0.1-22.2-0.3c0-0.2,10-0.3,22.2-0.3S663.2,440.1,663.2,440.3z"/>
</g>
<g id="Chart_2">
	<path class="st3" d="M577.5,432.8H423.2c-2.2,0-4-1.8-4-4v-67c0-2.2,1.8-4,4-4h154.4c2.2,0,4,1.8,4,4v67
		C581.6,431,579.8,432.8,577.5,432.8z"/>
	<path class="st4" d="M430.6,409.5v2.4h-0.2v-2.2h-0.6v-0.2L430.6,409.5L430.6,409.5z M431.1,410.7c0-0.8,0.4-1.2,0.9-1.2
		s0.9,0.5,0.9,1.2c0,0.8-0.4,1.2-0.9,1.2S431.1,411.5,431.1,410.7z M432.8,410.7c0-0.6-0.3-1-0.7-1c-0.4,0-0.7,0.3-0.7,1
		c0,0.6,0.3,1,0.7,1C432.5,411.7,432.8,411.4,432.8,410.7z M431.5,397v0.2h-1.7V397l1-1c0.3-0.3,0.3-0.4,0.3-0.6
		c0-0.3-0.2-0.4-0.6-0.4c-0.3,0-0.5,0.1-0.6,0.3l-0.2-0.1c0.2-0.2,0.5-0.3,0.8-0.3c0.5,0,0.8,0.2,0.8,0.6c0,0.2-0.1,0.4-0.4,0.7
		l-0.8,0.8H431.5L431.5,397z M431.8,396c0-0.8,0.4-1.2,0.9-1.2s0.9,0.5,0.9,1.2c0,0.8-0.4,1.2-0.9,1.2S431.8,396.7,431.8,396z
		 M433.5,396c0-0.6-0.3-1-0.7-1c-0.4,0-0.7,0.3-0.7,1c0,0.6,0.3,1,0.7,1C433.2,397,433.5,396.6,433.5,396z M431.5,381.8
		c0,0.4-0.3,0.7-0.9,0.7c-0.3,0-0.7-0.1-0.9-0.3l0.1-0.2c0.2,0.2,0.4,0.3,0.7,0.3c0.4,0,0.6-0.2,0.6-0.5s-0.2-0.5-0.6-0.5h-0.2v-0.2
		l0.7-0.8h-1.2v-0.2h1.5v0.2l-0.7,0.8C431.2,381.1,431.5,381.4,431.5,381.8z M431.8,381.3c0-0.8,0.4-1.2,0.9-1.2s0.9,0.5,0.9,1.2
		c0,0.8-0.4,1.2-0.9,1.2S431.8,382,431.8,381.3z M433.5,381.3c0-0.6-0.3-1-0.7-1c-0.4,0-0.7,0.3-0.7,1c0,0.6,0.3,1,0.7,1
		C433.2,382.2,433.5,381.9,433.5,381.3z M441,418.5c0-0.8,0.4-1.2,0.9-1.2s0.9,0.5,0.9,1.2c0,0.8-0.4,1.2-0.9,1.2
		S441,419.3,441,418.5z M442.7,418.5c0-0.6-0.3-1-0.7-1c-0.4,0-0.7,0.3-0.7,1c0,0.6,0.3,1,0.7,1
		C442.4,419.5,442.7,419.1,442.7,418.5z M458.6,417.3v2.4h-0.2v-2.2h-0.6v-0.2L458.6,417.3L458.6,417.3z M477.1,419.5v0.2h-1.7v-0.2
		l1-1c0.3-0.3,0.3-0.4,0.3-0.6c0-0.3-0.2-0.4-0.6-0.4c-0.3,0-0.5,0.1-0.6,0.3l-0.2-0.1c0.2-0.2,0.5-0.3,0.8-0.3
		c0.5,0,0.8,0.2,0.8,0.6c0,0.2-0.1,0.4-0.4,0.7l-0.8,0.8H477.1L477.1,419.5z M494.5,419c0,0.4-0.3,0.7-0.9,0.7
		c-0.3,0-0.7-0.1-0.9-0.3l0.1-0.2c0.2,0.2,0.4,0.3,0.7,0.3c0.4,0,0.6-0.2,0.6-0.5s-0.2-0.5-0.6-0.5h-0.2v-0.2l0.7-0.8h-1.2v-0.2h1.5
		v0.2l-0.7,0.8C494.3,418.4,494.5,418.6,494.5,419z M512.5,419.1H512v0.6h-0.2v-0.6h-1.3v-0.2l1.3-1.6h0.3l-1.2,1.5h1v-0.5h0.2v0.5
		h0.5L512.5,419.1L512.5,419.1z M529.7,419c0,0.4-0.3,0.7-0.9,0.7c-0.3,0-0.7-0.1-0.9-0.3l0.1-0.2c0.2,0.2,0.4,0.3,0.7,0.3
		c0.4,0,0.6-0.2,0.6-0.5s-0.2-0.5-0.8-0.5H528l0.1-1.2h1.3v0.2h-1.1l-0.1,0.8h0.3C529.4,418.3,529.7,418.6,529.7,419L529.7,419z
		 M547.4,419c0,0.4-0.3,0.7-0.8,0.7c-0.6,0-1-0.4-1-1.2c0-0.8,0.4-1.2,1.1-1.2c0.2,0,0.4,0,0.6,0.1l-0.1,0.2
		c-0.1-0.1-0.3-0.1-0.5-0.1c-0.5,0-0.8,0.3-0.8,1v0.2c0.1-0.3,0.4-0.4,0.7-0.4C547,418.3,547.4,418.6,547.4,419L547.4,419z
		 M547.1,419c0-0.3-0.2-0.5-0.6-0.5c-0.4,0-0.6,0.2-0.6,0.5s0.2,0.5,0.6,0.5C546.9,419.5,547.1,419.3,547.1,419z M564.8,417.3v0.2
		l-1,2.2h-0.3l1-2.2h-1.2v0.4H563v-0.7h1.8V417.3z M564.9,410.8c0,0.1-27.4,0.2-61.3,0.2s-61.3-0.1-61.3-0.2s27.4-0.2,61.3-0.2
		S564.9,410.7,564.9,410.8z M564.9,396c0,0.1-27.4,0.2-61.3,0.2s-61.3-0.1-61.3-0.2s27.4-0.2,61.3-0.2S564.9,395.9,564.9,396z
		 M564.9,381.2c0,0.1-27.4,0.2-61.3,0.2s-61.3-0.1-61.3-0.2s27.4-0.2,61.3-0.2S564.9,381.1,564.9,381.2z"/>
	<path class="st4" d="M442.3,410.6c0,0.4-0.4,0.8-0.8,0.8s-0.8-0.4-0.8-0.8s0.4-0.8,0.8-0.8C442,409.8,442.3,410.2,442.3,410.6z
		 M460,410.6c0,0.4-0.4,0.8-0.8,0.8s-0.8-0.4-0.8-0.8s0.4-0.8,0.8-0.8S460,410.2,460,410.6z M477.6,410.6c0,0.4-0.4,0.8-0.8,0.8
		s-0.8-0.4-0.8-0.8s0.4-0.8,0.8-0.8S477.6,410.2,477.6,410.6z M495.2,410.6c0,0.4-0.4,0.8-0.8,0.8s-0.8-0.4-0.8-0.8s0.4-0.8,0.8-0.8
		C494.9,409.8,495.2,410.2,495.2,410.6z M512.8,410.6c0,0.4-0.4,0.8-0.8,0.8s-0.8-0.4-0.8-0.8s0.4-0.8,0.8-0.8
		C512.4,409.8,512.8,410.2,512.8,410.6z M548.1,410.6c0,0.4-0.4,0.8-0.8,0.8s-0.8-0.4-0.8-0.8s0.4-0.8,0.8-0.8
		S548.1,410.2,548.1,410.6z M530.5,410.6c0,0.4-0.4,0.8-0.8,0.8s-0.8-0.4-0.8-0.8s0.4-0.8,0.8-0.8S530.5,410.2,530.5,410.6z
		 M565.7,410.6c0,0.4-0.4,0.8-0.8,0.8s-0.8-0.4-0.8-0.8s0.4-0.8,0.8-0.8S565.7,410.2,565.7,410.6z M450.4,410.8
		c0,0.3-0.2,0.5-0.5,0.5s-0.5-0.2-0.5-0.5s0.2-0.5,0.5-0.5C450.1,410.3,450.4,410.6,450.4,410.8z M468.1,410.8
		c0,0.3-0.2,0.5-0.5,0.5s-0.5-0.2-0.5-0.5s0.2-0.5,0.5-0.5C467.8,410.3,468.1,410.6,468.1,410.8z M485.8,410.8
		c0,0.3-0.2,0.5-0.5,0.5s-0.5-0.2-0.5-0.5s0.2-0.5,0.5-0.5C485.5,410.3,485.8,410.6,485.8,410.8z M503.4,410.8
		c0,0.3-0.2,0.5-0.5,0.5s-0.5-0.2-0.5-0.5s0.2-0.5,0.5-0.5S503.4,410.6,503.4,410.8z M521.1,410.8c0,0.3-0.2,0.5-0.5,0.5
		s-0.5-0.2-0.5-0.5s0.2-0.5,0.5-0.5S521.1,410.6,521.1,410.8z M538.8,410.8c0,0.3-0.2,0.5-0.5,0.5s-0.5-0.2-0.5-0.5s0.2-0.5,0.5-0.5
		S538.8,410.6,538.8,410.8z M556.5,410.8c0,0.3-0.2,0.5-0.5,0.5s-0.5-0.2-0.5-0.5s0.2-0.5,0.5-0.5S556.5,410.6,556.5,410.8z"/>
	<path class="st2" d="M461.1,404.3c0,1.1-0.9,1.9-1.9,1.9c-1.1,0-1.9-0.9-1.9-1.9c0-1.1,0.9-1.9,1.9-1.9S461.1,403.2,461.1,404.3z
		 M476.5,395.2c0,1.1-0.9,1.9-1.9,1.9c-1.1,0-1.9-0.9-1.9-1.9c0-1.1,0.9-1.9,1.9-1.9S476.5,394.2,476.5,395.2z M495.6,396
		c0,1.1-0.9,1.9-1.9,1.9c-1.1,0-1.9-0.9-1.9-1.9c0-1.1,0.9-1.9,1.9-1.9S495.6,395,495.6,396z M514.2,379.5c0,1.1-0.9,1.9-1.9,1.9
		c-1.1,0-1.9-0.9-1.9-1.9c0-1.1,0.9-1.9,1.9-1.9S514.2,378.5,514.2,379.5z M531.6,390c0,1.1-0.9,1.9-1.9,1.9c-1.1,0-1.9-0.9-1.9-1.9
		c0-1.1,0.9-1.9,1.9-1.9S531.6,389,531.6,390z M549.2,392.8c0,1.1-0.9,1.9-1.9,1.9c-1.1,0-1.9-0.9-1.9-1.9c0-1.1,0.9-1.9,1.9-1.9
		C548.4,390.9,549.2,391.8,549.2,392.8z"/>
	<path class="st2" d="M565.7,404.3h-0.5c-0.3,0-0.7-0.1-1.3-0.2c-1.1-0.2-2.9-0.7-4.6-2.2c-0.9-0.7-1.6-1.7-2.3-2.9
		c-0.6-1.2-1.4-2.4-2.4-3.7c-1-1.2-2.3-2.4-4-2.8c-0.8-0.2-1.8-0.2-2.6,0.1c-0.9,0.3-1.7,0.8-2.4,1.4c-1.5,1.3-2.6,3-4.1,4.7
		c-0.7,0.8-1.6,1.6-2.6,2.1c-1.1,0.5-2.3,0.6-3.5,0.3c-1.2-0.3-2.1-1.3-2.6-2.4s-0.8-2.3-1.1-3.5s-0.5-2.4-1.1-3.6
		c-0.3-0.6-0.6-1.1-1.1-1.4s-1.2-0.3-1.8-0.3c-1.3,0.1-2.5,0.4-3.9,0.7c-0.7,0.1-1.3,0.2-2,0.2s-1.4-0.1-2.1-0.4
		c-0.7-0.3-1.2-0.8-1.7-1.4c-0.4-0.6-0.7-1.2-1-1.9c-0.6-1.3-0.9-2.7-1.4-4c-0.3-0.6-0.5-1.3-0.9-1.9s-0.9-1-1.5-1.3
		c-0.2,0-0.3-0.1-0.5-0.1h-0.5c-0.3,0-0.6,0-0.9,0.2c-0.6,0.3-1,0.9-1.4,1.5c-0.7,1.2-1.2,2.6-1.6,4.1c-0.4,1.4-0.8,2.9-1.1,4.3
		c-0.6,2.4-1.1,4.9-1.7,7.2c-0.3,1.2-0.7,2.4-1.1,3.5s-0.9,2.3-1.8,3.2c-0.5,0.4-1.1,0.8-1.7,0.8s-1.3-0.2-1.8-0.5
		c-1.1-0.6-1.8-1.6-2.5-2.5c-1.3-1.9-2.2-4.1-3-6.1s-1.8-4-3.4-5.4c-1.5-1.4-3.8-1.9-5.7-1.4c-1,0.2-1.9,0.7-2.7,1.2
		c-0.8,0.5-1.6,1.1-2.4,1.7c-1.5,1.2-2.8,2.6-3.9,4c-1.9,1.9-3.8,3.5-5.8,4.8c-2,1.4-4,2.5-6,3.2s-4,1.2-5.8,1s-3.4-0.7-4.9-1.2
		c-2.8-1-4.9-2.1-6.3-2.9c-0.7-0.4-1.2-0.7-1.6-0.9c-0.4-0.2-0.5-0.3-0.5-0.3s0.2,0.1,0.5,0.3c0.4,0.2,0.9,0.5,1.6,0.9
		c1.4,0.7,3.5,1.8,6.3,2.8c1.4,0.5,3,1,4.8,1.1c1.8,0.2,3.8-0.3,5.7-1c2-0.8,3.9-1.9,5.9-3.2c1.9-1.4,3.9-3,5.7-4.8
		c1.2-1.4,2.5-2.8,4-4c0.7-0.6,1.5-1.2,2.4-1.7s1.8-1,2.8-1.2c2-0.5,4.4,0,6,1.5c1.7,1.5,2.6,3.5,3.5,5.6c0.8,2.1,1.7,4.2,3,6
		c0.6,0.9,1.4,1.8,2.4,2.4c0.5,0.3,1,0.5,1.6,0.5c0.5,0,1-0.3,1.4-0.6c0.8-0.8,1.3-1.9,1.7-3c0.4-1.1,0.8-2.3,1.1-3.5
		c0.6-2.4,1.1-4.8,1.7-7.2c0.3-1.5,0.7-2.9,1.1-4.4c0.4-1.4,0.9-2.9,1.7-4.2c0.4-0.6,0.9-1.3,1.6-1.6c0.4-0.2,0.8-0.3,1.2-0.2
		l0.6,0.1c0.2,0,0.4,0.1,0.6,0.2c0.7,0.3,1.3,0.8,1.7,1.4s0.7,1.3,1,2c0.5,1.3,0.9,2.7,1.4,4c0.5,1.2,1.2,2.5,2.4,3
		c1.2,0.6,2.6,0.4,3.9,0.1c1.3-0.2,2.6-0.6,3.9-0.7c0.7,0,1.4,0.1,2,0.4s1,1,1.3,1.5c0.5,1.2,0.8,2.5,1.1,3.7s0.6,2.4,1.1,3.4
		c0.5,1.1,1.3,1.9,2.4,2.2c1.1,0.3,2.2,0.2,3.2-0.3c1-0.4,1.8-1.2,2.5-2c1.4-1.6,2.6-3.4,4.1-4.7c0.8-0.6,1.6-1.2,2.6-1.4
		c0.9-0.3,1.9-0.3,2.8-0.1c1.8,0.4,3.1,1.7,4.1,2.9c1,1.2,1.7,2.5,2.4,3.7c0.6,1.2,1.3,2.2,2.2,2.9c1.7,1.5,3.4,2,4.5,2.2
		c0.6,0.1,1,0.2,1.3,0.2C565.5,404.3,565.7,404.3,565.7,404.3L565.7,404.3z"/>
	<path class="st3" d="M461.3,371.1c0,0.1-6.8,0.2-15.3,0.2c-8.4,0-15.3-0.1-15.3-0.2s6.8-0.2,15.3-0.2
		C454.5,370.8,461.3,370.9,461.3,371.1z"/>
</g>
<g id="Chart_1">
	<path class="st3" d="M551.6,345.9h-330c-5.2,0-9.4-4.2-9.4-9.4V52.1c0-5.2,4.2-9.4,9.4-9.4h330c5.2,0,9.4,4.2,9.4,9.4v284.4
		C560.9,341.7,556.7,345.9,551.6,345.9z"/>
	<path class="st4" d="M560.9,62.5c0,0.1-78.1,0.2-174.3,0.2c-96.3,0-174.4-0.1-174.4-0.2s78-0.2,174.4-0.2
		C482.9,62.3,560.9,62.4,560.9,62.5z"/>
	<ellipse class="st4" cx="231.4" cy="52.3" rx="2.1" ry="2.2"/>
	<ellipse class="st4" cx="238.8" cy="52.3" rx="2.1" ry="2.2"/>
	<path class="st4" d="M248.2,52.3c0,1.2-0.9,2.2-2.1,2.2c-1.2,0-2.1-1-2.1-2.2s0.9-2.2,2.1-2.2C247.3,50.2,248.2,51.2,248.2,52.3z
		 M474.5,193.9c-4.8-0.6-9.7,1.1-14.4-0.1c-10.5-2.5-16.2-17.9-26.9-19.8c-7.5-1.3-14.4,4.6-20.3,10.3s-12.7,11.7-20.2,10.6
		c-12.1-1.8-18.4-20.8-30.5-22.1c-3.2-0.3-6.4,0.7-9.6,0.5c-10.3-0.4-17.5-11.9-21.8-22.7c-2.1-5.3-3.9-10.9-7-15.6
		c-3-4.7-7.6-8.5-12.6-8.5c-4.4-0.1-8.5,2.7-11.5,6.4s-5,8.3-6.8,12.9c-8.1,20.2-16.1,44.9-21.9,66.1l215.1-0.2
		C484.7,204.7,479.3,194.5,474.5,193.9L474.5,193.9z"/>
	<path class="st2" d="M256.1,317.1c0,0.8-0.6,1.4-1.4,1.4c-0.8,0-1.4-0.6-1.4-1.4s0.6-1.4,1.4-1.4
		C255.4,315.7,256.1,316.3,256.1,317.1z M269.4,317.3c0,0.1-2.4,0.3-5.3,0.3s-5.3-0.1-5.3-0.3c0-0.1,2.4-0.3,5.3-0.3
		S269.4,317.1,269.4,317.3z"/>
	<path class="st4" d="M288.4,317.1c0,0.8-0.6,1.4-1.4,1.4s-1.4-0.6-1.4-1.4s0.6-1.4,1.4-1.4S288.4,316.3,288.4,317.1z M301.7,317.3
		c0,0.1-2.4,0.3-5.3,0.3s-5.3-0.1-5.3-0.3c0-0.1,2.4-0.3,5.3-0.3S301.7,317.1,301.7,317.3z"/>
	<circle class="st2" cx="253.8" cy="114.9" r="1.8"/>
	<path class="st2" d="M272.8,115.1c0,0.1-3.1,0.3-6.9,0.3s-6.9-0.1-6.9-0.3c0-0.1,3.1-0.3,6.9-0.3S272.8,115,272.8,115.1z"/>
	<circle class="st4" cx="290.1" cy="114.9" r="1.8"/>
	<path class="st4" d="M309.1,115.1c0,0.1-3.1,0.3-6.9,0.3s-6.9-0.1-6.9-0.3c0-0.1,3.1-0.3,6.9-0.3S309.1,115,309.1,115.1z"/>
	<path class="st0" d="M256.3,99.7h-2.9l-0.6,1.3h-1.5l2.8-6.2h1.4l2.8,6.2h-1.5L256.3,99.7z M255.9,98.6l-1-2.4l-1,2.4H255.9z
		 M263.8,98.3v2.7h-1.4v-2.5c0-0.8-0.4-1.1-1-1.1c-0.7,0-1.1,0.4-1.1,1.3v2.4h-1.4v-4.8h1.3v0.6c0.4-0.4,0.9-0.6,1.6-0.6
		C263,96.2,263.8,96.8,263.8,98.3z M269.3,98.3v2.7H268v-0.6c-0.3,0.4-0.8,0.7-1.5,0.7c-1.1,0-1.8-0.6-1.8-1.5
		c0-0.8,0.6-1.4,2.1-1.4h1.1c0-0.6-0.4-0.9-1.1-0.9c-0.5,0-1,0.2-1.4,0.4l-0.5-1c0.5-0.4,1.3-0.6,2.1-0.6
		C268.5,96.2,269.3,96.8,269.3,98.3L269.3,98.3z M267.9,99.5V99h-1c-0.7,0-0.9,0.2-0.9,0.6c0,0.3,0.3,0.6,0.8,0.6
		C267.4,100.2,267.8,100,267.9,99.5z M270.6,94.4h1.4v6.6h-1.4V94.4z M278,96.2l-2.2,5.1c-0.5,1.2-1.1,1.5-2,1.5
		c-0.5,0-1-0.2-1.3-0.4l0.5-1c0.2,0.2,0.5,0.3,0.8,0.3c0.4,0,0.6-0.2,0.8-0.6l-2.1-4.8h1.4l1.3,3.3l1.4-3.3L278,96.2L278,96.2z
		 M281.8,100.8c-0.3,0.2-0.7,0.3-1.1,0.3c-1.1,0-1.8-0.6-1.8-1.7v-2h-0.7v-1.1h0.7v-1.2h1.4v1.2h1.2v1.1h-1.2v2
		c0,0.4,0.2,0.6,0.6,0.6c0.2,0,0.4-0.1,0.6-0.2C281.5,99.8,281.8,100.8,281.8,100.8z M282.4,94.8c0-0.4,0.3-0.8,0.9-0.8
		c0.5,0,0.9,0.3,0.9,0.7c0,0.5-0.3,0.8-0.9,0.8C282.8,95.6,282.4,95.2,282.4,94.8z M282.6,96.2h1.4v4.8h-1.4V96.2z M284.9,98.6
		c0-1.4,1.1-2.5,2.7-2.5c1,0,1.8,0.4,2.1,1.2l-1.1,0.6c-0.3-0.5-0.6-0.7-1.1-0.7c-0.7,0-1.3,0.5-1.3,1.3s0.6,1.3,1.3,1.3
		c0.4,0,0.8-0.2,1.1-0.7l1.1,0.6c-0.3,0.8-1.1,1.2-2.1,1.2C286,101.1,284.9,100.1,284.9,98.6z M290.1,100.6l0.5-1
		c0.4,0.3,1.1,0.5,1.7,0.5s0.9-0.2,0.9-0.4c0-0.8-2.9,0-2.9-1.9c0-0.9,0.8-1.6,2.2-1.6c0.7,0,1.4,0.2,1.8,0.4l-0.5,1
		c-0.5-0.3-0.9-0.4-1.4-0.4c-0.6,0-0.9,0.2-0.9,0.4c0,0.8,2.9,0,2.9,1.9c0,0.9-0.8,1.5-2.3,1.5C291.4,101.1,290.5,100.9,290.1,100.6
		L290.1,100.6z"/>
	<path class="st4" d="M254.6,136.4v0.7h-2.9v-0.6l1.5-1.4c0.3-0.3,0.4-0.5,0.4-0.7c0-0.3-0.2-0.5-0.6-0.5c-0.3,0-0.6,0.1-0.8,0.4
		l-0.7-0.4c0.3-0.4,0.8-0.7,1.5-0.7c0.9,0,1.4,0.4,1.4,1.1c0,0.4-0.1,0.7-0.6,1.2l-0.9,0.8L254.6,136.4L254.6,136.4z M255,135.2
		c0-1.3,0.7-2,1.7-2c1,0,1.7,0.7,1.7,2s-0.7,2-1.7,2S255,136.5,255,135.2L255,135.2z M257.4,135.2c0-0.9-0.3-1.3-0.8-1.3
		c-0.4,0-0.8,0.4-0.8,1.3s0.3,1.2,0.8,1.2C257.1,136.5,257.4,136.1,257.4,135.2z M260.2,136l-0.4,0.4v0.8h-0.9V133h0.9v2.3l1.3-1.2
		h1l-1.2,1.3l1.4,1.7h-1L260.2,136L260.2,136z M253.2,151.9v3.9h-0.9v-3.2h-0.8v-0.7H253.2z M256.8,154.6c0,0.7-0.5,1.3-1.6,1.3
		c-0.5,0-1.1-0.1-1.5-0.4l0.4-0.7c0.3,0.2,0.7,0.4,1.1,0.4c0.5,0,0.7-0.2,0.7-0.5s-0.2-0.5-0.9-0.5h-1l0.2-2.2h2.4v0.7H255l-0.1,0.7
		h0.3C256.4,153.3,256.8,153.9,256.8,154.6z M258.6,154.6l-0.4,0.4v0.8h-0.9v-4.1h0.9v2.3l1.3-1.2h1l-1.2,1.3l1.4,1.7h-1
		L258.6,154.6L258.6,154.6z M253.2,170.5v3.9h-0.9v-3.2h-0.8v-0.7H253.2z M253.9,172.5c0-1.3,0.7-2,1.7-2c1,0,1.7,0.7,1.7,2
		s-0.7,2-1.7,2S253.9,173.7,253.9,172.5z M256.3,172.5c0-0.9-0.3-1.3-0.8-1.3c-0.4,0-0.8,0.4-0.8,1.3s0.3,1.2,0.8,1.2
		S256.3,173.3,256.3,172.5z M259.1,173.2l-0.4,0.4v0.8h-0.9v-4.1h0.9v2.3l1.3-1.2h1l-1.2,1.3l1.4,1.7h-1L259.1,173.2L259.1,173.2z
		 M254.6,191.8c0,0.7-0.5,1.3-1.6,1.3c-0.5,0-1.1-0.1-1.5-0.4l0.4-0.7c0.3,0.2,0.7,0.3,1.1,0.3c0.5,0,0.7-0.2,0.7-0.5
		s-0.2-0.5-0.9-0.5h-1l0.2-2.2h2.4v0.7h-1.6l-0.1,0.7h0.3C254.2,190.6,254.6,191.1,254.6,191.8L254.6,191.8z M256.5,191.8l-0.4,0.4
		v0.8h-0.9v-4.1h0.9v2.3l1.3-1.2h1l-1.2,1.3l1.4,1.7h-1L256.5,191.8L256.5,191.8z M251.7,209.7c0-1.3,0.7-2,1.7-2s1.7,0.7,1.7,2
		s-0.7,2-1.7,2S251.7,211,251.7,209.7z M254.1,209.7c0-0.9-0.3-1.3-0.8-1.3c-0.4,0-0.8,0.4-0.8,1.3s0.3,1.2,0.8,1.2
		S254.1,210.6,254.1,209.7z M256.9,210.5l-0.4,0.4v0.8h-0.9v-4.1h0.9v2.3l1.3-1.2h1l-1.2,1.3l1.4,1.7h-1L256.9,210.5L256.9,210.5z
		 M528.3,136c0,0.1-59.5,0.3-132.9,0.3s-133-0.1-133-0.3s59.5-0.3,133-0.3C468.7,135.7,528.3,135.8,528.3,136z M528.3,154.9
		c0,0.1-59.5,0.3-132.9,0.3s-133-0.1-133-0.3s59.5-0.3,133-0.3C468.7,154.7,528.3,154.8,528.3,154.9z M528.3,173.9
		c0,0.1-59.5,0.3-132.9,0.3s-133-0.1-133-0.3c0-0.1,59.5-0.3,133-0.3C468.7,173.7,528.3,173.8,528.3,173.9z M528.3,192.9
		c0,0.1-59.5,0.3-132.9,0.3s-133-0.1-133-0.3s59.5-0.3,133-0.3C468.7,192.7,528.3,192.8,528.3,192.9z M528.3,211.9
		c0,0.1-59.5,0.3-132.9,0.3s-133-0.1-133-0.3s59.5-0.3,133-0.3C468.7,211.7,528.3,211.8,528.3,211.9z"/>
	<path class="st2" d="M263.7,211.9c13.6-1.8,25.4-7.3,35.6-13.1s19-12.5,28.6-18.6c3.8-2.4,8.3-4.9,13.7-4.8
		c5.5,0.1,10,2.9,12.7,5.8c2.7,2.9,4.3,6.3,7.7,8.9c1.9,1.5,4.7,2.9,7.8,2.9c4.6,0,8.2-3,12.8-2.9c6,0.1,8.8,4.8,14.4,6.1
		c4.5,1.1,9.7-0.3,13.4-2.1c3.8-1.9,7-4.2,11.3-5.6c6.8-2.2,15.3-1.4,22.1,0.7c6.8,2.1,10.9,7.1,16.2,10.5c7.1,4.4,15.6,11,23,12.2
		L263.7,211.9L263.7,211.9z"/>
	<path class="st4" d="M274.8,300.2c-13.6,0-24.6-11-24.6-24.6s11-24.6,24.6-24.6s24.6,11,24.6,24.6
		C299.5,289.2,288.4,300.2,274.8,300.2z M274.8,256c-10.8,0-19.6,8.8-19.6,19.6s8.8,19.6,19.6,19.6s19.6-8.8,19.6-19.6
		C294.5,264.8,285.7,256,274.8,256z"/>
	<path class="st2" d="M274.8,301.2c-2.6,0-5.2-0.4-7.7-1.2c-2.1-0.7-3.3-2.9-2.6-5c0.7-2.1,2.9-3.3,5-2.6c9.5,3,19.7-2.4,22.7-11.9
		c1.4-4.6,1-9.5-1.3-13.8s-6-7.4-10.7-8.9c-2.1-0.7-3.3-2.9-2.6-5c0.7-2.1,2.9-3.3,5-2.6c6.7,2.1,12.1,6.6,15.4,12.8
		c3.2,6.2,3.9,13.2,1.8,19.9C296.3,294.1,286,301.2,274.8,301.2L274.8,301.2z"/>
	<path class="st0" d="M270,278.2h-1.3v1.7h-1.9v-1.7h-4.4v-1.3l3.9-5.2h2l-3.6,4.9h2.2v-1.5h1.8v1.5h1.3V278.2z M276.8,277.3
		c0,1.5-1.1,2.7-3.4,2.7c-1.1,0-2.3-0.3-3.1-0.9l0.8-1.5c0.6,0.5,1.5,0.7,2.3,0.7c0.9,0,1.5-0.4,1.5-1.1c0-0.6-0.4-1.1-1.9-1.1h-2.1
		l0.4-4.6h5v1.5h-3.4l-0.1,1.6h0.7C275.8,274.8,276.8,275.9,276.8,277.3L276.8,277.3z M277.3,273.9c0-1.4,0.8-2.3,2-2.3s2,0.9,2,2.3
		s-0.8,2.3-2,2.3S277.3,275.3,277.3,273.9z M280.2,273.9c0-0.9-0.3-1.3-0.9-1.3c-0.5,0-0.9,0.4-0.9,1.3s0.4,1.3,0.9,1.3
		S280.2,274.8,280.2,273.9z M284.2,271.7h1.4l-5.6,8.2h-1.4L284.2,271.7z M282.9,277.8c0-1.4,0.8-2.3,2-2.3s2,0.9,2,2.3
		s-0.8,2.3-2,2.3C283.7,280,282.9,279.1,282.9,277.8z M285.7,277.8c0-0.9-0.3-1.3-0.9-1.3c-0.5,0-0.9,0.4-0.9,1.3s0.4,1.3,0.9,1.3
		C285.4,279.1,285.7,278.6,285.7,277.8z"/>
	<path class="st4" d="M349.9,254v0.6h-2.3v-0.5l1.2-1.1c0.3-0.3,0.3-0.4,0.3-0.6c0-0.2-0.2-0.4-0.5-0.4s-0.5,0.1-0.6,0.3l-0.5-0.3
		c0.2-0.3,0.7-0.6,1.2-0.6c0.7,0,1.1,0.3,1.1,0.9c0,0.3-0.1,0.6-0.5,0.9l-0.7,0.7h1.3V254z M350.2,253.1c0-1,0.5-1.6,1.3-1.6
		c0.7,0,1.3,0.6,1.3,1.6s-0.5,1.6-1.3,1.6S350.2,254.1,350.2,253.1z M352,253.1c0-0.7-0.2-1-0.6-1c-0.3,0-0.6,0.3-0.6,1s0.2,1,0.6,1
		S352,253.8,352,253.1z M354.2,253.7l-0.3,0.3v0.6h-0.7v-3.2h0.7v1.8l1-0.9h0.8l-1,1l1,1.3h-0.8L354.2,253.7L354.2,253.7z
		 M348.8,266v3h-0.7v-2.4h-0.6V266H348.8L348.8,266z M351.6,268.1c0,0.5-0.4,1-1.2,1c-0.4,0-0.9-0.1-1.1-0.3l0.3-0.5
		c0.2,0.2,0.5,0.3,0.9,0.3c0.3,0,0.6-0.1,0.6-0.4c0-0.2-0.2-0.4-0.7-0.4h-0.8l0.2-1.7h1.8v0.6h-1.3v0.6h0.2
		C351.2,267.1,351.6,267.5,351.6,268.1z M353,268.1l-0.3,0.3v0.6H352v-3.2h0.7v1.8l1-0.9h0.8l-1,1l1,1.3h-0.8L353,268.1L353,268.1z
		 M348.8,280.4v3h-0.7V281h-0.6v-0.6H348.8L348.8,280.4z M349.3,281.9c0-1,0.5-1.6,1.3-1.6c0.7,0,1.3,0.6,1.3,1.6s-0.5,1.6-1.3,1.6
		C349.9,283.4,349.3,282.9,349.3,281.9z M351.2,281.9c0-0.7-0.2-1-0.6-1c-0.3,0-0.6,0.3-0.6,1s0.2,1,0.6,1
		C351,282.8,351.2,282.6,351.2,281.9z M353.4,282.5l-0.3,0.3v0.6h-0.7v-3.2h0.7v1.8l1-0.9h0.8l-1,1l1,1.3h-0.8L353.4,282.5
		L353.4,282.5z M349.9,296.8c0,0.5-0.4,1-1.2,1c-0.4,0-0.9-0.1-1.1-0.3l0.3-0.5c0.2,0.2,0.5,0.3,0.9,0.3c0.3,0,0.6-0.1,0.6-0.4
		c0-0.2-0.2-0.4-0.7-0.4h-0.8l0.2-1.7h1.8v0.6h-1.3v0.6h0.2C349.6,295.9,349.9,296.3,349.9,296.8z M351.3,296.9l-0.3,0.3v0.6h-0.7
		v-3.2h0.7v1.8l1-0.9h0.8l-1,1l1,1.3H352L351.3,296.9L351.3,296.9z M347.6,310.7c0-1,0.5-1.6,1.3-1.6c0.7,0,1.3,0.6,1.3,1.6
		s-0.5,1.6-1.3,1.6C348.2,312.2,347.6,311.6,347.6,310.7z M349.5,310.7c0-0.7-0.2-1-0.6-1c-0.3,0-0.6,0.3-0.6,1s0.2,1,0.6,1
		C349.3,311.6,349.5,311.3,349.5,310.7z M351.7,311.3l-0.3,0.3v0.6h-0.7V309h0.7v1.8l1-0.9h0.8l-1,1l1,1.3h-0.8L351.7,311.3z
		 M529.7,253.7c0,0.1-38.9,0.3-86.9,0.3s-86.9-0.1-86.9-0.3c0-0.1,38.9-0.3,86.9-0.3S529.7,253.5,529.7,253.7z M529.7,268.4
		c0,0.1-38.9,0.3-86.9,0.3s-86.9-0.1-86.9-0.3s38.9-0.3,86.9-0.3S529.7,268.2,529.7,268.4z M529.7,283c0,0.1-38.9,0.3-86.9,0.3
		s-86.9-0.1-86.9-0.3c0-0.1,38.9-0.3,86.9-0.3C490.8,282.8,529.7,282.9,529.7,283z M529.7,297.7c0,0.1-38.9,0.3-86.9,0.3
		s-86.9-0.1-86.9-0.3c0-0.1,38.9-0.3,86.9-0.3S529.7,297.6,529.7,297.7z M529.7,312.4c0,0.1-38.9,0.3-86.9,0.3s-86.9-0.1-86.9-0.3
		c0-0.1,38.9-0.3,86.9-0.3S529.7,312.2,529.7,312.4z"/>
	<path class="st2" d="M363.4,305.1c-0.7,0-1.3-0.6-1.3-1.3v-40.5c0-0.7,0.6-1.3,1.3-1.3c0.7,0,1.3,0.6,1.3,1.3v40.5
		C364.7,304.5,364.1,305.1,363.4,305.1z"/>
	<path class="st0" d="M371.5,299.3c-0.7,0-1.3-0.6-1.3-1.3v-21.1c0-0.7,0.6-1.3,1.3-1.3c0.7,0,1.3,0.6,1.3,1.3V298
		C372.8,298.8,372.2,299.3,371.5,299.3z M388.6,299.3c-0.7,0-1.3-0.6-1.3-1.3v-30.9c0-0.7,0.6-1.3,1.3-1.3c0.7,0,1.3,0.6,1.3,1.3
		V298C389.9,298.8,389.3,299.3,388.6,299.3z M405.9,303.5c-0.7,0-1.3-0.6-1.3-1.3v-30.9c0-0.7,0.6-1.3,1.3-1.3
		c0.7,0,1.3,0.6,1.3,1.3v30.9C407.2,302.9,406.6,303.5,405.9,303.5z M423.4,303.5c-0.7,0-1.3-0.6-1.3-1.3v-30.9
		c0-0.7,0.6-1.3,1.3-1.3c0.7,0,1.3,0.6,1.3,1.3v30.9C424.7,302.9,424.1,303.5,423.4,303.5z M439.8,308.6c-0.7,0-1.3-0.6-1.3-1.3
		v-39.7c0-0.7,0.6-1.3,1.3-1.3c0.7,0,1.3,0.6,1.3,1.3v39.7C441.1,308,440.5,308.6,439.8,308.6z"/>
	<path class="st2" d="M482,302.1c-0.7,0-1.3-0.6-1.3-1.3v-39.7c0-0.7,0.6-1.3,1.3-1.3c0.7,0,1.3,0.6,1.3,1.3v39.7
		C483.3,301.6,482.7,302.1,482,302.1z"/>
	<path class="st0" d="M491.6,305.6c-0.7,0-1.3-0.6-1.3-1.3v-39.7c0-0.7,0.6-1.3,1.3-1.3c0.7,0,1.3,0.6,1.3,1.3v39.7
		C492.9,305,492.3,305.6,491.6,305.6z"/>
	<path class="st2" d="M464.9,302.1c-0.7,0-1.3-0.6-1.3-1.3v-39.7c0-0.7,0.6-1.3,1.3-1.3c0.7,0,1.3,0.6,1.3,1.3v39.7
		C466.2,301.6,465.6,302.1,464.9,302.1z M397.1,296c-0.7,0-1.3-0.6-1.3-1.3v-39.4c0-0.7,0.6-1.3,1.3-1.3c0.7,0,1.3,0.6,1.3,1.3v39.4
		C398.4,295.4,397.9,296,397.1,296z M380.3,303.7c-0.7,0-1.3-0.6-1.3-1.3v-21.1c0-0.7,0.6-1.3,1.3-1.3c0.7,0,1.3,0.6,1.3,1.3v21.1
		C381.7,303.1,381.1,303.7,380.3,303.7z M414.4,298.8c-0.7,0-1.3-0.6-1.3-1.3v-16.4c0-0.7,0.6-1.3,1.3-1.3c0.7,0,1.3,0.6,1.3,1.3
		v16.4C415.7,298.2,415.2,298.8,414.4,298.8z"/>
	<path class="st0" d="M472.6,293.9c-0.7,0-1.3-0.6-1.3-1.3v-16.4c0-0.7,0.6-1.3,1.3-1.3c0.7,0,1.3,0.6,1.3,1.3v16.4
		C473.9,293.3,473.3,293.9,472.6,293.9z"/>
	<path class="st2" d="M500.3,298.6c-0.7,0-1.3-0.6-1.3-1.3v-16.4c0-0.7,0.6-1.3,1.3-1.3c0.7,0,1.3,0.6,1.3,1.3v16.4
		C501.7,298,501.1,298.6,500.3,298.6z"/>
	<path class="st0" d="M508.3,303.4c-0.7,0-1.3-0.6-1.3-1.3v-16.4c0-0.7,0.6-1.3,1.3-1.3c0.7,0,1.3,0.6,1.3,1.3v16.4
		C509.6,302.8,509,303.4,508.3,303.4z"/>
	<path class="st2" d="M517.3,286.4c-0.7,0-1.3-0.6-1.3-1.3v-16.4c0-0.7,0.6-1.3,1.3-1.3s1.3,0.6,1.3,1.3v16.4
		C518.7,285.8,518.1,286.4,517.3,286.4z"/>
	<path class="st0" d="M457.1,298.8c-0.7,0-1.3-0.6-1.3-1.3v-16.4c0-0.7,0.6-1.3,1.3-1.3c0.7,0,1.3,0.6,1.3,1.3v16.4
		C458.4,298.2,457.8,298.8,457.1,298.8z"/>
	<path class="st2" d="M430.7,295c-0.7,0-1.3-0.6-1.3-1.3v-16.4c0-0.7,0.6-1.3,1.3-1.3c0.7,0,1.3,0.6,1.3,1.3v16.4
		C432,294.4,431.4,295,430.7,295z M448.2,299c-0.7,0-1.3-0.6-1.3-1.3v-26.6c0-0.7,0.6-1.3,1.3-1.3c0.7,0,1.3,0.6,1.3,1.3v26.6
		C449.5,298.4,448.9,299,448.2,299z"/>
	<path class="st4" d="M539.9,330.7h0.4c0.3,0,0.7,0,1.2-0.1c1-0.2,2.5-0.6,4.1-1.9c0.8-0.6,1.5-1.5,2.1-2.6s1-2.4,1-3.9V312
		c0-15.3,0-37.5-0.1-64.9v-2.6c0-0.9,0-1.7-0.1-2.6c-0.3-1.7-1.1-3.3-2.4-4.6c-1.2-1.2-2.9-2.1-4.6-2.4c-0.9-0.2-1.8-0.1-2.7-0.1
		H343.3c-2.5,0-5,1.2-6.7,3.1c-0.8,1-1.4,2.1-1.7,3.3c-0.3,1.2-0.3,2.5-0.3,3.8v74.5c0,1.2-0.1,2.4,0.1,3.5s0.6,2.2,1.1,3.2
		c1.2,2,3.1,3.4,5.3,3.9c1.1,0.3,2.2,0.3,3.4,0.3h10.3c36.3,0,68.9,0,96.3,0.1c27.4,0,49.6,0.1,64.9,0.1h22.3
		C539.3,330.7,539.9,330.7,539.9,330.7H516c-15.3,0-37.5,0-64.9,0.1c-27.4,0-60.1,0-96.3,0.1h-10.3c-1.1,0-2.3,0-3.5-0.3
		c-2.3-0.6-4.4-2.1-5.6-4.2c-0.6-1-1-2.2-1.2-3.4c-0.2-1.2-0.1-2.4-0.1-3.6v-74.5c0-1.3-0.1-2.6,0.3-3.9c0.3-1.3,1-2.5,1.8-3.5
		c1.7-2.1,4.4-3.3,7.1-3.3h195.5c0.9,0,1.9,0,2.8,0.2c1.8,0.3,3.5,1.3,4.8,2.6s2.1,3,2.5,4.8c0.2,0.9,0.1,1.8,0.1,2.6v2.6
		c0,27.4-0.1,49.6-0.1,64.9v10.2c-0.1,1.5-0.5,2.8-1.1,3.9s-1.4,2-2.2,2.6c-1.6,1.3-3.1,1.7-4.1,1.9c-0.5,0.1-0.9,0.1-1.2,0.1
		C540,330.7,539.9,330.7,539.9,330.7L539.9,330.7z M318.4,330.7c0,0,0.3,0,1-0.1c0.6-0.1,1.6-0.3,2.6-1c1-0.6,2.2-1.8,2.8-3.4
		c0.3-0.8,0.5-1.8,0.4-2.8v-3.3c0-9.4,0-23.1-0.1-39.9v-39.1c-0.1-1.3-0.5-2.5-1.3-3.5c-0.7-1-1.8-1.9-3-2.3
		c-0.6-0.2-1.2-0.4-1.9-0.4h-82.8c-1.6,0-3.1,0.6-4.3,1.5c-1.2,1-2,2.4-2.3,3.9c-0.2,0.7-0.1,1.5-0.1,2.3v80.8
		c0,1.3,0.2,2.5,0.8,3.6c1.2,2.2,3.6,3.6,6,3.5h27.6c16.9,0,30.5,0.1,39.9,0.1h13.7C318.1,330.7,318.4,330.7,318.4,330.7h-14.7
		c-9.4,0-23.1,0-39.9,0.1h-27.6c-2.6,0.1-5.2-1.4-6.4-3.7c-0.6-1.2-0.9-2.5-0.9-3.8v-80.8c0-0.8,0-1.6,0.1-2.4
		c0.3-1.6,1.2-3.1,2.5-4.2s2.9-1.7,4.6-1.7h82.8c0.7,0.1,1.4,0.2,2,0.5c1.3,0.5,2.4,1.4,3.2,2.5c0.8,1.1,1.3,2.4,1.3,3.8v39.1
		c0,16.9-0.1,30.5-0.1,39.9v3.3c0,1-0.1,2-0.5,2.9c-0.7,1.7-1.9,2.9-2.9,3.5c-1.1,0.6-2,0.9-2.7,0.9
		C318.7,330.7,318.4,330.7,318.4,330.7L318.4,330.7z M534.3,76.8h0.6c0.4,0,1,0,1.8,0.2c1.5,0.3,3.9,0.9,6.3,2.8
		c1.2,0.9,2.4,2.2,3.4,3.8c1,1.6,1.7,3.6,2,5.8c0.1,1.1,0.1,2.3,0.1,3.5v11.9c0,23.2,0,56.8,0.1,98.3v7.9c0,1.3,0,2.7-0.1,4
		s-0.4,2.7-0.9,4c-1,2.6-2.8,4.8-5.1,6.5c-1.2,0.8-2.4,1.5-3.8,1.9c-1.4,0.4-2.8,0.7-4.2,0.7H242.9c-4,0-8-1.8-10.7-4.8
		c-1.3-1.5-2.4-3.3-3-5.2c-0.2-0.5-0.3-1-0.4-1.4c-0.1-0.5-0.2-1-0.2-1.5l-0.1-1.5V94.1c0-1.8-0.1-3.6,0.2-5.4
		c0.5-3.6,2.5-6.9,5.3-9.1c1.4-1.1,3-2,4.7-2.5c1.7-0.6,3.5-0.6,5.2-0.6h10.3c54.9,0,104.3,0,145.7,0.1c41.5,0,75,0.1,98.3,0.1h33.6
		C533.5,76.7,534.3,76.8,534.3,76.8l-36,0c-23.2,0-56.8,0-98.3,0.1c-41.5,0-90.9,0-145.7,0.1H244c-1.7,0-3.4,0.1-5.1,0.6
		c-1.6,0.5-3.2,1.3-4.5,2.4c-2.7,2.1-4.6,5.3-5.1,8.8c-0.3,1.7-0.1,3.5-0.2,5.3v119.6l0.1,1.4c0.1,0.5,0.1,1,0.2,1.4
		c0.1,0.5,0.2,0.9,0.4,1.4c0.6,1.8,1.6,3.5,2.9,5c2.6,2.9,6.4,4.6,10.3,4.6h291.6c1.4,0,2.8-0.3,4.1-0.7s2.5-1.1,3.7-1.8
		c2.2-1.6,4-3.8,4.9-6.3c0.5-1.2,0.8-2.6,0.9-3.9c0.1-1.3,0-2.7,0.1-4v-7.9c0-41.5,0.1-75.1,0.1-98.3V92.7c0-1.2,0-2.4-0.1-3.5
		c-0.2-2.2-1-4.2-2-5.8c-1-1.6-2.2-2.9-3.4-3.8c-2.4-1.9-4.7-2.5-6.3-2.8c-0.8-0.1-1.4-0.2-1.8-0.2
		C534.5,76.8,534.3,76.8,534.3,76.8L534.3,76.8z"/>
</g>
<path id="Floor" class="st3" d="M691.7,457.4c0,0.1-142.4,0.3-318,0.3c-175.7,0-318-0.1-318-0.3s142.4-0.3,318-0.3
	S691.7,457.2,691.7,457.4z"/>
<g id="Character">
	<path class="st4" d="M90.2,421.2L83.7,447l-11.1,19c-0.8,1.4-0.3,3.1,1.1,3.8c0.8,0.4,1.7,0.4,2.5,0l25-15.5l7.2-25.8L90.2,421.2z"
		/>
	<path class="st3" d="M76.3,469.8l25-15.5l1.1-3.8l-28.8,19.3C73.6,469.7,75,470.5,76.3,469.8z"/>
	<path class="st4" d="M171,426.8l-1.3,20.2c0,0,20.1,6.7,20.2,10.4l-39.3,0.3l0.8-31.6L171,426.8z"/>
	<path class="st3" d="M150.6,457.8l0.1-3.2l38,1c0,0,1.3,0.5,1.5,2.1L150.6,457.8z M169.3,253l-61.6-3.2L82.2,443.5l24.4,3.1
		l32.1-160.2l9.4,154l0.3,5.6l25.5,0.6L169.3,253z"/>
	<path class="st4" d="M164.2,442c-0.1,0-2.4-35.1-5.1-78.5c-2.7-43.3-4.7-78.5-4.6-78.5c0.1,0,2.4,35.1,5.1,78.5
		C162.2,406.8,164.3,442,164.2,442z M121.9,283.7c0.1,0-5.9,35.4-13.4,79c-7.6,43.6-13.8,78.9-13.9,78.9s5.9-35.4,13.4-79
		S121.7,283.6,121.9,283.7z"/>
	<path class="st6" d="M56.5,181.5l-11.2-16.4c-2.2-3.7-2.9-5.4-2.2-5.8c1-0.5,0.6-0.3,5.6,5.8c0,0-7.1-8.8-4-8.1
		c0.5,0.1,1.8,1.4,3.1,2.8c-1.7-2.4-2-3.8-1.4-4.3c1-0.8,5.4,4.2,7.4,6.6c-1.6-2-4.8-5.9-5.2-6.9c-0.6-1.5,1.2-0.9,2.6,0
		c1.6,1,9.8,8.2,12.3,10.1c1.7,1.3,2.8-0.2,2.8-0.2c2.1-4.1,5.9-6.1,7.2-6.2c1.3-0.1,1.8,1.7,0.7,2.6c-0.9,0.7-2.1,2.4-2.9,3.7
		c-0.7,1.1-1.2,2.2-1.4,3.4c-0.2,0.8-0.3,1.5-0.5,2.2l4.5,8.1L59,188.4L56.5,181.5L56.5,181.5z"/>
	<path class="st7" d="M51.1,168.7c-0.2,0.1-1.8-1.7-3.6-4.1c-1.8-2.4-3.2-4.4-3-4.5s1.8,1.7,3.6,4.1
		C49.9,166.6,51.2,168.6,51.1,168.7z M54.6,167.3c-0.1,0.1-2-1.7-4.1-4.1c-2.1-2.4-3.7-4.5-3.6-4.6c0.1-0.1,2,1.7,4.1,4.1
		C53.1,165.1,54.7,167.1,54.6,167.3z M57.4,165.9c-0.1,0.1-1.9-1.6-3.9-3.8s-3.6-4.2-3.4-4.3c0.1-0.1,1.9,1.6,3.9,3.8
		C56.1,163.9,57.6,165.8,57.4,165.9z M57.5,174.7c0,0,0.4-0.4,1.3-0.6c0.9-0.2,2.3-0.1,3.4,1l-0.4,0.2c-0.1-0.5-0.2-1.1-0.2-1.7
		c-0.1-1.9,0.5-3.5,1.1-4.6s1.2-1.6,1.2-1.5c0.1,0.1-0.4,0.6-0.9,1.7s-0.9,2.6-0.9,4.4c0,0.6,0.1,1.1,0.2,1.6l0.2,0.8l-0.6-0.6
		c-1-0.9-2.2-1.1-3-1C57.9,174.5,57.5,174.7,57.5,174.7L57.5,174.7z"/>
	<path class="st6" d="M120,105.8l4,45.9l10.8,6.4l12-5.8c0.1-2.7,0.2-15.5,0.2-15.5s9.6-1.5,9.7-11.1c0.1-4.6-0.6-14.2-1.3-22.9
		c-0.8-9.6-9.1-16.8-18.7-16.3C126.6,87.2,119.1,95.8,120,105.8z"/>
	<path class="st7" d="M146.9,136.6c0,0-6,0.5-12.5-3.5c0,0,2.9,6.9,12.5,6V136.6z"/>
	<path class="st3" d="M151.9,109.7c0,0.7-0.6,1.3-1.3,1.4c-0.8,0-1.4-0.5-1.4-1.2s0.6-1.3,1.3-1.4
		C151.3,108.4,151.9,109,151.9,109.7z M153.2,107.6c-0.2,0.2-1.2-0.6-2.7-0.6s-2.5,0.7-2.7,0.6c-0.1-0.1,0.1-0.4,0.6-0.7
		c0.5-0.3,1.3-0.7,2.2-0.7s1.7,0.3,2.1,0.7C153.2,107.2,153.3,107.6,153.2,107.6L153.2,107.6z M137.5,109.7c0,0.7-0.6,1.3-1.3,1.4
		c-0.8,0-1.4-0.5-1.4-1.2s0.6-1.3,1.3-1.4C136.9,108.4,137.5,109,137.5,109.7z M138.8,107.9c-0.2,0.2-1.2-0.6-2.7-0.6
		s-2.5,0.7-2.7,0.6c-0.1-0.1,0.1-0.4,0.6-0.7c0.5-0.3,1.3-0.7,2.2-0.7s1.7,0.3,2.1,0.7C138.7,107.5,138.9,107.8,138.8,107.9
		L138.8,107.9z M144.1,118.8c0-0.1,0.9-0.2,2.4-0.4c0.4,0,0.7-0.1,0.8-0.4s-0.1-0.7-0.3-1.1c-0.4-0.9-0.7-1.9-1.1-2.9
		c-1.5-4.1-2.7-7.4-2.5-7.5s1.5,3.2,3.1,7.3c0.4,1,0.7,2,1.1,2.9c0.1,0.4,0.4,0.9,0.2,1.5c-0.1,0.3-0.4,0.5-0.6,0.5
		c-0.2,0.1-0.5,0.1-0.6,0.1C145.1,118.9,144.1,118.9,144.1,118.8L144.1,118.8z M139.8,119.8c0.2,0,0.2,1.6,1.6,2.7
		c1.4,1.1,3.1,1,3.1,1.2c0,0.1-0.4,0.3-1.1,0.3c-0.7,0-1.7-0.2-2.6-0.9c-0.8-0.7-1.2-1.6-1.2-2.3
		C139.5,120.2,139.7,119.8,139.8,119.8z M139.2,102.2c-0.1,0.4-1.6,0.2-3.3,0.4c-1.7,0.2-3.1,0.7-3.3,0.3c-0.1-0.2,0.1-0.5,0.7-0.9
		s1.4-0.8,2.5-0.9c1-0.1,2,0.1,2.6,0.3C138.9,101.7,139.2,102,139.2,102.2z M152.7,103.4c-0.3,0.3-1.3,0-2.5,0
		c-1.2-0.1-2.2,0.2-2.5-0.1c-0.1-0.2,0.1-0.5,0.5-0.8s1.2-0.6,2-0.5c0.8,0,1.6,0.3,2,0.7C152.7,102.9,152.8,103.2,152.7,103.4z"/>
	<path class="st3" d="M113.2,93.5c-0.1-1.8,1.2-3.7,3-3.8c-0.7-1.7-0.3-3.9,1.1-5.1s3.6-1.4,5.2-0.5c0.5-2.1,2.3-3.8,4.4-4.2
		c2.1-0.4,4.4,0.4,5.7,2.1c1.3-1.6,3.5-2.4,5.6-2.1s3.9,1.8,4.7,3.7c1.8-1.5,4.3-1.9,6.5-1.2c1.4,0.5,2.6,1.4,3.4,2.6
		c1.1-0.3,2.2-0.6,3.3-0.5c1.4,0.1,2.9,0.9,3.4,2.2c0.4,1.1,0,2.5-1,3.1c1.7-0.4,3.8,0.8,4.1,2.6c0.2,1.6-1.1,3.2-2.6,3.6
		c0.6,0.3,1.1,1,1,1.7c-0.1,1.2-1.2,2-2.2,2.5c-2.7,1.2-5.9,0.8-8.7-0.1c-2.8-1-5.4-2.4-8.2-3.5c-2.8-1-7.5-2.9-10.3-1.9
		c-0.4,0.1-0.8,0.4-1.1,0.6c-1.5,1.2-2.5,2.9-2.8,4.8v0.2c-0.4,2.7-0.3,5.5-0.7,8.2c-0.4,2.7-1.3,5.5-3.4,7.4
		c-0.8,0.8-2.3,1.3-3,0.4c-0.3-0.4-0.3-0.8-0.3-1.3c-0.4-4.8-1.4-9.1-1.9-13.8c-0.6-1.2-1.7-2.2-2.6-3.2
		C114.3,96.9,113.3,95.3,113.2,93.5L113.2,93.5z"/>
	<path class="st4" d="M141.8,88.7c0,0,0.2-0.4,0.1-1.3c-0.1-0.8-0.4-2.1-1.5-3.1s-3.1-1.7-5-1c-0.9,0.3-1.9,1-2.4,2.1
		c-0.2,0.6-0.2,1.2-0.1,1.8c0.2,0.6,0.6,1.1,1.2,1.4c0.6,0.2,1.3,0.2,1.9-0.2c0.6-0.4,0.7-1.1,0.7-1.7c-0.1-0.6-0.4-1.2-0.8-1.5
		c-0.4-0.4-0.9-0.6-1.4-0.8c-2-0.6-3.9-0.1-5.1,0.8c-0.6,0.5-1,1-1.2,1.6s-0.2,1.1-0.1,1.5c0.2,0.8,0.7,1.1,0.7,1.1
		c0.1,0-0.3-0.3-0.5-1.1c-0.1-0.4,0-0.9,0.2-1.4s0.6-1,1.2-1.4c1.1-0.8,2.9-1.2,4.7-0.6c0.8,0.3,1.7,0.9,1.8,1.8
		c0,0.4-0.1,0.9-0.4,1.1c-0.3,0.3-0.9,0.3-1.3,0.1c-0.9-0.3-1.2-1.5-0.8-2.4c0.3-0.9,1.2-1.5,2-1.8c1.7-0.6,3.5-0.1,4.6,0.8
		s1.5,2.1,1.6,2.8C141.8,88.2,141.7,88.7,141.8,88.7L141.8,88.7z M130.1,82.6c0,0-0.3-0.1-0.9-0.2c-0.6,0-1.4-0.1-2.4,0.1
		s-2.2,0.6-3.2,1.6s-1.4,2.9-0.5,4.3c0.1,0.2,0.3,0.4,0.5,0.6l0.3-0.5c-0.8-0.3-1.7-0.1-2.3,0.3c-0.6,0.4-1.1,1.1-1.2,1.7
		c-0.3,1.3,0.2,2.5,0.7,3.3c0.6,0.8,1.2,1.2,1.6,1.5s0.7,0.4,0.7,0.4l-0.6-0.6c-0.4-0.3-0.9-0.8-1.4-1.6c-0.5-0.7-0.9-1.8-0.6-2.9
		c0.1-0.5,0.5-1,1-1.4c0.5-0.3,1.2-0.5,1.7-0.2l1.6,0.6l-1.3-1.1c-0.1-0.1-0.3-0.3-0.4-0.5c-0.4-0.6-0.5-1.3-0.4-1.9
		c0.1-0.7,0.4-1.2,0.8-1.7c0.8-0.9,1.9-1.4,2.9-1.6C128.9,82.6,130.1,82.7,130.1,82.6L130.1,82.6z M116.3,92.7
		c-0.1,0-0.2,0.3-0.2,0.9s0.2,1.4,0.8,2.1c0.6,0.7,1.4,1,2,1.1s0.9-0.1,0.9-0.1c0-0.2-1.4-0.1-2.5-1.3
		C116.3,94.2,116.5,92.7,116.3,92.7z M157.1,87.7c0,0-0.3-0.3-0.9-0.7c-0.6-0.4-1.7-0.8-3.1-0.8c-1.3,0-3,0.4-4.3,1.8
		c-0.6,0.6-1.2,1.6-1.1,2.6c0.1,1.1,1,2.1,2.3,2.1c0.6-0.1,1.2-0.5,1.4-1s0.2-1.1,0.1-1.6c-0.3-1.1-1.2-1.7-2.1-2
		c-0.9-0.3-1.8-0.2-2.6,0c-0.8,0.3-1.4,0.7-1.9,1.2c-1,0.9-1.5,1.9-1.9,2.5c-0.3,0.7-0.5,1-0.5,1s0.3-0.3,0.7-0.9s1-1.5,2-2.3
		c0.9-0.8,2.5-1.5,4-1c0.7,0.3,1.5,0.8,1.7,1.6c0.2,0.8-0.1,1.8-0.9,1.9c-0.8,0.1-1.6-0.7-1.6-1.5c-0.1-0.8,0.4-1.6,0.9-2.2
		c1.1-1.2,2.7-1.7,3.9-1.7c1.3-0.1,2.3,0.3,2.9,0.6C156.8,87.5,157.1,87.8,157.1,87.7L157.1,87.7z"/>
	<path class="st6" d="M123.2,110.1c-0.2-0.1-6.6-1.9-6.4,4.6s6.7,5,6.7,4.8C123.6,119.3,123.2,110.1,123.2,110.1z"/>
	<path class="st7" d="M121.5,117.1c0,0-0.1,0.1-0.3,0.2c-0.2,0.1-0.5,0.2-0.9,0c-0.7-0.2-1.3-1.3-1.4-2.5c0-0.6,0.1-1.2,0.3-1.6
		c0.2-0.5,0.5-0.8,0.8-0.9s0.6,0.1,0.7,0.3c0.1,0.2,0.1,0.3,0.1,0.3s0.1-0.1,0.1-0.4c0-0.1-0.1-0.3-0.3-0.4
		c-0.2-0.1-0.4-0.2-0.6-0.1c-0.5,0.1-0.9,0.5-1.2,1.1c-0.2,0.5-0.4,1.2-0.3,1.8c0.1,1.3,0.8,2.5,1.8,2.8c0.5,0.1,0.8,0,1-0.2
		C121.5,117.2,121.5,117.1,121.5,117.1z"/>
	<path class="st2" d="M103.8,193.9c0,1.6,4.7,33.2,4.7,33.2l-9.4,51.5l36.5,1.9l4.3-31.6l4.8,31.6l31.6-3.1l-7.2-40l0.1-45.8
		l-0.4-36.8l-13.5-4.6l-7-8.2l-11.3,7l-13.9-8.3l-4.4,6L99.1,157C97.3,160.2,103.8,193.9,103.8,193.9z"/>
	<path class="st8" d="M123.1,140.7l-0.5,10l19.2,51.1l7.8-50.2l-2.5-9.6l-10.1,7.1L123.1,140.7z"/>
	<path class="st3" d="M141.4,203.7c0,0-0.2-0.2-0.5-0.6c-0.3-0.4-0.7-1-1.2-1.6c-1.1-1.5-2.6-3.6-4.5-6.1
		c-3.8-5.2-8.9-12.4-14.5-20.3c-0.8-1.1-1.6-2.3-2.4-3.4l-0.1-0.2l0.1-0.2c1.3-1.9,2.6-3.7,3.8-5.5l0.1,0.4c-3.1-2.3-6-4.4-8.5-6.3
		l-0.1-0.1l0.1-0.2c1.5-3.9,2.7-7.1,3.6-9.5c0.4-1.1,0.8-1.9,1-2.6c0.2-0.6,0.4-0.9,0.4-0.9l-0.3,0.9c-0.2,0.7-0.5,1.5-0.9,2.6
		c-0.8,2.3-2,5.6-3.5,9.5l-0.1-0.3c2.5,1.9,5.4,4,8.5,6.2l0.2,0.2l-0.1,0.2c-1.2,1.8-2.5,3.6-3.8,5.5v-0.3c0.8,1.1,1.6,2.2,2.4,3.4
		c5.6,7.9,10.7,15.1,14.4,20.4c1.8,2.6,3.3,4.7,4.3,6.2c0.5,0.7,0.9,1.3,1.2,1.7C141.3,203.5,141.5,203.7,141.4,203.7L141.4,203.7z"
		/>
	<path class="st3" d="M139.8,256.9v-2.2c0-1.5,0.1-3.4,0.2-5.8c0.2-5,0.4-11.8,0.6-19.3c0.2-7.5,0.4-14.3,0.6-19.3
		c0.1-2.4,0.1-4.4,0.2-5.8c0-0.6,0-1.2,0.1-1.6c0-0.4,0-0.6,0.1-0.6c0,0,0,0.2,0.1,0.6v7.4c0,4.9-0.2,11.7-0.4,19.3
		c-0.3,7.5-0.6,14.3-0.8,19.3c-0.1,2.4-0.3,4.4-0.3,5.8c0,0.6-0.1,1.2-0.1,1.6C139.8,256.7,139.8,256.9,139.8,256.9L139.8,256.9z
		 M142.2,202.2c0,0,0-0.2,0.2-0.6c0.2-0.4,0.4-1,0.6-1.6c0.6-1.5,1.4-3.5,2.4-5.9c2.1-5.1,5-11.9,8.2-19.5c0.7-1.6,1.3-3.1,2-4.6
		v0.3c-1.6-1.9-3.1-3.7-4.5-5.3l-0.1-0.2l0.2-0.2c2.4-2.5,4.6-4.8,6.5-6.7v0.2c-0.9-2.5-1.6-4.5-2.1-6c-0.2-0.7-0.4-1.2-0.5-1.6
		c-0.1-0.4-0.2-0.6-0.2-0.6s0.1,0.2,0.3,0.5c0.2,0.4,0.4,1,0.6,1.6c0.6,1.5,1.3,3.5,2.2,6v0.1l-0.1,0.1c-1.8,1.9-4,4.2-6.4,6.8v-0.3
		c1.4,1.7,2.9,3.5,4.5,5.3l0.1,0.1l-0.1,0.2c-0.6,1.5-1.3,3-2,4.6c-3.2,7.6-6.2,14.4-8.4,19.5c-1.1,2.4-1.9,4.4-2.6,5.9
		c-0.3,0.6-0.5,1.2-0.7,1.6C142.4,202,142.3,202.2,142.2,202.2L142.2,202.2z"/>
	<path class="st9" d="M113.9,159.8l5.6,6.3l-3.9,7l24.2,28.7l-21.2-30.2l3.8-5.6L113.9,159.8z M142.8,200.9l13.5-26.4l-0.4-4.5
		L142.8,200.9z"/>
	<path class="st3" d="M100.5,160.4c0,0,0.3,0.1,0.7,0.5c0.5,0.3,1.1,0.9,1.8,1.6c1.4,1.4,3.1,3.7,4.4,6.5c1.2,2.8,1.7,5.6,1.8,7.6
		c0,1,0,1.8-0.1,2.4c-0.1,0.6-0.1,0.9-0.2,0.9s0-1.2-0.2-3.2s-0.7-4.7-1.9-7.4c-1.2-2.8-2.8-5-4.2-6.4
		C101.4,161.2,100.4,160.4,100.5,160.4L100.5,160.4z M171,186.1c-0.2,0-0.7-5.8-1.2-13s-0.8-13-0.6-13s0.7,5.8,1.2,13
		S171.1,186.1,171,186.1z M149.6,151.8l-0.6,0.6l-1.7,1.7c-1.5,1.4-3.7,3.5-6.7,5.5l-0.4,0.2v-0.4c-0.1-1.8-0.1-3.8-0.9-5.7
		c-0.3-1-0.8-1.9-1.4-2.8c-0.3-0.5-0.6-0.9-0.9-1.4l-0.1-0.2l-0.1-0.1c-0.3-0.1,0.4,0.1,0.3,0.1c-0.1,0.1-0.2,0.2-0.2,0.3
		c-0.2,0.2-0.3,0.4-0.4,0.7c-0.8,1.5-1,3.3-1.3,4.9c-0.3,1.6-0.6,3.2-0.8,4.7l-0.1,0.4L134,160c-3.3-2.6-6.1-4.8-8.1-6.5
		c-0.9-0.8-1.7-1.4-2.3-1.9c-0.5-0.4-0.8-0.7-0.8-0.7l0.9,0.6c0.6,0.5,1.4,1,2.4,1.8c2.1,1.6,4.9,3.8,8.3,6.3l-0.4,0.2
		c0.2-1.5,0.4-3.1,0.7-4.7c0.3-1.6,0.6-3.4,1.4-5c0.1-0.3,0.3-0.5,0.5-0.8c0.1-0.1,0.2-0.2,0.3-0.4h0.1c-0.1,0,0.7,0.1,0.4,0.1
		l0.1,0.1l0.1,0.2c0.3,0.5,0.7,0.9,1,1.4c0.6,1,1.1,1.9,1.4,2.9c0.7,2,0.8,4.1,0.8,5.8l-0.4-0.2c3-1.9,5.2-3.9,6.8-5.3
		c0.7-0.6,1.3-1.2,1.8-1.6C149.3,152,149.6,151.8,149.6,151.8L149.6,151.8z"/>
	<path class="st3" d="M141.4,201.3c-0.2,0-1.3-11.6-2.5-25.9c-1.2-14.3-2.1-26-1.9-26c0.2,0,1.3,11.6,2.5,25.9
		C140.7,189.7,141.6,201.3,141.4,201.3z"/>
	<path class="st9" d="M107.7,189.9c0,0-0.9,25.1-0.9,25.2c0,0.1-2.2-14.9-2.2-14.9L107.7,189.9z"/>
	<path class="st6" d="M211.5,192.2l-11.5-8.6l3-5.6l6.7-9.7c0.5-0.8,1.3-1.3,2.3-1.4l5.9-0.9l0.3,1.8c0,0,2.2-1.5,3,0.4
		s-1.9,3.7-1.9,3.7s2.3-0.6,2.7,1.7s-1.7,2.6-1.7,2.6c1.7,2.3,0,3.7,0,3.7c2,2.3-0.8,4.5-0.8,4.5l-7.6,7.7L211.5,192.2z"/>
	<path class="st2" d="M238.6,107.3l0.8,0.7l-27.3,80.1l-2.7-1.2L238.6,107.3z"/>
	<path class="st6" d="M220.8,182.7c-0.9,1.7-2.2,2.7-3.8,3.8c-0.4,0.3-0.9,0.6-1.4,0.7c-0.5,0.1-1.1,0-1.4-0.4
		c-0.2-0.3-0.3-0.7-0.3-1.1c0-0.8,0.4-1.5,1-2.1s1.2-1,1.8-1.5"/>
	<path class="st7" d="M216.7,182.2c0.1,0.1-0.6,0.5-1.5,1.4c-0.4,0.5-0.9,1.1-1,1.9c-0.1,0.4,0,0.8,0.2,1.1s0.6,0.4,1,0.4
		c0.9-0.1,1.6-0.8,2.3-1.3s1.3-1,1.7-1.4c0.9-0.9,1.3-1.6,1.4-1.6c0.1,0-0.2,0.8-1.1,1.8c-0.4,0.5-1,1-1.7,1.6
		c-0.3,0.3-0.7,0.5-1.1,0.8c-0.4,0.3-0.9,0.5-1.4,0.6c-0.6,0-1.2-0.1-1.5-0.6s-0.3-1-0.2-1.5c0.2-0.9,0.7-1.6,1.2-2
		C215.9,182.4,216.6,182.1,216.7,182.2L216.7,182.2z"/>
	<path class="st2" d="M168.8,154.8c3,1,7.7,9.8,7.7,9.8l12.3,36.3c0,0,11-17.8,11-18.1s14.2,10.4,14.2,10.4l-9.3,18.2l-0.5,4.7
		l-9,14.6c-2.3,2.5-6.3,3-9.7,2.8c-4.3-0.2-8-2.9-9.6-6.8l-6.6-18.4L168.8,154.8L168.8,154.8z M93.9,164.2l-10.2,32.6L73,175.4
		l-16.2,10.3L72,219.3c2.2,5.1,8.6,10.3,13.2,10.3c6.8,0,12.8-4.2,15.2-10.6l10.8-26.4l-12-35.7C96.7,158.8,94.9,161.3,93.9,164.2
		L93.9,164.2z"/>
	<path class="st3" d="M83.8,215.9c-0.1,0-0.2-4.4-0.2-9.7c0-5.4,0.2-9.7,0.3-9.7c0.1,0,0.2,4.4,0.2,9.8
		C84.1,211.5,83.9,215.9,83.8,215.9L83.8,215.9z"/>
	<path class="st3" d="M88.7,210.1c-0.1,0-0.3-0.8-0.7-2.2c-0.4-1.3-0.9-3.2-1.4-5.2c-0.6-2-1.1-3.9-1.6-5.2
		c-0.2-0.6-0.7-0.9-1.1-0.9s-0.5,0.2-0.5,0.2s0.1-0.3,0.5-0.4c0.2,0,0.5,0,0.8,0.1c0.3,0.2,0.5,0.4,0.7,0.8c0.5,1.3,1.1,3.1,1.7,5.2
		c0.6,2,1,3.9,1.3,5.3C88.6,209.3,88.7,210.1,88.7,210.1L88.7,210.1z"/>
	<path class="st3" d="M71.5,218.1l0.3,0.6c0.2,0.4,0.5,0.9,0.9,1.6c0.8,1.4,2.1,3.3,4.1,5.2c1,0.9,2.2,1.9,3.7,2.7
		c1.5,0.7,3.2,1.2,5,1.3s3.8-0.2,5.6-1c1.8-0.8,3.6-2,5.1-3.5c0.9-0.9,1.8-2,2.4-3c2.9-7.2,5.6-13.4,7.7-17.9c1-2.2,1.8-4,2.4-5.3
		l0.7-1.4c0.2-0.3,0.3-0.5,0.3-0.5s0,0.2-0.2,0.5c-0.2,0.4-0.4,0.9-0.6,1.4c-0.6,1.3-1.3,3.1-2.3,5.3c-1.9,4.5-4.6,10.8-7.5,18
		c-0.7,1.1-1.5,2.1-2.5,3.1c-1.5,1.6-3.3,2.8-5.3,3.6c-1.9,0.8-3.9,1.1-5.8,1s-3.7-0.6-5.2-1.4c-1.5-0.8-2.7-1.8-3.8-2.8
		c-2-2-3.2-4-4-5.4c-0.4-0.7-0.6-1.3-0.8-1.6C71.5,218.3,71.5,218.1,71.5,218.1L71.5,218.1z"/>
	<path class="st6" d="M211.9,166.9l5.9-0.9c0,0,1.1,1.7-3.3,4.1l-2.8,1.7c0,0,2,3.8-1.1,9.4"/>
	<path class="st7" d="M210.7,181.1c-0.1,0,0.4-1,1-2.6c0.2-0.8,0.5-1.8,0.5-3c0-1.1-0.1-2.5-0.6-3.7l-0.1-0.2l0.2-0.1
		c0.7-0.4,1.4-0.9,2.2-1.3c1-0.6,2-1.1,2.8-1.8c0.4-0.3,0.7-0.7,0.9-1.1c0.2-0.4,0.3-0.9,0.1-1.2l0.2,0.1c-1.8,0.3-3.3,0.5-4.3,0.6
		s-1.6,0.2-1.6,0.1c0,0,0.6-0.2,1.6-0.4s2.5-0.5,4.3-0.8h0.2l0.1,0.1c0.3,0.6,0.1,1.1-0.1,1.6s-0.6,0.9-1,1.3
		c-0.8,0.8-1.8,1.3-2.8,1.9c-0.8,0.4-1.5,0.9-2.2,1.3l0.1-0.3c0.6,1.4,0.7,2.7,0.6,3.9c-0.1,1.2-0.4,2.2-0.6,3.1
		c-0.1,0.4-0.3,0.8-0.5,1.1c-0.1,0.3-0.3,0.6-0.4,0.8L210.7,181.1L210.7,181.1z"/>
	<path class="st3" d="M213,192.6c0,0-0.4-0.2-1-0.7c-0.7-0.5-1.6-1.2-2.8-2c-2.4-1.8-5.7-4.2-9.6-7.1l0.3-0.1
		c-1.9,3.2-4.1,6.8-6.4,10.7c-1,1.7-2,3.4-3,5s-2,3.1-2.7,4.7c-1.5,3.1-2.1,6.2-2.4,8.8c-0.2,2.6,0,4.7,0.1,6.2
		c0.2,1.4,0.4,2.2,0.3,2.2c0,0-0.1-0.2-0.2-0.6c-0.1-0.4-0.2-0.9-0.4-1.7c-0.3-1.4-0.5-3.6-0.3-6.2s0.8-5.8,2.3-8.9
		c0.7-1.6,1.7-3.1,2.7-4.8c1-1.6,2-3.3,3-5c2.3-3.8,4.5-7.4,6.5-10.6l0.1-0.2l0.2,0.2c3.9,2.9,7.1,5.4,9.5,7.2
		c1.1,0.9,2,1.6,2.7,2.1C212.7,192.3,213,192.6,213,192.6L213,192.6z"/>
	<path class="st3" d="M188.8,201c0.1,0.1-2.8,1.7-4.9,5c-2.2,3.3-2.5,6.6-2.7,6.5c-0.1,0-0.1-0.8,0.2-2.1s0.9-3,2-4.7
		s2.5-2.9,3.5-3.7C188,201.3,188.8,201,188.8,201z M169.2,170.1c0,0,0,0.2,0.1,0.7c0,0.5,0.1,1.2,0.1,2c0.1,1.7,0.1,4.2,0.2,7.2
		c0.1,6.1,0.1,14.5,0.1,23.8s-0.1,17.7-0.2,23.8c-0.1,3-0.1,5.5-0.1,7.2c0,0.8,0,1.5-0.1,2c0,0.4,0,0.7-0.1,0.7v-9.9
		c0-6.1,0-14.5,0.1-23.8c0-9.3,0.1-17.7,0.1-23.8v-9.2C169.1,170.3,169.1,170.1,169.2,170.1L169.2,170.1z"/>
	<path class="st6" d="M219.4,167.3c-1.1,0.5-6.3,3.9-6.8,5c-0.2,0.4-0.3,0.7-0.3,1.1c0,0.4,0.2,0.8,0.5,1c0.5,0.3,1.1,0.2,1.7-0.1
		c2.3-1,4.2-2,6-3.7c0.5-0.5,0.8-1.1,0.8-1.8s-0.3-1.4-1-1.6"/>
	<path class="st7" d="M220.4,167.3c0,0,0.4,0,0.8,0.5s0.5,1.6-0.2,2.5c-0.3,0.5-0.8,0.8-1.3,1.3c-0.5,0.4-1,0.8-1.7,1.2
		c-0.6,0.4-1.3,0.7-2,1.1c-0.4,0.2-0.7,0.3-1.1,0.5c-0.4,0.2-0.7,0.4-1.2,0.4c-0.4,0.1-1,0-1.3-0.4s-0.5-0.9-0.4-1.3
		c0.1-0.4,0.2-0.8,0.4-1.2s0.5-0.6,0.8-0.8c1.1-0.9,2.2-1.6,3.1-2.2c1.8-1.2,3-1.7,3.1-1.7c0,0-0.3,0.2-0.8,0.5s-1.2,0.8-2.1,1.4
		c-0.9,0.6-1.9,1.4-3,2.3c-0.3,0.2-0.5,0.5-0.7,0.7c-0.2,0.3-0.3,0.6-0.3,1c0,0.3,0.1,0.7,0.3,0.9s0.5,0.3,0.9,0.2
		c2.9-1,5.6-2.7,6.9-4.2c0.6-0.8,0.6-1.8,0.3-2.2C220.7,167.4,220.4,167.3,220.4,167.3z"/>
	<path class="st6" d="M216.4,177.9c-0.7,0.4-1.5,0.7-2.2,1.2s-1.2,1.1-1.6,1.9c-0.2,0.5-0.3,1.2,0.1,1.6c0.2,0.3,0.6,0.4,1,0.4
		s0.8-0.1,1.1-0.2c1.4-0.4,2.8-1.1,4-1.9c0.5-0.3,1-0.7,1.4-1.2s0.6-1.1,0.6-1.8c0-0.6-0.1-1.3-0.7-1.5"/>
	<path class="st7" d="M220.2,176.4c0,0,0.4,0,0.6,0.5c0.1,0.2,0.2,0.5,0.2,0.9c0.1,0.3,0.1,0.8-0.1,1.2c-0.3,0.9-1.1,1.7-2.1,2.3
		s-2.1,1.2-3.4,1.6c-0.6,0.2-1.3,0.5-2,0.4c-0.3-0.1-0.7-0.2-0.9-0.5s-0.3-0.6-0.3-1c0.1-1.3,0.9-2.1,1.6-2.7c0.7-0.5,1.4-0.8,1.8-1
		c0.4-0.2,0.7-0.3,0.7-0.2c0,0-0.2,0.2-0.6,0.4c-0.4,0.2-1,0.6-1.7,1.1c-0.3,0.3-0.6,0.6-0.9,1c-0.3,0.4-0.5,0.9-0.5,1.4
		s0.3,0.9,0.9,1c0.5,0.1,1.1-0.2,1.7-0.4c1.2-0.4,2.3-1,3.3-1.6s1.7-1.2,2-2c0.2-0.4,0.2-0.7,0.2-1.1c0-0.3-0.1-0.6-0.1-0.8
		C220.5,176.6,220.2,176.5,220.2,176.4L220.2,176.4z"/>
	<path class="st6" d="M221.9,173.5c-0.6-2.2-3-1.4-3-1.4c-1.6,0.9-3.1,1.5-4.5,2.6c-0.5,0.3-0.8,0.9-1,1.4s-0.2,1.2,0.2,1.6
		c0.4,0.5,1,0.6,1.6,0.6s1.1-0.3,1.6-0.5l3.6-1.5c1-0.4,1.7-1.5,1.5-2.6v-0.1"/>
	<path class="st7" d="M222,173.6c0,0,0.2,0.3,0.1,0.9c-0.1,0.6-0.6,1.5-1.6,1.9s-2.1,0.9-3.3,1.5c-0.6,0.3-1.3,0.6-2.2,0.6
		c-0.4,0-0.9-0.1-1.2-0.4c-0.4-0.3-0.6-0.7-0.6-1.2c0-0.4,0.1-0.9,0.2-1.2c0.2-0.4,0.4-0.7,0.7-1c0.6-0.5,1.2-0.9,1.8-1.2
		c1.2-0.7,2.2-1.2,3.2-1.6c0.6-0.2,1.2-0.2,1.6,0c0.5,0.1,0.8,0.4,1,0.7s0.3,0.5,0.3,0.7S222.1,173.6,222,173.6s-0.1-0.4-0.5-0.8
		c-0.2-0.2-0.5-0.4-0.9-0.5s-0.9-0.1-1.4,0.1c-0.9,0.5-2,1-3.1,1.7c-0.5,0.3-1.2,0.7-1.6,1.2c-0.4,0.5-0.8,1.1-0.7,1.8
		c0,0.7,0.7,1.1,1.3,1.1c0.7,0,1.3-0.3,2-0.5c1.2-0.5,2.4-1,3.4-1.4c0.9-0.3,1.4-1.1,1.5-1.6C222,173.9,221.9,173.6,222,173.6z"/>
</g>
</svg>
