<?xml version="1.0" encoding="utf-8"?>
<!-- Generator: Adobe Illustrator 25.2.0, SVG Export Plug-In . SVG Version: 6.00 Build 0)  -->
<svg version="1.1" id="Layer_1" xmlns="http://www.w3.org/2000/svg" xmlns:xlink="http://www.w3.org/1999/xlink" x="0px" y="0px"
	 viewBox="0 0 750 500" style="enable-background:new 0 0 750 500;" xml:space="preserve">
<style type="text/css">
	.st0{fill:#FAFAFA;}
	.st1{fill:#E0E0E0;}
	.st2{fill:#E8505B;}
	.st3{opacity:0.3;enable-background:new    ;}
	.st4{fill:#F5F5F5;}
	.st5{fill:#EBEBEB;}
	.st6{fill:#FFFFFF;}
	.st7{fill:#263238;}
	.st8{fill:#8026CD;}
	.st9{fill:#455A64;}
	.st10{fill:#FFBE9D;}
	.st11{fill:#EB996E;}
	.st12{fill:#B78876;}
	.st13{fill:#AA6550;}
</style>
<g id="Background_Complete">
	<path class="st0" d="M441.4,419.3v25.4h4v2.8h-4v17h-74.3V449h5.5v-3.4h-5.5v-5h-2.4v-2.3h2.9v-18.9h73.8L441.4,419.3L441.4,419.3z
		"/>
	<path class="st1" d="M386.9,419.4v44.7h-19.8v-15.4h5.5v-3.1l-5.5,0.1v-5h-2.5l0.1-2.6l2.9-0.1v-18.7L386.9,419.4z"/>
	<path class="st1" d="M385.4,447.1c0,0.2,13.4,0.3,30,0.3s30-0.1,30-0.3c0-0.2-13.4-0.3-30-0.3C398.9,446.8,385.4,446.9,385.4,447.1
		z M385.4,444.5c0,0.2,13.4,0.3,30,0.3s30-0.1,30-0.3c0-0.2-13.4-0.3-30-0.3C398.9,444.2,385.4,444.3,385.4,444.5z M381.6,437.6
		c0,0.2,13.4,0.3,30,0.3s30-0.1,30-0.3c0-0.2-13.4-0.3-30-0.3S381.6,437.4,381.6,437.6z M381.2,456.5c0,0.2,13.4,0.3,30,0.3
		s30-0.1,30-0.3c0-0.2-13.4-0.3-30-0.3C394.7,456.2,381.2,456.3,381.2,456.5z"/>
	<path class="st2" d="M346.5,402.8l-1.6,30.1c-0.1,1.1-0.9,1.9-2,1.9l-54.1,0.4c-1.1,0-2-0.9-2-2l-0.2-23.4c0-1.1,0.9-2,2-2h33.3
		c0.5,0,1.1-0.2,1.4-0.6l5.7-5.7c0.4-0.4,0.9-0.6,1.4-0.6l14-0.1C345.6,400.7,346.5,401.7,346.5,402.8L346.5,402.8z"/>
	<path class="st3" d="M346.5,402.8l-1.6,30.1c-0.1,1.1-0.9,1.9-2,1.9l-54.1,0.4c-1.1,0-2-0.9-2-2l-0.2-23.4c0-1.1,0.9-2,2-2h33.3
		c0.5,0,1.1-0.2,1.4-0.6l5.7-5.7c0.4-0.4,0.9-0.6,1.4-0.6l14-0.1C345.6,400.7,346.5,401.7,346.5,402.8L346.5,402.8z"/>
	<path class="st4" d="M286.5,404.2l59.1-0.4l0.3,35.3l-59.1,0.4L286.5,404.2z"/>
	<path class="st5" d="M350.3,406.9l-4.2,36.9c-0.1,0.7-0.6,1.2-1.3,1.2l-57.6,0.4c-0.7,0-1.3-0.5-1.3-1.2l-3.2-36.8
		c-0.1-0.8,0.5-1.4,1.3-1.4l65-0.5C349.8,405.5,350.4,406.2,350.3,406.9L350.3,406.9z"/>
	<path class="st1" d="M362.4,397.2l-1.6,30.1c-0.1,1.1-0.9,1.9-2,1.9l-54.1,0.4c-1.1,0-2-0.9-2-2l-0.2-23.4c0-1.1,0.9-2,2-2h33.3
		c0.5,0,1.1-0.2,1.4-0.6l5.7-5.7c0.4-0.4,0.9-0.6,1.4-0.6l14-0.1C361.5,395,362.5,396,362.4,397.2L362.4,397.2z"/>
	<path class="st4" d="M302.5,398.6l59.1-0.4l0.3,35.3l-59.1,0.4L302.5,398.6z"/>
	<path class="st1" d="M366.2,401.3l-4.2,36.9c-0.1,0.7-0.6,1.2-1.3,1.2l-57.6,0.4c-0.7,0-1.3-0.5-1.3-1.2l-3.2-36.8
		c-0.1-0.8,0.5-1.4,1.3-1.4l65-0.5C365.7,399.8,366.3,400.5,366.2,401.3L366.2,401.3z"/>
	<path class="st5" d="M380.3,404.2l-1.6,30.1c-0.1,1.1-0.9,1.9-2,1.9l-54.1,0.4c-1.1,0-2-0.9-2-2l-0.2-23.4c0-1.1,0.9-2,2-2h33.3
		c0.5,0,1.1-0.2,1.4-0.6l5.7-5.7c0.4-0.4,0.9-0.6,1.4-0.6l14-0.1C379.5,402.1,380.4,403,380.3,404.2L380.3,404.2z"/>
	<path class="st0" d="M320.3,405.6l59.1-0.4l0.3,35.3l-59.1,0.4L320.3,405.6z"/>
	<path class="st5" d="M384.2,408.3l-4.2,36.9c-0.1,0.7-0.6,1.2-1.3,1.2l-57.6,0.4c-0.7,0-1.3-0.5-1.3-1.2l-3.2-36.8
		c-0.1-0.8,0.5-1.4,1.3-1.4l65-0.5C383.6,406.8,384.2,407.5,384.2,408.3L384.2,408.3z"/>
	<path class="st4" d="M316.6,413.3v51.1h73.7v-51.1H316.6L316.6,413.3z M340.6,422.5c0-2.1,1.7-3.8,3.8-3.8h18.1
		c2.1,0,3.8,1.7,3.8,3.8c0,2.1-1.7,3.8-3.8,3.8h-18.1C342.3,426.3,340.6,424.6,340.6,422.5z"/>
	<path class="st1" d="M276.8,413.3v51.1h39.8v-51.1H276.8z M59.4,109.8h101.4v105.8H59.4V109.8z"/>
	<path class="st0" d="M52.5,109.8h101.4v105.8H52.5V109.8z"/>
	<path class="st1" d="M154,215.6H52.5V109.8H154V215.6z M52.5,215.5h101.4V109.9H52.5V215.5z"/>
	<path class="st0" d="M66.1,124h74.2v77.3H66.1V124z"/>
	<path class="st1" d="M66.1,201.9c0.1,0.1-0.6,0.9-1.8,2.1c-1.2,1.3-2.8,2.9-4.7,4.8c-1.9,1.8-3.6,3.5-4.8,4.6
		c-1.3,1.2-2.1,1.8-2.1,1.8c-0.1-0.1,0.6-0.9,1.8-2.1c1.2-1.3,2.9-2.9,4.7-4.8c1.9-1.8,3.6-3.5,4.9-4.6
		C65.3,202.5,66.1,201.8,66.1,201.9z M140.3,201.7c0.1-0.1,0.9,0.6,2.1,1.8c1.3,1.2,2.9,2.8,4.8,4.7c1.8,1.9,3.5,3.6,4.6,4.8
		c1.2,1.3,1.8,2.1,1.8,2.1c-0.1,0.1-0.9-0.6-2.1-1.8c-1.3-1.2-2.9-2.9-4.8-4.7c-1.8-1.9-3.5-3.6-4.6-4.9
		C140.9,202.5,140.3,201.7,140.3,201.7L140.3,201.7z M140.1,124.2c-0.1-0.1,0.6-0.9,1.8-2.1c1.2-1.3,2.8-2.9,4.7-4.8
		c1.9-1.8,3.6-3.5,4.8-4.6c1.3-1.2,2.1-1.8,2.1-1.8c0.1,0.1-0.6,0.9-1.8,2.1c-1.2,1.3-2.9,2.9-4.7,4.8c-1.9,1.8-3.6,3.5-4.9,4.6
		C141,123.6,140.2,124.3,140.1,124.2L140.1,124.2z M65.9,124.4c-0.1,0.1-0.9-0.6-2.1-1.8c-1.3-1.2-2.9-2.8-4.8-4.7
		c-1.8-1.9-3.5-3.6-4.6-4.8c-1.2-1.3-1.8-2.1-1.8-2.1c0.1-0.1,0.9,0.6,2.1,1.8c1.3,1.2,2.9,2.9,4.8,4.7c1.8,1.9,3.5,3.6,4.6,4.9
		C65.3,123.6,66,124.4,65.9,124.4z"/>
	<path class="st1" d="M140.1,201.4v-5.7c0-3.7,0-9-0.1-15.8c0-13.5-0.1-32.8-0.1-55.9l0.3,0.3h-74l0.3-0.3v77.3l-0.3-0.3
		c22.2,0.1,40.6,0.1,53.6,0.1c6.5,0,11.5,0.1,15,0.1h5C140,201.3,140.1,201.4,140.1,201.4h-5.2c-3.5,0-8.5,0-15,0.1
		c-13,0-31.5,0.1-53.7,0.1h-0.3v-77.9h74.6v0.3c-0.1,23.2-0.1,42.5-0.1,56.1c0,6.7-0.1,12-0.1,15.7v5.1
		C140.1,201.2,140.1,201.4,140.1,201.4L140.1,201.4z"/>
	<path class="st5" d="M90.9,150.3h24.8v24.8H90.9V150.3z"/>
	<path class="st1" d="M665.5,116.1l8.6,0l0.2,42.7l-8.6,0L665.5,116.1z"/>
	<path class="st5" d="M591.2,116.3l22.2-0.1l0.1,23.5l-22.2,0.1L591.2,116.3z"/>
	<path class="st4" d="M613.3,116.2l22.2-0.1l0.1,23.5l-22.2,0.1L613.3,116.2z"/>
	<path class="st1" d="M591.3,122.8c14.8,0.1,29.5,0,44.3-0.2c0.3,0,0.3-0.5,0-0.5c-14.8-0.1-29.5,0-44.3,0.3
		C591,122.4,591,122.8,591.3,122.8z"/>
	<path class="st5" d="M577.5,139.5l40.3-0.2l0.1,19.2l-40.3,0.2L577.5,139.5z"/>
	<path class="st4" d="M617.6,139.3l40.3-0.2l0.1,19.2l-40.3,0.2L617.6,139.3z"/>
	<path class="st1" d="M577.4,144.9c26.8,0.3,53.7,0,80.5-0.4c0.3,0,0.3-0.5,0-0.5c-26.8-0.1-53.7-0.1-80.5,0.5
		C577.2,144.5,577.2,144.9,577.4,144.9z M562.4,158.7h156.3v6.9H562.4V158.7z"/>
	<path class="st1" d="M587.9,162h6.3v23.5h-6.3V162z M682.6,162h6.3v23.5h-6.3V162z"/>
	<path class="st5" d="M673.9,100.2l8.6,0l0.3,58.7l-8.6,0L673.9,100.2z"/>
	<path class="st4" d="M682.6,111.1l13.3-0.1l0.3,47.5l-13.3,0.1L682.6,111.1z"/>
	<path class="st1" d="M695.8,120.2c0,0.1-3,0.2-6.7,0.2s-6.7-0.1-6.7-0.2s3-0.2,6.7-0.2S695.8,120.1,695.8,120.2z M695.8,118.2
		c0,0.1-3,0.2-6.7,0.2s-6.7-0.1-6.7-0.2s3-0.2,6.7-0.2S695.8,118.1,695.8,118.2z M695.8,151.5c0,0.1-3,0.2-6.7,0.2s-6.7-0.1-6.7-0.2
		s3-0.2,6.7-0.2C692.8,151.2,695.8,151.3,695.8,151.5z M695.8,149.5c0,0.1-3,0.2-6.7,0.2s-6.7-0.1-6.7-0.2s3-0.2,6.7-0.2
		C692.8,149.2,695.8,149.3,695.8,149.5z M689.3,145.1c-0.1,0-0.2-4.8-0.2-10.7s0.1-10.7,0.2-10.7s0.2,4.8,0.2,10.7
		S689.4,145.1,689.3,145.1z"/>
	<path class="st5" d="M695.9,122.7h14.5v35.9h-14.5V122.7z"/>
	<path class="st0" d="M703.6,149.3c-1.9,0-3.2-1.4-3.2-3.2c0-1,0.4-1.9,1.2-2.4l0.3,0.5c-0.6,0.5-1,1.2-1,2c0,1.5,1.1,2.6,2.7,2.6
		s2.7-1.1,2.7-2.6c0-0.8-0.3-1.5-1-2l0.3-0.5c0.8,0.5,1.2,1.4,1.2,2.4C706.8,148,705.5,149.3,703.6,149.3z M706,142.8l-0.5-0.3
		c0.4-0.5,0.8-1.4,0.8-2.3c0-1.3-0.5-1.9-1.2-1.9c-1.9,0-0.5,4.2-3,4.2c-1,0-1.7-0.8-1.7-2.4c0-0.8,0.2-1.7,0.6-2.2l0.5,0.3
		c-0.4,0.5-0.6,1.2-0.6,1.9c0,1.2,0.5,1.8,1.2,1.8c1.9,0,0.6-4.2,3-4.2c1,0,1.7,0.9,1.7,2.5C706.8,141.3,706.4,142.3,706,142.8
		L706,142.8z M706,136.9l-0.5-0.3c0.4-0.5,0.8-1.4,0.8-2.3c0-1.3-0.5-1.9-1.2-1.9c-1.9,0-0.5,4.2-3,4.2c-1,0-1.7-0.8-1.7-2.4
		c0-0.8,0.2-1.7,0.6-2.2l0.5,0.3c-0.4,0.5-0.6,1.2-0.6,1.9c0,1.2,0.5,1.8,1.2,1.8c1.9,0,0.6-4.2,3-4.2c1,0,1.7,0.9,1.7,2.5
		C706.8,135.4,706.4,136.4,706,136.9L706,136.9z"/>
	<path class="st1" d="M680.5,110.2c0,1.4-1.1,2.5-2.5,2.5s-2.5-1.1-2.5-2.5s1.1-2.5,2.5-2.5S680.5,108.8,680.5,110.2z M677.3,116.9
		h1.5v34.9h-1.5V116.9z"/>
	<path class="st5" d="M595.1,363.6h72.6v5.6h-72.6V363.6z"/>
	<path class="st1" d="M647.8,363.6h19.9v5.6h-19.9V363.6z"/>
	<path class="st4" d="M585.9,369.3v25.4h-4v2.8h4v17h74.3v-15.4h-5.5v-3.4h5.5v-5h2.4v-2.3h-2.9v-18.9h-73.8V369.3z"/>
	<path class="st1" d="M640.5,369.3v44.8h19.7v-15.5h-5.5v-3.1h5.5v-5h2.5v-2.6h-2.9v-18.6L640.5,369.3z"/>
	<path class="st1" d="M641.9,397c0,0.2-13.4,0.3-30,0.3s-30-0.1-30-0.3c0-0.2,13.4-0.3,30-0.3C628.4,396.7,641.9,396.9,641.9,397z
		 M641.9,394.4c0,0.2-13.4,0.3-30,0.3s-30-0.1-30-0.3c0-0.2,13.4-0.3,30-0.3C628.4,394.2,641.9,394.3,641.9,394.4z M645.8,387.5
		c0,0.2-13.4,0.3-30,0.3s-30-0.1-30-0.3c0-0.2,13.4-0.3,30-0.3C632.3,387.2,645.8,387.4,645.8,387.5z M646.1,406.4
		c0,0.2-13.4,0.3-30,0.3s-30-0.1-30-0.3c0-0.2,13.4-0.3,30-0.3S646.1,406.2,646.1,406.4z"/>
	<path class="st4" d="M594.3,419.7v25.4h-4v2.8h4v17h74.3v-15.4h-5.5V446h5.5v-5h2.4v-2.3h-2.9v-18.9h-73.8V419.7z"/>
	<path class="st1" d="M648.9,419.8v44.7h19.7v-15.4h-5.5V446l5.5,0.1v-5h2.5v-2.6l-2.9-0.1v-18.7L648.9,419.8z"/>
	<path class="st1" d="M650.3,447.5c0,0.2-13.4,0.3-30,0.3s-30-0.1-30-0.3c0-0.2,13.4-0.3,30-0.3S650.3,447.3,650.3,447.5z
		 M650.3,444.9c0,0.2-13.4,0.3-30,0.3s-30-0.1-30-0.3c0-0.2,13.4-0.3,30-0.3S650.3,444.7,650.3,444.9z M654.2,438
		c0,0.2-13.4,0.3-30,0.3s-30-0.1-30-0.3c0-0.2,13.4-0.3,30-0.3C640.7,437.7,654.2,437.8,654.2,438z M654.6,456.9
		c0,0.2-13.4,0.3-30,0.3s-30-0.1-30-0.3c0-0.2,13.4-0.3,30-0.3C641.1,456.6,654.6,456.7,654.6,456.9z"/>
	<path class="st4" d="M593.3,318.6V344h-4v2.8h4v17h74.3v-15.4h-5.5V345h5.5v-5h2.4v-2.3h-2.9v-18.9h-73.8V318.6z"/>
	<path class="st1" d="M647.8,318.6v44.8h19.8v-15.5h-5.5v-3.1l5.5,0.1v-5h2.5l-0.1-2.6l-2.9-0.1v-18.6L647.8,318.6z"/>
	<path class="st1" d="M649.2,346.3c0,0.2-13.4,0.3-30,0.3s-30-0.1-30-0.3c0-0.2,13.4-0.3,30-0.3S649.2,346.2,649.2,346.3z
		 M649.2,343.7c0,0.2-13.4,0.3-30,0.3s-30-0.1-30-0.3c0-0.2,13.4-0.3,30-0.3C635.8,343.5,649.2,343.6,649.2,343.7z M653.1,336.8
		c0,0.2-13.4,0.3-30,0.3s-30-0.1-30-0.3c0-0.2,13.4-0.3,30-0.3S653.1,336.6,653.1,336.8z M653.5,355.7c0,0.2-13.4,0.3-30,0.3
		s-30-0.1-30-0.3c0-0.2,13.4-0.3,30-0.3C640,355.4,653.5,355.5,653.5,355.7z"/>
	<path class="st5" d="M590.3,414.1h72.6v5.6h-72.6V414.1z"/>
	<path class="st1" d="M642.9,414.1h19.9v5.6h-19.9V414.1z"/>
</g>
<g id="Board">
	<path class="st6" d="M140.5,53.7h488.2v294.5H140.5V53.7z"/>
	<path class="st7" d="M628.7,348.2c0-1.6-0.1-114.1-0.2-294.5l0.2,0.2c-131.9,0-302.5,0-488.2,0.1l0.3-0.3v294.5l-0.2-0.2
		C427,348.1,626.5,348.2,628.7,348.2c-2.2,0-201.7,0.1-488.2,0.2h-0.2v-295h0.3c185.7,0,356.3,0,488.2,0.1h0.2v0.2
		C628.8,234.2,628.7,346.6,628.7,348.2L628.7,348.2z"/>
	<path class="st1" d="M204.4,103.7c0,0-2.6,24,0.8,37.2l32.1-1.4c0,0-6.9-23.7-2.7-34.2C234.6,105.3,204.4,103.7,204.4,103.7z"/>
	<path class="st8" d="M204.1,103.7c0,0,0.2,25.9,1.5,33.8l32.5-1.5c0,0-2.9-25.5-1.8-32.3H204.1z"/>
	<path class="st6" d="M231.5,114.6c0,0.1-4.9,0.6-10.9,0.9c-6,0.4-10.9,0.5-10.9,0.4s4.9-0.6,10.9-0.9
		C226.6,114.6,231.5,114.5,231.5,114.6z M231.5,120.1c0,0.1-4.9,0.6-10.9,0.9c-6,0.4-10.9,0.5-10.9,0.4s4.9-0.6,10.9-0.9
		C226.6,120.1,231.5,119.9,231.5,120.1z M226,125.5c0,0.1-2.8,0.4-6.2,0.6s-6.2,0.3-6.2,0.1c0-0.1,2.8-0.4,6.2-0.6
		S226,125.3,226,125.5z"/>
	<path class="st8" d="M203.6,142.5c0,0,0.2,25.9,1.5,33.8l32.5-1.5c0,0-2.9-25.5-1.8-32.3H203.6z"/>
	<path class="st6" d="M231,153.4c0,0.1-4.9,0.6-10.9,0.9c-6,0.4-10.9,0.5-10.9,0.4s4.9-0.6,10.9-0.9
		C226.1,153.4,231,153.2,231,153.4z M231,158.9c0,0.1-4.9,0.6-10.9,0.9c-6,0.4-10.9,0.5-10.9,0.4s4.9-0.6,10.9-0.9
		C226.1,158.9,231,158.7,231,158.9z M225.4,164.3c0,0.1-2.8,0.4-6.2,0.6c-3.4,0.2-6.2,0.3-6.2,0.1c0-0.1,2.8-0.4,6.2-0.6
		C222.6,164.2,225.4,164.1,225.4,164.3z"/>
	<path class="st7" d="M203.6,186.4c0,0,0.2,25.9,1.5,33.8l32.5-1.5c0,0-2.9-25.5-1.8-32.3H203.6z"/>
	<path class="st6" d="M231,197.3c0,0.1-4.9,0.6-10.9,0.9c-6,0.4-10.9,0.5-10.9,0.4s4.9-0.6,10.9-0.9
		C226.1,197.3,231,197.1,231,197.3z M231,202.8c0,0.1-4.9,0.6-10.9,0.9c-6,0.4-10.9,0.5-10.9,0.4s4.9-0.6,10.9-0.9
		C226.1,202.8,231,202.6,231,202.8z M225.4,208.2c0,0.1-2.8,0.4-6.2,0.6c-3.4,0.2-6.2,0.3-6.2,0.1c0-0.1,2.8-0.4,6.2-0.6
		C222.6,208.1,225.4,208,225.4,208.2z"/>
	<path class="st9" d="M199.8,237.8c0,0,0.2,25.9,1.5,33.8l32.5-1.5c0,0-2.9-25.5-1.8-32.3H199.8z"/>
	<path class="st6" d="M227.2,248.7c0,0.1-4.9,0.6-10.9,0.9c-6,0.4-10.9,0.5-10.9,0.4s4.9-0.6,10.9-0.9
		C222.3,248.7,227.2,248.5,227.2,248.7z M227.2,254.1c0,0.1-4.9,0.6-10.9,0.9c-6,0.4-10.9,0.5-10.9,0.4s4.9-0.6,10.9-0.9
		C222.3,254.2,227.2,254,227.2,254.1z M221.6,259.5c0,0.1-2.8,0.4-6.2,0.6s-6.2,0.3-6.2,0.1c0-0.1,2.8-0.4,6.2-0.6
		S221.6,259.4,221.6,259.5z"/>
	<path class="st7" d="M242.9,238c0,0,0.2,25.9,1.5,33.8l32.5-1.5c0,0-2.9-25.5-1.8-32.3L242.9,238L242.9,238z"/>
	<path class="st6" d="M270.3,248.9c0,0.1-4.9,0.6-10.9,0.9c-6,0.4-10.9,0.5-10.9,0.4s4.9-0.6,10.9-0.9
		C265.4,248.9,270.3,248.7,270.3,248.9z M270.3,254.4c0,0.1-4.9,0.6-10.9,0.9c-6,0.4-10.9,0.5-10.9,0.4s4.9-0.6,10.9-0.9
		C265.4,254.4,270.3,254.2,270.3,254.4z M264.8,259.8c0,0.1-2.8,0.4-6.2,0.6c-3.4,0.2-6.2,0.3-6.2,0.1c0-0.1,2.8-0.4,6.2-0.6
		S264.7,259.6,264.8,259.8z"/>
	<path class="st8" d="M278.9,239.8c0,0,0.2,25.9,1.5,33.8l32.5-1.5c0,0-2.9-25.5-1.8-32.3H278.9z"/>
	<path class="st6" d="M306.3,250.7c0,0.1-4.9,0.6-10.9,0.9c-6,0.4-10.9,0.5-10.9,0.4s4.9-0.6,10.9-0.9S306.3,250.6,306.3,250.7z
		 M306.3,256.2c0,0.1-4.9,0.6-10.9,0.9c-6,0.4-10.9,0.5-10.9,0.4s4.9-0.6,10.9-0.9S306.3,256.1,306.3,256.2z M300.8,261.6
		c0,0.1-2.8,0.4-6.2,0.6c-3.4,0.2-6.2,0.3-6.2,0.1c0-0.1,2.8-0.4,6.2-0.6S300.8,261.5,300.8,261.6z"/>
	<path class="st9" d="M236.8,284.2c0,0,0.2,25.9,1.5,33.8l32.5-1.5c0,0-2.9-25.5-1.8-32.3H236.8z"/>
	<path class="st6" d="M264.2,295.1c0,0.1-4.9,0.6-10.9,0.9c-6,0.4-10.9,0.5-10.9,0.4s4.9-0.6,10.9-0.9
		C259.3,295.1,264.2,294.9,264.2,295.1z M264.2,300.6c0,0.1-4.9,0.6-10.9,0.9c-6,0.4-10.9,0.5-10.9,0.4s4.9-0.6,10.9-0.9
		C259.3,300.6,264.2,300.4,264.2,300.6z M258.7,306c0,0.1-2.8,0.4-6.2,0.6s-6.2,0.3-6.2,0.1c0-0.1,2.8-0.4,6.2-0.6
		S258.7,305.8,258.7,306z"/>
	<path class="st7" d="M341.2,224.6c0,0,0.2,25.9,1.5,33.8l32.5-1.5c0,0-2.9-25.5-1.8-32.3L341.2,224.6L341.2,224.6z"/>
	<path class="st6" d="M368.6,235.5c0,0.1-4.9,0.6-10.9,0.9c-6,0.4-10.9,0.5-10.9,0.4s4.9-0.6,10.9-0.9S368.6,235.4,368.6,235.5z
		 M368.6,241c0,0.1-4.9,0.6-10.9,0.9c-6,0.4-10.9,0.5-10.9,0.4s4.9-0.6,10.9-0.9C363.7,241,368.6,240.9,368.6,241z M363.1,246.4
		c0,0.1-2.8,0.4-6.2,0.6c-3.4,0.2-6.2,0.3-6.2,0.1c0-0.1,2.8-0.4,6.2-0.6C360.3,246.3,363.1,246.3,363.1,246.4z"/>
	<path class="st9" d="M411.8,285.5c0,0,0.2,25.9,1.5,33.8l32.5-1.5c0,0-2.9-25.5-1.8-32.3H411.8z"/>
	<path class="st6" d="M439.2,296.4c0,0.1-4.9,0.6-10.9,0.9c-6,0.4-10.9,0.5-10.9,0.4s4.9-0.6,10.9-0.9
		C434.3,296.4,439.2,296.2,439.2,296.4z M439.2,301.9c0,0.1-4.9,0.6-10.9,0.9c-6,0.4-10.9,0.5-10.9,0.4s4.9-0.6,10.9-0.9
		C434.3,301.9,439.2,301.7,439.2,301.9z M433.7,307.3c0,0.1-2.8,0.4-6.2,0.6c-3.4,0.2-6.2,0.3-6.2,0.1c0-0.1,2.8-0.4,6.2-0.6
		C430.9,307.2,433.7,307.1,433.7,307.3z"/>
	<path class="st9" d="M451.9,286c0,0,0.2,25.9,1.5,33.8l32.5-1.5c0,0-2.9-25.5-1.8-32.3H451.9z"/>
	<path class="st6" d="M479.3,296.9c0,0.1-4.9,0.6-10.9,0.9c-6,0.4-10.9,0.5-10.9,0.4s4.9-0.6,10.9-0.9S479.3,296.8,479.3,296.9z
		 M479.3,302.4c0,0.1-4.9,0.6-10.9,0.9c-6,0.4-10.9,0.5-10.9,0.4s4.9-0.6,10.9-0.9S479.3,302.3,479.3,302.4z M473.8,307.8
		c0,0.1-2.8,0.4-6.2,0.6c-3.4,0.2-6.2,0.3-6.2,0.1c0-0.1,2.8-0.4,6.2-0.6C471,307.7,473.8,307.7,473.8,307.8z"/>
	<path class="st7" d="M492.1,286.6c0,0,0.2,25.9,1.5,33.8l32.5-1.5c0,0-2.9-25.5-1.8-32.3H492.1L492.1,286.6z"/>
	<path class="st6" d="M519.5,297.5c0,0.1-4.9,0.6-10.9,0.9c-6,0.4-10.9,0.5-10.9,0.4s4.9-0.6,10.9-0.9
		C514.6,297.5,519.4,297.3,519.5,297.5z M519.5,303c0,0.1-4.9,0.6-10.9,0.9c-6,0.4-10.9,0.5-10.9,0.4s4.9-0.6,10.9-0.9
		C514.6,303,519.5,302.8,519.5,303z M513.9,308.4c0,0.1-2.8,0.4-6.2,0.6c-3.4,0.2-6.2,0.3-6.2,0.1c0-0.1,2.8-0.4,6.2-0.6
		C511.1,308.3,513.9,308.2,513.9,308.4z"/>
	<path class="st9" d="M540.3,285.1c0,0,0.2,25.9,1.5,33.8l32.5-1.5c0,0-2.9-25.5-1.8-32.3H540.3z"/>
	<path class="st6" d="M567.7,296c0,0.1-4.9,0.6-10.9,0.9c-6,0.4-10.9,0.5-10.9,0.4s4.9-0.6,10.9-0.9
		C562.8,296,567.7,295.8,567.7,296z M567.7,301.5c0,0.1-4.9,0.6-10.9,0.9c-6,0.4-10.9,0.5-10.9,0.4s4.9-0.6,10.9-0.9
		C562.8,301.5,567.7,301.3,567.7,301.5z M562.2,306.9c0,0.1-2.8,0.4-6.2,0.6s-6.2,0.3-6.2,0.1c0-0.1,2.8-0.4,6.2-0.6
		S562.2,306.7,562.2,306.9z"/>
	<path class="st9" d="M575.3,288.8c0,0,0.2,25.9,1.5,33.8l32.5-1.5c0,0-2.9-25.5-1.8-32.3H575.3z"/>
	<path class="st6" d="M602.7,299.7c0,0.1-4.9,0.6-10.9,0.9c-6,0.4-10.9,0.5-10.9,0.4s4.9-0.6,10.9-0.9S602.7,299.6,602.7,299.7z
		 M602.7,305.2c0,0.1-4.9,0.6-10.9,0.9c-6,0.4-10.9,0.5-10.9,0.4s4.9-0.6,10.9-0.9C597.8,305.2,602.7,305.1,602.7,305.2z
		 M597.2,310.6c0,0.1-2.8,0.4-6.2,0.6s-6.2,0.3-6.2,0.1c0-0.1,2.8-0.4,6.2-0.6S597.2,310.5,597.2,310.6z"/>
	<path class="st9" d="M411.6,238.4c0,0,0.2,25.9,1.5,33.8l32.5-1.5c0,0-2.9-25.5-1.8-32.3L411.6,238.4L411.6,238.4z"/>
	<path class="st6" d="M439,249.3c0,0.1-4.9,0.6-10.9,0.9c-6,0.4-10.9,0.5-10.9,0.4s4.9-0.6,10.9-0.9
		C434.1,249.3,439,249.1,439,249.3z M439,254.8c0,0.1-4.9,0.6-10.9,0.9c-6,0.4-10.9,0.5-10.9,0.4s4.9-0.6,10.9-0.9
		C434.1,254.8,439,254.6,439,254.8L439,254.8z M433.5,260.1c0,0.1-2.8,0.4-6.2,0.6c-3.4,0.2-6.2,0.3-6.2,0.1c0-0.1,2.8-0.4,6.2-0.6
		C430.7,260.1,433.5,260,433.5,260.1z"/>
	<path class="st8" d="M454.1,238.5c0,0,0.2,25.9,1.5,33.8l32.5-1.5c0,0-2.9-25.5-1.8-32.3L454.1,238.5L454.1,238.5z"/>
	<path class="st6" d="M481.5,249.4c0,0.1-4.9,0.6-10.9,0.9c-6,0.4-10.9,0.5-10.9,0.4s4.9-0.6,10.9-0.9
		C476.6,249.4,481.5,249.2,481.5,249.4z M481.5,254.9c0,0.1-4.9,0.6-10.9,0.9c-6,0.4-10.9,0.5-10.9,0.4s4.9-0.6,10.9-0.9
		C476.6,254.9,481.5,254.7,481.5,254.9z M476,260.3c0,0.1-2.8,0.4-6.2,0.6c-3.4,0.2-6.2,0.3-6.2,0.1c0-0.1,2.8-0.4,6.2-0.6
		C473.2,260.2,476,260.1,476,260.3z"/>
	<path class="st9" d="M537.8,238.5c0,0,0.2,25.9,1.5,33.8l32.5-1.5c0,0-2.9-25.5-1.8-32.3L537.8,238.5L537.8,238.5z"/>
	<path class="st6" d="M565.2,249.4c0,0.1-4.9,0.6-10.9,0.9c-6,0.4-10.9,0.5-10.9,0.4s4.9-0.6,10.9-0.9
		C560.3,249.4,565.2,249.3,565.2,249.4z M565.2,254.9c0,0.1-4.9,0.6-10.9,0.9c-6,0.4-10.9,0.5-10.9,0.4s4.9-0.6,10.9-0.9
		C560.3,254.9,565.2,254.8,565.2,254.9z M559.7,260.3c0,0.1-2.8,0.4-6.2,0.6s-6.2,0.3-6.2,0.1c0-0.1,2.8-0.4,6.2-0.6
		S559.6,260.1,559.7,260.3z"/>
	<path class="st7" d="M254,186.4c0,0,0.2,25.9,1.5,33.8l32.5-1.5c0,0-2.9-25.5-1.8-32.3H254z"/>
	<path class="st6" d="M281.4,197.3c0,0.1-4.9,0.6-10.9,0.9c-6,0.4-10.9,0.5-10.9,0.4s4.9-0.6,10.9-0.9
		C276.5,197.3,281.4,197.1,281.4,197.3z M281.5,202.8c0,0.1-4.9,0.6-10.9,0.9c-6,0.4-10.9,0.5-10.9,0.4s4.9-0.6,10.9-0.9
		C276.6,202.8,281.4,202.6,281.5,202.8z M275.9,208.2c0,0.1-2.8,0.4-6.2,0.6c-3.4,0.2-6.2,0.3-6.2,0.1c0-0.1,2.8-0.4,6.2-0.6
		C273.1,208.1,275.9,208,275.9,208.2z"/>
	<path class="st8" d="M241.1,103.7c0,0,0.2,25.9,1.5,33.8l32.5-1.5c0,0-2.9-25.5-1.8-32.3H241.1L241.1,103.7z"/>
	<path class="st6" d="M268.5,114.6c0,0.1-4.9,0.6-10.9,0.9c-6,0.4-10.9,0.5-10.9,0.4s4.9-0.6,10.9-0.9
		C263.6,114.6,268.5,114.5,268.5,114.6z M268.5,120.1c0,0.1-4.9,0.6-10.9,0.9c-6,0.4-10.9,0.5-10.9,0.4s4.9-0.6,10.9-0.9
		C263.6,120.1,268.5,119.9,268.5,120.1z M263,125.5c0,0.1-2.8,0.4-6.2,0.6c-3.4,0.2-6.2,0.3-6.2,0.1c0-0.1,2.8-0.4,6.2-0.6
		S263,125.3,263,125.5z"/>
	<path class="st8" d="M241.8,142.6c0,0,0.2,25.9,1.5,33.8l32.5-1.5c0,0-2.9-25.5-1.8-32.3H241.8z"/>
	<path class="st6" d="M269.2,153.5c0,0.1-4.9,0.6-10.9,0.9c-6,0.4-10.9,0.5-10.9,0.4s4.9-0.6,10.9-0.9
		C264.3,153.5,269.2,153.4,269.2,153.5z M269.2,159c0,0.1-4.9,0.6-10.9,0.9c-6,0.4-10.9,0.5-10.9,0.4s4.9-0.6,10.9-0.9
		C264.3,159,269.2,158.9,269.2,159z M263.7,164.4c0,0.1-2.8,0.4-6.2,0.6c-3.4,0.2-6.2,0.3-6.2,0.1c0-0.1,2.8-0.4,6.2-0.6
		C260.9,164.3,263.7,164.3,263.7,164.4z"/>
	<path class="st8" d="M281.7,103.7c0,0,0.2,25.9,1.5,33.8l32.5-1.5c0,0-2.9-25.5-1.8-32.3H281.7z"/>
	<path class="st6" d="M309.1,114.6c0,0.1-4.9,0.6-10.9,0.9c-6,0.4-10.9,0.5-10.9,0.4s4.9-0.6,10.9-0.9
		C304.2,114.6,309,114.5,309.1,114.6z M309.1,120.1c0,0.1-4.9,0.6-10.9,0.9c-6,0.4-10.9,0.5-10.9,0.4s4.9-0.6,10.9-0.9
		C304.2,120.1,309.1,119.9,309.1,120.1z M303.5,125.5c0,0.1-2.8,0.4-6.2,0.6c-3.4,0.2-6.2,0.3-6.2,0.1c0-0.1,2.8-0.4,6.2-0.6
		S303.5,125.3,303.5,125.5z"/>
	<path class="st8" d="M322.2,103.7c0,0,0.2,25.9,1.5,33.8l32.5-1.5c0,0-2.9-25.5-1.8-32.3H322.2z"/>
	<path class="st6" d="M349.6,114.6c0,0.1-4.9,0.6-10.9,0.9c-6,0.4-10.9,0.5-10.9,0.4s4.9-0.6,10.9-0.9
		C344.7,114.6,349.6,114.5,349.6,114.6z M349.6,120.1c0,0.1-4.9,0.6-10.9,0.9c-6,0.4-10.9,0.5-10.9,0.4s4.9-0.6,10.9-0.9
		C344.7,120.1,349.6,119.9,349.6,120.1z M344.1,125.5c0,0.1-2.8,0.4-6.2,0.6c-3.4,0.2-6.2,0.3-6.2,0.1c0-0.1,2.8-0.4,6.2-0.6
		C341.3,125.4,344.1,125.3,344.1,125.5z"/>
	<path class="st8" d="M362.7,103.7c0,0,0.2,25.9,1.5,33.8l32.5-1.5c0,0-2.9-25.5-1.8-32.3H362.7z"/>
	<path class="st6" d="M390.1,114.6c0,0.1-4.9,0.6-10.9,0.9c-6,0.4-10.9,0.5-10.9,0.4s4.9-0.6,10.9-0.9
		C385.2,114.6,390.1,114.5,390.1,114.6z M390.1,120.1c0,0.1-4.9,0.6-10.9,0.9c-6,0.4-10.9,0.5-10.9,0.4s4.9-0.6,10.9-0.9
		C385.2,120.1,390.1,119.9,390.1,120.1z M384.6,125.5c0,0.1-2.8,0.4-6.2,0.6c-3.4,0.2-6.2,0.3-6.2,0.1c0-0.1,2.8-0.4,6.2-0.6
		C381.8,125.4,384.6,125.3,384.6,125.5z"/>
	<path class="st8" d="M416.9,109.4c0,0,0.2,25.9,1.5,33.8l32.5-1.5c0,0-2.9-25.5-1.8-32.3C449.1,109.4,416.9,109.4,416.9,109.4z"/>
	<path class="st6" d="M444.3,120.3c0,0.1-4.9,0.6-10.9,0.9c-6,0.4-10.9,0.5-10.9,0.4s4.9-0.6,10.9-0.9S444.3,120.2,444.3,120.3z
		 M444.3,125.8c0,0.1-4.9,0.6-10.9,0.9c-6,0.4-10.9,0.5-10.9,0.4s4.9-0.6,10.9-0.9S444.3,125.7,444.3,125.8z M438.8,131.2
		c0,0.1-2.8,0.4-6.2,0.6c-3.4,0.2-6.2,0.3-6.2,0.1c0-0.1,2.8-0.4,6.2-0.6C436,131.1,438.8,131.1,438.8,131.2z"/>
	<path class="st8" d="M453.2,110c0,0,0.2,25.9,1.5,33.8l32.5-1.5c0,0-2.9-25.5-1.8-32.3H453.2z"/>
	<path class="st6" d="M480.6,120.9c0,0.1-4.9,0.6-10.9,0.9c-6,0.4-10.9,0.5-10.9,0.4s4.9-0.6,10.9-0.9
		C475.7,120.9,480.6,120.8,480.6,120.9z M480.6,126.4c0,0.1-4.9,0.6-10.9,0.9c-6,0.4-10.9,0.5-10.9,0.4s4.9-0.6,10.9-0.9
		C475.7,126.4,480.6,126.2,480.6,126.4z M475.1,131.8c0,0.1-2.8,0.4-6.2,0.6c-3.4,0.2-6.2,0.3-6.2,0.1c0-0.1,2.8-0.4,6.2-0.6
		C472.3,131.7,475,131.6,475.1,131.8z"/>
	<path class="st8" d="M493.3,111.2c0,0,0.2,25.9,1.5,33.8l32.5-1.5c0,0-2.9-25.5-1.8-32.3H493.3z"/>
	<path class="st6" d="M520.7,122.1c0,0.1-4.9,0.6-10.9,0.9c-6,0.4-10.9,0.5-10.9,0.4s4.9-0.6,10.9-0.9
		C515.8,122.1,520.6,121.9,520.7,122.1z M520.7,127.5c0,0.1-4.9,0.6-10.9,0.9c-6,0.4-10.9,0.5-10.9,0.4s4.9-0.6,10.9-0.9
		C515.8,127.6,520.7,127.4,520.7,127.5L520.7,127.5z M515.1,132.9c0,0.1-2.8,0.4-6.2,0.6c-3.4,0.2-6.2,0.3-6.2,0.1
		c0-0.1,2.8-0.4,6.2-0.6C512.3,132.8,515.1,132.8,515.1,132.9z"/>
	<path class="st8" d="M540.9,109.8c0,0,0.2,25.9,1.5,33.8l32.5-1.5c0,0-2.9-25.5-1.8-32.3H540.9z"/>
	<path class="st6" d="M568.3,120.7c0,0.1-4.9,0.6-10.9,0.9c-6,0.4-10.9,0.5-10.9,0.4s4.9-0.6,10.9-0.9
		C563.4,120.7,568.3,120.6,568.3,120.7z M568.3,126.2c0,0.1-4.9,0.6-10.9,0.9c-6,0.4-10.9,0.5-10.9,0.4s4.9-0.6,10.9-0.9
		C563.4,126.2,568.3,126.1,568.3,126.2z M562.8,131.6c0,0.1-2.8,0.4-6.2,0.6c-3.4,0.2-6.2,0.3-6.2,0.1c0-0.1,2.8-0.4,6.2-0.6
		S562.8,131.5,562.8,131.6z"/>
	<path class="st8" d="M544.9,152.1c0,0,0.2,25.9,1.5,33.8l32.5-1.5c0,0-2.9-25.5-1.8-32.3H544.9z"/>
	<path class="st6" d="M572.3,163c0,0.1-4.9,0.6-10.9,0.9c-6,0.4-10.9,0.5-10.9,0.4s4.9-0.6,10.9-0.9
		C567.4,163,572.2,162.8,572.3,163z M572.3,168.5c0,0.1-4.9,0.6-10.9,0.9c-6,0.4-10.9,0.5-10.9,0.4s4.9-0.6,10.9-0.9
		C567.4,168.5,572.3,168.3,572.3,168.5z M566.7,173.9c0,0.1-2.8,0.4-6.2,0.6c-3.4,0.2-6.2,0.3-6.2,0.1c0-0.1,2.8-0.4,6.2-0.6
		C563.9,173.8,566.7,173.7,566.7,173.9z"/>
	<path class="st9" d="M569.5,113.4c0,0,0.2,25.9,1.5,33.8l32.5-1.5c0,0-2.9-25.5-1.8-32.3C601.7,113.4,569.5,113.4,569.5,113.4z"/>
	<path class="st6" d="M596.9,124.3c0,0.1-4.9,0.6-10.9,0.9c-6,0.4-10.9,0.5-10.9,0.4s4.9-0.6,10.9-0.9S596.9,124.2,596.9,124.3z
		 M596.9,129.8c0,0.1-4.9,0.6-10.9,0.9c-6,0.4-10.9,0.5-10.9,0.4s4.9-0.6,10.9-0.9C592,129.9,596.9,129.7,596.9,129.8z M591.3,135.2
		c0,0.1-2.8,0.4-6.2,0.6c-3.4,0.2-6.2,0.3-6.2,0.1c0-0.1,2.8-0.4,6.2-0.6C588.5,135.1,591.3,135.1,591.3,135.2z"/>
	<path class="st9" d="M425.7,130.6c0,0,0.2,25.9,1.5,33.8l32.5-1.5c0,0-2.9-25.5-1.8-32.3H425.7z"/>
	<path class="st6" d="M453.1,141.5c0,0.1-4.9,0.6-10.9,0.9c-6,0.4-10.9,0.5-10.9,0.4s4.9-0.6,10.9-0.9
		C448.2,141.5,453.1,141.4,453.1,141.5z M453.1,147c0,0.1-4.9,0.6-10.9,0.9c-6,0.4-10.9,0.5-10.9,0.4s4.9-0.6,10.9-0.9
		C448.2,147,453.1,146.9,453.1,147z M447.6,152.4c0,0.1-2.8,0.4-6.2,0.6c-3.4,0.2-6.2,0.3-6.2,0.1c0-0.1,2.8-0.4,6.2-0.6
		C444.8,152.3,447.5,152.3,447.6,152.4z"/>
	<path class="st8" d="M421.6,188.2c0,0,0.2,25.9,1.5,33.8l32.5-1.5c0,0-2.9-25.5-1.8-32.3H421.6z"/>
	<path class="st6" d="M449,199.1c0,0.1-4.9,0.6-10.9,0.9c-6,0.4-10.9,0.5-10.9,0.4s4.9-0.6,10.9-0.9
		C444.1,199.1,449,198.9,449,199.1z M449,204.6c0,0.1-4.9,0.6-10.9,0.9c-6,0.4-10.9,0.5-10.9,0.4s4.9-0.6,10.9-0.9
		C444.1,204.6,449,204.4,449,204.6z M443.5,209.9c0,0.1-2.8,0.4-6.2,0.6c-3.4,0.2-6.2,0.3-6.2,0.1c0-0.1,2.8-0.4,6.2-0.6
		C440.7,209.9,443.5,209.8,443.5,209.9z"/>
	<path class="st5" d="M319.7,131.8c0,0,2.6,24-0.8,37.2l-32.1-1.4c0,0,6.9-23.7,2.7-34.2L319.7,131.8L319.7,131.8z"/>
	<path class="st9" d="M286.6,127.8c0,0-2,27.2-3.8,32.7l29.2,3.1l4.4-4.2c0,0,3.1-24,2.7-30.8L286.6,127.8L286.6,127.8z"/>
	<path class="st7" d="M312.8,159.2l-0.7,4.4l4.4-4.2L312.8,159.2z"/>
	<path class="st6" d="M313.1,141.5c0,0.1-1.3-0.1-3.3-0.4c-2.2-0.3-4.9-0.7-7.9-1.1c-3-0.4-5.7-0.7-7.9-1c-2-0.2-3.3-0.4-3.3-0.5
		s1.3,0,3.3,0.1s4.8,0.4,7.9,0.8c3.1,0.4,5.9,0.9,7.9,1.3C311.9,141.2,313.1,141.5,313.1,141.5L313.1,141.5z M311.8,147.5
		c0,0.1-1.2,0-3.2-0.1c-1.9-0.1-4.6-0.4-7.6-0.8s-5.6-0.8-7.5-1.1s-3.1-0.6-3.1-0.7c0-0.1,1.2,0.1,3.1,0.3c2.1,0.3,4.7,0.6,7.6,1
		s5.5,0.7,7.6,0.9C310.6,147.3,311.8,147.5,311.8,147.5L311.8,147.5z M310,153.1c0,0.1-4.4-0.3-9.8-1.1c-5.4-0.7-9.8-1.4-9.8-1.6
		c0-0.1,4.4,0.3,9.8,1.1C305.6,152.2,310,152.9,310,153.1z"/>
	<path class="st9" d="M217.1,160.6c0,0-2,27.2-3.8,32.7l29.2,3.1l4.4-4.2c0,0,3.1-24,2.7-30.8L217.1,160.6L217.1,160.6z"/>
	<path class="st7" d="M243.2,192l-0.6,4.4l4.4-4.2L243.2,192z"/>
	<path class="st6" d="M243.6,174.4c0,0.1-1.3-0.1-3.3-0.4c-2.2-0.3-4.9-0.7-7.9-1.1c-3-0.4-5.7-0.7-7.9-1c-2-0.2-3.3-0.4-3.3-0.5
		s1.3,0,3.3,0.1s4.8,0.4,7.9,0.8c3.1,0.4,5.9,0.9,7.9,1.3C242.4,174,243.6,174.3,243.6,174.4L243.6,174.4z M242.3,180.4
		c0,0.1-1.2,0-3.2-0.1c-1.9-0.1-4.6-0.4-7.6-0.8s-5.6-0.8-7.5-1.1s-3.1-0.6-3.1-0.7c0-0.1,1.2,0.1,3.1,0.3c2.1,0.3,4.7,0.6,7.6,1
		c2.9,0.4,5.5,0.7,7.6,0.9C241.1,180.1,242.3,180.3,242.3,180.4L242.3,180.4z M240.5,185.9c0,0.1-4.4-0.3-9.8-1.1
		c-5.4-0.7-9.8-1.4-9.8-1.6c0-0.1,4.4,0.3,9.8,1.1C236.1,185,240.5,185.7,240.5,185.9z"/>
	<path class="st8" d="M162,109h24.4v5.6H162V109z"/>
	<path class="st7" d="M162,242.3h24.4v5.6H162V242.3z M162,287.4h24.4v5.6H162V287.4z"/>
	<path class="st1" d="M255.2,76.1h84.3v5.6h-84.3V76.1z M423.1,76.1h84.3v5.6h-84.3L423.1,76.1z M548.3,76.1h40.3v5.6h-40.3V76.1z"
		/>
	<path class="st7" d="M599.3,100c0,0.1-98.8,0.3-220.7,0.3s-220.8-0.1-220.8-0.3c0-0.1,98.8-0.3,220.8-0.3
		C500.4,99.7,599.3,99.8,599.3,100z M599.3,232.7c0,0.1-98.8,0.3-220.7,0.3s-220.8-0.1-220.8-0.3s98.8-0.3,220.8-0.3
		C500.4,232.4,599.3,232.5,599.3,232.7z M599.3,323.8c0,0.1-98.8,0.3-220.7,0.3s-220.8-0.1-220.8-0.3s98.8-0.3,220.8-0.3
		C500.4,323.5,599.3,323.6,599.3,323.8z M599.3,279.4c0,0.1-98.8,0.3-220.7,0.3s-220.8-0.1-220.8-0.3c0-0.1,98.8-0.3,220.8-0.3
		C500.4,279.1,599.3,279.2,599.3,279.4z"/>
	<path class="st7" d="M195.2,325c-0.1,0-0.3-56.4-0.3-126s0.1-126,0.3-126s0.3,56.4,0.3,126S195.4,325,195.2,325z M399.2,326.3
		c-0.1,0-0.3-56.3-0.3-125.7c0-69.5,0.1-125.8,0.3-125.8c0.1,0,0.3,56.3,0.3,125.8C399.4,270,399.3,326.3,399.2,326.3z M531.3,327.6
		c-0.1,0-0.3-56.3-0.3-125.8S531.1,76,531.3,76s0.3,56.3,0.3,125.8C531.5,271.3,531.4,327.6,531.3,327.6z M450.1,182.6
		c0,0,0.1,0,0.4,0.1s0.7,0.3,1.2,0.5c1,0.5,2.4,1.2,4.1,2.5c1.6,1.3,3.5,3.1,5.2,5.5c0.8,1.2,1.6,2.6,2.3,4.2
		c0.6,1.6,1.2,3.3,1.5,5.1c0.7,3.7,0.4,7.9-1.1,12.1c-1.5,4.1-4.1,8.2-7.9,11.4s-8.8,5.3-14.2,5.7c-5.4,0.5-11.1-0.6-16.1-3.4
		c-5-2.8-8.9-7.2-11.1-12.1c-2.3-4.9-2.9-10.3-1.8-15.2c1.1-4.8,3.5-9.1,6.7-12.1c1.6-1.5,3.3-2.8,5.2-3.7c1.8-0.9,3.7-1.6,5.5-2
		c3.6-0.8,7.1-0.8,10-0.6s5.5,0.6,7.5,1s3.6,0.7,4.7,1c0.5,0.1,0.9,0.2,1.2,0.3c0.3,0.1,0.4,0.1,0.4,0.1s-0.1,0-0.4-0.1
		s-0.7-0.1-1.2-0.2c-1.1-0.2-2.6-0.5-4.7-0.9c-2-0.4-4.5-0.7-7.5-0.9c-2.9-0.1-6.3-0.2-9.9,0.7c-1.8,0.4-3.6,1-5.4,2
		c-1.8,0.9-3.5,2.1-5.1,3.6c-3.1,3-5.5,7.2-6.5,11.9s-0.5,10.1,1.8,14.9c2.2,4.8,6,9.1,10.9,11.9c4.9,2.8,10.5,3.9,15.8,3.4
		c5.3-0.4,10.2-2.5,13.9-5.6c3.8-3.1,6.4-7.1,7.8-11.2c1.5-4.1,1.7-8.2,1.1-11.8c-0.3-1.8-0.8-3.5-1.5-5s-1.4-2.9-2.2-4.1
		c-1.6-2.5-3.4-4.2-5-5.5s-3-2-4-2.6c-0.5-0.2-0.9-0.4-1.1-0.5C450.3,182.7,450.1,182.6,450.1,182.6L450.1,182.6z M460.7,185.7
		c-0.1-0.1,3.9-3.4,8.9-7.4s9.2-7.1,9.3-7c0.1,0.1-3.9,3.4-8.9,7.4C464.9,182.7,460.7,185.8,460.7,185.7z"/>
	<path class="st7" d="M476.5,186.3c0,0-0.5,0.1-1.3,0.2c-0.9,0.1-2.1,0.2-3.5,0.3c-3,0.2-7.1,0.5-11.7,0.8h-0.4l0.1-0.4
		c0-0.1,0.1-0.3,0.1-0.4c1.4-4.5,3.4-8.3,5-10.9c0.8-1.3,1.6-2.3,2.1-3s0.9-1,0.9-1s-0.2,0.4-0.7,1.1c-0.5,0.7-1.2,1.7-1.9,3.1
		c-1.6,2.6-3.5,6.4-4.8,10.9c0,0.1-0.1,0.3-0.1,0.4l-0.3-0.3c4.6-0.3,8.7-0.5,11.7-0.7c1.4-0.1,2.6-0.1,3.5-0.1L476.5,186.3
		L476.5,186.3z M589,248.8c0,0,0.3-0.8,0.9-2.1c0.6-1.4,1.3-3.4,1.9-5.9c1.2-5.1,1.7-12.6-0.8-20.2c-2.5-7.7-7.3-13.5-11.3-16.8
		c-2-1.7-3.8-2.9-5-3.7c-1.3-0.8-2-1.2-1.9-1.2c0,0,0.2,0.1,0.5,0.2c0.3,0.2,0.9,0.4,1.5,0.8c1.3,0.7,3.1,1.9,5.1,3.6
		c2,1.7,4.3,4,6.3,6.8c2.1,2.8,3.9,6.3,5.2,10.1c1.2,3.9,1.8,7.7,1.8,11.2s-0.5,6.7-1.1,9.2c-0.7,2.6-1.4,4.6-2,5.9
		c-0.3,0.7-0.6,1.2-0.8,1.5L589,248.8L589,248.8z"/>
	<path class="st7" d="M598.2,243.1c0,0.1-1,0.9-2.6,2.3c-0.9,0.7-1.9,1.5-3,2.4c-0.6,0.4-1.2,0.9-1.8,1.4c-0.6,0.4-1.2,1.1-2.3,1.1
		c-0.5,0-1-0.4-1.2-0.8c-0.2-0.4-0.3-0.8-0.4-1.2c-0.2-0.8-0.4-1.5-0.6-2.2c-0.3-1.4-0.6-2.6-0.9-3.7c-0.5-2.1-0.8-3.4-0.7-3.4
		s0.5,1.3,1.1,3.3c0.3,1.1,0.6,2.3,1,3.7c0.2,0.7,0.4,1.4,0.6,2.2c0.2,0.7,0.4,1.6,1.1,1.6c0.7,0,1.3-0.6,1.9-1
		c0.6-0.5,1.2-0.9,1.8-1.4c1.1-0.8,2.1-1.6,3-2.3C597.1,243.8,598.2,243,598.2,243.1L598.2,243.1z M343.3,182.3
		c0,0.1-9.9,2.8-22.3,5.9c-12.3,3.1-22.4,5.6-22.4,5.4c0-0.1,9.9-2.8,22.3-5.9S343.3,182.2,343.3,182.3z M349.8,187.6
		c0,0.1-10.9,3.3-24.5,7.1s-24.6,6.7-24.6,6.6c0-0.1,10.9-3.3,24.5-7.1C338.7,190.4,349.8,187.5,349.8,187.6z M353.7,196.4
		c0,0.1-10.4,2.8-23.4,5.9c-13,3.1-23.5,5.5-23.5,5.4s10.4-2.8,23.4-5.9S353.7,196.3,353.7,196.4z"/>
	<path class="st5" d="M298.3,288l8,42l79.4-15.1L371.9,274L298.3,288z"/>
	<path class="st6" d="M296.6,288.3l75.3-14.2l7,37.2l-75.3,14.2L296.6,288.3z"/>
	<path class="st7" d="M378.9,311.3c0,0-0.1-0.2-0.1-0.7c-0.1-0.5-0.2-1.1-0.4-1.9c-0.3-1.7-0.8-4.2-1.5-7.4
		c-1.2-6.4-3-15.7-5.2-27.1l0.2,0.2c-19.7,3.7-46.2,8.8-75.2,14.3l0.2-0.3c2.5,13.1,4.9,25.7,7,37.2l-0.3-0.2
		c21.9-4.1,40.7-7.6,54-10.1c6.7-1.2,12-2.2,15.6-2.9c1.8-0.3,3.2-0.6,4.2-0.8c0.5-0.1,0.8-0.1,1.1-0.2
		C378.8,311.3,378.9,311.3,378.9,311.3c0,0-0.1,0-0.3,0.1c-0.3,0.1-0.6,0.1-1.1,0.2c-1,0.2-2.3,0.5-4.1,0.8c-3.6,0.7-8.9,1.7-15.5,3
		c-13.4,2.6-32.2,6.2-54.1,10.4h-0.2v-0.2c-2.2-11.5-4.6-24.1-7.1-37.2v-0.3h0.3c29-5.5,55.5-10.5,75.2-14.2h0.2v0.2
		c2.1,11.5,3.9,20.8,5.1,27.3c0.6,3.2,1,5.7,1.4,7.4c0.1,0.8,0.3,1.5,0.3,1.9C378.9,311,378.9,311.3,378.9,311.3L378.9,311.3z"/>
	<path class="st6" d="M305.7,295.1l20.8-3.9l3.9,20.8l-20.8,3.9L305.7,295.1z"/>
	<path class="st7" d="M330.4,311.9c0,0,0-0.1-0.1-0.4s-0.1-0.7-0.2-1.1c-0.2-1-0.5-2.5-0.9-4.2c-0.7-3.7-1.7-8.8-3-15l0.3,0.2
		c-6.1,1.2-13.2,2.5-20.8,4c0,0.1,0.4-0.6,0.2-0.3v0.3l0.1,0.4l0.1,0.7c0.1,0.5,0.2,0.9,0.3,1.4c0.2,0.9,0.4,1.9,0.5,2.8
		c0.3,1.8,0.7,3.6,1,5.4c0.7,3.5,1.3,6.8,1.8,9.8l-0.3-0.2c6.2-1.1,11.4-2.1,15-2.7c1.8-0.3,3.2-0.6,4.3-0.7
		c0.5-0.1,0.8-0.1,1.1-0.2C330.3,311.9,330.4,311.9,330.4,311.9c0,0-0.1,0-0.4,0.1s-0.6,0.1-1.1,0.2c-1,0.2-2.4,0.5-4.2,0.9
		c-3.7,0.7-8.9,1.8-15.1,3h-0.2v-0.2c-0.6-3-1.2-6.3-1.9-9.8c-0.3-1.7-0.7-3.5-1-5.4c-0.2-0.9-0.4-1.8-0.5-2.8
		c-0.1-0.5-0.2-0.9-0.3-1.4l-0.1-0.7l-0.1-0.4v-0.3c-0.2,0.3,0.3-0.4,0.2-0.3c7.6-1.4,14.7-2.8,20.8-3.9h0.2v0.2
		c1.1,6.2,2.1,11.5,2.8,15.2c0.3,1.8,0.6,3.2,0.7,4.2c0.1,0.4,0.1,0.8,0.2,1.1C330.4,311.8,330.5,311.9,330.4,311.9L330.4,311.9z"/>
	<path class="st7" d="M330.4,311.9c0,0-0.1-0.5-0.4-1.5c-0.3-0.9-0.8-2.4-2.2-3.5c-0.7-0.6-1.5-1.2-2.6-1.6c-1-0.4-2.2-0.5-3.5-0.4
		h-0.5l0.2-0.4c0.9-1.4,1-3.3,0.2-5c-0.4-0.8-1-1.6-1.8-2.1s-1.8-0.7-2.8-0.7c-1.1,0.1-2.2,0.5-3.1,1.1c-0.9,0.7-1.4,1.6-1.6,2.6
		c-0.4,2,0.3,4.1,1.7,5.2l0.2,0.2l-0.3,0.2c-1.4,0.9-2.5,2-3.1,3.2c-0.7,1.2-1,2.3-1.2,3.3c-0.3,1.9,0,3.1-0.1,3.1
		c0,0-0.1-0.3-0.2-0.8s-0.1-1.3,0-2.3s0.4-2.2,1.1-3.4c0.7-1.2,1.7-2.5,3.2-3.4v0.4c-1.5-1.2-2.4-3.4-1.9-5.6
		c0.2-1.1,0.8-2.2,1.8-2.9c0.9-0.8,2.1-1.2,3.3-1.3c1.1-0.1,2.2,0.2,3.1,0.7s1.6,1.4,2,2.3c0.9,1.8,0.7,4-0.3,5.4l-0.2-0.4
		c1.3-0.1,2.6,0.1,3.7,0.5s2,1,2.7,1.7c1.5,1.3,1.9,2.8,2.2,3.7c0.1,0.5,0.2,0.9,0.2,1.1C330.5,311.8,330.5,311.9,330.4,311.9
		L330.4,311.9z"/>
	<path class="st6" d="M334.4,290.4c6-1.1,12-2.3,18-3.4"/>
	<path class="st7" d="M352.5,287c0,0.1-4,1-9,2c-5,0.9-9,1.6-9.1,1.5c0-0.1,4-1,9-2S352.5,286.8,352.5,287z"/>
	<path class="st6" d="M335.2,294.6c1.2-0.2,2.4-0.5,3.6-0.7"/>
	<path class="st7" d="M338.9,293.9c0,0.1-0.8,0.4-1.8,0.6s-1.8,0.2-1.9,0.1c0-0.1,0.8-0.4,1.8-0.6S338.9,293.8,338.9,293.9z
		 M368.9,295.8c0,0.1-7.2,1.6-16.1,3.3c-8.9,1.7-16.1,2.9-16.2,2.8c0-0.1,7.2-1.6,16.1-3.3C361.6,296.9,368.8,295.6,368.9,295.8z
		 M369.7,299.4c0,0.1-7.2,1.6-16.2,3.3c-9,1.7-16.2,3-16.3,2.8c0-0.1,7.2-1.6,16.2-3.3C362.4,300.5,369.7,299.2,369.7,299.4z
		 M370,303.7c0,0-0.4,0.2-1.2,0.3c-0.9,0.2-2,0.4-3.4,0.7c-2.9,0.6-6.9,1.4-11.3,2.2c-4.4,0.8-8.4,1.6-11.3,2.1
		c-1.4,0.2-2.5,0.4-3.4,0.6c-0.8,0.1-1.3,0.2-1.3,0.1c0,0,0.4-0.2,1.2-0.3c0.9-0.2,2-0.4,3.4-0.7c2.9-0.6,6.9-1.4,11.3-2.2
		c4.4-0.8,8.4-1.6,11.3-2.1c1.4-0.2,2.5-0.4,3.4-0.6C369.5,303.7,370,303.6,370,303.7z"/>
	<path class="st8" d="M337.2,286.3c0,0,0.1,0,0.2-0.1l0.6-0.3c0.5-0.3,1.4-0.6,2.4-1c2.2-0.7,5.5-1.4,9.5-0.9c2,0.3,4.2,0.8,6.4,1.8
		c1.1,0.6,2.1,1.3,3,2.3c0.8,1,1.3,2.5,0.9,3.9s-1.4,2.5-2.5,3.4s-2.4,1.6-3.7,2.2c-2.6,1.3-5.5,2.4-8.6,2.9
		c-3.1,0.6-6.2,0.6-9.1-0.1c-1.4-0.4-2.8-0.9-4-1.7c-1.2-0.8-2.3-1.8-2.7-3.2c-0.5-1.3-0.2-2.8,0.4-4c0.7-1.1,1.6-2,2.6-2.8
		c1.9-1.4,4-2.4,5.9-3.2c3.8-1.4,7.2-1.7,9.5-1.7c1.1,0,2,0.1,2.6,0.2c0.3,0,0.5,0.1,0.7,0.1s0.2,0,0.2,0.1h-0.2
		c-0.2,0-0.4,0-0.7-0.1c-0.6,0-1.5-0.1-2.6-0.1c-2.2,0-5.6,0.4-9.3,1.8c-1.9,0.8-3.8,1.8-5.7,3.2c-0.9,0.7-1.8,1.6-2.4,2.6
		s-0.8,2.4-0.4,3.6s1.4,2.2,2.6,2.9c1.1,0.7,2.5,1.2,3.9,1.6c2.8,0.7,5.8,0.7,8.8,0.1s5.8-1.6,8.5-2.9c1.3-0.6,2.6-1.3,3.6-2.1
		c1.1-0.8,2-1.9,2.3-3.1s0-2.5-0.8-3.5c-0.7-1-1.8-1.7-2.8-2.2c-2.1-1-4.3-1.6-6.3-1.9c-4-0.5-7.3,0.1-9.4,0.7
		c-1.1,0.3-1.9,0.6-2.4,0.9c-0.3,0.1-0.5,0.2-0.6,0.3C337.3,286.3,337.2,286.3,337.2,286.3L337.2,286.3z M358.8,285.8
		c-0.1-0.1,2.3-2.2,5.3-4.7s5.6-4.4,5.7-4.3s-2.3,2.2-5.3,4.7C361.4,284,358.9,285.9,358.8,285.8z"/>
	<path class="st8" d="M365.5,284.9c0,0.1-2.8,0.8-6.2,1.5c-0.3,0.1-0.5,0.1-0.8,0.2l-0.4,0.1l0.1-0.4c0.8-3.2,2.2-5.3,2.3-5.2
		c0.1,0.1-1,2.3-1.8,5.3l-0.3-0.3c0.2-0.1,0.5-0.1,0.8-0.2C362.6,285.2,365.5,284.7,365.5,284.9z M354.3,289.4
		c0,0.1-4.4,0.9-9.9,1.8c-5.5,0.8-10,1.4-10,1.3s4.4-0.9,9.9-1.8S354.3,289.3,354.3,289.4z M331.7,281.4c0.5,2.5-1.2,4.9-3.7,5.4
		s-4.9-1.2-5.4-3.7s1.2-4.9,3.7-5.4C328.8,277.3,331.3,278.9,331.7,281.4z"/>
	<path class="st7" d="M327.2,286.9c-0.9,0-1.8-0.3-2.6-0.8c-1-0.7-1.7-1.8-1.9-3c-0.2-1.2,0-2.5,0.7-3.5s1.8-1.7,3-1.9
		c0.3-0.1,0.6-0.1,0.9-0.1c2.2,0,4.1,1.6,4.6,3.8c0.5,2.5-1.2,4.9-3.7,5.4C327.8,286.9,327.5,286.9,327.2,286.9z M327.2,277.7
		c-0.3,0-0.6,0-0.9,0.1c-1.2,0.2-2.3,0.9-2.9,1.9c-0.7,1-0.9,2.2-0.7,3.4c0.2,1.2,0.9,2.3,1.9,2.9c1,0.7,2.2,0.9,3.4,0.7
		c2.5-0.5,4.1-2.9,3.7-5.4C331.3,279.2,329.4,277.7,327.2,277.7z"/>
</g>
<g id="Plants">
	<path class="st8" d="M83.5,353.8c-7.7-11.7-7.4-28.9,1.8-39.5c2.8-3.3,6.8-6.2,11.2-5.8c4.4,0.4,8,4.2,9.4,8.4
		c1.4,4.2,0.9,8.8,0.1,13.2c-1.1,6.1-3,12.4-7.2,17C94.4,351.7,89,356.8,83.5,353.8 M86.9,409.9c-2.9-6.7-0.8-15.3,4.9-19.9
		c1.8-1.4,4.1-2.6,6.3-2c2.3,0.6,3.8,2.9,4.1,5.2c0.3,2.3-0.3,4.6-1.2,6.8c-1.1,3.1-2.7,6.1-5.3,8.1S89.5,411.9,86.9,409.9
		 M68.4,405.9c2.1-10.4-3.4-21.9-12.8-26.8c-2.9-1.5-6.5-2.4-9.5-0.9s-4.5,5.2-4.2,8.6c0.2,3.4,1.9,6.5,3.6,9.3
		c2.5,4,5.6,7.9,9.8,9.9C59.7,407.9,65.4,409.5,68.4,405.9 M69.7,377.7c3.7-11.9-2.6-26.2-12.9-33c-3.2-2.1-7.3-3.6-10.9-2.2
		c-3.7,1.4-5.8,5.5-5.9,9.5c-0.1,3.9,1.4,7.7,3.1,11.3c2.4,5,5.6,9.8,10.3,12.7C58.1,378.8,65.8,381.6,69.7,377.7"/>
	<path class="st7" d="M77.1,435.7c0,0-0.1-0.2-0.1-0.6c-0.1-0.4-0.1-1-0.2-1.7c-0.1-0.4-0.1-0.8-0.2-1.2c-0.1-0.4-0.2-0.9-0.3-1.4
		c-0.2-1-0.4-2.2-0.7-3.4c-0.2-0.6-0.3-1.3-0.5-2l-0.6-2.1c-0.4-1.5-1-3-1.5-4.6c-1.2-3.2-2.7-6.7-4.6-10.1
		c-1.9-3.5-3.9-6.6-5.9-9.4c-1-1.4-2-2.7-3-3.8c-0.5-0.6-1-1.1-1.4-1.7c-0.5-0.5-0.9-1-1.4-1.5c-0.9-1-1.7-1.8-2.5-2.5l-1-1
		c-0.3-0.3-0.6-0.6-0.9-0.8c-0.5-0.5-0.9-0.8-1.2-1.1l-0.4-0.4c0,0,0.2,0.1,0.5,0.3c0.3,0.3,0.8,0.6,1.3,1c0.3,0.2,0.6,0.5,0.9,0.8
		c0.3,0.3,0.7,0.6,1.1,1c0.8,0.7,1.6,1.5,2.5,2.5c0.5,0.5,0.9,1,1.4,1.5s0.9,1.1,1.4,1.7c1,1.1,2,2.5,3.1,3.8c2,2.8,4.1,6,6,9.5
		s3.4,7,4.6,10.2c0.5,1.6,1.1,3.2,1.5,4.7l0.6,2.1c0.2,0.7,0.3,1.4,0.4,2c0.3,1.3,0.5,2.4,0.7,3.5c0.1,0.5,0.2,1,0.2,1.4
		s0.1,0.8,0.1,1.2c0.1,0.7,0.1,1.2,0.2,1.7C77.1,435.5,77.1,435.7,77.1,435.7z"/>
	<path class="st7" d="M76.8,437.8v-0.2c0-0.2,0-0.4,0.1-0.7c0.1-0.6,0.1-1.5,0.2-2.6c0.1-0.6,0.1-1.2,0.2-1.9s0.1-1.5,0.1-2.3
		c0.1-1.6,0.2-3.5,0.2-5.5v-3.2c0-1.1-0.1-2.3-0.2-3.5c-0.1-2.4-0.4-5-0.7-7.7c-0.7-5.4-1.9-11.2-3.6-17.2c-1.8-6-4-11.5-6.3-16.4
		c-1.2-2.4-2.3-4.7-3.6-6.8c-0.6-1-1.2-2.1-1.8-3s-1.2-1.8-1.7-2.7c-1.1-1.8-2.2-3.2-3.1-4.6c-0.5-0.7-0.9-1.3-1.3-1.8l-1.2-1.5
		c-0.7-0.9-1.2-1.6-1.6-2.1c-0.2-0.2-0.3-0.4-0.4-0.5c-0.1-0.1-0.1-0.2-0.1-0.2l0.2,0.2l0.5,0.5c0.4,0.5,1,1.2,1.7,2
		c0.4,0.4,0.8,0.9,1.2,1.5c0.4,0.5,0.9,1.2,1.4,1.8c1,1.3,2.1,2.8,3.2,4.5l1.8,2.7c0.6,0.9,1.2,2,1.8,3c1.3,2.1,2.4,4.4,3.6,6.8
		c2.3,4.9,4.6,10.5,6.4,16.5s2.9,11.9,3.6,17.3c0.3,2.7,0.6,5.3,0.7,7.7c0,1.2,0.1,2.4,0.1,3.5v3.2c0,2.1-0.1,3.9-0.2,5.5
		c-0.1,0.8-0.1,1.6-0.2,2.3c-0.1,0.7-0.2,1.3-0.2,1.9c-0.1,1.1-0.3,2-0.3,2.6c0,0.3-0.1,0.5-0.1,0.7
		C76.9,437.7,76.8,437.8,76.8,437.8L76.8,437.8z"/>
	<path class="st7" d="M96.8,322.7c0,0,0,0.1-0.1,0.2l-0.3,0.6c-0.3,0.6-0.8,1.4-1.3,2.3c-0.3,0.5-0.6,1.1-0.9,1.7s-0.7,1.3-1,2.1
		c-0.4,0.7-0.8,1.5-1.2,2.4c-0.4,0.8-0.8,1.8-1.2,2.7c-0.4,1-0.9,1.9-1.3,3s-0.8,2.2-1.3,3.3c-0.2,0.6-0.4,1.2-0.7,1.7l-0.6,1.8
		c-0.4,1.2-0.8,2.5-1.3,3.8c-1.6,5.3-3.2,11.1-4.5,17.3c-1.3,6.2-2.1,12.2-2.8,17.7c-0.6,5.5-1,10.4-1.1,14.6
		c-0.1,2.1-0.1,4-0.1,5.6v7.8v-0.9c0-0.7-0.1-1.6-0.1-2.7c-0.1-1.2-0.1-2.6-0.1-4.3c0-1.7,0-3.5,0.1-5.6c0.1-4.2,0.4-9.1,1-14.6
		s1.5-11.5,2.8-17.7s2.9-12.1,4.5-17.4c0.4-1.3,0.9-2.6,1.3-3.8l0.6-1.8c0.2-0.6,0.5-1.2,0.7-1.7c0.5-1.1,0.9-2.2,1.3-3.3
		c0.4-1.1,0.9-2,1.3-3c0.4-0.9,0.8-1.9,1.2-2.7l1.2-2.4c0.4-0.7,0.7-1.4,1.1-2.1c0.3-0.6,0.7-1.2,1-1.7c0.6-1,1.1-1.7,1.4-2.3
		C96.6,323.1,96.7,322.9,96.8,322.7L96.8,322.7z M94.2,394.7c0,0-0.3,0.5-0.8,1.4c-0.6,0.9-1.3,2.2-2.2,3.9c-0.9,1.7-1.9,3.7-2.9,6
		s-2,4.9-2.8,7.6c-0.8,2.8-1.5,5.4-2,7.9s-0.8,4.7-1,6.6s-0.3,3.4-0.3,4.5c-0.1,1.1-0.1,1.6-0.1,1.6s-0.1-0.6-0.1-1.6
		c0-1.1,0-2.6,0.2-4.5c0.1-1.9,0.4-4.1,0.9-6.6s1.1-5.2,1.9-7.9c0.9-2.8,1.9-5.4,2.9-7.7s2.1-4.3,3-6c0.9-1.6,1.8-2.9,2.4-3.8
		C93.8,395.1,94.2,394.7,94.2,394.7z"/>
	<path class="st9" d="M62,430.4h33.7l-4,34.4H66.2L62,430.4z"/>
	<path class="st7" d="M63.3,461.1l2.8,3.7h25.6l2.9-3.6L63.3,461.1z"/>
	<path class="st0" d="M94.4,440.5c0,0.1-7,0.3-15.6,0.3s-15.6-0.1-15.6-0.3c0-0.1,7-0.3,15.6-0.3C87.4,440.3,94.4,440.4,94.4,440.5z
		 M94.4,442.8c0,0.1-7,0.3-15.6,0.3s-15.6-0.1-15.6-0.3c0-0.1,7-0.3,15.6-0.3S94.4,442.7,94.4,442.8z M94,445
		c0,0.1-6.7,0.3-15.1,0.3c-8.3,0-15.1-0.1-15.1-0.3c0-0.1,6.7-0.3,15.1-0.3C87.3,444.8,94,444.9,94,445z"/>
	<path class="st7" d="M67.2,356.2v0.3c0,0.3,0,0.6-0.1,0.9c-0.1,0.9-0.2,2-0.3,3.4c-0.3,2.9-0.8,6.9-1.3,11.3c0,0.2,0,0.3-0.1,0.5
		v0.1h-0.1c-4.3,0.1-8.2,0.1-11,0.1h-4.5H51c0.8,0,2-0.1,3.3-0.1c2.8-0.1,6.7-0.2,11-0.2l-0.2,0.2c0-0.2,0-0.3,0.1-0.5
		c0.5-4.4,1-8.4,1.4-11.3c0.2-1.4,0.3-2.6,0.5-3.4c0.1-0.4,0.1-0.7,0.1-0.9C67.2,356.6,67.2,356.2,67.2,356.2z M59.5,345.9v4.9
		c0,3-0.1,7.1-0.2,11.7v0.7h-0.2c-4.4-0.3-8.4-0.3-11.3-0.3c-1.4,0-2.6,0.1-3.4,0.1h-1.2c0,0,0.1,0,0.3-0.1c0.2,0,0.5-0.1,0.9-0.1
		c0.8-0.1,2-0.2,3.4-0.3c2.9-0.2,6.9-0.2,11.4,0.2l-0.2,0.2v-0.5c0.1-4.6,0.2-8.7,0.3-11.7c0.1-1.5,0.1-2.7,0.1-3.5
		c0-0.4,0-0.7,0.1-1L59.5,345.9L59.5,345.9z"/>
	<path class="st7" d="M50.6,342.4c0,0,0.1,0.3,0.2,1s0.3,1.6,0.5,2.7c0.4,2.3,1.1,5.4,2.1,8.9l0.1,0.4l-0.3-0.2
		c-0.1-0.1-0.3-0.1-0.4-0.2c-3.3-1.6-6.6-2.3-9-2.6c-1.2-0.1-2.2-0.2-2.8-0.2c-0.7,0-1,0-1-0.1h1.1c0.7,0,1.7,0,2.9,0.1
		c2.4,0.2,5.8,0.9,9.1,2.6c0.1,0.1,0.3,0.1,0.4,0.2l-0.2,0.2c-1-3.5-1.6-6.6-2-8.9c-0.2-1.2-0.3-2.1-0.4-2.7
		C50.6,342.7,50.5,342.4,50.6,342.4L50.6,342.4z M98.2,405.1c0,0.1-1,0-2.5-0.1c-1.6-0.1-3.7-0.1-6.1,0.2c-0.5,0.1-1,0.1-1.4,0.2H88
		v-0.2c-0.4-2-0.7-3.8-0.9-5.1c-0.2-1.3-0.3-2.1-0.3-2.1l0.5,2c0.3,1.3,0.6,3.1,1,5.1l-0.2-0.1c0.5-0.1,0.9-0.1,1.4-0.2
		c2.4-0.3,4.6-0.2,6.2-0.1c0.8,0.1,1.4,0.1,1.9,0.2C97.9,405.1,98.2,405.1,98.2,405.1z M101.3,398.8c0,0.1-0.9-0.2-2.5-0.4
		c-1.5-0.2-3.7-0.3-6-0.1c-0.4,0-0.7,0.1-1.1,0.1h-0.2v-0.2c-0.2-2.1-0.4-4-0.5-5.3s-0.2-2.1-0.1-2.2c0,0,0.2,0.8,0.3,2.1
		c0.2,1.3,0.4,3.2,0.6,5.3l-0.2-0.1c0.3,0,0.7-0.1,1.1-0.1c2.4-0.2,4.5-0.1,6.1,0.2c0.8,0.1,1.4,0.3,1.8,0.4
		C101.1,398.7,101.3,398.8,101.3,398.8L101.3,398.8z M103.6,338.9c0,0-0.1,0.1-0.3,0.2c-0.3,0.1-0.6,0.3-1,0.4
		c-0.9,0.4-2.1,0.9-3.6,1.6c-3.1,1.3-7.4,3.1-12.1,5c-0.2,0.1-0.4,0.2-0.7,0.3l-0.2,0.1l-0.1-0.2c-2-4.5-3.8-8.5-5.1-11.5
		c-0.6-1.4-1.1-2.6-1.5-3.5c-0.2-0.4-0.3-0.7-0.4-1c-0.1-0.2-0.1-0.3-0.1-0.3s0.1,0.1,0.2,0.3c0.1,0.2,0.3,0.6,0.4,0.9
		c0.4,0.9,0.9,2,1.6,3.4c1.3,3,3.2,7,5.2,11.5l-0.2-0.1c0.2-0.1,0.4-0.2,0.7-0.3c4.7-1.9,9-3.6,12.1-4.9c1.5-0.6,2.8-1.1,3.7-1.5
		c0.4-0.2,0.7-0.3,1-0.4H103.6z M106.6,324.3c0,0-0.1,0.1-0.3,0.2c-0.2,0.2-0.5,0.3-0.9,0.6c-0.8,0.5-1.9,1.2-3.3,2.1
		c-2.8,1.7-6.7,4.1-11,6.7l-0.2,0.1l-0.1-0.2c-0.1-0.2-0.1-0.3-0.2-0.5c-1.8-4.8-3.4-9.2-4.6-12.4c-0.6-1.6-1-2.8-1.4-3.8
		c-0.1-0.4-0.3-0.8-0.4-1s-0.1-0.4-0.1-0.4s0.1,0.1,0.2,0.3c0.1,0.3,0.2,0.6,0.4,1c0.4,0.9,0.9,2.2,1.5,3.7
		c1.2,3.2,2.9,7.6,4.7,12.4c0.1,0.2,0.1,0.4,0.2,0.5l-0.2-0.1c4.3-2.6,8.2-4.9,11-6.6c1.4-0.8,2.5-1.5,3.3-2
		c0.4-0.2,0.7-0.4,0.9-0.5C106.5,324.4,106.6,324.3,106.6,324.3L106.6,324.3z"/>
	<path class="st7" d="M105.6,316.6c0,0-0.2,0.2-0.7,0.4c-0.5,0.3-1.2,0.6-2,1.2c-1.7,1-3.9,2.6-6.1,4.8l-0.4,0.4l0.1-0.6
		c0.1-0.6,0.3-1.2,0.4-1.9c0.6-3.5,0.1-6.7-0.5-9c-0.3-1.1-0.6-2-0.9-2.6c-0.2-0.6-0.4-0.9-0.4-0.9s0.2,0.3,0.5,0.9s0.6,1.5,1,2.6
		c0.7,2.2,1.2,5.5,0.6,9.1c-0.1,0.7-0.2,1.3-0.4,1.9l-0.3-0.2c2.2-2.2,4.5-3.7,6.2-4.7c0.9-0.5,1.6-0.9,2-1.1
		C105.3,316.7,105.6,316.5,105.6,316.6L105.6,316.6z M67.1,392.1c0,0,0,0.3-0.2,0.9c-0.1,0.6-0.3,1.4-0.5,2.4c-0.4,2-0.8,4.8-0.9,8
		v0.2h-1c-3.3,0.2-6.4,0.4-8.6,0.5c-1,0-1.9,0.1-2.6,0.1h-1c0,0,0.3-0.1,0.9-0.1c0.7-0.1,1.5-0.1,2.6-0.2c2.2-0.2,5.2-0.4,8.6-0.6
		h0.8l-0.2,0.2c0.1-3.2,0.6-6,1-8c0.2-1,0.4-1.8,0.6-2.4C67,392.4,67.1,392.1,67.1,392.1z M60.5,382.6c0,0,0,0.3-0.1,0.9
		s-0.2,1.4-0.3,2.4c-0.2,2-0.6,4.8-1,8v0.1H59c-0.3,0-0.7,0-1.1,0.1c-3.4,0.2-6.5,0.6-8.7,0.9c-1.1,0.1-2,0.3-2.6,0.4s-1,0.1-1,0.1
		s0.3-0.1,1-0.2c0.6-0.1,1.5-0.3,2.6-0.5c2.2-0.4,5.3-0.7,8.8-1c0.4,0,0.7,0,1.1-0.1l-0.2,0.1c0.4-3.2,0.8-6,1.1-8
		c0.2-1,0.3-1.8,0.4-2.4C60.4,382.9,60.5,382.6,60.5,382.6z M52.7,378.6c0,0-0.2,0.9-0.4,2.4s-0.5,3.6-0.5,6v0.2h-0.2
		c-0.2,0-0.4,0-0.6-0.1c-2.5-0.3-4.7-0.4-6.4-0.4H42c0,0,0.2-0.1,0.7-0.1s1.1-0.1,1.9-0.1c1.6-0.1,3.9,0,6.4,0.3
		c0.2,0,0.4,0.1,0.6,0.1l-0.2,0.2c0.1-2.4,0.3-4.5,0.7-6c0.2-0.8,0.3-1.4,0.4-1.8C52.6,378.8,52.7,378.5,52.7,378.6z M97.1,388
		c0.1,0-0.6,1.5-1.5,3.4s-1.5,3.4-1.6,3.4s0.4-1.6,1.3-3.5S97.1,388,97.1,388z"/>
	<path class="st7" d="M101.4,392.5c0,0.1-1.8,0.1-3.8,0.8c-2.1,0.6-3.5,1.6-3.6,1.5s1.4-1.2,3.5-1.9
		C99.6,392.3,101.4,392.5,101.4,392.5z"/>
	<path class="st8" d="M684.7,428.3c4.2-2.2,9.1-2.4,13.7-1.7c2.5,0.4,5.1,1.2,6.8,3c1.7,1.9,2,5.2,0.1,6.8c-1.2,1-2.8,1.1-4.3,1.1
		c-3.6,0-7.6-0.7-10.5,1.5c-1.7,1.2-2.7,3.3-4.7,3.9c-1.9,0.6-4.1-0.5-5.1-2.3c-1-1.7-1.1-3.9-0.6-5.9
		C680,434.8,680.5,430.5,684.7,428.3z M675.2,409.9c2.5,3.6,7.5,2.4,9.8,0.2c2.3-2.2,3.3-5.4,4.2-8.5c2-7,4.1-14.4,2.6-21.5
		c-0.4-2.1-1.2-4.3-2.7-5.9s-3.8-2.5-5.9-2c-2.5,0.7-4,3.1-5.2,5.4c-3.3,6.8-5,14.4-5.1,22C672.8,403.3,673.2,407,675.2,409.9
		 M668.2,415.1c2.8-3.3,3.3-8.1,2.1-12.2s-4-7.6-7.2-10.5c-3.8-3.3-8.2-6-12.9-7.6c-1.9-0.7-3.8-1.2-5.8-1s-4,1.2-4.9,3
		c-1.4,2.6-0.1,5.7,1.4,8.3c2.5,4.5,5.3,8.9,8.5,12.9c2.5,3.3,5.5,6.5,9.3,8c3.9,1.5,7.9,1.3,10-1.4"/>
	<path class="st7" d="M675,464.8c0,0,0.1-0.6,0.2-1.7c0.1-1.2,0.3-2.7,0.4-4.5c0.2-1.9,0.5-4.2,1-6.6c0.5-2.5,1.3-5.1,2.4-7.8
		c1.1-2.7,2.4-5.1,4-7.1c1.5-2,3.4-3.4,5-4.2c1.7-0.8,3.2-1.2,4.2-1.3c1.1-0.1,1.6-0.2,1.6-0.2s-0.6-0.1-1.7,0s-2.7,0.3-4.4,1.2
		c-1.8,0.8-3.7,2.2-5.3,4.2s-3,4.5-4.1,7.2s-1.9,5.4-2.4,7.9s-0.7,4.8-0.9,6.7c-0.1,1.9-0.2,3.5-0.2,4.5
		C674.9,464.2,675,464.8,675,464.8L675,464.8z"/>
	<path class="st7" d="M675.3,461.3v-3c0-1.9,0-4.7,0.1-8.1c0.2-6.8,0.8-14.1,1.9-24.5c1.1-9.7,2.5-21,4-28.4c0.3-1.7,0.7-3.2,1-4.5
		s0.5-2.5,0.8-3.4c0.2-0.9,0.4-1.6,0.5-2.1s0.2-0.8,0.1-0.8c0,0-0.1,0.2-0.3,0.7c-0.2,0.6-0.4,1.2-0.6,2.1c-0.3,0.9-0.6,2-0.9,3.4
		c-0.3,1.3-0.7,2.8-1.1,4.5c-1.5,6.7-3.1,16-4.2,26.3s-1.6,19.8-1.7,26.6c0,3.4,0,6.2,0.1,8.1c0.1,0.9,0.1,1.6,0.1,2.2
		C675.3,461.1,675.3,461.3,675.3,461.3L675.3,461.3z"/>
	<path class="st7" d="M675.4,443.2v-2.3c-0.1-1.5-0.3-3.6-0.7-6.2s-1.1-5.7-2-9c-0.4-1.5-1.4-5.2-3.8-10.7
		c-3.1-7.4-7.4-13.5-11.1-17.3c-0.9-1-1.8-1.7-2.6-2.4c-0.4-0.3-0.8-0.7-1.1-0.9c-0.4-0.3-0.7-0.5-1-0.7c-1.2-0.8-1.9-1.3-1.9-1.2
		c-0.1,0.1,2.7,1.8,6.3,5.6c3.6,3.8,7.7,9.9,10.8,17.2c1.7,4,2.9,7.6,3.8,10.6c1,3.3,1.7,6.4,2.1,9c0.5,2.6,0.7,4.7,0.9,6.1
		C675.2,442.3,675.3,443.2,675.4,443.2L675.4,443.2z"/>
</g>
<g id="Character_2">
	<path class="st7" d="M559.6,174.2c0,5.9,7.8,9.8,7.5,15.7c-0.1,2.5-1.8,4.8-2.2,7.3c-0.5,3.4,1.3,6.7,1.9,10c1.2,7-3,14.1-9.1,17.7
		c-6.1,3.6-13.6,4.1-20.6,2.9 M511.8,171.2c0.1,3.2-2.1,6-4.3,8.3c-2.2,2.3-4.6,4.7-5.2,7.9c-1,5.6,4.3,11,3,16.5
		c-0.7,3-3.2,5.3-3.7,8.3c-0.5,2.9,1,5.8,2.8,8.1c1.9,2.3,4.1,2,5.7,4.5c1.7,2.6,4.5,5.2,7.2,6.8c6,3.6,13.6-1.1,16.6-1.8"/>
	<path class="st7" d="M560.6,177.6c0.2-2.9-2.4-5.2-5.1-6.4c-2.7-1.1-5.6-1.6-8-3.3c-2.1-1.5-3.4-3.8-5.2-5.7
		c-4.3-4.6-11.1-6.7-17.2-5.2s-11.3,6.4-13,12.4c-1.2,4.1-0.6,9,2.5,11.8c3.7,3.3,9.3,2.8,14.1,1.9c4.9-0.8,10.3-1.6,14.3,1.3
		c2.4,1.8,3.7,4.6,5.1,7.2c1.4,2.6,3.2,5.3,6,6.4c2.8,1.1,6.6-0.5,6.8-3.5"/>
	<path class="st10" d="M549.7,176.6l-25.4-7.4c-8.2-1.2-14,8.8-14.8,17c-0.9,9.1-1.6,20.3-0.8,27.2c1.7,13.8,12.2,15.9,12.2,15.9
		s-0.1,4-0.3,8.9c-0.2,8,6,14.8,14.1,15.2s14.9-5.8,15.4-13.8l3.7-58.1C554,179.1,552.2,176.9,549.7,176.6L549.7,176.6z"/>
	<path class="st7" d="M511.2,196.3c-0.1,0.9,0.7,1.8,1.6,1.8c1,0.1,1.8-0.6,1.9-1.5c0.1-0.9-0.7-1.8-1.6-1.8
		C512.1,194.6,511.3,195.3,511.2,196.3L511.2,196.3z M511.2,193.4c0.2,0.2,1.6-0.7,3.5-0.6c1.9,0,3.3,1.1,3.5,0.8
		c0.1-0.1-0.1-0.5-0.7-1s-1.6-0.9-2.8-1c-1.2,0-2.2,0.4-2.8,0.8C511.3,192.9,511.1,193.3,511.2,193.4z M529.7,196.7
		c-0.1,0.9,0.7,1.8,1.6,1.8c1,0.1,1.8-0.6,1.9-1.5c0.1-0.9-0.7-1.8-1.6-1.8C530.6,195.1,529.8,195.8,529.7,196.7z M529.9,194.4
		c0.2,0.2,1.6-0.7,3.5-0.6c1.9,0,3.3,1.1,3.5,0.8c0.1-0.1-0.1-0.5-0.7-1s-1.6-0.9-2.8-1c-1.2,0-2.2,0.4-2.8,0.8
		C530,193.9,529.8,194.3,529.9,194.4z M522.5,208.2c0-0.1-1.2-0.4-3.1-0.7c-0.5-0.1-0.9-0.2-1-0.5c-0.1-0.4,0.1-0.9,0.4-1.4
		c0.5-1.2,1-2.4,1.6-3.6c2.2-5.2,3.8-9.5,3.5-9.5c-0.2-0.1-2.1,4-4.3,9.2c-0.5,1.3-1,2.5-1.5,3.7c-0.2,0.5-0.5,1.2-0.3,1.9
		c0.1,0.4,0.5,0.6,0.8,0.7c0.3,0.1,0.6,0.1,0.8,0.1C521.3,208.3,522.5,208.4,522.5,208.2z"/>
	<path class="st11" d="M520.8,229.4c0,0,9,1.1,18.4-4.1c-0.2,0-5.4,9.4-18.5,7.5L520.8,229.4z"/>
	<path class="st2" d="M523.1,212.8c0.7-0.9,1.9-1.3,3.1-1.2c0.8,0.1,1.6,0.5,2.1,1.2s0.5,1.6,0.1,2.3c-0.5,0.7-1.6,0.8-2.5,0.5
		s-1.7-0.9-2.4-1.5c-0.2-0.2-0.4-0.3-0.5-0.6C522.9,213.4,522.9,213.1,523.1,212.8"/>
	<path class="st7" d="M528,209.8c-0.3,0-0.4,2-2.2,3.4s-4,1.1-4,1.4c0,0.1,0.5,0.4,1.4,0.5s2.2-0.2,3.4-1c1.1-0.9,1.6-2,1.7-2.9
		C528.4,210.3,528.2,209.7,528,209.8L528,209.8z M529.1,191.1c0.2,0.5,2.1,0.3,4.3,0.7c2.2,0.3,4,1,4.3,0.6c0.1-0.2-0.2-0.7-0.9-1.2
		s-1.8-1-3.2-1.2c-1.3-0.2-2.6,0-3.4,0.3C529.5,190.4,529,190.8,529.1,191.1L529.1,191.1z M512.1,188c0.3,0.4,1.6,0,3.2,0.1
		c1.6,0,2.9,0.4,3.2-0.1c0.1-0.2-0.1-0.7-0.6-1.1c-0.6-0.4-1.5-0.8-2.6-0.8s-2,0.4-2.6,0.8C512.2,187.3,512,187.7,512.1,188
		L512.1,188z"/>
	<path class="st7" d="M553.6,224c-3.8,0.6-4.1-1.3-6.8-4s-4.1-6.8-3.5-10.6c0.5-3.4,2.5-6.7,1.4-10c-1.4-4.3-7.3-5.8-8.7-10
		c-0.8-2.5,0.1-5.3-0.9-7.8c-0.9-2.3-3.2-3.7-5.5-4.6c-2.3-0.9-4.7-1.6-6.6-3.1c-1.9-1.6-3-4.5-1.7-6.5c10.2,1.6,20.2,4.3,29.8,8.3
		c2.2,0.9,4.5,2,5.8,4c1.3,2.2,1.2,4.9,1,7.4c-1,12.3-1.9,24.7-2.9,37 M563.1,196.3c0.6-4.5,4.4-8.4,8.9-9.1
		c4.5-0.7,9.3,1.9,11.2,6.1c1.8,3.9,1,8.6-0.9,12.5c-2.3,4.6-6.8,8.8-11.9,8.4c-4.8-0.4-8.6-4.7-9.8-9.4s-0.5-9.6,0.2-14.4"/>
	<path class="st9" d="M565.2,215.2c0,0,0.3-0.2,0.7-0.8s0.9-1.5,1.1-2.7c0.2-1.2,0.3-2.7,0-4.3c-0.2-1.6-0.7-3.3-1.1-5.2
		c-0.3-1.8-0.5-3.6-0.1-5.1c0.3-1.5,1.1-2.8,1.4-4c0.4-1.2,0.4-2.3,0.2-2.9c-0.2-0.7-0.5-1-0.5-1s0.2,0.4,0.3,1s0.1,1.6-0.4,2.7
		c-0.4,1.1-1.2,2.4-1.6,4c-0.4,1.6-0.3,3.5,0.1,5.3c0.3,1.8,0.9,3.6,1.1,5.1c0.3,1.6,0.3,3,0.1,4.2
		C566.3,214,565.1,215.1,565.2,215.2z"/>
	<path class="st9" d="M565.9,198.7c0,0,0.6,1,2,2.1s3.8,2.3,6.7,2.4c2.8,0.1,5.3-0.8,6.9-1.8c1.6-1,2.3-1.9,2.2-1.9
		c-0.1-0.1-0.9,0.7-2.5,1.5s-4,1.7-6.7,1.5c-2.7-0.1-5-1.2-6.5-2.2C566.7,199.5,566,198.6,565.9,198.7L565.9,198.7z M566.6,200.9
		c-0.1,0,0.2,0.9,1.1,2.2c0.8,1.3,2.3,2.9,4.3,4.1c2,1.3,4,1.9,5.5,2.2c1.5,0.2,2.5,0.2,2.5,0.1s-0.9-0.2-2.4-0.5
		c-1.4-0.3-3.4-1-5.3-2.3c-1.9-1.2-3.3-2.7-4.2-3.9C567.1,201.6,566.6,200.8,566.6,200.9L566.6,200.9z M562.5,219.7
		c0,0,0.1,0,0.2-0.2c0.1-0.1,0.2-0.3,0.4-0.5c0.3-0.5,0.7-1.3,1-2.4c0.3-1.1,0.3-2.5-0.1-4.1c-0.4-1.6-1.4-3.2-3.1-4.4
		c-1.6-1.2-3.7-2.1-5-3.9c-0.6-0.9-0.9-2.1-0.6-3.3c0.2-1.2,0.8-2.3,1.3-3.5c1.1-2.4,1.2-5.5,0.1-8.2c-0.6-1.3-1.5-2.6-2.7-3.6
		s-2.7-1.5-4.2-1.9s-3-0.6-4.3-1.1c-1.4-0.5-2.7-1.1-3.6-2.1c-0.9-1-1.3-2.3-1.5-3.7c-0.1-1.3-0.2-2.7-0.5-4
		c-0.6-2.6-1.8-4.9-3.5-6.6c-1.7-1.7-3.8-2.7-5.7-3.1c-2-0.4-3.9-0.1-5.3,0.6c-1.5,0.7-2.5,1.7-3.2,2.6c-0.7,0.9-1,1.7-1.2,2.3
		s-0.2,0.9-0.2,0.9c0.1,0,0.1-1.3,1.5-3c0.7-0.8,1.7-1.8,3.1-2.4c1.4-0.6,3.2-0.9,5.1-0.5c1.9,0.4,3.9,1.4,5.5,3s2.8,3.9,3.3,6.4
		c0.3,1.3,0.3,2.6,0.5,4c0.1,1.4,0.5,2.9,1.6,4c1,1.1,2.4,1.8,3.8,2.3c1.4,0.5,2.9,0.7,4.4,1.1c1.4,0.4,2.8,0.9,3.9,1.8
		s2,2.1,2.5,3.3c1.1,2.6,1,5.4-0.1,7.8c-0.5,1.2-1.1,2.4-1.3,3.6c-0.3,1.3,0,2.6,0.8,3.6c1.4,2,3.6,2.9,5.1,4c1.6,1.1,2.6,2.7,3,4.2
		s0.4,2.9,0.2,3.9C563.3,218.8,562.4,219.7,562.5,219.7L562.5,219.7z"/>
	<path class="st9" d="M562.8,181.3c0,0,0.1-0.2,0.2-0.6c0.1-0.4,0-1.1-0.4-1.8s-1.1-1.5-2.2-2s-2.5-0.5-3.9-0.3
		c-1.5,0.2-3,0.8-4.6,1c-1.6,0.3-3.5,0.2-4.9-0.9c-1.4-1.2-2.1-3.1-2.8-5c-0.7-2-1.6-4-3-5.8c-2.7-3.6-6.4-6.1-10.2-7.1
		c-1.9-0.5-3.8-0.5-5.5,0s-3.1,1.4-4.1,2.5s-1.5,2.4-1.6,3.6c-0.1,1.2,0.1,2.2,0.4,3c0.3,0.8,0.7,1.3,1,1.6s0.5,0.4,0.5,0.4
		c0.1-0.1-0.7-0.6-1.3-2.1c-0.3-0.7-0.4-1.7-0.2-2.8c0.1-1.1,0.7-2.3,1.6-3.3c1-1,2.3-1.9,3.9-2.3c1.6-0.4,3.4-0.4,5.2,0.1
		c3.6,1,7.2,3.4,9.8,6.9c1.3,1.7,2.2,3.6,2.9,5.6c0.7,1.9,1.4,4,3,5.3c0.8,0.6,1.8,1,2.7,1.1s1.8,0,2.7-0.1c1.7-0.3,3.2-0.8,4.6-1.1
		c1.4-0.3,2.7-0.3,3.7,0.1s1.8,1.1,2.2,1.8s0.5,1.3,0.5,1.7C562.9,181.1,562.8,181.3,562.8,181.3L562.8,181.3z"/>
	<path class="st10" d="M452.2,289c0,0-7.6-11.9-8.9-12.9s-13.1-5.1-14.1-4.8c-1,0.3-15.2,3-13.5,4.7s11.6-0.3,11.6-0.3l1.3,0.6
		c0,0-8.6,1.5-10.3,2.6c-1.6,1-1,3,0.5,2.8c1.6-0.2,9-1.8,9.4-1.5s-8.1,2.1-9,2.7c-1.2,0.8-1.3,3,0.2,2.8c0.9-0.1,8.9-2.3,8.9-2.3
		s-6.4,2.6-6.9,3.1c-0.9,0.9-0.2,2.3,1.2,2c0.9-0.2,5.4-2.5,6.7-2.8c0,0,1.2,0.3,2.3,2.7c0.5,1.1,2.9,8.1,7.1,7.9
		c3.7-0.1,7.4,2.9,7.4,2.9L452.2,289L452.2,289z"/>
	<path class="st11" d="M415.6,276c0,0.1,0.9,0.5,2.6,0.7c0.8,0.1,1.8,0.2,2.9,0.1s2.3-0.3,3.5-0.5c0.9-0.2,1.8-0.3,2.6-0.4H427
		c3.5,1.2,6.1,2,6.2,1.8c0.1-0.1-2.5-1.2-6-2.4H427c-0.8,0.1-1.7,0.3-2.6,0.4c-1.2,0.2-2.4,0.4-3.5,0.6c-1.1,0.1-2,0.1-2.8,0.1
		C416.6,276.1,415.6,275.9,415.6,276L415.6,276z"/>
	<path class="st8" d="M520.6,246c0,0-8.1,4.9-11,10.9c-3,6-18.5,46.5-18.5,46.5l-38.9-19.3l-9.8,16.7l36.7,29.2
		c4.9,3,10.7,4.2,16.3,3.3c8.8-1.3,13.1-1.5,16.1-9.9l9.8-27l-2.1-49.5"/>
	<path class="st3" d="M509.7,269.7c-9,13-10.5,19.1-11.4,34.9c-0.3,5.2,0,10.9,3.1,15.1c1.1,1.5,3.4,2.8,4.8,1.6
		c1.4-1.2,0.4-3.4-0.1-5.2c-2.8-10.6-3.8-18.8-1.8-28.1c2-9.3,1.5-9.2,5.3-17.9"/>
	<path class="st7" d="M495.8,319.7c-0.2,0-0.1-3.9-1.5-8.4c-1.3-4.5-3.5-7.7-3.4-7.8c0.1,0,0.7,0.7,1.5,2.1c0.8,1.3,1.7,3.3,2.4,5.6
		s1,4.5,1.1,6S495.9,319.7,495.8,319.7L495.8,319.7z"/>
	<path class="st8" d="M508.7,366.7l-5.7,97.8h93.2c0,0-2.8-49-6.2-69.9c-3.6-37-15.2-42.5-23.3-60.3l4.6-86.6l-19.7-9.1l-0.8-4.5
		l-30.6,3.7l-0.9,9.2c0,0-2.8,8.1-4.4,12.3c-4.9,13-11.7,28.6-10.7,40c0.5,5.2,7.5,39.5,7.5,39.5l-2.7,27.8
		C508.8,366.6,508.7,366.7,508.7,366.7L508.7,366.7z"/>
	<path class="st7" d="M516,254.6c0,0-0.1,0.3-0.2,0.8c-0.2,0.5-0.5,1.2-0.8,2.1c-0.7,1.8-1.8,4.5-3.1,7.7c-1.3,3.3-2.9,7.1-4.3,11.5
		s-2.6,9.4-3.3,14.7c-0.7,5.3-0.7,10.4,0.2,15c0.8,4.6,2,8.6,2.8,12s1.3,6.2,1.6,8.2c0.1,0.9,0.2,1.7,0.3,2.2
		c0.1,0.5,0.1,0.8,0.1,0.8s-0.1-0.3-0.2-0.8c-0.1-0.6-0.2-1.3-0.4-2.2c-0.4-1.9-0.9-4.7-1.8-8.1c-0.8-3.4-2.1-7.4-2.9-12
		c-0.9-4.6-1-9.8-0.2-15.1c0.7-5.3,1.9-10.3,3.4-14.8c1.5-4.4,3.1-8.3,4.5-11.5c1.4-3.2,2.5-5.8,3.3-7.7c0.4-0.9,0.7-1.6,0.9-2.1
		C515.8,254.8,516,254.5,516,254.6L516,254.6z"/>
	<path class="st3" d="M512.2,344.5c-1,4.8,2.9,9.5,7.5,11.2s9.7,1.2,14.5,0.6c11.3-1.3,22.6-2.7,33.8-4c1.8-0.2,3.9-0.6,4.6-2.2
		c0.4-0.9,0.3-1.9,0-2.9c-0.8-2.8-3.1-5-5.7-6.3c-2.6-1.3-5.5-1.8-8.4-2.1c-11.6-1.2-23.3,0.9-34.9,3"/>
	<path class="st10" d="M485.8,327.3l8.6,0.8l3.8,1.9c0,0-0.9-1-1.7-2c-0.8-1-3.8-3.2-3.8-3.2l-6.4-0.7c0,0-3.6-0.3-3.8-2.8l4.9-0.5
		c0,0-5.1-0.4-5-2.9l3.7-0.7c0,0-1.3,0-1.2-1.4l10.2-1.1l9.8,6.9l9.4,8.4l2.1,0.1l0.7,13.6c0,0-8.4-1-10.7-2.2
		c-2.3-1.1-12.4-10.3-12.4-10.3s-5.3-0.5-6.8-1.7C485.9,328.5,485.8,327.3,485.8,327.3L485.8,327.3z"/>
	<path class="st11" d="M519.3,344.2h-0.5c-0.4,0-0.9-0.1-1.5-0.2c-1.3-0.2-3.3-0.4-5.8-0.8c-1.3-0.2-2.6-0.5-4.1-0.9
		c-0.8-0.2-1.5-0.7-2.1-1.2c-0.7-0.5-1.4-1-2.1-1.6c-2.8-2.3-5.8-4.9-9.2-7.9l0.1,0.1c-1.6-0.2-3.2-0.4-4.8-0.8
		c-0.4-0.1-0.8-0.2-1.2-0.4l-0.6-0.3l-0.3-0.2l-0.2-0.2c-0.3-0.3-0.6-0.7-0.9-1c-0.2-0.4-0.4-0.8-0.5-1.3v-0.3h0.3
		c2.7,0.2,5.6,0.5,8.6,0.8c1.2,0.6,2.5,1.2,3.8,1.9l-0.3,0.4c-0.4-0.5-0.8-0.9-1.2-1.4c-0.2-0.2-0.4-0.5-0.6-0.7s-0.4-0.4-0.7-0.6
		c-0.9-0.8-2-1.6-3-2.4h0.1c-1.3-0.1-2.5-0.3-3.8-0.4c-0.7-0.1-1.3-0.1-2-0.2c-0.3,0-0.7-0.1-1-0.1c-0.3-0.1-0.7-0.1-1-0.2
		c-0.6-0.2-1.2-0.5-1.7-0.9s-0.8-1.1-0.9-1.7v-0.2h0.2c1.6-0.2,3.3-0.3,4.9-0.5v0.5c-1.1-0.1-2.1-0.3-3.1-0.7
		c-0.5-0.2-1-0.5-1.4-0.9s-0.7-1-0.6-1.6v-0.2h0.2l3.9-0.6v0.5c-0.4-0.1-0.8-0.2-1.1-0.5c-0.3-0.3-0.4-0.7-0.4-1.1v-0.2h0.2
		c3.5-0.4,6.9-0.8,10.1-1.2h0.2c3.5,2.5,6.8,4.8,9.8,7c3.6,3.2,6.8,6,9.4,8.4h-0.1c3.7,0.2,6.7,0.4,8.7,0.5c1,0.1,1.8,0.1,2.3,0.1
		h0.8h-0.8c-0.5,0-1.3,0-2.3-0.1c-2-0.1-5-0.2-8.7-0.4c-2.7-2.3-5.8-5.1-9.5-8.3c-3-2.1-6.3-4.4-9.8-6.9h0.1
		c-3.2,0.4-6.6,0.8-10.1,1.2l0.2-0.2c0,0.3,0.1,0.6,0.3,0.8c0.2,0.2,0.5,0.3,0.8,0.4l1.7,0.2l-1.7,0.2l-3.9,0.6l0.2-0.2
		c0,0.4,0.2,0.9,0.5,1.2c0.3,0.3,0.8,0.6,1.2,0.8c0.9,0.4,2,0.6,3,0.7v0.5c-1.6,0.2-3.2,0.3-4.9,0.5l0.2-0.3c0,0.6,0.3,1.1,0.7,1.4
		c0.4,0.4,1,0.6,1.5,0.8c0.3,0.1,0.6,0.2,0.9,0.2c0.3,0.1,0.6,0.1,1,0.1c0.7,0.1,1.3,0.1,2,0.2c1.3,0.1,2.6,0.3,3.8,0.4h0.2
		c1.1,0.8,2.1,1.5,3,2.4c0.2,0.2,0.5,0.4,0.7,0.7c0.2,0.2,0.4,0.5,0.6,0.7c0.4,0.5,0.8,0.9,1.2,1.4l0.8,0.9l-1-0.5
		c-1.3-0.7-2.6-1.3-3.8-1.9h0.1c-3-0.3-5.9-0.5-8.6-0.8l0.2-0.2c0,0.4,0.2,0.8,0.4,1.1c0.2,0.4,0.5,0.7,0.8,1
		c0.6,0.6,1.4,0.8,2.2,1.1c1.6,0.4,3.2,0.7,4.7,0.8h0.1c3.3,3,6.3,5.6,9.1,7.9c0.7,0.6,1.4,1.1,2,1.6c0.7,0.5,1.3,1,2,1.2
		c1.5,0.5,2.8,0.7,4.1,1c2.5,0.5,4.5,0.7,5.8,0.9c0.7,0.1,1.2,0.2,1.5,0.2c0.2,0,0.3,0,0.4,0.1L519.3,344.2L519.3,344.2z"/>
	<path class="st11" d="M499.8,325.2c0,0.1-0.7-0.4-1.8-1.1c-1-0.7-2.5-1.7-4-2.9c-0.1-0.1-0.3-0.2-0.4-0.3h0.2
		c-1.8,0.1-3.4,0.1-4.6,0.1s-1.9,0-1.9-0.1s0.7-0.2,1.9-0.2c1.2-0.1,2.8-0.2,4.6-0.3h0.1l0.1,0.1c0.1,0.1,0.3,0.2,0.4,0.3
		c1.6,1.2,2.9,2.2,3.9,3S499.8,325.1,499.8,325.2L499.8,325.2z M498.7,320.6c0,0.1-0.6-0.3-1.6-1s-2.3-1.6-3.7-2.7h0.2
		c-0.2,0-0.4,0-0.6,0.1c-1.9,0.2-3.7,0.4-5,0.4c-1.3,0.1-2.1,0.1-2.1,0s0.8-0.2,2-0.4s3-0.4,5-0.6c0.2,0,0.4,0,0.6-0.1h0.1l0.1,0.1
		c1.5,1.1,2.7,2.1,3.6,2.8C498.2,320.1,498.8,320.6,498.7,320.6L498.7,320.6z"/>
	<path class="st8" d="M587.9,335.8c3.2-4.9,4.5-10.7,3.7-16.5l-7.4-43.8c-0.8-7.3-1.9-17.3-7-22.7c-3.5-3.7-7.7-6.9-11.9-6.8
		l-8.9,25.4l3.4,49l-45.4,8.1v19.9c0,0,34.7-1.1,53.9-1.7C576.2,346.5,583.5,342.4,587.9,335.8L587.9,335.8z"/>
	<path class="st7" d="M587.9,335.8c0,0-0.1,0.1-0.2,0.3c-0.2,0.2-0.4,0.5-0.6,0.9c-0.6,0.8-1.5,2-2.9,3.3s-3.3,2.8-5.7,4
		c-2.5,1.2-5.5,2.2-9,2.5c-13.9,0.5-33.2,1.1-55,1.8h-0.3v-20.4h0.2c16.9-3,32.5-5.8,45.4-8.1l-0.2,0.2c-1.2-11.3-2.2-20.6-2.9-27.2
		c-0.3-3.2-0.6-5.8-0.8-7.5c-0.1-0.8-0.1-1.5-0.2-2v-0.7c0,0,0,0.2,0.1,0.7s0.1,1.1,0.2,2c0.2,1.8,0.5,4.3,0.9,7.5
		c0.7,6.5,1.8,15.8,3,27.1v0.2h-0.2c-12.8,2.3-28.4,5.1-45.4,8.2l0.2-0.3v19.9l-0.3-0.3c21.9-0.7,41.2-1.2,55-1.7
		c3.4-0.2,6.4-1.2,8.9-2.4c2.4-1.2,4.3-2.6,5.7-3.9s2.3-2.4,3-3.2c0.3-0.4,0.5-0.7,0.7-0.9C587.8,335.9,587.9,335.8,587.9,335.8
		L587.9,335.8z M570.3,247.7c0,0.1-1.5,0.7-3.8,2.1c-1.1,0.7-2.4,1.7-3.7,2.9s-2.6,2.7-3.8,4.3c-1.2,1.7-2.1,3.4-2.8,5
		s-1.1,3.2-1.4,4.5c-0.6,2.6-0.6,4.3-0.7,4.3v-1.2c0-0.4,0-0.8,0.1-1.4c0.1-0.5,0.1-1.1,0.3-1.8c0.2-1.3,0.7-2.9,1.3-4.6
		c0.7-1.7,1.6-3.4,2.8-5.1c1.2-1.7,2.5-3.2,3.9-4.4c1.3-1.2,2.7-2.2,3.8-2.8c0.6-0.4,1.1-0.6,1.6-0.9c0.5-0.3,0.9-0.4,1.3-0.6
		C569.9,247.8,570.3,247.6,570.3,247.7L570.3,247.7z M551.7,238.4c0,0-0.3,0.4-1.1,0.8s-1.9,0.8-3.4,1.4c-2.9,1.1-6.6,3-10.9,4.9
		c-4.3,1.9-8.5,2.9-11.6,3c-1.5,0.1-2.8-0.1-3.6-0.2c-0.4-0.1-0.7-0.1-1-0.2c-0.2-0.1-0.3-0.1-0.3-0.1c0-0.1,1.9,0.4,4.9,0.1
		c3-0.2,7.1-1.3,11.4-3.1c4.3-1.9,8.1-3.7,11-4.7c1.5-0.5,2.6-0.8,3.4-1.2C551.3,238.6,551.7,238.4,551.7,238.4L551.7,238.4z"/>
	<path class="st8" d="M442.4,314.1l-4.5-35.3l-30.7,1.5l2.1,35.4L442.4,314.1z"/>
	<path class="st10" d="M446.6,287.7c-0.9,0.8-2.3,0.6-3.3,0.1s-1.8-1.5-2.8-2.2c-2.9-2-7.1-1.4-9.9-3.6c-0.4-0.3-0.8-0.8-0.6-1.2
		c0.2-0.4,0.7-0.5,1.2-0.5c3.9,0,7.8,0.1,11.7,0.1"/>
	<path class="st11" d="M443,280.4c0,0-0.5-0.1-1.3-0.1s-2-0.1-3.5-0.1s-3.2-0.1-5.1-0.1h-1.5c-0.5,0-1.1-0.1-1.7,0.4
		c-0.3,0.3-0.3,0.8-0.2,1.1c0.1,0.3,0.4,0.6,0.6,0.7l1.5,0.9c2.1,0.9,4.3,1.1,6.1,1.6c0.9,0.3,1.7,0.6,2.4,1.1
		c0.7,0.5,1.3,1,1.9,1.5c1.1,1,2.5,1.3,3.3,1.1c0.9-0.2,1.1-0.7,1.1-0.7c0-0.1-0.4,0.3-1.1,0.4c-0.8,0.1-1.9-0.2-3-1.2
		c-0.5-0.5-1.1-1-1.8-1.6c-0.7-0.5-1.6-0.9-2.6-1.2c-1.9-0.6-4-0.8-6-1.7c-0.5-0.2-0.9-0.5-1.3-0.8s-0.6-0.7-0.4-0.9
		c0.2-0.2,0.7-0.2,1.2-0.2h6.6c1.5,0,2.6,0,3.5-0.1C442.5,280.4,443,280.4,443,280.4L443,280.4z"/>
	<path class="st6" d="M433.9,290.7c0,0-0.3,0.2-0.9,0.4c-0.6,0.2-1.4,0.6-2.5,0.9s-2.4,0.6-3.9,0.4c-0.8-0.1-1.5-0.2-2.3-0.6
		c-0.8-0.3-1.5-0.9-2.1-1.4c-0.3-0.2-0.7-0.4-1-0.4s-0.7,0.1-0.9,0.4c-0.6,0.5-0.9,1.2-1.3,1.8c-0.4,0.6-1.1,1.2-1.8,1.2
		s-1.4-0.3-1.8-0.7c-0.9-0.8-1.1-1.8-1.3-2.4c-0.2-0.6-0.2-1-0.2-1s0.1,0.3,0.4,0.9c0.2,0.6,0.5,1.5,1.3,2.1c0.4,0.3,1,0.6,1.6,0.5
		c0.6,0,1.1-0.5,1.5-1.1s0.7-1.4,1.4-1.9c0.3-0.3,0.8-0.5,1.3-0.5s0.9,0.2,1.3,0.5c0.7,0.5,1.3,1.1,2,1.4s1.4,0.5,2.2,0.6
		c1.4,0.2,2.7-0.1,3.8-0.3C432.6,291.1,433.9,290.6,433.9,290.7L433.9,290.7z M435.4,295.9c0,0.1-4.6,0.5-10.4,0.7
		c-5.7,0.3-10.4,0.3-10.4,0.2c0-0.1,4.6-0.5,10.4-0.7C430.7,295.9,435.4,295.8,435.4,295.9z M433.2,301c0,0.1-0.9,0.3-2.3,0.6
		c-1.5,0.3-3.5,0.7-5.7,1s-4.3,0.6-5.8,0.7s-2.4,0.2-2.4,0.1s0.9-0.2,2.4-0.5c1.7-0.3,3.6-0.6,5.7-0.9s4.1-0.6,5.7-0.9
		C432.3,301.1,433.2,301,433.2,301L433.2,301z"/>
	<path class="st0" d="M555.1,291.1l-0.4,0.4c-0.3,0.3-0.8,0.6-1.3,1c-1.1,0.9-2.8,2.1-4.9,3.5c-2.2,1.4-4.9,2.9-8.2,3.8
		s-7.2,1.1-10.9-0.4s-6.5-4-9.3-5.9c-2.7-2-5.4-3.3-7.9-3.8s-4.6-0.2-5.9,0.3s-1.9,1.1-1.9,1c0,0,0.5-0.6,1.9-1.2
		c1.3-0.6,3.5-1,6-0.5c2.5,0.5,5.4,1.8,8.1,3.8c2.8,1.9,5.6,4.4,9.2,5.8c3.6,1.5,7.4,1.2,10.6,0.4c3.2-0.8,5.9-2.3,8.1-3.6
		c2.2-1.3,3.8-2.6,5-3.4c0.5-0.4,1-0.7,1.3-0.9C555,291.2,555.1,291.1,555.1,291.1L555.1,291.1z M583.6,271.3c0,0.1-1.5-0.4-4-0.7
		c-1.3-0.2-2.8-0.3-4.4-0.4c-1.7,0-3.5,0.1-5.4,0.3c-1.9,0.3-3.7,0.7-5.3,1.2s-3,1.1-4.1,1.6c-2.3,1.1-3.6,1.9-3.7,1.8
		c0,0,0.3-0.3,0.9-0.7c0.6-0.4,1.5-0.9,2.6-1.5s2.5-1.2,4.2-1.7c1.6-0.5,3.4-1,5.4-1.3c1.9-0.3,3.8-0.3,5.5-0.3
		c1.7,0.1,3.2,0.2,4.5,0.5c1.3,0.2,2.3,0.5,2.9,0.7C583.3,271.1,583.7,271.3,583.6,271.3L583.6,271.3z M589.3,307.6
		c0,0.1-1.9-0.4-4.6,0.5c-1.4,0.4-2.9,1.2-4.6,2.2c-1.7,0.9-3.6,2-5.9,2.5c-4.5,1-8.7-0.2-11.3-1.6c-1.3-0.7-2.3-1.5-2.9-2l-0.9-0.9
		c0.1-0.1,1.3,1.3,3.9,2.6c2.6,1.3,6.7,2.3,11,1.4c2.2-0.5,4-1.5,5.8-2.4c1.7-0.9,3.3-1.7,4.7-2.1s2.7-0.5,3.5-0.4
		C588.8,307.4,589.3,307.6,589.3,307.6L589.3,307.6z M548.3,347.4c-0.1,0,0.6-1.3,1.2-3.5s1-5.4,0.4-8.8s-2-6.3-3.3-8.2
		c-1.3-1.9-2.3-2.9-2.2-3c0,0,0.3,0.2,0.8,0.7s1.1,1.2,1.8,2.1c1.4,1.9,2.9,4.8,3.5,8.3s0.1,6.8-0.6,9c-0.3,1.1-0.7,2-1,2.6
		C548.5,347.1,548.3,347.4,548.3,347.4L548.3,347.4z M509.9,266.5c-0.1,0.1-0.6-0.8-1.6-1.3c-1-0.6-1.9-0.5-2-0.7
		c-0.1-0.1,1.1-0.5,2.2,0.2C509.8,265.4,510.1,266.5,509.9,266.5z M563.2,245.1c0,0.1-0.8-0.1-2.1,0s-3.2,0.7-5.3,2
		c-1,0.6-2.1,1.5-3.1,2.4c-1,1-2.1,2.1-3.1,3.3c-2.2,2.3-4.5,5.1-8,6.8c-3.4,1.7-7.1,2-10.3,1.8s-6.1-0.9-8.4-1.7
		c-2.3-0.7-4.1-1.4-5.4-1.9c-0.6-0.2-1.1-0.4-1.4-0.6c-0.3-0.1-0.5-0.2-0.5-0.2s0.2,0,0.5,0.1c0.4,0.1,0.9,0.3,1.5,0.5
		c1.3,0.4,3.1,1.1,5.4,1.8c2.3,0.7,5.1,1.4,8.3,1.5c3.2,0.2,6.7-0.2,10-1.8s5.7-4.3,7.8-6.6c1.1-1.2,2.1-2.3,3.2-3.3
		s2.1-1.8,3.2-2.4c2.1-1.3,4.1-1.8,5.4-1.8c0.7,0,1.2,0,1.6,0.1C563,245,563.2,245.1,563.2,245.1L563.2,245.1z M549.9,235.9
		c0,0-0.4,0.2-1.1,0.5c-0.7,0.3-1.8,0.7-3.1,1.2c-2.6,1-6.3,2.1-10.4,3c-4.2,0.9-8,1.3-10.7,1.5c-1.4,0.1-2.5,0.1-3.3,0.1
		s-1.2,0-1.2-0.1c0,0,0.4-0.1,1.2-0.1c0.8-0.1,1.9-0.1,3.3-0.3c2.8-0.3,6.5-0.8,10.7-1.6c4.1-0.9,7.8-2,10.4-2.8
		c1.3-0.4,2.4-0.8,3.1-1.1C549.5,236,549.9,235.9,549.9,235.9L549.9,235.9z M468.9,321.7c0,0-0.1-0.1-0.1-0.3
		c-0.1-0.2-0.1-0.5-0.2-0.8c-0.1-0.7-0.2-1.8,0.1-3.1c0.2-1.3,0.8-2.8,1.6-4.3c0.8-1.6,1.8-3.1,2.8-4.8c1-1.7,1.8-3.4,2.2-5.1
		c0.4-1.6,0.3-3.2,0.1-4.4c-0.5-2.5-1.6-3.8-1.5-3.9c0,0,0.3,0.3,0.7,0.9c0.4,0.6,0.9,1.6,1.2,2.9c0.3,1.3,0.4,2.9,0,4.6
		s-1.2,3.5-2.2,5.2s-2.1,3.3-2.8,4.8c-0.8,1.5-1.4,2.9-1.7,4.2C468.5,320.1,469,321.7,468.9,321.7L468.9,321.7z M581.8,360
		c0,0-0.2-0.1-0.7-0.4c-0.4-0.3-1.1-0.6-2-1c-1.7-0.8-4.4-1.6-7.8-1.7c-3.4-0.2-7.5,0.3-11.8,1.5c-4.4,1.2-9,3.1-13.9,4.8
		c-4.9,1.7-9.9,2.9-14.4,3c-4.6,0.1-8.6-0.8-11.9-1.9c-3.3-1.2-5.7-2.5-7.3-3.6c-0.8-0.5-1.4-1-1.8-1.3s-0.6-0.5-0.6-0.5
		s0.9,0.6,2.5,1.6s4.1,2.3,7.3,3.4s7.3,1.9,11.8,1.8s9.4-1.3,14.3-3s9.6-3.6,14-4.8c4.4-1.2,8.5-1.6,12-1.4c3.4,0.2,6.2,1.1,7.9,1.9
		c0.9,0.4,1.5,0.8,1.9,1.1C581.6,359.9,581.8,360,581.8,360z M588.8,396.8c0,0-0.9,0.9-2.7,2c-1.9,1.1-4.9,2.3-8.8,2.8
		c-1.9,0.2-4.1,0.3-6.4,0.1c-2.3-0.2-4.7-0.7-7.2-1.3c-5-1.3-10.2-3.5-15.8-5.4s-11.1-3.3-16.2-3.3c-2.5,0-5,0.3-7.1,1
		c-2.2,0.6-4.2,1.3-6.1,1.7c-3.8,1-7.2,0.3-9.1-0.8c-1-0.5-1.6-1.2-1.9-1.6c-0.4-0.4-0.5-0.7-0.5-0.7s0.2,0.2,0.6,0.7
		c0.4,0.4,1,1,2,1.5c1.9,1,5.1,1.6,8.9,0.6c1.9-0.4,3.9-1.2,6.1-1.8c2.2-0.6,4.7-1,7.3-1c5.2-0.1,10.8,1.3,16.4,3.3
		c5.6,2,10.8,4.1,15.8,5.4c2.5,0.7,4.9,1.1,7.1,1.3c2.3,0.2,4.4,0.2,6.3,0c3.8-0.4,6.8-1.5,8.7-2.6c0.5-0.2,0.9-0.5,1.2-0.7
		c0.4-0.2,0.6-0.4,0.9-0.6C588.6,396.9,588.8,396.8,588.8,396.8z M593.4,426.2c0,0-0.1,0-0.2-0.1c-0.2-0.1-0.4-0.2-0.6-0.4
		c-0.5-0.3-1.3-0.8-2.4-1.3c-2.1-1-5.3-2.1-9.5-2.5s-9.2-0.1-14.6,1s-11.2,2.9-17.5,4.4c-3.1,0.7-6.2,1.3-9.2,1.7
		c-3,0.3-5.9,0.4-8.7,0.3c-5.6-0.2-10.5-1.1-14.6-2.2s-7.2-2.4-9.3-3.4c-1.1-0.5-1.9-0.9-2.4-1.2c-0.2-0.1-0.5-0.2-0.6-0.3
		c-0.1-0.1-0.2-0.1-0.2-0.1s0.1,0,0.2,0.1l0.6,0.3c0.6,0.3,1.4,0.7,2.5,1.1c2.1,0.9,5.3,2.2,9.3,3.2c4,1.1,9,1.9,14.5,2.1
		c2.8,0.1,5.7,0,8.6-0.4c3-0.3,6-0.9,9.1-1.7c6.2-1.5,12-3.3,17.5-4.4s10.5-1.3,14.7-0.9c4.2,0.5,7.5,1.6,9.6,2.7
		C592.4,425.4,593.4,426.2,593.4,426.2L593.4,426.2z M541.1,323.3c0,0.1-1.7-0.8-4.7-1.9c-1.5-0.5-3.2-1-5.3-1.4
		c-2-0.4-4.3-0.6-6.6-0.6c-2.4,0-4.6,0.2-6.6,0.6s-3.8,0.8-5.3,1.3c-2.9,1-4.6,1.9-4.7,1.8c0,0,0.4-0.3,1.2-0.7
		c0.4-0.2,0.9-0.5,1.4-0.7c0.6-0.2,1.2-0.6,2-0.8c1.5-0.6,3.3-1.1,5.3-1.5s4.3-0.6,6.7-0.6s4.7,0.3,6.7,0.7c2,0.4,3.8,0.9,5.3,1.5
		c0.7,0.2,1.4,0.6,1.9,0.8c0.6,0.2,1,0.5,1.4,0.7C540.7,323,541.1,323.3,541.1,323.3L541.1,323.3z M593.7,457.3c0,0-0.1,0-0.2-0.1
		l-0.6-0.3c-0.3-0.2-0.6-0.3-1-0.5s-0.8-0.4-1.4-0.6c-2.1-0.9-5.2-2-9.3-2.5c-4-0.5-8.9-0.4-14.3,0.3s-11.2,1.9-17.4,2.6
		c-12.5,1.5-23.9,0.4-31.9-1.3c-4-0.8-7.2-1.7-9.4-2.4c-1.1-0.3-1.9-0.6-2.5-0.8c-0.3-0.1-0.5-0.2-0.6-0.2c-0.1-0.1-0.2-0.1-0.2-0.1
		h0.2c0.2,0,0.4,0.1,0.7,0.2c0.6,0.2,1.4,0.4,2.5,0.7c2.2,0.6,5.4,1.4,9.4,2.2c8,1.5,19.4,2.6,31.7,1.1c6.2-0.7,12-1.9,17.4-2.6
		s10.3-0.8,14.4-0.2c4.1,0.5,7.3,1.6,9.3,2.6c0.5,0.2,1,0.5,1.4,0.7s0.7,0.4,1,0.6c0.2,0.1,0.4,0.3,0.6,0.4
		C593.6,457.3,593.7,457.3,593.7,457.3L593.7,457.3z"/>
</g>
<g id="Character_1">
	<path class="st7" d="M196.7,464.5l2-91.4l-71-5.9c0,0-3.8,36.6-3.7,41.5c0,2.3,10.7,25.1,10.7,25.1l-0.1,30.7L196.7,464.5
		L196.7,464.5z"/>
	<path class="st9" d="M172.6,384c0,0-0.2,0.5-0.6,1.3c-0.4,0.8-1,2-1.9,3.5c-1.7,2.8-4.3,6.8-8.2,10.1c-3.9,3.3-8.4,5-11.8,5.4
		c-1.7,0.2-3,0.2-4,0.1c-0.5,0-0.8-0.1-1.1-0.2c-0.2,0-0.4-0.1-0.4-0.1c0-0.1,2.1,0.3,5.3-0.2c3.3-0.5,7.6-2.2,11.5-5.4
		c3.9-3.3,6.5-7.1,8.3-9.9c0.9-1.4,1.6-2.6,2-3.4C172.3,384.4,172.5,384,172.6,384L172.6,384z"/>
	<path class="st12" d="M146.1,233.1l32,8.3l1.1-27.9c0,0,13.5-1.5,14.3-14.9c0.7-13.4-0.3-44.4-0.3-44.4
		c-15.3-7.3-33.3-5.9-47.2,3.9l-2.1,1.4L146.1,233.1z"/>
	<path class="st13" d="M179.3,213.3c0,0-8.5,0.3-17.3-5.7c0,0,3.7,9.8,17.2,9.2L179.3,213.3z"/>
	<path class="st12" d="M145.1,173.5c-0.2-0.1-9.1-3.1-9.2,6.1c-0.1,9.2,9.2,7.4,9.2,7.1C145,186.5,145.1,173.5,145.1,173.5
		L145.1,173.5z"/>
	<path class="st13" d="M142.3,183.2l-0.4,0.2c-0.3,0.1-0.7,0.2-1.2,0c-1-0.4-1.8-1.9-1.8-3.6c0-0.8,0.2-1.6,0.5-2.3s0.7-1.1,1.2-1.2
		c0.5-0.1,0.8,0.2,0.9,0.4c0.1,0.3,0.1,0.4,0.1,0.5c0,0,0.2-0.2,0.1-0.5c0-0.2-0.1-0.4-0.4-0.6c-0.2-0.2-0.5-0.3-0.9-0.2
		c-0.7,0-1.4,0.7-1.7,1.4c-0.4,0.7-0.6,1.6-0.6,2.6c0,1.9,1,3.6,2.3,4c0.6,0.2,1.2,0,1.5-0.2C142.2,183.4,142.3,183.2,142.3,183.2
		L142.3,183.2z"/>
	<path class="st7" d="M189.4,174.9c0,1-0.9,1.8-1.9,1.9c-1.1,0-1.9-0.8-1.9-1.8s0.9-1.8,1.9-1.9S189.4,173.9,189.4,174.9z
		 M189.9,173c-0.2,0.2-1.7-0.9-3.7-1c-2.1-0.1-3.6,0.9-3.8,0.6c-0.1-0.1,0.2-0.6,0.8-1c0.7-0.5,1.8-0.9,3.1-0.8
		c1.3,0.1,2.3,0.6,2.9,1.1C189.8,172.4,190,172.9,189.9,173L189.9,173z M169.1,174.7c0,1-0.9,1.8-1.9,1.9c-1.1,0-1.9-0.8-1.9-1.8
		s0.9-1.8,1.9-1.9C168.3,172.9,169.1,173.7,169.1,174.7z M169.6,172.5c-0.2,0.2-1.7-0.9-3.7-1c-2.1-0.1-3.6,0.9-3.8,0.6
		c-0.1-0.1,0.2-0.6,0.8-1c0.7-0.5,1.8-0.9,3.1-0.8c1.3,0.1,2.3,0.6,2.9,1.1C169.5,171.9,169.7,172.4,169.6,172.5L169.6,172.5z
		 M176.4,188.1c0-0.1,1.3-0.3,3.4-0.5c0.5,0,1-0.1,1.1-0.5s-0.1-1-0.3-1.6c-0.4-1.3-0.9-2.7-1.4-4.1c-1.9-5.8-3.3-10.6-3.1-10.7
		c0.2-0.1,2,4.6,3.9,10.4c0.5,1.4,0.9,2.8,1.3,4.1c0.2,0.6,0.5,1.3,0.2,2.1c-0.2,0.4-0.6,0.7-0.9,0.7c-0.3,0.1-0.6,0.1-0.9,0.1
		C177.7,188.3,176.4,188.2,176.4,188.1z M170.5,164.4c-0.2,0.6-2.3,0.2-4.7,0.4c-2.4,0.1-4.4,0.8-4.7,0.2c-0.1-0.2,0.2-0.8,1-1.3
		s2.1-1,3.5-1.1c1.5-0.1,2.8,0.2,3.7,0.6C170.1,163.7,170.6,164.2,170.5,164.4L170.5,164.4z M189.4,167c-0.4,0.5-1.8-0.1-3.5-0.2
		c-1.7-0.2-3.2,0.2-3.5-0.3c-0.1-0.2,0.1-0.7,0.8-1.1c0.6-0.4,1.7-0.7,2.9-0.6c1.2,0.1,2.2,0.6,2.7,1.1
		C189.4,166.3,189.6,166.7,189.4,167z"/>
	<path class="st7" d="M200.2,146c0.2-1.7-0.3-3.5-1.6-4.5s-3.4-1.1-4.6,0.1c0.7-2.2-1-4.9-3.3-5.1c-2.2-0.2-4.1,1.3-6.3,1.8
		c-2.1,0.5-4.3-0.1-6.2-1c-2-0.9-3.8-2.1-5.7-2.9c-4.1-1.7-8.9-1.7-13.1,0c-4.1,1.7-7.6,5.1-9.3,9.2c-2.9-1-6.3,0.3-8.2,2.7
		s-2.5,5.7-2.3,8.7c0.2,2.1,0.7,4.1,1.3,6.1v0.5c-0.2,7.4,0.3,16.1,3.4,16.3c5.5,0.3,4.6-10.1,4.6-10.1c6.9-2.3,4.8-12.5,6.5-14
		c1.8-1.5,5.4-4.9,19.2,2.9c5.4,3,12.7,3.3,16.7,2.5c0.1,0,0.2,0,0.4-0.1h0.2c1.3-0.3,2.5-0.7,3.7-1.4c1.3-0.8,2.5-1.8,3.1-3.2
		s0.5-3.2-0.6-4.2C199.1,149.1,199.9,147.6,200.2,146L200.2,146z"/>
	<path class="st13" d="M177.5,194.5c-0.4,0.8-0.7,1.6-1.3,2.3s-1.4,1.2-2.3,1.2c-0.9,0-1.8-0.6-2.3-1.4c-0.5-0.8-0.6-1.8-0.5-2.7
		c0.1-0.8,0.5-1.8,1.4-1.9c0.4,0,0.7,0.1,1,0.3c1.5,0.7,2.9,1.3,4.4,2"/>
	<path class="st7" d="M175.6,198.1c0-0.1-1,0.2-2.4-0.4c-0.7-0.3-1.4-0.9-1.7-1.7c-0.4-0.8-0.4-1.9,0.1-2.9c0.1-0.2,0.3-0.5,0.4-0.6
		c0.2-0.2,0.2-0.2,0.3-0.1c0.2,0.1,0.5,0.2,0.7,0.3s0.5,0.2,0.7,0.3c0.9,0.4,1.8,0.8,2.5,1.1c1.4,0.6,2.3,0.9,2.4,0.8
		c0-0.1-0.8-0.6-2.1-1.3c-0.7-0.4-1.5-0.8-2.4-1.3c-0.2-0.1-0.5-0.2-0.7-0.4c-0.3-0.1-0.4-0.2-0.8-0.4c-0.2-0.1-0.4-0.1-0.7,0
		c-0.2,0.1-0.4,0.2-0.5,0.4c-0.2,0.3-0.4,0.5-0.5,0.8c-0.6,1.2-0.5,2.5,0,3.6c0.5,1,1.4,1.6,2.2,1.9c0.8,0.3,1.5,0.3,1.9,0.2
		S175.6,198.2,175.6,198.1L175.6,198.1z"/>
	<path class="st9" d="M154.5,152.6c0.1,0-0.1-0.6,0.1-1.6s0.8-2.5,2.3-3.7c1.4-1.2,3.7-1.9,6.1-1.7c2.5,0.1,5.1,1.1,7.8,2.1
		c1.4,0.5,2.7,1,4,1.4c1.3,0.3,2.6,0.6,3.9,0.6c2.5,0.2,4.8-0.1,6.7-0.6c1.8-0.5,3.3-1.1,4.2-1.6c0.5-0.2,0.8-0.4,1.1-0.6l0.4-0.2
		c0,0-0.5,0.3-1.5,0.7s-2.4,1-4.2,1.4s-4.1,0.7-6.6,0.5c-1.2-0.1-2.5-0.3-3.8-0.7s-2.6-0.8-4-1.4c-2.7-1-5.4-2-7.9-2.1
		c-2.5-0.2-4.9,0.6-6.3,1.9c-1.5,1.3-2.1,2.8-2.2,3.9C154.3,152,154.5,152.6,154.5,152.6L154.5,152.6z M143.1,174.8
		c0,0,0.1-0.1,0.2-0.3c0.1-0.2,0.3-0.5,0.5-0.8c0.4-0.7,0.8-1.9,1.2-3.3c0.4-1.4,0.6-3.2,0.6-5.2s-0.6-4.1-0.9-6.3
		c-0.4-2.2-0.4-4.4,0.3-6.2c0.3-0.9,0.8-1.7,1.4-2.3c0.6-0.6,1.3-1,2-1.2c1.4-0.4,2.6-0.2,3.3,0.2s1,0.8,1,0.8s-0.2-0.4-0.9-0.9
		c-0.7-0.4-2-0.8-3.5-0.4c-0.7,0.2-1.5,0.6-2.1,1.2c-0.6,0.6-1.2,1.5-1.5,2.4c-0.7,1.9-0.7,4.1-0.3,6.4c0.4,2.2,0.9,4.3,1,6.2
		s-0.1,3.7-0.5,5.1c-0.3,1.4-0.8,2.5-1.1,3.3C143.2,174.4,143,174.8,143.1,174.8z"/>
	<path class="st9" d="M153.2,151.4v-2c0-1.3,0.1-3.3,0.9-5.6c0.4-1.1,1-2.3,1.9-3.3s2.2-1.9,3.7-2.2s3.2-0.1,4.8,0.4
		s3.2,1.4,4.7,2.4c1.6,1,3.1,1.9,4.7,2.7c1.6,0.7,3.3,1.1,4.9,1.2c1.6,0.1,3.1,0,4.5-0.4c1.4-0.3,2.6-0.8,3.7-1.3
		c2.2-1.1,3.6-2.5,4.5-3.5c0.4-0.5,0.7-0.9,0.9-1.2s0.3-0.5,0.3-0.5s-0.1,0.1-0.3,0.4c-0.2,0.3-0.5,0.7-1,1.2
		c-0.9,1-2.4,2.3-4.5,3.4c-1.1,0.5-2.3,1-3.7,1.3s-2.9,0.4-4.4,0.3c-1.6-0.1-3.2-0.5-4.7-1.2c-1.6-0.7-3.1-1.7-4.6-2.6
		c-1.6-1-3.1-1.9-4.8-2.4s-3.4-0.8-5-0.4c-1.6,0.3-2.9,1.3-3.9,2.4c-1,1.1-1.6,2.3-2,3.4c-0.8,2.3-0.8,4.3-0.7,5.6
		c0,0.7,0,1.2,0.1,1.5L153.2,151.4L153.2,151.4z"/>
	<path class="st12" d="M213.8,269.5l40.4-45.4l5.7-8c0,0,14-17.3,15.1-19.1c1.3-2.1,2.6-2,3.4-1.5c1.2,0.8,1.1,2.9,0,4.7
		c-0.4,0.6-6.6,10.5-6.6,10.5s1-0.5,3.6-1.5c2.6-0.9,6.7,0.1,10.2,2.4c3.5,2.3,4.2,3.3,3.4,4.6c-0.3,0.6-0.9,0.8-1.5,0.9
		c-1,0.2-2.5-0.3-3.3-0.8c-6.9-4.1-8.5-1.4-8.5-1.4l-0.9,1c0,0,5.1-0.3,7.2,2.4c0.3,0.4,0.6,0.9,0.7,1.4c1.5,0.9,2.5,2.7,2.4,4.5
		c0,1.8-1.1,3.6-2.7,4.5c-0.8,0.4-1.8,0.6-2.5,0c-0.3-0.3-0.5-0.8-0.6-1.2c-0.1-0.2-0.2-0.5-0.3-0.7l-2.5,2.6c0,0-6,5.6-8.3,8.4
		l-35.7,44.6c-4.6,6.7-11.7,12.3-18.3,7.6C207,284.9,207.6,275.9,213.8,269.5L213.8,269.5z"/>
	<path class="st12" d="M256.3,224.4c0.9,0.9,2.4,0.8,3.5,0.3c1.1-0.6,2-1.5,3.1-2.2c3.3-2,7.7-1.1,10.8-3.2c0.4-0.3,0.9-0.8,0.7-1.3
		c-0.2-0.5-0.8-0.5-1.3-0.6c-4.2-0.2-8.4-0.4-12.5-0.6"/>
	<path class="st13" d="M260.6,216.8c0,0,0.5-0.1,1.4-0.1s2.1,0,3.7,0.1s3.5,0.1,5.5,0.2c0.5,0,1,0,1.6,0.1c0.5,0.1,1.2-0.1,1.8,0.5
		c0.3,0.3,0.3,0.9,0.1,1.2c-0.2,0.3-0.4,0.6-0.7,0.8c-0.5,0.3-1.1,0.6-1.6,0.9c-2.3,0.9-4.7,0.9-6.6,1.4c-1,0.2-1.9,0.5-2.7,1
		c-0.8,0.4-1.4,1-2.1,1.5c-1.3,1-2.7,1.2-3.6,1s-1.2-0.8-1.1-0.8c0-0.1,0.4,0.4,1.2,0.5c0.8,0.1,2.1-0.1,3.3-1.1
		c0.6-0.5,1.2-1,2.1-1.6c0.8-0.5,1.8-0.9,2.8-1.1c2-0.5,4.4-0.6,6.5-1.4c0.5-0.2,1-0.5,1.5-0.8c0.4-0.3,0.7-0.7,0.5-0.9
		s-0.8-0.3-1.3-0.3s-1.1-0.1-1.6-0.1c-2-0.1-3.9-0.2-5.5-0.3s-2.8-0.2-3.7-0.3C261.1,216.9,260.6,216.8,260.6,216.8L260.6,216.8z
		 M274.8,216c0.1,0.1,0.5-0.9,1.8-1.5c0.7-0.3,1.6-0.4,2.5-0.2c1,0.2,1.9,0.7,2.9,1.3s2,1.2,3,1.5s1.9,0.4,2.7,0.3
		c0.8-0.2,1.3-0.7,1.5-1.1c0.2-0.4,0.2-0.7,0.1-0.7l-0.3,0.6c-0.2,0.3-0.7,0.8-1.4,0.9c-0.7,0.1-1.6,0-2.5-0.3s-1.9-0.9-2.9-1.5
		s-2-1.1-3.1-1.3c-1-0.2-2-0.1-2.7,0.3c-0.7,0.4-1.2,0.8-1.4,1.2C274.9,215.8,274.8,216,274.8,216z M278.9,199.4
		c-0.1,0-0.5,0.7-1.3,2c-0.8,1.4-1.8,3-2.9,4.8s-2.1,3.4-3,4.7c-0.8,1.2-1.2,2-1.2,2s0.6-0.6,1.5-1.8c0.8-1.2,1.9-2.8,3.1-4.7
		c1.1-1.9,2.1-3.6,2.8-4.9C278.6,200.3,279,199.5,278.9,199.4z M275.7,219.6c0,0,0.3,0.1,0.7,0.1c0.4,0.1,1.2,0.2,1.6,0.9
		c0.2,0.3,0.2,0.7,0,1.1c-0.2,0.4-0.5,0.8-0.9,1.2c-0.3,0.4-0.7,1-0.7,1.7s0.4,1.3,1,1.7s1.3,0.4,2,0.3c0.6-0.2,1.2-0.5,1.6-0.9
		c0.7-0.9,1.2-1.8,1.5-2.6s0.5-1.5,0.5-1.9c0-0.5-0.1-0.7-0.1-0.7s0,0.3-0.1,0.7c-0.1,0.5-0.3,1.1-0.6,1.8c-0.4,0.7-0.8,1.6-1.5,2.4
		c-0.7,0.7-2,1.2-3,0.5c-0.5-0.3-0.8-0.8-0.8-1.4c0-0.5,0.3-1,0.6-1.4c0.3-0.4,0.7-0.8,0.9-1.3c0.2-0.5,0.2-1.1-0.1-1.5
		c-0.6-0.8-1.4-0.8-1.8-0.9C275.9,219.6,275.7,219.6,275.7,219.6L275.7,219.6z"/>
	<path class="st13" d="M279.4,226.3c0,0-0.2,0.2-0.3,0.6c-0.1,0.4,0,1.1,0.5,1.7c0.5,0.6,1.6,0.9,2.6,0.7s2-1,2.6-2s0.9-2.2,0.8-3.2
		s-0.5-1.9-0.9-2.5s-0.9-1-1.3-1.3l-0.6-0.3c-0.1,0.1,0.8,0.5,1.6,1.7c0.4,0.6,0.7,1.4,0.7,2.4c0.1,0.9-0.2,2-0.8,2.9
		c-0.6,0.9-1.4,1.6-2.3,1.8s-1.8,0-2.3-0.5s-0.6-1.1-0.6-1.5C279.3,226.5,279.4,226.3,279.4,226.3L279.4,226.3z M268.4,228.7
		c0,0-0.3-0.3-1-0.6c-0.7-0.2-1.7-0.4-2.8,0l0.3,0.3c0.2-0.4,0.4-0.9,0.6-1.5c1-2.9,0.6-5.4,0.5-5.4s0,2.5-1,5.3
		c-0.2,0.5-0.4,1-0.6,1.4l-0.2,0.5l0.5-0.2c1-0.4,2-0.3,2.6-0.1C268,228.6,268.4,228.8,268.4,228.7z M279.1,211.9
		c-0.1,0-0.2,0.9,0.5,1.8c0.6,0.9,1.5,1.2,1.6,1.1c0.1-0.1-0.6-0.5-1.2-1.3C279.3,212.7,279.2,211.9,279.1,211.9z"/>
	<path class="st8" d="M173.5,228.4l37.5,37.1l27.5-28.3l5.2-2.3l6.9-7l16,18l-33.9,44.4c-4.4,5.7-10.6,9.8-17.6,11.5
		c-10.7,2.6-22-0.4-29.9-8.1l-28.9-28.3"/>
	<path class="st7" d="M214.7,287.1c-0.1,0-0.1-1.2-0.1-3.2s-0.1-4.7-0.6-7.7s-1.3-5.6-1.9-7.5c-0.6-1.9-1.1-3-1-3.1
		c0,0,0.2,0.3,0.4,0.8c0.3,0.5,0.6,1.2,0.9,2.2c0.7,1.9,1.6,4.5,2.1,7.6c0.5,3,0.5,5.8,0.5,7.8c0,1-0.1,1.8-0.1,2.4
		C214.7,286.8,214.7,287.1,214.7,287.1L214.7,287.1z"/>
	<path class="st3" d="M184.9,240.6c5.9,5.7,7.4,13,10.7,20.5c3.9,8.8,10.9,17.4,13.6,26.7c0.8,2.8,1.1,5.8,0.1,8.5s-3.8,6-6.7,6.2
		l-6-1.6L184.9,240.6L184.9,240.6z"/>
	<path class="st7" d="M259.1,255.9c-0.1,0.1-3.6-4.1-7.7-9.4c-4.2-5.3-7.5-9.7-7.3-9.8c0.1-0.1,3.6,4.1,7.7,9.4
		C255.9,251.5,259.2,255.8,259.1,255.9z"/>
	<path class="st9" d="M243.7,330.4l-10.9,33.4l28.9-13.1l9.4-30.6L243.7,330.4z"/>
	<path class="st8" d="M145.4,209.1l-4.2,10.2c0,0-5.5,11.7-11.6,19.6c-6.7,8.7-8.3,36.7-8.3,36.7l6.3,85.9l-2.2,4.2
		c-1,1.9-0.5,8.9,1.7,9l71.2,3.3c1.7,0.1,2.9-5.9,2.8-7.7l-5.7-103.8l-11.5-28.3l-3.7-5.6l-0.1-7l-24.8-7.7
		C150.8,216.7,147.2,213.4,145.4,209.1L145.4,209.1z"/>
	<path class="st3" d="M129,341.4c10.8,6.9,21.7,13.8,33.8,18.3c12,4.5,25.6,6.2,38,2.7l-0.4-8.9l-68.1-18.9L129,341.4L129,341.4z"/>
	<path class="st8" d="M148.5,241.3c0,0-19.5-1.7-23.5,22.7c-4,24.3,2.5,77.1,4.3,77.6c0,0,34.9,14.9,71.1,18.4l25.4-4.7l-3-24.2
		l-18.7,1c0,0-0.8-4.7-7.9-6.6c-10.2-2.8-30.6-7.6-30.6-7.6s0.9-24.3,1.1-31.4c0.2-7.1,2.7-38-13.6-43.8"/>
	<path class="st7" d="M183.8,238.3c0,0,0.1,0.2,0.4,0.7c0.2,0.5,0.5,1.2,0.9,2.1c0.8,1.9,1.9,4.6,3.3,7.8c1.4,3.3,3,7.3,4.9,11.6
		c0.5,1.1,0.9,2.2,1.4,3.4c0.5,1.1,0.9,2.4,1.2,3.6c0.3,1.3,0.3,2.6,0.4,4c0.1,1.3,0.1,2.7,0.2,4c0.6,10.9,1.2,20.8,1.5,28
		c0.1,3.6,0.2,6.5,0.2,8.5v3.1c0,0,0-0.3-0.1-0.8c0-0.6-0.1-1.3-0.1-2.3c-0.1-2.1-0.2-4.9-0.4-8.5c-0.4-7.2-1-17.1-1.6-28
		c-0.1-1.4-0.1-2.7-0.2-4.1c-0.1-1.3-0.1-2.6-0.4-3.9c-0.3-1.3-0.7-2.4-1.2-3.6c-0.5-1.1-0.9-2.3-1.4-3.4c-1.8-4.4-3.4-8.3-4.8-11.7
		c-1.3-3.3-2.4-6-3.2-7.9c-0.3-0.9-0.6-1.6-0.8-2.2C183.9,238.6,183.8,238.3,183.8,238.3L183.8,238.3z M179.9,225.7c0,0,0,0.4-0.2,1
		c-0.2,0.7-0.4,1.6-0.8,2.9c-0.8,2.4-2.2,5.8-4.4,9.6l-0.1,0.2l-0.2-0.2c-2.8-2.3-6.6-4.3-10.7-6c-3.4-1.4-6.8-2.6-9.7-4
		s-5.5-2.9-7.4-4.4s-3.2-3-4-4.2c-0.4-0.6-0.7-1-0.8-1.3c-0.2-0.3-0.3-0.5-0.2-0.5s0.4,0.6,1.3,1.7c0.8,1.1,2.2,2.5,4.1,4
		c1.9,1.5,4.4,2.9,7.3,4.3c2.9,1.3,6.3,2.5,9.7,4c4.2,1.7,8,3.7,10.8,6.1l-0.3,0.1c2.2-3.7,3.7-7,4.5-9.4c0.4-1.2,0.8-2.1,1-2.8
		C179.7,226.1,179.9,225.7,179.9,225.7L179.9,225.7z"/>
	<path class="st7" d="M153.1,242.7c0,0,0.5,0.2,1.3,0.5l1.6,0.8c0.6,0.4,1.3,0.8,2,1.5c1.4,1.2,2.9,3,4.2,5.4s2.4,5.3,3.2,8.7
		c1.6,6.8,2,15.4,1.6,25.2c-0.3,9.8-0.7,20.9-1.1,33.1l-0.2-0.2c6.2,1.4,12.8,3,19.6,4.7c3.4,0.8,6.9,1.7,10.5,2.7
		c3.7,0.8,6.9,3.5,8.6,6.9l-0.2-0.1c5.9-0.3,12.3-0.7,18.7-1h0.2v0.2c1,7.7,2,15.9,3,24.2v0.2h-0.2c-7.6,1.4-15.6,2.9-23.7,4.3
		l-1.8,0.3c-6.5-0.7-12.9-1.6-19.2-2.9s-12.4-2.7-18.3-4.3c-11.9-3.3-23.2-7-33.6-11.3c-0.1,0-0.1-0.1-0.2-0.1l-0.1-0.1
		c-0.1-0.1-0.1-0.1-0.1-0.2c-0.1-0.1-0.1-0.3-0.2-0.4c-0.1-0.3-0.2-0.5-0.2-0.8c-0.1-0.5-0.3-1-0.4-1.5c-0.2-1-0.4-2-0.6-3.1
		c-0.3-2-0.6-4.1-0.9-6.1c-0.5-4-1-7.9-1.3-11.8c-0.7-7.7-1.2-15-1.5-21.9s-0.3-13.4-0.1-19.5c0.3-6,0.8-11.6,2.1-16.5
		s3.5-9,6.2-11.8c2.7-2.9,5.7-4.6,8.3-5.5s4.7-1.2,6.1-1.3c0.7,0,1.2-0.1,1.6,0h0.5H148c-0.4,0-0.9,0-1.6,0.1
		c-1.4,0.1-3.5,0.4-6,1.3s-5.5,2.6-8.2,5.5s-4.8,6.9-6.1,11.8c-1.3,4.9-1.7,10.4-2,16.4c-0.2,6-0.2,12.5,0.1,19.4
		c0.3,6.9,0.8,14.2,1.6,21.9c0.4,3.8,0.8,7.8,1.4,11.7l0.9,6l0.6,3c0.1,0.5,0.2,1,0.4,1.5c0.1,0.2,0.1,0.5,0.2,0.7
		c0,0.1,0.1,0.2,0.1,0.3c0,0.1,0.1,0.1,0.1,0.1v0.1l0.1-0.1c10.4,4.3,21.7,8,33.6,11.3c5.9,1.6,12.1,3,18.3,4.3
		c6.3,1.2,12.7,2.2,19.2,2.9h-0.1l1.8-0.3c8.1-1.5,16.1-3,23.7-4.3l-0.2,0.3c-1-8.3-2.1-16.5-3-24.2l0.3,0.2
		c-6.5,0.3-12.8,0.7-18.7,1h-0.2l-0.1-0.2c-1.7-3.3-4.8-5.9-8.3-6.7c-3.5-1-7-1.9-10.4-2.7c-6.8-1.7-13.4-3.3-19.6-4.7h-0.2v-0.2
		c0.4-12.2,0.8-23.3,1.2-33.1c0.5-9.8,0.1-18.3-1.5-25.1c-0.8-3.4-1.9-6.3-3.1-8.7c-1.3-2.4-2.7-4.2-4.1-5.4
		c-0.7-0.6-1.4-1.1-1.9-1.5c-0.6-0.3-1.1-0.7-1.5-0.9C153.5,242.9,153.1,242.7,153.1,242.7L153.1,242.7z"/>
	<path class="st7" d="M202.8,357.4c-0.1,0,0.1-5.1,0.5-11.4s0.9-11.3,1.1-11.3c0.1,0-0.1,5.1-0.5,11.4
		C203.4,352.3,202.9,357.4,202.8,357.4z M149.8,331c0,0,0-0.3,0.2-0.8s0.5-1.2,1-2c1-1.6,2.8-3.7,5.2-5.4c2.4-1.7,4.7-2.9,6.5-3.7
		c1.7-0.8,2.8-1.2,2.9-1.2c0,0.1-1,0.6-2.7,1.5s-4,2.1-6.3,3.8c-2.3,1.7-4.1,3.6-5.2,5.2C150.3,329.9,149.9,331,149.8,331L149.8,331
		z M178.4,365.8c0,0-0.2,0.1-0.5,0.1c-0.4,0.1-0.8,0.1-1.4,0.2c-1.2,0.2-3,0.4-5.2,0.6s-4.8,0.3-7.8,0.3c-2.9,0-6.1-0.2-9.5-0.6
		s-6.5-1-9.4-1.6s-5.4-1.3-7.5-2s-3.8-1.3-4.9-1.7c-0.5-0.2-1-0.4-1.3-0.5s-0.5-0.2-0.4-0.2c0,0,0.2,0,0.5,0.1
		c0.4,0.1,0.8,0.3,1.4,0.4c1.2,0.4,2.9,1,5,1.6s4.7,1.3,7.5,1.9c2.9,0.6,6,1.1,9.4,1.5c3.3,0.4,6.5,0.6,9.5,0.6c2.9,0,5.5,0,7.7-0.1
		s4-0.3,5.2-0.4c0.6-0.1,1-0.1,1.4-0.1C178.2,365.8,178.4,365.8,178.4,365.8L178.4,365.8z"/>
	<path class="st12" d="M265.9,326.8c-0.7-1.1-2-0.9-3.1-0.1l-3.5,2.4c-1,0.6-2,1-3.1,1.3l-1.5,0.3c-3,0.5-6-0.1-8.5-1.8l-0.6-0.4
		c0,0,9.7-2.2,11.2-3.5c1.5-1.3,0.2-3.7-1.7-3.4l-12.2,1.9c-4,0.6-7.8,2.2-11.1,4.6c-3.1,2.3-8.3,5.7-8.6,5.6l2.1,18.5l3.5-0.9
		l6.3,0.6c4.3,0.4,8.5-0.5,12.3-2.4c2.4-1.2,4.6-2.4,4.8-2.8c0.5-0.9,1.5-4.6,1.5-4.6s2.4-1.5,2.5-2.5s-0.2-2.9-0.2-2.9
		s6.1-3.6,7.7-4.9C266.5,329.3,266.6,327.8,265.9,326.8L265.9,326.8z"/>
	<path class="st13" d="M248.8,340.1c0,0.1,1.9-0.4,3.9-1.4c2.1-1,3.6-2.2,3.5-2.3c-0.1-0.1-1.6,0.9-3.7,1.9
		C250.5,339.4,248.7,340,248.8,340.1L248.8,340.1z M250.1,343.7c0,0.1,1,0,2.2-0.6c1.1-0.6,1.8-1.3,1.8-1.4c-0.1-0.1-0.9,0.5-2,1
		C251,343.3,250,343.6,250.1,343.7z M243.7,327.3c0,0,0.5,0.5,1.5,1c1,0.6,2.3,1.3,3.9,1.9c1.6,0.5,3.2,0.7,4.3,0.7s1.8-0.1,1.8-0.2
		c0-0.2-2.8,0.2-6-0.9c-1.6-0.5-2.9-1.2-3.9-1.7C244.4,327.6,243.8,327.3,243.7,327.3z"/>
	<path class="st3" d="M144,222.5c2.7,4.6,6.9,8,11.3,11.1c4.4,3,9.2,5.4,14,7.7c2.2,1.1,4.5,2.1,7,1.9c0.7-0.1,1.4-0.2,1.9-0.7
		c0.7-0.6,0.9-1.6,1.1-2.5c0.7-4.3,0.9-9.9,0.7-14.3c-1.4,5-3.4,9.7-5.7,13.5c0,0-3.9-3.4-15.8-8.2C146.3,226.1,144,222.5,144,222.5
		z"/>
	<path class="st9" d="M158.6,433.8c-0.1,0-0.3-7.3-0.4-16.2c-0.1-9,0-16.2,0.1-16.2s0.3,7.3,0.4,16.2S158.8,433.8,158.6,433.8z"/>
</g>
<path id="Desk" class="st7" d="M715,464.8c0,0.1-152.2,0.3-340,0.3S35,465,35,464.8c0-0.1,152.2-0.3,340-0.3S715,464.7,715,464.8z"
	/>
</svg>
