<?xml version="1.0" encoding="utf-8"?>
<!-- Generator: Adobe Illustrator 25.2.0, SVG Export Plug-In . SVG Version: 6.00 Build 0)  -->
<svg version="1.1" id="Layer_1" xmlns="http://www.w3.org/2000/svg" xmlns:xlink="http://www.w3.org/1999/xlink" x="0px" y="0px"
	 viewBox="0 0 750 500" style="enable-background:new 0 0 750 500;" xml:space="preserve">
<style type="text/css">
	.st0{fill:#E0E0E0;}
	.st1{fill:#EBEBEB;}
	.st2{fill:#FAFAFA;}
	.st3{fill:#F5F5F5;}
	.st4{fill:#FFFFFF;}
	.st5{fill:none;}
	.st6{fill:#455A64;}
	.st7{fill:#263238;}
	.st8{fill:#8026CD;}
	.st9{opacity:0.2;enable-background:new    ;}
	.st10{opacity:0.3;enable-background:new    ;}
	.st11{fill:#B78876;}
	.st12{fill:#AA6550;}
</style>
<g id="Background_Complete">
	<path class="st0" d="M62.1,158.6h95.4v157.9H62.1V158.6z"/>
	<path class="st1" d="M58.9,158.6h95.4v157.9H58.9V158.6z"/>
	<path class="st2" d="M63,161.8h87.3v151.5H63V161.8z"/>
	<path class="st1" d="M79.6,181.5h53.7v112.1H79.6V181.5z"/>
	<path class="st0" d="M79.6,254c-0.1-10.5,9.3-20.7,19.7-22.2c4.9-0.7,10.2,0.3,14.8-1.6c8.2-3.4,10.9-14.3,19.2-17.6l0.4,81.1h-54
		L79.6,254L79.6,254z"/>
	<path class="st1" d="M187.2,64.1l10.7,33.8h-7.7l-3.4-11.6L187.2,64.1z"/>
	<path class="st0" d="M49.2,97.9h159.6v9.5H49.2V97.9z"/>
	<path class="st0" d="M71.5,105.4h7.7V120h-7.7V105.4z M171.1,105.4h7.7V120h-7.7V105.4z"/>
	<path class="st1" d="M54.6,53.7c0,0-7.2,5.5-0.3,12.7c0.1,0.1,0.3,0.2,0.5,0.2l62.6-0.4c0,0,5.3-6,0.9-12.9
		C118.3,53.3,54.6,53.7,54.6,53.7z"/>
	<path class="st0" d="M103.5,59.4c0,0.1-7.8,0.1-17.4,0.1s-17.4-0.1-17.4-0.1c0-0.1,7.8-0.1,17.4-0.1S103.5,59.3,103.5,59.4z
		 M93.8,61.7c0,0.1-3.7,0.1-8.2,0.1s-8.2-0.1-8.2-0.1c0-0.1,3.7-0.1,8.2-0.1C90.1,61.5,93.8,61.6,93.8,61.7z M109.9,66
		c0,0,0.1-0.7,0.3-1.9c0.2-1.2,0.4-2.8,0.4-4.6s-0.2-3.4-0.4-4.6c-0.2-1.2-0.4-1.9-0.4-1.9s0.1,0.2,0.2,0.5s0.2,0.8,0.4,1.4
		c0.3,1.2,0.5,2.8,0.5,4.6s-0.2,3.4-0.4,4.6c-0.1,0.6-0.2,1-0.3,1.4C110,65.8,109.9,66,109.9,66z M114.6,53.2c0,0,0.1,0.2,0.3,0.5
		c0.1,0.1,0.2,0.3,0.3,0.6c0.1,0.2,0.2,0.5,0.3,0.8c0.2,0.6,0.4,1.3,0.6,2.1s0.3,1.7,0.3,2.6c0,0.9-0.1,1.8-0.2,2.6
		c-0.2,0.8-0.3,1.5-0.6,2.1c-0.1,0.3-0.2,0.5-0.3,0.8l-0.3,0.6c-0.2,0.3-0.3,0.5-0.3,0.5s0.3-0.7,0.7-1.9c0.2-0.6,0.4-1.3,0.5-2.1
		s0.2-1.7,0.2-2.6c0-0.9-0.1-1.8-0.2-2.6c-0.2-0.8-0.3-1.5-0.5-2.1C114.9,53.9,114.6,53.2,114.6,53.2z M64.5,66.1
		c0,0-0.1-0.1-0.3-0.4c-0.1-0.1-0.2-0.3-0.3-0.5s-0.2-0.4-0.3-0.7c-0.2-0.5-0.4-1.2-0.6-2c-0.2-0.8-0.2-1.6-0.2-2.5s0.1-1.8,0.3-2.5
		c0.2-0.8,0.4-1.4,0.7-2c0.1-0.3,0.2-0.5,0.4-0.7c0.1-0.2,0.2-0.4,0.3-0.5c0.2-0.3,0.3-0.4,0.3-0.4s-0.4,0.6-0.8,1.7
		c-0.2,0.5-0.4,1.2-0.6,1.9C63.1,58.2,63,59,63,59.9s0.1,1.7,0.2,2.5c0.2,0.7,0.3,1.4,0.5,2C64.2,65.4,64.5,66,64.5,66.1z
		 M57.7,67.6c0,0-0.1-0.2-0.3-0.5l-0.3-0.6c-0.1-0.2-0.3-0.5-0.4-0.8c-0.3-0.6-0.5-1.4-0.7-2.2c-0.2-0.9-0.3-1.8-0.4-2.8
		c0-1,0.1-2,0.2-2.8c0.2-0.9,0.4-1.6,0.6-2.2c0.1-0.3,0.2-0.6,0.3-0.8l0.3-0.6c0.2-0.3,0.3-0.5,0.3-0.5s-0.4,0.7-0.8,2
		c-0.2,0.6-0.4,1.4-0.6,2.2c-0.1,0.9-0.2,1.8-0.2,2.8s0.2,1.9,0.3,2.8c0.2,0.8,0.4,1.6,0.7,2.2C57.4,66.9,57.8,67.6,57.7,67.6z"/>
	<path class="st1" d="M115.1,85.2v12H91.9v-12C91.9,85.2,115.1,85.2,115.1,85.2z"/>
	<path class="st0" d="M40.2,91.3v0.3c0.2,3.6,3.3,6.4,6.9,6.4h69v-0.9H99.8c-3.3,0-6-2.7-6-6s2.7-6,6-6h16.4V84l-69,0.2
		C43.2,84.2,40.1,87.4,40.2,91.3z"/>
	<path class="st0" d="M115.1,91.4c0,0.1-4.8,0.1-10.6,0.1c-5.9,0-10.6-0.1-10.6-0.1c0-0.1,4.8-0.1,10.6-0.1S115.1,91.3,115.1,91.4z
		 M114.7,94.1c0,0.1-4.5,0.1-10.1,0.1s-10.1-0.1-10.1-0.1c0-0.1,4.5-0.1,10.1-0.1S114.7,94,114.7,94.1z M115.1,96.6
		c0,0.1-4.1,0.1-9.1,0.1s-9.1-0.1-9.1-0.1c0-0.1,4.1-0.1,9.1-0.1C111,96.4,115.1,96.5,115.1,96.6z M115.1,89c0,0.1-4.7,0.1-10.4,0.1
		c-5.8,0-10.4-0.1-10.4-0.1s4.7-0.1,10.4-0.1C110.4,88.8,115.1,88.9,115.1,89z M114.7,86.5c0,0.1-4.2,0.1-9.3,0.1
		c-5.1,0-9.3-0.1-9.3-0.1s4.2-0.1,9.3-0.1C110.6,86.4,114.7,86.5,114.7,86.5z"/>
	<path class="st3" d="M48.6,84.4c0,0-0.7,0.6-1.5,1.7s-1.6,3-1.6,5.2c0,2.1,0.9,4,1.7,5.1s1.5,1.7,1.5,1.7s-0.2-0.1-0.5-0.4L47,96.5
		c-0.9-1.1-1.8-3-1.8-5.2s0.8-4.1,1.7-5.3c0.4-0.6,0.8-1,1.1-1.3C48,84.7,48.6,84.4,48.6,84.4z"/>
	<path class="st3" d="M46.3,84.2c0,0-0.7,0.6-1.5,1.7s-1.6,3-1.6,5.2c0,2.1,0.9,4,1.7,5.1s1.5,1.7,1.5,1.7s-0.2-0.1-0.5-0.4
		l-1.2-1.2c-0.9-1.1-1.8-3-1.8-5.2s0.8-4.1,1.7-5.3c0.4-0.6,0.8-1,1.1-1.3C46.1,84.3,46.2,84.1,46.3,84.2L46.3,84.2z M93.1,84.4
		c0,0-0.7,0.6-1.5,1.7s-1.6,3-1.6,5.2c0,2.1,0.9,4,1.7,5.1c0.8,1.1,1.5,1.7,1.5,1.7S93,98,92.7,97.7l-1.2-1.2
		c-0.9-1.1-1.8-3-1.8-5.2s0.8-4.1,1.7-5.3c0.4-0.6,0.8-1,1.1-1.3C93,84.5,93.1,84.4,93.1,84.4L93.1,84.4z"/>
	<path class="st3" d="M90.8,84.2c0,0-0.7,0.6-1.5,1.7s-1.6,3-1.6,5.2c0,2.1,0.9,4,1.7,5.1c0.8,1.1,1.5,1.7,1.5,1.7s-0.2-0.1-0.5-0.4
		l-1.2-1.2c-0.9-1.1-1.8-3-1.8-5.2s0.8-4.1,1.7-5.3c0.4-0.6,0.8-1,1.1-1.3C90.6,84.3,90.8,84.1,90.8,84.2L90.8,84.2z M56.4,93
		c0-1.6,0-3.2-0.1-4.9c0-0.4,0-0.9-0.2-1.3s-0.5-0.7-0.9-0.8c-0.6-0.3-1.6,0.2-2,0.9c-0.4,0.7-0.5,1.6-0.5,2.4
		c0,1.3,0.1,2.6,0.2,3.8c0.1,0.6,0.1,1.2,0.5,1.8c0.3,0.5,0.9,0.9,1.5,0.9c0.6-0.1,1.1-0.6,1.3-1.1C56.5,94.3,56.5,93.6,56.4,93z
		 M83.2,91.6c0,0.1-5,0.1-11.1,0.1c-6.2,0-11.1-0.1-11.1-0.1s5-0.1,11.1-0.1C78.3,91.5,83.2,91.6,83.2,91.6z M51.8,83.9l-0.1-11.3
		h6.2l0.2,11.3H51.8z"/>
	<path class="st0" d="M57.5,74.6c0,0.1-1.3,0.1-2.9,0.1c-1.6,0-2.9-0.1-2.9-0.1s1.3-0.1,2.9-0.1S57.5,74.5,57.5,74.6z M57.5,76.3
		c0,0.1-1.3,0.1-2.9,0.1c-1.6,0-2.9-0.1-2.9-0.1s1.3-0.1,2.9-0.1C56.2,76.2,57.5,76.3,57.5,76.3z M57.5,78.1c0,0.1-1.3,0.1-2.9,0.1
		c-1.6,0-2.9-0.1-2.9-0.1c0-0.1,1.3-0.1,2.9-0.1S57.5,78,57.5,78.1z M57.5,79.9c0,0.1-1.3,0.1-2.9,0.1c-1.6,0-2.9-0.1-2.9-0.1
		c0-0.1,1.3-0.1,2.9-0.1C56.2,79.7,57.5,79.8,57.5,79.9z M57.5,81.6c0,0.1-1.3,0.1-2.9,0.1c-1.6,0-2.9-0.1-2.9-0.1
		c0-0.1,1.3-0.1,2.9-0.1S57.5,81.5,57.5,81.6z"/>
	<path class="st1" d="M51.4,72.3h68.5c0.8,3.8,0.7,7.9,0,12.3H51.7v-0.8h4.2c1.1,0,2-0.9,2-2V75c0-1.1-0.9-2-2-2h-4.5V72.3z"/>
	<path class="st2" d="M67.6,78.4h1.2c0.1,0,0.1,0.1,0.1,0.2v0.1c0,0.1,0,0.2-0.1,0.3c-0.2,0.5-0.4,1-0.7,1.3c-0.3,0.3-0.6,0.5-1,0.5
		H67c-0.3,0-0.6-0.2-0.8-0.6c-0.2-0.4-0.3-0.8-0.3-1.4c0-0.3,0-0.7,0.1-1c0.1-0.5,0.4-1,0.7-1.3c0.3-0.4,0.7-0.5,1-0.5
		c0.2,0,0.3,0,0.4,0.1c0.3,0.1,0.5,0.4,0.7,0.8v0.2c0,0.1-0.1,0.1-0.2,0.1h-0.1c-0.1,0-0.1-0.1-0.2-0.2c0-0.1-0.1-0.2-0.1-0.3
		c-0.1-0.2-0.3-0.3-0.5-0.3c-0.1,0-0.3,0-0.4,0.1c-0.2,0.2-0.4,0.5-0.6,0.9s-0.3,0.9-0.3,1.3s0.1,0.7,0.2,1s0.3,0.4,0.6,0.4
		c0.2,0,0.4-0.1,0.6-0.3c0.2-0.3,0.4-0.6,0.6-1.1h-0.8c-0.2,0-0.3-0.1-0.3-0.3v-0.1C67.3,78.5,67.4,78.4,67.6,78.4L67.6,78.4z
		 M71.4,76.2C71.5,76.2,71.5,76.2,71.4,76.2c0.1,0.3,0.3,1.7,0.8,4.3v0.2c0,0.1-0.1,0.1-0.2,0.1s-0.2-0.1-0.2-0.2l-0.3-1.4h-1.4
		l-0.7,1.4c-0.1,0.1-0.1,0.1-0.2,0.1h-0.1c-0.1,0-0.1,0-0.1-0.1v-0.1c0-0.1,0.1-0.3,0.2-0.5c1-2.1,1.6-3.4,1.8-3.8
		c0.1-0.1,0.1-0.2,0.2-0.2C71.3,76.1,71.4,76.1,71.4,76.2z M71.1,77.1l-0.8,1.6h1.1C71.4,78.7,71.1,77.1,71.1,77.1z M75.3,80.8h-2.2
		c-0.1,0-0.1-0.1-0.1-0.3c0-0.1,0.2-1.5,0.6-4.2v-0.1c0-0.1,0.1-0.2,0.2-0.2h0.1c0.1,0,0.1,0.1,0.1,0.2c0,0.2-0.1,0.6-0.1,1.2
		c-0.2,1.8-0.4,2.8-0.4,2.9h1.9c0.1,0,0.2,0.1,0.2,0.2v0.1C75.5,80.7,75.4,80.8,75.3,80.8z M78.1,76.2c0.1,0.3,0.3,1.7,0.8,4.3v0.2
		c0,0.1-0.1,0.1-0.2,0.1s-0.2-0.1-0.2-0.2l-0.3-1.4h-1.4l-0.7,1.4c-0.1,0.1-0.1,0.1-0.2,0.1h-0.1c-0.1-0.1-0.1-0.1-0.1-0.2v-0.1
		c0-0.1,0.1-0.3,0.2-0.5c1-2.1,1.6-3.4,1.8-3.8c0.1-0.1,0.1-0.2,0.2-0.2C78,76.1,78,76.1,78.1,76.2z M77.8,77.1L77,78.7h1.1
		C78.1,78.7,77.8,77.1,77.8,77.1z M81.4,78.6c0.2,0.4,0.3,0.8,0.4,1l0.3,0.9v0.1c0,0.1-0.1,0.1-0.2,0.1s-0.2-0.1-0.2-0.2v-0.1
		c-0.1-0.3-0.3-0.7-0.6-1.5l-1.2,1.6c-0.1,0.1-0.1,0.1-0.2,0.1h-0.1c-0.1,0-0.1-0.1-0.1-0.2v-0.1c0,0,0-0.1,0.1-0.2
		c0.4-0.5,0.8-1.1,1.3-1.8c0-0.1-0.1-0.3-0.1-0.4C80.2,77,80,76.4,80,76.3v-0.1c0-0.1,0.1-0.1,0.2-0.1s0.2,0,0.2,0.1l0.7,1.9
		l1.4-1.9c0.1-0.1,0.1-0.1,0.2-0.1h0.1c0.1,0,0.1,0.1,0.1,0.2v0.1C82.9,76.4,81.4,78.6,81.4,78.6z M86.5,76.1c0.2,0,0.2,0.1,0.2,0.2
		c-0.3,2.7-0.5,4.1-0.6,4.3c-0.1,0.5-0.2,0.8-0.4,1.1c-0.3,0.4-0.8,0.7-1.4,0.7c-0.2,0-0.4-0.1-0.7-0.2c-0.4-0.2-0.6-0.4-0.7-0.6
		v-0.2c0-0.1,0.1-0.1,0.2-0.1s0.1,0,0.2,0.1c0.3,0.4,0.7,0.6,1.1,0.6c0.3,0,0.6-0.1,0.8-0.4c0.3-0.3,0.4-0.7,0.5-1.3l-0.3,0.3
		c-0.2,0.2-0.5,0.2-0.7,0.2h-0.1c-0.3,0-0.6-0.2-0.8-0.6c-0.2-0.4-0.3-0.8-0.3-1.4V78c0-0.4,0.1-1,0.3-1.8v-0.1
		c0-0.1,0.1-0.2,0.2-0.2h0.1c0.1,0,0.1,0.1,0.1,0.2s0,0.4-0.1,0.9c-0.1,0.7-0.2,1.2-0.2,1.4c0,0.5,0.1,0.8,0.2,1.1
		c0.1,0.3,0.3,0.5,0.6,0.5h0.1c0.2,0,0.4-0.2,0.6-0.5s0.4-0.7,0.5-1.1l0.3-2.4v-0.1C86.3,76.1,86.4,76.1,86.5,76.1z"/>
	<path class="st3" d="M117.3,84.7c-0.1,0-0.1-2.8-0.1-6.3s0.1-6.3,0.1-6.3c0.1,0,0.1,2.8,0.1,6.3S117.3,84.7,117.3,84.7z"/>
	<path class="st0" d="M61.2,84.7c-0.1,0-0.1-2.8-0.1-6.3s0.1-6.3,0.1-6.3c0.1,0,0.1,2.8,0.1,6.3C61.4,81.9,61.3,84.7,61.2,84.7z"/>
	<path class="st3" d="M118.5,84.7c-0.1,0-0.1-2.8-0.1-6.3s0.1-6.3,0.1-6.3c0.1,0,0.1,2.8,0.1,6.3S118.5,84.7,118.5,84.7z"/>
	<path class="st0" d="M60.1,84.7c-0.1,0-0.1-2.8-0.1-6.3s0.1-6.3,0.1-6.3c0.1,0,0.1,2.8,0.1,6.3S60.2,84.7,60.1,84.7z M100.7,74.2
		c1.9,1.5,4.4,3.5,7.2,5.8l0.1,0.1h-0.1c-0.3,0.1-0.6,0.2-1,0.3c-2.2,0.6-4.3,1.1-6.1,1.6c-2.3-1-4.2-1.8-5.5-2.3
		c-0.7-0.3-1.2-0.5-1.6-0.7c-0.2-0.1-0.3-0.1-0.4-0.2h-0.1h0.1c0.1,0,0.2,0.1,0.4,0.2c0.4,0.2,0.9,0.4,1.6,0.7
		c1.4,0.6,3.3,1.4,5.6,2.3c1.8-0.5,3.9-1,6.1-1.6c0.3-0.1,0.7-0.2,1-0.3v0.1C105,77.8,102.5,75.7,100.7,74.2"/>
	<path class="st0" d="M107.2,79.1l0.4,0.4l0.6-0.1l-0.3,0.4l0.3,0.5l-0.5-0.1l-0.4,0.4l-0.1-0.5l-0.5-0.2l0.5-0.3V79.1z M100.3,81.4
		l0.3,0.2l0.3-0.1l-0.1,0.4l0.2,0.2h-0.4l-0.2,0.3l-0.1-0.3l-0.3-0.2l0.3-0.1L100.3,81.4z M92.6,78.3h0.5l0.2-0.4l0.1,0.5l0.4,0.1
		l-0.3,0.2v0.5l-0.4-0.3L92.7,79l0.2-0.4L92.6,78.3z M110.5,74.3h0.4l0.3-0.3l0.1,0.4l0.4,0.1l-0.4,0.3v0.4l-0.3-0.3l-0.4,0.1
		l0.1-0.4L110.5,74.3z M100.3,74h0.3l0.2-0.2v0.3l0.3,0.1l-0.2,0.1l-0.1,0.3l-0.2-0.2l-0.2,0.1l0.1-0.3L100.3,74z"/>
	<path class="st0" d="M111.1,74.6c0,0-2.3,0-5.2-0.2c-2.9-0.1-5.2-0.2-5.2-0.3c0,0,2.3,0,5.2,0.2C108.8,74.4,111.1,74.6,111.1,74.6z
		 M113.7,72.2H44.3c-0.9-2.1-1.1-4,0-5.8h69.5C114.6,68.5,114.6,70.4,113.7,72.2z"/>
	<path class="st1" d="M58.6,68h37.6v2.1H58.6V68z"/>
	<path class="st0" d="M46.9,72.2c0,0-0.3-0.2-0.5-0.7c-0.3-0.5-0.6-1.2-0.6-2.1c-0.1-0.8,0.1-1.6,0.3-2.1s0.4-0.8,0.4-0.8
		s-0.1,0.3-0.2,0.8s-0.3,1.2-0.2,2.1c0.1,0.8,0.3,1.5,0.5,2S47,72.2,46.9,72.2z M48.4,72.2c0,0-0.3-0.2-0.5-0.7
		c-0.3-0.5-0.6-1.2-0.6-2.1c-0.1-0.8,0.1-1.6,0.3-2.1s0.4-0.8,0.4-0.8s-0.1,0.3-0.2,0.8s-0.3,1.2-0.2,2.1c0.1,0.8,0.3,1.5,0.5,2
		S48.5,72.2,48.4,72.2z"/>
	<path class="st3" d="M110.9,72.1c-0.1,0,0.5-1.2,0.5-2.8c0-1.6-0.5-2.8-0.5-2.8s0.7,1.2,0.7,2.8C111.7,70.9,111,72.1,110.9,72.1z
		 M109.6,72.1c-0.1,0,0.2-1.2,0.2-2.8c0-1.5-0.3-2.8-0.2-2.8c0.1,0,0.5,1.2,0.5,2.8S109.7,72.1,109.6,72.1z"/>
	<path class="st0" d="M139.6,36.3h47.6v62.2h-47.3L139.6,36.3z"/>
	<path class="st4" d="M136.1,36.6h47.4v61.6h-47.4V36.6z"/>
	<path class="st0" d="M183.7,36.4v62h-47.9v-62H183.7L183.7,36.4z M183.2,98V36.9h-46.9V98H183.2L183.2,98z"/>
	<path class="st4" d="M141,43.3h36.3v48.2H141V43.3z"/>
	<path class="st0" d="M141,43.3v13.4c0,8.5,0,20.5,0.1,34.8l-0.1-0.1h36.3l-0.1,0.1V43.3l0.1,0.1c-11,0-20,0-26.3-0.1H141h9.8
		c6.3,0,15.4,0,26.4-0.1h0.1v48.4h-36.5v-0.1c0-14.3,0-26.4,0.1-34.9V43.4C141,43.4,141,43.3,141,43.3L141,43.3z M136,98.2
		c0,0,0.2-0.4,0.6-1c0.4-0.6,1-1.5,1.7-2.4s1.3-1.7,1.8-2.3c0.5-0.6,0.8-0.9,0.8-0.9s-0.2,0.4-0.7,1c-0.5,0.7-1.1,1.5-1.8,2.4
		s-1.3,1.7-1.8,2.4C136.3,97.9,136,98.2,136,98.2z"/>
	<path class="st0" d="M136.1,36.7c0.1,0,1.2,1.4,2.5,3.3c1.3,1.8,2.4,3.4,2.3,3.4c-0.1,0-1.2-1.4-2.5-3.3S136,36.7,136.1,36.7z"/>
	<path class="st5" d="M183.5,36.7l-6.3,6.9"/>
	<path class="st0" d="M177.2,43.6c-0.1,0,1.3-1.6,3-3.5s3.2-3.4,3.2-3.4s-1.3,1.6-3,3.5S177.3,43.6,177.2,43.6z M183.5,98.2
		c-0.1,0-1.4-1.4-3.1-3.2c-1.6-1.8-2.9-3.3-2.9-3.4c0.1,0,1.4,1.4,3.1,3.2C182.2,96.7,183.5,98.2,183.5,98.2z M142.7,91.6
		c0,0,3.9-12.1,6.2-13.4c2.5-1.4,6.2-2.7,10.2-2.8c5.4,0,7.9,0.3,11.1,2.5c3.6,2.5,6.1,13.5,6.1,13.5 M153.5,55.5
		c-3.3,0.1-4.2,4.6-3.9,7.2c0.1,1.2,0.5,2.5-0.1,3.6c-0.4,0.7-1.3,1.2-1.6,2c-0.4,1,0,2,0.3,3s0.5,2.3-0.3,2.9
		c1.9,0.5,3.8,1,5.8,1.1s4-0.2,5.6-1.3"/>
	<path class="st0" d="M151.1,64.5c-2.2-5,0.8-8.1,2.7-9.2c1.2-0.7,2.5-0.8,3.9-0.8c1.3,0,2.6,0,3.9,0.3c1.3,0.3,2.5,0.9,3.4,1.9
		c1.6,1.7,2,4.2,1.8,6.6c-0.2,2.7-0.9,5.5-2.3,7.9c-0.2,0.3-0.4,0.6-0.7,0.8c-0.3,0.2-0.8,0.1-0.9-0.2"/>
	<path class="st3" d="M158.6,81.8c2.3,0.2,4.2-1.8,4.5-5.3l1.2-17.7l-0.1,1.2c0-0.7-0.5-1.4-1.3-1.4l-7-0.7c-2.4-0.2-4.6,1.6-4.7,4
		c-0.2,2.7-0.3,6,0.1,8c0.7,4,3.8,4.6,3.8,4.6l-0.2,2.9C154.6,79.6,156.3,81.6,158.6,81.8z"/>
	<path class="st0" d="M152.5,64.1c0,0.3,0.2,0.5,0.5,0.5s0.5-0.2,0.5-0.5s-0.2-0.5-0.5-0.5C152.8,63.6,152.5,63.8,152.5,64.1z
		 M151.9,63.5c0.1,0.1,0.5-0.2,1-0.2c0.6,0,1,0.3,1,0.2c0,0,0-0.2-0.2-0.3s-0.5-0.3-0.8-0.3s-0.6,0.1-0.8,0.3S151.9,63.5,151.9,63.5
		z M157.9,64.1c0,0.3,0.2,0.5,0.5,0.5s0.5-0.2,0.5-0.5s-0.2-0.5-0.5-0.5S157.9,63.8,157.9,64.1z"/>
	<path class="st0" d="M157.4,63.6c0.1,0.1,0.5-0.2,1-0.2c0.6,0,1,0.3,1,0.2c0,0,0-0.2-0.2-0.3s-0.5-0.3-0.8-0.3s-0.6,0.1-0.8,0.3
		S157.3,63.6,157.4,63.6z M155.4,67.8c0,0-0.3-0.1-0.9-0.2c-0.1,0-0.3,0-0.3-0.1s0-0.3,0.1-0.4c0.1-0.3,0.3-0.7,0.4-1.1
		c0.6-1.5,1-2.8,0.9-2.8s-0.6,1.2-1.2,2.8c-0.1,0.4-0.3,0.7-0.4,1.1c-0.1,0.2-0.1,0.3-0.1,0.6c0,0.1,0.1,0.2,0.2,0.2h0.2
		C155,67.8,155.4,67.8,155.4,67.8z"/>
	<path class="st1" d="M155,74.4c0,0,2.7,0.2,5.4-1.5c0,0-1.4,2.8-5.5,2.4L155,74.4z"/>
	<path class="st0" d="M155.6,69.1c0.2-0.3,0.6-0.4,0.9-0.4c0.2,0,0.5,0.1,0.6,0.3c0.1,0.2,0.2,0.5,0,0.7s-0.5,0.3-0.7,0.2
		c-0.3-0.1-0.5-0.3-0.7-0.4c-0.1,0-0.1-0.1-0.2-0.2C155.5,69.3,155.5,69.2,155.6,69.1"/>
	<path class="st0" d="M157,68.2c-0.1,0-0.1,0.6-0.6,1s-1.2,0.4-1.2,0.5c0,0,0.1,0.1,0.4,0.1c0.3,0,0.7-0.1,1-0.3
		c0.3-0.3,0.5-0.6,0.5-0.9S157.1,68.2,157,68.2L157,68.2z M157.1,62.7c0.1,0.2,0.6,0.1,1.3,0.2c0.7,0.1,1.2,0.3,1.3,0.1
		c0-0.1-0.1-0.2-0.3-0.4c-0.2-0.1-0.6-0.3-0.9-0.3c-0.4,0-0.8,0-1,0.1C157.2,62.5,157.1,62.6,157.1,62.7L157.1,62.7z M152.1,61.9
		c0.1,0.1,0.5,0,0.9,0c0.5,0,0.9,0.1,0.9-0.1c0-0.1,0-0.2-0.2-0.3s-0.5-0.2-0.8-0.2s-0.6,0.1-0.8,0.3
		C152.1,61.7,152,61.9,152.1,61.9L152.1,61.9z"/>
	<path class="st0" d="M154.3,55c3.9-2.2,8.1-0.7,11.3,2.5c0.7,0.7,1.3,1.5,2.2,1.9c1,0.4,2.3,0.4,2.9,1.3c0.7,1-0.2,2.5,0.3,3.7
		c0.5,1.1,1.9,1.4,2.5,2.4c0.4,0.8,0.2,1.8,0,2.7c-0.2,0.9-0.3,1.9,0.4,2.6l-8.4,3.2c-0.4,0.1-0.8,0.2-1.2,0.1
		c-1.2-0.2-1.3-1.3-1.2-2.3c0.1-0.7,0.2-1.4-0.1-2c-0.3-0.7-1.2-1.1-1.5-1.9c-0.5-1.3,1-2.7,0.8-4.2c-0.1-0.9-0.9-1.6-1.7-2
		s-1.7-0.5-2.6-0.8c-2-0.6-3.6-2.5-4.5-4.5C153,56.7,153.4,55.6,154.3,55z"/>
	<path class="st1" d="M694.7,455.8V135h-3.9v320.9l-32.9,2.4h69.7L694.7,455.8z"/>
	<path class="st0" d="M670.1,107l-14.8,65.9h74.9l-16.8-65.7L670.1,107z"/>
	<path class="st0" d="M683.8,199.6c-0.2,0-0.3-8.1-0.3-18.1s0.2-18.1,0.3-18.1c0.2,0,0.3,8.1,0.3,18.1
		C684.1,191.6,684,199.6,683.8,199.6z"/>
	<path class="st0" d="M683.8,199.5c0-0.1,0.5,0,0.8,0.7c0.1,0.3,0.1,0.8-0.2,1.2s-1,0.6-1.5,0.4c-0.5-0.2-0.9-0.7-0.9-1.2
		s0.4-0.9,0.6-1c0.6-0.4,1.1-0.1,1,0c0,0.1-0.4,0-0.8,0.4c-0.2,0.2-0.3,0.4-0.3,0.7s0.2,0.5,0.5,0.6s0.7,0.1,0.8-0.1
		c0.2-0.2,0.2-0.5,0.2-0.7C684.1,199.8,683.7,199.6,683.8,199.5L683.8,199.5z M465.5,38.5h75v78.2h-75V38.5z"/>
	<path class="st1" d="M460.4,38.5h75v78.2h-75L460.4,38.5z"/>
	<path class="st2" d="M470.5,49h54.9v57.2h-54.9L470.5,49z"/>
	<path class="st0" d="M470.5,106.6c0,0-0.5,0.6-1.4,1.6c-0.9,0.9-2.1,2.2-3.5,3.5c-1.4,1.4-2.6,2.6-3.6,3.4
		c-0.9,0.9-1.5,1.4-1.6,1.3s0.5-0.6,1.4-1.5s2.1-2.2,3.5-3.5c1.4-1.4,2.7-2.6,3.6-3.4C469.9,107,470.5,106.5,470.5,106.6z
		 M525.4,106.4c0,0,0.6,0.5,1.6,1.4c0.9,0.9,2.2,2.1,3.5,3.5c1.4,1.4,2.6,2.6,3.4,3.6c0.9,0.9,1.4,1.5,1.3,1.6c0,0-0.6-0.5-1.5-1.4
		s-2.2-2.1-3.5-3.5c-1.4-1.4-2.6-2.7-3.4-3.6C525.8,107,525.3,106.5,525.4,106.4L525.4,106.4z M525.2,49.1c0,0,0.5-0.6,1.4-1.6
		c0.9-0.9,2.1-2.2,3.5-3.5c1.4-1.4,2.6-2.6,3.6-3.4c0.9-0.9,1.5-1.4,1.6-1.3c0,0-0.5,0.6-1.4,1.5s-2.1,2.2-3.5,3.5
		c-1.4,1.4-2.7,2.6-3.6,3.4C525.8,48.7,525.3,49.2,525.2,49.1z M470.4,49.3c0,0-0.6-0.5-1.6-1.4c-0.9-0.9-2.2-2.1-3.5-3.5
		c-1.4-1.4-2.6-2.6-3.4-3.6c-0.9-0.9-1.4-1.5-1.3-1.6c0,0,0.6,0.5,1.5,1.4s2.2,2.1,3.5,3.5c1.4,1.4,2.6,2.7,3.4,3.6
		C469.9,48.7,470.4,49.2,470.4,49.3z"/>
	<path class="st0" d="M525.2,106.2V90.3c0-10-0.1-24.3-0.1-41.4l0.2,0.2h-54.7l0.2-0.2v57.2l-0.2-0.2c16.4,0,30.1,0.1,39.6,0.1H525
		C525.1,106.2,525.2,106.2,525.2,106.2l-14.9,0c-9.6,0-23.3,0.1-39.7,0.1h-0.2V48.7h55.1v0.2c0,17.1-0.1,31.5-0.1,41.5v15.4
		C525.2,106.1,525.2,106.2,525.2,106.2z"/>
	<path class="st1" d="M485,72.9c0,0-1.2,14.2,14.2,14.2C499.1,79.5,492.9,73.5,485,72.9z"/>
	<path class="st1" d="M513,72.9c0,0-14.2-1.2-14.2,14.2C506.4,87.1,512.4,80.8,513,72.9z"/>
	<path class="st0" d="M498.5,65.1c0,0-11.6,10.4,0.6,21.9C504.8,81,504.3,71.6,498.5,65.1z M359.5,88h75v78.2h-75V88z"/>
	<path class="st1" d="M354.4,88h75v78.2h-75V88z"/>
	<path class="st2" d="M364.5,98.5h54.9v57.2h-54.9V98.5z"/>
	<path class="st0" d="M364.5,156.1c0,0-0.5,0.6-1.4,1.6c-0.9,0.9-2.1,2.2-3.5,3.5c-1.4,1.4-2.6,2.6-3.6,3.4
		c-0.9,0.9-1.5,1.4-1.6,1.3c0,0,0.5-0.6,1.4-1.5s2.1-2.2,3.5-3.5c1.4-1.4,2.7-2.6,3.6-3.4C363.9,156.6,364.5,156,364.5,156.1
		L364.5,156.1z M419.4,155.9c0,0,0.6,0.5,1.6,1.4c0.9,0.9,2.2,2.1,3.5,3.5c1.4,1.4,2.6,2.6,3.4,3.6c0.9,0.9,1.4,1.5,1.3,1.6
		c0,0-0.6-0.5-1.5-1.4s-2.2-2.1-3.5-3.5c-1.4-1.4-2.6-2.7-3.4-3.6C419.8,156.6,419.3,156,419.4,155.9z M419.2,98.7
		c0,0,0.5-0.6,1.4-1.6c0.9-0.9,2.1-2.2,3.5-3.5c1.4-1.4,2.6-2.6,3.6-3.4c0.9-0.9,1.5-1.4,1.6-1.3c0,0-0.5,0.6-1.4,1.5
		s-2.1,2.2-3.5,3.5c-1.4,1.4-2.7,2.6-3.6,3.4C419.8,98.2,419.2,98.7,419.2,98.7z M364.3,98.8c0,0-0.6-0.5-1.6-1.4
		c-0.9-0.9-2.2-2.1-3.5-3.5c-1.4-1.4-2.6-2.6-3.4-3.6c-0.9-0.9-1.4-1.5-1.3-1.6c0,0,0.6,0.5,1.5,1.4s2.2,2.1,3.5,3.5
		c1.4,1.4,2.6,2.7,3.4,3.6S364.4,98.8,364.3,98.8z"/>
	<path class="st0" d="M419.2,155.7v-15.9c0-10-0.1-24.3-0.1-41.4l0.2,0.2h-54.7l0.2-0.2v57.2l-0.2-0.2c16.4,0,30.1,0.1,39.6,0.1H419
		C419.1,155.7,419.2,155.7,419.2,155.7l-14.9,0c-9.6,0-23.3,0.1-39.7,0.1h-0.2V98.2h55.1v0.2c0,17.1-0.1,31.5-0.1,41.5v15.4
		C419.2,155.6,419.2,155.7,419.2,155.7L419.2,155.7z"/>
	<path class="st1" d="M379,122.4c0,0-1.2,14.2,14.2,14.2C393.1,129,386.9,123,379,122.4z"/>
	<path class="st1" d="M407,122.4c0,0-14.2-1.2-14.2,14.2C400.4,136.6,406.4,130.3,407,122.4z"/>
	<path class="st0" d="M392.5,114.7c0,0-11.6,10.4,0.6,21.9C398.8,130.6,398.3,121.1,392.5,114.7z"/>
</g>
<g id="Device">
	<path class="st6" d="M625.2,451H150.4c-8,0-14.6-6.5-14.6-14.6v-304c0-8,6.5-14.6,14.6-14.6h474.8c8,0,14.6,6.5,14.6,14.6v304.1
		C639.7,444.5,633.2,451,625.2,451L625.2,451z"/>
	<path class="st6" d="M644.3,458.7H133.9c-9.8,0-17.8-8-17.8-17.8v-11.4h546v11.4C662.1,450.7,654.1,458.7,644.3,458.7z"/>
	<path class="st7" d="M149.4,131h475.5v281.4H149.4V131z M338.1,426.4l6.8,10.8h95.3l6.3-10.8H338.1z"/>
	<path class="st1" d="M612.7,411.5H162.4c-1.8,0-3.3-1.5-3.3-3.3V143.8c0-1.8,1.5-3.3,3.3-3.3h450.3c1.8,0,3.3,1.5,3.3,3.3v264.4
		C616,410.1,614.5,411.5,612.7,411.5L612.7,411.5z"/>
	<path class="st7" d="M196.6,151c0,2-1.6,3.6-3.6,3.6s-3.6-1.6-3.6-3.6s1.6-3.6,3.6-3.6S196.6,149,196.6,151z M174.5,151
		c0,2-1.6,3.6-3.6,3.6s-3.6-1.6-3.6-3.6s1.6-3.6,3.6-3.6S174.5,149,174.5,151z M185.1,151c0,2-1.6,3.6-3.6,3.6s-3.6-1.6-3.6-3.6
		s1.6-3.6,3.6-3.6S185.1,149,185.1,151z M635.4,426.4c0,0.2-111.8,0.3-249.8,0.3s-249.8-0.1-249.8-0.3c0-0.2,111.8-0.3,249.8-0.3
		S635.4,426.2,635.4,426.4z"/>
	<path class="st3" d="M344.3,187.7h246.8v70.7H344.3V187.7z"/>
	<path class="st2" d="M615.5,411.5H158.7l0.5-252h456.3V411.5z"/>
	<path class="st1" d="M344.3,187.2h246.8v70.7H344.3V187.2z M344.3,374h246.8v37.5H344.3V374z"/>
	<path class="st8" d="M351.7,251.8l0.3-57.6l76.7,0.4l-0.3,57.6L351.7,251.8z"/>
	<path class="st8" d="M351.7,251.8l26.9-35.7l16.5,22.5l11.3-11.9l22,25.5L351.7,251.8z M402.3,211.8c0,3.3-2.7,6-6.1,6
		c-3.3,0-6-2.7-6-6.1c0-3.3,2.7-6,6.1-6C399.6,205.8,402.3,208.5,402.3,211.8z"/>
	<path class="st9" d="M351.7,251.8l26.9-35.7l16.5,22.5l11.3-11.9l22,25.5L351.7,251.8z M402.3,211.8c0,3.3-2.7,6-6.1,6
		c-3.3,0-6-2.7-6-6.1c0-3.3,2.7-6,6.1-6C399.6,205.8,402.3,208.5,402.3,211.8z"/>
	<path class="st8" d="M187.6,411.5h-28.9l0.5-252h28.4V411.5z"/>
	<path class="st4" d="M165.3,174.5l8.4,3.7l7.2-3.7l-7.8-4.1L165.3,174.5z"/>
	<path class="st4" d="M167.5,177.8l-2.2,1.2l7.8,3.9l7.8-3.7l-2.5-1.4l-5.3,2.5L167.5,177.8z"/>
	<path class="st4" d="M167.5,182.5l-2.2,1.3l7.8,3.8l7.8-3.7l-2.5-1.4l-5.3,2.6L167.5,182.5z"/>
	<path class="st7" d="M267.3,197.8v4.9h-0.9l-2.5-3v3h-1.1v-4.9h0.9l2.4,3v-3H267.3z M268.3,197.8c0-0.3,0.3-0.6,0.7-0.6
		s0.7,0.3,0.7,0.6c0,0.4-0.3,0.6-0.7,0.6S268.3,198.2,268.3,197.8z M268.4,199h1.1v3.8h-1.1V199z M270.2,200.9
		c0-1.1,0.9-1.9,2.1-1.9c0.8,0,1.4,0.3,1.7,1l-0.9,0.5c-0.2-0.4-0.5-0.5-0.9-0.5c-0.6,0-1,0.4-1,1c0,0.7,0.4,1,1,1
		c0.3,0,0.6-0.2,0.9-0.5l0.9,0.5c-0.3,0.6-0.9,1-1.7,1C271.1,202.8,270.2,202,270.2,200.9z M276.3,201.3l-0.5,0.5v1h-1.1v-5.2h1.1v3
		l1.6-1.5h1.3l-1.6,1.6l1.7,2.2h-1.3L276.3,201.3z M283.1,200.6v2.2H282v-2c0-0.6-0.3-0.9-0.8-0.9s-0.9,0.3-0.9,1v1.9h-1.1V199h1
		v0.4c0.3-0.3,0.7-0.5,1.3-0.5C282.5,198.9,283.1,199.4,283.1,200.6L283.1,200.6z M287.5,200.6v2.2h-1v-0.5
		c-0.2,0.3-0.6,0.5-1.2,0.5c-0.9,0-1.4-0.5-1.4-1.1c0-0.7,0.5-1.1,1.6-1.1h0.9c0-0.5-0.3-0.7-0.9-0.7c-0.4,0-0.8,0.1-1.1,0.4
		l-0.4-0.8c0.4-0.3,1-0.5,1.6-0.5C286.8,198.9,287.5,199.5,287.5,200.6L287.5,200.6z M286.4,201.6v-0.4h-0.8c-0.5,0-0.7,0.2-0.7,0.4
		c0,0.3,0.2,0.5,0.6,0.5S286.2,201.9,286.4,201.6z M294.8,200.6v2.2h-1.1v-2c0-0.6-0.3-0.9-0.7-0.9c-0.5,0-0.8,0.3-0.8,1v1.9h-1.1
		v-2c0-0.6-0.3-0.9-0.7-0.9c-0.5,0-0.8,0.3-0.8,1v1.9h-1.1V199h1v0.4c0.3-0.3,0.7-0.5,1.2-0.5s1,0.2,1.2,0.6
		c0.3-0.4,0.8-0.6,1.4-0.6C294.2,198.9,294.8,199.4,294.8,200.6L294.8,200.6z M299.6,201.2h-2.9c0.1,0.5,0.5,0.8,1.1,0.8
		c0.4,0,0.7-0.1,0.9-0.4l0.6,0.6c-0.4,0.4-0.9,0.6-1.6,0.6c-1.3,0-2.2-0.8-2.2-1.9c0-1.1,0.9-1.9,2-1.9s2,0.7,2,2
		C299.6,201,299.6,201.1,299.6,201.2L299.6,201.2z M296.7,200.5h1.9c-0.1-0.5-0.4-0.8-0.9-0.8C297.1,199.7,296.8,200.1,296.7,200.5z
		 M299.7,202.8h3.5v0.6h-3.5V202.8z"/>
	<path class="st0" d="M319.8,408.1c-0.1,0-0.3-52.2-0.3-116.6s0.1-116.6,0.3-116.6c0.1,0,0.3,52.2,0.3,116.6S320,408.1,319.8,408.1z
		"/>
	<path class="st8" d="M451.4,202.7c0,0.9-0.8,1.4-1.9,1.4s-1.9-0.5-1.9-1.4c0-0.5,0.3-0.8,0.7-1.1c-0.3-0.2-0.5-0.5-0.5-0.9
		c0-0.8,0.7-1.3,1.7-1.3s1.8,0.5,1.8,1.3c0,0.4-0.2,0.7-0.5,0.9C451.1,201.9,451.4,202.2,451.4,202.7L451.4,202.7z M450.3,202.7
		c0-0.4-0.3-0.6-0.9-0.6c-0.5,0-0.8,0.2-0.8,0.6c0,0.4,0.3,0.7,0.8,0.7C450,203.3,450.3,203.1,450.3,202.7z M448.8,200.8
		c0,0.3,0.3,0.6,0.7,0.6c0.4,0,0.7-0.2,0.7-0.6c0-0.4-0.3-0.6-0.7-0.6C449,200.2,448.8,200.4,448.8,200.8z M451.8,201.1
		c0-0.4,0.3-0.6,0.6-0.6s0.6,0.2,0.6,0.6c0,0.4-0.3,0.6-0.6,0.6S451.8,201.5,451.8,201.1z M451.8,203.4c0-0.4,0.3-0.6,0.6-0.6
		s0.6,0.2,0.6,0.6c0,0.4-0.3,0.6-0.6,0.6C452.1,204.1,451.8,203.8,451.8,203.4z M456.9,203.2v0.9h-3.4v-0.7l1.7-1.6
		c0.4-0.4,0.5-0.6,0.5-0.8c0-0.4-0.2-0.6-0.7-0.6c-0.4,0-0.7,0.1-0.9,0.5l-0.8-0.5c0.3-0.5,1-0.8,1.8-0.8c1,0,1.7,0.5,1.7,1.3
		c0,0.4-0.1,0.8-0.8,1.4l-1,1L456.9,203.2L456.9,203.2z M457.3,201.8c0-1.5,0.8-2.3,1.9-2.3s1.9,0.8,1.9,2.3s-0.8,2.3-1.9,2.3
		C458.2,204.1,457.3,203.2,457.3,201.8z M460.1,201.8c0-1-0.4-1.5-0.9-1.5s-0.9,0.4-0.9,1.5c0,1,0.4,1.5,0.9,1.5
		C459.8,203.2,460.1,202.8,460.1,201.8z M466.8,202v2h-0.9v-0.4c-0.2,0.3-0.5,0.5-1.1,0.5c-0.8,0-1.3-0.5-1.3-1.1s0.4-1,1.5-1h0.8
		c0-0.4-0.3-0.7-0.8-0.7c-0.4,0-0.7,0.1-1,0.3l-0.4-0.7c0.4-0.3,0.9-0.4,1.5-0.4C466.2,200.5,466.8,201,466.8,202L466.8,202z
		 M465.8,202.9v-0.4h-0.7c-0.5,0-0.6,0.2-0.6,0.4c0,0.3,0.2,0.4,0.6,0.4C465.4,203.4,465.7,203.2,465.8,202.9z M473.6,202v2h-1v-1.8
		c0-0.6-0.3-0.8-0.7-0.8c-0.5,0-0.8,0.3-0.8,0.9v1.7h-1v-1.8c0-0.6-0.2-0.8-0.7-0.8c-0.4,0-0.8,0.3-0.8,0.9v1.7h-1v-3.5h1v0.4
		c0.3-0.3,0.6-0.5,1.1-0.5s0.9,0.2,1.1,0.6c0.3-0.4,0.7-0.6,1.3-0.6C473,200.5,473.6,201,473.6,202L473.6,202z"/>
	<path class="st7" d="M407.6,178.4c0,0.1-13.7,0.3-30.5,0.3s-30.5-0.1-30.5-0.3s13.6-0.3,30.5-0.3
		C394,178.2,407.6,178.3,407.6,178.4z M407.6,271.7c0,0.1-13.7,0.3-30.5,0.3s-30.5-0.1-30.5-0.3s13.6-0.3,30.5-0.3
		S407.6,271.6,407.6,271.7z M570.1,216.1c0,0.1-28,0.3-62.6,0.3s-62.6-0.1-62.6-0.3c0-0.1,28-0.3,62.6-0.3S570.1,215.9,570.1,216.1z
		 M572.3,226.8c0,0.1-28.2,0.3-63,0.3s-63-0.1-63-0.3c0-0.1,28.2-0.3,63-0.3C544.1,226.6,572.3,226.7,572.3,226.8z M515.3,237.6
		c0,0.1-15.6,0.3-34.8,0.3c-19.2,0-34.8-0.1-34.8-0.3s15.6-0.3,34.8-0.3C499.7,237.3,515.3,237.4,515.3,237.6z"/>
	<path class="st1" d="M344.3,290.7h246.8v70.7H344.3V290.7z"/>
	<path class="st8" d="M351.6,354.9l0.3-57.6l76.7,0.4l-0.3,57.6L351.6,354.9z"/>
	<path class="st8" d="M351.7,354.8l26.9-35.7l16.5,22.5l11.3-11.9l22,25.5L351.7,354.8z M402.3,314.9c0,3.3-2.7,6-6.1,6
		c-3.3,0-6-2.7-6-6.1c0-3.3,2.7-6,6.1-6C399.6,308.8,402.3,311.5,402.3,314.9z"/>
	<path class="st9" d="M351.7,354.8l26.9-35.7l16.5,22.5l11.3-11.9l22,25.5L351.7,354.8z M402.3,314.9c0,3.3-2.7,6-6.1,6
		c-3.3,0-6-2.7-6-6.1c0-3.3,2.7-6,6.1-6C399.6,308.8,402.3,311.5,402.3,314.9z"/>
	<path class="st8" d="M449.3,302.5v4.5h-1v-3.7h-0.9v-0.8H449.3z M450.1,304.8c0-1.5,0.8-2.3,1.9-2.3s1.9,0.8,1.9,2.3
		s-0.8,2.3-1.9,2.3S450.1,306.3,450.1,304.8z M452.9,304.8c0-1-0.4-1.5-0.9-1.5s-0.9,0.4-0.9,1.5c0,1,0.4,1.5,0.9,1.5
		C452.6,306.2,452.9,305.8,452.9,304.8z M454.5,304.1c0-0.4,0.3-0.6,0.6-0.6s0.6,0.2,0.6,0.6s-0.3,0.6-0.6,0.6
		C454.7,304.8,454.5,304.5,454.5,304.1z M454.5,306.5c0-0.4,0.3-0.6,0.6-0.6s0.6,0.2,0.6,0.6s-0.3,0.6-0.6,0.6
		C454.7,307.1,454.5,306.8,454.5,306.5z M459.6,306.2v0.9h-3.4v-0.7l1.7-1.6c0.4-0.4,0.5-0.6,0.5-0.8c0-0.4-0.2-0.6-0.7-0.6
		c-0.4,0-0.7,0.1-0.9,0.5l-0.8-0.5c0.3-0.5,1-0.8,1.8-0.8c1,0,1.7,0.5,1.7,1.3c0,0.4-0.1,0.8-0.8,1.4l-1,1L459.6,306.2L459.6,306.2z
		 M460,304.8c0-1.5,0.8-2.3,1.9-2.3s1.9,0.8,1.9,2.3s-0.8,2.3-1.9,2.3S460,306.3,460,304.8z M462.8,304.8c0-1-0.4-1.5-0.9-1.5
		s-0.9,0.4-0.9,1.5c0,1,0.4,1.5,0.9,1.5C462.4,306.2,462.8,305.8,462.8,304.8z M469.5,305.1v2h-0.9v-0.4c-0.2,0.3-0.5,0.5-1.1,0.5
		c-0.8,0-1.3-0.5-1.3-1.1s0.4-1,1.5-1h0.8c0-0.4-0.3-0.7-0.8-0.7c-0.4,0-0.7,0.1-1,0.3l-0.4-0.7c0.4-0.3,0.9-0.4,1.5-0.4
		C468.9,303.5,469.5,304,469.5,305.1L469.5,305.1z M468.5,305.9v-0.4h-0.7c-0.5,0-0.6,0.2-0.6,0.4c0,0.3,0.2,0.4,0.6,0.4
		C468.1,306.4,468.4,306.3,468.5,305.9z M476.3,305.1v2h-1v-1.8c0-0.6-0.3-0.8-0.7-0.8c-0.5,0-0.8,0.3-0.8,0.9v1.7h-1v-1.8
		c0-0.6-0.2-0.8-0.7-0.8c-0.4,0-0.8,0.3-0.8,0.9v1.7h-1v-3.5h1v0.4c0.3-0.3,0.6-0.5,1.1-0.5s0.9,0.2,1.1,0.6
		c0.3-0.4,0.7-0.6,1.3-0.6C475.7,303.5,476.3,304,476.3,305.1L476.3,305.1z"/>
	<path class="st7" d="M570.1,319.1c0,0.1-28,0.3-62.6,0.3s-62.6-0.1-62.6-0.3s28-0.3,62.6-0.3C542.1,318.9,570.1,319,570.1,319.1z
		 M572.3,329.9c0,0.1-28.2,0.3-63,0.3s-63-0.1-63-0.3s28.2-0.3,63-0.3S572.3,329.7,572.3,329.9z M515.3,340.6
		c0,0.1-15.6,0.3-34.8,0.3c-19.2,0-34.8-0.1-34.8-0.3c0-0.1,15.6-0.3,34.8-0.3C499.7,340.3,515.3,340.5,515.3,340.6z"/>
	<path class="st8" d="M451.7,389.4H451v0.9h-1v-0.9h-2.4v-0.7l2.1-2.9h1.1l-2,2.7h1.2v-0.8h1v0.8h0.7L451.7,389.4L451.7,389.4z
		 M452,387.4c0-0.4,0.3-0.6,0.6-0.6s0.6,0.2,0.6,0.6s-0.3,0.6-0.6,0.6C452.3,388.1,452,387.8,452,387.4z M452,389.8
		c0-0.4,0.3-0.6,0.6-0.6s0.6,0.2,0.6,0.6s-0.3,0.6-0.6,0.6S452,390.1,452,389.8z M457.1,389.5v0.9h-3.4v-0.7l1.7-1.6
		c0.4-0.4,0.5-0.6,0.5-0.8c0-0.4-0.2-0.6-0.7-0.6c-0.4,0-0.7,0.1-0.9,0.5l-0.8-0.5c0.3-0.5,1-0.8,1.8-0.8c1,0,1.7,0.5,1.7,1.3
		c0,0.4-0.1,0.8-0.8,1.4l-1,1L457.1,389.5L457.1,389.5z M457.6,388.1c0-1.5,0.8-2.3,1.9-2.3s1.9,0.8,1.9,2.3s-0.8,2.3-1.9,2.3
		S457.6,389.6,457.6,388.1z M460.4,388.1c0-1-0.4-1.5-0.9-1.5s-0.9,0.4-0.9,1.5c0,1,0.4,1.5,0.9,1.5
		C460,389.5,460.4,389.1,460.4,388.1z M467.8,388.6c0,1.1-0.8,1.8-1.7,1.8c-0.4,0-0.8-0.1-1-0.4v1.6h-1v-4.7h1v0.4
		c0.3-0.3,0.6-0.5,1.1-0.5C467,386.8,467.8,387.5,467.8,388.6L467.8,388.6z M466.8,388.6c0-0.6-0.4-1-0.9-1s-0.9,0.4-0.9,1
		s0.4,1,0.9,1S466.8,389.2,466.8,388.6z M474.3,388.3v2h-1v-1.8c0-0.6-0.3-0.8-0.7-0.8c-0.5,0-0.8,0.3-0.8,0.9v1.7h-1v-1.8
		c0-0.6-0.2-0.8-0.7-0.8c-0.4,0-0.8,0.3-0.8,0.9v1.7h-1v-3.5h1v0.4c0.3-0.3,0.6-0.5,1.1-0.5s0.9,0.2,1.1,0.6
		c0.3-0.4,0.7-0.6,1.3-0.6C473.7,386.8,474.3,387.3,474.3,388.3L474.3,388.3z"/>
	<path class="st7" d="M570.1,402.4c0,0.1-28,0.3-62.6,0.3s-62.6-0.1-62.6-0.3s28-0.3,62.6-0.3C542.1,402.2,570.1,402.3,570.1,402.4z
		"/>
	<path class="st8" d="M352,380.5l-0.2,31h76.6l0.3-30.6L352,380.5z"/>
	<path class="st8" d="M402.3,398.2c0,3.3-2.7,6-6.1,6c-3.3,0-6-2.7-6-6.1c0-3.3,2.7-6,6.1-6C399.6,392.1,402.3,394.8,402.3,398.2z"
		/>
	<path class="st9" d="M402.3,398.2c0,3.3-2.7,6-6.1,6c-3.3,0-6-2.7-6-6.1c0-3.3,2.7-6,6.1-6C399.6,392.1,402.3,394.8,402.3,398.2z"
		/>
	<path class="st10" d="M371.7,411.5h13.6l-6.7-9.1L371.7,411.5z"/>
	<path class="st7" d="M290.8,297.9c0,0.1-11.8,0.3-26.3,0.3s-26.3-0.1-26.3-0.3c0-0.1,11.8-0.3,26.3-0.3
		C279.1,297.7,290.8,297.8,290.8,297.9z"/>
	<path class="st0" d="M265.2,303.8c0,0.1-6,0.3-13.5,0.3c-7.4,0-13.5-0.1-13.5-0.3s6-0.3,13.5-0.3S265.2,303.7,265.2,303.8z"/>
	<path class="st7" d="M290.8,259.2c0,0.1-11.8,0.3-26.3,0.3s-26.3-0.1-26.3-0.3c0-0.1,11.8-0.3,26.3-0.3
		C279.1,258.9,290.8,259,290.8,259.2z"/>
	<path class="st0" d="M265.2,265c0,0.1-6,0.3-13.5,0.3c-7.4,0-13.5-0.1-13.5-0.3c0-0.1,6-0.3,13.5-0.3
		C259.2,264.8,265.2,264.9,265.2,265z"/>
	<path class="st7" d="M288.9,339.3c0,0.1-11.8,0.3-26.3,0.3s-26.3-0.1-26.3-0.3s11.8-0.3,26.3-0.3
		C277.2,339,288.9,339.1,288.9,339.3z"/>
	<path class="st0" d="M263.3,345.1c0,0.1-6,0.3-13.5,0.3c-7.4,0-13.5-0.1-13.5-0.3c0-0.1,6-0.3,13.5-0.3
		C257.3,344.9,263.3,345,263.3,345.1z"/>
	<path class="st7" d="M290.8,380c0,0.1-11.8,0.3-26.3,0.3s-26.3-0.1-26.3-0.3s11.8-0.3,26.3-0.3C279.1,379.7,290.8,379.8,290.8,380z
		"/>
	<path class="st0" d="M265.2,385.8c0,0.1-6,0.3-13.5,0.3c-7.4,0-13.5-0.1-13.5-0.3c0-0.1,6-0.3,13.5-0.3
		C259.2,385.6,265.2,385.7,265.2,385.8z"/>
	<circle class="st0" cx="215.2" cy="381.4" r="12"/>
	<path class="st8" d="M206.7,389.8l4.7-1.1h6.6l5.8,1.1c0,0-3.4,3.9-9,3.6C209.1,393.1,206.7,389.8,206.7,389.8z"/>
	<path class="st10" d="M206.7,389.8l4.7-1.1h6.6l5.8,1.1c0,0-3.4,3.9-9,3.6C209.1,393.1,206.7,389.8,206.7,389.8z"/>
	<path class="st11" d="M214.8,392.7c1.9,0,3.4-1.7,3.2-3.6c-0.1-0.6-0.1-1.1-0.1-1.1s2.6-0.4,2.6-3.1c0-2.6-0.5-8.7-0.5-8.7
		c-3.1-1.3-6.6-0.8-9.2,1.2l-0.4,0.3l1,11.8C211.6,391.4,213.1,392.7,214.8,392.7L214.8,392.7z"/>
	<path class="st12" d="M218,388c0,0-1.7,0.1-3.4-1c0,0,0.9,1.9,3.5,1.6L218,388z"/>
	<path class="st11" d="M210.9,380.5c0,0-1.8-0.5-1.7,1.3s1.9,1.4,1.9,1.3C211,383.1,210.9,380.5,210.9,380.5L210.9,380.5z"/>
	<path class="st12" d="M210.4,382.5c-0.1,0.1-0.2,0.1-0.3,0.1c-0.2-0.1-0.4-0.4-0.4-0.7c0-0.2,0-0.3,0.1-0.5c0-0.1,0.1-0.2,0.2-0.3
		c0.1,0,0.2,0,0.2,0.1v0.1v-0.1c0,0,0-0.1-0.1-0.1h-0.2c-0.1,0-0.3,0.1-0.3,0.3c-0.1,0.1-0.1,0.3-0.1,0.5c0,0.4,0.2,0.7,0.5,0.8
		C210.2,382.6,210.3,382.6,210.4,382.5L210.4,382.5z"/>
	<path class="st7" d="M219.2,380.6c0,0.2-0.2,0.4-0.4,0.4s-0.4-0.1-0.4-0.3c0-0.2,0.2-0.4,0.4-0.4
		C219.1,380.3,219.2,380.4,219.2,380.6z M219.6,380c0,0-0.3-0.2-0.7-0.2s-0.7,0.2-0.7,0.2s0-0.1,0.2-0.2c0.1-0.1,0.3-0.2,0.6-0.2
		s0.5,0.1,0.6,0.2C219.6,379.9,219.7,380,219.6,380L219.6,380z M215.3,380.6c0,0.2-0.2,0.4-0.4,0.4s-0.4-0.1-0.4-0.3
		c0-0.2,0.2-0.4,0.4-0.4S215.3,380.4,215.3,380.6z M215.7,380.1c0,0-0.3-0.2-0.7-0.2s-0.7,0.2-0.7,0.2s0-0.1,0.2-0.2
		c0.1-0.1,0.3-0.2,0.6-0.2s0.5,0.1,0.6,0.2C215.6,380,215.7,380.1,215.7,380.1L215.7,380.1z M217.2,383.1c0,0,0.2-0.1,0.7-0.1
		c0.1,0,0.2,0,0.2-0.1s0-0.2-0.1-0.3c-0.1-0.2-0.2-0.5-0.3-0.8c-0.4-1.1-0.8-2-0.7-2.1c0,0,0.4,0.9,0.9,2c0.1,0.3,0.2,0.5,0.3,0.8
		c0,0.1,0.1,0.2,0.1,0.4c0,0.1-0.1,0.1-0.2,0.2H217.2z M216,383.4c0.1,0,0.1,0.4,0.5,0.7c0.4,0.3,0.8,0.3,0.9,0.3
		c0,0-0.1,0.1-0.3,0.1s-0.5-0.1-0.7-0.2c-0.2-0.2-0.3-0.4-0.3-0.6C215.9,383.5,215.9,383.4,216,383.4L216,383.4z M215.7,378.5
		c0,0.1-0.4,0.1-0.9,0.1c-0.5,0.1-0.9,0.2-0.9,0.1c0,0,0-0.2,0.2-0.3c0.2-0.1,0.4-0.2,0.7-0.2s0.5,0,0.7,0.1
		S215.8,378.4,215.7,378.5L215.7,378.5z M219.5,378.8c-0.1,0.1-0.4,0-0.7,0s-0.6,0.1-0.7,0c0,0,0-0.1,0.1-0.2s0.3-0.2,0.6-0.2
		c0.2,0,0.4,0.1,0.5,0.2C219.5,378.7,219.5,378.8,219.5,378.8L219.5,378.8z"/>
	<path class="st7" d="M221.4,374.6c0-0.3-0.1-0.7-0.4-0.9c-0.3-0.2-0.7-0.2-0.9,0.1c0.1-0.4-0.2-0.9-0.7-1c-0.4,0-0.8,0.3-1.2,0.4
		s-0.8,0-1.2-0.1c-0.4-0.2-0.8-0.4-1.2-0.5c-0.8-0.3-1.8-0.2-2.6,0.1c-0.8,0.4-1.4,1.1-1.7,1.9c-0.6-0.2-1.2,0.1-1.6,0.6
		c-0.4,0.5-0.4,1.1-0.4,1.7l0.3,1.2v0.1c0,1.4,0.2,3.2,0.8,3.2c1.1,0,0.8-2,0.8-2c1.3-0.5,0.8-2.5,1.1-2.8s1-1,3.8,0.4
		c1.1,0.5,2.5,0.5,3.3,0.3h0.1c0.2-0.1,0.5-0.2,0.7-0.3c0.2-0.2,0.5-0.4,0.6-0.7c0.1-0.3,0.1-0.6-0.2-0.8
		C221.2,375.2,221.3,374.9,221.4,374.6L221.4,374.6z"/>
	<path class="st7" d="M227.2,381.4c-0.1,0,0-1.1-0.5-2.9s-1.7-4.4-4.4-6.5c-1.3-1-3-1.8-5-2.2c-1.9-0.3-4.1-0.3-6.2,0.5
		c-1,0.4-2,0.9-3,1.6c-0.9,0.7-1.8,1.5-2.5,2.5c-1.4,1.9-2.3,4.4-2.3,6.9s0.8,5,2.3,6.9c0.7,1,1.5,1.8,2.5,2.5
		c0.9,0.7,1.9,1.2,3,1.6c2.1,0.8,4.2,0.9,6.2,0.5c1.9-0.3,3.6-1.2,5-2.2c2.7-2,3.9-4.7,4.4-6.5C227.2,382.5,227.1,381.4,227.2,381.4
		v0.8c0,0.3,0,0.6-0.1,0.9c0,0.4-0.1,0.8-0.2,1.3c-0.4,1.8-1.6,4.6-4.3,6.7c-1.4,1-3.1,1.9-5.1,2.3s-4.3,0.3-6.4-0.5
		c-1.1-0.4-2.1-0.9-3.1-1.7c-1-0.7-1.9-1.6-2.6-2.6c-1.5-2-2.4-4.6-2.4-7.2c0-2.7,0.9-5.2,2.4-7.2c0.7-1,1.6-1.9,2.6-2.6
		s2-1.3,3.1-1.7c2.2-0.8,4.4-0.9,6.4-0.5s3.7,1.3,5.1,2.3c2.8,2.1,3.9,4.9,4.3,6.7c0.1,0.5,0.2,0.9,0.2,1.3c0.1,0.4,0.1,0.7,0.1,0.9
		V381.4L227.2,381.4z"/>
	<g id="XMLID_35_">
		<path id="XMLID_44_" class="st8" d="M226.7,393.4c-3.1,0-5.7-2.5-5.7-5.7c0-3.1,2.5-5.7,5.7-5.7c3.1,0,5.7,2.5,5.7,5.7
			C232.3,390.9,229.8,393.4,226.7,393.4z"/>
		<path id="XMLID_36_" class="st4" d="M226.7,384.1c-2,0-3.6,1.6-3.6,3.6s1.6,3.6,3.6,3.6s3.6-1.6,3.6-3.6
			C230.3,385.8,228.7,384.1,226.7,384.1z M226.7,384.8c0.7,0,1.3,0.2,1.8,0.6c-0.4,0.5-0.9,0.8-1.5,1.1c-0.3-0.6-0.7-1.1-1.1-1.6
			C226.2,384.8,226.4,384.8,226.7,384.8z M225.3,385.1c0.4,0.5,0.8,1.1,1.1,1.6c-0.7,0.2-1.6,0.3-2.6,0.3
			C224,386.2,224.5,385.5,225.3,385.1z M223.7,387.8C223.7,387.7,223.7,387.7,223.7,387.8c1.2-0.1,2.2-0.2,3-0.5
			c0.1,0.1,0.1,0.3,0.2,0.4c-1,0.3-1.9,1-2.5,2C223.9,389.1,223.7,388.5,223.7,387.8z M226.7,390.7c-0.7,0-1.3-0.2-1.8-0.6
			c0.6-0.9,1.4-1.5,2.3-1.8c0.3,0.7,0.5,1.5,0.6,2.2C227.4,390.7,227,390.7,226.7,390.7L226.7,390.7z M228.3,390.2
			c-0.1-0.7-0.3-1.4-0.6-2.1c0.6-0.1,1.2-0.1,1.9,0.1C229.5,389.1,229,389.8,228.3,390.2L228.3,390.2z M227.5,387.6
			c-0.1-0.2-0.1-0.3-0.2-0.5c0.7-0.3,1.3-0.7,1.7-1.2c0.4,0.5,0.7,1.1,0.7,1.8C228.9,387.5,228.2,387.4,227.5,387.6L227.5,387.6z"/>
	</g>
	<circle class="st0" cx="215.2" cy="340.9" r="12"/>
	<path class="st8" d="M206.7,349.3l4.7-1.1h6.6l5.8,1.1c0,0-3.4,3.9-9,3.6C209.1,352.6,206.7,349.3,206.7,349.3z"/>
	<path class="st10" d="M206.7,349.3l4.7-1.1h6.6l5.8,1.1c0,0-3.4,3.9-9,3.6C209.1,352.6,206.7,349.3,206.7,349.3z"/>
	<path class="st11" d="M214.8,352.1c1.9,0,3.4-1.7,3.2-3.6c-0.1-0.6-0.1-1.1-0.1-1.1s2.6-0.4,2.6-3.1c0-2.6-0.5-8.7-0.5-8.7
		c-3.1-1.3-6.6-0.8-9.2,1.2l-0.4,0.3l1,11.8C211.6,350.8,213.1,352.2,214.8,352.1L214.8,352.1z"/>
	<path class="st12" d="M218,347.5c0,0-1.7,0.1-3.4-1c0,0,0.9,1.9,3.5,1.6L218,347.5z"/>
	<path class="st11" d="M210.9,340c0,0-1.8-0.5-1.7,1.3s1.9,1.4,1.9,1.3C211,342.5,210.9,340,210.9,340L210.9,340z"/>
	<path class="st12" d="M210.4,341.9C210.4,341.9,210.4,342,210.4,341.9c-0.1,0.1-0.2,0.1-0.3,0.1c-0.2-0.1-0.4-0.4-0.4-0.7
		c0-0.2,0-0.3,0.1-0.5c0-0.1,0.1-0.2,0.2-0.3c0.1,0,0.2,0,0.2,0.1v0.1v-0.1c0,0,0-0.1-0.1-0.1h-0.2c-0.1,0-0.3,0.1-0.3,0.3
		c-0.1,0.1-0.1,0.3-0.1,0.5c0,0.4,0.2,0.7,0.5,0.8C210.2,342.1,210.3,342.1,210.4,341.9C210.4,342,210.4,341.9,210.4,341.9
		L210.4,341.9z"/>
	<path class="st7" d="M219.2,340.1c0,0.2-0.2,0.4-0.4,0.4s-0.4-0.1-0.4-0.3c0-0.2,0.2-0.4,0.4-0.4
		C219.1,339.7,219.2,339.9,219.2,340.1z M219.6,339.4c0,0-0.3-0.2-0.7-0.2s-0.7,0.2-0.7,0.2s0-0.1,0.2-0.2c0.1-0.1,0.3-0.2,0.6-0.2
		s0.5,0.1,0.6,0.2C219.6,339.3,219.7,339.4,219.6,339.4L219.6,339.4z M215.3,340.1c0,0.2-0.2,0.4-0.4,0.4s-0.4-0.1-0.4-0.3
		c0-0.2,0.2-0.4,0.4-0.4C215.1,339.7,215.3,339.9,215.3,340.1z M215.7,339.5c0,0-0.3-0.2-0.7-0.2s-0.7,0.2-0.7,0.2s0-0.1,0.2-0.2
		c0.1-0.1,0.3-0.2,0.6-0.2s0.5,0.1,0.6,0.2C215.6,339.4,215.7,339.5,215.7,339.5L215.7,339.5z M217.2,342.5c0,0,0.2-0.1,0.7-0.1
		c0.1,0,0.2,0,0.2-0.1s0-0.2-0.1-0.3c-0.1-0.2-0.2-0.5-0.3-0.8c-0.4-1.1-0.8-2-0.7-2.1c0,0,0.4,0.9,0.9,2c0.1,0.3,0.2,0.5,0.3,0.8
		c0,0.1,0.1,0.3,0.1,0.4s-0.1,0.1-0.2,0.2h-0.2C217.4,342.6,217.2,342.6,217.2,342.5z M216,342.8c0.1,0,0.1,0.4,0.5,0.7
		c0.4,0.3,0.8,0.3,0.9,0.3c0,0-0.1,0.1-0.3,0.1s-0.5-0.1-0.7-0.2c-0.2-0.2-0.3-0.4-0.3-0.6C215.9,342.9,215.9,342.8,216,342.8
		L216,342.8z M215.7,338c0,0.1-0.4,0.1-0.9,0.1c-0.5,0.1-0.9,0.2-0.9,0.1c0,0,0-0.2,0.2-0.3c0.2-0.1,0.4-0.2,0.7-0.2s0.5,0,0.7,0.1
		C215.7,337.8,215.8,337.9,215.7,338L215.7,338z M219.5,338.3c-0.1,0.1-0.4,0-0.7,0s-0.6,0.1-0.7,0c0,0,0-0.1,0.1-0.2
		s0.3-0.2,0.6-0.2c0.2,0,0.4,0.1,0.5,0.2C219.5,338.1,219.5,338.2,219.5,338.3L219.5,338.3z"/>
	<path class="st7" d="M221.4,334c0-0.3-0.1-0.7-0.4-0.9c-0.3-0.2-0.7-0.2-0.9,0.1c0.1-0.4-0.2-0.9-0.7-1c-0.4,0-0.8,0.3-1.2,0.4
		s-0.8,0-1.2-0.1c-0.4-0.2-0.8-0.4-1.2-0.5c-0.8-0.3-1.8-0.2-2.6,0.1c-0.8,0.4-1.4,1.1-1.7,1.9c-0.6-0.2-1.2,0.1-1.6,0.6
		c-0.4,0.5-0.4,1.1-0.4,1.7l0.3,1.2v0.1c0,1.4,0.2,3.2,0.8,3.2c1.1,0,0.8-2,0.8-2c1.3-0.5,0.8-2.5,1.1-2.8s1-1,3.8,0.4
		c1.1,0.5,2.5,0.5,3.3,0.3h0.1c0.2-0.1,0.5-0.2,0.7-0.3c0.2-0.2,0.5-0.4,0.6-0.7c0.1-0.3,0.1-0.6-0.2-0.8
		C221.2,334.7,221.3,334.4,221.4,334L221.4,334z"/>
	<path class="st7" d="M227.2,340.9c-0.1,0,0-1.1-0.5-2.9s-1.7-4.4-4.4-6.5c-1.3-1-3-1.8-5-2.2c-1.9-0.3-4.1-0.3-6.2,0.5
		c-1,0.4-2,0.9-3,1.6c-0.9,0.7-1.8,1.5-2.5,2.5c-1.4,1.9-2.3,4.4-2.3,6.9s0.8,5,2.3,6.9c0.7,1,1.5,1.8,2.5,2.5
		c0.9,0.7,1.9,1.2,3,1.6c2.1,0.8,4.2,0.9,6.2,0.5c1.9-0.3,3.6-1.2,5-2.2c2.7-2,3.9-4.7,4.4-6.5C227.2,342,227.1,340.9,227.2,340.9
		v0.8c0,0.3,0,0.6-0.1,0.9c0,0.4-0.1,0.8-0.2,1.3c-0.4,1.8-1.6,4.6-4.3,6.7c-1.4,1-3.1,1.9-5.1,2.3s-4.3,0.3-6.4-0.5
		c-1.1-0.4-2.1-0.9-3.1-1.7c-1-0.7-1.9-1.6-2.6-2.6c-1.5-2-2.4-4.6-2.4-7.2c0-2.7,0.9-5.2,2.4-7.2c0.7-1,1.6-1.9,2.6-2.6
		s2-1.3,3.1-1.7c2.2-0.8,4.4-0.9,6.4-0.5s3.7,1.3,5.1,2.3c2.8,2.1,3.9,4.9,4.3,6.7c0.1,0.5,0.2,0.9,0.2,1.3c0.1,0.4,0.1,0.7,0.1,0.9
		V340.9L227.2,340.9z"/>
	<path class="st8" d="M232.5,348.1c0,3.3-2.7,6-6,6s-6-2.7-6-6s2.7-6,6-6C229.9,342.2,232.5,344.9,232.5,348.1z"/>
	<path id="XMLID_34_" class="st4" d="M223.8,350.2c0.6,0.4,1.3,0.6,2.1,0.6c2.5,0,3.9-2.1,3.8-4c0.3-0.2,0.5-0.4,0.7-0.7
		c-0.2,0.1-0.5,0.2-0.8,0.2c0.3-0.2,0.5-0.4,0.6-0.7c-0.3,0.2-0.5,0.3-0.9,0.3c-0.2-0.3-0.6-0.4-1-0.4c-0.9,0-1.5,0.8-1.3,1.6
		c-1.1-0.1-2.1-0.6-2.8-1.4c-0.4,0.6-0.2,1.4,0.4,1.8c-0.2,0-0.4-0.1-0.6-0.2c0,0.6,0.4,1.2,1.1,1.3c-0.2,0.1-0.4,0.1-0.6,0
		c0.2,0.5,0.7,0.9,1.3,0.9C225.2,350.1,224.5,350.3,223.8,350.2L223.8,350.2z"/>
	<circle class="st0" cx="215.2" cy="300.5" r="12"/>
	<path class="st8" d="M206.7,308.8l4.7-1.1h6.6l5.8,1.1c0,0-3.4,3.9-9,3.6C209.1,312.1,206.7,308.8,206.7,308.8z"/>
	<path class="st10" d="M206.7,308.8l4.7-1.1h6.6l5.8,1.1c0,0-3.4,3.9-9,3.6C209.1,312.1,206.7,308.8,206.7,308.8z"/>
	<path class="st11" d="M214.8,311.7c1.9,0,3.4-1.7,3.2-3.6c-0.1-0.6-0.1-1.1-0.1-1.1s2.6-0.4,2.6-3.1s-0.5-8.7-0.5-8.7
		c-3.1-1.3-6.6-0.8-9.2,1.2l-0.4,0.3l1,11.8C211.6,310.4,213.1,311.7,214.8,311.7L214.8,311.7z"/>
	<path class="st12" d="M218,307.1c0,0-1.7,0.1-3.4-1c0,0,0.9,1.9,3.5,1.6L218,307.1z"/>
	<path class="st11" d="M210.9,299.6c0,0-1.8-0.5-1.7,1.3s1.9,1.4,1.9,1.3C211,302.1,210.9,299.6,210.9,299.6L210.9,299.6z"/>
	<path class="st12" d="M210.4,301.5c-0.1,0.1-0.2,0.1-0.3,0.1c-0.2-0.1-0.4-0.4-0.4-0.7c0-0.2,0-0.3,0.1-0.5c0-0.1,0.1-0.2,0.2-0.3
		c0.1,0,0.2,0,0.2,0.1v0.1v-0.1c0,0,0-0.1-0.1-0.1h-0.2c-0.1,0-0.3,0.1-0.3,0.3c-0.1,0.1-0.1,0.3-0.1,0.5c0,0.4,0.2,0.7,0.5,0.8
		C210.2,301.7,210.3,301.6,210.4,301.5L210.4,301.5z"/>
	<path class="st7" d="M219.2,299.7c0,0.2-0.2,0.4-0.4,0.4s-0.4-0.1-0.4-0.3c0-0.2,0.2-0.4,0.4-0.4
		C219.1,299.3,219.2,299.5,219.2,299.7z M219.6,299c0,0-0.3-0.2-0.7-0.2s-0.7,0.2-0.7,0.2s0-0.1,0.2-0.2c0.1-0.1,0.3-0.2,0.6-0.2
		s0.5,0.1,0.6,0.2C219.6,298.9,219.7,299,219.6,299L219.6,299z M215.3,299.7c0,0.2-0.2,0.4-0.4,0.4s-0.4-0.1-0.4-0.3
		c0-0.2,0.2-0.4,0.4-0.4C215.1,299.3,215.3,299.5,215.3,299.7z M215.7,299.1c0,0-0.3-0.2-0.7-0.2s-0.7,0.2-0.7,0.2s0-0.1,0.2-0.2
		c0.1-0.1,0.3-0.2,0.6-0.2s0.5,0.1,0.6,0.2C215.6,299,215.7,299.1,215.7,299.1L215.7,299.1z M217.2,302.1c0,0,0.2-0.1,0.7-0.1
		c0.1,0,0.2,0,0.2-0.1s0-0.2-0.1-0.3c-0.1-0.2-0.2-0.5-0.3-0.8c-0.4-1.1-0.8-2-0.7-2.1c0,0,0.4,0.9,0.9,2c0.1,0.3,0.2,0.5,0.3,0.8
		c0,0.1,0.1,0.2,0.1,0.4c0,0.1-0.1,0.1-0.2,0.2H217.2z M216,302.4c0.1,0,0.1,0.4,0.5,0.7c0.4,0.3,0.8,0.3,0.9,0.3
		c0,0-0.1,0.1-0.3,0.1s-0.5-0.1-0.7-0.2c-0.2-0.2-0.3-0.4-0.3-0.6C215.9,302.5,215.9,302.4,216,302.4L216,302.4z M215.7,297.5
		c0,0.1-0.4,0.1-0.9,0.1c-0.5,0.1-0.9,0.2-0.9,0.1c0,0,0-0.2,0.2-0.3c0.2-0.1,0.4-0.2,0.7-0.2s0.5,0,0.7,0.1
		S215.8,297.5,215.7,297.5L215.7,297.5z M219.5,297.8c-0.1,0.1-0.4,0-0.7,0s-0.6,0.1-0.7,0c0,0,0-0.1,0.1-0.2s0.3-0.2,0.6-0.2
		c0.2,0,0.4,0.1,0.5,0.2C219.5,297.7,219.5,297.8,219.5,297.8L219.5,297.8z"/>
	<path class="st7" d="M221.4,293.6c0-0.3-0.1-0.7-0.4-0.9c-0.3-0.2-0.7-0.2-0.9,0.1c0.1-0.4-0.2-0.9-0.7-1c-0.4,0-0.8,0.3-1.2,0.4
		s-0.8,0-1.2-0.1c-0.4-0.2-0.8-0.4-1.2-0.5c-0.8-0.3-1.8-0.2-2.6,0.1c-0.8,0.4-1.4,1.1-1.7,1.9c-0.6-0.2-1.2,0.1-1.6,0.6
		c-0.4,0.5-0.4,1.1-0.4,1.7l0.3,1.2v0.1c0,1.4,0.2,3.2,0.8,3.2c1.1,0,0.8-2,0.8-2c1.3-0.5,0.8-2.5,1.1-2.8s1-1,3.8,0.4
		c1.1,0.5,2.5,0.5,3.3,0.3h0.1c0.2-0.1,0.5-0.2,0.7-0.3c0.2-0.2,0.5-0.4,0.6-0.7c0.1-0.3,0.1-0.6-0.2-0.8
		C221.2,294.2,221.3,293.9,221.4,293.6L221.4,293.6z"/>
	<path class="st7" d="M227.2,300.5c-0.1,0,0-1.1-0.5-2.9s-1.7-4.4-4.4-6.5c-1.3-1-3-1.8-5-2.2c-1.9-0.3-4.1-0.3-6.2,0.5
		c-1,0.4-2,0.9-3,1.6c-0.9,0.7-1.8,1.5-2.5,2.5c-1.4,1.9-2.3,4.4-2.3,6.9s0.8,5,2.3,6.9c0.7,1,1.5,1.8,2.5,2.5
		c0.9,0.7,1.9,1.2,3,1.6c2.1,0.8,4.2,0.9,6.2,0.5c1.9-0.3,3.6-1.2,5-2.2c2.7-2,3.9-4.7,4.4-6.5C227.2,301.5,227.1,300.5,227.2,300.5
		v0.8c0,0.3,0,0.6-0.1,0.9c0,0.4-0.1,0.8-0.2,1.3c-0.4,1.8-1.6,4.6-4.3,6.7c-1.4,1-3.1,1.9-5.1,2.3s-4.3,0.3-6.4-0.5
		c-1.1-0.4-2.1-0.9-3.1-1.7c-1-0.7-1.9-1.6-2.6-2.6c-1.5-2-2.4-4.6-2.4-7.2c0-2.7,0.9-5.2,2.4-7.2c0.7-1,1.6-1.9,2.6-2.6
		s2-1.3,3.1-1.7c2.2-0.8,4.4-0.9,6.4-0.5s3.7,1.3,5.1,2.3c2.8,2.1,3.9,4.9,4.3,6.7c0.1,0.5,0.2,0.9,0.2,1.3c0.1,0.4,0.1,0.7,0.1,0.9
		V300.5L227.2,300.5z"/>
	<g id="XMLID_28_">
		<path id="XMLID_31_" class="st8" d="M226.6,314.7c-3.4,0-6.2-2.8-6.2-6.2c0-3.4,2.8-6.2,6.2-6.2s6.2,2.8,6.2,6.2
			C232.8,311.9,230,314.7,226.6,314.7z"/>
		<path id="XMLID_29_" class="st4" d="M225.6,312.2h1.5v-3.8h1.1l0.1-1.3h-1.2v-0.7c0-0.3,0.1-0.4,0.3-0.4h0.8v-1.3h-1
			c-1.1,0-1.6,0.5-1.6,1.4v1h-0.8v1.3h0.8L225.6,312.2L225.6,312.2z"/>
	</g>
	<circle class="st0" cx="216.4" cy="260.2" r="12"/>
	<path class="st8" d="M207.8,268.5l4.7-1.1h6.6l5.8,1.1c0,0-3.4,3.9-9,3.6C210.2,271.8,207.8,268.5,207.8,268.5z"/>
	<path class="st10" d="M207.8,268.5l4.7-1.1h6.6l5.8,1.1c0,0-3.4,3.9-9,3.6C210.2,271.8,207.8,268.5,207.8,268.5z"/>
	<path class="st11" d="M215.9,271.4c1.9,0,3.4-1.7,3.2-3.6c-0.1-0.6-0.1-1.1-0.1-1.1s2.6-0.4,2.6-3.1s-0.5-8.7-0.5-8.7
		c-3.1-1.3-6.6-0.8-9.2,1.2l-0.4,0.3l1,11.8C212.7,270.1,214.2,271.4,215.9,271.4L215.9,271.4z"/>
	<path class="st12" d="M219.1,266.8c0,0-1.7,0.1-3.4-1c0,0,0.9,1.9,3.5,1.6L219.1,266.8z"/>
	<path class="st11" d="M212,259.3c0,0-1.8-0.5-1.7,1.3s1.9,1.4,1.9,1.3C212.1,261.8,212,259.3,212,259.3L212,259.3z"/>
	<path class="st12" d="M211.5,261.2c-0.1,0.1-0.2,0.1-0.3,0.1c-0.2-0.1-0.4-0.4-0.4-0.7c0-0.2,0-0.3,0.1-0.5c0-0.1,0.1-0.2,0.2-0.3
		c0.1,0,0.2,0,0.2,0.1v0.1v-0.1c0,0,0-0.1-0.1-0.1H211c-0.1,0-0.3,0.1-0.3,0.3c-0.1,0.1-0.1,0.3-0.1,0.5c0,0.4,0.2,0.7,0.5,0.8
		C211.3,261.4,211.4,261.3,211.5,261.2L211.5,261.2z"/>
	<path class="st7" d="M220.4,259.4c0,0.2-0.2,0.4-0.4,0.4s-0.4-0.1-0.4-0.3c0-0.2,0.2-0.4,0.4-0.4
		C220.2,259,220.4,259.2,220.4,259.4z M220.8,258.7c0,0-0.3-0.2-0.7-0.2s-0.7,0.2-0.7,0.2s0-0.1,0.2-0.2c0.1-0.1,0.3-0.2,0.6-0.2
		s0.5,0.1,0.6,0.2C220.7,258.6,220.8,258.7,220.8,258.7L220.8,258.7z M216.4,259.3c0,0.2-0.2,0.4-0.4,0.4s-0.4-0.1-0.4-0.3
		c0-0.2,0.2-0.4,0.4-0.4S216.4,259.2,216.4,259.3z M216.8,258.8c0,0-0.3-0.2-0.7-0.2s-0.7,0.2-0.7,0.2s0-0.1,0.2-0.2
		c0.1-0.1,0.3-0.2,0.6-0.2s0.5,0.1,0.6,0.2L216.8,258.8L216.8,258.8z M218.3,261.8c0,0,0.2-0.1,0.7-0.1c0.1,0,0.2,0,0.2-0.1
		s0-0.2-0.1-0.3c-0.1-0.2-0.2-0.5-0.3-0.8c-0.4-1.1-0.8-2-0.7-2.1c0,0,0.4,0.9,0.9,2c0.1,0.3,0.2,0.5,0.3,0.8c0,0.1,0.1,0.2,0.1,0.4
		c0,0.1-0.1,0.1-0.2,0.2H218.3z M217.1,262.1c0.1,0,0.1,0.4,0.5,0.7c0.4,0.3,0.8,0.3,0.9,0.3c0,0-0.1,0.1-0.3,0.1s-0.5-0.1-0.7-0.2
		c-0.2-0.2-0.3-0.4-0.3-0.6C217,262.2,217.1,262.1,217.1,262.1L217.1,262.1z M216.9,257.2c0,0.1-0.4,0.1-0.9,0.1
		c-0.5,0.1-0.9,0.2-0.9,0.1c0,0,0-0.2,0.2-0.3c0.2-0.1,0.4-0.2,0.7-0.2s0.5,0,0.7,0.1L216.9,257.2L216.9,257.2z M220.6,257.5
		c-0.1,0.1-0.4,0-0.7,0s-0.6,0.1-0.7,0c0,0,0-0.1,0.1-0.2s0.3-0.2,0.6-0.2c0.2,0,0.4,0.1,0.5,0.2
		C220.6,257.4,220.6,257.5,220.6,257.5L220.6,257.5z"/>
	<path class="st7" d="M222.5,253.3c0-0.3-0.1-0.7-0.4-0.9c-0.3-0.2-0.7-0.2-0.9,0.1c0.1-0.4-0.2-0.9-0.7-1c-0.4,0-0.8,0.3-1.2,0.4
		c-0.4,0.1-0.8,0-1.2-0.1c-0.4-0.2-0.8-0.4-1.2-0.5c-0.8-0.3-1.8-0.2-2.6,0.1c-0.8,0.4-1.4,1.1-1.7,1.9c-0.6-0.2-1.2,0.1-1.6,0.6
		c-0.4,0.5-0.4,1.1-0.4,1.7l0.3,1.2v0.1c0,1.4,0.2,3.2,0.8,3.2c1.1,0,0.8-2,0.8-2c1.3-0.5,0.8-2.5,1.1-2.8s1-1,3.8,0.4
		c1.1,0.5,2.5,0.5,3.3,0.3h0.1c0.2-0.1,0.5-0.2,0.7-0.3c0.2-0.2,0.5-0.4,0.6-0.7s0.1-0.6-0.2-0.8
		C222.3,253.9,222.5,253.6,222.5,253.3L222.5,253.3z"/>
	<path class="st7" d="M228.3,260.2c-0.1,0,0-1.1-0.5-2.9c-0.5-1.8-1.7-4.4-4.4-6.5c-1.3-1-3-1.8-5-2.2c-1.9-0.3-4.1-0.3-6.2,0.5
		c-1,0.4-2,0.9-3,1.6c-0.9,0.7-1.8,1.5-2.5,2.5c-1.4,1.9-2.3,4.4-2.3,6.9s0.8,5,2.3,6.9c0.7,1,1.5,1.8,2.5,2.5
		c0.9,0.7,1.9,1.2,3,1.6c2.1,0.8,4.2,0.9,6.2,0.5c1.9-0.3,3.6-1.2,5-2.2c2.7-2,3.9-4.7,4.4-6.5C228.3,261.2,228.3,260.2,228.3,260.2
		v0.8c0,0.3,0,0.6-0.1,0.9c0,0.4-0.1,0.8-0.2,1.3c-0.4,1.8-1.6,4.6-4.3,6.7c-1.4,1-3.1,1.9-5.1,2.3s-4.3,0.3-6.4-0.5
		c-1.1-0.4-2.1-0.9-3.1-1.7c-1-0.7-1.9-1.6-2.6-2.6c-1.5-2-2.4-4.6-2.4-7.2c0-2.7,0.9-5.2,2.4-7.2c0.7-1,1.6-1.9,2.6-2.6
		c1-0.7,2-1.3,3.1-1.7c2.2-0.8,4.4-0.9,6.4-0.5s3.7,1.3,5.1,2.3c2.8,2.1,3.9,4.9,4.3,6.7c0.1,0.5,0.2,0.9,0.2,1.3
		c0.1,0.4,0.1,0.7,0.1,0.9C228.4,259.9,228.4,260.2,228.3,260.2L228.3,260.2z"/>
	<g id="XMLID_21_">
		<path id="XMLID_23_" class="st8" d="M227,275.1c-3.4,0-6.2-2.8-6.2-6.2c0-3.4,2.8-6.2,6.2-6.2s6.2,2.8,6.2,6.2
			C233.2,272.3,230.4,275.1,227,275.1z"/>
		<path id="XMLID_22_" class="st4" d="M225,269.5c0.1,0,0.2,0,0.2-0.1s0.1-0.3,0.1-0.3c0-0.1,0-0.1-0.1-0.2
			c-0.2-0.2-0.3-0.5-0.3-0.8c0-1.1,0.8-2,2.1-2c1.1,0,1.8,0.7,1.8,1.6c0,1.2-0.5,2.3-1.3,2.3c-0.4,0-0.8-0.4-0.7-0.8
			c0.1-0.5,0.4-1.1,0.4-1.5c0-0.3-0.2-0.6-0.6-0.6c-0.5,0-0.8,0.5-0.8,1.1c0,0.4,0.1,0.7,0.1,0.7s-0.5,2-0.5,2.3
			c-0.2,0.7,0,1.5,0,1.6s0.1,0.1,0.1,0s0.6-0.7,0.8-1.4c0.1-0.2,0.3-1.2,0.3-1.2c0.1,0.3,0.6,0.5,1,0.5c1.4,0,2.3-1.2,2.3-2.9
			c0-1.3-1.1-2.4-2.7-2.4c-2,0-3,1.4-3,2.6C224.1,268.6,224.4,269.2,225,269.5L225,269.5z"/>
	</g>
	<circle class="st0" cx="225.5" cy="196.1" r="29.9"/>
	<path class="st8" d="M204.1,217l11.8-2.8l16.5-0.1l14.5,2.9c0,0-8.5,9.7-22.4,9C210.1,225.3,204.1,217,204.1,217L204.1,217z"/>
	<path class="st10" d="M204.1,217l11.8-2.8l16.5-0.1l14.5,2.9c0,0-8.5,9.7-22.4,9C210.1,225.3,204.1,217,204.1,217L204.1,217z"/>
	<path class="st11" d="M224.4,224.2c4.8-0.1,8.5-4.2,8.1-8.9c-0.1-1.6-0.2-2.7-0.2-2.7s6.6-1.1,6.6-7.7s-1.3-21.7-1.3-21.7
		c-7.7-3.2-16.5-2-23,3.1l-1,0.8l2.4,29.6C216.4,221,220,224.3,224.4,224.2L224.4,224.2z"/>
	<path class="st12" d="M232.3,212.6c0,0-4.2,0.3-8.6-2.5c0,0,2.1,4.7,8.7,4.1L232.3,212.6L232.3,212.6z"/>
	<path class="st11" d="M214.5,193.9c-0.1,0-4.5-1.3-4.4,3.2c0.2,4.5,4.7,3.4,4.7,3.3C214.8,200.2,214.5,193.9,214.5,193.9z"/>
	<path class="st12" d="M213.4,198.7c0,0-0.1,0.1-0.2,0.1c-0.1,0.1-0.3,0.1-0.6,0c-0.5-0.2-0.9-0.9-1-1.7c0-0.4,0-0.8,0.2-1.1
		c0.1-0.3,0.3-0.6,0.6-0.6c0.2-0.1,0.4,0.1,0.5,0.2c0.1,0.1,0,0.2,0.1,0.2c0,0,0.1-0.1,0-0.3c0-0.1-0.1-0.2-0.2-0.3
		c-0.1-0.1-0.3-0.1-0.4-0.1c-0.3,0-0.6,0.4-0.8,0.7c-0.2,0.4-0.3,0.8-0.2,1.3c0.1,0.9,0.6,1.7,1.2,1.9c0.3,0.1,0.6,0,0.7-0.1
		C213.4,198.8,213.4,198.7,213.4,198.7L213.4,198.7z"/>
	<path class="st7" d="M235.4,194.1c0,0.5-0.4,0.9-0.9,1c-0.5,0-1-0.3-1-0.8s0.4-0.9,0.9-1C235,193.2,235.4,193.6,235.4,194.1z
		 M236.4,192.5c-0.1,0.1-0.8-0.4-1.8-0.4s-1.7,0.5-1.9,0.4c-0.1-0.1,0.1-0.3,0.4-0.5c0.3-0.2,0.9-0.5,1.5-0.5s1.2,0.2,1.5,0.5
		C236.4,192.2,236.5,192.4,236.4,192.5z M225.6,194.1c0,0.5-0.4,0.9-0.9,1c-0.5,0-1-0.3-1-0.8s0.4-0.9,0.9-1
		S225.5,193.6,225.6,194.1z M226.5,192.8c-0.1,0.1-0.8-0.4-1.8-0.4s-1.7,0.5-1.9,0.4c-0.1-0.1,0.1-0.3,0.4-0.5
		c0.3-0.2,0.9-0.5,1.5-0.5s1.2,0.2,1.5,0.5C226.4,192.5,226.5,192.7,226.5,192.8z M230.2,200.2c0-0.1,0.6-0.2,1.6-0.3
		c0.3,0,0.5-0.1,0.5-0.3c0.1-0.2-0.1-0.5-0.2-0.8c-0.2-0.6-0.5-1.3-0.8-2c-1.1-2.8-1.9-5.1-1.8-5.1c0.1,0,1.1,2.2,2.2,5
		c0.3,0.7,0.5,1.3,0.8,2c0.1,0.3,0.3,0.6,0.1,1c-0.1,0.2-0.3,0.3-0.4,0.4c-0.2,0.1-0.3,0.1-0.4,0.1
		C230.9,200.3,230.2,200.3,230.2,200.2L230.2,200.2z M227.2,201c0.2,0,0.2,1.1,1.1,1.9c0.9,0.8,2.1,0.6,2.1,0.8
		c0,0.1-0.3,0.2-0.8,0.2s-1.2-0.1-1.8-0.6s-0.8-1.1-0.9-1.6C227.1,201.2,227.2,201,227.2,201L227.2,201z M226.7,188.8
		c-0.1,0.3-1.1,0.2-2.3,0.3s-2.1,0.5-2.3,0.2c-0.1-0.1,0.1-0.4,0.5-0.6c0.4-0.3,1-0.5,1.7-0.6s1.4,0,1.8,0.2
		C226.5,188.4,226.7,188.7,226.7,188.8L226.7,188.8z M236,189.5c-0.2,0.2-0.9,0-1.7,0s-1.5,0.2-1.7-0.1c-0.1-0.1,0-0.3,0.3-0.6
		c0.3-0.2,0.8-0.4,1.4-0.4c0.6,0,1.1,0.2,1.4,0.4C236,189.2,236.1,189.4,236,189.5L236,189.5z"/>
	<path class="st7" d="M240.8,179c0.1-0.8-0.2-1.7-0.9-2.2s-1.7-0.4-2.2,0.2c0.3-1.1-0.6-2.4-1.8-2.4c-1.1-0.1-2,0.8-3,1.1
		s-2.1,0.1-3.1-0.3s-1.9-0.9-2.9-1.3c-2.1-0.7-4.4-0.6-6.4,0.3c-2,0.9-3.6,2.7-4.3,4.7c-1.4-0.4-3.1,0.3-4,1.5s-1.1,2.8-0.9,4.3
		c0.1,1,0.4,2,0.8,2.9v0.3c0.1,3.6,0.6,7.9,2.1,7.9c2.7,0,2-5.1,2-5.1c3.3-1.3,2-6.3,2.8-7c0.8-0.8,2.5-2.5,9.5,0.9
		c2.7,1.3,6.3,1.3,8.2,0.8h0.3c0.6-0.2,1.2-0.4,1.8-0.8c0.6-0.4,1.2-0.9,1.4-1.6s0.2-1.6-0.4-2.1C240.3,180.6,240.7,179.8,240.8,179
		L240.8,179z"/>
	<path class="st7" d="M255.4,196.1c0,0,0-0.2-0.1-0.5c0-0.3-0.1-0.8-0.1-1.4c0-0.3,0-0.7-0.1-1c0-0.4-0.1-0.8-0.2-1.2
		c-0.1-0.9-0.3-1.9-0.6-3.1c-0.5-2.3-1.6-5-3.3-7.9s-4.2-5.9-7.6-8.4c-3.4-2.5-7.6-4.7-12.5-5.5c-1.2-0.2-2.5-0.4-3.8-0.4
		c-0.6,0-1.3-0.1-1.9-0.1c-0.7,0-1.3,0.1-2,0.1c-0.3,0-0.7,0-1,0.1l-1,0.2c-0.7,0.1-1.3,0.2-2,0.3c-1.3,0.4-2.7,0.6-4,1.2
		c-1.3,0.4-2.6,1.1-3.9,1.7c-0.6,0.3-1.2,0.7-1.8,1.1l-1.8,1.2c-1.2,0.8-2.3,1.9-3.4,2.9c-1,1.1-2,2.2-2.9,3.4
		c-1.8,2.5-3.3,5.2-4.2,8.2c-1,3-1.5,6.1-1.5,9.4c0,3.2,0.6,6.4,1.5,9.4s2.5,5.7,4.2,8.2c0.9,1.3,1.9,2.3,2.9,3.4
		c1.1,1,2.2,2,3.4,2.9c0.6,0.4,1.2,0.9,1.8,1.2c0.6,0.4,1.2,0.8,1.8,1.1c1.3,0.6,2.5,1.3,3.9,1.7c1.3,0.5,2.6,0.8,4,1.2
		c0.7,0.1,1.3,0.2,2,0.3l1,0.2c0.3,0,0.7,0,1,0.1c0.7,0,1.3,0.1,2,0.1s1.3-0.1,1.9-0.1c1.3,0,2.5-0.3,3.8-0.4
		c4.9-0.9,9.1-3,12.5-5.5c3.4-2.6,5.9-5.6,7.6-8.4c1.7-2.9,2.8-5.6,3.3-7.9c0.3-1.1,0.5-2.2,0.6-3.1c0.1-0.5,0.2-0.9,0.2-1.2
		c0-0.4,0-0.7,0.1-1c0-0.6,0.1-1.1,0.1-1.4C255.4,196.3,255.4,196.1,255.4,196.1v3c0,0.4-0.1,0.8-0.2,1.3c-0.1,0.9-0.3,2-0.6,3.1
		c-0.5,2.3-1.6,5.1-3.3,8s-4.2,6-7.6,8.6c-3.4,2.6-7.7,4.8-12.7,5.7c-1.2,0.2-2.5,0.4-3.8,0.5c-0.6,0-1.3,0.1-2,0.1s-1.3-0.1-2-0.1
		c-0.3,0-0.7,0-1-0.1l-1-0.2c-0.7-0.1-1.4-0.2-2-0.3c-1.3-0.4-2.7-0.6-4-1.2c-1.4-0.4-2.6-1.1-3.9-1.7c-0.6-0.3-1.2-0.7-1.9-1.1
		c-0.6-0.4-1.2-0.8-1.8-1.3c-1.2-0.8-2.3-1.9-3.4-2.9c-1-1.1-2.1-2.2-3-3.5c-1.8-2.5-3.4-5.3-4.3-8.3c-1-3-1.5-6.3-1.6-9.5
		c0-3.3,0.6-6.5,1.6-9.5s2.5-5.8,4.3-8.3c0.9-1.3,1.9-2.4,3-3.5c1.1-1,2.2-2.1,3.4-2.9c0.6-0.4,1.2-0.9,1.8-1.3
		c0.6-0.4,1.2-0.8,1.9-1.1c1.3-0.6,2.6-1.3,3.9-1.7c1.3-0.5,2.7-0.8,4-1.2c0.7-0.1,1.4-0.2,2-0.3l1-0.2c0.3,0,0.7,0,1-0.1
		c0.7,0,1.3-0.1,2-0.1s1.3,0.1,2,0.1c1.3,0,2.6,0.3,3.8,0.5c5,0.9,9.3,3.1,12.7,5.7c3.4,2.6,5.9,5.7,7.6,8.6c1.7,2.9,2.8,5.7,3.3,8
		c0.3,1.1,0.5,2.2,0.6,3.1c0.1,0.5,0.1,0.9,0.2,1.3V196.1L255.4,196.1z"/>
	<g id="XMLID_3_">
		<path id="XMLID_20_" class="st8" d="M251.8,235c-8.2,0-14.9-6.7-14.9-14.9s6.7-14.9,14.9-14.9s14.9,6.7,14.9,14.9
			C266.6,228.3,260,235,251.8,235L251.8,235z"/>
		<g id="XMLID_4_">
			<path id="XMLID_15_" class="st4" d="M251.8,213.4h3.3c0.8,0,1.2,0.2,1.5,0.3c0.4,0.1,0.7,0.3,0.9,0.6c0.3,0.3,0.5,0.6,0.6,0.9
				c0.1,0.3,0.2,0.7,0.3,1.5v6.6c0,0.8-0.2,1.2-0.3,1.5c-0.1,0.4-0.3,0.7-0.6,0.9c-0.3,0.3-0.6,0.5-0.9,0.6s-0.7,0.2-1.5,0.3h-6.6
				c-0.8,0-1.2-0.2-1.5-0.3c-0.4-0.1-0.7-0.3-0.9-0.6c-0.3-0.3-0.5-0.6-0.6-0.9c-0.1-0.3-0.2-0.7-0.3-1.5v-6.6
				c0-0.8,0.2-1.2,0.3-1.5c0.1-0.4,0.3-0.7,0.6-0.9c0.3-0.3,0.6-0.5,0.9-0.6c0.3-0.1,0.7-0.2,1.5-0.3H251.8 M251.8,212h-3.4
				c-0.9,0-1.5,0.2-2,0.4s-1,0.5-1.4,0.9c-0.5,0.5-0.7,0.9-0.9,1.4s-0.3,1.1-0.4,2v6.8c0,0.9,0.2,1.5,0.4,2s0.5,1,0.9,1.4
				c0.5,0.5,0.9,0.7,1.4,0.9s1.1,0.3,2,0.4h6.8c0.9,0,1.5-0.2,2-0.4s1-0.5,1.4-0.9c0.5-0.5,0.7-0.9,0.9-1.4c0.2-0.5,0.3-1.1,0.4-2
				v-6.8c0-0.9-0.2-1.5-0.4-2s-0.5-1-0.9-1.4c-0.5-0.5-0.9-0.7-1.4-0.9s-1.1-0.3-2-0.4H251.8"/>
			<path id="XMLID_8_" class="st4" d="M251.8,215.9c-2.3,0-4.2,1.9-4.2,4.2s1.9,4.2,4.2,4.2s4.2-1.9,4.2-4.2
				S254.1,215.9,251.8,215.9 M251.8,222.8c-1.5,0-2.7-1.2-2.7-2.7s1.2-2.7,2.7-2.7s2.7,1.2,2.7,2.7S253.3,222.8,251.8,222.8"/>
			<path id="XMLID_5_" class="st4" d="M257.1,215.8c0,0.5-0.4,1-1,1c-0.5,0-1-0.4-1-1c0-0.5,0.4-1,1-1S257.1,215.2,257.1,215.8"/>
		</g>
	</g>
</g>
<path id="Floor" class="st7" d="M700.8,458.7c0,0.1-150.7,0.3-336.6,0.3c-186,0-336.7-0.1-336.7-0.3c0-0.1,150.7-0.3,336.7-0.3
	C550.1,458.4,700.8,458.5,700.8,458.7z"/>
<g id="Character">
	<path class="st8" d="M479.7,420.5l-17.1,21c0,0-27.1-10.4-30.6-6.8l39.4,34.7l28-31.6L479.7,420.5L479.7,420.5z"/>
	<path class="st0" d="M476,449.7c0.6,0.9,0.4,2.2-0.5,2.8c-0.9,0.6-2.2,0.4-2.8-0.5c-0.6-0.9-0.4-2.5,0.6-3c0.9-0.5,2.5-0.2,2.9,0.8
		"/>
	<path class="st7" d="M435,433.2c-0.1,0.1,8.6,7.5,19.4,16.4c10.8,9,19.7,16.1,19.8,16c0.1-0.1-8.6-7.5-19.4-16.4
		C444,440.2,435.1,433.1,435,433.2z M462.1,440.7c-0.2,0.2,0.7,1.1,1.1,2.6s0.2,2.7,0.4,2.8c0.2,0.1,0.9-1.3,0.4-3.1
		C463.6,441.3,462.2,440.5,462.1,440.7z M456.4,438.8c-0.2,0.1,0.3,1.2,0.3,2.6s-0.6,2.4-0.4,2.6s1.3-0.8,1.3-2.6
		C457.7,439.7,456.6,438.6,456.4,438.8L456.4,438.8z M449.7,441.7c0.1,0.2,1.3-0.5,1.7-2c0.4-1.5-0.1-2.7-0.3-2.6
		c-0.2,0.1-0.2,1.2-0.5,2.4C450.2,440.6,449.5,441.5,449.7,441.7L449.7,441.7z M466.6,436.3c-0.1,0.2,1.1,0.8,2.1,1.8
		c1.1,1,1.6,2.1,1.8,2.1c0.2,0,0-1.5-1.2-2.7S466.6,436.1,466.6,436.3L466.6,436.3z M469.7,431.3c-0.1,0.1,0.6,0.9,2,1.7
		c0.7,0.4,1.6,0.9,2.6,1.2c0.5,0.2,1.1,0.3,1.7,0.4c0.3,0,0.6,0.1,1,0.1s1-0.4,1-1c0.1-0.5-0.2-0.9-0.5-1.2
		c-0.3-0.3-0.6-0.4-0.8-0.6c-0.5-0.3-1.1-0.5-1.6-0.7c-1.1-0.3-2.1-0.4-2.9-0.4c-1.7,0-2.6,0.5-2.6,0.6s1-0.1,2.6,0
		c0.8,0.1,1.7,0.2,2.7,0.6c0.5,0.2,1,0.4,1.5,0.7c0.5,0.3,0.9,0.6,0.8,0.9c0,0.1,0,0.1-0.2,0.2h-0.7c-0.6-0.1-1.1-0.2-1.6-0.3
		c-1-0.3-1.9-0.6-2.6-1C470.6,431.8,469.8,431.2,469.7,431.3L469.7,431.3z"/>
	<path class="st7" d="M469.7,431.8c0,0.1,1-0.3,2.2-1.5c0.6-0.6,1.2-1.4,1.6-2.4c0.2-0.5,0.4-1.1,0.6-1.7c0.1-0.6,0.3-1.4-0.4-2.1
		c-0.4-0.4-1-0.3-1.3-0.2c-0.4,0.2-0.6,0.4-0.8,0.5c-0.5,0.4-0.9,0.9-1.2,1.3c-0.6,1-0.9,2-1,2.8c-0.1,1.7,0.5,2.7,0.6,2.6
		c0.2,0-0.2-1,0.1-2.5c0.1-0.7,0.4-1.6,1-2.4c0.3-0.4,0.6-0.8,1-1.1c0.4-0.4,0.9-0.6,1-0.4c0.2,0.2,0.3,0.8,0.1,1.3
		c-0.1,0.5-0.3,1-0.5,1.5c-0.4,0.9-0.9,1.7-1.4,2.3C470.5,431.2,469.7,431.7,469.7,431.8L469.7,431.8z"/>
	<path class="st8" d="M542,439.4c0,0-9.4,3.2-18.1,3c-8.2-0.2-26.1,3.2-24.8,13.8c1.4,11.8,25.1,6,34.3,3s18.3-5.8,18.3-5.8
		L542,439.4z"/>
	<path class="st7" d="M522.2,457.2c-0.1,0-0.9-1.7-1.7-4c-0.8-2.2-1.3-4.1-1.2-4.1s0.9,1.7,1.7,4
		C521.8,455.3,522.3,457.1,522.2,457.2z M525.5,456.9c-0.1,0-0.7-1.8-1.3-4.1c-0.6-2.3-1-4.2-0.9-4.2s0.7,1.8,1.3,4.1
		C525.3,455,525.6,456.9,525.5,456.9z M528.5,455.3c-0.1,0-0.6-1.6-1.1-3.6s-0.8-3.7-0.7-3.7s0.6,1.6,1.1,3.6
		C528.4,453.6,528.7,455.3,528.5,455.3z M533.4,453.5c-0.1,0.1-1-1.2-1.6-3c-0.7-1.8-0.9-3.3-0.8-3.3c0.1,0,0.5,1.4,1.2,3.2
		C532.8,452,533.5,453.4,533.4,453.5L533.4,453.5z M533.9,449c0,0,0.4-0.2,1.2-0.2c0.8-0.1,2-0.1,3.5,0.3c0.4,0.1,0.7,0.2,1.1,0.4
		c0.4,0.2,0.7,0.6,0.8,1.1c0.1,1-0.9,1.9-2,1.8s-2-0.7-2.7-1.5c-0.8-0.8-1.4-1.7-1.8-2.8c-0.8-2.1-0.7-4.5,0.3-6.3
		c0.2-0.2,0.4-0.4,0.7-0.5s0.6,0,0.8,0.2c0.4,0.3,0.6,0.8,0.8,1.2c0.2,0.9,0.3,1.7,0.2,2.4c-0.2,1.5-0.8,2.6-1.3,3.2
		c-0.2,0.3-0.5,0.6-0.6,0.7c-0.2,0.1-0.3,0.2-0.3,0.2s0.3-0.3,0.7-1s1-1.7,1.1-3.2c0.1-0.7,0-1.5-0.2-2.3c-0.1-0.4-0.3-0.8-0.6-1
		s-0.7-0.1-0.9,0.3c-0.9,1.6-1,3.8-0.2,5.9c0.4,1,0.9,1.9,1.7,2.6c0.7,0.7,1.5,1.3,2.4,1.4c0.8,0.1,1.7-0.6,1.6-1.4
		c0-0.4-0.3-0.7-0.6-0.8c-0.3-0.2-0.7-0.3-1-0.4c-1.4-0.4-2.6-0.4-3.4-0.4C534.4,449,533.9,449,533.9,449L533.9,449z"/>
	<path class="st7" d="M550.5,451.9c0,0-0.1,0-0.2,0.1c-0.2,0.1-0.4,0.2-0.7,0.3c-0.7,0.2-1.6,0.6-2.7,1c-2.4,0.8-5.8,2-10.1,3.4
		s-9.4,3-15.1,4.5c-2.9,0.7-6,1.5-9.2,1.6c-1.6,0.1-3.3,0-5-0.3c-0.8-0.2-1.7-0.4-2.5-0.8s-1.6-0.7-2.2-1.4c-0.3-0.3-0.7-0.5-1-0.9
		c-1.2-1.5-1.4-3.4-1.1-5.1c0.3-1.8,1.4-3.3,2.6-4.4c1.2-1.2,2.7-2,4.1-2.7c0.7-0.3,1.5-0.7,2.2-0.9c0.7-0.2,1.5-0.5,2.2-0.7
		c5.9-1.7,11.5-1.9,16-2.4c2.3-0.2,4.3-0.5,6.1-0.9s3.3-0.7,4.5-1.1c0.6-0.2,1.1-0.4,1.6-0.5c0.4-0.2,0.8-0.3,1.2-0.5
		c0.3-0.1,0.5-0.2,0.7-0.3c0.2-0.1,0.2-0.1,0.3-0.1c0,0-0.1,0.1-0.2,0.1c-0.2,0.1-0.4,0.2-0.7,0.3c-0.3,0.1-0.7,0.3-1.1,0.5
		c-0.5,0.2-1,0.4-1.6,0.6c-1.2,0.4-2.7,0.8-4.5,1.2c-1.8,0.4-3.9,0.7-6.2,0.9c-4.6,0.6-10.1,0.8-15.9,2.5c-0.7,0.2-1.4,0.5-2.2,0.7
		c-0.7,0.3-1.4,0.6-2.2,0.9c-1.4,0.7-2.8,1.5-4,2.6s-2.2,2.5-2.5,4.2c-0.3,1.6,0,3.4,1,4.7c0.2,0.3,0.6,0.6,0.9,0.8
		c0.6,0.5,1.3,1,2.1,1.3c0.8,0.3,1.6,0.5,2.4,0.7c1.6,0.3,3.3,0.4,4.9,0.3c3.2-0.1,6.3-0.8,9.1-1.5c5.8-1.5,10.9-3,15.2-4.4
		c4.3-1.3,7.7-2.5,10.1-3.2l2.7-0.9c0.3-0.1,0.5-0.2,0.7-0.2L550.5,451.9L550.5,451.9z"/>
	<path class="st7" d="M516,461.8c-0.1,0-0.2-0.9-0.5-2.4s-0.7-3.6-1.3-5.8c-0.6-2.3-1.2-4.3-1.7-5.7c-0.5-1.5-0.8-2.4-0.7-2.4
		c0.1,0,0.5,0.8,1,2.3c0.6,1.4,1.2,3.5,1.8,5.7c0.6,2.3,1,4.4,1.2,5.9S516.1,461.8,516,461.8z"/>
	<path class="st7" d="M501.6,460.8c0,0-0.3-0.3-0.8-0.9s-1.1-1.6-1.5-2.9c-0.2-0.7-0.4-1.4-0.3-2.2c0.1-0.8,0.3-1.6,0.6-2.5
		c0.7-1.7,1.9-3.3,3.5-4.7c1.6-1.4,3.5-2.2,5.2-2.8c1.7-0.6,3.4-0.9,4.7-1.2c1.4-0.3,2.5-0.4,3.3-0.5s1.2-0.2,1.2-0.2h-1.2
		c-0.8,0.1-1.9,0.2-3.3,0.4s-3.1,0.5-4.8,1.1c-1.8,0.6-3.7,1.5-5.4,2.9c-1.7,1.4-3,3.1-3.6,4.9c-0.3,0.9-0.5,1.8-0.6,2.6
		c0,0.9,0.2,1.7,0.4,2.3c0.5,1.3,1.2,2.3,1.7,2.9C501.2,460.7,501.6,460.9,501.6,460.8L501.6,460.8z M539.7,438.3
		c0,0,24.9-38.6,31.2-40.6c6.3-1.9,17.5-3.4,26.9,0s36.7,15,36.7,15l17.2,5.7c15,5,26.1,17.7,29.1,33.3c0,0-21.7,17.8-38.1,14.7
		c-16.4-3.1-61.1-23.2-61.1-23.2c-4.8,2.8-12.5,4.1-16.1,5.6c-10,4.3-15.4,5.5-15.4,5.5L539.7,438.3L539.7,438.3z"/>
	<path class="st6" d="M568.9,437.4c0,0.1,1.1,0.6,3,1.5c2,1,4.4,2.2,7.2,3.5c2.8,1.4,5.4,2.6,7.3,3.4c1.9,0.8,3.1,1.2,3.1,1.2
		c0-0.1-1.1-0.6-3-1.5c-2-1-4.4-2.2-7.2-3.5c-2.8-1.4-5.4-2.6-7.3-3.4C570.1,437.8,568.9,437.3,568.9,437.4z M561.6,420.6
		c0.1,0,0.5-1.3,1.3-3.5c0.8-2.1,2.1-5,3.9-8c1.8-3,3.7-5.5,5.2-7.2s2.5-2.7,2.5-2.8c0,0-0.3,0.2-0.8,0.6s-1.2,1.1-1.9,1.9
		c-1.6,1.7-3.6,4.2-5.4,7.2c-1.8,3-3,6-3.8,8.1c-0.4,1.1-0.6,2-0.8,2.6C561.7,420.2,561.6,420.6,561.6,420.6L561.6,420.6z
		 M568.2,425.9c-0.1,0,0.3,1.8,1.9,3.3c1.6,1.5,3.4,1.8,3.4,1.7c0.1-0.1-1.6-0.7-3-2.1C569,427.4,568.3,425.8,568.2,425.9
		L568.2,425.9z"/>
	<path class="st7" d="M466.6,428.4c0,0,72.8-79.1,76.9-81.3c1.9-1,12.7-11.7,15.4-11.7c3.6,0,7.2,1.2,10,3.5l46.7,44.4l13.7,29.8
		l-29.1,15.7l-39.3-34l-67.8,55.5L466.6,428.4L466.6,428.4z"/>
	<path class="st6" d="M564.3,403.8c0,0,0.2-0.2,0.5-0.6s0.8-0.9,1.4-1.6c1.3-1.3,3.4-3.2,6.5-4.4c1.6-0.6,3.4-1,5.3-0.9
		c2,0.1,4,0.5,6.1,1.1s4.3,1.5,6.6,2.3s4.6,1.7,7.1,2.5c9.7,3.4,18.4,6.5,24.8,8.8c3.1,1.1,5.7,2,7.5,2.6l2.1,0.7
		c0.5,0.2,0.7,0.2,0.7,0.2s-0.2-0.1-0.7-0.3c-0.5-0.2-1.2-0.5-2-0.8c-1.8-0.7-4.4-1.6-7.5-2.8c-6.4-2.3-15.1-5.4-24.8-8.9
		c-2.4-0.9-4.8-1.7-7.1-2.5s-4.5-1.6-6.6-2.3c-2.1-0.6-4.3-1-6.3-1.1s-3.9,0.4-5.5,1c-3.2,1.3-5.3,3.2-6.5,4.6
		c-0.6,0.7-1.1,1.3-1.4,1.7C564.4,403.5,564.3,403.8,564.3,403.8L564.3,403.8z"/>
	<path class="st8" d="M583.6,370.3l-61.3-19.5c-3.8-1.2-6.1-5.1-5.2-9l1.7-7.7l52,2.6l44-31.1c2.7-1.9,5.8-3.2,9.1-3.7l8.7-1.4
		l26.8-7.7l29.8,29.7c2.4,2.4,3.9,5.6,4,9.1l1.4,35.3c0.2,5.3,0,10.7-0.6,16l-5.7,50.3c0,0-1.6,25.9-12.8,21.9c0,0-12.6-24.2-27-33
		s-34.6-15.9-34.6-15.9l3.1-48l-0.4-10.2L583.6,370.3L583.6,370.3z"/>
	<path class="st2" d="M559.3,362.1c0,0-0.1-0.4-0.2-1c-0.1-0.7-0.2-1.7-0.3-2.9c-0.1-1.2,0-2.7,0.1-4.3c0.2-1.6,0.5-3.4,1-5.2
		c1-3.6,2.6-6.7,3.9-8.8c0.7-1,1.3-1.8,1.7-2.4c0.4-0.5,0.7-0.8,0.7-0.8c0.1,0.1-0.9,1.3-2.1,3.4c-1.2,2.1-2.7,5.1-3.7,8.7
		c-0.5,1.8-0.8,3.5-1,5.1s-0.3,3.1-0.2,4.3C559.2,360.6,559.4,362.1,559.3,362.1L559.3,362.1z M538,356.5c0,0-0.1-0.3-0.3-0.8
		s-0.3-1.4-0.4-2.4c-0.3-2-0.3-4.8,0.2-7.9c0.6-3.1,1.7-5.7,2.7-7.4c0.5-0.9,0.9-1.6,1.3-2c0.3-0.5,0.5-0.7,0.6-0.7
		c0.1,0.1-0.6,1.1-1.5,2.9s-1.9,4.4-2.5,7.4s-0.6,5.8-0.4,7.8C537.9,355.2,538.1,356.4,538,356.5L538,356.5z"/>
	<path class="st7" d="M514,312.9l2.4-0.8c0.4-0.1,0.9-0.2,1.3-0.1c2.8,0.6,13.6,3.1,17.7,4c1.1,0.3,2,1,2.5,2l16.6,34.7
		c0.4,0.9,0.2,2-0.5,2.7L514,312.9L514,312.9z"/>
	<path class="st6" d="M514,312.9l18.3,36.8l21.8,5.8l-18.6-36.4c-0.4-0.8-1.2-1.4-2-1.6L514,312.9L514,312.9z"/>
	<path class="st11" d="M512.4,328.9c0.4-0.6-3.8-20-2.6-20.6c1.2-0.5,1.8-0.3,2.6,0.8c0.8,1.2,5.6,12.6,5.6,12.6l2.1-0.8
		c0.6-0.2,1.2-0.3,1.8-0.2c3.2,0.5,13.6,2,13.5,2.4c0,0,0.2,4-3.4,3.2l5.1,1.6c0,0,1.7,3-1.4,3.5h-3.6l5.6,1.1c0,0-0.6,3.1-2.6,3.3
		c-2,0.2-7.5-0.6-7.5-0.6l-1.2,2.7l5.8,11.7l-9.8-3.3c0,0-5.2-2.7-4.8-5.4c0,0-3.8-2.2-3.8-5.1C513.9,336,510.1,332,512.4,328.9
		L512.4,328.9z"/>
	<path class="st12" d="M514.7,328.3c0.1,0.1,0.8-0.6,2.3-1.5c0.7-0.4,1.6-0.9,2.6-1.3s2.2-0.7,3.4-0.7c2.5,0,4.8,0.5,6.4,0.9
		c1.6,0.4,2.6,0.7,2.6,0.6s-0.9-0.5-2.6-1c-1.6-0.5-3.9-1-6.5-1.1c-1.3,0-2.6,0.3-3.6,0.8c-1,0.4-1.9,0.9-2.6,1.4
		C515.4,327.4,514.7,328.2,514.7,328.3L514.7,328.3z M518.3,333.2c0.1,0,0.5-0.8,1.5-1.7c0.5-0.5,1.2-1,2-1.2s1.9-0.2,2.9-0.1
		c2.1,0.3,4,0.8,5.4,1.1c1.4,0.3,2.3,0.4,2.2,0.3c0.1-0.1-0.8-0.3-2.1-0.7c-1.4-0.3-3.2-0.9-5.4-1.2c-1.1-0.1-2.1-0.1-3.1,0.1
		c-1,0.3-1.6,0.9-2.1,1.4C518.5,332.3,518.2,333.1,518.3,333.2L518.3,333.2z M512.7,328.6c0.1,0,0.3-0.6,0.8-1.7
		c0.4-1,1.1-2.5,2.3-3.6s2.7-1.6,3.8-1.9s1.8-0.5,1.7-0.6c0-0.1-0.7,0-1.8,0.2c-1.1,0.3-2.7,0.7-4.1,1.9c-1.3,1.2-1.9,2.8-2.3,3.9
		C512.8,327.9,512.7,328.6,512.7,328.6L512.7,328.6z"/>
	<path class="st11" d="M572,344.6l-16-16.7l-13.2-4.7l-4.1,1.6l-9.6-1.9c-1.5-0.3-2.7,1.4-1.8,2.6l0.3,0.3
		c0.9,0.5,13.4,4.5,13.4,4.5l-16-1.3c0,0-1.7,0.8-0.3,2.1s6.8,2.8,10.3,3.4c1.8,0.4,6.2,2.5,6.2,2.5s-13.3,2.3-13.2,3.3
		s-0.1,1.5,1,1.6s12.4-0.3,14.1,0.1c1.7,0.5,7.7,8.5,10.9,10.2s6.4,0,6.4,0l3,3.2l7.3-10.2"/>
	<path class="st12" d="M570.9,345.3c0,0-0.1,0.1-0.1,0.2c-0.1,0.1-0.2,0.3-0.4,0.5c-0.3,0.5-0.8,1.1-1.4,2c-1.3,1.7-3.1,4.3-5.5,7.5
		h0.2c-0.9-1-1.9-2.1-3-3.2c0,0-0.1-0.1-0.2,0c-1.3,0.6-3,0.9-4.6,0.6c-0.8-0.2-1.6-0.5-2.3-1s-1.4-1.1-2.1-1.8
		c-1.3-1.3-2.7-2.8-4-4.3c-0.7-0.8-1.4-1.5-2.2-2.3c-0.4-0.4-0.8-0.7-1.2-1.1l-0.3-0.2l-0.4-0.2c-0.3-0.1-0.6-0.1-0.8-0.1
		c-2.2-0.2-4.5-0.1-6.8-0.1c-1.2,0-2.3,0-3.5,0.1h-1.8c-0.6,0-1.3,0.1-1.7-0.1c-0.2-0.1-0.2-0.3-0.2-0.6v-0.7c0,0.1,0,0,0,0
		c0.4-0.3,1.1-0.5,1.6-0.6c1.2-0.3,2.4-0.6,3.7-0.9c2.5-0.5,5.1-1,7.7-1.5c0.1,0,0.2-0.2,0.2-0.3c0-0.1-0.1-0.2-0.1-0.2
		c-1.4-0.7-2.7-1.3-4.2-1.9c-0.7-0.3-1.5-0.6-2.3-0.7s-1.5-0.3-2.3-0.5c-1.5-0.4-3-0.8-4.5-1.3c-0.7-0.3-1.5-0.5-2.2-0.9
		c-0.3-0.2-0.7-0.4-1-0.6s-0.5-0.5-0.5-0.8s0.3-0.7,0.7-0.9h-0.1c5.5,0.4,10.9,0.8,16,1.3c0.1,0,0.3-0.1,0.3-0.2s-0.1-0.2-0.2-0.3
		c-2.4-0.8-4.8-1.6-7.2-2.3c-1.2-0.4-2.3-0.8-3.5-1.2c-0.6-0.2-1.1-0.4-1.7-0.6c-0.3-0.1-0.6-0.2-0.8-0.3c-0.1-0.1-0.2-0.1-0.3-0.2
		s-0.1-0.2-0.2-0.3c-0.2-0.5-0.2-1,0.1-1.4s0.8-0.7,1.3-0.7l3.3,0.6c2.2,0.4,4.4,0.8,6.5,1.2h0.1c1.4-0.5,2.8-1.1,4.1-1.6H543
		c4.8,1.7,9.3,3.3,13.2,4.7h-0.1c5,5.2,9,9.3,11.8,12.2c1.4,1.4,2.4,2.5,3.2,3.3l0.8,0.8l0.3,0.3l-0.3-0.3c-0.2-0.2-0.5-0.5-0.8-0.9
		c-0.7-0.8-1.8-1.9-3.1-3.3c-2.7-2.9-6.7-7.1-11.7-12.3h-0.1c-3.9-1.4-8.3-3-13.2-4.7h-0.1c-1.3,0.5-2.7,1-4.1,1.5h0.1
		c-2.1-0.4-4.3-0.8-6.5-1.3c-1.1-0.2-2.2-0.5-3.4-0.6c-0.7,0-1.3,0.3-1.7,0.9c-0.4,0.5-0.5,1.3-0.2,1.9c0.1,0.1,0.2,0.3,0.3,0.4
		s0.3,0.2,0.5,0.3l0.9,0.3c0.6,0.2,1.1,0.4,1.7,0.6c1.2,0.4,2.3,0.8,3.5,1.2c2.4,0.8,4.8,1.5,7.2,2.3l0.1-0.5
		c-5.2-0.4-10.6-0.8-16-1.3h-0.1c-0.3,0.1-0.5,0.3-0.7,0.5s-0.3,0.5-0.3,0.8c0,0.6,0.4,0.9,0.7,1.2c0.3,0.3,0.7,0.5,1.1,0.7
		c0.7,0.4,1.5,0.6,2.3,0.9c1.5,0.5,3.1,0.9,4.6,1.3c0.8,0.2,1.5,0.4,2.3,0.5c0.7,0.1,1.5,0.4,2.2,0.7l4.2,1.8l0.1-0.5
		c-2.6,0.5-5.2,0.9-7.7,1.5c-1.3,0.3-2.5,0.6-3.7,0.9c-0.6,0.2-1.2,0.3-1.8,0.7c-0.1,0.1-0.2,0.1-0.2,0.3v0.8c0,0.2,0,0.3,0.1,0.5
		s0.2,0.4,0.4,0.5c0.7,0.3,1.3,0.2,1.9,0.2h1.8c1.2,0,2.4,0,3.5-0.1c2.3,0,4.6-0.1,6.7,0.1c0.3,0,0.5,0.1,0.8,0.1l0.3,0.1l0.3,0.2
		c0.4,0.3,0.8,0.7,1.2,1l2.2,2.2c1.4,1.5,2.7,2.9,4.1,4.3c0.7,0.6,1.4,1.3,2.1,1.8c0.8,0.5,1.6,0.9,2.5,1.1c1.7,0.4,3.4,0,4.8-0.7
		h-0.2c1.1,1.1,2.1,2.2,3,3.2c0,0.1,0.1,0.1,0.2,0c2.3-3.3,4.1-5.8,5.4-7.6c0.6-0.9,1.1-1.5,1.4-2c0.1-0.2,0.3-0.4,0.3-0.5
		C570.8,345.3,570.9,345.3,570.9,345.3L570.9,345.3z"/>
	<path class="st12" d="M551.2,328.5c0-0.1-0.9-0.4-2.5-1s-3.8-1.4-6.3-2.2c-0.6-0.1-1.2-0.3-1.9-0.4c-3.1-0.6-5.8-1.2-7.9-1.5
		c-2-0.4-3.3-0.6-3.3-0.5s1.2,0.4,3.2,0.8c2,0.5,4.8,1.1,7.8,1.7c0.6,0.1,1.3,0.3,1.9,0.4c2.5,0.8,4.8,1.6,6.4,2.1
		C550.2,328.3,551.1,328.6,551.2,328.5z"/>
	<path class="st8" d="M659.9,328.7l-43,37.3l-44.3-25.3c0,0-14,7.4-11,19.8l39.2,31c11.3,9,27.3,9.2,38.9,0.6l15-11.1l34-28.5
		c0,0,5.6-18.1-6.7-23.7C669.8,323.1,659.9,328.7,659.9,328.7L659.9,328.7z"/>
	<path class="st7" d="M654,333.9c0,0-0.2,0.2-0.7,0.5c-0.5,0.4-1.1,0.9-1.9,1.7c-1.7,1.5-4.2,3.6-7.4,6.4
		c-6.4,5.6-15.7,13.6-27.1,23.4h0.2c-12.6-7.2-27.7-15.9-44.3-25.4l-0.1-0.1l-0.1,0.1c-3.4,1.9-6.7,4.5-9,8
		c-2.2,3.5-3.3,7.9-2.2,12.1v0.1l0.1,0.1c3.9,3.1,8,6.3,12.2,9.6c7.6,6,15,11.9,22.2,17.6c6,5.4,13.2,8.9,20.5,10.3
		c3.7,0.6,7.4,0.7,10.9-0.1c3.5-0.9,6.7-2.3,9.6-3.9c5.9-3.2,10.9-7.2,15.5-11c4.5-3.8,8.7-7.4,12.5-10.6
		c7.6-6.4,13.7-11.6,17.9-15.2c2.1-1.8,3.7-3.1,4.8-4.1c0.5-0.5,0.9-0.8,1.2-1.1c0.3-0.2,0.4-0.4,0.4-0.4s-0.2,0.1-0.4,0.3
		c-0.3,0.2-0.7,0.6-1.3,1c-1.1,0.9-2.7,2.3-4.8,4c-4.2,3.5-10.3,8.7-18,15c-3.8,3.2-8,6.7-12.6,10.5c-4.6,3.7-9.6,7.7-15.5,10.9
		c-2.9,1.6-6.1,3-9.5,3.9c-3.4,0.8-7.1,0.7-10.7,0.1c-7.2-1.4-14.4-4.9-20.3-10.2c-7.2-5.7-14.6-11.6-22.2-17.6
		c-4.2-3.3-8.3-6.6-12.2-9.6l0.1,0.1c-0.5-2-0.5-4.1-0.2-6.1c0.4-2,1.2-3.9,2.2-5.6c2.2-3.4,5.4-5.9,8.8-7.8h-0.2
		c16.6,9.5,31.7,18.1,44.3,25.3l0.1,0.1l0.1-0.1c11.4-9.9,20.6-17.9,27-23.5c3.2-2.8,5.7-5,7.4-6.5c0.8-0.7,1.5-1.3,1.9-1.7
		C653.8,334.1,654,333.9,654,333.9L654,333.9z M661.9,328.1c0.1,0.1,1.6-1.1,4.4-1.8c2.9-0.7,7.1-1,11.4,0.3
		c2.2,0.6,4.1,1.7,5.6,2.9s2.6,2.7,3.5,3.9c0.8,1.2,1.5,2.3,1.9,3c0.5,0.7,0.7,1.1,0.8,1.1l-0.6-1.2c-0.4-0.7-1-1.8-1.8-3.1
		c-0.8-1.2-1.9-2.7-3.5-4c-1.5-1.3-3.5-2.4-5.7-3c-4.5-1.3-8.8-1-11.7-0.2c-1.5,0.4-2.6,0.9-3.3,1.4c-0.4,0.2-0.6,0.4-0.8,0.5
		L661.9,328.1L661.9,328.1z"/>
	<path class="st7" d="M615.3,322.1v1.7c0.1,1.2,0.2,2.8,0.3,4.7c0.2,4,0.4,9.5,0.6,15.5c0.2,6,0.3,11.5,0.4,15.5
		c0.1,1.9,0.1,3.5,0.2,4.7c0.1,1.1,0.1,1.7,0.1,1.7s0.1-0.6,0.1-1.7v-4.7c0-4-0.1-9.5-0.3-15.6s-0.5-11.6-0.8-15.5
		c-0.2-2-0.3-3.6-0.4-4.7C615.4,322.7,615.3,322.1,615.3,322.1L615.3,322.1z M619.8,306c-0.1,0-0.6,0.5-1.2,1.5
		c-0.7,1-1.5,2.4-2.1,4.1c-0.7,1.7-1,3.3-1.2,4.5s-0.2,1.9-0.1,1.9c0.2,0,0.5-2.9,1.8-6.2C618.2,308.5,619.9,306.1,619.8,306z"/>
	<path class="st2" d="M642,390.5c-1.6-2.1-5.3-6.8-10.6-13.8c-2.9-3.8-5.5-7.2-7.5-9.8c-0.9-1.2-1.6-2.2-2.2-3
		c-0.5-0.7-0.8-1.1-0.8-1.1s0.4,0.3,0.9,1c0.6,0.8,1.4,1.7,2.3,2.9c2,2.5,4.6,5.9,7.6,9.7c2.9,3.8,5.5,7.3,7.4,9.8
		C641,388.8,642.1,390.4,642,390.5L642,390.5z M661.1,375.8c0,0-0.4-0.3-1-1c-0.6-0.6-1.6-1.6-2.7-2.8c-2.2-2.4-5.3-5.7-8.5-9.5
		s-6-7.3-8-9.9c-1-1.3-1.8-2.3-2.3-3.1c-0.5-0.7-0.8-1.2-0.8-1.2s0.4,0.4,0.9,1.1c0.6,0.8,1.5,1.8,2.5,3c2.1,2.5,4.9,6,8.2,9.8
		c3.2,3.8,6.2,7.2,8.4,9.6c1,1.2,1.9,2.1,2.6,2.9C660.8,375.3,661.2,375.7,661.1,375.8L661.1,375.8z M681,358.9c0,0-0.4-0.3-1.1-0.9
		c-0.7-0.6-1.7-1.5-2.9-2.6c-2.4-2.2-5.7-5.4-9.1-9c-3.4-3.7-6.3-7.2-8.3-9.7c-1-1.3-1.8-2.4-2.3-3.1s-0.8-1.2-0.8-1.2
		s0.4,0.4,0.9,1.1c0.6,0.8,1.5,1.8,2.5,3c2.1,2.5,5,6,8.4,9.6c3.4,3.7,6.6,6.9,9,9.1c1.1,1.1,2.1,2,2.8,2.7
		C680.6,358.6,681,358.9,681,358.9L681,358.9z M612.6,395.5c-0.1,0,0.3-6.3,1-14.1s1.4-14,1.5-14s-0.3,6.3-1,14.1
		C613.5,389.2,612.8,395.5,612.6,395.5z M602.7,359.7c0.1,0.1-0.9,1.1-2.3,2.8c-1.4,1.7-3.4,4.1-5.4,6.9s-3.8,5.3-5,7.2
		c-1.2,1.9-2,3.1-2,3c0,0,0.1-0.3,0.4-0.9c0.3-0.6,0.7-1.4,1.3-2.3c1.2-1.9,2.9-4.6,4.9-7.3c2.1-2.8,4.1-5.2,5.6-6.8
		c0.8-0.8,1.4-1.5,1.8-1.9C602.4,359.9,602.7,359.7,602.7,359.7L602.7,359.7z M583.7,347.5c0.1,0.1-0.9,1-2.4,2.5s-3.4,3.6-5.5,6.1
		c-2,2.5-3.7,4.8-4.9,6.6c-1.2,1.7-1.9,2.8-1.9,2.8s0.1-0.3,0.4-0.8c0.3-0.5,0.7-1.3,1.2-2.2c1.1-1.8,2.7-4.2,4.8-6.7
		c2-2.5,4.1-4.6,5.6-6c0.8-0.7,1.4-1.3,1.9-1.7C583.4,347.7,583.6,347.5,583.7,347.5L583.7,347.5z M602.9,354.9
		c-0.1,0-0.5-1.8-1.5-4.7c-0.5-1.4-1.2-3.1-2.2-4.9c-0.9-1.8-2.1-3.7-3.4-5.6c-1.4-1.9-2.8-3.5-4.2-5c-1.4-1.4-2.8-2.6-4-3.6
		c-2.4-1.9-4-2.8-4-2.9l1.2,0.6c0.4,0.2,0.8,0.5,1.3,0.8s1.1,0.7,1.7,1.2c1.2,0.9,2.6,2.1,4.1,3.5c1.4,1.4,2.9,3.1,4.3,5
		s2.5,3.8,3.4,5.7c0.9,1.8,1.6,3.5,2.1,5c0.3,0.7,0.4,1.4,0.6,2c0.2,0.6,0.3,1.1,0.4,1.5C602.9,354.4,602.9,354.9,602.9,354.9
		L602.9,354.9z M615.4,345.8c-0.1,0,0.1-1.9-0.1-4.9c-0.1-1.5-0.4-3.3-0.8-5.3c-0.5-1.9-1.1-4.1-2-6.2s-2-4.1-3-5.7
		c-1.1-1.7-2.2-3.1-3.2-4.2c-2-2.3-3.5-3.5-3.4-3.5c0,0,0.4,0.3,1.1,0.8c0.3,0.3,0.7,0.6,1.2,1c0.4,0.4,1,0.9,1.5,1.5
		c1.1,1.1,2.2,2.5,3.3,4.2s2.2,3.7,3.1,5.8c0.9,2.2,1.5,4.3,2,6.3c0.4,2,0.6,3.8,0.7,5.3c0.1,0.8,0,1.5,0,2.1s0,1.1-0.1,1.6
		C615.5,345.4,615.4,345.9,615.4,345.8L615.4,345.8z M642.2,341.1h-1.1c-0.7,0-1.7-0.2-3-0.3c-2.5-0.4-5.9-1.1-9.5-2.3
		c-3.6-1.3-6.8-2.8-9-4c-1.1-0.6-2-1.2-2.5-1.6c-0.6-0.4-0.9-0.6-0.9-0.7s1.4,0.7,3.6,1.9s5.4,2.6,9,3.9c3.6,1.2,7,2,9.4,2.5
		C640.7,340.9,642.2,341,642.2,341.1z M629.4,355.6c0,0.1-0.8,0.1-2-0.1c-1.2-0.1-2.9-0.5-4.7-1s-3.3-1.2-4.4-1.8
		c-1.1-0.6-1.7-1-1.7-1c0.1-0.1,2.7,1.2,6.3,2.3C626.4,355.1,629.4,355.5,629.4,355.6L629.4,355.6z M664.1,325.5h-1.9
		c-1.2,0-3-0.2-5.2-0.4c-4.3-0.4-10.3-1.3-16.8-2.9s-12.2-3.7-16.2-5.3c-2-0.8-3.6-1.6-4.7-2.1c-0.5-0.2-0.9-0.5-1.3-0.6
		c-0.3-0.1-0.4-0.2-0.4-0.3c0,0,0.2,0,0.5,0.2c0.4,0.1,0.8,0.3,1.3,0.5c1.1,0.5,2.7,1.2,4.8,1.9c4.1,1.6,9.7,3.6,16.2,5.2
		c6.4,1.6,12.4,2.5,16.7,3c2.2,0.3,3.9,0.4,5.1,0.5c0.6,0.1,1,0.1,1.4,0.1C663.9,325.5,664.1,325.5,664.1,325.5L664.1,325.5z
		 M678.5,316.1c0,0.1-1.1-0.5-2.7-1.4c-1.7-0.9-4-2.1-6.7-3.2s-5.2-2-7-2.6s-3-0.9-2.9-1c0-0.1,1.2,0.1,3,0.6
		c1.9,0.5,4.4,1.3,7.1,2.4c2.7,1.1,5,2.4,6.7,3.4C677.5,315.4,678.5,316.1,678.5,316.1L678.5,316.1z M690.6,393.7
		c0,0-0.6,0.1-1.7,0.2s-2.6,0.2-4.6,0.2c-1.9,0-4.2-0.1-6.8-0.3c-2.5-0.2-5.3-0.6-8.2-1.2s-5.6-1.4-8-2.2c-2.4-0.8-4.6-1.6-6.3-2.4
		c-1.8-0.8-3.2-1.5-4.1-2c-0.9-0.5-1.5-0.8-1.4-0.8c0,0,0.6,0.2,1.5,0.7c1,0.5,2.4,1.1,4.2,1.8c1.8,0.7,3.9,1.5,6.3,2.3
		c2.4,0.8,5.1,1.5,8,2.1s5.6,1,8.1,1.3c2.5,0.2,4.8,0.4,6.7,0.4h4.5C690,393.7,690.6,393.7,690.6,393.7z M692.8,369.1l-0.9,0.3
		c-0.6,0.1-1.4,0.3-2.5,0.4c-2.1,0.3-5,0.5-8.3,0.4c-3.2-0.1-6.1-0.6-8.2-1.1c-1-0.2-1.9-0.5-2.4-0.7l-0.9-0.3
		c0-0.1,1.3,0.2,3.4,0.6c2.1,0.4,4.9,0.8,8.1,1c3.2,0.1,6.1,0,8.2-0.2C691.5,369.2,692.7,369,692.8,369.1L692.8,369.1z M688.4,413.8
		c0,0-0.3,0-0.7,0.1c-0.5,0-1.2,0.1-2.1,0.1c-0.9,0-2,0.1-3.4,0.1h-4.4c-3.3-0.1-7.2-0.3-11.5-0.7c-4.3-0.4-9.1-1.1-14-2
		s-9.6-2-13.8-3.2s-7.9-2.4-11-3.5c-1.6-0.5-2.9-1.1-4.2-1.6c-1.2-0.5-2.3-0.9-3.1-1.3c-0.8-0.3-1.5-0.6-1.9-0.8
		c-0.4-0.2-0.7-0.3-0.7-0.3s0.2,0.1,0.7,0.2c0.5,0.2,1.2,0.4,2,0.8c0.9,0.3,1.9,0.7,3.1,1.2c1.2,0.4,2.6,1,4.2,1.5
		c3.1,1.1,6.8,2.2,11,3.4c4.2,1.1,8.9,2.2,13.8,3.1c4.9,0.9,9.7,1.5,14,2c4.3,0.4,8.2,0.7,11.5,0.8c1.6,0.1,3.1,0.1,4.4,0.1h5.4
		C688.2,413.7,688.4,413.8,688.4,413.8L688.4,413.8z M687.9,430.3c0,0-0.3,0.2-0.9,0.5c-0.6,0.3-1.5,0.7-2.6,1.1
		c-2.3,0.8-5.5,1.8-9.2,2.2c-3.7,0.5-7,0.4-9.4,0.2c-1.2-0.1-2.2-0.2-2.8-0.4c-0.7-0.1-1-0.2-1-0.2c0-0.1,1.5,0.1,3.9,0.3
		c2.4,0.1,5.7,0.1,9.3-0.3c3.6-0.5,6.8-1.3,9.1-2.1C686.5,430.8,687.9,430.2,687.9,430.3L687.9,430.3z M685.8,443.3
		c0.1,0-0.4,0.7-1.2,1.6s-2.1,2.1-3.6,3.2c-1.6,1.1-3.1,1.8-4.3,2.2c-1.2,0.4-1.9,0.6-1.9,0.5c-0.1-0.2,2.9-1,6-3.1
		C683.7,445.6,685.6,443.2,685.8,443.3L685.8,443.3z"/>
	<path class="st10" d="M613.8,397.4c9.1,5.9,21.2,5.5,31.2,1.4s18.4-11.3,26.5-18.5c6.3-5.6,12.9-11.8,15-20
		c0.4-1.5,0.4-3.4-0.9-4.1c-1.4-0.7-3,0.5-4.1,1.6c-10.5,10.4-22.5,19.2-34.4,28c-4.7,3.4-9.4,6.9-14.6,9.3
		c-5.3,2.4-11.2,3.7-16.9,2.6 M602.1,357.5c4.6-3.2,8.1-5.7,12.7-8.9c0.5-0.3,0.9-0.7,1.2-1.1c0.3-0.5,0.3-1.2-0.2-1.5
		c-4.6,3.5-10.4,5.4-16.1,5.4c-5.8,0-11.5-2-16.1-5.6c-2.2-1.7-4.1-3.7-6.5-5s-5.5-1.8-7.8-0.3l-1.3,0.7l1.7,1.1l3-1.8L602.1,357.5
		L602.1,357.5z"/>
	<path class="st11" d="M648.6,316.2c-8.3,1.6-16.3-4.2-17.3-12.7c-0.3-2.8-0.6-4.8-0.6-4.8s-11.8,0.5-14.2-11s-5.5-38.2-5.5-38.2
		c12.2-8.3,27.9-9.4,41.1-2.8l2,1l6.4,52.3C661.3,307.7,656.1,314.7,648.6,316.2z"/>
	<path class="st12" d="M630.7,298.7c0,0,7.3-1,14.1-7.3c0,0-2,9-13.7,10.2L630.7,298.7L630.7,298.7z"/>
	<path class="st11" d="M654.9,259.9c0.2-0.1,7.4-3.9,8.7,4s-6.9,7.6-7,7.3C656.6,271,654.9,259.9,654.9,259.9z"/>
	<path class="st12" d="M658.6,267.8c0,0,0.2,0.1,0.4,0.1c0.2,0.1,0.6,0.1,1-0.1c0.8-0.4,1.3-1.9,1.1-3.3c-0.1-0.7-0.4-1.4-0.7-1.9
		s-0.8-0.9-1.2-0.9s-0.7,0.3-0.8,0.5s0,0.4,0,0.4s-0.2-0.1-0.2-0.4c0-0.2,0.1-0.4,0.2-0.5c0.2-0.2,0.4-0.3,0.7-0.3
		c0.6-0.1,1.3,0.4,1.6,1c0.4,0.6,0.7,1.3,0.8,2.1c0.2,1.6-0.4,3.2-1.5,3.7c-0.5,0.2-1,0.1-1.3,0C658.6,268,658.6,267.9,658.6,267.8
		L658.6,267.8z"/>
	<path class="st7" d="M616.9,267.8c0.1,0.9,1,1.5,1.9,1.3c0.9-0.1,1.5-0.9,1.4-1.8s-1-1.5-1.9-1.3S616.8,267,616.9,267.8z
		 M616.3,265.2c0.2,0.2,1.3-1,3.1-1.3c1.8-0.4,3.2,0.3,3.4,0c0.1-0.1-0.2-0.5-0.9-0.8c-0.6-0.3-1.7-0.5-2.8-0.3s-1.9,0.8-2.4,1.3
		C616.3,264.7,616.2,265.1,616.3,265.2L616.3,265.2z M634.1,264.5c0.1,0.9,1,1.5,1.9,1.3c0.9-0.1,1.5-0.9,1.4-1.8s-1-1.5-1.9-1.3
		C634.6,262.8,634,263.6,634.1,264.5z M633.7,262.2c0.2,0.2,1.3-1,3.1-1.3c1.8-0.4,3.2,0.3,3.4,0c0.1-0.1-0.2-0.5-0.9-0.8
		c-0.6-0.3-1.7-0.5-2.8-0.3s-1.9,0.8-2.4,1.3C633.7,261.7,633.6,262.1,633.7,262.2L633.7,262.2z M629.8,276.5c0-0.1-1.1-0.1-3,0
		c-0.5,0-0.9,0-1-0.3c-0.2-0.3-0.1-0.8,0-1.4c0.2-1.2,0.4-2.4,0.7-3.7c0.9-5.2,1.5-9.5,1.2-9.6c-0.2,0-1.1,4.2-2,9.4
		c-0.2,1.3-0.4,2.5-0.6,3.7c-0.1,0.5-0.3,1.2,0.1,1.8c0.2,0.3,0.6,0.5,0.9,0.5h0.8C628.7,276.8,629.8,276.6,629.8,276.5L629.8,276.5
		z M635.3,276.7c-0.3,0,0.1,2-1.3,3.6c-1.4,1.7-3.5,1.9-3.4,2.1c0,0.1,0.5,0.3,1.4,0.1c0.9-0.1,2-0.6,2.9-1.7c0.8-1,1.1-2.2,1-3
		C635.7,277.1,635.4,276.7,635.3,276.7L635.3,276.7z M631.9,255.3c0.3,0.4,2-0.1,4.1-0.3s3.9,0.1,4.1-0.4c0.1-0.2-0.3-0.6-1.1-1
		c-0.8-0.3-1.9-0.6-3.2-0.5s-2.4,0.5-3.1,1C632.1,254.7,631.8,255.1,631.9,255.3z M615.9,260c0.4,0.3,1.5-0.3,3-0.6
		c1.4-0.4,2.8-0.3,3-0.7c0.1-0.2-0.2-0.6-0.8-0.9s-1.6-0.4-2.6-0.2s-1.8,0.8-2.2,1.3C615.8,259.4,615.8,259.8,615.9,260L615.9,260z"
		/>
	<path class="st7" d="M603.9,243.3c-0.4-1.4-0.2-3,0.8-4.1s2.8-1.4,4-0.5c-0.9-1.8,0.2-4.3,2.2-4.8c1.8-0.5,3.7,0.6,5.6,0.8
		c1.9,0.1,3.7-0.6,5.2-1.7c1.6-1,3-2.3,4.6-3.2c3.3-2,7.5-2.6,11.3-1.7c3.8,0.9,7.2,3.4,9.2,6.7c2.4-1.3,5.5-0.6,7.4,1.3
		c2,1.8,2.9,4.5,3.1,7.2c0.1,1.8,0,3.6-0.3,5.4c0,0.1,0.1,0.3,0.1,0.4c1.1,6.3,1.8,13.9-0.8,14.5c-4.7,1-5.3-8.1-5.3-8.1
		c-6.2-1.1-5.7-10.2-7.4-11.2s-5.3-3.5-16.2,5c-4.2,3.3-10.5,4.4-14,4.3h-0.5c-1.1-0.1-2.3-0.3-3.4-0.7c-1.2-0.5-2.4-1.2-3.1-2.3
		c-0.7-1.1-0.8-2.7,0-3.7C605.3,245.9,604.3,244.7,603.9,243.3L603.9,243.3z"/>
</g>
<g id="Plant">
	<path class="st8" d="M84.7,358.8c12.7-13,32.7-18.5,50.3-13.8c-15.3,10.3-32.5,15.8-50.9,15.9 M101.8,298.3
		c-2.1-14.8,3.7-31.5,14.8-42.3C116.9,270.8,110.7,287.3,101.8,298.3 M92.9,326.3c7.9-15.1,20.9-27.5,36.4-34.7
		c-4.6,17.1-19.2,31-36.5,34.9"/>
	<path class="st8" d="M91.1,331.8c9,0.3,18-0.1,26.7-2.4s17-6.7,22.7-13.6c-17.4,0-34.8,5.3-49.3,15 M95.6,314
		c-4.5-17-12-28.8-25.4-38.4c-1,8.3,1,16.9,5.6,23.9C80.4,306.4,87.6,311.7,95.6,314 M61.8,343.3c-0.2-9.9,6.1-19.6,15.3-23.4
		C76.4,328.8,69.5,338.9,61.8,343.3 M57.6,329c-1-14.2-11.1-27.4-24.6-32C36,311.2,44.3,323,57.6,329 M64,354.5
		c-3.2-4.5-8.3-7.3-13.6-8.7s-10.9-1.5-16.4-1.6c7.4,8.2,18.6,12.8,29.6,12.3 M70.4,390.8c-9.9-3.1-21-2.3-30.4,2.2
		s-17,12.5-20.9,22.1C37.7,411.5,56.1,403.3,70.4,390.8 M90.9,378.1c-3.1,9.2-2.5,20.2,4.4,28.1C98,396.9,96.4,386.2,90.9,378.1
		 M103,373.1c0.9,11.8,8.4,22.8,19,28c0.5,0.3,1.1,0.5,1.7,0.3c0.8-0.3,0.9-1.5,0.8-2.4C123.1,387.2,114.4,375.8,103,373.1
		 M110.9,371.9c5.2,5.7,12.9,9,20.6,9.1s15.4-3.2,20.7-8.9C139,370.6,123.9,369.7,110.9,371.9"/>
	<path class="st7" d="M112.8,267c0,0,0,0.1-0.1,0.4s-0.2,0.6-0.4,1.1c-0.4,1-0.9,2.4-1.6,4.2c-0.7,1.8-1.5,4.1-2.5,6.7
		c-0.5,1.3-1,2.7-1.5,4.2s-1.1,3.1-1.6,4.7c-2.3,6.6-4.9,14.6-7.7,23.5c-2.7,8.9-5.6,18.7-8.4,29.1s-5.3,20.3-7.4,29.4
		c-2,9.1-3.8,17.3-5.1,24.2c-0.3,1.7-0.6,3.4-0.9,4.9c-0.3,1.6-0.5,3-0.7,4.4c-0.5,2.8-0.9,5.1-1.2,7.1c-0.3,1.9-0.5,3.4-0.7,4.5
		c-0.1,0.5-0.1,0.9-0.2,1.2c0,0.3-0.1,0.4-0.1,0.4v-0.4c0-0.3,0.1-0.7,0.1-1.2c0.1-1.1,0.3-2.6,0.6-4.5c0.2-2,0.6-4.3,1.1-7.1
		c0.2-1.4,0.5-2.9,0.7-4.4c0.3-1.6,0.6-3.2,0.9-4.9c1.2-6.9,2.9-15.1,5-24.2s4.5-19,7.3-29.4s5.7-20.2,8.5-29.1s5.4-16.8,7.8-23.5
		c0.6-1.7,1.1-3.2,1.7-4.7s1.1-2.9,1.6-4.2c1-2.6,1.8-4.9,2.5-6.7c0.7-1.8,1.3-3.2,1.7-4.2c0.2-0.5,0.3-0.8,0.4-1.1
		C112.8,267.1,112.8,267,112.8,267z"/>
	<path class="st7" d="M40.8,304.5l0.2,0.2c0.2,0.2,0.4,0.4,0.6,0.7c0.5,0.6,1.3,1.5,2.3,2.6c2,2.3,4.8,5.7,7.7,10.3
		c2.9,4.6,6,10.4,8.1,17.3c2.2,6.9,3.5,14.7,4.8,22.9c2.7,16.4,5.9,31,8.3,41.6c1.2,5.3,2.2,9.5,2.8,12.5c0.3,1.5,0.6,2.6,0.8,3.4
		c0.1,0.4,0.1,0.7,0.2,0.9c0,0.2,0.1,0.3,0,0.3c0,0,0-0.1-0.1-0.3c-0.1-0.2-0.1-0.5-0.2-0.9c-0.2-0.8-0.5-1.9-0.8-3.4
		c-0.7-3-1.7-7.3-3-12.5c-2.5-10.6-5.8-25.2-8.5-41.6c-1.3-8.2-2.7-16-4.8-22.8c-2.1-6.9-5-12.7-7.9-17.2c-2.9-4.6-5.6-8-7.6-10.4
		c-1-1.2-1.7-2.1-2.3-2.7c-0.2-0.3-0.4-0.5-0.6-0.7L40.8,304.5L40.8,304.5z M114.8,371.3c0,0-0.2,0-0.5,0.1c-0.4,0-0.8,0.1-1.4,0.1
		c-0.3,0-0.6,0.1-1,0.1c-0.4,0.1-0.7,0.1-1.2,0.2c-0.8,0.1-1.8,0.2-2.8,0.5c-0.5,0.1-1.1,0.2-1.6,0.3c-0.6,0.1-1.1,0.3-1.7,0.4
		c-1.2,0.3-2.5,0.7-3.8,1.1c-2.6,0.9-5.5,2.1-8.3,3.7s-5.3,3.4-7.4,5.2c-1,0.9-2,1.8-2.9,2.7c-0.9,0.9-1.6,1.8-2.3,2.6
		c-0.7,0.8-1.2,1.6-1.7,2.3c-0.5,0.7-0.9,1.3-1.1,1.8c-0.3,0.5-0.5,0.9-0.7,1.2c-0.2,0.3-0.3,0.4-0.3,0.4s0-0.2,0.2-0.4
		c0.2-0.3,0.4-0.7,0.6-1.2c0.3-0.5,0.6-1.2,1.1-1.9c0.5-0.7,0.9-1.6,1.6-2.4s1.4-1.8,2.2-2.7c0.8-1,1.8-1.9,2.9-2.8
		c2.1-1.8,4.7-3.7,7.5-5.3c2.9-1.6,5.7-2.8,8.4-3.7c1.4-0.4,2.6-0.8,3.9-1.1c0.6-0.1,1.2-0.3,1.8-0.4c0.6-0.1,1.1-0.2,1.6-0.3
		c1-0.2,2-0.3,2.8-0.4c0.4,0,0.8-0.1,1.2-0.1c0.4,0,0.7,0,1-0.1c0.5,0,1,0,1.4-0.1C114.6,371.3,114.8,371.3,114.8,371.3L114.8,371.3
		z M118.5,304.8l-0.9,0.9c-0.7,0.6-1.6,1.4-2.7,2.3c-2.3,2-5.5,4.6-9,7.6c-3.5,2.9-6.8,5.6-9.1,7.5c-1.1,0.9-2.1,1.6-2.8,2.2
		c-0.7,0.5-1,0.8-1.1,0.8c0,0,0.3-0.4,0.9-0.9c0.7-0.6,1.6-1.4,2.7-2.3c2.3-2,5.5-4.6,9-7.6c3.5-2.9,6.8-5.6,9.1-7.5
		c1.1-0.9,2.1-1.6,2.8-2.2C118.1,305.1,118.5,304.8,118.5,304.8z M121.7,322.2c0,0.1-6.8,2.3-15.4,4.8c-8.5,2.5-15.5,4.5-15.5,4.3
		c0-0.1,6.8-2.3,15.4-4.8S121.7,322.1,121.7,322.2z M96.3,315.3c0,0-0.3-0.3-0.7-1c-0.5-0.7-1.1-1.7-1.8-2.8
		c-1.5-2.3-3.7-5.5-6.3-8.9c-2.6-3.4-5.1-6.3-6.9-8.4c-0.9-1-1.6-1.8-2.2-2.5c-0.5-0.6-0.8-0.9-0.8-1c0,0,0.3,0.3,0.9,0.8
		s1.3,1.4,2.3,2.4c1.9,2,4.5,5,7.1,8.4s4.7,6.6,6.2,9c0.7,1.2,1.3,2.2,1.7,2.9C96.1,314.9,96.3,315.3,96.3,315.3z M72.4,324.9
		c0.1,0-0.6,1-1.6,2.7c-1,1.6-2.4,3.9-3.9,6.4c-1.4,2.5-2.7,4.9-3.5,6.6c-0.9,1.7-1.4,2.8-1.5,2.7c-0.1,0,0.4-1.1,1.1-2.9
		c0.8-1.8,2-4.1,3.4-6.7c1.5-2.6,2.9-4.8,4-6.4C71.6,325.8,72.3,324.9,72.4,324.9L72.4,324.9z"/>
	<path class="st7" d="M64.2,354.9c0,0.1-1.3-0.6-3.5-1.5c-2.2-1-5.2-2.2-8.5-3.4c-3.4-1.2-6.5-2.1-8.8-2.7s-3.7-0.9-3.7-1
		c0,0,0.4,0,1,0.1c0.7,0.1,1.6,0.3,2.8,0.5c2.3,0.5,5.5,1.3,8.9,2.5c3.4,1.2,6.4,2.5,8.5,3.6c1.1,0.5,1.9,1,2.5,1.3
		C63.9,354.7,64.2,354.9,64.2,354.9z M70.6,390.8c0,0-0.1,0.1-0.4,0.1c-0.3,0.1-0.7,0.2-1.2,0.3c-1.2,0.3-2.7,0.6-4.6,1.1
		c-3.9,0.9-9.2,2-15,3.9c-5.7,1.9-10.6,4.4-14,6.6c-1.7,1.1-3,2-3.8,2.7c-0.9,0.7-1.4,1.1-1.4,1l0.3-0.3c0.2-0.2,0.5-0.5,1-0.9
		c0.8-0.7,2.1-1.7,3.8-2.8c3.3-2.2,8.2-4.8,14-6.7c5.8-1.9,11.2-3,15.1-3.8c1.9-0.4,3.4-0.7,4.6-0.9C70,390.9,70.6,390.8,70.6,390.8
		L70.6,390.8z M93.9,399.7c-0.1,0-1-4.8-1.8-10.8c-0.9-6-1.5-10.8-1.3-10.9c0.1,0,1,4.8,1.8,10.8C93.5,394.8,94.1,399.6,93.9,399.7z
		 M118.2,390.9c-0.1,0-0.9-1-2.2-2.6c-1.3-1.6-3.1-3.9-5.2-6.3s-4-4.6-5.3-6.2c-1.4-1.6-2.2-2.6-2.2-2.6s0.3,0.2,0.7,0.6
		c0.4,0.4,1,1,1.7,1.8c1.5,1.5,3.4,3.7,5.5,6.1c2.1,2.5,3.8,4.7,5.1,6.4c0.6,0.8,1.1,1.5,1.4,2C118.1,390.6,118.2,390.8,118.2,390.9
		L118.2,390.9z M54,413.4v11.9h3L67.7,459h23.6l10.3-33.3l4-0.4v-11.9L54,413.4z"/>
	<path class="st6" d="M103.6,425.7c0,0.1-10.4,0.3-23.3,0.3S57,425.9,57,425.7c0-0.1,10.4-0.3,23.3-0.3S103.6,425.5,103.6,425.7z"/>
	<path class="st7" d="M120.6,348.6c0,0-0.5,0.2-1.5,0.4c-1.1,0.3-2.5,0.6-4.1,1c-3.5,0.9-8.3,2.2-13.5,3.9c-5.2,1.8-9.8,3.6-13.1,5
		c-1.6,0.7-2.9,1.3-3.9,1.7c-0.9,0.4-1.4,0.6-1.5,0.6c0,0,0.5-0.3,1.4-0.8s2.2-1.1,3.8-1.9c3.3-1.5,7.9-3.4,13.1-5.2
		c5.2-1.8,10.1-3,13.6-3.8c1.8-0.4,3.2-0.7,4.2-0.8C120,348.6,120.6,348.5,120.6,348.6L120.6,348.6z"/>
	<path class="st2" d="M95.8,444.3c0,0.1-7.3,0.3-16.3,0.3s-16.3-0.1-16.3-0.3s7.3-0.3,16.3-0.3C88.4,444.1,95.8,444.2,95.8,444.3z
		 M96.7,441.6c0,0.1-7.8,0.3-17.3,0.3c-9.6,0-17.3-0.1-17.3-0.3c0-0.1,7.8-0.3,17.3-0.3S96.7,441.4,96.7,441.6z"/>
</g>
</svg>
