<?xml version="1.0" encoding="utf-8"?>
<!-- Generator: Adobe Illustrator 25.2.0, SVG Export Plug-In . SVG Version: 6.00 Build 0)  -->
<svg version="1.1" id="Layer_1" xmlns="http://www.w3.org/2000/svg" xmlns:xlink="http://www.w3.org/1999/xlink" x="0px" y="0px"
	 viewBox="0 0 500 500" style="enable-background:new 0 0 500 500;" xml:space="preserve">
<style type="text/css">
	.st0{fill:#EBEBEB;}
	.st1{fill:#E0E0E0;}
	.st2{opacity:0.3;}
	.st3{fill:#FFFFFF;}
	.st4{fill:#8026CD;}
	.st5{fill:#263238;}
	.st6{fill:#455A64;}
	.st7{opacity:0.2;enable-background:new    ;}
	.st8{fill:#FFBE9D;}
	.st9{fill:#EB996E;}
	.st10{opacity:0.3;enable-background:new    ;}
	.st11{fill:#FAFAFA;}
	.st12{fill:#E8505B;}
	.st13{fill:#A36957;}
	.st14{fill:#7A4534;}
	.st15{opacity:0.5;enable-background:new    ;}
</style>
<g id="Background_Complete">
	<path class="st0" d="M361.1,475.9c-20.5-15.4-24.3-42.7-22.7-67.1c0.3-4.1,0-8.4,2-11.9c2.1-3.5,6.7-5.8,10.3-4
		c3,1.5,4.2,5.1,5.8,8.1c2.1,4,5.4,7.3,9.3,9.5c2.6,1.4,5.7,2.4,8.4,1c3.6-1.8,4.2-6.7,4.3-10.7l0.6-22.7c0.1-4.1,0.2-8.2,1.6-12
		s4.3-7.3,8.2-8.2c3.9-1,8.6,1.4,9.3,5.4c0.3,1.7-0.1,3.4-0.1,5.1c0.1,1.7,0.8,3.6,2.4,4.1s3.3-0.6,4.5-1.7c4.3-4,7.3-9.1,10.2-14.3
		c2.8-5.2,5.6-10.4,9.5-14.8c4-4.3,9.3-7.7,15.1-7.8c5.8-0.1,11.9,3.7,13.2,9.4c1.3,5.8-2.3,11.5-6,16c-5.6,6.7-12.2,12.5-19.5,17.3
		c-1.3,0.9-2.7,1.8-3.3,3.3c-1,2.7,1.5,5.4,4.1,6.4c3,1.1,6.3,0.9,9.4,1.4c3.2,0.5,6.5,2,7.6,5c1.5,4.2-2.1,8.4-5.6,11.2
		c-7,5.5-15,9.7-23.4,12.5c-3,1-6.2,1.8-8.7,3.9c-2.5,2-4.1,5.6-2.7,8.5s5.1,4,8.2,3.5s6-2.1,9-3.1c5.6-1.9,12.8-1.3,16.2,3.7
		c2.2,3.2,2.3,7.7,1,11.4c-1.3,3.7-3.8,6.9-6.5,9.8c-9.3,10.2-21,18.2-34.1,22.3C385.8,480.3,373.8,481.1,361.1,475.9"/>
	<path class="st1" d="M368,460.8c4-12.2,9.5-25.2,15.8-38.7c1.6-3.3,3.1-6.7,4.6-9.9c1.5-3.3,3.1-6.5,4.7-9.5
		c3.3-6.1,7-11.8,10.7-17c3.7-5.3,7.3-10.1,10.8-14.6s6.8-8.7,10-12.3c6.3-7.3,12.1-12.6,16.3-16.1c2.1-1.7,3.7-3,4.8-3.9
		c0.5-0.4,1-0.7,1.3-1c0.3-0.2,0.4-0.3,0.5-0.3l-0.4,0.4c-0.3,0.3-0.7,0.6-1.2,1c-1.1,0.9-2.7,2.2-4.7,4c-4.1,3.5-9.8,8.9-16.1,16.2
		c-3.1,3.7-6.4,7.8-9.9,12.3c-3.4,4.5-7.1,9.4-10.7,14.6c-3.6,5.3-7.3,10.9-10.6,17c-1.7,3-3.2,6.2-4.7,9.5s-3.1,6.6-4.6,9.9
		c-6.2,13.4-11.7,26.4-15.8,38.6"/>
	<path class="st1" d="M393.3,402.7c-0.1,0-0.2-0.6-0.3-1.7c-0.2-1.1-0.4-2.8-0.6-4.8c-0.4-4.1-0.9-9.7-1.3-15.9
		c-0.4-6.2-0.9-11.8-1.4-15.9c-0.2-2-0.5-3.7-0.6-4.8c-0.2-1.1-0.2-1.8-0.2-1.8c0.1,0,0.2,0.6,0.5,1.7s0.5,2.7,0.9,4.8
		c0.6,4,1.2,9.7,1.6,15.9c0.4,6.1,0.8,11.7,1.1,15.9c0.1,1.9,0.3,3.5,0.4,4.8C393.3,402,393.4,402.7,393.3,402.7z"/>
	<path class="st1" d="M445.8,394.7c0,0.1-0.7,0.1-2.1,0.2c-1.3,0.1-3.3,0.2-5.7,0.4c-4.8,0.4-11.4,1.1-18.7,2.2
		c-7.3,1.1-13.8,2.4-18.5,3.5c-2.4,0.5-4.2,1-5.5,1.3s-2,0.5-2.1,0.4c0-0.1,0.7-0.3,2-0.7c1.3-0.4,3.2-1,5.5-1.6
		c4.7-1.2,11.2-2.6,18.5-3.7s13.9-1.8,18.7-2c2.4-0.1,4.4-0.1,5.7-0.1C445.1,394.6,445.8,394.6,445.8,394.7L445.8,394.7z
		 M368.6,459.9l-0.3-0.6c-0.2-0.5-0.5-1.2-0.8-1.9c-0.7-1.7-1.7-4.1-2.8-7.1c-2.3-6.1-5.3-14.5-8.4-23.9s-6-17.9-8.2-24
		c-1.1-3-2-5.4-2.6-7.2c-0.3-0.8-0.5-1.4-0.7-2c-0.2-0.5-0.2-0.7-0.2-0.7l0.3,0.6c0.2,0.5,0.5,1.1,0.8,1.9c0.7,1.7,1.7,4.1,2.8,7.1
		c2.3,6.1,5.3,14.5,8.4,23.9s6,17.9,8.2,24c1.1,3,2,5.4,2.6,7.2c0.3,0.8,0.5,1.4,0.7,2C368.6,459.6,368.6,459.9,368.6,459.9z
		 M438.7,439.9c0,0-0.2,0.1-0.7,0.3c-0.5,0.2-1.2,0.4-2,0.6c-1.9,0.5-4.4,1.3-7.5,2.2c-6.3,1.8-15.1,4.4-24.7,7.3
		s-18.4,5.4-24.8,7.1c-3.2,0.8-5.8,1.5-7.6,1.9c-0.8,0.2-1.5,0.3-2.1,0.5c-0.5,0.1-0.7,0.1-0.7,0.1s0.2-0.1,0.7-0.3
		c0.5-0.2,1.2-0.4,2-0.6c1.9-0.5,4.4-1.3,7.5-2.2c6.3-1.8,15.1-4.4,24.7-7.3s18.4-5.4,24.8-7.1c3.2-0.8,5.8-1.5,7.6-1.9
		c0.8-0.2,1.5-0.3,2.1-0.5C438.4,439.9,438.7,439.9,438.7,439.9z"/>
	<circle class="st0" cx="419.1" cy="140.4" r="52.6"/>
	<g class="st2">
		<path class="st3" d="M416.8,91.8c0,0.2-1.2,0.2-3.2,0.4c-2,0.1-5,0.5-8.5,1.4c-1.8,0.4-3.6,1-5.6,1.8s-4,1.7-6.1,2.9
			c-4.1,2.3-8.3,5.6-11.8,9.8c-3.5,4.2-6,8.9-7.6,13.4c-0.8,2.2-1.4,4.4-1.8,6.5c-0.4,2.1-0.7,4-0.8,5.9c-0.2,3.6-0.1,6.6,0.1,8.6
			s0.3,3.2,0.2,3.2c-0.1,0-0.6-1-1.1-3.1c-0.5-2-0.9-5-0.9-8.8c0-1.9,0.2-3.9,0.5-6.1c0.4-2.2,0.9-4.5,1.7-6.9
			c1.5-4.7,4.1-9.7,7.8-14.2c3.7-4.4,8.2-7.8,12.6-10.2c2.2-1.2,4.4-2.1,6.5-2.8c2.1-0.7,4.1-1.2,5.9-1.6c3.7-0.7,6.7-0.8,8.8-0.6
			C415.6,91.4,416.8,91.7,416.8,91.8z"/>
	</g>
	<g class="st2">
		<path class="st3" d="M375.9,158.4c-0.5,0.4-2.1-1-2.9-3.3s-0.4-4.4,0.2-4.4c0.7-0.1,1.3,1.6,2,3.6S376.4,158.1,375.9,158.4
			L375.9,158.4z"/>
	</g>
	<path class="st3" d="M434.9,133.9c0,0-0.2,0.5-0.7,1.4s-1.4,2-2.7,3.3c-1.3,1.3-3,2.5-5.2,3.6c-2.1,1-4.7,1.8-7.5,1.9
		c-2.8,0.1-5.4-0.4-7.6-1.2s-4.1-1.9-5.5-3s-2.4-2.2-3-3s-0.9-1.3-0.8-1.3c0.1-0.1,1.4,1.7,4.2,3.8c1.4,1,3.2,2,5.4,2.8
		c2.2,0.7,4.7,1.2,7.3,1.1c2.6-0.1,5.1-0.8,7.2-1.8s3.8-2.1,5.1-3.3C433.7,135.8,434.8,133.8,434.9,133.9L434.9,133.9z"/>
	<path class="st1" d="M449.9,95c-3,0-5.6,1.2-7.6,3.2c-1.9-2-4.6-3.2-7.6-3.2c-5.8,0-10.5,4.7-10.5,10.5c0,9.3,18.1,20.6,18.1,20.6
		s18.1-11.3,18.1-20.6C460.4,99.7,455.7,95,449.9,95z M403.5,95c-3,0-5.6,1.2-7.6,3.2c-1.9-2-4.6-3.2-7.6-3.2
		c-5.8,0-10.5,4.7-10.5,10.5c0,9.3,18.1,20.6,18.1,20.6s18.1-11.3,18.1-20.6C414,99.7,409.3,95,403.5,95z"/>
	<circle class="st0" cx="92.4" cy="257.9" r="43.1"/>
	<path class="st1" d="M130.8,252.2c0.6,0,1.4,1.1,1.9,3.3c0.5,2.2,0.7,5.5,0.2,9.5c-0.6,4-2,8.8-4.7,13.5
		c-2.7,4.8-6.7,9.5-11.9,13.2c-5.3,3.7-11.1,5.9-16.5,6.8s-10.3,0.7-14.3-0.1c-4-0.8-7-2.1-8.9-3.4c-1.9-1.2-2.7-2.3-2.5-2.9
		c0.6-1.3,5.1-0.3,12-0.6c3.5-0.1,7.5-0.6,11.8-1.8c4.3-1.2,8.7-3.1,12.8-6c4.1-2.9,7.4-6.4,10-10.1c2.6-3.6,4.4-7.3,5.6-10.5
		C128.8,256.9,129.4,252.3,130.8,252.2L130.8,252.2z"/>
	<path class="st3" d="M105.3,252.5c0.1,0.1-0.5,1.8-2.7,3.9c-2.1,2.1-5.8,4.4-10.5,4.6s-8.6-1.7-10.9-3.6s-3.2-3.6-3-3.7
		c0.2-0.1,1.2,1.3,3.6,2.9c2.3,1.6,6,3.2,10.3,3s7.8-2.2,9.9-4C104.2,254,105.1,252.4,105.3,252.5z M74.7,243.8
		c-0.7-1.4-2.4-2.3-3.9-2.1c-0.5,0-0.9,0.2-1.3,0.5c-1.2,0.8-1.9,2.6-1.6,4c0.4,2.1,2.8,3.4,4.8,2.7
		C74.6,248.2,75.6,245.7,74.7,243.8L74.7,243.8z M120,247.9c-0.2,0,0.1-1.4-0.7-3.3c-0.4-0.9-1.1-2-2.1-2.8s-2.4-1.3-3.9-1.3
		s-2.9,0.6-3.9,1.4c-1,0.8-1.6,1.9-2,2.8c-0.7,1.9-0.4,3.3-0.6,3.3c-0.1,0.1-0.8-1.3-0.3-3.6c0.3-1.1,0.9-2.4,2.1-3.4
		c1.2-1.1,2.8-1.7,4.6-1.8c1.8,0,3.5,0.6,4.7,1.6s1.9,2.3,2.2,3.4C120.7,246.6,120.1,248,120,247.9L120,247.9z"/>
	<path class="st1" d="M76.5,65.9c-0.3,3.7-3.6,6.4-7.3,6.1c-3.7-0.3-6.4-3.6-6.1-7.3c0.3-3.7,3.6-6.4,7.3-6.1
		C74.1,58.9,76.8,62.2,76.5,65.9z"/>
	<path class="st1" d="M75.7,63.6c-0.3,0.2-4.2-5.7-7.5-13.7s-5.9-14.4-5.5-14.6c0.4-0.2,3.6,6,6.9,14C72.9,57.2,76.1,63.4,75.7,63.6
		z"/>
	<path class="st1" d="M75.7,29.1c0.4,0.2-1.4,3.5-5.4,5.6c-4,2.1-7.7,1.6-7.6,1.2c0-0.4,3.4-0.6,6.9-2.5
		C73.2,31.5,75.3,28.8,75.7,29.1z M78,35.7c0.4,0.1-1.2,3.5-5.2,5.3s-7.6,0.6-7.4,0.3c0.1-0.4,3.3,0,6.8-1.6S77.6,35.4,78,35.7z
		 M51.8,187.9c-0.5,2.5-2.9,4-5.4,3.5s-4-2.9-3.5-5.4s2.9-4,5.4-3.5C50.7,183.1,52.3,185.5,51.8,187.9z"/>
	<path class="st1" d="M51.5,186.3c-0.4,0.2-2.7-4.1-4.3-9.7c-1.6-5.6-2.7-10.2-2.4-10.3c0.4-0.2,2.3,4.3,3.9,9.9
		C50.3,181.7,51.9,186.1,51.5,186.3z"/>
	<path class="st1" d="M59.5,164.9c0.2,0.3-2.5,2.9-7.1,3.7c-2.2,0.4-4.4,0.2-5.8-0.4c-1.4-0.6-2-1.4-1.9-1.5
		c0.2-0.2,0.9,0.2,2.2,0.5s3.1,0.3,5.2-0.1C56.2,166.3,59.2,164.5,59.5,164.9z M66.4,186.6c-0.5,2.5-2.9,4-5.4,3.5s-4-2.9-3.5-5.4
		s2.9-4,5.4-3.5S67,184.1,66.4,186.6z"/>
	<path class="st1" d="M66.1,184.9c-0.4,0.2-2.7-4.1-4.3-9.7c-1.6-5.6-2.7-10.2-2.4-10.3c0.4-0.2,2.3,4.3,3.9,9.9
		C64.9,180.3,66.5,184.8,66.1,184.9z"/>
	<path class="st1" d="M60.5,167.9c0.3,0.3-2.2,2.9-6.4,3.8c-4.2,1-7.6-0.4-7.4-0.7c0.1-0.5,3.3,0.1,7.1-0.8
		C57.5,169.4,60.2,167.5,60.5,167.9z"/>
</g>
<g id="Icon">
	<g id="XMLID_11_">
		<path id="XMLID_20_" class="st4" d="M403.6,297c-19.1,0-34.6-15.5-34.6-34.6s15.5-34.6,34.6-34.6s34.6,15.5,34.6,34.6
			S422.7,297,403.6,297z"/>
		<g id="XMLID_12_">
			<path id="XMLID_17_" class="st3" d="M403.6,246.9c5.1,0,5.7,0,7.7,0.1c1.8,0.1,2.9,0.4,3.5,0.7c0.9,0.3,1.5,0.8,2.2,1.4
				c0.7,0.7,1.1,1.3,1.4,2.2c0.3,0.7,0.6,1.7,0.7,3.5c0.1,2,0.1,2.6,0.1,7.7s0,5.7-0.1,7.7c-0.1,1.8-0.4,2.9-0.7,3.5
				c-0.3,0.9-0.8,1.5-1.4,2.2c-0.7,0.7-1.3,1.1-2.2,1.4c-0.7,0.3-1.7,0.6-3.5,0.7c-2,0.1-2.6,0.1-7.7,0.1s-5.7,0-7.7-0.1
				c-1.8-0.1-2.9-0.4-3.5-0.7c-0.9-0.3-1.5-0.8-2.2-1.4c-0.7-0.7-1.1-1.3-1.4-2.2c-0.3-0.7-0.6-1.7-0.7-3.5c-0.1-2-0.1-2.6-0.1-7.7
				s0-5.7,0.1-7.7c0.1-1.8,0.4-2.9,0.7-3.5c0.3-0.9,0.8-1.5,1.4-2.2c0.7-0.7,1.3-1.1,2.2-1.4c0.7-0.3,1.7-0.6,3.5-0.7
				C398,247,398.6,246.9,403.6,246.9 M403.6,243.5c-5.1,0-5.8,0-7.8,0.1s-3.4,0.4-4.6,0.9s-2.3,1.1-3.4,2.2s-1.7,2.1-2.2,3.4
				c-0.5,1.2-0.8,2.6-0.9,4.6s-0.1,2.7-0.1,7.8s0,5.8,0.1,7.8s0.4,3.4,0.9,4.6s1.1,2.3,2.2,3.4s2.1,1.7,3.4,2.2
				c1.2,0.5,2.6,0.8,4.6,0.9s2.7,0.1,7.8,0.1s5.8,0,7.8-0.1s3.4-0.4,4.6-0.9s2.3-1.1,3.4-2.2s1.7-2.1,2.2-3.4
				c0.5-1.2,0.8-2.6,0.9-4.6s0.1-2.7,0.1-7.8s0-5.8-0.1-7.8s-0.4-3.4-0.9-4.6c-0.5-1.2-1.1-2.3-2.2-3.4s-2.1-1.7-3.4-2.2
				c-1.2-0.5-2.6-0.8-4.6-0.9C409.4,243.5,408.8,243.5,403.6,243.5"/>
			<path id="XMLID_14_" class="st3" d="M403.6,252.7c-5.4,0-9.7,4.4-9.7,9.7s4.4,9.7,9.7,9.7c5.4,0,9.7-4.4,9.7-9.7
				S409,252.7,403.6,252.7 M403.6,268.8c-3.5,0-6.3-2.8-6.3-6.3s2.8-6.3,6.3-6.3s6.3,2.8,6.3,6.3S407.1,268.8,403.6,268.8"/>
			<path id="XMLID_13_" class="st3" d="M416,252.4c0,1.3-1,2.3-2.3,2.3s-2.3-1-2.3-2.3s1-2.3,2.3-2.3S416,251.1,416,252.4"/>
		</g>
	</g>
</g>
<g id="Character">
	<path class="st5" d="M211,394.2c0,0-5.1,9.9-8.8,20.3c-3.7,10.3-11.1,66.5-11.1,66.5l152.6-0.4l3.4-0.2c0,0-4.7-69.5-24.5-92.1
		L211,394.2z M359.2,276.2c-1.9-2-4.1-3.6-5.4-6c-3.2-6.2,2.3-13.7,1.1-20.6c-1.6-9.7-14.2-12.5-20.6-19.9c-7.8-8.9-5.3-22.4-3.4-34
		c2.3-13.9,3.1-28.4-0.9-41.9c-2.1-6.8-6.7-13.6-12.6-19.3c-8-7.8-18.7-12.2-29.8-12.6c-10-0.4-19.3,10-27.5,15.8
		c-17.6,12.4-26.9,25.7-30.3,49.6c-4.4,30.9,6.3,62.6,24.6,87.8c14.8,20.4,35.4,37.7,60,43.6c9,2.1,18.5,2.7,27.3,0.1
		c8.9-2.6,17-8.5,20.8-16.9C366.5,293.6,365.5,282.9,359.2,276.2L359.2,276.2z"/>
	<path class="st6" d="M326.8,278.5c-0.1,0,0.8-1.2,0.9-3.5s-0.9-5.7-3.5-9c-1.3-1.7-2.9-3.4-4.4-5.3c-1.5-2-3-4.4-3.5-7.3
		c-0.2-1.4-0.2-3,0.3-4.5s1.5-2.7,2-4c0.6-1.3,0.4-2.7-0.6-3.9c-0.9-1.2-2.2-2.2-3.2-3.6c-2-2.8-2.6-6.1-2.6-9.2
		c0-3.1,0.8-6.1,1.6-8.7c1.8-5.3,4-9.9,4.7-14c0.8-4.1,0.3-7.6-0.5-9.8s-1.7-3.2-1.6-3.3c0,0,1,0.9,1.9,3.1c0.9,2.2,1.5,5.8,0.8,10
		c-0.6,4.3-2.7,8.9-4.5,14.2c-0.8,2.6-1.5,5.5-1.5,8.5s0.6,6.1,2.4,8.7c0.9,1.3,2.1,2.2,3.2,3.5c0.5,0.7,0.9,1.4,1.1,2.3
		c0.1,0.9,0,1.8-0.4,2.5c-0.6,1.5-1.6,2.7-2,4c-0.5,1.3-0.5,2.7-0.3,4c0.4,2.7,1.8,5,3.2,6.9c1.5,2,3,3.7,4.3,5.4
		c2.6,3.4,3.6,7,3.3,9.4c-0.1,1.2-0.4,2.1-0.7,2.7C327,278.2,326.8,278.5,326.8,278.5L326.8,278.5z M304.8,250.6
		c0,0-0.1-0.2-0.3-0.5c-0.1-0.4-0.4-0.9-0.6-1.6c-0.5-1.4-0.9-3.5-1-6.1s0.3-5.8,1.1-9.1c0.8-3.4,2.1-6.9,3.5-10.6
		c1.5-3.7,2.8-7.2,3.8-10.4c1-3.3,1.6-6.3,1.8-8.8c0.4-5.1-0.7-8.3-0.5-8.3c0,0,0.3,0.7,0.7,2.2c0.3,1.4,0.6,3.6,0.5,6.2
		c-0.1,2.6-0.7,5.7-1.6,9c-1,3.3-2.3,6.9-3.8,10.5c-1.5,3.7-2.7,7.2-3.6,10.5c-0.8,3.3-1.3,6.3-1.3,8.9
		C303.5,247.6,305,250.6,304.8,250.6L304.8,250.6z"/>
	<path class="st4" d="M238,218.7c-1.7,1.1-40.3-0.6-45.9,6.7c0,0,6,152.5,18.9,168.7l111.6-6l-14.2-139.7l6.4-15.2l-33.7-10
		L238,218.7L238,218.7z"/>
	<path class="st7" d="M201.2,328.2c4.5,1.6,9.7,0.5,13.8-2s7.2-6.3,9.9-10.3c7.4-11.4,11-24.9,12.4-38.4c1.3-13.5,0.5-27.1-0.4-40.7
		c-1.4,13.7-2.8,27.4-5.9,40.8c-3.2,13.4-8.1,26.5-16.1,37.7c-2.1,2.9-4.3,5.6-7.3,7.6c-2.9,1.9-6.6,3-10,2.1"/>
	<path class="st4" d="M240.8,182.7c-3.5-3.3-6.1-7.7-6.8-12.5s0.8-9.9,4.1-13.3c3.4-3.5,8.7-5,13.3-3.4"/>
	<path class="st6" d="M267.3,125.7c10.2-5.9,17.6-5.7,25.6-4c12.2,2.6,24.2,9.6,30.8,20.3c6,9.8,6.6,22.2,3.7,33.3
		c-1,3.9-3.6,7.1-6,10.3c-2.5,3.2-8.4,6.2-12.4,6.6c-4,0.4-5-1.2-6.8-4.9c-1.1-2.2-1.2-4.8-1.4-7.2c-0.5-10.4-1.7-21.1-5.7-30.7
		c-4.1-9.6-11.4-18.3-21.3-21.9"/>
	<path class="st5" d="M254.5,144.7c0.9-7.9,5.8-15.2,12.8-19c5.3-2.8,11.4-3.6,17.4-3.3c8,0.5,16.1,3.1,22,8.6
		c5.9,5.5,9.2,14,7.2,21.8c-0.9,3.5-2.8,6.9-2.9,10.5c0,1.6,0.2,3.3-0.7,4.6c-0.9,1.2-2.5,1.5-3.9,1.2s-2.6-1.2-3.7-2.2
		c-3.6-3.4-6-7.8-8.3-12.2"/>
	<path class="st8" d="M253.1,148.3c4.6-10.4,16.4-20.8,26.5-15.8l29.9,20.5c3.1,1.5,4.5,5.1,3.2,8.4L280,239.5c0.1,0-0.1,0,0,0
		l-11.8,6.8c-10.9,6.3-25-0.6-26.2-13.2c-0.1-0.9-0.1-1.6,0-2.2c0.2-0.7,0.2-1.2,0.4-1.7c1.3-5.9,3.9-11,3.9-11
		c2.3-6.5,3.3-9.1,3.2-9c0,0-12.7-7.2-9-25.9C242.3,174,248,159.8,253.1,148.3L253.1,148.3z"/>
	<path class="st5" d="M251.6,160.8c0.2,0.4,2.4-0.2,4.8,0.7s3.8,2.8,4.2,2.6c0.2-0.1,0.1-0.7-0.5-1.6c-0.6-0.8-1.7-1.9-3.2-2.4
		s-3-0.5-4-0.2C251.9,160.1,251.5,160.6,251.6,160.8L251.6,160.8z M275.9,170c0.2,0.4,2.4-0.2,4.8,0.7s3.8,2.8,4.2,2.6
		c0.2-0.1,0.1-0.7-0.5-1.6c-0.6-0.8-1.7-1.9-3.2-2.4s-3-0.5-4-0.2C276.3,169.4,275.8,169.8,275.9,170z M261.8,181
		c0.1-0.1-1.4-1-3.7-2.2c-0.6-0.3-1.1-0.6-1.1-1.1s0.5-1.1,1.1-1.7c1.1-1.3,2.3-2.6,3.6-4.1c5-5.8,8.9-10.7,8.7-10.9
		c-0.2-0.2-4.5,4.3-9.6,10.2c-1.2,1.4-2.4,2.8-3.5,4.1c-0.5,0.6-1.2,1.3-1.2,2.3c0,0.5,0.3,1,0.7,1.3c0.4,0.3,0.7,0.4,1,0.5
		C260.2,180.6,261.7,181.1,261.8,181L261.8,181z"/>
	<path class="st9" d="M249.5,209.3c0,0,11.6,5.1,26,2.4c0,0-10.4,10.1-27.5,1.9L249.5,209.3L249.5,209.3z"/>
	<path class="st5" d="M290.2,163.6c0.2-0.7-2.2-1.9-4.5-3.9c-2.4-2-3.9-4.1-4.6-3.8c-0.3,0.2-0.3,0.9,0.1,2.1
		c0.4,1.1,1.4,2.5,2.8,3.7s3,1.9,4.1,2.1C289.4,164.1,290.1,164,290.2,163.6L290.2,163.6z M264.6,149.7c-0.4-0.6-2.2-0.2-4.4-0.3
		c-2.2-0.1-3.9-0.7-4.4-0.2c-0.2,0.3,0,0.9,0.8,1.5c0.7,0.6,2,1.2,3.5,1.3s2.8-0.3,3.6-0.9C264.5,150.6,264.8,150,264.6,149.7
		L264.6,149.7z"/>
	<path class="st8" d="M296.9,189.1c0.5-1.3,3.1-3.9,4.5-3.6c3.7,0.7,9.8,3.3,6.6,12.2c-4.3,12.1-15.6,5.2-15.5,4.9
		C292.7,202.2,295.2,193.6,296.9,189.1L296.9,189.1z"/>
	<path class="st9" d="M297.9,199.2c0.1,0,0.2,0.2,0.5,0.5s0.8,0.6,1.6,0.6c1.4,0,3.2-1.6,4.1-3.8c0.4-1.1,0.6-2.2,0.5-3.2
		s-0.4-1.8-1-2.2s-1.2-0.2-1.4,0.1c-0.3,0.3-0.3,0.5-0.4,0.5c0,0-0.2-0.3,0.1-0.8c0.1-0.2,0.4-0.5,0.7-0.6c0.4-0.1,0.8-0.1,1.3,0.1
		c0.9,0.4,1.4,1.6,1.5,2.7c0.1,1.1,0,2.4-0.5,3.6c-1,2.4-3,4.2-4.9,4.1c-0.9-0.1-1.5-0.6-1.8-1C297.8,199.5,297.9,199.2,297.9,199.2
		L297.9,199.2z"/>
	<path class="st5" d="M278.7,129.8c-1.2,6.2,1.3,12.9,6.2,16.8c2.6,2.1,6.2,3.7,6.9,7c0.8,3.3-1.8,6.8-1.1,10.1
		c0.9,4.7,7.4,7,7.5,11.7c0.1,2.1-1.1,4-1,6.1c0.2,2.8,2.8,4.9,5.6,5.1c2.8,0.2,5.4-1.3,7.3-3.3s3.1-4.6,4.2-7.1
		c2.2-5,4.3-10.1,4.6-15.6c0.7-11.4-8.5-31.1-19.4-34.5"/>
	<path class="st6" d="M300.5,132.3c-0.1,0.3-5.1-1.8-11.5-1c-6.4,0.7-10.8,3.9-11,3.7c-0.1-0.1,0.9-1,2.8-2.1s4.7-2.1,8.1-2.5
		c3.3-0.4,6.3,0,8.4,0.6C299.3,131.6,300.5,132.2,300.5,132.3z M287.3,126.6c0,0.3-3,0.5-5.9,2.8c-2.9,2.2-3.8,5.1-4.1,5
		c-0.1,0,0-0.8,0.5-2c0.5-1.1,1.5-2.6,3-3.8s3.2-1.8,4.4-2.1C286.5,126.4,287.3,126.5,287.3,126.6z"/>
	<path class="st9" d="M263.6,193.4c2.4-0.5,4.6-1.8,4.8-4.3c0.1-1.1-0.2-2.3-1.1-2.7c-0.6-0.3-1.8-0.6-2.4-0.4
		c-2.5,0.6-4.8,1.3-7.4,1.3c0,0-1.2,2.4,0,4.2C258.7,193.2,261.2,193.9,263.6,193.4z"/>
	<path class="st5" d="M260.7,193.4c0,0,0.3,0.1,0.9,0.1s1.4,0,2.4-0.3c1-0.2,2.2-0.7,3-1.7s1.4-2.5,1-4c-0.2-0.7-0.8-1.2-1.4-1.4
		c-0.7-0.1-1.4,0-2,0.2c-1.3,0.4-2.6,0.8-3.6,0.9c-1.1,0.1-1.9,0.1-2.5,0.1s-0.9,0-0.9-0.1s1.3-0.1,3.4-0.4c1-0.1,2.2-0.5,3.5-1
		c0.7-0.2,1.4-0.4,2.3-0.3c0.8,0.1,1.6,0.8,1.8,1.7c0.5,1.7-0.2,3.4-1.1,4.5c-0.5,0.5-1,1-1.6,1.2c-0.6,0.3-1.2,0.4-1.7,0.5
		c-1.1,0.2-1.9,0.2-2.5,0.1C261,193.6,260.7,193.4,260.7,193.4L260.7,193.4z"/>
	<path class="st4" d="M192.5,224.5c0,0-6.6,6-9.1,12.2c-3.1,7.7-14.8,21.7-14.3,32.9c0.4,8.6,3.5,22.8,26.2,18.9
		s25.6-21.1,25.6-21.1l-12.1-37.7L192.5,224.5L192.5,224.5z"/>
	<path class="st10" d="M192.7,224.9c0,0-7.2,6.1-9.3,11.9c-2.9,7.8-14.8,21.7-14.3,32.9c0.4,8.6,3.5,22.8,26.2,18.9
		s13.2-18.7,13.2-18.7l0.4-40.1L192.7,224.9L192.7,224.9z"/>
	<path class="st4" d="M209.2,263.6c0,0-20.1-13-39.6,0.6c-0.4,0.3,0.6-2.5,2.2-6c3-6.4,7.7-15.6,7.7-15.6s10.3-19.2,15.3-19.2
		l14.3,4.3L209.2,263.6L209.2,263.6z"/>
	<path class="st8" d="M181.5,258.8c0,0-2.5,28.5-1.8,39.4c0.6,10.9,10.6,40.5,31.1,25.4c20.5-15.2,27.5-102.8,27.5-102.8l-15.3-6.7
		l-17.9,47.3c0,0-4.3-2.4-11.1-3.1C186.6,257.5,181.9,258.8,181.5,258.8L181.5,258.8z"/>
	<path class="st8" d="M222.7,216.4l-8.3-40.3l8.4-20.2c0,0,3.3,1.5,3,5.4s-4.1,13.4-4.1,13.4l10.7-14.6c0,0,3,1.3,1.4,4.9
		c-1.6,3.6-6.4,11.2-6.4,11.2l5.2,13.6c0,0,1.1-7,3.4-6.5s1.9,6.4,1.9,6.4l-0.5,11.7c0,0,3.7,7.9,2.8,13c-0.9,5.2-2.7,8.2-2.7,8.2
		L222.7,216.4L222.7,216.4z"/>
	<path class="st4" d="M325.8,241.7c-5.1-6.8-11.2-8.3-11.2-8.3l-9,17.4l12.2,43.4c9.7-5.5,20.3-9,29.2-8.4
		C347,285.8,332.8,250.9,325.8,241.7L325.8,241.7z"/>
	<path class="st7" d="M315.5,233.4c3,6.1-0.4,13.4-0.4,20.2c0,10.7,8.6,19.8,9.3,30.4c0.2,2.9-0.3,5.9-2.1,8.1
		c-1.9,2.2-5.5,3-7.7,1.1c-1.2-1-1.8-2.6-2.3-4.1c-2.9-8.6-5.9-17.1-8.8-25.7c-1.2-3.5-2.4-7.2-2.1-10.9c0.7-7.2,6.9-12.4,12.7-16.7
		"/>
	
		<ellipse transform="matrix(0.2285 -0.9735 0.9735 0.2285 46.1075 442.6009)" class="st4" cx="302.3" cy="192.2" rx="15.7" ry="14.6"/>
	<path class="st5" d="M297.6,207.2l-0.4-0.2c-0.3-0.1-0.7-0.4-1.1-0.7c-0.9-0.7-2.3-1.9-3.3-3.7c-1.1-1.8-1.8-4.4-1.8-7.2
		c-0.1-2.8,0.5-6,2.1-8.8c1.6-2.9,3.8-5.1,6.3-6.5c2.4-1.5,5-2,7.1-2s3.8,0.7,4.8,1.3c0.5,0.3,0.9,0.6,1.1,0.8s0.3,0.3,0.3,0.4
		c0,0.1-0.5-0.4-1.5-0.9s-2.6-1.1-4.7-1c-2,0-4.5,0.6-6.8,2.1c-2.3,1.4-4.5,3.6-6,6.3s-2.1,5.7-2,8.5c0,2.7,0.6,5.1,1.6,6.9
		c1,1.8,2.2,3,3.1,3.7C297.1,206.8,297.6,207.1,297.6,207.2L297.6,207.2z"/>
	<path class="st5" d="M291.8,181.4c0.2,0,0,1.2,0.7,2.2s1.9,1.2,1.9,1.4c0,0.1-0.3,0.2-0.8,0.1s-1.2-0.4-1.6-1
		c-0.5-0.6-0.6-1.4-0.5-1.9C291.5,181.6,291.7,181.3,291.8,181.4z M291.3,186.2c0.1-0.2,0.5-0.1,1.1,0.1c0.5,0.1,0.9,0.3,0.9,0.5
		s-0.5,0.4-1.1,0.2C291.5,186.8,291.2,186.4,291.3,186.2z M288.3,198.8c0.1-0.2,0.8,0.1,1.6-0.1c0.8-0.1,1.4-0.5,1.6-0.4
		s-0.4,0.9-1.5,1.1C288.9,199.6,288.2,199,288.3,198.8z"/>
	<path class="st4" d="M315.4,190.4c0,0,13.1-2.8,15.9-9.4c0.4,4.2,0.3,7.3-0.9,11.4l-18,8.6L315.4,190.4z"/>
	<path class="st5" d="M316.7,189.4c0.1,0,0.2,0.7,0.3,1.7c0.1,1.1,0.1,2.6-0.1,4.2c-0.3,1.6-0.9,3.1-1.5,4s-1.2,1.3-1.2,1.3
		c-0.1-0.1,0.4-0.5,0.9-1.4s1.1-2.3,1.3-3.8c0.3-1.6,0.3-3.1,0.3-4.1C316.6,190.1,316.6,189.4,316.7,189.4L316.7,189.4z M288,314.3
		c0,0-0.1,0.3-0.3,0.8c-0.2,0.5-0.5,1.3-0.9,2.2c-0.2,0.5-0.4,1-0.7,1.6l-0.9,1.8c-0.7,1.3-1.4,2.8-2.3,4.4c-0.5,0.8-1,1.6-1.5,2.5
		s-1.1,1.7-1.7,2.6c-1.2,1.8-2.6,3.7-4.1,5.6c-3,3.8-6.7,7.8-10.8,11.6c-4.2,3.7-8.6,6.9-12.7,9.5c-2.1,1.2-4.1,2.5-6,3.4
		c-1,0.5-1.9,1-2.8,1.4c-0.9,0.4-1.8,0.8-2.6,1.2c-1.7,0.8-3.3,1.3-4.6,1.8c-0.7,0.3-1.3,0.5-1.9,0.7c-0.6,0.2-1.1,0.3-1.6,0.5
		c-1,0.3-1.7,0.5-2.3,0.7c-0.5,0.1-0.8,0.2-0.8,0.2s0.3-0.1,0.8-0.3c0.6-0.2,1.3-0.4,2.2-0.8c0.5-0.2,1-0.3,1.6-0.5s1.2-0.5,1.9-0.7
		c1.4-0.6,2.9-1.1,4.6-1.9c0.8-0.4,1.7-0.8,2.6-1.2c0.9-0.4,1.8-0.9,2.8-1.4c1.9-1,3.9-2.2,6-3.4c4.1-2.6,8.4-5.8,12.6-9.5
		c4.2-3.8,7.8-7.7,10.8-11.5c1.5-1.9,2.9-3.7,4.1-5.6c0.6-0.9,1.2-1.7,1.7-2.6s1-1.7,1.5-2.5c1-1.6,1.7-3.1,2.4-4.3
		c0.3-0.6,0.7-1.2,0.9-1.8c0.3-0.6,0.5-1.1,0.7-1.6c0.4-0.9,0.8-1.6,1-2.1C287.9,314.5,288,314.3,288,314.3L288,314.3z M210.3,236.8
		c-0.2,0-0.7-3.5-2.6-7.4c-1.8-3.9-4.3-6.6-4.1-6.7c0,0,0.7,0.6,1.6,1.7c0.9,1.1,2,2.8,3,4.8c0.9,2,1.5,3.9,1.8,5.3
		C210.3,235.9,210.3,236.8,210.3,236.8L210.3,236.8z"/>
	<path class="st11" d="M288.2,291.9c-0.1,0-0.6-0.9-1.9-2.3c-1.2-1.5-3.2-3.4-6.1-5.2c-2.9-1.8-6.8-3.4-11.3-3.8s-9.6,0.5-14.2,3
		s-8.2,6.2-10.3,10.2s-2.9,8.1-3,11.5s0.5,6.2,1,8s1,2.8,0.9,2.8c0,0-0.1-0.2-0.3-0.7s-0.5-1.2-0.8-2.1c-0.6-1.8-1.2-4.6-1.2-8.1
		c0.1-3.5,0.8-7.6,3-11.7c2.1-4.1,5.8-7.9,10.5-10.4s9.9-3.5,14.4-3c4.6,0.4,8.5,2.1,11.4,4s4.9,3.9,6.1,5.4c0.6,0.8,1,1.4,1.3,1.8
		C288.1,291.6,288.2,291.9,288.2,291.9L288.2,291.9z M273.3,333.9l-1.2,0.3c-0.4,0.1-0.8,0.2-1.4,0.2c-0.5,0-1.2,0.1-1.9,0.1
		s-1.4,0-2.3-0.1c-0.8,0-1.7-0.2-2.6-0.3c-1.8-0.3-3.7-0.9-5.7-1.7c-1.9-0.8-3.7-1.9-5.1-3c-0.7-0.6-1.4-1.1-2-1.6s-1.1-1.1-1.6-1.6
		s-0.9-1-1.2-1.4s-0.6-0.8-0.8-1.1c-0.4-0.6-0.6-1-0.6-1c0.1-0.1,1,1.4,2.9,3.3c0.5,0.5,1,1,1.6,1.5s1.3,1,2,1.6
		c1.5,1,3.2,2,5.1,2.9c1.9,0.8,3.8,1.4,5.6,1.7c0.9,0.1,1.7,0.3,2.5,0.4s1.5,0.1,2.2,0.1C271.6,334.1,273.3,333.8,273.3,333.9z"/>
	<path class="st11" d="M267.8,309.4c0.1,0-0.6,1.2-1.7,3s-2.7,4.3-4.5,7s-3.6,5.1-5,6.7c-0.7,0.8-1.2,1.5-1.7,1.9
		c-0.4,0.4-0.6,0.7-0.7,0.7c-0.1-0.1,0.8-1.1,2-2.8c1.3-1.7,3-4.1,4.8-6.8c1.8-2.7,3.4-5.1,4.7-7
		C266.9,310.4,267.7,309.4,267.8,309.4L267.8,309.4z M286.6,317.6c-0.1,0.1-4.3-1.7-9.5-4.1s-9.4-4.5-9.3-4.6s4.3,1.7,9.5,4.1
		S286.7,317.5,286.6,317.6z"/>
	<path class="st11" d="M265.6,281.9c0,0,0,0.2,0.1,0.5c0,0.4,0.1,0.9,0.1,1.5c0.1,1.4,0.3,3.3,0.6,5.6c0.5,4.8,1.3,11.3,2.1,18.5
		c0.8,7.2,1.6,13.7,2.1,18.5c0.2,2.3,0.4,4.2,0.6,5.6c0.1,0.6,0.1,1.1,0.1,1.5v0.5c0,0-0.1-0.2-0.1-0.5c-0.1-0.4-0.1-0.9-0.2-1.5
		c-0.2-1.4-0.4-3.3-0.8-5.6c-0.6-4.7-1.4-11.2-2.3-18.5c-0.8-7.2-1.5-13.8-1.9-18.5c-0.2-2.4-0.3-4.3-0.4-5.6v-1.5
		C265.5,282.1,265.5,281.9,265.6,281.9L265.6,281.9z"/>
	<path class="st5" d="M256.3,306.3c0,0-0.1,0.4-0.4,1.2c-0.3,0.7-0.8,1.8-1.5,3c-1.5,2.4-4.3,5.4-8.2,7.2c-4,1.8-8.1,1.9-10.8,1.4
		c-1.4-0.2-2.5-0.6-3.2-0.8c-0.7-0.3-1.1-0.5-1.1-0.5c0-0.1,1.6,0.6,4.4,1c2.7,0.4,6.7,0.2,10.6-1.5c3.9-1.7,6.6-4.6,8.1-6.9
		C255.7,308,256.2,306.3,256.3,306.3L256.3,306.3z"/>
	<path class="st7" d="M233.2,319.1c-1.7-1.6-4.8-0.9-5.9,1.2c-1.1,2-0.5,4.7,1.1,6.5c1.6,1.7,3.8,2.7,6.1,3.2
		c5.1,1.1,10.7,0.3,15.2-2.5c4.4-2.8,7.6-7.6,8.1-12.9c0.1-1,0-2.2-0.8-2.8c-1.2-0.9-2.8,0.3-4,1.3c-5.8,5.1-14.2,7.3-21.8,5.6
		 M244.9,369.1c15.5-3.6,29.7-12.6,39.7-25c1.5-1.9,3.3-4.1,5.8-4.1c1.7,0,3.3,1.2,4,2.8c0.7,1.5,0.7,3.4,0.3,5
		c-1.2,4.9-5.6,8.2-9.7,11c-5.9,4-12.1,7.8-18.9,10c-6.8,2.3-14.3,3-21.1,0.8"/>
	<path class="st9" d="M222.7,155.9c0,0,0.1,0,0.3,0.1s0.5,0.2,0.9,0.5c0.7,0.5,1.5,1.7,1.8,3.3c0.2,1.6,0,3.5-0.6,5.6
		c-0.7,2-1.4,4.2-2.2,6.4c-0.3,1-0.7,2-1,2.9v-0.2c1.4,3.8,2.6,7.2,3.5,9.6c0.4,1.1,0.7,2.1,1,2.9c0.2,0.7,0.3,1,0.3,1.1
		s-0.2-0.3-0.5-1s-0.7-1.7-1.1-2.8c-0.9-2.4-2.2-5.7-3.7-9.6v-0.2c0.3-0.9,0.7-1.9,1-2.9c0.8-2.3,1.5-4.4,2.2-6.4
		c0.6-2,0.8-3.8,0.7-5.4c-0.2-1.5-0.9-2.7-1.5-3.2c-0.3-0.3-0.6-0.5-0.8-0.6C222.8,156,222.7,155.9,222.7,155.9L222.7,155.9z
		 M237.9,205.5c-0.1,0-0.6-1-1.5-2.5s-2.4-3.5-4.3-5.4c-1.9-1.9-3.9-3.3-5.5-4.2c-1.5-0.9-2.5-1.4-2.5-1.5c0,0,0.3,0.1,0.7,0.2
		c0.5,0.2,1.1,0.5,1.9,0.9c1.6,0.8,3.7,2.2,5.6,4.2c2,1.9,3.4,4,4.3,5.6c0.4,0.8,0.8,1.4,0.9,1.9
		C237.8,205.2,237.9,205.5,237.9,205.5L237.9,205.5z M236.2,201.9c-0.2,0-0.8-3-2-6.6s-2.4-6.4-2.3-6.5c0.1,0,0.5,0.6,1,1.8
		c0.5,1.1,1.2,2.7,1.8,4.6c0.6,1.8,1,3.5,1.3,4.7C236.2,201.1,236.3,201.9,236.2,201.9z"/>
	<path class="st8" d="M297.3,214.7c0,0-5.4,0-6.1,7.5s-1.4,10.6-1.4,10.6s-7,9.6-7,14.5s1.6,15.2,1.6,15.2l22.8-5.8l-1.6-6
		l14.4-26.1l8.4-27.2c0,0-3-1.9-5.2,0c-2.1,1.9-6.1,9.1-6.1,9.1s-4.2-5.6-7-5.4c-0.9,0.1-1.5,0.6-1.9,1.2c-0.8,1.4-0.3,3.1,0.9,4.2
		l2.4,2.1l-0.7,7.2l-12.4,11.5L297.3,214.7L297.3,214.7z"/>
	<path class="st9" d="M303.3,237.7c0,0,0.2-0.5,0.7-1.3s1.3-1.9,2.4-3.1c1.1-1.2,2.6-2.6,4.1-4.1c1.6-1.5,3.3-3.2,4.6-5.3
		c1.4-2.1,2.2-4.3,2.5-6.5c0.3-2.1,0.2-4.1,0.1-5.7c-0.1-1.6-0.3-3-0.4-3.9s-0.1-1.4-0.1-1.4s0.1,0.5,0.3,1.4
		c0.2,0.9,0.4,2.2,0.5,3.9c0.2,1.6,0.3,3.6,0,5.8s-1.1,4.6-2.5,6.7c-1.4,2.1-3.2,3.8-4.7,5.3c-1.6,1.5-3,2.8-4.2,4
		c-1.1,1.2-2,2.2-2.5,2.9C303.7,237.3,303.4,237.7,303.3,237.7L303.3,237.7z M311.8,215.3c0,0-0.3,0.4-1,0.9
		c-0.7,0.6-1.6,1.4-2.7,2.4c-2.3,2-5.5,4.8-8.9,8c-3.4,3.1-6.5,6.1-8.7,8.2c-1.1,1-1.9,1.8-2.6,2.5c-0.6,0.6-1,0.9-1,0.9
		s0.3-0.4,0.9-1s1.4-1.5,2.5-2.6c2.2-2.2,5.2-5.1,8.6-8.3c3.5-3.1,6.7-5.9,9-7.8c1.2-1,2.1-1.8,2.8-2.3
		C311.4,215.6,311.8,215.3,311.8,215.3L311.8,215.3z"/>
	<path class="st8" d="M284.4,262.5c0,0,13.8,75.5,17.5,81s14.4,21.3,26.3,19.8c11.9-1.4,18.9-14,20.4-25.6s-9.2-52.3-9.2-52.3
		c-9.9-1.1-12.8,0.4-19.4,6.2l-12.8-35L284.4,262.5z"/>
	<path class="st9" d="M306.1,250.2c0.1,0.1-0.5,0.7-1.3,1.8c-1,1.2-2,2.7-3.2,4.2c-2.5,3.3-4.8,5.8-4.9,5.7
		c-0.1-0.1,0.5-0.7,1.3-1.8c1-1.2,2-2.7,3.2-4.2C303.7,252.6,306,250.1,306.1,250.2L306.1,250.2z M331,328.9v-0.8
		c0-0.5,0-1.3-0.1-2.4c-0.1-2.1-0.4-5-1.2-8.6c-0.8-3.6-2.1-7.8-4-12.3c-0.9-2.3-2-4.6-3-7.1s-2.1-5-3.1-7.6
		c-4.1-10.5-7.5-20.2-10-27.1c-1.2-3.5-2.1-6.3-2.8-8.3c-0.3-0.9-0.6-1.7-0.7-2.3c-0.2-0.5-0.2-0.8-0.2-0.8s0.1,0.3,0.3,0.8
		c0.2,0.6,0.5,1.3,0.8,2.2c0.7,2,1.7,4.8,3,8.2c2.5,6.9,6,16.6,10.1,27.1c1,2.6,2,5.2,3.1,7.6c1,2.5,2.1,4.8,3,7.1
		c1.8,4.5,3.1,8.8,3.9,12.4s1,6.6,1.1,8.7v2.4C331.1,328.6,331,328.9,331,328.9L331,328.9z M222.5,215.4c0,0,0,0.1-0.1,0.2
		c-0.1,0.2-0.1,0.4-0.2,0.7c-0.2,0.6-0.5,1.4-0.9,2.5c-0.8,2.2-2,5.3-3.4,9.2c-2.9,7.7-6.9,18.4-11.3,30.1c-1.1,2.9-2.2,5.8-3.5,8.5
		s-2.6,5.2-4,7.6c-1.3,2.4-2.5,4.7-3.6,6.8c-1.1,2.2-1.9,4.2-2.6,6.2c-1.3,3.9-1.7,7.2-1.7,9.5v3.5V300c0-0.2,0-0.4-0.1-0.7
		c0-0.3-0.1-0.7-0.1-1.1s-0.1-1,0-1.5c-0.1-2.3,0.3-5.7,1.6-9.6c0.7-2,1.5-4.1,2.6-6.3s2.3-4.5,3.6-6.9s2.6-4.9,3.9-7.6
		c1.3-2.7,2.3-5.5,3.5-8.5c4.5-11.7,8.5-22.3,11.5-30.1c1.5-3.8,2.7-6.9,3.5-9.1c0.4-1,0.7-1.9,1-2.5
		C222.3,215.8,222.4,215.6,222.5,215.4C222.4,215.5,222.5,215.4,222.5,215.4L222.5,215.4z"/>
</g>
<g id="Device">
	<path class="st6" d="M342.9,20l-156.5-0.1c-18.8,0-34.1,15.3-34.1,34.1l-0.1,392.4c0,18.8,15.3,34.1,34.1,34.1l156.5,0.1
		c18.8,0,34.1-15.3,34.1-34.1L377,54.1C377,35.3,361.7,20,342.9,20z M366.5,440.7c0,13.2-10.7,23.9-23.9,23.9l-156.2-0.1
		c-13.2,0-23.9-10.7-23.9-23.9l0.1-383c0-13.2,10.7-23.9,23.9-23.9h37.3c4.1,0,7.4,3.5,7.4,7.7v5.5c0,4.3,3.3,7.7,7.4,7.7h59.2
		c4.1,0,7.4-3.4,7.4-7.7v-5.5c0-4.3,3.3-7.7,7.4-7.7h30.3c13.2,0,23.9,10.7,23.9,23.9L366.5,440.7z"/>
	<path class="st1" d="M361.5,71.9H173.1c-0.7,0-1.2-0.6-1.2-1.2v-0.3c0-0.7,0.6-1.2,1.2-1.2h188.4c0.7,0,1.2,0.6,1.2,1.2v0.3
		C362.8,71.4,362.2,71.9,361.5,71.9z"/>
	<path class="st4" d="M275.2,71.9h-102c-0.7,0-1.2-0.6-1.2-1.2v-0.3c0-0.7,0.6-1.2,1.2-1.2h102c0.7,0,1.2,0.6,1.2,1.2v0.3
		C276.4,71.4,275.8,71.9,275.2,71.9z"/>
	<path class="st5" d="M230.5,94.3v4.3h-0.8l-2.1-2.6v2.6h-1v-4.3h0.8l2.1,2.6v-2.6H230.5z M231.3,94.3c0-0.3,0.2-0.5,0.6-0.5
		c0.4,0,0.6,0.2,0.6,0.5s-0.2,0.6-0.6,0.6C231.5,94.8,231.3,94.6,231.3,94.3z M231.4,95.3h1v3.3h-1V95.3z M233,96.9
		c0-1,0.8-1.7,1.8-1.7c0.7,0,1.2,0.3,1.5,0.8l-0.7,0.4c-0.2-0.3-0.4-0.5-0.7-0.5c-0.5,0-0.9,0.3-0.9,0.9s0.4,0.9,0.9,0.9
		c0.3,0,0.6-0.1,0.7-0.5l0.7,0.4c-0.2,0.5-0.8,0.8-1.5,0.8C233.8,98.6,233,97.9,233,96.9L233,96.9z M238.3,97.3l-0.5,0.5v0.8h-1V94
		h1v2.6l1.4-1.3h1.1l-1.4,1.4l1.5,1.9h-1.2L238.3,97.3L238.3,97.3z M244.3,96.7v1.9h-1v-1.7c0-0.5-0.2-0.8-0.7-0.8s-0.8,0.3-0.8,0.9
		v1.6h-1v-3.3h0.9v0.4c0.3-0.3,0.6-0.4,1.1-0.4C243.7,95.2,244.3,95.7,244.3,96.7z M248.1,96.7v1.9h-0.9v-0.4
		c-0.2,0.3-0.5,0.5-1,0.5c-0.8,0-1.2-0.4-1.2-1s0.4-1,1.4-1h0.8c0-0.4-0.2-0.7-0.8-0.7c-0.4,0-0.7,0.1-1,0.3l-0.3-0.7
		c0.4-0.3,0.9-0.4,1.4-0.4C247.5,95.2,248.1,95.7,248.1,96.7z M247.1,97.5v-0.3h-0.7c-0.4,0-0.6,0.2-0.6,0.4s0.2,0.4,0.5,0.4
		C246.7,98,247,97.8,247.1,97.5z M254.5,96.7v1.9h-1v-1.7c0-0.5-0.2-0.8-0.6-0.8c-0.4,0-0.7,0.3-0.7,0.9v1.7h-1V97
		c0-0.5-0.2-0.8-0.6-0.8c-0.4,0-0.7,0.3-0.7,0.9v1.7h-1v-3.3h0.9v0.4c0.2-0.3,0.6-0.4,1-0.4c0.5,0,0.9,0.2,1.1,0.5
		c0.3-0.3,0.7-0.5,1.2-0.5C254,95.2,254.5,95.7,254.5,96.7L254.5,96.7z M258.7,97.2h-2.5c0.1,0.4,0.4,0.7,0.9,0.7
		c0.4,0,0.6-0.1,0.8-0.3l0.5,0.6c-0.3,0.4-0.8,0.5-1.4,0.5c-1.1,0-1.9-0.7-1.9-1.7s0.8-1.7,1.8-1.7c1,0,1.7,0.7,1.7,1.7
		C258.7,97,258.7,97.1,258.7,97.2z M256.1,96.7h1.6c-0.1-0.4-0.4-0.7-0.8-0.7S256.2,96.2,256.1,96.7L256.1,96.7z M231.1,102.7
		l-1.2,3.1h-0.4l-1-2.5l-1,2.5h-0.4l-1.2-3.1h0.4l1,2.6l1-2.6h0.4l1,2.6l1-2.6H231.1z M234,103.8v1.9h-0.4v-0.5
		c-0.2,0.3-0.5,0.5-1.1,0.5c-0.7,0-1.1-0.4-1.1-0.9s0.3-0.9,1.2-0.9h1v-0.2c0-0.5-0.3-0.8-0.9-0.8c-0.4,0-0.8,0.1-1,0.4l-0.2-0.3
		c0.3-0.3,0.8-0.4,1.3-0.4C233.5,102.6,234,103,234,103.8z M233.5,104.8v-0.5h-1c-0.6,0-0.8,0.2-0.8,0.5c0,0.4,0.3,0.6,0.8,0.6
		S233.4,105.2,233.5,104.8z M234.7,105.4l0.2-0.3c0.2,0.2,0.7,0.3,1.1,0.3c0.6,0,0.8-0.2,0.8-0.5c0-0.8-2-0.2-2-1.4
		c0-0.5,0.4-0.9,1.2-0.9c0.4,0,0.8,0.1,1.1,0.3l-0.2,0.3c-0.3-0.2-0.6-0.3-0.9-0.3c-0.6,0-0.8,0.2-0.8,0.5c0,0.8,2,0.2,2,1.4
		c0,0.5-0.5,0.9-1.3,0.9C235.4,105.8,234.9,105.6,234.7,105.4L234.7,105.4z M239.5,101.4h0.4v4.3h-0.4V101.4z M240.9,101.7
		c0-0.2,0.1-0.3,0.3-0.3s0.3,0.1,0.3,0.3c0,0.2-0.1,0.3-0.3,0.3C241.1,102,240.9,101.9,240.9,101.7z M241,102.7h0.4v3.1H241V102.7z
		 M245.2,102.7l-1.4,3.1h-0.4l-1.4-3.1h0.4l1.2,2.6l1.2-2.6H245.2z M248.4,104.3h-2.6c0,0.6,0.5,1.1,1.2,1.1c0.4,0,0.7-0.1,0.9-0.4
		l0.2,0.3c-0.3,0.3-0.7,0.5-1.2,0.5c-1,0-1.6-0.7-1.6-1.6s0.6-1.6,1.5-1.6s1.5,0.6,1.5,1.6C248.4,104.2,248.4,104.3,248.4,104.3
		L248.4,104.3z M245.8,104h2.2c-0.1-0.6-0.5-1-1.1-1S245.8,103.4,245.8,104L245.8,104z M248.9,105.4c0-0.2,0.1-0.3,0.3-0.3
		s0.3,0.1,0.3,0.3c0,0.2-0.1,0.3-0.3,0.3S248.9,105.6,248.9,105.4z M254.4,104.6c0,0.7-0.5,1.2-1.5,1.2c-0.6,0-1.2-0.2-1.5-0.5
		l0.2-0.3c0.3,0.3,0.7,0.5,1.3,0.5c0.7,0,1.1-0.3,1.1-0.8s-0.3-0.8-1.1-0.8h-0.3v-0.3l1.1-1.4h-2.1v-0.4h2.6v0.3l-1.2,1.5
		C254,103.4,254.4,103.9,254.4,104.6L254.4,104.6z M258.1,104v1.8h-0.4V104c0-0.6-0.3-1-0.9-1c-0.7,0-1.1,0.4-1.1,1.1v1.6h-0.4v-4.3
		h0.4v1.8c0.2-0.4,0.6-0.6,1.2-0.6C257.6,102.6,258.1,103.1,258.1,104L258.1,104z M263.1,103.8v1.9h-0.4v-0.5
		c-0.2,0.3-0.5,0.5-1.1,0.5c-0.7,0-1.1-0.4-1.1-0.9s0.3-0.9,1.2-0.9h1v-0.2c0-0.5-0.3-0.8-0.9-0.8c-0.4,0-0.8,0.1-1,0.4l-0.2-0.3
		c0.3-0.3,0.8-0.4,1.3-0.4C262.6,102.6,263.1,103,263.1,103.8z M262.6,104.8v-0.5h-1c-0.6,0-0.8,0.2-0.8,0.5c0,0.4,0.3,0.6,0.8,0.6
		S262.5,105.2,262.6,104.8z M267,102.7v2.7c0,1.1-0.5,1.5-1.5,1.5c-0.6,0-1.1-0.2-1.4-0.5l0.2-0.3c0.3,0.3,0.7,0.4,1.2,0.4
		c0.8,0,1.1-0.4,1.1-1.1V105c-0.3,0.4-0.7,0.6-1.2,0.6c-0.9,0-1.5-0.6-1.5-1.5s0.7-1.5,1.5-1.5c0.5,0,1,0.2,1.2,0.6v-0.6L267,102.7
		L267,102.7z M266.6,104.1c0-0.7-0.5-1.1-1.2-1.1s-1.2,0.5-1.2,1.1c0,0.7,0.5,1.1,1.2,1.1C266.1,105.3,266.6,104.8,266.6,104.1z
		 M267.9,104.2c0-0.9,0.7-1.6,1.6-1.6s1.6,0.6,1.6,1.6c0,0.9-0.7,1.6-1.6,1.6S267.9,105.1,267.9,104.2z M270.6,104.2
		c0-0.7-0.5-1.2-1.1-1.2s-1.1,0.5-1.1,1.2s0.5,1.2,1.1,1.2S270.6,104.9,270.6,104.2z M181.2,142.6c-0.1,0-0.3,0-0.4-0.1l-4.4-4.4
		c-0.1-0.1-0.1-0.2-0.1-0.4c0-0.1,0.1-0.3,0.2-0.4l4.4-4.3c0.2-0.2,0.5-0.2,0.7,0s0.2,0.5,0,0.7l-4.1,4l4.1,4c0.2,0.2,0.2,0.5,0,0.7
		C181.5,142.5,181.3,142.6,181.2,142.6z M349.6,142.6c-0.1,0-0.3-0.1-0.4-0.2c-0.2-0.2-0.2-0.5,0-0.7l4.1-4l-4.1-4
		c-0.2-0.2-0.2-0.5,0-0.7s0.5-0.2,0.7,0l4.4,4.4c0.1,0.1,0.1,0.2,0.1,0.4c0,0.1-0.1,0.3-0.2,0.4l-4.4,4.3
		C349.9,142.5,349.7,142.6,349.6,142.6z"/>
	<path class="st3" d="M342,448.5H190.8c-9.2,0-16.7-7.5-16.7-16.7v-3.9c0-9.2,7.5-16.7,16.7-16.7H342c9.2,0,16.7,7.5,16.7,16.7v3.9
		C358.7,441,351.3,448.5,342,448.5z"/>
	<path class="st4" d="M342,448.5c0,0,0.4,0,1.1-0.1c0.4,0,0.8,0,1.3-0.1s1.1-0.2,1.8-0.4c1.3-0.3,3-0.9,4.7-2s3.5-2.6,5-4.8
		c1.4-2.2,2.6-4.9,2.8-8.1c0-3.2,0.4-6.7-0.8-10.3c-1.1-3.5-3.7-6.9-7.3-9c-1.8-1.1-3.9-1.8-6-2.1c-2.2-0.3-4.5-0.2-6.8-0.2
		c-37.6,0-89.5,0-146.8,0.1c-3.5,0-7,1.1-9.8,3.3c-2.8,2.1-4.9,5.1-5.9,8.3c-1.4,6.5-1.4,14.3,3.1,19.4c2.2,2.5,5,4.4,8.2,5.2
		c1.6,0.5,3.2,0.6,4.8,0.6h24c24.8,0,47.2,0,66,0.1c18.8,0,34,0.1,44.5,0.1h15.2C341.7,448.4,342,448.5,342,448.5h-16.3
		c-10.5,0-25.7,0-44.5,0.1c-18.8,0-41.2,0-66,0.1h-24c-1.6,0-3.3-0.1-5-0.6c-3.3-0.9-6.2-2.8-8.5-5.4c-1.1-1.3-2-2.8-2.7-4.4
		s-1.1-3.3-1.2-5c-0.1-1.8-0.1-3.5-0.1-5.2c0-1.8,0.2-3.5,0.8-5.2c1.1-3.4,3.2-6.5,6.1-8.6c2.9-2.2,6.5-3.3,10.1-3.4
		c57.3,0,109.2,0.1,146.8,0.1c2.3,0,4.6-0.1,6.9,0.2c2.2,0.3,4.3,1.1,6.2,2.2c3.7,2.2,6.2,5.6,7.4,9.2c0.6,1.8,0.8,3.6,0.8,5.4
		c0,1.7,0.1,3.4-0.1,5c-0.2,3.2-1.4,6-2.8,8.2c-1.5,2.2-3.3,3.7-5,4.8c-1.7,1.1-3.4,1.7-4.7,2c-0.7,0.2-1.3,0.3-1.8,0.3
		c-0.5,0.1-1,0.1-1.3,0.1C342.4,448.5,342,448.5,342,448.5L342,448.5z"/>
	<circle class="st4" cx="340.3" cy="429.6" r="11.2"/>
	<path class="st3" d="M340,436.5c-0.2,0-0.3-0.1-0.3-0.3l-1.4-5.3l-5-1.8c-0.1,0-0.2-0.2-0.2-0.3c0-0.1,0.1-0.3,0.2-0.3l11.7-4.2
		c0.1,0,0.3,0,0.4,0.1s0.1,0.2,0.1,0.4l-5.1,11.4C340.3,436.4,340.2,436.5,340,436.5L340,436.5z M334.4,428.9l4.2,1.5
		c0.1,0,0.2,0.1,0.2,0.2l1.2,4.5l4.3-9.8L334.4,428.9L334.4,428.9z"/>
	<path class="st3" d="M338.5,431c-0.1,0-0.2,0-0.3-0.1c-0.1-0.1-0.1-0.4,0-0.5l6.5-6c0.1-0.1,0.4-0.1,0.5,0s0.1,0.4,0,0.5l-6.5,6
		C338.7,431,338.6,431,338.5,431z"/>
	<path class="st5" d="M215.8,426.7H214v-0.5h4.1v0.5h-1.8v4.6h-0.5V426.7z M221.8,427.5l-1.9,4.3c-0.3,0.8-0.7,1-1.3,1
		c-0.4,0-0.7-0.1-0.9-0.4l0.2-0.4c0.2,0.2,0.4,0.3,0.7,0.3s0.6-0.2,0.8-0.6l0.2-0.4l-1.7-3.8h0.5l1.4,3.3l1.4-3.3H221.8z
		 M226.4,429.4c0,1.2-0.8,2-1.9,2c-0.6,0-1.1-0.3-1.5-0.8v2.1h-0.5v-5.2h0.5v0.8c0.3-0.5,0.8-0.8,1.5-0.8
		C225.6,427.5,226.4,428.3,226.4,429.4z M225.9,429.4c0-0.9-0.6-1.5-1.4-1.5c-0.8,0-1.4,0.6-1.4,1.5s0.6,1.5,1.4,1.5
		C225.3,430.9,225.9,430.3,225.9,429.4z M230.8,429.6h-3.2c0.1,0.8,0.7,1.3,1.5,1.3c0.5,0,0.9-0.2,1.2-0.5l0.3,0.3
		c-0.3,0.4-0.9,0.6-1.5,0.6c-1.2,0-2-0.8-2-2c0-1.1,0.8-1.9,1.9-1.9c1.1,0,1.9,0.8,1.9,1.9C230.8,429.5,230.8,429.5,230.8,429.6
		L230.8,429.6z M227.6,429.2h2.7c-0.1-0.8-0.6-1.3-1.4-1.3C228.2,427.9,227.7,428.5,227.6,429.2z M236.7,429v2.4h-0.5v-0.6
		c-0.2,0.4-0.7,0.6-1.3,0.6c-0.9,0-1.4-0.5-1.4-1.1s0.4-1.1,1.5-1.1h1.2V429c0-0.7-0.4-1-1.1-1c-0.5,0-1,0.2-1.3,0.5l-0.2-0.4
		c0.4-0.3,1-0.5,1.6-0.5C236.1,427.5,236.7,428,236.7,429L236.7,429z M236.2,430.2v-0.6H235c-0.7,0-1,0.3-1,0.7c0,0.4,0.4,0.7,1,0.7
		C235.5,431,236,430.7,236.2,430.2L236.2,430.2z M246.3,429.1v2.2h-0.5v-2.2c0-0.8-0.4-1.2-1.1-1.2c-0.8,0-1.3,0.5-1.3,1.4v2h-0.5
		v-2.2c0-0.8-0.4-1.2-1.1-1.2c-0.8,0-1.3,0.5-1.3,1.4v2H240v-3.8h0.5v0.7c0.3-0.5,0.8-0.7,1.4-0.7c0.6,0,1.1,0.3,1.4,0.8
		c0.3-0.5,0.8-0.8,1.5-0.8C245.7,427.5,246.3,428,246.3,429.1L246.3,429.1z M251.1,429.6h-3.2c0.1,0.8,0.7,1.3,1.5,1.3
		c0.5,0,0.9-0.2,1.2-0.5l0.3,0.3c-0.3,0.4-0.9,0.6-1.5,0.6c-1.2,0-2-0.8-2-2c0-1.1,0.8-1.9,1.9-1.9c1.1,0,1.9,0.8,1.9,1.9
		C251.1,429.5,251.1,429.5,251.1,429.6L251.1,429.6z M247.9,429.2h2.7c-0.1-0.8-0.6-1.3-1.4-1.3
		C248.5,427.9,247.9,428.5,247.9,429.2z M251.6,430.9l0.2-0.4c0.3,0.2,0.8,0.4,1.4,0.4c0.7,0,1-0.2,1-0.6c0-1-2.5-0.2-2.5-1.7
		c0-0.6,0.5-1.1,1.5-1.1c0.5,0,1,0.1,1.4,0.4l-0.2,0.4c-0.3-0.2-0.7-0.3-1.1-0.3c-0.7,0-1,0.3-1,0.6c0,1,2.5,0.3,2.5,1.7
		c0,0.7-0.6,1.1-1.6,1.1C252.5,431.4,251.9,431.2,251.6,430.9L251.6,430.9z M255.2,430.9l0.2-0.4c0.3,0.2,0.8,0.4,1.4,0.4
		c0.7,0,1-0.2,1-0.6c0-1-2.5-0.2-2.5-1.7c0-0.6,0.5-1.1,1.5-1.1c0.5,0,1,0.1,1.4,0.4l-0.2,0.4c-0.3-0.2-0.7-0.3-1.1-0.3
		c-0.7,0-1,0.3-1,0.6c0,1,2.5,0.3,2.5,1.7c0,0.7-0.6,1.1-1.6,1.1C256.1,431.4,255.5,431.2,255.2,430.9L255.2,430.9z M262.2,429v2.4
		h-0.5v-0.6c-0.2,0.4-0.7,0.6-1.3,0.6c-0.9,0-1.4-0.5-1.4-1.1s0.4-1.1,1.5-1.1h1.2V429c0-0.7-0.4-1-1.1-1c-0.5,0-1,0.2-1.3,0.5
		l-0.2-0.4c0.4-0.3,1-0.5,1.6-0.5C261.6,427.5,262.2,428,262.2,429L262.2,429z M261.7,430.2v-0.6h-1.2c-0.7,0-1,0.3-1,0.7
		c0,0.4,0.4,0.7,1,0.7C261,431,261.4,430.7,261.7,430.2L261.7,430.2z M267.1,427.5v3.4c0,1.3-0.6,1.9-1.9,1.9
		c-0.7,0-1.4-0.2-1.8-0.6l0.3-0.4c0.4,0.3,0.9,0.5,1.5,0.5c1,0,1.4-0.4,1.4-1.4v-0.5c-0.3,0.5-0.9,0.7-1.5,0.7
		c-1.1,0-1.9-0.8-1.9-1.9s0.8-1.9,1.9-1.9c0.6,0,1.2,0.3,1.5,0.8v-0.7h0.5V427.5z M266.6,429.3c0-0.8-0.6-1.4-1.5-1.4
		c-0.8,0-1.5,0.6-1.5,1.4s0.6,1.4,1.5,1.4S266.6,430.2,266.6,429.3z M271.9,429.6h-3.2c0.1,0.8,0.7,1.3,1.5,1.3
		c0.5,0,0.9-0.2,1.2-0.5l0.3,0.3c-0.3,0.4-0.9,0.6-1.5,0.6c-1.2,0-2-0.8-2-2c0-1.1,0.8-1.9,1.9-1.9s1.9,0.8,1.9,1.9
		C271.9,429.5,271.9,429.5,271.9,429.6L271.9,429.6z M268.7,429.2h2.7c-0.1-0.8-0.6-1.3-1.4-1.3
		C269.3,427.9,268.8,428.5,268.7,429.2L268.7,429.2z M272.7,431c0-0.2,0.2-0.4,0.4-0.4s0.4,0.2,0.4,0.4s-0.2,0.4-0.4,0.4
		C272.8,431.4,272.7,431.2,272.7,431z M274.2,431c0-0.2,0.2-0.4,0.4-0.4s0.4,0.2,0.4,0.4s-0.2,0.4-0.4,0.4S274.2,431.2,274.2,431z
		 M275.8,431c0-0.2,0.2-0.4,0.4-0.4s0.4,0.2,0.4,0.4s-0.2,0.4-0.4,0.4C275.9,431.4,275.8,431.2,275.8,431z"/>
	<path class="st4" d="M191.1,433c-0.7,0.9-2,1-2.8,0.3c-0.9-0.7-1-2-0.3-2.8l4.2-5c0.5-0.6,1.3-0.6,1.8-0.2c0.6,0.5,0.6,1.3,0.2,1.8
		l-3.5,4.3c-0.3,0.2-0.7,0.2-0.9,0c-0.3-0.2-0.3-0.6-0.2-0.9l2.7-3.3l-0.4-0.3l-2.6,3.1l-0.1,0.2c-0.3,0.5-0.2,1.2,0.3,1.6
		s1.1,0.4,1.6,0l0.1-0.1l0.1-0.1l3.5-4.1c0.6-0.8,0.5-1.9-0.3-2.5c-0.7-0.6-1.8-0.5-2.5,0.2l-4.4,5.2c-0.7,1.1-0.5,2.5,0.5,3.3
		s2.5,0.8,3.4-0.2l3.5-4.2l-0.4-0.3L191.1,433L191.1,433z"/>
	<path class="st12" d="M239.4,383.6c-0.7,0-1.3,0.3-1.7,0.7c-0.4-0.5-1.1-0.7-1.7-0.7c-1.3,0-2.4,1.1-2.4,2.4c0,2.2,4.2,4.8,4.2,4.8
		s4.2-2.6,4.2-4.8C241.8,384.7,240.7,383.6,239.4,383.6z M228.7,383.6c-0.7,0-1.3,0.3-1.7,0.7c-0.4-0.5-1.1-0.7-1.7-0.7
		c-1.3,0-2.4,1.1-2.4,2.4c0,2.2,4.2,4.8,4.2,4.8s4.2-2.6,4.2-4.8C231.1,384.7,230,383.6,228.7,383.6z"/>
	<path class="st11" d="M230,347.4h-0.8l-1.7-2.5v-1.6c0,0-1.2-0.1-1.1,2c0.1,2.1-0.1,1.5-0.1,1.5s-2.6-0.1-2.8,0.2
		c-0.2,0.2-0.3,2.7-0.4,4.1c0,0.7,0.4,1.4,1,1.6h0.3c0.6,0,4-0.4,4-0.4h1.4L230,347.4L230,347.4z M232.3,347l-0.7,5.4h-1.3l0.1-5.3
		L232.3,347z M243.6,347.4h-0.8l-1.7-2.5v-1.6c0,0-1.2-0.1-1.1,2c0.1,2.1-0.1,1.5-0.1,1.5s-2.6-0.1-2.8,0.2
		c-0.2,0.2-0.3,2.7-0.4,4.1c0,0.7,0.4,1.4,1,1.6h0.3c0.6,0,4-0.4,4-0.4h1.4L243.6,347.4L243.6,347.4z M245.8,347l-0.6,5.4h-1.4
		l0.2-5.3L245.8,347z"/>
	<path class="st5" d="M223.2,335.7h1v4.6h-1V335.7z M228.3,338.9h-2.5c0.1,0.4,0.4,0.7,0.9,0.7c0.4,0,0.6-0.1,0.8-0.3l0.5,0.6
		c-0.3,0.3-0.8,0.5-1.4,0.5c-1.1,0-1.9-0.7-1.9-1.7s0.8-1.7,1.8-1.7s1.7,0.7,1.7,1.7C228.3,338.7,228.3,338.8,228.3,338.9
		L228.3,338.9z M225.8,338.3h1.6c-0.1-0.4-0.4-0.7-0.8-0.7C226.1,337.7,225.8,337.9,225.8,338.3z M232.2,337l-1.4,3.3h-1l-1.4-3.3h1
		l0.9,2.3l0.9-2.3H232.2z M232.4,336c0-0.3,0.2-0.5,0.6-0.5c0.4,0,0.6,0.2,0.6,0.5s-0.2,0.6-0.6,0.6
		C232.7,336.5,232.4,336.3,232.4,336z M232.5,337h1v3.3h-1V337z M234.4,335.7h1v4.6h-1V335.7z M235.8,340.3h3.1v0.6h-3.1V340.3z
		 M239,341.3l0.3-0.7c0.1,0.1,0.2,0.1,0.4,0.1s0.4-0.2,0.4-0.5V337h1v3.3c0,0.8-0.4,1.2-1.2,1.2C239.5,341.5,239.2,341.5,239,341.3z
		 M239.9,336c0-0.3,0.2-0.5,0.6-0.5c0.4,0,0.6,0.2,0.6,0.5s-0.2,0.6-0.6,0.6C240.2,336.5,239.9,336.3,239.9,336z M245.2,337v3.3
		h-0.9v-0.4c-0.3,0.3-0.6,0.4-1,0.4c-0.8,0-1.4-0.5-1.4-1.5V337h1v1.7c0,0.6,0.2,0.8,0.7,0.8c0.4,0,0.8-0.3,0.8-0.9V337H245.2
		L245.2,337z M246.1,335.7h1v4.6h-1V335.7z M247.8,336c0-0.3,0.2-0.5,0.6-0.5c0.4,0,0.6,0.2,0.6,0.5s-0.2,0.6-0.6,0.6
		C248.1,336.5,247.8,336.3,247.8,336z M248,337h1v3.3h-1V337z M252.7,338.4v1.9h-0.9v-0.4c-0.2,0.3-0.5,0.5-1,0.5
		c-0.8,0-1.2-0.4-1.2-1s0.4-1,1.4-1h0.8c0-0.4-0.2-0.7-0.8-0.7c-0.4,0-0.7,0.1-1,0.3l-0.3-0.7c0.4-0.3,0.9-0.4,1.4-0.4
		C252.2,336.9,252.7,337.4,252.7,338.4L252.7,338.4z M251.8,339.2v-0.3h-0.7c-0.4,0-0.6,0.2-0.6,0.4s0.2,0.4,0.5,0.4
		C251.4,339.7,251.7,339.5,251.8,339.2z M223.2,379.2l0.6-0.7c0.2,0.3,0.5,0.5,0.8,0.5c0.4,0,0.6-0.2,0.6-0.7v-2h-1.5v-0.8h2.5v2.8
		c0,1.1-0.5,1.6-1.5,1.6C224,379.9,223.5,379.6,223.2,379.2L223.2,379.2z M226.8,378.1c0-1,0.8-1.7,1.8-1.7c1.1,0,1.8,0.7,1.8,1.7
		s-0.8,1.7-1.8,1.7S226.8,379.1,226.8,378.1z M229.4,378.1c0-0.6-0.4-0.9-0.8-0.9c-0.5,0-0.8,0.3-0.8,0.9s0.4,0.9,0.8,0.9
		C229.1,379,229.4,378.7,229.4,378.1z M234.4,377.9v1.9h-1V378c0-0.5-0.2-0.8-0.7-0.8s-0.8,0.3-0.8,0.9v1.6h-1v-4.6h1v1.6
		c0.3-0.3,0.6-0.4,1.1-0.4C233.8,376.4,234.4,376.9,234.4,377.9L234.4,377.9z M238.7,377.9v1.9h-1V378c0-0.5-0.2-0.8-0.7-0.8
		s-0.8,0.3-0.8,0.9v1.6h-1v-3.3h0.9v0.4c0.3-0.3,0.6-0.4,1.1-0.4C238.1,376.4,238.7,376.9,238.7,377.9L238.7,377.9z M239.1,379.8
		h3.1v0.6h-3.1V379.8z M244,375.5v4.3h-1v-3.5h-0.9v-0.8H244z M248,379v0.8h-3.3v-0.6l1.7-1.6c0.4-0.4,0.4-0.6,0.4-0.8
		c0-0.3-0.2-0.5-0.7-0.5c-0.4,0-0.7,0.1-0.9,0.4l-0.7-0.5c0.3-0.5,0.9-0.8,1.7-0.8c1,0,1.6,0.5,1.6,1.3c0,0.4-0.1,0.8-0.7,1.4
		l-1,0.9L248,379L248,379z M239.4,383.6c0,0,0.3-0.1,0.8,0s1.3,0.6,1.6,1.5c0.2,0.5,0.2,1,0,1.6s-0.5,1.1-0.9,1.6
		c-0.8,1-1.9,1.9-3.2,2.7l-0.1,0.1l-0.1-0.1c-0.5-0.3-1.1-0.7-1.6-1.2c-0.9-0.7-1.6-1.4-2.2-2.4c-0.3-0.5-0.5-1-0.5-1.5
		s0.2-1,0.5-1.4c0.5-0.8,1.5-1.2,2.3-1.2s1.4,0.4,1.8,0.8h-0.2c0.5-0.5,1-0.6,1.3-0.7C239.2,383.5,239.4,383.6,239.4,383.6
		c0,0-0.2,0-0.5,0.1s-0.8,0.3-1.2,0.7l-0.1,0.1l-0.1-0.1c-0.4-0.4-0.9-0.7-1.6-0.7c-0.7,0-1.4,0.3-1.9,1c-0.2,0.3-0.3,0.7-0.3,1.2
		c0,0.4,0.2,0.8,0.4,1.2c0.5,0.8,1.3,1.5,2.1,2.2c0.5,0.4,1,0.8,1.5,1.1h-0.3c1.2-0.8,2.3-1.6,3.1-2.5c0.4-0.5,0.7-0.9,0.9-1.4
		s0.2-1,0-1.4c-0.3-0.8-0.9-1.3-1.4-1.4C239.7,383.6,239.4,383.6,239.4,383.6L239.4,383.6z M228.7,383.6c0,0,0.3-0.1,0.8,0
		s1.3,0.6,1.6,1.5c0.2,0.5,0.2,1,0,1.6s-0.5,1.1-0.9,1.6c-0.8,1-1.9,1.9-3.2,2.7l-0.1,0.1l-0.1-0.1c-0.5-0.3-1.1-0.7-1.6-1.2
		c-0.9-0.7-1.6-1.4-2.2-2.4c-0.3-0.5-0.5-1-0.5-1.5s0.2-1,0.5-1.4c0.5-0.8,1.5-1.2,2.3-1.2s1.4,0.4,1.8,0.8h-0.2
		c0.5-0.5,1-0.6,1.3-0.7C228.5,383.5,228.7,383.6,228.7,383.6c0,0-0.2,0-0.5,0.1s-0.8,0.3-1.2,0.7l-0.1,0.1l-0.1-0.1
		c-0.4-0.4-0.9-0.7-1.6-0.7c-0.7,0-1.4,0.3-1.9,1c-0.2,0.3-0.3,0.7-0.3,1.2c0,0.4,0.2,0.8,0.4,1.2c0.5,0.8,1.3,1.5,2.1,2.2
		c0.5,0.4,1,0.8,1.5,1.1h-0.3c1.2-0.8,2.3-1.6,3.1-2.5c0.4-0.5,0.7-0.9,0.9-1.4s0.2-1,0-1.4c-0.3-0.8-0.9-1.3-1.4-1.4
		C228.9,383.6,228.7,383.6,228.7,383.6L228.7,383.6z"/>
	
		<ellipse transform="matrix(0.7071 -0.7071 0.7071 0.7071 -182.1577 241.0602)" class="st1" cx="199.9" cy="340.4" rx="16.7" ry="16.7"/>
	<path class="st4" d="M190.1,341.7c-0.4,0.4-0.6,1-0.7,1.6c-0.1,0.6,0,1.2,0,1.8c0.2,2.4,0.2,4.9,0,7.4c1.5-0.9,2.4-2.5,2.8-4.1
		c0.4-1.7,0.3-3.4-0.1-5.1c-0.1-0.5-0.2-1-0.6-1.3C191.2,341.6,190.6,341.4,190.1,341.7"/>
	<path class="st5" d="M192.9,335.8c0.4-0.6,0.4-1.5,0.1-2.2c-0.3-0.7-0.9-1.2-1.6-1.5c-1.9-0.9-4.4-0.1-5.5,1.7
		c-0.4,0.7-0.6,1.6,0,2.2c0.2,0.2,0.6,0.4,0.6,0.7c0,0.3-0.2,0.6-0.5,0.8c-0.8,0.8-1.1,2.2-0.6,3.3s1.6,1.8,2.8,1.8
		c1.6,0,3-1.3,4.6-1.4"/>
	<path class="st4" d="M190.9,335.5c-1.1,1.9-1.7,5-0.4,7.1l1.1-0.2c1-2.5,1.4-5.9,2.3-8.5C192.7,334,191.3,334.8,190.9,335.5
		L190.9,335.5z"/>
	<path class="st5" d="M192.8,334.2c0-0.9,0.8-1.5,1.6-1.8s1.7-0.4,2.4-0.9c0.6-0.4,1.1-1.1,1.6-1.6c1.3-1.3,3.4-1.9,5.2-1.4
		s3.3,2,3.7,3.8c0.3,1.2,0.1,2.7-0.9,3.5c-1.1,0.9-2.8,0.7-4.2,0.4c-1.4-0.3-3.1-0.6-4.3,0.3c-0.7,0.5-1.1,1.3-1.6,2.1
		c-0.4,0.8-1,1.5-1.8,1.8s-2-0.2-2-1.1"/>
	<path class="st5" d="M192.9,334.7c0.1,0.7-0.4,1.4-0.9,1.9s-1.1,1-1.2,1.8c-0.1,0.8,0.5,1.7,0.3,2.5c-0.1,0.5-0.5,0.9-0.8,1.4
		c-0.3,0.7-0.4,1.5-0.2,2.2s0.6,2.3,1.1,2.9c1.4,1.6,3.6,2.9,5.7,3.4c2,0.5,4.2,0.5,6.2,0.3c1.7-0.1,3.7,0,5.1-2.4
		c0.7-1.2,1.1-2.8,1.5-4.2c0.3-1.2,0.6-2.4,0.3-3.6c-0.2-0.7-0.6-1.3-0.8-2c-0.3-0.9-0.2-1.8-0.3-2.7c-0.2-1.9-1.4-3.7-3.1-4.6
		c-1.7-0.9-3.8-1-5.6-0.2"/>
	<path class="st13" d="M208.1,337.7c-0.2-2.5-1.8-5.5-4.2-5.2l-7.6,1.9c-0.7,0.1-1.3,0.7-1.3,1.5l0.5,16.8c0.1,2.4,2.1,4.3,4.5,4.3
		c2.4-0.1,4.3-2,4.3-4.4v-2.1c0,0,3.1-0.5,3.8-4.6C208.4,343.7,208.3,340.4,208.1,337.7L208.1,337.7z"/>
	<path class="st5" d="M206.7,340.5c0,0.3-0.2,0.5-0.5,0.5s-0.5-0.2-0.5-0.5s0.2-0.5,0.5-0.5S206.7,340.2,206.7,340.5z M207.4,339.4
		c-0.1,0.1-0.5-0.2-1-0.2c-0.6,0-1,0.3-1,0.2c0,0,0-0.2,0.2-0.3c0.2-0.1,0.5-0.3,0.8-0.3c0.4,0,0.6,0.1,0.8,0.3
		C207.4,339.2,207.4,339.4,207.4,339.4z M201.3,340.5c0,0.3-0.2,0.5-0.5,0.5s-0.5-0.2-0.5-0.5s0.2-0.5,0.5-0.5
		S201.3,340.2,201.3,340.5z M201.8,339.5c-0.1,0.1-0.5-0.2-1-0.2c-0.6,0-1,0.3-1,0.2c0,0,0-0.2,0.2-0.3c0.2-0.1,0.5-0.3,0.8-0.3
		c0.4,0,0.6,0.1,0.8,0.3S201.9,339.5,201.8,339.5z M203.9,343.7c0,0,0.3-0.1,0.9-0.2c0.1,0,0.3,0,0.3-0.1s0-0.3-0.1-0.4
		c-0.1-0.3-0.3-0.7-0.4-1.1c-0.6-1.6-1-2.8-1-2.9c0.1,0,0.6,1.2,1.2,2.8c0.1,0.4,0.3,0.8,0.4,1.1c0.1,0.2,0.1,0.3,0.1,0.6
		c0,0.1-0.1,0.2-0.2,0.2H203.9z"/>
	<path class="st14" d="M204.3,350.4c0,0-2.8,0.2-5.5-1.4c0,0,1.3,2.8,5.4,2.4L204.3,350.4z"/>
	<path class="st12" d="M203.7,345.1c-0.2-0.3-0.6-0.4-0.9-0.4c-0.2,0-0.5,0.1-0.6,0.3c-0.1,0.2-0.2,0.5,0,0.7s0.5,0.3,0.7,0.2
		c0.3-0.1,0.5-0.3,0.7-0.4c0.1,0,0.1-0.1,0.2-0.2C203.7,345.2,203.7,345.1,203.7,345.1"/>
	<path class="st5" d="M202.2,344.1c0.1,0,0.1,0.6,0.6,1s1.2,0.4,1.2,0.5c0,0-0.1,0.1-0.4,0.1c-0.3,0-0.7-0.1-1-0.3
		c-0.3-0.3-0.5-0.6-0.5-0.9S202.2,344.1,202.2,344.1L202.2,344.1z M202,337.9c-0.1,0.2-0.6,0.1-1.3,0.2s-1.2,0.3-1.3,0.1
		c0-0.1,0.1-0.2,0.3-0.4c0.2-0.1,0.6-0.3,1-0.3s0.8,0,1,0.1S202,337.8,202,337.9L202,337.9z M207.2,337.8c-0.1,0.1-0.5,0-1,0
		s-0.9,0.1-1,0c0-0.1,0-0.2,0.2-0.3c0.2-0.1,0.5-0.2,0.8-0.2s0.6,0.1,0.8,0.3C207.2,337.6,207.2,337.7,207.2,337.8z"/>
	<path class="st5" d="M193.4,347.9c1.1,0.2,2.4-0.1,3.2-0.9s1.3-2,1.1-3.1c-0.1-1-0.7-2-0.3-3c0.5-1.3,2.2-1.6,2.7-2.9
		c0.3-0.7,0-1.6,0.3-2.3c0.3-0.7,1-1.1,1.7-1.3c0.7-0.2,1.4-0.4,2-0.9c0.6-0.4,0.9-1.3,0.6-1.9c-3.1,0.4-6.1,1.1-8.9,2.2
		c-0.7,0.2-1.4,0.5-1.8,1.1c-0.4,0.6-0.4,1.4-0.4,2.2c0.2,3.7,0.3,7.3,0.5,11"/>
	<path class="st6" d="M193.6,349.3c-0.1-0.1-0.2-0.1-0.2-0.2c-0.2-0.1-0.4-0.3-0.7-0.6l-1-1c-0.3-0.4-0.7-1-0.8-1.7s0-1.5,0.5-2.2
		c0.3-0.3,0.6-0.5,1-0.8c0.3-0.3,0.6-0.6,0.7-1c0.3-0.8,0.2-1.8,0.3-2.8s0.5-2,1.2-2.8c0.3-0.4,0.7-0.8,1.2-1s1-0.3,1.4-0.5
		c0.5-0.1,0.9-0.3,1.3-0.6s0.7-0.6,0.9-1c0.5-0.7,0.9-1.5,1.4-2.2c0.2-0.3,0.5-0.6,0.8-0.9c0.3-0.2,0.6-0.4,1-0.5
		c0.7-0.2,1.4-0.2,1.8,0.2c0.5,0.3,0.6,0.8,0.6,1.2c0,0.4-0.1,0.7-0.2,0.8l-0.2,0.2h-0.1l0.1-0.1c0,0,0.1-0.1,0.1-0.2
		c0.1-0.2,0.2-0.4,0.2-0.8s-0.2-0.8-0.6-1.1c-0.4-0.3-1.1-0.4-1.7-0.1c-0.3,0.1-0.6,0.3-0.9,0.5c-0.3,0.2-0.5,0.5-0.8,0.8
		c-0.5,0.6-0.8,1.4-1.4,2.2c-0.3,0.4-0.6,0.7-0.9,1c-0.4,0.3-0.8,0.5-1.3,0.7c-0.5,0.1-1,0.2-1.4,0.5c-0.4,0.2-0.8,0.6-1.2,0.9
		c-0.7,0.8-1,1.8-1.1,2.7c-0.1,1,0,1.9-0.3,2.8c-0.2,0.4-0.5,0.8-0.8,1.1c-0.3,0.3-0.7,0.5-0.9,0.8c-0.5,0.6-0.6,1.4-0.5,2
		c0.1,0.7,0.4,1.2,0.7,1.6s0.7,0.8,0.9,1c0.3,0.3,0.5,0.5,0.7,0.6C193.6,349.2,193.6,349.3,193.6,349.3z"/>
	<path class="st4" d="M189.9,342c-1.2,0.3-2,1.5-2.5,2.6c-0.5,1.2-0.7,2.4-1.4,3.5c0.9,0.2,1.7-0.3,2.4-0.8c0.5-0.3,0.9-0.6,1.2-1.1
		c0.8-1.3,0.2-3,0.6-4.4"/>
	<path class="st11" d="M190.8,341.4c0,0-0.3-0.1-0.6-0.3c-0.3-0.2-0.5-0.4-0.5-0.4s0.3,0.1,0.6,0.3
		C190.6,341.2,190.8,341.3,190.8,341.4z M190.9,340.1c0,0-0.3-0.2-0.6-0.5s-0.6-0.5-0.5-0.6c0,0,0.3,0.2,0.6,0.5
		S191,340.1,190.9,340.1z M190.8,338c0,0-0.2-0.1-0.4-0.3l-0.3-0.3c0,0,0.2,0.1,0.4,0.3C190.7,337.8,190.8,337.9,190.8,338z
		 M191.8,336.7c0,0-0.3-0.2-0.5-0.4l-0.4-0.6c0,0,0.2,0.2,0.4,0.5C191.6,336.4,191.8,336.6,191.8,336.7z M192.8,335.6
		c0,0-0.2-0.2-0.5-0.4c-0.3-0.3-0.4-0.5-0.4-0.5s0.2,0.2,0.5,0.4C192.6,335.3,192.8,335.5,192.8,335.6z"/>
	<path class="st5" d="M189.5,352.3v-5.1c0-0.7,0-1.4,0.1-2c0-0.6,0.1-1.1,0.2-1.6s0.2-0.8,0.2-1.1c0-0.1,0.1-0.2,0.1-0.3v-0.1
		c0,0,0,0.1-0.1,0.4c-0.1,0.2-0.1,0.6-0.2,1.1c-0.1,0.4-0.1,1-0.2,1.6v2c0,1.4,0,2.6-0.1,3.6V352.3z"/>
	<path class="st11" d="M191.1,350.9c0,0-0.4-0.3-0.8-0.8c-0.4-0.4-0.7-0.8-0.7-0.9c0,0,0.3,0.4,0.8,0.8
		C190.8,350.6,191.1,350.9,191.1,350.9z M192.1,349.1c0,0-0.2-0.1-0.4-0.3c-0.2-0.2-0.6-0.5-0.9-0.9c-0.3-0.4-0.6-0.8-0.8-1.1
		c-0.1-0.1-0.1-0.3-0.2-0.4c0-0.1-0.1-0.1,0-0.1c0,0,0.1,0.2,0.3,0.5s0.4,0.7,0.8,1c0.3,0.4,0.7,0.7,0.9,0.9
		C192,348.9,192.1,349,192.1,349.1L192.1,349.1z M188,347.6c0,0-0.1-0.1-0.2-0.3c-0.1-0.2-0.2-0.5-0.3-0.8s-0.2-0.6-0.2-0.8
		c0-0.2-0.1-0.4-0.1-0.4s0.2,0.5,0.4,1.2C187.8,347.1,188,347.6,188,347.6L188,347.6z M189.2,346.6c0,0-0.2-0.8-0.5-1.7
		c-0.3-1-0.4-1.8-0.4-1.8s0.2,0.8,0.5,1.7C189.1,345.8,189.3,346.6,189.2,346.6z M189.7,343.2l-0.2-0.4c-0.1-0.2-0.1-0.4-0.1-0.4
		c0,0.1,0.1,0.2,0.1,0.4C189.7,343,189.7,343.2,189.7,343.2z"/>
	<path class="st4" d="M190.4,354.1l5.1-1.4l8.8-0.1l5.6,1.2c0,0-3.8,3.4-10,3.3S190.4,354.1,190.4,354.1L190.4,354.1z"/>
	
		<ellipse transform="matrix(0.1513 -0.9885 0.9885 0.1513 -207.1375 519.5345)" class="st1" cx="199" cy="380.4" rx="16.7" ry="16.7"/>
	<path class="st8" d="M198.4,396.4c-2.7,0.3-5.1-1.7-5.3-4.4l-1.5-14.8c-0.4-4,2.6-7.5,6.6-7.8h0.1c3.9-0.1,7.2,2.9,7.5,6.7
		c0.3,3.4,0.6,7.1,0.6,8.9c0,3.8-3.8,4.5-3.8,4.5s0.1,0.6,0.1,1.5C203.1,393.8,201.1,396.1,198.4,396.4L198.4,396.4z"/>
	<path class="st9" d="M202.6,389.6c0,0-2.4,0.2-5-1.4c0,0,1.3,2.7,5.1,2.3L202.6,389.6z"/>
	<path class="st5" d="M204.3,378.8c0,0.3-0.2,0.5-0.5,0.6c-0.3,0-0.6-0.2-0.6-0.5s0.2-0.5,0.5-0.6
		C204,378.3,204.3,378.5,204.3,378.8z M205,377.8c-0.1,0.1-0.5-0.2-1.1-0.2s-1,0.3-1.1,0.2c0,0,0-0.2,0.2-0.3
		c0.2-0.1,0.5-0.3,0.9-0.3s0.7,0.1,0.9,0.3C205,377.7,205,377.8,205,377.8L205,377.8z M198.7,379c0,0.3-0.2,0.5-0.5,0.6
		c-0.3,0-0.6-0.2-0.6-0.5s0.2-0.5,0.5-0.6C198.4,378.5,198.6,378.7,198.7,379z M199.2,378c-0.1,0.1-0.5-0.2-1.1-0.2s-1,0.3-1.1,0.2
		c0,0,0-0.2,0.2-0.3c0.2-0.1,0.5-0.3,0.9-0.3s0.7,0.1,0.9,0.3C199.2,377.9,199.2,378,199.2,378L199.2,378z M201.4,382.4
		c0,0,0.4-0.1,1-0.2c0.2,0,0.3-0.1,0.3-0.2s0-0.3-0.1-0.4c-0.1-0.4-0.3-0.7-0.5-1.1c-0.6-1.6-1.1-3-1.1-3c0.1,0,0.6,1.3,1.3,2.9
		c0.2,0.4,0.3,0.8,0.4,1.1c0.1,0.2,0.2,0.4,0.1,0.6c0,0.1-0.1,0.2-0.2,0.2h-0.3C201.8,382.4,201.4,382.4,201.4,382.4z M199.7,382.8
		c0.1,0,0.1,0.6,0.7,1.1c0.6,0.4,1.2,0.4,1.2,0.5c0,0-0.2,0.1-0.4,0.1c-0.3,0-0.7-0.1-1-0.3c-0.3-0.3-0.5-0.6-0.5-0.9
		C199.6,383,199.6,382.8,199.7,382.8L199.7,382.8z M199.3,375.7c-0.1,0.2-0.6,0.1-1.3,0.2s-1.3,0.3-1.3,0.2c0-0.1,0.1-0.2,0.3-0.4
		c0.2-0.2,0.6-0.3,1-0.4s0.8,0,1.1,0.1C199.2,375.5,199.3,375.6,199.3,375.7L199.3,375.7z M204.8,376.1c-0.1,0.1-0.5,0-1,0
		s-0.9,0.1-1,0c0-0.1,0-0.2,0.2-0.3c0.2-0.1,0.5-0.2,0.8-0.2s0.6,0.1,0.8,0.3C204.7,375.9,204.8,376,204.8,376.1z M195.7,373
		c-0.6,0.5-1,1.2-1.1,2v0.1c-0.1,1.1-0.1,2.2-0.2,3.3c-0.1,1.1,0,1.9-1.1,2.3c-0.7,0.2-1.3-0.1-1.6-0.5c-0.1-0.1-0.1-0.3-0.1-0.5
		c-0.2-2.6-0.9-3.6-0.9-6.4c0-0.8,0.3-1.5,0.9-1.9c0.6-0.4,1.3-0.9,1.9-0.6c0.7,0.3,1.5,1.5,2,2"/>
	<path class="st8" d="M192.9,379c-0.1,0-2.7-0.7-2.5,1.9c0.1,2.6,2.7,2,2.7,1.9C193.2,382.7,192.9,379,192.9,379z"/>
	<path class="st9" d="M192.3,381.8l-0.1,0.1c-0.1,0-0.2,0.1-0.3,0c-0.3-0.1-0.5-0.5-0.6-1c0-0.2,0-0.5,0.1-0.7s0.2-0.3,0.3-0.4
		c0.1,0,0.2,0,0.3,0.1v0.1c0,0,0.1,0,0-0.2c0-0.1,0-0.1-0.1-0.2c-0.1,0-0.2-0.1-0.3-0.1c-0.2,0-0.4,0.2-0.5,0.4
		c-0.1,0.2-0.1,0.5-0.1,0.7c0,0.5,0.3,1,0.7,1.1c0.2,0,0.3,0,0.4-0.1C192.3,381.9,192.3,381.8,192.3,381.8L192.3,381.8z"/>
	<path class="st5" d="M193.5,371.2c-0.7-1,1.1-2.6,2.4-3c1.3-0.4,3,0.2,4.3,0.6c0.8,0.3,1.6,0.6,2.5,0.6c0.6,0,1.1-0.3,1.7-0.5
		c0.5-0.2,1.1-0.4,1.7-0.4c0.6,0,1.2,0.3,1.4,0.9c0.2,0.5-0.1,1.3-0.6,1.4c0.7-0.4,1.8,0.1,1.9,0.9c0.1,0.8-0.7,1.6-1.5,1.5
		c0.4-0.3,1,0.2,0.9,0.6c0,0.5-0.5,0.8-0.9,1c-1.1,0.5-2.4,0.4-3.5,0s-2.2-0.9-3.3-1.3s-3-1.1-4.2-0.7c-0.8,0.3-1.4,1.3-1.9,1.1
		c-0.5-0.2-0.8-0.7-0.9-1.2C193.3,372.2,193.4,371.7,193.5,371.2"/>
	<path class="st6" d="M207.1,370.7c0,0-0.1,0.2-0.4,0.5c-0.3,0.3-0.7,0.7-1.4,1s-1.6,0.3-2.5-0.1s-1.7-1.2-2.6-1.9
		c-0.9-0.7-1.9-1.3-3-1.4c-1-0.1-2,0.3-2.5,0.9s-0.6,1.3-0.6,1.7c0,0.2,0.1,0.4,0.1,0.5s0.1,0.2,0.1,0.1c0,0-0.1-0.2-0.1-0.6
		s0.1-1,0.6-1.6c0.5-0.5,1.4-0.9,2.3-0.8c1,0.1,2,0.6,2.8,1.3c0.9,0.7,1.7,1.5,2.6,1.9c1,0.4,2,0.3,2.7,0s1.2-0.7,1.5-1.1
		C206.8,370.9,206.9,370.8,207.1,370.7C207,370.7,207.1,370.7,207.1,370.7L207.1,370.7z M192.3,378.9c0,0,0.1-0.1,0.2-0.3
		c0.1-0.2,0.2-0.5,0.1-1c-0.1-0.8-0.8-1.7-1-2.9c-0.1-0.6,0-1.1,0.3-1.6c0.2-0.4,0.6-0.7,1-0.9c0.3-0.2,0.7-0.2,0.9-0.1
		c0.2,0,0.3,0.1,0.3,0.1s-0.1-0.1-0.3-0.2s-0.6-0.1-1,0.1c-0.4,0.1-0.8,0.4-1.1,0.9s-0.4,1.1-0.3,1.7c0.1,0.6,0.3,1.2,0.5,1.6
		c0.2,0.5,0.4,0.9,0.5,1.3C192.6,378.5,192.2,378.9,192.3,378.9L192.3,378.9z"/>
	<path class="st4" d="M189.4,394l3.6-2.5c4.1,1.1,7.4,1.1,9.8-0.5l6.1,2.6c0,0-3.8,3.4-10,3.3C192.7,396.9,189.4,394,189.4,394
		L189.4,394z"/>
	<circle class="st1" cx="197.5" cy="101.1" r="22"/>
	<path class="st5" d="M211.9,110.4c0.3-1.8,1.2-3.4,1.5-5.2c0.3-1.9-0.2-3.8-0.7-5.7c-1-3.5-2.1-7-4.5-9.7s-6.3-4.3-9.7-3l-3.6,3.1
		c-2.5,0.6-4,3.1-4.9,5.5s-1.6,5-3.3,6.9c-1.1,1.2-2.7,2.2-2.8,3.8c-0.2,1.5,1,3.2,0.3,4.5c-0.6,1-2,1.3-2.7,2.2
		c-0.7,1.1,0.4,3.9,0.4,3.9s7.2,9.5,23,5.4c4.3-1.1,6.3-3.6,8.6-6C212.2,114.6,211.6,112.5,211.9,110.4L211.9,110.4z"/>
	<path class="st4" d="M184.8,119.3l7.3-2.1l12-0.6l7.3,1.7c0,0-3.7,5.2-14.6,4.8c-7-0.3-9.7-2.4-9.7-2.4"/>
	<path class="st6" d="M189.8,88.4c2.3-2.5,4.3-3.1,6.7-3.3c3.6-0.3,7.5,0.6,10.2,3c2.5,2.2,3.7,5.5,3.8,8.8c0.1,1.2-0.4,2.2-0.8,3.3
		c-0.4,1.1-1.8,2.4-2.9,2.9c-1.1,0.5-1.5,0.1-2.3-0.8c-0.5-0.5-0.7-1.2-1-1.9c-1-2.8-2.3-5.6-4.2-7.9s-4.7-4.1-7.7-4.2"/>
	<path class="st5" d="M187.9,94.7c-0.4-2.2,0.3-4.7,1.9-6.3c1.2-1.2,2.8-2,4.5-2.4c2.2-0.5,4.7-0.5,6.8,0.5s3.7,3.1,3.8,5.4
		c0.1,1-0.2,2.1,0.1,3.1c0.1,0.4,0.3,0.9,0.2,1.3s-0.6,0.6-1,0.7c-0.4,0-0.8-0.1-1.2-0.3c-1.3-0.6-2.3-1.6-3.3-2.6"/>
	<path class="st8" d="M203.7,92.3l-10-3.1c-3.2-0.5-5.6,3.4-6,6.6c-0.4,3.6-0.8,8-0.5,10.7c0.6,5.5,4.7,6.4,4.7,6.4v2.8
		c-0.1,3.9,3.6,6.9,7.4,5.9c0.1,0,0.2,0,0.3-0.1c2.4-0.7,4.1-2.9,4.3-5.4l1.4-21.8C205.4,93.3,204.7,92.5,203.7,92.3L203.7,92.3z"/>
	<path class="st5" d="M189.4,99.4c0,0.4,0.3,0.7,0.6,0.7c0.4,0,0.7-0.2,0.7-0.6s-0.3-0.7-0.6-0.7C189.7,98.8,189.4,99.1,189.4,99.4z
		 M188.6,98.2c0.1,0.1,0.6-0.3,1.4-0.2c0.7,0,1.3,0.4,1.4,0.4c0,0,0-0.2-0.3-0.4c-0.2-0.2-0.6-0.4-1.1-0.4s-0.9,0.1-1.1,0.3
		C188.7,98,188.6,98.1,188.6,98.2L188.6,98.2z M196.9,100c0,0.4,0.3,0.7,0.6,0.7c0.4,0,0.7-0.2,0.7-0.6s-0.3-0.7-0.6-0.7
		C197.3,99.3,197,99.6,196.9,100z M195.9,98.7c0.1,0.1,0.6-0.3,1.4-0.2c0.7,0,1.3,0.4,1.4,0.4c0,0,0-0.2-0.3-0.4
		c-0.2-0.2-0.6-0.4-1.1-0.4s-0.9,0.1-1.1,0.3C196,98.5,195.9,98.6,195.9,98.7L195.9,98.7z M192.9,104.1c0,0-0.5-0.1-1.2-0.3
		c-0.2,0-0.4-0.1-0.4-0.2s0.1-0.3,0.2-0.6c0.2-0.5,0.4-0.9,0.6-1.4c0.9-2,1.5-3.7,1.5-3.7c-0.1,0-0.9,1.6-1.8,3.6
		c-0.2,0.5-0.4,1-0.6,1.4c-0.1,0.2-0.2,0.5-0.1,0.7c0,0.1,0.2,0.3,0.3,0.3s0.2,0.1,0.3,0.1C192.5,104.1,192.9,104.1,192.9,104.1z"/>
	<path class="st9" d="M192,112.9c0,0,3.6,0.4,7.3-1.6c0,0-2,3.8-7.4,3L192,112.9L192,112.9z M193.2,105.9c0.3-0.3,0.8-0.5,1.2-0.4
		c0.3,0.1,0.6,0.2,0.8,0.5s0.2,0.7,0,0.9c-0.2,0.3-0.6,0.3-1,0.2c-0.4-0.1-0.6-0.4-0.9-0.6c-0.1-0.1-0.2-0.1-0.2-0.2
		C193.1,106.1,193.1,106,193.2,105.9"/>
	<path class="st5" d="M195.1,104.7c-0.1,0-0.2,0.8-0.9,1.3s-1.6,0.4-1.6,0.5s0.2,0.2,0.5,0.2c0.4,0,0.9-0.1,1.3-0.4
		c0.4-0.3,0.6-0.8,0.7-1.1S195.2,104.7,195.1,104.7z M195.9,96.4c0.1,0.2,0.8,0.1,1.7,0.3c0.9,0.1,1.6,0.4,1.7,0.3
		c0.1-0.1-0.1-0.3-0.3-0.5c-0.3-0.2-0.7-0.4-1.2-0.5s-1,0-1.3,0.1C196.1,96.2,195.9,96.3,195.9,96.4L195.9,96.4z M189,94.9
		c0.1,0.2,0.6,0,1.3,0.1c0.6,0,1.1,0.2,1.3,0c0.1-0.1,0-0.3-0.2-0.4c-0.2-0.2-0.6-0.3-1-0.3s-0.8,0.1-1,0.3
		C189,94.6,188.9,94.8,189,94.9L189,94.9z"/>
	<path class="st8" d="M203.3,103.3c0-0.4,0.5-1.3,0.9-1.4c1.1-0.1,3,0.1,2.9,2.8c-0.2,3.7-3.8,2.8-3.8,2.7
		C203.2,107.3,203.2,104.7,203.3,103.3L203.3,103.3z"/>
	<path class="st9" d="M204.4,106c0,0,0.1,0,0.2,0.1s0.3,0.1,0.5,0c0.4-0.1,0.8-0.7,0.8-1.4c0-0.3,0-0.7-0.1-0.9
		c-0.1-0.3-0.3-0.5-0.5-0.5c-0.2-0.1-0.3,0.1-0.4,0.2c-0.1,0.1,0,0.2-0.1,0.2c0,0-0.1-0.1,0-0.2c0-0.1,0.1-0.2,0.2-0.2
		c0.1-0.1,0.2-0.1,0.4-0.1c0.3,0,0.5,0.3,0.6,0.6c0.1,0.3,0.2,0.7,0.2,1c-0.1,0.7-0.5,1.4-1,1.6c-0.3,0.1-0.5,0-0.6-0.1
		C204.4,106.1,204.4,106,204.4,106L204.4,106z"/>
	<path class="st5" d="M193.2,88.6c0.2,1.8,1.5,3.4,3.1,4.1c0.9,0.3,2,0.5,2.5,1.3s0.1,2,0.6,2.9c0.6,1.2,2.6,1.3,3.1,2.6
		c0.2,0.6,0,1.2,0.2,1.8c0.3,0.7,1.2,1.1,2,0.9s1.4-0.8,1.7-1.5s0.5-1.5,0.6-2.3c0.2-1.6,0.3-3.1-0.1-4.7c-0.8-3.2-5-7.8-8.3-7.8"/>
	<path class="st6" d="M199.4,87.4c0,0.1-1.6-0.1-3.3,0.7c-1.7,0.7-2.6,2-2.7,1.9c0,0,0.2-0.4,0.6-0.8c0.4-0.5,1.1-1,2-1.4
		s1.7-0.5,2.4-0.6C199.1,87.3,199.4,87.4,199.4,87.4z M195.3,87c0,0.1-0.8,0.4-1.4,1.3c-0.6,0.9-0.6,1.7-0.7,1.7c0,0-0.1-0.2,0-0.6
		c0-0.4,0.2-0.8,0.5-1.3s0.7-0.8,1-0.9C195.1,87,195.3,86.9,195.3,87L195.3,87z"/>
</g>
<path id="Table" class="st5" d="M476.8,480.6c0,0.1-99.7,0.3-222.7,0.3s-222.7-0.1-222.7-0.3c0-0.1,99.7-0.3,222.7-0.3
	C377.1,480.4,476.8,480.5,476.8,480.6z"/>
<g id="Plant">
	<path class="st4" d="M129.2,400.8c1.1-3.8,3.4-7.4,7-9c3.8-1.6,8.1-0.7,12,0.7c3.8,1.4,7.6,3.3,11.7,3.5c4.1,0.3,8.7-1.7,9.9-5.6
		c1.1-3.7-1.1-7.6-3.8-10.3c-5.8-5.6-14.6-8-22.4-6.1c-7.9,1.9-14.6,8-17.2,15.6"/>
	<path class="st15" d="M129.2,400.8c1.1-3.8,3.4-7.4,7-9c3.8-1.6,8.1-0.7,12,0.7c3.8,1.4,7.6,3.3,11.7,3.5c4.1,0.3,8.7-1.7,9.9-5.6
		c1.1-3.7-1.1-7.6-3.8-10.3c-5.8-5.6-14.6-8-22.4-6.1c-7.9,1.9-14.6,8-17.2,15.6"/>
	<path class="st4" d="M96.8,417.2c-6-5.7-5.7-15.6-2.7-23.3c3-7.7,9.5-13.6,16.8-17.5c14.1-7.6,31.8-8.1,46.4-1.5
		c-7.2,0.2-14.1,4.3-17.8,10.4c-3.3,5.5-4,12.1-6.7,17.8c-3,6.4-8.6,11.6-15.2,14.2C111,420,103.4,419.9,96.8,417.2 M94,383.1
		c-6.6-7.8-7.5-20.4-6.5-30.6s3.3-20.5,1.7-30.6c-1-6-3.3-11.7-4.1-17.8c-0.8-6,0.3-12.8,5-16.7c5.4-4.5,13.8-3.4,19.4,0.8
		c5.6,4.2,8.8,10.8,11.2,17.4c5.2,14.4,7.1,30.5,2.8,45.2c-4.3,14.7-14.3,27.9-29,32.4"/>
	<path class="st5" d="M90.8,447.3v-3.5c0.1-2.2,0.3-5.5,0.8-9.5s1.3-8.7,2.5-13.9c1.2-5.2,3.3-10.7,6.3-16.1s6.7-10,10.4-13.8
		c3.7-3.8,7.5-6.8,10.9-9c1.7-1.1,3.3-2,4.6-2.8c1.4-0.7,2.6-1.4,3.7-1.8c1-0.4,1.8-0.8,2.4-1c0.5-0.2,0.8-0.3,0.8-0.3
		s-0.3,0.2-0.8,0.4c-0.6,0.3-1.4,0.6-2.3,1.1c-1,0.5-2.2,1.2-3.6,1.9c-1.4,0.8-2.9,1.7-4.6,2.9c-3.3,2.2-7,5.2-10.7,9.1
		c-3.7,3.8-7.3,8.4-10.2,13.8c-6.1,10.7-7.8,21.9-9,29.7c-0.6,4-0.8,7.2-1,9.4c-0.1,1.1-0.1,1.9-0.2,2.6L90.8,447.3L90.8,447.3z"/>
	<path class="st4" d="M33.6,352.2c-12.3,7.4-12.2,14.1-10.2,20.5s9.6,10.8,15.8,8.4c3.5-1.3,6.1-4.4,8.3-7.5s4.2-6.4,7.3-8.6
		s7.5-3.1,10.6-0.9"/>
	<path class="st15" d="M33.6,352.2c-12.3,7.4-12.2,14.1-10.2,20.5s9.6,10.8,15.8,8.4c3.5-1.3,6.1-4.4,8.3-7.5s4.2-6.4,7.3-8.6
		s7.5-3.1,10.6-0.9"/>
	<path class="st4" d="M24.4,360.3c3.2-4.4,11.1-5.7,16.1-3.5s8.7,6.6,12,11s6.5,9,11,12.1c4.5,3,10.9,4.2,15.4,1.1
		c3-2,4.7-5.5,5.2-9.1s0-7.2-0.7-10.7c-1.1-5.1-2.9-10.5-7-13.8c-4.6-3.6-11-3.8-16.8-3.6c-6.7,0.2-13.5,0.7-19.9,3.1
		C33.5,349.1,27.1,354.1,24.4,360.3"/>
	<path class="st5" d="M80.6,437.5v-1.1c0-0.7-0.1-1.8-0.1-3c-0.1-2.7-0.2-6.5-0.3-11.2c-0.1-4.7-0.3-10.4-0.7-16.6
		c-0.3-6.2-0.8-13.1-1.8-20.2c-0.5-3.6-1-7.1-2-10.3c-1-3.2-2.3-6.2-3.8-9s-3.1-5.3-4.7-7.4c-1.7-2.2-3.5-4.1-5.2-5.7
		c-3.5-3.2-6.8-5.1-9.2-6.3c-0.6-0.3-1.1-0.5-1.6-0.7s-0.9-0.3-1.2-0.5c-0.3-0.1-0.5-0.2-0.7-0.3l-0.2-0.1c0,0,0.1,0,0.3,0.1
		s0.4,0.1,0.8,0.2c0.3,0.1,0.8,0.3,1.2,0.4c0.5,0.2,1,0.4,1.6,0.7c2.4,1.1,5.8,3,9.4,6.2c1.8,1.6,3.5,3.5,5.3,5.7
		c1.7,2.2,3.4,4.7,4.8,7.5c1.5,2.8,2.8,5.8,3.8,9.1s1.6,6.8,2.1,10.4c1,7.2,1.4,14,1.7,20.3c0.3,6.3,0.5,11.9,0.6,16.6
		s0.1,8.6,0.1,11.2v3.8C80.6,437.4,80.6,437.5,80.6,437.5L80.6,437.5z M85,443c0,0-0.7-1.8-1.3-5.3c-0.6-3.4-1.1-8.5-0.6-14.8
		s2.1-13.6,4.7-21.5c2.5-7.9,5.9-16.3,8.9-25.4c1.4-4.5,2.7-9,3.5-13.4c0.9-4.4,1.4-8.7,1.7-12.8c0.7-8.2,0.6-15.7,0.4-21.9
		c-0.2-6.2-0.5-11.3-0.8-14.8c-0.1-1.7-0.2-3.1-0.2-4v-1.4c0,0,0,0.1,0.1,0.4c0,0.3,0.1,0.6,0.1,1c0.1,1,0.2,2.3,0.3,4
		c0.3,3.5,0.7,8.5,0.9,14.8c0.2,6.3,0.4,13.7-0.3,22c-0.3,4.1-0.9,8.5-1.7,12.9c-0.8,4.4-2.1,9-3.5,13.5c-2.9,9.1-6.4,17.5-8.9,25.4
		c-2.6,7.8-4.2,15.1-4.8,21.4c-0.6,6.2-0.2,11.3,0.4,14.7c0.3,1.7,0.6,3,0.8,3.9c0.1,0.4,0.2,0.8,0.2,1C85,442.9,85,443,85,443
		L85,443z"/>
	<path class="st6" d="M115.4,448.6H57.8l-1.3-11.1h58.9V448.6z"/>
	<path class="st6" d="M64,447.3l7.2,33.3h31.3l6.7-33.3H64z"/>
	<path class="st6" d="M115.4,448.6c0,0.2-12.7,0.2-28.3,0.2s-28.3-0.2-28.3-0.4s12.7-0.2,28.3-0.2S115.4,448.4,115.4,448.6z"/>
	<path class="st5" d="M105.5,465c-0.1,0.1-1.7-1.6-5.1-2.9c-1.7-0.7-3.8-1.2-6.2-1.2c-2.4-0.1-5,0.5-7.6,1.4s-5.1,1.9-7.5,2.5
		c-2.4,0.5-4.6,0.5-6.5,0.2c-1.8-0.3-3.2-0.8-4.1-1.3c-0.4-0.3-0.8-0.5-1-0.6l-0.3-0.3c0,0,0.5,0.3,1.4,0.7c0.9,0.4,2.3,0.9,4.1,1.1
		c1.8,0.2,4,0.2,6.3-0.3c2.3-0.6,4.8-1.6,7.4-2.5s5.3-1.5,7.8-1.4c2.4,0.1,4.6,0.7,6.3,1.4c1.7,0.7,2.9,1.6,3.8,2.2
		c0.4,0.3,0.7,0.6,0.9,0.8C105.4,464.9,105.5,465,105.5,465L105.5,465z"/>
	<path class="st3" d="M105.1,467.2c-0.1,0.1-1.6-1.5-4.9-2.9c-1.6-0.7-3.7-1.2-6-1.2c-2.3-0.1-4.8,0.5-7.3,1.3s-4.9,1.8-7.2,2.4
		c-2.3,0.6-4.4,0.8-6.2,0.7c-1.8-0.1-3.2-0.6-4.1-1.1c-0.4-0.2-0.8-0.4-1-0.6s-0.3-0.2-0.3-0.3c0,0,0.5,0.3,1.4,0.7
		c0.9,0.4,2.3,0.8,4,0.9s3.8-0.2,6-0.8c2.2-0.6,4.6-1.6,7.2-2.5s5.2-1.4,7.5-1.3c2.4,0.1,4.5,0.6,6.1,1.4c1.6,0.7,2.8,1.6,3.6,2.2
		c0.4,0.3,0.7,0.6,0.9,0.8L105.1,467.2z"/>
	<path class="st3" d="M106.1,462.8c-0.1,0.1-1.8-1.6-5.2-3.1c-1.7-0.7-3.9-1.4-6.3-1.5c-2.5-0.2-5.1,0.5-7.8,1.4
		c-2.7,0.9-5.2,2-7.7,2.5s-4.8,0.3-6.7,0c-1.9-0.3-3.3-0.9-4.3-1.4c-0.5-0.3-0.8-0.5-1-0.6l-0.3-0.3c0,0,0.5,0.3,1.5,0.7
		c1,0.4,2.4,0.9,4.2,1.2c1.8,0.2,4.1,0.3,6.5-0.1c2.4-0.5,4.9-1.6,7.7-2.5c2.7-0.9,5.5-1.6,8-1.4s4.7,0.9,6.5,1.7
		c1.7,0.8,3,1.7,3.8,2.3c0.4,0.3,0.7,0.6,0.9,0.8C106,462.7,106.1,462.8,106.1,462.8z"/>
	<path class="st5" d="M114.9,448.7c0,0.1-12.7,0.1-28.5,0.1c-15.7,0-28.5-0.1-28.5-0.1c0-0.1,12.7-0.1,28.5-0.1
		S114.9,448.7,114.9,448.7z"/>
</g>
<g id="Music_Notes">
	<path class="st5" d="M126.6,179.8c-0.8,2.4-3.4,3.6-5.8,2.7c-2.4-0.8-3.6-3.4-2.7-5.8c0.8-2.4,3.4-3.6,5.8-2.7
		C126.3,174.9,127.5,177.5,126.6,179.8z"/>
	<path class="st5" d="M126.5,178.2c-0.3,0.1-1.8-4.4-2.6-10.2c-0.8-5.8-1.4-10.4-1.2-10.5c0.3-0.1,1.4,4.6,2.2,10.3
		C125.7,173.6,126.8,178.1,126.5,178.2z"/>
	<path class="st5" d="M132.3,155.6c0.2,0.2-1.5,2.1-4.5,2.7c-2.9,0.7-5.3-0.3-5.2-0.5c0.1-0.3,2.3,0.2,5-0.5
		C130.3,156.8,132.1,155.4,132.3,155.6z M132.7,160.3c0.2,0.1-1.4,2.1-4.3,2.6s-5.1-0.9-4.9-1.1c0.1-0.3,2.2,0.5,4.7,0.1
		C130.8,161.5,132.6,160.1,132.7,160.3z M84.8,117c-3.7,2.6-8.7,1.6-11.3-2.1c-2.6-3.7-1.6-8.7,2.1-11.3c3.7-2.6,8.7-1.6,11.3,2.1
		C89.4,109.4,88.5,114.4,84.8,117z"/>
	<path class="st5" d="M86.3,114.5c-0.7-0.2,1.6-8.5,6.4-17.8c4.8-9.2,9-16.5,9.7-16.2c0.8,0.3-2.3,8.3-7.1,17.5
		C90.5,107.1,87.1,114.7,86.3,114.5z"/>
	<path class="st5" d="M123,96.7c0,0.7-6.8,0.6-13.7-3.9c-3.4-2.2-5.9-5.2-6.9-7.6c-1.2-2.5-0.9-4.3-0.5-4.3c0.4-0.1,0.8,1.4,2.3,3.3
		c1.4,1.9,3.7,4.3,6.8,6.3C117.1,94.5,123.2,95.8,123,96.7z M105.4,133.3c-3.7,2.6-8.7,1.6-11.3-2.1c-2.6-3.7-1.6-8.7,2.1-11.3
		c3.7-2.6,8.7-1.6,11.3,2.1C110,125.7,109.1,130.7,105.4,133.3L105.4,133.3z"/>
	<path class="st5" d="M107,130.8c-0.7-0.2,1.6-8.5,6.4-17.8c4.8-9.2,9-16.5,9.7-16.2c0.8,0.3-2.3,8.3-7.1,17.5
		C111.1,123.4,107.7,131,107,130.8z"/>
	<path class="st5" d="M120.7,101.7c0.1,0.7-6.4,1.1-13-2.9c-6.6-3.9-9.4-9.8-8.7-10.1c0.7-0.5,4.2,4.2,10.1,7.7
		C115.1,100,120.8,100.9,120.7,101.7z"/>
	<path class="st1" d="M206.5,147.8c-1.1,0.7-2.4,0.3-3.1-0.7c-0.7-1.1-0.3-2.4,0.7-3.1c1.1-0.7,2.4-0.3,3.1,0.7
		C207.9,145.8,207.6,147.2,206.5,147.8z"/>
	<path class="st1" d="M207,147.1c-0.2-0.1,0.6-2.3,2-4.8c1.5-2.5,2.7-4.4,2.9-4.4c0.2,0.1-0.8,2.3-2.2,4.7
		C208.2,145.2,207.2,147.2,207,147.1z"/>
	<path class="st1" d="M217.4,142.7c0,0.2-1.9,0.1-3.7-1.3c-0.9-0.7-1.5-1.5-1.8-2.2s-0.2-1.2-0.1-1.2s0.2,0.4,0.6,1
		c0.4,0.6,1,1.2,1.8,1.8C215.8,142.1,217.4,142.5,217.4,142.7z M212,152.6c-1.1,0.7-2.4,0.3-3.1-0.7c-0.7-1.1-0.3-2.4,0.7-3.1
		c1.1-0.7,2.4-0.3,3.1,0.7C213.4,150.6,213,152,212,152.6z"/>
	<path class="st1" d="M212.5,151.9c-0.2-0.1,0.6-2.3,2-4.8c1.5-2.5,2.7-4.4,2.9-4.4c0.2,0.1-0.8,2.3-2.2,4.7
		C213.7,150,212.7,152,212.5,151.9z"/>
	<path class="st1" d="M216.7,144.1c0,0.2-1.8,0.2-3.6-1s-2.4-2.8-2.3-2.9c0.2-0.1,1.1,1.2,2.7,2.3
		C215.1,143.6,216.7,143.9,216.7,144.1L216.7,144.1z"/>
	<path class="st5" d="M185.7,194.8c-0.5,2.5-2.9,4-5.4,3.5s-4-2.9-3.5-5.4s2.9-4,5.4-3.5S186.2,192.3,185.7,194.8z"/>
	<path class="st5" d="M185.4,193.2c-0.4,0.2-2.7-4.1-4.3-9.7c-1.6-5.6-2.7-10.2-2.4-10.3c0.4-0.2,2.3,4.3,3.9,9.9
		C184.2,188.6,185.8,193,185.4,193.2z"/>
	<path class="st5" d="M193.4,171.8c0.2,0.3-2.5,2.9-7.1,3.7c-2.2,0.4-4.4,0.2-5.8-0.4c-1.4-0.6-2-1.4-1.9-1.5
		c0.2-0.2,0.9,0.2,2.2,0.5s3.1,0.3,5.2-0.1C190.1,173.2,193.1,171.4,193.4,171.8L193.4,171.8z M200.4,193.4c-0.5,2.5-2.9,4-5.4,3.5
		s-4-2.9-3.5-5.4s2.9-4,5.4-3.5C199.3,188.6,200.9,191,200.4,193.4z"/>
	<path class="st5" d="M200,191.8c-0.4,0.2-2.7-4.1-4.3-9.7c-1.6-5.6-2.7-10.2-2.4-10.3c0.4-0.2,2.3,4.3,3.9,9.9
		C198.9,187.2,200.4,191.6,200,191.8z"/>
	<path class="st5" d="M194.4,174.7c0.3,0.3-2.2,2.9-6.4,3.8c-4.2,1-7.6-0.4-7.4-0.7c0.1-0.5,3.3,0.1,7.1-0.8
		C191.4,176.2,194.1,174.4,194.4,174.7L194.4,174.7z"/>
</g>
</svg>
