<svg xmlns="http://www.w3.org/2000/svg" xmlns:xlink="http://www.w3.org/1999/xlink" viewBox="0 0 515.31 405.92"><defs><clipPath id="a"><path d="M319.43,190.92c-2.95-4.86-17.1-4.78-18.38-2.62,0,0,7,22.66,14.82,20.31S319.43,190.92,319.43,190.92Z" fill="#5ae4a7" stroke="#1a2e35" stroke-linecap="round" stroke-linejoin="round"/></clipPath><clipPath id="b"><path d="M302.55,202.45a7,7,0,0,0-1.5,4.28c0,2.11,4,44.32,16.48,59,2.6,3.08,5.58,4.95,9,5,10.54.12,15.64-8.24,22.34-27.62.84-2.41,1.7-5,2.6-7.77,6.52-20,14.53-61.74,14.53-61.74s-14.21,3.3-22.64,11.65c-3.69,3.65-7.52,14-10,21.63-1.2,3.74-2.08,6.81-2.44,8.1-.11.43-.18.67-.18.67a18.66,18.66,0,0,0-1.49-3.78s0,0,0,0a.18.18,0,0,1,0-.09,46.29,46.29,0,0,0-6.68-9.19l-3.07-11.64s-1.09,2.12-6,2.88-12.39-5.5-12.39-5.5Z" fill="#7d38ce" stroke="#1a2e35" stroke-linecap="round" stroke-linejoin="round"/></clipPath><clipPath id="c"><path d="M422,297.81s1.79-14.14,2.88-18.76c4.92-20.79,22.25-69,19.45-83.22-2.87-14.64-20.43-27.46-48.77-28.87-26.29-1.31-48,8-53.15,18.84-4.94,10.34-4.74,81.69-3.49,113.89h72.22A35.81,35.81,0,0,0,422,297.81Z" fill="#7d38ce" stroke="#1a2e35" stroke-linecap="round" stroke-linejoin="round"/></clipPath><clipPath id="d"><rect x="301.05" y="136.87" width="49.65" height="24.58" transform="translate(78.6 408.58) rotate(-70.97)" fill="#5ae4a7" stroke="#1a2e35" stroke-linecap="round" stroke-linejoin="round"/></clipPath><clipPath id="e"><rect x="280.82" y="61.81" width="49.65" height="24.58" transform="translate(298.75 -240.32) rotate(75.12)" fill="#5ae4a7" stroke="#1a2e35" stroke-linecap="round" stroke-linejoin="round"/></clipPath><clipPath id="f"><path d="M357.81,179.48c-1.35-2.44-5.19-1.26-9.68,5.78s-6.31,15.27-5.23,18.26,15.59,6.62,15.59,6.62l3-7.58Z" fill="#7d38ce" stroke="#1a2e35" stroke-linecap="round" stroke-linejoin="round"/></clipPath></defs><g opacity="0.2"><path d="M111.34,53l.54-.49C161.43,7.85,227.25,5.84,275.2,53.87c25,25,69.36,20.25,101.11,29.3,109.46,31.22,90.53,179.74,36.46,251.53C364,399.49,258.26,414.12,187.23,382.25c-62.42-28-106.37-90.59-122-156q-2.36-9.84-3.85-19.86C53.14,150.67,69,91.51,111.34,53Z" fill="#7d38ce"/></g><path d="M286.05,348.65a43.91,43.91,0,0,1-85.53,2.53" fill="none" stroke="#1a2e35" stroke-linecap="round" stroke-linejoin="round"/><path d="M285.45,328.81a43.48,43.48,0,0,1,1.3,14.93" fill="none" stroke="#1a2e35" stroke-linecap="round" stroke-linejoin="round"/><path d="M214.75,306.43A43.9,43.9,0,0,1,283,321.86" fill="none" stroke="#1a2e35" stroke-linecap="round" stroke-linejoin="round"/><polyline points="202.57 299.51 201.35 296.23 212.92 305.04" fill="none" stroke="#1a2e35" stroke-linecap="round" stroke-linejoin="round"/><path d="M199.94,331.42a43.87,43.87,0,0,1,7.92-17.73L204,303.36" fill="none" stroke="#1a2e35" stroke-linecap="round" stroke-linejoin="round"/><path d="M199.12,341.89a43.39,43.39,0,0,1,.11-5.34" fill="none" stroke="#1a2e35" stroke-linecap="round" stroke-linejoin="round"/><path d="M245.08,318.16a22.07,22.07,0,1,1-7.81.47" fill="none" stroke="#1a2e35" stroke-linecap="round" stroke-linejoin="round"/><path d="M239.66,364.42a24.48,24.48,0,0,1-21.47-27.16" fill="none" stroke="#1a2e35" stroke-linecap="round" stroke-linejoin="round"/><path d="M265.94,347.21a24.52,24.52,0,0,1-18.65,16.91" fill="none" stroke="#1a2e35" stroke-linecap="round" stroke-linejoin="round"/><path d="M219.75,331.06A24.48,24.48,0,0,1,266.82,343" fill="none" stroke="#1a2e35" stroke-linecap="round" stroke-linejoin="round"/><line x1="256.72" y1="330.53" x2="256.98" y2="330.22" fill="none" stroke="#1a2e35" stroke-linecap="round" stroke-linejoin="round" stroke-width="2"/><line x1="253.02" y1="334.96" x2="254.86" y2="332.75" fill="none" stroke="#1a2e35" stroke-linecap="round" stroke-linejoin="round" stroke-width="2"/><polyline points="229.28 339.3 239.35 351.32 251.41 336.89" fill="none" stroke="#1a2e35" stroke-linecap="round" stroke-linejoin="round" stroke-width="2"/><rect x="259.9" y="105.36" width="194.34" height="194.34" rx="46.19" fill="#fff" stroke="#1a2e35" stroke-linecap="round" stroke-linejoin="round"/><path d="M319.43,190.92c-2.95-4.86-17.1-4.78-18.38-2.62,0,0,7,22.66,14.82,20.31S319.43,190.92,319.43,190.92Z" fill="#5ae4a7"/><g clip-path="url(#a)"><path d="M319.43,190.92c-2.95-4.86-17.1-4.78-18.38-2.62,0,0,7,22.66,14.82,20.31S319.43,190.92,319.43,190.92Z" fill-opacity="0.7" opacity="0.3"/></g><path d="M319.43,190.92c-2.95-4.86-17.1-4.78-18.38-2.62,0,0,7,22.66,14.82,20.31S319.43,190.92,319.43,190.92Z" fill="none" stroke="#1a2e35" stroke-linecap="round" stroke-linejoin="round"/><path d="M302.55,202.45a7,7,0,0,0-1.5,4.28c0,2.11,4,44.32,16.48,59,2.6,3.08,5.58,4.95,9,5,10.54.12,15.64-8.24,22.34-27.62.84-2.41,1.7-5,2.6-7.77,6.52-20,14.53-61.74,14.53-61.74s-14.21,3.3-22.64,11.65c-3.69,3.65-7.52,14-10,21.63-1.2,3.74-2.08,6.81-2.44,8.1-.11.43-.18.67-.18.67a18.66,18.66,0,0,0-1.49-3.78s0,0,0,0a.18.18,0,0,1,0-.09,46.29,46.29,0,0,0-6.68-9.19l-3.07-11.64s-1.09,2.12-6,2.88-12.39-5.5-12.39-5.5Z" fill="#7d38ce"/><g clip-path="url(#b)"><path d="M317.53,265.75c2.6,3.08,5.58,4.95,9,5,10.54.12,15.64-8.24,22.34-27.62l-.14-45.05a33.44,33.44,0,0,0-15.35,8.82c-1.2,3.74-2.08,6.81-2.44,8.1,3,6.17,8.13,20.36,2.2,35.47C329.27,260.27,323,264.25,317.53,265.75Z" fill-opacity="0.7" opacity="0.3"/></g><path d="M302.55,202.45a7,7,0,0,0-1.5,4.28c0,2.11,4,44.32,16.48,59,2.6,3.08,5.58,4.95,9,5,10.54.12,15.64-8.24,22.34-27.62.84-2.41,1.7-5,2.6-7.77,6.52-20,14.53-61.74,14.53-61.74s-14.21,3.3-22.64,11.65c-3.69,3.65-7.52,14-10,21.63-1.2,3.74-2.08,6.81-2.44,8.1-.11.43-.18.67-.18.67a18.66,18.66,0,0,0-1.49-3.78s0,0,0,0a.18.18,0,0,1,0-.09,46.29,46.29,0,0,0-6.68-9.19l-3.07-11.64s-1.09,2.12-6,2.88-12.39-5.5-12.39-5.5Z" fill="none" stroke="#1a2e35" stroke-linecap="round" stroke-linejoin="round"/><path d="M336.05,229.41c.75,4,.78,8.24-1.05,11.92" fill="none" stroke="#1a2e35" stroke-linecap="round" stroke-linejoin="round"/><path d="M330.73,215.65A45.78,45.78,0,0,1,335.49,227" fill="none" stroke="#1a2e35" stroke-linecap="round" stroke-linejoin="round"/><path d="M337.44,220.64s-1.48-4.08-5.48-5" fill="none" stroke="#1a2e35" stroke-linecap="round" stroke-linejoin="round"/><path d="M317,205.74a14.21,14.21,0,0,0,2.68-1.88" fill="none" stroke="#1a2e35" stroke-linecap="round" stroke-linejoin="round"/><path d="M302.55,202.45c3.13,3.36,8,5.55,12.58,4.09" fill="none" stroke="#1a2e35" stroke-linecap="round" stroke-linejoin="round"/><path d="M329.17,211.75a.26.26,0,0,0,.05.09.18.18,0,0,1,0-.09Z" fill="#5ae4a7" stroke="#1a2e35" stroke-linecap="round" stroke-linejoin="round"/><path d="M422,297.81s1.79-14.14,2.88-18.76c4.92-20.79,22.25-69,19.45-83.22-2.87-14.64-20.43-27.46-48.77-28.87-26.29-1.31-48,8-53.15,18.84-4.94,10.34-4.74,81.69-3.49,113.89h72.22A35.81,35.81,0,0,0,422,297.81Z" fill="#7d38ce"/><g clip-path="url(#c)"><path d="M416.32,211.85c-13.61,18.66-28.46,46.6-28.46,46.6l-40.55-50.54s9.29,64.19,14.35,71.14,4.84,10.14,4.84,10.14,12.86,13.84,22.5,12c8.17-1.59,37.58-34.41,46.76-72.45Z" fill-opacity="0.7" opacity="0.3"/></g><path d="M422,297.81s1.79-14.14,2.88-18.76c4.92-20.79,22.25-69,19.45-83.22-2.87-14.64-20.43-27.46-48.77-28.87-26.29-1.31-48,8-53.15,18.84-4.94,10.34-4.74,81.69-3.49,113.89h72.22A35.81,35.81,0,0,0,422,297.81Z" fill="none" stroke="#1a2e35" stroke-linecap="round" stroke-linejoin="round"/><path d="M407,169.81s-14.13,6.07-29.43,1a27.89,27.89,0,0,0,2-8.73c0-2-.49-3.76-2-4.6,0,0,.69-.76,1.86-2h0c5.8-5.9,23.39-22.48,29.12-12.59C408.53,143,402.53,143.52,407,169.81Z" fill="#fff" stroke="#1a2e35" stroke-linecap="round" stroke-linejoin="round"/><path d="M391,151.5a15.93,15.93,0,0,1-11.47,10.62c0-2-.49-3.76-2-4.6,0,0,.69-.76,1.86-2h0C385,153.35,391,151.5,391,151.5Z" fill="#1a2e35"/><path d="M412.51,129c6.07-24.19-7-32.47-15.25-35.64-13.19-5.08-29.85.7-33.75,14.14s-.39,16.5-.57,22c-.13,3.85-2.68,5.75.13,15.43,1.86,6.38,5.32,13.71,9.35,13.94,10.9.63,21.22-5.58,20.65-8.49" fill="#fff" stroke="#1a2e35" stroke-linecap="round" stroke-linejoin="round"/><path d="M378.25,117.19s4.88-1.69,7.49,3.64" fill="none" stroke="#1a2e35" stroke-linecap="round" stroke-linejoin="round"/><path d="M361.66,116.39s3.63-3.08,7.27,1.28" fill="none" stroke="#1a2e35" stroke-linecap="round" stroke-linejoin="round"/><ellipse cx="380.43" cy="127.43" rx="1.21" ry="2.04" fill="#1a2e35"/><path d="M365.29,126.32c0,1.12.54,2,1.21,2s1.21-.91,1.21-2-.54-2-1.21-2S365.29,125.19,365.29,126.32Z" fill="#1a2e35"/><path d="M368.93,121.66s.75,5.6.42,6.69-4.13,4.52-4.28,6,3.17,3.06,3.17,3.06" fill="#fff" stroke="#1a2e35" stroke-linecap="round" stroke-linejoin="round"/><path d="M366.5,140.66s7.57,1.9,13.93,0c0,0-3,9.39-8.92,8.44-3.92-.64-2.92-6.79-2.92-6.79Z" fill="#1a2e35"/><path d="M387.37,103.63a10,10,0,0,0-7.48-1.14c-4.36,1-5,10.17-5,10.17a9.18,9.18,0,0,1-2.74-4.59L370.74,112l-3.63-3.43-1.22,4.09-1.44-3-2.79,5.45s-4.2-5.41-3.55-9.6c1.78-11.4,10.82-20.77,29.75-19.76,9.53.51,13.09,7,13.09,7s9.32-1.26,13.45,3.57c14.07,16.46,5.25,34.34-8.12,51.27l-4.58-16.14-4.44-.51a45.35,45.35,0,0,0,0-5,25.17,25.17,0,0,0-1.64-6.24l-1.64.74.68-3.1-3.75,1.93s1.59-12.72,0-14.87A2.62,2.62,0,0,0,387.37,103.63Z" fill="#1a2e35"/><path d="M398.91,133.28S403.35,125,408,127s1.42,11.89-2.62,15.12-6.45,0-6.45,0" fill="#fff" stroke="#1a2e35" stroke-linecap="round" stroke-linejoin="round"/><g opacity="0.2"><path d="M391.39,100.23a8.12,8.12,0,0,0-7.08-5c-5.43-.36-9.33,5.53-9.45,9.63" fill="none" stroke="#fff" stroke-linecap="round" stroke-linejoin="round"/><path d="M395.06,100.05s3.72-2.86,5.88,0c3.65,4.82.63,16.46.63,16.46" fill="none" stroke="#fff" stroke-linecap="round" stroke-linejoin="round"/><path d="M400.12,96.65s3.88-2.38,7.19,2.2,3,15.73,3,15.73" fill="none" stroke="#fff" stroke-linecap="round" stroke-linejoin="round"/><path d="M411.09,96s6.7,2.82,7.08,16.32" fill="none" stroke="#fff" stroke-linecap="round" stroke-linejoin="round"/><path d="M395.51,96.65s-3.77-6.4-14.93-4.26-12.83,13.55-12.83,13.55" fill="none" stroke="#fff" stroke-linecap="round" stroke-linejoin="round"/><path d="M398.29,94.71s-4.49-6.24-18.15-5S361,102.91,362.37,108.61" fill="none" stroke="#fff" stroke-linecap="round" stroke-linejoin="round"/></g><path d="M286.35,174.69s16.25-12.5,23.33-13.77S341.13,165,341.13,165v28.86s-15.25,1.67-22.09,6.68-30.41,5.81-30.41,5.81Z" fill="#757575" stroke="#1a2e35" stroke-linecap="round" stroke-linejoin="round"/><path d="M301.6,165.75a43.28,43.28,0,0,1,.95-5.7c.57-2,4.5-1.81,5.38-1.1a11.13,11.13,0,0,1,1.75,2l-1.75.52C307.55,161.57,307.17,168.92,301.6,165.75Z" fill="#fff" stroke="#1a2e35" stroke-linecap="round" stroke-linejoin="round"/><rect x="301.05" y="136.87" width="49.65" height="24.58" transform="translate(78.6 408.58) rotate(-70.97)" fill="#5ae4a7"/><g clip-path="url(#d)"><path d="M306.16,168.62l23.24,8,16.19-46.93-23.24-8Zm37-37.72-14.93,43.29-19.61-6.76,14.94-43.3Z" fill-opacity="0.7" opacity="0.5"/><path d="M325.8,127.8l-2,5.8a1.24,1.24,0,0,1-1.58.77h0a1.25,1.25,0,0,1-.77-1.58l2-5.8a1.24,1.24,0,0,1,1.58-.77h0A1.24,1.24,0,0,1,325.8,127.8Z" fill-opacity="0.7" opacity="0.5"/><path d="M330.3,165.54l-2,5.8a1.25,1.25,0,0,1-1.58.77h0a1.24,1.24,0,0,1-.77-1.58l2-5.8a1.24,1.24,0,0,1,1.58-.77h0A1.26,1.26,0,0,1,330.3,165.54Z" fill-opacity="0.7" opacity="0.5"/><path d="M318.59,146.65a7.7,7.7,0,1,0,9.79-4.77A7.7,7.7,0,0,0,318.59,146.65ZM329.92,150l.57.2-.35,1-.57-.19a1.83,1.83,0,0,1-2.4.67l-.54-.19.4-1.17.62.21c.57.2.85,0,1-.37s0-.72-.55-.91-1-.11-2,.5a2.92,2.92,0,0,1-2.8.56c-1.06-.37-1.59-1-1.48-2l-.59-.21.35-1,.59.2a1.81,1.81,0,0,1,2.38-.66l.25.08-.4,1.17-.33-.11c-.56-.19-.85,0-1,.35s0,.7.56.89,1,.11,2-.5a3,3,0,0,1,2.8-.56A1.84,1.84,0,0,1,329.92,150Z" fill-opacity="0.7" opacity="0.5"/></g><rect x="301.05" y="136.87" width="49.65" height="24.58" transform="translate(78.6 408.58) rotate(-70.97)" fill="none" stroke="#1a2e35" stroke-linecap="round" stroke-linejoin="round"/><rect x="280.82" y="61.81" width="49.65" height="24.58" transform="translate(298.75 -240.32) rotate(75.12)" fill="#5ae4a7"/><g clip-path="url(#e)"><path d="M311.14,47l-23.76,6.31,12.75,48,23.76-6.31ZM301.5,98.9,289.73,54.63l20-5.32,11.76,44.26Z" fill-opacity="0.7" opacity="0.5"/><path d="M317.62,91.79l-1.57-5.93a1.24,1.24,0,0,1,.88-1.52h0a1.25,1.25,0,0,1,1.52.89L320,91.15a1.24,1.24,0,0,1-.88,1.52h0A1.24,1.24,0,0,1,317.62,91.79Z" fill-opacity="0.7" opacity="0.5"/><path d="M292.83,63l-1.57-5.93a1.24,1.24,0,0,1,.88-1.52h0a1.25,1.25,0,0,1,1.52.89l1.57,5.92a1.24,1.24,0,0,1-.88,1.52h0A1.24,1.24,0,0,1,292.83,63Z" fill-opacity="0.7" opacity="0.5"/><path d="M313.08,72.12a7.7,7.7,0,1,0-5.46,9.43A7.7,7.7,0,0,0,313.08,72.12Zm-11.26,3.55-.59.16-.27-1,.58-.15c-.05-1,.53-1.61,1.62-1.9l.55-.15.32,1.2-.63.17c-.58.15-.72.46-.61.86s.38.6,1,.45.93-.49,1.37-1.52c.54-1.26,1.09-1.78,2-2a1.83,1.83,0,0,1,2.33.81l.59-.16.28,1-.6.16c.06,1-.51,1.59-1.61,1.88l-.25.07-.32-1.2.34-.09c.57-.15.73-.44.62-.84s-.39-.58-1-.42-.92.49-1.37,1.52c-.56,1.26-1.09,1.78-2,2A1.83,1.83,0,0,1,301.82,75.67Z" fill-opacity="0.7" opacity="0.5"/></g><rect x="280.82" y="61.81" width="49.65" height="24.58" transform="translate(298.75 -240.32) rotate(75.12)" fill="none" stroke="#1a2e35" stroke-linecap="round" stroke-linejoin="round"/><path d="M286.35,174.69s23.57-7.94,29.9-9.08,24.88-.64,24.88-.64v28.86s-19.36,5.87-22.34,8.22-30.16,4.27-30.16,4.27Z" fill="#999" stroke="#1a2e35" stroke-linecap="round" stroke-linejoin="round"/><path d="M318.51,178.13c-1.24,6.68-.35,15.64-4.77,21.06" fill="none" stroke="#1a2e35" stroke-linecap="round" stroke-linejoin="round"/><path d="M320.56,168q-.72,3.27-1.36,6.55" fill="none" stroke="#1a2e35" stroke-linecap="round" stroke-linejoin="round"/><path d="M344,72.27A5.28,5.28,0,1,1,338.74,67,5.27,5.27,0,0,1,344,72.27Z" fill="#bfbfbf" stroke="#1a2e35" stroke-linecap="round" stroke-linejoin="round"/><path d="M341.69,75.56a4.42,4.42,0,1,0-6.24-.34A4.42,4.42,0,0,0,341.69,75.56ZM337,70.73l-.24-.26.46-.41.23.26a1,1,0,0,1,1.39.33l.22.24-.53.48-.25-.28c-.23-.26-.42-.25-.6-.09s-.21.35,0,.61.5.35,1.14.3a1.7,1.7,0,0,1,1.56.5,1,1,0,0,1,.19,1.4l.24.27-.46.41-.24-.27a1,1,0,0,1-1.38-.33l-.1-.11.53-.47.13.14c.23.26.42.26.6.1s.19-.34,0-.6-.49-.34-1.13-.3a1.71,1.71,0,0,1-1.56-.5A1,1,0,0,1,337,70.73Z" fill-opacity="0.7" opacity="0.5"/><path d="M319,30.56a5.28,5.28,0,1,1-5.28-5.28A5.29,5.29,0,0,1,319,30.56Z" fill="#bfbfbf" stroke="#1a2e35" stroke-linecap="round" stroke-linejoin="round"/><path d="M316.69,33.84a4.42,4.42,0,1,0-6.24-.34A4.41,4.41,0,0,0,316.69,33.84ZM311.94,29l-.23-.26.46-.41.23.26a1,1,0,0,1,1.39.33l.22.25-.53.47-.25-.28c-.23-.25-.42-.24-.6-.08s-.21.35,0,.6.49.35,1.13.31a1.66,1.66,0,0,1,1.56.5,1,1,0,0,1,.19,1.4l.24.26-.46.41-.23-.26a1,1,0,0,1-1.38-.33l-.1-.11.52-.48.14.15c.23.25.41.26.59.1s.19-.35,0-.6-.49-.35-1.14-.31a1.67,1.67,0,0,1-1.56-.5A1.06,1.06,0,0,1,311.94,29Z" fill-opacity="0.7" opacity="0.5"/><path d="M294.51,132.56a5.28,5.28,0,1,1,6.39-3.87A5.29,5.29,0,0,1,294.51,132.56Z" fill="#bfbfbf" stroke="#1a2e35" stroke-linecap="round" stroke-linejoin="round"/><path d="M291.87,129.51a4.42,4.42,0,1,0,1.82-6A4.42,4.42,0,0,0,291.87,129.51Zm5.83-3.45.3-.17.29.54-.3.17a1.06,1.06,0,0,1-.66,1.27L297,128l-.33-.62.33-.18c.3-.16.34-.35.23-.56s-.3-.29-.6-.13-.45.4-.56,1a1.7,1.7,0,0,1-.86,1.4,1.05,1.05,0,0,1-1.41-.15l-.31.17-.29-.55.31-.16a1,1,0,0,1,.66-1.27l.13-.07.33.63-.17.09c-.3.16-.35.35-.24.56s.29.27.59.11.45-.4.57-1a1.67,1.67,0,0,1,.86-1.4A1.06,1.06,0,0,1,297.7,126.06Z" fill-opacity="0.7" opacity="0.5"/><path d="M357.81,179.48c-1.35-2.44-5.19-1.26-9.68,5.78s-6.31,15.27-5.23,18.26,15.59,6.62,15.59,6.62l3-7.58Z" fill="#7d38ce"/><g clip-path="url(#f)"><path d="M357.81,179.48c-1.35-2.44-5.19-1.26-9.68,5.78s-6.31,15.27-5.23,18.26,15.59,6.62,15.59,6.62l3-7.58Z" fill-opacity="0.7" opacity="0.5"/></g><path d="M357.81,179.48c-1.35-2.44-5.19-1.26-9.68,5.78s-6.31,15.27-5.23,18.26,15.59,6.62,15.59,6.62l3-7.58Z" fill="none" stroke="#1a2e35" stroke-linecap="round" stroke-linejoin="round"/><path d="M363.94,194.23,355.62,176s-5.42-7.75-6.49-10.71-13-5.26-15.68-5.26-5.54,4.81-5.54,4.81h5.6s2.09,2.19,2.35,3.51-7.41,7.85-8.5,8.47a39.82,39.82,0,0,0-7,3.84c-3.05,2.26-9.92,4-11.19,6s-.38,2.41.54,2.87a7.9,7.9,0,0,0,2.45.58s-.55,2.3,0,3.5,3.74,1.1,3.74,1.1a2.18,2.18,0,0,0,1.71,1.93,15,15,0,0,1,2.75.73s6.59,1.11,9.55.49,11.93-5.41,14.13-5.21S352.27,207,352.27,207,362.63,205.24,363.94,194.23Z" fill="#fff" stroke="#1a2e35" stroke-linecap="round" stroke-linejoin="round"/><path d="M312.13,190.18s8.61-1.86,9.18-2.52,6.6-2.53,6.6-2.53" fill="none" stroke="#1a2e35" stroke-linecap="round" stroke-linejoin="round"/><path d="M315.87,194.78s4.84-1,6.52-1.21,8.58-3.39,8.58-3.39" fill="none" stroke="#1a2e35" stroke-linecap="round" stroke-linejoin="round"/><path d="M320.33,197.44s6.81-.58,8.23-1.24,5.59-2,5.59-2" fill="none" stroke="#1a2e35" stroke-linecap="round" stroke-linejoin="round"/><path d="M421,186.21C410.88,192.87,404.78,209,404.78,209L389,238.32s-13.27-32.67-17-33.09l-14.16-25.75s1.67,15.09-4.23,21.5-10.68,2.54-10.68,2.54l4.41,12.17,1.1,5.78s18.61,55.85,24.7,59.31,19.93,5,31.67-3.59,31.82-41.11,33.72-51.75" fill="#7d38ce" stroke="#1a2e35" stroke-linecap="round" stroke-linejoin="round"/><path d="M366.27,209.09a26.9,26.9,0,0,0,1.41-2.37" fill="none" stroke="#1a2e35" stroke-linecap="round" stroke-linejoin="round"/><path d="M354.34,216.72a16,16,0,0,0,10.44-5.65" fill="none" stroke="#1a2e35" stroke-linecap="round" stroke-linejoin="round"/><path d="M347.31,215.69a14.08,14.08,0,0,0,5,1.1" fill="none" stroke="#1a2e35" stroke-linecap="round" stroke-linejoin="round"/><path d="M393.14,251.26a14.53,14.53,0,0,1-.33,4" fill="none" stroke="#1a2e35" stroke-linecap="round" stroke-linejoin="round"/><path d="M389,238.32a32.54,32.54,0,0,1,3.87,10.52" fill="none" stroke="#1a2e35" stroke-linecap="round" stroke-linejoin="round"/><path d="M397.72,243.57a22.46,22.46,0,0,0-6.14-5.25" fill="none" stroke="#1a2e35" stroke-linecap="round" stroke-linejoin="round"/><path d="M422.67,201a19.09,19.09,0,0,0-15.92,6.94" fill="none" stroke="#1a2e35" stroke-linecap="round" stroke-linejoin="round"/><path d="M432.06,225.8a8.41,8.41,0,0,1-5-.8" fill="none" stroke="#1a2e35" stroke-linecap="round" stroke-linejoin="round"/><path d="M442.72,213.9c-1.4,6.74-5.16,10.16-8.43,11.34" fill="none" stroke="#1a2e35" stroke-linecap="round" stroke-linejoin="round"/><path d="M400.86,175.59s-14.74,3.43-22.95-2.06" fill="none" stroke="#1a2e35" stroke-linecap="round" stroke-linejoin="round"/><path d="M348,265.79s8,22.68,26.61,26.52" fill="none" stroke="#1a2e35" stroke-linecap="round" stroke-linejoin="round"/><path d="M401.69,297.22c-1,.72-2,1.38-3,2" fill="none" stroke="#1a2e35" stroke-linecap="round" stroke-linejoin="round"/><line x1="299.2" y1="22.59" x2="299.2" y2="42.53" fill="none" stroke="#1a2e35" stroke-linecap="round" stroke-linejoin="round"/><line x1="299.2" y1="10.63" x2="299.2" y2="18.6" fill="none" stroke="#1a2e35" stroke-linecap="round" stroke-linejoin="round"/><line x1="299.2" y1="3.18" x2="299.2" y2="7.44" fill="none" stroke="#1a2e35" stroke-linecap="round" stroke-linejoin="round"/><polyline points="295.43 40.2 299.19 44.86 302.96 40.2" fill="none" stroke="#1a2e35" stroke-linecap="round" stroke-linejoin="round"/><line x1="309.16" y1="122.42" x2="309.16" y2="142.35" fill="none" stroke="#1a2e35" stroke-linecap="round" stroke-linejoin="round"/><line x1="309.16" y1="110.45" x2="309.16" y2="118.43" fill="none" stroke="#1a2e35" stroke-linecap="round" stroke-linejoin="round"/><line x1="309.16" y1="103" x2="309.16" y2="107.27" fill="none" stroke="#1a2e35" stroke-linecap="round" stroke-linejoin="round"/><polyline points="305.4 140.02 309.16 144.68 312.93 140.02" fill="none" stroke="#1a2e35" stroke-linecap="round" stroke-linejoin="round"/><line x1="328.85" y1="62.42" x2="328.85" y2="82.36" fill="none" stroke="#1a2e35" stroke-linecap="round" stroke-linejoin="round"/><line x1="328.85" y1="50.46" x2="328.85" y2="58.43" fill="none" stroke="#1a2e35" stroke-linecap="round" stroke-linejoin="round"/><line x1="328.85" y1="43.01" x2="328.85" y2="47.27" fill="none" stroke="#1a2e35" stroke-linecap="round" stroke-linejoin="round"/><polyline points="325.09 80.03 328.85 84.69 332.62 80.03" fill="none" stroke="#1a2e35" stroke-linecap="round" stroke-linejoin="round"/><path d="M155.35,282c-.31,12.51,5.89,11.5,5.89,11.5a24.83,24.83,0,0,1,2.33-4.11c3.24-5,8.21-12,6.34-16.12a58.46,58.46,0,0,0-4.14-7.14c-3.32-5.09-7.13-10.24-7.13-10.24l16.54-2.74s11.77,4.87,21.07,5.43l.72,0c8.49.16,7.12-6.49,7.12-8.64,0-.92-2.3-2.59-5-4.24-3.83-2.35-8.48-4.66-8.48-4.66l2.52-5.21a15.24,15.24,0,0,0,4.39.23c6.44-.7,5.55-7,4.51-9.8-.3-.79-1.78-2-3.87-3.37-6.61-4.36-19.28-10.44-19.28-10.44H160.31L142,262.44S155.66,269.53,155.35,282Z" fill="#fff"/><path d="M155.35,282c-.31,12.51,5.89,11.5,5.89,11.5a24.83,24.83,0,0,1,2.33-4.11c3.24-5,8.21-12,6.34-16.12a58.46,58.46,0,0,0-4.14-7.14c-3.32-5.09-7.13-10.24-7.13-10.24l16.54-2.74s11.77,4.87,21.07,5.43l.72,0c8.49.16,7.12-6.49,7.12-8.64,0-.92-2.3-2.59-5-4.24-3.83-2.35-8.48-4.66-8.48-4.66l2.52-5.21a15.24,15.24,0,0,0,4.39.23c6.44-.7,5.55-7,4.51-9.8-.3-.79-1.78-2-3.87-3.37-6.61-4.36-19.28-10.44-19.28-10.44H160.31L142,262.44S155.66,269.53,155.35,282Z" fill="#7d38ce" opacity="0.4"/><path d="M155.35,282c-.31,12.51,5.89,11.5,5.89,11.5a24.83,24.83,0,0,1,2.33-4.11,18.19,18.19,0,0,1-.34-3.64c.08-4.28,3.6-12.48,3.6-12.48l-3.6-5.69a7.42,7.42,0,0,1,2.54-1.45c-3.32-5.09-7.13-10.24-7.13-10.24l16.54-2.74s11.77,4.87,21.07,5.43l.72,0c-.54-4.66,1.3-10.54,2.14-12.88-3.83-2.35-8.48-4.66-8.48-4.66l2.52-5.21a15.24,15.24,0,0,0,4.39.23c-.84-4.06,0-9.7.64-13.17-6.61-4.36-19.28-10.44-19.28-10.44H160.31L142,262.44S155.66,269.53,155.35,282Z" fill="#7d38ce" opacity="0.4"/><path d="M160.31,212.52H178.9s21.91,10.52,23.15,13.8,2.25,11.58-8.9,9.58l-2.52,5.2s13.46,6.69,13.46,8.91,1.45,9.17-7.84,8.61-21.07-5.43-21.07-5.43l-16.54,2.74s8.79,11.86,11.27,17.38-7.12,16.07-8.67,20.24c0,0-6.2,1-5.89-11.51S142,262.44,142,262.44" fill="none" stroke="#1a2e35" stroke-linecap="round" stroke-linejoin="round"/><path d="M164.71,271.07s-4.65-2.6-7.19,2.24" fill="none" stroke="#1a2e35" stroke-linecap="round" stroke-linejoin="round"/><rect x="120.65" y="85.7" width="109.89" height="190.46" rx="9.26" fill="#7d38ce" stroke="#1a2e35" stroke-linecap="round" stroke-linejoin="round"/><path d="M227.14,93.43V268.92a4,4,0,0,1-4,4H128a4,4,0,0,1-4-4V93.43a4,4,0,0,1,4-4h21.14a3.32,3.32,0,0,1,3.12,2.16l.9,2.42a3.34,3.34,0,0,0,3.12,2.17h38.58A3.34,3.34,0,0,0,198,94l.9-2.42A3.32,3.32,0,0,1,202,89.46h21.14A4,4,0,0,1,227.14,93.43Z" fill="#1a2e35"/><path d="M189.53,229.55H161.66a9.45,9.45,0,0,1-9.44-9.45h0a9.45,9.45,0,0,1,9.44-9.45h27.87A9.45,9.45,0,0,1,199,220.1h0A9.45,9.45,0,0,1,189.53,229.55Z" fill="#7d38ce" stroke="#1a2e35" stroke-linecap="round" stroke-linejoin="round"/><path d="M166.5,91.43a1.65,1.65,0,1,1-1.64-1.64A1.65,1.65,0,0,1,166.5,91.43Z" fill="#fff" stroke="#1a2e35" stroke-linecap="round" stroke-linejoin="round"/><path d="M188,91.43a1,1,0,1,1-1-1A1,1,0,0,1,188,91.43Z" fill="#fff" stroke="#1a2e35" stroke-linecap="round" stroke-linejoin="round"/><path d="M182.14,92H169.82a.58.58,0,0,1-.58-.58h0a.58.58,0,0,1,.58-.58h12.32a.58.58,0,0,1,.58.58h0A.58.58,0,0,1,182.14,92Z" fill="#fff" stroke="#1a2e35" stroke-linecap="round" stroke-linejoin="round"/><rect x="129.15" y="106.17" width="92.91" height="94.83" rx="12.49" fill="#fff" stroke="#1a2e35" stroke-linecap="round" stroke-linejoin="round"/><line x1="166.22" y1="146.29" x2="166.22" y2="132.04" fill="none" stroke="#1a2e35" stroke-linecap="round" stroke-linejoin="round"/><line x1="166.22" y1="154.85" x2="166.22" y2="149.14" fill="none" stroke="#1a2e35" stroke-linecap="round" stroke-linejoin="round"/><line x1="166.22" y1="160.17" x2="166.22" y2="157.12" fill="none" stroke="#1a2e35" stroke-linecap="round" stroke-linejoin="round"/><polyline points="168.92 133.71 166.22 130.38 163.53 133.71" fill="none" stroke="#1a2e35" stroke-linecap="round" stroke-linejoin="round"/><line x1="184.97" y1="141.01" x2="184.97" y2="126.76" fill="none" stroke="#1a2e35" stroke-linecap="round" stroke-linejoin="round"/><line x1="184.97" y1="149.56" x2="184.97" y2="143.86" fill="none" stroke="#1a2e35" stroke-linecap="round" stroke-linejoin="round"/><line x1="184.97" y1="154.89" x2="184.97" y2="151.84" fill="none" stroke="#1a2e35" stroke-linecap="round" stroke-linejoin="round"/><polyline points="187.67 128.42 184.97 125.09 182.28 128.42" fill="none" stroke="#1a2e35" stroke-linecap="round" stroke-linejoin="round"/><line x1="175.17" y1="131.44" x2="175.17" y2="117.18" fill="none" stroke="#1a2e35" stroke-linecap="round" stroke-linejoin="round"/><line x1="175.17" y1="139.99" x2="175.17" y2="134.29" fill="none" stroke="#1a2e35" stroke-linecap="round" stroke-linejoin="round"/><line x1="175.17" y1="145.32" x2="175.17" y2="142.27" fill="none" stroke="#1a2e35" stroke-linecap="round" stroke-linejoin="round"/><polyline points="177.86 118.85 175.17 115.52 172.48 118.85" fill="none" stroke="#1a2e35" stroke-linecap="round" stroke-linejoin="round"/><circle cx="175.6" cy="151.45" r="14.91" transform="translate(-11.93 287.85) rotate(-76.81)" fill="#cbb2ed" stroke="#1a2e35" stroke-linecap="round" stroke-linejoin="round"/><path d="M112.29,197.05s6.19,1.91,8.36,7.3" fill="none" stroke="#1a2e35" stroke-linecap="round" stroke-linejoin="round"/><path d="M84.21,367.73c.69-12,1.15-24.2,1.74-34,1.24-20.42,2.17-34.11,4-48.06s1.55-35,2.48-42.35,3.7-8.91,5.89-17.65,4.15-26.14,7.74-28.58,14.56-7,14.56-7v49.28c6.51,10,14.25,12.48,14.25,12.48,5-14.35,4.34-20,9.3-25.31s8.53-12.15,16.31-9.27c3.7,1.37,5.68,2.77,3.83,15.33S158.76,249,158.76,249c-.62,4.29.31,16.78,1.86,23.16s-4.34,23.36-7.13,34.2-17.66,32.82-17.66,32.82a189.9,189.9,0,0,0,.62,24.81c.12,1.16.26,2.41.42,3.71l1,33.74-53.65-1Z" fill="#fff"/><path d="M163.23,220.89a3.07,3.07,0,0,1,0-2.24,7.86,7.86,0,0,0-2.72-1.46c-7.79-2.88-11.36,4-16.31,9.27A14.19,14.19,0,0,0,143,228c4.49-1.69,10.37-1.66,12.73,1.62C158.66,233.69,164.72,226.26,163.23,220.89Z" fill="#7d38ce" opacity="0.4"/><path d="M129.61,355.64l-2.45,9.19s3.46-3.38,8.62-11.59c-.25-8,.05-14,.05-14s14.87-22,17.66-32.82,8.68-27.81,7.13-34.19-2.48-18.88-1.86-23.17a12.76,12.76,0,0,0,1.8-2.94,4.94,4.94,0,0,0-2.33-1.37,51.24,51.24,0,0,0-3,21.81c1,12.39-1.16,13.43-5.26,29.54S139,330.41,135.83,333.69,131.24,351.7,129.61,355.64Z" fill="#7d38ce" opacity="0.4"/><path d="M123.75,247.11s-4.89.76-6.85,1.92c0,0,9.53,2.49,10.15,5.15s2.67,5.41,6.29,2.17c0,0,.19-2,.56-5-2.3-1-8.15-4.24-13.25-12.07V190s-5.41,2.27-9.89,4.46c3.32.44,6.71,1.46,8,3.7a10,10,0,0,1-5.58,6.18c-3.52,1.58,0,28.17,0,28.17s-5.77,1.43-7.63,6.78c0,0,9.5,1,13.42,4S123.75,247.11,123.75,247.11Z" fill="#7d38ce" opacity="0.4"/><path d="M86,333.69c-.48,8-.86,17.51-1.36,27.21,1.22-18.44,4.93-50.1,4.93-50.1s3.31,11.71,3.56,10.47c.74-3.67-1.55-24.38-1.35-31.76.1-3.34-.14-11.92-.44-20.28C91,275,90.64,280.74,90,285.63,88.12,299.57,87.19,313.27,86,333.69Z" fill="#7d38ce" opacity="0.4"/><path d="M84.21,402.74v-35c.69-12,1.15-24.2,1.74-34,1.24-20.42,2.17-34.11,4-48.06s1.55-35,2.48-42.35,3.7-8.91,5.89-17.65,4.15-26.14,7.74-28.58,14.56-7,14.56-7v49.28c6.51,10,14.25,12.48,14.25,12.48,5-14.35,4.34-20,9.3-25.31s8.53-12.15,16.31-9.27c3.7,1.37,5.68,2.77,3.83,15.33S158.76,249,158.76,249c-.62,4.29.31,16.78,1.86,23.16s-4.34,23.36-7.13,34.2-17.66,32.82-17.66,32.82a189.9,189.9,0,0,0,.62,24.81c.12,1.16.26,2.41.42,3.71,0,0,.5,21.79,2.88,35" fill="none" stroke="#1a2e35" stroke-linecap="round" stroke-linejoin="round"/><path d="M134.9,251.77s-1.55,6.91-4.64,8.46-7.56,0-7.56,0" fill="none" stroke="#1a2e35" stroke-linecap="round" stroke-linejoin="round"/><path d="M120.65,239.29s-3.1-6.88-13-.91" fill="none" stroke="#1a2e35" stroke-linecap="round" stroke-linejoin="round"/><path d="M120.65,211.47s-.62-3.65-5.73-4.58" fill="none" stroke="#1a2e35" stroke-linecap="round" stroke-linejoin="round"/><path d="M135.83,339.21c-5.88,7.46-4.76,14.58-7,18.3s-2,17-2,17" fill="none" stroke="#1a2e35" stroke-linecap="round" stroke-linejoin="round"/><path d="M93.08,267.62v25.93a128.57,128.57,0,0,0,2.17,22.14" fill="none" stroke="#1a2e35" stroke-linecap="round" stroke-linejoin="round"/><path d="M158.76,249s0-4.42-1.24-5.75" fill="none" stroke="#1a2e35" stroke-linecap="round" stroke-linejoin="round"/><path d="M155.35,235.11s-2.74-9.23-10.8-5.21" fill="none" stroke="#1a2e35" stroke-linecap="round" stroke-linejoin="round"/><path d="M130.53,249.49c-6,.13-12-2.53-15.61.7" fill="none" stroke="#1a2e35" stroke-linecap="round" stroke-linejoin="round"/><path d="M81.73,355.86h1.54a2,2,0,0,1,2,2v32.79a2,2,0,0,1-2,2H81.73a0,0,0,0,1,0,0V355.86A0,0,0,0,1,81.73,355.86Z" fill="#1a2e35"/><path d="M81.73,360.62s28.4-7.42,55.66,1a2.07,2.07,0,0,1,1.45,2v17.43a1,1,0,0,1-1.23,1c-5.85-1.05-31.58-5.12-54.48.23Z" fill="#1a2e35"/><path d="M83,360.3v-3.93A2.35,2.35,0,0,0,80.62,354H77.43a2.21,2.21,0,0,0-1.93,1.15l-2.8,5.13v30l2.77,3.37a2.2,2.2,0,0,0,1.7.81h3.45A2.35,2.35,0,0,0,83,392.16Z" fill="#7d38ce" stroke="#1a2e35" stroke-linecap="round" stroke-linejoin="round"/><path d="M81,358.36l6.48-1.21a1.25,1.25,0,0,1,1.48,1.23v3.75l-2.15,1.59v12.16h2.15v6.35a1.54,1.54,0,0,1-1.23,1.51L81.52,385a1.49,1.49,0,0,1-1.79-1.45V359.82A1.49,1.49,0,0,1,81,358.36Z" fill="#7d38ce" stroke="#1a2e35" stroke-linecap="round" stroke-linejoin="round"/><path d="M81.19,383.36l5.28-1.21a.87.87,0,0,0,.67-.85v-4" fill="none" stroke="#1a2e35" stroke-linecap="round" stroke-linejoin="round"/><polyline points="84.99 375.69 84.99 362.67 87.11 361.06 87.11 358.62" fill="none" stroke="#1a2e35" stroke-linecap="round" stroke-linejoin="round"/><line x1="76.4" y1="356.4" x2="76.4" y2="391.18" fill="none" stroke="#1a2e35" stroke-linecap="round" stroke-linejoin="round"/><path d="M102.06,370h0a1,1,0,0,1-1-1V367a1,1,0,0,1,1-.95h0a.94.94,0,0,1,1,.95V369A1,1,0,0,1,102.06,370Z" fill="#fff"/><path d="M116.7,370.36h0a.94.94,0,0,1-1-.95v-2.08a1,1,0,0,1,1-.95h0a1,1,0,0,1,1,.95v2.08A1,1,0,0,1,116.7,370.36Z" fill="#fff"/><path d="M129.72,372h0a1,1,0,0,1-.95-1v-2.08a.94.94,0,0,1,.95-.95h0a1,1,0,0,1,.95.95V371A1,1,0,0,1,129.72,372Z" fill="#fff"/><path d="M180.66,144.23c-.79-.89-2.21-1.28-4-1.28h-5.28a.76.76,0,0,0-.75.64l-2.19,13.94a.45.45,0,0,0,.44.53h3.26l.82-5.2,0,.17a.75.75,0,0,1,.74-.64h1.55c3,0,5.43-1.24,6.12-4.81l.06-.31h0a3.43,3.43,0,0,0-.72-3" fill="#27346a"/><path d="M174.18,146.79a.72.72,0,0,1,.29-.06h4.13a8.32,8.32,0,0,1,1.37.1l.35.06a4.34,4.34,0,0,1,.48.14,2.72,2.72,0,0,1,.58.24,3.43,3.43,0,0,0-.72-3c-.79-.89-2.21-1.28-4-1.28h-5.28a.76.76,0,0,0-.75.64l-2.19,13.94a.45.45,0,0,0,.44.53h3.26l1.7-10.77A.68.68,0,0,1,174.18,146.79Z" fill="#27346a"/><path d="M181.32,147.58c-.69,3.57-3.08,4.81-6.12,4.81h-1.55a.74.74,0,0,0-.74.64l-1,6.45a.4.4,0,0,0,.39.46H175a.66.66,0,0,0,.65-.56l0-.14.52-3.28,0-.18a.66.66,0,0,1,.65-.56h.41c2.67,0,4.75-1.08,5.36-4.21a3.6,3.6,0,0,0-.55-3.16,2.69,2.69,0,0,0-.75-.58Z" fill="#2790c3"/><path d="M180.65,147l-.33-.09-.35-.06a8.32,8.32,0,0,0-1.37-.1h-4.13a.72.72,0,0,0-.29.06.68.68,0,0,0-.37.5l-.88,5.57,0,.17a.75.75,0,0,1,.74-.64h1.55c3,0,5.43-1.24,6.12-4.81l.06-.31a2.72,2.72,0,0,0-.58-.24l-.15-.05" fill="#1f264f"/></svg>