<svg xmlns="http://www.w3.org/2000/svg" xmlns:xlink="http://www.w3.org/1999/xlink" xml:space="preserve" id="Layer_1" x="0" y="0" style="enable-background:new 0 0 500 500" version="1.1" viewBox="0 0 500 500"><style>.st0{opacity:.7;fill:#fff;enable-background:new}.st4{fill:#263238}.st7{fill:#62cc9a}.st11{fill:none;stroke:#263238;stroke-miterlimit:10}.st13{opacity:.2;fill-opacity:.7;enable-background:new}.st14{fill:#fff}.st15{opacity:.4;fill:#92e3a9;enable-background:new}.st16,.st24{fill:none;stroke:#263238;stroke-linecap:round;stroke-linejoin:round;stroke-miterlimit:10}.st24{fill:#62cc9a}.st25{opacity:.5;fill:#fff;enable-background:new}.st26{fill:#92e3a9;stroke:#263238;stroke-linecap:round;stroke-linejoin:round;stroke-miterlimit:10}</style><path id="Background_Simple" d="M67.9 167.1s-27.9 72 11.3 144.5 119.9 110.8 184.5 143.5 131.7 16.8 163.5-36.8c31.9-53.6-11.8-91.9-11.9-168.4s11.4-96.7-30-161.4c-41.3-64.6-143-78.9-219.8-31-76.9 48-97.6 109.6-97.6 109.6z" class="st0"/><g id="Left_Hand"><defs><path id="SVGID_1_" d="M0 0h500v500H0z"/></defs><clipPath id="SVGID_2_"><use xlink:href="#SVGID_1_" style="overflow:visible"/></clipPath><g style="clip-path:url(#SVGID_2_)"><path d="M75.2 664.9C-171.2 569.8-106 436.4-151.3 260s-40.4-243.8 70.1-367.1C29.2-230.4 219.4-276 355.3-130.2 491.2 15.5 617 1.6 694.6 109.9c77.7 108.3 63.2 236.5-77.2 327S379 782.2 75.2 664.9z" style="fill:#92e3a9"/><path d="M75.2 664.9C-171.2 569.8-106 436.4-151.3 260s-40.4-243.8 70.1-367.1C29.2-230.4 219.4-276 355.3-130.2 491.2 15.5 617 1.6 694.6 109.9c77.7 108.3 63.2 236.5-77.2 327S379 782.2 75.2 664.9z" class="st0"/></g><defs><path id="SVGID_3_" d="M0 0h500v500H0z"/></defs><clipPath id="SVGID_4_"><use xlink:href="#SVGID_3_" style="overflow:visible"/></clipPath><g style="clip-path:url(#SVGID_4_)"><path d="M207.6 114.6c.2 0 .3-.1.4-.2L235.4 74v-.5l-1.2-6.2-1.3-7-1.1-5.8c0-.1-.1-.2-.1-.2l-32.7-22c-.2-.2-.5-.1-.7.1l-35 51.7c-.2.2-.1.5.1.7l43.9 29.8h.3zM224.4 66l6.7-9.9 3.2 16.6-9.9-6.7zm-1.2-.2c-.2.2-.1.5.1.7l7.2 4.9-12 17.7-35.7-24.2 17.3-25.6 28.1 19-5 7.5zm-24.3-32.4 31.8 21.5-1.8 2.6-28.5-19.3c-.2-.2-.5-.1-.7.1l-17.9 26.4c-.1.1-.1.2-.1.4 0 .1.1.2.2.3l36.5 24.7c.1.1.2.1.3.1.2 0 .3-.1.4-.2l12.3-18 2.9 2-26.8 39.5-43.1-29.2 34.5-50.9z" class="st4"/><path d="m196.4 57.8 2.1 11.2c0 .2.3.4.5.4h.1c.3-.1.4-.3.4-.6l-2.1-10.7 10.7-2.1c.3-.1.4-.3.4-.6-.1-.3-.3-.5-.6-.4l-11.2 2.1c-.2.2-.3.5-.3.7zm12.4 17.3c-.3.1-.4.3-.4.6 0 .2.3.4.5.4h.1l11.2-2.1c.3-.1.4-.3.4-.6l-2.1-11.2c-.1-.3-.3-.5-.6-.4s-.4.3-.4.6l2.1 10.7-10.8 2zm-6.8-3.6c.1.1.2.2.4.2.1 0 .2 0 .3-.1L215 60.4c.2-.2.2-.5 0-.7s-.5-.2-.7 0L202 70.8c-.2.2-.2.5 0 .7zm-12.7 5.4-2.9 4.3-1.8-1.3 2.9-4.2-1.6-1.1-6.8 10 1.6 1.1 2.9-4.3 1.8 1.2-2.9 4.3 1.6 1 6.8-9.9zm6.1 6.2 1-1.4-4.9-3.3-.9 1.5 1.6 1.1-5.8 8.5 1.6 1.1 5.8-8.6zm6.1 2.1-5.9 6.3 3.6-7.9-2.1-1.4-6.8 9.9 1.4 1 4.7-7.1h.1l-3.7 7.9 1.5 1 5.9-6.5h.1l-4.9 7.2 1.5 1 6.8-10zm3.3 2.2-6.8 10 4.2 2.8.9-1.4-2.5-1.8 5.8-8.5zM62.9 226.7l-2.4 8.9c-.2.9-.8 1-1.4.8-.2-.1-.4-.1-.6-.2l-.5 1.7c.3.1.5.2.9.3 1.4.4 2.8.1 3.4-2.2l2.4-8.7-1.8-.6zm7.7 5.2c.5-1.9-.1-3.1-1.9-3.6l-2.7-.7-3.2 11.6 1.8.5 1.2-4.4.9.2c1.8.5 3-.3 3.5-2.1l.4-1.5zm-1.8-.7-.5 1.7c-.2.8-.6 1-1.2.8l-.9-.2 1.1-3.9.9.2c.6.3.8.6.6 1.4zm6-1.4c-1.8-.5-3 .3-3.5 2.2l-1.7 6c-.5 1.9.1 3.2 1.9 3.7s3-.3 3.5-2.2l1-3.7-2.6-.7-.5 1.7.8.2-.6 2.1c-.2.8-.7 1-1.3.9-.6-.2-.9-.6-.6-1.4l1.7-6.3c.2-.8.7-1 1.3-.9.6.2.9.6.6 1.4l-.3 1.2 1.7.5.3-1.1c.7-1.8.1-3.1-1.7-3.6z" class="st4"/><path d="M103.1 208.3c0-.1 0-.2-.1-.3l-3.1-5.5-3.5-6.2-2.9-5.1c0-.1-.1-.1-.2-.2h-.2l-37.9-10.5h-.4c-.1.1-.2.2-.2.3L38 241.1c-.1.3.1.5.3.6l51.1 14.1h.1c.2 0 .4-.1.5-.4l13-47c.1.1.1 0 .1-.1 0 .1 0 .1 0 0zm-7.4 6.2-3.9-6c-.1-.2-.4-.3-.6-.2l-17 7.9-8.1-11.8c-.1-.2-.4-.3-.6-.2l-13.2 5.4 6.3-22.9 32.7 9-2.4 8.7c-.1.3.1.5.3.6l8.4 2.3-1.9 7.2zM52 211l13.5-5.5 8.1 11.8c.1.2.4.3.6.2l17-7.9 4.2 6.3-3.4 12.2-41.5-11.5L52 211zm38-6.7 3.2-11.6 8.4 14.7-11.6-3.1zm-.7 50.4-50.2-13.9 16.4-59.2 37 10.2-.8 3.1-33.1-9.2c-.3-.1-.5.1-.6.3l-8.5 30.8v.4c.1.1.2.2.3.2l42.5 11.7h.1c.1 0 .2 0 .2-.1l.2-.2 5.8-21.1 3.4.9-12.7 46.1z" class="st4"/><path d="M72.3 193.6c-1.3-.4-2.7-.2-3.8.5-1.2.7-2 1.7-2.4 3-.7 2.7.8 5.5 3.5 6.2.4.1.9.2 1.3.2.9 0 1.7-.2 2.5-.7 1.2-.7 2-1.7 2.4-3s.2-2.7-.5-3.8c-.6-1.2-1.7-2-3-2.4zm2.5 6c-.3 1-1 1.9-1.9 2.4s-2 .7-3.1.4c-2.1-.6-3.4-2.8-2.8-5 .3-1 1-1.9 1.9-2.4.6-.3 1.3-.5 2-.5.4 0 .7 0 1.1.1 2.2.6 3.4 2.8 2.8 5zm346.9-74.8-21-44v-.1l-.2-.2-18.3-6.5h-.5l-35.5 16.9c-.3.1-.4.4-.2.7l26.9 56.4.3.3h.4l47.9-22.8c.2-.1.3-.4.2-.7zm-33.5-38.5L383 75.4l16 5.7-10.8 5.2zm-.7.8c.1.2.3.3.5.3h.2l7.9-3.7 9.2 19.3-38.9 18.6-13.4-28L383.6 79l3.9 8.1zm-13.9 60.1-26.5-55.5 34.6-16.5 1.4 2.9-31 14.8-.3.3v.4l13.7 28.8c.1.2.3.3.5.3h.2l39.8-19c.3-.1.4-.4.2-.7l-9.4-19.8 3.1-1.5 20.6 43.1-46.9 22.4z" class="st4"/><path d="M372 109.3c.5 0 1.1-.1 1.6-.4 3.3-1.6 3.7-5.2 4-9.1h.1l2.8-1.3c1.1 3.7 2.1 7 2.3 7.9.4 1.3 1.2 1.2 1.5 1.1 1-.3 2-2.2 1.8-3.2-.1-.3-.3-.4-.6-.4-.3.1-.4.3-.4.6.1.3-.2 1.2-.7 1.7-.2.3-.4.3-.4.3s-.1-.1-.2-.5c-.3-.9-1.3-4.3-2.4-8l3-1.4c.3-.1.4-.4.2-.7-.1-.2-.4-.4-.7-.2l-2.8 1.4c-1.5-5.1-3.1-10.4-3.1-10.5-.1-.2-.3-.4-.5-.4s-.4.2-.4.5v.6c0 1.6 0 5.8-.3 10.1 0 .5-.1 1.1-.1 1.6-.2 4.2-.4 7.6-3.4 9-1.1.5-2.1.3-2.7-.5-.7-.9-1-2.6.2-4.3 2.1-3 4.1-1.7 4.2-1.7.2.2.5.1.7-.1s.1-.5-.1-.7c0 0-2.8-1.9-5.5 1.9-1.5 2.1-1.1 4.3-.2 5.5.4.8 1.2 1.2 2.1 1.2zm6-19.2c.6 2 1.4 4.7 2.2 7.4l-2.5 1.2c0-.4 0-.8.1-1.2.1-2.7.2-5.4.2-7.4z" class="st4"/><path d="M384.3 99.7c.1 1.1.6 1.9 1.4 2.3.4.2.8.3 1.2.3.3 0 .6-.1.9-.2 1.5-.7 2.3-1.7 2.6-3.1.2.6.5 1.1.8 1.2.2.1.4.1.6 0 1.5-.7 1.5-2.3 1.5-2.4 0-.3-.2-.5-.5-.5s-.5.2-.5.5c0 0 0 .9-.7 1.3-.4-.6-.9-2.9-1.4-5 0-.3-.1-.5-.1-.8-.1-.3-.3-.4-.6-.4-.2 0-.3.2-.4.4-.1 0-.2-.1-.3 0s-5.1 1.2-4.5 6.4zm4.6-5.3c.1 0 .2-.1.2-.1v.3c.7 4.2.3 5.7-1.8 6.7-.3.2-.8.1-1.2-.1-.5-.3-.8-.8-.9-1.6-.4-4.3 3.5-5.2 3.7-5.2zm-2 27.5c-.8-1.7-2.2-2.3-3.9-1.5-1.7.8-2.1 2.2-1.3 4l2.7 5.7c.8 1.7 2.2 2.3 3.9 1.5 1.7-.8 2.1-2.2 1.3-4l-2.7-5.7zm.7 8.1c-.5.3-1 .1-1.4-.6l-2.8-5.9c-.4-.8-.2-1.2.4-1.5.5-.3 1-.1 1.4.6l2.8 5.9c.3.8.1 1.2-.4 1.5zm4.7-12-.8-1.5-5.2 2.5.7 1.6 1.8-.9 4.4 9.3 1.7-.8-4.4-9.3zm6.2 1.1-2.2 1-1.6-3.2 2.8-1.4-.7-1.5-4.5 2.1 5.2 10.9 1.7-.8-2.2-4.5 2.2-1.1zM250.1 365.9s0-.1 0 0c0-.1-.1-.1-.1-.1 0-.1-.1-.1-.2-.2l-5.7-2.7-6.4-3-5.4-2.5h-.5l-37 13.5c-.1 0-.2.1-.3.3-.1.1-.1.3 0 .4l21.4 58.7c0 .1.1.2.3.3h.4l49.9-18.2c.3-.1.4-.4.3-.6l-16.7-45.9zm-13 4.2-4.1-11.3 15.4 7.2-11.3 4.1zm3.2-.1c-.1.2-.2.4-.5.5-.2.1-.4.1-.6 0 0 0-.1 0-.1-.1l1.2-.4zm-4 .9c.1.2.3.3.5.3h.2l1.1-.4c.2.2.4.5.7.6.2.1.5.2.7.2.7 3.4 1.1 11.4-8.5 15.7h-.1l-.2-.6c0-.1-.1-.2-.3-.3-.1-.1-.3-.1-.4 0l-2.2.8c-.3.1-.4.4-.3.6l.2.6h-.1c-10.1 2.9-14.9-3.4-16.6-6.5.2-.2.3-.4.5-.6.2-.4.2-.9.1-1.4-.3-.9-1.4-1.4-2.3-1.1-.9.3-1.4 1.4-1.1 2.3.3.7 1 1.2 1.7 1.2h.3c.7 1.2 1.8 3 3.6 4.5 1.9 1.7 4.9 3.3 9 3.3h.1l-6.9 2.5-.2-.6c0-.1-.1-.2-.3-.3-.1-.1-.3-.1-.4 0l-2.2.8c-.3.1-.4.4-.3.6l.8 2.2c.1.2.3.3.5.3h.2l2.2-.8c.1 0 .2-.1.3-.3.1-.1.1-.3 0-.4l-.3-.7 11.6-4.2h.1l.3.7c0 .1.1.2.3.3h.4l2.2-.8c.3-.1.4-.4.3-.6l-.2-.7h.1l11.6-4.2.3.7c.1.2.3.3.5.3h.2l2.2-.8c.3-.1.4-.4.3-.6l-.8-2.2c-.1-.3-.4-.4-.6-.3l-2.2.8c-.3.1-.4.4-.3.6l.2.6-6.9 2.5c5.7-4.7 5.3-11.1 4.7-14.2.6-.4.9-1 .9-1.7l3.8-1.4 7.3 20.1-40.6 14.8-10.6-29 31.8-11.6 3.1 8.4zm-5.9 17.9-1.3.5-.5-1.2 1.3-.5.5 1.2zm-21.2-8c-.2-.4.1-.9.5-1.1h.3c.3 0 .7.2.8.5.1.2.1.4 0 .6s-.3.4-.5.4c-.5.3-.9 0-1.1-.4zm6.4 13.3-1.3.5-.5-1.2 1.3-.5.5 1.2zm27.9-11.5 1.2-.5.5 1.3-1.2.5-.5-1.3zm-26.7 46.8-21-57.7 36-13.1 1.1 3-32.3 11.8c-.3.1-.4.4-.3.6l10.9 30c0 .1.1.2.3.3h.4l41.4-15.1c.3-.1.4-.4.3-.6l-7.5-20.6 3.3-1.2 16.4 44.9-49 17.7z" class="st4"/><path d="m231.3 413.8-1.2-3.3 2.5-.9-.6-1.6-2.5.9-1.1-3.2 3.1-1.1-.6-1.6-4.9 1.7 4.1 11.4 4.9-1.8-.6-1.6zm7-10.4c-.7-1.8-1.9-2.5-3.7-1.8l-2.6 1 4.1 11.3 1.8-.6-1.6-4.3.8-.3c1.8-.6 2.3-2 1.6-3.8l-.4-1.5zm-1.7 3.7-.8.3-1.4-3.8.8-.3c.6-.2 1-.1 1.3.8l.6 1.7c.3.7 0 1-.5 1.3zm6.4-2.8c-1.5-.6-2.1-1.1-2.4-1.9-.3-.8-.1-1.2.5-1.4.6-.2 1 0 1.3.8l.2.5 1.7-.6-.1-.4c-.7-1.8-1.9-2.5-3.7-1.9-1.7.6-2.2 2-1.6 3.8.5 1.3 1.3 2.1 3.3 2.8 1.5.6 2.1 1.1 2.4 1.9.3.8 0 1.2-.5 1.4-.6.2-1 0-1.3-.8l-.3-.8-1.7.6.3.7c.7 1.8 1.9 2.5 3.7 1.9 1.7-.6 2.3-2 1.6-3.8-.6-1.3-1.4-2.1-3.4-2.8z" class="st4"/></g><defs><path id="SVGID_5_" d="M0 0h500v500H0z"/></defs><clipPath id="SVGID_6_"><use xlink:href="#SVGID_5_" style="overflow:visible"/></clipPath><path d="m247.2 245.6-8.7 60.5 37.9 9.2s-2.1 18.7-.6 19.1c1.4.3 7.8 2.2 7.8 2.2v28.5c0 10.4 11.7 18.7 19.7 34.7s29.4 16.8 48.4 50l17.1-72.8-40.8-94.2-42.8-31.7-38-5.5z" style="opacity:.2;clip-path:url(#SVGID_6_);fill-opacity:.7;enable-background:new"/><defs><path id="SVGID_7_" d="M0 0h500v500H0z"/></defs><clipPath id="SVGID_8_"><use xlink:href="#SVGID_7_" style="overflow:visible"/></clipPath><g style="clip-path:url(#SVGID_8_)"><path id="XMLID_147_" d="M454.3 124 426 364.5c-.2 1.6-1 2.9-2.3 3.7-1 .7-2.3 1-3.6.9l-183.7-21.6 29.5-251 183.7 21.6c2.9.3 5 3 4.7 5.9z" class="st7"/><defs><path id="SVGID_9_" d="M454.3 124 426 364.5c-.2 1.6-1 2.9-2.3 3.7-1 .7-2.3 1-3.6.9l-183.7-21.6 29.5-251 183.7 21.6c2.9.3 5 3 4.7 5.9z"/></defs><clipPath id="SVGID_10_"><use xlink:href="#SVGID_9_" style="overflow:visible"/></clipPath><path d="m338.3 195.7-1.1 9.2-25.2 44.9 19.7 2.3-1.1 9.4-30.3-3.6 1.1-9.2 25.2-44.9-18.7-2.2 1.1-9.4 29.3 3.5zm6.1.7 10.3 1.2-7.7 65.8-10.3-1.2 7.7-65.8zm46.6 22-1 8.6c-1.2 10.5-7 15.7-17.3 14.5l-4.9-.6-2.9 24.7-10.3-1.2 7.7-65.8 15.2 1.8c10.3 1.1 14.8 7.4 13.5 18zm-19.5-9.3-2.6 22.3 4.9.6c3.3.4 5.3-.9 5.8-5.6l1.2-9.9c.6-4.7-1.1-6.4-4.3-6.8l-5-.6z" class="st4" style="clip-path:url(#SVGID_10_)"/><defs><path id="SVGID_11_" d="M454.3 124 426 364.5c-.2 1.6-1 2.9-2.3 3.7-1 .7-2.3 1-3.6.9l-183.7-21.6 29.5-251 183.7 21.6c2.9.3 5 3 4.7 5.9z"/></defs><clipPath id="SVGID_12_"><use xlink:href="#SVGID_11_" style="overflow:visible"/></clipPath><path id="XMLID_148_" d="M454.3 124 426 364.5c-.2 1.6-1 2.9-2.3 3.7-1 .7-2.3 1-3.6.9l-183.7-21.6 29.5-251 183.7 21.6c2.9.3 5 3 4.7 5.9z" style="opacity:.4;clip-path:url(#SVGID_12_);fill-opacity:.7;enable-background:new"/><defs><path id="SVGID_13_" d="M454.3 124 426 364.5c-.2 1.6-1 2.9-2.3 3.7-1 .7-2.3 1-3.6.9l-183.7-21.6 29.5-251 183.7 21.6c2.9.3 5 3 4.7 5.9z"/></defs><clipPath id="SVGID_14_"><use xlink:href="#SVGID_13_" style="overflow:visible"/></clipPath><path d="M350.5 324c.1 4.7-3.6 8.6-8.4 8.8l-104.3 3 28.1-239.3 80.2 9.4 4.4 218.1z" style="opacity:.1;clip-path:url(#SVGID_14_);fill-opacity:.7;enable-background:new"/><path d="M454.3 124 426 364.5c-.2 1.6-1 2.9-2.3 3.7-1 .7-2.3 1-3.6.9l-183.7-21.6 29.5-251 183.7 21.6c2.9.3 5 3 4.7 5.9z" class="st11"/></g><defs><path id="SVGID_15_" d="M0 0h500v500H0z"/></defs><clipPath id="SVGID_16_"><use xlink:href="#SVGID_15_" style="overflow:visible"/></clipPath><g style="clip-path:url(#SVGID_16_)"><path d="M115.4 287.1s6.3-10 14.9-14.6c0 0 24.4 18 33.1 56.1 0 0 7.1 17.4 7.9 30.1.8 12.8-15 40.2-19.4 51.4-4.4 11.2-19.1 2.5-42.2 39.7l17.4-60.9-9.4-54.5-2.3-47.3z" class="st13"/><path d="M113.5 459.4c6.1-19.9 15.5-50.2 18.4-55 4.3-7.3 7.2-5.9 12.3-10.6s10-29.8 6.8-40.2c-.7-2.1-1.3-4.1-2-5.8-.6-1.4-1.1-2.7-1.6-3.9-.2-.4-.4-.9-.6-1.3-1.8-3.7-3.4-6.2-4.4-8.4-1.8-3.9-1.4-14.8-6.5-30.1-5.1-15.4-7.8-28.9-18.8-25-4.5 1.6-6.6 4.3-7 15.6-.4 11.4-.7 23.3 1.4 26.8.7 1.1 1.3 2.2 1.9 3.2.2.3.4.6.5.9.6 1.1 1.1 1.9 1.4 2.4 0 .1.1.1.1.2s.1.1.1.1h-.1s-.1-.1-.2-.1c-.1-.1-.3-.2-.5-.3-.2-.1-.4-.3-.7-.5-.4-.3-.8-.6-1.3-1-.2-.2-.5-.4-.8-.6-.1-.1-.3-.2-.4-.3-.3-.2-.6-.5-.9-.8s-.6-.6-1-.9c-.4-.4-.8-.7-1.2-1.2-1-1-2-2-3-3.3-.2-.2-.4-.4-.6-.7-.3-.4-.6-.7-.9-1.1s-.6-.7-.8-1.1c-.4-.5-.8-1.1-1.2-1.6l-.6-.9-1.2-1.8c-.4-.6-.8-1.3-1.2-1.9-.2-.3-.4-.7-.6-1l-1.2-2.1c-.2-.4-.4-.7-.6-1.1s-.5-.9-.7-1.3c-.2-.3-.3-.7-.5-1l-.6-1.2c-.2-.3-.3-.6-.5-1s-.4-.8-.6-1.3-.4-.9-.6-1.3-.4-.9-.6-1.4c-1.1-2.7-2.1-5.7-3.1-8.9-.1-.4-.2-.7-.3-1.1-.2-.7-.4-1.4-.6-2.2-.1-.6-.3-1.1-.4-1.7-.7-2.9-1.3-5.9-1.8-9.1 0 0-9.3 9.4-9.3 21.3 0 19.1-2.4 41.1-2.1 54.9.2 7.9 2.2 29.1 2.2 30.3v.1c-.4.8-2.7 4.7-4.5 9.7-1.1 3-2 6.4-2.3 9.8-.2 2.4-3.1 9-7.2 17.2-6.5 13-15.9 30.1-22.3 41.6h72.8z" class="st14"/><path d="M136.9 398.6c-1.6 1.1-3.2 2.6-5.1 5.8-2 3.4-7.3 19.6-12.4 35.8-1.2-5.2-1.7-11.9.2-19.6 4-16 10.4-18.4 17.3-22zm12-50.8c-9.8-11.2-23.9-16.1-26-11.3-2.5 5.8-6 21.3-6.9 25.3-.2-.3-.4-.6-.6-1-5-8.1-5.6-19.5-5.6-19.5l-3.9 2.4c-4.2 2.5-7 6.7-7.7 11.5-1.5 10-4.2 26.3-5.3 24-1.1-2.1-18.2 21.8-29.8 38.5 4.1-8.2 7-14.8 7.2-17.2.3-3.4 1.2-6.8 2.3-9.8 2.4-5.2 4.2-8.9 4.5-9.7v-.1c0-1.2-2-22.4-2.1-29.9-.2-13.7 2.1-35.7 2.1-54.9 0-11.9 9.3-21.3 9.3-21.3.5 3.2 1.1 6.2 1.8 9.1.1.6.3 1.1.4 1.7.2.7.4 1.4.6 2.2.1.4.2.7.3 1.1.9 3.2 1.9 6.1 3.1 8.9.2.5.4.9.6 1.4.2.4.4.9.6 1.3s.4.9.6 1.3c.1.3.3.7.5 1l.6 1.2c.2.3.3.7.5 1 .2.5.5.9.7 1.3s.4.7.6 1.1l1.2 2.1c.2.3.4.7.6 1 .4.7.8 1.3 1.2 1.9l1.2 1.8.6.9c.4.6.8 1.1 1.2 1.6.3.4.6.7.8 1.1.3.4.6.8.9 1.1.2.2.4.5.6.7 1.1 1.2 2.1 2.3 3 3.3l1.2 1.2c.3.3.7.6 1 .9s.6.5.9.8c.1.1.3.2.4.3.3.2.5.4.8.6.5.4.9.7 1.3 1 .2.2.5.3.7.5.2.1.4.3.5.3s.1.1.2.1h.1s0-.1-.1-.1c0 0-.1-.1-.1-.2-.2-.4-.7-1.3-1.4-2.4-.2-.3-.3-.6-.5-.9-.6-1-1.2-2.1-1.9-3.2-2.2-3.6-1.8-15.5-1.4-26.8.4-11.4 2.5-14 7-15.6 11-4 13.7 9.6 18.8 25 5.1 15.4 4.7 26.3 6.5 30.1 1 2.2 2.6 4.7 4.4 8.4.2.4.4.8.6 1.3.2.9.7 2.2 1.3 3.6z" class="st15"/><path d="M115.8 362.8s.1-.3.2-.9c3.9 6.5-.2.9-.2.9z" class="st15"/><path d="M116.4 449.8c5.8-18.8 13-41.3 15.4-45.4 4.3-7.3 7.2-5.9 12.3-10.6s10-29.8 6.8-40.2c-3.2-10.4-6.8-15.4-8.6-19.3s-1.4-14.8-6.5-30.1c-5.1-15.4-7.8-28.9-18.8-25-4.5 1.6-6.6 4.3-7 15.6-.4 11.4-.7 23.3 1.4 26.8 2.2 3.6 3.9 6.8 3.9 6.8s-22.5-12.7-29-53.4c0 0-9.3 9.4-9.3 21.3 0 19.1-2.4 41.1-2.2 54.9.2 7.4 2.2 28.6 2.2 29.8 0 .3-6.1 10.1-6.9 19.6-.3 3.9-7.7 18.6-15.7 33.7" class="st16"/><path d="M115.4 328.5c1.4 3.6 1 9.6 1.6 18.8.6 9.2 2.7 12.4 2.7 12.4" class="st16"/><path d="M117.5 352.5s-1.8 8.6-2.2 14m-25.4-27.8s2.8 23.1 2.9 31m41.8 30.9c-8.1 5-12.4 6.8-14.9 16.5M77 381c2.9-6.6 4.1-21.2 4.1-21.2" class="st16"/><path d="m84 343.3 46.7-14.6V75.6L84 61.1c-2.8-.9-5.1.7-5.1 3.5v275.2c.1 2.8 2.4 4.4 5.1 3.5z" style="fill:#62cc9a;stroke:#263238;stroke-miterlimit:10"/><path d="M130.8 75.6v253.1l-41.1 12.8c-2.8.9-5.7-1.2-5.7-4.2V67c0-2.9 2.8-5 5.7-4.2l41.1 12.8z" style="opacity:.3;fill-opacity:.7;enable-background:new"/><path id="XMLID_143_" d="M320.5 80.9v242.2c0 1.6-.7 3-1.8 4-.9.8-2.1 1.3-3.5 1.3h-185V75.6h185c2.9 0 5.3 2.4 5.3 5.3z" class="st7"/><defs><path id="SVGID_17_" d="M320.5 80.9v242.2c0 1.6-.7 3-1.8 4-.9.8-2.1 1.3-3.5 1.3h-185V75.6h185c2.9 0 5.3 2.4 5.3 5.3z"/></defs><clipPath id="SVGID_18_"><use xlink:href="#SVGID_17_" style="overflow:visible"/></clipPath><path d="M318.7 176.1v151c-.9.8-2.1 1.3-3.5 1.3h-185v-251H308c2.4 0 4.4 2 4.4 4.4v89.7l1.8.1c2.5 0 4.5 2 4.5 4.5z" style="opacity:.3;clip-path:url(#SVGID_18_);fill-opacity:.7;enable-background:new"/><path d="M320.5 80.9v242.2c0 1.6-.7 3-1.8 4-.9.8-2.1 1.3-3.5 1.3h-185V75.6h185c2.9 0 5.3 2.4 5.3 5.3z" class="st11"/><path id="XMLID_144_" d="M316 242.8v64.3c0 2.3-1.7 4.3-4 4.5l-2.1.2-18.7 2V236l20.8 2.3c2.3.3 4 2.2 4 4.5z" style="fill:#999"/><defs><path id="SVGID_19_" d="M316 242.8v64.3c0 2.3-1.7 4.3-4 4.5l-2.1.2-18.7 2V236l20.8 2.3c2.3.3 4 2.2 4 4.5z"/></defs><clipPath id="SVGID_20_"><use xlink:href="#SVGID_19_" style="overflow:visible"/></clipPath><path d="M316 242.8v3.1l-6.2 1.2v64.8l-18.7 2V236l20.8 2.3c2.4.3 4.1 2.2 4.1 4.5z" style="opacity:.2;clip-path:url(#SVGID_20_);fill-opacity:.7;enable-background:new"/><path d="M316 242.8v64.3c0 2.3-1.7 4.3-4 4.5l-2.1.2-18.7 2V236l20.8 2.3c2.3.3 4 2.2 4 4.5z" class="st16"/><path id="XMLID_142_" d="M316 170.3v64.3c0 2.3-1.7 4.3-4 4.5l-4.2.5v80.2c0 2.5-1.8 4.5-4.2 4.9-.3.1-.6.1-.9.1l-172.4-.1V80l172.4.1c.3 0 .6 0 .9.1 2.4.4 4.2 2.5 4.2 4.9v80.2l4.2.5c2.3.3 4 2.2 4 4.5z" class="st14"/><defs><path id="SVGID_21_" d="M316 170.3v64.3c0 2.3-1.7 4.3-4 4.5l-4.2.5v80.2c0 2.5-1.8 4.5-4.2 4.9-.3.1-.6.1-.9.1l-172.4-.1V80l172.4.1c.3 0 .6 0 .9.1 2.4.4 4.2 2.5 4.2 4.9v80.2l4.2.5c2.3.3 4 2.2 4 4.5z"/></defs><clipPath id="SVGID_22_"><use xlink:href="#SVGID_21_" style="overflow:visible"/></clipPath><path d="M316 170.3v64.3c0 2.3-1.7 4.3-4 4.5l-4.2.5v80.2c0 2.5-1.8 4.5-4.2 4.9V80.2c2.4.4 4.2 2.5 4.2 4.9v80.2l4.2.5c2.3.3 4 2.2 4 4.5z" style="clip-path:url(#SVGID_22_);fill:#bfbfbf"/><defs><path id="SVGID_23_" d="M316 170.3v64.3c0 2.3-1.7 4.3-4 4.5l-4.2.5v80.2c0 2.5-1.8 4.5-4.2 4.9-.3.1-.6.1-.9.1l-172.4-.1V80l172.4.1c.3 0 .6 0 .9.1 2.4.4 4.2 2.5 4.2 4.9v80.2l4.2.5c2.3.3 4 2.2 4 4.5z"/></defs><clipPath id="SVGID_24_"><use xlink:href="#SVGID_23_" style="overflow:visible"/></clipPath><g style="clip-path:url(#SVGID_24_)"><path d="M206.4 113.5v48.8h-53V99.8h39.4l9.2 9.2z" class="st24"/><path d="M202 109v26.9h-44.1V104h39z" class="st25"/><path d="M202 109v26.9h-44.1V104h39z" class="st16"/><path d="M171.3 152.1h.7c.6 0 1.1-.2 1.1-1.2v-9.2h1.9v9.1c0 2.4-1.3 3-2.7 3h-.9v-1.7h-.1zm10.5-7.4v1.6c0 1.9-.9 3-2.8 3h-.9v4.5h-1.9v-12.1h2.8c1.9 0 2.8 1.1 2.8 3zm-3.7-1.2v4.1h.9c.6 0 .9-.3.9-1.1v-1.8c0-.9-.3-1.1-.9-1.1l-.9-.1zm7.4 3.6h2.7v3.8c0 1.9-1 3-2.8 3-1.9 0-2.8-1.1-2.8-3v-6.3c0-1.9 1-3 2.8-3 1.9 0 2.8 1.1 2.8 3v1.2h-1.8v-1.3c0-.9-.4-1.2-1-1.2s-1 .3-1 1.2v6.5c0 .9.4 1.2 1 1.2s1-.3 1-1.2v-2.2h-.9v-1.7z" class="st4"/><path d="M206.4 113.5h-13.6V99.8l9.2 9.2z" class="st24"/><path d="M202 122.4v13.5h-44.1v-6.6l12-9.3 11.3 9.4 14.6-12.4z" class="st26"/><circle cx="173.3" cy="112.5" r="4.5" class="st26"/><path d="M280.2 113.5v48.8h-53.1V99.8h39.4l9.2 9.2z" class="st24"/><path d="M275.7 109v26.9h-44.1V104h39.1z" class="st25"/><path d="M275.7 109v26.9h-44.1V104h39.1zm-37.2 18.5h30.3" class="st16"/><path d="M237.9 113.5s0 14.1 15.7 14.1 15.7-14.1 15.7-14.1" class="st16"/><path d="M239.2 113.5c0 .7-.6 1.3-1.3 1.3s-1.3-.6-1.3-1.3c0-.7.6-1.3 1.3-1.3.7 0 1.3.6 1.3 1.3zm31.5 0c0 .7-.6 1.3-1.3 1.3-.7 0-1.3-.6-1.3-1.3 0-.7.6-1.3 1.3-1.3s1.3.6 1.3 1.3zm-34 12.9h2.3v2.3h-2.3zm15.8 0h2.3v2.3h-2.3zm15.7 0h2.3v2.3h-2.3z" class="st26"/><path d="M280.2 113.5h-13.7V99.8l9.2 9.2z" class="st24"/><path d="M246.6 146.8h2.6v1.7h-2.6v3.5h3.3v1.7h-5.2v-12.1h5.2v1.7h-3.3v3.5zm10-2.1v1.6c0 1.9-.9 3-2.8 3h-.9v4.5H251v-12.1h2.8c1.9 0 2.8 1.1 2.8 3zm-3.7-1.2v4.1h.9c.6 0 .9-.3.9-1.1v-1.8c0-.9-.3-1.1-.9-1.1l-.9-.1zm7.2-1.9c1.8 0 2.8 1.1 2.8 3v.4h-1.8v-.5c0-.9-.3-1.2-.9-1.2s-.9.3-.9 1.2.4 1.5 1.6 2.6c1.6 1.4 2.1 2.4 2.1 3.8 0 1.9-1 3-2.8 3-1.9 0-2.8-1.1-2.8-3v-.7h1.8v.9c0 .9.4 1.2 1 1.2s1-.3 1-1.2-.4-1.5-1.6-2.6c-1.6-1.4-2.1-2.4-2.1-3.8-.2-2 .7-3.1 2.6-3.1z" class="st4"/><path d="M280.2 186.8v48.7h-53.1v-62.4h39.4l9.2 9.2z" class="st24"/><path d="M275.7 182.3v26.9h-44.1v-31.9h39.1z" class="st25"/><path d="M275.7 182.3v26.9h-44.1v-31.9h39.1z" class="st16"/><path d="M280.2 186.8h-13.7v-13.7l9.2 9.2z" class="st24"/><ellipse cx="255.2" cy="200.1" class="st4" rx="5.3" ry="3.5"/><path d="m254.5 181.7-3.6 18.4h-1l2.6-13.4.7-3.5c.8-.7 1.3-1.4 1.3-1.5z" class="st4"/><path d="m254.5 181.7-.9 4.4s-.4.2-1.1.5c-.8.3-2 .6-3.5.4-2.7-.2-3.9 2-4 2.1.1-.2 1.1-4.1 4.7-4.5 1.5-.2 2.7-.8 3.5-1.5.8-.6 1.3-1.3 1.3-1.4zm-7.4 38.9-.7 6.4h-2.6l-1.3-12.1h1.8l1 9.5.9-9.5h1.8l.9 9.6 1-9.6h1.7l-1.3 12.1h-2.5l-.7-6.4zm11.3 6.4h-1.9l-.3-2.2h-2.3l-.3 2.2h-1.7l1.9-12.1h2.8l1.8 12.1zm-4.3-3.8h1.8l-.9-6.1-.9 6.1zm7.6 1.6 1.5-9.8h1.7l-1.9 12.1h-2.8l-1.9-12.1h1.9l1.5 9.8z" class="st4"/><path d="M206.4 260v48.8h-53v-62.5h39.4l9.2 9.2z" class="st24"/><path d="M202 255.5v26.9h-44.1v-31.9h39z" class="st25"/><path d="M202 255.5v26.9h-44.1v-31.9h39z" class="st16"/><path d="M206.4 260h-13.6v-13.7l9.2 9.2z" class="st24"/><path d="m174 260-8.1 8.1 8.1 8m11.9 0 8-8-8-8.1m-4.1 0-3.8 16.2" class="st16"/><path d="M168.2 300.3h-1.9v-12.1h1.9v5.2h2.2v-5.2h1.9v12.1h-1.9v-5.2h-2.2v5.2zm4.9-12.1h5.9v1.7h-2v10.3h-1.9v-10.3h-2v-1.7zm10.7 8.6 1.3-8.6h2.6v12.1h-1.8v-8.6l-1.3 8.6h-1.8l-1.4-8.5v8.5h-1.7v-12.1h2.6l1.5 8.6zm5.3-8.6h1.9v10.3h3.1v1.7h-5v-12z" class="st4"/><path d="M206.4 186.8v48.7h-53v-62.4h39.4l9.2 9.2z" class="st24"/><path d="M202 182.3v26.9h-44.1v-31.9h39z" class="st25"/><path d="M202 182.3v26.9h-44.1v-31.9h39z" class="st16"/><path d="M206.4 186.8h-13.6v-13.7l9.2 9.2z" class="st24"/><path d="M175 194.1s-1.4-2.5-5.2-.5c-3.4 1.9-3 6.3.5 6.3 4.1 0 5.8-4.1 8.2-8.3 2.5-4.5 4.6-9 4.9-9.6 0 0-2.9 17.7-3.2 20.1-.4 2.3 2.6.4 2.9-.6m7.5-8.1s-4.5-1.1-6.1 3.5c-.6 1.8.5 3 1.6 3 2.9 0 4-1.7 5.3-6.5 0 0-1.8 6.5-.9 6.5 1.3 0 1.9-1.2 1.9-1.2m-14.4-5.3h7.4" class="st16"/><path d="M171 217.9c0-1.9 1-3 2.9-3s2.9 1.1 2.9 3v6.3c0 1.9-1 3-2.9 3s-2.9-1.1-2.9-3v-6.3zm1.9 6.4c0 .9.4 1.2 1 1.2s1-.3 1-1.2v-6.5c0-.9-.4-1.2-1-1.2s-1 .3-1 1.2v6.5zm4.5-9.3h5.9v1.7h-2V227h-1.9v-10.3h-2V215zm8.6 5.3h2.4v1.7H186v5h-1.9v-12h5v1.7H186v3.6z" class="st4"/></g><defs><path id="SVGID_25_" d="M316 170.3v64.3c0 2.3-1.7 4.3-4 4.5l-4.2.5v80.2c0 2.5-1.8 4.5-4.2 4.9-.3.1-.6.1-.9.1l-172.4-.1V80l172.4.1c.3 0 .6 0 .9.1 2.4.4 4.2 2.5 4.2 4.9v80.2l4.2.5c2.3.3 4 2.2 4 4.5z"/></defs><clipPath id="SVGID_26_"><use xlink:href="#SVGID_25_" style="overflow:visible"/></clipPath><path d="m130.3 75.6 85.2 131.9v116.7h-84.7z" style="opacity:.1;clip-path:url(#SVGID_26_);fill-opacity:.7;enable-background:new"/><path d="M316 170.3v64.3c0 2.3-1.7 4.3-4 4.5l-4.2.5v80.2c0 2.5-1.8 4.5-4.2 4.9-.3.1-.6.1-.9.1l-172.4-.1V80l172.4.1c.3 0 .6 0 .9.1 2.4.4 4.2 2.5 4.2 4.9v80.2l4.2.5c2.3.3 4 2.2 4 4.5z" class="st11"/><path id="XMLID_141_" d="M130.3 80v245l-32.1 9.7c-.1 0-.3.1-.4.1-2.7.6-4.9-1.1-4.9-4V164.2l-1.8-1.1c-.5-.3-.9-2.5-.9-5V87.4c0-2.5.4-4.6.9-4.7l1.8-.5v-8c0-2.9 2.2-4.6 4.9-4 .1 0 .2.1.4.1l32.1 9.7z" style="fill:#bfbfbf"/><defs><path id="SVGID_27_" d="M130.3 80v245l-32.1 9.7c-.1 0-.3.1-.4.1-2.7.6-4.9-1.1-4.9-4V164.2l-1.8-1.1c-.5-.3-.9-2.5-.9-5V87.4c0-2.5.4-4.6.9-4.7l1.8-.5v-8c0-2.9 2.2-4.6 4.9-4 .1 0 .2.1.4.1l32.1 9.7z"/></defs><clipPath id="SVGID_28_"><use xlink:href="#SVGID_27_" style="overflow:visible"/></clipPath><path d="M97.9 70.2v264.5c-2.7.6-4.9-1.1-4.9-4V164.2l-1.8-1.1c-.5-.3-.9-2.5-.9-5V87.4c0-2.5.4-4.6.9-4.7l1.8-.5v-8c0-2.9 2.1-4.6 4.9-4z" style="clip-path:url(#SVGID_28_);fill:#263238"/><path d="M130.3 80v245l-32.1 9.7c-.1 0-.3.1-.4.1-2.7.6-4.9-1.1-4.9-4V164.2l-1.8-1.1c-.5-.3-.9-2.5-.9-5V87.4c0-2.5.4-4.6.9-4.7l1.8-.5v-8c0-2.9 2.2-4.6 4.9-4 .1 0 .2.1.4.1l32.1 9.7z" class="st11"/><path d="M163.3 328.4h-32.5v.4l-13.2 4.1-2.3-45.8s6.3-10 14.9-14.6c0 0 .2.1.5.4 3.7 2.8 24.7 20.7 32.6 55.5z" class="st13"/><path id="XMLID_146_" d="M119.7 359.8s-2.2-3.3-2.7-12.4c-.6-9.2-.2-15.2-1.6-18.8 0 0-1.8-3.2-3.9-6.8-2.2-3.6-1.8-15.5-1.4-26.8.4-11.4 2.5-14 7-15.6 11-4 13.7 9.6 18.8 25 5.1 15.4 4.7 26.3 6.5 30.1 1.8 3.9 5.4 8.9 8.6 19.3" class="st14"/><defs><path id="SVGID_29_" d="M119.7 359.8s-2.2-3.3-2.7-12.4c-.6-9.2-.2-15.2-1.6-18.8 0 0-1.8-3.2-3.9-6.8-2.2-3.6-1.8-15.5-1.4-26.8.4-11.4 2.5-14 7-15.6 11-4 13.7 9.6 18.8 25 5.1 15.4 4.7 26.3 6.5 30.1 1.8 3.9 5.4 8.9 8.6 19.3"/></defs><clipPath id="SVGID_30_"><use xlink:href="#SVGID_29_" style="overflow:visible"/></clipPath><path d="M147.5 344.6c-5.6-6.2-11.1-10.4-11.7-12.3-1.1-3 2.7-18.5-2.9-23.7-5.5-5.1-12.6.5-16.2-.8s-3.2-7.7-3.2-20c0-6 4-8.4 8.1-9.2 7.3 1 9.9 12.7 14.2 25.6 5.1 15.4 4.7 26.3 6.5 30.1 1.1 2.6 3.1 5.6 5.2 10.3z" style="opacity:.4;clip-path:url(#SVGID_30_);fill:#92e3a9;enable-background:new"/><path d="M119.7 359.8s-2.2-3.3-2.7-12.4c-.6-9.2-.2-15.2-1.6-18.8 0 0-1.8-3.2-3.9-6.8-2.2-3.6-1.8-15.5-1.4-26.8.4-11.4 2.5-14 7-15.6 11-4 13.7 9.6 18.8 25 5.1 15.4 4.7 26.3 6.5 30.1 1.8 3.9 5.4 8.9 8.6 19.3" class="st16"/></g><defs><path id="SVGID_31_" d="M0 0h500v500H0z"/></defs><clipPath id="SVGID_32_"><use xlink:href="#SVGID_31_" style="overflow:visible"/></clipPath><g style="clip-path:url(#SVGID_32_)"><path d="M292.3 313.6s2.3 9.7 1.9 12.3c-.4 2.6 2.4 2.6 2.4 2.6.9 9.8 1.2 19.4.5 23.3-1.4 7.5 5.7 15.5 12 29.4s10.6 16.5 17.4 23.1 5.8 13 10.1 20.7c2.5 4.5 6.6 24.7 9.7 41h72.5c-10.6-20.4-26.9-51.7-28.8-55.4-2.9-5.5-1.4-8.3-6.1-18.5 0 0-5.2-75.1-9.6-80.3s-18.6-11.6-22.6-15.6c-4-3.9-20.9-26.2-26.8-27.6s-19.7 9.3-19.7 9.3-5-7.3-12.1-4c-4.7 2.2-4.5 10-3 18.3-.1.1-2.5 4-3.7 6.1-1.3 2.2-3.8 14.3-3.8 15.6 0 1.2 5.6 4.6 9.7-.3z" class="st14"/><path d="M329.4 336.2s5 7.1 2.2 7.2-11-3.7-15.5-15c-1.1-2.6-2.3-5.4-3.6-8.1-2.9-6.2-12.1-5.4-13.9 1.2l-1.9 7.1s-2.8 0-2.4-2.6c.3-2.3-1.4-10.2-1.8-12l.7-1.5-9.9-2.5c.4-1.8.8-4 1.3-6 .1-.3.1-.6.2-.8v-.1c.1-.2.1-.4.2-.7.5-1.8 1-3.3 1.3-3.9 1.2-2.1 3.7-6 3.7-6.1-1.5-8.3-1.7-16.1 3-18.3 7.1-3.3 12.1 4 12.1 4s.2-.2.6-.4c.1-.1.2-.1.3-.2 1.2-.9 3.5-2.5 6.1-4.2.4-.2.8-.5 1.2-.7 1.8-1.1 3.8-2.1 5.6-2.8.7-.3 1.3-.5 1.9-.7.2-.1.4-.1.6-.2 1.1 4.4 2.2 11.4 1.4 19.9l6.5 9.9s1.1 5.2 4.2 10.1 4.7 10.1 4.7 10.1 1.2-1 2.9.7c0 0-4.9 6.1-6.4 10.2-1.4 4.1-5.3 6.4-5.3 6.4zm48 28.4c-.9-24.2-4.7-37.4-4.7-37.4s1 19.6-1.7 25c0 0-2.2-17.5-1-28.9s-24.6-27-25.7-35.5c3.3 3.9 6 7.2 7.3 8.5 4 4 18.2 10.4 22.6 15.6 4.3 5.1 9.5 78 9.6 80.3-2.7-5.2-5.9-14-6.4-27.6zm-35.8 78.3c-1.9-8.5-3.7-15.4-5-17.8-3.9-7.1-3.4-13.1-8.6-19.1 1 .8 1.9 1.4 2.5 1.7 4.4 2.2 9.4 11.8 10.6 18.5.7 3.4.7 10.6.5 16.7z" class="st15"/><path d="M290.1 292.3s-2.5 4-3.7 6.2c-1.3 2.2-3.8 14.3-3.8 15.6 0 1.3 7.7 5.7 11.7-3.8" class="st16"/><path d="M343.4 452.5c-3-14.2-6-28.2-12.4-41.7-3.6-8.2-11.8-12.7-17.2-19.9-6.3-10-10-20.8-15.4-30.8-1.8-13.6-.9-27.2-2.7-41.7-1.8-10-4.5-19.9-6.3-29.9 0-5.4-1.8-10.9 3.6-14.5 4.5-1.8 9.1.9 12.3 4 4.8-3.7-.4-.5 0 0 4.9-4 10.4-9.5 16.7-8.6 14.5.9 19.9 18.1 29.9 27.2 2.7 2.7 6.3 3.6 9.1 6.3 5.4 3.6 12.7 5.4 14.5 11.8 6.3 26.3 5.4 50.7 9.1 77 .9 4.5 1.8 10 3.6 14.5 4.5 10 9.5 19.7 14.6 29.3" class="st16"/><path d="M305.2 278c4.3 4.5 9.7 17.9 12.4 27.4 2.7 9.5 2 21.3 2 21.3s3.9 6.1 7.5 12.2 7.7 4.8 7.7 4.8" class="st16"/><path d="M322.9 332.1s4 1.1 7.2-2.7c3.2-3.8 1.1-8.1 12.2-9.9" class="st16"/><path d="M333.6 323.3s-.6-5.9-3.8-11.5c-3.2-5.5-2.7-9.7-2.7-9.7s-8.1-6.9-8.8-9.9m1.7-13s-.4 4.9-.8 7.7c-.7 5.3-1.8 6.7-5.1 7.9m3.5 10.6s2.5 2 6.6 2.8c0 0-.7 6.4.7 8 1.4 1.6 4.1 2.9 4.5 5.6m-10.1-6.5s1.3 1.1 4.2.9m3.7 11.1s-3.1 3.3-5.9 2.4m-29-16.1s2.3 9.7 1.9 12.3c-.4 2.6 2.4 2.6 2.4 2.6" class="st16"/><path d="M327.1 302.2s2-3.9 3.7-4.8m-6.5 36.9s4.9.6 8.3 4.4m19.1-42.4c7.1 8.6 13.6 13.4 16.8 17.3 3.2 3.9-.1 12.3 1.6 27.9m-11.5-26.2s-1.2 6.8 2.2 12m-34.3 77.1c9.7 7.7 10 9.8 12.2 14.5m45.2-26.7c-5.4-8.4-6.5-22.4-6.5-22.4" class="st16"/><path d="M316.4 257.9 306 305.5l-51.9-11.3 13.4-61.1 38.4 8.5 7 10.9z" class="st24"/><path d="m312.9 252.5-5.7 26.3-43.1-9.4 6.8-31.2 38.2 8.3z" class="st25"/><path d="m312.9 252.5-5.7 26.3-43.1-9.4 6.8-31.2 38.2 8.3zm-32.3-6.9 25.1 5.5m-29.3-3.5 28.7 6.3m-29.3-3.5 28.7 6.3m-29.3-3.5 28.7 6.3m-29.3-3.5 28.7 6.3m-29.4-3.5 28.8 6.3m-29.4-3.4 28.8 6.2m-29.4-3.4 25.2 5.5" class="st16"/><path d="m271.9 279.2-3.4-.8.3-1.2 8.4 1.8-.3 1.2-3.5-.8-2.2 10.1-1.5-.3 2.2-10zm10.5 12.9-.9-2.8c-.4-1.1-.6-1.8-.8-2.5-.5.6-.9 1.1-1.7 2l-1.9 2.2-1.7-.4 4.7-5-2.1-6.3 1.7.4.9 3c.3.8.5 1.5.6 2.1.5-.6.9-1.1 1.4-1.7l2.1-2.3 1.7.4-4.7 4.8 2.3 6.6-1.6-.5zm7.9-8.8-3.5-.8.3-1.2 8.4 1.8-.3 1.2-3.5-.8-2.2 10.1-1.5-.3 2.3-10z" class="st4"/><path d="m316.4 257.9-13.4-3 2.9-13.3 7 10.9z" class="st26"/><path id="XMLID_145_" d="M309.1 381.3c-6.3-13.9-13.4-21.9-12-29.4s-1.1-35.9-4-47-7.2-27.5 0-30.9c7.1-3.3 12.1 4 12.1 4 4.3 4.5 9.7 17.9 12.4 27.4 2.7 9.5 2 21.3 2 21.3s3.9 6.1 7.5 12.2 7.7 4.8 7.7 4.8" class="st14"/><defs><path id="SVGID_33_" d="M309.1 381.3c-6.3-13.9-13.4-21.9-12-29.4s-1.1-35.9-4-47-7.2-27.5 0-30.9c7.1-3.3 12.1 4 12.1 4 4.3 4.5 9.7 17.9 12.4 27.4 2.7 9.5 2 21.3 2 21.3s3.9 6.1 7.5 12.2 7.7 4.8 7.7 4.8"/></defs><clipPath id="SVGID_34_"><use xlink:href="#SVGID_33_" style="overflow:visible"/></clipPath><path d="M308.5 325.9s-11.9 1.3-11 16.8c-.3-11.7-2.2-29.5-4.4-37.8-2.1-7.8-4.8-18.1-3.7-24.8 3.2-2.3 7.1-3.7 10.8-2.1 9.3 3.9 7.6 13.6 7.6 13.6s-10.8 1.8-11.1 8.2c-.3 6.3 7.4 6.3 11.8 26.1z" style="opacity:.4;clip-path:url(#SVGID_34_);fill:#92e3a9;enable-background:new"/><path d="M309.1 381.3c-6.3-13.9-13.4-21.9-12-29.4s-1.1-35.9-4-47-7.2-27.5 0-30.9c7.1-3.3 12.1 4 12.1 4 4.3 4.5 9.7 17.9 12.4 27.4 2.7 9.5 2 21.3 2 21.3s3.9 6.1 7.5 12.2 7.7 4.8 7.7 4.8" class="st16"/></g></g></svg>