<?xml version="1.0" encoding="utf-8"?>
<!-- Generator: Adobe Illustrator 25.2.0, SVG Export Plug-In . SVG Version: 6.00 Build 0)  -->
<svg version="1.1" id="Layer_1" xmlns="http://www.w3.org/2000/svg" xmlns:xlink="http://www.w3.org/1999/xlink" x="0px" y="0px"
	 viewBox="0 0 500 335" style="enable-background:new 0 0 500 335;" xml:space="preserve">
<style type="text/css">
	.st0{fill:#EDBD43;}
	.st1{fill:#764074;}
	.st2{fill:#38312D;}
	.st3{fill:#F2844F;}
	.st4{fill:#F95939;}
	.st5{fill:#E56324;}
	.st6{fill:#150F0C;}
	.st7{fill:#FDB697;}
	.st8{fill:#45362F;}
	.st9{fill:#160E0B;}
	.st10{fill:#FCB48E;}
	.st11{fill:#BE6547;}
	.st12{fill:#B65B36;}
	.st13{fill:#FBB38E;}
	.st14{fill:#B65A35;}
	.st15{fill:#FBB48F;}
	.st16{fill:#FBA187;}
	.st17{fill:#FFFFFF;}
	.st18{fill:#CC492F;}
	.st19{fill:#FBB898;}
	.st20{fill:#FFB18D;}
	.st21{fill:#4F2A4D;}
</style>
<path class="st0" d="M36.9,336c0-118,95.7-213.7,213.7-213.7S464.3,218,464.3,336"/>
<g>
	<g>
		<g>
			<path class="st1" d="M407.1,335C407.1,335,407.1,334.9,407.1,335c-1.3-6.5-3.6-12.7-6.6-18.4c-3-5.9-6.6-11.2-11-16
				c-4-4.7-8.5-8.9-13.3-12.9c-1.7-1.5-3.6-2.8-5.5-4.2c-5.3-6.1-12-11.2-18.8-15.4c-5.1-3.2-9.9-7.2-14.2-11.4
				c-3.8-3.6-8.2-6.3-12-9.9c-3.8-3.2-6.8-7.4-11-10.1c-5.1-3-9.9-6.6-14.8-10.1c-3.2-2.5-7.2-3-11-3.6c-8-1.3-16.3-1.3-24.5-1.3
				c-15.4,0.6-31,2.8-46,5.7c-2.8,0.4-5.9,1.1-8.7,0.4c-2.3,0.2-4.6,0.9-6.8,1.5c-2.7,0.6-5.1,1.5-7.2,3.2c-1.9,1.7-3.6,3.6-5.3,5.5
				c-4.2,4.2-8.7,8.2-13.7,11.6c-3.8,2.7-7.4,5.5-11,8.4c-5.1,4.4-9.9,9.5-15.2,13.5c-5.5,3.8-11,7.6-16.7,11.2
				c-0.4,0.4-0.8,0.6-1.1,0.8c-0.6,0.4-1.1,0.6-1.7,0.9c-2.8,1.3-5.5,2.8-8.2,4.6c-5.5,3.6-10.6,7.8-15.2,12.5
				c-4.9,4.9-9.1,10.6-12.5,16.5c-3,5.3-5.7,11-8,16.9H407.1L407.1,335z"/>
			<path class="st2" d="M282.7,30.2c3.8-1.3,7.8-2.1,11.6-2.1c2.1,0,4.6,0.6,5.7,2.5c0.8,1.7,0.2,3.8-0.9,5.1
				c-2.5,3-6.1,5.1-8.9,7.8c3.2-2.1,6.8-4.2,11-4.4c1.7,0,3.4,0,4.9,0.9c1.3,0.9,1.3,3,0.8,4.4c-0.9,1.9-2.5,3.6-3.8,5.1
				c2.5-1.1,5.1-2.3,8-2.7c0.9,0,2.3-0.2,2.7,0.9c0.2,1.5-0.9,2.8-1.9,4c-3.2,3.8-8,5.9-12.7,7.2c1.7,1.7,3.8,3.2,5.5,5.3
				c5.1,5.1,8.5,11.6,10.4,18.6c1.1,3.8,1.9,7.6,1.7,11.4c-0.2,4.4-0.4,8.7-1.1,12.9c-0.6,2.7-1.7,5.3-2.8,8
				c-0.8,1.5-0.8,3.2-1.1,5.1c-0.6,3.2-1.3,6.3-2.7,9.3c-0.6,1.5-1.5,2.8-2.7,4c-4.2,4.2-8.7,8-14.1,10.6c-4.6,2.3-9.7,3.6-14.8,3.8
				c-6.1,0-12.2-0.2-18.4-0.2c-3.6-0.2-7.4-0.4-11-0.8c-3.8-0.4-7.8-1.1-11.8-1.5c-3.6-0.4-7.2-0.6-10.8-0.6
				c-3.2,0-6.8,0.2-10.1-0.8c-2.7-0.9-4.6-3-6.1-5.3c-5.3-7.8-8.5-16.7-10.6-25.8c-1.3-5.1-1.5-10.4-1.3-15.6
				c0.4-5.9,0.6-12,2.5-17.7c1.1-3.8,2.7-7.4,4.7-10.8c1.3-2.1,2.7-4.2,4.7-5.5c2.7-1.7,5.5-3.4,8.7-3.2c0-2.7,0.4-5.3,1.5-7.8
				c1.1-2.8,2.3-5.7,4.2-7.8c1.7-1.7,3.6-3,5.9-4.2c2.7-1.1,5.5-2.5,8.5-2.5c6.5-0.2,13.1,0,19.8-0.4c3.8-0.4,7.8-0.4,11.2-1.7
				C274.2,34,278.4,31.9,282.7,30.2z"/>
		</g>
		<g>
			<path class="st3" d="M244.2,56c8.5-3.2,17.9-5.3,27-5.3c2.5,0.4,4.9,0.6,7.2,1.5c1.3,0.6,2.7,1.1,3.8,1.7
				c2.7,1.5,5.5,2.7,8.4,3.4c1.3,0.4,2.7,0.9,3.8,1.3c1.5,0.6,2.7,1.7,3.8,2.5c0,2.5,0,4.9,0,7.4c-0.4,3.8,0.2,7.8,0.6,11.8
				c0.6,5.7,1.5,11,2.3,16.7c0.4,2.5,0.9,5.1,1.5,7.6c0.2,4.4,1.9,8.5,1.7,12.7c0,3.8-2.1,7.2-1.9,10.8l-0.2,0.4
				c-1.9,3.2-2.7,7-3.8,10.6c-1.1,4.6-2.3,9.1-3.4,13.7c-0.8,2.5-1.5,4.7-2.8,6.8c-0.4,0.6-0.6,1.3-0.8,2.1
				c-2.1,0.8-3.6,2.3-5.3,3.2c-2.3,1.3-4.7,2.1-7,3c-4.9,1.7-10.1,0.9-15.2,0.9c-5.1-0.4-10.4,0.4-15.6,0.4c-5.7,0-11.6,0-17.1-2.1
				c-5.1-1.9-9.9-4.7-13.7-8.5c-1.7-2.1-3.4-4-4.9-6.3c0.4,1.9,1.1,3.8,1.9,5.7c1.3,2.7,2.3,5.7,3.8,8.4c1.1,2.3,2.7,4.4,3.8,6.6
				c1.1,2.1,3,4.2,4,6.5c0.9,2.3,2.3,4.4,3.2,6.8c1.1,2.3,2.8,4.7,5.3,5.7c2.7,0.8,5.1-0.4,7.6-1.1c3-0.9,6.1-0.9,9.1-0.9
				c5.7,0.4,10.6,3,16.3,3.8c1.3,0.4,2.5,1.1,3.8,1.3c4.7,1.1,9.1,2.8,13.7,4.4c2.1,0.6,4.2,1.5,6.3,2.1c0-1.1,0.2-2.3,0.2-3.2
				c0,4.6,0.2,9.1,0.6,13.5c0.9,6.8,0.4,13.9,0.9,20.7c0.8,4.2-0.4,8.4-1.3,12.5c-1.1,4.9-2.8,9.9-5.3,14.2c-1.7,3-3.2,6.1-5.3,8.9
				c-1.7,2.3-3.6,4.7-5.7,6.8c-1.9,2.3-4.2,4.2-6.5,6.1c-2.5,2.1-4.7,4.2-7.2,6.3c-2.1,1.5-4.2,3.2-6.6,4.2
				c-1.7,0.9-3.6,1.9-5.5,2.5c-1.5,0.6-3.2,0-4.7,0.2c-3-0.4-6.1-1.5-8.5-3.6c-2.5-1.7-4.7-3.6-6.8-5.5c-4.2-4.4-8-8.9-11.4-13.9
				c-2.3-3-4.2-6.3-6.3-9.1c-1.7-3-3.8-6.1-5.3-9.3c-2.1-5.7-1.3-12-0.8-18c0.2-3.4,0.6-6.8,1.1-10.1c1.1-6.8,1.1-13.9,1.9-20.7
				c0.8-6.8,1.3-13.9,1.1-20.7c-0.4-6.1,0.4-12.2,0-18c0.6-1.5,0.4-3.2,0.6-4.7c0.8-7.6,0.4-15.2,0.4-22.8c-0.2-2.1-0.2-4-0.8-5.9
				c0.4-2.1-0.2-4.4,0-6.5c-0.4-4.4,0-8.9,0.9-13.3c1.5-4.6,2.7-9.1,3.2-13.9c1.1-6.3,1.1-12.5,2.1-18.8c0.4-2.8,1.1-5.7,1.9-8.4
				c0.2-0.8,0.6-1.7,1.5-2.1c2.7-1.3,5.1-2.8,7.6-4.4C232.8,60.2,238.5,57.9,244.2,56z"/>
			<path class="st4" d="M312.2,115.5c3.2-0.2,6.3,1.7,8,4.6c2.1,3.2,2.5,7,2.5,10.6c0,3-1.1,5.9-2.1,8.9c-0.9,3-2.1,6.3-3.8,8.9
				c-2.7,4.4-5.9,8.4-10.3,11.2c-3.2,2.1-7.4,3.4-11.4,2.3c-1.1,0-2.1-0.6-3.2-0.8c-0.2,0-0.4,0-0.6,0.2c0.2-0.8,0.4-1.3,0.8-2.1
				c1.3-2.1,2.1-4.4,2.8-6.8c1.1-4.6,2.5-8.9,3.4-13.7c0.9-3.6,1.7-7.4,3.8-10.6c0,0,0.2,0,0.4,0.2c1.5-2.5,3.2-4.7,4.9-7.2
				C308.9,119.5,310.7,117.6,312.2,115.5z"/>
			<path class="st4" d="M196.7,121c1.9-0.9,4.2-0.4,5.9,0.8c3.6,2.1,5.7,5.7,7.4,9.3c0.6,1.9,0.6,4,0.8,5.9c0,7.6,0.4,15.2-0.4,22.8
				c-0.2,1.5,0,3.2-0.6,4.7c-1.3-0.4-2.7-0.2-3.8-0.6c-3.6-1.1-6.3-3.8-8.7-6.5c-3.4-4.2-5.5-9.1-7.2-14.2
				c-1.5-4.6-1.3-9.7,0.4-14.2C191.6,125.7,193.3,122.3,196.7,121z"/>
			<path class="st5" d="M212.5,152.5c1.5,2.1,3.2,4.2,4.9,6.3c3.8,3.8,8.5,6.5,13.7,8.5c5.5,2.1,11.4,1.9,17.1,2.1
				c5.1,0,10.4-0.6,15.6-0.4c5.1,0,10.4,0.8,15.2-0.9c2.5-0.9,4.7-1.7,7-3c1.9-0.9,3.4-2.7,5.3-3.2c0.2,0,0.4,0,0.6-0.2
				c0,2.1,0,4,0,5.9c0,1.7-0.6,3.2-1.3,4.7c0.4,0,0.9,0,1.5,0.2c-0.4,8.5,0.2,17.3-0.2,26c0,1.1-0.2,2.3-0.2,3.2
				c-2.1-0.6-4.2-1.5-6.3-2.1c-4.6-1.5-9.1-3.2-13.7-4.4c-1.3-0.4-2.5-1.1-3.8-1.3c-5.5-0.9-10.6-3.6-16.3-3.8c-3,0-6.3-0.2-9.1,0.9
				c-2.5,0.8-5.1,1.9-7.6,1.1c-2.5-0.9-4.2-3.2-5.3-5.7c-1.1-2.3-2.3-4.4-3.2-6.8c-0.9-2.3-2.7-4.2-4-6.5c-1.1-2.3-2.7-4.4-3.8-6.6
				c-1.5-2.7-2.5-5.7-3.8-8.4C213.6,156.3,212.8,154.4,212.5,152.5z"/>
		</g>
		<g>
			<path class="st5" d="M263.2,90.8c1.1-2.1,2.8-4.4,5.5-4.7c0,0.2,0,0.6,0,0.6c0.2,0,0.4,0.4,0.6,0.4c0-0.4,0.2-0.8,0.2-0.9
				c1.9-0.4,3.8-0.2,5.7,0c-1.9,1.5-3.8,3-5.3,5.1c-1.5,2.3-2.7,4.7-3.2,7.4c-0.2,1.1-0.6,2.7,0.2,3.6c1.1,1.9,2.8,4.2,2.1,6.5
				c-0.4,0.8-1.1,1.7-2.1,1.7c0.2-0.9,1.1-1.5,1.1-2.5c0.2-2.1-1.3-3.6-2.1-5.3c-0.8-1.9-2.5-3.4-3-5.3
				C262.4,95.3,262,92.9,263.2,90.8z"/>
			<path class="st5" d="M290.7,172.1c0.8-1.5,1.1-3,1.3-4.7c0.2,1.5,0.2,3.2,0.2,4.7C291.7,172.1,291.1,172.1,290.7,172.1z"/>
			<path class="st6" d="M279.3,37c3.8-1.5,7.6-3.4,11.6-4.6c-1.3,0.9-3,1.7-4.6,2.5c-2.3,1.1-4.6,2.3-6.8,3.2
				c-3.4,1.3-7,2.1-10.6,2.7c-2.7,0.4-5.5,0.9-8.2,0.6C267,40.3,273.2,39.3,279.3,37z"/>
			<path class="st6" d="M290.7,37c0.6-0.2,0.9-0.4,1.5-0.4c-2.3,2.1-5.1,3-7.8,4.2c-2.5,0.9-5.3,2.1-8,1.5
				C281.2,41,286.2,39.3,290.7,37z"/>
			<path class="st6" d="M230.5,47.5c3-2.7,6.5-5.1,10.4-6.5c0.2,0,0.6,0.2,0.6,0.2c-3.6,1.5-6.8,3.6-9.9,6.3c-2.3,2.1-4,4.7-4.7,7.6
				c-0.4,1.5-0.6,3-1.1,4.4c-0.2-0.9-0.2-1.9,0-2.8C226.3,53.2,228,49.8,230.5,47.5z"/>
			<path class="st6" d="M241.1,46.5c2.7-1.5,5.5-3,8.5-3.6c-0.6,0.4-1.3,0.8-2.1,1.1c-3.2,1.1-6.3,3-9.1,5.1
				c-3.2,2.3-5.7,5.5-7.2,8.9c0.2-2.3,1.3-4.2,2.7-5.9C235.8,49.9,238.5,48.2,241.1,46.5z"/>
			<path class="st6" d="M287.5,47.9c4.4-1.5,8.7-3.2,12.9-5.1c-0.9,1.5-2.7,2.1-4.2,2.8c-2.3,0.9-4.4,2.1-6.8,2.7
				C289,48.2,288.2,48,287.5,47.9z"/>
			<path class="st6" d="M257.1,46.5c3.6-0.6,7.2-0.9,10.8-0.6c-0.6,0.4-1.3,0.6-2.1,0.6c-4.4,0.2-8.5,0.8-12.7,2.1
				c-1.9,0.6-3.4,1.7-5.3,2.5C250.3,48,253.9,47.1,257.1,46.5z"/>
			<path class="st6" d="M210.7,67.6c0.8-0.6,1.5-1.3,2.5-1.1c-0.4,1.1-1.7,1.5-2.5,2.3c-3.6,3.8-5.3,8.7-6.8,13.7
				c-0.9,2.7-1.1,5.3-1.3,8.2c-0.6-4.9,0.9-9.5,2.7-14.1C206.8,73.3,208.3,70.1,210.7,67.6z"/>
			<path class="st6" d="M301.7,66.5c0.6,0.6,1.1,1.1,1.1,2.1c0.9,3.4,1.5,6.8,1.5,10.4c-0.2,4-0.4,8.2-1.1,12.2
				c-0.2,1.1-0.6,2.1-0.9,3c1.1-5.1,1.5-10.3,1.3-15.6C303.8,74.4,302.7,70.5,301.7,66.5z"/>
			<path class="st7" d="M233.9,71.4c2.7-1.7,6.3-1.5,9.3-1.1c-1.7,0.2-3.6,0.2-5.3,0.6C236.8,71,235.3,71.4,233.9,71.4z"/>
			<path class="st6" d="M212.6,72.7c0.6-0.8,1.5-1.5,2.3-1.9c-0.9,1.5-2.1,2.7-2.7,4.2c-2.1,4.4-3.6,8.9-4.6,13.7
				c-0.4,1.9-0.4,3.8-0.4,5.9c-0.8-1.5-0.6-3.4-0.4-5.1c0.6-3.2,1.5-6.5,2.5-9.7C210,77.3,210.9,74.8,212.6,72.7z"/>
			<path class="st6" d="M307.4,71.4c0.8,0.8,1.1,1.9,1.5,3c1.1,4.6,0.9,9.5,0.8,14.2c0,2.3-0.2,4.4-0.6,6.5
				c-0.2,1.1-0.4,2.5-1.3,3.2c1.1-4.2,1.1-8.5,1.1-12.9C308.8,80.7,308.2,76,307.4,71.4z"/>
			<path class="st8" d="M238.9,73.9c2.8-0.6,6.1-0.8,8.7,0.6c2.7,1.7,4.6,4.7,3.8,8c-0.6,0.2-1.3,0-1.9,0c-2.5-0.4-5.1-0.8-7.6-0.9
				c-4.6,0.4-9.1,0.6-13.7,1.9c-3,0.9-5.9,2.7-8.7,4.2c-0.2-1.1,0.6-1.9,0.9-2.7c1.9-3,4.4-5.5,7.6-7
				C231.5,76,235.1,74.4,238.9,73.9z"/>
			<path class="st8" d="M265.8,76.5c1.7-1.3,4.2-1.5,6.3-1.3c6.6,0.8,13.1,3,18.8,6.5c1.5,0.9,2.8,2.1,4.2,3.4c-0.4,0-0.9,0-1.3,0
				c-7-1.3-14.1-3-21.3-3.4c-2.8,0-5.5,0.2-8.4,0.6c-0.6,0-1.1,0-1.5-0.4C263.4,80.1,264.3,78.1,265.8,76.5z"/>
			<path class="st9" d="M229.7,92.1c0.8-0.6,2.1-0.4,2.1,0.8c0.4,1.5,0.6,3.6-0.4,4.9c-0.8,0.9-2.3,0.4-2.5-0.9
				C228.8,95.3,228.2,93.1,229.7,92.1z"/>
			<path class="st6" d="M209,98.6c0.6-2.1,0.8-4.6,2.3-6.3c-1.3,4.7-2.7,9.7-3,14.6C207.7,104.1,208.5,101.2,209,98.6z"/>
			<path class="st6" d="M313.7,91.9c2.1,3.6,0.8,7.8-0.4,11.2c-1.1,3.2-1.7,6.6-3.8,9.3c1.7-4.2,3-8.4,3.8-12.9
				C313.9,97.2,313.7,94.6,313.7,91.9z"/>
			<path class="st9" d="M280.6,93.1c0.9-0.6,2.3,0,2.3,0.9c0,1.5-0.4,3-1.1,4.4c-0.8,0.9-2.7,0.4-2.7-0.9
				C278.9,95.9,279.3,94,280.6,93.1z"/>
			<path class="st10" d="M252.9,99.1c1.5-1.1,3.6-1.3,5.3-0.9c0.6,0,0.9,0.6,1.3,0.9C257.5,98.8,255.2,99.1,252.9,99.1z"/>
			<path class="st6" d="M203,104.5c-0.2-2.1-0.6-4.4,0.4-6.3c0.2,3.8,0.4,7.6,1.1,11.2c0.4,2.5,1.1,4.7,1.3,7.2
				C204.5,112.6,203.5,108.4,203,104.5z"/>
			<path class="st11" d="M225.6,99.7c1.7-0.2,3.4,0,5.1,0.2c1.5,0,3-0.2,4.6-0.2c-2.1,0.9-4.4,0.9-6.6,0.8
				C227.7,100.5,226.5,100.1,225.6,99.7z"/>
			<path class="st12" d="M277.4,100.5c2.7,0.4,5.3,0.4,8,0c-0.4,0.6-0.9,0.9-1.7,0.9c-1.7,0.4-3.6,0.6-5.3,0.2
				C278,101.6,277.6,101,277.4,100.5z"/>
			<path class="st6" d="M306.3,102.9c0.6,0.4,1.1,0.6,1.1,1.1c0.4,3,0,5.9-0.4,8.9c-0.2,0-0.6,0-0.6,0
				C306.7,109.6,306.5,106.4,306.3,102.9z"/>
			<path class="st13" d="M224.2,104.6c2.8-0.2,5.9-0.2,8.7-0.2c-1.7,0.9-3.6,0.9-5.3,0.9C226.5,105.4,225.2,105.6,224.2,104.6z"/>
			<path class="st14" d="M247.8,108.6c0.2-2.5,3.2-3.2,5.1-2.5c0.4,0.6,0.6,1.1,0.8,1.7c-0.6,1.7-2.7,2.3-4.4,2.3
				C248.5,110.2,247.8,109.4,247.8,108.6z"/>
			<path class="st14" d="M260.9,106.7c1.1-0.4,2.5,0,3.6,0.6c0.6,0.4,1.3,1.1,1.1,1.9c-0.2,0.9-1.3,0.9-1.9,0.9
				c-1.1,0-2.7,0-3.6-0.9C259.2,108.3,259.9,106.9,260.9,106.7z"/>
			<path class="st15" d="M277.4,111.3c1.5-1.3,3.6-1.3,5.5-1.1c1.7,0.2,3.4,0.2,4.7,1.3c-1.7,0-3.4-0.4-5.1-0.6
				C281,110.7,279.1,111.1,277.4,111.3z"/>
			<path class="st4" d="M224.6,111.3c3.2-0.4,6.8,0,9.1,2.5c3.2,3.2,2.7,9.1-0.8,12.2c-2.7,2.3-6.3,3.4-9.7,3
				c-2.5-0.4-4.9-1.7-6.5-3.8c-1.3-1.7-1.3-4.4-0.8-6.5c0.8-2.8,3-4.7,5.3-6.3C222.5,111.7,223.7,111.3,224.6,111.3z"/>
			<path class="st4" d="M283.1,114.3c2.5-0.4,4.9,0,7.2,1.1c2.5,1.1,4.4,3.2,4.7,5.9c0.4,4.6-2.7,9.1-7.2,10.3
				c-3.2,0.8-6.5-0.2-9.1-1.9c-2.3-1.5-4-4-4-6.6c0-2.7,1.5-5.1,3.6-6.6C279.9,115.5,281.4,114.5,283.1,114.3z"/>
			<path class="st16" d="M281.4,116.6C281.6,116.8,281.6,116.8,281.4,116.6L281.4,116.6z"/>
			<path class="st5" d="M242.3,120.2c1.9-1.1,3.6-2.3,5.9-2.8c1.5-0.4,3.2,0,4.7,0c1.3,0,2.8-0.4,4.2,0.2c2.3,0.6,4.2,2.1,6.3,3.4
				c2.5,1.7,4.6,4.2,5.9,7c0.6,1.3,0.9,3,1.1,4.4c-0.2-0.2-0.8-0.6-0.9-0.9c-0.2,0-0.4,0.4-0.4,0.4c-5.9-2.5-12.2-3.2-18.4-3.4
				c-4.4,0.2-8.5,0.4-12.7,1.3c-1.3,0.4-2.7,0.4-4.2,0.6c0.8-1.9,2.1-3.6,3.2-5.1C238.3,123.3,240,121.4,242.3,120.2z"/>
			<path class="st17" d="M245.9,122.3c2.5-0.9,5.1-1.3,7.8-1.5c1.1-0.2,2.5,0.2,3.6,0.6c3,1.1,5.9,2.8,8.4,5.3
				c1.5,1.5,2.7,3,3.8,4.7c-4-1.5-8.4-2.3-12.5-2.7c-7-0.8-14.2-0.2-21.1,1.1C238.7,126.7,241.9,124,245.9,122.3z"/>
			<path class="st18" d="M313.1,129.3c0.4-0.6,1.1-0.6,1.7-0.6c-2.5,2.5-4.2,5.7-5.9,8.9c-1.3,2.5-2.7,5.1-3.6,7.8
				c-0.4,1.1-0.8,2.3-1.5,3.2c0.8-4.4,2.8-8.4,4.7-12.3C309.9,133.9,311,131.2,313.1,129.3z"/>
			<path class="st19" d="M247.8,130.7c0.9-0.9,2.5-0.9,3.6-0.9c2.5,0.2,4.7,0.2,7.2,0.9c-1.3,0.2-2.7,0.2-4,0
				C252.3,130.7,250.1,130.9,247.8,130.7z"/>
			<path class="st18" d="M197.3,132.4c2.1,1.3,3.2,3.6,4,5.9c1.5,4.6,3,9.1,3.4,14.1c-0.9-5.3-2.3-10.6-4.6-15.4
				C199.4,135.2,198.2,133.9,197.3,132.4z"/>
			<path class="st5" d="M243.4,134.8c0.8-0.4,1.7-0.6,2.5-0.6c3.6-0.2,7.4-0.4,11,0.2c0.9,0,1.7,0.4,2.5,0.9c-0.9,1.5-1.9,3-2.5,4.7
				c-0.9,0.2-1.7,0.2-2.7,0.2c-2.8-0.2-5.7,0.2-8.5,0.4C245.3,138.6,244.6,136.6,243.4,134.8z"/>
			<path class="st20" d="M243.6,148.3c1.1-0.6,2.1-1.1,3.4-1.1c2.7-0.4,5.5-0.4,8.4,0c0.8,0,1.5,0.4,2.1,0.8c-2.3,0-4.6-0.4-6.8-0.2
				C248.2,147.8,245.9,148.1,243.6,148.3z"/>
			<path class="st7" d="M238.1,212c1.1,4,1.1,8.2,1.1,12.2c0,3.8,0.2,7.8-1.1,11.4c0.2-1.9,0.6-3.6,0.6-5.5c0.2-3.8,0-7.6-0.4-11.4
				C238.3,216.5,237.9,214.2,238.1,212z"/>
			<path class="st21" d="M193.1,244.4c0.6,2.7,0,5.3,0,8c-0.2,5.7,1.9,11,4.4,16c1.5,3.4,3.4,6.8,5.1,10.3c-2.3-3.8-4.4-8-6.3-12
				c-1.9-3.8-3.4-7.8-3.6-12.2C192.3,251.3,192.7,247.9,193.1,244.4z"/>
			<path class="st21" d="M298.3,249.8c0-0.6,0-0.9,0.2-1.5c0.4,0.4,0.8,0.9,0.8,1.5c0.4,3-0.2,5.9-0.9,8.9
				c-0.9,3.6-2.3,7.2-4.6,10.3c-0.2,0.4-0.8,0.6-1.1,0.6c0.9-1.7,2.1-3.6,2.8-5.5C297.4,259.6,298.1,254.7,298.3,249.8z"/>
			<path class="st21" d="M186.6,250c0.2,0,0.6,0.4,0.8,0.4c0.4,1.7,0.4,3.4,0.8,5.1c1.5,6.5,4.4,12.7,7.8,18.4
				c0.6,1.1,1.7,2.3,1.9,3.8c-0.9-0.8-1.5-1.9-2.3-3c-2.7-4-4.9-8.4-6.8-12.7C187.2,258.3,185.9,254.1,186.6,250z"/>
			<path class="st21" d="M278.9,278.6c1.7-1.7,3.2-3.6,4.4-5.9c0.2,0.6,0.4,1.3,0,2.1c-0.9,2.3-2.7,4.2-4.4,5.9
				c-2.5,2.5-4.7,4.9-6.8,7.8c-0.6,0.9-1.1,1.7-2.1,2.3c0-0.4,0-0.9,0.4-1.3C272.7,285.5,275.5,281.7,278.9,278.6z"/>
			<path class="st21" d="M283.9,289.5c0.9-0.9,1.7-1.7,3-1.9c-0.6,1.5-1.7,2.5-2.7,3.6c-1.7,2.1-3.4,4.2-4.9,6.5
				c-0.4,0.6-0.9,1.3-1.7,1.1C279.3,295.3,281.2,292.1,283.9,289.5z"/>
			<path class="st21" d="M245.5,294.2c-1.5,0-3-0.2-4.4-0.8c-0.2,0-0.4-0.2-0.6-0.4c-0.2,0-0.6,0-0.8-0.2c-0.6-0.4-0.9-0.6-1.3-0.9
				l0,0c1.5,1.3,2.8,3,4.4,4.4c0.9,0.9,2.1,1.7,3,2.7l0,0l0,0c0.4-0.2,0.6-0.4,0.9-0.6l0,0c0,0,0,0,0-0.2c1.9-0.6,3-2.5,4.4-3.8
				c0.6-0.6,1.5-1.1,1.5-2.1C250.8,294,248.4,294.2,245.5,294.2z"/>
			<path class="st21" d="M260.1,296.9c0.6-0.8,1.5-1.7,2.5-1.7c-0.6,1.7-1.9,2.8-2.8,4.4c-0.9,1.1-1.3,2.7-1.9,3.8
				c-0.2,0-0.6,0.2-0.8,0.2C257.5,301,258.6,298.8,260.1,296.9z"/>
			<path class="st21" d="M244.4,295.7c0.4-0.4,1.1,0,0.8,0.6C244.9,296.7,244.2,296.1,244.4,295.7z"/>
			<path class="st21" d="M334.4,335c0.2-3.6,0.6-7,1.5-10.4c2.1-8.7,5.3-17.3,9.5-25.3c0.2-0.4,0.4-0.9,0.2-1.3
				c-0.8,0-1.1,0.8-1.5,1.3c-2.5,3.8-4.2,8.2-5.9,12.5c-1.5,4.4-3,8.9-3.8,13.5c-0.6,3-0.6,5.9-0.8,8.9c0,0.4,0,0.6,0,0.8H334.4
				L334.4,335z"/>
			<path class="st21" d="M225,301.2c0.6-0.4,1.1,0,1.7,0c3,1.5,5.7,3.6,8.4,5.7c1.5,1.3,3.4,2.7,3.8,4.7c-1.1-0.4-1.7-1.5-2.8-2.3
				C232.6,306.6,228.8,303.9,225,301.2z"/>
			<path class="st21" d="M340.1,335c0.2-0.9,0.4-1.7,0.6-2.7c1.5-7.8,3.6-15.4,6.8-22.6c0.4-1.1,0.9-2.1,0.9-3.2
				c-0.6,0.4-0.9,0.9-1.3,1.5c-2.3,3.8-3.8,7.8-5.1,12c-1.7,4.9-2.5,9.9-3.2,15L340.1,335L340.1,335z"/>
			<path class="st21" d="M129.8,335h1.1c-0.9-7.8-2.7-15.4-4.6-23.2c-0.4-1.1-0.8-2.3-1.5-3.2c-0.2,0-0.6,0-0.8,0
				c0,1.3,0.6,2.5,0.9,3.6C126.8,319.9,128.5,327.3,129.8,335z"/>
			<path class="st21" d="M134.8,335h1.5c0-0.8-0.2-1.5-0.4-2.3c-0.8-4.2-1.5-8.2-2.7-12.2c-0.8-2.5-1.3-5.1-2.5-7.6
				c-0.2-0.6-0.8-0.8-1.1-1.1c2.1,7.4,4.2,15,5.3,22.8C134.8,334.9,134.8,335,134.8,335z"/>
			<path class="st21" d="M231.6,313.6c0.9-0.2,1.7,0.6,2.5,0.9c2.3,1.5,3.8,3.8,4.4,6.5c0.2,0.6,0.4,1.9-0.6,1.1
				c-0.6-1.1-1.1-2.5-1.9-3.6c-0.9-1.5-2.7-2.5-3.8-3.8C231.6,314.5,231.5,314.2,231.6,313.6z"/>
			<path class="st21" d="M245.5,317.2c0.2-0.2,0.6-0.4,0.8-0.6c1.5,2.7,2.1,5.7,2.8,8.5c0.2,0.9,0.6,2.1,0,3
				c-1.1-1.7-1.3-3.6-1.9-5.5C246.6,321,245.7,319.3,245.5,317.2z"/>
		</g>
	</g>
</g>
</svg>
