<svg version="1.1" id="_x3C_Layer_x3E_" xmlns="http://www.w3.org/2000/svg" x="0" y="0" viewBox="0 0 1550.2 1439.5" xml:space="preserve" enable-background="new 0 0 1550.2 1439.5"><style>.st0{fill:#4e16a5}.st1,.st6{fill:#671cc9}.st6{opacity:.26}.st7{fill:#05c5db}.st12{fill:#292969}.st29{fill:#e3f5ff}.st66{fill:#f1a17f}.st67{fill:#f68987}.st68{fill:#e87979}.st69{fill:#0d1d7e}.st70{fill:#171733}.st72{opacity:.55;fill:#e87979}</style><path class="st0" d="M1386.2 748.3c0-36.9-22.6-69.2-56.5-87.4-18.7-10-28.6-29-24-47.6 1.3-5.2 2-10.6 2-16.1 0-36.7-29.9-67.4-70-75.1-10.6-2-17.7-10.5-16.7-19.8.5-4.1.6-8.1.1-11.4-3.2-21.3-17.2-32.9-37.3-42.3-10.3-4.9-15.4-15.1-12.5-25 1.4-4.8 2.3-9.9 2.4-15.2 1.2-39.2-23.4-55.4-40.4-62.6-8.3-3.6-14.4-10.1-16.9-17.8-6.6-21-29.7-36.1-56.6-34.6-26.3 1.5-47.8 19.3-50.7 41.8 0 .2 0 .4-.1.5-.9 7.7-8.6 13.4-17.6 13-2.9-.1-5.9-.1-9 .1-33.3 2.4-60.1 25.6-62.4 54.3-.4 4.6-.1 9 .7 13.3 1.8 9.9-3.3 19.8-13.2 25.2-18.7 10.2-33.3 25.5-41 43.7-3 7-9.8 12.4-18.2 14.4-37.5 9-65 38.5-65 73.6 0 9.4 2 18.5 5.6 26.8 5.6 12.9-1.6 27.2-16.4 32.5-39.8 14.3-67.8 48-67.8 87.4 0 15.9 4.6 31 12.7 44.1 12.3 19.9 7.7 44.6-11.8 59.7-27.5 21.4-44.8 52.3-44.8 86.7v42.6h736.6v-42.6c0-17.2-12.7-33.6-27.6-48.3-16.3-16-17.4-39.4-3.7-57.1 12.7-16.2 20.1-35.7 20.1-56.8z"/><path class="st0" d="M855.6 832.1c0-42.4-20.5-79.6-51.3-100.5-17-11.5-26-33.4-21.8-54.7 1.2-6 1.8-12.1 1.8-18.5 0-42.2-27.2-77.5-63.6-86.3-9.6-2.3-16.1-12.1-15.2-22.8.4-4.8.6-9.3.1-13.1-2.9-24.5-15.6-37.8-33.8-48.7-9.4-5.6-14-17.4-11.3-28.7 1.3-5.6 2.1-11.4 2.2-17.4 1.1-45.1-21.2-63.6-36.7-72-7.6-4.1-13.1-11.6-15.3-20.5-6-24.1-27-41.5-51.4-39.7-23.9 1.7-43.4 22.2-46 48 0 .2 0 .4-.1.6-.8 8.9-7.8 15.4-16 15-2.7-.1-5.4-.1-8.1.2-30.3 2.7-54.5 29.4-56.7 62.4-.3 5.2-.1 10.4.6 15.3 1.6 11.4-3 22.8-12 28.9-17 11.7-30.2 29.4-37.2 50.3-2.7 8.1-8.9 14.3-16.5 16.6-34 10.3-59 44.3-59 84.6 0 10.9 1.8 21.3 5.1 30.8 5.1 14.8-1.5 31.2-14.9 37.3-36.1 16.4-61.5 55.2-61.5 100.4 0 18.3 4.2 35.6 11.5 50.7 11.1 22.9 7 51.3-10.7 68.7-25 24.6-40.7 60.1-40.7 99.7v48.9h668.8v-48.9c0-19.8-11.5-38.6-25.1-55.6-14.8-18.4-15.8-45.3-3.4-65.6 11.5-18.8 18.2-41.2 18.2-65.4z"/><path class="st1" d="M951.9 855.2c0-37.9-18.3-71.2-45.9-89.9-15.2-10.3-23.2-29.9-19.5-48.9 1-5.3 1.6-10.9 1.6-16.5 0-37.8-24.3-69.3-56.8-77.2-8.6-2.1-14.4-10.8-13.6-20.4.4-4.3.5-8.3.1-11.7-2.6-21.9-13.9-33.8-30.3-43.5-8.4-5-12.5-15.6-10.1-25.7 1.2-5 1.8-10.2 2-15.6 1-40.3-19-56.9-32.8-64.4-6.8-3.7-11.7-10.4-13.7-18.3-5.4-21.5-24.1-37.1-45.9-35.5-21.3 1.5-38.9 19.8-41.1 42.9 0 .2 0 .4-.1.5-.7 7.9-7 13.8-14.3 13.4-2.4-.1-4.8-.1-7.3.1-27.1 2.4-48.8 26.3-50.7 55.8-.3 4.7-.1 9.3.5 13.7 1.5 10.2-2.7 20.4-10.7 25.9-15.2 10.5-27 26.2-33.3 45-2.4 7.2-8 12.7-14.8 14.8-30.4 9.2-52.8 39.6-52.8 75.6 0 9.7 1.6 19 4.6 27.6 4.6 13.3-1.3 27.9-13.3 33.4-32.3 14.7-55 49.3-55 89.8 0 16.4 3.7 31.8 10.3 45.4 10 20.5 6.3 45.8-9.6 61.4-22.3 22-36.4 53.8-36.4 89.1v43.8h598.1V1022c0-17.7-10.3-34.6-22.4-49.7-13.2-16.5-14.1-40.5-3-58.7 10.2-16.7 16.2-36.8 16.2-58.4z"/><path class="st1" d="M297.2 932.2c9.4 15.3 8.6 35.6-2.5 49.4-10.2 12.8-18.9 26.9-18.9 41.9v36.9h503.7v-36.9c0-29.8-11.8-56.6-30.6-75.1-13.3-13.1-16.5-34.4-8.1-51.7 5.5-11.4 8.7-24.4 8.7-38.2 0-34.1-19.1-63.3-46.3-75.6-10.1-4.6-15.1-16.9-11.2-28.1 2.5-7.2 3.9-15.1 3.9-23.2 0-30.4-18.8-56-44.5-63.7-5.7-1.7-10.4-6.4-12.4-12.5-5.2-15.8-15.2-29.1-28-37.9-6.8-4.6-10.2-13.2-9-21.8.5-3.7.7-7.6.5-11.5-1.6-24.8-19.9-45-42.7-47-2.1-.2-4.1-.2-6.1-.1-6.2.3-11.4-4.6-12-11.3v-.5c-1.9-19.5-16.7-34.9-34.7-36.2-18.4-1.3-34.1 11.8-38.7 29.9-1.7 6.7-5.8 12.3-11.5 15.4-11.7 6.3-28.5 20.3-27.6 54.2.1 4.5.7 8.9 1.7 13.1 2 8.5-1.5 17.4-8.5 21.6-13.7 8.2-23.3 18.3-25.5 36.7-.3 2.8-.2 6.2.1 9.8.7 8.1-4.2 15.4-11.4 17.2-27.4 6.6-47.9 33.2-47.9 65 0 4.8.5 9.4 1.3 13.9 3.1 16.1-3.6 32.5-16.4 41.2-23.2 15.7-38.6 43.7-38.6 75.7-.4 18.3 4.6 35.3 13.2 49.4z" opacity=".4"/><path class="st1" d="M665.4 758c-13.5 31.1-6.8 43.3-4.1 77.1s-17.6 40.6-27.1 69-2.7 41.9-5.4 77.1c-2.7 35.2-13.5 37.9-23 70.3-9.5 32.5 0 77.1 6.8 138 4.2 37.7-5.6 107.4-13.7 155.1H474.8c9.6-90.2 23-235.3 14.8-267.4-12.2-47.3 6.8-125.8 18.9-150.1 12.2-24.3 14.9-54.1 12.2-75.7-2.7-21.6 9.5-29.8 24.3-46 14.9-16.2 14.9-51.4 21.6-81.2 6.8-29.8 36.5-41.9 40.6-67.6 4.1-25.7 68.3-73.7 86.6-53.4 19.9 22.1-18.3 48.7-22.3 73-4 24.4 7.5 50.7-6.1 81.8z"/><defs><filter id="Adobe_OpacityMaskFilter" filterUnits="userSpaceOnUse" x="517.6" y="603.2" width="182" height="741.5"><feFlood result="back" flood-color="#fff" flood-opacity="1"/><feBlend in="SourceGraphic" in2="back"/></filter></defs><mask maskUnits="userSpaceOnUse" x="517.6" y="603.2" width="182" height="741.5" id="SVGID_1_"><g filter="url(#Adobe_OpacityMaskFilter)"><defs><filter id="Adobe_OpacityMaskFilter_1_" filterUnits="userSpaceOnUse" x="517.6" y="603.2" width="182" height="741.5"><feFlood result="back" flood-color="#fff" flood-opacity="1"/><feBlend in="SourceGraphic" in2="back"/></filter></defs><linearGradient id="SVGID_2_" gradientUnits="userSpaceOnUse" x1="5243.756" y1="941.755" x2="5559.95" y2="1048.852" gradientTransform="matrix(-1 0 0 1 5985.152 0)"><stop offset="0" stop-color="#fff"/><stop offset="1"/></linearGradient><path d="M665.4 758c-13.5 31.1-6.8 43.3-4.1 77.1s-17.6 40.6-27.1 69-2.7 41.9-5.4 77.1c-2.7 35.2-13.5 37.9-23 70.3-9.5 32.5 0 77.1 6.8 138 4.2 37.7-5.6 107.4-13.7 155.1h-79.2c5.2-51.5 9.6-107.7 7.7-135.9-4.1-59.9-18.3-89.3-3-128.8 15.2-39.6 40.6-36.5 33.5-90.3-7.1-53.8-6.1-89.3 30.4-127.8 36.5-38.6 12.2-77.1 14.2-108.6 2-31.4 29.4-38.6 34.5-70 5.1-31.4 6.1-39.6 56.8-80.1 19.9 22.1-18.3 48.7-22.3 73-4 24.5 7.5 50.8-6.1 81.9z" mask="url(#SVGID_1_)" fill="url(#SVGID_2_)"/></g></mask><path class="st6" d="M665.4 758c-13.5 31.1-6.8 43.3-4.1 77.1s-17.6 40.6-27.1 69-2.7 41.9-5.4 77.1c-2.7 35.2-13.5 37.9-23 70.3-9.5 32.5 0 77.1 6.8 138 4.2 37.7-5.6 107.4-13.7 155.1h-79.2c5.2-51.5 9.6-107.7 7.7-135.9-4.1-59.9-18.3-89.3-3-128.8 15.2-39.6 40.6-36.5 33.5-90.3-7.1-53.8-6.1-89.3 30.4-127.8 36.5-38.6 12.2-77.1 14.2-108.6 2-31.4 29.4-38.6 34.5-70 5.1-31.4 6.1-39.6 56.8-80.1 19.9 22.1-18.3 48.7-22.3 73-4 24.5 7.5 50.8-6.1 81.9z"/><path class="st7" d="M431.1 1344.7c-38.7-89.5-65.2-238.4-61.9-278.9 4.1-50.7-27.4-139-42.6-180.6-15.2-41.6-7.1-78.1-7.1-104.5 0-26.4-28.4-42.6-40.6-75.1-12.2-32.5 11.2-54.8 11.2-83.2 0-28.4-8.1-90.3 0-90.3 0 0 33.5 24.3 52.8 52.8 19.3 28.4 14.2 73 37.5 91.3 23.3 18.3 36.5 34.5 41.6 73 5.1 38.6 16.2 39.6 35.5 83.2s-7.1 79.1 3 126.8 32.5 43.6 69 126.8c25.9 59 18.1 188.4 11.4 258.6H431.1z"/><defs><filter id="Adobe_OpacityMaskFilter_2_" filterUnits="userSpaceOnUse" x="275.4" y="532.1" width="228.6" height="812.5"><feFlood result="back" flood-color="#fff" flood-opacity="1"/><feBlend in="SourceGraphic" in2="back"/></filter></defs><mask maskUnits="userSpaceOnUse" x="275.4" y="532.1" width="228.6" height="812.5" id="SVGID_3_"><g filter="url(#Adobe_OpacityMaskFilter_2_)"><defs><filter id="Adobe_OpacityMaskFilter_3_" filterUnits="userSpaceOnUse" x="275.4" y="532.1" width="228.6" height="812.5"><feFlood result="back" flood-color="#fff" flood-opacity="1"/><feBlend in="SourceGraphic" in2="back"/></filter></defs><linearGradient id="SVGID_4_" gradientUnits="userSpaceOnUse" x1="5571.863" y1="932.864" x2="5680.792" y2="969.759" gradientTransform="matrix(-1 0 0 1 5985.152 0)"><stop offset="0" stop-color="#fff"/><stop offset="1"/></linearGradient><path d="M431.1 1344.7c-38.7-89.5-65.2-238.4-61.9-278.9 4.1-50.7-27.4-139-42.6-180.6-15.2-41.6-7.1-78.1-7.1-104.5 0-26.4-28.4-42.6-40.6-75.1-12.2-32.5 11.2-54.8 11.2-83.2 0-28.4-8.1-90.3 0-90.3 9.1 50.7 38.6 53.8 39.6 92.3 1 38.6-19.3 56.8 15.2 87.2 34.5 30.4 26.4 40.6 35.5 98.4 9.1 57.8 53.1 65.5 45 119.6-9.4 63-1.1 121.8 29.9 165.2 37.7 52.8 24.2 143.3 44.1 204.6-.6 18.2 1.3 33 4.6 45.1h-72.9z" mask="url(#SVGID_3_)" fill="url(#SVGID_4_)"/></g></mask><linearGradient id="SVGID_5_" gradientUnits="userSpaceOnUse" x1="5571.863" y1="932.864" x2="5680.792" y2="969.759" gradientTransform="matrix(-1 0 0 1 5985.152 0)"><stop offset="0" stop-color="#246afc"/><stop offset="1" stop-color="#5f48dc"/></linearGradient><path d="M431.1 1344.7c-38.7-89.5-65.2-238.4-61.9-278.9 4.1-50.7-27.4-139-42.6-180.6-15.2-41.6-7.1-78.1-7.1-104.5 0-26.4-28.4-42.6-40.6-75.1-12.2-32.5 11.2-54.8 11.2-83.2 0-28.4-8.1-90.3 0-90.3 9.1 50.7 38.6 53.8 39.6 92.3 1 38.6-19.3 56.8 15.2 87.2 34.5 30.4 26.4 40.6 35.5 98.4 9.1 57.8 53.1 65.5 45 119.6-9.4 63-1.1 121.8 29.9 165.2 37.7 52.8 24.2 143.3 44.1 204.6-.6 18.2 1.3 33 4.6 45.1h-72.9z" opacity=".26" fill="url(#SVGID_5_)"/><path class="st12" d="M9.1 594c16.2-2 52.8 29.4 69 49.7C94.3 664 138 667 156.2 698.5c18.3 31.4 5.1 58.8 52.8 84.2 47.7 25.4 75.6 55.4 112.6 113.6 28.4 44.6 63.9 129.9 69 179.6 5.1 49.7 32.5 98.4 65.9 149.1 18.5 28.1 25.5 79.4 28.1 119.6H405c-20.2-26.6-53.8-56-61.1-81.1-10.1-34.5-4.1-90.3-26.4-123.8-22.3-33.5-86.2-86.2-88.3-121.7-2-35.5-41.6-76.1-73-95.4-31.4-19.3-34.5-79.1-52.8-107.5-18.3-28.4-57.8-40.6-59.9-73-2-32.5-7.1-57.8-25.4-75.1-18.2-17.2-25.3-70.9-9-73z"/><defs><filter id="Adobe_OpacityMaskFilter_4_" filterUnits="userSpaceOnUse" x="0" y="594" width="406.2" height="750.7"><feFlood result="back" flood-color="#fff" flood-opacity="1"/><feBlend in="SourceGraphic" in2="back"/></filter></defs><mask maskUnits="userSpaceOnUse" x="0" y="594" width="406.2" height="750.7" id="SVGID_6_"><g filter="url(#Adobe_OpacityMaskFilter_4_)"><defs><filter id="Adobe_OpacityMaskFilter_5_" filterUnits="userSpaceOnUse" x="0" y="594" width="406.2" height="750.7"><feFlood result="back" flood-color="#fff" flood-opacity="1"/><feBlend in="SourceGraphic" in2="back"/></filter></defs><linearGradient id="SVGID_7_" gradientUnits="userSpaceOnUse" x1="5730.603" y1="953.465" x2="5858.335" y2="996.729" gradientTransform="matrix(-1 0 0 1 5985.152 0)"><stop offset="0" stop-color="#fff"/><stop offset="1"/></linearGradient><path d="M4.7 596.3l4.4-2.3c18.3 44.6 48.7 56.8 61.9 89.3 13.2 32.5 41.6 28.4 61.9 77.1 20.3 48.7 87.2 70 115.7 137 28.4 67 65.9 117.7 94.3 257.7 12.9 63.4 38.8 132.7 63.4 189.6H405c-20.2-26.6-53.8-56-61.1-81.1-10.1-34.5-4.1-90.3-26.4-123.8-22.3-33.5-86.2-86.2-88.3-121.7-2-35.5-41.6-76.1-73-95.4-31.4-19.3-34.5-79.1-52.8-107.5-18.3-28.4-57.8-40.6-59.9-73-2-32.5-7.1-57.8-25.4-75.1C1.9 651.6-5.5 607 4.7 596.3z" mask="url(#SVGID_6_)" fill="url(#SVGID_7_)"/></g></mask><linearGradient id="SVGID_8_" gradientUnits="userSpaceOnUse" x1="5730.603" y1="953.465" x2="5858.335" y2="996.729" gradientTransform="matrix(-1 0 0 1 5985.152 0)"><stop offset="0" stop-color="#246afc"/><stop offset="1" stop-color="#5f48dc"/></linearGradient><path d="M4.7 596.3l4.4-2.3c18.3 44.6 48.7 56.8 61.9 89.3 13.2 32.5 41.6 28.4 61.9 77.1 20.3 48.7 87.2 70 115.7 137 28.4 67 65.9 117.7 94.3 257.7 12.9 63.4 38.8 132.7 63.4 189.6H405c-20.2-26.6-53.8-56-61.1-81.1-10.1-34.5-4.1-90.3-26.4-123.8-22.3-33.5-86.2-86.2-88.3-121.7-2-35.5-41.6-76.1-73-95.4-31.4-19.3-34.5-79.1-52.8-107.5-18.3-28.4-57.8-40.6-59.9-73-2-32.5-7.1-57.8-25.4-75.1C1.9 651.6-5.5 607 4.7 596.3z" opacity=".26" fill="url(#SVGID_8_)"/><path d="M354.7 1344.7c-17.2-36.6-29.1-78.7-29.1-104.4 0-42.6-3-99.4-18.3-120.7-15.2-21.3-20.3-46.7-16.2-64.9 4.1-18.3-4.1-43.6-9.1-67-5.1-23.3 1-38.6 1-38.6 7.1 15.2 13.2 16.2 27.4 35.5s8.1 28.4 28.4 58.8c20.3 30.4 38.6 61.9 45.7 99.4 7.1 37.5 35.5 77.1 59.9 112.6 17.1 25 28.1 56.1 34.6 89.2H354.7z" fill="#3d6acc"/><defs><filter id="Adobe_OpacityMaskFilter_6_" filterUnits="userSpaceOnUse" x="279.9" y="949.1" width="152" height="395.6"><feFlood result="back" flood-color="#fff" flood-opacity="1"/><feBlend in="SourceGraphic" in2="back"/></filter></defs><mask maskUnits="userSpaceOnUse" x="279.9" y="949.1" width="152" height="395.6" id="SVGID_9_"><g filter="url(#Adobe_OpacityMaskFilter_6_)"><defs><filter id="Adobe_OpacityMaskFilter_7_" filterUnits="userSpaceOnUse" x="279.9" y="949.1" width="152" height="395.6"><feFlood result="back" flood-color="#fff" flood-opacity="1"/><feBlend in="SourceGraphic" in2="back"/></filter></defs><linearGradient id="SVGID_10_" gradientUnits="userSpaceOnUse" x1="5628.578" y1="1147.199" x2="5691.477" y2="1168.503" gradientTransform="matrix(-1 0 0 1 5985.152 0)"><stop offset="0" stop-color="#fff"/><stop offset="1"/></linearGradient><path d="M354.7 1344.7c-17.2-36.6-29.1-78.7-29.1-104.4 0-42.6-3-99.4-18.3-120.7-15.2-21.3-20.3-46.7-16.2-64.9 4.1-18.3-4.1-43.6-9.1-67-5.1-23.3 1-38.6 1-38.6 5.7 50.4 24.7 45.7 28.1 75.4 3.4 29.8 3.4 50 18.3 70.3 14.9 20.3 13.5 46.7 33.8 95.4 20.3 48.7 57.5 94 64.2 127.1 1.4 6.7 2.9 16.3 4.6 27.3h-77.3z" mask="url(#SVGID_9_)" fill="url(#SVGID_10_)"/></g></mask><linearGradient id="SVGID_11_" gradientUnits="userSpaceOnUse" x1="5628.578" y1="1147.199" x2="5691.477" y2="1168.503" gradientTransform="matrix(-1 0 0 1 5985.152 0)"><stop offset="0" stop-color="#0d1d7e"/><stop offset="1" stop-color="#afebf2"/></linearGradient><path d="M354.7 1344.7c-17.2-36.6-29.1-78.7-29.1-104.4 0-42.6-3-99.4-18.3-120.7-15.2-21.3-20.3-46.7-16.2-64.9 4.1-18.3-4.1-43.6-9.1-67-5.1-23.3 1-38.6 1-38.6 5.7 50.4 24.7 45.7 28.1 75.4 3.4 29.8 3.4 50 18.3 70.3 14.9 20.3 13.5 46.7 33.8 95.4 20.3 48.7 57.5 94 64.2 127.1 1.4 6.7 2.9 16.3 4.6 27.3h-77.3z" opacity=".14" fill="url(#SVGID_11_)"/><path class="st1" d="M139.9 979.5c8.1 18.3 34.5 30.4 74.1 47.7 39.6 17.2 58.7 29 94.3 85.2 19.3 30.4 42.6 79.1 58.8 149.1 7.4 32 17 61 25.1 83.1h-76.9v-6c0-48.7-68-103.5-84.2-146.1-16.2-42.6-45.7-88.3-68-106.5-22.3-18.3-51.7-67-54.8-95.4-3-28.4-15.2-49.7-15.2-49.7 16.4 5.2 38.7 20.4 46.8 38.6z"/><defs><filter id="Adobe_OpacityMaskFilter_8_" filterUnits="userSpaceOnUse" x="93.3" y="941" width="260.6" height="403.7"><feFlood result="back" flood-color="#fff" flood-opacity="1"/><feBlend in="SourceGraphic" in2="back"/></filter></defs><mask maskUnits="userSpaceOnUse" x="93.3" y="941" width="260.6" height="403.7" id="SVGID_12_"><g filter="url(#Adobe_OpacityMaskFilter_8_)"><defs><filter id="Adobe_OpacityMaskFilter_9_" filterUnits="userSpaceOnUse" x="93.3" y="941" width="260.6" height="403.7"><feFlood result="back" flood-color="#fff" flood-opacity="1"/><feBlend in="SourceGraphic" in2="back"/></filter></defs><linearGradient id="SVGID_13_" gradientUnits="userSpaceOnUse" x1="5717.84" y1="1128.024" x2="5818.562" y2="1162.139" gradientTransform="matrix(-1 0 0 1 5985.152 0)"><stop offset="0" stop-color="#fff"/><stop offset="1"/></linearGradient><path d="M139.9 1022.1c16.2 30.4 42.6 16.2 89.3 58.8 46.7 42.6 24.3 46.7 65.9 110.6 41.6 63.9 48.7 89.3 55.8 138 .7 4.5 1.7 9.6 2.9 15.1h-38.4v-6c0-48.7-68-103.5-84.2-146.1-16.2-42.6-45.7-88.3-68-106.5-22.3-18.3-51.7-67-54.8-95.4-3-28.4-15.2-49.7-15.2-49.7 33.5 38.6 30.5 50.8 46.7 81.2z" mask="url(#SVGID_12_)" fill="url(#SVGID_13_)"/></g></mask><path class="st6" d="M139.9 1022.1c16.2 30.4 42.6 16.2 89.3 58.8 46.7 42.6 24.3 46.7 65.9 110.6 41.6 63.9 48.7 89.3 55.8 138 .7 4.5 1.7 9.6 2.9 15.1h-38.4v-6c0-48.7-68-103.5-84.2-146.1-16.2-42.6-45.7-88.3-68-106.5-22.3-18.3-51.7-67-54.8-95.4-3-28.4-15.2-49.7-15.2-49.7 33.5 38.6 30.5 50.8 46.7 81.2z"/><path class="st1" d="M1375.8 770.2c-16.1 30.5-8.1 42.4-4.8 75.5 3.2 33.1-21 39.7-32.3 67.6-11.3 27.8-3.2 41.1-6.5 75.5-3.2 34.4-16.1 37.1-27.4 68.9-11.3 31.8 0 75.5 8.1 135.1 5 36.9-6.7 105.2-16.3 151.9h-148.1c11.4-88.4 27.5-230.5 17.6-261.9-14.5-46.4 8.1-123.2 22.6-147 14.5-23.8 17.7-53 14.5-74.2-3.2-21.2 11.3-29.1 29-45 17.7-15.9 17.7-50.3 25.8-79.5 8.1-29.1 46.1-40.7 48.4-66.2 3.9-44.5 56.1-85 84.9-85 23.7 21.6-3.4 80.3-8.2 104.2-4.9 23.8 8.8 49.6-7.3 80.1z"/><defs><filter id="Adobe_OpacityMaskFilter_10_" filterUnits="userSpaceOnUse" x="1199.4" y="585.9" width="201.4" height="758.8"><feFlood result="back" flood-color="#fff" flood-opacity="1"/><feBlend in="SourceGraphic" in2="back"/></filter></defs><mask maskUnits="userSpaceOnUse" x="1199.4" y="585.9" width="201.4" height="758.8" id="SVGID_14_"><g filter="url(#Adobe_OpacityMaskFilter_10_)"><defs><filter id="Adobe_OpacityMaskFilter_11_" filterUnits="userSpaceOnUse" x="1199.4" y="585.9" width="201.4" height="758.8"><feFlood result="back" flood-color="#fff" flood-opacity="1"/><feBlend in="SourceGraphic" in2="back"/></filter></defs><linearGradient id="SVGID_15_" gradientUnits="userSpaceOnUse" x1="4545.732" y1="932.936" x2="4878.447" y2="1045.63" gradientTransform="matrix(-1 0 0 1 5985.152 0)"><stop offset="0" stop-color="#fff"/><stop offset="1"/></linearGradient><path d="M1375.8 770.2c-16.1 30.5-8.1 42.4-4.8 75.5 3.2 33.1-21 39.7-32.3 67.6-11.3 27.8-3.2 41.1-6.5 75.5-3.2 34.4-16.1 37.1-27.4 68.9-11.3 31.8 0 75.5 8.1 135.1 5 36.9-6.7 105.2-16.3 151.9h-94.4c6.2-50.4 11.4-105.4 9.1-133.1-4.8-58.6-21.8-87.4-3.6-126.2 18.1-38.7 48.4-35.8 39.9-88.4-8.5-52.7-7.3-87.4 36.3-125.2 43.5-37.8 14.5-75.5 16.9-106.3 2.4-30.8 35.1-37.8 41.1-68.5 6-30.8 2.6-68.9 49.4-111.1 23.7 21.6-3.4 80.3-8.2 104.2-4.9 23.8 8.8 49.6-7.3 80.1z" mask="url(#SVGID_14_)" fill="url(#SVGID_15_)"/></g></mask><linearGradient id="SVGID_16_" gradientUnits="userSpaceOnUse" x1="4545.732" y1="932.936" x2="4878.447" y2="1045.63" gradientTransform="matrix(-1 0 0 1 5985.152 0)"><stop offset="0" stop-color="#246afc"/><stop offset="1" stop-color="#5f48dc"/></linearGradient><path d="M1375.8 770.2c-16.1 30.5-8.1 42.4-4.8 75.5 3.2 33.1-21 39.7-32.3 67.6-11.3 27.8-3.2 41.1-6.5 75.5-3.2 34.4-16.1 37.1-27.4 68.9-11.3 31.8 0 75.5 8.1 135.1 5 36.9-6.7 105.2-16.3 151.9h-94.4c6.2-50.4 11.4-105.4 9.1-133.1-4.8-58.6-21.8-87.4-3.6-126.2 18.1-38.7 48.4-35.8 39.9-88.4-8.5-52.7-7.3-87.4 36.3-125.2 43.5-37.8 14.5-75.5 16.9-106.3 2.4-30.8 35.1-37.8 41.1-68.5 6-30.8 2.6-68.9 49.4-111.1 23.7 21.6-3.4 80.3-8.2 104.2-4.9 23.8 8.8 49.6-7.3 80.1z" opacity=".26" fill="url(#SVGID_16_)"/><path class="st29" d="M1196.1 1344.5c18-72.9 15.6-194.2 6.1-227.2-11.9-41.3.1-113.2 6.1-147.1 6-33.9-7-63.6-11.4-85.1-4.4-21.5 17.1-34.7 22-61.2 4.9-26.4-18.6-44.6-23.4-67.7-4.7-23.1-8.2-73.5-15.1-73.5 0 0-24.4 19.9-36.1 43-11.7 23.2.1 59.5-16.7 74.4-16.8 14.9-25.3 28.1-23.2 59.5 2.1 31.4-7.2 32.2-16.3 67.8-9.1 35.5 19.2 64.4 18.6 103.2-.7 38.8-20.3 35.6-37.5 103.3-12.2 48.1 16 153.4 33.4 210.6h93.5z"/><defs><filter id="Adobe_OpacityMaskFilter_12_" filterUnits="userSpaceOnUse" x="1124.1" y="682.8" width="95.5" height="661.8"><feFlood result="back" flood-color="#fff" flood-opacity="1"/><feBlend in="SourceGraphic" in2="back"/></filter></defs><mask maskUnits="userSpaceOnUse" x="1124.1" y="682.8" width="95.5" height="661.8" id="SVGID_17_"><g filter="url(#Adobe_OpacityMaskFilter_12_)"><defs><filter id="Adobe_OpacityMaskFilter_13_" filterUnits="userSpaceOnUse" x="1124.1" y="682.8" width="95.5" height="661.8"><feFlood result="back" flood-color="#fff" flood-opacity="1"/><feBlend in="SourceGraphic" in2="back"/></filter></defs><linearGradient id="SVGID_18_" gradientUnits="userSpaceOnUse" x1="-561.151" y1="1036.253" x2="-470.776" y2="1066.864" gradientTransform="matrix(1.0252 -.0018 .2011 .9813 1509.43 -8.658)"><stop offset="0" stop-color="#fff"/><stop offset="1"/></linearGradient><path d="M1196.1 1344.5c18-72.9 15.6-194.2 6.1-227.2-11.9-41.3.1-113.2 6.1-147.1 6-33.9-7-63.6-11.4-85.1-4.4-21.5 17.1-34.7 22-61.2 4.9-26.4-18.6-44.6-23.4-67.7-4.7-23.1-8.2-73.5-15.1-73.5.7 41.3-23.8 43.8-18.2 75.2 5.6 31.4 25.9 46.2 1.6 71.1-24.3 24.8-15.7 33.1-13.8 80.2 1.9 47.1-34.3 53.4-18.3 97.4 18.5 51.2 21.2 99.2 2.1 134.6-23.2 43.1 3.3 116.7-3.3 166.6 3.5 14.8 4.4 26.9 3.6 36.8l62-.1z" mask="url(#SVGID_17_)" fill="url(#SVGID_18_)"/></g></mask><linearGradient id="SVGID_19_" gradientUnits="userSpaceOnUse" x1="-561.151" y1="1036.253" x2="-470.776" y2="1066.864" gradientTransform="matrix(1.0252 -.0018 .2011 .9813 1509.43 -8.658)"><stop offset="0" stop-color="#246afc"/><stop offset="1" stop-color="#5f48dc"/></linearGradient><path d="M1196.1 1344.5c18-72.9 15.6-194.2 6.1-227.2-11.9-41.3.1-113.2 6.1-147.1 6-33.9-7-63.6-11.4-85.1-4.4-21.5 17.1-34.7 22-61.2 4.9-26.4-18.6-44.6-23.4-67.7-4.7-23.1-8.2-73.5-15.1-73.5.7 41.3-23.8 43.8-18.2 75.2 5.6 31.4 25.9 46.2 1.6 71.1-24.3 24.8-15.7 33.1-13.8 80.2 1.9 47.1-34.3 53.4-18.3 97.4 18.5 51.2 21.2 99.2 2.1 134.6-23.2 43.1 3.3 116.7-3.3 166.6 3.5 14.8 4.4 26.9 3.6 36.8l62-.1z" opacity=".26" fill="url(#SVGID_19_)"/><path class="st7" d="M1538.3 721.9c-11.8-1.7-38.4 24.4-50.2 41.2-11.8 16.8-43.5 19.4-56.8 45.4-13.3 26.1-3.7 48.8-38.4 69.9-34.7 21-55 46-81.9 94.3-20.7 37-46.5 107.7-50.2 149-3.7 41.2-23.6 81.6-48 123.7-13.5 23.3-18.6 65.8-20.5 99.3h57.9c14.7-22.1 39.1-46.5 44.5-67.3 7.4-28.6 3-74.9 19.2-102.7 16.2-27.8 62.7-71.5 64.2-101s30.3-63.1 53.1-79.1c22.9-16 25.1-65.6 38.4-89.2 13.3-23.6 42.1-33.7 43.5-60.6 1.5-26.9 5.2-48 18.4-62.3 13.4-14.3 18.6-58.9 6.8-60.6z"/><defs><filter id="Adobe_OpacityMaskFilter_14_" filterUnits="userSpaceOnUse" x="1218.4" y="721.9" width="326.5" height="622.7"><feFlood result="back" flood-color="#fff" flood-opacity="1"/><feBlend in="SourceGraphic" in2="back"/></filter></defs><mask maskUnits="userSpaceOnUse" x="1218.4" y="721.9" width="326.5" height="622.7" id="SVGID_20_"><g filter="url(#Adobe_OpacityMaskFilter_14_)"><defs><filter id="Adobe_OpacityMaskFilter_15_" filterUnits="userSpaceOnUse" x="1218.4" y="721.9" width="326.5" height="622.7"><feFlood result="back" flood-color="#fff" flood-opacity="1"/><feBlend in="SourceGraphic" in2="back"/></filter></defs><linearGradient id="SVGID_21_" gradientUnits="userSpaceOnUse" x1="-413.197" y1="1014.633" x2="-276.051" y2="1061.085" gradientTransform="matrix(.8768 0 0 1 1692.698 -.002)"><stop offset="0" stop-color="#fff"/><stop offset="1"/></linearGradient><path d="M1541.5 723.8l-3.2-1.9c-13.3 37-35.4 47.1-45 74.1-9.6 26.9-30.3 23.6-45 64-14.8 40.4-73.2 55.4-84.1 113.6-12.9 68.5-80.1 59.7-77.6 188.1 1.1 56.1-38.8 61.3-58.3 110.1-13.3 33.4-9.2 72.8-9.2 72.8h31.3c14.7-22.1 39.1-46.4 44.5-67.2 7.4-28.6 3-74.9 19.2-102.7 16.2-27.8 62.7-71.5 64.2-101s30.3-63.1 53.1-79.1c22.9-16 25.1-65.6 38.4-89.2 13.3-23.6 42.1-33.7 43.5-60.6 1.5-26.9 5.2-48 18.4-62.3 11.8-12.8 17.2-49.8 9.8-58.7z" mask="url(#SVGID_20_)" fill="url(#SVGID_21_)"/></g></mask><linearGradient id="SVGID_22_" gradientUnits="userSpaceOnUse" x1="-413.197" y1="1014.633" x2="-276.051" y2="1061.085" gradientTransform="matrix(.8768 0 0 1 1692.698 -.002)"><stop offset="0" stop-color="#246afc"/><stop offset="1" stop-color="#5f48dc"/></linearGradient><path d="M1541.5 723.8l-3.2-1.9c-13.3 37-35.4 47.1-45 74.1-9.6 26.9-30.3 23.6-45 64-14.8 40.4-73.2 55.4-84.1 113.6-12.9 68.5-80.1 59.7-77.6 188.1 1.1 56.1-38.8 61.3-58.3 110.1-13.3 33.4-9.2 72.8-9.2 72.8h31.3c14.7-22.1 39.1-46.4 44.5-67.2 7.4-28.6 3-74.9 19.2-102.7 16.2-27.8 62.7-71.5 64.2-101s30.3-63.1 53.1-79.1c22.9-16 25.1-65.6 38.4-89.2 13.3-23.6 42.1-33.7 43.5-60.6 1.5-26.9 5.2-48 18.4-62.3 11.8-12.8 17.2-49.8 9.8-58.7z" opacity=".26" fill="url(#SVGID_22_)"/><path class="st1" d="M1483 1344.7c15.5-30.4 26.2-65.3 26.2-86.6 0-35.4 2.7-82.5 16.4-100.2 13.7-17.7 18.2-38.7 14.6-53.9-3.6-15.2 3.6-36.2 8.2-55.5 4.6-19.4-.9-32-.9-32-6.4 12.6-11.9 13.5-24.6 29.5-12.8 16-7.3 23.6-25.5 48.8-18.2 25.3-34.7 51.3-41 82.5-6.4 31.1-31.9 64-53.8 93.4-15.4 20.7-25.3 46.5-31.1 74H1483z"/><defs><filter id="Adobe_OpacityMaskFilter_16_" filterUnits="userSpaceOnUse" x="1413.6" y="1016.5" width="136.6" height="328.2"><feFlood result="back" flood-color="#fff" flood-opacity="1"/><feBlend in="SourceGraphic" in2="back"/></filter></defs><mask maskUnits="userSpaceOnUse" x="1413.6" y="1016.5" width="136.6" height="328.2" id="SVGID_23_"><g filter="url(#Adobe_OpacityMaskFilter_16_)"><defs><filter id="Adobe_OpacityMaskFilter_17_" filterUnits="userSpaceOnUse" x="1413.6" y="1016.5" width="136.6" height="328.2"><feFlood result="back" flood-color="#fff" flood-opacity="1"/><feBlend in="SourceGraphic" in2="back"/></filter></defs><linearGradient id="SVGID_24_" gradientUnits="userSpaceOnUse" x1="242.927" y1="1180.845" x2="295.108" y2="1198.519" gradientTransform="matrix(1.0835 0 0 1 1218.146 -.003)"><stop offset="0" stop-color="#fff"/><stop offset="1"/></linearGradient><path d="M1483 1344.7c15.5-30.4 26.2-65.3 26.2-86.6 0-35.4 2.7-82.5 16.4-100.2 13.7-17.7 18.2-38.7 14.6-53.9-3.6-15.2 3.6-36.2 8.2-55.5 4.6-19.4-.9-32-.9-32-5.2 41.8-22.2 37.9-25.2 62.6-3 24.7-3 41.5-16.4 58.4-13.4 16.8-12.2 38.7-30.4 79.1-18.2 40.4-51.7 78-57.8 105.5-1.2 5.5-2.6 13.5-4.1 22.7h69.4z" mask="url(#SVGID_23_)" fill="url(#SVGID_24_)"/></g></mask><linearGradient id="SVGID_25_" gradientUnits="userSpaceOnUse" x1="242.927" y1="1180.845" x2="295.108" y2="1198.519" gradientTransform="matrix(1.0835 0 0 1 1218.146 -.003)"><stop offset="0" stop-color="#0d1d7e"/><stop offset="1" stop-color="#afebf2"/></linearGradient><path d="M1483 1344.7c15.5-30.4 26.2-65.3 26.2-86.6 0-35.4 2.7-82.5 16.4-100.2 13.7-17.7 18.2-38.7 14.6-53.9-3.6-15.2 3.6-36.2 8.2-55.5 4.6-19.4-.9-32-.9-32-5.2 41.8-22.2 37.9-25.2 62.6-3 24.7-3 41.5-16.4 58.4-13.4 16.8-12.2 38.7-30.4 79.1-18.2 40.4-51.7 78-57.8 105.5-1.2 5.5-2.6 13.5-4.1 22.7h69.4z" opacity=".14" fill="url(#SVGID_25_)"/><path class="st12" d="M1039.5 1344.7c-15.3-43.1-25.8-92.5-25.8-122.8 0-50.1-2.7-116.9-16.2-142-13.5-25.1-18-54.9-14.4-76.4 3.6-21.5-3.6-51.3-8.1-78.8-4.5-27.4.9-45.3.9-45.3 6.3 17.9 11.7 19.1 24.3 41.8 12.6 22.7 7.2 33.4 25.2 69.2 18 35.8 34.2 72.8 40.5 116.9 6.3 44.2 31.5 90.7 53.1 132.5 15.2 29.4 24.9 65.9 30.7 104.9h-110.2z"/><defs><filter id="Adobe_OpacityMaskFilter_18_" filterUnits="userSpaceOnUse" x="973.2" y="879.4" width="134.7" height="465.3"><feFlood result="back" flood-color="#fff" flood-opacity="1"/><feBlend in="SourceGraphic" in2="back"/></filter></defs><mask maskUnits="userSpaceOnUse" x="973.2" y="879.4" width="134.7" height="465.3" id="SVGID_26_"><g filter="url(#Adobe_OpacityMaskFilter_18_)"><defs><filter id="Adobe_OpacityMaskFilter_19_" filterUnits="userSpaceOnUse" x="973.2" y="879.4" width="134.7" height="465.3"><feFlood result="back" flood-color="#fff" flood-opacity="1"/><feBlend in="SourceGraphic" in2="back"/></filter></defs><linearGradient id="SVGID_27_" gradientUnits="userSpaceOnUse" x1="4726.418" y1="1111.772" x2="4798.833" y2="1136.299" gradientTransform="matrix(-1.0638 0 0 1 6070.733 -.005)"><stop offset="0" stop-color="#fff"/><stop offset="1"/></linearGradient><path d="M1039.5 1344.7c-15.3-43.1-25.8-92.5-25.8-122.8 0-50.1-2.7-116.9-16.2-142-13.5-25.1-18-54.9-14.4-76.4 3.6-21.5-3.6-51.3-8.1-78.8-4.5-27.4.9-45.3.9-45.3 5.1 59.3 21.9 53.7 24.9 88.7s3 58.9 16.2 82.7c13.2 23.9 12 54.9 30 112.2 18 57.3 51 110.6 56.9 149.6 1.2 7.8 2.6 19.1 4.1 32.1h-68.5z" mask="url(#SVGID_26_)" fill="url(#SVGID_27_)"/></g></mask><linearGradient id="SVGID_28_" gradientUnits="userSpaceOnUse" x1="4726.418" y1="1111.772" x2="4798.833" y2="1136.299" gradientTransform="matrix(-1.0638 0 0 1 6070.733 -.005)"><stop offset="0" stop-color="#0d1d7e"/><stop offset="1" stop-color="#afebf2"/></linearGradient><path d="M1039.5 1344.7c-15.3-43.1-25.8-92.5-25.8-122.8 0-50.1-2.7-116.9-16.2-142-13.5-25.1-18-54.9-14.4-76.4 3.6-21.5-3.6-51.3-8.1-78.8-4.5-27.4.9-45.3.9-45.3 5.1 59.3 21.9 53.7 24.9 88.7s3 58.9 16.2 82.7c13.2 23.9 12 54.9 30 112.2 18 57.3 51 110.6 56.9 149.6 1.2 7.8 2.6 19.1 4.1 32.1h-68.5z" opacity=".14" fill="url(#SVGID_28_)"/><path class="st12" d="M1475 1041.7c-6.5 15.1-27.7 25.2-59.5 39.6-31.8 14.3-47.2 24.1-75.8 70.7-15.5 25.2-34.2 65.6-47.3 123.7-6 26.6-13.6 50.6-20.2 69h61.8v-5c0-40.4 54.6-85.8 67.7-121.2 13-35.3 36.7-73.2 54.6-88.4 17.9-15.2 41.6-55.5 44-79.1 2.4-23.6 12.2-41.2 12.2-41.2-13 4.2-31 16.8-37.5 31.9z"/><defs><filter id="Adobe_OpacityMaskFilter_20_" filterUnits="userSpaceOnUse" x="1303" y="1009.8" width="209.5" height="334.9"><feFlood result="back" flood-color="#fff" flood-opacity="1"/><feBlend in="SourceGraphic" in2="back"/></filter></defs><mask maskUnits="userSpaceOnUse" x="1303" y="1009.8" width="209.5" height="334.9" id="SVGID_29_"><g filter="url(#Adobe_OpacityMaskFilter_20_)"><defs><filter id="Adobe_OpacityMaskFilter_21_" filterUnits="userSpaceOnUse" x="1303" y="1009.8" width="209.5" height="334.9"><feFlood result="back" flood-color="#fff" flood-opacity="1"/><feBlend in="SourceGraphic" in2="back"/></filter></defs><linearGradient id="SVGID_30_" gradientUnits="userSpaceOnUse" x1="-559.61" y1="1160.924" x2="-447.791" y2="1198.798" gradientTransform="matrix(.8076 0 0 1 1820.826 -.002)"><stop offset="0" stop-color="#fff"/><stop offset="1"/></linearGradient><path d="M1475 1077.1c-13 25.3-34.2 13.5-71.8 48.8-37.5 35.4-19.6 38.7-53 91.7s-39.1 74.1-44.9 114.5c-.5 3.7-1.3 8-2.4 12.6h30.9v-5c0-40.4 54.6-85.8 67.7-121.2 13-35.3 36.7-73.2 54.6-88.4 17.9-15.2 41.6-55.5 44-79.1 2.4-23.6 12.2-41.2 12.2-41.2-26.7 31.9-24.3 42-37.3 67.3z" mask="url(#SVGID_29_)" fill="url(#SVGID_30_)"/></g></mask><linearGradient id="SVGID_31_" gradientUnits="userSpaceOnUse" x1="-559.61" y1="1160.924" x2="-447.791" y2="1198.798" gradientTransform="matrix(.8076 0 0 1 1820.826 -.002)"><stop offset="0" stop-color="#246afc"/><stop offset="1" stop-color="#5f48dc"/></linearGradient><path d="M1475 1077.1c-13 25.3-34.2 13.5-71.8 48.8-37.5 35.4-19.6 38.7-53 91.7s-39.1 74.1-44.9 114.5c-.5 3.7-1.3 8-2.4 12.6h30.9v-5c0-40.4 54.6-85.8 67.7-121.2 13-35.3 36.7-73.2 54.6-88.4 17.9-15.2 41.6-55.5 44-79.1 2.4-23.6 12.2-41.2 12.2-41.2-26.7 31.9-24.3 42-37.3 67.3z" opacity=".26" fill="url(#SVGID_31_)"/><path class="st29" d="M1074.5 1329.4c-130.4-9.5-554.5 29.2-551.5-10.8 3.1-39.9-84.4-362.4-84.4-362.4S449 849.4 501.8 813c130.6-89.9 232.4-191.2 232.4-191.2-.8 47 20.8 134.6 43.8 219.1 23 84.5 52.2 159.7 59.9 159.7 7.7 0 47.6-152.1 66-218.1 15.7-56.4 22.6-129.6 24.2-149.8 30.4 32 105.8 87.6 162 117.1 62.5 32.8 80 71.6 80 71.6s-101.7 451.1-95.6 508z"/><path d="M928.2 632.7c-1.6 20.2-8.5 93.4-24.2 149.8-18.4 66.1-58.3 218.1-66 218.1-7.7 0-36.9-75.2-59.9-159.7-23-84.5-44.6-172-43.8-219.1l182-2.9c2.3 3.4 6.4 8.1 11.9 13.8z" fill="#f9f9f9"/><defs><filter id="Adobe_OpacityMaskFilter_22_" filterUnits="userSpaceOnUse" x="535" y="928.8" width="260.8" height="426.1"><feFlood result="back" flood-color="#fff" flood-opacity="1"/><feBlend in="SourceGraphic" in2="back"/></filter></defs><mask maskUnits="userSpaceOnUse" x="535" y="928.8" width="260.8" height="426.1" id="SVGID_32_"><g filter="url(#Adobe_OpacityMaskFilter_22_)"><defs><filter id="Adobe_OpacityMaskFilter_23_" filterUnits="userSpaceOnUse" x="535" y="928.8" width="260.8" height="426.1"><feFlood result="back" flood-color="#fff" flood-opacity="1"/><feBlend in="SourceGraphic" in2="back"/></filter></defs><linearGradient id="SVGID_33_" gradientUnits="userSpaceOnUse" x1="-2160.21" y1="1109.016" x2="-1937.863" y2="1240.35" gradientTransform="matrix(-1 0 0 1 -1416.175 0)"><stop offset="0"/><stop offset="1" stop-color="#fff"/></linearGradient><path d="M581 928.8c131.3 49.5 213.1 119.8 213.1 119.8l1.6 306.3-260.8-107L581 928.8z" mask="url(#SVGID_32_)" fill="url(#SVGID_33_)"/></g></mask><linearGradient id="SVGID_34_" gradientUnits="userSpaceOnUse" x1="-2160.21" y1="1109.016" x2="-1937.863" y2="1240.35" gradientTransform="matrix(-1 0 0 1 -1416.175 0)"><stop offset="0" stop-color="#fff"/><stop offset="1" stop-color="#3d6acc"/></linearGradient><path d="M581 928.8c131.3 49.5 213.1 119.8 213.1 119.8l1.6 306.3-260.8-107L581 928.8z" opacity=".63" fill="url(#SVGID_34_)"/><defs><filter id="Adobe_OpacityMaskFilter_24_" filterUnits="userSpaceOnUse" x="737.6" y="664.5" width="185.7" height="336.1"><feFlood result="back" flood-color="#fff" flood-opacity="1"/><feBlend in="SourceGraphic" in2="back"/></filter></defs><mask maskUnits="userSpaceOnUse" x="737.6" y="664.5" width="185.7" height="336.1" id="SVGID_35_"><g filter="url(#Adobe_OpacityMaskFilter_24_)"><defs><filter id="Adobe_OpacityMaskFilter_25_" filterUnits="userSpaceOnUse" x="737.6" y="664.5" width="185.7" height="336.1"><feFlood result="back" flood-color="#fff" flood-opacity="1"/><feBlend in="SourceGraphic" in2="back"/></filter></defs><linearGradient id="SVGID_36_" gradientUnits="userSpaceOnUse" x1="830.497" y1="743.906" x2="830.497" y2="657.502"><stop offset="0"/><stop offset="1" stop-color="#fff"/></linearGradient><path d="M871.7 706.5l-6.1-9.2-62.2-.8-6.9 8.1s-36.2-24.5-58.9-40C744.5 713 760.8 777.8 778 841c23 84.5 52.2 159.7 59.9 159.7 7.7 0 47.6-152.1 66-218.1 9.3-33.5 15.5-72.9 19.4-103.6l-51.6 27.5z" mask="url(#SVGID_35_)" fill="url(#SVGID_36_)"/></g></mask><linearGradient id="SVGID_37_" gradientUnits="userSpaceOnUse" x1="830.497" y1="743.906" x2="830.497" y2="657.502"><stop offset="0" stop-color="#fff"/><stop offset="1" stop-color="#3d6acc"/></linearGradient><path d="M871.7 706.5l-6.1-9.2-62.2-.8-6.9 8.1s-36.2-24.5-58.9-40C744.5 713 760.8 777.8 778 841c23 84.5 52.2 159.7 59.9 159.7 7.7 0 47.6-152.1 66-218.1 9.3-33.5 15.5-72.9 19.4-103.6l-51.6 27.5z" opacity=".52" fill="url(#SVGID_37_)"/><path d="M834.5 651.2l-31.1 45.3 15.7 26.9L793.6 894c19.1 60.6 38.3 106.7 44.3 106.7 4.7 0 21.2-56.1 37.7-115l-25.8-162.2 15.7-26.1-31-46.2z" fill="#e5328e"/><defs><filter id="Adobe_OpacityMaskFilter_26_" filterUnits="userSpaceOnUse" x="806.8" y="902.8" width="288.5" height="509.9"><feFlood result="back" flood-color="#fff" flood-opacity="1"/><feBlend in="SourceGraphic" in2="back"/></filter></defs><mask maskUnits="userSpaceOnUse" x="806.8" y="902.8" width="288.5" height="509.9" id="SVGID_38_"><g filter="url(#Adobe_OpacityMaskFilter_26_)"><defs><filter id="Adobe_OpacityMaskFilter_27_" filterUnits="userSpaceOnUse" x="806.8" y="902.8" width="288.5" height="509.9"><feFlood result="back" flood-color="#fff" flood-opacity="1"/><feBlend in="SourceGraphic" in2="back"/></filter></defs><linearGradient id="SVGID_39_" gradientUnits="userSpaceOnUse" x1="898.985" y1="1128.913" x2="1145.9" y2="1274.759"><stop offset="0"/><stop offset="1" stop-color="#fff"/></linearGradient><path d="M1088.8 902.8c-131.3 49.5-278.5 145.8-278.5 145.8l-3.5 364 266-99.9 22.5-140.4-6.5-269.5z" mask="url(#SVGID_38_)" fill="url(#SVGID_39_)"/></g></mask><linearGradient id="SVGID_40_" gradientUnits="userSpaceOnUse" x1="898.985" y1="1128.913" x2="1145.9" y2="1274.759"><stop offset="0" stop-color="#fff"/><stop offset="1" stop-color="#3d6acc"/></linearGradient><path d="M1088.8 902.8c-131.3 49.5-278.5 145.8-278.5 145.8l-3.5 364 266-99.9 22.5-140.4-6.5-269.5z" opacity=".63" fill="url(#SVGID_40_)"/><path d="M928.2 632.7c-1.6 20.2-8.5 93.4-24.2 149.8-17 60.8-52.2 194.6-63.6 215.4 11.5-13.2 61.8-72.5 85.1-124.4 26.5-58.8 31.1-73.7 31.1-73.7L929 773.3l30-11.5s12.3-45.3 9.5-89.8c-16.3-15.3-30.5-29-40.3-39.3zM778.1 840.9c-23-84.5-44.6-172-43.8-219.1 0 0-18.2 15.3-43.9 37.4-5.6 41.1-2.2 91.1-2.2 91.1l34.6 17.3-23 27.6s20.7 71.4 50.7 118.7c26.1 41.2 73.3 76.5 84.9 84.9-10.5-12.2-36.4-81.2-57.3-157.9z" fill="#eff9ff"/><linearGradient id="SVGID_41_" gradientUnits="userSpaceOnUse" x1="736.331" y1="589.362" x2="915.351" y2="589.362"><stop offset="0" stop-color="#f1a17f"/><stop offset="1" stop-color="#e87979"/></linearGradient><path d="M740.5 516s-.7 81.4-4.2 106.7c0 0 66 40 92 40s87.1-42.1 87.1-42.1-2.8-64.6-.7-99.7L740.5 516z" fill="url(#SVGID_41_)"/><path class="st66" d="M763.9 317.3c-21.1 13.6-37 41.7-34.2 94.1 2.8 52.4-5 59.4 0 83.8 5 24.3 23.9 57.1 31.8 80.5 8 23.4 20.6 41.2 72.1 41.7 54.8.5 57.6-20.6 70.7-48.7 13.1-28.1 20.1-45.9 27.1-62.7 6.7-16 5.1-51 4.7-75.8-.5-24.8 9.4-59-6.1-85.6-15.4-26.7-42.6-48.2-94.1-47.7-51.4.3-72 20.4-72 20.4z"/><g id="XMLID_6_"><path class="st67" d="M730.4 411.9c-18.3-10.8-39.3-5.2-44.9 21.3-5.6 26.5-.4 55.6 19.3 66.3 19.7 10.7 28 1.4 28 1.4l-2.4-89z"/><path class="st68" d="M732.1 475.1l-1.1-40.6c-2.1-2.1-10.9-10.2-20.6-7.5-11.1 3.1-14.1 24.5-8.7 37.1 5.3 12.4 16.6 15.7 30.4 11z"/></g><path class="st67" d="M934.9 414.7c17.3-9.5 36.1-3 39.7 22.7 3.6 25.7-2.8 53.5-21.3 62.8-18.5 9.3-25.6-.1-25.6-.1l7.2-85.4z"/><path class="st68" d="M929.8 475.3l3.3-39c2-1.9 10.5-9.3 19.2-6.2 10 3.6 11.5 24.3 5.9 36.1-5.5 11.7-16.1 14.3-28.4 9.1z"/><path class="st69" d="M770.1 553.8c-.2-.1-19.6-5.7-38.2-13.8-15.5-6.7-12.8-36-10.2-64.4.8-8.9 1.6-17.3 1.9-25.1l4.2.1c-.3 7.9-1.1 16.7-1.9 25.3-2.4 25.6-5.1 54.6 7.6 60.1 18.3 7.9 37.5 13.5 37.7 13.6l-1.1 4.2z"/><path class="st69" d="M731.6 463.7l.2-21.7c-1.4-1.2-7.4-5.7-14.2-4.4-7.8 1.5-10.4 12.8-6.9 19.7 3.3 6.7 11.2 8.6 20.9 6.4z"/><path class="st1" d="M732.6 458.2c-4.7-.5-10.3-4.2-10.8-22-.3-12.2-14-30-14-30s-13.6-47.3-3.3-67.9c7.4-14.8 30.9-31.4 53.4-33.7 0 0 19.2-43.1 47.7-54.3 32.8-12.9 67.9 4.2 89.4 15s71.1 12.6 71.1 12.6-9 76.3-14.6 95.5c-5.6 19.2-5 32.3-7.4 46.3s-1.9 37.3-7.5 37.8-6.1.1-6.1.1 3.3-27.9 4.1-40c1.4-21.5-14.9-33.8-18.6-51.6-3.7-17.8-8.1-27-8.1-27s-38.6 13.1-69.5 9.8c-30.9-3.3-73.4-23.9-73.4-23.9s-4.5 41.1-22.8 64.2c-14.3 18.3-9.6 69.1-9.6 69.1z"/><path class="st1" d="M821 416.3c-28.7-4.6-51.7.1-67.5 3.8 9.1-22.9 54.3-28.4 67.5-3.8zm35.4-.4c28.7-4.6 51.7.1 67.5 3.8-9.1-22.8-54.3-28.4-67.5-3.8z"/><path class="st70" d="M780.4 445.8c0 2.5 2 4.6 4.4 4.6 2.4 0 4.4-2 4.4-4.6 0-2.5-2-4.6-4.4-4.6-2.5 0-4.4 2.1-4.4 4.6zm106.3 0c0 2.5 2 4.6 4.4 4.6 2.4 0 4.4-2 4.4-4.6 0-2.5-2-4.6-4.4-4.6-2.4 0-4.4 2.1-4.4 4.6z"/><path d="M875.3 527c-.2 9.6-17 21.5-38 21.5s-37.5-12.2-38-21.5c-.7-13.5 16.8-5.6 37.7-5.6 21.1 0 38.7-7.9 38.3 5.6z" fill="#fff"/><circle transform="rotate(-67.313 771.292 489.865)" class="st72" cx="771.3" cy="489.8" r="25.4"/><circle transform="rotate(-75.93 895.537 489.846)" class="st72" cx="895.5" cy="489.8" r="25.4"/><linearGradient id="SVGID_42_" gradientUnits="userSpaceOnUse" x1="-9346.793" y1="-7380.411" x2="-9346.793" y2="-7353.493" gradientTransform="matrix(-3.1681 .1309 .1309 3.1681 -27803.602 25018.975)"><stop offset="0" stop-color="#f1a17f"/><stop offset="1" stop-color="#e87979"/></linearGradient><path d="M842.7 414.4l28 73.3c1.8 5.1-2 10.5-7.5 10.4l-43.9-.4 13.4-83.8 10 .5z" fill="url(#SVGID_42_)"/><path d="M837.6 493.4c0-3.6-2.9-6.4-6.5-6.4s-6.4 2.9-6.4 6.5l12.9-.1z" opacity=".39" fill="#e87979"/><circle transform="rotate(-76.603 781.068 553.023)" class="st70" cx="781.1" cy="553" r="19.8"/><g id="XMLID_1_"><path class="st1" d="M719.1 923.3c-2.3 15.3-16.7 25.9-32 23.5-15.3-2.3-25.9-16.7-23.5-32 2.3-15.3 16.7-25.9 32-23.5 15.3 2.4 25.9 16.7 23.5 32z"/><circle transform="matrix(.00708 -1 1 .00708 -232.608 1603.96)" cx="691.4" cy="919.1" r="24.4" fill="#c5bef4"/><path d="M945.1 1045.3c-8.7 0-20.5-.9-32.1-4.8-33.7-11.3-30.2-82-23.4-142.3.4-3.1.7-5.8.9-7.8.2-2.3 2.3-4 4.6-3.8 2.3.2 4 2.3 3.8 4.6-.2 2.1-.5 4.8-.9 7.9-3.4 30.4-13.9 122.7 17.7 133.3 20 6.7 41.4 3.7 41.6 3.7 2.3-.3 4.5 1.3 4.8 3.6.3 2.3-1.3 4.4-3.6 4.8-.5.1-5.7.8-13.4.8zm36.8-1.1c-2.2 0-4.1-1.7-4.2-4-.1-2.3 1.7-4.3 4-4.4 1.4-.1 2.9-.1 4.5-.2 23.8-.9 45.3-4 47.5-31.9 2.1-27.7-3.6-66.9-7.8-95.5-1.3-8.9-2.5-17.3-3.4-24.2-.3-2.3 1.4-4.4 3.7-4.7 2.3-.3 4.4 1.4 4.7 3.7.8 6.8 2 15.1 3.3 24 4.5 30.6 10.1 68.6 7.9 97.3-2.9 37.7-37.1 39-55.6 39.7-1.5.1-3 .1-4.4.2h-.2z" fill="#9c8ee9"/><path class="st1" d="M691 923.9c-2.6 0-4.8-1.9-5.2-4.5-.1-.4-6-42.5-7.2-90.7-.1-3.7-.2-7.7-.3-11.9-1.7-52.2-4.7-149.3 49.3-206.7 2-2.1 5.3-2.2 7.5-.2 2.1 2 2.2 5.3.2 7.5-51 54.2-48.1 148.5-46.5 199.1.1 4.3.3 8.3.4 12 1.1 47.6 7 89 7.1 89.5.4 2.9-1.6 5.6-4.5 6-.3-.2-.6-.1-.8-.1zM962.5 796h-.3c-2.9-.2-5.1-2.6-5-5.6 0-.3 1.8-34.8 0-68.7l-.1-2.2c-1.8-33.4-3.5-65-39.7-97.2-2.2-1.9-2.4-5.3-.4-7.5 1.9-2.2 5.3-2.4 7.5-.4 39.5 35.2 41.3 70.4 43.2 104.5l.1 2.1c1.9 34.5 0 69.5 0 69.8-.2 3.1-2.5 5.2-5.3 5.2z"/><path class="st1" d="M894.6 900.6h-.2c-2.9-.1-5.2-2.6-5.1-5.5 1.2-28.8 7.6-54.9 18.1-73.5 13.3-23.5 33.1-35.8 57.4-35.4 25.4.4 45.2 18.8 57.2 53.3 8.7 25 10.4 49.6 10.5 50.6.2 2.9-2 5.4-4.9 5.6-2.9.2-5.4-2-5.6-4.9-.1-.9-6.6-93.3-57.3-94-20.5-.3-36.6 9.8-48.1 30.1-9.7 17.2-15.7 41.6-16.8 68.8 0 2.7-2.4 4.9-5.2 4.9z"/><path d="M964.9 1038.2c.5 6.8-1.6 8.8-8.3 8.6-6-.2-9.3-.9-9.3-.9l-.4-9.8s7.5-2.9 11.5-2.3c3.5.6 6.3 1.8 6.5 4.4zm5-.3c-.1 6.9 2.1 8.7 8.9 8.1 5.9-.5 9.2-1.5 9.2-1.5l-.3-9.8s-7.7-2.4-11.6-1.6c-3.5.8-6.2 2.2-6.2 4.8z" fill="#1c1c1c"/></g><path class="st29" d="M467.9 854c-23.1 45-71.8 247.8-81.1 318.2s-24.3 148.1 3.7 170.6c28.1 22.5 207.8 12.2 250.9 11.2 43.1-.9 104.8-4 104.8-4s4.7-106.5 1.9-106.5c-2.8 0-74.9-16.8-110.5-23.4-35.6-6.6-97.3-19.7-97.3-19.7s16.4-60.9 26.2-104.6c10.5-47 18.3-108.8 18.3-108.8s3.3-30-37.9-75.8c-41.3-45.8-79-57.2-79-57.2zm702.3-32.6c24.3 51.5 62.7 206.9 82.4 293 19.7 86.1 36.5 200.3 14 220-22.5 19.7-87.1 24.3-124.5 26.2s-87.1.7-87.1.7l13.3-132.7 47.5-9.4s-8.3-17.3-20-49.7c-6.3-17.5-5.5-65.6-7.2-92.6-4.2-68.1-6.6-114.7-2.8-150.2 3.9-35.6 84.4-105.3 84.4-105.3z"/><defs><filter id="Adobe_OpacityMaskFilter_28_" filterUnits="userSpaceOnUse" x="1088.5" y="1026" width="125.6" height="193.2"><feFlood result="back" flood-color="#fff" flood-opacity="1"/><feBlend in="SourceGraphic" in2="back"/></filter></defs><mask maskUnits="userSpaceOnUse" x="1088.5" y="1026" width="125.6" height="193.2" id="SVGID_43_"><g filter="url(#Adobe_OpacityMaskFilter_28_)"><defs><filter id="Adobe_OpacityMaskFilter_29_" filterUnits="userSpaceOnUse" x="1088.5" y="1026" width="125.6" height="193.2"><feFlood result="back" flood-color="#fff" flood-opacity="1"/><feBlend in="SourceGraphic" in2="back"/></filter></defs><linearGradient id="SVGID_44_" gradientUnits="userSpaceOnUse" x1="1153.131" y1="1131.802" x2="1088.543" y2="1231.024"><stop offset="0"/><stop offset="1" stop-color="#fff"/></linearGradient><path d="M1115.9 1219.2c31.8-8.4 77.7-17.8 98.3-10.3 0 0-4.7-56.2-38.4-123.6-33.7-67.4-64.6-59-64.6-59s-25.3 29.7-22.5 59.7-.9 67.6 6.6 86.4c7.5 18.7 20.6 46.8 20.6 46.8z" mask="url(#SVGID_43_)" fill="url(#SVGID_44_)"/></g></mask><linearGradient id="SVGID_45_" gradientUnits="userSpaceOnUse" x1="1153.131" y1="1131.802" x2="1088.543" y2="1231.024"><stop offset="0" stop-color="#fff"/><stop offset="1" stop-color="#3d6acc"/></linearGradient><path d="M1115.9 1219.2c31.8-8.4 77.7-17.8 98.3-10.3 0 0-4.7-56.2-38.4-123.6-33.7-67.4-64.6-59-64.6-59s-25.3 29.7-22.5 59.7-.9 67.6 6.6 86.4c7.5 18.7 20.6 46.8 20.6 46.8z" opacity=".63" fill="url(#SVGID_45_)"/><defs><filter id="Adobe_OpacityMaskFilter_30_" filterUnits="userSpaceOnUse" x="416.7" y="1006" width="157.5" height="268.5"><feFlood result="back" flood-color="#fff" flood-opacity="1"/><feBlend in="SourceGraphic" in2="back"/></filter></defs><mask maskUnits="userSpaceOnUse" x="416.7" y="1006" width="157.5" height="268.5" id="SVGID_46_"><g filter="url(#Adobe_OpacityMaskFilter_30_)"><defs><filter id="Adobe_OpacityMaskFilter_31_" filterUnits="userSpaceOnUse" x="416.7" y="1006" width="157.5" height="268.5"><feFlood result="back" flood-color="#fff" flood-opacity="1"/><feBlend in="SourceGraphic" in2="back"/></filter></defs><linearGradient id="SVGID_47_" gradientUnits="userSpaceOnUse" x1="487.406" y1="1148.036" x2="554.301" y2="1204.567"><stop offset="0"/><stop offset="1" stop-color="#fff"/></linearGradient><path d="M541.5 1200.5c-43.1 8.4-109.9 55.2-124.8 73.9 0 0 3.7-71.1 28.1-159.1 24.3-88 72.1-117 94.5-107.6 22.5 9.4 34.9 48.9 34.9 48.9s-7.4 40-17.2 79c-9.8 38.5-15.5 64.9-15.5 64.9z" mask="url(#SVGID_46_)" fill="url(#SVGID_47_)"/></g></mask><linearGradient id="SVGID_48_" gradientUnits="userSpaceOnUse" x1="487.406" y1="1148.036" x2="554.301" y2="1204.567"><stop offset="0" stop-color="#fff"/><stop offset="1" stop-color="#3d6acc"/></linearGradient><path d="M541.5 1200.5c-43.1 8.4-109.9 55.2-124.8 73.9 0 0 3.7-71.1 28.1-159.1 24.3-88 72.1-117 94.5-107.6 22.5 9.4 34.9 48.9 34.9 48.9s-7.4 40-17.2 79c-9.8 38.5-15.5 64.9-15.5 64.9z" opacity=".63" fill="url(#SVGID_48_)"/><path class="st66" d="M747.6 1248.2c-16.8 16.8-18.7 44-16.8 59.9 1.9 15.9 10.5 33.5 10.5 33.5l42.8 8.4 35.1-94.8s-15-7.7-36.5-7.7c-21.6 0-35.1.7-35.1.7z"/><path class="st1" d="M823.9 1277.8c-2.1 0-4-1.2-4.9-3.2l-48.7-115.1c-1.1-2.7.1-5.8 2.8-6.9 2.7-1.1 5.8.1 6.9 2.8l48.7 115.1c1.1 2.7-.1 5.8-2.8 6.9-.7.3-1.4.4-2 .4zm75.8-90.3c0-.7 1.2-3.7 2.5-6.7 1.6-3.7 5-6.4 9-6.9l63.8-7.8c3.4-.4 6.6 1.8 7.4 5.1l1.9 7.7-84.6 8.6z"/><path d="M847.2 1192.6l219.1-28.3c6.1-.8 10.8 5.2 8.7 10.9l-77.1 208.4c-5 13.4-16.9 23.1-31.1 25l-222.4 30.7c-6.1.8-11-5.2-8.8-11l80.2-211.1c5.1-13.3 17.2-22.8 31.4-24.6z" fill="#ac83ed"/><path class="st1" d="M997.8 1383.7l77.1-208.4c.8-2.1.6-4.3-.2-6.1-1.3-.6-2.8-.8-4.3-.6l-219.1 28.3c-14.2 1.8-26.3 11.3-31.4 24.7l-80.2 211.1c-.8 2.1-.7 4.3.2 6.2 1.3.6 2.8.8 4.4.6l222.4-30.7c14.2-2.1 26.2-11.7 31.1-25.1z"/><path class="st66" d="M1056.5 1225.8s18.3 7.7 22.5 16.1c4.2 8.4 7.7 26 3.5 56.2-4.6 32.9-12.6 46.3-12.6 46.3s-51.2 14-87.8 8.4c-36.5-5.6-73.7-15.4-73.7-24.6 0-9.1 27.4-7 27.4-7s-34.4-.7-34.4-13.3c0-12.6 38.6-7.7 38.6-7.7s-48.4-3.5-47-17.6c1.4-14 50.5-5.6 50.5-5.6s-42.8-4.2-40-16.8c2.8-12.6 28.8-6.3 47-4.9 18.3 1.4 77.2 4.9 85.6 1.4 8.4-3.6 20.4-30.9 20.4-30.9z"/></svg>