<svg id="Layer_1" data-name="Layer 1" xmlns="http://www.w3.org/2000/svg" xmlns:xlink="http://www.w3.org/1999/xlink" viewBox="0 0 750 500"><defs><style>.cls-1,.cls-5,.cls-6{fill:none;}.cls-2{fill:#fdfdfd;}.cls-3{clip-path:url(#clip-path);}.cls-4{fill:#fff;}.cls-5{stroke:#010101;}.cls-5,.cls-6{stroke-linecap:round;stroke-linejoin:round;stroke-width:2px;}.cls-6{stroke:#ffaf00;}.cls-7{clip-path:url(#clip-path-3);}.cls-8{fill:#b8ffec;}.cls-9{fill:#ffe799;}</style><clipPath id="clip-path"><rect class="cls-1" x="-830.73" width="750" height="500"/></clipPath><clipPath id="clip-path-3"><rect class="cls-2" width="750" height="500"/></clipPath></defs><g class="cls-3"><path class="cls-4" d="M4.54,235.9a2,2,0,1,1,0,2.77A2,2,0,0,1,4.54,235.9Z"/><circle class="cls-4" cx="25.36" cy="217.86" r="1.96"/><path class="cls-4" d="M2.23,194.73a2,2,0,1,1,0,2.77A1.95,1.95,0,0,1,2.23,194.73Z"/></g><g class="cls-3"><polyline class="cls-5" points="-181.22 251 -152.85 271 -124.48 251 -96.11 271 -67.73 251 -39.36 271 -10.98 251 17.4 271 45.77 251"/><polyline class="cls-6" points="-181.22 233 -152.85 253 -124.48 233 -96.11 253 -67.73 233 -39.36 253 -10.98 233 17.4 253 45.77 233"/><line class="cls-6" x1="-160.41" y1="450.99" x2="26.27" y2="637.66"/><line class="cls-5" x1="-143.07" y1="320.65" x2="43.6" y2="507.33"/><line class="cls-6" x1="-112.57" y1="330.15" x2="74.1" y2="516.83"/></g><rect class="cls-2" width="750" height="500"/><g class="cls-7"><path d="M614.43,316.54a6.48,6.48,0,0,0,1-.08,6,6,0,1,0-4.43-1A5.85,5.85,0,0,0,614.43,316.54Zm0-8.69a2.75,2.75,0,0,1,2.23,4.34,2.77,2.77,0,0,1-1.79,1.12,2.81,2.81,0,0,1-2-.48,2.76,2.76,0,0,1-1.11-1.79h0a2.75,2.75,0,0,1,2.27-3.16Z"/><path d="M454.72,250.2a1.6,1.6,0,0,0,.38-3.15l-25.48-6.22a1.6,1.6,0,0,0-.76,3.11l25.48,6.21A1.65,1.65,0,0,0,454.72,250.2Z"/><path class="cls-4" d="M545.13,240.22a3.64,3.64,0,0,0-1.43-2.47,3.59,3.59,0,0,0-2-.6c-2.06,0-4.6,1.36-6.33,3.72a8.49,8.49,0,0,0-1.81,6.14,3.72,3.72,0,0,0,1.43,2.46h0c2.16,1.49,5.94.06,8.28-3.13A8.44,8.44,0,0,0,545.13,240.22Z"/><path class="cls-8" d="M533.73,239.64a11,11,0,0,1,6.55-4.4l-47.62-34.93c-2.13-1.49-5.93-.06-8.27,3.13a8.42,8.42,0,0,0-1.8,6.14A3.64,3.64,0,0,0,484,212h0l47.49,34.85A10.81,10.81,0,0,1,533.73,239.64Z"/><path d="M537.13,252.73c2.88,0,6.07-1.73,8.33-4.81a11,11,0,0,0,2.28-8.13,6.22,6.22,0,0,0-2.52-4.2c-3.41-2.38-8.65-.75-11.94,3.72h0a11.06,11.06,0,0,0-2.27,8.13,6,6,0,0,0,6.12,5.29Zm4.5-15a3,3,0,0,1,1.75.51,3.15,3.15,0,0,1,1.21,2.1,8,8,0,0,1-1.71,5.72c-2.16,2.95-5.61,4.33-7.52,3a3.13,3.13,0,0,1-1.2-2.1,8,8,0,0,1,1.7-5.72h0C537.47,239,539.77,237.7,541.63,237.7Z"/><path d="M483.42,214.49a1.6,1.6,0,0,0,.91-2.91,3.13,3.13,0,0,1-1.2-2.1,7.94,7.94,0,0,1,1.71-5.71c2.16-3,5.61-4.33,7.52-3a1.6,1.6,0,0,0,1.83-2.62c-3.41-2.39-8.65-.75-11.93,3.72A11,11,0,0,0,480,210a6.17,6.17,0,0,0,2.52,4.19A1.57,1.57,0,0,0,483.42,214.49Z"/><path d="M534.44,251.93a1.63,1.63,0,0,0,1.3-.65,1.61,1.61,0,0,0-.35-2.24l-51-37.44a1.6,1.6,0,0,0-1.89,2.58l51,37.44A1.6,1.6,0,0,0,534.44,251.93Z"/><path d="M544.3,238.5a1.6,1.6,0,0,0,1-2.89l-51-37.44a1.6,1.6,0,1,0-1.89,2.58l51,37.44A1.68,1.68,0,0,0,544.3,238.5Z"/><path d="M507.79,416.12a1.58,1.58,0,0,0,.75-.19,1.61,1.61,0,0,0,.66-2.17l-13.55-25.29a1.6,1.6,0,0,0-2.82,1.51l13.55,25.29A1.59,1.59,0,0,0,507.79,416.12Z"/><path d="M323.13,247.16a1.6,1.6,0,0,0,.79-3L221.05,185.44a1.6,1.6,0,1,0-1.59,2.78l102.88,58.72A1.52,1.52,0,0,0,323.13,247.16Z"/><path d="M507.73,167.38a1.6,1.6,0,0,0,0-3.19l-57.43-1.09a1.6,1.6,0,0,0-.06,3.2l57.43,1.08Z"/><path d="M534.54,350.93a1.59,1.59,0,0,0,1.58-1.44L543,279.71a1.6,1.6,0,0,0-1.43-1.75,1.58,1.58,0,0,0-1.75,1.44l-6.85,69.78a1.6,1.6,0,0,0,1.44,1.74Z"/><path d="M211.59,260.7a1.6,1.6,0,0,0,.42-3.14l-35.56-9.76a1.6,1.6,0,0,0-.85,3.09l35.56,9.75A1.59,1.59,0,0,0,211.59,260.7Z"/><path d="M723.19,425.68a1.6,1.6,0,0,0,.08-3.19l-36.82-1.9a1.6,1.6,0,1,0-.17,3.19l36.83,1.9Z"/><path d="M440.31,322.8a1.59,1.59,0,0,0,1.54-1.19l7.66-29.08a1.6,1.6,0,0,0-3.09-.82l-7.66,29.09a1.61,1.61,0,0,0,1.14,1.95A1.44,1.44,0,0,0,440.31,322.8Z"/><path d="M689.15,339.09a9.24,9.24,0,0,0,7.77-14.24,9.25,9.25,0,0,0-12.77-2.78,9.24,9.24,0,0,0,3,16.81A9.33,9.33,0,0,0,689.15,339.09Zm0-15.29a5.64,5.64,0,0,1,1.28.14,6.06,6.06,0,0,1,4.63,7.19,6,6,0,1,1-5.91-7.33Z"/><path d="M390.9,161a9.36,9.36,0,0,0,2.22-.27A9.25,9.25,0,1,0,383,147h0a9.25,9.25,0,0,0,7.89,14Zm0-15.3a6.09,6.09,0,1,1-1.45.18A5.94,5.94,0,0,1,390.93,145.71Z"/><path d="M402,358.41a7.93,7.93,0,1,0-7.92-8.37,7.93,7.93,0,0,0,7.47,8.36H402Zm0-12.66h.27a4.73,4.73,0,0,1-.53,9.45h0a4.73,4.73,0,0,1-2.89-8.25A4.69,4.69,0,0,1,402,345.75Z"/><path d="M199.73,74.07a8.24,8.24,0,0,0,1.48-.14,7.86,7.86,0,1,0-1.48.14Zm0-12.67a4.74,4.74,0,0,1,4.64,3.86,4.63,4.63,0,0,1-.74,3.54A4.71,4.71,0,0,1,197.08,70a4.63,4.63,0,0,1-2-3h0a4.72,4.72,0,0,1,3.77-5.52A4.38,4.38,0,0,1,199.75,61.4Z"/><path d="M168.08,142.79a6.78,6.78,0,0,0,.77,0,5.95,5.95,0,1,0-6.66-5.14h0a6,6,0,0,0,5.89,5.19Zm0-8.69a2.74,2.74,0,1,1-2.73,3.1h0a2.69,2.69,0,0,1,.56-2,2.65,2.65,0,0,1,1.82-1A2.06,2.06,0,0,1,168.09,134.1Z"/><path d="M687.45,87.61a8.3,8.3,0,0,0,1.47-.14,7.93,7.93,0,1,0-9.26-6.32h0A7.94,7.94,0,0,0,687.45,87.61Zm0-12.66a4.73,4.73,0,1,1-4.66,5.61h0A4.74,4.74,0,0,1,686.57,75,4.53,4.53,0,0,1,687.46,75Zm-6.23,5.9h0Z"/><path d="M287.1,295.67a1.61,1.61,0,0,0,.86-.25l20-12.69a1.6,1.6,0,1,0-1.71-2.7l-20.05,12.69a1.61,1.61,0,0,0-.49,2.21A1.59,1.59,0,0,0,287.1,295.67Z"/><path d="M565.61,164.92a1.58,1.58,0,0,0,1-.37l79.5-66a1.6,1.6,0,0,0-2-2.46l-79.5,66a1.61,1.61,0,0,0-.21,2.26A1.59,1.59,0,0,0,565.61,164.92Z"/><path class="cls-8" d="M475.71,341.48a22.05,22.05,0,0,1-4.55,5.21,13.93,13.93,0,0,1-1.69,1.14l25.73,6.07-16.33-20.71c0,.07,0,.12,0,.18A20.37,20.37,0,0,1,475.71,341.48Z"/><path class="cls-4" d="M471.91,330a12.16,12.16,0,0,0-1.23.88,19.9,19.9,0,0,0-4.13,4.76,18.27,18.27,0,0,0-2.85,7.23c-.23,1.86.1,3.23.9,3.81l1.28.3c2.08-.11,5.37-2.4,8.07-6.63a18.09,18.09,0,0,0,2.84-7.23,5.81,5.81,0,0,0-.24-2.87l-.83-1.05C474.87,328.73,473.49,329,471.91,330Z"/><path d="M465.68,349.66c3.25,0,7.36-3,10.5-7.89a21.12,21.12,0,0,0,3.24-8.33c.37-3-.4-5.3-2.17-6.43h0c-1.78-1.13-4.17-.86-6.75.75a21,21,0,0,0-6.18,6.46c-4,6.26-4.45,12.61-1.08,14.76A4.49,4.49,0,0,0,465.68,349.66Zm9.11-20.14a1.37,1.37,0,0,1,.74.18h0c.65.41.92,1.69.71,3.34a18,18,0,0,1-2.76,7c-3.22,5.05-7.2,7.06-8.52,6.22S463.79,341,467,335.93a18,18,0,0,1,5.18-5.46A5.33,5.33,0,0,1,474.79,329.52Zm1.6-1.16h0Z"/><path d="M497.87,357.2a1.54,1.54,0,0,0,1-.35,1.6,1.6,0,0,0,.27-2.24l-21.49-27.24a1.59,1.59,0,0,0-2.24-.27,1.61,1.61,0,0,0-.27,2.25l21.49,27.24A1.58,1.58,0,0,0,497.87,357.2Z"/><path d="M497.87,357.2a1.6,1.6,0,0,0,.37-3.16l-33.77-8a1.6,1.6,0,0,0-.73,3.11l33.76,8A2.46,2.46,0,0,0,497.87,357.2Z"/><path class="cls-8" d="M301-5a21.68,21.68,0,0,1-6.28,2.88,13.85,13.85,0,0,1-2,.34l20.94,16.13-6.35-25.6-.08.17A20.33,20.33,0,0,1,301-5Z"/><path d="M315.42,18.56a1.74,1.74,0,0,0,.39,0A1.59,1.59,0,0,0,317,16.58L308.62-17.1a1.6,1.6,0,0,0-1.93-1.16,1.6,1.6,0,0,0-1.17,1.93l8.35,33.67A1.61,1.61,0,0,0,315.42,18.56Z"/><path d="M315.42,18.56a1.6,1.6,0,0,0,1-2.87L288.91-5.47a1.59,1.59,0,0,0-2.24.29A1.59,1.59,0,0,0,287-2.94l27.49,21.17A1.6,1.6,0,0,0,315.42,18.56Z"/><path class="cls-8" d="M30.15,280.38a21.75,21.75,0,0,1,2.69,6.37,13.84,13.84,0,0,1,.29,2l16.73-20.46-25.77,5.6.16.08A20.39,20.39,0,0,1,30.15,280.38Z"/><path class="cls-4" d="M18.17,278.77a14,14,0,0,0,.25,1.49,20,20,0,0,0,2.47,5.8,18.38,18.38,0,0,0,5.25,5.73c1.57,1,2.95,1.32,3.81.86l.84-1c.81-1.92.19-5.88-2.42-10.16a18.29,18.29,0,0,0-5.26-5.73,5.93,5.93,0,0,0-2.67-1l-1.31.29C18.33,275.55,18,276.91,18.17,278.77Z"/><path d="M29.08,295.51a4.44,4.44,0,0,0,2.35-.64,4.85,4.85,0,0,0,2.13-3.14c.73-3-.4-7.49-2.94-11.64-3.87-6.33-9.38-9.53-12.79-7.44h0c-3.41,2.1-3.06,8.45.81,14.79C21.71,292.46,25.81,295.51,29.08,295.51Zm-8.88-20.3c1.71,0,5,2.15,7.69,6.55,2.38,3.87,3,7.42,2.56,9.22a1.72,1.72,0,0,1-.69,1.16c-1.32.82-5.27-1.26-8.4-6.37s-3.2-9.57-1.87-10.39A1.41,1.41,0,0,1,20.2,275.21Z"/><path d="M18.65,275.62a2.09,2.09,0,0,0,.35,0l33.9-7.37a1.6,1.6,0,1,0-.68-3.12l-33.9,7.37a1.6,1.6,0,0,0,.33,3.16Z"/><path d="M30.6,295.11a1.6,1.6,0,0,0,1.24-.59l22-26.86a1.6,1.6,0,1,0-2.48-2l-22,26.86a1.6,1.6,0,0,0,1.24,2.61Z"/><path class="cls-9" d="M629.65,185.54l-29.32,11.35,15.9-27.13c1.64-1.22,6.06.52,10,5.11S631.12,184.11,629.65,185.54Z"/><path d="M630.27,188a1.55,1.55,0,0,0,1-.38c3.06-2.6,1.73-8.82-3.08-14.48s-10.75-7.95-13.8-5.36a1.6,1.6,0,1,0,2.07,2.43c1.2-1,5.4.44,9.29,5s4.64,9,3.45,10a1.6,1.6,0,0,0,1,2.81Z"/><path d="M597.92,200.55a1.6,1.6,0,0,0,.57-.11l32.36-12.53a1.6,1.6,0,0,0-1.16-3l-32.35,12.53a1.6,1.6,0,0,0,.58,3.09Z"/><path d="M597.92,200.55a1.63,1.63,0,0,0,1.38-.79l17.54-29.94a1.6,1.6,0,0,0-2.76-1.61l-17.54,29.93a1.6,1.6,0,0,0,.57,2.19A1.57,1.57,0,0,0,597.92,200.55Z"/><path class="cls-8" d="M226.44,345.22l-9-30.12,25.81,18c1.1,1.73-1,6-5.87,9.55S227.75,346.8,226.44,345.22Z"/><path d="M228.76,348.68a11.21,11.21,0,0,0,2-.2A22.91,22.91,0,0,0,245,338.19c1.45-2.67,1.58-5.08.34-6.78a1.6,1.6,0,0,0-2.23-.36,1.62,1.62,0,0,0-.36,2.24c.45.62.24,1.91-.56,3.37a19.82,19.82,0,0,1-12,8.68c-1.63.29-2.93.11-3.37-.51a1.6,1.6,0,1,0-2.59,1.87A5.32,5.32,0,0,0,228.76,348.68Z"/><path d="M225.51,347.36a1.43,1.43,0,0,0,.46-.07,1.59,1.59,0,0,0,1.07-2l-10-33.22A1.6,1.6,0,0,0,214,313l10,33.22A1.59,1.59,0,0,0,225.51,347.36Z"/><path d="M244,334a1.6,1.6,0,0,0,.91-2.91l-28.48-19.82a1.6,1.6,0,0,0-1.82,2.63l28.48,19.81A1.59,1.59,0,0,0,244,334Z"/><polygon class="cls-1" points="603.57 355.06 612.67 370.17 630.59 369.93 621.49 354.83 603.57 355.06"/><polygon class="cls-1" points="602.5 387.61 620.31 387.38 630.46 372.02 612.65 372.25 602.5 387.61"/><polygon class="cls-1" points="601.7 355.99 591.43 371.53 600.59 386.73 610.85 371.19 601.7 355.99"/><polygon class="cls-4" points="630.59 369.93 621.49 354.83 603.57 355.06 612.67 370.17 630.59 369.93"/><polygon class="cls-8" points="601.7 355.99 591.43 371.53 600.59 386.73 610.85 371.19 601.7 355.99"/><polygon class="cls-4" points="602.5 387.61 620.31 387.38 630.46 372.02 612.65 372.25 602.5 387.61"/><path d="M600.54,390.28h0L620.9,390a1.6,1.6,0,0,0,1.31-.72l11.54-17.47a1.56,1.56,0,0,0,.07-1.64,1.72,1.72,0,0,0-1.42-.84l-20.33.27a1.58,1.58,0,0,0-1.31.72L599.21,387.8a1.63,1.63,0,0,0-.07,1.65A1.6,1.6,0,0,0,600.54,390.28ZM620,386.83l-16.47.22L613,372.81l16.46-.22Z"/><path d="M600.54,390.28a1.61,1.61,0,0,0,1.34-.72l11.54-17.46a1.6,1.6,0,0,0,0-1.71l-10.35-17.18a1.59,1.59,0,0,0-1.34-.77,1.63,1.63,0,0,0-1.36.72l-11.55,17.46a1.6,1.6,0,0,0,0,1.71l10.35,17.18a1.58,1.58,0,0,0,1.33.77Zm9.66-19.1-9.59,14.51-8.52-14.15L601.68,357Z"/><path d="M612.09,372.82h0l20.33-.27a1.62,1.62,0,0,0,1.38-.82,1.58,1.58,0,0,0,0-1.6L623.44,353a1.61,1.61,0,0,0-1.37-.78h0l-20.33.27a1.59,1.59,0,0,0-1.37.82,1.6,1.6,0,0,0,0,1.6L610.72,372A1.61,1.61,0,0,0,612.09,372.82Zm17.52-3.43-16.63.22-8.43-14,16.63-.22Z"/><path d="M435.46,118.15a5.94,5.94,0,1,0-4.53-2.09,5.88,5.88,0,0,0,4.05,2.07A3.93,3.93,0,0,0,435.46,118.15Zm0-8.69h.23a2.74,2.74,0,0,1,1.87,1,2.71,2.71,0,0,1,.65,2,2.77,2.77,0,0,1-3,2.52,2.75,2.75,0,0,1,.21-5.49Z"/><path d="M369.35,104.65a1.6,1.6,0,0,0,1.35-.74l34.5-54.38a1.58,1.58,0,0,0-.49-2.2,1.61,1.61,0,0,0-2.21.49L368,102.2a1.61,1.61,0,0,0,.49,2.21A1.67,1.67,0,0,0,369.35,104.65Z"/><path d="M351.55,77.64a1.59,1.59,0,0,0,1.48-1l5.4-13.74a1.6,1.6,0,1,0-3-1.17l-5.39,13.75a1.59,1.59,0,0,0,.9,2.07A1.71,1.71,0,0,0,351.55,77.64Z"/><path d="M380.87,483h0a1.61,1.61,0,0,0,1.56-1.64L382.13,468l13.42-.34A1.59,1.59,0,0,0,397.1,466l-.33-13.41,13.41-.33a1.61,1.61,0,0,0,1.56-1.64A1.68,1.68,0,0,0,410.1,449l-15,.37a1.6,1.6,0,0,0-1.12.5,1.62,1.62,0,0,0-.44,1.14l.34,13.41-13.42.34a1.59,1.59,0,0,0-1.55,1.64l.37,15A1.6,1.6,0,0,0,380.87,483Z"/><path d="M599.44,270.29a1.6,1.6,0,0,0,1.34-.72l7.36-11.22,11.22,7.36a1.62,1.62,0,0,0,2.22-.47l8.23-12.55a1.6,1.6,0,1,0-2.67-1.76l-7.36,11.22-11.22-7.35a1.59,1.59,0,0,0-2.21.46L599,266.48l-11.22-7.36A1.6,1.6,0,0,0,586,261.8L598.57,270A1.55,1.55,0,0,0,599.44,270.29Z"/><path d="M536.56,63.93h27.36a1.6,1.6,0,1,0,0-3.19H536.56a1.6,1.6,0,0,0,0,3.2Z"/><path d="M550.24,77.6a1.59,1.59,0,0,0,1.6-1.59V48.65a1.6,1.6,0,1,0-3.19,0V76A1.59,1.59,0,0,0,550.24,77.6Z"/><path d="M200.46,409h27.36a1.6,1.6,0,0,0,0-3.2H200.46a1.6,1.6,0,0,0,0,3.2Z"/><path d="M214.14,422.7a1.6,1.6,0,0,0,1.59-1.6V393.74a1.6,1.6,0,1,0-3.19,0V421.1A1.6,1.6,0,0,0,214.14,422.7Z"/><path d="M437.05,472.8h27.36a1.6,1.6,0,0,0,0-3.2H437.05a1.6,1.6,0,0,0,0,3.2Z"/><path d="M450.73,486.48a1.6,1.6,0,0,0,1.6-1.6V457.52a1.6,1.6,0,0,0-3.2,0v27.36A1.6,1.6,0,0,0,450.73,486.48Z"/><path d="M313.59,187.37a1.6,1.6,0,0,0,1.12-2.74l-19.47-19.21a1.59,1.59,0,1,0-2.24,2.27l19.47,19.22A1.57,1.57,0,0,0,313.59,187.37Z"/><path d="M294.25,187.5a1.57,1.57,0,0,0,1.13-.48l19.22-19.47a1.6,1.6,0,1,0-2.27-2.25l-19.22,19.48a1.6,1.6,0,0,0,0,2.26A1.63,1.63,0,0,0,294.25,187.5Z"/><path d="M384.17,236.74a1.6,1.6,0,0,0,.26-3.18l-13.24-2.18,2.19-13.24a1.61,1.61,0,0,0-1.32-1.84l-13.24-2.19L361,200.87A1.6,1.6,0,0,0,359.7,199l-13.24-2.18,2.18-13.24a1.6,1.6,0,1,0-3.15-.52L343,197.9a1.61,1.61,0,0,0,1.32,1.84l13.24,2.19-2.19,13.24a1.61,1.61,0,0,0,1.32,1.84L370,219.19l-2.18,13.24a1.6,1.6,0,0,0,1.31,1.84l14.82,2.45Z"/><path d="M551,442.07a1.57,1.57,0,0,0,1.35-.75L559.45,430l11.36,7.11a1.61,1.61,0,0,0,1.21.21,1.64,1.64,0,0,0,1-.71l7.11-11.38,11.37,7.12a1.57,1.57,0,0,0,1.2.2,1.61,1.61,0,0,0,1-.71l7.12-11.37,11.36,7.11a1.6,1.6,0,1,0,1.69-2.71l-12.71-8a1.66,1.66,0,0,0-1.21-.2,1.61,1.61,0,0,0-1,.71l-7.11,11.37-11.36-7.11a1.67,1.67,0,0,0-1.21-.21,1.64,1.64,0,0,0-1,.71l-7.12,11.38-11.36-7.12a1.63,1.63,0,0,0-1.2-.2,1.58,1.58,0,0,0-1,.71l-8,12.73a1.6,1.6,0,0,0,.51,2.2A1.63,1.63,0,0,0,551,442.07Z"/><path class="cls-4" d="M365,273.4c-3.35,5.26,1.12,14.1,10,19.74s18.78,5.95,22.13.68l-6.07,9.54c-3.35,5.27-13.26,5-22.13-.67s-13.34-14.48-10-19.75Z"/><path d="M382.62,308.72c4.48,0,7.94-1.58,9.8-4.5l6.07-9.54a1.6,1.6,0,1,0-2.7-1.72c-2.82,4.44-11.94,3.9-19.92-1.17s-12.33-13.1-9.5-17.54a1.6,1.6,0,1,0-2.7-1.71h0l-6.07,9.53c-1.93,3-1.81,7.06.34,11.32A30.57,30.57,0,0,0,382,308.71Zm9.42-9.86-2.32,3.65c-1.31,2.05-4,3.07-7.6,3A27.47,27.47,0,0,1,360.78,292c-1.62-3.2-1.79-6.1-.49-8.15l2.32-3.65c1.15,5,5.28,10.36,11.54,14.34S387.05,299.94,392,298.86Z"/><path class="cls-9" d="M365,273.4c3.34-5.27,13.25-5,22.12.67s13.35,14.48,10,19.75-13.26,5-22.13-.68S361.67,278.66,365,273.4Z"/><path d="M388.67,299.2c4.31,0,7.9-1.5,9.82-4.52s1.81-7.06-.34-11.32a30.64,30.64,0,0,0-24.09-15.31c-4.79-.15-8.46,1.44-10.39,4.49-3.88,6.1.72,15.74,10.48,21.95A27.9,27.9,0,0,0,388.67,299.2Zm-15.21-28h.5a27.42,27.42,0,0,1,21.34,13.57c1.62,3.21,1.79,6.1.49,8.15-2.82,4.44-12,3.9-19.92-1.17s-12.33-13.1-9.5-17.54h0C367.61,272.3,370.12,271.24,373.46,271.24Z"/><path class="cls-4" d="M640.61,474.61c4.37,4.45,14,2.09,21.5-5.28s10-16.95,5.65-21.4l7.93,8.07c4.38,4.45,1.84,14-5.66,21.4s-17.12,9.73-21.49,5.28Z"/><path d="M654.6,486.55c5.1,0,11.27-2.82,16.55-8,8.26-8.11,10.75-18.5,5.68-23.66l-7.93-8.07h0a1.6,1.6,0,0,0-2.28,2.24h0c3.69,3.75,1.11,12.52-5.63,19.14a25.16,25.16,0,0,1-11.18,6.66c-3.5.85-6.36.38-8.06-1.36h0a1.6,1.6,0,0,0-2.28,2.24h0l7.93,8.07A9.78,9.78,0,0,0,654.6,486.55ZM671.52,454l3,3.08c3.69,3.75,1.11,12.52-5.63,19.14s-15.55,9.05-19.24,5.3l-3-3.1a17,17,0,0,0,3.94-.5,28.49,28.49,0,0,0,12.66-7.49C668.52,465.27,671.44,459.13,671.52,454Z"/><path class="cls-9" d="M640.61,474.61c-4.37-4.45-1.84-14,5.66-21.4s17.12-9.74,21.49-5.28,1.84,14-5.65,21.4S645,479.06,640.61,474.61Z"/><path d="M646.63,478.46a17.08,17.08,0,0,0,3.94-.5,28.49,28.49,0,0,0,12.66-7.49c8.25-8.11,10.74-18.5,5.67-23.66-2.52-2.58-6.46-3.37-11.1-2.23a28.31,28.31,0,0,0-12.65,7.49c-8.26,8.11-10.75,18.5-5.68,23.66A9.7,9.7,0,0,0,646.63,478.46Zm15.11-31.19a6.61,6.61,0,0,1,4.88,1.78c3.69,3.75,1.11,12.52-5.63,19.14a25.16,25.16,0,0,1-11.18,6.66c-3.5.85-6.36.38-8.06-1.36-3.69-3.75-1.11-12.52,5.63-19.14a25.14,25.14,0,0,1,11.19-6.66A13.18,13.18,0,0,1,661.74,447.27Z"/><path d="M294,365a1.61,1.61,0,0,0,.86-.25,1.6,1.6,0,0,0,.49-2.2c-3-4.72-3.19-9.95-.52-13.66s8.58-4.47,14.44-5c5.5-.47,13-1.1,16.76-6.28,3.45-4.8,3.29-11.4-.42-17.24a1.59,1.59,0,1,0-2.69,1.71c3,4.72,3.18,9.95.52,13.66s-8.11,4.43-14.44,5c-6.6.56-13.33,1.5-16.77,6.28s-3.28,11.4.42,17.24A1.6,1.6,0,0,0,294,365Z"/><path d="M263.36,151a1.6,1.6,0,0,0,0-3.19c-5.58-.11-10-2.84-11.68-7.11s1-9.62,3.84-14.77c2.65-4.85,6.28-11.49,4-17.45-2.09-5.52-7.68-9-14.6-9.17a1.59,1.59,0,0,0-1.63,1.57,1.61,1.61,0,0,0,1.57,1.63c5.58.11,10.06,2.83,11.68,7.1s-.78,9.2-3.84,14.78c-3.18,5.81-6.11,11.94-4,17.45s7.69,9,14.61,9.16Z"/><polygon class="cls-1" points="491.79 113.47 494.71 112.74 508.89 109.19 497.45 94.83 480.35 99.11 487.95 108.64 491.79 113.47"/><polygon class="cls-1" points="486.94 132.69 503.9 128.44 509.17 111.27 492.22 115.52 486.94 132.69"/><polygon class="cls-1" points="490.24 114.87 478.94 100.69 473.69 117.77 484.99 131.95 490.24 114.87"/><polygon class="cls-4" points="491.79 113.47 494.71 112.74 508.89 109.19 497.45 94.83 480.35 99.11 487.95 108.64 491.79 113.47"/><polygon class="cls-8" points="478.94 100.69 473.69 117.77 484.99 131.95 490.24 114.87 478.94 100.69"/><polygon class="cls-8" points="486.94 132.69 503.9 128.44 509.17 111.27 492.22 115.52 486.94 132.69"/><path d="M485.4,135.75a1.53,1.53,0,0,0,.3,0,1.59,1.59,0,0,0,1.23-1.1l6-19.5a1.61,1.61,0,0,0-.27-1.47L479.78,97.49a1.61,1.61,0,0,0-1.55-.57A1.59,1.59,0,0,0,477,98l-6,19.5a1.59,1.59,0,0,0,.28,1.47l12.86,16.16A1.62,1.62,0,0,0,485.4,135.75ZM489.62,115l-4.85,15.8-10.46-13.12,4.86-15.81Z"/><path d="M491.4,116.25a1.65,1.65,0,0,0,.38,0l19.32-4.84a1.6,1.6,0,0,0,.87-2.55L499.1,92.65a1.59,1.59,0,0,0-1.64-.55l-19.32,4.84a1.59,1.59,0,0,0-.86,2.54l12.87,16.16A1.58,1.58,0,0,0,491.4,116.25Zm16.52-7.39-15.91,4L481.33,99.44l15.91-4Z"/><path d="M485.4,135.75a1.74,1.74,0,0,0,.39-.05l19.32-4.84a1.59,1.59,0,0,0,1.14-1.08l6-19.5a1.58,1.58,0,0,0-.37-1.57,1.55,1.55,0,0,0-1.54-.45L491,113.1a1.56,1.56,0,0,0-1.14,1.08l-6,19.5a1.59,1.59,0,0,0,1.52,2.07ZM503.46,128l-15.7,3.93,4.9-15.93,15.7-3.93Z"/><path class="cls-9" d="M313.65,121.37l8.6-35.21c.68-3.16-2.46-6.59-7-7.65s-8.83.63-9.52,3.78l-8.6,35.22c.69-3.16,4.95-4.86,9.52-3.79S314.33,118.21,313.65,121.37Z"/><path class="cls-4" d="M306.62,113.72c-4.57-1.07-8.83.63-9.52,3.79s2.46,6.58,7,7.65,8.83-.63,9.52-3.79S311.19,114.79,306.62,113.72Z"/><path d="M306.82,127.07a10.38,10.38,0,0,0,5.51-1.44,6.17,6.17,0,0,0,2.88-3.92c.88-4.07-2.73-8.26-8.22-9.55h0a11.54,11.54,0,0,0-8.58,1.09,6.18,6.18,0,0,0-2.87,3.92c-.89,4.07,2.72,8.26,8.22,9.55A13.49,13.49,0,0,0,306.82,127.07Zm-.56-11.8c3.65.86,6.32,3.5,5.82,5.76a3.1,3.1,0,0,1-1.45,1.89,8.27,8.27,0,0,1-6.14.68c-3.65-.85-6.32-3.49-5.83-5.75a3.09,3.09,0,0,1,1.46-1.89,8.31,8.31,0,0,1,6.14-.69Z"/><path d="M322.25,87.76a1.61,1.61,0,0,0,1.56-1.26c.88-4.07-2.73-8.26-8.22-9.55A11.54,11.54,0,0,0,307,78,6.19,6.19,0,0,0,304.14,82a1.6,1.6,0,0,0,1.22,1.91,1.62,1.62,0,0,0,1.91-1.23,3.1,3.1,0,0,1,1.45-1.89,8.32,8.32,0,0,1,6.14-.68c3.65.86,6.32,3.49,5.82,5.76a1.61,1.61,0,0,0,1.22,1.9A1.39,1.39,0,0,0,322.25,87.76Z"/><path d="M297.1,119.11a1.61,1.61,0,0,0,1.56-1.22l8.6-35.22a1.6,1.6,0,0,0-3.11-.75l-8.6,35.21a1.6,1.6,0,0,0,1.17,1.93A1.73,1.73,0,0,0,297.1,119.11Z"/><path d="M313.64,123a1.61,1.61,0,0,0,1.56-1.22l8.6-35.21a1.6,1.6,0,0,0-3.11-.76L312.09,121a1.61,1.61,0,0,0,1.18,1.94A1.55,1.55,0,0,0,313.64,123Z"/><path d="M94,52.73a6.2,6.2,0,0,0,1-.09,5.94,5.94,0,0,0,3.84-2.45h0A5.95,5.95,0,1,0,94,52.73Zm2.27-4.37a2.75,2.75,0,1,1-.69-3.83,2.74,2.74,0,0,1,.69,3.83Z"/><path d="M605.65,90.16a6.2,6.2,0,0,0,1.05-.09,5.92,5.92,0,0,0,3.84-2.45h0a5.95,5.95,0,1,0-8.28,1.47A5.85,5.85,0,0,0,605.65,90.16Zm0-8.69a2.71,2.71,0,0,1,1.57.5,2.75,2.75,0,0,1,.68,3.82h0a2.76,2.76,0,0,1-3.83.68,2.75,2.75,0,0,1,1.09-5A2.7,2.7,0,0,1,605.67,81.47Z"/><path d="M207.28,126.12a1.55,1.55,0,0,0,.84-.25,1.59,1.59,0,0,0,.51-2.2l-13.89-22.24a1.6,1.6,0,0,0-2.71,1.69l13.89,22.24A1.59,1.59,0,0,0,207.28,126.12Z"/><path class="cls-9" d="M-13.12,101.34a10.92,10.92,0,0,1-6.24,4.83l49.85,31.67c2.23,1.34,5.92-.33,8.05-3.67a8.53,8.53,0,0,0,1.39-6.25,3.69,3.69,0,0,0-1.6-2.36h0L-11.41,94A10.73,10.73,0,0,1-13.12,101.34Z"/><path d="M32.3,141c3,0,6.31-2,8.47-5.38a11,11,0,0,0,1.73-8.26,6.25,6.25,0,0,0-2.8-4A1.6,1.6,0,0,0,38.05,126a3.13,3.13,0,0,1,1.34,2,8,8,0,0,1-1.32,5.82c-2,3.09-5.31,4.7-7.31,3.49a1.6,1.6,0,0,0-1.65,2.74A6.16,6.16,0,0,0,32.3,141Z"/><path d="M38.87,126.27a1.6,1.6,0,0,0,.86-3L-13.69,89.38a1.58,1.58,0,0,0-2.2.49,1.58,1.58,0,0,0,.49,2.2L38,126A1.61,1.61,0,0,0,38.87,126.27Z"/><path d="M29.93,140.33a1.6,1.6,0,0,0,.87-3l-53.42-33.94a1.59,1.59,0,0,0-2.2.49,1.59,1.59,0,0,0,.49,2.21l53.41,33.94A1.58,1.58,0,0,0,29.93,140.33Z"/><path d="M40.63,184.84a1.6,1.6,0,0,0,.87-2.94L17.37,166.38a1.6,1.6,0,0,0-1.73,2.69l24.13,15.52A1.57,1.57,0,0,0,40.63,184.84Z"/><path d="M91.83,515a1.67,1.67,0,0,0,.62-.12,1.6,1.6,0,0,0,.86-2.09L52.1,413.14a1.6,1.6,0,1,0-3,1.22L90.36,514A1.59,1.59,0,0,0,91.83,515Z"/><path d="M497.64,463.23a1.62,1.62,0,0,0,1.1-.44,1.6,1.6,0,0,0,.05-2.26l-61-64a1.6,1.6,0,0,0-2.32,2.2l61,64A1.58,1.58,0,0,0,497.64,463.23Z"/><path d="M140.51,356.39a1.59,1.59,0,0,0,1.5-1.07l23.55-66a1.6,1.6,0,1,0-3-1.07l-23.55,66a1.6,1.6,0,0,0,1,2A1.71,1.71,0,0,0,140.51,356.39Z"/><path d="M662.76,281.34a1.61,1.61,0,0,0,1.16-.49L689.5,254.3a1.6,1.6,0,1,0-2.3-2.22l-25.59,26.55a1.6,1.6,0,0,0,1.15,2.71Z"/><path d="M88.61,261a1.63,1.63,0,0,0,.82-.22l25.79-15.47a1.6,1.6,0,1,0-1.64-2.74L87.78,258a1.6,1.6,0,0,0,.83,3Z"/><path d="M80.82,149.43a9.15,9.15,0,0,0,5.08-1.53h0a9.25,9.25,0,1,0-5.08,1.53Zm3.31-4.19a6,6,0,1,1-6.66-10.1,6.05,6.05,0,0,1,9.26,6.26,6.05,6.05,0,0,1-2.6,3.84Z"/><path d="M254.06,269.81a9.12,9.12,0,0,0,2.3-.29h0a9.26,9.26,0,1,0-2.3.29Zm1.51-3.39a6.06,6.06,0,0,1-7.37-4.34,6,6,0,0,1,.64-4.58,6,6,0,1,1,6.73,8.92Z"/><path d="M734,484.33a9.84,9.84,0,0,0,2.33-.29,9.29,9.29,0,1,0-2.33.29ZM734,469a6,6,0,0,1,1.51,11.9h0a6,6,0,0,1-4.59-.64,6.06,6.06,0,0,1,1.56-11.07A6.15,6.15,0,0,1,734,469Z"/><path d="M193.05,362.78a7.92,7.92,0,0,0,.34-15.84,7.81,7.81,0,0,0-5.7,2.07,7.93,7.93,0,0,0,5.36,13.77Zm0-12.65h.21a4.73,4.73,0,1,1-3.4,1.24A4.66,4.66,0,0,1,193,350.13Z"/><path d="M200.46,469.44a8,8,0,0,0,6.61-3.54h0a7.93,7.93,0,1,0-11,2.21A7.84,7.84,0,0,0,200.46,469.44Zm0-12.66a4.73,4.73,0,0,1,3.93,7.35h0a4.73,4.73,0,1,1-3.93-7.35Z"/><path d="M172.79,487.43a5.79,5.79,0,0,0,.83-.06,5.89,5.89,0,1,0-.83.06Zm0-8.69a2.66,2.66,0,0,1,1.65.55,2.74,2.74,0,0,1,.54,3.84,2.76,2.76,0,0,1-3.85.55,2.75,2.75,0,0,1,1.66-4.94Z"/><path d="M465.84,31.61a7.91,7.91,0,1,0-4.38-1.32A7.91,7.91,0,0,0,465.84,31.61Zm0-12.66a4.73,4.73,0,1,1-3.95,2.11A4.72,4.72,0,0,1,465.86,19Z"/><path d="M161.13,427.65a1.6,1.6,0,0,0,.33-3.16l-23.21-4.92a1.6,1.6,0,1,0-.67,3.13l23.21,4.92A1.87,1.87,0,0,0,161.13,427.65Z"/><path d="M600.91,28.56a1.6,1.6,0,0,0,.33-3.17L578,20.47a1.58,1.58,0,0,0-1.89,1.23,1.6,1.6,0,0,0,1.23,1.9l23.21,4.92A1.86,1.86,0,0,0,600.91,28.56Z"/><path d="M271.32,52.1a1.6,1.6,0,0,0,.12-3.2l-103-8.32a1.63,1.63,0,0,0-1.72,1.47,1.6,1.6,0,0,0,1.47,1.72l103,8.32Z"/><path class="cls-9" d="M116.52,96.69a21.75,21.75,0,0,1,5.47,4.23,13.7,13.7,0,0,1,1.24,1.62l4.56-26L108.07,94c.06,0,.12,0,.18,0A20.29,20.29,0,0,1,116.52,96.69Z"/><path class="cls-4" d="M105.29,101.15a12.59,12.59,0,0,0,.95,1.18,20,20,0,0,0,5,3.84,18.23,18.23,0,0,0,7.39,2.42c1.87.12,3.21-.29,3.75-1.12l.22-1.29c-.23-2.07-2.71-5.23-7.08-7.67a18.43,18.43,0,0,0-7.4-2.42,5.79,5.79,0,0,0-2.84.41l-1,.89C103.85,98.27,104.21,99.63,105.29,101.15Z"/><path d="M119.25,111.25c2.63,0,4.56-.89,5.49-2.56,1-1.84.62-4.21-1.14-6.69a20.91,20.91,0,0,0-6.81-5.8c-6.48-3.62-12.85-3.7-14.8-.21h0c-1.95,3.5,1.47,8.87,8,12.49a20.94,20.94,0,0,0,8.51,2.75ZM107.48,96.62A16.85,16.85,0,0,1,115.24,99a18.1,18.1,0,0,1,5.75,4.86c1,1.36,1.33,2.61,1,3.28s-1.6,1-3.3.91a18.11,18.11,0,0,1-7.15-2.35c-5.24-2.93-7.48-6.78-6.72-8.14h0C105.1,97,106.07,96.62,107.48,96.62Z"/><path d="M103.39,98.37a1.58,1.58,0,0,0,1.06-.4l25.94-23a1.6,1.6,0,0,0-2.13-2.39l-25.94,23a1.6,1.6,0,0,0,1.07,2.79Z"/><path d="M123.35,109.51a1.6,1.6,0,0,0,1.57-1.33l6-34.17a1.6,1.6,0,0,0-1.3-1.85,1.62,1.62,0,0,0-1.85,1.3l-6,34.17a1.6,1.6,0,0,0,1.3,1.85A1.33,1.33,0,0,0,123.35,109.51Z"/><path class="cls-8" d="M642,28.6,670.91,41l-30.33,8.31c-2-.27-4-4.61-3.57-10.62S639.94,28.6,642,28.6Z"/><path d="M640.61,51.94a1.6,1.6,0,0,0,.11-3.19c-.76,0-1.62-1-2.23-2.59a18,18,0,0,1-.92-7.48,18,18,0,0,1,1.93-7.28c.82-1.45,1.82-2.34,2.56-2.26a1.57,1.57,0,0,0,1.7-1.49,1.59,1.59,0,0,0-1.48-1.7c-2.09-.17-4.07,1.23-5.56,3.89a20.76,20.76,0,0,0-2.34,8.62,20.88,20.88,0,0,0,1.14,8.87c1.11,2.83,2.88,4.47,5,4.61Z"/><path d="M674.07,42.78a1.61,1.61,0,0,0,1.47-1,1.59,1.59,0,0,0-.84-2.1L642.8,26.07A1.6,1.6,0,1,0,641.54,29l31.9,13.64A1.77,1.77,0,0,0,674.07,42.78Z"/><path d="M640.61,51.94a1.51,1.51,0,0,0,.42,0l33.46-9.17a1.6,1.6,0,1,0-.84-3.08L640.19,48.8a1.61,1.61,0,0,0-1.12,2A1.59,1.59,0,0,0,640.61,51.94Z"/><path class="cls-9" d="M43.39,451.89,28.82,479.75,22.9,448.87c.42-2,4.9-3.61,10.87-2.73S43.56,449.84,43.39,451.89Z"/><path d="M44.44,453.74A1.6,1.6,0,0,0,46,452.38c.31-2.08-.92-4.16-3.45-5.85a21,21,0,0,0-8.42-3c-7.35-1.07-13.32,1.09-13.91,5.06a1.6,1.6,0,0,0,3.16.47c.23-1.55,4.35-3.24,10.29-2.36a18,18,0,0,1,7.11,2.49c1.38.93,2.17,2,2.05,2.73a1.59,1.59,0,0,0,1.35,1.81A1,1,0,0,0,44.44,453.74Z"/><path d="M28.36,484.48a1.61,1.61,0,0,0,1.42-.85l16.07-30.75A1.6,1.6,0,0,0,43,451.4L27,482.14a1.6,1.6,0,0,0,.67,2.16A1.65,1.65,0,0,0,28.36,484.48Z"/><path d="M28.36,484.48a1.51,1.51,0,0,0,.3,0,1.6,1.6,0,0,0,1.27-1.88l-6.54-34.07a1.6,1.6,0,0,0-3.14.6l6.54,34.08A1.6,1.6,0,0,0,28.36,484.48Z"/><polygon class="cls-1" points="163.54 219.63 167.59 202.47 154.6 190.12 150.56 207.29 163.54 219.63"/><polygon class="cls-1" points="187.05 197.09 174.15 184.82 156.15 188.71 169.06 200.99 187.05 197.09"/><polygon class="cls-1" points="165.54 220.28 183.74 216.33 187.8 199.06 169.6 203.01 165.54 220.28"/><polygon class="cls-4" points="154.6 190.12 150.56 207.29 163.54 219.63 167.59 202.47 154.6 190.12"/><polygon class="cls-8" points="165.54 220.28 183.74 216.33 187.8 199.06 169.6 203.01 165.54 220.28"/><polygon class="cls-4" points="187.05 197.09 174.15 184.82 156.15 188.71 169.06 200.99 187.05 197.09"/><path d="M168.74,203.72l.34,0,20.46-4.43a1.62,1.62,0,0,0,1.2-1.13,1.59,1.59,0,0,0-.44-1.59l-14.73-14a1.63,1.63,0,0,0-1.44-.4l-20.46,4.43a1.6,1.6,0,0,0-.77,2.72l14.74,14A1.57,1.57,0,0,0,168.74,203.72Zm17.17-6.95-16.68,3.61L157.29,189,174,185.42Z"/><path d="M164.14,223.24a2,2,0,0,0,.34,0l20.46-4.43a1.61,1.61,0,0,0,1.22-1.2l4.59-19.52a1.6,1.6,0,0,0-.41-1.49,1.63,1.63,0,0,0-1.48-.44l-20.46,4.43a1.61,1.61,0,0,0-1.22,1.2l-4.59,19.52a1.58,1.58,0,0,0,1.55,2Zm19.14-7.37-17,3.68,3.78-16.08,17-3.68Z"/><path d="M164.14,223.24a1.82,1.82,0,0,0,.46-.06,1.61,1.61,0,0,0,1.1-1.17l4.59-19.52a1.59,1.59,0,0,0-.45-1.52l-14.73-14a1.6,1.6,0,0,0-2.66.79l-4.6,19.53a1.6,1.6,0,0,0,.46,1.52l14.73,14A1.58,1.58,0,0,0,164.14,223.24ZM167,202.65l-3.74,15.92L151.17,207.1l3.75-15.91Z"/><path d="M328.65,381a5.94,5.94,0,0,0,.4-11.87,5.77,5.77,0,0,0-4.31,1.45A5.94,5.94,0,0,0,328.65,381Zm0-8.69h.19a2.78,2.78,0,0,1,1.89.94,2.75,2.75,0,1,1-2.08-.94Z"/><path d="M320.59,410.11a1.47,1.47,0,0,0,.36,0l62.68-14.81a1.6,1.6,0,1,0-.73-3.11L320.22,407a1.6,1.6,0,0,0,.37,3.15Z"/><path d="M734.18,35.31a1.57,1.57,0,0,0,.86-.25,1.59,1.59,0,0,0,.48-2.21L700.68-21.31a1.59,1.59,0,0,0-2.21-.48,1.59,1.59,0,0,0-.48,2.2l34.85,54.17A1.6,1.6,0,0,0,734.18,35.31Z"/><path d="M363.67,433.14a1.49,1.49,0,0,0,.65-.14l13.47-6.07a1.6,1.6,0,1,0-1.32-2.92L363,430.09a1.6,1.6,0,0,0,.66,3.05Z"/><path d="M299.43,47.09a5.91,5.91,0,0,0,3.9-1.47h0a6,6,0,0,0,.57-8.39,5.94,5.94,0,0,0-10.41,3.51A6,6,0,0,0,299,47.07Zm0-8.69a2.75,2.75,0,0,1,2.75,2.93,2.78,2.78,0,0,1-.94,1.88h0a2.75,2.75,0,1,1-1.81-4.81Z"/><path d="M371.75,26.65a1.58,1.58,0,0,0,1.12-.46L418.6-19.16a1.6,1.6,0,0,0,0-2.26,1.6,1.6,0,0,0-2.26,0L370.62,23.92a1.6,1.6,0,0,0,0,2.26A1.58,1.58,0,0,0,371.75,26.65Z"/><path d="M221.69,14.51a1.51,1.51,0,0,0,.66-.14L235.82,8.3a1.6,1.6,0,1,0-1.32-2.92L221,11.45a1.6,1.6,0,0,0,.65,3.06Z"/><path d="M76.54,208.89h.2l14.9-1.9a1.65,1.65,0,0,0,1.06-.61,1.62,1.62,0,0,0,.32-1.18l-1.7-13.31,13.31-1.7a1.57,1.57,0,0,0,1.07-.61,1.6,1.6,0,0,0,.32-1.18l-1.9-14.89a1.64,1.64,0,0,0-1.79-1.39A1.6,1.6,0,0,0,101,173.9l1.69,13.31-13.31,1.7a1.57,1.57,0,0,0-1.06.61A1.6,1.6,0,0,0,88,190.7L89.65,204l-13.31,1.7a1.6,1.6,0,0,0,.2,3.18Z"/><path d="M97,401.91a1.39,1.39,0,0,0,.35,0A1.6,1.6,0,0,0,98.55,400L95.31,385.3a1.57,1.57,0,0,0-.7-1,1.64,1.64,0,0,0-1.2-.22L80.3,387l-2.89-13.1a1.61,1.61,0,0,0-1.9-1.22l-14.67,3.24a1.6,1.6,0,0,0,.69,3.12l13.1-2.89,2.9,13.1a1.6,1.6,0,0,0,1.9,1.22l13.11-2.89,2.88,13.1A1.61,1.61,0,0,0,97,401.91Z"/><path d="M87.2,324.66a1.58,1.58,0,0,0,1.14-.49,1.59,1.59,0,0,0,0-2.25L68.74,302.81a1.6,1.6,0,1,0-2.24,2.28L86.08,324.2A1.57,1.57,0,0,0,87.2,324.66Z"/><path d="M67.85,324.89a1.57,1.57,0,0,0,1.14-.48l19.12-19.58a1.6,1.6,0,1,0-2.29-2.23L66.71,322.17a1.6,1.6,0,0,0,1.14,2.72Z"/><path d="M705.22,157.87a1.6,1.6,0,0,0,1.12-2.74L686.76,136a1.6,1.6,0,0,0-2.23,2.29l19.58,19.11A1.59,1.59,0,0,0,705.22,157.87Z"/><path d="M685.88,158.11a1.61,1.61,0,0,0,1.15-.48l19.11-19.58a1.6,1.6,0,1,0-2.29-2.23l-19.11,19.57a1.59,1.59,0,0,0,0,2.26A1.56,1.56,0,0,0,685.88,158.11Z"/><path d="M123,518.09a1.61,1.61,0,0,0,1-.31l12.1-8.89a1.6,1.6,0,0,0,.35-2.24l-8-10.81,10.81-7.95a1.6,1.6,0,0,0,.35-2.23l-7.95-10.82,10.82-7.94a1.63,1.63,0,0,0,.63-1,1.61,1.61,0,0,0-.29-1.18L134,452.56a1.6,1.6,0,1,0-2.58,1.9l8,10.81-10.82,7.94a1.61,1.61,0,0,0-.34,2.24l7.94,10.81-10.81,7.95a1.59,1.59,0,0,0-.34,2.23l7.94,10.82-10.81,7.94a1.6,1.6,0,0,0,.94,2.89Z"/><path d="M123,18.09a1.61,1.61,0,0,0,1-.31l12.1-8.89a1.6,1.6,0,0,0,.64-1.05,1.62,1.62,0,0,0-.29-1.19l-8-10.81,10.81-7.95a1.6,1.6,0,0,0,.35-2.23l-7.95-10.81,10.82-8a1.6,1.6,0,0,0,.34-2.23L134-47.44a1.61,1.61,0,0,0-2.24-.34,1.61,1.61,0,0,0-.34,2.24l8,10.81-10.82,7.95a1.6,1.6,0,0,0-.34,2.23l7.94,10.81-10.81,8a1.59,1.59,0,0,0-.63,1A1.58,1.58,0,0,0,125-3.56L132.9,7.26,122.09,15.2a1.6,1.6,0,0,0,.94,2.89Z"/><path class="cls-4" d="M55.31,66.21c4-4.79.7-14.13-7.37-20.87S30.08,37,26.08,41.82l7.25-8.69c4-4.79,13.78-3.21,21.85,3.52s11.38,16.09,7.38,20.88Z"/><path d="M55.31,67.81a1.63,1.63,0,0,0,1.23-.57h0l7.24-8.68c4.63-5.55,1.3-15.71-7.58-23.12S36.73,26.56,32.1,32.11l-7.25,8.68h0a1.6,1.6,0,0,0,2.46,2.05h0c1.55-1.87,4.38-2.58,7.91-2a25.17,25.17,0,0,1,11.69,5.74A25.07,25.07,0,0,1,54.64,57c1.2,3.39,1,6.28-.56,8.15a1.6,1.6,0,0,0,.21,2.25A1.56,1.56,0,0,0,55.31,67.81ZM40.18,32c4.12,0,9.39,2.09,14,5.92,7.26,6.06,10.54,14.59,7.17,18.62l-2.78,3.34A16.65,16.65,0,0,0,57.66,56,28.42,28.42,0,0,0,49,44.11a28.36,28.36,0,0,0-13.23-6.43,16.34,16.34,0,0,0-4-.19l2.78-3.33A7.05,7.05,0,0,1,40.18,32Z"/><path class="cls-8" d="M55.31,66.21c-4,4.79-13.78,3.22-21.86-3.52S22.08,46.61,26.08,41.82s13.78-3.22,21.86,3.52S59.31,61.42,55.31,66.21Z"/><path d="M48.4,70.6a10.25,10.25,0,0,0,8.14-3.36c2.31-2.77,2.71-6.77,1.12-11.27A28.42,28.42,0,0,0,49,44.11a28.36,28.36,0,0,0-13.23-6.43c-4.71-.77-8.57.35-10.88,3.11s-2.71,6.77-1.12,11.27a28.42,28.42,0,0,0,8.7,11.86C37.69,68.3,43.54,70.6,48.4,70.6ZM33,40.64a14.18,14.18,0,0,1,2.27.19,25.17,25.17,0,0,1,11.69,5.74A25.07,25.07,0,0,1,54.64,57c1.2,3.39,1,6.28-.56,8.15-3.37,4-12.34,2.33-19.6-3.73A25.07,25.07,0,0,1,26.75,51c-1.2-3.39-1-6.28.56-8.15A7,7,0,0,1,33,40.64Z"/><path d="M16.38,369.48a10.6,10.6,0,0,0,2.43-.28c5.73-1.34,9.93-6.42,11-13.28a1.6,1.6,0,1,0-3.16-.47c-.83,5.53-4.1,9.61-8.53,10.64S8.7,363.78,4,360.28c-4.45-3.29-10.52-7.8-16.74-6.34-5.73,1.34-9.93,6.42-11,13.28A1.61,1.61,0,0,0-22.4,369a1.62,1.62,0,0,0,1.82-1.35c.83-5.53,4.1-9.61,8.53-10.64s9,2,14.11,5.8C6.65,366.24,11.49,369.48,16.38,369.48Z"/><path class="cls-4" d="M725.47,101.53a3.61,3.61,0,0,0,1.59,2.36,3.51,3.51,0,0,0,2,.47c2.07-.09,4.51-1.66,6.08-4.14A8.46,8.46,0,0,0,736.51,94a3.66,3.66,0,0,0-1.59-2.36h0c-2.25-1.34-5.93.34-8,3.68A8.46,8.46,0,0,0,725.47,101.53Z"/><path class="cls-9" d="M736.88,101.34a10.92,10.92,0,0,1-6.24,4.83l49.85,31.67c2.23,1.34,5.92-.33,8-3.67a8.53,8.53,0,0,0,1.39-6.25,3.69,3.69,0,0,0-1.6-2.36h0L738.59,94A10.73,10.73,0,0,1,736.88,101.34Z"/><path d="M728.89,107c3,0,6.3-2,8.46-5.38a11,11,0,0,0,1.73-8.26,6.13,6.13,0,0,0-2.8-4c-3.56-2.15-8.68-.17-11.65,4.51a11,11,0,0,0-1.73,8.27,6,6,0,0,0,6,4.88Zm4.21-15.33a2.94,2.94,0,0,1,1.53.4,3.13,3.13,0,0,1,1.34,2,8,8,0,0,1-1.32,5.82h0c-2,3.09-5.31,4.69-7.3,3.49a3.11,3.11,0,0,1-1.34-2,8,8,0,0,1,1.32-5.83C728.85,93.19,731.19,91.69,733.1,91.69Z"/><path d="M788.87,126.27a1.6,1.6,0,0,0,.86-3L736.31,89.38a1.59,1.59,0,1,0-1.71,2.69L788,126A1.56,1.56,0,0,0,788.87,126.27Z"/><path d="M779.94,140.33a1.6,1.6,0,0,0,.86-3l-53.42-33.94a1.6,1.6,0,1,0-1.71,2.7l53.41,33.94A1.59,1.59,0,0,0,779.94,140.33Z"/><path d="M766.38,369.48a10.6,10.6,0,0,0,2.43-.28c5.73-1.34,9.93-6.42,11-13.28a1.6,1.6,0,1,0-3.16-.47c-.83,5.53-4.1,9.61-8.53,10.64s-9.38-2.31-14.12-5.81c-4.45-3.29-10.54-7.8-16.74-6.34-5.73,1.34-9.93,6.42-11,13.28a1.6,1.6,0,1,0,3.16.47c.83-5.53,4.1-9.61,8.53-10.64s9,2,14.11,5.8C756.64,366.24,761.48,369.48,766.38,369.48Z"/><polygon class="cls-1" points="270.5 437.74 267.9 436.22 255.28 428.86 253.43 447.13 268.65 456.01 269.88 443.88 270.5 437.74"/><polygon class="cls-1" points="287.4 427.37 272.3 418.57 256.52 427.17 271.62 435.98 287.4 427.37"/><polygon class="cls-1" points="272.59 437.83 270.76 455.86 286.46 447.31 288.28 429.27 272.59 437.83"/><polygon class="cls-4" points="270.5 437.74 267.9 436.22 255.28 428.86 253.43 447.13 268.65 456.01 269.88 443.88 270.5 437.74"/><polygon class="cls-9" points="270.76 455.86 286.46 447.31 288.28 429.27 272.59 437.83 270.76 455.86"/><polygon class="cls-9" points="287.4 427.37 272.3 418.57 256.52 427.17 271.62 435.98 287.4 427.37"/><path d="M269.53,459.33a1.64,1.64,0,0,0,.77-.2l17.91-9.77a1.62,1.62,0,0,0,.82-1.24l2.08-20.55a1.6,1.6,0,0,0-2.36-1.57l-17.91,9.77A1.61,1.61,0,0,0,270,437l-2.08,20.55a1.6,1.6,0,0,0,.71,1.49A1.55,1.55,0,0,0,269.53,459.33ZM285.93,447l-14.51,7.91,1.69-16.69,14.52-7.92Z"/><path d="M269.53,459.33a1.58,1.58,0,0,0,.73-.18,1.59,1.59,0,0,0,.86-1.26l2.08-20.55a1.6,1.6,0,0,0-.79-1.54l-17.2-10a1.61,1.61,0,0,0-2.4,1.22l-2.08,20.56a1.6,1.6,0,0,0,.79,1.54l17.21,10A1.6,1.6,0,0,0,269.53,459.33Zm.38-21.29-1.72,17L254,446.83l1.72-17.05Z"/><path d="M271.61,438.78a1.6,1.6,0,0,0,.76-.2l17.92-9.77a1.62,1.62,0,0,0,.83-1.38,1.6,1.6,0,0,0-.8-1.41l-17.2-10a1.62,1.62,0,0,0-1.57,0l-17.91,9.77a1.59,1.59,0,0,0-.84,1.38,1.61,1.61,0,0,0,.8,1.4l17.2,10A1.67,1.67,0,0,0,271.61,438.78Zm14.66-11.42-14.64,8-14-8.15,14.63-8Z"/><path class="cls-9" d="M535.7,474.21l-21.27,29.35c-1.84,2.66-.22,7,3.6,9.74s8.41,2.75,10.25.09l21.28-29.34c-1.84,2.66-6.42,2.62-10.25-.1S533.87,476.88,535.7,474.21Z"/><path class="cls-4" d="M539.31,484c3.83,2.72,8.41,2.76,10.25.09s.21-7-3.61-9.74-8.41-2.75-10.25-.09S535.49,481.24,539.31,484Z"/><path d="M545.27,487.61a8.72,8.72,0,0,0,1.46-.12,6.14,6.14,0,0,0,4.14-2.54c2.36-3.43.6-8.68-4-11.95a11.45,11.45,0,0,0-8.34-2.23,6.14,6.14,0,0,0-4.14,2.54c-2.37,3.43-.61,8.68,4,11.95A12.19,12.19,0,0,0,545.27,487.61ZM540,473.84a8.88,8.88,0,0,1,5,1.77c3.06,2.17,4.53,5.62,3.22,7.53a3.11,3.11,0,0,1-2.06,1.2,8.28,8.28,0,0,1-5.94-1.69c-3.06-2.17-4.53-5.62-3.22-7.53a3.07,3.07,0,0,1,2.06-1.2A4.94,4.94,0,0,1,540,473.84Z"/><path d="M528.28,515a1.59,1.59,0,0,0,1.29-.66L550.85,485a1.6,1.6,0,0,0-2.59-1.87L527,512.45a1.6,1.6,0,0,0,1.3,2.54Z"/><path d="M514.42,505.15a1.6,1.6,0,0,0,1.3-.66L537,475.15a1.6,1.6,0,0,0-2.59-1.88l-21.28,29.35a1.59,1.59,0,0,0,.36,2.23A1.61,1.61,0,0,0,514.42,505.15Z"/><path class="cls-9" d="M535.7-25.79,514.43,3.56c-1.84,2.66-.22,7,3.6,9.74s8.41,2.75,10.25.09l21.28-29.34c-1.84,2.66-6.42,2.62-10.25-.1S533.87-23.12,535.7-25.79Z"/><path d="M524,17a8,8,0,0,0,1.47-.13,6.13,6.13,0,0,0,4.13-2.53A1.6,1.6,0,1,0,527,12.48a3.13,3.13,0,0,1-2.06,1.21A8.3,8.3,0,0,1,519,12c-3.06-2.17-4.53-5.62-3.22-7.53a1.6,1.6,0,0,0-2.63-1.81c-2.36,3.43-.61,8.68,4,12A12.2,12.2,0,0,0,524,17Z"/><path d="M528.28,15a1.59,1.59,0,0,0,1.29-.66L550.85-15a1.59,1.59,0,0,0-.36-2.23,1.59,1.59,0,0,0-2.23.36L527,12.45a1.61,1.61,0,0,0,.36,2.23A1.56,1.56,0,0,0,528.28,15Z"/><path d="M514.42,5.15a1.57,1.57,0,0,0,1.3-.66L537-24.85a1.59,1.59,0,0,0-.36-2.23,1.59,1.59,0,0,0-2.23.35L513.13,2.62a1.59,1.59,0,0,0,.36,2.23A1.54,1.54,0,0,0,514.42,5.15Z"/><path class="cls-8" d="M717.38,227.64l18.33-31.27c1.57-2.83-.46-7-4.53-9.35s-8.64-1.93-10.21.9l-18.33,31.27c1.57-2.83,6.14-3.23,10.21-.9S719,224.81,717.38,227.64Z"/><path class="cls-4" d="M712.85,218.29c-4.07-2.33-8.64-1.93-10.21.9s.47,7,4.54,9.35,8.64,1.93,10.2-.9S716.92,220.62,712.85,218.29Z"/><path d="M712.53,231.65a8.82,8.82,0,0,0,2.38-.31,6.18,6.18,0,0,0,3.87-2.93c2-3.64-.24-8.7-5.14-11.5h0a11.5,11.5,0,0,0-8.52-1.42,6.17,6.17,0,0,0-3.88,2.93c-2,3.65.25,8.7,5.14,11.51A12.56,12.56,0,0,0,712.53,231.65Zm-5-13.28a9.36,9.36,0,0,1,4.52,1.31h0c3.26,1.86,5.06,5.15,3.93,7.18a3.12,3.12,0,0,1-1.93,1.4,8.33,8.33,0,0,1-6.08-1.11c-3.25-1.86-5.05-5.15-3.93-7.18a3.11,3.11,0,0,1,1.94-1.4A5.93,5.93,0,0,1,707.53,218.37Zm5.32-.08h0Z"/><path d="M735.71,198a1.6,1.6,0,0,0,1.4-.83c2-3.64-.24-8.7-5.14-11.5a11.49,11.49,0,0,0-8.52-1.42,6.13,6.13,0,0,0-3.87,2.93,1.6,1.6,0,1,0,2.79,1.55,3.13,3.13,0,0,1,1.94-1.4,8.26,8.26,0,0,1,6.07,1.11c3.26,1.86,5.06,5.15,3.93,7.18a1.62,1.62,0,0,0,.63,2.18A1.64,1.64,0,0,0,735.71,198Z"/><path d="M702.64,220.79A1.59,1.59,0,0,0,704,220l18.33-31.27a1.6,1.6,0,1,0-2.76-1.62l-18.33,31.27a1.6,1.6,0,0,0,1.38,2.41Z"/><path d="M717.38,229.24a1.61,1.61,0,0,0,1.38-.79l18.33-31.27a1.6,1.6,0,0,0-2.76-1.62L716,226.83a1.61,1.61,0,0,0,.57,2.19A1.73,1.73,0,0,0,717.38,229.24Z"/><path d="M736.58,290.56a1.6,1.6,0,0,0,1.5-1.06l27.14-74.72a1.6,1.6,0,1,0-3-1.09l-27.14,74.72a1.6,1.6,0,0,0,.95,2A1.78,1.78,0,0,0,736.58,290.56Z"/><path d="M-13.42,290.56a1.59,1.59,0,0,0,1.5-1.06l27.14-74.72a1.6,1.6,0,1,0-3-1.09l-27.14,74.72a1.6,1.6,0,0,0,1,2A1.71,1.71,0,0,0-13.42,290.56Z"/><path d="M695.74,382.82a1.57,1.57,0,0,0,1.29-.66,1.59,1.59,0,0,0-.36-2.23l-21.25-15.36a1.6,1.6,0,1,0-1.88,2.59l21.26,15.36A1.62,1.62,0,0,0,695.74,382.82Z"/><path class="cls-8" d="M301,495a21.68,21.68,0,0,1-6.28,2.88,13.85,13.85,0,0,1-2,.34l20.94,16.13-6.35-25.6-.08.17A20.33,20.33,0,0,1,301,495Z"/><path class="cls-4" d="M302.31,482.94a10.22,10.22,0,0,0-1.48.3,19.84,19.84,0,0,0-5.73,2.63,18.19,18.19,0,0,0-5.57,5.42c-1,1.6-1.24,3-.75,3.83l1,.81c1.94.76,5.89,0,10.08-2.72a18.23,18.23,0,0,0,5.58-5.42,6,6,0,0,0,1-2.71l-.32-1.29C305.53,483,304.16,482.69,302.31,482.94Z"/><path d="M291.5,498.87a12.3,12.3,0,0,0,1.56-.11,21,21,0,0,0,8.29-3.34c6.21-4.06,9.25-9.65,7.06-13h0c-2.19-3.35-8.54-2.82-14.75,1.24a21,21,0,0,0-6.39,6.26c-1.58,2.6-1.82,5-.67,6.75C287.54,498.11,289.26,498.87,291.5,498.87Zm14.23-14.71c.86,1.31-1.11,5.3-6.13,8.59a18.06,18.06,0,0,1-7,2.84c-1.65.22-2.94,0-3.35-.67s-.14-1.92.72-3.34a17.91,17.91,0,0,1,5.41-5.25c5-3.28,9.47-3.47,10.32-2.17Z"/><path d="M315.42,518.56a1.74,1.74,0,0,0,.39,0,1.6,1.6,0,0,0,1.16-1.94l-8.35-33.67a1.6,1.6,0,0,0-3.1.77l8.35,33.67A1.61,1.61,0,0,0,315.42,518.56Z"/><path d="M315.42,518.56a1.63,1.63,0,0,0,1.27-.62,1.61,1.61,0,0,0-.29-2.25l-27.49-21.17a1.6,1.6,0,0,0-2,2.54l27.49,21.17A1.6,1.6,0,0,0,315.42,518.56Z"/><path d="M734.18,535.31a1.57,1.57,0,0,0,.86-.25,1.59,1.59,0,0,0,.48-2.21l-34.84-54.16a1.6,1.6,0,1,0-2.69,1.73l34.85,54.16A1.6,1.6,0,0,0,734.18,535.31Z"/><path d="M371.75,526.65a1.58,1.58,0,0,0,1.12-.46l45.73-45.35a1.6,1.6,0,0,0-2.25-2.27l-45.73,45.35a1.6,1.6,0,0,0,0,2.26A1.58,1.58,0,0,0,371.75,526.65Z"/><path d="M91.83,15a1.67,1.67,0,0,0,.62-.12,1.6,1.6,0,0,0,.86-2.09L52.1-86.86A1.6,1.6,0,0,0,50-87.73a1.6,1.6,0,0,0-.86,2.09L90.36,14A1.59,1.59,0,0,0,91.83,15Z"/></g></svg>