<svg xmlns="http://www.w3.org/2000/svg" viewBox="0 0 500 436.53"><path d="M480.34,410.9H12.24c-.4,0-.7-.8-.7-1.8s.3-1.8.7-1.8h468.2" fill="#7d38ce"/><path d="M303.64,215h29.2v38.3h-29.2Zm-46.8,0H286v38.3h-29.2Zm93.5,0h29.2v38.3h-29.2Zm-9.8-111.2V99H296v4.8a48.44,48.44,0,0,1-30.8,45.1h106.1a48.44,48.44,0,0,1-30.8-45.1Zm3.9,37.8a1.69,1.69,0,0,1-1.7,1.7h-49.1a1.69,1.69,0,0,1-1.7-1.7V137a1.69,1.69,0,0,1,1.7-1.7h2.8a21.76,21.76,0,0,1,43.4,0h2.8a1.69,1.69,0,0,1,1.7,1.7v4.6Z" fill="none"/><path d="M249.34,335.9h138V338h-138Zm0-183.6h138v2.5h-138Zm126,31.4h4.4v6h-4.4Zm0-17.8h4.4V171h-4.4Zm0,8.4h4.4v6h-4.4Zm0,18.8h4.4v5.1h-4.4Zm-.2,174.5h4.4v6h-4.4Zm0-17.8h4.4v5.1h-4.4Zm0-46.2h4.4v6h-4.4Zm0-17.7h4.4V291h-4.4Zm-8.3-29.3h12.7v11.3h-12.7Zm8.3,37.6h4.4v6h-4.4Zm0,18.8h4.4v5.1h-4.4Zm0,45.2h4.4v6h-4.4Zm0,18.8h4.4v5.1h-4.4Zm-8.3-183.9H372v5.1h-5.2Zm0-9.4H372v6h-5.2Zm0-9.4H372v6h-5.2Zm0-8.4H372V171h-5.2Zm-.2,211.1h5.2v5.1h-5.2Zm0-9.4h5.2v6h-5.2Zm0-9.4h5.2v6h-5.2Zm0-8.4h5.2v5.1h-5.2Zm0-36.8h5.2v5.1h-5.2Zm0-9.4h5.2v6h-5.2Zm0-9.4h5.2v6h-5.2Zm0-8.3h5.2V291h-5.2Zm-8.5-92.8h5.3v5.1h-5.3Zm0-9.4h5.3v6h-5.3Zm0-9.4h5.3v6h-5.3Zm0-8.4h5.3V171h-5.3Zm-.2,211.1h5.4v5.1h-5.4Zm0-9.4h5.4v6h-5.4Zm0-9.4h5.4v6h-5.4Zm0-8.4h5.4v5.1h-5.4Zm0-36.8h5.4v5.1h-5.4Zm0-9.4h5.4v6h-5.4Zm0-9.4h5.4v6h-5.4Zm0-8.3h5.4V291h-5.4Zm-7.4-92.8h4.3v5.1h-4.3Zm0-9.4h4.3v6h-4.3Zm0-9.4h4.3v6h-4.3Zm0-8.4h4.3V171h-4.3Zm-.2,211.1h4.3v5.1h-4.3Zm0-9.4h4.3v6h-4.3Zm0-9.4h4.3v6h-4.3Zm0-8.4h4.3v5.1h-4.3Zm0-36.8h4.3v5.1h-4.3Zm0-9.4h4.3v6h-4.3Zm0-9.4h4.3v6h-4.3Zm0-8.3h4.3V291h-4.3Zm0-29.3h13.1v11.3h-13.1Zm-3.6-55.2h36.8v.9h-36.8Zm-.2,69.8h36.8v.9h-36.8Zm0,50.2h36.8v.9h-36.8Zm0,64h36.8v.9h-36.8Z" fill="none"/><path d="M387.34,406V341.3h-138V406h51.4V348.2a1.69,1.69,0,0,1,1.7-1.7h31.9a1.69,1.69,0,0,1,1.7,1.7V406Zm-94.2-18.1a1.69,1.69,0,0,1-1.7,1.7h-40.1a1.69,1.69,0,0,1-1.7-1.7v-4.2a1.69,1.69,0,0,1,1.7-1.7h2.1V348.2a1.69,1.69,0,0,1,1.7-1.7h32.5a1.69,1.69,0,0,1,1.7,1.7V382h2.1a1.69,1.69,0,0,1,1.7,1.7v4.2Zm50.1-4.2a1.69,1.69,0,0,1,1.7-1.7H347V348.2a1.69,1.69,0,0,1,1.7-1.7h32.5a1.69,1.69,0,0,1,1.7,1.7V382H385a1.69,1.69,0,0,1,1.7,1.7v4.2a1.69,1.69,0,0,1-1.7,1.7h-40.1a1.69,1.69,0,0,1-1.7-1.7v-4.2Zm44.1-225.6h-138V332.5h138Zm-94.2,165.8a1.69,1.69,0,0,1-1.7,1.7h-40.1a1.69,1.69,0,0,1-1.7-1.7v-4.2a1.69,1.69,0,0,1,1.7-1.7h2.1V284.2a1.69,1.69,0,0,1,1.7-1.7h32.5a1.69,1.69,0,0,1,1.7,1.7V318h2.1a1.69,1.69,0,0,1,1.7,1.7v4.2Zm0-50.2a1.69,1.69,0,0,1-1.7,1.7h-40.1a1.69,1.69,0,0,1-1.7-1.7v-4.2a1.69,1.69,0,0,1,1.7-1.7h2.1V213.3a1.69,1.69,0,0,1,1.7-1.7h32.5a1.69,1.69,0,0,1,1.7,1.7v54.5h2.1a1.69,1.69,0,0,1,1.7,1.7v4.2Zm.2-69.7a1.69,1.69,0,0,1-1.7,1.7h-40.1a1.69,1.69,0,0,1-1.7-1.7v-4.2a1.69,1.69,0,0,1,1.7-1.7h2.1V164.3a1.69,1.69,0,0,1,1.7-1.7h32.5a1.69,1.69,0,0,1,1.7,1.7v33.8h2.1a1.69,1.69,0,0,1,1.7,1.7V204Zm46.6,119.9a1.69,1.69,0,0,1-1.7,1.7h-40.1a1.69,1.69,0,0,1-1.7-1.7v-4.2a1.69,1.69,0,0,1,1.7-1.7h2.1V284.2a1.69,1.69,0,0,1,1.7-1.7h32.5a1.69,1.69,0,0,1,1.7,1.7V318h2.1a1.69,1.69,0,0,1,1.7,1.7v4.2Zm0-50.2a1.69,1.69,0,0,1-1.7,1.7h-40.1a1.69,1.69,0,0,1-1.7-1.7v-4.2a1.69,1.69,0,0,1,1.7-1.7h2.1V213.3a1.69,1.69,0,0,1,1.7-1.7h32.5a1.69,1.69,0,0,1,1.7,1.7v54.5h2.1a1.69,1.69,0,0,1,1.7,1.7v4.2Zm.2-69.7a1.69,1.69,0,0,1-1.7,1.7h-40.1a1.69,1.69,0,0,1-1.7-1.7v-4.2a1.69,1.69,0,0,1,1.7-1.7h2.1v-34a1.69,1.69,0,0,1,1.7-1.7h32.5a1.69,1.69,0,0,1,1.7,1.7v33.8h2.1a1.69,1.69,0,0,1,1.7,1.7V204Zm46.6,119.9a1.69,1.69,0,0,1-1.7,1.7h-40.1a1.69,1.69,0,0,1-1.7-1.7v-4.2a1.69,1.69,0,0,1,1.7-1.7H347V284.2a1.69,1.69,0,0,1,1.7-1.7h32.5a1.69,1.69,0,0,1,1.7,1.7V318H385a1.69,1.69,0,0,1,1.7,1.7v4.2Zm0-50.2a1.69,1.69,0,0,1-1.7,1.7h-40.1a1.69,1.69,0,0,1-1.7-1.7v-4.2a1.69,1.69,0,0,1,1.7-1.7H347V213.3a1.69,1.69,0,0,1,1.7-1.7h32.5a1.69,1.69,0,0,1,1.7,1.7v54.5H385a1.69,1.69,0,0,1,1.7,1.7v4.2Zm-1.5-68h-40.1a1.69,1.69,0,0,1-1.7-1.7v-4.2a1.69,1.69,0,0,1,1.7-1.7h2.1V164.3a1.69,1.69,0,0,1,1.7-1.7h32.5a1.69,1.69,0,0,1,1.7,1.7v33.8h2.1a1.69,1.69,0,0,1,1.7,1.7V204a1.75,1.75,0,0,1-1.7,1.7Z" fill="none"/><path d="M328.54,183.7h4.4v6h-4.4Zm0-17.8h4.4V171h-4.4Zm0,8.4h4.4v6h-4.4Zm0,18.8h4.4v5.1h-4.4Zm-.2,110.5h4.4v6h-4.4Zm0-17.7h4.4V291h-4.4ZM320,256.6h12.7v11.3H320Zm8.3,37.6h4.4v6h-4.4Zm0,18.8h4.4v5.1h-4.4Zm-.1,41.7h-19.9V406h19.9Zm-1.5,30.3a1.7,1.7,0,1,1-3.4,0v-7.1a1.7,1.7,0,0,1,3.4,0ZM320,193.1h5.2v5.1H320Zm0-9.4h5.2v6H320Zm0-9.4h5.2v6H320Zm0-8.4h5.2V171H320Zm-.2,147.1H325v5.1h-5.2Zm0-9.4H325v6h-5.2Zm0-9.4H325v6h-5.2Zm0-8.3H325V291h-5.2ZM296.24,95.7h44.2a22.16,22.16,0,0,0-44.2,0Zm3.7,39.7h36.7a18.42,18.42,0,0,0-36.7,0Zm11.5,57.7h5.3v5.1h-5.3Zm0-9.4h5.3v6h-5.3Zm0-9.4h5.3v6h-5.3Zm0-8.4h5.3V171h-5.3Zm-.2,147.1h5.3v5.1h-5.3Zm0-9.4h5.3v6h-5.3Zm0-9.4h5.3v6h-5.3Zm0-8.3h5.3V291h-5.3Zm-7.4-92.8h4.3v5.1h-4.3Zm0-9.4h4.3v6h-4.3Zm0-9.4h4.3v6h-4.3Zm0-8.4h4.3V171h-4.3Zm-.2,147.1h4.3v5.1h-4.3Zm0-9.4h4.3v6h-4.3Zm0-9.4h4.3v6h-4.3Zm0-8.3h4.3V291h-4.3Z" fill="none"/><path d="M332.54,406V349.9H304V406h1V353a1.69,1.69,0,0,1,1.7-1.7h23.2a1.69,1.69,0,0,1,1.7,1.7v53Zm-28.9-149.4h13.1v11.3h-13.1ZM300,201.4h36.8v.9H300Zm-.2,69.8h36.8v.9h-36.8Zm0,50.2h36.8v.9h-36.8Zm-4.4-182.7h45.7v1.2h-45.7Zm-13.7,45h4.4v6h-4.4Zm0-17.8h4.4V171h-4.4Zm0,8.4h4.4v6h-4.4Zm0,18.8h4.4v5.1h-4.4Zm-.2,174.5h4.4v6h-4.4Zm0-17.8h4.4v5.1h-4.4Zm0-46.2h4.4v6h-4.4Zm0-17.7h4.4V291h-4.4Zm-8.3-29.3h12.7v11.3h-12.7Zm8.3,37.6h4.4v6h-4.4Zm0,18.8h4.4v5.1h-4.4Zm0,45.2h4.4v6h-4.4Zm0,18.8h4.4v5.1h-4.4Zm-8.3-183.9h5.2v5.1h-5.2Zm0-9.4h5.2v6h-5.2Zm0-9.4h5.2v6h-5.2Zm0-8.4h5.2V171h-5.2ZM273,377h5.2v5.1H273Zm0-9.4h5.2v6H273Zm0-9.4h5.2v6H273Zm0-8.4h5.2v5.1H273Zm0-36.8h5.2v5.1H273Zm0-9.4h5.2v6H273Zm0-9.4h5.2v6H273Zm0-8.3h5.2V291H273Zm-8.4-92.8h5.3v5.1h-5.3Zm0-9.4h5.3v6h-5.3Zm0-9.4h5.3v6h-5.3Zm0-8.4h5.3V171h-5.3Zm-.2,211.1h5.4v5.1h-5.4Zm0-9.4h5.4v6h-5.4Zm0-9.4h5.4v6h-5.4Zm0-8.4h5.4v5.1h-5.4Zm0-36.8h5.4v5.1h-5.4Zm0-9.4h5.4v6h-5.4Zm0-9.4h5.4v6h-5.4Zm0-8.3h5.4V291h-5.4ZM257,193.1h4.3v5.1H257Zm0-9.4h4.3v6H257Zm0-9.4h4.3v6H257Zm0-8.4h4.3V171H257Zm-.2,211.1h4.3v5.1h-4.3Zm0-9.4h4.3v6h-4.3Zm0-9.4h4.3v6h-4.3Zm0-8.4h4.3v5.1h-4.3Zm0-36.8h4.3v5.1h-4.3Zm0-9.4h4.3v6h-4.3Zm0-9.4h4.3v6h-4.3Zm0-8.3h4.3V291h-4.3Zm0-29.3h13.1v11.3h-13.1Zm-3.6-55.2H290v.9h-36.8Zm-.2,69.8h36.8v.9H253Zm0,50.2h36.8v.9H253Zm0,64h36.8v.9H253Z" fill="none"/><path d="M291.44,318h-2.1V284.2a1.69,1.69,0,0,0-1.7-1.7h-32.5a1.69,1.69,0,0,0-1.7,1.7V318h-2.1a1.69,1.69,0,0,0-1.7,1.7v4.2a1.69,1.69,0,0,0,1.7,1.7h40.1a1.69,1.69,0,0,0,1.7-1.7v-4.2a1.69,1.69,0,0,0-1.7-1.7Zm-1.6,4.3H253v-.9h36.8ZM273,309.6v-6h5.2v6Zm8.5-6h4.4v6h-4.4Zm0-9.4h4.4v6h-4.4Zm-3.3,6.1H273v-6h5.2Zm-8.5,0h-5.4v-6h5.4Zm-8.7,0h-4.3v-6H261Zm3.4,3.3h5.4v6h-5.4Zm5.3,9.4v5.1h-5.4V313Zm3.3,0h5.2v5.1H273Zm-16.2-9.4h4.3v6h-4.3Zm24.7,14.4v-5.1h4.4V318Zm4.5-27.1h-4.5v-5.1h4.4v5.1Zm-7.8,0H273v-5.1h5.2Zm-8.5,0h-5.4v-5.1h5.4Zm-8.7,0h-4.3v-5.1H261Zm-4.2,22.1h4.3v5.1h-4.3Zm34.6,69h-2.1V348.2a1.69,1.69,0,0,0-1.7-1.7h-32.5a1.69,1.69,0,0,0-1.7,1.7V382h-2.1a1.69,1.69,0,0,0-1.7,1.7v4.2a1.69,1.69,0,0,0,1.7,1.7h40.1a1.69,1.69,0,0,0,1.7-1.7v-4.2a1.69,1.69,0,0,0-1.7-1.7Zm-1.6,4.3H253v-.9h36.8ZM286,354.9h-4.5v-5.1h4.4v5.1ZM273,382v-5.1h5.2V382Zm-8.6,0v-5.1h5.4V382Zm13.8-17.7H273v-6h5.2Zm-5.2,9.4v-6h5.2v6Zm8.5-6.1h4.4v6h-4.4v-6Zm0-9.4h4.4v6h-4.4v-6Zm-11.8,0v6h-5.4v-6Zm-8.7,6.1h-4.3v-6H261Zm3.4,3.3h5.4v6h-5.4Zm13.8-12.7H273v-5.1h5.2Zm-8.5,0h-5.4v-5.1h5.4Zm-12.9,12.7h4.3v6h-4.3Zm24.7,14.4v-5.1h4.4V382ZM261,349.8v5.1h-4.3v-5.1Zm-4.2,27.2h4.3v5.1h-4.3Zm34.8-178.9h-2.1V164.3a1.69,1.69,0,0,0-1.7-1.7h-32.5a1.69,1.69,0,0,0-1.7,1.7v33.8h-2.1a1.69,1.69,0,0,0-1.7,1.7V204a1.69,1.69,0,0,0,1.7,1.7h40.1a1.69,1.69,0,0,0,1.7-1.7v-4.2A1.69,1.69,0,0,0,291.64,198.1Zm-1.6,4.2h-36.8v-.9H290Zm-20.1-36.4V171h-5.3v-5.1Zm8.5,0V171h-5.2v-5.1Zm7.8,0V171h-4.4v-5.1Zm-7.8,14.5h-5.2v-6h5.2Zm-5.2,9.3v-6h5.2v6Zm8.5-6h4.4v6h-4.4Zm0-9.4h4.4v6h-4.4Zm-11.8,0v6h-5.3v-6Zm-8.7,6.1h-4.3v-6h4.3Zm3.4,3.3h5.3v6h-5.3Zm5.3,9.4v5.1h-5.3v-5.1Zm3.3,0h5.2v5.1h-5.2ZM257,183.7h4.3v6H257Zm24.7,14.4V193h4.4v5.1Zm-20.5-32.2V171h-4.3v-5.1ZM257,193.1h4.3v5.1H257Zm34.4,74.7h-2.1V213.3a1.69,1.69,0,0,0-1.7-1.7h-32.5a1.69,1.69,0,0,0-1.7,1.7v54.5h-2.1a1.69,1.69,0,0,0-1.7,1.7v4.2a1.69,1.69,0,0,0,1.7,1.7h40.1a1.69,1.69,0,0,0,1.7-1.7v-4.2a1.69,1.69,0,0,0-1.7-1.7Zm-1.6,4.3H253v-.9h36.8ZM286,253.3h-29.2V215H286Zm-12.8,14.5V256.5h12.7v11.3Zm-16.4-11.2h13.1v11.3h-13.1Zm81.4,61.4h-2.1V284.2a1.69,1.69,0,0,0-1.7-1.7h-32.5a1.69,1.69,0,0,0-1.7,1.7V318h-2.1a1.69,1.69,0,0,0-1.7,1.7v4.2a1.69,1.69,0,0,0,1.7,1.7h40.1a1.69,1.69,0,0,0,1.7-1.7v-4.2a1.75,1.75,0,0,0-1.7-1.7Zm-1.6,4.3h-36.8v-.9h36.8Zm-16.8-12.7v-6H325v6Zm8.5-6h4.4v6h-4.4Zm0-9.4h4.4v6h-4.4Zm-3.3,6.1h-5.2v-6H325Zm-8.5,0h-5.3v-6h5.3Zm-8.7,0h-4.3v-6h4.3v6Zm3.4,3.3h5.3v6h-5.3Zm5.3,9.4v5.1h-5.3V313Zm3.3,0H325v5.1h-5.2Zm-16.2-9.4h4.3v6h-4.3Zm24.7,14.4v-5.1h4.4V318Zm4.5-27.1h-4.4v-5.1h4.4Zm-7.8,0h-5.2v-5.1H325Zm-8.5,0h-5.3v-5.1h5.3Zm-8.7,0h-4.3v-5.1h4.3Zm-4.2,22.1h4.3v5.1h-4.3Zm34.8-114.9h-2.1V164.3a1.69,1.69,0,0,0-1.7-1.7h-32.5a1.69,1.69,0,0,0-1.7,1.7v33.9h-2.1a1.69,1.69,0,0,0-1.7,1.7v4.2a1.69,1.69,0,0,0,1.7,1.7h40.1a1.69,1.69,0,0,0,1.7-1.7v-4.2a1.77,1.77,0,0,0-1.7-1.8Zm-1.6,4.2H300v-.9h36.8Zm-20.1-36.4V171h-5.3v-5.1Zm8.5,0V171H320v-5.1Zm7.7,0V171h-4.4v-5.1Zm0,14.5h-4.4v-6h4.4Zm0,9.3h-4.4v-6h4.4Zm-7.7-9.3H320v-6h5.2Zm-5.2,9.3v-6h5.2v6Zm-3.3-15.4v6h-5.3v-6Zm-8.7,6.1h-4.3v-6H308Zm0,3.3v6h-4.3v-6Zm3.4,0h5.3v6h-5.3Zm5.3,9.4v5.1h-5.3v-5.1Zm3.3,0h5.2v5.1H320Zm8.5,5V193h4.4v5.1ZM308,165.9V171h-4.3v-5.1Zm0,27.2v5.1h-4.3v-5.1Zm30.2,74.7h-2.1V213.3a1.69,1.69,0,0,0-1.7-1.7h-32.5a1.69,1.69,0,0,0-1.7,1.7v54.5h-2.1a1.69,1.69,0,0,0-1.7,1.7v4.2a1.69,1.69,0,0,0,1.7,1.7h40.1a1.69,1.69,0,0,0,1.7-1.7v-4.2a1.75,1.75,0,0,0-1.7-1.7Zm-1.6,4.3h-36.8v-.9h36.8Zm-3.8-18.8h-29.2V215h29.2ZM320,267.8V256.5h12.7v11.3Zm-16.4-11.2h13.1v11.3h-13.1ZM385,318h-2.1V284.2a1.69,1.69,0,0,0-1.7-1.7h-32.5a1.69,1.69,0,0,0-1.7,1.7V318h-2.1a1.69,1.69,0,0,0-1.7,1.7v4.2a1.69,1.69,0,0,0,1.7,1.7H385a1.69,1.69,0,0,0,1.7-1.7v-4.2A1.75,1.75,0,0,0,385,318Zm-1.7,4.3h-36.8v-.9h36.8Zm-3.8-22h-4.4v-6h4.4Zm0,9.3h-4.4v-6h4.4Zm-12.9,0v-6h5.2v6Zm5.2-9.3h-5.2v-6h5.2Zm-8.5,0h-5.4v-6h5.4Zm-8.7,0h-4.3v-6h4.3Zm0,3.3v6h-4.3v-6Zm3.3,0h5.4v6h-5.4Zm5.4,9.4v5.1h-5.4V313Zm3.3,0h5.2v5.1h-5.2Zm8.5,5v-5.1h4.4V318Zm4.4-27.1h-4.4v-5.1h4.4Zm-7.7,0h-5.2v-5.1h5.2Zm-8.5,0h-5.4v-5.1h5.4Zm-8.7,0h-4.3v-5.1h4.3Zm0,22.1v5.1h-4.3V313Zm-9.7,76.6H385a1.69,1.69,0,0,0,1.7-1.7v-4.2A1.69,1.69,0,0,0,385,382h-2.1V348.2a1.69,1.69,0,0,0-1.7-1.7h-32.5a1.69,1.69,0,0,0-1.7,1.7V382h-2.1a1.69,1.69,0,0,0-1.7,1.7v4.2a1.75,1.75,0,0,0,1.7,1.7Zm21.7-7.6v-5.1h5.2V382Zm-8.7,0v-5.1h5.4V382Zm21.6-17.7h-4.4v-6h4.4Zm0,9.4h-4.4v-6h4.4Zm-7.7-9.4h-5.2v-6h5.2Zm-5.2,9.4v-6h5.2v6Zm-3.3-15.5v6h-5.4v-6Zm-8.7,6.1h-4.3v-6h4.3Zm0,3.3v6h-4.3v-6Zm3.3,0h5.4v6h-5.4Zm21.6-12.7h-4.4v-5.1h4.4Zm-7.7,0h-5.2v-5.1h5.2Zm-8.5,0h-5.4v-5.1h5.4Zm11.8,27.1v-5.1h4.4V382Zm-20.5-32.2v5.1h-4.3v-5.1Zm0,27.2v5.1h-4.3V377Zm-8.1,8.4h36.8v.9h-36.8v-.9Zm38.7-187.3h-2.1V164.3a1.69,1.69,0,0,0-1.7-1.7h-32.5a1.69,1.69,0,0,0-1.7,1.7v33.8h-2.1a1.69,1.69,0,0,0-1.7,1.7V204a1.69,1.69,0,0,0,1.7,1.7h40.1a1.69,1.69,0,0,0,1.7-1.7v-4.2a1.75,1.75,0,0,0-1.7-1.7Zm-1.7,4.2h-36.8v-.9h36.8Zm-20-36.4V171h-5.3v-5.1Zm8.5,0V171h-5.2v-5.1Zm7.7,0V171h-4.4v-5.1Zm0,14.5h-4.4v-6h4.4Zm0,9.3h-4.4v-6h4.4Zm-7.7-9.3h-5.2v-6H372Zm-5.2,9.3v-6H372v6Zm-3.3-15.4v6h-5.3v-6Zm-5.4,9.4h5.3v6h-5.3Zm5.4,9.4v5.1h-5.3v-5.1Zm3.3,0H372v5.1h-5.2Zm-12-18.8v6h-4.3v-6Zm0,9.4v6h-4.3v-6Zm20.5,14.4V193h4.4v5.1Zm-20.5-32.2V171h-4.3v-5.1Zm-4.3,27.2h4.3v5.1h-4.3ZM385,267.8h-2.1V213.3a1.69,1.69,0,0,0-1.7-1.7h-32.5a1.69,1.69,0,0,0-1.7,1.7v54.5h-2.1a1.69,1.69,0,0,0-1.7,1.7v4.2a1.69,1.69,0,0,0,1.7,1.7H385a1.69,1.69,0,0,0,1.7-1.7v-4.2a1.75,1.75,0,0,0-1.7-1.7Zm-1.7,4.3h-36.8v-.9h36.8Zm-16.5-4.3V256.5h12.7v11.3Zm12.7-14.5h-29.2V215h29.2Zm-29.2,3.3h13.2v11.3h-13.1V256.6Zm-7.5-121.2H340a21.76,21.76,0,0,0-43.4,0h-2.8a1.69,1.69,0,0,0-1.7,1.7v4.6a1.69,1.69,0,0,0,1.7,1.7h49.1a1.69,1.69,0,0,0,1.7-1.7v-4.6a1.91,1.91,0,0,0-1.8-1.7Zm-1.7,4.5h-45.7v-1.2h45.7Zm-4.5-4.5h-36.7a18.42,18.42,0,0,1,36.7,0Zm-11.5,240.9a1.69,1.69,0,0,0-1.7,1.7v7.1a1.7,1.7,0,0,0,3.4,0V378A1.75,1.75,0,0,0,325.14,376.3Z" fill="#7d38ce"/><path d="M388.94,149a45.11,45.11,0,0,1-45.1-45.1V99.1H353a1.7,1.7,0,0,0,0-3.4h-9.3a25.45,25.45,0,0,0-50.8,0h-9.4a1.7,1.7,0,1,0,0,3.4h9.2v4.8a45.11,45.11,0,0,1-45.1,45.1,1.69,1.69,0,0,0-1.7,1.7V407.6a1.69,1.69,0,0,0,1.7,1.7h141.2a1.69,1.69,0,0,0,1.7-1.7v-257a1.52,1.52,0,0,0-1.6-1.6Zm-80.6,205.7h19.9V406h-19.9Zm21.6-3.4h-23.2A1.69,1.69,0,0,0,305,353v53h-1V349.9h28.5V406h-1V353A1.67,1.67,0,0,0,329.94,351.3Zm4.3-4.8h-31.9a1.69,1.69,0,0,0-1.7,1.7V406h-51.4V341.3h138V406h-51.4V348.2a1.6,1.6,0,0,0-1.6-1.7Zm-84.9-188.4h138V332.5h-138V158.1Zm0,177.8h138V338h-138Zm138-183.6v2.5h-138v-2.5Zm-46.9-56.6h-44.2a22.16,22.16,0,0,1,44.2,0ZM296,103.8V99h44.5v4.8a48.44,48.44,0,0,0,30.8,45.1H265.24A48.44,48.44,0,0,0,296,103.8Z" fill="#7d38ce"/><path d="M161.64,323.1a15.66,15.66,0,0,0-15.7-15.7h-5.5a15.73,15.73,0,0,0-15.7,15.7v7.7h36.9Zm41.1-139.6h-5.5a15.66,15.66,0,0,0-15.7,15.7v7.7h36.9v-7.7A15.79,15.79,0,0,0,202.74,183.5Zm-25-94a1.7,1.7,0,0,1,0,3.4h-10.4l8.8,12.3h12.5a1.7,1.7,0,1,1,0,3.4h-10.1l14.3,20a1.69,1.69,0,0,1,.3,1v34.3h17.5V113.6h-11.3a1.7,1.7,0,0,1,0-3.4h11.3v-9h-11.3a1.7,1.7,0,0,1,0-3.4h11.3V88.9h-11.3a1.7,1.7,0,0,1,0-3.4h11.3V80.6h-51.9l6.3,8.7h12.7Zm-73.4,233.6a15.66,15.66,0,0,0-15.7-15.7h-5.5a15.66,15.66,0,0,0-15.7,15.7v7.7h36.9Zm-29-237.4h11.2a1.7,1.7,0,0,1,0,3.4H75.34V98h11.2a1.7,1.7,0,0,1,0,3.4H75.34v8.9h11.2a1.7,1.7,0,0,1,0,3.4H75.34V164h15.3V129.7a1.93,1.93,0,0,1,.3-1l14.3-20h-9.5a1.7,1.7,0,1,1,0-3.4h11.9l8.8-12.3h-10.7a1.7,1.7,0,1,1,0-3.4h13.1l6.3-8.8H75.34v4.9Zm28.8,113.4a15.73,15.73,0,0,0-15.7-15.7h-5.5a15.66,15.66,0,0,0-15.7,15.7v7.7h36.9Zm98.8,108.3h-5.5a15.66,15.66,0,0,0-15.7,15.7v7.7h36.9v-7.7a15.79,15.79,0,0,0-15.7-15.7Zm-41.5-108.3a15.73,15.73,0,0,0-15.7-15.7h-5.5a15.66,15.66,0,0,0-15.7,15.7v7.7h36.9Z" fill="none"/><path d="M229.34,292H56.64v5.1h172.7ZM213.94,87.3v76.4h15.4V70.8a7.7,7.7,0,0,0-15.4,0Zm-32.3,246.9h36.9v56.9h-36.9Zm-.2-124h36.9v56.9h-36.9Z" fill="none"/><path d="M221.64,59.8a11,11,0,0,0-11,11v6.6h-54.3l-5.7-8V55.9a1.69,1.69,0,0,0-.3-1l-7-9.3a1.82,1.82,0,0,0-2.7,0l-7,9.3a1.69,1.69,0,0,0-.3,1V69.3l-5.8,8.1H75.34V70.8a11,11,0,1,0-22,0V407.6a1.69,1.69,0,0,0,1.7,1.7h176.1a1.69,1.69,0,0,0,1.7-1.7V70.9A11.36,11.36,0,0,0,221.64,59.8Zm-165,11.1a7.7,7.7,0,0,1,15.4,0v92.9H56.64Zm79.9-14.4,5.3-7.1,5.3,7.1V68.3h-10.6Zm74.1,24.3v4.9h-11.3a1.7,1.7,0,0,0,0,3.4h11.3V98h-11.3a1.7,1.7,0,0,0,0,3.4h11.3v8.9h-11.3a1.7,1.7,0,0,0,0,3.4h11.3V164h-17.5V129.7a1.93,1.93,0,0,0-.3-1l-14.3-20h10.1a1.7,1.7,0,1,0,0-3.4h-12.5L167.34,93h10.4a1.7,1.7,0,0,0,0-3.4h-12.8l-6.3-8.7h52Zm11-17.6a7.7,7.7,0,0,1,7.7,7.7v92.9h-15.4V70.9A7.64,7.64,0,0,1,221.64,63.2Zm-165,233.9v-5.2h172.7v5.2Zm172.7-22.2v13.7H56.64V167.1h172.7V274.9ZM135.74,71.6H148l6,8.5L174,108l15.8,22.1v33.7H94V130.1l15.7-21.9a1.56,1.56,0,0,0,.6-.8Zm-16.9,17.9h-13.1a1.7,1.7,0,1,0,0,3.4h10.7l-8.8,12.3H95.74a1.7,1.7,0,0,0,0,3.4h9.5l-14.3,20a1.69,1.69,0,0,0-.3,1v34.3H75.34V113.6h11.2a1.7,1.7,0,0,0,0-3.4H75.34v-9h11.2a1.7,1.7,0,0,0,0-3.4H75.34V88.9h11.2a1.7,1.7,0,0,0,0-3.4H75.34V80.6H125l-6.2,8.9Zm110.5,309.4V406H56.64V300.4h172.7v98.5Z" fill="#7d38ce"/><path d="M109.64,108.1,93.94,130v33.7h95.8V130l-15.8-22.1-20-27.9-6-8.5h-12.3L110,107.2A.75.75,0,0,1,109.64,108.1Zm16.7,3.8a15.6,15.6,0,1,1,31.2,0v37.7a1.69,1.69,0,0,1-1.7,1.7H128a1.69,1.69,0,0,1-1.7-1.7V111.9Z" fill="none"/><path d="M197.34,304.1a19,19,0,0,0-19,19v68h-3.6a1.69,1.69,0,0,0-1.7,1.7v6.1a1.69,1.69,0,0,0,1.7,1.7h50.8a1.69,1.69,0,0,0,1.7-1.7v-6.1a1.69,1.69,0,0,0-1.7-1.7h-3.6v-68a19,19,0,0,0-19-19Zm26.6,93.2h-47.5v-2.8h47.5Zm-5.3-6.2h-36.9V334.2h36.9v56.9Zm0-60.2h-36.9v-7.7a15.66,15.66,0,0,1,15.7-15.7h5.5a15.66,15.66,0,0,1,15.7,15.7v7.7Z" fill="#7d38ce"/><path d="M180,394.4h-3.7v2.9h47.6v-2.9H180Z" fill="none"/><path d="M197.14,180.1a19,19,0,0,0-19,19v68h-3.6a1.69,1.69,0,0,0-1.7,1.7v6.1a1.69,1.69,0,0,0,1.7,1.7h50.8a1.69,1.69,0,0,0,1.7-1.7v-6.1a1.69,1.69,0,0,0-1.7-1.7h-3.6v-68a19,19,0,0,0-19-19Zm26.5,93.2h-47.5v-2.8h47.4v2.8Zm-5.3-6.2h-36.9V210.2h36.9v56.9Zm0-60.2h-36.9v-7.7a15.73,15.73,0,0,1,15.7-15.7h5.5a15.73,15.73,0,0,1,15.7,15.7v7.7Z" fill="#7d38ce"/><path d="M179.84,270.5h-3.7v2.8h47.5v-2.8h-43.8Zm-33.9,30H56.64V406.1h172.7V300.5Zm-34.7,100.1H60.44a1.69,1.69,0,0,1-1.7-1.7v-6.1a1.69,1.69,0,0,1,1.7-1.7H64v-68a19,19,0,0,1,19-19h5.5a19,19,0,0,1,19,19v68h3.6a1.69,1.69,0,0,1,1.7,1.7v6.1A1.6,1.6,0,0,1,111.24,400.6Zm57.4,0h-50.8a1.69,1.69,0,0,1-1.7-1.7v-6.1a1.69,1.69,0,0,1,1.7-1.7h3.6v-68a19,19,0,0,1,19-19h5.5a19,19,0,0,1,19,19v68h3.6a1.69,1.69,0,0,1,1.7,1.7v6.1A1.67,1.67,0,0,1,168.64,400.6Zm53.3-77.5v68h3.6a1.69,1.69,0,0,1,1.7,1.7v6.1a1.69,1.69,0,0,1-1.7,1.7h-50.9a1.69,1.69,0,0,1-1.7-1.7v-6.1a1.69,1.69,0,0,1,1.7-1.7h3.6v-68a19,19,0,0,1,19-19h5.5A19.1,19.1,0,0,1,221.94,323.1Z" fill="none"/><path d="M124.74,334.2h36.9v56.9h-36.9Zm-.2-124h36.9v56.9h-36.9Zm5.1-96.7h24.5v34.4h-24.5Zm24.4-3.3a12.21,12.21,0,0,0-24.2,0Zm-6.8-53.7-5.3-7-5.4,7V68.3h10.7Z" fill="none"/><path d="M128,151.2h27.8a1.69,1.69,0,0,0,1.7-1.7V111.8a15.6,15.6,0,0,0-31.2,0v37.7a1.63,1.63,0,0,0,1.7,1.7Zm13.9-51.6A12.2,12.2,0,0,1,154,110.2h-24.2a12.2,12.2,0,0,1,12.1-10.6Zm12.2,48.3h-24.5V113.5h24.5v34.4Z" fill="#7d38ce"/><path d="M123,394.4h-3.6v2.9h47.5v-2.9H123Zm-.2-123.9h-3.6v2.8h47.5v-2.8h-43.9Z" fill="none"/><path d="M168.64,391.1H165v-68a19,19,0,0,0-19-19h-5.5a19,19,0,0,0-19,19v68h-3.6a1.69,1.69,0,0,0-1.7,1.7v6.1a1.69,1.69,0,0,0,1.7,1.7h50.8a1.69,1.69,0,0,0,1.7-1.7v-6.1a2,2,0,0,0-1.8-1.7Zm-1.7,6.2h-47.5v-2.8h47.4v2.8Zm-42.2-74.2a15.66,15.66,0,0,1,15.7-15.7h5.5a15.66,15.66,0,0,1,15.7,15.7v7.7h-36.9Zm0,11.1h36.9v56.9h-36.9V334.2Zm43.7-67.1h-3.6v-68a19,19,0,0,0-19-19h-5.5a19,19,0,0,0-19,19v68h-3.8a1.69,1.69,0,0,0-1.7,1.7v6.1a1.69,1.69,0,0,0,1.7,1.7h50.9a1.69,1.69,0,0,0,1.7-1.7v-6.1A1.83,1.83,0,0,0,168.44,267.1Zm-1.7,6.2h-47.5v-2.8h47.5Zm-42.2-74.2a15.73,15.73,0,0,1,15.7-15.7h5.5a15.66,15.66,0,0,1,15.7,15.7v7.7h-36.9Zm0,11.1h36.9v56.9h-36.9Z" fill="#7d38ce"/><path d="M67.34,334.2h36.9v56.9H67.34Zm-.2-124H104v56.9H67.14ZM72,111.8V70.9a7.7,7.7,0,0,0-15.4,0v92.9H72Zm-6.3,282.6H62v2.9h47.6v-2.9H65.74Zm-.2-123.9h-3.7v2.8h47.6v-2.8H65.54Z" fill="none"/><path d="M111.24,391.1h-3.6v-68a19,19,0,0,0-19-19h-5.5a19,19,0,0,0-19,19v68h-3.6a1.69,1.69,0,0,0-1.7,1.7v6.1a1.69,1.69,0,0,0,1.7,1.7h50.9a1.69,1.69,0,0,0,1.7-1.7v-6.1A2.12,2.12,0,0,0,111.24,391.1Zm-1.6,6.2H62v-2.8h47.5v2.8Zm-42.3-74.2A15.66,15.66,0,0,1,83,307.4h5.5a15.66,15.66,0,0,1,15.7,15.7v7.7H67.34Zm0,11.1h36.9v56.9H67.34V334.2ZM111,267.1h-3.6v-68a19,19,0,0,0-19-19h-5.5a19,19,0,0,0-19,19v68h-3.6a1.69,1.69,0,0,0-1.7,1.7v6.1a1.69,1.69,0,0,0,1.7,1.7h50.8a1.69,1.69,0,0,0,1.7-1.7v-6.1A1.92,1.92,0,0,0,111,267.1Zm-1.6,6.2H61.84v-2.8h47.5v2.8Zm-42.3-74.2a15.73,15.73,0,0,1,15.7-15.7h5.5A15.66,15.66,0,0,1,104,199.1v7.7H67.14Zm0,11.1H104v56.9H67.14V210.2Z" fill="#7d38ce"/><path d="M191.44,167.1H56.64V288.7h172.7V167.1ZM111,276.6H60.24a1.69,1.69,0,0,1-1.7-1.7v-6.1a1.69,1.69,0,0,1,1.7-1.7h3.6v-68a19,19,0,0,1,19-19h5.5a19,19,0,0,1,19,19v68h3.6a1.69,1.69,0,0,1,1.7,1.7v6.1A1.55,1.55,0,0,1,111,276.6Zm57.4,0h-50.9a1.69,1.69,0,0,1-1.7-1.7v-6.1a1.69,1.69,0,0,1,1.7-1.7h3.6v-68a19,19,0,0,1,19-19h5.5a19,19,0,0,1,19,19v68h3.6a1.69,1.69,0,0,1,1.7,1.7v6.1a1.48,1.48,0,0,1-1.5,1.7Zm53.3-77.5v68h3.6a1.69,1.69,0,0,1,1.7,1.7v6.1a1.69,1.69,0,0,1-1.7,1.7h-50.8a1.69,1.69,0,0,1-1.7-1.7v-6.1a1.69,1.69,0,0,1,1.7-1.7h3.6v-68a19,19,0,0,1,19-19h5.5a19.14,19.14,0,0,1,19.1,19Z" fill="none"/><path d="M470.54,274.2l-3.5,3.5h15.8l-3.4-3.5ZM483,281h-16.1a8.21,8.21,0,0,0,16.1,0Zm-11.5-10.4h6.9v.3h-6.9Zm-29,132.3h-4.8V406h19.7v-3.1h-14.9Zm1.7-38.3h6.7v35h-6.7Zm-32-86.9H428l-3.5-3.5h-8.8Zm16,3.3h-16.1a8.21,8.21,0,0,0,16.1,0Zm-11.6-10.4h6.9v.3h-6.9Z" fill="none"/><path d="M488,278.2l-6.3-6.3V269a1.69,1.69,0,0,0-1.7-1.7h-3.5V255.4a13.91,13.91,0,0,0-4.1-9.9,13.67,13.67,0,0,0-9.9-4.1,14,14,0,0,0-14,14v9.2h-2v-9.2a14,14,0,0,0-23.9-9.9,13.67,13.67,0,0,0-4.1,9.9v11.9H415a1.69,1.69,0,0,0-1.7,1.7v2.9l-6.3,6.3a1.61,1.61,0,0,0,1.1,2.8h.5a11.51,11.51,0,0,0,22.8,0h.5a1.54,1.54,0,0,0,1.5-1,1.56,1.56,0,0,0-.4-1.8l-6.3-6.3V269a1.69,1.69,0,0,0-1.7-1.7h-3.5V255.4a10.7,10.7,0,0,1,21.4,0v9.2h-2a1.69,1.69,0,0,0-1.7,1.7v3a1.69,1.69,0,0,0,1.7,1.7h4.7v90.3h-3.1a1.69,1.69,0,0,0-1.7,1.7v36.6h-4.9a1.69,1.69,0,0,0-1.7,1.7v6.4a1.69,1.69,0,0,0,1.7,1.7h23a1.69,1.69,0,0,0,1.7-1.7v-6.5a1.69,1.69,0,0,0-1.7-1.7H454V362.9a1.69,1.69,0,0,0-1.7-1.7H449V270.9h4.7a1.69,1.69,0,0,0,1.7-1.7v-3a1.69,1.69,0,0,0-1.7-1.7h-2v-9.2a10.7,10.7,0,1,1,21.4,0v11.9h-3.5a1.69,1.69,0,0,0-1.7,1.7v2.9l-6.3,6.3a1.61,1.61,0,0,0,1.1,2.8h.5a11.51,11.51,0,0,0,22.8,0h.5a1.54,1.54,0,0,0,1.5-1,1.08,1.08,0,0,0,0-1.7Zm-75.9,2.8h16.1a8.36,8.36,0,0,1-8.1,6.6A8.07,8.07,0,0,1,412.14,281Zm11.5-10.4v.3h-6.9v-.3Zm4.4,7.1h-15.8l3.5-3.5h8.9ZM457.44,406h-19.7v-3.1h19.8V406Zm-6.5-41.4v35h-6.7v-35Zm16-83.6H483a8.36,8.36,0,0,1-8.1,6.6A8.15,8.15,0,0,1,466.94,281Zm.1-3.3,3.5-3.5h8.9l3.5,3.5Zm11.4-7.1v.3h-6.9v-.3Z" fill="#7d38ce"/><path d="M418.54,13a34.2,34.2,0,0,0-27.6,13.9,1.85,1.85,0,0,1-1.2.7,2,2,0,0,1-1.3-.4,26.73,26.73,0,0,0-44.2,20.2,8.66,8.66,0,0,0,8.6,8.6h91.3a8.66,8.66,0,0,0,8.6-8.6A34.23,34.23,0,0,0,418.54,13Z" fill="none"/><path d="M418.54,9.7a38,38,0,0,0-29.2,13.8A30,30,0,0,0,341,47.3a11.86,11.86,0,0,0,11.9,11.9h91.3a11.86,11.86,0,0,0,11.9-11.9A37.68,37.68,0,0,0,418.54,9.7Zm25.7,46.2h-91.3a8.66,8.66,0,0,1-8.6-8.6,26.73,26.73,0,0,1,44.2-20.2,1.71,1.71,0,0,0,2.5-.3,34.3,34.3,0,0,1,61.8,20.5,8.6,8.6,0,0,1-8.6,8.6Z" fill="#7d38ce"/></svg>