<svg xmlns="http://www.w3.org/2000/svg" viewBox="0 0 500 436.53"><path d="M475.39,412.19H24c-.4,0-.6-.8-.6-1.8s.3-1.8.6-1.8h451.4" fill="#7d38ce"/><path d="M209.59,249.79l-.8,4.4,4.7,4.6,9.1-9Zm18.6,47.3a1.79,1.79,0,0,1-1.8-1.8v-26.6a1.79,1.79,0,0,1,1.8-1.8h26.6a1.79,1.79,0,0,1,1.8,1.8v3.1l4.6-4.6,5.8-5.8-11.6-11.6h-27.8l-7.4,7.4H234a1.8,1.8,0,0,1,0,3.6h-16.2a1.61,1.61,0,0,1-.9-.3l-2.2,2.2-9.2,9.2-4.6,25.2H215a1.8,1.8,0,0,1,0,3.6h-14.8l-11.6,63.2h14.1a1.8,1.8,0,0,1,0,3.6H188l-7.6,41.4h42v-7.3h-14.2a1.8,1.8,0,0,1,0-3.6h14.2v-18.8a19.1,19.1,0,0,1,38.2-.3H275a1.8,1.8,0,0,1,0,3.6h-14.4v26.4h42L289.69,339,248,297.29h-19.8Zm36.4,53.3h16.2a1.8,1.8,0,0,1,0,3.6h-16.2a1.8,1.8,0,1,1,0-3.6Zm-8-38.4v26.6a1.79,1.79,0,0,1-1.8,1.8h-26.6a1.79,1.79,0,0,1-1.8-1.8v-4.1H212a1.8,1.8,0,0,1,0-3.6h14.4V312a1.79,1.79,0,0,1,1.8-1.8h26.6a1.79,1.79,0,0,1,1.8,1.8Zm3.8-62.2,10.3,10.3,5.6,5.5-3-15.8Z" fill="none"/><path d="M382.19,109.29,279,212.39l17.8,17.8L400,127.09Z" fill="none"/><path d="M272,205.43l103.13-103.2,4.53,4.53L276.55,210Z" fill="none"/><path d="M365.59,374.09l-103.2-103.2-6.4,6.4-11.4,11.4,5.3,5.3,97.8,97.8,17.9-17.7Z" fill="none"/><path d="M265,268.41l4.52-4.53L372.68,367l-4.53,4.53Z" fill="none"/><path d="M244,233.39l12.9,12.9h15.9c-.8-5-3.6-18.5-11.8-29.9Zm-2.5,2.5-10.3,10.3h20.6ZM230,313.79h23v23H230Zm0-20.3h14.4l-3.5-3.5a1.75,1.75,0,0,1,0-2.5l12.1-12.1v-4.8H230Zm11.5-62.6,17.3-17.3a42.8,42.8,0,0,0-17.3-12.7,41.27,41.27,0,0,0-17.3,12.7l17.3,17.3ZM257,379a15.62,15.62,0,0,0-15.6-15.6,15.71,15.71,0,0,0-15.6,15.6v19.8a1.88,1.88,0,0,1,.2.8,2.35,2.35,0,0,1-.2.8v8.3h31.1V379Zm-30.9-132.8,12.9-12.9-17-17c-8.2,11.4-11,24.9-11.8,29.9Zm-5.5-50.4,17.7-17.8L135.19,74.89l-17.8,17.8Zm-2.5,2.5L114.89,95.19l-4.6,4.5,103.2,103.2Z" fill="none"/><path d="M103.3,360,206.46,256.84l4.53,4.53L107.83,364.54Z" fill="none"/><path d="M82.94,339.68,186.11,236.52l17.82,17.81L100.76,357.5Z" fill="none"/><path d="M228.19,310.19a1.79,1.79,0,0,0-1.8,1.8v18.9H212a1.8,1.8,0,0,0,0,3.6h14.4v4.1a1.79,1.79,0,0,0,1.8,1.8h26.6a1.79,1.79,0,0,0,1.8-1.8V312a1.79,1.79,0,0,0-1.8-1.8Zm24.8,26.6H230v-23h23Zm11.6,17.1h16.2a1.8,1.8,0,0,0,0-3.6h-16.2a1.8,1.8,0,1,0,0,3.6Z" fill="#7d38ce"/><path d="M275.29,213.69l20.3,20.3a1.9,1.9,0,0,0,1.3.5,2.11,2.11,0,0,0,1.3-.5l105.7-105.7a1.75,1.75,0,0,0,0-2.5l-20.3-20.3-7.1-7.1a1.75,1.75,0,0,0-2.5,0l-105.8,105.7-6.9,6.9a45.2,45.2,0,0,0-19.2-13.7,2.44,2.44,0,0,0-1.2,0,45.45,45.45,0,0,0-19.2,13.7l-5.6-5.6,26.1-26.1a1.75,1.75,0,0,0,0-2.5L136.39,71.09a1.75,1.75,0,0,0-2.5,0l-27.4,27.4a1.75,1.75,0,0,0,0,2.5l105.7,105.7,7.2,7.2c-10.8,14.8-12.9,32.5-13,33.9l-.6,3.4-18.4-18.5a1.75,1.75,0,0,0-2.5,0L79.19,338.39a1.9,1.9,0,0,0-.5,1.3,2.11,2.11,0,0,0,.5,1.3l27.4,27.4a1.9,1.9,0,0,0,1.3.5,2.11,2.11,0,0,0,1.3-.5l92.1-92.1-24.7,133.9a1.76,1.76,0,0,0,1.8,2.1h126.5a2,2,0,0,0,1.4-.6,1.91,1.91,0,0,0,.4-1.5l-12.3-66.9,52.4,52.4a1.9,1.9,0,0,0,1.3.5,2.11,2.11,0,0,0,1.3-.5l20.3-20.3,7.1-7.1a1.75,1.75,0,0,0,0-2.5l-95.7-95.7-4.1-22.3c-.2-1.5-2.2-19.2-13-33.9l5.9-5.9,5.4,5.7Zm3.7-1.3,103.2-103.2L400,127l-103.2,103.2L279,212.39Zm-2.5-2.5-4.5-4.5,103.2-103.2,4.5,4.5Zm-63,48.9-4.7-4.7.8-4.4h12.9Zm-27.3-22.3,17.8,17.8-103.2,103.2L83,339.69l103.2-103.2Zm55.3-35.7a42.14,42.14,0,0,1,17.3,12.7l-17.3,17.4-17.3-17.3a41.51,41.51,0,0,1,17.3-12.8Zm0,35.1,10.3,10.3h-20.7Zm-2.5-2.5-12.9,12.9h-15.9c.8-5,3.6-18.4,11.8-29.9l17,17Zm-32.5,23.4,4.5,4.5-103.2,103.2-4.5-4.5,103.2-103.2Zm50.4-10.6L244,233.29l17-17c8.2,11.4,11,24.9,11.8,29.9ZM238.29,178l-17.8,17.8L117.39,92.69l17.8-17.8L238.29,178Zm-123.4-82.8,103.2,103.2-4.5,4.6L110.29,99.69l4.6-4.5Zm111,305.1a1.88,1.88,0,0,0,.2-.8,2.35,2.35,0,0,0-.2-.8v-19.8a15.71,15.71,0,0,1,15.6-15.6,15.62,15.62,0,0,1,15.6,15.6v29.7H226v-8.3Zm76.7,8.4h-42v-26.4H275a1.8,1.8,0,0,0,0-3.6h-14.4a19.1,19.1,0,0,0-38.2.3v18.8h-14.2a1.8,1.8,0,0,0,0,3.6h14.2v7.3h-42l7.6-41.4h14.7a1.8,1.8,0,1,0,0-3.6h-14.1l11.6-63.2H215a1.8,1.8,0,0,0,0-3.6h-14.1l4.6-25.2,9.2-9.2,2.2-2.2a1.61,1.61,0,0,0,.9.3H234a1.8,1.8,0,0,0,0-3.6h-13.8l7.4-7.4h27.8l11.6,11.6-5.8,5.8-4.6,4.6v-3.1a1.79,1.79,0,0,0-1.8-1.8h-26.6a1.79,1.79,0,0,0-1.8,1.8v26.6a1.79,1.79,0,0,0,1.8,1.8H248l41.7,41.7,12.9,70.1ZM253,275.29l-12.1,12.1a1.75,1.75,0,0,0,0,2.5l3.5,3.5h-14.5v-23h23v4.9ZM250,294l-5.3-5.3,11.4-11.4,6.4-6.4,103.2,103.2-17.9,17.8L250,294Zm118.1,77.6-103.2-103.2,4.5-4.5,103.2,103.2Zm-97.4-111.5-10.3-10.3h12.9l2.9,15.9-5.5-5.6Z" fill="#7d38ce"/><path d="M114.59,317a19.43,19.43,0,0,0,4.3,2.2v-8.6a12.86,12.86,0,0,1-1.9-.4l-8.5-.5A30.4,30.4,0,0,1,114.59,317Zm7.9-2.9a12.12,12.12,0,0,0,7.1-3.1l-7.1-.4Zm9.9,6.1a27.07,27.07,0,0,1,11.5-8.2l-9.9-.6a15.61,15.61,0,0,1-11.6,6.3v2.6a24.16,24.16,0,0,0,4.7.5,22.65,22.65,0,0,0,5.3-.6Zm-13.5,11.3V323a13.36,13.36,0,0,1-1.8-.7A28.92,28.92,0,0,1,118.89,331.49Zm7.7,5.1a25.23,25.23,0,0,1,3.1-12.3,22.6,22.6,0,0,1-2.6.1,37.25,37.25,0,0,1-4.7-.4v48h7.8a16.55,16.55,0,0,0,15.3-10.2A26.46,26.46,0,0,1,126.59,336.59Zm-7.7-2.8a30.64,30.64,0,0,1-23.5,28.6,24.1,24.1,0,0,0,23.5,24Z" fill="none"/><path d="M145.59,311.39c0-.1.1-.2.1-.3a22.3,22.3,0,0,0,4.1-13,22.6,22.6,0,0,0-45.2,0,23,23,0,0,0,2.5,10.3,17.38,17.38,0,0,1,1.5,1.3l8.5.5a12.07,12.07,0,0,1-8.4-11.5,1.8,1.8,0,0,1,3.6,0,8.47,8.47,0,0,0,6.8,8.3v-8.9a1.8,1.8,0,0,1,3.6,0v12.4l7.1.4a12.17,12.17,0,0,0,4-8.9,1.8,1.8,0,1,1,3.6,0,15.58,15.58,0,0,1-3,9.2l9.9.6a7.91,7.91,0,0,0,1.3-.4Zm7.2,2.6a22.76,22.76,0,0,0-17.6,8.4,1.56,1.56,0,0,1-.6.8,22.57,22.57,0,0,0,12,35.1,13.58,13.58,0,0,0,.3-2.9v-12.1a12.14,12.14,0,0,1-10.3-11.9,1.8,1.8,0,1,1,3.6,0,8.47,8.47,0,0,0,6.8,8.3v-3.2a1.8,1.8,0,1,1,3.6,0v13.9a12.14,12.14,0,0,0,10.3-11.9,1.8,1.8,0,0,1,3.6,0,15.67,15.67,0,0,1-13.8,15.5v1.4a21.86,21.86,0,0,1-.3,3.6,24.58,24.58,0,0,0,2.8.2,22.58,22.58,0,0,0,22.6-22.6,23.18,23.18,0,0,0-23-22.6Z" fill="none"/><path d="M152.79,310.39a22.6,22.6,0,0,0-2.6.1,26.19,26.19,0,1,0-49.3-12.3,29.75,29.75,0,0,0,1,7.2,30.94,30.94,0,0,0-13.6-3.2,30.5,30.5,0,0,0,0,61c1.2,0,2.3-.1,3.5-.2a27.66,27.66,0,0,0,27,26.9v20.6a1.8,1.8,0,0,0,3.6,0v-34.9h7.8a20.07,20.07,0,0,0,18.8-13.1,23.08,23.08,0,0,0,3.7.3,26.2,26.2,0,0,0,.1-52.4Zm0,48.8a26.35,26.35,0,0,1-2.8-.2,21.86,21.86,0,0,0,.3-3.6V354a15.59,15.59,0,0,0,13.8-15.5,1.8,1.8,0,1,0-3.6,0,12.14,12.14,0,0,1-10.3,11.9v-13.9a1.8,1.8,0,1,0-3.6,0v3.2a8.47,8.47,0,0,1-6.8-8.3,1.8,1.8,0,1,0-3.6,0,12,12,0,0,0,10.3,11.9v12.1a14.28,14.28,0,0,1-.3,2.9,22.68,22.68,0,0,1-16.4-21.7,23.1,23.1,0,0,1,4.4-13.4,1.56,1.56,0,0,0,.6-.8,22.61,22.61,0,0,1,40.2,14.2,22,22,0,0,1-22.2,22.6Zm-30.3-41.5a15.79,15.79,0,0,0,11.6-6.3,15.58,15.58,0,0,0,3-9.2,1.8,1.8,0,1,0-3.6,0,11.81,11.81,0,0,1-4,8.9,12.12,12.12,0,0,1-7.1,3.1v-15.9a1.8,1.8,0,1,0-3.6,0v8.9a8.47,8.47,0,0,1-6.8-8.3,1.8,1.8,0,0,0-3.6,0,12,12,0,0,0,8.4,11.5,10.62,10.62,0,0,0,1.9.4v8.6a24.93,24.93,0,0,1-4.3-2.2,30.4,30.4,0,0,0-6.1-7.3c-.5-.4-1-.9-1.5-1.3a23,23,0,0,1-2.5-10.3,22.6,22.6,0,0,1,45.2,0,22.3,22.3,0,0,1-4.1,13,.37.37,0,0,0-.1.3c-.6.2-1.1.3-1.6.5a25.69,25.69,0,0,0-11.5,8.2,23.33,23.33,0,0,1-5.3.7,25,25,0,0,1-4.7-.5v-2.8Zm-3.6,13.8a28.39,28.39,0,0,0-1.8-9.2c.6.2,1.2.5,1.8.7Zm-3.4,1.2a26.94,26.94,0,0,1-20,26v-13.4a12.14,12.14,0,0,0,10.3-11.9,1.8,1.8,0,0,0-3.6,0,8.47,8.47,0,0,1-6.8,8.3v-3.5a1.8,1.8,0,1,0-3.6,0v13.4a14.12,14.12,0,0,1-13.2-14.1,1.8,1.8,0,1,0-3.6,0,17.6,17.6,0,0,0,16.8,17.6v4.3c-1.1.1-2.3.2-3.5.2a27,27,0,1,1,27.2-26.9Zm-20,29.7a30.54,30.54,0,0,0,23.5-28.6v52.5A24,24,0,0,1,95.49,362.39Zm34.8,9.6h-7.8V324a24.18,24.18,0,0,0,4.7.4c.9,0,1.7-.1,2.6-.1a25.81,25.81,0,0,0-3.1,12.3,26.1,26.1,0,0,0,19,25.1,16.89,16.89,0,0,1-15.4,10.3Z" fill="#7d38ce"/><path d="M61.49,332.69a27,27,0,0,0,27,27c1.2,0,2.3-.1,3.5-.2v-4.3a17.74,17.74,0,0,1-16.8-17.6,1.8,1.8,0,1,1,3.6,0A14.19,14.19,0,0,0,92,351.69v-13.4a1.8,1.8,0,1,1,3.6,0v3.5a8.47,8.47,0,0,0,6.8-8.3,1.8,1.8,0,0,1,3.6,0,12,12,0,0,1-10.3,11.9v13.4a27,27,0,1,0-34.2-26.1Z" fill="none"/><path d="M445.79,326.19a.7.7,0,1,0-.7-.7A.68.68,0,0,0,445.79,326.19Z" fill="none"/><path d="M405.49,327.69a.4.4,0,0,0,0-.8h-17.4a.4.4,0,0,0,0,.8Zm-87.2-305.6a24.17,24.17,0,0,0-15.8,5.9,1.79,1.79,0,0,1-1.4.4,1.85,1.85,0,0,1-1.2-.7,30.89,30.89,0,0,0-25-12.6,31.24,31.24,0,0,0-31.2,31.2,7.6,7.6,0,0,0,7.6,7.6h83.6a7.6,7.6,0,0,0,7.6-7.6A24.22,24.22,0,0,0,318.29,22.09Z" fill="none"/><path d="M318.29,18.49a28,28,0,0,0-16.7,5.6,34.66,34.66,0,0,0-61.4,22.1,11.18,11.18,0,0,0,11.2,11.2H335a11.18,11.18,0,0,0,11.2-11.2A28.06,28.06,0,0,0,318.29,18.49Zm16.6,35.4h-83.6a7.6,7.6,0,0,1-7.6-7.6,31.24,31.24,0,0,1,31.2-31.2,30.75,30.75,0,0,1,25,12.6,1.52,1.52,0,0,0,1.2.7,1.79,1.79,0,0,0,1.4-.4,24.17,24.17,0,0,1,40,18.3A7.6,7.6,0,0,1,334.89,53.89Z" fill="#7d38ce"/></svg>