<?xml version="1.0" encoding="utf-8"?>
<!-- Generator: Adobe Illustrator 25.2.0, SVG Export Plug-In . SVG Version: 6.00 Build 0)  -->
<svg version="1.1" id="Layer_1" xmlns="http://www.w3.org/2000/svg" xmlns:xlink="http://www.w3.org/1999/xlink" x="0px" y="0px"
	 viewBox="0 0 180 180" style="enable-background:new 0 0 180 180;" xml:space="preserve">
<style type="text/css">
	.st0{clip-path:url(#SVGID_2_);}
	.st1{fill:#38312D;}
	.st2{fill:#DFAF33;}
	.st3{fill:#F2844F;}
	.st4{fill:#FCAE88;}
	.st5{fill:#B95C36;}
	.st6{fill:#B85B36;}
	.st7{fill:#B75B36;}
	.st8{fill:#B25835;}
	.st9{fill:#F95939;}
	.st10{fill:#FD7858;}
	.st11{fill:#B95D38;}
	.st12{fill:#BC5E38;}
	.st13{fill:#B65B36;}
	.st14{fill:#FBB28F;}
	.st15{fill:#FCB290;}
	.st16{fill:#B65A35;}
	.st17{fill:#733F2A;}
	.st18{fill:#FFFEF3;}
	.st19{fill:#E56324;}
	.st20{fill:#E46224;}
	.st21{fill:#160E0B;}
	.st22{fill:#FFFFFF;}
	.st23{fill:#F7A983;}
	.st24{fill:#784074;}
	.st25{fill:#916693;}
	.st26{fill:#A88BA4;}
	.st27{fill:#774074;}
</style>
<g>
	<defs>
		<rect id="SVGID_1_" width="180" height="180"/>
	</defs>
	<use xlink:href="#SVGID_1_"  style="overflow:visible;fill:#EA2130;"/>
	<clipPath id="SVGID_2_">
		<use xlink:href="#SVGID_1_"  style="overflow:visible;"/>
	</clipPath>
	<g class="st0">
		<g>
			<g>
				<g>
					<path class="st1" d="M86.2,16.7c3.4-0.3,6.8-0.4,10.2,0c2.3,0.3,4.6,0.9,6.9,1.6c1.7,0.5,3.3,1.2,4.9,2.1
						c0.8,0.5,1.5,1.2,2.4,1.7c1.2,0.7,2.4,1.5,3.5,2.5c1.7,1.3,3.3,2.9,4.5,4.7c0.7,1,1.2,2.2,2,3.2c1.2,1.4,2.1,2.9,2.7,4.6
						c0.7,1.5,1.3,3.1,1.7,4.7c0.7,2.5,1.2,5,1.4,7.6c0,1.5,0.1,3.1-0.1,4.6s-0.2,3-0.4,4.6c-0.2,1.7-0.3,3.4-0.6,5
						c-0.5,3-1.5,6-2.3,9c-0.1,0.4-0.2,0.9-0.5,1.2c-0.2,0.7-0.1,1.6-0.8,2.1c-0.1,0.4-0.3,0.8-0.6,1.1c-0.5,0.5-1.4,0.4-1.8-0.1
						c-0.9-0.9-1.2-2.1-1.5-3.3c-0.2-0.7-0.3-1.5-0.6-2.1c-0.5-4-0.8-8-0.8-12c0-0.9,0.2-1.8-0.2-2.7c-1.2-3.6-2.3-7.2-3.6-10.8
						c-0.1-0.3-0.2-0.6-0.5-0.8c-1.7-1.5-3.7-2.8-5.7-3.9c-1.6-0.9-3.2-1.7-5-2.2c-0.8-0.1-1.5,0-2.3,0c-2.4,0-4.8,0-7.2,0.1
						c-1.3,0.1-2.6,0.2-3.9,0.4c-0.4,0-0.8,0.2-1.1,0.4c-0.2,0.1-0.7,0.1-0.7-0.2c-2.2,0.1-4.4,0.8-6.5,1.4c-3.3,1-6.5,2.5-9.7,4.1
						c-0.6,0.4-1.3,0.6-1.8,1.1c-1.5,1.8-2.9,3.8-3.9,6c-1.8,4-2.5,8.5-3.5,12.7c-0.2,0.6,0,1.2,0.1,1.8c0,2.1,0,4.3,0.1,6.5
						c0,0.4-0.1,0.8-0.2,1.2c0,1.1,0.1,2.1,0.1,3.3c0,0.4-0.3,0.7-0.4,1.1c-0.2,0.5-0.7,1-1,1.5c-0.4,0.5-1.3,0.4-1.6-0.2
						c-0.5-1-0.6-2.1-0.7-3.2c-0.1-1.7-0.3-3.4-0.5-5.2c-0.1-1.2-0.6-2.3-0.9-3.5c-0.4-1.7-0.9-3.4-1.2-5.2c-0.8-3.9-1.1-7.9-1-11.9
						c0-1.3,0-2.7,0.1-4.1c0-2.2,0.2-4.3,0.5-6.5c0.4-3.1,1.7-6,3.3-8.7c1.2-2,2.5-4,4.2-5.5c2.1-1.7,4.1-3.5,6.7-4.4
						c0.8-0.3,1.6-0.8,2.4-1.1c2.1-0.8,4.1-1.6,6.2-2.1C80.2,17.7,83.2,17.1,86.2,16.7z"/>
					<path class="st2" d="M209,208.5c-0.3-0.9-0.8-1.8-1.6-2.5v-0.9c-0.3-1.5-0.8-2.9-1.2-4.4c-0.3-0.9-0.6-1.8-0.9-2.7
						c-1.2-3.2-2.4-6.4-3.7-9.5c-1.1-2.3-2.3-4.5-3.6-6.6c-0.8-1.4-1.5-2.9-2.4-4.3c-0.6-1.1-1.2-2.2-1.9-3.3
						c-0.7-1.2-1.3-2.4-2-3.6c-0.7-1.1-1.3-2.3-2.1-3.3c-2.1-2.9-4.4-5.6-7.3-7.8c-1.1-0.8-2.2-1.4-3.4-2.1
						c-1.4-0.8-2.8-1.7-4.2-2.4c-1.1-0.6-2.2-1-3.3-1.5c-1.1-0.4-2.1-0.9-3.3-1.3c-3.2-1.2-6.3-2.7-9.4-4c-1.1-0.4-2.1-1-3.2-1.5
						c-2.2-0.9-4.5-2-6.8-2.7c-1.6-0.6-3.2-1.1-4.9-1.6c-2.8-0.8-5.5-1.8-8.2-2.6c-3.8-1.3-7.7-2.6-11.1-4.9c-1-0.7-2.1-1.2-3.2-1.9
						c-0.9-0.7-1.2-2.1-2.4-2.5c0,0.2,0,0.4,0,0.7c-0.2-0.1-0.4-0.4-0.8-0.3c-0.1,0.4,0.4,0.5,0.4,0.8c-1.4,1.8-3.3,3.1-5.2,4.2
						c-1.6,0.8-3.1,1.8-4.9,2.5c-3.7,1.5-7.6,3-11.6,3.8c-3.3,0.7-6.8,0.8-10.2,0.6c-3.6-0.1-7.2-0.6-10.8-1.4
						c-2.5-0.6-5-1.3-7.5-2.2c-1.3-0.5-2.7-1.1-4.1-1.6c-1.1-0.4-2.2-0.8-3.3-1.2c-0.3-0.2-0.5,0-0.7,0.2l0.1,0.1
						c-0.4,0.2-0.6,0.6-0.8,0.9c0.2-0.4,0.4-0.7,0.7-1.1c0-0.1,0-0.3,0-0.4l0.1,0.4c0.1-0.1,0.3-0.3,0.4-0.4c0-0.3,0.1-0.7,0.1-1
						c-0.1,0-0.4,0-0.5,0c-1.2,0.8-1.8,2.1-2.6,3.3c-1.2,1.7-2.3,3.7-3.8,5.1c-1.1,1-2.2,2-3.3,3c-1.7,1.4-3.2,2.9-4.9,4.3
						c-2.1,1.7-4.1,3.3-6.3,4.7c-2.6,1.7-5.1,3.6-7.7,5.3c-2.1,1.3-4.1,2.8-6.2,4.1c-2.3,1.4-4.5,2.9-6.6,4.4
						c-2.1,1.4-4.1,3.1-6.2,4.7c-3.7,3-7.3,6.3-10.5,9.8c-0.8,0.9-1.7,1.9-2.4,3c-1.2,1.8-2.5,3.7-3.6,5.6c-1.4,2.7-2.7,5.4-3.5,8.3
						c-0.7,2.5-1.2,5.1-1.5,7.7L209,208.5L209,208.5z"/>
				</g>
				<g>
					<path class="st3" d="M106.5,33.4c1.4-0.3,2.9,0.1,4.1,0.8c0.6,0.7,1.2,1.2,1.8,1.8c0.8,0.9,1.7,1.7,2.2,2.8
						c0.8,1.5,1.7,3,2.5,4.6c0.7,1.7,1.3,3.3,1.8,5.1c0.7,2.6,1.1,5.2,1.7,7.8c0.4,1.2,0.5,2.6,0.6,3.9c0.1,1.2,0.1,2.4,0,3.7
						c0,2-0.4,3.9-0.4,5.8c0,1.7-0.5,3.4-0.1,5.1c0.5,0.1,1,0,1.4-0.3c-0.2,0.6-0.3,1.2-0.4,1.8c-0.3,2.6-0.6,5.3-0.8,7.9
						c-0.4,1.7-0.5,3.6-0.7,5.4c-0.1,1.6-0.5,3-0.8,4.6c-0.7,2.9-1.2,5.8-2.1,8.6c-0.5,1.6-1,3.2-1.6,4.7c-0.2-0.8-0.3-1.7-0.6-2.5
						c0-0.2-0.2-0.3-0.4-0.4c0,0.8,0.1,1.6,0.1,2.3c0,0.8,0,1.7-0.1,2.6c-0.4-1.9-0.1-3.9-1-5.7c-0.1,0.6-0.1,1.2,0,1.9
						c-0.4-1.1-0.7-2.2-1.4-3.1c0,0.6,0.2,1.1,0.3,1.7c-0.5-0.8-0.5-1.8-1.3-2.4c0,0.2,0,0.4,0,0.6c-0.8-0.8-1.7-1.6-2.5-2.2
						c-3.2-2.2-6.9-3.8-10.8-4.4c-1.3-0.2-2.7-0.3-4-0.5c0,0-0.3-0.4-0.3-0.5c-0.6,0.1-1.2,0.4-1.8,0.4c-0.6,0.1-1.3,0.1-1.9,0.2
						c-2.3,0.1-4.6,0.4-6.7,1c-2,0.5-4.1,0.9-5.9,2c-1.5,0.8-2.7,1.8-4,2.9c-0.7,0.6-1.3,1.4-2,2.1c-0.4,0.4-0.9,0.8-1.1,1.3
						c-0.3,0.5-0.4,1-0.6,1.5c-0.1-0.4-0.3-0.7-0.4-1.1c-0.2,0.8-0.2,1.7-0.3,2.6c-0.3-0.7-0.5-1.4-0.8-2.1c0,1-0.2,2.1-0.1,3
						c0,0.4,0,0.8,0,1.2c-0.4-1.3-0.4-2.7-0.9-4c-0.3,1.1-0.1,2.2-0.1,3.4c-0.3-1.2-0.4-2.5-0.8-3.7c-0.2,0.8-0.2,1.6-0.3,2.4
						c-0.4-1.1-0.3-2.3-0.7-3.4c-0.1,0.7-0.1,1.3-0.2,2c-0.2-0.9-0.3-1.7-0.5-2.6c-0.1,0.4-0.2,0.8-0.3,1.2
						c-0.9-1.8-1.8-3.7-2.5-5.5c-1.5-3.5-2.6-7.3-3.2-11c-0.1-0.4-0.2-0.9-0.4-1.3C58,85,58,82.6,57.9,80.2c0-1.2,0.1-2.3-0.1-3.4
						c0.4-0.1,0.8-0.4,1.2-0.6c-0.2-4.1-0.2-8.2-0.1-12.2c0.2-2.9,0.4-5.7,0.8-8.6c0.2-1.6,0.8-3.1,1.2-4.7c0.5-2.4,1.1-4.9,2.2-7.1
						c0.7-1.4,1.4-2.9,2.3-4.2c0.4-0.6,0.8-1.2,1.6-1.4c0.9-0.2,1.7-0.7,2.7-0.8c3.1-0.2,6.2-0.2,9.3,0.3c3.2,0.2,6.5,0.4,9.7,0.4
						c2.9-0.1,5.9-0.7,8.7-1.7C100.5,35,103.5,34.1,106.5,33.4z"/>
					<path class="st4" d="M68.7,43.2c1.3-1.3,3-2.2,4.8-2.6c0,0,0,0.2-0.1,0.3c-1.4,0.5-2.7,1.3-3.8,2.3c-0.3,0.2-0.6,0.4-0.9,0.6
						C68.7,43.6,68.7,43.4,68.7,43.2z"/>
					<path class="st5" d="M94,53.6c1.3-0.2,2.7-0.5,4.1-0.5c0,0.1,0,0.2,0,0.3c-2,0.7-4.1,0.9-6.2,1.2c-1.6,0.1-3.2-0.1-4.8-0.2
						c-1.2,0-2.4-0.1-3.6,0.1c-0.9,0.1-1.7,0.4-2.7,0.4c0.8-0.7,1.8-0.8,2.7-1c1.1-0.2,2.2-0.1,3.4-0.1c1.1,0,2.3,0.2,3.4,0.1
						C91.5,53.9,92.7,53.8,94,53.6z"/>
					<path class="st6" d="M92.8,55.6c1.7-0.1,3.3-0.5,5-0.5c-1.1,0.4-2.1,0.6-3.3,0.9c-2,0.4-4.1,0.4-6.2,0.4
						c-1.2-0.1-2.5-0.3-3.7-0.3c-1.5,0.1-3,0.5-4.5,0.8c0.4-0.3,0.8-0.5,1.2-0.7c1.2-0.3,2.4-0.6,3.6-0.5
						C87.6,55.7,90.2,55.7,92.8,55.6z"/>
					<path class="st7" d="M95.3,57.2c0.6-0.1,1.2-0.2,1.9-0.2c0,0.1,0,0.3,0,0.4c-1.6,0.5-3.2,0.8-4.8,1.1c-2.4,0.4-4.7,0.1-7.1,0.1
						c-1.2,0-2.4,0.3-3.6,0.3c0.9-0.7,2.1-0.9,3.3-0.9c1.4,0,2.8,0,4.2,0C91.2,58,93.3,57.7,95.3,57.2z"/>
					<path class="st8" d="M106.8,60.3c1.8-0.2,3.6,0,5.4,0.4c2.1,0.4,3.9,1.8,4.8,3.7c0.2,0.4,0.1,1.1-0.4,1.2
						c-2.2,0.5-4.5,0.2-6.7,0.2c-3.2,0.2-6.3,0.8-9.4,1.6c-0.5,0.1-1.2,0.2-1.5-0.3c-0.4-0.6-0.4-1.4-0.3-2.1
						c0.1-0.6,0.2-1.2,0.5-1.7c0.7-0.9,1.6-1.6,2.7-1.9C103.5,60.8,105.2,60.5,106.8,60.3z"/>
					<path class="st8" d="M69.1,63.4c1.8-0.4,3.7-0.6,5.5-0.5c1.5,0,3,0.3,4.6,0.5c1.3,0.2,2.6,1.2,3,2.5c0.3,1,0.5,2.1,0.2,3.2
						c-0.9,0.1-1.9,0-2.8,0c-2.6-0.2-5.3,0-7.9,0.1c-2.3,0.1-4.5,0.5-6.7,0.7c-1.3,0.1-2.7,0-4.1,0c0-0.5,0-1,0.3-1.4
						c0.4-0.5,0.5-1,0.8-1.6c0.4-0.5,0.9-1,1.4-1.4C65,64.3,67.1,63.7,69.1,63.4z"/>
					<path class="st9" d="M126.4,68.9c1.2-0.7,2.8-0.8,4.1-0.2c0.8,0.4,1.3,1.2,1.7,2.1c0.8,2,0.8,4.1,0.6,6.2
						c-0.5,2.6-1.2,5.3-2.3,7.7c-1.7,3.7-4,7.3-7.2,9.9c-0.8,0.7-1.9,1.2-2.8,1.9c0,0.1-0.1,0.3-0.1,0.4c0-0.7,0-1.3,0.1-2
						c0.3-2.6,0.7-5.1,0.7-7.7c-0.1-1-0.1-2,0-3c0.3-2.6,0.6-5.3,0.8-7.9c0-0.6,0.1-1.2,0.4-1.8c0.2-0.4,0.4-0.9,0.4-1.4
						c0-0.7,0.6-1.2,0.9-1.7C124.5,70.4,125.4,69.5,126.4,68.9z"/>
					<path class="st9" d="M50.3,69.5c1.2-0.6,2.5-0.7,3.7-0.4c1.1,0.2,2.1,0.8,2.9,1.5c0.2,2,0.5,3.9,1,5.8c0.2,1.1,0,2.3,0.1,3.4
						c0.1,2.4,0.1,4.8,0.3,7.2c0,0.8,0,1.6,0,2.4c0.1,0.7,0.2,1.4,0.2,2.2c0,0.7,0,1.5,0.1,2.2c0.1,0.4,0,0.9-0.1,1.3
						c0-0.1-0.1-0.4-0.2-0.4c-1.7-0.1-3.3-1-4.5-2.1c-1.3-1.2-2.4-2.6-3.2-4.2c-0.4-0.8-0.6-1.6-1.1-2.3c-0.7-1-1.1-2.1-1.6-3.2
						c-0.5-1.2-0.8-2.5-1.2-3.8c-0.5-2.2-0.4-4.6,0.5-6.6C47.9,71.2,49,70.2,50.3,69.5z"/>
					<path class="st10" d="M131.4,75.8c-0.1-0.4-0.1-0.9,0-1.3C131.5,74.9,131.5,75.3,131.4,75.8z"/>
					<path class="st5" d="M107.7,77.2c1.2,0,2.5-0.3,3.7-0.4c-0.2,0.3-0.5,0.5-0.9,0.6c-1.6,0.4-3.3,0.8-4.9,0.4
						c-0.4-0.1-0.8-0.4-1.2-0.6C105.6,77.1,106.7,77.3,107.7,77.2z"/>
					<path class="st11" d="M108.2,78.5c0.7-0.1,1.4-0.4,2.1-0.5c-0.4,0.6-1,0.7-1.6,0.9c-0.8,0.2-1.6,0.4-2.3,0.3
						c-0.3,0-0.4-0.2-0.4-0.4C106.6,78.7,107.4,78.7,108.2,78.5z"/>
					<path class="st12" d="M69.4,78.4c0.7,0,1.3,0.4,2,0.5c1.7,0.4,3.5,0.3,5.2,0c0,0.1,0,0.2-0.1,0.3c-1.2,0.4-2.6,0.6-4,0.5
						C71.4,79.7,70.2,79.3,69.4,78.4z"/>
					<path class="st13" d="M70.2,80.6c0-0.1,0.2-0.3,0.3-0.4c1.6,0.2,3.1,0.4,4.7,0.1c0,0.1,0,0.3,0,0.4c-1.2,0.4-2.5,0.5-3.7,0.4
						C71,81.1,70.6,80.9,70.2,80.6z"/>
					<path class="st14" d="M100.9,83.3c2.1-1.2,4.6-1.5,7-1.4c2.1,0,4.1,0.1,6.2,0.4c0,0.1,0,0.3,0,0.4c-2.3-0.1-4.6-0.4-6.9-0.1
						c-2.1,0.2-4.2,0.6-6.3,1.2C100.9,83.7,100.9,83.5,100.9,83.3z"/>
					<path class="st15" d="M88.1,85.7c0.1-0.8,0-1.6,0.5-2.2c0.1,0.8,0,1.7,0,2.5c-0.1,1.5-0.3,3-0.4,4.5c0,0.4-0.2,0.8-0.4,1.1
						C87.6,89.6,87.9,87.6,88.1,85.7z"/>
					<path class="st16" d="M121.1,84c-0.1,1,0,2,0,3c0,2.6-0.4,5.2-0.7,7.7c-0.1,0.7-0.2,1.3-0.1,2c0,1.5-0.3,3.1-0.6,4.6
						c-0.4,1.7-0.8,3.3-1.2,4.9c-0.4,1.6-0.7,3.2-1.2,4.8c-0.3,0.9-0.7,1.9-1,2.8c-0.1,0.5-0.3,0.9-0.5,1.4c-0.8,2.2-2.1,4.1-3.5,6
						c-1.3,2-2.9,3.7-4.5,5.4c-1,0.9-2.1,1.8-3.1,2.7c-0.7,0.5-1.4,1-2,1.5c-1,0.8-2.3,1.3-3.5,1.8c-3,1.1-6.2,1.3-9.4,1
						c-1.2-0.1-2.5-0.3-3.7-0.7c-1.3-0.4-2.6-1-3.8-1.6c-1.2-0.7-2.5-1.2-3.6-2c-0.8-0.6-1.7-1.1-2.5-1.7c-2.1-1.5-3.9-3.3-5.6-5.1
						c-1.6-1.8-3.1-3.7-4.3-5.8c-0.4-0.8-1-1.4-1.4-2.1c-0.7-1.2-1-2.5-1.9-3.6c-0.9-1.9-1.3-4-2-5.9c-0.9-3.2-1.9-6.4-2.4-9.7
						c0-0.1,0-0.2,0-0.4c0.1-0.4,0.2-0.9,0.1-1.3c-0.1-0.7-0.1-1.4-0.1-2.2c0-0.7-0.1-1.4-0.2-2.2c-0.1-0.8,0-1.6,0-2.4
						c0.1,0.4,0.3,0.9,0.4,1.3c0.7,3.8,1.7,7.5,3.2,11c0.7,1.9,1.6,3.7,2.5,5.5c0.1-0.4,0.2-0.8,0.3-1.2c0.1,0.9,0.3,1.8,0.5,2.6
						c0-0.7,0.1-1.3,0.2-2c0.4,1.1,0.4,2.3,0.7,3.4c0-0.8,0-1.6,0.3-2.4c0.4,1.2,0.5,2.5,0.8,3.7c0-1.1-0.1-2.3,0.1-3.4
						c0.5,1.3,0.5,2.7,0.9,4c0-0.4,0-0.8,0-1.2c-0.1-1,0.1-2.1,0.1-3c0.3,0.7,0.5,1.4,0.8,2.1c0-0.9,0-1.8,0.3-2.6
						c0.2,0.4,0.3,0.7,0.4,1.1c0.2-0.5,0.4-1,0.6-1.5c0.3-0.5,0.7-0.9,1.1-1.3c0.7-0.7,1.3-1.4,2-2.1c1.2-1.1,2.5-2.1,4-2.9
						c1.8-1,3.9-1.4,5.9-2c2.2-0.6,4.5-0.9,6.7-1c-0.8,0.2-1.7,0.4-2.5,0.5c-0.4,0.7-0.8,1.3-1.1,2c-0.3,0.6,0.2,1.4,0.9,1.4
						c0.6,0,1.2-0.2,1.8-0.5c1.2-0.6,2.4-1.4,3.4-2.2c0.5-0.4,1-0.9,1.3-1.5c0,0,0.1,0.1,0.1,0.2c1.3,0.2,2.7,0.4,4,0.5
						c3.9,0.6,7.5,2.2,10.8,4.4c0.9,0.7,1.7,1.4,2.5,2.2c0-0.2,0-0.4,0-0.6c0.8,0.6,0.8,1.6,1.3,2.4c-0.1-0.5-0.3-1.1-0.3-1.7
						c0.7,0.9,1.1,2,1.4,3.1c0-0.6-0.1-1.2,0-1.9c0.9,1.7,0.6,3.8,1,5.7c0-0.8,0.1-1.7,0.1-2.6c0-0.8-0.2-1.6-0.1-2.3
						c0.1,0,0.3,0.2,0.4,0.4c0.3,0.8,0.4,1.7,0.6,2.5c0.6-1.6,1.1-3.1,1.6-4.7c0.9-2.8,1.4-5.7,2.1-8.6c0.3-1.5,0.7-3,0.8-4.6
						C120.6,87.6,120.7,85.8,121.1,84z"/>
					<path class="st14" d="M68.8,85.6c2.1-0.8,4.5-1.2,6.7-1.4c0.4,0,0.9,0,1.4,0c1.4,0.1,2.9,0.2,4.2,0.7c0,0.1,0,0.2,0,0.4
						c-0.3-0.1-0.6-0.1-0.8-0.2c-4.4-0.5-8.8,0.3-12.9,1.7C67.5,86.1,68.3,85.8,68.8,85.6z"/>
					<path class="st17" d="M92.2,95.1c0.6-0.1,1.2-0.3,1.8-0.4c0,0.1,0.1,0.2,0.2,0.3c-0.3,0.6-0.8,1.1-1.3,1.5
						c-1.1,0.8-2.2,1.7-3.4,2.2c-0.6,0.3-1.2,0.5-1.8,0.5c-0.7,0-1.2-0.8-0.9-1.4c0.3-0.7,0.7-1.3,1.1-2c0.8-0.1,1.7-0.3,2.5-0.5
						C90.9,95.2,91.5,95.2,92.2,95.1z"/>
					<path class="st3" d="M81.8,101.6c1.7-0.6,3.6-0.8,5.4-0.8c2.3,0,4.5,0.2,6.8,0.1c2,0,4,0.1,6,0.4c0.8,0.1,1.6,0.2,2.2,0.7
						c1.2,0.8,2.1,1.7,3,2.8c1,1.3,1.2,3,0.8,4.6c-0.2,2.4-1.4,4.6-2.5,6.6c-0.6,1.1-1.5,2.1-2.3,3.1c-0.9,1.1-2.3,1.7-3.7,2
						c-1.2,0.2-2.7,0.2-3.7-0.6c-0.9-0.6-1.5-1.7-1.7-2.7c-0.2,0.1-0.4,0.3-0.4,0.6c-0.2,0.9-0.7,1.7-1.3,2.4
						c-0.9,1-2.5,1.4-3.8,0.9c-0.9-0.3-1.8-0.7-2.7-1.1c-1.6-0.8-2.9-2-4-3.3c-1.4-1.6-2.5-3.5-2.9-5.6c-0.2-0.9-0.2-1.9-0.2-2.9
						c0-1.2,0.3-2.3,0.7-3.3C78.4,103.6,79.9,102.2,81.8,101.6z"/>
					<path class="st18" d="M97.9,105c0.5,0,1,0,1.4,0.1c-0.2,0.1-0.4,0.3-0.6,0.4C98.5,105.3,98.2,105.2,97.9,105z"/>
					<path class="st19" d="M63.1,111.1c0.9,1,1.2,2.4,1.9,3.6c0.4,0.8,1,1.4,1.4,2.1c1.2,2.1,2.7,4,4.3,5.8c1.7,1.8,3.6,3.6,5.6,5.1
						c0.8,0.6,1.7,1.1,2.5,1.7c1.1,0.8,2.4,1.3,3.6,2c1.2,0.6,2.5,1.2,3.8,1.6c1.2,0.3,2.4,0.5,3.7,0.7c3.2,0.3,6.4,0.1,9.4-1
						c1.2-0.5,2.5-1,3.5-1.8c0.7-0.5,1.3-1,2-1.5c1.1-0.8,2.1-1.8,3.1-2.7c1.7-1.7,3.2-3.5,4.5-5.4c1.4-1.8,2.7-3.8,3.5-6
						c0,1.9,0.4,3.8,0.7,5.7c0.2,1.2,0.3,2.5,0.7,3.7c0.4,1.3,0.7,2.6,1.1,3.9c0.2,0.8,0.7,1.4,0.8,2.2c0,0.4,0.3,0.8,0.5,1.2
						c0.1,0.7-0.2,1.4-0.4,2.1c-1,3-2.1,6.1-3.5,9c-1.1,2.3-2.1,4.6-3.7,6.6c-1.3,1.6-3,2.9-4.6,4.2c-1.4,1-2.8,2.1-4.4,2.8
						c-2.1,0.9-4.2,1.5-6.4,1.9c-1.8,0.3-3.6,0.3-5.4,0.3s-3.6-0.5-5.3-0.9c-1.5-0.5-2.9-1-4.5-1.3c-1.5-0.3-2.9-0.9-4.4-1.3
						c-2.1-0.7-4-1.9-5.8-3.2c-1.2-0.9-2.3-1.9-3.4-2.8c-0.5-0.5-1-1.1-1.5-1.6c-2-2.1-3.5-4.4-5-6.8c-0.4-0.7-0.9-1.3-1.1-2.1
						c0-0.7-0.2-1.4-0.1-2.1c0.5-1.1,0.8-2.2,1.4-3.3c1.3-2.9,2.6-5.8,3.1-9c0.2-1.1,0.1-2.3,0.1-3.4c-0.1-2.3,0-4.6-0.7-6.8
						C63.8,113.2,63.4,112.2,63.1,111.1z"/>
					<path class="st20" d="M93.2,112.7c1.1,0,2.2-0.3,3.3-0.5c-0.3,1.3,0.3,2.6,0.8,3.9c-1.6,0.2-3.2,0-4.7,0.1
						c-1.9,0-3.7,0.3-5.6,0.4c0.4-1.3,0.4-2.7,0.2-4C89.2,112.9,91.2,112.8,93.2,112.7z"/>
				</g>
				<g>
					<path class="st1" d="M105.6,64.1c1.7-0.2,3.4-0.1,5.1-0.1c1.7,0.1,3.3,0.2,4.9,0.8c0.7,0.2,1.4,0.5,2,1c0.6,0.6,1,1.5,1.1,2.4
						c0.6,0,1.2,0,1.9,0.1c1,0.1,2,0.1,2.9,0.4c0.7,0.3,1.4,0.4,2.1,0.7c0,0.1,0,0.3,0,0.4c-0.4,0.3-0.8,0.5-1,0.8
						c-0.6,0.2-1.2-0.1-1.8,0c-1.3-0.1-2.5-0.1-3.8-0.2c0,2.1,0,4.1-0.3,6.2c-0.1,1.4-0.6,2.8-1,4.2c-0.2,0.8-0.6,1.6-0.9,2.3
						c-0.4,1-1.2,1.7-2,2.5c-0.9,1-2.2,1.7-3.6,2.1c-1.1,0.3-2.2,0.6-3.3,0.6c-2.3,0-4.6-0.1-6.8-0.9c-0.8-0.4-1.7-0.6-2.4-1.1
						c-1.6-1.1-2.7-2.7-3.3-4.5c-0.7-1.8-0.8-3.7-1.1-5.6c0-1.8-0.3-3.7-0.1-5.5c-0.4,0.1-0.8,0.1-1.1,0c-1.8-0.3-3.7-0.3-5.5,0
						c-0.4,0-0.8,0.2-1.2,0.1c-0.2,0-0.4-0.1-0.6-0.1c-0.1,0.4-0.2,0.7-0.1,1.1c0.1,1.7,0,3.3,0.1,5c0.2,2-0.1,4-0.2,5.9
						c-0.2,1.2-0.8,2.4-1.3,3.5c-0.3,0.5-0.5,1-0.9,1.4c-0.7,0.6-1.3,1.4-2.2,1.7c-1.1,0.4-2.1,0.8-3.2,1.3
						c-1.4,0.4-2.8,0.5-4.2,0.7c-0.9,0-1.9,0.1-2.9,0.1c-1.9,0-3.7-0.3-5.5-1.1c-0.8-0.3-1.3-1.1-1.9-1.6c-1-0.7-1.5-1.7-1.9-2.8
						c-0.6-1.6-1.1-3.2-1.3-4.9c-0.2-1.3-0.4-2.6-0.4-3.9c-0.1-0.9-0.1-1.8-0.1-2.7c0.1-1,0-2.1,0.2-3c-0.8,0-1.6-0.2-2.4-0.2
						c-0.8,0-1.4-0.5-2-0.9c-0.4-0.3-0.3-0.9,0.2-1c1.6-0.6,3.3-0.4,4.9-0.1c0.4-0.7,1-1.1,1.6-1.6c0.8-0.5,1.7-0.7,2.5-1
						c2.8-0.8,5.8-1,8.7-1.2c2.6,0,5.3-0.2,7.8,0.5c1.2,0.2,2.4,0.6,3.1,1.6c0.4,0.5,0.7,1.2,0.9,1.8c1.1-0.6,2.4-0.7,3.7-0.8
						c1.8-0.1,3.7-0.1,5.4,0.3c0.2-0.7,0.5-1.5,1.1-1.9c0.8-0.5,1.6-1.2,2.5-1.5C100.6,64.7,103.1,64.4,105.6,64.1z M103.8,66
						c-2.1,0.2-4.3,0.6-6.2,1.6c-0.4,0.2-0.8,0.6-1.1,0.9c-0.3,0.3-0.3,0.7-0.4,1c-0.2,1.4-0.2,2.9-0.1,4.3c0,1.8,0.1,3.6,0.4,5.4
						c0.2,1.3,0.8,2.5,1.4,3.6c0.3,0.4,0.7,0.8,1,1.2c0.6,0.8,1.5,1.3,2.4,1.7c1.5,0.6,3.1,0.9,4.7,1.1c2.2,0.1,4.6-0.1,6.5-1.4
						c0.7-0.3,1.1-0.9,1.6-1.5c0.7-0.7,1.1-1.7,1.5-2.6c1.2-3.1,1.8-6.5,1.7-9.9c0-1,0.1-2.1-0.2-3.1c-0.4-0.9-1.5-1.4-2.3-1.8
						c-1.6-0.6-3.2-0.7-4.9-0.8C107.8,65.7,105.8,65.7,103.8,66z M73.4,67.2c-1.9,0.1-3.9,0.3-5.8,0.6c-1.2,0.2-2.5,0.4-3.6,0.9
						c-0.4,0.2-0.9,0.5-1.2,1c-0.4,0.5-0.7,1-0.8,1.6c-0.2,1.2-0.4,2.3-0.4,3.5c0.2,2.5,0.4,4.9,0.9,7.3c0.5,2,1.2,4,2.4,5.7
						c0.4,0.5,1.1,0.8,1.8,1.1c1.2,0.4,2.4,0.6,3.6,0.8c1.4,0,2.8,0.1,4.2-0.1c1.3-0.1,2.5-0.6,3.8-0.9c0.9-0.3,1.8-0.6,2.5-1.2
						s1.4-1.4,1.9-2.2c0.5-1.1,0.9-2.2,1.2-3.3c0.7-3.7,0.6-7.5-0.1-11.2c-0.1-0.8-0.4-1.7-0.9-2.3c-0.4-0.4-0.9-0.4-1.3-0.7
						c-0.9-0.4-2-0.5-3-0.6C76.8,67.2,75.1,67.2,73.4,67.2z"/>
					<path class="st16" d="M85.7,70.8c0.2,0,0.4,0.1,0.6,0.1c0.1,0.8,0.4,1.6,0.4,2.5c0.1,2.2,0.3,4.3,0.1,6.5
						c-0.2,1.8-0.3,3.6-0.5,5.4c-0.2,2.3-0.7,4.6-0.9,6.9c-0.1,0.7-0.1,1.5,0,2.2c0.2,0.1,0.5,0.3,0.8,0.4c1.5,0.3,3,0,4.5-0.1
						c1.3,0,2.6-0.4,3.9-0.3c0.2,0.2,0.3,0.4,0.3,0.6c-1.9,0.5-3.8,0.7-5.8,0.9c-0.6,0.1-1.2,0-1.9,0c-0.8,0-1.6-0.1-2.2-0.5
						c-0.4-0.3-0.6-0.8-0.6-1.4c0-2.2,0.4-4.3,0.7-6.4c0.1-1.6,0.4-3.2,0.4-4.8c0.1-2,0.4-4,0.2-5.9c-0.1-1.7,0-3.3-0.1-5
						C85.6,71.5,85.7,71.2,85.7,70.8z"/>
					<path class="st21" d="M108,71.4c0.7-0.3,1.4,0.2,1.5,0.9c0.2,0.8,0.1,1.9-0.7,2.4c-0.6,0.4-1.5-0.1-1.6-0.8
						C107.1,73.1,107.1,71.9,108,71.4z"/>
					<path class="st21" d="M72.8,73c0.4-0.2,1.1,0,1.2,0.5c0.1,0.9,0.3,2-0.2,2.8c-0.3,0.5-1.1,0.6-1.4,0.1C71.9,75.7,72,74.8,72,74
						C72.1,73.6,72.4,73.1,72.8,73z"/>
					<path class="st19" d="M81.4,103.2c1.1-0.6,2.5-0.7,3.7-0.6c2.5,0,4.9,0,7.3,0.1c1.7,0.1,3.5-0.1,5.3,0.1
						c1.2,0.2,2.4,0.2,3.4,0.8c0.6,1.1,0.5,2.5-0.3,3.4c-1,1.1-2.1,2.2-3.3,3c-1.7,1-3.7,1.2-5.6,1.2c-2-0.1-4-0.4-5.9-1.1
						c-1.8-0.7-3.5-1.9-4.6-3.6c-0.4-0.6-0.4-1.3-0.6-2C80.7,104.2,80.9,103.6,81.4,103.2z"/>
					<path class="st22" d="M82,103.8c1.8-0.2,3.6,0,5.4,0.2c2,0.4,4.1,0.3,6.1,0.3c2.1,0,4.3-0.6,6.5-0.4c0.4,0,0.9,0.2,1.1,0.6
						c0.1,0.3,0,0.5-0.1,0.8c-0.3,0.6-0.8,1.2-1.4,1.7c-0.5,0.4-1.2,0.5-1.8,0.8c-0.8,0.3-1.7,0.6-2.6,0.8c-1.7,0.1-3.3,0.4-5,0.3
						c-2.9-0.4-5.7-1.3-8-3.1c-0.3-0.3-0.6-0.5-0.6-0.9C81.5,104.4,81.5,103.8,82,103.8z"/>
					<path class="st23" d="M90.7,109.6c1.7-0.1,3.4-0.3,5.1-0.4c0,0,0,0.2,0,0.3c-1.1,0.4-2.3,0.5-3.4,0.6
						C91.8,110,91.1,110.1,90.7,109.6z"/>
					<path class="st24" d="M129.2,138.2c0.3-0.4,0.8,0,0.7,0.4c-0.3,2.6-1.1,5.1-2.2,7.4c-0.5,1.2-1.2,2.2-1.8,3.3
						c-0.8,1.4-1.6,2.9-2.5,4.2c-1.2,1.8-2.8,3.5-4.2,5.2c-0.1,0.1-0.3,0.3-0.4,0.4c0.2,0,0.4,0,0.7,0c-0.3,0-0.6,0.1-0.8,0.1
						c-0.8,0.8-1.6,1.6-2.5,2.3c-1.2,1-2.4,2.1-3.7,2.9c-1.9,1.2-3.9,2.2-5.9,3.2c-2,0.9-4.1,1.7-6.2,2.1c-1.7,0.3-3.4,0.6-5.1,0.7
						c-4,0-7.9-0.1-11.8-1.1c-3.4-0.7-6.9-1.7-10.2-3c-0.3-0.1-0.5-0.3-0.8-0.4c-1.2-0.4-2.2-1-3.3-1.6c-1.2-0.6-2.3-1.3-3.4-2.1
						c-1-0.7-2.1-1.3-3-2c-2-1.5-4.1-2.9-5.8-4.8c-0.8-1-1.6-2-2.4-2.9c-0.8-1.1-1.7-2.2-2-3.6c-0.3-0.8-0.8-1.5-0.7-2.4
						c0-0.3,0.3-0.4,0.5-0.5c0.3,0.3,0.2,0.6,0.2,0.9c0,0.3,0.3,0.5,0.4,0.8c0.1,0.3,0,0.6,0.1,0.9c0.3,1,0.9,1.8,1.6,2.6
						c0.8,1.1,1.7,2.1,2.5,3.1c1.7,2,3.8,3.4,5.9,5c0.9,0.7,1.8,1.2,2.8,1.8c4.8,3.3,10.3,5.3,15.9,6.6c1.2,0.2,2.4,0.6,3.7,0.8
						c3.3,0.6,6.7,0.7,10,0.7c2.7-0.2,5.4-0.7,8.1-1.5c2.7-0.9,5.2-2.2,7.7-3.6c1.9-1,3.5-2.5,5.2-3.8c1.2-1.1,2.4-2.2,3.5-3.4
						c1.6-1.7,3-3.6,4.3-5.6c1.5-2.6,2.9-5.3,4-8.1C128.5,141.8,129.1,140,129.2,138.2z"/>
					<path class="st25" d="M72.3,166c0.3,0.1,0.5,0.2,0.8,0.4c-0.4,0.1-0.8,0.2-1.3,0.3c0-0.1,0-0.2,0-0.4c-0.3,0-0.6-0.1-0.9-0.1
						C71.3,166.1,71.9,166.2,72.3,166z"/>
					<path class="st26" d="M191.1,169.8c0.1,0.1,0.3,0.2,0.4,0.3c-0.2,0.1-0.3,0.3-0.5,0.3c-0.7,0-1.5,0-2.2-0.1c0.6,0,1.2,0,1.8,0
						C190.8,170.3,190.9,170,191.1,169.8z"/>
					<path class="st27" d="M-6.5,201.7c0.6-0.4,1.3-0.6,2.1-0.7c2.9-0.6,5.8-0.7,8.7-0.4c1.6,0.3,3.3,0.4,4.9,0.8
						c1.7,0.4,3.5,0.9,5.3,1.2c0.6,2,1.1,4,1.6,5.9H17c-0.1-0.5-0.2-1-0.4-1.5c-0.4-1.7-0.9-3.4-1.4-5.1c-0.6-1.7-1.1-3.4-1.9-5
						c1.2-1,2.7-1.5,4.2-1.9c1.5-0.4,3-0.8,4.5-1.2c2.4-0.5,4.8-0.9,7.2-1.3c3.2-0.4,6.3-1.2,9.5-1.9s6.3-1.4,9.3-2.6
						c1.4-0.5,2.8-0.9,4.2-1.3c2.7-0.8,5.4-1.4,8.2-2c3-0.6,5.9-1.4,8.9-1.9c1.7-0.3,3.5-0.5,5.3-0.8c3-0.4,6.1-0.8,9.1-1.2
						c3.7-0.5,7.3-1.3,10.9-1.9c3-0.4,6-1.1,9.1-1.4c2.4-0.3,4.8-0.3,7.2-0.5c2.9-0.1,5.7-0.4,8.5-0.6c1.1-0.1,2.3-0.1,3.4-0.2
						c3.7,0,7.3-0.2,11,0c2.6,0,5.2,0.1,7.9,0.1c1.7,0,3.3,0.2,5,0.1c1.2,0.1,2.4,0.1,3.7,0.2c2.4,0.1,4.8,0.4,7.2,0.4
						c0.6,0,1.2,0.1,1.8,0.1c1.1,0,2.2,0.2,3.4,0.1c0.9,0,1.8,0.1,2.7,0.1c1.1,0,2.2,0.2,3.3,0.1c1.3,0,2.6,0.2,3.9,0.1
						c1.8,0,3.7,0.2,5.4,0.1c0.3,2.1,0.5,4.1,0.8,6.2c0.2,1.4,0.4,2.9,0.6,4.3c0.3,3.5,1.1,7,1.8,10.4c-0.3-0.2-0.7-0.4-1.1-0.4
						c-3.8-0.1-7.5-0.8-11.3-1.5c-3-0.5-6.1-0.7-9.2-1.1c-3.5-0.4-7-0.6-10.6-0.8c-1.2,0-2.5-0.2-3.8-0.1c-3.8-0.1-7.6-0.3-11.4,0.3
						c-6.2,0.8-12.4,2.4-18.6,3.3c-3.3,0.5-6.5,0.9-9.8,1.2s-6.7,0.5-10,0.9c-3.1,0.4-6.2,0.6-9.4,1.1c-3.9,0.6-7.9,1.3-11.8,2.1
						c-4.5,0.8-9,2.1-13.6,2.1c-2,0.2-4,0.1-6,0.1c-3.2,0-6.3,0-9.5,0.2c-2.1,0.2-4.1,0.4-6.1,0.8c-1.4,0.2-2.8,0.6-4.1,0.9
						c-0.4,0.1-0.9,0.2-1.4,0.3h4.6c1-0.2,2-0.4,3-0.5c2.8-0.4,5.5-0.7,8.3-0.6c5.5,0,11.1,0.3,16.5-0.6c2.9-0.5,5.8-1.1,8.7-1.7
						c3.8-0.8,7.6-1.5,11.4-2c2.8-0.4,5.6-0.7,8.4-1c3.4-0.4,6.8-0.7,10.2-1c3.1-0.3,6.2-0.7,9.3-1.2c6.2-1,12.4-2.7,18.6-3.7
						c1.5-0.2,3-0.4,4.6-0.5c1.9-0.1,3.7,0,5.6,0c5.3,0.2,10.6,0.4,15.8,0.9c3.3,0.4,6.7,0.6,10.1,1.1c3.3,0.5,6.7,1.1,10.1,1.3
						c0.8,0,1.6,0.3,2.4,0.4c0.2,0.8,0.4,1.5,0.6,2.2c0.6,2.2,1.2,4.4,1.7,6.6h0.8c0-0.4-0.1-0.7-0.2-1c-0.4-1.5-0.8-3-1.1-4.6
						c3.4-0.5,6.9-0.9,10.3-1.7c3.2-0.6,6.4-1.2,9.6-1.1c1,0,2,0.3,2.9,0c0-0.1,0-0.4,0-0.5c-0.1,0-0.3-0.1-0.3-0.1
						c-1.7-0.3-3.3-0.4-5-0.3c-3.6,0.2-7.1,1-10.7,1.7c-2.4,0.4-4.8,0.6-7,1.3c-0.5-1.6-0.8-3.2-1.2-4.8c-0.7-3.2-1.3-6.3-1.7-9.5
						c2.3-1,4.8-1.7,7.2-2.3c1.4-0.3,2.8-0.4,4.2-0.8c2-0.4,4-0.6,6-0.8c0.5,0.3,1.1,0.2,1.7,0.1c0-0.1,0.1-0.3,0.2-0.4
						c-0.2-0.2-0.4-0.4-0.6-0.5c-0.7-0.1-1.3-0.1-2.1-0.1c-1.9,0.1-3.7,0.3-5.5,0.7c-1.6,0.3-3.2,0.4-4.7,0.8
						c-2.2,0.5-4.4,1.1-6.4,2.2c-0.4-2-0.6-4.1-0.8-6.1c-0.1-1.2-0.4-2.3-0.4-3.5c-0.2-1.7-0.4-3.4-0.2-5.1c1.8-0.7,3.7-1.2,5.7-1.6
						c0.8-0.2,1.6-0.4,2.4-0.4c0.8,0,1.5,0,2.3,0c0.6,0,1.2,0,1.8,0c0.3,0,0.4-0.3,0.5-0.4c-0.5-0.1-1.1-0.1-1.6-0.1
						c-1.1,0-2.1-0.1-3.1-0.2c-1.1,0-2.1,0.3-3.2,0.4c-1.6,0.3-3.2,0.7-4.6,1.4c0.2-1,0.4-2.1,0.7-3.1c0.7-2.5,1.3-5.1,2.3-7.5
						c0.1-0.4,0.7-0.5,0.6-1c0-0.4-0.4-0.4-0.7-0.3c-1.1,1.9-1.7,4.1-2.3,6.2c-1.2-0.5-2.5-0.8-3.7-1c-1.8-0.4-3.6-0.8-5.4-1.2
						c-2.8-0.6-5.5-1.3-8.3-1.7c-1.7-0.3-3.4-0.3-5.1-0.6c-4.7-0.7-9.4-1.2-14.1-1.8c-3.6-0.4-7.1-0.9-10.7-1.2
						c-1.7-0.2-3.4-0.3-5.2-0.2c-0.9,0.1-1.8,0-2.7,0.1c-1.6,0.2-3.3,0.1-4.8,0.7c-0.1,0.1-0.3,0.3-0.4,0.4c0.2,0,0.4,0,0.7,0
						c1.1-0.2,2.2-0.2,3.3-0.3c1.7-0.1,3.4-0.1,5.1-0.2c3.3,0,6.6,0.5,9.9,0.8c3.7,0.4,17.2,2.1,20.3,2.5c2.9,0.2,5.8,0.7,8.7,1.4
						c3,0.7,6,1.4,9.1,2c0.7,0.3,1.3,0.6,2.1,0.7c0.4,0,1.1,0.1,0.9,0.7c-0.4,1.7-0.9,3.3-1.2,5s-0.1,3.5,0,5.2
						c-7.2-0.4-14.4-0.7-21.5-1.1c-6.8-0.5-13.6-0.9-20.4-0.9c-3.7-0.2-7.3-0.1-11-0.1c-0.9,0-1.9,0.1-2.9,0.1
						c-3.3,0.1-6.6,0.5-10,0.8c-3.3,0.3-6.6,0.3-9.9,0.8c-3.1,0.4-6.2,1.1-9.4,1.6c-3,0.5-6,1.2-9,1.6c-3.3,0.5-6.6,0.9-9.9,1.3
						c-3.2,0.4-6.3,0.9-9.5,1.7c-2.1,0.5-4.1,0.9-6.2,1.3c-1.5,0.4-3.1,0.7-4.6,1.1c-2.4,0.7-4.8,1.4-7.1,2.3
						c-2.9,1-5.9,1.7-8.9,2.3c-2.9,0.6-5.8,1.3-8.8,1.7c-3.2,0.6-6.4,1-9.4,2c-2.2,0.6-4.6,1.1-6.3,2.6c-0.7-1.4-1.5-2.6-2.2-4
						c-0.4-0.8-0.9-1.5-1.3-2.3c-0.5-1.2-1.2-2.2-2-3.2c1.3-0.6,2.7-1.3,4-2c2.1-1,4.5-1.3,6.6-2.2c2.4-1,4.9-1.9,7.2-3
						c1.4-0.6,2.9-1.2,4.2-1.8c2.5-1.1,5-2,7.6-2.9c4.5-1.3,9-2.4,13.5-3.5c4-0.9,8-2,12-2.9c1.4-0.3,2.8-0.8,4.2-1
						c1.7-0.3,3.3-0.5,5-0.9c0-0.1,0-0.2,0-0.4c-0.3,0-0.6-0.1-0.9-0.1c-1.7,0.1-3.4,0.4-5,0.8c-2.9,0.7-5.8,1.2-8.6,2
						c-5.2,1.3-10.4,2.5-15.6,3.8c-2.2,0.7-4.5,1.2-6.7,2.1c-2.6,0.9-5.2,2-7.7,3.2c-1.8,0.7-3.6,1.6-5.4,2.3
						c-1.2,0.5-2.5,1-3.7,1.5c-2.6,1.1-5.4,1.6-7.9,2.9c-1.1,0.5-2.1,1.1-3.1,1.7c-0.5-1.1-1.4-2-2.4-2.7c-0.3-0.2-0.6-0.4-0.9-0.4
						c-0.2,0.1-0.4,0.2-0.7,0.4c0.5,0.5,1.2,0.9,1.7,1.4c1.7,1.8,2.9,4,4.2,6c0.7,1,1.2,2.2,1.8,3.3c0.7,1.2,1.3,2.3,1.9,3.5
						c0.6,1.3,1,2.7,1.5,4c-2.5-0.7-4.9-1.5-7.4-1.7c-1.7-0.3-3.4-0.5-5.2-0.5s-3.6,0.2-5.4,0.5c-0.9,0.2-1.9,0.5-2.7,1
						c-0.3,0.1-0.4,0.4-0.4,0.7C-6.8,201.7-6.6,201.8-6.5,201.7z"/>
				</g>
			</g>
		</g>
	</g>
</g>
</svg>
