<svg xmlns="http://www.w3.org/2000/svg" xmlns:xlink="http://www.w3.org/1999/xlink" xml:space="preserve" id="Layer_1" x="0" y="0" style="enable-background:new 0 0 180 180" version="1.1" viewBox="0 0 180 180"><style>.st1{fill:#4e3e37}.st6{fill:#fcbd9f}.st7{fill:#150f0c}.st8{fill:#16100d}.st11{fill:#fcc0a4}.st13{fill:#f95939}.st15{fill:#b95d38}.st19{fill:#9e313a}</style><defs><path id="SVGID_1_" d="M0 0h180v180H0z"/></defs><use xlink:href="#SVGID_1_" style="overflow:visible;fill:#efad29"/><clipPath id="SVGID_2_"><use xlink:href="#SVGID_1_" style="overflow:visible"/></clipPath><g style="clip-path:url(#SVGID_2_)"><path d="M113.6 20.4c1.9-.2 3.8-.3 5.7-.1 1.7.2 3.3.4 4.9 1 1.6.6 3.1 1.5 4.4 2.5.8.7 1.7 1.3 2.6 2 .8.6 1.6 1.3 2.5 2 1.8 1.4 3.4 3 4.8 4.8 1 1.2 1.6 2.6 2.5 3.9.8 1.2 1.2 2.6 1.9 3.9.8 1.7 1.5 3.4 2.1 5.2.9 2.6 1.3 5.4 1.2 8.1 0 1.4-.1 2.7-.2 4.1-.3 2.7-.6 5.5-1.8 8-.8 1.5-1.9 2.7-3 3.9-1.9 2.1-4.2 3.8-6.7 5-1.3.6-2.6.9-4 1-2.7.3-5.5.4-8.2 0 0 .8.3 1.5.3 2.3.1 1.3.2 2.7-.1 4-.8 3.2-2.1 6.2-3.5 9.1-.4.9-.7 1.9-1.1 2.8-.4 1.1-.8 2.1-1.1 3.3-.2.9-.1 1.8.1 2.6.4 1.4 1.1 2.7 1.5 4.1 1 3.3 1 6.9.1 10.3.6.1 1.3.2 1.9.2 1.6-.2 3.1-.9 4.1-2.2.3-.3.5-.7.8-1-.2 1-.4 2.1-1.3 2.8-.7.6-1.4 1.3-2.3 1.6-1.2.5-2.6.6-3.9.2-.7 1.8-1.8 3.5-3 5-.5.6-1 1.1-1.4 1.7-1 1.3-1.5 3-1.5 4.6-.5-1-.7-2.1-.4-3.2.6-1.9 1.7-3.7 2.8-5.4.7-1.1 1.1-2.2 1.5-3.4-.6-.3-1.1-.6-1.6-1-.5-.5-1.1-.9-1.5-1.5-.1 2.4-1.1 4.6-1.9 6.8-.3.7-.6 1.4-.8 2.2-.6 2.3-1 4.6-.9 6.9-.4-.8-.3-1.7-.6-2.5-.2-1.1-.2-2.2-.2-3.2 0-1.2.4-2.4.9-3.5.8-1.9 1.5-3.8 1.8-5.8.1-.7.1-1.3.1-2s.3-1.4.1-2.1c-.2-.6-.2-1.3-.2-1.9-1 1.9-1.8 4-2.1 6.2-.2 1.3-.6 2.6-.7 3.9-.2 1.1 0 2.3-.4 3.3-.1.3-.5.3-.8.1-.3-.2-.4-.5-.5-.8-.5-1.1-1-2.3-1.6-3.4-1-1.8-2.1-3.4-3.1-5.2-.9-1.7-1.9-3.4-2.9-5.1-1.1-2-2.3-3.9-3.5-5.8-1.4-2.1-2.9-4.1-4.5-6.1-1.7-2.1-3.5-4.3-5.4-6.2-2.1-2.2-4.4-4.4-6.6-6.4-1.6-1.5-3.2-2.9-4.9-4.3-1.7-1.3-3.4-2.6-5.2-3.8-1.8-1.2-3.7-2.4-5.5-3.7-.8-.6-1.7-1.2-2.5-1.9s-1.8-1.2-2.6-1.9c-.5-.4-1.4-.3-1.2-1.2 0 .6 0 1.2.1 1.8 0 .1-.1.2-.1.3h-.3c-.3-1-.3-2-.3-3 0-1.1.2-2.2.5-3.2.5-1.9 1.2-3.8 2.1-5.5 1-2 2.2-3.8 3.6-5.5 1.1-1.4 2.6-2.5 4-3.6 1.5-1.2 3.2-2.2 5-3.1 1.9-.9 3.8-1.7 5.8-2.4 4.2-1.5 8.5-2.4 13-2.5 1.5-.1 3-.1 4.5-.1-.3-1-.3-2.1-.3-3.2.1-1.1.2-2.2.6-3.2.5-1.4 1.3-2.8 2.3-3.9 2.6-2.9 6-4.8 9.6-6.2 1.7-.8 4.1-1.3 6.5-1.5zm1.5 82.3c-.2.4-.4.7-.5 1.1-.5.9-.5 2-.7 2.9-.3 1.6-.1 3.2.6 4.6.4.7.9 1.5 1.6 2 .3-1.3.3-2.6.3-4 0-1.1-.1-2.2-.4-3.3-.3-1-.7-2.1-.9-3.3z" class="st1"/><path d="M170.4 219.7c-.3-4.2-.9-8.3-1.7-12.4-.7-3.7-1.8-7.3-2.9-10.9-.6-2.1-1.4-4.1-2.3-6.1-.9-2-1.9-4-3-5.9-1.9-3.5-4.6-6.6-7.5-9.3-1.1-1-2.3-2-3.5-3-1.6-1.2-3.3-2.3-5-3.4-2-1.3-4.2-2.4-6.2-3.7-3.1-1.8-6.3-3.7-9.2-5.9-1.1-.8-2.1-1.5-3.1-2.4-1.1-1-2.1-2.2-3.2-3.3-1.6-1.8-3.2-3.6-4.6-5.6-1-1.4-2-2.8-3-4.1-.6-.8-1.3-1.6-2.3-2-.6-.3-1.4-.2-1.9.3-.3.3-.7.5-.7.9h-.1c0-.1-.1-.2-.1-.4-.2 0-.4 0-.7.1-1.5.4-3.1.7-4.7 1-.9.3-1.8.5-2.7.7-3.3 1-6.7 1.9-10 2.8-2.4.6-4.8 1.3-7.2 1.9-2.5.6-4.9 1.4-7.3 2.2-1.8.6-3.7 1-5.4 1.7-.5.1-1 .1-1.4.4-.7.5-1.2 1.1-1.9 1.6-.8.7-1.4 1.5-2.1 2.2-1.4 1.4-2.8 2.7-4.5 3.8l-3.3 2.4c-1.3.9-2.6 1.9-4 2.8-1.9 1.2-3.8 2.4-5.6 3.7-1.9 1.3-3.9 2.6-5.8 3.9-3.3 2.3-6.5 4.8-9.4 7.6-1.1 1.1-2.3 2.2-3.4 3.3-1.2 1.3-2.3 2.7-3.3 4.2-1.1 1.7-2.1 3.4-2.9 5.3-1 2.1-1.8 4.3-2.4 6.6-.7 2.2-1.1 4.4-1.5 6.7-.5 2.6-.8 5.2-1.1 7.8-.2 1.5-.3 2.9-.4 4.4h151.3z" style="fill:#d0434e"/><path d="M82.8 51.8c1.3 0 2.5-.1 3.8 0 1.3 0 2.5.2 3.7.6 1.3.4 2.5.9 3.6 1.6 1.1.8 2.3 1.6 3.3 2.5 1 .7 1.7 1.8 2.4 2.7.6.9 1.2 1.9 1.7 2.9.8 1.6 1.6 3.2 2.1 5 .4 1.7.9 3.3 1.2 5 .4 1.8.7 3.5.9 5.3.1 1.9.4 3.9.4 5.8 0 .5-.1 1 0 1.5 0 1.5-.1 3.1-.1 4.6.1 1.6.1 3.3.2 4.9.1 1.6.2 3.1.4 4.7 0 1 .3 2 .6 3h.2c-.1 1.1-.1 2.2-.1 3.3 0 .8-.1 1.7-.1 2.5s-.1 1.7-.1 2.5v4.8c.2 3.6.1 7.2.6 10.8.4 3 .8 5.9 1.6 8.8.4 1.6.6 3.2 1.2 4.7.3 1.1.6 2.3 1 3.4.4 1.3.9 2.6 1.5 3.8-1.5 1.5-3.1 2.9-4.7 4.2-.9.8-1.9 1.3-2.8 2-1.5 1-3 2.1-4.5 3-2.1 1.4-4.4 2.4-6.5 3.8-1.6 1-3.1 2.1-4.6 3.2-1.5 1.1-3 2.2-4.4 3.5-1.8 1.6-3.6 3.3-5.3 5.1-1.4 1.4-2.8 2.9-4.1 4.4-1 1.2-2.2 2.3-3.2 3.5-.2.2-.7.4-.9.1-.3-1.2-.4-2.4-.6-3.5-.4-1.9-.3-3.7-.6-5.6-.1-1.8-.2-3.5-.4-5.3-.2-1.2-.2-2.3-.3-3.5-.1-1.6-.3-3.2-.3-4.8-.2-.1-.2-.3-.1-.5.7-1 1.1-2.2 1.4-3.4.1 0 .2 0 .3-.1 1.5-1.1 3.1-2.1 4.6-3.3 1.7-1.3 3.3-2.8 4.9-4.3 2.2-2.1 4.1-4.6 5.7-7.2.6-.9 1.1-2 1.7-3 1.3-2.3 2.5-4.7 3.5-7.1.8-1.9 1.6-3.8 2.3-5.8l1.2-3.3c.2-.5.4-1 .4-1.6 0-.3-.4-.4-.5-.2-.6.8-1.4 1.4-2.2 2-1.8 1.4-3.5 2.7-5.3 4-.9.6-1.7 1.2-2.7 1.7-1.5.8-3.1 1.6-4.8 2.2-1.3.5-2.6.8-3.9 1.1-.9.2-1.8.2-2.6.2-.4 0-.8 0-1.2.1-1.2-.2-2.4-.6-3.5-1-.9-.4-1.7-1-2.6-1.5-1-.6-1.8-1.5-2.6-2.3-1.4-1.5-2.5-3.3-3.5-5.1-.7-1.4-1.5-2.9-2.2-4.3-.5-1.2-.9-2.5-1.3-3.7-.7-2.1-1.3-4.3-1.7-6.5-.4-2.3-.9-4.5-1.2-6.8-.2-1.3-.3-2.6-.5-3.9-.2-1.7-.4-3.3-.4-5 0-1.2 0-2.4.1-3.6 0-.7 0-1.4.1-2.1 0-.7.1-1.4.2-2.1.2-3.4.8-6.8 1.5-10.1.6-2.3 1.4-4.6 2.6-6.7 1-1.8 2.5-3.2 3.9-4.6 1-1.1 2.4-1.8 3.6-2.7 0 0 .1-.1.1-.2.6-.4 1.3-.8 1.9-1.1.3-.2.7-.2 1-.4 1.4-.6 2.8-1.1 4.3-1.4 2.7-.6 5.4-1 8.1-1.3.9.2 1.8.1 2.6.1z" style="fill:#f2844f"/><path d="M113.9 77.8c1.5-.3 3.1-.1 4.5.4 1 .3 2 .8 2.8 1.5 1.4 1.3 2.4 3 2.6 4.9.2.9.1 1.9 0 2.9-.1 2.2-.9 4.3-2.1 6.1-1.1 1.8-2.6 3.4-4.2 4.9-1.8 1.6-4.1 2.7-6.5 3-1.2.1-2.5.2-3.7.2 0 .1 0 .3-.1.4h-.2c-.3-1-.6-2-.6-3-.1-1.6-.2-3.1-.4-4.7-.1-1.6-.2-3.3-.2-4.9 0-1.5.1-3.1.1-4.6 0-.3.1-.5.2-.7.5-.9.9-1.8 1.6-2.6 1.9-1.7 3.9-3.3 6.2-3.8zM66.5 99.9c.3 0 .6.2 1 .3.7.3 1.6.4 2.3.7.3.1.3.5.1.7-.5.8-1.1 1.5-1.7 2.2-.5.5-.9 1-1.5 1.2-.3.1-.7 0-.8-.3-.2-.3-.1-.7 0-1.1 0-.5.3-.9.3-1.4 0-.6.1-1.2.1-1.8-.1-.2 0-.4.2-.5zm-.9 15.1c.7-.1 1.3-.3 2-.3 1.5-.1 3-.1 4.5.2.2.1.2.4.3.5.1.2.7.1.7.4h-.4c-.1.1-.1.2-.2.3-.4.1-.9.2-1.3.2-1.3 0-2.6.1-3.9.4-.2.1-.3 0-.4-.1-.3-.4-.8-.7-.9-1.2-.1-.1-.3-.1-.4-.3-.1 0-.1-.1 0-.1zm29.3 2c.1-.2.5-.1.5.2 0 .6-.2 1.1-.4 1.6l-1.2 3.3c-.7 1.9-1.5 3.9-2.3 5.8-1.1 2.4-2.3 4.8-3.5 7.1-.5 1-1 2-1.7 3-1.6 2.6-3.5 5-5.7 7.2-1.6 1.5-3.2 2.9-4.9 4.3-1.5 1.2-3 2.2-4.6 3.3-.1.1-.2.1-.3.1.5-2.5.8-5.1.9-7.6 0-.6 0-1.2.1-1.8 0-2.1.4-4.1.5-6.2.1-1.1.1-2.1.1-3.2 0-1 .2-1.9.2-2.9.1-.8.1-1.6.3-2.4v-.3h-.8c.4-.2.8-.1 1.2-.1.9 0 1.8 0 2.6-.2 1.3-.3 2.6-.6 3.9-1.1 1.7-.5 3.2-1.4 4.8-2.2.9-.5 1.8-1.1 2.7-1.7 1.8-1.3 3.6-2.7 5.3-4 .9-.8 1.6-1.4 2.3-2.2z" style="fill:#ef5e2e"/><path d="M123.6 32.2c-.6-.8-1.5-1.5-2.2-2.2h-.2c-.1-.1-.3-.2-.4-.4-1-.8-2-1.5-3.1-2.2-.2-.1-.4-.2-.5-.3-.8-.4-1.6-.8-2.4-1.1-.1 0-.2-.1-.4-.1-.9-.3-1.8-.4-2.7-.3.4.2.8.2 1.3.4.4.1.8.3 1.2.4.1 0 .2.1.4.1.7.2 1.3.5 1.9.9.2.1.4.2.5.3 1.2.6 2.2 1.4 3.3 2.1.2.1.4.2.6.4h-.1c.6.4 1.2 1 1.8 1.5.4.4.7.8 1.1 1.2.1-.3.1-.5-.1-.7zM93.8 47.6c-1.1-.5-2.2-.9-3.4-1.2-.2-.1-.4-.1-.5-.2l-.1.1c-.9-.3-1.9-.5-2.8-.7-.9-.2-1.8-.3-2.7-.5-.1 0-.2.1-.3.1-.3 0-.5 0-.8-.1-.2 0-.4.2-.6.4h.8s.1 0 .2-.1c.8.2 1.6.2 2.4.3 1.2.2 2.4.4 3.5.8h.1c.2.1.3.1.5.2 1.2.3 2.4.6 3.5 1.1.3.1.5.2.8.3-.3-.3-.4-.4-.6-.5z" style="fill:#fbbb9e"/><path d="M62.9 61.1c.4-.3.8-.5 1.2-.6-.1.2-.2.3-.3.5-1.4.9-2.6 2.1-3.6 3.4-.4.5-.6 1-1.1 1.4.1-.8.5-1.4 1-2 .8-1.1 1.8-1.9 2.8-2.7z" class="st6"/><path d="M84.9 70.5c1.4-.5 3-.6 4.5-.7 1.5 0 3 .2 4.4.7.9.3 1.9.6 2.7 1.2.3.4.9.5 1.3 1-1.8 0-3.5-.2-5.3.1-4.2.6-8.3 2.2-12.4 3.4-.9.3-1.9.5-2.9.6-.2 0-.5 0-.6-.3 0-.1.1-.3.2-.4.8-.8 1.5-1.6 2.4-2.4 1.8-1.3 3.6-2.4 5.7-3.2z" class="st1"/><path d="M114.9 26c1-1.9 2.1-3.6 3.6-5.1 0-.1-.1-.2-.1-.2-.6.4-1 .9-1.5 1.4-1 1.2-1.8 2.4-2.4 3.8.1.1.3.1.4.1zm7.3-.3c.7-.9 1.4-1.8 2.2-2.7.2-.2.4-.5.5-.8-.2.1-.3.1-.4.2-.8.7-1.5 1.5-2 2.4-.2.4-.6.8-.6 1.3 0-.1.2-.2.3-.4z" class="st7"/><path d="M117.3 27.1c.2.1.4.2.5.3 1.1-.3 2.3-.5 3.5-.7 1.9-.3 3.8-.2 5.6-.2 1.8 0 3.5.4 5.2 1 .1.1.3 0 .4 0-.7-.4-1.5-.6-2.3-.8-.6-.2-1.2-.2-1.8-.3.4-.4.9-.7 1.2-1.2-.6.1-.9.8-1.4 1.2-.8-.1-1.7 0-2.5-.1-.1 0-.3-.1-.4-.1.7-.9 1.5-1.7 2.3-2.5-.5.1-.9.5-1.3.8-.5.5-1 1.1-1.4 1.8-1.2-.1-2.5 0-3.7.1-1.1.1-2.2.4-3.2.6 0-.4.3-.8.5-1.2.8-1.4 1.7-2.8 2.8-4 .2-.2.3-.3.4-.5-.7.3-1.1.9-1.6 1.4-1.1 1.3-1.9 2.8-2.4 4.4h-.4zm-3.8 1.3c.1-.1.3-.2.4-.3.3-.5.5-1.1.7-1.6-.1 0-.2-.1-.4-.1-.2.6-.5 1.3-.7 2zm-11.1 3.8c-.2 1.3-.4 2.5-.3 3.8 0 .7 0 1.5.4 2.2 0-.1.1-.2.1-.3-.1-1.3-.2-2.5-.1-3.8.2-1.7.5-3.5 1-5.2.5-1.7 1.2-3.3 2.2-4.8.3-.4.6-.8.8-1.3-.2 0-.4.1-.5.3-.7.9-1.3 1.9-1.8 2.9-.3.8-.7 1.6-.9 2.4-.4 1.3-.6 2.5-.9 3.8zm24-2.8c-1.8 0-3.6-.1-5.4.2.1.1.3.2.4.4h.2c.8-.1 1.6-.2 2.4-.2 3.5-.1 7 .4 10.4 1.2 1 .3 2 .6 3.1 1 0-.1 0-.2-.1-.3-1.5-.8-3.1-1.2-4.8-1.5-2.1-.4-4.2-.7-6.2-.8zM84.3 41.9c1.4-.4 2.8-.6 4.3-.9 1.3-.3 2.6-.5 3.9-.7 1.1-.2 2.2-.3 3.3-.4.7 0 1.3-.1 2-.1v-.3c-.8 0-1.6.2-2.5.1-1.6.1-3.3.4-4.9.7-1.3.2-2.5.5-3.8.7-2.1.3-4.1 1-6.1 1.8-1 .4-2 .9-2.9 1.5-.9.6-1.8 1.3-2.4 2.3-.9 1.4-1.3 3-1.6 4.6-.1.5 0 1 0 1.5.3-.9.6-1.8.8-2.7.4-1.5.9-3.1 2.1-4.2.9-.8 1.8-1.5 2.9-1.9 1.4-.9 3.2-1.5 4.9-2zm-6.3-.2c-.7.3-1.3.7-1.9 1.1-1.5 1-3 2-4.2 3.2-.7.7-1.2 1.5-1.7 2.4-.7 1.1-1 2.4-1.3 3.7-.1.7-.2 1.4 0 2.1h.3c.1-.6.1-1.2.2-1.8.1-.8.3-1.7.6-2.4.3-.8.8-1.6 1.2-2.3.5-.8 1.2-1.5 1.9-2.1 1.4-1.3 3-2.4 4.5-3.4.2-.1.3-.3.4-.5zm-11.7 7.1c-.9 1.8-1.3 3.7-1.2 5.7.1.4.1 1 .6 1.1 0-.2 0-.3-.1-.5-.2-1-.1-1.9 0-2.9.1-1.1.5-2.1.9-3.1.6-1.3 1.2-2.6 2.1-3.8h-.3c-.8 1.1-1.4 2.3-2 3.5z" class="st7"/><path d="M79.9 47.7c-.9 1.3-1.6 2.7-1.7 4.2.1 0 .3 0 .4-.2.2-.6.3-1.2.6-1.8.5-1 1.1-2 1.9-2.8.7-.6 1.5-1.1 2.2-1.6h-.8c-1 .5-1.9 1.3-2.6 2.2zm9.4-1.2-.9.6c-1.4 1-2.4 2.5-3.2 4.1-.1.2-.1.5-.1.8.4-.5.6-1 1-1.5.5-.9 1.1-1.7 1.8-2.3.6-.6 1.3-1 1.9-1.5 0-.1-.2-.2-.5-.2zm-27.7 5.9c-.5 1-.7 2.2-.8 3.3-.1 1-.1 2.2.6 3h.2c-.2-.6-.4-1.2-.4-1.8-.1-1 0-2.1.2-3.1.1-.3.2-.6.2-1 .3-.4.5-.8.6-1.2-.3.1-.6.5-.6.8zm47.3.7c1.9-.6 3.8-.9 5.8-1.1.6 0 1.3 0 1.9-.1 0-.1-.1-.2-.1-.2h-.6c-.8-.1-1.6 0-2.3.1-.9.1-1.8.2-2.7.4-1.9.3-3.7 1-5.4 1.7-1.7.7-3.3 1.7-4.9 2.7-.5.3-1 .7-1.3 1.2.1 0 .2.1.2.1 1.7-1.2 3.4-2.3 5.3-3.2 1.3-.6 2.7-1.1 4.1-1.6zm-50.1 3.4c-.4.3-.5.9-.6 1.3-.2.9 0 1.9.4 2.7.2.3.4.8.8.8-.7-.8-1-1.9-1-2.9 0-.6.2-1.3.4-1.9zm52.1 2.9c-1.8.6-3.5 1.6-5.2 2.5-.6.4-1.2.7-1.6 1.3.2 0 .4 0 .5-.1 1.7-1.1 3.4-2.1 5.2-2.8 2.7-1.1 5.5-1.9 8.4-2.4.4-.1.8-.1 1.1-.2-1.4-.2-2.7.2-4 .4-1.5.3-2.9.8-4.4 1.3z" class="st7"/><path d="M144.2 59.4c-.9.7-1.9 1.3-2.8 1.9-.9.5-1.9.9-2.8 1.3-1.1.5-2.4.9-3.6 1.2-2.2.6-4.6 1.1-6.9.9-1.6-.1-3.1-.5-4.6-1.2-.6-.3-1.1-.6-1.7-.9-.1-.5-.2-1.1-.3-1.6h.6c.9.6 2 .7 3.1.8 2 .3 3.9.1 5.9-.4 2.4-.5 4.7-1.4 6.9-2.5 1.2-.6 2.3-1.4 3.4-2.2 1.1-.8 2-1.8 2.8-2.9.5-.7 1.2-1.3 1.6-2-.4.2-.7.6-1 .9-.9.9-1.8 1.9-2.7 2.9-.5.5-1 .9-1.6 1.3-.9.7-1.9 1.3-2.9 1.9-2.6 1.4-5.6 2.3-8.5 2.7-2.2.3-4.5.1-6.6-.6-.3-.2-.6-.3-.9-.3-.2-.9-.4-1.8-.8-2.6l.9.3c1.3.4 2.6.7 3.9.8 1.2.1 2.3-.1 3.5-.3 1.4-.2 2.9-.5 4.3-1 2.8-1 5.5-2.5 8-4.3 1.5-1.1 2.9-2.6 3.7-4.4.2-.5.5-1 .7-1.6-.5.3-.6.9-.9 1.4-1.2 2.1-3 3.9-5.1 5.2-1.6 1-3.2 1.9-4.9 2.6-2.3 1.1-4.9 1.6-7.4 1.9-1.8.2-3.6-.1-5.4-.6-.4-.1-.8-.3-1.3-.4-.3-.7-.6-1.5-1-2.2.3-.1.7 0 1 .1.8.2 1.6.2 2.4.3 2.3-.1 4.6-.6 6.8-1.2 1.2-.3 2.4-.9 3.6-1.4 1.1-.5 2-1.1 3-1.7 1.5-.9 2.9-1.9 4.1-3.2.9-.9 1.5-2.1 2.1-3.2.3-.7.7-1.4.8-2.1.2-.4.5-.9.1-1.3l-.3 1.2c-.4.9-.8 1.7-1.3 2.6-.5.9-1 1.8-1.7 2.5-1.4 1.5-3.2 2.6-4.9 3.6-1.5.9-3.2 1.7-4.8 2.3-1.2.4-2.4.7-3.6 1-1.8.5-3.7.6-5.6.3-.6-.1-1.2-.3-1.9-.3-.2-.4-.4-.9-.6-1.3v-.2c1.3.3 2.7.4 4.1.3 1.4-.2 2.7-.3 4.1-.7 1.2-.3 2.3-.8 3.4-1.2.9-.4 1.8-.9 2.7-1.4.7-.4 1.5-.8 2.1-1.3.8-.6 1.7-1.1 2.4-1.9.9-.9 1.6-1.9 2.1-3 .8-1.7 1.4-3.5 1.4-5.4h-.2c-.2 1.5-.7 3-1.2 4.4-.4.9-.8 1.9-1.4 2.7-.6.8-1.3 1.5-2.1 2.1-.8.6-1.6 1.2-2.5 1.7-1.1.6-2.2 1.3-3.4 1.8-2 .8-4 1.5-6.1 1.8-1.9.3-3.7.2-5.6 0-.2-.4-.4-.7-.6-1.1.8-.2 1.7 0 2.5 0 1.7 0 3.4-.1 5-.7.8-.3 1.7-.5 2.4-.9 1.3-.5 2.5-1.2 3.6-2 1.5-1 2.7-2.4 3.9-3.8.6-.7 1-1.5 1.6-2.2.3-1 1-1.9 1.3-2.9.5-1.3 1-2.6.9-4 .1-.5 0-.9 0-1.4-.1 0-.2 0-.3-.1-.1.4.1 1-.2 1.4-1.3-.5-2.6-.8-3.9-1.1-3.5-.6-7-.9-10.5-.5-1.6.2-3.1.4-4.7.8-1.9.5-3.8 1-5.6 1.9-.8.3-1.5.8-2.2 1.3-1.5 1.2-3.2 2.3-4.3 3.8-.7-.3-1.3-.7-2-1-.1 0-.2-.1-.2-.1.7-1 1.3-2.1 2.1-3.1 1.1-1.3 2.3-2.4 3.6-3.5.8-.7 1.8-1.1 2.7-1.6.8-.4 1.6-.8 2.4-1.1 1.6-.6 3.3-1 5-1.2h.1c-.2-.1-.4-.2-.6-.4-1.9.3-3.7.7-5.5 1.5-1.3.6-2.6 1.2-3.7 2-1.6 1.1-3 2.6-4.3 4.1-.8 1-1.4 2.1-2.1 3.1-.8-.3-1.6-.6-2.4-.8l1.2-2.1c1-1.7 2.3-3 3.8-4.3 1.7-1.5 3.6-2.7 5.5-3.8 1.4-.8 2.8-1.3 4.3-1.8-.2-.1-.4-.2-.5-.3-.9.4-1.8.7-2.7 1.1-1.6.8-3.2 1.7-4.6 2.8.1-.6.3-1.1.5-1.6.6-1.6 1.2-3.2 2.1-4.6.8-1.3 1.7-2.6 2.9-3.7.2-.2.3-.4.4-.6-.2.1-.4.1-.5.3-1.2 1-2.2 2.3-3 3.7-1 1.5-1.6 3.2-2.2 4.9-.2.6-.5 1.2-.5 1.9-1.3.9-2.4 2-3.5 3.1 0-.3 0-.6.1-.8.4-2.5 1.1-4.9 2.1-7.2.7-1.5 1.6-2.9 2.7-4.1.3-.3.6-.6.8-1-.4 0-.6.3-.9.5-1.1 1-1.9 2.3-2.6 3.6-1 2-1.7 4.2-2.1 6.4-.2.9-.4 1.8-.4 2.7 0 .3-.2.5-.4.7-.6.7-1.2 1.5-1.7 2.4-.3.4-.5 1-.7 1.4-.1.2-.2.2-.3.3-.4-.2-.9-.3-1.4-.4-.6-1-.7-2.1-.8-3.2.1-2.1.2-4.1.8-6.1.2-.6.5-1.2.6-1.8h.1c.4-.9.9-1.8 1.4-2.6.3-.5.7-.9.9-1.3-.6.3-.9.8-1.3 1.4-.5.8-1 1.7-1.4 2.6-.4.9-.7 1.9-1 2.8-.4 1.5-.4 3.1-.5 4.6 0 .8.1 1.6.3 2.3.1.4.3.8.4 1.3-.6-.1-1.2-.2-1.9-.2-.6-3.4-.3-7 .6-10.3v.1l.9-1.8c-.5.3-.8.9-1.1 1.4-.3.7-.4 1.4-.6 2.1-.5 2.8-.7 5.7-.2 8.5-.5 0-1.1-.1-1.6 0-.5-1.6-.5-3.4-.6-5 0-.9 0-1.8.5-2.6 0 0-.1 0-.1-.1-.2.4-.5.8-.5 1.3-.3 1.6-.1 3.1.1 4.7 0 .6.2 1.2.4 1.7-.3 0-.5.1-.8.1h-.7c.1.3.4.3.7.4v-.1c.3 0 .7.1 1 0 .6 0 1.2 0 1.8.1 0 .1.1.2.1.3.2-.1.5-.2.7-.2 1.3.2 2.6.5 3.8 1-1.2-.1-2.4.1-3.5.4-2.4.5-4.8 1.1-7.2 1.7-1.9.4-3.8.9-5.7 1.5-1 .3-2.1.6-3 1.2.3 0 .5 0 .8.1.1 0 .2-.1.3-.1 2.3-.8 4.6-1.5 7-2 2.4-.5 4.8-1.2 7.2-1.7 1.1-.2 2.2-.5 3.3-.6h1.9c.4.2.8.3 1.2.5.6.2 1.1.5 1.6.8-.2.1-.4.2-.6.1-.7-.1-1.3-.2-2-.2-2.3-.1-4.5.7-6.6 1.3-1.1.4-2.2.7-3.2 1.1-1.4.6-2.8 1.1-4.1 1.9.2.1.4.1.5.2 2-1.1 4.2-1.9 6.4-2.6 2.6-.9 5.4-1.7 8.2-1.6.6.1 1.2-.1 1.8-.1 1 .5 2 1.1 2.9 1.8-.1 0-.2 0-.3.1-.9-.3-1.9-.3-2.8-.2-1.2.1-2.3.3-3.5.6-2 .5-3.9 1.2-5.7 2.2-1.2.7-2.5 1.3-3.6 2.3-.8.7-1.7 1.5-2.5 2.3-.4.4-.7.8-.9 1.2.2 0 .4-.1.5-.2 1.1-1.1 2.2-2.2 3.5-3.2 1-.8 2.3-1.4 3.4-2 1.8-1 3.8-1.6 5.8-2.1 1.5-.4 3-.6 4.6-.6.6.2 1.3.2 2 .2 1.1.8 2.1 1.7 3 2.7-1.2 0-2.4-.1-3.6.1-1.9.3-3.8.9-5.6 1.6-1.2.5-2.5.9-3.6 1.6-1.5.9-3.1 1.9-4.4 3.1-.3.3-.7.6-1 1 .4.1.6-.2.9-.4.7-.6 1.4-1.2 2.2-1.7l2.4-1.5c1-.6 2.2-1.1 3.3-1.5 2.4-1 4.9-1.6 7.4-1.9.7-.1 1.4 0 2.1 0 .9.9 1.7 1.9 2.4 3s1.4 2.3 2.1 3.5c.9 1.7 1.8 3.4 2.3 5.2l.9 3.3h-1.1c-2.3.6-4.5 1.4-6.6 2.5-.9.5-1.7.9-2.6 1.4h-.1c-.1.1-.2.1-.3.2-.9-.3-1.8-.7-2.6-1.1-.9-.6-1.8-1.2-2.8-1.6-.9-.4-1.9-1-2.9-.9.2.1.5.3.8.3.8.2 1.5.7 2.2 1 .8.4 1.6.9 2.4 1.4.8.5 1.7.8 2.6 1.2 1.4.5 2.8 1 4.3.9 1.4 0 2.9-.2 4.3-.6.7-.2 1.2-.7 1.8-1.1.1.1.1.2.2.3.3-.2.6-.6 1-.7.1 1.2.2 2.5.2 3.7v1.4c0 .6.1 1.3 0 1.9 0 .5-.1 1-.2 1.5s-.2 1-.2 1.5h.3c.1-.3.1-.5.2-.8.2-.5.3-1.1.4-1.7.5.9 1.1 1.8 2.1 2.2.2.1.4 0 .6 0-.1-.1-.3-.2-.4-.3-1-.6-1.7-1.5-2-2.6-.1 0-.2.1-.2.1.1-.8 0-1.6 0-2.4.3.6.7 1.2 1.2 1.8.8.9 1.8 1.5 2.9 2.1.7.3 1.3.7 2 .8-.4-.4-.9-.5-1.3-.7-.9-.5-1.7-1-2.5-1.6-1-.8-1.7-1.9-2.3-3 0-.9-.1-1.7-.1-2.6.1.3.2.5.4.7.4.9 1.1 1.6 1.9 2.3 1.3 1.2 3 1.8 4.7 2.3.7.2 1.5.4 2.2.4v.1c.8 0 1.7.2 2.3-.3-.7 0-1.3.1-2 .1-1.5-.3-3-.8-4.4-1.4-1.9-.8-3.5-2.2-4.6-3.9 0-.2-.2-.4-.3-.5h-.3c0-.6-.1-1.2-.1-1.7.4.5.9 1.1 1.4 1.4.9.6 1.8 1.1 2.7 1.5 3.5 1.4 7.3 2 11 1.3.9-.2 1.8-.3 2.6-.7.5-.1 1.1-.4 1.6-.6.4-.2.8-.4 1-.7-.9.4-1.7.7-2.6 1.1h.1c-.8.2-1.6.4-2.4.5-1.7.3-3.5.4-5.2.2-2.1-.2-4.2-.7-6.1-1.5-.9-.4-1.8-.9-2.6-1.5-.6-.4-1.1-.9-1.6-1.4 0-.3-.1-.6-.1-.9v-.4c.4.2.7.5 1.1.7 1.8.9 3.8 1.4 5.9 1.4 1.2 0 2.4-.2 3.5-.4 2.2-.4 4.4-.9 6.4-1.9 1-.5 2-.9 2.9-1.5.9-.6 1.8-1.2 2.6-2 .4-.4.7-.7 1-1.2.1-.1 0-.2 0-.3-1-.1-1.4.3-1.8.7zm-36.6-17.6c1.1-1.5 2.7-2.6 4.2-3.7.6-.4 1.2-.7 1.8-1.1 2.4-1.3 5.1-1.9 7.8-2.4 1.6-.3 3.2-.5 4.9-.5 2.8-.1 5.7.2 8.5.7 1.3.2 2.6.7 4 1 0 .5 0 1-.2 1.5h-.4c-.3-.3-.8-.5-1.2-.6-3-.9-6.3-1.3-9.4-.9-1.3.1-2.7.4-4 .7-2.9.6-5.6 1.6-8.2 3-1.1.6-2.1 1.2-2.9 2-.8.6-1.4 1.4-1.9 2.2-1-.9-2-1.4-3-1.9zm3.1 1.9c.3-.4.5-.7.8-1 .9-.8 1.8-1.6 2.9-2.3 1.9-1.1 3.9-2 6-2.7 3.1-.9 6.3-1.6 9.6-1.6 1.5 0 3 .2 4.5.4 1.1.2 2.2.6 3.3.9.3.1.5.1.8.2-.1.6-.3 1.1-.5 1.6l-3-.3c-2.5-.1-5 0-7.5.4-2.8.5-5.5 1.2-8.1 2.3-1.3.5-2.7 1.1-3.9 1.8-.9.5-1.8 1.3-2.7 1.8-.9-.5-1.6-1-2.2-1.5zm2.2 1.8c.6-.3 1.1-.7 1.7-1.1 1.4-.9 2.9-1.6 4.4-2.2 1.4-.6 2.8-1.1 4.3-1.4 1.9-.5 3.8-.9 5.7-1.1 2.9-.3 5.8-.4 8.7-.1-.3.9-.8 1.8-1.3 2.7-1.6 0-3.3 0-4.9.3-2.8.3-5.5 1-8.2 1.7-1.6.5-3.3 1.1-4.9 1.7-1.2.5-2.4 1-3.5 1.7-.6-.8-1.3-1.5-2-2.2zm2.3 2.5c1.4-.9 3.1-1.4 4.6-2.1 2.6-.9 5.2-1.8 7.8-2.4 1.6-.3 3.2-.6 4.8-.8 1.2-.1 2.5-.2 3.7-.2-.7 1.3-1.6 2.4-2.6 3.4-.2.2-.3.4-.6.3-1.3-.1-2.6-.1-3.9.1-1.7.2-3.4.5-5 .9-2.6.6-5.2 1.3-7.7 2.4-.3-.5-.7-1.1-1.1-1.6zm1.4 2c2.4-1 4.9-1.6 7.3-2.2 2.9-.7 5.9-1.2 8.9-1-1.6 1.6-3.5 2.7-5.6 3.6-1.5.6-3 1.2-4.7 1.3-.5.1-1.1.1-1.6 0h-3.3c-.3-.6-.6-1.2-1-1.7zm2 16.6c-1.4.5-2.8.7-4.2.7-1.2.1-2.3-.3-3.5-.6l.3-.3c.6-.2 1.2-.5 1.8-.8 1.4-.7 2.9-1.4 4.4-1.9 1.3-.4 2.5-.9 3.8-1.1.1.7.2 1.4.2 2.1-.9.8-1.8 1.4-2.8 1.9z" class="st7"/><path d="M118.6 73.8c-.7.2-1.4.3-2.1.3-.9-.1-1.8 0-2.7-.1-1-.1-2-.4-3-.7-1.2-.4-2.2-1.1-3.2-1.8-.9-.9-1.8-1.8-2.5-2.9-.5-.7-.9-1.6-1.6-2.1.4.8.9 1.6 1.4 2.3.5.8 1.2 1.6 1.9 2.3.6.7 1.5 1.3 2.3 1.8.5.3 1 .5 1.6.7.9.3 1.9.6 2.9.7 1.1.1 2.3.1 3.4.1.9 0 1.8-.4 2.6-.5.7-.1 1.5-.4 1.8-1.1-.4 0-.7.4-1 .5-.6.4-1.2.3-1.8.5zm-8.1 3.4c-1.3-.4-2.4-1.2-3.4-2-.6-.4-.9-1-1.4-1.5 0 .2 0 .4.1.5.6 1 1.5 1.7 2.4 2.3 1.1.6 2.2 1.1 3.5 1.1.5.2 1 .4 1.5.2-.4-.2-.8-.3-1.2-.3-.6-.2-1.1-.1-1.5-.3z" class="st7"/><path d="M68 77.8c-1.7-.9-3.4-1.5-5.3-1.9-1.7-.4-3.6-.5-5.3-.1-.9.2-1.9.4-2.7 1-.5.3-1 .6-1.4 1.2-.2.3-.2.6-.2.9-.1.6-.2 1.2 0 1.8.5 0 1-.3 1.5-.4 2.7-1.1 5.7-1.5 8.6-1.5 1.2-.1 2.5-.1 3.7-.1h1c.2-.1.2-.4.3-.6 0-.2-.1-.3-.2-.3z" class="st1"/><path d="M87.5 82.6c.6-.3 1.3.2 1.4.8.1.8.1 1.6-.3 2.3-.4.6-1.2.8-1.7.3-.5-.4-.5-1.2-.4-1.8.1-.6.4-1.3 1-1.6z" class="st8"/><path d="M84.2 83c.1-.1.4-.4.6-.2-.1.4-.4.7-.6 1-.4.6-.7 1.2-1.2 1.7-.1.2-.3.2-.5.2 0-.3 0-.6.2-.9.4-.6 1-1.2 1.5-1.8z" style="fill:#fcb897"/><path d="M117 84.4c-.5-.6-1.4-.9-2.3-.7-1.4.1-2.5 1-3.3 2.1-.4.6-.9 1.1-1 1.8.8-.7 1.3-1.6 2.1-2.3.5-.5 1.2-.8 1.9-1.1.6 0 1.2-.1 1.7.2.6.3.8 1 .7 1.6-.2 1-.6 2-1.1 2.9-.8 1.5-1.9 2.8-3.1 3.9-.8.7-1.6 1.5-2.5 2-.2.1-.2.2-.2.4.5 0 1-.3 1.4-.6.7-.5 1.4-1.1 2-1.7 1.5-1.4 2.8-3 3.7-4.9.3-.6.5-1.3.6-1.9-.1-.6-.2-1.2-.6-1.7z" style="fill:#cc492f"/><path d="M57 85.3c.5-.3 1.2.1 1.4.6.1.5 0 1 0 1.5-.1.4-.3.8-.7 1-.3.1-.8.1-1-.3-.4-.5-.3-1.1-.3-1.7.1-.3.2-.8.6-1.1z" class="st8"/><path d="M95.8 87.6c0-.2.3-.1.4-.1-.1 1-.7 1.7-1.3 2.5-.5.7-1.1 1.4-1.7 1.9-.1.1-.3.1-.4.1 1.1-1.4 2.2-2.8 3-4.4z" class="st11"/><path d="M70 89.5c.1-.3.3-.5.5-.7 0 .8-.3 1.6-.7 2.4-.7 1.5-1.5 2.9-2.3 4.3-.2.4-.5.9-.9 1.1.1-.5.4-.9.6-1.4 1-1.9 1.9-3.8 2.8-5.7z" class="st6"/><path d="M57.6 89.6c.6-.1 1.1-.3 1.7-.4v.4c-.7.4-1.4.7-2.2.8-.6.1-1.2 0-1.8-.3v-.5c.8.1 1.6.2 2.3 0z" style="fill:#b9603c"/><path d="M60 91.2c.6-.2 1.1-.6 1.8-.7-.1.2-.2.4-.4.5-.9.6-1.9 1-3 1.3-.4.1-.9.2-1.3.2v-.4c.9-.2 1.9-.5 2.9-.9z" class="st6"/><path d="M85.3 91.8c1.4-.1 2.8 0 4 .9.7.5 1.1 1.4 1.6 2.1.9 1.3 1.2 2.9.9 4.4-.2 1.6-.9 3.1-2.2 4.1-.8.6-1.8 1.2-2.8 1.4-.7.1-1.4.2-2.1 0-1-.2-2-.4-2.8-.9-1.3-.9-2.2-2.4-2.5-4-.2-1.2.1-2.5.6-3.6.3-.7.7-1.4 1.2-2 .3-.3.6-.7.9-1 .9-.8 2-1.3 3.2-1.4zm-29.9 3.7c1.1-.1 2.2 0 3.1.6 1.1.7 1.7 1.9 1.9 3.1.2 1.2 0 2.4-.5 3.5-.6 1.4-1.6 2.7-2.9 3.4-.4.2-.8.4-1.2.2-.4-.2-.5-.7-.6-1.1-.1-.8-.3-1.5-.4-2.3-.1-.8-.3-1.5-.4-2.3-.3-1.3-.4-2.7-.8-3.9-.1-.3-.1-.6.2-.8.5-.3 1-.4 1.6-.4z" class="st13"/><path d="M68.3 98.8c.2-.9 1.4-1.4 2.2-1.1.3.1.6.4.7.7.1.3-.1.7-.5.7-.8 0-1.6-.1-2.4-.3z" style="fill:#b75c37"/><path d="M87.4 87.8c-.8.1-1.7 0-2.5 0 .3.5 1 .6 1.6.6.8 0 1.6-.2 2.3-.6.2-.1.3-.3.4-.5-.6.2-1.2.4-1.8.5zM69.7 101c-.7-.4-1.5-.4-2.2-.6-.9-.3-2-.4-2.6-1.3-.1-.7.1-1.3.3-1.9.5-1.2 1.1-2.4 1.6-3.5.9-2 1.7-4.1 2.3-6.2.1-.6.3-1.1.3-1.7.2-.6.1-1.3-.1-1.9-.2.6-.2 1.2-.2 1.7-.1.5-.2 1-.4 1.5-.7 2.1-1.4 4.2-2.4 6.2-.6 1.4-1.3 2.7-1.9 4.2-.2.5-.2 1.1-.2 1.7.2.4.5.7.9.9.8.4 1.7.6 2.6.9.7.2 1.3.5 2 .5.2-.1.2-.3 0-.5z" class="st15"/><path d="M66.7 106.1c1.4-.6 3-.8 4.5-.6 1.1.1 2.3.1 3.4.6 1.6.6 3 1.8 3.8 3.3l-3.3-1.2c-1.1-.4-2.2-.6-3.4-.8-1-.1-2 .1-2.9.2-.8.1-1.5.3-2.3.5-1.1.3-2.1 1-3 1.9l-1.5 1.5c.1-.7.4-1.3.7-1.9.4-.7 1-1.4 1.6-1.9.9-.6 1.6-1.2 2.4-1.6z" class="st13"/><path d="M68.8 107.6c1-.2 1.9-.4 2.9-.2 1.2.2 2.3.4 3.4.8s2.2.9 3.3 1.2c.1.1.3.1.4.2v.3c-.1 0-.3.1-.4.1-.6-.1-1.1-.2-1.6-.4-1.6-.7-3.3-1.1-5-1.4-1-.2-2.1.1-3.1.3-.9.2-1.9.3-2.7.7-1 .5-1.8 1.1-2.5 1.9-.4.4-.8.8-1.2 1.1-.1 0-.2-.1-.3-.1.1-.1.1-.3.2-.4.4-.6 1-1 1.5-1.5.8-.8 1.8-1.5 3-1.9.6-.5 1.4-.6 2.1-.7z" style="fill:#a33d29"/><path d="M68.7 108.3c1-.2 2.1-.5 3.1-.3 1.7.3 3.4.7 5 1.4.5.2 1.1.4 1.6.4-.4.3-.7.7-1.2 1-1.5.9-3 1.6-4.7 1.9-1 .2-1.9.3-2.9.5-1.9.1-3.7-.1-5.5-.5-.7-.1-1.4-.3-1.9-.7.4-.3.9-.7 1.2-1.1.7-.8 1.5-1.4 2.5-1.9.9-.4 1.9-.5 2.8-.7z" class="st13"/><path d="M69.7 109c.1-.2.3-.2.5-.3 0 .6-.3 1.1-.5 1.7-.1.3-.2.6-.4.9 0 0-.1-.1-.2-.1.2-.7.3-1.5.6-2.2z" style="fill:#fb9f7d"/><path d="M67.6 109.6c.1-.2.3-.2.5-.3 0 .3-.1.6-.2.9-.2.5-.3 1.1-.4 1.6-.1-.1-.3-.2-.3-.4 0-.5.1-1.2.4-1.8z" style="fill:#fcaa87"/><path d="M67.9 118.6c1.2-.7 2.7-.7 4.1-.7 0 .1 0 .2-.1.2-1.4.1-2.8.4-4.1.8.1 0 .1-.1.1-.3z" class="st11"/><path d="M96.3 115.2c-.9.9-1.7 1.9-2.6 2.8v.1c-.9.7-1.7 1.4-2.6 2.1-.8.6-1.5 1.3-2.4 1.9-.8.6-1.5 1.2-2.3 1.7-.8.5-1.6.9-2.4 1.4-2.1 1.2-4.3 2.1-6.7 2.5-1.2.1-2.5.4-3.7.5-.3 0-.5.1-.7.2 0 .1.1.2.1.4.8.1 1.6 0 2.4-.1.9-.1 1.7-.3 2.5-.4 1.4-.3 2.9-.7 4.2-1.4 1.4-.7 2.9-1.3 4.2-2.2 1.8-1.2 3.4-2.5 4.9-4 .8-.8 1.7-1.5 2.5-2.3.9-.7 1.6-1.6 2.3-2.5.6-.8 1.2-1.5 1.7-2.4-.4.5-.8 1.1-1.4 1.7z" class="st15"/><path d="M112.3 146c.1.2.2.5.4.5s.4-.1.5-.2c.2-.2.5-.4.5-.8l.3-1.2c-.1-.6-.4-1.1-.8-1.5-.3-.3-.8-.5-1.3-.4-.4.1-.6.4-.5.8.2 1.1.6 1.9.9 2.8zm.6 16.9c-.1.1-.2.3-.2.4.2-.1.4-.2.5-.3 1.4-1.3 2.6-2.7 3.7-4.2 1-1.4 2-2.9 2.7-4.5.3-.7.6-1.5.4-2.3h-.4c-.1.4-.2.9-.4 1.4-.6 1.9-1.6 3.6-2.7 5.2-1 1.5-2.1 3-3.6 4.3z" class="st19"/><path d="M59.8 219.7c.7-1.9 1.7-3.7 2.6-5.5.8-1.6 1.6-3.2 2.6-4.6 1.4-1.9 2.7-3.9 4.2-5.7 1.3-1.4 2.6-2.8 3.9-4.1 1.3-1.3 2.7-2.4 4-3.7 1.5-1.5 3.2-2.8 4.9-4.1 1.7-1.4 3.4-2.6 5.2-3.8l6-3.9c1.6-.9 3.1-1.9 4.6-2.8 2-1.3 4.1-2.4 6-3.8 1.9-1.2 3.7-2.6 5.5-4 1.3-1 2.5-2.1 3.6-3.3 1.6-1.8 3.3-3.6 4.7-5.5 1-1.3 1.9-2.7 2.6-4.3.9-2.1 1.7-4.2 1.6-6.5 0-.6-.1-1.2-.6-1.6 0 .7.1 1.4.1 2.1-.1 1.1-.3 2.1-.7 3.1-.6 1.7-1.3 3.3-2.3 4.8-1.1 1.7-2.4 3.3-3.7 4.8-1.5 1.7-3 3.3-4.7 4.8-3.1 2.5-6.4 4.8-9.9 6.8-1.7 1-3.4 2.1-5.1 3.1-2.1 1.2-4.3 2.5-6.3 3.9-1.4.9-2.9 1.9-4.3 2.9-2 1.4-3.8 3-5.7 4.4-1.5 1.2-2.8 2.6-4.2 3.8-1.7 1.5-3.3 3.2-4.8 4.9-1.4 1.4-2.5 3-3.7 4.6-1.2 1.7-2.4 3.3-3.4 5.2-1.2 2.4-2.5 4.8-3.4 7.3-.1.2-.1.4-.2.5h.9zm2.5-36.1c.5 1.1.9 2.3 1.3 3.5.3.8.5 1.7 1.2 2.3.3-.4.1-.8 0-1.2-.5-1.5-1-3-1.6-4.4-.4-1-.7-2-1.1-3-.5-1.4-.9-2.9-1.3-4.4-.7-2.4-1.1-4.9-1.3-7.4v-3.5c.1-.5.2-1 .2-1.5-.4 0-.5.5-.6.8-.3 1.2-.3 2.4-.3 3.6 0 2.9.6 5.9 1.3 8.7.6 2.1 1.4 4.3 2.2 6.5z" class="st19"/><path d="M55.6 219.7c.1-.9.1-1.8.2-2.7.2-1.8.4-3.6.7-5.4.4-2.2.8-4.3 1.4-6.4.5-2.4 1.5-4.6 2.5-6.8s2.2-4.2 3.4-6.3c1-1.6 2.2-3.2 3.3-4.7.6-.8 1.2-1.7 1.8-2.5.5-.6.9-1.1 1.4-1.7.8-1 1.5-2.1 2.4-3l-.2-.2c-1 .7-1.6 1.8-2.4 2.6-.6.6-1.2 1.2-1.7 1.9-.7.8-1.2 1.6-1.9 2.4-1.1 1.5-2.3 3-3.3 4.5-1.2 1.8-2.3 3.7-3.2 5.7-1 2.1-2 4.3-2.6 6.5-1 3.8-1.8 7.6-2.2 11.5-.1 1.2-.3 2.3-.3 3.5 0 .3 0 .6-.1.8h.8zm25.7-21.1c-.3.3-.5.5-.8.7-1.6 1.3-3.3 2.6-4.8 4-2.6 2.4-5.2 5-7.1 8.1-.2.3-.4.6-.4 1h.4c.6-.9 1.2-1.7 1.8-2.5 1.3-1.6 2.8-3.1 4.4-4.6 1.6-1.6 3.4-3 5.1-4.5.7-.6 1.4-1.2 1.9-2 .2-.3.4-.6.4-.9-.5.2-.7.4-.9.7zM30 219.7c0-.8.1-1.5.1-2.3.2-2.7.7-5.4 1.4-8 .5-2.6 1.4-5.2 1.5-7.9 0-1.1.1-2.3 0-3.4h-.4c-.5 1.5-.4 3-.7 4.5-.4 2.3-1 4.6-1.4 6.9-.7 3.3-1.2 6.7-1.2 10.1h.7zm100.7-4.8c-.6 1.5-1 3.2-1.3 4.8h.5c.1-.3.2-.7.3-1 .9-3 2.5-5.7 4-8.4.5-1 .8-2.1 1.1-3.2h-.3c-.5.8-.8 1.7-1.4 2.5-1.1 1.7-2.2 3.4-2.9 5.3z" class="st19"/><path d="M129.4 219.7c0-1.2.2-2.4.4-3.6.3-2 .6-4 1.2-6 .6-2.4 1.7-4.7 2.4-7.1.3-1.1.5-2.2.5-3.3h-.3c-.3.8-.5 1.6-.7 2.5-.5 1.6-1.2 3.2-1.8 4.8-.8 2-1.2 4-1.6 6.1-.4 2.2-.7 4.3-.5 6.5h.4zm36.3-12.1c-.8-1.6-1.8-3.1-2.6-4.8-.2-.5-.5-1.1-1-1.3-.1.2-.2.4-.1.6.3 1.2.9 2.4 1.6 3.5 1 1.6 2 3.2 2.7 4.9.3.8.5 1.6.7 2.3h.4c-.2-1.9-.9-3.6-1.7-5.2zm-137 12.1c-.1-1.1-.1-2.2 0-3.2 0-1.6 0-3.2.1-4.8.1-1.3.2-2.7.3-4 .1-.4 0-.8 0-1.2h-.3c-.1.4-.2.8-.3 1.3-.4 2.2-.7 4.4-.7 6.6 0 1.8 0 3.6.1 5.5h.8z" class="st19"/></g></svg>