<svg xmlns="http://www.w3.org/2000/svg" xmlns:xlink="http://www.w3.org/1999/xlink" xml:space="preserve" id="Layer_1" x="0" y="0" style="enable-background:new 0 0 180 180" version="1.1" viewBox="0 0 180 180"><style>.st2{fill:#38312d}.st3{fill:#f2844f}.st4{fill:#f95939}.st7{fill:#b95d38}.st9{fill:#160e0b}</style><defs><path id="SVGID_1_" d="M0 0h180v180H0z"/></defs><use xlink:href="#SVGID_1_" style="overflow:visible;fill:#806aea"/><clipPath id="SVGID_2_"><use xlink:href="#SVGID_1_" style="overflow:visible"/></clipPath><g style="clip-path:url(#SVGID_2_)"><path d="M181 218.4c.1-.4.2-.8.2-1.3.2-4.9-.5-9.6-2.1-14.2-.2-3.1-.7-6.1-1.5-9.1-.1-.3-.2-.5-.3-.8-.4-2.2-.9-4.3-1.5-6.4-.7-2.6-1-5.3-2.1-7.8-.5-1.1-1.2-2.1-1.8-3.1-.6-1-1.3-2-2-2.9-1.4-1.7-3-3.2-4.7-4.7-.9-.7-1.9-1.3-3-1.8-2.5-1.2-4.9-2.3-7.5-3.3-2.5-1-5-2.3-7.4-3.5-2.6-1.3-5.3-2.3-7.9-3.4-2.7-1.2-5.3-2.5-7.9-3.9-1.2-.8-2.6-1.3-3.8-2-.8-.5-1.6-1-2.5-1.5-.7-.4-1.4-.7-2.2-.8-1.5 0-3 .1-4.6.1-3.4.1-6.9.1-10.3.1-2.7 0-5.3 0-8 .1-2.5.1-5.1.2-7.6.3-5.5.2-11.1.6-16.5 1.5-3 .5-6 1.2-8.9 1.9-2.6.6-5.1 1.3-7.7 1.7-.7.1-1.3.3-2 .3.1 0 .2-.1.3-.2 0-.2 0-.5-.2-.6-1-.4-2.1-.2-3 .2-2.1.9-3.9 2.3-5.7 3.7-1.9 1.5-3.6 3.2-5.4 4.8-1 .9-2.2 1.6-3.1 2.6-.7.7-1.5 1.2-2.3 1.9-2.2 1.8-4.6 3.5-6.8 5.2-3.6 2.9-7.3 5.8-10.5 9.2l-1.8 2.1c-.5.4-1 .9-1.5 1.3-2.1 2-3.7 4.3-4.8 6.9-.5 1-.9 2.1-1.3 3.1-2.6 5.2-4.5 10.8-6 16.4-.7 2.3-1.3 4.6-1.9 7-.1.2-.1.4-.1.6H181z" style="fill:#dfaf33"/><path d="M81.9 22.1c.2-.2.4-.2.6-.3.1.1.3.3.2.5 0 .6-.3 1.1-.5 1.6.9-.6 1.7-1.2 2.6-1.9.2-.2.5 0 .8 0 .2.7-.4 1.2-.6 1.9 1-.6 1.8-1.4 2.9-1.9.2-.1.6-.1.6.1.2.5.1 1 0 1.4.6 0 1.1-.6 1.6-.8.3-.2.8-.2 1 .2 0 .2 0 .4-.1.6 2.7.3 5.2 1.3 7.6 2.5 2.1 1 4 2.5 5.8 4 .6.6 1.4 1.1 2 1.7 2.1 1.9 4.4 3.4 6.6 5.2l2.7 2.4c1 .9 1.9 1.8 2.5 2.9 1 1.8 1.9 3.7 2.5 5.7.5 1.6 1 3.2 1.2 4.8.2 1.7.6 3.4.6 5.1v4.8c-.1 2.8-.3 5.6-.8 8.4-.2 1-.5 1.9-.7 2.9-.1.7-.5 1.4-.5 2.2-.1 1.3-.1 2.6-.4 3.8-.4 2.7-.5 5.4-1.2 8-.4 1.7-.8 3.5-2 4.9-.8.9-1.7 1.7-2.8 2.3-1.3.8-2.8 1.3-4.2 1.9-2.4 1.1-4.9 1.9-7.5 2.7-2 .6-3.9 1.1-5.9 1.6-1.8.5-3.7.8-5.5 1.3-1.4.3-2.8.6-4.2.7-3 .3-5.9.2-8.9 0-1.8-.1-3.5-.5-5.2-.7-2.5-.3-4.9-.8-7.2-1.6-1.3-.5-2.6-1.1-3.3-2.3-1.1-1.8-1.9-3.8-2.4-5.9-.4-1.5-.6-3-.7-4.6-.2-1.8-.1-3.6-.1-5.5 0-1.7 0-3.4-.1-5.1-.2-2.4-1.7-4.4-2.4-6.7C55.9 69 55.3 67 55 65c-.2-1.4-.5-2.8-.6-4.2 0-1.5 0-2.9.2-4.4.2-1.6.4-3.2.8-4.8.6-2.2 1.5-4.3 2.4-6.4.6-1.4 1.2-2.8 2-4.1 1.1-1.7 2.3-3.4 3.6-5 1.7-2.1 3.8-3.7 6-5.3 2-1.4 4-3 6-4.4 1-.7 2.1-1.3 3.3-1.8.4-.1.7-.4 1-.7.7-.5 1.5-1.2 2.2-1.8z" class="st2"/><path d="M105.8 38.3c.8-.3 1.5-.8 2.4-.7.6 0 1 .5 1.5.8 1.6 1.5 3.3 2.9 4.3 4.8.7 1.1 1.5 2.2 2 3.5.9 2.2 1.8 4.3 2 6.7.1 1.1.3 2.3.5 3.4.3 1.6.4 3.2.6 4.8.1 2 0 4-.2 5.9-.4 2.3-.9 4.5-1.5 6.8-.2 1-.5 2-.7 3-.2 1.4-.5 2.8-.6 4.2-.1 1-.1 1.9-.2 2.9 0-.2-.1-.4-.1-.5-.5 2.7-1 5.4-1.2 8.2-.1 1.1 0 2.2 0 3.3 0 1.1.3 2.1.4 3.2.1.3 0 .9.5 1h.1c-.1 0-.3 0-.4.1.2 1.6 0 3.1-.3 4.7-.8-.6-1.7-.8-2.5-1.3-.9-.5-1.9-.8-2.9-1.2-1.5-.6-3.1-1.2-4.7-1.5-1.2-.2-2.3-.6-3.5-.8-1-.1-2.1-.1-3.1-.3-1.8-.2-3.7-.4-5.5-.2-.9-.1-1.7-.1-2.5.1-1.7.3-3.3.4-5 .5-1.3.1-2.6.2-3.8.5-3.5.9-7 2.4-9.6 5-.6.7-1.2 1.4-1.9 1.9-1.1 1-2 2.2-2.9 3.3l-.6.9c-.2-.5-.5-.8-.8-1.3-.3-.4-.5-.8-.8-1.2v.4c-.2-.9-.3-1.8-.5-2.7-.3-1.1-.4-2.2-.6-3.3.2-.3.2-.6.2-.9-.1-1.4-.1-2.9-.3-4.3-.2-1.5.1-3.1-.2-4.6.1-1.4.4-2.8.4-4.2 0-1.2-.1-2.4-.3-3.5-.1-1.5-.4-3-.7-4.5-.4-2.5-1.2-5-2-7.4-.4-1.5-.6-3.1-.9-4.7-.3-3.1-1-6.1-1.4-9.1-.2-1.3-.2-2.6-.3-3.9 0-1.8.2-3.5.8-5.2.7-1.8 2-3.3 3.2-4.8.8-.9 1.7-1.8 2.8-2.3.8-.8 1.7-1.4 2.7-1.9 1-.5 2-1.2 3.2-1.1.8.3 1.7.4 2.6.6 1.1.3 2.2.4 3.3.4 1.1.1 2-.6 3.1-.6.8-.1 1.4.7 2.1.6.5 0 .9-.2 1.4-.2.6 0 1 .6 1.6.7.6.1 1.2-.1 1.7-.1.6 0 1.3.2 1.9.2.7 0 1.4-.1 2.1-.2.5-.1 1 .3 1.5.2.5-.1 1-.4 1.5-.3.8 0 1.5-.2 2.3-.4.2 0 .4-.2.5-.3 1.8.2 3.2-1.1 4.9-1.6.8-.2 1.5-.5 2.2-.6.8-.1 1.5-.6 2.2-.9z" class="st3"/><path d="M124.5 71.8c1.7-.4 3.4-.9 5.2-.6 1.2.3 2.3.9 3 2 .7 1.2.8 2.6 1 3.9.2 1.9-.5 3.7-1.1 5.4-.5 1.5-1.3 2.8-2 4.2-1.6 3.3-4 6.1-6.7 8.6-1.4 1.4-3.1 2.4-4.9 3.2-1.1.6-2.3.7-3.5.8-.4-.1-.4-.6-.5-1-.1-1.1-.4-2.1-.4-3.2s-.1-2.2 0-3.3c.2-2.8.7-5.5 1.2-8.2 0 .2.1.4.1.5v1.2c.9-3.9 2.4-7.6 3.4-11.5.1-.4.5-.6.8-.7.7-.2 1.3-.5 2.1-.7.7.1 1.5-.4 2.3-.6zm-77.6 2.5c.8-.7 1.8-1.1 2.9-1.2 1.3-.1 2.6.2 3.8.6.7.4 1.6.5 2.3.9 1.2.6 2.5 1.1 3.8 1.7.4.7.3 1.6.5 2.4 1 3.9 1.5 7.9 2.1 11.8.2 1.5.4 3 .9 4.4.1-.5.1-1 .2-1.5.3 1.5 0 3.1.2 4.6.2 1.4.2 2.9.3 4.3 0 .3 0 .6-.2.9l-.3-1.5c-2.3-.4-4.4-1.5-6.3-2.6-1.1-.7-2.2-1.3-3.2-2.1-1-.7-1.9-1.4-2.7-2.3-.9-.9-1.6-1.9-2.3-2.9-.7-.8-1.2-1.6-1.8-2.5-.9-1.6-1.8-3.1-2.4-4.8-.3-.8-.5-1.6-.5-2.5-.2-1.5-.1-3.2.5-4.6.4-1.2 1.1-2.3 2.2-3.1z" class="st4"/><path d="M90.2 99.2c.8-.1 1.6-.2 2.3-.3 1.8-.2 3.7 0 5.5.2 1 .2 2.1.2 3.1.3 1.2.2 2.3.5 3.5.8 1.6.3 3.2.9 4.7 1.5 1 .4 2 .7 2.9 1.2.8.5 1.8.7 2.5 1.3-.4 2.3-.9 4.6-1.9 6.7-.3.6-.6 1.1-.9 1.7l-.2-.2c-.7.9-1.6 1.6-2.2 2.6-.5.8-1.1 1.4-1.6 2.2-.7.7-1.2 1.5-1.8 2.3-.5.6-1 1.2-1.4 1.8-1 1.4-2 2.7-3 4-.6.7-1.2 1.4-1.9 2-.7.7-1.5 1.2-2.2 1.8-.9.5-1.8 1.1-2.7 1.5-.6.3-1.4.2-2 .2-.9 0-1.8 0-2.7-.2-1.4-.2-2.9-.5-4.2-1.2-.7-.4-1.5-.7-2.2-1.2-1.2-.9-2.4-1.8-3.6-2.8-.8-.7-1.5-1.5-2.3-2.1-.7-.6-1.4-1.1-2-1.8-.8-.7-1.5-1.6-2.4-2.3-1.2-1.1-2.2-2.5-3.3-3.6-.6-.7-1.4-1.3-2-2.1-.5-.6-.9-1.2-1.5-1.7-.2-.1-.3-.3-.3-.5.2-.3.3-.6.6-.9.9-1.1 1.9-2.3 2.9-3.3.7-.6 1.3-1.3 1.9-1.9 2.6-2.6 6.1-4.1 9.6-5 1.3-.3 2.5-.4 3.8-.5 1.7-.1 3.3-.2 5-.5z" style="fill:#ca7852"/><path d="M64.8 108.8c.3.4.5.8.8 1.2.3.4.6.8.8 1.3.1.2.2.4.3.5.6.5 1 1.1 1.5 1.7.6.8 1.3 1.4 2 2.1 1.1 1.2 2.1 2.5 3.3 3.6.8.7 1.5 1.6 2.4 2.3.6.6 1.4 1.2 2 1.8.8.7 1.5 1.5 2.3 2.1 1.2.9 2.4 1.8 3.6 2.8.7.5 1.5.8 2.2 1.2 1.3.7 2.7 1 4.2 1.2.9.2 1.8.2 2.7.2.7 0 1.4 0 2-.2 1-.4 1.8-.9 2.7-1.5.7-.6 1.6-1.1 2.2-1.8.7-.6 1.3-1.3 1.9-2 1-1.3 2.1-2.6 3-4 .4-.6.9-1.2 1.4-1.8.6-.7 1.1-1.6 1.8-2.3.5-.8 1.2-1.4 1.6-2.2.6-1 1.5-1.7 2.2-2.6 0 .1.1.1.2.2-.1 1.2-.1 2.5 0 3.7-.6.8-1.1 1.7-1.6 2.5-.8 1.1-1.3 2.3-2 3.4-1 1.5-1.9 3-3 4.4-1.1 1.5-2.2 3-3.5 4.4-.6.7-1.3 1.4-2 2.1-.9.9-1.9 1.7-2.9 2.6-1.6 1.3-3.3 2.3-5.1 3.3-3 1.6-6.1 3.2-9.4 4.2-1.7.5-3.5 1.1-5.2 1.5-.9.2-1.8.4-2.7.5-1.6.1-3.1 0-4.7-.3-1.1-.3-1.9-1-2.7-1.8-.7-.6-1.3-1.3-1.8-2.1-.4-.6-.8-1.2-1-1.8l.9-3.9c.3-1.5.7-3 .9-4.4.4-2.5.4-5 .3-7.5-.3-3-.5-6.1-1-9.1l-.9-4.8c.2-.4.3-.6.3-.7z" style="fill:#e56324"/><path d="M112 116.2c.3 2.2.5 4.4.8 6.6.4 2.9.9 5.7 1.4 8.5.2 1 .3 2 .6 3 .3 1.1.7 2.1 1.1 3.2.8 2 1.8 4 3.1 5.8.7 1.1 1.6 1.9 2.4 2.9.9 1.1 2 1.9 3 2.8.2.3.4.6.8.8.2.8-.3 1.5-.6 2.1-.8 1.3-1.7 2.6-2.7 3.8-1.1 1.4-2.2 2.7-3.6 3.7l-3.3 2.4c-1.5 1.2-3.1 2.4-4.8 3.3-1.3.8-2.6 1.3-4 1.8-1.9.7-3.8 1.3-5.7 1.7-3.7.8-7.4 1.8-11.2 1.8-1.1.2-2.2.1-3.3.2-1.1 0-2.3.2-3.4.1-1.4-.1-2.9-.3-4.3-.5-1.3-.2-2.6-.5-3.9-.8-2.1-.5-4.2-1.2-6.2-2-2.4-.9-4.6-2.1-6.8-3.5-.7-.4-1.4-.9-2.1-1.3-1.2-.8-2.3-1.8-3.3-2.8-.6-.6-1.3-1.2-1.8-2-.3-.6-.7-1.2-.9-1.9-.4-.1-.6-.6-.2-.9.8-.7 1.6-1.5 2.3-2.3.7-.8 1.5-1.5 2.2-2.3 1.3-1.5 2.7-3 3.8-4.7 1.5-2.1 2.5-4.5 3.2-6.9.2.7.6 1.3 1 1.8.5.8 1.1 1.5 1.8 2.1.8.8 1.6 1.5 2.7 1.8 1.5.3 3.1.4 4.7.3.9 0 1.8-.3 2.7-.5 1.8-.4 3.5-.9 5.2-1.5 3.3-1 6.4-2.6 9.4-4.2 1.8-1 3.5-2 5.1-3.3 1-.8 2-1.6 2.9-2.6.7-.7 1.4-1.3 2-2.1 1.3-1.4 2.4-2.9 3.5-4.4 1.1-1.4 2-2.9 3-4.4.7-1.1 1.3-2.3 2-3.4.3-.5.8-1.3 1.4-2.2zm-13.5-11.1c.5 0 1.2-.4 1.6.1 0 .2 0 .5-.2.7-.6.5-1.1 1-1.7 1.5-.8.9-1.9 1.4-2.9 1.9-.8.4-1.7.8-2.6 1-1.7.4-3.4.7-5.1.8-1.9.1-3.8-.4-5.6-1.1-.8-.5-1.8-.8-2.7-.8-.3 0-.6-.2-.9-.4.2-.3.6-.4.8-.7.3-.4.8-.5 1.3-.6 1.8-.4 3.6-.6 5.4-.6.6 0 1.2-.3 1.8-.5.7-.3 1.4-.3 2.1-.4 1.5-.2 3.1-.4 4.6-.6.7-.1 1.4 0 2-.1.6-.2 1.4-.2 2.1-.2z" class="st3"/><path d="M90 58.4h.3c.8 2.2.9 4.5 1.1 6.7.1.8.2 1.6.2 2.4-.3-.1-.3-.5-.4-.8-.3-1.9-.5-3.8-.8-5.6-.1-.9-.4-1.8-.4-2.7zm-3.2.7c.1.1.2.2.2.3.3 1.3.7 2.6.7 3.9.1 1.9.2 3.8.7 5.6-.1 0-.2 0-.2.1-.6-2-.9-4.2-1-6.3-.1-1.2-.6-2.3-.4-3.6z" class="st7"/><path d="M72.9 65.3c1.1-.5 2.3-.6 3.5-.6 1.1 0 2.3.2 3.2.8.2.1.1.4.1.5-.6-.2-1.1-.5-1.8-.6-1.4-.2-2.8 0-4.1.3-.3.1-.7.1-1 0 .1-.1.1-.2.1-.4z" style="fill:#fcb692"/><path d="M95 68.7c2.5-1.5 5.5-1.8 8.3-2 1.5-.2 3 0 4.5-.1 2.3 0 4.6.1 6.8 1l1.5 1.2c-.1.1-.2.3-.4.3-.9.1-1.9 0-2.8.1-1.7.1-3.4 0-5 .4-1.4.3-2.8.8-4.1 1.3-2.4 1-4.9 2.2-7.4 2.8-.9.3-1.8.1-2.6.6h-.6c-.1-.5-.1-.9-.2-1.4.2-.8.1-1.7.6-2.4.2-.7.7-1.4 1.4-1.8zm-25.4.2c-1.3.3-2.6.7-3.6 1.5-1 .7-2 1.5-2.9 2.3-.3.1-.3.7 0 .8 1 .1 2-.2 3.1-.2 1.7-.1 3.3-.4 5-.2 1 0 2 .1 3 .2.7 0 1.3.3 1.9.4 1.3.3 2.6.6 3.9.8 1.8.2 3.6.2 5.5.1.6 0 1.2.1 1.8.1 0 0 .1-.3.2-.3-.2-.2-.5-.2-.8-.3.2 0 .4-.1.6-.1 0-1-.2-1.9-.5-2.8-.1-.3-.2-.6-.5-.8 0 .4.1.8.2 1.1-1-.9-2.2-1.4-3.4-1.8-1.3-.4-2.7-.6-4-.9-3.2-.4-6.5-.7-9.5.1zm23.2.8c-.5.8-.6 1.7-.7 2.5 0 .8 0 1.6.4 2.4.3 0 .7 0 1-.2h-.6c-.1-.5-.1-.9-.2-1.4 0-.2-.1-.4-.1-.6.1-1 .5-1.9.7-2.9-.2 0-.4 0-.5.2zm-1.5 2c-.1 1-.1 2.1.3 3 .2-.1.2-.4.2-.6-.1-.8-.1-1.6 0-2.3 0-.4.1-.8.1-1.2-.4.1-.5.7-.6 1.1zm-4.1-.4c.2.8.2 1.5.3 2.3 0 .2-.1.5-.2.7 0 .1-.1.2-.1.2h.5c.2-.9.2-1.8.2-2.7 0-.4-.3-.8-.6-1-.1.1-.1.3-.1.5zm1.1.4c0 1 .1 2 0 3.1.1 0 .2-.1.3-.1.1-.6.2-1.1.2-1.7-.1-.4-.1-1-.5-1.3zm2.2.2c-.1.4-.2.9-.1 1.4.1.5.2 1.1.6 1.4-.2-.9-.3-1.8-.3-2.8h-.2zm-1.5.5c0 .7.1 1.5 0 2.2h.3c.1-.7.2-1.5 0-2.2H89z" class="st2"/><path d="M106 74.3c.4-.1.8.2 1 .6.4.8.3 1.7.1 2.5-.1.4-.3.8-.7 1-.3.1-.7 0-1-.2-.7-.8-.8-2-.4-2.9.1-.5.6-.9 1-1z" class="st9"/><path d="M48.2 75.9c.1-.3.3-.6.7-.6 1.2-.1 2.3.3 3.4.7.8.3 1.7.8 2.3 1.5-.1 0-.2.1-.3.1-.6-.3-1.1-.8-1.8-1-1.2-.4-2.4-.7-3.6-.7-.2.1-.5.1-.7 0z" style="fill:#fdb694"/><path d="M73.2 75.6c.4-.2.9 0 1.1.3.3.4.5 1 .5 1.5 0 .6 0 1.2-.3 1.6-.3.5-1.1.5-1.4.1-.7-.7-.9-1.8-.6-2.7.1-.3.3-.7.7-.8z" class="st9"/><path d="M104.7 79.4c1.4.1 2.8 0 4.2-.5v.3c-.9.5-2 .7-3 .8-.8.1-1.6.2-2.3-.2 0-.1-.1-.3-.1-.4.4-.2.8-.1 1.2 0z" style="fill:#bf6948"/><path d="M71.6 80.4c.3-.1.5 0 .8.1 1.2.5 2.6.5 3.9.2.2-.1.3 0 .5 0-.2.6-1 .7-1.5.8-1.1.1-2.4.2-3.4-.4-.2-.3-.2-.5-.3-.7z" style="fill:#bb613e"/><path d="M70.3 82.8c1.1 0 2.3.4 3.4.4.8.1 1.6 0 2.5-.1 0 .1 0 .2.1.3-1 .5-2.1.4-3.1.4-.9 0-1.8 0-2.6-.3-.4-.1-.3-.5-.3-.7z" style="fill:#fdb693"/><path d="M106.2 83.1c2.1-.3 4.2.6 5.5 2.2 1.1 1.3 1.3 3.1 1 4.7-.2 1-.3 2-.7 3-.4 1-.9 2-1.7 2.7-1.5 1.5-3.9 2.1-5.9 1.3-1.9-.6-3.5-2-4.2-3.9-.3-.8-.3-1.7-.2-2.5.1-.7.4-1.4.6-2.1.2-1.8 1.5-3.2 2.9-4.2.7-.5 1.6-1 2.7-1.2z" class="st4"/><path d="M93.6 85.7c.1 0 .2-.1.2-.2.4.4.5 1 .8 1.5.4.9 1 1.6 1.4 2.6.4 1.1.9 2.3 1.1 3.5.1.8.1 1.7-.4 2.4-.2.3-.5.6-.9.6-.2-.1-.3-.3-.2-.4.3-.3.7-.6.8-1.1.2-1.1-.1-2.3-.6-3.3-.4-.9-.7-1.7-1.1-2.6-.5-1-.9-2-1.1-3z" style="fill:#ba5f3b"/><path d="M71.8 86c1.1-.2 2.4 0 3.4.6 1.5.9 2.6 2.4 3.1 4 .7 2.5.3 5.3-1.3 7.4-.9 1.1-2.2 1.8-3.6 2.2-.8.2-1.6.2-2.4-.1-1.7-.5-3.3-1.6-4-3.2-1.1-2.3-1-5.1.2-7.3.7-1.8 2.5-3.2 4.6-3.6z" class="st4"/><path d="M83.4 87.6c.1-.4.1-.8.3-1.1.3 1.2 0 2.5-.4 3.7-.3 1-.8 1.9-1.1 2.8-.4 1.2-.7 2.5 0 3.6.3.6 1 .8 1.6.9.4.1.8-.3 1.3-.2-.2.1-.3.1-.5.2.1.1.3.2.5.4-.9 0-1.8.4-2.7-.1-.9-.6-1.3-1.7-1.2-2.7-.1-1.2.3-2.4.9-3.6.4-1.3 1-2.5 1.3-3.9z" class="st7"/><path d="M88.8 87.9h.4c.2.5.3 1.1.3 1.6 0 1.6 0 3.1-.1 4.7-.1 0-.2-.1-.3-.1-.2-.9-.1-1.9-.2-2.8-.1-1.1-.2-2.3-.1-3.4z" style="fill:#feb797"/><path d="M110.8 87.8c.3.7.3 1.6 0 2.4 0-.8-.1-1.6 0-2.4z" style="fill:#fb9980"/><path d="M74.3 87.4c.7.4 1.2 1 1.5 1.8-.8-.3-1.2-1-1.5-1.8z" style="fill:#ff8066"/><path d="M127.2 75.5c.7-.5 1.5-1.2 2.4-1v.3c-1.5 1-3 2-4.2 3.4-1.5 1.6-2.7 3.4-3.6 5.4-1.3 2.7-2.5 5.5-3 8.5h-.4c-.1-1 .2-1.9.4-2.9.6-2.2 1.5-4.3 2.5-6.4 1.4-3 3.4-5.5 5.9-7.3zm-77.8 3.7v.4c.7.4 1.6.6 2.2 1.2 1.4 1.1 2.4 2.6 3.3 4.1 1.5 2.5 2.7 5.1 3.8 7.7 0-.3.1-.5.1-.8-.1-.5-.3-1-.5-1.5-1-2.4-2.1-4.8-3.4-7-1-1.6-2.2-3.1-4-3.8-.5-.2-1-.4-1.5-.3zm9.4 12.6c0 .3-.1.5-.1.8-.1.3.2.5.4.6.1-.5-.1-1-.3-1.4z" style="fill:#cc492f"/><path d="M93 96.7c.7-.5 1.5-.9 2.4-1 .1.1.2.2.4.3 0 .1-.1.3-.2.3-.7.2-1.3.5-1.9.9-.9.7-2 1-3.1 1.2-1.6.3-3.2 0-4.7-.3-.3-.1-.5-.1-.8-.3-.2-.1-.3-.2-.5-.4.2-.1.3-.2.5-.2 1.6.3 3.2.5 4.8.4 1-.1 2.1-.3 3.1-.9z" style="fill:#b85c37"/><path d="M96.8 104.7c1-.1 2-.4 3.1-.2.1.1.1.2.2.3-.3.1-.5.1-.8.2-1.3.3-2.7.6-4 .7-2.2.3-4.4-.1-6.6.5-1.4.4-2.8.8-4.2.8-1 .1-2-.1-3 .2-1 .2-2 .8-2.9 1.3-.3.1-.5.2-.8.2.6-.8 1.5-1.3 2.4-1.8 1-.5 2.1-.6 3.2-.6 1.4 0 2.9-.2 4.3-.7 1.2-.4 2.5-.6 3.9-.6 1.7.1 3.5 0 5.2-.3z" style="fill:#b75b37"/><path d="M86.6 109c1.9-.5 3.8-.7 5.7-.9 0 .1.1.3.1.4-1 .4-2.1.5-3.2.8-.8.2-1.7.4-2.6.2v-.5z" style="fill:#fcb693"/><path d="M93.6 134c.1 0 .2-.1.4-.1.6 1 .9 2.2 1.1 3.4.2 1.6.5 3.3.3 5 0 .6-.2 1.2-.4 1.7-.1 0-.3 0-.4-.1.3-1.2.3-2.4.2-3.5-.2-1.9-.6-3.9-1.1-5.8-.1-.2-.2-.4-.1-.6zm-8.2 1.3h.3c.3 1.2.2 2.4.3 3.6.1 1.7.6 3.4 1.4 4.9.3.5.7.8.8 1.4-.4 0-.6-.3-.8-.6-.9-1.1-1.5-2.4-1.9-3.8-.4-1.3-.4-2.7-.3-4 0-.5 0-1 .2-1.5z" class="st7"/><path d="M140 207.4c.2-.5.5-1.1.6-1.6.5-1.1.8-2.2 1.2-3.3 1.2-3.5 2.7-6.9 4-10.4 1-2.8 1.9-5.6 2.8-8.5.3-1.2.7-2.3.9-3.5h-.3c-.3.8-.6 1.7-.9 2.6-.6 1.8-1.2 3.5-1.8 5.3-1.7 5.3-3.8 10.4-5.5 15.7-.2.5-.4 1-.5 1.5-.3.5-.4 1.1-.6 1.7-.2.6-.5 1.1-.6 1.6.4-.2.5-.7.7-1.1zm-3 6.4c.1-.5-.1-.9-.1-1.4 0-2.1.3-4.2.6-6.3.5-2.7 1.4-5.3 2-7.9.3-1.5.5-3 .2-4.4h-.4c0 2.3-.6 4.6-1.3 6.8-1 3.1-1.4 6.3-1.6 9.6-.1 1.2-.1 2.4.2 3.6.1-.1.3 0 .4 0zm5.7-3.7c1-2.9 2-5.8 2.7-8.8-.1-.1-.2-.1-.4-.2-.4.5-.6 1.1-.8 1.6-1.2 3.3-2.3 6.7-3.1 10.1-.1.5-.1 1-.1 1.6h.4c.3-1.5.9-2.9 1.3-4.3zM125 174.8c1.1-1 2.2-2 3.1-3.3.5-.8 1.1-1.6 1.3-2.5-.1 0-.2-.1-.3-.1-.3.3-.4.7-.6 1-1.3 2.1-3 3.8-4.7 5.5-1.1 1-2.1 2.1-3.2 3-.4.3-.7.6-1.1.9-.3.3-.7.5-.8 1 .3-.1.5-.2.8-.4.5-.4 1-.8 1.4-1.3 1.3-1.2 2.7-2.5 4.1-3.8zM76 193c-1.9-.9-3.5-2.4-5.1-3.8-1.1-1.1-2.2-2.2-3.5-3.1-1.3-.9-2.8-1.5-4.1-2.2-.3-.2-.6-.3-1-.3.1.2.2.3.3.4 1.3.9 2.8 1.4 4.2 2.3.8.5 1.5 1.1 2.2 1.7 1.9 1.7 3.6 3.4 5.8 4.7.7.4 1.3.8 2.1.9-.1-.4-.6-.4-.9-.6zm-4.4 7.1c.4.5.9.9 1.4 1.4 1.5 1.6 3.3 2.8 5.2 4 1.4.9 3 1.4 4.5 2 0-.1 0-.2.1-.3-.8-.4-1.6-.7-2.4-1-1.8-.9-3.4-2-4.9-3.2-1-.8-1.8-1.8-2.9-2.6-.3-.3-.7-.6-1-.3zm51.5-8.1c-.4.6-.9 1-1.3 1.7.2 0 .4-.1.5-.2.7-.7 1.3-1.6 1.9-2.4 1.3-1.8 2.7-3.6 4.1-5.3 1.4-1.7 2.9-3.3 4-5.1.3-.5.7-1 .9-1.5-.5.1-.7.6-1 .9-1.4 2-3 3.7-4.5 5.7-1.6 1.9-3.1 4-4.6 6.2zm-89.3 5.1c1.7 3.2 3.3 6.5 5.3 9.6.1 0 .2 0 .3-.1-1.6-2.9-3.1-5.9-4.5-8.8-.9-2-1.9-4-3.1-5.7h-.3c0 .3 0 .5.2.7.7 1.4 1.3 2.9 2.1 4.3zm-7.8-5c1.3 1.7 2.2 3.7 3.1 5.7 1 2.2 2.1 4.3 3.5 6.2.4.6.8 1.2 1.3 1.8.5.6 1 1.2 1.6 1.7-.1-.5-.5-.9-.8-1.3-.6-.7-1.2-1.5-1.8-2.3-1.2-1.8-2.2-3.8-3-5.8-.8-1.9-1.4-3.9-2.6-5.6-.8-1.2-1.9-2.3-2.6-3.6-.2-.3-.4-.6-.7-.8-.1.2-.1.5 0 .7.3 1.2 1.2 2.2 2 3.3zm12.5 18.8c0 .6.3 1.1.5 1.6.8 1.9 1.5 3.9 2.1 5.9h.3v-.1c-.3-1.5-.8-2.9-1.2-4.3-.4-1-.6-2.1-1.3-3-.1-.1-.3-.1-.4-.1zm10-50.3c.8.7 1.2 1.6 1.9 2.4.8.9 1.5 1.7 2.3 2.6.8.9 2 1.5 2.9 2.3 1.7 1.3 3.5 2.4 5.2 3.7 1.1.7 2.2 1.4 3.4 2.1 2.9 1.6 6.2 2.4 9.3 3.5.6.1 1.2.4 1.8.4.7.3 1.5.4 2.2.6 2.7.4 5.5.3 8.3.3 2.4-.2 4.9-.1 7.3-.6 2.1-.5 4.2-.9 6.3-1.5 3-1.1 6-2.1 9-3.4 1.4-.6 2.7-1.4 4-2 1.7-.9 3.2-2 4.8-3 1.3-.8 2.5-1.8 3.7-2.7 1.1-.8 2.1-1.7 3.2-2.7 1.3-1.2 2.6-2.4 3.8-3.7.9-1.1 1.6-2.3 2.5-3.4.5-.6 1-1.2 1.3-1.9-.7.1-1.1.6-1.6 1.1-1.2 1.5-2.3 3.1-3.7 4.5-1.9 1.8-3.9 3.6-6 5.2-2.8 2.2-5.6 4.6-8.8 6.2-1.2.6-2.3 1.3-3.6 1.8-3.1 1.3-6.3 2.4-9.4 3.5-3.3.9-6.6 1.7-10 1.8-1.4 0-2.8.3-4.2.2-2.8 0-5.6.1-8.4-.6-1.2-.3-2.4-.5-3.5-1-2.5-.8-5-1.6-7.3-2.7-1-.5-2-1.2-2.9-1.7-1.2-.7-2.3-1.5-3.4-2.3-1-.6-1.9-1.4-2.9-2.1-1-.8-2.2-1.3-3-2.3-.7-.8-1.5-1.7-2.3-2.5-.5-.8-1.1-1.5-1.8-2.2-.3-.3-.7-.7-1.2-.5.3 0 .5.3.8.6z" style="fill:#b08c29"/></g></svg>