<svg xmlns="http://www.w3.org/2000/svg" xmlns:xlink="http://www.w3.org/1999/xlink" xml:space="preserve" id="Layer_1" x="0" y="0" style="enable-background:new 0 0 180 180" version="1.1" viewBox="0 0 180 180"><style>.st1{fill:#193857}.st3{fill:#f2844f}.st5{fill:#e56324}.st9{fill:#f95939}.st11{fill:#ab7d86}.st12{fill:#102438}.st13{fill:#fbbb9e}.st16{fill:#b95d38}.st17{fill:#a3343e}</style><defs><path id="SVGID_1_" d="M0 0h180v180H0z"/></defs><use xlink:href="#SVGID_1_" style="overflow:visible;fill:#e5174d"/><clipPath id="SVGID_2_"><use xlink:href="#SVGID_1_" style="overflow:visible"/></clipPath><g style="clip-path:url(#SVGID_2_)"><path d="M93.5 25.4c1.7-.2 3.5.2 5.2.7.9.2 1.7.6 2.6 1 .6.2 1.1.6 1.6.8.6.3 1.1.7 1.5 1.1 1.2-.1 2.4-.3 3.6-.2 1.9 0 3.8.2 5.5.9.8.3 1.5.6 2.2 1 .9.5 1.8 1.1 2.7 1.7 1.2 1 2.2 2.2 3 3.5.5.8 1 1.5 1.4 2.3.6 1.1 1.1 2.3 1.6 3.5 1.2 2.9 1.9 5.9 2.5 8.9.2 1.3.6 2.5.8 3.8.3 1.8.5 3.6.6 5.5v4.5c.1 5-.7 10-2 14.8-.5 1.8-1 3.5-1.7 5.2-.8 1.7-1.8 3.4-2.9 4.9-1.2 1.6-2.5 3.2-3.8 4.8-1.5 1.6-3.1 3.2-4.6 4.8-2.8 2.9-6 5.5-9.4 7.9-3.5 2.4-7.2 4.6-10.9 6.7-1.7.9-3.4 1.9-5.1 2.9-.4.3-.9.5-1.1 1-.7 2.1-1.4 4.3-2.4 6.3-.8 1.7-1.4 3.5-2.7 5-.6.7-1.2 1.3-1.8 1.8-.8.6-1.7 1.2-2.7 1.6-.9.4-1.9.7-2.8 1-1.2.3-2.3.6-3.5.9-1.9.3-3.8.3-5.7.1-.8-.1-1.7-.2-2.5-.4-.9-.4-1.9-.7-2.7-1.3-1.2-.7-2.2-1.6-3.2-2.6-1.7-1.6-3-3.6-3.8-5.8-.8-2-1-4.2-1-6.4-.1-2.1.3-4.2 1.1-6.2.7-1.6 1.6-3.1 2.7-4.4 1.2-1.4 2.7-2.7 4.1-3.9.3-.3.7-.5.9-.8.3-.6.5-1.2.6-1.9.2-2.2-.1-4.3-.6-6.4-.5-2-.8-4-1.2-6-1.1-4.7-2.1-9.4-2.4-14.2-.1-.8 0-1.6-.1-2.5-.1-1.7-.1-3.5 0-5.2.1-2.4.3-4.8.8-7.2.7-3.6 2-7.1 3.4-10.5.7-1.8 1.7-3.6 2.6-5.3 1.1-1.9 2.4-3.6 3.8-5.3 2.3-3 5.3-5.4 8.5-7.3 1.4-.9 3-1.6 4.5-2.3 2.3-.9 4.7-1.7 7.1-2.1 2.2-.5 3.9-.8 5.7-.7z" class="st1"/><path d="M174.5 219.6c0-.1 0-.1-.1-.2-.9-1.8-1.8-3.5-2.7-5.3 0-.2-.1-.4-.1-.6-1.3-4.8-2.9-9.5-4.7-14.1-.2-.9-.5-1.8-.7-2.7-1.1-3.9-2.5-7.7-4.5-11.3-.5-.9-1.1-1.8-1.6-2.7-.8-1.3-1.8-2.4-2.9-3.5-1.3-1.4-2.6-2.7-4-4-.7-.7-1.5-1.4-2.3-2.1-1.6-1.3-3.3-2.6-5-3.9-1.6-1.2-3.2-2.1-4.9-3.1-1.5-.9-2.9-1.9-4.4-2.6-.8-.4-1.6-1-2.4-1.5-2.6-1.5-5.3-3-7.9-4.6-1.8-1.1-3.6-2.1-5.4-3.3-.8-.5-1.5-1.1-2.3-1.6-.7-.4-1.4-.9-2.1-1.4-.7-.5-1.4-1.1-1.9-1.8-.7-.8-1.3-1.7-1.8-2.6-.5-.8-1-1.6-1.8-2.2-.7-.5-1.6-.6-2.4-.8-.9-.2-1.9.1-2.8.2-1.6.3-3.2.5-4.8.6-1.1.1-2.2 0-3.2-.1s-2 0-3-.1c-1.4-.1-2.8.1-4.2.1-.7 0-1.3-.3-2-.3-1.4-.1-2.9 0-4.3-.1-4.1 0-8.1.1-12.2 0-1.4 0-2.9-.1-4.3.1-.4-.4-1-.3-1.5-.3-.9 0-1.7.3-2.5.8-1.4.9-2.4 2.2-3.5 3.4-1.5 1.4-3.2 2.5-4.9 3.5-2 1-4.1 1.9-6.2 2.7-2.7 1.2-5.4 2.4-8.2 3.4-.7.4-3.1 1.8-3.7 2.1-2.5 1.4-5.1 2.8-7.8 3.6-.8.5-1.6 1-2.4 1.6-6.6 2.8-12.5 6.9-17.4 12.2l-.9.6c-.5.6-1 1.3-1.5 1.9-.4.6-.8 1.2-1.3 1.8-.3.6-.6 1.1-.9 1.7-.1.2-.1.4-.1.6 0 .1-.1.1-.1.2-.1 0-.2.1-.3.1-.3.5-.6 1-.8 1.4-.5 1.4-.9 2.8-1.5 4.2-2.2 5.8-4.7 11.5-6.2 17.5-.8 3.2-1.5 6.4-2.1 9.7-.2.9-.3 1.7-.5 2.6h181zM18 180.7l.2-.2-.2.2z" style="fill:#dc9eb5"/><path d="M90.9 38.1c1-.3 2.1-.5 3.1-.7.1.1.1.2.2.3-1.9.2-3.6.8-5.3 1.7-1 .6-2 1.2-2.9 2-.4.3-.7.7-.7 1.2.3-.2.5-.4.8-.6 0 .2-.1.3-.2.4-.9.9-1.8 1.8-2.6 2.8-.2 0-.4 0-.5.2-.7.8-1.2 1.8-1.8 2.7-.3.4-.4 1-.7 1.5-.2.4-.5.8-.6 1.3.1.1.3.2.4.3h-.3c-.3.5-.7 1-.9 1.6-.1.3 0 .6 0 .9-.7.9-1 2-1.3 3-.1.4-.5.7-.7 1.1-.6 1.9-1 3.7-1.6 5.6-.2.5-.1 1.1-.3 1.6-.4.9-.7 1.8-1.1 2.7-.1.3-.2.5-.2.8.1.3.5.5.8.2l.6-.6c-.4 1.2-.8 2.3-1.2 3.5-.2.6-.5 1.1-.6 1.7.1-.1.3-.1.4-.2-.1.5-.3 1-.4 1.5-.1.9-.3 1.9-.6 2.8-.1-1.4.1-2.7.2-4.1.2-2.4.4-4.9.8-7.3.3-1.7.5-3.3.9-5 .5-2.5 1.2-5 2.1-7.4.8-2.3 1.7-4.7 2.8-6.9.1-.3.4-.6.2-.9 1-1.2 2-2.3 3.2-3.2 1.6-1.2 3.1-2.4 4.9-3.3 1-.5 2-.9 3.1-1.2z" class="st3"/><path d="M94.8 40.6c.5-.1 1.1-.2 1.6-.1-.6.3-1.2.7-1.9.9.4-.3.8-.5 1.2-.8h-.9z" style="fill:#ec814d"/><path d="M96.5 40.4c.9 0 1.8-.1 2.6.1.8.1 1.5.3 2.3.4.5.1 1 .3 1.5.4.5.1.9.3 1.4.4-1.3.2-2.6.3-3.8.7-1.5.4-2.9 1-4.3 1.6-3.2 1.5-5.9 3.8-8.5 6.1-1.7 1.5-3.1 3.3-4.4 5.1-.9 1.2-1.7 2.3-2.6 3.5-.6.8-1 1.7-1.5 2.6-.5.9-1 1.9-1.4 2.9-.5 1-1 1.9-1.4 2.9-.3.9-.7 1.8-1 2.8-.3.9-.5 1.9-.7 2.9-.4 2-.8 4-1.3 6-.1.4-.4.7-.6 1-.2.5-.1 1.1-.1 1.6 0 3.1.1 6.3.3 9.4.1 1.6.2 3.2.5 4.7.2 2.1.6 4.1 1.2 6.1.3.9.5 1.8.8 2.7.3 1 .6 2 1.1 2.9.2.5.5 1 .7 1.6l.3 1.5c-.3-.5-.4-1-.8-1.4-.4-.5-.8-1.1-1.1-1.6-.8-1.2-1.5-2.6-2.2-3.9-1.7-3.4-2.9-7-3.7-10.6-.5-2-.7-4-.8-6-.1-2.8.1-5.5.5-8.2 0-2.8.2-5.7.7-8.5.2-1.9.5-3.7.9-5.6.2-.8.4-1.7.5-2.5.5-1.7 1.1-3.3 1.7-4.9.6-1.5 1.2-2.9 2-4.3.9-1.6 1.9-3.1 2.8-4.6.6-.8 1.2-1.6 1.8-2.3.2.3-.1.6-.2.9-1.1 2.2-2 4.5-2.8 6.9-.8 2.4-1.5 4.9-2.1 7.4-.3 1.7-.6 3.3-.9 5-.4 2.4-.6 4.8-.8 7.3-.1 1.4-.3 2.7-.2 4.1.2-.9.5-1.9.6-2.8.1-.5.2-1 .4-1.5-.1.1-.3.1-.4.2.1-.6.4-1.2.6-1.7.4-1.2.8-2.3 1.2-3.5l-.6.6c-.3.2-.7.1-.8-.2-.1-.3.1-.5.2-.8.4-.9.7-1.8 1.1-2.7.2-.5.2-1.1.3-1.6.6-1.8 1.1-3.7 1.6-5.6.1-.4.6-.7.7-1.1.3-1 .7-2.1 1.3-3 0-.3-.1-.6 0-.9.2-.6.6-1.1.9-1.6h.3c.2 0 .5.1.7-.1.4-.5.7-1 1-1.5 1.2-1.6 2.3-3.2 3.8-4.6 1.1-1.1 2.4-2 3.8-2.7 1-.5 2-.8 3-1.1.8-.2 1.6-.5 2.5-.6h.9c-.4.2-.8.5-1.2.8.5-.4 1.1-.7 1.7-1.1z" class="st5"/><path d="M85.3 42.6c0-.5.4-.9.7-1.2 0 .1-.1.2-.1.4 0 .1.1.2.2.2-.3.2-.5.4-.8.6z" style="fill:#f9cbb5"/><path d="M104.3 41.8c1.6.5 3.3-.6 4.9-.1.7.1 1.3.4 2 .7.8.3 1.4.9 2 1.4 1 .9 1.9 1.8 2.7 2.9v.1c0 .3 0 .6.1.9.3 1.1.7 2.1.9 3.2.5 2.8 1.3 5.5 1.7 8.3.3 1.7.4 3.5.6 5.2 0 1.1.1 2.3.1 3.4-.1 3-.5 6.1-1.1 9.1-.2 1.5-.3 3.1 0 4.6.3 2.2.8 4.5 1 6.7.2 2 .2 3.9-.1 5.9-.2 2.3-.7 4.6-1.1 6.9-.2.9-.4 1.8-.5 2.7-.2 1.1-.7 2.1-1.1 3.1-.4 1-.9 2-1.5 3-.4.7-.9 1.4-1.1 2.2-.2.7-.7 1.3-.9 2 .7-.3 1.1-1 1.5-1.5 1.3-1.7 2.5-3.6 3.4-5.6.3-.8.6-1.7 1-2.5.6-1.6 1.3-3.1 1.7-4.7.4-1.3.6-2.7.8-4.1.1-1 .1-1.9.3-2.9.3-1.7.3-3.5.2-5.2-.1-.7 0-1.4-.1-2.1-.1-.8.1-1.5.1-2.3.2-2.6.5-5.2.7-7.7 0-1.1.2-2.2.2-3.3 0-.5-.4-.9-.3-1.4v-3.2c0-.8 0-1.6-.2-2.4-.1-.4-.3-.7 0-1.1.1-.3.3-.5.3-.8-.1-1.7-.3-3.4-.7-5.1.3-.1.6-.3.5-.6-.3-1.5-.8-2.9-1.3-4.3.1-.3.1-.5 0-.8-.5-1.1-1-2.3-1.6-3.4-.3-.4.1-.8-.1-1.2-.2-.5-.5-1-.7-1.6.1-.3.1-.6-.1-.9-.4-.7-.9-1.3-1.4-1.9.3.1.6.2.8.1-.1-.2 0-.4-.2-.5-.5-.4-1.1-.8-1.7-1.1h.4c.3-.3.6.2.8.3 1.8 1.5 3.3 3.4 4.6 5.3.9 1.6 1.6 3.2 2.1 5 .6 1.9 1 3.8 1.4 5.7.3 1.6.5 3.1.7 4.7.3 1.9.4 3.8.3 5.8-.2 2.4-.1 4.8-.3 7.2-.1 1.9-.4 3.8-.6 5.7-.1 1.1-.2 2.1-.5 3.2-.5 2.7-1.1 5.4-1.7 8-.4 2-.9 3.9-1.5 5.9-.6 2.2-1.4 4.3-2.2 6.4-.8 1.9-1.6 3.9-2.7 5.7-1 1.6-2 3.3-3 4.9-.4.6-.8 1.1-1.3 1.6-.8.9-1.5 1.9-2.4 2.7-.3.3-.6.6-1 .8-1 .4-1.9 1.1-2.9 1.6-1.1.5-2.3.8-3.5 1-1 .2-2 .3-3 .2-2 0-4-.4-5.9-.8-2.1-.5-4.2-1.2-6.2-2.2-1.7-.8-3.3-2-4.8-3.2-1-.8-1.9-1.7-2.8-2.6-1-1.1-2-2.2-2.9-3.3-1.2-1.4-2.1-3-3.1-4.6-.7-1.2-1.3-2.5-1.9-3.8-.5-.9-1.1-1.8-1.5-2.8-.4-.9-.9-1.7-1.2-2.5-.1-.3-.3-.5-.6-.6-.2-1.3-.3-2.7-.6-4-.4-2.3-.7-4.7-1.1-7.1-.2-1.2-.4-2.4-.5-3.7.4-2.1.9-4.1 1.3-6.2.5-2.3 1-4.5 1.5-6.8.5-2.2 1.1-4.3 1.7-6.5.1-.4.2-.7.4-1.1-.1.9-.4 1.7-.5 2.5-.4 1.8-.6 3.7-.9 5.6-.4 2.8-.6 5.6-.7 8.5-.3 2.7-.5 5.5-.5 8.2.1 2 .3 4 .8 6 .9 3.7 2 7.3 3.7 10.6.7 1.3 1.4 2.6 2.2 3.9.4.5.7 1.1 1.1 1.6.4.4.5 1 .8 1.4-.2-.5-.2-1-.3-1.5-.2-.5-.5-1-.7-1.6-.4-.9-.7-1.9-1.1-2.9-.3-.9-.5-1.8-.8-2.7-.5-2-.9-4.1-1.2-6.1-.3-1.6-.4-3.1-.5-4.7-.2-3.1-.3-6.3-.3-9.4 0-.5-.1-1.1.1-1.6.2-.3.6-.6.6-1 .5-2 .9-4 1.3-6 .2-1 .4-1.9.7-2.9.3-.9.6-1.9 1-2.8.4-1 .9-1.9 1.4-2.9.5-.9.9-1.9 1.4-2.9.5-.9.9-1.8 1.5-2.6.8-1.2 1.7-2.4 2.6-3.5 1.4-1.8 2.8-3.6 4.4-5.1 2.6-2.3 5.3-4.6 8.5-6.1 1.4-.7 2.8-1.2 4.3-1.6 1.3-.1 2.6-.2 3.9-.4z" class="st3"/><path d="M97 44.8c.3 0-.2.5-.3.3 0-.1.1-.2.3-.3z" style="fill:#f5a37c"/><path d="M116 47.6c-.1-.3-.1-.6-.1-.9.4.6.8 1.3 1.1 2 .9 2 1.7 4 2.4 6.1.4 1.4.9 2.9 1.1 4.4.1.8.3 1.6.4 2.5.1.9.1 1.8.6 2.5h.4c-.2.3-.1.7 0 1.1.2.8.2 1.6.2 2.4v3.2c0 .5.4.9.3 1.4 0 1.1-.1 2.2-.2 3.3-.2 2.6-.5 5.2-.7 7.7 0 .8-.3 1.5-.1 2.3.1.7 0 1.4.1 2.1.1 1.7.1 3.5-.2 5.2-.2 1-.2 1.9-.3 2.9-.2 1.4-.4 2.8-.8 4.1-.4 1.6-1.1 3.1-1.7 4.7-.3.8-.7 1.7-1 2.5-.9 2-2.1 3.8-3.4 5.6-.5.6-.9 1.2-1.5 1.5.2-.7.8-1.3.9-2 .2-.8.8-1.5 1.1-2.2l1.5-3c.4-1 .9-2 1.1-3.1.2-.9.4-1.8.5-2.7.4-2.3.9-4.6 1.1-6.9.2-2 .2-3.9.1-5.9-.2-2.3-.7-4.5-1-6.7-.3-1.5-.2-3.1 0-4.6.6-3 .9-6 1.1-9.1.1-1.1 0-2.3-.1-3.4-.1-1.8-.3-3.5-.6-5.2-.4-2.8-1.2-5.5-1.7-8.3.1-1.3-.3-2.4-.6-3.5z" class="st5"/><path d="M121.2 64.6c-.2-.3-.1-.7 0-1v1z" style="fill:#ed7a43"/><path d="M58.9 70.8c0-.2.2-.5.4-.2.2.4.3.9.5 1.3.5 1.2 1 2.4 1.6 3.5 1.3 2.3 2.8 4.4 4.5 6.4.2.3.5.5.7.8.1 1.2.3 2.4.5 3.7.4 2.4.7 4.7 1.1 7.1.2 1.3.4 2.7.6 4 .2 1.2.3 2.4.2 3.6 0 .5-.3.9-.4 1.3v-.8c-.6.1-1.3 0-1.9 0-1.6 0-3.1-.2-4.6-.6-1.8-.6-3.5-1.5-5-2.6-1.3-1-2.4-2.3-3.3-3.6-1.2-2-2.2-4.3-2.7-6.6-.3-1.4-.4-2.8-.4-4.2 0-1.7 0-3.4.3-5 .4-1.6.9-3.3 1.9-4.6 1-1.4 2.4-2.3 4-2.9.5-.4 1.2-.6 2-.6z" class="st9"/><path d="M73.4 77c.2-.6.2-1.2.5-1.7-.1.8-.3 1.6-.5 2.5-.1.5-.2 1-.5 1.5.1-.8.4-1.6.5-2.3z" style="fill:#ee7c45"/><path d="M121.2 87.7c.1 1 0 2 0 2.9-.2 1.7-.5 3.5-.9 5.2 0 .2-.1.3-.3.5-.2.3-.3.6-.4.9-.3 1.2-.7 2.5-1.1 3.7 0-.8.3-1.5.4-2.3.1-.9.5-1.7.6-2.6.8-2.7 1.2-5.5 1.7-8.3z" class="st3"/><path d="M106.6 94.6c.3 0 .7.1.7.5.1.5-.3.8-.6 1.1-.8.6-1.6 1.2-2.4 1.9-1 .7-1.9 1.5-2.9 2-.3.1-.7.3-1 0-.3-.3-.2-.8-.2-1.3s-.1-1 .1-1.5c.9-1 2.2-1.5 3.5-2 .8-.2 1.8-.6 2.8-.7zm-37.9 2.7c.2.1.5.3.6.6.4.9.9 1.7 1.2 2.5.4 1 1 1.8 1.5 2.8.6 1.3 1.2 2.5 1.9 3.8.9 1.6 1.8 3.3 3.1 4.6 1 1.1 1.9 2.2 2.9 3.3.9.9 1.8 1.8 2.8 2.6 1.5 1.2 3 2.3 4.8 3.2 2 1 4.1 1.6 6.2 2.2 1.9.4 3.9.8 5.9.8 1 0 2 0 3-.2 1.2-.2 2.4-.5 3.5-1 1-.4 1.9-1.2 2.9-1.6v.7c-.7.4-1.4.8-2 1.2-1 .6-2.1.8-3.2 1.1-.9.7-1.6 1.6-2.3 2.5-2.2 2.4-4.5 4.7-7.4 6.1-1.3.7-2.8 1-4.3 1.1-2.1 0-4.3-.3-6.3-1.1-.6-.2-1.1-.6-1.6-.9-1.1-.7-2.2-1.5-3.2-2.3-2.2-1.6-4-3.7-5.5-5.9-.5-.6-1-1.3-1.7-1.6-.8-.4-1.7-.5-2.6-.7 0-1.2.1-2.5.1-3.7 0-1.6.1-3.1 0-4.7-.1-1.9-.1-3.7-.3-5.6-.2-1.6-.2-3.3-.1-5 .2-.4.4-.8.4-1.3 0-1.1-.1-2.3-.3-3.5zm33 12.6c.5 0 1-.2 1.5-.2.2.1.2.3.1.5-.3.6-.7 1.3-1.3 1.7-.9-.1-1.8-.1-2.7-.1-.7.1-1.4.1-2.1.1-.1 0-.2-.1-.3-.2-.3-.5-.7-1.1-.6-1.7.6-.2 1.3 0 1.9 0 1.2 0 2.4.1 3.5-.1z" class="st5"/><path d="M68.7 121.1c.9.2 1.8.3 2.6.7.7.4 1.3 1 1.7 1.6 1.6 2.2 3.4 4.3 5.5 5.9 1 .8 2.1 1.7 3.2 2.3.6.3 1.1.7 1.6.9 2 .7 4.2 1 6.3 1.1 1.5-.1 2.9-.4 4.3-1.1 2.9-1.4 5.2-3.8 7.4-6.1.8-.8 1.4-1.8 2.3-2.5 1.1-.4 2.2-.6 3.2-1.1.7-.4 1.4-.8 2-1.2v4.5c0 2.4-.2 4.9 0 7.3 0 1.5.2 3.1.3 4.6.2 2.3.4 4.7.7 7 .1.7.2 1.5.3 2.2.1.5-.1.9-.2 1.4-.3 1-.3 2-.4 3-.2 1.6-.4 3.3-.7 4.9-.4 2-1 4-1.6 5.9-.7 2.2-1.4 4.5-2.3 6.7l-1.2 3.3c-.4 1.1-.9 2.2-1.2 3.4-.7 2.4-1.6 4.6-2.5 6.9-.8 1.8-1.6 3.7-2.2 5.6-.3 1-.6 2-.9 3.1-.6 1.8-1.1 3.7-1.8 5.5-.4 1.2-1.1 2.3-1.7 3.5-.4.7-.6 1.5-1 2.2-.1.3-.6.4-.8.1-.3-.4-.6-.9-.9-1.3-1.3-2.1-2.3-4.3-3.6-6.4-1-1.9-2.1-3.6-3.1-5.4-1-1.8-1.9-3.6-2.9-5.4l-2.7-5.4c-1-2.2-2.1-4.4-3.1-6.6-.8-1.7-1.5-3.5-2.3-5.2-1-2.2-2.1-4.4-3-6.6-.8-1.9-1.6-3.8-2.3-5.8-.7-1.7-1.2-3.5-1.8-5.2-.3-1-.5-2-.7-3.1-.1-.2-.5-.3-.7-.4.2-1.1.7-2.2 1-3.3.6-2.3 1.2-4.6 1.6-6.9.4-2.3.6-4.7.8-7.1.5-2.5.7-5 .8-7.5z" class="st3"/><path d="M93.3 37.4c.8-.2 1.5-.3 2.3-.3-.4.3-1 .5-1.5.6-1 .1-1.9.3-2.8.8-3.1 1.4-5.7 3.7-7.9 6.2s-3.8 5.5-5.1 8.6c-1.7 4-2.6 8.3-3.6 12.6-.2 1-.3 2-.8 2.8 0-.3 0-.5.1-.8.4-1.4.6-2.9.9-4.3.9-3.7 1.7-7.5 3.2-11 1.2-3 2.9-5.9 5.1-8.4 1.3-1.4 2.6-2.8 4.2-3.9.9-.6 1.7-1.3 2.6-1.8 1.1-.5 2.2-.8 3.3-1.1z" class="st11"/><path d="M110.8 38.1c.1-.1.3-.1.4-.2.9.3 1.8.7 2.4 1.4l1.4 1.4c.2 0 .4-.1.6-.1.3.1.5.2.8.2.2 0 .4-.2.6 0 .3.4.5 1 .7 1.4.4 0 .8.1 1.1.3 1 1.5 1.7 3.2 2.2 4.9.2.6.3 1.4.8 1.9-.2-1-.5-2-.8-3-.1-.3-.1-.6-.1-.9.6.9 1 2 1.4 3 .2.6.6 1.2.7 1.9.3 1.1.5 2.3.7 3.4.4 1.8.4 3.6.6 5.5.3 3 .5 5.9.5 8.9.1.9 0 1.8 0 2.7 0 1.4-.1 2.9-.2 4.3-.1 2.4-.3 4.9-.7 7.3-.2 1.6-.4 3.2-.8 4.8-.3 1.6-.7 3.3-1.1 4.9-.7 2.4-1.4 4.8-2.3 7.2-.4 1.2-.8 2.4-1.3 3.5-.3 1-1.1 1.8-1.4 2.8-.3.5-.4 1.1-.8 1.4-.3.2-.4.5-.6.8-.1-.3.1-.6.2-.8.3-1.1.8-2.1 1.2-3.1.5-1.2.8-2.4 1.1-3.6.3-1.1.5-2.3.8-3.4.3-1 .4-1.9.6-2.9.2-1.6.6-3.1.8-4.7.3-2.6.8-5.1.9-7.7.1-1.6.3-3.1.3-4.7 0-1.1 0-2.2.1-3.4-1.3-.4-2.6-.8-4-.7-.7-.1-1.4.2-2.1.4-1.2.3-2.2.9-3.3 1.4-1.2.5-2.5.8-3.9 1-.4 0-1 0-1.3-.4-.2-.2-.1-.4-.1-.6.1-.3.1-.6.2-.9.2-.4.3-.8.5-1.2.3-.7.9-1.3 1.5-1.8 1.4-.8 3.1-1.2 4.7-1.3 1.9-.2 3.8-.2 5.7.2.7.1 1.4.4 2.1.8-.2-2.1-.3-4.2-.5-6.3 0-.6-.1-1.2 0-1.8.1-.6-.1-1.3-.1-1.9-.2-1.5-.5-3-.8-4.5-.3-1.2-.5-2.5-.8-3.7-.3-1-.6-2.1-.9-3.1-.2-.8-.5-1.6-.8-2.4.4.3.6.8.8 1.3.7 1.6 1.4 3.3 2 4.9.2.4.4.9.6 1.3-.7-1.9-1.4-3.8-2.2-5.7-.8-1.8-1.5-3.6-3-5-.5-.5-.8-1.2-1.3-1.8-.3-.5-.8-.9-1.2-1.3-.7-1.1-1.7-1.7-2.6-2.3z" class="st1"/><path d="M75.9 35.3c1.5-1.4 3.2-2.5 5-3.5 4.1-2.1 8.6-3.4 13.3-3.2 1.4.1 2.9 0 4.2.5-.1-.4-.5-.6-.9-.7-1-.3-2.1-.2-3.2-.2h-2.5c-2 .1-4 .6-6 1.2-2.5.8-5 1.9-7.2 3.3-1.4.9-2.7 2-3.9 3.2-1.4 1.4-2.7 3-3.9 4.7-.9 1.2-1.7 2.5-2.4 3.8.4-.5.8-1.1 1.1-1.6.8-1.2 1.7-2.3 2.6-3.4 1.2-1.5 2.4-2.9 3.8-4.1z" class="st12"/><path d="M88.4 32.1c2.5-.9 5.1-1.1 7.7-.9 1.4.1 2.7.3 4 .6 1 .2 1.9.7 2.8 1.3.5.3.7.8 1.1 1.2 0-1-1-1.7-1.8-2.1-1.2-.7-2.6-1-4-1.2-1.6-.3-3.3-.3-5-.2-2 .1-4 .5-5.8 1.3-1.5.6-2.9 1.4-4.2 2.3-1.5 1.1-3 2.4-4.3 3.8-1.7 1.7-3.2 3.6-4.4 5.7-.7 1.1-1.3 2.3-1.9 3.4.4-.3.6-.7.8-1.1.7-1.2 1.5-2.3 2.3-3.4 2.1-3.1 4.8-5.9 7.9-8.1 1.5-1.1 3.1-2 4.8-2.6z" class="st12"/><path d="M103.4 36.7c-.3-.3-.7-.6-1-.8-.6-.5-1.2-1.1-2-1.4-1.7-.8-3.6-1-5.4-.8-1.9.2-3.8.6-5.5 1.4-2 1-3.9 2.2-5.6 3.7-.2.2-.4.3-.6.4.1 0 .2.1.3.1 0 .2-.1.3-.1.5 1-.9 1.9-1.7 3-2.4 1.7-1.1 3.6-2.2 5.6-2.7 1.4-.3 2.8-.5 4.2-.5 1.4.1 2.8.3 4.1 1 .5.3 1 .7 1.5 1 .4.2.8.5 1.2.7.3.2.5.5.8.6.1.1.2.1.4 0-.4-.3-.6-.7-.9-.8zm17.5 8.8c-.2-.7-.7-1.3-1.1-1.9-.4-.9-1-1.7-1.6-2.5-.7-.9-1.4-1.8-2.4-2.4-.8-.6-1.7-1.2-2.7-1.6-1.2-.5-2.5-.8-3.8-.9-1.2 0-2.5.2-3.5 1v.2c.9-.3 1.8-.7 2.7-.8 1-.1 2 .1 2.9.3 1.8.4 3.4 1.5 4.8 2.7.7.6 1.2 1.4 1.8 2 .2.3.5.6.7.9 1 1.5 1.7 3.2 2.2 4.9.2.6.3 1.4.8 1.9-.2-1-.5-2-.8-3v-.8z" class="st12"/><path d="M115.9 43.3c.3.7.8 1.3 1.1 1.9.3.4.4.9.7 1.2.4.3.6.8.8 1.3.7 1.6 1.4 3.3 2 4.9.2.4.4.9.6 1.3-.7-1.9-1.4-3.8-2.2-5.7-.8-1.7-1.5-3.6-3-4.9zm10.1 6.3c-.5-1.3-.9-2.7-1.5-4-.2-.5-.4-1.1-.7-1.6-.1-.5-.3-.9-.5-1.3-.8-1.9-2.1-3.5-3.5-5.1-.9-.9-1.9-1.7-2.9-2.5-1.7-1.3-3.8-2-5.9-2.3-1-.1-2 0-3 .1-.8.1-1.7.2-2.4.7 0 .1.1.2.1.2 1.4-.6 2.9-.6 4.4-.7 1.2 0 2.3.3 3.4.6.8.2 1.5.6 2.1 1 .8.5 1.5 1.1 2.2 1.6.8.6 1.5 1.3 2.1 2 1.1 1.2 2.2 2.5 2.9 4 .3.6.6 1.3.9 1.9 0 .2.1.3.1.4.6 1.4 1.1 2.8 1.6 4.2.2.4.3.8.6 1 .1.1.1 0 0-.2z" class="st12"/><path d="M107.2 44.8c.4 0 .8-.1 1.1.2 1.4.8 2.2 2.3 2.7 3.7-.1 0-.2 0-.3.1-.5-.9-.9-1.7-1.6-2.4-.5-.5-1.2-.9-1.9-1.2v-.4zm-2.9 18.9c.6 0 1.3-.1 1.9-.1h3.1c.4 0 .8.1 1.1.3-1-.1-2.1-.2-3.1 0-1.4 0-2.7.2-4 .4-1 .2-2.1.4-3.1.5-.4 0-.9-.1-1.3-.1 0 0 0-.1-.1-.2.7-.2 1.5 0 2.2-.2 1.1-.3 2.2-.5 3.3-.6z" class="st13"/><path d="M71.2 50.4c-1 1.8-1.6 3.7-2.2 5.6-.8 2.6-1.4 5.2-1.7 7.9-.1 1.2-.3 2.3-.3 3.5-.3.9-.2 2-.3 2.9 0 .9-.2 1.8-.1 2.7.3-.6.2-1.2.3-1.8 0-.9.2-1.8.2-2.7.4-5.5 1.6-10.9 3.5-16 .5-1.2 1-2.4 1.7-3.6-.5.5-.8 1-1.1 1.5zM60.9 69.9c-.4-1.4-.6-2.8-.7-4.2-.4-4.4.5-8.9 2.1-13-.5.6-.8 1.4-1.1 2.2-.9 2.7-1.6 5.6-1.6 8.5 0 1.8.3 3.6.7 5.4.2.8.4 1.6.7 2.3 0 .3.2.6.4.9 0-.1.1-.2.1-.2 0-.4-.3-.8-.5-1.2 0-.3-.1-.5-.1-.7z" class="st12"/><path d="M64.8 64.2c.2-3 .7-6 1.5-9 .2-.7.4-1.4.7-2.1.6-1.8 1.4-3.5 2.3-5.2-.6.6-1 1.4-1.4 2.1-.8 1.6-1.4 3.3-1.9 5-.7 2.1-1.1 4.3-1.4 6.5-.2 1.6-.3 3.2-.4 4.8 0 1.1 0 2.3.1 3.4 0 .3 0 .6.1.9 0 .9.1 1.8.3 2.6 0 .6.1 1.2.2 1.8.2 1 .3 2 .5 3 .1 0 .2.1.2.1-.2-1.6-.4-3.3-.6-4.9 0-.1-.1-.2-.1-.4 0-.5 0-.9-.1-1.4-.1-1.6-.2-3.3-.1-5 .1-.6 0-1.4.1-2.2z" class="st12"/><path d="M63 71.3c-.3-2.7-.6-5.3-.5-8 .1-2.1.2-4.2.6-6.3.4-2.4 1-4.8 2-7.1-.7.8-1 1.8-1.4 2.8-.6 1.7-1 3.5-1.2 5.3-.3 1.4-.3 2.8-.5 4.3-.2 3.1.1 6.3.8 9.4.1 1.2.5 2.3.7 3.5.2.6.3 1.3.7 1.8-.5-1.9-.8-3.8-1.2-5.7z" class="st12"/><path d="M116.5 77.5c.4-.1.9 0 1.1.4.4.6.3 1.4.1 2.1-.1.5-.5 1.1-1 1.3-.5.2-1.1 0-1.4-.4-.6-.7-.5-1.8 0-2.6.3-.4.8-.7 1.2-.8zm-33.2.2c.4-.1.8 0 1.1.3.4.5.7 1.2.7 1.9s-.3 1.4-1 1.7c-.4.2-.9.2-1.1-.2-.4-.6-.9-1.2-.8-2 .1-.6.4-1.5 1.1-1.7z" style="fill:#150f0c"/><path d="M59.3 79.2c.7-.6 1.8-.7 2.5-.2v.4c-.7 0-1.5 0-2 .5-.9.9-1.2 2.2-1.2 3.4.1 3.1 2 6.1 4.7 7.6.7.4 1.5.5 2.2.7v.4c-1.2.1-2.5-.3-3.5-1-1.6-1.1-3-2.6-3.7-4.4-.6-1.5-.8-3.2-.5-4.9.3-1 .8-1.9 1.5-2.5z" style="fill:#cc492f"/><path d="M102.6 82.1c.1 0 .2 0 .3-.1v4.5c.2 1.9.3 3.8 1 5.5-.1 0-.2.1-.2.1-.6-1.2-.8-2.6-1-3.9-.2-1.2-.3-2.3-.3-3.5-.1-.8-.1-1.7.2-2.6z" class="st13"/><path d="M84.5 82.6c-.1-.1-.1-.3-.2-.3-1-.3-2.1-.6-3.1-.9-.3-.1-.5-.1-.8-.1v.3c.7.3 1.4.4 2.1.6.6.1 1.3.3 2 .4zm34.2-.6c-1.4.7-3 .9-4.5.8 0 .1-.1.2-.2.3.2.1.4.2.6.2 1 .1 2-.1 2.9-.4.4-.1.8-.3 1.1-.6.2-.1.1-.2.1-.3zM83 83.4c-.6 0-1.1-.4-1.7-.5.1.2.1.4.2.4.6.5 1.5.6 2.2.5 1.2-.1 2.4-.4 3.4-1.1v-.3c-1.3.7-2.7 1-4.1 1z" class="st16"/><path d="M81.7 87.6c.3-.1.7-.1 1-.1.8.1 1.6.1 2.3.3 1.6.5 3 1.7 3.5 3.3.7 1.9.6 4-.2 5.9-.6 1.3-1.5 2.4-2.6 3.3-.8.7-1.8 1-2.8 1.4-1.9.7-4.2.2-5.8-1-1.2-.9-2-2.3-2.3-3.8-.3-1.6-.1-3.4.7-4.9.6-1.2 1.4-2.4 2.6-3 .7-.3 1.2-1 2-1.1.7-.1 1.2-.2 1.6-.3zm32.1.4c.7-.3 1.5-.5 2.3-.5.7 0 1.5-.1 2.1.2.6.2 1.2.4 1.6.9l.6.6c-.2 1.6-.5 3.1-.8 4.7-.2 1-.4 2-.6 2.9-.3 1.1-.5 2.3-.8 3.4-.6.2-1.2.4-1.7.6-.8.3-1.6.1-2.4 0-1.3-.4-2.7-1-3.6-2.1-.5-.6-.9-1.3-1.1-2.1-.2-1.1-.4-2.3-.1-3.4.2-1 .6-2.1 1.2-3 .4-.6 1-1 1.6-1.4.7-.3 1.2-.6 1.7-.8zm8.4 4c.2.4.2.9.2 1.4.1 1.1 0 2.3-.5 3.4-.5.9-1.1 1.9-2 2.5.8-2.5 1.6-4.9 2.3-7.3z" class="st9"/><path d="M68.8 97c.2.2.4.4.5.6.7 1.7 1.4 3.4 2.3 4.9.9 1.7 1.9 3.4 2.9 5.1.7 1.2 1.5 2.3 2.3 3.4.7.9 1.3 1.8 2.1 2.6.8.9 1.6 1.8 2.5 2.6 1 .8 2 1.6 3.1 2.3.7.4 1.4.7 2 1.2 1.6 1 3.2 1.7 4.9 2.4 1.5.5 3.1.8 4.6 1.1.8.1 1.5.4 2.3.4h2.2c1.4-.2 2.8-.5 4.1-.8 1.5-.4 2.9-1.2 4.3-2 0 .2-.1.4-.3.6-.8.6-1.6 1.2-2.5 1.6-1 .4-2.1.7-3.2 1-1.1.2-2.2.4-3.2.2-.6-.1-1.3 0-1.9 0-.7 0-1.4-.2-2-.3-1.1-.2-2.2-.4-3.4-.7-1.4-.3-2.8-1-4.1-1.6-.8-.4-1.6-.7-2.3-1.2-.7-.5-1.4-.8-2.1-1.2-.9-.6-1.8-1.3-2.6-2-1.1-.8-1.9-1.8-2.8-2.9-1-1.1-1.9-2.4-2.8-3.6-.7-.9-1.2-1.8-1.8-2.7-.9-1.8-2-3.5-2.9-5.2-.9-1.6-1.5-3.3-2.1-5-.1-.4-.1-.6-.1-.8zm38.1-3.7c-.2-.7-.4-1.3-.5-2-.3-1.8-.6-3.6-.6-5.5-.1-1.5.1-3.1.1-4.6 0-1 .3-1.9.3-2.8v.1c.2-.5.2-1.1.4-1.6.1-.4.2-.8.2-1.2-.4.4-.5 1-.6 1.5-.1.4-.2.7-.2 1.1-.3 1.1-.5 2.3-.6 3.4-.3 3-.3 6.1.1 9.1.2 1.4.5 2.8 1.2 4.1.2.4.1.9-.2 1.2-.7.7-1.5 1.3-2.4 1.8v.3c.2 0 .4.1.6-.1.7-.4 1.3-.9 1.9-1.4.4-.4.8-.8.9-1.4-.1-.7-.5-1.3-.6-2zm-8.2 1.1c.1-.4.2-.7.2-1.1-.2.1-.5.3-.6.6-.4 1-.4 2.1 0 3.1.1.4.6.8 1 .7-.2-.3-.4-.5-.6-.8-.2-.8-.1-1.7 0-2.5zm1.7 3.8c-.3.9-.2 2 .1 2.9 0 .1.2.1.3.1-.2-1-.2-2-.2-3-.1-.1-.2 0-.2 0zm2.1 0c-.1 0-.2 0-.3.1-.3 1-.3 2.1.4 2.9.1-.4 0-.8 0-1.3-.1-.5 0-1.1-.1-1.7z" class="st16"/><path d="M78.2 98.6c.1-.1.3 0 .2.2-.1.2-.3 0-.2-.2z" class="st11"/><path d="M91.5 105.2c2.3-1.9 5.1-3.4 8.1-3.6 1.8-.2 3.8-.1 5.5.7.9.4 1.9.9 2.6 1.6.1.2.2.4.3.7-1.5.1-3 0-4.5 0-2.1.2-4.1 0-6.2.1-1.5.2-3.1.5-4.7.5-.4 0-.8.2-1.1 0z" class="st9"/><path d="M99.5 35.6c-1 .3-2.1.3-3.2.6-.5.1-.9.3-1.4.5-.3.1-.5-.3-.8-.2-.6.1-1.1.3-1.7.5-.8.3-1.6.7-2.4 1.1-.4.2-.7.5-1.1.7-.1-.4-.4-.8-.9-.8-.7 0-1.1.7-1.6 1.1-.2-.1-.4-.2-.7-.2-.6 0-.9.5-1.3.8-.7.7-1.3 1.5-2 2.2-.1 0-.2-.1-.3-.1.4-.7.8-1.3 1.3-1.9.1-.2.1-.3.1-.5-.1 0-.2-.1-.3-.1-.3.2-.5.4-.7.7-.7.8-1.5 1.5-2.2 2.3-1 1.1-2.2 2.3-2.6 3.8l1.2-1.5c.6-.7 1.2-1.4 1.8-2-.9 1.5-1.7 3-2.5 4.5-1.3 2.6-2.6 5.1-3.6 7.9-.9 2.8-2 5.6-2.4 8.5-.4 2.4-1 4.8-1.2 7.3-.3 2.5-.6 5-.7 7.5 0 2.7-.1 5.4.2 8 .1 1.5.4 3 .6 4.5.4 2.3.8 4.7 1.6 6.9.7 2.4 1.8 4.6 2.9 6.8.1.2.2.6.5.5.3-.1.2-.4.2-.6-.2-.5-.4-.9-.7-1.3-.5-1.3-1-2.7-1.2-4.1-.4-2.4-.6-4.7-.8-7.1 0-1.2-.1-2.4-.1-3.6.1-2.4-.1-4.8.2-7.2.1-1.5.1-3.1.2-4.6 0-.6 0-1.3.1-1.9 1.9-.4 3.8-1 5.8-1.3.9-.1 1.7-.3 2.6-.2.5.1.9.2 1.4.3 2.3.6 4.5 1.4 6.8 1.9.9.2 1.8.4 2.8.3.4-.1.9-.3 1-.8 0-.3-.1-.7 0-1 0-.4-.2-.8-.3-1.1-.1-.6-.6-1.1-1.1-1.5-.9-.6-1.9-1.1-2.9-1.5-1.1-.4-2.3-.9-3.4-1-2.6-.4-5.2-.5-7.7.3-1.6.5-3.2 1.3-4.5 2.4.2-1.3.6-2.5.9-3.7.5-2 1-4 1.6-6 1-3.3 2.1-6.6 3.5-9.8.9-2 1.7-4 3-5.7.6-1 1.5-1.8 2.3-2.7.6-.7 1.2-1.4 1.9-2 .6-.5 1.3-.9 1.9-1.3 1.5-1 3.1-1.7 4.6-2.4-1 .1-1.9.3-2.8.8-3.1 1.4-5.7 3.7-7.9 6.2s-3.8 5.5-5.1 8.6c-1.7 4-2.6 8.3-3.6 12.6-.2 1-.3 2-.8 2.8 0-.3 0-.5.1-.8.4-1.4.6-2.9.9-4.3.9-3.7 1.7-7.5 3.2-11 1.2-3 2.9-5.9 5.1-8.4 1.3-1.4 2.6-2.8 4.2-3.9.9-.6 1.7-1.3 2.6-1.8 1-.6 2.2-.9 3.3-1.2.8-.2 1.5-.3 2.3-.3.9-.1 1.7-.5 2.5-.7.6-.2 1.4-.2 1.9-.8-.3-.1-.5-.1-.6 0z" class="st1"/><path d="M107.6 103.9c.2.2.4.4.6.5.5.1 1.1-.1 1.6.1-.1.3-.4.3-.6.4-.3.1-.5.3-.8.5v-.5c.4-.1.7-.2 1-.4H108c-.2-.2-.3-.4-.4-.6z" class="st17"/><path d="M85.8 104.3c.3-.2.8-.1 1 .2.3.5.2 1.2-.4 1.5-.6.2-1.3-.3-1.2-.9 0-.3.3-.6.6-.8z" style="fill:#38312d"/><path d="M97.3 104.7c2.1-.1 4.1.1 6.2-.1h5.9c-.3.2-.7.3-1 .4-2.2.3-4.4.3-6.6.1h-2.7c-2-.1-4 .6-6 .6-.7 0-1.3-.1-2 0l-.1-.1c.1-.1.3-.2.4-.3h.1c.4.1.8 0 1.1 0 1.6-.1 3.1-.4 4.7-.6z" class="st17"/><path d="M101.7 105.1c2.2.1 4.4.2 6.6-.1v.5c0 .1-.1.2-.2.3-.7.7-1.4 1.5-2.3 2-1.4.7-3 1.1-4.5 1.1-1.6.1-3.2-.2-4.8-.6-1.1-.2-2.2-.5-3.2-.9-.8-.5-1.5-1.1-2.2-1.7.7-.1 1.3 0 2 0 2-.1 4-.7 6-.6h2.6z" class="st9"/><path d="M91 105.2h.4c-.1.1-.3.2-.4.3l.1.1h-.5c.1-.1.1-.3.4-.4z" class="st17"/><path d="M101.8 105.8c.7 0 1.3-.1 2-.1-.2.1-.3.3-.5.3-.7.1-1.4 0-2 .1-.7.1-1.4.1-2 .1-.6 0-1.3.2-1.9.1-.2 0-.2-.3 0-.3 1.4-.4 2.9-.2 4.4-.2zm-3.2 9c.7-.1 1.3-.2 2-.2-.6.6-1.5.4-2.2.7-.5.1-.9.4-1.4.4 0-.2 0-.4.2-.5.4-.3 1-.3 1.4-.4z" class="st13"/><path d="M68.4 114.2c.2-.2.2-.5.3-.7-.1 0-.2.1-.4.1v.2c-.6.9-.9 1.9-1.2 2.9-.6 2.1-.3 4.3.4 6.4.1.3.2.8.6.9 0-.4-.2-.8-.4-1.1-.4-1.7-.6-3.6-.3-5.3.2-1.3.6-2.4 1-3.4zm-10.2 10.9c-1.5-2.5-2.4-5.4-2.2-8.4.2-3.4 1.3-6.8 3.4-9.4.9-1.1 2-2.2 3.2-3 .4-.3.9-.4 1.3-.7-.3 0-.6-.1-.9.1-.9.4-1.7 1.1-2.4 1.8-1.2 1.2-2.3 2.5-3.1 4-1 1.8-1.6 3.8-1.8 5.9-.3 2-.1 4.2.5 6.1.4 1.4 1.1 2.6 1.8 3.8.7 1.3 1.6 2.5 2.7 3.6.2.2.4.5.7.4-.3-.4-.7-.7-1-1.1-.9-1-1.5-2.1-2.2-3.1z" class="st12"/><path d="M66.9 127.3c-1-1.5-1.8-3.2-2.3-4.9-.4-1.5-.5-3.1-.4-4.7.2-1.6.5-3.1 1.1-4.6.6-1.5 1.4-2.8 2.4-4 .2-.3.5-.5.5-.9-.4 0-.6.3-.8.6-1.1 1.2-1.9 2.6-2.5 4.1-1.3 3.3-1.8 7-.6 10.4.5 1.5 1.2 3 2.3 4.1.3.4.7.7 1.1 1.1.1 0 .2-.1.2-.1-.3-.5-.6-.9-1-1.1z" class="st12"/><path d="M64.4 129.2c-1.5-1.5-2.7-3.4-3.4-5.4-.4-1.3-.7-2.6-.8-3.9 0-.6-.1-1.2 0-1.8.1-2.3.6-4.7 1.6-6.8 1.1-2.2 2.6-4.2 4.6-5.6.4-.3.9-.6 1.2-1-.2 0-.4 0-.5.1-1.1.7-2.2 1.5-3.1 2.5-1 1.1-1.8 2.4-2.5 3.8-1.9 3.8-2.3 8.2-1.2 12.3.6 2.6 2.1 5 4.3 6.5.3.3.7.5 1.1.8.5.3.9.7 1.5.9-.2-.2-.5-.4-.8-.6-.7-.8-1.3-1.4-2-1.8z" class="st12"/><path d="M114.7 150.1c.1-.1.2-.2.2-.3.4.3.6.9.7 1.4.7 2.1 1 4.4 1.3 6.6.3 1.9.3 3.8.3 5.7 0 1.1 0 2.2-.1 3.3-.3 2.1-.7 4.1-1.1 6.1-.5 2.3-1 4.6-1.8 6.9-.7 2.1-1.4 4.2-2.4 6.2-1.6 3.3-3.3 6.5-5.2 9.6-1.1 1.7-2.3 3.2-3.4 4.9-1.1 1.7-2.4 3.3-3.6 4.8-.8 1-1.6 1.9-2.3 2.9-.3.4-.6.9-1 1.2-.2.2-.6.1-.5-.2.2-.7.7-1.2 1.1-1.8 1.2-1.5 2.5-3 3.6-4.5 1.4-1.8 2.7-3.8 4-5.6 1.1-1.6 2.1-3.2 3.1-4.8.9-1.6 1.8-3.2 2.6-4.8.8-1.6 1.5-3.2 2.1-4.8.8-2 1.4-3.9 2-6 .6-2.3 1.1-4.6 1.6-7 .3-1.4.5-2.8.6-4.3 0-2.7.1-5.3-.4-8-.3-2.2-.6-4.4-1.2-6.5 0-.3-.1-.6-.2-1zm-55.9 13.8c.4 1.9 1 3.8 1.7 5.7.7 1.8 1.4 3.7 2.3 5.4.9 2 1.9 3.9 2.9 5.8.4.8 1 1.5 1.4 2.3.5 1 1.1 1.9 1.8 2.8.8 1.3 1.9 2.4 2.8 3.7 1.1 1.6 2.4 3.1 3.8 4.6.5.6 1 1.3 1.5 1.9.7.9 1.4 1.9 2.2 2.7 1.2 1.4 2.4 2.9 3.6 4.3 1.2 1.4 2.5 2.7 3.7 4.1.7.8 1.5 1.5 2.1 2.3.6.7 1.3 1.3 1.8 2 .4.5.9.9 1.4 1.4.5.6 1 1.2 1.5 1.7.7.6 1.2 1.4 1.8 2.1.7.9 1.1 1.9 1.8 2.8h1.2c.1-1.5-.4-3-.6-4.5-.3-2.1-1.1-4-1.9-5.9-.3-.8-.7-1.6-1-2.4-.4-1-.9-1.9-1.4-2.8-.6-.9-.9-1.8-1.4-2.7h-.3c.5 1.8 1.7 3.4 2.4 5.1.6 1.3 1 2.8 1.6 4.1.6 1.6 1.2 3.3 1.5 5 .1.8.3 1.6.4 2.4.1.5.1 1 .2 1.5-.7-.9-1.1-2-1.9-2.9-.6-.7-1.2-1.4-1.9-2.1-.7-.6-1.2-1.3-1.9-1.9-.6-.6-1-1.4-1.7-2.1-.4-.5-.9-.9-1.3-1.4-.6-.7-1.3-1.3-1.9-2-1.3-1.4-2.6-2.7-3.8-4.1-1.4-1.6-2.8-3.3-4.2-4.9-.6-.7-1.1-1.4-1.7-2.1-.6-.7-1-1.4-1.6-2-1.3-1.5-2.6-3-3.7-4.6-1.2-1.6-2.4-3.1-3.4-4.8-.6-.9-1-1.8-1.6-2.7-.6-.9-1-1.8-1.5-2.7-.4-.8-.9-1.6-1.3-2.5-1.8-3.9-3.7-7.9-4.6-12.2-.4-2-1-3.9-1.2-5.9-.3-2.6-.4-5.2.3-7.7h-.2c-.4.7-.6 1.6-.7 2.4-.3 2.2-.1 4.4.2 6.6.2 1.4.5 2.8.8 4.2zm84.1 32.4h.4c0 1.1-.3 2.1-.4 3.1-.3 2.1-1.2 4-2.1 5.9-.8 1.8-1.7 3.5-2.5 5.3-1 2.1-1.7 4.2-2.3 6.4-.2.6-.2 1.2-.2 1.8h-.3c-.4-.8-.1-1.7 0-2.6.5-2 1-3.9 1.8-5.8.7-1.7 1.6-3.4 2.3-5.1.8-1.9 1.8-3.7 2.3-5.7.3-1.1.5-2.2 1-3.3zm-114.5 8.4c1 2.1 1.6 4.3 2.1 6.5.5 2.1.9 4.2 1.1 6.3.1.7.1 1.4.2 2.1h.5c0-2.4-.3-4.9-.8-7.2-.5-2.2-1.1-4.3-1.9-6.3-.6-1.6-1.5-3.1-2.3-4.5-.6-1-1.2-2-1.4-3.1h-.2c0 .7.3 1.4.5 2.1.6 1.3 1.5 2.7 2.2 4.1zm116-1.7c.1-.2.3-.1.5-.1-1 2.1-2 4.3-3.1 6.4-.9 1.8-2 3.6-2.9 5.4-.4.7-.8 1.4-1 2.2h-.4c-.2-.4.1-.9.2-1.3.7-1.8 1.5-3.5 2.5-5.1 1.1-1.9 2.1-3.9 3.2-5.8.2-.6.5-1.2 1-1.7zM33.9 214.2c.3 1.8.6 3.6.8 5.3h.7c-.1-4.7-1.2-9.3-2.8-13.6-.3-.8-.8-1.6-1-2.5h-.3c0 .4 0 .8.2 1.2.9 3.2 1.9 6.4 2.4 9.6zm109.2-3.5c.3-.4.6-1 1.2-1-.2.5-.6.9-.8 1.4-.8 1.5-1.6 3-2.4 4.4-.3.4-.5.9-.8 1.2h-.4c0-.5.3-.9.5-1.3.8-1.6 1.7-3.2 2.7-4.7z" class="st11"/></g></svg>