<?xml version="1.0" encoding="utf-8"?>
<!-- Generator: Adobe Illustrator 25.2.0, SVG Export Plug-In . SVG Version: 6.00 Build 0)  -->
<svg version="1.1" id="Layer_1" xmlns="http://www.w3.org/2000/svg" xmlns:xlink="http://www.w3.org/1999/xlink" x="0px" y="0px"
	 viewBox="0 0 180 180" style="enable-background:new 0 0 180 180;" xml:space="preserve">
<style type="text/css">
	.st0{clip-path:url(#SVGID_2_);}
	.st1{fill:#38312D;}
	.st2{fill:#56A2B0;}
	.st3{fill:#396E76;}
	.st4{fill:#F2844F;}
	.st5{fill:#E56324;}
	.st6{fill:#F6CAA1;}
	.st7{fill:#F95939;}
	.st8{fill:#FE7354;}
	.st9{fill:#396F79;}
	.st10{fill:#396E78;}
	.st11{fill:#396F78;}
	.st12{fill:#B0D6DD;}
	.st13{fill:#ADD5DC;}
	.st14{fill:#386E78;}
	.st15{fill:#AED6DC;}
	.st16{fill:#B6D7DD;}
	.st17{fill:#CC492F;}
	.st18{fill:#FDB38F;}
	.st19{fill:#45362F;}
	.st20{fill:#75989C;}
	.st21{fill:#B75A34;}
	.st22{fill:#160E0B;}
	.st23{fill:#B95D38;}
	.st24{fill:#FEB38F;}
	.st25{fill:#FCB390;}
	.st26{fill:#B95B34;}
	.st27{fill:#2D5861;}
	.st28{fill:#BC5E3A;}
	.st29{fill:#B86138;}
	.st30{fill:#BB5C3C;}
	.st31{fill:#FFB38E;}
	.st32{fill:#A3343E;}
	.st33{fill:#FAB28C;}
	.st34{fill:#BA5D38;}
	.st35{fill:#FDB693;}
	.st36{fill:#BF6743;}
	.st37{fill:#B95B37;}
	.st38{fill:#150F0C;}
</style>
<g>
	<defs>
		<rect id="SVGID_1_" width="180" height="180"/>
	</defs>
	<use xlink:href="#SVGID_1_"  style="overflow:visible;fill:#D34620;"/>
	<clipPath id="SVGID_2_">
		<use xlink:href="#SVGID_1_"  style="overflow:visible;"/>
	</clipPath>
	<g class="st0">
		<g>
			<g>
				<path class="st1" d="M102.5,27.5c1.3-0.1,2.7-0.3,4-0.1c2,0.1,4,0.8,5.3,2.4c0.4,0.6,1.2,0.8,1.7,1.2c1.1,1,1.7,2.4,2.3,3.7
					c0.4,0.7,0.8,1.4,1.1,2.2c0.1,0.5,0.6,0.8,1.1,0.8c1.6-0.2,3.1-0.7,4.7-0.5c1.3,0.2,2.5,0.5,3.7,0.9c1.2,0.4,2.2,1.1,3.2,1.9
					c0.6,0.5,1.1,1.1,1.6,1.7c0.6,0.7,1.1,1.4,1.7,2.1c0.9,1.2,1.6,2.5,2.3,3.9c0.6,1.2,1.2,2.4,1.5,3.7c0.5,2.2,0.9,4.4,0.8,6.6
					c0,1.6,0.1,3.3-0.2,4.9c-0.8,4.1-1.8,8.3-3.5,12.2c-0.9,2.5-2.2,4.8-3.4,7.2c-0.7,1.4-1.6,2.6-2.5,3.8c-1.5,2.1-3.6,3.6-5.8,4.9
					c-1.6,1-3.5,1.6-5.3,2c-2,0.5-4.1,0.4-6.2,0.3c-1.6-0.1-3.3-0.4-4.9-0.8c-2.3-0.5-4.6-1.2-6.8-1.9c-2.4-0.8-4.9-1.7-7.3-2.7
					c-1.4-0.6-2.8-1.1-4.4-1.3c0.1,0,0.2,0,0.3,0c-0.7-1.7-1.7-3.2-2.9-4.5c-1.4-1.7-3.1-3.1-4.9-4.3c-1.2-0.8-2.5-1.3-3.7-1.9
					c-1.8-0.8-3.6-1.5-5.6-1.8c-1.6-0.3-3.2-0.2-4.8,0.1c-0.7,0.1-1.3,0.5-2.1,0.4c-0.3-0.1-0.5,0.1-0.7,0.2c-1,0.7-2.1,1.2-3.2,1.7
					c-0.9,0.4-1.7,0.8-2.6,1.1c-1.3,0.5-2.7,0.7-3.9,1.3c-1.7,0.7-3.4,1.8-4.5,3.3c-1.2,1.6-2.1,3.3-3.1,5.1
					c-0.5,0.9-1.2,1.8-2.2,2.3c-1.9,1.2-4.3,1.4-6.4,1.7c-1.4,0.2-2.7,0.8-3.7,1.7c0.3-0.8,1-1.3,1.3-2.1c0.5-1.1,0.5-2.3,0.6-3.5
					c-0.1-0.9-0.2-1.7-0.3-2.6c-0.4-1.3-0.7-2.7-0.9-4.1c-0.1-1.2-0.2-2.4,0.2-3.6c0.4-1.4,0.8-2.7,1.6-3.9c0.5-0.8,1.2-1.5,1.9-2.2
					c1.1-0.9,2.3-1.7,3.5-2.5c0.7-0.5,1.3-0.9,1.8-1.6c0.7-0.8,1-1.9,1.2-2.9c0.4-1.8,0.2-3.6,0-5.4c-0.2-2.2,0.2-4.4,1.1-6.4
					c1.4-2.6,3.9-4.5,6.7-5.5c2-0.7,4.1-0.8,6-1.8c2.1-1,4-2.5,5.1-4.5c0.8-1.4,1.4-2.8,2.4-4.1c1.1-1.6,2.8-2.8,4.4-3.8
					c2.5-1.4,5.3-2.3,8.2-2c1.6,0.2,3,1.1,4.3,2c1.2,0.9,2.6,1.2,4.1,1.4c1.6,0,3.2,0.3,4.7-0.5c1.5-0.8,2.6-2.3,4-3.3
					C97.5,28.9,99.9,27.9,102.5,27.5z"/>
				<path class="st1" d="M65.9,74.4c1.6-0.3,3.2-0.4,4.8-0.1c1.9,0.3,3.8,1,5.6,1.8c1.3,0.6,2.6,1.1,3.7,1.9
					c1.8,1.2,3.5,2.6,4.9,4.3c1.2,1.3,2.2,2.8,2.9,4.5c-0.1,0-0.2,0-0.3,0c-1.5,0-3,0-4.5,0.1c-0.8,0-1.6,0.3-2.4,0.6
					c-1.2,0.5-2.3,1-3.4,1.7c-1.2,0.8-2.5,1.6-3.5,2.6c-1.9,1.8-3.3,4-5.1,5.9c-1.2,1.3-2.5,2.5-3.8,3.7c-1.4,1.2-3,2.3-4.8,2.7
					c-1.6,0.3-3.4,0.3-4.9-0.6c-1-0.6-2.2-1.1-3.4-0.9c-1.1,0.2-2,0.8-3,1.3c-0.9,0.5-2,0.7-3.1,0.8c-0.8,0.1-1.8,0-2.5-0.5
					c-0.7-0.6-1-1.4-1.3-2.2c-0.3-0.9-0.4-1.9-0.4-2.9c0-0.4,0-0.9-0.4-1.2c-0.7-0.6-1.7-0.6-2.5-0.6c-0.6,0-1.2,0-1.8,0.1
					c-1.3,0-2.6-0.4-3.5-1.4c-0.5-0.8-0.3-1.9,0.1-2.7c1-1,2.3-1.5,3.7-1.7c2.2-0.3,4.5-0.5,6.4-1.7c0.9-0.5,1.6-1.4,2.2-2.3
					c1-1.7,1.9-3.5,3.1-5.1c1.1-1.5,2.8-2.6,4.5-3.3c1.3-0.6,2.6-0.8,3.9-1.3c0.9-0.3,1.7-0.8,2.6-1.1c1.1-0.5,2.2-1,3.2-1.7
					c0.2-0.2,0.5-0.3,0.7-0.2C64.6,74.8,65.2,74.5,65.9,74.4z"/>
				<path class="st1" d="M172.8,203.6c-0.1-1-0.2-2-0.4-2.9c-1.1-4.4-2.7-8.7-5.5-12.3c-1.3-1.8-2.9-3.4-4.4-5
					c-3.3-3.1-7.3-5.4-11-8.1c-3.6-2.7-7.2-5.5-10.5-8.5c-1.6-1.5-3.2-3.1-4.6-4.8c-1.4-1.7-2.8-3.3-4-5.1c-0.7-1-1.2-2.2-1.8-3.3
					c-0.5-1-1-1.9-1.5-2.9c-0.7-1.4-1.3-2.8-1.9-4.3c-0.5-1-1.1-2-1.4-3.1c-0.3-0.7-0.6-1.5-1.3-1.9c-0.5-0.2-1,0.1-1.4,0.2
					c-0.3,0-0.7-0.1-1,0c-0.8,0.2-1.4,0.6-2.2,1c-3.2,1.4-6.7,2.6-10.2,2.8c-1.4,0.2-2.9,0.4-4.4,0.5c-1.7,0.2-3.4,0.2-5.1,0.3
					c-1.4,0-2.8,0-4.2,0c-1.8-0.1-3.6-0.2-5.5-0.4c-2.8-0.3-5.5-0.8-8.1-1.8c-2.3-0.9-4.6-1.9-6.6-3.3c-0.4-0.3-0.9-0.6-1.5-0.5
					c-0.2,0.1-0.3,0.3-0.4,0.5c-0.8,1.8-1.9,3.4-3.1,4.9c-0.4,0.4-0.8,0.7-1.3,0.9c-1.1,0.5-2.2,1-3.4,1.4c-3,1.1-6.2,1.8-9.3,2.7
					c-4.1,1.2-8.4,2.1-12.5,3.4c-1.7,0.5-3.4,1.2-5.1,1.8c-2.4,0.9-4.8,1.9-7.2,3c-2.3,1.2-4.7,2.2-6.8,3.8c-2.8,2-5.5,4.2-7.6,6.9
					c-1.4,1.8-2.5,3.8-3.4,5.8c-1.1,2.3-2.1,4.7-2.9,7.1c-0.8,2.4-1.5,4.8-1.9,7.3c-0.3,1.9-0.7,3.7-0.9,5.6c-0.1,1-0.2,2-0.4,2.9
					c-0.3,1.7-0.4,3.4-0.7,5.1c0,0,0,0.1,0,0.1H172.8z"/>
			</g>
			<g>
				<path class="st2" d="M102.5,27.5c1.3-0.1,2.7-0.3,4-0.1c2,0.1,4,0.8,5.3,2.4c0.4,0.6,1.2,0.8,1.7,1.2c1.1,1,1.7,2.4,2.3,3.7
					c0.4,0.7,0.8,1.4,1.1,2.2c0.1,0.5,0.6,0.8,1.1,0.8c1.6-0.2,3.1-0.7,4.7-0.5c1.3,0.2,2.5,0.5,3.7,0.9c1.2,0.4,2.2,1.1,3.2,1.9
					c0.6,0.5,1.1,1.1,1.6,1.7c0.6,0.7,1.1,1.4,1.7,2.1c0.9,1.2,1.6,2.5,2.3,3.9c0.6,1.2,1.2,2.4,1.5,3.7c0.5,2.2,0.9,4.4,0.8,6.6
					c0,1.6,0.1,3.3-0.2,4.9c-0.8,4.1-1.8,8.3-3.5,12.2c-0.9,2.5-2.2,4.8-3.4,7.2c-0.7,1.4-1.6,2.6-2.5,3.8c-1.5,2.1-3.6,3.6-5.8,4.9
					c-1.6,1-3.5,1.6-5.3,2c-2,0.5-4.1,0.4-6.2,0.3c-1.6-0.1-3.3-0.4-4.9-0.8c-2.3-0.5-4.6-1.2-6.8-1.9c-2.4-0.8-4.9-1.7-7.3-2.7
					c-1.4-0.6-2.8-1.1-4.4-1.3c0.1,0,0.2,0,0.3,0c-0.7-1.7-1.7-3.2-2.9-4.5c-1.4-1.7-3.1-3.1-4.9-4.3c-1.2-0.8-2.5-1.3-3.7-1.9
					c-1.8-0.8-3.6-1.5-5.6-1.8c-1.6-0.3-3.2-0.2-4.8,0.1c-0.7,0.1-1.3,0.5-2.1,0.4c-0.3-0.1-0.5,0.1-0.7,0.2c-1,0.7-2.1,1.2-3.2,1.7
					c-0.9,0.4-1.7,0.8-2.6,1.1c-1.3,0.5-2.7,0.7-3.9,1.3c-1.7,0.7-3.4,1.8-4.5,3.3c-1.2,1.6-2.1,3.3-3.1,5.1
					c-0.5,0.9-1.2,1.8-2.2,2.3c-1.9,1.2-4.3,1.4-6.4,1.7c-1.4,0.2-2.7,0.8-3.7,1.7c0.3-0.8,1-1.3,1.3-2.1c0.5-1.1,0.5-2.3,0.6-3.5
					c-0.1-0.9-0.2-1.7-0.3-2.6c-0.4-1.3-0.7-2.7-0.9-4.1c-0.1-1.2-0.2-2.4,0.2-3.6c0.4-1.4,0.8-2.7,1.6-3.9c0.5-0.8,1.2-1.5,1.9-2.2
					c1.1-0.9,2.3-1.7,3.5-2.5c0.7-0.5,1.3-0.9,1.8-1.6c0.7-0.8,1-1.9,1.2-2.9c0.4-1.8,0.2-3.6,0-5.4c-0.2-2.2,0.2-4.4,1.1-6.4
					c1.4-2.6,3.9-4.5,6.7-5.5c2-0.7,4.1-0.8,6-1.8c2.1-1,4-2.5,5.1-4.5c0.8-1.4,1.4-2.8,2.4-4.1c1.1-1.6,2.8-2.8,4.4-3.8
					c2.5-1.4,5.3-2.3,8.2-2c1.6,0.2,3,1.1,4.3,2c1.2,0.9,2.6,1.2,4.1,1.4c1.6,0,3.2,0.3,4.7-0.5c1.5-0.8,2.6-2.3,4-3.3
					C97.5,28.9,99.9,27.9,102.5,27.5z"/>
				<path class="st3" d="M65.9,74.4c1.6-0.3,3.2-0.4,4.8-0.1c1.9,0.3,3.8,1,5.6,1.8c1.3,0.6,2.6,1.1,3.7,1.9
					c1.8,1.2,3.5,2.6,4.9,4.3c1.2,1.3,2.2,2.8,2.9,4.5c-0.1,0-0.2,0-0.3,0c-1.5,0-3,0-4.5,0.1c-0.8,0-1.6,0.3-2.4,0.6
					c-1.2,0.5-2.3,1-3.4,1.7c-1.2,0.8-2.5,1.6-3.5,2.6c-1.9,1.8-3.3,4-5.1,5.9c-1.2,1.3-2.5,2.5-3.8,3.7c-1.4,1.2-3,2.3-4.8,2.7
					c-1.6,0.3-3.4,0.3-4.9-0.6c-1-0.6-2.2-1.1-3.4-0.9c-1.1,0.2-2,0.8-3,1.3c-0.9,0.5-2,0.7-3.1,0.8c-0.8,0.1-1.8,0-2.5-0.5
					c-0.7-0.6-1-1.4-1.3-2.2c-0.3-0.9-0.4-1.9-0.4-2.9c0-0.4,0-0.9-0.4-1.2c-0.7-0.6-1.7-0.6-2.5-0.6c-0.6,0-1.2,0-1.8,0.1
					c-1.3,0-2.6-0.4-3.5-1.4c-0.5-0.8-0.3-1.9,0.1-2.7c1-1,2.3-1.5,3.7-1.7c2.2-0.3,4.5-0.5,6.4-1.7c0.9-0.5,1.6-1.4,2.2-2.3
					c1-1.7,1.9-3.5,3.1-5.1c1.1-1.5,2.8-2.6,4.5-3.3c1.3-0.6,2.6-0.8,3.9-1.3c0.9-0.3,1.7-0.8,2.6-1.1c1.1-0.5,2.2-1,3.2-1.7
					c0.2-0.2,0.5-0.3,0.7-0.2C64.6,74.8,65.2,74.5,65.9,74.4z"/>
				<path class="st1" d="M172.8,203.6c-0.1-1-0.2-2-0.4-2.9c-1.1-4.4-2.7-8.7-5.5-12.3c-1.3-1.8-2.9-3.4-4.4-5
					c-3.3-3.1-7.3-5.4-11-8.1c-3.6-2.7-7.2-5.5-10.5-8.5c-1.6-1.5-3.2-3.1-4.6-4.8c-1.4-1.7-2.8-3.3-4-5.1c-0.7-1-1.2-2.2-1.8-3.3
					c-0.5-1-1-1.9-1.5-2.9c-0.7-1.4-1.3-2.8-1.9-4.3c-0.5-1-1.1-2-1.4-3.1c-0.3-0.7-0.6-1.5-1.3-1.9c-0.5-0.2-1,0.1-1.4,0.2
					c-0.3,0-0.7-0.1-1,0c-0.8,0.2-1.4,0.6-2.2,1c-3.2,1.4-6.7,2.6-10.2,2.8c-1.4,0.2-2.9,0.4-4.4,0.5c-1.7,0.2-3.4,0.2-5.1,0.3
					c-1.4,0-2.8,0-4.2,0c-1.8-0.1-3.6-0.2-5.5-0.4c-2.8-0.3-5.5-0.8-8.1-1.8c-2.3-0.9-4.6-1.9-6.6-3.3c-0.4-0.3-0.9-0.6-1.5-0.5
					c-0.2,0.1-0.3,0.3-0.4,0.5c-0.8,1.8-1.9,3.4-3.1,4.9c-0.4,0.4-0.8,0.7-1.3,0.9c-1.1,0.5-2.2,1-3.4,1.4c-3,1.1-6.2,1.8-9.3,2.7
					c-4.1,1.2-8.4,2.1-12.5,3.4c-1.7,0.5-3.4,1.2-5.1,1.8c-2.4,0.9-4.8,1.9-7.2,3c-2.3,1.2-4.7,2.2-6.8,3.8c-2.8,2-5.5,4.2-7.6,6.9
					c-1.4,1.8-2.5,3.8-3.4,5.8c-1.1,2.3-2.1,4.7-2.9,7.1c-0.8,2.4-1.5,4.8-1.9,7.3c-0.3,1.9-0.7,3.7-0.9,5.6c-0.1,1-0.2,2-0.4,2.9
					c-0.3,1.7-0.4,3.4-0.7,5.1c0,0,0,0.1,0,0.1H172.8z"/>
			</g>
		</g>
		<g>
			<path class="st4" d="M110.1,45.4c0.2-0.1,0.5-0.1,0.6,0.2c0.1,0.4-0.2,0.8-0.4,1.1c-1.9,3.5-3.6,7.1-4.3,11
				c-0.5,2.3-0.1,4.6,0.6,6.8c0.4,1.2,1,2.3,1.8,3.3c0.7,0.8,1.4,1.5,2.3,2.1c1.1,0.8,2.3,1.4,3.3,2.3c0.6,0.6,1.2,1.1,1.8,1.8
				c0.5,0.6,1,1.3,1.4,2c1.2,1.8,1.6,4,1.7,6.1c0.6,0.2,1.2,0.3,1.8,0.6c0.2,0.1,0.3,0.1,0.5,0.1c0.3,1.5,1.1,2.8,1.7,4.2
				c0.7,1.1,1.3,2.4,2,3.5c0.8,1.2,1.3,2.7,2.3,3.8l0,0c-0.4,1.4-0.5,2.9-0.8,4.4c-0.4,2.6-0.8,5.2-1.3,7.7
				c-0.4,2.8-0.7,5.5-1.1,8.3c-0.3,3.3-0.6,6.6-0.8,10c0,0.9-0.1,1.7-0.1,2.6c0,1.6,0,3.1,0,4.7c0.1,1.5,0.2,3,0.4,4.5
				c0.1,1.4,0.4,2.7,0.6,4.1c0.1,1,0.3,2,0.2,3.1c-0.2,0.9-1,1.4-1.8,1.8c-2.4,1-4.9,1.8-7.5,2.4c-1.9,0.4-3.7,0.9-5.6,1.1
				c-2.4,0.3-4.8,0.4-7.2,0.6c-2.5,0.2-5,0-7.4-0.2c0.9-0.7,1.9-1.3,2.7-2.1c1.4-1.2,2.7-2.5,4.1-3.8c1.4-1.3,2.7-2.8,3.9-4.3
				c1.4-1.8,2.6-3.7,3.7-5.7c1.1-1.9,2.3-3.7,3.3-5.6c2-3.8,3.8-7.7,5.2-11.8c0.8-2.2,1.4-4.4,2.1-6.6c0.9-2.6,1.5-5.2,2.3-7.8
				c0.1-0.4,0.3-0.8,0.5-1.3c0.1-0.3-0.1-0.5-0.2-0.8c-0.3,0.6-0.5,1.2-0.9,1.8c-0.2,0.4-0.4,0.8-0.5,1.2c-0.5,1.6-1.2,3.3-2,4.8
				c-0.4,0.7-0.8,1.4-1.1,2.2c-0.6,1.2-1.4,2.2-2.1,3.4c-0.8,1.5-1.6,2.9-2.6,4.3c-1.9,2.8-3.9,5.5-6.4,7.7c-1.6,1.6-3.5,3-5.3,4.3
				c-2.7,1.8-5.6,3.5-8.7,4.6c-1.2,0.5-2.6,0.7-3.9,0.5c-0.9-0.1-1.9-0.2-2.8-0.4c-0.8-0.2-1.5-0.6-2.2-1c-0.9-0.4-1.9-0.7-2.7-1.4
				c-0.6-0.5-1.2-0.9-1.8-1.4c-0.8-0.8-1.4-1.7-2.1-2.6c0,0.1-0.1,0.3-0.1,0.4c0-0.3,0-0.6-0.2-0.9c-0.9-1.4-1.6-3-2.4-4.5
				c-0.9-1.7-1.6-3.4-2.5-5.1c-0.4-0.8-0.7-1.6-1.1-2.3c1-0.5,1.7-1.4,2.4-2.2c0.9-1.2,1.4-2.7,1.3-4.2c0-1.7-0.3-3.6-1.6-4.9
				c-1-1.1-2.4-1.6-3.8-1.8c-0.9-0.1-1.8,0-2.7,0.2c-0.5-1.3-0.7-2.8-1.2-4.1l0,0c1-0.8,1.9-1.7,2.9-2.3c1.4-0.9,3-1.6,4.2-2.9
				c0.8-0.7,1.3-1.7,2.2-2.2c0.7-0.4,1.4-0.7,2.1-1c0.5-0.2,1.1-0.2,1.6-0.5c0.3-0.6,0.1-1.3,0.2-2c0-0.3,0.2-0.7-0.1-0.8
				c-0.4-0.2-0.8,0.1-1.1,0.2c-0.5-0.2-0.7-0.8-0.8-1.3c-0.1,0-0.2-0.1-0.3-0.2c-0.2,0.2-0.3,0.5-0.5,0.7c-1.3,0.4-2.7,0-4.1,0.1
				c0.5-1,1-1.9,1.4-2.9c0.5-1.2,0.9-2.4,1.7-3.5c1.1-1.5,2.6-2.8,4.4-3.4c1.8-0.6,3.8-0.8,5.5-1.8c1.8-1.1,3.1-2.9,4-4.9
				c0.5-1,0.9-2,1.2-3.1c0.2-0.9,0.6-1.7,1.2-2.4c1.1-1.2,2.5-2,4-2.7c1.1-0.6,2.3-1.1,3.4-1.8c1.5-0.9,2.9-2,3.9-3.4
				c0.9-1.1,1.6-2.3,2.3-3.5c0.7-1,1.5-2,2.2-3c0.6-0.9,1.2-1.7,2.1-2.3c0.2-0.1,0.2-0.3,0-0.4c0.1-0.1,0.2-0.2,0.3-0.2
				c0,0.1,0,0.2,0,0.3c0.2-0.1,0.3-0.1,0.5-0.2c0-0.2,0.1-0.4,0.1-0.5c-0.4,0.1-0.8,0.1-1.3,0.2C109.2,45.9,109.7,45.6,110.1,45.4z"
				/>
			<path class="st5" d="M108.8,46.2c0.4,0,0.9-0.1,1.3-0.2c0,0.2-0.1,0.3-0.1,0.5c-0.2,0.1-0.3,0.1-0.5,0.2c0-0.1,0-0.2,0-0.3
				c-0.1,0.1-0.2,0.2-0.3,0.2c-0.2,0.1-0.2,0.3,0,0.4c-0.8,0.6-1.5,1.5-2.1,2.3c-0.7,1-1.5,2-2.2,3c-0.8,1.2-1.4,2.4-2.3,3.5
				c-1.1,1.4-2.4,2.5-3.9,3.4c-1.1,0.7-2.2,1.3-3.4,1.8c-1.4,0.8-2.9,1.6-4,2.7c-0.6,0.7-1,1.5-1.2,2.4c-0.3,1.1-0.7,2.1-1.2,3.1
				c-0.9,1.9-2.2,3.7-4,4.9c-1.7,1-3.6,1.2-5.5,1.8c-1.8,0.6-3.3,1.9-4.4,3.4c-0.8,1-1.2,2.3-1.7,3.5c-0.4,1-0.9,1.9-1.4,2.9
				c1.4,0,2.7,0.3,4.1-0.1c0.2-0.2,0.3-0.5,0.5-0.7c0.1,0,0.2,0.1,0.3,0.2c0.1,0.5,0.3,1.1,0.8,1.3c0.4-0.1,0.8-0.4,1.1-0.2
				c0.3,0.2,0.1,0.6,0.1,0.8c-0.1,0.6,0.1,1.4-0.2,2c-0.5,0.3-1.1,0.3-1.6,0.5c-0.7,0.3-1.4,0.6-2.1,1c-0.9,0.5-1.5,1.5-2.2,2.2
				c-1.2,1.2-2.8,1.9-4.2,2.9c-1.1,0.7-1.9,1.6-2.9,2.3c-0.6-1.8-1.1-3.6-1.5-5.5c-0.6-3.1-1.4-6.2-1.9-9.3
				c-0.4-2.2-0.5-4.4-0.5-6.7c0-0.3,0-0.7,0.2-1c0.7-0.8,1.5-1.4,2.2-2.1c0.6-0.7,1.2-1.5,1.6-2.2c0.7-1.2,1.1-2.6,2.1-3.6
				c0.9-0.9,2-1.6,3.3-1.8c1.7-0.2,3.5,0,5.2-0.4c0.8-0.2,1.6-0.4,2.3-0.9c0.8-0.6,1.5-1.2,2.1-1.9c0.8-1,1.2-2.2,1.7-3.3
				c0.7-1.6,1.8-3.1,3.3-4c1.4-0.8,3-1.2,4.5-1.2c1.7,0,3.4,0.3,5.1,0.5c1.4,0.1,2.9,0,4.3-0.4c1-0.2,2.1-0.7,2.9-1.4
				c1.3-1.2,2.3-2.7,3.5-4C106.7,47.8,107.7,46.9,108.8,46.2C108.8,46.2,108.8,46.2,108.8,46.2z"/>
			<path class="st6" d="M109,47.1c-0.2-0.1-0.1-0.4,0-0.4C109.3,46.7,109.2,47,109,47.1z"/>
			<path class="st7" d="M126.4,64.2c1-0.4,2.1-0.5,3.2-0.3c0.6,0.1,1.3,0.1,1.9,0.4c1.2,0.5,2.4,1.3,3.3,2.3
				c1.4,1.4,2.4,3.2,2.8,5.1c0.3,1.2,0.5,2.5,0.7,3.7c0.2,3.2-0.1,6.4-1.4,9.3c-0.9,1.9-2.2,3.6-3.6,5.2c-1.6,1.7-3.7,3.2-6,3.7
				c-0.1,0.2-0.1,0.4-0.2,0.7c-0.9-1.2-1.5-2.6-2.3-3.8c-0.8-1.1-1.3-2.3-2-3.5c-0.7-1.4-1.5-2.7-1.7-4.2c-0.2,0-0.4-0.1-0.5-0.1
				c0.2,0,0.3-0.1,0.5-0.2c0.1-1.8-0.3-3.7-0.5-5.5c-0.3-1.9-0.2-3.8,0.3-5.6c0.5-1.5,1-3.1,2-4.3C123.9,65.8,125,64.7,126.4,64.2z"
				/>
			<path class="st8" d="M137.2,77.9c-0.1-0.7-0.1-1.3,0-2C137.3,76.5,137.3,77.2,137.2,77.9z"/>
			<path class="st7" d="M99.3,95.4c1.7-0.3,3.4,0.1,4.9,0.9c0.6,0.4,1.2,0.7,1.7,1.3c0.5,0.7,1,1.5,1.3,2.4c0.3,0.9,0.2,1.8,0.2,2.7
				c-0.1,1.3-0.5,2.7-1.5,3.7c-0.8,0.9-1.9,1.6-3,2.1c-0.5,0.2-1.1,0.4-1.7,0.4c-0.9,0-1.9,0.1-2.8-0.2c-1.4-0.3-2.7-1-3.5-2.2
				c-0.7-0.9-1.1-2-1.1-3.2c0-0.6-0.1-1.2,0-1.8c0.2-1.8,0.9-3.5,2.3-4.7c0.4-0.4,1-0.6,1.6-0.8C98,95.7,98.6,95.5,99.3,95.4z"/>
			<path class="st5" d="M121.6,101.4c0.4-0.6,0.6-1.2,0.9-1.8c0.1,0.2,0.3,0.5,0.2,0.8c-0.1,0.4-0.3,0.8-0.5,1.3
				c-0.8,2.6-1.5,5.2-2.3,7.8c-0.7,2.2-1.3,4.4-2.1,6.6c-1.4,4.1-3.3,8-5.2,11.8c-1,1.9-2.2,3.8-3.3,5.6c-1.1,2-2.3,3.9-3.7,5.7
				c-1.2,1.5-2.5,3-3.9,4.3c-1.4,1.3-2.7,2.6-4.1,3.8c-0.9,0.8-1.8,1.4-2.7,2.1c-1.2-0.1-2.4-0.2-3.6-0.4c-1.3-0.2-2.7-0.6-4-0.8
				c-1.4-0.3-2.7-0.8-4-1.3c-1.9-0.7-3.9-1.2-5.6-2.5c-0.6-0.4-1.2-0.7-1.7-1.3c-0.4-0.4-0.6-0.9-1-1.4c0.2-0.7,0.6-1.2,0.8-1.9
				c0.4-1.6,0.6-3.3,0.9-4.9c0.3-1.8,0.6-3.6,0.6-5.4c0-0.5,0-1,0.2-1.5c0-0.1,0.1-0.3,0.1-0.4c0.7,0.9,1.3,1.8,2.1,2.6
				c0.5,0.5,1.2,0.9,1.8,1.4c0.8,0.6,1.8,0.9,2.7,1.4c0.7,0.3,1.4,0.8,2.2,1c0.9,0.2,1.8,0.3,2.8,0.4c1.3,0.2,2.7,0,3.9-0.5
				c3.1-1.1,5.9-2.8,8.7-4.6c1.9-1.3,3.7-2.7,5.3-4.3c2.5-2.2,4.6-4.9,6.4-7.7c1-1.4,1.8-2.9,2.6-4.3c0.7-1.1,1.5-2.2,2.1-3.4
				c0.4-0.7,0.7-1.5,1.1-2.2c0.9-1.5,1.5-3.1,2-4.8C121.2,102.1,121.4,101.7,121.6,101.4z"/>
			<path class="st7" d="M66.7,102.2c0.9-0.2,1.8-0.3,2.7-0.2c1.4,0.2,2.9,0.7,3.8,1.8c1.2,1.3,1.6,3.2,1.6,4.9c0,1.5-0.4,3-1.3,4.2
				c-0.6,0.9-1.4,1.7-2.4,2.2c-1.3-2.6-2.2-5.4-3.2-8.1C67.4,105.4,67.1,103.8,66.7,102.2z"/>
			<path class="st5" d="M83,107.4c0.5-0.5,1-0.9,1.7-1.1c0.1,0.2,0.2,0.4,0.1,0.6c-0.4,1.2-1.4,2.2-1.6,3.5
				c-0.1,0.6-0.4,1.1-0.8,1.5c-0.5,0.6-1.2,0.9-2,1c-0.5,0-0.7-0.5-0.9-0.9c-0.2-0.7-0.1-1.4-0.1-2.1c0-0.4,0.3-0.7,0.6-1
				c0.4,0,0.8-0.1,1.1-0.4C81.7,108.2,82.4,108,83,107.4z"/>
		</g>
		<g>
			<path class="st9" d="M102.4,32.4c2-0.4,4.1-0.1,6.1,0.4c1.1,0.3,2,0.9,2.9,1.6c1.2,1,2.5,1.8,3.8,2.7c-0.2,0-0.3,0-0.5-0.1
				c-1.7-0.9-3.2-2-4.8-3c-1.2-0.7-2.7-0.9-4.1-1.1c-1.3-0.2-2.5-0.1-3.8,0.2c-1.6,0.5-2.9,1.6-4.5,2.2c-0.2,0.1-0.5,0-0.8,0
				c0.7-0.5,1.4-0.9,2.1-1.4C100,33.4,101.1,32.7,102.4,32.4z"/>
			<path class="st9" d="M76.4,35.7c1.8-0.2,3.7-0.3,5.5,0.1c0,0.1,0,0.2,0,0.4c-2.3-0.1-4.6-0.1-6.8,0.8c-1,0.4-2,0.9-2.8,1.6
				c-0.8,0.7-1.4,1.5-2.1,2.2c-0.6,0.6-1.4,1.1-2.2,1.5c-0.3,0.1-0.7,0.1-1,0c0.9-0.4,1.7-1,2.4-1.7c0.9-1,1.7-2.1,2.8-2.9
				C73.4,36.6,74.9,36,76.4,35.7z"/>
			<path class="st10" d="M78.5,40c1.5-1,3.3-1.8,5.1-1.9c2-0.3,4,0.4,6,0.6c0.7,0,1.3,0.2,2,0.2c1.5,0,3,0.1,4.4-0.3
				c0,0.1,0.1,0.3,0.1,0.3c-0.7,0.4-1.6,0.4-2.5,0.6c-1.3,0.1-2.7,0.2-4,0.2c-1.3-0.1-2.5-0.4-3.8-0.6c-1.5-0.2-3.1-0.1-4.5,0.5
				c-1.2,0.5-2.3,1.1-3.2,2.1c-0.9,1-1.6,2.1-2.6,3c-1.3,1.1-3,1.8-4.8,2.2c-1.1,0.3-2.2,0.5-3.3,0.7c-1.5,0.4-2.9,1.2-4.2,2.2
				c-1.6,1.4-2.8,3.2-3.6,5.2c-0.9,2.1-1.4,4.4-2.8,6.2c-1.3,2-3.4,3.1-5.5,4c-1.1,0.5-2.3,0.8-3.3,1.5c-1,0.8-1.4,2-2.3,2.8
				c0.2-1,0.7-1.9,1.3-2.8c0.7-1,1.8-1.4,2.9-1.8c2.1-0.8,4.1-1.8,5.6-3.5c0.8-1.1,1.4-2.2,1.9-3.5c0.3-0.8,0.6-1.6,0.9-2.4
				c0.9-2.5,2.2-4.8,4.2-6.6c1.5-1.3,3.3-2.2,5.2-2.6c2.2-0.5,4.6-0.7,6.5-2.1C76,43.2,76.8,41.2,78.5,40z"/>
			<path class="st11" d="M102.7,39.3c1.7-0.4,3.5-0.5,5.1,0c1.2,0.4,2.4,0.8,3.4,1.5c0,0.1,0,0.2,0.1,0.3c-0.1,0-0.2,0-0.3,0
				c-1.6-1-3.6-1.3-5.4-1.4c-1.5,0.1-3,0.2-4.4,0.9c-0.5,0.2-1,0.6-1.5,0.7c0-0.1,0-0.2,0-0.3C100.4,40.2,101.5,39.5,102.7,39.3z"/>
			<path class="st12" d="M84.1,43.4c1.8-0.3,3.6-0.5,5.3-0.7c0,0.1,0,0.2,0,0.3c-2.2,0.4-4.4,0.7-6.6,1.3c-1.1,0.3-2,1-2.8,1.8
				c-0.5,0.4-1,1-1.7,0.9c1-0.8,1.7-1.9,2.8-2.6C82.1,43.8,83.1,43.6,84.1,43.4z"/>
			<path class="st13" d="M107.9,44.7c0.8-0.2,1.6-0.5,2.4-0.5c0,0.1,0,0.2,0,0.3c-1,0.3-2.1,0.6-3.1,1c-1.8,0.8-3.6,1.7-5,3
				c-0.6,0.6-1.2,1.2-1.9,1.7c-0.2,0.2-0.5,0.3-0.8,0.3c0.3-0.5,0.8-0.9,1.1-1.4c0.7-0.9,1.5-1.6,2.3-2.3
				C104.4,46,106.1,45.2,107.9,44.7z"/>
			<path class="st14" d="M100,44.8c0.4-0.2,0.7-0.5,1.1-0.6c0,0.2,0,0.4-0.2,0.6c-0.6,0.6-1.4,1-2.1,1.4c-1.7,1-3.7,1.4-5.6,1.4
				c-1.6,0-3.1-0.4-4.6-0.4c-1.3,0.1-2.7,0-4,0.4c-1.2,0.4-2.3,0.9-3.3,1.7c-1.7,1.5-3.1,3.4-4.4,5.3c-0.6,0.9-1.3,1.8-2.2,2.5
				c-1.6,1.3-3.6,2.2-5.6,2.4c-1.6,0.3-3.3,0.4-4.9,1.1c-1.8,0.8-3.4,2.2-4.3,4c-0.9,1.4-1.5,3-2.4,4.3c-0.5,0.8-1.1,1.5-1.8,2.1
				c-1.4,1.3-2.7,2.6-4.3,3.4c-1.4,0.8-3,1.1-4.5,1.8c-1,0.4-1.9,0.8-2.9,1.3c-1.3,0.7-2.5,1.7-3.3,2.9c-0.7,1-1.2,2.2-1.4,3.4
				c-0.1-0.1-0.2-0.2-0.3-0.2c0.1-2.1,1.1-4.1,2.6-5.5c1.4-1.3,3.2-2,4.9-2.8c1.2-0.5,2.5-0.9,3.7-1.4c2-0.9,3.6-2.4,5.2-3.9
				c1.8-1.7,2.6-4.1,3.9-6.2c0.9-1.5,2.2-2.8,3.8-3.7c2.1-1.2,4.6-1.3,6.9-1.8c1-0.2,2-0.7,2.9-1.2c1-0.6,2-1.4,2.6-2.3
				c1.6-2.3,3.2-4.7,5.4-6.4c0.9-0.7,2-1.3,3.1-1.6c1.4-0.5,2.8-0.5,4.2-0.5c1.3-0.1,2.6,0.3,3.9,0.4c0.9,0,1.9,0.1,2.8-0.1
				C96.7,46.2,98.5,45.6,100,44.8z"/>
			<path class="st11" d="M58,48.8c0.1-0.1,0.3-0.1,0.4-0.1c-0.1,0.4-0.5,0.6-0.8,0.9c-1.2,1-2.5,2-3.5,3.2c-1.1,1.2-1.9,2.5-2.7,3.9
				c-0.5,0.8-1.3,1.7-2.3,1.5c0-0.1,0-0.2,0-0.3c0.7-0.3,1.3-1,1.6-1.7c0.6-1.2,1.3-2.4,2.3-3.4C54.6,51.3,56.3,50,58,48.8z"/>
			<path class="st15" d="M85.4,52.4c1.3-0.4,2.7-0.7,4.1-0.7c0.4,0,0.7,0.1,1.1,0.1c0,0.1,0,0.2,0,0.2c-1.4-0.1-2.9,0.3-4.2,0.6
				c-1.3,0.3-2.5,1-3.4,2c-0.4,0.4-0.7,1-1.2,1.2C82.3,54.2,83.8,52.9,85.4,52.4z"/>
			<path class="st16" d="M68.4,63.9c0.9-0.5,1.9-0.7,2.9-0.6c0,0.1,0.1,0.2,0.1,0.2c-1.8,0.1-3.4,1-4.8,2.1c-1,0.8-1.9,1.7-2.5,2.7
				c-0.2,0.3-0.4,0.7-0.7,0.9c0.4-1.2,1.2-2.1,2-3C66.3,65.4,67.3,64.6,68.4,63.9z"/>
			<path class="st17" d="M126.7,72.1c0.3-1.4,2-2.6,3.4-2c1.3,0.6,1.8,2,2,3.3c0.3,1.9-0.1,3.8-0.8,5.5c-0.6,1.3-1.1,2.6-2,3.7
				c-0.1,0-0.3,0-0.3,0c0.6-1.1,1.1-2.3,1.6-3.5c0.8-2,1.2-4.4,0.5-6.5c-0.3-0.7-0.7-1.5-1.6-1.7c-1,0-1.7,0.7-2.4,1.3
				C127,72.1,126.8,72.1,126.7,72.1z"/>
			<path class="st18" d="M95.4,73.8c1.6-0.8,3.4-0.6,5-0.5c1.5,0.1,3,0.3,4.3,0.9c0,0.1,0,0.3,0,0.4c-1.7-0.5-3.5-0.6-5.3-0.6
				c-0.7,0-1.4,0.1-2.2,0.1c-0.6,0.1-1.3,0.2-1.9,0.1C95.4,74.1,95.4,73.9,95.4,73.8z"/>
			<path class="st19" d="M92.1,79c2-0.8,4.1-1.2,6.1-1.4c2.2-0.1,4.4,0,6.5,0.8c0.6,0.2,1.2,0.5,1.8,0.7l0,0.1l0.1,0
				c0.2,0.1,0.3,0.2,0.6,0.2c0,0.1,0,0.2,0,0.2c-1.4,0.1-2.9,0.3-4.3,0.5c-2.1,0.5-4.1,1.2-6.1,2c-2.7,1.1-5.5,2.1-8.2,3.4
				c-0.4,0.2-0.7,0.4-1.1,0.5c-0.4,0-0.6-0.4-0.8-0.8c-0.2-0.5-0.3-1.1-0.1-1.7c0,0,0,0-0.1,0c0-0.7,0.4-1.3,0.8-1.8
				C88.7,80.6,90.4,79.7,92.1,79z"/>
			<g>
				<path class="st10" d="M116.1,59.1c0.2,1.7,0.6,3.3,1,4.9c0.2,0.7,0.4,1.3,0.7,1.9c0.2,0.3,0.3,0.7,0.6,0.8
					c0-0.3-0.1-0.5-0.2-0.8c-0.5-0.9-0.7-1.8-1-2.7l0,0.1c0-0.6-0.2-1.1-0.3-1.7c-0.7-3.4-0.2-6.8-0.1-10.2c0-1.2-0.1-2.3-0.4-3.5
					c-0.1-0.6-0.5-1.1-0.8-1.6c-0.1,0-0.2-0.1-0.2-0.1c0.1,0.6,0.4,1.1,0.5,1.6C116.7,51.6,115.7,55.4,116.1,59.1z"/>
				<path class="st10" d="M109.4,59.9c0.1-2.4,1-4.7,2-6.8c0.4-1,0.9-1.9,1.1-3l0.1,0.1c0-0.2,0-0.4,0-0.6c-0.1,0-0.2,0-0.3,0
					c0,0.1,0,0.2,0,0.3c-0.5,1.3-1.1,2.5-1.7,3.8c-0.9,2.1-1.6,4.4-1.7,6.7c0,1.9,0.7,3.8,1.8,5.4c1,1.3,2,2.5,3,3.8
					c0.1,0.1,0.2,0.2,0.3,0.3c-1-1.6-2.3-3-3.2-4.7C109.9,63.6,109.3,61.7,109.4,59.9z"/>
				<path class="st10" d="M132.2,55.2c0.4,2.2,0.5,4.5,0.4,6.7c-0.1,0.3-0.2,0.6-0.2,0.9c0.1,0,0.2,0,0.4,0c0-0.2,0.1-0.3,0.1-0.5
					c0.3-2.3,0.5-4.8-0.3-7.1L132.2,55.2z"/>
				<path class="st10" d="M129.3,55.5L129.3,55.5c-0.1-1.3-0.1-2.5-0.2-3.7c-0.1-1.6-0.3-3.2-0.9-4.6c-0.5-1.2-1.3-2.2-2.2-3.2
					c-1.1-1.2-2.5-1.9-3.9-2.7c-0.2-0.1-0.4-0.1-0.6,0c1.1,0.8,2.3,1.4,3.3,2.3c1.5,1.3,2.8,2.9,3.3,4.8c0.5,1.9,0.6,3.8,0.8,5.7
					c0.1,0.6,0,1.3,0.2,1.9c-0.1,1.5,0.3,3.1,0,4.6c0.1,0,0.2,0,0.3,0c0.1-0.8,0.1-1.7,0.1-2.5C129.3,57.3,129.4,56.4,129.3,55.5z"
					/>
				<path class="st10" d="M123.6,56.8L123.6,56.8c-0.1-1.1-0.2-2.1-0.3-3.1c-0.2-2.2-0.3-4.5-1.4-6.5c-0.9-1.6-2.2-2.9-3.8-3.8
					c-0.2-0.1-0.4-0.1-0.5-0.2c0.2,0.4,0.6,0.7,1,0.9c1,0.7,1.8,1.6,2.5,2.6c0.9,1.4,1.3,3,1.5,4.6c0.3,2.1,0.5,4.3,0.8,6.4
					c0,0.4,0.1,0.8,0.2,1.1c0.1,0.3,0.1,0.7,0.4,0.9c0-0.6-0.1-1.1-0.2-1.6C123.7,57.8,123.7,57.3,123.6,56.8z"/>
				<path class="st10" d="M135.5,57.3c-0.1,0-0.2,0-0.3,0c-0.2,1.9-0.1,3.9-0.4,5.8c-0.1,0.4-0.3,0.9-0.5,1.2c0.1,0,0.2,0,0.3,0
					c0.4-0.5,0.6-1.1,0.7-1.8C135.7,60.8,135.8,59,135.5,57.3z"/>
				<path class="st10" d="M126.5,60.3c0.1,0.7,0.3,1.3,0.4,2c0,0.2,0.1,0.3,0.2,0.5c0.1-0.8-0.1-1.6-0.3-2.4
					C126.7,60.3,126.6,60.3,126.5,60.3z"/>
				<path class="st10" d="M120.8,62c0,0.6,0.2,1.1,0.4,1.6c0.3,0.9,0.6,1.8,0.9,2.7c0.1,0,0.2,0,0.3,0c-0.4-1.4-0.7-2.9-1.4-4.2
					C120.9,62,120.8,62,120.8,62z"/>
				<path class="st10" d="M118.8,73.3c0.1,0,0.2,0,0.2,0c-0.1-0.6-0.5-1-0.8-1.5c-0.6-0.7-1.1-1.5-1.6-2.3c-0.2-0.3-0.4-0.5-0.6-0.8
					c-0.1,0-0.2,0-0.3,0c0.4,0.8,0.8,1.6,1.3,2.3C117.7,71.8,118.3,72.5,118.8,73.3z"/>
				<path class="st10" d="M119.5,77.7c-0.1-0.7-0.4-1.3-0.7-2c-0.3-0.7-0.6-1.4-1.1-2.1c-0.1-0.2-0.3-0.3-0.5-0.4
					c-0.1,0.1-0.1,0.2-0.2,0.3c0.2,0.1,0.4,0.3,0.5,0.5c0.6,1.2,1.3,2.3,1.8,3.6C119.3,77.7,119.5,77.7,119.5,77.7z"/>
				<path class="st10" d="M120,79.4c0,1,0.4,1.9,0.5,2.8c0.1,0,0.2,0,0.2,0c-0.1-1-0.2-1.9-0.5-2.8C120.2,79.4,120.1,79.4,120,79.4z
					"/>
				<path class="st10" d="M119,79.7c0.1,0.8,0.5,1.5,0.6,2.3c0.1,0,0.2,0.1,0.2,0.1c0-0.7-0.1-1.4-0.4-2.1
					C119.3,79.8,119.1,79.8,119,79.7z"/>
			</g>
			<path class="st19" d="M69.2,82.5c1.4-0.1,2.8-0.2,4.3,0c0.7,0.1,1.5,0.1,2.2,0.4c0.6,0.3,1.3,0.5,1.9,0.9
				c0.5,0.4,0.9,0.9,1.2,1.5c0.2,0.2,0.1,0.4,0.1,0.6c0.1,0.3,0.2,0.5,0.2,0.8c-0.1-0.2-0.2-0.4-0.3-0.6c-0.1,0.2-0.1,0.3-0.2,0.5
				c-1.6,0.1-3.1-0.4-4.7-0.1c-1.1,0.1-2.3,0.1-3.4,0.2c-1.7,0.2-3.3,0.5-5,0.7c-0.8,0.1-1.6,0.3-2.4,0.1c-0.1-0.1-0.2-0.2-0.3-0.3
				c-0.3-1.1-0.6-2.2-0.5-3.4c0.7-0.4,1.5-0.8,2.3-0.9C66.1,82.7,67.6,82.5,69.2,82.5z"/>
			<path class="st20" d="M39,83.5c0,0,0.2,0.2,0.3,0.3c-0.1,0.2,0,0.6-0.3,0.7C39,84.1,39,83.8,39,83.5z"/>
			<path class="st21" d="M78.6,86.6c0.1-0.2,0.1-0.3,0.2-0.5c0.1,0.2,0.2,0.4,0.3,0.6c0.2,1,0.1,2,0,3.1c-0.3,2.8-0.9,5.5-1.3,8.3
				c-0.4,2.4-0.9,4.8-1,7.3c0,0.8-0.1,1.8,0.3,2.6c0.4,0.7,1.3,0.9,2,0.8c1.9-0.3,3.4-1.6,5-2.5c0.2-0.1,0.4-0.1,0.6-0.2
				c0.4-0.6,0.8-1.4,0.4-2.1c-0.2-0.4-0.8-0.4-1.2-0.5c0.1-0.5,0.7-0.4,1.1-0.3c0.7,0.3,0.9,1.3,0.7,2c-0.3,0.9-1,1.5-1.7,2
				c-1.2,0.7-2.2,1.5-3.5,2c-0.9,0.4-2,0.6-2.9,0.2c-0.8-0.3-1.3-1.1-1.4-1.9c-0.2-1,0-2.1,0-3.1c0.1-1.6,0.4-3.1,0.6-4.6
				c0.4-2.6,0.9-5.2,1.4-7.7c0.2-1,0.3-2.1,0.5-3.1C78.6,88.1,78.5,87.4,78.6,86.6z"/>
			<path class="st22" d="M95.7,86.8c0.4-0.1,0.9,0,1.2,0.4c0.3,0.6,0.4,1.3,0.3,1.9c-0.1,0.5-0.3,1.1-0.8,1.4
				c-0.3,0.2-0.9,0.2-1.1-0.2c-0.5-0.9-0.5-2-0.1-3C95.3,87.1,95.5,87,95.7,86.8z"/>
			<path class="st22" d="M70.5,89.6c0.4-0.2,1-0.1,1.1,0.3c0.2,0.6,0.3,1.3,0.2,1.9c-0.1,0.4-0.2,1-0.5,1.2c-0.3,0.1-0.8,0.2-1-0.1
				c-0.4-0.6-0.4-1.3-0.4-2C69.9,90.5,70,89.9,70.5,89.6z"/>
			<path class="st23" d="M97.5,91.8c0.4-0.1,0.8-0.4,1.2-0.4c-0.6,0.7-1.5,0.9-2.3,1.1c-0.8,0.2-1.6,0.2-2.3,0.1c0-0.1,0-0.2,0-0.3
				C95.2,92.2,96.4,92.1,97.5,91.8z"/>
			<path class="st24" d="M102.3,92.2c0.4-0.2,0.8-0.6,1.3-0.8c0,0.1,0,0.2,0,0.3c-0.9,1-2.2,1.5-3.3,2.1c-1.4,0.6-2.8,1.5-4.4,1.1
				c0-0.1,0-0.2,0-0.3C98.2,94.3,100.3,93.3,102.3,92.2z"/>
			<path class="st23" d="M70.5,94.6c1.1,0,2.3-0.1,3.3-0.6c0,0.1,0,0.2,0,0.3c-0.9,0.5-2,0.6-3,0.7c-0.5,0-1.1,0.1-1.5-0.3
				C69.7,94.6,70.1,94.7,70.5,94.6z"/>
			<path class="st25" d="M80.9,95.4c0.1-0.3,0.3-0.5,0.5-0.6c0.4,0.5,0.2,1.1,0.1,1.6c-0.4,1.9-0.7,3.8-0.9,5.7
				c-0.1,0.7-0.1,1.4-0.3,2.1c-0.1,0-0.2,0-0.4,0c-0.1-1.4,0.1-2.8,0.2-4.2C80.3,98.4,80.4,96.9,80.9,95.4z"/>
			<path class="st26" d="M112.1,96.5c0-0.2,0.2-0.3,0.4-0.4c0.2,0.4,0,0.9-0.1,1.4c-0.5,1.4-1.3,2.7-2.2,3.9c-1.5,2-3.4,3.7-5.1,5.6
				c-0.8,0.9-1.7,1.8-2.5,2.7c-0.1,0-0.2,0-0.3,0c0.1-0.3,0.3-0.5,0.6-0.8c2-2.4,4.2-4.6,6.1-7C110.3,100.1,111.4,98.4,112.1,96.5z"
				/>
			<g>
				<path class="st27" d="M57.6,80c0.2-0.2,0.6-0.3,0.6-0.6c-0.9,0-1.6,0.6-2.3,1.1c-1.4,1.2-2.6,2.8-3.3,4.5c0,0.1-0.1,0.2-0.1,0.3
					c0.1,0,0.2,0,0.3,0C53.8,83.1,55.5,81.1,57.6,80z"/>
				<path class="st27" d="M54.3,90.5c-0.2-0.1-0.4,0.2-0.4,0.4c0.3,0,0.5-0.1,0.8-0.1l-0.1-0.1c0.3-0.2,0.6-0.3,0.8-0.6
					c1.4-1.2,2.3-3,3.4-4.5c0.6-0.8,1.4-1.6,2-2.4c0-0.1,0-0.2,0-0.3c-0.1,0-0.2,0-0.3,0c-0.8,0.8-1.6,1.6-2.4,2.4
					C56.8,87,55.9,89.1,54.3,90.5z"/>
				<path class="st27" d="M50.4,89.2c0.3-0.4,0.6-0.8,0.9-1.2c0.3-0.4,0.7-0.8,0.9-1.2c-0.1,0-0.2,0-0.3,0c-0.6,0.7-1.2,1.3-1.8,2.1
					c-0.6,0.7-1.1,1.5-1.9,2.1c-0.9,0.8-2.1,1.3-3.3,1.6c-1.3,0.3-2.7,0.3-4,0.9c-0.8,0.3-1.5,0.8-1.6,1.7c0.5,0,0.8-0.4,1.2-0.6
					c1.3-0.6,2.7-0.8,4.1-1.1c1.2-0.2,2.3-0.7,3.3-1.4C49.1,91.3,49.7,90.2,50.4,89.2z"/>
				<path class="st27" d="M60.6,92.6c0.7-0.9,1.5-1.9,2.2-2.8c0-0.1,0-0.2,0-0.4c-0.1,0-0.2,0-0.3,0c-0.6,0.6-1.1,1.3-1.6,2
					c-0.3,0.5-0.7,1-1,1.6C60.3,93,60.4,92.8,60.6,92.6z"/>
				<path class="st27" d="M57,92.7c0.1-0.1,0.2-0.3,0.2-0.5c0,0-0.1,0-0.2,0c-0.3,0.5-0.7,0.8-1.1,1.1c-0.9,0.8-1.9,1.6-3,2.2
					c-1.3,0.7-2.8,1-4.1,1.6c-0.9,0.4-1.8,1-2.2,2c0.1,0,0.2,0,0.3,0c0.5-0.5,1-1,1.7-1.3c1.2-0.6,2.5-0.9,3.7-1.4
					c1.1-0.5,2-1.2,2.8-2C55.9,94,56.5,93.4,57,92.7z"/>
				<path class="st27" d="M60.6,97.1c-1.4,1.3-3,2.5-4.9,3c-0.3,0-0.6,0.1-0.9,0.2c0.4,0.3,0.9,0.3,1.3,0.2c1.3-0.2,2.5-0.7,3.4-1.6
					c0.8-0.8,1.6-1.6,2.3-2.5c0.2-0.2,0.3-0.5,0.4-0.7c-0.1,0-0.2,0-0.3,0C61.5,96.1,61,96.6,60.6,97.1z"/>
			</g>
			<path class="st28" d="M120.3,105.3c0.4-1,0.8-1.9,1.2-2.8c-0.4,1.1-0.9,2.2-1.3,3.4c-0.5,1.4-1.3,2.6-1.9,3.9
				c-1,2-2.4,3.9-3.6,5.8c-1.3,2.1-2.7,4.1-4.3,5.9c-1.2,1.6-2.6,3-4.1,4.3c-1.8,1.6-3.7,3-5.7,4.4c-0.9,0.6-2,1.1-3,1.6
				c-1.2,0.5-2.3,1.3-3.6,1.7c-1.5,0.5-3,1-4.5,1c-1.7,0.1-3.4-0.4-5.1-0.8c0-0.1,0-0.2,0-0.2c0.1,0,0.3,0,0.4-0.1
				c0.6,0.1,1.3,0.4,1.9,0.5c0.9,0,1.7,0.2,2.6,0.1c1.5-0.1,2.9-0.5,4.3-1c2.3-0.8,4.6-1.8,6.6-3.1c1.9-1.3,3.7-2.9,5.5-4.4
				c1.4-1.2,2.7-2.5,3.9-3.9c3.1-3.6,5.5-7.8,8-11.8C118.6,108.3,119.5,106.9,120.3,105.3C120.2,105.3,120.3,105.3,120.3,105.3z"/>
			<path class="st29" d="M82.5,108.9c0.1,0,0.2,0,0.2,0c0.3,1.2,0.6,2.6,0.4,3.8c-0.1,0.1-0.3,0.2-0.4,0.2c-0.2-0.3-0.1-0.7-0.1-1.1
				C82.6,110.9,82.4,109.9,82.5,108.9z"/>
			<path class="st30" d="M80.8,109.7c0.1,0,0.2,0,0.3,0c0.4,1.2,0.6,2.5,0.3,3.8c-0.1,0-0.3,0.1-0.4,0.1
				C81,112.3,80.9,111,80.8,109.7z"/>
			<path class="st31" d="M108.1,110.5c0.1,0,0.2,0,0.4,0c-0.4,1.3-1.3,2.4-2.1,3.5c-1,1.3-2,2.6-3.3,3.8c-0.1-0.1-0.2-0.2-0.2-0.2
				c1.2-1.4,2.3-2.8,3.3-4.3C106.8,112.3,107.4,111.4,108.1,110.5z"/>
			<path class="st7" d="M81.4,113.5c2.9-0.7,6-0.8,8.9-0.1c0.5,0.1,0.8,0.5,1.1,0.8c-1.6,0.5-3.2,1.1-4.8,1.5
				c-1.4,0.4-2.8,0.6-4.3,0.9c-0.8,0.1-1.7,0.2-2.5,0.1c-1,0-1.9-0.3-2.8-0.5l-0.1,0c0.4-1,1.3-1.6,2.2-2c0.6-0.2,1.2-0.5,1.8-0.6
				C81.2,113.5,81.3,113.5,81.4,113.5z"/>
			<path class="st32" d="M86.7,115.7c1.6-0.5,3.2-1,4.8-1.5c0.1,0,0.2,0.1,0.3,0.1c0,0.1,0,0.3-0.1,0.4c-0.9,0.4-1.8,0.6-2.7,0.9
				c-1.8,0.7-3.8,1.2-5.7,1.5c-2,0.4-4.1,0.4-6-0.1c-0.1-0.1-0.2-0.3-0.3-0.4c0-0.1,0.1-0.2,0.2-0.3c0.9,0.2,1.9,0.4,2.8,0.5
				c0.8,0,1.7,0,2.5-0.1C83.9,116.3,85.3,116.1,86.7,115.7z"/>
			<path class="st7" d="M89,115.6c0.9-0.3,1.8-0.5,2.7-0.9c0,1.1-0.5,2.1-1.1,3c-0.6,0.8-1.2,1.6-2,2.1c-0.6,0.4-1.2,0.8-1.9,0.9
				c-0.5,0.1-1,0.3-1.6,0.3c-0.9,0-1.8,0.1-2.7-0.1c-0.8-0.2-1.5-0.3-2.2-0.7c-0.8-0.5-1.6-1.2-2.2-1.9c-0.3-0.4-0.5-0.8-0.7-1.3
				c2,0.5,4,0.5,6,0.1C85.2,116.8,87.1,116.3,89,115.6z"/>
			<path class="st33" d="M88,117.2c0.5-0.2,1-0.6,1.5-0.6c-0.2,0.4-0.7,0.6-1.1,0.9c-0.6,0.3-1.2,0.7-1.9,0.8
				c-0.2,0-0.3-0.1-0.4-0.1C86.6,117.7,87.4,117.5,88,117.2z"/>
			<path class="st34" d="M82.6,123.8c0.7-0.6,1.7-0.8,2.6-0.7c1.2,0.1,2.5,0.3,3.7,0.4c0.2,0,0.6,0,0.5,0.4
				c-0.8-0.1-1.5-0.1-2.3-0.2c-1.2-0.1-2.4-0.3-3.5,0.1c-0.4,0.1-0.7,0.3-1.1,0.2C82.6,124,82.6,123.8,82.6,123.8z"/>
			<path class="st35" d="M84.7,125.7c0.9-0.4,1.8-0.4,2.8-0.3c0.7,0,1.4,0.3,2,0.6c0,0.1,0,0.2,0,0.3c-0.6-0.1-1.1-0.3-1.7-0.4
				c-1-0.1-2.1,0.1-3.1,0.1C84.7,125.9,84.7,125.7,84.7,125.7z"/>
			<path class="st36" d="M77.5,127.6c0.1,0,0.2,0,0.3,0c1.5,2,3.3,3.8,5.5,4.9c0.6,0.3,1.2,0.5,1.7,0.8c-0.1,0-0.3,0-0.4,0.1
				c0,0.1,0,0.2,0,0.2c-1.4-0.5-2.6-1.3-3.8-2.2c-1.3-0.9-2.3-2.2-3.2-3.5C77.5,127.9,77.5,127.8,77.5,127.6z"/>
			<path class="st37" d="M86.7,140.5c0-0.7-0.1-1.4,0.2-2c0.1,0,0.3,0.1,0.4,0.2c0.1,0.9,0,1.7,0.3,2.6c0.3,1.2,0.7,2.5,1.6,3.5
				c0,0.1,0,0.2,0,0.3c-0.2-0.1-0.4,0-0.5-0.2C87.5,143.6,87,142,86.7,140.5z"/>
			<path class="st38" d="M70.7,147.4c0.4,0,0.6,0.4,0.8,0.7c0.3,0.5,0.6,1,1,1.4c0.6,0.5,1,1.2,1.5,1.7c1,1,2.2,1.9,3.3,2.8
				c1.6,1.4,3.5,2.6,5.4,3.5c2.1,0.9,4.2,1.5,6.3,2.3c1.2,0.4,2.3,0.9,3.5,1.1c1.3,0.3,2.6,0.6,4,0.7c1.7,0.2,3.4,0.2,5.1,0.2
				c1.8-0.1,3.5,0.1,5.3-0.3c2.4-0.3,4.8-0.9,7.1-1.6c1.6-0.5,3.2-1.2,4.7-2c1.7-0.9,3.4-1.9,4.8-3.3c0.8-0.9,1.7-1.7,2.5-2.7
				c0.7-0.8,1-1.9,1.8-2.6c0.1,0,0.3,0,0.3,0c0,0.7-0.4,1.2-0.7,1.8c-0.5,0.9-1.1,1.7-1.7,2.4c-0.9,0.9-1.8,1.9-2.9,2.7
				c-1.9,1.4-4,2.5-6.2,3.4c-1.2,0.6-2.5,0.9-3.7,1.2c-2.4,0.7-4.9,1.2-7.4,1.4c-3,0.1-6,0.1-9-0.1c-1.4-0.2-2.9-0.5-4.3-0.8
				c-1.2-0.2-2.3-0.7-3.4-1c-2.4-0.9-4.8-1.5-7.1-2.6c-1-0.5-2.1-1.1-3-1.7c-1.3-0.9-2.5-1.9-3.6-2.9c-0.8-0.7-1.7-1.4-2.3-2.3
				c-0.5-0.7-1.1-1.2-1.5-1.9c-0.3-0.4-0.4-0.9-0.7-1.3C70.7,147.6,70.7,147.5,70.7,147.4z"/>
			<path class="st38" d="M60.4,165c2.2-0.1,4.3,1,6.3,1.8c1.3,0.6,2.6,1.2,4,1.8c-0.1,0-0.3,0.1-0.4,0.1c-0.4,0-0.7-0.2-1-0.4
				c-2.2-0.9-4.5-1.9-6.8-2.6c-0.7-0.2-1.4-0.3-2-0.6C60.4,165.1,60.4,165,60.4,165z"/>
			<path class="st38" d="M70.6,168.7c0.4,0.2,0.8,0.3,1.1,0.6l0,0.3c-0.6-0.2-1.1-0.4-1.7-0.7C70.1,168.8,70.5,168.7,70.6,168.7z"/>
			<path class="st38" d="M117.2,178c1.1-0.3,2.3-0.4,3.3-0.9c0,0.1,0,0.2,0,0.4c-1,0.5-2.1,0.7-3.1,1c-1.3,0.3-2.7,0.8-4.1,0.8
				c-0.2,0-0.4-0.2-0.6-0.3c0.3-0.1,0.6-0.1,0.8-0.2C114.8,178.5,116,178.3,117.2,178z"/>
			<path class="st38" d="M112.5,178.7c0.4,0,0.8,0,1.2,0c-0.3,0-0.6,0.1-0.8,0.2c0.2,0.1,0.4,0.2,0.6,0.3c-0.3,0-0.6,0-0.8-0.1
				C112.5,178.9,112.5,178.8,112.5,178.7z"/>
			<path class="st38" d="M23.4,183.5c0.1,0,0.2,0,0.3,0c0.3,1.2,0.7,2.5,0.8,3.7c0.3,1.8,0.3,3.7,0.2,5.6c0,0.6,0,1.2-0.1,1.9
				c-0.2,0.7-0.2,1.4-0.3,2c-0.1,0.6-0.1,1.1-0.2,1.7c0-1.4,0.2-2.7,0.1-4.1c0.1-2.7,0-5.4-0.5-8.1
				C23.7,185.3,23.5,184.4,23.4,183.5z"/>
			<path class="st38" d="M24.4,203.6c0.5-2.6,1.2-5.1,1.9-7.6c0.8-2.5,1.5-4.9,2.1-7.5c0.2-1,0.6-2,0.5-3.1c-0.1,0-0.2,0-0.3-0.1
				c-0.4,1.1-0.7,2.3-1.1,3.5c-0.7,2.6-1.5,5.2-2.2,7.8c-0.7,2.3-1.2,4.6-1.6,7H24.4z"/>
			<path class="st38" d="M108.5,188.1c1.4-0.3,2.9-0.3,4.3-0.8c0,0.1,0,0.2,0,0.3c-1,0.5-2.1,0.5-3.1,0.7c-1.4,0.2-2.8,0.5-4.2,0.5
				c1.3-0.2,2.7-0.5,4.1-0.6C109.2,188.2,108.9,188.1,108.5,188.1z"/>
			<path class="st38" d="M93,188.6c1.1-0.5,2.3-0.8,3.6-0.9c1.6-0.1,3.2,0.2,4.7,0.4c1.6,0.2,3.2,0.3,4.8,0.2c0.8,0,1.7-0.2,2.5-0.2
				c0.4,0.1,0.7,0.1,1.1,0.1c-1.4,0.1-2.7,0.4-4.1,0.6c-3.8,0.3-7.6-1.1-11.3-0.1c-0.4,0.1-0.8,0.2-1.3,0.2
				C93,188.8,93,188.7,93,188.6z"/>
			<path class="st38" d="M21.8,194.4c0.1,0,0.2,0,0.3,0c0.1,0.6,0.3,1.2,0.4,1.8c-0.1-0.1-0.2-0.2-0.2-0.3c-0.1,0.1-0.1,0.3-0.2,0.4
				C22,195.7,21.9,195,21.8,194.4z"/>
			<path class="st38" d="M24.1,197c0.1-0.9,0-1.8,0.2-2.7c0.1,1.4-0.1,2.7-0.1,4.1c0.1-0.6,0.1-1.1,0.2-1.7c0.1-0.7,0-1.4,0.3-2
				c0,1.2-0.2,2.4-0.3,3.6c-0.1,1.4-0.3,2.8-0.7,4.2c-0.1,0-0.2,0-0.3,0C23.9,200.7,23.9,198.8,24.1,197z"/>
			<path class="st38" d="M42,195c0.7,0,1.3,0.3,1.8,0.7c1.9,1.6,3.4,3.5,5.4,4.9c0.9,0.7,2,1.2,3.2,1.5c0,0.1,0,0.2,0,0.3
				c-1.1-0.2-2.1-0.5-3-1.1c-2.1-1.3-3.9-3.1-5.6-4.8c-0.5-0.5-1.1-1-1.8-1.2C42,195.2,42,195,42,195z"/>
			<path class="st38" d="M22.5,202.1c0,0.5,0,1-0.1,1.4H23c0.2-2.5,0.2-5-0.5-7.4c-0.1-0.1-0.2-0.2-0.2-0.3
				c-0.1,0.1-0.1,0.3-0.2,0.4C22.5,198.2,22.6,200.2,22.5,202.1z"/>
			<path class="st38" d="M138.7,203.6c0.1-0.2,0.1-0.5,0.1-0.7c-0.1,0-0.3,0-0.4,0c-0.1,0.2-0.3,0.5-0.4,0.7H138.7z"/>
			<path class="st38" d="M142.1,203.6c0-0.1,0-0.1,0-0.2c-0.2,0-0.4,0-0.5,0.2c0,0,0,0,0,0H142.1z"/>
		</g>
	</g>
</g>
</svg>
