<?xml version="1.0" encoding="utf-8"?>
<!-- Generator: Adobe Illustrator 25.2.0, SVG Export Plug-In . SVG Version: 6.00 Build 0)  -->
<svg version="1.1" id="Layer_1" xmlns="http://www.w3.org/2000/svg" xmlns:xlink="http://www.w3.org/1999/xlink" x="0px" y="0px"
	 viewBox="0 0 180 180" style="enable-background:new 0 0 180 180;" xml:space="preserve">
<style type="text/css">
	.st0{clip-path:url(#SVGID_2_);}
	.st1{fill:#193857;}
	.st2{fill:#41709E;}
	.st3{fill:#DC9EB5;}
	.st4{fill:#FEF2DB;}
	.st5{fill:#E56324;}
	.st6{fill:#F2844F;}
	.st7{fill:#F95939;}
	.st8{fill:#F99D73;}
	.st9{fill:#FDB38F;}
	.st10{fill:#F5A072;}
	.st11{fill:#F89F72;}
	.st12{fill:#FDB391;}
	.st13{fill:#FCB390;}
	.st14{fill:#F79E72;}
	.st15{fill:#E66729;}
	.st16{fill:#CC492F;}
	.st17{fill:#15100D;}
	.st18{fill:#D15F29;}
	.st19{fill:#D05E27;}
	.st20{fill:#B95D38;}
	.st21{fill:#775B76;}
	.st22{fill:#BA9F80;}
</style>
<g>
	<defs>
		<rect id="SVGID_1_" width="180" height="180"/>
	</defs>
	<use xlink:href="#SVGID_1_"  style="overflow:visible;fill:#56A2B0;"/>
	<clipPath id="SVGID_2_">
		<use xlink:href="#SVGID_1_"  style="overflow:visible;"/>
	</clipPath>
	<g class="st0">
		<g>
			<path class="st1" d="M83.1,25.5c1.2-0.2,2.3-0.4,3.5-0.5c0.7-0.1,1.4,0,2.1,0.1c0.8,0.1,1.5,0.6,2.3,0.6c1.4,0,2.8,0.1,4.1-0.2
				c1.1-0.2,2.3-0.4,3.5-0.4c1.9,0.1,3.9,0.3,5.8,0.9c1.2,0.4,2.2,1,3.2,1.7c0.6,0.4,1.2,0.8,1.7,1.2c0.9,0.8,1.8,1.5,2.7,2.1
				c0.8,0.6,1.8,0.8,2.7,1.2c1.4,0.5,2.7,1.4,4,2.1c1.2,0.6,2.3,1.4,3.2,2.4c1.2,1.2,2.3,2.4,3.4,3.8c0.5,0.7,1.2,1.3,1.4,2.1
				c0.2,0.9,0.6,1.7,0.9,2.6c0.3,1.2,0.7,2.4,0.9,3.6c0.2,1.5,0.2,3,0.3,4.4c0.1,3.1,0,6.3-0.4,9.4c-0.3,2.5-0.6,5-1,7.4
				c-0.8,4.3-1.7,8.7-2.7,13c-0.3,1.2-0.6,2.5-0.9,3.7c0,0.7-0.3,1.2-0.4,1.9c-0.1,0.4,0.3,0.6,0.3,0.9c-0.1,0.8-0.4,1.6-0.3,2.4
				c0.1,0.5,0.8,0.5,1,0.1c0.6-1.7,1.2-3.5,2.2-5.1c0.2,1.3-0.1,2.7-0.8,3.8c-0.6,1-0.9,2-1.5,3c-1,1.7-2.1,3.4-3.4,4.8
				c-1.6,1.8-3.6,3.1-5.3,4.7c-1.6,1.4-3.2,2.8-4.7,4.2c-1.6,1.5-3.4,2.8-5.2,4.1c-1.5,1-3,2-4.4,3.1c-3.3-0.2-6.5-0.9-9.8-0.6
				c-1.9,0.1-3.8,0.3-5.7,0.7c-1.5,0.3-2.9,0.8-4.4,1.3c-2.9-1.1-5.6-2.7-8-4.6c-1.2-1-2.3-2.2-3.3-3.5c-1.3-1.8-2.4-3.8-3.5-5.8
				c-1.4-2.5-2.6-5.1-4-7.6c-0.8-1.4-1.6-2.8-2.2-4.3c-0.6-1.6-1.1-3.4-1.5-5.1c-0.2-0.7-0.1-1.4-0.5-2c-0.5-1.1-1-2.2-1.3-3.4
				c-0.3-1-0.4-2.1-0.6-3.2c-0.2-1.9-0.6-3.8-0.3-5.7c0-0.8,0.1-1.7,0.2-2.5c0.1-1.4,0.7-2.8,0.6-4.3c0-1.5-0.6-2.9-0.7-4.4
				c-0.1-1.7-0.2-3.5-1.1-5.1c-0.4-0.7-0.7-1.6-1.3-2.3c-0.9-1.2-2-2.3-2.3-3.8c-0.3-1.3-0.3-2.8,0.2-4.1c0.4,0.8,0.7,1.6,1.2,2.4
				c0.5,0.9,1.2,1.7,2,2.4c1,1,1.8,2.2,2.4,3.4c0.9,1.5,2.1,2.9,3.8,3.6c1.3,0.5,2.6,0.8,3.9,1.2c0.4,0.1,0.9,0.2,1.4,0.3
				c0-0.2,0-0.3-0.1-0.5c-0.4-0.2-0.8-0.4-1.3-0.5c-1.1-0.4-2.3-0.9-3.3-1.5c-0.9-0.5-1.8-1.2-2.4-2.1c-0.6-0.8-0.9-1.8-1.4-2.6
				c-0.5-0.9-1-1.7-1.7-2.4c-1.1-1-2-2.1-2.6-3.5c-0.8-1.5-1.9-3-1.9-4.7c0-0.2,0.1-0.4,0.1-0.5c0.6-0.1,1.3-0.1,2-0.2
				c0.9,0,1.8-0.2,2.8-0.1c1.8,0.2,3.5,1,4.8,2.2c1,1,1.7,2.3,2.6,3.3c0.9,1.2,2.2,2.3,3.6,2.8c1,0.4,2.2,0.3,3.2,0.3
				c1.2,0,2.4-0.2,3.6-0.2c1.7-0.1,3.3,0.5,4.6,1.6c0.8,0.6,1.5,1.3,2.1,2c0.8,1,1.2,2.3,1.9,3.3c0.7,1,1.3,2,1.9,3
				c0.2,0.2,0.3,0.5,0.6,0.6c0.3,0,0.7-0.3,0.6-0.6c-0.1-1-0.5-1.9-0.7-2.9c-0.4-2-0.9-4-2.1-5.6c-1.1-1.5-2.5-2.8-4.2-3.7
				c-1.4-0.6-3-1.1-4.5-1.1c-1.7,0-3.4,0.2-5,0c-0.6-0.1-1.2-0.4-1.6-0.9c-0.8-0.8-1.3-1.9-1.9-2.8c-1.6-2.6-4.5-4.4-7.5-4.9
				c-0.7-0.1-1.3-0.1-2-0.2c0.9-0.5,2-0.9,3-1.1c0.2-0.1,0.5-0.1,0.7-0.3c0.6-0.8,1-1.7,1.8-2.3c1.3-0.2,2.6-0.1,3.9,0.1
				c1.4,0.2,2.6,1,3.6,2c1.1,1.1,1.8,2.4,2.7,3.6c0.6,0.7,1.3,1.5,2.1,2c1.1,0.7,2.4,1.2,3.8,1.2c1.6,0,3-0.6,4.6-0.6
				c1.3-0.1,2.7,0.2,3.9,0.8c1.7,0.9,3.2,2.4,3.9,4.2c1.2,2.6,1.6,5.5,2.5,8.1c0.1,0,0.2,0,0.4,0c-0.4-1.7-0.7-3.4-0.9-5.1
				c-0.2-1.9-0.8-3.8-1.8-5.4c-1.2-1.6-2.8-3-4.7-3.6c-1.4-0.4-2.9-0.4-4.3-0.2c-1.3,0.2-2.6,0.6-3.9,0.4c-1.4-0.2-2.6-1-3.5-2.1
				c-1.3-1.5-2.2-3.3-3.6-4.7c-0.8-0.8-1.9-1.4-3-1.8c-1-0.3-2-0.3-3-0.4c1.4-0.7,3.1-0.9,4.7-0.8c0.9,0.1,1.8,0.3,2.8,0.4
				c0.7,0.3,1.2,0.8,1.9,1.1c0.8,0.4,1.5,0.8,2.3,1.2c1.7,0.8,3.5,1,5.4,1c1.1,0,2.1-0.2,3.1-0.6c2.2-0.6,4.2-1.7,6.4-2
				c1.3-0.2,2.6-0.3,3.8,0.2c1,0.4,1.8,1.1,2.5,1.9c1.4,1.7,3.3,3,5.5,3.1c1.7,0.2,3.4-0.4,5.2-0.1c0.8,0.1,1.5,0.6,2.2,1.1
				c1.1,0.8,2.4,1.7,2.9,3c1.2,3,1.5,6.2,2.1,9.4c0.1,0.8,0.3,1.6,0.6,2.4c0.1,0,0.2-0.1,0.3-0.1c-0.5-1.7-0.6-3.4-0.8-5.1
				c-0.2-1.9-0.2-3.9-0.6-5.8c-0.3-1.2-0.8-2.3-1.7-3.1c-0.8-0.8-1.8-1.5-2.8-2.1c-1.4-0.9-3.1-0.9-4.6-0.8
				c-1.2,0.1-2.4,0.3-3.5-0.1c-1-0.3-1.9-0.9-2.7-1.6c-0.7-0.6-1.3-1.4-2-2.1c-1.2-1.2-2.8-1.9-4.5-1.9c-1.5,0-3,0.2-4.5,0.6
				c-1.8,0.6-3.5,1.3-5.4,1.6c-2,0.2-4.1,0-6-0.7c-1-0.4-1.9-0.8-2.9-1.3c0.9-0.6,1.9-1,2.8-1.6c1-0.7,2.2-1.2,3.3-1.6
				C81.4,25.7,82.3,25.7,83.1,25.5z"/>
			<path class="st2" d="M88.7,29.6c1.4-0.5,3-0.7,4.5-0.6c1.7,0,3.3,0.7,4.5,1.9c0.7,0.7,1.2,1.5,2,2.1c0.8,0.7,1.7,1.3,2.7,1.6
				c1.1,0.3,2.3,0.2,3.5,0.1c1.6-0.1,3.2-0.1,4.6,0.8c1,0.6,1.9,1.3,2.8,2.1c0.9,0.8,1.4,2,1.7,3.1c0.4,1.9,0.4,3.8,0.6,5.8
				c0.2,1.7,0.3,3.4,0.8,5.1c-0.1,0-0.2,0.1-0.3,0.1c-0.3-0.8-0.5-1.6-0.6-2.4c-0.6-3.2-0.9-6.4-2.1-9.4c-0.5-1.3-1.8-2.2-2.9-3
				c-0.7-0.5-1.4-1-2.2-1.1c-1.7-0.4-3.4,0.2-5.2,0.1c-2.2-0.1-4.2-1.4-5.5-3.1c-0.7-0.8-1.5-1.5-2.5-1.9c-1.2-0.5-2.5-0.4-3.8-0.2
				c-2.3,0.3-4.3,1.4-6.4,2c-1,0.3-2.1,0.6-3.1,0.6c-1.8,0.1-3.7-0.2-5.4-1c-0.8-0.4-1.6-0.8-2.3-1.2c-0.7-0.3-1.2-0.9-1.9-1.1
				c0.7,0.1,1.4-0.2,2-0.5c0.1,0,0.2-0.1,0.3-0.1c0.9,0.5,1.9,0.9,2.9,1.3c1.9,0.7,4,0.9,6,0.7C85.2,30.9,87,30.2,88.7,29.6z"/>
			<path class="st2" d="M64.3,30.3c0.1-0.1,0.3-0.2,0.4-0.2c1,0.2,2,0.1,3,0.4c1.1,0.4,2.2,0.9,3,1.8c1.5,1.4,2.3,3.2,3.6,4.7
				c0.9,1.1,2.1,1.9,3.5,2.1c1.3,0.2,2.6-0.3,3.9-0.4c1.4-0.2,2.9-0.2,4.3,0.2c1.9,0.6,3.5,2,4.7,3.6c1.1,1.6,1.6,3.5,1.8,5.4
				c0.2,1.7,0.5,3.4,0.9,5.1c-0.1,0-0.3,0-0.4,0c-0.9-2.7-1.3-5.6-2.5-8.1c-0.8-1.8-2.2-3.2-3.9-4.2c-1.2-0.7-2.6-0.9-3.9-0.8
				c-1.5,0.1-3,0.6-4.6,0.6c-1.3,0-2.7-0.5-3.8-1.2c-0.8-0.5-1.5-1.3-2.1-2c-1-1.2-1.6-2.5-2.7-3.6c-1-1-2.2-1.7-3.6-2
				c-1.3-0.2-2.6-0.3-3.9-0.1C62.8,31.1,63.6,30.7,64.3,30.3z"/>
			<path class="st2" d="M70.8,32c0.3,0,0.7,0,1,0C71.5,32.1,71.2,32.2,70.8,32z"/>
			<path class="st2" d="M54.2,36.6c0.8-0.5,1.6-1,2.4-1.3c0.7,0.1,1.3,0.2,2,0.2c3,0.5,5.9,2.3,7.5,4.9c0.6,1,1.1,2,1.9,2.8
				c0.4,0.5,1,0.8,1.6,0.9c1.7,0.2,3.4,0,5,0c1.6,0,3.1,0.4,4.5,1.1c1.7,0.9,3.1,2.2,4.2,3.7c1.2,1.6,1.7,3.7,2.1,5.6
				c0.2,1,0.6,1.9,0.7,2.9c0.1,0.4-0.3,0.6-0.6,0.6c-0.3-0.1-0.4-0.4-0.6-0.6c-0.6-1-1.3-2-1.9-3C82.4,53.3,82,52,81.2,51
				c-0.6-0.8-1.3-1.4-2.1-2c-1.3-1-3-1.6-4.6-1.6c-1.2,0-2.4,0.2-3.6,0.2c-1.1,0-2.2,0-3.2-0.3c-1.5-0.5-2.7-1.5-3.6-2.8
				c-0.9-1.1-1.5-2.4-2.6-3.3c-1.3-1.2-3-2-4.8-2.2c-0.9-0.1-1.8,0.1-2.8,0.1c-0.7,0-1.3,0-2,0.2c0.2-0.7,0.5-1.4,1-1.9
				C53.3,37,53.8,36.8,54.2,36.6z"/>
			<path class="st2" d="M54.4,41.1c-0.1-0.5-0.1-1,0-1.5C54.4,40.1,54.4,40.6,54.4,41.1z"/>
			<path class="st2" d="M51.9,43c-0.2-1-0.4-2.1-0.1-3.2c-0.1,1.8,1.1,3.2,1.9,4.7c0.6,1.3,1.5,2.5,2.6,3.5c0.7,0.7,1.2,1.5,1.7,2.4
				c0.5,0.9,0.8,1.8,1.4,2.6c0.6,0.9,1.4,1.6,2.4,2.1c1.1,0.6,2.2,1.1,3.3,1.5c0.4,0.1,0.9,0.3,1.3,0.5c0,0.2,0,0.3,0.1,0.5
				c-0.5-0.1-0.9-0.1-1.4-0.3c-1.3-0.4-2.6-0.7-3.9-1.2c-1.7-0.6-2.9-2.1-3.8-3.6c-0.7-1.2-1.4-2.4-2.4-3.4c-0.8-0.7-1.4-1.5-2-2.4
				c-0.5-0.8-0.8-1.6-1.2-2.4C51.8,44,52,43.5,51.9,43z"/>
			<path class="st3" d="M130.6,60.8c-0.1-0.4-0.1-0.8,0-1.2C130.6,59.9,130.6,60.4,130.6,60.8z"/>
			<path class="st3" d="M192.3,236.3c0-0.8,0-1.6-0.1-2.4c0-0.1,0-0.2,0-0.4c-0.1-0.2-0.3-0.4-0.5-0.6c0-0.2,0-0.4,0-0.5
				c0-1.9,0-3.8,0-5.8c-0.1-1.9-0.3-3.8-0.5-5.7c-0.7-7.5-1.8-15-3.6-22.4c-0.8-3-1.6-6.1-2.7-9c-0.2-0.7-0.5-1.3-0.8-2
				c-0.1-0.1-0.3-0.7-0.3-0.7c-0.1-0.3-0.3-0.6-0.4-0.9c-0.6-1.2-1.2-2.4-1.8-3.6c-0.7-1.2-1.4-2.3-2.1-3.4
				c-0.4-0.6-0.8-1.1-1.2-1.7c-0.1-0.2-0.5-0.6-0.5-0.7c-0.2-0.2-0.4-0.5-0.6-0.7c-0.6-0.7-1.1-1.4-1.7-2c-3.1-2-6.4-3.9-9.5-5.8
				c-2.7-1.6-5.4-3.2-8.1-4.9c-1.9-1.2-3.7-2.4-5.5-3.6c-3.4-2.2-7-4.2-10.4-6.4c-3.8-2.4-7.6-4.9-10.9-8c-2.3-2.1-4.5-4.5-5.4-7.5
				c-1.1-1.1-2.1-2.2-2.8-3.6c-0.6-1.1-1.1-2.1-1.8-3.2c-0.7-1.3-1.5-2.5-1.8-3.8c-0.5-1.9-1.3-3.6-2-5.4c-0.3-0.7-0.8-1.3-1.1-2
				c-0.2-0.5-0.4-0.9-0.6-1.4c-0.5-1.1-1.2-2-2.1-2.7c-1.2-1.1-2.7-1.8-4.3-1.9c-1.5,0-3,0.4-4.5,0.6c-0.8,0.1-1.5,0.4-2.3,0.5
				c-0.6,0.1-1.1-0.1-1.7-0.1c-3.3-0.2-6.5-0.8-9.8-0.6c-1.9,0.1-3.8,0.3-5.7,0.7c-1.5,0.3-2.9,0.8-4.4,1.3
				c-1.6,0.7-3.1,1.5-4.6,2.3c-2.3,1.5-4.6,3.1-7,4.5c-1.6,0.8-3.2,1.6-4.9,2.2c-0.2-0.4-0.4-0.8-0.7-1c-0.5-0.3-1.2-0.3-1.7,0
				c-0.7,0.3-1.3,0.9-1.8,1.4c-1,1-1.9,2.3-2.7,3.5c-1,1.6-1.9,3.3-2.6,5.1c-0.5,1.4-1,2.7-1.5,4.1c-0.6,1.4-0.9,3-1.6,4.3
				c-0.5,0.8-0.8,1.7-1.3,2.5c-0.8,1.2-1.9,2.2-2.9,3.2c-0.7,0.7-1.6,1.1-2.3,1.6c-0.9,0.7-1.8,1.5-2.7,2.2c-1,0.7-2,1.4-3,2.1
				c-0.8,0.6-1.7,1.1-2.5,1.8c-0.6,0.5-1.2,1.1-1.8,1.6c-2.7,2.2-5.7,4-8.3,6.3c-1.5,1.3-3,2.6-4.5,4c-1,0.9-2.1,1.7-2.9,2.7
				c-0.6,0.7-1.2,1.3-1.9,1.9c-0.7,0.6-1.3,1.4-1.9,2.2c-1.3,1.8-2.7,3.4-4.1,5.1c-0.4,0.5-0.7,1-1.1,1.6c-0.7,0.8-1.4,1.7-2,2.5
				c-1.3,1.6-2.5,3.3-3.6,5.1c-2.1,3.3-4.1,6.8-5.8,10.4c-1.9,3.9-3.4,8.2-4.7,12.3c-1.3,3.9-2.4,7.8-3.2,11.8
				c-1,4.3-1.7,8.6-2.2,12.9H192.3z"/>
			<path class="st4" d="M98.7,128.8c0-0.2,0-0.5-0.2-0.6c-0.2,0-0.4,0-0.6,0c-0.2,0.3-0.3,0.6-0.4,0.9c-0.3,0.7-0.5,1.3-0.7,2
				c-0.4,0.1-0.7,0.2-1.1,0.3c0-0.1-0.1-0.1-0.1-0.2c0-0.3,0-0.7-0.2-1c-0.2-0.3-0.6-0.5-1-0.4c-2.8-2.4-7-2-10.4-1.6
				c-4.3,0.4-8.5,1-12.8,1.7c-2.4,0.4-4.7,0.8-7.1,1.3c0,0-0.1,0-0.1,0c-0.3-0.2-0.8-0.2-1.1,0c-0.6,0.3-0.5,1.1-1,1.5
				c-0.5,0.4-0.6,1.1-0.6,1.6c-0.2,2.4,0.1,4.8,0.1,7.2c0,0.9,0.2,1.9-0.1,2.8c-0.4,2-0.1,4,0.5,5.9c0.4,1.2,0.7,2.4,1.3,3.5
				c0.4,0.8,0.8,1.6,1.4,2.4c1.8,2.5,3.5,5.2,5.1,7.8c0.6,1,1,2.1,1.5,3.2c0.9,2.3,1.8,4.5,3,6.7c0.6,1.1,1.1,2.2,1.6,3.3
				c1,2.1,1.5,4.3,1.7,6.6c0.1,1.2,0.5,2.4,1.1,3.5c0.2,0.4,0.3,0.8,0.7,1c0.5,0.2,0.9-0.3,1.1-0.7c0.3-0.9,0.2-1.9,0.4-2.9
				c0.1-0.5,0.5-0.7,0.6-1.2c0.2-0.5,0.3-1.1,0.7-1.6c0.6-0.8,0.7-1.8,1-2.8c1.1-3.7,2-7.5,3.3-11.2c0.3-1,0.7-2.1,1.3-3
				c1.2-2,2.4-4,3.7-5.9c0.9-1.5,1.9-2.9,2.7-4.4c0.6-1.1,0.8-2.3,1.1-3.5c0.3-1.2,0.4-2.5,0.5-3.7c0.2-1.6,0.4-3.2,0.5-4.9
				c0.2-1.6,0.4-3.1,0.7-4.6c0.3-1.2,0.8-2.4,1.3-3.5c0.3-0.6,0.6-1.2,0.5-1.8c0-0.5-0.5-1-0.4-1.5
				C98.2,130.5,98.5,129.7,98.7,128.8z"/>
		</g>
		<g>
			<path class="st5" d="M78.1,56.3c1.7-0.2,3.4,0,5.1,0c0.5,0,1,0.1,1.5,0.2c1.1,0.2,2.1,0.8,3.2,1c1.8,0.4,3.7,1,5.6,0.8
				c1-0.1,2.1-0.3,3.1-0.2c0.6,0.1,1.3,0.1,1.9,0.2c1.3,0.1,2.7-0.1,4,0.1c1,0.2,2,0.6,3,0.9c0.5,0.2,1.1,0.1,1.6,0.2
				c1,0.1,1.9,0.7,2.8,1c0.3,0.1,0.5,0.2,0.7,0.3c-0.4,0.1-0.9,0.1-1.3,0c-1.1-0.2-2.2-0.2-3.3-0.2c-0.9,0-1.8,0.3-2.7,0.4
				c-1.1,0.2-2.2,0.3-3.2,0.9c-1.4,0.8-3,1.4-4.6,1.8c-2.6,0.5-5.3,0.7-8,0.2c-1.9-0.3-3.9-0.1-5.7,0.6c-1.6,0.6-2.8,1.8-4.2,2.5
				c-1.5,0.8-3.1,1.3-4.7,1.4c-1.1,0-2.2,0-3.3,0.2c-0.8,0.2-1.6,0.6-2.3,1.1c-0.8,0.5-1.2,1.4-1.9,1.9c-1.1,0.9-2.3,1.9-3.8,2
				c-0.2,0-0.5,0-0.7,0.1c0.1-1.5,0.5-3,0.7-4.6c0.2-2.4,0.8-4.7,1.5-7c0.6-1.9,1.2-3.8,1.8-5.6c0.6,0.1,1.1,0.4,1.7,0.4
				c0.8,0,1.6,0.2,2.4,0.3c1.9,0.2,3.8-0.2,5.6-0.5C75.8,56.7,77,56.5,78.1,56.3z"/>
			<path class="st6" d="M103.4,61.3c0.9-0.2,1.8-0.4,2.7-0.4c1.1,0,2.2,0,3.3,0.2c0.4,0.1,0.9,0,1.3,0c0.8,0.2,1.5,0.7,2.1,1.1
				c0.5,0.4,1.2,0.5,1.7,0.8c0.3,0.2,0.4,0.6,0.6,0.9c0.6,1.8,0.6,3.8,0.4,5.6c-0.2,1.9-0.1,3.8,0.1,5.7c0.1,1.3,0.4,2.6,0.6,3.8
				c0.3,1.3,0.3,2.7,0.4,4.1c0.1,1.5-0.5,2.9-0.8,4.3c-0.3,1.3-1,2.5-0.9,3.9c0,1.3,0,2.7,0,4c0,0.5-0.2,1-0.2,1.6
				c0.1,0,0.4,0,0.5,0c-0.1,1.5-0.4,2.9-0.5,4.4c-0.1,1.5-0.5,2.9-1,4.3c0.1,0.1,0.2,0.3,0.2,0.4c-0.3,0.1-0.5,0.2-0.6,0.5
				c-0.3,0.9-0.6,1.8-0.8,2.7c0.3,0,0.6,0,0.8,0c-0.2,0.1-0.4,0.1-0.5,0.4c-0.4,1-0.9,2-1.4,3c-0.9,2.1-2,4.2-3.1,6.3
				c-0.5,1-1,2-1.7,2.9c-0.6,0.9-1,1.8-1.6,2.7c-1.9,3-4.1,5.9-6,8.9c-1.4,2-3.1,3.9-4.5,5.8c-0.8,1.1-1.7,2.2-2.6,3.3l-0.1,0
				c-0.7-0.3-1.5-0.1-2.2,0.1c-0.9,0.2-1.8,0.3-2.6,0.5c-0.8,0.2-1.6,0.1-2.4,0.2c-1.3,0.2-2.6,0.3-3.9,0.3c-1.7-0.1-3.3,0.3-4.9,0
				c-0.8-0.1-1.6-0.2-2.4-0.2c-3-0.1-5.8-1.5-8.5-2.6c0,0.2,0,0.3,0,0.5c-0.4-0.9-1.1-1.6-1.6-2.5c-0.5-1-0.9-2-1.3-3.1
				c-0.4-1.3-0.8-2.6-0.9-4c-0.2-2-0.4-4.1-0.6-6.2c-0.2-1.7-0.5-3.5-0.7-5.2c-0.2-1.9-0.7-3.7-1.1-5.5c-0.2-0.8-0.3-1.7-0.5-2.5
				c-0.3-1.5-0.5-3-0.8-4.5c0-0.2-0.3-0.4-0.5-0.5c0.2,0,0.3,0.1,0.5,0.1c-0.2-1-0.3-2-0.4-3c-0.1-1.8,0.1-3.6,0.1-5.4
				c0-0.7,0-1.5-0.1-2.2c0-0.7,0.2-1.4,0.3-2.2c0.1-1,0.1-1.9,0.2-2.9c0.1-1.1,0.3-2.1,0.6-3.1c0.3-1.2,0.4-2.5,0.7-3.7
				c0.6-0.9,0.6-2,0.8-3c0.4-0.9,0.5-1.9,0.7-2.9c0.1-0.5,0-1.1,0.1-1.6c0.2-1.1,0.2-2.2,0.4-3.3c0.2,0,0.5,0,0.7-0.1
				c1.5-0.1,2.7-1.1,3.8-2c0.7-0.6,1.1-1.4,1.9-1.9c0.7-0.5,1.4-0.9,2.3-1.1c1.1-0.2,2.2-0.2,3.3-0.2c1.7-0.1,3.3-0.6,4.7-1.4
				c1.5-0.7,2.7-1.9,4.2-2.5c1.8-0.7,3.8-0.9,5.7-0.6c2.6,0.5,5.4,0.2,8-0.2c1.6-0.4,3.2-0.9,4.6-1.8
				C101.2,61.6,102.3,61.5,103.4,61.3z"/>
			<path class="st7" d="M52.9,80.2c2.1-0.4,4.5,0.5,5.6,2.4c0.1,0.5,0,1.1,0.1,1.6c0.1,0.3,0.3,0.5,0.4,0.7
				c-0.3,1.2-0.4,2.5-0.7,3.7c-0.3,1-0.4,2.1-0.6,3.1c-0.1,1-0.1,1.9-0.2,2.9c-0.1,0.7-0.3,1.4-0.3,2.2c0,0.7,0.1,1.4,0.1,2.2
				c0.1,1.8-0.1,3.6-0.1,5.4c0.1,1,0.2,2,0.4,3c-0.2,0-0.3-0.1-0.5-0.1c-0.3-0.1-0.6-0.3-0.9-0.4c-0.7-0.5-1.4-1-2-1.8
				c-1.1-1.4-2.1-2.8-2.8-4.5c-0.6-1.2-1.2-2.4-1.6-3.7c-0.5-1.5-1.1-3-1.4-4.6c-0.3-1.3-0.4-2.7-0.4-4.1c0-1.2,0.2-2.4,0.5-3.6
				c0.2-0.9,0.6-1.8,1.2-2.5c0.3-0.4,0.8-0.6,1.1-0.9C51.5,80.8,52.2,80.4,52.9,80.2z"/>
			<path class="st8" d="M104.9,80.8c0.6,0,1.3-0.2,1.9-0.2c0,0.2-0.1,0.3-0.1,0.5c-0.9-0.1-1.7-0.1-2.6-0.1
				C104.4,80.8,104.7,80.8,104.9,80.8z"/>
			<path class="st9" d="M101.2,81.2c1-0.1,2-0.3,2.9-0.3c0.9,0,1.7,0,2.6,0.1c0.5,0.1,1.2-0.1,1.6,0.4c-0.5,0.2-1.1,0.1-1.6,0.1
				c-2.5,0-5.1,0.4-7.6,0.7c-0.4,0-0.7,0-1.1,0c0-0.1,0-0.2,0-0.2C99.2,81.8,100.2,81.4,101.2,81.2z"/>
			<path class="st5" d="M62.1,82.7c-0.1-0.3,0-0.8,0.4-0.8c0.5-0.1,0.8,0.5,1.2,0.5c0.4-0.1,0.7-0.5,1.1-0.5c0.8,0,1.6,0.3,2.3,0.5
				c1.5,0.5,2.9,1.1,4.3,1.7c0.8,0.3,1.6,0.3,2.4,0.5c0.8,0.2,1.5,0.5,2.3,0.5c0.9,0,1.8,0.2,2.7,0.5c0.6,0.2,1.1-0.1,1.7,0
				c0.4,0,0.7,0.5,0.5,0.9c-0.2,0.5-0.6,0.8-0.9,1.2c0,0.3,0.2,0.6,0.2,0.9c-0.1,0.4-0.3,0.7-0.5,1.1c-0.8,1.6-1.7,3.2-2.2,4.9
				c-0.2,0.5-0.4,1.1-0.5,1.6c-0.2,0.5-0.6,0.9-0.7,1.5c-0.7,2.3-1.4,4.5-2.1,6.8c-0.2,0.6-0.5,1.1-0.6,1.8
				c-0.1,0.4-0.5,0.7-0.5,1.2c-0.1,0.5-0.1,1-0.2,1.5c-0.1,0.5-0.2,1-0.1,1.5c0.1,0.6,0.2,1.3,0.1,1.9c-0.2,0.1-0.5,0.2-0.6,0
				c-0.7-1-1-2.3-0.9-3.6c-0.1-1.7,0.2-3.5,0.6-5.1c0.5-2.4,1.1-4.7,1.9-7c0.1-0.2,0.1-0.4,0.2-0.6c-0.8,0.2-1.6,0.5-2.4,0.8
				c-0.4,0.1-0.7,0.2-1.1,0.2c-0.8,0-1.5,0.2-2.3,0.1c-0.6,0-1.2-0.3-1.9-0.4c-1.3-0.2-2.6-0.8-3.3-1.8c-0.4-0.6-1-1.1-1.1-1.8
				c0.5,0,1,0.3,1.4,0.5c1.1,0.4,2.3,0.7,3.5,1c1.3,0.3,2.5,0.5,3.8,0.6c1.3,0,2.6-0.3,4-0.5c0.4-1,0.5-2.1,0.9-3.2
				c0.2-0.7,0.5-1.3,0.7-2c-0.7,0.3-1.3,0.7-2,0.9c-1.6,0.6-3.4,1.1-5.1,0.9c-0.8-0.1-1.6-0.3-2.3-0.7c-0.6-0.3-0.9-1-1.4-1.4
				c-0.8-0.7-1.4-1.6-1.9-2.5c-0.4-0.8-0.9-1.5-1.1-2.4C62.5,83.6,62.2,83.2,62.1,82.7z"/>
			<path class="st10" d="M96.7,82.5c0.4-0.4,1-0.4,1.5-0.5c0,0.1,0,0.2,0,0.2c0.4,0,0.7,0,1.1,0c-0.4,0.2-0.8,0.2-1.2,0.3
				C97.5,82.5,97.1,82.6,96.7,82.5z"/>
			<path class="st7" d="M123.4,86.9c1-0.4,2.1-0.4,3.2-0.6c0.9-0.1,1.8,0.1,2.4,0.7c0.6,0.6,1.2,1.2,1.6,2c0.3,0.7,0.3,1.5,0.2,2.2
				c-0.1,1.1-0.2,2.2-0.6,3.2c-0.4,1-0.9,2-1.5,3c-1.3,2.1-3.1,3.8-5,5.4c-1.5,1.2-2.9,2.4-4.5,3.4c-1.1,0.7-2.2,1.5-3.4,2
				c-0.8,0.3-1.5,0.8-2.4,0.9c-0.3,0-0.6,0-0.8,0c0.3-0.9,0.5-1.8,0.8-2.7c0.1-0.3,0.4-0.4,0.6-0.5c-0.1-0.1-0.2-0.3-0.2-0.4
				c0.5-1.4,0.9-2.8,1-4.3c0.1-1.5,0.3-2.9,0.5-4.4c0.9-2.6,2.4-5,3.8-7.4c0.3-0.5,0.8-0.8,1.2-1.1
				C121.3,87.8,122.3,87.3,123.4,86.9z"/>
			<path class="st5" d="M95.6,88.5c0.6-0.1,1.1,0,1.6,0.1c0.7,0.2,1.3-0.1,2,0c1.8,0.3,3.7,0.2,5.5,0.4c1.5,0.1,2.9,0.3,4.3,0.4
				c0.4,0,0.7,0.3,1,0.3c0.5,0,1,0.3,1.5,0.6c0.1,0.5-0.4,0.9-0.8,1.2c-1.4,0.9-3,1.5-4.7,1.6c-0.3,0-0.5,0.3-0.8,0.4
				c-1.1-0.1-2-0.8-3.1-1c-1.2-0.2-2.5-0.6-3.6-1.3c-0.9-0.5-1.9-1.1-2.6-1.9C95.8,89.3,95.7,88.9,95.6,88.5z"/>
			<path class="st11" d="M80.3,95c0-0.4,0.3-0.8,0.7-0.9c0,0.5-0.2,0.9-0.5,1.3C80.5,95.2,80.4,95.1,80.3,95z"/>
			<path class="st12" d="M80.3,95c0.1,0.1,0.1,0.2,0.2,0.3c-1.5,3.2-2.5,6.6-3.4,10.1c-0.3,0.9-0.5,1.8-0.7,2.8
				c-0.2,0.4-0.4,0.7-0.6,1.1c-0.1,0-0.2,0-0.3,0c0.2-0.7,0.3-1.4,0.4-2.1c0.4-1.9,0.9-3.7,1.5-5.5c0.5-1.8,1.3-3.6,2.1-5.3
				C79.7,95.8,80,95.4,80.3,95z"/>
			<path class="st13" d="M96.2,95.5c0.6-0.1,1.3,0,1.9,0c0.7,0,1.3,0.3,2,0.4c0.8,0.2,1.7,0.4,2.5,0.6c0.3,0.1,0.7,0.1,1,0.3
				c-2.5-0.2-4.9-0.6-7.4-1C96.1,95.8,96.2,95.6,96.2,95.5z"/>
			<path class="st5" d="M92.8,96.8c0.3-0.1,0.6,0,0.9,0.1c1.6,0.4,3.2,0.7,4.8,1.1c3,0.6,6.1,0.8,9.2,0.8c0,0.2,0.1,0.6-0.1,0.7
				c-0.5,0.3-1,0.8-1.6,0.9c-1.9,0.5-3.8,0.5-5.7,0.6c-0.5,0-1.1,0.1-1.6,0c-0.4,0-0.7-0.4-1.1-0.4c-1.6-0.1-3-0.9-4.2-2
				C92.9,98.1,92.5,97.4,92.8,96.8z"/>
			<path class="st5" d="M79.1,111.5c0.3,0,0.7-0.1,0.9,0.3c0.1,0.4-0.3,0.8-0.5,1.1c-1.2,1.1-2.3,2.1-3.5,3.1
				c-0.4,0.3-0.9,0.5-1.4,0.7c-0.4,0.1-0.8-0.2-0.8-0.6c0-0.6,0.2-1.3,0.2-1.9c0.1-0.4,0-1,0.4-1.3c0.4-0.4,1.1-0.3,1.6-0.6
				C77,111.9,78.1,111.6,79.1,111.5z"/>
			<path class="st14" d="M72.2,120.6c0.8-0.1,1.6,0,2.4,0c-0.3,0.1-0.7,0.1-1,0.2c0.1,0.1,0.1,0.2,0.2,0.3c-0.6-0.1-1.1-0.1-1.7-0.3
				C72.1,120.7,72.1,120.6,72.2,120.6z"/>
			<path class="st13" d="M74.5,120.5c0.8-0.1,1.6,0,2.3,0c1,0.1,2.1,0.3,3.1,0.7c0.5,0.2,1,0.3,1.4,0.5c-0.1,0.3-0.5,0.2-0.7,0.2
				c-2.3-0.4-4.6-0.6-6.9-0.9c-0.1-0.1-0.1-0.2-0.2-0.3C73.9,120.7,74.2,120.6,74.5,120.5z"/>
			<path class="st5" d="M70.2,123.9c0.8-0.1,1.7-0.4,2.5-0.5c2.8-0.1,5.6,0.7,8.5,0.9c0.9,0.1,1.9,0,2.7,0.3c1.2,0.5,2.4,1,3.4,1.6
				c-0.1,0.6-0.5,1.1-0.9,1.6c-0.1,0.2-0.3,0.4-0.6,0.4c-1.1-0.1-1.9-0.8-3-0.8c-1.5,0-2.9-0.4-4.4-0.2c-1.4,0.2-2.9,0.4-4.3,0.6
				c-0.6,0.1-1.4,0.1-1.9-0.3c-0.3-0.4-0.4-0.9-0.7-1.2C70.9,125.6,70.3,124.8,70.2,123.9z"/>
			<path class="st15" d="M74.4,137.4c0.7-0.2,1.4-0.2,2.1-0.1c0.8,0.1,1.7,0.2,2.5,0.5c0.2,0.1,0.1,0.3,0.2,0.4
				c-0.6,0-1.2-0.1-1.8-0.1c-1,0-1.9,0-2.9,0.2c-0.3,0.1-0.7,0.2-1,0C73.6,137.8,74,137.5,74.4,137.4z"/>
			<path class="st5" d="M65,140.8c2.8,1.1,5.5,2.5,8.5,2.6c0.8,0,1.6,0,2.4,0.2c1.6,0.2,3.3-0.1,4.9,0c1.3,0,2.6-0.1,3.9-0.3
				c0.8-0.1,1.6,0,2.4-0.2c0.9-0.2,1.8-0.3,2.6-0.5c0.7-0.2,1.5-0.4,2.2-0.1c-0.5,0.8-1.2,1.5-1.8,2.3c-1.4,1.8-2.9,3.5-4.5,5.2
				c-1,1-1.8,2.1-2.9,3c-0.4,0.3-0.7,0.8-1.2,1c-0.5,0.2-1,0-1.4-0.3c-0.4-0.3-0.6-0.8-1-1.2c-1.9-1.2-3.5-2.8-5.4-4.1
				c-0.8-0.5-1.4-1.1-2.2-1.7c-0.4-0.4-0.9-0.7-1.3-1.1c0.1-0.1,0.2-0.1,0.3-0.2c-0.4,0.1-0.7-0.2-1-0.4c-0.9-0.7-1.8-1.3-2.6-2.1
				c-0.6-0.6-1.3-1.1-1.9-1.6C65,141.1,65,141,65,140.8z"/>
		</g>
		<g>
			<path class="st1" d="M61.4,79.4c0.6-0.9,1.6-1.5,2.7-1.7c1.8-0.2,3.6,0,5.3,0.5c2.5,0.8,4.7,2.1,6.9,3.4c0.8,0.5,1.6,0.9,2.3,1.5
				c0.6,0.7,1.5,1.2,2.2,1.8c0,0.1,0,0.2,0,0.3c-0.6,0.3-1.2,0.7-1.9,0.8c-0.6,0.1-1.2,0-1.8-0.1c-1.2-0.2-2.4-0.6-3.6-1
				c-1-0.3-2-0.8-3-1.2c-2-0.9-4.2-1.5-6.5-1.7c-0.8-0.1-1.6,0.3-2.4,0.3c-0.4,0-0.7-0.4-0.7-0.8C61.1,80.9,61.3,80.2,61.4,79.4z"/>
			<path class="st16" d="M51.6,83.6c0.2,0,0.4-0.1,0.6-0.1c0.4,0.2,0.7,0.5,0.9,0.8c0.6,0.7,1,1.6,1.4,2.5c0.6,1.2,1.1,2.5,1.5,3.9
				c0.2,0.7,0.5,1.3,0.4,2c-0.3,0.1-0.7,0.1-0.8-0.3c-0.7-2.1-1.7-4-2.8-5.9c-0.4-0.6-0.8-1.3-1.1-1.9
				C51.6,84.2,51.6,83.9,51.6,83.6z"/>
			<path class="st1" d="M104.8,84.6c0.8,0,1.6-0.2,2.4-0.1c1.2,0.1,2.6,0.2,3.7,0.8c1,0.6,2,1.3,2.3,2.5c0.2,0.7,0.4,1.4,0.3,2.1
				c-0.5,0-0.9,0.4-1.4,0.3c-1.1-0.2-2.1-0.6-3.2-0.8c-1.4-0.3-2.9-0.4-4.4-0.6c-1.6,0-3.2-0.1-4.8-0.2c-1.8-0.3-3.8-0.3-5.5-1.2
				c-0.4-0.2-0.8-0.8-0.4-1.2c0.5-0.3,1-0.5,1.6-0.5c0.8,0.1,1.6-0.3,2.4-0.4C100.2,85.1,102.5,84.9,104.8,84.6z"/>
			<path class="st17" d="M69,88.4c0.5-0.1,0.9,0.3,1.2,0.6c0.4,0.5,0.2,1.2,0.1,1.7c-0.1,0.6-0.3,1.2-0.8,1.6
				c-0.3,0.3-0.9,0.2-1.2-0.1C67.4,91.1,67.8,89.1,69,88.4z"/>
			<path class="st17" d="M104.8,92.2c0.5-0.3,1.2,0,1.4,0.6c0.3,0.8,0.1,1.8-0.4,2.5c-0.3,0.5-1,0.7-1.5,0.5
				c-0.6-0.3-0.7-1.1-0.6-1.7C104,93.3,104.2,92.5,104.8,92.2z"/>
			<path class="st18" d="M93.3,98.5c0.1,0,0.2-0.1,0.3-0.1c0.4,0.4,1,0.4,1.3,0.9c0.9,0.9,2,1.3,3.2,1.5c1.5,0.3,3.1,0.1,4.6-0.2
				c0.6-0.1,1.2-0.3,1.9-0.3c0,0.1,0,0.2,0,0.4c-1.4,0.7-2.9,0.8-4.4,1.1c-1.6,0.3-3.2,0.1-4.7-0.7c-0.9-0.4-1.5-1.2-1.9-1.9
				C93.4,99,93.4,98.7,93.3,98.5z"/>
			<path class="st16" d="M127.2,89.9c-0.3-0.1-0.7-0.1-1.1,0c-1.1,0.3-2.1,1-3,1.7c-1.8,1.2-3.2,2.9-4.4,4.7
				c-0.5,0.8-1.1,1.5-1.6,2.4c-0.5,0.5-0.8,1.2-1.2,1.8c-0.2,0.3-0.3,0.6-0.3,0.9c0.2,0,0.4-0.1,0.6-0.3c0.4-0.5,0.8-1.1,1.1-1.7
				c0.7-0.9,1.3-1.8,2.1-2.6c1.6-1.9,3.4-3.7,5.6-5c0.7-0.4,1.5-0.7,2.2-1.1C127.2,90.3,127.2,90.1,127.2,89.9z"/>
			<path class="st19" d="M75.3,118.2c2-0.2,4,0.1,5.8,0.8c1.2,0.5,2.4,1,3.7,1.5c0.8,0.3,1.5,0.7,2.3,1c1,0.3,2,0.5,2.9,0.9
				c-1.1,0.3-2.3,0-3.3-0.4c-1.3-0.4-2.7-0.9-4.1-1.2c-2.3-0.6-4.5-1.6-6.9-1.3c-1.5,0.2-2.9,0.4-4.4,0.4c-1.2,0-2.5,0.1-3.7-0.3
				c0-0.1,0-0.3,0-0.4c1.8-0.1,3.5-0.3,5.3-0.6C73.7,118.4,74.5,118.3,75.3,118.2z"/>
			<g>
				<path class="st20" d="M102.6,70.7c-0.4-0.3-0.9-0.4-1.4-0.6c-1.1-0.4-2.2-0.9-3.4-1.1c-1.1-0.2-2.3-0.3-3.5-0.2
					c-0.9,0.1-1.8,0.2-2.7,0.4c-0.7,0.1-1.4,0.2-2.1,0.1c-0.9-0.1-1.6-0.5-2.4-0.9c-0.6-0.3-1.3-0.4-1.9-0.5c-1.1-0.1-2.1-0.1-3.2,0
					c-1.3,0.1-2.6,0.1-3.9,0.1c0.4,0.2,0.8,0.4,1.3,0.5c1.8,0.3,3.6-0.1,5.4,0.1c0.7,0.2,1.4,0.2,2,0.5c1,0.5,2,1,3.1,1
					c1.4,0.1,2.6-0.4,4-0.4c2,0,4,0.5,5.9,0.9c1,0.2,2,0.6,3,0.6C102.8,70.9,102.8,70.8,102.6,70.7z"/>
				<path class="st20" d="M97.5,72c-2.1-0.6-4.3-1.2-6.5-1c-1.2,0.1-2.4,0.3-3.5-0.1c-1-0.2-1.9-0.7-3-0.7c-0.7-0.2-1.4-0.1-2.1-0.1
					c-1.4,0-2.8,0.6-4.1,1c0.8,0.1,1.6,0,2.4-0.2c1.1-0.3,2.2-0.2,3.3-0.1c1.5,0.4,2.9,1.2,4.5,1.3c1.2,0.1,2.3-0.3,3.5-0.3
					c1.7,0,3.3,0.4,4.9,0.9c1.6,0.4,3.3,0.9,4.9,0.6c0-0.1,0-0.3,0-0.4C100.3,73,98.8,72.4,97.5,72z"/>
				<path class="st20" d="M85,75.1c-0.3,0.3-0.3,0.8-0.5,1.2c-0.3,1-0.5,2-0.5,3c0,0.7-0.1,1.3,0,2c-0.1,0.9,0,1.8,0.3,2.7
					c0.1,0,0.3,0,0.4,0c0-0.9,0.1-1.7,0-2.6c0.1-1.7,0.3-3.5,0.6-5.2c0.1-0.3,0.1-0.6,0.1-0.9C85.4,75,85.2,75,85,75.1z"/>
				<path class="st20" d="M87.7,76.7c-0.7,2.3-0.6,4.7-0.6,7.1c0,0.4-0.1,0.8,0.1,1.1c0.1,0.1,0.2,0.1,0.3,0.2c0-0.4,0-0.8,0-1.2
					c0.1-0.7,0.1-1.3,0.1-2c0.1-1.3,0.2-2.6,0.4-4c0.1-0.9,0.4-1.8,0.3-2.7C88,75.7,87.8,76.2,87.7,76.7z"/>
				<path class="st20" d="M73.2,96.2c-0.5,0-0.9,0.3-1.4,0.1c0-0.1,0-0.3,0-0.4c-0.6,0.3-1.3,0.5-1.9,0.8c-1.5,0.3-3.1,0-4.4-0.9
					c-0.4-0.3-0.7-0.7-1.1-0.9c-0.2-0.1-0.5-0.1-0.7,0.1c0.3,0.8,0.8,1.6,1.6,2c1.1,0.7,2.5,1.1,3.8,0.7c1.1-0.3,2.3-0.4,3.4-0.9
					C72.7,96.7,73,96.5,73.2,96.2z"/>
				<path class="st20" d="M74.8,104.5c0.1-0.4,0.3-0.8,0.4-1.2c0.5-1.8,1.1-3.6,1.7-5.4c0.5-1.6,1.2-3.1,1.8-4.6
					c0.6-1.5,1.2-3.1,1.9-4.5c0.4-0.8,0.9-1.7,0.8-2.6c-0.2,0-0.3,0-0.5,0c-0.5,1-0.9,2-1.3,2.9c-0.6,1.1-1,2.4-1.6,3.5
					c-0.9,2-1.7,4-2.4,6.1c-0.5,1.7-1,3.4-1.6,5.1c-0.7,2.3-1.5,4.6-1.5,7c0,0.7,0.2,1.4,0.9,1.7c1,0.6,2.3,0.3,3.4,0.1
					c1.4-0.2,2.7-0.7,4-1.3c0-0.1,0-0.2,0-0.3c-0.6,0.1-1.1,0.2-1.7,0.3c-1.1,0.3-2.2,0.3-3.3,0.4c-0.6,0-1.2,0-1.8-0.3
					c-0.3-0.1-0.3-0.4-0.3-0.7c0-1.1,0.1-2.1,0.3-3.2C74.2,106.5,74.6,105.5,74.8,104.5z"/>
				<path class="st20" d="M61.5,107.2c-0.3-0.5-0.4-1.1-0.7-1.7c-0.2,1.2,0.4,2.3,0.7,3.4c0.4,1.6,1.2,3.1,1.5,4.7
					c0.2,0,0.5,0,0.7,0c-0.2-1.1-0.7-2.1-1-3.1C62.3,109.4,62,108.3,61.5,107.2z"/>
				<path class="st20" d="M68,113.7c-1.3,2.1-2.2,4.3-2.9,6.7c-0.4,1.3-0.5,2.6-0.5,4c-0.1,1.1,0,2.2,0.2,3.2c0.2,0,0.3,0,0.5,0
					c0-1.1,0-2.3,0-3.4c0-0.3,0.1-0.5,0.1-0.8c0.2-1.8,0.7-3.5,1.3-5.1c0.7-1.7,1.6-3.3,2.6-4.9c0.6-1.1,1.3-2.1,1.6-3.3
					c-0.1,0-0.3,0-0.4,0C69.6,111.2,68.8,112.5,68,113.7z"/>
			</g>
			<g>
				<path class="st20" d="M104,110.1c-0.9,0.9-1.8,1.8-2.5,2.8c-0.9,1.2-1.6,2.5-2.3,3.8c-0.4,0.8-0.9,1.6-1.1,2.5
					c0.2,0,0.4-0.1,0.5-0.3c0.5-0.9,1-1.9,1.6-2.8c1.1-1.8,2.7-3.3,4.1-5c0.4-0.5,0.8-1.1,0.8-1.8
					C104.6,109.3,104.3,109.8,104,110.1z"/>
				<path class="st20" d="M90.8,113.4c-0.2-0.6-0.3-1.2-0.6-1.7c-0.1-0.2-0.3-0.2-0.4-0.3c-0.2,0.7-0.1,1.5,0.1,2.2
					c0.3,1.2,0.6,2.4,0.9,3.6c0.4,1.5,0.6,3.1,0.8,4.6c0.1,0.9,0.1,1.8,0.2,2.6c0,1.1,0,2.2-0.1,3.3c-0.1,1.2-0.3,2.3-0.3,3.4
					c0.1,0,0.3,0,0.4,0c0.4-1.7,0.7-3.3,0.8-5.1c0.6-2.9,0.3-5.9-0.4-8.8C91.8,116,91.3,114.7,90.8,113.4z"/>
				<path class="st20" d="M83.5,127.3c-1.6-0.6-3.2-1.2-4.9-1.1c-1.7,0.1-3.3,0.6-4.9,1c-0.4,0.1-0.7,0.2-1,0.4
					c0.2,0.1,0.4,0.2,0.7,0.3c0.7,0,1.4,0,2.1-0.1c1.4-0.2,2.9-0.7,4.3-0.6c1.6,0.1,3.1,0.7,4.7,1.1c0.4,0.3,0.9,0.5,1.4,0.6
					c0-0.1,0-0.3,0-0.4c-0.3-0.3-0.7-0.4-1-0.5C84.5,127.6,83.9,127.5,83.5,127.3z"/>
			</g>
			<path class="st21" d="M107.2,134.7c1.1-0.3,2.3-0.5,3.4,0c0.7,0.3,1.4,0.8,1.9,1.4c0.2,0.2,0.1,0.5,0.1,0.7
				c-0.5-0.2-0.8-0.5-1.3-0.7c-1.3-0.6-2.8-0.7-4.1-0.1c-1,0.4-1.6,1.2-2.3,1.9c-0.7,0.6-1,1.5-1.4,2.4c-1,2.3-1.8,4.6-3,6.8
				c-1.3,2.6-2.9,5.1-4.4,7.6c-1.5,2.9-3.3,5.6-5.3,8.2c-0.9,1.1-1.6,2.4-2.1,3.7c-0.6,1.8-1,3.7-1.7,5.6c-0.8,2.3-1.5,4.6-2.2,7
				c-1.1,4-2.5,7.9-4,11.8c-0.3,0.7-0.5,1.4-0.7,2.2c-0.3,1.7-0.8,3.4-0.8,5.2c0,0.3,0,0.7,0,1c-0.2-0.6-0.2-1.2-0.2-1.7
				c0-0.6-0.1-1.2-0.2-1.8c-0.1-0.6,0-1.2,0-1.8c0.1,0.5,0.1,0.9,0.1,1.4c0.2-0.8,0.2-1.7,0.4-2.5c0.6-3.4,2.3-6.4,3.4-9.6
				c0.6-1.6,1-3.3,1.4-4.9c0.7-2.3,1.3-4.7,2.1-7c0.8-2.3,1.2-4.8,2.5-7c0.4-0.7,0.9-1.4,1.4-2.1c1.5-2,2.9-4.1,4.1-6.3
				c0.8-1.4,1.5-2.8,2.3-4.2c0.7-1.1,1.3-2.4,1.9-3.6c1-1.8,1.9-3.7,2.7-5.7c0.6-1.4,1.2-2.8,2-4.2c0.5-0.7,0.8-1.5,1.4-2.1
				C105.4,135.6,106.2,135,107.2,134.7z"/>
			<path class="st21" d="M52.8,142.3c0.8,0,1.7-0.2,2.3,0.5c0.4,0.6,1,1.2,1.4,1.8c0.6,1.1,1.2,2.3,1.7,3.4c0.6,1.3,1.4,2.6,2.1,3.9
				c1.1,1.8,1.9,3.8,3.1,5.6c0.7,1,1.4,1.9,2.1,2.8c0.5,0.7,1.1,1.5,1.6,2.3c0.6,1.1,1,2.2,1.6,3.3c1.2,2.4,1.9,5,3.1,7.4
				c1,2.2,2,4.5,2.6,6.9c0.4,1.5,0.7,3,1.4,4.4c0.4,0.8,0.7,1.6,1,2.5c0.8,2.3,1.9,4.5,2.4,6.8c-0.1,0.6-0.2,1.2,0,1.8
				c0.1,0.6,0.2,1.2,0.2,1.8c0,0.6,0,1.2,0.2,1.7c0.2,1.5,0.1,2.9,0,4.4c-0.1,1.8-0.3,3.6-0.7,5.3c-0.2,1.2-0.5,2.4-0.7,3.6
				c-0.6,3.1-0.6,6.3-0.4,9.4c0,2.6,0.3,5.2,0,7.8c-0.2,1.6-0.1,3.2,0,4.8c0,0.4,0.2,0.8,0,1.1c-0.2,0.2-0.6,0.1-0.7-0.1
				c-0.4-1-0.2-2.1-0.4-3.2c-0.2-1.9,0.3-3.7,0.1-5.6c0-1.9-0.2-3.8-0.2-5.7c-0.2-2.9-0.1-5.8,0.4-8.7c0.1-1.2,0.4-2.4,0.6-3.6
				c0.6-3.2,0.8-6.4,1-9.6c0-0.4,0.1-0.8,0.1-1.2c0.2-1-0.1-1.9-0.3-2.9c-0.1-1-0.6-1.8-0.9-2.7c-0.5-1.6-1.2-3.1-1.8-4.6
				c-0.3-0.8-0.6-1.6-1-2.3c-1.1-2.2-1.4-4.7-2.2-7c-0.8-2.5-2-4.8-3-7.3c-0.4-1.1-0.8-2.2-1.3-3.3c-0.4-1-0.9-1.9-1.4-2.9
				c-0.5-1.1-1-2.2-1.7-3.2c-0.6-0.9-1.2-1.9-1.9-2.8c-0.8-1.1-1.7-2.1-2.3-3.2c-0.4-0.8-0.9-1.6-1.2-2.4c-0.6-1.2-1.3-2.3-1.9-3.4
				c-0.7-1.2-1.1-2.5-1.8-3.8c-0.5-0.9-0.9-1.9-1.5-2.7c-0.6-0.3-1.5-0.3-2-0.8C52.8,142.7,52.8,142.5,52.8,142.3z"/>
			<path class="st22" d="M88.3,161.8c-1.2-1.6-2.3-3.3-3.6-4.9c-0.7-0.9-1.7-1.6-2.6-2.4c-0.4-0.3-0.8-0.7-1.3-0.6
				c-0.6,0-0.9,0.5-1.3,0.9c-2.4,2.4-4.5,5.1-6.4,8c-0.6,0.6-1.1,1.4-1.6,2.2c-0.4,0.7-1,1.3-1.3,2.1c0.6-0.2,0.8-0.8,1.2-1.2
				c0.7-0.9,1.5-1.8,2.1-2.8c2.4-2.8,4.8-5.7,7.4-8.4c0.5,0.6,1.1,1.1,1.7,1.6c0.9,0.8,1.6,1.8,2.4,2.7c1.3,1.4,2.5,3,3.8,4.4
				c0.1,0.2,0.4,0.1,0.6,0.1C89.2,163,88.6,162.4,88.3,161.8z"/>
		</g>
	</g>
</g>
</svg>
