<?xml version="1.0" encoding="utf-8"?>
<!-- Generator: Adobe Illustrator 25.2.0, SVG Export Plug-In . SVG Version: 6.00 Build 0)  -->
<svg version="1.1" id="Layer_1" xmlns="http://www.w3.org/2000/svg" xmlns:xlink="http://www.w3.org/1999/xlink" x="0px" y="0px"
	 viewBox="0 0 180 180" style="enable-background:new 0 0 180 180;" xml:space="preserve">
<style type="text/css">
	.st0{clip-path:url(#SVGID_2_);}
	.st1{fill:#CEB68B;}
	.st2{fill:#FBBB9E;}
	.st3{fill:#F2844F;}
	.st4{fill:#EE5E2E;}
	.st5{fill:#D0B991;}
	.st6{fill:#D2BC95;}
	.st7{fill:#CFB88E;}
	.st8{fill:#D1BB93;}
	.st9{fill:#FCB796;}
	.st10{fill:#98835E;}
	.st11{fill:#B65A35;}
	.st12{fill:#FDD1BC;}
	.st13{fill:#B85E3B;}
	.st14{fill:#150F0C;}
	.st15{fill:#B95D38;}
	.st16{fill:#CC492F;}
	.st17{fill:#F95939;}
	.st18{fill:#A43F29;}
	.st19{fill:#FCA784;}
	.st20{fill:#B9613E;}
	.st21{fill:#FDC3A7;}
	.st22{fill:#BC6746;}
	.st23{fill:#62715B;}
</style>
<g>
	<defs>
		<rect id="SVGID_1_" width="180" height="180"/>
	</defs>
	<use xlink:href="#SVGID_1_"  style="overflow:visible;fill:#713DE2;"/>
	<clipPath id="SVGID_2_">
		<use xlink:href="#SVGID_1_"  style="overflow:visible;"/>
	</clipPath>
	<g class="st0">
		<g>
			<path class="st1" d="M81.5,19.3c1-0.3,2-0.4,3-0.3c1.8,0.1,3.6,0.4,5.3,1c2.8,1,5.4,2.3,7.8,4.1c0.7,0.5,1.3,1.1,1.7,1.8
				c0.3-0.9,1.1-1.5,2-1.6c2-0.2,4,0.5,5.8,1.5c1.4,0.9,2.8,2,3.8,3.3c1.3,1.5,2.2,3.3,3,5.1c0.6,1.4,1.1,3,1.4,4.5
				c0.1,0.7,0.1,1.4,0.1,2.1c0,0.5-0.3,1-0.4,1.5c0.1,0.3,0.3,0.6,0.5,0.8c0.7,0.8,1.3,1.5,2,2.3c1.5,1.6,2.9,3.4,4.1,5.3
				c0.4,0.6,0.9,1.1,1.5,1.5c1.1,0.8,1.8,1.9,2.3,3.1c0.6,1.1,1.3,2.1,1.7,3.3c0.5,1.5,0.9,3.1,0.8,4.7c0,1.2,0,2.5-0.1,3.7
				c-0.2,1.8-0.8,3.5-0.9,5.2c0,1.3-0.1,2.6-0.1,3.9c-0.2,2.1-0.4,4.2-0.9,6.3c-0.2,1.1-0.7,2.1-0.7,3.2c0.2,1,0.8,1.8,1.2,2.7
				c0.7,1.6,0.6,3.3,0.2,5c-0.6,2.2-1.8,4.2-3.1,6c-1.2,1.7-2.8,3.2-4.2,4.7c-1.4,1.3-2.7,2.6-4.2,3.7c-1,0.7-2,1.3-3.1,1.8
				c-1.7,0.8-3.4,1.8-5.2,2.4c-1.5,0.5-3.1,0.9-4.6,1.3c-3.5,0.7-7.1,1-10.6,0.8c-3.3-0.1-6.6-0.3-9.9-1c-3.1-0.6-6.1-1.5-8.9-2.9
				c-1.6-0.8-3.2-1.7-4.7-2.8c-1.6-1.1-3-2.4-4.4-3.7c-1.6-1.6-3.1-3.2-4.2-5.2c-1.1-1.9-2-4.1-2.1-6.3c0-1.3,0-2.6-0.1-3.9
				c-0.2-1.9-0.5-3.7-0.8-5.6c-0.5-2.5-0.9-4.9-1.2-7.4c-0.1-1-0.1-1.9-0.1-2.9c0.1-2.1,0.1-4.2,0.8-6.2c0.3-0.9,0.8-1.7,1.3-2.5
				c0.8-1.3,2-2.2,3.1-3.2c1-0.9,2.1-1.6,3-2.6c-1.6-0.9-3.2-1.8-4.4-3.1c-1.1-1.2-1.9-2.6-2.6-4.1c-0.5-1.3-0.9-2.7-0.5-4
				c0.5-2,1.7-3.8,3.1-5.2c1-1,2.2-1.9,3.4-2.6c0.9-0.5,2-0.9,3.1-0.9c-0.4-0.8-0.7-1.6-0.8-2.4c-0.3-3.1,0.9-6.4,3.1-8.6
				c1-0.9,2.1-1.5,3.4-2c1.7-0.7,3.5-1.1,5.4-1.4c0.9-0.1,1.7,0,2.6,0.1c-0.1-0.9-0.1-1.9,0.4-2.8C79.9,20.2,80.7,19.6,81.5,19.3z"
				/>
			<path class="st2" d="M15.7,230.3h153c-0.2-1.8-0.4-3.7-0.7-5.5c-0.3-2-0.6-4-1-5.9c-0.3-1.5-0.7-2.9-1.1-4.4
				c-0.4-1.4-1-2.7-1.6-4.1c-0.4-1-0.9-1.9-1.4-2.8c-1-1.9-2.1-3.7-3.4-5.4c-1-1.5-2.1-2.9-3.2-4.3c-0.9-1.1-1.8-2.1-2.7-3.1
				c-1.3-1.3-2.5-2.7-3.8-4c-1.5-1.5-3-3-4.5-4.6c-1.9-1.9-3.7-3.9-5.6-5.8c-1.2-1.2-2.4-2.3-3.6-3.5c-1-0.9-2.1-1.7-3.1-2.6
				c-1.6-1.4-3.3-2.6-4.8-4.1c-0.6-0.6-1.2-1.2-1.8-1.7c-1.1-0.9-2.3-1.6-3.4-2.4c-0.6-0.4-1.4-0.7-2.2-0.6c-0.3,0.1-0.6,0.3-1,0.3
				c-4.3,0.5-8.6,1.2-12.8,1.7c-3.3,0.4-6.5,0.7-9.8,1c-6,0.6-12,1-18,1.2c-1.6,0.1-3.1,0-4.7,0c-1.1-0.1-2.2,0-3.3-0.1
				c-1.9-0.1-3.8,0-5.6,0.1c-2.8,0.3-5.8,0-8.5,0.8c-0.4,0.1-0.9,0.4-1.3,0.2c-0.5-0.2-0.9,0-1.3,0.2c-0.8,0.3-1.5,0.8-2.2,1.3
				c-1.9,1.3-3.9,2.5-5.8,3.8c-1.8,1.3-3.4,2.7-5.2,4c-1.7,1.3-3.3,2.7-4.8,4.2c-1.6,1.6-3.3,3.2-4.9,4.8c-1.5,1.6-3,3.3-4.3,5
				c-1.5,1.8-3,3.6-4.3,5.6c-1.1,1.7-2.2,3.5-2.9,5.4c-0.9,2.2-1.6,4.5-2.2,6.8c-0.6,2.4-1.2,4.9-1.5,7.4c-0.2,1.6-0.4,3.2-0.5,4.8
				c-0.1,1.3-0.1,2.6-0.1,3.9C15.8,228.7,15.8,229.5,15.7,230.3z"/>
		</g>
		<g>
			<path class="st3" d="M80.6,56.9c1-0.5,2.1-0.8,3.2-0.8c0.7,0,1.3,0.2,2,0.3c0.9,0.2,1.6,0.7,2.3,1.2c0.9,0.7,1.9,1.2,2.8,1.8
				c1.2,0.9,2.8,1.1,4.3,1.2c0.2,0,0.3,0.1,0.4,0.1c0,0.1-0.1,0.2-0.1,0.3c0.6,0.3,1.2,0.6,1.8,1c0.9,0.5,2,0.6,2.9,0
				c1.3-0.8,2-2.2,3.2-3.1c0.9-0.7,2.1-0.9,3.3-0.9c0.7,0,1.4,0.3,2.1,0.6c0.9,0.4,1.8,0.8,2.5,1.4c0.8,0.8,1.5,1.7,1.9,2.8
				c0.7,1.9,0.5,3.9,0.9,5.9c0.3,1.8,0.8,3.7,2,5c1,1.2,2.2,2.2,3,3.6c0.8,1.3,1.3,2.8,1.4,4.4c-0.1,1-0.3,2-0.4,2.9
				c-0.2,1.6,0.4,3.1,0.6,4.6c0.2,1.3,0.2,2.6,0.3,4c-0.5,3.6-0.3,7.2-0.6,10.7c0,1.3-0.1,2.6-0.2,3.9c-0.2,1.5-0.2,2.9-0.4,4.4
				c-0.1,0.3,0,0.7,0,1c-0.1,0.8-0.4,1.5-0.7,2.3c-0.9,2.5-2.5,4.7-3.8,7c-0.7,1.1-1.3,2.3-2.2,3.3c-0.2,0.3-0.4,0.6-0.6,0.8
				c-0.4,0.3-0.7,0.8-0.9,1.2c-1.3,1.9-2.7,3.8-4.2,5.6c-1.2,1.7-2.7,3.3-4.4,4.6c-1.8,1.4-3.7,2.9-5.8,3.7
				c-0.7,0.3-1.4,0.3-2.1,0.4c-1.1,0.1-2.2,0.3-3.3,0.2c-1.7,0-3.4-0.2-5.1-0.3c-1.3-0.1-2.5-0.5-3.7-0.8c-1.4-0.3-2.7-1.2-3.8-2
				c-1.7-1.2-3.3-2.6-4.9-4c-0.8-0.6-1.4-1.4-2.1-2.1c-1.8-1.9-3.6-3.8-5.3-5.7c-0.2-0.1-0.3-0.4-0.6-0.3l-0.1,0
				c-0.5-1.1-1.4-2-2-3.1c-0.9-1.6-1.6-3.4-2.2-5.1c-0.7-1.9-1-3.9-1.2-5.9c0.2-0.8,0.2-1.7,0.3-2.6c0.3-2.2,0.5-4.4,0.5-6.6
				c0-2,0-3.9,0-5.9c0-1.8-0.2-3.5-0.3-5.3c-0.1-0.9-0.2-1.8-0.3-2.7c0,0.1-0.1,0.3-0.1,0.4c-0.1-1.9,0.1-3.8,0.3-5.7
				c0.4-2.9,1.2-5.8,1.2-8.7c0.1-1.1,0.1-2.1,0.4-3.2c0.1-0.5,0.5-1,0.9-1.2c1.1-0.6,2.3-0.8,3.4-1.2c1.5-0.6,2.9-1.9,3.4-3.5
				c0.5-1.3,0.9-2.7,1.6-3.9c0.6-1,1.2-2,2-2.7c0.5-0.4,1.1-0.5,1.7-0.8C77.4,59.1,78.9,57.8,80.6,56.9z"/>
			<path class="st4" d="M128.4,87c1.3-0.2,2.7,0.4,3.7,1.2c1.2,1,1.5,2.6,1.8,4c0.3,2.9,0.1,6-1,8.7c-0.6,1.7-1.6,3.2-2.7,4.6
				c-1.4,1.8-3.2,3.3-5,4.8c-1.4,1.1-3,2.2-4.7,2.7c-0.2,0.1-0.5,0.1-0.7,0.3c0-0.3,0-0.7,0-1c0.2-1.5,0.2-2.9,0.4-4.4
				c0.1-1.3,0.2-2.6,0.2-3.9c0.3-3.6,0-7.2,0.6-10.7c0.1-0.3,0.3-0.6,0.5-0.9c0.9-1.3,1.8-2.5,3-3.6C125.6,88,126.9,87.2,128.4,87z"
				/>
			<path class="st4" d="M48.9,89.1c1.3-1.5,3.5-2.3,5.4-1.8c1,0.2,1.9,0.8,2.7,1.3c0.7,0.4,1.4,0.9,2,1.5c0.6,0.6,1.3,1.1,1.7,1.9
				c0-0.4-0.1-0.8-0.1-1.3c0-0.1,0.1-0.3,0.1-0.4c0.2,0.9,0.3,1.8,0.3,2.7c0.1,1.8,0.3,3.5,0.3,5.3c0,2,0,3.9,0,5.9
				c0.1,2.2-0.2,4.4-0.5,6.6c-0.1,0.9-0.1,1.7-0.3,2.6c-0.1-0.7-0.2-1.3-0.3-2c-1.2,0-2.4-0.5-3.4-1c-1.2-0.6-2.2-1.3-3.2-2.2
				c-1.1-1-2-2.1-3-3.3c-1.2-1.5-2.2-3.3-3-5.1c-0.4-0.9-0.7-2-0.9-3c-0.2-0.9-0.1-1.9,0-2.8C47,92.2,47.7,90.5,48.9,89.1z"/>
			<path class="st4" d="M94.9,118.1c0.7-0.4,1.3-0.9,2.1-0.9c0.4,0.1,0.3,0.6,0.2,0.9c-0.8,1.3-1.6,2.5-2.8,3.5
				c-0.8,0.8-1.7,1.7-2.9,2c-0.5,0.1-0.9-0.4-1.3-0.6c-0.7-0.4-1-1.2-1.5-1.8c-0.8-1-1.4-2.1-2-3.2c-0.1-0.2,0-0.5,0-0.7
				c0.6-0.1,1.2,0.2,1.7,0.4c1.3,0.5,2.6,1.1,3.9,1.4C93.3,119.3,94.1,118.5,94.9,118.1z"/>
			<path class="st4" d="M111.5,128.1c0.3-0.4,0.5-0.9,0.9-1.2c0.1,0.7,0.1,1.4,0.1,2c-0.5,0.9-1.2,1.8-1.8,2.6
				c-1.1,1.7-6.2,9.3-7.6,11.5c-1.2,2-2.6,3.8-4.1,5.6c-1.1,1.4-2.4,2.7-3.5,4.1c-0.8,1-1.8,1.8-2.8,2.6c-1.9,1.5-4,2.6-6.4,2.9
				c-1.1,0.2-2.1,0.1-3.2,0.1c-2.2,0-4.4-0.5-6.6-1c-1.4-0.5-2.9-0.8-4.3-1.2c-1.3-0.2-2.6-0.3-3.9-0.2c-0.8,0.1-1.6,0.2-2.4,0.4
				c1.3-2.6,1.7-5.6,2.1-8.5c0.2-1.5,0.2-3.1,0.2-4.6c0-2.7-0.1-5.4-0.4-8.1c-0.4-2.6-0.4-5.4-1.6-7.8c0.2,0,0.4,0.2,0.6,0.3
				c1.7,1.9,3.5,3.8,5.3,5.7c0.7,0.7,1.3,1.5,2.1,2.1c1.6,1.4,3.2,2.8,4.9,4c1.2,0.9,2.4,1.7,3.8,2c1.2,0.3,2.4,0.7,3.7,0.8
				c1.7,0.1,3.4,0.3,5.1,0.3c1.1,0,2.2-0.1,3.3-0.2c0.7-0.1,1.5-0.1,2.1-0.4c2.2-0.9,4-2.3,5.8-3.7c1.7-1.3,3.2-2.8,4.4-4.6
				C108.8,131.9,110.2,130.1,111.5,128.1z"/>
			<path class="st3" d="M110.7,131.6c0.6-0.9,1.3-1.7,1.8-2.6c0,3.1-0.1,6.1-0.1,9.2c0,2,0,4.1,0,6.1c0.2,1.7,0.3,3.4,0.7,5.1
				c0.4,1.9,1,3.7,1.7,5.5c0.7,1.5,1.5,2.9,2.3,4.3c0.4,0.8,0.9,1.5,1.4,2.3c0.7,1.2,1.5,2.4,2.3,3.5c0.6,0.8,1.4,1.4,2,2.2
				c0.2,0.3,0.6,0.6,0.5,1.1c-0.1,0.1-0.2,0.1-0.3,0.2c0.1,1.1-0.1,2.2-0.3,3.3c-0.3,1.5-0.8,2.9-1.2,4.4c-0.6,2.3-1.5,4.5-2.2,6.7
				c-0.8,2.4-1.6,4.8-2.5,7.2c-2.7,7-5.8,13.9-9.4,20.4c-1.2,2.2-2.6,4.4-4,6.5c-1.4,2.2-2.9,4.3-4.2,6.5c-0.6,1.1-1.3,2.1-2.1,3.1
				c-0.6,0.8-1.2,1.6-2,2.2c-0.4,0.1-0.9,0.2-1.3-0.2c-1.6-1.2-3.2-2.5-4.6-4c-1.7-1.9-3.5-3.6-5.2-5.4c-1.4-1.5-2.7-3.2-4-4.8
				c-1.6-2.1-3.4-4.1-5.1-6.2c-1.2-1.5-2.4-3-3.7-4.4c-1.3-1.5-2.4-3.1-3.6-4.7c-1.3-1.9-2.6-3.8-3.7-5.8c-1.3-2.1-2.5-4.3-3.8-6.5
				c-0.8-1.5-1.8-3-2.6-4.5c-1-1.9-1.8-3.9-2.6-5.9c-0.4-1.1-0.9-2.2-1.2-3.4c-0.1-0.5-0.2-1-0.2-1.5c0.2-0.4,0.6-0.6,1-1
				c1.5-1.6,3-3,4.4-4.6c0.8-0.9,1.6-1.8,2.4-2.7c0.9-1.1,1.7-2.2,2.5-3.4c0.8-1,1.3-2.1,1.9-3.3c0.8-0.1,1.6-0.3,2.4-0.4
				c1.3-0.2,2.6-0.1,3.9,0.2c1.5,0.3,2.9,0.7,4.3,1.2c2.2,0.5,4.4,1.1,6.6,1c1.1,0,2.1,0,3.2-0.1c2.4-0.3,4.5-1.4,6.4-2.9
				c0.9-0.9,2-1.6,2.8-2.6c1.2-1.4,2.4-2.6,3.5-4.1c1.4-1.8,2.8-3.6,4.1-5.6c1.4-2.2,2.9-4.3,4.3-6.5
				C108.5,134.9,109.6,133.3,110.7,131.6z"/>
			<path class="st4" d="M95,129.7c0.2-0.1,0.5-0.1,0.7-0.1c0,0.1,0,0.2,0,0.3c-0.5,0.2-0.6,0.8-1.1,1.1c-0.7,0.5-1.4,1.1-2.3,1.3
				c-1.1,0.1-2.2,0.3-3.3,0.1c-0.4-0.2-0.5-0.8-0.9-1c-0.5-0.4-1-0.9-1.5-1.4c-0.1-0.1-0.1-0.4,0.1-0.3c0.6,0.1,1.2,0.3,1.8,0.4
				c0.8,0.1,1.7,0.2,2.6,0.2C92.5,130.4,93.9,130.3,95,129.7z"/>
		</g>
		<g>
			<path class="st5" d="M104.9,22c0.8-0.5,1.9-0.4,2.6,0.2c0.7,0.6,0.6,1.8,0.1,2.5c-0.8,1.1-2.4,1.3-3.6,0.7
				c-0.2-0.1-0.2-0.3-0.2-0.4c1,0.1,2,0.3,2.9-0.4c0.5-0.4,0.9-1.4,0.4-1.9c-0.5-0.4-1.4-0.5-1.9,0c-0.4,0.4,0,1.4,0.6,1.1
				c0.5-0.3-0.1-0.7-0.2-1c0.4,0,0.9,0.1,1,0.5c0.4,0.8-0.7,1.5-1.4,1.2C104.2,24.1,104.1,22.6,104.9,22z"/>
			<path class="st6" d="M100.1,22.1c0.9-0.2,2,0.5,1.9,1.5c-0.1,0.8-0.6,1.8-1.5,1.8c0.2-0.7,0.7-1.2,0.8-1.8
				c0.1-0.7-0.7-1.2-1.3-0.9c-0.4,0.2-0.7,0.7-0.4,1c0.2,0.3,0.6,0.2,1,0.2c-0.3,0.6-1.2,0.6-1.5,0C98.6,23.2,99.3,22.3,100.1,22.1z
				"/>
			<path class="st7" d="M126.3,55.1c-0.1-1.3,1.1-2.5,2.4-2.4c1,0.1,1.8,0.9,1.9,1.9c0.1,1.1-0.3,2.4-1.3,3
				c-0.9,0.7-2.2,0.7-3.3,0.2c-0.4-0.2-0.8-0.6-0.8-1.1c0.4,0.1,0.7,0.4,1.1,0.6c0.7,0.3,1.6,0.3,2.3-0.2c0.8-0.5,1.2-1.4,1.1-2.3
				c-0.1-0.8-0.8-1.4-1.6-1.2c-0.7,0.2-1.4,1-1,1.7c0.1,0.4,0.8,0.6,1,0.1c0.2-0.5-0.4-0.6-0.7-0.9c0.1-0.2,0.3-0.3,0.5-0.3
				c0.5,0.1,0.9,0.5,0.9,1c0,0.6-0.5,1.1-1.1,1.1C127,56.5,126.3,55.8,126.3,55.1z"/>
			<path class="st7" d="M56.8,58.5c1-0.8,2.7-0.3,3.2,1c0.3,0.7,0.1,1.5-0.2,2.2c-0.2,0.4-0.5,0.9-1.1,1c0.2-0.8,0.7-1.5,0.7-2.4
				c0-1-1.4-1.7-2.2-1.1c-0.6,0.5-1,1.2-1,2c0,0.5,0.7,0.8,1.1,0.8c0.5-0.1,0.8-0.6,0.9-1c0-0.2,0.1-0.5-0.2-0.6
				c-0.3,0-0.6,0.1-0.8,0.1c0.2-0.2,0.3-0.5,0.6-0.6c0.5-0.1,1,0.2,1.1,0.7c0.1,0.8-0.4,1.7-1.2,2c-0.6,0.2-1.3,0-1.7-0.5
				c-0.4-0.4-0.5-1.1-0.3-1.7C55.7,59.7,56.1,59,56.8,58.5z"/>
			<path class="st7" d="M108.6,61.3c0.8-0.8,1.9-1.4,3.1-1.3c0.3,0,0.3,0.3,0.4,0.5c-1,0-2,0.3-2.7,1c-0.5,0.4-0.8,1.2-0.5,1.8
				c0.2,0.4,0.7,0.8,1.2,0.7c0.3-0.3,0.5-0.9,0.1-1.3c-0.3-0.3-0.8-0.2-1.2-0.1c0.1-0.2,0.1-0.4,0.4-0.5c0.6-0.2,1.4,0,1.7,0.6
				c0.2,0.7,0.1,1.6-0.6,1.9c-0.8,0.3-1.8-0.2-2.2-1C107.8,62.9,108,61.9,108.6,61.3z"/>
			<path class="st8" d="M75.8,62.1c0.2-0.8,1.2-1.3,2-1c0.8,0.2,1.2,1.2,1.1,2c-0.1,0.8-0.6,1.6-1.4,1.9c-1.1,0.5-2.5,0.3-3.4-0.4
				c-0.6-0.5-0.8-1.4-0.7-2.1c0.1-0.1,0.2-0.1,0.4-0.2c0,0.4,0,0.8,0.1,1.2c0.6,1.5,2.9,1.7,3.9,0.6c0.5-0.6,0.6-1.6-0.1-2.1
				c-0.7-0.4-1.6,0.3-1.6,1c0,0.3,0.2,0.6,0.3,0.9C75.7,63.7,75.5,62.7,75.8,62.1z"/>
			<path class="st5" d="M98.1,62c0.6,0,1.2,0.2,1.9,0.2c1.6,0.1,3.1,1.4,3.2,3c0,1-0.7,2.1-1.8,2.3c-0.8,0.1-1.9,0-2.4-0.8
				c-0.4-0.7,0.1-1.6,0.7-2.1c0.3-0.4,0.8-0.5,1.3-0.5c0,0.1,0,0.2,0,0.4c-0.7,0.1-1.3,0.7-1.6,1.3c-0.2,0.3-0.1,0.7,0.2,0.9
				c0.7,0.5,1.8,0.5,2.3-0.2c0.4-0.4,0.6-1.1,0.4-1.6c-0.4-1.1-1.6-1.9-2.7-2.1C99.1,62.8,98.4,62.6,98.1,62z"/>
			<path class="st9" d="M72.1,71.7c0.5-0.3,1.1-0.7,1.7-0.8c0,0.1,0,0.2,0,0.3c-0.6,0.4-1.3,0.8-1.9,1.3c-0.9,0.7-1.7,1.5-2.6,2.2
				c-0.2,0.2-0.4,0.3-0.7,0.3c0-0.5,0.3-0.9,0.7-1.3C70.2,73,71.1,72.3,72.1,71.7z"/>
			<g>
				<path class="st10" d="M85.4,27.1c0.4,0.4,0.5,0.9,1,1.2c-0.2-0.9-0.8-1.5-1.4-2.1c-1.3-1.4-3.1-2.2-5-2.5
					c-0.3-0.1-0.6,0.1-0.8,0.2c0.5,0.3,1,0.3,1.5,0.4C82.4,24.9,84.2,25.6,85.4,27.1z"/>
				<path class="st10" d="M89.4,24.4c0.8-0.1,1.6,0.1,2.2,0.5c0.3,0.2,0.5,0.7,0.9,0.6c-0.2-0.6-0.5-1-1.1-1.3
					c-0.9-0.5-2.2-0.8-3.1-0.2c-0.5,0.3-1.1,0.7-0.9,1.4C88.1,25,88.7,24.5,89.4,24.4z"/>
				<path class="st10" d="M101,31.1c-0.1,0.4-0.1,0.8-0.1,1.2c0.1,0,0.2,0,0.3,0c0.1-0.8,0.2-1.7,0-2.4c0-1-0.1-1.9-0.5-2.8
					c-0.3-0.7-0.8-1.4-1.6-1.4c0.1,0.6,0.7,0.9,1,1.5C100.7,28.3,100.7,29.7,101,31.1z"/>
				<path class="st10" d="M82,29.2c-0.7,0.1-1.4,0.7-1.5,1.5c0,0.2,0.1,0.3,0.3,0.4c0.4-0.4,0.7-0.8,1.2-1c0.9-0.4,2-0.2,2.9-0.1
					c0-0.1,0-0.2,0-0.3C84,29.1,82.9,29,82,29.2z"/>
				<path class="st10" d="M106.7,30.9c0.5-0.1,1.1,0,1.6,0.2c0.5,0.2,0.8,0.6,1.3,0.7c-0.1-0.7-0.8-1.1-1.4-1.3
					c-0.8-0.3-1.9-0.4-2.5,0.3c-0.2,0.2-0.2,0.5-0.2,0.8C105.9,31.3,106.2,31,106.7,30.9z"/>
				<path class="st10" d="M91.2,31.1c-0.6,0.3-1.3,0.8-1.2,1.6c0.4-0.3,0.7-0.6,1.1-0.8c0.6-0.3,1.3-0.4,2-0.3
					c0.7,0.1,1.5,0.4,2,1.1c0.1,0.2,0.2,0.3,0.4,0.4c0.1-0.2,0.1-0.3,0.2-0.5l-0.1,0c-0.3-0.5-0.7-0.9-1.3-1.2
					C93.3,30.9,92.1,30.7,91.2,31.1z"/>
				<path class="st10" d="M69.9,34.8c0.2-0.7,0.5-1.3,1-1.8c0.8-0.9,2.2-1.2,3.4-1c0.4,0.1,0.8,0.3,1.2,0.2
					c-0.5-0.8-1.5-0.9-2.3-0.9c-1,0-1.9,0.4-2.6,1.1c-0.7,0.7-1.3,1.7-1,2.7C69.7,35,69.9,35,69.9,34.8z"/>
				<path class="st10" d="M104.7,35.5c0.9-0.4,2-0.1,2.9,0.4c0.4,0.2,0.7,0.6,1.1,0.9c0-0.2,0-0.5-0.2-0.6c-0.5-0.7-1.4-1.1-2.2-1.3
					c-0.9-0.3-2,0-2.7,0.8c-0.3,0.2-0.3,0.6-0.2,1C103.7,36.1,104.1,35.6,104.7,35.5z"/>
				<path class="st10" d="M79.2,37.4c0.4-1.1,1.6-1.8,2.8-1.7c1,0.1,1.9,0.6,2.4,1.5c0.1,0,0.2,0,0.3,0.1c0-0.3-0.1-0.5-0.3-0.8
					c-0.7-0.8-1.7-1.3-2.7-1.5c-1.4-0.1-2.9,1-2.7,2.5C79,37.4,79.1,37.4,79.2,37.4z"/>
				<path class="st10" d="M67.5,38.7c1.2,0.3,2.4,0.8,3.2,1.8c0,0.3,0.2,0.6,0.4,0.9c0.2-0.5-0.1-1-0.5-1.4
					c-0.6-0.7-1.4-1.2-2.3-1.5c-1-0.4-2.1-0.5-3.2-0.1c0,0.1,0,0.2-0.1,0.3C66,38.6,66.8,38.5,67.5,38.7z"/>
				<path class="st10" d="M91.1,39.4c-0.4,0.3-0.8,0.9-0.5,1.4c0.7-0.8,1.6-1.5,2.7-1.5c0.5-0.1,1,0.3,1.4,0.5c0-0.5-0.5-0.9-0.9-1
					C92.9,38.6,91.8,38.7,91.1,39.4z"/>
				<path class="st10" d="M74.6,40.9c0.1,0,0.2,0,0.2,0c0.4-0.8,1.6-0.9,2.3-0.6c0-0.2,0.1-0.4-0.1-0.5c-0.7-0.4-1.6-0.3-2.2,0.1
					C74.5,40.2,74.5,40.6,74.6,40.9z"/>
				<path class="st10" d="M114,42.5c0.2,0.1,0.5,0.2,0.7,0.2c0-0.1,0-0.3,0-0.4c-0.1,0-0.3-0.1-0.4-0.1c-0.8-0.7-1.8-1.2-2.8-1.4
					c-1.6-0.2-3.2-0.1-4.6,0.7c-0.5,0.2-0.9,0.4-1.5,0.4c-1.4,0-2.8-0.6-4.2-0.9c-1.5-0.6-3.2-0.4-4.7,0.2c-1,0.3-1.8,0.9-2.7,1.5
					c-0.7,0.5-1.4,1.1-2.2,1.3c-0.9,0.3-1.9,0.4-2.8,0.2c-1.5-0.3-2.8-1.3-4.3-1.6c-1.5-0.3-3-0.2-4.4,0.4c-1.2,0.5-2.3,1-3.3,1.9
					c-0.7,0.6-1.3,1.3-1.9,2c-0.5,0.6-1.1,1-1.9,1.3c-1.3,0.5-2.6,1-3.8,1.6c-1.4,0.7-2.5,1.9-3.1,3.3c-0.7,1-0.8,2.3-1.5,3.2
					c-0.4,0.6-1,1-1.2,1.7c0.4-0.1,0.8-0.5,1.1-0.8c0.9-1,1.3-2.3,1.7-3.5c0.5-0.7,1-1.5,1.6-2.2c1.3-1.2,2.9-1.7,4.5-2.4
					c0.7-0.3,1.5-0.6,2.1-1c0.7-0.5,1.2-1.2,1.8-1.8c0.7-0.7,1.3-1.3,2.1-1.8c1.5-0.9,3.3-1.6,5.1-1.4c2,0,3.6,1.5,5.6,1.7
					c1.4,0.1,2.9-0.1,4.1-0.9c1.2-0.8,2.3-1.7,3.7-2.2c1.3-0.4,2.7-0.6,4-0.2c1.6,0.5,3.2,1.2,5,1c0.7-0.1,1.3-0.5,2-0.7
					c1-0.4,2.1-0.5,3.2-0.4c0.6,0,1.2,0.4,1.8,0.6C113.3,42.1,113.7,42.3,114,42.5z"/>
				<path class="st10" d="M105.9,52c0-0.7,0.5-1.2,0.7-1.8c0.3-1,0.3-2.2-0.5-2.9c-0.7-0.7-1.8-0.6-2.4-1.4c-0.7-0.8-0.5-1.9-1-2.8
					c-0.1-0.2-0.3-0.2-0.5-0.2c0.1,0.7,0.3,1.3,0.3,2c0.1,0.9,0.7,1.8,1.6,2.2c0.6,0.3,1.4,0.4,1.8,1.1c0.4,0.8,0.2,1.9-0.2,2.7
					c-0.3,0.5-0.4,1.1-0.2,1.7c0.4,0.8,1.4,1.3,1.7,2.2c0.2,0.5,0,1-0.2,1.5c-0.2,0.2-0.4,0.4-0.4,0.7c0.3-0.1,0.6-0.3,0.8-0.6
					c0.6-0.8,0.6-2-0.1-2.8C106.8,53.1,106.1,52.7,105.9,52z"/>
				<path class="st10" d="M97.3,50.4c-0.4-0.3-1.1-0.5-1.1-1.1c0-0.9,0.2-1.7,0-2.6c-0.3-1.2-1.3-2.2-2.6-2.2
					c-0.2,0.1-0.5,0.1-0.7,0.3c0.1,0.1,0.3,0.2,0.4,0.3c1,0.1,1.9,1,2.1,1.9c0.3,0.9,0,1.8,0.2,2.8c0.2,0.8,1.1,1,1.6,1.5
					c1,0.8,1.3,2.1,1,3.3c-0.3,0.9-0.2,1.9,0.4,2.6c0.1,0.1,0.3,0.3,0.4,0.1c-0.1-0.4-0.4-0.8-0.4-1.2c-0.1-0.9,0.4-1.7,0.4-2.6
					C99.2,52.1,98.4,51,97.3,50.4z"/>
				<path class="st10" d="M114,52.5c0.1-0.6,0.8-1,0.9-1.7c0.3-1.1,0.2-2.4-0.5-3.4c-0.6-0.8-1.5-1.3-2-2.2c0.1-0.4,0.2-0.8,0.2-1.1
					c-0.5,0.3-0.8,1-0.5,1.5c0.3,0.9,1.2,1.4,1.8,2.2c0.6,0.8,0.7,1.9,0.5,2.9c-0.2,0.7-0.9,1.1-0.9,1.8c-0.1,0.6,0.3,1.1,0.7,1.6
					c0.9,1.1,1.3,2.5,1.1,3.9c-0.2,0.8-0.9,1.4-1.4,2.1c-0.1,0.2-0.3,0.3-0.3,0.5c0.2,0.4,0.5,0,0.7-0.2c0.7-0.8,1.8-1.4,1.9-2.6
					c0.1-1.4-0.3-2.9-1.3-4C114.5,53.4,114,53.1,114,52.5z"/>
				<path class="st10" d="M72,45.1c-0.9,0.2-1.7,0.9-1.7,1.9c0.1,0,0.2,0,0.3,0c0.3-0.4,0.7-0.8,1.1-1.1c0.7-0.4,1.5-0.3,2.2-0.3
					c0-0.1,0-0.2,0-0.3C73.3,45,72.6,45,72,45.1z"/>
				<path class="st10" d="M90.2,53.4c-0.2-1-1.3-1.6-1.6-2.6c-0.2-0.8,0.1-1.7,0.1-2.6c-0.1-1-0.7-1.8-1.5-2.3
					c-0.1,0.1-0.2,0.2-0.1,0.4c0.3,0.5,0.7,1,0.8,1.6c0.2,1-0.3,2.1,0,3.2c0.2,0.7,0.7,1.2,1.2,1.7c0.7,0.7,0.5,1.8,1.1,2.6
					c0.3,0.7,0.6,1.5,1.3,1.9c-0.3-0.7-0.7-1.3-1-2C90.5,54.6,90.3,54,90.2,53.4z"/>
				<path class="st10" d="M60.3,49.1c0-0.2,0-0.4,0-0.6c0.2-0.4,0.4-0.7,0.7-1c0.8-0.7,1.8-1.1,2.9-1.3c0.4-0.1,0.9,0.1,1.3,0.2
					c-0.1-0.3-0.2-0.5-0.5-0.6c-0.8-0.2-1.6,0-2.4,0.2c-1,0.3-1.8,1-2.2,2c-0.1,0.4-0.1,0.7-0.1,1.1C60,49.1,60.2,49.1,60.3,49.1z"
					/>
				<path class="st10" d="M73.4,51c-0.3,0.8,0.1,1.6,0.4,2.3c0.4,1-0.1,2-0.1,3c0,0.7,0.2,1.4,0.6,2c0.3,0.2,0.6,0.4,0.9,0.2
					c-0.2-0.2-0.3-0.3-0.6-0.4c-0.3-0.5-0.4-1-0.4-1.6c0-1,0.4-1.9,0.3-2.9c-0.1-0.7-0.6-1.3-0.7-2c0-0.8,0.7-1.2,0.8-2
					C74,49.8,73.7,50.5,73.4,51z"/>
				<path class="st10" d="M82.7,52.1c-0.3-1-1.4-1.5-1.6-2.6c-0.1-1,0.5-2,0.4-3.1c0-0.6-0.3-1.2-0.9-1.4c-0.1,0.1-0.2,0.2-0.2,0.2
					c0.3,0.4,0.5,0.7,0.5,1.2c0,1.1-0.6,2.1-0.4,3.3c0.3,1.2,1.7,1.7,1.9,3c0,0.6,0,1.1,0.2,1.7c0.1,0,0.2,0.1,0.3,0.1
					C82.8,53.7,82.9,52.9,82.7,52.1z"/>
				<path class="st10" d="M120.5,63.1c-0.2-0.6-0.7-1.3-0.3-1.9c0.3-0.6,0.8-1,1.1-1.5c0.4-0.5,0.6-1.2,0.6-1.9c0-1-0.1-2.1-0.6-3
					c-0.4-0.8-1-1.5-1.3-2.4c0-0.3-0.1-0.6-0.1-0.9c-0.4,0.4-0.4,1-0.1,1.5c0.3,1.1,1.1,2,1.3,3.1c0.1,0.8,0.2,1.6-0.1,2.4
					c-0.3,1.1-1.3,1.7-1.6,2.8c-0.2,0.8,0.2,1.5,0.4,2.3c0.4,1.2,0.2,2.4-0.3,3.5c-0.5,1-1.3,1.6-2,2.5c-0.4,0.5-0.9,1-0.7,1.7
					c0.3-0.4,0.7-0.8,0.8-1.2c0.8-0.8,1.8-1.5,2.4-2.4C120.9,66.4,121.1,64.6,120.5,63.1z"/>
				<path class="st10" d="M69.7,53c-0.2,0-0.4,0-0.6,0.2c-1.1,0.8-1.4,2.3-1.1,3.5c0.1,0.5,0.4,1.1,0.4,1.6c0,0.3-0.2,0.5-0.4,0.7
					c-0.5,0.5-1,1.1-1.1,1.8c-0.3,1.2-0.1,2.4,0.5,3.5c0.1,0.4,0.2,0.9,0.6,1.2c0.1-0.4,0-0.9-0.2-1.3c-0.2-1.1-0.7-2.3-0.2-3.4
					c0.3-0.8,1.1-1.2,1.5-1.9c0.2-0.7-0.1-1.4-0.3-2.1c-0.2-0.8-0.2-1.6,0.2-2.3C69.1,53.9,69.6,53.6,69.7,53z"/>
				<path class="st10" d="M63.1,61.4c-0.2-0.1-0.4-0.1-0.5,0.1c-0.7,0.8-1.4,1.6-1.4,2.7c0.1,1.2,1.1,2,1.3,3.2
					c0.1,0.9-0.8,1.6-0.6,2.5c0.2,0.7,0.5,1.5,1.2,1.9c-0.1-0.8-0.7-1.4-0.6-2.2c0.1-0.6,0.6-1.1,0.7-1.8c0.2-1.4-1.2-2.4-1.3-3.7
					C61.9,63.1,62.9,62.5,63.1,61.4z"/>
				<path class="st10" d="M126.1,65.2c0-0.9-0.2-1.7-0.5-2.6c0-0.4,0-0.9,0-1.3c-0.4,0.3-0.5,0.9-0.3,1.3c0.1,0.7,0.3,1.4,0.3,2.2
					c0,0.9,0,1.8-0.3,2.7c-0.5,1.3-2,1.7-2.5,3c-0.5,1.2,0.3,2.6-0.1,3.8c-0.3,1.1-1.2,2-2.1,2.8c0,0.1,0.1,0.2,0.1,0.2
					c0.8-0.4,1.5-1.1,2.1-1.8c0.5-0.6,0.7-1.4,0.7-2.1c0-0.9-0.4-1.7-0.2-2.6c0.5-1.2,1.9-1.6,2.5-2.7
					C126.2,67.2,126.1,66.2,126.1,65.2z"/>
				<path class="st10" d="M59.7,76.4c-0.2-0.8,0.1-1.6-0.1-2.4c-0.3-0.9-1.1-1.4-1.4-2.2c-0.4-0.9-0.3-1.9,0-2.8
					c0.2-0.5,0.5-0.9,0.7-1.3c-0.5,0.1-0.8,0.5-1.1,0.9c-0.5,0.8-0.6,1.9-0.4,2.8c0.2,0.9,0.8,1.6,1.4,2.3c0.7,0.9,0,2.1,0.4,3.1
					c0.4,1.1,0.9,2.3,2,2.9c0.1-0.4-0.2-0.7-0.4-1C60.2,77.9,59.9,77.1,59.7,76.4z"/>
				<path class="st10" d="M125.1,75.7c-0.2,0.7-0.4,1.4-0.8,2c-0.4,0.7-1,1.2-1.5,1.8c-0.4,0.4-0.6,1-0.8,1.5
					c-0.1,0.5-0.3,1.1-0.4,1.6c0.5-0.4,0.6-1,0.8-1.6c0.3-0.7,0.9-1.3,1.4-1.8c1-0.9,1.7-2.2,1.6-3.6
					C125.3,75.7,125.2,75.7,125.1,75.7z"/>
				<path class="st10" d="M123.7,84c-0.2,0-0.2,0.2-0.3,0.3c-0.2,0.4-0.4,0.9-0.8,1.2c-0.7,0.5-1.3,1.1-1.8,1.9
					c-0.1,0.2-0.2,0.5-0.2,0.7c0.3,0.3,0.5-0.1,0.7-0.4c0.5-0.7,1.2-1.2,1.8-1.7c0.6-0.4,0.9-1.2,0.9-1.9
					C124.1,84,123.9,84,123.7,84z"/>
			</g>
			<path class="st11" d="M104,89.3c1.4-0.4,2.9-0.6,4.3-0.5c1.1,0.1,2,0.5,3,0.8c1.3,0.4,2.5,0.9,3.7,1.4c0.3,0.1,0.5,0.4,0.7,0.6
				c-0.7,0-1.3,0-2,0.1c-1.3-0.1-2.5,0-3.8,0c-1.8,0-3.5,0.3-5.2,0.7c-1.5,0.3-2.9,0.6-4.4,0.9c-0.5,0.1-1.1,0.3-1.6,0.2
				c0.1-0.4,0.2-0.7,0.5-1C100.6,91.2,102.1,89.9,104,89.3z"/>
			<path class="st12" d="M52.5,90.3c0.4-0.3,0.9-0.1,1.3,0c1,0.3,2.1,0.6,2.6,1.6c-0.4-0.2-0.8-0.5-1.2-0.7
				C54.4,90.8,53.5,90.6,52.5,90.3z"/>
			<path class="st13" d="M97.4,94.4c0.1-0.2,0.4-0.1,0.5-0.1c-0.1,0.8-0.7,1.3-1,2c-1,1.8-1.6,3.9-1.7,6c-0.2,2.1-0.3,4.1-0.2,6.2
				c0.1,1.4,0,2.8,0.1,4.2c-0.2-1.3-0.5-2.6-0.7-3.9c-0.3-1.6-0.1-3.3,0-4.9c0.1-1.9,0.4-3.9,1-5.7C95.9,96.8,96.6,95.6,97.4,94.4z"
				/>
			<path class="st14" d="M73.2,97.5c0.5-0.1,1.1-0.1,1.5,0.3c0.8,0.8,0.8,2.3,0.1,3.1c-0.4,0.4-1.2,0.6-1.8,0.3
				c-0.3-0.2-0.5-0.4-0.6-0.7c-0.2-0.7-0.1-1.5,0.1-2.2C72.5,97.9,72.8,97.6,73.2,97.5z"/>
			<path class="st14" d="M107.2,97.8c0.4-0.1,1-0.1,1.3,0.3c0.4,0.4,0.5,1.1,0.5,1.6c0,0.7-0.3,1.5-1,1.8c-0.6,0.3-1.4,0-1.7-0.5
				c-0.4-0.7-0.4-1.5-0.1-2.2C106.4,98.2,106.8,97.8,107.2,97.8z"/>
			<path class="st9" d="M70.1,101.1c0.2-0.1,0.5-0.2,0.8,0c0.7,0.5,1.2,1.2,1.9,1.7c0.4,0.3,1,0.6,1.1,1.1c-0.8-0.1-1.4-0.7-2.1-1.1
				C71.1,102.3,70.4,101.9,70.1,101.1z"/>
			<path class="st15" d="M111.5,102.6c-0.3,0.1-0.5,0.3-0.7,0.6c-1.5,1.2-3.5,1.9-5.3,1.6c-0.8-0.1-1.6-0.5-2.2-1.1
				c0,0,0.1-0.1,0.1-0.2c-0.1,0-0.3,0-0.4,0c0,0.2,0.1,0.4,0.1,0.6c1,1.4,3,1.7,4.6,1.3c1.4-0.3,2.6-1.1,3.6-2.1
				C111.4,103.1,111.5,102.8,111.5,102.6z"/>
			<g>
				<path class="st16" d="M128.3,93.6c-2.5,1.9-3.9,4.7-5.2,7.5c-0.6,1.3-1.2,2.6-1.6,3.9c-0.2,0.4-0.4,0.8-0.5,1.3
					c0.1,0,0.3,0,0.3,0.1c0.1-0.2,0.2-0.4,0.3-0.7c0.4-1.1,0.9-2.2,1.4-3.3c1-2,2-4.1,3.5-5.8c1.1-1.3,2.4-2.6,4-3.4
					c0.1-0.1,0.1-0.3,0.2-0.4C129.8,92.5,129,93.1,128.3,93.6z"/>
				<path class="st16" d="M58.4,98.9c-0.6-1.2-1.2-2.4-2.1-3.4c-1.1-1.3-2.6-2.2-4.2-2.6c-0.4-0.1-0.8,0-1.1,0.2c0,0.1,0,0.2,0,0.3
					c2.2,0.5,4.3,1.8,5.6,3.7c0.9,1.1,1.6,2.4,2.3,3.6c0.1,0.3,0.3,0.7,0.4,1c0.1,0,0.2,0,0.3,0c-0.1-0.5-0.2-1-0.5-1.4
					C58.9,99.9,58.7,99.4,58.4,98.9z"/>
			</g>
			<path class="st17" d="M106.9,107.8c1.5-0.2,3.1,0.4,4.3,1.3c1,0.8,1.8,1.9,2.1,3.2c0.1,0.7,0.1,1.4,0,2.1
				c-0.2,1.7-1.2,3.4-2.7,4.4c-1.3,0.9-2.9,1.4-4.5,1.1c-1.6-0.2-3.1-1.1-4.1-2.4c-0.8-1-1.3-2.3-1.3-3.6c0-1.9,1-3.6,2.4-4.8
				c0.7-0.6,1.5-1.2,2.5-1.2C106,107.9,106.4,107.9,106.9,107.8z"/>
			<path class="st17" d="M73.4,108.3c1.8,0,3.6,0.9,4.8,2.3c0.8,0.8,1.1,1.8,1.3,2.8c0.2,1.7-0.4,3.5-1.7,4.7
				c-1.4,1.4-3.5,2-5.4,1.5c-1.3-0.3-2.4-1.1-3.4-2c-1-1-1.6-2.4-1.5-3.8c0.3-2.1,1.5-4.2,3.5-5.1C71.8,108.5,72.6,108.3,73.4,108.3
				z"/>
			<path class="st9" d="M91,111.8c1-0.5,2.2-0.7,3.4-0.8c0,0.1,0,0.3,0,0.4c-0.8,0.4-1.7,0.5-2.5,0.9c-0.5,0.2-0.9,0.5-1.4,0.6
				C90.4,112.3,90.6,112,91,111.8z"/>
			<g>
				<path class="st15" d="M82.7,91.3c-0.4-0.4-0.9-0.7-1.5-1c-0.7-0.4-1.4-0.8-2.2-1.1c-1.4-0.4-2.8-0.7-4.2-0.5
					c-0.9,0.1-1.7,0.1-2.6,0.2c-1.4,0.2-2.6,0.8-3.8,1.4c-0.8,0.4-1.5,0.9-2.2,1.5c0.2,0.1,0.5,0.2,0.7,0.3c3.2-0.1,6.3-0.1,9.5-0.2
					c1.3,0,2.7,0.2,4,0.4c0.9,0.1,1.8,0.4,2.7,0.4c0.3,0.1,0.6,0.2,1,0.2c0-0.2,0.1-0.5,0-0.7C83.6,91.9,83.2,91.6,82.7,91.3z"/>
				<path class="st15" d="M77.6,104.1c-0.9,0.6-1.9,0.9-2.9,1.1c-1.9,0.4-3.9-0.2-5.4-1.4c-0.1-0.1-0.2-0.2-0.3-0.3
					c-0.1,0.2-0.1,0.3-0.2,0.5l0.1,0c0.7,1.2,2.1,1.9,3.5,2.1c1.1,0.2,2.3-0.1,3.4-0.4c0.8-0.3,1.5-0.6,2.1-1.1
					c0.1-0.1,0.1-0.2,0.2-0.4C77.9,104.1,77.7,104.1,77.6,104.1L77.6,104.1z"/>
				<path class="st15" d="M97.7,114.4c-0.2-0.4-0.4-0.8-0.9-0.8c0.1,0.3,0.4,0.7,0.5,1c0.1,0.4,0.1,0.7,0.1,1.1
					c-0.1,0.3-0.2,0.6-0.5,0.9c-0.4,0.3-0.7,0.7-1.2,0.9c-0.9,0.4-1.6,1.1-2.6,1.4c-0.5,0.2-1,0-1.5-0.1c-0.7-0.3-1.4-0.4-2-0.7
					c-0.9-0.4-1.9-0.7-2.8-1.2c-0.2-0.1-0.4-0.3-0.4-0.5c-0.1-0.4,0.1-0.8,0.2-1.1c0-0.1,0-0.2,0.1-0.4c-0.2,0-0.4,0-0.6,0
					c-0.4,0.7-0.7,1.6-0.1,2.2c0.9,0.9,2.2,0.9,3.3,1.3c0.7,0.3,1.5,0.5,2.3,0.8c0.4,0.2,0.9,0.3,1.4,0.2c1.4-0.2,2.4-1.3,3.7-1.7
					c0.6-0.1,1.1-0.6,1.3-1.2C98.1,115.9,97.9,115.1,97.7,114.4z"/>
				<path class="st15" d="M91.7,120.9c-0.3,0.3-0.3,0.8-0.3,1.2c0,0.9-0.2,1.8,0,2.6c0.1,0,0.2,0,0.3,0c0.1-1.1,0.3-2.1,0.3-3.2
					C92.1,121.3,92.1,120.9,91.7,120.9z"/>
			</g>
			<path class="st17" d="M88,125.2c1.3-0.2,2.7-0.2,4-0.2c2.5,0.2,4.8,1,7.2,1.5c-1.7,0.2-3.4,0.1-5,0.2c-1.6,0-3.2-0.1-4.8-0.1
				c-2.1,0.2-4.3,0.2-6.4-0.1C84.7,126.1,86.3,125.5,88,125.2z"/>
			<path class="st18" d="M99.2,126.6c0.6,0,1.1-0.2,1.7-0.1c-0.1,0.1-0.2,0.3-0.4,0.3c-0.5,0.2-0.9,0.3-1.4,0.4
				c-1.2,0.1-2.5,0.1-3.7,0.1c-1.3,0-2.6,0-3.9-0.1c-1.6-0.2-3.2-0.1-4.8,0.1c-1.6,0.1-3.2,0-4.8-0.1c-0.2,0-0.4-0.1-0.6-0.2
				c0-0.1-0.1-0.2-0.1-0.3c0.5-0.3,1.2-0.2,1.8-0.2c2.1,0.2,4.3,0.2,6.4,0.1c1.6,0,3.2,0.2,4.8,0.1
				C95.9,126.7,97.6,126.9,99.2,126.6z"/>
			<path class="st17" d="M86.7,127.4c1.6-0.1,3.2-0.2,4.8-0.1c1.3,0.1,2.6,0.1,3.9,0.1c1.2,0,2.5,0,3.7-0.1
				c-0.2,0.2-0.6,0.4-0.9,0.5c-1.2,0.5-2.5,1-3.8,1.4c-1.4,0.3-2.9,0.6-4.3,0.5c-1.2-0.1-2.4-0.2-3.6-0.5c-0.9-0.2-1.8-0.5-2.8-0.8
				c-0.7-0.2-1.3-0.5-1.8-1C83.5,127.3,85.1,127.5,86.7,127.4z"/>
			<path class="st19" d="M89.9,128c0.8-0.1,1.7-0.3,2.5-0.3c-0.3,0.5-0.9,0.5-1.3,0.6c-1,0.2-1.9,0.6-2.9,0.5c0-0.1,0-0.2,0-0.3
				C88.7,128.3,89.3,128.1,89.9,128z"/>
			<path class="st20" d="M89.4,132c1.3-0.2,2.7-0.1,3.9,0.3c0,0.1,0,0.3-0.1,0.4c-1.4-0.3-2.9,0.1-4.3,0.1c-0.3,0-0.6-0.2-0.5-0.5
				C88.6,132.1,89.1,132.1,89.4,132z"/>
			<path class="st15" d="M111.1,128.8c-0.8,1-1.5,2.1-2.3,3.1c-0.8,0.9-1.6,1.8-2.4,2.7c-0.8,0.9-1.7,1.8-2.6,2.7
				c-0.5,0.4-1,0.9-1.6,1.4c-1,0.8-2,1.5-3,2.1c-0.7,0.4-1.5,0.7-2.2,1.1c-0.6,0.1-1.1,0.4-1.7,0.4c-1,0-1.9,0.1-2.9,0.2
				c-1.1,0.1-2.1-0.1-3.2-0.1c-1.7-0.2-3.5-0.2-5.2-0.7c-1.1-0.3-2.1-0.7-3.1-1.2c-1-0.6-2-1.1-2.9-1.9c-1.6-1.5-3.2-3-4.8-4.5
				c-0.7-0.6-1.3-1.2-2-1.8c-0.6-0.6-1.2-1.1-1.8-1.7c-0.6-0.7-1.3-1.4-2.1-2.1c-0.3-0.2-0.5-0.5-0.9-0.5c0.7,1,1.7,1.8,2.5,2.7
				l0.1,0c0.6,0.8,1.4,1.5,2,2.3c0.9,1.1,2,1.9,3,2.9c1.4,1.4,2.9,2.8,4.5,3.9c2.2,1.6,4.9,2.6,7.7,2.8c1.4,0.1,2.8,0.4,4.2,0.4
				c0.6,0,1.1-0.1,1.7-0.1c1.9,0.1,4-0.1,5.6-1c1.3-0.4,2.4-1.2,3.4-1.9c1-0.7,1.8-1.6,2.7-2.4c0.6-0.5,1.2-1.1,1.8-1.7
				c0.8-0.7,1.5-1.6,2.3-2.4c1-1.1,1.8-2.5,2.7-3.7c0.5-0.8,1.1-1.5,1.4-2.4C111.7,127.8,111.4,128.3,111.1,128.8z"/>
			<g>
				<path class="st15" d="M87.1,159.8c0.2,1,0.4,2,0.9,2.9c0,0-0.1,0.1-0.1,0.2c0.2,0,0.3-0.1,0.5-0.1c-0.1-0.2-0.2-0.3-0.2-0.5
					c-0.8-2.8-0.7-5.9-1.6-8.7c-0.1-0.2-0.2-0.5-0.4-0.7c-0.3,0.3-0.2,0.7-0.1,1C86.4,155.9,86.7,157.9,87.1,159.8z"/>
				<path class="st15" d="M85.3,170.4c-0.5-0.3-1.1-0.3-1.6-0.2c-0.5,0.1-1.1,0-1.5,0.4c0.8,0.6,1.9,0,2.7,0.5
					c0.9,0.5,1.6,1.4,2.3,2.1c0.6,0.7,1.1,1.5,1.6,2.3c0.1,0.2,0.3,0.2,0.5,0.1c-0.4-1.2-1.1-2.2-1.8-3.2
					C86.8,171.7,86.2,170.9,85.3,170.4z"/>
				<path class="st15" d="M101,171.5c-1.5,0.5-3.1,1-4.3,2.1c-0.4,0.4-0.8,0.8-0.9,1.4c0.1,0.2,0.3,0,0.4-0.1
					c0.7-0.7,1.5-1.3,2.3-1.9c0.8-0.5,1.6-0.8,2.4-1.2C101,171.8,101,171.6,101,171.5z"/>
			</g>
			<path class="st21" d="M86.8,214.6c0.2,0,0.4,0,0.5,0.2c0.6,1,1,2.2,1.4,3.3c0.2,0.7,0.6,1.3,0.7,2c-0.3-0.1-0.5-0.3-0.5-0.6
				c-0.5-1-0.8-2.1-1.3-3.1C87.2,215.8,86.8,215.2,86.8,214.6z"/>
			<path class="st22" d="M93.4,219.7c-0.1-0.3,0.3-0.4,0.4-0.2c0.3,0.6,0.4,1.2,0.5,1.9c0.3,1.9,0.4,3.8,0.6,5.7
				c0,0.3,0.1,0.6,0.2,0.9c-0.1,0-0.2,0-0.3,0.1c-0.5-1-0.5-2.1-0.6-3.1C93.9,223.2,93.5,221.5,93.4,219.7z"/>
			<g>
				<path class="st23" d="M94.3,230.3c0.2-0.3,0.3-0.6,0.5-0.8c0.3,0.3,0.7,0.5,1,0.8h1c0.1-0.1,0.3-0.3,0.5-0.4
					c1.1-1,1.9-2.2,2.7-3.4c0.5-0.7,1-1.4,1.4-2.1c0.5-0.6,0.8-1.2,1.3-1.8c1.2-1.9,2.6-3.7,3.8-5.6c1.5-2.3,3.1-4.6,4.6-7
					c0.9-1.5,1.8-3,2.7-4.5c0.7-1.2,1.4-2.5,2-3.7c1.2-2.3,2.5-4.6,3.4-7.1c0.4-1,0.8-1.9,1.2-2.9c0.9-2.2,1.6-4.6,2.3-6.9
					c0.9-2.8,1.8-5.7,2.5-8.6c0.7-2.5,1.7-5,1.4-7.6c-0.2,0-0.3,0-0.5,0c0.2,2.4-0.5,4.8-1.2,7.1c-0.3,1.1-0.5,2.1-0.9,3.2
					c-0.8,2.5-1.6,4.9-2.4,7.4c-0.7,2.2-1.5,4.5-2.4,6.6c-0.6,1.2-1,2.5-1.6,3.7c-0.5,1.1-1,2.1-1.6,3.2c-1.2,2.2-2.2,4.4-3.5,6.5
					c-2.3,4.1-4.9,8.1-7.6,12c-1.3,2-2.7,3.9-3.9,5.9c-1.5,2-2.8,4.3-4.8,6c-0.4-0.3-0.7-0.7-1.1-1c-0.3-0.2-0.6,0-0.7,0.2
					c-0.2,0.3-0.4,0.5-0.5,0.9H94.3z"/>
				<path class="st23" d="M53.5,180.6c0.6,1.3,1.2,2.7,1.8,4.1c0.5,1.1,1.1,2.1,1.6,3.1c0.4,0.9,0.9,1.8,1.5,2.7c0.6,1,1.3,2,2,3
					c1,1.6,2,3.2,3.1,4.8c1.3,1.9,2.8,3.6,4.2,5.5c1.6,2.2,3.3,4.2,4.9,6.4c1,1.4,2.2,2.6,3.3,3.9c0.8,1,1.6,2.2,2.4,3.2
					c1.4,1.9,3.1,3.6,4.8,5.3c1.2,1.3,2.6,2.4,3.8,3.7c1.4,1.5,2.8,2.9,4.4,4.1H92c-0.6-0.4-1.3-0.9-1.9-1.4c-1.7-1.4-3.1-3-4.7-4.5
					c-0.8-0.8-1.7-1.5-2.4-2.3c-0.7-0.7-1.3-1.4-2-2.2c-1.6-1.7-3-3.5-4.3-5.4c-1.3-1.7-2.8-3.3-4-5c-1.5-2-3.1-4-4.6-6
					c-1.4-1.9-2.9-3.7-4.2-5.6c-1.1-1.6-2.1-3.2-3.1-4.7c-0.7-1-1.4-1.9-2-2.9c-1.1-1.7-1.9-3.5-2.8-5.3c-0.7-1.5-1.4-3-2-4.6
					c-1-2.1-1.3-4.4-1.9-6.6c-0.1-0.2-0.1-0.4-0.3-0.5c-0.3,0.1-0.1,0.4-0.1,0.6C52.1,176.1,52.5,178.4,53.5,180.6z"/>
				<path class="st23" d="M125.4,204.1c0.5-0.7,1-1.5,0.8-2.4c-0.1,0-0.2,0-0.2,0c-0.6,1.8-2.1,2.9-3.2,4.4c-1.4,2-2.8,4-3.8,6.2
					c0.3,0.3,0.5-0.2,0.7-0.4c1-1.5,2-3.1,3.1-4.5C123.6,206.3,124.6,205.3,125.4,204.1z"/>
				<path class="st23" d="M50.1,212c-0.1-0.4-0.4-0.7-0.7-1c-1-1.2-2-2.5-3-3.7c-0.6-0.7-1-1.5-1.4-2.4c-0.4-0.8-0.9-1.7-1.7-2.1
					c-0.1,0-0.2,0.1-0.2,0.1c0.4,0.4,0.8,0.9,1.1,1.4c0.3,0.7,0.5,1.4,0.9,2c0.9,1.6,2.2,2.8,3.4,4.2C49,211,49.5,211.6,50.1,212z"
					/>
				<path class="st23" d="M142.2,230.3c0-0.2,0-0.4,0-0.6c0.3-1.4,0.5-2.8,0.7-4.2c0.6-3,1-6.1,1.3-9.2c0.3-2.9-0.1-5.8-0.6-8.6
					c-0.1-0.3-0.1-0.8-0.4-1c-0.1,0.3-0.1,0.7-0.1,1c0.1,1.5,0.3,3,0.4,4.4c0.2,3.1-0.2,6.2-0.5,9.3c-0.3,2.6-0.9,5.2-1.1,7.9
					c-0.1,0.3-0.1,0.6-0.2,1H142.2z"/>
				<path class="st23" d="M30.9,218.4c0.9,1.7,1.7,3.4,2.4,5.1c0.9,2.2,1.7,4.5,2.3,6.8h0.4c-1.2-4.4-2.8-8.6-4.9-12.6
					c-1.2-2.1-2.7-4-4-6c-0.1-0.2-0.3-0.4-0.6-0.5c0.1,0.6,0.5,1.2,0.8,1.7C28.4,214.8,29.8,216.5,30.9,218.4z"/>
				<path class="st23" d="M128.7,216.9c-1.1,1-2.4,1.7-3.6,2.6c-1.7,1.4-3.3,2.9-4.8,4.5c-0.2,0.1-0.2,0.3-0.3,0.6
					c0.5-0.3,0.9-0.8,1.4-1.2c1.1-1,2.3-2.1,3.5-3c0.9-0.7,1.9-1.2,2.9-1.9c1-0.6,1.8-1.4,2.5-2.3c0.2-0.2,0.2-0.4,0.3-0.7
					c-0.2,0-0.4,0-0.6,0.2C129.5,216.1,129.1,216.5,128.7,216.9z"/>
				<path class="st23" d="M144,230.3c0.3-1.7,0.6-3.4,1-5.1c0.5-2.2,1.1-4.4,1.6-6.6c0.1-0.4,0.3-0.9,0-1.3
					c-0.5,0.5-0.6,1.3-0.8,1.9c-0.8,2.5-1.4,5.1-2,7.7c-0.2,1.1-0.4,2.3-0.4,3.4H144z"/>
				<path class="st23" d="M33.5,218.1c0.3,0.7,0.6,1.4,0.9,2c0.8,2,1.4,4.1,2.1,6.1c0.4,1.3,0.9,2.7,1.2,4h0.6
					c-0.5-1.9-1.1-3.7-1.7-5.5c-0.7-2.3-1.7-4.5-2.7-6.7c-0.5-1.1-1.1-2.1-1.6-3.2c-0.1,0-0.2-0.1-0.3-0.1
					C32.4,216,32.9,217.1,33.5,218.1L33.5,218.1z"/>
				<path class="st23" d="M72,225.7c0-1.7,0-3.4-0.4-5c-0.2-0.5-0.3-1.1-0.9-1.4c-0.2,0.2,0,0.5,0,0.8c0.4,1.3,0.4,2.6,0.6,3.9
					c0.1,1.3,0.1,2.7,0.6,4c0.1,0,0.3,0,0.4,0C72,227.2,72,226.5,72,225.7z"/>
				<path class="st23" d="M49.4,222.9c-0.5-0.7-1.1-1.4-1.7-2c-0.1,0.1-0.2,0.2-0.3,0.4c0.1,0.3,0.3,0.5,0.4,0.8
					c0.6,0.8,1.2,1.7,1.9,2.5c0.7,1,1.5,1.9,2.2,3c0.1,0.2,0.3,0.2,0.5,0.2c0-0.5-0.4-1-0.6-1.4C50.9,225.2,50.2,224,49.4,222.9z"/>
			</g>
		</g>
	</g>
</g>
</svg>
