<svg xmlns="http://www.w3.org/2000/svg" xmlns:xlink="http://www.w3.org/1999/xlink" xml:space="preserve" id="Layer_1" x="0" y="0" style="enable-background:new 0 0 180 180" version="1.1" viewBox="0 0 180 180"><style>.st3{fill:#e56324}.st4{fill:#f2844f}.st5{fill:#f95939}.st7{fill:#b95d38}.st8{fill:#38312d}.st12{fill:#cc492f}.st20{fill:#cc6d9b}</style><defs><path id="SVGID_1_" d="M0 0h180v180H0z"/></defs><use xlink:href="#SVGID_1_" style="overflow:visible;fill:#1dbc74"/><clipPath id="SVGID_2_"><use xlink:href="#SVGID_1_" style="overflow:visible"/></clipPath><g style="clip-path:url(#SVGID_2_)"><path d="M179.2 235v-.8c.1-1-.3-2-.4-3-.2-1-.3-2.1-.6-3.1-.8-2.6-1.4-5.3-2.4-7.8-.9-2.1-1.6-4.4-2.6-6.4-.9-1.7-1.5-3.6-2.6-5.2-1.3-1.9-2.7-3.7-4.2-5.5-1.6-1.9-3.2-3.8-5.1-5.5-1.4-1.4-2.9-2.5-4.4-3.7-2.1-1.5-4.5-2.6-6.7-3.8-.8-.5-1.6-.9-2.4-1.4-2.3-1.2-4.7-2.3-7-3.5-1.8-1-3.6-1.9-5.4-2.9-.9-.5-1.8-1.2-2.8-1.6-1.2-.6-2.5-1.2-3.8-1.1-1.4 0-2.8.5-4.2.9-1.1.4-2 .9-3.1 1.3-1.5.6-3.2.7-4.8.9-1.1.1-2.2.2-3.3.2-2 0-3.9.3-5.9.5-2.9.3-5.8.6-8.7.4-3-.1-6-.4-9-.7-2.8-.3-5.5-.6-8.3-1-2.8-.4-14.9-2.4-18.1-2.9-2.9-.5-5.8-.9-8.7-1.1-1.6-.1-3.3-.1-4.9-.1-1.1 0-2.1 0-3.1.5-1.1.5-2.1 1.2-3.2 1.7-1.4.7-2.7 1.6-4.1 2.4l-3.3 1.8c-4.1 2.3-8 4.8-11.8 7.5-.6.5-1.2.9-1.9 1.4-2.1 1.5-3.8 3.3-5.6 5.1-1.7 1.7-3 3.7-4.2 5.7-1.2 1.9-2.1 3.9-3.1 5.8-.9 1.9-1.7 3.9-2.6 5.8-1 2.1-1.8 4.2-2.5 6.4-1 2.5-1.8 5-2.7 7.5-.5 1.5-1.1 3-1.3 4.6 0 .3-.1.6-.1.9h178.9z" style="fill:#dc9eb5"/><path d="M80.1 27.2c.8-.1 1.7-.1 2.5 0 1.4.1 2.7.6 3.7 1.5.6.5 1.1 1.1 1.6 1.8.2.3.5.6.9.6 1.5.1 2.8-1 4.2-.6 1.3.3 2.3 1.4 3.1 2.3.4.5 1.1.6 1.7.4 1.9-.4 3.4-1.9 5.2-2.5 1.2-.4 2.4-.7 3.6-.7 1.1 0 2.1.1 3.1.4 1 .3 2.1.6 3.1 1.1.8.4 1.5.9 2.2 1.4 1 .7 1.7 1.7 2.3 2.7.5.7.8 1.6.9 2.4 0 .8 0 1.5-.1 2.3-.1.6-.2 1.2 0 1.7.3.3.7.1 1.1.2 1.1 0 2.3-.1 3.2.6.9.8 1.2 2 1.4 3.1.2 1 0 2.1.2 3.1 0 .2.2.5.5.5 1.1 0 2.1-.5 3.1-.3 1 0 2.1.4 2.6 1.3.7 1 .4 2.3.1 3.4-.1.7-.5 1.4-.1 2 .3.5 1 .4 1.5.4 2.4-.2 4.9-.3 7.3.1 1.2.2 2.5.5 3.6 1.1 1.4.7 2.5 1.8 3.4 3 .5.7 1 1.5 1.2 2.3.4 1.1.7 2.3.8 3.6.1 2.2-.1 4.5-1.2 6.4-.6 1.1-1.4 2.1-2.3 3-.8.8-1.8 1.6-2.5 2.5-.7.9-1.1 2.1-.9 3.2.1 1.2.7 2.3 1.5 3.1.8 1 1.9 1.8 3 2.5.8.5 1.7 1 2.3 1.7.7.7 1.2 1.5 1.6 2.3.5.9.8 2 .7 3-.1.9-.3 1.8-.8 2.5-.7 1.3-1.6 2.6-2.3 4-.5 1.2-.8 2.5-.8 3.7.1 1.4.3 2.7.9 4 1 2 2.5 3.8 3.6 5.7.6.9.9 2 .9 3 0 2-.3 4-1.6 5.6-1.2 1.4-3 2.3-4.8 2.6-1.5.1-3.1-.1-4.5.2-1.2.4-2.3 1.2-2.8 2.4-.7 1.5-.6 3.1-1.2 4.6-.4.8-1.1 1.4-1.8 1.9-.9.6-1.9 1.1-2.9 1.4-1.3.4-2.7-.1-4 .3-.6.2-1 .7-1.5 1-.9.5-1.9.7-2.9.9-.9.1-1.8.1-2.7-.1-.8-.2-1.8.2-2.2.9-.4.7-.6 1.5-1.1 2.2-.6 1-1.7 1.7-2.7 2.2-.8.5-1.8.4-2.6.2-1.8-.5-3.8-.1-5.6-.8-.8-.3-1.3-1-2.1-1.3-1 .2-1.7 1-2.5 1.6-.8.6-1.9.6-2.9.8-2 .2-3.9.3-5.9.3-5.9-.2-11.9-.4-17.6-2.3-1.6-.5-3.1-1.2-4.4-2.3-1-.9-2-1.8-2.8-2.9-.3-.4-.7-.9-1.3-1.1-.5-.1-.9.2-1.3.4-1.2.7-2.3 1.7-3.7 2-1.3.2-2.6-.2-3.8-.8-.9-.4-1.5-1.3-1.9-2.2-.3-.6-.6-1.3-1.2-1.5-.9-.1-1.6.4-2.3.8-1.1.7-2.6 1.3-4 .9-1.1-.2-2.1-1-2.6-2-.4-.7-.8-1.7-1.7-2-1.7-.3-3.3.8-5 .6-1.4-.1-2.7-.8-3.8-1.6-.9-.7-1.7-1.5-2.3-2.5-.7-1-1.1-2.3-.9-3.5.1-.9.3-1.9.8-2.7.3-.6.8-1.3.6-2.1-.1-.6-.3-1.3-.8-1.7-.5-.3-1-.2-1.5-.2-1.1 0-2.3-.9-2.4-2-.1-1.3.5-2.6 1.6-3.4.7-.5 1.6-1.1 1.8-2 0-1.1-.4-2.2-1.2-3-.9-.9-2.2-1.3-3.3-2-1.2-.9-1.9-2.3-2.3-3.8-.3-1.2-.3-2.5-.1-3.8.2-1.7 1.3-3.2 2.6-4.4 1.5-1.6 3.5-2.7 5.7-2.9.7-.1 1.4-.2 2.1-.5.7-.3 1.5-.7 2-1.4.7-1.1.5-2.5.1-3.7-.3-.8-1.1-1.2-1.5-2-.6-1.1-.6-2.6.2-3.7.5-.8 1.3-1.4 2-2.1.6-.5.8-1.4.8-2.1 0-1.5-.4-3-1.1-4.3-.3-.6-.7-1.1-1-1.8-.7-1.4-1.1-3-.9-4.6.3-2.9 1.7-5.8 4.1-7.5 1.5-1.3 3.5-1.8 5.3-2.4 1.8-.6 3.7-.8 5.6-1.2 1.4-.3 2.8-1.1 3.5-2.3.4-.8.9-1.6.8-2.6-.1-2.6-1.2-5.1-1.1-7.7 0-1.6.3-3.3 1.1-4.8.9-1.5 2.2-2.9 3.7-3.8.5-.3 1-.4 1.5-.7 1.1-.7 2.2-1.3 3.5-1.6 1-.3 2.1-.2 3.2-.1.8.1 1.6.5 2.4.6.6.1 1.3.2 2 .2 1.3-.1 2.6-.2 3.8-.8 1.1-.5 2.2-1.5 3.7-1.8z" style="fill:#d1434f"/><path d="M92.4 57.9c1.3-.3 2.7-.3 4.1-.3 1.7.1 3.4.3 5 .6 1.9.3 3.8.7 5.6 1.5 1.3.5 2.4 1.3 3.4 2.2.9.7 1.7 1.6 2.6 2.3 1 .9 2.1 1.9 2.9 3 1.4 1.7 2.3 3.7 3.1 5.7 1.1 2.6 2.2 5.2 2.9 7.9.1.5.3 1.1.3 1.6-1-.2-1.7-1-2.3-1.7-.4-.5-.8-1-1.4-1.3-.6-.3-1.2-.7-1.6-1.3-.6-.8-1.4-1.3-1.9-2.2-.2-.4-.4-.9-.9-1-.7-.2-1.4-.3-2.1-.6-.7-.3-1.4-.4-2-.8-.8-.4-1.3-1.2-1.6-2.1-.2-.6-.3-1.4-1-1.5-1-.2-1.9.4-2.8.7-.9.3-1.9.5-2.8.1-.8-.4-1.1-1.4-1.6-2.1-1.1.2-1.9.8-2.9 1.2-.9.4-2 .4-2.9-.1-.5-.2-.9-.6-1.5-.7-.9-.1-1.9.2-2.6.8-1.1.9-2 2-3.3 2.5-1.4.5-2.8.1-4.2 0-.7-.1-1.3.3-1.7.9-.8 1.1-1.3 2.4-2.4 3.3-.9.7-1.9 1.2-2.8 1.7-1.1.6-2.4 1.1-3.2 2.1-1.1 1.3-1.6 3-2.6 4.4-1 1.5-2.3 2.8-3.4 4.2-.6.7-1.1 1.5-1.6 2.3-.1-.7 0-1.5 0-2.2 0-2.3.2-4.7.5-7 .4-2.4 1.2-4.8 2-7.2.9-2.3 2-4.5 3.7-6.4 1.5-1.7 3.2-3.3 5-4.7.6-.5 1.3-.9 2-1.3 2.2-1.4 4.4-2.8 6.9-3.5 1.1-.3 2.1-.6 3.2-.8 1.3.2 2.6.1 3.9-.2z" class="st3"/><path d="M97.5 70.1c1-.4 1.8-1.1 2.9-1.2.5.7.8 1.6 1.6 2.1.9.5 1.9.3 2.8-.1.9-.3 1.8-.9 2.8-.7.7.1.8.9 1 1.5.2.9.8 1.6 1.6 2.1.6.3 1.4.5 2 .8.7.3 1.4.4 2.1.6.5.1.6.6.9 1 .4.9 1.3 1.4 1.9 2.2.4.6 1 1 1.6 1.3.6.3 1 .7 1.4 1.3.6.8 1.3 1.6 2.3 1.7h.1c.3 2.1.6 4.2.6 6.3 0 1.5.1 2.9.1 4.4 0 1.3.2 2.6.1 3.9-.1.5 0 .9-.1 1.4-.5 1-.5 2.1-.6 3.1-.2 1.3-.5 2.5-.7 3.8-.4 2-1 4-1.3 6.1-.6 1.1-.7 2.4-1.3 3.6-.5 1-1 1.9-1.5 2.9-.5.9-1.1 1.8-1.7 2.7-.8 1.3-1.8 2.4-2.6 3.7-.5.8-.9 1.7-1.6 2.4-.7-.9-1.1-2-1.8-2.9-.9-1.2-1.9-2.3-2.9-3.4-.8-.8-1.5-1.7-2.3-2.4-1.1-.9-2.2-1.8-3.4-2.7-.8-.6-1.7-1-2.5-1.5-1.2-.6-2.5-.9-3.8-1-1.7-.2-3.5.1-5.1.5-1.2.3-2.4.7-3.4 1.5-1.4 1-2.6 2.3-3.9 3.4-1.4 1.3-2.5 2.9-3.7 4.3-.8.9-1.4 1.9-2.1 2.8-1.2-.4-1.7-1.5-2.6-2.3-.5-.5-1-1.1-1.5-1.7-.6-.7-1.3-1.3-1.7-2.2-1.1-1.9-2-3.9-2.6-6-.3-1.1-.7-2.1-1-3.2-.4-1.4-.5-2.8-.8-4.2-.1-.5-.2-.9-.3-1.4.1-1.7-.1-3.5-.4-5.1-.4-2-.6-4-.6-6 0-.6-.1-1.2 0-1.8.5-.8 1-1.5 1.6-2.3 1.1-1.4 2.5-2.7 3.4-4.2 1-1.4 1.6-3.1 2.6-4.4.8-1 2.1-1.5 3.2-2.1 1-.5 2-1 2.8-1.7 1.1-.9 1.6-2.2 2.4-3.3.4-.6 1-.9 1.7-.9 1.4.1 2.9.5 4.2 0 1.3-.6 2.2-1.7 3.3-2.5.7-.6 1.7-.9 2.6-.8.5.1 1 .4 1.5.7.7.2 1.8.3 2.7-.1z" class="st4"/><path d="M125.1 97.8c.7-.3 1.5-.4 2.3-.5.8-.1 1.7-.1 2.4.2 1.4.5 2.7 1.5 3.2 2.9 1 2.6.9 5.4.9 8.1-.1 1.6-.4 3.1-1 4.6-.6 1.9-1.4 3.6-2.4 5.3-.6 1-1.5 1.8-2.3 2.7-.8.9-1.8 1.6-2.7 2.4-1 .7-2 1.4-3.1 1.8-1 .4-2.1.8-3.1 1.1-.9.3-1.9.3-2.9.3.5-2.3 1.4-4.5 2-6.8.4-1.2.6-2.5.9-3.8.4-1.5 1.2-3 1.1-4.6.3-2.1.9-4.1 1.3-6.1.2-1.3.6-2.5.7-3.8.2-1 .1-2.2.6-3.1.8-.1 1.4-.4 2.1-.7zm-65.3 1.5c1.2-.3 2.4-.5 3.6-.3.6 0 1.1.3 1.6.5.3 0 .5 0 .8-.1.3 1.7.5 3.4.4 5.1-.1.5-.2.9-.1 1.4.2 1.4.3 2.8.6 4.2.1.6.3 1.3.4 1.9.4 3 .9 6.1 1.7 9l.6 1.8c.2.5.2 1.1.3 1.7-1.1-.1-2-.6-3.1-.8-1.1-.3-2.1-.6-3.2-.9-1.4-.4-2.6-1.2-3.9-1.8-1.4-.9-2.8-1.8-3.7-3.2-1.2-2-2.3-4.1-2.8-6.4-.4-1.9-.3-3.8.2-5.6.3-1.2.9-2.5 1.8-3.4.6-.7 1.2-1.4 2-1.9 1-.6 1.9-1 2.8-1.2z" class="st5"/><path d="M66.1 105.9c-.1-.5 0-.9.1-1.4.1.5.2.9.3 1.4.3 1.4.4 2.9.8 4.2.3 1.1.7 2.1 1 3.2.6 2.1 1.5 4.1 2.6 6 .5.8 1.2 1.4 1.7 2.2.5.6 1 1.1 1.5 1.7.8.8 1.4 1.9 2.6 2.3.7-.9 1.3-2 2.1-2.8 1.3-1.4 2.3-3 3.7-4.3 1.3-1.2 2.5-2.4 3.9-3.4 1-.7 2.2-1.2 3.4-1.5 1.7-.4 3.4-.7 5.1-.5 1.3.1 2.6.4 3.8 1 .9.5 1.7.9 2.5 1.5 1.1.9 2.3 1.7 3.4 2.7.9.7 1.6 1.6 2.3 2.4 1 1.1 2 2.2 2.9 3.4.7.9 1.1 2 1.8 2.9.7-.7 1-1.6 1.6-2.4.8-1.3 1.8-2.4 2.6-3.7.6-.9 1.1-1.8 1.7-2.7.4-.4.8-.7 1-1.1l.6-1.2c0 .1 0 .3.1.4-.3 1.3-.5 2.5-.9 3.8-.6 2.3-1.5 4.5-2 6.8-.3 1.3-.6 2.6-1 3.9-.5.8-.8 1.7-1.3 2.4-.7 1.2-1.5 2.2-2.3 3.4-.6.9-1.2 1.9-1.9 2.7-.7.9-1.6 1.6-2.4 2.4-1 .9-2.2 1.5-3.4 2-1.8.8-3.7 1.3-5.6 1.7-1.5.2-3.1.4-4.6.3-1.6-.1-3.2-.5-4.8-1-1.1-.4-2.2-.6-3.2-1-1.8-.9-3.5-1.8-5-3-1.1-1-2.2-1.9-3.2-3-.9-1-1.7-2-2.6-3.1-1.3-2-2.4-4.1-3.4-6.3-.3-.7-.9-1.3-1.2-2-.2-.5-.4-.9-.6-1.4 0 0 0-.1-.1-.2-.1-.6-.1-1.1-.3-1.7l-.6-1.8c-.8-3-1.3-6-1.7-9-.1-.7-.3-1.3-.4-1.9-.3-1.5-.4-2.9-.6-4.3z" style="fill:#b65a35"/><path d="M91.8 119.5c1-.2 2-.1 3-.1 1.2 0 2.4-.1 3.6.2l3 .6c.9.2 1.8.8 2.6 1.2.9.4 1.6 1.1 2.3 1.7.7.5.9 1.4 1.1 2.2.3 1 .3 2.1.3 3.1s-.1 2-.5 2.9c-.8 2.1-2.2 4-4 5.5-.8.8-1.9 1.3-2.9 1.7-1.5.6-3.1.7-4.7.9-3.1.2-6.3-.1-9.2-1.3-2.2-.9-4.4-2.2-5.8-4.1-.8-1-1.2-2.2-1.5-3.4-.4-1.1-.6-2.2-.7-3.3 0-.5-.1-1.2.4-1.6 1.3-1.2 2.4-2.6 3.9-3.6 1.2-1 2.7-1.6 4.2-1.9 1.6-.3 3.2-.4 4.9-.7z" class="st4"/><path d="M69.8 124.7c.2.5.4.9.6 1.4.3.7.9 1.3 1.2 2 1 2.2 2.1 4.3 3.4 6.3.8 1.1 1.7 2.1 2.6 3.1 1 1.1 2.1 2 3.2 3 1.5 1.2 3.3 2.2 5 3 1 .4 2.2.7 3.2 1 1.6.5 3.2.9 4.8 1 1.5.1 3.1-.1 4.6-.3 1.9-.3 3.8-.9 5.6-1.7 1.2-.6 2.4-1.2 3.4-2 .8-.8 1.7-1.5 2.4-2.4.7-.9 1.3-1.8 1.9-2.7.7-1.2 1.6-2.2 2.3-3.4.5-.8.8-1.7 1.3-2.4 0 1.1-.3 2.1-.4 3.2-.1.6 0 1.2-.2 1.7-1.2 2-2.3 4-3.5 5.9-1.4 2-2.9 4.1-4.4 6-.8 1-1.6 2-2.6 2.8-.8.6-1.6 1.3-2.5 1.8-1.1.6-2.2 1.4-3.4 1.9-.4.2-.9.4-1.3.2-.8-.3-1.7-.1-2.5.2-.9.4-1.7 1-2.3 1.7-.7.8-1.4 1.6-1.8 2.6-.2.4-.3 1-.8 1.2-.9.4-2 .5-3 .7-2.6.4-5.2.1-7.7-.8-1.8-.8-3.6-1.6-5.2-2.6-1.6-1.1-2.9-2.5-3.9-4.1-.2-.3-.3-.6-.4-.9.5-1.4.9-2.8 1.1-4.3.3-2 .2-4 .2-6-.1-2.5-.2-5.1-.4-7.6s-.4-5-.5-7.5c.1-.7-.1-1.3 0-2z" class="st3"/><path d="M111.3 141.6c1.3-1.9 2.3-4 3.5-5.9-.1 3.4-.7 6.7-.5 10.1 0 1.5.1 3 .3 4.6.1 3.2.7 6.3 1.3 9.4.4 2.2.9 4.3 1.9 6.3 1.1 2.3 2.2 4.6 4 6.4 2.5 2.4 5.3 4.5 7.9 6.7.4.3.9.6 1.1 1.2.3.7-.2 1.5-.4 2.2-.9 2.2-2.1 4.2-3.3 6.2-1.4 2.2-2.8 4.4-4.4 6.4-1.1 1.3-2.2 2.7-3.4 3.9-1.1 1.1-2.3 2.1-3.5 3.2-.8.8-1.7 1.4-2.6 2.1-1.7 1.3-3.7 2.4-5.5 3.5-3.7 2-7.8 3-12 3.4-1.4.1-2.8.3-4.2.3-1.7 0-3.4-.2-5-.5-1.3-.2-2.5-.6-3.8-1-1.2-.4-2.5-.7-3.7-1.2-2.3-.9-4.7-1.8-6.8-3-2.9-1.7-5.4-4-8.1-6-2.1-1.7-4.1-3.6-6-5.5-1.5-1.5-2.8-3.1-4.1-4.8-1.5-1.9-2.7-3.9-3.9-6-.4-.8-.9-1.6-1.2-2.4-.3-.8-.6-1.6-1-2.3-.2-.3 0-.7.2-.9.5-.5 1.2-.9 1.8-1.3.8-.6 1.6-1.2 2.3-1.8 1.2-.9 2.2-2.1 3.3-3.1.8-.7 1.5-1.5 2.2-2.2 3.3-3.2 6.4-6.7 8.7-10.7 1.4-2.1 2.5-4.4 3.2-6.7.1.3.2.6.4.9 1.1 1.6 2.3 3.1 3.9 4.1 1.6 1.1 3.4 1.9 5.2 2.6 2.4 1 5.1 1.2 7.7.8 1-.1 2-.3 3-.7.5-.2.6-.8.8-1.2.4-1 1.1-1.8 1.8-2.6.6-.7 1.4-1.3 2.3-1.7.8-.3 1.7-.5 2.5-.2.4.2.9 0 1.3-.2 1.2-.5 2.2-1.3 3.4-1.9.9-.5 1.7-1.2 2.5-1.8 1-.8 1.7-1.9 2.6-2.8 1.4-1.8 2.9-3.8 4.3-5.9z" class="st4"/><path d="M119.2 115.2c.6-1.1.7-2.4 1.3-3.6 0 1.6-.8 3-1.1 4.6 0-.1 0-.3-.1-.4l-.6 1.2c-.2.5-.7.8-1 1.1.4-1 1-2 1.5-2.9z" class="st7"/><path d="M99.6 89.3c0-1.5.7-2.9 1.6-4 .5.3.2.9.2 1.3l1.2-.9.6.6c.1 0 .2-.1.3-.1.5-.3 1.1-.5 1.7-.7 0 .2.1.3.1.5 2.2-.6 4.5-.3 6.6.4 1.6.6 3.3 1.3 4.5 2.5.8.7 1.4 1.5 2 2.4.2.3.6.8.2 1-.9.4-1.9.3-2.9.2-2-.1-4-.5-5.9-1.1-3-1-6-1.8-9.1-2-.5 0-.8 0-1.1-.1z" class="st8"/><path d="M102.6 85.7c.3-.2.6-.3.9-.4 0 .3 0 .6-.1.8-.1 0-.2.1-.3.1l-.5-.5z" style="fill:#5c4846"/><path d="M78.5 86.1c1.2-.3 2.4-.4 3.6-.4 1.7 0 3.4-.1 5.1.5.5.2.8.7 1 1.1l.6-.3c.2.6.3 1.3.2 1.9-1 .5-2.1.6-3.2.8-2.8.5-5.6.9-8.4 1.5-1.2.2-2.3.5-3.5.8-.9.3-1.9.5-2.8.9-.3.1-.7.4-.9 0-.4-.9-.5-2.1 0-3 .7-1.3 2-2.1 3.3-2.6 1.8-.4 3.4-.8 5-1.2z" class="st8"/><path d="M78.3 92.9c1-.3 2-.5 3-.5.5 0 1-.1 1.5.1 0 .1.1.2.1.2-.5.2-1 .1-1.5.2-1.1.2-2.2.4-3.2.8-.4.1-.7.2-1.1.3v-.4c.3-.3.7-.6 1.2-.7zm27.2.6c.6-.3 1.4-.4 2.1-.4.8-.1 1.7-.1 2.5.1.2 0 .4.2.6.3-1 .1-2 0-3 .1-.9.1-1.7.4-2.6.4.1-.2.2-.4.4-.5z" class="st7"/><path d="M79.2 94.1c.4-.1.8.2 1 .5.3.6.3 1.4.1 2.1-.1.4-.3.9-.7 1.1-.4.2-.8-.1-1-.4-.4-.8-.3-1.7-.1-2.5.1-.3.3-.7.7-.8zm29.6.5c.5 0 .8.4.9.9.1.6 0 1.3-.3 1.8-.2.4-.7.6-1.1.5-.3-.1-.5-.4-.6-.7-.1-.6 0-1.3.3-1.9.1-.3.4-.6.8-.6z" style="fill:#160e0b"/><path d="M77 98.9c1.7-.2 3.3-.1 5-.4v.4c-1 .3-2.1.5-3.2.6-.5 0-1 0-1.4-.1-.3-.1-.3-.3-.4-.5z" class="st7"/><path d="M92.2 98.7h.3c.1.9-.2 1.8-.4 2.6-.5 1.6-.9 3.2-1.3 4.8-.1 0-.2.1-.3.1.1-1.2.4-2.4.6-3.6.4-1.3.6-2.6 1.1-3.9z" style="fill:#fdb796"/><path d="M105.6 98.7h1.3c1.4.1 2.9.1 4.4.1v.3c-1.4.3-2.7.3-4.1.2-.4 0-.9 0-1.3-.2-.3 0-.3-.2-.3-.4z" class="st7"/><path d="M111.1 103.1c1.3 0 2.7.1 3.9.8 1.3.8 2.1 2.3 2.3 3.8.1 1.6-.3 3.2-1 4.6-.8 1.5-2 2.9-3.6 3.6-1.4.6-3 .5-4.5.1-1.3-.4-2.3-1.5-3-2.7-1.7-2.9-.7-7 2.2-8.8.5-.2 1-.4 1.5-.7.5-.4 1.3-.6 2.2-.7zm-33.3 1.4c.9-.1 1.7-.1 2.6.1 1.4.2 2.7 1 3.6 2.1 1 1.5 1.3 3.4 1 5.1-.2 1.4-.9 2.7-1.9 3.7-1.4 1.5-3.6 2.3-5.6 2.2-1.9-.3-3.6-1.4-4.7-2.9-.9-1.4-1.2-3.1-.9-4.8.3-1.6 1.2-3 2.4-4 1.1-.8 2.3-1.3 3.5-1.5z" class="st5"/><path d="M61.5 105c.2-.1.5-.1.7-.1 0 .6-.6.9-.8 1.5-.5 1.5-.3 3.1.1 4.6.4 1.5 1 2.9 1.9 4.1.2.3.3.5.5.8-.3-.1-.5-.2-.7-.5-1.1-1.4-1.9-3-2.4-4.6-.4-1.3-.7-2.8-.3-4.1.2-.6.4-1.3 1-1.7z" class="st12"/><path d="M93.5 109.7c.1-.9 1.3-1.1 2-.9 0 .6-.6.8-1.1.9-.3.1-.6 0-.9 0z" style="fill:#b95934"/><path d="M94.7 110.7c.6-.2 1.3-.3 1.9-.3-.1.6-.6 1.2-1 1.7-.6.8-1.3 1.6-1.9 2.4-.6.6-1.1 1.3-1.9 1.7-.6.2-1.2-.4-1.2-1-.2-1.4.1-2.7.2-4.1.6-.1 1.2-.1 1.7-.1.9.1 1.6 0 2.2-.3z" class="st7"/><path d="M97.3 108.7c-.3.3-.4.7-.6 1-.3.3-.8.5-1.2.5-1.2 0-2.3.3-3.4.4-1.1.1-2.4.2-3.4-.4-.2-.5-.1-1.1 0-1.7.2-1 .5-2 .8-3 .8-2.6 1.4-5.3 1.8-8 .3-1.9.3-3.8-.1-5.6-.2-1.1-.8-2.3-1.9-2.8.4.7 1.1 1.3 1.3 2.1.4 1.5.6 3 .5 4.6-.2 1.9-.5 3.7-.9 5.5-.5 2.4-1.3 4.8-1.9 7.2-.1.7-.4 1.6.2 2.1.7.5 1.7.5 2.5.5.6-.1 1.2-.1 1.7-.1.7.1 1.4 0 2.1-.3.6-.2 1.3-.3 1.9-.3.5-.4.9-1.1.6-1.7z" class="st7"/><path d="M126.9 103.9c-.5-.5-1.2-.8-1.9-.7.4.4 1 .7 1.4 1.2.8 1 1.3 2.3 1.2 3.5-.1 1.5-.7 2.9-1.4 4.2-.6 1-1.2 2-1.9 2.9-.5.5-1.1 1-1.5 1.6.8-.2 1.3-.8 1.8-1.4 1.5-2 3-4.1 3.5-6.6.4-1.6 0-3.5-1.2-4.7zM90 122.6c1-.1 1.9-.4 2.9-.4 2.1-.2 4.3 0 6.4.4 1.1.2 2.3.1 3.3.6-3.2.5-6.5.2-9.8.3-1.5-.1-3 .1-4.5.3-1.2.1-2.4.2-3.5.5-.5.1-1.1.1-1.6.1.4-.3.9-.4 1.4-.5.9-.3 1.8-.6 2.8-.9.8-.3 1.7-.3 2.6-.4z" class="st12"/><path d="M87 126.6c1.6-.7 3.3-.9 5-1 1.6 0 3.2.2 4.7.7 0 .7-.5 1.3-.9 1.8-.4.6-1 1.2-1.8 1.4-1.3.1-2.5.1-3.8.3-.6 0-1.1.2-1.7.1-.3-.2-.5-.6-.7-.9-.4-.8-.8-1.5-.8-2.4z" class="st3"/><path d="M76.2 32.7c1.3-.9 3-.9 4.5-.6 1.1.2 2.3.7 2.9 1.8.2.2.2.5.2.7h-.3c-.3-.6-.8-1.2-1.5-1.5-1.2-.5-2.6-.6-3.9-.5-.7.1-1.3.3-2 .5.1 0 .1-.2.1-.4zm27.2 3.4c-.3.2-.2.6-.2 1h.3c.1-.2.2-.5.4-.6.7-.4 1.5-.5 2.3-.6 1.3-.1 2.7-.1 4 .4.5.2.9.5 1.3.6 0-.5-.5-.7-.9-1-1.4-.7-3-.8-4.5-.7-.9 0-2 .1-2.7.9zm-41.1.4c-1.1 1-1.6 2.5-1.8 3.9-.3 1.6-.4 3.3.2 4.8.1.1.1.2.2.3v-.6c-.4-2.2-.1-4.6.8-6.6.3-.7.7-1.3 1.3-1.8.3-.2.6-.2.9-.3-.1-.1-.2-.2-.4-.3-.4-.1-.9.2-1.2.6zm25.3.9v.5c1.6-.4 3.3-.6 4.9-.1.6.2 1.1.7 1.4 1.3h.3c-.3-1.3-1.6-1.9-2.8-2.1-1.3-.2-2.7-.3-3.8.4zm-14.6.5c-1 .2-2 .6-2.6 1.4-.5.6-1 1.5-.6 2.3.3-1.3 1.3-2.4 2.5-2.8 1.3-.5 2.7-.7 4.1-.4.5.1 1 .5 1.5.6 0-.4-.4-.5-.6-.7-1.3-.7-2.9-.7-4.3-.4zm8.9 4.3c-.8.4-1.5 1-1.8 1.8-.1.4.1.7.4.9.1-.3.1-.8.4-1 .5-.6 1.3-1.1 2.1-1.3.6-.2 1.3-.4 2-.3.5 0 .9.4 1.4.5v-.4c-.4-.3-.8-.5-1.2-.6-1.2-.3-2.4 0-3.3.4zm-17 0c-.2 1 0 2 0 3 0 1.2 0 2.3-.4 3.5-.1.5-.4.9-.6 1.4.2-.1.4-.3.5-.5.4-.7.6-1.5.8-2.3.2-1.2.2-2.4.1-3.6-.1-.5-.1-1-.1-1.5h-.3zm34.6 1.5c-.4.2-.9.5-.9 1 .2.4.4 0 .7-.1 1.1-.7 2.4-.8 3.6-.9.6 0 1.1.2 1.6.3 0-.1 0-.3-.1-.4-.5-.3-1-.4-1.5-.4-1.2-.1-2.4.1-3.4.5zm10.1.4c-.2.1-.4.2-.5.4.2.4.7.1 1.1.2 1.3.2 2.5.8 3.4 1.8.4.5.6 1.1.9 1.6.1-.2.2-.4.1-.6-.3-1.3-1.4-2.2-2.5-2.8-.7-.5-1.6-.8-2.5-.6zm-48.8.9v.6c-.1-.1-.2-.2-.2-.3.1.4.3.8.5 1.2.3-.6 0-1-.3-1.5zM88 48.1c-.2.3-.1.6 0 .9h.5c0-.3.1-.6.3-.7.9-.6 2-.8 3-.7.9 0 1.8.5 2.4 1.2.1-.1.3-.2.4-.2-.8-1.3-2.4-1.8-3.9-1.7-1 .1-2.1.3-2.7 1.2zm29.4-.3c-.1.4.3.7.5 1 .5.9.8 1.8.8 2.8.1.5-.2 1-.3 1.4h.4c.7-1 .5-2.3.3-3.4-.2-.7-.4-1.4-.9-1.8-.3 0-.6.1-.8 0zm-47.9 1.7c-.2 1.3-.4 2.5-.7 3.8h.3c.2-.4.3-.8.4-1.3.3-1.3.6-2.5.7-3.8l-.3-.3c-.3.5-.3 1.1-.4 1.6zm7.5 2.3c-.8 1.4-1.8 2.7-2.7 4-.2.3-.5.5-.7.8 0 .1.1.2.1.2.6-.2 1-.6 1.3-1.1 1.2-1.5 2.2-3.2 3.1-5 .1-.2.1-.4.1-.6-.5.5-.8 1.1-1.2 1.7zm20.7 1.1c-.3.2-.4.5-.3.8.8-.6 1.8-.9 2.8-1 1-.2 2 0 2.8.6 0-.1 0-.2.1-.4-.7-.7-1.8-.8-2.7-.8-1 .1-2 .2-2.7.8zm-15.8 1.8c-.4.5-.9 1-.8 1.7.4-.3.6-.8 1-1.1.7-.7 1.5-1.4 2.4-1.8.6-.3 1.2-.5 1.8-.7v-.3c-1.7.2-3.3 1-4.4 2.2zm26.8-1.3c-.3 0-.3.3-.3.6 1.1.2 1.9 1 2.4 1.9.4.6.4 1.3.5 1.9h.4c.2-1.3-.3-2.5-1.2-3.5-.4-.5-1.1-1-1.8-.9zm-46.6 2.4c-1.5.6-3.1 1-4.7.6-.5-.1-1-.2-1.4-.1-.3 0-.4.3-.4.5.4 0 .8-.1 1.2 0 .8.2 1.6.5 2.5.4 1.9-.2 3.8-1 5.1-2.5-.1 0-.2-.1-.3-.2-.7.4-1.3 1-2 1.3zm27.5.4c-.7.4-1.6.6-2.3 1 .1 0 .3.1.4.2.8-.1 1.5-.5 2.2-.9.5-.3 1-.7 1.2-1.3-.5.3-.9.7-1.5 1zm32.4 1.6c-.6.8-.5 2 .1 2.8.7 1.1 1.8 1.7 3 2 .1-.1.2-.3.3-.3-.6-.3-1.3-.5-1.9-1-.6-.5-1.1-1.3-1.2-2.1 0-.6.4-.9.5-1.5-.3-.2-.7-.3-.8.1zm-55.7 2.6c-.9.5-1.9.9-2.9 1.1-.6.1-1.3-.1-1.9-.1 0 .5.6.6 1 .7 1.2.2 2.3-.4 3.4-.9.9-.4 1.7-1 2.3-1.7.2-.2.1-.4.2-.6-.7.5-1.4 1.1-2.1 1.5zm9.9-1.1c-.8 1.4-2.1 2.6-3.6 3.3-.6.3-1.3.4-2 .4v.4c.8.2 1.7.2 2.4-.2 1.5-.9 2.9-2.1 3.6-3.8-.1-.1-.2-.1-.4-.1zm-26.1.3c.1.1.2.2.2.3.2-.1.3-.2.4-.5-.2.1-.4.2-.6.2zm-2 .7c-1.4.6-2.7 1.4-3.9 2.4-.8.7-1.4 1.6-1.6 2.7-.1.7-.2 1.5.2 2.2.3-.7.1-1.5.3-2.2.4-1.6 1.7-2.7 3-3.5 1.2-.9 2.7-1.5 4.2-1.9-.1-.1-.2-.2-.2-.3-.6.2-1.3.3-2 .6zm88.8-.3v.5c1.2.3 2.5.5 3.5 1.4.8.8 1.5 1.8 1.5 2.9 0 .5-.3 1-.5 1.4h.4c.3-.5.6-1 .6-1.6 0-1.5-.9-3-2.1-3.9-1-.6-2.2-.9-3.4-.7zm-20.2 2.2c.4 1.2.9 2.3 1.7 3.2.4.5.8.9 1.4 1.2 0-.3-.2-.5-.4-.6-.7-.7-1.3-1.6-1.7-2.5-.4-1-.8-2-.6-3.1h-.4c-.3.5-.2 1.2 0 1.8zm11.9-1.4c.3.2.6.5.8.7.6.6 1.3 1 2 1.4 1 .5 2.1.9 3.3 1 .3 0 .7 0 1-.1v-.3c-.5 0-1 0-1.4-.1-1.3-.4-2.7-.9-3.8-1.7-.5-.3-.9-.8-1.4-1.1-.2-.2-.3 0-.5.2zm-78.1 4.9c-.4.4-.7.8-.8 1.4h.3c.2-.3.3-.6.6-.8 1.3-1.3 2.9-2 4.5-2.7 0-.1-.1-.2-.1-.3-1.6.6-3.2 1.3-4.5 2.4zm14.1 2.8c-1.1 1.2-1.5 2.7-2.1 4.2-.6 1.8-1.1 3.7-.5 5.5h.4c-.5-1.6 0-3.2.5-4.8.6-1.7 1.3-3.4 2.5-4.7.3-.4.8-.5 1.2-.5-.1-.2-.2-.5-.4-.5-.6-.1-1.2.4-1.6.8zm66.5-.4c-.4 1.2-.7 2.4-.8 3.6-.1.9.1 1.7.6 2.5h.4c-.2-.6-.5-1.2-.4-1.8 0-1.2.5-2.4.9-3.6.1-.3.2-.7-.1-.9-.4-.1-.6 0-.6.2zm-7 1.5c-.8.8-1.1 2.1-1.1 3.2 0 1.2.3 2.5 1.2 3.4.3.3.6.6 1.1.6 0-.2 0-.4-.2-.5-.4-.4-.7-.7-.9-1.2-.6-1.5-.4-3.1.3-4.5.1-.4.7-.6.6-1.1-.5-.1-.8-.2-1 .1zm11.9 1.3c-.4 1.2-.5 2.5-.1 3.7.2.4.4.9.9.9-.2-.5-.5-1-.5-1.6-.1-1.3.2-2.8 1.1-3.8 0-.1.1-.2.1-.4-.9-.2-1.3.6-1.5 1.2zm5.6-.5c0 .6.2 1.2.2 1.8 0 1.2-.5 2.5-1.4 3.4-.3.3-.7.5-.8 1 .5.1.8-.3 1.2-.6 1.2-1 1.8-2.6 1.8-4.1 0-.5 0-1.1-.3-1.6-.2-.4-.7-.3-.7.1zm-87.4 3c-.5.5-1 1.3-.8 2.1h.4c.1-.4.2-.8.5-1.1.6-.8 1.4-1.4 2.2-1.9.6-.4 1.3-.5 2-.8-.1-.1-.2-.1-.3-.2-1.6.1-2.9.9-4 1.9zm-9.6.3c-.7.6-1.3 1.4-1.7 2.2-.2.5-.1 1-.1 1.5.1 0 .2 0 .2.1.1-.6.2-1.3.6-1.8.7-1 1.6-1.9 2.6-2.6.6-.4 1.3-.7 1.9-1v-.4c-1.3.4-2.5 1-3.5 2zm11.6 4.8c-1 1-1.5 2.3-1.9 3.6-.5 1.7-.6 3.6 0 5.3.1-.1.3-.2.2-.4-.1-.8-.3-1.5-.2-2.3.1-.8.2-1.6.4-2.3.3-1.1.7-2.2 1.4-3.2.3-.4.7-.7.9-1.1-.2.1-.5.2-.8.4zm-10.4 2.2c-.4 1.2.1 2.4.5 3.6.5 1.1 1 2.1 2 2.9-.2-.6-.7-1.1-1-1.7-.6-1.1-1-2.2-1.1-3.4 0-1.4.6-2.7 1.3-3.8-1 .4-1.4 1.5-1.7 2.4zm86.2-.6c-.8.5-1.2 1.5-1.1 2.4.1 1.8 1.1 3.4 2.5 4.5 0-.4-.3-.7-.5-1-.8-1-1.3-2.2-1.3-3.5-.1-.9.4-1.9 1.2-2.4v-.3c-.3.2-.6.1-.8.3zm-7.7 4.1c0 1 .5 1.8 1 2.6.7.9 1.7 1.7 2.8 1.7.1-.2 0-.4-.2-.4-.6-.2-1.2-.5-1.6-.9-.6-.7-1.2-1.6-1.3-2.6-.1-.5.2-.9.1-1.4-.5-.2-.8.5-.8 1zm11.6-.3c-.4 1-.2 2.2.2 3.1.5 1.1 1.3 2.2 2.6 2.6v-.4c-.4-.3-.8-.6-1.1-1-.7-.8-1-1.9-1.1-2.9-.1-.6.1-1.1 0-1.7-.2 0-.5 0-.6.3zm-74.8 1.3c-.7.8-1.1 1.8-1.4 2.7-.4 1.2-.8 2.5-.9 3.7 0 .6 0 1.3.5 1.7.1-.6-.1-1.2 0-1.8.2-1.5.7-3 1.3-4.4.3-.8.7-1.4 1.1-2.2-.3.1-.5.1-.6.3zm-12 6v.4c.3.2.6.5.7.8.2.5.3 1.1.3 1.7 0 1.2-.2 2.4-.6 3.6-.2.6-.6 1.2-.9 1.7h.3c1.1-1.3 1.6-3 1.8-4.7.1-1 .2-2.1-.4-2.9-.3-.3-.8-.5-1.2-.6zm79.2 1.7c0 .6.5 1.1.9 1.5 1.1 1 2.4 1.4 3.8 1.7v-.4c-1.3-.4-2.7-.9-3.6-2-.3-.3-.5-.7-.4-1.1.1-.5.5-.8.8-1.1-1-.2-1.5.6-1.5 1.4zm13.3.4v.5c.5.1.9.4 1.2.8.8 1.1 1.4 2.4 1.5 3.8 0 .5-.2 1-.3 1.5h.5c.2-.4.4-.9.4-1.4.1-1.5-.5-3-1.4-4.2-.5-.6-1.1-1.1-1.9-1zM40.4 94.9c-1.5 1.2-2.3 3.2-2.2 5.1-.1 1.3.6 2.6 1.6 3.5 0-.2 0-.4-.2-.6-.6-.7-.9-1.7-1-2.6-.1-1.5.5-3.1 1.4-4.3.4-.5.9-.9 1.4-1.4.2-.1.2-.3.2-.5-.4.1-.8.5-1.2.8zm95.2-.2c0 .2 0 .5.2.6.6.6 1.2 1.2 1.6 1.9.6.9 1.1 2 1.1 3.1 0 .2.2.4.3.5.3-.4.2-.9.1-1.4-.2-1.4-.9-2.7-1.8-3.8-.3-.5-.8-1-1.5-.9zM31.5 98.1c-.2 1.5-.1 3.1.5 4.6.3.6.7 1.4 1.4 1.6-.3-.5-.7-.9-.9-1.4-.4-.8-.5-1.7-.6-2.6 0-1.4.1-2.9.9-4.1.2-.4.7-.6 1-.8-.1-.1-.3-.2-.4-.2-1.2.3-1.8 1.7-1.9 2.9zm25.2-.6c-1.1.5-2.2 1.2-2.7 2.3v.5c.1 0 .3 0 .3-.1.3-.5.7-.9 1.1-1.3 1-.8 2.3-1.5 3.7-1.3v-.3c-.8-.2-1.6-.1-2.4.2zm-2.9 3.1h.4c0-.2.1-.3.1-.5-.1 0-.3 0-.3.1v-.5c-.1.4-.1.7-.2.9zm-3.9 3.4c-.6.7-1 1.6-1.5 2.4-.5 1-1 2.1-1.3 3.2 0 .3-.1.5-.1.8h.2c.8-2.2 2-4.2 3.3-6.2.2-.2.1-.5 0-.7-.3.2-.5.3-.6.5zm87.4 1.6c-.7.6-1 1.6-.9 2.5.1 1.3.6 2.5 1.3 3.6.4.5.7 1 1.3 1.3l-.6-.9c-.5-.7-.9-1.5-1.2-2.4-.3-1-.5-2-.1-3 .2-.5.6-.9.9-1.3-.3 0-.5.1-.7.2zm4 1.1c-.4.4-.4.9-.4 1.5 0 1 .2 1.9.5 2.8.3 1 .8 1.9 1.6 2.5 0-.2 0-.4-.1-.6-.8-1.1-1.1-2.5-1.3-3.9-.1-.8-.1-1.7.5-2.5-.4.1-.7-.1-.8.2zm-102.2 2.8c-.7 1-1.2 2.1-1.4 3.3-.1.8-.1 1.6-.1 2.4 0 1.2.3 2.4.7 3.6.1.1.2.1.3.2 0-.1 0-.1-.1-.2-.6-1.8-.7-3.7-.4-5.6.2-1.3.7-2.5 1.4-3.5.1-.2.1-.4.1-.6-.2 0-.4.1-.5.4zm7.5 1.6c.1 0 .2.1.2.1.2-.2.3-.5.4-.8H47c0-.3.1-.5.1-.8-.3.5-.5 1-.5 1.5zm6 2.7c-.4.9 0 1.8.4 2.5.8 1.4 2 2.7 3.5 3.3-.1-.2-.1-.4-.3-.5-.8-.6-1.5-1.3-2.1-2.1-.7-1-1.2-2.1-1.1-3.3-.1.1-.3.1-.4.1zm93 1.3c0 .1-.1.3-.2.4.5.6.8 1.3.6 2-.2 1.5-1.1 2.9-2.5 3.6v.3c.2 0 .4 0 .6-.1 1-.5 1.8-1.5 2.3-2.5.4-.8.6-1.7.4-2.6-.2-.6-.6-1.2-1.2-1.1zm-10.4.1c0 .5.1 1.1 0 1.6-.1.8-.4 1.5-.8 2.1-.5.9-1.1 1.8-2 2.2v.4c1.2-.4 2-1.5 2.6-2.5.6-1 1.2-2.3.8-3.5 0-.2-.3-.3-.6-.3zM43.7 118c-.3 1 .2 2.1.8 2.9.6.9 1.5 1.7 2.5 2.1 0-.1 0-.2.1-.2-1.5-.7-2.5-2.1-2.9-3.6-.2-.6.1-1.1.1-1.7-.2.2-.5.3-.6.5zm7 0c-.4.9-.1 2 .2 2.9.6 1.3 1.3 2.5 2.3 3.5.4.4.8.7 1.3.9-.5-.5-1.1-.9-1.5-1.5-1-1.3-1.6-2.8-1.9-4.4-.1-.6 0-1.1 0-1.7-.2 0-.4.1-.4.3zm-12.4.7c.3.7.7 1.6 1.5 1.9-.3-.7-.8-1.3-1.2-1.9 0 .1 0 .1.1.2-.2-.1-.3-.1-.4-.2zm99.3 3.5c-.8 1.1-1.8 2.1-3.1 2.6v.4c1.6-.4 2.8-1.6 3.8-2.9.5-.7 1-1.4 1.1-2.2-.1-.1-.3-.2-.4-.2-.5.7-.9 1.6-1.4 2.3zM62 125.7c.1.1.2.3.2.4 1.5-.2 3.1.3 4.2 1.4-.1-.2-.1-.4-.2-.7-.7-.6-1.5-1-2.3-1.3-.6-.2-1.3-.2-1.9.2zm63.8 1c-.8 1.1-2.1 1.8-3.4 2.3-1.1.5-2.5.6-3.6 0v.3c.6.6 1.5.8 2.3.7 1.1-.1 2.1-.6 3-1.1.8-.5 1.8-1.1 2.1-2.1-.2-.1-.3-.1-.4-.1zm4.4 0c0 .4.2.8.2 1.3 0 .6-.2 1.1-.5 1.6-.5.9-1.2 1.6-2.1 2.1v.4c.5 0 1-.3 1.4-.6.9-.7 1.6-1.6 2-2.7.2-.7.2-1.5-.2-2.1-.2-.1-.6-.1-.8 0zm-63.9.1c.1.2.1.4.2.7.1.3.3.6.5.9.1-.7-.2-1.3-.7-1.6zm-8.2 0c-.1.1-.2.2-.2.3.5.9 1.2 1.7 2.1 2.2.8.3 1.7.6 2.6.5.1-.1.3-.1.4-.2-.3-.1-.6-.1-.9-.2-.8-.2-1.7-.5-2.4-1-.5-.5-1-1.1-1.6-1.6zm-9.2.6c-.1.6.1 1.1.4 1.5.6.8 1.4 1.2 2.3 1.6.5.2 1.1.5 1.7.5h.8c-.1-.1-.3-.1-.4-.2-.7-.3-1.5-.5-2.1-.9-1-.6-1.9-1.4-2.2-2.6-.2.1-.4.1-.5.1zm13.2 2c.3.1.6.1.9.2-.1.1-.3.1-.4.2.5 0 .9-.2 1.3-.4v-.4c-.6.3-1.2.5-1.8.4zm70.7.3c.2.1.3.1.5.2-.3.7-.7 1.4-1.2 2-.3.4-.7.6-1 1 .3 0 .6.1.8-.1.9-.7 1.6-1.6 2-2.7.1-.4.1-1-.4-1-.4-.1-.6.3-.7.6zm-79.1 1.2c.1.1.3.1.4.2h-.8c.5.3 1.2.1 1.7 0v-.3c-.4.1-.9.1-1.3.1zm64.6 1.8c.2.3.4.6.8.8 1.2.7 2.7.8 4.1.7 1-.1 2.1-.5 2.5-1.4-.5 0-.8.4-1.2.6-.7.3-1.5.3-2.2.3-1.2-.1-2.3-.3-3.4-.9-.3-.1-.5-.1-.6-.1zm-59.5.3c0 .8.6 1.5 1.4 1.8 1 .4 2.1.5 3.1 0 .6-.3 1-1 1.3-1.5h-.4c-.2.4-.5.8-.9 1-.7.5-1.7.4-2.5.2s-1.4-.7-1.8-1.4c0-.1-.2-.1-.2-.1z" style="fill:#9c2946"/><path d="M96.4 151.2h-.3c0 .9.3 1.7.5 2.5.3 1.1.4 2.2.5 3.3.2 1.6-.2 3.2-.3 4.8-.2.6-.4 1.2-.5 1.8.5-.4.7-1 .7-1.6.4-.9.4-1.9.6-2.9.3-2.7-.2-5.4-1.2-7.9zm-6.6 5c0-1.5.2-3.1-.3-4.6-.1 0-.2 0-.3-.1v4.3c0 1.4.2 2.8.5 4.2.2.9.4 1.8.8 2.7 0 .4.3.7.5 1 .1-.7-.3-1.3-.6-1.9-.3-1.9-.7-3.7-.6-5.6z" class="st7"/><path d="M45.5 181.4c.7 0 1.1.6 1.4 1.2.8 1.4 1.5 2.9 2.1 4.4h-.4c-.9-1.8-2-3.6-3.2-5.2 0-.1 0-.3.1-.4z" style="fill:#ca6a9a"/><path d="M42.8 182.7c.1-.2.3 0 .5.1.1.4.1.8.1 1.2v2.7H43c-.2-1-.2-2-.4-2.9 0-.5-.1-.9.2-1.1z" style="fill:#cd729d"/><path d="M47.4 189.3c.5-.2.7.4.9.7.9 1.7 2.1 3.2 3.6 4.4v.4c-.8-.3-1.3-.9-1.9-1.4-.8-.8-1.6-1.7-2.2-2.7-.3-.5-.6-.9-.4-1.4z" style="fill:#cd6f9c"/><path d="M37.5 208h.5c.5.9.9 1.9 1.7 2.6.6.6 1.4 1 2 1.6.9.9 1.8 1.8 2.6 2.8.4.4.7.9.9 1.4-.5-.3-.8-.8-1.1-1.2-.8-.9-1.7-1.8-2.6-2.5-.8-.7-1.8-1.2-2.4-2-.8-.8-1.2-1.8-1.6-2.7z" style="fill:#cb6797"/><path d="M22.9 212.7c.5.1.7.6 1 1 1.3 1.6 3.3 2.6 4.6 4.2 1.3 1.4 2.6 2.8 3.4 4.6-.1 0-.2.1-.2.1-.9-1.6-2.2-2.9-3.5-4.1-1.5-1.4-3.4-2.4-4.6-4.2-.4-.5-.6-1-.7-1.6z" style="fill:#cc6c9a"/><path d="M55.7 223.2c.9-.1 1.7.2 2.6.5 2 .7 3.9 1.6 5.8 2.4 2.1.9 4.4 1.4 6.6 1.6v.3c-2.8-.1-5.6-.8-8.2-1.8-2-.8-3.9-1.7-6-2.3-.6-.2-1.1-.2-1.7-.1.2-.3.5-.6.9-.6zM28.5 229c.4 1.2.8 2.3 1.3 3.4.4.9.8 1.8 1.3 2.6h.5c-1-2.1-1.7-4.2-2.4-6.4-.4-1.1-.7-2.3-1.6-3.2h-.4c.1.3.3.6.4.9.5.9.7 1.8.9 2.7z" class="st20"/><path d="M137.3 204.6c-1 1.4-2.2 2.5-3.4 3.6-.8.7-1.8 1.4-2.9 1.7-.4.1-.7.2-1 .5 1.2.2 2.4-.3 3.4-1 1.1-.7 2-1.7 2.9-2.7.6-.8 1.4-1.6 1.6-2.6-.2.1-.4.3-.6.5zm23.6 3.6c-1 .6-1.8 1.5-2.7 2.3-1.7 1.6-2.4 4.1-4.4 5.4v.4c1.2-.1 2.1-1.2 2.8-2.1.9-1.3 1.7-2.7 2.7-3.8.5-.6 1.1-1 1.5-1.6.6-.4 1.2-1 1.4-1.7-.6.2-1.1.6-1.3 1.1zm-17.3 12.1c.7-.8 1.4-1.7 2.2-2.5 1.3-1.3 2.7-2.3 4.3-3.3.7-.5 1.6-1.1 1.8-2.1-.7.1-1.1.6-1.7.9-1.5.9-3.1 1.7-4.3 3-.7.8-1.4 1.6-2 2.4-.4.6-.8 1.1-.9 1.8.1 0 .4 0 .6-.2zm-42.7.4c-2.7.3-5.4.4-8.1.7-1.2.1-2.4.4-3.4 1.1.1.1.1.3.2.4 1-.1 2-.4 3.1-.6 1.6-.2 3.3-.4 4.9-.6 1.2-.2 2.3-.3 3.4-.6-.1-.1-.1-.3-.1-.4zm44.8 14.3c0-.1 0-.1 0 0 .6-1.4 1.1-2.8 1.8-4.1.9-1.8 1.5-3.7 2.6-5.5.7-1.2 1.6-2.4 2.2-3.8.1-.2 0-.5 0-.7-.3 0-.7.1-.9.4-.9 1.3-2 2.4-2.8 3.8-1.1 1.7-1.7 3.7-2.3 5.6-.5 1.3-.9 2.7-1.2 4.1v.2h.6zm-34.6-7.3c-.6 0-1.1.2-1.7.3-2.2.3-4.5.1-6.7 0-1 0-2 .1-2.9.7v.4c.7-.2 1.4-.4 2.1-.4.9 0 1.8.1 2.6.1 1.5.1 3 0 4.5-.3.9-.2 1.9-.3 2.7-.8.5 0 1-.5 1.4-.8-.1 0-.2-.1-.3-.1-.5.3-1.1.6-1.7.9zm42.6 7.3c.2-1.8.5-3.6 1-5.4.2-.7.5-1.3.5-2-.2-.6-.9-.3-1 .1-1.1 2.2-1.4 4.7-1.4 7.2h.9zm-12.5 0c.1-.2.2-.5.3-.7.5-1.1 1.1-2.1 1.6-3.2s.8-2.3.6-3.5h-.5c-.3 1.1-.7 2.2-1.2 3.2-.5 1.1-1.1 2.1-1.4 3.3-.1.3-.2.6-.2.9h.8z" style="fill:#ca6898"/><path d="M46.9 235h.5c-.1-.1-.1-.2-.2-.2-1.2-1.6-2.3-3.3-3-5.1-.1-.3-.3-.5-.6-.5.1 1.8 1.3 3.2 2.2 4.5.4.4.8.8 1.1 1.3z" style="fill:#d27ca6"/><path d="M38.2 230.7c0-.7-.2-1.4-.3-2.1-.3-1.6-.4-3.3-1-4.9-.4-1-.8-1.9-1.4-2.8-.1-.3-.4-.4-.7-.5.1.8.6 1.4.8 2.1 1.1 2.8 1.6 5.8 2.3 8.8.1.6.3 1.1.4 1.7h.3c0-.7-.1-1.5-.4-2.3z" class="st20"/></g></svg>