<?xml version="1.0" encoding="utf-8"?>
<!-- Generator: Adobe Illustrator 25.2.0, SVG Export Plug-In . SVG Version: 6.00 Build 0)  -->
<svg version="1.1" id="Layer_1" xmlns="http://www.w3.org/2000/svg" xmlns:xlink="http://www.w3.org/1999/xlink" x="0px" y="0px"
	 viewBox="0 0 180 180" style="enable-background:new 0 0 180 180;" xml:space="preserve">
<style type="text/css">
	.st0{clip-path:url(#SVGID_2_);}
	.st1{fill:#B1BFAB;}
	.st2{fill:#FFFFFF;}
	.st3{fill:#E56324;}
	.st4{fill:#DC9EB5;}
	.st5{fill:#BE7894;}
	.st6{fill:#F2844F;}
	.st7{fill:#F95939;}
	.st8{fill:#BAC9B4;}
	.st9{fill:#FCB593;}
	.st10{fill:#FCB998;}
	.st11{fill:#CC492F;}
	.st12{fill:#15100D;}
	.st13{fill:#FCB492;}
	.st14{fill:#B95D38;}
	.st15{fill:#B75D39;}
	.st16{fill:#BA6543;}
	.st17{fill:#F18451;}
</style>
<g>
	<defs>
		<rect id="SVGID_1_" width="180" height="180"/>
	</defs>
	<use xlink:href="#SVGID_1_"  style="overflow:visible;fill:#2929CC;"/>
	<clipPath id="SVGID_2_">
		<use xlink:href="#SVGID_1_"  style="overflow:visible;"/>
	</clipPath>
	<g class="st0">
		<g>
			<path class="st1" d="M90.1,38.9c1.9-0.2,3.7-0.1,5.6-0.1c1.2,0.1,2.3,0.3,3.5,0.3c1.3,0,2.6,0.3,3.9,0.6c1.3,0.3,2.5,0.7,3.7,1.2
				c1.5,0.6,2.8,1.4,4,2.4c1.2,0.9,2.4,1.8,3.5,2.9c0.9,0.8,1.5,1.8,2.2,2.8c0.8,1.1,1.7,2.2,2.5,3.4c1.3,2,2.4,4.1,3,6.4
				c0.4,1.4,0.9,2.7,1.1,4.1c0.3,1.6,0.6,3.1,0.9,4.7c0.2,1.1,0.2,2.3,0.3,3.4c0,1.7,0,3.4,0,5c-0.2,1.7-0.3,3.3-0.3,5
				c0,3-0.8,5.8-1.2,8.8c-0.5,2.5-1.1,5-1.4,7.6c-0.2,1.6-0.3,3.3-0.5,4.9c-0.5,2.7-0.8,5.3-1.6,7.9c-0.8,3.8-1.7,7.6-2,11.5
				c-0.1,1.3-0.2,2.5-0.2,3.8c-0.3,2.7-0.8,5.4-1.3,8.1c-0.2,1.2-0.7,2.4-1.1,3.6c-0.4,1.2-1,2.4-1.6,3.5c-0.9,1.8-2.1,3.5-3.2,5.1
				c-1.4,2-3,4-4.7,5.9c-0.8,0.8-1.4,1.6-2.2,2.3c-1.6,1.6-3.1,3.2-4.8,4.7c-0.7,0.5-1.3,1.2-2,1.7c-0.4,0.3-0.8,0.6-1.2,1
				c-0.6,0.6-1.3,1-1.9,1.6c-0.7,0.7-1.4,1.3-2.2,1.9c-1.5,1.3-3.2,2.5-4.8,3.6c-0.8,0.6-1.7,1.2-2.5,1.7c-0.9,0.5-1.8,1-2.7,1.4
				c-1.1,0.5-2.1,1-3.3,1.4c-0.7,0.2-1.3,0.5-2,0.5c-0.9,0-1.8,0-2.5-0.4c-0.6-0.3-1-0.8-1.5-1.2c-0.3-0.5-0.3-1.1-0.2-1.6
				c0.2-0.8,0.3-1.7,0.7-2.4c0.4-1.2,1.2-2.1,1.8-3.2c0.4-0.7,0.9-1.3,1.2-2.1c-0.7,0.5-1.1,1.2-1.7,1.9c-0.4,0.4-0.7,0.9-1.2,1.3
				c-0.6,0.6-1.1,1.3-1.8,1.8c-0.9,0.8-2,1.4-3.2,1.6c-0.8,0.1-1.6,0-2.3-0.4c-0.7-0.5-1.1-1.3-1.2-2.1c0-0.6,0-1.1,0.1-1.7
				c0.7-2,1.7-4,3.2-5.5c0.3-0.4,0.6-0.9,0.8-1.3c0.3-0.6,0.7-1.1,1-1.7c-0.5,0.5-0.8,1.1-1.3,1.5c-0.7,0.6-1.3,1.2-2.1,1.7
				c-1,0.7-2.1,1.4-3.3,1.7c-0.5,0.1-1.1,0.3-1.7,0.1c-0.4-0.5-1-1-1-1.7c0.1-1.8,1.2-3.3,2-4.9c0.4-0.9,1.1-1.5,1.6-2.3
				c0.1-0.2,0.2-0.4,0.4-0.5c0.6-0.4,0.9-1.1,1.3-1.6c0.9-1.1,1.7-2.3,2.5-3.5c-1.9,1.1-3.7,2.3-5.9,2.8c-0.6-0.2-1.1,0.2-1.7,0
				c-0.4-0.1-0.9-0.3-1.3-0.4c-0.5-0.5-1-1.1-1.1-1.8c-0.1-0.7,0-1.5,0.3-2.2c0.1-0.2,0-0.3,0-0.5c0.2-1.2,0.7-2.3,1-3.4
				c0.6-1.8,0.9-3.7,1.1-5.6c0.1-1,0-2,0-3.1c-0.1-1.4-0.1-2.9-0.4-4.3c0,0-0.1,0-0.2,0c-0.5-1.9-0.9-3.9-1.3-5.8
				c-0.4-1.4-0.7-2.8-1-4.3c-0.2-1-0.5-1.9-0.6-2.9c-0.2-1.1-0.2-2.3-0.3-3.4c-0.3-2.6-0.1-5.2-0.5-7.7c-0.1-1.4-0.2-2.9,0.1-4.3
				c0.3-1.5,0.5-3,0.9-4.5c0.6-2.5,1.1-5.1,1.5-7.7c0.1-1,0-2,0-3c-0.1-2-0.3-3.9-0.4-5.9c-0.2-1.7-0.3-3.5-0.3-5.3
				c0-1.4-0.1-2.7,0-4.1c0.1-0.7,0-1.5,0.1-2.2c0-1.2,0.3-2.4,0.5-3.7c0.5-2.3,0.9-4.7,2-6.8c1.3-2.9,3.3-5.5,5.4-7.8
				c2.1-2.2,4.7-3.9,7.3-5.4c2.4-1.4,4.9-2.3,7.5-3.3c1.4-0.5,2.9-0.8,4.4-1.1C86.5,39.4,88.3,39,90.1,38.9z"/>
			<path class="st2" d="M57.5,94.1c0.2-0.9,0.4-1.8,0.5-2.7c0.1,0.9-0.1,1.8-0.2,2.8C57.7,94.2,57.5,94.2,57.5,94.1z"/>
			<path class="st3" d="M117.2,125.4c0-1.3,0.2-2.5,0.2-3.8c0.2,0.7,0.5,1.3,0.7,2c0.5,1.3,1.3,2.4,1.9,3.6c0.6,0.9,1.3,1.7,2,2.5
				c0.1,0.4,0.3,0.8,0.3,1.2c0,1.2,0.2,2.4,0.3,3.6c0,2.5-0.7,5-1.8,7.3c-0.5,1.2-1,2.4-1.7,3.5c-0.5,0.9-1.2,1.7-1.8,2.6
				c-0.7,0.8-1.3,1.7-2.1,2.4c-0.9,0.8-1.7,1.7-2.6,2.4c-1,0.9-2,1.6-3,2.4c-1.6,1.2-3.4,2.2-5.2,3.1c-2.2,1-4.5,1.7-6.9,2
				c-0.5,0.1-0.9,0.2-1.4,0.1c0.7-0.5,1.3-1.2,2-1.7c1.6-1.5,3.2-3.1,4.8-4.7c0.8-0.7,1.5-1.6,2.2-2.3c1.7-1.8,3.2-3.8,4.7-5.9
				c1.1-1.7,2.3-3.3,3.2-5.1c0.6-1.1,1.2-2.3,1.6-3.5c0.4-1.2,0.9-2.4,1.1-3.6C116.4,130.8,116.8,128.1,117.2,125.4z"/>
			<path class="st3" d="M59.3,128.7c0,0,0.1,0,0.2,0c0.3,1.4,0.3,2.9,0.4,4.3c0,1,0,2,0,3.1c-0.2,1.9-0.5,3.8-1.1,5.6
				c-0.3,1.1-0.8,2.2-1,3.4c-0.2-0.1-0.4-0.2-0.6-0.4c-0.7-0.9-1.5-1.7-2.1-2.6c-0.8-1.1-1.6-2.1-2.3-3.2c-0.3-0.5-0.4-1.1-0.7-1.6
				c1.1-1.1,2.3-2.2,3.4-3.4C56.8,132.2,58.3,130.6,59.3,128.7z"/>
			<path class="st4" d="M200.4,232.5c0.5-0.5,1-1,1.3-1.6c-0.1-0.8-0.1-1.6-0.2-2.4c-0.4-4.5-0.9-8.9-1.6-13.3
				c-0.7-4.3-1.3-8.6-2.6-12.7c-1.8-5.5-4.5-10.6-7.1-15.8c-2.8-4.1-5.9-8-9.1-11.7c-1.6-1.8-3.1-3.6-4.8-5.4
				c-0.5-0.6-0.9-1.3-1.5-1.9c-0.7-0.6-1.2-1.4-2-1.9c-0.2-0.1-0.4-0.3-0.5-0.4c-0.1-0.1-0.2-0.2-0.4-0.3c-0.1-0.1-0.3-0.3-0.4-0.4
				c-0.5-0.7-0.9-1.3-1.5-1.9c-0.9-0.9-1.8-1.8-2.7-2.5c-1.9-1.5-3.9-3-5.8-4.5c-0.8-0.6-1.6-1.1-2.5-1.7c-1.5-1.1-3.1-2.1-4.6-3.1
				c-2.2-1.5-4.5-2.9-6.8-4.3c-2.6-1.6-5.3-3.1-7.9-4.8c-1.8-1.2-3.5-2.6-5.3-3.8c-1.2-0.9-2.4-1.7-3.6-2.6
				c-0.7-0.6-1.5-1.2-2.2-1.8c-1.5-1.3-3.2-2.2-4.8-3.3c-0.5-0.4-1-0.8-1.7-0.7c0.1,0.4,0.3,0.8,0.3,1.2c0,1.2,0.2,2.4,0.3,3.6
				c0,2.5-0.7,5-1.8,7.3c-0.5,1.2-1,2.4-1.7,3.5c-0.5,0.9-1.2,1.7-1.8,2.6c-0.7,0.8-1.3,1.7-2.1,2.4c-0.9,0.8-1.7,1.7-2.6,2.4
				c-1,0.9-2,1.6-3,2.4c-1.6,1.2-3.4,2.2-5.2,3.1c-2.2,1-4.5,1.7-6.9,2c0,0.2,0,0.4-0.1,0.5c-0.6,0.8-1.1,1.7-1.7,2.5
				c-1,1.4-2.1,2.6-3.2,3.8c-0.8,0.9-1.7,1.7-2.6,2.5c-0.9,0.9-1.9,1.7-2.9,2.5c-0.7,0.5-1.4,1.1-2.1,1.6c-0.9,0.6-1.7,1.2-2.6,1.7
				c-1.8,1.2-4,1.8-6.1,2.2c-1.3,0.2-2.6,0.1-3.8-0.2c-0.8-0.2-1.4-1.1-1.5-1.9c-0.2-1.2-0.1-2.5,0.7-3.4c-0.3-0.5-0.3-1.1-0.2-1.6
				c-0.6,0.7-1.1,1.4-1.7,2c-0.9,0.8-2,1.6-3.2,1.6c-0.7,0-1.6,0.2-2.1-0.3c-0.4-0.3-0.8-0.8-0.8-1.3c-0.1-1.1,0.4-2.2,1-3.2
				c0.1-0.2,0.3-0.2,0.5-0.3c-0.7-0.5-1.1-1.3-1.2-2.1c0-0.6,0-1.1,0.1-1.7c-0.5,0.3-1.1,0.7-1.7,0.7c-0.7,0-1.5,0-2-0.4
				c-0.4-0.3-0.8-0.7-0.8-1.3c-0.1-1,0.5-1.8,1.2-2.4c-0.4-0.5-1-1-1-1.7c0.1-1.8,1.2-3.3,2-4.9c-0.5,0.1-1,0.1-1.4-0.1
				c-0.5-0.2-1-0.3-1.5-0.5c-0.7-0.4-1.3-1.2-1.4-2c-0.2-1.1,0.3-2.3,1.2-3c-0.5-0.5-1-1.1-1.1-1.8c-0.1-0.7,0-1.5,0.3-2.2
				c0.1-0.2,0-0.3,0-0.5c-0.2-0.1-0.4-0.2-0.6-0.4c-0.7-0.9-1.5-1.7-2.1-2.6c-0.8-1.1-1.6-2.1-2.3-3.2c-0.3-0.5-0.4-1.1-0.7-1.6
				c-0.3-0.1-0.5-0.2-0.8,0c-0.8,0.4-1.5,0.8-2.3,1.2c-1,0.6-2,1.1-3,1.6c-3.6,2.9-7.3,5.7-11.5,7.7c-0.9,0.6-1.9,1.2-2.8,1.9
				c-0.1,0.1-0.2,0.1-0.2,0.1c-4.2,3.3-8.7,6.2-13.2,9c-0.3,0.2-0.6,0.4-0.9,0.6c-2.2,1.5-4.5,2.8-6.7,4.2c-1.5,0.9-3,1.9-4.4,2.9
				c-0.8,0.7-1.6,1.4-2.4,2.2c-1.6,1.2-3.1,2.4-4.5,3.7c-2.3,2.2-4.4,4.6-6.3,7.2c-0.4,0.4-0.7,0.8-1.1,1.3c-0.5,0.5-0.8,1.1-1,1.8
				c-0.3,0.4-0.5,0.8-0.8,1.3c-2.7,4.3-4.7,9.1-6.3,13.9c-1.1,3.1-1.9,6.4-2.6,9.6c-1.7,6-3.2,12-4.4,18.1c-0.5,2.3-0.9,4.7-1.3,7.1
				c0,0,0,0,0,0H200.4z"/>
			<path class="st3" d="M61.5,149.8c2.1-0.5,4-1.7,5.9-2.8c-0.8,1.2-1.6,2.4-2.5,3.5c-0.4,0.5-0.8,1.2-1.3,1.6
				c-0.3-0.5-0.8-0.8-1.1-1.3C62.2,150.5,62,150,61.5,149.8z"/>
			<path class="st5" d="M57.3,152.5c-0.2-1.1,0.3-2.3,1.2-3c0.5,0.1,0.9,0.2,1.3,0.4c0.6,0.2,1.1-0.2,1.7,0c0.5,0.1,0.7,0.7,0.9,1
				c0.3,0.5,0.9,0.8,1.1,1.3c-0.1,0.2-0.3,0.4-0.4,0.5c-0.5,0.8-1.2,1.5-1.6,2.3c-0.5,0.1-1,0.1-1.4-0.1c-0.5-0.2-1-0.3-1.5-0.5
				C58,154.1,57.4,153.3,57.3,152.5z"/>
			<path class="st3" d="M67.6,158.2c0.5-0.5,0.8-1.1,1.3-1.5c-0.3,0.6-0.7,1.2-1,1.7C67.8,158.3,67.7,158.2,67.6,158.2z"/>
			<path class="st5" d="M65.5,159.9c0.8-0.5,1.4-1.1,2.1-1.7c0.1,0,0.2,0.1,0.3,0.2c-0.3,0.4-0.5,0.9-0.8,1.3
				c-1.5,1.5-2.5,3.5-3.2,5.5c-0.5,0.3-1.1,0.7-1.7,0.7c-0.7,0-1.5,0-2-0.4c-0.4-0.3-0.8-0.7-0.8-1.3c-0.1-1,0.5-1.8,1.2-2.4
				c0.6,0.2,1.1,0,1.7-0.1C63.4,161.3,64.5,160.6,65.5,159.9z"/>
			<path class="st5" d="M95.1,161.3c0.3-0.4,0.7-0.7,1.2-1c0.5,0.2,0.9,0,1.4-0.1c0,0.2,0,0.4-0.1,0.5c-0.6,0.8-1.1,1.7-1.7,2.5
				c-1,1.4-2.1,2.6-3.2,3.8c-0.8,0.9-1.7,1.7-2.6,2.5c-0.9,0.9-1.9,1.7-2.9,2.5c-0.7,0.5-1.4,1.1-2.1,1.6c-0.9,0.6-1.7,1.2-2.6,1.7
				c-1.8,1.2-4,1.8-6.1,2.2c-1.3,0.2-2.6,0.1-3.8-0.2c-0.8-0.2-1.4-1.1-1.5-1.9c-0.2-1.2-0.1-2.5,0.7-3.4c0.5,0.4,0.9,0.9,1.5,1.2
				c0.8,0.4,1.7,0.4,2.5,0.4c0.7,0,1.4-0.3,2-0.5c1.1-0.4,2.2-0.9,3.3-1.4c0.9-0.5,1.8-0.9,2.7-1.4c0.9-0.5,1.7-1.1,2.5-1.7
				c1.6-1.2,3.3-2.3,4.8-3.6c0.8-0.6,1.5-1.2,2.2-1.9C93.8,162.4,94.5,162,95.1,161.3z"/>
			<path class="st3" d="M73.4,164.6c0.5-0.6,1-1.4,1.7-1.9c-0.3,0.7-0.8,1.4-1.2,2.1C73.7,164.7,73.6,164.6,73.4,164.6z"/>
			<path class="st5" d="M72.2,165.9c0.4-0.4,0.8-0.9,1.2-1.3c0.2,0.1,0.3,0.1,0.5,0.2c-0.6,1.1-1.4,2-1.8,3.2
				c-0.3,0.8-0.5,1.6-0.7,2.4c-0.6,0.7-1.1,1.4-1.7,2c-0.9,0.8-2,1.6-3.2,1.6c-0.7,0-1.6,0.2-2.1-0.3c-0.4-0.3-0.8-0.8-0.8-1.3
				c-0.1-1.1,0.4-2.2,1-3.2c0.1-0.2,0.3-0.2,0.5-0.3c0.7,0.4,1.5,0.6,2.3,0.4c1.2-0.2,2.3-0.8,3.2-1.6
				C71.2,167.2,71.6,166.5,72.2,165.9z"/>
		</g>
		<g>
			<path class="st6" d="M105.3,52.6c1.8-0.5,3.7,0.2,5.5,0.6c0.7,0.3,1.5,0.5,2.2,0.8c0.6,0.3,1.2,0.5,1.7,0.9
				c0.8,0.4,1.6,0.8,2.3,1.4c0.7,0.6,1.3,1.4,1.9,2.1c1,1.3,1.5,2.8,2.1,4.2c0.8,2.4,1.1,5,1.1,7.5c0.1,1.8,0.1,3.7,0.1,5.5
				c-0.1,1.3-0.2,2.7-0.2,4c-0.1,1.8-0.2,3.6-0.3,5.4c0,1.7-0.3,3.4-0.3,5.1c-0.3,1.3-0.5,2.5-0.6,3.8c-0.1,1.6-0.3,3.2-0.4,4.8
				c-0.2,2.4-0.3,4.8-0.9,7.1c-0.1,0.6-0.5,1.3-0.2,1.9c0,0,0,0.1,0,0.1c-0.1,0-0.2,0.1-0.2,0.1c-0.6,0.8-1.3,1.5-2,2.2
				c-0.6,0.6-1.1,1.2-1.6,1.8c-1.7,1.8-3.3,3.6-5,5.5c-1,1-1.5,2.4-2,3.7c-0.1,0-0.2,0-0.2,0c-0.5-1-1.3-1.9-2.1-2.6
				c-0.8-0.9-1.8-1.5-2.8-2.1c-2-1.3-4.1-2.3-6.1-3.5c-0.8-0.5-1.6-1-2.3-1.7c-0.8-0.8-1.7-1.5-2-2.6c-1.1,1-2.7,1.7-4.2,1.5
				c-0.8,0-1.4-0.5-2.1-0.7c-0.1,0-0.2,0.1-0.2,0.1c-0.1-0.5,0-1,0-1.5c-0.1-0.5-0.4-0.9-0.6-1.3c-0.3-0.7-0.1-1.5,0-2.2
				c0.2-1.5,0.8-2.9,1.2-4.3c0.5-1.3,0.8-2.7,1.2-4c0.1-0.6,0.4-1.1,0.4-1.7c-0.2-1,0-2-0.2-3c-0.1,0.3-0.1,0.7-0.1,1.1
				c-0.1,1.3-0.5,2.5-0.9,3.8c-0.5,1.6-1.2,3.1-1.8,4.7c-0.3,0.9-0.6,1.8-1,2.6c-1,2.4-1.3,5-1.1,7.6c-2.2,1.3-4.6,2.2-6.8,3.4
				c-1.9,1.1-3.8,2.4-5.4,3.9c-0.7,0.7-1.3,1.5-1.9,2.3c-0.6-1.7-1.3-3.3-2.1-4.9c-0.2-0.3-0.4-0.5-0.5-0.8
				c-0.6-1.3-1.4-2.4-2.1-3.6c-0.8-1.3-1.8-2.6-2.6-4c-0.5-1-1.1-1.9-1.5-3c-0.8-1.7-1.4-3.5-1.5-5.3c0-0.7-0.1-1.3-0.1-2
				c0-0.5,0.1-1,0-1.4c0-0.1,0.1-0.2,0.1-0.3c0,0.2,0.1,0.4,0.1,0.6c0.5-1.4,0.4-3,0.4-4.5c0-1.1-0.1-2.3-0.2-3.4
				c-0.1-1.3-0.1-2.7-0.4-4c-0.1-3.1-0.2-6.2,0-9.2c0.1-2.5,0.6-5,1.1-7.5c0.4-1.9,1.1-3.8,1.9-5.6c1.7-3.1,3.6-6.1,6.1-8.6
				c0.2-0.2,0.4-0.4,0.8-0.4c0,0.1,0,0.2,0,0.2c0.6-0.2,1.2-0.5,1.8-0.6c1-0.1,2-0.2,2.9,0c1.3,0.2,2.6,0.6,3.9,0.8
				c0.9,0.2,1.9,0.4,2.8,0.6c1.9,0.3,3.7,1,5.5,1.6c2,0.5,4,0.8,6.1,0.9c0.9,0,1.9,0.1,2.8-0.1c1.2-0.2,2.3-0.7,3.4-1.2
				C100.3,54.3,102.6,53,105.3,52.6z"/>
			<path class="st7" d="M50.7,78.7c1.5-0.7,3.4-0.6,4.7,0.4c1.1,0.8,1.7,2,2.4,3.1c0.4,0.6,0.8,1.3,1,2.1c0.3,1.3,0.3,2.6,0.4,4
				c0,1.1,0.2,2.3,0.2,3.4c0,1.5,0.2,3.1-0.4,4.5c0-0.2-0.1-0.4-0.1-0.6c0,0.1-0.1,0.2-0.1,0.3c-0.2,0.8-0.6,1.5-0.8,2.2
				c-0.5,1.4-0.8,2.8-1.1,4.2c-0.3,1.3-0.4,2.6-0.5,3.9c0,0.3-0.3,0.4-0.6,0.3c-0.6-0.3-0.9-0.8-1.4-1.2c-0.8-0.7-1.7-1.3-2.4-2.2
				c-0.7-0.8-1.4-1.6-2-2.5c-0.8-1-1.4-2.2-2.1-3.3c-1.1-2-1.7-4.3-2.2-6.5c-0.2-0.8-0.2-1.7-0.2-2.6c0-2,0.6-3.9,1.5-5.7
				C47.9,81,49,79.5,50.7,78.7z"/>
			<path class="st7" d="M126.3,82.4c2.2-0.4,4.5,0.2,6.1,1.7c0.4,0.4,0.8,0.8,1.2,1.2c0.9,1.1,1.4,2.5,1.5,3.9
				c0.1,1.1-0.1,2.3-0.3,3.4c-0.6,3.4-2.1,6.6-4.2,9.2c-1.4,1.4-2.9,2.8-4.5,3.9c-1.9,1.4-4,2.5-6.1,3.5c-0.4,0.2-0.8,0.6-1.3,0.6
				c-0.1-0.7,0.1-1.4,0.3-2.1c0,0,0-0.1,0-0.1c-0.3-0.6,0.1-1.3,0.2-1.9c0.6-2.3,0.7-4.7,0.9-7.1c0.1-1.6,0.4-3.2,0.4-4.8
				c0.1-1.3,0.3-2.6,0.6-3.8c0.2-1.2,0.6-2.4,0.9-3.7c0.3-0.9,0.6-1.8,1.1-2.7C124.1,83,125.2,82.6,126.3,82.4z"/>
			<path class="st7" d="M88.2,92.5c0-0.4,0-0.7,0.1-1.1c0.1,1-0.1,2,0.2,3c0,0.6-0.2,1.2-0.4,1.7c-0.4,1.3-0.7,2.7-1.2,4
				c-0.5,1.4-1,2.8-1.2,4.3c-0.1,0.7-0.2,1.5,0,2.2c0.1,0.5,0.5,0.8,0.6,1.3c0,0.5-0.1,1,0,1.5c-1,0.6-2,1.2-2.9,1.7
				c-0.2-2.6,0.1-5.2,1.1-7.6c0.4-0.8,0.7-1.7,1-2.6c0.6-1.6,1.3-3.1,1.8-4.7C87.6,95.1,88.1,93.8,88.2,92.5z"/>
		</g>
		<g>
			<g>
				<path class="st8" d="M93.6,39.9c0.1-0.2,0.2-0.4,0.5-0.4c1-0.2,2.2,0.1,3,0.7c-0.1,0.1-0.1,0.2-0.2,0.3
					c-0.6-0.2-1.2-0.4-1.9-0.4C94.6,40,94.1,40.1,93.6,39.9z"/>
				<path class="st8" d="M85.8,40c0.5,0,1,0,1.5,0.1c0,0.1,0,0.3,0,0.4c-0.8,0-1.5,0.1-2.3,0.2c-0.2,0-0.4-0.1-0.6-0.2
					C84.7,40,85.3,40,85.8,40z"/>
				<path class="st8" d="M88.9,40.2c0.8-0.3,1.7-0.3,2.6-0.1c0.2,0.1,0.6,0.2,0.4,0.5c-0.5,0-0.9-0.1-1.4,0c-0.5,0-1.1,0.2-1.6,0.1
					C88.9,40.5,88.9,40.3,88.9,40.2z"/>
				<path class="st8" d="M98.5,40.2c0.3-0.1,0.7-0.2,1.1-0.1c1.1,0.1,2.2,0.5,3.2,1.1c0,0.1,0,0.2,0,0.3c-0.3-0.1-0.6-0.2-0.9-0.3
					c-1-0.5-2.2-0.6-3.3-0.7C98.5,40.5,98.5,40.3,98.5,40.2z"/>
				<path class="st8" d="M82,41c0.5,0,1.1-0.1,1.6,0.3c0,0.1-0.1,0.2-0.1,0.3c-1.2-0.1-2.4,0.2-3.6,0.4c0-0.2-0.1-0.4,0.1-0.5
					C80.6,41.1,81.3,41.1,82,41z"/>
				<path class="st8" d="M92.5,41.6c0.3-0.6,1-0.5,1.5-0.4c0.9,0.2,1.9,0.5,2.6,1.1c0.2,0.1,0.1,0.6-0.2,0.4
					c-1.2-0.6-2.5-0.9-3.8-0.9C92.6,41.8,92.5,41.7,92.5,41.6z"/>
				<path class="st8" d="M97.2,41.4c0.1-0.3,0.5-0.2,0.7-0.2c1.3,0.2,2.5,0.8,3.5,1.7c0.2,0.1,0.2,0.4,0.2,0.6
					c-0.4-0.1-0.7-0.5-1.1-0.7c-0.8-0.5-1.8-0.7-2.7-1C97.5,41.8,97.2,41.7,97.2,41.4z"/>
				<path class="st8" d="M85.7,41.7c0.9-0.1,1.8,0,2.6,0.2c0,0.1,0,0.2,0,0.3c-1.1-0.1-2.2,0-3.4,0.1c0-0.2-0.1-0.4,0.1-0.5
					C85.2,41.7,85.4,41.7,85.7,41.7z"/>
				<path class="st8" d="M102.3,42.7c0.3-0.1,0.7-0.1,1,0c0.8,0.3,1.6,0.8,2.2,1.4c0.2,0.1,0.1,0.4,0.1,0.5
					c-0.3-0.2-0.6-0.4-0.9-0.6c-0.7-0.5-1.6-0.8-2.4-1C102.4,43,102.3,42.9,102.3,42.7z"/>
				<path class="st8" d="M86.1,43.4c1.1-0.3,2.3,0,3.4,0.4c0,0.1,0,0.3,0,0.4c-0.6-0.1-1.1-0.2-1.7-0.2c-0.7,0-1.3,0.1-2,0
					C85.8,43.8,85.8,43.4,86.1,43.4z"/>
				<path class="st8" d="M99.2,44c0.4,0,0.7,0,1,0.2c0.9,0.4,1.7,0.9,2.3,1.7c0.1,0.2,0.2,0.4,0.2,0.6c-0.4,0-0.6-0.4-0.9-0.6
					c-0.8-0.7-1.9-1-2.8-1.5C99.1,44.3,99.2,44.1,99.2,44z"/>
				<path class="st8" d="M96.4,44.2c0.5,0,0.9,0,1.4,0.2c0.8,0.4,1.5,0.8,2.2,1.5c0.3,0.3,0.7,0.7,0.7,1.2c-0.4-0.3-0.7-0.7-1.1-1
					c-0.8-0.7-1.9-1.1-2.9-1.5C96.4,44.6,96.4,44.3,96.4,44.2z"/>
				<path class="st8" d="M92.5,44.3c0.3,0,0.6-0.1,0.9,0c0.9,0.3,1.7,0.7,2.5,1.2c0.2,0.1,0.3,0.3,0.4,0.5c-0.5-0.1-0.9-0.4-1.4-0.6
					c-0.7-0.4-1.5-0.6-2.3-0.8C92.5,44.5,92.5,44.3,92.5,44.3z"/>
				<path class="st8" d="M106.6,44.9c-0.1-0.4,0.4-0.5,0.6-0.3c0.9,0.4,1.7,1,2.1,1.9c-0.4,0.1-0.6-0.3-0.9-0.4
					C107.9,45.6,107.2,45.4,106.6,44.9z"/>
				<path class="st8" d="M89.4,45.2c0.8-0.2,1.6,0,2.3,0.1c0.4,0.1,0.9,0.2,1.3,0.5c0.2,0.1,0.1,0.3,0.2,0.5
					c-0.7-0.1-1.4-0.4-2.1-0.4c-0.6-0.1-1.3,0-1.9-0.3C89.3,45.5,89.3,45.3,89.4,45.2z"/>
				<path class="st8" d="M70.7,46.4c0.3-0.1,0.6-0.2,0.9-0.1c0.2,0.1,0.2,0.5,0,0.6c-0.4,0.2-0.9,0.3-1.3,0.4c-0.7,0.2-1.3,0.6-2,1
					c0-0.1-0.1-0.3-0.1-0.4C69,47.2,69.8,46.7,70.7,46.4z"/>
				<path class="st8" d="M93.9,47c0-0.3,0.3-0.2,0.5-0.2c0.5,0,0.9,0.3,1.3,0.5c0.8,0.5,1.5,1,2,1.9c0.1,0.2,0.1,0.5-0.1,0.6
					c-0.7-1.3-2.1-2.1-3.5-2.6C94.1,47.1,94,47.1,93.9,47z"/>
				<path class="st8" d="M100.9,47.6c0.6-0.2,1.2,0.2,1.6,0.6c0.6,0.5,1.1,1.2,1.3,2c-0.1,0-0.2,0-0.3,0c-0.5-0.8-1.1-1.5-1.9-2
					C101.3,48,100.9,48,100.9,47.6z"/>
				<path class="st8" d="M74.7,48.2c0-0.5,0.6-0.7,1-0.7c0.6,0,1.3-0.1,1.7,0.5c-0.4,0.2-0.9,0.1-1.3,0.1
					C75.6,48.2,75.1,48.2,74.7,48.2z"/>
				<path class="st8" d="M104.2,47.9c0.2,0,0.4,0,0.6,0.1c0.3,0.3,0.5,0.7,0.8,1.1c0.3,0.5,0.6,1.1,0.6,1.7c-0.5-0.1-0.6-0.7-0.9-1
					C104.9,49.1,104.3,48.6,104.2,47.9z"/>
				<path class="st8" d="M81,48.5c0.7-0.3,1.5-0.3,2.2-0.3c0.6,0,1.2,0.1,1.7,0.4c0,0.1,0,0.2,0,0.3c-0.5,0-1.1-0.2-1.6-0.1
					c-0.8,0.1-1.5,0.2-2.3,0.2C81,48.8,81,48.6,81,48.5z"/>
				<path class="st8" d="M91.8,48.5c1.3-0.4,2.6,0.4,3.6,1.2c0.4,0.4,1,0.8,0.9,1.4c-0.2-0.1-0.3-0.2-0.5-0.3
					c-1.1-1.1-2.5-1.7-4-1.8C91.8,48.8,91.8,48.6,91.8,48.5z"/>
				<path class="st8" d="M68.5,49.2c0.4-0.2,0.8-0.2,1.3-0.1c0,0.1,0.1,0.3,0.1,0.3c-0.2,0.2-0.4,0.3-0.6,0.3
					c-0.9,0.3-1.9,0.6-2.7,1.2c-0.4,0.2-0.7,0.6-1.1,0.7c0-0.2,0-0.4,0.2-0.5C66.4,50.2,67.5,49.7,68.5,49.2z"/>
				<path class="st8" d="M85.7,49.7c-0.1-0.5,0.6-0.6,0.9-0.6c1,0,2.1,0.2,3,0.7c0,0.1,0,0.2,0,0.3c-0.5-0.1-1.1-0.3-1.6-0.4
					C87.2,49.6,86.5,49.7,85.7,49.7z"/>
				<path class="st8" d="M73.7,49.9c0.6-0.1,1.2-0.1,1.8,0c0.2,0,0.2,0.2,0.3,0.4c-0.7,0.2-1.5,0.3-2.2,0.4c-0.3,0-0.7,0.1-0.7-0.3
					C73,50,73.4,49.9,73.7,49.9z"/>
				<path class="st8" d="M90.5,50.3c0.9-0.1,1.7,0.1,2.5,0.5c0.7,0.3,1.5,0.8,1.6,1.6c-0.4-0.1-0.7-0.6-1.1-0.8c-0.9-0.6-2-0.7-3-1
					C90.5,50.5,90.5,50.4,90.5,50.3z"/>
				<path class="st8" d="M101.1,50.3c0.4-0.1,0.7,0.3,0.9,0.5c0.4,0.6,0.8,1.2,0.7,1.9c0,0.1-0.1,0.2-0.2,0.2
					c-0.3-0.2-0.3-0.5-0.5-0.8c-0.2-0.5-0.7-0.9-1-1.4C101,50.6,100.9,50.3,101.1,50.3z"/>
				<path class="st8" d="M83.9,51.3c0.4-0.3,0.9-0.3,1.4-0.3c1,0,2,0,2.9,0.4c0,0.1,0,0.3,0,0.4c-0.8,0-1.5-0.1-2.3,0
					c-0.7,0-1.5,0.2-2.2,0.1C83.7,51.6,83.7,51.4,83.9,51.3z"/>
				<path class="st8" d="M114.8,51.5c0.2,0,0.3,0,0.5,0c0.6,0.7,0.9,1.6,1.1,2.5c0.1,0.2-0.1,0.4-0.2,0.6c-0.3-0.5-0.4-1.1-0.8-1.6
					C115.1,52.5,114.7,52,114.8,51.5z"/>
				<path class="st8" d="M116.6,51.7c0.1,0,0.3-0.1,0.4-0.1c0.2,0.1,0.4,0.3,0.5,0.6c0.3,0.7,0.4,1.4,0.5,2.1c0.1,0.5,0.1,1,0,1.4
					c-0.3-0.1-0.3-0.4-0.3-0.7c-0.1-0.6-0.3-1.3-0.5-1.9C117,52.6,116.8,52.2,116.6,51.7z"/>
				<path class="st8" d="M88.6,52c0.7-0.4,1.5-0.2,2.3,0c0.8,0.3,1.6,0.7,2.2,1.3c0.1,0.1,0.2,0.3,0,0.4c-0.2,0-0.3-0.1-0.5-0.2
					c-1.1-0.9-2.6-1.2-4.1-1C88.5,52.3,88.4,52,88.6,52z"/>
				<path class="st8" d="M84.1,52.8c0.8-0.1,1.6-0.1,2.4,0.1c0.2,0,0.6,0.2,0.5,0.5c-0.5,0-1-0.1-1.5-0.1c-0.7,0-1.4,0.2-2.1,0.2
					c-0.2,0-0.3-0.2-0.2-0.4C83.5,52.9,83.8,52.8,84.1,52.8z"/>
				<path class="st8" d="M113.8,52.8c0.2-0.2,0.6-0.1,0.6,0.2c0.1,0.8,0.2,1.6,0,2.3c-0.1,0-0.2,0-0.3,0c-0.1-0.5-0.1-1.1-0.2-1.6
					C113.9,53.5,113.8,53.2,113.8,52.8z"/>
				<path class="st8" d="M65.2,53.6c0.5-0.3,1-0.7,1.6-0.6c0,0.2,0,0.5-0.3,0.6c-1,0.6-2,1.3-2.9,2.1c-0.3,0.3-0.6,0.7-1,0.8
					c0-0.2,0-0.5,0.2-0.6C63.5,55,64.3,54.2,65.2,53.6z"/>
				<path class="st8" d="M87.3,53.6c0.8-0.4,1.8-0.2,2.6,0.1c0.7,0.2,1.5,0.6,1.7,1.4c-0.5,0.1-0.7-0.5-1.1-0.6
					c-1.1-0.4-2.3-0.3-3.4-0.4C87.1,54,87.1,53.7,87.3,53.6z"/>
				<path class="st8" d="M119.1,54.4c0.2,0,0.5,0,0.5,0.2c0.1,0.4,0.1,0.8,0.1,1.2c0,0.6,0,1.2-0.2,1.8c0,0.1-0.2,0.1-0.3,0.2
					C119.5,56.6,118.9,55.5,119.1,54.4z"/>
				<path class="st9" d="M70.7,57c0.8-0.5,1.8-0.8,2.7-0.9c0,0.1,0,0.3,0,0.4c-1.7,0.5-3.2,1.5-4.6,2.6c-0.3,0.3-0.7,0.6-1.1,0.6
					c0.1-0.2,0.1-0.4,0.2-0.6C68.7,58.2,69.7,57.6,70.7,57z"/>
				<path class="st8" d="M61.5,57.1c0.1-0.1,0.4-0.1,0.4,0c0.1,0.2-0.1,0.4-0.2,0.5c-0.9,1-1.6,2.3-2.1,3.6c-0.1,0-0.2,0-0.2,0.1
					c0-1,0.5-2,1-2.8C60.7,58,61,57.5,61.5,57.1z"/>
				<path class="st8" d="M59.6,66.3c0.1-0.2,0.4-0.1,0.5-0.1c-0.2,0.7-0.6,1.3-0.8,2c-0.3,0.8-0.5,1.7-0.8,2.5c-0.1,0-0.2,0-0.3,0
					c0.1-1.1,0.4-2.2,0.8-3.3C59.2,67,59.3,66.6,59.6,66.3z"/>
				<path class="st8" d="M122.2,69.8c0.2,0,0.5-0.1,0.6,0.1c0.3,0.4,0.3,0.9,0.4,1.3c0.1,1.1,0,2.1-0.3,3.2c0,0.2-0.2,0.2-0.4,0.2
					c0.3-1.4,0.3-2.8-0.1-4.2C122.3,70.3,122.3,70.1,122.2,69.8z"/>
				<path class="st10" d="M88.4,77.3c0.1,0,0.2,0,0.3,0c0.1,0.9,0.3,1.8,0.6,2.6c0.2,0.7,0.6,1.3,0.6,2.1c-0.1,0-0.2,0-0.3,0
					c-0.5-1-1-2-1.3-3C88.2,78.5,88.2,77.9,88.4,77.3z"/>
				<path class="st8" d="M122.7,80.9c0.1-0.3,0.4-0.3,0.7-0.3c0,0.4,0,0.7-0.1,1.1c-0.3,0.9-0.5,1.8-0.8,2.7c-0.1,0-0.3,0-0.3,0
					C122.1,83.2,122.3,82,122.7,80.9z"/>
				<path class="st11" d="M51,84.4c0.8-0.3,1.7,0.2,2.2,0.8c1,1.1,1.3,2.5,1.9,3.9c0.5,1.7,1.2,3.3,1.1,5.1c-0.1,0-0.2,0-0.2,0
					c-0.1-0.5-0.2-1-0.3-1.5c-0.3-1.3-0.8-2.5-1.3-3.7c-0.3-0.8-0.7-1.6-1.1-2.4c-0.5-0.8-1.2-1.6-2.2-1.8C51,84.6,51,84.5,51,84.4z
					"/>
				<path class="st12" d="M72.3,86.2c0.4-0.2,0.8-0.6,1.3-0.3c0.6,0.2,0.7,0.9,0.8,1.4c0.1,0.6,0.1,1.3-0.3,1.9
					c-0.3,0.4-0.8,0.6-1.3,0.4c-0.4-0.3-0.7-0.7-0.8-1.1C71.9,87.6,72,86.9,72.3,86.2z"/>
				<path class="st12" d="M106.5,86.8c0.4-0.1,0.9-0.1,1.2,0.2c0.4,0.4,0.4,0.9,0.4,1.4c0,0.6-0.1,1.3-0.5,1.8
					c-0.4,0.4-1.1,0.5-1.5,0c-0.5-0.6-0.5-1.4-0.3-2.1C105.9,87.6,106.1,87.1,106.5,86.8z"/>
				<path class="st13" d="M70.1,87.5c0-0.3,0.3-0.4,0.6-0.3c0.2,0.3,0.3,0.6,0.4,1c0.2,0.8,0.6,1.7,1.4,2.1c0,0.1,0,0.3,0,0.4
					c-0.7,0-1.3-0.4-1.7-1C70.4,89,70.1,88.3,70.1,87.5z"/>
				<path class="st11" d="M127.8,88.3c0.5-0.4,1.1-0.9,1.7-0.5c0,0.1,0,0.3,0,0.4c-0.8,0.3-1.4,0.9-1.9,1.6
					c-1.2,1.5-2.2,3.3-2.9,5.1c-0.9,2.1-1.6,4.3-2.1,6.5c-0.1,0-0.2,0-0.3,0c0-0.3,0-0.6,0.1-0.9c0.3-2.3,1.1-4.5,2-6.7
					C125.2,91.8,126.2,89.7,127.8,88.3z"/>
				<g>
					<path class="st14" d="M92.6,80.3c-0.4-1.6-0.2-3.2-0.1-4.8c0.1-1,0.3-2,0.1-3c-0.1,0-0.2,0-0.3,0c0,1-0.2,1.9-0.3,2.9
						c-0.1,1.6-0.2,3.3,0.4,4.8C92.4,80.3,92.5,80.3,92.6,80.3z"/>
					<path class="st14" d="M90.3,76.8c0.1-1,0.1-2,0-3c-0.1-0.4-0.3-0.8-0.4-1.1c-0.1,0-0.2,0-0.3,0c-0.1,1,0,2,0,3
						c0,0.7-0.1,1.4-0.1,2.1c0.1,1,0.4,1.9,0.7,2.8c0.1,0,0.3,0,0.4,0C90.4,79.3,90.2,78,90.3,76.8z"/>
					<path class="st14" d="M82.5,81.2c-1.3-0.3-2.6-0.5-3.9-0.8c-2.5-0.7-5.1-1.1-7.7-1c-2,0.1-4,1-5.3,2.6c0,0.1,0,0.2,0,0.2
						c0,0,0.1,0,0.2,0c0.5-0.2,1-0.5,1.5-0.7c-0.2,0.2-0.5,0.3-0.7,0.5c-0.7,0.4-1.3,1.1-1.8,1.7c0,0.1,0,0.2-0.1,0.2
						c1.4-0.1,2.8-0.4,4.2-0.5c1.3-0.2,2.6-0.2,3.9-0.1c0.8,0.1,1.6,0.4,2.4,0.5c1.5,0.3,3,0.5,4.4,0.7c1,0.1,2,0.2,3.1,0.2
						c1-0.1,2-0.3,2.9-0.5c0.1-0.1,0.3-0.3,0.5-0.4c0,0,0.1-0.1,0.1-0.1c0-0.1,0.1-0.2,0.1-0.4c0.1-0.4,0.2-0.7,0-1.1
						C85,81.6,83.7,81.5,82.5,81.2z"/>
					<path class="st14" d="M116.7,84c-0.3-0.1-0.7,0-1-0.3c0.6,0.1,1.2,0.1,1.8,0.3c0.3,0.1,0.6,0.2,0.9,0.1
						c-0.4-0.6-1.1-0.9-1.8-1.2c-0.5-0.2-1-0.4-1.5-0.6c-1.4-0.4-2.6-1.2-4-1.5c-1.5-0.3-3-0.1-4.6-0.3c-0.9-0.1-1.8,0.2-2.7,0.2
						c-1.9,0.1-3.8,0.4-5.6,1.1c-0.7,0.3-1.5,0.5-2,1c-0.4,0.4-0.3,0.9-0.5,1.4c0.1,0,0.2,0,0.2,0c0.1,0.5,0.7,0.6,1.1,0.7
						c1.9,0.3,3.8,0.2,5.7-0.1c2.6-0.4,5.2-1,7.8-1.6c1.6-0.5,3.4-0.4,5.1-0.2l0,0c-0.5-0.1-1-0.1-1.5-0.1c-1.2,0-2.4,0.3-3.5,0.7
						c-0.3,0.1-0.6,0.2-0.9,0.4c-0.1,0.1-0.3,0.2-0.2,0.3c0.4,0,0.8-0.1,1.2-0.3c1-0.1,2-0.3,3-0.4c0.1,0.1,0.2,0.1,0.2,0.2
						c-0.7,0-1.4,0.3-2.1,0.6c0,0.1,0,0.2,0,0.3c0.8,0,1.5-0.3,2.3-0.4c1.5-0.1,2.9,0.4,4.4,0.3C117.9,84.4,117.3,84.1,116.7,84z"/>
					<path class="st14" d="M68.2,83.7c-0.5,0-0.9-0.1-1.4,0c-1,0.3-1.9,0.6-2.8,1.1c0,0.1,0,0.2-0.1,0.2c0.2,0,0.5-0.1,0.7-0.2
						c1.1-0.4,2.4-0.6,3.6-0.8C68.2,83.9,68.2,83.8,68.2,83.7z"/>
					<path class="st14" d="M93.3,87.6c-0.7,1.9-0.7,3.9-0.7,5.8c-0.1,1.2,0,2.5-0.1,3.7c-0.1,1.4-0.1,2.8-0.3,4.3c0.1,0,0.2,0,0.2,0
						c0.2-0.8,0.2-1.5,0.2-2.3c0-0.8,0.2-1.7,0.2-2.5l0-0.1c0.1-0.6,0.1-1.2,0.1-1.7c0.1-2.2,0-4.4,0.5-6.5c0.1-0.7,0.4-1.3,0.5-2
						c0,0,0.1-0.1,0.1-0.1c-0.1,0-0.2,0-0.3,0C93.7,86.6,93.5,87.1,93.3,87.6z"/>
					<path class="st14" d="M88.8,89.1c0-1.6-0.6-3.3-1.7-4.5c-0.1,0-0.3,0-0.4,0c0.1,0.6,0.4,1,0.7,1.5c0.3,0.6,0.5,1.2,0.6,1.9
						c0.1,0.7,0.2,1.4,0.2,2.1c0,1.2,0.2,2.4,0.1,3.6l0,0.1c-0.1,0.9-0.1,1.8-0.4,2.7c0.1,0,0.2,0,0.2,0c0.2-0.8,0.4-1.6,0.4-2.4
						c0.2-1.7,0.4-3.4,0.2-5.1L88.8,89.1z"/>
					<path class="st14" d="M73.5,92.1c1,0,1.9-0.4,2.7-0.8c0.3-0.1,0.8-0.4,0.5-0.7c-0.4,0.2-0.8,0.4-1.2,0.6
						c-0.9,0.1-1.8,0.3-2.7,0.2c-1.1-0.1-2.2-0.5-2.8-1.5c0,0-0.1,0-0.2,0c0.2,0.7,0.6,1.3,1.2,1.6C71.7,92,72.6,92.1,73.5,92.1z"/>
					<path class="st14" d="M108.9,92.3c1.2-0.3,2.2-1,3-2c0-0.1,0-0.3,0-0.4c-0.8,0.8-1.9,1.4-3.1,1.7c-1.1,0.3-2.3,0.5-3.5,0.2
						c-0.4-0.1-0.8-0.5-1.3-0.4c0,0.6,0.6,0.9,1.1,1.1C106.3,92.9,107.7,92.7,108.9,92.3z"/>
					<path class="st14" d="M114,90.8c-0.7,0.7-1.5,1.2-2.3,1.8c-1.4,1-3.1,1.2-4.8,1.2c-1.2,0-2.4-0.2-3.6-0.5c0,0.1,0,0.2,0,0.3
						c0.6,0.6,1.5,0.8,2.3,0.9c1.5,0.3,3.1,0.1,4.6-0.3c1.3-0.3,2.4-1.3,3.4-2.2c0.3-0.3,0.8-0.7,0.7-1.2
						C114.2,90.8,114,90.8,114,90.8z"/>
					<path class="st14" d="M77,92.4l0.1,0c-0.8,0.2-1.4,0.6-2.2,0.9c-1.4,0.6-3,0.3-4.4,0c-1.1-0.2-2.1-0.8-2.7-1.8
						c-0.1,0-0.2,0-0.3,0c0,0.8,0.5,1.4,1.1,1.8c0.8,0.5,1.7,0.7,2.5,0.9c1.3,0.2,2.6,0.2,3.8-0.3c0.7-0.3,1.4-0.7,2.1-1.2
						c0.3-0.1,0.6-0.3,0.8-0.5c0-0.1,0-0.2,0-0.3C77.6,92,77.3,92.2,77,92.4z"/>
				</g>
				<path class="st7" d="M105.5,95.5c1.6-0.3,3.4,0,4.8,0.9c0.8,0.5,1.6,0.9,2.3,1.6c0.9,0.8,1.5,1.8,1.8,3c0.7,1.9,0.6,4.1-0.3,5.9
					c-0.7,1.3-1.7,2.4-2.8,3.3c-0.7,0.6-1.6,0.8-2.5,1.1c-1.2,0.3-2.4,0.3-3.6,0.2c-1.8-0.2-3.5-1.1-4.8-2.4c-1-1.1-1.9-2.3-2.3-3.7
					c-0.4-1.3-0.3-2.8,0.3-4c0.7-1.7,1.8-3.3,3.4-4.3C103,96.3,104.2,95.7,105.5,95.5z"/>
				<path class="st7" d="M70.7,96c0.5-0.1,1-0.2,1.6-0.1c1.1,0.1,2.3,0.4,3.2,1c1.3,0.9,2.6,2.1,3.3,3.6c0.7,1.3,0.8,2.8,0.5,4.2
					c-0.4,2-1.4,3.9-3,5.2c-1.3,1.1-3,1.8-4.7,1.8c-1.7-0.2-3.4-0.7-4.8-1.8c-1.2-1-2-2.4-2.4-3.9c-0.6-2.1-0.2-4.4,1-6.2
					c0.6-0.9,1.3-1.9,2.4-2.3C68.7,96.7,69.7,96.2,70.7,96z"/>
				<path class="st13" d="M89.8,95.9c0.3-0.2,0.5,0.3,0.4,0.5c-0.4,1.7-0.9,3.4-1.2,5.1c-0.2,1.4-0.6,2.8-0.5,4.3
					c-0.1,0-0.3,0-0.4,0c-0.4-0.9-0.1-1.9-0.1-2.8c0.2-1.9,0.5-3.8,1.1-5.6C89.4,96.9,89.5,96.4,89.8,95.9z"/>
				<path class="st15" d="M94.3,105c0.2,0,0.5-0.1,0.6,0.2c0.3,0.9,0.2,2-0.5,2.6c-0.7,0.6-1.6,1-2.3,1.5c-0.5,0.5-1,0.9-1.7,1.1
					c-0.6,0.2-1.3-0.1-1.9-0.2c-1.2-0.2-2.1-0.9-3.1-1.5c-0.5-0.4-1.1-0.7-1.5-1.3c-0.2-0.3-0.1-0.7-0.1-1.1c0.1,0,0.3,0,0.4,0
					c0.1,0.8,0.9,1.2,1.5,1.6c1.1,0.7,2.2,1.4,3.5,1.8c1.1,0.1,1.9-0.7,2.8-1.1c0.8-0.4,1.7-0.8,2-1.7
					C94.3,106.4,94.2,105.7,94.3,105z"/>
				<path class="st8" d="M57.9,110.4c0-0.8,0-1.6,0.1-2.4c0.2,0.6,0.1,1.3,0.2,1.9c0.2,2,0.7,3.9,1.1,5.8c0.7,2.9,1.3,5.9,2.1,8.8
					c0.3,1,0.5,2,0.8,3c0.2,0.6,0.4,1.3,0.4,1.9c-0.2-0.2-0.3-0.3-0.4-0.6c-1-3-1.8-6-2.6-9C58.9,116.8,58.1,113.7,57.9,110.4z"/>
				<path class="st8" d="M59.9,111.6c0.1-0.2,0.3-0.2,0.4-0.2c0.5,1.6,1.1,3.1,1.5,4.7c0.9,3.3,1.5,6.7,2,10.2
					c0.2,1.6,0.5,3.2,0.4,4.9c-0.2-0.7-0.1-1.4-0.2-2.1c-0.4-3.3-1-6.6-1.8-9.8c-0.6-2.3-1.3-4.6-2.1-6.9
					C60,112,59.9,111.8,59.9,111.6z"/>
				<path class="st8" d="M93.5,111.5c0.1,0,0.2-0.1,0.3-0.1c0.7,0.6,1.4,1.1,2.2,1.5c1.7,1,3.3,2.2,4.9,3.4c0.9,0.7,1.8,1.4,2.6,2.1
					c0.9,0.8,1.8,1.6,2.5,2.5c0.5,0.6,1.1,1.1,1.5,1.8c-0.6-0.6-1.1-1.3-1.8-1.9c-0.8-0.7-1.5-1.5-2.3-2.1c-1.4-1.2-3-2.2-4.5-3.2
					c-1-0.7-2-1.3-3-1.9c-0.9-0.5-1.7-1.1-2.4-1.8C93.5,111.8,93.5,111.6,93.5,111.5z"/>
				<path class="st16" d="M89.2,111.7c0.1,0,0.2,0,0.4,0c0.1,0.3,0.2,0.6,0.2,0.9c0,1.3-0.2,2.6-0.2,3.9c-0.1,0-0.2,0-0.4,0
					c-0.2-0.6-0.1-1.3-0.1-1.9C89.1,113.6,89.1,112.6,89.2,111.7z"/>
				<path class="st8" d="M91.8,112c0.2-0.1,0.3,0,0.5,0.1c3.4,2.6,7.3,4.5,10.5,7.5c1.6,1.5,3.2,3,4.4,4.8c-0.6-0.4-1-1.1-1.6-1.6
					c-1.2-1.3-2.5-2.5-4-3.6c-3-2.3-6.6-3.9-9.4-6.5C92.1,112.5,91.8,112.3,91.8,112z"/>
				<path class="st8" d="M85.8,112.3c0.3-0.1,0.5-0.2,0.8-0.2c0,0.1,0,0.2-0.1,0.3c-1.8,1.2-3.8,2.3-5.7,3.5
					c-2.7,1.7-5.2,3.6-7.5,5.8c0.5-0.8,1.2-1.3,1.8-1.9C78.4,116.8,82,114.3,85.8,112.3z"/>
				<path class="st8" d="M86.7,113.7c0.2-0.1,0.4-0.1,0.6-0.1c-0.5,0.6-1.3,1-2,1.4c-3.2,1.9-6.3,3.7-9.2,6
					c-0.2,0.2-0.5,0.4-0.7,0.5c0.3-0.5,0.8-0.8,1.2-1.2c1.3-1.1,2.8-2.1,4.2-3C82.7,116,84.6,114.7,86.7,113.7z"/>
				<path class="st8" d="M90.9,113.5c0.7,0.4,1.3,0.8,2,1.2c2.2,1.1,4.2,2.4,6.2,3.8c1.7,1.2,3.2,2.6,4.6,4c0.6,0.6,1.1,1.2,1.6,1.9
					c0.2,0.2,0.2,0.4,0.3,0.7c-0.6-0.5-1.1-1.2-1.7-1.8c-3-3-6.5-5.3-10.1-7.4c-0.7-0.4-1.4-0.8-2.1-1.3
					C91.4,114.3,91,114,90.9,113.5z"/>
				<path class="st8" d="M114,116.1c0.3-0.3,0.6-0.9,1.1-0.8c-1.3,1.8-2.5,3.6-3.4,5.6c-1.8,3.8-2.9,7.9-3.6,12.1
					c-0.4,2.4-0.8,4.8-0.8,7.2c-0.1,0-0.2,0-0.2,0c0-1-0.1-2.1,0.1-3.1c0.3-3,0.8-6.1,1.4-9C109.5,123.8,111.2,119.6,114,116.1z"/>
				<path class="st8" d="M64.1,116.4c-0.1-0.3,0.1-0.4,0.4-0.5c0.9,2.5,1.5,5.2,1.9,7.9c0.3,2,0.5,4.1,0.5,6.1c0,0.9,0,1.8-0.2,2.7
					c-0.1,0-0.2,0-0.2,0c0-0.8,0.2-1.6,0.1-2.4C66.4,125.5,65.6,120.8,64.1,116.4z"/>
				<path class="st8" d="M114.8,117.8c0.3-0.4,0.5-0.9,1-1.1c-0.2,0.7-0.6,1.3-0.9,1.9c-1,2.1-1.5,4.5-2.1,6.8
					c-0.6,2.2-1.1,4.3-1.6,6.5c-0.1-0.1-0.1-0.2-0.2-0.3c0.4-2.3,0.9-4.7,1.5-7C113,122.2,113.5,119.8,114.8,117.8z"/>
				<path class="st17" d="M85.2,117.7c3.7-0.9,7.6-0.5,11.2,0.8c0.9,0.4,1.7,0.8,2.5,1.4c0.3,0.3,0.5,0.5,0.8,0.7
					c-0.1,0-0.2,0-0.3,0c-0.7-0.4-1.4-0.6-2.2-0.8c-0.9-0.2-1.9-0.4-2.8-0.4c-1.2,0-2.3-0.4-3.4-0.5c-2.6-0.3-5.3,0-7.9,0.4
					c-1,0.1-1.9,0.4-2.8,0.6c-0.5,0.1-1,0.3-1.3,0.7c1.1,0,2.2-0.3,3.3-0.5c4-0.6,8-0.5,12-0.2c0.9,0,1.8,0.1,2.7,0.2
					c0.6,0.1,1.2,0.3,1.8,0.4c-0.1,0.1-0.2,0.2-0.3,0.3c-0.2,0.2-0.5,0.1-0.8,0.1c-1,0-2,0.1-3.1,0c-3.3-0.2-6.6,0-10-0.1
					c-1.9,0-3.7,0.1-5.6,0.1c-0.2,0-0.5-0.1-0.7-0.1c0-0.1,0-0.2,0-0.4c0.1,0,0.2-0.1,0.3-0.1c0.1-0.2,0.1-0.4,0.3-0.5
					C80.9,118.9,83,118.2,85.2,117.7z"/>
				<path class="st11" d="M97.2,119.8c-0.9-0.2-1.9-0.4-2.8-0.4c-1.2,0-2.3-0.4-3.4-0.5c-2.6-0.3-5.3,0-7.9,0.4
					c-1,0.1-1.9,0.4-2.8,0.6c-0.5,0.1-1,0.3-1.3,0.7c1.1,0,2.2-0.3,3.3-0.5c4-0.6,8-0.5,12-0.2c0.9,0,1.8,0.1,2.7,0.2
					c0.6,0.1,1.2,0.3,1.8,0.4c0.3,0.1,0.5,0.1,0.8,0.1C98.7,120.2,97.9,120,97.2,119.8z"/>
				<path class="st8" d="M115.3,121c0.1,0,0.2,0,0.3,0c-0.4,2.6-0.7,5.2-1.1,7.8c-0.4,2.5-1.2,4.9-2.1,7.3c-0.9,2.1-1.7,4.3-3.1,6.2
					c-0.1,0-0.2-0.1-0.2-0.1c1.1-1.7,1.9-3.6,2.6-5.5c0.9-2.2,1.6-4.6,2-7c0.4-2.5,0.7-5.1,1.3-7.6C115,121.8,115.2,121.4,115.3,121
					z"/>
				<path class="st8" d="M84.9,122.9c0.2-0.2,0.5-0.3,0.8-0.3c-0.2,0.4-0.5,0.7-0.8,1c-1.2,1.4-2.2,2.9-3.1,4.5
					c-0.7,1.3-1.3,2.6-1.7,4.1c-0.1,0.4-0.1,0.8-0.4,1.1c-0.1-0.9,0.2-1.7,0.5-2.5c0.5-1.3,1.1-2.6,1.8-3.9
					C82.7,125.4,83.7,124,84.9,122.9z"/>
				<path class="st8" d="M92.6,123c0.1,0,0.2,0,0.3,0c0.5,0.7,0.7,1.4,1,2.2c0.6,1.6,1,3.2,1.1,4.9c0.1,1.1,0,2.3-0.1,3.4
					c-0.2,2.4-0.6,4.8-1.4,7c-0.1,0-0.2,0.1-0.2,0.1c0.6-2.3,1.1-4.7,1.2-7.2c0.2-2.4,0-4.8-0.8-7.1C93.4,125.2,92.9,124.2,92.6,123
					z"/>
				<path class="st8" d="M97.5,123.1c0.5,0,0.8,0.5,1,0.9c0.5,0.8,0.8,1.6,1.2,2.5c0.6,1.6,1.3,3.2,1.9,4.9c0.3,0.9,0.7,1.7,0.7,2.6
					c-0.1-0.1-0.3-0.2-0.3-0.3c-0.6-1.9-1.4-3.7-2.2-5.5c-0.5-1.2-1-2.3-1.5-3.5C98,124.1,97.6,123.6,97.5,123.1z"/>
				<path class="st8" d="M99.9,123.2c0.2,0,0.4,0.1,0.6,0.3c1.4,1.4,2.2,3.1,3,4.9c0.4,1.1,0.9,2.2,1.2,3.4c0.3,1.2,0.6,2.5,0.5,3.7
					c-0.1,0-0.2,0-0.2-0.1c0-1.4-0.4-2.7-0.8-4c-0.7-2.1-1.6-4.2-2.9-6.1C100.9,124.6,100.3,124,99.9,123.2z"/>
				<path class="st8" d="M87.9,123.5c0.2-0.1,0.3,0.2,0.2,0.3c-1,1.8-1.8,3.7-2.5,5.6c-0.8,2.1-1.4,4.2-2,6.4
					c-0.1,0-0.2,0.1-0.2,0.1c0.1-1,0.4-1.9,0.6-2.8c0.8-2.7,1.6-5.3,2.8-7.8C87.1,124.6,87.3,124,87.9,123.5z"/>
				<path class="st8" d="M89.3,125.1c0-0.2,0.3-0.2,0.3,0c0.1,0.8,0.1,1.5,0.1,2.3c-0.1,1.6-0.2,3.2-0.5,4.8
					c-0.1,0.4-0.2,0.9-0.6,1.1c0.5-1.5,0.5-3.1,0.6-4.7C89.3,127.4,89.1,126.2,89.3,125.1z"/>
				<path class="st8" d="M76.2,127.9c0.2-0.5,0.3-1,0.8-1.3c-0.1,0.7-0.4,1.4-0.6,2.2c-0.7,2.1-1.6,4.1-2.5,6c-1,2-1.9,4.1-2.9,6.1
					c-0.6,1.2-1.2,2.5-2,3.6c-0.1,0-0.2,0-0.3,0c1.1-1.9,2-3.9,2.9-5.9C73.3,135.2,74.8,131.6,76.2,127.9z"/>
				<path class="st8" d="M68.2,130.1c0.1,0.1,0.3,0.1,0.5,0.2c0,2.3-0.7,4.6-1.5,6.8c-0.9,2.1-1.9,4.1-3.1,6.1
					c-0.8,1.2-1.6,2.6-2.8,3.5c0.1-0.5,0.6-0.8,0.8-1.2c1.2-1.6,2.2-3.4,3.1-5.2C66.7,137.1,68.1,133.7,68.2,130.1z"/>
				<path class="st8" d="M110.4,134.3c0.2-1,0.3-1.9,0.6-2.8c0.1,0.1,0.1,0.2,0.2,0.3c0.1,0.2,0,0.4-0.1,0.6c-0.5,2.3-1,4.7-1.5,7
					c-0.1,0.4-0.2,0.7-0.4,1c-0.1-0.4,0.1-0.8,0.2-1.2C109.7,137.6,110,136,110.4,134.3z"/>
				<path class="st8" d="M70.4,134.1c0.2-0.6,0.2-1.2,0.5-1.7c0.3,1,0,2.1-0.3,3.1c-0.7,2.1-1.8,3.9-3,5.8c-1.1,1.7-2.1,3.4-3.4,4.9
					c-0.2,0.3-0.5,0.6-0.8,0.7c0.3-0.5,0.7-0.8,1-1.3c1.4-1.9,2.6-3.9,3.7-6C68.9,137.9,69.7,136,70.4,134.1z"/>
				<path class="st8" d="M81.8,133.4c0.1-0.3,0.2-0.6,0.4-0.7c0.1,0.8-0.3,1.6-0.6,2.4c-0.8,2.2-2,4.4-3.2,6.4
					c-2.1,3.6-4.5,6.9-7,10.2c-0.7,0.9-1.4,1.8-2.2,2.6c-0.6,0.6-1.1,1.3-1.7,1.8c-0.2,0.1-0.4,0.2-0.6,0.3c1.7-1.7,3.2-3.6,4.7-5.5
					c2.4-3.3,4.6-6.8,6.7-10.3C79.7,138.2,80.9,135.9,81.8,133.4z"/>
				<path class="st8" d="M63.7,133.4c0.2,0.1,0.4,0.2,0.4,0.4c0.1,1.1-0.1,2.1-0.4,3.1c-0.6,2-1.3,4-2.1,6c-0.2,0.5-0.5,1-0.8,1.4
					c-0.1,0-0.2,0-0.3,0.1c1.2-2.5,2-5.1,2.7-7.7C63.5,135.6,63.5,134.5,63.7,133.4z"/>
				<path class="st8" d="M100,134c0.1,0,0.2,0,0.3,0c0.4,2.3,0.5,4.7,0.1,7.1c-0.3,2.1-1.1,4-1.9,6c-0.7,1.6-1.4,3.3-2.2,4.8
					c-0.3,0.4-0.5,0.9-0.9,1.1c0.2-0.5,0.5-0.9,0.7-1.4c1-2,1.8-4,2.5-6.1c0.8-2.2,1.3-4.5,1.4-6.8C100,137.1,99.9,135.6,100,134z"
					/>
				<path class="st8" d="M79.2,134.3c0.1,0,0.2,0,0.3,0c-0.2,1.1-0.8,2.1-1.3,3.1c-2,3.7-4.2,7.2-6.7,10.6c-1.7,2.4-3.4,4.8-5.5,6.9
					c-0.1,0.1-0.3,0.2-0.4,0.2c0-0.2,0.1-0.4,0.3-0.5c0.8-0.8,1.5-1.8,2.2-2.7c2.6-3.6,5.2-7.3,7.5-11.1
					C76.8,138.6,78.1,136.5,79.2,134.3z"/>
				<path class="st8" d="M91.6,135.7c0.2-0.5,0.3-1.1,0.8-1.4c-0.7,2.2-1.1,4.5-1.6,6.8c-0.6,2.8-1.4,5.6-2.3,8.3
					c-0.8,2.3-1.6,4.6-2.6,6.9c-0.3,0.5-0.6,1.2-1.1,1.5c0.3-0.5,0.6-1,0.9-1.5c1-2.4,1.9-4.8,2.7-7.3c0.6-1.7,1.1-3.5,1.5-5.3
					C90.4,141,90.9,138.3,91.6,135.7z"/>
				<path class="st8" d="M96.3,138c0.1-0.6,0.3-1.2,0.6-1.7c0,0.7-0.2,1.3-0.2,1.9c-0.4,2.3-0.6,4.6-1.3,6.8
					c-0.6,2.1-1.4,4.2-2.4,6.2c-1,2.2-2.1,4.4-3.3,6.5c-0.5,0.8-0.9,1.6-1.5,2.2c0,0-0.1-0.1-0.1-0.1c0.7-0.6,1-1.4,1.5-2.2
					c2.2-4.2,4.2-8.6,5.4-13.2C95.5,142.2,95.7,140.1,96.3,138z"/>
				<path class="st8" d="M103,136.5c0.3,0.1,0.2,0.5,0.3,0.7c0.2,4.5-0.9,9-2.7,13.1c-0.8,1.8-1.7,3.6-2.7,5.3
					c-0.4,0.7-0.8,1.4-1.3,2c-0.1,0-0.2,0-0.3,0c1-1.5,1.8-3.1,2.6-4.8c1.2-2.4,2.1-4.8,2.8-7.4c0.7-2.3,0.9-4.7,1.2-7
					C102.8,137.8,102.8,137.1,103,136.5z"/>
				<path class="st8" d="M74.7,137.2c0.1-0.2,0.2-0.3,0.3-0.5c0.1,0,0.3,0,0.4,0.1c-0.8,2.1-1.9,4.1-3,6c-1.2,2.1-2.5,4.1-3.8,6
					c-0.9,1.4-1.9,2.8-2.9,4.1c-0.3,0.3-0.6,0.8-1,0.9c1.2-1.6,2.3-3.2,3.4-4.9C70.5,145.1,72.7,141.2,74.7,137.2z"/>
				<path class="st8" d="M105.5,138.6c0.4,0.2,0.3,0.7,0.4,1.1c0.1,2.2-0.4,4.4-1.1,6.4c-0.6,1.8-1.3,3.6-2.2,5.3
					c-0.3,0.5-0.6,1.1-1,1.6c-0.1,0.2-0.3,0.2-0.5,0.2c1.3-1.8,2.1-3.8,2.8-5.9c0.7-2,1.1-4.1,1.4-6.3
					C105.3,140.2,105.2,139.4,105.5,138.6z"/>
				<path class="st8" d="M92.4,143.5c0.1-0.4,0.1-0.9,0.5-1.1c0.1,0.1,0.2,0.2,0.2,0.2c-0.2,2-1,3.9-1.7,5.8c-0.3,0.8-0.6,1.5-1,2.3
					c-0.1,0.2-0.3,0.3-0.4,0.4c0.1-0.6,0.5-1.2,0.7-1.8C91.3,147.4,91.9,145.5,92.4,143.5z"/>
				<path class="st8" d="M107.2,142.8c0.1,0,0.2,0,0.4,0c0.2,1-0.2,1.9-0.5,2.8c-0.6,1.6-1.2,3.3-2.3,4.6c-0.1,0-0.2,0-0.3,0
					c0.1-0.4,0.4-0.8,0.6-1.2C106,147,106.6,144.9,107.2,142.8z"/>
				<path class="st8" d="M79.9,145.4c0.2-0.2,0.4-0.3,0.6-0.3c-0.3,0.6-0.7,1-1.2,1.5c-1.3,1.5-2.7,3-3.9,4.6
					c-2.9,3.5-5.3,7.5-7.4,11.5c-0.3,0.6-0.7,1.3-0.9,1.9c0.4-0.3,0.7-0.8,1-1.2c0.8-1,1.6-2.1,2.4-3.1c0.1-0.2,0.4-0.2,0.6-0.2
					c-0.4,0.7-1,1.2-1.4,1.9c-1,1.2-1.9,2.4-2.9,3.6c-0.3,0.4-0.6,0.8-1.1,1.1c0.1-0.5,0.5-0.9,0.8-1.4c0.3-0.6,0.6-1.2,0.9-1.8
					c1.1-2.2,2.3-4.4,3.5-6.6c1.1-1.9,2.3-3.7,3.7-5.5C76.2,149.4,78,147.3,79.9,145.4z"/>
				<path class="st8" d="M83.2,149.9c0.1,0,0.2,0,0.2-0.1c0,0.9-0.2,1.8-0.5,2.6c-0.7,2.3-1.5,4.6-2.5,6.8c-1.6,3.3-3.3,6.6-5.4,9.6
					c-0.5,0.6-0.9,1.3-1.6,1.7c0.3-0.5,0.7-0.8,1-1.3c2.4-3.5,4.2-7.3,5.9-11.1C81.5,155.5,82.4,152.7,83.2,149.9z"/>
				<path class="st8" d="M79.4,152.9c0.4-0.5,0.7-1,1.2-1.3c0,0.2-0.1,0.4-0.1,0.6c-2.3,3.9-5.4,7.1-8.6,10.3
					c-1.4,1.4-2.9,2.8-4.5,4.1c-0.1,0-0.2-0.1-0.2-0.1c3-2.7,5.8-5.5,8.4-8.5C76.9,156.2,78.1,154.5,79.4,152.9z"/>
				<path class="st8" d="M85.2,153c0.1,0.1,0.3,0.1,0.3,0.2c-0.6,2-1.3,3.9-2.3,5.6c-2.1,3.7-4.6,7.1-7.3,10.3
					c-0.7,0.8-1.3,1.7-2.2,2.4c0.1-0.4,0.4-0.7,0.7-1.1c1.5-1.9,3-3.8,4.5-5.7c2.2-3.2,4.4-6.6,5.8-10.3C84.9,154,85,153.5,85.2,153
					z"/>
				<path class="st8" d="M94.4,155.6c0.3-0.5,0.6-1.1,1.1-1.3c-0.2,0.8-0.7,1.5-1,2.2c-1.1,1.7-2.5,3.2-3.9,4.7
					c-3,3-6.3,5.5-9.6,8.1c-0.7,0.5-1.4,1.1-2.2,1.5c0-0.1,0-0.2,0-0.3c1.7-1.3,3.3-2.7,5-4c1.8-1.5,3.5-2.9,5.2-4.5
					C91,159.9,92.9,157.9,94.4,155.6z"/>
				<path class="st8" d="M65.1,161.1c-0.2-0.2-0.1-0.5-0.1-0.7c0.2,0.1,0.4,0.1,0.6,0.3c0.2,0.1,0.1,0.4,0.1,0.6
					C65.5,161.2,65.2,161.3,65.1,161.1z"/>
				<g>
					<path class="st5" d="M118.5,153.2c0.8-0.9,1.5-1.9,2.3-2.9c0.7-0.9,1.3-1.9,1.8-2.8c0.5-1,1.2-2,1.6-3.1c0.8-2,1.5-4.1,1.9-6.2
						c0.2-1.2,0.1-2.4,0.3-3.6c0.1-0.8-0.1-1.6-0.1-2.5c-0.2-0.1-0.3-0.2-0.5-0.3c0,1.1,0.1,2.3-0.1,3.4c-0.1,1.1-0.1,2.2-0.3,3.3
						c-0.5,2.3-1.1,4.6-2.2,6.7c-1,1.7-1.9,3.5-3.1,5c-0.6,0.7-1.1,1.5-1.8,2.2c-0.9,0.9-1.7,1.9-2.6,2.8c-1.4,1.4-3.1,2.6-4.8,3.7
						c-2,1.3-4,2.5-6.2,3.3c-1.3,0.4-2.5,0.9-3.8,1.4c-1.1,0.3-2.2,0.8-3.3,0.8c-1.5,0.2-3,0.5-4.5,0.7c-0.1-0.1-0.1-0.1-0.2-0.2
						c-0.6,0.2-1.2,0.1-1.8,0.3c-0.2,0.3,0.2,0.5,0.5,0.4c0.3-0.2,0.5,0.1,0.8,0.1c1.4-0.1,2.8-0.4,4.2-0.6c0.4-0.1,0.9-0.1,1.3-0.3
						c0.5,0,0.9,0,1.4-0.2c0.8-0.2,1.7-0.4,2.5-0.7c1.5-0.5,3-1,4.5-1.7c0.8-0.3,1.5-0.7,2.3-1.1c2.1-1.1,4.1-2.4,5.9-3.8
						C115.8,156.1,117.1,154.6,118.5,153.2z"/>
					<path class="st5" d="M60.1,153.9c-0.3-0.3-0.7-0.4-0.9-0.7c-0.4-0.4-0.8-0.8-1.1-1.2c-0.4-0.5-1-0.9-1.4-1.5
						c-0.7-0.8-1.4-1.6-2-2.5c-0.6-1-1.4-1.9-2.1-2.9c-1.1-1.6-2-3.3-3-4.9c-0.2-0.5-0.4-0.9-0.7-1.3c-0.1,0-0.2,0-0.4,0
						c0,0.3,0,0.6,0.2,0.8c0.7,1.1,1.3,2.1,1.9,3.2c0.9,1.6,2.1,3.1,3.2,4.5c1.1,1.7,2.4,3.3,3.8,4.7c0.2,0.3,0.5,0.6,0.7,0.8
						c0.7,0.7,1.3,1.6,2.1,2.2c0.3,0.2,0.6,0.4,0.9,0.2C61,154.7,60.5,154.3,60.1,153.9z"/>
					<path class="st5" d="M151.4,161.1c-0.1,0-0.3,0-0.4,0c-0.6,0.7-0.9,1.6-1.4,2.5c-0.7,1.4-1.4,2.7-2.4,3.8
						c-1.4,1.8-3,3.5-4.8,4.8c0,0.1,0,0.2,0,0.3c0.1,0,0.2,0,0.2,0c2.5-1.8,4.6-4,6.3-6.4c0.8-1.1,1.3-2.3,1.8-3.6
						C151,162,151.3,161.6,151.4,161.1z"/>
					<path class="st5" d="M123.7,170c-0.3,0.1-0.6,0.2-0.8,0.4c-1.4,0.4-2.9,0.9-4.4,1.2c-1.2,0.3-2.5,0.4-3.7,0.6
						c-1.3,0.2-2.5,0.8-3.4,1.7c0.6-0.2,1.2-0.5,1.9-0.8c0.9-0.3,1.8-0.4,2.7-0.5c1.5-0.2,2.9-0.6,4.3-1c0.9-0.3,1.9-0.6,2.7-1
						c0.8-0.2,1.5-0.7,2.2-1.2c0-0.1,0-0.2,0-0.3C124.7,169.4,124.3,169.8,123.7,170z"/>
					<path class="st5" d="M43.6,182.4c-0.8-0.2-1.7-0.3-2.5-0.5c-1.1-0.3-2.2-0.6-3.2-1.1c-1.7-0.7-3.1-2.1-4.8-2.9
						c-1.1-0.5-2.4-0.9-3.5-0.4c0,0.1,0,0.3,0,0.4c0.8-0.1,1.6,0.1,2.4,0.4c1.5,0.6,2.8,1.6,4.2,2.5c1.2,0.7,2.6,1.1,4,1.5
						c1.1,0.3,2.3,0.4,3.5,0.5C43.6,182.7,43.6,182.5,43.6,182.4z"/>
					<path class="st5" d="M149.5,196.3c0.1,4.3,1.3,8.6,2.2,12.8c0.2,1,0.4,2,0.7,3c0.3,0.9,0.5,1.9,0.7,2.9
						c0.3,1.2,0.6,2.5,0.7,3.8c0.1,1.3,0.4,2.6,0.5,4c0.1,1.4,0.1,2.8,0.1,4.2c0,0.8,0.1,1.6,0.1,2.3c0,1.1,0,2.1,0.1,3.2h0.5
						c0-0.4,0-0.9,0-1.3c0.1-1.8-0.1-3.7-0.1-5.5c0-1.6,0-3.3-0.3-4.9c-0.2-1.6-0.4-3.1-0.7-4.7c0-1,0-1.9-0.1-2.9
						c0.1-0.1,0.2-0.1,0.3-0.2c-0.1-0.4-0.1-0.8-0.1-1.2l-0.1,0c0-0.4,0-0.9-0.1-1.3c-0.3-2.7-0.8-5.4-1-8.1c-0.2-2.2,0-4.5,0.2-6.7
						c0.3-2.9,0.8-5.7,1.4-8.5c0.5-2.6,1-5.3,1.4-8c0.1-0.4,0.2-0.8,0.1-1.2c-0.2,0.1-0.3,0.3-0.4,0.5c-0.9,2.6-1.3,5.4-1.9,8.1
						c-0.6,2.8-1.1,5.6-1.4,8.4c-0.3,2.7-0.4,5.5-0.1,8.3c0.3,2.5,0.7,5,1.2,7.5c-0.1,0.1-0.3,0.2-0.4,0.3c0,0.7,0.1,1.3,0.3,2
						l0-0.2c0,0.1,0,0.3,0,0.4c0,0.3,0,0.6,0,0.9c-0.2-1.5-0.8-3-1.1-4.5c-0.5-2.4-1.1-4.8-1.6-7.3c-0.6-3-1.1-6.1-1.1-9.2
						c0.1-0.4,0.1-0.8,0.1-1.2c0-0.4,0.2-0.7,0.1-1.1c-0.2,0.1-0.4,0.3-0.5,0.6c-0.2,0.6-0.3,1.3-0.2,2
						C149.4,194.5,149.5,195.4,149.5,196.3z"/>
					<path class="st5" d="M15.6,182.4c1.4,3.3,2.3,6.7,2.8,10.2c0.4,2.8,0.7,5.6,1,8.4c0,1,0.1,1.9,0.1,2.9c0,1.8,0.1,3.5,0.1,5.3
						c-0.1,1.4-0.2,2.7-0.2,4.1c-0.1,2.4-0.1,4.9-0.1,7.4c0,1-0.2,2.1-0.3,3.1c-0.2,2.9-0.1,5.9,0.1,8.8H20
						c-0.2-1.8-0.3-3.7-0.2-5.5c0-1.6,0-3.2,0.1-4.8c0.2-1.5-0.1-3,0.1-4.4c0-0.1-0.1-0.2-0.1-0.3c0-1.1,0.2-2.3,0.1-3.4
						c0.1-0.6,0.1-1.2,0.2-1.8c0.2-2.8,0.6-5.5,0.9-8.3c0.4-3,0.8-6,1-9.1c0.1-3.1,0-6.3-0.4-9.4c-0.1-0.9-0.2-1.9-0.5-2.8
						c-0.1,0-0.2,0-0.4,0c0,2.2,0.3,4.4,0.3,6.6c0.1,2.6,0.1,5.2-0.2,7.8c-0.3,3-0.7,6-0.9,9c-0.1-1.3,0-2.5-0.1-3.8
						c0-0.9,0-1.8-0.1-2.8c0-0.8-0.1-1.7-0.1-2.5c-0.4-5.2-1.2-10.6-3.3-15.4c-0.7-1.8-1.6-3.5-2.7-5c-0.1,0-0.2,0-0.4,0
						c0,0.6,0.3,1.1,0.6,1.6C14.5,179.7,15.1,181,15.6,182.4z"/>
					<path class="st5" d="M81.8,199.6c-0.5,0.3-1.2,0.7-1.3,1.3c0.1,0,0.2,0,0.3,0c0.7-0.6,1.6-0.9,2.5-0.9c1.7-0.1,3.4-0.4,5.2-0.6
						c1.1-0.2,2.2-0.2,3.2-0.5c0-0.1,0-0.2,0.1-0.4c-2.1,0.2-4.2,0.4-6.3,0.5C84.2,199.2,83,199.2,81.8,199.6z"/>
					<path class="st5" d="M50.5,201.9c-2.1-0.8-4.2-1.6-6.3-2.3c-0.7-0.2-1.6-0.4-2.3,0.1c0,0.1,0,0.2,0,0.3
						c0.6-0.2,1.2-0.1,1.7,0.1c2.3,1,4.8,1.7,7.3,2.5c0.6,0.2,1.2,0.5,1.8,0.6c0-0.1,0-0.2,0-0.4C52,202.4,51.2,202.2,50.5,201.9z"
						/>
					<path class="st5" d="M160.1,215.1c-0.1-1.4-0.5-2.8-0.7-4.2c-0.2-1.2,0-2.4,0-3.5c0.2-0.5,0.3-1,0.3-1.4c-0.1,0-0.2,0-0.3,0
						c-0.1,0.2-0.2,0.4-0.3,0.6c-0.5,1.8-0.6,3.6-0.3,5.4c0.3,1.8,0.7,3.5,0.8,5.3c0.2,2.2,0.3,4.5,0.2,6.8l0-0.2
						c-0.1,0.5-0.2,1-0.2,1.5c0.1,0,0.2,0,0.3,0c0.1-0.5,0.3-0.9,0.3-1.4c0.1-0.5,0.1-1.1,0.2-1.6
						C160.4,219.9,160.3,217.5,160.1,215.1z"/>
					<path class="st5" d="M16.1,214.6c0-0.4,0-0.8-0.1-1.2c-0.4-2.7-0.9-5.4-1.7-8c-0.6-1.9-1.5-3.7-2.5-5.4c-0.5-0.8-1-1.7-1.7-2.4
						c-0.1,0-0.2,0-0.3,0c0.1,0.5,0.4,0.9,0.6,1.3c0.9,1.7,1.8,3.4,2.5,5.1c1.2,2.7,1.9,5.6,2.4,8.5c0.2,1,0.3,2,0.5,3
						c0,1.1,0.1,2.2-0.2,3.3c0.1,0,0.3,0,0.4,0c0.3-0.9,0.4-1.8,0.3-2.8C16.2,215.5,16.2,215.1,16.1,214.6z"/>
					<path class="st5" d="M136.9,222c-1.1,0.6-2.2,1.2-3.4,1.8c-1.7,0.7-3.5,1.3-5.2,2.1c-1,0.5-1.9,1.2-2.7,2c0,0.1,0,0.2,0,0.3
						c0.2,0,0.4-0.1,0.6-0.2c0.8-0.6,1.6-1.1,2.5-1.4c1.3-0.5,2.6-1,3.9-1.4c1.2-0.5,2.3-1.1,3.5-1.8c1.4-0.9,2.9-1.7,4-3
						c0.2-0.2,0.1-0.4,0.1-0.6c-0.1,0-0.2,0-0.3,0C139.1,220.7,138,221.4,136.9,222z"/>
					<path class="st5" d="M33.2,223.5c-1.1-0.8-2.4-1.3-3.5-2c-0.3-0.1-0.5-0.1-0.8,0c0,0.1,0,0.2,0,0.3c0.2,0.1,0.4,0.1,0.7,0.2
						c1,0.9,2.3,1.5,3.3,2.4c1.8,1.5,3.4,3.1,5.2,4.5c0.5,0.3,0.9,0.8,1.5,0.9c0-0.1,0-0.3,0-0.4C37.3,227.5,35.6,225.2,33.2,223.5z
						"/>
				</g>
			</g>
			<path class="st5" d="M55.7,232.5c0.2-0.6,0.4-1.2,0.7-1.7c0.5-1,1.1-2.1,1.7-3.1c1.1-1.7,2.2-3.4,3.5-5c1.3-1.5,2.9-2.6,4.4-3.8
				c1.7-1.4,3.7-2.6,5.7-3.6c0.7-0.4,1.5-0.7,2.3-1c1.5-0.7,3-1.3,4.6-1.8c2-0.5,4.1-0.9,6.2-1c1.4-0.1,2.7-0.3,4.1-0.3
				c1.9,0,3.8-0.1,5.7,0.2c1.3,0.3,2.5,0.4,3.8,0.8c1.1,0.4,2.2,0.6,3.2,1.1c1,0.5,2.1,0.9,3.1,1.4c1.1,0.4,2,1.1,3,1.7
				c1,0.6,2.1,1.2,3,1.9c0.8,0.6,1.4,1.3,2.1,2c0.6,0.6,1,1.5,1.6,2.1c0.8,0.8,1.3,1.9,1.9,2.9c0.5,1.2,1.1,2.4,1.6,3.5
				c0.4,0.8,0.6,1.8,1,2.6c0.1,0.3,0.2,0.7,0.3,1h1c0-0.1,0-0.1-0.1-0.2c-0.3-1-0.7-2-1-3c-0.6-1.3-1.3-2.6-1.8-3.9
				c-0.3-0.8-0.8-1.4-1.2-2.1c-0.4-0.8-1.2-1.4-1.7-2.2c-0.6-1-1.5-1.8-2.3-2.6c-1.5-1.4-3.4-2.3-5.2-3.4c-1.1-0.6-2.3-1.1-3.4-1.6
				c-1.1-0.4-2.2-1-3.3-1.3c-1.3-0.3-2.5-0.7-3.8-1c-1.2-0.2-2.3-0.5-3.5-0.5c-1.7-0.2-3.4-0.1-5.1-0.1c-1.6,0.1-3.2,0.3-4.9,0.4
				c-1.2,0.1-2.3,0.4-3.5,0.6c-2.6,0.6-5,1.8-7.5,2.8c-2.1,1-4.2,2.2-6,3.6c-1.5,1.2-3.1,2.4-4.5,3.7c-0.7,0.6-1.2,1.4-1.8,2.1
				c-1.4,2-2.9,4-4.1,6.2c-0.4,0.7-0.7,1.5-0.9,2.3H55.7z"/>
			<path class="st5" d="M86.3,213.2c0.3-0.1,0.7-0.2,1,0c0,0.1,0,0.3-0.1,0.4c-0.6,0.5-1.4,0.9-2.1,1.3c-0.2,0.1-0.3,0.2-0.4,0.3
				c0.9,0.5,1.9,1.1,2.8,1.8c0.2,0.1,0.1,0.4,0.1,0.6c-1.2-0.1-2.3-0.8-3.3-1.4c-0.3-0.1-0.6-0.6-0.9-0.3c-0.1,0.7,0.4,1.6-0.2,2.3
				c-0.2,0-0.4-0.1-0.6-0.1c0,0.2-0.1,0.3-0.1,0.5c0,0-0.1,0.1-0.2,0.1c0-0.6,0.1-1.1,0.1-1.7c0-0.9,0-1.7,0-2.6
				c0-0.3,0-0.6,0.2-0.8c0.2-0.2,0.5,0.1,0.5,0.3c0.1,0.4,0.1,0.7,0.1,1.1C84.2,214.2,85.1,213.4,86.3,213.2z"/>
			<path class="st5" d="M91.2,213.3c0.3-0.2,0.8,0,0.7,0.4c0,0.9-0.3,1.9-0.5,2.8c-0.1,0.4-0.2,0.8-0.5,1c-0.2,0.2-0.4,0.1-0.6,0
				c-0.1-0.7,0.2-1.4,0.3-2C90.9,214.7,91,214,91.2,213.3z"/>
			<path class="st5" d="M95.4,213.7c0.1-0.3,0.4-0.1,0.6,0c0.1,1.2-0.4,2.4-0.9,3.5c0.8,0.6,1.8,0.9,2.8,1.1
				c0.5,0.1,0.9,0.6,0.7,1.2c-0.4,0-0.7-0.3-1.1-0.4c-1.1-0.3-2.2-0.6-3.1-1.3c-0.5-0.3-0.2-0.9,0-1.3
				C94.8,215.6,94.9,214.6,95.4,213.7z"/>
			<path class="st5" d="M75.9,215.3c0.4-0.4,1-0.7,1.6-0.7c0.8,0,1.5,0.9,1.4,1.7c-0.1,0.5-0.5,0.8-0.9,1.1c0.9,0.3,1.9,0.3,2.8,0.7
				c0.4,0.2,0.3,0.9-0.2,0.8c-1.1-0.2-2.2-0.5-3.3-0.7c0.2,0.6,0.3,1.3,0.1,1.9c-0.1,0-0.3,0-0.4,0c-0.2-0.2-0.3-0.6-0.3-0.8
				c-0.2-0.9-0.6-1.7-0.7-2.6C75.8,216.1,75.7,215.7,75.9,215.3z"/>
			<path class="st4" d="M76.7,215.7c0.3-0.1,0.6-0.3,1-0.2c0.3,0.2,0.5,0.6,0.3,0.8c-0.2,0.3-0.6,0.5-1,0.6
				C76.8,216.5,76.7,216.1,76.7,215.7z"/>
			<path class="st5" d="M102.4,216.2c0.2-0.2,0.5-0.2,0.7,0c0.2,0.6-0.2,1.1-0.5,1.5c-0.3,0.6-0.9,1.2-1.2,1.8
				c0.9,0.5,1.9,1,2.6,1.7c0.1,0.1,0.1,0.3,0.1,0.5c-0.2,0.3-0.6,0.2-0.8,0c-0.5-0.3-1-0.7-1.6-1c-0.5-0.3-1-0.4-1.3-0.9
				c-0.1-0.6,0.3-1.1,0.6-1.6C101.5,217.5,101.8,216.8,102.4,216.2z"/>
			<path class="st5" d="M70.8,217.4c0.5-0.2,0.9-0.7,1.5-0.5c0.1,0.2,0.2,0.5-0.1,0.6c-0.7,0.5-1.6,0.8-2.3,1.3
				c0.2,0.3,0.3,0.6,0.5,0.9c0.6-0.6,1.4-0.9,2.2-1.3c0.2-0.1,0.4-0.1,0.6,0c0,0.2,0.1,0.5-0.2,0.6c-0.8,0.5-1.6,0.9-2.2,1.5
				c0.2,0.4,0.5,0.8,0.7,1.2c0.8-0.5,1.7-0.9,2.6-1.3c0.2,0,0.8-0.2,0.8,0.2c-0.2,0.3-0.4,0.5-0.7,0.7c-1.1,0.4-2,1.4-3.1,1.7
				c-0.2,0.1-0.5,0-0.6-0.3c-0.2-0.4-0.1-0.8-0.2-1.3c-0.1-0.3-0.4-0.6-0.5-0.9c-0.1-0.3-0.2-0.7-0.4-1c-0.1-0.2-0.4-0.4-0.3-0.7
				C69.5,218.1,70.2,217.7,70.8,217.4z"/>
			<path class="st5" d="M65.2,232.5c0.5-0.9,1-1.7,1.7-2.4c0.8-0.9,1.6-1.8,2.6-2.5c0.7-0.6,1.4-1.2,2.1-1.7c1-0.7,2-1.4,3.1-2
				c0.7-0.4,1.5-0.7,2.2-1.1c2.4-1.1,4.9-2.1,7.5-2.6c2.7-0.7,5.6-0.6,8.4-0.1c1.5,0.3,3,0.6,4.4,1.1c1.1,0.4,2.2,1,3.1,1.7
				c0.7,0.5,1.4,0.9,2,1.4c1.6,1.3,3,2.8,4.1,4.5c0.8,1.2,1.6,2.4,2.3,3.7h1c-0.7-1.3-1.5-2.6-2.3-3.9c-1.7-2.5-3.9-4.7-6.5-6.3
				c-1.1-0.8-2.4-1.5-3.7-1.9c-1.2-0.4-2.4-0.6-3.7-0.9c-1-0.3-2.1-0.3-3.1-0.4c-1.5-0.2-3-0.1-4.5,0.1c-1.6,0.3-3.2,0.6-4.8,1.1
				c-1.8,0.6-3.6,1.4-5.4,2.2c-2.3,1.1-4.5,2.5-6.4,4.3c-1.6,1.2-2.9,2.7-4,4.3c-0.3,0.5-0.6,0.9-1,1.4H65.2z"/>
			<path class="st5" d="M66.6,220.7c0-0.2,0.2-0.5,0.4-0.5c0.2,0.1,0.4,0.2,0.4,0.5c0.1,0.8,0.1,1.6,0.2,2.4
				c0.1,0.8,0.3,1.6,0.1,2.3c-0.1,0.4-0.6,0.5-0.9,0.3c-1.1-0.4-2.2-0.9-3.2-1.6c-0.3-0.1-0.3-0.5-0.2-0.7c0.5-0.1,0.9,0.1,1.3,0.3
				c0.7,0.3,1.4,0.7,2.1,0.9C66.8,223.3,66.6,222,66.6,220.7z"/>
			<path class="st5" d="M83.7,224.6c0.4-1.3,1.5-2.3,2.8-2.7c0.4-0.1,0.8-0.1,1,0.2c-0.1,0.4-0.6,0.4-1,0.5c-1,0.4-1.8,1.3-2,2.3
				c-0.2,0.9-0.3,1.8-0.6,2.7c-0.1,0.2-0.4,0-0.4-0.2C83.3,226.5,83.5,225.6,83.7,224.6z"/>
			<path class="st5" d="M109.6,222.4c0.5-0.1,1,0.1,1.2,0.6c0.3,0.7-0.4,1.6-1.1,1.6c-0.8,0.1-1.6-0.8-1.3-1.6
				C108.6,222.5,109.2,222.5,109.6,222.4z"/>
			<path class="st5" d="M86.6,232.5h0.5c0-0.2-0.1-0.4-0.2-0.6c-0.3-0.8-0.3-1.6-0.5-2.3c-0.2-1.1-0.6-2.3-0.4-3.4
				c0.1-0.6,0.1-1.4,0.8-1.6c0.8-0.3,1.6-0.4,2.4-0.4c0.8,0,1.4,0.6,2.1,0.7c1.1,0.2,2.2,0.3,3.3,0.5c0.9,0.2,1.6,0.7,2.4,1.1
				c0.5,0.2,0.7,0.7,0.8,1.2c-1.7,0.2-3.4,0-5,0.2c-0.3,0-0.7,0.1-0.8,0.5c-0.1,0.7,0.1,1.3,0.1,2c0,0.8,0,1.5,0.1,2.3h0.9
				c0-0.5,0-1-0.1-1.5c0-0.8-0.1-1.6,0-2.4c0.9-0.2,1.9-0.1,2.8-0.1c0.8,0,1.5-0.1,2.3-0.1c0.3,0,0.6-0.2,0.5-0.5
				c-0.2-0.7-0.4-1.5-1.1-1.9c-1-0.4-1.8-1.2-2.9-1.5c-0.9-0.2-1.9-0.3-2.9-0.4c-0.7-0.1-1.3-0.7-2.1-0.7c-1.1-0.1-2.2,0.3-3.1,0.8
				c-0.7,0.4-0.8,1.2-1,1.9c-0.3,1.6,0.3,3.1,0.6,4.7C86.2,231.4,86.4,231.9,86.6,232.5z"/>
			<path class="st5" d="M68.3,232.5c0.5-0.8,1.1-1.5,1.8-2.2c0.5-0.7,1.3-1.1,1.9-1.6c1.1-0.8,2.3-1.6,3.5-2.3
				c0.8-0.4,1.8-0.6,2.7-0.2c0.8,0.3,1.4,0.9,2,1.4c1.5,1.2,2.9,2.6,4.2,4c0.3,0.3,0.6,0.6,0.9,0.9h1.1c0,0-0.1-0.1-0.1-0.1
				c-0.6-0.8-1.3-1.6-2-2.3c-1.4-1.5-3-2.9-4.8-4c-0.9-0.5-1.9-0.9-2.9-0.7c-0.8,0.1-1.6,0.5-2.3,0.9c-1.2,0.6-2.2,1.5-3.3,2.2
				c-0.6,0.5-1.3,1-1.6,1.8c-0.4,0.4-0.8,0.7-1.1,1.2c-0.2,0.3-0.5,0.7-0.7,1H68.3z"/>
			<path class="st5" d="M61.5,225.2c0.5-0.2,1.1,0.1,1.6,0.2c1.3,0.5,2.1,2.1,1.8,3.5c-0.2,0.6-0.5,1.2-1.1,1.6
				c-0.6,0.3-1.3,0.2-1.8-0.1c-0.8-0.4-1.4-1.3-1.7-2.2C59.9,227,60.3,225.5,61.5,225.2z"/>
			<path class="st5" d="M97.7,225.4c0.5,0,0.9,0.2,1.4,0.4c1.2,0.4,2.2,1.1,3.1,2c0.7,0.7,1.5,1.3,2.1,2.1c0.4,0.7,1.1,1.3,1.2,2.1
				c0.1,0.2-0.1,0.3-0.2,0.4c-0.1-0.3-0.3-0.5-0.6-0.7c-0.8-0.7-1.3-1.6-2.2-2.3c-0.8-0.7-1.6-1.4-2.4-2c-0.8-0.6-1.7-0.9-2.4-1.6
				C97.7,225.6,97.7,225.5,97.7,225.4z"/>
			<path class="st5" d="M88.4,225.8c0.3-0.2,0.8-0.1,0.9,0.2c0.1,0.3,0.1,0.6-0.1,0.8c-0.2,0.3-0.6,0.2-0.9,0
				C87.8,226.7,88,226,88.4,225.8z"/>
			<path class="st4" d="M61.6,226.1c0.6,0,1.1,0.2,1.6,0.6c0.5,0.5,0.9,1.2,0.7,1.9c-0.1,0.4-0.3,0.8-0.7,1
				c-0.5,0.1-1.1-0.2-1.4-0.6c-0.5-0.6-0.9-1.4-0.7-2.1C61.1,226.5,61.3,226.2,61.6,226.1z"/>
			<path class="st5" d="M113.6,226.9c0.4-0.5,1.1-0.2,1.5,0.2c0.4,0.4,0.8,0.8,0.8,1.4c0,0.4,0.2,0.8,0,1.2c-0.1,0.3-0.6,0.3-0.6,0
				c-0.2-0.4-0.1-0.9-0.2-1.4c-0.1-0.1-0.3-0.1-0.4-0.2c-0.1-0.3-0.2-0.5-0.5-0.6c-0.6,0.9,0,2.1-0.6,3.1c-0.5,0.7-1.5,0.8-2.3,0.5
				c-1-0.4-1.4-1.7-1.2-2.7c0.1-0.4,0.7-0.4,0.9-0.1c0.1,0.5-0.2,1,0.1,1.4c0.3,0.5,1,0.8,1.5,0.4c0.3-0.3,0.3-0.8,0.3-1.2
				C112.9,228.3,113.1,227.5,113.6,226.9z"/>
			<path class="st5" d="M89.4,228.5c0.5-0.2,0.8-0.7,1.4-0.5c0.1,0.6-0.3,1-0.8,1.3c-0.5,0.3-1.2,0.3-1.8,0.2
				c-0.3-0.1-0.7-0.3-0.6-0.7C88.2,228.8,88.8,228.8,89.4,228.5z"/>
			<path class="st5" d="M72.5,232.5c1.4-1.3,3-2.5,4.6-3.6c0.3-0.2-0.1-0.7-0.4-0.5c-1.5,0.5-2.7,1.7-3.9,2.7
				c-0.5,0.5-1,0.9-1.5,1.4H72.5z"/>
			<path class="st5" d="M96.9,229.2c0.4,0.4,1,0.6,1.5,1c1,0.6,2,1.4,3.1,2c0.2,0.1,0.4,0.3,0.6,0.4h1.4c0,0,0-0.1-0.1-0.1
				c-0.3-0.5-0.8-0.9-1.3-1.2c-0.9-0.6-1.9-1.2-2.9-1.7c-0.8-0.4-1.6-0.8-2.4-0.7C96.9,228.9,96.8,229.1,96.9,229.2z"/>
			<path class="st5" d="M76.7,232.5c0.5-0.4,1-0.8,1.5-1.2c0.3-0.3,0.9-0.5,0.7-1c-0.4-0.3-0.9,0.1-1.2,0.3
				c-0.9,0.6-1.8,1.2-2.6,1.9H76.7z"/>
			<path class="st5" d="M94.4,231.7c0.5,0.3,0.9,0.6,1.4,0.9h2c-0.5-0.3-1-0.6-1.6-0.9c-0.6-0.3-1.3-0.7-2-0.5
				C94.3,231.3,94.2,231.5,94.4,231.7z"/>
			<path class="st5" d="M60.2,232.5c-0.1-0.5-0.6-1-1.2-0.8c-0.3,0.1-0.6,0.5-0.7,0.8H60.2z"/>
			<path class="st5" d="M80.2,232.5c0,0,0-0.1,0-0.1c-0.2,0-0.4,0-0.5,0.1H80.2z"/>
		</g>
	</g>
</g>
</svg>
