<?xml version="1.0" encoding="utf-8"?>
<!-- Generator: Adobe Illustrator 25.2.0, SVG Export Plug-In . SVG Version: 6.00 Build 0)  -->
<svg version="1.1" id="Layer_1" xmlns="http://www.w3.org/2000/svg" xmlns:xlink="http://www.w3.org/1999/xlink" x="0px" y="0px"
	 viewBox="0 0 180 180" style="enable-background:new 0 0 180 180;" xml:space="preserve">
<style type="text/css">
	.st0{clip-path:url(#SVGID_2_);}
	.st1{fill:#DC9EB5;}
	.st2{fill:#38312D;}
	.st3{fill:#F2844F;}
	.st4{fill:#4E3E37;}
	.st5{fill:#E56324;}
	.st6{fill:#F95939;}
	.st7{fill:#FCB897;}
	.st8{fill:#B65A35;}
	.st9{fill:#CE9077;}
	.st10{fill:#CA886D;}
	.st11{fill:#17110E;}
	.st12{fill:#FCBFA1;}
	.st13{fill:#DB9DB4;}
	.st14{fill:#47403D;}
	.st15{fill:#FDD1BB;}
	.st16{fill:#FDC4A9;}
	.st17{fill:#FBA594;}
	.st18{fill:#B95D38;}
	.st19{fill:#B1412B;}
	.st20{fill:#BA748E;}
	.st21{fill:#FBA684;}
	.st22{fill:#FCBB9C;}
	.st23{fill:#CC492F;}
	.st24{fill:#B9603D;}
	.st25{fill:#150F0C;}
</style>
<g>
	<defs>
		<rect id="SVGID_1_" width="180" height="180"/>
	</defs>
	<use xlink:href="#SVGID_1_"  style="overflow:visible;fill:#F21957;"/>
	<clipPath id="SVGID_2_">
		<use xlink:href="#SVGID_1_"  style="overflow:visible;"/>
	</clipPath>
	<g class="st0">
		<g>
			<path class="st1" d="M99.5,21.3c1-0.5,2.1-0.5,3.1-0.2c0.5,0.2,1,0.6,0.9,1.2c-0.2,1.4-0.9,2.7-1.6,4c1.5-1.4,3.3-2.6,5.2-3.3
				c1.4-0.5,2.9-0.9,4.4-0.9c1.6,0,3.3,0.2,4.8,0.7c1.3,0.5,2.6,1.1,3.6,2.1c1.9,1.7,3.1,4.2,3.3,6.8c-0.1,2.1-0.6,4.3-1.5,6.2
				c-0.6,1.2-1.2,2.5-2.1,3.6c-0.9,1.3-2.1,2.4-3.1,3.8c-0.4,0.6-0.9,1.1-1.1,1.7c-0.3,1-0.9,1.8-1.3,2.7c-0.7,1.3-1.3,2.7-1.8,4.2
				c-1.4,4.8-2.6,9.8-3.8,14.7c-0.6,2.6-1.3,5.2-2.1,7.8c-1.1,3.8-2.7,7.5-4.8,10.9c-1.3,2.1-2.7,4.2-4.4,6c-1.9,1.9-4,3.7-6.3,5.1
				c-1,0.6-2.1,1.1-3.3,1.3c-1.7,0.4-3.4,0.6-5.1,0.9c-2,0.3-4,0.1-5.9-0.4c-1.5-0.4-2.9-0.9-4.3-1.5c-1.7-0.8-3.3-1.9-4.6-3.2
				c-0.9-0.9-1.9-1.8-2.7-2.8c-1.9-2.9-3.2-6.2-4.6-9.4c-0.4-1.1-0.8-2.3-1.3-3.4c-0.8-2.3-1.3-4.7-1.9-7c-0.6-2.9-1.1-5.8-1.1-8.8
				c0-1.9,0.1-3.8,0.5-5.6c0.4-2.3,1.7-4.4,3.2-6.2c0.6-0.6,1.2-1.2,1.9-1.7c0.2-0.1,0.3-0.5,0.4-0.7c0.3-0.9,0.7-1.8,1.3-2.5
				c0.9-1.1,2-2,3.2-2.7c1.2-0.7,2.4-1.5,3.7-2.2c1.7-0.8,3.2-2.1,4.6-3.3c0.9-0.8,1.8-1.7,2.7-2.4c1-0.9,1.9-1.9,3.1-2.4
				c0.4-0.2,0.8-0.4,1.2-0.2c0.3,0.1,0.5,0.4,0.5,0.7c0,0.5-0.2,1-0.5,1.5c1.5-1.1,3.1-2.2,4.6-3.3c1.6-1.2,3.2-2.4,4.6-3.8
				c1.3-1.3,2.5-2.7,3.9-4C96.2,23.5,97.7,22.2,99.5,21.3z"/>
			<path class="st2" d="M21.5,170.1c1.4,0.1,2.7,0.5,4,0.8c1.1,0.2,2.1,0.6,3.2,1c1.3,0.6,2.5,1.1,3.7,1.8c1.8,1,3.4,2.3,5,3.6
				c1.2,1.2,2.4,2.4,3.6,3.6c0.7,0.8,1.3,1.7,1.9,2.6c1.3,1.8,2.5,3.8,2.9,6.1c0.2,1.1,0.3,2.3,0,3.4c-0.1,0.5-0.2,1.1-0.4,1.6
				c-0.3,0.7-0.8,1.4-1.1,2.1c-0.9,1.8-1.9,3.5-2.9,5.3c-0.5,0.8-1.1,1.6-1.6,2.4c-0.8,1.2-1.5,2.5-2.3,3.7c-1,1.7-2.2,3.3-3.1,5
				c-0.3,0.5-0.7,1-0.9,1.5c0.1,0,0.1,0,0.2,0c0.4,1.4,0.9,2.7,1.2,4.1c0.4,1.5,0.9,3,1.2,4.5c0.2,1.4,0.5,2.7,0.8,4.1
				c0.5,2.6,0.6,5.3,0.9,7.9c0.3,2.3,0.3,4.6,0.5,6.8c0,0.2,0,0.4,0.1,0.6H145c0.6-1.2,1.3-2.5,1.8-3.8c0.7-1.7,1.2-3.5,1.7-5.4
				c0.4-1.5,0.6-3,0.3-4.5c-0.2-1.1-0.3-2.2-0.3-3.3c-0.1-0.5-0.2-0.9-0.4-1.4c-0.8-1.6-1.1-3.4-1.6-5.1c-0.3-1.1-0.3-2.2-0.8-3.2
				c-0.2-0.4-0.3-0.9,0-1.3c0.7-0.3,1.5-0.5,2.3-0.4c1.4,0.1,2.8,0.1,4.2,0.2c0.3-1.2,0.6-2.5,0.9-3.7c0.6-2.5,0.9-5,1.2-7.5
				c0-1.1,0.2-2.1,0.1-3.2c-0.1-0.7-0.1-1.5-0.2-2.2c-0.1-1.3-0.5-2.5-0.9-3.7c-0.6-2.1-1.5-4.1-2.7-6c-0.7-1-1.5-1.9-2.3-2.9
				c-0.8-0.8-1.6-1.6-2.5-2.3c-1-0.9-2.2-1.4-3.2-2.2c-0.6-0.4-1.2-0.9-1.8-1.3c-1.1-0.8-2.3-1.5-3.5-2.3c-1.5-1-2.8-2.3-4.3-3.4
				c-1.8-1.4-3.4-3.1-5.2-4.5c-0.8-0.6-1.6-1.3-2.4-1.9c-1.6-1.2-3.4-2.3-4.6-3.9c-0.3-0.8-0.9-1.4-1.4-2.1
				c-1.3-1.6-2.7-3.2-4.1-4.7c-0.4-0.4-0.8-0.9-1.4-0.6c-0.2-0.2-0.5-0.4-0.7-0.6c-0.1,0-0.2,0-0.2,0c0,0.2,0,0.4,0.1,0.5
				c0.3,0.4,0.7,0.7,1,1.1c0,0.2-0.1,0.5,0.1,0.6c0.3,0.3,0.4,0.7,0.5,1c-0.1,0-0.1,0-0.2,0c-0.4-0.6-1-1.1-1.7-1.3
				c-1-0.5-2.2-0.7-3.3-1c-1.6-0.5-3.3-1.1-4.9-1.7c-6.8-2.4-13.2-5.6-19.8-8.5c-1.9-0.9-3.8-1.8-5.8-2.6c-1.4-0.5-2.8-0.8-4.3-0.9
				c-0.3,0-0.6-0.1-0.9-0.2c-0.8-0.4-1.6-0.5-2.5-0.5c0.5-0.3,0.9-0.7,1.1-1.2c0.4-0.2,0.8-0.4,0.8-0.9c0.7,0,1.3,0.1,2,0.3
				c0.2,0.1,0.4,0,0.7-0.1c0-0.3,0.1-0.6-0.2-0.8c-0.6-0.5-1.4-0.4-2.2-0.4c-0.3-0.5-0.9-0.2-1.4-0.2c-0.2-0.1-0.4-0.3-0.6-0.2
				c-0.8,0.1-1.6,0.4-2.4,0.6c-1.1,0.4-2.2,0.7-3.3,1.2c-1.6-0.2-3.1-0.6-4.7-0.9c-1-0.2-2-0.6-3-0.9c-1.4-0.4-2.8-0.8-4.2-1
				c-1.8-0.2-3.6-0.2-5.4-0.2c-1.4,0.1-2.8,0.2-4.2,0.5c-1.1,0.2-2.2,0.5-3.2,0.9c-3.4,1-6.5,3.1-9,5.6c-1.6,1.7-3,3.6-4.5,5.5
				c-2.1,2.6-3.7,5.4-5.4,8.3c-1.2,2.2-2.6,4.4-3.9,6.5c-1.1,1.8-2.1,3.5-3.2,5.2c0.8-0.1,1.6-0.1,2.4-0.1
				C18.8,170,20.2,170,21.5,170.1z"/>
			<path class="st1" d="M114.6,159.5C114.7,159.6,114.7,159.6,114.6,159.5L114.6,159.5z"/>
			<path class="st3" d="M11.8,242.9c0,0,0-0.1,0.1-0.1c1-1.5,2.2-3,3.3-4.5c3-3.8,5.9-7.7,8.9-11.6c1.3-1.7,2.7-3.3,4-5
				c1.6-2,3.1-4,4.7-6c0.2-0.3,0.6-0.6,0.7-0.9c0.2-0.6,0.6-1,0.9-1.5c1-1.7,2.2-3.3,3.1-5c0.7-1.3,1.5-2.5,2.3-3.7
				c0.5-0.8,1.1-1.6,1.6-2.4c1-1.7,1.9-3.5,2.9-5.3c0.4-0.7,0.8-1.4,1.1-2.1c0.3-0.5,0.3-1.1,0.4-1.6c0.3-1.1,0.2-2.3,0-3.4
				c-0.4-2.3-1.6-4.2-2.9-6.1c-0.6-0.9-1.2-1.8-1.9-2.6c-1.2-1.2-2.4-2.4-3.6-3.6c-1.5-1.4-3.2-2.6-5-3.6c-1.2-0.7-2.5-1.2-3.7-1.8
				c-1-0.5-2.1-0.8-3.2-1c-1.3-0.3-2.6-0.7-4-0.8c-1.4-0.2-2.7-0.1-4.1-0.1c-0.8,0-1.6,0-2.4,0.1c-1.8,3-3.7,5.9-5.5,9
				c-1.1,1.8-2,3.7-3.1,5.5c-2.4,4.2-4.8,8.3-7,12.6c-2.2,4.5-10.6,22-12.7,26.2c-1.1,2.4-2.2,4.8-3.1,7.3c-0.9,2.4-1.8,4.7-2.7,7.1
				c-0.7,1.7-1.2,3.4-1.8,5.1H11.8z"/>
			<path class="st3" d="M145.6,214.9c0.7-0.3,1.5-0.5,2.3-0.4c1.4,0.1,2.8,0.1,4.2,0.2c-0.5,2-1.3,3.9-2,5.9c-0.4,1.2-1,2.3-1.3,3.6
				c-0.2,0.6-0.3,1.2-0.4,1.8c-0.1-0.5-0.2-0.9-0.4-1.4c-0.8-1.6-1.1-3.4-1.6-5.1c-0.3-1.1-0.3-2.2-0.8-3.2
				C145.5,215.8,145.4,215.2,145.6,214.9z"/>
			<path class="st4" d="M146.5,215.6C146.9,215.6,146.3,215.9,146.5,215.6L146.5,215.6z"/>
		</g>
		<g>
			<path class="st5" d="M113.8,45c0.7-0.3,1.5-0.4,2.3-0.6c0,0.1,0,0.3,0,0.4c0.7,1,1.1,2.1,1.5,3.2c1.2,3,1.8,6.2,2.8,9.2
				c-1.9,0.2-3.8,0.2-5.7,0.2c-1,0-2.1-0.1-3.1-0.2c-1.5-0.1-3-0.3-4.4-0.5c-1.6-0.2-3.1-0.8-4.6-1.3c-1.3-0.4-2.6-1.1-3.9-1.7
				c-2.6-1.2-5.1-2.7-7.7-4c-1.4-0.7-2.8-1.2-4.3-1.6c-1.6-0.4-3.2-0.3-4.8-0.2c0.4-0.4,0.9-0.7,1.4-0.9c0.6-0.2,1.2-0.2,1.8-0.3
				c1.3-0.2,2.6-0.1,3.9,0c0.8,0,1.6,0.2,2.4,0.2c0.8,0,1.7,0.1,2.5,0.1c3.3,0,6.6,0,9.9,0c0.8,0,1.7,0,2.5-0.1
				C108.9,46.6,111.4,46,113.8,45z"/>
			<path class="st3" d="M81.9,47.9L81.9,47.9c1.6-0.1,3.2-0.2,4.8,0.2c1.5,0.4,2.9,0.9,4.3,1.6c2.6,1.3,5.1,2.8,7.7,4
				c1.3,0.6,2.5,1.2,3.9,1.7c1.5,0.5,3,1.1,4.6,1.3c1.5,0.3,2.9,0.5,4.4,0.5c1,0,2.1,0.2,3.1,0.2c1.9,0,3.8,0.1,5.7-0.2
				c0.3,1.1,0.7,2.1,0.9,3.2c0.6,2.4,1,4.7,1.6,7.1c0.5,1.8,0.8,3.6,1.1,5.5c0.5,2.3,0.9,4.5,1.3,6.8c0.4,2.8,0.8,5.7,1.1,8.5
				c0.1,1.4,0.4,2.7,0.4,4.1c0,1.7,0.3,3.3,0.4,5c0,1.8,0.1,3.6-0.3,5.4c-0.4,1.9-1.2,3.7-2.2,5.4c-0.6,1.1-1.4,2.2-2.2,3.2l0,0
				c-0.3,0-0.6,0.1-0.8,0.3c-0.7,0.5-1.5,1-2.3,1.3c-2.3,0.8-4.6,1.5-7,2c-2.8,0.7-5.6,1-8.5,1.1c-0.7,0-1.5,0-2.2-0.2
				c-1.4-0.4-2.9-0.8-4.3-1.2c-0.3-0.1-0.7-0.1-1-0.1c-0.2,0.7,0.3,1.4,0.6,2c0.5,1,1.3,1.9,1.7,2.9c0.2,0.4,0.7,0.7,0.9,1.1
				c0.9,1.8,1.8,3.6,3,5.2c0.7,0.9,1.2,1.8,1.8,2.7c1.2,1.8,3,3,4.7,4.4c1.6,1.4,3.1,2.7,4.6,4.1c0.6,0.5,1.1,1.1,1.7,1.5
				c0,3.3,0,6.6-0.1,9.9c0,3,0,6.1,0,9.1c0,0.6,0,1.3,0,1.9c-0.1,0.6-0.9,0.8-1.4,0.6c-2.2-0.5-4.4-1.2-6.7-1.7
				c-2.9-0.6-5.8-1.3-8.6-2c-2.1-0.5-4.2-1.1-6.3-1.6c-2.6-0.7-5.3-1.2-7.7-2.3c-2.7-1.1-5-2.8-7.4-4.4c-1.1-0.8-2.2-1.8-3.3-2.6
				c-0.8-0.5-1.5-1.2-2-2c-0.5-0.4-0.1-0.9,0-1.3c0.3-1,0.5-2,0.8-3c0.8-3.2,1.1-6.4,1.5-9.6c0.2-1.2,0.3-2.4,0.3-3.7
				c0.1-2.9,0.5-5.7,0.8-8.6c1.2-0.1,2.4-0.5,3.5-0.9c1.2-0.4,2.3-1,3.4-1.5c0.6-0.4,1.4-0.9,1.2-1.7c-0.2-1-0.6-1.9-0.9-2.8
				c-0.7-1.8-1.1-3.7-1.8-5.5c-0.6-1.7-1.1-3.5-1.7-5.2c-0.4-1.7-1.1-3.2-1.6-4.9c-0.1-0.4-0.2-0.9-0.5-1.1c0.3-1,0.2-2,0-3
				c-0.1-1.3-0.7-2.4-1.2-3.6c-0.7-2.2-1.4-4.4-2-6.7c-0.3-1-0.4-2-0.6-3c-0.4-2.3-1-4.6-1.3-7c-0.1-1.1-0.2-2.2-0.1-3.4
				c0.6-0.7,1.2-1.5,1.7-2.3c1-1.6,2-3.2,2.9-4.9c0.8-1.5,1.5-3,2-4.6c0.5-1.4,0.8-2.8,1.3-4.2C80.1,49.7,80.9,48.7,81.9,47.9z"/>
			<path class="st5" d="M113.9,81.6c0.4-0.1,0.9-0.5,1.3-0.2c-0.3,0.4,0.2,0.8,0.1,1.2c-0.1,0.9,0.3,1.9,0,2.8
				c-0.1,0.3-0.4,0.1-0.6,0c-0.6-0.3-0.8-0.9-1.2-1.3c-0.4-0.6-1-1.1-1.3-1.7C112.7,82,113.3,81.9,113.9,81.6z"/>
			<path class="st6" d="M66.6,89.1c0.8-0.2,1.7-0.1,2.5,0c0.9,0.1,1.8,0.3,2.6,0.7c1,0.5,2,0.9,2.7,1.7c0.7,0.8,1.6,1.4,2.4,2
				c0.3,0.3,0.4,0.8,0.5,1.1c0.4,1.7,1.1,3.2,1.6,4.9c0.6,1.7,1.1,3.5,1.7,5.2c0.7,1.8,1.1,3.7,1.8,5.5c0.3,0.9,0.7,1.8,0.9,2.8
				c0.1,0.8-0.6,1.3-1.2,1.7c-1.1,0.5-2.2,1.1-3.4,1.5c-1.1,0.4-2.3,0.8-3.5,0.9c0-0.2,0-0.5-0.1-0.7c-1.5,0.1-3.1-0.1-4.6-0.4
				c-1.4-0.4-2.9-0.8-4.1-1.7c-2.4-1.5-4.6-3.4-6.1-5.7c-1.3-2.1-2.2-4.4-2.4-6.8c-0.2-1.6-0.1-3.2,0.3-4.7c0.3-1.4,0.9-2.6,1.7-3.7
				c0.8-1.2,1.9-2.1,3.1-2.8C64,89.9,65.3,89.3,66.6,89.1z"/>
			<path class="st5" d="M121.6,111.7c0.2-0.2,0.5-0.3,0.8-0.3c-1.6,1.9-3.5,3.5-5.4,5.2c-0.7,0.6-1.5,1-2.3,1.4
				c0.1,1.7,0.2,3.4,0.4,5.2c0,3.2,0.2,13.5,0.1,15.4c-0.6-0.5-1.1-1-1.7-1.5c-1.5-1.4-3.1-2.7-4.6-4.1c-1.6-1.4-3.5-2.6-4.7-4.4
				c-0.6-0.9-1.2-1.9-1.8-2.7c-1.2-1.6-2.1-3.4-3-5.2c-0.2-0.4-0.7-0.7-0.9-1.1c-0.4-1.1-1.2-1.9-1.7-2.9c-0.3-0.6-0.8-1.3-0.6-2
				c0.3,0,0.7,0,1,0.1c1.4,0.4,2.9,0.8,4.3,1.2c0.7,0.2,1.5,0.1,2.2,0.2c2.9,0,5.7-0.4,8.5-1.1c2.4-0.5,4.7-1.2,7-2
				C120.1,112.6,120.9,112.2,121.6,111.7z"/>
		</g>
		<g>
			<path class="st7" d="M82.9,52.1c0.3-0.5,0.6-1.1,1.3-1c0,0.6-0.5,0.9-0.7,1.3c-0.6,0.8-0.9,1.8-1.3,2.7c-0.1,0-0.3-0.1-0.4-0.1
				C82.1,54,82.4,53,82.9,52.1z"/>
			<path class="st8" d="M111.2,56.8c1.2-0.4,2.4-0.8,3.7-0.9c1.1,0,2.3-0.1,3.3,0.3c0.5,0.1,0.9,0.4,1.4,0.6c0,0.1,0,0.3,0.1,0.4
				c0.1,0,0.3,0.1,0.4,0.1c0.3,0.2,0.1,0.6,0.2,0.9c-1,0-2-0.1-3.1,0.1c-1.1,0.1-2.2,0.3-3.2,0.6c-1.8,0.6-3.7,1-5.4,1.9
				c-0.1,0-0.3-0.1-0.4-0.1c-0.2-0.1-0.1-0.3-0.2-0.5c0-0.7,0.3-1.5,0.8-2C109.6,57.6,110.4,57.1,111.2,56.8z"/>
			<path class="st9" d="M119.6,56.8c0.2,0.1,0.4,0.2,0.5,0.5c-0.1,0-0.3-0.1-0.4-0.1C119.7,57.1,119.7,56.9,119.6,56.8z"/>
			<path class="st10" d="M108.3,60.7c0.1,0.1,0.3,0.1,0.4,0.1c0,0.4,0,0.7,0,1.1c-0.1-0.2-0.2-0.4-0.3-0.6c0,0.5,0,1.1,0,1.6
				C108.2,62.1,108.3,61.4,108.3,60.7z"/>
			<path class="st8" d="M87.3,61.8c2.1-0.9,4.5-0.8,6.7-0.3c0.9,0.2,1.9,0.4,2.7,0.9c0,0.3,0,0.6-0.3,0.8c-1,0.6-2.2,0.9-3.4,1.3
				c-2.1,0.7-4.3,1.1-6.5,1.8c-2,0.6-3.9,1.4-5.8,2.2c-0.6,0.2-1.2,0.6-1.9,0.6c0.1-0.4,0.3-0.8,0.6-1.1c1-1.4,2.3-2.6,3.7-3.8
				C84.5,63.4,85.8,62.4,87.3,61.8z"/>
			<path class="st11" d="M118.1,66.1c0.4-0.2,0.9,0.1,1.2,0.4c0.4,0.6,0.4,1.2,0.5,1.8c0.1,0.6,0.2,1.4-0.3,1.9
				c-0.4,0.4-1.1,0.3-1.4-0.2c-0.5-0.8-0.7-1.9-0.7-2.9C117.5,66.8,117.7,66.3,118.1,66.1z"/>
			<path class="st7" d="M108,69.6c-0.1-0.2,0.1-0.4,0.2-0.6c0.4,0.8,0.7,1.6,1.2,2.3c1.2,1.7,2.6,3.3,4.5,4.3c0,0.1,0,0.2,0,0.3
				c-0.8-0.1-1.5-0.7-2.2-1.2c-1-0.8-1.9-1.7-2.6-2.8C108.6,71.3,108.1,70.5,108,69.6z"/>
			<path class="st11" d="M90.2,72.2c0.4-0.2,0.9,0,1.1,0.4c0.3,0.4,0.4,1,0.5,1.5c0.1,0.5,0.1,1-0.2,1.5c-0.2,0.3-0.7,0.5-1,0.3
				c-0.7-0.3-0.9-1-1.1-1.7c-0.1-0.4-0.2-0.8-0.1-1.3C89.6,72.6,89.9,72.3,90.2,72.2z"/>
			<path class="st12" d="M82.9,77c0.5,0.3,0.7,0.9,1.1,1.3c0.7,0.9,1.6,1.8,2.5,2.6c0.6,0.5,1.3,0.9,2,1.1c0,0.1-0.1,0.2-0.1,0.3
				c-1.2-0.2-2.2-0.9-3.1-1.7c-0.9-0.8-1.8-1.7-2.3-2.8C82.9,77.6,82.9,77.3,82.9,77z"/>
			<path class="st13" d="M109.8,79.2c0-0.5,0.5-0.8,0.9-0.9c0,0.7-0.2,1.3-0.3,1.9C110,80.1,109.7,79.7,109.8,79.2z"/>
			<path class="st14" d="M110.7,78.3c0.3,0.1,0.6,0.1,0.8,0.3c0.3,0.4,0.2,1-0.2,1.4c-0.2,0.2-0.6,0.2-0.9,0.2
				C110.5,79.6,110.7,79,110.7,78.3z"/>
			<path class="st15" d="M107.1,80.2c0-0.3,0.1-0.5,0.3-0.8c0.1,1.1,0.4,2.2,1.1,3.1c0.3,0.3,0.6,0.6,0.8,0.9
				c-0.4-0.1-0.7-0.2-0.9-0.5C107.6,82.2,107.1,81.2,107.1,80.2z"/>
			<path class="st6" d="M94.8,79.9c1.3-0.3,2.6,0,3.8,0.5c1.4,0.6,2.7,1.6,3.6,2.9c0.7,1.2,1.2,2.6,0.9,3.9
				c-0.1,1.2-0.7,2.4-1.6,3.3c-1.7,1.7-4.4,2.6-6.7,1.8C93.4,91.8,92,91,91,89.9c-0.9-1-1.5-2.3-1.5-3.7c0.1-1.6,0.9-3.1,1.9-4.3
				C92.3,80.9,93.5,80.2,94.8,79.9z"/>
			<path class="st16" d="M100,85.2c0.2,1,0.1,2.2-0.4,3.1c0.1-0.5,0.3-1,0.4-1.6C100.1,86.3,100,85.7,100,85.2z"/>
			<path class="st17" d="M96.1,86.8c0.2,0,0.1,0.4-0.1,0.4C95.8,87.1,95.9,86.9,96.1,86.8z"/>
			<g>
				<path class="st18" d="M109.4,67.5c0.5,1.3,1,2.7,1.8,3.8c0.7,1.2,1.9,2,3,2.9c0.7,0.6,1.5,1.1,2.3,1.6c0.4,0.3,0.9,0.4,1.3,0.7
					c0.4,0.6,0.3,1.3,0,1.9c-0.4,0.8-1,1.4-1.6,2c-0.6,0.6-1.4,1-2.2,1.3c-0.3,0.1-0.5,0.3-0.8,0.4c0,0.1,0,0.2,0,0.3
					c0.3-0.1,0.7-0.2,1-0.4c1.1-0.3,2.1-1,2.9-1.9c0.6-0.7,1.3-1.3,1.5-2.2c0.2-0.7,0.1-1.4-0.4-2c-0.9-0.7-1.8-1.4-2.8-2
					c-0.8-0.7-1.6-1.3-2.4-2c-0.6-0.5-1-1.1-1.5-1.8c-0.6-0.9-1-1.9-1.4-2.8c-0.5-1.1-0.7-2.3-1-3.4c-0.2-0.7-0.3-1.5-0.5-2.2
					c-0.1-0.2-0.2-0.4-0.3-0.6c0,0.5,0,1.1,0,1.6c0,0.7,0.2,1.3,0.3,2C108.9,65.7,109,66.6,109.4,67.5z"/>
				<path class="st18" d="M121.4,70.8c-1,0.7-2.1,1.1-3.3,1.5c0,0.1,0,0.2,0,0.3c1.2,0.1,2.3-0.4,3.1-1.2
					C121.4,71.3,121.4,71.1,121.4,70.8z"/>
				<path class="st18" d="M89.7,78.4c-0.3-0.1-0.6-0.1-0.9,0c0.2,0.1,0.3,0.3,0.5,0.4c1.2,0.5,2.4,0,3.4-0.6
					c0.4-0.3,0.9-0.6,0.9-1.1c-0.2,0-0.4,0.1-0.6,0.2C92.1,78,90.9,78.4,89.7,78.4z"/>
				<path class="st18" d="M113.7,80.4c0.1-0.2,0.1-0.5-0.1-0.6c-0.2-0.2-0.6,0-0.8,0.1c-0.6,0.3-1.2,0.8-1,1.5
					C112.5,81.5,113.3,81.1,113.7,80.4z"/>
				<path class="st6" d="M119.5,87.9c0-0.3,0.2-0.6-0.1-0.8c-0.4-0.3-0.9-0.3-1.4-0.2c-0.3-0.5-0.7-0.9-1-1.4
					c-0.3-0.4-0.6-0.9-1-1.3c-0.1,1.1,1,1.9,1.5,2.7c-1.6,0.2-3,0.9-4.4,1.5c-1.8,0.9-3.5,2.1-5,3.5c-0.5,0.5-0.8,1.1-1.3,1.5
					c-0.3,0.2-0.5,0.6-0.6,0.9c1.7-0.7,3.3-1.6,4.9-2.5c1.6-0.9,3.2-1.7,4.9-2.5c1.2-0.5,2.3-1.1,3.6-1.2c0,0.1,0,0.3,0.1,0.3
					c-0.4,0.2-0.8,0.4-1.3,0.5c-1.8,0.5-3.5,1.5-5.2,2.3c-2.3,1.2-4.5,2.5-6.9,3.4c-0.1-0.1-0.2-0.2-0.2-0.3
					c-0.1,0.1-0.2,0.2-0.2,0.2c0.7,0.2,1.5,0.1,2.2,0.1c0.6,0,1.2-0.1,1.8-0.2c2.8-0.5,5.5-1.4,8.2-2.3c0.9-0.3,1.8-0.6,2.6-1.1
					c0.2-0.1,0.6-0.2,0.6-0.6c0-0.6-0.2-1.1-0.4-1.6C120.5,88.6,120.1,88.1,119.5,87.9z"/>
			</g>
			<path class="st19" d="M116,89.5c1.1-0.5,2.3-1.1,3.6-1.2c0,0.1,0,0.3,0.1,0.3c-0.4,0.2-0.8,0.4-1.3,0.5c-1.8,0.5-3.5,1.5-5.2,2.3
				c-2.3,1.2-4.5,2.5-6.9,3.4c-0.1-0.1-0.2-0.2-0.2-0.3c0,0,0.1-0.1,0.2-0.1c1.7-0.7,3.3-1.6,4.9-2.5
				C112.7,91.1,114.3,90.3,116,89.5z"/>
			<g>
				<path class="st20" d="M96.7,32.3c-1.1,0.9-2.2,1.8-3.4,2.6c-0.6,0.4-1.3,0.7-1.8,1.3c0.8-0.4,1.6-0.9,2.3-1.4
					c1.4-1,2.8-2,4.1-3.2c1-0.9,1.9-1.9,2.7-3c0.8-1.1,1.5-2.4,1.6-3.8c-0.2,0.3-0.3,0.7-0.5,1.1c-0.4,1-1,1.9-1.6,2.8
					C99,30,97.9,31.2,96.7,32.3z"/>
				<path class="st20" d="M104.1,40.2c-2.5,0.2-5,0.6-7.5,1c-1.4,0.3-2.7,0.5-4,1c-0.5,0-1.1,0.2-1.4,0.7c0.7-0.1,1.3-0.3,2-0.6
					c0.3,0,0.6-0.1,0.9-0.1c1.8-0.4,3.7-0.6,5.5-0.8c1.8-0.3,3.5-0.4,5.3-0.7c1.2-0.2,2.4-0.6,3.5-1c1.1-0.4,2.1-1,3.1-1.7
					c0.9-0.6,1.6-1.4,2.2-2.2c0.7-0.9,1.4-1.8,1.9-2.8c0.7-1.6,0.9-3.6,0.3-5.3c-0.2-0.5-0.3-1.1-0.8-1.4c0.1,0.5,0.2,0.9,0.3,1.3
					c0.6,2.2,0.3,4.6-1,6.5c-0.8,1.1-1.6,2.3-2.7,3.2c-1.7,1.3-3.7,2.2-5.8,2.7C105.4,40.1,104.7,40.2,104.1,40.2z"/>
				<path class="st20" d="M97,39c2.1-0.3,4.2-0.7,6.3-1.3c1.6-0.5,3.2-1.3,4.6-2.2c1-0.7,2-1.5,2.5-2.6c0.5-1,0.7-2.2,0.5-3.3
					c-0.3-1.2-1.1-2.3-2.1-2.9c-0.4-0.3-0.9-0.6-1.5-0.6c0.2,0.4,0.7,0.6,1.1,0.7c1.3,0.8,2.2,2.4,2,3.9c-0.1,1-0.5,2.1-1.2,2.9
					c-0.9,1.1-2.2,1.9-3.4,2.6c-1.4,0.8-3,1.2-4.5,1.6c-2.2,0.4-4.3,0.7-6.5,1c-2.3,0.3-4.6,0.5-6.8,1.2c-1.7,0.5-3.4,1-4.9,2.1
					c-0.2,0.1-0.3,0.4-0.2,0.6c1.4-0.8,3-1.4,4.6-1.9c1.5-0.4,3.1-0.8,4.7-1C93.8,39.5,95.4,39.3,97,39z"/>
				<path class="st20" d="M119.2,30c-0.1,0.3-0.3,0.7-0.2,1c-0.5,1.7-0.5,3.6-1.3,5.2c-0.7,1.4-1.6,2.6-2.8,3.5
					c-1.4,1.2-3.2,1.9-4.9,2.6c-1,0.4-2,0.8-3,1c-1.7,0.4-3.5,0.5-5.3,0.7c-1.2,0.2-2.3,0.1-3.5,0.1c-1.9,0-3.7,0-5.6,0.1
					c-0.6,0-1.1,0-1.7,0.1c-0.9,0-1.8,0.1-2.7,0.3c-0.2,0-0.4,0.2-0.6,0.4c1,0,2-0.2,2.9-0.3c2.1-0.1,4.1-0.1,6.2-0.1
					c1.6,0,3.3,0.2,4.9,0c0.9,0,1.8-0.2,2.7-0.3c1.8-0.2,3.7-0.5,5.4-1.2c1.5-0.6,3.1-1.2,4.5-2.1c1.7-1.1,3.1-2.7,4-4.6
					c0.6-1.4,0.7-2.9,0.9-4.4c0.1-0.6,0.2-1.3,0.3-1.9C119.4,30.1,119.3,30,119.2,30z"/>
				<path class="st20" d="M96.7,35.3c-0.1,0.1-0.4,0.1-0.4,0.3c0.4,0.1,0.9,0,1.3-0.1c2.5-0.6,4.8-1.8,6.9-3.2c0.8-0.5,1.5-1,2-1.8
					c-0.5,0.2-0.8,0.7-1.3,1c-1.3,0.9-2.7,1.6-4.2,2.2C99.6,34.3,98.2,34.9,96.7,35.3z"/>
				<path class="st20" d="M81.5,37.2c0.4-0.4,0.8-0.8,1.1-1.3c-0.4,0.1-0.7,0.3-0.9,0.5c-0.7,0.7-1.5,1.3-2.3,1.8
					c-1.1,0.7-2.3,1.4-3.5,1.9c-0.2,0.1-0.4,0.3-0.6,0.5c0.9-0.2,1.7-0.7,2.5-1C79.1,38.9,80.4,38.2,81.5,37.2z"/>
				<path class="st20" d="M79.6,40.8c0.6,0.1,1.2-0.3,1.7-0.7c0.8-0.3,1.6-0.8,2.4-1.2c1.8-0.9,3.4-2.1,5-3.3
					c2.3-1.7,4.6-3.5,6.7-5.6c1.2-1.2,2.5-2.5,3.5-3.8c0.4-0.5,0.8-1,1-1.6c-0.1-0.2-0.3-0.1-0.3,0c-0.3,0.4-0.6,0.9-0.9,1.3
					c-0.4,0.6-1,1.1-1.5,1.6c-3.3,3.5-7.3,6.4-11.2,9.3c-1.6,1.2-3.4,2.1-5.1,3.2C80.3,40.2,79.9,40.5,79.6,40.8z"/>
				<path class="st20" d="M80.2,43.3c0-0.1,0-0.3,0-0.3c-0.5,0.1-0.9,0.3-1.3,0.6c-0.9,0.4-1.8,0.9-2.6,1.3c-2,1.1-3.9,2.3-5.6,3.9
					c-0.9,0.8-1.7,1.9-2,3.2c-0.2,0.3-0.1,0.7-0.1,1.1c0.1,0,0.2,0,0.3,0c0-0.2,0-0.4,0-0.6c0.2-0.4,0.4-0.8,0.6-1.2
					c0.5-0.9,1.3-1.6,2-2.3c2.4-2.1,5.1-3.7,7.9-5.2C79.7,43.5,79.9,43.4,80.2,43.3z"/>
				<path class="st20" d="M85.6,43.6c-0.9,0.4-1.8,0.7-2.7,1.1c-2.1,0.8-4.3,1.7-6.1,3c-1.2,0.8-2.1,2-2.5,3.4c0.1,0,0.3,0,0.4,0.1
					c0.6-1.7,2.1-2.8,3.6-3.7c2.1-1.3,4.4-2.2,6.6-3.2c0.5-0.2,1-0.4,1.4-0.8C86,43.5,85.8,43.5,85.6,43.6z"/>
				<path class="st20" d="M66.1,49.5c0.8-1.2,1.9-2.2,3.1-3c1.6-1.1,3.3-1.9,5.1-2.7c0.9-0.4,1.7-0.8,2.5-1.3
					c0.3-0.2,0.6-0.4,0.6-0.7c-0.5,0.3-1,0.6-1.6,0.9c-0.7,0.3-1.4,0.6-2.1,1c-0.4,0.1-0.8,0.3-1.2,0.5c-1.8,0.8-3.8,1.6-5.3,3
					c-1,0.9-1.9,2-2.2,3.3c-0.2,0.5-0.2,1.1,0.1,1.6c0.1-0.4,0.1-0.8,0.1-1.2C65.6,50.5,65.8,50,66.1,49.5z"/>
				<path class="st20" d="M63.6,53.6c-0.1-0.1-0.2-0.2-0.2-0.3c-0.3,0.1-0.7,0.2-1,0.4c-1.3,0.9-2.1,2.3-2.5,3.8
					c-0.5,1.7-0.6,3.4-0.6,5.2c0.1,1.6,0.1,3.3,0.7,4.8c0.1,0.8,0.4,1.5,0.9,2.2c0.1-0.3,0-0.7-0.1-1c-0.3-0.6-0.4-1.3-0.6-1.9
					c-0.1-1-0.3-1.9-0.3-2.9c-0.1-2.2,0.1-4.4,0.7-6.5C60.9,55.8,62,54.3,63.6,53.6z"/>
				<path class="st20" d="M71,74.9c-0.4-1.4-0.6-2.8-1-4.1c-0.1,0-0.2,0-0.3,0c-0.1,1.1,0.4,2.1,0.6,3.1c0.3,0.8,0.4,1.7,0.9,2.4
					C71.4,75.8,71.1,75.4,71,74.9z"/>
				<path class="st20" d="M66.8,76.3c-0.1,0-0.2,0-0.3-0.1c-0.1,1.1,0.3,2.1,0.7,3.1c0.2,0.5,0.5,1,1,1.2c-0.2-0.5-0.5-1-0.7-1.6
					C67.2,78.1,67,77.2,66.8,76.3z"/>
				<path class="st20" d="M70,78.6c0.3,0.7,0.7,1.3,1.2,1.9c0-0.6-0.4-1-0.6-1.5c-0.4-0.7-0.5-1.5-1-2.2C69.4,77.4,69.7,78,70,78.6z
					"/>
				<path class="st20" d="M66.8,81.3c-0.1,0-0.2,0.1-0.2,0.2c0,1.1,0.6,2.1,1.3,2.9c0.3,0.3,0.6,0.5,0.9,0.6
					c-0.3-0.5-0.8-0.9-1.1-1.4C67.3,82.9,67,82.1,66.8,81.3z"/>
				<path class="st20" d="M73.3,87.2c-0.1-0.7-0.5-1.3-0.8-1.9c-0.6-1.2-1.1-2.3-1.8-3.4c-0.2-0.3-0.4-0.5-0.6-0.6
					c-0.1,0.3,0,0.6,0.2,0.9c0.7,1.3,1.5,2.6,2.2,3.9C72.6,86.4,72.8,86.9,73.3,87.2z"/>
				<path class="st20" d="M72.8,83.2c0.4,1.1,1,2.1,1.4,3.1c0.3,0.7,0.6,1.4,1,2.1c0.1,0,0.2-0.1,0.2-0.1c-0.6-1.9-1.5-3.8-2.4-5.6
					c-0.1-0.2-0.3-0.4-0.4-0.5C72.6,82.5,72.6,82.9,72.8,83.2z"/>
				<path class="st20" d="M69.3,82.8c-0.1,0-0.2,0-0.3,0c0,0.5,0.2,1,0.5,1.5c0.7,1.1,1.5,2.1,2.2,3.2c0.1,0,0.2,0,0.3,0
					c-0.3-0.8-0.8-1.4-1.2-2.1C70.2,84.5,69.7,83.6,69.3,82.8z"/>
				<path class="st20" d="M65.8,84.2c-0.1,0-0.2,0-0.3-0.1c0,1,0.6,1.9,1.1,2.7c0.4,0.5,0.7,1.2,1.3,1.5c-0.1-0.5-0.5-1-0.8-1.4
					C66.6,86.1,66.2,85.1,65.8,84.2z"/>
				<path class="st20" d="M69,86c-0.2,0.1-0.1,0.4,0,0.5c0.3,0.7,0.7,1.3,1.2,1.9c0.1,0,0.3,0,0.3,0c-0.3-0.7-0.7-1.4-1-2
					C69.4,86.2,69.2,85.9,69,86z"/>
				<path class="st20" d="M63.5,86.2c-0.1,0.2-0.2,0.4-0.1,0.6c0.3,0.6,0.7,1.2,1.1,1.7c0.2,0.3,0.5,0.5,0.8,0.6
					c0-0.1,0.1-0.2,0.1-0.3c-0.4-0.4-0.6-0.9-0.9-1.5C64.2,86.9,64,86.3,63.5,86.2z"/>
				<path class="st20" d="M72.9,88.5c0,0.3,0.1,0.5,0.4,0.7c0.8,0.8,1.5,1.7,2.1,2.7c0.1,0,0.2-0.1,0.3-0.1c-0.5-1.1-1.2-2.1-1.9-3
					C73.5,88.6,73.2,88.5,72.9,88.5z"/>
			</g>
			<path class="st21" d="M115.5,91c1.3-0.9,2.9-1.3,4.4-1.8c0,0.1,0.1,0.2,0.2,0.2c-0.5,0.4-1.2,0.5-1.8,0.8c-0.9,0.4-1.8,0.8-2.8,1
				C115.5,91.2,115.5,91.1,115.5,91z"/>
			<path class="st7" d="M105.7,94.8L105.7,94.8c0.8,0.2,1.6,0.1,2.3,0.1c0.6,0,1.2-0.1,1.8-0.2c0.2,0.1,0.4,0.2,0.6,0.3
				c0,0.1,0,0.2,0,0.3c-1,0.1-2.1,0.1-3.1,0.2c-0.5,0-1,0.1-1.5,0C105.8,95.2,105.7,95,105.7,94.8z"/>
			<path class="st22" d="M121.7,98.1c0.2-0.1,0.2,0.1,0.3,0.2c-0.9,0.4-1.9,0.8-2.9,1.1c-1.2,0.5-2.4,1-3.6,1.6
				c-0.2,0.1-0.5,0.2-0.7,0.2c0.3-0.6,0.9-0.9,1.5-1.2C118,99.3,119.9,98.6,121.7,98.1z"/>
			<path class="st7" d="M78,104.4c0.4-0.1,0.7-0.4,1.1-0.5c0.2,0.3-0.1,0.6-0.3,0.7c-0.7,0.6-1.7,0.5-2.5,0.9
				c-0.5-0.1-1-0.1-1.4-0.3c0.1-0.2,0.3-0.5,0.5-0.5C76.3,104.7,77.2,104.7,78,104.4z"/>
			<path class="st23" d="M76.4,105.6l-0.1,0c-0.5-0.1-1-0.1-1.4-0.3c-1.7-0.6-3.4-1.6-4.8-2.8c-0.6-0.6-1.2-1.2-1.4-2.1
				c-0.2-0.9,0-2,0.6-2.8c0.6-0.9,1.9-1.4,3-1.1c0.6,0.1,1.3,0.4,1.6,0.9c0,0.1-0.1,0.3-0.1,0.4c0.3,0.1,0.5-0.2,0.7-0.4
				c0-0.3-0.1-0.7-0.4-0.9c-0.9-0.9-2.4-1.1-3.6-0.7c-2.2,0.7-3.2,3.6-2.1,5.6c0.6,1.1,1.6,1.8,2.6,2.5c1.5,0.9,3.1,1.8,4.8,2
				c0.6,0.2,1.3,0.1,1.9,0.1c0-0.1,0-0.3,0.1-0.3C77.3,105.6,76.9,105.6,76.4,105.6z"/>
			<path class="st18" d="M114.3,117.6c-1.2,0.4-2.4,0.5-3.5,0.6c-1.4,0.2-2.8,0.3-4.1,0.4c-1,0-2,0-3,0c-0.3,0.2,0.1,0.5,0.3,0.6
				c1.9,0.3,3.9,0.3,5.9,0.1c1.3-0.2,2.6-0.4,3.9-0.8c0.5-0.2,1.1-0.3,1.3-0.9C114.8,117.6,114.5,117.6,114.3,117.6z"/>
			<g>
				<path class="st24" d="M10.4,180.5c0.4-0.3,1-0.5,1.3-0.9c-0.6-0.1-1.1,0.2-1.5,0.5c-0.4,0.3-0.8,0.8-0.8,1.4
					C9.8,181.2,10.1,180.8,10.4,180.5z"/>
				<path class="st24" d="M14.4,184.2c0.2-0.3,0.4-0.6,0.4-1c0.8-0.9,0.7-2.1,0.4-3.2c-0.1,0-0.3-0.1-0.4-0.1l0.1,0.1
					c-0.5,0.4-1,1-1,1.7c0,0.5,0.3,0.8,0.5,1.2C14.4,183.4,14.3,183.8,14.4,184.2z M14.4,181.6c0.1-0.4,0.3-0.6,0.5-0.9l0,0
					c0,0.2,0,0.4,0.1,0.7c0-0.2,0-0.4-0.1-0.7C14.7,181,14.5,181.3,14.4,181.6c0,0.1,0,0.2,0,0.3c0,0.3,0.1,0.5,0.2,0.8
					c0.3-0.3,0.4-0.7,0.4-1.1c0,0.4-0.1,0.8-0.4,1.1l0,0c-0.1-0.3-0.2-0.5-0.2-0.8C14.4,181.8,14.4,181.7,14.4,181.6z"/>
				<path class="st24" d="M10.4,182.3c0.6-0.4,1.2-0.8,1.8-1.1c0-0.1,0-0.3,0-0.3c-0.5,0.1-0.9,0.2-1.2,0.5
					C10.8,181.6,10.4,181.9,10.4,182.3z"/>
				<path class="st24" d="M19.7,185.5c0.7,0.2,1.5,0.2,2-0.3c0.7-0.4,0.9-1.3,0.7-2c0.4-0.4,1.2-0.7,1-1.4c-0.6-0.2-1.1,0-1.5,0.4
					c-0.4-0.4-0.9-0.7-1.5-0.9c0-0.4,0.2-0.8,0.1-1.2c0-0.3-0.4-0.3-0.6-0.2c-0.5,0.4-0.7,1-1,1.6c-0.2,0.2-0.4,0.2-0.6,0.4
					c-0.1,0.1-0.3,0.2-0.4,0.3c-0.1,0.9,0.4,1.7,0.7,2.6C18.9,185.1,19.3,185.4,19.7,185.5z M18.7,182.1c0.6-0.3,1.3-0.4,2-0.2
					c0.9,0.3,1.4,1.2,1.4,2.1c0,0.4-0.4,0.7-0.7,1c-0.6,0.2-1.3,0.3-1.9,0c-0.5-0.3-0.6-1.1-0.1-1.4c0.5-0.4,1.1-0.4,1.7-0.2
					c-0.1,0.2-0.1,0.5-0.2,0.7c-0.2,0.1-0.4,0.2-0.6,0.2c0-0.1,0-0.3,0-0.4c0.2-0.1,0.4-0.3,0.6-0.4c0-0.1-0.1-0.2-0.1-0.2
					c-0.3,0.1-0.7,0.2-0.9,0.6c-0.1,0.4,0.2,0.7,0.5,0.7c0.7,0.1,1.4-0.7,1.1-1.4c-0.1-0.5-0.7-0.6-1.1-0.6c-0.6,0-1.1,0.4-1.6,0.8
					C18.6,183,18.6,182.6,18.7,182.1z"/>
				<path class="st24" d="M21.4,186.6c0,0,0.1,0.1,0.2,0.2c0.5,0,1-0.2,1.5-0.3c0.9-0.2,1.8-0.6,2.5-1.2c0.3-0.3,0.6-0.8,0.4-1.2
					c-0.1-0.3-0.5-0.2-0.7-0.2c-0.7,0.2-1.4,0.6-2,1C22.6,185.4,21.9,185.9,21.4,186.6z M25.6,184.3c-0.2,0.6-0.8,0.8-1.3,1.1
					c-0.5,0.2-1,0.4-1.5,0.5C23.6,185.2,24.6,184.7,25.6,184.3z"/>
				<path class="st24" d="M8.3,185.1c-0.5,0-1.1,0-1.2,0.6c0.5,0,1-0.2,1.5,0c0.5,0.4,0.2,1.1,0.2,1.7c-0.3,0.6-0.4,1.3-0.3,2
					c0.3-0.3,0.4-0.9,0.4-1.3c0.2-0.6,0.4-1.1,0.4-1.7C9.4,185.8,9,185.1,8.3,185.1z"/>
				<path class="st24" d="M16.2,185.6c0,0.1,0.1,0.3,0.1,0.4c0.1,0.4,0.6,0.4,0.9,0.2c0.3-0.2,0.4-0.9-0.1-1
					c-0.2-0.1-0.5,0.1-0.7,0.1c-0.6-0.3-1.3,0.1-1.7,0.5c0,0,0.1,0.1,0.2,0.1C15.4,185.9,15.8,185.7,16.2,185.6z"/>
				<path class="st24" d="M5.6,186.9c0.6-0.2,1.3-0.3,1.9-0.6c0.1-0.1,0.1-0.3-0.1-0.3c-0.7-0.1-1.3,0.3-1.8,0.6
					C5.6,186.7,5.6,186.8,5.6,186.9z"/>
				<path class="st24" d="M7.7,186.7c-0.8,0.3-1.8,0.6-2.3,1.4c0.8-0.3,1.6-0.7,2.4-1.1C7.8,186.9,7.8,186.8,7.7,186.7z"/>
				<path class="st24" d="M12.8,188.8c0.1,0,0.3,0,0.4-0.1c0.3-0.4,0.6-0.7,0.9-1.1c0.1-0.1,0.1-0.3,0.1-0.5
					C13.4,187.4,13.1,188.2,12.8,188.8z"/>
				<path class="st24" d="M13.6,189.7c0.5-0.3,0.9-0.9,1.2-1.4c0.1-0.1,0-0.3-0.1-0.4C14.3,188.4,13.9,189,13.6,189.7z"/>
				<path class="st24" d="M12.3,190.5c0.4-0.2,0.9-0.5,1.1-1C12.8,189.5,12.5,190.1,12.3,190.5z"/>
				<path class="st24" d="M8.3,189.9c0,0.6,0.2,1.2,0.8,1.4c-0.1-0.5-0.2-0.9-0.4-1.4C8.5,189.9,8.4,189.9,8.3,189.9z"/>
				<path class="st24" d="M12.6,191.6c0.6-0.3,0.9-0.9,1.2-1.4c-0.1,0-0.3,0-0.3,0C13.2,190.6,12.8,191.1,12.6,191.6z"/>
				<path class="st24" d="M7.6,190.9c0,0.3,0.2,0.6,0.5,0.7c0-0.4-0.1-0.8-0.2-1.1C7.8,190.5,7.6,190.7,7.6,190.9z"/>
				<path class="st24" d="M23.8,193.3c-0.8,0.5-1.7,0.9-2.1,1.8c0,0,0.1,0.1,0.2,0.1c0.6-0.7,1.5-1,2.2-1.4c0.9-0.5,1.4-1.4,1.6-2.3
					c-0.1,0-0.2,0-0.3,0C25,192.2,24.5,192.9,23.8,193.3z"/>
				<path class="st24" d="M11.1,192.7c0.4-0.2,0.9-0.4,1.1-0.9c-0.6,0.2-1.1,0.5-1.5,0.9C10.8,192.8,11,192.8,11.1,192.7z"/>
				<path class="st24" d="M1.6,194.8c0.7,0,1.5,0,2.2-0.2c0.2-0.1,0.4-0.1,0.6-0.2c0-0.1,0-0.2,0-0.3c-0.5,0-1,0-1.5,0
					c-0.5,0-1.1,0-1.6,0.1c-0.2,0-0.3,0.1-0.4,0.3C1.1,194.9,1.4,194.8,1.6,194.8z"/>
				<path class="st24" d="M25.9,187.7c-1.2-0.3-2.5-0.2-3.7-0.1c-0.5,0-1,0.1-1.5,0.4c-0.9,0.6-1.7,1.3-2.4,2.1
					c-0.5,0.6-1.1,1-1.9,1.1c0.6-1.5,1.1-2.9,2.1-4.2c0.7-0.1,1.5,0.2,2.1-0.3c-0.5-0.6-1.3-0.8-2-1.2c-0.3-0.4-0.4-0.9-0.7-1.2
					c-0.3-0.3-0.9-0.5-1.3-0.5c0.2-0.4,0.4-0.9,0.5-1.4c0.1-0.6,0.3-1.2,0.5-1.8c0.2-0.1,0.2-0.4,0.3-0.6c-0.5,0-0.8,0.4-1.2,0.8
					c-0.7,0.7-1.1,1.9-0.6,2.8c0,0.1,0.1,0.2,0.1,0.2c-1.1,0.1-2.1,0.6-2.8,1.5c-0.8,1-1.2,2.1-1.9,3.1c-0.4,0.6-0.9,1.1-1.5,1.4
					c-0.2-0.7,0.1-1.4,0.3-2c0.3-1,0.7-2,0.6-3.1c0.4,0.3,0.6,0.9,1.1,1c0.6,0.2,1.3-0.3,1.4-0.9c0.1-0.7-0.1-1.5-0.7-1.9
					c-0.5-0.3-1.1-0.1-1.5,0.3c-0.3,0.3-0.3,0.7-0.3,1.1c-0.4-0.8-1.4-1-2.2-0.9c-0.6,0.1-1.5,0-1.7,0.8c0.8,0.1,1.5-0.2,2.3-0.2
					c0.5,0,1,0.3,1,0.8c-0.1,1.4-0.7,2.6-1,3.9c-0.1,0.6-0.1,1.2,0.3,1.7c0.6,0.4,1.2,0.7,2,0.8c0.2,0,0.5,0.1,0.7,0
					c0.2-0.3-0.3-0.3-0.5-0.5c-0.5-0.1-0.9-0.3-1.4-0.5c0.4-0.3,0.8-0.6,1.1-1c0.7-0.8,1.1-1.7,1.8-2.5c0.5-0.6,0.9-1.3,1.6-1.7
					c0.8-0.5,1.7-0.7,2.6-0.4c0.5,0.1,0.7,0.6,0.8,1c0,0.4-0.2,0.7-0.3,1.1c-0.2,0-0.5,0.1-0.7,0.1c0-0.2,0-0.3,0-0.5
					c-0.5,0.4-0.9,0.8-1.2,1.3c-0.1,0.2-0.1,0.5-0.1,0.8c-0.3,0.1-0.5,0.2-0.7,0.3c0.2-0.5,0.6-1,0.6-1.6c-0.6,0.4-0.8,1.2-0.9,1.9
					c0.1,0,0.2,0,0.3,0c-0.2,0.5-0.3,1.1-0.4,1.6c-0.2,0.1-0.4,0.1-0.7,0.1c0.2-0.5,0.5-1,0.5-1.6c-0.5,0.5-0.6,1.2-0.9,1.7
					c0.1,0,0.2,0,0.4,0c-0.3,0.7-0.8,1.4-1.4,1.9c0-0.2-0.1-0.3-0.1-0.5c0.4-0.3,0.8-0.6,1-1.1c-0.5,0.3-0.9,0.7-1.2,1.2
					c-0.4,0.5-0.8,1-1.3,1.3c-0.5,0.4-1.2,0.4-1.8,0.6c-0.6,0.1-1,0.6-1.5,0.9c-0.2,0-0.5-0.1-0.7-0.1l0.1,0c0.1,0,0.2-0.1,0.3-0.1
					c0.1-0.2,0.2-0.4,0.3-0.5c0.1,0,0.2-0.1,0.3-0.2c0,0.1,0,0.2,0.1,0.3c0.5-0.1,0.9-0.4,1.4-0.6c0.4-0.1,0.8-0.3,1.2-0.6
					c-0.1-0.2-0.2-0.5-0.3-0.7c-0.2,0-0.5,0.1-0.7,0.2c-0.5,0.1-1,0.3-1.6,0.2c0.2-0.2,0.4-0.5,0.6-0.6c0.6,0.2,1.2-0.2,1.7-0.5
					c0-0.2,0-0.3-0.1-0.4c-0.5,0.1-0.9,0.4-1.3,0.7c-0.1-0.1-0.2-0.1-0.2-0.2l0-0.1c-0.4,0-0.8,0-1.2-0.1c-0.2-0.2-0.5-0.5-0.4-0.8
					c0.1-0.4,0.3-0.7,0.4-1.1c0-0.2-0.2-0.3-0.3-0.3c-0.5,0.1-0.9,0.3-1.4,0.3c0.2-0.2,0.5-0.4,0.7-0.5c0.1-0.7,1.1-0.7,1.3-1.4
					c-0.6,0.1-1.1,0.5-1.5,0.9c-0.6,0.3-1.3,0.6-2,0.6c0.2-0.4,0.4-0.7,0.7-0.9c0-0.1,0-0.3,0-0.3c-0.2,0-0.5,0-0.7,0.1
					c-0.1,0.5-0.5,0.9-0.4,1.4c0.2,0.4,0.7,0.3,1.1,0.3c0.1,0.2,0.2,0.4,0.5,0.5c0.4,0.1,0.8,0,1.2-0.1c-0.2,0.4-0.2,0.9-0.1,1.3
					c-0.3,0.2-0.6,0.3-0.9,0.5c-0.3,0.1-0.6,0.2-0.9,0.3c-0.5-0.2-1.1-0.2-1.6-0.3c-0.3-0.1-0.7-0.1-1,0c0,0.1,0,0.3-0.1,0.4
					c0.5,0.1,1,0.2,1.5,0.2c0,0.1,0.1,0.3,0.1,0.4c0.2,0,0.3,0,0.5,0c0.3,0.1,0.7,0.1,1,0.1c0,0.1,0,0.2,0,0.3
					c-0.5-0.1-1-0.1-1.5-0.2c-0.7-0.1-1.3-0.3-2-0.2c0,0.2,0,0.3,0.1,0.5c0.6,0.3,1.4,0.3,2.1,0.2c0.4,0.1,0.9,0.2,1.3,0.3
					c-0.2,0.1-0.5,0.1-0.7,0.2c0,0.1,0,0.2-0.1,0.2c0.6,0,1.2,0,1.7-0.1c0-0.1,0-0.2,0-0.3c-0.3,0-0.6,0-0.9-0.1
					c0.4-0.1,0.8-0.1,1.2-0.2c0.3-0.1,0.5-0.4,0.7-0.6c0.2,0,0.3,0,0.5,0c-0.4,0.4-1,0.6-1.3,1.1c0.4-0.1,0.7-0.2,1-0.4
					c0,0.1-0.1,0.2-0.1,0.2c-0.2,0.1-0.3,0.3-0.5,0.4c-0.1,0-0.3,0.1-0.4,0.1c-0.7,0-1.4-0.1-2.2,0c-0.3,0-0.7,0-0.9,0.3
					C3.3,195,3,195,2.8,195c-0.4-0.1-0.9,0-1.3,0c-0.5,0.2-1.1,0.4-1.3,1L0,196c0,0.1,0,0.2,0,0.3c0.5,0,0.9,0,1.4,0l0-0.2
					c1-0.3,2,0,3,0.2c-0.2,0.1-0.5,0.3-0.7,0.4c0,0.1,0,0.1,0.1,0.2c0.8,0,1.6-0.5,2.5-0.3c-0.3,0.1-0.6,0.2-0.9,0.4
					c-0.2,0-0.4,0.1-0.5,0.1c0,0.1,0,0.3,0,0.4c0.4,0,0.7,0,1.1-0.1c0.7-0.1,1.4-0.5,2.2-0.3c1.3,0.3,2.6,0.1,3.8-0.5
					c0.9-0.3,1.6-1,2.3-1.6c0.5,0.3,1.1,0.2,1.7,0.3c-0.4,0.3-0.7,0.6-1,0.9c-0.2,0.2-0.5,0.2-0.7,0.3c-0.6,0.1-1.1,0.6-1.7,0.5
					c-0.3-0.2-0.7-0.1-1,0c0.2,0.5,0.9,0.4,1.3,0.5c0.5,0.7,1.1,1.3,1.8,1.8c0.3,0.2,0.7,0.2,0.9-0.1c0.4-0.6,0-1.4-0.2-2
					c-0.1,0-0.3,0-0.4,0c0.1,0.6,0.6,1.2,0.2,1.8c-0.5-0.3-0.9-0.7-1.4-1.1c-0.1-0.1-0.2-0.3-0.3-0.5c0.4-0.1,0.8-0.3,1.3-0.4
					c0.9,0.1,1.8,0.1,2.7,0.5c0.3,0.3,0.4,0.7,0.7,1c0.3,0.3,0.8,0.4,1.2,0.3c0.8,0,1.7-0.5,2.1-1.2c0.3-0.5,0.3-1.3-0.2-1.7
					c-0.8-0.8-2.1-0.8-3-0.3c-0.5,0.3-0.8,0.9-0.9,1.4c-0.3-0.1-0.5-0.2-0.8-0.2c0.1-0.5,0.5-0.9,0.7-1.5c0.6-0.3,1.2-0.3,1.8-0.4
					c0.8-0.2,1.5-0.4,2.2-0.9c0.3-0.2,0.2-0.6,0.1-0.9c0.6-0.2,1.4-0.3,1.9-0.8c0.2-0.3,0.1-0.6,0-0.9c0.5-0.3,1.3-0.5,1.3-1.1
					c0.1-0.4-0.4-0.5-0.7-0.6c0.7-0.2,1.5-0.5,2.1-1C26.4,188.4,26.4,187.8,25.9,187.7z M8.8,193.6c0.1,0,0.3,0,0.4,0
					c-0.2,0.2-0.5,0.3-0.8,0.4C8.5,193.9,8.7,193.8,8.8,193.6z M5.2,193.4c0.2-0.3,0.5-0.3,0.8-0.2c-0.1,0-0.2,0.1-0.3,0.2
					C5.5,193.3,5.4,193.4,5.2,193.4z M18,196.8c0.3-0.9,1.5-1.3,2.4-0.9c0.4,0.2,0.7,0.5,0.7,0.9c0,0.4-0.2,0.8-0.5,1.1
					c0.1-0.5,0.1-1.1-0.3-1.4c-0.5-0.5-1.4-0.3-1.7,0.3c-0.2,0.4,0.1,0.9,0.5,1l0.5-0.9c-0.2,0-0.2,0.2-0.3,0.4c0,0-0.1,0-0.2,0.1
					c0-0.2,0-0.4,0-0.6c0.2-0.1,0.4-0.2,0.6-0.1c0.4,0.1,0.6,0.6,0.4,0.9c-0.2,0.5-0.7,0.8-1.2,0.8C18.2,198.2,17.9,197.4,18,196.8z
					 M14.9,191.1c-0.1,0.2-0.2,0.3-0.2,0.5c-0.2,0-0.3,0.1-0.5,0.1C14.3,191.4,14.5,191,14.9,191.1z M14,192.6
					c0.2,0.1,0,0.5-0.2,0.4C13.7,192.9,13.8,192.6,14,192.6z M12.7,192.9c-0.2,0.3-0.6,0.6-0.7,0.9c-0.1,0.3-0.1,0.7-0.4,1
					c-0.2,0.2-0.4,0.4-0.7,0.5c-0.2,0.1-0.3,0.1-0.5,0.2c0.4-0.4,0.9-0.8,1.3-1.3c-0.4,0-0.8,0.2-1.1,0.4c-0.4,0.2-0.8,0.2-1.2,0.2
					c0.1-0.1,0.2-0.3,0.3-0.4C10.8,194.3,11.8,193.6,12.7,192.9z M10.1,195.3c-0.2,0.1-0.4,0.2-0.6,0.3c-0.1,0-0.3,0-0.4,0
					C9.3,195.4,9.7,195.2,10.1,195.3z M9,195.1c-0.2,0.2-0.5,0.4-0.7,0.5c-0.1,0.1-0.3,0.2-0.5,0.3c0-0.1-0.1-0.3-0.1-0.3
					C8.1,195.4,8.5,195.2,9,195.1z M6.1,195.2c0,0.1-0.1,0.3-0.2,0.3c-0.2-0.1-0.3-0.2-0.5-0.3C5.5,195.2,6.1,195.2,6.1,195.2z
					 M6,195.7c0,0,0.1-0.1,0.1-0.1c0.2,0,0.5,0,0.7,0.1c0.1,0,0.3,0,0.4,0c-0.2,0.1-0.3,0.1-0.5,0.2C6.5,195.9,6.2,195.8,6,195.7z
					 M9.5,196.2c0.3-0.1,0.5-0.3,0.7-0.5c0.1,0.2,0.2,0.3,0.3,0.5c-0.2,0.1-0.4,0.1-0.7,0.2C9.8,196.3,9.7,196.3,9.5,196.2z
					 M12.8,195.2c-0.8,0.5-1.5,1.4-2.5,1.5c0.4-0.2,1-0.3,1.3-0.7L12.8,195.2c0.3-0.3,0.7-0.6,1-1C13.6,194.7,13.2,195,12.8,195.2z
					 M16,196.6c-0.1-0.1-0.3-0.1-0.4-0.2c0.4-0.3,0.8-0.5,1.1-0.8C16.6,196,16.4,196.4,16,196.6z"/>
				<path class="st24" d="M22.2,196.6c0.1,0,0.2,0,0.3,0c0.4-0.6,0.9-1,1.5-1.4c0-0.1,0-0.2,0-0.3C23.1,194.8,22.3,195.7,22.2,196.6
					z"/>
				<path class="st24" d="M2.3,197.2c-0.7,0-1.7-0.3-2.2,0.3c0.7,0.1,1.4-0.1,2.1-0.1C2.3,197.4,2.3,197.2,2.3,197.2z"/>
				<path class="st24" d="M9,199.7c0,0.5,0.5,0.7,0.8,1c0.4,0.5,0.8,1.1,0.8,1.7c-0.7-0.3-1.3-0.8-1.7-1.4c-0.3-0.3-0.1-0.7-0.1-1
					c0.1-0.5-0.2-1.1-0.6-1.4C7.7,198,7,198.1,6.4,198c-0.9-0.1-1.4,0.7-1.6,1.5c-1.1,0-2.1-0.2-3.1-0.6c0.5-0.3,1.2-0.4,1.8-0.4
					c0.5,0,0.9,0.2,1.4,0.3c0-0.2-0.1-0.5-0.3-0.6c-0.6-0.4-1.4-0.3-2.2-0.2c-0.5,0.1-1,0.3-1.3,0.8c-0.1,0.3,0.2,0.5,0.4,0.6
					c1,0.4,2.1,0.7,3.1,0.5c0.1,0.4,0.1,0.8,0.3,1.1c-0.5,0.3-1,0.4-1.5,0.5c0.4-0.3,0.8-0.6,1.2-0.9c-0.2-0.1-0.4-0.2-0.5-0.1
					c-0.6,0.3-1.2,0.7-1.6,1.2c-0.2,0.3,0.1,0.6,0.4,0.5c0.8-0.1,1.6-0.5,2.3-0.8c0.4,0.5,1.2,0.7,1.8,0.5c0.5-0.1,0.9-0.4,1.3-0.8
					c0.4,0.8,1,1.5,1.9,1.7c0.3,0.1,0.7-0.1,0.7-0.5c0-0.7-0.5-1.4-0.9-1.9C9.8,200,9.5,199.6,9,199.7z M6.2,201.2
					c-0.9-0.4-1-1.6-0.5-2.4c-0.1,0.4-0.2,0.9,0,1.3c0.2,0.6,0.9,1,1.5,0.7c0.6-0.3,0.6-1.3,0-1.7c-0.4-0.2-1,0.1-0.9,0.6
					c0.1,0.3,0.5,0.3,0.8,0.3c-0.1,0.1-0.3,0.4-0.5,0.3c-0.6-0.2-0.7-1-0.3-1.4c0.2-0.3,0.6-0.4,1-0.5c0.6,0,1.1,0.6,1.1,1.2
					C8.5,200.7,7.2,201.7,6.2,201.2z"/>
				<path class="st24" d="M16.1,200c-1,0-2-0.3-3-0.7c-0.7-0.3-1.2-0.9-1.8-1.2c-0.4-0.2-0.9-0.4-1.4-0.2c0.4,0.3,0.8,0.4,1.2,0.7
					c0.6,0.4,1.1,1,1.7,1.2c0.6,0.3,1.2,0.5,1.9,0.6c0.8,0.2,1.5-0.1,2.3-0.2c0.2-0.1,0.3-0.2,0.5-0.3C17,199.8,16.5,199.9,16.1,200
					z"/>
				<path class="st24" d="M14.5,202.2c0.4,0.1,0.9,0,1.2-0.4c-0.4-0.1-0.9,0-1.3,0.1c-0.8-0.2-1.5-0.7-2.1-1.1
					c-0.4-0.3-0.8-0.6-1.3-0.5c0.4,0.5,0.9,0.8,1.4,1.2C13,202,13.8,202.4,14.5,202.2z"/>
				<path class="st24" d="M20.4,200.3c-0.5,0.2-1,0.4-1.5,0.6c-0.6,0.2-1.3,0.3-1.9,0.6c0.5,0.3,1.1,0.2,1.6,0
					c0.8-0.2,1.7-0.6,2.2-1.3C20.7,200.3,20.5,200.3,20.4,200.3z"/>
				<path class="st24" d="M7.6,202.2c0,0.4,0,0.8,0.3,1.1c0.2,0.1,0.5,0,0.6-0.2c0.2-0.5,0.2-1.2-0.2-1.7
					C8,201.6,7.6,201.8,7.6,202.2z"/>
				<path class="st24" d="M12.4,203c0,0.1,0,0.2,0,0.3c1.1,0.7,2.6,0.7,3.7,0.1c0-0.1,0-0.2,0-0.3C14.9,203.5,13.7,203,12.4,203z"/>
			</g>
			<path class="st16" d="M4.2,210.1c0.3-0.4,0.5-0.9,1-1.2c-0.1,0.7-0.6,1.2-0.9,1.8c-0.8,1.3-1.6,2.6-2.3,4
				c-0.4,0.8-0.7,1.6-1.2,2.3c0.1-0.9,0.5-1.7,0.8-2.5C2.4,212.9,3.3,211.4,4.2,210.1z"/>
			<g>
				<path class="st25" d="M72.1,144c0.1-0.2,0.2-0.3,0-0.5c-0.8-0.6-1.6-1.3-2.2-2.1c-0.1,0-0.3,0-0.4,0c0,0.3,0,0.6,0.2,0.8
					C70.4,143,71.2,143.6,72.1,144z"/>
				<path class="st25" d="M25.2,161.8c1.7-0.2,3.5-0.4,5.3-0.3c0.6,0,1.2,0.3,1.7,0.4c0-0.1,0-0.3,0-0.4c-1.4-0.7-3.1-0.6-4.6-0.6
					c-1.4,0.1-2.9,0.1-4.2,0.5c-0.4,0.1-1.1,0.4-0.8,1C23.4,161.9,24.3,161.9,25.2,161.8z"/>
				<path class="st25" d="M121.1,166c0.4,0.2,0.7,0.6,1.2,0.6c0-0.1,0-0.2,0-0.3c-1.7-1.4-3.5-2.6-5.6-3.1c-1.1-0.3-2.2-0.3-3.3-0.3
					c-1.2,0-2.5,0-3.7-0.2c-2.7-0.3-5.4-0.9-8.1-1.5c-2.1-0.5-4.1-1.1-6.1-1.6c-1.3-0.3-2.5-0.7-3.7-1.1c-2.5-0.7-5-1.8-7.4-2.8
					c-1.1-0.5-2.1-1-3.1-1.6c-1.4-0.8-2.9-1.4-4.2-2.3c-0.6-0.4-1.2-0.7-1.6-1.3c-0.3-0.3-0.6-0.5-0.9-0.8c-0.4-0.5-1-1-1.4-1.5
					c0-0.2,0-0.3-0.1-0.5c-0.7-0.3-1.4-0.5-2-0.8c-2-0.7-4-1.6-6-2.6c-1.3-0.7-2.7-1.3-4.1-1.7c-0.3-0.1-0.5-0.1-0.8-0.1
					c0,0.1,0,0.2,0,0.2c1.7,0.7,3.3,1.4,4.9,2.3c2.3,1.2,4.7,1.9,7.1,2.7c0.5,0.8,1.3,1.4,1.9,2.2c-2.6-0.4-5.1-0.9-7.7-0.8
					c0,0.1,0,0.3,0,0.4c1.1,0.2,2.1,0.4,3.2,0.4c1.6,0.1,3.2,0.3,4.8,0.5c0.2,0,0.4,0.2,0.5,0.3c1.8,1.7,4.2,2.5,6.3,3.8
					c1.8,1.1,3.8,1.9,5.7,2.7c2.7,1.1,5.5,1.8,8.2,2.6c2.8,0.7,5.5,1.5,8.3,2.1c2.5,0.5,5,1.1,7.6,1.2c0.8,0,1.6-0.2,2.4-0.1l0,0.2
					c0.9,0.2,1.8,0.1,2.7,0.3C117.9,164.2,119.6,165.1,121.1,166z"/>
				<path class="st25" d="M20.2,166.1c1.2-0.3,2.5-0.3,3.7-0.4c1.9-0.1,3.9-0.2,5.8-0.2c0.6,0,1.2,0.2,1.7,0.2c0-0.1,0-0.3,0-0.3
					c-1.5-0.6-3.2-0.5-4.7-0.5c-1.6,0-3.1,0-4.7,0.2c-0.9,0.1-1.8,0.2-2.5,0.7c-0.2,0.1-0.4,0.3-0.3,0.5
					C19.6,166.3,19.9,166.1,20.2,166.1z"/>
				<path class="st25" d="M122.6,171.2c-1-0.4-1.9-0.9-3-1.1c-0.6-0.1-1.3-0.2-1.7,0.3c0.3,0.1,0.6,0.2,0.9,0.1
					c1.3,0.2,2.4,0.8,3.6,1.3c2.1,0.9,4.3,1.7,6.5,2.3c0-0.1,0-0.3,0-0.4c-0.7-0.3-1.5-0.5-2.2-0.8
					C125.3,172.4,124,171.8,122.6,171.2z"/>
				<path class="st25" d="M43.3,180.7c1.4,2,2.7,4.1,3.5,6.4c0.4,1.1,0.8,2.3,0.8,3.5c0,0.5,0.2,1,0.1,1.4c-0.4,0.6-0.9,1.1-1.3,1.7
					c-0.3,0.5-0.8,0.9-1,1.4c0.4-0.4,1.1-0.4,1.5-0.8c0.5-0.4,0.7-1.1,1.2-1.6c0.6-1.2,1.6-2.1,2.4-3.1c0.9-1.3,1.6-2.7,2.1-4.2
					c0.2-0.7,0.5-1.5,0.6-2.2c0.2-0.5,0.3-1,0.4-1.6c0.1-0.4,0.2-0.8,0.1-1.2c-0.2,0.2-0.3,0.4-0.4,0.6c-0.1,0.6-0.4,1.1-0.5,1.7
					c-0.3,0.8-0.6,1.7-0.9,2.5c-0.9,2.1-2.1,4.2-3.6,5.9c0-0.3,0-0.7,0-1c0-0.9-0.3-1.7-0.6-2.5c-0.4-1.2-0.9-2.4-1.5-3.5
					c-1.1-2-2.3-4-3.7-5.7c-1.5-1.8-3.1-3.5-5-4.8c-1.9-1.4-3.9-2.6-6-3.6c-1.7-0.8-3.6-1.4-5.4-1.9c-1.7-0.4-3.4-0.5-5.1-0.6
					c-1.4,0-2.9-0.1-4.2,0.3c0,0.1-0.1,0.2-0.1,0.4c1.1-0.1,2.2-0.2,3.4-0.2c1.8,0.1,3.6,0.2,5.3,0.6c2.1,0.5,4.2,1.2,6.1,2.1
					c2,0.9,3.8,2.1,5.5,3.4c0.7,0.5,1.3,1,1.9,1.6C40.4,177.1,42,178.8,43.3,180.7z"/>
				<path class="st25" d="M56.8,187.4c-2.3,2.1-4.6,4.2-7.1,5.9c-1,0.7-2.1,1.2-3.2,1.7c-0.4,0.2-0.9,0.3-1.4,0.4c0,0.1,0,0.2,0,0.3
					c1.6-0.1,3.2-0.6,4.6-1.4c1.7-0.9,3.2-2.3,4.6-3.6c1.4-1.3,2.8-2.6,4-4.1c0.3-0.4,0.7-0.7,0.7-1.2c-0.1,0-0.3,0-0.4,0
					C58.2,186.2,57.5,186.8,56.8,187.4z"/>
				<path class="st25" d="M50.6,195.8c-2,0.7-4.1,1.3-6.2,1.7c0,0.1,0,0.3,0,0.4c2.4-0.1,4.6-0.9,6.8-1.8c0.2-0.1,0.6-0.2,0.5-0.5
					C51.4,195.5,51,195.7,50.6,195.8z"/>
				<path class="st25" d="M148.8,204.2c0-0.3-0.3-0.2-0.5-0.2c-0.5,0.5-0.9,1.1-1.2,1.7c-0.8,1.5-1.2,3.1-1.7,4.7
					c-0.3,1.1-0.4,2.3-0.7,3.4c0-0.8-0.3-1.6-0.5-2.4c-0.3-0.8-0.1-1.7,0-2.6c0.4-2.6,1-5.1,2.1-7.5c0.1-0.3,0.4-0.5,0.4-0.9
					c-0.2-0.3-0.5-0.1-0.6,0.1c-1,1.4-1.5,3-1.9,4.6c-0.3,1.4-0.5,2.9-0.6,4.3c-0.1,0.9-0.1,1.8,0.3,2.6c0.2,0.5,0.2,1.1,0.5,1.7
					c0.1,0.5,0.2,1.1,0.7,1.5c0-0.4-0.1-0.9,0.2-1.2C146,210.6,147.1,207.2,148.8,204.2z"/>
				<path class="st25" d="M124.3,211.6c-2.1-1.2-4.3-2.3-6.6-3.1c-1-0.3-1.9-0.8-2.9-0.6c0,0.1-0.1,0.2-0.1,0.2c0.5,0,1,0.2,1.5,0.4
					c3.6,1.3,7.1,2.9,10.4,4.9c0.3,0.2,0.5,0.4,0.8,0.5c0-0.1,0.1-0.2,0.2-0.3c-0.3-0.2-0.5-0.4-0.8-0.6
					C125.9,212.6,125.2,212.1,124.3,211.6z"/>
				<path class="st25" d="M37.5,225.7c-0.1,0.1-0.2,0.2-0.3,0.3c0.5,0.6,1.2,1.1,1.9,1.5c1.1,0.6,2.4,1,3.6,1.3
					c1.3,0.4,2.7,0.7,4.1,0.8c0.5,0.2,1.1,0.3,1.6,0.3c0-0.1,0-0.3,0-0.4c-0.2-0.1-0.4-0.1-0.6-0.1
					C44.3,228.6,40.6,227.7,37.5,225.7z"/>
				<path class="st25" d="M91.1,234.7c-0.4,0.1-0.9,0.2-1.3,0.4c-1,0.1-2.1,0.4-3.1,0.5c-3.1,0.5-6.1,1-9.2,1.1
					c-1.8,0.1-3.5,0-5.3-0.2c-1.3-0.2-2.5-0.6-3.7-1.1l0.1,0c-0.6-0.2-1.1-0.5-1.6-0.7c-0.3-0.2-0.6-0.2-1-0.2
					c0,0.1,0.1,0.2,0.1,0.3c0.2,0.1,0.4,0.2,0.6,0.2c0.5,0.3,1,0.6,1.6,0.8c1.3,0.7,2.8,1.2,4.3,1.4c3.4,0.6,6.8,0.1,10.1-0.3
					c2.4-0.4,4.7-0.7,7-1.3c0.7-0.1,1.4-0.3,2-0.5c0.6-0.2,1.2-0.3,1.8-0.7c-0.1-0.1-0.2-0.2-0.2-0.3
					C92.5,234.3,91.8,234.6,91.1,234.7z"/>
			</g>
		</g>
	</g>
</g>
</svg>
