<?xml version="1.0" encoding="utf-8"?>
<!-- Generator: Adobe Illustrator 25.2.0, SVG Export Plug-In . SVG Version: 6.00 Build 0)  -->
<svg version="1.1" id="Layer_1" xmlns="http://www.w3.org/2000/svg" xmlns:xlink="http://www.w3.org/1999/xlink" x="0px" y="0px"
	 viewBox="0 0 180 180" style="enable-background:new 0 0 180 180;" xml:space="preserve">
<style type="text/css">
	.st0{clip-path:url(#SVGID_2_);}
	.st1{fill:#D0434E;}
	.st2{fill:#FEF3DB;}
	.st3{fill:#88B5BD;}
	.st4{fill:#F2844F;}
	.st5{fill:#ED5E2D;}
	.st6{fill:#FCB492;}
	.st7{fill:#91332E;}
	.st8{fill:#453730;}
	.st9{fill:#BA6442;}
	.st10{fill:#16100D;}
	.st11{fill:#CC492F;}
	.st12{fill:#FCBB9C;}
	.st13{fill:#B75D38;}
	.st14{fill:#FCB897;}
	.st15{fill:#F95939;}
	.st16{fill:#FCBEA3;}
	.st17{fill:#8C2B26;}
	.st18{fill:#FBA886;}
	.st19{fill:#B65B36;}
	.st20{fill:#B95D38;}
	.st21{fill:#FBAF8D;}
	.st22{fill:#FA7A60;}
	.st23{fill:#76A1A9;}
	.st24{fill:#A3343E;}
</style>
<g>
	<defs>
		<rect id="SVGID_1_" width="180" height="180"/>
	</defs>
	<use xlink:href="#SVGID_1_"  style="overflow:visible;fill:#C72DE2;"/>
	<clipPath id="SVGID_2_">
		<use xlink:href="#SVGID_1_"  style="overflow:visible;"/>
	</clipPath>
	<g class="st0">
		<g>
			<path class="st1" d="M90.2,29.2c1.6-0.2,3.2-0.1,4.8-0.1c1.4,0,2.7,0.2,4.1,0.4c1.8,0.3,3.6,1.1,5.2,1.8c0.9,0.5,1.9,0.9,2.8,1.4
				c1.4,0.8,2.9,1.5,4.2,2.5c1.2,0.8,2.3,1.7,3.4,2.6c2,1.6,3.8,3.6,5.4,5.6c0.7,1,1.3,2,1.9,3.1c0.9,1.5,1.5,3.1,2.3,4.7
				c1.1,2.3,1.8,4.8,2.4,7.3c0.5,2.1,0.5,4.3,0.7,6.5c0.1,2.8,0.1,5.5-0.2,8.3c-0.1,1.1-0.2,2.2-0.3,3.4c-0.2,1.7-0.5,3.4-0.8,5
				c-0.4,2.2-0.9,4.3-1.3,6.5c-0.2,1.2-0.4,2.4-0.5,3.7c-0.2,1.6-0.3,3.2-0.2,4.7c0,1.4,0.1,2.8,0.3,4.2c0.2,1.3,0.3,2.7,0.7,4
				c1.2,4.1,2.6,8.1,3.4,12.3c0.3,1.9,0.6,3.9,0.7,5.9c0,1.5,0.1,3,0,4.5c-0.1,1.1,0,2.2-0.1,3.3c0,0.9-0.1,1.8-0.1,2.6
				c0,2.6-0.5,5.1-0.8,7.7c-0.4,2.4-0.7,4.9-1.3,7.3c-0.2,0.8-0.2,1.7-0.3,2.5c-0.1,0-0.2,0.1-0.3,0.1c-1.1-0.3-2-0.9-3-1.4
				c-1.4-0.7-2.8-1.6-4.1-2.4c-1.6-1-3-2.2-4.1-3.6c-0.5-0.7-0.8-1.4-1.2-2.1c-0.5-1-0.7-2-1.1-3c-0.4-1.2-0.6-2.5-0.6-3.7
				c-0.2-1.3-0.1-2.6-0.1-3.9c-0.1-2.5,0.5-4.9,0.6-7.3c0-1.4,0.1-2.9-0.2-4.3c-0.2-0.8-0.6-1.6-1-2.4c-0.4-0.7-0.9-1.4-1.5-2
				c-0.8-0.7-1.6-1.4-2.6-1.8c-1.3-0.6-2.7-1.1-4.1-1.4c-1.3-0.3-2.7-0.1-4,0c-2.5,0.2-5,0.4-7.6,0.6c-3.9,0.4-7.8,1.1-11.6,1.6
				c-1,0.1-1.9,0.2-2.9,0.5c-1.3,0.4-2.6,0.9-3.9,1.5c-2.3,1-4.4,2.6-6.1,4.5c-0.7,0.8-1.3,1.8-1.7,2.8c-0.7,1.8-1.1,3.7-1,5.7
				c-0.1,2.9,0.6,5.7,0.6,8.6c0,1.4,0,2.7-0.2,4.1c-0.1,0.5-0.1,1-0.3,1.5c-0.4,1.1-1,2-1.6,3c-0.4,0.8-1,1.5-1.5,2.2
				c-0.2,0.3-0.4,0.6-0.7,0.8c-0.3,0.2-0.6,0.4-0.8,0.7c-0.4-0.9-0.7-1.8-1.1-2.7c-0.5-1.1-0.8-2.3-1.3-3.4
				c-0.6-1.7-1.2-3.5-1.7-5.2c-0.4-1.3-0.6-2.7-0.9-4.1c-0.3-1.1-0.5-2.2-0.8-3.4c-0.2-1.2-0.3-2.4-0.5-3.6
				c-0.5-3.6-0.9-7.3-1.1-10.9c-0.2-2.4-0.1-4.8-0.1-7.1c0-2.1,0-4.1,0.2-6.2c0.1-1.6,0.3-3.1,0.4-4.7c0.3-3.7,0.3-7.4,0.1-11.1
				c-0.1-2.3-0.4-4.6-0.5-7c-0.1-1.6-0.3-3.3-0.5-4.9c0-1.1-0.1-2.2-0.1-3.4c-0.1-1.6,0-3.3,0-4.9c0.1-2.9,0.3-5.8,0.8-8.6
				c0.4-1.6,0.6-3.3,1-4.9c0.4-1.8,0.8-3.7,1.7-5.3c0.8-1.6,1.6-3.2,2.7-4.7c2-2.8,4.5-5.1,7.2-7.2c1.6-1.3,3.4-2.4,5.3-3.3
				c1.8-0.8,3.6-1.5,5.4-2c1.5-0.4,3.1-0.5,4.6-0.8c0.9-0.2,1.9-0.3,2.8-0.3c0.6,0,1.3,0,1.9,0.1c0.8-0.4,1.8-0.6,2.7-0.9
				C88.8,29.3,89.5,29.3,90.2,29.2z"/>
			<path class="st2" d="M177,220.9c0.4-0.7,0.7-1.5,0.6-2.4c-0.4-7.8-1.8-15.6-4.2-23c-1.3-3.8-2.8-7.6-4.6-11.2
				c-1.7-3.5-3.7-6.7-6.2-9.7c-0.4-0.4-0.8-0.8-1.2-1.2c-0.1-0.1-0.1-0.2-0.2-0.3c-1.6-2.3-3.7-4.3-6.2-5.6
				c-0.3-0.3-0.6-0.6-0.9-0.9c-0.6-0.6-1.3-1-2.1-1.1c-0.2-0.2-0.5-0.4-0.7-0.5c-1.9-1.2-3.8-2.4-5.8-3.4c-1.4-0.7-2.7-1.4-4.1-2.1
				c-1.7-0.9-3.5-1.9-5.2-2.7c-1.4-0.7-2.7-1.4-4.1-2.1c-1.5-0.8-3.1-1.5-4.5-2.6c-0.4-0.3-1-0.5-1.3-0.9c-0.1,0-0.2,0.1-0.3,0.1
				c-1.1-0.3-2-0.9-3-1.4c-1.4-0.7-2.8-1.6-4.1-2.4c-1.6-1-3.1-2.1-4.1-3.6c-0.5-0.7-0.8-1.4-1.2-2.1c-0.5-1-0.7-2-1.1-3
				c-0.4-1.2-0.6-2.5-0.6-3.7c-0.2-1.3-0.1-2.6-0.1-3.9c-0.1-2.5,0.5-4.9,0.6-7.3c0-1.4,0.1-2.9-0.2-4.3c-0.2-0.8-0.6-1.6-1-2.4
				c-0.4-0.7-0.9-1.4-1.5-2c-0.8-0.7-1.7-1.3-2.6-1.8c-1.3-0.6-2.7-1.1-4.1-1.4c-1.3-0.3-2.7-0.1-4,0c-2.5,0.1-5,0.4-7.6,0.6
				c-3.9,0.4-7.8,1.1-11.6,1.6c-1,0.1-1.9,0.2-2.9,0.5c-1.3,0.4-2.6,0.9-3.9,1.5c-2.3,1-4.4,2.6-6.1,4.5c-0.7,0.8-1.3,1.8-1.7,2.8
				c-0.7,1.8-1.1,3.7-1,5.7c-0.1,2.9,0.6,5.7,0.6,8.6c0,1.4,0,2.7-0.2,4.1c-0.1,0.5-0.1,1-0.3,1.5c-0.4,1.1-1,2-1.6,3
				c-0.4,0.8-1,1.5-1.5,2.2c-0.2,0.3-0.4,0.6-0.7,0.8c-0.3,0.2-0.6,0.4-0.8,0.7c-1.3,1.4-2.8,2.7-4.4,3.8c-2.7,2.2-5.8,3.9-8.8,5.7
				c-2,1.2-4,2.3-6.1,3.4c-3.3,1.9-6.4,4-9.4,6.3c-1.6,1.2-3.1,2.3-4.6,3.6c-1.4,1.3-2.8,2.5-4.1,3.9c-1.2,1.2-2.5,2.4-3.6,3.8
				c-0.3,0.4-0.6,0.7-0.9,1.1c-0.7,0.5-1.4,1.1-2.1,1.6c-1.1,0.9-2,2.1-2.9,3.3c-1,1.3-1.9,2.7-2.7,4.1c-1.6,2.9-2.8,6.1-3.6,9.3
				c-0.9,3.5-1.4,7-1.9,10.5c-0.5,3.6-1,7.1-1.5,10.7H177z"/>
			<path class="st3" d="M109,120.4c0.2-0.2,0.4-0.5,0.8-0.6c0,0.5-0.4,0.7-0.6,1c-0.2,0.3-0.2,0.7-0.5,0.9c-1.5,1.4-3,2.8-4.4,4.3
				c-1.8,1.9-3.7,3.7-4.9,6.1c-0.9,1.5-1.8,3-2.9,4.4c-2.3,2.8-5.6,4.9-9.3,5c-1,0.1-2,0.1-3-0.2c-1.7-0.4-3.2-1.3-4.4-2.4
				c-0.8-0.7-1.5-1.4-2.1-2.3c-0.4-0.7-1.2-1-1.8-1.6c-1.5-1.3-3.2-2.5-4.6-3.9c-1.4-1.3-2.6-2.9-3.1-4.7c-0.2-0.8-0.3-1.5-0.4-2.3
				c-0.1-0.6-0.2-1.2-0.1-1.9c0-0.2,0.2-0.2,0.3-0.2c0.1,0.1,0.1,0.3,0.2,0.4c0.8,0.2,0.8,1.2,1.6,1.3c0.3,0.6,0.8,0.9,1.3,1.3
				c0.2,0.2,0.5,0.2,0.7,0.2c0.2,0.3,0.4,0.6,0.7,0.9c0.3,0.4,0.7,0.5,1.1,0.7c0.7,0.4,1.3,1,2,1.2c0.7,0.3,1.4,0.7,2.1,1.2
				c0.4,0.3,0.9,0.4,1.2,0.7c0.5,0.6,1.3,0.8,1.9,1.2c0.2,0.2,0.3,0.5,0.6,0.6c0.9,0.3,1.8,0.6,2.6,0.9c0.6,0.2,1.2,0.3,1.8,0.7
				c0.4-0.1,0.8-0.1,1.1-0.1c1.4,0.1,2.8,0.1,4.2-0.1c1.8-0.6,3.6-1.3,5.3-2.2c0.8-0.5,1.7-1,2.4-1.7c0.3-0.4,0.7-0.6,1.1-1
				c0.2-0.2,0.5-0.3,0.7-0.6c0.3-0.4,0.4-0.9,0.8-1.3c0.8-0.8,1.7-1.4,2.6-1.9c0.8-0.4,1.4-1,2-1.6c0.6-0.6,1.3-1,1.9-1.7
				C108.2,121.2,108.6,120.8,109,120.4z"/>
		</g>
		<g>
			<path class="st4" d="M84.3,43.4c0.4-0.3,0.8-0.7,1.2-1.1c1.1,1.2,2.4,2.3,3.8,3.1c-0.1,0-0.2,0-0.3,0c0.5,0.8,1.1,1.4,1.7,2.1
				c1.1,1.2,2.1,2.4,3.3,3.5c2.6,2.2,5.5,4,8.5,5.5c3,1.4,6,2.9,8.7,4.9c2.7,2.1,5.1,4.5,6.8,7.5c0.5,0.8,0.9,1.6,1.2,2.4
				c0.1,0.3,0.3,0.6,0.4,0.9c0.1,0.3,0.1,0.6,0.1,0.9c0.1,1.3,0.1,2.7,0.1,4c0,1.5-0.2,3.1-0.2,4.6c-0.1,1.2-0.2,2.4-0.4,3.6
				c-0.2,1.5-0.6,2.9-0.9,4.3c-0.5,2-1,4-1.7,6c-0.3,1.1-0.7,2.2-1.1,3.3c-0.4,1-0.7,2-1,3.1c-0.4,1.6-1.1,3.2-1.7,4.7
				c-1,2.4-2.1,4.7-3.2,7c0-0.1,0-0.2,0-0.3c-0.2,0.4-0.5,0.6-0.7,1c-0.8,1.6-1.5,3.2-2.5,4.7c-0.7,1.2-1.5,2.3-2.2,3.5
				c-0.5,0.8-1.1,1.6-1.7,2.3c-0.3,0.4-0.7,0.8-0.8,1.3c-0.5,0.7-1.1,1.3-1.6,1.9c-0.8,0.9-1.8,1.5-2.6,2.3c-0.5,0.4-0.9,0.8-1.5,1
				c-0.8,0.5-1.7,0.8-2.6,1.2c-1.4,0.4-2.8,0.6-4.3,0.7c-1.2,0.1-2.4,0-3.6-0.1c-1.8-0.2-3.6-0.7-5.2-1.7c-1-0.6-2-1.2-2.9-2
				c-0.1-0.1-0.3-0.1-0.5-0.2c0.1,0,0.3,0,0.4,0c0-0.1,0-0.2,0-0.2c-0.6-0.2-1-0.8-1.5-1.3c-2-1.9-3.7-4.2-5.2-6.5
				c-0.3-0.5-0.6-1.1-1-1.6c-0.4-0.6-0.8-1.1-1.1-1.8c-0.1,0.2-0.2,0.4-0.2,0.6c-0.6-1-1.2-2.1-1.7-3.1c-0.7-1.2-1.1-2.6-1.8-3.8
				c-1.2-2.6-2.5-5.1-3.4-7.8c-0.1-0.1-0.1-0.3-0.2-0.4c-0.2-0.7-0.3-1.4-0.6-2c-0.7-2.1-1.3-4.2-1.8-6.4c-0.2-0.8-0.4-1.5-0.5-2.3
				c0.4,0.6,0.7,1.2,1,1.8c0.8,1.8,1.5,3.7,2.1,5.7c0,0.2,0.1,0.4,0.1,0.6c0,0,0.1,0,0.2,0.1c0-0.8-0.2-1.5-0.4-2.3
				c-0.2-1-0.4-2-0.6-3c-0.3-1.1-0.7-2.3-1.1-3.4c-0.8-1.9-1.4-3.8-1.9-5.8c-0.3-1.2-0.5-2.5-0.5-3.8c0-1.1-0.1-2.3,0-3.4
				c0-1.4,0.2-2.9,0.4-4.3c0,0.1,0,0.3,0,0.4c0.3-0.6,0.5-1.2,0.8-1.8c0.7-1.5,1.4-3,2.3-4.4c1-1.7,2.2-3.3,3.5-4.8
				c2.3-2.6,5.1-4.8,7.7-7.1c1.1-1,2.3-1.9,3.4-3c1.7-1.6,3.4-3.2,4.9-4.9c1.1-1.2,2.1-2.6,3.1-3.9c0.5-0.6,0.9-1.2,1.2-1.9
				C84.5,43.4,84.4,43.4,84.3,43.4z"/>
			<path class="st5" d="M80.4,45.8c1.4-0.7,2.7-1.6,3.9-2.4c0.1,0,0.2,0,0.2,0c-0.3,0.7-0.8,1.3-1.2,1.9c-1,1.3-2,2.6-3.1,3.9
				c-1.5,1.8-3.3,3.3-4.9,4.9c-1.1,1-2.3,2-3.4,3c-2.6,2.3-5.4,4.5-7.7,7.1c-1.3,1.5-2.5,3.1-3.5,4.8c-0.9,1.4-1.6,2.9-2.3,4.4
				c-0.3,0.6-0.5,1.2-0.8,1.8c0-0.1,0-0.3,0-0.4c0.2-1.4,0.4-2.8,0.7-4.2c0.7-3,1.9-5.8,3.6-8.4c1-1.7,2.3-3.3,3.6-4.7
				c0.9-1.1,1.9-2.1,2.9-3c0.9-0.8,1.7-1.5,2.6-2.3C74,49.8,77.1,47.6,80.4,45.8z"/>
			<path class="st5" d="M89,45.3c0.1,0,0.2,0,0.3,0c0.8,0.4,1.6,0.9,2.4,1.3c1.4,0.7,2.8,1.5,4.4,2c0.8,0.3,1.6,0.6,2.5,0.9
				c1.8,0.6,3.5,1.3,5.2,2c1.8,0.7,3.6,1.5,5.2,2.7c0.8,0.5,1.4,1.2,2.1,1.9c0.9,0.9,1.7,1.8,2.4,2.8c0.8,1,1.6,2,2.2,3.1
				c1.3,2,2.3,4.1,2.9,6.4c0.3,1.2,0.8,2.4,1,3.7c-0.2-0.3-0.3-0.6-0.4-0.9c-0.3-0.9-0.8-1.7-1.2-2.4c-1.7-2.9-4.1-5.4-6.8-7.5
				c-2.7-1.9-5.7-3.5-8.7-4.9c-3-1.5-5.9-3.4-8.5-5.5c-1.2-1.1-2.3-2.3-3.3-3.5C90.1,46.8,89.5,46.1,89,45.3z"/>
			<path class="st5" d="M122.5,82.9c0.2-1.4,0.4-2.8,0.5-4.2c1.1,0,2.2,0.2,3.1,0.9c0.6,0.5,1.1,1.2,1.3,2c0.3,1.1,0.2,2.3,0.2,3.5
				c0,2.2-0.4,4.4-1,6.4c-0.5,1.6-1.1,3-2,4.4c-1.3,2.2-2.9,4.2-4.8,5.7c0-1.4,0.1-2.8,0.2-4.2c0.2-2.4,0.7-4.8,1.2-7.2
				C121.5,87.8,122.1,85.4,122.5,82.9z"/>
			<path class="st5" d="M102.1,79.3c1.9-0.1,3.8-0.1,5.7,0.1c0.7,0.1,1.5,0.3,2.2,0.4c0.2,0.1,0.7,0,0.6,0.4
				c-0.2,0.1-0.4,0.3-0.6,0.5c-0.4,0.5-1.1,0.7-1.7,1c-2,1.3-4.2,2.4-6.6,2.9c-1.1,0.2-2.2,0.3-3.3,0.1c-0.7-0.1-1.3,0.1-2,0
				c-0.9-0.1-1.9,0-2.8-0.1c-0.9-0.1-1.8-0.1-2.7-0.3c-0.2,0-0.4-0.2-0.4-0.5c0.1-1.2,1-2.2,1.9-2.9c0.3-0.2,0.7-0.1,0.9-0.3
				c0.2-0.1,0.4-0.3,0.6-0.3c1.4-0.3,2.8-0.4,4.1-0.7C99.4,79.5,100.8,79.4,102.1,79.3z"/>
			<path class="st5" d="M69.5,79.8c1-0.1,1.9-0.1,2.9,0c1.2-0.1,2.4,0.2,3.6,0.4c1.1,0.2,2.3,0.4,3.4,1c0.7,0.4,1.3,0.9,1.9,1.4
				c0.1,0.1,0.1,0.2,0.1,0.4c-0.1,0.1-0.3,0.1-0.5,0.2c-2.1,0.3-4.1,0.5-6.2,0.9c-1.1,0.1-2.2,0.5-3.3,0.6c-0.8-0.1-1.7,0-2.5-0.1
				c-1.3,0.1-2.5-0.2-3.7-0.4c-0.9-0.2-1.7-0.4-2.6-0.7c-0.6-0.2-1.2-0.5-1.8-0.7c-0.5-0.2-1-0.2-1.4-0.5c-0.2-0.1-0.2-0.4-0.1-0.5
				c0.3-0.1,0.6-0.1,0.9-0.3c0.2-0.1,0.4-0.4,0.6-0.4c0.9-0.3,2-0.3,2.9-0.5C65.7,80.2,67.6,80,69.5,79.8z"/>
			<path class="st5" d="M50.6,81.7c0.6-0.8,1.5-1.4,2.5-1.6c0.5-0.1,1.1-0.1,1.6,0c0.1,1.2,0.2,2.4,0.4,3.6c0.2,1.2,0.6,2.5,0.9,3.7
				c0.3,0.8,0.6,1.6,0.9,2.5c0.5,0.9,0.9,1.8,1.3,2.7c0,0.8,0.3,1.5,0.5,2.3c0.5,2.1,1.1,4.3,1.8,6.4c0.3,0.6,0.5,1.3,0.6,2
				c0,0.1,0,0.2,0,0.3c-0.8,0-1.6-0.2-2.4-0.4c-0.8-0.1-1.6-0.2-2.3-0.6c-1.1-0.5-2-1.4-2.9-2.1c-1.2-1-1.9-2.5-2.7-3.9
				c-0.9-1.5-1.5-3.2-1.8-5c-0.2-1.1-0.3-2.3-0.2-3.4c0.2-1.5,0.2-3,0.7-4.4C49.9,83.1,50.1,82.3,50.6,81.7z"/>
			<path class="st4" d="M126.3,88.2C126.7,88.2,126.2,88.5,126.3,88.2L126.3,88.2z"/>
			<path class="st5" d="M85.1,104.8c0.3,0,0.7-0.1,1,0c0.3,0.1,0.3,0.4,0.2,0.6c-0.2,0.4-0.5,0.8-0.7,1.3c-0.4,0.6-0.8,1.3-1.4,1.8
				c-0.2,0.2-0.6,0.1-0.8-0.1c-0.2-0.4-0.2-0.9-0.3-1.3c-0.1-0.6-0.2-1.2-0.1-1.8c0-0.2,0.2-0.3,0.4-0.3
				C84,105,84.6,104.9,85.1,104.8z"/>
			<path class="st5" d="M108.9,114.4c0.2-0.3,0.5-0.6,0.7-1c0,0.1,0,0.2,0,0.3c-0.1,1-0.2,1.9-0.3,2.9c-0.2,1.3-0.2,2.7-0.5,4
				c-0.3,0.5-0.8,0.9-1.2,1.3c-1.5,1.3-3.2,2.6-4.9,3.7c-0.3,0.2-0.7,0.4-1,0.5c0.1-0.5,0.5-0.9,0.8-1.3c0.6-0.8,1.2-1.5,1.7-2.3
				c0.7-1.2,1.5-2.3,2.2-3.5C107.4,117.6,108.1,116,108.9,114.4z"/>
			<path class="st5" d="M68.4,118.3c0.1-0.2,0.1-0.4,0.2-0.6c0.2,0.7,0.7,1.2,1.1,1.8c0.4,0.5,0.6,1.1,1,1.6
				c1.5,2.3,3.2,4.6,5.2,6.5c0.5,0.5,0.9,1,1.5,1.3c0,0.1,0,0.2,0,0.2c-0.1,0-0.3,0-0.4,0c-0.6-0.1-1-0.5-1.6-0.8
				c-1.8-0.9-3.4-2.2-5-3.4c-0.3-0.2-0.7-0.5-0.8-0.9c0-0.1-0.2-0.2-0.3-0.3c-0.1-0.3-0.2-0.6-0.3-1c-0.1-0.9-0.3-1.8-0.4-2.6
				c-0.1-0.6-0.2-1.2-0.4-1.8L68.4,118.3z"/>
			<path class="st5" d="M84.7,118.9c1-0.3,2-0.4,3-0.3c1.2,0.1,2.4,0.2,3.4,0.8c0.6,0.3,1.3,0.5,1.9,0.8c0.3,0.1,0.5,0.4,0.7,0.6
				c-0.3,0-0.5-0.2-0.8-0.2c-0.4,0.1-0.8,0-1.1-0.1c-1-0.1-2.1-0.3-3.2-0.3c-1.2,0-2.5-0.1-3.7,0.1c-1,0.2-2,0.4-3,0.7
				C82.6,120,83.6,119.2,84.7,118.9z"/>
		</g>
		<g>
			<path class="st6" d="M72.1,61c0.3-0.2,0.6-0.4,0.9-0.5c0,0.2,0.1,0.4-0.2,0.5c-2.1,1.3-3.8,3-5.5,4.7c-0.1,0-0.2,0-0.4,0
				c0-0.6,0.5-1,0.8-1.3C69.2,63.1,70.6,61.9,72.1,61z"/>
			<g>
				<path class="st7" d="M125.2,63.3c-0.4-2.2-0.8-4.4-1.6-6.5c-0.8-2.2-1.8-4.4-3.1-6.4c-1.4-2-2.9-3.9-4.5-5.8
					c-1.8-1.9-3.6-3.9-5.7-5.4c-1.4-1-2.8-2.1-4.3-3c-1.5-0.9-3-1.9-4.6-2.5c-1.3-0.5-2.5-0.9-3.8-1.3c-1.3-0.4-2.6-0.6-3.8-1
					c-0.9-0.2-1.9-0.4-2.9-0.5c-0.5-0.2-1-0.1-1.6-0.2c0,0.1,0,0.2-0.1,0.2c0.2,0.1,0.4,0.2,0.7,0.2c1.7,0.2,3.3,0.5,4.9,1
					c3.5,0.8,6.9,1.9,10,3.8c1.3,0.8,2.6,1.6,3.8,2.6c1.3,0.9,2.6,1.9,3.8,3c1.8,1.7,3.6,3.6,5.1,5.6c1.4,1.8,2.9,3.7,3.9,5.8
					c1,1.8,1.8,3.8,2.3,5.8c0.5,1.8,0.8,3.7,1.2,5.5c0.3,1.5,0.4,3,0.4,4.5c0,1.3-0.2,2.6-0.3,3.9c0,0.5-0.2,0.9-0.1,1.4l-0.1-0.1
					c-0.1,0.5-0.2,1.1-0.3,1.6c-0.1,0.4-0.2,0.8-0.2,1.3c0,0,0.1-0.1,0.2-0.1c0.3-1,0.6-2,0.6-3l0-0.1c0.2-1.1,0.4-2.2,0.4-3.3
					C125.8,68,125.6,65.6,125.2,63.3z"/>
				<path class="st7" d="M89,34.9c-0.1,0-0.2,0-0.3,0c0.1,0.4,0.4,0.6,0.7,0.9c1.3,1.4,2.8,2.6,4.4,3.7c1.5,1,3,2,4.6,2.7
					c2.2,1.1,4.4,2.2,6.6,3.3c2.7,1.4,5.3,2.8,7.8,4.6c1.5,1.1,2.9,2.2,4.3,3.5c0.1,0.1,0.2,0.3,0.4,0.3c0,0,0,0.1,0,0.1
					c0.3,0.2,0.5,0.4,0.7,0.7l0.1,0c0,0.2,0.1,0.2,0.3,0.2c-0.2-0.3-0.4-0.5-0.7-0.8c-0.3-0.4-0.7-0.8-1.1-1.1
					c-2.7-2.5-5.7-4.7-8.9-6.5c-1.9-1.1-3.8-2-5.7-3c-1.5-0.8-3.1-1.5-4.6-2.3c-1.5-0.9-3-1.8-4.4-2.8c-1.2-0.8-2.3-1.8-3.4-2.8l0,0
					C89.5,35.4,89.2,35.1,89,34.9z"/>
				<path class="st7" d="M69.2,50.2c3.1-2.4,6.5-4.3,9.8-6.4c1.8-1.2,3.8-2.4,5.2-4.1c0.3-0.3,0.6-0.7,0.5-1.2
					c-0.8,1.2-2,2.2-3.2,3.1c-1.5,1.1-3,2.1-4.5,3c-1.9,1.1-3.7,2.3-5.6,3.6c-1.6,1.1-3.1,2.3-4.6,3.6c-4.2,3.7-7.7,8.3-9.5,13.6
					c-0.1,0.2-0.1,0.4-0.1,0.6l-0.1-0.1c-0.9,2.9-1.4,5.9-1.4,9c0,0.8-0.1,1.7-0.1,2.5c0,0.4-0.1,0.8,0.1,1.2
					c0.2-2.6,0.3-5.2,0.7-7.8c0.2-1.5,0.6-2.9,0.9-4.3c0.7-2.6,2-4.9,3.4-7.1C63,55.8,65.9,52.7,69.2,50.2z"/>
				<path class="st7" d="M121.3,72.7c-0.1-1.5-0.1-3-0.4-4.5c-0.4-2-0.9-3.9-1.7-5.7c-1-2.2-2.2-4.3-3.7-6.3c-0.7-1-1.6-1.8-2.5-2.7
					c-0.9-0.9-1.9-1.6-2.9-2.3c-1.1-0.8-2.3-1.4-3.4-2c-1.9-1-4-1.7-6-2.6c-1.7-0.7-3.5-1.4-5.1-2.2c-1.7-0.9-3.3-1.8-4.8-2.9
					c-0.9-0.7-1.6-1.6-2.1-2.6c-0.6-1-0.9-2-1.3-3.1c-0.1-0.2-0.1-0.4-0.1-0.6c-0.4,0-0.3,0.4-0.2,0.7c0.2,1.2,0.7,2.3,1.3,3.4
					c0.6,1,1.3,2,2.3,2.7c1,0.7,2,1.4,3.1,2c0.8,0.4,1.6,0.9,2.4,1.3c1,0.5,2.1,0.9,3.2,1.4c1,0.4,2.1,0.9,3.1,1.3
					c3.2,1.2,6.3,2.7,9,4.8c1,0.8,2,1.7,2.8,2.7c3.9,4.3,6.2,10,6.5,15.8c0.1,1.2,0.1,2.4,0.1,3.6c-0.1,0.4-0.1,0.8-0.1,1.2
					c-0.2,2.5-0.3,4.9-0.8,7.4c0.2,0,0.2-0.3,0.3-0.4c0.5-2.2,0.6-4.5,0.8-6.7c0-0.4,0.1-0.8,0-1.2
					C121.4,74.2,121.3,73.4,121.3,72.7z"/>
				<path class="st7" d="M84.8,42c-0.5,0.7-1.2,1.3-1.9,1.9c-1,0.8-2.2,1.3-3.3,2c-0.8,0.5-1.6,0.9-2.4,1.3c-1,0.6-1.9,1.2-2.8,1.8
					c-0.8,0.6-1.6,1.2-2.5,1.8c-0.2,0.2-0.5,0.3-0.7,0.5c-0.6,0.4-1.1,0.9-1.7,1.3c-1,0.8-2,1.7-2.9,2.6c-1.3,1.4-2.4,2.9-3.4,4.5
					c-1,1.6-2,3.2-2.8,4.9c-0.4,0.7-0.7,1.5-1,2.2c-0.7,1.6-1.3,3.2-1.6,5c0,0.2-0.1,0.5,0.1,0.6c0.3-2.2,1.3-4.2,2.1-6.2
					c0.2-0.6,0.6-1.1,0.8-1.7c1.4-2.5,2.9-4.9,4.6-7.1c1.2-1.6,2.7-3,4.2-4.3l0,0c1.3-1.2,2.8-2.1,4.2-3.2c2.5-1.7,5.2-3,7.8-4.6
					c1.3-0.7,2.4-1.7,3.3-2.9c0.4-0.4,0.4-0.9,0.4-1.4C85.1,41.3,85,41.6,84.8,42z"/>
				<path class="st7" d="M58.3,54.8c-0.3,0.6-0.6,1.2-0.7,1.9c0,0,0.1-0.1,0.2-0.1c0.2-0.7,0.5-1.3,0.8-1.9c0.9-1.8,2-3.5,3.1-5.2
					c1.6-2.4,3.4-4.6,5.4-6.7c2.8-2.9,6.1-5.3,9.8-6.8c2.3-1.1,4.8-1.6,7-2.7c0,0,0-0.1,0.1-0.2c-1.3,0.4-2.6,0.9-3.9,1.3
					c-0.8,0.3-1.7,0.5-2.5,0.8c-1.7,0.7-3.4,1.4-4.9,2.4c-3.6,2.2-6.5,5.3-9.1,8.6c-0.7,0.9-1.4,2-2.1,2.9c0,0,0,0.1,0,0.2l-0.1-0.1
					C60.4,51.1,59.3,52.9,58.3,54.8z"/>
				<path class="st7" d="M54.7,64.7c0-1.1,0.3-2.2,0.4-3.3c0.1-0.4,0.1-0.8,0.2-1.1c0.3-1.5,0.6-2.9,1-4.4c0.6-2.4,1.5-4.6,2.7-6.7
					c1.6-2.9,3.6-5.6,6-7.8c1.5-1.4,3-2.6,4.7-3.7c1.2-0.8,2.5-1.6,3.8-2.2c1.6-0.8,3.3-1.5,5-2.1c1.7-0.6,3.5-1,5.3-1.5
					c-0.3-0.1-0.6-0.1-0.9,0c-3.3,0.6-6.3,1.8-9.3,3.3c-1.5,0.7-2.9,1.6-4.2,2.5c-2.7,1.8-5.2,3.9-7.2,6.4c-1.4,1.7-2.6,3.6-3.7,5.6
					c-0.9,1.7-1.7,3.4-2.2,5.3c-0.5,1.7-0.9,3.4-1.1,5.2c-0.1,0.5-0.2,1-0.2,1.4c-0.1,0.2-0.1,0.4-0.1,0.5c-0.1,1.2-0.3,2.3-0.3,3.5
					C54.7,65.2,54.7,64.9,54.7,64.7z"/>
				<path class="st7" d="M123.5,66.4l-0.1,0.1c0-0.3,0-0.7-0.1-1c-0.2-1.4-0.5-2.8-0.8-4.1c-0.5-2.1-1.4-4.1-2.4-6
					c-1.1-2.1-2.4-4.1-4-5.9c-1.5-1.7-3.2-3.2-5-4.7c-2.5-2-5.2-3.7-8-5.3c-0.3-0.2-0.6-0.5-1-0.5l0.1,0c-1.4-0.8-2.9-1.6-4.4-2.4
					c-1.9-1.1-4-2-6-2.8c-1.2-0.4-2.4-0.9-3.6-1c0,0,0,0.1,0.1,0.2c1.1,0.3,2.1,0.7,3.2,1.1c2,0.8,4.1,1.6,6,2.7
					c1.5,0.8,3,1.6,4.4,2.4c2.4,1.4,4.7,2.9,7,4.5c2.1,1.5,4.1,3.1,5.9,5c1.8,1.8,3.4,3.8,4.6,6.1c1,1.8,1.8,3.6,2.4,5.5
					c0.6,2,1,4.1,1.4,6.2l0.1,0.1c-0.1,0.2,0,0.5,0,0.7c0.2,1.1,0.3,2.2,0.3,3.3c0.1-0.1,0.2-0.2,0.2-0.4
					C123.9,68.9,123.7,67.7,123.5,66.4z"/>
				<path class="st7" d="M118.9,70.1c-0.3-1.2-0.6-2.5-1.1-3.7c-0.8-2-1.7-4-2.9-5.7c-0.8-1.1-1.6-2.3-2.5-3.4l-0.1,0.1
					c0-0.3-0.3-0.4-0.4-0.7c-1.5-1.8-3.3-3.4-5.4-4.5c-1.9-1.1-3.9-1.9-5.9-2.7c-2.1-0.7-4.1-1.7-6.2-2.4c-1.8-0.8-3.6-1.7-5.4-2.6
					c-0.8-0.4-1.3-0.5-1.9-1.2l-0.6-0.5c0-0.4-0.5-0.9-0.6-1.3c-0.3-1-0.5-2-0.5-3.1c-0.1-2.8,0.2-3,0.1-4.7c0-0.3,0-0.6-0.1-0.8
					c-0.1,0-0.2,0-0.3,0c-0.2,0.6-0.1,1.2-0.1,1.8c0,0.8-0.1,1.5,0,2.2c0.1,0.6-0.1,1.3,0.1,1.8c-0.1,0.4,0.1,0.8,0.1,1.3
					c0,0.5,0.1,1,0.3,1.5l0.1-0.1c0,0.3,0.1,0.6,0.3,0.8c0.5,1.1,1.5,1.9,2.5,2.5c1.8,1,3.7,1.9,5.6,2.7c1.1,0.4,2.2,0.8,3.3,1.2
					c1.9,0.8,3.9,1.4,5.8,2.2c1.6,0.7,3.2,1.4,4.6,2.4c1.6,1,3,2.4,4.3,3.9c1.3,1.7,2.6,3.4,3.7,5.3c0.6,1.1,1.1,2.2,1.5,3.3
					c0.3,0.7,0.6,1.3,0.8,2.1c0.3,0.9,0.5,1.7,0.7,2.6c0.1,0.9,0.3,1.8,0.4,2.7c0.3,1.7,0.3,3.5,0.2,5.2c0,2.2-0.3,4.3-0.5,6.5
					c0.2-0.2,0.1-0.5,0.2-0.8c0.1-1,0.2-2,0.3-3c0.3-2.4,0.4-4.8,0.2-7.3C119.3,72.7,119.2,71.4,118.9,70.1z"/>
				<path class="st7" d="M123.6,73.4c-0.1,0.4-0.2,0.9-0.2,1.3c0,0.5-0.2,1-0.1,1.5c-0.1,0.7-0.1,1.5-0.3,2.3
					c0.1,0.1,0.3,0.2,0.4,0.3c0.1-0.7,0.1-1.4,0.1-2C123.7,75.6,123.7,74.5,123.6,73.4z"/>
				<path class="st7" d="M54.4,75c0.1-2.5,0.2-5,0.6-7.5c0.3-1.8,0.9-3.5,1.4-5.2c0.3-0.6,0.5-1.1,0.8-1.7c0.3-0.7,0.7-1.3,1.1-2
					l0,0c0.7-1.3,1.6-2.6,2.5-3.8c1.2-1.5,2.5-3,3.9-4.3c1.2-1.2,2.6-2.3,3.9-3.5c0.3-0.3,0.7-0.5,1-0.8l0,0
					c1.7-1.3,3.4-2.4,5.2-3.5c2.1-1.2,4.2-2.5,6.1-4c1.3-0.9,2.5-2,3.5-3.3c0-0.1,0-0.2,0-0.3c-0.4,0.1-0.6,0.5-0.9,0.7
					c-1.3,1.3-2.7,2.5-4.2,3.5c-1.4,1-2.9,1.9-4.4,2.7c-2,1.2-3.8,2.5-5.6,3.9c-1.5,1.2-3,2.5-4.4,3.8c-1.5,1.4-2.8,2.9-4.1,4.5
					c-1,1.2-1.9,2.6-2.7,4c-0.7,1.2-1.3,2.4-1.8,3.6c-0.4,1-0.7,2.1-1,3.1c-0.7,2.2-0.9,4.6-1,6.9c0,0.8,0,1.6,0,2.5
					c-0.1,0.5,0,1.1,0,1.6c0,0.8,0,1.5,0.1,2.3c0.1,0,0.2,0,0.2-0.1C54.3,77.2,54.5,76.1,54.4,75z"/>
			</g>
			<path class="st8" d="M64.8,79.4c1.2-0.3,2.5-0.5,3.8-0.5c1.5,0,3.1,0,4.6,0.2c2,0.3,4.1,0.7,5.8,1.7c0.5,0.3,1.1,0.5,1.3,1.1
				c-0.4,0-0.8,0-1.2-0.1c-0.9-0.2-1.8-0.2-2.6-0.4c-1.1-0.2-2.2-0.4-3.3-0.4c-1.5-0.1-2.9-0.1-4.4-0.1c-1.8,0.1-3.6,0.3-5.4,0.5
				c-1,0.2-2,0.2-3.1,0.3c-0.1,0-0.3,0-0.4,0c0.1-0.4,0.4-0.8,0.8-0.9C62.1,80.4,63.4,79.7,64.8,79.4z"/>
			<path class="st8" d="M110.7,80.1c-0.7-0.3-1.3-0.7-2-0.9c-1.3-0.5-2.6-0.6-4-0.8c-1.5-0.2-3-0.2-4.4-0.2
				c-1.9,0.2-3.8,0.3-5.6,1.2c-1,0.5-2.1,1.2-2.9,2.1c-0.2,0.2-0.1,0.4-0.1,0.6c0.5-0.3,1-0.3,1.5-0.4c1.3-0.3,2.6-0.6,3.9-0.8
				c3.4-0.8,7-0.7,10.5-0.7c0.7,0.2,1.4,0.2,2.1,0.3c0.4,0.1,0.9,0,1.3,0c0,0,0-0.1,0-0.2C110.9,80.2,110.8,80.1,110.7,80.1z"/>
			<path class="st9" d="M80.9,82.6c0.1,0,0.2,0,0.3,0c0.3,0.3,0.5,0.6,0.6,1c0.4,1.1,0.4,2.3,0.6,3.5c0.2,1.6,0.6,3.2,0.6,4.8
				c0,1.9,0.1,3.8-0.2,5.7c-0.2,1.7-0.6,3.4-1,5.1c-0.1,0.6-0.3,1.1-0.2,1.7c0.1,0.3,0.4,0.4,0.7,0.5c0.9,0.1,1.7,0.1,2.6-0.1
				c0.6-0.1,1.2,0.1,1.9,0c0,0.1,0,0.2,0,0.3c-0.5,0.3-1.1,0.3-1.6,0.4c-0.8,0.1-1.7,0.1-2.5,0c-0.5,0-1.2-0.2-1.4-0.7
				c-0.2-1,0.2-2.1,0.4-3.1c0.4-1.8,0.7-3.6,0.9-5.5c0.1-1.3,0-2.7,0-4c0-2-0.4-4.1-0.7-6.1c-0.1-1-0.3-2.1-0.8-3
				C80.9,82.9,80.9,82.8,80.9,82.6z"/>
			<path class="st10" d="M68.9,83.6c0.4-0.1,0.8,0,1,0.4c0.3,0.4,0.3,1,0.3,1.5c0,0.4-0.2,0.9-0.6,1.1c-0.3,0.2-0.8,0.4-1.2,0.1
				c-0.4-0.3-0.5-0.8-0.5-1.3c0-0.5,0-1,0.2-1.4C68.3,83.8,68.6,83.7,68.9,83.6z"/>
			<path class="st10" d="M100,83.8c0.3-0.2,0.6-0.1,0.9-0.1c0.5,0.4,0.6,1,0.6,1.6c0,0.6-0.2,1.3-0.7,1.6c-0.4,0.3-1,0.1-1.3-0.3
				c-0.3-0.5-0.3-1.1-0.2-1.6C99.4,84.5,99.6,84,100,83.8z"/>
			<path class="st11" d="M122.5,85.1c0-0.2,0-0.4,0.1-0.6c0,0.3,0.3,0.4,0.4,0.6c0.5,1,0.3,2.2,0.1,3.3c-0.5,2-1.1,3.9-2.2,5.6
				c-0.1,0-0.2,0-0.3,0c0-0.1,0.1-0.3,0.1-0.4c0.4-0.6,0.7-1.2,0.9-1.9c0.5-1.3,0.9-2.6,1.1-4C122.8,86.9,122.8,85.9,122.5,85.1z"/>
			<path class="st11" d="M53.4,86.8c0.3-0.6,0.7-1.3,1.4-1.5c0.1,0,0.2,0.1,0.3,0.1c0,0,0,0.1,0,0.2c-0.7,0.3-1,1.1-1.2,1.8
				c-0.3,1.7,0.1,3.6,1,5.1c0.9,1.5,2,2.8,3.4,3.9c0.1,0.1,0.2,0.3,0.3,0.4c-0.1,0-0.3-0.1-0.4-0.1c-0.9-0.5-1.6-1.2-2.3-2
				c-1.2-1.4-2.3-3.1-2.6-5C53,88.7,53,87.7,53.4,86.8z"/>
			<path class="st12" d="M66.5,86.6c0.5,0,1,0.2,1.5,0.4c0.9,0.2,1.8,0.5,2.7,0.6c0,0.1,0,0.2,0,0.2c-1,0.1-1.9-0.2-2.9-0.3
				c-0.5-0.1-0.9-0.2-1.3-0.5C66.5,86.9,66.5,86.7,66.5,86.6z"/>
			<g>
				<path class="st13" d="M106.1,87.7c-0.3,0.3-0.7,0.5-1,0.8c-1.4,0.8-2.8,1.5-4.4,1.7c-0.7,0.1-1.4,0.1-2.1-0.1
					C98,90,97.4,90,96.8,89.7l0-0.1c-0.2-0.1-0.4-0.2-0.6-0.1c-0.2,0.3,0.1,0.6,0.4,0.8c0.6,0.3,1.3,0.5,1.9,0.6
					c1.5,0.3,3,0.1,4.4-0.6c0.8-0.4,1.6-0.9,2.3-1.5c0.5-0.2,0.8-0.6,1.2-1C106.3,87.8,106.2,87.6,106.1,87.7z"/>
				<path class="st13" d="M74,88.1c-0.2,0.2-0.5,0.4-0.7,0.6c-1.4,0.8-3.1,1.5-4.7,1.3c-1.1-0.2-2.3-0.5-3.2-1.2
					c-0.1-0.1-0.3-0.1-0.5-0.1c0,0.3,0.2,0.5,0.4,0.6c0.8,0.7,1.8,1,2.8,1.3c1,0.2,2.2,0.2,3.1-0.2c0.9-0.4,1.7-0.9,2.5-1.5
					c0.2-0.2,0.4-0.4,0.6-0.6c0-0.1,0-0.2,0-0.2C74.2,88.1,74.1,88.1,74,88.1z"/>
			</g>
			<path class="st14" d="M84.3,93.2c0.1,0,0.2,0,0.3,0c0.2,0.5,0.2,1.1,0.2,1.6c0,1.3-0.3,2.6-0.4,3.9c-0.2,0.9-0.2,1.8-0.7,2.7
				c-0.1,0-0.2,0-0.2,0c0-0.4,0.2-0.7,0.2-1.1C84.1,97.9,84.2,95.5,84.3,93.2z"/>
			<path class="st15" d="M102,94.1c1.3-0.2,2.7,0.1,3.9,0.7c1.1,0.6,1.8,1.6,2.4,2.7c0.9,2.2,0.7,4.8-0.4,6.9
				c-0.6,1.1-1.5,2-2.6,2.6c-1.2,0.7-2.7,1.1-4.1,0.8c-1.2-0.2-2.5-0.6-3.4-1.4c-0.8-0.6-1.4-1.5-1.7-2.4c-0.3-0.9-0.6-1.8-0.4-2.7
				c0.1-0.6,0.3-1.1,0.4-1.7c0.2-0.7,0.7-1.4,1-2c0.5-0.9,1.2-1.7,2-2.3C99.9,94.7,100.9,94.3,102,94.1z"/>
			<path class="st16" d="M54.4,94.4c0.1,0,0.2,0,0.2,0c0.8,0.9,1.7,1.6,2.6,2.4c0,0.1,0,0.2,0,0.3c-0.8-0.5-1.5-1-2.2-1.6
				C54.7,95.2,54.4,94.9,54.4,94.4z"/>
			<path class="st12" d="M65.2,95.1c0.7,0.1,1,0.8,1.5,1.2c0,0,0.1,0,0.2,0c0,0-0.1,0.1-0.1,0.1c-0.1,0.1-0.3,0.2-0.4,0.2l0,0
				c-0.3-0.4-0.7-0.7-1.1-1.1C65.1,95.4,65.2,95.3,65.2,95.1z"/>
			<path class="st17" d="M121.3,95.6c0.2-0.2,0.5-0.3,0.8-0.2c0.2,0.1,0.3,0.4,0.2,0.6c-0.2,0.4-0.5,0.7-0.9,0.6
				c-0.1-0.1-0.2-0.2-0.3-0.2C121.1,96.1,121.1,95.8,121.3,95.6z"/>
			<path class="st15" d="M66.9,96.3c1.4-0.7,3-0.7,4.5-0.4c0.9,0.2,1.7,0.6,2.4,1.1c1.7,1.2,2.9,3.1,3,5.2c0.1,1.9-0.8,3.8-2.2,5.1
				c-0.9,0.9-2.1,1.4-3.4,1.7c-1.5,0.3-3.1,0-4.4-0.7c-1.7-0.9-3-2.4-3.5-4.2c-0.3-1.3,0-2.6,0.3-3.9c0.4-1.4,1.3-2.8,2.6-3.5l0,0
				c0.7,0.7,1.5,1.4,2.1,2.2c0.1-0.1,0.1-0.2,0.2-0.2c-0.5-0.8-1.2-1.5-1.8-2.2C66.8,96.4,66.9,96.3,66.9,96.3z"/>
			<path class="st11" d="M58.2,96.4c0.5,0.3,1,0.6,1.4,0.9c0,0.1,0,0.2,0,0.2c-0.3,0-0.6-0.2-0.9-0.3c-0.2-0.1-0.5-0.3-0.7-0.5
				c0.1,0,0.3,0.1,0.4,0.1C58.4,96.6,58.3,96.5,58.2,96.4z"/>
			<path class="st18" d="M66.3,96.6c0.1-0.1,0.3-0.2,0.4-0.2c0.6,0.7,1.3,1.4,1.8,2.2c-0.1,0.1-0.1,0.2-0.2,0.2
				C67.8,98,67,97.3,66.3,96.6z"/>
			<path class="st6" d="M57.4,98.9c0.3-0.1,0.6-0.2,0.9-0.1c0.2,0.1,0.3,0.4,0.3,0.7c-0.1,0.2-0.3,0.4-0.5,0.6l0,0
				c-0.2-0.1-0.3-0.2-0.5-0.2c-0.1-0.3-0.1-0.6,0-0.9C57.6,98.8,57.5,98.9,57.4,98.9z"/>
			<path class="st17" d="M57.2,100c-0.3-0.4-0.1-0.9,0.2-1.2c0.1,0,0.2,0,0.3,0c-0.1,0.3-0.1,0.6,0,0.9c0.2,0.1,0.3,0.2,0.5,0.2
				C57.9,100.3,57.4,100.3,57.2,100z"/>
			<path class="st14" d="M87,101.5c0.7-0.4,1.7,0,2,0.7c0.1,0.2,0.1,0.5-0.1,0.6c-0.3-0.2-0.4-0.6-0.7-0.7c-0.4-0.1-0.7-0.1-1.1-0.2
				C87,101.8,87,101.7,87,101.5z"/>
			<path class="st12" d="M82.7,103.2c-0.1-0.2,0.1-0.4,0.2-0.3c0.4,0.3,0.7,0.7,1.1,0.9c0,0.1,0,0.2,0,0.3
				C83.5,104,83,103.7,82.7,103.2z"/>
			<path class="st19" d="M86.2,103.1c0.4-0.1,0.9-0.2,1.3,0c0,0.1,0,0.3,0,0.4c-0.5,0.4-1.3,0.4-1.9,0.3
				C85.6,103.5,85.9,103.2,86.2,103.1z"/>
			<path class="st20" d="M114,103.9c-0.2,0.5-0.5,0.9-0.6,1.4c-0.4,0.9-0.7,1.7-1.2,2.6c-1,2-1.7,4.1-2.8,6.2
				c-0.5,0.9-1,1.7-1.5,2.6c-0.4,0.8-1,1.6-1.5,2.3c-0.5,0.8-0.9,1.6-1.5,2.4c-0.5,0.6-0.9,1.3-1.4,2c-0.8,1-1.5,2.2-2.4,3.2
				c-0.6,0.8-1.3,1.5-1.9,2.3c-0.7,0.6-1.4,1.1-2.2,1.6c-0.4,0.3-0.8,0.5-1.2,0.8l-0.1,0c-1.4,0.9-3.1,1.2-4.7,1.7
				c-0.6,0.2-1.2,0.2-1.7,0.3c-0.5,0-0.9,0.1-1.4,0.1c-1.3-0.1-2.5-0.4-3.7-0.8c-0.6-0.2-1.3-0.3-1.8-0.6c-0.8-0.3-1.5-0.7-2.2-1.1
				c-1.1-0.6-1.9-1.5-2.8-2.2c-0.7-0.5-1.2-1.2-1.9-1.8c-0.7-0.7-1.4-1.5-2.1-2.3c-1.4-1.6-2.5-3.5-3.7-5.2
				c-0.7-1.1-1.5-2.1-2.1-3.2c-0.6-1-1.1-2-1.7-3c-1.3-2.4-2.5-4.8-3.7-7.2c-0.3-0.6-0.5-1.3-0.9-1.9c-0.1,0.1-0.2,0.2-0.1,0.4
				c0.1,0.6,0.3,1.2,0.6,1.8c0.7,1.8,1.5,3.7,2.4,5.4c0.1,0.1,0.2,0.3,0.3,0.5c0.3,0.7,0.7,1.3,1.1,1.9c0.8,1.4,1.5,3,2.5,4.3
				c0.4,0.5,0.7,1,1.1,1.5c0.7,1.1,1.5,2.1,2.2,3.1c1,1.5,2.1,2.8,3.3,4.1c0.7,0.7,1.4,1.5,2.2,2.1c0.9,0.7,1.6,1.6,2.6,2.1
				c0.7,0.4,1.5,0.9,2.2,1.2c0.8,0.4,1.8,0.6,2.6,0.9c1,0.4,2,0.5,3,0.6c0.6,0.1,1.3,0,1.9,0c0.9,0.1,1.8-0.2,2.7-0.5
				c1-0.4,2.1-0.5,3.1-1.1c0.3-0.1,0.6-0.2,0.8-0.4c1-0.6,1.9-1.2,2.8-1.9c0.6-0.5,1.2-1,1.7-1.5c1.1-1.2,2.1-2.4,3-3.7
				c1-1.3,1.9-2.7,2.7-4.1c0.7-1.1,1.3-2.4,2.1-3.5c1.1-1.5,1.9-3.1,2.8-4.7c0.4-0.8,0.7-1.7,1.1-2.5c0.5-0.9,0.9-1.9,1.2-2.9
				c0.1-0.5,0.3-0.9,0.4-1.3c0.3-0.5,0.5-1.2,0.7-1.7C114.2,103.9,114.1,103.9,114,103.9z"/>
			<path class="st20" d="M86.1,107.5c0.1,0,0.2,0,0.2,0c0.2,1,0.1,2-0.2,3c0,0.1-0.2,0.1-0.3,0.1C86,109.6,86.1,108.6,86.1,107.5z"
				/>
			<path class="st15" d="M86.1,111.7c0.5,0,1-0.1,1.5-0.1c2.4,0,4.7,0.7,6.7,2c-1.2,0-2.4,0-3.6-0.2c-0.9-0.1-1.8-0.2-2.7-0.1
				c-0.9,0-1.7,0.2-2.6,0.2c-0.6,0.1-1.2,0-1.8,0c-0.8,0-1.6,0.3-2.3,0.5c-0.9,0.3-1.8,0.6-2.7,0.8c0-0.4,0.4-0.6,0.7-0.8
				c0.4-0.2,0.8-0.5,1.2-0.7c0.4,0,0.8-0.1,1.2-0.3c1.1-0.3,2.1-0.7,3.2-0.9C85.2,112.1,85.8,112.1,86.1,111.7z"/>
			<path class="st21" d="M81.9,112.5c0.8-0.5,1.8-0.6,2.7-0.7c0.5,0,1-0.1,1.5-0.1c-0.3,0.4-0.9,0.4-1.3,0.5
				c-1.1,0.2-2.1,0.6-3.2,0.9c-0.4,0.2-0.8,0.2-1.2,0.3C80.8,113,81.4,112.8,81.9,112.5z"/>
			<path class="st17" d="M85.3,113.6c0.9,0,1.7-0.3,2.6-0.2c0.9-0.1,1.8,0,2.7,0.1c1.2,0.1,2.4,0.2,3.6,0.2c0.6,0,1.1,0.1,1.7,0.2
				c0,0.1,0,0.2,0,0.3c0,0-0.1-0.2-0.1-0.2c-0.3,0.2-0.7,0.2-1.1,0.2c-0.8-0.1-1.6,0-2.4,0c-0.7,0-1.4-0.2-2.1-0.2
				c-1.2,0-2.3-0.1-3.5,0.1c-1.1,0.2-2.3,0-3.5,0.1c-1.8,0.4-3.6,0.8-5.3,1.4c-0.1-0.1-0.2-0.1-0.3-0.2c0-0.1,0-0.1,0-0.2
				c0.3-0.1,0.5-0.2,0.8-0.3c0.9-0.2,1.8-0.5,2.7-0.8c0.8-0.3,1.5-0.6,2.3-0.5C84.1,113.6,84.7,113.6,85.3,113.6z"/>
			<path class="st15" d="M94.7,114.1c0.4,0,0.8,0,1.1-0.2c0,0,0,0.1,0,0.1l0,0.1c-0.6,0.4-1,1-1.6,1.4c-1.1,0.9-2.5,1.4-3.8,1.6
				c-1.2,0.2-2.4,0.4-3.6,0.5c-1.3,0.2-2.5,0-3.8-0.2c-1.3-0.2-2.7-0.6-3.9-1.1c-0.4-0.2-0.9-0.4-1.2-0.7c1.7-0.6,3.5-1,5.3-1.4
				c1.1-0.1,2.3,0.1,3.5-0.1c1.1-0.2,2.3-0.1,3.5-0.1c0.7,0,1.4,0.2,2.1,0.2C93.1,114,93.9,114,94.7,114.1z"/>
			<path class="st18" d="M91.4,114.5c0.5-0.3,1.1-0.1,1.7,0c0.4,0.1,0.9,0,1.3,0.1c0,0.1,0.1,0.2,0.1,0.2c-0.5,0.2-1,0.1-1.5,0.2
				c-0.6,0-1.1,0-1.7-0.1C91.3,114.7,91.3,114.6,91.4,114.5z"/>
			<path class="st22" d="M84.5,115.6c0.2-0.1,0.4-0.1,0.5,0C85,115.8,84.6,115.8,84.5,115.6z"/>
			<path class="st12" d="M85.9,123.5c0.9-0.3,1.9-0.3,2.9-0.3c1.1,0.1,2.1,0.1,3.1,0.5c0,0.1,0,0.2,0,0.3c-0.6-0.1-1.2-0.3-1.8-0.3
				c-1.2,0-2.4-0.1-3.6,0.1c-0.2,0-0.4,0-0.6,0C85.8,123.7,85.8,123.6,85.9,123.5z"/>
			<g>
				<path class="st23" d="M68.2,123.5c0.1-0.2,0.3-0.3,0.4-0.5c0.2,0.3,0.5,0.5,0.7,0.8c0.1,0,0.2,0,0.2,0c-0.5-1.2-0.4-2.6-0.8-3.8
					c-0.4,0.1-0.7,0.4-0.9,0.7c-0.1,0.2-0.2,0.4-0.4,0.6c0,0.1,0,0.2,0,0.4c-0.1,0.2-0.3,0.3-0.4,0.5c-0.2,0.1-0.4,0.4-0.5,0.6
					c-0.9,1.6-1.6,3.5-1.5,5.4c0.3-0.2,0.2-0.6,0.2-1c0.3-1.9,1.1-3.8,2.3-5.2c0.2,0.3,0.4,0.5,0.6,0.8c-0.1,0.3-0.4,0.5-0.4,0.8
					c-0.3,0.3-0.4,0.7-0.5,1c-0.4,1.1-0.7,2.2-0.9,3.4c-0.2,0.7-0.2,1.5-0.2,2.3c0.1,0,0.2,0,0.2,0c0-0.5,0.1-1,0-1.5
					C66.8,126.9,67.4,125.2,68.2,123.5z"/>
				<path class="st23" d="M69.2,124.6c-0.9,2-1.4,4.1-1.8,6.3c0,0.1,0,0.3,0.1,0.3c0.4-1.6,0.7-3.3,1.2-4.8c0.3-0.8,0.6-1.7,1.2-2.4
					C69.5,123.9,69.3,124.3,69.2,124.6z"/>
			</g>
			<g>
				<path class="st24" d="M64.6,112.5c0-0.2,0-0.5,0-0.7c-0.1-0.2-0.2-0.3-0.3-0.5c-0.1,0.2-0.2,0.5-0.1,0.7
					c0.1,1.2,0.3,2.3,0.5,3.4c0.3,1.5,0.6,3.1,1,4.6c0.1,0,0.2,0,0.3,0C65.6,117.5,65.2,115,64.6,112.5z"/>
				<path class="st24" d="M63.8,122c0-0.4-0.1-0.8-0.2-1.2c-0.8-4.1-1.3-8.2-2-12.2c-0.1-0.4-0.1-0.9-0.2-1.3c0-0.6,0-1.2,0-1.8
					c-0.2,0.3-0.2,0.6-0.2,1c0,0.6-0.1,1.3,0.1,1.9c0.2,1.8,0.5,3.6,0.7,5.4c0.5,2.9,1,5.8,1.8,8.6c0,0.3,0.1,0.6,0.4,0.7
					c0-0.4-0.2-0.8-0.2-1.2L63.8,122z"/>
				<path class="st24" d="M61.7,132.9c0-0.1,0-0.3,0-0.4c-1.3-5.4-1.9-10.9-2.3-16.5c-0.2-3.6-0.3-7.3-0.8-10.9
					c-0.1-0.5,0.1-1-0.2-1.4c-0.2,1-0.1,2,0,3c0.3,3.7,0.5,7.5,0.8,11.2c0.4,5.3,1.2,10.5,2.6,15.6l0,0.1c0,0.6,0.3,1.1,0.4,1.7
					c0.3,1,0.6,2,1.2,2.8c0,0,0.1-0.1,0.2-0.2c-0.8-1.6-1.1-3.4-1.6-5.1L61.7,132.9z"/>
				<path class="st24" d="M58.8,133.9l-0.1,0.1c0-0.8-0.4-1.6-0.5-2.4c-1.4-5.8-2-11.9-2.2-17.8c-0.1-3.2-0.1-6.3-0.6-9.4
					c-0.1-0.5-0.2-0.9-0.2-1.4c-0.1-0.2,0-0.5-0.3-0.6c0,0-0.1,0.1-0.1,0.2c0,0.5,0,1,0.2,1.5c0,1.1,0.2,2.2,0.2,3.3
					c0.2,3.4,0.2,6.9,0.5,10.3c0.2,3.1,0.5,6.2,1,9.2c0.4,2.5,1.1,5,1.8,7.4c0,0.1,0,0.2,0,0.2l0.1,0.1c0,0.4,0.2,0.8,0.3,1.2
					c0.3,1,0.6,1.9,0.9,2.9c0.6,1.9,1.1,3.8,1.9,5.6c0.1,0,0.2,0,0.2,0c-0.4-0.9-0.6-1.8-0.9-2.7C60.1,139,59.4,136.5,58.8,133.9z"
					/>
			</g>
			<g>
				<path class="st24" d="M123.7,117.5c-0.1-2.2-0.4-4.4-0.9-6.6c-0.2-1.1-0.5-2.3-0.7-3.4c-0.2-1.4-0.6-2.9-0.5-4.3l-0.2,0
					c0,0.3-0.1,0.7-0.1,1c0.1,1.6,0.4,3.3,0.7,4.9c0.2,0.9,0.3,1.8,0.6,2.6c0.1,1.1,0.4,2.3,0.5,3.4c0.3,2.5,0.4,5.1,0.4,7.6
					c0,5.1-0.6,10.3-1.3,15.4c-0.1,0.6-0.2,1.1-0.2,1.7l-0.1-0.1c-0.2,1.4-0.4,2.8-0.7,4.1c-0.1,0.3-0.2,0.6-0.3,1
					c0.4-0.5,0.5-1.1,0.6-1.7c0.2-1,0.5-2,0.6-3l0-0.1c1-4.8,1.5-9.6,1.7-14.5C123.9,122.7,123.9,120.1,123.7,117.5z"/>
				<path class="st24" d="M117.5,121.3c-0.4-3.7-0.8-7.4-1.2-11.1c-0.1-2.7,0-5.4,0.2-8c0.1-0.7,0.2-1.5,0.3-2.2
					c0.2-1.4,0.3-2.9,0.7-4.3c0,0-0.1,0-0.1,0c-0.5,1.7-0.8,3.6-1,5.4c-0.4,2.9-0.5,5.8-0.5,8.7c0,1.4,0.2,2.8,0.4,4.2
					c0.2,2.5,0.5,5,0.8,7.6c0.4,3.7,0.8,7.4,0.8,11.1c0,2.5,0,5-0.1,7.5c-0.1,0.6,0,1.3-0.2,1.9c0.1,0,0.2,0,0.2,0
					c0.2-1.2,0.2-2.3,0.3-3.5c0-0.5,0.1-1,0-1.5c0.1-0.2,0.1-0.4,0.1-0.6c0-1,0.1-2,0.1-3C118.4,129.3,118,125.3,117.5,121.3z"/>
				<path class="st24" d="M121.1,125c-0.3-1.2-0.4-2.4-0.6-3.5l-0.1,0.1c0-0.2,0-0.5,0-0.7c-0.4-2.6-0.7-5.2-0.8-7.8
					c-0.3-3.6-0.1-7.2,0.1-10.9c0.1-2.7,0.4-5.4,0.8-8.1c0-0.1,0.1-0.3,0.1-0.4c0.3-1.7,0.8-3.4,1.1-5.1c0.2-1.2,0.6-2.3,0.8-3.5
					c0-0.2,0-0.4,0.1-0.6c0.5-1.9,0.6-3.9,0.9-5.8c-0.1-0.1-0.3-0.2-0.4-0.3c-0.4,3.2-0.9,6.4-1.7,9.5c-0.4,2.1-1,4.3-1.4,6.4
					c-0.4,1.7-0.4,3.4-0.6,5.1c-0.2,2.3-0.3,4.6-0.3,6.9c0,2.6,0,5.1,0.3,7.7c0,0.6,0.1,1.1,0.2,1.7c0.3,2.2,0.6,4.5,0.9,6.7
					c0.1,0.9,0.3,1.8,0.5,2.7C121,125,121.1,125,121.1,125z"/>
				<path class="st24" d="M126.5,122.9c0-0.2,0-0.4,0-0.6c-0.2-0.9-0.3-1.7-0.5-2.6c-0.1,0.9,0.2,1.8,0.2,2.7c0.1,0.3,0,0.6,0.2,0.9
					c0,0.4,0,0.8,0,1.2c0,1.7,0,3.4-0.2,5.1c-0.2,2.7-0.5,5.5-0.9,8.2c-0.4,2.4-0.9,4.7-1.4,7c0,0.1,0,0.2,0,0.4l-0.1-0.1
					c-0.3,1.1-0.4,2.3-0.9,3.3c0.1,0,0.2-0.1,0.2-0.1c0.4-0.9,0.6-1.8,0.8-2.7c0.6-2.3,1.1-4.6,1.6-6.9c0.5-2.7,0.7-5.4,1-8.1
					C126.7,128,126.9,125.4,126.5,122.9z"/>
				<path class="st24" d="M115.1,129.8c0.2-2.9,0.1-5.8-0.1-8.7c-0.2-2.6-0.7-5.2-1-7.8c-0.1-0.9-0.1-1.9-0.2-2.8
					c0-0.7,0.1-1.3,0-1.9c0.1-0.8,0.1-1.6,0.1-2.4c0-0.5,0.2-1.1,0.2-1.6c-0.4,1-0.6,2.2-0.6,3.3l0,0.1c0,0.3,0,0.6-0.1,0.9
					c-0.2,2.5,0.1,5.1,0.4,7.6c0.4,2.7,0.8,5.4,0.8,8.1c0.1,2.2-0.1,4.4,0,6.6c0,1.1,0,2.1,0.1,3.2c-0.1,0.6,0,1.2,0,1.7
					c0.1,1.4,0.2,2.7,0.4,4.1c0,0.2,0.1,0.5,0.3,0.6c-0.4-3-0.4-6-0.4-8.9C115.1,131.2,115.2,130.5,115.1,129.8z"/>
			</g>
			<g>
				<path class="st23" d="M66.8,149c-0.4,0.8-0.7,1.7-1.3,2.4c0.1,0,0.2,0,0.2-0.1c0.6-0.8,1-1.7,1.4-2.7c0.8-2,1.7-4,2.1-6.2
					c0.1-0.8,0.3-1.6,0.1-2.4c-0.1,0-0.2,0-0.2,0c0,0.8,0,1.5-0.2,2.2C68.5,144.6,67.7,146.8,66.8,149z"/>
				<path class="st23" d="M66.8,153.3c0.4-0.5,0.7-1.2,1-1.8c1.2-2.6,2.4-5.3,2.8-8.1c-0.1,0-0.2,0-0.2,0c-0.3,1-0.5,1.9-0.8,2.9
					c-0.7,2-1.5,4-2.4,6C67.1,152.6,66.9,152.9,66.8,153.3z"/>
				<path class="st23" d="M68.4,154.4c0.5-0.2,0.7-0.8,1-1.2c0.9-1.8,1.7-3.7,2.2-5.6c0.2-0.8,0.5-1.6,0.4-2.4
					c-0.1,0.1-0.2,0.3-0.2,0.5c-0.5,2.6-1.5,5.1-2.6,7.5C69,153.6,68.6,153.9,68.4,154.4z"/>
				<path class="st23" d="M63.9,148.2c0.9-1.3,1.7-2.7,2-4.3c0.2-1.4,0.6-2.8,0.6-4.2c0-1.4,0-2.7-0.1-4.1c0-1-0.2-1.9-0.2-2.9
					c-0.1,0-0.2,0-0.2,0c-0.2,0.8,0,1.6,0,2.4c0,1.7,0.1,3.4,0.1,5.1c0,1.1-0.3,2.1-0.5,3.2c-0.2,1.2-0.6,2.3-1.1,3.4
					c-0.2,0.5-0.5,0.9-0.7,1.3c-0.5,0.5-0.8,1.2-1.3,1.8c0.1,0,0.2,0,0.3,0C63.1,149.4,63.5,148.8,63.9,148.2z"/>
			</g>
			<g>
				<path class="st23" d="M109.8,119.8c0.2,0.2,0.5,0.4,0.6,0.7c0.7,1.2,0.9,2.5,1,3.9c0,0.4-0.1,0.8-0.2,1.2
					c-0.2,1.2-0.2,2.4-0.3,3.7c0,0.5-0.2,1-0.1,1.5c0.1,0.6,0,1.3,0,1.9c0,0.7,0,1.5-0.1,2.2c0,1.2,0.3,2.4,0.5,3.5
					c0.2,1,0.4,1.9,0.7,2.8c0.4,1,0.8,2,1.6,2.7c0.5,0.6,1.1,1.2,1.7,1.8c0.3,0.3,0.6,0.7,1,0.9c0-0.3-0.3-0.6-0.4-0.8
					c-0.7-0.8-1.5-1.6-2.2-2.4c-1.1-1.5-1.5-3.3-1.9-5.1c-0.3-1.1-0.5-2.3-0.5-3.4c0-1.4,0-2.8,0-4.2c0.1-2,0.3-3.9,0.5-5.8
					c0-1.1-0.1-2.2-0.4-3.3c-0.2-0.7-0.4-1.4-1-1.9c-0.1-0.1-0.2-0.1-0.2-0.3c0.1-0.1,0.2-0.3,0.3-0.4c0.3-0.5,0.2-1.2,0.1-1.8
					c0.6,0.2,1.3,0.6,1.5,1.2c0-0.1,0-0.2,0-0.2c-0.1-0.2-0.3-0.3-0.4-0.5c-0.3-0.2-0.6-0.5-1-0.7c-0.5-0.3-0.8-0.8-1.2-1.1
					c-0.4,0.6-0.2,1.2-0.3,1.9c-0.1,0.9-0.1,1.8-0.4,2.7C109.2,120.6,109.5,120.2,109.8,119.8z"/>
				<path class="st23" d="M109.6,122.4c0.4,1,0.3,2.1,0.4,3.2c0,1.5-0.2,3.1-0.3,4.6c-0.1,1.4-0.3,2.8-0.3,4.3
					c0.1,1.1,0,2.2,0.2,3.3c0.1,1.2,0.3,2.4,0.6,3.6c0.2,0.8,0.6,1.6,1,2.4c0.5,1,1.1,1.9,1.7,2.8c0.5,0.6,1,1,1.6,1.5
					c0.3,0.2,0.5,0.5,0.8,0.8c0-0.4-0.3-0.6-0.5-0.9c-0.3-0.3-0.5-0.6-0.8-0.9c-1.3-1.3-2.2-2.9-2.9-4.6c-0.4-0.8-0.5-1.7-0.7-2.5
					c-0.3-1.2-0.4-2.5-0.4-3.8c0-0.9-0.2-1.9-0.1-2.8c0.2-2.1,0.3-4.3,0.5-6.4c0.1-0.8,0-1.7,0-2.5c0-0.8-0.1-1.6-0.4-2.3
					c-0.2-0.5-0.8-0.9-1.3-0.9c0,0.1,0,0.2,0,0.3C109.1,121.6,109.4,121.9,109.6,122.4z"/>
				<path class="st23" d="M108.5,123.9c0.4,1,0.6,2.1,0.5,3.2c-0.1,1.4-0.5,2.7-0.6,4.1c-0.2,1.4-0.5,2.7-0.4,4.1
					c0.1,1-0.1,1.9-0.1,2.9l0,0.1c0,2.8,0.8,5.6,2.1,8.1c0.8,1.6,2,2.9,3.1,4.3c0.1,0,0.2,0,0.3,0c-0.8-1.1-1.5-2.2-2.2-3.3
					c-1-1.6-1.7-3.3-2.2-5.1c-0.4-1.4-0.5-2.9-0.7-4.3c0-1,0-2.1,0.1-3.1c0-3.1,1.2-6,1-9.1c0-0.7-0.2-1.3-0.4-2
					c-0.3-0.7-1.1-1.3-1.9-1.3c0,0.1,0,0.3,0,0.4C107.7,122.8,108.3,123.2,108.5,123.9z"/>
				<path class="st23" d="M107,145.3c0.8,2.1,1.7,4.2,2.8,6.1c0.1,0.2,0.2,0.5,0.5,0.6c0-0.1-0.1-0.3-0.1-0.4
					c-0.9-1.9-1.8-3.8-2.5-5.8c-0.7-1.9-1.1-4-1.3-6c-0.1-0.6,0-1.2-0.1-1.8c-0.2,0.6-0.2,1.3-0.2,2
					C106.1,141.8,106.4,143.6,107,145.3z"/>
				<path class="st23" d="M117.5,146.9c-0.1,0-0.2,0-0.3,0c-0.1,0.3-0.1,0.6-0.2,0.8c-1,1.7-2.4,3.1-3.8,4.5
					c-1.3,1.2-2.7,2.3-4.2,3.3c-1.6,1-3.4,1.7-5.1,2.5c-2,0.8-4,1.6-6.1,2.2c-1.4,0.3-2.8,0.6-4.3,0.7c-2.8,0.3-5.6,0.2-8.4-0.1
					c-0.1,0-0.2,0-0.3,0c-0.1,0-0.3,0-0.3,0c0.1,0,0.2,0,0.3,0c0.1,0,0.2,0,0.3,0c-1.4-0.2-2.8-0.5-4.2-0.8
					c-1.1-0.2-2.2-0.5-3.3-0.8c-1.1-0.3-2.2-0.5-3.2-1c-0.9-0.4-1.8-0.8-2.7-1.3c-0.9-0.4-1.7-1-2.6-1.4c-0.7-0.4-1.4-0.8-2.1-1.1
					c-0.6-0.5-1.2-0.9-1.8-1.4c-0.5-0.5-1.1-0.9-1.7-1.4c1.4-1.8,2.5-3.9,3.2-6.1c0.5-1.7,1-3.4,1.2-5.1c0.1-1.2,0.2-2.5,0-3.7
					c-0.2,0.4-0.2,0.9-0.2,1.3c0,0.5-0.1,1-0.1,1.5c-0.1,1.5-0.5,3-0.9,4.5c-0.7,2.7-1.9,5.2-3.4,7.5c-0.4-0.3-0.8-0.7-1.1-1.1
					c-0.3-0.3-0.5-0.6-0.9-0.8c-0.2-0.1-0.3,0.1-0.3,0.3c0.7,0.7,1.4,1.3,2.1,2c0.3,0.3,0.8,0.6,1.1,0.8c0.7,0.5,1.4,1.2,2.1,1.6
					c1.1,0.8,2.4,1.4,3.6,2.1c1.3,0.8,2.8,1.5,4.2,2.1c1,0.5,2.1,0.7,3.1,1c1.3,0.3,2.6,0.7,3.9,0.9c1.2,0.2,2.5,0.5,3.7,0.6
					c1.9,0.3,3.8,0.4,5.7,0.4c2.4,0,4.8-0.3,7.1-0.9c2.1-0.5,4.2-1.3,6.2-2.1c2.1-0.8,4.1-1.7,6-3.1c1.3-0.9,2.5-1.9,3.6-3.1l0,0
					c1.3-1.5,2.7-2.9,3.8-4.6C117.5,147.4,117.5,147.2,117.5,146.9z"/>
			</g>
			<g>
				<path class="st23" d="M54.5,194.4c-0.6-0.4-1.1-0.8-1.6-1.3c-2.1-1.9-3.6-4.3-5.8-6c-0.7-0.6-1.6-0.8-2.4-1.4c0,0.1,0,0.2,0,0.2
					c0.6,0.6,1.5,0.9,2.2,1.5c0.7,0.6,1.4,1.3,2,2c1.8,1.9,3.5,4,5.9,5.3C54.8,194.6,54.6,194.5,54.5,194.4z"/>
				<path class="st23" d="M20.9,194.4c0,0.4,0.2,0.8,0.2,1.2c0.2,1,0.2,2,0.4,3.1c0.3,1.3,0.6,2.5,1.1,3.8c0.5,1.3,1.2,2.6,1.8,3.8
					c0.9,1.7,2.2,3.1,3.2,4.7c0.7,1.1,0.9,2.4,1.2,3.6c0.2,0.9,0.3,1.8,0.2,2.7c-0.4,1.2-0.8,2.3-1,3.5h0.6c0-0.2,0.1-0.5,0.1-0.7
					c0.3-1.1,0.6-2.1,1.1-3.1c0.5-0.5,0.6-1.3,0.6-2c0.1-0.3,0-0.7,0-1c-0.1-0.9,0-1.8-0.2-2.6c-0.2-1.2-0.6-2.4-1-3.6
					c-0.4-1.1-1-2.2-1.5-3.2c-0.8-1.6-1.5-3.3-2.1-5c-0.2-0.6-0.4-1.1-0.5-1.7c-0.1,0-0.2,0-0.2,0c-0.1,0.7,0.2,1.4,0.3,2.1l0.1-0.1
					c0.1,0.8,0.5,1.6,0.7,2.3c0.5,1.2,1,2.5,1.6,3.6c0.4,0.8,0.8,1.5,1,2.3c0.7,2,1.1,4,1.4,6.1c-0.1,0.7,0.1,1.4-0.2,2.1l-0.1,0
					c-0.1-1.1-0.3-2.2-0.7-3.2c-0.2-0.7-0.4-1.4-0.8-2c-0.6-1.1-1.3-2-2-3.1c-1.1-1.6-2-3.3-2.7-5c-0.8-1.7-1.3-3.5-1.6-5.3
					c-0.2-1.1-0.3-2.2-0.7-3.3c0-0.3-0.1-0.6-0.3-0.8c-0.1-0.1-0.2-0.2-0.3-0.1c0,0.3,0.1,0.6,0.2,0.9L20.9,194.4z"/>
				<path class="st23" d="M110.2,202.3c-1.9,0.9-3.8,1.7-5.7,2.5c-0.9,0.4-1.7,1-2.4,1.8c-0.1,0.1-0.1,0.3-0.2,0.5
					c0.4-0.1,0.6-0.5,0.9-0.7c0.6-0.6,1.3-1,2.1-1.2c2.1-0.7,4-1.8,5.9-2.8c0.9-0.5,1.8-0.9,2.4-1.8c-0.2,0-0.3,0.1-0.4,0.2
					C112.1,201.4,111.1,201.8,110.2,202.3z"/>
				<path class="st23" d="M33.3,217.6c-0.3,1.1-0.5,2.2-0.7,3.3h0.6c0.1-0.5,0.2-1,0.3-1.4c0.4-1.9,1.2-3.7,1.5-5.7
					c0.4-1.9,0.2-3.9-0.2-5.7c-0.3-1.2-0.5-2.5-0.9-3.7c0-0.3,0-0.5,0-0.8c-0.1,0-0.2,0-0.3,0c-0.1,0.5-0.1,1.1,0.1,1.6
					c0.1,0.8,0.2,1.6,0.4,2.4c0.4,2,0.7,4.1,0.3,6.1C34.2,215,33.7,216.2,33.3,217.6z"/>
				<path class="st23" d="M150.1,211.5c0.1-1,0.2-1.9-0.1-2.9c-0.1-1-0.4-1.9-0.6-2.9c-0.3-1.2-0.5-2.4-1.1-3.6
					c-0.7-1.6-1.5-3.1-2.2-4.6c-0.8-1.5-1.4-3.1-2.2-4.6c-0.5-1-0.9-2.1-1.3-3.1c-0.1,0-0.2,0-0.3,0c-0.1,0.5,0.1,0.9,0.3,1.3
					c0.3,0.9,0.7,1.8,1.1,2.7c0.5,1.1,0.9,2.2,1.5,3.3c0.9,1.9,1.9,3.7,2.7,5.6c0.8,1.7,1,3.7,1.6,5.5c-0.6,1.2-0.2,2.6-0.3,3.8
					c-0.2,1.1-0.1,2.3-0.2,3.4c-0.3-0.8-0.5-1.5-0.6-2.3c-0.2-1.3-0.2-2.7-0.3-4c-0.1-1.2-0.5-2.3-0.9-3.4c-0.6-1.5-1.7-2.8-2.5-4.2
					c-0.3-0.5-0.8-1-0.8-1.6c-0.1,0-0.2,0-0.2,0c-0.1,0.8,0.3,1.5,0.6,2.1c0.4,0.7,0.8,1.3,1.2,2c0.8,1.3,1.4,2.8,1.8,4.3
					c0.3,1.5,0.2,3,0.4,4.5c0.2,1.6,0.6,3.1,1.2,4.5c0.2,0.5,0.1,1,0.2,1.5c0.1,0.4,0.2,0.9,0.7,0.9c0.2-0.4,0.1-0.8,0.1-1.2
					c0-0.4-0.2-0.8-0.1-1.3c0-1.1-0.1-2.3,0-3.4C149.9,213,150,212.3,150.1,211.5z"/>
			</g>
		</g>
	</g>
</g>
</svg>
