<?xml version="1.0" encoding="utf-8"?>
<!-- Generator: Adobe Illustrator 25.2.0, SVG Export Plug-In . SVG Version: 6.00 Build 0)  -->
<svg version="1.1" id="Layer_1" xmlns="http://www.w3.org/2000/svg" xmlns:xlink="http://www.w3.org/1999/xlink" x="0px" y="0px"
	 viewBox="0 0 180 180" style="enable-background:new 0 0 180 180;" xml:space="preserve">
<style type="text/css">
	.st0{clip-path:url(#SVGID_2_);}
	.st1{fill:#B65A35;}
	.st2{fill:#193857;}
	.st3{fill:#A1AE9C;}
	.st4{fill:#F2844F;}
	.st5{fill:#F95939;}
	.st6{fill:#B06642;}
	.st7{fill:#E56324;}
	.st8{fill:#FCC996;}
	.st9{fill:#FEB48E;}
	.st10{fill:#FDB58F;}
	.st11{fill:#FEB58F;}
	.st12{fill:#B85C37;}
	.st13{fill:#B85B39;}
	.st14{fill:#38312D;}
	.st15{fill:#B75A35;}
	.st16{fill:#160E0B;}
	.st17{fill:#BF6542;}
	.st18{fill:#CC492F;}
	.st19{fill:#FDB391;}
	.st20{fill:#FDB48F;}
	.st21{fill:#B95D38;}
	.st22{fill:#FDB390;}
	.st23{fill:#B85A34;}
	.st24{fill:#803F26;}
	.st25{fill:#102438;}
</style>
<g>
	<defs>
		<rect id="SVGID_1_" width="180" height="180"/>
	</defs>
	<use xlink:href="#SVGID_1_"  style="overflow:visible;fill:#E5A339;"/>
	<clipPath id="SVGID_2_">
		<use xlink:href="#SVGID_1_"  style="overflow:visible;"/>
	</clipPath>
	<g class="st0">
		<g>
			<path class="st1" d="M89.3,22.7c0.9-0.4,1.9-0.6,2.9-0.6c1.1,0,2,0.6,2.9,1.2c1,0.7,1.6,1.9,1.7,3.1c0.1,0.9,0.3,1.9,1.1,2.4
				c0.4,0.3,0.9-0.1,1.3-0.2c0.8-0.3,1.1-1.2,1.8-1.7c1-0.8,2.5-0.9,3.7-0.7c1.9,0.2,3.5,1.5,4.2,3.3c0.3,0.7,0.3,1.4,0.3,2.1
				c1,0,2,0.6,2.3,1.6c0.3,1,0.1,2.1,0.1,3.2c-0.1,1.1,1.4,2,2.3,1.4c0.8-0.4,1.3-1.2,2.2-1.5c1-0.3,2.1-0.4,3.2-0.3
				c1.5,0.3,2.5,1.6,3.1,2.9c0.4,1.4,0.3,3-0.2,4.4c-0.2,0.6-0.4,1.3-0.3,1.9c0.2,0.5,0.7,1,1.2,1.2c0.9,0.4,1.8,0.1,2.6-0.3
				c0.9-0.4,1.9-0.8,2.9-0.9c1.6-0.1,3.3-0.2,4.8,0.4c1.1,0.3,1.9,1,2.8,1.6c0.6,0.4,1.2,0.9,1.4,1.6c0.4,0.9,0.2,1.9-0.2,2.7
				c-0.6,1.1-1.9,1.5-2.4,2.7c-0.3,0.8-0.4,1.8,0.2,2.5c0.4,0.4,1,0.4,1.6,0.4c0.6,0,1.3,0.2,1.6,0.8c0.3,0.6-0.4,1.2-0.3,1.9
				c1,0.2,2-0.5,2.9,0c0.8,0.5,1.5,1.4,1.7,2.4c0.3,1.2,0.3,2.5-0.3,3.6c-0.5,0.9-1,1.9-1.9,2.5c-0.9,0.8-2.2,1.2-3.2,1.9
				c-0.5,0.3-1,0.7-1.3,1.3c-0.2,0.5,0.1,1,0.5,1.3c0.5,0.4,1.1,0.8,1.5,1.4c0.4,0.5,0.3,1.3-0.1,1.8c-0.3,0.4-0.8,0.7-1.1,1
				c-0.3,0.3,0.1,0.6,0.3,0.9c0.5,0.6,0.8,1.4,0.5,2.2c-0.3,0.9-1,1.6-1.6,2.4c-0.8,0.9-1.5,1.9-2.4,2.8c-1.7,1.7-3.8,3-5.9,4.1
				c-2,1.1-4.1,2.2-6.2,3.2c-2.4,1.2-4.8,2.1-7.3,3c-2.4,0.9-4.9,1.7-7.5,2.2c-2.7,0.5-5.4,0.9-8.1,1c-1.5,0-3.1,0.1-4.6-0.1
				c-7.3-0.5-14.5-1.8-21.4-4.2c-2.5-0.9-5.1-1.6-7.6-2.5c-2.2-0.9-4.5-1.8-6.2-3.6c-1.2-1.2-2.1-2.6-2.7-4.2
				c-0.6-1.6-0.9-3.4-1.3-5.1c-0.2-0.8-0.2-1.7-0.4-2.6c-0.5-0.9-0.6-1.9-0.5-2.9c0.1-0.7,0.4-1.5,1-1.9c0.4-0.3,1-0.5,1.1-1
				c0-0.7-0.5-1.2-0.8-1.8c-0.3-0.6-0.3-1.3,0.1-1.9c0.3-0.4,0.7-0.7,1.1-0.9c-0.1-0.6-0.6-1-1.2-1.2c-0.8-0.3-1.6,0.4-2.4,0.1
				c-0.2-0.5,0-1,0.2-1.5c-0.9,0.1-1.8-0.1-2.5-0.5c-0.7-0.4-1-1.3-1.1-2.1c-0.1-1.3,0.7-2.5,1.8-3c1.2-0.7,2.6-0.4,3.9-0.6
				c0.4-0.1,0.9-0.2,1.1-0.6c0.2-0.6,0.3-1.2,0.6-1.8c0.3-0.6,0.8-1.2,1.5-1.5c0.5-0.2,1.1-0.2,1.7-0.1c0-0.6,0-1.3,0.4-1.8
				c0.4-0.5,1.1-0.6,1.7-0.7c-0.5-0.8-1.2-1.6-1.4-2.5c-0.4-1.5-0.3-3.2,0.4-4.7c0.6-1.3,1.7-2.5,3.1-3c0.7-0.2,1.5-0.4,2.3-0.3
				c0.6,0.1,1.2,0.4,1.7,0.7c-0.1-1.3,0.6-2.6,1.7-3.2c0.4-0.3,1-0.3,1.5-0.2c0-0.7,0.2-1.5,0.7-2.1c0.8-0.8,1.9-1.3,3.1-1.3
				c0.9,0,1.7,0.7,2.4,1.3c0.8,0.8,2,1.2,3.1,1.1c1.1-0.1,2-1.1,1.8-2.1c-0.1-0.6-0.4-1.2-0.4-1.8c0-1.3,0.5-2.5,1.4-3.4
				c0.5-0.5,1.1-0.7,1.8-0.7c-0.2-1.2,0.1-2.5,0.9-3.5C87.1,24.2,88.1,23.2,89.3,22.7z"/>
			<path class="st2" d="M85,70.6c1.8-0.4,3.8-0.3,5.5,0.3c1,0.4,2,0.6,2.8,1.3c0,0.2,0,0.3,0,0.5c-1-0.2-1.9-0.5-2.8-0.6
				c-0.9-0.1-1.9-0.3-2.8-0.3c-1,0-2.1-0.1-3.1,0.1c-2.1,0.2-4.2,1-6.1,2c-0.8,0.4-1.7,0.8-2.6,1c0-0.1,0-0.2,0.1-0.2
				c0.8-0.6,1.8-1.1,2.7-1.6C80.6,71.7,82.8,71,85,70.6z"/>
			<path class="st2" d="M158.7,217.1c-0.3-2.6-0.6-5.3-1.1-7.9c-1.2-7.6-3-15.5-6.2-22.4c-0.4-0.8-0.8-1.7-1.2-2.5
				c-0.2-0.3-0.4-0.7-0.6-1c-0.1-0.2-0.2-0.3-0.3-0.5c0,0-0.1-0.1-0.1-0.1c0,0-0.1-0.1-0.1-0.1c-1-1.2-2.1-2.4-3.3-3.4
				c-0.3-0.3-0.7-0.6-1-0.9c-1.1-0.9-2.2-1.9-3.2-3c-0.6-0.5-1.1-1.1-1.6-1.6c-0.5-0.2-0.9-0.5-1.4-0.8c-0.4-0.3-0.6-0.6-0.8-1
				c-1.1-0.9-2.2-1.8-3.3-2.7c-1.2-1-2.2-2.2-3.3-3.2c-1-0.9-1.9-1.9-2.8-2.9c-1.6-1.6-3.1-3.3-4.7-4.8c-1.8-1.8-3.6-3.5-5.4-5.3
				c-0.7-0.7-1.5-1.3-2.1-2.1c0.3-0.2,0.6-0.5,0.9-0.7c2.1-1.4,4.2-2.8,6.5-4c2.1-1.2,4.2-2.2,6.2-3.6c1.1-0.9,2.2-2,2.9-3.2
				c0.4-0.7,0.5-1.6,0.5-2.4c0.1-1.2-0.8-2.3-1.8-2.8c-2.5-1.2-5.2-1.7-7.8-2.6c-2.2-0.8-4.4-1.6-6.5-2.5c-1-0.4-2-1-3-1.6
				c-2.1-1.3-4.4-2.1-6.8-2.8c-2.9-0.9-5.8-1.5-8.7-2.2c-6.7-1.5-13.4-3.2-20.1-4.5c-3.4-0.6-6.8-1.3-10.1-2.4
				c-2.1-0.6-4.1-1.7-6-2.7c-1-0.6-2.2-0.7-3.3-0.5c-1.4,0.4-2.8,0.9-4.1,1.5c-1.2,0.6-2.4,1.3-3.5,2.1c-1.1,0.8-2.1,1.6-3.1,2.5
				c-1.6,1.4-2.9,3-4.3,4.6c-1.1,1.3-2.2,2.7-3.2,4.1c-2.2,3.2-3.8,6.8-5.1,10.4c-0.5,1.5-0.8,3.1-1.1,4.7c-0.1,0.2-0.1,0.5-0.3,0.6
				c-1.8,1.7-3.9,3.1-5.8,4.6c-1.9,1.6-7.8,6.4-8.8,7.2c-1.6,1.2-3.3,2.3-4.9,3.5c-1.8,1.3-3.6,2.7-5.2,4.2
				c-1.7,1.5-3.3,3.1-4.6,4.9c-1.4,1.8-2.5,3.9-3.5,6c-2.7,3.9-4.1,8.4-5.3,13c-1.6,6.5-2.9,13-4,19.6c-0.6,3.7-1.2,7.4-1.8,11.1
				c0,0.1,0,0.2-0.1,0.4H158.7z"/>
			<path class="st3" d="M60.6,116.8c0.2,0,0.4,0,0.5,0c0,0.3-0.1,0.7-0.2,1c0,0.2,0.3,0.3,0.4,0.4c0,0.6-0.1,1.2-0.2,1.8
				c0.5,0.6,0.8,1.2,1.3,1.8c1.2,1.4,2.2,3,3.3,4.5c1.8,2.5,3.5,5.1,5.1,7.8c1.1,1.8,2.1,3.7,2.8,5.7c0.9,2.4,1.6,4.9,2.1,7.4
				c0.7,2.8,1.7,5.5,3,8c0.6,1.2,1.1,2.4,1.5,3.6c0.4,1.1,0.9,2.2,1.2,3.3c0.1,0.3,0.1,0.7,0,1c-0.3,0.2-0.6,0.1-0.9-0.1
				c-1.1-0.5-2.1-1-3.2-1.7c-1.7-1-3.4-1.7-5.2-2.5c-1-0.6-2.1-1.2-3.1-1.9c-1.2-0.8-2.2-1.9-3.5-2.6c-1.9-1.1-3.9-2-5.8-3.2
				c-0.7-0.4-1.4-0.8-2.1-1.2c-1.3-0.8-2.7-1.6-4-2.5c-0.8-0.6-1.6-1-2.4-1.6c-0.7-0.5-0.6-1.4-0.6-2.1c0-1.1,0.6-2.1,1-3.1
				c1.1-3.1,2.6-6,3.6-9c0.4-1.1,0.9-2.1,1.2-3.3c0.9-3.3,2-6.5,3-9.7C59.9,117.9,60.1,117.3,60.6,116.8z"/>
			<path class="st3" d="M108,131.5c0.1,0,0.2-0.1,0.3-0.1c0.1,0,0.2,0.1,0.3,0.2c0.4,1.3,0.3,2.6,0.6,3.9c0.2,1.2,0.5,2.4,0.6,3.7
				c0.3,2.9-0.2,6-1.4,8.7c-0.9,1.8-1.8,3.5-3.1,5.1c-1.4,1.8-2.8,3.5-4.5,4.9c-0.8,0.7-1.8,1.3-2.6,2c-0.9,0.8-1.7,1.6-2.5,2.5
				c-0.7,0.8-1.5,1.6-2.1,2.4c-1.7,2.1-3.5,4.1-4.6,6.6c-0.2,0.7-0.5,1.5-0.8,2.2c-0.1,0-0.3,0-0.4,0c0-1.5-0.5-3-0.4-4.5
				c0.2-3.1,0.8-6.2,1.4-9.3c0.5-2.6,1.2-5.1,2.1-7.6c1.3-3.5,2.9-6.9,4.7-10.2c0.7-1.3,1.7-2.6,2.5-3.8c1.6-2.2,3.8-3.7,6.2-4.9
				c1.2-0.6,2.3-1.2,3.6-1.2C107.9,131.8,108,131.6,108,131.5z"/>
			<path class="st2" d="M107.5,132.9c0.1-0.1,0.2-0.1,0.3,0.1C107.6,133.1,107.5,133,107.5,132.9z"/>
			<path class="st2" d="M106.1,133.4C106.1,133.5,106.1,133.5,106.1,133.4L106.1,133.4z"/>
			<path class="st2" d="M105.8,133.5C105.9,133.6,105.9,133.6,105.8,133.5L105.8,133.5z"/>
			<path class="st2" d="M71.7,136.9C71.8,137,71.8,137,71.7,136.9L71.7,136.9z"/>
			<path class="st2" d="M71.8,137.2C71.9,137.3,71.9,137.3,71.8,137.2L71.8,137.2z"/>
			<path class="st2" d="M73.8,142.6C74.3,142.5,73.7,143,73.8,142.6L73.8,142.6z"/>
			<path class="st2" d="M74,142.9C74.4,143,73.8,143.3,74,142.9L74,142.9z"/>
			<path class="st2" d="M95.6,143.9C95.7,144,95.7,144,95.6,143.9L95.6,143.9z"/>
			<path class="st2" d="M74.6,145.2c0.2,0,0.2,0.1,0.1,0.2C74.5,145.5,74.5,145.4,74.6,145.2z"/>
			<path class="st2" d="M94.6,146C94.7,146,94.7,146,94.6,146L94.6,146z"/>
			<path class="st2" d="M75.1,147.3c0.2,0,0.2,0.1,0.1,0.2C75,147.5,75,147.4,75.1,147.3z"/>
			<path class="st2" d="M75.5,148.7C75.9,148.7,75.3,149,75.5,148.7L75.5,148.7z"/>
			<path class="st2" d="M76,150.2C76.4,150.2,75.8,150.6,76,150.2L76,150.2z"/>
			<path class="st2" d="M76.1,150.6C76.6,150.6,75.9,150.9,76.1,150.6L76.1,150.6z"/>
			<path class="st2" d="M92.4,150.8C92.5,150.9,92.5,150.9,92.4,150.8L92.4,150.8z"/>
			<path class="st1" d="M76.3,150.9C76.7,151,76.1,151.3,76.3,150.9L76.3,150.9z"/>
			<path class="st2" d="M91.7,152.7C92.1,152.8,91.4,153.1,91.7,152.7L91.7,152.7z"/>
			<path class="st2" d="M77.1,153C77.1,153,77.1,153,77.1,153L77.1,153z"/>
			<path class="st2" d="M91.5,153.1C92,153.1,91.3,153.5,91.5,153.1L91.5,153.1z"/>
			<path class="st2" d="M91.4,153.5C91.8,153.5,91.2,153.9,91.4,153.5L91.4,153.5z"/>
			<path class="st2" d="M77.4,153.8C77.5,153.9,77.5,153.9,77.4,153.8L77.4,153.8z"/>
			<path class="st2" d="M77.6,154.1C77.6,154.2,77.6,154.2,77.6,154.1L77.6,154.1z"/>
			<path class="st2" d="M90.9,155.1C91.3,155.1,90.7,155.5,90.9,155.1L90.9,155.1z"/>
			<path class="st2" d="M90.4,156.9C90.8,156.9,90.2,157.3,90.4,156.9L90.4,156.9z"/>
			<path class="st2" d="M79,157C79,157.1,79,157.1,79,157L79,157z"/>
			<path class="st2" d="M90,158.5c0.2,0,0.2,0.1,0.1,0.2C89.9,158.7,89.9,158.6,90,158.5z"/>
			<path class="st2" d="M79.7,158.9C79.8,159,79.8,159,79.7,158.9L79.7,158.9z"/>
			<path class="st2" d="M89.9,159c0.2,0,0.2,0.1,0.1,0.3C89.8,159.2,89.8,159.1,89.9,159z"/>
			<path class="st2" d="M89.4,161.4c0.2,0,0.2,0.1,0.1,0.2C89.3,161.6,89.2,161.5,89.4,161.4z"/>
			<path class="st2" d="M89.3,161.9c0.2,0,0.2,0.3,0.1,0.3C89.1,162.3,89.1,162,89.3,161.9z"/>
			<path class="st2" d="M89.1,162.5c0.2,0,0.2,0.1,0.1,0.2C89,162.8,89,162.7,89.1,162.5z"/>
			<path class="st2" d="M89,163.2c0.2,0,0.2,0.1,0.1,0.2C88.9,163.4,88.9,163.3,89,163.2z"/>
			<path class="st2" d="M88.9,163.7c0.2,0,0.2,0.3,0.1,0.3C88.8,164.1,88.7,163.8,88.9,163.7z"/>
			<path class="st2" d="M88.6,165.1c0.2,0,0.2,0.3,0.1,0.3C88.5,165.5,88.5,165.2,88.6,165.1z"/>
			<path class="st2" d="M88.2,167.4c0.2,0,0.2,0.5,0,0.5C88.1,167.7,88.1,167.5,88.2,167.4z"/>
			<path class="st2" d="M88.1,169c-0.1-0.2-0.1-0.6,0.1-0.8C88.3,168.5,88.3,168.9,88.1,169z"/>
		</g>
		<g>
			<path class="st4" d="M90.1,42.4c3-0.8,6-1.2,9.1-1.4c2.4,0,4.8-0.1,7.1,0.6c0.9,0.3,1.8,0.5,2.7,0.8c1.3,0.3,2.5,0.9,3.8,1.3
				c1,0.4,1.9,0.9,2.8,1.4c1.6,0.9,3.1,1.7,4.5,2.9c1.3,1,2.5,2,3.7,3.2c1.2,1.1,2.2,2.4,3.2,3.6c0.7,0.7,0.9,1.7,1.4,2.6
				c1.4,2.6,1.9,5.5,2.7,8.3c0.1,0.5,0.1,0.9,0.1,1.4c-0.1,0.9,0.1,1.9,0.1,2.8c0,1.2,0.1,2.4-0.1,3.6c-0.2,1.7-0.6,3.3-0.9,4.9
				c-0.3,1.6-0.7,3.3-0.8,4.9l-0.1,0.1c-0.4,0.6-0.4,1.4-0.7,2.1c-0.6,1.8-1.1,3.7-1.6,5.6c-0.1,0-0.2,0-0.4,0
				c-0.6,1.1-1.1,2.2-1.8,3.2c-0.7,0.9-1.4,1.8-2.2,2.7c-0.8,0.8-1.5,1.8-2.3,2.6c-0.7,0.7-1.5,1.3-2.3,1.9c-1.8,1.4-3.7,2.6-5,4.5
				c-0.7,0.8-1,1.7-1.7,2.4c-1-0.5-1.7-1.3-2.6-2c-1.6-0.9-3.5-1.4-5.3-1.6c-1.9-0.2-3.9-0.2-5.8-0.1c-1.7,0.2-3.5,0.3-5.2,0.7
				c-2,0.4-3.8,1.1-5.8,1.6c-0.5,0.1-1.2,0.2-1.6-0.2c-0.9-1.1-1.3-2.5-2-3.8c-1.1-2-2.7-3.7-4.2-5.4c-0.4-0.5-0.9-0.9-1.3-1.3
				c-1-0.9-2-1.9-3.1-2.8c-0.9-0.8-2.1-1.3-3.1-2.1c-0.9-0.7-1.7-1.7-2.2-2.7c-0.5-1.1-0.9-2.3-1-3.5c-0.1-0.8-0.2-1.5-0.4-2.3
				c0.1-1,0.3-1.9,0.3-2.9c0-1.1,0.1-2.1,0-3.2c0-1.2-0.2-2.5-0.1-3.7c0-2.5,0.2-5,0.5-7.5c0.2-1.2,0.6-2.3,0.9-3.5
				c0.4-1.4,0.9-2.8,1.5-4.2c0.8-2,2.1-3.7,3.3-5.5c0.9-1.1,1.8-2.2,2.8-3.2c1.5-1.3,3-2.7,4.8-3.6c0.5-0.2,1-0.5,1.6-0.7
				C85.2,43.9,87.6,43.1,90.1,42.4z"/>
			<path class="st5" d="M51.5,76.5c2.3-1,5.1-1.4,7.4-0.4c0.9,0.4,1.8,0.8,2.5,1.5c0.5,0.5,0.8,1.2,1.1,1.8c0.5,1.2,1.1,2.2,1.6,3.4
				c0,0.7,0,1.5,0,2.2c0,1.6-0.2,3.2-0.2,4.8c-0.3,2.5-0.6,5-0.9,7.5c-0.1,1.2-0.4,2.4-0.4,3.6c-0.1,0.9-0.4,1.8-0.6,2.7
				c-0.4,0.7-0.8,1.4-0.9,2.2c-0.1,0.6,0.1,1.4-0.4,1.9c-0.6-0.3-1.3-0.5-1.9-0.9c-1.3-0.5-2.8-0.8-4-1.5c-1.1-0.5-2.1-1.3-2.9-2.1
				c-0.7-0.8-1.3-1.7-2-2.5c-1.5-2.1-2.7-4.5-3.6-7c-0.4-1-0.6-2-0.8-3c-0.4-2.1-0.3-4.4,0.3-6.4c0.5-2,1.5-4,2.9-5.6
				C49.5,77.9,50.4,77,51.5,76.5z"/>
			<path class="st6" d="M64.2,82.8c0.3,0.5,0.7,0.8,1.2,0.9c0.6,0.1,1.2,0.2,1.8,0.4c0.1-0.4,0.1-0.7,0.2-1.1
				c0.2,0.8,0.4,1.5,0.4,2.3c0.1,1.2,0.5,2.4,1,3.5c0.5,1.1,1.3,2,2.2,2.7c1,0.8,2.2,1.2,3.1,2.1c1,0.9,2,1.9,3.1,2.8
				c0.5,0.4,0.9,0.9,1.3,1.3c1.5,1.8,3.1,3.4,4.2,5.4c0.7,1.2,1,2.7,2,3.8c0.4,0.5,1.1,0.4,1.6,0.2c1.9-0.5,3.8-1.2,5.8-1.6
				c1.7-0.4,3.5-0.6,5.2-0.7c1.9-0.1,3.9-0.1,5.8,0.1c1.8,0.2,3.7,0.7,5.3,1.6c0.9,0.6,1.7,1.4,2.6,2c0.7-0.7,1.1-1.7,1.7-2.4
				c1.3-1.9,3.3-3.1,5-4.5c0.8-0.6,1.6-1.2,2.3-1.9c0.8-0.8,1.5-1.8,2.3-2.6c0.7-0.9,1.5-1.7,2.2-2.7c0.7-1,1.2-2.1,1.8-3.2
				c0.1,0,0.2,0,0.4,0c-0.3,0.9-0.6,1.7-0.9,2.6c-0.9,2.5-2.3,4.7-3.6,6.9c-1.2,2.2-2.4,4.3-3.2,6.7c-0.3,0.8-0.5,1.6-0.7,2.4
				c-0.1,0.2,0,0.4,0.1,0.5l0,0c-1.4,2.3-2.3,4.9-2.8,7.6c-0.2,1.1-0.5,2.3-0.7,3.4c-0.4,1.8-1.1,3.4-1.8,5.1
				c-0.3,0.9-0.8,1.7-1.2,2.6c-1,1.8-2.6,3.2-4.3,4.3c-1.3,0.9-2.7,1.7-4.2,2.3c-0.6,0.3-1.3,0.4-1.9,0.8c-0.6-0.1-1.2,0.1-1.8,0.2
				c-1.2,0.2-2.5,0.3-3.7,0.3c-1.1,0-2.2,0-3.3-0.1c-1.1-0.2-2.3-0.4-3.4-0.8c-1.4-0.4-2.7-1.1-3.9-1.9c-0.9-0.7-1.9-1.2-2.7-2
				c-0.6-0.6-1.3-1-2-1.6c-1.7-1.6-3.2-3.4-4.9-5c-0.8-1.1-1.9-2.1-2.8-3.2c-1-1.2-2.2-2.2-3.2-3.4c-0.7-1-1.6-1.9-2.3-2.9
				c-1.1-1.7-2.3-3.4-3-5.3c-0.5-1.4-1.4-2.7-1.8-4.2c-0.3-0.9-0.5-1.8-0.8-2.7c0.2-0.9,0.5-1.8,0.6-2.7c0.1-1.2,0.3-2.4,0.4-3.6
				c0.3-2.5,0.6-5,0.9-7.5c0-1.6,0.3-3.2,0.2-4.8C64.2,84.3,64.2,83.5,64.2,82.8z"/>
			<path class="st5" d="M128.5,85.5c0.2-0.7,0.3-1.5,0.7-2.1c0.6,0.3,1.3,0.2,1.9,0.2c0.9-0.1,1.8,0,2.7,0c0.3,0,0.7,0,1,0.2
				c0.4,0.3,0.6,0.8,0.8,1.2c0.4,0.6,0.6,1.2,0.7,1.9c0.1,1.4-0.1,2.8-0.4,4.2c-0.4,1.4-0.9,2.8-1.4,4.2c-0.3,1-0.8,1.9-1.4,2.9
				c-0.8,1.2-1.5,2.4-2.3,3.5c-1.2,1.6-2.7,2.9-4.2,4c-1,0.8-2.1,1.5-3.3,2.2c-1.2,0.6-2.4,1.1-3.6,1.6c-0.4,0.2-1,0.2-1.2,0.7
				c-0.1-0.2-0.1-0.4-0.1-0.5c0.2-0.8,0.4-1.6,0.7-2.4c0.8-2.4,2-4.5,3.2-6.7c1.3-2.2,2.7-4.5,3.6-6.9c0.3-0.9,0.6-1.7,0.9-2.6
				C127.4,89.2,127.9,87.3,128.5,85.5z"/>
			<path class="st7" d="M61.1,105.9c0.1-0.8,0.5-1.5,0.9-2.2c0.3,0.9,0.5,1.8,0.8,2.7c0.5,1.5,1.3,2.8,1.8,4.2
				c0.7,1.9,1.8,3.6,3,5.3c0.7,1,1.6,1.9,2.3,2.9c1,1.2,2.2,2.2,3.2,3.4c0.9,1.1,2,2,2.8,3.2c1.6,1.7,3.2,3.4,4.9,5
				c0.6,0.6,1.3,1,2,1.6c0.8,0.7,1.8,1.3,2.7,2c1.2,0.8,2.5,1.6,3.9,1.9c1.1,0.4,2.3,0.5,3.4,0.8c1.1,0.1,2.2,0.1,3.3,0.1
				c1.2,0,2.5,0,3.7-0.3c0.6-0.1,1.2-0.3,1.8-0.2c-0.2,0.6-0.5,1.1-0.6,1.6c-0.4,1-0.7,2.1-1.1,3c-0.7,1.5-1.2,3.2-2,4.7
				c-0.6,1-1.1,2-1.6,2.9c-0.7,1.2-1.4,2.4-2.2,3.6c-0.6,1-1.1,2.1-1.7,3.1c-1.2,2.1-1.6,4.5-2.1,6.8c-0.5,3-1.2,6.1-1.6,9.1
				c-0.2,1.2-0.3,2.4-0.5,3.6c-0.2,0-0.4,0-0.6,0c-1.1-2.1-2.2-4.2-3.5-6.2c-0.5-0.9-1.1-1.7-1.6-2.6c-0.6-1.1-1.2-2.3-1.8-3.4
				c-0.8-1.3-1.5-2.7-2.1-4.1c-0.7-2.1-1.6-4-2.8-5.9c-0.6-1-1.2-2.1-1.5-3.3c-0.4-1.2-0.6-2.4-0.9-3.6c-0.4-1.6-0.7-3.3-1.3-4.9
				c-1.4-3.4-3.9-6-5.8-9.1c-0.6-0.8-0.9-1.6-1.3-2.5c-0.6-1.3-1-2.8-1.6-4.2c-0.7-1.9-1.9-3.6-2.6-5.4c-0.4-0.9-0.2-1.8-0.1-2.7
				c0.1-1.7,0.3-3.4,0.2-5.1c0-1.3,0-2.6,0-3.9C61.2,107.3,61,106.5,61.1,105.9z"/>
			<path class="st8" d="M87.5,173.4C87.9,173.5,87.3,173.8,87.5,173.4L87.5,173.4z"/>
		</g>
		<g>
			<path class="st9" d="M83,48.5c1.6-0.9,3.4-1.5,5.2-1.6c0,0.1,0,0.2,0,0.4c-2.2,0.4-4.3,1.3-6.1,2.7c-0.3,0.2-0.6,0.4-0.9,0.5
				c0-0.1,0-0.3,0-0.3C81.7,49.5,82.3,48.9,83,48.5z"/>
			<path class="st10" d="M93.2,63.7c1,0,2,0.4,2.9,0.7c0.5,0.2,1,0.5,1.4,0.8c-0.2,0.4-0.6,0-0.9-0.1c-1.1-0.5-2.3-0.6-3.5-1
				C93.2,63.9,93.2,63.8,93.2,63.7z"/>
			<path class="st11" d="M86.9,65.5c1.7-0.5,3.5-0.4,5.2,0.1c1.1,0.3,2.3,0.5,3.2,1.3c0,0.1,0,0.2,0,0.3c-0.2,0-0.4-0.1-0.7-0.2
				c-1-0.5-2.1-0.6-3.1-0.8c-1.5-0.3-3.1-0.3-4.7-0.3C86.9,65.7,86.9,65.5,86.9,65.5z"/>
			<path class="st12" d="M103.2,67.9c0.1,0,0.2,0,0.3,0c0,0.9-0.1,1.8-0.1,2.7c0,1.8-0.4,3.6-1,5.3c-0.1,0-0.3,0-0.4,0
				c0.3-1.2,0.5-2.4,0.6-3.7C102.8,70.8,102.6,69.3,103.2,67.9z"/>
			<path class="st13" d="M105.3,68c0.1,0,0.2,0,0.4,0c0.3,1.8,0.2,3.6-0.2,5.3c-0.3,0.9-0.5,1.9-1.2,2.7c-0.1,0-0.2,0-0.3,0
				c0.8-1.6,0.9-3.5,1-5.3C105.2,69.9,105.2,68.9,105.3,68z"/>
			<path class="st14" d="M83.5,70.7c0.9-0.2,1.8-0.3,2.8-0.3c2.1,0.1,4.2,0.7,6.1,1.6c1.4,0.7,2.7,1.6,4.1,2.3
				c0.4,0.2,0.9,0.4,1,0.9c0.1,0.4,0,0.8-0.4,1.1c-0.4,0.3-0.8,0.3-1.3,0.4c-1.1,0.2-2.2,0.2-3.3,0c-1.1-0.2-2.2-0.3-3.3-0.6
				c-1.2-0.3-2.4-0.7-3.5-1c-1.3-0.3-2.6-0.3-3.9-0.3c-1.5-0.1-3,0-4.4,0.3c-0.8,0.2-1.6,0.4-2.5,0.5c-0.2,0.1-0.4-0.1-0.6-0.2
				c0-0.1,0-0.2,0-0.3c0.7-0.5,1.5-0.7,2.2-1.1C78.8,72.6,81,71.3,83.5,70.7z"/>
			<path class="st14" d="M115.5,74.5c1.1-0.1,2.3-0.2,3.4,0c0.7,0.1,1.4,0.2,1.9,0.6c0.6,0.4,1.1,0.8,1.6,1.3
				c0.6,0.6,1.1,1.4,1.8,2.1c0.7,0.6,1.2,1.3,1.7,2l0.1,0c0,0.1,0,0.3,0,0.4c-0.7,0.1-1.3-0.1-1.9-0.3c-1.9-0.6-3.9-1.2-5.9-1
				c-1.8,0.2-3.7,0.4-5.5,0.3c-2-0.2-4-0.6-5.9-1.3l0-0.2c0-0.2,0-0.4,0-0.5c0-0.1,0-0.2,0-0.2c1.4-0.7,2.7-1.7,4.2-2.1
				C112.5,75,114,74.7,115.5,74.5z"/>
			<path class="st15" d="M106.3,78.4c0.2-0.2,0.3-0.5,0.6-0.7c0,0.2,0,0.4,0,0.5c-0.3,0.6-0.4,1.2-0.6,1.8c-0.5,1.5-0.6,3.1-0.4,4.7
				c0.1,1.9,0.4,3.7,0.6,5.5c0.2,2.2,0.7,4.4,1.4,6.6c0.2,0.8,0.5,1.5,0.4,2.3c-0.1,0.5-0.4,1-0.9,1.1c-1.2,0.3-2.5-0.1-3.7-0.3
				c-1.3-0.3-2.6-0.4-3.9-0.8c0-0.2,0-0.3,0-0.5c0.3-0.1,0.6-0.1,1-0.1c1.1,0.2,2.2,0.3,3.2,0.6c1.1,0.2,2.3,0.8,3.4,0.3
				c0.2-0.5,0.1-1.1,0-1.6c-0.6-1.9-1.2-3.8-1.5-5.7c-0.2-1.5-0.4-2.9-0.6-4.4c-0.3-2-0.5-3.9-0.2-5.9c-1.3-0.2-2.6-0.3-3.9-0.3
				c-0.3,0-0.7,0-1,0c0-0.1,0-0.3,0-0.4c0.5-0.1,1-0.2,1.5-0.1c1.1,0.1,2.3,0.2,3.4,0.5c0.1-0.4,0.2-0.9,0.4-1.3
				c0-0.1,0.1-0.2,0.1-0.3C105.5,79.4,105.8,78.9,106.3,78.4z"/>
			<path class="st16" d="M80.9,78.8c0.4-0.1,1-0.2,1.4,0c0.4,0.3,0.5,0.8,0.5,1.3c-0.1,0.7-0.2,1.5-0.5,2.2C82,82.8,81.5,83.1,81,83
				c-0.6-0.1-1-0.7-1.1-1.3c-0.1-0.8,0.1-1.5,0.4-2.2C80.4,79.2,80.6,79,80.9,78.8z"/>
			<path class="st17" d="M99.8,79.8c1.2-0.6,2.6-0.5,3.9-0.3c0.5,0.1,1.1,0.2,1.6,0.4c0,0.1-0.1,0.2-0.1,0.3
				c-0.7-0.3-1.4-0.3-2.1-0.4c-1.1-0.1-2.2-0.1-3.3,0.2C99.8,80.1,99.8,79.9,99.8,79.8z"/>
			<path class="st14" d="M92.8,30.4c-0.3,0.1-0.5,0.5-0.6,0.7c-0.2,0-0.3,0-0.5,0c0.1-0.5,0.4-1,0.2-1.6c-0.2-0.5-0.6-1-1.1-0.8
				c-0.2,0.1-0.3,0.3-0.5,0.5c-0.1,0-0.2,0-0.3,0c0-0.4-0.1-0.8-0.4-1.1c-0.3,0-0.6,0-0.8,0.1c-0.6,0.4-1,0.9-1,1.6
				c0.1,0.1,0.2,0.2,0.3,0.4c0,0.1,0,0.3-0.1,0.4c-0.7,0-0.9-0.9-0.7-1.5c0.3-0.8,1.1-1.6,2.1-1.5c0.4,0,0.7,0.4,1,0.7
				c0.4-0.1,0.9-0.3,1.3,0c0.6,0.4,0.8,1.1,0.8,1.7c0.4-0.2,0.8-0.3,1.2-0.1c0.5,0.2,0.7,0.8,0.6,1.3c0,0.4-0.2,0.9-0.7,0.9
				c0.2-0.4,0.4-0.9,0.1-1.4C93.6,30.3,93.1,30.3,92.8,30.4z M103,29.5c0.3,0.2,0.3,0.6,0.2,1c-0.2,0.4-0.6,0.7-0.5,1.1
				c0.4,0.1,0.6-0.3,0.8-0.6c0.2-0.2,0.4,0,0.6,0c0.2,0.4,0.2,0.9,0.3,1.4c0,0,0.1,0.1,0.1,0.1c0.4-0.1,0.8-0.2,1.2-0.1
				c0.5,0.7,0.4,1.7,0.1,2.5c0.1,0,0.3,0,0.3,0c0.4-0.8,0.6-1.9-0.1-2.7c-0.4-0.4-0.9-0.3-1.4-0.2c-0.1-0.6-0.1-1.2-0.6-1.5
				c-0.2,0-0.3,0-0.5,0c0-0.4,0-1-0.4-1.3c-0.5-0.4-1.2-0.1-1.6,0.3c-0.1,0.2,0,0.5,0,0.7c0-0.1,0.1-0.3,0.1-0.4
				C102.2,29.6,102.6,29.3,103,29.5z M99,33.5c-0.1-0.2-0.2-0.5-0.3-0.7c-1-0.4-2,0.8-1.6,1.8c0.1,0,0.2,0,0.3,0
				c-0.1-0.7,0.4-1.5,1.2-1.3c0.1,0.5-0.3,0.8-0.4,1.2c0.1,0.1,0.3,0.2,0.4,0.2c0.2-0.2,0.3-0.4,0.5-0.6c0.1,0,0.2-0.1,0.3-0.2
				c0.4,0.2,0.7,0.4,0.8,0.8c-0.1,0.6-0.4,1.2-1,1.5c-0.4,0.2-1,0.5-1.5,0.2c0.1,0.1,0.2,0.3,0.3,0.4c0.8-0.1,1.6-0.3,2.1-0.9
				c0.4-0.4,0.5-1.1,0.3-1.7C100.1,33.8,99.5,33.6,99,33.5z M90.3,35.3c-0.6-0.1-1.1,0.2-1.6,0.5c0-0.1-0.1-0.3-0.2-0.3
				c-0.3-0.1-0.5-0.1-0.8-0.1c-0.1-0.2-0.2-0.4-0.3-0.5c-0.4-0.2-0.8,0-1.1,0.3c-0.5,0.5-0.8,1.2-0.5,1.8c0.2,0,0.4,0,0.6,0
				c0-0.1,0-0.2,0-0.2c-0.1-0.1-0.2-0.2-0.3-0.2c0.2-0.5,0.5-1,1-1c-0.2,0.4-0.6,0.8-0.5,1.3c0.2-0.1,0.5,0,0.6-0.3
				c0.2-0.2,0.4-0.7,0.8-0.7c0.4-0.1,0.4,0.4,0.6,0.7c0.5-0.3,1-0.8,1.7-0.7c0.4,0,0.6,0.4,0.6,0.7c0.1,0.3-0.1,0.6-0.3,0.8
				c0.1,0,0.3,0,0.3,0C91.7,36.8,91.2,35.5,90.3,35.3z M107.3,38.2c-0.2-0.4-0.4-0.9-0.9-1c-0.9-0.1-1.6,0.5-2.2,1.1
				c-0.2-0.3-0.4-0.6-0.8-0.7c0-0.3-0.1-0.6-0.3-0.9c-0.6,0-1,0.4-1.3,0.8c0,0.1,0,0.3,0.1,0.4c0.3-0.3,0.6-0.6,1-0.8
				c0.2,0.6-0.3,1-0.5,1.4c0.1,0.1,0.3,0.2,0.4,0.2c0.2-0.2,0.4-0.5,0.6-0.7c0.5-0.2,0.5,0.5,0.6,0.8c0.5-0.1,0.7-0.6,1.1-0.8
				c0.4-0.3,0.9-0.5,1.4-0.4c0.3,0.2,0.4,0.7,0.6,1c0.5-0.1,0.8-0.5,1.2-0.9c0-0.1,0-0.2,0-0.2C107.9,37.8,107.6,38,107.3,38.2z
				 M96.3,37c-0.3,0.2-0.6,0.4-0.9,0.5c0,0.4,0.1,0.7,0,1.1c-0.2,0.5-0.7,1-1.3,0.9c-0.1-0.1-0.2-0.2-0.2-0.3c0.2-0.6,0.5-1,0.8-1.5
				c-0.6-0.1-1.1,0.4-1.4,0.9c-0.1,0-0.2,0-0.3,0c0.2-0.6,0.5-1.2,1.1-1.4c0.4-0.1,0.7,0.1,1.1,0.2c0.2-0.1,0.4-0.3,0.6-0.4
				C96.1,37,96.3,37,96.3,37z M95,38.2c-0.4,0.1-0.5,0.6-0.6,0.9C94.8,38.9,95,38.6,95,38.2z M118.9,39.1c0,0.1-0.1,0.3-0.1,0.4
				c0.2,0,0.5,0,0.7,0c0.2,0.5,0.5,1.2-0.1,1.5c0,0.1,0,0.3,0,0.4c0.1,0,0.3,0,0.4,0c0.5-0.5,0.5-1.4,0.2-2.1
				C119.9,38.8,119.3,38.9,118.9,39.1z M73.7,39.9c0.5-0.2,1,0.2,1.3,0.6c0.1,0,0.2,0,0.3,0c0.3-0.3,0.5-0.8,1-0.8
				c0.4,0.5,0.5,1.1,0.6,1.7c0-0.4,0.1-0.8,0-1.1c-0.1-0.4-0.4-0.6-0.6-0.9c-0.3,0-0.6,0-0.8,0.3c-0.2,0.1-0.3,0.4-0.5,0.4
				c-0.4-0.2-0.7-0.7-1.2-0.6c-0.6,0.2-0.8,0.9-1,1.4c-0.4-0.3-1-0.6-1.5-0.3c-0.7,0.4-0.9,1.3-0.8,2c0.1,0,0.2,0,0.4,0
				c0-0.6,0.2-1.2,0.8-1.6c0.6-0.2,1,0.4,1.4,0.7c0.3-0.3,0.2-0.7,0.3-1.1C73.5,40.4,73.6,40.2,73.7,39.9z M84,40.7
				c-0.1,0-0.2,0-0.3,0c-0.2,0.4-0.4,0.8-0.7,1.2c-0.2,0-0.3,0-0.5,0c-0.1-0.3-0.2-0.6-0.3-0.9c-0.1,0-0.3,0-0.4,0
				c-0.2,0.3-0.3,0.7-0.6,0.9C81,42,80.8,42,80.5,42c-0.2-0.3-0.4-0.5-0.4-0.8c0-0.5,0.2-0.9,0.3-1.3c0.2,0.1,0.4,0.2,0.6,0.2
				c-0.1-0.2-0.1-0.5-0.2-0.7c-0.2,0-0.5,0-0.6,0.2c-0.7,0.8-0.8,2.3,0.2,2.9c0.6,0.3,1.2-0.1,1.5-0.6c0.3,0.3,0.6,0.6,1,0.5
				c0.5-0.1,0.7-0.6,0.9-1c0.3,0,0.6,0.1,0.9,0c0.4-0.1,0.6-0.4,0.9-0.7c0-0.1-0.1-0.2-0.1-0.3C85.3,40.8,84.6,41.3,84,40.7z
				 M116.5,40.2c-0.3,0.1-0.6,0.2-0.9,0.3c-0.2-0.4-0.7-0.7-1.2-0.6c-0.5,0.1-1.2,0.4-1.1,1c0.5-0.3,1.1-0.6,1.7-0.3
				c0,0.1,0.1,0.3,0.1,0.3c-0.2,0.3-0.6,0.6-0.5,1c0,0.3,0.5,0.4,0.7,0.2c0.4-0.3,0.4-0.8,0.5-1.2c0.5-0.3,1.1-0.5,1.7-0.6
				C117.1,40.2,116.8,40.1,116.5,40.2z M118.4,43.5c-0.2-0.1-0.5,0-0.7,0c0,0.1,0,0.3,0,0.4c0.2,0,0.3,0,0.5,0
				c0.1,0.2,0.2,0.5,0.3,0.7c-0.1,0.2-0.1,0.3-0.2,0.5c0.1,0,0.3,0,0.4,0C118.9,44.5,118.8,43.9,118.4,43.5z M76,44.5
				c-0.4,0-0.6,0.4-0.9,0.6c-0.2,0-0.3-0.1-0.5-0.1c-0.9,0.1-1.6,1.1-1.4,2c0.1,0,0.2,0,0.2,0c0-0.8,0.6-1.3,1.3-1.6
				c0,0.3,0,0.5,0,0.8c0.1,0,0.2,0,0.3,0c0.2-0.8,1-1.4,1.9-1.1c0,0.3,0,0.5-0.1,0.8c0.2,0,0.3-0.1,0.5-0.1c0-0.3,0.1-0.7-0.1-1
				C76.8,44.4,76.4,44.4,76,44.5z M65.8,48.3c0.6,0,1-0.4,1.5-0.7c0.3,0.2,0.5,0.5,0.9,0.5c0.7,0,1.2-0.5,1.6-1c0-0.2,0-0.3,0-0.5
				c-0.4,0.6-1,1-1.6,1.1c-0.2-0.1-0.7-0.3-0.5-0.6c0.1-0.4,0.5-0.9,0.2-1.3c-0.2-0.2-0.4,0-0.6,0c-0.3,0.4-0.3,1-0.3,1.5
				c-0.4,0.3-0.7,0.7-1.2,0.7c-0.6,0.1-1.1-0.4-1.2-1c-0.2-0.5,0-1.1,0.1-1.6c-0.2,0-0.3,0-0.5,0c-0.2,0.6-0.2,1.2-0.1,1.7
				C64.4,47.8,65.1,48.4,65.8,48.3z M129.2,50c0.4-0.8,1.2-1.4,2.1-1.6c0-0.1,0-0.2,0-0.3c-0.8,0-1.5,0.4-2.1,0.9
				c-0.3-0.2-0.5-0.5-0.9-0.5c-0.4-0.1-0.8,0.1-1.2,0.3c-0.3-0.3-0.5-0.7-1-0.7c-0.5,0-1,0.3-1.3,0.7c0,0.1,0,0.3,0,0.4
				c0.1,0,0.2,0,0.3,0c0.3-0.6,1.3-0.7,1.6-0.1c-0.1,0.3-0.3,0.6-0.3,1c0.1,0,0.3,0,0.4,0c0.3-0.2,0.3-0.6,0.4-0.9
				c0.4-0.1,0.8-0.4,1.2-0.2C128.9,49.2,128.7,49.9,129.2,50z M68.5,52.1c-0.5-0.4-1.1-0.3-1.7-0.1c-0.1-0.1-0.2-0.3-0.3-0.4
				c-0.6-0.1-1.3,0.2-1.3,0.9c0.1,0,0.2,0,0.3,0c0.3-0.3,0.6-0.5,1-0.4c0,0.4-0.1,0.8-0.1,1.3c0.2,0,0.3,0,0.5,0
				c0.1-0.3,0.1-0.5,0.2-0.8c0.3-0.3,0.7-0.2,1.1-0.2c0.1,0.1,0.1,0.3,0.2,0.4c0.1,0,0.3,0,0.4,0c0.2-0.3,0.3-0.6,0.5-0.9
				c0.1,0,0.3,0,0.4,0c0,0.1,0.1,0.2,0.1,0.4c0-0.2,0-0.3,0-0.5c-0.1-0.1-0.2-0.2-0.3-0.3C69.1,51.4,68.8,51.8,68.5,52.1z
				 M129.6,53.1c0.2-0.3,0.3-0.7,0.2-1.1c-0.4-0.2-0.8,0-1.1,0.2c0,0.1,0,0.3,0,0.4c0.2,0,0.4-0.1,0.6-0.1c-0.2,0.3-0.3,0.7-0.4,1
				c0.3,0.1,0.6,0.1,0.9,0.2c0.2,0.2,0.3,0.5,0.2,0.8c-0.2,0.4-0.6,0.7-1.1,0.9c0,0.1,0,0.2,0,0.2c0.9,0.1,1.9-0.7,1.6-1.7
				C130.4,53.5,130,53.3,129.6,53.1z M133.3,52.9c0.5-0.2,1-0.5,1.4-0.9c0.2-0.3,0.1-0.7,0.1-1c-0.1-0.1-0.2-0.2-0.3-0.3
				c0.1-0.2,0.2-0.5,0.3-0.7c0.1-0.3-0.2-0.7-0.6-0.7c-0.5,0-0.8,0.3-1.1,0.6c0,0.2,0,0.3,0,0.5c0.1,0,0.2,0,0.3,0
				c0-0.1,0-0.3,0-0.4c0.3-0.1,0.5-0.2,0.8-0.3c0,0.6-0.6,0.8-0.7,1.3c0.3,0,0.6,0,0.9,0c0,0.3,0.1,0.6-0.2,0.8
				c-0.4,0.5-1,0.8-1.6,0.9c-0.2,0-0.3,0-0.5-0.1c0,0.1,0,0.3-0.1,0.4C132.5,53.2,133,53.2,133.3,52.9z M64.4,59.3
				c-0.8,0-1.5-0.4-2.1-1c-0.7,0-1.3-0.4-1.7-1c-0.3-0.6-0.5-1.3-0.4-1.9c0.1,0.4,0.1,0.9,0.2,1.3c0.2,0.3,0.4,0.6,0.6,0.9
				c0.3,0.3,0.7,0.3,1,0.5c0-0.5-0.1-1,0.2-1.4c0.2-0.3,0.6-0.7,1-0.4c0.4,0.2,0.4,0.8,0.4,1.2c-0.1,0.4-0.5,0.6-0.8,0.8
				c0.3,0.4,0.8,0.7,1.4,0.8c0.4,0.1,0.8-0.3,1.2-0.4C65.2,58.9,64.9,59.2,64.4,59.3z M62.7,57.9c0.4-0.1,0.7-0.4,0.8-0.8
				c-0.1-0.2-0.2-0.4-0.3-0.6c-0.1,0-0.2,0-0.3,0L62.7,57.9z M132.9,60.2c0.4-0.5,0-1.3-0.5-1.6c0.2-0.3,0.5-0.7,0.3-1.2
				c-0.1,0-0.3-0.1-0.4-0.2c-0.3,0.1-0.5,0.3-0.7,0.5c0,0.2,0,0.3,0,0.5c0.2-0.2,0.4-0.3,0.5-0.4c0,0.6-0.7,0.8-0.7,1.3
				c0.3,0,0.5-0.1,0.8,0c0.2,0.3,0.4,0.7,0.1,1c-0.3,0.3-0.7,0.4-1.1,0.6c0,0.1,0,0.2,0,0.3C131.8,60.9,132.5,60.7,132.9,60.2z
				 M60,60.8c-0.5,0-0.9,0.5-1.4,0.4c-0.6,0-1.1-0.5-1.5-1c-0.7-0.8-2.2-0.4-2.5,0.7c0.1,0,0.2,0,0.3,0c0.4-0.5,1-0.8,1.6-0.6
				c0.5,0.3,0.8,0.9,1.4,1.1C58.7,61.6,59.5,61.3,60,60.8z M134.8,62.6c0.3-0.6,1-1,1.7-0.8c-0.1,0.4-0.2,0.7-0.4,1.1
				c0.5,0.1,0.9-0.6,1.4-0.2c0.2,0.4,0.2,0.8,0.2,1.2c0.1,0,0.2,0,0.3,0c0.1-0.5,0.2-1.1-0.2-1.6c-0.2-0.2-0.5-0.2-0.8-0.3
				c-0.1-0.2-0.1-0.4-0.1-0.6c-0.3-0.2-0.6-0.4-0.9-0.3c-0.7,0.2-1.2,0.7-1.4,1.4C134.6,62.6,134.7,62.6,134.8,62.6z M65.6,65.2
				c0.1-0.5,0.2-1,0.3-1.5c-0.2,0-0.3,0-0.5,0c-0.2,0.6-0.4,1.1-0.3,1.7c0.1,0.5,0.4,0.8,0.7,1.2c-0.2,0.6-0.9,1-1,1.7
				c-0.4,0.4-0.4,1.1,0.2,1.3c0-0.4-0.1-0.8,0-1.2c0.2-0.3,0.4-0.6,0.7-0.8c0.3-0.2,0.6-0.4,0.7-0.8C66.4,66.2,65.5,65.8,65.6,65.2z
				 M135,68.5c-0.3-0.3-0.6-0.7-1-0.9c0.1-0.4,0.4-0.8,0.4-1.2c0-0.3-0.3-0.4-0.4-0.5c0.1-0.4,0.3-0.8,0.1-1.2
				c-0.1-0.3-0.5-0.3-0.8-0.3c-0.5,0.1-0.8,0.5-1,0.8c0.5,0,0.9-0.4,1.4-0.3c-0.1,0.3-0.1,0.6-0.2,0.8c-0.2,0.2-0.4,0.5-0.5,0.7
				c0.1,0,0.2,0,0.3,0c0.2-0.1,0.4-0.2,0.7-0.3c0,0.6-0.4,1-0.3,1.6c0.4,0.4,0.8,0.8,1.2,1.2c0.7,0,1.4-0.3,2-0.7
				C136.2,68.2,135.6,68.7,135,68.5z M141.1,64.9c-0.3,0.2-0.7,0.4-1,0.4c-0.4,0-0.7-0.3-1.1-0.2c-0.7,0.2-1.2,0.8-2,0.8
				c0-0.1,0-0.3,0-0.4c-0.1,0-0.2,0-0.4,0.1c0,0.1,0,0.3,0,0.4c0.1,0.1,0.2,0.2,0.3,0.3c0.8,0.2,1.4-0.3,2.1-0.6
				c0.4,0,0.8,0.3,1.2,0.2c0.5-0.1,0.8-0.3,1.2-0.6c0-0.1,0-0.2,0-0.4C141.3,64.8,141.2,64.9,141.1,64.9z M59.6,65.5
				c-0.4,0.1-0.7,0.5-1.1,0.7c0.1-0.4,0.3-0.8,0.8-1c0.8-0.3,1.9-0.1,2.4,0.7c0.4-0.2,0.8-0.6,1.3-0.4c-0.4,0.2-0.8,0.5-1.2,0.9
				c0.1,0.7,0.2,1.4-0.1,2c-0.3,0.5-1.2,0.6-1.4-0.1c-0.1-0.8,0.5-1.5,1.1-2.1C61,65.6,60.2,65.4,59.6,65.5z M61.3,66.9
				c-0.3,0.4-0.7,0.9-0.5,1.5c0.2-0.1,0.5,0,0.6-0.2c0.2-0.4,0.1-0.8,0.2-1.3C61.5,66.8,61.4,66.9,61.3,66.9z M134.6,73.9
				c-0.5-0.2-0.9-0.6-1.2-1.1c0.2-0.3,0.4-0.7,0.6-1c0.2-0.3,0.1-0.6,0.1-0.8c-0.2,0-0.4,0-0.6,0c0.1,0.2,0.1,0.3,0.2,0.5
				c-0.3,0.5-0.8,1-0.6,1.7c0.2,0.4,0.6,0.7,1,1c0.7,0.4,1.5,0.3,2.3,0.1c0-0.1,0-0.2,0.1-0.2C135.8,74,135.1,74.1,134.6,73.9z
				 M63.6,75.5c-0.3-0.1-0.5-0.5-0.8-0.7c-0.2-0.2-0.5-0.2-0.7-0.2c-0.1-0.5,0-0.9-0.1-1.4c-0.1-0.2-0.1-0.5-0.4-0.5
				c-0.6-0.1-1,0.6-1.5,0.4c-0.6-0.4-0.2-1.2-0.2-1.8c-0.1,0-0.3,0-0.4,0.1c-0.2,0.7-0.3,1.6,0.3,2.1c0.6,0.5,1.3,0,1.8-0.2
				c0.1,0.5,0,0.9,0.1,1.4c0.1,0.4,0.5,0.4,0.8,0.5c0.2,0.3,0.5,0.7,0.8,0.8c0.3,0.1,0.6,0,0.8,0c0-0.1,0-0.2,0.1-0.4
				C64.1,75.5,63.8,75.6,63.6,75.5z M57.1,72.2c0,0.3,0.1,0.7,0,1c-0.1,0.3-0.4,0.6-0.6,0.8c-0.1,0-0.3,0-0.4,0c0,0.1,0,0.2,0,0.3
				c0.6,0,1.1-0.4,1.3-0.9c0.2-0.4,0.1-0.8,0-1.2C57.3,72.2,57.2,72.2,57.1,72.2z M132.4,78.1c0.1-0.6,0.6-1.1,0.8-1.7
				c-0.2,0-0.3,0-0.5,0c-0.3,0.5-0.9,1-0.9,1.7c0,0.6,0.5,1.1,1,1.4c0.4,0.3,0.9,0.2,1.3,0.1c0-0.1,0-0.2,0-0.3
				C133.4,79.3,132.7,78.9,132.4,78.1z M131.9,80.4c-0.1,0-0.2,0-0.4,0c-0.1,0.3-0.4,0.6-0.3,1c0,0.3,0.3,0.6,0.6,0.8
				c0.6,0.3,1.3,0.4,2,0.3c0-0.1,0-0.2,0.1-0.4c-0.8-0.1-1.5-0.3-2.2-0.7C131.7,81,131.8,80.7,131.9,80.4z"/>
			<path class="st18" d="M54.9,84.9c0.3-0.7,0.9-1.3,1.6-1.4c0.3-0.1,0.6,0.2,0.8,0.4c-0.4,0.3-0.9,0.2-1.2,0.5
				c-0.6,0.7-0.9,1.7-1,2.6c-0.2,2,0.2,4,1.1,5.9c1,1.9,2.4,3.6,4,5c0.2,0.2,0.3,0.4,0.4,0.6c-0.3,0-0.5-0.3-0.8-0.5
				c-1.5-1.2-2.8-2.7-3.8-4.3c-0.9-1.3-1.4-2.9-1.6-4.5C54.1,87.8,54.3,86.3,54.9,84.9z"/>
			<path class="st16" d="M113.3,84.1c0.4-0.2,1.1,0,1.2,0.4c0.2,0.6,0.1,1.2-0.1,1.7c-0.2,0.6-0.4,1.2-0.9,1.6
				c-0.5,0.4-1.3,0.2-1.5-0.3c-0.3-0.7-0.1-1.4,0.2-2C112.5,84.9,112.8,84.3,113.3,84.1z"/>
			<path class="st19" d="M103.3,91c-0.3-1.3-0.7-2.8-0.3-4.1c0.4,0.1,0.4,0.6,0.4,0.9c0.2,2,0.6,3.9,1.1,5.9
				c0.1,0.4,0.1,0.7,0.1,1.1c-0.1,0-0.2,0-0.3,0C104,93.5,103.6,92.3,103.3,91z"/>
			<path class="st20" d="M91.3,87.9c0.1-0.1,0.3-0.1,0.4,0c-0.1,0.3-0.4,0.5-0.6,0.7c-1.7,0.9-3.6,2-5.6,1.9c0-0.1,0-0.2,0-0.4
				C87.5,89.5,89.4,88.8,91.3,87.9z"/>
			<g>
				<path class="st21" d="M71,77.6c0,0.1,0,0.2,0,0.3c1.1,1.1,2.7,1.6,4.2,2.1c0.4,0.2,0.9,0.2,1.4,0c-0.2,0-0.4-0.1-0.6-0.1
					C74.2,79.3,72.5,78.6,71,77.6z"/>
				<path class="st21" d="M73.8,80.6c-1-0.1-2-0.3-3-0.1c0,0.1,0,0.2,0,0.3c1.6,0.3,3.2,0.3,4.8,0.1c0,0,0-0.1,0-0.1
					C75,80.7,74.4,80.6,73.8,80.6z"/>
				<path class="st21" d="M71.1,82.4c0,0.1,0,0.2,0,0.3c1.4,0,2.9-0.2,4.3-0.7c0-0.1,0-0.2,0-0.3C73.9,82.1,72.5,82.1,71.1,82.4z"/>
				<path class="st21" d="M120.3,85c0.1,0,0.2,0.1,0.3,0.1c0.9,0.2,1.9,0.1,2.8-0.2c1-0.3,2-0.6,3-1c0-0.1,0-0.2,0.1-0.2
					C124.5,84,122.5,84.8,120.3,85z"/>
				<path class="st21" d="M84.3,84.5c0-0.1,0-0.2,0-0.3c-0.4,0.1-0.8,0.2-1.2,0.4c-0.7,0-1.5,0.2-2.2,0.1c-0.9-0.1-1.7-0.5-2.5-1
					c0,0.1,0,0.3,0,0.4c0.8,0.6,1.8,1,2.8,1.1c0.9,0,1.9-0.2,2.8-0.5C83.9,84.6,84.1,84.5,84.3,84.5z"/>
				<path class="st21" d="M81.6,87.6c0.1,0.2,0.2,0.4,0.4,0.5c1,0.5,2.2,0.3,3.3,0c1.2-0.4,2.5-0.7,3.7-1.3c0-0.1,0-0.3,0-0.4
					c-1.6,0.5-3.2,1-4.9,1.3C83.2,87.7,82.4,87.6,81.6,87.6z"/>
				<path class="st21" d="M124.2,86.3c-1.1-0.2-2.3-0.1-3.5-0.2c0,0.1,0,0.3,0,0.4c1.2,0.3,2.5,0.3,3.7,0.3c0.5,0,1-0.1,1.5-0.2
					c0-0.1,0-0.2,0.1-0.3C125.4,86.3,124.8,86.3,124.2,86.3z"/>
				<path class="st21" d="M121.6,87.9c1,0.3,2.1,0.5,3.2,0.5c0-0.1,0-0.2,0-0.4c-1.4,0-2.8-0.6-4.1-0.8
					C120.7,87.7,121.2,87.8,121.6,87.9z"/>
				<path class="st21" d="M115.8,88.9c-1.1,0.2-2.3,0.3-3.4,0.2c-0.6,0-1.2-0.3-1.8-0.4c0.2,0.2,0.3,0.5,0.6,0.6
					c1,0.5,2.1,0.5,3.1,0.3c0.8-0.1,1.6-0.3,2.3-0.7C116.3,88.9,116.1,88.9,115.8,88.9z"/>
			</g>
			<path class="st18" d="M128.8,89.4c0.6,0,1.1,0.4,1.4,0.9c0.5,0.9,0.2,1.9-0.1,2.8c-0.8,2.1-2.2,3.9-3.5,5.7
				c-0.9,1.2-1.8,2.4-2.9,3.3c-0.1,0-0.2,0-0.2,0c0-0.1,0-0.2,0-0.2c0.7-0.7,1.3-1.5,1.9-2.3c1.5-2.1,3.1-4.3,4-6.8
				c0.2-0.6,0.5-1.4,0.2-2C129.4,90.2,128.9,89.9,128.8,89.4z"/>
			<path class="st22" d="M114.4,91.2c1.5-0.2,3-0.5,4.4-1.2c0,0.1,0,0.3,0,0.4c-0.7,0.6-1.6,0.9-2.5,1.1c-1.4,0.5-2.9,0.6-4.3,0
				c0-0.1,0-0.3,0.1-0.3C112.9,91.2,113.6,91.2,114.4,91.2z"/>
			<path class="st23" d="M100.1,97.3c0.7-0.3,1.5-0.3,2.1,0.2c0,0.2,0,0.3,0,0.5c-0.6,0.3-1.4,0.2-2,0
				C100.1,97.7,100.1,97.5,100.1,97.3z"/>
			<path class="st14" d="M92.7,111.4c1.5-0.6,3.2-0.5,4.8-0.5c1,0.1,1.9,0.1,2.9,0.2c1.1,0.2,2.2,0.3,3.3,0.6
				c0.8,0.3,1.6,0.5,2.3,0.9c0.8,0.4,1.5,1,2.2,1.5c0,0.1,0,0.3,0,0.4c-1-0.4-1.9-1-3-1.4c-1.1-0.4-2.1-0.8-3.3-0.9
				c-1.2-0.1-2.5-0.3-3.7-0.3c-1.4-0.1-2.9-0.2-4.3,0c-1.5,0.4-2.9,1.2-4.5,1.7c-0.2,0.1-0.5,0.1-0.7,0.1c0-0.1,0-0.2,0-0.3
				C89.9,112.6,91.3,112,92.7,111.4z"/>
			<path class="st24" d="M69.2,94.7c0.1,0,0.2-0.1,0.3-0.1c0.6,1.3,1.2,2.7,1.9,4c1,1.6,2.2,3.1,3.2,4.7c0.3,0.5,0.7,1,0.9,1.7
				c0,0.1-0.1,0.1-0.1,0.2c-0.7-1.1-1.5-2.2-2.3-3.3c-1.2-1.4-2.4-2.9-3.1-4.7c-0.3-0.8-0.6-1.6-0.6-2.5
				C69.4,94.7,69.3,94.7,69.2,94.7z"/>
			<path class="st24" d="M117.6,105.3c-1.6,2-3,4.1-4.1,6.4c0.1,0,0.3,0,0.4,0c1-1.6,2-3.1,3.2-4.5c0.9-1,1.7-2.2,2.4-3.4
				c0.1-0.2,0.1-0.5,0.1-0.7C118.8,103.7,118.2,104.5,117.6,105.3z"/>
			<path class="st24" d="M66.1,110c0,0.3,0.1,0.5,0.1,0.8c0.5,1.7,1.2,3.3,2.3,4.7c1.2,1.8,3.1,3,4.5,4.5c0.7,0.8,1.4,1.5,2.2,2.2
				c0,0.1,0.1,0.2,0.1,0.2c-0.3-0.8-1-1.4-1.5-2.1c-0.3-0.5-0.7-1-1.1-1.4c-1-1-1.9-2.1-2.8-3.1c-1.5-1.8-2.8-3.7-3.5-5.8
				C66.4,110,66.2,110,66.1,110z"/>
			<path class="st24" d="M95.4,116.1c0,0.1,0,0.3,0,0.4c1.9-0.2,3.8,0.1,5.7,0.3c0.4,0,0.9-0.1,1.3-0.1c-1.1-0.2-2.1-0.4-3.2-0.6
				C98,115.9,96.6,115.7,95.4,116.1z"/>
			<path class="st21" d="M66.9,117.6c0.2,1.4,1.3,2.4,2.3,3.3c1.1,0.9,2.2,1.9,3.2,3c1.2,1.1,2.2,2.4,3.2,3.6
				c0.3,0.5,0.7,0.9,1.1,1.4c0.4,0.5,0.9,1,1.1,1.6c0-0.1,0-0.2,0-0.3c-0.4-0.5-0.9-1.1-1.2-1.7c0,0-0.1,0-0.1,0
				c-0.2-0.5-0.7-0.9-1-1.4c-1.8-2.3-3.6-4.6-5.8-6.5c-0.8-0.6-1.5-1.3-2-2.2C67.4,118.1,67.3,117.7,66.9,117.6z"/>
			<path class="st21" d="M71.2,125.9c-0.1,0.5,0.2,0.9,0.5,1.3c1.6,2.3,3.8,4.1,5.9,5.9c1.8,1.6,3.7,3.1,5.6,4.5c0-0.1,0-0.2,0-0.3
				c-2-1.6-3.9-3.3-5.8-5C75.2,130.4,73,128.4,71.2,125.9z"/>
			<path class="st24" d="M81.5,127.2c0,0.1,0,0.2,0,0.3c0.9,1.1,2,2,3.2,2.8c1.7,1.3,3.6,2.2,5.6,3.1c0.7,0.2,1.4,0.6,2.1,0.4
				c-0.6-0.2-1.2-0.3-1.7-0.5c-1.5-0.6-2.9-1.4-4.2-2.3C84.7,129.8,83,128.5,81.5,127.2z"/>
			<path class="st21" d="M69.3,127.5c0,0.3,0,0.5,0.2,0.8c1.5,3,4.2,5.2,6.8,7.4c2.2,1.8,4.4,3.5,6.7,5.1c0.1,0,0.2,0,0.3,0
				c-0.1,0-0.2-0.1-0.4-0.1c-1.7-1.4-3.5-2.7-5.2-4.1c-2-1.7-4.1-3.5-5.9-5.4C70.8,130,70.1,128.7,69.3,127.5z"/>
			<path class="st21" d="M97,138.8c-0.2,1-0.5,2-1,2.9c-0.6,1.3-1.8,2.3-2.7,3.4c-1.3,1.6-2.5,3.3-3.2,5.2c0.1,0,0.3,0,0.4,0
				c1.1-2.1,2.5-4,4.2-5.7c0.8-0.9,1.7-1.8,2.1-3c0.3-0.9,0.6-1.9,0.5-3C97.2,138.7,97.1,138.7,97,138.8z"/>
			<path class="st21" d="M78.8,140.8c0.2,0.6,0.4,1.2,0.6,1.7c0.4,1.4,0.8,2.7,1.3,4.1c0.8,2.1,2.1,3.9,3.3,5.7
				c0.1,0.1,0.2,0.1,0.4,0.2c-0.1-0.3-0.2-0.7-0.4-0.9c-0.8-1.3-1.6-2.7-2.2-4.1c-1-2.2-1.4-4.6-2.6-6.7
				C79.1,140.8,78.9,140.8,78.8,140.8z"/>
			<path class="st25" d="M46.1,126.1c1.2,0.5,2.3,1.2,3.4,2c1.2,0.8,2.5,1.6,3.7,2.5c0.3,0.2,0.6,0.4,0.6,0.8
				c-1.4-1-2.9-1.8-4.4-2.7c-1.2-0.7-2.4-1.4-3.6-2.2C45.6,126.3,45.9,125.9,46.1,126.1z M56.1,124.7c0,0.1,0.1,0.2,0.2,0.3
				c0-0.1,0-0.2,0.1-0.3c-0.5-0.9-1.3-1.6-2.1-2.3c-1.2-1-2.4-2-3.9-2.5c0,0.1,0,0.2,0,0.4c1.1,0.6,2.2,1.3,3.2,2.1
				C54.5,123.1,55.4,123.8,56.1,124.7z M54,127c0.2,0.2,0.3,0.3,0.5,0.5c0,0.1,0.1,0.2,0.2,0.3c0,0,0,0.1,0,0.1
				c0.1,0.1,0.2,0.2,0.2,0.3c0-0.2,0.1-0.4,0-0.6c-0.4-0.8-1.2-1.4-1.9-1.9c-1.6-1.2-3.3-2.1-5-3c-0.2-0.1-0.5-0.1-0.7-0.2
				c0,0.1,0,0.2,0,0.3C49.6,124.2,52,125.2,54,127z M49.1,132.5c-1-0.7-2.1-1.3-3.3-1.5c0,0.1,0,0.3,0,0.4c1,0.7,2.1,1.1,3.1,1.8
				c1.2,0.8,2.5,1.6,3.4,2.8c0.1,0,0.2,0,0.2,0c0-0.1,0-0.2,0-0.3c-0.2-0.2-0.3-0.4-0.5-0.7C51.3,134,50.2,133.2,49.1,132.5z
				 M44.3,136.7c1.5,0.7,3.1,1.3,4.5,2.4c0.1,0.1,0.2,0.2,0.4,0.3c0.2,0.2,0.5,0.4,0.7,0.7l0.1,0c0,0.1,0,0.2,0,0.3
				c0.1,0,0.3-0.1,0.4-0.1c-0.1,0-0.2-0.1-0.3-0.1c0-0.1,0-0.2,0.1-0.2l-0.2,0l0.1-0.2c0,0-0.1,0-0.2,0l0.1-0.1l-0.1,0l0-0.1
				l-0.1,0.1l0.1-0.2l-0.2,0l0-0.1l-0.1,0c-0.7-0.7-1.5-1.2-2.3-1.7c-1.6-1-3.5-1.5-5.1-2.7c-0.1,0-0.3,0.1-0.4,0.1
				C42.2,135.8,43.3,136.2,44.3,136.7z M41.3,138.8c1.8,0.9,3.6,1.7,5.1,3.1c0.8,0.6,1.6,1.2,2.4,1.7c0.5,0.3,0.8,0.8,1.3,1.1l0,0.1
				c0.1,0,0.3-0.1,0.4-0.1c-0.1,0-0.2-0.1-0.3-0.1l0.1-0.1l-0.1,0c-0.8-1.1-1.8-1.9-2.8-2.7c-0.6-0.4-1.1-1-1.8-1.4
				c-1.6-1-3.3-1.8-5-2.5c-0.4-0.2-0.8-0.4-1.2-0.3C39.7,138.2,40.6,138.4,41.3,138.8z M110,138.9c0.2,0,0.4,0,0.5-0.1
				c0.8-0.7,1.6-1.3,2.5-2c1.3-0.9,2.7-1.8,4.1-2.6c0.3-0.2,0.7-0.4,0.9-0.7c-0.2,0-0.3-0.1-0.5,0c-2,1-4.1,2.2-5.9,3.5
				C111,137.5,110.2,138.1,110,138.9z M110.9,134.7c1.5-1.4,3.2-2.6,5-3.6c0-0.1,0-0.2,0-0.3c-0.1,0-0.2,0-0.3,0
				c-1.6,0.8-3.2,1.7-4.6,2.9c-0.8,0.7-1.5,1.5-1.9,2.4c0.1,0,0.2,0,0.3,0C109.9,135.7,110.4,135.2,110.9,134.7z M110,143.2
				c0,0.1,0,0.2,0,0.2c0.1,0,0.2,0,0.2,0c2.2-1.7,4.4-3.4,6.8-4.7c0.8-0.5,1.6-0.8,2.4-1.3c0-0.1,0-0.2,0-0.3
				c-0.1,0-0.3,0.1-0.4,0.1c-2.3,1-4.6,2.2-6.6,3.7C111.6,141.7,110.7,142.3,110,143.2z M110.7,146.6c3.9-3.1,8.1-5.7,12.4-8
				c0.5-0.2,1-0.5,1.5-0.8c0-0.1,0-0.2,0-0.3c-0.6,0.1-1.2,0.5-1.7,0.7c-2.2,1.1-4.3,2.3-6.4,3.5c-1.9,1.1-3.7,2.4-5.4,3.8
				c-1,0.8-2,1.6-2.7,2.7c0.1,0,0.2,0,0.3,0C109.4,147.6,110,147.1,110.7,146.6z M59.9,118.2c0-0.2,0.1-0.5-0.1-0.7
				c-0.3-0.6-0.8-1.1-1.2-1.5c-0.4-0.4-0.7-0.8-1.2-0.9c0,0.1,0,0.2,0,0.3c0.6,0.5,1.1,1,1.7,1.6C59.4,117.2,59.6,117.7,59.9,118.2z
				 M58.3,121.2c0.1,0,0.2-0.1,0.3-0.1c0,0-0.1-0.1-0.2-0.1c-0.3-0.7-0.9-1.3-1.4-1.8c-0.9-0.9-1.9-1.8-3.1-2.3c0,0.1,0,0.2,0,0.3
				C55.5,118.4,57.1,119.7,58.3,121.2z M33.8,155c0,0.2,0.1,0.4,0.2,0.5c0.5,0.6,1.1,1.2,1.6,1.8c0.8,0.9,1.8,1.6,2.8,2.3
				c2,1.4,4.1,2.6,6.3,3.6c2.5,1.2,5.2,1.9,7.9,2.4c1.4,0.2,2.8,0.6,4.2,0.8c2,0.3,4,0.6,6,0.9c1,0.1,1.9,0.3,2.8,0.6
				c1.6,0.5,3.2,1,4.8,1.7c0.7,0.3,1.3,0.7,2,1.1c1.4,0.9,2.8,2,4.3,2.7c0.9,0.5,1.9,1,2.9,1.4l0,0c0.4,0.2,0.8,0.3,1.3,0.5
				c0-0.1,0-0.3,0-0.3c-0.5-0.3-1-0.5-1.5-0.8c-2.1-1.2-4.1-2.5-6.2-3.8c-0.7-0.5-1.4-0.8-2.1-1.2c-1.5-0.8-3.1-1.2-4.7-1.8
				c-2.6-0.9-5.3-1.1-8-1.6c-1.9-0.2-3.7-0.8-5.6-1.1c-2.4-0.5-4.7-1.1-6.9-2c-2.2-0.9-4.3-2.2-6.4-3.4c-0.7-0.4-1.4-0.9-2.1-1.5
				c-1.2-0.9-2.2-2-3.3-3C34,155,33.8,155,33.8,155z M128.7,136.6c0,0.6-0.4,1.1-0.7,1.6c-1,1.4-2.3,2.6-3.7,3.6
				c-2.4,1.8-4.9,3.3-7.3,5c-1.9,1.4-3.7,2.9-5.3,4.6c-0.3,0.4-0.7,0.8-1,1.1c0.1,0.1,0.2,0.2,0.2,0.3c0.3-0.4,0.7-0.8,1-1.1
				c1.4-1.4,3-2.6,4.6-3.8c1.3-0.8,2.6-1.6,3.8-2.4c1.4-0.9,2.8-1.7,4.1-2.6c1.6-1.2,3.2-2.4,4.2-4.1c0.4-0.7,0.8-1.5,0.5-2.2
				C129,136.6,128.8,136.6,128.7,136.6z M114.6,189.7c-0.5,0.2-1.1,0.4-1.6,0.6c-2.2,0.7-4.4,1.5-6.4,2.6c-1.9,1.1-4.1,1.8-5.7,3.4
				l-0.1,0l0,0.3c0.6-0.1,1.2-0.5,1.7-0.8c1.2-0.7,2.4-1.2,3.7-1.8c1.4-0.7,2.7-1.5,4.1-2.1c0.9-0.4,1.8-0.8,2.7-1.2
				c0.6-0.1,1.1-0.4,1.5-0.7C114.6,189.9,114.6,189.8,114.6,189.7z M123.5,194c-0.6,0.6-1.4,0.9-2.1,1.4c-1.5,0.9-3.1,1.7-4.7,2.5
				c-1.1,0.5-2.2,1-3.4,1.2c0,0.1,0,0.2,0,0.3c0.9,0.1,1.8-0.1,2.6-0.4c1.2-0.4,2.3-0.9,3.4-1.4c1.4-0.6,2.6-1.5,3.8-2.5
				c0.3-0.3,0.8-0.6,0.7-1.2C123.7,194,123.6,194,123.5,194z M133.6,191.9c-0.5-1.5-1.2-2.9-1.4-4.4c-0.1,0-0.2,0-0.3,0l0,0.1
				l-0.2,0c-0.1,1.2,0.3,2.4,0.7,3.6c0.5,1.8,0.9,3.6,1.3,5.5c0.5,2.5,0.8,5,1,7.5c0,1.1,0.2,2.1,0.1,3.2c-0.1,0.8-0.1,1.7-0.2,2.5
				c0,0.2-0.2,0.4-0.3,0.6c0.1,0.1,0.2,0.1,0.3,0.3c0,0,0-0.1,0-0.2c0.4-0.2,0.5-0.7,0.6-1.2c0.2-1.3,0.4-2.5,0.5-3.8
				c0.1-2.1-0.1-4.2-0.4-6.2C134.9,196.8,134.3,194.3,133.6,191.9z M141.7,197.9c-0.1,0-0.2,0-0.4,0c-0.1,0.7,0.1,1.5,0,2.2
				c-0.1,2.4-0.4,4.8-1.1,7.1c-0.1,0.3-0.3,0.6-0.5,0.9c0,0.1,0,0.3,0,0.4c0.3,0,0.6-0.2,0.7-0.5c0.4-0.5,0.5-1.2,0.7-1.8
				c0.4-1.4,0.7-2.8,0.8-4.3C142.1,200.6,142.2,199.2,141.7,197.9z M137.5,192.2c0-0.3-0.1-0.5-0.2-0.8c-0.1,0-0.3,0-0.4,0
				c0,0.3,0,0.7,0.1,1c0.1,0.9,0.3,1.8,0.5,2.6c0.3,1.3,0.4,2.5,0.5,3.8c0,1.1,0,2.2,0,3.3c-0.1,1.6-0.3,3.2-0.6,4.8
				c-0.1,0.5-0.2,1.1-0.4,1.5c0,0.1,0,0.3,0,0.3c0.5,0,0.6-0.5,0.8-0.9c0.4-1.3,0.7-2.6,0.9-3.9c0.5-3,0.4-6.1-0.3-9.1
				C138.1,194,137.8,193.1,137.5,192.2z M36,205.5c-0.8-2-1.8-3.9-3-5.6c-1.6-2.2-3.5-4.3-5.3-6.4c0,0.2-0.1,0.4,0.1,0.6
				c0.4,0.6,0.9,1.2,1.3,1.8c0.8,1,1.6,2.1,2.4,3.1c1.6,2.2,2.9,4.7,3.9,7.3c1,2.5,1.8,5.1,2.2,7.8c0,0.2,0,0.5,0.3,0.5l0-0.2l0.2,0
				c0.1-1.3-0.2-2.5-0.4-3.8C37.4,208.9,36.7,207.2,36,205.5z M41.9,200.9c-0.9-2.2-2.2-4.2-3.6-6.2c-1.5-1.9-3-3.9-4.5-5.8
				c-1.3-1.7-2.8-3.2-3.8-5.1c-0.3-0.6-0.7-1.1-1.1-1.7c-0.1,0.7,0.4,1.3,0.7,2c0.8,1.6,1.9,3,3,4.4c1.5,1.9,2.9,3.9,4.4,5.9
				c1.7,2.1,3.1,4.4,4.2,6.9c1,2.4,2,4.8,2.3,7.4c0.1,1.3,0.2,2.5,0.2,3.8c0,0.1-0.1,0.3-0.2,0.4c0.4,0.1,0.6-0.4,0.6-0.7
				c0-0.9,0-1.8,0-2.7C44,206.5,43,203.7,41.9,200.9z M38.6,204.6c0-0.2,0-0.4-0.1-0.6c-0.6-1.3-1.1-2.7-1.8-4
				c-1.9-4.1-4.7-7.8-7.8-11.1c-1.8-1.9-3.8-3.7-5.5-5.7c-1.6-1.8-3.1-3.6-4-5.8c-0.1-0.2-0.2-0.4-0.2-0.6c-0.1,0-0.2,0-0.3,0
				c0,0.3,0.1,0.7,0.2,1c0.5,1.6,1.4,3,2.4,4.3c1.4,1.7,2.9,3.4,4.5,5c2,1.9,4,4,5.7,6.2c2.8,3.6,5.1,7.6,6.8,11.9
				c0,0.1,0.1,0.2,0.1,0.3c0.3,0.8,0.5,1.6,0.8,2.5c0.1,0,0.2,0,0.3,0c-0.2-1.2-0.5-2.4-1-3.5L38.6,204.6z M77,205.9
				c-1.8-0.3-3.6-0.5-5.4-0.8c-2.4-0.5-4.7-1.4-6.9-2.5c-1.5-0.7-3-1.1-4.6-1.5c-0.3-0.1-0.6,0-0.9,0.1c0,0.1,0,0.2,0,0.4
				c0.7,0,1.3,0.3,1.9,0.4c1.1,0.3,2.2,0.8,3.3,1.3c2.1,1.1,4.3,2.1,6.7,2.4c1.6,0.2,3.3,0.4,4.9,0.6c1.4,0.2,2.7,0.3,4.1,0.5
				c0-0.1,0-0.3,0-0.4c-0.5-0.1-1-0.2-1.5-0.2C78.1,206,77.6,206,77,205.9z M103.6,161c1.8-1.7,3.7-3.4,5.8-4.9
				c1.7-1.3,3.4-2.7,5.1-3.9c0.5-0.4,1.3-0.6,1.6-1.2c0.2-0.4,0.5-0.6,0.8-0.9c-0.6,0.3-1.2,0.6-1.8,0.8c-0.9,0.4-1.7,1-2.5,1.6
				c-1.2,0.8-2.2,1.7-3.4,2.6c-1.9,1.4-3.8,2.9-5.5,4.6c-1.6,1.5-3.2,2.9-4.6,4.6c-1.4,1.6-2.7,3.4-3.9,5.2c-0.7,1.1-1.3,2.3-2,3.5
				c-0.8,1.4-1.8,2.7-2.7,4.1c-0.5,0.8-1.1,1.6-1.6,2.4c-0.2-0.5-0.3-1-0.5-1.5c-0.2-0.9-0.4-1.7-0.8-2.5c-0.1-0.1-0.1-0.2-0.2-0.4
				c-0.1-0.2-0.1-0.3-0.2-0.5c0,0.2,0,0.3,0,0.5l0.1,0c0,0.1,0,0.3,0,0.4h0.1c0.1,0.7,0.4,1.5,0.5,2.2c-1.4,0.2-2.8,0.4-4.2,0.4
				c-1.7,0-3.4-0.1-5-0.6c-1.3-0.3-2.7-0.5-3.9-1.1c-1.1-0.6-2.2-1.1-3.3-1.7c-0.8-0.5-1.6-1.1-2.3-1.6c-2.2-1.5-4.8-2.6-7.4-3.3
				c-2.2-0.6-4.5-1-6.8-1.6c-1.7-0.5-3.4-0.8-5-1.4c-1.2-0.4-2.5-0.7-3.7-1.1c-1.4-0.5-2.8-0.8-4.1-1.5c-2-1-4-1.9-5.9-2.9
				c-2-1.1-3.7-2.7-5.4-4.2c-0.6-0.4-0.4-1.2-0.2-1.8c0.4-1.1,0.9-2.2,1.4-3.3c0.9-2.4,1.6-4.8,2.1-7.3c0.1-0.4,0.2-0.8,0.2-1.2
				c-0.1,0-0.2,0-0.3-0.1c-0.2,0.5-0.3,1-0.4,1.5c-0.6,2.3-1.3,4.5-2.1,6.7c-0.4,1.2-1,2.4-1.5,3.5c-0.2,0.7-0.5,1.5,0,2.2
				c0.7,0.8,1.5,1.4,2.3,2.1c1.6,1.4,3.5,2.6,5.5,3.5c1.4,0.7,2.9,1.4,4.3,2.1c1.2,0.6,2.5,0.9,3.8,1.3c1.2,0.4,2.5,0.6,3.7,1.1
				c1.8,0.7,3.6,1.1,5.4,1.6c2.3,0.6,4.6,1,6.8,1.7c2.5,0.7,5,1.8,7.1,3.4c0.7,0.5,1.3,1,2,1.4c1.2,0.7,2.7,1.1,3.9,1.8
				c0.6,0.2,1.3,0.4,1.9,0.5c1.3,0.3,2.5,0.7,3.8,0.8c1.4,0.2,2.7,0.1,4.1,0.1c1-0.1,2-0.2,3.1-0.4c0.2,0.6,0.3,1.3,0.6,1.9
				c0.2,0.2,0.5,0.1,0.6-0.1c1.7-2.7,3.7-5.2,5.2-8c1.3-2.4,2.9-4.7,4.7-6.8C100.6,163.8,102.1,162.4,103.6,161z M114.7,161.8
				c0.2-0.2,0.4-0.3,0.7-0.5c0-0.1,0-0.2,0-0.4c-0.4,0-0.8,0.4-1.1,0.6c-2.3,1.3-4.7,2.3-7.2,3.3c-2.6,1.1-5,2.6-7,4.6
				c-0.6,0.7-1.2,1.4-1.5,2.3c0.2,0,0.3,0,0.5,0c0.9-1,1.8-1.9,2.9-2.7C105.9,166,110.7,164.7,114.7,161.8z"/>
		</g>
	</g>
</g>
</svg>
