<?xml version="1.0" encoding="utf-8"?>
<!-- Generator: Adobe Illustrator 25.2.0, SVG Export Plug-In . SVG Version: 6.00 Build 0)  -->
<svg version="1.1" id="Layer_1" xmlns="http://www.w3.org/2000/svg" xmlns:xlink="http://www.w3.org/1999/xlink" x="0px" y="0px"
	 viewBox="0 0 180 180" style="enable-background:new 0 0 180 180;" xml:space="preserve">
<style type="text/css">
	.st0{clip-path:url(#SVGID_2_);}
	.st1{fill:#C9D9C1;}
	.st2{fill:#BFAE67;}
	.st3{fill:#BC983C;}
	.st4{fill:#C0AE65;}
	.st5{fill:#DFAF33;}
	.st6{fill:#9D7C35;}
	.st7{fill:#4E3E37;}
	.st8{fill:#9B7A35;}
	.st9{fill:#B0A268;}
	.st10{fill:#A07E35;}
	.st11{fill:#757166;}
	.st12{fill:#BEAB63;}
	.st13{fill:#DEAE33;}
	.st14{fill:#828E7D;}
	.st15{fill:#F2844F;}
	.st16{fill:#E56324;}
	.st17{fill:#FCB491;}
	.st18{fill:#B65A35;}
	.st19{fill:#B95D38;}
	.st20{fill:#B9623F;}
	.st21{fill:#150F0C;}
	.st22{fill:#FCB694;}
	.st23{fill:#B75C38;}
	.st24{fill:#FCAF8C;}
	.st25{fill:#F95939;}
	.st26{fill:#FA8069;}
	.st27{fill:#FFFFFF;}
	.st28{fill:#FB9C8A;}
	.st29{fill:#FCA986;}
	.st30{fill:#A23C28;}
	.st31{fill:#FB9C7A;}
	.st32{fill:#FB8D78;}
	.st33{fill:#FA7B63;}
	.st34{fill:#BD6A49;}
	.st35{fill:#B85E3A;}
	.st36{fill:#FCBC9E;}
	.st37{fill:#BB9533;}
</style>
<g>
	<defs>
		<rect id="SVGID_1_" width="180" height="180"/>
	</defs>
	<use xlink:href="#SVGID_1_"  style="overflow:visible;fill:#1B6ADD;"/>
	<clipPath id="SVGID_2_">
		<use xlink:href="#SVGID_1_"  style="overflow:visible;"/>
	</clipPath>
	<g class="st0">
		<g>
			<path class="st1" d="M88.3,28.3c2.2-0.9,4.4-1.8,6.8-1.9c1.8,0,3.6,0,5.4,0c1.7,0.2,3.4,0.5,5,1c2.5,0.7,4.9,1.8,7.2,3
				c1,0.6,1.9,1.2,2.8,2c2.6,2.4,4.9,5.1,7,8c2.2,2.9,4.1,5.9,5.7,9.2c0.7,1.4,1.3,2.9,2,4.3c0.8,1.7,1.6,3.5,2.2,5.3
				c0.9,2.5,1.5,5.1,2.3,7.6c0.8,2.6,1.2,5.3,1.4,8c0.4,3.2,0.2,6.5,0.2,9.7c0,3.1-0.1,6.1-0.4,9.2c0,1.4-0.2,2.8-0.3,4.2
				c-0.1,2.5-0.3,5-0.3,7.5c0,1.7,0,3.4,0,5.1c0.1,1.6,0.2,3.2,0.5,4.7c0.3,1.5,0.6,2.9,1.1,4.4c0.9,2.5,1.9,4.9,2.8,7.4
				c0.4,1.2,0.9,2.3,1.1,3.5c0.3,1.5,0.7,2.9,0.9,4.4c0.3,1.8,0.4,3.7,0.4,5.5c0,2-0.1,4.1-0.3,6.1c-0.1,1.2-0.4,2.3-0.6,3.4
				c-0.2,1.3-0.6,2.4-0.9,3.7c-0.4,1.5-0.9,2.9-1.3,4.3l0,0.1c-0.4,0.5-0.5,1.2-0.7,1.8c-0.9,2.4-1.8,4.9-2.5,7.3
				c-0.7,2.2-1.1,4.6-1,6.9c0,1,0.1,1.9,0.3,2.9c-0.1,1.5,0.2,3,0.1,4.4c-0.1,1.6-0.1,3.2-0.3,4.8c-0.3,2.2-0.7,4.4-1.4,6.5
				c-0.5,1.5-1.3,2.9-2,4.3c-0.8,1.6-1.9,3.1-2.7,4.8c-1.2,1.6-1.7,3.6-2.2,5.6c-0.7,3-0.6,6.1-0.9,9.2c-0.4,3.1-1.5,6.2-3.5,8.6
				c-0.6,0.7-1.4,1.4-2.3,1.7c-0.9,0.3-1.8,0.7-2.7,0.7c-2.8,0.2-5.5-1.4-6.8-3.8c-0.7-1.5-1.1-3.1-1.3-4.8c-0.1-1.2,0-2.5,0.2-3.7
				c0.2-1.6,0.6-3.1,0.9-4.7c0.1-0.6,0.3-1.3,0.5-1.9c0.5-1.3,0.9-2.7,1.2-4c0.3-1.3,0.5-2.7,0.6-4.1c0.1-1.3,0.1-2.6-0.1-4
				c-0.2-1.3-0.4-2.6-0.9-3.8c-0.9-2.1-1.8-4.2-3.2-6.1c-0.8-1.1-1.1-2.4-1.6-3.5c-1-2.4-1-5.1-0.7-7.7c0.1-1.1,0.4-2.2,0.7-3.3
				c0.3-1.4,0.9-2.8,1.3-4.2c0.7-2.2,1.9-4.2,2.9-6.3c0.9-1.9,1.7-3.9,2.1-6c0.3-1.5,0-3.1-0.2-4.6c0-0.4-0.2-0.7-0.4-1
				c-0.3,0.4-0.5,0.7-0.8,1.1c-0.7-0.8-1.3-1.7-2-2.4c-0.9-0.9-1.5-2.1-2.7-2.6c-0.9-0.4-1.8-1.1-2.9-1c-0.8,0.1-1.6,0.3-2.4,0.4
				c-1.3,0.2-2.6,0.3-4,0.3c-1.9,0.1-3.8-0.2-5.7-0.3c-2.6,0-5.3-0.3-7.9-0.8c-1.3-0.2-2.5-0.5-3.8-0.7c-0.1,0.3-0.1,0.6-0.2,0.9
				c-0.5,1.2-1.1,2.4-1.5,3.7c-0.4,0.9-0.6,1.9-0.9,2.9c-0.6,1.2-0.7,2.5-1.1,3.8c-0.2,0.8-0.3,1.6-0.5,2.3c-0.1,0.4-0.1,0.9,0,1.3
				c0.3,1.5,0.6,3,1.3,4.5c0.4,1,0.8,2,1.1,3.1c0.2,0.9,0.3,1.8,1,2.5c0.2,0.2,0.4,0.4,0.6,0.6c0.8,1.9,1.7,3.8,2.4,5.7
				c0.9,2.6,1.7,5.3,1.9,8.1c0.1,1.4-0.1,2.7-0.1,4.1c-0.1,1.9-0.2,3.7-0.5,5.6c-0.4,2.4-1.2,4.7-1.7,7.1c-0.3,1.2-0.8,2.4-1.2,3.6
				c-0.4,1.2-0.8,2.3-1.2,3.5c-0.2,0.8-0.6,1.6-1,2.3c-0.7,1.3-1.1,2.8-1.7,4.2c-0.9,2.1-1.2,4.5-0.9,6.8c0.2,1.6,0.6,3.2,1,4.8
				c0.3,1.1,0.6,2.3,0.3,3.5c-0.2,0.8-0.6,1.7-1.3,2.2c-1,0.6-2.2,0.6-3.3,0.4c-2.4-0.7-4.6-2-6.2-3.9c-0.8-1-1.5-2-1.9-3.2
				c-0.4-1.1-0.8-2.2-1.1-3.4c-0.4-2.1-0.5-4.2-0.9-6.2c-0.5-2.9-1.1-5.8-2.1-8.6c-1.1-3-2.4-6-4.3-8.5c-0.7-1-1.5-1.8-2.1-2.9
				c-1.1-2.1-1.6-4.4-1.9-6.7c-0.4-4.5,0.6-9.1,0.6-13.6c0-1.2,0-2.3-0.2-3.5c-0.2-1.4-0.6-2.8-1-4.2c-0.3-1.1-0.7-2.2-1.3-3.2
				c-0.5-0.9-1-1.8-1.6-2.7c-0.7-1.1-1.4-2.1-2-3.2c-0.2-0.3-0.4-0.5-0.7-0.7c-1.3-2.5-2.9-4.9-3.9-7.7c-0.5-1.2-0.8-2.5-1.1-3.8
				c-0.7-3.1-0.8-6.2-0.7-9.4c0.2-2.4,0.4-4.8,0.9-7.2c0.5-2.4,1-4.9,1.5-7.3c0.5-2.4,1.1-4.8,1.6-7.3c0.4-1.9,0.7-3.8,1-5.8
				c0.2-1.3,0.2-2.7,0.4-4c0-1.8,0-3.6,0-5.4c0-1.6-0.3-3.2-0.3-4.7c-0.2-3.2-0.6-6.3-0.8-9.5c-0.1-1.2,0-2.5-0.2-3.7
				c0-1.9,0-3.8,0-5.6c0.2-4.4,0.4-8.8,1.5-13.1c0.2-0.5,0.4-1.1,0.4-1.7c0.1-0.9,0.5-1.8,0.8-2.6c1.6-4.7,4.1-9.2,7.8-12.5
				c1.5-1.5,3.3-2.7,5.1-3.7c1-0.6,2-1,3.1-1.4c0.5-0.2,1-0.3,1.5-0.6c1.1-0.6,2.3-1.2,3.5-1.7c1.3-0.6,2.7-1.1,4.1-1.4
				c1.3-0.3,2.7-0.1,4-0.2c0.7-0.9,1.5-1.8,2.4-2.6c1.5-1.6,3.5-2.7,5.3-3.7C85.4,29.7,86.8,28.9,88.3,28.3z"/>
			<path class="st2" d="M80.2,144.2c1.3,0.2,2.5,0.5,3.8,0.7c2.6,0.5,5.2,0.8,7.9,0.8c1.9,0.1,3.8,0.3,5.7,0.3c1.3,0,2.7-0.1,4-0.3
				c0.8-0.1,1.6-0.3,2.4-0.4c1.1-0.2,2,0.6,2.9,1c1.2,0.5,1.8,1.7,2.7,2.6c0.7,0.8,1.3,1.6,2,2.4c-0.1,0.1-0.1,0.2-0.2,0.3
				c-0.6-1-1.3-1.8-2.1-2.7c-0.8-0.9-1.4-1.9-2.5-2.5c-0.6-0.3-1.2-0.6-1.8-0.9c-0.4-0.2-0.8-0.1-1.1,0c-2.8,0.7-5.6,0.9-8.4,0.7
				c-1.1-0.1-2.1-0.2-3.2-0.2c-1.6,0-3.2-0.2-4.9-0.4c-1.8-0.2-3.5-0.6-5.2-0.9c-0.6-0.1-1.1-0.2-1.7-0.4c-0.1,0.2-0.3,0.4-0.4,0.7
				C80.1,144.8,80.1,144.5,80.2,144.2z"/>
			<path class="st3" d="M112.3,150.3c0.2,0.3,0.4,0.6,0.4,1c0.1,1.5,0.5,3.1,0.2,4.6c-0.4,2.1-1.1,4.1-2.1,6c-1,2.1-2.2,4.1-2.9,6.3
				c-0.5,1.4-1.1,2.7-1.3,4.2c-0.2,1.1-0.6,2.2-0.7,3.3c-0.3,2.6-0.3,5.2,0.7,7.7c0.5,1.2,0.8,2.5,1.6,3.5c1.3,1.9,2.3,4,3.2,6.1
				c0.5,1.2,0.8,2.5,0.9,3.8c0.1,1.3,0.2,2.6,0.1,4c-0.1,1.4-0.3,2.8-0.6,4.1c-0.3,1.4-0.7,2.7-1.2,4c-0.2,0.6-0.4,1.2-0.5,1.9
				c-0.3,1.6-0.7,3.1-0.9,4.7c-0.1,1.2-0.3,2.4-0.2,3.7c0.2,1.6,0.5,3.3,1.3,4.8c1.3,2.4,4,4,6.8,3.8c1,0,1.9-0.3,2.7-0.7
				c0,0.1,0.1,0.2,0.1,0.3c-0.6,0.4-1.1,0.9-1.7,1.3c-0.8,0.5-1.7,0.4-2.5,0.3c-1.1-0.1-2.3-0.3-3.2-0.9c-0.7-0.5-1.4-1-2.1-1.5
				c-0.9-0.8-1.6-1.8-2.1-2.9c-0.6-1.4-1.2-2.8-1.5-4.3c-0.5-2.5-0.1-5,0.1-7.5c0.1-2.9,1-5.7,1.4-8.5c0.1-1.3,0.4-2.7,0.4-4
				c0-2-0.8-3.8-1.8-5.5c-0.6-1-1.4-2-2-3c-0.5-0.9-1-1.8-1.5-2.8c-0.6-1.2-1-2.4-1.4-3.7c-0.9-2.7-1-5.6-0.8-8.4
				c0.1-2.3,0.6-4.6,1.3-6.8c0.4-1.3,1-2.5,1.3-3.8c0.4-2.5,0.1-5.1-0.8-7.5c-0.1-0.4-0.3-0.8-0.2-1.2c0.8-0.3,1.6-0.5,2.4-0.8
				c1.2-0.4,2.3-1.1,3.4-1.8c1-0.7,2.1-1.3,2.7-2.3c0.1-0.1,0.1-0.2,0.2-0.3C111.8,151,112.1,150.6,112.3,150.3z"/>
			<path class="st3" d="M77.6,151.6c0.2,0,0.4,0,0.7,0c0.5,1,1.4,1.8,2.2,2.7c0.4,0.5,0.9,0.9,1.1,1.5c0.1,0.6-0.2,1.2-0.4,1.7
				c-0.5,1.3-0.9,2.7-1.3,4.1c-0.4,1.4-0.5,2.8-0.3,4.2c0.1,0.8,0,1.6,0.2,2.3c0.1,0.5,0.2,1,0.3,1.6c-0.2-0.2-0.4-0.4-0.6-0.6
				c-0.2-0.9-0.6-1.7-1-2.5c-0.3-1.1-0.7-2.1-1.1-3.1c-0.6-1.4-0.9-3-1.3-4.5c-0.1-0.4-0.1-0.9,0-1.3c0.2-0.8,0.3-1.6,0.5-2.3
				C76.9,154.2,77,152.8,77.6,151.6z"/>
			<path class="st3" d="M46,156.9c0.3,0.2,0.5,0.4,0.7,0.7c0.6,1.1,1.3,2.2,2,3.2c0.6,0.9,1,1.8,1.6,2.7c0.6,1,0.9,2.1,1.3,3.2
				c0.4,1.4,0.8,2.8,1,4.2c0.2,1.1,0.2,2.3,0.2,3.5c0.1,4.5-0.9,9-0.6,13.6c0.3,2.3,0.8,4.6,1.9,6.7c0.5,1.1,1.4,1.9,2.1,2.9
				c2,2.5,3.3,5.5,4.3,8.5c1,2.8,1.6,5.7,2.1,8.6c0.4,2.1,0.5,4.2,0.9,6.2c0.3,1.2,0.7,2.3,1.1,3.4c0.4,1.2,1.2,2.2,1.9,3.2
				c1.6,1.9,3.8,3.2,6.2,3.9c-0.1,1.2-0.1,2.5-0.6,3.6c-0.5,1-1.5,2-2.7,2.1c-2,0.1-4.1-0.6-5.6-2.1c-1.4-1.4-2.4-3.1-3.4-4.8
				c-1-1.8-1.8-3.7-2-5.7c-0.2-2-0.3-4-0.2-6c0-1.2,0-2.4-0.1-3.6c-0.1-2-0.5-4-1.2-5.8c-1-2.3-2.7-4.2-4.2-6.1
				c-1.3-1.7-2.6-3.3-3.4-5.3c-0.8-1.9-1.6-3.9-1.9-6c-0.5-2.9-0.5-5.9-0.5-8.9c0.1-1.8,0.5-3.6,0.6-5.4c0.1-2.3,0.1-4.6-0.5-6.8
				c-0.6-2.4-1.5-4.8-2.8-6.9c-0.8-1.3-1.3-2.8-1.4-4.3C43.9,158.6,45,157.8,46,156.9z"/>
			<path class="st4" d="M138.2,159.8c0.2-0.6,0.3-1.3,0.7-1.8c-0.2,1-0.6,2-1,3c-0.6,1.5-1.1,3.1-1.6,4.7c-0.8,2.4-1.5,5-1.4,7.6
				c0,1,0,2,0.2,3c0,0.2,0,0.3-0.1,0.5l0,0.1c-0.2-0.9-0.3-1.9-0.3-2.9c-0.1-2.3,0.3-4.7,1-6.9C136.4,164.7,137.3,162.2,138.2,159.8
				z"/>
			<path class="st5" d="M138.9,158.1L138.9,158.1c0.8,0.6,1.7,1.2,2.6,1.8c-0.7,0.9-1,2.1-1.6,3.1c-1.7,3.5-2.8,7.3-4.1,11
				c-0.2,0.8-0.5,1.6-0.8,2.3c-0.1-1-0.2-2-0.2-3c-0.1-2.6,0.6-5.1,1.4-7.6c0.5-1.6,1-3.1,1.6-4.7
				C138.3,160.1,138.6,159.1,138.9,158.1z"/>
			<path class="st6" d="M139.9,163c0.5-1,0.9-2.1,1.6-3.1l0.1-0.1l0,0.1c-0.9,2-1.8,3.9-2.6,5.9c-1,2.4-1.7,4.9-2.5,7.3
				c-0.4,1.3-0.9,2.6-1.3,4c0-0.1-0.1-0.2-0.1-0.3c0-0.2,0-0.3,0.1-0.5c0.3-0.8,0.5-1.5,0.8-2.3C137.1,170.3,138.1,166.5,139.9,163z
				"/>
			<path class="st7" d="M131.3,244.6c0.1-1.2,0.1-2.5,0.3-3.7c0.5-3.2,1-6.4,1.5-9.6c0.1-1,0.4-1.9,0.4-2.9c0-1,0.3-2,0.5-2.9
				c0.1-1.6,0.5-3.1,0.7-4.7c0.5-2.9,2.8-14.1,3.3-16.8c0.6-3.3,1.3-6.6,2-9.9c0.4-2.3,4.6-20.3,5.3-23c0.7-2.6,1.4-5.2,2.1-7.9
				c-1.1-0.5-2.1-1.2-3.2-1.7c-0.9-0.5-1.8-1-2.7-1.6c-0.9,2-1.8,3.9-2.6,5.9c-1,2.4-1.7,4.9-2.5,7.3c-0.4,1.3-0.9,2.6-1.3,4
				c0.2,1,0.2,1.9,0.2,2.9c0,3.4-0.2,6.8-0.9,10.1c-0.5,2.1-1.3,4-2.2,6c-1,2.1-2.4,4.1-3.5,6.1c0,0.4-0.1,0.8-0.2,1.1
				c-0.6,2.9-1.3,5.9-1.8,8.8c-0.5,2.4-0.7,4.9-1.1,7.3c-0.5,3.3-1,6.7-1.5,10c-0.2,1.4-0.2,2.8-0.4,4.2c-0.2,1.7-0.5,3.5-0.8,5.2
				c-0.2,1.4-0.3,2.8-0.4,4.2c0,0.5-0.1,1-0.1,1.6H131.3z"/>
			<path class="st8" d="M147.4,163.2c0,0,0,0.1,0.1,0.2c-0.3,1.7-0.8,3.3-1.2,5c-0.5,2.2-1.1,4.3-1.5,6.4c-0.6,2.8-1.3,5.6-1.9,8.5
				c-0.7,3.1-1.5,6.2-2.2,9.3c-0.5,2.6-5.4,27-5.6,28.4c-0.5,1.5-0.5,3-1,4.5c0.1-1.6,0.5-3.1,0.7-4.7c0.5-2.9,1.1-5.8,1.7-8.7
				c0.5-2.7,1.1-5.4,1.6-8.1c0.6-3.3,1.3-6.6,2-9.9c0.4-2.3,1.1-4.6,1.6-7c0.7-2.6,1.2-5.3,1.8-7.9c0.7-2.7,1.2-5.4,1.9-8.1
				C146.1,168.5,146.7,165.8,147.4,163.2z"/>
			<path class="st7" d="M33.7,190.1c0.4,2.7,0.6,5.4,0.9,8c0.5,3.6,1.1,7.3,1.6,10.9c0.5,2.9,1,5.8,1.4,8.8c0.4,3,1.1,6,1.7,8.9
				c0.2,1,0.2,1.9,0.2,2.9c0.1,2.7,0.4,5.3,0.7,8c0.2,1.3,0.3,2.6,0.9,3.7c0.3,0.7,0.6,1.4,0.8,2.1c-0.4-0.4-0.6-0.8-0.9-1.2
				c0.1,0.8,0.2,1.6,0.3,2.3h9.4c-0.2-0.9-0.4-1.8-0.5-2.7c-0.5-2.4-0.7-4.9-1.1-7.3c-0.6-3.5-1-7-1.6-10.5
				c-0.4-2.5-0.8-5.1-1.2-7.6c-0.4-3-0.9-5.9-1.4-8.8c-0.6-3.5-1.2-7-1.7-10.5c-0.4-2.4-0.6-4.9-1-7.3c-0.5-2.9-1.2-5.8-1.8-8.7
				c-0.7-3.1-1.3-6.2-2.1-9.3c-0.6-2.4-1.4-4.6-2-7l0-0.1c-1.9,1.7-3.9,3.3-5.7,5.2c0.7,3.4,1.1,6.8,1.5,10.3
				C32.8,183.4,33.3,186.8,33.7,190.1z"/>
			<path class="st6" d="M40.6,181.1c0.6,2.9,1.3,5.8,1.8,8.7c0.4,2.4,0.7,4.9,1,7.3c0.5,3.5,1.1,7,1.7,10.5c0.5,2.9,1,5.9,1.4,8.8
				c0.4,2.5,0.8,5.1,1.2,7.6c0.6,3.5,1,7,1.6,10.5c0.4,2.4,0.7,4.9,1.1,7.3c0.2,0.9,0.4,1.8,0.5,2.7H51c-0.5-2.4-0.9-4.8-1.2-7.3
				c-0.5-3.3-1-6.6-1.5-9.9c-0.4-3-1-5.9-1.4-8.8c-1.1-8.5-2.8-16.9-3.9-25.4c-0.4-3.1-1-6.1-1.7-9.2c-1.1-5.1-2.1-10.2-3.6-15.2
				c-0.4-1.3-0.7-2.7-1.3-4c0.6,2.4,1.4,4.6,2,7C39.3,174.8,39.9,178,40.6,181.1z"/>
			<path class="st9" d="M78.4,166.7c0.4,0.8,0.9,1.6,1,2.5C78.7,168.5,78.6,167.5,78.4,166.7z"/>
			<path class="st10" d="M30.7,169.9l0.1,0c0.7,3.4,1.1,6.8,1.5,10.3c0.5,3.3,1,6.7,1.4,10c0.4,2.7,0.6,5.4,0.9,8
				c0.5,3.6,1.1,7.3,1.6,10.9c0.5,2.9,1,5.8,1.4,8.8c0.4,3,1.1,6,1.7,8.9c0.2,1,0.2,1.9,0.2,2.9c-0.4-3-1.1-5.9-1.7-8.8
				c-0.5-2.8-0.9-5.7-1.4-8.5c-0.9-6-2-11.9-2.6-17.9c-0.3-2.7-0.6-5.4-1-8.1c-0.4-2.9-0.9-5.8-1.2-8.7c-0.3-2.6-0.7-5.1-1.2-7.7
				L30.7,169.9z"/>
			<path class="st11" d="M135,176.9l0-0.1c0,0.1,0.1,0.2,0.1,0.3c0.2,1,0.2,1.9,0.2,2.9c0,3.4-0.2,6.8-0.9,10.1
				c-0.5,2.1-1.3,4-2.2,6c-1,2.1-2.4,4.1-3.5,6.1l0-0.1c0-0.1,0-0.2,0-0.2c0.8-1.7,1.9-3.2,2.7-4.8c0.7-1.4,1.5-2.8,2-4.3
				c0.8-2.1,1.2-4.3,1.4-6.5c0.2-1.6,0.2-3.2,0.3-4.8C135.2,179.9,134.9,178.4,135,176.9z"/>
			<path class="st12" d="M126.5,207.4c0.4-1.9,1-3.9,2.2-5.6c0,0.1,0,0.2,0,0.2c-0.2,0.4-0.3,0.8-0.5,1.2c-0.7,0.9-0.9,2-1.1,3
				c-0.6,2.4-0.9,4.8-0.9,7.3c-0.2,2.3-0.4,4.5-1,6.7c-0.2,0.5-0.5,1-0.7,1.5c-0.9,2.2-2.4,4.3-4.5,5.5c0-0.1-0.1-0.2-0.1-0.3
				c1-0.3,1.7-1,2.3-1.7c2-2.4,3.1-5.5,3.5-8.6C125.9,213.5,125.8,210.4,126.5,207.4z"/>
			<path class="st8" d="M122.4,244.6c0-0.5,0.1-1,0.1-1.6c0.1-1.4,0.2-2.8,0.4-4.2c0.3-1.7,0.5-3.5,0.8-5.2c0.2-1.4,0.2-2.8,0.4-4.2
				c0.4-3.4,1-6.7,1.5-10c0.4-2.4,0.7-4.9,1.1-7.3c0.6-2.9,1.2-5.9,1.8-8.8c0.1-0.4,0.1-0.7,0.2-1.1l0-0.1c-0.2,0.4-0.3,0.8-0.5,1.2
				c-0.1,0.6-0.1,1.2-0.3,1.8c-0.6,2.8-1.2,5.7-1.7,8.5c-0.2,2.3-0.4,4.5-1,6.7c-0.1,1.3-0.4,2.6-0.5,4c-0.2,1.6-0.5,3.1-0.7,4.7
				c-0.2,1.8-0.3,3.6-0.6,5.4c-0.4,2.7-1,5.3-1,8.1c0,0.7-0.1,1.5-0.1,2.2H122.4z"/>
			<path class="st13" d="M127,206.2c0.3-1,0.5-2.1,1.1-3c-0.1,0.6-0.1,1.2-0.3,1.8c-0.6,2.8-1.2,5.7-1.7,8.5
				C126.1,211.1,126.4,208.6,127,206.2z"/>
			<g>
				<path class="st5" d="M37.8,168.7c1.5,5,2.4,10.1,3.6,15.2c0.7,3,1.3,6.1,1.7,9.2c1,8.5,2.7,16.9,3.9,25.4c0.4,3,1,5.9,1.4,8.8
					c0.4,3.3,0.9,6.6,1.5,9.9c0.3,2.4,0.7,4.9,1.2,7.3h71.1c0-0.7,0.1-1.5,0.1-2.2c0.1-2.7,0.7-5.4,1-8.1c0.3-1.8,0.4-3.6,0.6-5.4
					c0.2-1.6,0.4-3.1,0.7-4.7c0.2-1.3,0.5-2.6,0.5-4c-0.2,0.5-0.5,1-0.7,1.5c-0.9,2.2-2.4,4.3-4.5,5.5c-0.6,0.4-1.1,0.9-1.7,1.3
					c-0.8,0.5-1.7,0.4-2.5,0.3c-1.1-0.1-2.3-0.3-3.2-0.9c-0.7-0.5-1.4-1-2.1-1.5c-0.9-0.8-1.6-1.8-2.1-2.9c-0.6-1.4-1.2-2.8-1.5-4.3
					c-0.5-2.5,0-5,0.1-7.5c0.2-2.9,1-5.7,1.4-8.5c0.1-1.3,0.4-2.7,0.4-4c0-2-0.8-3.8-1.8-5.5c-0.6-1-1.4-2-2-3
					c-0.5-0.9-1-1.8-1.5-2.8c-0.6-1.2-1-2.4-1.4-3.7c-0.9-2.7-1-5.6-0.8-8.4c0.1-2.3,0.6-4.6,1.3-6.8c0.4-1.3,1-2.5,1.3-3.8
					c0.4-2.5,0.1-5.1-0.8-7.5c-0.1-0.4-0.3-0.8-0.2-1.2c0.8-0.3,1.6-0.5,2.4-0.8c1.2-0.4,2.3-1.1,3.4-1.8c1-0.7,2.1-1.3,2.7-2.3
					c-0.6-1-1.3-1.8-2.1-2.7c-0.8-0.9-1.4-1.9-2.5-2.5c-0.6-0.3-1.2-0.6-1.8-0.9c-0.4-0.2-0.8-0.1-1.1,0c-2.8,0.7-5.6,0.9-8.4,0.7
					c-1.1-0.1-2.1-0.2-3.2-0.2c-1.6,0-3.2-0.2-4.9-0.4c-1.8-0.2-3.5-0.6-5.2-0.9c-0.6-0.1-1.1-0.2-1.7-0.4c-0.1,0.2-0.3,0.4-0.4,0.7
					c-0.5,1.2-1.1,2.4-1.5,3.7c-0.4,0.9-0.6,1.9-0.9,2.9c0.2,0,0.4,0,0.7,0c0.5,1,1.4,1.8,2.2,2.7c0.4,0.5,0.9,0.9,1.1,1.5
					c0.1,0.6-0.2,1.2-0.4,1.7c-0.5,1.3-0.9,2.7-1.3,4.1c-0.4,1.4-0.5,2.8-0.3,4.2c0.1,0.8,0,1.6,0.2,2.3c0.1,0.5,0.2,1,0.3,1.6
					c0.8,1.9,1.7,3.8,2.4,5.7c0.9,2.6,1.7,5.3,1.9,8.1c0.1,1.4-0.1,2.7-0.1,4.1c-0.1,1.9-0.2,3.7-0.5,5.6c-0.4,2.4-1.2,4.7-1.7,7.1
					c-0.3,1.2-0.8,2.4-1.2,3.6c-0.4,1.2-0.8,2.3-1.2,3.5c-0.2,0.8-0.6,1.6-1,2.3c-0.7,1.3-1.1,2.8-1.7,4.2c-0.9,2.1-1.2,4.5-0.9,6.8
					c0.2,1.6,0.6,3.2,1,4.8c0.3,1.1,0.6,2.3,0.3,3.5c-0.2,0.8-0.6,1.7-1.3,2.2c-1,0.6-2.2,0.6-3.3,0.4c-0.1,1.2-0.1,2.5-0.6,3.6
					c-0.5,1-1.5,2-2.7,2.1c-2,0.1-4.1-0.6-5.6-2.1c-1.4-1.4-2.4-3.1-3.4-4.8c-1-1.8-1.8-3.7-2-5.7c-0.2-2-0.3-4-0.2-6
					c0-1.2,0-2.4-0.1-3.6c-0.1-2-0.5-4-1.2-5.8c-1-2.3-2.7-4.2-4.2-6.1c-1.3-1.7-2.6-3.3-3.4-5.3c-0.8-1.9-1.6-3.9-1.9-6
					c-0.5-2.9-0.5-5.9-0.5-8.9c0.1-1.8,0.5-3.6,0.6-5.4c0.1-2.3,0.1-4.6-0.5-6.8c-0.6-2.4-1.5-4.8-2.8-6.9c-0.8-1.3-1.3-2.8-1.4-4.3
					c-2.1,1.7-4.3,3.4-6.3,5.2l0,0.1C37.1,166,37.4,167.4,37.8,168.7z"/>
				<path class="st5" d="M170.8,244.6c0.3-1.3,0.5-2.7,0.8-4c0.4-2.3,0.9-4.6,1.2-7c0.4-3.2,0.5-6.3,0.7-9.5c0.1-1,0-2,0.1-3
					c0.2-2.3,0-4.5,0.2-6.8c0-1.8,0.1-3.6,0-5.4c-0.1-4.6-0.8-9.2-1.5-13.8c-0.4-2.5-1-4.9-1.7-7.3c-0.5-1.6-0.9-3.2-1.6-4.8
					c-0.7-1.7-1.8-3.2-2.8-4.7c-1.3-2-2.9-3.8-4.7-5.4c-1.4-1.3-2.9-2.5-4.5-3.6c-2.4-1.6-4.7-3.2-7.1-4.6c-0.8-0.4-1.5-1-2.4-1.3
					c-0.3,1.7-0.8,3.3-1.2,5c-0.5,2.2-1.1,4.3-1.5,6.4c-0.6,2.8-1.3,5.6-1.9,8.5c-0.7,3.1-1.5,6.2-2.2,9.3c-0.5,2.6-5.4,27-5.6,28.4
					c-0.5,1.5-0.5,3-1,4.5c-0.2,1-0.5,1.9-0.5,2.9c0,1-0.2,1.9-0.4,2.9c-0.5,3.2-1,6.4-1.5,9.6c-0.2,1.2-0.3,2.5-0.3,3.7H170.8z"/>
				<path class="st5" d="M5.8,243.9c0,0.2,0.1,0.4,0.1,0.7h35.6c-0.2-0.9-0.3-1.8-0.5-2.8c0.1-0.2,0.2-0.3,0.3-0.5
					c-0.5-1.2-0.7-2.5-0.9-3.7c-0.4-2.6-0.6-5.3-0.7-8c-0.4-3-1.1-5.9-1.7-8.8c-0.5-2.8-0.9-5.7-1.4-8.5c-0.9-6-2-11.9-2.6-17.9
					c-0.3-2.7-0.6-5.4-1-8.1c-0.4-2.9-0.9-5.8-1.2-8.7c-0.3-2.6-0.7-5.1-1.2-7.7c-0.9,0.8-1.7,1.7-2.7,2.5c-1.8,1.6-3.7,3.2-5.6,4.7
					c-2.3,1.8-4.7,3.5-6.8,5.4c-1.4,1.3-2.9,2.5-4,4.1c-2.1,3.1-3.5,6.6-4.4,10.2c-0.7,2.7-0.9,5.4-1.2,8.1
					c-0.3,3.1-0.6,6.1-0.8,9.2c-0.1,1.7-0.1,3.4-0.2,5c-0.1,1.5-0.1,3-0.1,4.5c-0.1,2.1,0,4.3-0.1,6.4c0,1.2,0.1,2.5,0.1,3.7
					C5,237.1,5.4,240.5,5.8,243.9z"/>
			</g>
			<path class="st10" d="M41.5,244.6c-0.1-0.8-0.2-1.6-0.3-2.3c0.2,0.4,0.5,0.9,0.9,1.2c-0.2-0.7-0.5-1.4-0.8-2.1
				c-0.1,0.2-0.2,0.3-0.3,0.5C41.1,242.7,41.2,243.6,41.5,244.6L41.5,244.6z"/>
		</g>
		<g>
			<path class="st14" d="M95.8,29.7c1.7-0.2,3.4-0.1,5.1,0.4c1.4,0.3,2.8,0.5,4.1,1c1.4,0.4,2.8,1,4.2,1.6c0.8,0.4,1.5,1,2.3,1.4
				c0.9,0.5,1.8,1.1,2.7,1.8c0.5,0.4,1.1,0.7,1.5,1.2c1.5,1.5,3,2.9,4.3,4.5c0.6,0.8,1.2,1.7,1.6,2.6c0.4,0.9,1,1.7,1.4,2.6
				c0.5,1.1,0.8,2.2,1.3,3.3c0.9,1.9,1.6,3.8,2.6,5.6c0.8,1.5,1.8,2.9,2.5,4.4c0.6,1.4,1.3,2.8,1.8,4.3c0.9,2.9,1.3,5.8,1.8,8.8
				c0.3,1.7,0.3,3.4,0,5.1c-0.3,3.3-1.1,6.4-1.2,9.7c-0.1,2,0.1,4,0.1,6c0.2,2.9,0,5.9-1.1,8.7c-0.8,2.2-1.4,4.5-1.7,6.8
				c-0.2,1.7-0.2,3.3-0.4,5c-0.3,2.5-1.3,4.8-2.1,7.2c-0.9,2.6-1.6,5.3-2.1,8c-0.5,2.9-0.7,5.8-0.5,8.7c0.2,1.9,0.4,3.8,0.5,5.8
				c0,1.4,0.1,2.8,0.2,4.2c0.1,1.8,0.1,3.6-0.3,5.4c-0.6,2.5-1.5,5-2.1,7.5c-0.7,2.5-1.1,5.1-1.4,7.7c-0.2,1.7-0.4,3.5-0.1,5.2
				c0.2,1.6,0.6,3.2,0.8,4.7c0.5,2.6,1.2,5.1,1.3,7.8c0,1.4,0.1,2.7-0.2,4.1c-0.4,1.6-0.9,3.2-1.5,4.8c-0.5,1.2-0.8,2.4-1.2,3.6
				c-0.3,0.9-0.5,1.8-0.8,2.7c-0.1,0-0.3,0-0.4,0c0.2-1.6,0.7-3.1,1.1-4.7c0.2-0.9,0.6-1.8,0.9-2.7c0.5-1.2,0.8-2.5,1.1-3.7
				c0.3-1.3,0.2-2.6,0.2-4c-0.1-2.3-0.6-4.5-1.1-6.6c-0.3-1.2-0.4-2.5-0.7-3.7c-0.2-1.3-0.4-2.6-0.5-4c0-2.7,0.5-5.5,0.9-8.1
				c0.4-2.4,1.2-4.8,2-7.2c0.5-1.7,1.1-3.4,1.2-5.2c0.2-1.8-0.1-3.5-0.2-5.3c0-2.9-0.4-5.8-0.6-8.7c-0.2-5.6,0.9-11.1,2.8-16.4
				c0.8-2.4,1.8-4.8,2.1-7.3c0.2-1.6,0.2-3.2,0.4-4.7c0.3-2.5,0.9-4.9,1.8-7.2c1-2.8,1.2-5.8,1-8.8c-0.1-1.7-0.2-3.4-0.1-5.1
				c-0.1-2.8,0.6-5.6,0.9-8.4c0.3-2.1,0.6-4.3,0.2-6.4c-0.6-3.1-1-6.2-2-9.2c-0.5-1.3-1-2.6-1.6-3.8c-0.7-1.6-1.8-3.1-2.6-4.7
				c-1-1.7-1.7-3.6-2.5-5.4c-0.7-1.4-1-3-1.9-4.4c-0.6-0.9-1-2-1.7-2.9c-1.4-2.2-3.3-3.9-5.1-5.7c-1.4-1-2.7-2.1-4.2-2.8
				c-0.6-0.3-1.2-0.7-1.8-1c-2.1-1-4.3-1.8-6.6-2.2c-1.7-0.3-3.3-0.8-5-0.8c-1.2-0.1-2.5,0.2-3.7,0.3c-1.9,0.1-3.9,0.3-5.7,0.9
				c-0.3,0.1-0.6,0.2-0.9,0.2c0.3-0.8,1.2-1,2-1.2C91.3,29.9,93.6,29.9,95.8,29.7z"/>
			<path class="st14" d="M92.4,33.4c1.5-0.2,3-0.4,4.5-0.2c1.5,0.1,2.9,0.7,4.3,0.9c1.2,0.2,2.3,0.6,3.5,0.9c1.1,0.3,2,0.8,3.1,1
				c1.5,0.5,2.9,1,4.1,2c0.5,0.4,1.2,0.6,1.7,1c0.8,0.5,1.4,1.1,2.1,1.8c1.9,1.6,3.1,3.9,4.3,6c0.8,1.2,1.2,2.6,1.5,4.1
				c0.2,1.2,0.8,2.2,1.2,3.3c0.6,1.6,1.2,3.2,2.1,4.7c0.9,1.6,1.8,3.2,2.3,5c0.6,2,1.2,4.1,1.4,6.2c0.2,2,0.3,4.1,0.2,6.1
				c-0.2,1.5-0.4,2.9-0.7,4.3c-0.3,1.5-0.5,3-0.7,4.5c-0.4,2.9-0.3,5.8-0.3,8.7c0.1,5.6-0.9,11.1-2.9,16.3c-1,3.1-2.3,6-3.3,9.1
				c-0.8,2.5-1.4,5.1-1.9,7.7c-0.5,2.5-1,5-1.1,7.5c-0.2,2.9,0.2,5.9,1.1,8.6c0.4,1.2,0.9,2.3,1.1,3.6c0.5,2.7,0.8,5.5,0.4,8.3
				c-0.4,3-1.4,5.8-2.2,8.7c-0.7,2.3-1.5,4.5-2.2,6.9c-0.8,2.8-0.5,5.8,0,8.6c0.2,1.4,0.6,2.8,1,4.1c0.4,1.4,0.7,2.7,0.9,4.1
				c0.2,1.7,0.2,3.4,0.4,5c0.1,2,0.1,4.1,0,6.1c-0.2,1.5-0.3,3.1-0.7,4.6c-0.7,2.4-1.1,4.9-1.7,7.3c-0.3,2-0.1,4-0.3,6
				c-0.1,0.4-0.1,0.8-0.4,1c-0.1,0-0.3-0.1-0.3-0.1c0.1-2-0.1-4,0.1-6c0.1-0.9,0.3-1.7,0.5-2.6c0.5-2.3,1.2-4.5,1.8-6.8
				c0.3-1.8,0.6-3.7,0.5-5.6c-0.1-1.5,0-2.9-0.1-4.4c-0.2-1.5-0.1-3.1-0.3-4.6c-0.2-1.3-0.6-2.5-0.9-3.7c-1-3.2-1.6-6.6-1.5-10
				c0.1-2.3,0.9-4.4,1.6-6.6c0.8-2.5,1.6-5.1,2.3-7.6c0.9-3.2,1.5-6.6,1-10c-0.3-1.2-0.3-2.5-0.7-3.7c-0.4-1.1-0.8-2.1-1.1-3.2
				c-0.4-1.2-0.6-2.5-0.7-3.8c-0.4-3.3,0.1-6.6,0.7-9.8c0.5-2.5,1-4.9,1.7-7.3c1.4-5.2,3.8-10.1,5.3-15.3c0.9-3.4,1.5-6.9,1.5-10.4
				c0-2.6-0.1-5.2,0.1-7.8c0.1-1.7,0.3-3.3,0.5-5c0.2-1.9,0.7-3.7,1-5.5c0.3-1.5,0.3-3,0.2-4.5c-0.2-1.8-0.2-3.6-0.7-5.3
				c-0.4-1.5-0.8-2.9-1.3-4.4c-0.5-1.5-1.4-2.9-2.1-4.4c-0.8-1.5-1.3-3.1-2-4.7c-0.3-0.9-0.8-1.8-1-2.7c-0.2-0.9-0.4-1.8-0.8-2.7
				c-0.4-1.2-1.1-2.2-1.7-3.3c-0.9-1.4-1.7-2.9-3-4.1c-0.8-0.7-1.4-1.4-2.3-2c-0.6-0.4-1.2-0.6-1.8-1c-1.5-1.2-3.3-1.7-5.1-2.3
				c-1.2-0.5-2.5-0.8-3.8-1.2c-1-0.3-2.1-0.5-3.1-0.7c-1.2-0.3-2.5-0.6-3.8-0.6c-1.7,0-3.5,0.2-5.2,0.7c-1.7,0.4-3.4,0.6-5.1,0.9
				c-0.3,0-0.7,0.1-0.9-0.2c1.2-0.5,2.5-0.6,3.8-0.8C89.8,34,91.1,33.6,92.4,33.4z"/>
			<path class="st14" d="M92.3,36.3c2.1-0.1,4.1-0.5,6.2-0.3c2.2,0.6,4.3,1.5,6.4,2.4c2.1,1,4.5,1.4,6.4,2.8c1.2,0.7,2,1.8,2.9,2.9
				c1,1.2,2,2.4,2.8,3.8c0.8,1.4,1.6,3,1.7,4.6c0.2,2.4,0.8,4.8,2,6.9c0.9,1.6,1.9,3.1,2.6,4.8c0.7,1.7,1.2,3.4,1.5,5.2
				c0.4,2.4,0.3,4.9-0.2,7.3c-0.4,1.8-0.6,3.7-0.9,5.5c-0.1,1-0.2,2-0.2,2.9c0,2,0,4,0,6c-0.1,2.6-0.6,5.2-1.4,7.7
				c-0.5,1.8-1.1,3.5-1.6,5.3c-0.4,1.9-0.8,3.9-1.4,5.8c-0.6,1.9-1.2,3.8-1.9,5.6c-0.8,2.1-1.6,4.2-2.3,6.3c-1,2.7-1.9,5.4-2.6,8.2
				c-0.8,3.2-1.1,6.7-0.4,9.9c0.3,1.2,0.6,2.5,1.1,3.7c0.4,1,1,1.9,1.5,2.8c1.2,2.1,2,4.3,2.2,6.7c0.2,2.2,0,4.4-0.7,6.5
				c-0.8,2.5-2,4.9-3,7.4c-1.1,2.8-2.6,5.4-3,8.4c-0.1,1.1-0.2,2.1,0,3.2c0.4,1.2,1,2.4,1.6,3.5c0.8,1.8,1.7,3.5,2.2,5.5
				c0.8,3.2,1.2,6.6,1.2,9.9c0,3.1-0.5,6.2-1.2,9.2c-0.6,2.4-1.4,4.8-1.6,7.3c-0.1,1-0.2,2-0.2,2.9c0,1.5,0.9,2.9,1.1,4.4
				c-0.1,0-0.2,0-0.3,0c-0.5-1-0.9-2-1.3-3c-0.5-1.3-0.1-2.7-0.1-4.1c0.2-2.2,0.8-4.4,1.3-6.5c0.5-1.7,0.8-3.4,1.1-5.2
				c0.5-3.3,0.6-6.6,0.2-9.9c-0.2-1.2-0.2-2.5-0.6-3.7c-0.2-0.9-0.4-1.7-0.8-2.6c-0.4-1.2-1-2.3-1.5-3.4c-0.6-1.4-1.4-2.6-1.8-4
				c-0.3-1.1-0.2-2.2-0.1-3.4c0.3-2.5,1.4-4.8,2.5-7.1c1-2.5,2.2-5,3.2-7.5c1.1-2.6,1.5-5.4,1.1-8.2c-0.4-2.3-1.2-4.4-2.4-6.4
				c-0.5-1.1-1.3-2.1-1.6-3.3c-0.7-2.3-1.1-4.7-1.2-7.1c0.1-1.1,0.1-2.1,0.2-3.2c0.4-2.9,1.3-5.8,2.1-8.6c0.9-2.7,1.8-5.4,2.8-8
				c1-2.3,1.8-4.7,2.5-7.2c0.7-2.3,1-4.6,1.7-6.9c0.9-3,2-6,2.3-9.2c0.2-1.5,0.2-3.1,0.2-4.6c0-1.4,0-2.8,0-4.2
				c0-1.6,0.4-3.2,0.6-4.8c0.3-2,0.8-4,0.8-6.1c0-1.4,0-2.8-0.3-4.2c-0.5-2.1-1.1-4.3-2.2-6.2c-0.7-1.3-1.5-2.4-2.1-3.7
				c-1-2-1.6-4.2-1.8-6.4c-0.1-1-0.4-1.9-0.8-2.8c-0.5-1.1-1.1-2.1-1.8-3.1c-0.6-0.7-1.1-1.5-1.7-2.2c-0.9-1-1.7-2.2-2.8-2.9
				c-1.9-1.3-4.2-1.6-6.2-2.6c-2.1-1-4.2-1.8-6.4-2.4c-1.6-0.2-3.2,0.1-4.7,0.2c-2.3,0.3-4.7,0.6-7,0.7c-1.5,0.1-3-0.2-4.5,0
				c-0.9,0.1-1.9,0.2-2.8,0.3c-0.3,0-0.7,0.1-1,0c-0.2-0.2-0.1-0.2,0.1-0.3c1.3-0.5,2.7-0.5,4.1-0.8c1-0.2,2,0,3.1,0
				c1.3,0.1,2.6-0.2,3.8-0.3C90.4,36.5,91.3,36.4,92.3,36.3z"/>
			<path class="st14" d="M76,36.9c0.3,0,0.7,0,0.8,0.3c1.1,2.1,2.1,4.3,3,6.5c0.2,0.5,0.5,1,0.6,1.5c0,0.1,0,0.2,0,0.3
				c-0.1,0-0.3,0-0.4,0c-0.1-0.2-0.2-0.4-0.3-0.5c-1.1-2.4-2.2-4.7-3.3-7.1c-0.1-0.2-0.2-0.3-0.4-0.5C76,37.3,76,37.1,76,36.9z"/>
			<path class="st14" d="M68.7,40.1c0.6-0.2,1.2-0.4,1.8-0.5c-0.2,0.3-0.6,0.5-1,0.7c-2.5,1.3-5,2.6-7.5,3.9
				c-1.4,0.9-2.9,1.7-4.1,2.9c-1.6,1.5-3.2,3.1-4.2,5.1c-1,2-2.1,4-2.9,6.1c-0.6,1.7-1.2,3.4-1.5,5.1c-0.3,1.7-0.6,3.5-0.8,5.2
				c-0.2,1.1-0.5,2.1-0.6,3.2c-0.1,1.2-0.2,2.5-0.4,3.7c-0.3,2-0.5,4-0.5,6c0,2.7,0.6,5.3,1.1,7.9c0.5,2.2,1.1,4.3,1.5,6.5
				c0.3,1.8,0.5,3.7,0.5,5.5c-0.1,1.8-0.1,3.7-0.1,5.5c0,1.3,0,2.5-0.2,3.8c-0.4,2-0.6,4-0.4,6.1c0.2,2.1,1.1,3.9,1.7,5.9
				c0.5,1.6,0.6,3.4,0.7,5.1c0.1,1.1,0.1,2.1,0.1,3.2c-0.1,1.9-0.5,3.7-0.6,5.6c0,1.1-0.1,2.3,0,3.4c0.2,2,0.7,4,1.4,5.9
				c0.5,1.2,1,2.3,1.5,3.5c0.5,1.3,1,2.6,1.3,3.9c0.6,2.2,0.6,4.5,0.5,6.8c-0.1,1.7-0.2,3.4,0.1,5.1c0.2,1.1,0.5,2.2,0.9,3.2
				c0.4,1,1,2,1.3,3c0.6,1.4,1,2.9,1.2,4.5c0.1,1.2,0.2,2.3,0.1,3.5c-0.1,1.4-0.6,2.7-0.6,4.1c-0.1,1.7,0.3,3.4,1.2,4.8
				c0.4,0.7,0.8,1.4,1.2,2.2c0.6,1.1,0.9,2.3,1.2,3.5c0.4,1.7,0.2,3.4,0.3,5.1c0.1,1,0.5,1.9,0.8,2.8c0.5,1,1,2.1,1.1,3.2
				c0.2,1.6,0.1,3.2,0.1,4.8c0,1.8-0.1,3.7,0.3,5.5c0.3,1.3,0.5,2.7,0.9,4c0.3,1,0.7,1.9,1,3c0.4,1.4,1.4,2.5,1.9,3.9
				c-0.1,0-0.3,0-0.3,0c-0.6-0.8-1.2-1.5-1.7-2.4c-0.5-0.8-0.7-1.8-1-2.7c-0.4-1.1-0.8-2.2-1-3.3c-0.3-1.5-0.7-3-0.7-4.6
				c0-1.8,0-3.6,0-5.4c0-1.1,0-2.3-0.3-3.3c-0.4-1.3-1.1-2.5-1.5-3.8c-0.5-1.2-0.3-2.5-0.4-3.8c-0.1-2.7-0.9-5.4-2.3-7.7
				c-1.2-1.8-1.7-4.1-1.5-6.3c0.1-1.4,0.6-2.7,0.6-4.1c0-1.8-0.1-3.7-0.6-5.5c-0.3-1.3-0.9-2.4-1.5-3.6c-1.1-2.5-1.7-5.3-1.5-8.1
				c0.1-1.1,0.1-2.2,0.1-3.3c0-1.9-0.1-3.7-0.7-5.5c-0.7-2.2-1.6-4.3-2.5-6.4c-0.7-1.7-1.2-3.5-1.4-5.3c-0.2-1.4-0.1-2.8-0.1-4.1
				c0-2.4,0.7-4.8,0.6-7.2c-0.1-2.4-0.1-4.9-0.9-7.3c-0.4-1.5-1.1-3-1.4-4.6c-0.4-1.7-0.3-3.4-0.1-5.1c0.1-1.2,0.5-2.5,0.5-3.7
				c0.1-2.3,0-4.5,0.1-6.8c0.1-2.8-0.1-5.6-0.8-8.3c-0.4-2-1-3.9-1.3-5.9c-0.2-1.4-0.5-2.8-0.7-4.2c-0.3-2.4,0-4.8,0.3-7.2
				c0.4-2.4,0.3-4.8,0.8-7.2c0.4-2.7,0.6-5.5,1.4-8.2c0.5-1.8,1.1-3.5,1.8-5.2c0.5-1.2,1.1-2.4,1.7-3.5c0.4-0.8,0.8-1.7,1.3-2.4
				c0.9-1.3,2-2.5,3.2-3.6c1.3-1.3,2.8-2.2,4.4-3.2c1-0.6,2-1.1,3-1.6C65.7,41.3,67.1,40.6,68.7,40.1z"/>
			<path class="st14" d="M68.1,42.7c2-1.3,4.2-2.1,6.4-3c0,0.1,0,0.2,0,0.3c-0.3,0.3-0.7,0.5-1,0.6c-1.5,0.7-2.9,1.3-4.3,2.2
				c-1.8,1.2-3.6,2.3-5.5,3.4c-1.7,1-3.4,2.3-4.7,3.9c-0.7,0.8-1.3,1.7-1.8,2.6c-0.6,1-1.2,2.1-1.7,3.2c-1.2,2.6-1.6,5.5-2.5,8.1
				c-0.4,1.1-0.8,2.3-0.9,3.4c-0.3,2.3-0.7,4.5-1.1,6.8c-0.3,1.8-0.8,3.6-0.8,5.5c-0.1,3,0.5,5.9,1.2,8.8c0.2,1,0.6,1.9,0.9,2.9
				c0.7,2.6,1.3,5.3,1.4,8c0.1,2.2,0,4.4-0.1,6.7c-0.1,2.8,0,5.5,0.7,8.2c0.3,1.1,0.5,2.3,0.9,3.3c0.5,1.4,1.1,2.7,1.5,4.1
				c0.6,2.4,0.8,4.9,0.7,7.3c-0.1,2.3-0.3,4.6-0.2,6.9c0.2,2.1,0.5,4.2,1.2,6.2c1.1,2.9,1.7,5.9,2.4,8.9c0.7,2.9,0.5,5.9,0.5,8.8
				c0.1,1.4,0.3,2.8,0.6,4.1c0.3,1.6,1,3.1,1.6,4.6c0.7,1.9,1.7,3.6,2.2,5.6c0.4,1.9,0.7,3.8,0.8,5.8c0.1,1.3,0.1,2.6,0.1,3.8
				c0.1,1.6,0,3.3,0.3,4.9c0.3,1.6,0.6,3.3,0.8,4.9c0.3,1.6,0.3,3.2,0,4.8c-0.2,1.4-0.3,2.7-0.3,4.1c0.1,1.7,0.4,3.3,0.5,5
				c0,0.9,0.2,1.8,0,2.7c-0.2,1.2-0.1,2.5-0.1,3.7c0.1,1.4,0.2,2.9,0.6,4.3c0.2,1,0.5,1.9,0.6,2.9c0.1,0.1,0.1,0.2,0.2,0.3
				c-0.1,0-0.2,0-0.3,0c-0.3-1.6-1-3.1-1.3-4.7c-0.3-2.3-0.5-4.6-0.1-6.9c0.1-0.7-0.1-1.4-0.1-2c0-1.7-0.4-3.4-0.5-5.1
				c0-1.5,0.1-3.1,0.3-4.6c0.2-1.2,0.1-2.5-0.1-3.7c-0.3-1.7-0.5-3.3-0.8-5c-0.2-1.4-0.3-2.8-0.3-4.2c-0.1-2.8,0-5.7-0.5-8.4
				c-0.2-1.3-0.4-2.5-0.9-3.7c-0.4-1.2-1.1-2.4-1.5-3.6c-0.5-1.3-1.1-2.6-1.5-4c-0.3-1.3-0.6-2.6-0.7-3.9c-0.3-2-0.1-4-0.2-6
				c0-1.6-0.2-3.2-0.6-4.7c-0.7-2.8-1.3-5.5-2.2-8.2c-0.5-1.5-0.9-3.1-1-4.7c-0.3-1.8-0.1-3.6-0.1-5.4c0.1-2,0.3-4,0.2-6
				c-0.1-1.1-0.2-2.3-0.4-3.4c-0.5-2.6-1.9-4.9-2.5-7.5c-0.8-2.9-1.1-5.9-0.9-8.8c0.2-2.9,0.3-5.8,0.1-8.7c-0.2-2.4-0.7-4.7-1.4-7
				c-1.3-4.2-2.4-8.6-1.8-13c0.6-3.5,1.4-7,1.8-10.6c0.1-1.2,0.5-2.4,0.9-3.6c0.9-2.7,1.3-5.5,2.5-8c0.5-1.4,1.3-2.6,2-3.8
				c1.2-2,2.9-3.7,4.7-5.1C63.7,45.3,65.9,44.1,68.1,42.7z"/>
			<path class="st14" d="M79.6,39.8c0.8-0.3,1.7-0.1,2.5-0.1c1.3,0.1,2.6,0.4,3.9,0.7c1.5,0.2,3,0.3,4.5,0.3
				c2.8-0.1,5.7-0.3,8.5,0.1c1.4,0.2,2.9,0.5,4.2,1.1c1,0.5,2,1,3,1.6c1.3,0.8,2.3,1.7,3.5,2.6c1,0.7,1.9,1.6,2.6,2.6
				c0.7,1,1.2,2.2,1.6,3.4c0.5,1.2,0.9,2.5,1.1,3.8c0.3,1.9,0.3,3.8,0.9,5.6c0.4,1.3,1.1,2.6,1.8,3.8c0.8,1.5,1.4,3.1,1.6,4.7
				c0.1,1.2,0.2,2.5,0.2,3.7c0,1.4-0.1,2.7,0,4.1c0.1,1,0.1,2.1,0.2,3.1c0.1,0.8,0.4,1.5,0.6,2.3c0.3,1.3,0.2,2.6,0.2,4
				c0,3.4-0.7,6.8-1.4,10.1c-0.2,1-0.4,2-0.8,2.9c-0.2,0.6-0.4,1.3-0.8,1.8c-0.1-0.1-0.1-0.2-0.2-0.2c0.3-0.7,0.4-1.4,0.4-2.1
				c0.8-3.3,1.7-6.6,1.9-9.9c0-1.6,0.1-3.2-0.1-4.7c-0.1-2-0.8-4-0.8-6c0-0.5,0.1-1,0-1.5c-0.2-2.2-0.1-4.5-0.2-6.7
				c-0.1-1.8-0.7-3.6-1.6-5.1c-1-1.6-1.9-3.4-2.3-5.3c-0.4-1.8-0.4-3.7-0.9-5.5c-0.4-1.5-1-3-1.6-4.4c-0.6-1.3-1.6-2.4-2.6-3.3
				c-0.7-0.5-1.4-1.1-2.1-1.6c-1.5-1.2-3.2-2.2-4.9-3c-1.2-0.6-2.6-0.8-3.9-1c-2.8-0.4-5.6-0.2-8.3-0.1c-1.5,0-3-0.1-4.6-0.3
				c-2.1-0.5-4.2-0.8-6.3-1.1C79.6,40,79.6,39.9,79.6,39.8z"/>
			<path class="st14" d="M76.2,40.6c0.1,0,0.3,0,0.4,0c0,0.4-0.3,0.8-0.5,1.2c-1.2,1.4-2.9,2.4-4.6,3.2c-2.2,1-4.1,2.3-6,3.7
				c-1.8,1.2-3.4,2.6-4.8,4.3c-0.8,0.9-1.5,1.8-2,2.8c-0.6,1-0.8,2.1-1.1,3.3c-0.7,3.3-0.5,6.7-0.6,10.1c0,3.2-1.8,6-2,9.2
				c-0.1,1.7-0.2,3.4,0.1,5.1c0.5,2.3,1,4.6,1.8,6.8c0.5,1.3,0.9,2.7,1.2,4.1c0.2,1.5,0.3,3.1,0.3,4.6c0,1.6-0.2,3.1-0.3,4.7
				c-0.2,2.8-0.2,5.6,0.7,8.3c1.3,4.1,3.3,7.9,5.3,11.7c1.8,3.4,2.7,7.3,2.6,11.2c0.1,3.8-0.9,7.6-1.7,11.3c-0.7,3.2-1,6.4-0.5,9.7
				c0.2,2.2,0.9,4.2,1.7,6.3c1.1,2.6,2.4,5.1,3.8,7.6c0.4,0.8,0.9,1.6,1.2,2.5c0.5,1.2,1,2.4,1.3,3.7c0.5,2.8,0.8,5.7,0.8,8.5
				c0.1,1.9,0.1,3.8-0.1,5.6c-0.3,2.7-0.9,5.4-1.5,8.1c-0.3,1.3-0.8,2.6-0.9,3.9c-0.3,2.5,0.5,5.1,0,7.6c-0.3,1.3-0.9,2.6-0.9,4
				c-0.1,1.5,0.2,2.9,0.6,4.3c0.3,1.1,0.6,2.2,0.7,3.4c0.2,1.4,0,2.8,0.5,4.1c0.2,0.8,0.5,1.6,0.6,2.4c-0.1,0-0.2,0-0.3,0
				c-0.4-0.7-0.7-1.5-1-2.2c-0.5-1.3-0.3-2.7-0.5-4.1c-0.2-1.4-0.6-2.7-0.9-4c-0.3-1.3-0.6-2.6-0.4-3.9c0.1-1.8,1.1-3.5,1.1-5.4
				c0-1-0.1-2-0.1-2.9c-0.1-1.7,0-3.5,0.4-5.1c0.8-2.7,1.4-5.4,1.8-8.2c0.2-1.4,0.4-2.8,0.4-4.2c0-3.6-0.2-7.3-0.9-10.9
				c-0.3-2.2-1.3-4.2-2.2-6.2c-1.3-2.4-2.6-4.8-3.7-7.3c-1-2.2-1.8-4.5-2.1-6.9c-0.2-1.9-0.4-3.7-0.2-5.6c0.1-3,1-6,1.6-8.9
				c1.2-5.4,1.1-11.2-1.1-16.3c-0.9-2-2-3.9-3-5.9c-0.9-2-1.9-4-2.6-6c-0.4-1-0.8-2.1-1-3.1c-0.3-1.6-0.3-3.2-0.3-4.8
				c0-1.7,0.2-3.4,0.3-5.1c0.1-1.6,0-3.3-0.1-4.9c-0.3-2.9-1.7-5.6-2.4-8.4c-0.5-1.9-1-3.9-1-5.9c0-1.5,0-2.9,0.2-4.4
				c0.4-2.3,1.4-4.5,1.7-6.9c0.1-3.2-0.1-6.5,0.4-9.7c0.3-1.5,0.6-3.1,1.3-4.5c1-1.9,2.6-3.6,4.1-5.1c1.5-1.4,3.3-2.5,5-3.7
				c1.8-1.2,3.7-2.2,5.6-3.1C73.9,43,75.3,42.1,76.2,40.6z"/>
			<path class="st14" d="M79.3,41.3c0.1,0,0.3-0.1,0.4-0.2c0.6,0.2,1.2,0.6,1.7,0.9c1.1,0.6,2.4,0.8,3.5,1.2
				c1.1,0.4,2.2,0.5,3.3,0.6c0.8,0.1,1.6,0.2,2.4,0.2c1.3,0,2.7,0.1,4,0.3c1.5,0.1,2.9,0.5,4.3,0.9c3.1,0.8,5.8,2.6,8.1,4.8
				c1.5,1.5,2.8,3.4,3.5,5.5c0.9,2.5,1.3,5.1,1.6,7.7c0.2,1.9,0.3,3.8,0.6,5.7c0.3,2.2,0.9,4.3,1.7,6.4c0.7,1.8,1.7,3.5,2.3,5.4
				c0.4,1.1,0.7,2.2,0.9,3.3c0.5,3,0.9,6,0.8,9c-0.1,0.9,0,1.8,0,2.7c-0.2-0.1-0.3-0.4-0.3-0.6c-0.2-1.5-0.2-3-0.3-4.5
				c-0.2-2.2-0.4-4.4-0.8-6.5c-0.2-1.2-0.5-2.3-0.9-3.4c-0.6-1.9-1.7-3.5-2.4-5.4c-0.6-1.6-1.1-3.2-1.4-4.8
				c-0.5-2.6-0.6-5.2-0.9-7.8c-0.3-2.3-0.7-4.5-1.5-6.7c-0.6-1.7-1.5-3.3-2.7-4.7c-0.8-1-1.9-1.8-2.9-2.6c-1.1-0.8-2.2-1.5-3.4-2
				c-1.1-0.5-2.3-0.8-3.5-1.1c-1.3-0.3-2.6-0.4-3.9-0.5c-1.2-0.1-2.4,0-3.6-0.2c-1.6-0.1-3.2-0.3-4.8-0.7c-1.2-0.4-2.5-0.7-3.7-1.2
				c-0.7-0.3-1.3-0.8-1.9-1.2C79.3,41.7,79.3,41.5,79.3,41.3z"/>
			<path class="st14" d="M77.1,43.2c0.1,0,0.2,0,0.3,0c0,0.3-0.1,0.5-0.3,0.7c-0.6,0.7-1.4,1.2-2.2,1.7c-2,1-3.8,2.2-5.6,3.5
				c-2.1,1.4-3.8,3.2-5.3,5.2c-0.9,1.1-1.5,2.4-2,3.7c-1.7,4-1.4,8.5-1.5,12.8c-0.1,1,0,2-0.2,3c-0.2,1.8-0.7,3.5-0.9,5.2
				c-0.3,2.1-0.4,4.2,0.2,6.2c0.7,2.2,1.5,4.4,2.1,6.7c0.8,3,1.1,6.2,1,9.3c-0.1,1.5-0.2,3.1-0.3,4.6c0,1.5-0.1,3.1,0.4,4.6
				c0.6,2,1.6,3.9,2.7,5.7c0.9,1.5,1.8,2.9,2.9,4.3c2.3,3.2,4.1,6.9,5.1,10.8c0.5,2,0.5,4.1,0.4,6.1c-0.2,2.8-0.7,5.7-1.6,8.4
				c-0.9,2.7-2,5.5-2.1,8.3c-0.2,2.2,0.3,4.5,1,6.5c0.6,1.5,1.2,3,2.2,4.2c0.6,0.8,1.1,1.6,1.6,2.3c1.3,1.7,2.1,3.6,2.9,5.6
				c0.6,1.6,1.3,3.2,1.6,5c0.3,1.6,0.6,3.1,0.6,4.7c0.1,1.6,0.2,3.3,0,4.9c-0.1,1.2-0.4,2.3-0.6,3.5c-0.3,1.6-0.9,3.1-1.5,4.6
				c-0.5,1.2-0.9,2.4-1.5,3.5c-1,1.8-2.2,3.5-2.6,5.6c-0.2,1.3-0.4,2.6-0.5,4c-0.1,1.3-0.5,2.5-0.7,3.8c-0.1,1-0.3,2-0.4,2.9
				c-0.1,1.6,0.1,3.2,0.6,4.7c0.3,1.2,0.9,2.2,1.2,3.4c0.4,1.2,0.6,2.5,0.1,3.7c-0.3,0.7-0.4,1.7-1.2,2.1c0.4-0.5,0.6-1.1,0.7-1.7
				c0.4-1.3,0.2-2.8-0.3-4.1c-0.4-1.3-1.1-2.6-1.4-3.9c-0.3-1.3-0.4-2.5-0.4-3.8c0-1.3,0.3-2.5,0.4-3.7c0.1-0.8,0.3-1.6,0.5-2.4
				c0.1-0.8,0.1-1.6,0.2-2.4c0.2-1.4,0.3-2.7,0.6-4.1c0.7-2.1,2.2-3.9,3.1-6c1-2.3,2-4.7,2.4-7.2c0.3-1.8,0.6-3.6,0.5-5.4
				c-0.1-1.5,0-3-0.3-4.5c-0.2-1-0.4-2.1-0.6-3.1c-0.3-1.3-0.8-2.5-1.3-3.7c-0.6-1.4-1.1-2.9-1.9-4.2c-0.5-0.9-1.1-1.6-1.6-2.5
				c-0.5-0.8-1.1-1.5-1.5-2.3c-1.3-2.3-2.1-4.8-2.5-7.4c-0.3-2.2,0-4.5,0.6-6.6c0.7-2.7,1.9-5.2,2.4-7.9c0.7-3.2,1-6.5,0.6-9.7
				c-0.3-2.1-1-4.1-1.9-6.1c-0.8-1.6-1.6-3.2-2.6-4.7c-0.9-1.3-1.9-2.6-2.7-3.9c-1.5-2.3-3-4.8-3.8-7.5c-0.6-2.3-0.3-4.7-0.2-7.1
				c0.3-2.9,0.3-5.9-0.3-8.8c-0.5-2.9-1.6-5.6-2.5-8.4c-0.5-1.6-0.7-3.3-0.6-5c0.1-2.9,1.2-5.7,1.2-8.6c0.2-2.2,0-4.4,0.2-6.7
				c0.1-2.7,0.5-5.4,1.5-8c0.5-1.4,1.1-2.6,2-3.8c1.5-2,3.3-3.9,5.4-5.3c1.8-1.3,3.7-2.5,5.7-3.5C75.5,44.6,76.5,44,77.1,43.2z"/>
			<path class="st15" d="M79.7,45c0.1,0.2,0.2,0.4,0.3,0.5c0.1,0,0.3,0,0.4,0c0.3,0.6,0.8,1.1,1.2,1.7c0.7,0.8,1.4,1.8,2.4,2.4
				c1,0.6,1.9,1.2,2.9,1.7c0.7,0.3,1.4,0.6,2,0.9c0.8,0.4,1.8,0.6,2.6,1.2c1.4,1,2.7,2,3.9,3.3c1.8,1.8,3.4,3.8,4.7,6
				c1.2,1.8,2.1,3.7,2.9,5.6c0.8,1.9,1.4,3.9,1.9,5.9c0.2,0.8,0.5,1.5,0.6,2.3c-1.1,0.4-2.2,0.7-3.2,1.2c-0.4,0.2-0.8,0.5-0.8,1
				c0.2,2.4,0.1,4.8,0.1,7.2c0.1,2.1,0.7,4.2,1.5,6.2c0.9,2.3,2.3,4.4,3.7,6.4c0.7,1.1,1.5,2.2,2.3,3.2c1.3,1.8,2.7,3.5,3.6,5.6
				c0.4,1.3,1,2.5,1,3.9c0.1,1.4-0.5,2.7-1,4c-0.6,1.3-1.6,2.4-2.4,3.6c-1.2,1.6-2.5,2.9-3.9,4.3c-1.6,1.5-3.1,3.2-4.8,4.5
				c-1.1,0.8-2.2,1.8-3.6,2.2c-1.4,0.5-2.9,0.2-4.4,0.2c-3.1-0.1-6.1-1.2-8.9-2.5c-2.4-1.1-4.7-2.6-6.9-4.1c-1.9-1.1-3.6-2.5-5.2-4
				c-0.6-0.5-1.1-1-1.7-1.4c-0.8-1.4-1.6-2.8-2.3-4.3c0.3-0.8,0.4-1.7,0.5-2.5c0.3-2.7,0.3-5.5,0.3-8.2c-0.2-3.7-1.1-7.4-2.7-10.7
				c-0.3-0.7-0.6-1.5-1-2.1c0,0.1,0,0.3,0,0.3c-0.2-0.5-0.3-0.9-0.4-1.4c-0.4-1.4-0.9-2.8-1.3-4.2c-0.3-1.3-0.6-2.6-0.7-4
				c0.1,0.1,0.2,0.2,0.2,0.3c0.1-1.3,0.1-2.5,0.5-3.7c1-3.7,1.8-7.5,3-11.2c1.4-3.9,3.4-7.6,5.7-11.1c1.3-2.2,2.8-4.3,4.4-6.2
				c0.4-0.6,1-1.1,1-1.9l0,0c0.5-0.4,1-0.8,1.5-1.3C79.7,45.4,79.7,45.1,79.7,45z"/>
			<path class="st16" d="M80.4,45.5c0-0.1,0-0.2,0-0.3c0.6,0.4,1.2,0.6,1.8,0.9c1,0.5,2.1,0.8,3.3,1c1.4,0.2,2.8,0.4,4.2,0.7
				c1.6,0.3,3.2,0.5,4.7,0.7c2,0.4,4.1,0.9,5.8,2.2c1,0.8,1.8,1.7,2.6,2.6c1.3,1.8,2.3,3.9,3.3,5.9c0.8,1.7,1.2,3.5,1.7,5.2
				c0.5,1.7,0.9,3.4,1.2,5.1c0.4,2.2,0.8,4.3,1.2,6.5c0.2,1.6,0.6,3.1,0.9,4.7c0.4,2.1,1,4.2,1.6,6.3c0.5,1.7,1.2,3.3,1.8,5
				c0.5,1.2,1.1,2.4,1.6,3.6c0.5,1.4,1.1,2.7,1.8,4c-0.1,0.7-0.2,1.4-0.4,2.1c0.1,0.1,0.1,0.2,0.2,0.2c-0.7,2.7-1.9,5.3-2.7,7.9
				c-1.5,4.8-3.4,9.5-4.8,14.3c-0.4,1.6-0.7,3.2-1.1,4.8c-0.3,1.4-0.4,2.8-0.6,4.2c-0.2,1.9-0.5,3.9-0.2,5.8c0.3,2.5,1.1,4.8,2,7.1
				c0.5,1.1,0.9,2.3,1.5,3.3c0.2,0.3,0.4,0.6,0.5,0.9c-0.1,0.3-0.3,0.6-0.4,0.9c-0.4,0.4-0.8,0.9-1.3,1.3c-1.4,1.2-3,2.1-4.6,3
				c-1,0.6-2.2,0.9-3.3,1.3c-0.5-1.2-0.6-2.5-1.1-3.8c-0.5-1.5-0.6-3-0.7-4.5c-0.2-1.5-0.2-3.1-0.1-4.7c0.1-1.7,0-3.4,0-5.1
				c0-1.4,0-2.8-0.1-4.1c-0.9,0.2-1.6,0.7-2.4,1.1c-1.3,0.7-2.5,1.3-4,1.5c-2.9,0.3-5.9-0.3-8.5-1.7c-0.7-0.3-1.4-0.7-2.1-1.1
				c0.1,1.7-0.1,3.3-0.1,5c-0.2,2.9-0.4,5.9-1,8.7c-0.3,1.5-0.5,3-0.7,4.6c-0.1,0.9-0.1,1.8-0.6,2.7c-1-0.7-2-1.6-2.7-2.6
				c-0.5-0.6-1.1-1.1-1.2-1.9c0.2-1,0.6-2,0.7-3c0.1-1.1,0.4-2.1,0.3-3.2c0-1.4,0-2.7,0-4.1c-0.1-3.2-0.8-6.4-1.5-9.6
				c-0.7-3.1-2.1-5.9-3.6-8.7c-0.8-1.6-1.7-3.1-2.5-4.7c0.6,0.4,1.1,1,1.7,1.4c1.6,1.5,3.3,2.9,5.2,4c2.2,1.5,4.4,3,6.9,4.1
				c2.8,1.3,5.8,2.4,8.9,2.5c1.4,0,2.9,0.3,4.4-0.2c1.4-0.4,2.5-1.4,3.6-2.2c1.8-1.3,3.3-2.9,4.8-4.5c1.4-1.4,2.7-2.7,3.9-4.3
				c0.8-1.2,1.8-2.3,2.4-3.6c0.6-1.3,1.1-2.6,1-4c0-1.4-0.5-2.6-1-3.9c-0.8-2.1-2.3-3.8-3.6-5.6c-0.8-1-1.6-2.1-2.3-3.2
				c-1.4-2-2.8-4.1-3.7-6.4c-0.8-2-1.4-4-1.5-6.2c0-2.4,0.1-4.8-0.1-7.2c-0.1-0.5,0.4-0.8,0.8-1c1-0.5,2.1-0.8,3.2-1.2
				c-0.2-0.8-0.4-1.5-0.6-2.3c-0.6-2-1.1-4-1.9-5.9c-0.8-2-1.8-3.8-2.9-5.6c-1.4-2.2-2.9-4.2-4.7-6c-1.2-1.2-2.5-2.3-3.9-3.3
				c-0.8-0.5-1.7-0.7-2.6-1.2c-0.6-0.4-1.3-0.6-2-0.9c-1-0.4-2-1.1-2.9-1.7c-1-0.6-1.7-1.5-2.4-2.4C81.2,46.6,80.7,46.1,80.4,45.5z"
				/>
			<path class="st16" d="M73.3,50.2c1.6-1.2,3.3-2.2,4.9-3.4c-0.1,0.8-0.6,1.3-1,1.9c-1.6,2-3,4.1-4.4,6.2
				c-2.2,3.5-4.2,7.2-5.7,11.1c-1.2,3.7-2,7.4-3,11.2c-0.5,1.2-0.4,2.5-0.5,3.7c-0.1-0.1-0.2-0.2-0.2-0.3c-0.2-1.9-0.4-3.8-0.3-5.7
				c0-1.1,0-2.3,0.1-3.4c0.1-1.3,0.2-2.7,0.4-4c0.5-2.7,1.2-5.4,2.2-7.9c0.8-2.2,2-4.2,3.5-5.9C70.4,52.3,71.9,51.3,73.3,50.2z"/>
			<path class="st15" d="M68,57.8c0.1-0.5,0.4-1,0.8-1.4C68.6,56.9,68.3,57.4,68,57.8z"/>
			<path class="st15" d="M64.9,64.4c-0.1-0.7,0.3-1.3,0.6-2C65.4,63.1,65.1,63.7,64.9,64.4z"/>
			<path class="st16" d="M65.7,89.9c0.4,0.7,0.7,1.4,1,2.1c1.6,3.4,2.6,7,2.7,10.7c0,2.7,0,5.5-0.3,8.2c-0.1,0.8-0.2,1.7-0.5,2.5
				c-0.5-1.3-0.9-2.7-1.1-4.1c-0.4-1.7-0.7-3.4-0.8-5.2c-0.2-1.4,0-2.9-0.2-4.3c0-2-0.1-4-0.3-6c-0.1-1.2-0.4-2.4-0.6-3.6
				C65.7,90.1,65.7,90,65.7,89.9z"/>
			<path class="st16" d="M88,103c0.4-0.2,0.8-0.3,1.2-0.1c0.7,0.3,1.5,0.2,2.3,0.3c1.1,0,2.3,0.1,3.3-0.3c0.4-0.1,0.8-0.2,1.2-0.1
				c0.1,0.6-0.3,1-0.6,1.4c-0.7,1-1.3,2.2-2.4,2.9c-0.5,0.4-1.1,0.4-1.6,0.3c-0.6-0.2-1.2-0.5-1.6-1c-0.6-0.8-1-1.7-1.6-2.5
				C88,103.6,87.8,103.2,88,103z"/>
			<path class="st14" d="M132.4,103.3c0.1,0,0.2,0,0.2,0c0,1.6,0.1,3.1,0.1,4.7c-0.1,2.1-0.2,4.2-0.5,6.3c-0.2,1.5-0.4,3-0.7,4.4
				c-0.3,1.3-0.4,2.6-0.6,4c-0.2,1.2-0.3,2.5-0.4,3.7c-0.2,2.2-0.4,4.3-0.4,6.5c-0.1,1.8,0.2,3.6,0.4,5.4c0.2,1.7,0.1,3.3,0.1,5
				c0,2.8-0.6,5.5-1.3,8.2c-0.4,1.4-0.6,2.8-0.9,4.2c-0.4,2-0.9,4.1-0.9,6.1c0,1,0.2,2,0.3,3.1c0,1.1,0.1,2.1,0,3.2
				c-0.1,1.6-0.7,3.2-1.1,4.7c-0.3,1.4-0.5,2.9-0.5,4.3c0,0.8,0,1.7,0.2,2.5c0.2,1.9,0.5,3.8-0.1,5.7c-0.3,1-0.7,2-1,2.9
				c-0.2,0.4-0.3,0.9-0.7,0.9c0.3-1.3,0.8-2.6,1-3.9c0.4-2.3,0-4.6-0.2-6.9c0-1.4,0-2.8,0.3-4.2c0.3-1.7,0.9-3.4,1.2-5.1
				c0.2-1,0.2-2.1,0.2-3.2c0-1.6-0.4-3.2-0.3-4.8c0-1.1,0.2-2.2,0.4-3.2c0.3-1.6,0.7-3.2,1-4.8c0.7-2.8,1.5-5.7,1.5-8.6
				c0.1-1.3,0-2.6,0-4c-0.1-1.8-0.3-3.6-0.5-5.4c-0.2-3.4,0.2-6.8,0.5-10.2c0.1-1.3,0.4-2.5,0.5-3.8c0.2-1.4,0.5-2.8,0.7-4.3
				c0.2-1.8,0.5-3.6,0.6-5.4c0.1-2,0.4-4,0.5-6C132.3,104.6,132.4,104,132.4,103.3z"/>
			<path class="st16" d="M94.9,115.5c0.7-0.1,1.4-0.4,2.1-0.5c0,0,0.1,0.1,0.1,0.1c-0.2,0.4-0.1,1-0.5,1.3c-0.7,0.8-1.3,1.8-2,2.6
				c-0.5,0.3-1.1,0.2-1.6,0.3c-0.8,0-1.7,0.3-2.5,0.1c0-0.1,0-0.3,0-0.4c-0.2-0.1-0.5-0.1-0.7-0.2c-0.9-0.9-1.9-1.7-2.6-2.8
				c-0.1-0.3-0.1-0.6-0.1-0.9c0.7,0,1.2,0.3,1.9,0.4C90.9,115.7,92.9,116.1,94.9,115.5z"/>
			<path class="st14" d="M133.6,118.6c0-0.2,0.3-0.4,0.3-0.1c0.3,3,0.1,6.1,0.5,9.1c0.3,3.4,1.5,6.7,1.7,10.1c0,1,0,2-0.1,2.9
				c-0.4,3.1-1.2,6.1-1.8,9.2c-0.2,1.5-0.3,3.1-0.2,4.6c0.1,1.6,0,3.2-0.6,4.7c-0.5,1.2-1.1,2.3-1.4,3.5c-0.5,1.6-0.7,3.3-0.7,5
				c-0.2,3.4,0.1,6.8,0,10.2c-0.3,3.1-0.4,6.3-1.2,9.3c-0.3,1.3-0.8,2.6-1.4,3.8c-0.6,0.9-1.2,1.8-1.7,2.7c-0.7,1.1-1.2,2.2-1.9,3.3
				c-0.6,0.9-1,1.9-1.4,2.9c-0.6,1.2-0.9,2.5-1.1,3.8c-0.2,1-0.2,2.2-0.8,3.1c-0.8,1.2-1.5,2.5-1.9,3.9c-0.3,1.3-0.6,2.6-0.6,3.9
				c-0.1,1.4,0,2.8-0.2,4.1c-0.2,1.2-0.9,2.2-1.6,3.1c-0.2,0.3-0.4,0.5-0.7,0.7c-0.2,0.1-0.4,0-0.7,0c0-0.1,0-0.2,0-0.2
				c0.5-0.3,0.7-0.8,1-1.3c0.4-0.7,0.9-1.4,1.1-2.2c0.4-1.5,0.1-3,0.2-4.5c0-1.5,0.3-3,0.8-4.5c0.4-1.3,1.1-2.5,1.8-3.6
				c0.5-0.8,0.5-1.8,0.7-2.7c0.2-1.4,0.6-2.8,1.3-4c0.5-1,0.9-2.1,1.5-3.1c0.5-0.8,0.9-1.7,1.4-2.5c0.6-0.9,1.1-1.9,1.7-2.8
				c0.7-1,1.2-2.2,1.6-3.5c0.3-1.2,0.6-2.4,0.8-3.6c0.3-1.9,0.4-3.8,0.5-5.6c0.2-1.6,0.1-3.2,0.1-4.9c-0.1-2.9-0.2-5.8,0.2-8.7
				c0.2-1.4,0.6-2.9,1.2-4.2c0.4-1.1,1-2.1,1.2-3.3c0.4-1.9,0-3.8,0.1-5.6c0.1-2.5,0.9-4.9,1.3-7.4c0.3-1.4,0.5-2.7,0.7-4.1
				c0.2-1.5,0.1-3-0.1-4.5c-0.4-2.9-1.3-5.6-1.5-8.5C133.3,124.5,133.3,121.6,133.6,118.6z"/>
			<path class="st14" d="M46,119.6c0.3,0.4,0.2,0.9,0.3,1.4c0.1,1,0.2,2.1,0,3.1c-0.4,1.9-1,3.8-0.9,5.8c0,0.8,0.3,1.6,0.6,2.4
				c0.7,1.8,1.1,3.6,1.2,5.5c0.1,1.1-0.2,2.1-0.3,3.2c-0.1,1.1-0.2,2.3,0.1,3.4c0.2,1.6,0.9,3.1,1.6,4.6c0.5,1,0.9,2.1,1.3,3.1
				c0.5,1.2,0.8,2.5,1.1,3.8c0.2,1.1,0.4,2.1,0.4,3.2c-0.1,0-0.2,0-0.2,0c-0.3-1.5-0.7-2.9-1.1-4.3c-0.3-1.3-0.9-2.6-1.4-3.8
				c-0.4-1.2-1.1-2.4-1.5-3.6c-0.8-1.9-1.1-4-1-6c0-1.3,0.4-2.5,0.3-3.8c-0.2-2-0.8-4-1.5-5.9c-0.7-1.8-0.3-3.9,0-5.7
				c0.2-1.2,0.7-2.4,0.8-3.7C45.9,121.4,45.7,120.5,46,119.6z"/>
			<path class="st15" d="M83.9,134.4c0.7,0.3,1.4,0.7,2.1,1.1c2.6,1.4,5.6,2.1,8.5,1.7c1.4-0.2,2.7-0.9,4-1.5
				c0.8-0.4,1.5-0.9,2.4-1.1c0.1,1.4,0,2.8,0.1,4.1c0,1.7,0,3.4,0,5.1c-0.1,1.5-0.2,3.1,0.1,4.7c0.1,1.5,0.2,3.1,0.7,4.5
				c0.4,1.2,0.6,2.5,1.1,3.8c-1.2,0.4-2.3,0.6-3.5,0.9c-2.1,0.5-4.3,0.3-6.5,0.3c-1.1-0.1-2.2,0-3.3-0.1c-1.5-0.3-3-0.4-4.5-0.9
				c-1.2-0.3-2.3-1-3.4-1.6l0,0c0.4-0.8,0.4-1.8,0.6-2.7c0.2-1.5,0.4-3.1,0.7-4.6c0.6-2.9,0.8-5.8,1-8.7
				C83.8,137.8,83.9,136.1,83.9,134.4z"/>
		</g>
		<g>
			<g>
				<path class="st17" d="M77.1,52.6c0.2-0.2,0.6-0.2,0.8-0.1c0,0.3-0.1,0.6-0.3,0.8c-1.2,1-2.2,2.1-2.9,3.5c-0.1,0-0.2,0-0.4,0
					c0-0.7,0.4-1.3,0.7-1.9C75.6,54.1,76.3,53.3,77.1,52.6z"/>
				<path class="st18" d="M103.2,75.5c1.4-0.4,2.8-0.6,4.2-0.7c0.7-0.1,1.4,0,2,0.2c0.2,0,0.3,0.1,0.4,0.3c0.1,0,0.2,0,0.3,0
					c0,0.7,0.2,1.4-0.1,2c-0.7,0-1.4,0-2,0.2c-2.2,0.7-4.5,0.9-6.7,1.6c-0.8,0.2-1.5,0.5-2.3,0.6c-0.3,0-0.6,0-0.9,0
					c0-0.2,0-0.4,0-0.5c0-0.1,0.1-0.2,0.2-0.3c0.8-0.7,1.4-1.5,2.3-2.1C101.4,76.2,102.3,75.9,103.2,75.5z"/>
				<path class="st18" d="M70.2,76.2c2.4-0.7,5-1,7.4-0.5c1,0.2,2,0.5,2.9,0.9c1,0.5,2,1.1,3,1.7c0.2,0.3,0.5,0.6,0.8,0.8
					c-0.2,0-0.3,0-0.5,0c-1.4-0.4-3-0.3-4.4-0.6c-3.7-0.5-7.5,0-11.3,0.3c-0.9,0-1.8,0.2-2.7,0.1c-0.2-0.3-0.6-0.1-0.9-0.1
					c0-0.2,0-0.3,0-0.5c0.8-0.3,1.5-0.7,2.2-1C68,77,69.1,76.6,70.2,76.2z"/>
				<path class="st19" d="M97.3,80.5c0.3-0.5,0.6-0.9,0.8-1.4c0,0.2,0,0.4,0,0.5c0.3,0,0.6,0,0.9,0l0.2,0.1c-0.3,0.1-0.7,0.2-1,0.2
					c-0.2,0.4-0.4,0.8-0.6,1.2C97.6,81.1,97.4,80.7,97.3,80.5z"/>
				<path class="st20" d="M97.3,80.5c0.1,0.2,0.2,0.3,0.3,0.5c-0.6,2-1.2,3.9-1.5,6c-0.4,2-0.3,4.1-0.1,6.1c0.2,1.5,0.6,2.9,0.8,4.3
					c0.2,1.2,0.8,2.2,0.7,3.4c0.1,0,0.2,0,0.3,0c-0.2,0.5-0.5,1-0.9,1.5c-0.5,0.7-1.4,1-2.1,1.2c-1.6,0.4-3.3,0.2-4.9,0.1
					c-1-0.1-2.1-0.3-2.7-1.2c-0.5-0.7-0.1-1.9,0.8-1.9c0,0.1,0,0.2,0,0.3c-0.2,0.3-0.4,0.8-0.2,1.1c0.5,0.8,1.6,0.9,2.5,1.1
					c1.3,0.3,2.7,0.2,4,0c1-0.2,2.1-0.5,2.6-1.5c0.1-1.3-0.4-2.5-0.6-3.7c-0.3-1.6-0.9-3.2-1.1-4.9c-0.3-2.8,0-5.6,0.7-8.4
					C96.2,83.2,96.7,81.8,97.3,80.5z"/>
				<path class="st21" d="M106.6,81.3c0.6-0.3,1.3,0,1.6,0.5c0.7,1,0.4,2.3-0.1,3.3c-0.3,0.7-1.4,0.9-1.9,0.4
					c-0.6-0.6-0.7-1.6-0.5-2.4C105.7,82.5,105.9,81.7,106.6,81.3z"/>
				<path class="st21" d="M73.4,82.4c0.5-0.2,1,0.2,1.2,0.5c0.4,0.6,0.3,1.3,0.3,1.9c0,0.8-0.1,1.7-0.8,2.2
					c-0.4,0.4-1.1,0.2-1.5-0.2c-0.6-0.8-0.7-2-0.5-3C72.5,83.3,72.9,82.7,73.4,82.4z"/>
				<path class="st20" d="M109.6,87c0.5-0.2,0.9-0.5,1.3-0.8c0,0.2,0.1,0.5-0.1,0.6c-0.5,0.6-1.3,0.9-2,1.1c-1,0.3-2.1,0.4-3.2,0.3
					c-0.4-0.1-0.8-0.3-1.1-0.5c0-0.1,0-0.3,0-0.4c0.7-0.1,1.3,0.2,2,0.2C107.5,87.5,108.6,87.4,109.6,87z"/>
				<path class="st22" d="M71,87c0.3,0,0.6,0,0.8,0.1c1.1,0.6,2.4,0.8,3.6,1.1c0,0.2,0,0.3,0,0.5c-1.1,0-2.1-0.1-3.2-0.4
					c-0.4-0.1-0.8-0.3-1.1-0.6C71,87.5,71,87.3,71,87z"/>
				<path class="st23" d="M77.3,88.4c0.1,0,0.2,0,0.4,0c0,0.2,0.1,0.5-0.2,0.7c-1.2,1-2.9,1.4-4.5,1.2c-0.7-0.1-1.4-0.3-1.9-0.8
					C70.9,89.3,71,89,71,88.8c0.5,0.1,1,0.3,1.5,0.4C74.1,89.5,75.9,89.3,77.3,88.4z"/>
				<path class="st17" d="M92.5,88.5c0.2,0,0.5-0.1,0.5,0.1c0.1,0.3,0,0.6,0,1c-0.2,2.9-0.2,5.9,0.6,8.8c-0.2,0-0.3,0-0.5-0.1
					c-0.5-1-0.7-2.1-0.9-3.2c-0.2-1.9-0.5-3.7-0.1-5.6C92.2,89.1,92.3,88.8,92.5,88.5z"/>
				<path class="st24" d="M69.6,92.8c0.1-0.1,0.2-0.3,0.2-0.4c0.5,0.1,0.9,0.4,1.2,0.7c0.8,0.9,1.4,1.8,2,2.9
					c0.2,0.4,0.3,0.8,0.4,1.2c-0.1,0-0.2,0-0.3,0c-0.6-1.2-1.4-2.2-2.3-3.2c-0.3-0.3-0.5-0.6-0.9-0.6c0,0,0.1-0.1,0.2-0.1
					C69.9,93.1,69.7,92.9,69.6,92.8z"/>
				<path class="st25" d="M107.1,92.6c1.6-0.3,3.3,0.3,4.6,1.4c1.1,0.9,1.7,2.2,2.1,3.6c0.4,1.8,0.1,3.8-0.8,5.4
					c-0.8,1.4-2.3,2.4-4,2.6c-1.6,0-3.3-0.1-4.7-0.9c-1.5-0.8-2.5-2.4-2.8-4c-0.5-2.1,0.2-4.3,1.7-5.8
					C104.2,93.8,105.5,92.9,107.1,92.6z"/>
				<path class="st25" d="M71,93.1c1.6-0.1,3.2,0.1,4.7,0.8c1.2,0.6,2.3,1.5,2.9,2.7c1,2,0.9,4.4-0.1,6.3c-0.8,1.6-2.2,2.8-3.8,3.6
					c-1.5,0.6-3.2,1-4.8,0.6c-0.6-0.1-1-0.5-1.5-0.7c-0.7-0.1-1-0.8-1.2-1.4c-0.3-0.8-0.4-1.6-0.4-2.5c0-1.1-0.1-2.1-0.1-3.2
					c0-1.2,0.1-2.4,0-3.6c0-0.3,0-0.7,0.1-1c0.2-0.4,0.5-0.6,0.9-0.8c0.6-0.5,1.4-0.5,2.1-0.8c0.4,0,0.7,0.4,0.9,0.6
					c0.9,1,1.7,2,2.3,3.2c0.1,0,0.2,0,0.3,0c-0.1-0.4-0.2-0.8-0.4-1.2C72.4,95,71.8,94,71,93.1z"/>
				<path class="st26" d="M103.3,100.2c-0.1-0.5-0.1-1.1,0-1.7C103.3,99.1,103.3,99.7,103.3,100.2z"/>
				<path class="st27" d="M111.2,98.6c-0.1,0.8-0.3,1.6-0.6,2.3c-0.1,0.3-0.5,0.3-0.8,0.5C110.5,100.6,111,99.6,111.2,98.6z"/>
				<path class="st28" d="M69.6,103.8c0.2,0.1,0.1,0.7,0,0.8C69.5,104.4,69.5,104.1,69.6,103.8z"/>
				<path class="st19" d="M92.2,104.4c0.2,0,0.3,0,0.5,0c0.2,0.9,0.1,1.9,0.5,2.7c-0.2,0-0.4,0-0.6,0
					C92.4,106.3,92.1,105.4,92.2,104.4z"/>
				<path class="st19" d="M90.7,104.6c0.1,0,0.3,0,0.4,0c0.2,0.8,0.2,1.6,0.4,2.5c0,0.2,0,0.3,0.1,0.5c-0.1,0-0.3,0-0.4,0
					c-0.1-0.1-0.2-0.3-0.2-0.4C90.6,106.3,90.4,105.4,90.7,104.6z"/>
				<path class="st25" d="M87.5,107.9c1.1-0.4,2.2-0.8,3.4-0.8c0.1,0.1,0.1,0.3,0.2,0.4c0.1,0,0.3,0,0.4,0c0-0.2,0-0.3-0.1-0.5
					c0.4,0,0.8,0,1.2,0.1c0.2,0,0.4,0,0.6,0c1,0,2,0.3,3,0.5c1.1,0.2,2.1,0.6,3,1.2c0.6,0.4,1.2,0.7,1.5,1.3
					c0.1,0.2,0.3,0.4,0.6,0.5c0,0.1,0.1,0.2,0.1,0.3c-1.8,0-3.7,0-5.5,0.2c-2.1,0.3-4.3,0.1-6.4,0.3c-1.8,0-3.6,0.2-5.4,0.4
					c-0.6,0.1-1.2,0.3-1.8,0.5c0.1-0.4,0.2-0.8,0.5-1.1c0.6-0.7,1.3-1.3,2-1.8C85.8,108.9,86.6,108.3,87.5,107.9z"/>
				<path class="st29" d="M90.9,108.3c0.4,0,0.9-0.2,1.2,0.1c-0.6,0.4-1.3,0.4-1.9,0.6c-1.3,0.3-2.4,0.8-3.7,1.2
					c-0.1-0.1-0.2-0.3-0.2-0.4C87.6,108.8,89.3,108.5,90.9,108.3z"/>
				<path class="st30" d="M95.9,111.2c1.8-0.2,3.7-0.1,5.5-0.2c0.1,0,0.2,0,0.3,0c0,0.1,0,0.3,0,0.4c-0.1,0.1-0.3,0.1-0.4,0.2
					c-0.8,0.2-1.6,0.2-2.4,0.2c-0.9,0-1.9,0.2-2.8,0.2c-1.8,0-3.6,0.1-5.4,0.1c-1.8,0-3.6,0-5.3,0.4c-1.1,0.2-2.1,0.5-3.2,0.5
					l-0.1,0c0-0.2,0-0.3,0-0.5c0.1,0,0.2-0.1,0.2-0.1c0.6-0.3,1.1-0.4,1.8-0.5c1.8-0.2,3.6-0.3,5.4-0.4
					C91.6,111.3,93.8,111.4,95.9,111.2z"/>
				<path class="st25" d="M98.9,111.9c0.8,0,1.6,0,2.4-0.2c-0.5,0.5-1,0.9-1.6,1.3c-1.9,1.5-4.1,2.6-6.5,2.9c-1,0.1-2,0.2-3,0.1
					c-1-0.1-2.1-0.3-3-0.6c-0.9-0.3-1.7-0.7-2.6-1c-0.8-0.3-1.6-0.8-2.4-1.3c1.1,0,2.1-0.3,3.2-0.5c1.8-0.3,3.5-0.3,5.3-0.4
					c1.8,0,3.6-0.1,5.4-0.1C97.1,112,98,111.9,98.9,111.9z"/>
				<path class="st31" d="M93.6,113.4c1-0.1,1.9-0.1,2.9-0.4c0.1,0.1,0.1,0.2,0.2,0.3c-0.3,0.1-0.6,0.2-0.9,0.2
					c-1.2,0.1-2.5,0.4-3.7,0.4c-1.6-0.1-3.3,0.1-4.9-0.3c0-0.1,0-0.3,0-0.4c0.9-0.1,1.8,0.1,2.6,0.2C91,113.5,92.3,113.6,93.6,113.4
					z"/>
				<path class="st32" d="M86.4,113.6c0.1-0.1,0.3-0.1,0.4,0.1C86.8,113.9,86.3,113.8,86.4,113.6z"/>
				<path class="st33" d="M92.5,114.6c0.4-0.1,0.9-0.2,1.4-0.2C93.5,114.6,93,114.7,92.5,114.6z"/>
				<path class="st34" d="M112.6,115.9c0.1,0,0.2,0,0.2-0.1c0,0.4,0,0.8-0.3,1.1c-0.7,1.1-1.4,2-2.2,3c-0.7,0.9-1.5,1.7-2.4,2.5
					c-0.9,0.8-1.7,1.8-2.6,2.6c-0.7,0.6-1.4,1.3-2.2,1.9c0.3-0.4,0.6-0.7,0.9-1c-0.1,0-0.3,0.1-0.4,0.1c0.9-0.9,1.9-1.8,2.8-2.7
					c0.6-0.7,1.3-1.3,1.9-2c0.8-0.9,1.6-1.7,2.4-2.6C111.4,117.6,112,116.8,112.6,115.9z"/>
				<path class="st35" d="M70.5,116.9c1.6,1.2,2.9,2.7,4.4,4c1.2,1,2.4,1.9,3.6,2.9c2.2,1.7,4.7,2.8,7.3,3.7
					c1.1,0.4,2.2,0.7,3.3,1.2c1.6,0.6,3.2,1,4.9,1.2c1.4,0.1,2.8-0.2,4.1-0.8c1.3-0.6,2.6-1.1,3.7-1.9c0.6-0.4,1.2-0.9,1.8-1.3
					c0.1,0,0.3-0.1,0.4-0.1c-0.3,0.3-0.6,0.6-0.9,1c-0.6,0.6-1.3,1-2,1.5c-1.2,0.9-2.6,1.5-4,1.9c-0.9,0.3-1.9,0.1-2.9,0.2
					c-1.4,0.2-2.8-0.3-4.2-0.6c-1-0.2-1.8-0.7-2.8-0.9c-0.9-0.3-1.8-0.7-2.8-1c-1.6-0.7-3.2-1.3-4.7-2.3c-1.3-0.7-2.4-1.7-3.6-2.6
					c-2-1.5-3.7-3.3-5.4-5.1C70.7,117.6,70.5,117.3,70.5,116.9z"/>
				<path class="st36" d="M91.1,123.1c1.2-0.7,2.8-1,4.1-0.5c0,0.1,0,0.2,0,0.3c-1.4-0.3-2.8,0.3-4.1,0.6
					C91.1,123.4,91.1,123.2,91.1,123.1z"/>
			</g>
			<path class="st37" d="M131.5,244.6c0-0.5,0.1-1,0.1-1.6c0.1-1.6,0.4-3.2,0.7-4.9c0.4-2.4,0.7-4.8,1.1-7.2
				c0.2-1.1,0.3-2.2,0.6-3.2c0.7-2.3,1.4-4.7,2.5-6.9c0.9-2.4,2-4.7,3.2-6.9c2.1-3.8,4.1-7.6,6.7-11.1c1.5-2.1,3-4.1,4.5-6.1
				c0.2-0.3,0.3-0.7,0.4-1.1c-0.5,0-1,0.3-1.3,0.7c-1.7,1.7-3.3,3.7-4.7,5.7c-2.3,3.1-4.2,6.6-6,10c-0.5,1-1,2.1-1.6,3.1
				c0.2-1.2,0.5-2.4,0.8-3.7c0.6-2.5,1.4-5,2.5-7.3c1.1-2.5,2.4-5,3.3-7.6c-0.2,0-0.5-0.1-0.7,0.2c-0.5,0.6-0.8,1.3-1.2,2
				c-1.3,2.5-2.6,5-3.6,7.7c-1.3,3.3-1.8,6.8-2.2,10.3c-0.1,1-0.3,1.9-0.7,2.8c-0.4,1.1-0.8,2.3-1.3,3.5c0.1-0.7,0.1-1.3,0.2-2
				c-0.5,1.5-0.5,3-1,4.5c-0.2,1-0.5,1.9-0.5,2.9c0,1-0.2,1.9-0.4,2.9c-0.5,3.2-1,6.4-1.5,9.6c-0.2,1.2-0.3,2.5-0.3,3.7H131.5z"/>
			<path class="st37" d="M19.6,203.9c0.7,0.4,1.1,1.1,1.7,1.7c0.8,0.9,1.4,2,2.3,2.9c0.8,0.8,1.6,1.7,2.3,2.6
				c1.1,1.5,2.2,3.1,3.4,4.5c1.4,1.7,2.7,3.4,3.9,5.2c1.4,2.1,2,4.6,3.2,6.8c0.4,0.9,0.8,1.8,0.9,2.8c0.1,0.6,0,1.3,0.4,1.9
				c0.4,0.6,0.8,1.3,1.1,2c0.6,1.3,1.1,2.8,1.6,4.2c0-0.3,0.1-0.6,0.1-0.8c0.2,1.3,0.3,2.6,0.9,3.7c-0.1,0.2-0.2,0.3-0.3,0.5
				c-0.2-0.6-0.4-1.2-0.6-1.7c-0.3-0.6-0.9-1-1.1-1.6c-0.4-1.3-0.9-2.6-1.4-3.8c-0.7-1.4-1.6-2.7-2.5-3.9c-1.2-1.7-2.5-3.3-3.8-4.9
				c-1.3-1.5-2.7-3-4-4.4c-0.9-1-2-1.7-3.1-2.6c-0.5-0.4-1.2-0.9-1.1-1.6c0.6,0.4,1.1,0.9,1.7,1.3c0.6,0.4,1.3,0.8,1.9,1.3
				c1.3,0.9,2.3,2.2,3.3,3.3c1.5,1.6,2.9,3.3,4.2,5c0.6,0.8,1.1,1.7,1.8,2.4c-0.1-1.1-0.5-2.2-1-3.2c-0.7-1.2-1.3-2.4-2-3.7
				c-0.5-1.1-1.1-2.1-1.8-3.1c-1.4-2-2.9-4-4.4-6c-1.2-1.6-2.3-3.4-3.7-4.9c-0.8-0.9-1.5-1.9-2.2-2.9
				C20.6,205.9,19.8,205,19.6,203.9z"/>
			<path class="st37" d="M87.1,244.6c0.1-0.6,0.2-1.3,0.4-1.9c0.3-1.6,0.9-3.1,1.5-4.5c0.8-2,1.9-3.8,2.8-5.8c1-2.4,1.7-5,2.1-7.6
				c0.1-0.8,0.2-1.7,0.2-2.5c-0.1-0.1-0.3-0.2-0.4-0.2c-0.5,0.9-0.7,1.9-1,2.8c-0.4,1.5-0.8,2.9-1.3,4.3c-0.6,1.9-1.5,3.8-2.3,5.6
				c-1,2.5-2,5-2.5,7.6c-0.1,0.7-0.2,1.4-0.3,2.2H87.1z"/>
			<path class="st37" d="M51.4,230.6c0.4,2.3,0.6,4.7,1.3,6.9c0.8,2.2,1.6,4.5,2.7,6.6c0.1,0.1,0.1,0.3,0.2,0.4H57
				c-0.8-1.6-1.5-3.2-2.1-4.8c-0.5-1.5-1.2-3-1.5-4.6c-0.4-2-0.7-4.1-1.2-6.1c-0.3-1.4-0.7-2.8-1.3-4c-0.3-0.6-0.5-1.3-1.2-1.5
				c0.1,0.9,0.6,1.8,0.8,2.7C50.9,227.7,51.1,229.1,51.4,230.6z"/>
			<path class="st37" d="M108.5,233.4c0.2,0,0.5,0,0.7,0.3c0.4,0.6,0.5,1.2,0.7,1.9c0.7,2.9,1.4,5.8,1.9,8.8
				c-0.2,0.4-0.5-0.1-0.6-0.3c-0.4-1-0.6-2.1-1-3.2c-0.4-1.5-1.2-2.8-1.4-4.3C108.5,235.6,108.3,234.5,108.5,233.4z"/>
		</g>
	</g>
</g>
</svg>
