<?xml version="1.0" encoding="utf-8"?>
<!-- Generator: Adobe Illustrator 25.2.0, SVG Export Plug-In . SVG Version: 6.00 Build 0)  -->
<svg version="1.1" id="Layer_1" xmlns="http://www.w3.org/2000/svg" xmlns:xlink="http://www.w3.org/1999/xlink" x="0px" y="0px"
	 viewBox="0 0 180 180" style="enable-background:new 0 0 180 180;" xml:space="preserve">
<style type="text/css">
	.st0{clip-path:url(#SVGID_2_);}
	.st1{fill:#B65A35;}
	.st2{fill:#F2844F;}
	.st3{fill:#AED4DB;}
	.st4{fill:#F95939;}
	.st5{fill:#E56324;}
	.st6{fill:#FCBFA3;}
	.st7{fill:#B95D38;}
	.st8{fill:#CC492F;}
	.st9{fill:#160E0B;}
	.st10{fill:#FEBB9C;}
	.st11{fill:#FEB898;}
	.st12{fill:#D0444F;}
	.st13{fill:#FFFFFF;}
	.st14{fill:#803F26;}
</style>
<g>
	<defs>
		<rect id="SVGID_1_" width="180" height="180"/>
	</defs>
	<use xlink:href="#SVGID_1_"  style="overflow:visible;fill:#7D22F4;"/>
	<clipPath id="SVGID_2_">
		<use xlink:href="#SVGID_1_"  style="overflow:visible;"/>
	</clipPath>
	<g class="st0">
		<g>
			<path class="st1" d="M79.5,23.3c2-0.3,4-0.2,6,0c2.2,0.2,4.4,0.6,6.6,1.1c1,0.3,2.1,0.4,3,1c0.8,0.5,1.6,1,2.4,1.3
				c0.9-0.5,1.9-0.1,2.8-0.1c1.2,0.1,2.4,0.6,3.5,1c2.5,0.9,4.7,2.3,6.7,4c2.2,2.1,4.4,4.2,6.2,6.6c1.5,1.9,2.8,3.9,4.1,6
				c0.6,0.9,1,2,1.5,3c1.1,2.1,1.8,4.4,2.6,6.6c0.6,1.8,1.3,3.5,1.7,5.4c1.2,4.4,2,8.8,3.1,13.2c0.8,2.7,1,5.4,1.5,8.1
				c0.7,3.4,1.3,6.9,2,10.3c0.6,2.6,1.3,5.2,1.9,7.9c0.7,3.2,1.2,6.4,1.5,9.6c0.3,3,0.6,6,0.6,9c0.1,3-0.2,6.1-0.6,9.1
				c-0.2,2-0.7,4-1.2,5.9c-0.7,2.6-1.7,5-2.8,7.4c-2.1,4.4-4.7,8.6-7.6,12.5c0,0-0.1,0.1-0.2,0.1c-0.4,0.9-1.1,1.7-1.7,2.5
				c-1.7,2.2-3.5,4.3-5.4,6.3c-1.6,1.6-3.2,3.1-4.9,4.6c-3.2,3-6.8,5.7-10.3,8.5c-3.9,3.1-7.9,6-12.4,8.2c-2,1.1-4,2-6.1,2.9
				c-1.3,0.5-2.6,0.9-3.9,1.2c-1,0.3-2,0.4-3.1,0.5c-1.5,0-3.1,0.3-4.6-0.2c-0.9-0.3-1.5-1-1.8-1.8c-0.6-1.5-0.6-3.2-0.2-4.8
				c0.3-1.3,1-2.5,1.6-3.7c0.3-0.6,0.7-1,1-1.6c-0.9,0.5-1.7,1-2.6,1.3c-1.4,0.6-2.9,1.2-4.4,1.5c-1.8,0.4-3.7,0.9-5.6,1
				c-1.2,0.2-2.5,0.1-3.7-0.2c-1.8-0.3-3.5-1.3-4.3-2.9c-0.4-0.8-0.6-1.7-0.6-2.6c-0.1-0.9,0-1.8,0.3-2.6c0.5-1.2,1.4-2.3,2.3-3.3
				c0.8-0.9,1.6-1.7,2.5-2.5c-0.9,0.1-1.9,0.1-2.8-0.2c-0.7-0.2-1.4-0.3-2-0.7c-0.7-0.5-1.2-1.3-1.5-2.1c-0.2-1.2,0.1-2.4,0.6-3.4
				c0.6-1.1,1.3-2,2-3c0.8-1.1,1.6-2.1,2.3-3.2c-0.5,0.6-1.1,1-1.6,1.5c-1.2,1.2-2.5,2.3-3.9,3.1c-1.4,0.9-2.9,1.7-4.5,2
				c-0.7,0.2-1.4,0.2-2.2,0c-1.2-0.2-2.2-1.3-2.3-2.5c0-0.7,0.1-1.3,0.3-2c0.7-2.6,1.9-5.2,3.6-7.4c0.8-1.1,1.5-2.2,2.3-3.3
				c1.4-2,3-3.9,4.4-5.9c-1.5,1-2.9,2-4.4,2.9c-1.4,0.8-3,1.3-4.6,1.2c-1.3,0-2.6-0.4-3.6-1.3c-0.9-0.8-1.3-2-1.3-3.2
				c0-1.5,0.4-3,1-4.5c0.8-2.5,2.1-4.7,3-7.2c0.8-2.2,1.5-4.6,1.6-7c0-1.8,0-3.6-0.2-5.4c-0.2-2.6-0.8-5.2-1.1-7.8
				C41.9,103,40.4,92.7,40,90c-0.4-2.7-0.6-5.3-0.8-8c0-2.7-0.1-5.5,0.1-8.2c0.1-4,0.6-8.1,1.3-12c0.5-2.7,1.2-5.3,2-7.8
				c0.8-2.3,1.8-4.5,2.9-6.6c0.8-1.5,1.6-3,2.6-4.4c0.6-0.9,1.4-1.7,2-2.7c1.1-1.6,2.3-3.2,3.6-4.6c1.2-1.3,2.5-2.4,3.8-3.5
				c1.7-1.3,3.4-2.4,5.3-3.4c2.6-1.3,5.2-2.5,7.9-3.4C73.6,24.2,76.6,23.7,79.5,23.3z"/>
			<path class="st2" d="M125.1,152.2c0,0,0.1-0.1,0.2-0.1c0.5,0.5,0.9,1,1.4,1.4c1,0.8,1.8,1.7,2.9,2.4c0.7,0.4,1.3,1,1.9,1.4
				c0.9,0.6,1.9,1.2,2.8,1.8c0.7,0.5,1.5,0.8,2.2,1.3c-0.5,1.3-1.4,2.4-2.2,3.6c-1.2,1.9-2.6,3.7-3.7,5.7c-1.1,2-2.3,3.9-3.3,5.9
				c-1.3,2.5-2.4,5-3.8,7.5c-1.4,2.4-2.6,4.9-4.1,7.2c-0.6,1.1-1.3,2.1-1.9,3.2c-1.2,1.7-2.2,3.5-3.5,5.2c-1.5,2.1-3.3,3.9-5.3,5.5
				c-1.1,0.9-2.3,1.6-3.5,2.3c-2.1,1.3-4.4,2.3-6.7,2.9c-2.4,0.7-4.9,0.9-7.3,1.2c-2,0.2-4,0.5-6,0.5c-0.9,0-1.8,0-2.7-0.1
				c-1.1-0.1-2.2,0-3.3-0.2c-4.9-0.3-9.7-2-13.7-4.7c-2-1.4-3.6-3.2-4.7-5.3c-1.4-2.6-1.9-5.6-2.1-8.5c0-1.4-0.1-2.8,0.1-4.2
				c0.2-1.7,0.5-3.4,0.8-5.1c0.3-1.5,0.8-2.9,1.1-4.4c1.9-0.1,3.7-0.5,5.6-1c1.5-0.4,2.9-1,4.4-1.5c0.9-0.4,1.8-0.9,2.6-1.3
				c-0.3,0.6-0.7,1-1,1.6c-0.6,1.2-1.2,2.4-1.6,3.7c-0.4,1.6-0.4,3.3,0.2,4.8c0.3,0.8,1,1.5,1.8,1.8c1.5,0.5,3.1,0.2,4.6,0.2
				c1-0.1,2.1-0.2,3.1-0.5c1.3-0.3,2.7-0.7,3.9-1.2c2.1-0.9,4.1-1.8,6.1-2.9c4.5-2.1,8.6-5.1,12.4-8.2c3.5-2.7,7.1-5.4,10.3-8.5
				c1.7-1.5,3.3-3,4.9-4.6c1.9-2,3.7-4.1,5.4-6.3C124,153.9,124.7,153.2,125.1,152.2z"/>
			<path class="st3" d="M178.5,222c0,0,0-0.1,0-0.1c0-0.5-0.1-1.1-0.3-1.6c0.2-0.5,0.3-1.1,0.3-1.7c-0.2-5.7-1-11.4-2.6-16.8
				c-0.3-1.1-0.7-2.3-1.1-3.4c-0.3-1.1-0.6-2.2-1-3.2c0-0.3-0.1-0.6-0.1-0.9c-0.7-3.3-2.2-6.5-4.2-9.3c-0.1-0.1-0.1-0.2-0.2-0.3
				c-0.7-1.5-1.5-2.9-2.4-4.2c-1.1-1.5-2.7-2.5-4.1-3.6c-1.7-1.6-3.7-2.7-5.6-4.1c-0.9-0.7-1.8-1.2-2.7-1.8
				c-2.1-1.5-4.2-2.9-6.4-4.3c-3-2-6.2-3.7-9.4-5.4c-0.7-0.4-1.5-0.7-2.2-1.2c-0.5,1.3-1.4,2.4-2.2,3.6c-1.2,1.9-2.6,3.7-3.7,5.7
				c-1.1,2-2.3,3.9-3.3,5.9c-1.3,2.5-2.4,5-3.8,7.5c-1.4,2.4-2.6,4.9-4.1,7.2c-0.6,1.1-1.3,2.1-1.9,3.2c-1.2,1.7-2.2,3.5-3.5,5.2
				c-1.5,2.1-3.3,3.9-5.3,5.5c-1.1,0.9-2.3,1.6-3.5,2.3c-2.1,1.2-4.4,2.3-6.7,2.9c-2.4,0.7-4.9,0.9-7.3,1.2c-2,0.2-4,0.5-6,0.5
				c-0.9,0-1.8,0-2.7-0.1c-1.1-0.1-2.2,0-3.3-0.2c-4.9-0.4-9.7-2-13.7-4.7c-2-1.4-3.6-3.2-4.7-5.3c-1.4-2.6-1.9-5.6-2.1-8.5
				c-0.1-1.4-0.1-2.8,0.1-4.2c0.2-1.7,0.5-3.4,0.8-5.1c0.3-1.5,0.8-2.9,1.1-4.4c-1.2,0.2-2.5,0.1-3.7-0.2c-1.8-0.3-3.5-1.3-4.3-2.9
				c-0.9,0.6-1.7,1.2-2.5,2c-1.8,1.6-3.6,3.2-5.4,4.8c-1.5,1.5-3,3-4.5,4.5c-0.8,0.8-1.6,1.7-2.3,2.6c-0.8,1-1.6,1.9-2.3,2.9
				c-0.6,0.9-1.2,1.9-1.8,2.8c-1.8,2.6-3.2,5.5-4.1,8.6c-3.4,5.9-6.2,12.1-8.5,18.5c0,0.1-0.1,0.2-0.1,0.3H178.5z"/>
		</g>
		<g>
			<path class="st2" d="M80,46.7c1.9-0.6,3.8-1.5,5.8-1.3c1.9,0.1,3.9,0.4,5.6,1.3c1.6,0.9,3.1,2,4.3,3.4c0.8,1,1.6,2,2.2,3.2
				c0.9,1.6,1.8,3.2,2.4,4.9c0.4,1.1,0.9,2.2,1.2,3.3c0.4,1.8,0.7,3.7,1.1,5.5c0.2,1.6,0.1,3.2,0.1,4.7c0,2.6-0.1,5.3,0.5,7.8
				c0.3,1.5,1,2.9,1.5,4.4c0.2,0.4,0.4,0.8,0.6,1.2c0,0.4,0,0.9,0.2,1.3c0.5,1.3,0.5,2.6,0.7,3.9c0.3,1.7,0.5,3.5,0.5,5.2
				c0.2,1.6,0.2,3.1,0.2,4.7c0,0.3,0.3,0.4,0.5,0.5c-0.1,0-0.2,0-0.3,0c-0.1,0.5-0.2,0.9-0.4,1.4c0-0.1,0-0.3-0.1-0.4
				c-0.4,0.8-0.7,1.6-1.1,2.4c-0.6,1.3-1,2.6-1.7,3.8c-0.7,1-1.1,2.2-1.8,3.2c-0.9,1.6-1.6,3.3-2.7,4.9c-1,1.4-2.1,2.8-3.1,4.2
				c-0.5,0.7-1.2,1.2-1.7,1.8c-0.6,0.7-1.4,1.3-2,2c-1,1-2.2,1.8-3.2,2.8c-1,1-2.3,1.7-3.5,2.5c-0.9,0.6-2,1-3,1.5
				c-1,0.5-2.1,0.7-3.1,1c-1.5,0.4-2.9,0.8-4.4,1c-0.7,0.1-1.4,0.1-2.1,0.2c-0.7,0-1.4,0-2.1,0.2c-1.3-0.4-2.7-0.8-4-1.4
				c-1.8-0.8-3.2-2.2-4.4-3.7c-1-1.2-1.8-2.5-2.4-3.9c-0.9-1.6-1.8-3.1-2.6-4.8c-0.6-1.4-1.2-2.7-1.8-4.2c-0.5-1.3-0.9-2.6-1.3-4
				c-0.3-1-0.7-1.9-1-2.9c0.4,0.1,0.8,0.1,1.2,0c1.8-0.5,3.2-1.8,4.1-3.3c0.7-1.2,1.1-2.6,1.1-4.1c-0.1-2.3-1.5-4.5-3.6-5.4
				c-0.9-0.4-1.8-0.6-2.7-0.7c-1-0.2-2-0.1-2.9,0c0,0.2-0.1,0.3-0.1,0.5c-0.5-2.5-1-5-1.3-7.5c-0.3-2.3-0.5-4.6-0.7-6.9
				c-0.1-1.6-0.3-3.2-0.2-4.8c0-2.1,0.1-4.1,0.3-6.2c0.3-2.2,0.6-4.3,1.2-6.4c0.1-0.5,0.1-1,0.3-1.5c0.4-1.4,0.9-2.7,1.5-4.1
				c0.4-1,0.9-1.9,1.4-2.7c0.4-0.7,0.7-1.4,1.3-1.9c1.8-1.8,4.2-2.8,6.5-3.8c2.2-0.8,4.4-1.4,6.7-1.9c3-0.5,6-1,9-1.1
				c0.6,0,1.3-0.1,1.9,0C79,46.7,79.5,46.8,80,46.7z"/>
			<path class="st4" d="M112.2,72.5c2.1-1.9,5.2-2.7,8-2.2c1.2,0.2,2.3,0.7,3.2,1.6c0.7,0.7,1.2,1.5,1.7,2.4c0.7,1.3,1,2.8,1.1,4.2
				c0.4,2.8-0.4,5.5-1.1,8.2c-0.5,1.6-0.9,3.3-1.6,4.8c-0.8,1.8-1.7,3.6-3,5.1c-0.5,0.5-0.9,1.1-1.5,1.6c-1.9,1.6-4.1,2.9-6.6,3.3
				c-1.6,0.2-3.3,0.2-4.8-0.5c-0.2-0.1-0.5-0.2-0.5-0.5c0-1.6,0-3.1-0.2-4.7c0-1.8-0.3-3.5-0.5-5.2c-0.2-1.3-0.3-2.7-0.7-3.9
				c-0.2-0.4-0.2-0.9-0.2-1.3c0.7-1.3,1.1-2.7,1.8-4c0.8-1.8,1.5-3.6,2.5-5.3C110.4,74.6,111.1,73.4,112.2,72.5z"/>
			<path class="st5" d="M79.9,72c1.2-0.3,2.5-0.5,3.7-0.5c1.1-0.1,2.3,0,3.4,0.2c1.3,0.1,2.6,0.1,3.9,0.4c1.1,0.2,2.1,0.7,3.1,1
				c0.7,0.2,1.3,0.7,1.7,1.3c-0.7-0.1-1.4-0.4-2.1-0.6c-0.6-0.2-1.1-0.6-1.7-0.6c-2.1-0.2-4.3-0.3-6.4-0.1c-2.2,0.3-4.4,0.4-6.6,0.8
				c-0.8,0.1-1.5,0.5-2.2,0.7c0.1-0.5,0.2-1.2,0.7-1.4C78.2,72.7,79,72.2,79.9,72z"/>
			<path class="st5" d="M57.5,73.4c2-0.3,4-0.7,6-0.4c2.3,0.3,4.5,1.9,5.4,4.1c0.6,1.5,0.8,3.1,0.6,4.7c-0.3,1.6-0.3,3.3-0.6,4.9
				c-0.3,2-0.9,4-1.3,6.1c-0.5,2.1-0.9,4.2-1.3,6.3c-0.2,0.6,0,1.4,0.6,1.8c1.2,0.7,2.6,0.6,4,0.8c0.6,0.1,1.2,0.1,1.8,0.2
				c0,0.6-0.2,1.3-0.5,1.8c-0.5,1.2-1.2,2.3-2.1,3.1c-0.5,0.5-1.2,0.8-1.9,0.7c-0.5-0.1-0.7-0.5-0.7-0.9c-0.1-1.2,0.1-2.5,0.2-3.7
				c-0.8,0-1.6-0.1-2.3-0.6c-0.6-0.5-1.4-1-1.5-1.8c-0.3-1.4,0.1-2.8,0.5-4.1c0.4-1.4,0.7-2.9,1.3-4.3c0.4-0.9,0.8-1.9,1.1-2.8
				c0.8-1.9,1.6-3.9,2-6c0.5-1.7,0.8-3.6,0.3-5.4c-0.2-0.9-0.7-1.9-1.6-2.3c-0.5-0.2-1.1,0.2-1.7-0.1c-0.7-0.3-1.4-0.3-2.1-0.4
				c-1.4-0.3-2.9-0.4-4.3-0.2c-2.8,0.1-5.6,0.5-8.3,1.5c-0.6,0.3-1.3,0.2-2,0.5c0.5-0.6,1.2-0.9,1.8-1.2c0.8-0.4,1.7-0.6,2.6-0.9
				C54.7,74,56,73.5,57.5,73.4z"/>
			<path class="st4" d="M89.7,91.9c1.6-0.3,3.4,0.1,4.7,1.1c0.7,0.5,1.3,1.2,1.8,2c0.7,1.2,0.9,2.7,0.7,4c-0.2,1.2-0.5,2.5-1.1,3.5
				c-0.6,1-1.4,1.9-2.4,2.3c-2.3,1.4-5.4,1.2-7.6-0.3c-0.8-0.6-1.7-1.3-2.1-2.3c-1-1.9-0.9-4.2-0.2-6.1c0.8-1.7,2.2-3.1,4.1-3.7
				C88.3,92.4,89,92.1,89.7,91.9z"/>
			<path class="st4" d="M50.8,95.1c1-0.2,2-0.2,2.9,0c0.9,0.2,1.9,0.3,2.7,0.7c2.1,0.9,3.5,3.1,3.6,5.4c0,1.4-0.4,2.8-1.1,4.1
				c-1,1.5-2.4,2.9-4.1,3.3c-0.4,0.1-0.8,0.1-1.2,0c-0.2-0.9-0.5-1.7-0.8-2.6c-0.3-1.1-0.5-2.3-0.8-3.4c-0.7-2.3-0.8-4.7-1.3-7
				C50.7,95.4,50.7,95.2,50.8,95.1z"/>
			<path class="st5" d="M105.7,104.2c0.4-0.8,0.6-1.6,1.1-2.4c0,0.1,0,0.3,0.1,0.4c-0.7,2.9-1.5,5.7-2.5,8.5c-0.4,1.2-1,2.4-1.5,3.6
				c-1.9,4.5-4.1,8.9-6.9,12.9c-1.2,1.8-2.6,3.5-4,5.2c-0.9,1.1-1.8,2.2-2.8,3.2c-1.6,1.8-3,3.7-4.6,5.4c-1.4,1.6-2.8,3.2-4.4,4.5
				c-1.6,1.3-3.3,2.5-4.9,3.9c-0.4,0.4-0.9,0.6-1.4,1c-0.5-1.7-0.5-3.4-0.8-5.1c-0.7-4-1.1-8.1-2-12.1c0.7-0.2,1.4-0.2,2.1-0.2
				c0.7,0,1.4-0.1,2.1-0.2c1.5-0.1,3-0.6,4.4-1c1-0.3,2.1-0.5,3.1-1c1-0.5,2-0.9,3-1.5c1.2-0.8,2.5-1.5,3.5-2.5c1-1,2.2-1.8,3.2-2.8
				c0.7-0.7,1.4-1.3,2-2c0.6-0.6,1.2-1.1,1.7-1.8c1.1-1.4,2.1-2.8,3.1-4.2c1.1-1.5,1.8-3.2,2.7-4.9c0.7-1,1.1-2.2,1.8-3.2
				C104.7,106.8,105.1,105.5,105.7,104.2z"/>
			<path class="st5" d="M72.5,117.8c1-0.1,2-0.4,3.1-0.4c0.4,0,0.7,0.3,0.8,0.6c0.2,0.6,0.1,1.2,0.1,1.8c-1.7,0.2-3.5,0.1-5.2,0.5
				c-1,0.2-1.9,0.5-2.8,0.9c-0.2-0.4-0.2-0.9-0.3-1.4c0-0.4-0.2-0.9-0.3-1.3c0-0.2,0.2-0.4,0.4-0.4C69.6,117.7,71,118,72.5,117.8z"
				/>
		</g>
		<g>
			<g>
				<path class="st6" d="M81.6,68.4c1.3-0.4,2.6-0.3,3.9-0.3c1.3,0.1,2.7,0.2,4,0.5c0.3,0.1,0.6,0.1,0.7,0.4c-0.6,0-1.2-0.2-1.8-0.3
					c-1.4-0.1-2.7-0.2-4.1-0.2c-0.9,0-1.9,0.1-2.8,0.1C81.5,68.6,81.5,68.4,81.6,68.4z"/>
				<path class="st7" d="M71.7,71.8c0.1-1,0.1-2,0.5-2.9c0.1,0,0.2,0.1,0.2,0.1c-0.3,2-0.5,4-0.4,6c-0.1,0-0.2-0.1-0.2-0.1
					C71.6,73.9,71.6,72.8,71.7,71.8z"/>
				<path class="st1" d="M82.7,71.2c2.6-0.1,5.2,0,7.8,0.6c1.3,0.3,2.7,0.7,3.9,1.5c0,0.2-0.1,0.3-0.1,0.5c-0.6-0.2-1.2-0.4-1.9-0.4
					c-3.4-0.2-6.9-0.5-10.4,0.2c-1.3,0.3-2.6,0.7-3.9,1c-0.5,0.1-1.1,0.3-1.6,0.2c-0.3-1,0.5-1.9,1.3-2.3
					C79.2,71.3,81,71.2,82.7,71.2z"/>
				<path class="st1" d="M60.5,72.5c1.2,0,2.4-0.2,3.5,0.1c1.1,0.2,2.2,0.5,3.1,1.2c0.5,0.3,0.8,0.9,1.1,1.3
					c1.1,1.6,1.7,3.5,1.7,5.4c0.1,3.1-0.4,6.2-0.9,9.3c-0.5,2-0.8,4-1.4,6c-0.3,1.2-0.7,2.3-0.8,3.5c-0.1,0.5,0.2,1,0.6,1.2
					c1,0.6,2.1,0.9,3.3,1.1c0.3,0.1,0.6,0.2,0.9,0.3c-0.4,0.1-0.8,0.2-1.2,0.3c-0.5,0.1-1,0-1.5-0.2c-0.8-0.2-1.6-0.5-2.3-1
					c-0.3-0.3-0.7-0.7-0.7-1.2c-0.1-1.6,0.3-3.2,0.6-4.7c0.5-2.1,1.1-4.2,1.5-6.3c0.3-1.9,0.6-3.8,0.8-5.6c0.1-1.5,0.1-3,0.2-4.4
					c0-0.8-0.3-1.5-0.6-2.2c-0.2-0.5-0.6-0.8-1.1-0.9c-1.5-0.4-3-0.8-4.5-0.9c-2.5-0.3-4.9-0.1-7.4,0.3c-1.4,0.2-2.8,0.6-4.2,1
					c-0.6,0.2-1.1,0.4-1.7,0.5c-0.1,0-0.2-0.1-0.2-0.2c0.2-0.2,0.4-0.4,0.7-0.6c0.8-0.5,1.6-1,2.5-1.4C55,73.2,57.8,72.8,60.5,72.5z
					"/>
				<path class="st7" d="M94.4,73.2c0.4,0.3,1,0.5,1.3,1c-0.5,0-0.9-0.2-1.3-0.4l0-0.1C94.3,73.5,94.3,73.4,94.4,73.2z"/>
				<path class="st8" d="M119.8,76.2c-0.5-0.7-1.2-1.3-2.1-1.2c-0.6,0.1-1.2,0.2-1.7,0.7c-0.5,0.1-0.9,0.6-1.2,0.9
					c-1.6,1.8-3,3.8-3.7,6.2c-0.3,1-0.7,2.1-0.4,3.1c0.3,0,0.7,0,0.8-0.3c0.6-1.3,0.9-2.7,1.4-4c0.6-1.3,1.3-2.6,2.1-3.8
					c0.5-0.9,1.2-1.6,2.1-2.1c0.4-0.1,0.8-0.1,1.2,0c0.7,0.3,1.1,1,1.3,1.6c0.1,1.1-0.1,2.2-0.2,3.3c-0.4,2.6-1.1,5.2-2.1,7.6
					c0.1,0,0.3,0,0.4,0c0.8-1.4,1.2-2.9,1.7-4.4c0.5-1.4,1-2.8,1-4.3C120.6,78.4,120.5,77.2,119.8,76.2z"/>
				<path class="st9" d="M86.5,79c0.5-0.1,1.1,0,1.4,0.4c0.5,0.7,0.4,1.7,0.1,2.4c-0.3,0.5-1,0.9-1.6,0.6c-0.6-0.2-0.9-0.9-1-1.5
					C85.5,80.2,85.7,79.3,86.5,79z"/>
				<path class="st9" d="M57.4,79.2c0.7-0.3,1.6,0.4,1.6,1.1c0,0.7,0.1,1.5-0.3,2.2c-0.4,0.6-1.4,0.6-1.8,0.1
					c-0.4-0.5-0.3-1.2-0.3-1.8C56.6,80.2,56.8,79.5,57.4,79.2z"/>
				<path class="st10" d="M88.6,83.7c0.9,0.3,1.7-0.3,2.5-0.5c0.3,0.1-0.1,0.4-0.2,0.5c-1,0.5-2,0.8-3.1,0.9
					c-0.3-0.1-0.8,0.1-0.8-0.3C87.5,84.1,88.2,84.2,88.6,83.7z"/>
				<path class="st7" d="M83.5,83.4c1.1,0.3,2.2,0.4,3.4,0.4c0.6,0,1.2-0.1,1.7-0.1c-0.4,0.5-1.1,0.4-1.6,0.5
					c-1.2,0-2.5,0.1-3.6-0.5C83.4,83.6,83.5,83.5,83.5,83.4z"/>
				<path class="st7" d="M55,84.4c2.1,0.7,4.4,0.5,6.4-0.2c0,0.1-0.1,0.2-0.1,0.3c-1.1,0.5-2.2,0.7-3.4,0.8c-1,0.1-2-0.1-2.9-0.6
					C55,84.6,55,84.5,55,84.4z"/>
				<path class="st11" d="M70,92c0.2-0.7,0.4-1.5,0.9-2c-0.2,1.4-0.6,2.9-0.8,4.3c-0.3,1.8-0.6,3.6-0.9,5.3c-0.3,0-0.3-0.3-0.3-0.5
					c0-0.7,0.1-1.3,0.1-2c0-0.7,0.2-1.4,0.3-2.2C69.5,94,69.7,93,70,92z"/>
				<path class="st7" d="M71.4,100c0.7-0.2,1.4-0.1,2.1,0c0,0.1,0,0.2,0.1,0.4c-0.7,0.1-1.4,0.3-2.1,0
					C71.3,100.3,71.3,100.1,71.4,100z"/>
				<path class="st7" d="M70.7,101.6c0.5,0,1.1-0.1,1.6,0.1c-0.1,0.1-0.1,0.2-0.2,0.3c-0.5,0.1-1.1,0.2-1.6,0.2
					c0.4-0.1,0.8-0.2,1.2-0.3C71.4,101.8,71.1,101.7,70.7,101.6z"/>
				<path class="st12" d="M62.8,106.2c1.8,0,3.7,0.2,5.5,0.2c2.1,0.2,4.2,0.1,6.3-0.1c1.6-0.1,3.2,0,4.8,0.3
					c0.6,0.2,1.5,0.4,1.6,1.2c0.2,0.5,0,1-0.2,1.5c-0.5,0.8-1,1.6-1.7,2.3c-1,1.1-2.2,2.1-3.6,2.6c-1.4,0.6-2.8,0.9-4.3,1
					c-1.5,0-3.1,0-4.4-0.7c-1.3-0.5-2.5-1.2-3.3-2.2c-0.6-0.8-1.3-1.5-1.7-2.4c-0.3-0.7-0.6-1.4-0.8-2.2c-0.1-0.5,0.2-1.1,0.7-1.3
					C62.1,106.2,62.5,106.2,62.8,106.2z"/>
				<path class="st13" d="M63,107.8c0.9,0,1.9,0.2,2.8,0.3c1.8,0.2,3.6,0.5,5.4,0.5c2.7,0.1,5.3-0.5,7.9-0.9c0.4,0,0.9,0.1,0.9,0.6
					c-0.1,0.4-0.4,0.7-0.6,1c-1.2,1.5-2.9,2.7-4.8,3.3c-0.8,0.3-1.7,0.5-2.6,0.6c-1.9,0.1-3.9-0.3-5.7-1.2c-1.4-0.7-2.8-1.6-3.5-3.1
					C62.6,108.7,62.4,107.9,63,107.8z"/>
				<path class="st7" d="M105.1,105.8c-0.5,0.5-0.7,1.3-1,1.9c-0.5,1-1.2,1.9-1.6,2.8c-0.4,0.8-0.8,1.5-1.3,2.2
					c-0.5,0.8-1,1.7-1.7,2.5c-0.7,0.9-1.3,1.8-2,2.7c-0.8,1.1-1.6,2.1-2.5,3.1c-1.5,1.7-3,3.5-4.6,5.1c-1.1,1.1-2.3,2-3.5,2.9
					c-0.9,0.5-1.9,1-2.8,1.4c-1.5,0.7-3.1,1.1-4.7,1.6c-1.3,0.5-2.7,0.8-4.2,0.9c-1.4,0.2-2.8-0.1-4.2,0.1c0,0.2,0,0.3,0.1,0.5
					c1.2,0.3,2.5,0.2,3.8,0.2c1.5-0.2,2.9-0.4,4.4-0.7c2.9-0.8,5.6-2.1,8.1-3.6c1-0.6,1.9-1.3,2.7-2c1.4-1.3,2.8-2.7,4.2-4.1
					c1.9-1.9,3.4-4,4.9-6.1c1.3-1.9,2.2-4.1,3.5-6.1c0.7-0.8,1.1-1.8,1.6-2.8C104.6,107.6,105.1,106.8,105.1,105.8z"/>
			</g>
			<path class="st14" d="M96.4,28.1c0.4-0.4,0.7-0.8,1.1-1C97.5,27.7,96.8,27.8,96.4,28.1z M69.3,28.1c1.8-0.4,3.5-0.8,5.3-1.1
				c2.8-0.5,5.6-0.6,8.4-0.1c3.1,0.5,6.3,1.2,9.1,2.6c0.2-0.1,0.4-0.3,0.5-0.4c-1-0.7-2.1-1-3.2-1.4c-3.1-1.1-6.5-1.8-9.8-1.8
				c-2.1,0-4.2,0.2-6.3,0.7c-1.1,0.3-2.2,0.6-3.3,0.9c-0.8,0.1-1.5,0.5-2.2,0.7c-0.2,0-0.3,0.2-0.4,0.4c0.7,0,1.3-0.2,2-0.5
				L69.3,28.1z M60.9,33.1c2.3-1.1,4.7-2.2,7.2-2.6c3.7-0.7,7.5-0.9,11.2-0.5c2.6,0.3,5.1,0.6,7.6,1.3c0.7,0.2,1.4,0.5,2.2,0.7
				c0.1-0.1,0.3-0.2,0.4-0.4c-1.2-0.5-2.5-0.9-3.7-1.3c-1.8-0.5-3.6-0.8-5.4-1c-3.2-0.4-6.5-0.4-9.8,0c-2.7,0.3-5.4,1-7.9,2.1
				c-1.9,0.8-3.8,1.7-5.2,3.1c-0.4,0.4-0.9,0.8-1.2,1.3c0.6-0.1,1.1-0.5,1.6-0.9C58.8,34.2,59.8,33.6,60.9,33.1z M103.4,30.9
				c2.3,0.9,4.5,2.3,6.2,4.1c1.1,1.1,2,2.2,2.9,3.4c0.9,1.4,1.7,2.9,2.6,4.3c0.6,1.1,1.1,2.2,1.6,3.4c1,2.2,1.7,4.5,2.4,6.7
				c0.9,2.8,1,5.8,1.8,8.6c0.4,1.6,0.8,3.2,1.5,4.7c0.4,0.9,0.7,1.7,1.2,2.6c0.3,1.1,1,2,1.5,3c0.1,0,0.2-0.1,0.3-0.1
				c-0.3-0.8-0.6-1.7-1.1-2.4c-1.3-3.1-2.3-6.3-3-9.6c-0.4-2.1-0.6-4.3-1.2-6.3c-0.7-2.3-1.4-4.5-2.3-6.7c-1.1-2.9-2.6-5.6-4.4-8
				c-0.4-0.7-1-1.3-1.5-2c-1.2-1.4-2.5-2.8-4-4c-1.6-1.3-3.5-2.2-5.4-2.8c-0.6-0.2-1.2-0.4-1.9-0.4c0,0.1,0,0.2,0,0.3
				C101.5,30.2,102.5,30.5,103.4,30.9z M97.8,32.5c1.3,0.3,2.5,0.7,3.7,1.4c1,0.6,2.1,1.1,3,1.8c0.9,0.7,1.8,1.5,2.6,2.3
				c2,1.9,3.7,4.1,5,6.6c0.8,1.4,1.5,2.8,2,4.3c1.1,3.2,1.1,6.6,1.9,9.8c0,0.7,0.2,1.5,0.4,2.2c0.4,1.6,0.9,3.1,1.6,4.6
				c0.1,0.3,0.2,0.7,0.6,0.9c-0.2-0.7-0.5-1.4-0.7-2.1c-0.5-1.6-0.9-3.2-1.3-4.9l0,0.1c0-0.1,0-0.3,0-0.4c-0.5-2.9-0.7-5.9-1.3-8.8
				c-0.4-1.8-1.1-3.4-1.9-5c-0.8-1.5-1.6-2.9-2.7-4.3c-1.5-2.2-3.5-4-5.5-5.7c-1-0.8-2.1-1.4-3.2-2c-0.9-0.5-2-1-3-1.2
				c-0.8-0.1-1.7-0.4-2.5-0.3C96.6,32.3,97.3,32.4,97.8,32.5z M92.2,35.7c0.4,0.2,0.9,0.3,1.4,0.3c1.3,0.1,2.5,0.6,3.8,0.8
				c1.9,0.3,3.6,1.4,5.2,2.4c0.6,0.5,1.3,1,1.8,1.6c2.4,2.5,4.4,5.4,5.7,8.5c0.7,1.8,1.3,3.5,1.5,5.4c0.1,1.4,0.3,2.7,0.4,4.1
				c0.1,2,0.4,4,0.9,6c0.2,0.8,0.5,1.6,0.8,2.4c0.1,0.3,0.2,0.6,0.5,0.7c-0.1-0.6-0.4-1.2-0.6-1.8c-0.1-0.4-0.2-0.9-0.5-1.3
				c0-0.3-0.1-0.7-0.2-1c-0.6-2.9-0.6-5.9-0.8-8.8c-0.1-1.4-0.5-2.7-0.9-4c-0.9-3.1-2.6-5.9-4.6-8.4c-1-1.3-2.2-2.6-3.6-3.6
				c-1.6-1.2-3.3-2.2-5.2-2.8c-1.5-0.3-2.9-1-4.4-1c-0.4,0-0.9,0-1.3,0.1C92.2,35.5,92.2,35.6,92.2,35.7z M54.2,40.6
				c0.7-0.6,1.4-1.3,2.2-1.8c0.6-0.4,1.3-0.7,2-1.1c1.8-1,3.8-1.7,5.8-2.2c1.5-0.4,3-0.8,4.5-1c3.1-0.5,6.2-0.8,9.4-0.6
				c2.7,0.2,5.4,0.7,8,1.6c0.2,0.1,0.4-0.2,0.5-0.3c-0.2-0.1-0.3-0.3-0.6-0.3c-1.3-0.5-2.7-0.9-4.1-1.2c-2.8-0.6-5.7-0.7-8.5-0.5
				c-2.9,0.3-5.8,0.6-8.6,1.4c-1.6,0.4-3.3,0.9-4.8,1.7c-1.2,0.6-2.4,1.3-3.6,2.1c-0.9,0.6-1.6,1.4-2.4,2.1c-0.5,0.5-0.9,1-1.2,1.5
				C53.3,41.7,53.7,41.1,54.2,40.6z M109.8,68.2c0,0.6,0.3,1.2,0.5,1.8c0.2,0.5,0.3,1,0.6,1.4c-0.1-0.8-0.4-1.6-0.6-2.4
				c-0.2-0.5-0.2-1.1-0.4-1.6c0-0.8-0.2-1.5-0.2-2.3c0-3.1-0.2-6.2-1-9.2c-0.6-1.9-1.2-3.8-2.1-5.6c-0.8-1.4-1.6-2.7-2.6-3.9
				c-0.8-0.9-1.6-1.7-2.5-2.5c-2.3-2.1-4.9-3.8-8-4.4c-1.6-0.3-3.2-0.7-4.8-0.3c0,0.1,0,0.2,0,0.3c0.5,0.2,1,0.2,1.5,0.2
				c0.8,0.1,1.6,0.2,2.4,0.4c1.8,0.3,3.5,1.1,5.1,1.9c1.3,0.6,2.5,1.4,3.6,2.3c0.3,0.4,0.7,0.7,1,1c1,0.9,1.8,1.9,2.5,3
				c0.8,1.2,1.5,2.4,2.1,3.7c1.4,3.4,2.2,7.1,2.3,10.8C109.2,64.6,109.1,66.4,109.8,68.2z M52.6,46.1c0.6-0.7,1.3-1.2,1.8-1.9
				c0.5-0.4,1-0.9,1.6-1.2c1.2-0.8,2.5-1.4,3.8-2.1c2.2-1.2,4.7-1.7,7.1-2.1c3.2-0.6,6.5-0.7,9.7-0.5c2.1,0.1,4.2,0.5,6.3,1
				c0.1-0.1,0.2-0.3,0.4-0.4c-1.1-0.4-2.3-0.8-3.6-1c-3.2-0.5-6.5-0.7-9.7-0.2c-3.9,0.4-7.9,1.1-11.3,3.1c-0.6,0.3-1.3,0.7-1.9,1
				c-1.1,0.7-2.1,1.5-3,2.4c-0.5,0.3-0.8,0.7-1.1,1.1c-0.5,0.5-0.9,1.1-1.2,1.7C52,46.9,52.3,46.4,52.6,46.1z M51.5,52.7
				c0.3-0.6,0.7-1,1-1.6c1.3-1.6,3-2.8,4.7-4c1.7-1.2,3.6-2,5.6-2.6c3-1,6.2-1.4,9.4-1.7c2.8-0.2,5.7-0.2,8.6,0.2
				c0.1-0.1,0.2-0.3,0.3-0.4c-3.2-0.7-6.6-0.8-9.9-0.6c-1.5,0.1-3,0.3-4.5,0.5c-3.6,0.7-7.2,1.8-10.1,4.1c-1,0.8-2.1,1.6-3,2.6
				c-0.5,0.6-1.1,1.1-1.5,1.8c-0.9,0.9-1.4,2-1.7,3.2c0.1,0,0.2,0.1,0.2,0.1C51.1,53.8,51.2,53.2,51.5,52.7z M45.7,65.1
				c-0.2,1-0.4,2-0.4,3c-0.3,1.3-0.3,2.7-0.4,4.1c-0.2,2.9,0,5.9,0.2,8.8c0.1,1.1,0.3,2.2,0.4,3.3c0.3,2.3,0.4,4.5,0.8,6.8
				c0.2,1.2,0.3,2.3,0.5,3.5c0.4,2.4,0.9,4.8,1.4,7.2c0.8,3.4,1.8,6.6,2.7,10c0.9,3.3,1.6,6.7,1.6,10.1c-0.1,2.3-0.7,4.6-1.3,6.8
				c-0.1,0.2-0.2,0.4-0.3,0.6c-0.4,1.2-0.9,2.3-1.4,3.4c-0.2,0.6-0.6,1.1-0.8,1.7c0.5-0.4,0.8-0.9,1-1.4c0.6-1.1,1.2-2.3,1.6-3.5
				c0.4-0.8,0.7-1.7,0.9-2.6c0.5-1.8,0.9-3.7,0.8-5.7c-0.2-5.4-1.9-10.6-3.3-15.8c-0.7-2.3-1.1-4.7-1.6-7.1
				c-0.5-2.3-0.8-4.6-1.1-6.9c-0.3-2.6-0.6-5.3-0.9-7.9c-0.2-1.3-0.4-2.6-0.4-3.8c-0.2-3.6-0.3-7.2-0.1-10.8c0.1-0.3,0.1-0.7,0.2-1
				c0.3-2.2,0.7-4.4,1.4-6.5c0.5-1.6,1.1-3.2,1.6-4.9c-0.1,0-0.2,0-0.3,0c-0.6,0.9-0.9,1.9-1.3,2.8C46.6,61.2,46.1,63.1,45.7,65.1z
				 M105.9,70.8c0.2,1.4,0.6,2.8,1.1,4c0.1,0.2,0.2,0.5,0.5,0.6c0-0.3-0.1-0.6-0.2-0.9c-0.4-1.6-0.8-3.2-0.9-4.9
				c-0.1-1.5-0.1-2.9-0.1-4.4c0-1.5,0.1-3-0.2-4.4c0-1.4-0.5-2.7-0.9-4.1c-1.3-4.7-4.5-8.7-8.5-11.5c-1.2-0.7-2.4-1.5-3.7-1.8
				c-0.9-0.2-1.7-0.5-2.6-0.5c-1.2-0.2-2.5-0.2-3.8-0.1c-0.4,0.1-0.8,0-1,0.4c1.1,0,2.2,0.1,3.4,0.2c0.7,0.2,1.5,0.4,2.3,0.6
				c0.8,0.2,1.7,0.4,2.5,0.8c1.8,0.9,3.6,1.8,5.1,3.2c1.3,1.1,2.4,2.4,3.4,3.8c1,1.5,1.8,3.1,2.3,4.8c0.4,1.3,0.8,2.6,1,4
				c0.1,0.5,0.1,0.9,0.2,1.4c0,0.7,0.1,1.5,0.1,2.2C105.7,66.3,105.5,68.5,105.9,70.8z M47.9,124.3c0.2-1.3,0.4-2.7,0.4-4
				c0-2.5-0.2-5-0.6-7.4c-0.8-4.1-1.9-8.1-2.7-12.2c-0.5-2.7-0.8-5.4-1.3-8.1c0-0.2-0.1-0.3-0.1-0.5c0-0.4-0.1-0.9-0.1-1.3
				c-0.5-3.2-0.8-6.4-1-9.6c-0.1-1.9,0-3.8,0-5.7c0.1-1.3,0-2.6,0.2-4c0.2-1.9,0.5-3.8,0.9-5.7c0.6-3,1.2-6,2.2-8.9
				c0.8-2.2,1.7-4.2,2.7-6.3c0.1-0.2,0.1-0.4,0.1-0.6c-0.1,0-0.2,0-0.3,0c-1.1,1.9-2,4-2.8,6c-1,2.4-1.6,5-2.1,7.5
				c-0.7,2.9-1,5.8-1.3,8.7c0,3.1-0.2,6.2,0,9.3c0.1,2.2,0.4,4.3,0.6,6.5c0.2,1.4,0.4,2.8,0.6,4.3c0,0.3,0.1,0.5,0.2,0.8
				c0,0.8,0.1,1.5,0.2,2.3c0.2,1.5,0.4,2.9,0.7,4.4c0.3,1.6,0.7,3.1,1,4.7c0.5,2.4,1,4.8,1.6,7.1c0.4,1.6,0.6,3.3,0.8,4.9
				c0.1,2.1,0.2,4.2-0.1,6.3c-0.4,2.8-1.2,5.4-2.3,8c-0.4,0.6-0.7,1.3-1.1,2c-0.2,0.5-0.6,0.9-0.8,1.5c0.3-0.1,0.5-0.4,0.7-0.6
				c0.5-0.8,1-1.6,1.4-2.5C46.6,129.1,47.5,126.7,47.9,124.3z M91.1,169.6c3.6-2.7,7.3-5.5,10.7-8.4c2.1-1.7,4.2-3.5,6.1-5.3
				c3.5-3.2,6.9-6.6,9.8-10.4c1.4-1.8,2.6-3.7,3.8-5.6c1.3-2.2,2.5-4.5,3.6-6.8c1.3-2.8,2.3-5.7,3-8.7c0.6-2.4,1.1-4.8,1.4-7.3
				c0.5-3.2,0.8-6.3,0.7-9.5c0-3.7-0.3-7.3-0.7-10.9c-0.1-0.9-0.1-1.8-0.4-2.6c-0.1-1.3-0.4-2.5-0.6-3.8c-0.3-1.8-0.8-3.5-1-5.3
				c-0.1,0-0.4,0-0.4,0.2c-0.1,0.9,0.2,1.7,0.3,2.6c0.3,1.4,0.5,2.7,0.8,4.1c0.1,0.4,0.1,0.9,0.3,1.3c0,0.7,0.2,1.5,0.3,2.2
				c0.4,3.8,0.7,7.6,0.7,11.4c0.1,3.3-0.3,6.7-0.7,10c-0.3,2.4-0.8,4.9-1.4,7.3c-0.7,3.1-1.6,6.1-3,8.9c-1.2,2.5-2.5,5-4,7.4
				c-1.2,2-2.5,3.9-3.9,5.6c-1.6,2.1-3.5,4-5.4,5.8c-3.3,3.2-6.7,6.2-10.3,9.2c-4,3.3-8.1,6.3-12.1,9.5c-3,2.3-6.1,4.6-8.7,7.4
				c-0.8,0.9-1.3,1.9-2,2.9c-0.3,0.5-0.7,1.1-0.7,1.7c0.6-0.2,0.7-0.9,1-1.4c0.5-0.8,1-1.5,1.6-2.1c1.7-1.9,3.7-3.5,5.7-5.1
				C87.5,172.4,89.2,171,91.1,169.6z M133.6,111.3c0-0.2,0-0.4,0-0.6c0-3.3-0.3-6.5-0.6-9.7c-0.3-2.7-0.5-5.4-1.5-8
				c-0.1-0.3-0.2-0.7-0.5-1c-0.1,0.7,0.2,1.4,0.4,2c0.5,1.7,0.7,3.5,0.9,5.2c0.2,1.5,0.4,3.1,0.5,4.6c0.3,3.4,0.1,6.8,0.1,10.2
				c-0.3,2.9-0.7,5.7-1.3,8.5c-0.6,2.5-1.2,4.9-2.1,7.3c-1.1,3-2.6,5.9-4.1,8.7c-1,2-2.3,3.8-3.4,5.7c-1.2,1.8-2.4,3.5-3.6,5.3
				c-1.6,2.1-3.2,4-4.9,6c-1.4,1.5-2.9,3.1-4.4,4.5c-1.9,1.8-3.7,3.5-5.6,5.2c-3.5,3.1-7.1,6.1-11,8.7c-2.3,1.6-4.6,3.1-6.8,4.8
				c-0.6,0.5-1.3,0.9-1.9,1.4c-1,0.6-1.9,1.4-2.8,2.2c0,0.1,0,0.2,0.1,0.3c0.6-0.4,1.1-0.8,1.6-1.2c0.5-0.4,1-0.7,1.5-1.1
				c1.6-1.1,3.2-2.2,4.9-3.2c2.2-1.3,4.3-2.8,6.4-4.3c2.1-1.5,4.1-3.2,6.1-4.9c2-1.6,3.9-3.3,5.7-5.1c5.6-5.1,10.7-10.9,14.9-17.2
				c2.7-4.1,5.1-8.3,7.1-12.7c1.3-2.8,2.1-5.8,2.9-8.8c0.8-3,1.2-6,1.4-9.1C133.5,113.8,133.7,112.6,133.6,111.3z M79.9,161
				c4-2.7,8-5.4,11.7-8.5c1.7-1.5,3.5-3.1,5-4.8c3.2-3.6,5.9-7.6,8.3-11.8c1.4-2.5,2.8-5.1,4-7.7c2.2-4.8,3.5-9.9,4.8-14.9
				c0.4-1.6,0.8-3.2,1-4.9c0.2-0.7,0.3-1.5,0.4-2.3c0.2-1.1,0.2-2.3,0.2-3.4c-0.3,0.7-0.3,1.5-0.5,2.2c-0.3,1.1-0.5,2.1-0.7,3.2
				c-0.5,2.4-1.1,4.7-1.7,7.1c-0.7,2.6-1.4,5.1-2.3,7.6c-1.8,5.2-4.4,10-7.2,14.7c-2.3,3.8-5,7.4-8,10.6c-3.8,4-8.3,7.3-12.8,10.4
				c-4,2.9-8.3,5.4-12.3,8.3c-2,1.5-3.8,3.3-5.5,5.2c-0.4,0.4-0.8,0.8-1.1,1.3c-0.2,0.2-0.3,0.5-0.3,0.7c0.5-0.1,0.7-0.6,1.1-1
				c0.8-1,1.8-1.8,2.6-2.8c1.8-1.6,3.7-3,5.7-4.3C74.8,164.3,77.3,162.7,79.9,161z M78.8,167.2c2.1-1.4,4.2-2.8,6.4-4.2
				c2.6-1.7,5.2-3.4,7.6-5.2c1.8-1.3,3.5-2.8,5.2-4.3c1.6-1.4,3-2.8,4.4-4.3c1.8-2,3.5-4.1,5-6.3c1.4-2,2.7-4,3.9-6.1
				c1.1-2,2.1-4,3-6c1.2-2.6,2.1-5.3,3.1-7.9c1.1-3.2,1.8-6.4,2.2-9.8c0.4-3.1,0.9-6.2,1.1-9.4c0.1-0.7,0.1-1.5,0.1-2.2
				c0-0.9,0-1.9-0.1-2.8c-0.1,0-0.2,0.1-0.2,0.1c-0.2,1.2-0.2,2.4-0.2,3.5c-0.1,1-0.2,1.9-0.3,2.9c-0.3,3.3-0.9,6.6-1.4,9.9
				c-0.4,2.5-1,5-1.8,7.4c-0.7,1.9-1.4,3.7-2.2,5.6c-1.2,2.8-2.6,5.5-4,8.1c-1.3,2.2-2.7,4.3-4.1,6.5c-1.3,1.9-2.7,3.6-4.2,5.3
				c-3.2,3.7-7,7-11,9.9c-3.9,2.7-7.9,5.2-11.8,7.8c-1.9,1.2-3.8,2.5-5.6,3.8c-1.1,0.8-2.2,1.8-3.2,2.7c-0.6,0.5-1.2,1-1.6,1.7
				c0.1,0,0.2,0.1,0.3,0.1c0.3-0.3,0.8-0.5,1-1c0.6-0.4,1-0.9,1.6-1.3c1.1-0.9,2.3-1.7,3.5-2.4C76.6,168.6,77.7,167.9,78.8,167.2z
				 M53.3,145.5c1.2-1.6,2.4-3.3,3.4-5.1c1.4-2.3,2.7-4.7,3.6-7.3c0.5-1.5,1.1-3.1,0.9-4.7c-1.1,4-2.7,8-4.9,11.5
				c-0.7,1.2-1.4,2.4-2.2,3.5c-1.3,1.9-2.6,3.8-4.2,5.4c-1.6,1.7-3.1,3.3-4.7,5c-0.2,0.3-0.5,0.5-0.5,0.9c0.2,0,0.4-0.1,0.6-0.3
				c1.8-1.6,3.4-3.4,5.1-5.2C51.4,148,52.4,146.8,53.3,145.5z M54.4,134.7c-0.8,1.1-1.8,1.9-2.9,2.7c-0.2,0.2-0.4,0.3-0.5,0.6
				c0.6-0.1,1-0.4,1.4-0.8c1.7-1.3,3-2.9,4.1-4.6c0.8-1.2,1.6-2.3,2.3-3.6c0-0.1-0.1-0.2-0.1-0.3c-0.1,0.1-0.2,0.2-0.3,0.4
				C57.1,131,55.8,132.9,54.4,134.7z M55.1,149.1c0.9-1.1,1.8-2.4,2.6-3.6c1.5-2.2,2.5-4.7,3.5-7.1c0.8-2.1,1.6-4.2,2-6.4
				c0-0.4,0.2-0.8-0.1-1c-0.3,0.3-0.3,0.6-0.5,1c-0.6,2.1-1.2,4.2-2.1,6.2c-1.1,2.6-2.3,5.3-3.9,7.7c-1.2,1.9-2.6,3.7-4,5.4
				c-0.9,0.9-1.8,2-2.6,3c0.1,0,0.3,0.1,0.4,0c0.5-0.4,0.9-0.9,1.3-1.4c0.2-0.2,0.4-0.4,0.5-0.7c0.3-0.2,0.5-0.5,0.8-0.7
				C53.7,150.5,54.5,149.8,55.1,149.1z M83.7,168.3c2.3-1.6,4.5-3.3,6.8-4.9c3.9-2.9,7.8-5.8,11.4-9c2.8-2.5,5.5-5,8.1-7.7
				c3.1-3.2,6.1-6.7,8.4-10.5c0.8-1.4,1.6-2.7,2.3-4.1c0.6-1,1.1-2.1,1.6-3.2c1-2.1,1.5-4.4,2.1-6.7c0.3-1.3,0.6-2.7,0.8-4
				c0.5-1.9,0.6-3.8,0.7-5.7c0.1-1.3,0-2.5-0.1-3.8c0.1-2.2-0.1-4.4-0.1-6.6c-0.1-2.1-0.2-4.2-0.5-6.3c-0.2-1.1-0.3-2.2-0.8-3.2
				c-0.1,0-0.2,0.1-0.2,0.1c-0.1,1,0.3,1.9,0.4,2.9c0.2,1.8,0.3,3.6,0.4,5.3c0.1,1.2,0.1,2.5,0.2,3.7c0.1,1.8,0,3.5,0.1,5.3
				c-0.2,1.3-0.1,2.6-0.2,3.9c-0.1,1.5-0.4,3-0.4,4.5c-0.1,0.8-0.2,1.6-0.3,2.4c-0.7,2.5-1.4,5.1-2.4,7.5c-0.5,1.2-1.1,2.4-1.7,3.6
				c-1.1,1.9-2.2,3.8-3.5,5.6c-1.5,2-3,4-4.7,5.8c-1.5,1.7-2.9,3.3-4.5,4.8c-1.5,1.5-3,3-4.6,4.4c-1.9,1.7-3.8,3.5-5.8,5.1
				c-2.2,1.8-4.5,3.5-6.7,5.2c-2,1.6-4,3.1-6.1,4.6c-1.9,1.4-3.8,2.8-5.7,4.2c-1.6,0.8-3.1,1.8-4.6,2.7c-0.4,0.3-1,0.5-1.2,1
				c0.5,0,1-0.1,1.4-0.4c0.7-0.4,1.4-0.8,2.1-1.3c0.7-0.4,1.4-0.9,2.1-1.3C80.1,171,81.9,169.6,83.7,168.3z M62.3,148.5
				c1-2.1,2-4.2,2.9-6.4c1-2.6,1.8-5.3,2-8.1c0-0.3-0.1-0.5-0.3-0.7c-0.4,0.3-0.4,0.8-0.5,1.2c-0.4,1.8-0.8,3.7-1.4,5.4
				c-0.8,2.6-1.9,5-3,7.4c-1.1,2.5-2.4,4.9-4,7.1c-1.4,2-3,3.9-4.5,5.9c-0.3,0.2-0.5,0.5-0.6,0.8c0.5,0.3,0.8-0.3,1-0.7
				c1.5-1.6,3-3.3,4.3-5.1C59.8,153.2,61.1,150.9,62.3,148.5z M68.4,161.5c2-1.3,3.9-2.5,5.9-3.7c4.6-2.7,8.9-5.9,13-9.3
				c1.4-1.2,2.7-2.5,4.1-3.8c1.9-1.9,3.7-3.8,5.3-6c1.8-2.2,3.2-4.7,4.6-7.1c1.3-2.2,2.4-4.5,3.4-6.9c0.9-2.2,1.8-4.4,2.5-6.6
				c0.9-3,1.7-6.1,2.3-9.2c0.3-1.5,0.6-3,0.5-4.5c0-0.4,0-0.8-0.2-1.1c-0.1,0-0.2,0-0.3,0.1c-0.1,0.5-0.1,1-0.1,1.5
				c-0.1,1.1-0.3,2.3-0.5,3.4c-0.7,3-1.4,6.1-2.2,9.1c-0.6,2.2-1.5,4.3-2.4,6.4c-1.1,2.6-2.3,5.2-3.7,7.7c-1.3,2.4-2.7,4.7-4.4,6.8
				l0.1,0.1c-0.1,0.1-0.2,0.2-0.2,0.2c-2.7,3.4-5.8,6.5-9,9.4c-3.8,3.2-7.8,6.1-12,8.6c-2,1.2-4,2.4-6,3.7c-2,1.3-4,2.5-5.7,4.2
				c-2,1.9-3.9,4-5.4,6.3c-0.3,0.4-0.6,0.9-0.7,1.4c0.1,0,0.2,0,0.3,0c0.9-1.2,1.9-2.4,3-3.6c1.4-1.6,2.9-3.1,4.5-4.5
				C66.1,163.1,67.3,162.3,68.4,161.5z M60.8,144.3c-0.5,0.7-0.9,1.5-1.4,2.2c-0.9,1.3-1.8,2.6-2.7,4c-0.3,0.5-0.7,0.9-0.9,1.4
				c0.4,0,0.7-0.3,0.9-0.6c1.1-1.2,1.9-2.6,2.7-4c0.5-0.9,1-1.7,1.5-2.7c0.3-0.4,0.5-1,0.7-1.5c0,0-0.1-0.1-0.1-0.2
				C61.2,143.3,60.9,143.8,60.8,144.3z M57.2,160.7c2.2-2.3,4.1-4.7,5.9-7.3c2.7-3.9,4.8-8.2,6.2-12.7c0.4-1.3,0.8-2.7,0.8-4
				c-0.1,0-0.2,0.1-0.2,0.1c-0.5,1.5-1,3-1.5,4.4c-0.9,2.4-1.9,4.7-3,6.9c-1.1,2.2-2.3,4.3-3.8,6.3c-1.5,2.2-3.1,4.2-4.9,6.2
				c-0.3,0.1-0.6,0.4-0.4,0.8C56.7,161.3,56.9,161,57.2,160.7z M59.3,163.1c2-2.2,4.4-3.9,6.7-5.8c1.7-1.5,3.6-2.8,5.3-4.3
				c0.9-0.8,1.9-1.5,2.9-2.3c0-0.1,0-0.2-0.1-0.3c-1.5,0.9-3.1,1.8-4.4,2.9c-1.7,1.4-3.4,2.7-5.1,4.2c-1.9,1.7-3.8,3.4-5.6,5.2
				c-0.5,0.4-1,0.9-1.5,1.3c-0.3,0.3-0.7,0.6-0.8,1.1c0.2,0,0.4,0,0.6-0.2C58,164.4,58.7,163.8,59.3,163.1z"/>
		</g>
	</g>
</g>
</svg>
