<?xml version="1.0" encoding="utf-8"?>
<!-- Generator: Adobe Illustrator 25.2.0, SVG Export Plug-In . SVG Version: 6.00 Build 0)  -->
<svg version="1.1" id="Layer_1" xmlns="http://www.w3.org/2000/svg" xmlns:xlink="http://www.w3.org/1999/xlink" x="0px" y="0px"
	 viewBox="0 0 180 180" style="enable-background:new 0 0 180 180;" xml:space="preserve">
<style type="text/css">
	.st0{clip-path:url(#SVGID_2_);}
	.st1{fill:#193857;}
	.st2{fill:#FFFFFF;}
	.st3{fill:#DFAF33;}
	.st4{fill:#E56324;}
	.st5{fill:#F2844F;}
	.st6{fill:#F95939;}
	.st7{fill:#B65A35;}
	.st8{fill:#997C30;}
	.st9{fill:#102438;}
	.st10{fill:#FBBB9E;}
	.st11{fill:#150F0C;}
	.st12{fill:#B95D38;}
	.st13{fill:#CC492F;}
</style>
<g>
	<defs>
		<rect id="SVGID_1_" width="180" height="180"/>
	</defs>
	<use xlink:href="#SVGID_1_"  style="overflow:visible;fill:#EF1D72;"/>
	<clipPath id="SVGID_2_">
		<use xlink:href="#SVGID_1_"  style="overflow:visible;"/>
	</clipPath>
	<g class="st0">
		<g>
			<path class="st1" d="M91.7,21.3c0.1,0,0.3,0.1,0.4,0.2c-0.4,1-0.5,2-0.5,3c1.4-0.3,2.9-0.5,4.3-0.4c1.3,0,2.7,0.1,4,0.4
				c1.5,0.3,2.9,0.6,4.4,1c2.1,0.7,4.2,1.3,6.2,2.4c2.1,1,4.1,2.2,5.9,3.5c1.2,0.9,2.3,1.8,3.4,2.8c2.1,2,4.1,4.1,5.7,6.5
				c0.8,1.1,1.5,2.3,2.2,3.5c0.9,1.7,1.5,3.5,2.2,5.3c0.3,1,0.8,1.9,1,2.9c0.2,1.1,0.4,2.3,0.5,3.5c0.6,3.3,0.6,6.6,0.6,9.9
				c-0.1,1.4,0,2.8-0.1,4.2c-0.1,1.4-0.4,2.8-0.6,4.2c-0.3,1.7-0.8,3.4-0.7,5.1c0.2,0.1,0.4,0.2,0.6,0.2c0.3,0,0.5-0.3,0.6-0.5
				c1-0.3,0.6-1.9,1.2-2.4c-0.3,1.3-0.9,2.5-1.3,3.8c-0.6,1.3-1.1,2.6-2,3.7c-0.8,1.1-1.6,2.2-2.7,3.1c-1.4,1.2-2.8,2.6-4.7,2.9
				c-1.4,0.1-2.8,0-4.1-0.4c-1.3-0.5-2.6-1-3.9-1.5c-1.2-0.4-2.3-0.8-3.5-1.2c-1.6-0.6-3.3-1-4.9-1.5c-3.3-1-6.5-2.4-9.9-3.5
				c-4.3-1.3-8.8-2-13.2-2.5c-2.6-0.3-5.3-0.1-7.9,0.1c-2.4,0.2-4.8,0.5-7.1,1.1c-1.5,0.4-3.1,0.8-4.6,1.3c-0.5,0.1-1,0.4-1.5,0.2
				c-0.4-0.2-0.4-0.6-0.5-1c-0.6-2.7-1-5.5-1.3-8.3c-0.4-2.9-0.3-5.8-0.3-8.8c0-1.7,0.1-3.4,0.2-5.2c0.1-1.6,0.4-3.3,0.7-4.9
				c0.2-1,0.3-2,0.6-3c0.7-2.1,1.6-4.1,2.7-6c0.8-1.3,1.3-2.7,2.2-3.9c2.1-3.3,5-6.1,8.1-8.4c1.9-1.4,3.9-2.7,6-3.9
				c1-0.5,2-0.9,3-1.3c0.8-0.3,1.6-0.4,2.3-0.8c0-0.6,0.2-1.1,0.4-1.7c0.4-1,0.9-2,1.5-2.8c0.1,0,0.3,0.1,0.3,0.1c0,0.1,0,0.3,0,0.4
				c0.2,0.3,0.1,0.7,0.1,1c0,0.5,0.1,1,0.1,1.5c0.7-0.9,1.3-1.8,2.1-2.6C90.6,22.1,91.1,21.7,91.7,21.3z"/>
			<path class="st2" d="M54.8,147.9c0-0.2,0-0.2,0.2-0.2C55,147.9,54.9,148,54.8,147.9z"/>
		</g>
		<path class="st3" d="M189.1,231c0.7-1,1.2-2.3,1.1-3.6c0-0.8-0.2-1.5-0.5-2.3c-0.3-3.7-0.8-7.5-1.4-11.1c-0.5-3.1-1.2-6.3-2.2-9.3
			c-1.7-5.4-4.2-10.6-7.8-15c-0.1-0.1-0.1-0.2-0.2-0.3c-0.7-1.3-1.7-2.6-2.8-3.7c-0.2-0.2-0.5-0.4-0.7-0.7c-1.2-1.5-2.7-2.8-4.3-3.7
			c-2.5-2.4-5.4-4.5-8.4-6.1c-0.3-0.3-0.7-0.7-1.1-1c-0.9-0.7-2-1.3-2.9-2c-1-0.7-2.1-1.2-3-1.9c-3.7-2.7-7.9-4.7-11.8-7.1
			c-2-1.1-4-2.3-6.1-3.4c-2-1.1-4-2.2-6.1-3.1c-1.8-1-3.5-2-5.2-3.2c-1-0.7-2-1.3-2.8-2.1c-0.5-0.5-1.1-1-1.6-1.5
			c-0.9-0.9-1.9-1.7-2.7-2.7c-1-0.9-2.2-1.6-3.5-1.8c-1-0.1-2,0-3,0c-2.1,0.2-4.2,0.1-6.4,0c-1.9,0-3.8,0-5.7-0.1
			c-1.2-0.1-2.4,0-3.6,0.1c-3.2,0.2-6.5,0.3-9.7,0.6c-3.2,0.3-6.4,0.6-9.7,0.9c-2.9,0.2-5.9,0.3-8.9,0.2c-3.3-0.1-6.6-0.7-10-0.3
			c-0.9,0.2-1.8-0.5-2.8-0.2c-1.1,0.3-2.1,1-3.1,1.7c-1.7,1.2-3.2,2.4-4.8,3.7c-2.8,2.2-5.7,4.4-8.7,6.5
			c-3.4,2.3-14.7,9.7-16.8,11.2c-1.8,1.3-3.6,2.5-5.3,3.8c-1.5,1.1-3,2.3-4.4,3.5c-2.2,1.9-4.5,3.7-6.5,5.9c-0.5,0.2-1,0.6-1.4,1
			c-4.6,5.3-7.9,11.3-10.4,17.9c-2.3,6.2-3.6,12.7-4.4,19.3c-0.4,3.3-0.6,6.5-0.7,9.8H189.1z"/>
		<g>
			<path class="st4" d="M80.4,40.1c0.1,0,0.3,0,0.4,0c0.5,0.7,1,1.5,1.6,2.2c0.9,1.2,1.9,2.4,2.9,3.6c0.6,0.7,1.1,1.5,1.8,2.1
				c1.2,1.2,2.5,2.4,3.8,3.6c1.1,0.9,2.3,1.7,3.3,2.7c1.1,0.9,2.1,1.9,3.2,2.7c0.6,0.4,1.1,0.9,1.7,1.3c0.6,0.4,0.9,1.1,1.5,1.5
				c0.7,0.8,1.3,1.8,1.9,2.8c0.5-0.9,1-1.9,1.3-2.9c0.2-0.6,0.2-1.2,0.4-1.8c0.3-1,0.6-1.9,0.7-2.9c0.9,1.6,2,3,2.5,4.8
				c0.4-0.9,0.7-1.8,1-2.7c0.3-0.9,0.4-1.8,0.7-2.7c0.3-0.8,0.5-1.5,0.7-2.3c0.8,0.8,1.6,1.8,2.2,2.8c0.5,0.9,0.8,1.9,1.2,2.8
				c0.8-1.7,1.5-3.5,2.1-5.3c0.4-1.2,0.5-2.4,0.6-3.6c0.7,0.5,1.4,0.9,2.1,1.3c0.8,0.5,1.2,1.4,1.7,2.1c0.3-0.9,0.5-1.7,0.7-2.6
				c0.1-0.3,0.2-0.6,0.3-0.9c0.2,0.2,0.3,0.5,0.5,0.7c-0.5,1.9-1.4,3.8-2.3,5.5c-0.4,0.5-0.6,1.2-1.2,1.6c-0.4-0.7-0.6-1.4-0.7-2.2
				c-0.8,1.5-1.6,3.1-2.6,4.4c-0.3,0.4-0.6,0.8-1,1.1c-0.2,0.2-0.6,0.1-0.8-0.1c-0.8-0.7-1.3-1.8-2-2.6c-0.5,0.9-0.7,1.9-1.2,2.7
				c-0.5,0.7-1,1.5-1.5,2.2c-0.1,0.2-0.3,0.5-0.5,0.3c-0.5-0.5-0.6-1.2-1-1.8c-0.3,0.8-0.3,1.7-0.8,2.5c-0.4,0.7-0.9,1.5-1.4,2.2
				c-0.7-0.4-1.1-1.1-1.8-1.6c-0.4,0.9-1.1,1.7-1.6,2.6c-0.4,0.8-1,1.5-1.7,2.2c-0.2,0.2-0.4,0.2-0.6,0.2c-0.7-2-2-3.7-3-5.5
				c-0.4-0.7-0.8-1.5-1.4-2.1c-0.3-0.4-0.7-0.7-0.9-1.2c-0.2-0.4-0.4-0.7-0.6-1.1c-0.8-1.1-1.3-2.4-2-3.5c-0.9-1.4-1.9-2.6-2.9-3.9
				c-1.6-2.1-3.3-4.1-4.6-6.4c-0.9-1.4-1.6-2.8-2.5-4.2C80.3,40.5,80.4,40.2,80.4,40.1z"/>
			<path class="st5" d="M80,40.4c0.1,0,0.3,0,0.3-0.1c0,0.1-0.1,0.2-0.1,0.4c0.9,1.4,1.7,2.8,2.5,4.2c1.3,2.3,3,4.3,4.6,6.4
				c1,1.3,2,2.5,2.9,3.9c0.7,1.2,1.3,2.4,2,3.5c0.2,0.3,0.4,0.7,0.6,1.1c0.2,0.5,0.6,0.8,0.9,1.2c0.5,0.6,1,1.4,1.4,2.1
				c1,1.8,2.2,3.5,3,5.5c0.2,0,0.5,0,0.6-0.2c0.6-0.7,1.2-1.4,1.7-2.2c0.5-0.9,1.2-1.6,1.6-2.6c0.6,0.5,1,1.3,1.8,1.6
				c0.5-0.7,0.9-1.4,1.4-2.2c0.5-0.8,0.5-1.7,0.8-2.5c0.4,0.6,0.5,1.3,1,1.8c0.2,0.2,0.4-0.1,0.5-0.3c0.5-0.7,1.1-1.4,1.5-2.2
				c0.5-0.8,0.7-1.9,1.2-2.7c0.7,0.8,1.1,1.9,2,2.6c0.2,0.2,0.6,0.3,0.8,0.1c0.4-0.3,0.7-0.7,1-1.1c1-1.4,1.8-2.9,2.6-4.4
				c0.1,0.8,0.3,1.5,0.7,2.2c0.5-0.4,0.8-1.1,1.2-1.6c1-1.7,1.9-3.6,2.3-5.5c0.4,0.6,1,1.2,1.5,1.8c0.8,1.2,1.7,2.4,2.4,3.7
				c0.8,1.4,1.3,2.9,1.8,4.4c0.4,1.5,0.8,3,0.9,4.5c0.2,1.2,0.3,2.3,0.4,3.5c0.2,1.6,0.1,3.3,0.1,4.9c0.1,3.1-0.4,6.2-0.9,9.3
				c0,0-0.2,0-0.2,0c-0.7,1.5-0.9,3.2-1.1,4.8c-0.4,2.2-0.8,4.3-1.3,6.5c-0.4,1.6-0.9,3.1-1.4,4.6c-0.3,1-0.7,1.9-1,2.8
				c0,0-0.1,0.1-0.2,0.1c-0.3,0.9-0.8,1.6-1.3,2.4c-0.8,1.3-1.6,2.5-2.5,3.7c-1.6,2.2-3.4,4.3-5.2,6.4c0,0.4,0.1,0.7-0.1,1.1
				c0-0.3,0-0.6,0-0.9c-1,0.6-1.9,1.4-2.8,2.1c-2.3,2-4.5,4.3-7,6.1c-1.2,0.8-2.2,1.7-3.4,2.4c-0.9,0.6-1.9,1.2-2.8,1.7
				c-0.9,0.5-1.9,0.9-2.9,1.2c-1.3,0.4-2.7,0.8-4,0.9c-1.4,0.1-2.7-0.2-4.1-0.5c-1.3-0.4-2.5-0.9-3.6-1.5c-1.8-0.9-3.5-2-5-3.3
				c-2.7-2.3-5.2-4.9-7.8-7.4c-1.4-1.3-2.7-2.7-4-4.1c-0.4-0.6-0.8-1.2-1.3-1.7c-0.7-0.8-1.2-1.7-2.1-2.3l0,0c-0.6-1-1.1-2-1.5-3.1
				c-0.6-1.4-1-2.9-1.3-4.3c-0.3-1.5-0.5-3-0.6-4.5c0-0.4-0.1-0.8-0.1-1.2c0.2-0.8,0.2-1.7,0.4-2.5c0.1-1,0.2-1.9,0.2-2.9
				c0.2-3.1,0.6-6.2,1-9.3c0.4-2.3,0.6-4.7,1.1-7c0.2-1.3,0.4-2.6,0.5-3.8c0.1-0.7,0.3-1.4,0.1-2.1c0.2-1.1,0.5-2.2,0.8-3.3
				c0.8-2.5,1.7-5,2.7-7.5c0.4-1.3,1-2.6,1.8-3.7c0.3-0.5,0.7-0.9,0.9-1.4c0.4-0.9,1.1-1.6,1.7-2.3c1.5-1.8,3.3-3.3,5.1-4.7
				C76.5,42,78.2,41,80,40.4z"/>
			<path class="st6" d="M49.6,63.4c1.1-1.6,2.9-2.9,4.9-2.7c1,0.1,2.1,0.3,3,0.8c0.7,0.4,1.4,0.9,1.9,1.5c0.7,0.7,1.4,1.4,1.7,2.3
				c0.1,0.6,0.1,1.3,0.4,1.8c0.1-0.4,0.1-0.7,0.2-1.1c0.2,0.7-0.1,1.4-0.1,2.1c-0.1,1.3-0.3,2.6-0.5,3.8c-0.4,2.3-0.7,4.7-1.1,7
				c-0.5,3.1-0.8,6.2-1,9.3c0,1-0.1,1.9-0.2,2.9c-0.1,0.8-0.1,1.7-0.4,2.5c-0.1-0.8-0.1-1.6-0.1-2.4c-0.3,0-0.5-0.3-0.8-0.4
				c-1.2-0.6-2.3-1.5-3.2-2.4c-1.3-1.4-2.6-2.9-3.7-4.5c-1.3-1.8-2-3.9-2.7-6C47.3,76,47,74.2,47,72.3c0.1-1.6,0.1-3.2,0.5-4.8
				C47.9,66,48.7,64.7,49.6,63.4z"/>
			<path class="st4" d="M71.7,73.5c2.8-0.3,5.6-0.3,8.3,0.3c0.5,0.1,1.1,0.2,1.6,0.4c0.6,0.2,1.2,0.2,1.8,0.3
				c0.3,0.1,0.6,0.4,0.9,0.4c1,0.2,2,0.2,2.8,0.9c0,0-0.1,0.1-0.1,0.2c-1.1-0.2-2.2-0.5-3.3-0.7c-1.1-0.2-2.2-0.2-3.4-0.3
				c-0.7-0.1-1.4,0.1-2,0.1c-2.6,0.2-5.2,0.4-7.8,0c-0.8-0.1-1.5-0.2-2.3-0.4c-0.3-0.1-0.4-0.4-0.5-0.6c0.4-0.1,0.7-0.3,1.1-0.3
				C69.8,73.8,70.7,73.7,71.7,73.5z"/>
			<path class="st6" d="M130.6,75.6c1.3-0.6,2.8-0.9,4.2-0.9c1-0.1,2,0.2,3,0.5c1.1,0.5,2.2,1.2,2.8,2.3c0.7,1.3,0.9,2.8,0.9,4.3
				c-0.1,2.2-0.9,4.2-1.9,6.2c-1,2-2.6,3.8-4.1,5.4c-0.8,0.8-1.7,1.6-2.6,2.4c-1.5,1.3-3.1,2.4-4.9,3.1c-1.8,0.8-3.8,1.2-5.7,1.4
				c0.3-1,0.7-1.9,1-2.8c0.5-1.5,1-3.1,1.4-4.6c0.5-2.1,1-4.3,1.3-6.5c0.2-1.6,0.4-3.3,1.1-4.8c0,0,0.1,0,0.2,0c0,0.2,0,0.3-0.1,0.5
				c0.2-0.7,0.7-1.4,1-2c0.6-1.1,1.2-2.1,1.7-3.3C130.1,76.4,130.1,75.9,130.6,75.6z"/>
			<path class="st4" d="M101.8,77.5c0.5,0,1,0.2,1.5,0.1c2.2,0.1,4.5,0,6.7,0.1c1,0,2,0.1,3,0.1c1,0,2.1,0,3.1,0.3
				c1.4,0.2,2.8,0.7,4.1,1.4c-0.1,0.1-0.2,0.2-0.3,0.1c-0.5-0.1-1-0.3-1.5-0.4c-0.6-0.1-1.1-0.2-1.7-0.2c-1,0-1.9-0.1-2.9-0.1
				c-1,0.4-2,0.3-3,0.4c-2.3,0.2-4.5,0-6.7-0.7c-0.7-0.2-1.5-0.4-2.2-0.7C101.8,77.8,101.5,77.6,101.8,77.5z"/>
			<path class="st4" d="M86.2,94.2c0.3,0,0.5,0.2,0.7,0.3c0.8,0.7,1.7,1.5,2.6,2.1c0.8,0.4,1.6,0.7,2.5,1c1.4,0.4,2.8,0.1,4.2-0.3
				c0.6-0.2,1.2-0.5,1.8-0.7c0.3,0,0.4,0.4,0.2,0.6c-1,0.9-2.1,1.8-3.4,2.4c-1,0.4-1.9,1-2.9,1.2c-0.6,0.1-1.1,0.1-1.7,0.1
				c-0.9,0-1.7-0.5-2.2-1.2c-0.5-0.8-0.9-1.7-1.1-2.6c-0.3-0.8-0.6-1.5-0.8-2.3C85.8,94.6,85.9,94.2,86.2,94.2z"/>
			<path class="st4" d="M62.1,106.8c0.8,0.6,1.4,1.5,2.1,2.3c0.5,0.5,0.9,1.1,1.3,1.7c1.3,1.4,2.5,2.8,4,4.1c2.5,2.5,5.1,5,7.8,7.4
				c1.5,1.3,3.2,2.4,5,3.3c1.2,0.6,2.4,1.2,3.6,1.5c1.3,0.3,2.7,0.6,4.1,0.5c1.4-0.1,2.7-0.5,4-0.9c1-0.3,2-0.7,2.9-1.2
				c1-0.5,1.9-1.2,2.8-1.7c1.2-0.7,2.3-1.6,3.4-2.4c2.6-1.7,4.7-4,7-6.1c0.9-0.7,1.7-1.5,2.8-2.1c0,0.3,0,0.6,0,0.9
				c-0.2,1.4-0.3,2.7-0.5,4.1c-0.1,1.7-0.2,3.3-0.2,5c0,1.1,0.1,2.3,0,3.4c0,0.4,0,0.8-0.1,1.2c-1.2,0.3-2.3,0.7-3.5,1
				c-2.1,0.5-4.2,1.1-6.2,2c-2.4,1.1-4.8,2.3-7.4,3.1c-1.3,0.4-2.7,0.8-4,1.1c-0.2-0.8-0.4-1.7-0.9-2.4c0,0-0.1,0-0.2,0.1
				c-0.1,0.8,0.2,1.6,0.3,2.5c-2.6,0.4-5.3,0.5-8,0.9c0-0.8,0.1-1.6,0.1-2.4c0-0.2-0.1-0.4-0.3-0.6c-0.1,0-0.2,0.1-0.2,0.2
				c-0.2,1-0.3,2-0.4,3c-2.1,0.3-4.1,0.9-6.1,1.6c-1.1,0.4-2.2,0.9-3.3,1.4c-2.5,1-5,2.2-7.4,3.3c-1.3,0.6-2.7,0.9-4.1,1.1
				c-0.6,0.1-1.3,0.3-1.9,0.1c1.2-2.3,2.1-4.8,2.5-7.3c0.2-1.4,0.4-2.8,0.6-4.2c0.2-1.9,0.4-3.8,0.6-5.8c0.1-0.7,0.1-1.4,0.1-2.1
				c0.2-2,0.2-3.9,0.4-5.9c0.1-1.7,0.2-3.4,0.3-5.1c0.2-1.5,0.3-3,0.4-4.5C62.9,108.3,62.6,107.5,62.1,106.8z"/>
			<path class="st4" d="M82.7,107.1c0.3-0.1,0.6,0.1,0.9,0.1c0.7,0.2,1.5,0.4,2.2,0.6c1.3,0.2,2.7,0.5,4,0.7
				c1.2,0.2,2.5,0.4,3.7,0.3c0.9-0.1,1.8-0.1,2.8-0.2c0.2,0,0.5,0.2,0.4,0.4c0,0.3-0.5,0.2-0.6,0.5c-0.6,1-1.3,1.9-1.6,2.9
				c-0.1,0.3-0.4,0.5-0.7,0.5c-0.5-0.1-1-0.3-1.5-0.5c-2-0.7-4.2-0.5-6.3-0.5c-0.6,0-1.2,0.2-1.8,0.1c-0.4-0.1-0.1-0.6-0.2-0.9
				c-0.2-0.6-0.2-1.2-0.5-1.8c-0.3-0.6-0.6-1.3-0.9-1.9C82.5,107.5,82.6,107.2,82.7,107.1z"/>
			<path class="st5" d="M112.2,127.9c0-0.4,0.1-0.8,0.1-1.2c0,2.6,0.1,5.1,0.5,7.6c0.4,2.9,0.9,5.9,1.9,8.7c0.3,0.9,0.6,1.8,1.1,2.7
				c0.4,0.6,0.5,1.4,0.8,2c0.1,0.7-0.3,1.3-0.7,1.8c-0.9,1.8-2.2,3.3-3.6,4.7c-1,0.8-1.8,1.8-2.8,2.6c-0.7,0.5-1.2,1.2-1.9,1.7
				c-0.8,0.6-1.5,1.3-2.2,1.8c-1.9,1.4-4,2.7-6.1,3.7c-1.2,0.6-2.4,1.1-3.6,1.6c-3.4,1.5-7,2.2-10.7,2.7c-1.3,0.1-2.6,0.2-4,0.1
				c-1.7-0.1-3.4-0.3-5.1-0.7c-0.9-0.2-1.8-0.5-2.7-0.8c-2.2-0.8-4.4-1.7-6.4-2.8c-1.2-0.6-2.3-1.4-3.4-2.2c-1.4-1-2.8-2.1-4-3.3
				c-0.8-0.8-1.6-1.6-2.2-2.6c-0.8-1.1-1.5-2.3-2.2-3.4c-0.4-0.8-0.9-1.5-1-2.4c-0.1,0-0.3,0-0.3,0.1c-0.3-0.3,0.1-0.7,0.3-1
				c0.7-0.7,1.3-1.4,2-2c1.1-1,2-2.3,2.7-3.6c0.6,0.1,1.3,0,1.9-0.1c1.4-0.2,2.8-0.5,4.1-1.1c2.5-1.1,4.9-2.2,7.4-3.3
				c1.1-0.5,2.1-1,3.3-1.4c2-0.7,4-1.3,6.1-1.6c-0.1,1.2-0.2,2.5,0.2,3.7c0.4,1.3,0.9,2.6,1.9,3.6c0.1,0.1,0.4,0.3,0.5,0.1
				c0-0.2-0.2-0.3-0.3-0.5c-0.6-0.8-0.9-1.7-1.2-2.6c-0.4-1.4-0.3-2.9-0.3-4.4c2.7-0.3,5.3-0.4,8-0.9c0.1,1.3,0.3,2.6,0.3,3.9
				c0,1.4-0.2,2.9-0.7,4.2c0.1,0,0.3,0,0.4,0c0.4-0.6,0.6-1.3,0.8-2c0.5-2.1,0.4-4.2,0.1-6.3c1.3-0.3,2.7-0.7,4-1.1
				c2.5-0.8,4.9-2,7.4-3.1c2-0.8,4.1-1.4,6.2-2C109.9,128.5,111,128.2,112.2,127.9z"/>
			<path class="st7" d="M90,132.6c0,0,0.1,0,0.2-0.1c0.5,0.7,0.7,1.6,0.9,2.4c0.4,2.1,0.4,4.2-0.1,6.3c-0.2,0.7-0.3,1.4-0.8,2
				c-0.1,0-0.3,0-0.4,0c0.6-1.3,0.7-2.8,0.7-4.2c0-1.3-0.2-2.6-0.3-3.9C90.2,134.3,89.9,133.5,90,132.6z"/>
			<path class="st7" d="M82.1,133c0.1,0.2,0.3,0.4,0.3,0.6c0,0.8-0.1,1.6-0.1,2.4c0,1.5-0.1,3,0.3,4.4c0.3,0.9,0.6,1.9,1.2,2.6
				c0.1,0.2,0.3,0.3,0.3,0.5c-0.1,0.2-0.4,0.1-0.5-0.1c-1-1-1.5-2.3-1.9-3.6c-0.4-1.2-0.2-2.5-0.2-3.7c0.1-1,0.3-2,0.4-3
				C81.9,133.1,82,133,82.1,133z"/>
			<path class="st7" d="M90.6,157.3c0.2,0.1,0.2,0.4,0,0.5c-0.6,0.7-1.3,1.4-2.1,1.9c-1.2,0.7-2.7,1.2-4.1,1
				c-1.2-0.2-2.1-1.1-2.7-2.1c0-0.1,0.1-0.2,0.1-0.2c0.5-0.1,0.9,0.4,1.3,0.7c0.7,0.6,1.6,0.9,2.4,0.8c1.4-0.1,2.8-0.6,3.9-1.4
				C89.9,158.1,90.2,157.7,90.6,157.3z"/>
			<g>
				<path class="st8" d="M117.3,158.1c1.1-1.6,2.4-3.2,3.1-5c0.3-0.8,0.9-1.5,0.7-2.4c-0.1,0-0.2,0-0.3,0c-0.2,0.8-0.6,1.5-0.9,2.2
					c-0.6,1.6-1.7,2.9-2.6,4.3c-1.3,1.9-2.8,3.6-4.4,5.3c-1.2,1.3-2.6,2.5-4.1,3.5c-1.3,1-2.7,2-4.1,2.9c-1,0.6-2,1.2-3,1.7
					c-2.1,1-4.2,2.1-6.5,2.9c-2.5,0.9-5.1,1.6-7.7,2.2c-2.3,0.5-4.7,0.6-7.1,0.4c-1.9-0.3-3.8-0.5-5.7-0.8c-2.5-0.4-4.9-1.1-7.2-2.1
					c-1.1-0.4-2.2-0.9-3.3-1.5c-1.7-1-3.4-2.1-4.9-3.4c-1.7-1.5-3.3-3.1-4.7-4.9c-1.3-1.8-2.5-3.7-3.4-5.7c-0.4-1.1-0.7-2.2-1.1-3.3
					c-0.2-0.7-0.3-1.4-0.5-2.1c-0.1,0-0.2,0-0.3,0c0,0.8,0.2,1.6,0.4,2.4c0.4,1.1,0.7,2.2,1.1,3.3c0.8,2.1,2.1,4.1,3.5,5.9
					c1.2,1.7,2.8,3.1,4.3,4.6c1.7,1.6,3.6,2.8,5.6,3.9c1.6,0.9,3.3,1.5,5,2.1c2.7,0.9,5.5,1.5,8.4,1.8c1.3,0.2,2.6,0.4,4,0.4
					c3,0.1,5.9-0.4,8.8-1.1c2.8-0.7,5.5-1.6,8-2.8c2.1-1,4.3-2,6.3-3.2c1.7-1,3.2-2.2,4.8-3.4c1.2-0.8,2.3-1.8,3.3-2.8
					C114.4,161.7,116,160,117.3,158.1z"/>
				<path class="st8" d="M51.5,179c0.1-0.2,0-0.4,0-0.6c-0.1,0.1-0.2,0.3-0.3,0.4c-0.7,0.6-1.4,1.2-2.2,1.8c-1.3,1-2.5,1.9-3.7,2.9
					c-0.6,0.5-1.2,1-1.8,1.6c-0.7,0.4-1.1,1.1-1.8,1.5c0,0.1,0,0.2,0,0.3c0.7-0.3,1.2-0.9,1.7-1.4l0-0.1l0.1,0
					c0.8-0.7,1.6-1.3,2.5-2C48,182.1,50.2,180.9,51.5,179z"/>
				<path class="st8" d="M135,187.6c-1.6-0.2-3.2-0.3-4.7-0.5c-0.9-0.2-2-0.1-2.8,0.5c-0.1,0.1-0.3,0.1-0.5,0.2
					c0.4,0.1,0.7-0.1,1.1-0.2c0.6-0.1,1.2-0.1,1.8,0c0.6,0.1,1.3,0.3,1.9,0.3c1.4,0.2,2.8,0.1,4.1,0.1c0.8,0,1.7,0,2.4-0.4
					c0-0.1,0-0.3,0-0.4C137.4,187.8,136.1,187.4,135,187.6z"/>
				<path class="st8" d="M155.1,197.8c-0.1,0-0.2,0-0.3,0c-0.2,0.9-0.5,1.9-0.7,2.8c-0.6,2-1.2,4-1.8,6c-0.4,1.3-0.6,2.6-1,3.9
					c-0.4-2.7-1.1-5.3-1.3-7.9c0-0.3,0-0.5-0.1-0.7c-0.1,0-0.3,0-0.4,0c-0.1,0.2-0.1,0.5-0.1,0.7c-0.1,1.6,0.2,3.3,0.4,4.9
					c0.2,1.2,0.5,2.4,0.9,3.6c0.1,0.4,0.3,0.8,0.1,1.2c-0.3,1.2-0.5,2.3-0.8,3.5c-1.1-1.1-1.7-2.5-2.4-3.8c-0.5-0.9-1-1.9-1.7-2.7
					c-0.1-0.2-0.4-0.1-0.6-0.1c0,0.1,0.1,0.3,0.1,0.4c0.5,1.2,1,2.3,1.6,3.5c0.5,1.1,1.1,2.1,2,2.9c0.3,0.2,0.6,0.4,0.8,0.8
					c-0.1,0.5-0.2,1-0.2,1.5c-0.2,1.6-0.4,3.3-0.5,4.9c0,1.3-0.1,2.6,0.1,3.9c0.2,0,0.3,0,0.5,0c0.1-0.3,0.1-0.5,0.2-0.8
					c0.1-1,0.2-2,0.2-3c0.3-2.3,0.7-4.6,1.1-6.9c0.5-2.8,1.3-5.4,1.8-8.2c0.4-2.5,1.2-4.9,1.7-7.4
					C155,199.7,155.3,198.8,155.1,197.8z"/>
				<path class="st8" d="M95.3,198.9c-0.7-0.2-1.5-0.2-2.2,0.1c0,0.1-0.1,0.2-0.1,0.2c0.3,0,0.6,0,0.8,0c0.7,0,1.4,0.3,2,0.6
					c2.6,1,5.1,2.3,7.5,3.6c0.5,0.3,1,0.4,1.3,0.8c0.1,0,0.2,0,0.2,0c0-0.1,0-0.2,0-0.3c-1-0.8-2.2-1.4-3.3-2.1
					C99.7,200.6,97.5,199.7,95.3,198.9z"/>
				<path class="st8" d="M15.5,201.5c0.1,0.7,0.4,1.3,0.6,2c0.6,2.2,1.2,4.5,1.5,6.7c0.2,1.4,0.5,2.7,0.8,4.1c0.3,1.4,0.8,2.6,1.1,4
					c0.6,2.7,1.3,5.4,1.7,8.1c0.2,1.3,0.7,2.5,0.6,3.8c0,0,0.1,0,0.2,0c0,0.2,0.1,0.5,0.1,0.7h0.8c0-0.1,0-0.3,0-0.4
					c-0.1-1.6-0.3-3.3-0.6-4.9c-0.2-1-0.4-2-0.7-3c0-0.1,0-0.3,0-0.4c0.4-0.4,0.6-0.9,0.9-1.4c0.8-1.1,1.3-2.4,1.8-3.6
					c0.4-1,0.7-2.1,0.9-3.1c0-0.3,0.1-0.8-0.3-0.8c-0.3,1.4-0.8,2.7-1.3,4c-0.5,1.1-0.9,2.3-1.5,3.3c-0.3,0.4-0.4,0.9-0.5,1.4
					l-0.2,0c-0.3-1.4-0.7-2.8-1.1-4.1c0.1,0,0.3,0,0.4,0c0-0.4,0.1-0.9,0.1-1.3c0.3-1.7,0.9-3.3,1-5c0.2-1.5,0.3-3,0.1-4.5
					c0.1-0.5,0-1,0-1.5c0,0-0.1-0.1-0.2-0.2c-0.2,0.9-0.2,1.8-0.2,2.7c0,0.5-0.1,1-0.1,1.5c-0.1,1.7-0.4,3.4-0.7,5.1
					c-0.1,0.5-0.2,1-0.2,1.5l-0.1-0.1c-0.1,0.6-0.1,1.1-0.2,1.7c-0.4-1.4-0.6-2.8-0.9-4.2c-0.6-3.1-1.4-6.2-2.3-9.2
					c-0.3-1.1-0.8-2.2-1.2-3.3c-0.2-0.6-0.5-1.2-0.7-1.8c-0.1,0-0.2,0-0.2,0c0.1,0.8,0.4,1.6,0.6,2.4L15.5,201.5z"/>
				<path class="st8" d="M63.9,220.7c-1.8,0.6-3.5,1.4-5.2,2.2c-1.3,0.6-2.5,1.4-3.7,2.1c-0.7,0.4-1.4,0.6-2.2,0.8
					c-0.7,0-1.5,0.2-2.2,0.2c0.7,0.4,1.6,0.4,2.4,0.3c0.3,0,0.5,0,0.8-0.2c0.9-0.1,1.7-0.5,2.4-0.9c2.1-1.1,4.2-2.3,6.3-3.3
					c0.9-0.4,1.8-0.7,2.6-1.3c0-0.1,0-0.2,0-0.3C64.6,220.2,64.3,220.6,63.9,220.7z"/>
				<path class="st8" d="M120.1,221.1c-2.1,0.1-4.2-0.2-6.3-0.5c-0.5-0.1-0.9,0-1.3,0.1c0.4,0.3,1,0.2,1.4,0.3
					c1.3,0.3,2.7,0.5,4.1,0.5c1.1,0,2.3,0,3.4-0.5c0-0.1,0-0.2,0.1-0.2C121.1,220.8,120.6,221.1,120.1,221.1z"/>
			</g>
		</g>
		<g>
			<g>
				<path class="st9" d="M107.1,41.2c0.1,0.1,0.1,0.1,0.2,0.2c0,0,0.1,0.1,0.1,0.2l0.1,0c0,0,0,0.1,0,0.2c0.1,0.1,0.3,0.3,0.4,0.4
					c0.9,1.3,1.7,2.8,2.3,4.3c0.1,0.2,0.2,0.4,0.2,0.6c0.1,0.3,0.2,0.6,0.4,1c0.2,0.5,0.4,1,0.5,1.5l0.1,0c0,0.1,0,0.3,0,0.4l0.1,0
					c0.1,0.3,0.1,0.6,0.2,0.8l0.1,0c0,0.1,0,0.2,0,0.3c0.1,0.2,0.1,0.3,0.2,0.5c0,0.2,0.1,0.4,0.1,0.5l0.1,0c0,0.2,0,0.3,0,0.5
					l0.1,0c0,0.2,0,0.3,0,0.5c0.1,0.3,0.1,0.5,0.2,0.8c0,0.2,0,0.5-0.1,0.7c0-0.2,0-0.5,0-0.8l-0.1,0c0-0.2,0-0.4,0-0.6l-0.1,0
					c0-0.2,0-0.4,0-0.5l-0.1,0c0-0.3-0.1-0.6-0.2-0.8c0-0.2-0.1-0.4-0.1-0.5l-0.1,0c0-0.1,0-0.3,0-0.4l-0.1,0c0-0.1,0-0.2,0-0.3
					c-0.2-0.5-0.3-1-0.5-1.4c0-0.1-0.1-0.3-0.1-0.4l-0.1,0c-0.1-0.2-0.1-0.4-0.2-0.5c-0.1-0.2-0.2-0.4-0.3-0.6
					c-0.1-0.2-0.2-0.4-0.2-0.6c-0.7-1.5-1.4-3-2.3-4.5c-0.2-0.3-0.4-0.7-0.6-1c0,0-0.1,0-0.1,0l0.1-0.2l-0.2,0
					C107,41.3,107,41.2,107.1,41.2z"/>
				<path class="st9" d="M110.8,41.4c0.1,0,0.2,0,0.3,0c0,0.1,0,0.3,0,0.4l0.2,0c0,0.1,0,0.2-0.1,0.2l0.1,0c0.1,0.3,0.2,0.5,0.3,0.8
					c0.1,0.3,0.3,0.6,0.4,1c0.2,0.5,0.3,0.9,0.5,1.4c0,0.1,0.1,0.2,0.1,0.4c0.1,0.3,0.2,0.6,0.2,0.9l0.1,0c0,0.1,0,0.2,0,0.3
					c0.1,0.2,0.1,0.4,0.1,0.5l0.1,0c0.1,0.5,0.3,1,0.3,1.5l0.1,0c0,0.2,0,0.4,0,0.6l0.1,0c0,0.2,0,0.4-0.1,0.6
					c0-0.1-0.1-0.4-0.1-0.5l-0.1,0c0-0.3-0.1-0.6-0.2-1l-0.1,0c0-0.2,0-0.3,0-0.5l-0.1,0c0-0.1,0-0.3,0-0.4l-0.1,0
					c-0.1-0.4-0.2-0.8-0.3-1.1c0-0.1-0.5-1.6-0.6-1.8c0-0.1-0.1-0.2-0.1-0.4c0-0.1-0.1-0.2-0.1-0.4c-0.2-0.4-0.3-0.9-0.5-1.3
					c0-0.1-0.1-0.3-0.1-0.4l-0.1,0C111,42,110.9,41.7,110.8,41.4z"/>
				<path class="st9" d="M82.4,41.7c0.4-0.1,0.8,0,1.2-0.2c0.1,0,0.3,0.1,0.4,0.2c-0.1,0-0.3,0.1-0.4,0.1c-0.4,0.1-0.9,0.1-1.3,0.2
					c-1.2,0.3-2.4,0.8-3.6,1.3c0-0.1,0-0.2,0-0.3c0.9-0.7,2-1,3.1-1.3C82,41.8,82.2,41.8,82.4,41.7z"/>
				<path class="st9" d="M104.6,42.1c-0.1-0.2-0.1-0.4,0-0.6l0,0.3l0.1,0c0.1,0.2,0.2,0.4,0.3,0.6c0.2,0.4,0.5,0.8,0.7,1.2
					c0.3,0.6,0.6,1.2,0.8,1.8c0,0.1,0.1,0.2,0.1,0.4c0.1,0.3,0.2,0.6,0.2,0.8c0,0.2,0.1,0.3,0.1,0.5c0,0.2,0.1,0.3,0.1,0.5
					c0.1,0.4,0.2,0.8,0.2,1.3l0.1,0c0,0.2,0,0.5,0,0.7l0.1,0c0,0.3,0,0.5,0,0.8l0.1,0c0,0.7-0.1,1.5,0,2.2c-0.1-0.1-0.2-0.2-0.2-0.3
					l-0.2,0.2c0.1-0.1,0.1-0.2,0.2-0.3c0-0.5,0-1,0-1.5c-0.1-0.2-0.1-0.4-0.1-0.7l-0.1,0c0-0.5-0.2-0.9-0.2-1.3l-0.1,0
					c0-0.1,0-0.2,0-0.3c-0.1-0.2-0.1-0.3-0.2-0.5c0-0.2-0.1-0.4-0.1-0.5l-0.1,0c0-0.1,0-0.2,0-0.3c-0.1-0.1-0.1-0.2-0.2-0.4
					c0-0.1-0.1-0.2-0.1-0.4c-0.3-0.7-0.5-1.4-0.8-2.1C105.3,43.5,104.9,42.8,104.6,42.1z"/>
				<path class="st9" d="M89.4,41.9c0.3,0.2,0.5,0.3,0.8,0.5c0.3,0.2,0.6,0.3,0.8,0.5c0.8,0.5,1.6,1,2.4,1.5c1.3,0.8,2.3,1.9,3.4,3
					c1.9,2,3,4.7,4,7.3c0.1,0.3,0.2,0.6,0.4,1c0,0.1,0.1,0.2,0.1,0.3c0,0.1,0.1,0.3,0.1,0.4l0.1,0c0,0.1,0,0.3,0,0.4l0.1,0
					c0,0.2,0,0.3,0,0.5l0.1,0c0,0.2-0.1,1-0.1,0.2l-0.1,0c-0.1-0.4-0.2-0.7-0.3-1.1l-0.1,0c-0.1-0.2-0.1-0.4-0.2-0.5
					c-0.1-0.2-0.2-0.4-0.3-0.6c-1-2.3-2-4.6-3.5-6.6c-0.6-0.8-1.3-1.4-2-2.1c-0.7-0.6-1.3-1.2-2-1.7c-1-0.7-2-1.3-3-2
					c-0.2-0.1-0.4-0.3-0.5-0.4c-0.1,0-0.2,0-0.3,0C89.4,42.1,89.4,42,89.4,41.9z"/>
				<path class="st9" d="M95.4,42.5c0.2,0,0.4,0,0.5,0.2c1.5,1.5,3.1,2.9,4,4.8c0.4,0.8,0.7,1.6,1,2.4c0.1,0.3,0.2,0.6,0.2,0.8
					c0,0.2,0.1,0.3,0.1,0.5c0,0.2,0.1,0.4,0.1,0.6l0.1,0c0,0.1,0,0.3,0,0.4c0.1,0.4,0.2,0.8,0.3,1.2c0.1,0.5,0.2,0.9,0.2,1.4l0.1,0
					c0,0.3,0,0.5,0,0.8l0.1-0.1c0,0.2,0,0.4,0,0.7l0.1,0c0,0.3,0,0.6,0,0.9l0.1,0c0,0.3,0,0.5,0,0.8c-0.1-0.3-0.1-0.6-0.2-0.9
					c0-0.2,0-0.5,0-0.7l-0.1,0.1c0-0.2,0-0.4,0-0.6l-0.1,0c0-0.2,0-0.5,0-0.7l-0.1,0c0-0.6-0.3-1.1-0.3-1.7l-0.1,0
					c0-0.1,0-0.3,0-0.4c-0.1-0.3-0.2-0.6-0.3-1c0-0.2-0.1-0.4-0.1-0.5l-0.1,0c0-0.1,0-0.2,0-0.3c-0.1-0.1-0.1-0.2-0.2-0.4
					c0-0.1-0.1-0.2-0.1-0.4c-0.1-0.2-0.1-0.3-0.2-0.5c-0.4-1.2-1-2.3-1.7-3.4c-0.9-1.2-1.9-2.3-2.9-3.4c0-0.1-0.1-0.2-0.1-0.2
					l-0.1,0c0-0.1,0.1-0.2,0.1-0.2C95.6,42.6,95.5,42.6,95.4,42.5z"/>
				<path class="st9" d="M100.3,42.7c0,0.1,0,0.2,0,0.2l0.2,0l0,0.1c1.8,1.4,3.2,3.3,4.2,5.3c0,0.1,0.1,0.2,0.1,0.3l0.1,0
					c0,0.1,0,0.2,0,0.2l0.2,0c0,0.1,0,0.2,0,0.2l0.2,0c0,0.1,0,0.2-0.1,0.2l0.2,0c0,0.1,0,0.2,0,0.2l0.1,0c0.1,0.3,0.2,0.5,0.3,0.8
					l0.1,0c0.1,0.2,0.1,0.4,0.2,0.6l0.1,0c0,0.1,0,0.3,0,0.4l0.2,0c0,0.1-0.1,0.2-0.1,0.3h0.2c0,0.1,0,0.3,0,0.4l0.1,0
					c0,0.1,0,0.3,0,0.4l0.2,0c0,0.1-0.1,0.2-0.1,0.2l0.2,0c0,0.1,0,0.3,0,0.4l0.1,0c0,0.1,0,0.3,0,0.4l0.2-0.1c0,0.1,0,0.3,0,0.4
					l0.2,0c0,0.1,0,0.3,0,0.4l0.2-0.1c0,0.1,0,0.3,0,0.4l0.2,0c0,0.1,0,0.3,0,0.4l0.1,0c0,0.3,0.1,0.6,0.2,0.9l0.1,0
					c0,0.2,0,0.4,0,0.6c0.1,0,0.2-0.1,0.3-0.2c-0.2,0.2-0.2,0.4-0.2,0.7c0,0,0,0,0,0c-0.1-0.2-0.1-0.3-0.2-0.5c0-0.3-0.1-0.7-0.1-1
					l-0.1,0c0-0.1,0-0.3,0-0.4l-0.1,0c-0.1-0.5-0.3-1-0.4-1.4l-0.1,0c0-0.1,0-0.3,0-0.4l-0.1,0c0-0.1,0-0.3,0-0.4l-0.1,0.1
					c-0.1-0.2-0.1-0.3-0.2-0.4c0,0,0-0.1,0-0.2l-0.2,0c0-0.1,0-0.3,0-0.4l-0.2,0c0-0.1,0.1-0.2,0.1-0.3l-0.1,0
					c-0.1-0.2-0.1-0.4-0.2-0.6l-0.1,0c0-0.1,0.1-0.2,0.1-0.3l-0.1,0c-0.1-0.4-0.3-0.7-0.5-1.1c-0.1-0.2-0.2-0.4-0.3-0.6
					c-1.1-2-2.5-3.9-4.1-5.5c-0.1-0.1-0.2-0.3-0.3-0.4l-0.1,0C100.2,42.9,100.3,42.8,100.3,42.7z"/>
				<path class="st9" d="M85,43.9c0.5-0.3,1.2-0.2,1.7-0.1c1.1,0.2,2.2,0.5,3,1.2c0,0.1,0,0.2,0,0.2c-0.1,0-0.2,0-0.3,0
					c-0.6-0.4-1.4-0.7-2.2-0.8c-0.7-0.1-1.5-0.3-2.3-0.1C85.1,44.1,85,44,85,43.9z"/>
				<path class="st9" d="M91.4,47.4c0.3,0,0.5,0,0.8,0.2c2,1.1,3.6,2.6,5,4.4c0.8,1.1,1.7,2.1,2.4,3.2c0.1,0.2,0.2,0.4,0.4,0.6
					l0.1,0c0,0,0,0.1,0,0.2c0.1,0.2,0.3,0.4,0.4,0.6c0,0.1,0.1,0.2,0.1,0.3l0.1,0c0,0.1,0,0.2,0,0.2h0.2c0,0.1,0,0.2-0.1,0.2l0.1,0
					c0.2,0.4,0.4,0.8,0.5,1.2l0.1,0c0,0.2,0.1,0.3,0.1,0.5l0.1,0c0,0.1-0.1,0.2-0.1,0.3l0.2,0c0,0.1-0.1,0.2-0.1,0.3l0.2,0
					c0,0.1-0.1,0.2-0.1,0.3l0.1,0c0.1,0.3,0.2,0.5,0.3,0.8c-0.3-0.5-0.5-1-0.8-1.5c-0.1-0.1-0.1-0.3-0.2-0.4l-0.1,0
					c0-0.1,0-0.2,0.1-0.2h-0.2c0-0.1,0-0.2,0.1-0.2l-0.2,0c0-0.1,0.1-0.2,0.1-0.2l-0.1,0c-0.1-0.2-0.2-0.3-0.2-0.5
					c-0.1-0.2-0.8-1.3-0.9-1.5c-0.1-0.1-0.2-0.2-0.2-0.4c-0.8-1.2-1.8-2.3-2.7-3.5c-1.4-1.8-3.3-3.3-5.3-4.5
					C91.5,47.6,91.5,47.5,91.4,47.4z"/>
				<path class="st10" d="M79.5,48.5c0,0,0-0.1,0.1-0.2c0,0.1,0,0.2,0.1,0.2c0.1,0,0.2,0,0.2-0.1c0,0.1,0,0.2,0,0.3
					c-0.1,0-0.2,0.1-0.3,0.1c-0.2,0.1-0.3,0.1-0.5,0.2l0,0.1c-0.1,0-0.2-0.1-0.3-0.1l0,0.2c-0.1,0-0.2-0.1-0.2-0.1l0,0.2
					c0,0-0.1,0-0.2,0c-0.1,0-0.2,0.1-0.3,0.1l0,0.1c-0.1,0-0.2,0-0.2-0.1l0,0.1c-0.7,0.3-1.3,0.8-1.9,1.3c-0.1,0.1-0.2,0.2-0.4,0.4
					c-0.2,0.2-0.4,0.5-0.6,0.7c0,0-0.1,0.1-0.2,0.1c0,0.1,0,0.2,0,0.3c-0.1,0.1-0.2,0.2-0.2,0.2c0,0,0-0.1,0-0.2
					c-0.1,0-0.2,0-0.3-0.1l0.2,0c0-0.1-0.1-0.2-0.1-0.3l0.1,0c0-0.1,0.1-0.2,0.1-0.3c0.1-0.2,0.2-0.3,0.3-0.5
					c0.1-0.1,0.2-0.3,0.3-0.4c0.2-0.3,0.5-0.6,0.8-0.9c0.4-0.3,0.9-0.6,1.3-1c0.1,0,0.2-0.1,0.3-0.1l0-0.1c0.1,0,0.2,0.1,0.2,0.1
					l0-0.2c0.1,0,0.2,0.1,0.2,0.1l0-0.2c0.1,0,0.2,0.1,0.2,0.1l0-0.1c0.2-0.1,0.4-0.1,0.5-0.2C79.1,48.6,79.3,48.6,79.5,48.5z"/>
				<path class="st6" d="M52.5,65.7c1.3-0.2,2.3,0.8,3.1,1.6c1.2,1.5,2.1,3.3,2.7,5.2c0.4,1.3,0.6,2.6,0.7,4c-0.1,0-0.3,0-0.4,0
					c-0.2-2-0.8-4-1.7-5.7c-0.8-1.6-1.9-3.2-3.5-4.2c-0.3-0.2-0.6-0.3-1-0.3c0-0.1-0.1-0.2-0.2-0.3C52.3,66,52.4,65.8,52.5,65.7z"/>
				<path class="st1" d="M70.6,70.6c1.8-0.9,3.8-1.4,5.8-1.4c1,0,1.9,0.3,2.9,0.3c1.2,0,2.3,0.4,3.5,0.6c1.1,0.2,2,0.7,3,1.2
					c1.1,0.5,2.1,1.1,3,2c0-0.2,0-0.4,0-0.6c0.1,0.1,0.2,0.1,0.3,0.2l0.1,0c0.1,0.2,0.2,0.4,0.4,0.6c0.2,0.3,0.5,0.6,0.5,1.1
					c0,0.1,0.1,0.2,0.2,0.3c0-0.1,0-0.3,0-0.4l-0.1-0.1c-0.2-0.3-0.2-0.6-0.3-0.9c0-0.1-0.1-0.3-0.1-0.4c0.1,0,0.2,0,0.3,0
					c0.7,0.8,0.8,2.1,0.5,3.1c-1.2,0.3-2.4-0.1-3.6-0.3c-2.2-0.3-4.4-1.1-6.6-1.3c-2.1-0.2-4.1-0.4-6.2-0.3c-1.2,0.1-2.5,0.1-3.7,0
					c-1.1,0-2.3-0.1-3.4-0.3c-0.2,0-0.2-0.2-0.2-0.3C67.8,72.4,69.1,71.3,70.6,70.6z"/>
				<path class="st1" d="M103.5,74.1c0.7-0.6,1.6-0.7,2.5-0.9c2.3-0.3,4.6-0.1,6.9,0.2c1.2,0.1,2.4,0.5,3.6,0.8
					c1.1,0.3,2.2,0.6,3.1,1.3c1,0.8,1.9,1.7,2.6,2.7c0.3,0.4,0.8,0.8,0.6,1.3c0-0.1-0.1-0.2-0.1-0.2c-0.4,0.1-0.8,0.2-1.1,0.1
					c-1.7-0.3-3.5-0.6-5.3-0.7c-3.4-0.2-12.8-0.8-14.2-0.9c-0.3,0-0.6,0-0.9,0c0,0-0.1,0-0.1,0c0-0.1-0.1-0.2-0.2-0.2
					c0.1-0.4,0.1-0.9,0.2-1.3c0.2-0.7,0.5-1.4,0.9-2.1c0.2,0,0.3,0,0.5,0c-0.2,0.5-0.5,1-0.7,1.5C102.4,75,103,74.5,103.5,74.1z"/>
				<path class="st11" d="M77.4,76.4c0.5-0.1,1,0,1.3,0.5c0.6,0.9,0.3,2.3-0.7,2.8c-0.5,0.3-1.1,0.2-1.5-0.2
					c-0.7-0.6-0.7-1.8-0.1-2.5C76.7,76.8,77,76.6,77.4,76.4z"/>
				<path class="st12" d="M99.2,81.7c0.4-1.5,1-2.9,1.9-4.1c0,0.1,0.1,0.2,0.2,0.2c0,0,0.1,0,0.1,0c-1.2,2.5-2,5.2-2.4,7.9
					c-0.1,0.9-0.2,1.8-0.3,2.8c0,0.9,0,1.8,0,2.7c0-0.1-0.1-0.2-0.1-0.3l-0.1,0c0-1.6-0.1-3.2,0.1-4.8C98.6,84.5,98.8,83,99.2,81.7z
					"/>
				<path class="st6" d="M133.9,80.2c0.8-0.5,1.7-0.9,2.6-0.8c0.1,0.1,0.2,0.2,0.3,0.4c-0.4,0.2-0.9,0.2-1.4,0.4
					c-2,0.9-3.6,2.5-5.1,4.2c-1.5,1.8-3,3.7-3.7,5.9c-0.1,0-0.2,0-0.3,0c0-0.9,0.4-1.7,0.8-2.4c1.1-2.1,2.6-3.9,4.2-5.6
					C132.1,81.4,133,80.7,133.9,80.2z"/>
				<path class="st12" d="M80.8,81.1c0.4-0.2,0.8-0.5,1.3-0.6c0,0.1,0,0.2,0,0.3c-1.4,1-3.1,1.3-4.7,1.3c-1.5,0-3.2-0.1-4.3-1.2
					c0-0.2,0-0.3,0-0.5c1.2,0.7,2.6,0.9,4,1C78.4,81.6,79.6,81.6,80.8,81.1z"/>
				<path class="st11" d="M110.8,81.1c0.8-0.4,1.8,0.3,1.8,1.1c0.1,1.1-0.6,2.3-1.8,2.3c-1.1,0-1.8-1.4-1.2-2.4
					C109.9,81.8,110.3,81.3,110.8,81.1z"/>
				<path class="st12" d="M114.9,82.8c0-0.1,0-0.2,0-0.3c0.2,0.1,0.2,0.3,0.2,0.5c-0.1,0-0.2,0-0.2,0c-0.6,0.7-1.1,1.5-2,2l0,0.1
					c-0.1,0-0.2-0.1-0.2-0.1l0,0.2c-0.1,0-0.2,0-0.4,0c0-0.1,0-0.2,0.1-0.2c-0.1,0-0.2-0.1-0.2-0.1c0.1,0,0.3,0,0.3,0
					c0-0.1,0-0.2,0-0.3c0.1-0.1,0.2-0.1,0.3-0.2c0.3-0.3,0.7-0.6,1.1-0.9C114.2,83.2,114.5,82.9,114.9,82.8z"/>
				<path class="st6" d="M66,85.8c1.2-1.4,2.9-2.5,4.7-2.5c2.1-0.1,4.3,0.7,5.8,2.2c0.9,1,1.6,2.3,1.7,3.7c0.2,1.9-0.5,3.9-1.9,5.3
					c-1,1.1-2.3,1.6-3.7,2c-0.6,1.8-1.1,3.9-0.4,5.8c0,0.2,0.1,0.4,0.1,0.5c-0.1,0-0.2,0-0.3,0c-1-1.9-0.6-4.2,0-6.2
					c-1.2,0.1-2.4-0.1-3.6-0.5c-1.7-0.6-3.2-2-3.6-3.8c-0.2-0.8-0.4-1.6-0.4-2.5C64.3,88.3,65,86.9,66,85.8z"/>
				<path class="st12" d="M108.2,85.9c1.9,0.1,3.8,0.3,5.7-0.3c0,0.4-0.4,0.6-0.7,0.7c-1,0.3-2,0.3-3,0.4c-0.7,0-1.5,0-2-0.5
					C108.2,86.1,108.2,86,108.2,85.9z"/>
				<path class="st12" d="M93.2,86.8c0.1,0,0.2,0,0.3,0c0,0.1,0,0.2,0,0.3c0.1,0,0.2,0,0.3,0c-0.1,0.4-0.1,0.8-0.2,1.2
					c-0.1,0.4-0.2,0.8-0.3,1.1l-0.1,0c0,0.1,0,0.3,0,0.4l-0.2,0c0,0.1,0,0.3,0,0.4l-0.2,0c0,0.1,0,0.3,0,0.4l-0.1,0
					c-0.2,0.6-0.4,1.1-0.7,1.6c-0.1,0.2-0.2,0.2-0.3,0.3c-0.1,0.1-0.1,0.3-0.1,0.4c0,0-0.1,0-0.2,0c0-0.1,0-0.2,0-0.3
					c0.4-0.5,0.4-1.2,0.7-1.7c0-0.1,0-0.2,0-0.3l0.1,0c0-0.1,0-0.3,0-0.4l0.1,0c0-0.2,0-0.4,0.1-0.5c0.1-0.3,0.2-0.6,0.3-0.9
					c0-0.2,0.1-0.3,0.1-0.5c0-0.1,0-0.3,0-0.4H93c0-0.2,0-0.4,0.1-0.7C93.2,87.1,93.2,86.9,93.2,86.8z"/>
				<path class="st6" d="M107.3,89.8c1.1-0.8,2.5-1.3,3.9-1.3c1.7-0.1,3.4,0.6,4.8,1.7c1.3,0.9,2.2,2.4,2.5,4
					c0.3,1.2-0.1,2.4-0.6,3.5c-0.8,1.7-1.9,3.4-3.6,4.3c-1.1,0.6-2.4,0.8-3.7,0.7c-0.3,0-0.7-0.1-1-0.1c0,1.9-0.7,3.7-1.7,5.3
					c-0.1,0-0.3,0-0.4,0c0,0,0.1-0.1,0.2-0.1c0.1-0.2,0.2-0.3,0.2-0.5c0.1-0.2,0.2-0.3,0.2-0.5c0.6-1.4,0.9-2.9,0.9-4.4
					c-1.6-0.5-3.3-1.4-4.1-3c-0.9-1.6-1.2-3.6-0.8-5.4C104.7,92.2,105.9,90.8,107.3,89.8z"/>
				<path class="st12" d="M86.2,91.4c0.1,0,0.2,0,0.3,0c-0.3,0.6-0.7,1.2-0.6,1.9c0.3,0.6,0.9,0.9,1.5,1.2c1.1,0.5,2.2,1.1,3.2,1.9
					c0.5,0.4,1.1,0.6,1.8,0.7c1,0.2,2-0.2,2.9-0.4c1-0.2,2-0.3,2.9-0.8c0.8-0.7,1-1.9,1-2.9c0.1,0,0.2,0,0.2,0
					c0.2,0.6,0.2,1.2,0.1,1.7c-0.1,0.7-0.3,1.4-0.9,1.8c-0.8,0.5-1.8,0.6-2.8,0.8c-1.2,0.2-2.3,0.7-3.5,0.5
					c-0.9-0.2-1.8-0.5-2.5-1.1c-0.9-0.7-1.9-1.3-3-1.8c-0.6-0.3-1.1-0.7-1.4-1.4C85.2,92.8,85.7,92,86.2,91.4z"/>
				<path class="st12" d="M90.6,98.9c0.1,0,0.3,0,0.4,0c0,0.6-0.4,1.1-0.6,1.7c-0.2,0.4-0.3,0.8-0.4,1.1c-0.1,0-0.3,0-0.4,0
					C89.8,100.7,90.1,99.7,90.6,98.9z"/>
				<path class="st12" d="M78.4,100.8c0.5-0.3,1.1-0.4,1.7-0.4c3.3,0,6.4,1.3,9.7,1.4c1.1,0.2,2.2,0.3,3.3,0.6
					c0.8,0.2,1.7,0.3,2.6,0.5c1.4,0.3,2.8,0.7,4.2,1.1c0.5,0.2,1.2,0.3,1.4,0.8c-0.1,0-0.2-0.1-0.2-0.1c-0.6-0.1-1.1-0.3-1.7-0.2
					c-1,0-1.9-0.1-2.9-0.1c-1.6,0-3.1-0.2-4.7-0.4c-2.1-0.4-4.3-0.7-6.4-1.2c-1.6-0.4-3.2-0.8-4.8-1.2c-0.8-0.2-1.6-0.2-2.3-0.3
					C78.4,101.1,78.4,100.9,78.4,100.8z"/>
				<path class="st12" d="M63.8,109.1c0.5,0.1,0.9,0.6,1.2,0.9c1.2,1.4,2.6,2.6,4,3.8c1.1,1.1,2,2.3,3.2,3.3c1.1,1,2.2,2,3.3,2.9
					c1.2,1.1,2.5,2.1,3.8,3.1c0.8,0.6,1.7,1.1,2.6,1.6c1.9,1.1,4,1.8,6.2,2.3c0.6,0.1,1.1,0.2,1.7,0.2c0.8,0.1,1.6-0.2,2.4-0.2
					c0.6,0,1.1-0.3,1.7-0.5c1-0.4,1.9-0.8,2.7-1.4c0.7-0.5,1.5-0.8,2.3-1.3c1.2-0.7,2.3-1.6,3.5-2.3c1.2-0.7,2.3-1.6,3.4-2.5
					c1.7-1.3,3.4-2.6,5.1-3.9c0.3-0.2,0.6-0.5,0.9-0.7c0.1,0,0.2,0,0.2,0c0,0.1,0,0.2,0,0.2c-0.7,0.8-1.6,1.4-2.4,2.1
					c-0.9,0.8-1.8,1.6-2.7,2.3c-0.9,0.6-1.7,1.3-2.6,2c-1.1,0.8-2.3,1.5-3.4,2.3c-1.6,1.2-3.3,2.1-5,3.1c-1,0.5-2,0.8-3,1.2
					c-0.6,0.2-1.3,0-1.9,0.2c-1.3,0.4-2.7,0.1-4-0.3c-3.5-0.8-6.7-2.6-9.4-4.9c-0.8-0.6-1.6-1.3-2.4-2c-1.1-0.9-2.2-1.9-3.3-2.9
					c-1.6-1.4-3-3.1-4.6-4.7c-1.1-1.2-2.2-2.4-3.3-3.6C63.8,109.4,63.8,109.2,63.8,109.1z"/>
				<path class="st12" d="M84,114.9c1.7-0.3,3.5-0.4,5.2,0c1.2,0.3,2.4,0.5,3.6,0.9c0.1,0,0.2,0.1,0.4,0.1c0.3,0.1,0.6,0.2,0.9,0.3
					c0.1,0,0.2,0.1,0.3,0.1c0,0-0.1,0.1-0.1,0.2c-0.3-0.1-0.6-0.2-0.9-0.3c-0.3-0.1-0.6-0.1-1-0.2c-1.8-0.4-3.6-0.8-5.4-0.8
					c-1.1,0-2.2,0.1-3.3,0c0-0.1,0-0.2,0.1-0.2C83.7,115,83.8,114.9,84,114.9z"/>
			</g>
			<path class="st13" d="M137.2,83.4c-0.1-1.4-1.2-2.7-2.6-2.9c-1.3-0.2-3.3,0.1-4.2,1.2c-0.3,0.4,0.2,0.9,0.5,0.5
				c0.4-0.5,1-0.7,1.7-0.9c0.7-0.1,1.4-0.3,2.1-0.1c1.4,0.3,2,1.9,1.7,3.2c-0.3,1.4-1.2,2.5-2.2,3.4c-1.1,1-2.3,1.9-3.6,2.7
				c-0.4,0.3,0,0.9,0.4,0.6c1.5-1,3-2.1,4.3-3.4C136.4,86.6,137.3,85.1,137.2,83.4z"/>
			<path class="st13" d="M56,76.2c-0.6-1.4-1.2-2.8-2-4c-0.7-1.1-1.6-2.2-2.8-2.9c-0.4-0.2-0.8,0.4-0.4,0.6c1.2,0.7,2,1.8,2.7,3
				c0.7,1.2,1.4,2.5,1.9,3.9c1,2.7,1.6,5.5,1.6,8.4c0,0.5,0.7,0.5,0.7,0C57.7,82.1,57.1,79.1,56,76.2z"/>
		</g>
	</g>
</g>
</svg>
