<svg xmlns="http://www.w3.org/2000/svg" xmlns:xlink="http://www.w3.org/1999/xlink" xml:space="preserve" id="Layer_1" x="0" y="0" style="enable-background:new 0 0 180 180" version="1.1" viewBox="0 0 180 180"><style>.st1{fill:#4e3e37}.st5{fill:#fcb796}.st6{fill:#201a17}.st9{fill:#b95d38}.st11{fill:#f95939}.st13{fill:#fff}.st18{fill:#2b5d66}.st19{fill:#fef3db}.st21{fill:#517981}.st22{fill:#fef2db}</style><defs><path id="SVGID_1_" d="M0 0h180v180H0z"/></defs><use xlink:href="#SVGID_1_" style="overflow:visible;fill:#43d176"/><clipPath id="SVGID_2_"><use xlink:href="#SVGID_1_" style="overflow:visible"/></clipPath><g style="clip-path:url(#SVGID_2_)"><path d="M90 25.6c1.5-.2 3.1-.4 4.6-.3.9.2 1.9-.1 2.8.1 1.7.2 3.4.3 5.1.9 2.2.7 4.4 1.5 6.5 2.4 3.1 1.3 6.1 2.9 8.7 5 2.5 1.8 4.5 4 6.4 6.4 1.6 2 3.3 4.1 4.4 6.4.7 1.4 1.3 2.9 1.8 4.4.8 1.9 1.4 4 1.8 6 .6 3.1.9 6.2.9 9.4 0 2.4-.3 4.8-.5 7.2-.2 1.8-.4 3.6-.8 5.3-.6 2.2-1.1 4.5-2 6.6-.5 1.3-1.1 2.5-1.6 3.7-.8 1.8-1.7 3.5-2.7 5.2-1.1 1.9-2.1 3.9-3.3 5.8-.7 1.2-1.5 2.3-2.2 3.5.6 0 .7-.7 1.3-.7.1 0 .3.1.4.1.1.1.2.3.3.4.3-.4.8-.7 1-1.1.9-2.3 1.9-4.5 2.5-6.9h.3c.2.8-.1 1.6-.3 2.3-.4 1.6-1 3.2-1.6 4.8-.2.4 0 .8-.2 1.1-.3.5-.7 1-.9 1.5-.5 1.2-1.1 2.3-1.7 3.4-.6 1.2-1 2.5-1.6 3.7-.9 2-1.9 4-2.7 6.1-.7 1.7-1.2 3.4-1.6 5.1-.3 1.1-.5 2.3-.6 3.4-.1.7-.3 1.4-.1 2 .8 2.9 1.4 5.9 1.1 9 0 1.6-.2 3.2-.4 4.8-.2 1.3-.7 2.6-1.2 3.9-.4.8-.7 1.6-1.1 2.4-.8-.7-1.6-1.3-2.2-2.2-1.3-1.9-2.3-3.9-3.1-6-.3-.9-.5-1.8-.8-2.7-.3-1.3-.5-2.7-.7-4.1-.4-2.7-.1-5.5-.1-8.3 0-1 .1-2.1.1-3.1.9-.3 2-.5 2.8-1-.9 0-1.9.3-2.8.5 0-1.2.2-2.4-.1-3.6-.1-.4-.2-.8-.3-1.1-1.3.2-2.6.7-3.9 1-.9.2-1.8.4-2.7.3-1.3-.1-2.6-.3-3.8-.2-1.5.2-3.1.2-4.6.4-1.1.1-2.3.2-3.3-.2s-2-.7-2.9-1.3c-1-.6-2-1.3-2.9-2-2.1-1.6-4.3-2.8-6.3-4.4-1.2-1-2.4-2.1-3.5-3.2-2.5-2.5-5.2-4.8-7.9-7.1-1.3-1.1-2.5-2.2-3.7-3.4-1.3-1.4-2.1-3.2-2.8-4.9-.6-1.7-1.3-3.4-1.6-5.3-.4-1.4-.6-2.9-.9-4.4-.4-2.6-.7-5.1-1.1-7.7-.3-2.1-.4-4.2-.4-6.3.2-3 .5-6 .8-9 .4-2.4.7-4.9 1.5-7.2.8-2.1 1.7-4.2 2.7-6.1 2.2-3.9 5-7.5 8.2-10.5 1.8-1.5 3.6-2.9 5.6-4.1.9-.6 2-1 3-1.5 1.2-.7 2.4-1.3 3.8-1.8 1-.3 2-.7 3-1 1.3-.3 2.6-.5 3.9-.9 1.5-.4 2.8-.7 4.2-.9z" class="st1"/><path d="M3.9 231.6c0 1.5.1 3.1.3 4.6.1.6.1 1.1.2 1.7h171c0-.6 0-1.3-.1-1.9 0-1.1-.1-2.2-.1-3.3-.1-1.1 0-2.2-.1-3.3-.1-1.3 0-2.6-.2-3.9-.1-4.3-.5-8.7-.9-13-.4-3.9-.8-7.7-1.6-11.5-.9-4.4-1.6-8.8-3.3-12.9-.8-1.9-1.5-3.8-2.6-5.6-.9-1.5-2-2.9-3.2-4.3-2.9-3.4-6.2-6.5-9.9-8.9-1.8-1.2-3.7-2.1-5.6-3.1-1.7-.8-3.5-1.5-5.4-2.2-1.1-.4-2.1-.8-3.2-1.1-2.3-.6-4.4-1.6-6.6-2.4-1.2-.5-2.5-1-3.7-1.6-3.8-1.9-7.5-4-11-6.4-1.8-1.1-3.6-2.4-5.2-3.8-.8-.7-1.6-1.3-2.2-2.2-1.3-1.9-2.3-3.9-3.1-6-.3-.9-.5-1.8-.8-2.7-.3-1.3-.5-2.7-.7-4.1-.4-2.7-.1-5.5-.1-8.3 0-1 .1-2.1.1-3.1.9-.3 2-.5 2.8-1-.9 0-1.9.3-2.8.5-2.3.5-4.6 1-6.9 1.6-4.3 1.1-8.5 2.5-12.4 4.5-3.5 1.8-6.9 3.8-10.3 5.9-2 1.3-3.9 2.6-5.7 4.2-1.4 1.3-2.6 2.9-3.8 4.3-.6.7-1.5 1-2.2 1.6-1.1.8-2.1 1.7-3.1 2.7-2.4 2.3-5 4.4-7.7 6.3-1.7 1.2-3.4 2.4-5.3 3.4-1.7.9-3.5 1.9-5.2 2.8-3.8 2.1-7.7 3.9-11.4 6-4.1 2.2-8 4.5-11.7 7.3-2.9 2.3-5.6 5.1-7.8 8.1-1.2 1.7-2.4 3.4-3.4 5.3-.9 1.7-1.4 3.5-2 5.4-1 3.2-1.5 6.5-1.9 9.8-.3 2.5-.7 5-.9 7.6-.2 3-.5 6-.5 9 0 1.5-.2 3.1-.1 4.6-.1 1.7-.1 3.3-.1 5 .4 1.5.3 3 .4 4.4z" style="fill:#56a2b0"/><path d="M89.6 45c2.8-.2 5.6-.2 8.4.2 2.3.3 4.6.8 6.8 1.6 1 .4 2 .8 3 1.3 1.4.6 2.7 1.5 3.9 2.5 1.3.9 2.6 2 3.7 3.2 1 1.4 1.9 2.8 2.7 4.4.3.6.4 1.2.7 1.8 1.2 3.1 1.6 6.4 2.1 9.7.4 2.5 1 4.9 1.5 7.3.3 1.6.8 3.2 1.2 4.8.2.9.6 1.7.7 2.6.1.7.2 1.5.4 2.2.1-.1.2-.1.3-.2 0-.1.1-.2.1-.3 0 .5-.1.9-.2 1.4-.2 2.4-.8 4.9-1.4 7.2-.9 3.1-1.9 6.2-3.2 9.2h.5-.5c-.8 1.8-1.6 3.7-2.5 5.5-.5 1-1 1.9-1.5 2.9-.7 1.5-1.6 3-2.4 4.5-.7 1.5-1.7 2.8-2.7 4.2-1.3 1.8-2.8 3.5-4.2 5.2-1.2 1.3-2.6 2.4-4 3.5-1.2.8-2.4 1.6-3.6 2.3-.9.6-2 .9-3 1.2-.8.2-1.5.5-2.3.6-.4.1-.8.1-1.1.3-.8-.1-1.5-.1-2.3-.2-2.4-.4-4.7-1.1-6.9-2.2-1.6-.8-3-1.8-4.5-2.7-1.8-1.2-3.4-2.6-4.9-4-1.4-1.3-2.6-2.8-3.9-4.2-1-1.1-1.8-2.5-2.8-3.6-.1-.6-.4-1.3-.9-1.7l-.2-.1c-1.8-2.6-3.2-5.5-4.5-8.4-.5-1-.8-2.1-1.2-3.2-.3-.9-.6-1.7-.7-2.6-.2-.8-.5-1.6-.6-2.5-.7-2.6-.8-5.3-1.1-7.9-.2-1.7-.3-3.4-.2-5.1 0-.9 0-1.9.2-2.8v-.2c0 .1.1.2.2.2.2-.6.5-1 .7-1.6.3-1.2.9-2.3 1.4-3.4 1-2.3 1.7-4.7 2.4-7s1.4-4.6 2.2-6.9c.6-2 1.4-4 2.3-5.8 1.1-2.1 2.7-3.9 4.3-5.6.5-.6 1.1-1.1 1.8-1.5 1.4-1 2.9-1.8 4.4-2.6 1.9-1 3.9-1.8 6.1-2.2 1.7-.7 3.5-1.2 5.3-1.3z" style="fill:#f2844f"/><path d="M50.6 77c1.2-.7 2.5-1.3 3.8-1.2 1.5 0 3.2.3 4.3 1.5 0 .8-.1 1.6-.2 2.4-.1.7-.2 1.3-.1 2 .1.4 0 .7-.1 1.1-.2.9-.1 1.9-.2 2.8-.1 1.7 0 3.4.2 5.1.3 2.6.4 5.3 1.1 7.9.1.8.5 1.6.6 2.5-1-.1-2.1-.1-3.1-.5-1.9-.7-3.3-2.1-4.7-3.5-1.2-1.3-2.3-2.8-3.1-4.4-.6-1-1.1-2-1.5-3-.5-1.6-1-3.2-.9-4.9 0-1.8.5-3.5 1.4-5 .7-1.1 1.5-2.1 2.5-2.8zm74.8 1.6c1.9-1.5 4.4-2.1 6.8-1.7 1.2.2 2.3.8 3.2 1.6.6.5 1.1 1.1 1.5 1.9.3.7.5 1.4.5 2.1.3 2.4-.3 4.8-1.3 6.9-1.8 3.7-4.3 7.1-7.2 10-1.6 1.6-3.5 3-5.6 3.9-.8.3-1.6.6-2.5.6h-.5c1.3-3 2.3-6.1 3.2-9.2.6-2.4 1.2-4.8 1.4-7.2 0-.5.2-.9.2-1.4.1-2.3.2-4.7.1-7 .1-.2.1-.4.2-.5zm-41 31.1c.5-.2 1 .1 1.5.2 1.4.3 2.7.8 4.1.9 1.5 0 2.9-.5 4.3-1 .3-.1.9-.3.9.1.1.2-.2.3-.4.4-.8.4-1.7.6-2.6 1-.4.3-.8.4-1.3.6-1.6.9-3.2 1.7-5 2-.3.1-.7.1-.9 0-.2-.1-.2-.4-.3-.6-.1-.5-.2-.9-.3-1.4-.1-.5 0-1-.1-1.5 0-.2-.2-.5.1-.7zm-17.8 5.6s.1 0 .2.1c.5.4.7 1.1.9 1.7 1 1.1 1.8 2.5 2.8 3.6 1.3 1.4 2.5 2.9 3.9 4.2 1.6 1.4 3.2 2.8 4.9 4 1.5.9 2.9 1.9 4.5 2.7 2.2 1.1 4.5 1.8 6.9 2.2.8.1 1.5.1 2.3.2-1 .6-2.1.6-3.1 1-1.1.3-2.2.8-3.4 1.1-2.2.7-4.3 1.6-6.5 2.5-2.4 1-4.6 2.3-6.9 3.4-1.8 1-3.7 1.9-5.5 2.9-.9.6-1.9 1.1-2.8 1.7-.3.2-.6.5-1 .6-.1 0-.3-.1-.3-.2 0-.6.4-1.2.6-1.7.9-1.9 1.4-3.9 1.9-5.8.7-2.9 1.2-6 1.5-9 .1-1.2.2-2.4.3-3.5 0-1.6.1-3.2 0-4.7 0-.9-.2-1.8-.3-2.7-.1-.8-.3-1.6-.5-2.4.1-.6-.1-1.3-.4-1.9zm23.5 6.5c1.4-.1 2.7-.3 4.1-.4-.4.9-.7 1.9-1 2.8-1-.2-2-.3-3-.2-.9.1-1.9.3-2.8.4-.6-.8-1-1.8-1.4-2.8 1.3.2 2.7.4 4.1.2z" style="fill:#e56324"/><path d="M76.8 54.1c1.4-1.4 3.4-2.2 5.3-2.5v.3c-.8.3-1.7.5-2.4 1-1.2.6-2.3 1.4-3.2 2.3-.2.2-.5.4-.8.6.2-.7.7-1.2 1.1-1.7z" class="st5"/><path d="M97 28.9c-.1-1.1-.1-2.2-.8-3.1-.1.5.1.9.2 1.3.2 1.3.2 2.6.3 3.9 0 2.4.1 4.9-.1 7.3-.1 1.4-.2 2.8-.4 4.2 0 .3-.1.6-.1 1-.1.3-.1.6-.1.9h.3c.1-.2.1-.4.2-.5.2-1.1.3-2.1.5-3.2.3-2.7.3-5.4.2-8.1-.2-1.3-.1-2.5-.2-3.7zm-3.3-1.1c-.4 1.3-.8 2.6-1 3.9-.3 1.5-.5 3-.6 4.5-.1 2.2-.4 4.3-.3 6.5 0 .5.1 1 .3 1.5.1-.1.1-.2.2-.4v-1.7c-.1-1.6.1-3.2.2-4.8.2-2.2.4-4.5 1-6.6.4-1.3.7-2.7 1.2-4 .1-.2.1-.4.1-.6-.8.4-.9 1.1-1.1 1.7zm6-.6c-.2-.4-.4-.8-.8-1v.2h-.2c.3.8.8 1.6 1.1 2.4.8 2.5 1.3 5 1.4 7.6 0 1.1.1 2.2.1 3.2-.1 1.8-.1 3.7-.7 5.4 0 .1.1.2.1.3.1 0 .2 0 .3-.1.2-.4.3-.8.4-1.2.3-1.6.4-3.3.5-5 .1-2.9-.2-5.8-1-8.6-.3-1.1-.6-2.2-1.2-3.2zm-9.1-.7c-.8 1.7-1.5 3.4-2 5.2-.8 2.7-1 5.5-1.2 8.2-.1 1.5-.1 3-.1 4.4 0 .3.1.6.3.9.1-1.1 0-2.2 0-3.2 0-.9.1-1.8.1-2.7.1-.6.1-1.1.2-1.7.2-2.3.7-4.6 1.4-6.8.5-1.4 1.1-2.7 1.6-4.1 0-.1-.1-.2-.1-.3 0 0-.1.1-.2.1zm15.8 8.7c-.3-2.6-1-5.1-2.1-7.4-.3-.5-.5-1-1-1.3v.3c1.9 3.5 2.8 7.5 2.9 11.4 0 1.9.1 3.7-.3 5.6-.1.4-.3.9-.3 1.3h-.1l-.3 1.2c.5 0 .5-.6.6-1 .6-1.5.8-3.1.8-4.7 0-1.8.1-3.6-.2-5.4zm-18.1-8.3c-.2 0-.5 0-.6.2-2.1 2.4-3.7 5.1-4.8 8.1-.9 2.3-1.5 4.7-1.6 7.1-.1.8 0 1.6 0 2.4 0 .5.1.9.2 1.4.1.1.2.3.3.4.1-.1.2-.3.3-.4h-.2c-.1-.7-.1-1.5-.1-2.2.1-1.4.2-2.8.5-4.2.6-2.6 1.5-5.1 2.7-7.4.8-1.5 1.8-2.9 2.8-4.3.2-.4.5-.7.5-1.1zm-5.4 1.8v-.4c-.2.1-.4.2-.5.3-.5.5-1 1.1-1.4 1.7-2.3 3.3-3.6 7.1-4.3 11.1-.4 1.9-.5 3.9-.3 5.8v.1c0 .4.1.8.4 1 .1-.4 0-.9 0-1.3v-1.2c.1-.5.1-1 .1-1.5.2-2.6.8-5.2 1.6-7.7.7-2.1 1.7-4.1 2.9-5.9.4-.7.9-1.5 1.5-2zm-9.2 6.6c.7-1.7 1.5-3.4 2.8-4.8v-.3h-.2c-.6.5-1.1 1.1-1.5 1.7-1 1.7-1.7 3.6-2.4 5.4-.9 2.6-1.3 5.4-1.4 8.2 0 1.8.1 3.8.9 5.5h.4c-.1-.1-.2-.3-.3-.4-.7-2.6-.7-5.3-.4-8 .3-2.4 1.1-4.9 2.1-7.3zm35.4-4c-.4-1.1-1.1-2.2-1.9-3.1-.1 0-.2 0-.2.1.2.6.5 1.1.8 1.6.3.6.6 1.1.8 1.7.8 2.2 1.4 4.4 1.7 6.6.3 2.3.4 4.7-.1 7 0 .2-.1.5-.1.7-.1.2-.1.5-.2.7-.2.6-.3 1.3-.3 1.9h.2c.1-.5.3-1 .4-1.5v-.4.2c.3-.9.4-1.9.5-2.8.2-1.3.2-2.7.2-4.1.1-3-.7-5.9-1.8-8.6zm3.8.4-.9-1.2h-.3c.2.6.6 1.1.9 1.6V32c.2.6.6 1.1.8 1.7.8 1.9 1.3 3.9 1.4 6 .1 1.1.1 2.3.1 3.4-.1.5-.1.9-.1 1.4l-.1-.2c-.3 2-.7 4-1.4 5.9h.3c.4-.6.6-1.4.7-2.1.2-.6.3-1.2.4-1.8v-.1l.3-1.8c.4-2.5.4-5.2-.1-7.7-.2-1.6-.9-3.4-2-5zm-44.2 7.2c.7-1.9 1.5-3.8 2.8-5.5 0-.1.1-.2.1-.3-.2 0-.5 0-.6.2-.9 1.1-1.5 2.3-2.1 3.6-.9 2.2-1.5 4.5-1.9 6.8-.3 1.9-.5 3.8-.4 5.6.1 2 .5 4 1.1 5.9 0 0 .1.1.1.2.1.4.2.9.6 1.2 0-.5-.1-1-.3-1.5v.1c0-.4-.2-.8-.3-1.2-.6-2.3-.9-4.7-.7-7 .2-2.7.7-5.5 1.6-8.1zm50.8 3.2c0-1.3-.1-2.6-.3-3.9-.2-1-.4-2.1-.8-3-.3-.6-.6-1.2-1.1-1.6l-.3-.3c-.1 0-.2 0-.3.1.1 0 .2.1.2.1 0 .1-.1.2-.1.2h.1c1 1.3 1.4 3 1.6 4.5.3 1.6.3 3.2.4 4.8.1 2.2-.2 4.5-.9 6.6-.3 1.3-.9 2.5-1.6 3.7-.1.2-.4.5-.1.7.3 0 .4-.3.5-.6 1.1-1.8 1.8-3.8 2.2-5.9.6-1.8.7-3.6.5-5.4zm-54.2-4.2c-.9 2.3-1.6 4.7-2 7.2-.3 1.7-.5 3.3-.5 5 0 1.3.1 2.7.3 4 .2 1.7.7 3.3 1.2 4.9.2.8.6 1.5 1.1 2.1.1 0 .2-.1.3-.1-.5-.6-.6-1.4-.8-2.1-.9-2.7-1.5-5.5-1.5-8.3v-2h.1c.3-3.6 1.1-7.1 2.3-10.4.1-.2.1-.4.1-.7-.3 0-.5.1-.6.4zm56.1 17.8c1.5-3.3 2.3-7 2.2-10.7-.1-1.4-.2-2.8-.4-4.2-.1-.9-.5-1.8-.7-2.7-.1-.3-.2-.6-.3-.8h-.3l.3 1.2v-.2c0 .7.3 1.3.4 1.9.3 1.5.4 2.9.4 4.4.2 3.3-.3 6.7-1.5 9.9-.4 1.1-.9 2.2-1.5 3.1-.1.1-.2.3-.2.4v-.1c-.2.3-.4.6-.6 1 .3 0 .5-.2.7-.4v-.1c.6-.7 1-1.7 1.5-2.7zm1.8 5.2c1.4-2.4 2.4-4.9 3-7.6.5-1.7.7-3.5.7-5.3 0-1.3 0-2.7-.2-4 0-.1 0-.3-.1-.4-.1-.3-.2-.8-.6-.7l.3 1.5c0 2.3.2 4.7-.3 7-.5 2.6-1.3 5.2-2.5 7.6-.7 1.4-1.4 2.9-2.6 3.9v.3c.2 0 .4 0 .5-.2.8-.6 1.4-1.3 1.8-2.1zm2.1 4.5c1.1-1.6 1.9-3.4 2.5-5.2.6-1.6 1.1-3.2 1.6-4.8.3-1.1.6-2.2.6-3.3.1-.4.1-.9 0-1.3v-.6h-.3V50c-.2.4 0 .8-.1 1.2 0 1.1-.3 2.1-.5 3.2-.6 2.7-1.5 5.3-2.7 7.8-.9 2-2.1 3.8-3.6 5.4-.5.5-1.1.9-1.1 1.7 1.4-1.2 2.6-2.5 3.6-3.9zm-64.8-5.9c-.4-1.4-.7-2.8-1-4.2 0-.5-.1-1-.1-1.5-.1-1.6.1-3.2.3-4.9.1-.8.3-1.5.3-2.3h.1c.1-.9.3-1.8.6-2.6.1-.2.1-.4.1-.6-.7.9-1 2.1-1.1 3.3-.6 2.4-.8 4.8-.7 7.3 0 .7.1 1.5.3 2.2v.3c.5 3 1.4 6 3.1 8.5.6.8 1.1 1.6 1.8 2.2v-.3c-.5-.6-.9-1.4-1.3-2.1-1-1.6-1.9-3.4-2.4-5.3zm69.3 5.7c1.1-2.1 1.9-4.4 2.3-6.7.1-.4.1-.8.1-1.2h-.3c-.1.3-.1.6-.2.9-.6 2.6-1.5 5.2-2.8 7.6-1 1.9-2.2 3.7-3.6 5.4-.8.9-1.8 1.9-2.9 2.4v.3c.7 0 1.2-.5 1.7-.9.7-.6 1.4-1.3 2-2 1.4-1.7 2.7-3.7 3.7-5.8zm-68.7 8.2c-.4-1.5-1.1-2.9-2-4.2-1.3-1.9-2.3-4-3.1-6.2-.5-1.4-.9-2.9-1.2-4.4 0-.5 0-.9-.1-1.4h-.2c-.1.6-.2 1.3.1 1.9 0 .7.2 1.5.4 2.2.5 2 1.2 3.9 2.2 5.6 1.1 2.2 2.7 4.1 3.6 6.3h.1v.2h.3v-.1l-.1.1zm71.3-8.1c-.7 2-1.5 4-2.6 5.9-1 1.8-2.1 3.4-3.5 4.9-.4.4-1 .7-1 1.3h.4c1-.9 1.8-1.9 2.7-2.9.9-1.1 1.6-2.3 2.3-3.5.6-.9 1-1.9 1.4-2.9.3-.9.7-1.7.8-2.7-.2-.1-.3-.1-.5-.1zM57 73.2c-.7-1.1-1.5-2.2-2.2-3.3 0-.2 0-.3-.1-.5h-.3c0 .2 0 .5.1.7l.1-.2c0 .5.4.9.6 1.3l2.1 3.3c.4.6.9 1.1 1.2 1.6.1.2.3.4.5.6 0-.2 0-.3-.1-.5-.6-1-1.2-2-1.9-3z" class="st6"/><path d="M105.1 76.7c1.6-.7 3.2-1.2 5-1.1 1.3 0 2.5.4 3.7.9 1.2.5 2.5.9 3.6 1.6.2.1.3.3.4.4-1.6.1-3.2-.3-4.9-.5-1.8-.2-3.7-.2-5.4.3-3.5 1-6.8 2.6-10.4 3.5v-.5c1.3-.8 2.6-1.4 3.8-2.3 1.4-.8 2.8-1.6 4.2-2.3zm-21.9 2.7c-.2-.4-.6-.4-.9-.5l-.6-.3c-1.8-.8-3.4-2.1-5.3-2.6-1.8-.5-3.7-.8-5.6-.5-1.9.5-3.8 1.3-5.5 2.4-.6.3-1.2.6-1.6 1.1.8.3 1.6.1 2.4 0l2.1-.3c1.4-.3 2.9-.4 4.4-.4 1.4 0 2.9.2 4.3.4 1.7.3 3.5.6 5.3.7.3-.1.5 0 .8 0v-.1l.2.1z" class="st1"/><path d="M106.4 86.7c.4-.4 1.2-.4 1.4.2.2.6.5 1.2.5 1.8-.2.6-.3 1.2-.3 1.8-.1.4-.4.7-.8.9-.5.2-1 0-1.3-.5-.4-.7-.4-1.6-.3-2.3.2-.7.3-1.4.8-1.9zm-34 .7c.4-.1.9.2 1.1.6.3.6.3 1.3.2 2 0 .4-.1.9-.4 1.2-.5.6-1.6.5-1.9-.2-.4-.8-.3-1.8-.1-2.7.2-.4.7-.7 1.1-.9z" style="fill:#150f0c"/><path d="M108.3 88.7c.2-.1.5-.2.8-.1.4.3.2.8.1 1.2-.1.4-.4.7-.7.9-.1-.1-.3-.2-.4-.3-.1-.5 0-1.1.2-1.7z" style="fill:#fcb391"/><path d="M104.3 92.7c2.1 0 4.3-.2 6.2-1.1 0 .1 0 .2-.1.3-.3.3-.8.4-1.2.6-1.6.5-3.3.9-4.9.4.1 0 0-.1 0-.2zm-34.2.4c1.8.4 3.8.2 5.6-.5v.3c-.9.5-1.8.8-2.8.9-.9.1-1.9 0-2.8-.4v-.3z" class="st9"/><path d="M65.2 92.8h.3c.6.6 1.2 1.2 1.9 1.6 1 .6 2.1 1 3.2 1.3v.4c-1.1-.1-2.2-.5-3.2-1-1-.3-2-1.1-2.2-2.3z" class="st5"/><path d="M55.5 92.3c-1.2-1.6-2.1-3.6-2.3-5.6 0-1-.1-2.1.3-3 .4-1 1.4-1.8 2.4-2.2.5-.2 1-.2 1.4-.2 0-.2 0-.4-.2-.5-.4-.3-.9-.2-1.3-.1-1.6.4-3 1.7-3.5 3.4-.6 1.8-.3 3.8.4 5.5.8 1.8 1.9 3.6 3.6 4.8.4.3.7.6 1.2.6v-.4c-.7-.8-1.4-1.5-2-2.3zm75.6-9.1c-.7-1-2.1-1.4-3.3-1.1-.3.1-.9.4-.5.8.7-.3 1.4-.2 2.1 0 .7.2 1.2.8 1.4 1.5.4 1.9-.1 3.8-.8 5.6-.9 2-2.2 3.9-3.4 5.7-.4.3-.7.7-1 1.1.2 0 .4 0 .6-.1.4-.4.9-.8 1.2-1.3.2-.2.4-.4.5-.7.9-1.2 1.7-2.5 2.5-3.8.8-1.4 1.4-3 1.5-4.6-.2-1-.2-2.2-.8-3.1z" style="fill:#cc492f"/><path d="M108 96.1c1.5-.2 2.9.2 4.2.8 1.3.6 2.4 1.7 2.9 3.1.4.9.4 1.9.3 2.9-.2 1.1-.5 2.3-1.1 3.2-.4.7-1.1 1.3-1.7 1.9-.9.8-2.3 1.1-3.5 1.2-1.2 0-2.5-.3-3.5-1-.8-.5-1.4-1.2-1.9-2-.8-1-1.3-2.2-1.3-3.4-.1-1.6.7-3.2 1.7-4.4 1.1-1.2 2.4-2.1 3.9-2.3z" class="st11"/><path d="M90 97.1h.3c.4 1.5.1 3 .1 4.4-.1 1 0 2.1-.2 3.1h-.3c-.1-1.5 0-3.1-.1-4.6 0-.9 0-1.9.2-2.9z" style="fill:#fcbc9d"/><path d="M71.1 98c1.5-.4 3.1.1 4.5.8 1.1.6 2.1 1.5 2.8 2.5 1 1.4 1.1 3.4.5 5-.5 1.5-1.8 2.6-3.2 3.3-1.4.6-3.1.9-4.6.4-1.6-.5-3.2-1.3-4.3-2.6-1-1.2-1.1-2.9-.7-4.3.4-1.5 1.3-2.7 2.4-3.8.7-.6 1.7-1 2.6-1.3z" class="st11"/><path d="M110.8 99.7c.3.2.6.5.8.7-.3-.1-.6-.4-.8-.7z" class="st13"/><path d="M71 100c.1 0 .3 0 .2.1-.2.1-.4.2-.5.1 0-.1.2-.2.3-.2z" style="fill:#fa7d62"/><path d="M106.5 106.3c.4.1.8.2 1.2.4-.4-.1-.8-.2-1.2-.4z" class="st13"/><path d="M97.3 107.4c0-.5-.2-1.1-.3-1.6h-.3c0 .5.1 1 .1 1.5-.1.4-.1 1-.4 1.3-.3.3-.7.7-1.1.8-.5.1-1.1.2-1.6.4-.7.3-1.5.7-2.3.7-2.2.1-4.2-.8-6.4-1-.3 0-.7.1-1-.3-.6-.8-.3-1.9-.2-2.8h-.4c-.5.6-.6 1.4-.5 2.2.1.4.2.9.7 1.1.9.5 2 .6 3 .8 1.5.4 3.1.6 4.6.7 1.3 0 2.5-.7 3.7-1.2.7-.2 1.6-.3 2.1-1 .3-.4.5-1.1.3-1.6zm-7.8 5.6c0-.5 0-1.1.5-1.4.1.1.3.2.4.3.1.4 0 .8-.1 1.2-.1.7-.2 1.4-.5 2.1h-.5c.1-.7.1-1.5.2-2.2z" style="fill:#b75c38"/><path d="M86.7 115.7c1.4-.2 2.9-.3 4.4-.2 1.2 0 2.4.3 3.5.4 1.4.2 2.7.6 4.1 1 .3.1.5.4.6.6 0 .3-.1.6-.1.9-.4.5-.9.6-1.4 1-1 .7-2.1 1.1-3.3 1.5-1.9.6-3.9.5-5.8.5-.9 0-1.8-.1-2.7-.2-1.2-.1-2.3-.4-3.5-.7-.8-.2-1.5-.6-2-1.2-.2-.3-.2-.7.1-1 .4-.4 1-.7 1.6-1 1.4-.8 2.9-1.2 4.5-1.6z" class="st11"/><path d="M90.4 117h.6c.7 0 1.4-.1 2.2 0 1.5 0 2.9.2 4.4.3.6 0 1.1.2 1.6.4-.1.2-.2.5-.5.4-1.6 0-3.2-.3-4.8-.3-2.4-.1-4.8.1-7.2.3-1.6.2-3.3.4-4.9.9-.4.1-.8.3-1.2.2-.3-.2-.1-.6.2-.7 1.6-.5 3.2-1 4.8-1.1 1.6-.2 3.2-.1 4.8-.4z" style="fill:#a33e29"/><path d="M89.3 119c1.6.1 3.2-.1 4.8-.2-.4.4-1 .4-1.6.5-.7.1-1.4.2-2.1.1-.6-.1-1.2.1-1.8-.2.1-.3.5-.2.7-.2z" style="fill:#fb9d7b"/><path d="M105.5 127.8c-1.3 1-2.7 2-4.1 2.8-1.2.7-2.4 1.4-3.7 2-.8.4-1.7.6-2.6.9-1.2.2-2.4.5-3.6.3-1-.2-2.1-.2-3.1-.5s-1.9-.5-2.9-.8c-1.3-.5-2.6-1-3.9-1.7-.7-.4-1.3-.8-2-1.2-1.4-.9-2.7-1.8-3.9-2.9-.8-.7-1.6-1.5-2.3-2.3-.8-.9-1.6-1.8-2.3-2.7-1-1.3-2-2.5-3-3.9.7 1.5 1.7 2.9 2.7 4.2.5.7 1.1 1.4 1.7 2.1 1.1 1.4 2.4 2.8 3.8 3.9.9.7 1.8 1.4 2.8 2 .8.5 1.6 1.1 2.5 1.6 1 .5 2 .9 3 1.3 1.2.5 2.5.8 3.8 1.2 1.3.3 2.5.4 3.8.5 1.3.1 2.5-.1 3.7-.6 1.4-.4 2.6-1.1 3.9-1.8.8-.4 1.6-.8 2.3-1.4.2-.1.3-.2.4-.3.9-.8 1.8-1.6 2.7-2.3.3-.2.3-.3.3-.4z" class="st9"/><path d="M99.2 137.1c1.7-1.1 3.3-2.3 5-3.4v.3c-1.8 1.3-3.6 2.7-5.4 4.1-1.8 1.4-3.6 2.7-5.4 3.9-1.1.7-2.3 1.3-3.4 1.9-3.8 2.3-8 3.8-12.2 5.2-3.4 1-6.9 1.8-10.4 2.4-.1 0-.2-.1-.4-.1.1-.1.1-.2.2-.3 5.3-.9 10.5-2.3 15.5-4.3 2.1-.9 4.1-1.8 6.1-2.9 1.7-1 3.5-1.9 5.1-3 1.9-1.3 3.5-2.6 5.3-3.8z" class="st18"/><path d="M79.1 140.2c.7-.2 1.5-.1 2.1.3.3.1.5.5.3.8-.1.3-.5.2-.8.3 0 .2.1.6-.2.7-.5.2-1-.1-1.4-.3l-.3.9c-.2.3-.7.2-.7-.2-.1-.6 0-1.3.3-1.9 0-.4.4-.5.7-.6z" class="st19"/><path d="M117.3 112c-.4 1-1 1.9-1.5 2.9-1.2 2.2-2.1 4.6-2.5 7-.2.7-.2 1.4-.3 2.1-.2 1.2-.3 2.5-.3 3.7-.1.9 0 1.9.1 2.8.2 1.3.5 2.5.7 3.8v.1c0 1.1.2 2.1.1 3.2s-.3 2.2-.6 3.3c-.3 1.2-.7 2.4-1.3 3.6-.2.4-.5.8-.4 1.2h.3c1.2-2.1 1.8-4.4 2.3-6.7.3-1.2.2-2.4.2-3.6 0-.7 0-1.5-.2-2.2-.2-1.2-.5-2.5-.6-3.7 0-1.7-.1-3.5.2-5.2.1-.9.1-1.8.3-2.6.2-1 .4-1.9.7-2.9.5-1.5 1.1-2.8 1.8-4.2.4-.9.7-1.8 1-2.6zm-5.9 9.9c-.1.1-.2.1-.3.2-.4 1.3-.7 2.7-.8 4.2-.1 1.4-.2 2.8 0 4.2l.1.1v.1c0 1.1.2 2.1.2 3.2 0 1.5.1 3.1-.1 4.6-.2 1.5-.6 3-1.1 4.5-.1.2-.1.4-.2.6.3 0 .5-.1.6-.3.3-.6.5-1.2.7-1.8.3-1.1.7-2.2.8-3.3.2-1 .1-2.1.1-3.1 0-1.7-.2-3.3-.4-5-.1-2.2 0-4.4.4-6.6 0-.6.1-1.1 0-1.6zm-3.2 7.5c-.1 2.2.1 4.5 0 6.7-.1 1.1-.2 2.2-.5 3.2-.1.2-.3.5 0 .6.2.1.2-.1.4-.2.4-1.2.6-2.4.7-3.6.1-1.1.1-2.2 0-3.3 0-2-.1-4 .1-6 .1-.6.2-1.1.2-1.7h-.3c-.5 1.4-.6 2.9-.6 4.3z" class="st6"/><path d="M63.2 147.9c.4-.2.7-.6 1.2-.6v.3c-.7.6-1.4 1.1-2.1 1.6-1.1.7-2.1 1.4-3.1 2.2-.6.5-1.4.8-1.9 1.5-.1-.1-.1-.3-.2-.4.6-.7 1.5-1.2 2.2-1.7.4-.3.9-.6 1.3-1 .9-.7 1.7-1.3 2.6-1.9z" class="st18"/><path d="M59.1 152.7c2.7-.6 5.4-1.2 8.2-1.6-.1.1-.1.2-.2.3.1 0 .2.1.4.1-1.6.3-3.3.5-4.9.9-1.2.3-2.5.5-3.8.8.1-.2.2-.4.3-.5z" style="fill:#3c6971"/><path d="M56.5 153.4c.8-.3 1.7-.6 2.5-.7-.1.1-.2.3-.3.4-.8.3-1.6.5-2.3.7-1 .3-2.1.5-3.1.9v-.1c1.1-.6 2.2-.8 3.2-1.2z" class="st21"/><path d="M69.4 157c-.2-.4 0-.9.4-.9.4-.1.6.4.9.7.2-.1.4-.2.6-.2.2 0 .4.1.6.2.3-.1.8-.3.9.1.1.5-.3.9-.7 1.2-.4.4-1.1.2-1.7.2-.5-.3-.8-.8-1-1.3zm-14.5 7c.2-.3.5-.3.8-.2.4.2.5.7.7 1 .4-.3.8-.9 1.4-.9.4.2.2.8.2 1.1.3.1.7 0 .9.3.1.4-.2.7-.4 1-.6.5-1.4.5-2.2.5-.3-.5-1-.8-1.2-1.4-.4-.4-.5-.9-.2-1.4z" class="st19"/><path d="M129 167.6c.2-.1.4-.3.7-.4.2 0 .5 0 .4.3.1.9-.5 1.7-1.1 2.3-.2.2-.5.1-.7.1-.5-.1-1-.2-1.3-.6-.3-.2-.4-.7 0-.9.4-.1.8 0 1.1 0 0-.4-.2-.9.2-1.1.3 0 .5.2.7.3zm-22.3 7.9c.1-.5.8-.5 1.1-.1.2.2.3.5.4.7.3-.2.5-.5.8-.7.3-.2.8-.1.9.3 0 .3 0 .5-.1.8.4 0 .8 0 1.1.1.4.2.3.8-.1 1-.7.3-1.4.3-2.2.3-.6 0-1.1-.3-1.4-.8-.2-.4-.7-.9-.5-1.6zM33 176.8c.3-.2.6-.5.9-.5.3 0 .3.4.4.6.3-.1.6-.3.9-.1.1.3.3.8 0 1-.6.6-1.4 1-2.2 1.1-.4 0-.7-.3-.9-.5-.4-.4-.6-.9-.5-1.5.1-.4.5-.6.8-.5.3.1.5.3.6.4zm29.3 3.2c.2-.4.5-.9 1-1 .4 0 .5.3.7.6.3-.1.5-.3.8-.2.3.2.2.6.1.9-.3.6-.7 1.2-1.2 1.6-.3.2-.6.4-.9.3-.8-.2-1.6-.7-1.9-1.5-.1-.4-.1-1.1.4-1.3.4-.1.7.3 1 .6zm25.7 3.4c.2-.1.5.1.5.3v.8c.4-.1.9-.4 1.3-.3.3 0 .3.4.1.6-.5.7-1.5 1-2.2 1.5-.2.1-.6.3-.8.1-.2-.3-.2-.7-.5-1-.5-.4-1-.9-1-1.5 0-.4.6-.6.9-.4.3.3.5.7.7 1 .3-.4.5-.8 1-1.1zm58 3.9c.2-.1.3-.1.5 0 .3.3.3.7.4 1 .3-.3.6-.6 1-.9.2-.1.6-.1.6.2 0 .5-.3 1-.7 1.3-.1.2-.4.1-.6.2-.2.3-.4.7-.7.6-.5 0-1.1.2-1.5-.2-.2-.2-.1-.5.1-.6.3-.1.6-.1.9-.1-.1-.5-.2-1 0-1.5zm-21.6 5.7c.3-.1.6.1.7.4v.8c.4 0 .8-.1 1.2 0 .4.2.3.8 0 1-.5.3-1.2.4-1.8.5-.6.1-1.2-.4-1.6-.8-.4-.3-.7-.8-.6-1.4.1-.3.5-.4.7-.3.3.2.4.5.6.7.1-.3.3-.8.8-.9z" class="st22"/><path d="M98.3 197.5c.1 0 .2 0 .2.1.7 1.5 1.5 2.9 2.3 4.3l-.2-.2v.4c-1-1.4-1.7-3-2.3-4.6z" style="fill:#467179"/><path d="M28.6 202.4c0-.5.1-1 .3-1.5.1.1.2.2.2.4 0 .4-.1.7-.2 1.1 0-.2 0-.5-.1-.7 0 .2-.1.4-.2.7z" style="fill:#5a8188"/><path d="M28.6 202.4c.1-.2.2-.5.3-.7 0 .2.1.5.1.7-.2 1.6-.4 3.1-.8 4.7-.6 2.4-1.1 4.9-1.6 7.3-.6 2.9-1.4 5.8-2.1 8.7-.5 2-.8 3.9-1.3 5.9-.1.3-.2.6-.3.8 0-.2 0-.3-.1-.5.9-5.2 2.1-10.4 3.2-15.6.5-2.5 1.1-5 1.7-7.5.4-1.2.5-2.5.9-3.8zm71.9-.3v-.4l.2.2c1 1.5 1.9 3.2 2.6 4.9 1 2.2 1.8 4.5 2.9 6.7 1.1 2.2 2.2 4.5 3.5 6.6 1.1 1.8 1.9 3.8 2.9 5.7 1.1 2.3 2.3 4.5 3.7 6.6.7 1 1.4 2 2.2 3v.3h-.3c-1.4-1.5-2.6-3.2-3.7-5-1.4-2.3-2.7-4.6-3.8-7-.9-2-2.1-3.9-3.1-5.9-1-2.2-2.2-4.3-3.1-6.5-.8-1.8-1.5-3.6-2.2-5.4-.3-1.4-1.1-2.5-1.8-3.8z" class="st18"/><path d="M66.9 203c.3-.4.6-.9 1.1-1 .4-.1.5.3.6.5.3-.1.6-.3 1-.2.3.2.3.7.2 1-.2.5-.7.8-1.1 1-.4.2-.9.4-1.4.4-.3 0-.5-.2-.7-.3-.4-.3-.8-.7-.9-1.2-.1-.2-.1-.6.2-.7.4 0 .7.3 1 .5zm23 .4c.1 0 .3 0 .4.1.1.3.1.7.1 1 .4-.2.9-.5 1.4-.3.2.3 0 .7-.2 1-.4.4-.8.8-1.3 1-.5.2-1-.2-1.4-.6-.3-.3-.8-.7-.8-1.2 0-.3.2-.6.5-.6s.5.3.7.5c.1-.3.3-.7.6-.9z" class="st22"/><path d="M127.2 213.8c.1 0 .2 0 .2-.1.4 1 1.1 1.8 1.8 2.7 1.5 2 3.2 4 4.4 6.3.7 1.5 1.3 3 2 4.5.9 1.9 1.8 3.8 3.1 5.6 0 .1-.1.3-.1.3-1.1-1.2-1.9-2.6-2.6-4-1-1.9-1.9-3.9-2.9-5.9-1.4-2.8-3.6-5.2-5.3-7.9-.4-.5-.7-1-.6-1.5zm-83 1.3c.1-.2.3-.2.4-.2-.9 2.3-1.4 4.7-2 7.1-.7 2.8-1.4 5.6-2.2 8.4-.3 1.3-.6 2.7-1 4h-.3c0-.6.3-1.1.3-1.7.5-2.8 1.2-5.5 1.9-8.3.6-2.4 1.2-4.8 1.9-7.2.3-.7.6-1.5 1-2.1z" class="st18"/><path d="M19.8 219.4c.7.1 1.3-.3 2-.4.4.1.4.6.3.9-.1.6-.4 1.3-.8 1.8-.1.2-.4.3-.6.3-.4-.7-1.2-1.1-1.5-1.9 0-.3.2-.8.6-.7z" class="st22"/><path d="M54.4 225c.2-.2.6-.2.7.1.1.4 0 .7-.1 1.1.3-.1.6-.2.9-.2.5.1.5.8.1 1.1-.6.4-1.4.6-2.1.6-.7-.1-1.4-.5-1.6-1.2-.2-.4-.2-.9.2-1.1.5-.2.8.3 1 .6.4-.3.6-.7.9-1z" class="st19"/><path d="M22.9 229.9c.1-.3.2-.6.3-.8-.1 1.2-.4 2.4-.4 3.6h-.3c-.1-1.1.1-2.2.3-3.3.1.1.1.3.1.5z" class="st21"/><path d="M122.5 234.4c0-.3.5-.5.7-.3l.3.6c.4-.2.7-.6 1.2-.5.3.1.4.5.3.7-.2.4-.6.7-.7 1.1-.7.3-1.5.3-2.2 0-.3-.1-.3-.5-.2-.7.3-.1.6-.1.9 0-.2-.3-.3-.6-.3-.9z" class="st22"/></g></svg>