<svg xmlns="http://www.w3.org/2000/svg" xmlns:xlink="http://www.w3.org/1999/xlink" xml:space="preserve" id="Layer_1" x="0" y="0" style="enable-background:new 0 0 180 180" version="1.1" viewBox="0 0 180 180"><style>.st1{fill:#764074}.st2{fill:#492646}.st8{fill:#e56324}.st10{fill:#f95939}.st12{fill:#41233f}.st13{fill:#422440}.st25{fill:#2e251f}.st26{fill:#3d213a}.st27{fill:#3d213b}.st31{fill:#3e213c}.st32{fill:#3f223d}</style><defs><path id="SVGID_1_" d="M0 0h180v180H0z"/></defs><use xlink:href="#SVGID_1_" style="overflow:visible;fill:#e51c1c"/><clipPath id="SVGID_2_"><use xlink:href="#SVGID_1_" style="overflow:visible"/></clipPath><g style="clip-path:url(#SVGID_2_)"><path d="M85.9 24.5c2.4-.7 5-1 7.5-.3 1.4.5 2.6 1.4 3.7 2.4.9.8 1.4 1.8 2.4 2.5.5.4 1 .6 1.6.6 1.3.2 2.6-.2 3.8-.5 1.3-.4 2.7-.8 4.1-.9 1.9-.2 4 .2 5.7 1 1.5.8 3 1.7 4.1 3 1.3 1.4 2.1 3.2 2.5 5 .2 1.1.5 2.1.6 3.2 0 .8.1 1.7.5 2.4.2.4.5.8.9.9.7.2 1.4.1 2.1.2 2.1.3 4.2.9 6.1 2 1.4.8 2.6 2 3.6 3.3.9 1.2 1.6 2.5 2 3.9.3 1.3.4 2.7.1 4-.4 1.8-1 3.6-1.3 5.5-.2 1.3-.2 2.7.5 3.8.4.8 1.2 1.4 2 1.9.7.5 1.6.9 2.4 1.3 1.7.8 3.1 2.1 4.4 3.5 1.4 1.6 2.6 3.5 3.1 5.6.2 1.1.4 2.3.2 3.4-.2 1.4-.9 2.7-1.6 4-.4.8-1 1.5-1.1 2.4-.2.9.1 1.8.4 2.7.5 1.2 1.5 2.1 2 3.3.2.5.5.9.8 1.4.8 1.2 1.2 2.6 1.2 4 0 1.9-.5 3.8-1.3 5.6h-.1c-.3.1-.7.2-.9.3-1.1.6-2.5.8-3.7.6-1.1-.2-2.2-.5-3.3-.6-1.9-.2-3.9.2-5.5 1.3-.8.5-1.5 1.2-2.1 1.9-.6.7-1.1 1.5-1.8 2.1-.5.4-1.2.3-1.7.2-.8-.3-1.1-1.1-1.5-1.7-.8-1.2-1.9-2.3-3.4-2.5-.8 0-1.7-.1-2.4.2-1 .5-1.5 1.5-2.1 2.4-.3-.2-.6-.5-.8-.8-.6-.7-1.1-1.5-1.4-2.4-.3-.8-.3-1.6-.5-2.4-.2-1.5.1-3 .2-4.5.1-1.3.2-2.7 0-4-.2-1.1-.6-2.1-1.1-3.1-.4-.6-.8-1.3-1.3-1.7-.2.3-.3.7-.4 1-.3 1.2-.6 2.4-.8 3.6-.1.6-.1 1.1-.2 1.7-.3-.8-.3-1.7-.6-2.5-.2-.6-.3-1.1-.3-1.7.2-1.9.5-3.9 1.4-5.6.7-1.7 1.6-3.4 1.9-5.2.2-2 0-4.1-.6-6.1-.5-1.4-1.2-2.7-2.1-3.9-1.4-2-3.4-3.6-5.5-4.7.3 1.3.8 2.5 1.4 3.6.4.8.7 1.7 1.4 2.4.8.9 1.3 2.1 2 3.1.5.9.8 1.9.9 3-.5-.6-.8-1.4-1.1-2.1-.5-1.1-1.3-2-1.9-3-.5-.8-1-1.5-1.5-2.2-.6-.8-.9-1.9-1.4-2.7-.5-.9-.9-1.8-1.5-2.7-.5-.8-.7-1.8-1.3-2.6-.9-1.5-2.2-2.7-3.4-4-1.2-1.3-2.6-2.5-4.1-3.6-1.8-1.3-3.8-2.2-5.9-2.7-2.7-.7-5.4-1.2-7.9-2.5-.9-.5-1.7-1.2-2.5-1.6-1.5-.8-2.9-2-4.2-3.2-.4-.4-.8-.8-1.3-1.1-.3-.2-.7-.2-1 0-.2.3-.1.6 0 .9.5 1.5 1.4 2.9 2.6 4.1 1.2 1.3 2.6 2.3 4 3.4 1.5 1.2 3.3 1.9 5.2 2.5 1.3.4 2.5.8 3.7 1.2 1 .3 1.9.7 2.7 1.4.8.6 1.7 1 2.5 1.6l2.1 1.8c.7.7 1.4 1.4 2.2 2.1.6.5 1.3 1 1.7 1.7.5 1 1.1 2 1.8 2.8.4.4.7.9.9 1.5.3.6.4 1.3.8 1.8.2.3.6.2.9.3.4 0 .6.5.9.8.6.8 1.6 1.4 2 2.4.3.6.5 1.1.8 1.7.3.6.4 1.3.5 1.9.2 1 .5 2 .6 3 .1.5 0 1-.2 1.5-.3.9-.6 1.7-.8 2.6-.2.8-.3 1.5-.6 2.2-.3.6-1 .8-1.4 1.3-.4.7-.3 1.5-.3 2.2.1 1 .1 2.1.3 3.1.2.8.4 1.6 1.1 2 .3.2.8.4.7.8 0 1.5.1 3.1 0 4.6-.5.3-.9.7-1.2 1.2-.4.7-.5 1.5-.5 2.3-.1 1.6 0 3.2.3 4.7s.7 3 1.6 4.3c.6.7 1.4 1.3 2.3 1.4.7.1 1.3-.2 1.9-.4.7.8 1.3 1.5 2.1 2.1.8.6 1.7 1.1 2.8 1.2.9.1 1.7-.5 2.6-.2-1 .5-2 .5-3.1.6-1.6 0-3.1-.1-4.7-.4-1.2-.3-2.5-.6-3.6-1.2-.9-.5-1.7-1-2.5-1.6-.9-.7-1.7-1.6-2.7-2.2-.8-.5-1.8-.8-2.7-.8-1.4.1-2.6.8-3.9 1.3-3.3 1.3-7 1.4-10.5 1.4-1.9 0-3.8-.1-5.7-.1-2.9-.2-5.9-.6-8.8-.7-1.3 0-2.6-.1-3.8-.1-2.2 0-4.4-.5-6.6-.6-.8-.1-1.7-.1-2.5-.2s-1.6 0-2.5 0c-.8 0-1.7 0-2.5-.2 1.1.1 2.2.2 3.4.1-.3-2.4-1.2-4.7-1.8-7.1-.2-.8-.4-1.8-.9-2.5-.4-.5-.9-.6-1.5-.8-.2-1.8 0-3.5 0-5.3v-3.3c.1-1.2.1-2.5.1-3.7 0-1-.5-2-.4-3.1.1-1.8 0-3.6.1-5.4.1-1.3 0-2.6.1-4 .1-1 .1-2 0-3 0-.2 0-.5.1-.7.2-.3.6-.5.8-.9.2-.5.2-1.1.3-1.6.3-2.5.6-4.9 1-7.3.2-1.1.4-2.1.7-3.2.2-.7.7-1.2 1-1.8.8-1.5 1.5-3.2 2.2-4.7.2-.5.3-1.1.6-1.6 2.2-3.3 5-6.1 7.9-8.7.3-.3.7-.6 1-.9.4-.3 1-.3 1.5-.6.3-.2.5-.5.8-.6.4-.1.8-.1 1.2-.3.4-.2.8-.4 1.2-.5.3-.1.7-.2 1-.4.1-.4 0-.8 0-1.2-.1-2.5.2-4.9.6-7.4.1-.6.1-1.2.2-1.8.1-.7.3-1.4.5-2.1.9-1.3 2.1-2.4 3.3-3.4 1.4-.8 3.4-1.7 5.4-2.3z" class="st1"/><path d="M65.9 28.9c1.1-.3 2.2-.3 3.3-.4 1.7.1 3.4.2 5.1.7.9.3 1.7.7 2.4 1.3-.4.7-.5 1.6-.8 2.3-.3 1-.9 1.8-1.2 2.8-.3 1.2-1 2.2-1.7 3.1-.7.8-1.6 1.4-2.6 1.8-1.6.8-3.5 1.1-5.1 1.8-1.4.5-2.6 1.3-3.7 2.3-1.3 1.3-2.3 2.8-3.5 4.2-1.6 1.5-3.2 3.1-4.2 5.1-.5.9-1.1 1.8-1.4 2.8-.4 1.1-.3 2.3-.5 3.4-.2.8-.2 1.7-.1 2.6.2 1.4.1 2.9.1 4.3 0 .9.2 1.7.1 2.6 0 .8-.2 1.6-.3 2.4-.2-1.1-.4-2.3-.7-3.4-.5-1.4-.6-2.8-1-4.2-.9.7-1.7 1.5-2.5 2.4-1.4 1.5-2.4 3.4-2.8 5.4-.2 1-.2 2-.3 3-.1.9.1 1.8.1 2.7 0 1-.3 2-.5 3-.4 1.4-.9 2.8-1.3 4.1-.3.8-.7 1.6-.9 2.4-.1.6-.2 1.3-.3 1.9-.1.8-.1 1.6-.4 2.3-.1-.2-.2-.3-.3-.5-.2-1.3.1-2.7.3-4 .2-1.2.3-2.5.6-3.7.2-.7.7-1.4.8-2.1.1-.4.1-.9.2-1.3-1.2 1.1-2.5 2.4-3.3 3.9-.5.9-.8 1.8-1 2.8-.3 1.8-.1 3.7.1 5.5.1 1.6.1 3.3-.5 4.8s-1.7 2.6-2.4 4c-.5 1-.7 2.1-.9 3.1-.7-1.1-.7-2.5-.5-3.7.1-.8.5-1.7.3-2.5-.3-1-1.2-1.8-2.3-2-.9-.2-1.8-.2-2.7-.6-1.6-.7-2.7-2.2-3.4-3.7-.9-1.8-.9-4-.4-5.9.5-2 1.9-3.7 3.3-5.2 1.1-1.2 2.4-2.3 3.4-3.6.7-.8 1-1.9 1.1-2.9.3-1.9-.1-3.9-.2-5.8-.1-1.6 0-3.3.4-4.9.4-1.4 1-2.8 1.9-4 1.3-1.9 3-3.5 5.1-4.3.7-.3 1.6-.4 2.2-.9.6-.6 1.1-1.3 1.5-2 .3-.7.6-1.3.7-2.1.4-2.2 1.4-4.2 2.9-5.9 1.3-1.4 2.9-2.6 4.7-3.4.8-.4 1.7-.6 2.4-1.1.6-.4 1.1-.9 1.6-1.5.5-.5.7-1.2 1-1.9.4-1.3 1-2.6 1.8-3.6.8-1.1 1.9-2 3.1-2.6 1.1-.4 2.1-.8 3.2-1.1z" class="st1"/><path d="M75.9 32.8c.3-.8.5-1.6.8-2.3l.2.2c-.2.7-.4 1.4-.5 2.1-.1.6-.1 1.2-.2 1.8-.4 2.4-.7 4.9-.6 7.4v1.2c-.3.2-.7.3-1 .4-.4.1-.8.4-1.2.5-.4.2-.8.1-1.2.3-.3.1-.5.4-.8.6-.4.3-1 .3-1.5.6-.4.3-.7.6-1 .9-2.9 2.6-5.7 5.4-7.9 8.7-.3.5-.4 1.1-.6 1.6-.7 1.6-1.4 3.2-2.2 4.7-.3.6-.8 1.1-1 1.8-.3 1-.5 2.1-.7 3.2-.4 2.4-.7 4.9-1 7.3-.1.5-.1 1.1-.3 1.6-.1.4-.5.6-.8.9-.1.2-.1.5-.1.7v3c-.1 1.3 0 2.6-.1 4-.1 1.8 0 3.6-.1 5.4-.1 1 .4 2 .4 3.1 0 1.2 0 2.5-.1 3.7-.1 1.1 0 2.2 0 3.3 0 1.8-.2 3.5 0 5.3.5.2 1.1.3 1.5.8.5.7.7 1.6.9 2.5.6 2.3 1.5 4.6 1.8 7.1-1.1.1-2.2-.1-3.4-.1-1.2-.2-2.4-.6-3.5-1-1.5-.6-3-1.3-4.1-2.5-.8-.8-1.2-1.9-1.8-2.8-.4-.8-1.3-1.1-2.1-1.3-1-.2-1.9.1-2.9.1-1.2.1-2.4-.2-3.5-.8-.9-.5-1.7-1.3-2.3-2.1-.1-.1-.2-.2-.1-.3.3-1.1.4-2.2.9-3.1.7-1.4 1.8-2.6 2.4-4 .6-1.5.6-3.2.5-4.8-.2-1.8-.5-3.7-.1-5.5.1-1 .5-1.9 1-2.8.8-1.5 2-2.7 3.3-3.9 0 .4-.1.9-.2 1.3-.2.8-.6 1.4-.8 2.1-.3 1.2-.4 2.5-.6 3.7-.2 1.3-.5 2.7-.3 4 0 .2.1.4.3.5.2-.8.2-1.5.4-2.3.1-.6.2-1.3.3-1.9.2-.8.6-1.6.9-2.4.4-1.4.9-2.8 1.3-4.1.3-1 .5-2 .5-3 0-.9-.2-1.8-.1-2.7l.3-3c.4-2 1.3-3.9 2.8-5.4.8-.8 1.6-1.6 2.5-2.4.4 1.4.5 2.8 1 4.2.4 1.1.6 2.3.7 3.4.2-.8.3-1.6.3-2.4 0-.9-.1-1.7-.1-2.6-.1-1.4 0-2.9-.1-4.3-.1-.9-.1-1.7.1-2.6.2-1.1.2-2.3.5-3.4.3-1 .9-1.9 1.4-2.8 1-2 2.6-3.5 4.2-5.1 1.2-1.4 2.2-2.9 3.5-4.2 1.1-1 2.3-1.8 3.7-2.3 1.7-.7 3.5-1 5.1-1.8 1-.4 1.9-1 2.6-1.8.7-.9 1.4-2 1.7-3.1.2-1.2.8-2.1 1.1-3.1z" class="st2"/><path d="M74.6 45.7c.3-.2.7-.2 1 0 .5.3.8.7 1.3 1.1 1.3 1.2 2.6 2.3 4.2 3.2.9.5 1.7 1.1 2.5 1.6 2.4 1.3 5.2 1.8 7.9 2.5 2.1.5 4.1 1.4 5.9 2.7 1.5 1.1 2.9 2.2 4.1 3.6 1.2 1.3 2.4 2.5 3.4 4 .5.8.8 1.8 1.3 2.6l1.5 2.7c.5.9.8 1.9 1.4 2.7.5.7 1 1.5 1.5 2.2.6 1 1.4 1.9 1.9 3 .4.7.6 1.5 1.1 2.1 0-1-.3-2.1-.9-3-.6-1.1-1.1-2.2-2-3.1-.6-.7-1-1.6-1.4-2.4-.5-1.2-1.1-2.4-1.4-3.6 2.1 1.1 4.1 2.7 5.5 4.7.9 1.2 1.6 2.5 2.1 3.9.6 2 .8 4 .6 6.1-.3 1.8-1.2 3.5-1.9 5.2-.8 1.8-1.1 3.7-1.4 5.6-.1.6.1 1.2.3 1.7.3.8.3 1.7.6 2.5.1-.5.2-1.1.2-1.7.1-1.2.5-2.4.8-3.6.1-.4.2-.7.4-1 .5.5 1 1.1 1.3 1.7.6.9 1 2 1.1 3.1.2 1.3.2 2.7 0 4-.1 1.5-.4 3-.2 4.5.1.8.2 1.6.5 2.4.3.9.9 1.7 1.4 2.4.2.3.5.6.8.8.6-.9 1.2-1.9 2.1-2.4.8-.3 1.6-.3 2.4-.2 1.5.1 2.6 1.3 3.4 2.5.4.6.7 1.5 1.5 1.7.5.2 1.2.3 1.7-.2.7-.6 1.2-1.4 1.8-2.1.6-.7 1.3-1.4 2.1-1.9 1.6-1 3.6-1.5 5.5-1.3 1.1.1 2.2.5 3.3.6 1.3.2 2.6 0 3.7-.6.3-.2.6-.3.9-.3-.3.7-.6 1.2-1 1.8-.6.9-1.3 1.7-2.1 2.3-.8.6-1.8 1-2.8 1.2-.9.2-1.7 0-2.6.3-.8.3-1.6.8-2 1.6-.4.9-.6 1.8-.9 2.7-.3.9-.9 1.8-1.7 2.3-1.2.8-2.7 1-4.1 1-.9 0-1.8-.2-2.7-.6-.9-.4-1.5-1.1-2.3-1.6-.4-.2-.9-.3-1.3-.1-.6.4-1.1 1-1.6 1.4-.7.6-1.5 1.2-2.4 1.5-.9-.3-1.7.3-2.6.2-1-.1-1.9-.6-2.8-1.2-.8-.6-1.4-1.4-2.1-2.1-.6.3-1.2.5-1.9.4-.9-.1-1.8-.7-2.3-1.4-.9-1.2-1.4-2.8-1.6-4.3-.2-1.6-.3-3.1-.3-4.7.1-.8.1-1.6.5-2.3.3-.5.8-.8 1.2-1.2.1-1.5 0-3.1 0-4.6 0-.4-.4-.6-.7-.8-.7-.5-1-1.3-1.1-2-.2-1-.2-2.1-.3-3.1 0-.8-.1-1.6.3-2.2.3-.6 1.1-.7 1.4-1.3.3-.7.4-1.5.6-2.2.2-.9.5-1.8.8-2.6.2-.5.2-1 .2-1.5l-.6-3c-.1-.6-.2-1.3-.5-1.9-.3-.6-.6-1.1-.8-1.7-.4-1-1.4-1.5-2-2.4-.3-.3-.5-.7-.9-.8-.3-.1-.7 0-.9-.3-.4-.5-.5-1.2-.8-1.8-.2-.5-.5-1-.9-1.5-.7-.9-1.3-1.8-1.8-2.8-.4-.7-1.1-1.2-1.7-1.7-.8-.7-1.5-1.4-2.2-2.1L95 60.8c-.8-.6-1.7-1-2.5-1.6-.7-.7-1.7-1.1-2.7-1.4-1.2-.4-2.5-.9-3.7-1.2-1.8-.6-3.6-1.3-5.2-2.5-1.3-1.1-2.8-2.1-4-3.4-1.2-1.1-2.1-2.5-2.6-4.1.2-.2.1-.6.3-.9z" class="st2"/><path d="M172.3 168.8c.1.1.2.2.3.2-.1 0-.2-.1-.3-.2z" style="fill:#4f3e37"/><path d="M198.2 225.5c-.3-2.6-.5-5.2-.5-7.8-.7-3.5-1.6-7-2.6-10.5-1.4-4.7-3.2-9.3-5.2-13.8-.9-2.1-1.9-4.1-3-6.1-.5-.9-1-1.8-1.5-2.6-.1-.2-.3-.5-.4-.7-.1-.2-.3-.3-.4-.5 0 0-.1-.1-.1-.2-.3-.5-.6-.9-.9-1.4-2.5-3.5-5.2-6.9-8.1-10-.8-.8-1.6-1.7-2.4-2.5-.2-.1-.3-.2-.5-.4-.2-.1-.6-.6-.8-.7-.4-.4-.8-.7-1.2-1.1-.1-.1-.2-.2-.3-.2-1-1.3-2.1-2.6-3.2-3.9-.9-1.1-1.6-2.3-2.5-3.4-1.1-1.4-1.9-2.9-3-4.3-1.3-1.6-2.6-3.1-4.1-4.5-.8-.7-1.4-1.5-2.2-2.2-1.5-1.5-3.1-3-4.8-4.4-1.6-1.4-3.2-2.8-4.4-4.5-1.3-1.8-2.5-3.5-3.9-5.1-1.5-1.7-2.6-3.8-3.8-5.7-1.1-1.6-2.5-2.9-3.9-4.2-.8-.7-1.4-1.5-2.1-2.2-.7-.6-1.5-1-2.4-1.2-1.5-.3-3-.3-4.5-.2-1.3.2-2.6.6-3.8 1.3-1.5.8-2.9 1.8-4.2 2.8-1.8 1.3-3.6 2.8-5.3 4.3-1.4 1.2-2.9 2.4-4.7 2.9-2.6.8-5.3.8-7.9 1.2-3.1.5-6.1 1.1-9.1 1.7-1.8.4-3.7.8-5.3 1.6-.4.2-.8-.2-1.2.1-.4.2-.7.6-1 .8-1.8 1.2-3.4 2.6-4.7 4.2-1.5 1.9-2.4 4.1-3.3 6.3-.4.9-.7 1.7-1 2.6-.5 1.3-.9 2.7-1.5 4-1.3 3-2.6 6.2-4.9 8.7-1.3 1.4-3 2.4-4.4 3.7-1.4 1.3-2.9 2.5-4.2 3.9-1.6 1.7-3.1 3.5-4.5 5.4-1.3 1.9-2.5 3.8-3.7 5.8-.9 1.4-1.8 2.8-2.8 4.1-1.5 1.9-3.2 3.8-5 5.6-1.2 1.1-2.4 2.2-3.5 3.4-3 3.2-5.8 6.6-8.4 10.2-1.1 1.5-1.9 3.1-2.7 4.8-.4.4-.7.8-1 1.3-1.4 2.4-2.5 5-3.5 7.7-.3.5-.6 1.1-.9 1.6-.4.6-.6 1.4-.6 2.1-.4.9-.9 1.7-1.3 2.6h177.1z" style="fill:#38312d"/><path d="M108.6 135.5c1.2-.2 2.4-.2 3.6-.1 1.9.3 3.9.6 5.5 1.7.9.6 1.8 1.4 2.5 2.3.7.9 1.1 2 1.2 3.2.2 1.1-.1 2.1-.3 3.2-.3 1.2-.6 2.5-1.2 3.6-.5.9-1 1.7-1.6 2.5-.7 1-1.4 2.1-2.3 3-.3-.5-.7-1.1-1.4-1-.6-.1-1.1.3-1.5.8-.4.4-.9.7-1.3 1-.3.2-.7.4-1 .5-.6-.2-1.2-.4-1.7-.1-.7.4-1.2 1.1-1.8 1.6-1.6 1.5-3.2 3.1-4.8 4.7-.4.4-1 .3-1.4.2.1-.5.3-1 .2-1.5-.2-.8-.9-1.4-1.7-1.5-.7 0-1.5.2-2.2.3-1 .1-2 .3-3 0-1.1-.3-2.3-.3-3.4-.1-.1-.7-.1-1.4-.2-2 0-.5 0-1-.1-1.4 0-.2-.3-.3-.5-.4-.5.7-.4 1.5-.4 2.3-.1-.2-.2-.5-.5-.6-.3-.1-.7 0-1 .1-.1-.6-.2-1.3-.2-1.9.6-1.3 1-2.7 1.4-4.1.3-.8.6-1.5 1-2.2.6-1.1 1.4-2.1 2.2-3.1 2.4-3.2 5.2-6.1 8.6-8.2 2.3-1.5 4.8-2.4 7.3-2.8z" style="fill:#fff"/><path d="M113.2 154.6c.4-.4.9-.8 1.5-.8s1.1.5 1.4 1c.1.7-.1 1.4-.5 1.9-.7.8-1.3 1.6-2 2.4-.8.6-1.4 1.5-2.2 2.2-3.2 3.2-6.3 6.5-9.9 9.3-.5.4-1.2.6-1.7 1.1a30.6 30.6 0 0 1-3.6 3.6c-.8.7-1.4 1.6-2.2 2.3-1 1-2.1 1.9-3.2 2.6-.8.5-1.4 1.3-2.3 1.8-.3.1-.8.1-.9-.3-.1-.4.4-.6.3-1-.2-.9-.2-1.8-.3-2.7-.1-2.9-.4-5.8-.6-8.7 0-1.3.1-2.7-.2-4-.3-1.8-.5-3.6-.7-5.4-.1-.8 0-1.7-.1-2.5 0-.7-.2-1.4.1-2.1.3-.6 1.2-.7 1.6-.2.2.2.3.4.5.7 0 .6.1 1.3.2 1.9.3-.1.7-.2 1-.1.2.1.4.4.5.6 0 .2.1.3.1.5 0-.6 0-1.2.1-1.8 0-.2.2-.4.4-.5.3.6.3 1.3.3 2 0-.2.1-.4.1-.6 0 .7.1 1.4.2 2 1.1-.3 2.3-.3 3.4.1 1 .3 2 .1 3 0 .7-.1 1.4-.4 2.2-.3.8 0 1.5.7 1.7 1.5.1.5-.1 1-.2 1.5.5.1 1.1.2 1.4-.2 1.6-1.5 3.2-3.1 4.8-4.7.6-.5 1.1-1.2 1.8-1.6.6-.3 1.2-.1 1.7.1.4-.1.7-.3 1-.5.4-.4.9-.7 1.3-1.1z" style="fill:#ac3064"/><path d="M90.2 156c.2.1.5.1.5.4.1.5.1.9.1 1.4 0 .2-.1.4-.1.6 0-.7 0-1.3-.3-2-.2.2-.4.3-.4.5-.1.6-.1 1.2-.1 1.8 0-.2-.1-.3-.1-.5.1-.6 0-1.5.4-2.2z" style="fill:#c36d8e"/><path d="M72.8 44c.9-.3 1.7-.7 2.6-1 .7.8.8 1.9 1.3 2.8.5.9 1 1.8 1.6 2.6 1 1.1 2.1 2.3 3.4 3.1.9.5 1.8 1.1 2.8 1.5 2.4 1 4.9 2 7.3 3.3.8.4 1.6.9 2.4 1.5 1 .8 1.9 1.7 2.8 2.6 1.4 1.4 2.5 3 3.5 4.7.9 1.6 1.9 3.2 3.1 4.7 1.5 1.7 3.2 3.3 4.5 5.1 1 1.3 1.7 2.8 2 4.4.3 1.5.4 3.1.3 4.6-.1 1.1-.4 2.2-.8 3.2-.7 1.5-1.8 2.8-2.1 4.5-.2.9-.3 1.9.2 2.7.4.7 1 1.3 1.3 1.9.9 1.5 1.5 3.3 1.4 5.1 0 1.5-.5 2.8-1.1 4.1-.8 1.8-1.1 3.8-.5 5.7.5 1.6 1.6 3.1 3 4 .8.5 1.5.9 2.3 1.3 1 .4 2 .7 2.9 1.1.8.3 1.7.8 1.9 1.7.2.9.8 1.6 1.2 2.3.6 1.1 1.2 2.2 1.7 3.2-.9.4-1.8.6-2.7.8-1.1.2-2.2.4-3.2.1-1.3-.2-2.7-.6-3.8-1.6-1.3-1.1-2.3-2.5-3-4-.6-1.1-.9-2.4-1.8-3.4-.6-.8-1.5-1.4-2.4-2-.9-.5-1.7-1.1-2.2-2-.8-1.5-1.2-3.3-1-5 .1-1 .6-1.9 1-2.8.5-1.3 1.2-2.5 1.4-3.9.2-1.3-.1-2.7-.7-3.9-.4-.8-1-1.5-1.6-2.2-.6-.7-1.4-1.3-1.9-2.2-.6-.9-1.2-1.9-1.4-3-.2-.9-.3-1.9-.2-2.8.2-1.8 1.1-3.5 1.1-5.4 0-.8-.2-1.7-.6-2.4-.5-.9-1.2-1.6-1.9-2.2-1.5-1.3-2.4-3.1-3-5-.7-2 0-4.1-.5-6.1-.2-1.1-1-2-1.8-2.7-.9-.9-2-1.7-2.9-2.6-.7-.7-1.5-1.2-2.2-1.7-1.7-1.2-3.2-2.6-4.6-4.1-.6-.6-1.2-1.2-1.8-1.9-.6-.7-1.1-1.6-1.7-2.3-1.4-1.6-2.5-3.6-2.9-5.7-.1-.3-.1-.6-.4-.7-.3-.1-.5.1-.7.3-.4.4-.8.8-1.2 1.1-.7.6-1.2 1.3-1.9 2-1.5 1.6-3 3.3-4.3 5-1.4 1.7-2.7 3.4-3.9 5.2-1.8 2.7-4 5.2-5.6 8.1-.3.6-.5 1.4-1.1 1.9-.4.3-.6.7-.9 1.2v-.2c.2-1.1.6-2.2.9-3.3.8-2.7 1.8-5.3 3-7.9.9-2.1 2-4.1 3.4-6 1.2-1.7 2.7-3.2 4.4-4.5 1.2-1 2.7-1.8 4.2-2.3.6-.2 1-.4 1.4-.6z" class="st8"/><path d="M74.4 44.3c.2-.2.4-.4.7-.3.3.1.4.4.4.7.4 2.1 1.5 4.1 2.9 5.7.6.7 1.1 1.6 1.7 2.3.5.7 1.2 1.2 1.8 1.9 1.4 1.5 2.8 3 4.6 4.1.8.5 1.6 1 2.2 1.7.9.9 2 1.7 2.9 2.6.8.8 1.6 1.6 1.8 2.7.6 2-.2 4.1.5 6.1.7 1.8 1.6 3.7 3 5 .7.7 1.5 1.4 1.9 2.2.4.7.7 1.6.6 2.4 0 1.9-.9 3.6-1.1 5.4-.1.9.1 1.9.2 2.8.2 1.1.9 2 1.4 3 .5.8 1.3 1.4 1.9 2.2.6.7 1.2 1.4 1.6 2.2.6 1.2 1 2.6.7 3.9-.2 1.4-.9 2.6-1.4 3.9-.4.9-.9 1.8-1 2.8-.2 1.7.1 3.5 1 5 .5.9 1.3 1.5 2.2 2 .9.5 1.8 1.1 2.4 2 .8 1 1.2 2.3 1.8 3.4.7 1.5 1.7 2.9 3 4 1 .9 2.4 1.3 3.8 1.6 1.1.2 2.2.1 3.2-.1.9-.2 1.8-.4 2.7-.8 1.4 2.7 2.9 5.4 4.5 8 .4.6.8 1.2 1.1 2 .2.6.8.8 1 1.4.3.7-.1 1.5-.3 2.1-.4 1.2-1.1 2.3-1.7 3.5-.9 1.7-2 3.3-3.1 4.8-1.2 1.6-2.3 3.3-3.6 4.9-1.3 1.6-2.8 3.1-4.3 4.6-1.8 1.7-3.9 3-6 4.3-1.6.9-3.1 1.9-4.8 2.6-2.6 1.1-5.5 1.5-8.3 1.2-2-.2-4-.7-5.8-1.6-1-.5-1.9-1.1-2.8-1.8.2-1.2.2-2.4.4-3.6.7-4.4 1.8-8.7 3.3-12.9.9-2.7 2-5.3 3.3-7.8.5-.9 1-1.8 1.4-2.8.5-1.4 1.1-2.7 1.6-4.1.4-.9.7-1.9 1.1-2.8.5-1.1.9-2.2 1.3-3.3.4-1 .8-1.9 1-2.9-.9.7-1.8 1.4-2.7 2.2-.3.3-.8.5-1.2.7-.7.3-1.3.7-1.9 1-1.2.7-2.3 1.3-3.5 2.1-1 .7-2.1 1-3.2 1.5-1.2.5-2.3 1.1-3.6 1.4-1.2.3-2.4.5-3.7.7-.8.1-1.7.3-2.5.3-.7 0-1.5-.1-2.1.2 0 .2 0 .4-.1.6-.1-.1-.1-.3-.2-.4-1.5-.2-3.1-.4-4.6-.9-1.6-.4-3-1.1-4.4-1.9-.9-.5-1.7-1.3-2.4-2-.8-.7-1.7-1.5-2.4-2.4-1.2-1.4-2-3-2.8-4.6-1.1-2-1.8-4.1-2.6-6.2-.8-2.2-1.5-4.5-2.1-6.8.3.1.7.3 1 .3.7-.1 1.3-.4 2-.7 1-.4 1.9-1.1 2.5-2 1-1.4 1.4-3.1 1.4-4.8.1-2-.7-3.9-1.9-5.5-.8-1.1-2-1.9-3.3-2.2-.9-.2-1.8-.1-2.7.1-.3.1-.6.2-.7.4-.1.3-.2.6-.2.9-.1-.9-.1-1.7-.1-2.6 0-1.9-.1-3.9.1-5.8.1-3.3.4-6.6.9-9.8.3-1.4.6-2.9.9-4.3.1-.5.2-1 .4-1.4v.2c.2-.4.5-.9.9-1.2.6-.5.7-1.2 1.1-1.9 1.6-2.9 3.8-5.4 5.6-8.1 1.2-1.8 2.5-3.5 3.9-5.2 1.4-1.7 2.8-3.4 4.3-5 .6-.6 1.2-1.4 1.9-2 .5-.3.9-.7 1.3-1.1z" style="fill:#f2844f"/><path d="M64.7 76.2c.8-.1 1.6-.1 2.4-.1.4 0 .7.3 1 .3h.7c.3.1.6.3.9.3.3 0 .6 0 .9.2.7.5 1 1.4 1.1 2.3.1 2-.3 4.1-.9 6-.2.7-.7 1.2-.8 1.9-.2.9-.5 1.8-.8 2.7-.2.5-.4 1-.5 1.5-.2.9-.5 1.8-.8 2.7-.4 1.1-.7 2.2-1.1 3.3-.2.7-.4 1.5-.6 2.2 0 .2-.2.3-.3.5v-.9c.2-1.7.3-3.4.5-5.1.2-1.8.3-3.6.3-5.4-.6.1-1.2.4-1.8.4-.9.1-1.9.5-2.8.2-.2-.1-.4-.2-.4-.4.2-.3.6-.4.9-.6.4-.3.8-.7 1.1-1 .7-.6 1.2-1.5 1.7-2.3.5-.9.6-1.9.8-2.9.1-.6 0-1.2-.1-1.8-.3-1.1-.6-2.2-1.1-3.3-.3-.2-.3-.4-.3-.7z" class="st8"/><path d="M54.3 91.2c.9-.2 1.8-.3 2.7-.1 1.3.3 2.5 1.1 3.3 2.2 1.2 1.6 2 3.5 1.9 5.5-.1 1.7-.5 3.4-1.4 4.8-.6.9-1.5 1.5-2.5 2-.6.3-1.3.7-2 .7-.4 0-.7-.1-1-.3-.6-2.5-1-5.1-1.3-7.6-.2-2-.4-4-.5-6 0-.3 0-.6.2-.9.1-.1.4-.2.6-.3zm36.1.9c1.8-.2 3.7.4 5.1 1.6.6.5 1.3 1 1.7 1.6.8 1 1.3 2.3 1.3 3.6 0 1.7-.2 3.5-1.2 5-.4.7-.9 1.3-1.5 1.9a7.67 7.67 0 0 1-5 2.6c-2 0-4.1-.6-5.7-1.9-1.2-1-1.9-2.4-2.2-3.9-.6-2.8.3-6 2.4-8 .5-.5 1-1.1 1.7-1.4 1-.4 2.2-1 3.4-1.1z" class="st10"/><path d="M74.4 102.1c.3-.2.6-.2.9-.2.1.6-.3 1.1-.5 1.6-.4.8-.7 1.6-1.2 2.4-.3.5-.5 1-.9 1.4-.2.2-.4 0-.5-.1-.4.3-.9.7-1.5.8-.7.2-1.4-.2-2-.6-.4-.2-.3-.7-.3-1.1 0-.6 0-1.1.2-1.7.1-.3.5-.3.8-.4.6-.1 1.1-.5 1.7-.6.7-.2 1.3-.4 2-.6.5-.1.8-.7 1.3-.9zm-6.7 11.7c1.4.4 2.8.6 4.2.6 1.4 0 2.9-.2 4.3-.5.4-.1.9-.1 1.3.1 0 1-.8 1.7-1.4 2.4-.5.6-1.1 1.3-1.9 1.4-.8 0-1.7-.2-2.5-.2-.7 0-1.3.1-2 .1-.3 0-.5-.3-.7-.5-.3-.6-.5-1.3-.8-1.9-.2-.5-.6-1-.5-1.5zm30.8 8.8c.8-.8 1.8-1.5 2.7-2.2-.3 1-.7 2-1 2.9-.4 1.1-.8 2.2-1.3 3.3-.4.9-.7 1.8-1.1 2.8-.5 1.4-1.1 2.7-1.6 4.1-.4 1-.9 1.9-1.4 2.8-1.3 2.5-2.4 5.1-3.3 7.8-1.5 4.2-2.7 8.5-3.3 12.9-.2 1.2-.2 2.4-.4 3.6-1-.9-1.9-2.2-2.1-3.7 0-.5-.1-.9-.2-1.4-.1-.4 0-.9 0-1.3-.3-.5-.9-.8-1.1-1.4-.2-.8.2-1.5.2-2.3-.2-.5-.7-.8-.8-1.3-.2-.8.2-1.6.3-2.5-.5-.2-1-.2-1.3-.5-.6-.6-.8-1.5-.5-2.3.1-.4.4-.9.3-1.4-.3-.4-.9-.4-1.3-.8-.2-.3-.4-.7-.6-1.1h-.6c-.5-1.2-.9-2.5-1.3-3.7-.4-1-.8-1.9-1.2-2.9-.3-1-.7-1.9-.8-2.9 0-.2 0-.4.1-.6.7-.3 1.4-.2 2.1-.2.8 0 1.7-.2 2.5-.3 1.2-.2 2.5-.4 3.7-.7 1.2-.3 2.4-.9 3.6-1.4 1.1-.5 2.2-.8 3.2-1.5 1.1-.7 2.3-1.4 3.5-2.1.6-.4 1.2-.8 1.9-1 .3-.1.8-.3 1.1-.7z" class="st8"/><path d="M80.2 140.8h.6c.2.4.3.8.6 1.1.3.4.9.4 1.3.8.1.5-.2.9-.3 1.4-.3.8-.1 1.7.5 2.3.4.3.9.4 1.3.5-.1.8-.5 1.6-.3 2.5.1.5.6.8.8 1.3 0 .8-.5 1.5-.2 2.3.2.6.8.9 1.1 1.4 0 .4-.1.9 0 1.3s.2.9.2 1.4c-.3-.9-.7-1.7-1-2.5-.6-1.6-1.1-3.3-1.6-5-.7-2.1-1.3-4.2-2-6.2-.4-1-.7-1.8-1-2.6z" class="st10"/><path d="M85.1 68.7c-1.1.2-2.1.3-3.1.7-.6.2-1.2.6-1.7 1-.3.1-.7.3-.8.7.4-.1.8-.2 1.1-.3 2.4-1.1 5-1.5 7.6-1.9.5-.1 1 0 1.4-.4-1.6-.2-3.1 0-4.5.2z" style="fill:#fbbb9e"/><path d="M58.4 72c1.8-.7 3.8-.6 5.8-.7 1.6-.1 3.3 0 4.7.9.2.1.3.2.5.4.5.8.8 1.7 1.3 2.4-.1-.8-.2-1.6-.1-2.5.2.3.5.6.7.9.2.5.3 1 .4 1.6.1.5.1 1.1 0 1.6-.1.3-.1.5-.2.8h-.4c-1.8-.1-3.5-.5-5.3-.5-1.5-.1-3 .1-4.5.2-.7.1-1.4.1-2.1.1-1.7.2-3.3.6-4.9.8-.2 0-.4-.1-.5-.1.1-1.2.5-2.3.4-3.4.1-.5.4-1.2.9-1.4.5-.2 1-.5 1.6-.7.4-.2 1.1-.2 1.7-.4z" class="st12"/><path d="M83.4 71.9c1.3-.4 2.6-.5 4-.6 2.6-.1 5.1.2 7.6.8 1.7.5 3.5 1.1 5 2.1.5.3 1 .6 1.5 1 1 .9 1.6 2.1 1.9 3.4.1.6.3 1.1.3 1.6-.6-.2-1.1-.5-1.6-.7-2.1-.9-4.4-1.6-6.7-2.1-2.5-.5-5-.7-7.5-.1-.5.1-1 .1-1.6.2-1.8.2-3.5 1-5.3 1-.4.1-.6-.3-.7-.6-.2-.5-.4-.9-.5-1.4-.1-.4 0-.9 0-1.3.1-.5.2-1 .4-1.5.3.7.2 1.6.4 2.3.3-.8.2-1.7.6-2.4.5-.7 1.3-1.3 2.2-1.7z" class="st13"/><path d="M61.3 81.5c.5-.3 1.1 0 1.4.4.2.3.3.6.2 1 0 .7 0 1.4-.4 2-.3.4-.8.6-1.3.4-.4-.2-.7-.7-.7-1.1 0-.7 0-1.4.2-2 .2-.4.4-.6.6-.7zm30.2.8c.8-.5 1.9.2 1.9 1.1 0 .8-.2 1.5-.4 2.2-.3.7-1.1 1.1-1.8.7-.6-.3-.8-.9-.7-1.5 0-.8.1-2 1-2.5z" style="fill:#15100d"/><path d="M94.6 87.5c.8-.2 1.5-.4 2.2-.7v.5c-.8.5-1.7.9-2.5 1.2-.5.2-1.1.4-1.6.2-.5-.1-1-.2-1.5-.4 1-.4 2.2-.5 3.4-.8z" style="fill:#fcbb9a"/><path d="M57.1 87.2c.8.1 1.5.3 2.3.6 1.2.3 2.4.5 3.6.4.6 0 1.2-.2 1.8-.2v.6c-.3.2-.7.3-1.1.4-1 .2-2.1.2-3.1.2-1.2-.1-2.4-.5-3.2-1.4-.2-.2-.2-.4-.3-.6z" style="fill:#b75b37"/><path d="M72.9 88.2c.1-.2.4-.3.6-.4-.2.5-.5 1-.7 1.5l-.9 2.1c-.9 2.3-1.8 4.5-2.7 6.8-.2.5-.4 1-.8 1.4 0-.3.1-.7.2-1 .2-.6.2-1.2.4-1.8.6-2 1.5-3.9 2.3-5.9.4-.9 1-1.8 1.6-2.7z" style="fill:#fcb492"/><path d="M87.8 88.6c.3-.1.6-.3 1-.2 1.1.2 2.2.5 3.4.5.8 0 1.6.1 2.4-.1.3-.1.5-.1.8-.1v.4c-1.3.6-2.7.6-4.1.6-1.2 0-2.3-.4-3.5-.6v-.5z" style="fill:#bd6a49"/><path d="M90.4 98.8c.7-.6 1.2-1.5 2.2-1.6.1.1.2.2.2.3-.4.8-1.2 1.3-1.7 2l-1.8 2.1c-.4.4-.7.9-1.1 1.4-.1.1-.2.2-.4.2-.2-.1-.1-.4 0-.5.2-.5.6-1 .9-1.5.4-.9.9-1.8 1.7-2.4z" style="fill:#fcb591"/><path d="M73.6 102.3c-1.5.4-3.1.9-4.6 1.2-.5 0-1 .1-1.4-.1-.5-.2-.8-.7-.9-1.2-.2-1.7.2-3.4.7-5.1.6-1.8 1.2-3.6 1.9-5.4.5-1.3 1.1-2.5 1.6-3.7.4-1 .8-2 1.2-3.1.4-1.2.6-2.4.7-3.7 0-.8 0-1.7-.1-2.5-.2-.7-.6-1.4-1-2-.1.3-.1.5-.2.8h-.4c.3.6.6 1.1.7 1.7.2 1.1.3 2.3-.1 3.4-.5 1.7-1.2 3.4-1.8 5.1-.7 2.3-1.7 4.5-2.4 6.8-.7 2-1.5 4-1.8 6.1-.1.8-.2 1.6 0 2.3.2.9.9 1.6 1.8 1.7 1.1.2 2.2.1 3.2-.3 1.1-.4 2.2-.8 3.2-1.4.5-.2 1-.4 1.4-.7.2-.1.2-.3.3-.5-.7 0-1.4.3-2 .6z" style="fill:#b95d38"/><path d="M68.7 106.4c1 0 2-.3 3.1-.3 1-.1 2 0 3 .1 1.4.2 2.8.3 4 1.1.4.2.7.6.9 1.1-.8-.2-1.6 0-2.4 0-1.4.1-2.8.3-4.3.2-1.5-.1-2.9-.4-4.4-.4-1 0-2.1-.1-3.1.4v-.4c.1-.3.3-.6.6-.7.8-.6 1.7-1.1 2.6-1.1z" style="fill:#da4e33"/><path d="M65.7 110.2c-.3-.6-.3-1.4-.2-2v.8c.5.1 1 .2 1.5.1 1.4-.1 2.8-.1 4.2.1 1.4.1 2.8.3 4.2.2 1.1-.1 2.2-.1 3.2-.3.5-.1.9-.1 1.4-.1.3.6.1 1.4-.2 2-.7 1.2-2.2 1.7-3.5 2-2.4.5-4.9.5-7.3-.2-1.3-.6-2.6-1.4-3.3-2.6z" class="st10"/><path d="M65.5 108.5c1-.5 2-.4 3.1-.4 1.5 0 3 .3 4.4.4 1.4.1 2.9 0 4.3-.2.8-.1 1.6-.2 2.4 0 .1 0 .2.1.4.1 0 .2 0 .3-.1.5-.5 0-.9 0-1.4.1-1.1.2-2.2.2-3.2.3-1.4.1-2.8 0-4.2-.2-1.4-.1-2.8-.1-4.2-.1-.5 0-1 0-1.5-.1v-.4z" style="fill:#912f1c"/><path d="M69.2 109.9c.6-.2 1.2-.1 1.9-.2 1 0 2 .2 3.1.1.9 0 1.8 0 2.8-.1-.3.5-1 .4-1.5.4-2.1.1-4.1.2-6.2 0-.3.1-.2-.2-.1-.2z" style="fill:#fb9d7b"/><path d="M68.8 120.8c.7-.4 1.4-.9 2.2-1 1.2-.1 2.5-.2 3.6.4l.3.3c-.1.2-.4.1-.6.1-1.1-.1-2.2 0-3.3-.1-.6 0-1.1.2-1.7.3-.2.2-.3.1-.5 0z" style="fill:#fcb896"/><path d="M128.5 137.1c.1 0 .1-.1.2-.1.2-.7.5-1.3.7-2 .1-.6.1-1.1.1-1.7 0-1.2 0-2.4-.2-3.4-.4-2.1-1.4-4-3.2-5.1.1.1.1.3.2.4.7.8 1.1 1.8 1.3 2.9.3.9.5 1.9.7 2.8.2 1.8.3 3.7.3 5.5-.1.2-.1.5-.1.7zm-70.6 36.4c.6.6 1.3.9 1.9 1.3 1.3.8 2.6 1.6 3.8 2.4 1.5 1.1 3 2 4.3 3.3.9.8 1.6 1.7 2.4 2.5.9.9 1.7 2 2.3 3.1.6.9 1.1 1.9 1.5 2.9.1.3.3.7.5 1-.7.5-1.4.9-2 1.4-1.4 1-2.8 2-4 3.2-1.6 1.6-2.9 3.6-3.5 5.7-.3 1.1-.7 2.2-.8 3.4-.3.7-.2 1.5-.3 2.3 0 1.2-.4 2.4-.7 3.6-.4 1.3-.7 2.5-1.1 3.8-.9 3.3-1.7 6.7-2 10.2-.1.6-.1 1.2-.2 1.8h1c.2-1.4.3-2.9.5-4.3.3-2.5.9-4.9 1.4-7.3.2-1.1.5-2.1.7-3.2.4-1.4.7-2.9.8-4.4 0-1.5.5-2.9 1-4.3.3-.9.6-1.8 1-2.7.1 0 .2.2.2.2.4-.4.9-.7 1.3-1.1l1.2-.9c1.2-.9 2.6-1.8 4-2.3 2.6-1 5.4-1.3 8.1-1.7 1.3-.2 2.6-.3 4-.2 1.3.1 2.7.3 4 .5 1.6.4 3.3.4 4.9.6 1.5 0 3 .2 4.6.1h5.2c2.4.1 4.8.4 7.2 1 2.3.6 4.6 1.2 6.6 2.5.8.6 1.8 1 2.7 1.4 1 .4 1.9.8 2.8 1.1 1.5.5 3.1.9 4.6 1.1 1 .3 2 .2 3 .3.2 0 .4.1.7.1.4-.1.7-.4 1-.7.3-.1.4-.4.6-.6.9-1.1 1.7-2.4 2.2-3.7.4-.9.8-1.8 1.1-2.8.3-.8.5-1.6.9-2.4 1.5-3.5 2.5-7.3 2.8-11.1.1-1.5.6-3 .9-4.6.5-2.3 1.1-4.5 1.8-6.7.2-.4.3-.9.5-1.3.7-2.4 1.4-4.9 1.8-7.4.2-.7.2-1.4.3-2.1.4-2.6.7-5.2.6-7.8-.1-.7 0-1.4-.2-2.1 0-1 0-1.9-.1-2.9 0-1.6-.1-3.1-.3-4.6v-.1c-.5-1.3-1.1-2.5-1.9-3.5 0 .2 0 .4.1.6l.1-.1c.2.6.3 1.2.5 1.8.3.9.3 1.8.5 2.8.2 1.8 0 3.5.2 5.3 0 .5.1 1.1.2 1.6 0 .7.1 1.5.2 2.2.1 1 0 2.1-.1 3.2-.1 1.6-.4 3.2-.6 4.7-.4 1.5-.8 3.1-1.1 4.6-.5 1.3-.8 2.6-1.4 3.9-.3 1.1-.9 2-1.3 3-.6 1.5-1.3 2.9-1.7 4.5-.2.8-.4 1.6-.5 2.5-.2 1.3-.2 2.5-.4 3.8-.2 1.3-.4 2.5-.6 3.8-.4 2.5-1.3 4.9-2.2 7.2-.5 1.3-1 2.7-1.7 4-.6 1.1-1.1 2.3-1.8 3.4-.1.2-.2.4-.5.4-.6 0-1.2-.3-1.9-.5-.8-.3-1.6-.6-2.4-.7-1.5-.3-2.9-.6-4.3-1.2-1.5-.6-3.1-1.1-4.6-1.9-1.6-.7-3.4-1-5.1-1.6-.7-.2-1.5-.2-2.2-.4-1.7-.4-3.5-.8-5.2-.9-2.7-.2-5.4-.1-8.1-.1-1.6 0-3.2-.1-4.8-.2-1.4-.1-2.8-.3-4.2-.4-1-.2-2.1-.2-3.2-.3-1.6-.1-3.3 0-4.9.3-2.4.3-4.8.6-7 1.5-1.7.6-3.4 1.5-4.7 2.8-.7.5-1.2 1.3-1.9 1.8 1-1.9 2.5-3.5 4.1-5 2.4-2.1 5.1-3.9 7.8-5.7 2-1.2 3.8-2.6 5.8-3.7.8-.5 1.7-.9 2.5-1.5.4-.2 1-.5 1-1-.4 0-.7.2-.9.5-2.3.8-4.4 2.1-6.4 3.5-1.7 1.2-3.5 2.4-5.2 3.6-.7-2-1.9-3.9-3.2-5.6-.7-1-1.6-1.9-2.4-2.8l-2.1-2.1c-1-.8-2-1.6-3-2.3-1.7-1.3-3.5-2.5-5.4-3.4-.5-.3-1-.7-1.6-.6-.2.2-.3.5 0 .7z" class="st25"/><path d="M67.5 188.9h.3c.1-.6-.3-1.1-.6-1.6-1-1.7-2.3-3.1-3.8-4.3-.8-.5-1.6-1.1-2.5-1.1v.3c.9.6 1.8 1.2 2.6 1.9 1.6 1.4 3 2.9 4 4.8zm77 36.6c.3-2.3 0-4.7.2-7 .1-1.3.2-2.5.5-3.8.5-2.1 1.2-4.2 1.8-6.3.7-2.3 1.6-4.5 2.6-6.7 1.2-2.4 2.6-4.8 4.1-7 1.1-1.6 2.1-3.3 3.2-4.9 1.4-2 2.8-4 4.1-6 .3-.6.9-1.1 1-1.7-.5.4-.8.9-1.2 1.4 0 0-.1 0-.1.1-.6 1.1-1.4 2-2.3 2.8-.8 1.1-1.5 2.2-2.2 3.3-1.1 1.7-2.5 3.1-3.6 4.8-2.7 3.9-4.9 8.2-6.4 12.8-.7 2.3-1.3 4.6-1.8 6.9-.3 1.4-.4 2.8-.4 4.2-.1.9-.1 1.8-.1 2.7 0 1.5-.1 3 .1 4.5h.5zm-58.8-34.9c1 0 1.9 0 2.9-.1s2.1.1 3.1.1c1.9.3 3.8.6 5.6.9 2.2.4 4.5 0 6.7-.3 2-.2 4-.4 5.9-.3l3 .3c1.6.2 3.2.5 4.8 1.1.8.3 1.6.8 2.3 1.1.3.2.6.4 1 .6.8.4 1.5 1 2.2 1.4.1-.2.3-.4 0-.5-.8-.7-1.7-1.4-2.7-2-1-.7-2.1-1.4-3.3-1.9-1.3-.5-2.7-.7-4-.9-1.2-.1-2.5-.3-3.7-.3-1.4 0-2.9 0-4.3.1-2.5.3-5.1.9-7.7.5-1.5-.2-3-.6-4.5-.7-2.5-.4-5-.2-7.4.4.1.2.1.4.1.5zm53.8 34.9v-1.8c0-1 .1-2 .1-3 .1-1.3.2-2.5.3-3.8.3-2.4.9-4.8 1.5-7.2 1.1-4.3 2.9-8.3 4.6-12.3.2-.5.5-1 .5-1.6h-.5c-.3.4-.5.8-.7 1.2-1.1 2-2.1 4.1-3 6.3-1 2.4-1.8 5-2.4 7.5-.5 2.5-1.1 5.1-1.2 7.7-.2 2.3-.1 4.7.3 7h.5zm-67.9-18.8c.5.2 1.1.2 1.7.2 1-.1 1.9-.8 2.4-1.7.7-1 .7-2.2.5-3.3-.1-.6-.4-1.2-.9-1.6-.9-.8-2.1-1.3-3.2-1.2-.7 0-1.3.3-1.8.8-.4.4-.6.9-.9 1.4-.2.3-.5.7-.6 1.1-.2 1 .1 2.2.8 2.9.5.7 1.2 1.2 2 1.4zm10.2-.9c-.4.3-.8.5-1.2.8-2 1.2-4 2.3-6.2 3-1.6.5-3.3 1.1-4.4 2.4-.4.3-.6.8-.5 1.2.2 0 .5-.1.7-.3.5-.4 1.2-.8 1.8-1.1 1.5-.8 3.2-1.1 4.7-1.8 1-.5 1.9-1.1 2.8-1.6.7-.5 1.3-.9 1.9-1.4.6-.3 1-.8 1.5-1.2.2-.2.4-.3.5-.5 0-.2-.1-.3-.2-.5-.5.4-.9.7-1.4 1zm-41.7 10.6c.5 1.5.7 3 .9 4.5.1 1.2.3 2.3.4 3.5v1h1c.1-.6.2-1.1.4-1.7.4-1.7.8-3.3 1.3-4.9.2-.8.6-1.6.9-2.4.4-.8.5-1.7.7-2.6.2-1.1.1-2.3.1-3.4 0-.5-.1-1-.1-1.6-.2-1.1-.3-2.3-.7-3.4-.1-.3-.6-.6-.7-.2.1.8.3 1.7.3 2.5 0 2.1 0 4.2-.2 6.2-.1.9-.2 1.8-.5 2.7-.4 1.3-.9 2.6-1.3 3.9-.2.5-.4 1-.6 1.6 0-2-.3-4.1-.8-6-.5-1.9-1.1-3.8-2.4-5.4-.4-.4-.8-.9-1.4-.8-.1.5.3 1 .5 1.4.7 1.7 1.6 3.4 2.2 5.1zm96.4 9.1c0-1.2.1-2.4.3-3.6 0-.1 0-.2.1-.3 0-.5 0-1 .1-1.5.1-2.3.4-4.6.9-6.9.2-.6.3-1.1.4-1.7-.3.1-.6.1-.7.4-.3.7-.4 1.5-.6 2.3-.3 1.4-.6 2.7-.8 4.1-.4 2.4-.4 4.8-.2 7.1h.5z" class="st25"/><path d="M83.9 30.7c.9-.6 2-.6 3-.6 1.6.2 3.2.8 4.5 1.7 1.6 1.3 2.9 2.9 3.8 4.8.1.2 0 .4-.1.6-.5-.3-.7-1-1.1-1.5-1.1-1.4-2.4-2.7-4-3.4-1.5-.7-3-1.2-4.7-1.1-.5 0-1 .1-1.6.2-.3-.2 0-.5.2-.7z" class="st26"/><path d="M65.5 35.3c.9-1 2-1.8 3.3-2.2v.3c-.3.4-.8.5-1.2.8-.8.6-1.4 1.4-1.8 2.3-.5 1.1-.8 2.4-1.7 3.2-.9.9-2.2 1.4-3.4 1.7-.6.1-1.3.4-1.8.8-.6.5-1.1 1.1-1.8 1.5-.2-.6.2-1.2.6-1.7.5-.6 1.1-1.3 1.9-1.5.6-.2 1.3-.3 1.9-.5.9-.4 1.6-.9 2.2-1.7.5-1 1-2.1 1.8-3z" class="st27"/><path d="M105.3 35.7c1.1-.2 2.2-.3 3.2-.1 1.4.3 2.7 1 3.5 2.2.6.8.7 1.8 1.1 2.7.3.8 1.1 1.3 1.8 1.7.9.4 1.8.4 2.7.8.9.5 1.7 1.1 2.1 2 .5.9.5 1.9.6 2.9.2 1.7.9 3.3 2.3 4.4.4.4 1 .7 1.5 1 .2.1.2.4.2.5-1.3.1-2.4-.7-3.3-1.5-.6-.5-1.1-1.1-1.4-1.7-.4-1-.6-2.1-.6-3.1-.1-.8-.1-1.7-.6-2.3-.5-.7-1.2-1.2-2-1.4-.8-.2-1.6-.3-2.4-.7-.8-.4-1.5-1-1.9-1.8-.5-.9-.6-2-1.2-2.8-.8-.9-2-1.5-3.1-1.6-1.6-.1-3.1.5-4.7.4-1-.1-2.2-.4-2.5-1.4.9.3 1.7.9 2.6.8.8-.2 1.4-.9 2.1-1z" style="fill:#3c203a"/><path d="M86.4 36.7c.3 0 .3.3.4.5.5 1.2.6 2.6 1.5 3.6.7.9 1.6 1.6 2.7 1.9 1.5.3 3.1.1 4.6.4.7.1 1.4.5 2.1.9 1.7.9 3 2.6 3.8 4.3.5 1 1.2 1.9 2.3 2.3 1.1.5 2.4.3 3.6.7 1.7.5 3.4 1.4 4.5 2.9 1 1.4 1.7 3 2.4 4.5.5 1.1 1 2.2 1.7 3.2.1.2.3.4.2.6-.1.3-.5.3-.7.1-.4-.4-.7-.8-1-1.3-1-1.4-1.7-3.1-2.8-4.5-.6-.8-1.2-1.6-2-2.3-.8-.7-1.8-1.1-2.8-1.5-.6-.2-1.1-.3-1.7-.4-1-.1-2-.4-2.9-.9-.7-.4-1.2-1-1.7-1.6-.7-.9-1-2.1-1.7-3-1-1.4-2.4-2.6-4.1-3-1.5-.4-3.1-.1-4.6-.6-1-.4-1.9-1.2-2.6-2.1-.7-.9-.9-2-1.2-3-.1-.5-.2-1.1 0-1.7z" style="fill:#3c2039"/><path d="M79.4 40.1c.5.1.9.3 1.2.6 1.4 1.4 2.1 3.3 3.4 4.8 1 1.3 2.2 2.3 3.6 3.2.6.4 1.2.6 1.8 1v.3h-.5c-1.9-.7-3.7-1.8-5.2-3.2-.8-.8-1.3-1.7-1.9-2.6-.7-1.2-1.4-2.4-2.3-3.5-.2-.3-.1-.5-.1-.6z" style="fill:#3e223d"/><path d="M100 41.1c.3 0 .7 0 1 .2 1 .4 1.8 1.1 2.7 1.4 1.3.5 2.7.7 4 1.3.6.3 1.2.7 1.4 1.4-.7-.5-1.3-.9-2.1-1.2-1-.4-2.1 0-3.2-.3-1-.2-1.8-.7-2.6-1.4l-1.2-.9c-.1-.1 0-.3 0-.5z" class="st31"/><path d="M114.2 49.2c.2-.1.4 0 .6.2.5.5.9 1 1.2 1.6.6 1.2 1.1 2.5 1.9 3.6.2.2.3.5.3.9-.2 0-.5 0-.6-.1-1.4-1.5-2.1-3.5-3.2-5.2-.2-.4-.4-.7-.2-1z" class="st32"/><path d="M50.7 49.9c.2.4.2.9.2 1.4 0 .6.1 1.2 0 1.7 0-.5-.1-1-.2-1.5-.1.5-.2 1-.4 1.5 0-.4 0-.8.1-1.3.2-.6.2-1.2.3-1.8z" style="fill:#532e52"/><path d="M126.8 50.4c-.1-.3.4-.4.6-.4.8.2 1.6.7 2.2 1.3.6.6 1 1.5 1.3 2.3.5 1.3.8 2.6.6 4 0 .3-.2.6-.4.8-.2-.4-.1-.8-.1-1.1 0-.8-.2-1.6-.5-2.3-.5-1.4-1.2-2.8-2.4-3.7-.4-.3-.9-.5-1.3-.9z" class="st13"/><path d="M58.4 51.4c.3-.3.9-.5 1.2-.1-.4.4-.8.8-1.1 1.3-1.3 1.8-2.2 3.8-2.9 5.9-.3.8-.5 1.6-.7 2.3 0-1 .2-2 .4-2.9.2-1.3.6-2.6 1.2-3.8.4-1 1-2 1.9-2.7z" style="fill:#743f71"/><path d="M50.7 51.5c.1.5.2 1 .2 1.5 0 1.1-.3 2.1-.6 3.1-.3.8-.9 1.5-1.7 1.9-.9.5-1.9 1.1-2.7 1.7-.3.3-.8.5-1.1.8-.7.9-1.1 1.9-1.8 2.7-.3.4-.4.9-.7 1.3 0-1.4.5-2.8 1.3-3.9.9-1.4 2.3-2.4 3.7-3.1.7-.3 1.5-.5 2-1.2.6-1 .8-2.1 1.1-3.2.1-.6.2-1.1.3-1.6z" class="st27"/><path d="M94.4 51.7c.2-.1.5.1.7.2 1 .8 2.3 1.1 3.4 1.5 1.2.5 2.5 1 3.5 1.9.4.3.7.7.9 1.2h-.3c-.3-.2-.6-.6-.9-.8-1-.7-2.2-1.1-3.4-1.5-1.3-.3-2.6-.7-3.6-1.6-.2-.2-.5-.6-.3-.9z" class="st12"/><path d="M121.1 58.5c.1 0 .2.1.2.1.1 1.1.3 2.2.7 3.3.3 1 1.1 1.8 2 2.2 1 .5 2 1 2.7 1.8.9 1 1.4 2.3 1.6 3.6.2.9.3 1.9 0 2.8-.4 1-1.1 2-1.1 3.1 0 .9.5 1.7 1 2.5.7 1.1 1.2 2.3 1.4 3.6.1.5.1 1.1-.4 1.5l-.2-.2c0-1.6-.8-3-1.8-4.2-.6-.8-1.1-1.7-1.1-2.8 0-.8.2-1.7.6-2.4.3-.6.6-1.2.6-1.9 0-1-.2-1.9-.4-2.8-.3-.9-.7-1.7-1.4-2.3-.9-.8-2.1-1.2-2.9-2-.5-.5-.9-1-1.1-1.7-.3-1.1-.5-2.2-.4-3.4-.2-.3-.1-.6 0-.8z" class="st27"/><path d="M125.9 58.5c.6.1.9.7 1.2 1.1 1 1.4 1.5 3.1 2.5 4.5.3.5.7.9 1.1 1.3-1.2-.5-2-1.7-2.7-2.8-.9-1.3-1.4-2.8-2.1-4.1z" class="st32"/><path d="M106 59.6c.4 0 .7 0 1 .2.5.4.9.9 1.2 1.5.7 1.1 1.4 2.3 2.3 3.2.4.4.9.6 1.3 1v.3c-.3 0-.6-.1-.8-.2-1.7-1-2.9-2.7-3.9-4.4-.2-.6-.7-1-1.1-1.6z" style="fill:#422441"/><path d="M116 67.7c.4.1.5.5.7.8.6 1 1.7 1.4 2.5 2.1 1.4 1.1 1.9 2.9 1.9 4.5 0 1.4.1 2.8-.4 4.1h-.4c.1-1.7-.1-3.4-.4-5-.2-.9-.5-1.7-1.1-2.4-.7-.8-1.6-1.3-2.2-2.1-.4-.6-.6-1.3-.6-2zm-78.3 3.6c.5-.9 1-1.9 1.9-2.4-.3 1-.7 2-.9 3-.2 1-.3 2.1-.1 3.1.2 1.2.4 2.3.3 3.5-.1 1.1-.5 2.2-.9 3.2-.3.7-.6 1.4-1.1 2-.2.2-.4.5-.7.5-.2 0-.2-.1-.2-.2.2-.4.5-.7.7-1 .3-.7.5-1.4.8-2.1.2-.6.4-1.1.3-1.7-.1-.9-.3-1.7-.5-2.6-.2-1-.2-2.1-.1-3.2.1-.7.1-1.5.5-2.1z" class="st27"/><path d="M48.8 73.5c0-.7 0-1.5.3-2.2.2.6.3 1.2.5 1.7.2.8.5 1.6.4 2.4-.1 1-.3 2.1-.8 3-.5 1-1.3 1.8-2 2.6-.6.7-1 1.4-1.7 2.1.1-.7.2-1.4.6-2 .5-.8 1.1-1.6 1.5-2.4 1-1.5 1.1-3.4 1.2-5.2z" style="fill:#764072"/><path d="M135.5 74.8c-.2-.5-.3-1.2.2-1.7.3.3.3.8.5 1.2.7 1.3 2.4 1.8 3.2 3.1.6 1 1.1 2.1 1.1 3.3.1 1.3-.2 2.7-1 3.8-.8 1-1.3 2.3-1.4 3.5-.2 1.1.2 2.2.2 3.4 0 1.1.1 2.3-.1 3.4-.1-1.1-.1-2.3-.5-3.3-.3-.9-.6-1.9-.6-2.8 0-1.5.4-2.9 1.1-4.2.4-.7.9-1.5 1-2.4.3-1.4-.1-2.8-.8-4.1-.3-.5-.7-.9-1.2-1.3-.8-.5-1.4-1.1-1.7-1.9z" class="st27"/><path d="M133 79c.2 0 .4-.2.5 0 .3.3.5.8.7 1.2.5 1.1.8 2.2.7 3.4-.1 1.1-.6 2.2-.9 3.3-.3 1.1-.6 2.3-.7 3.4 0 .3-.1.6-.2.9-.2-.1-.4-.3-.4-.6-.1-2.2.5-4.4.9-6.6.2-.9.1-1.8-.1-2.7-.2-.7-.5-1.5-.5-2.3z" class="st26"/><path d="M32.2 82.4c.1-.2.1-.5.4-.5.2.7.5 1.5.1 2.2-.5 1.1-1.2 2.2-1.5 3.3-.3 1-.5 2.1-.4 3.1 0 .7.4 1.3.4 2-.7-.5-1-1.3-1-2.2-.1-1.6.2-3.1.7-4.6.3-1.1 1-2.2 1.3-3.3z" class="st32"/><path d="M122 83.9c.1-.2.3-.2.5-.2 0 .7-.2 1.4-.3 2.1-.1.7 0 1.5.3 2.2.5.9 1.3 1.7 1.6 2.7.6 1.5.8 3 .8 4.6 0 2.2-.8 4.2-1.8 6.1-.2.3-.4.7-.7 1 0-.3.1-.7.1-1 .2-.8.6-1.6.8-2.4.5-1.5.6-3.1.4-4.6-.2-1.3-.4-2.6-1-3.8-.4-.9-1.2-1.6-1.5-2.6-.2-1.4.1-3 .8-4.1z" class="st31"/><path d="M43.8 88.6c.2-.3.4-.5.8-.5-.2.6-.5 1.1-.7 1.7-.3 1.1-.3 2.3-.2 3.4.2 1.8.4 3.5.4 5.3 0 .6 0 1.2-.2 1.8-.1.2-.3.2-.4.2.2-2.9-.7-5.6-.7-8.5 0-1.1.4-2.4 1-3.4z" style="fill:#723e6f"/><path d="M48.8 90.4c.1-.2.3-.1.5-.1 0 1-.2 2-.3 3-.2 1.6.2 3.2.1 4.9 0 1.3-.1 2.7-.9 3.8-.1 0-.2 0-.4-.1.6-1.4.7-3 .4-4.5-.1-.8-.4-1.6-.5-2.4-.1-1.1.1-2.2.4-3.2.3-.5.4-1 .7-1.4z" style="fill:#743e70"/><path d="M128.6 92.6c.2-.6.3-1.3.9-1.6.1.2.3.3.3.5 0 .6-.2 1.1-.2 1.7-.2 1.3-.2 2.6.2 3.9.4 1.4 1 2.8 1.5 4.2.2.8.2 1.6.1 2.5-.1 0-.2 0-.4.1-.2-.8-.3-1.7-.6-2.4-.4-1-1-1.9-1.5-2.8-1-1.9-1-4.1-.3-6.1z" class="st26"/><path d="M138.3 91.4c.2.5.2 1.1.2 1.6.1 1.1-.1 2.3-.7 3.3h-.3c.1-.6.4-1.2.4-1.9.1-1-.2-1.9-.3-2.8.4 1.1.4 2.2.5 3.3.3-1.2.2-2.4.2-3.5z" style="fill:#502c4d"/><path d="M141.5 96.9c.5.2.7.8 1 1.3.4.7 1 1.4 1 2.2 0 1.1-.2 2.3-.7 3.4-.2.4-.4.8-.8 1-.2.1-.3-.2-.5-.3.3-.5.6-1 .7-1.6.3-1.3.2-2.6-.2-3.9-.2-.7-.5-1.4-.5-2.1z" style="fill:#3e213b"/><path d="M121.9 103.4c.1-.7.5-1.4.8-2-.1.3-.1.7-.1 1 .2-.3.4-.7.7-1-.2.6-.5 1.2-.8 1.8-.2.1-.4.1-.6.2z" style="fill:#512a4e"/><path d="M51.2 101.9h.5c.1.3.1.7 0 1.1-.3 1-.7 1.9-1.3 2.8-.3.4-.5.8-.9 1.1-.1.1-.3 0-.5 0 .2-.6.6-1.1.9-1.7.4-.9.8-1.7 1.1-2.7-.1-.2 0-.4.2-.6z" style="fill:#723d6e"/></g></svg>