<?xml version="1.0" encoding="utf-8"?>
<!-- Generator: Adobe Illustrator 25.2.0, SVG Export Plug-In . SVG Version: 6.00 Build 0)  -->
<svg version="1.1" id="Layer_1" xmlns="http://www.w3.org/2000/svg" xmlns:xlink="http://www.w3.org/1999/xlink" x="0px" y="0px"
	 viewBox="0 0 180 180" style="enable-background:new 0 0 180 180;" xml:space="preserve">
<style type="text/css">
	.st0{clip-path:url(#SVGID_2_);}
	.st1{fill:#764072;}
	.st2{fill:#40233F;}
	.st3{fill:#DDD0C1;}
	.st4{fill:#F2844F;}
	.st5{fill:#F95939;}
	.st6{fill:#E56324;}
	.st7{fill:#E77843;}
	.st8{fill:#FE8B54;}
	.st9{fill:#DEA1B7;}
	.st10{fill:#694F67;}
	.st11{fill:#5F435C;}
	.st12{fill:#5C415B;}
	.st13{fill:#4B304B;}
	.st14{fill:#563955;}
	.st15{fill:#E0A9BE;}
	.st16{fill:#513752;}
	.st17{fill:#735D72;}
	.st18{fill:#B2839A;}
	.st19{fill:#6C566B;}
	.st20{fill:#6D576D;}
	.st21{fill:#573D56;}
	.st22{fill:#674F67;}
	.st23{fill:#B0859C;}
	.st24{fill:#EDD0DA;}
	.st25{fill:#6E576B;}
	.st26{fill:#6B516C;}
	.st27{fill:#786076;}
	.st28{fill:#5A4159;}
	.st29{fill:#765F75;}
	.st30{fill:#583D56;}
	.st31{fill:#8A7588;}
	.st32{fill:#E2AEC2;}
	.st33{fill:#5C445C;}
	.st34{fill:#887588;}
	.st35{fill:#624B61;}
	.st36{fill:#624963;}
	.st37{fill:#FCBB9B;}
	.st38{fill:#695169;}
	.st39{fill:#553A53;}
	.st40{fill:#15100C;}
	.st41{fill:#B65B37;}
	.st42{fill:#B85E3B;}
	.st43{fill:#FCBA99;}
	.st44{fill:#BE6E4C;}
	.st45{fill:#B8603C;}
	.st46{fill:#FCB594;}
	.st47{fill:#FCB99A;}
	.st48{fill:#FCC0A3;}
	.st49{fill:#FDC1A5;}
	.st50{fill:#FDBD9F;}
	.st51{fill:#BB6442;}
	.st52{fill:#B75A36;}
	.st53{fill:#B9623F;}
	.st54{fill:#FCBFA2;}
	.st55{fill:#C67C5F;}
	.st56{fill:#FCB593;}
	.st57{fill:#B85D3A;}
	.st58{fill:#B9603D;}
	.st59{fill:#BB6845;}
	.st60{fill:#B95F3C;}
	.st61{fill:#FCBC9E;}
	.st62{fill:#D0424E;}
	.st63{fill:#FFFFFF;}
	.st64{fill:#92353D;}
	.st65{fill:#FCB694;}
	.st66{fill:#C88466;}
	.st67{fill:#CC8C72;}
	.st68{fill:#B85D39;}
	.st69{fill:#CD8A72;}
	.st70{fill:#F39F82;}
	.st71{fill:#B75C38;}
	.st72{fill:#B9623E;}
	.st73{fill:#C67F63;}
	.st74{fill:#CA856B;}
	.st75{fill:#B8623F;}
	.st76{fill:#BC6745;}
	.st77{fill:#BA6240;}
	.st78{fill:#7E8679;}
	.st79{fill:#899186;}
	.st80{fill:#677062;}
	.st81{fill:#C3C5C1;}
	.st82{fill:#8D9388;}
	.st83{fill:#6F776A;}
	.st84{fill:#7F877C;}
	.st85{fill:#737B6E;}
	.st86{fill:#7D8379;}
	.st87{fill:#B1B5AF;}
	.st88{fill:#A7ABA4;}
	.st89{fill:#7A8577;}
	.st90{fill:#737B6C;}
	.st91{fill:#525D4D;}
	.st92{fill:#CE8D75;}
	.st93{fill:#545F4F;}
	.st94{fill:#667063;}
	.st95{fill:#5C6757;}
	.st96{fill:#535F4E;}
	.st97{fill:#798176;}
	.st98{fill:#505B4B;}
	.st99{fill:#7C8477;}
	.st100{fill:#515B4C;}
	.st101{fill:#7B8374;}
	.st102{fill:#535E4E;}
	.st103{fill:#566151;}
	.st104{fill:#6E766B;}
	.st105{fill:#838B80;}
	.st106{fill:#8D9389;}
	.st107{fill:#767D70;}
	.st108{fill:#6F7769;}
	.st109{fill:#717C6E;}
	.st110{fill:#868C84;}
	.st111{fill:#687061;}
	.st112{fill:#687163;}
	.st113{fill:#737C6F;}
	.st114{fill:#777F74;}
	.st115{fill:#868C80;}
	.st116{fill:#676F60;}
	.st117{fill:#7D8377;}
	.st118{fill:#737B70;}
	.st119{fill:#556051;}
	.st120{fill:#7C8379;}
	.st121{fill:#626D5E;}
	.st122{fill:#616C5C;}
	.st123{fill:#556050;}
	.st124{fill:#858B81;}
	.st125{fill:#848A80;}
	.st126{fill:#8A9086;}
	.st127{fill:#7C8679;}
	.st128{fill:#878F84;}
	.st129{fill:#979D95;}
	.st130{fill:#525D4E;}
	.st131{fill:#586253;}
	.st132{fill:#90978F;}
	.st133{fill:#535D4E;}
	.st134{fill:#7C8479;}
	.st135{fill:#767E71;}
</style>
<g>
	<defs>
		<rect id="SVGID_1_" width="180" height="180"/>
	</defs>
	<use xlink:href="#SVGID_1_"  style="overflow:visible;fill:#9541F7;"/>
	<clipPath id="SVGID_2_">
		<use xlink:href="#SVGID_1_"  style="overflow:visible;"/>
	</clipPath>
	<g class="st0">
		<g>
			<path class="st1" d="M80.3,18.5c2.8-0.4,5.7-0.6,8.6-0.1c3.1,0.5,6.3,1.4,8.6,3.6c1.1,1.1,2.3,2.2,3.2,3.5
				c0.8,1.3,1.2,2.7,1.5,4.1c0.3,1.6,0.6,3.2,0.3,4.8c0.8,0.1,1.6,0.3,2.4,0.3c2.1,0.1,4.3,0.6,6.2,1.4c1.7,0.7,3.3,1.7,4.9,2.7
				c0.9,0.6,1.7,1.2,2.5,1.9c0.6,0.5,1.1,1.2,1.7,1.7c0.9,0.8,1.4,1.9,2.2,2.8c1.1,1.4,2,2.9,2.8,4.6c0.9,2,1.8,4.1,2.4,6.2
				c0.4,1.6,0.9,3.1,1.2,4.7c0.3,1.9,0.7,3.8,0.8,5.8c0.2,2,0.1,4,0.1,6c-0.1,2.2-0.4,4.4-0.7,6.6c-0.1,0.4-0.1,0.8,0.2,1.2
				c-0.3,1.5-0.9,3-1.6,4.3c-1.2,2.3-2.6,4.5-4.3,6.3c-1.6,1.7-3.6,2.9-5.6,4.1c-1.8,1.1-3.8,2-5.8,2.7c-2.2,0.8-4.4,1.5-6.6,1.9
				c-2.8,0.5-5.7,0.6-8.6,0.8c-1.3,0-2.6,0.1-3.8,0.1c-0.9,0-1.9,0.1-2.8,0.1c-1.6,0-3.2,0.2-4.8,0.1c-1.2,0-2.5,0.1-3.7,0.1
				c-1.8,0.1-3.7,0-5.5,0.1c-1.5,0-3.1,0.1-4.6,0c-1.3-0.1-2.6-0.6-3.7-1.3c-1.4-1.1-2.8-2.2-3.7-3.7c-1-1.4-1.6-3-2.1-4.7
				c-0.5-1.6-0.9-3.3-1.1-5c-0.2-1.2-0.5-2.5-0.6-3.7c-0.1-1.5-0.2-3-0.4-4.5c0.3-2.7,0.1-5.5,0.5-8.2c0.4-2.4,1-4.8,1.6-7.2
				c0.5-2.1,1.2-4.1,1.9-6.1c0.7-2.2,1.7-4.4,2.9-6.3c0.9-1.4,1.9-2.6,3.1-3.7c1.9-1.8,4-3.4,6.2-4.7c1.8-1.2,3.8-2.1,5.9-2.8
				c2.1-0.7,4.2-1.4,6.3-2c2.4-0.6,4.8-1,7.3-1.5c1.3-0.2,2.7-0.4,4-0.4c0.7,0,1.4,0,2.1-0.1c0.3,0,0.5-0.4,0.3-0.7
				c-0.2-0.3-0.6-0.4-0.9-0.5c-1.7-0.5-3.4-0.8-5.1-1c-0.5-0.8-1.1-1.4-1.8-2c-1-0.8-2.1-1.6-3.3-2.1c-1.8-0.8-3.6-1.4-5.6-1.5
				c-2.8-0.2-5.6,0.4-8.3,1.3c-1.7,0.5-3.2,1.4-4.7,2.4c-2.1,1.4-4,3-5.8,4.9c-0.9,0.9-1.8,1.8-2.6,2.8c-0.5,0.6-0.8,1.2-1.4,1.7
				c-0.9,0.8-1.7,1.7-2.6,2.6c1-0.3,1.6-1.1,2.4-1.7c1.9-1.5,3.8-2.9,5.8-4.4c1.8-1.3,3.7-2.4,5.7-3.3c1.9-0.8,3.8-1.7,5.9-2.2
				c1.4-0.3,2.8-0.5,4.2-0.5c1.5-0.1,3.1,0.1,4.5,0.6c0.8,0.3,1.4,0.8,2,1.4c-2.3,0.2-4.5,0.7-6.8,1.1c-2.2,0.5-4.4,1.1-6.5,2
				c-2,0.9-3.9,1.9-5.7,3.2c-3.6,2.5-6.6,5.7-9.3,9.2c-2.6,3.2-5.1,6.5-7.9,9.6c-1.1,1.2-2.2,2.3-3.3,3.5c1.2-0.4,2.4-0.9,3.6-1.5
				c1.1-0.5,2.3-0.9,3.3-1.6c0.6-0.4,1.2-0.8,1.8-1.2c0.7-0.5,1.2-1.2,2-1.6c0,0.1,0,0.3,0,0.4c-0.3,0.3-0.6,0.6-0.9,0.9
				c0,0.6-0.6,1-0.9,1.4c-1.1,1.2-2.3,2.3-3.6,3.3c-1.6,1.2-3.1,2.4-4.8,3.3c-1.4,0.8-2.8,1.6-4.2,2.4c-2,1-3.9,2-5.8,2.9
				c-2,0.9-3.9,1.8-5.9,2.6c-1,0.4-2,0.9-3,1.3c-2.3,0.9-4.7,1.7-7.2,2.2c-0.7,0.2-1.4,0.2-2.1,0.3c-0.1-0.8,0.1-1.5,0.6-2.2
				c0.5-0.7,1.3-1.2,2-1.6c-0.1,0-0.3,0-0.4,0C26,73,27,73,27.8,72.7c1.9-0.7,3.7-1.9,5.5-2.8c1.5-0.8,2.9-1.7,4.3-2.6
				c0.5-0.3,1-0.7,1.3-1.2c-1,0.3-1.9,0.8-2.9,1.2c-2,0.8-4.1,1.4-6.1,2.1c-2.6,0.9-5.2,1.4-7.9,1.6c-1.3,0.1-2.6-0.1-3.8-0.5
				c0.1-1.6,1.4-2.8,2.8-3.3c1,0.1,1.9-0.2,2.8-0.3c2.6-0.4,5-1.5,7.4-2.4c1.4-0.5,2.9-1.1,4.3-1.7c-0.3,0-0.6,0-0.9,0
				c1.3-0.5,2.6-1,3.8-1.6c1.7-0.8,3.5-1.5,5-2.7c-0.8,0.2-1.6,0.4-2.4,0.7c-4,1.5-8.1,2.5-12.3,3.1c-1.8,0.2-3.6,0.5-5.3,0.7
				c-1.5,0.2-3.1-0.2-4.6-0.4c-0.9-0.1-1.7-0.5-2.5-0.9c0,0.2,0,0.3,0,0.5c-0.1,0-0.2,0-0.3,0c0.2-0.6,0.5-1.3,0.9-1.8
				c0.7-0.8,1.6-1.5,2.6-2c1.2-0.6,2.6-0.9,3.9-1.4c1.5-0.5,3.1-0.8,4.6-1.2c1.2-0.3,2.3-0.6,3.5-1c1.9-0.2,3.9-0.5,5.7-1.1
				c1.5-0.6,3-1,4.4-1.6c3.1-1.2,6-2.8,8.9-4.5c2-1.2,4-2.4,5.5-4.2c-1.2,0.9-2.6,1.7-3.9,2.4c-2.5,1.2-5.2,2.1-7.8,3
				c-0.9,0.3-1.7,0.5-2.6,0.7c-1.3,0.4-2.7,0.6-4.1,0.9c-2,0.3-4,0.2-5.9-0.1c-1-0.2-2-0.5-2.8-1c0.9-1.8,2.6-3.3,4.5-4
				c1.3-0.5,2.7-1,4.1-1.3c1.2-0.3,2.5-0.6,3.7-1c1.8-0.6,3.5-1.5,5.1-2.4c1.3-0.7,2.5-1.5,3.5-2.6c1.6-1.6,3.1-3.3,4.7-4.9
				c1.9-2.1,3.8-4.2,6.1-6c1.9-1.6,4-3.1,6.3-4.2C71,20.6,75.6,19.2,80.3,18.5z"/>
			<path class="st2" d="M76.7,28.8c2.7-0.9,5.5-1.5,8.3-1.3c1.9,0.1,3.8,0.7,5.6,1.5c1.2,0.5,2.3,1.3,3.3,2.1c0.7,0.6,1.3,1.2,1.8,2
				c1.7,0.2,3.5,0.5,5.1,1c0.3,0.1,0.7,0.2,0.9,0.5c0.2,0.2,0,0.6-0.3,0.7c-0.7,0.1-1.4,0.1-2.1,0.1c-1.4,0-2.7,0.2-4,0.4
				c-2.4,0.4-4.9,0.8-7.3,1.5c-2.1,0.5-4.2,1.3-6.3,2c-2.1,0.7-4,1.7-5.9,2.8c-2.2,1.3-4.3,2.9-6.2,4.7c-1.1,1.1-2.2,2.3-3.1,3.7
				c-1.3,2-2.2,4.1-2.9,6.3c-0.7,2-1.4,4-1.9,6.1c-0.6,2.4-1.2,4.7-1.6,7.2c-0.4,2.7-0.3,5.5-0.5,8.2c-0.1-0.5-0.1-1-0.1-1.6
				c-0.7,0.6-1.5,1.1-2.4,1.5c-2.2,0.9-4.5,1.6-6.9,2c-2.5,0.5-5,0.9-7.5,1.3c-2.1,0.4-4.2,0.3-6.3,0.5c-1.1,0-2.2,0-3.3,0
				c-1.4-0.1-2.8-0.2-4.1-0.5c-1.8-0.4-3.6-1.1-5-2.4c-0.6-0.5-0.9-1.3-1.1-2.1c0.7-0.1,1.4-0.2,2.1-0.3c2.4-0.6,4.8-1.3,7.2-2.2
				c1-0.4,2-0.9,3-1.3c2-0.8,3.9-1.8,5.9-2.6c2-0.9,3.9-1.9,5.8-2.9c1.4-0.7,2.8-1.6,4.2-2.4c1.7-0.9,3.2-2.1,4.8-3.3
				c1.3-1,2.5-2.1,3.6-3.3c0.4-0.4,0.9-0.7,0.9-1.4c0.3-0.3,0.6-0.6,0.9-0.9c0-0.1,0-0.3,0-0.4c-0.8,0.4-1.3,1.2-2,1.6
				c-0.6,0.4-1.2,0.8-1.8,1.2c-1,0.7-2.2,1.1-3.3,1.6c-1.2,0.5-2.3,1.1-3.6,1.5c1.1-1.2,2.2-2.3,3.3-3.5c2.8-3,5.3-6.3,7.9-9.6
				c2.7-3.4,5.7-6.7,9.3-9.2c1.8-1.2,3.7-2.3,5.7-3.2c2.1-0.9,4.3-1.5,6.5-2c2.2-0.5,4.5-0.9,6.8-1.1c-0.6-0.6-1.2-1.2-2-1.4
				c-1.4-0.5-3-0.7-4.5-0.6c-1.4,0-2.8,0.1-4.2,0.5c-2,0.5-3.9,1.4-5.9,2.2c-2,0.9-3.9,2-5.7,3.3c-1.9,1.4-3.9,2.8-5.8,4.4
				c-0.8,0.6-1.5,1.3-2.4,1.7c0.9-0.9,1.6-1.8,2.6-2.6c0.5-0.5,0.9-1.1,1.4-1.7c0.8-1,1.7-1.9,2.6-2.8c1.7-1.8,3.7-3.4,5.8-4.9
				C73.5,30.1,75,29.3,76.7,28.8z"/>
			<path class="st2" d="M52,45.7c1.4-0.7,2.7-1.5,3.9-2.4c-1.5,1.8-3.5,3-5.5,4.2c-2.9,1.6-5.8,3.2-8.9,4.5c-1.4,0.6-3,1.1-4.4,1.6
				c-1.8,0.6-3.8,0.9-5.7,1.1c-1.2,0-2.3-0.7-2.7-1.8c-0.5-1.2-0.5-2.5,0-3.7c0.9,0.5,1.8,0.8,2.8,1c2,0.3,4,0.4,5.9,0.1
				c1.4-0.2,2.7-0.5,4.1-0.9c0.9-0.2,1.8-0.4,2.6-0.7C46.8,47.7,49.5,46.9,52,45.7z"/>
			<path class="st2" d="M41.1,59.1c0.8-0.3,1.6-0.5,2.4-0.7c-1.5,1.2-3.3,1.9-5,2.7c-1.3,0.6-2.6,1.1-3.8,1.6c0.3,0,0.6,0,0.9,0
				c-1.4,0.7-2.8,1.2-4.3,1.7c-2.4,0.9-4.8,2-7.4,2.4C22.9,67,22,67.2,21,67.1c-1-0.2-1.9-0.4-2.8-0.8c-0.9-0.4-1.6-1.1-1.9-2
				c-0.3-0.7-0.4-1.5-0.4-2.3c0.1,0,0.2,0,0.3,0c0-0.2,0-0.3,0-0.5c0.8,0.4,1.6,0.7,2.5,0.9c1.5,0.2,3.1,0.6,4.6,0.4
				c1.8-0.2,3.6-0.4,5.3-0.7C33,61.5,37.1,60.5,41.1,59.1z"/>
			<path class="st2" d="M36,67.3c1-0.4,1.9-0.9,2.9-1.2c-0.3,0.5-0.8,0.9-1.3,1.2c-1.4,0.9-2.8,1.8-4.3,2.6
				c-1.8,0.9-3.6,2.1-5.5,2.8C27,73,26,73,25.1,73.1c-1,0.1-2,0.1-3,0c-1.1-0.3-2.3-0.4-3.2-1.2c-0.5-0.4-0.7-0.9-0.7-1.5
				c1.2,0.5,2.5,0.6,3.8,0.5c2.7-0.1,5.4-0.7,7.9-1.6C31.9,68.7,34,68.1,36,67.3z"/>
			<path class="st3" d="M54.5,155.2c0.3,0,0.5-0.1,0.8,0c0.2,0.2,0.3,0.4,0.4,0.7c0,0,0,0.1,0,0.2c-0.5,0.3-1,0.5-1.5,0.7
				c-0.6,0.2-1.2,0.4-1.6,0.9c1,0.1,2-0.2,3-0.3c1.4-0.1,2.7-0.3,4.1-0.4c1.8-0.1,3.5-0.3,5.3-0.4c3.5-0.3,7-0.5,10.5-0.7
				c3.2-0.2,6.3-0.2,9.5-0.3c1.9-0.1,3.8,0,5.7,0c3,0,6.1,0.1,9.1,0.1c6.3,0.2,12.6,0.4,18.9,0.8c2.7,0.2,5.3,0.6,8,0.9
				c1.4,0.2,2.9,0.4,4.2,0.9c2.5,1.2,4.9,2.4,7.4,3.7c2.5,1.2,4.9,2.4,7.3,3.9c0.9,0.6,1.9,1,2.8,1.6c1.2,0.7,2.3,1.4,3.4,2.2
				c1.6,1.2,3.3,2.4,4.7,3.8c1.8,1.7,3.5,3.4,4.7,5.6c0.5,0.9,1,1.8,1.3,2.8c0.4,1.5,0.7,3.1,0.6,4.7c-0.1,1.2,0,2.4-0.1,3.6
				c-0.1,1.3-0.3,2.5-0.4,3.7c-0.4,2.7-0.7,5.5-1.4,8.1c-0.7,3-1.5,6-2.4,8.9c-0.7,2.2-1.4,4.4-2.1,6.6c-0.8,2.5-1.7,5-2.7,7.4
				c-0.8,2.1-1.8,4.1-2.6,6.2c-1,2.6-2.1,5.3-3,7.9c-0.7,2.1-1.5,4.1-2.3,6.2c-0.8,2.2-1.7,4.4-2.8,6.6c-0.8,1.6-1.6,3.1-2.2,4.7
				c-0.7,1.8-1.4,3.6-2,5.4c-0.7,2.2-1.7,4.3-2.6,6.4c-0.7,1.7-1.7,3.3-2.7,4.9c-0.9,1.5-1.8,2.8-3,4.1c-1.3,1.5-2.9,2.9-4.4,4.2
				c-1.1,1-2.3,2-3.6,2.7c-1.7,1-3.7,1.6-5.7,1.9c-2.7,0.5-5.5,0.5-8.2,0.2c-1.1-0.1-2.2-0.5-3.2-0.9c-1.9-0.7-3.6-2-4.6-3.7
				c-0.6-1-1.3-1.9-1.8-2.9c-1.2-2.2-1.8-4.7-2.6-7c-0.4-1.5-1-2.9-1.8-4.2c-0.9-1.4-1.6-2.8-2.3-4.3c-1.2,2.3-2.3,4.7-3.7,7
				c-0.9,1.6-1.7,3.2-2.8,4.6c-0.9,1.2-1.7,2.5-2.7,3.7c-0.7,0.9-1.5,1.7-2.3,2.5c-0.6,0.6-1.2,1.3-2,1.7c-1.9,1.3-4.1,2.1-6.3,2.6
				c-1.4,0.4-2.9,0.1-4.3,0.3c-2,0.2-4,0.1-5.9-0.4c-1.9-0.6-3.9-1.2-5.6-2.2c-0.9-0.5-1.7-1.2-2.4-1.8c-1.9-1.6-4-3-5.8-4.8
				c-1.2-1.3-2.5-2.5-3.7-3.9c-0.8-0.9-1.6-1.8-2.3-2.8c-0.8-1.2-1.4-2.5-2-3.8c-0.9-2.3-1.6-4.7-2.1-7.1c-0.3-1.3-0.6-2.6-0.9-3.8
				c-0.6-2.4-1.3-4.7-2.1-7c-0.6-2.1-1.4-4.1-2.1-6.1c-0.7-2.3-1.7-4.5-2.6-6.8c-0.9-2.3-1.7-4.6-2.6-6.8c-1.1-2.5-1.9-5-2.7-7.6
				c-1.2-4-1.9-8.2-2.8-12.3c-0.5-2.5-0.8-5-0.9-7.5c0-3.3,0.3-6.6,1-9.8c0.4-2.5,1.2-5,2.1-7.4c1-2.5,1.9-5,3.2-7.3
				c0.5-1,1.2-2,1.7-3c0.4-0.8,0.9-1.5,1.4-2.2c0.6-0.8,1.2-1.6,1.9-2.3c1-1,1.8-2.2,3-3.1c0.7-0.5,1.3-1.1,1.9-1.7
				c0.8-0.7,1.7-1.3,2.5-1.9c1.1-0.7,2.2-1.6,3.3-2.2c0.9-0.6,1.9-1,2.9-1.5c1.4-0.6,2.7-1.3,4.1-1.8C52,156,53.2,155.4,54.5,155.2z
				"/>
		</g>
		<g>
			<g>
				<path class="st4" d="M95.1,44c0.7-0.1,1.4,0,2-0.1c1.4,0,2.7-0.1,4.1,0c0.6,0.1,1.2,0.1,1.8,0.1c0.6,0.1,1.2,0,1.8,0.2
					c2,0.1,3.7,1.1,5.5,1.7c1.1,0.4,2.1,1.1,3,1.7c1,0.7,2,1.3,3,2c1.6,1.3,3.1,2.8,4.2,4.5c0.8,1.1,1.1,2.5,1.5,3.8
					c0.8,2.7,1.2,5.5,1.6,8.2c0.5,2.8,0.5,5.6,0.5,8.5c0.1,0.7,0.1,1.5,0.1,2.2c0.1,0.4,0.1,0.8,0.1,1.3c0,0.7,0.1,1.4,0.1,2.1
					c0,0.8-0.1,1.7,0.1,2.5c0.3,1.1,0.2,2.3,0.1,3.4c0-0.1,0-0.3-0.1-0.4c-0.2,0.1-0.1,0.3-0.2,0.5c-0.5,2-1,4-1.4,6.1
					c-0.4,2.7-1.9,10.9-2.2,12.5c-0.1,0.9-0.3,1.9,0,2.8l0,0c-1.1,2.4-1.5,5.1-2.5,7.5c-1.1,2.7-2.2,5.4-3.7,8c-0.6,1-1.1,2-1.7,2.9
					c-0.4,0.6-0.9,1.1-1.2,1.8l0,0c-0.2-0.1-0.4,0.1-0.5,0.2c-0.7,0.6-1.5,1.1-2.3,1.6c-1.2,0.8-2.6,1.4-3.8,2.2
					c-0.9,0.5-1.7,1-2.7,1.3c0.9-0.5,1.1-1.6,1.5-2.5c0.9-2.3,1.6-4.6,2.3-7c0.4-1.5,0.7-3,0.9-4.6c0.2-1.7,0.1-3.5,0.5-5.2
					c0.1-0.3-0.2-0.6-0.1-1c0.2-0.6,0.4-1.1,0.5-1.6c0.1-0.3-0.1-0.5-0.2-0.8c0.1-0.4,0.3-0.8,0.3-1.2c0-0.3-0.5-0.5-0.7-0.2
					c-0.3,0.5-0.6,1-0.8,1.5c-1.1,3-1.4,6.2-1.9,9.4c-0.5,2.8-1,5.6-1.7,8.3c-0.2,1-0.6,2-0.9,3c-0.1,0.7-0.4,1.5-0.6,2.2
					c-0.8,0.4-1.7,0.7-2.6,1c-1.1,0.4-2.3,0.4-3.4,0.7c-0.9,0-1.7,0.2-2.6,0.1c-0.5-0.1-0.9-0.1-1.4-0.2c-0.1-1.3-0.7-2.4-1.2-3.6
					c-0.3-1-0.8-2-1.2-3c-0.6-1.5-1.4-3-2-4.5c-1.3-3.4-2.8-6.7-3.7-10.2c-0.2-0.6-0.7-1-1.1-1.5c-0.1-0.2-0.7-0.2-0.5,0.1
					c0.5,1.1,0.5,2.3,0.7,3.5c0.4,2.4,0.9,4.7,1.5,7c0.1,0.3,0.2,0.6,0.4,0.9c0.2,0.1,0.4,0.1,0.5,0.1c1.2,2.6,2.9,5,4,7.7
					c0.1,0.4,0.6,0.6,0.7,1c0.2,0.7,0.6,1.4,1,2.1c-1.6-0.2-3.2-0.9-4.7-1.5c-1.3-0.5-2.5-1.2-3.6-2c-1.2-0.9-2.5-1.9-3.6-2.9
					c-1-1-2.1-1.9-3.1-2.8c-1.5-1.6-2.8-3.3-4-5.1c-1.1-1.6-2.3-3.2-3.2-4.9c-0.5-0.9-1-1.9-1.4-2.8c-0.3-0.6-0.3-1.3-0.8-1.8
					c-0.3-0.4-0.3-0.9-0.7-1.2c0,0.1,0,0.2,0,0.3c-0.1-0.2-0.2-0.4-0.3-0.6c0.1-0.2,0.2-0.3,0.2-0.5c0.1-1.5-0.2-3-0.4-4.5
					c-0.5-2.9-1.1-5.9-1.5-8.8c-0.3-1.6-0.5-3.2-0.7-4.9c-0.1-0.8-0.1-1.6-0.3-2.3c0,0-0.1,0-0.1-0.1c0-0.7-0.1-1.5,0.2-2.2
					c0.3-0.3,0.3-0.8,0.4-1.3c0.1-0.7,0.1-1.4,0.4-2.1c0.9-2.2,1.4-4.4,1.9-6.7c0.8-3.3,1.2-6.7,2-10c0.7-3,1.3-6.1,2.8-8.9
					c1.1-2.3,2.9-4.3,5-5.8c0.5-0.6,1.2-1.1,1.8-1.5c1.3-0.8,2.6-1.7,4.1-2.3c2.3-1,4.7-1.8,7.1-2.3C90.5,44.6,92.8,44.2,95.1,44z"
					/>
				<path class="st5" d="M128,80.1c0.3-0.4,0.9-0.5,1.4-0.3c1.2,0.4,2.3,1,3.1,1.9c1.9,1.6,3.1,3.9,3.4,6.3c0.2,1.1,0.1,2.1,0.1,3.2
					c-0.2,2.5-1.3,4.7-2.7,6.7c-1.4,2-3.1,3.8-5,5.4c-2.1,1.7-4.5,2.9-7.1,3.8c-0.2,0.1-0.2,0.3-0.3,0.5c-0.2-0.9,0-1.8,0-2.8
					c0.2-1.5,0.5-3,0.8-4.5c0.4-2.7,0.9-5.3,1.4-8c0.3-2.1,0.8-4.1,1.4-6.1c0.1-0.2,0-0.4,0.2-0.5c0,0.1,0,0.3,0.1,0.4
					c0,0.3-0.1,0.6,0,0.8c0.3-1,0.8-1.9,1.2-2.8C126.5,82.7,127.3,81.4,128,80.1z"/>
				<path class="st5" d="M56.6,82.2c1.5-0.7,3.3,0,4.1,1.4c0.8,1.4,1,3.1,1.9,4.5c0,0,0.1,0,0.1,0.1c0.2,0.7,0.2,1.5,0.3,2.3
					c0.2,1.6,0.4,3.3,0.7,4.9c0.4,3,1,5.9,1.5,8.8c0.2,1.5,0.5,3,0.4,4.5c0,0.2-0.1,0.3-0.2,0.5c-0.1-0.2-0.2-0.4-0.4-0.6
					c-0.7,0-1.5,0-2.2,0c-1.1-0.2-2.1-0.5-3.1-0.9c-0.8-0.3-1.4-0.9-2-1.5c-0.9-0.9-1.7-1.9-2.3-3c-1-1.9-2.1-3.7-2.8-5.8
					c-0.6-1.4-0.8-2.9-1-4.3c-0.1-1-0.1-2,0-3c0.1-2.6,1-5.2,3-6.9C55.1,82.8,55.8,82.5,56.6,82.2z"/>
				<path class="st5" d="M75.7,94.8c1.2-0.2,2.5,0.1,3.6,0.6c1.7,0.6,3.1,2.2,3.5,4c0.4,1.2,0.1,2.6-0.3,3.8
					c-0.4,0.9-0.8,1.8-1.5,2.6c-0.9,0.8-2.1,1.3-3.2,1.4c-0.5,0-0.9,0-1.4,0c-0.2-0.3-0.5-0.6-0.8-0.6c-0.1,0.1-0.1,0.2-0.2,0.4
					l-0.1,0c-1.6-0.3-3-1.1-3.9-2.5c-0.8-1-1.1-2.3-0.9-3.6c0.2-1.8,1.1-3.7,2.6-4.8C73.8,95.6,74.7,95,75.7,94.8z"/>
				<path class="st5" d="M111.9,95.7c1-0.3,2.2-0.2,3.2,0.3c1.5,0.7,2.6,2,3.2,3.5c0.5,1.2,0.5,2.6,0.2,3.9
					c-0.4,1.7-1.4,3.3-2.8,4.4c-0.9,0.7-2,0.9-3.1,1.1c-0.2-0.1-0.5-0.1-0.7-0.1c-1.2-0.1-2.4-0.7-3.2-1.5c-1.2-1.2-2-3-1.9-4.7
					c0.1-1.6,0.8-3,1.8-4.2C109.3,97.2,110.5,96.2,111.9,95.7z"/>
				<path class="st6" d="M89.4,101.1c0.5-0.3,0.6,0.6,1.1,0.6c0.9-0.4,1.8,0.4,2.5,0.9c0.2,0.3,0.6-0.1,0.9,0.1
					c0.5,0.3,1,0.4,1.4,0.7c0.3,0.4,0.8-0.1,1.2,0.1c0.4,0.1,0.7-0.1,1-0.3c1-0.7,1.9-1.4,2.8-2.1c0.3-0.2,0.7-0.1,0.8,0.3
					c-0.3,0.6-0.8,0.9-1.2,1.4c-0.6,0.6-1,1.4-1.6,2c-0.7,0.8-1.6,1.5-2.5,2c-0.7,0.4-1.5,0.2-2.3,0.2c-1,0-1.8-0.7-2.4-1.4
					c-0.5-0.7-0.9-1.6-1.2-2.3C89.7,102.6,89.3,101.8,89.4,101.1z"/>
				<path class="st6" d="M75.4,106.6c0.4-0.1,0.6,0.3,0.8,0.6c1.2,2,1.7,4.2,2.5,6.4c0.3,1,0.7,1.9,0.9,2.9c0,0.7,0.3,1.4,0.5,2.1
					c0.1,0.6,0.3,1.2,0.3,1.8c-0.2,0.3-0.6,0.1-0.7-0.1c-0.7-1.2-0.9-2.7-1.4-4c-0.2-0.2-0.5-0.2-0.5-0.5c-0.5-1.7-1-3.4-1.5-5.1
					c-0.4-1.2-0.6-2.4-1-3.6C75.3,106.8,75.4,106.7,75.4,106.6z"/>
				<path class="st6" d="M107.4,108.9c0.2-0.3,0.7-0.1,0.7,0.2c-0.1,0.4-0.3,0.8-0.3,1.2c0.1,0.2,0.3,0.5,0.2,0.8
					c-0.1,0.6-0.4,1.1-0.5,1.6c-0.1,0.3,0.2,0.6,0.1,1c-0.4,1.7-0.3,3.5-0.5,5.2c-0.2,1.6-0.5,3.1-0.9,4.6c-0.6,2.4-1.3,4.7-2.3,7
					c-0.4,0.9-0.6,1.9-1.5,2.5c1-0.3,1.8-0.8,2.7-1.3c1.2-0.8,2.6-1.4,3.8-2.2c0.8-0.5,1.6-1,2.3-1.6c0.2-0.1,0.3-0.3,0.5-0.2
					c-0.2,0.5-0.2,1-0.2,1.5c-0.7,0.9-1.3,1.9-1.9,2.8c-0.6,0.9-1,1.9-1.5,2.9c-1.2,2.5-2.5,5-3.7,7.4c-1.3,2.4-2.5,4.9-3.9,7.3
					c-0.9,2-2.2,3.9-3.4,5.8c-0.8,1.1-1.5,2.4-2.5,3.2c-0.3,0.3-0.8,0.4-1.2,0.6c-0.5,0.2-0.9,0.5-1.3,0.7c-1.2,0.4-2.5,0.5-3.8,0.3
					c-2.4-0.4-4.6-1.5-6.5-3.1c-2.1-1.6-3.8-3.6-5.3-5.8c-1.3-1.7-2.4-3.7-3.4-5.6c-1.8-3.8-3.6-7.6-5.1-11.5
					c0.1-0.8,0.3-1.6,0.4-2.4c0.2-2,0-3.9,0-5.9c-0.2-2.8-0.5-5.5-1-8.2c-0.3-2-0.7-4-1.3-6c-0.2-0.7-0.5-1.3-0.7-2
					c0-0.1,0-0.2,0-0.3c0.4,0.3,0.4,0.9,0.7,1.2c0.4,0.5,0.5,1.2,0.8,1.8c0.4,1,0.9,1.9,1.4,2.8c0.9,1.7,2.1,3.3,3.2,4.9
					c1.2,1.8,2.5,3.5,4,5.1c1,1,2.1,1.9,3.1,2.8c1.1,1.1,2.4,2,3.6,2.9c1.1,0.8,2.3,1.4,3.6,2c1.5,0.6,3,1.3,4.7,1.5
					c-0.4-0.7-0.7-1.4-1-2.1c-0.1-0.4-0.6-0.6-0.7-1c-1.1-2.7-2.8-5.1-4-7.7c-0.2,0-0.4-0.1-0.5-0.1c-0.2-0.3-0.3-0.6-0.4-0.9
					c-0.6-2.3-1.1-4.7-1.5-7c-0.2-1.2-0.3-2.4-0.7-3.5c-0.2-0.3,0.4-0.4,0.5-0.1c0.4,0.5,0.9,0.9,1.1,1.5c0.9,3.5,2.3,6.8,3.7,10.2
					c0.6,1.5,1.4,3,2,4.5c0.4,1,0.9,1.9,1.2,3c0.4,1.2,1,2.3,1.2,3.6c0.4,0.1,0.9,0.1,1.4,0.2c0.9,0.1,1.7-0.1,2.6-0.1
					c1.1-0.2,2.3-0.3,3.4-0.7c0.9-0.3,1.8-0.5,2.6-1c0.3-0.7,0.5-1.4,0.6-2.2c0.3-1,0.6-2,0.9-3c0.7-2.8,1.2-5.5,1.7-8.3
					c0.6-3.1,0.9-6.4,1.9-9.4C106.9,109.9,107.1,109.4,107.4,108.9z"/>
				<path class="st6" d="M111.8,108.8c0.2,0,0.5,0,0.7,0.1c0.2,0.4-0.1,0.7,0,1.1c0,0.3-0.1,0.5-0.2,0.8c-0.4,1.2-0.6,2.5-0.9,3.7
					c-0.1,0.4-0.5,0.3-0.8,0.3c-0.2,0-0.3-0.2-0.4-0.4c0.1-0.8,0.5-1.5,0.5-2.3c0-0.7,0.4-1.3,0.6-2
					C111.4,109.6,111.5,109.2,111.8,108.8z"/>
				<path class="st4" d="M109.7,132c0.6-0.9,1.2-1.9,1.9-2.8c0.1,0.4,0.2,0.8,0.4,1.2c0,1.2,0.5,2.3,0.9,3.4c1,2.7,1.9,5.5,3.1,8.2
					c0.5,1.2,1,2.4,1.7,3.6c1.3,2.3,2.7,4.6,4.3,6.6c0.8,1.1,1.8,2.1,2.8,3.1c0.8,0.9,1.7,1.6,2.7,2.2c0.5,0.3,1,0.6,1.5,0.8
					c-0.2,0.6-0.6,1.1-0.9,1.6c-1.4,2-3.3,3.7-5.6,4.7c-2.4,1.1-4.8,2-7.4,2.6c-2.6,0.7-5.2,1.1-7.8,1.5c-2.8,0.3-5.5,0.7-8.3,1
					c-0.9,0.1-1.8,0.1-2.8,0.2c-1.3,0-2.6,0-3.8,0c-0.8-0.1-1.5-0.2-2.3-0.1c-1.1-0.1-2.2-0.2-3.3-0.3c-2.7-0.3-5.3-0.8-8-1.3
					c-2.6-0.5-5.3-1-7.9-1.8c-1.7-0.5-3.3-1.1-4.9-1.6c-2.3-0.7-4.4-1.7-6.5-2.8c-2.2-1.2-4.3-2.5-6.4-3.8c-0.5-0.4-1.1-0.7-1.4-1.3
					c0.9-0.2,1.5-0.8,2.2-1.3c2.1-1.5,3.9-3.4,5.5-5.4c0.9-0.9,1.7-1.9,2.5-3c3.1-3.8,5.3-8.2,6.4-12.9l0,0
					c1.5,3.9,3.3,7.7,5.1,11.5c1,1.9,2.1,3.9,3.4,5.6c1.5,2.1,3.2,4.2,5.3,5.8c1.8,1.6,4.1,2.7,6.5,3.1c1.3,0.2,2.6,0.1,3.8-0.3
					c0.5-0.2,0.9-0.5,1.3-0.7c0.4-0.2,0.8-0.3,1.2-0.6c1.1-0.9,1.8-2.1,2.5-3.2c1.2-1.9,2.5-3.8,3.4-5.8c1.3-2.4,2.6-4.9,3.9-7.3
					c1.2-2.5,2.5-5,3.7-7.4C108.7,133.9,109.1,132.9,109.7,132z"/>
			</g>
			<g>
				<path class="st7" d="M119.7,94.1c0.5-0.5,1.4-0.3,1.7,0.3c0.6,0.9,0.7,2.1,0.7,3.2c0.3-0.1,0.7-0.1,0.9,0.1
					c0.4,0.4,0.6,0.9,0.7,1.5c0.3,1.6,0.4,3.2,0.5,4.8c-0.1,3.1-0.5,6.2-0.9,9.3c-0.3,3.1-0.5,6.2-0.9,9.2c-0.2,1.4-0.5,2.8-0.9,4.1
					c-0.5,1.7-1.1,3.3-1.7,5c-0.9,2.1-1.8,4.1-2.7,6.2c-1.2,2.7-2.3,5.5-3.6,8.2c-0.2,0.4-0.3,0.8-0.4,1.2c-0.3,0.7-0.6,1.4-0.7,2.1
					c-0.2,1-0.1,2-0.1,3c-0.6-0.5-1.2-1.1-2-1.4c-0.8-0.2-1.7-0.3-2.5-0.2c-1.2,0.1-2.2,0.9-3,1.7c-1.4,1.5-2.2,3.3-2.9,5.2
					c-0.7,2.1-1.4,4.2-1.8,6.4c-0.6,2.9-1,5.8-1.4,8.8c-0.2,2.7-0.4,5.5-0.5,8.2c-0.1,1.6-0.2,3.2-0.2,4.8c-0.1,2.1-0.3,4.2-0.3,6.3
					c-0.1,3-0.2,6.1-0.2,9.1c0,3-0.1,6.1,0.1,9.1c0,1.5,0.1,3,0.2,4.5c0.1,2.2,0.2,4.4,0.6,6.6c-1,0.7-1.9,1.5-2.8,2.4
					c-0.2,0.3-0.5,0.1-0.7,0c0-0.5,0.1-1.1,0-1.6c-0.2-1.8,0-3.6,0-5.4c0-1.7,0-3.4,0-5.1c-0.2-3.5,0-7.1-0.1-10.7
					c0-0.7,0-1.4,0-2.1c-0.1-0.8,0.1-1.6,0.1-2.4c0.1-1.6,0-3.2,0.1-4.9c0-1.8,0-3.7-0.1-5.5c0-0.9,0-1.7-0.1-2.6
					c-0.1-1.7,0-3.4,0-5c0,3.4-0.3,6.8-0.5,10.2c-0.2,3.2-0.5,6.4-0.6,9.6c-0.1,2.2-0.3,4.4-0.4,6.6c-0.1,3.3-0.3,6.6-0.7,9.8
					c-0.2,3.2-0.5,6.5-0.7,9.7c0,0.1-0.1,0.2-0.2,0.3c-1.1-0.3-2-1-2.9-1.6c-1-0.6-1.9-1.3-3-1.8c-1.2-0.6-2.3-1.1-3.5-1.7
					c0.6-2.5,1-5.1,1.4-7.7c0.9-5.9,1.9-11.7,2.8-17.6c0.4-2.4,0.7-4.8,1-7.2c0.3-3.2,0.7-6.4,0.8-9.6c0.1-5.6-0.1-11.3-1.2-16.8
					c-0.3-1.5-0.7-3-1.3-4.4c-0.6-1.4-1.3-2.9-2.6-3.9c-0.7-0.5-1.4-1-2.2-1.1c-0.7-0.1-1.3,0.1-2,0.1c0-0.2,0-0.3,0-0.5
					c0.1-0.9,0.2-1.8,0.2-2.7c0-0.8-0.1-1.5-0.1-2.3c0-1.1-0.7-2-1.2-2.9c-1.2-2.5-3.2-4.4-5-6.5c-2.1-2.6-3.8-5.6-5.2-8.7
					c-0.8-1.9-1.2-3.8-1.8-5.8c-0.3-1.1-0.5-2.2-0.7-3.3c-0.8-3.6-1.1-7.2-1.3-10.8c0-0.9,0-1.7,0-2.6c0-1.1-0.1-2.2,0.2-3.3
					c0.1-0.3,0.2-0.7,0.5-0.8c0.4-0.1,0.8-0.4,1.2-0.2c0.4,0.2,0.6,0.7,0.8,1.1c-0.1-0.7,0-1.5,0.1-2.2c0.2-0.7,0.5-1.4,0.9-2
					c0.3-0.4,0.8-0.6,1.3-0.3c0.7,0.5,1,1.4,1.2,2.1c0.4,1.2,0.7,2.5,0.9,3.8c0.2,0.9,0.5,1.7,0.6,2.6c-0.2-1,0-2,0.4-2.9
					c0.3-0.5,0.8-0.9,1.4-0.9c0.6,0.1,0.9,0.5,1.2,1c0.6,1.1,0.9,2.3,1.2,3.5c0.6,2.3,1.3,4.6,2,6.8c0.4,1.1,1,2.2,1.4,3.3
					c0.5,1.2,1,2.3,1.5,3.5c-0.1-0.9-0.2-1.8-0.4-2.6c-0.2-0.8-0.3-1.6-0.3-2.4c0-1.5,0-3.1,0.5-4.6c0.1-0.5,0.7-0.8,1.1-0.5
					c0.5,0.4,0.7,1.1,0.8,1.6c0.4,1.9,0.5,3.9,1,5.8c0.3,1.1,0.6,2.3,1,3.4c0.7,1.6,1.2,3.4,2,4.9c1.5,2.7,3.1,5.4,4.6,8.1
					c1.1,1.9,2,4,2.8,6.1c0.7,1.9,1.3,3.8,1.6,5.8c0.2-1.2,0.6-2.3,1.1-3.4c1-2.2,2.5-4.1,3.8-6.1c0.6-0.8,1.1-1.7,1.6-2.5
					c1.4-2.1,2.6-4.3,3.1-6.8c0.2-1,0.5-1.9,0.7-2.8c0.1-1.2,0.4-2.5,0.5-3.7c0.2-1.8,0.6-3.5,0.8-5.3c0.3-2.1,0-4.3,0.3-6.4
					c0.1-0.5,0.3-1,0.7-1.4c0.4-0.4,1.1-0.4,1.4,0c0.6,0.6,0.8,1.4,1,2.2c0.7,2.1,0.6,4.4,0.9,6.6c0.2-1.8,0.7-3.4,1-5.2
					c0.2-1.3,0.4-2.7,0.7-4c0.5-1.9,0.6-3.9,0.8-5.9c0.1-1.4,0.3-2.9,1.1-4c0.3-0.5,1.2-0.6,1.6-0.1c0.4,0.4,0.5,1,0.6,1.6
					c0.4,2.1,0.3,4.2,0.3,6.3c0.3-2.6,0.4-5.2,0.9-7.8C118.4,96.1,118.7,94.9,119.7,94.1z"/>
				<path class="st8" d="M104.8,152.4c0.8-0.8,1.8-1.6,3-1.7c0.8-0.1,1.7-0.1,2.5,0.2c0.8,0.2,1.4,0.9,2,1.4
					c0.3,3.4,0.8,6.8,1.4,10.1c0.3,2.2,0.9,4.4,1.2,6.6c0.5,3.1,1.1,6.1,1.7,9.1c0.5,2.9,1.3,5.8,1.9,8.8c1.1,5.8,2.7,11.6,3.8,17.4
					c0.5,2.6,1.1,5.3,1.6,7.9c0.3,1.4,0.7,2.9,0.7,4.3c0.2,0.9,0.5,1.8,0.5,2.7c0,0.2-0.1,0.4-0.2,0.6c-0.2,0-0.5,0-0.7-0.1
					c-2.2-0.9-4.4-1.8-6.8-2.2c-3.5-0.5-7.2-0.5-10.7,0.4c-1,0.3-2.1,0.6-3.1,0.9c-1.9,0.6-3.6,1.6-5.2,2.7
					c-0.4-2.2-0.4-4.4-0.6-6.6c-0.1-1.5-0.2-3-0.2-4.5c-0.2-3-0.1-6.1-0.1-9.1c0.1-3,0.1-6.1,0.2-9.1c0-2.1,0.2-4.2,0.3-6.3
					c0-1.6,0.2-3.2,0.2-4.8c0.1-2.8,0.3-5.5,0.5-8.2c0.4-2.9,0.8-5.9,1.4-8.8c0.4-2.2,1.1-4.3,1.8-6.4
					C102.5,155.7,103.4,153.8,104.8,152.4z"/>
				<path class="st8" d="M77.3,158.1c0.5-2.3,1.1-4.6,1.4-7c0,0.2,0,0.3,0,0.5c0.7-0.1,1.3-0.2,2-0.1c0.8,0.1,1.6,0.6,2.2,1.1
					c1.2,1,1.9,2.5,2.6,3.9c0.6,1.4,1,2.9,1.3,4.4c1.1,5.5,1.3,11.2,1.2,16.8c-0.1,3.2-0.5,6.4-0.8,9.6c-0.2,2.4-0.6,4.8-1,7.2
					c-0.9,5.9-1.9,11.7-2.8,17.6c-0.4,2.6-0.8,5.1-1.4,7.7c-1.4-0.6-3-1-4.5-1.4c-1-0.2-2.1-0.5-3.1-0.6c-1,0-2-0.1-2.9,0
					c-1.6-0.1-3.1,0.2-4.6,0.5c-2.2,0.4-4.3,1.2-6.3,2.1c-0.4,0.2-0.8,0-1.2-0.1c0.1,0,0.3-0.1,0.4-0.1c0.3-0.8,0.4-1.6,0.6-2.4
					c0.1-0.5,0.2-0.9,0.2-1.4c0-0.6,0.3-1.2,0.5-1.8c0.9-3,1.9-5.9,2.7-8.9c0.6-2.4,1.3-4.7,2-7.1c0.7-2.7,1.5-5.3,2.1-7.9
					c0.8-3.2,1.6-6.3,2.6-9.4c0.6-2.1,1.1-4.2,1.8-6.3c0.9-2.8,1.6-5.7,2.5-8.5c0.4-1.1,0.7-2.2,1-3.3
					C76.3,161.5,76.9,159.8,77.3,158.1z"/>
			</g>
		</g>
		<g>
			<path class="st9" d="M74.3,23.9c1.8-0.5,3.7-0.9,5.6-0.9c-0.3,0.3-0.8,0.2-1.2,0.3c-2.4,0.4-4.8,1.1-7,2c-1.8,0.7-3.3,1.8-4.9,3
				c-1.5,1.2-2.8,2.6-4.4,3.6c0.2-0.4,0.6-0.7,0.9-1.1c0.6-0.6,1.2-1.2,1.8-1.8c1.3-1.4,2.9-2.5,4.5-3.4
				C71.1,24.9,72.7,24.3,74.3,23.9z"/>
			<path class="st10" d="M99.2,37.2c0.1,0,0.2,0,0.3,0c0,0.2,0,0.5,0,0.7c-0.1,0-0.3,0-0.4,0C99.1,37.7,99.2,37.5,99.2,37.2z"/>
			<path class="st11" d="M102.5,37.1c0.7,0.1,1,0.9,1.2,1.5c-0.2,0-0.4-0.1-0.5-0.2C103.1,38,102.6,37.6,102.5,37.1z"/>
			<path class="st12" d="M106.4,37.2c0.6-0.1,1.1,0.4,1.3,0.9c0.3,0.5,0.5,1.1,0.7,1.7c-0.1,0-0.3-0.1-0.4-0.1
				c-0.1-0.1-0.1-0.3-0.2-0.4c-0.4-0.7-0.6-1.5-1.4-1.9C106.4,37.4,106.4,37.3,106.4,37.2z"/>
			<path class="st13" d="M95.9,37.9c0.1-0.3,0.3-0.5,0.7-0.5c0,0.1,0,0.3,0,0.5C96.3,37.9,96.1,37.9,95.9,37.9z"/>
			<path class="st14" d="M92,37.5c0.1,0,0.3,0,0.4,0c-0.1,0.4-0.3,0.6-0.5,0.9c-0.1,0.1-0.1,0.2-0.2,0.3c-0.2,0-0.3-0.1-0.4-0.1
				C91.4,38.2,91.7,37.8,92,37.5z"/>
			<path class="st15" d="M95.9,37.9c0.2,0,0.5,0,0.7-0.1c0.9,0.1,1.7,0,2.6,0.1c0.1,0,0.3,0,0.4,0c1.2,0.1,2.4,0.4,3.7,0.5
				c0.2,0.1,0.3,0.1,0.5,0.2c1.4,0.3,2.8,0.7,4.1,1.1c0-0.1,0-0.3,0-0.4c0.1,0.1,0.1,0.3,0.2,0.4c0,0.1,0,0.2,0.1,0.3
				c-1.4-0.3-2.8-0.7-4.2-1c-0.2,0-0.3-0.1-0.5-0.1c-1.3-0.2-2.6-0.4-3.9-0.5c-0.1,0-0.3,0-0.4,0c-1-0.1-1.9,0-2.9-0.1
				c-0.2,0-0.3,0-0.5,0c-1.4,0.1-2.8,0.3-4.2,0.7c0-0.1,0.1-0.2,0.1-0.3c0-0.1,0.1-0.2,0.2-0.3c0.2,0.1,0.5,0,0.8,0
				C93.7,38.1,94.8,38,95.9,37.9z"/>
			<path class="st16" d="M95.7,38.3c0.2,0,0.3,0,0.5,0c-0.3,1-0.5,2-0.7,3c-0.1,0.1-0.1,0.2-0.2,0.3c0-0.3,0-0.5-0.1-0.8
				C95.3,39.9,95.5,39.1,95.7,38.3z"/>
			<path class="st17" d="M99.2,38.4c0.1,0,0.3,0,0.4,0c0,1.1,0,2.1-0.1,3.2c-0.1,0-0.2,0.1-0.2,0.1C99.2,40.6,99.2,39.5,99.2,38.4z"
				/>
			<path class="st18" d="M91,39.2c0-0.2,0.1-0.4,0.3-0.6c0.1,0,0.3,0.1,0.4,0.1c0,0.1-0.1,0.2-0.1,0.3C91.4,39.1,91.2,39.1,91,39.2z
				"/>
			<path class="st19" d="M111.3,38.5c0.7,0.4,0.9,1.2,1.2,1.9c0.5,1.6,0.7,3.2,0.8,4.9c0.1,0.4,0.1,0.8,0,1.2
				c-0.1,0.2,0,0.4-0.2,0.5c0.1-1.6-0.2-3.3-0.5-4.9c-0.3-1.1-0.6-2.3-1.2-3.3C111.3,38.7,111.3,38.6,111.3,38.5z"/>
			<path class="st20" d="M87.4,39.5c0.2-0.3,0.5-0.7,0.9-0.7c0,0.1,0,0.2,0,0.3c-0.6,0.5-0.9,1.2-1.2,1.9c-0.4,0.8-0.6,1.6-0.8,2.5
				l-0.2,0.1C86.2,42.1,86.7,40.7,87.4,39.5z"/>
			<path class="st21" d="M91,39.2c0.2,0,0.4-0.1,0.6-0.1c-0.4,1.1-0.7,2.2-0.8,3.3c0,0.2,0.1,0.5,0.1,0.7c0,0.1,0.1,0.2,0.1,0.2
				c-0.1,0-0.2,0-0.3,0.1c-0.2-0.4-0.3-0.8-0.3-1.2C90.5,41.1,90.7,40.1,91,39.2z"/>
			<path class="st22" d="M103.4,39c0.2,0,0.3,0.1,0.5,0.1c0.2,0.9,0.3,1.8,0.3,2.7c-0.1,0-0.2-0.1-0.3-0.1
				C103.8,40.8,103.7,39.9,103.4,39z"/>
			<path class="st23" d="M108,39.8c0.1,0,0.3,0.1,0.4,0.1c0,0,0,0.1,0,0.1c0,0.1,0.1,0.2,0.1,0.3c-0.1,0-0.5-0.1-0.5-0.1
				S108,39.8,108,39.8z"/>
			<path class="st24" d="M108.4,39.9c1,0.2,1.9,0.6,2.8,1c0.3,0.1,0.7,0.2,0.9,0.5c-0.6,0-1.1-0.3-1.6-0.5c-0.7-0.2-1.3-0.6-2-0.6
				C108.6,40.3,108.5,40,108.4,39.9z"/>
			<path class="st25" d="M108.1,40.1c0.1,0,0.3,0,0.4,0.1c0,0,0,0.1,0,0.2c0.2,0.6,0.2,1.2,0.3,1.8c-0.1,0-0.2,0-0.3,0
				C108.5,41.5,108.3,40.8,108.1,40.1z"/>
			<path class="st26" d="M82.1,40.4c0.1-0.1,0.4-0.1,0.5-0.1c-0.2,0.4-0.6,0.6-0.8,1c-0.9,1.5-1.5,3.1-1.7,4.8c-0.1,0-0.2,0-0.3,0
				c0.1-0.4,0.1-0.9,0.2-1.3c0.2-0.9,0.5-1.8,0.9-2.7C81.2,41.5,81.6,40.9,82.1,40.4z"/>
			<path class="st27" d="M95.2,42.3c0-0.5-0.1-1,0.1-1.5c0,0.3,0,0.5,0.1,0.8c0.1-0.1,0.1-0.2,0.2-0.3c0,0.3,0,0.7,0,1
				C95.4,42.3,95.3,42.3,95.2,42.3z"/>
			<path class="st28" d="M115.5,41c0.5-0.2,0.8,0.3,1,0.7c0.5,1,0.6,2.1,0.7,3.1c0,1.3,0,2.7-0.4,3.9c-0.1,0-0.2,0-0.3,0
				c0,0,0.1-0.1,0.2-0.1c0.4-1.7,0.3-3.5,0-5.2C116.3,42.5,116,41.7,115.5,41z"/>
			<path class="st29" d="M76.3,42.5c0.1,0,0.2,0,0.3,0c-0.7,0.9-1,2.1-1.4,3.2c-0.2,0.7-0.4,1.5-0.4,2.2c-0.1,0-0.2,0-0.3,0
				c0.1-1.6,0.4-3.1,1.1-4.5C75.9,43.1,76.1,42.8,76.3,42.5z"/>
			<path class="st30" d="M120.6,44.6c0.1,0,0.3,0,0.3,0c0.6,1.5,0.4,3.1,0.2,4.6c-0.2,1.2-0.4,2.5-1,3.6c-0.1,0-0.2,0-0.2,0
				c0.1-0.3,0.2-0.6,0.4-1c0.5-2.1,0.7-4.2,0.5-6.3C120.8,45.2,120.7,44.9,120.6,44.6z"/>
			<path class="st31" d="M71,46.8c0.1-0.2,0.3-0.1,0.4-0.2c-0.3,0.5-0.6,1.1-0.7,1.8c-0.3,1.4-0.4,2.9-0.1,4.4
				c-0.1-0.1-0.2-0.2-0.3-0.4c-0.3-1.1-0.2-2.2-0.1-3.3C70.4,48.3,70.5,47.5,71,46.8z"/>
			<path class="st32" d="M51.8,50.3c1.4-1,2.7-2,4.1-3c0,0.1,0,0.2,0,0.3c-1.7,1.3-3.4,2.7-5.1,4c-1.4,1.1-2.9,2.1-4.5,2.9
				c-1.4,0.7-2.9,1.4-4.4,1.7c-1.1,0.3-2.2,0.4-3.3,0.7c0.2-0.1,0.4-0.2,0.6-0.2c1.7-0.4,3.3-0.8,4.9-1.6c0.9-0.4,1.8-0.8,2.7-1.3
				C48.5,52.8,50.1,51.5,51.8,50.3z"/>
			<path class="st33" d="M124.1,51.2c0-0.1,0.1-0.2,0.2-0.2c0.3,0.3,0.3,0.8,0.3,1.2c0,1-0.3,1.9-0.5,2.8c-0.2,0.7-0.4,1.5-0.7,2.2
				c-0.1,0.2-0.2,0.5-0.4,0.7c-0.1,0-0.2,0-0.3,0c0.5-0.9,0.8-2,1-3C124.1,53.6,124.3,52.4,124.1,51.2z"/>
			<path class="st34" d="M65.7,53.7c0-0.2,0.2-0.2,0.3-0.3c0,0.7-0.1,1.5,0,2.2c0.3,1.2,0.7,2.4,1.4,3.5c0.1,0.1,0.1,0.3,0.1,0.4
				c-0.8-0.9-1.3-2.1-1.7-3.3C65.6,55.3,65.5,54.5,65.7,53.7z"/>
			<path class="st35" d="M126.7,58.1c0.1,0,0.3,0,0.4,0c0.1,1.2-0.2,2.3-0.6,3.4c-0.4,1.2-0.8,2.4-1.6,3.4c-0.1,0-0.2,0-0.3,0
				c0.6-0.8,0.9-1.7,1.3-2.6C126.3,60.9,126.7,59.5,126.7,58.1z"/>
			<path class="st36" d="M63.8,59.2c0.1,0,0.2,0,0.3,0c-0.2,0.5-0.2,1.1-0.1,1.6c0.2,1.1,0.6,2.2,1,3.2c0.2,0.4,0.4,0.8,0.5,1.2
				c-0.1,0-0.2-0.1-0.2-0.1c-0.6-1-1.2-2.2-1.5-3.4C63.5,60.9,63.5,60,63.8,59.2z"/>
			<path class="st13" d="M128.4,64.9c0.1,0,0.2,0,0.3,0.1c0.1,1.2-0.4,2.4-0.8,3.5c-0.7,1.5-1.6,3-2.7,4.3c-0.1,0-0.2,0-0.3,0
				C126.6,70.3,128,67.7,128.4,64.9z"/>
			<path class="st37" d="M104.8,66.4c2-0.5,4-0.6,6-0.3c0,0.1,0,0.2,0,0.2c-0.8,0-1.6,0-2.4,0c-1.9,0.1-3.7,0.5-5.4,1.2
				c-0.1,0-0.2-0.1-0.3-0.1C103.3,66.9,104,66.5,104.8,66.4z"/>
			<path class="st38" d="M61.4,67.2c0.1,0,0.2,0,0.3-0.1c-0.1,0.9,0.2,1.8,0.5,2.7c0.6,1.6,1.4,3.2,2.4,4.5c-0.1,0-0.2,0-0.3,0
				c-0.9-1.1-1.6-2.5-2.2-3.8C61.6,69.5,61.2,68.4,61.4,67.2z"/>
			<path class="st37" d="M79.5,68c2.2-0.2,4.6,0,6.5,1.2c0,0.1,0,0.2-0.1,0.3c-2.5-1.4-5.4-1.2-8.1-0.8c0-0.1,0-0.3,0.2-0.4
				C78.5,68.2,79,68.1,79.5,68z"/>
			<path class="st1" d="M108.7,71.9c1.9-0.2,3.9-0.1,5.8,0.5c1.3,0.4,2.5,1.1,3.6,1.9c0.7,0.6,1.3,1.4,1.7,2.2
				c0.3,0.6,0.7,1.1,0.8,1.7l0.1,0c0,0.1,0,0.3,0,0.4c-0.6-0.2-1.3-0.3-1.9-0.6c-2.1-0.7-4.3-1.2-6.5-1.1c-2,0.2-4,0.6-5.9,1.2
				c-1.3,0.3-2.7,0.7-4,0.2c-0.5-0.1-0.7-0.6-0.8-1c-0.2-1,0.3-2,0.9-2.7c0.5-0.5,1.1-0.9,1.7-1.3C105.5,72.6,107.1,72,108.7,71.9z"
				/>
			<path class="st1" d="M74.7,73.9c3.7-1.9,8.2-1.6,11.9,0.2c0.6,0.3,1.1,0.8,1.7,1.2c0.6,0.4,1.1,1.1,1.4,1.7
				c0.3,0.7,0.3,1.7-0.3,2.3c-0.6,0.6-1.5,0.8-2.3,0.6c-0.7-0.2-1.4-0.6-2.1-0.8c-1-0.2-1.9-0.6-2.8-0.8c-1.4-0.3-2.8-0.6-4.3-0.7
				c-1.5-0.1-3-0.1-4.5,0c-1.2,0.1-2.4,0.5-3.6,0.5c0-0.2,0-0.5,0.2-0.6c0.7-0.9,1.5-1.7,2.4-2.4C73.2,74.6,73.9,74.3,74.7,73.9z"/>
			<path class="st39" d="M129,72.7c0.1,0,0.3,0,0.4,0c0,1-0.7,1.9-1.3,2.8c-0.6,0.9-1.3,1.8-2.1,2.5c-0.1,0.1-0.3,0.2-0.4,0.1
				c0,0,0,0.1,0,0.2c0-0.1-0.1-0.2-0.1-0.3c1.1-0.8,1.8-2,2.5-3.1C128.4,74.2,128.8,73.5,129,72.7z"/>
			<path class="st40" d="M78.8,84.1c0.3-0.2,0.8,0,0.9,0.4c0.3,0.8,0.3,1.8,0.1,2.6c-0.1,0.4-0.2,0.8-0.6,1
				c-0.4,0.1-0.8-0.1-0.9-0.5c-0.4-1-0.2-2.1,0-3.1C78.4,84.3,78.6,84.2,78.8,84.1z"/>
			<path class="st40" d="M110.4,84.8c0.3-0.2,0.9-0.1,1.1,0.2c0.3,0.4,0.2,0.9,0.2,1.4c0,0.6-0.1,1.2-0.4,1.7
				c-0.3,0.4-1.1,0.6-1.5,0.1c-0.3-0.5-0.3-1.2-0.2-1.8C109.8,85.8,109.9,85.2,110.4,84.8z"/>
			<path class="st41" d="M128.4,86.3c0.2,0,0.4-0.1,0.6,0c0.5,0.5,0.9,1.1,1,1.8c0.1,1.6-0.4,3.1-1,4.6c-0.6,1.5-1.2,3.1-2.5,4.3
				c-0.1,0-0.2,0-0.3,0c0.2-0.4,0.6-0.8,0.8-1.2c0.7-1.3,1.3-2.8,1.7-4.2c0.3-1.3,0.7-2.6,0.2-3.9C128.9,87.2,128.4,86.8,128.4,86.3
				z"/>
			<path class="st42" d="M57.5,89.2c0.3-0.5,0.6-1.2,1.3-1.2c0,0.5-0.5,0.8-0.7,1.2c-0.7,1.4-0.6,3.1-0.3,4.7
				c0.5,2.2,1.2,4.3,2.4,6.2c0.1,0.2,0.2,0.4,0.2,0.6c-0.1,0-0.2-0.1-0.3-0.2c-1.4-1.9-2.2-4.2-2.7-6.5
				C56.9,92.4,56.8,90.7,57.5,89.2z"/>
			<path class="st43" d="M95.8,88.6c0.1,0,0.2,0,0.2,0c0.1,2.7,0,5.3,0.4,8c-0.1,0-0.2,0.1-0.2,0.2c-0.4-1-0.4-2.2-0.6-3.3
				C95.5,91.9,95.5,90.2,95.8,88.6z"/>
			<path class="st44" d="M76.7,89.6c0.9,0.3,1.7,0.5,2.6,0.5c0.5,0,0.9-0.2,1.4-0.3c0,0.1,0,0.2-0.1,0.3c-0.8,0.4-1.7,0.4-2.6,0.3
				c-0.5,0-0.9-0.2-1.4-0.4C76.7,89.9,76.7,89.8,76.7,89.6z"/>
			<path class="st45" d="M108.2,89.9c1.4,0.3,2.9,0.3,4.2-0.2c0,0.1,0,0.2,0,0.3c-0.7,0.4-1.5,0.5-2.3,0.6c-0.7,0-1.4,0.1-2-0.3
				C108.2,90.2,108.2,90,108.2,89.9z"/>
			<path class="st46" d="M106.2,91.8c0.2,0,0.3,0,0.5,0c1.8,0.4,3.6,1,5.5,0.5c0.2-0.1,0.4-0.1,0.4,0.2c-0.3,0.2-0.6,0.3-1,0.4
				c-1.1,0.2-2.2,0.1-3.3-0.1c-0.7-0.1-1.5-0.3-2-0.7C106.3,92.1,106.3,91.9,106.2,91.8z"/>
			<path class="st47" d="M119.6,94c0.4-0.2,0.9-0.3,1.3-0.1c0.3,0.2,0.6,0.3,0.7,0.7c0.4,0.9,0.5,1.9,0.5,2.9c0,0.1-0.1,0.2-0.1,0.2
				c0-0.1-0.1-0.2-0.1-0.2c0.1-0.9-0.1-1.8-0.5-2.6c-0.2-0.7-1.3-0.7-1.8-0.2c-0.8,0.8-1,2-1.2,3.1c-0.2,1.6-0.3,3.1-0.6,4.7
				c-0.1-0.7,0.1-1.4,0.1-2.1c0-0.8,0.2-1.6,0.3-2.4c0-0.7,0.3-1.3,0.4-2C118.7,95.2,118.9,94.4,119.6,94z"/>
			<path class="st48" d="M114.6,97.6c0.3-0.4,0.7-0.7,1.2-0.8c0.3,0.1,0.5,0.3,0.7,0.5c0.3,0.2,0.3,0.7,0.4,1
				c-0.3-0.5-0.6-1-1.2-1.1c-0.5,0.1-0.7,0.5-1,0.9c-0.8,1.4-0.9,3-1.1,4.6c-0.3,1.5-0.3,3-0.6,4.5c-0.3,2.1-0.7,4.3-1.2,6.4
				c-0.1,0.5-0.2,1.1-0.5,1.6c0.3-3.1,1-6.2,1.4-9.3c0.2-1.7,0.4-3.4,0.7-5.1C113.7,99.7,113.9,98.5,114.6,97.6z"/>
			<path class="st49" d="M122.3,97.5c0.5-0.1,0.9,0.2,1.1,0.6c0.9,1.8,0.7,3.8,0.8,5.8c-0.1-1.5-0.3-3-0.7-4.5
				C123.2,98.6,122.9,97.9,122.3,97.5z"/>
			<path class="st50" d="M67.7,97.7c0.6-0.3,1.3-0.2,1.7,0.3c0.5,0.6,0.7,1.3,0.9,2c0.3,1.1,0.5,2.3,0.7,3.5
				c-0.1,0.7,0.1,1.5,0.5,2.2c0,0.1,0,0.3,0,0.4c-0.7-0.8-0.8-2-1-3.1c-0.3-1.4-0.5-2.7-1.1-4c-0.2-0.5-0.7-1-1.3-0.9
				c-0.6,0.2-0.9,0.9-1.2,1.4c-0.1,0-0.2,0-0.3,0C66.8,98.8,67.1,98.1,67.7,97.7z"/>
			<path class="st51" d="M121.8,97.5c0,0.1,0.1,0.2,0.1,0.2c0,0.1,0.1,0.2,0.1,0.2c0.2,2,0.2,4,0.2,6c-0.1,1.5-0.1,3-0.3,4.5
				c-0.2,2.2-0.7,4.3-1.1,6.5c0-0.3-0.1-0.5-0.1-0.7c0-0.5,0.1-0.9,0.1-1.4c0.2-1.6,0.4-3.2,0.6-4.8c0.2-2.9,0.3-5.7,0.3-8.6
				C121.7,98.8,121.7,98.2,121.8,97.5z"/>
			<path class="st52" d="M102.2,100.6c0.4-0.4,0.9-0.8,1.3-1.3c-0.1,0.5-0.3,1-0.6,1.3c-0.4,0.5-1,0.6-1.5,1
				c-0.6,0.4-1.2,0.8-1.8,1.3c-0.5,0.4-1,0.7-1.7,0.8c-0.8,0.1-1.5,0.3-2.3,0.1c-1.3-0.1-2.5-0.6-3.7-1.1c-0.7-0.3-1.5-0.6-2.1-1.1
				c-0.4-0.3-1-0.2-1.5-0.4c-0.5-0.2-0.9-0.6-1.1-1.1c0.5,0.5,1.3,0.6,2,0.8c0.7,0,1.3,0.4,2,0.6c1.7,0.7,3.5,1.6,5.4,1.5
				c0.6-0.1,1.2-0.1,1.7-0.3C99.6,102.1,100.8,101.2,102.2,100.6z"/>
			<path class="st53" d="M66.7,100.2c0.1,0,0.2,0,0.3,0c0,1.7,0,3.3,0,5c0.1,2.9,0.6,5.8,1.1,8.6c0.1,0.4,0.2,0.7,0.2,1.1
				c0,0.3-0.1,0.6-0.1,0.9c-0.7-3-1.5-6.1-1.7-9.2C66.4,104.4,66.5,102.3,66.7,100.2z"/>
			<path class="st54" d="M64.2,101.5c-0.1-0.5,0.4-0.7,0.8-0.6c0.6,0,0.9,0.4,1.2,0.9c-0.3-0.2-0.6-0.4-0.9-0.5
				C64.9,101.3,64.6,101.4,64.2,101.5z"/>
			<path class="st55" d="M116.8,103c0-0.6,0-1.3,0.2-1.8c0.2,0.7,0.3,1.5,0.2,2.3c-0.1-0.2-0.1-0.4-0.2-0.6
				C117,102.8,116.9,102.9,116.8,103z"/>
			<path class="st56" d="M72.3,103c0.4-0.3,0.9-0.6,1.4-0.6c0.5,0.1,0.9,0.6,1.1,1.1c0.5,1.1,0.7,2.3,1,3.5c0.5,2.1,1.2,4.2,1.8,6.3
				c0.6,2.1,1.6,4.1,2.2,6.2c-0.5-0.8-0.8-1.6-1.3-2.4c-0.7-1.2-1.2-2.4-1.5-3.7c-0.4-1.2-0.8-2.4-1.1-3.6c-0.2-1-0.5-1.9-0.7-2.9
				c-0.3-1.1-0.5-2.2-0.9-3.2c-0.2-0.4-0.4-0.6-0.8-0.8c-0.6,0.1-1.4,0.4-1.5,1.2c-0.1,1-0.1,2.1-0.1,3.2c-0.2-1,0-1.9-0.2-2.9
				C71.8,103.8,71.9,103.3,72.3,103z"/>
			<path class="st57" d="M116.8,103c0.1-0.1,0.2-0.2,0.2-0.2c0.1,0.2,0.1,0.4,0.2,0.6c0.1,1.2,0.1,2.5,0.1,3.7
				c0,2.2-0.4,4.4-0.8,6.5c-0.1,0.2-0.1,0.5-0.2,0.7c0.1-0.4,0-0.9,0-1.3c0.1-1.7,0.3-3.3,0.4-4.9
				C116.8,106.3,116.8,104.6,116.8,103z"/>
			<path class="st58" d="M71.7,104.2c0.3,0.9,0,1.9,0.2,2.9c0.1,1.1,0.2,2.1,0.5,3.2c0.1,0.6,0.1,1.2,0.2,1.8c0,0.6,0.2,1.3,0.2,1.9
				c0,0.1,0,0.2,0.1,0.3c-0.1,0.5,0,1,0.1,1.4c0.4,2.5,1,4.9,1.7,7.4c0.1,0.5,0.3,0.9,0.3,1.4c-0.1-0.1-0.2-0.3-0.2-0.4
				c-0.5-1.7-1.3-3.3-1.7-5.1c-0.4-1.9-0.6-3.8-0.8-5.7c0-1.7-0.5-3.3-0.6-5c-0.1-0.7,0-1.4,0-2.2c0-0.1,0-0.3,0-0.4
				C71.6,105.1,71.7,104.6,71.7,104.2L71.7,104.2z"/>
			<path class="st59" d="M96.3,104.4c0.1,0,0.2,0,0.4,0c0.1,0.6-0.1,1.1-0.2,1.7c-0.1,0.5-0.2,1.1-0.3,1.6c-0.1,0-0.2,0-0.3,0
				C96,106.7,95.9,105.5,96.3,104.4z"/>
			<path class="st60" d="M94.8,105.4c0-0.3-0.1-0.9,0.4-0.9c0.3,0.5,0.1,1.1,0,1.6c-0.1,0.6-0.2,1.2-0.4,1.7c-0.1,0-0.2,0-0.2,0
				C94.5,107.1,94.7,106.2,94.8,105.4z"/>
			<path class="st61" d="M107.9,107.6c0.6-0.1,1.2,0,1.6,0.5c0.8,1.3,1,2.8,1.3,4.3c0.2,1.1,0.2,2.1,0.2,3.2
				c-0.1-0.3-0.2-0.5-0.2-0.8c0,0,0.1-0.1,0.2-0.2c0-1-0.4-2-0.6-3c-0.3-1.1-0.6-2.2-1.1-3.2c-0.2-0.3-0.5-0.5-0.8-0.4
				c-0.5,0.2-0.7,0.8-0.8,1.3c-0.4,2-0.2,4-0.4,6.1c-0.2,1.7-0.2,3.4-0.5,5.1c-0.3,2.4-0.8,4.7-1.5,7c-0.7,2.6-2,5-3.5,7.2
				c-1.3,2-2.8,3.9-4,5.9c-0.6,0.9-1.3,1.8-1.6,2.9c-0.3,0.8-0.4,1.6-0.7,2.4c0.1-1.3,0.4-2.7,1.1-3.8c2.2-4.1,5.4-7.6,7.3-11.8
				c1-2.2,1.6-4.7,2.1-7.1c0.4-2,0.7-3.9,0.8-5.9c0-1,0.2-2,0.2-3c0-1.8-0.1-3.5,0.3-5.3C107.2,108.5,107.4,107.9,107.9,107.6z"/>
			<path class="st62" d="M83.5,108.5c1.6-0.2,3.3,0,5-0.1c2.4,0.2,4.9,0.3,7.3,0.3c1,0,2,0,2.9,0c2.1,0,4.2-0.2,6.3,0.2
				c0.7,0.1,1.2,0.8,1.2,1.4c0,1-0.4,1.9-0.8,2.7c-0.9,1.4-2,2.6-3.1,3.8c-1.3,1.3-2.9,2.2-4.5,2.8c-0.9,0.4-2,0.6-3,0.8
				c-1.1,0.2-2.2-0.2-3.3-0.4c-0.6-0.1-1-0.5-1.5-0.7c-0.8-0.4-1.6-0.7-2.3-1.3c-1.1-0.9-2.2-1.7-3-2.9c-0.6-0.9-1.4-1.7-1.7-2.7
				c-0.2-0.7-0.4-1.3-0.5-2C82.5,109.6,82.7,108.6,83.5,108.5z"/>
			<path class="st63" d="M83.5,109.6c0.2-0.1,0.4-0.1,0.6,0c1.8,0.7,3.8,1.1,5.7,1.5c1.4,0.2,2.8,0.5,4.3,0.7
				c3.4,0.4,6.9,0.1,10-1.2c0.4-0.2,0.8-0.5,1.3-0.6c0,0-0.1,0.1-0.1,0.1c-0.4,0.5-0.9,0.9-1.4,1.3c-1.1,0.9-2.3,1.7-3.6,2.2
				c-1.1,0.5-2.2,0.9-3.4,1.1c-1.1,0.2-2.2,0-3.4,0c-2-0.1-3.9-0.9-5.6-1.8c-1-0.5-2-1.3-2.9-2c-0.4-0.3-0.8-0.8-1.2-1.1
				C83.7,109.8,83.5,109.7,83.5,109.6z"/>
			<path class="st64" d="M83.5,109.9c0.1,0,0.2,0,0.3,0c0.4,0.4,0.8,0.8,1.2,1.1c0.9,0.7,1.9,1.4,2.9,2c1.7,0.9,3.6,1.7,5.6,1.8
				c1.1,0,2.2,0.2,3.4,0c1.2-0.1,2.3-0.6,3.4-1.1c1.3-0.5,2.5-1.3,3.6-2.2c0.5-0.4,1-0.8,1.4-1.3c0.3,0.3,0.1,0.8,0,1.2
				c-0.4,1-1.3,1.8-2,2.6c-0.5,0.5-1,1-1.5,1.4c-1.7,0.2-3.5,0.5-5.2,0.4c-1,0-2,0-3-0.1c-1.5-0.2-3.1-0.1-4.5-0.5
				c-0.5-0.1-1-0.2-1.5-0.3c-0.2,0-0.3-0.1-0.5-0.1C85.6,113.2,84.2,111.7,83.5,109.9z"/>
			<path class="st65" d="M80.4,111.3c0.1-0.5,0.5-0.9,1-0.8c0.4,0,0.7,0.4,0.9,0.7c0.2,0.6,0.3,1.3,0.4,1.9c0.1,1.8,0.2,3.7,0.7,5.5
				c0.8,2.4,1.6,4.8,2.9,7c1.2,2.3,2.2,4.7,3.4,7c0.6,1.1,1.2,2.2,1.8,3.3c0.7,1.3,1.4,2.5,1.9,3.9c0.5,1.6,0.8,3.3,1.2,4.9
				c0.1,0.4,0.1,1,0.4,1.3c0,0.1,0,0.2,0,0.3c-0.3-0.5-0.4-1.1-0.6-1.6c-0.7-2.1-1.2-4.3-2.1-6.3c-0.7-1.6-1.6-3.1-2.4-4.6
				c-0.5-0.8-1-1.5-1.4-2.4c-0.7-1.3-1.4-2.6-2-3.9c-0.8-1.7-1.8-3.3-2.4-5.1c-0.7-2-1.5-4.1-1.8-6.3c-0.3-1.6-0.1-3.3-0.6-4.9
				c-0.1-0.3-0.2-0.5-0.5-0.6C80.9,110.7,80.7,111.1,80.4,111.3z"/>
			<path class="st66" d="M115.9,116.3c0.3-1.1,0.3-2.2,0.5-3.4c0.1,0.4,0.1,0.9,0,1.3c0.1-0.2,0.1-0.5,0.2-0.7
				c0,0.9-0.2,1.8-0.5,2.6C116.1,116.2,115.9,116.3,115.9,116.3z"/>
			<path class="st67" d="M120.7,114.1l0.1,0.1c0,0.2,0.1,0.5,0.1,0.7c-0.1,0.6-0.3,1.2-0.5,1.8c-0.1,0-0.2,0-0.3,0
				C120.4,115.9,120.5,115,120.7,114.1z"/>
			<path class="st63" d="M87.2,114.7l0.2,0.1c0.5,0.1,1,0.2,1.5,0.3c1.5,0.4,3,0.4,4.5,0.5c1,0.1,2,0,3,0.1c1.7,0.1,3.5-0.3,5.2-0.4
				l0.1,0c-0.8,0.2-1.3,0.8-2.1,1.1c-1.1,0.4-2.3,0.8-3.5,0.7c-2.2,0.1-4.4-0.3-6.5-1.1C88.8,115.7,88,115.2,87.2,114.7z"/>
			<path class="st68" d="M110.8,114.7c0,0.3,0.1,0.5,0.2,0.8c0.5,2.5,0.3,5.1,0,7.7c-0.1,0.2-0.2,0.4-0.3,0.5c0-0.6-0.1-1.2-0.1-1.8
				c0.1-1.5,0-3,0.1-4.5C110.8,116.6,110.8,115.6,110.8,114.7z"/>
			<path class="st69" d="M68.3,114.9c0.2,0.4,0.2,0.9,0.3,1.4c0.2,0.9,0.3,1.9,0.5,2.8c-0.1,0-0.2,0-0.2,0c-0.3-1.1-0.6-2.2-0.7-3.3
				C68.2,115.5,68.3,115.2,68.3,114.9z"/>
			<path class="st70" d="M92.5,118c0.3-0.1,0.7,0,1,0.1c0.9,0.2,1.9,0.3,2.8,0.1c0,0.1,0,0.2-0.1,0.3c-1,0.4-2.1,0.3-3.1,0
				C92.9,118.4,92.7,118.2,92.5,118z"/>
			<path class="st71" d="M116.3,118.5c0.2,0,0.3,0,0.5,0c0.1,0.8,0.1,1.6,0.2,2.4c0.1,0.8,0.2,1.6,0.3,2.4c-0.1,0-0.2,0-0.3,0
				c-0.4-1-0.5-2.1-0.7-3.2C116.2,119.6,116.2,119.1,116.3,118.5z"/>
			<path class="st72" d="M68.9,120.4c0.1,0,0.2,0,0.3,0c0.4,0.9,0.3,1.9,0.5,2.9c0.1,0.6,0.4,1.2,0.7,1.7c-0.1,0-0.2,0-0.3,0
				C68.9,123.8,68.8,121.9,68.9,120.4z"/>
			<path class="st73" d="M110.5,124.1c0.1-0.7,0.1-1.5,0.2-2.2c0,0.6,0.1,1.2,0.1,1.8c0.1-0.2,0.2-0.4,0.3-0.5
				c0,0.6-0.1,1.2-0.4,1.7C110.3,124.7,110.5,124.4,110.5,124.1z"/>
			<path class="st74" d="M95.1,146.3c0-0.1,0-0.2,0-0.3c0.5,0.7,0.3,1.6,0.5,2.4c-0.2,0-0.3,0.2-0.4,0.3
				C95.2,147.9,95.1,147.1,95.1,146.3z"/>
			<path class="st75" d="M106.6,146.5c1.3-0.4,2.6-0.2,3.8,0.1c0.7,0.2,1.2,0.6,1.8,0.9c0,0.1,0,0.2,0,0.2c-0.5,0-0.9-0.4-1.4-0.5
				c-1.4-0.5-2.8-0.5-4.2-0.4C106.5,146.7,106.5,146.6,106.6,146.5z"/>
			<path class="st76" d="M81.8,146.7c1.3-0.2,2.8-0.3,4.1,0.1c0,0.1,0,0.3,0,0.4c-1.1-0.4-2.2-0.2-3.3-0.1c-0.9,0.2-1.8,0.4-2.7,0.7
				c-0.2,0.1-0.5,0.1-0.7,0.1c0-0.2,0-0.4,0.2-0.5C80.1,147,81,146.8,81.8,146.7z"/>
			<path class="st77" d="M95.2,148.7c0.1-0.2,0.2-0.3,0.4-0.3c0,1.1,0.2,2.2,0.2,3.3c0.1,1.5,0.1,3.1,0.2,4.6
				c0.1,1.8,0.1,3.5,0.1,5.3c0,2.1-0.1,4.2-0.2,6.3c-0.1,3.3-0.3,6.6-0.7,9.8c-0.1,0.2-0.2,0.5-0.3,0.7c0.1-0.5,0.1-1,0-1.5
				c0.1-1.5,0.2-3.1,0.3-4.6c0.1-1.6,0.1-3.2,0.2-4.7c0-1.6,0.2-3.3,0.1-4.9c0-2.1,0-4.2-0.1-6.3C95.4,153.8,95.4,151.2,95.2,148.7z
				"/>
			<path class="st78" d="M49,160c0.3,0.1,0.5,0.5,0.8,0.8c-0.1,0-0.2,0-0.3,0c-0.2-0.2-0.5-0.4-0.7-0.6
				C48.8,160.2,48.9,160.1,49,160z"/>
			<path class="st79" d="M131.5,161.4c0.2-0.5,0.7-0.7,1.1-1c0,0.1,0,0.2,0,0.3C132.3,161,132,161.6,131.5,161.4z"/>
			<path class="st80" d="M51.3,162.3c0-0.1,0.1-0.3,0.2-0.4c0.5,0.3,1,0.6,1.1,1.2C52.1,162.9,51.8,162.5,51.3,162.3z"/>
			<path class="st81" d="M130.1,163.2c0.5,0-0.3,0.8-0.5,0.4C129.7,163.4,129.9,163.3,130.1,163.2z"/>
			<path class="st82" d="M54.8,164.2c0.5,0,0.9,0.4,1.1,0.8c-0.1,0-0.2,0-0.3,0c-0.2-0.2-0.5-0.4-0.8-0.5
				C54.8,164.4,54.8,164.3,54.8,164.2z"/>
			<path class="st83" d="M127.3,165.7c0.3-0.2,0.7-0.5,1.1-0.6c-0.2,0.5-0.7,0.7-1.1,1.1c-0.1,0-0.2,0-0.3,0
				C127.1,166,127.1,165.8,127.3,165.7z"/>
			<path class="st84" d="M58.4,166.4c0-0.1,0-0.3,0-0.4c0.5,0.1,1.2,0.2,1.3,0.8C59.3,166.7,58.9,166.5,58.4,166.4z"/>
			<path class="st85" d="M123.3,168.1c0.6-0.3,1.2-0.4,1.8-0.6c0,0.1,0,0.2-0.1,0.3c-0.6,0.3-1.1,0.6-1.8,0.7
				C123.4,168.4,123.4,168.3,123.3,168.1z"/>
			<path class="st82" d="M62,167.7c0.5,0,1,0.3,1.2,0.7C62.8,168.2,62.2,168.2,62,167.7z"/>
			<path class="st86" d="M119.4,169.9c0.5-0.4,1.2-0.4,1.8-0.6c0,0.1,0,0.2-0.1,0.3c-0.5,0.2-1,0.4-1.5,0.5
				C119.6,170,119.5,169.9,119.4,169.9z"/>
			<path class="st87" d="M65.9,169.5c0.3-0.1,0.7,0.1,0.7,0.4c-0.3,0-0.8,0-0.8-0.4L65.9,169.5z"/>
			<path class="st88" d="M68.6,170.4c0.4,0.1,0.8,0.2,1.1,0.4c-0.4,0.2-0.8,0.1-1.2,0C68.6,170.6,68.6,170.5,68.6,170.4z"/>
			<path class="st89" d="M116.3,170.8c0.4-0.1,0.9-0.1,1.3-0.2c-0.2,0.5-0.8,0.4-1.2,0.6C116.3,171.1,116.3,170.9,116.3,170.8z"/>
			<path class="st90" d="M35.5,176.3c0.7,0.6,1.5,1.2,2.2,1.8c-0.1,0.1-0.2,0.3-0.2,0.4c-0.7-0.6-1.4-1.2-2-1.8
				C35.5,176.5,35.5,176.4,35.5,176.3z"/>
			<path class="st91" d="M138.4,176.7c0.1,0,0.2,0,0.3,0c-0.4,1-1,1.9-1.5,2.9c-1.4,2.6-2.9,5.1-4.3,7.7c-1.2,2.3-2.3,4.7-3.3,7.2
				c-1.1,2.7-2.2,5.4-3,8.2c-0.7,2.4-1.3,4.9-1.6,7.4c0,0-0.2,0.2-0.2,0.2c0,0.1-0.1,0.3-0.1,0.4c0-0.2,0-0.4,0-0.6
				c0-1,0.2-2,0.4-2.9c0.6-3,1.3-5.9,2.3-8.8c1.8-4.9,3.9-9.7,6.5-14.3C135.3,181.6,136.6,179,138.4,176.7z"/>
			<path class="st92" d="M94.7,179.2c0.1-0.8,0-1.6,0.2-2.4c0.1,0.5,0.1,1,0,1.5c0.1-0.2,0.2-0.5,0.3-0.7c0,0.9-0.2,1.8-0.2,2.8
				c0,0.5-0.1,0.9-0.2,1.3c-0.1,0-0.2,0-0.3,0C94.8,180.9,94.6,180.1,94.7,179.2z"/>
			<path class="st93" d="M37.5,178.4c0.1-0.1,0.2-0.3,0.2-0.4c1.8,1.3,3.5,2.8,5.2,4.2c2.2,1.8,4.3,3.8,6.3,5.8c1.7,1.8,3,3.9,4.3,6
				c0,0-0.1,0.3-0.1,0.4c-1.4-2.2-2.9-4.4-4.8-6.2c-1.5-1.5-3.1-2.9-4.7-4.4C41.8,182,39.7,180.2,37.5,178.4z"/>
			<path class="st94" d="M32.5,179.8c1.6,0.8,3.2,1.6,4.7,2.6c-0.1,0.1-0.3,0.2-0.4,0.3c-0.8-0.5-1.6-1.1-2.4-1.5
				c-0.6-0.3-1.3-0.7-1.8-1.1C32.5,180,32.5,179.8,32.5,179.8z"/>
			<path class="st95" d="M46.8,182.3c0.5,0.9,1.4,1.5,2.1,2.2c1.8,1.6,3.3,3.4,4.7,5.3c1.4,2,2.8,4,3.9,6.2c1.1,2,2,4.2,2.9,6.3
				c0.5,1.1,0.9,2.3,1.2,3.5c0.3,1,0.6,2,0.6,3c-0.1,0-0.2,0-0.3,0c-0.1-1-0.4-1.9-0.7-2.9c-1.5-4.6-3.5-9.1-6.1-13.1
				c-1.5-2.3-3-4.6-4.9-6.5c-0.9-1-1.9-1.9-2.8-2.8C47.1,183.1,46.7,182.8,46.8,182.3z"/>
			<path class="st91" d="M36.7,182.7c0.1-0.1,0.3-0.2,0.4-0.3c2,1.3,4.1,2.6,6,4.1c1.9,1.6,3.9,3,5.6,4.8c1.6,1.7,3.1,3.4,4.5,5.3
				c2.6,3.7,4.8,7.7,6.4,11.9c0.2,0.5,0.4,1.1,0.5,1.6l0.1,0c0,0.2,0.1,0.4,0.2,0.6c-0.1,0-0.2,0-0.2,0c-0.1-0.5-0.3-1-0.5-1.5
				c-1.7-4.4-4.1-8.4-6.8-12.2c-1.3-1.8-2.9-3.4-4.4-5.1c-0.9-0.9-1.8-1.8-2.7-2.5c-2-1.6-3.9-3.3-6-4.7
				C38.7,184,37.7,183.4,36.7,182.7z"/>
			<path class="st96" d="M140.1,183.4c0.1,0,0.2,0,0.3,0c-1.6,1.7-2.8,3.8-4.1,5.7c-2.6,4-4.7,8.3-6.5,12.7
				c-1.4,3.6-2.7,7.2-3.5,10.9l-0.1,0.1c-0.1,0.1-0.1,0.2-0.2,0.3c0-0.1,0-0.2,0-0.4c0.1-1.3,0.5-2.6,0.8-3.8
				c1.5-5.3,3.5-10.5,6.1-15.3c1.5-2.8,3.2-5.5,5.1-8C138.6,184.8,139.2,184,140.1,183.4z"/>
			<path class="st97" d="M53.5,194.1c0.3,0.3,0.4,0.6,0.7,0.9c0.9,1.5,1.8,2.9,2.6,4.5c0.1,0.3,0.4,0.6,0.4,0.9
				c-0.2,0-0.3-0.2-0.4-0.4c-1.1-1.9-2.2-3.7-3.4-5.5C53.4,194.4,53.5,194.2,53.5,194.1z"/>
			<path class="st98" d="M136.1,195.5c0.4-0.5,0.8-1,1.4-1.1c0,0.1,0,0.2,0,0.3c-0.8,0.6-1.2,1.4-1.8,2.2c-2.7,4.2-4.6,8.8-6.4,13.5
				c-1,2.8-2,5.6-2.7,8.4c0-0.2-0.1-0.5-0.1-0.7c0.1-0.9,0.4-1.7,0.6-2.6c0.7-2.8,1.6-5.5,2.7-8.1
				C131.6,203.3,133.4,199.1,136.1,195.5z"/>
			<path class="st99" d="M124.5,210l0.1,0.1c0,0.2,0,0.4,0,0.6c0-0.1,0.1-0.3,0.1-0.4c0-0.1,0.1-0.2,0.2-0.2
				c-0.1,1.1-0.3,2.3-0.5,3.4c-0.1,0-0.2,0-0.3,0C124.3,212.3,124.3,211.2,124.5,210z"/>
			<path class="st100" d="M39.2,210.4c2.2-0.3,4.4-0.2,6.6,0.3c2,0.5,4,1.1,5.9,1.8c0.8,0.3,1.6,0.6,2.3,1c0.2,0.2,0.6,0.3,0.6,0.6
				c-0.1,0-0.2,0-0.3,0c-0.9-0.7-2.1-1-3.2-1.3c-3-0.9-6.1-1.8-9.2-1.8c-1.7,0-3.3,0-4.9,0.5c0-0.1,0-0.2,0-0.3
				C37.5,210.7,38.4,210.6,39.2,210.4z"/>
			<path class="st78" d="M126,212.7l0.1,0.1c0,0.1,0,0.2,0,0.4c0.1-0.1,0.1-0.2,0.2-0.3c0,0.5-0.1,0.9-0.3,1.4c-0.1,0-0.2,0-0.3,0
				C125.7,213.7,125.8,213.2,126,212.7z"/>
			<path class="st101" d="M126.3,219.5c0.1-0.5,0.1-1,0.4-1.4c0,0.2,0.1,0.5,0.1,0.7c-0.1,0.6-0.2,1.4-0.7,1.8
				C126,220.3,126.2,219.9,126.3,219.5z"/>
			<path class="st102" d="M125,219.8c0.5,0,0.6,0.6,0.8,1c0.8,2.5,1.9,4.9,2.8,7.3c0.3,0.9,0.7,1.7,1.1,2.5c0.1,0,0.2,0,0.3,0
				c0.7,1.1,1.8,1.9,2.6,2.9c1.9,2.3,3.4,4.9,4.3,7.8c0.1,0.2,0.2,0.4,0.1,0.7c0,0.2-0.1,0.4-0.1,0.6c-0.7-2.2-1.7-4.2-3-6.1
				c-0.8-1.2-1.7-2.5-2.7-3.6c-0.4-0.5-0.8-0.9-1.2-1.4c0.2,0.7,0.6,1.4,0.8,2.1c1.2,2.9,2.3,5.9,2.6,9.1c-0.1,0-0.2,0-0.3,0
				c-0.5-2.8-1.5-5.4-2.5-8c-0.9-2.3-2-4.5-2.9-6.7c-0.8-2.3-1.8-4.5-2.5-6.9C125.3,220.7,125,220.3,125,219.8z"/>
			<path class="st103" d="M60,220.8c0.1,0,0.2,0,0.3,0c-0.5,2.4-1.4,4.6-2.3,6.8c-1,2.6-1.8,5.2-2.6,7.9c-0.9,3.2-1.7,6.5-2.3,9.8
				c0,0.2,0,0.4-0.1,0.6c0,0-0.2,0.2-0.2,0.2c0,0.2-0.1,0.4-0.1,0.6c0-0.2,0-0.5,0-0.7c0-0.4,0-0.8,0.1-1.2
				c0.5-3.9,1.4-7.7,2.5-11.4l-0.1,0c-1.1,2.2-2.5,4.2-3.5,6.4c-1.9,4-2.7,8.4-3.5,12.7c-0.1,0.2-0.1,0.4-0.2,0.7c0-0.3,0-0.6,0-0.9
				c-0.1-0.6,0.1-1.3,0.2-1.9c0.5-2.9,1-5.8,2-8.5c1.1-3.3,3.1-6.1,4.8-9.1c0.3-0.6,0.8-1.2,1-1.8C57.3,227.4,59,224.2,60,220.8z"/>
			<path class="st104" d="M119.5,222.9c0.4,0,1,0,1.3,0.4c-0.4,0-0.9,0-1.3,0C119.5,223.2,119.5,223.1,119.5,222.9z"/>
			<path class="st105" d="M112.8,223.2c0.4,0,0.8,0,1.2-0.1c0,0.1,0,0.2,0,0.3c-0.4,0.1-0.8,0.2-1.2,0.2
				C112.8,223.4,112.8,223.3,112.8,223.2z"/>
			<path class="st106" d="M117,223c0.3,0,0.7,0,1,0c-0.2,0.4-0.7,0.3-1,0.3C117,223.3,117,223.1,117,223z"/>
			<path class="st107" d="M69.8,223.5c0.4-0.1,0.9,0,1.3,0c0,0.1,0,0.2,0,0.3c-0.4,0-0.9,0.1-1.3,0.1
				C69.8,223.7,69.8,223.6,69.8,223.5z"/>
			<path class="st108" d="M73.3,223.6c0.5-0.2,1,0,1.4,0.2c0,0.1,0,0.2,0,0.2c-0.5,0-1,0-1.4-0.1C73.3,223.8,73.3,223.6,73.3,223.6z
				"/>
			<path class="st109" d="M109.2,223.6c0.4-0.1,0.7,0,1.1,0c-0.3,0.4-0.7,0.3-1.1,0.2C109.2,223.8,109.2,223.7,109.2,223.6z"/>
			<path class="st110" d="M62.9,223.8c0.5-0.2,1.1-0.2,1.6-0.1c-0.5,0.2-1,0.3-1.5,0.3C62.9,224,62.9,223.9,62.9,223.8z"/>
			<path class="st111" d="M65.9,223.9c0.2-0.5,0.9-0.3,1.3-0.3c0,0.1,0,0.2,0,0.3C66.8,224,66.3,224.2,65.9,223.9z"/>
			<path class="st112" d="M59.8,223.9c0.4-0.2,0.9-0.2,1.3-0.3c0,0.1,0,0.2,0,0.3c-0.4,0.1-0.9,0.3-1.3,0.4
				C59.8,224.2,59.8,224.1,59.8,223.9z"/>
			<path class="st113" d="M94.8,224.1c0.1-0.1,0.3-0.1,0.5-0.1c-0.5,0.8-1.4,1.2-1.8,2c0,0.2,0,0.3,0,0.5c-0.1-0.3-0.1-0.7-0.1-1
				C93.8,225,94.2,224.4,94.8,224.1z"/>
			<path class="st114" d="M76.9,224.1c0.5-0.1,1,0.1,1.4,0.2c0,0.1,0,0.2,0,0.3c-0.5,0-1,0-1.4-0.2
				C76.9,224.3,76.9,224.1,76.9,224.1z"/>
			<path class="st115" d="M124,224.2c0.5,0,0.9,0.2,1.2,0.5c-0.4,0.1-0.8-0.1-1.2-0.3C124,224.4,124,224.3,124,224.2z"/>
			<path class="st116" d="M104.4,225.2c-0.1-0.8,0.9-0.7,1.5-0.7l0,0.3C105.4,224.8,104.9,225.1,104.4,225.2z"/>
			<path class="st117" d="M91.8,225.1c0-0.1,0-0.3,0-0.4c0.5,0.1,0.9,0.4,1.4,0.5c0,0-0.1,0.1-0.2,0.2c0,1,0.1,1.9,0,2.9
				c-0.1-0.9,0-1.8-0.1-2.7C92.7,225.3,92.1,225.3,91.8,225.1z"/>
			<path class="st85" d="M80.3,225.2c-0.1-0.2-0.1-0.3,0.1-0.3c0.4,0,0.9,0.2,1.2,0.5C81.1,225.4,80.7,225.4,80.3,225.2z"/>
			<path class="st100" d="M93,225.4c0,0,0.1-0.1,0.2-0.2c0,0.1,0.1,0.2,0.2,0.3c0,0.3,0.1,0.7,0.1,1c0.2,1.1,0.1,2.3,0.2,3.5
				c0,1.8,0.1,3.7,0.1,5.5c0,1.7,0.2,3.4,0.1,5.1c0,3.4,0.1,6.9-0.2,10.3c-0.1,1.9-0.1,3.8-0.1,5.6c0,1.1,0,2.2-0.1,3.2
				c-0.1,0.6-0.1,1.1-0.1,1.7c0,0.1-0.1,0.3-0.1,0.4c0-0.3,0-0.7-0.1-1c-0.3-1.9-0.2-3.9-0.2-5.8c0-1.4-0.1-2.7,0.1-4.1
				c0.1-1.9,0.2-3.7,0.2-5.6c0.1-0.7,0.1-1.4,0.1-2.1c0-1.9,0-3.8,0-5.6c-0.1-3.1-0.1-6.2-0.2-9.3C93.1,227.3,93,226.4,93,225.4z"/>
			<path class="st118" d="M101.3,226c0.4-0.4,1-0.5,1.5-0.6l-0.1,0.3c-0.4,0.2-0.8,0.4-1.2,0.6C101.5,226.1,101.4,226,101.3,226z"/>
			<path class="st102" d="M82.9,226c0.4,0,0.9,0.2,1.2,0.4c0.8,0,1.4,0.6,2,1.1c0-0.1,0-0.2,0-0.3c0.5-0.1,0.8,0.3,1.2,0.4
				c0,0.1-0.1,0.2-0.1,0.3c0,0-0.1-0.1-0.1-0.2c-0.3,0-0.5-0.1-0.7-0.3c-0.1,0.1-0.2,0.1-0.2,0.2c0.9,0.5,1.6,1.2,2.3,1.9
				c1.2,1.3,2.3,2.7,3.2,4.2c0.2,0.4,0.5,0.8,0.5,1.3c-0.1,0-0.2-0.1-0.2-0.1c-1.6-3.3-4.4-5.7-7.3-7.9c-0.2-0.2-0.5-0.3-0.5-0.6
				c-0.1,0-0.2,0-0.2,0l0-0.1c-0.4,0-0.7-0.1-1-0.2C82.9,226.2,82.9,226.1,82.9,226z"/>
			<path class="st119" d="M133.7,226c0.5,0.2,0.9,0.6,1.4,0.9c1.8,1.2,3.2,2.8,4.5,4.5c1.5,1.9,2.8,3.9,3.5,6.1c-0.1,0-0.2,0-0.3,0
				c-1.2-3-3.2-5.6-5.4-7.9c-0.9-1-2-1.8-3-2.6C134.1,226.6,133.7,226.4,133.7,226z"/>
			<path class="st96" d="M129.4,226.5c2,1.4,4,2.7,5.7,4.4c1.4,1.4,2.6,3,3.7,4.7c0.8,1.3,1.6,2.5,2.3,3.9c0.1,0.3,0.3,0.5,0.3,0.8
				c0,0,0,0.1,0,0.1c-0.1,0-0.2-0.1-0.2-0.1c-1.1-2.2-2.4-4.2-3.9-6.1c-1.4-1.8-3-3.4-4.8-4.8c-1-0.8-2.1-1.6-3-2.5
				C129.4,226.7,129.4,226.5,129.4,226.5z"/>
			<path class="st82" d="M97.7,227.5c0.3-0.4,0.8-0.7,1.3-0.8c-0.3,0.3-0.6,0.6-1,0.9C98,227.6,97.8,227.5,97.7,227.5z"/>
			<path class="st120" d="M94.8,228.9c0.3-0.3,0.7-0.4,1.1-0.6c0,0.1,0,0.2,0,0.3c-0.4,0.3-0.7,0.6-1.2,0.8
				C94.7,229.3,94.6,229,94.8,228.9z"/>
			<path class="st121" d="M88.9,228.4c0.5-0.1,1.2,0.3,1.1,0.9c-0.3-0.2-0.6-0.3-1-0.5C88.9,228.8,88.9,228.6,88.9,228.4z"/>
			<path class="st122" d="M91,229.7c0.5-0.1,1,0.2,1.3,0.6c0,0.1,0,0.3,0,0.4c-0.4-0.2-0.8-0.4-1.3-0.6C91,230,91,229.9,91,229.7z"
				/>
			<path class="st91" d="M52.2,230.6c0.2,0,0.3,0,0.5,0c-0.1,0.3-0.3,0.4-0.5,0.6c-2,1.4-3.9,3-5.6,4.8c-2.6,2.7-5.1,5.6-6.8,9
				c-0.1,0-0.2,0.1-0.2,0.1c0.1-0.9,0.6-1.7,1-2.5c1.3-2.2,3-4.1,4.7-6C47.3,234.3,49.6,232.3,52.2,230.6z"/>
			<path class="st123" d="M85.7,232.2c0.6,0,1,0.4,1.4,0.7c1.4,1.2,2.6,2.7,3.5,4.3c0.6,1.1,1.1,2.3,1.6,3.4
				c0.1,0.2,0.2,0.4,0.1,0.6c0,0.1-0.1,0.3-0.1,0.4c-0.9-2.2-2-4.3-3.5-6.1c-0.9-1.1-1.8-2.2-3-3.1
				C85.7,232.3,85.7,232.2,85.7,232.2z"/>
			<path class="st98" d="M53,235c0.3-0.2,0.5-0.6,1-0.6c0,0.4-0.3,0.6-0.6,0.8c-1.6,1.4-3.1,3-4.5,4.6c-1.6,1.9-3.1,3.9-4.3,6.1
				c-1.1,2-2.1,4.1-2.6,6.3c0,0.1-0.1,0.2-0.1,0.4c-0.1,0-0.2,0-0.3,0c-0.3-0.3-0.2-0.7-0.1-1.1c0.2-1.2,0.6-2.3,1.1-3.5
				c1.7-4,4.5-7.5,7.5-10.6C51.1,236.7,52,235.8,53,235z"/>
			<path class="st124" d="M141.4,240.2l0.1-0.1c0.3,0.7,0.6,1.3,0.8,2c0.1,0.2,0,0.4,0,0.6c-0.4-0.8-0.7-1.7-1.1-2.5
				c0.1,0,0.2,0.1,0.2,0.1C141.3,240.3,141.4,240.2,141.4,240.2z"/>
			<path class="st125" d="M92.3,241.2l0.1-0.1c0.3,0.7,0.5,1.5,0.8,2.2c0,0.7,0,1.4-0.1,2.1c0.1-1.3-0.5-2.6-1-3.8
				C92.2,241.5,92.3,241.3,92.3,241.2z"/>
			<path class="st126" d="M137,242c0.2,0.2,0.2,0.4,0.3,0.7c0.5,1.9,1,3.8,1.3,5.7c0,0.3,0.2,0.6,0.1,1c-0.2-0.5-0.3-1-0.4-1.5
				c-0.4-1.8-0.9-3.5-1.4-5.2C136.9,242.4,137,242.2,137,242z"/>
			<path class="st82" d="M133.5,242.7L133.5,242.7c0.5,2.9,1,5.8,1.2,8.7c0.1,0.4,0.1,0.9,0.2,1.3c0,0-0.1,0-0.1,0
				c-0.3-1.2-0.3-2.4-0.5-3.6c-0.3-2.2-0.6-4.3-1-6.4C133.3,242.7,133.5,242.7,133.5,242.7z"/>
			<path class="st79" d="M52.7,245.8l0.1,0.1c0,0.2,0,0.4,0,0.7c0-0.2,0-0.4,0.1-0.6c0,0,0.1-0.1,0.1-0.2c-0.1,1.1-0.3,2.2-0.4,3.4
				c-0.2,1.4-0.4,2.9-0.6,4.3c-0.1,0.4-0.1,0.9-0.4,1.2c0-0.5,0.2-1,0.3-1.6C52.1,250.7,52.4,248.3,52.7,245.8z"/>
			<path class="st127" d="M48.1,252l0.1,0.1c0,0.3,0,0.6,0,0.9c0.1-0.2,0.1-0.4,0.2-0.7c0,0.6-0.1,1.3-0.2,1.9
				c-0.1,0.8-0.1,1.6-0.1,2.4c-0.1,0-0.2,0.1-0.3,0.1C47.7,255.2,47.9,253.6,48.1,252z"/>
			<path class="st128" d="M84.9,253.6c0.1,0,0.2,0,0.3,0c0,0.3,0.1,0.7,0.1,1c-0.1-0.1-0.1-0.2-0.2-0.3c0,0.2-0.1,0.4-0.1,0.7
				C84.9,254.6,84.9,254.1,84.9,253.6z"/>
			<path class="st93" d="M85.1,254.4c0.1,0.1,0.1,0.2,0.2,0.3c0.6,3.2,0.9,6.5,0.6,9.7c-0.2,2.3-0.7,4.6-1.2,6.9l-0.1,0.1
				c-0.1,0.2-0.2,0.3-0.2,0.5c0-0.2,0-0.5,0-0.7c0-0.5,0.1-1.1,0.2-1.6c0.2-1.4,0.4-2.8,0.6-4.3c0.4-3.4,0.2-6.9-0.2-10.3
				C85,255.1,85.1,254.6,85.1,254.4z"/>
			<path class="st102" d="M80.4,254.9c0.1,0,0.2,0.1,0.2,0.1c0.1,1.3,0.5,2.7,0.6,4c0.6,4.6,0.3,9.3-0.2,13.9c0,0.3,0,0.6-0.1,1
				c-0.1,0.3-0.2,0.5-0.2,0.8c0.1-0.6,0.1-1.2,0-1.9c0.2-4.6,0.5-9.2-0.1-13.7c-0.2-1.2-0.3-2.4-0.4-3.7
				C80.3,255.2,80.3,255,80.4,254.9z"/>
			<path class="st129" d="M100.5,257.6c0.1,0,0.2,0,0.3,0c-0.1,0.5-0.1,0.9-0.2,1.4c0-0.3,0-0.5,0-0.8c-0.1,0-0.3,0.1-0.3,0.1
				C100.3,258.1,100.4,257.8,100.5,257.6z"/>
			<path class="st130" d="M100.3,258.3c0.1,0,0.3-0.1,0.3-0.1c0,0.3,0,0.5,0,0.8c-0.3,3-0.7,6.1-0.6,9.1c0.1,2,0.3,4,0.7,6
				c0.1,0.8,0.4,1.5,0.4,2.3c0,0.1,0,0.3,0,0.4c-0.1-0.3-0.2-0.6-0.3-0.8c-0.6-2.3-0.9-4.6-1.2-7C99.1,265.4,99.6,261.8,100.3,258.3
				z"/>
			<path class="st131" d="M89.2,258.5c0.1,0,0.2,0,0.3,0c0.4,3-0.4,5.9-1.2,8.7c-0.5,1.5-0.8,3.2-1.6,4.6c0,0-0.1,0.1-0.2,0.1
				c0-0.1,0-0.2,0-0.3c0.5-0.8,0.6-1.7,0.9-2.6C88.3,265.6,89.1,262.1,89.2,258.5z"/>
			<path class="st132" d="M93.1,260.9c0.1,0.3,0.1,0.6,0.1,1c0-0.2,0.1-0.3,0.1-0.4c0.1,0.5,0.1,1,0,1.5c-0.1,0-0.2-0.1-0.2-0.2
				C93.1,262.2,92.9,261.5,93.1,260.9z"/>
			<path class="st104" d="M102.8,266.5c0.1,0,0.2,0,0.3,0c0.1,0.5,0.1,1,0.1,1.5c-0.1-0.2-0.1-0.4-0.2-0.7c-0.1,0.1-0.2,0.3-0.2,0.4
				C102.7,267.3,102.8,266.9,102.8,266.5z"/>
			<path class="st133" d="M102.7,267.7c0.1-0.1,0.1-0.3,0.2-0.4c0.1,0.2,0.1,0.4,0.2,0.7c0.2,3.2,0.1,6.4,0.3,9.6c0,1,0.1,2,0.2,3
				c0,0.5-0.1,1-0.2,1.5c-0.5-2.9-0.7-5.8-0.9-8.7C102.6,271.6,102.6,269.6,102.7,267.7z"/>
			<path class="st120" d="M84.3,271.1l0.1,0.1c0,0.2,0,0.5,0,0.7c0.1-0.2,0.1-0.3,0.2-0.5c0,0.8-0.3,1.5-0.5,2.2
				c-0.1,0.3-0.2,0.8-0.5,0.9C83.9,273.4,84.1,272.3,84.3,271.1z"/>
			<path class="st78" d="M80.4,275.7c0.1-1,0.1-1.9,0.3-2.9c0.1,0.6,0.1,1.2,0,1.9c0.1-0.3,0.1-0.6,0.2-0.8c0.1,0.7-0.1,1.4-0.2,2
				c-0.1,0.8-0.1,1.6-0.5,2.3c-0.1,0-0.2,0-0.3,0C80.3,277.4,80.3,276.5,80.4,275.7z"/>
			<path class="st134" d="M100.7,276c0.1,0.3,0.3,0.5,0.3,0.8c0-0.1,0-0.3,0-0.4l0-0.2c0.2,1,0.6,1.9,0.9,2.8
				c-0.3,0.1-0.4-0.3-0.5-0.5C101.1,277.7,100.8,276.8,100.7,276z"/>
			<path class="st135" d="M103.7,280.6c0.1,0.8,0.3,1.6,0.3,2.4c-0.1,0-0.2,0-0.3,0c-0.1-0.3-0.2-0.6-0.2-0.9
				C103.5,281.6,103.6,281.1,103.7,280.6z"/>
		</g>
	</g>
</g>
</svg>
