<svg xmlns="http://www.w3.org/2000/svg" xmlns:xlink="http://www.w3.org/1999/xlink" xml:space="preserve" id="Layer_1" x="0" y="0" style="enable-background:new 0 0 180 180" version="1.1" viewBox="0 0 180 180"><style>.st4{fill:#f95939}.st5{fill:#e56324}.st6{fill:#150f0c}.st7{fill:#fdb697}.st9{fill:#160e0b}.st18{fill:#cc492f}.st21{fill:#4f2a4d}</style><defs><path id="SVGID_1_" d="M0 0h180v180H0z"/></defs><use xlink:href="#SVGID_1_" style="overflow:visible;fill:#edbd43"/><clipPath id="SVGID_2_"><use xlink:href="#SVGID_1_" style="overflow:visible"/></clipPath><g style="clip-path:url(#SVGID_2_)"><path d="M170.4 191s0-.1 0 0c-.7-3.4-1.9-6.7-3.5-9.7-1.6-3.1-3.5-5.9-5.8-8.4-2.1-2.5-4.5-4.7-7-6.8-.9-.8-1.9-1.5-2.9-2.2-2.8-3.2-6.3-5.9-9.9-8.1-2.7-1.7-5.2-3.8-7.5-6-2-1.9-4.3-3.3-6.3-5.2-2-1.7-3.6-3.9-5.8-5.3-2.7-1.6-5.2-3.5-7.8-5.3-1.7-1.3-3.8-1.6-5.8-1.9-4.2-.7-8.6-.7-12.9-.7-8.1.3-16.3 1.5-24.2 3-1.5.2-3.1.6-4.6.2-1.2.1-2.4.5-3.6.8-1.4.3-2.7.8-3.8 1.7-1 .9-1.9 1.9-2.8 2.9-2.2 2.2-4.6 4.3-7.2 6.1-2 1.4-3.9 2.9-5.8 4.4-2.7 2.3-5.2 5-8 7.1-2.9 2-5.8 4-8.8 5.9-.2.2-.4.3-.6.4-.3.2-.6.3-.9.5-1.5.7-2.9 1.5-4.3 2.4-2.9 1.9-5.6 4.1-8 6.6C10 176 7.8 179 6 182.1c-1.6 2.8-3 5.8-4.2 8.9h168.6z" style="fill:#764074"/><path d="M104.9 30.5c2-.7 4.1-1.1 6.1-1.1 1.1 0 2.4.3 3 1.3.4.9.1 2-.5 2.7-1.3 1.6-3.2 2.7-4.7 4.1 1.7-1.1 3.6-2.2 5.8-2.3.9 0 1.8 0 2.6.5.7.5.7 1.6.4 2.3-.5 1-1.3 1.9-2 2.7 1.3-.6 2.7-1.2 4.2-1.4.5 0 1.2-.1 1.4.5.1.8-.5 1.5-1 2.1-1.7 2-4.2 3.1-6.7 3.8.9.9 2 1.7 2.9 2.8 2.7 2.7 4.5 6.1 5.5 9.8.6 2 1 4 .9 6-.1 2.3-.2 4.6-.6 6.8-.3 1.4-.9 2.8-1.5 4.2-.4.8-.4 1.7-.6 2.7-.3 1.7-.7 3.3-1.4 4.9-.3.8-.8 1.5-1.4 2.1-2.2 2.2-4.6 4.2-7.4 5.6-2.4 1.2-5.1 1.9-7.8 2-3.2 0-6.4-.1-9.7-.1-1.9-.1-3.9-.2-5.8-.4-2-.2-4.1-.6-6.2-.8-1.9-.2-3.8-.3-5.7-.3-1.7 0-3.6.1-5.3-.4-1.4-.5-2.4-1.6-3.2-2.8-2.8-4.1-4.5-8.8-5.6-13.6-.7-2.7-.8-5.5-.7-8.2.2-3.1.3-6.3 1.3-9.3.6-2 1.4-3.9 2.5-5.7.7-1.1 1.4-2.2 2.5-2.9 1.4-.9 2.9-1.8 4.6-1.7 0-1.4.2-2.8.8-4.1.6-1.5 1.2-3 2.2-4.1.9-.9 1.9-1.6 3.1-2.2 1.4-.6 2.9-1.3 4.5-1.3 3.4-.1 6.9 0 10.4-.2 2-.2 4.1-.2 5.9-.9 2.7-1.1 4.9-2.2 7.2-3.1z" style="fill:#38312d"/><path d="M84.6 44.1c4.5-1.7 9.4-2.8 14.2-2.8 1.3.2 2.6.3 3.8.8.7.3 1.4.6 2 .9 1.4.8 2.9 1.4 4.4 1.8.7.2 1.4.5 2 .7.8.3 1.4.9 2 1.3v3.9c-.2 2 .1 4.1.3 6.2.3 3 .8 5.8 1.2 8.8.2 1.3.5 2.7.8 4 .1 2.3 1 4.5.9 6.7 0 2-1.1 3.8-1 5.7l-.1.2c-1 1.7-1.4 3.7-2 5.6l-1.8 7.2c-.4 1.3-.8 2.5-1.5 3.6-.2.3-.3.7-.4 1.1-1.1.4-1.9 1.2-2.8 1.7-1.2.7-2.5 1.1-3.7 1.6-2.6.9-5.3.5-8 .5-2.7-.2-5.5.2-8.2.2-3 0-6.1 0-9-1.1-2.7-1-5.2-2.5-7.2-4.5-.9-1.1-1.8-2.1-2.6-3.3.2 1 .6 2 1 3 .7 1.4 1.2 3 2 4.4.6 1.2 1.4 2.3 2 3.5.6 1.1 1.6 2.2 2.1 3.4.5 1.2 1.2 2.3 1.7 3.6.6 1.2 1.5 2.5 2.8 3 1.4.4 2.7-.2 4-.6 1.6-.5 3.2-.5 4.8-.5 3 .2 5.6 1.6 8.6 2 .7.2 1.3.6 2 .7 2.5.6 4.8 1.5 7.2 2.3 1.1.3 2.2.8 3.3 1.1 0-.6.1-1.2.1-1.7 0 2.4.1 4.8.3 7.1.5 3.6.2 7.3.5 10.9.4 2.2-.2 4.4-.7 6.6-.6 2.6-1.5 5.2-2.8 7.5-.9 1.6-1.7 3.2-2.8 4.7-.9 1.2-1.9 2.5-3 3.6-1 1.2-2.2 2.2-3.4 3.2-1.3 1.1-2.5 2.2-3.8 3.3-1.1.8-2.2 1.7-3.5 2.2-.9.5-1.9 1-2.9 1.3-.8.3-1.7 0-2.5.1-1.6-.2-3.2-.8-4.5-1.9-1.3-.9-2.5-1.9-3.6-2.9-2.2-2.3-4.2-4.7-6-7.3-1.2-1.6-2.2-3.3-3.3-4.8-.9-1.6-2-3.2-2.8-4.9-1.1-3-.7-6.3-.4-9.5.1-1.8.3-3.6.6-5.3.6-3.6.6-7.3 1-10.9s.7-7.3.6-10.9c-.2-3.2.2-6.4 0-9.5.3-.8.2-1.7.3-2.5.4-4 .2-8 .2-12-.1-1.1-.1-2.1-.4-3.1.2-1.1-.1-2.3 0-3.4-.2-2.3 0-4.7.5-7 .8-2.4 1.4-4.8 1.7-7.3.6-3.3.6-6.6 1.1-9.9.2-1.5.6-3 1-4.4.1-.4.3-.9.8-1.1 1.4-.7 2.7-1.5 4-2.3 2.9-2.4 5.9-3.6 8.9-4.6z" style="fill:#f2844f"/><path d="M120.4 75.4c1.7-.1 3.3.9 4.2 2.4 1.1 1.7 1.3 3.7 1.3 5.6 0 1.6-.6 3.1-1.1 4.7s-1.1 3.3-2 4.7c-1.4 2.3-3.1 4.4-5.4 5.9-1.7 1.1-3.9 1.8-6 1.2-.6 0-1.1-.3-1.7-.4-.1 0-.2 0-.3.1.1-.4.2-.7.4-1.1.7-1.1 1.1-2.3 1.5-3.6.6-2.4 1.3-4.7 1.8-7.2.5-1.9.9-3.9 2-5.6 0 0 .1 0 .2.1.8-1.3 1.7-2.5 2.6-3.8.8-.9 1.7-1.9 2.5-3zm-60.8 2.9c1-.5 2.2-.2 3.1.4 1.9 1.1 3 3 3.9 4.9.3 1 .3 2.1.4 3.1 0 4 .2 8-.2 12-.1.8 0 1.7-.3 2.5-.7-.2-1.4-.1-2-.3-1.9-.6-3.3-2-4.6-3.4-1.8-2.2-2.9-4.8-3.8-7.5-.8-2.4-.7-5.1.2-7.5.6-1.7 1.5-3.5 3.3-4.2z" class="st4"/><path d="M67.9 94.9c.8 1.1 1.7 2.2 2.6 3.3 2 2 4.5 3.4 7.2 4.5 2.9 1.1 6 1 9 1.1 2.7 0 5.5-.3 8.2-.2 2.7 0 5.5.4 8-.5 1.3-.5 2.5-.9 3.7-1.6 1-.5 1.8-1.4 2.8-1.7.1 0 .2 0 .3-.1v3.1c0 .9-.3 1.7-.7 2.5.2 0 .5 0 .8.1-.2 4.5.1 9.1-.1 13.7 0 .6-.1 1.2-.1 1.7-1.1-.3-2.2-.8-3.3-1.1-2.4-.8-4.8-1.7-7.2-2.3-.7-.2-1.3-.6-2-.7-2.9-.5-5.6-1.9-8.6-2-1.6 0-3.3-.1-4.8.5-1.3.4-2.7 1-4 .6-1.3-.5-2.2-1.7-2.8-3-.6-1.2-1.2-2.3-1.7-3.6-.5-1.2-1.4-2.2-2.1-3.4-.6-1.2-1.4-2.3-2-3.5-.8-1.4-1.3-3-2-4.4-.6-1-1-2-1.2-3zm26.7-32.5c.6-1.1 1.5-2.3 2.9-2.5v.3c.1 0 .2.2.3.2 0-.2.1-.4.1-.5 1-.2 2-.1 3 0-1 .8-2 1.6-2.8 2.7-.8 1.2-1.4 2.5-1.7 3.9-.1.6-.3 1.4.1 1.9.6 1 1.5 2.2 1.1 3.4-.2.4-.6.9-1.1.9.1-.5.6-.8.6-1.3.1-1.1-.7-1.9-1.1-2.8-.4-1-1.3-1.8-1.6-2.8-.2-1-.4-2.3.2-3.4z" class="st5"/><path d="M109.1 105.2c.4-.8.6-1.6.7-2.5.1.8.1 1.7.1 2.5h-.8z" class="st5"/><path d="M103.1 34.1c2-.8 4-1.8 6.1-2.4-.7.5-1.6.9-2.4 1.3-1.2.6-2.4 1.2-3.6 1.7-1.8.7-3.7 1.1-5.6 1.4-1.4.2-2.9.5-4.3.3 3.3-.6 6.6-1.1 9.8-2.3zm6 0c.3-.1.5-.2.8-.2-1.2 1.1-2.7 1.6-4.1 2.2-1.3.5-2.8 1.1-4.2.8 2.5-.7 5.1-1.6 7.5-2.8zm-31.7 5.5c1.6-1.4 3.4-2.7 5.5-3.4.1 0 .3.1.3.1-1.9.8-3.6 1.9-5.2 3.3-1.2 1.1-2.1 2.5-2.5 4-.2.8-.3 1.6-.6 2.3-.1-.5-.1-1 0-1.5.3-1.8 1.2-3.6 2.5-4.8zm5.6-.5c1.4-.8 2.9-1.6 4.5-1.9-.3.2-.7.4-1.1.6-1.7.6-3.3 1.6-4.8 2.7-1.7 1.2-3 2.9-3.8 4.7.1-1.2.7-2.2 1.4-3.1 1-1.2 2.4-2.1 3.8-3zm24.4.7c2.3-.8 4.6-1.7 6.8-2.7-.5.8-1.4 1.1-2.2 1.5-1.2.5-2.3 1.1-3.6 1.4-.2 0-.6-.1-1-.2zm-16-.7c1.9-.3 3.8-.5 5.7-.3-.3.2-.7.3-1.1.3-2.3.1-4.5.4-6.7 1.1-1 .3-1.8.9-2.8 1.3 1.3-1.6 3.2-2.1 4.9-2.4zM67 50.2c.4-.3.8-.7 1.3-.6-.2.6-.9.8-1.3 1.2-1.9 2-2.8 4.6-3.6 7.2-.5 1.4-.6 2.8-.7 4.3-.3-2.6.5-5 1.4-7.4.8-1.7 1.6-3.4 2.9-4.7zm47.9-.6c.3.3.6.6.6 1.1.5 1.8.8 3.6.8 5.5-.1 2.1-.2 4.3-.6 6.4-.1.6-.3 1.1-.5 1.6.6-2.7.8-5.4.7-8.2.1-2.2-.5-4.3-1-6.4z" class="st6"/><path d="M79.2 52.2c1.4-.9 3.3-.8 4.9-.6-.9.1-1.9.1-2.8.3-.6.1-1.4.3-2.1.3z" class="st7"/><path d="M68 52.9c.3-.4.8-.8 1.2-1-.5.8-1.1 1.4-1.4 2.2-1.1 2.3-1.9 4.7-2.4 7.2-.2 1-.2 2-.2 3.1-.4-.8-.3-1.8-.2-2.7.3-1.7.8-3.4 1.3-5.1.3-1.3.8-2.6 1.7-3.7zm49.9-.7c.4.4.6 1 .8 1.6.6 2.4.5 5 .4 7.5 0 1.2-.1 2.3-.3 3.4-.1.6-.2 1.3-.7 1.7.6-2.2.6-4.5.6-6.8-.1-2.5-.4-5-.8-7.4z" class="st6"/><path d="M81.8 53.5c1.5-.3 3.2-.4 4.6.3 1.4.9 2.4 2.5 2 4.2-.3.1-.7 0-1 0-1.3-.2-2.7-.4-4-.5-2.4.2-4.8.3-7.2 1-1.6.5-3.1 1.4-4.6 2.2-.1-.6.3-1 .5-1.4 1-1.6 2.3-2.9 4-3.7 1.8-1 3.7-1.8 5.7-2.1zM96 54.9c.9-.7 2.2-.8 3.3-.7 3.5.4 6.9 1.6 9.9 3.4.8.5 1.5 1.1 2.2 1.8h-.7c-3.7-.7-7.4-1.6-11.2-1.8-1.5 0-2.9.1-4.4.3-.3 0-.6 0-.8-.2.4-.9.9-2 1.7-2.8z" style="fill:#45362f"/><path d="M77 63.1c.4-.3 1.1-.2 1.1.4.2.8.3 1.9-.2 2.6-.4.5-1.2.2-1.3-.5-.1-.8-.4-2 .4-2.5z" class="st9"/><path d="M66.1 66.5c.3-1.1.4-2.4 1.2-3.3-.7 2.5-1.4 5.1-1.6 7.7-.3-1.5.1-3 .4-4.4zm55.1-3.5c1.1 1.9.4 4.1-.2 5.9-.6 1.7-.9 3.5-2 4.9.9-2.2 1.6-4.4 2-6.8.3-1.2.2-2.6.2-4z" class="st6"/><path d="M103.8 63.6c.5-.3 1.2 0 1.2.5 0 .8-.2 1.6-.6 2.3-.4.5-1.4.2-1.4-.5-.1-.8.1-1.8.8-2.3z" class="st9"/><path d="M89.2 66.8c.8-.6 1.9-.7 2.8-.5.3 0 .5.3.7.5-1.1-.2-2.3 0-3.5 0z" style="fill:#fcb48e"/><path d="M62.9 69.6c-.1-1.1-.3-2.3.2-3.3.1 2 .2 4 .6 5.9.2 1.3.6 2.5.7 3.8-.7-2.1-1.2-4.3-1.5-6.4z" class="st6"/><path d="M74.8 67.1c.9-.1 1.8 0 2.7.1.8 0 1.6-.1 2.4-.1-1.1.5-2.3.5-3.5.4-.5 0-1.1-.2-1.6-.4z" style="fill:#be6547"/><path d="M102.1 67.5c1.4.2 2.8.2 4.2 0-.2.3-.5.5-.9.5-.9.2-1.9.3-2.8.1-.2 0-.4-.3-.5-.6z" style="fill:#b65b36"/><path d="M117.3 68.8c.3.2.6.3.6.6.2 1.6 0 3.1-.2 4.7h-.3c.1-1.8 0-3.5-.1-5.3z" class="st6"/><path d="M74.1 69.7c1.5-.1 3.1-.1 4.6-.1-.9.5-1.9.5-2.8.5-.6 0-1.3.1-1.8-.4z" style="fill:#fbb38e"/><path d="M86.5 71.8c.1-1.3 1.7-1.7 2.7-1.3.2.3.3.6.4.9-.3.9-1.4 1.2-2.3 1.2-.4 0-.8-.4-.8-.8zm6.9-1c.6-.2 1.3 0 1.9.3.3.2.7.6.6 1-.1.5-.7.5-1 .5-.6 0-1.4 0-1.9-.5s-.1-1.2.4-1.3z" style="fill:#b65a35"/><path d="M102.1 73.2c.8-.7 1.9-.7 2.9-.6.9.1 1.8.1 2.5.7-.9 0-1.8-.2-2.7-.3-.8-.1-1.8.1-2.7.2z" style="fill:#fbb48f"/><path d="M74.3 73.2c1.7-.2 3.6 0 4.8 1.3 1.7 1.7 1.4 4.8-.4 6.4-1.4 1.2-3.3 1.8-5.1 1.6-1.3-.2-2.6-.9-3.4-2-.7-.9-.7-2.3-.4-3.4.4-1.5 1.6-2.5 2.8-3.3.6-.4 1.2-.6 1.7-.6zm30.8 1.6c1.3-.2 2.6 0 3.8.6 1.3.6 2.3 1.7 2.5 3.1.2 2.4-1.4 4.8-3.8 5.4-1.7.4-3.4-.1-4.8-1-1.2-.8-2.1-2.1-2.1-3.5s.8-2.7 1.9-3.5c.8-.5 1.6-1 2.5-1.1z" class="st4"/><path d="M104.2 76c.1.1.1.1 0 0z" style="fill:#fba187"/><path d="M83.6 77.9c1-.6 1.9-1.2 3.1-1.5.8-.2 1.7 0 2.5 0 .7 0 1.5-.2 2.2.1 1.2.3 2.2 1.1 3.3 1.8 1.3.9 2.4 2.2 3.1 3.7.3.7.5 1.6.6 2.3-.1-.1-.4-.3-.5-.5-.1 0-.2.2-.2.2-3.1-1.3-6.4-1.7-9.7-1.8-2.3.1-4.5.2-6.7.7-.7.2-1.4.2-2.2.3.4-1 1.1-1.9 1.7-2.7.7-1 1.6-2 2.8-2.6z" class="st5"/><path d="M85.5 79c1.3-.5 2.7-.7 4.1-.8.6-.1 1.3.1 1.9.3 1.6.6 3.1 1.5 4.4 2.8.8.8 1.4 1.6 2 2.5-2.1-.8-4.4-1.2-6.6-1.4-3.7-.4-7.5-.1-11.1.6 1.5-1.7 3.2-3.1 5.3-4z" style="fill:#fff"/><path d="M120.9 82.7c.2-.3.6-.3.9-.3-1.3 1.3-2.2 3-3.1 4.7-.7 1.3-1.4 2.7-1.9 4.1-.2.6-.4 1.2-.8 1.7.4-2.3 1.5-4.4 2.5-6.5.7-1.3 1.3-2.7 2.4-3.7z" class="st18"/><path d="M86.5 83.4c.5-.5 1.3-.5 1.9-.5 1.3.1 2.5.1 3.8.5-.7.1-1.4.1-2.1 0-1.2 0-2.4.1-3.6 0z" style="fill:#fbb898"/><path d="M59.9 84.3c1.1.7 1.7 1.9 2.1 3.1.8 2.4 1.6 4.8 1.8 7.4-.5-2.8-1.2-5.6-2.4-8.1-.4-.9-1-1.6-1.5-2.4z" class="st18"/><path d="M84.2 85.6c.4-.2.9-.3 1.3-.3 1.9-.1 3.9-.2 5.8.1.5 0 .9.2 1.3.5-.5.8-1 1.6-1.3 2.5-.5.1-.9.1-1.4.1-1.5-.1-3 .1-4.5.2-.2-1.1-.6-2.2-1.2-3.1z" class="st5"/><path d="M84.3 92.7c.6-.3 1.1-.6 1.8-.6 1.4-.2 2.9-.2 4.4 0 .4 0 .8.2 1.1.4-1.2 0-2.4-.2-3.6-.1-1.3 0-2.5.2-3.7.3z" style="fill:#ffb18d"/><path d="M81.4 126.2c.6 2.1.6 4.3.6 6.4 0 2 .1 4.1-.6 6 .1-1 .3-1.9.3-2.9.1-2 0-4-.2-6 0-1.1-.2-2.3-.1-3.5z" class="st7"/><path d="M57.7 143.3c.3 1.4 0 2.8 0 4.2-.1 3 1 5.8 2.3 8.4.8 1.8 1.8 3.6 2.7 5.4-1.2-2-2.3-4.2-3.3-6.3-1-2-1.8-4.1-1.9-6.4-.2-1.7 0-3.5.2-5.3zm55.4 2.8c0-.3 0-.5.1-.8.2.2.4.5.4.8.2 1.6-.1 3.1-.5 4.7-.5 1.9-1.2 3.8-2.4 5.4-.1.2-.4.3-.6.3.5-.9 1.1-1.9 1.5-2.9 1-2.3 1.4-4.9 1.5-7.5zm-58.8.1c.1 0 .3.2.4.2.2.9.2 1.8.4 2.7.8 3.4 2.3 6.7 4.1 9.7.3.6.9 1.2 1 2-.5-.4-.8-1-1.2-1.6-1.4-2.1-2.6-4.4-3.6-6.7-.8-1.9-1.5-4.1-1.1-6.3zm48.6 15.1c.9-.9 1.7-1.9 2.3-3.1.1.3.2.7 0 1.1-.5 1.2-1.4 2.2-2.3 3.1-1.3 1.3-2.5 2.6-3.6 4.1-.3.5-.6.9-1.1 1.2 0-.2 0-.5.2-.7 1.2-2.1 2.7-4.1 4.5-5.7zm2.6 5.7c.5-.5.9-.9 1.6-1-.3.8-.9 1.3-1.4 1.9-.9 1.1-1.8 2.2-2.6 3.4-.2.3-.5.7-.9.6.9-1.8 1.9-3.5 3.3-4.9zm-20.2 2.5c-.8 0-1.6-.1-2.3-.4-.1 0-.2-.1-.3-.2-.1 0-.3 0-.4-.1-.3-.2-.5-.3-.7-.5.8.7 1.5 1.6 2.3 2.3.5.5 1.1.9 1.6 1.4.2-.1.3-.2.5-.3v-.1c1-.3 1.6-1.3 2.3-2 .3-.3.8-.6.8-1.1-1 .9-2.3 1-3.8 1zm7.7 1.4c.3-.4.8-.9 1.3-.9-.3.9-1 1.5-1.5 2.3-.5.6-.7 1.4-1 2-.1 0-.3.1-.4.1.2-1.3.8-2.5 1.6-3.5z" class="st21"/><path d="M84.7 170.3c.2-.2.6 0 .4.3-.1.2-.5-.1-.4-.3zm47.4 20.7c.1-1.9.3-3.7.8-5.5 1.1-4.6 2.8-9.1 5-13.3.1-.2.2-.5.1-.7-.4 0-.6.4-.8.7-1.3 2-2.2 4.3-3.1 6.6-.8 2.3-1.6 4.7-2 7.1-.3 1.6-.3 3.1-.4 4.7v.4h.4zm-57.6-17.8c.3-.2.6 0 .9 0 1.6.8 3 1.9 4.4 3 .8.7 1.8 1.4 2 2.5-.6-.2-.9-.8-1.5-1.2-1.8-1.5-3.8-2.9-5.8-4.3zm60.6 17.8c.1-.5.2-.9.3-1.4.8-4.1 1.9-8.1 3.6-11.9.2-.6.5-1.1.5-1.7-.3.2-.5.5-.7.8-1.2 2-2 4.1-2.7 6.3-.9 2.6-1.3 5.2-1.7 7.9h.7zm-110.7 0h.6c-.5-4.1-1.4-8.1-2.4-12.2-.2-.6-.4-1.2-.8-1.7h-.4c0 .7.3 1.3.5 1.9.9 4 1.8 7.9 2.5 12zm2.6 0h.8c0-.4-.1-.8-.2-1.2-.4-2.2-.8-4.3-1.4-6.4-.4-1.3-.7-2.7-1.3-4-.1-.3-.4-.4-.6-.6 1.1 3.9 2.2 7.9 2.8 12-.1.1-.1.2-.1.2zm51-11.3c.5-.1.9.3 1.3.5 1.2.8 2 2 2.3 3.4.1.3.2 1-.3.6-.3-.6-.6-1.3-1-1.9-.5-.8-1.4-1.3-2-2-.3-.1-.4-.3-.3-.6zm7.3 1.9c.1-.1.3-.2.4-.3.8 1.4 1.1 3 1.5 4.5.1.5.3 1.1 0 1.6-.6-.9-.7-1.9-1-2.9-.3-.9-.8-1.8-.9-2.9z" class="st21"/></g></svg>