<?xml version="1.0" encoding="utf-8"?>
<!-- Generator: Adobe Illustrator 25.2.0, SVG Export Plug-In . SVG Version: 6.00 Build 0)  -->
<svg version="1.1" id="Layer_1" xmlns="http://www.w3.org/2000/svg" xmlns:xlink="http://www.w3.org/1999/xlink" x="0px" y="0px"
	 viewBox="0 0 180 180" style="enable-background:new 0 0 180 180;" xml:space="preserve">
<style type="text/css">
	.st0{clip-path:url(#SVGID_2_);}
	.st1{fill:#FFF0CF;}
	.st2{fill:#BA9F80;}
	.st3{fill:#38312D;}
	.st4{fill:#F2844F;}
	.st5{fill:#E56324;}
	.st6{fill:#F95939;}
	.st7{fill:#C5B68E;}
	.st8{fill:#D4C7AB;}
	.st9{fill:#C1AF84;}
	.st10{fill:#C2B085;}
	.st11{fill:#C7BA95;}
	.st12{fill:#DDD5C1;}
	.st13{fill:#C1AE83;}
	.st14{fill:#D3C7AD;}
	.st15{fill:#C0AE83;}
	.st16{fill:#CDC3A7;}
	.st17{fill:#D0C9AE;}
	.st18{fill:#FDBB9C;}
	.st19{fill:#B65A35;}
	.st20{fill:#D3CAB3;}
	.st21{fill:#D3CAAE;}
	.st22{fill:#160E0B;}
	.st23{fill:#B75C37;}
	.st24{fill:#B95D38;}
	.st25{fill:#BC5F3F;}
	.st26{fill:#FDB998;}
	.st27{fill:#FBB490;}
	.st28{fill:#C7B992;}
	.st29{fill:#C5B38B;}
	.st30{fill:#CA8D77;}
	.st31{fill:#CA8C70;}
	.st32{fill:#BD6543;}
	.st33{fill:#FDB694;}
	.st34{fill:#BA5D37;}
	.st35{fill:#CABD9D;}
	.st36{fill:#C0AD83;}
	.st37{fill:#D1444D;}
	.st38{fill:#FBBB9E;}
	.st39{fill:#C77F63;}
	.st40{fill:#FBAA87;}
	.st41{fill:#C2B187;}
	.st42{fill:#BC633F;}
	.st43{fill:#B95E3A;}
	.st44{fill:#CABC95;}
	.st45{fill:#FCC0A4;}
	.st46{fill:#D6CEB4;}
	.st47{fill:#C26D4C;}
	.st48{fill:#C4B48B;}
	.st49{fill:#D8CCB4;}
	.st50{fill:#D5CAB5;}
	.st51{fill:#D1CAAE;}
	.st52{fill:#CEC2A5;}
	.st53{fill:#150F0C;}
</style>
<g>
	<defs>
		<rect id="SVGID_1_" width="180" height="180"/>
	</defs>
	<use xlink:href="#SVGID_1_"  style="overflow:visible;fill:#30C689;"/>
	<clipPath id="SVGID_2_">
		<use xlink:href="#SVGID_1_"  style="overflow:visible;"/>
	</clipPath>
	<g class="st0">
		<path class="st1" d="M82.7,21.4c2.5-0.4,5-0.5,7.5-0.3c3.4,0.1,6.8,0.4,10,1.2c2.3,0.4,4.6,1,6.6,2.1c0.8,0.4,1.5,1.2,2.1,1.8
			c1,1.1,2.2,2.1,3,3.3c1,0.1,2.1,0.2,3,0.5c0.8,0.2,1.6,0.6,2.3,0.8c0.9,0.3,1.7,0.8,2.5,1.2s1.4,0.9,2.1,1.4
			c1.1,0.8,2.1,1.7,2.9,2.7c0.9,1,1.7,2,2.4,3.1c0.4,0.8,1,1.6,1.4,2.4c0.7,1.4,1.2,2.9,1.7,4.5c0.9,2.3,1.3,4.7,1.9,7.1
			c0.3,1.2,0.7,2.3,0.8,3.5c0.4,1.7,0.7,3.3,1.1,5c0.3,1.3,0.4,2.6,0.7,4c0.4,2.8,0.4,5.7,0.4,8.5c-0.3,2.9-0.7,5.8-1.1,8.7
			c-0.2,1.4-0.5,2.7-0.8,4.1c-0.7,2.7-1.4,5.3-2.3,7.9c-1.7,4.9-3.4,9.8-5,14.7c-0.7,2.5-1.5,4.9-2.3,7.4c-0.3,1.3-0.8,2.5-1.2,3.7
			c-0.7,2.4-1.5,4.7-2.1,7.1c-0.3,1.3-0.7,2.7-0.8,4c-0.2,1.7-0.4,3.5-0.5,5.2c0,1.6,0,3.2,0,4.8c0,0.8-0.1,1.7,0.2,2.6
			c0.5,1.7,1.1,3.4,1.7,5c0.4,1.4,0.9,2.8,1.5,4.2c0.2,0.6,0.4,1.2,0.6,1.9c-0.1-0.1-0.3-0.2-0.4-0.3c-0.1,0-0.3,0-0.4,0.1
			c-0.3-0.7-0.6-1.4-0.8-2.1c-1-0.5-2.1-0.8-3.1-1.3c-1-0.4-2.2-0.6-3.3-0.9c-2.8-0.8-5.7-1.2-8.6-1.6c-6.1-0.8-12.2-1.5-18.2-2.5
			c-5.3-0.9-10.6-1.9-15.9-3.2c-2.5-0.6-4.9-1.4-7.3-2.2c0,0.8-0.7,1.4-1.2,1.9c-2,1.7-4,3.4-6.1,5c-0.6,0.4-1.1,0.8-1.8,1
			c-0.5,0-0.8-0.3-1-0.7c-0.1,0-0.2-0.1-0.4-0.1c-0.4,0.4-1.1,0.4-1.5-0.1c0.8-0.1,1.7-0.4,2.5-0.7c0.2,0.2,0.4,0.5,0.7,0.6
			c0.7,0.2,1.4-0.3,2-0.7c1.2-0.9,2.1-2,3.1-3c0.3-0.3,0.8-0.2,0.9-0.6c0.3-0.6,0.6-1.2,1-1.8c1-1.3,1.8-2.7,2.7-4.1
			c1-2.1,1.8-4.2,2.5-6.4c0.1-0.4,0.4-0.6,0.6-0.9c0.2-0.6,0.2-1.2,0.5-1.8c0.4-0.8,0.4-1.7,0.5-2.5c0.4-2.5,1.1-5,1.2-7.6
			c0.1-0.9,0.4-1.8,0.5-2.7c0.1-0.4,0-0.9,0-1.3c0.1-1,0.3-2,0.4-2.9c0-0.3-0.2-0.4-0.3-0.7c-0.2,0-0.4,0-0.6,0c0.2-1.6,0-3.2,0-4.8
			c0-2.4-0.1-4.7-0.2-7.1h-0.2c-0.1,0.5-0.1,1-0.1,1.5c-0.1,1.4-0.1,2.9-0.1,4.3c-0.1,2.4,0,4.7-0.3,7.1c-0.2,1.9-0.6,3.8-1,5.7
			c-0.4,1.8-0.9,3.7-1.6,5.4c-0.7,2.1-1.6,4.1-2.4,6.2c-1,2.3-2.1,4.6-3.5,6.6c-1.2,1.7-2.6,3.4-4.1,4.8c-0.8,0.6-1.6,1.2-2.4,1.7
			c-1,0.5-2.1,1-3.2,1.5c-1.5,0.6-3.2,0.7-4.8,0.8c-0.7,0-1.3-0.2-1.9-0.4c-1.1-0.4-2-1.1-2.8-1.9c-0.8-1.5-1.1-3.2-1-4.9
			c0.2-0.6,0.3-1.2,0.6-1.8c0.9-1.9,2.3-3.5,3.4-5.3c0.7-1,1.2-2.1,1.8-3.2c0.6-1,0.9-2.1,1.4-3.2c0.4-1.1,0.8-2.1,1.1-3.2
			c0.2-1.1,0.4-2.1,0.5-3.3c0.1-2.6,0-5.2-0.4-7.7c-0.2-1.8-0.5-3.6-0.9-5.4c-0.6-3.6-1.2-7.2-1.7-10.9c-0.6-3.4-1-6.8-1.2-10.3
			c0-1.9-0.2-3.8-0.1-5.8c0.1-2.5,0-5,0.3-7.6c0.2-1.3,0.2-2.6,0.4-3.9c0.2-3,0.8-5.9,1.5-8.8c0.4-2.2,1.1-4.4,1.8-6.5
			c0.3-1.1,0.8-2.1,1.1-3.2c0.5-1.4,1.1-2.8,1.7-4.2c0.8-1.9,1.7-3.9,2.9-5.6c0.8-1.4,1.8-2.7,2.9-3.8c1-1.2,2.1-2.4,3.4-3.3
			c1.3-1.2,2.9-2.1,4.4-3.2c1.4-0.9,2.9-1.8,4.4-2.5c1.2-0.6,2.5-1.2,3.7-1.7c1.2-0.4,2.4-0.9,3.6-1.2C79.8,22,81.2,21.6,82.7,21.4z
			"/>
		<path class="st2" d="M75.4,42.3c0.7-0.2,1.4-0.4,2.1-0.3c-1,0.7-2.2,0.9-3.3,1.4c0.3,0.6,0.2,1.3,0.2,2c0,1.7-0.1,3.3-0.1,4.9
			C74,57.9,72.1,65.4,71.2,73c-0.3,1.9-0.6,3.7-0.9,5.6c-0.4,1.8-0.9,3.7-1.8,5.4c-0.7,1.3-1.8,2.4-3.3,2.8
			c-1.6,0.4-3.2-0.2-4.6-0.9c-1.1-0.6-2.2-1-3.1-1.8c-1-0.8-1.9-1.7-2.7-2.7c-1-1.3-2.1-2.6-2.7-4.2c-0.8-1.7-1.3-3.6-1.6-5.4
			c-0.2-2.5,0.1-5.1,0.7-7.6c0.6-2.5,1.7-5,3.2-7.2c2-2.8,4.2-5.3,6.9-7.3c1.8-1.5,3.8-2.8,5.8-4C69.7,44.1,72.5,43,75.4,42.3z"/>
		<path class="st2" d="M118.1,71.3c0.4,0.2,0.5,0.6,0.7,0.9c0.7,1.1,1.2,2.4,1.7,3.6c0.3,1.1,0.7,2.1,1,3.2c0.4,1.1,0.6,2.3,1,3.4
			c0.3,0.8,0.4,1.7,0.7,2.6c0.3,0.7,0.4,1.4,0.5,2.1c0.1-0.2,0.3-0.4,0.4-0.6c0.2,0,0.4,0,0.5,0c0.2-0.4,0.4-0.8,0.8-1.1
			c0.6-0.7,1.1-1.5,1.7-2.2c0.3-0.4,0.5-0.8,0.8-1.2c0.8-1,1.2-2.3,1.9-3.4c0.1-0.3,0.6-0.4,0.8-0.1c0.2,0.1,0.1,0.4,0.1,0.5
			c-0.1,0.5-0.4,1-0.5,1.6c-0.4,2.2-1.2,4.3-2.1,6.3c-1.2,2.6-2.5,5.2-4.3,7.4c-0.2,0.3-0.5,0.5-0.6,0.9c-0.3,3.2-0.5,6.4-0.9,9.6
			c-0.3,1.7-0.4,3.4-0.8,5.1c-0.4,2.3-0.8,4.7-1.4,7c-0.9,4.1-1.8,8.3-2.8,12.4c-0.4,1.4-0.5,2.9-0.7,4.4c-0.2,1.7-0.4,3.3-0.5,5
			c0,1.3,0.1,2.6,0,3.9c0,1.6,0.4,3.2,0.3,4.8c-0.1,0.5-0.8,0.5-1,0.2c-0.3-0.5-0.5-1-0.7-1.6c-0.8-2.4-1.3-4.9-1.4-7.4
			c-0.1-1.2,0-2.5,0-3.7c0.2-3,0.4-6.1,0.8-9.1c0.4-2.9,0.9-5.7,1.5-8.6c0.4-2.4,1-4.7,1.5-7.1c0.6-3.1,1.1-6.2,1.5-9.4
			c0-0.3,0-0.5,0-0.8c-0.8,1.2-1.7,2.4-2.4,3.7c-0.2,0.4-0.5,0.8-0.8,1.3c-1.5,3.7-2.5,7.7-3.5,11.6c-0.6,2.6-1.1,5.3-1.3,7.9
			c-0.4,3.4-0.8,6.8-0.9,10.2c-0.1,1.5,0,3.1-0.1,4.6c0,0.4,0,0.8-0.3,1c-0.3,0.4-0.8,0.2-1.1-0.1c-0.4-0.5-0.5-1.1-0.8-1.7
			c-0.8-2.7-2.2-5.1-3.2-7.8c-0.8-2.4-1.8-4.7-2.5-7.2s-1-5-1-7.6c0-5.4,0.9-10.8,3.1-15.7c0.9-2,1.9-3.9,3.1-5.8
			c1.3-2,2.9-4,4.5-5.8c1.4-1.5,2.9-2.8,4.6-3.9c0.9-0.6,1.9-1.2,3-1.5c0.8-0.2,1.6-0.2,2.4,0c-0.3-1.3-0.5-2.7-0.8-4.1
			c-0.3-1.3-0.7-2.5-1-3.8s-0.9-2.5-1.3-3.7C118.1,71.4,118.1,71.3,118.1,71.3z"/>
		<path class="st2" d="M71.2,99.9h0.2c0,2.4,0.1,4.7,0.2,7.1c0,1.6,0.1,3.2,0,4.8c0.2,0,0.4,0,0.6,0c0.1,0.2,0.4,0.4,0.3,0.7
			c-0.1,1-0.3,2-0.4,2.9c0,0.4,0.1,0.9,0,1.3c-0.2,0.9-0.4,1.8-0.5,2.7c-0.1,2.6-0.8,5.1-1.2,7.6c-0.2,0.8-0.1,1.7-0.5,2.5
			c-0.3,0.6-0.3,1.2-0.5,1.8c-0.2,0.3-0.5,0.5-0.6,0.9c-0.7,2.2-1.5,4.3-2.5,6.4c-0.9,1.4-1.7,2.8-2.7,4.1c-0.4,0.5-0.7,1.2-1,1.8
			c-0.2,0.4-0.6,0.3-0.9,0.6c-1,1.1-1.9,2.1-3.1,3c-0.6,0.4-1.2,0.9-2,0.7c-0.3,0-0.5-0.4-0.7-0.6c-0.8,0.4-1.6,0.6-2.5,0.7
			c-0.2,0-0.5,0-0.7,0c-0.5,0-1.1,0-1.7,0c-1.3-0.4-2.4-1.2-3.5-2c-1-0.6-2.1-1.1-2.9-1.8c-0.8-0.7-1.5-1.6-2.3-2.3
			c0.3,0.1,0.5,0.3,0.8,0.4c0-0.1-0.1-0.2-0.2-0.3c0.8,0.8,1.7,1.5,2.8,1.9c0.6,0.3,1.2,0.4,1.9,0.4c1.6-0.1,3.3-0.1,4.8-0.8
			c1.1-0.4,2.1-0.9,3.2-1.5c0.8-0.5,1.7-1,2.4-1.7c1.6-1.4,3-3,4.1-4.8c1.4-2.1,2.5-4.3,3.5-6.6c0.8-2.1,1.7-4.1,2.4-6.2
			c0.7-1.7,1.2-3.6,1.6-5.4c0.4-1.9,0.8-3.7,1-5.7c0.3-2.4,0.2-4.7,0.3-7.1c0-1.4,0-2.9,0.1-4.3C71.1,100.9,71.1,100.3,71.2,99.9z"
			/>
		<path class="st3" d="M149.6,215.4C149.6,215.4,149.6,215.3,149.6,215.4c0.4-1.4,0.6-2.9,0.9-4.2c0.3-1.6,0.4-3.3,0.4-4.9
			c0.1-2.5-0.3-5.1-0.6-7.6c-0.2-1.7-0.4-3.4-0.5-5.1c-0.1-1.6-0.4-3.1-0.5-4.7c-0.1-1.8-0.3-3.6-0.5-5.4c-0.2-1.5-0.3-3-0.6-4.4
			c-0.5-2.5-1.3-5-2.4-7.4c-0.9-2-2.1-3.9-3.5-5.5c-1.2-1.2-2.5-2.3-3.9-3.3c-1-0.7-1.9-1.3-2.9-2c-2.2-1.5-4.6-2.8-6.9-4.2
			c-1-0.5-2-0.9-3-1.3c-1-0.4-2.1-0.9-3-1.4c0.2,0.6,0.4,1.2,0.6,1.9c-0.1-0.1-0.3-0.2-0.4-0.3c-0.1,0-0.3,0-0.4,0.1
			c-0.3-0.7-0.6-1.4-0.8-2.1c-1-0.5-2.1-0.8-3.1-1.3c-1-0.4-2.2-0.6-3.3-0.9c-2.8-0.8-5.7-1.2-8.6-1.6c-6.1-0.8-12.2-1.5-18.2-2.5
			c-5.3-0.9-10.6-1.9-15.9-3.2c-2.5-0.6-4.9-1.4-7.3-2.2c0,0.8-0.7,1.4-1.2,1.9c-2,1.7-4,3.4-6.1,5c-0.6,0.4-1.1,0.8-1.8,1
			c-0.5,0-0.8-0.3-1-0.7c-0.1,0-0.2-0.1-0.4-0.1c-0.4,0.4-1.1,0.4-1.5-0.1c-0.2,0-0.5,0-0.7,0c-0.2,0.1-0.4,0.3-0.6,0.3
			c-0.4,0-0.7-0.2-1-0.3c-1.3-0.4-2.4-1.2-3.5-2c-1-0.6-2.1-1.1-2.9-1.8c-0.8-0.7-1.5-1.6-2.3-2.3c0.3,0.1,0.5,0.3,0.8,0.4
			c0-0.1-0.1-0.2-0.2-0.3c-0.8-1.5-1.1-3.2-1-4.9c0.2-0.6,0.3-1.2,0.6-1.8c-1.2-0.1-2.3,0-3.5,0.1c-2.2,0.3-4.4,1-6.6,1.3
			c-2.1,0.3-4.1,0.7-6.1,1.5c-1.3,0.5-2.5,1.4-3.5,2.4c-1.3,1.5-2.6,3.2-3.7,4.8c-1.6,2.3-2.9,4.7-4.2,7.2c-0.6,1.1-1.1,2.2-1.6,3.3
			c-1,2.4-2.1,4.8-3,7.3c-1,2.5-1.8,5-2.8,7.5c-0.8,1.9-1.5,3.9-2.5,5.7c-0.8,1.4-1.3,2.9-2.1,4.4c-0.5,1-0.9,2.1-1.5,3.2
			c-0.9,2-1.6,4.1-2.5,6.1c-1.1,2.8-1.5,5.8-2.1,8.8c-0.4,2.3-0.9,4.6-1.2,6.8c-0.4,2.9-1.1,5.8-1.3,8.8H149.6L149.6,215.4z"/>
		<path class="st1" d="M51,148.9c0.5,0,1.1,0,1.7,0c-0.2,0.1-0.4,0.3-0.6,0.3C51.7,149.3,51.4,149.1,51,148.9z"/>
	</g>
	<g class="st0">
		<path class="st4" d="M105.3,38.3c0.2,0,0.4,0,0.6,0.1c0.5,0.3,0.8,0.8,1.2,1.3c0.6,0.8,1.3,1.6,1.9,2.4c0.5,0.7,0.8,1.5,1.2,2.3
			c0.7,1.2,1.3,2.4,1.9,3.6c0.7,1.7,1.5,3.3,2.2,4.9c0.7,1.4,1.2,2.9,1.8,4.3c0.9,2.6,1.8,5.3,2.3,8c0.1,0.7,0.3,1.4,0.4,2.1
			c0.1,0.5,0.1,1.1,0.4,1.7c-0.3,0.6-0.4,1.3-0.4,2c-0.1,1.3-0.4,2.6-0.5,4c-0.2,1.5-0.4,3-0.6,4.5c-0.3,2.2-0.7,4.5-1.2,6.6
			c-0.4,1.9-0.7,3.8-1.1,5.7c-0.1,0.6-0.2,1.2-0.3,1.9c-0.3,0.9-0.7,1.7-1,2.6c-1.7,3.8-3.3,7.5-5.4,11.1c-0.1,0.2-0.2,0.4-0.4,0.5
			c-1,0.5-1.8,1.3-2.7,2.1c-0.6,0.5-1.2,1-1.9,1.6c-0.8,0.7-1.7,1.3-2.6,1.8c-1.1,0.5-2.1,1-3.2,1.6c-1.2,0.7-2.5,1.2-3.8,1.4
			c-1.5,0.2-3.1,0.4-4.6,0.1c-1.1-0.1-2.2-0.5-3.3-0.9c-1.1-0.4-2.1-1.1-3-1.7c-1.1-0.8-2.1-1.5-3.1-2.4c-1-0.8-1.8-1.7-2.5-2.7
			c-1.1-1.3-2.2-2.7-3.1-4.1c-0.5-0.8-1.2-1.7-1.7-2.5c-0.6-0.9-1.1-1.9-1.7-2.8c-0.4-0.6-1-1.2-1.4-1.8c-0.2-0.4-0.5-0.7-0.8-1
			c-0.3-0.7-0.4-1.5-0.8-2.1c-0.5-1.6-1.4-2.9-2.3-4.3c0-0.1-0.1-0.2-0.1-0.3c0-0.6-0.2-1.2-0.4-1.8c0.1-0.4,0.3-0.8,0.3-1.2
			c0-1.6-0.3-3.1-0.3-4.6c-0.1-2.8,0.4-5.6,1.1-8.3c0.5-1.9,0.9-3.7,1.7-5.5c0.6-1.3,1.2-2.7,2-3.9c1.7-2.7,3.7-5.1,6.1-7.3
			c1.8-1.6,3.8-3,6-4.2c2-1.1,4-2,6-3c1.7-0.9,3.6-1.7,5.3-2.7c1.8-1.1,3.8-1.9,5.6-3c1.9-1.1,3.7-2.5,5.2-4c0.6-0.7,1.2-1.2,1.6-2
			C105.5,38.4,105.4,38.3,105.3,38.3z"/>
		<path class="st5" d="M104.3,38.9c0.4-0.2,0.7-0.4,1.1-0.6c0,0,0.1,0.1,0.2,0.1c-0.4,0.8-1,1.4-1.6,2c-1.5,1.6-3.3,2.9-5.2,4
			c-1.8,1.1-3.8,1.9-5.6,3c-1.7,0.9-3.5,1.8-5.3,2.7c-2,1-4,1.9-6,3c-2.1,1.2-4.1,2.6-6,4.2c-2.3,2.1-4.3,4.6-6.1,7.3
			c-0.8,1.2-1.3,2.6-2,3.9c-0.8,1.7-1.2,3.6-1.7,5.5c-0.7,2.7-1.2,5.5-1.1,8.3c0,1.6,0.2,3.1,0.3,4.6c0,0.4-0.1,0.8-0.3,1.2
			c-0.4-0.2-0.9-0.2-0.9-0.7c0-0.6,0.2-1.2,0.2-1.8c-0.1-1.7-0.2-3.4-0.4-5.1c0-1.5-0.2-3-0.3-4.6c-0.1-1.3-0.4-2.7-0.8-4
			c-0.1-0.4-0.2-1-0.4-1.4c-0.2-0.3-0.6,0-0.9,0c0-0.1,0-0.3,0-0.4c0.2-0.1,0.4-0.2,0.6-0.4c0-0.5,0-1.1-0.1-1.7
			c-0.1-1.7-0.2-3.5,0-5.3c0.2-2.2,0.5-4.5,1.3-6.6c0.6-1.7,1.3-3.3,2.2-4.9c1.4-2.3,3.2-4.4,5.3-6.1c1.3-1.2,2.9-2.2,4.6-2.9
			s3.5-1.2,5.3-1.4c1.4-0.1,2.9-0.3,4.3-0.3c2.9,0,5.8,0.6,8.7,0.8c1.7,0.1,3.4,0.1,5.1-0.3C100.7,40.5,102.5,39.8,104.3,38.9z"/>
		<path class="st6" d="M124.4,64.9c1.1-0.2,2.3-0.2,3.3,0.3c0.8,0.4,1.7,0.9,2.3,1.6c0.6,0.8,1.3,1.6,1.6,2.5c0.6,1.7,1,3.5,0.7,5.3
			c-0.2,1.2-0.4,2.5-0.9,3.7c-0.8,2-1.9,3.8-3,5.6c-1.2,1.8-2.7,3.5-4.1,5.1c-2.3,2.4-5.3,4-8.5,4.7c-0.3,0-0.6,0-0.9,0
			c0.1-0.6,0.2-1.2,0.3-1.9c0.4-1.9,0.6-3.8,1.1-5.7c0.5-2.2,0.9-4.4,1.2-6.6c0.2-1.5,0.4-3,0.6-4.5c0.1-1.3,0.4-2.6,0.5-4
			c0-0.7,0.2-1.3,0.4-2c0.7-1,1.5-1.9,2.4-2.6C122.3,65.6,123.4,65.1,124.4,64.9z"/>
		<path class="st6" d="M58.8,70.8c0.2-0.4,0.5-0.6,0.9-0.8c0.6-0.1,1.2,0.1,1.9,0.1c0,0.1,0,0.3,0,0.4c0.3,0,0.7-0.3,0.9,0
			c0.3,0.4,0.3,0.9,0.4,1.4c0.4,1.3,0.7,2.6,0.8,4c0,1.5,0.3,3,0.3,4.6c0.1,1.7,0.3,3.4,0.4,5.1c0,0.6-0.2,1.2-0.2,1.8
			c0,0.5,0.6,0.5,0.9,0.7c0.2,0.6,0.4,1.2,0.4,1.8c-0.4-0.4-0.6-0.8-1-1.2c-0.5-0.6-1.1-1-1.6-1.6c-0.6-0.6-1.2-1.2-2-1.6
			c-0.5-0.4-1.2-0.6-1.6-1.2c-0.3-0.3-0.1-0.8-0.2-1.1c-0.2-1.2-0.4-2.4-0.4-3.7c-0.2-2.3-0.2-4.6-0.1-6.9
			C58.7,72,58.6,71.3,58.8,70.8z"/>
		<path class="st5" d="M68.7,96.5c0.3,0.3,0.6,0.7,0.8,1c0.4,0.7,0.9,1.2,1.4,1.8c0.7,0.9,1.2,1.9,1.7,2.8c0.5,0.8,1.2,1.7,1.7,2.5
			c0.9,1.5,2,2.8,3.1,4.1c0.8,0.9,1.6,1.9,2.5,2.7c1,0.8,2.1,1.6,3.1,2.4c1,0.7,1.9,1.3,3,1.7c1.1,0.4,2.1,0.8,3.3,0.9
			c1.5,0.2,3.1,0,4.6-0.1c1.3-0.3,2.6-0.8,3.8-1.4c1.1-0.5,2.1-1.1,3.2-1.6c0.9-0.5,1.7-1.2,2.6-1.8c0.6-0.5,1.2-1,1.9-1.6
			c0.8-0.8,1.7-1.6,2.7-2.1c-0.1,0.2-0.2,0.4-0.3,0.7c-0.2,1-0.5,2-1,2.9c-0.9,2.1-2.1,4-3.8,5.5c-2.3,2.2-4.7,4.2-7.3,6
			c-1.9,1.3-3.9,2.5-5.9,3.7c-2,1.1-4.1,2.1-6.1,3.3c-1.6,1-3.2,2.1-4.6,3.4c-1.6,1.4-2.9,3-4.1,4.8c-1.7,2.4-3.2,4.8-4.9,7.1
			c-1.2,1.8-2.5,3.6-4,5.4c-2.5,3.3-5.6,6.1-9.1,8.3c-1.1,0.7-2.3,1.4-3.4,2.1c-1.4,0.8-2.9,1.2-4.5,1.7c0-3.3,0-6.6,0.3-9.9
			c0.2-1.2,0.1-2.5,0.3-3.8c0-0.3,0.1-0.8,0.5-0.8c0.6,0.1,1.2,0.4,1.8,0.4c1.2,0.1,2.4,0,3.5-0.4c1.3-0.4,2.5-0.9,3.7-1.6
			c2-1.2,3.7-2.9,4.9-5c3-5.6,5.2-11.6,6.2-17.9c0.6-3.3,0.9-6.7,0.9-10c0-2.6,0-5.1-0.3-7.7c0-0.7-0.4-1.2-0.4-1.9
			c-0.1-0.8-0.2-1.7-0.4-2.5C70,99.9,69.1,98.3,68.7,96.5z"/>
		<path class="st4" d="M49.3,179.6c0.4,2.6,0.7,5.2,1.5,7.8c0.7,2.5,1.7,4.8,2.5,7.1c0.5,1.3,1.2,2.6,1.7,3.9
			c0.9,2.1,2.2,4.1,3.3,6.1c1.2,1.9,2.4,3.7,3.7,5.5c0.7,1,1.4,2,2.1,2.9c0.6,0.8,1.2,1.5,2.1,2c0.3,0.1,0.4,0.4,0.7,0.6h1.2
			c0.1,0,0.1-0.1,0.2-0.2c0.8-0.8,1.6-1.9,2.3-2.8c0.6-0.7,1.2-1.4,1.7-2.1c0.8-1.1,1.7-2.1,2.6-3.2c1.5-2,3.1-3.8,4.6-5.8
			c2.2-2.6,4.3-5.3,6.5-7.9c1.3-1.7,2.7-3.3,4-5c0.9-1.1,1.9-2.2,2.8-3.3c1.5-1.8,2.9-3.7,4.5-5.4c1.4-1.7,2.9-3.4,4.4-5
			c1.6-1.8,3.3-3.4,4.9-5.2c2.9-3.1,6.1-6,9.4-8.8c1.7-1.4,3.5-2.5,5.3-3.7c0.5-0.4,1.2-0.6,1.7-1c0.3-0.7,0-1.5-0.5-2
			c-0.9-0.8-1.6-1.8-2.3-2.7c-0.7-0.8-1.3-1.7-2-2.7c-0.8-1.2-1.7-2.2-2.4-3.4c-0.6-0.9-1-1.8-1.5-2.8c-1.2-2-2-4.2-2.8-6.4
			c-0.8-2-1.3-4.1-1.9-6.2c-0.5-2-0.8-4-1.1-6.1c-0.2-1.5-0.3-2.9-0.5-4.5c-0.1-1.3-0.3-2.7-0.4-4c0-1.2-0.1-2.4-0.1-3.6
			c0-1.1-0.1-2.1,0-3.2c-0.2,1-0.6,2-1,2.9c-0.9,2-2.1,4-3.8,5.5c-2.3,2.2-4.7,4.2-7.3,6c-1.9,1.3-3.9,2.5-5.9,3.7
			c-2,1.1-4.1,2.1-6.1,3.3c-1.6,1-3.2,2.1-4.6,3.4c-1.6,1.4-2.9,3-4.1,4.8c-1.7,2.4-3.2,4.8-4.9,7.1c-1.2,1.8-2.5,3.6-4,5.4
			c-2.5,3.3-5.6,6.1-9.1,8.3c-1.1,0.7-2.3,1.4-3.4,2.1c-1.4,0.8-2.9,1.2-4.5,1.7c-0.2,2.7,0,5.5-0.2,8.2c-0.1,1.4-0.1,2.8-0.1,4.1
			C49,176.5,49,178.1,49.3,179.6z"/>
	</g>
	<g class="st0">
		<path class="st7" d="M84.9,24.2c0.5,0,1.1-0.1,1.6-0.1c1.3,0,2.6-0.1,3.9-0.1c2.9,0,5.9,0.1,8.8,0.8c2,0.5,3.9,0.9,5.8,1.7
			c0.5,0.2,1.2,0.4,1.4,1c-0.7,0-1.2-0.4-1.7-0.6c-1.7-0.7-3.6-1-5.4-1.4c-2.6-0.5-5.3-0.9-7.9-1c-2-0.1-4,0-5.9,0
			c-0.6,0-1.2,0-1.9,0c0.1,0,0.3-0.1,0.4-0.2C84.2,24.2,84.6,24.3,84.9,24.2z"/>
		<path class="st8" d="M81.3,24.5c0.9-0.1,1.7-0.2,2.6-0.2c-0.1,0-0.3,0.1-0.4,0.2c0.6,0,1.2,0,1.9,0c-0.4,0.2-0.8,0.1-1.2,0.1
			c-2.8,0.2-5.5,0.5-8.2,1.2c-0.8,0.2-1.5,0.5-2.2,0.7c0-0.1,0-0.2,0-0.3C76.2,25.3,78.7,24.8,81.3,24.5z"/>
		<path class="st9" d="M80.6,27.2c3.1-0.6,6.3-0.8,9.5-0.4c1.8,0.2,3.6,0.4,5.3,0.8c1.2,0.3,2.5,0.4,3.7,0.6c2,0.4,4.1,0.8,6.1,1.1
			c1.3,0.1,2.6,0.4,3.9,0.1c0,0.1,0,0.2,0.1,0.3c-0.5,0.2-1.1,0.4-1.7,0.4c-2.2,0-4.5-0.5-6.6-0.9c-1.5-0.3-2.9-0.5-4.4-0.8
			c-2.9-0.5-5.8-0.9-8.8-1c-5.2-0.1-10.4,1.1-15.2,3.1c-1.4,0.6-2.7,1.2-3.9,2.2c-0.3,0.3-0.6,0.5-1,0.7c0.1-0.6,0.7-0.8,1-1.1
			c1.9-1.5,4.1-2.5,6.4-3.3C76.7,28.3,78.6,27.6,80.6,27.2z"/>
		<path class="st10" d="M79,31.6c2.9-0.3,5.8-0.3,8.7,0c1.8,0.1,3.6,0.3,5.4,0.5c2.1,0.2,4.3,0.4,6.5,0.5c1.2,0,2.5,0.1,3.7,0.1
			c0.9,0,1.8-0.1,2.7-0.1c0.4,0,0.8,0,1.2,0c-0.1,0.1-0.3,0.1-0.4,0.2c-0.7,0.2-1.4,0.2-2.1,0.3c-1.5,0-3,0.1-4.5,0
			c-1.8,0-3.6-0.2-5.4-0.3c-1.7-0.1-3.5-0.4-5.2-0.4c-3.4-0.2-6.8-0.3-10.2,0c-2.9,0.3-5.8,0.5-8.6,1.3c-1.8,0.5-3.5,1.3-5.1,2.2
			c-1.7,1.1-3.2,2.4-4.6,3.8c-0.7,0.6-1.3,1.3-2,2c-0.1-0.1-0.2-0.2-0.3-0.3c1.4-1.5,2.8-2.9,4.3-4.3c1.4-1.3,2.9-2.4,4.7-3.1
			c1.5-0.7,3.1-1.3,4.8-1.6C74.7,32,76.8,31.7,79,31.6z"/>
		<path class="st11" d="M110.7,31.3c0.1,0,0.3,0,0.4,0c0,0.3-0.1,0.6-0.3,0.9c-1.1,1.7-2.2,3.4-3.5,4.9c-0.7,0.7-1.4,1.5-2.3,1.9
			c0,0-0.1-0.1-0.1-0.2c0.7-0.4,1.3-0.9,1.8-1.6C108.2,35.3,109.3,33.2,110.7,31.3z"/>
		<path class="st12" d="M105.9,32.5c0.6-0.2,1.2-0.2,1.7-0.2c0,0.5-0.6,0.4-0.9,0.5c0.1-0.1,0.3-0.1,0.4-0.2
			C106.7,32.5,106.3,32.5,105.9,32.5z"/>
		<path class="st13" d="M115.2,33.4c0.5,0.3,0.8,0.8,1.3,1.1c2.3,1.7,4.1,3.8,5.8,6.1c1.2,1.7,2.3,3.6,3.1,5.6
			c0.9,2.3,1.8,4.7,2.4,7.2c0.4,1.4,0.6,2.9,0.9,4.4c0.2,0.9,0.4,1.9,0.4,2.9c0,0.3,0,0.6,0,0.9c0-0.4-0.1-0.8-0.3-1.2
			c-0.3-0.8-0.3-1.6-0.5-2.4c-0.4-2.1-1.1-4.2-1.7-6.3c-0.8-2.4-1.6-4.8-2.8-7c-1-2-2.3-3.8-3.7-5.6c-0.9-1.2-1.9-2.3-2.9-3.3
			c-0.6-0.5-1.2-1.1-1.7-1.7C115.2,33.8,115.3,33.6,115.2,33.4z"/>
		<path class="st14" d="M105.1,35.6c0.4-0.4,1-0.7,1.6-0.8c-0.2,0.5-0.8,0.7-1.2,1c0,0,0-0.2,0-0.3
			C105.3,35.6,105.2,35.6,105.1,35.6z"/>
		<path class="st9" d="M112.2,34.9c0.5,0,0.8,0.4,1.2,0.8c1.1,1.1,2.2,2.2,3.1,3.5c1.7,2.3,2.9,4.8,4.1,7.4c1.2,2.7,2.1,5.5,2.7,8.4
			c0.3,1.5,0.7,3.1,0.8,4.6c0,0.4,0,0.8,0,1.2c0-0.4-0.1-0.8-0.3-1.2c-0.2-0.5-0.3-1.1-0.4-1.6c-0.5-2.3-1.1-4.6-1.9-6.7
			c-1.5-4.1-3.3-8.1-5.8-11.7c-0.8-1.2-1.7-2.3-2.6-3.4C112.9,35.8,112.4,35.5,112.2,34.9z"/>
		<path class="st15" d="M99.6,36.7c1.9,0,3.7-0.4,5.4-1.2c0.1,0,0.3,0,0.4,0c0,0,0,0.2,0,0.3c-1.2,0.7-2.7,1-4.1,1.3
			c-2.4,0.4-4.8,0.3-7.2,0.3c-1.4,0-2.9-0.1-4.3-0.1c-1.7-0.1-3.3-0.2-5-0.2c-1.6-0.1-3.3-0.1-4.9,0c-1.2,0.1-2.4,0.1-3.6,0.3
			c-1.6,0.2-3.1,0.3-4.6,0.8c-2,0.6-3.8,1.3-5.6,2.3c-1.8,0.9-3.4,2.2-5,3.5c-0.8,0.7-1.6,1.3-2.3,2.1c-0.3,0.4-0.6,0.7-0.9,1
			c-0.1,0.1-0.2,0.2-0.4,0.2c0.1-0.2,0.2-0.4,0.3-0.6c0.3-0.4,0.6-0.6,0.8-1c0.8-1,1.7-1.8,2.6-2.6c1.4-1.2,2.9-2.5,4.5-3.3
			c1.8-1,3.7-1.8,5.8-2.5c1.7-0.5,3.5-0.7,5.3-0.8c2-0.2,4-0.3,6-0.4c1.7,0,3.3,0.1,4.9,0.2c2.5,0.2,5,0.4,7.4,0.4
			C96.8,36.8,98.2,36.9,99.6,36.7z"/>
		<path class="st9" d="M109.2,37.9c0.4,0.3,0.8,0.8,1.1,1.2c1.1,1.5,2.3,2.9,3.2,4.5c1.6,2.7,3.1,5.6,4,8.6c0.4,1.1,0.7,2.2,0.9,3.3
			c0.4,1.7,0.7,3.4,1.2,5.1c0.1,0.4,0.4,0.9,0.4,1.4c0,0.2,0,0.3,0,0.5c-0.1-0.3-0.3-0.6-0.4-0.9c-1.1-2.3-1.6-4.8-2.4-7.2
			c-0.8-2.9-1.9-5.8-3.4-8.5c-0.9-1.7-1.8-3.4-3-5C110.4,40,109.6,39.1,109.2,37.9z"/>
		<path class="st16" d="M55,46c1.2-1.5,2.4-3.1,3.8-4.5c0.1,0.1,0.2,0.2,0.3,0.3c-0.3,0.4-0.6,0.8-0.9,1.1c-0.7,0.7-1.2,1.4-1.9,2.2
			c-0.4,0.5-0.8,1.1-1.3,1.5C54.8,46.3,54.9,46.1,55,46z"/>
		<path class="st17" d="M57.3,47.5c0.2-0.3,0.4-0.6,0.7-0.8c-0.1,0.2-0.2,0.4-0.3,0.6c0.1-0.1,0.2-0.1,0.4-0.2
			c-0.2,0.4-0.5,0.8-0.8,1.1c-1.9,2.5-3.6,5.2-5,8c-0.2,0.4-0.4,0.8-0.8,1.1c0-0.3,0.2-0.5,0.3-0.8c0.6-1.1,1.1-2.3,1.8-3.3
			C54.8,51.1,56,49.3,57.3,47.5z"/>
		<path class="st18" d="M99.9,55.9c1.4-0.4,2.9-0.7,4.3-0.7c0.6,0,1.2,0,1.7,0.2c-0.1,0.2-0.3,0.4-0.6,0.3c-2.1-0.1-4.1,0.4-6.1,1
			c-1,0.3-2,0.8-3,1.2c0,0-0.2-0.1-0.3-0.1C97,56.7,98.5,56.2,99.9,55.9z"/>
		<path class="st19" d="M99.3,60.1c2-0.9,4.2-1.3,6.3-1.2c1.9,0,3.8,0.3,5.5,1.2c0.5,0.3,1.1,0.5,1.5,0.9s0.9,0.7,1.2,1.2
			c-0.2,0.1-0.4,0.1-0.6,0.1c-2.3,0-4.7-0.1-7,0.3c-2,0.3-3.8,0.9-5.7,1.6c-1,0.4-2.1,0.6-3.1,1.1c-0.5,0.2-1,0.1-1.5,0.1
			c-0.6,0-1.1-0.6-0.9-1.2c0.1-1.1,0.9-2,1.7-2.7C97.6,61,98.5,60.6,99.3,60.1z"/>
		<path class="st14" d="M123.9,59.7c0.2,0.4,0.2,0.8,0.3,1.2c0-0.4,0-0.8,0-1.2c0.2,0.5,0.2,1,0.3,1.5c0.1,0.4,0.1,0.8,0.1,1.2
			c-0.1,0-0.2,0-0.3,0C124.2,61.4,123.9,60.6,123.9,59.7z"/>
		<path class="st19" d="M70.4,60.6c1.2-0.4,2.5-0.5,3.8-0.7c1.5-0.1,2.9,0,4.4,0.1c1,0.1,2,0.5,2.9,0.8c1,0.4,2,1,2.8,1.7
			c0.4,0.4,0.8,1,0.8,1.7c0,0.5-0.4,0.9-1,0.9c-1.5-0.1-2.8-0.8-4.2-0.9c-1.9-0.3-3.8-0.5-5.7-0.8c-1.3-0.2-2.6-0.2-4-0.1
			c-1,0.1-2,0.2-3,0.3c-0.7,0-1.5,0-2.2,0C66.5,62.1,68.4,61.2,70.4,60.6z"/>
		<path class="st20" d="M128.8,60.2c0.2,0.4,0.2,0.8,0.3,1.2c0-0.3,0-0.6,0-0.9c0.2,0.5,0.2,1,0.2,1.5c0.1,0.6,0.1,1.2,0.1,1.8
			c0,0-0.2,0-0.3,0C129.1,62.6,128.9,61.4,128.8,60.2z"/>
		<path class="st21" d="M119.7,61.6c0.2,0.3,0.3,0.6,0.4,0.9c0-0.2,0-0.3,0-0.5c0.4,0.6,0.5,1.2,0.8,1.8c0.2,0.7,0.5,1.3,0.6,2
			c-0.4-0.3-0.5-0.8-0.7-1.2C120.5,63.6,120,62.6,119.7,61.6z"/>
		<path class="st22" d="M106,68c0.4-0.1,0.9,0.1,1.1,0.6s0.1,1.2,0.1,1.7c-0.1,0.5-0.2,1.2-0.8,1.4c-0.5,0.3-1.2,0.1-1.5-0.4
			c-0.4-0.8-0.4-1.7,0-2.5C105.2,68.4,105.6,68,106,68z"/>
		<path class="st22" d="M73.9,69.2c0.4-0.2,0.9-0.1,1.2,0.2c0.4,0.4,0.5,1,0.6,1.5c0,0.5,0,1.1-0.2,1.7c-0.2,0.4-0.6,0.9-1.2,0.8
			c-0.4,0-0.8-0.4-1-0.8c-0.4-0.7-0.4-1.6-0.2-2.3C73.3,69.9,73.5,69.4,73.9,69.2z"/>
		<path class="st23" d="M120.9,72.5c0.6-0.7,1.5-1.2,2.5-1.2c0.9,0,1.8,0.3,2.4,1.1c0.5,0.8,0.7,1.7,0.6,2.7c0,1.3-0.5,2.6-1.1,3.8
			c-1,2.1-2.7,3.7-4.4,5.3c0-0.2,0-0.4,0.1-0.5c1.5-1.6,3-3.3,3.9-5.4c0.5-1.3,0.8-2.8,0.5-4.1c-0.1-0.5-0.4-1.1-0.9-1.4
			c-0.6-0.4-1.3-0.3-1.9-0.1c-0.6,0.2-1,0.6-1.6,0.8C120.6,73.1,120.8,72.7,120.9,72.5z"/>
		<path class="st24" d="M103.6,72.8c0.5,0,0.9,0.1,1.4,0.1c1,0,1.9,0,2.9-0.2c0,0.1,0,0.2,0,0.3c-0.9,0.2-1.8,0.4-2.8,0.4
			c-0.5,0-1,0-1.4-0.3C103.6,73,103.6,73,103.6,72.8z"/>
		<path class="st25" d="M59.3,74.1c0.7,0,1.2,0.5,1.5,1c0.6,1,0.8,2.2,1.1,3.3c0.4,1.6,0.7,3.3,0.8,4.9c0,0.5,0,1.1,0,1.7
			c-0.1-0.5-0.2-1-0.3-1.5c-0.6-2.7-1-5.5-2.2-8C59.9,75,59.3,74.7,59.3,74.1z"/>
		<path class="st24" d="M72.5,74.4c1.4,0.4,2.9,0.3,4.2-0.2c0,0.1,0,0.2,0,0.3c-0.9,0.5-2,0.7-3,0.6c-0.4,0-0.8-0.2-1.2-0.4
			C72.5,74.6,72.5,74.4,72.5,74.4z"/>
		<path class="st26" d="M90.7,76.3c0.1,0,0.3,0,0.4,0c0.2,0.6,0,1.2-0.1,1.8c-0.3,1.2-0.7,2.3-1.1,3.5c-0.4,1.1-0.7,2.2-1,3.4
			c-0.1,0.3-0.1,0.7-0.5,0.8c0.1-1.5,0.6-3,1-4.5C89.7,79.6,90.3,78,90.7,76.3z"/>
		<path class="st27" d="M112.2,77.3c0.2-0.2,0.5-0.2,0.7-0.2c0,0.4-0.3,0.7-0.6,1c-0.5,0.5-1,0.9-1.5,1.4c-1.1,0.8-2.1,2-3.4,2.4
			c0-0.2-0.1-0.5,0.1-0.7c0.8-0.8,1.8-1.4,2.6-2.1c0,0-0.1-0.2-0.2-0.2c0.1,0,0.3,0,0.4,0C111,78.3,111.6,77.8,112.2,77.3z"/>
		<path class="st6" d="M74.4,77.5c1.6-0.2,3.2,0.2,4.6,0.8c1.1,0.6,2,1.6,2.5,2.8c0.7,1.7,0.4,3.7-0.4,5.3c-0.8,1.6-2.1,3-3.7,3.6
			c-1.2,0.5-2.6,0.4-3.8-0.2c-1.5-0.6-2.7-1.8-3.3-3.3c-0.6-1.2-0.8-2.5-0.5-3.8c0.2-1.2,0.7-2.4,1.5-3.3c0.4-0.5,1-0.8,1.5-1.2
			C73.1,77.8,73.7,77.5,74.4,77.5z"/>
		<path class="st6" d="M105.1,77.9c1.4-0.4,2.8-0.1,4.1,0.4c0.3,0.1,0.6,0.2,0.8,0.5c0,0,0.1,0.2,0.2,0.2c-0.9,0.7-1.8,1.4-2.6,2.1
			c-0.3,0.1-0.1,0.4-0.1,0.7c1.4-0.4,2.4-1.5,3.4-2.4c0.7,0.8,1.2,1.9,1.2,3c0.1,1.8-0.3,3.7-1.5,5c-1,1.2-2.3,2.1-3.9,2.4
			c-1.9,0.5-4-0.2-5.4-1.5c-0.7-0.8-1.3-1.7-1.6-2.7c-0.4-1.7,0-3.4,0.9-4.8c0.5-0.8,1.3-1.4,2.1-1.8
			C103.5,78.5,104.2,78,105.1,77.9z"/>
		<path class="st28" d="M50.5,78.6c0.1,0.1,0.2,0.3,0.3,0.4c0.5,1.7,1.5,3,2.4,4.5c-0.1,0.1-0.3,0.3-0.4,0.4
			c-0.4-0.4-0.6-0.9-0.9-1.4C51.3,81.2,50.6,80,50.5,78.6z"/>
		<path class="st29" d="M130.8,82.5c0.1,0,0.2,0,0.3,0c-0.2,1.4-0.4,2.9-0.8,4.3c-0.7,2.8-1.3,5.6-2.1,8.3c-0.7,2.4-1.5,4.6-2.2,7
			c-0.5,1.6-0.8,3.2-1.4,4.7c0-0.2,0-0.4,0-0.7c0.4-2.4,1.1-4.7,1.8-7c0.8-2.7,1.7-5.4,2.3-8.2c0.5-2.3,1.2-4.5,1.7-6.7
			C130.5,83.5,130.6,82.9,130.8,82.5z"/>
		<path class="st30" d="M62.7,83.3c0.3,0.8,0.2,1.6,0.2,2.3c-0.1,0-0.3,0-0.4,0c0-0.7-0.2-1.4-0.2-2.2c0.1,0.5,0.2,1,0.3,1.5
			C62.7,84.5,62.7,83.9,62.7,83.3z"/>
		<path class="st9" d="M52.8,83.9c0.1-0.1,0.3-0.3,0.4-0.4c0.7,0.9,1.3,1.9,2.2,2.6c1.2,1,2.3,2.1,3.4,3.2c1.5,1.7,3.1,3.3,4.2,5.3
			c0.9,1.6,1.7,3.2,2.2,4.9c0.6,2.2,1,4.6,1.2,6.9c0.1,2.1,0.1,4.3,0,6.4c-0.3,3.9-1.1,7.8-2.4,11.5c-0.6,1.6-1.4,3.1-2.2,4.7
			c-0.3,0.4-0.4,0.9-0.8,1.3c-0.1,0.1-0.2,0.2-0.3,0.3c0-0.1,0-0.2,0.1-0.3c1.2-2.6,2.5-5.3,3.3-8.1c1.1-4,1.7-8.1,1.6-12.3
			c0-1.9,0-3.8-0.3-5.6c-0.4-2.2-0.8-4.5-1.7-6.6c-0.6-1.4-1.2-2.8-2.1-4c-1-1.5-2.3-2.8-3.5-4.1c-0.4-0.5-1-0.9-1.5-1.4
			c-0.8-0.7-1.6-1.3-2.2-2.1C53.7,85.3,53.2,84.6,52.8,83.9z"/>
		<path class="st31" d="M119.2,84.9c0.7-0.4,1.2-0.9,1.8-1.4c0,0.2,0,0.4-0.1,0.5c0,0.1-0.1,0.2-0.2,0.3c-0.4,0.4-0.9,0.7-1.5,0.9
			C119.2,85.1,119.2,85,119.2,84.9z"/>
		<path class="st32" d="M93.3,84.5c0.3-0.3,0.7-0.2,1,0c0.4,0.3,0.7,0.8,0.6,1.4c-0.1,0.8-0.7,1.4-1.4,1.8c-0.4,0.2-0.9,0.1-1.4,0.2
			c0.1-0.1,0.3-0.2,0.4-0.3c-0.2,0-0.3-0.1-0.4-0.2c0.4,0,0.8,0,1.2-0.1c0.5-0.3,1.1-0.8,1.1-1.5C94.3,85.2,93.7,84.8,93.3,84.5z"/>
		<path class="st33" d="M117.2,86.2c0.3-0.2,0.7-0.4,1.1-0.4c1.2,0,2.4,0,3.4,0.6c0,0.1,0,0.3,0,0.4c-0.6-0.1-1.2-0.3-1.9-0.3
			c-0.7,0-1.4,0.1-2.2,0.1C117.3,86.7,117.2,86.4,117.2,86.2z"/>
		<path class="st34" d="M91.5,86.2c0.6-0.1,1.2-0.2,1.8,0c0,0.2,0,0.5-0.3,0.5C92.5,87,91.8,87,91.2,87c-0.3,0-0.4-0.3-0.3-0.5
			C91,86.2,91.3,86.2,91.5,86.2z"/>
		<path class="st35" d="M50.6,86.5c0.1,0,0.2,0,0.3,0c0.4,1.2,1.4,2,1.9,3.1c-0.1,0-0.2,0-0.4-0.1c0,0.1,0,0.2,0,0.3
			c-0.4-0.4-0.6-0.9-0.8-1.3C51.2,87.9,50.7,87.3,50.6,86.5z"/>
		<path class="st36" d="M52.5,89.5c0.1,0,0.2,0,0.4,0.1c2.5,3.9,4.3,8.3,5.2,12.9c0.6,2.6,0.8,5.3,1,8c0.1,2.5,0.3,5.1,0.1,7.7
			c-0.2,3.6-0.7,7.1-1.9,10.5c-0.6,1.7-1.6,3.4-2.5,5s-1.9,3.1-2.9,4.6c-0.1,0-0.2,0-0.3,0c0-0.1,0.1-0.3,0.1-0.4c0.6-1,1.2-2,1.8-3
			c1.3-2.4,2.7-4.7,3.4-7.4c1.2-3.9,1.6-8.1,1.6-12.2c-0.1-4.1-0.3-8.3-1-12.3c-0.4-2.3-1.1-4.6-1.9-6.8c-0.7-1.8-1.5-3.6-2.4-5.3
			c-0.2-0.4-0.4-0.7-0.5-1.1C52.5,89.8,52.5,89.6,52.5,89.5z"/>
		<path class="st24" d="M92.5,87.6c-0.2,0-0.3-0.1-0.4-0.2c-0.6,0-1.1,0.1-1.7,0.1c-0.9,0.1-1.8,0-2.7,0c-0.4,0-0.7-0.1-0.9-0.3
			c0-0.4,0-0.8,0.1-1.2c1-3.4,2.3-6.8,2.8-10.4c0.2-1.7,0.5-3.4,0.3-5.1c-0.1-1.2-0.4-2.6-1.2-3.6c-0.1-0.2-0.3-0.2-0.4-0.2
			c0.3,0.7,0.7,1.5,0.8,2.2c0.2,1.5,0.2,2.9,0.1,4.4c-0.1,2-0.4,4-1,5.9c-0.5,2.1-1.4,4.2-1.9,6.3c-0.1,0.6-0.5,1.3-0.1,2
			c0.4,0.6,1.3,0.6,2,0.7c0.8,0,1.5,0,2.3-0.1c0,0.9,0,1.8,0,2.7c0,0.6,0,1.2-0.1,1.8c0,0,0.2,0,0.3-0.1c0.2-0.7,0.3-1.4,0.3-2.1
			c0.2-0.8,0.2-1.6,0.2-2.4c0.2,0,0.4,0,0.7-0.1c0,0.5,0,1,0,1.5c0,1.1,0,2.1,0.1,3.2c0,0,0.2,0,0.3,0c0-0.5,0-1.1,0-1.6
			c0.1-0.3,0.2-0.5,0.2-0.8c0-0.8,0-1.6,0-2.3C92.3,87.8,92.4,87.7,92.5,87.6z"/>
		<path class="st6" d="M89.8,93.3c3.6-0.2,7.2-0.8,10.9-0.7c0.4,0,0.8,0.1,1.2,0.4c0.2,0.2,0,0.4,0,0.6c-0.2-0.1-0.4-0.4-0.6-0.3
			c-0.6,0.1-1.1,0.4-1.7,0.5c-2.1,0.6-4.1,1.1-6.2,1.3c-1.6,0.2-3.3,0.4-4.9,0.1c-1.4-0.2-2.9-0.3-4.3-0.7c-0.9-0.3-1.8-0.5-2.8-0.8
			c0.6-0.6,1.5-0.5,2.2-0.5C85.7,93.2,87.7,93.3,89.8,93.3z"/>
		<path class="st37" d="M101.2,93.4c0.3-0.1,0.4,0.2,0.6,0.3l-0.1,0.1c-0.1,0.1-0.1,0.1-0.2,0.2c-0.8,0.2-1.4,0.6-2.2,0.8
			c-1.1,0.2-2.2,0.6-3.3,0.7c-1.8,0.2-3.6,0.5-5.4,0.5c-2.2,0-4.4,0-6.5-0.7c-0.4-0.1-0.9-0.2-1.3-0.4c-0.6-0.2-1.1-0.5-1.6-0.8
			c0.1-0.1,0.1-0.3,0.3-0.4c0.9,0.3,1.8,0.6,2.8,0.8c1.4,0.4,2.9,0.5,4.3,0.7c1.6,0.2,3.3,0,4.9-0.1c2.1-0.2,4.2-0.8,6.2-1.3
			C100.1,93.8,100.6,93.5,101.2,93.4z"/>
		<path class="st38" d="M101.5,94c0-0.1,0.1-0.2,0.2-0.2c0.1,0.1,0.2,0.1,0.4,0.2c0,0.3-0.1,0.5-0.3,0.8c-0.5,0.8-1.1,1.5-1.8,2.1
			c-0.2,0.2-0.4,0.2-0.6,0.2c0.2-0.6,0.8-0.9,0.9-1.5C100.7,95.1,101.2,94.5,101.5,94z"/>
		<path class="st6" d="M99.3,94.8c0.8-0.2,1.4-0.6,2.2-0.8c-0.4,0.5-0.8,1.1-1.2,1.6c-0.6,0.4-1.1,1-1.8,1.2c-1.5,0.6-3,1.3-4.6,1.4
			c-2.3,0.3-4.6,0.4-6.9-0.2c-0.8-0.2-1.6-0.3-2.2-0.7c-1.5-0.8-2.7-1.9-3.7-3.3c0.5,0.3,1,0.6,1.6,0.8c0.4,0.1,0.9,0.2,1.3,0.4
			c2.1,0.7,4.3,0.7,6.5,0.7c1.8,0,3.6-0.3,5.4-0.5C97.1,95.3,98.2,95,99.3,94.8z"/>
		<path class="st39" d="M68.6,96.4c0.1,0,0.2,0,0.3,0c0.4,0.6,0.7,1.3,1.1,1.9c0.1,0.1,0.2,0.3,0.2,0.4S70.1,99,70,99.1
			c-0.3-0.3-0.4-0.7-0.7-1C69.1,97.6,68.7,97,68.6,96.4z"/>
		<path class="st40" d="M92.1,96.9c1.1,0.1,2.1-0.2,3.2-0.3c0,0.2,0,0.4-0.3,0.4c-1.2,0.4-2.4,0.6-3.7,0.5c-0.5,0-1.1-0.1-1.5-0.4
			C90.6,97,91.3,96.8,92.1,96.9z"/>
		<path class="st41" d="M51.4,97.1c0.1,0,0.2,0,0.3-0.1c0.4,1,0.8,2.1,1.1,3.1c0.9,2.7,1.3,5.5,1.7,8.3c0.4,4.7,0,9.5-1.1,14.1
			c-1,4.1-3,7.9-5,11.7c-0.1-0.1-0.2-0.2-0.3-0.3c1.6-3,3.1-6.1,4.1-9.3c1-3.3,1.4-6.6,1.7-10c0.2-3.3,0-6.7-0.5-10
			C52.9,102.1,52,99.6,51.4,97.1z"/>
		<path class="st42" d="M70,99.2c0.1-0.1,0.1-0.3,0.2-0.4c0.6,0.8,1.1,1.6,1.6,2.4c1.8,2.6,3.7,5,5.6,7.4c1,1.2,2.2,2.4,3.4,3.4
			c1,1,2.2,1.7,3.3,2.5c0.9,0.6,2,1,3,1.4c0.8,0.3,1.5,0.3,2.3,0.5c1.7,0.4,3.4,0,5.1-0.3c2-0.3,3.7-1.3,5.5-2.2
			c0.4-0.1,0.8-0.2,1.1-0.2c-2,1.2-4,2.5-6.3,2.9c-1.7,0.4-3.5,0.7-5.2,0.4c-0.9-0.3-1.9-0.4-2.7-0.7c-1.1-0.4-2.1-0.7-3.1-1.3
			c-1.2-0.7-2.3-1.5-3.3-2.5c-1-0.9-1.9-1.8-2.9-2.8c-1.3-1.4-2.4-3-3.6-4.5C72.7,103.4,71.3,101.3,70,99.2z"/>
		<path class="st43" d="M89.5,102.1c1.3-0.2,2.7,0.1,4,0.3c0.8,0.2,1.7,0.2,2.4,0.6c-0.1,0.1-0.3,0.2-0.5,0.2
			c-1.3-0.2-2.6-0.4-3.9-0.5c-1.1-0.1-2.2,0.1-3.3,0.4c-0.7,0.2-1.2,0.5-1.9,0.7c0.3-0.4,0.7-0.7,1.2-0.8
			C88.2,102.7,88.7,102.2,89.5,102.1z"/>
		<path class="st44" d="M116.3,105.6c0.2-0.8,0.4-1.6,0.8-2.4c0,1.3-0.4,2.6-0.7,3.8c-0.1,0.7-0.8,1-0.9,1.6c0,0.1-0.1,0.2-0.2,0.4
			C115.6,107.8,116,106.7,116.3,105.6z"/>
		<path class="st45" d="M89.8,104.8c1.1-0.3,2.2-0.3,3.3,0c0,0.1,0,0.2,0,0.3c-0.6,0-1.2-0.1-1.7,0c-0.5,0-1,0.1-1.5,0.2
			C89.8,105.1,89.8,105,89.8,104.8z"/>
		<path class="st46" d="M124,107.8c0.1-0.6,0.2-1.2,0.5-1.8c0,0.2,0,0.4,0,0.7c0,0.3-0.1,0.6-0.2,1c-0.8,2.9-1.5,5.7-2.3,8.6
			c0,0-0.2,0-0.2,0.1c0.3-1.2,0.7-2.4,1-3.7C123.2,111,123.6,109.4,124,107.8z"/>
		<path class="st47" d="M106.9,109.3c0.4-0.4,0.6-0.8,1.1-1.1c-0.2,0.4-0.4,0.8-0.8,1.2c-0.4,0.5-0.8,1-1.2,1.4
			c-1.2,0.9-2.4,1.7-3.7,2.5c-0.3,0.2-0.7,0.4-1,0.5c-0.4,0-0.8,0.1-1.1,0.2c1.9-1,3.8-2.2,5.4-3.7C106,110,106.5,109.7,106.9,109.3
			z"/>
		<path class="st48" d="M115.4,109c0-0.1,0.1-0.2,0.2-0.4c0.2,0.3,0.4,0.6,0.2,1c-0.8,2.9-1.6,5.7-2.2,8.5c-0.6,2.7-1.1,5.5-1.4,8.3
			c0,0.5-0.1,1-0.2,1.5c-0.1,0.4-0.2,0.8-0.3,1.2c0.1-0.7,0.1-1.3,0.1-2c0-1.4,0.2-2.7,0.4-4.1c0.4-4.1,1.5-8,2.6-11.9
			C114.9,110.4,115.1,109.7,115.4,109z"/>
		<path class="st49" d="M111.6,127.7c0-0.2,0.1-0.4,0.1-0.5c0,0.7,0,1.3-0.1,2c0.1-0.4,0.2-0.8,0.3-1.2c0,1.5-0.2,2.9-0.3,4.4
			c-0.1,0.6,0,1.3-0.4,1.8c0-0.8,0.1-1.7,0.1-2.5C111.3,130.3,111.5,129,111.6,127.7z"/>
		<path class="st50" d="M60.3,130.7c0.1-0.2,0.2-0.4,0.4-0.6c0,0.1,0,0.2-0.1,0.3c0.1-0.1,0.2-0.2,0.3-0.3c-0.3,0.8-0.8,1.5-1.2,2.3
			c-0.8,1.3-1.7,2.7-2.7,3.9c-0.2,0.3-0.4,0.5-0.8,0.7c0.4-0.8,1.1-1.4,1.5-2.1C58.7,133.6,59.6,132.2,60.3,130.7z"/>
		<path class="st51" d="M45.9,137.9c0.8-1.2,1.4-2.6,2.1-3.9c0.1,0.1,0.2,0.2,0.3,0.3c-0.2,0.6-0.6,1.2-0.9,1.7
			c-0.4,0.7-0.8,1.3-1.2,2C46.1,138,46,138,45.9,137.9z"/>
		<path class="st52" d="M50.6,139.3c0-0.6,0.6-1.1,1-1.5c0,0.1-0.1,0.3-0.1,0.4c0.1,0,0.2,0,0.3,0C51.4,138.7,51.1,139.1,50.6,139.3
			z"/>
		<g>
			<path class="st53" d="M18.7,182.9c0,0.2,0.1,0.4,0.2,0.5c0-0.1,0-0.3,0-0.4c-0.2-3-0.1-6,0.2-8.9c0.3-2.9,0.8-5.7,1.4-8.5
				c0.7-2.9,1.5-5.7,2.3-8.5c0.1-0.4,0.2-0.8,0.2-1.2c-0.3,0.2-0.4,0.7-0.4,1c-1,3.3-2.1,6.6-2.7,9.9c-0.6,3.2-1.2,6.5-1.3,9.8
				c0,1.3-0.2,2.7,0,4C18.7,181.3,18.6,182.1,18.7,182.9z"/>
			<path class="st53" d="M15.5,200.7c-0.8-2.9-1.6-5.8-1.9-8.9c0-0.8,0-1.7,0.1-2.6c-0.1,0-0.3,0-0.4,0c0,0,0,0.2,0,0.3
				c-0.4,1.2-0.3,2.5-0.2,3.7c0.3,3.7,1.6,7.1,2.7,10.7c0.8,2.5,1.6,5,2.6,7.4c0.3,0.6,0.4,1.2,0.8,1.7c0.2-0.3,0-0.6-0.1-0.9
				C17.9,208.3,16.6,204.5,15.5,200.7z"/>
			<path class="st53" d="M91.5,192.6c-1.5,1.7-3,3.3-4.5,5.1c-1.8,2.1-3.5,4.2-5,6.6c-0.2,0.4-0.6,0.7-0.4,1.2
				c0.1-0.2,0.3-0.3,0.4-0.5c2.1-3.2,4.6-6.1,7.1-8.9c1.4-1.6,2.9-3,4-4.8c0.2-0.3,0.4-0.7,0.5-1.1
				C92.8,190.8,92.2,191.7,91.5,192.6z"/>
			<path class="st53" d="M119.9,201.4c1.2-1.8,2.6-3.6,4.1-5.1c1.3-1.4,2.9-2.7,3.6-4.6c-0.5,0.1-0.8,0.6-1.1,1
				c-1,1.3-2.2,2.3-3.3,3.5c-0.8,0.8-1.5,1.8-2.1,2.7c-1.3,1.8-2.5,3.7-3.4,5.6c-0.1,0.2-0.1,0.4-0.2,0.7c0.2-0.1,0.3-0.2,0.4-0.4
				C118.4,203.6,119.1,202.5,119.9,201.4z"/>
			<path class="st53" d="M17.6,196.9c-0.1-0.4-0.2-0.8-0.4-1.2c0-0.7-0.3-1.3-0.4-1.9c-0.6-3.1-1.1-6.2-1.2-9.3
				c0-2.9,0.2-5.8,0.7-8.7c0.1-0.7,0.4-1.4,0.4-2.1c-0.4,0.3-0.4,0.8-0.6,1.2c-0.5,2.6-0.8,5.4-0.9,8.1c0,3,0.3,6,0.9,9
				c0.3,1.4,0.6,2.8,1,4.2c0,0.8,0.4,1.6,0.6,2.4c0.4,1.4,1,2.9,1.5,4.2c0,0.2,0.2,0.4,0.4,0.4c-0.1-0.7-0.5-1.2-0.7-1.9
				C18.4,199.9,18,198.3,17.6,196.9z"/>
			<path class="st53" d="M129.8,196.3c-0.8,1-1.7,1.7-2.6,2.5c-1.9,1.7-3.6,3.5-5,5.6c-1.2,1.8-2.3,3.6-3.2,5.5
				c-0.4,1-0.9,2-1.2,3.1c0.1,0,0.2,0,0.3,0c0.6-1.3,1.2-2.7,1.9-4c1.1-2,2.4-4,3.8-5.7c1.3-1.7,2.9-3.1,4.5-4.6
				c0.8-0.8,1.7-1.7,2.1-2.8C130.1,196,130,196.1,129.8,196.3z"/>
			<path class="st53" d="M123.5,208.1c-1.2,1.7-2.3,3.4-3,5.3c0.1-0.1,0.3-0.2,0.4-0.3c0.4-0.6,0.7-1.2,1.1-1.9
				c1.2-2.1,2.7-4,4.4-5.7c0.3-0.3,0.8-0.5,0.8-1c-0.5,0-0.8,0.4-1.2,0.7C125,206.1,124.2,207,123.5,208.1z"/>
			<path class="st53" d="M67.5,215.4h0.3c0-0.1,0-0.1,0-0.2c0-0.6,0-1.2,0-1.8c0.1-2.7,0.2-5.4,0.8-8c0.1-0.2-0.1-0.2-0.3-0.3
				c-0.5,1.6-0.8,3.2-0.8,4.9c0,1.4-0.1,2.9,0,4.3C67.5,214.7,67.4,215.1,67.5,215.4z"/>
			<path class="st53" d="M54.1,210.6c0.8,1.3,1.7,2.6,2.5,3.9c0.2,0.3,0.4,0.7,0.6,1h0.4c-0.6-1.1-1.3-2.2-1.9-3.3
				c-1.2-1.9-2.4-3.8-3.2-5.9c-0.1,0-0.2,0-0.4,0c0,0.6,0.3,1.2,0.6,1.8C53,208.9,53.5,209.8,54.1,210.6z"/>
			<path class="st53" d="M24.9,209.2c0-0.6-0.2-1.2-0.3-1.9c-0.6-3.2-1.2-6.3-2.2-9.4c-0.8-2.6-1.7-5.2-2.2-7.9
				c-0.2-1.1-0.3-2.3-0.5-3.4c-0.1,0.1-0.3,0.1-0.3,0.3c0,1.1,0,2.1,0.2,3.2c0.4,2.8,1.3,5.4,2.2,8.1c1,2.9,1.7,6,2.3,9.1
				c0.1,0.4,0.1,0.7,0.3,1.1c0,0.3,0,0.6,0.1,0.9c0.3,1.3,0.5,2.7,0.7,4.1c0,0,0.2,0,0.3,0.1c0-0.9-0.2-1.8-0.3-2.7
				C25.1,210.2,25.1,209.7,24.9,209.2z"/>
		</g>
	</g>
</g>
</svg>
