<?xml version="1.0" encoding="utf-8"?>
<!-- Generator: Adobe Illustrator 25.2.0, SVG Export Plug-In . SVG Version: 6.00 Build 0)  -->
<svg version="1.1" id="Layer_1" xmlns="http://www.w3.org/2000/svg" xmlns:xlink="http://www.w3.org/1999/xlink" x="0px" y="0px"
	 viewBox="0 0 180 180" style="enable-background:new 0 0 180 180;" xml:space="preserve">
<style type="text/css">
	.st0{clip-path:url(#SVGID_2_);}
	.st1{fill:#AED4DB;}
	.st2{fill:#B65A35;}
	.st3{fill:#F2844F;}
	.st4{fill:#E56324;}
	.st5{fill:#F95939;}
	.st6{fill:#DC9EB5;}
	.st7{fill:#C96A98;}
	.st8{fill:#803F26;}
	.st9{fill:#DC9EB4;}
	.st10{fill:#FDB391;}
	.st11{fill:#FEBFA1;}
	.st12{fill:#160E0B;}
	.st13{fill:#B75B36;}
	.st14{fill:#BC603D;}
	.st15{fill:#FEBF9D;}
	.st16{fill:#CC492F;}
	.st17{fill:#B95E3A;}
	.st18{fill:#D1434F;}
	.st19{fill:#FFFFFF;}
	.st20{fill:#F09280;}
	.st21{fill:#C06946;}
	.st22{fill:#FDB796;}
	.st23{fill:#B95D38;}
	.st24{fill:#58A4B2;}
	.st25{fill:#61A9B7;}
	.st26{fill:#59A4B2;}
	.st27{fill:#69ADBA;}
	.st28{fill:#89BFC7;}
	.st29{fill:#58A4B1;}
	.st30{fill:#70B1BD;}
	.st31{fill:#59A5B3;}
	.st32{fill:#6CAFBB;}
	.st33{fill:#5BA7B4;}
	.st34{fill:#73B5C0;}
	.st35{fill:#68AEBA;}
	.st36{fill:#5EA8B5;}
	.st37{fill:#81BAC4;}
	.st38{fill:#6BB0BB;}
	.st39{fill:#87BBC6;}
	.st40{fill:#9BC7C8;}
	.st41{fill:#90C4C2;}
	.st42{fill:#97C5C9;}
	.st43{fill:#83B9C3;}
</style>
<g>
	<defs>
		<rect id="SVGID_1_" x="0.2" width="179.8" height="179.8"/>
	</defs>
	<use xlink:href="#SVGID_1_"  style="overflow:visible;fill:#F9269A;"/>
	<clipPath id="SVGID_2_">
		<use xlink:href="#SVGID_1_"  style="overflow:visible;"/>
	</clipPath>
	<g class="st0">
		<g>
			<path class="st1" d="M-4,225c0,0.3-0.1,0.5-0.1,0.8h166c0-0.5-0.1-0.9-0.1-1.4c-0.1-1.6-0.1-3.1-0.2-4.6c-0.1-7-0.4-14-1-20.9
				c-0.4-6.2-1.1-12-3-18.1c-0.9-2.9-2-5.3-3.7-8c-0.4-0.6-0.8-1.2-1.2-1.9c-0.4-0.5-0.7-0.9-1.2-1.5c-1-1.1-2.1-2.1-3.3-3.1
				c-0.6-0.5-0.9-0.7-1.6-1.2c-0.6-0.4-1.2-0.9-1.9-1.3c-1.3-0.8-2.7-1.6-4-2.3c-2.7-1.4-5.5-2.7-8.3-4c-0.1,0-0.1-0.1-0.2-0.1
				c-0.1,0-0.1,0-0.2,0c-0.3,0-0.4,0.3-0.4,0.4c-0.1-0.1-0.3-0.1-0.4-0.2c-0.6,1.1-1.9,1.5-3.1,1.7c-1.3,0.2-2.7,0.2-4,0.2
				c-0.5,0-1.1,0-1.6,0c0,0-0.2,0-0.3,0c-1.3,2.6-3.3,4.9-5.4,6.9c-3.7,3.3-7.9,5.9-11.5,9.4c-1.4,1.4-2.8,3-3.2,5
				c-0.5,2.9,1.1,6,0.1,8.7c-1.6,4.1-8.1,4.7-9.5,8.9c-0.8,2.2,0.1,4.9-1.2,6.8c-1.3,1.9-4.5,2.5-4.6,4.9c0,1,0.5,1.8,0.8,2.8
				c0.7,2.6-1.7,5.4-4.4,5.4c-2.7,0.1-5.1-2.1-5.7-4.7c-0.2-0.8-0.2-1.7-0.6-2.4c-1.1-2.1-4.1-1.9-6.6-2.3
				c-5.6-0.8-9.4-7.7-7.2-12.9c1.3-3.1,4.4-5.7,4.4-9.1c0-2.4-1.6-4.5-2.9-6.6c-3.6-5.7-5.4-12.6-5-19.3c0.1-1.6,0.5-3.5,2.1-4
				c0.6-0.2,1.3-0.1,1.9-0.3c0.6-0.2,1.2-0.9,0.8-1.5c-10.7,5.4-22.6,7.9-33.8,12.2S8.5,178.7,3.8,189.7c-0.8,1.8-1.3,3.6-1.8,5.4
				c-0.1,0.4-0.2,0.7-0.3,1c-0.4,1.2-0.7,2.5-1,3.7c-0.2,0.9-0.4,1.8-0.5,2.7c-0.1,0.4-0.2,0.7-0.2,1c-0.4,1.5-1.7,7.6-2,9.2
				c-0.1,0.7-0.2,1.3,0,2c0,0.2,0,0.4-0.1,0.6C-2.3,216.3-3.6,222.7-4,225z"/>
			<path class="st2" d="M90.2,27.9c2.6-0.5,5.3-0.6,8-0.6c0.8,0,1.7,0,2.6,0.1c1.2,0.2,2.5,0.4,3.7,0.8c1.3,0.4,2.6,1,3.8,1.6
				c1.9,0.9,3.8,2,5.4,3.4c2.7,2.2,5.2,4.8,7.2,7.6c0.9,1.2,1.6,2.6,2.4,3.9c0.7,1.2,1.3,2.4,1.9,3.6c0.8,1.5,1.3,3.1,1.8,4.7
				c0.6,2,1.1,4.1,1.2,6.2c0.1,1.8,0,3.6,0,5.4c0,2.2-0.6,4.4-1.3,6.5c-0.5,1.8-1.5,3.5-2.3,5.2c-1,1.9-1.7,3.9-2.4,5.9
				c-0.9,2.4-1.3,4.9-1.3,7.4c0,1.2,0,2.5,0,3.7c0.2,1.4,0.5,2.8,1.1,4.1c0.6,1.6,1.5,3.1,2.3,4.6c1.7,3,3,6.3,3.4,9.8
				c0,1,0.2,2.1-0.1,3.2c-0.4,1.7-1.3,3.2-2.5,4.4c-1.1,1.1-2.4,1.9-3.3,3.2c-0.7,1-0.8,2.3-0.3,3.4c0.7,1.7,2.2,2.9,2.9,4.6
				c0.5,1.5,0.5,3.2-0.2,4.6c-0.4,0.9-0.9,1.7-1.4,2.5c-0.4,0.7-0.5,1.6-0.5,2.4c0.1,1.3,0.9,2.5,1.3,3.7c0.4,1.1,0.6,2.2,0.6,3.4
				c0,0.9,0.1,1.8,0.1,2.7c0,1.2-0.4,2.5-0.7,3.7c-0.1,0-0.2-0.1-0.4-0.2c-0.1,0.3-0.2,0.5-0.4,0.8c0.2,0,0.3,0.1,0.5,0.2
				c-0.4,1.9-1,3.8-2,5.5c-1.2,2.1-2.8,3.8-4.4,5.5c-1.3,1.2-2.6,2.5-4.1,3.5c-2.3,1.7-4.7,3.3-6.8,5.3c-0.8,0.8-1.8,1.6-2.5,2.6
				c-0.4,0.6-0.8,1.2-1.2,1.8c-0.5,0.8-0.8,1.9-0.9,2.9c-0.1,0.5,0,1.1,0.2,1.7c0.4,0.8,0.5,1.7,0.5,2.6c0,1.1,0.1,2.2-0.3,3.3
				c-0.6,1.3-1.4,2.6-2.8,3.3c-0.9,0.4-1.7,1-2.5,1.7c-1.2,0.9-2.7,1.5-3.7,2.7c-1,1.4-1,3.3-1,4.9c0.1,1.2-0.2,2.5-1,3.5
				c-0.7,0.9-1.6,1.5-2.5,2.1c-0.8,0.5-1.6,1.1-1.9,1.9c-0.3,0.9-0.1,2,0.4,2.8s0.6,1.8,0.6,2.8c0,0.5-0.3,0.9-0.6,1.2
				c-0.5,0.5-1,1-1.7,1.3c-0.7,0.4-1.5,0.4-2.2,0.5c-1,0.1-2.1,0-3-0.4c-0.7-0.2-1.3-0.7-1.7-1.3c-0.9-1.2-1.2-2.7-1.3-4.1
				c-0.1-0.6-0.1-1.3-0.4-1.8c-0.4-0.6-1.1-0.7-1.7-0.8c-1.6-0.3-3.3-0.2-4.8-0.6c-1.7-0.4-3.4-1.2-4.8-2.4s-2.5-3-2.8-4.9
				c-0.4-2.6,0.2-5.4,1.5-7.7c0.6-1.1,1.5-2,2.1-3c0.4-0.7,0.9-1.3,1.3-2.1c0.4-0.9,0.2-2.1-0.1-3c-0.4-1-0.8-2.1-1.2-3.1
				c-1.2-2.1-2.5-4.2-3.6-6.4c-0.8-1.8-1.4-3.7-2-5.6c-0.3-0.9-0.5-1.9-0.6-2.9c-0.4-2.7-0.2-5.5,0-8.2c0-0.7,0.1-1.3,0.2-2
				c1.5-0.4,2.9-1,4.5-1.5c0-0.2,0.1-0.4,0.1-0.7c-1.5,0.4-2.9,1-4.4,1.4c1.2-4.1,3.5-7.7,6.2-10.9c1.2-1.5,2.6-2.9,3.9-4.4
				c1.3-1.4,2.5-2.8,3.9-4.1c1.1-1.1,2.3-2.2,3.3-3.4c1.3-1.6,2.7-3.2,4.1-4.8c1.1-1.4,2.2-2.9,2.6-4.7c0.6-2.6,0.7-5.3,0.3-7.9
				c-0.6-3.6-2-7-3.5-10.2c-2-4.1-4.2-8.2-6.8-12c-1.3-2-2.6-3.9-4-5.7c-0.8-1-1.6-2.1-2.6-2.9c-0.6-0.6-1.3-1.1-2.1-1.4
				c-1.1-0.5-2.3-0.6-3.4-0.9c-1.2-0.4-2.6-0.6-3.6-1.5c-0.6-0.6-1-1.3-1.3-2.1c-0.8-1.7-1.2-3.6-1.2-5.4h-0.2
				c0-0.6,0.2-1.1,0.2-1.7c0-0.8,0.1-1.7,0.4-2.5c0.3-0.8,0.2-1.6,0.2-2.3c0-1.4,0-2.9,0-4.3c-0.1-1.6-0.1-3.1-0.1-4.7
				c0-2.6,0.4-5.1,1-7.6c0.5-2.1,1.4-4.1,2.4-6.1c1.1-2.1,2.5-4.1,4.1-5.8c1.7-1.7,3.6-3.2,5.6-4.5c1-0.7,2.1-1.2,3.3-1.7
				c1.9-0.9,3.9-1.6,5.9-2.2c1.3-0.4,2.6-0.5,3.9-0.8C85.2,29.6,87.6,28.4,90.2,27.9z"/>
		</g>
		<g>
			<path class="st3" d="M81.9,43c0.6-0.2,1.2-0.4,1.8-0.2c1.6,0.4,3.2,0.7,4.7,1.1c0.6,0.1,1.2,0.2,1.9,0.4c-0.1,0-0.3,0-0.4,0
				c0.9,0.7,2.1,1.2,3,1.9c1.4,1,2.8,2.1,4.1,3.2c1.1,0.9,2.3,1.7,3.4,2.6c1.1,0.9,2.3,1.8,3.3,2.8c1.6,1.4,2.9,2.9,4.3,4.6
				c1.7,2,3.2,4.2,4.8,6.4c1.2,1.7,2.3,3.4,3.3,5.2c0.5,0.8,1.1,1.7,1.5,2.6c0.5,1,0.8,2.1,1.3,3.2c0-0.4,0-0.7,0.1-1
				c0.2,1.1,0,2.1,0,3.2c0,2.2-0.4,4.4-1.1,6.6c-1.4,4.4-4.2,8.2-6.7,12c-1.2,1.8-2.4,3.6-3.3,5.5c-0.6,1.2-1,2.5-1.1,3.9
				c0,0.3,0,0.6-0.1,0.9c-0.6,1-1.1,2.1-1.7,3.1c-0.8,1.4-1.8,2.8-2.7,4.1c-1,1.5-2.1,3-3.4,4.2c-0.9,0.9-2.1,1.6-2.9,2.5
				c-1.2,1.2-2.8,2.1-4.2,3c-1.2,0.7-2.6,1-4,1.5c-1.2,0.4-2.4,0.8-3.6,0.7c-0.4,0-0.9,0.2-1.3,0.3c-2.3,0.3-4.7-0.1-6.8-1.1
				c-1.5-0.7-2.8-1.7-4-2.8c-1.5-1.3-2.7-2.9-4-4.5s-2.5-3.3-3.7-5c-0.8-1.2-1.7-2.5-2.7-3.7c-0.4-0.8-0.9-1.5-1.3-2.3
				c-0.7-1.5-1.3-2.9-1.7-4.5c-0.3-1.2-0.6-2.4-1-3.6c-0.1-0.3-0.2-0.6-0.1-0.8c0.3-1,0.2-2,0.2-3c0-3.9,0-7.7,0-11.6
				c0-1,0.2-2,0.2-2.9c0-1.7,0.2-3.5,0.4-5.2c-0.1,0-0.2,0-0.3,0.1v-0.2c0.4-0.9,0.6-1.9,0.9-2.9c0.8-2.6,1.8-5.1,2.9-7.6
				c0.5-1.2,1.1-2.3,1.7-3.4c0.6-1.1,1.3-2.2,1.9-3.3c0.8-1.5,1.8-2.9,2.8-4.3c0.8-1,1.6-2,2.5-3c0.9-1.1,2.1-2.1,3.2-3
				c1.6-1.3,3.2-2.5,4.9-3.7C79.8,44,80.8,43.4,81.9,43z"/>
			<path class="st4" d="M89.9,44.3c0.1,0,0.3,0,0.4,0c1.2,0.3,2.3,0.8,3.3,1.3c0.9,0.5,1.9,0.8,2.9,1.2c0.8,0.4,1.7,0.8,2.5,1.2
				c1.4,0.7,2.8,1.3,4.1,2.1c2.1,1.2,4,2.7,5.8,4.3c1.3,1.2,2.5,2.4,3.6,3.7c0.6,0.8,1.4,1.6,2,2.5c0.8,1.3,1.7,2.6,2.1,4.1
				c0.5,1.4,1,2.8,1.4,4.2c0.7,2.1,0.9,4.4,0.9,6.6c0,0.4,0,0.7-0.1,1c-0.4-1-0.8-2.1-1.3-3.2c-0.4-0.9-1-1.7-1.5-2.6
				c-1-1.8-2.1-3.5-3.3-5.2c-1.6-2.1-3.1-4.4-4.8-6.4c-1.3-1.6-2.7-3.2-4.3-4.6c-1.1-1-2.2-1.9-3.3-2.8c-1.1-0.9-2.3-1.7-3.4-2.6
				c-1.3-1.1-2.7-2.1-4.1-3.2C92,45.5,90.9,45,89.9,44.3z"/>
			<path class="st5" d="M53.6,68.6c1-0.4,2.1-0.5,3.2-0.3c0.3,0.1,0.3,0.4,0.3,0.6c0.2,2.3,0.7,4.6,0.9,7v0.2c0.1,0,0.2,0,0.3-0.1
				c-0.2,1.7-0.4,3.5-0.4,5.2c0,1-0.2,2-0.2,2.9c0,3.9,0,7.7,0,11.6c0,1,0.1,2.1-0.2,3c0-0.2-0.1-0.4-0.1-0.6
				c-0.3-0.4-0.8-0.4-1.2-0.5c-0.5-0.1-0.9-0.4-1.3-0.7c-0.9-0.7-1.9-1.2-2.7-2c-1.9-1.5-3.3-3.5-4.3-5.7c-0.4-1.1-1-2.2-1.3-3.3
				c-1.4-4.5-0.6-9.5,2.2-13.3C49.9,70.9,51.5,69.3,53.6,68.6z"/>
			<path class="st5" d="M122.7,80.5c0.1-0.2,0.4-0.2,0.5-0.2c0.7,0,1.2,0.5,1.6,0.9c1.3,1.2,1.7,3.1,1.6,4.8c-0.2,2.1-1,4.1-2.1,5.8
				c-0.8,1.2-1.9,2.2-3,3.2c-0.6-0.7-0.5-1.6-0.6-2.5c-0.1-1.5,0-3,0.1-4.6c0.1-1.7,0.4-3.3,0.9-4.8
				C122.1,82.3,122.3,81.3,122.7,80.5z"/>
			<path class="st4" d="M105,110.9c0.6-1,1-2.1,1.7-3.1c-0.2,2.3-0.6,4.6-1.4,6.7c-0.5,1.2-1,2.5-1.7,3.7c-0.6,1-1.2,2-2.2,2.6
				c-1.5,1.1-3.1,2-4.6,3c-1.9,1.1-3.5,2.5-4.6,4.4c-1,1.9-1.5,4-2.4,5.9c-0.9,2.1-2.1,4.2-4.1,5.6c-1.2,0.8-2.5,1.7-3.9,2.3
				c-1.9-0.8-3.5-2.2-5-3.6c-1.6-1.4-2.9-3-4.1-4.7c-1.1-1.5-1.9-3.1-2.9-4.6c-1.2-2.1-2.2-4.3-3.3-6.5c-0.9-1.7-1.8-3.4-2.5-5.3
				c-0.4-1.2-1-2.4-1.5-3.5c-0.4-0.8-0.6-1.7-1-2.6c-0.1-0.4,0-0.7,0-1c0.9,1.2,1.8,2.4,2.7,3.7c1.2,1.7,2.4,3.4,3.7,5
				c1.2,1.6,2.5,3.2,4,4.5c1.2,1.1,2.5,2.1,4,2.8c2.1,1,4.5,1.4,6.8,1.1c0.4-0.1,0.8-0.4,1.3-0.3c1.2,0.1,2.5-0.3,3.6-0.7
				c1.3-0.4,2.7-0.8,4-1.5c1.5-0.8,3-1.8,4.2-3c0.9-0.9,2.1-1.6,2.9-2.5c1.4-1.2,2.4-2.7,3.4-4.2C103.2,113.6,104.2,112.3,105,110.9
				z"/>
			<path class="st3" d="M76.8,138.4c-1.6-1.4-2.9-3-4.1-4.7c-1.1-1.5-2-3.1-2.9-4.6c-1.2-2.1-2.2-4.3-3.3-6.5
				c-0.9-1.7-1.8-3.4-2.5-5.3c-0.4-1.2-1-2.4-1.5-3.5c-0.4-0.8-0.6-1.7-1-2.6c-0.1,1.1,0,2.1,0,3.3c0,1.5,0.1,3,0.1,4.6
				c0.1,1.5,0.1,3,0.2,4.6c0,1.6,0.1,3.1,0.1,4.7c0,1.9,0,3.8,0,5.7c-0.2,2.7-0.6,5.4-1.3,8c-0.3,1.2-0.8,2.5-1.2,3.7
				c-0.5,1.2-1.1,2.4-1.9,3.4c-0.5,0.7-1.2,1.3-1.8,2.1c-1.4,1.6-2.9,3.1-4.6,4.4c-0.8,0.7-1.7,1.4-2.5,2.1
				c-1.8,1.3-3.7,2.5-5.5,3.6c-1.2,0.8-2.5,1.4-3.8,2.1c-1,0.5-2,1.1-3,1.5c-0.4,0.2-0.7,0.4-1.1,0.6c-0.1,0-0.2,0.1-0.2,0.1
				c-0.1,0-0.2,0.1-0.3,0.1c-0.1,0.1-0.3,0.1-0.4,0.2c-0.3,0.9-0.2,1.9-0.2,2.8c0.1,1.7,0.2,3.3,0.5,5c0.2,1.2,0.7,2.4,1.2,3.5
				c0.5,1.2,1.1,2.3,1.8,3.3c1,1.4,2.5,2.5,3.7,3.7c0.9,0.8,2,1.4,3,2.1c0.8,0.5,1.8,0.8,2.7,1.2c1.3,0.6,2.8,1.1,4.2,1.5
				c1.2,0.3,2.4,0.4,3.6,0.6c1.6,0.2,3.2,0.2,4.8,0.2c1,0,2,0,3-0.1c1.2-0.2,2.5-0.4,3.7-0.5c0.4,0,0.9,0,1.3-0.3
				c-0.2-0.3-0.3-0.7-0.4-1c-0.1-0.4-0.4-0.8-0.8-1.1c-0.6-0.7-1.2-1.4-1.7-2.1c-0.5-0.7-1.1-1.3-1.6-2c-1.2-1.6-2.5-3.2-3.2-5
				c-0.5-1.3-0.7-2.8-0.6-4.2c0.1-1.9,0.7-3.7,1.5-5.5c0.8-1.7,1.9-3.2,3-4.6c0-0.7-0.2-1.4-0.2-2.1c0-1.8,0.2-3.6,0.9-5.3
				c0.6-1.6,1.3-3.1,2.3-4.5c1.1-1.6,2.4-3,4-4.1c1.4-1,2.8-2.1,4.4-2.7c2.1-0.9,4.4-1.2,6.4-2.3C80,141.1,78.4,139.8,76.8,138.4z"
				/>
			<path class="st3" d="M127.4,155.9c-1.3-0.8-2.7-1.7-3.7-2.8c-0.6,1.1-1.5,2-2.4,2.9c-1,1.1-1.4,2.6-2.5,3.7
				c-0.3,0.4-0.8,0.6-1.1,1c-0.2,0.4-0.4,0.8-0.7,1.1c-0.6,0.7-1.2,1.5-1.9,2.1c-0.8,0.6-1.7,1.1-2.2,2c-0.4,0.8-0.4,1.7-0.7,2.6
				c-0.4,1.1-1.1,2.1-1.9,2.9c-0.7,0.7-1.7,1.1-2.3,1.9c-0.9,1.2-0.8,2.9-1,4.4c-0.2,0.9-0.6,1.8-1.1,2.6c0.7-0.2,1.2-0.6,1.9-0.9
				c1.8-0.8,3.6-1.7,5.4-2.6c3.3-1.7,6.4-3.9,9.3-6.2c3.2-2.6,5.8-5.8,7.9-9.2c0.6-1,1-2.1,1.3-3.3
				C130.2,157.3,128.8,156.7,127.4,155.9z"/>
			<path class="st4" d="M116.4,161.2c0.4-0.2,0.8-0.4,1.3-0.6c-0.2,0.4-0.4,0.8-0.7,1.1c-0.6,0.7-1.2,1.5-1.9,2.1
				c-0.8,0.6-1.7,1.1-2.2,2c-0.4,0.8-0.4,1.7-0.7,2.6c-0.4,1.1-1.1,2.1-1.9,2.9c-0.7,0.7-1.7,1.1-2.3,1.9c-0.9,1.2-0.8,2.9-1,4.4
				c-0.1,0.9-0.6,1.8-1.1,2.6c-0.8,0.6-1.8,0.9-2.7,1.4c-0.6,0.3-1.1,0.5-1.7,0.7c-0.3-1-0.7-2-1.2-2.9c-0.4-0.7-0.8-1.5-0.8-2.4
				c0-0.6,0.1-1.3,0.6-1.7c0.5-0.5,1.1-0.9,1.3-1.7c0.2-0.8,0.6-1.5,0.4-2.3c-0.1-0.7-0.4-1.4-0.4-2.1c0-0.9,0.7-1.7,1.5-2.1
				c0.8-0.4,1.7-0.5,2.6-0.5c0.8-0.1,1.8,0,2.6-0.4c0.8-0.4,1.4-1,1.8-1.7c0.4-0.6,0.8-1.3,1.5-1.7c0.8-0.6,1.8-0.8,2.8-0.9
				C115,161.6,115.7,161.5,116.4,161.2z"/>
			<path class="st4" d="M61,167.6c0.8-1.7,1.9-3.2,3-4.6c0.4,1.9,1.1,3.7,1.8,5.4c0.6,1.8,1.2,3.6,2,5.3c0.3,0.9,0.8,1.8,1.1,2.7
				c0.5,1.3,0.7,2.8,0.9,4.2c0,1,0.2,2,0,2.9c-0.4,1.7-1,3.4-2,4.9c-0.2-0.3-0.3-0.7-0.4-1c-0.1-0.4-0.5-0.8-0.8-1.1
				c-0.6-0.7-1.2-1.4-1.7-2.1c-0.5-0.7-1.1-1.3-1.6-2c-1.2-1.6-2.5-3.2-3.2-5c-0.5-1.3-0.7-2.8-0.6-4.2
				C59.7,171.2,60.2,169.3,61,167.6z"/>
		</g>
		<g>
			<path class="st4" d="M84.4,95.7c0.8-0.1,1.5,0.4,2.1,0.7c0.5,0.3,1.1,0.5,1.6,0.6c0.1,0.6-0.4,1-0.8,1.5
				c-0.4,0.4-0.8,1.1-1.5,1.2c-0.4,0-0.8,0.1-1.1-0.3c-0.3-0.4-0.3-0.8-0.3-1.2C84.4,97.4,84.3,96.5,84.4,95.7z"/>
			<path class="st4" d="M79.4,112.1c1.1-0.8,2.6-1.2,3.9-1c0.8,0.1,1.6,0.6,2.3,1.2c0.4,0.4,0.9,0.8,1.2,1.3c-1.1,0-2.1-0.4-3.3-0.4
				c-1.6-0.2-3.1-0.1-4.7-0.4C79,112.5,79.2,112.3,79.4,112.1z"/>
			<path class="st6" d="M86.5,29.9c0.9-0.1,1.8,0,2.6,0.5c0.7,0.5,0.6,1.4,0.3,2.1c-0.6,1.3-1.7,2.4-2.5,3.6c1.3-0.1,2.7-0.3,4-0.3
				c3.6-0.1,7.1,0.2,10.6,1.3c0.8,0.4,1.7,0.6,2.5,1.1c1.7,0.9,3.4,2,5,3.3c1.1,1,2.1,2,3,3.1c0.7,0.8,1.3,1.7,2,2.5
				s1.2,1.8,1.7,2.8c0.4,0.8,0.8,1.6,1.1,2.5c-0.4-0.5-0.8-1-1.2-1.5c0,0,0.1,0,0.2,0.1c-0.3-0.1-0.6-0.8-0.8-1.1
				c-0.3-0.4-0.7-0.7-1.1-1c-0.7-0.6-3.7-3.1-3.9-3.2c-0.8-0.5-1.7-1-2.5-1.5c-1.1-0.6-2.2-1.2-3.3-1.6c-2.6-1-5.4-1.8-8.2-2.1
				c-1.3-0.1-2.6-0.4-3.9-0.4c-1.4-0.1-2.9,0-4.3,0c-0.9,0-1.7,0.1-2.6,0.1c-0.8,0-1.5,0-2.3,0.1c0.3-0.2,0.5-0.4,0.7-0.6
				c0.2-0.2,0.3-0.6,0.7-0.7c0.4-0.1,0.7-0.1,1-0.1c1.2-0.1,2.5-0.5,3.7-0.6c1-0.1,2-0.2,2.9-0.7c-2.1-0.2-4.2,0.1-6.3,0.3
				c0.4-0.4,0.6-0.8,0.8-1.3c-0.8,0.3-1.4,0.9-2,1.5c-0.4,0.4-0.9,0.8-1.4,1.2c-0.2-0.2-0.4-0.4-0.6-0.6c0.7-0.8,1.5-1.5,2.2-2.3
				s1.5-1.6,2-2.5c-0.8,0.7-1.4,1.7-2.2,2.4c-0.7,0.7-1.4,1.5-2.1,2.2c-0.1-0.1-0.2-0.2-0.3-0.3c0.4-0.5,0.9-1.1,1.2-1.7
				c-0.6,0.4-1.1,0.8-1.5,1.4c-0.4,0-0.9-0.1-1.3-0.1c0.7,0.5,1.5,1,2.1,1.6c-0.9,0.2-1.9,0-2.9-0.2c-0.6-0.1-1.2-0.2-1.7,0
				c0.6,0.3,1.2,0.4,1.8,0.6c-1.2,0.4-2.3,0.9-3.3,1.6c-0.3,0.2-0.4,0.5-0.5,0.8c1.3-0.3,2.4-1,3.7-1.3c0.3-0.1,0.7,0,1,0.1
				c-1,0.6-2.1,1.1-3,1.7c-1.9,1.2-3.6,2.5-5.4,3.9c-0.7,0.6-1.3,1.3-2.1,1.9c-1.7,1.4-3,3.1-4.4,4.8c-0.7,0.9-1.3,1.8-1.9,2.8
				c-1,1.6-1.9,3.2-2.7,4.8c-1.2,2.3-2.3,4.6-3.4,6.8c-0.2,0.3-0.4,0.6-0.5,0.9c-0.2-0.2-0.4-0.3-0.4-0.5c0-0.7,0.3-1.4,0.4-2.1
				c0.3-1.3,0.7-2.5,1.1-3.8c0.3-0.9,0.5-1.8,0.9-2.6c0.9-2.1,2-4.1,3.1-6c1.5-2.3,3-4.6,4.8-6.5c1.2-1.3,2.5-2.6,4-3.7
				c1.4-1,2.8-2.1,4.3-3c0.8-0.4,1.6-0.8,2.3-1.2c-1-0.4-2-0.5-3-0.9s-2-0.8-2.9-1.3c-0.8-0.4-1.4-1-1.8-1.7
				c-0.3-0.5-0.2-1.2,0.2-1.7c0.4-0.5,1.2-0.7,1.8-0.7c1.4,0,2.6,0.6,3.8,1.2c1.4,0.8,2.9,1.5,4.3,2.3c0.4,0.3,0.9,0.6,1.4,0.9
				c0.3-0.9,0.6-1.8,1-2.7c0.4-1.2,1-2.3,1.9-3.2C84.9,30.6,85.6,30,86.5,29.9z M84,33.9c-0.4,0.8-0.8,1.7-1,2.6
				c0.6-0.4,0.9-1.1,1.3-1.7c0.6-1,1.2-2.1,1.6-3.3C85,32.1,84.4,33,84,33.9z M77,36.5c1.2,0.4,2.3,1,3.6,1.2
				c-0.3-0.2-0.5-0.4-0.8-0.6c-1.2-0.6-2.5-1.2-3.7-1.8c-1-0.5-2-0.9-3-1.3c-0.5-0.1-1.1-0.4-1.5,0L77,36.5z"/>
			<path class="st7" d="M84.4,36.4c0.8-0.8,1.3-1.7,2.2-2.4c-0.5,0.9-1.2,1.7-2,2.5c-0.7,0.8-1.5,1.5-2.2,2.3
				c0.2,0.2,0.4,0.4,0.6,0.6c0.5-0.4,0.9-0.8,1.4-1.2c0.6-0.6,1.2-1.2,2-1.5c-0.2,0.5-0.5,0.9-0.8,1.3c2.1-0.3,4.2-0.6,6.3-0.3
				C91,38.1,90,38.3,89,38.4c-1.2,0.1-2.5,0.5-3.7,0.6c-0.4,0-0.7,0-1,0.1c-0.4,0-0.4,0.4-0.7,0.7c-0.2,0.3-0.4,0.5-0.7,0.6
				c-0.7,0.5-1.5,0.8-2.3,0.5c-0.3-0.1-0.7-0.2-1-0.1c-1.2,0.4-2.4,1.1-3.7,1.3c0.1-0.3,0.3-0.6,0.5-0.8c1-0.7,2.2-1.2,3.3-1.6
				c-0.6-0.1-1.2-0.3-1.8-0.6c0.6-0.1,1.2-0.1,1.7,0c0.9,0.2,1.9,0.4,2.9,0.2c-0.7-0.6-1.4-1.1-2.1-1.6c0.4,0,0.9,0.1,1.3,0.1
				c0.4-0.5,0.9-1,1.5-1.4c-0.3,0.6-0.7,1.2-1.2,1.7c0.1,0.1,0.2,0.2,0.3,0.3C83,37.9,83.7,37.2,84.4,36.4z"/>
			<g>
				<path class="st8" d="M67.4,39.8c0.4-0.2,0.8-0.4,1.2-0.5c-0.6,0.5-1.3,0.8-2,1.3c-1.7,1.2-3.1,2.8-4.3,4.4c-0.7,1-1.4,2-2,3.1
					c-0.3,0.5-0.4,1-0.7,1.5c0-0.7,0.4-1.4,0.7-2c0.9-1.8,2.1-3.4,3.4-4.9C64.8,41.7,66,40.6,67.4,39.8z"/>
				<path class="st8" d="M70.3,40c0.5-0.2,1.1-0.4,1.7-0.4c-0.7,0.4-1.6,0.7-2.2,1.2c-3.2,1.9-5.4,4.9-7.4,7.9c-0.6,1-1.3,2-1.8,3.1
					c-0.1,0.2-0.2,0.5-0.4,0.7c0.2-1,0.8-1.9,1.3-2.8c1.2-2,2.5-4,4.1-5.8C66.8,42.3,68.4,40.9,70.3,40z"/>
			</g>
			<path class="st9" d="M80.3,39.9c0.8,0,1.7-0.1,2.5,0c-0.5,0.6-1.3,0.8-2.1,0.5C80.5,40.4,80.4,40.1,80.3,39.9z"/>
			<path class="st10" d="M78,48.2c0.9-0.7,2-0.8,3-1c-0.6,0.6-1.4,0.9-2.1,1.4c-1.9,1.1-3.5,2.6-5,4.3c-0.5,0.5-0.8,1.2-1.5,1.7
				c0-0.3,0.1-0.7,0.3-0.9C74.3,51.5,76.1,49.7,78,48.2z"/>
			<path class="st11" d="M71.9,67.3c0.6-0.6,1.4-0.6,2.2-0.7c1.4,0,2.7,0.1,4.1,0.4c0.8,0.2,1.6,0.4,2.2,0.8c-0.8,0-1.7-0.3-2.5-0.5
				c-1.3-0.2-2.6-0.3-3.9-0.2C73.2,67.3,72.6,67.4,71.9,67.3z"/>
			<path class="st2" d="M84,72.4c-1-0.7-2.1-1-3.2-1.4c-1.2-0.4-2.4-0.6-3.6-0.8c-1.6-0.3-3.3-0.4-4.9-0.2c-1.4,0.2-2.8,0.6-4.2,0.9
				c-1,0.2-2,0.6-2.9,1.1c-0.3-0.1-0.5,0-0.7,0.2c0.8,0,1.7,0.1,2.5,0c0.3,0,0.7,0,1,0.1c1.7,0.3,3.3,0.1,5,0.4
				c1.6,0.2,3.2,0.4,4.8,0.8c1.4,0.3,2.8,0.4,4.2,0.8c1.1,0.3,2.3,0.4,3.4,0.3C85.4,73.4,84.7,72.8,84,72.4z"/>
			<path class="st2" d="M93.9,76.5c1.9-0.9,3.9-1.9,6.1-1.8c1.7-0.1,3.2,0.5,4.7,1c2,0.7,4,1.6,5.7,2.8c0.7,0.6,1.3,1.3,2.1,1.9
				c0.2,0.1,0.4,0.5,0,0.5c-0.7-0.1-1.4-0.5-2.1-0.7c-2-0.7-4-1.4-6-1.8c-1.9-0.3-3.7-0.6-5.6-0.7c-1.2-0.1-2.4-0.2-3.6-0.3
				c-0.5-0.1-1.1,0-1.6,0c0.1-0.2,0.2-0.4,0.2-0.6C93.9,76.6,93.9,76.5,93.9,76.5z"/>
			<path class="st12" d="M76.6,76.3c0.3,0,0.6,0,0.8,0.3c0.4,0.4,0.4,1.1,0.3,1.7s-0.2,1.2-0.6,1.6s-1,0.4-1.4,0
				c-0.3-0.3-0.4-0.7-0.4-1.1c0-0.7,0.2-1.5,0.7-2.1C76.1,76.5,76.3,76.4,76.6,76.3z"/>
			<path class="st13" d="M92.4,78.1c-0.8,1.3-1.5,2.7-1.9,4.1c-0.4,1.5-0.7,3-0.8,4.6c-0.2,2.9-0.2,5.9,0,8.9c0,0.3,0.1,0.7-0.2,0.9
				c-0.7,0-1.3-0.4-2-0.6c-1-0.2-1.9-0.8-2.9-0.9c0,0.2,0,0.4,0.2,0.6c0.8,0.6,1.6,1.2,2.6,1.3c0.8,0.2,1.7,0.5,2.5,0.2
				c0.4-0.2,0.6-0.7,0.7-1.2c0.1-1.4,0-2.8,0-4.2c0-2.9,0-5.9,0.7-8.7c0.4-1.6,1-3.2,1.8-4.6c0.2-0.4,0.5-0.8,0.7-1.2
				c0.1-0.2,0.2-0.4,0.2-0.6C93.2,77,92.8,77.5,92.4,78.1z"/>
			<path class="st14" d="M71.4,81.1c1,0.1,1.7,0.8,2.6,1c0.8,0.3,1.6,0.2,2.4,0.2c0,0.1,0,0.3,0,0.4c-1.2,0.4-2.7,0.3-3.8-0.4
				C72.1,82.1,71.5,81.8,71.4,81.1z"/>
			<path class="st12" d="M101.4,82c0.4-0.1,0.9,0.1,1.1,0.5c0.3,0.5,0,1.2-0.1,1.7s-0.4,1.1-1,1.4c-0.4,0.2-1.1,0-1.3-0.4
				c-0.3-0.6-0.1-1.3,0.1-2C100.4,82.7,100.8,82.1,101.4,82z"/>
			<path class="st15" d="M88.5,85.6c0.1,0,0.2,0,0.3,0c0,1.2-0.2,2.3-0.2,3.4c-0.1,1.3,0,2.6,0.2,4l-0.2,0.1
				c-0.5-1.5-0.4-3.1-0.4-4.7C88.1,87.4,88.2,86.5,88.5,85.6z"/>
			<path class="st16" d="M53.4,84.9c-0.4-1.7-0.6-3.5-0.2-5.3c0.2-1.2,0.6-2.3,1.4-3.2c0.4-0.4,1-0.7,1.6-0.8c0-0.2,0-0.6-0.4-0.6
				c-1-0.2-1.8,0.6-2.3,1.4c-1.2,2-1.3,4.4-0.9,6.6c0.2,1.1,0.4,2.2,0.9,3.3c0.2,0.8,0.7,1.4,1,2.1c0.1,0,0.3,0,0.4,0
				c-0.3-0.8-0.7-1.5-1.1-2.2C53.7,85.8,53.5,85.4,53.4,84.9z"/>
			<path class="st17" d="M100,88.1c0.3,0,0.6,0.1,0.9,0.2c1,0.4,2.1,0.6,3.1,0.6c0.4,0,0.9-0.1,1.4-0.1c0,0.1,0.1,0.2,0.1,0.3
				c-1.2,0.5-2.5,0.4-3.8,0.3C101.1,89.3,100,88.9,100,88.1z"/>
			<path class="st16" d="M67.9,97.6L67.9,97.6c-0.7-1.9-1.5-3.7-2.5-5.4c-0.4-0.8-0.6-1.7-1.1-2.5c-0.2,1.3,0.5,2.5,1.1,3.6
				c0.8,1.4,1.4,2.8,2.1,4.2h-0.1c0.4,1,0.8,2,1.1,3c0,0,0.2,0,0.3,0.1C68.5,99.7,68.2,98.6,67.9,97.6z"/>
			<path class="st18" d="M72.7,98.5c0.1-0.3,0.4-0.2,0.7-0.2c1.2,0.2,2.5,0.5,3.7,0.7c1.2,0.1,2.5,0.1,3.8,0.1
				c0.8,0,1.7-0.1,2.4,0.3c0.2,0.1,0.3,0.1,0.5,0.2s0.4,0.3,0.7,0.4c0.3,0,0.6,0,1,0s0.7-0.1,1-0.2c0.8-0.2,1.6,0,2.3,0.2
				c1,0.3,2,0.9,3,1.2c1.5,0.4,2.9,1,4.6,1c-0.3,1.8-1.5,3.2-2.6,4.5c-0.6,0.8-1.6,1.4-2.5,2c-1.8,1.1-3.9,1.9-6.1,1.9
				c-0.9,0-1.7-0.2-2.6-0.3c-0.8-0.1-1.7-0.3-2.5-0.6c-1.4-0.6-2.9-1.3-4-2.5c-0.6-0.6-1.2-1.3-1.7-2c-0.6-0.7-1.1-1.5-1.4-2.3
				c-0.4-0.6-0.6-1.3-0.6-2.1C72.5,100.1,72.3,99.3,72.7,98.5z"/>
			<path class="st19" d="M75.2,99.7c1.4,0.2,2.8,0.6,4.2,0.8c1.3,0.2,2.7,0.4,4.1,0.4c0.8,0,1.6,0.3,2.5,0.4
				c1.2,0.2,2.3,0.4,3.5,0.5c1.4,0.2,2.7,0.4,4.1,0.6c-0.1,0.9-0.6,1.7-1,2.5s-1.4,1.2-2.1,1.6c-1.9,0.8-3.9,1.2-6,1.2
				c-1.5,0-2.9-0.4-4.2-1c-1-0.4-1.9-1-2.7-1.6c-0.6-0.5-1.2-1.1-1.5-1.9c-0.2-0.6-0.4-1.2-0.5-1.9C75.3,100.9,75.4,100.3,75.2,99.7
				z"/>
			<g>
				<path class="st16" d="M104.4,99.6c-0.8,0.7-1.5,1.4-2.2,2.1c-0.4,0.4-0.8,0.7-1.1,1.2c0,0-0.1,0-0.2,0c-0.3,0.4-0.5,0.8-0.7,1.2
					c0.4,0,0.8-0.4,1-0.8c0.1,0,0.2-0.1,0.3-0.2c1.3-1.4,2.9-2.5,4.2-3.8c0.3-0.3,0.5-0.8,0.6-1.2C105.7,98.4,105.1,99,104.4,99.6z"
					/>
			</g>
			<path class="st20" d="M76,105c0.8,0.7,1.4,1.5,2.2,2.1c0.5,0.4,1.1,0.6,1.6,1c-0.8-0.1-1.6-0.5-2.3-1c-0.7-0.4-1.2-1-1.7-1.7
				C75.9,105.2,75.9,105.1,76,105z"/>
			<path class="st21" d="M61.5,109.8c0.5,0.4,0.9,1.1,1.3,1.7c0.3,0.4,0.6,0.8,0.8,1.3c-0.1,0.2-0.2,0.4-0.3,0.6
				c-0.7-0.8-1.2-1.8-1.7-2.7C61.5,110.4,61.5,110,61.5,109.8z"/>
			<path class="st22" d="M79.8,115.4c1.9-0.2,3.8,0.1,5.7,0.7c0,0.1,0,0.3,0,0.4c-0.9,0-1.8-0.3-2.8-0.4c-1.2-0.1-2.4,0-3.6-0.1
				C79.2,115.7,79.4,115.4,79.8,115.4z"/>
			<path class="st23" d="M106.1,109.9c-1.7,2.6-3.4,5.3-5.7,7.5c-0.6,0.8-1.4,1.3-2,2.1c-0.4,0.6-1,1.1-1.6,1.6
				c-0.8,0.8-1.7,1.3-2.6,1.9c-0.9,0.7-2,1.2-2.9,1.8c-0.4,0-0.7,0.2-1,0.4c-0.8,0.4-1.6,0.7-2.4,0.9c-1.2,0.1-2.2,0.5-3.4,0.7
				c-0.8,0.1-1.7,0-2.5,0.1c-1.4-0.1-2.9,0-4.2-0.6c-1-0.3-2-0.8-2.9-1.3c-0.7-0.5-1.5-0.9-2.1-1.5c-0.8-0.7-1.7-1.5-2.5-2.4
				c-0.9-1-1.7-2-2.5-3c-1-1.2-1.8-2.5-2.8-3.7c-0.5-0.6-0.9-1.3-1.4-1.9c-0.1,0.2-0.2,0.4-0.3,0.6c1.6,2.4,3.2,4.9,5.2,6.9
				c0.6,0.6,1.1,1.3,1.7,1.9c1.4,1.5,3,2.9,4.8,3.9c0.8,0.5,1.8,0.8,2.7,1c1.4,0.4,2.9,0.6,4.5,0.4c2.1,0.1,4-0.4,6-0.9
				c0.5-0.2,1.1-0.4,1.6-0.6c0.7-0.3,1.4-0.4,2-0.9c0.1,0,0.3-0.1,0.4-0.1c1-0.5,2.1-1.2,3-1.8c1.2-0.7,2.1-1.6,3.2-2.5
				c0.8-0.8,1.7-1.5,2.3-2.4c0.9-1.2,2.1-2.3,2.9-3.6c1.1-1.4,1.9-3,2.8-4.6C106.3,109.9,106.2,109.9,106.1,109.9z"/>
			<path class="st24" d="M134.8,180.2c0.2-0.5,0.2-1.2,0.7-1.5c0,1.2-0.3,2.4-0.6,3.6c-0.7,2.4-1.7,4.7-2.8,6.9
				c-1.2,2.3-2.4,4.6-3.4,7.1c-2.1,5.2-3.7,10.6-5.1,16.1c-0.1,0.4-0.3,0.8-0.4,1.2c0.1-0.7,0.2-1.3,0.2-2c0.1-1.2,0.5-2.4,0.8-3.5
				c1.3-5.1,2.8-10.2,5-15c1.1-2.3,2.3-4.5,3.3-6.8C133.4,184.4,134.2,182.3,134.8,180.2z"/>
			<path class="st25" d="M117.2,187.7c0.1,0,0.3,0,0.4,0c-0.8,1.8-2.4,3.1-3.8,4.4c-0.6,0.5-1.3,1.1-2,1.4c-0.3,0.1-0.6,0.2-0.9,0.2
				c0.1-0.6,0.8-0.8,1.2-1.2C113.9,191.1,116,189.8,117.2,187.7z"/>
			<path class="st26" d="M126.5,189.6c0.1-0.4,0.2-0.8,0.7-0.9c-0.2,2.5-1.1,4.9-2,7.1c-0.9,2.4-1.9,4.9-2.6,7.4
				c-0.9,3.1-1.5,6.2-1.9,9.5c-0.1,0.9-0.2,1.8-0.4,2.7c-0.1,0.6-0.2,1.2-0.3,1.9c0-1.3,0.1-2.6,0.1-3.9c0-1.1,0.2-2.2,0.4-3.3
				c0.4-2.9,0.8-5.7,1.7-8.4c0.9-2.8,2-5.5,3.1-8.2C125.7,192.2,126.1,190.9,126.5,189.6z"/>
			<path class="st27" d="M25.4,189.2c0.1,0,0.3,0,0.4,0c0.6,1.8,1.7,3.3,2.9,4.8c0.7,0.8,1.3,1.7,2,2.5c0.3,0.3,0.5,0.7,0.7,1.1
				c-0.6-0.4-1-0.9-1.4-1.4c-1.1-1.2-2.2-2.5-3.2-3.9C26.2,191.4,25.4,190.4,25.4,189.2z"/>
			<path class="st28" d="M132.9,196.7c0.1,0,0.2,0,0.4,0.1c-0.4,1-0.9,2.1-1.4,3.1l-0.1-0.2c0,0-0.1,0-0.2,0
				C132,198.6,132.4,197.6,132.9,196.7z"/>
			<path class="st29" d="M15.7,198.3c-0.1-0.2,0-0.4,0.1-0.7c0.4,0.6,0.7,1.4,1.1,2.1c0.6,1,1.1,2,1.6,3.1c1.5,3.7,2.8,7.6,3.3,11.6
				c0.3,2.8,0.7,5.6,0.8,8.3c0,0.5,0,1.1,0,1.7c-0.1-0.2-0.2-0.4-0.3-0.6c-0.2-0.6-0.1-1.2-0.2-1.9c-0.5-5-1.2-10.1-2.9-14.9
				c-0.6-1.8-1.2-3.6-2.1-5.4C16.6,200.6,16,199.5,15.7,198.3z"/>
			<path class="st30" d="M131.5,199.5c0,0,0.1,0,0.2,0l0.1,0.2c-1.9,4.4-3.8,8.8-5.3,13.4c-0.4,1.4-0.8,2.9-0.9,4.3
				c0,0.4-0.2,0.8-0.3,1.2c-0.1,0-0.2,0-0.3,0c0.1-1,0.1-2.1,0.4-3c0.5-2.4,1.4-4.7,2.2-7C128.8,205.6,130.1,202.6,131.5,199.5z"/>
			<path class="st31" d="M96.9,200.5c0.3,0.2,0.5,0.4,0.6,0.8c0.2,0.8-0.4,1.6-0.9,2.2c-1.4,1.7-2.7,3.5-3.8,5.4
				c-0.4,0.8-0.8,1.7-1.1,2.5c-0.1,0.3-0.4,0.2-0.6,0.3c0.5-1.9,1.4-3.7,2.4-5.4c0.7-1.1,1.4-2.2,2.3-3.2c0.4-0.4,0.8-0.8,1-1.3
				C97,201.5,96.9,201,96.9,200.5z"/>
			<path class="st32" d="M13.3,204.1c0.1,0,0.2,0,0.3,0c-0.3,4.8,0.5,9.6,1.8,14.2c0.2,0.8,0.6,1.7,0.8,2.5c0,0,0,0.1-0.1,0.1
				c0,0-0.1,0.1-0.1,0.2c-1.8-5-3.3-10.3-2.9-15.6C13.1,205,13.2,204.5,13.3,204.1z"/>
			<path class="st33" d="M112.1,204.5c0.2-0.2,0.4-0.3,0.7-0.4c-0.2,0.7-0.8,1.1-1.2,1.5c-1.6,1.4-3.3,2.7-5,3.9
				c-0.9,0.7-2,1.1-2.7,2c-0.2,0.2-0.4,0.4-0.5,0.5c-0.2-0.7,0.4-1.2,0.8-1.6c0.9-0.8,1.9-1.4,2.9-2.1
				C108.6,207.2,110.5,206,112.1,204.5z"/>
			<g>
				<path class="st8" d="M103.2,33.5c1.3,0.6,2.7,1.2,3.9,2.1c1.6,1,3,2.3,4.3,3.6c1.6,1.5,3,3.2,4.4,4.9c0.4,0.5,0.8,1.1,1.3,1.5
					c-0.1-0.5-0.4-0.9-0.8-1.4c-1.2-1.7-2.6-3.3-4.1-4.9c-1.3-1.3-2.7-2.6-4.3-3.6c-1.4-0.9-2.9-1.7-4.5-2.4c-2.4-1.1-5-2.1-7.7-2.1
					c0.8,0.3,1.7,0.4,2.5,0.6C100,32.2,101.6,32.9,103.2,33.5z"/>
				<path class="st8" d="M95,33.7c1.2,0.1,2.4,0.2,3.6,0.4c1.6,0.4,3.1,1,4.6,1.7c1.9,0.8,3.7,1.9,5.3,3.2c2.7,2.1,5.1,4.4,7.1,7.1
					c0.4,0.6,0.9,1.2,1.3,1.7c0.2,0.3,0.5,0.6,0.8,0.8c-0.1-0.4-0.2-0.7-0.4-0.9c-0.4-0.6-0.9-1.3-1.4-1.9c-1.8-2.2-3.7-4.5-6-6.3
					c-3.1-2.5-6.6-4.5-10.5-5.7c-1-0.3-2.1-0.4-3.1-0.5c-1.6-0.1-3.2,0-4.7,0.4C92.6,33.9,93.8,33.6,95,33.7z"/>
				<path class="st8" d="M108.2,49.5c-1.1-0.8-2.1-1.4-3.3-2.1c-0.6-0.4-1.3-0.8-2-1c-1.8-0.8-3.5-1.7-5.4-2.2
					c-0.8-0.2-1.6-0.5-2.4-0.5c1.2,0.6,2.6,0.8,3.9,1.3c1.9,0.8,3.8,1.7,5.6,2.7c3.1,1.8,5.9,4.1,8.4,6.8c1.5,1.7,2.8,3.5,4.1,5.3
					c0.4,0.6,0.8,1.3,1.4,1.8c-0.5-1.1-1.2-2.1-1.9-3c-1.1-1.6-2.2-3.2-3.5-4.6C111.7,52.3,110,50.8,108.2,49.5z"/>
				<path class="st8" d="M115.6,50.9c-0.8-1-1.7-1.8-2.7-2.6c-0.4-0.3-0.8-0.6-1.3-0.8c0.4,0.3,0.8,0.6,1.1,1
					c0.5,0.7,1.2,1.2,1.8,1.9c1.5,1.9,3,3.8,4.3,5.9c0.4,0.7,0.7,1.5,1.1,2.2c0.2,0.7,0.5,1.4,0.6,2.1c0.2,0.8,0.3,1.7,0.4,2.5
					c0.1,1.2,0.3,2.5,0.3,3.7c0,1.3,0.2,2.6,0,3.9c0,0.5,0,1-0.1,1.5c-0.1,2.1-0.6,4.2-0.9,6.3c-0.1,0.9-0.4,1.7-0.4,2.6
					c-0.3,0.8-0.3,1.6-0.4,2.3c-0.2,1.1-0.4,2.1-0.5,3.2c0.4-0.8,0.4-1.7,0.6-2.5c0.1-0.8,0.4-1.5,0.4-2.2c0.3-0.9,0.5-1.8,0.7-2.7
					c0.5-3.1,1.2-6.2,1.2-9.4c0-2.5-0.1-5.1-0.6-7.6c0-0.3,0-0.6-0.1-0.9c-0.2-1-0.5-2.1-0.9-3c-0.7-2.2-1.9-4.2-3.3-6
					C116.3,51.9,115.9,51.4,115.6,50.9z"/>
				<path class="st8" d="M124.1,109.5c-0.3-1.6-1.1-2.9-1.8-4.4c-0.6-1.5-1.5-2.9-2.2-4.4c-0.4-1-0.7-2-0.9-3
					c-0.4-1.4-0.6-2.9-0.8-4.3c-0.1-0.7,0.1-1.4,0.1-2.1c-0.2,0.6-0.3,1.2-0.3,1.9c0,1.5,0.1,3,0.5,4.5c0.3,1.2,0.6,2.5,1.2,3.6
					c0.6,1.3,1.4,2.6,2,3.9c0.8,1.6,1.9,3.2,1.9,5c-0.1,1.7-0.4,3.5-1.4,5c-0.9,1.3-2.2,2.4-3.2,3.6c-0.8,1-1.3,2.2-1.6,3.4
					c-0.4,2-0.6,4.1-0.4,6.2c0,0,0.2,0,0.3,0.1c-0.1-1.9,0.1-3.8,0.5-5.7c0.3-1.4,0.8-2.7,1.7-3.8c0.9-1.2,2.2-2.2,3-3.5
					c0.8-1.1,1.2-2.4,1.3-3.7C124.2,111,124.3,110.2,124.1,109.5z"/>
				<path class="st8" d="M94,155.9c2.6-1.8,4.8-4.3,6.1-7.2c0.9-2.1,1.2-4.3,1.1-6.6c0-2.3,0.6-4.5,1.7-6.4c0.8-1.2,1.7-2.4,2.9-3.4
					c0.9-0.8,1.8-1.7,2.7-2.5c1.2-1.1,2.2-2.3,3.2-3.6c1-1.3,1.8-2.8,2.4-4.3c0.7-2.1,1.2-4.3,0.9-6.5c-0.2-1.5-0.2-3-0.4-4.6
					c-0.2-1.9,0-3.8,0.2-5.7l0,0c0-0.5,0-1,0.2-1.5c0.1-0.7,0.4-1.2,0.7-1.9c-0.7,0.7-1.1,1.7-1.1,2.8c-0.4,2.2-0.6,4.4-0.4,6.6
					c0.1,1.3,0.2,2.6,0.3,3.9c0.1,1.2,0,2.3-0.1,3.5c-0.4,1.8-0.9,3.7-1.8,5.3c-0.8,1.5-1.8,2.7-2.9,4c-1.7,2-4,3.6-5.8,5.5
					c-1.4,1.7-2.5,3.7-2.9,5.8c-0.4,1.9-0.2,3.8-0.4,5.7c-0.1,1.1-0.4,2.2-0.7,3.2c-1.2,3-3.5,5.6-6.2,7.3c-1.5,0.9-3,1.7-4.6,2.5
					c-1.2,0.6-2.5,1.4-3.5,2.3c-0.9,0.8-1.7,1.7-2.3,2.7c-2,3.4-2.5,7.8-0.9,11.4c0.7,1.7,1.7,3.2,1.9,5c0.2,1.5,0.2,3.1-0.3,4.6
					c-0.5,1.6-1.7,2.8-2.9,4c-0.8,0.8-1.5,1.7-2.1,2.6c-0.9,1.6-1.4,3.6-0.8,5.4c0.3,1,1,1.9,1.7,2.7c1.1,1.1,1.7,2.5,2.1,4
					c0.1,0,0.3,0,0.4,0c-0.1-1.2-0.4-2.3-1-3.3c-0.6-1.1-1.5-1.9-2.1-3c-0.6-1.2-0.6-2.8-0.2-4.1c0.5-1.6,1.6-3,2.8-4.1
					c1.2-1.1,2.2-2.4,2.7-4c0.6-1.8,0.5-3.8,0.2-5.7c-0.2-1-0.6-1.9-1-2.8c-0.7-1.5-1.3-3-1.5-4.6c-0.2-2.2,0.1-4.6,1.1-6.6
					c0.6-1.5,1.6-2.8,2.9-3.8c1.4-1.2,3.1-2,4.7-2.9C91.8,157.1,92.9,156.5,94,155.9z"/>
				<path class="st8" d="M116.8,141.5c-0.3-0.5-0.8-0.9-0.9-1.5c-0.2-0.6-0.3-1.3-0.2-2c0.2-0.9,0.5-1.7,0.8-2.6
					c0.3-0.9,0.8-1.8,0.9-2.8h0.1c0-0.5,0.1-1.1-0.2-1.5c-0.1,0.5-0.2,1-0.3,1.6c-0.7,1.7-1.5,3.3-1.9,5.1c-0.2,1.1,0,2.3,0.6,3.1
					c1.1,1.4,1.5,3.3,1.2,5c-0.2,1.5-0.6,2.9-1.2,4.3c-1,1.8-2.3,3.5-4,4.7c-2.4,1.7-5.3,2.5-8,3.6c-1.6,0.5-3.1,1.2-4.6,2
					c-1.4,0.8-2.8,1.7-3.9,2.9c-1.3,1.3-2.5,2.9-3.1,4.7c-0.5,1.5-0.4,3.1-0.3,4.6c0.1,1.2,0.2,2.3-0.2,3.4
					c-0.3,0.7-0.9,1.2-1.4,1.8c-0.5,0.8-1,1.7-0.9,2.6c0,1.1,0.4,2.1,1,2.9c0.5,0.8,0.8,1.8,0.7,2.8c-0.1,0.9-0.2,1.8-0.6,2.6
					c-0.8,1.5-2.4,2.4-3.1,3.9c-0.5,1-0.7,2.1-0.7,3.3c0,0.7,0,1.4,0.1,2.1l0,0c0,0.5,0,1,0.1,1.5c0.1,0,0.2,0,0.3,0
					c0-0.9,0-1.8,0-2.7c0.1-1.4,0.3-2.8,1-4.1c0.6-1.1,1.6-1.8,2.3-2.7c1-1.1,1.2-2.7,1.2-4.1c0-1-0.3-2-0.8-2.8s-0.9-1.6-0.9-2.5
					c0-0.8,0.3-1.5,0.7-2.1c0.5-0.8,1.2-1.3,1.6-2.1c0.3-0.8,0.4-1.7,0.3-2.5c0-1.7-0.4-3.3,0-5c0.3-1.4,1-2.7,1.9-3.8
					c2.1-2.7,5.1-4.5,8.2-5.7c0.5-0.2,1-0.3,1.4-0.5c0.3-0.1,0.6-0.2,0.9-0.3c1.9-0.7,3.8-1.3,5.6-2.3c1.1-0.6,2.1-1.3,3-2.2
					c1.1-1.1,2-2.3,2.7-3.6c0.8-1.5,1.2-3.2,1.3-4.8C117.8,144.3,117.5,142.8,116.8,141.5z"/>
				<path class="st8" d="M110.8,133.1c0.6-0.6,1.1-1.3,1.7-2c0,0-0.1-0.2-0.1-0.3c-0.7,0.7-1.4,1.4-2,2.2c-1.3,1.6-2.4,3.5-2.5,5.6
					c-0.2,2.1,0.8,4.1,0.7,6.2c-0.1,0.8-0.2,1.7-0.5,2.5c-0.3,0.9-0.9,1.7-1.4,2.4c-1,1.5-2.3,2.8-3.8,3.8c-1.6,1.1-3.2,2.1-4.8,3
					c-2.4,1.6-5,3.1-7.1,5.1c-0.8,0.8-1.7,1.7-2.4,2.7c-1,1.3-1.7,2.9-1.7,4.6c0,2,0.7,3.9,0.7,5.9c0,0.9-0.1,1.9-0.3,2.8
					c0.1,0,0.2,0,0.4,0c0.7-2.1,0.6-4.4,0.3-6.6c-0.2-1.2-0.3-2.5,0-3.6c0.6-2.2,2.3-4,3.8-5.6c0.4-0.3,0.8-0.7,1.2-1.1
					c1.6-1.2,3.3-2.3,5-3.4c0.9-0.6,1.9-1.1,2.9-1.7c1.7-1.1,3.3-2.1,4.8-3.5c1-1,1.8-2.2,2.6-3.4c0.8-1.2,0.9-2.6,1-4
					c0.2-2.1-0.9-4.1-0.7-6.2C108.6,136.5,109.6,134.7,110.8,133.1z"/>
				<path class="st8" d="M78.5,159.5c0.6-1.3,1.6-2.4,2.8-3.3c1.2-1,2.6-1.8,4-2.7c1.8-1.1,3.9-1.9,5.7-3c2.7-1.9,4.8-4.6,5.8-7.8
					c0.4-1.1,0.3-2.4,0.4-3.5c-0.4,0.3-0.4,0.8-0.5,1.2c0,0.6-0.2,1.2-0.3,1.8c-0.5,1.8-1.5,3.4-2.7,4.9c-1,1.2-2.2,2.3-3.6,3.1
					c-0.8,0.4-1.7,0.9-2.5,1.3c-1.7,0.7-3.2,1.7-4.7,2.6c-1.3,0.9-2.7,1.9-3.8,3.1c-1.3,1.5-2,3.3-2.2,5.3c-0.2,1.7-0.4,3.4-0.1,5.1
					c0.3,1.7,1.1,3.2,1.7,4.7c0.1,0.8,0.4,1.6,0.6,2.4c0.4,1.8,0.6,3.7,0.5,5.6h0.1c0-2.2-0.1-4.4-0.6-6.6c-0.1-0.6-0.2-1.2-0.5-1.7
					c-0.2-0.9-0.6-1.7-0.8-2.6c-0.7-2.2-0.6-4.6-0.3-6.8C77.8,161.4,78,160.4,78.5,159.5z"/>
				<path class="st8" d="M78.8,205.5c-0.7-0.4-1.5-0.8-2.3-1.1c-1.7-0.5-3.3-1.1-4.8-2.1c-1-0.7-1.5-1.8-2-2.9
					c-0.5-1.2-0.5-2.6-0.1-3.9c0.6-2,1.8-3.7,3.2-5.4c0.7-0.8,1.4-1.7,1.9-2.6c1-1.7,1.6-3.6,1.9-5.6c0.2-1.2,0.3-2.4,0.2-3.5
					c-0.2-1.7-0.8-3.3-1.5-5c-0.5-1.3-1.2-2.5-1.7-3.7c-0.4-0.7-0.8-1.3-1-2.1c-0.6-1.9-1.1-3.9-0.8-5.9c0.2-2.9,1.5-5.7,3.6-7.8
					c1.3-1.3,2.9-2.5,4.6-3.3c2.1-0.9,4.4-1.8,6.5-2.9c0.7-0.2,1.3-0.6,2-0.9c1.2-0.6,2.1-1.5,2.9-2.4c1.4-1.7,2.4-3.8,2.9-6
					c0.3-1.2,0.4-2.5,0.8-3.7c0.7-2,1.9-3.7,3.4-5.2c1-1,2.3-1.7,3.4-2.6c0.6-0.2,1.2-0.7,1.7-1.1c2.1-1.2,3.5-3.2,4.5-5.4
					c0.8-1.7,1.2-3.7,1.4-5.5c0.3-1.8,0-3.7,0.2-5.6c0-1.3,0.4-2.6,0.9-3.8c-0.4,0.5-0.7,1.2-0.8,1.8c-0.5,1.8-0.4,3.6-0.4,5.4
					c-0.1,3.1-0.7,6.2-2.3,8.9c-0.8,1.5-2.1,2.7-3.5,3.7c-0.7,0.5-1.5,0.9-2.2,1.6c-0.1,0-0.2,0-0.3,0.1c-1.3,0.9-2.7,1.9-3.8,3.1
					c-1.7,1.8-2.9,4.1-3.2,6.5c-0.1,1.1-0.3,2.2-0.6,3.3c-0.7,2.3-2.1,4.6-4.1,5.8c-1.1,0.7-2.2,1.1-3.4,1.6
					c-1.4,0.7-2.9,1.2-4.3,1.8c-1.5,0.6-3,1.2-4.3,2.2c-1.4,1.1-2.7,2.2-3.7,3.7c-1.2,1.7-2.1,3.7-2.3,5.7c-0.2,1.2-0.3,2.5,0,3.8
					c0.2,1.3,0.6,2.6,1.1,3.8c0.8,1.8,1.9,3.5,2.6,5.4c0.7,1.8,1.5,3.7,1.4,5.7c-0.1,3.3-1.2,6.6-3.3,9.2c-1.2,1.4-2.4,2.9-3.3,4.6
					c-0.9,1.7-1.4,3.7-0.9,5.5c0.4,1.5,1.1,3,2.4,4c0.8,0.6,1.8,0.9,2.8,1.3c1.6,0.6,3.4,0.8,4.9,1.7v0.1c0.6,0.4,1.2,0.8,1.7,1.4
					c0.4,0.4,0.5,0.9,0.9,1.3C81.2,207.3,79.9,206.3,78.8,205.5z"/>
			</g>
			<path class="st34" d="M26.6,207.6c0.7,0,1.3,0.4,1.9,0.8c0.7,0.5,1.2,1.2,1.6,2c0.9,1.6,1.7,3.2,2.4,4.9c-0.1,0-0.2,0.1-0.3,0.2
				c-0.6-1.5-1.4-2.9-2.3-4.3c-0.5-0.8-1-1.6-1.7-2.2C27.8,208.4,27,208.1,26.6,207.6z"/>
			<path class="st35" d="M38.4,208.4c0.1,0,0.3-0.1,0.4-0.1c1.2,1,1.7,2.5,2.5,3.7c0.5,0.9,1,1.8,1.7,2.6c0.2,0.2,0.2,0.4,0.2,0.7
				c-1-0.8-1.7-1.9-2.3-2.9c-0.7-1.1-1.2-2.3-2-3.3C38.6,208.9,38.5,208.7,38.4,208.4z"/>
			<path class="st36" d="M18.1,216.3c0.3,2.1,0.3,4.3,0.3,6.5c0,1,0,2,0,3h0.2c0-0.1,0-0.2,0.1-0.3c0.1-0.8,0.1-1.6,0.2-2.3
				c0.2-3.6,0.4-7.2-0.7-10.7c-0.4-1.2-0.9-2.1-1.4-3.2c-0.1,0-0.3,0-0.4,0c0,0.9,0.5,1.7,0.8,2.5C17.6,213.1,17.9,214.7,18.1,216.3
				z"/>
			<path class="st37" d="M123,213.3c0.1-0.5,0.2-1.1,0.4-1.6c0,0.7-0.1,1.3-0.2,2c0.1-0.4,0.3-0.8,0.4-1.2c-0.1,0.8-0.2,1.6-0.5,2.4
				c0,0.2-0.3,0.3-0.4,0.4C122.8,214.5,123,213.9,123,213.3z"/>
			<path class="st38" d="M58.6,213.5c-0.1-0.2,0.1-0.4,0.4-0.4c0.8,0.3,1.4,0.8,2,1.3c1.3,1.2,2.6,2.5,3.6,4.1
				c-0.1,0-0.2,0.1-0.3,0.2c-1-1.6-2.4-2.8-3.8-4C59.9,214.3,59.2,213.9,58.6,213.5z"/>
			<path class="st39" d="M119.7,218.4c0.2-1.7,0.1-3.4,0.4-5c0,1.3-0.1,2.6-0.1,3.9c0.1-0.6,0.2-1.2,0.3-1.9c0,1-0.1,2.1-0.3,3.1
				C120,218.4,119.8,218.4,119.7,218.4z"/>
			<path class="st40" d="M32.4,215.3c0.2,0.6,0.4,1.2,0.7,1.7c-0.1,0-0.2,0-0.3,0.1c-0.3-0.5-0.5-1.1-0.7-1.6
				C32.2,215.4,32.4,215.3,32.4,215.3z"/>
			<path class="st41" d="M64.3,218.7c0.1,0,0.2-0.1,0.3-0.2c0.3,0.5,0.5,1,0.6,1.6C64.7,219.7,64.5,219.2,64.3,218.7z"/>
			<path class="st42" d="M18.1,225.7h0.2c0.1-1,0.1-2,0-3c-0.2,0.8,0,1.7-0.2,2.5c-0.9-1.4-1.2-3-2-4.5c0,0,0,0.1-0.1,0.1
				c0,0-0.1,0.1-0.1,0.2c0.5,1.5,1.1,3,1.9,4.4C18,225.5,18.1,225.6,18.1,225.7z"/>
			<path class="st43" d="M22.6,225.7c0-1,0.1-2-0.1-3c0,0.5,0,1.1,0,1.7c-0.1-0.2-0.2-0.4-0.3-0.6c0,0.6,0,1.2,0,1.9L22.6,225.7
				L22.6,225.7z"/>
		</g>
	</g>
</g>
</svg>
