<svg xmlns="http://www.w3.org/2000/svg" xmlns:xlink="http://www.w3.org/1999/xlink" xml:space="preserve" id="Layer_1" x="0" y="0" style="enable-background:new 0 0 180 180" version="1.1" viewBox="0 0 180 180"><style>.st2{fill:#764074}.st4{fill:#e56324}.st7{fill:#b95d38}.st8{fill:#cc492f}.st11{fill:#160e0b}.st13{fill:#ba9f80}</style><defs><path id="SVGID_1_" d="M0 0h180v180H0z"/></defs><use xlink:href="#SVGID_1_" style="overflow:visible;fill:#7a2de8"/><clipPath id="SVGID_2_"><use xlink:href="#SVGID_1_" style="overflow:visible"/></clipPath><g style="clip-path:url(#SVGID_2_)"><path d="M187.4 209.7c-4.1-12.5-9.1-24.8-14.9-36.7-.9-1.8-1.7-3.6-3-5.1l-.2-.2c-.7-1.3-1.5-2.6-2.5-3.7-1-1.2-2.2-2.1-3.4-3-.8-.7-1.8-1.2-2.8-1.7-.9-.4-1.9-.7-2.8-1-2.6-1-5.2-2.1-7.8-3.1-2.5-1-4.9-2.2-7.3-3.3-2.5-1.1-4.9-2.2-7.4-3.4-1.1-.5-2.3-1-3.3-1.6-1.1-.6-2.2-1.1-3.3-1.8-1-.7-2.1-1.3-3.1-1.9-1-.7-2.2-1.1-3.3-1.7-.4-.4-.7-.8-1.1-1.2s-.7-.9-1.2-1.1h-.3c.4.4.8.8.9 1.3.2 1.1.2 2.3-.1 3.3-.3 1.1-.5 2.2-.9 3.2-.8 2.1-1.6 4.2-2.5 6.2-1 2.2-2 4.5-3 6.7-1.2 2.5-2.5 5-3.8 7.4-1.7 3.4-3.4 6.9-5.4 10.2-.8 1.1-1.3 2.3-1.9 3.6-1.2 2.5-2.5 5-4 7.4-.1.2-.4.2-.6.3-1-.5-2-.8-3-1.2-2.5-.9-5-1.9-7.4-3.2-2-1.1-4.1-2-6.1-3.3-1-.7-2-1.3-2.9-2.1s-1.9-1.5-2.8-2.3l-1.8-1.5c-1.6-1.4-2.9-3-4.3-4.7-.8-1.1-1.7-2.1-2.4-3.2-.4-.6-.8-1.2-1.2-1.7-.6-.6-1-1.3-1.5-2.1-1.2-1.9-2.1-4-3.1-6-.5-1.1-1-2.3-1.4-3.4-1-2.9-2.2-5.7-2.8-8.7-.2-1-.6-2-.4-3.1.1-.8.4-1.5.8-2.3 0 0-.2-.1-.2-.2-.2.1-.3.2-.4.4-.8.9-1.7 1.7-2.5 2.6-.3.4-.6.8-.9 1.1-1 .9-2.1 1.7-3.1 2.7-1 .9-2.1 1.7-3.1 2.5-1.5 1-3 2.2-4.5 3.2-2.1 1.3-3.9 2.9-5.7 4.5-.9.8-1.9 1.7-2.9 2.5-1.8 1.4-3.5 2.9-5.3 4.3-1 .8-2 1.7-2.9 2.5-1.2 1-2.4 2-3.6 2.9-.8.6-1.7 1.2-2.4 2-1.2 1.2-2.5 2.2-3.7 3.4-.8.4-1.4.9-1.9 1.7-3.7 5.3-6.7 11-9 17.1-.7 1.7-1.2 3.5-1.7 5.2-1.2 3.7-2.2 7.4-2.9 11.2l186 .1z" style="fill:#38312d"/><path d="M87.4 25.5c1.2-.1 2.5-.1 3.7-.1 2 0 4.1 0 6.1.1 3.5.1 6.9 1 10 2.5 1.4.6 2.7 1.5 3.9 2.5.5.3 1.1.6 1.6 1 1.2 1.1 2.5 2.2 3.4 3.5 1.3 1.8 2.6 3.7 3.6 5.8.7 1.5 1.4 3 1.7 4.6.3 1.4.8 2.8 1.1 4.1.6 2.8.8 5.6 1.1 8.4.2 2.8.7 5.5.7 8.3v1.9c.2 1.1.1 2.1 0 3.2-.3 1.9-.3 3.8-1 5.6-.8 2-1.4 4-2.4 5.8-.4.7-.6 1.5-1.1 2.2-.5.8-1 1.5-1.7 2.1-.9.7-2.1.8-3.2.9-1 .1-2.1.1-3 0-2.5-.1-5 0-7.4.1-3.4.2-6.8.8-10.1 1.2-3.5.5-7 .7-10.6.9-3.2.2-6.4.5-9.6.9-2.5.3-5 .5-7.5.8-1.2 0-2.4.1-3.5-.3-.7-.2-1.2-.8-1.6-1.3-1.3-1.6-2.2-3.4-3.1-5.2-.8-1.5-1.4-3-2.2-4.5-.8-1.4-1.4-2.9-2.2-4.4-.5-1-1-2.1-1.4-3.2-.5-1.3-1-2.6-1.4-3.9-.3-1-.6-2.1-.8-3.1-.3-2.1-.2-4.3 0-6.5.2-1.4.6-2.9.9-4.2.5-1.8 1.1-3.6 1.9-5.3 1.4-3 3.5-5.6 6.1-7.7 1.3-1.1 2.6-2.1 4.1-3 1.8-1 3.7-1.8 5.7-2.4.5-1.6 1.4-3 2.6-4.2 1.1-1.1 2-2.3 3.3-3.2.9-.7 2-1.2 3-1.7.9-.4 2-.6 3-.9.9-.3 1.9-.4 2.8-.6 1.1-.5 2.3-.6 3.5-.7z" class="st2"/><path d="M63.3 131c.4-.5.8-.9 1.4-1.2.2-.1.4 0 .6 0 0 .3 0 .6-.1.9 2.1.4 4.1 1.1 6.2 1.3 3.1.4 6.2 1 9.4 1 1.5.1 2.9 0 4.4 0 .8 0 1.7 0 2.5-.1 2.9-.2 5.8-.4 8.7-.8 3.4-.3 6.7-.7 10.1-1.2 1.3-.3 2.6-.4 3.9-.5.7 0 1.5-.1 2.2.1 1 .3 1.5 1.2 2.3 1.9 1 .8 1.9 1.8 2.6 2.9.6 1 1.2 2 1.9 2.9.3.4.6.7.8 1h-.3c.4.4.8.8.9 1.3.2 1.1.2 2.3-.1 3.3-.3 1.1-.5 2.2-.9 3.2-.8 2.1-1.5 4.2-2.5 6.2-1 2.3-2 4.5-3 6.7-1.2 2.5-2.5 5-3.8 7.4-1.7 3.4-3.4 6.9-5.4 10.2-.8 1.1-1.3 2.3-1.9 3.6-1.2 2.5-2.5 5-4 7.4-.1.2-.4.2-.6.3-1-.5-2-.8-3-1.2-2.5-.9-5-1.9-7.4-3.2-2-1.1-4.1-2-6.1-3.3-1-.7-2-1.3-2.9-2.1s-1.9-1.5-2.8-2.3l-1.8-1.5c-1.6-1.4-2.9-3-4.3-4.7-.8-1.1-1.7-2.1-2.4-3.2-.4-.6-.8-1.2-1.2-1.7-.6-.6-1-1.3-1.5-2.1-1.2-1.9-2.1-4-3.1-6-.5-1.1-1-2.3-1.4-3.4-1-2.9-2.2-5.7-2.8-8.7-.2-1-.6-2-.4-3.1.1-.8.4-1.5.8-2.3 0 0-.2-.1-.2-.2 1.6-2.6 2.5-5.7 4.2-8.2.2-.1.6-.3 1-.6z" style="fill:#fff3db"/><path d="M74.6 42.8c.5-.2 1.1.1 1.6.1 1.7 0 3.3.5 4.9.6 1.1.1 2.1.5 3.1.7 2.2.5 4.3 1.2 6.4 2.1 1.1.4 2.1.9 3.2 1.5s2.1 1.4 3.2 2.1c1.1.7 2.3 1.1 3.5 1.6 2.1 1.1 3.7 2.7 5.7 3.8.8.4 1.4.9 2.1 1.5 1.1.9 2.1 1.8 3.2 2.7 1.1 1.2 2.2 2.2 3.3 3.4.8 1 1.6 2.1 2.2 3.2.4.8.8 1.6 1.2 2.3-.1.2-.4 0-.5 0-.8-.4-1.7-.8-2.4-1.3-.9-.7-1.8-1.5-2.7-2.2-1.9-1.4-4-2.7-5.9-4.1-2.2-1.5-4.3-3.2-6.6-4.6-1.2-.8-2.5-1.3-3.7-1.9-1.9-.5-3.4-1.3-4.9-2.3-2.3-1.4-4.8-2.4-7.2-3.7-2.1-1.2-4-2.6-6.2-3.7-1.2-.5-2.5-1-3.5-1.8z" class="st4"/><path d="M73.3 43.3c.4-.3.8-.4 1.3-.5 1 .9 2.3 1.3 3.4 1.9 2.1 1 4.1 2.5 6.2 3.7 2.3 1.3 4.9 2.4 7.2 3.7 1.5.9 3.1 1.8 4.8 2.4 1.2.6 2.5 1.1 3.7 1.9 2.3 1.3 4.4 3 6.6 4.6 2 1.4 4 2.7 5.9 4.1.9.7 1.7 1.6 2.7 2.2.8.5 1.6.9 2.4 1.3.2 0 .4.2.5 0 .6.9 1.6 1.5 2.4 2.2.4.4 1.2.8 1.2 1.5.1 1.4 0 2.9-.2 4.3 0 .2 0 .5-.1.7-.3.3-.3.7-.4 1.1-.2.9-.2 1.8-.3 2.7-.1 1.6-.2 3.1-.3 4.6-.1 1-.1 2.1-.2 3.1-.1 1.1-.1 2.3 0 3.4.2 2.2-.2 4.4 0 6.6h.2c-.6 1.6-.9 3.3-1.2 4.9-.3 1.7-.8 3.4-1.3 5.1-.8 2.8-2 5.4-3.3 8-.6 1.3-1.4 2.5-2 3.7l-.1-.2c-.7 1-1.4 2-1.9 3.1-.4 1-1.2 1.7-1.7 2.6-1.1 2-2.4 3.9-3.4 5.9-.7 1.2-1.5 2.4-2.5 3.3-.8.9-2 1.6-3.3 1.8-1.6.5-3.2.6-4.8.6-1.7.1-3.4.1-5 .1-1.4-.1-2.9 0-4.3-.3-1.6-.3-3-.9-4.4-1.6-1.4-.7-2.8-1.5-3.9-2.7-1.4-1.5-2.5-3.2-3.5-5-1.7-2.9-3.4-5.9-5.1-8.8-.8-1.2-1.6-2.3-2.5-3.3-.5-.7-1.2-1.3-1.7-2.1-.4-.6-.9-1.2-1.4-1.8-.2-.2-.4-.4-.6-.4h-.1c-.9-1.5-1.7-3.1-2.3-4.7-.3-1-.7-2-.8-3l.1-.1c.2-.3.2-.6.3-.9.3-2.9.6-5.8 1-8.7.2-2.1.6-4.1.4-6.2-.1-.8-.1-1.6-.4-2.4.1-.8.3-1.6.4-2.4.1-1.9-.4-3.7-.7-5.6-.1-1.7-.1-3.4.7-4.9.7-1.4 1.5-2.9 1.8-4.5 0 0 .3-.1.4-.1.5-.9.9-1.9 1.3-2.9.7-1.7 1.5-3.5 1.7-5.4.3-1.4.3-2.8.5-4.1.2-1.6.4-3.2 1-4.7.5-1.7 1.4-3.3 2.4-4.7.2-.3.5-.6.6-.9 0-.1.1-.2.2-.3.8-.7 1.6-1.3 2.4-1.9z" style="fill:#f2844f"/><path d="M68.8 47.3c.6-.7 1.2-1.3 1.9-1.9-.1.4-.4.6-.6.9-1 1.5-1.8 3-2.4 4.7-.5 1.5-.8 3.1-1 4.7-.2 1.4-.2 2.8-.5 4.1-.2 1.9-1 3.6-1.7 5.4-.4 1-.8 2-1.3 2.9-.1 0-.3.1-.4.1.3-1.1.6-2.2.8-3.3.4-1.6.7-3.3.8-4.9 0-1.3.1-2.5.2-3.8.4-3.4 2-6.4 4.2-8.9z" class="st4"/><path d="M127.5 71.6c1.2-.5 2.6-.9 4-.7 1.4.2 2.7.8 3.6 2 1.1 1.2 1.6 2.9 1.7 4.5 0 1.7-.2 3.4-.6 5.1-.7 2.6-1.8 5.1-3.4 7.3-.8 1.1-1.6 2.1-2.5 3.1-1.1 1.2-2.5 2.2-3.8 3.2-.8.6-1.7 1.2-2.5 1.7-1.1.7-2.3.9-3.6.9h-.2c-.2-2.2.2-4.4 0-6.6 0-1.1-.1-2.3 0-3.4.1-1 0-2.1.2-3.1.2-1.6.2-3.1.3-4.6.1-.9.1-1.8.3-2.7.1-.4.1-.8.4-1.1 0 .7-.2 1.4-.3 2.1.5-1.9 1.3-3.7 2.2-5.4.1-.2.2-.4.4-.6 1.2-.7 2.5-1.2 3.8-1.7zM48 77.9c1.2-.8 2.7-1.1 4.1-.8 1.7.2 3.5 1 4.6 2.4.8 1.2 1.4 2.5 2.1 3.8.4 1.2 1.1 2.2 1.7 3.3 0-.3 0-.6.1-.8.3.8.4 1.6.4 2.4.2 2.1-.2 4.2-.4 6.2-.4 2.9-.8 5.8-1 8.7 0 .3 0 .7-.3.9-.8-.3-1.6-.3-2.3-.6-1.5-.4-2.9-1.2-4.4-2-1-.5-1.8-1.2-2.7-2-.9-1-1.8-2-2.5-3.2-1.4-2.1-2.6-4.5-2.9-7-.2-2.3-.1-4.7.6-7 .5-1.7 1.5-3.4 2.9-4.3z" style="fill:#f95939"/><path d="M62.4 111.7c.3 0 .4.2.6.4.5.6 1 1.2 1.4 1.8.5.8 1.2 1.4 1.7 2.1.9 1.1 1.7 2.1 2.5 3.3 1.7 2.9 3.3 5.9 5.1 8.8 1.1 1.7 2.1 3.5 3.5 5 1.1 1.2 2.5 2 3.9 2.7s2.9 1.2 4.4 1.6c1.4.3 2.9.2 4.3.3 1.7 0 3.4 0 5-.1 1.6 0 3.3-.1 4.8-.6 1.2-.3 2.4-.9 3.3-1.8 1-1 1.7-2.1 2.5-3.3 1.1-2 2.3-3.9 3.4-5.9.5-.9 1.2-1.7 1.7-2.6.6-1.1 1.2-2.1 1.9-3.1 0 0 0 .1.1.2-.2.7-.1 1.5-.1 2.2v5.6c0 1.1.2 2.3.2 3.4.1 1.3.3 2.7.9 3.9.1.9-.3 1.9-.7 2.7-1.9 3.1-3.4 6.4-5.5 9.3-.6.9-1.3 1.9-2 2.9l-2.4 3.3c-1 1.2-1.9 2.6-2.9 3.8-1.4 1.7-2.9 3.3-4.4 5-1.2 1.5-1.9 3.3-2.5 5-.2.6-.4 1.2-.4 1.8-.9-2-2-3.9-3.5-5.5-.9-1-1.9-2.1-3-2.9-.8-.7-1.6-1.3-2.4-2.1s-1.7-1.4-2.7-2c-1.2-.7-2.3-1.7-3.5-2.5-1.1-.8-2.2-1.6-3.2-2.5-1.1-.8-1.9-1.9-2.9-2.8-1.2-1.1-2.1-2.4-3.1-3.5-1.2-1.4-2-3.2-2.6-5-.4-1.4-.9-2.8-1.1-4.3-.1-.5-.2-1-.2-1.6-.2-1.5-.8-2.9-.7-4.5.1-1.2.3-2.3.4-3.4 0-2.5-.2-4.9-.5-7.4-.2-1.2 0-2.5-.2-3.7-.1-.8 0-1.7-.3-2.4 0-.6-.5-1.1-.8-1.6zm34.2-12.2c.3-.3.5-.8 1-.7.3 0 .4.4.3.6-.1.4-.4.8-.6 1.3-.5.8-1.3 1.5-1.9 2.3-.4.6-.8 1.1-1.3 1.6s-.9 1.2-1.5 1.7c-.7.6-1.7.8-2.6.5-1.1-.3-1.7-1.3-2.3-2.2-.4-.7-1.1-1.3-1.5-2.1-.3-.5-.7-1-.8-1.7.1-.3.4-.4.8-.4.3.1.5.2.8.3.2 0 .4-.1.7 0 .2.1.3.3.5.4 1.5.2 2.9.6 4.4.7.7 0 1.2-.3 1.9-.5.6-.6 1.5-1 2.1-1.8z" class="st4"/><path d="M97.5 113.5c.6-.2 1.2-.5 1.8-.5 0 .5-.5.8-.8 1.2-.6.6-.9 1.3-1.4 1.9-.4.6-.8 1.2-1.3 1.7-.3.4-.6.8-1.1 1-1.6.5-3.3.5-4.9.7-.6 0-1.4.3-1.9-.2-.3-.3-.7-.4-.9-.7-.8-1-1.7-2.1-2.6-3-.5-.5-.9-1.2-1.6-1.7 0 0 .2-.1.3-.2.9.1 1.8.4 2.7.4.5 0 1 .2 1.5.3 2.8.4 5.7.1 8.5-.3.6 0 1.2-.4 1.7-.6z" class="st4"/><path d="M99.9 62.8c-1.7-.2-3.5-.3-5.2-.4-1.4 0-2.9-.1-4.3 0-2.8.1-5.5.4-8.2 1.2-.9.3-1.9.5-2.7 1-.5.1-1 .3-1.4.7.6 0 1.2-.1 1.8-.4 1.5-.4 2.9-.9 4.5-1.1 3.6-.6 7.3-.4 10.9-.5 1.6 0 3.2.1 4.8.2.9 0 1.7.2 2.6.1v-.3c-1-.3-1.9-.4-2.8-.5z" class="st7"/><path d="M94.1 64.1c-1.7 0-3.4.1-5 .3-1.6.1-3.2.4-4.7.8-.4.1-.9.3-1.3.6 1-.1 2-.4 2.9-.5 2.8-.5 5.7-.6 8.5-.6 2.6 0 5.3.4 7.9.6V65c-2.8-.4-5.5-.8-8.3-.9zm2.5 2.2c-2.5-.3-5.1-.4-7.7-.2-.4 0-.8.1-1.3.2 0 .1 0 .2.1.3 2.7.1 5.4-.1 8.1.1.7 0 1.4.1 2.1 0v-.3c-.5 0-.9 0-1.3-.1zM94 73.4c0-.1.2-.2.3-.3 0 1.7.8 3.3 1.2 5-.4-.3-.5-.8-.7-1.3-.4-1.1-.9-2.2-.8-3.4zm-5.7.1c.5.6.5 1.4.7 2.1.1 1.2.1 2.4-.2 3.5h-.3c.2-1.1.3-2.2.2-3.3-.1-.7-.4-1.5-.4-2.3z" class="st7"/><path d="M125 77.3c1-.8 2.2-1.2 3.4-1.4 1.1-.1 2.3.1 2.9 1 .8 1 .7 2.4.4 3.5-.1.1-.1.2-.2.3 0-.7.2-1.4 0-2.1-.1-.7-.5-1.4-1.2-1.7-1.3-.5-2.8-.1-4 .4-.9.4-1.6 1.1-2.4 1.5.1-.6.7-1.1 1.1-1.5z" class="st8"/><path d="M116.7 79.1c-1-.1-1.9-.6-2.9-.7-.9 0-1.9-.3-2.8-.3-1.3-.1-2.6-.5-3.9-.5h-3.9c-1 .1-2.1.3-3.1.4-.6 0-1.2 0-1.8.1-.7-.2-1.1-.7-1.6-1.2s-.9-1.3-.6-2.1c.4.4.7.9 1 1.4-.4-.8-.6-1.6-.5-2.4h.3c.3.8.5 1.7.8 2.6 0 0 .1-.1.1-.2-.5-1.1-.5-2.3-.5-3.4.3-.8 1.1-1.4 2-1.5s1.8-.2 2.7-.1c1.5.1 2.9.4 4.4.8 1.7.5 3.4.9 4.7 2 1.1.4 1.9 1.1 2.8 1.8.4.1.7.4 1 .6v.4c-.4-.1-.8-.3-1.2-.5-.7-.1-1.4-.2-2.1-.2 1.1.1 2.1.4 3.1.9h.1c.4.2.8.5 1.2.9-.4 0-.6-.1-.9-.3-.4-.2-.9-.3-1.4-.4s-1.1-.2-1.7-.2c.8.2 1.5.5 2.2.8.9.4 1.8.7 2.5 1.3zm-29.8-4.5c0 .4-.1.7-.1 1-.1-.6-.3-1.2-.6-1.7-.4.2-.4.6-.4.9-.7-.5-1.1-1.3-1.6-2h-.4c0 .4.1.9 0 1.3-.6-.3-1.2-.6-1.8-.8-1.2-.4-2.4-.4-3.6-.5-1.1 0-2.2.1-3.3.6-1 .4-2 .8-2.9 1.3-1.2.7-2.5 1.2-3.6 2-.6.4-1.2.8-1.7 1.4h.4c.5-.2 1.1-.5 1.6-.8-.7.6-1.3 1.2-1.9 1.8-.4.4-.8.7-1 1.2.4-.1.8-.4 1.2-.5-.2.7-.9 1.1-1 1.8.8-.3 1.6-.9 2.5-1.3 2.5-1 5.2-1.5 7.9-1.9 1.7-.1 3.4-.2 5.1 0 1.6.1 3.1.2 4.7 0 .4 0 .5-.4.6-.6.4-1 .6-2.1.3-3.1-.3-.1-.4-.1-.4-.1z" class="st2"/><path d="M131.6 78.6c.2.7 0 1.4 0 2.1.1-.1.1-.2.2-.3-.1.8-.5 1.5-.8 2.2-.8 1.7-1.8 3.2-2.9 4.7-.6.8-1.2 1.7-2.1 2.3.4-.6.9-.9 1.3-1.5 1.1-1.3 2-2.7 2.8-4.2.9-1.6 1.5-3.5 1.5-5.3z" class="st8"/><path d="M88.5 27c.5-.2 1.1-.1 1.7-.1.5 0 1 0 1.6.1 1.3 0 2.5.3 3.8.4 2.3.3 4.6.8 6.8 1.7 1.8.7 3.5 1.7 5 2.9 1.2.9 2.4 1.8 3.5 2.9h.1c.9.8 1.8 1.6 2.7 2.5.4.4.9.6 1 1.2-.5-.3-1-.8-1.4-1.2l-2.7-2.4c-1.8-1.5-3.7-2.9-5.7-4.1-2.3-1.2-4.9-2.1-7.4-2.6-1.4-.2-2.8-.4-4.2-.7-1-.2-2.1-.2-3.1-.4-.7 0-1.2 0-1.7-.2zm-13 4.6c1.1-1.1 2.3-2 3.6-2.9.2-.1.4-.4.5-.6-.5.2-.9.5-1.3.8-1.2.8-2.5 1.8-3.5 2.9l-2.4 2.4c-.9.9-1.7 1.9-2.1 3.2.1 0 .2 0 .4.1.2-.2.4-.5.5-.8 1.1-1.8 2.6-3.4 4.1-4.9l.2-.2zM88 29.3c3.7 0 7.4.7 10.9 1.9 2.9.9 5.7 2.3 8.3 3.9 2 1.2 3.9 2.6 5.6 4.2l1.2 1.2c.2.2.4.6.8.5-.5-.8-1.2-1.5-1.9-2.2-4.7-4.4-10.6-7.6-16.8-9.2-1.5-.4-3.1-.6-4.6-.8-1.6-.1-3.2 0-4.8 0-.2 0-.7.1-.4.4.5.2 1.1.2 1.7.1zM75.4 35c2-1.6 4-3 6.1-4.4.5-.4 1.1-.6 1.5-1.1h-.4c-2 1.2-3.9 2.5-5.8 3.9-1.5 1.2-3.1 2.3-4.3 3.8-.4.4-.8.9-.8 1.6.2-.1.3-.2.4-.4.8-1.4 2-2.4 3.3-3.4zm5.8-.9c1.2-.6 2.5-1.2 3.8-1.5v-.3c-.5 0-1 .1-1.5.3-2.2.8-4.3 1.9-6.2 3.1-1.7 1.1-3.5 2.2-4.9 3.7-.2.1-.1.3-.1.5.8-.5 1.4-1.1 2.1-1.7 2.1-1.5 4.4-2.9 6.8-4.1zm32.6 9.7c-2.1-1.9-4.3-3.6-6.6-5.2-3.7-2.6-7.9-4.6-12.4-5.7-1.4-.3-2.8-.5-4.2-.6-.5 0-1 0-1.6.2.8.1 1.6.1 2.5.2 3.6.5 7 1.6 10.3 3.2 2.4 1.1 4.5 2.5 6.6 4 1.8 1.3 3.5 2.6 5.2 4.1.3.2.5.5.9.6-.1-.3-.4-.5-.7-.8zm-33.1-6.4c2.2-.8 4.4-1.4 6.7-1.6.2 0 .4-.1.6-.1-.2-.3-.6-.2-.8-.2-2.9.2-5.6 1.1-8.3 2.1-1.3.5-2.6 1.1-3.8 1.9-.6.4-1.2.8-1.6 1.4.4.1.6-.2.9-.3 1.8-1.5 4-2.4 6.3-3.2zm18.5 2c4.4 1.9 8.6 4.3 12.4 7.2v-.4c-3.4-2.8-7.3-5-11.2-6.9-2.5-1.2-5-2.1-7.7-2.6-.6-.2-1.2-.4-1.9-.1.4.2.8.4 1.2.4 2.5.5 4.9 1.3 7.2 2.4zm-11.7.2c1.2.2 2.5.5 3.7.8 2.5.7 4.9 1.4 7.2 2.3.2 0 .4.1.5.1h-.1c.6.3 1.2.5 1.8.7s1.2.5 1.8.7v-.3c-1-.4-2-.9-3-1.2-3-1.2-6.1-2.2-9.2-3.1-2.7-.8-5.6-.9-8.4-.6-2 .2-4 .6-5.9 1.4-.7.3-1.5.6-2 1.2.6 0 1.1-.3 1.6-.5 1.5-.5 3-1 4.6-1.2 2.5-.5 5-.7 7.4-.3zm31.6 4.5c.6 1.2 1.2 2.4 1.7 3.6 0 .2.2.4.4.4-.5-1.8-1.3-3.5-2.2-5.2-.5-1-1.1-2-2.1-2.5 0 0-.2.1-.3.1.4.4.8.8 1.1 1.2.6.7 1 1.6 1.4 2.4zM58.6 56.3c-.1 1.3-.3 2.7.2 4 .1-.1.2-.2.2-.4-.2-1.5 0-3.1.2-4.6.4-2.1.8-4.2 1.6-6.2.9-2.5 2.3-4.6 4.1-6.5.5-.5 1.1-1 1.8-1.4l-.1-.2c-1 .2-1.7 1-2.5 1.7-2.1 2.1-3.5 4.8-4.3 7.6-.6 2-1 4-1.2 6zm26.6-14.4c2.9.1 5.8.8 8.6 1.6 2.9.9 5.8 2 8.5 3.3 1.4.7 2.8 1.5 4.1 2.2.6.5 1.3.8 2 1.3.4.2.7.5 1.1.4-.8-.7-1.7-1.2-2.7-1.8-2-1.2-3.9-2.4-6-3.4-2.1-.9-4.2-1.8-6.3-2.5-3.1-.9-6.2-1.7-9.5-1.7-1-.1-2 0-3 0-1.5 0-2.9.2-4.4.3-.6 0-1.3 0-1.8.5 1 .1 2 0 2.9 0 .6 0 1.3 0 1.9-.1 1.6 0 3.1-.1 4.6-.1zM67 43.2c.3-.4.8-.7 1-1.1-.2-.2-.5 0-.7.1-1.8 1.6-3.1 3.6-4 5.7-.8 1.7-1.2 3.6-1.6 5.4 0 .3-.1.6-.1.9-.1.2-.2.4-.2.6-.2 1.2-.4 2.5-.3 3.8 0 .2 0 .5.2.6 0-.4 0-.8.1-1.3 0-.9.3-1.8.3-2.8.3-1.3.5-2.7.9-4.1.8-2.8 2.3-5.6 4.4-7.8zm-.8 3c-.9 1.2-1.5 2.5-2 3.9-.6 1.6-1.1 3.2-1.5 4.8-.2.8-.4 1.6-.4 2.4h-.1c0 .5-.1 1.1 0 1.7h.3c0-.4 0-.9.1-1.3.3-2.2 1-4.3 1.7-6.4.4-1.2.9-2.5 1.7-3.7 1-1.7 2.4-3.2 4-4.4.3-.3.7-.4.7-.9-.3 0-.5.1-.8.2-1.5 1-2.7 2.3-3.7 3.7zm49.5-2.2c.6.7 1.1 1.4 1.7 2.1.8 1.2 1.7 2.4 2.5 3.7 0 0 .2 0 .2-.1-.8-1.4-1.7-2.7-2.5-4.1-.6-.9-1.2-1.9-2.2-2.5-.2-.1-.4-.1-.6-.1.3.5.6.7.9 1zm-7.2 9.8c-1.7-1.4-3.5-2.7-5.4-3.9-4.5-2.9-9.5-5-14.7-6.2-.4-.1-.8-.2-1.2-.2-.4-.2-.8-.2-1.2-.3-.8-.1-1.7-.4-2.5-.3l.1.2c1.1.3 2.2.6 3.3.7 1.9.4 3.7 1 5.6 1.7 2.5.8 4.9 2 7.2 3.2 4.1 2.3 7.9 5.2 11.4 8.3 1.8 1.6 3.6 3.3 5.1 5.1.2.2.4.4.6.4-.1-.4-.5-.8-.8-1.1-2.1-2.9-4.8-5.3-7.5-7.6zm9.7 2.2c.2.2.4.3.6.4-.1-.2-.2-.3-.3-.4-1.7-1.7-3.4-3.4-5.2-5.1-1.7-1.6-3.4-3.2-5.3-4.4-.6-.4-1.2-.8-1.9-.8.4.4 1.1.7 1.6 1.1 3.7 2.8 7.1 6 10.5 9.2zm-5.4-10.3-.2.1c.4.4.9.8 1.3 1.3 1 1 1.8 2.2 2.6 3.3.5.7 1.1 1.4 1.5 2.2.1.2.2.3.4.4 0-.3-.1-.6-.3-.8-.6-1-1.2-2-2-3-.6-.9-1.2-1.8-2-2.5-.3-.4-.7-.8-1.3-1zm6.4 6.7c0 .7.5 1.2.8 1.9.9 2 1.9 4 2.5 6.1 0 .2.2.3.3.4-.1-1.1-.5-2.1-.9-3-.6-1.7-1.2-3.3-2.1-4.8-.2-.3-.4-.5-.6-.6zm2.1 15.2h.3c-.2-1-.5-2.1-.9-3-1.6-3.7-3.8-7.2-6.8-9.9-.3-.2-.7-.6-1.1-.5 2.3 2.4 4.4 4.9 6 7.7 1 1.9 2 3.7 2.5 5.7zm-63.7-8.7s.1 0 .2-.1c0-.3 0-.6-.1-.9-.1-.8 0-1.7 0-2.6.1-.5.1-1.1.2-1.6.4-3 1.2-6 2.8-8.7.5-.8.9-1.5 1.6-2.1.1-.1.2-.2.2-.4-.7-.1-1.1.6-1.4 1-2.2 2.6-2.9 6.1-3.4 9.4-.1.6-.2 1.2-.2 1.7-.2.4-.1.9-.1 1.4 0 1.1-.1 2 .2 2.9zm-5.6.8c.1-1 .4-2 .5-3 0 0-.2 0-.3.1-.6 2.1-.8 4.3-.7 6.5 0 .8 0 1.6.1 2.4 0 .3 0 .6.3.8 0-.6-.2-1.3-.2-1.9 0-1.6.1-3.2.3-4.9zm70.4 5.6c0-.6-.2-1.2-.4-1.7-.4-1.3-1-2.5-1.7-3.8-.4-.8-.8-1.6-1.4-2.2-.1-.1-.3-.1-.4-.2.1.4.4.7.6 1 .6.9 1.1 1.8 1.6 2.8.5 1.1 1.1 2.1 1.4 3.3 0 .3.1.6.3.8zm-68.6 4.4s.2 0 .3.1c-.5-2.2-.5-4.5-.5-6.7 0-.9.2-1.8.3-2.8-.1 0-.2 0-.3.1-.5 1.9-.4 3.9-.3 5.9 0 1.1.1 2.2.5 3.4zm7.3-7.9v1.4c-.1 1.4-.4 2.8-.7 4.1-.3 1.2-.5 2.4-1.1 3.4h.3c.6-1 .9-2.1 1.2-3.2.4-1.3.8-2.7.9-4.1 0-.7.1-1.4-.2-2.1-.2.3-.3.4-.4.5zm56.5 1.7c0 .3 0 .6.1.8.6 1.4 1.3 2.8 2.2 4 .5.7 1 1.4 1.7 1.9-1.7-1.9-2.8-4.2-3.8-6.5l-.2-.2zM56 65.9c.2-.8.2-1.6.4-2.4.1-1.3.3-2.6 0-3.8H56c-.1 1.5 0 3-.1 4.5-.2.8-.2 1.7-.2 2.5.1 0 .2 0 .3-.1-.1-.2 0-.5 0-.7zm67.8 2.6c-.1-1.1-.3-2.2-.7-3.3h-.3c.1.7.4 1.4.5 2.1.2 1.3.4 2.6.4 3.9h.1c.1-.9.1-1.8 0-2.7zm-1.7-.5-.2.2c.2 1 .6 1.9.8 2.8.1.3.1.7.4.9.1-.9-.2-1.7-.4-2.6-.3-.5-.4-1-.6-1.3zm-69.5 1.3s-.2 0-.3-.1c0 1 .5 1.9.8 2.8.4 1 .8 2 1.5 2.9v-.3c-.8-1.6-1.6-3.4-2-5.3zm5.4 1.1c.4-1.6 1-3.1 1.4-4.7.2-.8.4-1.6.3-2.4h-.4c-.2.9-.3 1.8-.5 2.7-.3 1.4-.8 2.8-1 4.2v-.1c-.2.5-.3 1-.4 1.5h.3c.2-.4.3-.8.3-1.2zm-2.1 1.1c.3-.4.4-.8.4-1.2.2-.4.2-.8.3-1.2.6-2.2 1.4-4.4 1.3-6.6 0-.2-.1-.3-.2-.4-.1.2-.2.4-.2.7-.1 1.1-.3 2.2-.5 3.3-.3 1.4-.8 2.8-.9 4.2-.2.3-.4.8-.2 1.2zm-.4 1.1c0 .6.1 1.2.3 1.9.3 1 .7 2 1.1 3h.3c-.5-1.7-1.2-3.5-1.3-5.4-.2.1-.4.3-.4.5zm3.4 5.6c0-.5-.3-1-.4-1.5-.3-1.2-.4-2.5-.4-3.7h-.4c-.1.4-.1.9-.1 1.3.1 1.3.5 2.6 1.1 3.8 0 0 .1.1.2.1zm-.8.9c0 .5.4.9.6 1.4.4.7.7 1.5 1 2.3 0 0 .1-.1.2-.1-.2-.9-.5-1.8-.9-2.6-.2-.4-.3-1-.9-1z" style="fill:#4f2a4d"/><path d="M86 79.8h.2c.6 1.2 1.2 2.6 1.3 4 .3 1.7.3 3.3.1 5-.1 1.6-.5 3.2-.9 4.7-.4 1.4-.7 2.9-1.6 4h-.4c.1-.5.4-1 .5-1.5-.6.4-1.1 1-1.3 1.7-.2.6.3 1.1.8 1.4.6.4 1.3.5 2 .7 1.3.4 2.7.6 4.1.9.9.2 1.9.4 2.9.2.8-.3 1.4-.8 2.1-1.2 1-.6 2.1-1.3 2.5-2.5.2-.6-.2-1.2-.1-1.8.3 0 .6-.1.8.1.4.5.6 1.2.3 1.9-.4 1.1-1.4 1.8-2.3 2.5-.8.5-1.7 1-2.6 1.4-.6.3-1.3.2-2.1.2-1 0-2-.3-2.9-.4-1.4-.2-2.9-.5-4.2-1-.8-.3-1.4-.8-1.7-1.6-.3-.9.3-1.9.9-2.5.4-.5 1-.8 1.6-1 .7-2.7 1.4-5.5 1.4-8.4.1-1.4-.1-2.9-.4-4.2-.5-.8-1.1-1.7-1-2.6z" style="fill:#b95f3b"/><path d="M111.7 80.5c.9-.3 1.9-.7 2.9-.7v.4c-1.3.4-2.7.9-4 1.6-.7.3-1.2.8-1.9 1 0-.2 0-.5.2-.7.7-.8 1.8-1.2 2.8-1.6z" class="st7"/><path d="M76.4 80.2c.4-.1.8 0 1 .4.3.5.1 1.1 0 1.7-.1.5-.2 1.1-.8 1.3-.5.3-1.1-.1-1.2-.6-.2-.6-.1-1.3.1-1.9.3-.5.5-.8.9-.9z" class="st11"/><path d="M71.3 80.8c.1 0 .2-.2.3-.2.9.1 1.8.5 2.5 1.1.2.1.2.3.2.5-.6-.1-1.1-.4-1.7-.6-.4-.3-1-.3-1.3-.8z" class="st7"/><path d="M106 80.9c.5-.1 1 .2 1.2.6.2.6.1 1.3 0 1.9-.1.5-.4 1.1-.9 1.4-.4.1-.9 0-1.2-.3-.4-.6-.4-1.3-.3-2 .2-.6.5-1.4 1.2-1.6z" class="st11"/><path d="M68.8 81.2c.8-.2 1.7.1 2.4.4 1 .4 2 1 2.8 1.6v.4c-.7-.2-1.2-.6-1.9-.8-1.1-.5-2.2-.8-3.3-1.1v-.5zm44 .4c.5-.3 1-.5 1.6-.6v.4c-1.6 1.1-3.2 2.1-4.8 3.1-.7.4-1.3.9-2.1.9 0-.4.3-.7.6-1 1.4-1.1 3-2 4.7-2.8z" class="st7"/><path d="M50.5 83.4c1-.4 2.2-.4 3.1.4 1 .8 1.4 2.1 1.7 3.3.2.8.4 1.7.4 2.6v1c0-.3-.1-.5-.2-.8-.4-1.7-.5-3.4-1.5-4.9-.4-.7-1.1-1.2-1.9-1.3-.7 0-1.6.1-2 .7-.4.5-.4 1.1-.6 1.7 0 .1-.1.3-.2.4 0-.5-.1-.9 0-1.4 0-.7.5-1.4 1.2-1.7z" class="st8"/><path d="M71.6 83.8c.6.1 1.1.4 1.7.6.8.3 1.7.5 2.5.6 1.5.2 3 0 4.5-.2.7-.1 1.4-.4 2.1-.4-.1.4-.5.4-.8.5-1.2.4-2.5.6-3.8.8-1 .1-2.1 0-3.1-.3-.9-.3-1.8-.5-2.6-1-.4-.2-.5-.4-.5-.6z" class="st7"/><path d="M49.2 87c-.1-.6-.1-1.2 0-1.8v1.4c0-.1.1-.3.2-.4v1c0-.1-.1-.2-.2-.2z" class="st8"/><path d="M101.7 85.4c.6 0 1.2.5 1.7.6 1.8.5 3.6.4 5.4.3 1 0 2-.2 2.9-.4v.3c-1.1.5-2.3.5-3.5.7-1.9.2-3.9.3-5.7-.6-.3-.3-.7-.5-.8-.9zm-22.3.7c.7-.1 1.2-.4 1.9-.5-.2.4-.6.4-.9.6-1.3.4-2.8.7-4.1.8-1.2.1-2.4-.3-3.3-.8v-.3c.7.2 1.4.6 2.1.7 1.4 0 2.8-.2 4.3-.5z" class="st7"/><path d="M101.4 86.8c.7.2 1.4.5 2.1.7 2 .4 4.1.3 6.1.1.5 0 1-.2 1.6-.2-.3.4-.8.4-1.2.5-1.4.2-2.9.3-4.4.3-1.5 0-3.1-.3-4.2-1.4z" class="st7"/><path d="M70.8 87.2c.8 0 1.5.4 2.2.5 1.8.5 3.7.8 5.6.6.2 0 .4 0 .6.1.1.3-.3.3-.5.3-1.7.2-3.4.1-5.1-.2-1-.2-2-.5-2.8-1.1v-.2zM91 88.7c.1-.4.1-.9.6-1.1 0 2-.2 3.9-.3 5.8-.1 1.2 0 2.4 0 3.5H91c-.3-1.4-.2-2.9-.2-4.3 0-1.3 0-2.6.2-3.9z" style="fill:#fdb897"/><path d="M55.7 89.6c0 .1.1.3.1.4.2 1.4.2 2.8.1 4.1 0 .3 0 .6-.3.7v-2.5c0-.8-.2-1.6-.1-2.5 0 .3.1.5.2.8v-1zm66.8 2.1c1.2-.9 2.5-1.6 4-2 0 .1.1.2.1.3-1.1.5-2.1 1-3.1 1.7-.7.4-1.4.9-1.8 1.7h-.3c-.1-.7.5-1.3 1.1-1.7zm4.5-1.2c.2-.1.4-.2.5-.2-.3.8-1.2 1.1-1.9 1.5-.9.4-1.8 1-2.5 1.7-.4.4-.5.9-1 1.2.2-1.2 1.2-2 2.1-2.6.8-.8 1.8-1.1 2.8-1.6zm-76.7 2c.5.3.7 1 1.1 1.5 1.2 1.7 2.5 3.1 4.1 4.4.4.3.7.6.9.9-.5-.2-.9-.5-1.3-.8-1.3-1.1-2.6-2.2-3.6-3.6-.5-.8-1-1.6-1.2-2.4zm2.2 4.6c.2.1.4.3.5.5.4.5.9.9 1.5 1.3.7.5 1.4.9 2.1 1.3.3.1.7.3.9.6-.6 0-1.2-.3-1.8-.6-1.1-.6-2.1-1.3-2.9-2.3-.2-.3-.3-.5-.3-.8z" class="st8"/><path d="M93.5 102.4c.3.2.2.5.3.8.1 1.3-.1 2.5-.4 3.8-.1 0-.3.1-.4.2.4-1.6.2-3.2.5-4.8zm-1.7.3h.3c.3 1.7-.4 3.3-.7 5h.6c-.2 0-.4 0-.5.1-.2-.2-.3-.4-.5-.6.1-.1.3-.3.3-.5.2-1.3.4-2.7.5-4z" class="st7"/><path d="M99.1 106.8c1.2 0 2.5-.6 3.7-.3 0 .3-.1.5-.2.8-1.3.5-2.8.6-4.1.9-1.8.5-3.7.8-5.6.9-3.1.1-6.2-.1-9.3-.3-1.7-.1-3.3-.4-5-.4-.5 0-1 0-1.5.2-.1.1-.1.3-.2.4h-.5v-.8c.3-.3.8-.5 1.2-.5.5 0 1-.2 1.5-.2 1.2-.2 2.5-.1 3.7-.1 1.3.1 2.6 0 3.9-.2 1.2-.2 2.4-.4 3.5-.3.3 0 .6.1.8.4.2.2.3.4.5.6.2 0 .4 0 .5-.1.4-.1.6-.4.9-.6.1-.1.3-.1.4-.2 1.9-.1 3.9-.3 5.8-.2zm-20.2 3.9c.8.4 1.4.8 2.1 1.4-.9-.2-1.6-.7-2.1-1.4zm12.4 3.6c1-.3 2.1-.4 3.1-.6-.1.1-.2.2-.3.2-1 .2-1.9.4-2.8.4z" class="st4"/><path d="M118.1 82.4c0 3 .4 6 .4 9 0 1.1 0 2.3-.1 3.4 0 .6 0 1.2-.1 1.7.1 1-.1 2-.2 3-.2 1.7-.4 3.5-.8 5.2 0 .2-.1.3-.3.4 0-.5.1-1 .2-1.6.3-2 .4-4.1.6-6.1 0-.5 0-1 .1-1.4.2-4.3-.4-8.7-.2-13 .1-.2.2-.5.4-.6zM62 99.5c0-2.6.4-5.3.8-7.9.2-1.2.2-2.4.2-3.5v-.5c-.2.2-.3.4-.3.7-.2 1.1-.2 2.3-.4 3.4-.2 1.7-.4 3.3-.6 5-.1 1.7-.2 3.4-.1 5.1.1 2.9.8 5.7 1.6 8.4.3.8.6 1.6 1 2.3h.3c-.4-.9-.8-1.7-1.1-2.7-.9-3.3-1.5-6.8-1.4-10.3zm58.2-6v-2.9c-.1-2.3-.2-4.6-.3-7 0-1.6-.2-3.1-.1-4.7.1-.4.2-.9.2-1.4-.3 0-.4.4-.4.6-.3 1.2-.2 2.4-.3 3.5 0 2.9.1 5.9.4 8.9.1.6 0 1.2.2 1.8 0 1.6.1 3.1-.1 4.6 0 .7-.2 1.3-.2 2 .1-.1.2-.2.2-.4.2-1 .3-2 .4-2.9.1-.6.2-1.3 0-2.1zm-41.4 4.1c-.6.7-1.3 1.3-2.1 1.9-1.5 1.2-3 2.3-4.3 3.7-1.3 1.5-2.3 3.3-2.5 5.3-.1 1.2 0 2.5.5 3.7.5 1.3 1.2 2.6 2.1 3.7h.3c-.3-.7-.7-1.2-1-1.9-.8-1.8-1.5-3.7-1.2-5.8.3-2.1 1.7-4 3.2-5.4 1.2-1.1 2.4-2.1 3.7-3.2.7-.6 1.5-1.2 2-2h.1c.2-.3.4-.6.3-.9-.5.2-.8.5-1.1.9zm29.8 7.2c-.4-1.5-.9-2.9-1.8-4.2 0-.1-.1-.3-.1-.4l-.9-1.5c-.2-.4-.5-.8-.9-.9.1.4.3.7.5 1 .5.7.8 1.6 1.2 2.4v-.1c.7 1.7 1.3 3.3 1.5 5.1.3 1.9.1 3.9-.2 5.8-.3 1.7-.6 3.4-1.1 5h.3c.7-1.3 1-2.9 1.4-4.3.6-2.6.8-5.3.1-7.9zm-39.1-.3c.5-1.1 1.3-2.1 2.1-2.9.2-.2.3-.4.4-.6-.3 0-.6.1-.8.3-1.1 1-2 2.2-2.5 3.6-.5 1.5-.6 3.1-.6 4.7 0 .8 0 1.7.2 2.4.1-.2.3-.4.2-.6-.1-.8-.1-1.6 0-2.4.2-1.5.3-3.1 1-4.5zm39.9-1.5c.5 1.5.8 3.1.8 4.7 0 2.2-.6 4.4-1.5 6.4.4-.2.5-.7.7-1.1.3-.8.5-1.6.8-2.4.4-1.6.6-3.3.2-5-.2-.8-.4-1.8-1-2.6zm-48.6 2.8c-.2-1.8-.4-3.5-.4-5.3 0-2.1.1-4.3.4-6.5.1-1.4.4-2.8.4-4.2 0-.8 0-1.7-.2-2.6 0-.4 0-.8-.4-1 0 .6.2 1.2.2 1.9v1.8c-.3 2.2-.7 4.3-.8 6.6-.2 2.3 0 4.6.2 7 .1.8.1 1.7.4 2.5 0 1 .4 2 .8 2.9.1 0 .2 0 .3-.1-.2-.6-.4-1.1-.5-1.7-.2-.4-.3-.9-.4-1.3zm28.1 15c2.3-.3 4.7-.5 7-.6v-.3c-2.5 0-5.1 0-7.6.4-.5.1-1 .1-1.4.5.7.2 1.3 0 2 0zm8.5.6c-3.7.1-7.3.1-10.9.8-.1 0-.2.1-.3.2.8 0 1.7-.1 2.5-.2 2-.1 3.9-.4 5.8-.4 1.2 0 2.4 0 3.6-.2-.1-.2-.4-.2-.7-.2z" class="st7"/><path d="M111.8 121.2c-.4.4-.7.9-.9 1.4-.7 1.3-1.7 2.5-2.4 3.9-1.2 1.8-2.4 3.7-3.6 5.4-.8 1.3-1.7 2.6-3 3.5-1.1.8-2.5.8-3.8 1.3-1.5.5-3 .6-4.6.8-1.5-.1-3 0-4.6-.1-1.7-.1-3.3-.3-5-.5-.8-.1-1.5-.4-2.2-.7-.6-.2-1.2-.4-1.7-.8-.2-.1-.4-.3-.6-.4-.6-.8-1.5-1.2-2.1-2.1-1.2-1.5-2.4-3-3.3-4.6-.8-1.3-1.6-2.6-2.2-3.9-1-1.9-2.1-3.7-3.2-5.5-.6-1-1.4-1.9-2.1-2.8-.6-.8-1.3-1.4-2-2.1-.3-.3-.5-.5-.8-.6.6 1 1.3 1.9 2 2.8.8 1.1 1.8 2.1 2.5 3.3.4.7.8 1.3 1.2 2 .7 1.2 1.5 2.5 2.1 3.7.9 1.7 1.9 3.4 3 5 .8 1.1 1.6 2.1 2.4 3.1.6.7 1.4 1.3 2.2 1.8.9.7 1.9 1.3 3 1.7 1.3.6 2.9.7 4.3.8 1.5.1 3 .3 4.6.3 1 0 2 .1 2.9 0h.7c1.6-.1 3.2-.2 4.7-.8.5-.2 1.1-.6 1.7-.6.9-.1 1.6-.6 2.3-1.2 1-.8 1.8-2 2.5-3.1.7-.9 1.3-1.9 1.8-2.9.5-.9 1.1-1.8 1.5-2.8h.1c.8-1.3 1.6-2.5 2.2-3.8.3-.5.7-1 .8-1.7-.1.2-.3.2-.4.2z" class="st7"/><path d="M76.6 128.8c.9 1.2 1.8 2.5 3 3.5.4.3.8.5 1.2.7-.4-.4-1-.7-1.4-1.1-1-1.1-1.8-2.2-2.6-3.4-1.1-1.7-2.5-3.3-3.6-5-.3-.4-.5-.8-.8-1.1.1.8.6 1.5 1.1 2.2.9 1.4 2 2.8 3.1 4.2zm3.7 1.8c.4.5.9 1 1.5 1.4 0-.1 0-.4-.1-.4l-1.2-1.2c-1.9-2.2-3.6-4.6-5.2-7.1l-.2.1c.2.9.8 1.7 1.3 2.4 1.3 1.7 2.6 3.3 3.9 4.8zm-10.5 2.5c-.6-2.5-.7-5.1-1.8-7.4-.3-.5-.4-1-.8-1.5 0 .5 0 1 .2 1.4.5 1.2.8 2.5 1.1 3.7.7 3.5 1.6 7 3 10.2.2.4.3.9.6 1.2h.2c-.1-.5-.4-.9-.6-1.4-.9-1.8-1.4-4-1.9-6.2zm4.3 5.2c-.5-1.7-1-3.3-1.6-4.9-.7-1.9-1.3-3.8-2.2-5.7-.2-.4-.2-.8-.7-1 0 .6.3 1.1.5 1.7 1.6 3.7 2.9 7.4 4.1 11.2 0 .8.3 1.5.4 2.2.1 0 .2 0 .3-.1-.2-.9-.3-1.9-.6-2.7 0-.2-.1-.5-.2-.7zm31 6.2c-.1-1.3 0-2.7.4-4 .4-1.5.8-3 1.3-4.5.8-2.4 2-4.6 2.5-7.1h-.4c-.5 1.2-.9 2.5-1.5 3.7-1.2 2.8-2.1 5.7-2.6 8.7-.1 1-.3 2.1 0 3.1.1.1.3.1.3.1zm3-9.2c-.6 2-.8 4.1-1.3 6.1-.6 2.3-1.5 4.6-2.8 6.6.5-.3.7-.8 1-1.2.9-1.7 1.7-3.5 2.2-5.4.5-1.7.8-3.5 1.1-5.3.1-.6.3-1.2.3-1.7-.3.2-.4.6-.5.9zm-9.4 14c-.4 1.3-.9 2.6-1.4 3.9-.5.7-.7 1.5-1 2.3-.4.9-.9 1.8-1.2 2.8.5-.4.7-1 1-1.5.5-1.2 1.2-2.3 1.5-3.5.7-1.6 1.3-3.2 1.8-4.8.8-2.4 1.1-4.8 1.2-7.3 0-.8.4-1.4.5-2.1-.6.6-.9 1.5-.9 2.3-.3 2.7-.7 5.3-1.5 7.9zm-8.1 1.9c-1-1.8-1.7-3.8-1.8-5.9 0-.7.2-1.4 0-2.1h-.3c-.5.9-.5 2.1-.4 3.1.1 1.3.6 2.6 1.2 3.7.5 1 1.2 2 2 2.8.3.3.6.6 1.1.6v-.3c-.8-.5-1.4-1.1-1.8-1.9zm-8.8-3.1c-.4-.8-.8-1.7-1-2.5 0-.1-.1-.3-.2-.4 0 .6 0 1.2.2 1.7.6 1.4 1.2 2.9 2 4.2 1.2 1.9 2.5 3.7 3.7 5.6.2.4.4.8.8 1.1 0-.3-.2-.6-.3-.9-1.7-3.1-3.8-5.7-5.2-8.8zm4.8 3.9c-.4-.9-1.1-1.8-1.5-2.7 0-.1-.2-.2-.3-.4-.1.8.4 1.4.7 2.1 1.2 2.3 2.2 4.6 3.3 7 .2.4.3.8.6 1.1-.1-.7-.4-1.3-.7-2-.6-1.7-1.3-3.4-2.1-5.1z" class="st7"/><path d="M77.5 160.3c.6-.4 1.3-.3 1.9 0 .8.4 1.5 1 2.2 1.6.8.7 1.5 1.5 1.9 2.5.2.5.4 1 .8 1.3 1 .5 2.3.2 3.3.7.3.1.6.3.9.4.5 0 .9.3 1.4.5 1 .4 1.9 1.1 2.5 2.1.1-.1.2-.2.3-.4.1 0 .3.1.4.1-.6 1.7-1.3 3.3-2 5 .3-.4.5-.7.9-1-.1.2-.2.5-.3.7.3-.2.7-.4 1-.6-.5.6-1.2 1.1-1.8 1.6-.2.1-.3.3-.4.5-.4 1.1-.7 2.3-.9 3.5-.2 1.4-.1 2.8 0 4.2 0 .7.2 1.4.2 2.1-.2 0-.3 0-.5-.1-.2-.3-.2-.6-.3-.8-.2-1.8-.4-3.6-.2-5.4.2-1.5.6-2.9 1.2-4.2.8-1.6 1.4-3.2 2.2-4.8-.7-.6-1.4-1.2-2.1-1.6-1.2-.7-2.5-1.3-3.9-1.4-.9-.1-2 0-2.7-.6-.8-.6-.8-1.7-1.5-2.5-.5-.7-1.2-1.2-1.8-1.7-.5-.4-1-.8-1.6-1.1-.5-.2-1 .1-1.3.4-.8.7-1.5 1.6-2.3 2.3-1.8 1.7-3.6 3.6-5.7 5-.2.1-.4.2-.7.2.1-.4.5-.6.8-.9.9-.8 1.8-1.5 2.7-2.4 1-1 2.1-1.9 3-3 .8-.7 1.5-1.7 2.4-2.2z" class="st13"/><path d="M99.5 163.7c.7-.2 1.3.2 1.9.4.7.3 1.2 1 2 1.2.7-.1 1.3-.8 2.1-.8 1-.2 2 .1 2.7.8.6.6 1.3 1 2 1.6.2.2.3.5.3.8-.8.2-1.5-.4-2.2-.8-.6-.4-1.1-1-1.8-1.2-.4-.1-.8-.1-1.1 0-.7.2-1.3.9-2.1.8-.8 0-1.3-.6-1.9-1-.4-.3-.9-.5-1.4-.8-.4.6-.5 1.3-.9 2-.4.8-1 1.6-1.6 2.3-.9 1-1.9 2-2.9 2.9-.5.4-.9.9-1.5 1.3-.4.2-.7.4-1 .6.1-.2.2-.5.3-.7 1.3-1.7 2.9-3 4.4-4.6.8-1 1.6-2.1 2-3.3 0-.6.1-1.2.7-1.5zM92.2 177c.4-.1.9.2.9.7.1.7-.6 1.3-1.2 1.4-.5 0-.8-.6-.6-1 .2-.4.4-1 .9-1.1z" class="st13"/><path d="M135.4 209.7c.2-.8.2-1.5.3-2.3.1-.3.2-.7.2-1 .8-4.3 2-8.6 2.9-12.9.1-.4.3-.9 0-1.2-.3 0-.3.3-.2.5-.4.8-.6 1.7-.9 2.6-.9 2.7-1.4 5.5-1.9 8.3-.2 1.2-.5 2.4-.5 3.6-.2.5-.2 1.1-.3 1.7v.8h.4v-.1zm6-6.8c.1-.3.2-.6.3-1 1.3-5 2.9-9.9 4.8-14.8.8-2.4 2-4.7 2.1-7.3-.4.2-.5.6-.7 1-.4 1-.7 2-1.2 2.9-.9 2-1.7 4.1-2.4 6.2-1 3.3-1.9 6.6-2.7 9.9-.2 1-.5 2-.6 3-.3.8-.4 1.6-.6 2.4h.4c.3-.8.5-1.5.6-2.3zm-33.9-16.1c.8-2.1 1.9-4.2 3.2-6.2.6-.9 1-2 .8-3.1-.3.3-.3.8-.4 1.2-.3.8-.9 1.5-1.4 2.3-1.3 2.4-2.3 4.9-3.1 7.5h.3c.2-.6.4-1.2.6-1.7zm-.3 6c1.2-1.6 2.3-3.2 3.3-4.8.7-1.2 1.3-2.5 1.7-3.8-.2.1-.4.2-.5.4-.4.6-.8 1.3-1.2 2-1.9 3-3.7 6.1-6 8.8 0 .1.1.2.2.3 1-.8 1.8-1.9 2.5-2.9zM29.4 207c-.1-2.7-.6-5.3-1.6-7.8h-.4c0 .7.3 1.4.5 2.1.6 2.5.8 5 1.1 7.4 0 .3 0 .6.1.9h.5c-.1-.8-.2-1.7-.2-2.6zm115.4.7c.1-2.8.5-5.7 1.6-8.3.2-.5.6-1 .6-1.6-.4.1-.7.6-.9.9-1.3 2.1-1.8 4.6-1.9 7 0 1.3-.1 2.7.3 3.9h.6c-.2-.5-.3-1.2-.3-1.9zm-55.8-14c.1.2.3.3.5.4 0-.1.1-.2.2-.3-.2-.3-.4-.6-.8-.8-1.1-1-2.1-2.1-3-3.2-.5-.7-1.1-1.4-1.8-1.9-.2-.2-.4-.1-.7 0 .4.5.8.9 1.2 1.4 1.3 1.7 2.8 3.1 4.4 4.4zm-59.5-2.3c1.2 2.8 2 5.7 2.4 8.7.2 1.4.2 2.9.2 4.3h.4c.2-2.1.1-4.2-.2-6.4-.4-2.5-.9-5.1-1.9-7.4-.9-2.2-2-4.4-3.3-6.4-.6-.9-1.1-2-1.2-3.1-.2 0-.4 0-.5.3-.1 1.2.4 2.4 1 3.5 1.1 2.1 2.1 4.3 3.1 6.5zm4.7 18.3c0-.3 0-.6-.1-.9 0-.4 0-.9-.3-1.2-.2.1-.5.3-.5.5-.1.5-.1 1.1 0 1.7l.9-.1zm52.6-6.4c.3.2.5.5.9.7-.1-.4-.4-.7-.8-1-1.9-1.7-3.7-3.4-5.5-5.2-.5-.5-1-1.2-1.8-1.4.3.6.8 1.1 1.2 1.6 1.8 1.9 3.9 3.5 6 5.3zm-53.1-11.2c.5 2.7.8 5.5 1.4 8.2.6 2.9 1.3 5.8 2.6 8.4 0 .2.3.2.4.3 0-.6-.4-1.2-.5-1.7-1-2.8-1.5-5.7-1.9-8.6-.3-2.7-.7-5.4-1.7-8-.1-.4-.2-.9-.5-1.2-.2 0-.2.2-.2.4 0 .7.2 1.5.4 2.2z" style="fill:#150f0c"/></g></svg>