<?xml version="1.0" encoding="utf-8"?>
<!-- Generator: Adobe Illustrator 25.2.0, SVG Export Plug-In . SVG Version: 6.00 Build 0)  -->
<svg version="1.1" id="Layer_1" xmlns="http://www.w3.org/2000/svg" xmlns:xlink="http://www.w3.org/1999/xlink" x="0px" y="0px"
	 viewBox="0 0 180 180" style="enable-background:new 0 0 180 180;" xml:space="preserve">
<style type="text/css">
	.st0{clip-path:url(#SVGID_2_);fill:none;}
	.st1{clip-path:url(#SVGID_2_);}
	.st2{fill:#C5CCC2;}
	.st3{fill:#FEF3DB;}
	.st4{fill:#F2844F;}
	.st5{fill:#E56324;}
	.st6{fill:#F95939;}
	.st7{fill:#7D8778;}
	.st8{fill:#8C9688;}
	.st9{fill:#959E91;}
	.st10{fill:#A6ADA3;}
	.st11{fill:#B6BCB3;}
	.st12{fill:#B95D38;}
	.st13{fill:#C4CCC2;}
	.st14{fill:#150F0C;}
	.st15{fill:#FCCAB3;}
	.st16{fill:#B8A98A;}
	.st17{fill:#BAAC8E;}
	.st18{fill:#D6CEBC;}
	.st19{fill:#B6A787;}
	.st20{fill:#D1C8B4;}
	.st21{fill:#BBAE90;}
	.st22{fill:#BDB093;}
</style>
<g>
	<defs>
		<rect id="SVGID_1_" width="179.8" height="179.8"/>
	</defs>
	<use xlink:href="#SVGID_1_"  style="overflow:visible;fill:#2A54DB;"/>
	<clipPath id="SVGID_2_">
		<use xlink:href="#SVGID_1_"  style="overflow:visible;"/>
	</clipPath>
	<circle class="st0" cx="89.9" cy="90.1" r="89.9"/>
	<g class="st1">
		<g>
			<path class="st2" d="M91.4,19.9c1.6-0.1,3.2,0,4.8,0.2c2,0.3,4,0.5,5.8,1.3c1.4,0.6,2.8,1.4,4.1,2.4c1,0.7,1.8,1.5,2.8,2.2
				c0.8,0.7,1.8,1.2,2.6,1.8c1.5,1,3,2.1,4.4,3.1c1.1,0.8,2.2,1.7,3.2,2.6c0.5,0.5,1.1,1,1.6,1.5c2.1,2.4,3.8,5.1,5,8.1
				c0.7,1.8,1.5,3.5,1.9,5.3c0.3,1.7,0.6,3.4,1,5.1c0.2,1,0.5,2,0.6,3c0.1,1.5,0.4,3,0.3,4.5c-0.1,1-0.1,2.1-0.1,3.1
				c0,1.3-0.1,2.7-0.2,4c-0.1,1.2-0.6,2.4-0.4,3.7c0,0.4-0.1,0.8-0.3,1.1c-0.3,0.8-0.3,1.7-0.7,2.5c-0.6,1.1-1.1,2.2-1.7,3.3
				c-1.1,1.8-2.1,3.7-3.3,5.4c-0.9,1.2-2,2.3-3.4,2.9c-2.1,1-4.2,1.7-6.4,2.4c-2.6,0.7-5.2,1.3-7.8,1.7c-2.7,0.4-5.4,0.9-8.1,1.3
				c-3.2,0.4-6.3,0.8-9.5,0.9c-2.8,0.1-5.7-0.3-8.5-0.7c-2.2-0.3-4.5-0.6-6.7-1.1s-4.3-1.1-6.5-1.7c-1.9-0.5-3.7-1.2-5.4-2.1
				c-1.3-0.7-2.7-1.4-3.7-2.4c-0.9-0.9-1.5-2.1-1.9-3.4c-0.5-1.8-0.3-3.8-0.4-5.6c0-0.8-0.1-1.6-0.1-2.5s-0.3-1.7-0.5-2.5
				c-0.6-1.9-0.9-3.8-1.3-5.7c-0.8-3.5-1-7.2-0.9-10.8c0.2-2.7,0.5-5.3,1.1-7.9c0.3-1.2,0.7-2.4,1.2-3.6c0.6-1.8,1.7-3.4,2.8-4.9
				c0.6-0.8,1.4-1.6,2.1-2.4c0.8-1,1.8-1.8,2.8-2.6c0.8-0.6,1.5-1.2,2.3-1.8c0.8-0.6,1.7-1.2,2.5-1.7c1.3-0.9,2.5-1.8,3.9-2.6
				c2.6-1.2,5.2-2.6,7.9-3.4c0.4-0.1,0.6-0.5,0.9-0.6c0.9-0.4,1.9-0.7,2.8-1.1c1.9-0.7,3.8-1.2,5.7-1.7
				C88.9,20.1,90.2,19.9,91.4,19.9z"/>
			<path class="st3" d="M180.5,209c0.3-1.2,0.5-2.4,0.5-3.6c0.1-2.1-0.4-4.2-0.7-6.3c-0.3-1.8-0.7-3.7-1.1-5.5
				c-1.6-7.2-3.7-14.3-6.4-21.1c-0.8-2-1.6-4-2.7-5.9c-1-1.9-2.2-3.6-3.6-5.2c-2.3-2.8-5.3-5-8-7.3c-2.4-2-4.8-4-7.2-6.1
				c-0.5-0.5-0.9-1.1-1.4-1.6c-1.3-0.8-2.5-1.9-3.4-3.1c-0.1-0.1-0.1-0.1-0.2-0.2l-5.7-4c-0.3-0.2-0.5-0.4-0.6-0.6
				c-0.5-0.4-1-0.9-1.6-1.3c-0.2-0.2-0.5-0.4-0.8-0.6c-0.3-0.3-0.6-0.6-1-0.9c-1-0.8-2-1.6-2.9-2.4c-0.6-0.6-1.3-1.2-1.9-1.8
				c-0.9-0.9-1.8-1.9-2.7-2.9c-0.6-0.7-1.1-1.4-1.8-2c-0.7-0.7-1.4-1.4-2-2.2c-0.7-0.8-1.4-1.5-2.1-2.3c-0.4-0.6-0.9-1.1-1.4-1.6
				c-0.7-0.7-1.2-1.6-2-2.3c-0.7-0.6-1.4-1.4-2.4-1.7c-0.7-0.2-1.5-0.1-2.2-0.1c-3.2-0.1-6.4,0.2-9.5,0.7c-2.2,0.3-4.3,0.9-6.5,1.1
				c-3,0.3-6,0.2-9,0c-2.3-0.2-4.7-0.4-7-0.7c-2.8-0.4-5.5-1.1-8.1-1.8c-2-0.6-3.9-1.1-5.9-1.4c-1.7-0.2-3.5-0.7-5.2-0.6
				c-1.1,0.1-2.3,0-3.1,0.7c-0.3-0.1-0.7-0.3-1-0.1c-0.7,0.3-1.2,0.8-1.6,1.3c-0.5,0.6-0.9,1.3-1.4,1.9c-0.7,0.9-1.5,1.8-2.2,2.7
				c-1.2,1.4-2.5,2.9-3.7,4.3c-1.5,1.8-3.2,3.4-4.9,5c-1.2,1.2-2.4,2.3-3.6,3.5c-2.1,2.1-4.2,4.2-6.2,6.3c-4.2,3.1-8.3,6.4-12.3,9.8
				c-3.5,3.1-7.1,6.2-10.2,9.7c-1.8,1.9-3.4,4-4.8,6.2c-1.3,2-2.3,4.1-3.2,6.3c-1.4,2.5-2.6,5.2-3.7,7.9c-1.1,2.9-1.7,5.9-2.2,9
				c-0.1,0.4-0.1,0.8-0.1,1.1c-1.6,6.4-2.7,12.9-3.4,19.4h184.1V209z"/>
		</g>
		<g>
			<path class="st4" d="M82,40.7c2-1.6,4.7-2.2,7.2-2.1c0.6,0,1.2,0.2,1.8,0.2c0.7,0.1,1.4,0.4,1.9,0.8c0.2,0.6-0.2,1.2-0.5,1.7
				c-0.8,1.3-1.6,2.7-2.5,4c-1.4,2.1-2.7,4.2-4,6.3c-0.5,0.8-1,1.7-1.5,2.5c0.3,0.1,0.5,0.1,0.8,0c-0.1,0.1-0.1,0.2-0.2,0.2
				c2,0.5,4.1,0.6,6.2,0.6c1.9,0,3.7-0.5,5.5-1.1c1.2-0.4,2.5-0.9,3.6-1.6c1.2-0.7,2.3-1.6,3.3-2.6c0.9-0.8,1.7-1.8,2.6-2.6
				c1.2-1,2.6-1.9,4.1-2.4c0.9,0.5,1.8,1.1,2.5,2c0.2,0.3,0.5,0.4,0.7,0.7c1.1,1.2,2.1,2.5,3,3.9c0.5,0.8,0.9,1.7,1.3,2.5
				c0.5,1.1,1.1,2.3,1.3,3.5c0.5,1.4,1,2.8,1.5,4.2c0.6,1.5,1.1,3.1,1.5,4.6c0.3,1.3,0.6,2.6,0.7,3.9c0.1,2.2,0.1,4.4,0.1,6.7
				c0,0.5,0.1,1,0.1,1.5c0,0.2,0,0.4,0.1,0.6c-0.1,0.3-0.2,0.5-0.2,0.8c-0.1,1.4-0.2,2.9-0.3,4.4c-0.3,2.6-0.6,5.3-1.1,7.9
				c-0.1,1-0.3,1.9-0.5,2.9c-0.1,0.4-0.5,0.7-0.5,1.1c-0.2,1-0.5,1.9-0.7,2.9c-0.1,0.3-0.1,0.6-0.1,0.9c-0.1,0.7-0.3,1.3-0.5,2
				c-0.7,2.7-1.5,5.3-2.3,8c-0.2,0.7-0.5,1.4-0.5,2.1c0,0-0.1,0-0.2,0.1c-0.6,0.8-1,1.7-1.5,2.5c-1.1,1.9-2.2,3.8-3.4,5.7
				c-1.2,1.8-2.4,3.5-3.8,5.1c-2.3,2.6-4.9,5.1-7.8,7c-0.8,0.6-1.8,0.9-2.8,1.4s-2.2,0.6-3.3,0.8c-1.6,0.2-3.1,0.1-4.7,0
				c-2.6-0.2-5.1-0.6-7.5-1.6c-1.5-0.6-2.9-1.3-4.3-2.2c-1.5-1-3.1-1.9-4.4-3.2c-1.4-1.4-2.7-3-3.8-4.7c-1.3-2-2.5-4-3.7-6
				c-0.6-1.1-1.2-2.3-1.9-3.4c-1.2-2-2.5-4-3.7-6c-0.6-1-1.2-2-1.8-2.9c0,0.1-0.1,0.2-0.1,0.2c-0.3-2.6-0.9-5.1-1.3-7.6
				c0.2-0.8,0-1.6,0-2.4c0-0.7-0.2-1.4-0.2-2.1c0-1.6-0.2-3.2-0.3-4.8c0-0.9-0.1-1.8-0.2-2.7c-0.1-1.4,0-2.9-0.1-4.3
				c0-0.5,0.1-1-0.1-1.4c0.7-1.1,1.3-2.2,1.8-3.5c1-2.8,1.3-5.7,1.7-8.6c0.3-2,0.5-4.1,1-6c0.4-1.3,0.9-2.6,1.3-3.9
				c0.2-0.6,0.6-1.2,0.7-1.8c0.2-0.8,0.5-1.5,0.9-2.2c0.5-1,1.1-2,1.7-3c0.5-0.8,1-1.5,1.5-2.2c0.6-0.7,1.2-1.4,1.9-2
				c0.9-0.8,1.9-1.6,3-2.2c0.6-0.3,1.2-0.7,1.8-1c1.6-0.8,3.4-1.3,5.2-1.5c0.7-0.1,1.5,0,2.2-0.1C81.1,40.9,81.7,41.1,82,40.7z"/>
			<path class="st5" d="M106.6,42.8c0.4-0.1,0.8,0,1.1,0.2c1,0.4,1.8,1.1,2.7,1.7c-1.5,0.5-2.9,1.4-4.1,2.4
				c-0.9,0.8-1.7,1.8-2.6,2.6c-1,1-2.1,1.9-3.3,2.6c-1.1,0.7-2.4,1.1-3.6,1.6C95,54.4,93.2,55,91.3,55c-2.1,0-4.2-0.1-6.2-0.6
				c0.1-0.1,0.1-0.2,0.2-0.2c0.6-0.1,1.1-0.4,1.7-0.6c1.3-0.4,2.4-1,3.6-1.6c2.1-0.9,4.2-1.8,6.3-2.8c0.8-0.4,1.6-0.8,2.4-1.3
				c0.9-0.6,2-1.1,2.9-1.8c1.2-0.9,2.5-1.8,3.8-2.7C106.2,43.2,106.3,42.9,106.6,42.8z"/>
			<path class="st6" d="M44.6,70.4c1.2-1.1,3.1-1.3,4.7-0.9c1.2,0.3,2.3,1,3.2,1.7c0.7,0.6,1.4,1.3,2,2c0.4,0.4,0.6,0.9,0.8,1.5
				c-0.1,1.6,0.1,3.1,0.3,4.7c0.1-0.1,0.2-0.3,0.3-0.4c0.2,0.5,0,1,0.1,1.4c0.1,1.4,0,2.9,0.1,4.3c0,0.9,0.1,1.8,0.2,2.7
				c0.1,1.6,0.3,3.2,0.3,4.8c0.1,0.7,0.2,1.4,0.2,2.1c0,0.8,0.2,1.6,0,2.4c0-0.2,0-0.4-0.2-0.5c-0.6-0.3-1.2-0.7-1.8-1.1
				c-1.5-1.1-2.8-2.4-4-3.8c-1.3-1.5-2.5-3.1-3.6-4.8c-0.7-1-1.3-2.1-2-3.1c-1-1.5-1.6-3.3-2.1-5c-0.4-1.3-0.4-2.7-0.3-4
				C42.9,72.9,43.5,71.4,44.6,70.4z"/>
			<path class="st6" d="M125.5,73c1.6-1.9,4.1-2.9,6.6-3c0.7,0,1.6-0.1,2.2,0.5c0.8,0.9,1.1,2.1,1.2,3.3c0,0.9,0.1,1.7-0.1,2.6
				c-0.2,1.4-0.9,2.7-1.4,4.1c-0.8,2.1-1.7,4.1-2.7,6.1c-0.8,1.5-1.6,3.1-2.4,4.6c-1,1.8-2.3,3.3-3.8,4.8c-0.7,0.7-1.4,1.3-2.2,1.8
				c-1,0.6-2,0.9-3.1,1.1c0,0.2,0,0.4-0.1,0.6c0-0.3,0-0.6,0.1-0.9c0.2-1,0.5-1.9,0.7-2.9c0.1-0.4,0.5-0.7,0.5-1.1
				c0.2-1,0.4-1.9,0.5-2.9c0.5-2.6,0.8-5.3,1.1-7.9c0.1-1.5,0.2-2.9,0.3-4.4c0-0.3,0.2-0.5,0.2-0.8c0.3-1.3,0.7-2.5,1.2-3.8
				c0.1-0.3,0.2-0.5,0.4-0.8C125.1,73.8,125.2,73.3,125.5,73z"/>
			<path class="st5" d="M64.8,76.4c1.3-1.2,3-2.1,4.8-2.3c1.4-0.1,2.9,0.2,4.2,0.7c1.1,0.5,2.2,1.1,3.1,1.8c0.9,0.6,1.7,1.4,2.5,2.1
				c0.7,0.5,1.3,1,2,1.6c0.9,0.7,1.6,1.6,2.2,2.6c0.2,0.2,0.4,0.4,0.6,0.6c0,0.2-0.3,0.2-0.4,0.1c-0.3-0.3-0.7-0.4-1.2-0.5
				c-1.1-0.4-2.2-0.9-3.1-1.6c-0.4-0.3-0.8-0.7-1.3-0.9c-0.8-0.4-1.6-0.9-2.4-1.1c-1.4-0.4-2.8-0.8-4.2-0.8
				c-1.5-0.2-2.9,0.3-4.3,0.6c-0.8,0.2-1.5,0.6-2.3,0.6s-1.7-0.1-2.5-0.2c0-0.5,0.3-0.8,0.6-1.2C63.6,77.8,64.1,77,64.8,76.4z"/>
			<path class="st5" d="M109.6,77.4c1.2-0.3,2.4-0.7,3.6-0.6c0.4,0,0.8-0.1,1.1,0.2c-0.2,0.3-0.6,0.2-0.9,0.3c-1,0.5-2,1-3,1.6
				c-1.4,0.7-2.7,1.6-3.9,2.6c-1.5,1.3-3.1,2.4-4.8,3.3c-1.2,0.6-2.5,0.9-3.9,0.7c-0.7-0.1-1.5-0.2-2.1-0.5
				c-0.4-0.2-0.9-0.3-1.2-0.7c-0.2-0.2-0.1-0.4,0.1-0.5c0.8-0.4,1.5-0.9,2.4-1.3c2.5-1.2,5-2.4,7.6-3.4
				C106.3,78.5,107.9,77.9,109.6,77.4z"/>
			<path class="st5" d="M82.6,103.8c0.6-0.1,1,0.4,1.5,0.7c1,0.6,1.6,1.7,2.7,2.1c0.9,0.4,1.9,0.7,2.9,0.5c1.1-0.2,2.1-0.8,3-1.6
				c0.2-0.2,0.4-0.5,0.7-0.5c0.4,0,0.4,0.5,0.2,0.6c-1.4,1.3-2.5,3.1-4.2,4.2c-0.7,0.5-1.3,1.1-2.1,1.4c-0.7,0.2-1.4-0.3-1.8-0.9
				c-0.9-1.4-1.8-2.7-2.4-4.3c-0.3-0.6-0.7-1.1-0.7-1.8C82.2,104,82.4,103.9,82.6,103.8z"/>
			<path class="st5" d="M58,104.3c0-0.1,0.1-0.2,0.1-0.2c0.6,0.9,1.2,1.9,1.8,2.9c1.3,2,2.5,3.9,3.7,6c0.6,1.1,1.3,2.2,1.9,3.4
				c1.1,2,2.4,4,3.7,6c1.1,1.7,2.3,3.3,3.8,4.7c1.3,1.3,2.8,2.3,4.4,3.2c1.3,0.9,2.8,1.6,4.3,2.2c2.4,0.9,5,1.4,7.5,1.6
				c1.6,0.1,3.1,0.2,4.7,0c1.1-0.2,2.3-0.3,3.3-0.8c0.9-0.4,1.9-0.8,2.8-1.4c2.9-2,5.4-4.4,7.8-7c1.4-1.6,2.6-3.3,3.8-5.1
				c1.2-1.8,2.2-3.8,3.4-5.7c0.5-0.9,1-1.7,1.5-2.5h0.1c-0.3,1.7-0.4,3.5-0.2,5.2c0,0.4,0.2,0.8,0.1,1.2c0.4,0.4,0.3,1,0.3,1.5
				c-0.3,1.1-0.6,2.1-1.1,3.2c-0.4,0.8-0.7,1.6-1.1,2.4c-0.6,1-1.1,2.1-1.7,3.1c-0.7,1-1.4,2.1-2,3.1c-1,1.6-2.1,3.2-3.2,4.7
				c-1.2,1.8-2.4,3.6-3.9,5.3c-2.5,3.2-5.5,6.2-9,8.3c-0.7,0.5-1.4,1.2-2.3,1.3c-2.1-0.1-4.2-0.8-6.1-1.7c-1.1-0.5-2.1-1.1-3.1-1.8
				c-3.1-2-5.8-4.4-8.3-7.2c-0.9-1-1.8-1.9-2.6-2.9c-1.2-1.5-2.5-3-3.5-4.7c-1.1-1.9-2.2-3.8-3.3-5.7c-0.9-1.6-1.7-3.2-2.6-4.8
				c-0.4-0.9-0.8-1.7-1.3-2.6c-0.5-0.7-0.8-1.6-1.2-2.3c-0.5-0.7-0.5-1.6-0.6-2.5c-0.2-1.8-0.4-3.6-0.7-5.4
				C58.5,107.6,58.3,106,58,104.3z"/>
			<path class="st5" d="M93,115.9c0.3,0,0.5-0.2,0.8-0.4c0,0,0.1,0.1,0.1,0.2c-0.4,0.9-0.8,1.8-1.2,2.7c-0.2,0.5-0.5,0.9-0.6,1.4
				c0.1,0.1,0.2,0.1,0.3,0.2c-0.4,0-0.7-0.2-1-0.3c-1.2-0.3-2.4-0.5-3.6-0.6c-1.1,0-2.3,0.2-3.4,0.3c-0.2,0-0.3,0-0.4-0.2
				c-0.5-1-1-1.9-1.5-2.9c-0.1-0.2-0.1-0.3-0.1-0.5c0.3-0.1,0.5,0.1,0.7,0.3c1.3-0.1,2.7,0.3,4,0.5c0.4,0,0.9,0.3,1.3,0.2
				c0.6-0.1,1.3-0.1,1.9-0.2s1.2-0.4,1.9-0.3C92.5,116.2,92.7,115.9,93,115.9z"/>
		</g>
		<g>
			<path class="st7" d="M108.7,29c0.6,0.3,0.9,0.9,1.2,1.5c0.4,0.8,0.8,1.6,0.9,2.5c0.1,1.4-0.1,2.9-0.8,4.1
				c-0.9,1.7-2.3,3.1-3.9,4.3c-1.2,0.9-2.4,1.8-3.6,2.6c-0.1,0.1-0.2,0.1-0.3,0.1c0-0.1-0.1-0.1-0.1-0.2c1.6-1.1,3.1-2.2,4.6-3.5
				c1.4-1.3,2.7-2.8,3.3-4.7c0.3-1.2,0.5-2.5,0.1-3.7c-0.3-0.9-0.7-1.7-1.1-2.5c-0.1-0.1-0.1-0.2-0.1-0.4L108.7,29
				C108.7,29.1,108.7,29,108.7,29z"/>
			<path class="st8" d="M86,35.2c1.6-0.7,3.2-1.4,5-1.4c1.1,0,2.2,0.4,2.8,1.3c0.4,0.8,0.6,1.8,0.5,2.7c-0.2,1.2-0.8,2.3-1.3,3.4
				c-0.5,0.9-0.9,1.8-1.5,2.5c0-0.1,0-0.2,0-0.3c0.4-0.6,0.7-1.3,1-2c0.7-1.5,1.5-3,1.4-4.7c-0.1-0.8-0.3-1.6-1-2
				c-0.5-0.4-1.2-0.5-1.9-0.5c-1.4,0-2.7,0.5-4,1.1c-1.5,0.6-2.8,1.4-4.1,2.3c-0.1,0-0.2,0-0.3,0c0.1-0.2,0.2-0.3,0.4-0.4
				C83.9,36.4,84.9,35.7,86,35.2z"/>
			<path class="st9" d="M69.3,37.4c1.3-0.7,2.6-1.3,4-1.4c1.8-0.2,3.7,0.2,5.4,1c1,0.5,2,1.2,2.3,2.3c-0.1,0-0.2,0-0.2,0
				c-0.6-1-1.6-1.7-2.6-2.1c-1.2-0.5-2.4-0.7-3.7-0.8c-1.8-0.1-3.5,0.6-5,1.4c-1.7,0.9-3.2,2.1-4.3,3.6c-1.2,1.4-2.2,3-3,4.7
				c0-0.1,0-0.3-0.1-0.4v-0.1c0.8-1.6,1.8-3.2,2.9-4.6C66.1,39.5,67.6,38.3,69.3,37.4z"/>
			<path class="st9" d="M112.7,36.3c0.1,0,0.2,0,0.2,0c0,0.3,0,0.5-0.2,0.8c-0.7,1.5-1.7,2.8-3,3.8c-1.4,1.1-2.8,2.1-4.4,3
				c-0.1,0.1-0.3,0.1-0.5,0.1c0.5-0.4,1-0.6,1.5-1c1.5-1.1,3.1-2.2,4.3-3.6C111.5,38.3,112.2,37.4,112.7,36.3z"/>
			<path class="st10" d="M67.5,43.3c2.1-2.3,5.1-3.8,8.2-4.1c1.2-0.1,2.6-0.1,3.4,1c-0.4,0-0.7-0.3-1-0.4c-0.7-0.3-1.5-0.3-2.3-0.2
				c-2.2,0.3-4.4,1.1-6.2,2.5c-1.1,0.8-2,1.7-2.8,2.8c-2.3,2.9-3.8,6.3-5.2,9.7c0-0.1,0-0.3-0.1-0.4c0-0.3,0.1-0.5,0.2-0.7
				C63.1,49.7,64.8,46.1,67.5,43.3z"/>
			<path class="st10" d="M99.1,45.7c1-0.6,1.9-1.2,2.9-1.9c0,0.1,0.1,0.1,0.1,0.2l0.1,0.1c-0.9,0.6-1.8,1.1-2.7,1.7
				c-0.1,0.1-0.2,0.1-0.4,0.1C99.1,45.9,99.1,45.8,99.1,45.7z"/>
			<path class="st11" d="M61.5,46.5c0.1-0.3,0.2-0.6,0.5-0.8c0,0.1,0,0.3,0.1,0.4c-0.6,1.3-1.1,2.6-1.6,4c-0.6,1.7-1,3.5-1,5.3
				c-0.1,0-0.2,0-0.2,0c0-0.6,0.1-1.1,0.1-1.7C59.7,51.2,60.6,48.8,61.5,46.5z"/>
			<path class="st11" d="M61.3,54.3c0-0.1,0.1-0.2,0.2-0.3c0,0.1,0.1,0.3,0.1,0.4c-0.6,1.7-1.2,3.5-1.6,5.3
				c-0.1,0.4-0.2,0.9-0.4,1.3l-0.1,0.1c0-0.4,0.1-0.8,0.2-1.2C60,57.9,60.6,56.1,61.3,54.3z"/>
			<g>
				<path class="st12" d="M81.1,63.9c0.6,0,1.2,0,1.8,0c1.6-0.1,3.2,0.2,4.9,0.4c1.1,0.2,2.2,0.3,3.3,0.5c1.4,0.2,2.9,0.4,4.3,0.3
					c1-0.1,1.9-0.3,2.8-0.6c0.9-0.3,1.8-0.5,2.7-0.7c0.5,0,1-0.2,1.5-0.4c0-0.1,0-0.2,0-0.3c-0.7,0.2-1.4,0.2-2.1,0.4l0.1,0.1
					c-0.3,0-0.6,0-1,0.1c-0.7,0.2-1.5,0.3-2.2,0.4c-1.5,0.3-3,0.4-4.5,0.2c-1.1-0.1-2.2-0.4-3.3-0.5c-2.5-0.4-5-0.8-7.6-0.5
					c-0.8,0.1-1.6,0.2-2.4,0.4c0,0.1,0,0.2-0.1,0.2C79.9,64,80.5,64,81.1,63.9z"/>
				<path class="st12" d="M102.9,66.4c-1.1,0.1-2.1,0.2-3.2,0.4c-2.4,0.3-4.7,0.7-7.1,0.6c-2.5-0.1-5-0.5-7.3-1.2
					c-1.2-0.4-2.5-0.5-3.8-0.5c-1.1,0-2.3-0.1-3.4,0.2c-0.3,0.1-0.6,0.2-0.8,0.4c0.3,0.2,0.6,0.1,1,0.1L78,66.3
					c2.6-0.1,5.2-0.1,7.6,0.7c2.2,0.6,4.4,0.9,6.6,1.2c1.9,0.2,3.8-0.1,5.7-0.5c0.9-0.2,1.8-0.3,2.7-0.5c0.8-0.1,1.5-0.2,2.2-0.4
					C102.9,66.6,102.9,66.5,102.9,66.4z"/>
				<path class="st12" d="M98.3,69.8c-0.4-0.1-0.9,0.1-1.3,0.1c-1.3,0.2-2.7,0.5-4,0.3c-2.4-0.2-4.8-0.8-7.2-1
					c-1.2-0.2-2.4-0.1-3.6,0.1c0,0.1,0,0.2-0.1,0.2c0.4,0.1,0.8,0.1,1.1,0.1c0.5,0,1.1,0,1.6,0.1c1,0.1,2,0.2,3,0.4
					c1.8,0.3,3.6,0.6,5.4,0.8c1.8,0.1,3.4-0.5,5.1-0.8h0.1c0.6,0,1.2-0.2,1.9-0.4c0-0.1,0-0.2,0-0.2c-0.7,0-1.5,0.2-2.2,0.3H98.3z"
					/>
			</g>
			<path class="st2" d="M69.6,71.1c0.6-0.1,1.1-0.1,1.7-0.1c0.4,0,0.8,0.2,1.2,0.3c1.8,0.3,3.4,1.2,4.9,2.2c1.9,1.2,3.5,2.8,5.2,4.2
				c0.6,0.5,1.2,1,1.6,1.6c0.4,0.5,0.7,1.2,0.6,1.9c0,0.8-0.5,1.4-0.7,2.2c-0.1,0-0.2,0-0.3,0c-0.5-0.6-1.3-1.1-1.8-1.6
				c-1-1-2.3-1.8-3.5-2.6c-1.6-1.2-3.4-2.2-5.3-2.8c-1-0.3-2.1-0.5-3.2-0.5c-1-0.1-2.1,0.2-3,0.5s-1.7,0.9-2.6,1.4
				c-0.5,0.3-0.9,0.7-1.3,1c-0.2,0.2-0.3-0.1-0.4-0.2c0.5-0.6,0.4-1.3,0.7-2s0.5-1.4,0.9-2.1c0.5-0.8,1.1-1.6,1.8-2.2
				C67.2,71.6,68.4,71.3,69.6,71.1z"/>
			<path class="st13" d="M105.5,75.5c2.7-0.5,5.5-0.3,8.2,0.2c1,0.2,2,0.6,2.9,1.1c0.4,0.2,0.9,0.4,1.3,0.7c0.2,0.2,0.6,0.3,0.7,0.6
				c-0.6-0.1-1.1-0.2-1.7-0.4c-0.7,0-1.5,0.1-2.2,0c-1.3,0-2.6,0.1-3.9,0.3c-1.5,0.2-3.1,0.6-4.6,1.1c-2.7,1-5.3,2.2-7.9,3.5
				c-1,0.4-1.9,1-3,1.3c-0.3,0.1-0.7,0.3-1,0.5l0,0c-0.4,0-0.4-0.4-0.4-0.7c0-0.5-0.1-1.1,0-1.6c0.1-0.9,0.4-1.9,1.1-2.6
				c0.6-0.6,1.4-0.8,2.1-1.2c0.8-0.4,1.6-0.6,2.4-0.9C101.4,76.4,103.4,75.8,105.5,75.5z"/>
			<path class="st14" d="M72.2,82.1c0.3-0.2,0.8,0,1,0.3c0.2,0.4,0.2,0.8,0.2,1.2c0,0.7,0,1.4-0.4,2c-0.3,0.4-0.9,0.6-1.3,0.3
				c-0.3-0.3-0.5-0.7-0.5-1.1c-0.1-0.6,0-1.2,0.2-1.8C71.5,82.6,71.9,82.3,72.2,82.1z"/>
			<path class="st14" d="M103,83.3c0.5-0.2,1.1,0.1,1.3,0.5c0.2,0.6,0.2,1.2,0.1,1.8c-0.1,0.4-0.2,1-0.7,1.2c-0.4,0.2-0.8,0-1.2-0.1
				c-0.5-0.3-0.6-1-0.5-1.6C102.1,84.4,102.3,83.6,103,83.3z"/>
			<g>
				<path class="st12" d="M62.4,80.8c-0.9-0.2-1.7-0.6-2.5-1.2c-0.1,0-0.2,0-0.3,0c0.7,1.1,2,1.6,3.2,1.8c1.4,0.2,2.8,0.5,4.2,0.4
					c0-0.1,0-0.2,0-0.2C65.5,81.4,63.9,81.1,62.4,80.8z"/>
				<path class="st12" d="M63.9,83.1c0.7,0,1.4,0,2-0.2c0-0.1,0-0.2,0-0.3c-0.8,0.2-1.6,0-2.5,0.1c-1.4-0.2-2.8,0-4.2-0.2
					c0,0.1,0,0.2,0,0.3C60.8,83.3,62.4,83.2,63.9,83.1z"/>
				<path class="st12" d="M60.3,85.3c0,0.1,0,0.2,0,0.3c0.8,0,1.6-0.1,2.3-0.3c1.2-0.3,2.4-0.6,3.6-0.9c0-0.1,0-0.2,0-0.3
					c-0.1,0-0.2-0.1-0.3-0.1C64.1,84.3,62.2,84.8,60.3,85.3z"/>
				<path class="st12" d="M70.2,87.3c0.9,0.3,1.8,0.5,2.7,0.6c0.8,0,1.6,0.1,2.3-0.3c0-0.1,0-0.2,0-0.2c-0.4,0-0.9,0.2-1.3,0.1
					c-1.6-0.1-3.2-0.7-4.7-1.1c0,0,0-0.1-0.1-0.1c0,0.1,0,0.2-0.1,0.2C69.3,86.9,69.8,87.2,70.2,87.3z"/>
				<path class="st12" d="M77.1,88c-0.3,0.1-0.6,0.1-0.9,0.3c-1.7,0.3-3.5,0.5-5.3,0.3c-0.7-0.1-1.4-0.3-2.1-0.3c0,0.1,0,0.2,0,0.3
					c1,0.7,2.2,0.9,3.4,0.9c1.4,0,2.8-0.3,4.1-0.8C76.6,88.6,77.1,88.5,77.1,88z"/>
			</g>
			<path class="st15" d="M67.4,89.6c0.3,0,0.5,0.1,0.8,0.1c1.3,0.3,2.7,0.4,4.1,0.6c0,0.1,0,0.2,0,0.2c-1.6-0.1-3.3-0.1-4.8-0.7
				C67.5,89.7,67.4,89.6,67.4,89.6z"/>
			<path class="st6" d="M68.9,95.7c1.2-0.2,2.7,0.6,2.9,1.9c0.1,0.8-0.2,1.6-0.7,2.2c-0.7,0.8-2,0.9-2.9,0.6
				c-0.7-0.2-1.3-0.8-1.5-1.5c-0.2-0.8,0.1-1.8,0.8-2.3C68,96.3,68.3,95.8,68.9,95.7z"/>
			<path class="st6" d="M107.3,95.8c0.6-0.1,1.2,0,1.7,0.4c0.6,0.4,0.8,1,0.9,1.7c0,0.8-0.4,1.6-1.1,2s-1.6,0.3-2.3,0
				c-0.6-0.3-1-0.8-1-1.5C105.4,97.3,106.2,96.1,107.3,95.8z"/>
			<path class="st16" d="M125.7,126.1c0-0.2,0.3-0.4,0.5-0.3c0.1,0.1,0.1,0.3,0.1,0.4c0,1.3-0.2,2.5-0.4,3.8
				c-0.4,2.3-0.7,4.5-1.4,6.7c-0.8,2.6-1.9,5.2-2.9,7.7c-0.8,2-1.8,3.8-2.8,5.7s-2.1,3.7-3.1,5.5c-0.6,1-1.2,1.9-1.8,2.8
				c-1.1,1.6-2.4,3-3.5,4.5c-0.9,1.2-1.9,2.3-3.1,3.2c-0.4,0.3-1.1,0.3-1.4-0.1c-1.1-1.5-2.2-3.1-3.4-4.5c-0.8-1-1.4-2.1-2.2-3.2
				c-0.6-0.8-1.1-1.7-1.7-2.5c-0.6-0.9-1.4-1.7-2.4-2.2c-1.3-0.1-2.5,0-3.8,0.2c-0.6,0.1-1.3,0-1.9,0.1s-1.3,0.1-1.9,0
				c-0.2,0-0.3,0.2-0.5,0.3c-0.9,0.9-1.3,2.1-1.4,3.3c-0.1,1.3-0.1,2.6-0.2,3.9c0,1.3,0,2.7,0,4c-0.1,1.3,0,2.6-0.1,3.9
				c0,3.3-0.1,6.6-0.1,9.9c0,2.7-0.2,5.5-0.3,8.2c0,2.8-0.1,5.6-0.1,8.5c0,1.3-0.1,2.7,0,4c0.2,0.5,0.2,1.1,0.1,1.6
				c2.1,0.7,4.4,0.9,6.6,1.7c0.3,0.1,0.6,0.3,0.9,0.5c0,0.1,0,0.2,0,0.2s-0.1-0.1-0.2-0.1c-0.8,0-1.6-0.1-2.3-0.2
				c-1.1-0.1-2.2-0.4-3.3-0.7c-0.6-0.1-1.2-0.4-1.8-0.5c-0.3-0.1-0.6-0.2-0.6-0.5s0.1-0.7,0.1-1c-0.1-1.1-0.1-2.2,0-3.3
				c-0.1-1.6,0-3.2,0-4.8c0-2.9,0-5.8,0.2-8.7c0-1,0-1.9,0.1-2.9c0.1-3-0.1-5.9,0-8.9c0-2.5,0.1-5,0.2-7.5c0-1.2,0.2-2.5,0.1-3.7
				c-0.2-1-0.1-2.1-0.1-3.1c0-1.4,0.4-2.9,1.3-4c0.3-0.4,0.7-0.6,1-1c-1.3-0.3-2.7-0.8-3.9-1.4c-0.7-0.3-1.4-0.8-2.2-0.9
				c-0.3,0-0.5,0-0.7,0.2c-0.7,0.6-1.5,1.2-2.1,1.9c-1.5,1.5-3.1,3-4.6,4.4c-1.3,1.2-2.4,2.5-3.6,3.7c-0.6,0.6-1.2,1.2-1.8,1.8
				c-0.3,0.3-0.8,0.4-1.1,0.7c-0.2,0.2-0.6,0.1-0.9,0.1c-0.5-0.1-0.8-0.6-1.1-0.9c-1.2-1.3-2.3-2.8-3.4-4.3
				c-1.1-1.7-2.2-3.4-3.3-5.1c-0.9-1.5-1.7-3-2.5-4.5c0.2-0.2,0.3-0.3,0.5-0.5c1,2,2.1,3.9,3.3,5.8c1.2,1.8,2.4,3.7,3.7,5.5
				c0.8,1.1,1.7,2.2,2.6,3.3c0.2,0.3,0.6,0.3,0.9,0.1c0.2-0.1,0.4-0.1,0.5-0.2c-0.1,0.1-0.1,0.3-0.2,0.4c0.5-0.2,0.7-0.8,1-1.1
				c1.4-1.3,2.7-2.7,3.9-4.1c0.7-0.7,1.5-1.4,2.2-2.1c1.2-1.2,2.4-2.3,3.5-3.5c0.4-0.4,0.8-0.8,1.2-1.1c0.5-0.4,0.9-1,1.6-1
				c1-0.1,1.9,0.5,2.7,0.9c1.1,0.6,2.3,1,3.5,1.3c0.3,0.1,0.5,0.3,0.8,0.4c0.6-0.3,1.1-0.6,1.7-0.8c0.5-0.2,1-0.4,1.4-0.7
				c0.6-0.4,1.2-0.9,1.9-1c-0.3,0.5-0.8,0.7-1.2,1.2c-0.4,0.5-1.1,0.7-1.7,1c-0.5,0.2-1,0.6-1.5,0.8c-0.1,0.1-0.3,0.2-0.4,0.2
				c0.5,0,1,0.1,1.5-0.1c0.5-0.1,1-0.1,1.5-0.2c1.2-0.3,2.5-0.2,3.8-0.3c0.6,0,1.1,0.5,1.6,0.8c0.9,0.6,1.5,1.6,2.2,2.5
				c0.7,1,1.4,2,2,3c1.1,1.8,2.5,3.4,3.6,5.2c0.4,0.5,0.7,1.1,1.1,1.5c0.7-0.4,1.2-1,1.8-1.5c0.9-0.9,1.6-1.9,2.5-2.9
				c0.7-0.9,1.5-1.8,2.2-2.7c0.6-0.9,1.3-1.8,1.8-2.7c1-1.7,2-3.4,3-5.2c0.9-1.8,1.9-3.5,2.7-5.3c1.2-2.9,2.5-5.9,3.4-9
				c0.7-2.6,1.1-5.3,1.5-8C125.6,127.6,125.7,126.9,125.7,126.1z"/>
			<path class="st17" d="M50.3,126.3c0.1,0,0.2,0,0.3,0c0.1,1.2,0.2,2.5,0.5,3.7c0.5,2.2,1.1,4.4,1.8,6.5c0.8,2.4,1.6,4.8,2.6,7.1
				c0.6,1.6,1.4,3.1,2.2,4.6c-0.2,0.2-0.3,0.3-0.5,0.5c-1-1.9-1.9-3.8-2.7-5.8c-0.9-2.2-1.6-4.5-2.3-6.7c-0.6-1.9-1.2-3.9-1.6-5.8
				C50.3,129.2,50.2,127.7,50.3,126.3z"/>
			<g>
				<path class="st12" d="M111,82.9c1.7-0.2,3.4-0.9,4.9-1.7c0.7-0.4,1.3-0.7,1.9-1.2c0-0.1,0-0.2,0-0.3c-0.4,0.2-0.7,0.5-1.2,0.7
					c-2.3,1.1-4.8,2-7.3,2.5C109.9,83,110.5,82.9,111,82.9z"/>
				<path class="st12" d="M117.6,82.5c-0.6,0-1.2,0.3-1.8,0.4c-1.7,0.4-3.3,0.7-5,1.1c0,0.1,0,0.2,0.1,0.2c1.2,0.2,2.5,0,3.6-0.3
					c1-0.3,2-0.6,2.9-1c0.3,0,0.6-0.2,0.7-0.5c-0.3,0-0.5,0-0.8,0.1L117.6,82.5z"/>
				<path class="st12" d="M74.7,117.4L74.7,117.4c0.1,0.9,0.4,1.6,0.5,2.4c0.1,0.2,0,0.5,0.3,0.7c-0.1-1.2-0.3-2.4-0.5-3.6l-0.1,0.1
					c0-0.8-0.3-1.6-0.3-2.4c-0.3-2.6,0.2-5.4,1.7-7.6c0.5-0.8,1-1.6,1.6-2.3c0.9-1.3,2-2.5,3-3.7c0,0.4,0,0.8,0,1.2
					c0.4,0.4,0.6,0.9,1.1,1.2c0.5,0.3,0.8,0.9,1.3,1.3c0.7,0.4,1.2,0.9,1.9,1.4c0.7,0.5,1.6,0.8,2.4,1.1c0.9,0.2,1.9,0.5,2.8,0.1
					v0.2h-0.1c0,0.7,0,1.5,0.2,2.2c0.1,0.5,0.2,0.9,0.3,1.4V111c-0.9-0.1-1.8-0.1-2.7,0.1c-0.9,0.2-1.8-0.1-2.7-0.1
					c0-0.9,0-1.8,0-2.7c0-0.7,0-1.3-0.1-2c-0.1,0-0.2,0-0.2,0c-0.2,0.7-0.1,1.5-0.1,2.2c0,0.8-0.1,1.7,0.2,2.5c-2,0-3.9,0.5-5.8,0.5
					c-0.6,0-1.1,0-1.7,0c-0.2,0-0.5-0.1-0.7,0.2c-0.2,0-0.4,0.1-0.6,0.2c1,0.4,2.1,0.5,3.2,0.6c2.7,0.4,5.5,0.7,8.3,0.6
					c1.6-0.1,3.2,0,4.8-0.4c1.7-0.3,3.4-0.5,5.1-0.8c0.6-0.1,1.2-0.2,1.8-0.3c0.2,0,0.3-0.2,0.5-0.4c-0.2,0-0.4-0.1-0.6-0.1
					c-0.9-0.2-1.9,0.1-2.8,0.1c-1,0-2,0.2-3,0.1c-0.7-0.1-1.4,0-2.1-0.2c-0.1-1.2-0.2-2.4-0.5-3.6h-0.2l0.1-0.1h-0.3
					c0.1-0.2,0.3-0.2,0.5-0.3c0.7-0.3,1.3-0.8,1.9-1.2c0.6-0.4,1.2-0.8,1.7-1.3c0.6-0.4,1.2-0.9,1.7-1.4c0.4-0.5,0.5-1.3,0.4-1.9
					c0.8,1.1,1.8,2.1,2.4,3.3c0.4,0.8,0.8,1.6,1.2,2.3c0.5,1.1,0.9,2.2,1.1,3.4c0.4,1.3,0.4,2.7,0.3,4.1c-0.1,1.3-0.4,2.5-0.6,3.8
					c-0.4,1-0.5,2.2-1.1,3.2c0.1,0,0.2,0,0.2,0c0.3-0.4,0.5-0.8,0.6-1.3c0.2-0.5,0.4-0.9,0.5-1.4c0.5-1.3,0.8-2.8,0.9-4.2
					c0.1-2.3-0.2-4.5-1.1-6.6c-0.2-0.4-0.3-0.9-0.5-1.3c-0.1-0.7-0.5-1.3-0.8-2c-0.3-0.9-0.9-1.6-1.5-2.4c-0.7-0.9-1.5-1.8-2.4-2.6
					c-0.6-0.8-0.9-1.7-1.4-2.6c-0.4-0.6-0.4-1.4-0.5-2.2c-0.1-0.8-0.2-1.5-0.3-2.3c0-1,0-1.9,0-2.9c0.1-1.8,0.4-3.6,0.9-5.4
					c-0.4,0-0.4-0.4-0.4-0.7c-0.2,0.7-0.4,1.4-0.6,2.2c-0.5,2.3-0.5,4.6-0.6,6.9c0,0.9,0.2,1.7,0.2,2.6c0,0.4,0.3,0.6,0.4,0.9
					c0.3,0.9,0.6,1.7,0.9,2.5c0.4,0.8,0.8,1.6,1.1,2.4c0.3,0.7,0,1.6-0.7,2.1c-0.3,0.3-0.5,0.7-0.8,0.9c-0.7,0.3-1.3,0.9-2,1.3
					s-1.4,0.9-2.1,1.2c-0.6,0.2-1.1,0-1.7,0c-0.6-0.1-1.2-0.4-1.8-0.6c-1.1-0.5-1.9-1.4-2.9-1.9c0-0.1,0-0.2,0-0.3
					c-0.7-0.4-1.2-1-1.7-1.7c-0.3-0.5-0.1-1.2,0.1-1.7c0.5-1,1.1-1.9,1.8-2.8c0.4-0.5,0.7-1.1,1-1.7v-0.1l0.1,0.1
					c0.8-2.5,0.7-5.1,0.7-7.7c0-0.6-0.1-1.1-0.3-1.6c-0.1-0.3-0.1-0.8-0.4-0.9c-0.1,0.5,0,1.1,0.1,1.6c0.2,0.8,0.1,1.6,0.1,2.3
					c0,1.3-0.1,2.7-0.2,4c-0.1,0.8-0.3,1.6-0.5,2.3c-0.8,1.3-1.8,2.4-2.8,3.6c-0.9,0.9-1.8,1.9-2.6,2.9c-0.6,0.8-1.4,1.6-1.9,2.6
					c-0.7,1.2-1.5,2.4-2,3.8c-0.5,1.2-0.7,2.5-0.8,3.8c0,0.9-0.1,1.9,0.1,2.8C74.4,116,74.6,116.7,74.7,117.4z"/>
				<path class="st12" d="M114,85.3c-1.3,0-2.5,0.1-3.8,0.1c0,0.1,0,0.2,0,0.2c1.3,0.4,2.7,0.1,4.1,0.1c0.7-0.1,1.5,0,2.2-0.3
					c0-0.1,0-0.2,0-0.3C115.6,85.4,114.8,85.3,114,85.3z"/>
				<path class="st12" d="M105.1,88.5c0.7-0.1,1.5-0.1,2.2-0.5c0-0.1,0-0.2,0-0.3c-1.4,0.4-2.9,0.3-4.3,0.2c-0.9,0-1.9-0.2-2.8-0.1
					c0,0.1,0,0.2,0,0.2C101.7,88.6,103.4,88.5,105.1,88.5z"/>
				<path class="st12" d="M105.6,89.8c0.7-0.2,1.5-0.3,2.2-0.6c0-0.1,0-0.2,0-0.4c-1.9,0.3-3.9,0.5-5.9,0.5c-1.1,0-2.1-0.3-3.2-0.3
					c0,0.1,0,0.2,0,0.2C100.9,90.3,103.3,90.4,105.6,89.8z"/>
				<path class="st12" d="M89.4,98.9c0.1-0.9,0.1-1.8,0.2-2.7c0-0.8,0.1-1.6-0.1-2.3c-0.1,0-0.2,0-0.3,0c-0.1,1.8-0.1,3.5-0.1,5.3
					c0,0.4-0.2,0.8-0.2,1.2c0.1,0,0.2,0,0.2,0C89.3,99.9,89.4,99.4,89.4,98.9z"/>
				<path class="st12" d="M107.2,112.9c0.1,0,0.2,0,0.2,0c0.2-0.4,0.3-0.8,0.4-1.2c0.7-2.6,1.6-5.1,2.6-7.6c0.7-1.8,1.6-3.6,2.3-5.5
					c0.4-0.9,0.7-2,0.4-3c-0.1,0-0.2,0-0.3,0c-0.2,0.7-0.4,1.4-0.7,2.1c-1,2.3-2.1,4.5-2.9,6.8c-0.7,2-1.2,4-1.7,6
					C107.4,111.4,107.2,112.1,107.2,112.9z"/>
				<path class="st12" d="M66.7,102.6c1.4,2.4,2.6,4.9,3.4,7.5c0.1,0.3,0.1,1,0.6,0.8c-0.1-1.5-0.6-2.9-1.1-4.3
					c-0.5-1.7-1.2-3.3-2.1-4.8c-0.6-0.9-1.3-1.7-1.9-2.6c-0.6-0.8-1-1.7-1.3-2.7c-0.1,0-0.3,0-0.4,0c-0.2,1.3,0.4,2.4,1,3.4
					C65.4,100.9,66.2,101.7,66.7,102.6z"/>
				<path class="st12" d="M118.6,98.5C118.6,98.5,118.5,98.5,118.6,98.5c-1,3-2.2,5.9-3.7,8.7c-1.2,2.2-2.4,4.5-3.5,6.7
					c-0.2,0.5-0.5,0.9-0.6,1.4l-0.1-0.1c-0.4,0.8-0.8,1.6-1.1,2.4c0.1,0,0.2,0,0.3,0c0.3-0.6,0.5-1.1,0.8-1.7
					c0.1-0.3,0.3-0.6,0.4-0.9c0.3-0.4,0.5-1,0.8-1.4c1.2-2.3,2.5-4.5,3.8-6.8c1-1.9,1.9-3.9,2.6-6
					C118.4,100.1,118.6,99.3,118.6,98.5z"/>
				<path class="st12" d="M67.2,115.7c0.4,0.7,0.7,1.5,1.1,2.2c0.2,0.8,0.6,1.5,0.9,2.2c0.1,0,0.2,0,0.3,0c-0.3-0.8-0.6-1.6-0.9-2.4
					l-0.1,0.1c0-0.2-0.1-0.4-0.2-0.6c-1.4-3.1-2.6-6.2-4.3-9.2c-0.8-1.4-1.6-2.6-2.3-4c-0.6-1.4-1.3-2.7-1.8-4.1
					c-0.3-0.8-0.5-1.6-0.6-2.5l0,0c0-0.3,0-0.7-0.3-0.7c0,0.2,0,0.5,0,0.7c0,0.1,0.1,0.2,0.1,0.2c0.1,0.9,0.2,1.8,0.5,2.6
					c0.5,1.5,1.1,3,1.7,4.4c0.7,1.4,1.5,2.7,2.3,4C64.9,110.9,66.1,113.3,67.2,115.7z"/>
				<path class="st12" d="M115.1,114.1c-0.4,0.7-1,1.3-1.5,1.9c-0.8,1-1.5,2.1-2.3,3.2c-1.8,2.5-3.7,4.8-5.7,7.1
					c-0.7,0.8-1.4,1.5-2.2,2.2c-1.5,1.3-3,2.5-4.8,3.5c-1,0.5-2.1,0.7-3.2,1.1c-0.8,0.3-1.6,0.4-2.4,0.6c-0.6,0.2-1.1,0.3-1.7,0.4
					c-0.4,0.1-0.8,0-1.2,0c-0.7,0-1.4-0.1-2.1-0.2c-1.3-0.2-2.7-0.4-4-0.8c-3.2-0.8-6-2.5-8.6-4.4c-1.4-1.2-2.8-2.4-4-3.8
					c-1.5-2-3-4-4.3-6.2c-1.1-1.7-2.2-3.6-3.2-5.4c-0.3-0.5-0.5-1-0.8-1.4c-0.5-0.8-0.9-1.6-1.7-2.2c0,0.1,0,0.3,0,0.3
					c0.7,1.2,1.3,2.5,2,3.8c0.9,1.7,1.8,3.5,2.9,5.1c1.1,1.8,2.4,3.6,3.7,5.3c1.1,1.6,2.4,2.9,3.8,4.2s3.1,2.3,4.8,3.3
					c2.1,1.3,4.5,2,6.9,2.5c1.3,0.2,2.5,0.4,3.8,0.5c2.5,0.1,5.1-0.2,7.4-1.1c2.2-0.8,4.2-2,6.1-3.5c0.8-0.6,1.4-1.4,2.2-2.1
					c0.7-0.6,1.2-1.2,1.8-1.9c2.2-2.4,4.3-4.9,6-7.7c0.6-1,1.2-1.9,1.8-2.8c0.2-0.4,0.5-0.7,0.6-1.1c0.3-0.2,0.4-0.6,0.5-0.9
					c-0.1,0-0.2,0-0.3,0C115.3,113.7,115.2,113.9,115.1,114.1z"/>
				<path class="st12" d="M91.7,116.6c1-0.2,2-0.7,3-1.1c-1.4,0.2-2.8,0.3-4.2,0.6c-2,0.3-4,0.2-5.9-0.1c-1,0-1.9-0.1-2.9-0.1
					c0.6,0.1,1.1,0.3,1.6,0.4C86,117,89,117.3,91.7,116.6z"/>
				<path class="st12" d="M109.4,125.4c-0.6,1.1-1.2,2.1-1.6,3.2c-0.9,2.4-1.7,4.8-2.7,7.2c-0.9,2-1.8,4-3.1,5.7v-0.1
					c-0.1,0.1-0.2,0.2-0.4,0.4c0,0.1,0,0.2,0,0.3c0.1,0,0.2,0,0.3,0c0.3-0.3,0.6-0.5,0.8-0.9c0.2-0.2,0.3-0.4,0.5-0.6
					c1.1-1.6,2-3.5,2.8-5.3c1-2.2,1.8-4.6,2.6-6.9c0.3-0.9,0.7-1.9,1.1-2.7c0.2-0.4,0.4-0.8,0.4-1.2
					C109.8,124.7,109.6,125.1,109.4,125.4z"/>
				<path class="st12" d="M73.7,129.9c-0.1,0-0.2,0-0.3,0c0.1,0.6,0.3,1.2,0.5,1.8c1.3,3.7,3.4,7.1,5.9,10.1c0.1,0,0.2,0,0.3,0
					c-2.1-2.6-3.7-5.6-5.1-8.6C74.6,132.1,74.2,131,73.7,129.9z"/>
				<path class="st12" d="M103.3,132.2c0.2-0.3,0.2-0.7,0.3-1.1c-0.1,0-0.2,0-0.3,0c-0.1,0.2-0.1,0.3-0.2,0.5
					c-0.7,2-1.7,3.9-2.6,5.8c-1.1,2.5-2.3,4.9-3.2,7.4c0,0.1,0,0.2,0,0.4c0.1,0,0.2,0,0.2,0c0.6-1.2,1.1-2.5,1.8-3.7
					c1.1-2.3,2.3-4.5,3.3-6.8C102.8,133.9,103.1,133.1,103.3,132.2z"/>
				<path class="st12" d="M86.1,132.7c2,0.5,4.1,0.6,6.1,0.3c1-0.1,1.9-0.5,2.8-0.9c0.7-0.1,1.3-0.5,1.9-0.8c0-0.1,0-0.2,0-0.2
					c-0.6,0.3-1.2,0.5-1.9,0.7l0.1,0.1c-0.4,0-0.9,0.2-1.3,0.2c-0.7,0.1-1.3,0.3-2,0.4c-1.3,0.2-2.7,0.2-4,0.1
					c-0.5,0-0.9-0.2-1.4-0.1c-0.2-0.1-0.4-0.1-0.6-0.2c-0.6-0.1-1.1-0.4-1.7-0.5c0,0.1,0,0.2,0,0.3
					C84.7,132.2,85.4,132.6,86.1,132.7L86.1,132.7z"/>
				<path class="st12" d="M72.1,134.6c0-0.4-0.3-0.8-0.4-1.2c-0.6-1.5-1.1-3-1.6-4.5c-0.7-2-1.8-3.8-2.6-5.7c0-0.2-0.1-0.4-0.2-0.6
					c-0.1,0-0.2,0-0.3,0c0,0.3,0.1,0.6,0.1,0.9l0.1-0.1c0,0.4,0.2,0.7,0.3,1.1c0.3,1,0.8,1.9,1.2,2.8c0.9,2.3,1.9,4.5,2.9,6.8l0,0
					c0.2,0.7,0.6,1.3,0.9,2c0.1,0,0.2,0,0.3,0C72.6,135.6,72.4,135.1,72.1,134.6L72.1,134.6z"/>
			</g>
			<path class="st18" d="M89.8,153.2c0.8,0.1,1.6-0.2,2.4-0.2c0,0,0.1,0.1,0.1,0.2c-0.5,0.1-1,0.1-1.5,0.2c-0.5,0.1-1,0.1-1.5,0.1
				C89.6,153.3,89.7,153.3,89.8,153.2z"/>
			<path class="st19" d="M88.9,156.9c0.4-0.3,0.7-0.9,1.2-0.9s0.8,0.4,0.9,0.8c0.4,0.9-0.2,2-1.2,2.1c-0.5,0-0.9-0.4-1.3-0.6
				C88.6,157.9,88.5,157.3,88.9,156.9z"/>
			<path class="st20" d="M68.3,163c0.3-0.4,0.9-0.7,1.4-0.9c-0.4,0.4-0.5,0.9-1,1.1c0.1-0.1,0.1-0.3,0.2-0.4
				C68.7,162.8,68.5,162.9,68.3,163z"/>
			<path class="st21" d="M133.4,168.6c0.1-0.1,0.2-0.2,0.3-0.3c0,0.6-0.4,1.1-0.6,1.6c-1,1.9-2.7,3.3-4.2,4.8
				c-1.3,1.3-2.6,2.7-3.7,4.2c-0.4,0.5-0.7,0.9-1.1,1.4c-0.1,0.1-0.3,0.1-0.4,0.1c0.1-0.3,0.4-0.6,0.5-0.9c1-1.6,2.3-3.1,3.6-4.6
				c1.3-1.4,2.8-2.6,4-4.1C132.5,170.1,132.9,169.3,133.4,168.6z"/>
			<path class="st19" d="M90.4,168.7c0.6-0.1,1.1,0.4,1.2,1c0,0.6-0.2,1.4-0.9,1.7c-0.6,0.2-1.3-0.2-1.4-0.9
				C89.2,169.7,89.5,168.7,90.4,168.7z"/>
			<path class="st16" d="M37.3,169.1c0,0,0.1,0,0.2,0.1c0.4,0.8,0.7,1.7,1.1,2.5c1,1.7,2.2,3.2,3.3,4.8c1.2,1.6,2.3,3.4,3.2,5.2
				c0.5,1,0.8,2.2,0.9,3.3c-0.1,0-0.3,0-0.4,0c-0.2-1-0.5-2.1-1-3c-1.8-3.4-4.5-6.1-6.3-9.4C37.8,171.5,37.3,170.3,37.3,169.1z"/>
			<path class="st19" d="M90.4,181.6c0.6-0.1,1.2,0.6,1.1,1.2c-0.1,0.4-0.3,0.9-0.8,1c-0.4,0.1-0.8,0-1.1-0.3
				C89.2,182.8,89.5,181.6,90.4,181.6z"/>
			<path class="st22" d="M33.4,194.3c0.1,0,0.2,0,0.3,0c0.3,1,0.5,1.9,0.7,2.9c0.6,2.5,1.4,5,2.8,7.2c0.2,0.3,0.5,0.6,0.4,0.9
				c-0.1,0-0.2,0-0.3,0c-1-1.3-1.9-2.8-2.5-4.3c-0.5-1.4-1-2.7-1.2-4.2C33.6,196,33.3,195.1,33.4,194.3z"/>
			<path class="st19" d="M90.2,195.2c0.5-0.2,1.2,0.2,1.2,0.8c0.1,0.7-0.8,1.5-1.5,1.1C89.1,196.6,89.4,195.4,90.2,195.2z"/>
		</g>
	</g>
</g>
</svg>
