<svg xmlns="http://www.w3.org/2000/svg" xmlns:xlink="http://www.w3.org/1999/xlink" xml:space="preserve" id="Layer_1" x="0" y="0" style="enable-background:new 0 0 180 180" version="1.1" viewBox="0 0 180 180"><style>.st2{fill:#38312d}.st3{fill:#e56324}.st4{fill:#f2844f}.st5{fill:#f95939}.st7{fill:#fdb697}.st9{fill:#cc492f}.st11{fill:#57463d}.st15{fill:#ba5f3d}.st26{fill:#794274}.st28{fill:#784276}.st30{fill:#fff}</style><defs><path id="SVGID_1_" d="M0 0h180v180H0z"/></defs><use xlink:href="#SVGID_1_" style="overflow:visible;fill:#7b27c4"/><clipPath id="SVGID_2_"><use xlink:href="#SVGID_1_" style="overflow:visible"/></clipPath><g style="clip-path:url(#SVGID_2_)"><path d="M171.1 211.5c-1.1-4.4-2.8-8.6-4.9-12.6-2.1-4-4.9-7.7-7.7-11.2-2.5-3.2-5.2-6.1-8.1-8.9-.8-1.1-1.4-2.3-2.2-3.4-2.5-4.1-6-7.4-9-11.1-2.4-3-5.1-5.7-6.7-9.2-1.1-2.4-1.7-5-3.1-7.2-1.2-2.2-2.7-4.3-4-6.4-.9-1.4-2.1-2.6-3-3.9-.6-.9-1.6-1.4-2.6-1.9-1.8-.9-3.7-1.8-5.8-1.6-2.5.2-4.7-1.3-7.1-1.7-2.8-.2-5.6.5-8.4-.2-2.7-.6-5.4-.4-8.1-.5-3.5-.1-7-.2-10.5-.6-3.2-.4-6.4-.2-9.6 0-2.9.2-5.7.6-8.5 1.3-2.6-1.2-5.7-.9-8.1.6-2.2 1.5-3.6 3.6-5.2 5.7-.2.3-.4.5-.6.8l-4.2 4.2c-5.4 3.9-11 7.4-16.3 11.5-2.7 2.1-5.4 4-8.3 5.7-3.5 2.1-6.8 4.4-10 6.9l-2.4 2.1c-.7.2-1.4.6-1.9 1.1-9.2 8.6-16.2 19.3-20.6 31-.4 1-.7 2-1.1 3-1.2 2.1-2.2 4.4-3 6.7h191z" style="fill:#dfaf33"/><path d="M81.3 21.2c5-.8 9.9-1.9 15-1.6 1.9 0 3.8.4 5.8.5 2.7.2 5.3.9 7.9 1.6 2.1.5 4.2 1.4 6.4 1.1 2.3-.2 4.6-.3 6.9-.5 2.4-.5 4.8-1.5 7.3-1.5 1.4 0 3-.2 4.2.6 1.1.6 1.8 2 1.5 3.2-.5 2.4-2 4.5-3 6.7.7.1 1.5.1 1.9.7.6.8.4 2 .2 2.9-.5 1.9-1.5 3.7-2.5 5.4 1.1.8 1.2 2.4.9 3.6-.3 1.4-1.2 2.5-2 3.6l-2.1 3.3c1 .9.8 2.3.5 3.5-.7 2.1-1.9 4.2-2 6.5-.4 2.7-.2 5.5-1.3 8-1.2 3.7-3.1 7.3-6.3 9.6-3.3 2.4-7.4 3.6-11.4 4.6-9.3 2.4-18.9 1.9-28.3 2.3-3.8.2-7.6.4-11.3.8-2 .2-3.9.7-5.9.6-1.7 0-3.3-.4-4.9-.9-1.7-.5-3.3-1.3-4.5-2.6-1.5-1.7-2.3-4-2.5-6.2-.1-.7.1-1.3.4-2-.5-1.5-.9-3.1-1-4.7-.2-2.6-.6-5.2-.4-7.9 0-4.4.5-8.8 1.7-13.1 1.3-4.2 2.6-8.6 5.2-12.3 1.6-2.2 3-4.6 4.9-6.6 4.9-5.1 11.7-8.1 18.7-9.2z" class="st2"/><path d="M113.3 48.9c.4-.1.8-.4 1.2-.1.1 2.2.9 4.3 1.7 6.4.9 2.1 1.6 4.3 2.3 6.5-.1.5-.5.8-.9.9-2.5.7-5 1-7.6 1.1-3.1.1-6.1-.5-9.1-1-2.8-.5-5.6-1.3-8.3-2.2-2.3-.8-4.4-1.9-6.6-2.7-3.9-1.5-7.6-3.4-11.4-5.3-1.2-.8-2.5-1.3-4-1.4.9-1 2.2-.5 3.3-.5 2.9-.1 5.7.3 8.6.6 3.9.5 7.9.5 11.8.6 5.3.1 10.8-.2 15.9-1.8 1.1-.5 2.1-.8 3.1-1.1z" class="st3"/><path d="M66 58.6c1.5-2.6 2.5-5.4 4.6-7.6 1.4.1 2.8.6 4 1.4 3.7 1.9 7.4 3.8 11.4 5.3 2.2.8 4.3 2 6.6 2.7 2.7.9 5.5 1.7 8.3 2.2 3 .5 6 1.2 9.1 1 2.6-.1 5.1-.4 7.6-1.1.5-.1.8-.4.9-.9.7 2.4 1.5 4.8 2 7.3.3 1.3.9 2.6 1.4 3.8.1.2.2.4.4.4-.3.2-.6.5-.6.9-.5 2.6-.8 5.2-1.2 7.8-.3 2.5 0 5.1-.3 7.6-.3 2.4-.3 4.9-.3 7.3 0 .4 0 1 .5 1.1 0 .1-.1.2-.2.3.1 1.5-.3 3-.5 4.4-.4 2.9-1.3 5.7-2.4 8.4-.4 1-1.1 1.8-1.5 2.8-.8.3-1.2 1-1.8 1.6-1.6 1.6-3.3 3.1-5.2 4.4-3.3 2.6-6.9 4.8-10.6 6.8-1.3.7-2.7 1.2-4 1.6-2.7.9-5.7.8-8.4 0-3.1-.7-6-2.2-8.9-3.4-2.5-1.2-5.1-2.3-7.3-4-2-1.4-3.8-3.1-5.5-4.8-.7-.8-1.3-1.6-2.1-2.3 0-.2-.1-.4-.2-.5-1.5-1.7-2.3-3.9-2.6-6.1-.5-2.7-.2-5.5-.6-8.2.7-3.6.8-7.3.5-11-.2-2.2 0-4.4-.7-6.6-.2-1.4-.1-2.8-.1-4.2-.1-3.1.9-6.1 2.5-8.7 1.6-3 3.4-6.4 5.2-9.7z" class="st4"/><path d="M125 70.9c.5-.7 1-1.3 1.6-1.8 2.9.3 5.3 2.6 6.3 5.2 1 2.7.9 5.7.2 8.5-.9 4.4-3.5 8.2-6.6 11.3-1.7 1.8-3.8 3.3-6.1 4-.5-.2-.4-.7-.5-1.1-.1-2.4 0-4.9.3-7.3.3-2.5 0-5.1.3-7.6.3-2.6.7-5.2 1.2-7.8 0-.4.3-.7.6-.9 1-.9 2-1.6 2.7-2.5zm-76.8 4c1.2-.7 2.8-.6 4 .2 1.9 1.3 3 3.4 4.7 4.9.5.5.9 1.2 1.4 1.6.6 2.1.5 4.4.7 6.6.2 3.7.2 7.4-.5 11-.9-.4-1.9-.2-2.7-.5-5.2-1.9-9.1-6.6-10.4-11.9-.8-2.4-.8-5.1-.2-7.6.5-1.9 1.5-3.5 3-4.3z" class="st5"/><path d="M61.8 113.9c.8.7 1.4 1.6 2.1 2.3 1.7 1.7 3.5 3.4 5.5 4.8 2.2 1.7 4.8 2.8 7.3 4 2.9 1.2 5.8 2.7 8.9 3.4 2.7.8 5.7.9 8.4 0 1.4-.4 2.8-.9 4-1.6 3.7-2 7.3-4.2 10.6-6.8 1.9-1.3 3.5-2.8 5.2-4.4.6-.6 1.1-1.3 1.8-1.6-.5 2.8-.5 5.6-.5 8.4-4.9 1.5-9.5 4-13.8 6.8-1.8 1.3-3.9 2.1-5.6 3.5-1.5 1.2-3 2.3-4.6 3.5-2.6 1.8-5.6 3.2-8.8 3.1-3.1-.1-6.3-.5-9.2-1.7-3.8-1.4-7.5-2.9-10.9-5.1-.6-.4-1.2-.8-1.9-1 1-3 1.2-6.1 1.4-9.2.4-2.9.6-5.6.1-8.4z" class="st3"/><path d="M101.5 129.2c4.3-2.9 8.9-5.3 13.8-6.8 0 5.7.1 11.3.4 17-.7 2.3-2.2 4.3-3.6 6.2-3 3.7-7.3 6-11.6 7.8-2.5 1.1-5 2.1-7.3 3.4-2 1.1-4.2 1.9-6 3.3-.3.3-.8.3-1.2.2-1.6-1-2.7-2.6-4.2-3.7-3.1-2.3-6.4-4.4-9.6-6.6-2.3-1.6-4.8-2.9-6.8-5-1.1-1-2.1-2-2.9-3.3-1.2-1.1-1.9-2.7-2.4-4.2-.2-.7-.6-1.4-.5-2.2-.2-1.4.6-2.7 1-4 .7.2 1.3.6 1.9 1 3.4 2.2 7.1 3.7 10.9 5.1 2.9 1.2 6.1 1.7 9.2 1.7 3.2.1 6.3-1.3 8.8-3.1 1.6-1.1 3.1-2.2 4.6-3.5 1.7-1.2 3.7-2.1 5.5-3.3z" class="st4"/><path d="M109.1 90.4c1.4-.2 2.7.3 3.9.8 1.6.7 2.9 2.4 2.8 4.2 0 2.4-.7 4.9-2.6 6.5-1.3 1.3-3.2 1.7-5 1.4-2-.2-4.2-1.2-5-3.1-1-1.8-.8-4.1.4-5.7.5-.7.9-1.5 1.6-2.1 1.3-.8 2.5-1.8 3.9-2zm-40.2.3c1.4-.4 3-.2 4.4.3 2 .9 3.3 3.1 3.4 5.3 0 1.9-.2 4-1.5 5.5-.9 1.1-2.3 1.7-3.7 2.1-2.6.5-5.6-.7-6.9-3.1-1.5-2.4-1.4-5.9.7-7.9 1.2-1 2.3-1.9 3.6-2.2z" class="st5"/><path d="M94.6 99.4c.4-.2.9-.6 1.4-.5-.1.6-.7.8-1.1 1.1-2.2 1.4-4.3 3-6.8 3.7-.7.1-1.5.4-2.1-.1-1-.7-1.5-1.8-2.2-2.7-.4-.6-.9-1.1-1-1.8.9-.5 1.7.4 2.6.5 1.3.2 2.3 1.3 3.7 1.4.7 0 1.4.5 2.1.1 1.2-.5 2.3-1.1 3.4-1.7z" class="st3"/><path d="M85.3 110.7c1.3-.5 2.8-.3 4.2-.4.1.2.2.5.2.7-1.4-.1-2.9.4-4.3.2-.1-.1-.1-.4-.1-.5z" style="fill:#fcb390"/><path d="M82.3 114.6c3.3.3 6.7.5 10.1.1.3-.1.8 0 .9.3-.3.9-.9 1.7-1.4 2.5-.5.8-1.5.1-2.2-.1-1.5-.2-2.9.1-4.4.2-.4 0-.7-.4-1.1-.6-.8-.5-1.5-1.4-1.9-2.4z" class="st3"/><path d="M72.7 58.3c1.8-.9 3.7-1.8 5.8-1.9-1.3.5-2.8.9-4.1 1.6-1.3.6-2.4 1.5-3.6 2.2.4-.8 1.1-1.5 1.9-1.9z" class="st7"/><path d="M110.5 30.6c5.2-.8 10.2-2.5 15-4.5 1.7-.8 3.5-1.4 5-2.5-.3.1-.7.2-1 .4-4.6 2.1-9.4 3.8-14.3 5.1-4.9 1.2-9.9 2.1-15 2.2 3.4.4 6.9-.2 10.3-.7zm-9.7-4.5h1.2c-1.3-.5-2.6-.4-3.9-.5-2.5-.2-5.1-.1-7.6.1-6.4.4-12.8 1-18.9 2.9-1.8.6-3.8 1.2-5.3 2.5 6.2-2.7 13-4 19.7-4.6 4.9-.5 9.9-.8 14.8-.4zm0 10.6c3.9.3 7.8-.3 11.7-1.1 4.6-1 9-2.6 13.3-4.4 1.6-.7 3.2-1.4 4.6-2.5-4.9 2.5-10.2 4.1-15.4 5.6-4.7 1.4-9.4 2.1-14.2 2.4zm-9.7-5.2c1.7-.1 3.5.2 5.1-.4-1.8-.1-3.6-.1-5.4 0-7.4.1-14.8.6-22.1 2-1.9.4-3.9.7-5.4 1.9 1.1-.3 2.2-.7 3.4-1 8.1-1.6 16.3-2.2 24.4-2.5zm39.1 3.4c-2.9 1.9-6.1 3.6-9.4 4.8 2.9-.6 5.6-2.1 8.2-3.5 1.3-.8 2.8-1.4 3.7-2.7-.9.3-1.7.9-2.5 1.4zm-54.5 3.8c4.7-.1 9.3-.3 14-.6 2.6-.2 5.2-.2 7.8-.9-1.2.1-2.4.3-3.5.4-8 .4-16.1.8-24.2.5-2.4 0-4.8-.6-7.2-.5 4.2 1 8.7 1.2 13.1 1.1zm37.4 2.2c-2.4.7-4.7 1.3-7.2 1.7-3.2.5-6.4 1.1-9.6 1.1 1 .2 1.9.4 2.9.3 5.1-.4 10.1-1.4 14.9-3.1 2.2-.8 4.6-1.5 6.5-2.9-2.4 1.2-4.9 2.1-7.5 2.9zm14.3.3c1.4-.8 3-1.5 4.2-2.7-1.1.3-2.1 1-3.1 1.5-3.6 2.1-7.5 3.7-11.3 5.3 1.2-.1 2.4-.6 3.6-1.1 2.2-.9 4.4-1.9 6.6-3zm-40.2 3.3c-7.4-.2-15-.5-22.2-2.6-1.1-.3-2.1-.8-3.3-.8 1.6 1 3.5 1.5 5.4 2 6.2 1.6 12.7 1.7 19.1 1.7 2.5 0 5.1.1 7.5-.7-2.1.2-4.3.4-6.5.4zm29.1 4.7c1.3.1 2.7.1 4-.2 2.9-.5 5.7-1.5 8.5-2.5 1.1-.5 2.3-.9 3.1-1.7-3.1 1.4-6.3 2.4-9.5 3.2-2 .4-4 1-6.1 1.2zm-36.2-.7c-4.3-.4-8.6-1.1-12.9-2-1.3-.2-2.4-.9-3.7-.9 2 1.5 4.5 1.7 6.9 2.1 3.2.4 6.3.9 9.5 1.1 1.3.1 2.6.1 3.9-.3-1.3 0-2.5.2-3.7 0zm12 0c-1.6 0-3.3-.3-4.9-.2 2.4.8 4.9.9 7.4.8 3.7-.2 7.3-.7 10.9-1.4 2.6-.5 5.2-1 7.6-2-1.4.1-2.7.7-4.1 1-5.5 1-11.2 1.8-16.9 1.8zm-33-.7c-.4-.1-.7 0-.9.3-.7.7-1.2 1.6-1.6 2.5-1.3 2.6-2.4 5.3-2.9 8.2-.1.9-.4 1.8-.1 2.7.2-.6.3-1.2.5-1.9.6-3.3 1.9-6.4 3.5-9.2.4-1 1.1-1.7 1.5-2.6zm3.4 2.1c-1.2.7-1.9 1.9-2.5 3-1.9 3.4-3.4 6.9-4.3 10.6-.2.9-.5 1.9-.4 2.9.5-1.2.7-2.5 1.1-3.8 1-3.5 2.6-6.7 4.4-9.9.5-.9 1.4-1.7 1.7-2.8zm61.1 2.7c1.3-.5 2.7-.8 3.7-1.8-3.1 1.1-6.3 2-9.5 2.7 2.1.4 4-.4 5.8-.9zm-59.5 1.3c-1.3 1.9-2.4 4.1-3.4 6.2-1.2 2.7-2.4 5.4-3 8.3.4-.5.6-1.1.8-1.7 1.2-3.5 2.8-6.9 4.6-10.1 1-1.8 2.2-3.4 3.5-5-1.2.3-1.9 1.4-2.5 2.3zm55.3 3.1c.8 1.8 1 3.9 1.9 5.7-.3-1.9-.7-3.8-1.4-5.7-.1.1-.4 0-.5 0zm4.4 2.1c-.1-.8 0-1.8-.9-2.2.1 1.2.3 2.5.4 3.7.1 1 .1 2.1.4 3.1.4-1.5.2-3.1.1-4.6zm2.1 4c0 1.2-.2 2.3-.3 3.5.7-1.3.7-2.8.8-4.2.1-1.1.3-2.3-.1-3.4-.4 1.3-.4 2.7-.4 4.1zm-3.9 3.1c.2 1.1.3 2.2.6 3.2.2-1.8-.1-3.6-.5-5.3-.5.7-.3 1.4-.1 2.1zm-69.1 1.2c-.2.5-.4 1-.4 1.6 0 1.7.2 3.5.8 5.1 0-1.1-.3-2.3-.3-3.4-.1-1.1 0-2.2-.1-3.3zm70.8.7c.1.9.2 1.8.5 2.7v-2.7h-.5zm-68.2.6c-.6.7-.7 1.6-.7 2.5-.1 1.5-.1 3 .4 4.4v-3.4c0-1.2.3-2.3.3-3.5zm1.9 5.9c0-1 .2-1.9-.1-2.9-.4 1-.4 2.1-.3 3.1.1 1.2.1 2.4.4 3.5.1-1.2 0-2.5 0-3.7z" style="fill:#150f0c"/><path d="M104.9 75.1c3.4-.5 6.9-.2 10 1.3 1.3.6 2.5 1.6 3.3 2.7-1.7.4-3.5 0-5.2.1-3.8.1-7.8.3-11.4 1.9-1.3.5-2.3 1.5-3.6 1.8-.3-1.5-.4-3.3.6-4.6 1.5-1.9 3.9-2.8 6.3-3.2z" class="st2"/><path d="M126.2 74.9c.9.3 1.2 1.2 1.2 2.1 0 2.1-.9 4-1.7 5.9-.6 1.3-1.2 2.7-2.3 3.7 1.2-1.7 1.9-3.7 2.6-5.7.7-1.8 1.1-4 .2-6z" class="st9"/><path d="M65.4 77.5c3.6-1.1 7.6-1.5 11.4-.9 1.7.2 3.4.6 4.6 1.8 1.2 1.1 1.5 2.8 1.4 4.4-3.5-.2-6.9-1.2-10.4-1.6-3.3-.6-6.8-.7-10-1.8.9-.9 1.9-1.5 3-1.9z" class="st2"/><path d="M112.2 80c1.1-.6 2.5-.5 3.8-.5.9.1 1.8.1 2.5.6-2.1 0-4.2.1-6.3-.1z" style="fill:#503f38"/><path d="M61.8 80.4c1.5-.2 3.1.1 4.5.6-1.5.2-3.1 0-4.5-.6z" class="st11"/><path d="M50.8 81.7c-.1-.5.2-1 .4-1.4.1 1 .1 2 .4 3 .8 2.4 2.4 4.5 4.2 6.2-1.6-.9-2.7-2.3-3.6-3.8-.6-1.2-1.3-2.5-1.4-4z" class="st9"/><path d="M114.3 81.2c1.2-.7 2.7-.3 4 .1-1.3.1-2.7.1-4-.1zm-52.6.4c1.2-.3 2.4 0 3.6.4-1.2.1-2.5 0-3.6-.4z" class="st11"/><path d="M105.7 81.8c.5-.2 1.1 0 1.2.6.1 1-.1 2.5-1.3 2.8-.8-.2-.8-1.2-.7-1.8.1-.6.3-1.3.8-1.6zm-33.5 2.9c0-.9.1-2.1 1-2.6 1.1.5.7 1.7.8 2.6 0 .5-.1 1.4-.8 1.4-.7 0-.9-.9-1-1.4z" style="fill:#160e0b"/><path d="M104.6 86.3c1.7.1 3.3-.4 5-.5-1.1.8-2.4.9-3.6 1.1-1.3.2-2.7.2-4-.3.7-.6 1.7-.2 2.6-.3z" style="fill:#b75a35"/><path d="M69.6 86.1c1 .3 1.9.8 3 1 1.4.3 2.9.4 4.4.5-1.4.4-2.8.2-4.2.1-1.2-.2-2.6-.5-3.2-1.6z" style="fill:#bb6142"/><path d="M102.6 88.3c2-.4 4.1-.6 6.1-.9-1.2.8-2.7.9-4 1.2-.7.1-1.4 0-2.1-.3z" class="st15"/><path d="M69.9 88c2 .3 4 .6 6 .8-1.1.5-2.3.2-3.5.1-.9-.1-1.9-.3-2.5-.9z" style="fill:#b85d37"/><path d="M69.2 90.2c1.9.5 3.7 1.2 5.5 1.9-1.9-.3-4.1-.5-5.5-1.9z" class="st7"/><path d="M89.8 90.9c.2.4.3.9.3 1.4-.1 1.4-.2 2.9-.6 4.2-.3-1.9-.2-3.8.3-5.6z" style="fill:#feb38e"/><path d="M65.5 92c.7.6 1.2 1.4 1.8 2 1.4 1.4 2.9 2.7 4.4 3.9.4.3.7.8 1 1.2-1.2-.7-2.2-1.6-3.2-2.4-1.3-1.1-2.7-2.1-3.6-3.5-.3-.3-.4-.8-.4-1.2z" class="st9"/><path d="M105.2 95.3c1.4-1.4 3.4-2.1 5.2-2.9-.8 1-2 1.5-3 2.1-.7.4-1.4.7-2.2.8z" style="fill:#fbb48f"/><path d="M105.5 99.8c2.9-2.9 7.1-3.7 10.5-5.6-.6 1-1.8 1.3-2.7 1.8-1.8.8-3.6 1.8-5.3 2.8-.8.4-1.5 1-2.5 1z" class="st9"/><path d="M82.3 96.7c.2-.4.7-.7 1.1-.9-.4.8-.9 1.7-.5 2.7 1.2 0 2.4.3 3.4.8 1.4.7 2.9 1.6 4.5 1.4 1.8-.6 3.3-1.9 5.2-2 .1-.5.3-1 .3-1.5-.2-.5-.4-.9-.6-1.3.4.2.9.3 1.1.7.5.9-.1 1.9-.7 2.5-.9.5-1.9.7-2.7 1.2-1.1.6-2.2 1.4-3.6 1.2-1.8-.2-3.2-1.3-4.8-1.9-.8-.3-1.7-.4-2.5-.5-.3-.8-.6-1.7-.2-2.4z" style="fill:#b65b33"/><path d="M77.6 107.4c2.5-1.6 5.5-1.9 8.4-1.9 3.3.1 6.6.6 9.8 1.6 1.5.5 3 1.3 3.5 2.9-3-.8-6-1-9.1-1.3-2.5-.2-4.9.1-7.4-.2-2.1-.3-4.3.2-6.3.7.3-.6.4-1.4 1.1-1.8z" class="st5"/><path d="M76.5 109.2c2-.6 4.2-1 6.3-.7 2.4.3 4.9 0 7.4.2 3 .3 6.1.5 9.1 1.3l.4.4h-.3c-1.9 0-3.7-.4-5.5-.6-1.5-.1-2.9-.3-4.4-.4-1.4-.1-2.8.1-4.2.1-1.6 0-3.2-.3-4.8-.1-1.3.2-2.7.4-4 .4-.3-.1-.6-.2-.8-.3.3-.1.5-.2.8-.3z" style="fill:#a3343e"/><path d="M80.5 109.3c1.6-.2 3.2.1 4.8.1 1.4 0 2.8-.2 4.2-.1 1.5.1 2.9.2 4.4.4 1.8.2 3.7.6 5.5.6-.4.7-.8 1.3-1.6 1.5-2.1.8-4.4.9-6.7 1.1-3.7.2-7.5.2-11.1-.7-1.4-.4-2.9-1-3.5-2.4 1.3 0 2.7-.3 4-.5z" class="st5"/><path d="M85.4 110.5c1.5-.6 3.2-.4 4.7-.4-1.4.5-3.1.7-4.7.4z" style="fill:#fca784"/><path d="M61.8 113.5c1 .8 1.7 1.9 2.6 2.8 1.8 1.9 3.8 3.6 5.9 5.1 2.7 1.8 5.6 3.4 8.7 4.5 1.9.7 3.8 1.3 5.6 2 1.6.6 3.3 1.1 5 1.2 4.8-.3 9.1-2.7 13.2-5.1 2.5-1.5 4.7-3.3 7.1-4.9 2.2-1.6 4.1-3.6 6-5.5-1.2 1.6-2.4 3.3-4 4.6-1.3 1.2-2.9 2.2-4.3 3.3-1.8 1.3-3.6 2.5-5.5 3.5-2.7 1.5-5.4 3-8.3 3.9-2.6.7-5.3.9-7.9.1-4.5-1.5-9-2.9-13-5.4-2.2-1.2-4.3-2.7-6.1-4.4-1.9-1.8-3.8-3.5-5-5.7z" style="fill:#b65b36"/><path d="M84.7 117.8c.9-.8 2.1-.9 3.3-.8 1.4.1 2.9.4 4.1 1.1-1.2-.2-2.4-.5-3.7-.6-1.2 0-2.5.3-3.7.3z" class="st15"/><path d="M85.4 121.2c1-.9 2.4-.7 3.7-.7.6 0 1.2.3 1.7.7-1.8-.1-3.6 0-5.4 0z" style="fill:#fcb391"/><path d="M91.2 141.4c.7-2.6.7-5.4.9-8.1.3.2.7.3.7.7.2 2-.2 4-.6 5.9-.3 1.2-.5 2.6-1.5 3.5 0-.7.3-1.4.5-2z" style="fill:#b85a34"/><path d="M81.6 134c.1 0 .4.1.5.1-.1 3.1.4 6.1 1.2 9-.9-.7-1.1-1.8-1.3-2.8-.4-2-.9-4.2-.4-6.3z" style="fill:#b75a37"/><path d="M52.8 145.3c-.4-1.4-.3-3 .2-4.4.1 1.6-.1 3.2.5 4.7 1.1 2.7 3 5 5.2 6.8 1.6 1.3 3.4 2.5 5.2 3.6 2.6 1.8 5.6 3.1 8.2 4.8 2.4 1.7 4.8 3.4 7 5.3-1.8-.8-3.3-2.2-4.9-3.3-3.5-2.6-7.5-4.2-11-6.6-2.7-1.8-5.6-3.5-7.6-6.1-1.2-1.4-2.3-3-2.8-4.8z" class="st26"/><path d="M120.2 151.7c1.2-1.3 2.2-2.7 3.4-4-.2 1.3-1.2 2.3-1.9 3.3-2.8 3.6-6.5 6.5-10.4 8.7-1.8 1.1-3.8 1.8-5.8 2.5-2.8 1.1-5.7 2-8.5 3-1.5.6-3 1.2-4.3 2.3-.5.4-1 .8-1.6 1.1 1.3-2.1 3.6-3.1 5.8-4 4.3-1.6 8.7-2.9 12.8-4.9 3.8-2 7.4-4.7 10.5-8z" style="fill:#783f76"/><path d="M53.3 153.4c-.9-1.4-2-2.7-2.3-4.4.7 1.6 1.8 3 2.9 4.3 2 2.4 4.6 4.3 7.1 6.1 3.4 2.2 7.1 4.1 10.5 6.2 1.8 1.1 3.8 1.8 5.1 3.5-2.4-1.8-5.3-2.9-7.9-4.4-3.4-1.9-7-3.6-10.1-6.1-1.9-1.5-3.9-3.1-5.3-5.2z" class="st26"/><path d="M124 151.6c.5-.6.9-1.3 1.5-1.8 0 .8-.4 1.4-.8 2-3.1 4.6-7.7 7.8-12.6 10.2-2.8 1.5-5.7 2.8-8.7 3.8-1.9.6-3.8 1.2-5.7 1.9 1.9-1.3 4.2-1.7 6.3-2.6 3.8-1.3 7.5-3.2 11-5.2 3.3-2.2 6.6-4.9 9-8.3z" class="st28"/><path d="M75.9 211.5h.5c-.2-1.9 0-3.7-.2-5.6-.4-4.4-.2-8.8-.1-13.3.2-6 .4-12 1.3-18 .4-3.2 2.1-6.2 4-8.7 1.1-1.4 2.4-2.5 3.6-3.7-3 1.7-5.1 4.7-6.7 7.8-1.2 2.2-1.5 4.8-1.8 7.2-.9 7.2-.8 14.5-1 21.8 0 3 .1 5.9.3 8.8 0 1.2 0 2.5.1 3.7z" style="fill:#7b437a"/><path d="M84.8 174.3c.8 0 1.6.1 2.3.3 1.4.8.9 3.3-.7 3.7-1.1.3-2.5-.1-3-1.2-.2-1.1.5-2.3 1.4-2.8z" class="st26"/><path d="M83.9 176.9c-.2-1.1.6-2 1.4-2.6v.4c.6.1 1.5.1 1.8.7.4.9-.1 2.1-1.1 2.3-.7.3-1.7 0-2.1-.8z" class="st30"/><path d="M22.3 178c1.5 1.5 2.6 3.3 3.7 5.1 2.6 4.4 4.3 9.2 5.6 14.1.8 3.4 1.3 6.8 1.7 10.3.1 1.3.1 2.6.1 3.8-.4-6.4-1.7-12.7-3.8-18.8-1.2-3.6-2.8-7.1-4.8-10.4-.8-1.3-1.9-2.6-2.5-4.1z" style="fill:#784279"/><path d="M33.8 195.7c1.1 4.5 1.7 9 2.3 13.6.1.7.2 1.5.2 2.2h.3c0-2.3-.3-4.6-.8-6.8-.8-5.7-1.9-11.3-3.6-16.8-.9-3-1.8-6-3.2-8.8.4 2 1.2 3.8 1.7 5.7 1.2 3.6 2.3 7.2 3.1 10.9z" style="fill:#7b457a"/><path d="M143.4 209.8c-.1.6-.3 1.1-.5 1.7h.4c.2-.5.3-1.1.4-1.6.7-1.9.9-3.9 1.2-5.9.4-2.3.5-4.6.4-6.9-.2-2.8-.3-5.6-.9-8.3-.4 1.4-.1 2.8 0 4.2.1 3.3.6 6.5.2 9.8-.3 2.2-.5 4.7-1.2 7z" style="fill:#774075"/><path d="M148.2 201.3c.2-1.4.3-2.8.7-4.2.4 1.8.1 3.7-.1 5.5-.4 2.5-1 5-1.8 7.4-.1.5-.5.8-.8 1.1.8-3.3 1.5-6.5 2-9.8z" style="fill:#773f73"/><path d="M85.1 201c1.7-.5 2.9 1.7 2.1 3.1-.7 1.4-2.8 1.7-3.8.5-1.3-1.3-.1-3.7 1.7-3.6z" class="st28"/><path d="M83.5 202.2c.8-.3 1.6-.9 2.4-.6 1 .4 1.2 1.9.4 2.6-.7.8-2.2.7-2.8-.3-.3-.5-.1-1.2 0-1.7z" class="st30"/></g></svg>