<svg id="b0fa4ccd-bd8c-4f9b-80eb-16a08781084f" data-name="Layer 1" xmlns="http://www.w3.org/2000/svg" viewBox="0 0 100 100"><title>airbnb</title><path d="M72.1,60.3c-.2-.6-.5-1.2-.7-1.8-.4-.9-.8-1.7-1.1-2.5h0c-3.4-7.3-7-14.8-10.8-22.1l-.1-.3c-.4-.7-.8-1.5-1.2-2.3a14.09,14.09,0,0,0-1.8-2.7,7.76,7.76,0,0,0-6.2-3,8.68,8.68,0,0,0-6.3,2.9,21.11,21.11,0,0,0-1.8,2.7c-.4.8-.8,1.6-1.2,2.3l-.1.3C37,41.1,33.4,48.6,30,55.9V56c-.3.8-.7,1.6-1.1,2.5a17.08,17.08,0,0,0-.7,1.8,12.08,12.08,0,0,0-.6,5.3A10.29,10.29,0,0,0,34,73.7a11,11,0,0,0,4,.8,5.7,5.7,0,0,0,1.3-.1,12,12,0,0,0,4.9-1.7,24.2,24.2,0,0,0,6.1-5.1,26.55,26.55,0,0,0,6.1,5.1,13.67,13.67,0,0,0,4.9,1.7c.4,0,.9.1,1.3.1a9.24,9.24,0,0,0,4-.8A10.64,10.64,0,0,0,73,65.6,19.63,19.63,0,0,0,72.1,60.3ZM50,62.8c-2.6-3.3-4.4-6.5-4.9-9.1a7.69,7.69,0,0,1-.1-3,4.85,4.85,0,0,1,.8-2.1,5.25,5.25,0,0,1,4.3-2.2,5,5,0,0,1,4.3,2.2,4.85,4.85,0,0,1,.8,2.1,10.27,10.27,0,0,1-.1,3A27.49,27.49,0,0,1,50,62.8Zm19.5,2.3a7.38,7.38,0,0,1-4.4,5.7,7.76,7.76,0,0,1-3.7.5A8.26,8.26,0,0,1,57.7,70a24.41,24.41,0,0,1-5.6-4.7c3.2-4,5.2-7.6,5.9-10.8a12.1,12.1,0,0,0,.2-4.2A7.89,7.89,0,0,0,56.9,47a8.55,8.55,0,0,0-13.8,0,7.89,7.89,0,0,0-1.3,3.3,12.1,12.1,0,0,0,.2,4.2c.7,3.2,2.7,6.9,5.9,10.9a20.5,20.5,0,0,1-5.6,4.7,11.74,11.74,0,0,1-3.7,1.3,7.59,7.59,0,0,1-3.7-.5,7.18,7.18,0,0,1-4.4-5.7,10.28,10.28,0,0,1,.4-3.8,16.59,16.59,0,0,1,.6-1.6,25.57,25.57,0,0,1,1.1-2.4v-.1c3.4-7.3,7-14.7,10.8-22l.1-.3c.4-.7.8-1.5,1.2-2.2a10.23,10.23,0,0,1,1.4-2.2,5.13,5.13,0,0,1,7.8,0,11.84,11.84,0,0,1,1.4,2.2c.4.7.8,1.5,1.2,2.2l.1.3c3.7,7.3,7.3,14.7,10.7,22h0c.4.8.7,1.7,1.1,2.4a16.59,16.59,0,0,1,.6,1.6A6.41,6.41,0,0,1,69.5,65.1Z" fill="#ff5a5f"/></svg>