<svg id="fa84d0eb-cb07-4f1f-aef6-6d3fc59c0478" data-name="Layer 1" xmlns="http://www.w3.org/2000/svg" viewBox="0 0 100 100"><title>amazon</title><path d="M67.36,65.33c-19.58,9.31-31.73,1.52-39.5-3.21-.48-.3-1.3.06-.59.88,2.59,3.14,11.08,10.71,22.16,10.71s17.69-6,18.51-7.1.24-1.63-.58-1.28Zm5.49-3c-.52-.68-3.19-.81-4.87-.6s-4.21,1.23-4,1.84c.11.23.34.13,1.5,0s4.4-.53,5.08.36-1,5.13-1.35,5.82.12.86.69.4a8.85,8.85,0,0,0,2.25-3.31c.68-1.67,1.09-4,.69-4.54Z" fill="#f90"/><path d="M54.19,46.32c0,2.44.07,4.48-1.17,6.65a5.08,5.08,0,0,1-4.34,2.85c-2.41,0-3.81-1.83-3.81-4.54,0-5.35,4.79-6.32,9.32-6.32Zm6.33,15.29a1.3,1.3,0,0,1-1.48.15,15.54,15.54,0,0,1-3.6-4.18C52,61.09,49.56,62.14,45.1,62.14c-5.28,0-9.39-3.26-9.39-9.78A10.65,10.65,0,0,1,42.4,42.11c3.4-1.5,8.16-1.77,11.79-2.18v-.81c0-1.49.12-3.26-.75-4.55a4.23,4.23,0,0,0-3.53-1.63,4.78,4.78,0,0,0-5,3.77,1.33,1.33,0,0,1-1.09,1.15l-6.09-.66a1.11,1.11,0,0,1-.93-1.31c1.4-7.38,8.06-9.6,14-9.6,3.05,0,7,.81,9.45,3.12,3,2.85,2.76,6.65,2.76,10.79V50c0,2.94,1.22,4.23,2.37,5.82a1.18,1.18,0,0,1,0,1.66c-1.28,1.07-3.56,3.06-4.81,4.17l0,0" fill-rule="evenodd"/><path d="M67.36,65.33c-19.58,9.31-31.73,1.52-39.5-3.21-.48-.3-1.3.06-.59.88,2.59,3.14,11.08,10.71,22.16,10.71s17.69-6,18.51-7.1.24-1.63-.58-1.28Zm5.49-3c-.52-.68-3.19-.81-4.87-.6s-4.21,1.23-4,1.84c.11.23.34.13,1.5,0s4.4-.53,5.08.36-1,5.13-1.35,5.82.12.86.69.4a8.85,8.85,0,0,0,2.25-3.31c.68-1.67,1.09-4,.69-4.54Z" fill="#f90"/><path d="M54.19,46.32c0,2.44.07,4.48-1.17,6.65a5.08,5.08,0,0,1-4.34,2.85c-2.41,0-3.81-1.83-3.81-4.54,0-5.35,4.79-6.32,9.32-6.32Zm6.33,15.29a1.3,1.3,0,0,1-1.48.15,15.54,15.54,0,0,1-3.6-4.18C52,61.09,49.56,62.14,45.1,62.14c-5.28,0-9.39-3.26-9.39-9.78A10.65,10.65,0,0,1,42.4,42.11c3.4-1.5,8.16-1.77,11.79-2.18v-.81c0-1.49.12-3.26-.75-4.55a4.23,4.23,0,0,0-3.53-1.63,4.78,4.78,0,0,0-5,3.77,1.33,1.33,0,0,1-1.09,1.15l-6.09-.66a1.11,1.11,0,0,1-.93-1.31c1.4-7.38,8.06-9.6,14-9.6,3.05,0,7,.81,9.45,3.12,3,2.85,2.76,6.65,2.76,10.79V50c0,2.94,1.22,4.23,2.37,5.82a1.18,1.18,0,0,1,0,1.66c-1.28,1.07-3.56,3.06-4.81,4.17l0,0" fill="#f90" fill-rule="evenodd"/></svg>