<svg id="ab1a6651-aa93-409c-96a5-89d641a3e2d4" data-name="Layer 1" xmlns="http://www.w3.org/2000/svg" viewBox="0 0 100 100"><title>apple</title><path d="M64,47.93c0-4.06,1.81-7.12,5.52-9.37-2.07-3-5.21-4.6-9.35-4.92-3.92-.31-8.21,2.28-9.78,2.28s-5.45-2.17-8.43-2.17c-6.17.1-12.72,4.91-12.72,14.71a27.58,27.58,0,0,0,1.59,9c1.42,4,6.52,14,11.84,13.82,2.79-.06,4.75-2,8.38-2s5.33,2,8.43,2c5.37-.07,10-9.11,11.34-13.17C63.58,54.69,64,48.14,64,47.93ZM57.72,29.79a10.36,10.36,0,0,0,2.65-8,11.71,11.71,0,0,0-7.5,3.85A10.59,10.59,0,0,0,50,33.58C52.93,33.8,55.56,32.32,57.72,29.79Z"/></svg>