<svg id="a9c498ce-f5ff-4262-94c6-3f30f6adc559" data-name="Layer 1" xmlns="http://www.w3.org/2000/svg" viewBox="0 0 100 100"><title>att</title><path d="M38.74,28.38a35.85,35.85,0,0,1,5.29-.5,46.26,46.26,0,0,1,6.26.5h11a24.26,24.26,0,0,0-22.59,0ZM67,32.57H58.79c-3.19,0-10-.56-12.84-.56H38.23a47.82,47.82,0,0,0-5.3.56,20.5,20.5,0,0,1,2.49-2.14,23.67,23.67,0,0,0,4.09.45h6.84c2.56,0,8.26-1.09,10.18-1.09h7.16A23.43,23.43,0,0,1,67,32.57Zm3.47,4.18H60.12c-2.16,0-8.9-.71-11.41-.71H34.93a40.86,40.86,0,0,0-5.42.71,16.09,16.09,0,0,1,1.73-2.28,28.62,28.62,0,0,0,4,.34H48.71c3.25,0,8.61-.84,10.63-.84h9.07a23.56,23.56,0,0,1,2.1,2.78ZM27.34,40.88a17.87,17.87,0,0,1,1.32-2.33,30.88,30.88,0,0,0,4.4.5H51.42c2.16,0,8-.95,9.45-.95H71.36a21.89,21.89,0,0,1,1.31,2.77H61.45c-2,0-7.13-.65-9.93-.65H32.86a37.41,37.41,0,0,0-5.52.65Zm-1.26,4.24a50.26,50.26,0,0,1,5.8-.81H51.47c1.77,0,9.1.81,11.36.81H73.92a24.17,24.17,0,0,0-.73-2.78H62.34c-2.46,0-8.81.64-11,.64H32a35.1,35.1,0,0,1-5.2-.64,22.37,22.37,0,0,0-.75,2.78ZM25.6,49.3s5-.9,6.62-.9H50.33c2.76,0,10.29.9,12.55.9H74.39a23.52,23.52,0,0,0-.24-2.78H62.39c-2.31,0-9,.6-12.06.6H32.67a66.35,66.35,0,0,1-6.84-.6,23.5,23.5,0,0,0-.23,2.78Zm0,1.4s7.36.65,9.53.65H48c3.05,0,11.12-.65,13.24-.65H74.4a21.58,21.58,0,0,1-.24,2.78H61.21c-2.56,0-10.24-.95-13.34-.95H35.37c-2.26,0-9.52.95-9.52.95a23,23,0,0,1-.25-2.78Zm1.23,7a24.94,24.94,0,0,1-.74-2.79s8.92.72,15.09.72c6.71,0,12.76-.71,15.5-.71H73.92a24.22,24.22,0,0,1-.74,2.78H56.6c-4.84,0-9.78-.73-16-.73-5.88,0-13.81.73-13.81.73Zm45.84,1.4a23.42,23.42,0,0,1-1.32,2.77H28.67a26.37,26.37,0,0,1-1.34-2.78Zm-2.16,4.18h-41A22.76,22.76,0,0,0,31.61,66h36.8A25,25,0,0,0,70.51,63.25Zm-6.8,7H36.33a25.29,25.29,0,0,1-3.4-2.78H67.08a25,25,0,0,1-3.37,2.78Zm-2.36,1.4a24.42,24.42,0,0,1-22.67,0Z" fill="#109bd6" fill-rule="evenodd"/></svg>