<svg id="af9a62a7-6b98-4f25-b0bf-f8a3d148ab3e" data-name="Layer 1" xmlns="http://www.w3.org/2000/svg" viewBox="0 0 100 100"><title>bank-of-america-full</title><path d="M38.67,37.18c3,1.15,5.93,2.39,8.82,3.79A186.59,186.59,0,0,0,20.78,54.25c-2.89-1.49-5.86-3-8.82-4.29A188.59,188.59,0,0,1,38.67,37.18Zm-11-3.87A160.08,160.08,0,0,0,0,45.09c2.8,1.08,5.61,2.15,8.33,3.3A152.66,152.66,0,0,1,35.12,35.86C32.65,35,30.17,34.05,27.62,33.31Z" fill="#2267ad" fill-rule="evenodd"/><path d="M58.7,36.77a171.26,171.26,0,0,0-23.41-9.15c-2.89.82-5.69,1.73-8.41,2.64A167.22,167.22,0,0,1,51,39.57c2.56-1,5.11-1.89,7.75-2.8ZM71,33.14a170.74,170.74,0,0,0-23.82-8.41c-2.64.5-5.2,1.07-7.75,1.73a159.47,159.47,0,0,1,23.58,9c2.63-.83,5.35-1.65,8-2.31Zm19.79,6.6A207.58,207.58,0,0,0,36.85,67.19c4.12,2.55,8.08,5.19,11.95,8.08A218.91,218.91,0,0,1,100,45q-4.52-2.8-9.23-5.27ZM77.41,33.47A186.26,186.26,0,0,0,21.35,58.7c3.79,1.89,7.59,3.87,11.3,6A196.38,196.38,0,0,1,87.72,38.17c-3.38-1.65-6.76-3.3-10.31-4.7Z" fill="#cd2e29" fill-rule="evenodd"/></svg>