<svg id="b3bd69aa-b7e8-4250-a581-a53a1b6a6b9a" data-name="Layer 1" xmlns="http://www.w3.org/2000/svg" viewBox="0 0 100 100"><title>bank-of-america</title><path d="M42.62,41.65c1.93.75,3.86,1.56,5.74,2.47A124,124,0,0,0,31,52.76c-1.88-1-3.81-1.93-5.74-2.79A123.27,123.27,0,0,1,42.62,41.65Zm-7.19-2.52a104,104,0,0,0-18,7.68c1.82.69,3.65,1.39,5.42,2.14A98.49,98.49,0,0,1,40.31,40.8C38.7,40.2,37.09,39.61,35.43,39.13Z" fill="#2267ad" fill-rule="evenodd"/><path d="M55.66,41.39a111.16,111.16,0,0,0-15.24-6c-1.88.53-3.7,1.12-5.48,1.71a109.54,109.54,0,0,1,15.68,6.07c1.66-.64,3.33-1.23,5-1.82Zm8-2.37a111,111,0,0,0-15.51-5.47c-1.72.32-3.38.7-5,1.13a101.94,101.94,0,0,1,15.35,5.85c1.72-.54,3.49-1.08,5.21-1.51Zm12.88,4.3a135.27,135.27,0,0,0-35.1,17.87c2.68,1.67,5.26,3.38,7.78,5.26a142.64,142.64,0,0,1,33.33-19.7c-2-1.21-4-2.36-6-3.43Zm-8.69-4.08a121.17,121.17,0,0,0-36.5,16.42c2.47,1.24,4.94,2.53,7.35,3.92A128.12,128.12,0,0,1,74.56,42.3c-2.2-1.08-4.41-2.15-6.71-3.06Z" fill="#cd2e29" fill-rule="evenodd"/></svg>