<svg id="f1c4c209-20d5-4641-bfcb-f1ff45064334" data-name="Layer 1" xmlns="http://www.w3.org/2000/svg" viewBox="0 0 100 100"><title>eurasian</title><path d="M44.84,41.8c1.06.35,2,.58,3,.94s1.06.35,1.29,1.52a29.29,29.29,0,0,1,.59,3.05v0c1-4.69.35-4,4.92-5.39a31.34,31.34,0,0,1-9.85-.12Zm13,4.45-1.41-2.81c.12,1.87,1.18,4.22-1,4.69l-4.1,1.4c1.76-.12,3.4-.58,4.1-.23s.35,1.29.12,1.87l-3.64,8.32c2.35-4.22,4.34-7.38,7.15-10.19,1.17-1.06,2.58-1.88,4.1-3-1.29.23-1.52.35-2.81.59-.7.35-2.11.23-2.46-.59ZM39.92,41.33a32.54,32.54,0,0,0,3.4.23,16.3,16.3,0,0,1-5.86-2.11c.12.36.35.71.47,1.06s.24.35,0,.7c-.47.94-1,1.88-1.52,2.81l2.34-2.34C39.22,41.21,39.22,41.21,39.92,41.33Zm4.69,8.08c.7-.46,2.34,0,4.1.24l-4.1-1.52c-2.23-.47-1.17-2.82-1-4.69l-1.41,2.81c-.35.82-1.76.94-2.58.82-1.29-.23-1.52-.35-2.81-.59a43.29,43.29,0,0,1,4.1,3.05c2.93,2.7,4.92,6,7.15,10.2l-3.63-8.32c-.12-.71-.71-1.53.23-2Zm17.22-9a3.3,3.3,0,0,1,.47-.82,16,16,0,0,1-5.86,2.11c1.06-.12,1.64-.12,2.7-.23a1.84,1.84,0,0,1,1.76.35l2.46,2.46c-.47-.94-.94-1.76-1.41-2.7-.47-.7-.47-.58-.12-1.17Z" fill="#ff006e" fill-rule="evenodd"/><path d="M49.88,25.86c-7.73,0-24,.94-24.72,11.49.59,13.24,10.08,29.52,21.68,36.2a8.76,8.76,0,0,0,6.32,0c11.6-6.68,21.09-23,21.68-36.2C74,26.57,57.85,25.86,49.88,25.86ZM64.41,47.19C59.26,52.93,55.16,57.38,49.88,63v.11h-.11l-14.65-16c-1.17-1.29-2.23-2.93-1.06-4.33s2-2.47,3.17-3.87l7.85-2h9.61l7.73,2,3.16,3.87c1.53,1.75.47,2.69-1.17,4.45Z" fill="#ff006e" fill-rule="evenodd"/></svg>