<svg id="a5824e73-7d07-435e-9e4d-ae04f72a3a5c" data-name="Layer 1" xmlns="http://www.w3.org/2000/svg" viewBox="0 0 100 100"><title>eurasian-full</title><path d="M39.59,33.44c2.13.71,4,1.19,6.15,1.9,2.37.71,2.13.71,2.6,3.07a55.55,55.55,0,0,1,1.19,6.15v0c2.13-9.46.71-8,9.93-10.88a62,62,0,0,1-19.87-.24Zm26.26,9L63,36.76c.23,3.78,2.36,8.51-2.13,9.46L52.6,49.05c3.55-.23,6.86-1.18,8.28-.47,1.66,1,.71,2.6.24,3.79L53.78,69.16c4.73-8.52,8.76-14.9,14.43-20.58,2.37-2.13,5.2-3.78,8.28-6.15-2.6.47-3.08.71-5.68,1.18-1.42.71-4.25.48-5-1.18ZM29.66,32.5a68.73,68.73,0,0,0,6.86.47C32,32,27.77,30.84,24.69,28.71c.24.71.71,1.42.95,2.13.47.71.47.71,0,1.42-.95,1.89-2.13,3.79-3.08,5.68l4.73-4.73C28.24,32.26,28.24,32.26,29.66,32.5Zm9.46,16.32c1.42-1,4.73,0,8.28.47l-8.28-3.07c-4.49-.95-2.36-5.68-2.13-9.46l-2.84,5.67c-.71,1.66-3.54,1.89-5.2,1.66-2.6-.48-3.07-.71-5.68-1.19,3.08,2.37,5.92,3.79,8.28,6.15C37.46,54.49,41.49,61.12,46,69.63L38.65,52.84c-.24-1.42-1.42-3.08.47-4ZM73.89,30.61A5.7,5.7,0,0,1,74.83,29c-3.31,2.37-7.56,3.31-11.82,4.26,2.13-.24,3.31-.24,5.44-.48,1.42-.23,2.6-.23,3.55.71l5,5C76,36.52,75.07,34.86,74.12,33c-.94-1.42-.94-1.18-.23-2.36Z" fill="#ff006e" fill-rule="evenodd"/><path d="M49.76,1.28C34.15,1.28,1.28,3.17-.14,24.46,1,51.18,20.2,84.06,43.61,97.54A20.29,20.29,0,0,0,50,98.72a20.29,20.29,0,0,0,6.39-1.18C79.8,84.06,99,51.18,100.14,24.46,98.49,2.7,65.85,1.28,49.76,1.28Zm29.33,43C68.68,55.91,60.41,64.9,49.76,76.25v.24h-.23L20,44.09c-2.36-2.6-4.49-5.92-2.13-8.75s4-5,6.39-7.81l15.85-4H59.46l15.61,4,6.39,7.81c3.07,3.54.94,5.44-2.37,9Z" fill="#ff006e" fill-rule="evenodd"/></svg>