<svg id="a04d8ab6-542b-46a4-9612-afee925a6678" data-name="Layer 1" xmlns="http://www.w3.org/2000/svg" viewBox="0 0 100 100"><title>freshbooks-full</title><rect width="100" height="100" fill="#fff"/><rect width="100" height="100" fill="#0075dd"/><path d="M48.19,27.32H72.81a0,0,0,0,1,0,0V51.38a21,21,0,0,1-21,21H27.19a0,0,0,0,1,0,0V48.32a21,21,0,0,1,21-21Z" fill="#fff"/><path d="M46.17,25.59A20.59,20.59,0,0,0,25.59,46.17h0V74.4H53.82A20.6,20.6,0,0,0,74.41,53.83V25.6H46.17ZM62.86,34a6.72,6.72,0,0,1-5.36,6.56,5.67,5.67,0,0,1-1.24.11H49v5.72h9.68v6.69H49.06V66.86H41.13V32.25H49v6.21h0a6.68,6.68,0,0,1,6.67-6.21h7.19Z" fill="#0075dd"/></svg>