<svg id="a7fdf4e3-8cf4-44aa-bd5f-2e7b667ca5f4" data-name="Layer 1" xmlns="http://www.w3.org/2000/svg" viewBox="0 0 100 100"><title>freshbooks</title><path d="M46.59,25.59H74.41a0,0,0,0,1,0,0V53.41a21,21,0,0,1-21,21H25.59a0,0,0,0,1,0,0V46.59A21,21,0,0,1,46.59,25.59Z" fill="#fff"/><path d="M46.17,25.59A20.59,20.59,0,0,0,25.59,46.17h0V74.4H53.82A20.6,20.6,0,0,0,74.41,53.83V25.6H46.17ZM62.86,34a6.72,6.72,0,0,1-5.36,6.56,5.67,5.67,0,0,1-1.24.11H49v5.72h9.68v6.69H49.06V66.86H41.13V32.25H49v6.21h0a6.68,6.68,0,0,1,6.67-6.21h7.19Z" fill="#0075dd"/></svg>