<svg id="b055f61c-2503-4e83-b590-80c17c0c7beb" data-name="Layer 1" xmlns="http://www.w3.org/2000/svg" viewBox="0 0 100 100"><title>gitlab</title><path d="M50,74.2l9.7-29.8H40.3L50,74.2Z" fill="#e24329"/><path d="M50,74.2,40.3,44.4H26.8Z" fill="#fc6d26"/><path d="M26.8,44.4l-2.9,9.1a1.9,1.9,0,0,0,.7,2.2L50,74.2,26.8,44.4Z" fill="#fca326"/><path d="M26.8,44.4H40.4L34.6,26.5a1,1,0,0,0-1.9,0L26.8,44.4Z" fill="#e24329"/><path d="M50,74.2l9.7-29.8H73.3L50,74.2Z" fill="#fc6d26"/><path d="M73.2,44.4l2.9,9.1a1.9,1.9,0,0,1-.7,2.2L50,74.2,73.2,44.4Z" fill="#fca326"/><path d="M73.2,44.4H59.7l5.8-17.9a1,1,0,0,1,1.9,0l5.8,17.9Z" fill="#e24329"/></svg>