<svg id="b06ea8b8-d151-4761-8dce-14c2c08d5800" data-name="Layer 1" xmlns="http://www.w3.org/2000/svg" viewBox="0 0 100 100"><title>google</title><path d="M73.4,50.53a20.2,20.2,0,0,0-.51-4.88H50.48v8.86H63.63a11.6,11.6,0,0,1-4.88,7.74l0,.3L65.8,68l.49,0C70.8,63.93,73.4,57.8,73.4,50.53" fill="#4285f4"/><path d="M50.48,73.87a22.78,22.78,0,0,0,15.81-5.78l-7.54-5.84a14.08,14.08,0,0,1-8.27,2.39A14.36,14.36,0,0,1,36.9,54.72l-.28,0-7.37,5.7-.1.27A23.87,23.87,0,0,0,50.48,73.87" fill="#34a853"/><path d="M36.9,54.72A14.52,14.52,0,0,1,36.1,50a15.35,15.35,0,0,1,.77-4.72V45L29.4,39.17l-.25.11a23.81,23.81,0,0,0,0,21.44l7.75-6" fill="#fbbc05"/><path d="M50.48,35.36a13.24,13.24,0,0,1,9.23,3.55l6.74-6.58a23,23,0,0,0-16-6.2A23.87,23.87,0,0,0,29.15,39.28l7.72,6a14.42,14.42,0,0,1,13.61-9.92" fill="#eb4335"/></svg>