<svg id="bdf3e50e-fe83-4aae-ba74-3e8abfad40e9" data-name="Layer 1" xmlns="http://www.w3.org/2000/svg" viewBox="0 0 100 100"><title>kaspi</title><path d="M36.23,69.71c2.52-10.49-.48-10.84-.48-15.93,0-1.7,1.34-5.75,1.53-7.73.46-4.53-.66-3.32,2.65-6.68l.19-4.66c1.66-1.6,2.5-3,4.53-2.53,1.24,3.68-1.11,2.53-1.33,6.83,1.38,1.84,2.31,2,3.35,4.34,1.32,2.93.38,2.9,2.87,5.36,3.67.42,5.89.44,8.51-2.2.28-2.82-1.35-2.58.31-5.17,1.14-1.77,2.27-2.74,4.4-2,.71,2.77-2.44,3.34-1.46,6.42,4.22.43,5.2-5.39,8.43-5.69,0,6.22-6.49,7-6.64,12.08C63,55.3,65.8,64,68.63,65.86c2.5-3.83,5.19-8,5.5-12.63,2.16-31.6-39.63-37.35-47.57-9.69a22.1,22.1,0,0,0-.77,4.29V51.5c.7,9.09,6.31,17.08,10.44,18.21Z" fill="#ef4635"/><path d="M48.45,74c11.3,1.33,10.11-2.16,7.88-15-.89-5.07-1.91-7.74-7.93-7.27-3.75,4.45-1.86,13.12-1.73,16.92C46.77,71.58,46.27,71.78,48.45,74Zm13-3.1c1.89-.23,2.22-.62,3.75-1.84.25-2.6-1.53-6.77-4.3-7.6C59.59,63.92,60,68.39,61.44,70.85ZM42.83,73c0-3.16.39-9.7-1.24-12-2.17.64-1.5,2.49-1.52,6.46C40.06,70.41,39.52,72.71,42.83,73Z" fill="#ef4635"/></svg>