<svg id="b241fe22-dc67-4a7d-8a11-f450449e07e0" data-name="Layer 1" xmlns="http://www.w3.org/2000/svg" viewBox="0 0 100 100"><title>kaspi-full</title><path d="M21.55,90.7c5.22-21.65-1-22.39-1-32.89,0-3.5,2.76-11.89,3.16-16,.94-9.36-1.38-6.87,5.46-13.8l.4-9.63C33,15.12,34.75,12.16,39,13.2c2.56,7.61-2.29,5.22-2.76,14.11,2.86,3.8,4.78,4.17,6.93,9,2.73,6.06.78,6,5.93,11.08,7.57.87,12.15.91,17.57-4.55.57-5.82-2.79-5.32.64-10.67C69.63,28.45,72,26.46,76.36,28c1.45,5.72-5,6.9-3,13.26,8.72.87,10.74-11.14,17.4-11.75C90.73,42.29,77.34,44,77,54.41c-.2,6.53,5.59,24.5,11.45,28.34,5.15-7.91,10.7-16.53,11.34-26.09C104.3-8.58,18-20.46,1.59,36.66A44.68,44.68,0,0,0,0,45.52v7.57C1.46,71.88,13,88.37,21.55,90.7Z" fill="#ef4635"/><path d="M46.8,99.45c23.33,2.76,20.87-4.44,16.26-31-1.82-10.47-3.94-16-16.36-15-7.74,9.19-3.84,27.1-3.57,34.94C43.33,94.57,42.29,95,46.8,99.45Zm26.83-6.4c3.91-.47,4.58-1.28,7.75-3.8.5-5.35-3.17-14-8.89-15.69C69.79,78.75,70.57,88,73.63,93.05ZM35.19,97.5c0-6.53.81-20-2.56-24.68-4.48,1.31-3.1,5.15-3.13,13.33C29.46,92.14,28.35,96.89,35.19,97.5Z" fill="#ef4635"/></svg>