<svg id="af029a1f-4c15-4320-9d29-8641442767ad" data-name="Layer 1" xmlns="http://www.w3.org/2000/svg" viewBox="0 0 100 100"><title>monday</title><path d="M49.91,65a6.18,6.18,0,0,1-5.13-9.48C47.85,50.62,51,45.71,54,40.78c.63-1,1.24-2,1.9-3a6.19,6.19,0,0,1,8.42-1.92,6.11,6.11,0,0,1,2.06,8.45q-5.54,9-11.24,18A5.93,5.93,0,0,1,49.91,65Z" fill="#ffcb00"/><path d="M30.71,65a5.89,5.89,0,0,1-5.25-3.13,6,6,0,0,1,.18-6.39q5-7.94,9.93-15.84c.42-.68.84-1.38,1.29-2a6.19,6.19,0,0,1,10.4,6.7q-5.53,8.92-11.16,17.8A6,6,0,0,1,30.71,65Z" fill="#ff3d57"/><path d="M69.23,53A6,6,0,1,1,63,59a6.11,6.11,0,0,1,6.24-6Z" fill="#00d647"/></svg>