<svg id="ed0b8be2-8c26-4b72-a68a-de69a11358bd" data-name="Layer 1" xmlns="http://www.w3.org/2000/svg" viewBox="0 0 100 100"><title>paypal-full</title><rect width="100" height="100" fill="#fff"/><rect width="100" height="100" fill="#e9ecf4"/><path d="M41.25,72.29,42.08,67l-1.85,0H31.41l6.13-38.85a.51.51,0,0,1,.5-.42H52.9c4.94,0,8.35,1,10.12,3.05a7,7,0,0,1,1.63,3,11.23,11.23,0,0,1,0,4.19l0,.12v1.08l.83.47A5.76,5.76,0,0,1,67.16,41,6,6,0,0,1,68.53,44a13,13,0,0,1-.2,4.45,15.65,15.65,0,0,1-1.82,5.05,10.67,10.67,0,0,1-2.89,3.17,11.88,11.88,0,0,1-3.9,1.75,19.15,19.15,0,0,1-4.87.57H53.69a3.48,3.48,0,0,0-3.44,2.93l-.08.48L48.7,71.7l-.06.34a.29.29,0,0,1-.1.2.25.25,0,0,1-.15.05Z" fill="#253b80"/><path d="M66.26,38.24q-.06.42-.15.87c-2,10.07-8.67,13.54-17.24,13.54H44.51a2.12,2.12,0,0,0-2.09,1.8L40.19,68.61l-.64,4a1.13,1.13,0,0,0,.93,1.28h7.91a1.85,1.85,0,0,0,1.84-1.57l.08-.39,1.45-9.24.1-.51a1.85,1.85,0,0,1,1.83-1.57h1.16c7.5,0,13.36-3,15.08-11.85.71-3.68.34-6.75-1.55-8.91a7.33,7.33,0,0,0-2.12-1.63Z" fill="#179bd7"/><path d="M64.21,37.42A15.48,15.48,0,0,0,62.3,37a23.47,23.47,0,0,0-3.84-.28H46.81A1.85,1.85,0,0,0,45,38.29L42.49,54l-.07.46a2.12,2.12,0,0,1,2.09-1.8h4.36c8.57,0,15.28-3.48,17.24-13.54q.09-.45.15-.87a10.78,10.78,0,0,0-1.61-.68l-.44-.14Z" fill="#222d65"/><path d="M45,38.29a1.85,1.85,0,0,1,1.84-1.57H58.46A24.13,24.13,0,0,1,62.3,37a14.61,14.61,0,0,1,2.35.56,10.25,10.25,0,0,1,1.61.68c.58-3.72,0-6.25-2-8.55C62,27.17,58,26.09,52.91,26.09H38a2.12,2.12,0,0,0-2.1,1.79L29.75,67.13a1.27,1.27,0,0,0,1.06,1.46l.2,0h9.18L42.49,54Z" fill="#253b80"/></svg>