<svg id="bdf4cdc1-7d8d-43dc-a3f3-0537a817796f" data-name="Layer 1" xmlns="http://www.w3.org/2000/svg" viewBox="0 0 100 100"><title>spotify</title><path d="M50,25.57A24.43,24.43,0,1,0,74.43,50,24.43,24.43,0,0,0,50,25.57ZM61.2,60.8a1.52,1.52,0,0,1-2.09.51C53.37,57.8,46.15,57,37.65,59A1.52,1.52,0,1,1,37,56c9.31-2.13,17.29-1.21,23.73,2.72A1.52,1.52,0,0,1,61.2,60.8Zm3-6.65a1.9,1.9,0,0,1-2.62.63c-6.56-4-16.57-5.2-24.34-2.85a1.9,1.9,0,1,1-1.11-3.64C45,45.6,56,46.9,63.56,51.54a1.89,1.89,0,0,1,.63,2.61Zm.26-6.92c-7.88-4.68-20.86-5.11-28.38-2.83A2.28,2.28,0,0,1,34.74,40c8.63-2.62,23-2.12,32,3.27a2.28,2.28,0,1,1-2.33,3.93Z" fill="#2ebd59"/></svg>