<svg id="a74f55ae-5da3-44c2-b0b8-336ffe28b78a" data-name="Layer 1" xmlns="http://www.w3.org/2000/svg" viewBox="0 0 100 100"><title>stripe-full</title><rect width="100" height="100" fill="#fff"/><rect width="100" height="100" fill="#6772e5"/><path d="M46.61,39.83c0-2,1.68-2.84,4.47-2.84a29.36,29.36,0,0,1,13,3.36V28a34.71,34.71,0,0,0-13-2.41c-10.67,0-17.77,5.57-17.77,14.87,0,14.5,20,12.19,20,18.45,0,2.41-2.1,3.2-5,3.2-4.36,0-9.93-1.79-14.35-4.2V70.42a36.48,36.48,0,0,0,14.35,3c10.93,0,18.45-5.41,18.45-14.82-.06-15.66-20.08-12.88-20.08-18.76Z" fill="#fff"/></svg>