<svg id="afebf0ba-e175-423a-a09b-caa7a9bb8686" data-name="Layer 1" xmlns="http://www.w3.org/2000/svg" viewBox="0 0 100 100"><title>td-full</title><path id="ba337a5b-4004-4795-ad87-ea9b74c5b067" data-name="layer2" d="M.18,50V8.08H99.82V91.92H.18Zm39.17,3.09v-21H54c13.4,0,14.77.14,16.83,1.38,4.33,2.61,6.46,11.82,5.09,21.44C74.4,65.05,71.37,67.39,60.51,67l-6.39-.2-.2-16-.14-16H42.1V74.19l16.35-.28,16.29-.2,4-1.93c6.39-3.16,9.2-8.65,9.89-19.37.41-6.74-.55-14.3-2.34-17.8a18,18,0,0,0-7.42-7.49c-2.68-1.52-3.43-1.52-35.53-1.72l-32.84-.21v6.94H27.67V74.05H39.35Z" fill="#54b848"/></svg>