<svg id="ee1ae78c-dc34-485d-82f0-8c1f36a325a4" data-name="Layer 1" xmlns="http://www.w3.org/2000/svg" viewBox="0 0 100 100"><title>td</title><path id="ac8cfebf-bb26-4f3a-aac1-707f678aa3e4" data-name="layer2" d="M21.5,50V26h57V74h-57Zm22.41,1.77v-12h8.37c7.67,0,8.45.08,9.63.79,2.48,1.49,3.7,6.76,2.91,12.26C64,58.61,62.23,60,56,59.75l-3.65-.12-.12-9.12-.08-9.16H45.48V63.84l9.36-.16,9.31-.12,2.28-1.1c3.66-1.81,5.27-5,5.66-11.08.24-3.86-.31-8.18-1.33-10.19a10.37,10.37,0,0,0-4.25-4.28c-1.53-.87-2-.87-20.32-1L27.4,35.81v4h9.82v24h6.69Z" fill="#54b848"/></svg>