<svg id="ac6f109d-1260-47ab-b077-21ed9f828174" data-name="Layer 1" xmlns="http://www.w3.org/2000/svg" viewBox="0 0 100 100"><title>ups</title><path d="M50,78.4c.51-.25,13.72-6,17.92-9.4a18.38,18.38,0,0,0,6.6-14.74V25.67l-.38-.12c-10.54-5.72-23.63-5.34-24.27-5.34s-13.59-.38-24.14,5.34l-.25.12V54.39a18.38,18.38,0,0,0,6.6,14.74c4.2,3.43,17.41,9.15,17.92,9.27" fill="#341b14"/><path d="M50,79s-14-6.1-18.3-9.53a18.76,18.76,0,0,1-6.73-15V24.78c11.05-6,25-5.46,25-5.46s14-.51,25,5.46V54.39a18.76,18.76,0,0,1-6.73,15C64,72.94,50,79,50,79M27,54.52c0,5.59,2,10.16,6,13.34,3.56,2.92,14.11,7.62,17,8.89,2.92-1.27,13.6-6.1,17-8.89a16.6,16.6,0,0,0,6-13.34V25.29c-14.74-1.4-32.28-.63-46,12.07V54.52Z" fill="#ffb406"/><path d="M64.1,50.32c1.91,1.15,2.67,1.91,2.8,3.31S65.88,56,64.23,56A6.83,6.83,0,0,1,60,54.26v4.07a10.24,10.24,0,0,0,4.83,1.4c4.32,0,6.35-3,6.35-5.85.13-2.54-.64-4.57-4.32-6.73C65.25,46.13,64,45.49,64,44a2.3,2.3,0,0,1,2.54-2.16,6,6,0,0,1,3.94,1.78V39.78a7,7,0,0,0-4.83-1.4c-2.92.13-6,2.16-6,5.72.12,2.41.89,4.19,4.44,6.22m-15,9.15a6.39,6.39,0,0,0,2,.26c5,0,7.75-4.45,7.75-10.8S56,38.51,50.76,38.51a10.94,10.94,0,0,0-6,1.52V68.75h4.32V59.47Zm0-17.28a5.28,5.28,0,0,1,1.53-.38c2.54,0,3.55,2,3.55,7s-1.27,7.11-3.81,7.11a3.42,3.42,0,0,1-1.4-.25V42.19ZM35.77,59.73A11.65,11.65,0,0,0,42.38,58V38.76H37.93V55.41a3.22,3.22,0,0,1-2,.5c-2,0-2.29-1.9-2.29-3V38.76H29.16V52.61c0,4.7,2.29,7.12,6.61,7.12m29.6,17.15V79.8h.51V78.66H66l.76,1.14h.64s-.77-1.14-.89-1.27a.8.8,0,0,0,.63-.76.9.9,0,0,0-1-.89Zm.77.38c.38,0,.5.25.5.38s-.12.51-.63.51h-.13v-.89Z" fill="#ffb406"/><path d="M68.17,78.28a1.91,1.91,0,1,1-1.91-1.91,1.87,1.87,0,0,1,1.91,1.91m-1.91-2.42a2.42,2.42,0,1,0,2.42,2.42,2.51,2.51,0,0,0-2.42-2.42" fill="#ffb406"/></svg>