<svg id="a63ee0c8-54e0-483a-a6ad-68ecdc59bda5" data-name="Layer 1" xmlns="http://www.w3.org/2000/svg" viewBox="0 0 100 100"><title>xero</title><path d="M50,74.43A24.43,24.43,0,1,0,25.61,50,24.41,24.41,0,0,0,50,74.43" fill="#13b5ea"/><path d="M37.29,49.93l4.16-4.18a.74.74,0,0,0-1.06-1l-4.16,4.16L32.05,44.7a.73.73,0,0,0-1,0,.74.74,0,0,0,0,1l4.17,4.17L31,54.1a.73.73,0,0,0,0,1A.73.73,0,0,0,32,55.2l0,0L36.22,51l4.16,4.16a.74.74,0,0,0,1.28-.52.73.73,0,0,0-.21-.52l-4.16-4.18m24.74,0a1.36,1.36,0,1,0,1.35-1.35A1.35,1.35,0,0,0,62,49.93m-2.57,0a3.93,3.93,0,1,1,3.92,3.93,3.93,3.93,0,0,1-3.92-3.93m-1.55,0a5.47,5.47,0,1,0,5.47-5.47,5.49,5.49,0,0,0-5.47,5.47m-.38-5.38H57.3a3.09,3.09,0,0,0-1.91.65.76.76,0,0,0-.73-.59.74.74,0,0,0-.74.74h0v9.23a.75.75,0,0,0,.79.7.74.74,0,0,0,.7-.7V48.9c0-1.89.17-2.65,1.79-2.85a2.72,2.72,0,0,1,.32,0,.73.73,0,0,0,.75-.73.76.76,0,0,0-.75-.75M43.21,49V49a3.95,3.95,0,0,1,7.67.06Zm9.2-.14a5.47,5.47,0,1,0-6,6.49,5.06,5.06,0,0,0,2-.13,5.13,5.13,0,0,0,1.63-.7,5.8,5.8,0,0,0,1.4-1.32l0,0a.82.82,0,0,0-.08-1.15.75.75,0,0,0-1.11.17,2.56,2.56,0,0,1-.26.34,4.29,4.29,0,0,1-1.08.87,3.92,3.92,0,0,1-1.83.47,4,4,0,0,1-3.74-2.63,3.25,3.25,0,0,1-.17-.63v-.11h7.78a1.39,1.39,0,0,0,1.49-1.64Z" fill="#fff"/></svg>