<svg id="abe148ec-a14c-45fb-a908-b8f2b5b5fe48" data-name="Layer 1" xmlns="http://www.w3.org/2000/svg" viewBox="0 0 100 100"><title>xero-full</title><rect width="100" height="100" fill="#13b5ea"/><path d="M24,49.87l8.52-8.56a1.53,1.53,0,0,0-2.17-2.15l-8.52,8.52-8.54-8.53a1.53,1.53,0,1,0-2.15,2.17l8.52,8.53-8.52,8.54a1.53,1.53,0,1,0,2.08,2.24l.07-.06L21.8,52l8.5,8.51a1.53,1.53,0,0,0,2.16.06,1.56,1.56,0,0,0,.48-1.12,1.49,1.49,0,0,0-.45-1.07L24,49.86m50.64,0a2.78,2.78,0,1,0,2.77-2.77,2.77,2.77,0,0,0-2.77,2.77m-5.26,0a8,8,0,1,1,8,8,8,8,0,0,1-8-8m-3.16,0a11.2,11.2,0,1,0,11.19-11.2A11.22,11.22,0,0,0,66.2,49.86m-.8-11h-.46A6.34,6.34,0,0,0,61,40.17a1.54,1.54,0,0,0-1.5-1.2A1.52,1.52,0,0,0,58,40.48h0V59.37a1.52,1.52,0,0,0,3,0V47.76c0-3.87.36-5.44,3.67-5.85a4.67,4.67,0,0,1,.64,0,1.52,1.52,0,1,0,0-3M36.1,48v-.13A8.09,8.09,0,0,1,51.81,48H36.1Zm18.83-.29a11.15,11.15,0,0,0-17.43-7A11.22,11.22,0,0,0,42.62,61a10.54,10.54,0,0,0,4-.27A11,11,0,0,0,50,59.32a12.19,12.19,0,0,0,2.87-2.71s0,0,0-.06a1.67,1.67,0,0,0-.17-2.35,1.52,1.52,0,0,0-2.25.35c-.16.23-.34.46-.53.7A9.22,9.22,0,0,1,47.74,57,8.09,8.09,0,0,1,44,58a8.06,8.06,0,0,1-8-6.66l0-.24H51.89c2.19,0,3.36-1.59,3-3.35Z" fill="#fff"/></svg>