<svg id="a30e1ba4-5301-4c4d-9523-ddd45067f6c1" data-name="Layer 1" xmlns="http://www.w3.org/2000/svg" viewBox="0 0 100 100"><title>zapier</title><path d="M56.1,50a14.59,14.59,0,0,1-.94,5.15A14.59,14.59,0,0,1,50,56.1h0a14.44,14.44,0,0,1-5.15-.94A14.59,14.59,0,0,1,43.9,50v0a14.58,14.58,0,0,1,.93-5.15A14.68,14.68,0,0,1,50,43.9h0a14.59,14.59,0,0,1,5.15.94A14.59,14.59,0,0,1,56.1,50v0Zm18-4.08H59.82L69.89,35.86a25.25,25.25,0,0,0-2.63-3.12h0a25.25,25.25,0,0,0-3.12-2.63L54.07,40.18V25.93A26.27,26.27,0,0,0,50,25.59h0a25.86,25.86,0,0,0-4.06.34V40.18L35.86,30.11a25.25,25.25,0,0,0-3.12,2.63h0a24.44,24.44,0,0,0-2.63,3.11L40.18,45.93H25.93s-.34,2.68-.34,4.06v0a24.72,24.72,0,0,0,.34,4.06H40.18L30.11,64.14a24.52,24.52,0,0,0,5.75,5.75L45.93,59.82V74.07a26.25,26.25,0,0,0,4,.34h0a26.25,26.25,0,0,0,4-.34V59.82L64.14,69.89a25.25,25.25,0,0,0,3.12-2.63h0a25.25,25.25,0,0,0,2.63-3.12L59.82,54.07H74.07a25.73,25.73,0,0,0,.34-4v0a25.73,25.73,0,0,0-.34-4Z" fill="#ff4a00"/></svg>