<svg id="a6fc66bd-a048-4cf5-9091-0528ff750001" data-name="Layer 1" xmlns="http://www.w3.org/2000/svg" viewBox="0 0 100 100"><title>zapier-full</title><rect width="100" height="100" fill="#fff"/><rect width="100" height="100" fill="#ff4a00"/><path d="M55.85,50A14.12,14.12,0,0,1,55,55a14.12,14.12,0,0,1-4.94.9h0a14.2,14.2,0,0,1-4.94-.9,14.12,14.12,0,0,1-.9-4.94v0a14.12,14.12,0,0,1,.9-4.94,14.12,14.12,0,0,1,4.94-.9h0a14.12,14.12,0,0,1,4.94.9,14.12,14.12,0,0,1,.9,4.94v0ZM73.06,46.1H59.41l9.65-9.65a23.17,23.17,0,0,0-2.53-3h0a23.17,23.17,0,0,0-3-2.53L53.9,40.59V26.94A24.21,24.21,0,0,0,50,26.62h0a23.74,23.74,0,0,0-3.89.32V40.59l-9.65-9.65a23.17,23.17,0,0,0-3,2.53h0a23.92,23.92,0,0,0-2.52,3l9.65,9.65H26.94s-.32,2.57-.32,3.89v0a23.84,23.84,0,0,0,.32,3.89H40.59l-9.65,9.65a23.62,23.62,0,0,0,5.51,5.51l9.65-9.65V73.06a24.09,24.09,0,0,0,3.88.32h0a24.09,24.09,0,0,0,3.88-.32V59.41l9.65,9.65a23.17,23.17,0,0,0,3-2.53h0a23.17,23.17,0,0,0,2.53-3L59.41,53.9H73.06A23.71,23.71,0,0,0,73.38,50v0a23.71,23.71,0,0,0-.32-3.88Z" fill="#fff"/></svg>