<svg xmlns="http://www.w3.org/2000/svg" xml:space="preserve" style="enable-background:new 0 0 733 500" viewBox="0 0 733 500"><style>.st1{fill:none}.st1,.st2,.st4,.st5{stroke:#263238;stroke-linecap:round;stroke-linejoin:round;stroke-miterlimit:10}.st2{fill:#263238}.st4{fill:#fff}.st5{fill:#ffa981}.st12,.st7{stroke-linecap:round;stroke-linejoin:round;stroke-miterlimit:10}.st7{fill:#263238;stroke:#fff}.st12{fill:none;stroke:#ffa981}</style><path id="Background_Simple" d="M0 0h733v500H0z" style="fill:#ffe2d7"/><g id="Plant"><path d="M191.7 218.5H168c-2.3 0-4.1-1.8-4.1-4.1v-23.7c0-2.3 1.8-4.1 4.1-4.1h23.7c2.3 0 4.1 1.8 4.1 4.1v23.7c0 2.3-1.8 4.1-4.1 4.1zm34.7 0h-23.7c-2.3 0-4.1-1.8-4.1-4.1v-23.7c0-2.3 1.8-4.1 4.1-4.1h23.7c2.3 0 4.1 1.8 4.1 4.1v23.7c0 2.3-1.8 4.1-4.1 4.1zm34.7 0h-23.7c-2.3 0-4.1-1.8-4.1-4.1v-23.7c0-2.3 1.8-4.1 4.1-4.1h23.7c2.3 0 4.1 1.8 4.1 4.1v23.7c0 2.3-1.8 4.1-4.1 4.1zm34.7 0h-23.7c-2.3 0-4.1-1.8-4.1-4.1v-23.7c0-2.3 1.8-4.1 4.1-4.1h23.7c2.3 0 4.1 1.8 4.1 4.1v23.7c0 2.3-1.8 4.1-4.1 4.1zm34.7 0h-23.7c-2.3 0-4.1-1.8-4.1-4.1v-23.7c0-2.3 1.8-4.1 4.1-4.1h23.7c2.3 0 4.1 1.8 4.1 4.1v23.7c0 2.3-1.8 4.1-4.1 4.1zm34.7 0h-23.7c-2.3 0-4.1-1.8-4.1-4.1v-23.7c0-2.3 1.8-4.1 4.1-4.1h23.7c2.3 0 4.1 1.8 4.1 4.1v23.7c0 2.3-1.8 4.1-4.1 4.1zm34.7 0h-23.7c-2.3 0-4.1-1.8-4.1-4.1v-23.7c0-2.3 1.8-4.1 4.1-4.1h23.7c2.3 0 4.1 1.8 4.1 4.1v23.7c0 2.3-1.8 4.1-4.1 4.1zm34.7 0h-23.7c-2.3 0-4.1-1.8-4.1-4.1v-23.7c0-2.3 1.8-4.1 4.1-4.1h23.7c2.3 0 4.1 1.8 4.1 4.1v23.7c.1 2.3-1.8 4.1-4.1 4.1zm34.7 0h-23.7c-2.3 0-4.1-1.8-4.1-4.1v-23.7c0-2.3 1.8-4.1 4.1-4.1h23.7c2.3 0 4.1 1.8 4.1 4.1v23.7c.1 2.3-1.8 4.1-4.1 4.1zm34.7 0h-23.7c-2.3 0-4.1-1.8-4.1-4.1v-23.7c0-2.3 1.8-4.1 4.1-4.1H504c2.3 0 4.1 1.8 4.1 4.1v23.7c.1 2.3-1.8 4.1-4.1 4.1zm34.7 0H515c-2.3 0-4.1-1.8-4.1-4.1v-23.7c0-2.3 1.8-4.1 4.1-4.1h23.7c2.3 0 4.1 1.8 4.1 4.1v23.7c.1 2.3-1.8 4.1-4.1 4.1zm34.7 0h-23.7c-2.3 0-4.1-1.8-4.1-4.1v-23.7c0-2.3 1.8-4.1 4.1-4.1h23.7c2.3 0 4.1 1.8 4.1 4.1v23.7c.1 2.3-1.8 4.1-4.1 4.1zm-381.7 34.2H168c-2.3 0-4.1-1.8-4.1-4.1v-23.7c0-2.3 1.8-4.1 4.1-4.1h23.7c2.3 0 4.1 1.8 4.1 4.1v23.7c0 2.3-1.8 4.1-4.1 4.1zm34.7 0h-23.7c-2.3 0-4.1-1.8-4.1-4.1v-23.7c0-2.3 1.8-4.1 4.1-4.1h23.7c2.3 0 4.1 1.8 4.1 4.1v23.7c0 2.3-1.8 4.1-4.1 4.1zm34.7 0h-23.7c-2.3 0-4.1-1.8-4.1-4.1v-23.7c0-2.3 1.8-4.1 4.1-4.1h23.7c2.3 0 4.1 1.8 4.1 4.1v23.7c0 2.3-1.8 4.1-4.1 4.1zm34.7 0h-23.7c-2.3 0-4.1-1.8-4.1-4.1v-23.7c0-2.3 1.8-4.1 4.1-4.1h23.7c2.3 0 4.1 1.8 4.1 4.1v23.7c0 2.3-1.8 4.1-4.1 4.1zm34.7 0h-23.7c-2.3 0-4.1-1.8-4.1-4.1v-23.7c0-2.3 1.8-4.1 4.1-4.1h23.7c2.3 0 4.1 1.8 4.1 4.1v23.7c0 2.3-1.8 4.1-4.1 4.1zm34.7 0h-23.7c-2.3 0-4.1-1.8-4.1-4.1v-23.7c0-2.3 1.8-4.1 4.1-4.1h23.7c2.3 0 4.1 1.8 4.1 4.1v23.7c0 2.3-1.8 4.1-4.1 4.1zm34.7 0h-23.7c-2.3 0-4.1-1.8-4.1-4.1v-23.7c0-2.3 1.8-4.1 4.1-4.1h23.7c2.3 0 4.1 1.8 4.1 4.1v23.7c0 2.3-1.8 4.1-4.1 4.1zm34.7 0h-23.7c-2.3 0-4.1-1.8-4.1-4.1v-23.7c0-2.3 1.8-4.1 4.1-4.1h23.7c2.3 0 4.1 1.8 4.1 4.1v23.7c.1 2.3-1.8 4.1-4.1 4.1zm34.7 0h-23.7c-2.3 0-4.1-1.8-4.1-4.1v-23.7c0-2.3 1.8-4.1 4.1-4.1h23.7c2.3 0 4.1 1.8 4.1 4.1v23.7c.1 2.3-1.8 4.1-4.1 4.1zm34.7 0h-23.7c-2.3 0-4.1-1.8-4.1-4.1v-23.7c0-2.3 1.8-4.1 4.1-4.1H504c2.3 0 4.1 1.8 4.1 4.1v23.7c.1 2.3-1.8 4.1-4.1 4.1zm34.7 0H515c-2.3 0-4.1-1.8-4.1-4.1v-23.7c0-2.3 1.8-4.1 4.1-4.1h23.7c2.3 0 4.1 1.8 4.1 4.1v23.7c.1 2.3-1.8 4.1-4.1 4.1zm34.7 0h-23.7c-2.3 0-4.1-1.8-4.1-4.1v-23.7c0-2.3 1.8-4.1 4.1-4.1h23.7c2.3 0 4.1 1.8 4.1 4.1v23.7c.1 2.3-1.8 4.1-4.1 4.1zm-381.7 34.2H168c-2.3 0-4.1-1.8-4.1-4.1v-23.7c0-2.3 1.8-4.1 4.1-4.1h23.7c2.3 0 4.1 1.8 4.1 4.1v23.7c0 2.3-1.8 4.1-4.1 4.1zm34.7 0h-23.7c-2.3 0-4.1-1.8-4.1-4.1v-23.7c0-2.3 1.8-4.1 4.1-4.1h23.7c2.3 0 4.1 1.8 4.1 4.1v23.7c0 2.3-1.8 4.1-4.1 4.1zm34.7 0h-23.7c-2.3 0-4.1-1.8-4.1-4.1v-23.7c0-2.3 1.8-4.1 4.1-4.1h23.7c2.3 0 4.1 1.8 4.1 4.1v23.7c0 2.3-1.8 4.1-4.1 4.1zm34.7 0h-23.7c-2.3 0-4.1-1.8-4.1-4.1v-23.7c0-2.3 1.8-4.1 4.1-4.1h23.7c2.3 0 4.1 1.8 4.1 4.1v23.7c0 2.3-1.8 4.1-4.1 4.1zm34.7 0h-23.7c-2.3 0-4.1-1.8-4.1-4.1v-23.7c0-2.3 1.8-4.1 4.1-4.1h23.7c2.3 0 4.1 1.8 4.1 4.1v23.7c0 2.3-1.8 4.1-4.1 4.1zm34.7 0h-23.7c-2.3 0-4.1-1.8-4.1-4.1v-23.7c0-2.3 1.8-4.1 4.1-4.1h23.7c2.3 0 4.1 1.8 4.1 4.1v23.7c0 2.3-1.8 4.1-4.1 4.1zm34.7 0h-23.7c-2.3 0-4.1-1.8-4.1-4.1v-23.7c0-2.3 1.8-4.1 4.1-4.1h23.7c2.3 0 4.1 1.8 4.1 4.1v23.7c0 2.3-1.8 4.1-4.1 4.1zm34.7 0h-23.7c-2.3 0-4.1-1.8-4.1-4.1v-23.7c0-2.3 1.8-4.1 4.1-4.1h23.7c2.3 0 4.1 1.8 4.1 4.1v23.7c.1 2.3-1.8 4.1-4.1 4.1zm34.7 0h-23.7c-2.3 0-4.1-1.8-4.1-4.1v-23.7c0-2.3 1.8-4.1 4.1-4.1h23.7c2.3 0 4.1 1.8 4.1 4.1v23.7c.1 2.3-1.8 4.1-4.1 4.1zm34.7 0h-23.7c-2.3 0-4.1-1.8-4.1-4.1v-23.7c0-2.3 1.8-4.1 4.1-4.1H504c2.3 0 4.1 1.8 4.1 4.1v23.7c.1 2.3-1.8 4.1-4.1 4.1zm34.7 0H515c-2.3 0-4.1-1.8-4.1-4.1v-23.7c0-2.3 1.8-4.1 4.1-4.1h23.7c2.3 0 4.1 1.8 4.1 4.1v23.7c.1 2.3-1.8 4.1-4.1 4.1zm34.7 0h-23.7c-2.3 0-4.1-1.8-4.1-4.1v-23.7c0-2.3 1.8-4.1 4.1-4.1h23.7c2.3 0 4.1 1.8 4.1 4.1v23.7c.1 2.3-1.8 4.1-4.1 4.1zm-381.7 34.2H168c-2.3 0-4.1-1.8-4.1-4.1v-23.7c0-2.3 1.8-4.1 4.1-4.1h23.7c2.3 0 4.1 1.8 4.1 4.1V317c0 2.3-1.8 4.1-4.1 4.1zm34.7 0h-23.7c-2.3 0-4.1-1.8-4.1-4.1v-23.7c0-2.3 1.8-4.1 4.1-4.1h23.7c2.3 0 4.1 1.8 4.1 4.1V317c0 2.3-1.8 4.1-4.1 4.1zm34.7 0h-23.7c-2.3 0-4.1-1.8-4.1-4.1v-23.7c0-2.3 1.8-4.1 4.1-4.1h23.7c2.3 0 4.1 1.8 4.1 4.1V317c0 2.3-1.8 4.1-4.1 4.1zm34.7 0h-23.7c-2.3 0-4.1-1.8-4.1-4.1v-23.7c0-2.3 1.8-4.1 4.1-4.1h23.7c2.3 0 4.1 1.8 4.1 4.1V317c0 2.3-1.8 4.1-4.1 4.1zm34.7 0h-23.7c-2.3 0-4.1-1.8-4.1-4.1v-23.7c0-2.3 1.8-4.1 4.1-4.1h23.7c2.3 0 4.1 1.8 4.1 4.1V317c0 2.3-1.8 4.1-4.1 4.1zm34.7 0h-23.7c-2.3 0-4.1-1.8-4.1-4.1v-23.7c0-2.3 1.8-4.1 4.1-4.1h23.7c2.3 0 4.1 1.8 4.1 4.1V317c0 2.3-1.8 4.1-4.1 4.1zm34.7 0h-23.7c-2.3 0-4.1-1.8-4.1-4.1v-23.7c0-2.3 1.8-4.1 4.1-4.1h23.7c2.3 0 4.1 1.8 4.1 4.1V317c0 2.3-1.8 4.1-4.1 4.1zm34.7 0h-23.7c-2.3 0-4.1-1.8-4.1-4.1v-23.7c0-2.3 1.8-4.1 4.1-4.1h23.7c2.3 0 4.1 1.8 4.1 4.1V317c.1 2.3-1.8 4.1-4.1 4.1zm34.7 0h-23.7c-2.3 0-4.1-1.8-4.1-4.1v-23.7c0-2.3 1.8-4.1 4.1-4.1h23.7c2.3 0 4.1 1.8 4.1 4.1V317c.1 2.3-1.8 4.1-4.1 4.1zm34.7 0h-23.7c-2.3 0-4.1-1.8-4.1-4.1v-23.7c0-2.3 1.8-4.1 4.1-4.1H504c2.3 0 4.1 1.8 4.1 4.1V317c.1 2.3-1.8 4.1-4.1 4.1zm34.7 0H515c-2.3 0-4.1-1.8-4.1-4.1v-23.7c0-2.3 1.8-4.1 4.1-4.1h23.7c2.3 0 4.1 1.8 4.1 4.1V317c.1 2.3-1.8 4.1-4.1 4.1zm34.7 0h-23.7c-2.3 0-4.1-1.8-4.1-4.1v-23.7c0-2.3 1.8-4.1 4.1-4.1h23.7c2.3 0 4.1 1.8 4.1 4.1V317c.1 2.3-1.8 4.1-4.1 4.1z" class="st1"/><g id="XMLID_145_"><path id="XMLID_148_" d="M235.6 171.8V17.5" class="st1"/><path id="XMLID_147_" d="M240.3 129.4h5.5v32h-5.5z" class="st2"/><path id="XMLID_146_" d="M225.3 129.4h5.5v32h-5.5z" class="st2"/></g><path id="XMLID_144_" d="M162.2 171.8h413.9" style="fill:none;stroke:#263238;stroke-width:2;stroke-linecap:round;stroke-linejoin:round;stroke-miterlimit:10"/><g id="XMLID_140_"><path id="XMLID_143_" d="M482.2 171.8V17.5" class="st1"/><path id="XMLID_142_" d="M473.3 129.4h5.5v32h-5.5z" class="st2"/><path id="XMLID_141_" d="M486.5 129.4h5.5v32h-5.5z" class="st2"/></g><path d="M165.8 375.8h-.3c-1.6 0-2.8-1.3-2.8-2.8v-5.3h6v5.3c-.1 1.5-1.3 2.8-2.9 2.8zm54.8 0h-.3c-1.6 0-2.8-1.3-2.8-2.8v-5.3h6v5.3c-.1 1.5-1.4 2.8-2.9 2.8zm6.2-10.4h-67.4l24.3-28.2h58.6z" class="st4"/><path d="M159.4 365.4h67.1v5.5h-67.1z" class="st4"/><path d="m226.4 365.4 15.9-28.2v5.9l-15.9 27.8z" class="st4"/><path d="M182.6 339.5v7.4c0 2.6 5.1 4.8 11.5 4.8 6.3 0 11.5-2.1 11.5-4.8v-7.4h-23z" class="st2"/><ellipse cx="194.1" cy="339.5" class="st4" rx="11.5" ry="4.8"/><ellipse cx="194.1" cy="339.5" class="st5" rx="5.5" ry="2.3"/><path d="M211.3 340.7v7.4c0 2.6 5.1 4.8 11.5 4.8s11.5-2.1 11.5-4.8v-7.4h-23z" class="st2"/><ellipse cx="222.8" cy="340.7" class="st4" rx="11.5" ry="4.8"/><ellipse cx="222.8" cy="340.7" class="st5" rx="5.5" ry="2.3"/><path d="M191.8 349.7v7.4c0 2.6 5.1 4.8 11.5 4.8 6.3 0 11.5-2.1 11.5-4.8v-7.4h-23z" class="st2"/><ellipse cx="203.2" cy="349.7" class="st4" rx="11.5" ry="4.8"/><path d="M208.7 349.7c0 1.3-2.4 2.3-5.5 2.3-3 0-5.5-1-5.5-2.3s2.4-2.3 5.5-2.3c3.1.1 5.5 1.1 5.5 2.3z" class="st5"/><path d="M460.8 368.4H264.6l9.8-28.1H451zm-196.2 0h195.9v5.5H264.6z" class="st4"/><path d="M354.9 337.8c-1.3-.6-2.7-.9-4.1-.9h-54c-3.5 0-6.8 1.6-8.9 4.4-1.5 2-2.3 4.3-2.3 6.8v6.1c0 1.2.9 2.1 2.1 2.1h67.2v-18.5z" class="st2"/><path d="M354.9 346.8c0 5.3-.5 9.5-1.1 9.5s-1.1-4.3-1.1-9.5.5-9.5 1.1-9.5 1.1 4.3 1.1 9.5z" class="st4"/><path d="M323.8 336.9h-2.1c-.8 6.3-.9 13.7-.8 19.4h2.1c-.1-5.7 0-13.1.8-19.4zM305 356.4v-11.3c0-2.7 1.1-6 1.9-8.1h-2.3c-.8 2.2-1.7 5.4-1.7 8.1v11.3h2.1zm34.9-19.5h2.1v19.4h-2.1z" style="fill:#4a4a4a"/><path d="M490.8 381.7v6.3l40.9 2c3.3.2 6.1-2.5 6.1-5.8v-1.1c0-3.5-3-6.1-6.4-5.8l-40.6 4.4z" class="st4"/><path d="m492.8 380 1 16.7s-58.3-.7-100-12l99-4.7z" class="st2"/><path d="m408.6 384-14.8.7c41.7 11.3 100 12 100 12l-.6-9.2c-34.5 2.8-69.3-1.3-84.6-3.5z" class="st4"/><path d="M526.8 365c0 2.3-6.2 4.2-14 4.2-7.7 0-14-1.9-14-4.2 0-2.3 6.2-4.2 14-4.2s14 1.9 14 4.2z" class="st7"/><path d="M488.8 347.6s-.2 5.6 7 13.5c3.9 3.7 10 5.6 16.6 5.6 7.2 0 13.5-1.5 16.2-4.8 0 0 3.4-2.7 8.4-14.4h-48.2z" class="st7"/><ellipse cx="512.9" cy="347.6" class="st7" rx="24.1" ry="7.2"/><path d="M208.9 402.4c0 2.3-6.2 4.2-14 4.2-7.7 0-14-1.9-14-4.2 0-2.3 6.2-4.2 14-4.2 7.7.1 14 1.9 14 4.2z" class="st7"/><path d="M170.8 385s-.2 5.6 7 13.5c3.9 3.7 10 5.6 16.6 5.6 7.2 0 13.5-1.5 16.2-4.8 0 0 3.4-2.7 8.4-14.4h-48.2z" class="st7"/><ellipse cx="194.9" cy="385" class="st7" rx="24.1" ry="7.2"/><ellipse cx="359.9" cy="439.7" class="st4" rx="87.5" ry="45.8"/><ellipse cx="359.9" cy="437.2" class="st4" rx="98.9" ry="45.8"/><ellipse cx="359.9" cy="434.6" class="st4" rx="98.9" ry="45.8"/><ellipse cx="359.9" cy="434.6" rx="74.8" ry="34.6" style="fill:#fff;stroke:#263238;stroke-width:.5;stroke-linecap:round;stroke-linejoin:round;stroke-miterlimit:10"/><path d="M388.5 428.6s16.6-15.4 41.6-16c25-.6 26.9 14.1 25 17.9-1.9 3.8-11.5 1.9-22.4 4.5s-38.6 6.1-43.3 2.4c-4.8-3.7-2.8-6.2-.9-8.8z" class="st4"/><path d="M415.9 422.6s7.2 2.4 10.2 9m-.3-10.2s6 2.4 9 8.1m1.5-10.5s5.7 1.8 10.5 10.2m-51.9-.6s20.4-12.6 39.3-11.7" class="st1"/><path d="M388.8 414.7c2.8 1.6 6.3 1.4 9-.3 3.6-2.2 10.4-5.6 20.7-6.8 16-1.9 14.1-9.6 5.8-12.8-8.3-3.2-25-2.6-31.4 4.5-5.1 5.5-9.8 12-4.1 15.4z" class="st4"/><path d="M392.8 409.4s6.6-12.9 21.6-12.9" class="st1"/><path d="M400.3 401.3s6.3.6 11.4 4.2m2.4-7.2s5.1 1.2 8.7 4.5m-26.4 3s5.4 1.5 6.6 3" class="st1"/><path d="M375.7 406.2s1.9-9-4.5-15.4-23.7-5.8-26.9-.6c-3.2 5.1 12.2 7.7 12.2 14.7 0 7 7 13.4 13.4 10.9 6.4-2.6 5.8-9.6 5.8-9.6z" class="st4"/><path d="M361.8 389.8s-6-.6-11.7 2.7m14.4 2.7s-6.6-.6-10.5 1.2m11.7 4.3s-5.1.6-6.9 1.8" class="st1"/><path d="M344.8 414.7c-2.8 1.6-6.3 1.4-9-.3-3.6-2.2-10.4-5.6-20.7-6.8-16-1.9-14.1-9.6-5.8-12.8 8.3-3.2 25-2.6 31.4 4.5 5.1 5.5 9.8 12 4.1 15.4z" class="st4"/><path d="M317.4 398.3s9-3 14.4-2.1m-3.9 3.9s4.8-1.8 9.6 0m-5.1 5.1c.9 0 5.1-1.2 9 0" class="st1"/><path d="M266.2 425.4s16.6-15.4 41.6-16c25-.6 26.9 14.1 25 17.9-1.9 3.8-11.5 1.9-22.4 4.5-10.9 2.6-38.6 6.1-43.3 2.4s-2.8-6.2-.9-8.8z" class="st4"/><path d="M272 428.3s.3-4.8 9.3-10.2m1.2 6.6s1.2-4.5 9-10.2m2.1 7.2s2-6.9 8.1-9.6m7.9-.3s-3.6 3-4.5 5.7" class="st1"/><ellipse cx="365.9" cy="421.3" class="st4" rx="24.3" ry="13.1"/><ellipse cx="365.9" cy="417.8" class="st4" rx="26.2" ry="13.1"/><ellipse cx="365.9" cy="420.7" class="st2" rx="20.9" ry="10.3"/><path d="M304.4 423.9v11.3c0 4 6.6 7.2 14.7 7.2s14.7-3.2 14.7-7.2v-11.3h-29.4z" class="st2"/><ellipse cx="319.1" cy="423.9" class="st4" rx="14.7" ry="7.2"/><ellipse cx="319.1" cy="423.9" class="st5" rx="7" ry="3.4"/><path d="M281.7 435.3v11.3c0 4 6.6 7.2 14.7 7.2s14.7-3.2 14.7-7.2v-11.3h-29.4z" class="st2"/><ellipse cx="296.4" cy="435.3" class="st4" rx="14.7" ry="7.2"/><path d="M303.3 435.3c0 1.9-3.1 3.4-7 3.4-3.8 0-7-1.5-7-3.4s3.1-3.4 7-3.4c3.9-.1 7 1.5 7 3.4z" class="st5"/><path d="M329.6 436.7V448c0 4 6.6 7.2 14.7 7.2S359 452 359 448v-11.3h-29.4z" class="st2"/><ellipse cx="344.3" cy="436.7" class="st4" rx="14.7" ry="7.2"/><path d="M351.2 436.7c0 1.9-3.1 3.4-7 3.4-3.8 0-7-1.5-7-3.4s3.1-3.4 7-3.4 7 1.6 7 3.4z" class="st5"/><path d="M389.4 437.4v11.3c0 4 6.6 7.2 14.7 7.2s14.7-3.2 14.7-7.2v-11.3h-29.4z" class="st2"/><path d="M418.7 437.4c0 4-6.6 7.2-14.7 7.2s-14.7-3.2-14.7-7.2 6.6-7.2 14.7-7.2 14.7 3.2 14.7 7.2z" class="st4"/><path d="M411 437.4c0 1.9-3.1 3.4-7 3.4-3.8 0-7-1.5-7-3.4s3.1-3.4 7-3.4 7 1.5 7 3.4z" class="st5"/><path d="M307.1 447.4v11.3c0 4 6.6 7.2 14.7 7.2s14.7-3.2 14.7-7.2v-11.3h-29.4z" class="st2"/><ellipse cx="321.7" cy="447.4" class="st4" rx="14.7" ry="7.2"/><ellipse cx="321.7" cy="447.4" class="st5" rx="7" ry="3.4"/><path d="M360.5 443.5v11.3c0 4 6.6 7.2 14.7 7.2s14.7-3.2 14.7-7.2v-11.3h-29.4z" class="st2"/><ellipse cx="375.2" cy="443.5" class="st4" rx="14.7" ry="7.2"/><ellipse cx="375.2" cy="443.5" class="st5" rx="7" ry="3.4"/><path d="M339.9 454.5v11.3c0 4 6.6 7.2 14.7 7.2s14.7-3.2 14.7-7.2v-11.3h-29.4z" class="st2"/><ellipse cx="354.6" cy="454.5" class="st4" rx="14.7" ry="7.2"/><ellipse cx="354.6" cy="454.5" class="st5" rx="7" ry="3.4"/><path d="M608.2 333.8H124.8" class="st1"/><path d="M366.9 157.3s-28.6 8.8-48 14.1c-19.4 5.3-27.5 15.9-30 19.8-2.5 3.9-28.6 52.6-28.6 52.6l45.6 27.5-11.3 61.4h146.6l6.3-70.6 3.7 15.6 55.7-1.1s-8.8-51.9-15.2-68.9c-6.4-17-17.7-22.3-33.6-29.3-15.9-7.1-55.1-20.5-61.8-21.9-6.8-1.3-29.4.8-29.4.8z" class="st2"/><path d="m301.5 268.2 15.9-36.3m130 30.3-5.2-16.7" style="fill:none;stroke-linecap:round;stroke-linejoin:round;stroke-miterlimit:10;stroke:#737373"/><path d="m370.3 195.5 21.2 45 14-40.8z" class="st4"/><path d="m379.9 200.5 14.4 38.2-18.6 33.1s-2.8-26.4-9-49c-6.1-22.6-5.4-54.5-4.1-66.3l17.3 44z" class="st5"/><path d="M399.7 199.4s-36.3 99.5-73.7 134.1h28.3s40.2-59.9 56.1-94.5c15.9-34.6 17.7-67.8 17.7-67.8l-28.4 28.2z" class="st5"/><path d="M363.4 141s-2.4-5.5-6.5-2.6c-4.2 2.9-2.1 14.7 0 19.9 2.1 5.2 7.3 5.8 7.3 2.6 0-3.1-.8-19.9-.8-19.9zm70.3 6.4s3.1-5.1 6.8-1.7c3.8 3.4.2 14.8-2.6 19.7-2.8 4.9-8 4.8-7.6 1.6.5-3.1 3.4-19.6 3.4-19.6z" class="st4"/><path d="M367.6 123.4s-1.3 45-1.3 54.7 3 24.6 15.9 32.2c12.9 7.6 24.3.3 30.3-7.6s15.7-46.6 15.7-57.1-1.3-29.9-13.5-39c-9.6-7.2-30.3-7.9-38.9 2.6-6.7 8-8.2 14.2-8.2 14.2z" class="st2"/><path d="M362.7 116.7s-1.6 45-1.6 54.7 3.7 24.6 19.6 32.2c16 7.6 30.1.3 37.4-7.6 7.3-7.9 19.4-46.6 19.4-57.1s-1.6-29.9-16.8-39c-11.9-7.2-37.4-7.9-48.2 2.6-8 8-9.8 14.2-9.8 14.2z" class="st4"/><path d="M406.1 167.2s8.4-5 16.2-1.3m-50.2-7.6c9.4-.8 13.6 6.8 13.6 6.8" class="st1"/><path d="M390.7 155.4s-8.6-5.8-18.1-2.9m31.2 4.7s8.6-6 21.2.8" style="stroke:#263238;stroke-width:3;fill:none;stroke-linecap:round;stroke-linejoin:round;stroke-miterlimit:10"/><path d="M408.5 168.5s3.4 1.3 8.1 0m-32.2-1.8s-4.7 0-9.2-3.9m31.7 2.3s2.1-4.2 9.4-3.7m-29.5 1.9s-1.3-5.5-5.5-6.3m6.5 21.2s-.8 1.8 1 3.7c1.8 1.8 6.3 5.5 8.1 4.2 1.8-1.3 2.9-.8 5-3.4 2.1-2.6 1.6-5 1.6-5" class="st1"/><path d="M374.2 182.1s10 7.3 18.3 8.6c8.4 1.3 20.7-5.5 20.7-5.5" class="st1"/><path d="M377.6 181.1s-5.2.5-5.2 1.8m38.4 1.3s3.4.8 3.4 3.4" class="st1"/><path d="M363.2 115.9s9.4 11.5 36.7 12.8c27.2 1.3 35.9-6.3 35.9-6.3l-.8-3.4s.5-1.6 2.1.5 2.6 14.9 3.4 18.3c.8 3.4-2.9 6.5-5 7.3-2.1.8-21.2 8.4-44 3.9-16.4-3.2-30.9-11-32.2-12.6-1.3-1.6-.5-13.6-.5-17.3s4.7-7.6 6.5-7.9l-2.1 4.7z" class="st5"/><path d="M438.7 130.4s-12.3-2.9-16.2 0c-3.9 2.9 0 17 2.6 16.2 2.6-.7 8.1-1 13.6-16.2z" class="st5"/><path d="M438.7 130.4s1.3-10 2.9-15.5c1.6-5.5 5.2 3.9 5.2 13.1 0 9.3-8.1 2.4-8.1 2.4z" class="st5"/><path d="m435.6 129.7 1.2 6.3 4.2-4.5-1.5-4.8zm13.1 150s1.9-10 6.9-15.9 27-5.9 36.8-4.2c9.8 1.7 17.4 13.2 15.7 22.6-1.7 9.4-7.1 19.7-9.6 23.9-2.5 4.2-8.2 5.2-16.9.6-8.9-4.7-32.9-27-32.9-27z" class="st5"/><path d="M402.9 316.3s47.7-.7 64.3-.7c16.6 0 29.3-8.1 29.3-16.6 0-8.5-20.1-23.3-31.8-24.7-11.7-1.4-32.1 12.4-49.1 17.3s-21.5 2.1-25.1 2.1c-3.5 0-9.5-.7-15.2 1.4-5.7 2.1-11.3 11.3-13.8 15.2-2.5 3.9-9.5 8.8-8.5 12.4 1.1 3.5 15.5 8.8 22.3 8.8 6.7 0 12.4-3.5 12.4-3.5s-4.9 9.9 1.1 7.4 8.1-9.5 10.6-12.7c1.5-2.1 3.5-6.4 3.5-6.4z" class="st4"/><path d="M358 305.5v7.4c0 2.6 5.1 4.8 11.5 4.8s11.5-2.1 11.5-4.8v-7.4h-23z" class="st2"/><ellipse cx="369.5" cy="305.5" class="st4" rx="11.5" ry="4.8"/><path d="M375 305.5c0 1.3-2.4 2.3-5.5 2.3s-5.5-1-5.5-2.3 2.4-2.3 5.5-2.3 5.5 1.1 5.5 2.3z" style="fill:#92e3a9;stroke:#263238;stroke-linecap:round;stroke-linejoin:round;stroke-miterlimit:10"/><path d="M402.9 316.3s.7-5.7 0-9.9-3.2-7.1-3.2-7.1m-12.9 3s-4 4.8-2.3 8.8c1.7 4 5.6 10.5 5.4 11.9-.2 1.5-2.2 5-2.2 5" class="st1"/><path d="M357.9 328.8s-8.6-6.1-8.6-9.2c0-3.1 5.2-14.4 7.1-11.3 1.9 3.1.2 7.1-.2 9-.4 1.9 1.9 4.8 1.9 4.8" class="st4"/><path d="M368.8 331.5s-6.9 1-9.8 0c-2.9-1-4.6-15.7-3.1-18.2 1.5-2.5 3.6.2 4.2 2.9.6 2.7 3.1 9.8 5 11.3" class="st4"/><path d="M369 324.2s-8-9.2-9.8-5.2c-1.9 4 6.7 11.7 10.3 13.6s7.5-1 7.5-1" class="st4"/><path d="M381.3 328s-10.3-13.6-13.2-9.6c-2.9 4 5.4 13.2 9 14.6 3.6 1.5 9.2-5 9.2-5m-19.2-53.6s10.6 7.7 11.7 9.3c1.1 1.6 1.1 15.4 1.1 17.7 0 2.4-3.7 4-5.6 2.9-1.9-1.1-3.2-11.7-3.4-14.8-.3-3.2-5-11.4-5-11.4s-1.2-4.5 1.2-3.7z" class="st4"/><path d="M240.5 278.7s-4.2 0-4.8-5.3c-.5-5.3 8.7-28.1 12.2-32.3 3.4-4.2 24.9-3.7 33.9-.3 9 3.4 13.5 8.2 16.4 13.5 2.9 5.3 3.1 9.4 3.2 11.7.1 2.3-9 9.5-24.4 9-15.3-.6-36.5 3.7-36.5 3.7z" class="st5"/><path d="M284.2 255.9s43.7 10.3 55.6 10.3c11.9 0 22.8.8 24.6 2.6 1.9 1.9 6.9 13 7.9 15.9 1.1 2.9-.3 20.9-1.3 23-1.1 2.1-5.6.5-5.6.5l-.8-3.4s-1.1 3.7-6.1 1.9c0 0-3.4 2.9-5 2.9h-2.4s-.5 2.1-4.2 2.1-10.3-2.9-12.7-6.9c-2.4-4-13.5-17.7-14.3-17.5-.8.3-27 5.6-41.9 5.6-14.8 0-33.9-3.2-38.9-11.7s5.3-21.7 14.3-26.8c9.1-4.9 30.8 1.5 30.8 1.5z" class="st4"/><path d="M356.3 278.7s6.4 8.7 7.4 12.2c1.1 3.4 1.1 14 1.1 14m-19.4-18.3s3.7 6.4 6.6 11.1c2.9 4.8 6.6 9 6.6 9m-23.5-13.2s5 6.1 8.5 9.3c3.4 3.2 7.7 6.9 7.7 6.9" class="st1"/><path d="M585.5 316.7c-20.8 11.9-35.3 0-35.3 0l-1.8 15.6c-1.1 9.4-1 18.8.2 28.1h0c.9 7.3 7.1 12.8 14.5 12.8h9.1c7.6 0 14-5.6 14.9-13.2v0c1.1-9.3 1.2-18.8.1-28.1l-1.7-15.2z" class="st4"/><ellipse cx="567.7" cy="316.9" class="st2" rx="17.5" ry="6.4"/><path d="M560.7 319.6c-2.9-.9-5.5-2.5-7.7-4.6-1.5-1.4-3.4-3-5.3-4-4.2-2.1-13.1-3.9-13.1-3.9s7.8-1.8 13.8-.4c6 1.4 10.2 7.4 10.2 7.4s-1.8-2.5-4.2-9.9C552 296.9 552 281 552 281s6 6.7 8.8 14.8c2.8 8.1 3.5 15.2 3.5 15.2s-.7-12.4 1.4-19.4c2.1-7.1 8.1-15.9 8.1-15.9s.4 15.5-2.1 24-3.5 12.3-3.5 12.3 2.1-6.7 7.4-11.6c5.3-4.9 18-9.2 18-9.2s-6 10.9-9.9 14.5c-3.9 3.5-7.8 7.4-7.8 7.4s4.2-3.2 11.6-3.2c7.4 0 16.2 4.9 16.2 4.9s-18.7 0-25.7 3.2c-1.4.7-2.9 1.2-4.4 1.5l-3.8.7c-3 .5-6.1.3-9.1-.6h0z" class="st5"/><path d="m560.6 316.2-4.3-3m9 5.3-6-16m6 16 3.4-21.4m-3.4 21.4 11.4-14m-9 13.7 12-5.4" class="st1"/><path d="M556 344c0 9.4-1.5 17-3.3 17-1.8 0-3.3-7.6-3.3-17s1.5-17 3.3-17c1.8 0 3.3 7.6 3.3 17z" class="st12"/><ellipse cx="567.6" cy="348.7" class="st12" rx="7.2" ry="20.2"/><ellipse cx="581.7" cy="343.6" class="st12" rx="2.5" ry="17.3"/></g></svg>