<svg xmlns="http://www.w3.org/2000/svg" xmlns:xlink="http://www.w3.org/1999/xlink" xml:space="preserve" id="Layer_1" x="0" y="0" style="enable-background:new 0 0 733 500" version="1.1" viewBox="0 0 733 500"><style>.st4{fill:none}.st4,.st5,.st6{stroke:#1a2e35;stroke-linecap:round;stroke-linejoin:round;stroke-miterlimit:10}.st5{fill:#5ae4a7}.st6{fill:#bfbfbf}.st7{fill:#62cc9a}.st9{fill:#1a2e35}.st10{fill:#fff}.st17{fill:none;stroke-miterlimit:10;stroke:#1a2e35}.st18{fill:#5ae4a7}.st21,.st22{stroke-miterlimit:10}.st21{fill:#62cc9a;stroke:#1a2e35;stroke-linecap:round;stroke-linejoin:round}.st22{fill:none;stroke:#fff}.st23{opacity:.6;fill:#1a2e35;enable-background:new}.st24{fill:#bfbfbf;stroke:#1a2e35;stroke-miterlimit:10}.st28,.st29{enable-background:new;opacity:.3;fill:#fff}.st29{opacity:.4;fill:#1a2e35}</style><defs><path id="SVGID_1_" d="M0 0h733v500H0z"/></defs><clipPath id="SVGID_2_"><use xlink:href="#SVGID_1_" style="overflow:visible"/></clipPath><g style="clip-path:url(#SVGID_2_)"><path d="M-128.4 492.7s43.5 171.6 182.6 222.6 253.6-44.8 366-83.6c58.9-20.3 119.9 3.8 180.1 0 192.4-11.9 301.8-297.8 246.7-483C799.3-11.6 691.3-111 513.8-163.4s-300.9-97.3-480.9 16.1C-147.2-33.9-176 268.9-128.4 492.7z" style="fill:#92e3a9"/><path d="M-128.4 492.7s43.5 171.6 182.6 222.6 253.6-44.8 366-83.6c58.9-20.3 119.9 3.8 180.1 0 192.4-11.9 301.8-297.8 246.7-483C799.3-11.6 691.3-111 513.8-163.4s-300.9-97.3-480.9 16.1C-147.2-33.9-176 268.9-128.4 492.7z" style="opacity:.7;fill:#fff;enable-background:new"/></g><defs><path id="SVGID_3_" d="M0 0h733v500H0z"/></defs><clipPath id="SVGID_4_"><use xlink:href="#SVGID_3_" style="overflow:visible"/></clipPath><g style="clip-path:url(#SVGID_4_)"><circle cx="201.1" cy="168.4" r="19.3" class="st4"/><path d="M533.3 113.4c8.3-1.2 18.6 2.7 19.6 12.1.9 8.5-4.9 17.2-10.1 23.4-4.9 5.9-11.6 12.5-19 15-8.5 2.9-11.2-5.9-6-11.5 10.4-11.3 34.9-16.9 47.8-7.3 14.5 10.8 4.7 33.5-8.9 40.3-4.4 2.2-8.3-.6-5.1-5.3 2.4-3.5 7-5.2 11-5.9 8-1.5 20.5.3 23.5 9.3m-70.3-62.7c4-2.6 8.3-4.9 12.9-6.3m-21.1 12.6c1.4-1.2 2.8-2.4 4.2-3.5M373.9 43.1l3.5-3.6-42.1 4 24 10.3m2 .8 16.1 6.9-9.2-12.5 4.4-4.5m79.8.4V30.8m0 24.5v-6.1m14.9 8L477.5 36m18.3 21.8c1.6-1.2 3.1-2.4 4.7-3.6m-20.7 15.9c4-3.1 8.1-6.2 12.1-9.3M154.5 269.3l-21.5-5.6 3.4 29.3 34-19.6-14-3.6m419.8-11.3 23.8 8.3m-36.7 109.8c1.9 2 4.6 3.3 7.6 3.3 5.7 0 10.4-4.7 10.4-10.4 0-3.2-1.5-6.1-3.7-8m-1.9-1.2c-1.4-.8-3.1-1.2-4.8-1.2-5.7 0-10.4 4.7-10.4 10.4 0 2 .6 3.9 1.6 5.5m-391.3-37.9c-3.1 8-6.2 15.9-9.2 23.9m12.2-31.7c-.4 1.2-.9 2.3-1.3 3.5M245.7 193l25.5 14.7m-53.7-103.1c-6.9 4.5-13.8 8.9-20.7 13.4m28-18.2c-1.1.7-2.1 1.4-3.2 2m359.7 11.4v9l6.8-1.8z" class="st4"/><path d="M292.4 126c-1.2-3.4 11.7-18.6 11.7-18.6l7 7.4c0 .1-16.4 17.9-18.7 11.2z" class="st5"/><path d="M274.7 104.1c3.8 3.3 6.3.8 6.3.8s-.6 2.4 1.9 3.1c1.7.5 8.5-2.7 13.1-2.7 0 0 2.3 10.9 2 22.6 0 0 15.7 1.6 17.8-9.6 0 0-3-7.1-5-13.6-2.8-8.8-3.1-11.2-4.6-13.1-2.3-2.9-21.3-8-26.4-8.2s-7.9 19.2-14.2 28.2c0 0 2 1.2 4.6-.5 1.6-1.2 4.5-7 4.5-7z" class="st6"/><path d="M274.7 104.1c3.1-7.8 7-11 7-11s1.1-2.8 0-3.6m-.7 15.3c.2-2.3 8.4-4.8 9.4-6.2 1-1.4 0-7.2 0-7.2m5.6 13.8c3 0 6.1-2.8 6.8-4.9" class="st4"/><path d="M281.8 93s2.7 1.9 4.9 1.9c0 0 2.7 1.3 2.7 4.5m-6.6-2.2s-2.1 2.2-1.8 5.3m-2.5-3.7s1.9-1.3 2.8 0" class="st4"/><path id="XMLID_90_" d="M419.1 175.1s-13.2-9.6-24.6-7.9c0 0-60.4 6.8-61.8 6.8 0 0-16.2-61.3-19.3-66.5 0 0-.6-4.3-2.3-4.9 0 0-7.1 19.6-18.8 23.5 0 0 1.1 3.7 3.7 3.7 0 0-.4 66.6 8.9 74.5 9.4 7.9 88.3 14.5 88.3 14.5l25.9-43.7z" class="st7"/><defs><path id="SVGID_5_" d="M419.1 175.1s-13.2-9.6-24.6-7.9c0 0-60.4 6.8-61.8 6.8 0 0-16.2-61.3-19.3-66.5 0 0-.6-4.3-2.3-4.9 0 0-7.1 19.6-18.8 23.5 0 0 1.1 3.7 3.7 3.7 0 0-.4 66.6 8.9 74.5 9.4 7.9 88.3 14.5 88.3 14.5l25.9-43.7z"/></defs><clipPath id="SVGID_6_"><use xlink:href="#SVGID_5_" style="overflow:visible"/></clipPath><path d="m375.9 212.4-3.9 4.3c-24.1-2.5-60.7-7.2-66.9-12.4-9.3-7.9-8.9-74.5-8.9-74.5-1.7 0-2.7-1.6-3.2-2.7 8.7-.4 19.3-9.1 19.3-9.1 1.7 9.3-10.5 20-10.5 20s-.6 38.2 4.5 57.5 69.6 16.9 69.6 16.9z" style="opacity:.2;clip-path:url(#SVGID_6_);enable-background:new"/><path d="M419.1 175.1s-13.2-9.6-24.6-7.9c0 0-60.4 6.8-61.8 6.8 0 0-16.2-61.3-19.3-66.5 0 0-.6-4.3-2.3-4.9 0 0-7.1 19.6-18.8 23.5 0 0 1.1 3.7 3.7 3.7 0 0-.4 66.6 8.9 74.5 9.4 7.9 88.3 14.5 88.3 14.5l25.9-43.7z" class="st4"/><path d="M399.2 178.5s2.4-8.2 13.3-6.3c10.8 1.9 37.8 2.6 51.4-1.6 0 0-34.8 45.1-55.3 37-20.6-8.1-9.4-29.1-9.4-29.1z" class="st6"/><path d="M457.3 79.8s-3.1-10.7-11-8.4c-7.8 2.3-6.8 2-11.1-.3s-7-.3-8.5 3-4.5 2.5-9.1.9-8.6.5-8.4 4.9-5.7-.2-9 4.8c-3.3 4.9-1.3 4.6-2 8.6s-7.6 6.3-6.3 9.9c1.3 3.6 6.6 9.9 1.6 12.5-4.9 2.6-6.6 10.9-1.8 13.4s-4 9.9-.8 16.6c2.9 6.2 10.9 7.6 7.3 13.8-1.6 2.7-1.1 4.9 0 6.5.9 1.3 2.9.7 2.9-.8 0-.8.2-1.6.7-2.4 1.6-2.6 3.9 0 6.6-4.9 0 0-1.7 5.6 3.9 7.6 2.9 1 3.5 2.8 3.3 4.2-.1 1.1 1.2 1.8 2 1.1.9-.9 1.6-2.3 1.3-4.6 0 0 9.2 7.6 15.8 5.9 6.6-1.6 15.2-4 15.5-8.9 0 0 1.7 2.2 1.9 4.8.1 1.4 1.8 2 2.7.9 1.1-1.4 2.1-3.2 2.2-5.4 0 0 .8 2.6 3.2 3.9 1.4.8 3.1-.6 2.7-2.2-.3-1.3-.2-2.8 1.3-3.7 3.3-2 5.6-5.6 3.6-10.2 0 0 5 3.3 3.3 8.2-.7 2.1-.3 3.6.5 4.7.8.9 2.2.1 1.8-1-.4-1-.5-2.2.4-3.6 2.3-3.6 8.3-8 3.6-13.1-4.6-5.1-1.3-8.3-1.3-8.3s-.7 3.3 4.9 5.4c5.6 2.1 2.1 5.2 2.7 7.5.2.9.7 1.6 1.2 2.2 1 1 2.6-.2 1.9-1.4-.6-1.1-.9-2.3-.3-3.5 2.8-5.1-4.6-7.4-5.4-11.9-.7-4.3.3-9.5.8-13.8.4-3.8.7-6.6-1.7-9.9-1.6-2.1-3.5-4.1-4.3-6.6-.6-1.9-.4-4-.2-6s.3-4.1-.3-5.9c-1.4-3.8-5.9-3.2-7.9-6.4-1.9-3-.3-7-3.9-9.1-1.7-1.5-4.5-.7-6.3 1z" class="st9"/><path d="M420.4 179.4c5.2-3.3 2.7-14.1.6-20.7-1-3.1-1.9-5.3-1.9-5.3h.1l27.2-14c-3.4 14.5 0 34.2 0 34.2" class="st6"/><path d="M430.6 153.4s-3.4 5.1-9.6 5.3c-1-3.1-1.9-5.3-1.9-5.3h11.5z" class="st9"/><path d="M443 147.7c8.4-5.3 15.5-13.3 17.2-24.9 3.3-21.1 3-40.4-33.2-38-15.9 1-22 16.7-21.9 21.6.3 11.4-8.8 31.5 2.5 48.1 1.7 2.5 12.6 2.6 24.2-1.4" class="st6"/><path d="M423.7 109.6s5.7-2.1 9 6.3m-20.8-7.3s-3.1-2.6-6.7-2.2m7.5 14.4c-3 4.9-6.6 2.4-6.4 4.9.1 2 4.8 5.5 4.8 5.5" class="st4"/><path d="M428.1 120.9c-.3 1.3-1.3 2.2-2.2 2-.9-.2-1.4-1.5-1.1-2.8s1.3-2.2 2.2-2c1 .2 1.5 1.5 1.1 2.8zm-17.4-3.2c-.2 1.3-1.1 2.3-2.1 2.2-.9-.1-1.5-1.4-1.3-2.7.2-1.3 1.1-2.3 2.1-2.2.9.1 1.5 1.3 1.3 2.7z" class="st9"/><path id="XMLID_89_" d="M420.7 136s-.4 1-1.2 2.3c-1.4 2.3-3.8 5.2-6.8 4.3-.9-.3-1.3-1.6-1.5-3-.2-1.9-.1-3.9-.1-3.9s1 .3 4.8.5c3.2.2 4.8-.2 4.8-.2z" class="st10"/><defs><path id="SVGID_7_" d="M420.7 136s-.4 1-1.2 2.3c-1.4 2.3-3.8 5.2-6.8 4.3-.9-.3-1.3-1.6-1.5-3-.2-1.9-.1-3.9-.1-3.9s1 .3 4.8.5c3.2.2 4.8-.2 4.8-.2z"/></defs><clipPath id="SVGID_8_"><use xlink:href="#SVGID_7_" style="overflow:visible"/></clipPath><path d="M420.7 136s-.4 1-1.2 2.3c-2.9-.5-6.2.5-8.3 1.3-.2-1.9-.1-3.9-.1-3.9l9.6.3z" style="opacity:.4;clip-path:url(#SVGID_8_);enable-background:new"/><path d="M420.7 136s-.4 1-1.2 2.3c-1.4 2.3-3.8 5.2-6.8 4.3-.9-.3-1.3-1.6-1.5-3-.2-1.9-.1-3.9-.1-3.9s1 .3 4.8.5c3.2.2 4.8-.2 4.8-.2z" class="st4"/><path d="M426.8 93.5s.9-2 2.7 2c1.8 4-5.7 7.9 0 10.9s6 10 3.2 12.8c-2.8 2.7 4.5 4.1 5.5 6.7s-2 4.8-1.3 8 4.8 6.4 4.7 8.1c-.1 1.7-3.7 4.5-1.2 7.4s9.4 1.1 10 7c0 0 20.8-23.1 21.1-44.6.3-21.5-15.2-30.4-31-31.7s-40.2 6.3-42.2 33.8c0 0 .7-1.7 3.6-2.1s4.3-4.3 4-8.6c-.3-4.3 2.6-1.6 6.6-2.6s2.7-6.6 5.3-7.6c2.6-1.2 4.6 4.1 9 .5z" class="st9"/><path d="M412.5 84.2c-.2 2.6-8.2.3-12.4 2.6-4.1 2.3-3.1 6.3-2.8 8.6.3 2.3-3.4 5.3-6.5 7.1-3.1 1.8-3.1 5.5.9 9s.6 4.5-3.1 7.6-3.5 7 0 9.2m35.1-36.6s6.7 1.3 4.8 5.1c-2 3.8-4.8 8.5 1 12.8 5.8 4.2-2.5 9 1.1 12.8s7.3 3.6 4.7 9.9c-2.7 6.3 2.1 7.8 2.1 7.8m-27.7-4.8s6.6 1.7 11.7.6" class="st4"/><path d="M455.9 145.6c-.8 1-.3 2.2.6 3m0-12.7c2.9 1.5 3.7 4 1.9 6.9m-20.1-47.6c.2 5.1 2.3 10.5 7.7 13.7 2.1 2.1 1.1 4.3 0 7.5 0 4.3 6.4 4.3 7.5 7.5 0 3.2-5.4 6.4-.1 10.3m-17.8-48c1.4 1.5 2.1 3.5 2.4 5.6m32.3 46.2c-.2 1.1-.1 2.3.3 3.3m-6.9-15.7c-1.2 3.1 1.7 2.8 3.7 3.1 3.3.4 4.4 2.4 3.6 5.8m-20.2-38c.6 6.2 10.4 5.4 8.7 12.6-.8 3.3-.7 5.4 2 8.2 1.4 1.5 4.2 2.5 3.2 4.9m11.3 1.9c-.3 1.1-.4 2.3-.2 3.4m-16.6-39.1c2.2.2 1.5 2.9 2.2 4.3.9 2 2.6 2.4 4.3 3.5 3.4 2.1 3.1 4.1 2.7 7.7-.5 4.2.9 6 4.4 8.1 3.6 2.1 5.6 3.9 4.3 8.4m-69.9-26.9c-3.1 1.5-8.5 1.9-7.6 6.4s4.8 6.7.2 10.7c-3.9 3.4-3.5 5.1-.9 9.1 2.1 3.3 2.7 6.3.1 9.7m20.1-42.7c-5.4-4.7-6.5 1.8-8.7 4.7" style="stroke:#fff;stroke-linecap:round;stroke-linejoin:round;fill:none;stroke-miterlimit:10"/><path id="XMLID_91_" d="M404.2 171.3s-9.8 10.8 1.3 19.2c11.1 8.4 51.4-19.9 51.4-19.9s14.5-3.7 22.1 1.2.5 63.5-15.1 88.9c-4.6 7.5-10.1 18.8-10.1 18.8s1.6 9.8-7.4 12.8c-17 5.7-60.5 5.4-73.1-1.7-14.9-8.3.1-5.7.9-50.9 0 0-6.5-16.7-4-28.6.9-4.4 3.6-10.9 7.4-17.4" class="st7"/><defs><path id="SVGID_9_" d="M404.2 171.3s-9.8 10.8 1.3 19.2c11.1 8.4 51.4-19.9 51.4-19.9s14.5-3.7 22.1 1.2.5 63.5-15.1 88.9c-4.6 7.5-10.1 18.8-10.1 18.8s1.6 9.8-7.4 12.8c-17 5.7-60.5 5.4-73.1-1.7-14.9-8.3.1-5.7.9-50.9 0 0-6.5-16.7-4-28.6.9-4.4 3.6-10.9 7.4-17.4"/></defs><clipPath id="SVGID_10_"><use xlink:href="#SVGID_9_" style="overflow:visible"/></clipPath><path d="M463.9 260.7c-4.6 7.5-10.1 18.8-10.1 18.8s1.6 9.8-7.4 12.8c-17 5.7-60.5 5.4-73.2-1.7-14.9-8.3.1-5.7.9-50.9 0 0-2.3-5.9-3.7-13.2 9.8 5.7 21.2 5.1 21.2 5.1 9.8-20.3 23.8-16.5 23.8-16.5s3.8-3.4 8.2-6.6c4.4-3.2 18.1-.8 18.1-.8l16-3.2c-.3-6 5.5-5.4 5.5-5.4l2.2 2.1c-1.3-4.9 0-7.9 0-7.9l14.1 17.7c-2.7 17.8-8.2 37.6-15.6 49.7z" style="opacity:.2;clip-path:url(#SVGID_10_);enable-background:new"/><path d="M404.2 171.3s-9.8 10.8 1.3 19.2c11.1 8.4 51.4-19.9 51.4-19.9s14.5-3.7 22.1 1.2.5 63.5-15.1 88.9c-4.6 7.5-10.1 18.8-10.1 18.8s1.6 9.8-7.4 12.8c-17 5.7-60.5 5.4-73.1-1.7-14.9-8.3.1-5.7.9-50.9 0 0-6.5-16.7-4-28.6.9-4.4 3.6-10.9 7.4-17.4m-8.8 8.2c.4 2 1 4.1 2.2 5.9m-2.8-14.5c-.1 1.8 0 3.5.1 5.3M332.7 174s-7.9 7.9-6.4 13.8m1.3-12.2c1.7-1 3.3-2.1 4.7-3.4m-11 6.2c1.1-.4 2.1-.8 3.2-1.3M296 129.8s11.4-2.3 16.1-11.7" class="st4"/><path d="M420.2 194.5c1.4-.3 2.8-.7 4.2-1.2m-24.1-22.9c-2.9 4.6-4.8 10.8-3 16.2 2.8 8.1 12 9.7 19.5 8.6" class="st4"/><path d="M400.3 179.4s8.3 6.5 13.2 8.4" class="st4"/><path id="XMLID_93_" d="M459.3 217.9s-24.9 1.1-34.7.1c-6.3-.7-8.3 2.5-16.9 4.1-3.2.6-10 10.6-10 10.6l1.1 13.1s7.5 5.4 8.5 3.9-2.6-5-2.6-5l6.6 1.1s.4-2.6-2-4.6l3.9-4.3s4.9 1.5 10.4-3.3l37.2 1.4-1.5-17.1z" style="fill:#bfbfbf"/><defs><path id="SVGID_11_" d="M459.3 217.9s-24.9 1.1-34.7.1c-6.3-.7-8.3 2.5-16.9 4.1-3.2.6-10 10.6-10 10.6l1.1 13.1s7.5 5.4 8.5 3.9-2.6-5-2.6-5l6.6 1.1s.4-2.6-2-4.6l3.9-4.3s4.9 1.5 10.4-3.3l37.2 1.4-1.5-17.1z"/></defs><clipPath id="SVGID_12_"><use xlink:href="#SVGID_11_" style="overflow:visible"/></clipPath><path d="m460.7 235-37.2-1.4c-5.4 4.8-10.4 3.3-10.4 3.3l-3.9 4.3c2.5 1.9 2 4.6 2 4.6l-6.6-1.1s3.6 3.5 2.6 5-8.5-3.9-8.5-3.9l-1.1-13.1s2.4-3.6 5.1-6.6c7 4.3 25.3 1 25.3 1 .1-3.2 2-6.5 3.6-8.8 11.4.3 27.7-.5 27.7-.5l1.4 17.2z" style="opacity:.2;clip-path:url(#SVGID_12_);enable-background:new"/><path d="M459.3 217.9s-24.9 1.1-34.7.1c-6.3-.7-8.3 2.5-16.9 4.1-3.2.6-10 10.6-10 10.6l1.1 13.1s7.5 5.4 8.5 3.9-2.6-5-2.6-5l6.6 1.1s.4-2.6-2-4.6l3.9-4.3s4.9 1.5 10.4-3.3l37.2 1.4-1.5-17.1z" class="st4"/><path d="M413.1 236.9s-4-.3-5.8-5.3" class="st4"/><path d="M411.7 236.5s-6.6 5.4-10.3 1.7" class="st4"/><path d="M404.2 239.5s1 3.6.4 5.3m4.6-3.6s-2 .7-3.3.5" class="st4"/><path id="XMLID_94_" d="M544.3 236.1v230.3c0 1.5-1.2 2.8-2.8 2.8h-348c-1.5 0-2.8-1.2-2.8-2.8V236.1c0-1.5 1.2-2.8 2.8-2.8h348.1c1.5 0 2.7 1.2 2.7 2.8z" class="st10"/><defs><path id="SVGID_13_" d="M544.3 236.1v230.3c0 1.5-1.2 2.8-2.8 2.8h-348c-1.5 0-2.8-1.2-2.8-2.8V236.1c0-1.5 1.2-2.8 2.8-2.8h348.1c1.5 0 2.7 1.2 2.7 2.8z"/></defs><clipPath id="SVGID_14_"><use xlink:href="#SVGID_13_" style="overflow:visible"/></clipPath><path d="M544.3 236.1v10.3c-9.7 3.4-24 6-35.6 5.4-15.5-.8-73.6-13.8-94.2-18.6h127c1.6.1 2.8 1.3 2.8 2.9z" style="opacity:.2;clip-path:url(#SVGID_14_);enable-background:new"/><path d="M544.3 236.1v230.3c0 1.5-1.2 2.8-2.8 2.8h-348c-1.5 0-2.8-1.2-2.8-2.8V236.1c0-1.5 1.2-2.8 2.8-2.8h348.1c1.5 0 2.7 1.2 2.7 2.8z" class="st17"/><path d="M218.3 233.3v235.8h-24.8c-1.5 0-2.8-1.2-2.8-2.8V236.1c0-1.5 1.2-2.8 2.8-2.8h24.8z" class="st9"/><path d="m204.5 244.2-7.8 4.3 7.8 4.4 7.7-4.4z" class="st7"/><path d="m204.5 254.7-5.4-3.1-2.4 1.3 7.8 4.4 7.7-4.4-2.3-1.3z" class="st7"/><path d="m204.5 259-5.4-3-2.4 1.3 7.8 4.3 7.7-4.3-2.3-1.3z" class="st7"/><path id="XMLID_86_" d="M289.3 277.4c0 8.2-3.4 15.6-8.9 20.9-2.3 2.2-5 4.1-8 5.4-3.6 1.7-7.7 2.6-12 2.6-1.2 0-2.3-.1-3.4-.2-7.7-.9-14.4-4.8-19-10.5-4-5-6.4-11.3-6.4-18.2 0-16 12.9-28.9 28.9-28.9s28.8 12.9 28.8 28.9z" class="st18"/><defs><path id="SVGID_15_" d="M289.3 277.4c0 8.2-3.4 15.6-8.9 20.9-2.3 2.2-5 4.1-8 5.4-3.6 1.7-7.7 2.6-12 2.6-1.2 0-2.3-.1-3.4-.2-7.7-.9-14.4-4.8-19-10.5-4-5-6.4-11.3-6.4-18.2 0-16 12.9-28.9 28.9-28.9s28.8 12.9 28.8 28.9z"/></defs><clipPath id="SVGID_16_"><use xlink:href="#SVGID_15_" style="overflow:visible"/></clipPath><path d="M289.3 277.4c0 8.2-3.4 15.6-8.9 20.9-2.3 2.2-5 4.1-8 5.4-3.6 1.7-7.7 2.6-12 2.6-1.2 0-2.3-.1-3.4-.2-7.7-.9-14.4-4.8-19-10.5-4-5-6.4-11.3-6.4-18.2 0-16 12.9-28.9 28.9-28.9s28.8 12.9 28.8 28.9z" style="opacity:.6;clip-path:url(#SVGID_16_);fill:#fff;enable-background:new"/><path d="M289.3 277.4c0 8.2-3.4 15.6-8.9 20.9-2.3 2.2-5 4.1-8 5.4-3.6 1.7-7.7 2.6-12 2.6-1.2 0-2.3-.1-3.4-.2-7.7-.9-14.4-4.8-19-10.5-4-5-6.4-11.3-6.4-18.2 0-16 12.9-28.9 28.9-28.9s28.8 12.9 28.8 28.9z" class="st4"/><path d="M272.4 303.7c-3.6 1.7-7.7 2.6-12 2.6-1.2 0-2.3-.1-3.4-.2-6.4-4.6-12.1-12.1-12.1-12.1 1.2.4 2.6.6 4.1.8 1 .1 2 .2 3.1.3 3.2.2 6.6.2 9.4 0 1.8-.1 3.3-.3 4.5-.5 2.1-.4 3.5.2 4.3.9.9.8 1.2 1.7 1.2 1.7s1.4 3.3.9 6.5z" class="st6"/><path d="M247.5 256.9s1.3-4.4 4.5-3.4c3.2.9 2.8.8 4.5-.1 1.8-.9 2.9-.1 3.5 1.2s1.8 1 3.7.4c1.9-.6 3.5.2 3.5 2-.1 1.8 2.3-.1 3.7 1.9 1.3 2 .5 1.9.8 3.5s3.1 2.6 2.6 4c-.5 1.5-2.7 4-.7 5.1s2.7 4.5.7 5.5 1.6 4 .3 6.8c-1.2 2.5-4.4 3.1-3 5.7.6 1.1.4 2 0 2.7-.4.5-1.2.3-1.2-.3 0-.3-.1-.7-.3-1-.7-1.1-1.6 0-2.7-2 0 0 .7 2.3-1.6 3.1-1.2.4-1.4 1.1-1.3 1.7.1.5-.5.8-.8.4-.4-.4-.7-.9-.5-1.9 0 0-3.8 3.1-6.5 2.4-2.7-.7-6.2-1.6-6.3-3.6 0 0-.7.9-.8 2-.1.6-.8.8-1.1.4-.5-.6-.9-1.3-.9-2.2 0 0-.3 1.1-1.3 1.6-.6.3-1.3-.3-1.1-.9.1-.5.1-1.1-.5-1.5-1.3-.8-2.3-2.3-1.5-4.2 0 0-2 1.3-1.4 3.4.3.9.1 1.5-.2 1.9s-.9 0-.7-.4.2-.9-.2-1.5c-.9-1.5-3.4-3.3-1.5-5.4s.5-3.4.5-3.4.3 1.3-2 2.2c-2.3.9-.9 2.1-1.1 3.1-.1.4-.3.7-.5.9-.4.4-1.1-.1-.8-.6.2-.4.4-1 .1-1.4-1.2-2.1 1.9-3 2.2-4.9.3-1.8-.1-3.9-.3-5.6-.2-1.5-.3-2.7.7-4 .6-.9 1.4-1.7 1.7-2.7.2-.8.1-1.6.1-2.4-.1-.8-.1-1.7.1-2.4.6-1.6 2.4-1.3 3.2-2.6.8-1.2.1-2.9 1.6-3.7.9-.8 2-.5 2.8.2z" class="st9"/><path d="M262.6 297.7c-2.1-1.3-1.1-5.8-.3-8.5.4-1.3.8-2.2.8-2.2h0l-11.1-5.7c1.4 5.9 0 14 0 14" class="st6"/><path d="M258.4 287s1.4 2.1 3.9 2.2c.4-1.3.8-2.2.8-2.2h-4.7z" class="st9"/><path d="M253.3 284.7c-3.4-2.2-6.3-5.4-7.1-10.2-1.3-8.6-1.2-16.5 13.6-15.6 6.5.4 9 6.8 9 8.8-.1 4.7 3.6 12.9-1 19.7-.7 1-5.2 1-9.9-.6" class="st6"/><path d="M261.2 269.1s-2.3-.9-3.7 2.6m8.5-3s1.3-1.1 2.8-.9m-3.1 5.9c1.2 2 2.7 1 2.6 2-.1.8-2 2.3-2 2.3" class="st4"/><path d="M259.4 273.7c.1.5.5.9.9.8s.6-.6.4-1.1c-.1-.5-.5-.9-.9-.8-.3.1-.5.6-.4 1.1zm7.1-1.3c.1.5.5.9.8.9.4-.1.6-.6.5-1.1s-.5-.9-.8-.9-.5.5-.5 1.1z" class="st9"/><path d="M262.4 279.9s1.4 3.3 3.3 2.7c.9-.3.6-2.8.6-2.8" style="fill:#fff;stroke:#1a2e35;stroke-linecap:round;stroke-linejoin:round;stroke-miterlimit:10"/><path d="M259.9 262.5s-.4-.8-1.1.8c-.7 1.6 2.3 3.2 0 4.4s-2.4 4.1-1.3 5.2-1.8 1.7-2.2 2.7c-.4 1.1.8 2 .5 3.3s-2 2.6-1.9 3.3c0 .7 1.5 1.8.5 3s-3.8.5-4.1 2.9c0 0-8.5-9.4-8.6-18.2-.1-8.8 6.2-12.4 12.7-13s16.5 2.6 17.3 13.8c0 0-.3-.7-1.5-.9-1.2-.2-1.8-1.8-1.6-3.5.1-1.8-1-.7-2.7-1.1-1.6-.4-1.1-2.7-2.2-3.1-1.1-.3-1.9 1.9-3.8.4z" class="st9"/><path d="M265.8 258.7c.1 1.1 3.4.1 5.1 1.1 1.7.9 1.3 2.6 1.1 3.5-.1.9 1.4 2.2 2.7 2.9 1.3.7 1.3 2.3-.4 3.7-1.6 1.4-.2 1.8 1.3 3.1s1.5 2.8 0 3.8m-14.4-15s-2.8.5-1.9 2.1 1.9 3.5-.4 5.2c-2.4 1.7 1 3.7-.5 5.2-1.5 1.6-3 1.5-1.9 4 1.1 2.6-.9 3.2-.9 3.2m11.4-1.9s-2.7.7-4.8.2" class="st4"/><path d="M280.4 298.3c-2.3 2.2-5 4.1-8 5.4-3.6 1.7-7.7 2.6-12 2.6-1.2 0-2.3-.1-3.4-.2-7.7-.9-14.4-4.8-19-10.5.2-.5.4-.9.7-1.1 3.1-2 9.1-.5 9.1-.5s.4.3 1.2.8c3.9 2.6 16 10.2 19.8 7.3 3-2.3 2.2-5 1.4-6.6-.4-.8-.9-1.3-.9-1.3s5.1-2 11.1 4.1z" class="st21"/><circle cx="285.4" cy="296.3" r="10" class="st9"/><path d="M287.2 301.5h-3.6c-1.9 0-3.5-1.6-3.5-3.5v-3.6c0-1.9 1.6-3.5 3.5-3.5h3.6c1.9 0 3.5 1.6 3.5 3.5v3.6c0 2-1.6 3.5-3.5 3.5z" class="st22"/><path d="M287.4 296.3c0 1.1-.9 1.9-1.9 1.9-1.1 0-1.9-.9-1.9-1.9 0-1.1.9-1.9 1.9-1.9 1-.1 1.9.8 1.9 1.9z" class="st22"/><path d="M289 293.7c0 .4-.3.6-.6.6-.4 0-.6-.3-.6-.6 0-.4.3-.6.6-.6.3-.1.6.2.6.6z" class="st10"/><path d="M337.2 273.5h-36.5c-2.1 0-3.9 1.7-3.9 3.9 0 2.1 1.7 3.9 3.9 3.9h36.5c2.1 0 3.9-1.7 3.9-3.9-.1-2.1-1.8-3.9-3.9-3.9z" class="st9"/><path d="M390.2 246.3h-26.3c-1.5 0-2.8 1.2-2.8 2.8 0 1.5 1.2 2.8 2.8 2.8h26.3c1.5 0 2.8-1.2 2.8-2.8s-1.3-2.8-2.8-2.8z" class="st23"/><path d="M351 239.5v223.6" class="st17"/><circle cx="248.3" cy="343.5" r="13.2" class="st24"/><path d="M266.2 352.1c0 2.6-2.1 4.7-4.7 4.7s-4.7-2.1-4.7-4.7 2.1-4.7 4.7-4.7 4.7 2.1 4.7 4.7z" class="st21"/><circle cx="248.3" cy="387" r="13.2" class="st24"/><path d="M266.2 395.6c0 2.6-2.1 4.7-4.7 4.7s-4.7-2.1-4.7-4.7 2.1-4.7 4.7-4.7 4.7 2.1 4.7 4.7z" class="st5"/><circle cx="248.3" cy="430.5" r="13.2" class="st24" transform="rotate(-45.001 248.272 430.522)"/><path d="M266.2 439.1c0 2.6-2.1 4.7-4.7 4.7s-4.7-2.1-4.7-4.7 2.1-4.7 4.7-4.7 4.7 2.1 4.7 4.7z" class="st5"/><g style="opacity:.3"><path d="M364.3 260.7H536v51.2H364.3zm0 135.3H536v51.2H364.3zm0-79.5H536v51.2H364.3z" style="opacity:.4;enable-background:new"/></g><path id="XMLID_95_" d="M361.1 258.5h171.7v51.2H361.1z" class="st18"/><defs><path id="SVGID_17_" d="M361.1 258.5h171.7v51.2H361.1z"/></defs><clipPath id="SVGID_18_"><use xlink:href="#SVGID_17_" style="overflow:visible"/></clipPath><path d="M361.1 258.5h171.7v51.2H361.1z" style="opacity:.6;clip-path:url(#SVGID_18_);fill:#fff;enable-background:new"/><path d="M361.1 258.5h171.7v51.2H361.1z" class="st17"/><path d="M367.1 263.7h45.1v34.4h-45.1z" class="st9"/><path d="M412.2 289.8v8.3h-45.1v-7.7l14.2-10.6 14.7 10.6 8.3-5.3zm-11.4-16.4c0 2.5-2 4.5-4.5 4.5s-4.5-2-4.5-4.5 2-4.5 4.5-4.5 4.5 2 4.5 4.5z" class="st28"/><path d="M386.3 301.3h-17.8c-1 0-1.9.8-1.9 1.9s.8 1.9 1.9 1.9h17.8c1 0 1.9-.8 1.9-1.9s-.9-1.9-1.9-1.9zm138.4-36.4H420.9c-1 0-1.9.8-1.9 1.9 0 1 .8 1.9 1.9 1.9h103.7c1 0 1.9-.8 1.9-1.9.1-1.1-.8-1.9-1.8-1.9zm0 10.7H420.9c-1 0-1.9.8-1.9 1.9s.8 1.9 1.9 1.9h103.7c1 0 1.9-.8 1.9-1.9s-.8-1.9-1.8-1.9zm-21.5 10.8H421c-1 0-1.9.8-1.9 1.9 0 1 .8 1.9 1.9 1.9h82.2c1 0 1.9-.8 1.9-1.9 0-1.1-.9-1.9-1.9-1.9z" class="st29"/><path d="M390.2 381.6h-26.3c-1.5 0-2.8 1.2-2.8 2.8 0 1.5 1.2 2.8 2.8 2.8h26.3c1.5 0 2.8-1.2 2.8-2.8 0-1.5-1.3-2.8-2.8-2.8z" class="st23"/><path id="XMLID_105_" d="M361.1 393.9h171.7v51.2H361.1z" class="st18"/><defs><path id="SVGID_19_" d="M361.1 393.9h171.7v51.2H361.1z"/></defs><clipPath id="SVGID_20_"><use xlink:href="#SVGID_19_" style="overflow:visible"/></clipPath><path d="M361.1 393.9h171.7v51.2H361.1z" style="opacity:.6;clip-path:url(#SVGID_20_);fill:#fff;enable-background:new"/><path d="M361.1 393.9h171.7v51.2H361.1z" class="st17"/><path d="M367.1 399.1h45.1v34.4h-45.1z" class="st9"/><path d="M412.2 425.1v8.4h-45.1v-7.8l14.2-10.5 14.7 10.5 8.3-5.3zm-11.4-16.3c0 2.5-2 4.5-4.5 4.5s-4.5-2-4.5-4.5 2-4.5 4.5-4.5 4.5 2 4.5 4.5z" class="st28"/><path d="M386.3 436.7h-17.8c-1 0-1.9.8-1.9 1.9s.8 1.9 1.9 1.9h17.8c1 0 1.9-.8 1.9-1.9s-.9-1.9-1.9-1.9zm138.4-36.5H420.9c-1 0-1.9.8-1.9 1.9s.8 1.9 1.9 1.9h103.7c1 0 1.9-.8 1.9-1.9s-.8-1.9-1.8-1.9zm0 10.8H420.9c-1 0-1.9.8-1.9 1.9s.8 1.9 1.9 1.9h103.7c1 0 1.9-.8 1.9-1.9s-.8-1.9-1.8-1.9zm-21.5 10.7H421c-1 0-1.9.8-1.9 1.9 0 1 .8 1.9 1.9 1.9h82.2c1 0 1.9-.8 1.9-1.9 0-1-.9-1.9-1.9-1.9z" class="st29"/><path id="XMLID_104_" d="M361.1 314.4h171.7v51.2H361.1z" class="st18"/><defs><path id="SVGID_21_" d="M361.1 314.4h171.7v51.2H361.1z"/></defs><clipPath id="SVGID_22_"><use xlink:href="#SVGID_21_" style="overflow:visible"/></clipPath><path d="M361.1 314.4h171.7v51.2H361.1z" style="opacity:.6;clip-path:url(#SVGID_22_);fill:#fff;enable-background:new"/><path d="M361.1 314.4h171.7v51.2H361.1z" class="st17"/><path d="M367.1 319.6h45.1V354h-45.1z" class="st9"/><path d="M412.2 345.6v8.4h-45.1v-7.8l14.2-10.5 14.7 10.5 8.3-5.3zm-11.4-16.3c0 2.5-2 4.5-4.5 4.5s-4.5-2-4.5-4.5 2-4.5 4.5-4.5 4.5 2 4.5 4.5z" class="st28"/><path d="M386.3 357.2h-17.8c-1 0-1.9.8-1.9 1.9s.8 1.9 1.9 1.9h17.8c1 0 1.9-.8 1.9-1.9s-.9-1.9-1.9-1.9zm138.4-36.5H420.9c-1 0-1.9.8-1.9 1.9s.8 1.9 1.9 1.9h103.7c1 0 1.9-.8 1.9-1.9s-.8-1.9-1.8-1.9zm0 10.8H420.9c-1 0-1.9.8-1.9 1.9 0 1 .8 1.9 1.9 1.9h103.7c1 0 1.9-.8 1.9-1.9.1-1.1-.8-1.9-1.8-1.9zm-21.5 10.7H421c-1 0-1.9.8-1.9 1.9s.8 1.9 1.9 1.9h82.2c1 0 1.9-.8 1.9-1.9s-.9-1.9-1.9-1.9zm-177.5-.5h-51.1c-1 0-1.9.8-1.9 1.9s.8 1.9 1.9 1.9h51.1c1 0 1.9-.8 1.9-1.9s-.9-1.9-1.9-1.9zm0 87h-51.1c-1 0-1.9.8-1.9 1.9s.8 1.9 1.9 1.9h51.1c1 0 1.9-.8 1.9-1.9s-.9-1.9-1.9-1.9zm0-43.5h-51.1c-1 0-1.9.8-1.9 1.9s.8 1.9 1.9 1.9h51.1c1 0 1.9-.8 1.9-1.9s-.9-1.9-1.9-1.9z" class="st29"/><path id="XMLID_92_" d="M475.8 170.4c15.3 5 52.4 24.9 58.8 33.4 6.4 8.5 1.8 26.2-12.3 30.7-14.2 4.5-80.5 0-80.5 0s-5.3 3.5-6.9 2-2.2-25.8 3.4-25.6c4.5.2 6.3 2.3 6.3 2.3l28.9-5.5s-9.7-11.4-9.7-23" class="st7"/><defs><path id="SVGID_23_" d="M475.8 170.4c15.3 5 52.4 24.9 58.8 33.4 6.4 8.5 1.8 26.2-12.3 30.7-14.2 4.5-80.5 0-80.5 0s-5.3 3.5-6.9 2-2.2-25.8 3.4-25.6c4.5.2 6.3 2.3 6.3 2.3l28.9-5.5s-9.7-11.4-9.7-23"/></defs><clipPath id="SVGID_24_"><use xlink:href="#SVGID_23_" style="overflow:visible"/></clipPath><path d="M522.3 234.4c-14.2 4.5-80.5 0-80.5 0s-5.3 3.5-6.9 2c-.9-.8-1.5-9-.8-15.9.8 3.6 1.9 7.6 2.6 8.8 1.4 2.3 6.8 0 6.8 0-.9-7.6 1.1-14.2 1.1-14.2l5.6 11.9s53.2 3.1 72.7-5.1c8.1-3.4 11.6-9.9 12.9-16.3 4.5 9-.3 24.6-13.5 28.8z" style="opacity:.2;clip-path:url(#SVGID_24_);enable-background:new"/><defs><path id="SVGID_25_" d="M475.8 170.4c15.3 5 52.4 24.9 58.8 33.4 6.4 8.5 1.8 26.2-12.3 30.7-14.2 4.5-80.5 0-80.5 0s-5.3 3.5-6.9 2-2.2-25.8 3.4-25.6c4.5.2 6.3 2.3 6.3 2.3l28.9-5.5s-9.7-11.4-9.7-23"/></defs><clipPath id="SVGID_26_"><use xlink:href="#SVGID_25_" style="overflow:visible"/></clipPath><path d="m489.4 204.3-15.9 3.2c-.2-.3-1.6-2-3.3-4.6.2-4.2.8-9.8 2.6-12 3.1-3.7 2.5 5.9 5.3 11.3 0 0 10.9-8.8 15.2-6.8 4.4 2.1-1.2 2.5-3.9 8.9z" style="opacity:.2;clip-path:url(#SVGID_26_);enable-background:new"/><path d="M475.8 170.4c15.3 5 52.4 24.9 58.8 33.4 6.4 8.5 1.8 26.2-12.3 30.7-14.2 4.5-80.5 0-80.5 0s-5.3 3.5-6.9 2-2.2-25.8 3.4-25.6c4.5.2 6.3 2.3 6.3 2.3l28.9-5.5s-9.7-11.4-9.7-23" class="st4"/><path d="M509.9 208c1.5 1.1 2.7 2.6 3.3 4.4m-39.6-4.8c11.2-1.8 22.1-7.2 33-1.6m2.8-5.1c1.1.3 2.1.7 2.9 1.4" class="st4"/><path d="M488.9 204.2c3.8-4.7 11.4-4.5 16.8-4m-60 12.7s-3.2 4.7-1.9 10.4m22.2-21.8c1.4 1 2.9 1.8 4.6 2m-9.9-8c.8 1.3 1.7 2.5 2.7 3.6" class="st4"/></g><defs><path id="SVGID_27_" d="M0 0h733v500H0z"/></defs><clipPath id="SVGID_28_"><use xlink:href="#SVGID_27_" style="overflow:visible"/></clipPath><path d="M0 0h733v500H0z" style="clip-path:url(#SVGID_28_);fill:none"/></svg>