<svg xmlns="http://www.w3.org/2000/svg" xmlns:xlink="http://www.w3.org/1999/xlink" xml:space="preserve" style="enable-background:new 0 0 500 500" viewBox="0 0 500 500"><style>.st2{fill:none;stroke:#263238;stroke-linecap:round;stroke-linejoin:round;stroke-miterlimit:10}.st4{fill:#263238}.st11,.st6{stroke:#263238;stroke-linecap:round;stroke-linejoin:round;stroke-miterlimit:10}.st6{fill:#fff}.st11{fill:#ffa981}.st12{opacity:.3;fill:#fff;fill-opacity:.7}.st14{fill:#757575;stroke:#263238}.st14,.st15,.st16{stroke-linecap:round;stroke-linejoin:round;stroke-miterlimit:10}.st15{fill:none;stroke:#fff}.st16{fill:#999;stroke:#263238}</style><path id="Background_Simple" d="M67.9 167.1s-27.9 72 11.3 144.5 119.9 110.8 184.5 143.5 131.7 16.8 163.5-36.8c31.9-53.6-11.8-91.9-11.9-168.4-.1-76.5 11.4-96.7-30-161.4-41.3-64.6-143-78.9-219.8-31-76.9 48-97.6 109.6-97.6 109.6z" style="opacity:.7;fill:#fff"/><g id="Character_1"><path id="Background_Simple_1_" d="M0 0h500v500H0z" style="fill:#f6e0d5"/><path d="M54 443.4h392M292 240.8V93.7h9.1M292 258.3v-3.9m32.5-160.7h94V272H292m21-178.3h8.2" class="st2"/><path d="M296.7 98.4h117v168.9h-117z" class="st2"/><path d="M408.3 107.5v70.1H302.2V173m0-10.7v-58.9h106.1m-106.1 66.1V165m88.2 17.8h23.4m-31.7 0h3.3m-88.7 0h81.4" class="st2"/><path d="M349.4 177.6v-2.4h9.8v1.3h-4v1.1M296.9 246s1.6 1.2 2.8 8.7c0 0 2-11.9 4.3-12.1 2.4-.2 1.9 7.7 1.9 7.7s.4-3.9 2.3-3.7c1.9.2 0 8.1 0 8.1s2.2-6.1 4.4-6c2.1.1-1.4 11.1-1.4 11.1s5.4-3.9 7.6-2c2.2 1.9-1.2 6.8-1.2 6.8s7.8-1.7 9 2.9m0-4.5s3.4-2.2 6.1-1.2c0 0-1.7-2.6 0-4.2s3.9 4.2 3.9 4.2.2-9.7 3.6-9.2 0 9.2 0 9.2 6.1-5.4 7.5-3.5c1.5 1.9-1 4.7-1 4.7s3.6-1.2 6.3 1.6c0 0 4.1-4.2 8.6-4.7 0 0-3-8.7-1.5-10.5 1.5-1.8 4.1 7.6 4.1 7.6s1.2-6.1 5-6.6c0 0-3.2-1.7-2.2-4.3s5.3.6 5.3.6-1.8-4.6 1-5.8c2.8-1.3 4 3.8 4 3.8s.8-5.3 4.1-5c3.3.3 2.3 6.4 2.3 6.4s3.2-4.9 4.8-4.4c3.4 1 2.3 8.7 2.3 8.7s4.7-3.3 5.9-1.8c1.3 1.6-4.9 5.8-4.9 5.8s4.7.5 7.6 3.2" class="st2"/><path d="M413.8 247.8s-.5-4.9-5.4-5.2c-4.9-.3 1.3 10.8 1.3 10.8s-4-3.3-5.5-2.3 4.1 6.7 4.1 6.7-2.7-2.5-5.5-1.7 1.6 8.7 1.6 8.7-5.9-1.5-12.5 1.5M246.7 399.6v43.6m0-57.8v9.3M63.5 443.4v-81.1h183.2v17.8" class="st2"/><path d="M90.2 371.2H74.3V436m161.6 7.2v-72H99.4m128.9-17.3h-5.1m-7.2 0H58.9v8.4h192.3v-8.4h-19.7M69.8 300.5s15.1 1.2 15.7 12.3c-.1 0-15.3 7-15.7-12.3zm29.7 2.7s8.4-11.4 22-5.5c0 0-8.3 13.8-22 5.5zm20.9-35.8s2.4 21.9-17.5 15.9c0-.1 6.3-16.2 17.5-15.9zm-24.5-12.2s15.7 8.5 4.2 21.4c0 0-11-9.3-4.2-21.4zm-19.3 19.5s17.1-1.7 17.1 14.1c0 0-17.1.7-17.1-14.1z" class="st2"/><path d="M89.4 321.7c-.2-5.3-.2-12.2 3-19.4 7.5-16.7 10-30.7 6.1-40.6" class="st2"/><path d="M82.2 279s10.3 4.1 13.8 14.6m19-17.5s-5.9 8.1-16 7.2m16 16.7s-16.4 4.7-23 3.2m-17.3 2.3s7.3 8.1 14.7 7.9" class="st2"/><path d="M108.9 321.7H73.2c-.5 0-.9.4-.9.9v2.7c0 .5.4.9.9.9h1l3.2 27.8h27.2l3.2-27.8h1c.5 0 .9-.4.9-.9v-2.7c.1-.5-.3-.9-.8-.9z" style="fill:none;stroke:#263238;stroke-miterlimit:10"/><path d="M76.6 326.2h20.7m3.9 0h3.2" class="st2"/><path d="M133.4 443.4s-1.7-6.5.3-8.9c3.6-4.3-.4-8 3.2-9.5l1.5 1.8c.3-1.8-.5-7.2 6.1-7.9 8.1-.9 8.2 5 8.7 7l-.1-2.7c3.4 0 1.7 3.4 6.9 9.1 4 4.3 4 9.8 3.8 11.3h-30.4zm61.6 0c-3.2-1.5-.3-13.7-.3-13.7s-4.4-2.9 0-6c0 0 4.9 4.8 12.4 2 0 0 .9-8.2 6-7.1 0 0 1.3 5.2 4.3 8.2 8.2 8 18.7 9 20.4 12.8.5 1.2-.1 3.8-.1 3.8H195z" class="st4"/><defs><path id="XMLID_591_" d="m181.1 247.9 4 8.5s16.5 34.2 26.7 73.3c.2.9 5.5 19.5 1.3 65.6l2.4 8.1-2.6 13.4s3.9 5.7 3.8 7.5c0 0-9.7 1.8-13 3.6-2.5 1.4-10.1 8.8-10.1 8.8-2.1-.4-2.3-9.1-2.3-9.1s-4.5-77.1-5.8-80.4c-1.3-3.3-9.2-17.6-21.5-50.4 0 0-.3 45.8-3.6 57.3-2.9 10.3.5 39.1.5 39.1l-2 32.1s6.9 7.2 1.3 9.1c0 0-3.7-7.2-14.4-8.9-5.4-.8-12.2 8.8-12.2 8.8-2.4-.8 1-12.9 1-12.9-7.6-57.1-2-46.8-3.5-74.7-1-17.9-6.1-94.6-.1-100.8l50.1 2z"/></defs><use xlink:href="#XMLID_591_" style="overflow:visible;fill:#bfbfbf"/><clipPath id="XMLID_2_"><use xlink:href="#XMLID_591_" style="overflow:visible"/></clipPath><path d="M128.3 274.3c26.7 2.1 49.9-6.6 59.9-11.2-1.9-4.3-3.1-6.7-3.1-6.7l-4-8.5-50-1.8c-2.1 2.2-2.8 13.7-2.8 28.2zm35.9 23.1c12.2 32.3 20 46.5 21.3 49.8.7 1.9 2.5 28.1 3.9 50 1.6-20 3.3-41.1 3.4-45.2.3-8.2-5.7-19.5-6.5-22.4-.9-2.9 1.1-6.1 1.1-6.1L176.7 310c.4-4.6-5.3-24.6-5.3-24.6-3.4 3.3-6.4 10.1-7.2 12z" style="opacity:.2;clip-path:url(#XMLID_2_)"/><use xlink:href="#XMLID_591_" style="overflow:visible;fill:none;stroke:#263238;stroke-linecap:round;stroke-linejoin:round;stroke-miterlimit:10"/><path d="M164 296.8s6.1-11.8 11.3-15.1m2.3-3.8s-18.6 5.6-25 6.7" class="st2"/><path d="M168.1 259c.8 15.5 6.3 18.1 1 21.5 0 0 .1 7.2-2.5 11.8m-31-39.2s2.2 23.8-5.1 28.2" class="st2"/><path d="M130.5 260.7s-.5 15.8 0 28.6c0 0 1.8 53.9 3.7 60.6 1.8 6.8-2.8 17-2.4 46.2M148 419c-1.7-.3-3.6-.2-5.1.7m16.1 5.7c-2.3-2.2-5-4.1-7.9-5.4m4.9-119.4c-4.1 4.6-10.6 13.3-17.3 14m23.6-21.5c-1.3 1.6-2.6 3.2-3.9 4.7m-2 49.1s-9.3 12.7-14.4 13.4m25.4-65.8s16.6 46.2 22.4 50.8c0 0 .7 34 .8 45.9.2 11.9 2.9 27.7 2.9 27.7m17.7-.4s-6.4 2.2-9.5 3.6c-3.1 1.4-4.2 4.5-4.2 4.5" class="st2"/><path d="M195.1 328.7c-8.9-5.6-20.7-12.6-25.4-22.4m33.1 27c-1.7-.9-3.3-1.9-5-2.9m-23-65.2c-4.8-.1-10-.7-14.1-3.4m21.7 3c-1.4.2-2.8.3-4.1.4" class="st2"/><path d="M191.3 158.6c-3.7-5.5-22.3-7-34.3-7s-26.5-2-33.1 11.5c-5 10.3 6.5 64.8 6.5 64.8l-2.8 23.5c21.7 6.8 58.8 5.3 58.8 5.3l-5-21.3c0 .2 13.5-71.2 9.9-76.8z" class="st4"/><path d="M149.9 138s1.6 12.8-3.3 15.6c0 0 2.4 9.4 11 10 8.5.6 12.4-8.6 12.4-8.6l-20.1-17z" class="st6"/><defs><path id="XMLID_590_" d="m220.6 120.3-25.6 2.4-1.4-15.6c-.1-1 .7-2 1.7-2l21.9-2c1-.1 2 .7 2 1.7l1.4 15.5z"/></defs><use xlink:href="#XMLID_590_" style="overflow:visible;fill:#ffa981"/><clipPath id="XMLID_3_"><use xlink:href="#XMLID_590_" style="overflow:visible"/></clipPath><path d="m220.6 120.3-25.6 2.4-1.4-15.6c-.1-1 .7-2 1.7-2l21.9-2c1-.1 2 .7 2 1.7l1.4 15.5z" style="opacity:.3;clip-path:url(#XMLID_3_);fill-opacity:.7"/><path d="M212.1 104.9h6.3v12.7h-6.3z" style="opacity:.3;clip-path:url(#XMLID_3_);fill:#fff;fill-opacity:.7" transform="rotate(-5.272 215.226 111.207) scale(1.00003)"/><use xlink:href="#XMLID_590_" style="overflow:visible;fill:none;stroke:#263238;stroke-linecap:round;stroke-linejoin:round;stroke-miterlimit:10"/><defs><path id="XMLID_589_" d="m258.5 116.9-25.6 2.4-1.4-15.6c-.1-1 .7-2 1.7-2l21.9-2c1-.1 2 .7 2 1.7l1.4 15.5z"/></defs><use xlink:href="#XMLID_589_" style="overflow:visible;fill:#ffa981"/><clipPath id="XMLID_4_"><use xlink:href="#XMLID_589_" style="overflow:visible"/></clipPath><path d="m258.5 116.9-25.6 2.4-1.4-15.6c-.1-1 .7-2 1.7-2l21.9-2c1-.1 2 .7 2 1.7l1.4 15.5z" style="opacity:.3;clip-path:url(#XMLID_4_);fill-opacity:.7"/><path d="M252 101.3h3.8V114H252z" style="opacity:.3;clip-path:url(#XMLID_4_);fill:#fff;fill-opacity:.7" transform="rotate(-5.272 253.899 107.637) scale(1.00003)"/><use xlink:href="#XMLID_589_" style="overflow:visible;fill:none;stroke:#263238;stroke-linecap:round;stroke-linejoin:round;stroke-miterlimit:10"/><path d="m250.5 117.6-25.6 2.4-1.4-15.6c-.1-1 .7-2 1.7-2l21.9-2c1-.1 2 .7 2 1.7l1.4 15.5zm37.8-3.5-25.6 2.4-1.4-15.6c-.1-1 .7-2 1.7-2l21.9-2c1-.1 2 .7 2 1.7l1.4 15.5z" class="st11"/><path d="m241.338 102.423 6.273-.578 1.167 12.646-6.273.58zm37.505-3.407 6.274-.579 1.167 12.647-6.274.579z" class="st12"/><defs><path id="XMLID_588_" d="m299.2 109.4 6.6 71.9L190 192l-6.6-71.9c-.2-2.5 1.6-4.7 4.1-4.9l106.8-9.9c2.5-.2 4.7 1.6 4.9 4.1z"/></defs><use xlink:href="#XMLID_588_" style="overflow:visible;fill:#ffa981"/><clipPath id="XMLID_5_"><use xlink:href="#XMLID_588_" style="overflow:visible"/></clipPath><path d="m299.2 109.4 6.6 71.9L190 192l-6.6-71.9c-.2-2.5 1.6-4.7 4.1-4.9l106.8-9.9c2.5-.2 4.7 1.6 4.9 4.1z" style="opacity:.3;clip-path:url(#XMLID_5_);fill-opacity:.7"/><use xlink:href="#XMLID_588_" style="overflow:visible;fill:none;stroke:#263238;stroke-linecap:round;stroke-linejoin:round;stroke-miterlimit:10"/><path d="m299.2 109.4 6.6 71.9-85.9 7.9-6.6-71.9c-.2-2.5 1.6-4.7 4.1-4.9l76.9-7.1c2.5-.2 4.7 1.6 4.9 4.1z" class="st11"/><path d="m293.6 112.5-73.5 6.8c-1 .1-1.9-.7-2-1.7-.1-1 .7-1.9 1.7-2l73.5-6.8c1-.1 1.9.7 2 1.7.1 1-.6 1.9-1.7 2z" class="st12"/><path d="M164.5 112.6s-16.9-3.4-18.8 7.5c-1.9 10.9 4.3 15.5 4.3 15.5l14.5-23z" class="st4"/><path d="M150 141.6c-1.7-4.9-2.4-10.6-.9-16.9 1.7-7 10-16.6 22.6-7.9 6.5 4.5 6.9 14.3 4.9 23.3-.5 2.1-.1 4.2-.8 6.2-2.5 6.9-7.1 12.2-9.6 12.3-4.2.2-12.5-4.8-12.2-9.2" class="st6"/><path d="M166.9 138.4s-3.4-2.4-6.6-.4m13 0s2.5-2.3 4.2-2" class="st2"/><path d="M162.1 142.2c0 .6.3 1.1.7 1.1.4 0 .7-.5.7-1.1 0-.6-.3-1.1-.7-1.1-.4 0-.7.5-.7 1.1z" class="st4"/><ellipse cx="173.3" cy="141.6" class="st4" rx=".7" ry="1.1"/><path d="M171.8 140.4c-1.2 1.6.5 7.8 0 8.2-.5.4-3.7-.8-3.7-.8s-.7-.9.8-1.4m0 5.3s-4.3 0-5.4-1.6" class="st2"/><path d="m158.8 128.6-.3 5.2s-3.7 1.9-4.6 3.8c-.9 1.9-.6 4-.6 4s-2.2-3.9-3.4-3.6c-.4.1-.4 1.7-.4 1.7s-5-11.2-.5-17.1 9.8 6 9.8 6z" class="st14"/><path d="M151.7 140.4s-1-3.7-4.4-4.7c-3.4-1-1.1 8 1.8 9.2 2.9 1.2 3.6 2 3.8.9" class="st6"/><path d="M147.1 127.9c-.3-.4-1.5-10 4.8-14.3 6.3-4.3 17.1-3.9 23.9 2.1 6.8 6 4.9 16.3 0 19.9v-4.3s-2.3 4.3-9 4.7l2.1-3.2s-3.3 2-9.2 1.8c0 0 2.7-2.2 2.4-4.1 0 0-9.3 5.2-15-2.6z" class="st4"/><path d="M148.3 162.6c-4.7.6-11.3 6.7-7 17.5 2.8 6.9 25.5 2.8 25.5 2.8 8.4-3.5 20.8-16 29.8-21.8 0 0-1.9-12-4.1-10.3-10.2 7.8-18.6 8.4-32.9 15.2.1 0-8.3-3.7-11.3-3.4z" class="st6"/><path d="M158.8 175.9c-.1 4.5 1.7 5.3 4.8 6.3m28.3-30.5c.2-.6 4-7.3 5.1-9 1.1-1.7 5.9-3.2 7.7-4.2 1.8-1 2-2.6 3-1.5 1.1 1.1 0 3.6-5.5 6.3 0 0 4.4.2 5.9 0s2.8-1.6 3.5-.6c.7.9.8 2.6-2.5 3.6s-4.9 1-4.9 1 4.2 1 4.7 1.4c.5.4 1.3 1.3 2.1 1.4.8.1 1.6 1 .2 2-1.5 1-3.4.1-3.4.1s3.8 1.8 2.6 3c-1.2 1.2-5 .9-5 .9s-5.7 6.9-10.4 5.4" class="st6"/><path d="M198.7 142.7s1.1.1 1.4 1.3c.3 1.2 1.3 1.3 1.9 2.6.6 1.3.4 3.4 1 4.1.6.7 0 3.7 0 3.7" class="st2"/><path d="M149.3 161.8c-2.5-3.1-7.9-1.7-7.9-1.7" class="st15"/><path d="M138.4 154.3s5.7.8 7.3 5.5m2.6 24.3s-5.5 4.3-13.9-1.9" class="st15"/><path d="M141.4 185.4s-2.8 3.9-9.6 3.8m44.6 44.9s-14.4 11.5-29.1 10m-9.9-35.3s22.4 16.4 39 17.5" class="st15"/><path d="m328.7 211.1-4 21.7-32.6 19.8 4.5 8.3s37.7-11.5 38.6-14.2c.9-2.7 9.6-31.2 9.6-31.2l-16.1-4.4z" class="st4"/><path d="m343 174.3-2.2 26.4-1.1 13.8c-6.3 3.1-12.4-1.5-12.8-1.8 0 0 0 0 0 0 1.7-5 3.6-33.4 16.1-38.4z" class="st16"/><path d="m340.8 200.7-1.1 13.8c-6.3 3.1-12.4-1.5-12.8-1.8.3.1 3.6 1.5 5.7 0 0 0-1.9-2.1-2-2.6-.1-.5 2-.7 2-.7s-1.4-11.2 2.3-15.9c1.4-1.9 3.7 1.9 5.9 7.2z" class="st4"/><path d="m365.6 418.4 1 2.9s-2.4 4-5.1 7.1c0 0-1-.3-2.6 1.1-1.6 1.5-1.8 3.8-1.8 3.8s-7.6 9.2-17.3 9.3c-9.7.1-6.8-4.7-6.8-4.7l32.6-19.5z" class="st11"/><defs><path id="XMLID_587_" d="M356.5 395.1s-13-4.8-15.5 4.8c0 0 2.3 10.6.9 16.3-1.4 5.8-8.4 16.8-8.8 18.9-.8 4.1-.2 4.4-.2 4.4s5.1 2.9 11.9-.2c6.8-3.2 18.7-16.7 20.5-19.5 1.9-2.8-5.8-13.8-5.8-13.8l-3-10.9z"/></defs><use xlink:href="#XMLID_587_" style="overflow:visible;fill:#fff"/><clipPath id="XMLID_6_"><use xlink:href="#XMLID_587_" style="overflow:visible"/></clipPath><path d="M356.5 395.1s-13-4.8-15.5 4.8c0 0 2.3 10.6.9 16.3-1.4 5.8-8.4 16.8-8.8 18.9-.8 4.1-.2 4.4-.2 4.4s5.1 2.9 11.9-.2c6.8-3.2 18.7-16.7 20.5-19.5 1.9-2.8-5.8-13.8-5.8-13.8l-3-10.9z" style="opacity:.4;clip-path:url(#XMLID_6_);fill:#ffa981"/><use xlink:href="#XMLID_587_" style="overflow:visible;fill:none;stroke:#263238;stroke-linecap:round;stroke-linejoin:round;stroke-miterlimit:10"/><path d="M349.8 408.7s2.2 9.6-3.3 18.8" class="st2"/><path d="M346.6 430s-1.4 4-5.6 5.1c-4.2 1.2-8 0-8 0l3.1-6.3c.1 0 4.6 2.1 10.5 1.2z" class="st11"/><path d="M348.4 426.2s-6.8.4-10.3-1m11.6-2.8s-6.4 1-9.9-1m11-3.1s-5.6.8-9.2-.9m9.8-3.9s-6.2 1.9-9.1 0" class="st2"/><path d="m352.3 401.9 1.1 6.8s-8.2 5.4-13.6-1.3v-7.1c0-.1 2 4.7 12.5 1.6z" class="st11"/><path d="M345.2 249c-8.3 26.3-34.1 68.6-31.5 79.4 1.4 5.9 9.9 39.3 16.6 54 2.5 5.6 8 9.4 8 9.4l4 8.5c9.6 4.2 13.1-4.3 13.1-4.3l-1.9-9.6c5.2-9.4 3-9.4-3.7-58-.8-5.7 12.5-23.4 12.5-23.4l6.8 44.5 1.1 36.5 3.5 11.3s.9 10.6.8 11.2h15.8l1.7-11.6s7.4-6.9 7.4-14.9-1.6-48.7 0-60.6c1.6-11.9-3.7-67.2-3.7-67.2l-50.5-5.2z" class="st4"/><defs><path id="XMLID_585_" d="m259.9 243.3-25.6-2.2 1.3-15.6c.1-1 1-1.8 2-1.7l21.9 1.9c1 .1 1.8 1 1.7 2l-1.3 15.6z"/></defs><use xlink:href="#XMLID_585_" style="overflow:visible;fill:#ffa981"/><clipPath id="XMLID_7_"><use xlink:href="#XMLID_585_" style="overflow:visible"/></clipPath><path d="m259.9 243.3-25.6-2.2 1.3-15.6c.1-1 1-1.8 2-1.7l21.9 1.9c1 .1 1.8 1 1.7 2l-1.3 15.6z" style="opacity:.3;clip-path:url(#XMLID_7_);fill-opacity:.7"/><path d="M253 227h6.3v12.7H253z" style="opacity:.3;clip-path:url(#XMLID_7_);fill:#fff;fill-opacity:.7" transform="rotate(4.915 256.197 233.295) scale(.99998)"/><use xlink:href="#XMLID_585_" style="overflow:visible;fill:none;stroke:#263238;stroke-linecap:round;stroke-linejoin:round;stroke-miterlimit:10"/><defs><path id="XMLID_584_" d="m297.8 246.5-25.6-2.2 1.3-15.6c.1-1 1-1.8 2-1.7l21.9 1.9c1 .1 1.8 1 1.7 2l-1.3 15.6z"/></defs><use xlink:href="#XMLID_584_" style="overflow:visible;fill:#ffa981"/><clipPath id="XMLID_8_"><use xlink:href="#XMLID_584_" style="overflow:visible"/></clipPath><path d="m297.8 246.5-25.6-2.2 1.3-15.6c.1-1 1-1.8 2-1.7l21.9 1.9c1 .1 1.8 1 1.7 2l-1.3 15.6z" style="opacity:.3;clip-path:url(#XMLID_8_);fill-opacity:.7"/><path d="M293 230.3h3.8V243H293z" style="opacity:.3;clip-path:url(#XMLID_8_);fill:#fff;fill-opacity:.7" transform="matrix(.9963 .08567 -.08567 .9963 21.355 -24.392)"/><use xlink:href="#XMLID_584_" style="overflow:visible;fill:none;stroke:#263238;stroke-linecap:round;stroke-linejoin:round;stroke-miterlimit:10"/><path d="m289.8 245.8-25.6-2.2 1.3-15.6c.1-1 1-1.8 2-1.7l21.9 1.9c1 .1 1.8 1 1.7 2l-1.3 15.6zm37.9 3.3-25.6-2.2 1.3-15.6c.1-1 1-1.8 2-1.7l21.9 1.9c1 .1 1.8 1 1.7 2l-1.3 15.6z" class="st11"/><path d="m283.45 229.244 6.277.54-1.088 12.653-6.277-.54zm37.492 3.306 6.277.54-1.088 12.653-6.277-.54z" class="st12"/><defs><path id="XMLID_583_" d="m339.2 246.4-6.2 71.9-115.9-10 6.2-71.9c.2-2.5 2.4-4.4 4.9-4.1l106.8 9.2c2.5.2 4.4 2.4 4.2 4.9z"/></defs><use xlink:href="#XMLID_583_" style="overflow:visible;fill:#ffa981"/><clipPath id="XMLID_9_"><use xlink:href="#XMLID_583_" style="overflow:visible"/></clipPath><path d="m339.2 246.4-6.2 71.9-115.9-10 6.2-71.9c.2-2.5 2.4-4.4 4.9-4.1l106.8 9.2c2.5.2 4.4 2.4 4.2 4.9z" style="opacity:.3;clip-path:url(#XMLID_9_);fill-opacity:.7"/><use xlink:href="#XMLID_583_" style="overflow:visible;fill:none;stroke:#263238;stroke-linecap:round;stroke-linejoin:round;stroke-miterlimit:10"/><path d="m339.2 246.4-6.2 71.9-86-7.4 6.2-71.9c.2-2.5 2.4-4.4 4.9-4.1l76.9 6.6c2.5.2 4.4 2.4 4.2 4.9z" class="st11"/><path d="m333.2 248.5-73.5-6.3c-1-.1-1.8-1-1.7-2 .1-1 1-1.8 2-1.7l73.5 6.3c1 .1 1.8 1 1.7 2-.1 1-1 1.7-2 1.7z" class="st12"/><defs><path id="XMLID_586_" d="M390.8 408.8s-5.5-4-17-3.2c0 0-.8 13.8-2.4 17.8-1.6 4-9.8 10.9-11.3 12.1-1.5 1.2-1.5 5.3-1.5 5.3h34.8s-.6-9.2-2.8-17.7l.2-14.3z"/></defs><use xlink:href="#XMLID_586_" style="overflow:visible;fill:#fff"/><clipPath id="XMLID_10_"><use xlink:href="#XMLID_586_" style="overflow:visible"/></clipPath><path d="M390.8 408.8s-5.5-4-17-3.2c0 0-.8 13.8-2.4 17.8-1.6 4-9.8 10.9-11.3 12.1-1.5 1.2-1.5 5.3-1.5 5.3h34.8s-.6-9.2-2.8-17.7l.2-14.3z" style="opacity:.4;clip-path:url(#XMLID_10_);fill:#ffa981"/><use xlink:href="#XMLID_586_" style="overflow:visible;fill:none;stroke:#263238;stroke-linecap:round;stroke-linejoin:round;stroke-miterlimit:10"/><path d="M383.6 410.6s-.8 12.7-2.8 16c-2 3.3-3.9 5-3.9 5" class="st2"/><path d="M376 433.3s-1.7 2.2-3.7 2.5c-1.9.3-12.2-.3-12.2-.3l4.2-3.6s8.5-1.4 11.7 1.4z" class="st11"/><path d="M379.6 430.4s-7.4-4.3-12.7-1m14.5-1.9s-5.2-4.1-11.3-1.8m13.5-2.6s-5.6-4.3-11.5-1.6m12.3-3.9s-6.8-3.6-11.7-.9" class="st2"/><path d="M393.4 440.9v2.6h-4s-3.4-2-6.7 0h-18.8c-3.3 0-5.7-1.3-5.7-1.3l.4-1.3h34.8zm-5-32.9-.9 5.6s-10.4-3.4-16.2-1.2v-6.9s10.7-3.7 17.1 2.5z" class="st11"/><defs><path id="XMLID_592_" d="M399.7 268.2s-22.2 4.3-44-2.7c-4.8-1.6-9.6-3.7-14.1-6.5 0 0 .1-1.4.1-3.7.2-8.9.1-31.4-4.6-37-3-3.5-5.4-25.2.4-36.2l17.7-14.2c24.5 4.8 29.7 11.3 33.8 25.3.8 2.6 1.5 5.4 2.2 8.5.8 3.4 1.6 7.5 2.4 12.1 3.7 22.2 6.1 54.4 6.1 54.4z"/></defs><use xlink:href="#XMLID_592_" style="overflow:visible;fill:#999"/><clipPath id="XMLID_11_"><use xlink:href="#XMLID_592_" style="overflow:visible"/></clipPath><path d="m393.6 213.6-10 44.7s-14.4 4-27.9 7.2c-4.8-1.6-9.6-3.7-14.1-6.5 0 0 .1-1.4.1-3.7 12.1-6.2 29.8-15.3 29.6-15.7-.2-.7 0-24 0-24s16-3.7 17.7-22.5c.8 2.6 1.5 5.4 2.2 8.5.8 3.4 1.7 7.5 2.4 12z" style="opacity:.2;clip-path:url(#XMLID_11_)"/><use xlink:href="#XMLID_592_" style="overflow:visible;fill:none;stroke:#263238;stroke-linecap:round;stroke-linejoin:round;stroke-miterlimit:10"/><path d="M356 149.2s-7.8 11.2 2.6 19.9c0 0-12.6 14.2-16.8 12.2-1.7-.8 0-5.9 0-5.9l-7.3-13.5 21.5-12.7z" class="st6"/><path d="M353.4 154.9c2.4-10.7 1.3-26.6-13.7-25.1-10.5 1-18 6.8-15 20.9 1.2 5.9 2.2 14.3 7.7 21.9 1.5 2.1 17.3-5.3 16.4-11.3" class="st6"/><path d="M332.1 148.3s3.1-1.4 6.5.6m-14.1.7s.5-1.4 2.2-1" class="st2"/><path d="M328.3 151.9s-3.1 5.6-3.1 6.4c0 .8 3.8 1.1 3.8 1.1" class="st6"/><path d="M334.9 153c0 .6-.3 1.1-.7 1.1-.4 0-.7-.5-.7-1.1 0-.6.3-1.1.7-1.1.4 0 .7.5.7 1.1z" class="st4"/><path d="M330.5 163.4s5.9-1.1 7-3.2" class="st2"/><path d="m324.5 141 4.6-1.3s6.4-3 7.8-2.6c1.4.4 4.2 4.7 4.1 7.1 0 0 4.3 3.8 4.9 9.4l1.3-.6s-.1-5 2.8-4.9c2.8.1 4.1 3.5 3.9 4.6-.2 1.1-3.3 5.5-3.3 5.5s7.1-1.1 7.3-15c.2-13.9-15-16.3-22.5-15.7-7.4.6-11.3.4-11.3.4l.4 4-3 .8 2.3 2.8-2.5 1.1 3.2 4.4z" class="st4"/><path d="M350.3 293s18.1 4.8 23 18.3m-14.7-11s-9.8 16.3-24.8 24.7m11 66.9s5.6-1.2 7.1-3.4m23.9 5.4s5.4-2.8 10.9 0m6.7-75.8s-9.1 23.6-13.7 25.8M353.4 281c.2 2.6 11 14.5 19.9 19.2M362.6 271s2.1 4.7.8 10c-1.4 5.3 0 8.9 0 8.9" class="st15"/><path d="M343 221.8s16.8 21.8 34.9 28.9m-17.5-64.1s-.1 14.8 10.6 21.5" class="st2"/><path d="M366.4 208.2c-2.3 2.2.2 30.1.2 30.1s-13.1 5.1-17.2 8.5-23.6 10.9-23.6 10.9-3 10.2.7 10.6c3.7.3 42.5-12.9 51.3-17.5 0 0 5.8-34 5.7-42.7" class="st6"/><path d="M327.3 257.1c-1.8-.3-5-1.5-6.7-1.1s-4.7 2.2-7.9 3c-3.2.8-1.8 2 0 2.4 1.8.4 4.1 0 4.1 0l-2.6 2.5s-4.1 2.1-4.6 2.1c-.9 0-4.2.9-4 2.3.3 1.4 2.1 1.2 4.2 1.3 0 0-3.4.7-3 2.6.2 1.3 4 .1 5.9.1 0 0-1.6 1.7-.4 2.2 1.2.5 3.8-.8 3.8-.8s-.1 1.4 1.1 1.6 4.1-1 6.2-2.2 3.8-2.7 5.7-4.2c1.9-1.5 2.6-1.7 2.6-1.7" class="st6"/><path d="M310 269.6s2-.1 2.8-.3c.8-.2 1.6-.5 1.6-.5m-1.5 3.5s2.2-.3 3.4-1.2m0 2.6s1.6-.2 2.5-.9m-4.2-8.2s-.7 1.6 0 2.6c.7.9 1.6 1 1.7 2 .1 1.1 1.8 1 2.5 1.7.6.7 1.1 1.9 3.1 2" class="st2"/><path d="M365.6 179.3c-6.8 15.4 0 36.8 0 36.8s16.5 5.6 18 3.2c1.5-2.4 4.3-14.2 4.8-19.7" class="st16"/><path d="M383.6 201.3s-7 9.6-12.6 9.8" class="st2"/><path d="M138 330.5s5.3-3.4 12.6-1.6c7.3 1.8 26.3 29 28.9 31.6 2.6 2.6 7.6 4 12.1 8.8 7.2 7.5 17.7 14.2 18.7 14.2 1.1 0 1.9-.7 3.2-.9 1.3-.3 11.5-1.2 11.5-1.2s3.4.8 0 2.2c-3.4 1.5-3.2 2.8-3.2 2.8s-.7 1.1.7 2.2 2.2.5 4.2 3.3-2.8 1.2-2.8 1.2 1.1 3-1.1 2.7c-2.1-.3-.3 2.9-3.7 2.5-3.4-.4-10.8-5.1-12.6-9.9 0 0-29.9-14.3-34.4-18-4.5-3.7-23.3-23.5-24.6-23.7" class="st4"/><defs><path id="XMLID_581_" d="M240.2 374.9h-25.7v-15.7c0-1 .8-1.9 1.9-1.9h22c1 0 1.9.8 1.9 1.9v15.7z"/></defs><use xlink:href="#XMLID_581_" style="overflow:visible;fill:#ffa981"/><clipPath id="XMLID_12_"><use xlink:href="#XMLID_581_" style="overflow:visible"/></clipPath><path d="M240.2 374.9h-25.7v-15.7c0-1 .8-1.9 1.9-1.9h22c1 0 1.9.8 1.9 1.9v15.7z" style="opacity:.3;clip-path:url(#XMLID_12_);fill-opacity:.7"/><path d="M232.5 359h6.3v12.7h-6.3z" style="opacity:.3;clip-path:url(#XMLID_12_);fill:#fff;fill-opacity:.7"/><use xlink:href="#XMLID_581_" style="overflow:visible;fill:none;stroke:#263238;stroke-linecap:round;stroke-linejoin:round;stroke-miterlimit:10"/><defs><path id="XMLID_582_" d="M278.2 374.9h-25.7v-15.7c0-1 .8-1.9 1.9-1.9h22c1 0 1.9.8 1.9 1.9v15.7z"/></defs><use xlink:href="#XMLID_582_" style="overflow:visible;fill:#ffa981"/><clipPath id="XMLID_13_"><use xlink:href="#XMLID_582_" style="overflow:visible"/></clipPath><path d="M278.2 374.9h-25.7v-15.7c0-1 .8-1.9 1.9-1.9h22c1 0 1.9.8 1.9 1.9v15.7z" style="opacity:.3;clip-path:url(#XMLID_13_);fill-opacity:.7"/><path d="M272.5 359h3.8v12.7h-3.8z" style="opacity:.3;clip-path:url(#XMLID_13_);fill:#fff;fill-opacity:.7"/><use xlink:href="#XMLID_582_" style="overflow:visible;fill:none;stroke:#263238;stroke-linecap:round;stroke-linejoin:round;stroke-miterlimit:10"/><path d="M270.2 374.9h-25.7v-15.7c0-1 .8-1.9 1.9-1.9h22c1 0 1.9.8 1.9 1.9v15.7zm38 0h-25.7v-15.7c0-1 .8-1.9 1.9-1.9h22c1 0 1.9.8 1.9 1.9v15.7z" class="st11"/><path d="M262.5 359h6.3v12.7h-6.3zm37.5 0h6.3v12.7H300z" class="st12"/><defs><path id="XMLID_580_" d="M319.4 371.2v72.2H203.1v-72.2c0-2.5 2-4.5 4.6-4.5h107.2c2.5 0 4.5 2 4.5 4.5z"/></defs><use xlink:href="#XMLID_580_" style="overflow:visible;fill:#ffa981"/><clipPath id="XMLID_14_"><use xlink:href="#XMLID_580_" style="overflow:visible"/></clipPath><path d="M319.4 371.2v72.2H203.1v-72.2c0-2.5 2-4.5 4.6-4.5h107.2c2.5 0 4.5 2 4.5 4.5z" style="opacity:.3;clip-path:url(#XMLID_14_);fill-opacity:.7"/><use xlink:href="#XMLID_580_" style="overflow:visible;fill:none;stroke:#263238;stroke-linecap:round;stroke-linejoin:round;stroke-miterlimit:10"/><path d="M319.4 371.2v72.2h-86.3v-72.2c0-2.5 2-4.5 4.6-4.5h77.2c2.5 0 4.5 2 4.5 4.5z" class="st11"/><path d="M313.6 373.8h-73.8c-1 0-1.9-.8-1.9-1.9 0-1 .8-1.9 1.9-1.9h73.8c1 0 1.9.8 1.9 1.9 0 1.1-.9 1.9-1.9 1.9z" class="st12"/><path d="M177 443.4c-6 0-14.4-3.9-24.1-7.9-10.1-4.2-21.5-8.7-33.2-9.4-4.3-.3-1.7 17.3-1.7 17.3h-9.5s-9.4-12.5-10.4-23.7c0 0 7.7-4.7 9.5-5 .4-.1 1.1-.1 1.9-.1 2.1 0 4.8.1 4.8.1s0 0 0 0c-.4-.3-7.5-4.5-11.3-8.8-3.2-3.5-4.7-9.1-4.8-12.5-.1-1.7.7-6.6.7-6.6l49.9.8s.5.4 1.5 1.1c5.8 4.2 26.9 19.9 37.5 31.8 3.4 3.8 5.7 7.3 6.1 9.8 1.6 11.5-7.8 13.1-16.9 13.1z" class="st14"/><path d="m187.8 420.5-24.3 5.5s-6.3 3.4-10.7 9.4c-10.1-4.2-21.5-8.7-33.2-9.4-4.3-.3-1.7 17.3-1.7 17.3h-9.5S99 430.8 98 419.6c0 0 8.8 12.6 11 19 0 0 3.4-11.8 9-16.6 0 0-3.7-4.3-8.5-7.5 2.1 0 4.8.1 4.8.1-.4-.3-7.5-4.5-11.3-8.8-3.2-3.5-4.5-9.1-4.8-12.5-.1-1.6.1-6.6.1-6.6s37.2 5.3 52.1 1.9c5.7 4.4 26.9 20.1 37.4 31.9z" class="st4"/><path d="M148.8 419.7s19.8 9.9 25.1 13.8c5.3 3.9 6.9 2.8 6.9 2.8m-77.9-17.7s4.7 7.3 5 9.4" class="st2"/><path d="M182.5 279.5s10.6-4.6 9.6 14.9 2.6 20.5 2.6 20.5-26.5 10.9-33.2 1.6c-6.9-9.4-.5-34.8 21-37z" class="st4"/><path d="M181 314.9s-10.9 5.1-11.9 9.9c-1 4.7-14.6-2.4-14.6-2.4l9.9-14.2 16.6 6.7z" class="st6"/><path d="M109.5 367c-25 31.8-4.7 47.2 23.6 44.7l-5.7 9 14.3 2.5s10.9-7.1 25.8-14.8c25.4-13 35.6-12.2 33-25.2-2.6-13-33.7-21.4-64.8-7.7 0-.1-16.9-20.2-26.2-8.5z" class="st14"/><path d="M118.3 436.3s6.5-18 9.2-19c2.7-1 12.9 2.9 14.3 5.8 0 0 3.5-5.3 4.9-3.1 1.4 2.3-.6 6 0 8.9.6 2.9 7.7 6.9 10.5 7.4s4.4 2.1 4.4 3.7v3.4h-43.3s-1.6-2.9 0-7.1z" class="st6"/><path d="M146.6 426.1s-5.7 2.8-7.8 2c-2.1-.8 1.1 4.7 1.9 5.3.8.5 6-1.8 6-1.8m-23-8.5s7.8.1 10.1 3m-15.5 10.2s12.4 2.9 13.5 2.9 5-1.5 5-1.5 3.4 1.7 5.7 2.8c2.3 1.1 17 0 17 0m-26.3-28.8c11.8-1.3 34.8-15.9 42.8-20.9 8-5.1 10.1-3.8 10.1-3.8" class="st2"/><path d="m98.2 386.8 1.9-14.4 4.6-3.4c7.4-17.9 40.9-51.4 50-51.3 13.7.2 16.1 14.5 17.8 30.3 1.7 15.8-19.7 13.4-19.7 13.4v4l-12.1 6.3 7.4-.2c-.1-.1-21.3 20.5-49.9 15.3z" class="st11"/><path d="M157.5 289.9c2.9-9 16-11.4 20.7-9.9 3 .9 7.1 4.2 8.9 8.1 1.2 2.6-1.3 7.2.5 9.8 2.6 3.8 2.3 11.9 1.4 17-.5 2.7-11.7 4.3-20.9-2-9.8-6.7-13.3-14.2-10.6-23z" class="st6"/><path d="M170.8 277.4s11.6-1.9 11.6 1.1c.5 19.7-11.3 23.9-11.3 23.9s-4.8-3.8-5.9-1.2c-1.1 2.6 1.7 9.9 5.1 10.1 0 0-2.6 3.4-.1 8.2 0 0-19.6 3.3-21.2-5.8 0 0 1.1-4.3 1.6-9.6 1.3-12.7-1.7-21.3 20.2-26.7z" class="st4"/><path d="M186.3 297.5c2.4 2.2 4.1 2.2 4.1 2.9-.1 2.4-3 3.6-3 3.6" class="st6"/><path d="M187.3 308.1s-2.4 1-5.3.1" class="st2"/><path d="M180.9 285.4s7.7-2.2 6.3 10.2c0 0 3.2-4.3 3.2-9.2 0-8.5-11.3-6.8-11.3-6.8l1.5 6" class="st4"/><path d="M187.9 291.5s-.6-.6-2-.4m-3.2.3s-4.1.2-5.9 3" class="st2"/><path d="M181.7 297.9c.1.7-.2 1.2-.6 1.3-.4 0-.8-.5-.9-1.1-.1-.7.2-1.2.6-1.3.5 0 .9.5.9 1.1z" class="st4"/><path d="M133.8 414.7s9.2 1 11.2 5" class="st2"/><path d="M157.1 324.5s5.3-3.4 12.6-1.6c7.3 1.8 26.3 29 28.9 31.6 2.6 2.6 7.6 4 12.1 8.8 7.2 7.5 17.7 14.2 18.7 14.2 1.1 0 1.9-.7 3.2-.9 1.3-.3 11.5-1.2 11.5-1.2s3.4.8 0 2.2c-3.4 1.5-3.2 2.8-3.2 2.8s-.7 1.1.7 2.2 2.2.5 4.2 3.3-2.8 1.2-2.8 1.2 1.1 3-1.1 2.7c-2.1-.3-.3 2.9-3.7 2.5-3.4-.4-10.8-5.1-12.6-9.9 0 0-29.9-14.3-34.4-18-4.5-3.7-23.3-23.5-24.6-23.7" class="st6"/><path d="M152.8 321.6s14.8-4 19.9-1.1c5.1 2.9 14.9 16.4 14.9 16.4s-11.9 10.7-15.6 9.7c-3.7-1-14.9-2.6-14.9-2.6" class="st11"/><path d="M165.6 345.3s-5.3 2.9-7.3 2.9m-1.2-17.7c.4.8.3 9.4 9.7 12.1m-59.9 26.7s20 3.4 26.9-2.6m6.9 5s-5-.9-6.8 1.7c-1.8 2.6-11.9 4.9-11.9 4.9m-21.5 12.4s-2.9 12.5 9.4 18m-3-17.1s.1 6.1 2 9.5l6.1 2 6.9-3.8s-1.5-7.9-1.6-9.4" class="st2"/></g></svg>