<svg id="Layer_1" data-name="Layer 1" xmlns="http://www.w3.org/2000/svg" xmlns:xlink="http://www.w3.org/1999/xlink" viewBox="0 0 977.65 849.83"><defs><style>.cls-1,.cls-10{fill:none;}.cls-2{fill:#efd3ce;}.cls-16,.cls-3{fill:#f09b9b;}.cls-3,.cls-4,.cls-5,.cls-6,.cls-7,.cls-8{clip-rule:evenodd;}.cls-15,.cls-4{fill:#e06e7e;}.cls-39,.cls-5{fill:#6a3a4a;}.cls-41,.cls-6{fill:#4c2243;}.cls-26,.cls-7{fill:#ebc6be;}.cls-20,.cls-8{fill:#f1ddd7;}.cls-9{clip-path:url(#clip-path);}.cls-10{stroke:#ffaf00;stroke-linecap:round;stroke-linejoin:round;stroke-width:2px;}.cls-11{clip-path:url(#clip-path-2);}.cls-12,.cls-22{fill:#7d38ce;}.cls-12,.cls-14,.cls-15,.cls-16,.cls-20,.cls-26,.cls-29,.cls-33,.cls-39,.cls-40,.cls-41,.cls-44,.cls-47{fill-rule:evenodd;}.cls-13{opacity:0.26;}.cls-14,.cls-33,.cls-38,.cls-44,.cls-47{fill:#330c29;}.cls-17{clip-path:url(#clip-path-3);}.cls-18{opacity:0.14;}.cls-19{clip-path:url(#clip-path-4);}.cls-21{clip-path:url(#clip-path-5);}.cls-23{opacity:0.24;}.cls-24{opacity:0.18;}.cls-25{opacity:0.3;}.cls-27{clip-path:url(#clip-path-6);}.cls-28{opacity:0.16;}.cls-29{fill:#ba9690;}.cls-30{clip-path:url(#clip-path-7);}.cls-31{clip-path:url(#clip-path-8);}.cls-32{opacity:0.22;}.cls-33{fill-opacity:0.72;}.cls-34{clip-path:url(#clip-path-9);}.cls-35{opacity:0.13;}.cls-36{clip-path:url(#clip-path-10);}.cls-37{clip-path:url(#clip-path-11);}.cls-40{fill:#e16074;}.cls-42{clip-path:url(#clip-path-12);}.cls-43{clip-path:url(#clip-path-13);}.cls-44{fill-opacity:0.24;}.cls-45{clip-path:url(#clip-path-14);}.cls-46{clip-path:url(#clip-path-15);}.cls-47{fill-opacity:0.23;}</style><clipPath id="clip-path"><rect class="cls-1" x="8.35" y="-597.21" width="750" height="500"/></clipPath><clipPath id="clip-path-2"><ellipse class="cls-2" cx="111.11" cy="612.33" rx="110.94" ry="107.16"/></clipPath><clipPath id="clip-path-3"><path class="cls-3" d="M116.11,358.65s-14.91,18.74-26.62,27l-55.62,60s50.86,67.72,93.3,27.77,67.25-68.29,75.13-79.63C202.3,393.76,147.56,352.91,116.11,358.65Z"/></clipPath><clipPath id="clip-path-4"><path class="cls-1" d="M101.67,419.63s12.92-3.35,8.53-13.92-8.77-15-8.77-15-1.33-2.11-6,.16c0,0-.21-13-16.18-10s-22.13.44-34.48,12.53S22.3,423.68,20.15,432.23s11.4,18.09,21.4,26c0,0,6.13-10.38-1.22-19.13,0,0,17.81,18.51,27.14,24.42,0,0,7.71-8.05-.12-21.42s-8.78-18.7-8.78-18.7L91.1,453.24S102.83,442.4,86,427l14.6,8.07S107.8,427.67,101.67,419.63Z"/></clipPath><clipPath id="clip-path-5"><path class="cls-1" d="M425.31,259.78s46.46-27.93,38.2-73.95,280.23-9.12,357.71,71.23c0,0,80.2,118.23,99,220.21,0,0,48,17.6,55.74,43.58S962.83,587,943.25,584.18,879,531.1,876,523.11c-6.78-18.28-5.57-28.64-12.06-52S788.12,359,776.18,313.92c0,0-55.26,14.43-101.64,2.75,0,0-38.47,16.76-71.39,22.21,0,0-17.43,122.81-.2,175.21s39.11,104.15,48.64,136.74c0,0-52.56-63.05-153.86-19.75,0,0-76.66,44-152.64,38,0,0-27.93-42.06-39.36-125.81C296,471.72,291.94,434,262.37,371.87c0,0-41.32,35-61.12,40.14,0,0-41.14-26.26-61.43-40.33-19.26-12.41-31.51-13.58-38.6-21,0,0,102.35-179.23,221.1-185C322.32,165.66,360.62,284.72,425.31,259.78Z"/></clipPath><clipPath id="clip-path-6"><path class="cls-7" d="M426.07,970s55.48-59.32,91-26.78,37.24,30.26,54.86,22.64a370.85,370.85,0,0,1-1.18-63.57,628.7,628.7,0,0,1,8.95-68.46c1.67-9.74-91.28,31.55-115.35,11.15s-38.73-13.4-38.73-13.4Z"/></clipPath><clipPath id="clip-path-7"><path class="cls-3" d="M540.9,624.14s-294.07,6.6-264.46,100.66S400.28,937.24,377.59,1105c0,0,49.37,37.3,78.58,23,0,0-12-126.72-5.48-195.77s-7.78-120.47-22.16-134.75c0,0,57.51,60.09,121.23,22S540.9,624.14,540.9,624.14Z"/></clipPath><clipPath id="clip-path-8"><path class="cls-8" d="M292.73,788.94s19.35,12.84,54.54-9.47S412.55,772.71,432,801s40.49,77,39.14,101.75-3.06,192.06-3.06,192.06l2.6,42.16s-47.75,20.68-83.4-7.34-33.2-42.8-33.2-42.8S369.66,961,343.28,903.77,292.73,788.94,292.73,788.94Z"/></clipPath><clipPath id="clip-path-9"><path class="cls-8" d="M386.14,638.77s73.64-4.47,102.69,138.1c0,0,24.9,92.4-5.52,91.88,0,0,116.34,4.78,166.05-97.85,0,0,33.16-92-20.1-178.86,0,0-47.11,20.11-85.81,22.56S434.16,626.25,386.14,638.77Z"/></clipPath><clipPath id="clip-path-10"><path class="cls-3" d="M484.86,94.08c12.65.82,14.49,16.69,12.14,34.6S482.81,161,473.76,159.85s-11.89-17.54-9.54-35.46S475.76,93.48,484.86,94.08Z"/></clipPath><clipPath id="clip-path-11"><path class="cls-3" d="M398.51,17c59.42-1.79,79.37,49.78,73.34,121.88-5.9,70.72-32,120-72,122.48-25.4,1.56-47-35.58-70.47-86.15-4.29-9.26-.94-22.31-5-42C308.79,58.45,344.4,18.6,398.51,17Z"/></clipPath><clipPath id="clip-path-12"><path class="cls-4" d="M384.94,173.87s-3.09,31.54-6.76,33.76-6-2.06-3.21,4.25,13.22,23,22.63,14.53,15.84-22.94,9.18-19.71-9.44-10.48-10.61-23S388.31,160.15,384.94,173.87Z"/></clipPath><clipPath id="clip-path-13"><path class="cls-5" d="M334,97.05s21.47,21.63,47.46,14.39,39.88-21.32,52.44-24.38,20,19.67,26.38,35.75,11.51,19.72,13.77,11.1,5.84-26,5.84-26S484.72,70,472,41.67,404.24-19.44,353.25,14.38,307.55,76,314.92,112.22c3.57,17.58,7.32,29.6,9.24,43.06,0,0,2.85-21.3,1.83-35.41S326.23,91.48,334,97.05Z"/></clipPath><clipPath id="clip-path-14"><path class="cls-6" d="M405.83,151.75s16.48-9.78,24.41-10.86c16.89-2.29,16.07,3.19,14,4.06s-9.75,1.62-13.8,3.79c-7.46,4-19.87,15.18-24.77,12.38C401.65,158.79,401.93,154.64,405.83,151.75Z"/></clipPath><clipPath id="clip-path-15"><path class="cls-6" d="M370.72,154.28s-14.83-8.58-21.65-9.09c-14.56-1.08-13.41,4.32-11.61,5.05s8.43.92,12.05,2.79c6.68,3.45,18.17,13.71,22.1,10.57C374.87,161,374.28,156.88,370.72,154.28Z"/></clipPath></defs><g class="cls-9"><line class="cls-10" x1="351.68" y1="-172.22" x2="538.35" y2="14.45"/><line class="cls-10" x1="678.68" y1="-146.22" x2="865.35" y2="40.45"/></g><g id="_16" data-name="16"><ellipse class="cls-2" cx="111.11" cy="612.33" rx="110.94" ry="107.16"/><g class="cls-11"><path class="cls-12" d="M85.44,641.73s34.79-44.36,51.11-72.52l39.7,12.84s-28.67,49.7-47.09,72.52Z"/><path class="cls-12" d="M67.42,598.78s.34,28.42,6.75,43.55c0,0-54.69-6.43-78.36-31.8l6.71-39S34.61,594.18,67.42,598.78Z"/><path class="cls-12" d="M82.54,652s10,39,35.77,54.69c0,0-19.76,12.6-29.74,17.26,0,0-24.75-20.68-33-47.28C55.55,676.67,74.81,661.34,82.54,652Z"/><path class="cls-12" d="M114,518.29s43.56,6.13,64.71,50.73c0,0,9.84-11.8,11.08-35,0,0-54.7-29.66-66.71-33.39Z"/><g id="_20" data-name="20"><g class="cls-13"><path class="cls-14" d="M117.81,495.72s74.1,56.75,42.05,139.76S49.63,709.77,6.79,678.3c0,0,171.11,161.29,222.49,31.62s31-183.18-13.66-203.23S117.81,495.72,117.81,495.72Z"/></g></g></g></g><g id="_6" data-name="6"><path class="cls-15" d="M463.59,166.88s3.15,29.82,8.66,47.46S437,269.07,418.08,268.85s2-64.46,6-70.16S463.59,166.88,463.59,166.88Z"/></g><path class="cls-16" d="M116.11,358.65s-14.91,18.74-26.62,27l-55.62,60s50.86,67.72,93.3,27.77,67.25-68.29,75.13-79.63C202.3,393.76,147.56,352.91,116.11,358.65Z"/><g class="cls-17"><g id="_25" data-name="25" class="cls-18"><path class="cls-14" d="M109.93,360.36s48.22,28.41,59.29,41.7c0,0-36.23,55.79-61.59,67.31s-30.95,6-60.48-8.22,4.64,40.69,39.57,37.58,59.35-16.32,75.1-32.12S197,416.9,196.74,406.05s-60.52-52.4-65.1-54.62S109.93,360.36,109.93,360.36Z"/></g></g><path class="cls-16" d="M101.67,419.63s8.15-4,3.76-14.53-4-14.43-4-14.43-1.33-2.11-6,.16c0,0-.21-13-16.18-10s-22.13.44-34.48,12.53S22.3,423.68,20.15,432.23s11.4,18.09,21.4,26c0,0,6.13-10.38-1.22-19.13,0,0,17.81,18.51,27.14,24.42,0,0,7.71-8.05-.12-21.42s-8.78-18.7-8.78-18.7L91.1,453.24S102.83,442.4,86,427l14.6,8.07S107.8,427.67,101.67,419.63Z"/><g class="cls-19"><g id="_26" data-name="26"><path class="cls-15" d="M23.34,443.22s-1.05-9.7,5.86-10.1,11.55,7.37,14.45,12.2l-7.2-15.05s-1.7-12.8,9.56-9.69c8,2.21,24.42,26.21,24.72,38.33,0,0,1.3-18.92-5.37-26.62s-7.62-9.52-7.62-9.52-10.34-8.83.19-15.79c7.71-5.1,22.19,15.53,28.66,22,7,7,8.34,12.63,6.49,22.58l5.12-12.76S90,431.58,86.55,426.54c-4-5.75-21.43-19.52-15.64-26.72,9.47-11.79,21.7,10.7,27.24,16.9,5.72,6.41,5.7,10.83,4,19.29s7.36-9,7.36-9a136,136,0,0,0-.92-18.55c-1.15-7.82,4.48-20.19-4.16-21.37s-9.8-10.7-20.55-11S50,380.62,38.4,392.73,16.34,414,15.75,425.11,23.34,443.22,23.34,443.22Z"/></g></g><path class="cls-20" d="M425.31,259.78s46.46-27.93,38.2-73.95,280.23-9.12,357.71,71.23c0,0,80.2,118.23,99,220.21,0,0,48,17.6,55.74,43.58S962.83,587,943.25,584.18,879,531.1,876,523.11c-6.78-18.28-5.57-28.64-12.06-52S788.12,359,776.18,313.92c0,0-55.26,14.43-101.64,2.75,0,0-38.47,16.76-71.39,22.21,0,0-17.43,122.81-.2,175.21s39.11,104.15,48.64,136.74c0,0-52.56-63.05-153.86-19.75,0,0-76.66,44-152.64,38,0,0-27.93-42.06-39.36-125.81C296,471.72,291.94,434,262.37,371.87c0,0-41.32,35-61.12,40.14,0,0-41.14-26.26-61.43-40.33-19.51-13.52-29.89-11.32-42.66-24.87-.25-.27-.62-.27-.42-.59,8-12.79,111.51-175,225.58-180.56C322.32,165.66,360.62,284.72,425.31,259.78Z"/><g class="cls-21"><path class="cls-22" d="M361,532.59c-2.36-30.56-5-65.19-19.33-114.89-34.5-120.06-37.18-259.79-37.2-261.19a19.28,19.28,0,0,0-19.26-18.95h-.32a19.25,19.25,0,0,0-18.94,19.56c0,1.16.14,7.57.59,18-.07,0-.15.07-.21.12C159.33,254.85,98.24,335.56,95.69,339a19.26,19.26,0,1,0,30.81,23.12c.55-.74,52.6-69.47,142.92-140.7,1.32,16.35,3.13,35.08,5.61,55.32C173.65,354.07,115.77,430.35,113.29,433.64a19.26,19.26,0,0,0,30.81,23.13c.54-.72,50.67-66.65,137.13-136,5.56,34.77,13.11,71.79,23.4,107.59,13.2,45.94,15.72,78.49,17.94,107.22,3.68,47.46,6.85,88.45,55.62,158a19.26,19.26,0,0,0,31.54-22.12C367,610.53,364.48,577.84,361,532.59Z"/><path class="cls-22" d="M461.48,595c-12.44-38.07-18.3-69.58-26-121.7-10.23-69.05-42-244.52-42.27-246.28a19.26,19.26,0,1,0-37.91,6.86c.32,1.76,31.93,176.62,42.08,245.07,7.88,53.15,14.29,87.54,27.51,128a361.82,361.82,0,0,0,38.06,79.75,19.26,19.26,0,0,0,32.4-20.83A321.48,321.48,0,0,1,461.48,595Z"/><path class="cls-22" d="M560.19,616.5c-12.83-28-18.69-40.83-26.52-80.12-3.28-16.42-4.39-29.19-5.8-45.38-2.33-26.65-5.23-59.81-19.1-126-21.45-102.26-19.27-219.24-19.25-220.41A19.24,19.24,0,0,0,470.68,125c-10.6-.53-19.45,8.21-19.67,18.85-.1,4.95-2.32,122.45,20.06,229.13,13.4,63.9,16.18,95.79,18.42,121.42,1.46,16.66,2.71,31.06,6.4,49.55,8.71,43.71,16,59.66,29.27,88.63l3.75,8.2A19.26,19.26,0,0,0,564,624.8Z"/><path class="cls-22" d="M735.64,227.65C652,201,597.82,196.12,575,195.45c-2.06-25.16-3.3-41.86-3.34-42.4a19.26,19.26,0,1,0-38.41,2.84c.54,7.39,13.51,181.93,26.47,263.19,3.67,23,4.36,40.53,5,57.47,1.64,41.55,3.06,77.42,46.85,162.25a19.27,19.27,0,0,0,34.24-17.67c-39.88-77.22-41-106.11-42.59-146.1-.68-17.23-1.45-36.75-5.49-62-4-24.78-8-59.13-11.61-94.74,13.64,2.77,31.09,5.43,48.12,5.43,4.74,0,9.45-.21,14-.67,7.06-.72,13.63-1.09,19.87-1.45,21.4-1.23,41.62-2.4,64.21-15.53A19.26,19.26,0,1,0,713,272.75c-14.64,8.5-28.24,9.29-47.07,10.37-6.77.39-13.9.8-21.57,1.58-21.32,2.2-48-3.27-62.18-6.8-1.42-15.12-2.75-29.91-3.95-43.71,22,1.1,71.17,6.37,145.68,30.16a19.26,19.26,0,0,0,11.73-36.7Z"/><path class="cls-14" d="M696.41,186.16s36.52,79.35-24,135.68c0,0,31.57,15.81,57.23,9.24,0,0,56.54-76.17,13.27-129.61Z"/><g id="_21" data-name="21"><g class="cls-23"><path class="cls-14" d="M331.58,660.94s25.53-81.24,100.06-105.16,113.36-21,127.69-71.56,7.76-188.56,16.06-238.54c0,0,33.77,16.52,76.85,18.83,106.81,5.73,77.86,18.65,50.84,46.51-11.78,12.14-39,14.52-55.87,35.72s-36.85,46.18-22.66,116,50.21,111.36,26.18,135.16S352.84,653.22,331.58,660.94Z"/></g></g><g id="_23" data-name="23"><g class="cls-24"><path class="cls-14" d="M190.2,405.65S257.47,367,260,348.16c0,0,10.53,17,19.59,43.75,4.77,14.09,7.41,54.41,9.61,72.86,0,0-1.7-66.08-31.1-57.21s-54.41,20.25-62.65,13.79A14.79,14.79,0,0,1,190.2,405.65Z"/></g></g></g><path class="cls-14" d="M361.54,246.76s26.52,51.79,88.41,17.51c41.44-33.41,35.39-77,34.5-99.83,0,0-25,1.48-24.35,20.16s5.21,51.71-22.1,61.59S361.54,246.76,361.54,246.76Z"/><g id="_22" data-name="22" class="cls-25"><path class="cls-14" d="M340.78,234.68s25.86,106.8,79,101.06,70.84-92.46,68.75-148.54S328.87,191,340.78,234.68Z"/></g><path class="cls-26" d="M426.07,970s55.48-59.32,91-26.78,37.24,30.26,54.86,22.64a370.85,370.85,0,0,1-1.18-63.57,628.7,628.7,0,0,1,8.95-68.46c1.67-9.74-91.28,31.55-115.35,11.15s-38.73-13.4-38.73-13.4Z"/><g class="cls-27"><g id="_18" data-name="18" class="cls-28"><path class="cls-14" d="M583.52,861.46s-47.48,15.65-44.85,52,44.64,41.78,44.64,41.78,14.16,21.51-11,25.75-64.25-3.38-88.54-5-45.25-3.43-48.41-20.08-8.24-99.54-3.55-116.53S459.6,804.9,474,819.28s110.27,4.13,110.27,4.13Z"/></g></g><path class="cls-29" d="M484.8,869.5s-19.46,10-42.4-40-19.33-39.85-19.33-39.85,47.82,21.16,63.15,23.64S518.7,848.68,484.8,869.5Z"/><g id="_9" data-name="9"><path class="cls-16" d="M540.9,624.14s-294.07,6.6-264.46,100.66S400.28,937.24,377.59,1105c0,0,49.37,37.3,78.58,23,0,0-12-126.72-5.48-195.77s-7.78-120.47-22.16-134.75c0,0,57.51,60.09,121.23,22S540.9,624.14,540.9,624.14Z"/><g class="cls-30"><g id="_11" data-name="11"><path class="cls-15" d="M416.53,787.26s57.41-67-39.74-146.09c0,0,1.84-9.35,15.33-.87s52.05,41.26,56.48,94.47-15.73,54.18-22,61.67S416.53,787.26,416.53,787.26Z"/><path class="cls-15" d="M345.47,646.21s-49.46,20.18-49.22,50,37.15,76.08,62.56,142-29.86,15.31-54.28-16-80.95-92.18-54-128.8S345.47,646.21,345.47,646.21Z"/></g><path class="cls-26" d="M421.34,789.58s31.09-15.64,17.13-68.93-51.77-79.48-64.61-82.19,29.25-15.24,29.25-15.24,51.36,30.6,65.73,53S505.72,750.87,509,784.58s5.54,62-15.21,53.81C472.53,830,435.61,810.07,421.34,789.58Z"/><path class="cls-20" d="M292.73,788.94s19.35,12.84,54.54-9.47S412.55,772.71,432,801s40.49,77,39.14,101.75-3.06,192.06-3.06,192.06l2.6,42.16s-47.75,20.68-83.4-7.34-33.2-42.8-33.2-42.8S369.66,961,343.28,903.77,292.73,788.94,292.73,788.94Z"/><g class="cls-31"><path class="cls-12" d="M311.47,833.24S339.81,833,369,816.37s49.81-27.45,62.28-23.45-11.62-35.08-28.1-42.36-34.66-3.47-59.83,10.68-48.61,24.57-54.81,22.22S311.47,833.24,311.47,833.24Z"/><g id="_13" data-name="13" class="cls-32"><path class="cls-33" d="M331.52,780.26s41.4,75.47,61.16,197.63,8,156.43,8,156.43-40.07-9-37.17-27.38S353.3,939.22,330,875.1s-37.3-76.91-39.73-83.86S331.52,780.26,331.52,780.26Z"/></g></g></g></g><path class="cls-20" d="M386.14,638.77s73.64-4.47,102.69,138.1c0,0,24.9,92.4-5.52,91.88,0,0,116.34,4.78,166.05-97.85,0,0,33.16-92-20.1-178.86,0,0-47.11,20.11-85.81,22.56S434.16,626.25,386.14,638.77Z"/><g class="cls-34"><g id="_10" data-name="10"><path class="cls-22" d="M448.31,765.8a4.34,4.34,0,0,1-1.46-8.43c2-.74,205.1-74.67,175.77-183.72a4.34,4.34,0,1,1,8.38-2.26c13.1,48.66-14.39,97.77-79.47,142-48.37,32.88-101.23,51.94-101.76,52.12A4.17,4.17,0,0,1,448.31,765.8Z"/></g><g id="_101" data-name="101"><path class="cls-22" d="M468.51,781.65a4.34,4.34,0,0,1-1.48-8.42c2-.72,198.43-73.66,169.12-183.8a4.35,4.35,0,1,1,8.4-2.23c13.05,49.06-13.27,98.3-76.12,142.41-46.73,32.79-97.92,51.6-98.44,51.78A4.24,4.24,0,0,1,468.51,781.65Z"/></g><g id="_19" data-name="19" class="cls-35"><path class="cls-14" d="M389.2,638.37s176.4-32.51,220.5-12.75S655.64,783.85,579,829s-93.25,38.84-95.67,39.66-10.64,23,6,17.68,79.37-14.32,106-28.92,72.8-32.74,78.19-79.3,25.21-97,.41-155.64,24-72-36.95-62.68S488.53,595.06,459.63,603.5,389.2,638.37,389.2,638.37Z"/></g></g><g id="_1" data-name="1"><path class="cls-16" d="M484.86,94.08c12.65.82,14.49,16.69,12.14,34.6S482.81,161,473.76,159.85s-11.89-17.54-9.54-35.46S475.76,93.48,484.86,94.08Z"/><g class="cls-36"><g id="_4" data-name="4"><path class="cls-15" d="M476.48,138.44s8.13-26.84,13.59-28.87c4.23-1.58,7.54,2.74,8,14.2,0,0,6-27.15-11.18-32.06,0,0-8.89-3.41-9.3,10.25S476.48,138.44,476.48,138.44Z"/></g></g><path class="cls-15" d="M313.22,107.35c-10.53,1.33-10.49,17.48-6.73,35.54s15.12,32.23,22.59,30.67,8.22-18.23,4.47-36.29S320.79,106.4,313.22,107.35Z"/><path class="cls-16" d="M398.51,17c59.42-1.79,79.37,49.78,73.34,121.88-5.9,70.72-32,120-72,122.48-25.4,1.56-47-35.58-70.47-86.15-4.29-9.26-.94-22.31-5-42C308.79,58.45,344.4,18.6,398.51,17Z"/><g class="cls-37"><g id="_3" data-name="3"><path class="cls-15" d="M344.43,197.5c13.8,13.32-5.29-8.35-10.18-18.52s-5.18-25-5-39.42.24-35.53,5.91-34.1,25.41,26.76,58.81,9.94,50.05-27.66,56.61-16.24-1.1-17.75-5.51-20.44-25.32-2-48.7,10.15-31,7.5-49.12,4-25.06-5.08-25.09,6.81,1.93,44.37,3,58.12S330.64,184.17,344.43,197.5Z"/></g></g><ellipse class="cls-38" cx="419.19" cy="172.33" rx="4.77" ry="7.52"/><ellipse class="cls-38" cx="356.77" cy="174.1" rx="4.77" ry="7.37"/><path class="cls-39" d="M325.22,138.68s-.85,25.41,6.2,39.26,16.79,15.42,23.24,30.71,21,44.18,43.35,42.43,35.51-20.82,42.75-41.72,8.09-29.74,17.93-41.33,7.41-32,2.67-45.27,3.34-23,11-31.77,6.41,17.94,5.76,36.35-15.25,78.51-34.62,121.85c0,0-6.71,12.56-43.7,16.05,0,0-23.38,2-33-13.54-14.94-24.21-32.86-50.23-39.52-69.3C327.29,182.4,320,159.73,325.22,138.68Z"/><path class="cls-40" d="M380,234.32s14,8.13,38.67-5.51c0,0-7.52,14.5-17.2,17.35S384.83,241.2,380,234.32Z"/><path class="cls-14" d="M387.29,224.47s-15-4.54-25.65,4.77c0,0,2.9,5,7.19,4.19,0,0,.53,4.47,7.05,3.27s13.23-2.93,18.36-2.82c0,0,14.59-.27,21.87-.17s12.4-.59,10.85-4.91c0,0,11.14-2.11,9.17-6.14,0,0-22.8-3.67-33.4,1.65C402.73,224.31,393.55,228.26,387.29,224.47Z"/><path class="cls-41" d="M386.05,222.63s-15-4.54-25.66,4.77c0,0,2.9,5,7.2,4.19,0,0,.52,4.47,7,3.27S387.86,231.93,393,232c0,0,14.59-.27,21.87-.17s12.4-.58,10.85-4.91c0,0,11.14-2.1,9.17-6.13,0,0-22.8-3.68-33.4,1.64C401.48,222.47,392.3,226.43,386.05,222.63Z"/><path class="cls-15" d="M384.94,173.87s-3.09,31.54-6.76,33.76-6-2.06-3.21,4.25,13.22,23,22.63,14.53,15.84-22.94,9.18-19.71-9.44-10.48-10.61-23S388.31,160.15,384.94,173.87Z"/><g class="cls-42"><path class="cls-40" d="M387.76,162.69s-1.49,45.09.7,53.47,9.12,12.32,17.23,5.79-9.42,17.13-14.93,14.75-25.89-18.06-25.49-26.34,1.55-9.19,7.12-17S384.47,155.55,387.76,162.69Z"/></g><path class="cls-39" d="M334,97.05s21.47,21.63,47.46,14.39,39.88-21.32,52.44-24.38,20,19.67,26.38,35.75,11.51,19.72,13.77,11.1,5.84-26,5.84-26S484.72,70,472,41.67,404.24-19.44,353.25,14.38,307.55,76,314.92,112.22c3.57,17.58,7.32,29.6,9.24,43.06,0,0,2.85-21.3,1.83-35.41S326.23,91.48,334,97.05Z"/><g class="cls-43"><path class="cls-44" d="M350.22,13.55c-3.78,2.38-27.34,32.66-27.41,54.62S350.37,97.11,371.61,98s54.29-17.8,63.85-21.49S461.71,92,463.85,139.69s-6.92-30-23.54-32.14-67.95,19.08-81.93,17.09-28.48,39.89-25.12,55.88,11.71,36.77,21.09,54,3.25,24.52-18.76-11.83S301.74,156.34,299,108.49,297,45.15,314.42,27.66,354,11.17,350.22,13.55Z"/></g><path class="cls-41" d="M405.83,151.75s16.48-9.78,24.41-10.86c16.89-2.29,16.07,3.19,14,4.06s-9.75,1.62-13.8,3.79c-7.46,4-19.87,15.18-24.77,12.38C401.65,158.79,401.93,154.64,405.83,151.75Z"/><g class="cls-45"><g id="_5" data-name="5"><path class="cls-14" d="M403.52,154.23s1.25,7.23,8.91,3.55,13.16-7.54,18.52-10.12,10.82-2.52,12.56-3.35,1.7-.22,1.23-2.15,3.12.94,3.12.94,2.51,1.85-4.42,4.28-18.41,7-24.77,11.19-16.79,9-16.61,3.52S401.66,155.06,403.52,154.23Z"/></g></g><path class="cls-41" d="M370.72,154.28s-14.83-8.58-21.65-9.09c-14.56-1.08-13.41,4.32-11.61,5.05s8.43.92,12.05,2.79c6.68,3.45,18.17,13.71,22.1,10.57C374.87,161,374.28,156.88,370.72,154.28Z"/><g class="cls-46"><g id="_51" data-name="51"><path class="cls-14" d="M372.9,156.58s-.46,7.29-7.28,4.17S353.8,154.18,349,152s-9.41-1.75-11-2.45-1.46-.1-1.22-2.06-2.58,1.16-2.58,1.16-2,2,4.12,4,16.24,5.66,22,9.39,15,7.8,14.42,2.33S374.55,157.28,372.9,156.58Z"/></g></g><path class="cls-47" d="M384.51,34.85S347.2,51.38,356,72.13s50.57-.51,59.36-19.22c0,0-41.72,25-47.44,10.23C362.58,49.48,372.46,45.36,384.51,34.85Z"/></g><path class="cls-16" d="M747.28,299.75s23.94-45.33,3.43-86.55c0,0,55.33,23.7,70.51,43.86S890.51,354,919.87,475.21l.39,2.06s60.37,19.4,57.33,58.31c0,0,2.85,27-30.67,24.43,0,0-6.54,3.78-17.66-4.48S881,515.19,879.94,475.58c0,0-7.65-30.34-17.13-38.88S790.37,314,790.15,290.82C790.15,290.82,773.48,302.29,747.28,299.75Z"/><path class="cls-15" d="M736.69,320.27s9.86-17.83,10.59-20.52c0,0,26.18,1.82,42.87-8.93,0,0,41.53,104,71.06,144.11,0,0,13.68,10.95,19.29,47.57s41.26,69.46,47.81,72.31,34.17,14.06,47-7c0,0-7.25,34.09-29.81,36.54s-69-60.29-69-60.29-5.29-12.71-6.07-22.25-7.21-33-7.21-33-91.29-140-87-154.81C776.18,313.92,740.81,321.78,736.69,320.27Z"/></svg>