<svg id="Layer_1" data-name="Layer 1" xmlns="http://www.w3.org/2000/svg" xmlns:xlink="http://www.w3.org/1999/xlink" viewBox="0 0 180 108.71"><defs><style>.cls-1{fill:url(#linear-gradient);}.cls-2{fill:#a38f7f;}.cls-3{fill:#c2ab97;}.cls-4{fill:#706254;}.cls-5{fill:#635548;}.cls-6{fill:#f46f0c;}.cls-7{fill:#e65b0a;}.cls-8{fill:#fc7e21;}</style><linearGradient id="linear-gradient" x1="90" y1="36.63" x2="90" y2="108.71" gradientUnits="userSpaceOnUse"><stop offset="0" stop-color="#877769"/><stop offset="1" stop-color="#756558"/></linearGradient></defs><path class="cls-1" d="M0,108.48s7.12-8.91,14.61-10.62,8.47-9,14.4-13.59,2.34-9.34,9-15.44,9.74-20,16.17-24.59S67.68,17.83,71.45,15.78,75,14.54,80.93,16s4.64,5.6,13,4.06,8.58-1.72,14.63-4.46,7.8-2.84,12.09,1.24,5.53,14.53,7.71,19.67,4.24,10,6.81,15.55,13.1,14.4,14,19.73,5.92,15.44,10.57,15.68c7,.37,10,12,12.06,13.27,6.21,3.72,8.21,7.72,8.21,7.72Z"/><path class="cls-2" d="M41.65,64.38s1.42,1.15,10.49-7.6c5.06-4.88,5.41-4.4,8.72-10.66s4.71-4.51,9.3-9.88c4.4-5.14,5.51-5.48,7,1.14s1.08,3,4.76,9.66,2.94,3.32,4,12.88S87.8,70.59,90,74.27s5.14,1.47,5.14-3.31,1.47-7.73,3.68-11,2.21-2.33,2.94-9.44,1.47-11.3,4.79-15.09,5.51-8.93,8.09-1.58,2.57,5,6.25,9.1,1.84,8.14,4.79,10.19,4.41,12.47,8.83,13,10.32,5.28,13.07,2.15c-3.25-5.17-10.36-11.72-12.42-16.13-2.57-5.52-4.62-10.41-6.81-15.55s-3.23-13-5.09-19.86c-1.55-5.71-6.44-4.36-14.71-1.05-6.17,2.47-5.58-1.17-13.94.37s-7.76,1.52-13.68,0-6.59-2.57-10.36-.52S60.64,39.61,54.2,44.24C49.05,47.94,46.06,57.56,41.65,64.38Z"/><path class="cls-3" d="M71.45,15.78s3.86,2.61,6,2.88,2.69-.27,5.12,2.7,1.3,8.08,1.16,13.86c-.13,5.28,1.74,6.36,4.6,7.35s2,6.27,3,10.17-.23,10.76,2.41,9.44,5.69-8.71,6.25-14.44c.65-6.61-1.43-9.56-.51-12.79s1.15-5,4.38-7.13,4.32-2.39,6.76-4.24c6.19-4.71,7.56,6.43,9.14,4.65.73-.83-3.42-10.85-.65-11.63,1.91-.53,3.37-1.58,3.13-2.15-.55-1.3-2.61-1.69-2.61-1.69A53.2,53.2,0,0,0,109.39,14C106.69,14.55,68.12,11.82,71.45,15.78Z"/><path class="cls-4" d="M171.79,100.76c-3.2,0-2.81.58-4,0a31.67,31.67,0,0,0-9.49-1.35c-2.52.19-4.07,0-8.14-1.75s-4.27-1.48-4.67-4.59-3.15-11.79-4.44-12.46-2.78,4.59-3.36,9.24-2.26,7.62-5.36,9.94-3.49-.38-6-2.51-3.49-6.21-4.85-11.63-1.58-8-2.35-12.09S119,69.88,117,66s-2.33,3.1-3.88,7.56,0,5.89-1.52,9-1.55,5.42-3.88,9.69c-6.29,11.53-3.45,8.46-8.91,9.1-3.29.39-5.43-3.87-7.94-6.57s-3.1-1.56-5.82-6.41-1-5.81-1.93-7.17S82,73.83,81.4,71.7,78.88,74,77.53,76.11s-2.33,6-3.49,8.57c-4,8.56-4.41,11.69-8.33,10.09-3.3-1.34,3.22-13.23,1.47-18.66s4.15-24,2.79-26.75S54,73.72,52.85,74.92c-3.44,3.53-6.59,7.5-8.14,13.12S39,93.59,33.93,96.69s-8.14,3.1-11.82,4.85S19.2,105,13.2,105,0,108.48,0,108.48H180S178,104.47,171.79,100.76Z"/><path class="cls-5" d="M23,108.19c1.07.29,9.42-4.59,14-5.94s4-1.61,8.89-5.65S51,92.93,54.52,84.53s11.65-27.86,12.15-29.3,1.86-8.59,3.47-4.75-1.34,6.58,0,10.59,1.35,7.79,2.16,12.64,2.42,11.85,4.58,16.16a95.66,95.66,0,0,0,5.71,10c2.36,3.77,10.3,8.65,6.74,8.65S23,108.19,23,108.19Z"/><path class="cls-6" d="M74.27,14.45a73.19,73.19,0,0,1,12-6.11c5.42-1.94,5.64,2.27,12.27,1.55,9.43-1,19.5,5.62,12.14,9.49s-7.94,3.49-9.3,6.4-3.49,6-3.49,12.4,4.52,22.86,2.58,26.74-4.83,4.65-6.8,1,0-7.17,0-12.79S94,43,92.47,37.31c-2.46-9.08,1.32,6.4-5.07,4.91-5.1-1.19-2.75-9.08-1.78-13.34s2.1-7.72-2.2-10.34A39.43,39.43,0,0,0,74.27,14.45Z"/><path class="cls-7" d="M108.35,18c-7.62,2.85-5.55,2.72-8.39,5.69S95.31,29,96.34,34.56s-.26,11.75,1,15.63c1.24,3.69,4.27,21.19-4.57,12a7.44,7.44,0,0,0,.87,3.71c2,3.68,4.87,2.9,6.8-1s-2.58-20.35-2.58-26.74,2.13-9.5,3.49-12.4,1.94-2.52,9.3-6.4c2.8-1.48,2.85-3.49,1.47-5.39C112.62,15.13,112.14,16.61,108.35,18Z"/><path class="cls-7" d="M93.32,41.65c0-4.06-.38-8.37-1.24-10.64-1.36-3.59-3,6.29-5.43,9.2-1.59,1.91-2.1-1.6-2.31-5-1.06,4.44.54,9.18,4,10,6.39,1.49,1.63-17,4.09-7.94A31.89,31.89,0,0,1,93.32,41.65Z"/><path class="cls-7" d="M85.62,28.88c-.12.54-.29,1.18-.48,1.88,0,0,3.12-9,2-12.74s-12.9-3.57-12.9-3.57a39.43,39.43,0,0,1,9.15,4.09C87.72,21.16,86.59,24.61,85.62,28.88Z"/><path class="cls-8" d="M81.74,11.82c.25-.45,4.65-3.74,8-2.58s3.36,2.58,7.62,2.58,10.34.64,12,2.17-3.31,2.39-8.46,1.36-2.06-1.53-7.26-2.59S80.63,13.89,81.74,11.82Z"/><path class="cls-8" d="M95.66,52.9s-1.77,7.15.68,9.52S96.66,51.09,95.66,52.9Z"/></svg>