<svg id="Layer_1" data-name="Layer 1" xmlns="http://www.w3.org/2000/svg" xmlns:xlink="http://www.w3.org/1999/xlink" viewBox="0 0 180 108.71"><defs><style>.cls-1{fill:url(#linear-gradient);}.cls-2{fill:#72851d;}.cls-3{fill:#8aa321;}.cls-4{fill:#839922;}.cls-5{fill:#c0e067;}.cls-6{fill:#b0cc3a;}.cls-7{fill:#48852b;}.cls-8{fill:#4d8e2f;}.cls-9{fill:#accc27;}</style><linearGradient id="linear-gradient" y1="85.37" x2="180" y2="85.37" gradientUnits="userSpaceOnUse"><stop offset="0" stop-color="#b0d124"/><stop offset="1" stop-color="#798e20"/></linearGradient></defs><path class="cls-1" d="M.08,108.71S-1.64,98.08,10.5,95.05C22.85,92,23.76,83.44,28.39,83.44S45.57,62,58.68,62,93.73,80.18,99.56,80.55c9.07.58,15.16-1.43,29.51-8.68,19.48-9.84,28.59,13.19,35.49,16.39C180.77,95.79,180,108.71,180,108.71Z"/><path class="cls-2" d="M146,74.65c2.31,3.47-.2,5,1.34,5.6s6.17,2.84,6.17,3.83,6.18,2.63,7.14,3.45c.26.22,2.18.87,3,.26C157.21,82,150.37,70,139.07,69.46,139.13,69.48,143.72,71.2,146,74.65Z"/><path class="cls-3" d="M.45,108.71S4.3,103.26,6.62,102s4.78,1.28,10-3.85c2-2,10.46-2.66,16.82-3.48,3-.38-1.1,2.13-5.71,4.36s-9.82,3.11-11.21,4.78-5.43-.34-5.43.63S.45,108.71.45,108.71Z"/><path class="cls-4" d="M54.64,62.68s8.85,1.28,10.2,6.68S71,75.15,71.4,78.62s5.93,4.85,8.46,7.44,8.71,3.2,14.11,4.15,8.45-1.72,14.84-1.77c3.19,0,5.85-7.1,12.6-10.18s9.94-7.54,7.66-6.39c-14.35,7.25-20.44,9.26-29.51,8.68C93.73,80.18,71.79,62,58.68,62A13.81,13.81,0,0,0,54.64,62.68Z"/><path class="cls-3" d="M28.81,83.39c1-.19,3.94-1.88,7.1-2.46s9.26-3.28,12.37-2.55,12,4.77,12.76,5.52-3.21-1.11-6.4-1.83-5.81-2.54-8.75-1.81S40,81.34,37,81.78,28.81,83.39,28.81,83.39Z"/><path class="cls-5" d="M13.82,102.9s1.66-2.4,11.3-5.12c4.25-1.2,8.53-4.76,12.22-5.66s9-2.51,13.79-3.13,8.35,2.84,11.95,3.92,10.44,4.49,10.44,5.52-26.62,6-38.93,6A125.52,125.52,0,0,1,13.82,102.9Z"/><path class="cls-2" d="M180,108.71s.78-12.92-15.43-20.45c0,0-2.39,1.57-2.39,1.57s1.87,1.23,3.6,2.19,4,1.16,4,2.79.39.88,1.64,2.75,2.6,1.78,1.93,4.77-2,2.51-.77,4,.95,2.43.95,2.43Z"/><path class="cls-6" d="M142.19,100.5a8.13,8.13,0,0,1,5.21-5.8c4.54-1.74,6.24-5.33,8-5.79s3.3-4.06,9.12-.65a36.85,36.85,0,0,0-4.24,3c-2.31,1.86-.68,5.57-3.47,7s-4,7.42-4,7.42l-13.82-3.72Z"/><path class="cls-7" d="M142.74,99.14c.33.2-.68-2.57-.51-3.24s1.15-.14,1.15-.14-.51-3.06.29-3.08c.33,0,.09-3.71,1-3.54s.31-2.75,1.15-3.06,1,2.33,1.28,2.24c.54-.2,1.26,2.28,1.21,4.18,0,0,1.17-.36,1,1.53s-.39,3.91-.39,3.91,1.12-.42.88,2-.28,3.39-2,3.52a35.93,35.93,0,0,1-4.29,0S141.4,98.33,142.74,99.14Z"/><path class="cls-7" d="M129.08,102.33s-1.13-1.58-.79-1.94.79,0,.79,0-.07-2.3.44-2.4c0,0,.07-1.4.61-1.18a1.42,1.42,0,0,1,.72.84s.46-.6.78-.29c0,0,.48-1.64,1.09-1.33,0,0,.55-1.43,1.33-.85,0,0,.89.17.92,1.58a1.11,1.11,0,0,1,1,1.21s.94.41.63,1.06c0,0,1.16.3.48,1.55a1.42,1.42,0,0,1-.72,1.6Z"/><path class="cls-8" d="M138.57,99c.24.14-.47-1.71-.33-2.15s.86-.07.86-.07-.32-2,.27-2c.25,0,.14-2.45.78-2.32s.28-1.81.91-2,.74,1.55.92,1.5c.4-.13.89,1.52.82,2.78,0,0,.88-.22.74,1s-.36,2.58-.36,2.58.84-.25.61,1.37-.27,2.24-1.53,2.3-3.2-.09-3.2-.09S137.58,98.46,138.57,99Z"/><path class="cls-7" d="M151.94,93c.1,0,.31-2.69.9-2.75s.67,2,.67,2,.92.38.7,2.66c0,0,1.3,0,.56,3.83,0,0,1.19.6.39,3.79-.56,2.25-4.53,1-4.53,1s-.48-3.63-.23-3.91l.42-.46s-.35-2.54.16-3.42a.57.57,0,0,1,.51-.33S151.31,92.69,151.94,93Z"/><path class="cls-7" d="M44.62,97.51c-.23.14.47-1.71.33-2.15s-.86-.07-.86-.07.32-2-.27-2c-.25,0-.14-2.45-.77-2.32s-.28-1.82-.92-2-.74,1.55-.91,1.5c-.41-.13-.88,1.82-.81,3.07,0,0-.88-.22-.74,1s.34,2.28.34,2.28-.87-.49-.64,1.13.3,2.48,1.57,2.54,3.19-.09,3.19-.09S45.61,97,44.62,97.51Z"/><path class="cls-8" d="M35.27,99.83c.23.13-.47-1.72-.33-2.16s.86-.07.86-.07-.32-2,.27-2c.25,0,.14-2.45.77-2.33s.28-1.81.92-2,.74,1.55.91,1.5c.41-.12.89,1.53.82,2.78,0,0,.88-.22.74,1s-.36,2.58-.36,2.58.85-.26.62,1.36-.27,2.24-1.54,2.31a31.18,31.18,0,0,1-3.19-.1S34.28,99.26,35.27,99.83Z"/><path class="cls-8" d="M51.33,92.17c.08,0,.24-1.89.78-1.92s.65,1.42.65,1.42.84.29.68,1.89c0,0,1.19,0,.56,2.7,0,0,1.11.44.42,2.68-.48,1.57-4.15.62-4.15.62S49.79,97,50,96.8l.38-.32s-.36-1.79.1-2.41a.53.53,0,0,1,.46-.22S50.75,92,51.33,92.17Z"/><path class="cls-8" d="M103.41,95.25c.24.13-.46-1.72-.32-2.15S104,93,104,93s-.32-2,.27-2c.25,0,.14-2.45.77-2.33s.28-1.81.92-2,.74,1.56.91,1.5c.41-.12.89,1.53.82,2.78,0,0,.88-.22.74,1s-.36,2.58-.36,2.58.85-.26.62,1.37-.27,2.23-1.54,2.3a31.18,31.18,0,0,1-3.19-.1S102.43,94.68,103.41,95.25Z"/><path class="cls-7" d="M106.6,98.45s1.14-1.57.8-1.93-.8,0-.8,0-.33-2.14-.82-2.55a.89.89,0,0,0-1-.19s-.46-.6-.77-.29c0,0-.49-1.65-1.09-1.33,0,0-.56-1.43-1.34-.85,0,0-.89.17-.92,1.57a1.11,1.11,0,0,0-1,1.22s-1,.41-.63,1.06c0,0-1.17.29-.49,1.55a1.43,1.43,0,0,0,.73,1.6Z"/><path class="cls-7" d="M112.39,100.49a12.47,12.47,0,0,0,.41-2.75c-.17-.65-.51-.24-.51-.24a2.18,2.18,0,0,0,0-1.47c-.13-.35-.71-.47-.71-.47s-.33-.68-.7-.43c0,0-.15-1.71-.81-1.52,0,0-.26-1.51-1.14-1.1,0,0-.91,0-1.21,1.37a1.11,1.11,0,0,0-1.19,1s-1,.22-.83.92c0,0-1.19.06-.78,1.43a1.42,1.42,0,0,0,.4,1.71Z"/><path class="cls-8" d="M95.62,95.46c-.22.16.43-2.1.3-2.64s-.8-.09-.8-.09.3-2.49-.25-2.49c-.23,0-.13-3-.71-2.85s-.26-2.22-.85-2.45-.68,1.9-.84,1.83c-.38-.15-.83,1.87-.76,3.41,0,0-.81-.27-.68,1.26s.33,3.16.33,3.16-.78-.31-.57,1.68S91,99,92.21,99.09a21.48,21.48,0,0,0,3-.11S96.53,94.77,95.62,95.46Z"/><path class="cls-8" d="M88.88,89.37c.1,0,.27-2,.88-2.05s.74,1.52.74,1.52,1,.31.78,2c0,0,1.35,0,.65,2.89,0,0,1.25.47.49,2.85-.55,1.68-4.71.65-4.71.65s-.56-2.74-.31-2.94l.43-.35s-.41-1.91.1-2.57a.64.64,0,0,1,.52-.23S88.22,89.15,88.88,89.37Z"/><path class="cls-8" d="M95.19,96.13c.23.13-.47-1.72-.33-2.15s.86-.08.86-.08-.32-2,.27-2c.25,0,.14-2.45.77-2.33s.29-1.81.92-2,.74,1.56.91,1.5c.41-.12.9,1.53.83,2.78,0,0,.88-.22.73,1s-.35,2.58-.35,2.58.84-.26.61,1.37-.27,2.24-1.53,2.3a31.29,31.29,0,0,1-3.2-.1S94.2,95.57,95.19,96.13Z"/><path class="cls-9" d="M.08,108.71H170.44s-.77-4-15.81-6.83c-11.15-2.09-24.91.66-41.89-2.43s-25.37-6.56-47.5-2.7-40.67,4.63-51.42,5.79C7.81,103.18-.37,108.71.08,108.71Z"/><path class="cls-5" d="M40.53,108.71s25.28-3.1,31.06-4.88A43.91,43.91,0,0,1,89,102.33c4.92.64,8.25-.1,12.59,1.5s10.7,4.88,10.7,4.88Z"/></svg>