<svg id="Layer_1" data-name="Layer 1" xmlns="http://www.w3.org/2000/svg" viewBox="0 0 180 108.71"><defs><style>.cls-1{fill:#d1aa9d;}.cls-2{fill:#c99b87;}.cls-3{fill:#84574a;}.cls-4{fill:#5c8cc6;}.cls-5{fill:#a87867;}.cls-6{fill:#79a581;}.cls-7{fill:#698e71;}.cls-8{fill:#8ba58f;}</style></defs><path class="cls-1" d="M31.1,108.64c-.06-6.72-.47-37.8-2.7-38.8a21.69,21.69,0,0,0-4.6-1.5l-.62-4.12a6,6,0,0,1-2.72,0c-1.25-.38-4.81.37-4.81.37C14,65,11.27,66.47,10,72.08s-2.09,0-2.92,3.38a123.88,123.88,0,0,0-2.51,15s-2.3,5.24-2.71,8.61c-.35,2.81-1.57,8-2,9.59Z"/><path class="cls-2" d="M24.31,108.64H138.69c-.11-5-.9-36.93-3.2-37.92-2.5-1.07-3.57,10.71-3.22-2.5s-.35-6.43,0-10-4.28-10-4.28-10,2.14-4.64,2.14-6.07-4.64-9.64-4.64-11.43.71-6.43.71-6.43l-2.85-1.07L122.63,20l-8.21-.72-.72,4.29h-6.07l-6.43-1.79-7.85,3.57-1.08-4.28-20.35.36-1.79,2.5-5,1.42L61.2,31.79l-7.5,1.43-2.5,3.93-4.28,2.14-2.86,9.29-4.64-3.93-.36-2.14L33,41.44l-2.14,3.92V50l-3.57,4.28-.72,7.86-3.21,5.71L20.49,89.29,23,100.36Z"/><path class="cls-3" d="M99.42,25.36s-2.86,4.29-3.22,6.43,0,1.43,0,1.43-1.78-1.43-3.93.72l-3.92,3.92s2.85-6.07,6.07-6.78S95.49,26.79,99.42,25.36Z"/><path class="cls-4" d="M135.49,70.72s0,10-1.79,12.86.36,6.43.36,11.43-.36,9.64-.36,9.64a109.71,109.71,0,0,0,1.43-13.57C135.13,86.08,135.49,70.72,135.49,70.72Z"/><path class="cls-3" d="M44.06,48.58,43,53.94l-2.86,3.57v6.07L36.92,65,30.85,85l-.36,11.78L29.42,80.36l5.36-17.5-1.43-3.92h3.93s-1.79-5,0-6.79a3.41,3.41,0,0,1,3.57-1.07V48.22Z"/><path class="cls-5" d="M114.42,19.29l8.21.72.72,3.21s2.67,0,2.85,1.07-.71,6.43-.71,6.43,4.28,8.75,4.64,11.43S128,48.22,128,48.22l-3.57,2.14L112.1,36.44l1.6-12.86Z"/><path class="cls-5" d="M103.35,57.86s-8.75-4.64-9.11-7.5a36,36,0,0,1,.18-7.14l-3-1.43,7.68-3.21s.54-6.79,2.32-7,6.25-8,6.25-8h6.07l.54,15.89L113,41.08h-8.57Z"/><path class="cls-6" d="M85.14,23.27s-4.07,3.11-6.7,2.15-6,2.15-7.41,1.67-.9-3.15-.9-3.15.05-2.18,1.79-2.5,19.36-.88,20.35-.36,1.08,4.28,1.08,4.28Z"/><path class="cls-2" d="M16.75,66.08s-3.22.79-3.83,5.36L12.32,76l-2.12.43,2,1.3-.46,4.35s-1.51,0-1.51,1.09a21.35,21.35,0,0,1-.6,3.47l2.11-2.82s1.36.65,2-3.91,1.05-7.61,1.05-7.61h2.72L15.14,71V68.83Z"/><path class="cls-3" d="M95.13,24.65s-3.21,2.5-3.21,3.93l-2.15,4.28L88,34.29l-2.5,6.07c-1.79,1.79-5,13.58-5,13.58l-1.43,2.14-.36,5.71L76.56,65l-.36,5.71-1.43,1.43.36,6.07-2.5,3.57.72,7.14-3.22,1.79-1.78,16.43c-2.15-.72-1.08-14.64-1.08-14.64s3.22-4.29,3.58-6.43-1.79-4.65-1.79-4.65,5-1.78,3.93-6.42-6.43-8.58-6.43-8.58a10.77,10.77,0,0,1,5,3.22c2.14,2.5,2.86,1.07,3.21-1.43a80.41,80.41,0,0,1,2.15-8.93c.71-2.5,3.21-6.78,3.21-8.93s-3.93-3.57-3.93-3.57l5-.71s2.15-3.22,2.5-5-2.85,0-2.85,0l2.85-3.22c.72-3.57,2.86-1.42,2.86-4.28a14.16,14.16,0,0,0-.36-3.93s.72.36,1.79-2.14-2.5-1.79-2.5-1.79V22.51s4.67-.26,5.74-.26,1,1-.74,1.69S95.13,24.65,95.13,24.65Z"/><path class="cls-7" d="M61.2,31.79s-7.63-.15-9.3,1-.24,3.35-1.92,3.83-5,2.87-5,4.07,2.15,3.82,2.63,1.67,2.15-4.07,3.59-4.07,4.54,0,5-1.67S61.2,31.79,61.2,31.79Z"/><path class="cls-3" d="M40.85,102.86l.71-11.43,3.57-5.71,1.43-21.43-2.5-3.21,6.79-9.64,2.85-1.79,1.79-8.21,2.86-4.65,2.85-5-5.35,1.79-2.5,4.28,2.5.36-3.57,1.43L51.2,45,53,46.08H46.2l-.35,1.43,5.35.71-2.5,4.29L43,53.94l5,.35-5.36,3.93v4.64l1.79,1.79-5,6.07,5-3.57-2.5,5.71,2.5,1.43-2.5,3.93-5.36-3.93,5.72,7.14-.36,6.43-2.14,5-2.86-2.14L38,83.22l-3.21-3.93-.72,8.22S32.63,92.86,36.2,95s2.86,4.28,2.86,4.28Z"/><path class="cls-6" d="M33,41.44c-2.14.24-3.33,5.5-2.14,5.74s2.39-1.91,4.07-2.63,4.22-1.46,4.14-2S35.13,41.19,33,41.44Z"/><path class="cls-6" d="M32.51,43.05c-.95,1.4-2.72,1.65-3.31,3.32-.43,1.18.17,2.37-.37,3.2-.28.43-.88.73-1.19,1.22a14.7,14.7,0,0,0-1.3,3.78,13,13,0,0,0,.06,5.48c.17.85.94.5,1-.22.06-2.62-.39-5,2-6.59,1-.67,1.84-1,2.27-2.16.52-1.39-.31-2.37-.18-3.73s1.3-2.56,1.57-3.9c0-.26-.23-.77-.48-.4Z"/><path class="cls-8" d="M107.66,29.06c.31-2.85,4.24-2.44,5.69-4.36,1.24-1.66.69-3.88,3.16-4.4a9.17,9.17,0,0,1,4.41.44c.87.52.78,1.28,1.32,1.92,1.26,1.47,3.81,1.57,2.9,4.31-.15.45.1,1.56.75,1.09,1.87-1.33,1.15-4.1-.13-5.6a28.43,28.43,0,0,0-3.12-2.9,5.86,5.86,0,0,0-3.51-1.4c-1.42-.16-3.6-.46-4.81.5s-.72,2.6-1.42,3.82c-1.51,2.62-6.23,3-5.69,6.59.05.33.42.31.45,0Z"/><path class="cls-8" d="M116.61,18.36a3.33,3.33,0,0,0-3.18-.71c-2.35.57-3.85,1.79-6.41,1.81-3.18,0-6.45,1-8.54,3.63-.22.27-.07,1.35.44,1.07a17.21,17.21,0,0,1,1.76-1c1.32-.51,2.09-.25,3.51.13a10.12,10.12,0,0,0,4.73.56c2.88-.51,5.18-2.91,7.62-4.38a.75.75,0,0,0,.07-1.11Z"/><path class="cls-8" d="M75.29,47C74,46,73.68,45.42,72,45.82a6,6,0,0,0-3,1.83c-1.25,1.33-1.72,3-2.6,4.59a4.47,4.47,0,0,1-3,2.56c-.71.29-1.43.37-2.14.73-3.64,1.88-2.95,4.86-3.86,8.26-1.11,4.14-3.92,7.41-3.77,11.9,0,.86,1,1.72,1.44.55.51-1.43.74-2.93,1.25-4.36a27.29,27.29,0,0,1,3-5.13,15.24,15.24,0,0,0,1.44-3.46,6.11,6.11,0,0,1,3.14-4.17,8.2,8.2,0,0,0,3.64-4c.87-1.92,1.3-4.18,2.79-5.73,1-1,3.28-2.24,4.8-1.52.39.19.43-.64.21-.82Z"/><path class="cls-8" d="M69.47,69.59c-1.44-6.74-8.6-3.42-10.91,1.15-1.56,3.09-.33,6.3.13,9.49.34,2.3,2.3,3.84,1.85,6.08-.07.34.37.81.52.31.8-2.72.06-4.09-.1-6.45-.2-2.82-.78-6.51,1.16-8.65,2.26-2.49,4.12-2.17,6.95-1.29.35.11.45-.4.4-.64Z"/><path class="cls-8" d="M63.08,78.42c-.45-2.32,1.26-2.78,2.17-4.37a3.7,3.7,0,0,0,.47-1.52c0-.3.06-1.88-.15-1.51a3.17,3.17,0,0,0,.17-2.74c-.24-.55-1-1.45-1.7-1a3.14,3.14,0,0,0-1.45,2.58,4.68,4.68,0,0,0,.19,1.86,3.41,3.41,0,0,0,.32.82c.32.42.35.53.07.35-.27,1.09-1,2-1.05,3.18a6.67,6.67,0,0,0,.51,2.64c.13.44.5,0,.45-.3Z"/><path class="cls-8" d="M34.14,76.05a47.09,47.09,0,0,1,2.46-6.43c.92-1.82,1.55-2.78,3.77-2.45s2.31-5.3-.13-5.17-4,2.33-4.81,4.54a17.84,17.84,0,0,0-.65,3.76c-.27,1.82-.71,3.67-1.1,5.47-.07.3.32.71.46.28Z"/><path class="cls-8" d="M39,69.65a13.81,13.81,0,0,0,2.41-1.74A6,6,0,0,0,42.86,64c0-.91-.48-2.31-1.51-2.46s-1.56,1-1.78,1.86c-.37,1.57-.07,3.45-1.17,4.77-.4.48-.22,2.1.61,1.5Z"/><path class="cls-8" d="M40.84,59c-.07-.32.21-.56.4-.83a2.28,2.28,0,0,1,.89-.77A2.08,2.08,0,0,0,43.36,56c.18-.75-.12-1.83-1-2-1.15-.16-2,1.19-2.42,2.1a3.72,3.72,0,0,0,.28,3.22c.27.58.72,0,.63-.43Z"/><path class="cls-8" d="M6.12,80.89a18.92,18.92,0,0,1,1.29-4.07c.42-.74,1.08-1,1.61-1.53,1.13-1.19.48-2.33,1.33-3.8.64-1.11,2.49-2.26,3.32-3.4,1.22-1.65,2-1.74,3.77-2,.67-.09,4.66-.86,4.78.59,0,.45.19.91.69,1l.34.06c.57.08.89-.78,1-1.18.5-2.7-1.3-4.15-3.86-4.11-3.49,0-6.34.38-8.35,3.26-.93,1.34-2.39,2.06-3.23,3.5-.66,1.15-.35,3-.94,3.91.67-1.06-1.22.11-1.54.74-.9,1.77-.5,4.91-.66,6.74,0,.29.35.79.49.29Z"/><path class="cls-8" d="M13.29,71.51a7.7,7.7,0,0,1,.79-1.73,4.64,4.64,0,0,1,.67-1.29A2.86,2.86,0,0,0,15.8,67a2,2,0,0,0-.54-1.86c-1.19-1.11-2.5.56-2.88,1.62a4.72,4.72,0,0,0-.2,2.27,13.65,13.65,0,0,1,.5,2.33c0,.46.51.63.61.11Z"/><path class="cls-8" d="M19.88,71.64c-.07-.58.85-1.16,1.24-1.48,0,0,.78-.66.38-.5.25-.1.48.09.79,0,1.47-.65,1.27-3.4.53-4.43s-2-.21-2.07.89c0,.15-.09,1.17,0,.64A7.4,7.4,0,0,1,20.61,68c.16-.36-.24.15-.29.2a6.49,6.49,0,0,0-.68.81,3.31,3.31,0,0,0-.45,3.11c.3.67.75,0,.69-.47Z"/><path class="cls-8" d="M113,20.47c-.56-.77-1.71-.52-2.48-.44-1.65.17-2.08,2.24-1.92,3.58a3.39,3.39,0,0,0,.82,2,1.5,1.5,0,0,0,1.79.52,4.94,4.94,0,0,0,1.92-1.82,3.86,3.86,0,0,0,.48-2.62c0,.15,0,.31,0,.46a2.38,2.38,0,0,0-.07-.59,2.94,2.94,0,0,0-.59-1.1Z"/><path class="cls-6" d="M91.76,20.88c-2.71-2.91-6.23-3.58-10-2.49-3.57,1.05-8,.92-9.43,5-.24.7-.07,1.85.8,2,1.68.24,2.25-.84,3.77-1.49s3-.67,4.5-1.13a12.85,12.85,0,0,1,5.1-1,25.48,25.48,0,0,0,5.07.3c.54-.05.44-.89.18-1.17Z"/><path class="cls-6" d="M76.26,17a3.9,3.9,0,0,0,.17-.48l-1.24-1.06c.06-.18-.06.13-.07.14a1.6,1.6,0,0,0-.15.57l1.68.66c0-.39.07-.77.1-1.16l-1.24-1.79a1.51,1.51,0,0,0-.69.68A3.33,3.33,0,0,0,74.44,16,2.92,2.92,0,0,0,75,18.3a1.07,1.07,0,0,0,1.59.13,3.78,3.78,0,0,0,.56-4.09c-.31-.62-.8-1.28-1.58-1.09s-1.11,1-1.25,1.73a3.31,3.31,0,0,0,.75,3.08,1.13,1.13,0,0,0,1.19.21l0,0a2.54,2.54,0,0,0,1.11-2.37c0-.12,0-.23,0-.35l-2.62,1.74.06.07a1.39,1.39,0,0,1-.24-.75A2.06,2.06,0,0,1,74.78,15L77.2,16a3,3,0,0,0-.45-1.44,1.54,1.54,0,0,0-.72-.64c-.82-.24-1.26.8-1.2,1.46L75,16.52c0,.5.25,1.31.89,1.3s.88-.86.84-1.34a2.57,2.57,0,0,0-.15-.78c0-.09-.09-.18-.14-.26s0-.09,0,0c-.15-.4-.62-.69-1-.36a1.44,1.44,0,0,0-.21,1.48,3.71,3.71,0,0,0,.16.47c.23.5.66.44.88,0Z"/><path class="cls-6" d="M78.87,15.16a3.3,3.3,0,0,0-.37,1.69c0,.58.36,1.68,1.12,1.61s1-1,1-1.66v-.67c0-.58-.36-1.68-1.11-1.61s-1,1-1,1.66v.67l2.15-.05a2.86,2.86,0,0,0-.26-1.38c-.16-.32-.34-.63-.72-.69a.78.78,0,0,0-.8.43Z"/><path class="cls-6" d="M88.63,13.29c-.88,0-1.18,1-1.36,1.74l2.55.46.06-1a2.55,2.55,0,0,0-.42-1.44,1.2,1.2,0,0,0-1-.57c-.95.09-1.31,1.26-1.28,2.07l0,1c0,.73.34,1.76,1.17,1.9s1.28-.77,1.38-1.44a3.3,3.3,0,0,0-.18-1.84c-.18-.38-.49-.9-1-.88Z"/><path class="cls-6" d="M109.81,16.53a3.56,3.56,0,0,0,0-1.38c-.13-.6-.6-1.6-1.38-1.53s-1.15.9-1.3,1.59a3.43,3.43,0,0,0,0,1.39c.1.61.62,1.6,1.39,1.53s1.19-.9,1.3-1.6Z"/><path class="cls-6" d="M118.31,14.42s0-.08-.07-.13a1,1,0,0,0-1.18-.44,1.5,1.5,0,0,0-.7.86,2.21,2.21,0,0,0,.78,2.69l.1,0c.59.28,1.15-.37,1.31-.85a2.66,2.66,0,0,0-.24-2.17Z"/><path class="cls-6" d="M55.6,31.17c2,0,1.93-4.57-.11-4.57s-1.93,4.57.11,4.57Z"/><path class="cls-5" d="M75.72,16.3a33.2,33.2,0,0,0-.26,4.35c0,.64.7.63.7,0a29.8,29.8,0,0,0-.27-4.33c0-.13-.15-.12-.17,0Z"/><path class="cls-5" d="M79.25,16.63c-.14,1.18,0,2.38-.1,3.55-.05.53.56.63.5.09-.12-1.21,0-2.44-.11-3.64,0-.22-.27-.2-.29,0Z"/><path class="cls-5" d="M88.22,15.08a30.59,30.59,0,0,1,0,4.69c-.13.89.87.92.74,0-.21-1.56-.19-3.16-.49-4.71,0-.18-.21-.11-.21,0Z"/><path class="cls-5" d="M108.6,15.54a13,13,0,0,0-.29,4.57c0,.56.58.42.51-.12-.21-1.47.07-2.9,0-4.37,0-.12-.14-.24-.2-.08Z"/><path class="cls-5" d="M117.28,16.52c0,.51,0,1-.08,1.52a1.49,1.49,0,0,0,.09,1,.15.15,0,0,0,.27,0,1.55,1.55,0,0,0,.08-1c-.06-.51-.07-1-.08-1.52,0-.26-.27-.25-.28,0Z"/><path class="cls-5" d="M55.19,29.25c0,1.14-.13,2.27-.11,3.41,0,.54.56.52.57,0,0-1.14-.06-2.27-.12-3.41,0-.32-.32-.3-.34,0Z"/><path class="cls-3" d="M76.21,108.64a12.64,12.64,0,0,1-.19-2,22.1,22.1,0,0,1,1.25-4.82s1.25-6.07,2.33-7.5S81,85.54,81,85.54a6.94,6.94,0,0,0-1.25,3.93c0,2.32-2.67,4.11-3,7.68s-1.43,5.53-2.5,6.61c-.82.81-.6,3.6-.45,4.88Z"/><polygon class="cls-5" points="23.35 103.4 24.3 108.64 27.85 108.64 28.35 100.01 30.49 96.79 31.03 80.9 33.17 76.44 34.42 70.19 37.28 64.11 40.13 63.58 40.85 54.47 42.99 53.94 44.06 48.58 39.42 44.65 33.79 53.67 35.49 61.44 31.38 61.17 32.81 66.26 29.95 67.69 32.28 67.69 31.38 74.65 29.42 78.76 30.13 84.29 27.1 87.86 29.24 95.36 27.99 98.58 24.06 100.01 27.45 99.83 26.92 103.04 23.35 103.4"/><polygon class="cls-1" points="151.79 108.64 180 108.64 170.53 80.25 157.62 74.21 155.47 64.71 143.63 61.26 140.4 65.58 131.38 64.31 126.41 79.39 138.25 103.56 151.79 108.64"/><polygon class="cls-2" points="179.79 108.64 163 82.78 166.23 96.77 158.7 95.69 144.71 72.02 138.25 82.78 153.15 108.64 179.79 108.64"/><path class="cls-5" d="M125.84,108.64,133,82.15l-.36-7.32s0-9.11.27-12.06c.22-2.39.44-6.87-1.52-9.55s-3.39-5-3.39-5L123.7,50,125,59.65l-3.21,5.18-1.61,16.43L117.27,102l.35,6.67Z"/><path class="cls-5" d="M130,108.64h8.72c0-4.23-.14-27.84-.71-31.58-.63-4.11-.63-6.79-2.59-7.41-.86-.27-1.61.27-2.14,1.87a14.24,14.24,0,0,0-.63,3.31l.36,7.32-2.5,8.57Z"/><path class="cls-3" d="M148.7,90.36l-4.28-1.07V79.65s-.54-3.57-6.43-2.59l.7,31.58h14.67Z"/><path class="cls-3" d="M138.19,108.64c-1-1.46-3.24-4.26-5.92-3.46-3.57,1.08-.35-12.5-.35-12.5l-1.79-2.5L129.77,73s-2.85,14.29-3.57,22.86-2.85,8.57-2.85,8.57l-.6,4.17Z"/><path class="cls-3" d="M95.13,46.08l6.79,1.07v4.29c-1.07,1.78,1.43,6.42,1.43,6.42l.71-6.07.36-10.71H113l1.43,5.36,4.28,3.92,2.5.36,1.43,3.57-2.86.72,2.15,4.64-.72,3.57-2.85,1.07.71,3.22,2.14,1.43v3.21l-1.78,2.5-4.29,11.79,1.43,4.64-2.5,2.14-.71,9.29-1.3,6.13h6.35l1-13.28,3.21-8.92s-1.07-15.72.36-18.58,4.64-10.35,2.14-14.64,2.86-5,2.86-5,2.14-5.71.36-8.21-8.22-.36-8.22-.36l-6.43-3.57,8.57-1.79h-8.92v-2.5l12.14-1.07L113.35,30l.35-6.43L108,26.44l-.36,7.85-5.71.36L101.56,40l-6.07,1.07,6.07.71V45Z"/><path class="cls-5" d="M110.53,108.64c-.42-1.53-1.71-6.48-1.11-8.28.71-2.14.89-5.53,0-5.71s2.5-4.29,2.68-5.72.17-8.57-2.68-9.64a16.73,16.73,0,0,1-5.36-3.75s3.93,4.82,4.82,6.25,1.25,7.5,0,7.32-2.32-2.14-4.11-1.25-2.32,5.54-1.42,7.32,2.14,5.72,1.42,6.61-19.28,0-21.42.18-4.47.89-5.36,3.21c-.54,1.4-1,2.67-1.3,3.46Z"/><path class="cls-5" d="M45.49,104.47,43,105l-.15,3.63h2l.24-1.85,2-.36L48.53,97l5.53-8L55,82.51l3.4-2.15s-1.08-8.57.71-10.35,6.61-3.75,6.61-3.75l.89.17a44.3,44.3,0,0,1,4.29,3A9,9,0,0,1,73,72.68l2-1.78,3-12.68,3.21-10s-.89-1.25-5-1.43-5-.18-6.07,1.61S66,56.79,63.88,57,57.1,69.11,57.1,69.11L55,75l-2.14.35c-1.07,1.25-4.46,9.11-4.46,9.11a25.69,25.69,0,0,0,2.14,4.46l-1.43,3s-.53-2.68-2.68-2.68-3.21,3.39-3.21,3.39l5.18.72a29.93,29.93,0,0,0-2.15,5.71A43.31,43.31,0,0,0,45.49,104.47Z"/><path class="cls-5" d="M1.89,106.7.23,108.64H26.54L23.07,67.86a27.32,27.32,0,0,0-3,7.5c-.84,4-2.75,17.41-2.75,17.41s-4.23,1.61-5.5,1.61-1.91,8.3-1.91,8.3l-5.08.81,5.5,1.07v1.87Z"/></svg>