<?xml version="1.0" encoding="utf-8"?>
<!-- Generator: Adobe Illustrator 23.0.1, SVG Export Plug-In . SVG Version: 6.00 Build 0)  -->
<svg version="1.1" id="Layer_1" xmlns="http://www.w3.org/2000/svg" xmlns:xlink="http://www.w3.org/1999/xlink" x="0px" y="0px"
	 viewBox="0 0 100 100" style="enable-background:new 0 0 100 100;" xml:space="preserve">
<style type="text/css">
	.st0{fill:url(#SVGID_1_);}
</style>
<radialGradient id="SVGID_1_" cx="-197.2538" cy="298.175" r="0.5899" gradientTransform="matrix(96.78 0 0 -89.4543 19140.2285 26726.7402)" gradientUnits="userSpaceOnUse">
	<stop  offset="0" style="stop-color:#FFB900"/>
	<stop  offset="0.6" style="stop-color:#F95D8F"/>
	<stop  offset="0.9991" style="stop-color:#F95353"/>
</radialGradient>
<path class="st0" d="M74.3,52.3c-10.3,0-18.7,8.4-18.7,18.7c0,10.3,8.4,18.7,18.7,18.7c10.3,0,18.7-8.4,18.7-18.7
	C93.1,60.7,84.7,52.3,74.3,52.3L74.3,52.3z M25.7,52.3c-10.3,0-18.7,8.4-18.7,18.7c0,10.3,8.4,18.7,18.7,18.7
	c10.3,0,18.7-8.4,18.7-18.7C44.4,60.7,36,52.3,25.7,52.3L25.7,52.3z M68.7,28.9c0,10.3-8.4,18.7-18.7,18.7
	c-10.3,0-18.7-8.4-18.7-18.7c0-10.3,8.4-18.7,18.7-18.7C60.3,10.2,68.7,18.6,68.7,28.9L68.7,28.9z"/>
</svg>
