<?xml version="1.0" encoding="utf-8"?>
<!-- Generator: Adobe Illustrator 23.0.1, SVG Export Plug-In . SVG Version: 6.00 Build 0)  -->
<svg version="1.1" id="Layer_1" xmlns="http://www.w3.org/2000/svg" xmlns:xlink="http://www.w3.org/1999/xlink" x="0px" y="0px"
	 viewBox="0 0 100 100" style="enable-background:new 0 0 100 100;" xml:space="preserve">
<style type="text/css">
	.st0{fill:#0ACF83;}
	.st1{fill:#A259FF;}
	.st2{fill:#F24E1E;}
	.st3{fill:#FF7262;}
	.st4{fill:#1ABCFE;}
</style>
<g>
	<path id="path0_fill" class="st0" d="M35.4,96.2c8.3,0,15.1-6.8,15.1-15.1V66.1H35.4c-8.3,0-15.1,6.8-15.1,15.1
		C20.3,89.5,27.1,96.2,35.4,96.2z"/>
	<path id="path1_fill" class="st1" d="M20.3,51c0-8.3,6.8-15.1,15.1-15.1h15.1v30.2H35.4C27.1,66.1,20.3,59.3,20.3,51z"/>
	<path id="path1_fill_1_" class="st2" d="M20.3,20.8c0-8.3,6.8-15.1,15.1-15.1h15.1v30.2H35.4C27.1,35.9,20.3,29.2,20.3,20.8z"/>
	<path id="path2_fill" class="st3" d="M50.5,5.8h15.1c8.3,0,15.1,6.8,15.1,15.1s-6.8,15.1-15.1,15.1H50.5V5.8z"/>
	<path id="path3_fill" class="st4" d="M80.7,51c0,8.3-6.8,15.1-15.1,15.1S50.5,59.3,50.5,51s6.8-15.1,15.1-15.1
		C73.9,35.9,80.7,42.7,80.7,51z"/>
</g>
</svg>
