<?xml version="1.0" encoding="utf-8"?>
<!-- Generator: Adobe Illustrator 23.0.1, SVG Export Plug-In . SVG Version: 6.00 Build 0)  -->
<svg version="1.1" id="Layer_1" xmlns="http://www.w3.org/2000/svg" xmlns:xlink="http://www.w3.org/1999/xlink" x="0px" y="0px"
	 viewBox="0 0 100 100" style="enable-background:new 0 0 100 100;" xml:space="preserve">
<path d="M50,3.5C23.8,3.5,2.8,24.6,2.8,50.7C2.8,73,18,91.3,38.5,96.6c-0.2-0.6-0.4-1.4-0.4-2.1v-8h-5.9c-3.1,0-6.1-1.4-7.4-4.1
	c-1.6-2.9-1.8-7.2-5.7-10c-1.2-1-0.2-2,1-1.8c2.5,0.6,4.5,2.1,6.4,4.7s2.7,3.1,6.2,3.1c1.6,0,4.3-0.2,6.6-0.4
	c1.4-3.3,3.5-6.2,6.2-7.6c-15.8-2-23.4-9.8-23.4-20.3c0-4.7,2-9,5.3-12.7c-1-3.7-2.5-11.3,0.4-14.2c7,0,11.3,4.7,12.5,5.9
	c3.5-1.2,7.4-2,11.5-2c4.1,0,8,0.8,11.5,2c1-1.2,5.3-5.9,12.5-5.9c2.9,2.9,1.6,10.5,0.4,14.2c3.3,3.7,5.3,8.2,5.3,12.7
	c0,10.5-7.4,18.3-23.2,20.1c4.3,2.1,7.4,8.6,7.4,13.3v10.7c0,0.4-0.2,0.8-0.2,1C84,88.8,97.2,71.4,97.2,50.7
	C97.2,24.6,76.2,3.5,50,3.5L50,3.5z"/>
</svg>
