<?xml version="1.0" encoding="utf-8"?>
<!-- Generator: Adobe Illustrator 23.0.1, SVG Export Plug-In . SVG Version: 6.00 Build 0)  -->
<svg version="1.1" id="Layer_1" xmlns="http://www.w3.org/2000/svg" xmlns:xlink="http://www.w3.org/1999/xlink" x="0px" y="0px"
	 viewBox="0 0 100 100" style="enable-background:new 0 0 100 100;" xml:space="preserve">
<style type="text/css">
	.st0{fill-rule:evenodd;clip-rule:evenodd;fill:#36C5F0;}
	.st1{fill-rule:evenodd;clip-rule:evenodd;fill:#2EB67D;}
	.st2{fill-rule:evenodd;clip-rule:evenodd;fill:#ECB22E;}
	.st3{fill-rule:evenodd;clip-rule:evenodd;fill:#E01E5A;}
</style>
<g>
	<path class="st0" d="M38.1,5.4c-4.9,0-9,4-9,9s4,9,9,9h9v-9C47.1,9.4,43.1,5.4,38.1,5.4L38.1,5.4 M38.1,29.2H14.4c-4.9,0-9,4-9,9
		s4,9,9,9h23.8c4.9,0,9-4,9-9S43.1,29.2,38.1,29.2L38.1,29.2z"/>
	<path class="st1" d="M94.6,38.1c0-4.9-4-9-9-9c-4.9,0-9,4-9,9v9h9C90.6,47.1,94.6,43.1,94.6,38.1z M70.8,38.1V14.4c0-4.9-4-9-9-9
		s-9,4-9,9v23.8c0,4.9,4,9,9,9S70.8,43.1,70.8,38.1z"/>
	<path class="st2" d="M61.9,94.6c4.9,0,9-4,9-9c0-4.9-4-9-9-9h-9v9C52.9,90.6,56.9,94.6,61.9,94.6z M61.9,70.8h23.8c4.9,0,9-4,9-9
		s-4-9-9-9H61.9c-4.9,0-9,4-9,9S56.9,70.8,61.9,70.8L61.9,70.8z"/>
	<path class="st3" d="M5.4,61.9c0,4.9,4,9,9,9s9-4,9-9v-9h-9C9.4,52.9,5.4,56.9,5.4,61.9z M29.2,61.9v23.8c0,4.9,4,9,9,9s9-4,9-9
		V61.9c0-4.9-4-9-9-9S29.2,56.9,29.2,61.9L29.2,61.9"/>
</g>
</svg>
