<svg xmlns="http://www.w3.org/2000/svg" xmlns:xlink="http://www.w3.org/1999/xlink" xml:space="preserve" id="Layer_1" x="0" y="0" style="enable-background:new 0 0 503.4 503.4" version="1.1" viewBox="0 0 503.4 503.4"><style>.st2{fill:none;stroke:#263238;stroke-miterlimit:10}.st4{fill:#263238}.st5{fill:#fff;stroke-linecap:round;stroke-linejoin:round}.st5,.st6{stroke:#263238;stroke-miterlimit:10}.st6,.st8{fill:#797bf2}.st10{fill:#92e3a9}.st11{fill:none;stroke:#263238;stroke-linecap:round;stroke-linejoin:round;stroke-miterlimit:10}.st17{fill:#263238}.st17,.st18,.st19,.st22{stroke:#263238;stroke-linecap:round;stroke-linejoin:round;stroke-miterlimit:10}.st18{fill:#797bf2}.st19{fill:#92e3a9}.st22{fill:#4c4c4c}.st24{fill:#fff}</style><g id="Layer_12"><defs><circle id="SVGID_1_" cx="251.7" cy="251.7" r="251.7"/></defs><clipPath id="SVGID_2_"><use xlink:href="#SVGID_1_" style="overflow:visible"/></clipPath><path d="M-2.1-4.3h507.7v507.7H-2.1z" style="clip-path:url(#SVGID_2_);fill:#e3e4ff"/><defs><circle id="SVGID_3_" cx="251.7" cy="251.7" r="251.7"/></defs><clipPath id="SVGID_4_"><use xlink:href="#SVGID_3_" style="overflow:visible"/></clipPath><path d="M64.5 63.4V419m0-369.3v6.8M194 49.7V419M323.5 49.7V419M453 102.3V419m0-369.3v43.8" class="st2" style="clip-path:url(#SVGID_4_)"/><defs><circle id="SVGID_5_" cx="251.7" cy="251.7" r="251.7"/></defs><clipPath id="SVGID_6_"><use xlink:href="#SVGID_5_" style="overflow:visible"/></clipPath><g style="clip-path:url(#SVGID_6_)"><path d="M88 100.2h296.5v175.7H88z" class="st4"/><path d="M89.7 105.2h293.1v165.7H89.7z" class="st5"/><path d="M84.7 97.2h301.5v9.4H84.7z" class="st4"/><circle cx="239.6" cy="88.5" r="8.5" class="st5"/><path d="M244.1 88.5c0 2.5-2 4.5-4.5 4.5s-4.5-2-4.5-4.5 2-4.5 4.5-4.5c2.5.1 4.5 2.1 4.5 4.5z" class="st6"/></g><defs><circle id="SVGID_7_" cx="251.7" cy="251.7" r="251.7"/></defs><clipPath id="SVGID_8_"><use xlink:href="#SVGID_7_" style="overflow:visible"/></clipPath><g style="clip-path:url(#SVGID_8_)"><path d="M142.9 212.8h-36.2V176h61.6v36.8h-18.5m5.5 17.6h49.2v29.3h-49.2zM258.8 176h6.2v36.8h-61.6V176h49.5m-44.4-53.7h72.3v36.8h-93.3v-36.8h14.1m97.9 53.7h61.6v36.7h-61.6zm-117-35.6s-32.7 4.5-51.9 32.2m30.9 44.1 4.4 12.7m40.3-13.8-4 11.9m-41.1-2.3 4.8 4.2 1.2-5.7m33.2 0 1.8 4.8 5-3" class="st2"/><path d="m131.4 167-.8 5.7 6.2-3.9m130 24.7h30.9m-6.6-3.9 6.9 3.9-6.3 3.8m-122.3-3.8h30.8m-6.5-3.9 6.8 3.9-6.2 3.8M234 162v9.4m3.8-6.5-3.8 6.8-3.9-6.2m67.3 39h-29.7m6.3-3.8-6.6 3.8 6 3.9m-66.6-74.6h55.8m-55.8 5.3h55.8m-55.8 5.4h55.8m-150.2 45.1h50.2m-50.2 5.3h50.2m-50.2 5.4h50.2m47.2-10.7H260m-50.2 5.3H260m-50.2 5.4H260m43.6-10.7h50.2m-50.2 5.3h50.2m-50.2 5.4h50.2m-192.1 40H200m-38.3 5.4H200m-38.3 5.3H200" class="st2"/><path d="M331.5 138.5c-.2 0-.3-.1-.4-.2-.1-.2-.1-.5.2-.7l.4-.2-.1.1c-.2.1-.5.1-.7-.2-.1-.2-.1-.5.2-.7l2-1.3-1.8 1c-.2.1-.5.1-.7-.2-.1-.2-.1-.5.2-.7l3.6-2.4-3.4 2c-.2.1-.5.1-.7-.2-.1-.2-.1-.5.1-.7l5.7-3.8-5.5 3.2c-.2.1-.5.1-.7-.2-.1-.2-.1-.5.1-.7l8.5-6.1-8.5 4.9c-.2.1-.5.1-.7-.2-.1-.2-.1-.5.1-.7l6.1-4.2-6 3.5c-.2.1-.5.1-.7-.2-.1-.2-.1-.5.1-.7l3.4-2.3-3.3 1.9c-.2.1-.5.1-.7-.2-.1-.2-.1-.5.1-.7l2.2-1.5-2 1.2c-.2.1-.5.1-.7-.2-.1-.2-.1-.5.1-.7l5.9-4.4-5.9 3.4c-.2.1-.5.1-.7-.2-.1-.2-.1-.5.1-.7l5.3-4-5.2 3c-.2.1-.5.1-.7-.2-.1-.2-.1-.5.1-.7l2.6-1.9-2.4 1.4c-.2.1-.5.1-.7-.2-.1-.2-.1-.5.1-.7l2.1-1.6-1.9 1.1c-.2.1-.5.1-.7-.2-.1-.2-.1-.5.1-.7l1.1-.8-.8.5c-.2.1-.5.1-.6-.1-.2-.2-.2-.5 0-.6l1.6-2.1-1.5.8c-.2.1-.4.1-.6 0s-.2-.3-.2-.5l.2-.6c-.2 0-.3-.1-.4-.3-.1-.2-.1-.5.2-.7l.7-.4c.2-.1.4-.1.6 0s.2.3.2.5l-.1.5 2.7-1.5c.2-.1.5-.1.6.1.2.2.2.5 0 .6l-1.6 2.1 4.8-2.8c.2-.1.5-.1.7.2.1.2.1.5-.1.7l-1.1.8 2.5-1.5c.2-.1.5-.1.7.2.1.2.1.5-.1.7l-2.1 1.6 3.5-2c.2-.1.5-.1.7.2.1.2.1.5-.1.7L335 118l3.9-2.2c.2-.1.5-.1.7.2.1.2.1.5-.1.7l-5.3 4 6.9-4c.2-.1.5-.1.7.2.1.2.1.5-.1.7l-5.9 4.4 7.3-4.2c.2-.1.5-.1.7.2.1.2.1.5-.1.7l-2.2 1.5 2.9-1.7c.2-.1.5-.1.7.2.1.2.1.5-.1.7l-3.4 2.3 4.1-2.4c.2-.1.5-.1.7.2.1.2.1.5-.1.7l-6.1 4.2 6.9-4c.2-.1.5-.1.7.2.1.2.1.5-.1.7l-8.5 6.1 9.5-5.5c.2-.1.5-.1.7.2.1.2.1.5-.1.7l-5.7 3.8 6.2-3.6c.2-.1.5-.1.7.2.1.2.1.5-.2.7l-3.6 2.4 3.9-2.2c.2-.1.5-.1.7.2.1.2.1.5-.2.7l-2 1.3 2.1-1.2c.2-.1.5-.1.7.2.1.2.1.5-.2.7l-.4.2.4-.3c.2-.1.5-.1.7.2.1.2.1.5-.1.7l-5.9 4.1 6.1-3.5c.2-.1.5-.1.7.2.1.2.1.5-.1.7l-.1.1c.2-.1.5-.1.7.2.1.2.1.5-.1.7l-1.1.8 1.1-.6c.2-.1.5-.1.6.1.2.2.2.5 0 .7l-1.9 2.2 1.9-1.1c.2-.1.4-.1.6.1.2.1.2.4.1.6l-.2.5c.2 0 .4.1.5.2.1.2.1.5-.2.7l-1.1.6c-.2.1-.4.1-.6-.1-.2-.1-.2-.4-.1-.6l.2-.4-3.2 1.8c-.2.1-.5.1-.6-.1-.2-.2-.2-.5 0-.7l1.9-2.2-7.4 4.3c-.2.1-.5.1-.7-.2-.1-.2-.1-.5.1-.7l1.1-.8-4.2 2.4c-.2.1-.5.1-.7-.2-.1-.2-.1-.5.1-.7l.1-.1-2.8 1.6c-.2.1-.5.1-.7-.2-.1-.2-.1-.5.1-.7l5.9-4.1-10.5 6c-.2 0-.3.1-.4.1z" class="st8"/><path d="M315.9 152.7c-4.5-4-7.4-9.6-7.4-15.9 0-12 10.4-21.7 23.2-21.7 12.8 0 23.2 9.7 23.2 21.7s-10.4 21.7-23.2 21.7c-3.5 0-6.8-.7-9.8-2M288 132.2h14.7m-14.7 5h14.7m-14.7 5.1h14.7m-191.8 76h25.8m-25.8 5.1h25.8m-31.1-70.8h25.7m-20.4 75.8h25.8M110.9 239h25.8m-25.8 5.1h25.8m-25.8 5h25.8" class="st2"/><path d="m325.5 115.7 6.3 22.7 22.9-5.3m-248.9-11.6v25.3h40.6" class="st2"/><path d="M110 125h8.4v21.8H110zm21.5 4.9h8.4v16.8h-8.4zm-10.7-11.8h8.4v28.7h-8.4z" class="st6"/></g><defs><circle id="SVGID_9_" cx="251.7" cy="251.7" r="251.7"/></defs><clipPath id="SVGID_10_"><use xlink:href="#SVGID_9_" style="overflow:visible"/></clipPath><g style="clip-path:url(#SVGID_10_)"><path d="M57 284.2s0-4.2-5.9-10.2c-5.9-5.9-9.8-9.3-9.8-9.3s-3 9.8 2.5 15.7c5.5 5.9 13.2 11.5 13.2 11.5v-7.7zm-8.6 26.5s0-4.2-5.9-10.2c-5.9-5.9-9.8-9.3-9.8-9.3s-3 9.8 2.5 15.7c5.5 5.9 13.2 11.5 13.2 11.5v-7.7z" class="st8"/><path d="M56.7 291.4s.4-4.2 7-9.5c6.5-5.3 10.7-8.3 10.7-8.3s1.9 10-4.2 15.3-14.3 10-14.3 10l.8-7.5zm-10.4 31.3s.9-4.1 7.9-8.7c7.1-4.6 11.5-7.1 11.5-7.1s.9 10.2-5.8 14.8c-6.6 4.7-15.3 8.4-15.3 8.4l1.7-7.4zm1.9 34.1s0-4.2 5.9-10.2c5.9-5.9 9.8-9.3 9.8-9.3s3 9.8-2.5 15.7c-5.5 5.9-13.2 11.5-13.2 11.5v-7.7z" class="st8"/><path d="M48.1 365.2s.6-4.2-4.4-10.9-8.3-10.6-8.3-10.6-4.3 9.2.3 15.9c4.6 6.7 11.4 13.2 11.4 13.2l1-7.6zm-5.8 24.7s0-4.2 5.9-10.2c5.9-5.9 9.8-9.3 9.8-9.3s3 9.8-2.5 15.7c-5.5 5.9-13.2 11.5-13.2 11.5v-7.7z" class="st8"/><path d="M46.2 412.2s-1.1-4.1 3.2-11.4c4.2-7.3 7.1-11.5 7.1-11.5s5.3 8.7 1.5 15.8c-3.8 7.1-9.8 14.4-9.8 14.4l-2-7.3z" class="st10"/><path d="M57.6 283.1c-.3 4.5-.9 9.2-1.6 13.2-2.3 12.1-8.2 20-10.6 30.9-2.3 11 4.4 25.1 2.6 39.2-1.8 14.1-7.3 21.9-5.7 31.3s9.8 34.8 9.8 34.8m4.5-138.3 6.4-4.9m-6.1-.7-2.7-4.8" class="st11"/><path d="M45.7 326.7s5.4-4 10.9-8m-8.2-.4s-4.5-8.8-9.5-14.6m9.5 59.2s4.2-8.2 11.5-15.3m-12.5 21.2s-2.7-6.4-5.8-11-3.6-5.2-3.6-5.2m4.3 45.1s2.1-5.4 4.8-9.8c2.7-4.3 6.3-8.2 6.3-8.2m-5.2 39.9s-.6-5.1 1.6-9.4c2.2-4.3 4.8-10 5.8-12.2" class="st11"/><path d="M18.1 340.9s-.5-2.7 2.6-7 5.1-6.9 5.1-6.9 2.9 5.8.1 10.1-7 8.6-7 8.6l-.8-4.8zm8.3 15.7s-.5-2.7 2.6-7c3.1-4.4 5.1-6.9 5.1-6.9s2.9 5.8.1 10.1-7 8.6-7 8.6l-.8-4.8z" class="st8"/><path d="M19.2 345.4s-.7-2.6-5.4-5.2-7.6-4-7.6-4-.1 6.5 4.3 9.2 10 4.7 10 4.7l-1.3-4.7zm9.9 18.5s-1-2.5-5.9-4.6-8-3.2-8-3.2.6 6.5 5.2 8.7c4.7 2.2 10.5 3.6 10.5 3.6l-1.8-4.5zm2.5 21.6s-.5-2.7-4.8-5.7c-4.4-3.1-7.1-4.8-7.1-4.8s-.8 6.4 3.3 9.6c4.1 3.1 9.5 5.8 9.5 5.8l-.9-4.9z" style="fill:#671cc9"/><path d="M32.5 390.7s-.8-2.6 1.6-7.3c2.4-4.8 4.1-7.6 4.1-7.6s3.7 5.3 1.5 10-5.7 9.5-5.7 9.5l-1.5-4.6z" class="st8"/><path d="M40 412.2s.3-2.7 4.5-6 6.8-5.2 6.8-5.2 1.2 6.4-2.7 9.7c-3.9 3.4-9.1 6.3-9.1 6.3l.5-4.8zm-1.1-6.7s-.5-2.7-4.8-5.7c-4.4-3.1-7.1-4.8-7.1-4.8s-.8 6.4 3.3 9.6c4.1 3.1 9.5 5.8 9.5 5.8l-.9-4.9zm-.1 14.5s.2-2.7-3.2-6.8c-3.4-4.1-5.7-6.4-5.7-6.4s-2.4 6 .8 10.1 7.7 8 7.7 8l.4-4.9z" class="st10"/><path d="M17.7 340.3c.7 2.8 1.5 5.7 2.5 8.1 2.8 7.4 7.3 11.6 10 18.2s0 16.2 2.6 24.8c2.7 8.6 6.9 12.9 7 19 0 6.1-2.4 22.9-2.4 22.9m-17.9-86.2-4.5-2.3m3.7-1.2 1.2-3.3" class="st11"/><path d="M29.8 366.3s-3.8-1.9-7.7-3.9m5.2-1s1.8-6 4.4-10.2m.4 38.1s-3.5-4.7-8.9-8.4m10.2 12s1-4.3 2.4-7.5c1.5-3.2 1.7-3.7 1.7-3.7m2 33.3s3-3.7 4.9-5.1 3.2-2.8 3.2-2.8m-7.9 3.3s-1.9-3.2-4.1-5.6c-2.1-2.4-4.8-4.5-4.8-4.5m7.6 24.6s-.2-3.3-2-5.7c-1.9-2.5-4.1-5.7-5-7" class="st11"/></g><defs><circle id="SVGID_11_" cx="251.7" cy="251.7" r="251.7"/></defs><clipPath id="SVGID_12_"><use xlink:href="#SVGID_11_" style="overflow:visible"/></clipPath><g style="clip-path:url(#SVGID_12_)"><circle cx="440.3" cy="153" r="36.8" style="fill:#263238;stroke:#263238;stroke-miterlimit:10" transform="rotate(-76.927 440.341 153.034)"/><circle cx="440.4" cy="153.1" r="31.3" style="fill:#fff;stroke:#263238;stroke-miterlimit:10" transform="rotate(-22.957 440.384 153.082)"/><path d="m450 133.1-9.6 20h13.8" class="st2"/><path d="M443.9 153.1c0 1.9-1.6 3.5-3.5 3.5s-3.5-1.6-3.5-3.5 1.6-3.5 3.5-3.5 3.5 1.6 3.5 3.5z" class="st6"/></g><defs><circle id="SVGID_13_" cx="251.7" cy="251.7" r="251.7"/></defs><clipPath id="SVGID_14_"><use xlink:href="#SVGID_13_" style="overflow:visible"/></clipPath><g style="clip-path:url(#SVGID_14_)"><path d="m241.2 248.3-4.7-6.9s.9-11.1-.1-12.8c-1.1-1.7-18.2-3.7-19.1-2.4-1 1.3 2.6 2.4 2.6 2.4s-2.4 1.1-2.2 2.3c.4 1.8 3.5 2 3.5 2s-2.5 1.7-2.2 2.7c.2.8 2.7 1.5 2.7 1.5s-2.5 1.1-.5 2.6c2 1.4 3.8 3 3.8 3s-1.4 3.1 2.4 5.7 10.5 7.5 10.5 7.5l3.3-7.6z" class="st5"/><path d="m217.8 221.5-3.8-.3v1.2l3 1.7c.1 0 .8-2.9.8-2.6z" class="st17"/><path d="M232.7 229.2c-.2 0-.3 0-.5-.1l-15-4.7c-.8-.2-1.2-1.1-1-1.9.3-.8 1.1-1.2 1.9-1l15 4.7c.8.3 1.2 1.1 1 1.9-.2.7-.8 1.1-1.4 1.1z" class="st5"/><path d="M240.5 232.1c-.2 0-.4 0-.7-.1l-7.8-2.4c-1.1-.3-1.6-1.5-1.3-2.5.3-1.1 1.5-1.6 2.5-1.3l7.8 2.4c1.1.3 1.6 1.5 1.3 2.5-.2.9-1 1.4-1.8 1.4z" class="st17"/><path d="M234.3 234.4s-1.4-4-2.4-6c-1.1-2-3.1-3.7-3.9-5.7-.8-2-3 1.1-2.2 2.6s2.6 3.7 2.6 4.7.3 1.7-.9 5-1.8 7.1.8 9.8" class="st5"/><path d="m219.8 228.6 8.6 1.5m-7.3 2.8c1-.3 6.4 2.2 6.4 2.2m-5.8 2.1 4.4 1.5" class="st11"/><path d="M301.3 235s-2.6-1.5-3.7 2.5-4.4 11.2-5.9 12.7L275.9 266s-6.2-4.8-7.6-3c-1.5 1.8-2.4 2.1-2.4 2.1l-24.7-19.3-9.1 13.8s33.5 30.6 36.3 31.5c2.8.9 4.8.6 5.8.1s19.4-14.4 19.4-14.4 11.2-36.2 12.2-37.5c.8-1.3-4.5-4.3-4.5-4.3z" class="st18"/><path d="M268.2 266.1s5 5.8 5 13.1m3-10.8s1.5 3.8-.8 12.3" class="st19"/><path d="M312.3 190.3s-10.9-7.1-9.6-13.9c1.3-6.7 25.7-12.2 39.7-7.6 14 4.5 16.9 25.6 15 38.5-1.9 13-3 42.5-3 42.5l-47.6 1.4s4.4-34.6 5.4-45.6c.9-10.8.1-15.3.1-15.3zM287.9 381c1 10.3 2.9 55.9 4 62.7h49.5c-.1-7.8-.2-60.3.9-64.6 1.4-5.4 3.4-23.3 1.2-33.6s-4.8-15.2-4.8-15.2l-51.4-.1.1 4.2c.1.1-.9 31.9.5 46.6z" class="st17"/><path d="M298.9 350c2.1 1.4 4.1 2.4 4.1 4.4 1 18.1 5 68.8 6.4 87" style="fill:none;stroke:#4c4c4c;stroke-linecap:round;stroke-linejoin:round;stroke-miterlimit:10"/><path d="m313.6 234.3 25.1.9s-20.2 31-20 48.1c.2 17.1 3.6 52.4 3.6 52.4s-11 8.7-22.5 7.1c-1.2-.2-1.9-10.4-1.9-10.4s-.7 9.9-1.6 9.8c-6.4-1.1-8.9-7.8-8.9-7.8l1.3-34.2s0-22.4 2.5-28.8 19.4-35 19.4-35l3-2.1z" class="st5"/><path d="M312.7 254.1s-7.8 16.1-10.6 25.6-4.1 52.7-4.1 52.7" class="st11"/><path d="M335.7 235s-17.6 26.3-21 35.7c-3.4 9.5-5.7 45.7-5.2 61 .5 15.4 5.3 32.3 5.3 32.3s20.2 4.1 42.7-2.9c0 0-6.2-27.3-9.1-36.2-2.9-8.9-4.2-17.9-4.2-17.9s20.2-64.5 20.1-65.5c0-1-.4-2-2.4-2.6-2-.6-26.2-3.9-26.2-3.9z" class="st18"/><path d="m319.6 335.5 26.1-2.1.4 4.2-11.2 1.4m-21.5-101.3s-21 37.1-21.5 43.8-3.6 37.6-5.3 47.3c-1.7 9.8-9.2 28.7-9.2 28.7s-1.9-8.3-1.4-12c.6-3.7 8.6-24.7 9.5-29.4.9-4.7 2-21.5 1.8-28.8-.2-7.4-.7-12.7.8-18.1s13-34.2 13-34.2l16.7-.8-4.4 3.5z" class="st18"/><path d="m308.9 234.6-3.5 16 8.9-7z" class="st5"/><path d="m319.6 226.9-10.7 7.7 4 10.6-.2 8.9 12.1-18z" class="st5"/><path d="M318.9 222.7s-2 14.9-2.7 18.9c-.6 4-3.6 12.5-3.6 12.5s19.1-18.4 20-19.9 4.2-16.3 4.2-16.3-12.2 4.6-17.9 4.8z" class="st5"/><path d="M318.4 226.8c2.6 1.6 4.6 1.6 7.6 1.2 3-.5 7.1-3.3 9.9-5.5.6-2.6 1.1-4.6 1.1-4.6s-12.3 4.6-18 4.7c-.1.1-.3 1.8-.6 4.2z" class="st17"/><path d="m325 177.3-14 11.1s-1.4 10.7-1.9 18.2 2.6 12.8 6.7 16.4c4.1 3.6 6.3 3.8 10.3 3.2s9.8-5.3 11.9-7.3 6.2-8.1 6.2-8.1 3.2.6 4.2-.9c.9-1.5 1.2-2.3 1.2-2.3s-13.4-7.5-18.9-17.1-5.7-13.2-5.7-13.2z" class="st5"/><path d="M320.7 197s-.4 3-1.4 4.5c-.9 1.5-4.6 2.4-2.6 4 2 1.7 5.3 1.6 5.3 1.6m-5.4 3s7.5 3.3 12.4-1.1" class="st11"/><path d="M319.1 211.2s1.1 4.2 3.6 3.4 4.6-4.1 4.6-4.1-3.2.6-8.2.7z" class="st11"/><path d="M330.1 199c0 1.1-.4 2-1.1 2-.6 0-1.1-.9-1.2-2 0-1.1.4-2 1.1-2s1.2.9 1.2 2zm-11.8-1.4c0 1.1-.4 2-1.1 2-.6 0-1.1-.9-1.2-2 0-1.1.4-2 1.1-2s1.2.9 1.2 2z" class="st4"/><path d="M314.3 193s2.6-2.8 5.7.1m5.8.6s5.6-2.2 8 2.7" class="st11"/><path d="m322.6 238.9-9.9 15.2 14.6-7.9z" class="st5"/><path d="m339.4 225.8-16.8 13.1 4.9 13.8 16.1-18.6zm-20.4 78s-2.7-.6-6.4-2.8c-3.7-2.2-7.7-1.4-11.1-1.3-3.3.1-5.7.8-5.3 2.2.4 1.3 3.7 1.2 4.7 1.2s2.7 1.6 2.7 1.6l-8.4 2s-2.6 1.8-.6 3.7c2.1 1.9 2.4 1.5 2.4 1.5s3.2 4.9 6.5 5.2c3.4.2 17-3.2 17-3.2l-1.5-10.1z" class="st5"/><path d="M342.7 265.4c.4 2 2.6 31.9 2.6 31.9l-27.6 6.5 1.5 15.7s49.3-5.8 50.3-8.8c.9-3-2.3-55.5-2.1-58.5.2-3 4.3-13.2-7.7-13.2" class="st18"/><path d="M347.3 260.4s8.1-10.4 16.9-10m-16.9 13.8s6.9-3.8 13.8-3.8" class="st19"/></g><defs><circle id="SVGID_15_" cx="251.7" cy="251.7" r="251.7"/></defs><clipPath id="SVGID_16_"><use xlink:href="#SVGID_15_" style="overflow:visible"/></clipPath><g style="clip-path:url(#SVGID_16_)"><path d="M39.1 443.7V385c0-1-.8-1.8-1.8-1.8h-7.2c-1 0-1.8.8-1.8 1.8v58.7h10.8z" class="st22"/><path d="M30.2 443.7V385c0-1-.8-1.8-1.8-1.8h-7.2c-1 0-1.8.8-1.8 1.8v58.7h10.8zm4 0h128.5c-1.1-2.4-2.5-4.5-4.4-5.7-5.8-3.7-61.3-12.3-61.3-12.3l-57.7-.9-2.8.9s-3.1 4.3-2.8 6.4c.3 1.1.4 6.4.5 11.6z" class="st17"/><path d="M86.6 314.4s-13.5 7.7-18.1 12-12.3 18.4-12.9 27c-.6 8.6-7.4 41.4-7.4 41.4s-13.8 27-11.7 31 58.9 0 60.4 0-1.5-16.9-1.5-16.9 21.5-33.1 22.4-42-5.5-33.1-6.7-38.6c-1.2-5.6-21.8-15.1-24.5-13.9z" class="st5"/><path d="M76 361.2s10.7 10.2 15.2 13.6m-20.3-5.7s19.8 6.8 24.9 7.3" class="st11"/><path d="M128.6 280s1.5 11.3 1.2 14.7c-.3 3.4-3.4 15-4.3 17.5s-1.8 5.2-5.2 4.9c-3.4-.3-5.5-1.8-5.5-1.8l-3.4 11.3-23.3-13.5 3.1-6.1s-3.4-5.5-4.3-14.7 4.3-19.6 11-23.6 18.4-2.5 21.8.3c3.4 2.8 8.9 11 8.9 11z" class="st5"/><path d="M86.9 308.6c1.2.3 27.6 12.3 27.9 15.3.3 3.1 1.5 12.6 1.5 12.6s-8-7.1-17.5-12.3c-9.5-5.2-14.1-8.9-14.1-8.9l2.2-6.7z" class="st5"/><path d="M110.2 254.9s8-3.4 14.4-1.8c6.4 1.5 8.9 8.9 8.9 15s-3.4 13.5-4.6 13.8c-1.2.3-4.3-14.4-10.1-18.7-5.8-4.3-8.6-8.3-8.6-8.3z" class="st18"/><path d="M100.4 256.7s12.6-6.7 23.6 2.8c11 9.5 7.4 19 4.9 22.4s-2.5 9.8-4.3 11-2.1-4.9-4.3-6.1c-2.1-1.2-1.8 3.4-4.3 9.5s-13.5 15-19.3 14.4-12.9-7.1-16.9-20.5c-4-13.5-1.2-27.9 6.1-32.5 7.4-4.7 14.5-1 14.5-1z" class="st18"/><path d="M124.8 262.5s2.4 7-3.8 14.9c-6.2 7.9-14.6 12.2-20.9 8.4-6.2-3.8-6.5-8.1-6.5-8.1" class="st11"/><path d="M83.6 279s-1.4 21.1 11.4 23.3c12.7 2.2 19.8-11.1 19.8-11.1" class="st11"/><ellipse cx="87.7" cy="266.5" class="st18" rx="12.7" ry="12.9"/><path d="M85 264.7s1.6-8.4 6.2-9.5m-6.8 10.6s9.2-3.2 13.5.3m-14 1.3s-4.1 2.7-2.7 8.9" class="st11"/><path d="M122.2 293.8s-.9-9.2-3.7-8.9c-2.8.3-1.5 14.1 0 16.3s3.1.3 3.1.3" class="st5"/><path d="M381.4 431.2H96.6l9.6-24.2h211.1z" style="fill:#b5b5b5;stroke:#263238;stroke-linecap:round;stroke-linejoin:round;stroke-miterlimit:10"/><path d="M99.7 436h277.8v7.6H99.7z" class="st17"/><path d="M96.6 431.2h284.8v9H96.6z" class="st22"/><path d="m203.9 410.1 8.2 13.1h-66.8l6.5-13.1z" class="st24"/><path d="m191.3 414 8.2 13.1h-66.8l6.5-13.1z" class="st24"/><path d="m109.9 342.3 12.9 59.8 50 7.1s15-6.1 16.3-6.1c1.2 0 3.4 3.7 4.3 4.9s2.5 3.1 3.1 4 .9 5.5 0 6.7-2.8 4.6-4.6 4.3c-1.8-.3 0-5.2 0-5.2s-10.7 4.3-14.1 4.3c-3.4 0-10.1-3.1-10.1-3.1s-57 6.4-60.4 5.2c-3.4-1.2-5.2-3.1-6.4-5.5-1.2-2.5-20.9-68.1-20.9-68.1" class="st5"/><path d="M193.3 407.9c-.9-1.2-3.1-4.9-4.3-4.9s-16.3 6.1-16.3 6.1l-28.5-4c1.2 3.5 2.7 9.6 1.4 16.2 11.9-1.2 21.9-2.4 21.9-2.4s6.7 3.1 10.1 3.1c3.4 0 14.1-4.3 14.1-4.3s-1.8 4.9 0 5.2c1.8.3 3.7-3.1 4.6-4.3.9-1.2.6-5.8 0-6.7-.5-.9-2.1-2.7-3-4z" class="st5"/></g><defs><circle id="SVGID_17_" cx="251.7" cy="251.7" r="251.7"/></defs><clipPath id="SVGID_18_"><use xlink:href="#SVGID_17_" style="overflow:visible"/></clipPath><path d="M11.8 443.7h485.6" style="clip-path:url(#SVGID_18_);fill:none;stroke:#263238;stroke-linecap:round;stroke-linejoin:round;stroke-miterlimit:10"/><defs><circle id="SVGID_19_" cx="251.7" cy="251.7" r="251.7"/></defs><clipPath id="SVGID_20_"><use xlink:href="#SVGID_19_" style="overflow:visible"/></clipPath><g style="clip-path:url(#SVGID_20_)"><path d="M278.6 423.6h54v-1.8l-80.4-12 1.9 1.7z" class="st5"/><path d="M278.6 421.8h54L304 410.1l-49.9-.3z" class="st5"/><path d="M287.4 412.5h5l-2.6-1.1h-4.9zm10.2 4.3 2.6 1.1h5.1l-2.6-1.1zm9.4-1.6h-5.6l1.5.6h5.6zm-11.8.6h5.1l-1.5-.6h-5.1zm3.8-1.7h5.6l-1.6-.6h-5.6zm-19.3-1.6h5.1l-2.5-1h-4.9zm10.1 1 1.5.6h5.1l-1.6-.6zm24.8 7.2h5.8l-4.3-1.8h-5.8zm-12-1.8 4.3 1.8h5.1l-4.3-1.8zm-7.6 0 4.2 1.8h5.1l-4.3-1.8zm-2.7 0h-9.8l3.5 1.8h10.6zm2.7-6.4h5.5l-2.8-1.2-5.3.1zm10.3 4.3 2.6 1.1h5.7l-2.6-1.1zm-7.7 1.1-2.6-1.1h-5l2.5 1.1zm-20.5-5.4-2.3-1-6.7.1 1.7.9zm14 2.7h-5l1.4.6h5.1zm-9-1.7 1.6.6h5l-1.5-.6zm2.8 2.3-1.4-.6h-8.4l1.2.6zm-11.8-1.7h7.9l-1.5-.6h-7.7zm14.2 2.7h-9l2.2 1.1h9.4z" style="stroke:#263238;stroke-width:.75;stroke-linecap:round;stroke-linejoin:round;stroke-miterlimit:10;fill:#fff"/><path d="M278.6 421.8h-2L239.3 368l1.8-.6h24.5z" class="st5"/><path d="m276.6 421.8-24.4-12-13-42.4h24.4z" class="st5"/></g><defs><circle id="SVGID_21_" cx="251.7" cy="251.7" r="251.7"/></defs><clipPath id="SVGID_22_"><use xlink:href="#SVGID_21_" style="overflow:visible"/></clipPath><g style="clip-path:url(#SVGID_22_)"><path d="M490.2 443.7v-65.3c0-1-.8-1.8-1.8-1.8h-23.8c-1 0-1.8.8-1.8 1.8v65.3h27.4z" class="st17"/><path d="M481.6 443.7v-65.3c0-1-.8-1.8-1.8-1.8H456c-1 0-1.8.8-1.8 1.8v65.3h27.4z" class="st22"/><path d="M386.4 339.6s-10.5 7-11.8 11.3-9.1 28.7-9.9 30.6-7.3 11.8-7.3 11.8l-34.4 1.6s-15.6-3.5-16.9-3.5-14.8 8.9-15.8 11.3c-1.1 2.4-3.5 5.9-2.4 6.7 1.1.8 2.7-.5 2.7-.5s.5 3.8 7.3 2.4c6.7-1.3 13.4-6.2 13.4-6.2s8.3 4 11.6 3.2c.1 0 .2-.1.3-.1v3.6s45.4 2.4 47.3 1.9 11.8-12.6 11.8-12.6l11.6-62.3c-.3 0-.8-5.9-7.5.8z" class="st18"/><path d="m323.7 395.9-.7-.9h-.1s-15.6-3.5-16.9-3.5-14.8 8.9-15.8 11.3c-1.1 2.4-3.5 5.9-2.4 6.7 1.1.8 2.7-.5 2.7-.5s.5 3.8 7.3 2.4c6.7-1.3 13.4-6.2 13.4-6.2s8.3 4 11.6 3.2c.1 0 .2-.1.3-.1v3.6l.6-16z" class="st22"/><path d="M387.6 443.7h1.1c-.8-1.9-1.5-3.7-1.8-4.7-.9-2.9-11.2-40.1-12.3-45.6-1.1-5.4-.6-13.2 2.3-24.1s9.5-29.7 9.5-29.7l-9.5 13.3s-8 31-8 35 4 24.4 8 34.4c2.3 5.8 7.1 14.8 10.7 21.4z" class="st18"/><path d="M390.7 332.1s-9.9 15.6-12.6 26.3-4.8 20.1-4.8 29.8 10.7 37.1 12.4 40.6c1.6 3.5 19.1 4.6 24.4-12.1 5.4-16.7 7.8-64.7 4.6-75.8-3.3-11-17.3-16.1-24-8.8z" class="st5"/><path d="M387.9 329.8c-.7 1-9.6 5.9-9.6 5.9l-.3 9.3 2.6-5 4.2 12.3 4.4-22.8-1.3.3z" style="fill:gray;stroke:#263238;stroke-linecap:round;stroke-linejoin:round;stroke-miterlimit:10"/><path d="M388.9 443.7H462c-2.4-6.4-11.7-31.4-12-32.5-.3-1.3-7.9-60.2-15.9-71.1-7.9-10.9-26.4-14.9-30.4-12.6 0 0-13.2 26.8-18.2 39.3-5 12.6-8.3 37.4-8.3 41s6.9 26.4 6.9 26.4l4.8 9.5z" class="st18"/><path d="m441.5 424-31.6 9.4 2 4.1 17.5-5.4" class="st11"/><path d="M372.2 283.3s-2.5 7.8-2.6 9.5c-.1 1.6.1 3.6.1 3.6s.1 1-.4 1.8-6.5 6.6-5.8 7.7 4.8 5.7 4.8 5.7 2.9 13.7 6.7 15.3c3.8 1.6 9.3.6 9.3.6l2 5.4 24-7.9-.4-7.9s2.4-14-.4-24.1c-2.7-10.1-26.7-21.1-37.3-9.7z" class="st5"/><path d="M373 299.4c-.3 1.2-.9 2-1.3 1.9-.5-.1-.6-1.1-.3-2.3s.9-2 1.3-1.9c.5.1.6 1.1.3 2.3z" class="st4"/><path d="M371.3 294.1s3.4-1 4.7 2.7m-7 16.7s2.7 2.7 7.4 1" class="st5"/><path d="M387 264.1s-2.1-6-9-7.4c-6.8-1.3-11.7 8.2-10 11.9 1.7 3.7 2.5 4.5-.8 4.7s-9.6 8.7-4 14c5.6 5.2 12.2-2.2 12.6.4.3 2.7-.6 5.1 2.6 5.2s8.5-.2 7.7 1.9-1 6.9 2.1 7.6 5-3 7.1-2.5c2.2.5 5 7.4 3.2 11.2-1.9 3.8-3.2 3.8-3.4 4.7-.2.9 5.7 7.2 11.9 6.1 6.1-1.1 14.1-3.1 15-9.7s-1-8 1.5-10.4c2.5-2.3 5-3 4.2-6.8-.7-3.8-3-5-2.3-8 .7-3.1-2.4-17.2-15.5-23.3-13.3-6.1-22.9.4-22.9.4z" class="st17"/><path d="m412.8 317.6-30.2 17.5 2.2 17.3 32.2-25.7zm-79.1 81.6s-6.1-2.3-9.9-3.4c-6.6-1.9-12.8-4.7-15.1-4.1-2.3.7-13.6 8.4-13.6 8.4s-4 9.6-3.6 10.9c.3 1.3 2.8-.8 2.8-.8s-1.4 1.8-.1 3.1c1.3 1.3 2.6-1.3 2.6-1.3s-.3 3.3 1.7 3 2.2-1.8 2.2-1.8.1 1.8 1.8 1.8 5.3-6.9 5.3-6.9l6.3.3s5 2.6 7.9 3c3 .3 6.6-1.7 6.6-1.7l4 1 3.3-9.6-2.2-1.9z" class="st5"/><path d="M294.1 410.3s3.4-8.1 3.9-8.7c.5-.5 7.3-4.3 7.3-4.3m-8.7 14.8s4.1-8.3 4.5-8.7c.4-.4 5.5-3 5.5-3m-6.1 12.9s3.9-7.6 4.6-8 2.4-1.4 2.4-1.4" class="st11"/><path d="M421.3 339.4s-20.8 13.6-20.5 18.8c.3 5.3 2 5.3 2 5.3l-10.6 39.7s-3.3-2.6-3.6.7l-.3 3.3-55.2-9.3-5.6 13.9s22.8 8.9 38.7 14.5c15.9 5.6 32.4 11.9 34 8.9 1.7-3 34.4-51.9 36.4-55.5s2-10.2 2-10.2" class="st18"/><path d="M402.7 363.5s6.3-12.9 21.5-13.9" class="st11"/></g></g></svg>