<svg xmlns="http://www.w3.org/2000/svg" xmlns:xlink="http://www.w3.org/1999/xlink" xml:space="preserve" id="Layer_1" x="0" y="0" style="enable-background:new 0 0 379 379" version="1.1" viewBox="0 0 379 379"><style>.st0{fill:#fff}.st7{fill:none;stroke:#1a2e35;stroke-linecap:round;stroke-linejoin:round;stroke-miterlimit:10}.st8{fill:#1a2e35}.st11,.st9{stroke:#1a2e35;stroke-linecap:round;stroke-linejoin:round;stroke-miterlimit:10}.st9{fill:#fff}.st11{fill:#62cc9a}.st12{fill:#bfbfbf}</style><circle cx="189.5" cy="189.5" r="189.9" class="st0"/><defs><circle id="SVGID_1_" cx="189.5" cy="189.5" r="174.3"/></defs><clipPath id="SVGID_2_"><use xlink:href="#SVGID_1_" style="overflow:visible"/></clipPath><g style="clip-path:url(#SVGID_2_)"><path d="M487.1 10.5c-91-100.6-261.4-85.1-340.6-64C92.1-38.9 60.7 9.1 22.6 15-92.2 32.7-167.7 91.2-149.8 191-131.9 290.9-37 322.2 9.6 466.9c46.6 144.6 161.5 168.4 283.6 119.4 122-48.9 144-87 173-223.2 28.9-136.3 125.1-237.4 20.9-352.6z" style="fill:#5ae4a7"/><path d="M487.1 10.5c-91-100.6-261.4-85.1-340.6-64C92.1-38.9 60.7 9.1 22.6 15-92.2 32.7-167.7 91.2-149.8 191-131.9 290.9-37 322.2 9.6 466.9c46.6 144.6 161.5 168.4 283.6 119.4 122-48.9 144-87 173-223.2 28.9-136.3 125.1-237.4 20.9-352.6z" style="opacity:.7;fill:#fff;enable-background:new"/></g><defs><circle id="SVGID_3_" cx="189.5" cy="189.5" r="174.3"/></defs><clipPath id="SVGID_4_"><use xlink:href="#SVGID_3_" style="overflow:visible"/></clipPath><g style="clip-path:url(#SVGID_4_)"><path d="M297.7 391.4c8.2-10.2 13.1-39.3 13.1-39.3 10.8 7.7 18.1 18.5 18.1 18.5s11.2-1.3 26.8-6.7c14.9-5.1 25.3-12.6 25.3-12.6-17.5-25.7-47-69.4-65.2-83.2-7-5.3-28.8-10.5-28.8-10.5-4.9-4.5-15.7 0-15.7 0-58.2 14.8-111.4-4.4-111.4-4.4s-7.5-3.5-13.7 0c0 0-9.8-1.2-18.1 0-13.3 1.8-27.9 17-33.9 24-1.8 2.1-51.1 59.2-51.1 59.2s-1.7 23.3 1.9 26.4c28.9 24.8 71.5-31.5 71.5-31.5.3.1.9 49 23.7 74.6 0 0 16.2 7.4 79 1.6 62.4-5.8 78.5-16.1 78.5-16.1z" style="fill:#62cc9a"/><path d="M79.6 318.9c-9.7.9-14.7-1.5-16.6-5.6 13.9-16.1 30.2-35 31.2-36.1.5-.6 1-1.2 1.6-1.8 7.2 16.1 13.2 40.9-16.2 43.5zm42.8 51c-5.5-20.1-5.8-38.6-6-38.6 0 0 7-9.2 8.9-18.8.1 0 9.2 36.2-2.9 57.4zm201.1-6.1c-3.1-3.6-7.5-8-12.8-11.8 0 0 .7-23 7.1-30 5.2-5.5 10.7 23.6 5.7 41.8z" style="opacity:.2;enable-background:new"/><path d="M297.7 391.4c8.2-10.2 13.1-39.3 13.1-39.3 10.8 7.7 18.1 18.5 18.1 18.5" class="st7"/><path d="M381 351.3c-17.5-25.7-47-69.4-65.2-83.2-7-5.3-28.8-10.5-28.8-10.5-4.9-4.5-15.7 0-15.7 0-58.2 14.8-111.4-4.4-111.4-4.4s-7.5-3.5-13.7 0c0 0-9.8-1.2-18.1 0-13.3 1.8-27.9 17-33.9 24-1.8 2.1-51.1 59.2-51.1 59.2s-1.7 23.3 1.9 26.4c28.9 24.8 71.5-31.5 71.5-31.5.3.1.9 49 23.7 74.6" class="st7"/><path d="M273.5 243.5c-.5.2-.8.3-.8.3.3-.1.5-.2.8-.3zm17.3-43.4c6.1.9 7.6-3.6 7.6-3.6s-7.6 3.6-14.3-10.2c-3.8-7.8-1.9-22.3.4-33.2 4.7-7.8 11.5-18.5 12.4-31.2 1.6-21.8-8.7-32.9-20.5-29.6 0 0-.9-18.4-17.5-25.1-16.6-6.6-19.3-1.2-35.3-5.2s-31.8-.5-37.5 9.9-7.7 29.2-17.5 36.5-27 24.9-21.5 44.5c5.4 19.7 2.4 26.4-4.8 35.7s-2.8 27.6 10.9 33.3c0 0-5.8-3.1-1.7-8.3 0 0 3.2 12.3 13.9 10.1s24.3-3 31.2 4.6 32.3 9.7 38 3.8c5.7-5.8 10.1-.4 20.5 4.8s21.8.6 21.8.6-1 4.5-3.4 5.8c2.1-.9 7.9-3.7 9.6-7.8 1.6-4.1 2.7-8.2.6-18 7.2-2.8 3.9-7.6 3.9-7.6 6.7 3.9 9.9-7.3 9.9-7.3-6.3.1-6.7-2.5-6.7-2.5z" class="st8"/><path d="M277.2 259.6s-45.3 20.2-59.9 21c-14.6.8-64.1-25.5-64.1-25.5l37.8-10.3c5.1-9.8 5.3-21.3 4-34.8-.4-4.2-.9-8.1-1.4-11.7-1.3-8.6-2.7-14.5-2.7-14.5l53.4 2.2c-1.1 3.4-2 6.9-2.7 10.3-1.6 7.5-2.3 15-2.5 22-.6 18.5 2.2 29 2.2 29l35.9 12.3z" class="st9"/><path d="M166.9 262s28.6 5 35.7 4.2c7.1-.8 12.7 6.2 12.7 6.2m52-8.6s-29.1 3.1-36.2 3.3c-7.1.2-9.1 5.2-9.1 5.2" class="st9"/><path d="M241.5 196.3c-1.6 7.5-2.3 15-2.5 22-4.1 3.5-9.2 6.9-14.9 8.8-9 3-20.9-8-29-17.2-.4-4.2-.9-8.1-1.4-11.7l47.8-1.9z" class="st8"/><path d="M178.5 138.8s-4.4-6.8-8.3-5.4c-3.9 1.4-3.9 19.7-3.6 24.4.3 4.8 9.9 15.4 13.9 12.5m94.6-17.3s6.2-5.2 9.5-2.8c3.4 2.4-1.9 20-3.6 24.4-1.7 4.5-13.9 11.9-16.9 8" class="st9"/><path d="M215.4 223.1c-16.2-2.4-32.2-29.8-34.2-37.5-2.2-8.6-6.9-51 2.3-74.2 10.4-26.1 32.1-37.1 53.3-34s38.8 19.9 41.2 47.9c2.2 24.9-14.6 64.1-19.1 71.7-4.1 6.9-26.5 28.6-43.5 26.1z" class="st9"/><path d="M252 155.2c-.4 3-2.1 5.2-3.8 5s-2.6-2.9-2.2-5.9c.4-3 2.1-5.2 3.8-5s2.7 2.9 2.2 5.9zm-52.8-7.8c-.4 3 .5 5.6 2.2 5.9 1.6.2 3.3-2 3.8-5 .4-3-.5-5.6-2.2-5.9-1.6-.2-3.3 2-3.8 5z" class="st8"/><path d="M235.4 187.9s-8.4 16.4-19.1 13.7c-10.5-2.6-10.6-17.6-10.6-18.1l1.5.6c2.3.9 7.1 2.5 13.1 3.4 5 .7 10.2.7 13 .5 1.3 0 2.1-.1 2.1-.1z" style="fill:#757575"/><path d="M221.4 153.7c.4 10.3-8.4 12.1-6.7 15.7 1.7 3.6 5.7 4.7 5.7 4.7" class="st9"/><path d="M205.7 183.5s-.1 15.4 10.6 18.1c10.7 2.7 19.1-13.7 19.1-13.7m-45.7-54.1s9.6-12.2 24.6-8.3m49.4 19.2s-5.7-14.4-21.1-15" class="st7"/><path d="m308.8 135-3 3.3-2.3 2.5-26.7 15.6 1.1-7.5 21.9-12.8 4.7-.6z" class="st11"/><path d="M302.4 141.5c-4-.7-2.6-5.4-2.6-5.4l9.1-1.2-6.5 6.6z" class="st9"/><path d="m308.8 135-3 3.3c-2-.5-1.4-2.5-1.3-2.7l4.3-.6zm-56.1-35.2s-10.2 13.3-32.2 17.2c-27.6 4.8-42.9 28.7-42.5 38.7 0 0-8.5-18.7-4.7-44 5.5-36.7 39.7-47.1 64.6-44.6 24.9 2.6 36.9 27.5 36.9 27.5s18.7 14.5 16 32.9c-2.6 17.5-6.9 18-9.1 22-3.1 5.5 1 7.8-9.9 16.8 0 0 4.3-24.5-1-42.8-5.6-18.3-18.1-23.7-18.1-23.7z" class="st8"/><path d="M259.5 93.6s-9.7 37.2-65.1 43c0 0 37.3-6.7 54.5-40.8l10.6-2.2z" class="st8"/><path d="M217.5 193.6s7.6-2.7 10.5 0c0 0-5 8-11.4 6.1s-7.8-9.6-7.8-9.6 3.5-1.7 8.7 3.5z" class="st12"/><path d="m234.4 188-2.2 2.5c-13.4 2.1-25-4-25-4l-.8-2.7c2.3.9 7.9 2.8 13.8 3.7 5.1.7 11.4.7 14.2.5z" class="st0"/><path d="M203.3 182.6s17.4 8.1 34.2 5" class="st7"/><path d="M258.1 84.4s-11.8 15.5-40.6 17.8c-28.7 2.4-37.1 14.3-37.1 14.3m12.9-30.9c-2.7.5-6.3 1.5-7.6 4.2m75.9-17.4c-17.3 13-39.7 14.5-62.5 12.6m-47.3 105.9c-3.3 3.8-5.2 7.8-5 12.9m25.7-85.2c-8.1 4.6-14.5 13-15 22.4-.7 16 10.7 30.5-1.2 44.5m12.9-14.7s8.9 9.4 3.1 19c-5.8 9.6-8.8 19.3 3.1 26.3m58.6-94.6c-1.9 1.2-3.9 2.3-5.9 3.2m26.7-26.9c-3.2 7.9-9.1 14.9-15.7 20.1m22.5-18.8s12 6.5 16.6 17.4c4.6 10.8-1.9 26.1 1.1 31.4m1 56.9c1.7 1 3.5 1.8 5.4 2.2m-14.9-17.2c.7 3.9 2.4 7.7 4.9 10.8m-9.7-2.2s-1.1 12.2 6.7 20.3c7.8 8.1 5.5 13.1 5.5 13.1m-25.1-19.4s4.7 12.4-2.7 16.5m20.4-133.2s17.6 3.5 20.1 11.2c2.6 7.7 0 16.5 0 16.5" style="fill:none;stroke:#757575;stroke-linecap:round;stroke-linejoin:round;stroke-miterlimit:10"/><path d="M45 362.8c-14.9-8.3-12-38-2.1-75.1 4.8-18.2 21.5-64.2 21.2-65.9-.7-3.3-3.7-8.9-3.7-8.9s4.8-4.9 6.8-5.8c8.7-3.7 25.8-8.4 33.7-5.1 2.4 1 6 6.7 5.5 9.1-.5 2.3-7.5 10-6.9 17.4.7 7.4-5.7 31.8-5.6 41.5 0 2 .1 4.5.2 7.2.1 1.7 0 32.1-11.7 47.6" class="st11"/><path d="M93.4 132.2c.3 3 6.7 24 8.7 45.5 0 0 7.3-2.6 11.3-6.1s12.4-.7 12 1.6-8 1.9-14.5 10.7c-6.5 8.7-7.8 18.4-16.5 23.1-8.6 4.7-22.1 6.3-27.3.1s-11-39.2-9-42.6c2-3.4 6.4-6.5 6.4-6.5s2.2-6.4 5.5-6.9 11.3-.7 11.3-.7 2.8-2.2 6.4-1.8c0 0-2.6-24.7-4.9-33-2.2-8.3 8-8.2 10.6 16.6z" class="st9"/><path d="M87.8 148.7c6.8 3.1 9.8 16.1 9.8 17s-3.6 10.7-4.9 13.5c-1.7 3.7-5.4 0-5.4 0s-1.1 4.9-3.7 2.7c-3.3-2.7-3.3-11.5-3.3-11.5s-.4 7.3-2.3 10.9c-1.9 3.6-5.8 1.2-5.2-9.4 0 0-7.9-1.9-8.1-3.8" class="st7"/><path d="M80.3 170.4c-1.9-4.9-9.3-9.5-9.3-9.5m16.3 18.3s3.9-11.2 2.8-13.5c-1-2.4-7.6-8.7-7.6-8.7m19.6 20.7s-7.2 1.6-10.5 10.8M64 221.8s11.7 9.7 24.3 1.5m-14.4 27.1c-2.3 1.3-4.7 2.4-7.2 3m35.4-34.7C96.4 229 88.9 239 79.6 246.4m66.6 6.8s22.9 21.5 36.3 27.4m-59.1-4.2c1 2.9 1.8 5.8 2 8.9m-9.9-27.1c2.1 3.9 3.9 7.9 5.6 11.9m87.7 17.6s37.4.5 61.5-15.9m16.7-14.2s-5.5 3.7-8.8 7.6m27.6 19.8c-3.9 3.9-8.2 7.5-13 10.2m21.2-20.1c-1.2 1.8-2.6 3.6-4 5.3m-193.5 50.9s9.1-11.8 8.9-26m185.4 46.8s-2-23.8 14.7-41.2" class="st7"/><path d="M328.8 324c.8.8-14.3 13.9-17.8 19.8m-146.7 39s54.8 21.8 83.2 21.3" class="st7"/><path d="M225.7 342.1c0 1.1-.9 1.9-1.9 1.9h-6.5c-1.1 0-1.9-.9-1.9-1.9v-9.9c0-1.1.9-1.9 1.9-1.9h6.5c1.1 0 1.9.9 1.9 1.9v9.9z" class="st12"/><path d="M223.8 345h-6.5c-1.6 0-2.9-1.3-2.9-2.9v-9.9c0-1.6 1.3-2.9 2.9-2.9h6.5c1.6 0 2.9 1.3 2.9 2.9v9.9c0 1.6-1.3 2.9-2.9 2.9zm-6.5-13.7c-.5 0-.9.4-.9.9v9.9c0 .5.4.9.9.9h6.5c.5 0 .9-.4.9-.9v-9.9c0-.5-.4-.9-.9-.9h-6.5z" class="st8"/><path d="M241.2 247.2s29.1 6-20.6 81.5c0 0-57.9-73.4-29.6-84" class="st7"/><path d="M221.6 328c0 1.1-.5 2-1.1 2s-1.1-.9-1.1-2 .5-2 1.1-2 1.1.9 1.1 2z" class="st8"/></g></svg>