<svg xmlns="http://www.w3.org/2000/svg" width="32" height="32" viewBox="0 0 256 256"><path fill="#a2a5b9" d="M236.3 87.7L210.8 196a8.1 8.1 0 0 1-10 5.9a273 273 0 0 0-145.7 0a8.1 8.1 0 0 1-10-5.9L19.7 87.7a8 8 0 0 1 11-9.2L81.3 101a8.1 8.1 0 0 0 10.3-3.4l29.4-53a8 8 0 0 1 14 0l29.4 53a8.1 8.1 0 0 0 10.3 3.4l50.6-22.5a8 8 0 0 1 11 9.2Z" opacity=".2"/><path fill="#a2a5b9" d="M238.7 73.5a15.9 15.9 0 0 0-16.7-2.3l-50.6 22.5l-29.4-53a16.1 16.1 0 0 0-28 0l-29.4 53L34 71.2a16 16 0 0 0-22.1 18.3l25.4 108.3a15.9 15.9 0 0 0 7.4 10.1a16.2 16.2 0 0 0 8.3 2.3a15.2 15.2 0 0 0 4.2-.6a265.5 265.5 0 0 1 141.5 0a16.5 16.5 0 0 0 12.5-1.7a15.6 15.6 0 0 0 7.4-10.1l25.5-108.3a16 16 0 0 0-5.4-16ZM203 194.2a281.2 281.2 0 0 0-150.1 0L27.5 85.9l50.6 22.4a15.8 15.8 0 0 0 20.4-6.8l29.5-53l29.5 53a15.8 15.8 0 0 0 20.4 6.8l50.6-22.4Zm-35-31.7a8.1 8.1 0 0 1-8 7.2h-.8a309.8 309.8 0 0 0-62.4 0a8 8 0 0 1-8.8-7.1a8.1 8.1 0 0 1 7.2-8.8a312.7 312.7 0 0 1 65.6 0a8.1 8.1 0 0 1 7.2 8.7Z"/></svg>