<svg id="Layer_1" data-name="Layer 1" xmlns="http://www.w3.org/2000/svg" xmlns:xlink="http://www.w3.org/1999/xlink" viewBox="0 0 750 500"><defs><style>.cls-1,.cls-10,.cls-11,.cls-12,.cls-13,.cls-14,.cls-16,.cls-17,.cls-18,.cls-19,.cls-20,.cls-21,.cls-22,.cls-23,.cls-24,.cls-25,.cls-26,.cls-27,.cls-28,.cls-29,.cls-30,.cls-31,.cls-32,.cls-4,.cls-5,.cls-8,.cls-9{fill:none;}.cls-2{fill:#f3f2f4;}.cls-3{clip-path:url(#clip-path);}.cls-4,.cls-5{stroke:#fff;}.cls-10,.cls-11,.cls-12,.cls-13,.cls-17,.cls-18,.cls-23,.cls-24,.cls-26,.cls-27,.cls-29,.cls-30,.cls-31,.cls-32,.cls-4,.cls-9{stroke-linecap:round;stroke-linejoin:round;}.cls-12,.cls-13,.cls-4{stroke-width:1.15px;}.cls-14,.cls-16,.cls-19,.cls-20,.cls-21,.cls-22,.cls-25,.cls-28,.cls-5,.cls-8{stroke-miterlimit:10;}.cls-16,.cls-17,.cls-21,.cls-5,.cls-9{stroke-width:2px;}.cls-6{fill:#fff;}.cls-7{fill:#ffaf00;}.cls-8{stroke:#000;stroke-width:2.52px;}.cls-10,.cls-12,.cls-18,.cls-21,.cls-27,.cls-28,.cls-30,.cls-31,.cls-32,.cls-9{stroke:#010101;}.cls-10,.cls-11{stroke-width:1.65px;}.cls-11,.cls-13,.cls-14,.cls-16,.cls-17,.cls-19,.cls-20,.cls-22,.cls-23,.cls-24,.cls-25,.cls-26,.cls-29{stroke:#ffaf00;}.cls-14{stroke-width:1.77px;}.cls-15{fill:#010101;}.cls-18{stroke-width:3px;}.cls-19{stroke-width:2.37px;}.cls-20{stroke-width:1.66px;}.cls-22{stroke-width:1.71px;}.cls-24,.cls-25{stroke-width:6px;}.cls-26,.cls-27{stroke-width:15px;}.cls-28{stroke-width:2.56px;}.cls-29{stroke-width:10px;}.cls-30{stroke-width:8px;}.cls-31{stroke-width:4px;}.cls-32{stroke-width:2.29px;}</style><clipPath id="clip-path"><rect class="cls-1" width="750" height="500"/></clipPath></defs><rect class="cls-2" width="750" height="500"/><g class="cls-3"><line class="cls-4" x1="608.78" y1="133.35" x2="612.92" y2="137.49"/><line class="cls-4" x1="594.59" y1="119.16" x2="602.19" y2="126.76"/><line class="cls-4" x1="607.47" y1="120.08" x2="636.09" y2="148.7"/><line class="cls-4" x1="592.87" y1="105.49" x2="598.68" y2="111.29"/><line class="cls-4" x1="628.04" y1="128.69" x2="653.22" y2="153.87"/><line class="cls-4" x1="590.04" y1="90.69" x2="616.89" y2="117.54"/><line class="cls-4" x1="611.09" y1="99.78" x2="655.54" y2="144.23"/><line class="cls-4" x1="592.71" y1="81.4" x2="602.12" y2="90.81"/><line class="cls-4" x1="647.79" y1="124.52" x2="658.47" y2="135.2"/><line class="cls-4" x1="582.07" y1="58.79" x2="636.55" y2="113.28"/><line class="cls-4" x1="625.77" y1="90.54" x2="679" y2="143.77"/><line class="cls-4" x1="602.26" y1="67.03" x2="614.63" y2="79.39"/><line class="cls-4" x1="636.1" y1="88.91" x2="670.49" y2="123.3"/><line class="cls-4" x1="601" y1="53.8" x2="626.41" y2="79.21"/><line class="cls-4" x1="664.46" y1="105.31" x2="682.43" y2="123.27"/><line class="cls-4" x1="616.52" y1="57.37" x2="651.42" y2="92.26"/><line class="cls-4" x1="647.07" y1="75.95" x2="671.33" y2="100.21"/><line class="cls-4" x1="619.4" y1="48.29" x2="637.55" y2="66.43"/><line class="cls-4" x1="668.63" y1="85.55" x2="678.07" y2="94.99"/><line class="cls-4" x1="633.92" y1="50.85" x2="657.85" y2="74.77"/><line class="cls-4" x1="663.73" y1="68.69" x2="669.53" y2="74.49"/><line class="cls-4" x1="653.54" y1="58.5" x2="657.54" y2="62.5"/><line class="cls-4" x1="296.04" y1="499.36" x2="322.89" y2="526.21"/><line class="cls-4" x1="298.71" y1="490.07" x2="308.12" y2="499.48"/><line class="cls-4" x1="288.07" y1="467.46" x2="342.55" y2="521.95"/><line class="cls-4" x1="331.77" y1="499.2" x2="385" y2="552.44"/><line class="cls-4" x1="308.26" y1="475.69" x2="320.63" y2="488.06"/><line class="cls-4" x1="342.1" y1="497.57" x2="376.49" y2="531.96"/><line class="cls-4" x1="307" y1="462.47" x2="332.41" y2="487.88"/><line class="cls-4" x1="322.52" y1="466.03" x2="357.42" y2="500.93"/><line class="cls-4" x1="353.07" y1="484.62" x2="377.33" y2="508.88"/><line class="cls-4" x1="325.4" y1="456.95" x2="343.55" y2="475.1"/><line class="cls-4" x1="374.63" y1="494.22" x2="384.07" y2="503.66"/><line class="cls-4" x1="339.92" y1="459.51" x2="363.85" y2="483.44"/><line class="cls-4" x1="369.73" y1="477.36" x2="375.53" y2="483.15"/><line class="cls-4" x1="359.54" y1="467.17" x2="363.54" y2="471.17"/><line class="cls-4" x1="330.78" y1="7.35" x2="334.92" y2="11.49"/><line class="cls-4" x1="316.59" y1="-6.84" x2="324.19" y2="0.76"/><line class="cls-4" x1="329.47" y1="-5.92" x2="358.09" y2="22.7"/><line class="cls-4" x1="350.04" y1="2.69" x2="375.22" y2="27.87"/><line class="cls-4" x1="333.09" y1="-26.22" x2="377.54" y2="18.23"/><line class="cls-4" x1="369.79" y1="-1.48" x2="380.47" y2="9.2"/><line class="cls-4" x1="347.77" y1="-35.46" x2="401" y2="17.77"/><path class="cls-5" d="M243.13,113.72h0a14.79,14.79,0,0,1,0,20.94h0a14.79,14.79,0,0,1-20.94,0h0a14.81,14.81,0,0,1,0-20.94h0A14.81,14.81,0,0,1,243.13,113.72Z"/><path class="cls-5" d="M554.47,133.72h0a14.81,14.81,0,0,1,0,20.94h0a14.79,14.79,0,0,1-20.94,0h0a14.79,14.79,0,0,1,0-20.94h0A14.81,14.81,0,0,1,554.47,133.72Z"/><path class="cls-5" d="M195,456.5h0a10,10,0,0,1,0,14.14h0a10,10,0,0,1-14.14,0h0a10,10,0,0,1,0-14.14h0A10,10,0,0,1,195,456.5Z"/><path class="cls-6" d="M324.37,377.61a2,2,0,1,1,0,2.78A2,2,0,0,1,324.37,377.61Z"/><path class="cls-6" d="M302.63,355.87a2,2,0,1,1,0,2.78A2,2,0,0,1,302.63,355.87Z"/><circle class="cls-6" cx="282.28" cy="335.52" r="1.96"/><circle class="cls-6" cx="260.54" cy="313.78" r="1.96"/><circle class="cls-6" cx="238.8" cy="292.03" r="1.96"/><circle class="cls-6" cx="345.19" cy="359.57" r="1.96"/><circle class="cls-6" cx="323.45" cy="337.83" r="1.96"/><path class="cls-6" d="M300.32,314.7a2,2,0,1,1,0,2.78A2,2,0,0,1,300.32,314.7Z"/><path class="cls-6" d="M278.58,293a2,2,0,1,1,0,2.78A1.95,1.95,0,0,1,278.58,293Z"/><path class="cls-6" d="M256.84,271.22a2,2,0,1,1,0,2.77A1.95,1.95,0,0,1,256.84,271.22Z"/><circle class="cls-6" cx="364.62" cy="340.14" r="1.96"/><path class="cls-6" d="M341.49,317a2,2,0,1,1,0,2.78A2,2,0,0,1,341.49,317Z"/><path class="cls-6" d="M319.75,295.27a2,2,0,1,1,0,2.78A2,2,0,0,1,319.75,295.27Z"/><path class="cls-6" d="M298,273.53a2,2,0,1,1,0,2.78A2,2,0,0,1,298,273.53Z"/><path class="cls-6" d="M276.27,251.79a2,2,0,1,1,0,2.78A1.95,1.95,0,0,1,276.27,251.79Z"/><path class="cls-6" d="M382.66,319.33a2,2,0,1,1,0,2.77A1.95,1.95,0,0,1,382.66,319.33Z"/><path class="cls-6" d="M360.92,297.59a2,2,0,1,1,0,2.77A1.95,1.95,0,0,1,360.92,297.59Z"/><circle class="cls-6" cx="340.56" cy="277.23" r="1.96"/><circle class="cls-6" cx="318.82" cy="255.49" r="1.96"/><circle class="cls-6" cx="297.08" cy="233.75" r="1.96"/><circle class="cls-6" cx="403.47" cy="301.29" r="1.96"/><circle class="cls-6" cx="381.73" cy="279.55" r="1.96"/><path class="cls-6" d="M358.6,256.42a2,2,0,1,1,0,2.77A2,2,0,0,1,358.6,256.42Z"/><path class="cls-6" d="M336.86,234.68a2,2,0,1,1,0,2.77A2,2,0,0,1,336.86,234.68Z"/><path class="cls-6" d="M315.12,212.94a2,2,0,1,1,0,2.77A2,2,0,0,1,315.12,212.94Z"/><circle class="cls-6" cx="422.9" cy="281.86" r="1.96"/><path class="cls-6" d="M399.77,258.73a2,2,0,1,1,0,2.78A2,2,0,0,1,399.77,258.73Z"/><path class="cls-6" d="M378,237a2,2,0,1,1,0,2.77A2,2,0,0,1,378,237Z"/><circle class="cls-6" cx="357.68" cy="216.64" r="1.96"/><path class="cls-6" d="M334.55,193.51a2,2,0,1,1,0,2.77A2,2,0,0,1,334.55,193.51Z"/><path class="cls-6" d="M735.82,291.87a2,2,0,1,1,0,2.77A2,2,0,0,1,735.82,291.87Z"/><path class="cls-6" d="M714.08,270.13a2,2,0,1,1,0,2.77A2,2,0,0,1,714.08,270.13Z"/><path class="cls-6" d="M692.34,248.38a2,2,0,1,1,0,2.78A2,2,0,0,1,692.34,248.38Z"/><circle class="cls-6" cx="671.99" cy="228.03" r="1.96"/><circle class="cls-6" cx="734.9" cy="252.09" r="1.96"/><circle class="cls-6" cx="713.16" cy="230.34" r="1.96"/><circle class="cls-6" cx="691.41" cy="208.6" r="1.96"/><path class="cls-6" d="M731.2,209.53a2,2,0,1,1,0,2.77A1.95,1.95,0,0,1,731.2,209.53Z"/><path class="cls-6" d="M709.45,187.79a2,2,0,1,1,0,2.77A2,2,0,0,1,709.45,187.79Z"/><path class="cls-6" d="M728.88,168.36a2,2,0,1,1,0,2.78A2,2,0,0,1,728.88,168.36Z"/><circle class="cls-6" cx="749.7" cy="150.32" r="1.96"/><path class="cls-6" d="M1.29,162.56a2,2,0,1,1,0,2.78A2,2,0,0,1,1.29,162.56Z"/><circle class="cls-6" cx="22.11" cy="144.52" r="1.96"/><circle class="cls-6" cx="0.37" cy="122.78" r="1.96"/><path class="cls-6" d="M40.15,123.71a2,2,0,1,1,0,2.77A1.95,1.95,0,0,1,40.15,123.71Z"/><path class="cls-6" d="M18.41,102a2,2,0,1,1,0,2.77A1.95,1.95,0,0,1,18.41,102Z"/><path class="cls-6" d="M-3.33,80.22a2,2,0,0,1,2.77,0A2,2,0,0,1-.56,83a2,2,0,0,1-2.77,0A2,2,0,0,1-3.33,80.22Z"/><path class="cls-6" d="M59.58,104.28a2,2,0,1,1,0,2.77A1.95,1.95,0,0,1,59.58,104.28Z"/><path class="cls-6" d="M37.84,82.54a2,2,0,1,1,0,2.77A1.95,1.95,0,0,1,37.84,82.54Z"/><path class="cls-6" d="M16.09,60.8a2,2,0,1,1,0,2.77A2,2,0,0,1,16.09,60.8Z"/><circle class="cls-6" cx="80.39" cy="86.24" r="1.96"/><circle class="cls-6" cx="58.65" cy="64.5" r="1.96"/><path class="cls-6" d="M35.52,41.37a2,2,0,1,1,0,2.77A2,2,0,0,1,35.52,41.37Z"/><path class="cls-6" d="M13.78,19.63a2,2,0,1,1,0,2.77A2,2,0,0,1,13.78,19.63Z"/></g><g class="cls-3"><path class="cls-7" d="M575,46.87a26.27,26.27,0,0,1,0,37.39L537.22,46.87A26.88,26.88,0,0,1,575,46.87Z"/><path class="cls-8" d="M554.53,101.63a26.27,26.27,0,0,1,0-37.39l37.75,37.39A26.88,26.88,0,0,1,554.53,101.63Z"/><path class="cls-7" d="M204.3,220.87a26.26,26.26,0,0,1,0,37.39l-37.74-37.39A26.86,26.86,0,0,1,204.3,220.87Z"/><path class="cls-8" d="M183.87,275.63a26.26,26.26,0,0,1,0-37.39l37.75,37.39A26.86,26.86,0,0,1,183.87,275.63Z"/><path class="cls-7" d="M623.46,332a42.25,42.25,0,0,1,0,59.74L563.72,332A42.24,42.24,0,0,1,623.46,332Z"/><path class="cls-9" d="M621.71,343.84a42.25,42.25,0,0,1,0,59.74L562,343.83A42.25,42.25,0,0,1,621.71,343.84Z"/><line class="cls-10" x1="11.89" y1="441.92" x2="17.82" y2="447.85"/><line class="cls-10" x1="-8.47" y1="421.55" x2="2.43" y2="432.46"/><line class="cls-10" x1="10.01" y1="422.87" x2="51.07" y2="463.93"/><line class="cls-11" x1="39.52" y1="435.22" x2="75.65" y2="471.35"/><line class="cls-11" x1="-15" y1="380.71" x2="23.53" y2="419.23"/><line class="cls-10" x1="15.21" y1="393.75" x2="78.98" y2="457.52"/><line class="cls-10" x1="-11.16" y1="367.38" x2="2.34" y2="380.88"/><line class="cls-10" x1="67.86" y1="429.24" x2="83.19" y2="444.57"/><line class="cls-10" x1="-26.44" y1="334.94" x2="51.74" y2="413.12"/><line class="cls-11" x1="36.27" y1="380.49" x2="112.64" y2="456.86"/><line class="cls-11" x1="2.53" y1="346.75" x2="20.28" y2="364.5"/><line class="cls-10" x1="51.09" y1="378.15" x2="100.43" y2="427.48"/><line class="cls-10" x1="0.72" y1="327.78" x2="37.18" y2="364.24"/><line class="cls-11" x1="91.78" y1="401.68" x2="117.55" y2="427.45"/><line class="cls-11" x1="23" y1="332.9" x2="73.06" y2="382.96"/><line class="cls-10" x1="66.82" y1="359.56" x2="101.63" y2="394.37"/><line class="cls-10" x1="27.13" y1="319.87" x2="53.17" y2="345.9"/><line class="cls-11" x1="97.76" y1="373.34" x2="111.3" y2="386.88"/><line class="cls-11" x1="47.96" y1="323.54" x2="82.29" y2="357.86"/><line class="cls-10" x1="90.72" y1="349.14" x2="99.04" y2="357.46"/><line class="cls-10" x1="76.11" y1="334.53" x2="81.85" y2="340.27"/><line class="cls-12" x1="708.78" y1="104.69" x2="712.92" y2="108.82"/><line class="cls-12" x1="694.59" y1="90.49" x2="702.19" y2="98.1"/><line class="cls-12" x1="707.47" y1="91.41" x2="736.09" y2="120.03"/><line class="cls-12" x1="692.87" y1="76.82" x2="698.68" y2="82.62"/><line class="cls-13" x1="728.04" y1="100.02" x2="753.22" y2="125.2"/><line class="cls-13" x1="690.04" y1="62.02" x2="716.89" y2="88.87"/><line class="cls-12" x1="711.09" y1="71.11" x2="755.54" y2="115.56"/><line class="cls-12" x1="692.71" y1="52.73" x2="702.12" y2="62.14"/><line class="cls-12" x1="747.79" y1="95.85" x2="758.47" y2="106.54"/><line class="cls-12" x1="682.07" y1="30.13" x2="736.55" y2="84.62"/><line class="cls-13" x1="725.77" y1="61.87" x2="779" y2="115.1"/><line class="cls-13" x1="702.26" y1="38.36" x2="714.63" y2="50.73"/><line class="cls-12" x1="736.1" y1="60.24" x2="770.49" y2="94.63"/><line class="cls-12" x1="701" y1="25.13" x2="726.41" y2="50.54"/><line class="cls-13" x1="716.52" y1="28.7" x2="751.42" y2="63.59"/><line class="cls-12" x1="747.07" y1="47.28" x2="771.33" y2="71.55"/><line class="cls-12" x1="719.4" y1="19.62" x2="737.55" y2="37.77"/><line class="cls-13" x1="733.92" y1="22.18" x2="757.85" y2="46.1"/><rect class="cls-14" x="366.9" y="74.89" width="63.45" height="63.45" rx="1.72" transform="translate(192.14 -250.64) rotate(45)"/><circle class="cls-15" cx="399.49" cy="48.99" r="0.99"/><path class="cls-15" d="M411.2,60.7a1,1,0,1,1-1.41-1.41,1,1,0,0,1,1.41,1.41Z"/><path class="cls-15" d="M422.2,71.7a1,1,0,1,1,0-1.4A1,1,0,0,1,422.2,71.7Z"/><path class="cls-15" d="M433.21,82.71a1,1,0,0,1-1.41-1.41,1,1,0,0,1,1.41,1.41Z"/><circle class="cls-15" cx="443.51" cy="93.01" r="0.99"/><path class="cls-15" d="M390.36,59.52a1,1,0,1,1,0-1.4A1,1,0,0,1,390.36,59.52Z"/><circle class="cls-15" cx="400.66" cy="69.83" r="0.99"/><circle class="cls-15" cx="411.67" cy="80.83" r="0.99"/><circle class="cls-15" cx="422.67" cy="91.84" r="0.99"/><circle class="cls-15" cx="433.68" cy="102.84" r="0.99"/><path class="cls-15" d="M380.53,69.36A1,1,0,0,1,379.12,68a1,1,0,0,1,1.41,1.41Z"/><circle class="cls-15" cx="390.83" cy="79.66" r="0.99"/><circle class="cls-15" cx="401.83" cy="90.67" r="0.99"/><circle class="cls-15" cx="412.84" cy="101.67" r="0.99"/><path class="cls-15" d="M424.55,113.38a1,1,0,0,1-1.41-1.41,1,1,0,1,1,1.41,1.41Z"/><path class="cls-15" d="M370.69,79.19a1,1,0,1,1,0-1.4A1,1,0,0,1,370.69,79.19Z"/><path class="cls-15" d="M381.7,90.2a1,1,0,1,1,0-1.41A1,1,0,0,1,381.7,90.2Z"/><circle class="cls-15" cx="392" cy="100.5" r="0.99"/><path class="cls-15" d="M403.71,112.21a1,1,0,1,1,0-1.41A1,1,0,0,1,403.71,112.21Z"/><path class="cls-15" d="M414.71,123.21a1,1,0,1,1,0-1.4A1,1,0,0,1,414.71,123.21Z"/><path class="cls-15" d="M360.86,89a1,1,0,1,1-1.41-1.41A1,1,0,0,1,360.86,89Z"/><circle class="cls-15" cx="371.16" cy="99.33" r="0.99"/><circle class="cls-15" cx="382.17" cy="110.33" r="0.99"/><circle class="cls-15" cx="393.17" cy="121.34" r="0.99"/><path class="cls-15" d="M404.88,133.05a1,1,0,0,1-1.41-1.41,1,1,0,1,1,1.41,1.41Z"/><path class="cls-15" d="M351,98.86a1,1,0,1,1,0-1.4A1,1,0,0,1,351,98.86Z"/><circle class="cls-15" cx="361.33" cy="109.16" r="0.99"/><circle class="cls-15" cx="372.33" cy="120.17" r="0.99"/><circle class="cls-15" cx="383.34" cy="131.17" r="0.99"/><path class="cls-15" d="M395,142.88a1,1,0,1,1,0-1.4A1,1,0,0,1,395,142.88Z"/><rect class="cls-16" x="455" y="346.34" width="54.26" height="54.26" rx="1.47" transform="translate(964.25 746.95) rotate(180)"/><path class="cls-15" d="M513.93,409.68a.85.85,0,1,1,.85.85A.85.85,0,0,1,513.93,409.68Z"/><path class="cls-15" d="M500.62,409.68a.85.85,0,1,1,.85.85A.85.85,0,0,1,500.62,409.68Z"/><path class="cls-15" d="M487.31,409.68a.85.85,0,1,1,.85.85A.85.85,0,0,1,487.31,409.68Z"/><path class="cls-15" d="M474,409.68a.85.85,0,1,1,.85.85A.85.85,0,0,1,474,409.68Z"/><path class="cls-15" d="M460.69,409.68a.85.85,0,1,1,.85.85A.85.85,0,0,1,460.69,409.68Z"/><path class="cls-15" d="M513.93,397.79a.85.85,0,1,1,.85.85A.85.85,0,0,1,513.93,397.79Z"/><path class="cls-15" d="M500.62,397.79a.85.85,0,1,1,.85.85A.85.85,0,0,1,500.62,397.79Z"/><path class="cls-15" d="M487.31,397.79a.85.85,0,1,1,.85.85A.85.85,0,0,1,487.31,397.79Z"/><path class="cls-15" d="M474,397.79a.85.85,0,1,1,.85.85A.85.85,0,0,1,474,397.79Z"/><path class="cls-15" d="M460.69,397.79a.85.85,0,1,1,.85.85A.85.85,0,0,1,460.69,397.79Z"/><path class="cls-15" d="M513.93,385.89a.85.85,0,1,1,.85.85A.85.85,0,0,1,513.93,385.89Z"/><circle class="cls-15" cx="501.47" cy="385.89" r="0.85"/><circle class="cls-15" cx="488.16" cy="385.89" r="0.85"/><path class="cls-15" d="M474,385.89a.85.85,0,1,1,.85.85A.85.85,0,0,1,474,385.89Z"/><path class="cls-15" d="M460.69,385.89a.85.85,0,1,1,.85.85A.85.85,0,0,1,460.69,385.89Z"/><path class="cls-15" d="M513.93,374a.85.85,0,1,1,.85.85A.85.85,0,0,1,513.93,374Z"/><circle class="cls-15" cx="501.47" cy="374" r="0.85"/><circle class="cls-15" cx="488.16" cy="374" r="0.85"/><path class="cls-15" d="M474,374a.85.85,0,1,1,.85.85A.85.85,0,0,1,474,374Z"/><path class="cls-15" d="M460.69,374a.85.85,0,1,1,.85.85A.85.85,0,0,1,460.69,374Z"/><path class="cls-15" d="M513.93,362.11a.85.85,0,1,1,.85.85A.85.85,0,0,1,513.93,362.11Z"/><circle class="cls-15" cx="501.47" cy="362.11" r="0.85"/><circle class="cls-15" cx="488.16" cy="362.11" r="0.85"/><path class="cls-15" d="M474,362.11a.85.85,0,1,1,.85.85A.85.85,0,0,1,474,362.11Z"/><path class="cls-15" d="M460.69,362.11a.85.85,0,1,1,.85.85A.85.85,0,0,1,460.69,362.11Z"/><path class="cls-15" d="M513.93,350.21a.85.85,0,1,1,.85.85A.85.85,0,0,1,513.93,350.21Z"/><path class="cls-15" d="M500.62,350.21a.85.85,0,1,1,.85.85A.85.85,0,0,1,500.62,350.21Z"/><path class="cls-15" d="M487.31,350.21a.85.85,0,1,1,.85.85A.85.85,0,0,1,487.31,350.21Z"/><path class="cls-15" d="M474,350.21a.85.85,0,1,1,.85.85A.85.85,0,0,1,474,350.21Z"/><path class="cls-15" d="M460.69,350.21a.85.85,0,1,1,.85.85A.85.85,0,0,1,460.69,350.21Z"/><polyline class="cls-9" points="150.75 160.02 179.12 180.03 207.51 160.04"/><polyline class="cls-9" points="37.25 159.98 65.62 179.99 94 160 122.37 180.01"/><line class="cls-9" x1="-19.49" y1="159.96" x2="8.88" y2="179.97"/><polyline class="cls-17" points="122.38 162.01 150.76 142.02 179.13 162.03 207.51 142.04"/><polyline class="cls-17" points="-19.49 141.96 8.88 161.97 37.26 141.98 65.63 161.99 94.01 142"/><polyline class="cls-9" points="649.51 251 677.88 271 706.25 251 734.63 271 763 251 791.38 271 819.75 251 848.13 271 876.51 251"/><polyline class="cls-17" points="649.51 233 677.88 253 706.25 233 734.63 253 763 233 791.38 253 819.75 233 848.13 253 876.51 233"/><circle class="cls-7" cx="276.08" cy="451.42" r="28.5"/><circle class="cls-18" cx="265.83" cy="441.17" r="28.5"/><circle class="cls-18" cx="265.83" cy="441.17" r="13.75"/><circle class="cls-7" cx="55.33" cy="98.33" r="17.2"/><circle class="cls-9" cx="49.15" cy="92.15" r="17.2"/><rect class="cls-19" x="475.6" y="217.25" width="51.37" height="51.37" rx="1.39" transform="translate(-24.96 425.62) rotate(-45)"/><rect class="cls-19" x="486.6" y="228.25" width="29.37" height="29.37" rx="0.8" transform="translate(-24.96 425.62) rotate(-45)"/><rect class="cls-20" x="136.01" y="315.01" width="35.97" height="35.97" rx="0.98" transform="translate(-190.36 206.43) rotate(-45)"/><rect class="cls-15" x="143.72" y="322.72" width="20.57" height="20.57" rx="2.99" transform="translate(-190.36 206.43) rotate(-45)"/><rect class="cls-16" x="328.96" y="142.77" width="27.85" height="27.85" rx="0.76" transform="translate(-10.37 288.35) rotate(-45)"/><rect class="cls-21" x="334.92" y="148.74" width="15.92" height="15.92" rx="2.31" transform="translate(-10.37 288.35) rotate(-45)"/><rect class="cls-22" x="467.34" y="-14.89" width="36.92" height="36.92" rx="1" transform="translate(139.77 344.55) rotate(-45)"/><rect class="cls-15" x="475.24" y="-6.99" width="21.11" height="21.11" rx="0.57" transform="translate(139.77 344.55) rotate(-45)"/><line class="cls-9" x1="290.66" y1="341.65" x2="477.34" y2="528.33"/><line class="cls-9" x1="479.34" y1="131" x2="519.67" y2="171.33"/><line class="cls-9" x1="617.34" y1="88" x2="639.17" y2="109.83"/><line class="cls-17" x1="369.5" y1="-20.5" x2="409.34" y2="19.33"/><line class="cls-17" x1="166.03" y1="406.15" x2="187.86" y2="427.98"/><line class="cls-17" x1="276.1" y1="149.56" x2="330.86" y2="204.32"/><line class="cls-17" x1="343.33" y1="424.99" x2="530" y2="611.66"/><line class="cls-17" x1="670.33" y1="450.99" x2="857" y2="637.66"/><line class="cls-9" x1="687.66" y1="320.65" x2="874.34" y2="507.33"/><line class="cls-17" x1="718.16" y1="330.15" x2="904.84" y2="516.83"/><line class="cls-17" x1="56" y1="-129.66" x2="242.68" y2="57.02"/><line class="cls-9" y1="-153.66" x2="186.68" y2="33.02"/><polygon class="cls-15" points="408.03 226.83 390 244.86 371.97 226.83 357.83 240.97 375.86 259 357.83 277.03 371.97 291.17 390 273.14 408.03 291.17 422.17 277.03 404.14 259 422.17 240.97 408.03 226.83"/><polygon class="cls-17" points="405.7 213.16 387.67 231.19 369.63 213.16 355.49 227.3 373.52 245.33 355.49 263.37 369.63 277.51 387.67 259.48 405.7 277.51 419.84 263.37 401.81 245.33 419.84 227.3 405.7 213.16"/><polygon class="cls-15" points="142 44 134 52 126 44 119.73 50.27 127.73 58.27 119.73 66.27 126 72.54 134 64.54 142 72.54 148.27 66.27 140.27 58.27 148.27 50.27 142 44"/><polygon class="cls-23" points="140.96 37.94 132.97 45.94 124.97 37.94 118.7 44.22 126.69 52.21 117.2 59.21 123.47 65.48 132.97 58.48 140.96 66.48 147.23 60.21 139.24 52.21 147.23 44.22 140.96 37.94"/><polygon class="cls-15" points="596.36 253.86 588.37 261.85 580.37 253.86 574.1 260.13 582.1 268.12 574.1 276.12 580.37 282.39 588.37 274.39 596.36 282.39 602.63 276.12 594.64 268.12 602.63 260.13 596.36 253.86"/><polygon class="cls-23" points="595.33 247.8 587.33 255.79 579.34 247.8 573.07 254.07 581.06 262.06 571.57 269.06 577.84 275.33 587.33 268.33 595.33 276.33 601.6 270.06 593.6 262.06 601.6 254.07 595.33 247.8"/><polygon class="cls-7" points="208.54 365.79 249.26 329.62 245.3 387.75 208.54 365.79"/><polygon class="cls-9" points="200.83 352.5 244.17 319.5 235.83 377.17 200.83 352.5"/><path class="cls-9" d="M244.17,319.5c-.67.83-21.5,34.17-21.5,34.17l13.16,23.5Z"/><polygon class="cls-9" points="200.83 352.5 222.67 353.67 244.17 319.5 200.83 352.5"/><polygon class="cls-7" points="635.29 183.31 688.1 169.97 657.8 219.74 635.29 183.31"/><polygon class="cls-9" points="634.58 167.97 688.24 158.65 654.27 205.99 634.58 167.97"/><path class="cls-9" d="M688.24,158.65c-1,.43-34.83,20.41-34.83,20.41l.86,26.93Z"/><polygon class="cls-9" points="634.58 167.97 653.41 179.06 688.24 158.65 634.58 167.97"/><path class="cls-24" d="M272.64,283.55a17.75,17.75,0,0,1,25.1,25.1"/><path class="cls-9" d="M272.87,283.31A17.76,17.76,0,0,1,298,308.42"/><path class="cls-25" d="M509.76,79.12a17.75,17.75,0,1,1-25.1,25.1"/><path class="cls-9" d="M510,79.35a17.75,17.75,0,1,1-25.1,25.1"/><path class="cls-25" d="M130.76,520.32a17.75,17.75,0,0,1,25.1-25.1"/><path class="cls-9" d="M130.52,520.08A17.75,17.75,0,1,1,155.63,495"/><path class="cls-26" d="M436,187.32a17.75,17.75,0,0,1,31.37-16.61"/><path class="cls-27" d="M272.82-9.69a17.76,17.76,0,0,1,25.11,25.11"/><path class="cls-7" d="M593.93,477.75a9.61,9.61,0,0,1-6.8-16.4,13.13,13.13,0,1,0-18.57-18.57A9.61,9.61,0,1,1,555,429.19a32.35,32.35,0,0,1,45.75,45.75A9.58,9.58,0,0,1,593.93,477.75Z"/><path class="cls-28" d="M599.69,472a9.62,9.62,0,0,1-6.79-16.41A13.13,13.13,0,1,0,574.33,437a9.61,9.61,0,0,1-13.59-13.59,32.35,32.35,0,0,1,45.75,45.75A9.59,9.59,0,0,1,599.69,472Z"/><path class="cls-7" d="M288.86,125.4a1.92,1.92,0,0,1,1.68-2.14h0a1.92,1.92,0,0,1,2.14,1.68h0a1.92,1.92,0,0,1-1.67,2.14h-.24A1.92,1.92,0,0,1,288.86,125.4Zm-12.19,0a1.94,1.94,0,0,1-1.12-2.48h0a1.93,1.93,0,0,1,2.48-1.13h0a1.94,1.94,0,0,1,1.13,2.49h0a1.94,1.94,0,0,1-1.81,1.24h0A2.08,2.08,0,0,1,276.67,125.36Zm25.15-3.9a1.92,1.92,0,0,1,.49-2.68h0a1.92,1.92,0,0,1,2.67.49h0a1.93,1.93,0,0,1-.48,2.68h0a2,2,0,0,1-1.1.34h0A1.91,1.91,0,0,1,301.82,121.46Zm-37-4.29a1.93,1.93,0,0,1,.15-2.72h0a1.93,1.93,0,0,1,2.73.16h0a1.93,1.93,0,0,1-.17,2.72h0a1.88,1.88,0,0,1-1.27.49h0A1.9,1.9,0,0,1,264.79,117.17ZM311.47,112a1.93,1.93,0,0,1-.81-2.61h0a1.93,1.93,0,0,1,2.6-.81h0a1.93,1.93,0,0,1,.81,2.6h0a1.94,1.94,0,0,1-1.71,1h0A2,2,0,0,1,311.47,112Zm-53.42-7.56a1.93,1.93,0,0,1,1.41-2.33h0a1.92,1.92,0,0,1,2.33,1.41h0a1.93,1.93,0,0,1-1.4,2.33h0a1.93,1.93,0,0,1-.47,0h0A1.94,1.94,0,0,1,258.05,104.4Zm55.61-7.27v0h0V97h0a1.93,1.93,0,0,1,1.92-1.93h0A1.92,1.92,0,0,1,317.51,97h0v.06h0v.06h0a1.92,1.92,0,0,1-1.92,1.92h0A1.92,1.92,0,0,1,313.66,97.13Zm-54.22-4.84A1.93,1.93,0,0,1,258,90h0a1.94,1.94,0,0,1,2.33-1.42h0a1.93,1.93,0,0,1,1.42,2.33h0a1.94,1.94,0,0,1-1.87,1.47h0A1.82,1.82,0,0,1,259.44,92.29Zm51.17-7.48a1.92,1.92,0,0,1,.8-2.6h0A1.93,1.93,0,0,1,314,83h0a1.93,1.93,0,0,1-.8,2.61h0a1.94,1.94,0,0,1-.9.23h0A1.92,1.92,0,0,1,310.61,84.81Zm-45.73-4.92a1.92,1.92,0,0,1-.17-2.71h0a1.92,1.92,0,0,1,2.72-.18h0a1.94,1.94,0,0,1,.17,2.72h0a1.92,1.92,0,0,1-1.45.65h0A1.94,1.94,0,0,1,264.88,79.89Zm37.34-4.48a1.93,1.93,0,0,1-.5-2.68h0a1.94,1.94,0,0,1,2.68-.49h0a1.93,1.93,0,0,1,.5,2.68h0a1.93,1.93,0,0,1-1.59.83h0A1.92,1.92,0,0,1,302.22,75.41Zm-26.77-4a1.92,1.92,0,0,1,1.11-2.48h0a1.93,1.93,0,0,1,2.49,1.11h0a1.92,1.92,0,0,1-1.11,2.48h0a1.87,1.87,0,0,1-.69.13h0A1.94,1.94,0,0,1,275.45,71.42Zm15-.43a1.93,1.93,0,0,1-1.69-2.14h0a1.93,1.93,0,0,1,2.14-1.69h0a1.92,1.92,0,0,1,1.68,2.14h0a1.91,1.91,0,0,1-1.9,1.7h-.23Z"/><path class="cls-7" d="M288.59,120.26A1.58,1.58,0,0,1,290,118.5h0a1.58,1.58,0,0,1,1.75,1.38h0a1.56,1.56,0,0,1-1.37,1.75h-.19A1.56,1.56,0,0,1,288.59,120.26Zm-10,0a1.57,1.57,0,0,1-.91-2h0a1.56,1.56,0,0,1,2-.92h0a1.59,1.59,0,0,1,.92,2h0a1.6,1.6,0,0,1-1.48,1h0A1.58,1.58,0,0,1,278.61,120.23ZM299.19,117a1.57,1.57,0,0,1,.39-2.19h0a1.58,1.58,0,0,1,2.2.39h0a1.59,1.59,0,0,1-.4,2.2h0a1.57,1.57,0,0,1-.9.28h0A1.56,1.56,0,0,1,299.19,117Zm-30.3-3.52a1.57,1.57,0,0,1,.13-2.22h0a1.57,1.57,0,0,1,2.22.13h0a1.58,1.58,0,0,1-.13,2.23h0a1.6,1.6,0,0,1-1,.4h0A1.54,1.54,0,0,1,268.89,113.52Zm38.19-4.26a1.57,1.57,0,0,1-.66-2.13h0a1.57,1.57,0,0,1,2.13-.66h0a1.57,1.57,0,0,1,.66,2.12h0a1.59,1.59,0,0,1-1.4.85h0A1.58,1.58,0,0,1,307.08,109.26Zm-43.7-6.18a1.58,1.58,0,0,1,1.15-1.91h0a1.57,1.57,0,0,1,1.91,1.15h0a1.59,1.59,0,0,1-1.16,1.91h0a1.58,1.58,0,0,1-.38,0h0A1.57,1.57,0,0,1,263.38,103.08Zm45.49-6h0v0h0s0,0,0-.06h0a1.58,1.58,0,0,1,1.58-1.58h0A1.57,1.57,0,0,1,312,97h0v0h0v0h0a1.57,1.57,0,0,1-1.57,1.58h0A1.58,1.58,0,0,1,308.87,97.13Zm-44.36-4a1.57,1.57,0,0,1-1.15-1.9h0a1.59,1.59,0,0,1,1.91-1.16h0A1.58,1.58,0,0,1,266.42,92h0a1.58,1.58,0,0,1-1.53,1.2h0A1.24,1.24,0,0,1,264.51,93.17Zm41.87-6.12a1.57,1.57,0,0,1,.65-2.13h0a1.57,1.57,0,0,1,2.13.65h0a1.57,1.57,0,0,1-.65,2.13h0a1.51,1.51,0,0,1-.74.19h0A1.58,1.58,0,0,1,306.38,87.05ZM269,83a1.57,1.57,0,0,1-.13-2.22h0a1.57,1.57,0,0,1,2.22-.14h0a1.59,1.59,0,0,1,.14,2.23h0a1.59,1.59,0,0,1-1.19.53h0A1.56,1.56,0,0,1,269,83Zm30.55-3.66a1.56,1.56,0,0,1-.4-2.19h0a1.57,1.57,0,0,1,2.19-.41h0a1.57,1.57,0,0,1,.41,2.19h0a1.57,1.57,0,0,1-1.3.69h0A1.59,1.59,0,0,1,299.51,79.36ZM277.62,76.1a1.58,1.58,0,0,1,.9-2h0a1.58,1.58,0,0,1,2,.91h0a1.59,1.59,0,0,1-.91,2h0a1.62,1.62,0,0,1-.56.1h0A1.55,1.55,0,0,1,277.62,76.1Zm12.26-.36A1.58,1.58,0,0,1,288.49,74h0a1.57,1.57,0,0,1,1.75-1.38h0a1.57,1.57,0,0,1,1.38,1.75h0a1.57,1.57,0,0,1-1.56,1.39h-.18Z"/><path class="cls-7" d="M288.35,115.87a1.27,1.27,0,0,1,1.11-1.42h0a1.28,1.28,0,0,1,1.43,1.11h0a1.28,1.28,0,0,1-1.12,1.42h-.16A1.28,1.28,0,0,1,288.35,115.87Zm-8.08,0h0a1.27,1.27,0,0,1-.74-1.64h0a1.27,1.27,0,0,1,1.64-.75h0a1.29,1.29,0,0,1,.75,1.65h0a1.28,1.28,0,0,1-1.2.82h0A1.16,1.16,0,0,1,280.27,115.84Zm16.67-2.58a1.27,1.27,0,0,1,.32-1.78h0a1.29,1.29,0,0,1,1.78.32h0a1.29,1.29,0,0,1-.32,1.78h0a1.34,1.34,0,0,1-.74.23h0A1.25,1.25,0,0,1,296.94,113.26Zm-24.55-2.85a1.28,1.28,0,0,1,.1-1.8h0a1.28,1.28,0,0,1,1.81.11h0a1.27,1.27,0,0,1-.11,1.8h0a1.28,1.28,0,0,1-.84.32h0A1.25,1.25,0,0,1,272.39,110.41ZM303.33,107a1.28,1.28,0,0,1-.53-1.73h0a1.27,1.27,0,0,1,1.72-.53h0a1.27,1.27,0,0,1,.54,1.72h0a1.29,1.29,0,0,1-1.14.68h0A1.42,1.42,0,0,1,303.33,107Zm-35.4-5a1.27,1.27,0,0,1,.93-1.55h0a1.29,1.29,0,0,1,1.55.93h0a1.29,1.29,0,0,1-.94,1.55h0a1.08,1.08,0,0,1-.3,0h0A1.27,1.27,0,0,1,267.93,102Zm36.86-4.82v0h0v0h0a1.26,1.26,0,0,1,1.27-1.28h0a1.26,1.26,0,0,1,1.28,1.27h0v0h0v0h0a1.28,1.28,0,0,1-1.27,1.28h0A1.28,1.28,0,0,1,304.79,97.13Zm-35.94-3.21a1.27,1.27,0,0,1-.94-1.54h0a1.28,1.28,0,0,1,1.54-.94h0a1.29,1.29,0,0,1,.94,1.55h0a1.27,1.27,0,0,1-1.24,1h0A1,1,0,0,1,268.85,93.92Zm33.92-5a1.26,1.26,0,0,1,.52-1.72h0a1.28,1.28,0,0,1,1.73.53h0a1.26,1.26,0,0,1-.53,1.72h0a1.16,1.16,0,0,1-.6.15h0A1.25,1.25,0,0,1,302.77,89ZM272.45,85.7a1.27,1.27,0,0,1-.11-1.8h0a1.27,1.27,0,0,1,1.8-.11h0a1.27,1.27,0,0,1,.11,1.8h0a1.28,1.28,0,0,1-.95.43h0A1.24,1.24,0,0,1,272.45,85.7Zm24.75-3h0a1.28,1.28,0,0,1-.33-1.77h0a1.28,1.28,0,0,1,1.78-.33h0A1.27,1.27,0,0,1,299,82.4h0a1.26,1.26,0,0,1-1.05.56h0A1.34,1.34,0,0,1,297.2,82.73Zm-17.74-2.64a1.28,1.28,0,0,1,.74-1.65h0a1.28,1.28,0,0,1,1.65.74h0a1.29,1.29,0,0,1-.74,1.65h0a1.21,1.21,0,0,1-.46.08h0A1.28,1.28,0,0,1,279.46,80.09Zm9.94-.29a1.3,1.3,0,0,1-1.13-1.42h0a1.27,1.27,0,0,1,1.42-1.11h0a1.27,1.27,0,0,1,1.12,1.41h0a1.27,1.27,0,0,1-1.27,1.13h-.14Z"/><path class="cls-7" d="M66.44,276.29a1.8,1.8,0,0,1,1.57-2h0a1.8,1.8,0,0,1,2,1.58h0a1.81,1.81,0,0,1-1.57,2h0l-.23,0h0A1.8,1.8,0,0,1,66.44,276.29Zm-11.43,0a1.81,1.81,0,0,1-1-2.33h0a1.8,1.8,0,0,1,2.32-1.05h0a1.81,1.81,0,0,1,1.06,2.33h0a1.83,1.83,0,0,1-1.69,1.17h0A1.81,1.81,0,0,1,55,276.25Zm23.57-3.65a1.82,1.82,0,0,1,.46-2.52h0a1.81,1.81,0,0,1,2.51.46h0a1.82,1.82,0,0,1-.45,2.52h0a1.89,1.89,0,0,1-1,.32h0A1.79,1.79,0,0,1,78.58,272.6Zm-34.71-4A1.8,1.8,0,0,1,44,266h0a1.83,1.83,0,0,1,2.56.15h0a1.81,1.81,0,0,1-.15,2.55h0a1.79,1.79,0,0,1-1.2.46h0A1.78,1.78,0,0,1,43.87,268.57Zm43.75-4.88a1.81,1.81,0,0,1-.75-2.45h0a1.8,1.8,0,0,1,2.43-.75h0a1.79,1.79,0,0,1,.76,2.43h0a1.8,1.8,0,0,1-1.6,1h0A1.82,1.82,0,0,1,87.62,263.69ZM37.55,256.6a1.82,1.82,0,0,1,1.33-2.18h0a1.8,1.8,0,0,1,2.18,1.32h0a1.81,1.81,0,0,1-1.32,2.18h0a1.61,1.61,0,0,1-.44.06h0A1.83,1.83,0,0,1,37.55,256.6Zm52.13-6.81v0h0v-.05h0a1.8,1.8,0,0,1,1.8-1.81h0a1.79,1.79,0,0,1,1.81,1.79h0v.06h0v.06h0a1.79,1.79,0,0,1-1.8,1.8h0A1.8,1.8,0,0,1,89.68,249.79Zm-50.82-4.53a1.8,1.8,0,0,1-1.33-2.18h0a1.8,1.8,0,0,1,2.18-1.33h0A1.81,1.81,0,0,1,41,243.93h0a1.8,1.8,0,0,1-1.76,1.38h0A2,2,0,0,1,38.86,245.26Zm48-7a1.8,1.8,0,0,1,.75-2.44h0a1.8,1.8,0,0,1,2.44.75h0a1.8,1.8,0,0,1-.75,2.44h0a1.72,1.72,0,0,1-.84.21h0A1.8,1.8,0,0,1,86.82,238.24ZM44,233.63a1.81,1.81,0,0,1-.15-2.55h0a1.8,1.8,0,0,1,2.54-.16h0a1.81,1.81,0,0,1,.17,2.55h0a1.81,1.81,0,0,1-1.36.61h0A1.83,1.83,0,0,1,44,233.63Zm35-4.2a1.79,1.79,0,0,1-.47-2.51h0a1.8,1.8,0,0,1,2.51-.46h0a1.81,1.81,0,0,1,.47,2.51h0a1.81,1.81,0,0,1-1.49.78h0A1.76,1.76,0,0,1,79,229.43Zm-25.09-3.74a1.8,1.8,0,0,1,1-2.33h0a1.81,1.81,0,0,1,2.33,1h0a1.8,1.8,0,0,1-1,2.33h0a1.66,1.66,0,0,1-.65.12h0A1.8,1.8,0,0,1,53.87,225.69Zm14-.41a1.79,1.79,0,0,1-1.58-2h0a1.8,1.8,0,0,1,2-1.58h0a1.79,1.79,0,0,1,1.58,2h0a1.79,1.79,0,0,1-1.78,1.6h0Z"/><path class="cls-7" d="M66.18,271.47a1.46,1.46,0,0,1,1.29-1.64h0a1.48,1.48,0,0,1,1.64,1.28h0a1.48,1.48,0,0,1-1.29,1.65h-.18A1.48,1.48,0,0,1,66.18,271.47Zm-9.35,0a1.47,1.47,0,0,1-.86-1.9h0a1.46,1.46,0,0,1,1.9-.86h0a1.46,1.46,0,0,1,.86,1.9h0a1.47,1.47,0,0,1-1.38.95h0A1.58,1.58,0,0,1,56.83,271.44Zm19.28-3a1.48,1.48,0,0,1,.38-2.05h0a1.47,1.47,0,0,1,2.05.37h0a1.48,1.48,0,0,1-.37,2.06h0a1.54,1.54,0,0,1-.84.26h0A1.5,1.5,0,0,1,76.11,268.45Zm-28.4-3.29a1.48,1.48,0,0,1,.13-2.09h0a1.48,1.48,0,0,1,2.08.12h0a1.48,1.48,0,0,1-.12,2.09h0a1.49,1.49,0,0,1-1,.38h0A1.48,1.48,0,0,1,47.71,265.16Zm35.8-4a1.49,1.49,0,0,1-.62-2h0a1.48,1.48,0,0,1,2-.62h0a1.48,1.48,0,0,1,.62,2h0a1.48,1.48,0,0,1-1.31.8h0A1.56,1.56,0,0,1,83.51,261.16Zm-41-5.79a1.47,1.47,0,0,1,1.07-1.79h0a1.48,1.48,0,0,1,1.8,1.08h0a1.48,1.48,0,0,1-1.09,1.78h0a1.39,1.39,0,0,1-.35,0h0A1.46,1.46,0,0,1,42.55,255.37Zm42.64-5.58h0v0h0s0,0,0,0h0a1.49,1.49,0,0,1,1.48-1.49h0a1.48,1.48,0,0,1,1.48,1.48h0v0h0v0h0a1.48,1.48,0,0,1-1.48,1.48h0A1.48,1.48,0,0,1,85.19,249.79Zm-41.58-3.71a1.47,1.47,0,0,1-1.08-1.79h0a1.49,1.49,0,0,1,1.79-1.08h0A1.48,1.48,0,0,1,45.4,245h0A1.48,1.48,0,0,1,44,246.12h0A1.45,1.45,0,0,1,43.61,246.08Zm39.24-5.74a1.48,1.48,0,0,1,.62-2h0a1.47,1.47,0,0,1,2,.62h0a1.46,1.46,0,0,1-.61,2h0a1.45,1.45,0,0,1-.69.18h0A1.49,1.49,0,0,1,82.85,240.34Zm-35.07-3.77a1.47,1.47,0,0,1-.12-2.09h0a1.47,1.47,0,0,1,2.08-.13h0a1.48,1.48,0,0,1,.13,2.09h0a1.49,1.49,0,0,1-1.11.5h0A1.51,1.51,0,0,1,47.78,236.57Zm28.64-3.43a1.49,1.49,0,0,1-.38-2.06h0a1.47,1.47,0,0,1,2-.38h0a1.48,1.48,0,0,1,.39,2.05h0a1.47,1.47,0,0,1-1.22.64h0A1.52,1.52,0,0,1,76.42,233.14Zm-20.53-3.07a1.47,1.47,0,0,1,.85-1.9h0a1.48,1.48,0,0,1,1.91.85h0a1.49,1.49,0,0,1-.85,1.91h0a1.6,1.6,0,0,1-.53.09h0A1.48,1.48,0,0,1,55.89,230.07Zm11.5-.33a1.48,1.48,0,0,1-1.3-1.64h0a1.47,1.47,0,0,1,1.64-1.29h0A1.46,1.46,0,0,1,69,228.44h0a1.48,1.48,0,0,1-1.46,1.31h-.17Z"/><path class="cls-7" d="M66,267.35A1.21,1.21,0,0,1,67,266h0a1.2,1.2,0,0,1,1.33,1.05h0a1.2,1.2,0,0,1-1,1.33h-.14A1.21,1.21,0,0,1,66,267.35Zm-7.57,0h0a1.19,1.19,0,0,1-.69-1.54h0a1.2,1.2,0,0,1,1.54-.7h0a1.21,1.21,0,0,1,.7,1.54h0a1.21,1.21,0,0,1-1.12.78h0A1.26,1.26,0,0,1,58.38,267.33ZM74,264.91a1.2,1.2,0,0,1,.3-1.67h0a1.2,1.2,0,0,1,1.66.3h0a1.2,1.2,0,0,1-.3,1.67h0a1.21,1.21,0,0,1-.68.21h0A1.17,1.17,0,0,1,74,264.91Zm-23-2.67a1.2,1.2,0,0,1,.09-1.69h0a1.2,1.2,0,0,1,1.69.1h0a1.2,1.2,0,0,1-.09,1.69h0a1.23,1.23,0,0,1-.8.3h0A1.16,1.16,0,0,1,51,262.24ZM80,259a1.2,1.2,0,0,1-.5-1.62h0a1.19,1.19,0,0,1,1.61-.5h0a1.19,1.19,0,0,1,.51,1.61h0a1.21,1.21,0,0,1-1.07.65h0A1.25,1.25,0,0,1,80,259Zm-33.19-4.69a1.19,1.19,0,0,1,.88-1.45h0a1.21,1.21,0,0,1,1.45.87h0a1.21,1.21,0,0,1-.88,1.45h0l-.29,0h0A1.2,1.2,0,0,1,46.81,254.31Zm34.56-4.52v0h0v0h0a1.19,1.19,0,0,1,1.19-1.2h0a1.19,1.19,0,0,1,1.2,1.19h0v0h0v0h0a1.19,1.19,0,0,1-1.2,1.19h0A1.19,1.19,0,0,1,81.37,249.79Zm-33.7-3a1.2,1.2,0,0,1-.88-1.44h0a1.2,1.2,0,0,1,1.45-.88h0a1.21,1.21,0,0,1,.88,1.45h0a1.2,1.2,0,0,1-1.16.91h0A1,1,0,0,1,47.67,246.78Zm31.8-4.65a1.19,1.19,0,0,1,.49-1.61h0a1.2,1.2,0,0,1,1.62.49h0a1.2,1.2,0,0,1-.49,1.62h0a1.15,1.15,0,0,1-.57.14h0A1.18,1.18,0,0,1,79.47,242.13Zm-28.41-3a1.19,1.19,0,0,1-.11-1.69h0a1.19,1.19,0,0,1,1.69-.11h0a1.2,1.2,0,0,1,.1,1.69h0a1.19,1.19,0,0,1-.9.41h0A1.16,1.16,0,0,1,51.06,239.08Zm23.19-2.78h0a1.2,1.2,0,0,1-.3-1.67h0a1.2,1.2,0,0,1,1.66-.31h0a1.2,1.2,0,0,1,.31,1.66h0a1.18,1.18,0,0,1-1,.53h0A1.32,1.32,0,0,1,74.25,236.3Zm-16.63-2.48a1.21,1.21,0,0,1,.69-1.55h0a1.2,1.2,0,0,1,1.55.69h0a1.21,1.21,0,0,1-.69,1.55h0a1.31,1.31,0,0,1-.43.08h0A1.22,1.22,0,0,1,57.62,233.82Zm9.32-.27a1.21,1.21,0,0,1-1.06-1.33h0a1.2,1.2,0,0,1,1.33-1.05h0a1.19,1.19,0,0,1,1.05,1.33h0a1.18,1.18,0,0,1-1.19,1.05h-.13Z"/><path class="cls-7" d="M414.34,369a1.93,1.93,0,0,1-1-2.53h0a1.92,1.92,0,0,1,2.53-1h0a1.94,1.94,0,0,1,1,2.53h0l-.11.21h0A1.93,1.93,0,0,1,414.34,369Z"/><path class="cls-15" d="M408.19,379.52a1.92,1.92,0,0,1-2.71-.28h0a1.91,1.91,0,0,1,.28-2.7h0a1.93,1.93,0,0,1,2.71.27h0a1.94,1.94,0,0,1,.17,2.19h0A1.83,1.83,0,0,1,408.19,379.52Z"/><path class="cls-15" d="M417.44,355.82a1.93,1.93,0,0,1-2.07-1.77h0a1.91,1.91,0,0,1,1.76-2.07h0a1.93,1.93,0,0,1,2.08,1.76h0a1.92,1.92,0,0,1-.26,1.12h0A1.9,1.9,0,0,1,417.44,355.82Z"/><path class="cls-15" d="M395.14,385.69a1.92,1.92,0,0,1-2.27-1.5h0a1.93,1.93,0,0,1,1.5-2.27h0a1.93,1.93,0,0,1,2.28,1.5h0a1.9,1.9,0,0,1-.22,1.35h0A1.91,1.91,0,0,1,395.14,385.69Z"/><path class="cls-15" d="M414.06,342.7a1.92,1.92,0,0,1-2.66-.61h0a1.92,1.92,0,0,1,.61-2.65h0a1.92,1.92,0,0,1,2.65.6h0a1.92,1.92,0,0,1,0,2h0A1.92,1.92,0,0,1,414.06,342.7Z"/><path class="cls-7" d="M380.72,385.11a1.93,1.93,0,0,1-1.31-2.39h0a1.94,1.94,0,0,1,2.39-1.31h0a1.94,1.94,0,0,1,1.31,2.39h0a2.08,2.08,0,0,1-.19.43h0A1.92,1.92,0,0,1,380.72,385.11Z"/><path class="cls-7" d="M402.34,333.36l0,0h0l0,0h0a1.91,1.91,0,0,1-.71-2.63h0a1.92,1.92,0,0,1,2.62-.71h0l.06,0h0l0,0h0a1.93,1.93,0,0,1,.7,2.63h0A1.92,1.92,0,0,1,402.34,333.36Z"/><path class="cls-15" d="M370.94,377.83a1.92,1.92,0,0,1-2.72.06h0a1.93,1.93,0,0,1-.06-2.72h0a1.94,1.94,0,0,1,2.73-.06h0a1.93,1.93,0,0,1,.33,2.36h0A1.35,1.35,0,0,1,370.94,377.83Z"/><path class="cls-7" d="M390.15,329.82a1.92,1.92,0,0,1-1.85-2h0a1.93,1.93,0,0,1,2-1.85h0a1.93,1.93,0,0,1,1.86,2h0a1.89,1.89,0,0,1-.26.89h0A1.92,1.92,0,0,1,390.15,329.82Z"/><path class="cls-15" d="M363,366.91a1.94,1.94,0,0,1-2.44-1.22h0a1.93,1.93,0,0,1,1.22-2.44h0a1.94,1.94,0,0,1,2.44,1.22h0a1.93,1.93,0,0,1-.17,1.58h0A2,2,0,0,1,363,366.91Z"/><path class="cls-15" d="M377.81,332.36a1.93,1.93,0,0,1-2.57-.91h0a1.94,1.94,0,0,1,.92-2.57h0a1.94,1.94,0,0,1,2.57.91h0a1.94,1.94,0,0,1-.08,1.8h0A2,2,0,0,1,377.81,332.36Z"/><path class="cls-15" d="M360.93,353.51a1.92,1.92,0,0,1-1.59-2.21h0a1.92,1.92,0,0,1,2.21-1.59h0a1.92,1.92,0,0,1,1.59,2.2h0a1.85,1.85,0,0,1-.24.67h0A1.93,1.93,0,0,1,360.93,353.51Z"/><path class="cls-7" d="M368.07,340.33a1.93,1.93,0,0,1-2.7.39h0A1.93,1.93,0,0,1,365,338h0a1.92,1.92,0,0,1,2.69-.38h0a1.92,1.92,0,0,1,.52,2.5h0C368.16,340.21,368.11,340.27,368.07,340.33Z"/><path class="cls-15" d="M409.76,366.66a1.58,1.58,0,0,1-.83-2.07h0a1.58,1.58,0,0,1,2.07-.83h0a1.59,1.59,0,0,1,.83,2.07h0a.91.91,0,0,1-.09.17h0A1.57,1.57,0,0,1,409.76,366.66Z"/><path class="cls-15" d="M404.72,375.27a1.56,1.56,0,0,1-2.21-.23h0a1.56,1.56,0,0,1,.23-2.21h0a1.57,1.57,0,0,1,2.21.22h0a1.57,1.57,0,0,1,.14,1.79h0A1.37,1.37,0,0,1,404.72,375.27Z"/><path class="cls-15" d="M412.3,355.88a1.59,1.59,0,0,1-1.7-1.45h0a1.58,1.58,0,0,1,1.44-1.7h0a1.58,1.58,0,0,1,1.7,1.45h0a1.64,1.64,0,0,1-.21.91h0A1.58,1.58,0,0,1,412.3,355.88Z"/><path class="cls-15" d="M394.05,380.32a1.58,1.58,0,0,1-1.86-1.23h0a1.59,1.59,0,0,1,1.23-1.86h0a1.59,1.59,0,0,1,1.86,1.23h0a1.54,1.54,0,0,1-.18,1.1h0A1.59,1.59,0,0,1,394.05,380.32Z"/><path class="cls-7" d="M409.53,345.14a1.58,1.58,0,0,1-2.18-.5h0a1.58,1.58,0,0,1,.5-2.17h0a1.58,1.58,0,0,1,2.17.5h0a1.59,1.59,0,0,1,0,1.63h0A1.49,1.49,0,0,1,409.53,345.14Z"/><path class="cls-15" d="M382.25,379.84a1.56,1.56,0,0,1-1.07-1.95h0a1.57,1.57,0,0,1,1.95-1.08h0a1.58,1.58,0,0,1,1.07,2h0a1.84,1.84,0,0,1-.15.35h0A1.57,1.57,0,0,1,382.25,379.84Z"/><path class="cls-15" d="M399.93,337.5h0l-.05,0h0a1.58,1.58,0,0,1-.58-2.15h0a1.57,1.57,0,0,1,2.15-.58h0l.05,0h0l0,0h0a1.57,1.57,0,0,1,.58,2.15h0A1.57,1.57,0,0,1,399.93,337.5Z"/><path class="cls-15" d="M374.25,373.89a1.57,1.57,0,0,1-2.23,0h0a1.58,1.58,0,0,1,0-2.23h0a1.58,1.58,0,0,1,2.23,0h0a1.59,1.59,0,0,1,.27,1.93h0A2.17,2.17,0,0,1,374.25,373.89Z"/><path class="cls-15" d="M390,334.61a1.58,1.58,0,0,1-1.51-1.64h0a1.58,1.58,0,0,1,1.63-1.52h0a1.58,1.58,0,0,1,1.52,1.64h0a1.63,1.63,0,0,1-.21.73h0A1.6,1.6,0,0,1,390,334.61Z"/><path class="cls-7" d="M367.7,365a1.56,1.56,0,0,1-2-1h0a1.56,1.56,0,0,1,1-2h0a1.58,1.58,0,0,1,2,1h0a1.63,1.63,0,0,1-.14,1.3h0A1.61,1.61,0,0,1,367.7,365Z"/><path class="cls-15" d="M379.87,336.68a1.57,1.57,0,0,1-2.1-.75h0a1.56,1.56,0,0,1,.75-2.09h0a1.58,1.58,0,0,1,2.1.74h0a1.59,1.59,0,0,1-.06,1.47h0A1.56,1.56,0,0,1,379.87,336.68Z"/><path class="cls-15" d="M366.06,354a1.59,1.59,0,0,1-1.31-1.81h0a1.57,1.57,0,0,1,1.81-1.3h0a1.58,1.58,0,0,1,1.31,1.8h0a1.83,1.83,0,0,1-.2.54h0A1.57,1.57,0,0,1,366.06,354Z"/><path class="cls-15" d="M371.9,343.2a1.58,1.58,0,0,1-2.21.32h0a1.57,1.57,0,0,1-.31-2.21h0a1.58,1.58,0,0,1,2.2-.31h0a1.57,1.57,0,0,1,.42,2.05h0A.78.78,0,0,1,371.9,343.2Z"/><path class="cls-15" d="M405.84,364.66a1.27,1.27,0,0,1-.67-1.67h0a1.28,1.28,0,0,1,1.68-.68h0a1.29,1.29,0,0,1,.67,1.68h0c0,.05,0,.1-.07.14h0A1.28,1.28,0,0,1,405.84,364.66Z"/><path class="cls-15" d="M401.76,371.64h0a1.27,1.27,0,0,1-1.79-.19h0a1.26,1.26,0,0,1,.18-1.79h0a1.28,1.28,0,0,1,1.8.18h0a1.29,1.29,0,0,1,.11,1.45h0A1.1,1.1,0,0,1,401.76,371.64Z"/><path class="cls-15" d="M407.9,355.92a1.28,1.28,0,0,1-1.38-1.17h0a1.28,1.28,0,0,1,1.17-1.37h0a1.28,1.28,0,0,1,1.38,1.17h0a1.26,1.26,0,0,1-.18.74h0A1.24,1.24,0,0,1,407.9,355.92Z"/><path class="cls-7" d="M393.11,375.73a1.27,1.27,0,0,1-1.5-1h0a1.27,1.27,0,0,1,1-1.5h0a1.27,1.27,0,0,1,1.51,1h0a1.24,1.24,0,0,1-.15.89h0A1.25,1.25,0,0,1,393.11,375.73Z"/><path class="cls-15" d="M405.65,347.23a1.27,1.27,0,0,1-1.76-.41h0a1.27,1.27,0,0,1,.41-1.75h0a1.26,1.26,0,0,1,1.75.39h0a1.27,1.27,0,0,1,0,1.33h0A1.39,1.39,0,0,1,405.65,347.23Z"/><path class="cls-15" d="M383.55,375.34a1.27,1.27,0,0,1-.87-1.58h0a1.28,1.28,0,0,1,1.59-.87h0a1.27,1.27,0,0,1,.86,1.58h0a1.82,1.82,0,0,1-.11.28h0A1.28,1.28,0,0,1,383.55,375.34Z"/><path class="cls-7" d="M397.88,341l0,0h0l0,0h0a1.26,1.26,0,0,1-.46-1.74h0a1.27,1.27,0,0,1,1.74-.47h0l0,0h0l0,0h0a1.27,1.27,0,0,1,.46,1.74h0A1.29,1.29,0,0,1,397.88,341Z"/><path class="cls-7" d="M377.07,370.52a1.27,1.27,0,0,1-1.8,0h0a1.28,1.28,0,0,1,0-1.8h0a1.28,1.28,0,0,1,1.81,0h0a1.29,1.29,0,0,1,.22,1.57h0A1.33,1.33,0,0,1,377.07,370.52Z"/><path class="cls-15" d="M389.81,338.69a1.27,1.27,0,0,1-1.23-1.32h0a1.27,1.27,0,0,1,1.32-1.23h0a1.27,1.27,0,0,1,1.23,1.32h0a1.23,1.23,0,0,1-.17.6h0A1.27,1.27,0,0,1,389.81,338.69Z"/><path class="cls-15" d="M371.77,363.27a1.27,1.27,0,0,1-1.61-.8h0a1.26,1.26,0,0,1,.81-1.62h0a1.28,1.28,0,0,1,1.61.81h0a1.25,1.25,0,0,1-.11,1h0A1.25,1.25,0,0,1,371.77,363.27Z"/><path class="cls-15" d="M381.63,340.38h0a1.3,1.3,0,0,1-1.71-.61h0a1.28,1.28,0,0,1,.61-1.7h0a1.27,1.27,0,0,1,1.7.6h0a1.28,1.28,0,0,1,0,1.19h0A1.34,1.34,0,0,1,381.63,340.38Z"/><path class="cls-15" d="M370.43,354.4a1.29,1.29,0,0,1-1.05-1.47h0a1.28,1.28,0,0,1,1.46-1.06h0a1.28,1.28,0,0,1,1.06,1.47h0a1.17,1.17,0,0,1-.16.44h0A1.29,1.29,0,0,1,370.43,354.4Z"/><path class="cls-15" d="M375.17,345.66a1.28,1.28,0,0,1-1.79.25h0a1.26,1.26,0,0,1-.25-1.78h0a1.27,1.27,0,0,1,1.78-.26h0a1.27,1.27,0,0,1,.34,1.66h0A.91.91,0,0,1,375.17,345.66Z"/><path class="cls-7" d="M663.34,23.21a1.93,1.93,0,0,1-1-2.53h0a1.92,1.92,0,0,1,2.53-1h0a1.94,1.94,0,0,1,1,2.53h0l-.11.21h0A1.93,1.93,0,0,1,663.34,23.21Z"/><path class="cls-15" d="M657.19,33.73a1.92,1.92,0,0,1-2.71-.28h0a1.91,1.91,0,0,1,.28-2.7h0a1.92,1.92,0,0,1,2.71.27h0a1.94,1.94,0,0,1,.17,2.19h0A1.83,1.83,0,0,1,657.19,33.73Z"/><path class="cls-15" d="M666.44,10a1.93,1.93,0,0,1-2.07-1.77h0a1.91,1.91,0,0,1,1.76-2.07h0A1.93,1.93,0,0,1,668.21,8h0A1.94,1.94,0,0,1,668,9.07h0A1.9,1.9,0,0,1,666.44,10Z"/><path class="cls-15" d="M644.14,39.9a1.92,1.92,0,0,1-2.27-1.5h0a1.93,1.93,0,0,1,1.5-2.27h0a1.94,1.94,0,0,1,2.28,1.5h0a1.9,1.9,0,0,1-.22,1.35h0A1.91,1.91,0,0,1,644.14,39.9Z"/><path class="cls-7" d="M629.72,39.32a1.93,1.93,0,0,1-1.31-2.39h0a1.92,1.92,0,0,1,2.39-1.31h0A1.94,1.94,0,0,1,632.11,38h0a2.08,2.08,0,0,1-.19.43h0A1.92,1.92,0,0,1,629.72,39.32Z"/><path class="cls-15" d="M619.94,32a1.92,1.92,0,0,1-2.72.06h0a1.94,1.94,0,0,1-.06-2.73h0a2,2,0,0,1,2.73-.05h0a1.93,1.93,0,0,1,.33,2.36h0A1.35,1.35,0,0,1,619.94,32Z"/><path class="cls-15" d="M612,21.11a1.92,1.92,0,0,1-2.44-1.21h0a1.93,1.93,0,0,1,1.22-2.44h0a1.94,1.94,0,0,1,2.44,1.22h0a1.94,1.94,0,0,1-.17,1.58h0A1.94,1.94,0,0,1,612,21.11Z"/><path class="cls-15" d="M609.93,7.72a1.92,1.92,0,0,1-1.59-2.21h0a1.93,1.93,0,0,1,2.21-1.6h0a1.94,1.94,0,0,1,1.59,2.21h0a1.85,1.85,0,0,1-.24.67h0A1.93,1.93,0,0,1,609.93,7.72Z"/><path class="cls-15" d="M658.76,20.87a1.58,1.58,0,0,1-.83-2.07h0A1.58,1.58,0,0,1,660,18h0a1.58,1.58,0,0,1,.83,2.07h0a.91.91,0,0,1-.09.17h0A1.57,1.57,0,0,1,658.76,20.87Z"/><path class="cls-15" d="M653.72,29.48a1.56,1.56,0,0,1-2.21-.23h0a1.58,1.58,0,0,1,.23-2.22h0a1.57,1.57,0,0,1,2.21.23h0a1.57,1.57,0,0,1,.14,1.79h0A1.49,1.49,0,0,1,653.72,29.48Z"/><path class="cls-15" d="M661.3,10.08a1.58,1.58,0,0,1-1.7-1.44h0A1.57,1.57,0,0,1,661,6.94h0a1.58,1.58,0,0,1,1.7,1.45h0a1.64,1.64,0,0,1-.21.91h0A1.56,1.56,0,0,1,661.3,10.08Z"/><path class="cls-15" d="M643.05,34.53a1.58,1.58,0,0,1-1.86-1.23h0a1.58,1.58,0,0,1,1.23-1.86h0a1.58,1.58,0,0,1,1.86,1.23h0a1.54,1.54,0,0,1-.18,1.1h0A1.59,1.59,0,0,1,643.05,34.53Z"/><path class="cls-15" d="M631.25,34.05a1.56,1.56,0,0,1-1.07-1.95h0a1.57,1.57,0,0,1,2-1.08h0a1.58,1.58,0,0,1,1.07,2h0a2.17,2.17,0,0,1-.15.35h0A1.57,1.57,0,0,1,631.25,34.05Z"/><path class="cls-15" d="M623.25,28.1a1.57,1.57,0,0,1-2.23,0h0a1.57,1.57,0,0,1,0-2.22h0a1.58,1.58,0,0,1,2.23-.05h0a1.59,1.59,0,0,1,.27,1.93h0A2.17,2.17,0,0,1,623.25,28.1Z"/><path class="cls-7" d="M616.7,19.15a1.56,1.56,0,0,1-2-1h0a1.57,1.57,0,0,1,1-2h0a1.59,1.59,0,0,1,2,1h0a1.6,1.6,0,0,1-.14,1.29h0A1.53,1.53,0,0,1,616.7,19.15Z"/><path class="cls-15" d="M615.06,8.19a1.57,1.57,0,0,1-1.31-1.8h0a1.57,1.57,0,0,1,1.81-1.3h0a1.57,1.57,0,0,1,1.31,1.8h0a1.83,1.83,0,0,1-.2.54h0A1.56,1.56,0,0,1,615.06,8.19Z"/><path class="cls-15" d="M654.84,18.87a1.27,1.27,0,0,1-.67-1.67h0a1.28,1.28,0,0,1,1.68-.68h0a1.29,1.29,0,0,1,.67,1.68h0c0,.05,0,.09-.07.14h0A1.28,1.28,0,0,1,654.84,18.87Z"/><path class="cls-15" d="M650.76,25.85h0a1.28,1.28,0,0,1-1.79-.19h0a1.27,1.27,0,0,1,.18-1.8h0a1.29,1.29,0,0,1,1.8.19h0a1.27,1.27,0,0,1,.11,1.44h0A1,1,0,0,1,650.76,25.85Z"/><path class="cls-15" d="M656.9,10.13A1.28,1.28,0,0,1,655.52,9h0a1.29,1.29,0,0,1,1.17-1.38h0a1.29,1.29,0,0,1,1.38,1.17h0a1.27,1.27,0,0,1-.18.75h0A1.24,1.24,0,0,1,656.9,10.13Z"/><path class="cls-7" d="M642.11,29.93a1.27,1.27,0,0,1-1.5-1h0a1.28,1.28,0,0,1,1-1.51h0a1.28,1.28,0,0,1,1.51,1h0a1.24,1.24,0,0,1-.15.89h0A1.21,1.21,0,0,1,642.11,29.93Z"/><path class="cls-15" d="M654.65,1.44A1.28,1.28,0,0,1,652.89,1h0a1.27,1.27,0,0,1,.41-1.75h0a1.26,1.26,0,0,1,1.75.39h0a1.27,1.27,0,0,1,0,1.33h0A1.39,1.39,0,0,1,654.65,1.44Z"/><path class="cls-15" d="M632.55,29.55a1.28,1.28,0,0,1-.87-1.59h0a1.3,1.3,0,0,1,1.59-.87h0a1.28,1.28,0,0,1,.86,1.59h0A1.82,1.82,0,0,1,634,29h0A1.28,1.28,0,0,1,632.55,29.55Z"/><path class="cls-7" d="M626.07,24.72a1.26,1.26,0,0,1-1.8,0h0a1.28,1.28,0,0,1,0-1.8h0a1.28,1.28,0,0,1,1.81,0h0a1.28,1.28,0,0,1,.22,1.56h0A.88.88,0,0,1,626.07,24.72Z"/><path class="cls-15" d="M620.77,17.48a1.28,1.28,0,0,1-1.61-.8h0a1.26,1.26,0,0,1,.81-1.62h0a1.28,1.28,0,0,1,1.61.81h0a1.25,1.25,0,0,1-.11,1h0A1.25,1.25,0,0,1,620.77,17.48Z"/><path class="cls-15" d="M619.43,8.6a1.28,1.28,0,0,1-1-1.46h0a1.28,1.28,0,0,1,1.46-1.06h0a1.28,1.28,0,0,1,1.06,1.47h0a1.12,1.12,0,0,1-.16.43h0A1.26,1.26,0,0,1,619.43,8.6Z"/><path class="cls-15" d="M624.17-.14a1.28,1.28,0,0,1-1.79.26h0a1.26,1.26,0,0,1-.25-1.78h0a1.26,1.26,0,0,1,1.78-.26h0a1.27,1.27,0,0,1,.34,1.66h0A.83.83,0,0,1,624.17-.14Z"/><path class="cls-7" d="M46.23,28.47A3.27,3.27,0,1,1,46,23.85,3.28,3.28,0,0,1,46.23,28.47Z"/><path class="cls-15" d="M60.25,41.41a3.27,3.27,0,1,1-.19-4.61A3.27,3.27,0,0,1,60.25,41.41Z"/><path class="cls-7" d="M44,2.79A3.26,3.26,0,0,1,39.35,3a3.27,3.27,0,0,1-.19-4.62A3.27,3.27,0,0,1,44,2.79Z"/><path class="cls-7" d="M69.73,3a3.26,3.26,0,0,1-4.61.18,3.26,3.26,0,0,1-.19-4.61A3.27,3.27,0,0,1,69.73,3Z"/><path class="cls-7" d="M83.75,16a3.27,3.27,0,1,1-.18-4.61A3.26,3.26,0,0,1,83.75,16Z"/><path class="cls-7" d="M469.83,483.94a3.27,3.27,0,1,1-.27-4.61A3.26,3.26,0,0,1,469.83,483.94Z"/><path class="cls-15" d="M484.09,496.62a3.27,3.27,0,1,1-.27-4.61A3.26,3.26,0,0,1,484.09,496.62Z"/><path class="cls-7" d="M495.6,483.68a3.26,3.26,0,1,1-.27-4.61A3.27,3.27,0,0,1,495.6,483.68Z"/><path class="cls-7" d="M509.86,496.36a3.27,3.27,0,1,1-.27-4.61A3.27,3.27,0,0,1,509.86,496.36Z"/><path class="cls-15" d="M507.12,470.73a3.27,3.27,0,1,1-.27-4.61A3.26,3.26,0,0,1,507.12,470.73Z"/><path class="cls-7" d="M521.38,483.41a3.27,3.27,0,1,1-.27-4.6A3.26,3.26,0,0,1,521.38,483.41Z"/><path class="cls-7" d="M535.63,496.09a3.26,3.26,0,1,1-.27-4.6A3.25,3.25,0,0,1,535.63,496.09Z"/><path class="cls-15" d="M504.37,445.11a3.27,3.27,0,1,1-.27-4.61A3.28,3.28,0,0,1,504.37,445.11Z"/><path class="cls-7" d="M532.89,470.47a3.27,3.27,0,1,1-.27-4.61A3.26,3.26,0,0,1,532.89,470.47Z"/><path class="cls-15" d="M547.15,483.15a3.27,3.27,0,1,1-.27-4.61A3.26,3.26,0,0,1,547.15,483.15Z"/><circle class="cls-29" cx="563" cy="196" r="13"/><circle class="cls-30" cx="184.17" cy="100" r="13"/><path class="cls-15" d="M272.5,230.83a17,17,0,1,1,17-17A17,17,0,0,1,272.5,230.83Zm0-26a9,9,0,1,0,9,9A9,9,0,0,0,272.5,204.83Z"/><path class="cls-16" d="M254,212.33a17,17,0,1,1,17-17A17,17,0,0,1,254,212.33Zm0-26a9,9,0,1,0,9,9A9,9,0,0,0,254,186.33Z"/><path class="cls-15" d="M709.83,434.83a17,17,0,1,1,17-17A17,17,0,0,1,709.83,434.83Zm0-26a9,9,0,1,0,9,9A9,9,0,0,0,709.83,408.83Z"/><path class="cls-16" d="M691.33,416.33a17,17,0,1,1,17-17A17,17,0,0,1,691.33,416.33Zm0-26a9,9,0,1,0,9,9A9,9,0,0,0,691.33,390.33Z"/><path class="cls-15" d="M483.42,94.42a17,17,0,1,1,17-17A17,17,0,0,1,483.42,94.42Zm0-26a9,9,0,1,0,9,9A9,9,0,0,0,483.42,68.42Z"/><path class="cls-16" d="M464.92,75.92a17,17,0,1,1,17-17A17,17,0,0,1,464.92,75.92Zm0-26a9,9,0,1,0,9,9A9,9,0,0,0,464.92,49.92Z"/><circle class="cls-31" cx="672.33" cy="122" r="8.17"/><path class="cls-32" d="M471.67,304.67A4.67,4.67,0,1,1,467,300,4.67,4.67,0,0,1,471.67,304.67Z"/><path class="cls-7" d="M474.75,307.75a4.67,4.67,0,1,1-4.67-4.67A4.67,4.67,0,0,1,474.75,307.75Z"/><path class="cls-32" d="M143,268.67a4.67,4.67,0,1,1-4.67-4.67A4.67,4.67,0,0,1,143,268.67Z"/><path class="cls-7" d="M146.08,271.75a4.67,4.67,0,1,1-4.66-4.67A4.67,4.67,0,0,1,146.08,271.75Z"/><path class="cls-32" d="M272.25,38.58a4.67,4.67,0,1,1-4.67-4.66A4.67,4.67,0,0,1,272.25,38.58Z"/><path class="cls-7" d="M275.33,41.67A4.67,4.67,0,1,1,270.67,37,4.66,4.66,0,0,1,275.33,41.67Z"/><path class="cls-7" d="M362.41,38.68a13.69,13.69,0,0,1,0,19.49l-19.68-19.5A14,14,0,0,1,362.41,38.68Z"/><path class="cls-14" d="M326.8,47.8a13.71,13.71,0,0,1,0-19.5l19.69,19.5A14,14,0,0,1,326.8,47.8Z"/><path class="cls-7" d="M673.74,293.34a13.69,13.69,0,0,1,0,19.5l-19.68-19.5A14,14,0,0,1,673.74,293.34Z"/><path class="cls-14" d="M638.14,302.47a13.69,13.69,0,0,1,0-19.5l19.68,19.5A14,14,0,0,1,638.14,302.47Z"/></g></svg>