<svg
    xmlns="http://www.w3.org/2000/svg"
    xmlns:xlink="http://www.w3.org/1999/xlink"
    class="shrink-0"
    viewBox="0 0 1524.6 500"
  >
    <defs>
      <path
        id="a"
        d="M180.5 391.1c-53-2.4-77.4-18-77.4-74.2V191.3h79.5V88.2h-79.5V1.7H0V321c0 119.2 69.5 168.6 180.5 168.8h2.1v-98.7h-2.1z"
      />
    </defs>
    <use
      xlink:href="#a"
      fill="#8b5cf6"
      fill-rule="evenodd"
      class="overflow-visible"
      clip-rule="evenodd"
    />
    <clipPath id="b"><use xlink:href="#a" class="overflow-visible" /></clipPath>
    <path
      fill="#8b5cf6"
      d="M0 1.7h182.6v488.1H0z"
      clip-path="url(#b)"
    />
    <defs>
      <path
        id="c"
        d="M409.2 181.2c59.6 0 107.8 48.3 107.8 107.8 0 59.6-48.3 107.8-107.8 107.8-59.6 0-107.8-48.3-107.8-107.8s48.3-107.8 107.8-107.8m206.7-93h-98.5v43C486.2 98.3 443.2 79.6 394 79.6c-104.7 0-197.2 90.6-197.2 210.2 0 118.8 92.5 209.4 197.2 209.4 49.2 0 92.2-18.8 123.5-51.6v43H616V88.2z"
      />
    </defs>
    <use
      xlink:href="#c"
      fill="#8b5cf6"
      fill-rule="evenodd"
      class="overflow-visible"
      clip-rule="evenodd"
    />
    <clipPath id="d"><use xlink:href="#c" class="overflow-visible" /></clipPath>
    <path
      fill="#8b5cf6"
      d="M196.8 79.6H616v419.7H196.8z"
      clip-path="url(#d)"
    />
    <defs><path id="e" d="M674.2 88.2h103.2v402.5H674.2z" /></defs>
    <use
      xlink:href="#e"
      fill="#8b5cf6"
      fill-rule="evenodd"
      class="overflow-visible"
      clip-rule="evenodd"
    />
    <clipPath id="f"><use xlink:href="#e" class="overflow-visible" /></clipPath>
    <path
      fill="#8b5cf6"
      d="M674.2 88.2h103.2v402.5H674.2z"
      clip-path="url(#f)"
    />
    <defs>
      <path
        id="g"
        d="M1047.4 80.4C913.8 64 834.8 143.7 834.8 257.8v232.9H938V257.8c0-57 43.8-92.2 109.4-80.5V80.4z"
      />
    </defs>
    <use
      xlink:href="#g"
      fill="#8b5cf6"
      fill-rule="evenodd"
      class="overflow-visible"
      clip-rule="evenodd"
    />
    <clipPath id="h"><use xlink:href="#g" class="overflow-visible" /></clipPath>
    <path
      fill="#8b5cf6"
      d="M834.8 63.9h212.6v426.7H834.8z"
      clip-path="url(#h)"
    />
    <defs>
      <path
        id="i"
        d="M1270.4 181.2c59.6 0 107.8 48.3 107.8 107.8 0 59.6-48.3 107.8-107.8 107.8-59.6 0-107.8-48.3-107.8-107.8-.1-59.5 48.2-107.8 107.8-107.8m0-103.2c-116.5 0-211 94.5-211 211s94.5 211 211 211 211-94.5 211-211c0-25.2-4.4-49.5-12.6-71.9-5.2-14.4-16.9-24.2-32-26.9-45.1-7.9-82-39.7-97.1-81.9-5.2-14.5-16.8-24.3-31.9-27-12.1-2.1-24.6-3.3-37.4-3.3z"
      />
    </defs>
    <use
      xlink:href="#i"
      fill="#8b5cf6"
      fill-rule="evenodd"
      class="overflow-visible"
      clip-rule="evenodd"
    />
    <clipPath id="j"><use xlink:href="#i" class="overflow-visible" /></clipPath>
    <path
      fill="#8b5cf6"
      d="M1059.4 78h422v422h-422z"
      clip-path="url(#j)"
    />
    <defs>
      <path
        id="k"
        d="M1458.8 0c36.3 0 65.8 29.5 65.8 65.8s-29.5 65.8-65.8 65.8-65.8-29.5-65.8-65.8S1422.4 0 1458.8 0"
      />
    </defs>
    <use
      xlink:href="#k"
      fill="#8b5cf6"
      fill-rule="evenodd"
      class="overflow-visible"
      clip-rule="evenodd"
    />
    <clipPath id="l"><use xlink:href="#k" class="overflow-visible" /></clipPath>
    <path
      fill="#8b5cf6"
      d="M1393 0h131.6v131.6H1393z"
      clip-path="url(#l)"
    />
  </svg>