<svg
    version="1.1"
    xmlns="http://www.w3.org/2000/svg"
    xmlns:xlink="http://www.w3.org/1999/xlink"
    x="0px"
    y="0px"
    viewBox="0 0 500 500"
    style="enable-background: new 0 0 500 500"
    xml:space="preserve"
    class="shrink-0"
  >
    <g>
      <g>
        <defs>
          <path
            id="LOGOSVGID_1_"
            d="M228.4,181.2c59.6,0,107.8,48.3,107.8,107.8c0,59.6-48.3,107.8-107.8,107.8
          c-59.6,0-107.8-48.3-107.8-107.8C120.6,229.5,168.8,181.2,228.4,181.2 M228.4,78c-116.5,0-211,94.5-211,211
          c0,116.5,94.5,211,211,211c116.5,0,211-94.5,211-211c0-25.2-4.4-49.5-12.6-71.9c-5.2-14.4-16.9-24.2-32-26.9
          c-45.1-7.9-82-39.7-97.1-81.9c-5.2-14.5-16.8-24.3-31.9-27C253.7,79.2,241.2,78,228.4,78z"
          />
        </defs>
        <use
          xlink:href="#LOGOSVGID_1_"
          clip-rule="evenodd"
          fill-rule="evenodd"
          fill="#8b5cf6"
          class="overflow-visible"
        />
        <clipPath id="LOGOSVGID_2_">
          <use xlink:href="#LOGOSVGID_1_" class="overflow-visible" />
        </clipPath>
        <rect
          x="17.4"
          y="78"
          clip-path="url(#LOGOSVGID_2_)"
          width="422"
          height="422"
          fill="#8b5cf6"
        />
      </g>
      <g>
        <defs>
          <path
            id="LOGOSVGID_3_"
            d="M416.8,0c36.3,0,65.8,29.5,65.8,65.8c0,36.3-29.5,65.8-65.8,65.8c-36.3,0-65.8-29.5-65.8-65.8
          C351,29.5,380.5,0,416.8,0"
          />
        </defs>
        <use
          xlink:href="#LOGOSVGID_3_"
          clip-rule="evenodd"
          fill-rule="evenodd"
          fill="#8b5cf6"
          class="overflow-visible"
        />
        <clipPath id="LOGOSVGID_4_">
          <use xlink:href="#LOGOSVGID_3_" class="overflow-visible" />
        </clipPath>
        <rect
          x="351"
          y="0"
          clip-path="url(#LOGOSVGID_4_)"
          width="131.6"
          height="131.6"
          fill="#8b5cf6"
        />
      </g>
    </g>
  </svg>