<svg xmlns="http://www.w3.org/2000/svg" viewBox="0 0 500 500"><rect x="58.72" y="185.16" width="383.2" height="140.58" fill="#333"/><rect x="36.77" y="325.16" width="22.33" height="17.82" fill="#fcd2b1"/><rect x="436.16" y="325.16" width="22.33" height="17.82" fill="#fcd2b1"/><polygon points="31.48 184.52 61.6 181.99 61.6 321.74 31.4 338.18 31.48 184.52" fill="#666"/><polygon points="467.95 185.47 437.26 182.94 437.26 322.69 467.75 339.13 467.95 185.47" fill="#666"/><path d="M32.79,250.24H464.68a0,0,0,0,1,0,0v80a4.13,4.13,0,0,1-4.13,4.13H36.92a4.13,4.13,0,0,1-4.13-4.13v-80a0,0,0,0,1,0,0Z" fill="#ccc"/><rect x="31.75" y="250.29" width="2.98" height="84.1" fill="#666"/><path d="M16.55,184.52H32.79a0,0,0,0,1,0,0V338.18a0,0,0,0,1,0,0H17.22A7.19,7.19,0,0,1,10,331V191A6.52,6.52,0,0,1,16.55,184.52Z" fill="#c2c2c2"/><rect x="57.45" y="152.91" width="125.84" height="86.63" rx="3.15" fill="#c2c2c2"/><rect x="186.77" y="152.91" width="125.84" height="86.63" rx="3.15" fill="#c2c2c2"/><rect x="316.08" y="152.91" width="125.84" height="86.63" rx="3.15" fill="#c2c2c2"/><rect x="55.67" y="228.75" width="126.54" height="11.86" rx="5.51" fill="#9a9a9a" opacity="0.61"/><path d="M312.7,232.28a5.52,5.52,0,0,0-5.52-5.51H191.67a5.51,5.51,0,0,0-5.51,5.51v.84c0,3,2.47,5.51,5.51,7.49H307.18c3.05-2,5.52-4.45,5.52-7.49Z" fill="#9a9a9a" opacity="0.61"/><rect x="316.65" y="228.75" width="126.54" height="11.86" rx="5.51" fill="#9a9a9a" opacity="0.61"/><polygon points="32.95 250.66 69.47 240.61 436.22 240.61 464.68 251.33 32.95 250.66" fill="#e0e0e0"/><polygon points="17.93 185.25 51.76 182.4 63.46 183.03 32.41 185.25 17.93 185.25" fill="#e0e0e0"/><path d="M38.74,184.21H53.29a5,5,0,0,1,5,4.45l5.56,51.68a5,5,0,0,1-5,5.52H45.1a5,5,0,0,1-4.94-4.37L33.8,189.8A5,5,0,0,1,38.74,184.21Z" fill="#ccc"/><polygon points="78.32 181.99 38.74 184.21 58.72 185.16 72.05 190.85 78.32 181.99" fill="#e0e0e0"/><path d="M58.72,185.16c3.63,1.89,8.3,3.46,12.64,1.89s5.37-5.15,7-5.06c2.85.17,5.78,12,7.59,54.39-2.69,1.28-6.36,3-10.75,5.05-9.6,4.45-10.21,4.53-10.75,4.43C60.33,245.1,56.82,233,58.72,185.16Z" fill="#676767"/><path d="M474.4,185.47H490a0,0,0,0,1,0,0V339.13a0,0,0,0,1,0,0H473.73a6.52,6.52,0,0,1-6.52-6.52V192.66A7.19,7.19,0,0,1,474.4,185.47Z" transform="translate(957.18 524.6) rotate(180)" fill="#c2c2c2"/><polygon points="482.07 185.25 448.24 182.87 436.54 183.27 467.59 185.25 482.07 185.25" fill="#e0e0e0"/><path d="M461.26,185.16H446.71a5,5,0,0,0-5,4.44l-5.56,51.69a5,5,0,0,0,4.95,5.52H454.9a5,5,0,0,0,4.94-4.38l6.36-51.68A5,5,0,0,0,461.26,185.16Z" fill="#ccc"/><polygon points="421.68 182.94 461.26 185.16 441.28 186.1 427.95 191.79 421.68 182.94" fill="#e0e0e0"/><path d="M441.28,186.1c-3.63,1.9-8.3,3.47-12.64,1.9s-5.37-5.15-7-5.06c-2.85.17-5.78,12.05-7.59,54.38,2.69,1.29,6.36,3,10.75,5.06,9.6,4.44,10.21,4.53,10.75,4.43C439.67,246.05,443.18,234,441.28,186.1Z" fill="#676767"/><polygon points="69.7 286.05 70.78 288.77 73.56 287.91 72.11 290.44 74.52 292.09 71.63 292.53 71.85 295.44 69.7 293.46 67.56 295.44 67.77 292.53 64.89 292.09 67.3 290.44 65.84 287.91 68.63 288.77 69.7 286.05" fill="#676767"/><polygon points="118.16 286.05 119.23 288.77 122.02 287.91 120.56 290.44 122.97 292.09 120.09 292.53 120.3 295.44 118.16 293.46 116.01 295.44 116.23 292.53 113.34 292.09 115.75 290.44 114.3 287.91 117.09 288.77 118.16 286.05" fill="#676767"/><polygon points="162.74 286.05 163.81 288.77 166.6 287.91 165.14 290.44 167.55 292.09 164.67 292.53 164.88 295.44 162.74 293.46 160.59 295.44 160.81 292.53 157.92 292.09 160.33 290.44 158.88 287.91 161.67 288.77 162.74 286.05" fill="#676767"/><polygon points="204.47 286.05 205.54 288.77 208.33 287.91 206.88 290.44 209.29 292.09 206.4 292.53 206.61 295.44 204.47 293.46 202.33 295.44 202.54 292.53 199.66 292.09 202.06 290.44 200.61 287.91 203.4 288.77 204.47 286.05" fill="#676767"/><polygon points="251.03 286.05 252.1 288.77 254.89 287.91 253.44 290.44 255.84 292.09 252.96 292.53 253.17 295.44 251.03 293.46 248.89 295.44 249.1 292.53 246.21 292.09 248.62 290.44 247.17 287.91 249.96 288.77 251.03 286.05" fill="#676767"/><polygon points="294.58 286.05 295.65 288.77 298.44 287.91 296.99 290.44 299.39 292.09 296.51 292.53 296.72 295.44 294.58 293.46 292.44 295.44 292.65 292.53 289.76 292.09 292.17 290.44 290.72 287.91 293.51 288.77 294.58 286.05" fill="#676767"/><polygon points="338.13 286.05 339.2 288.77 341.99 287.91 340.54 290.44 342.95 292.09 340.06 292.53 340.27 295.44 338.13 293.46 335.99 295.44 336.2 292.53 333.32 292.09 335.72 290.44 334.27 287.91 337.06 288.77 338.13 286.05" fill="#676767"/><polygon points="384.69 286.05 385.76 288.77 388.55 287.91 387.1 290.44 389.5 292.09 386.62 292.53 386.83 295.44 384.69 293.46 382.55 295.44 382.76 292.53 379.87 292.09 382.28 290.44 380.83 287.91 383.62 288.77 384.69 286.05" fill="#676767"/><polygon points="426.42 286.05 427.49 288.77 430.28 287.91 428.83 290.44 431.24 292.09 428.35 292.53 428.56 295.44 426.42 293.46 424.28 295.44 424.49 292.53 421.61 292.09 424.01 290.44 422.56 287.91 425.35 288.77 426.42 286.05" fill="#676767"/><rect x="35.9" y="290.04" width="429.04" height="1.98" fill="#676767"/><rect x="249.43" y="252.47" width="1.98" height="81.06" fill="#676767"/><rect x="292.93" y="252.47" width="1.98" height="81.06" fill="#676767"/><rect x="336.42" y="252.47" width="1.98" height="81.06" fill="#676767"/><rect x="383.88" y="252.47" width="1.98" height="81.06" fill="#676767"/><rect x="425.4" y="252.47" width="1.98" height="81.06" fill="#676767"/><rect x="69.51" y="252.47" width="1.98" height="81.06" fill="#676767"/><rect x="116.96" y="252.47" width="1.98" height="81.06" fill="#676767"/><rect x="162.43" y="252.47" width="1.98" height="81.06" fill="#676767"/><rect x="203.95" y="252.47" width="1.98" height="81.06" fill="#676767"/></svg>