<svg xmlns="http://www.w3.org/2000/svg" viewBox="0 0 500 500"><polygon points="33.45 348.21 40.74 360.33 70.02 360.33 74.4 348.21 33.45 348.21" fill="#371c08"/><polygon points="466.55 348.65 459.26 360.33 429.98 360.33 425.6 347.26 466.55 348.65" fill="#371c08"/><polygon points="446.08 345.29 51.22 345.29 51.22 152.21 446.08 153.29 446.08 345.29" fill="#5220a0"/><path d="M37,191.77c0-.08-.24-2.2-1.78-13.14-.59-4.2-1.19-8.67-1.78-12.87a28.76,28.76,0,0,1,6.17-10.57c6.21-6.62,14.27-8.34,20.63-9.45,20.31-3.52,40.79-4.21,51.35-4.36a35.33,35.33,0,0,1,11.57-2.18c7.39-.16,24.45-3,57.5-4,17.46-.5,38.11-.45,62.81,1.08,1.68,1.33,1.81,2.65,4.23,4V268.22H77.62C47.59,212.47,38,198.73,37,191.77Z" fill="#7d38ce"/><path d="M107.27,253.09a300.8,300.8,0,0,1,41.94-5.42,305.43,305.43,0,0,1,98.35,10.48c-.24,1.81,1.69,3.62,1.44,5.43l-175,.36c1.33-1.81,3.74-3.62,5.06-5.43Z" fill="#8f58dd"/><path d="M37,192.88c.5,3.55,3.26,10.48,9.81,22.84,6.85-8.39,14.38-14.33,22.12-16.87,5-1.65,17.1-1.1,41.22,0,41.48,1.9,49.36,5.74,69.86,5.79,39,.09,53.15-13.72,67.69-16.19v-46c-2.42-1.33-2.55-2.65-4.23-4-24.7-1.53-45.67-1.58-63.14-1.09-33,1-50,3.82-57.33,4a33.85,33.85,0,0,0-6.43.72,35.34,35.34,0,0,0-5,1.44c-10.56.14-31,.8-51.33,4.33-6.36,1.1-14.41,2.76-20.62,9.37a28.41,28.41,0,0,0-6.17,10.44q.9,6.32,1.79,12.61C36.77,191.21,37,192.8,37,192.88Z" fill="#7542c6"/><path d="M19,224.16,12.53,242.6c-.24,1.29-.41,3.29.73,4.7,1.74,2.17,5.06,1.06,6.51,2.9,1.75,2.21-.71,6.85-1.09,7.59-3.39,6.57-3.83,18.6-4.7,42.67-.36,9.81,1.21,27.17,15.19,51l32.9-.36a37.78,37.78,0,0,1-4-14.1c-.39-5.36.47-10.26,5.43-25.31,3.32-10.08,4.4-12.35,5.78-16.64.47-1.47,7.34-23.25,4.34-36.52C69.73,241.24,46.82,228.41,19,224.16Z" fill="#6128b2"/><path d="M34.23,191.26c7.05-1.79,20.87-3.24,32.54,0,23.91,6.64,36.07,28.39,41.5,42.05a14.54,14.54,0,0,1-5.47,17.52l-11.08,7.32c-3-3.71-7.32-9-12.66-15.18-14.27-16.63-21.53-25-27.48-28.21s-11.38-4.5-23.5-11.57c-2.77-1.61-6.09-1.93-7.59-2.89C25.79,197.65,28.93,193.91,34.23,191.26Z" fill="#8f58dd"/><path d="M28.62,263.94c-.54,2.3-1.37,6.1-2.08,10.84-4.54,30.31,2.52,52.23,4,57,1.34,4.23,3.62,11.62,7.27,16.46h7.24c-1.16,0-2.67-3-4-6.34-1.24-3.1-3.36-8.89-2.89-18.9.36-7.79,1.91-9.27,7.23-30.78,2.35-9.52,2.67-11.52,1.81-14.31C44.59,269.3,34.07,265.53,28.62,263.94Z" fill="#4d1b9b"/><path d="M28.44,194.51c-1.82.6-7,2.38-9.76,7.24-4.09,7.11-1.25,17.54,4.7,22.05,3.29,2.5,6.3,2.24,10.13,2.9,17.77,3,20.11,20.07,43,29.64,10.79,4.51,14.14,2.35,15.19,1.45,2-1.71,2.43-4.7,2.17-8.68-1-15.38-11.49-27.92-12.66-29.28C70.32,207.07,47.31,188.31,28.44,194.51Z" fill="#6128b2"/><path d="M463,191.77c0-.08.24-2.2,1.78-13.14.59-4.2,1.19-8.67,1.78-12.87a28.76,28.76,0,0,0-6.17-10.57c-6.21-6.62-14.27-8.34-20.63-9.45-20.31-3.52-40.79-4.21-51.35-4.36a35.33,35.33,0,0,0-11.57-2.18c-7.39-.16-24.45-3-57.5-4-17.46-.5-39.19-.45-63.88,1.08a33.13,33.13,0,0,1-5.32,4V268.22H422.38C452.41,212.47,462,198.73,463,191.77Z" fill="#7d38ce"/><path d="M460.22,192.88c-.5,3.55-3.26,10.48-9.81,22.84-6.85-8.39-14.38-14.33-22.12-16.87-5-1.65-17.1-1.1-41.22,0-41.48,1.9-51.48,5.74-72,5.79-39,.09-52.83-13.72-69.8-16.19v-46a48.18,48.18,0,0,0,6.35-4c24.69-1.53,46.72-1.58,64.19-1.09,33,1,50.48,3.82,57.86,4a35.65,35.65,0,0,1,6.69.72,38.3,38.3,0,0,1,5.16,1.44c10.56.14,31.08.8,51.4,4.33,6.36,1.1,14.43,2.76,20.64,9.37a28.51,28.51,0,0,1,6.19,10.44q-.88,6.32-1.78,12.61C460.45,191.21,460.23,192.8,460.22,192.88Z" fill="#7542c6"/><path d="M243.48,136.3c-24.7-1.53-45.67-1.58-63.14-1.09-33,.95-50,3.82-57.33,4a34.77,34.77,0,0,0-6.43.72,35.34,35.34,0,0,0-5,1.44c-10.56.14-31,.8-51.33,4.33-6.36,1.1-14.41,2.76-20.62,9.38a28.47,28.47,0,0,0-6.17,10.43c.5,3.5,1,7,1.49,10.49a27.83,27.83,0,0,1,4.69-6.82c6.21-6.62,14.27-8.28,20.63-9.38,20.31-3.53,40.79-4.18,51.35-4.33a36.17,36.17,0,0,1,5.06-1.44,35.37,35.37,0,0,1,6.51-.72c7.39-.16,24.45-3,57.5-4,17.46-.5,38.11-.45,62.81,1.08,1.68,1.33,1.81,2.65,4.23,4v-14.1C245.29,139,245.16,137.63,243.48,136.3Z" fill="#6128b2"/><path d="M255.69,150.4c24.69-1.53,46.33-1.58,63.79-1.08,33,.94,50.28,3.81,57.66,4a36,36,0,0,1,6.6.72,37,37,0,0,1,5.1,1.44c10.57.15,31.06.8,51.38,4.33,6.36,1.1,14.42,2.76,20.63,9.38a27.89,27.89,0,0,1,4.7,6.82c.49-3.49,1-7,1.48-10.49a28.47,28.47,0,0,0-6.17-10.43c-6.21-6.62-14.27-8.28-20.63-9.38-20.31-3.53-40.79-4.19-51.35-4.33a37,37,0,0,0-5.08-1.44,35.36,35.36,0,0,0-6.53-.72c-7.38-.16-24.48-3-57.53-4-17.46-.49-39.36-.44-64.05,1.09a36.11,36.11,0,0,1-5.56,4v14.1A36.11,36.11,0,0,0,255.69,150.4Z" fill="#6128b2"/><path d="M440.14,327.8a15.66,15.66,0,0,0-1-4.77l-10.19-25.72H70L60.72,323a16.43,16.43,0,0,0-.94,4.7l-.88,16.45c.15,2.65,4.51,4,7.16,4h367.2c2.9,0,7.67-1.35,7.84-4Z" fill="#6128b2"/><path d="M392.73,253.09a300.8,300.8,0,0,0-41.94-5.42,305.43,305.43,0,0,0-98.35,10.48c.24,1.81-1.69,3.62-1.44,5.43l175,.36c-1.33-1.81-3.74-3.62-5.06-5.43Z" fill="#8f58dd"/><path d="M481,224.16l6.51,18.44c.24,1.29.41,3.29-.73,4.7-1.74,2.17-5.06,1.06-6.51,2.9-1.75,2.21.71,6.85,1.09,7.59,3.39,6.57,3.83,18.6,4.7,42.67.36,9.81-1.21,27.17-15.19,51l-32.9-.36a37.78,37.78,0,0,0,4-14.1c.39-5.36-.47-10.26-5.43-25.31-3.32-10.08-4.4-12.35-5.78-16.64-.47-1.47-7.34-23.25-4.34-36.52C430.27,241.24,453.18,228.41,481,224.16Z" fill="#6128b2"/><path d="M465.77,191.26c-7-1.79-20.87-3.24-32.54,0-26,7.21-38.07,32.23-42.75,45.37a10.7,10.7,0,0,0,4.18,12.52l13.62,9c3-3.71,7.32-9,12.66-15.18,14.27-16.63,21.53-25,27.48-28.21s11.38-4.5,23.5-11.57c2.77-1.61,6.09-1.93,7.59-2.89C474.21,197.65,471.07,193.91,465.77,191.26Z" fill="#8f58dd"/><path d="M471.38,263.94c.54,2.3,1.37,6.1,2.08,10.84,4.54,30.31-2.52,52.23-4,57-1.34,4.23-3.62,11.62-7.27,16.46h-7.24c1.16,0,2.67-3,4-6.34,1.24-3.1,3.36-8.89,2.89-18.9-.36-7.79-1.91-9.27-7.23-30.78-2.35-9.52-2.67-11.52-1.81-14.31C455.41,269.3,465.93,265.53,471.38,263.94Z" fill="#4d1b9b"/><path d="M471.56,194.51c1.82.6,7,2.38,9.76,7.24,4.09,7.11,1.25,17.54-4.7,22.05-3.29,2.5-6.3,2.24-10.13,2.9-17.77,3-20.11,20.07-43,29.64-10.79,4.51-14.14,2.35-15.19,1.45-2-1.71-2.43-4.7-2.17-8.68,1-15.38,11.49-27.92,12.66-29.28C429.68,207.07,452.69,188.31,471.56,194.51Z" fill="#6128b2"/><path d="M70,269.7l-4.14,19.91a6.67,6.67,0,0,0,6.64,7.95H244.3a4.69,4.69,0,0,0,4.7-4.7V266.47a4.69,4.69,0,0,0-4.7-4.7l-164.41,0A10.08,10.08,0,0,0,70,269.7Z" fill="#7d38ce"/><path d="M430,269.7l4.14,19.91a6.67,6.67,0,0,1-6.64,7.95H255.7a4.69,4.69,0,0,1-4.7-4.7V266.47a4.69,4.69,0,0,1,4.7-4.7l164.41,0A10.08,10.08,0,0,1,430,269.7Z" fill="#7d38ce"/><rect x="70.02" y="297.56" width="357.96" height="5.06" fill="#5220a0"/><path d="M132.31,198.06,127,195.62l2-5.49-5.22,2.64-3-5-1.2,5.72-5.8-.73,3.73,4.5-4.19,4.08,5.85-.12.57,5.83,3.56-4.65,4.9,3.19-1.41-5.68Zm-9.56,2.33a3,3,0,1,1,3-3A3,3,0,0,1,122.75,200.39Z" fill="#6128b2"/><path d="M207.16,207.81l-5.32-2.44,2-5.49-5.22,2.63-3-5-1.19,5.72-5.8-.74,3.73,4.51-4.2,4.07L194,211l.57,5.82,3.56-4.64,4.91,3.19-1.41-5.68Zm-9.57,2.33a3,3,0,1,1,3-3A3,3,0,0,1,197.59,210.14Z" fill="#6128b2"/><path d="M365.92,199.91l-1.41,5.68,4.91-3.19,3.56,4.65.57-5.83,5.84.12-4.19-4.08,3.73-4.5-5.8.73-1.19-5.72-3,5-5.22-2.64,2,5.49-5.32,2.44Zm1-2.54a3,3,0,1,1,3,3A3,3,0,0,1,366.91,197.37Z" fill="#6128b2"/><path d="M291.07,209.66l-1.41,5.68,4.91-3.19,3.56,4.64.57-5.82,5.85.11-4.2-4.07,3.74-4.51-5.81.74-1.19-5.72-3,5-5.22-2.63,2,5.49-5.32,2.44Zm1-2.55a3,3,0,1,1,3,3A3,3,0,0,1,292.06,207.11Z" fill="#6128b2"/></svg>