<svg xmlns="http://www.w3.org/2000/svg" viewBox="0 0 500 500"><path d="M401.56,206.83,437,219.94s8.41,2,7.14,10.28-17.61,52.54-17.61,52.54l-9.66-.26-19.57-48.27,3.6-27.94" fill="#6e31c4"/><path d="M404.79,239.15l-7.05-106.94s-.62-8.22-10.32-8.35H258.75s-7.8.06-7.77,9.54l-.32,117.13,152.52.2,1.55-8.77" fill="#7d38ce"/><path d="M98,206.67,62.53,219.78s-8.41,2-7.14,10.28S73,282.6,73,282.6l9.66-.26,19.57-48.27-3.6-27.94" fill="#6e31c4"/><path d="M95.36,239.09l7.06-107s.61-8.22,10.31-8.35H241.4s7.81.07,7.77,9.54l.33,117.14L97,250.66l-1.55-8.77" fill="#7d38ce"/><path d="M96,216.08s61.62,26.6,152.65,4.38l.26,26.43h-155Z" fill="#6128b2"/><path d="M403.89,216.08s-61.63,26.6-152.65,4.38L251,246.89H406Z" fill="#6128b2"/><rect x="57.58" y="322.7" width="375.96" height="22.69" fill="#fcd2b1"/><polygon points="55.65 334.18 52.23 370.6 64.67 370.66 74.08 334.11 55.65 334.18" fill="#fcd2b1"/><polygon points="442.5 334.18 445.92 370.6 433.48 370.66 424.07 334.11 442.5 334.18" fill="#fcd2b1"/><path d="M30.34,219.33,64.19,208.4a7.89,7.89,0,0,0,5.41-4.06c1.94-3.58,26.6-2.13,27.56,1.55L60.32,220.78s-6.77,3-4.93,9.28l-31.72.39S22.9,221.46,30.34,219.33Z" fill="#8d56db"/><path d="M470.4,219.91,436.55,209a7.89,7.89,0,0,1-5.41-4.06c-1.94-3.58-26.6-2.12-27.56,1.55l36.84,14.89s6.77,3,4.93,9.28l31.72.39S477.84,222,470.4,219.91Z" fill="#8d56db"/><path d="M431.46,206a59.66,59.66,0,0,0-28,.13l-.9-1L399,148s12-3,23.72-.32l.84.38,6.64,54.48S430.88,205.44,431.46,206Z" fill="#7d38ce"/><path d="M68.54,206a59.66,59.66,0,0,1,28,.13l.9-1L101,148s-12-3-23.72-.32l-.84.38-6.64,54.48S69.12,205.44,68.54,206Z" fill="#7d38ce"/><polygon points="71.63 282.28 76.66 296.98 422.65 297.56 427.1 282.09 402.73 282.09 253.23 246.76 244.53 246.89 79.31 281.96 71.57 281.89 71.63 282.28" fill="#6128b2"/><path d="M27.83,221.17s1.5-1.07,11-1.36,13.83,2.86,15.43,8L76.4,294.72s7.1-6.19,32.88-6.44l147.63.13,5.28,46.15-209.52,0-29.13-103S22.19,224.07,27.83,221.17Z" fill="#7d38ce"/><path d="M76.4,295.63a1.16,1.16,0,0,1-1.1-.81L54.54,230.61c-.91-2.69-.91-8.58,5.67-11.47l36.42-13.69a1.16,1.16,0,1,1,.81,2.17L61.08,221.29c-6.19,2.72-4.41,8.36-4.33,8.6l20.76,64.22a1.16,1.16,0,0,1-.75,1.46A1.13,1.13,0,0,1,76.4,295.63Z" fill="#6128b2"/><path d="M52.36,334.56a1.16,1.16,0,0,1-1.12-.84L23,233.61v-.06c-2.21-12.52,4.85-14.71,5.66-14.92l34.84-11.14a8.21,8.21,0,0,0,5.84-6.6l6.06-52.77a1.16,1.16,0,0,1,2.31.27l-6.06,52.73a10.42,10.42,0,0,1-7.45,8.58l-35,11.18c-.23.06-5.81,1.56-3.95,12.21l28.22,100a1.17,1.17,0,0,1-.81,1.43A1.1,1.1,0,0,1,52.36,334.56Z" fill="#6128b2"/><path d="M472.17,221.17s-1.5-1.07-11-1.36-13.83,2.86-15.43,8L423.6,294.72s-7.1-6.19-32.88-6.44l-147.63.13-5.28,46.15,209.52,0,29.13-103S477.81,224.07,472.17,221.17Z" fill="#7d38ce"/><path d="M423.6,295.63a1.16,1.16,0,0,0,1.1-.81l20.76-64.21c.91-2.69.92-8.58-5.67-11.47l-36.42-13.69a1.16,1.16,0,0,0-.81,2.17l36.36,13.67c6.19,2.72,4.41,8.36,4.33,8.6l-20.76,64.22a1.16,1.16,0,0,0,.75,1.46A1.13,1.13,0,0,0,423.6,295.63Z" fill="#6128b2"/><path d="M447.64,334.56a1.16,1.16,0,0,0,1.12-.84L477,233.61v-.06c2.21-12.52-4.85-14.71-5.66-14.92l-34.84-11.14a8.21,8.21,0,0,1-5.84-6.6l-6.06-52.77a1.16,1.16,0,0,0-2.31.27l6.06,52.73a10.42,10.42,0,0,0,7.45,8.58l35,11.18c.23.06,5.81,1.56,3.95,12.21l-28.22,100a1.17,1.17,0,0,0,.81,1.43A1.1,1.1,0,0,0,447.64,334.56Z" fill="#6128b2"/><rect x="249.27" y="131.43" width="1.45" height="122.81" fill="#1c9899"/><path d="M248.56,250.76l-.32-117.13c0-8.57-6.72-8.77-7-8.77H112.57c-8.84.11-9.52,7.32-9.54,7.63L96,239.43l-1.55-.1,7.06-107c0-.1.79-8.93,11.08-9.07H241.24c.1,0,8.58.19,8.55,10.32l.32,117.13Z" fill="#6128b2"/><path d="M251.59,250.82l.32-117.13c0-8.57,6.72-8.77,7-8.77H387.58c8.84.12,9.52,7.33,9.55,7.63l7.05,106.94,1.55-.1-7.06-106.95c0-.09-.79-8.93-11.08-9.07H258.91c-.09,0-8.58.19-8.54,10.32L250,250.82Z" fill="#6128b2"/><path d="M65.63,247.66a1.21,1.21,0,0,0-.62,1.45c.34,1,9.14,30.27,9.14,30.27s.1.82,1.45,1.16l.87.34,170.91.29s2.18-.15,2.18-4.88l-.05-27.51a1.39,1.39,0,0,0-1-1.36c-1.12-.43-20.07-.72-20.07-.72l-162,.29Z" fill="#7d38ce"/><path d="M76.52,282.57a9.75,9.75,0,0,0,8.89,5.66l146.12,0s10.78.53,15.32-6L76.61,281.7Z" fill="#6128b2"/><path d="M249,281.6a1.07,1.07,0,0,1-1.06,1.07H75.59a1.06,1.06,0,0,1-1-1.07h0a1.06,1.06,0,0,1,1-1.06H248A1.07,1.07,0,0,1,249,281.6Z" fill="#6128b2"/><path d="M434.52,247.66a1.21,1.21,0,0,1,.62,1.45c-.34,1-9.14,30.27-9.14,30.27s-.09.82-1.45,1.16l-.87.34-170.91.29s-2.18-.15-2.18-4.88l0-27.51a1.39,1.39,0,0,1,1-1.36c1.12-.43,20.07-.72,20.07-.72l162,.29Z" fill="#7d38ce"/><path d="M423.63,282.57a9.75,9.75,0,0,1-8.89,5.66l-146.11,0s-10.79.53-15.33-6l170.24-.58Z" fill="#6128b2"/><path d="M251.12,281.6a1.07,1.07,0,0,0,1.06,1.07H424.56a1.07,1.07,0,0,0,1.06-1.07h0a1.07,1.07,0,0,0-1.06-1.06H252.18a1.07,1.07,0,0,0-1.06,1.06Z" fill="#6128b2"/><path d="M66.22,245.79s2.71-8.83,42.29-9.09,120.29,0,120.29,0,13.41-1.29,19.47,10.06l-182.7-.26" fill="#8d56db"/><path d="M249.56,246.7a1,1,0,0,1-1,1h-183a1,1,0,0,1-1-1h0a1,1,0,0,1,1-1h183a1,1,0,0,1,1,1Z" fill="#6128b2"/><path d="M433.93,245.79s-2.71-8.83-42.29-9.09-120.29,0-120.29,0-13.41-1.29-19.47,10.06l182.7-.26" fill="#8d56db"/><path d="M250.59,246.7a1,1,0,0,0,1,1h183a1,1,0,0,0,1-1h0a1,1,0,0,0-1-1h-183a1,1,0,0,0-1,1Z" fill="#6128b2"/><path d="M256.2,242.25s12.7-1.35,18.31-2.32,52.41.39,52.41.39,54.15-.19,58-.19,5.61,0,9.48.19,13.34,2.13,18.37,2.13,7.93,1.74,6.77-4.06,1.55-13.16,1.55-13.16l1-16-3.28-8.7-48,1.16-24.17,7.16-9.09,4.06-22.82,6-34,6.58-11,5.41-13.35,8.51" fill="#6128b2"/><path d="M326.21,191.65s5.22-21.86,6.19-27.08-.77-10.25,1.35-11.41S338,152,342.46,153s30.17,6.77,80.84,6.19l7.35-.39s7.15-1.26,8.8,1.35,1.35,4.94-.49,7.93-1.93,6.58-4.35,11.7-14.79,35-15.37,38.2-1.55,9.48-1.65,10.35a25.35,25.35,0,0,0,1.07,5.12,22.11,22.11,0,0,1,.58,6.48c-.2,1.64-17-2.61-33.56-2.32s-51.63-21.27-51.63-21.27Z" fill="#6128b2"/><path d="M439.45,160.12c-.62-1-2-1.41-3.5-1.57,3.69,1.68,1.72,4.2,1.72,6.47s-9.92,16.12-16.11,28.88-8.25,20.25-9.16,27.21-2.32,8.89-6.57,8.77-13.93,1.28-13.93,1.28l-15.34-6.31-12.38-2.58s-20.11-2.06-20.88-2.32c-.23-.08-2.35-.58-5.29-1.3,9.66,5.58,34.53,19.16,47.67,18.93,16.54-.29,33.36,4,33.56,2.32a22.11,22.11,0,0,0-.58-6.48,25.35,25.35,0,0,1-1.07-5.12c.1-.87,1.07-7.16,1.65-10.35s12.95-33.07,15.37-38.2,2.52-8.7,4.35-11.7S441.09,162.73,439.45,160.12Z" fill="#4f1f9b"/><path d="M271.74,185.78s8,4.38,15.73,4.51,15.21,1.81,49.12-.51,40.87-3,40.87-3,16.63-1.8,23.08-3.35c0,0,5.29-1,4.26,3.61,0,0-11.35,29.91-12.25,40.23,0,0-.39,7.09.13,8.89s.64,3-.13,3-120.42-1.94-120.42-1.94-12.25,2.71-16,5c0,0-1.36.29-1.21-1.31a3.82,3.82,0,0,1,.18-.88c.77-2.58,4.38-7.61,5.67-12.76s6.19-20.12,6.7-25.4.91-12.64.91-12.64S267.36,183.72,271.74,185.78Z" fill="#b791f2"/><path d="M397.77,193.13c-4.13,6.06-6.19,23.72-8.12,28.75s-5.93,6.19-11,5.93-10.19,0-14.57,0-51.45,2.71-66.27,1.94-22.57.64-31.46,3a17.35,17.35,0,0,0-11.31,9,1,1,0,0,0,1.12.53c3.74-2.32,16-5,16-5s119.65,1.94,120.42,1.94.65-1.16.13-3-.13-8.89-.13-8.89c.9-10.32,12.25-40.23,12.25-40.23a3.82,3.82,0,0,0,0-2C403.76,185.45,401.06,188.3,397.77,193.13Z" fill="#9a62e8"/></svg>