<svg xmlns="http://www.w3.org/2000/svg" viewBox="0 0 500 500"><rect x="125.03" y="187.99" width="249.57" height="131.84" fill="#4a494d"/><rect x="27.3" y="265.87" width="444.88" height="90.61" rx="3.77" fill="#939299"/><path d="M66.87,188H98.57a0,0,0,0,1,0,0V228.2a0,0,0,0,1,0,0H59.37a0,0,0,0,1,0,0V195.49A7.5,7.5,0,0,1,66.87,188Z" fill="#939299"/><rect x="39.01" y="356.48" width="52.43" height="11.2" fill="#fcd2b1"/><rect x="406.01" y="356.48" width="52.43" height="11.2" fill="#fcd2b1"/><polygon points="30.36 267.27 81.26 248.82 423.83 248.82 467.59 267.38 30.36 267.27" fill="#bebec2"/><polygon points="34.17 235.15 65.22 226.03 101.6 226.03 87.37 235.15 34.17 235.15" fill="#bebec2"/><polygon points="83.87 235.33 86.58 258.74 100.26 250.6 100.26 225.92 83.87 235.33" fill="#6e6e73"/><path d="M404.49,188h39.19a0,0,0,0,1,0,0V228.2a0,0,0,0,1,0,0H412a7.5,7.5,0,0,1-7.5-7.5V188A0,0,0,0,1,404.49,188Z" transform="translate(848.17 416.19) rotate(180)" fill="#939299"/><rect x="253.31" y="148.8" width="151.18" height="104.86" rx="4.07" transform="translate(657.8 402.45) rotate(180)" fill="#bebec2"/><path d="M255.23,152.35v87.48c0,4.49,5.53,9,10,9H400.15c2.73,0,5.5-2.2,7.77-4.26v1.1c0,4.5-4.8,7.72-9.3,7.72H263.73c-4.5,0-10.78-3.22-10.78-7.72V157.09C253,155.32,253,153.69,255.23,152.35Z" fill="#939299"/><polygon points="468.88 235.15 437.83 226.03 403.74 228.31 415.69 237.43 468.88 235.15" fill="#bebec2"/><polygon points="417.04 235.33 417.04 258.74 403.37 250.6 403.37 228.2 417.04 235.33" fill="#6e6e73"/><rect x="98.57" y="148.8" width="151.18" height="104.86" rx="4.07" fill="#bebec2"/><path d="M245.94,152.35v87.48a9,9,0,0,1-9,9H107.29c-2.73,0-9.48-2.2-9.48-4.26v1.1a7.72,7.72,0,0,0,7.72,7.72H242.81a7.69,7.69,0,0,0,7.69-7.69v-88.6C250.5,155.32,248.22,153.69,245.94,152.35Z" fill="#939299"/><rect x="30.36" y="235.33" width="57.37" height="24.94" rx="1.98" fill="#939299"/><rect x="417.04" y="235.33" width="55.66" height="24.94" rx="1.98" transform="translate(889.74 495.6) rotate(180)" fill="#939299"/></svg>