<svg xmlns="http://www.w3.org/2000/svg" viewBox="0 0 500 500"><polygon points="238.32 339.14 243.43 357.79 249.76 357.79 249.76 339.14 238.32 339.14" fill="#fcd2b1"/><polygon points="261.19 339.14 256.08 357.79 249.76 357.79 249.76 339.14 261.19 339.14" fill="#bd9e85"/><path d="M34.79,212.82l16.32-15.71s13.91-13,35.82-6.22l-1.48,56.18L57.77,259" fill="#6f34c1"/><path d="M206.82,144.87c-3.31-4.07-9.11-1.89-9.11-1.89S183,148.44,173,149.22s-36.56,1.5-37.22,1.52v0s-27.32-.8-37.25-1.6-24.67-6.28-24.67-6.28-5.79-2.19-9.1,1.87c-2.94,3.6.47,12.46,2,16.62,1.7,4.93,1.41,14.94,1.41,14.94a422.36,422.36,0,0,0,1.57,67.29c-.2,5.44.28,11.5,3.2,12.81,0,0,5.38,2.23,14.33-2.81,0,0,4.07-2.34,12.34-2.09s22.4,1.19,36.05,1.32v0c13.66-.1,27.82-1,36.09-1.25s12.34,2.12,12.34,2.12c8.94,5.05,14.32,2.83,14.32,2.83,5.55-2.46,2.34-22,2.34-22s-.46-37.21-.12-51.13,2.67-17.35,3.67-20.48S210.13,148.94,206.82,144.87Z" fill="#a5807e"/><path d="M210.69,219.66c-.55-.9.58-24.38-1-30.12s-10.91-25.13-11.39-25.8c-.25-.36-3.59-6-7.05-10.69h0c-.36-1.89-.71-4.63-.74-4.91s-3.59-1.75-3.59-1.75l-2.62.8-.47.13c-2.54,3.81,2.63,25.66,2.63,25.66-.94,11.87,2,46.33,2.1,61.4s-1.18,17.22-1.18,17.22C172.62,241,152.2,234,118.63,234.91a131,131,0,0,0-26.18,3.23C71,244.4,64.32,256.55,62.38,262a32.26,32.26,0,0,0-1.52,7.46l4.71-1.69-.29,2.37H195c4-7.22,11.73-21.14,11.81-21.73C206.9,247.56,211.24,220.57,210.69,219.66Z" fill="#876767"/><path d="M462.62,212.82,446.3,197.11s-13.92-13-35.82-6.22L412,247.07,439.64,259" fill="#6f34c1"/><path d="M293.37,144.87c3.31-4.07,9.11-1.89,9.11-1.89s14.74,5.46,24.67,6.24,36.56,1.5,37.23,1.52v0s27.31-.8,37.24-1.6,24.67-6.28,24.67-6.28,5.79-2.19,9.1,1.87c2.94,3.6-.47,12.46-2,16.62-1.7,4.93-1.4,14.94-1.4,14.94a421.63,421.63,0,0,1-1.58,67.29c.2,5.44-.28,11.5-3.2,12.81,0,0-5.38,2.23-14.33-2.81,0,0-4.06-2.34-12.34-2.09s-22.4,1.19-36.05,1.32v0c-13.66-.1-27.82-1-36.09-1.25s-12.34,2.12-12.34,2.12c-8.93,5.05-14.32,2.83-14.32,2.83-5.55-2.46-2.34-22-2.34-22s.46-37.21.12-51.13-2.67-17.35-3.66-20.48S290.07,148.94,293.37,144.87Z" fill="#a5807e"/><path d="M412.57,253.77h22.17c-4.34-5.44-12.06-11.7-25.71-15.63a133.77,133.77,0,0,0-26.46-3.23C348.63,234,328,241,313.1,251.6c0,0-1.26-2.14-1.19-17.22S315,184.85,314,173c0,0,5.23-21.85,2.67-25.66l-.48-.13-2.65-.8s-3.59,1.47-3.63,1.75-.38,3-.75,4.91h0c-3.5,4.67-6.87,10.33-7.12,10.69-.48.67-9.89,20.06-11.52,25.8s-.49,29.21-1,30.12,3.83,27.9,3.95,28.71c.09.59,7.88,14.51,11.94,21.73H412.57Z" fill="#876767"/><polygon points="444.08 338.25 448.82 357.79 461.99 357.79 468.65 338.25 444.08 338.25" fill="#fcd2b1"/><polygon points="455.33 338.25 455.33 357.79 461.99 357.79 468.65 338.25 455.33 338.25" fill="#bd9e85"/><polygon points="55.4 338.25 50.67 357.79 37.49 357.79 30.83 338.25 55.4 338.25" fill="#bd9e85"/><polygon points="44.15 338.25 44.15 357.79 37.49 357.79 30.83 338.25 44.15 338.25" fill="#fcd2b1"/><rect x="58.34" y="262.49" width="391.93" height="76.84" fill="#6128b2"/><path d="M494.35,228.15s-13.43-16.39-42.52-15.51c0,0-22.87-.18-23.9,37.56l9.17,40.24h5Z" fill="#8d56db"/><path d="M4.36,227.58s13.43-16.4,42.51-15.51c0,0,22.87-.18,23.91,37.56L61.6,289.87h-5Z" fill="#8d56db"/><path d="M311.27,157.45c.89-3.07,5.18-13.68,2.22-17.67s-8.14-1.85-8.14-1.85-13.18,5.38-22.06,6.15-32.68,1.52-33.27,1.54v0s-24.42-.77-33.3-1.54-22.06-6.15-22.06-6.15-5.18-2.15-8.14,1.85,1.33,14.6,2.22,17.67,3,6.45,3.26,20.13-.15,50.25-.15,50.25S189,247,193.92,249.46c0,0,4.81,2.19,12.81-2.76,0,0,3.63-2.31,11-2.08s20,1.16,32.23,1.27v0c12.21-.11,24.87-1,32.26-1.27s11,2.08,11,2.08c8,5,12.81,2.76,12.81,2.76,5-2.42,2.07-21.66,2.07-21.66s-.44-36.58-.15-50.25S310.38,160.52,311.27,157.45Z" fill="#bca797"/><path d="M311.27,157.45c.89-3.07,5.18-13.68,2.22-17.67s-8.14-1.85-8.14-1.85-11.31,4.62-20,5.91h1.06c7.16-.6,18.19-3.3,21.75-2.56s-2.85,12.29-3.71,16.14-.42,12.87-.14,22.05-.43,39.52-.71,45.88,1.71,11.4,1.71,17-5.13,3-5.13,3c-17.81-6.07-49.86-6.07-49.86-6.07h-.18s-32.06,0-49.87,6.07c0,0-5.13,2.51-5.13-3s2-10.58,1.71-17-1-36.7-.71-45.88.71-18.2-.14-22.05-7.27-15.39-3.71-16.14,14.59,2,21.75,2.56h.89c-8.75-1.25-20.23-5.94-20.23-5.94s-5.18-2.15-8.14,1.85,1.33,14.6,2.22,17.67,3,6.45,3.26,20.13-.15,50.25-.15,50.25S189,247,193.92,249.46c0,0,4.81,2.19,12.81-2.76,0,0,3.63-2.31,11-2.08s20,1.16,32.23,1.27v0c12.21-.11,24.87-1,32.26-1.27s11,2.08,11,2.08c8,5,12.81,2.76,12.81,2.76,5-2.42,2.07-21.66,2.07-21.66s-.44-36.58-.15-50.25S310.38,160.52,311.27,157.45Z" fill="#ad998c"/><path d="M440.06,311.79c0,.49-.78.89-1.76.89H61.73c-1,0-1.76-.4-1.76-.89v-2.07c0-.49.79-.89,1.76-.89H438.3c1,0,1.76.4,1.76.89Z" fill="#8d56db"/><path d="M438.1,297H62.3a.93.93,0,0,0-.89,1v9.92a.93.93,0,0,0,.89,1H438.1a.93.93,0,0,0,.89-1V298A.93.93,0,0,0,438.1,297Z" fill="#6f34c1"/><path d="M437,312.68H63.09c-.93,0-1.68.4-1.68.89v24.86c0,.5.75.89,1.68.89H437c.93,0,1.68-.39,1.68-.89V313.57C438.68,313.08,437.93,312.68,437,312.68Z" fill="#6f34c1"/><rect x="59.97" y="309.72" width="380.09" height="2.07" fill="#6128b2"/><path d="M229.32,295.74h75.2c7.52-.35,8.23-5.29,8.24-5.3H187.21s.76,5.3,9,5.3Z" fill="#a39585"/><path d="M193.92,249.46s16.69-16.23,57.76-15.78S305.93,250,305.93,250" fill="#938279"/><path d="M312.63,261.51s-2.74-13.36-15-15.58-37.09-3.25-47.62-3.11c-10.53-.14-35.35.89-47.62,3.11s-15,15.58-15,15.58v.57s33.74.06,54.64.25c-.1.24-.17.36-.17.32s3.18-.17,8.18-.24,8.18.15,8.18.24-.06-.08-.17-.32c20.9-.19,54.64-.25,54.64-.25Z" fill="#c3bdb7"/><rect x="187.24" y="262.65" width="125.51" height="26.64" fill="#a39585"/><path d="M313.19,289.87a.59.59,0,0,1-.61.57H187.21a.58.58,0,0,1-.6-.57h0a.58.58,0,0,1,.6-.57H312.58a.59.59,0,0,1,.61.57Z" fill="#938279"/><path d="M313.31,262.08a.59.59,0,0,1-.61.57H187.33a.58.58,0,0,1-.6-.57h0a.58.58,0,0,1,.6-.57H312.7a.59.59,0,0,1,.61.57Z" fill="#938279"/><path d="M427.37,246.78a5.64,5.64,0,0,1,.71.12c2.46.56,10.79,3.41,15.19,16.89,0,0-3.08,18-2.95,26.1l-11.57-3.35" fill="#6f34c1"/><path d="M72.65,247.33s-.26,0-.7.13c-2.47.56-10.79,3.4-15.2,16.88,0,0,3.09,18.05,3,26.1l11.58-3.35" fill="#6f34c1"/><path d="M439.33,261.51s-2.74-13.36-15-15.58-37.09-3.25-47.62-3.11c-10.53-.14-35.35.89-47.62,3.11s-15,15.58-15,15.58v.57s33.74.06,54.64.25c-.11.24-.17.36-.17.32s3.18-.17,8.18-.24,8.18.15,8.18.24-.07-.08-.18-.32c20.91-.19,54.64-.25,54.64-.25Z" fill="#c3bdc6"/><path d="M356,295.74h75.19c7.52-.35,8.24-5.29,8.24-5.3H313.92s.76,5.3,9,5.3Z" fill="#9b7b80"/><rect x="313.95" y="262.65" width="125.51" height="26.64" fill="#9b7b80"/><path d="M439.9,289.87a.59.59,0,0,1-.61.57H313.92a.59.59,0,0,1-.61-.57h0a.59.59,0,0,1,.61-.57H439.29a.59.59,0,0,1,.61.57Z" fill="#82676c"/><path d="M440,262.08a.59.59,0,0,1-.61.57H314a.59.59,0,0,1-.61-.57h0a.59.59,0,0,1,.61-.57H439.41a.59.59,0,0,1,.61.57Z" fill="#82676c"/><path d="M494.64,227s-25.56-16.22-38.14,2.53S440.33,268.19,440,296.77v42.55h30.84S471.4,279.06,494.64,227Z" fill="#6128b2"/><path d="M495.64,227.58s-25.27-16.14-37.7,2.51-16,38.48-16.28,66.9v42.33h30.49S472.67,279.38,495.64,227.58Z" fill="#6f34c1"/><path d="M186,261.51s-2.75-13.36-15-15.58-37.09-3.25-47.62-3.11c-10.53-.14-35.35.89-47.62,3.11s-15,15.58-15,15.58v.57s33.74.06,54.64.25c-.11.24-.17.36-.17.32s3.18-.17,8.18-.24,8.18.15,8.18.24-.07-.08-.18-.32c20.91-.19,54.65-.25,54.65-.25Z" fill="#c3bdc6"/><path d="M102.69,295.74h75.19c7.53-.35,8.24-5.29,8.24-5.3H60.58s.76,5.3,9,5.3Z" fill="#9b7b80"/><rect x="60.61" y="262.65" width="125.51" height="26.64" fill="#9b7b80"/><path d="M186.56,289.87a.59.59,0,0,1-.61.57H60.58a.59.59,0,0,1-.61-.57h0a.59.59,0,0,1,.61-.57H186a.59.59,0,0,1,.61.57Z" fill="#82676c"/><path d="M186.68,262.08a.59.59,0,0,1-.61.57H60.7a.59.59,0,0,1-.61-.57h0a.59.59,0,0,1,.61-.57H186.07a.59.59,0,0,1,.61.57Z" fill="#82676c"/><path d="M5.35,227s25.57-16.22,38.15,2.53S59.67,268.19,60,296.77v42.55H29.13S28.6,279.06,5.35,227Z" fill="#6128b2"/><path d="M4.36,227.58s25.27-16.14,37.7,2.51,16,38.48,16.28,66.9v42.33H27.85S27.33,279.38,4.36,227.58Z" fill="#6f34c1"/><path d="M442.39,211.52c.51-2.6,2-14,.89-15.56s-15.1,4.52-15.1,4.52L322.21,252l-.74.12s33.52,5.15,68.43,2.42a4.93,4.93,0,0,0,.63-2.29s21,.74,34,1.42h0s9.21,2.69,13.49,1c3.64-1.45,1.56-9.49.81-12.31.36-3.62.75-7.33.76-9.44C439.64,228.92,441.87,214.11,442.39,211.52Z" fill="#3a0915" opacity="0.5"/><path d="M351.38,174.79s-2.57-9,0-11.07,5.94-1.13,9.63.64l3.69,1.85s3.13,1.76,33.62,2l36.51.45s5.46,0,8-1.41,12.55-2.41,7.94,8.7c0,0-5.74,9.15-7.06,15.05s-3.85,30.09-6.74,46.94a12.16,12.16,0,0,0,.12,4.82c.6,2.64,1.69,7.82.12,9.5s-2.77,2.77-10.95,0-23.11-2-38.76-3.24-36.71-2.77-36.71-2.77a25.92,25.92,0,0,0-6.62.84c-2.41.84-8.39-1.85-4.53-10.19s3.69-7.38,4.33-9.31a78.75,78.75,0,0,0,4.17-19.34c1-10.51,3.05-17.25,3.53-23.19A42.59,42.59,0,0,0,351.38,174.79Z" fill="#f5f5f5"/><path d="M442.86,167.25a15.66,15.66,0,0,1-5.73,1.31c-2.55,23.09-12.19,61.13-48.13,61.35-51.62.32-29.6-65.25-29.6-65.25l1.65-.28,0,0c-3.69-1.77-7.06-2.73-9.63-.64s0,11.07,0,11.07a42.59,42.59,0,0,1,.32,10.27c-.48,5.94-2.57,12.68-3.53,23.19A78.75,78.75,0,0,1,344,227.59c-.64,1.93-.48,1-4.33,9.31s2.12,11,4.53,10.19a25.92,25.92,0,0,1,6.62-.84s21.06,1.56,36.71,2.77,30.57.48,38.76,3.24,9.39,1.69,10.95,0,.48-6.86-.12-9.5a12.16,12.16,0,0,1-.12-4.82c2.89-16.85,5.42-41,6.74-46.94S450.8,176,450.8,176C455.41,164.84,445.43,165.8,442.86,167.25Z" fill="#d5d3c7"/><path d="M387.2,168.05s-7.88,3.33-8.12,3.33a3,3,0,0,1-.64-.12l-7.1-4a27.39,27.39,0,0,1-6.43-1l-3.45-1.7c-8.7-.33-10.81,6.94-10.81,6.94.09.49.78,3.56.78,3.56a11.25,11.25,0,0,1,10.87-8.47c1.56.28,14.92,10.35,14.92,10.35l19.95-8.76Z" fill="#414042"/><path d="M399.13,168.22s2.85.43,8,4.44,8.91,6.5,8.91,6.5,16.84-9.21,19.81-10.52l-7.82-.06-10.79,4.85s-7.34-5.08-8.18-5.08Z" fill="#414042"/><path d="M438.44,168.44s5.14,3.86,7.11,9a20.93,20.93,0,0,1,.75,6.7s3.14-6,3.53-6.61c0,0,.13-6.43-7.66-10C442.17,167.57,439.33,168.34,438.44,168.44Z" fill="#414042"/><path d="M351.77,184.18s4.67-8.91,8.44-11.8l14.92,13.48s17.2-10.75,22-12.83c0,0,12.71,9.46,17.6,14.84,0,0,15.49-8.19,22.31-11.64,0,0,4.94,4.68,6,18.47l-.75,5.27s-3.27-12.46-6.5-17.16l-22.9,13.07s-13.06-13.73-17.27-17.34c0,0-16.43,10.6-21.43,15l-15.34-14.37s-6.51,7.14-8.13,12.38C350.76,191.54,351.68,186.41,351.77,184.18Z" fill="#414042"/><path d="M348.63,204.12A63.6,63.6,0,0,1,357.26,189L372,203.28s17.51-12.1,22.2-14.93c0,0,13.12,12.52,17.75,17.58,0,0,15.31-10.48,21.61-12.34,0,0,3.73,4.57,6.56,23.53l-.52,3.87s-4-15.37-7.18-19.58c0,0-13.79,6.44-21.73,13.24l-18.17-19s-16.55,11.92-21.13,16.61L356,196.48a49.12,49.12,0,0,0-7.83,11.77Z" fill="#414042"/><path d="M346.82,217.45s5.26-8.82,7.73-10.92l14.93,15.88,21.72-16.25,18,18.54s13.36-9.69,21.48-13.6c0,0,5.43,7,7.32,20.66l-.44,2.82s-4.77-11.44-7.48-15.66a122.55,122.55,0,0,0-21.85,15.35l-17.93-20.1S372,228.79,368.39,232.22l-15.16-17.63s-5.25,4.34-7.92,8.94C345.31,223.53,346.64,218.35,346.82,217.45Z" fill="#414042"/><path d="M339.46,237.38s7-8.35,11.08-12.32c0,0,13.92,14.12,17.73,17.21l20.26-16.61S406,242.8,408,244.6c0,0,14.69-11.77,21-15,0,0,5.85,8.9,8.19,13.47,0,0,1.36,4.89.64,8,0,0-7-10.33-9.29-12.78,0,0-13.21,7.9-17.94,11.8l-5.74-.25s-14.52-13.45-16.73-15.27l-16.85,13.2-4.77-.36L349,232.84s-7.4,6.35-10,11.64C339,244.48,337.44,242.51,339.46,237.38Z" fill="#414042"/><path d="M345.63,246.71a16.63,16.63,0,0,1,4.23-3.11l4.48,2.91s-3-.27-3.52-.26S346.4,246.53,345.63,246.71Z" fill="#414042"/><path d="M382.39,248.62s4.29-3.42,5.84-4c0,0,5,2.49,7.37,4.9C395.6,249.5,383.27,249,382.39,248.62Z" fill="#414042"/><path d="M420.46,251a34.9,34.9,0,0,1,6.39-1.43,31.67,31.67,0,0,1,6.38,3.66s.89.82,1.45.69c0,0-2.88.53-7.8-1.42C426.88,252.46,421.13,251.05,420.46,251Z" fill="#414042"/><path d="M450.53,167.57h0c2.63,6.18-9.57,16.19-10.55,24.92s-5.72,30.67-6.84,40.62-1.93,12.2-3.05,12.68,0,0-18.13-4.73-42.21-4.42-52.16-4.1-20.51,8.19-20.52,8.19a4.63,4.63,0,0,0,4.83,1.93,25.92,25.92,0,0,1,6.62-.84s21.06,1.56,36.71,2.77,30.57.48,38.76,3.24,9.38,1.69,10.95,0,.48-6.86-.12-9.5a12.16,12.16,0,0,1-.12-4.82c2.89-16.85,5.41-41,6.74-46.94S450.71,176,450.71,176C452.6,171.39,452,168.87,450.53,167.57Z" fill="#231f20" opacity="0.3"/><path d="M389.73,248.93l7.44.6s.06-30.89,1.15-38.76,3.33-17.79.58-18.9-24.62,14.58-24.57,14.87-9.13,12.47-9.94,13.93-2.06,13-2.06,13l3,7.07,11.36,6Z" fill="#414042" opacity="0.4"/><path d="M325.9,198.32s-2.1-6.54-.26-8.13,4.34-1,7.1.25l2.75,1.27s2.34,1.23,24.76.7l26.84-.51s4-.1,5.87-1.22,9.17-2.05,6,6.22c0,0-4,6.86-4.84,11.22s-2.14,22.2-3.88,34.65a9,9,0,0,0,.2,3.54c.5,1.93,1.42,5.71.31,7s-2,2.09-8,.25-17-1-28.56-1.5-27.05-1.19-27.05-1.19a18.68,18.68,0,0,0-4.84.77c-1.75.67-6.21-1.17-3.57-7.39s2.54-5.51,3-6.94A57.76,57.76,0,0,0,324.31,223c.46-7.75,1.84-12.75,2.06-17.12A31.68,31.68,0,0,0,325.9,198.32Z" fill="#414042"/><path d="M393,190.68a11.34,11.34,0,0,1-4.18,1.1c-1.35,17-7.56,45.21-34,46.19-37.93,1.43-23.25-47.28-23.25-47.28l1.2-.24h0c-2.76-1.22-5.26-1.85-7.1-.25s.26,8.13.26,8.13a31.68,31.68,0,0,1,.47,7.55c-.22,4.37-1.6,9.37-2.06,17.12a57.76,57.76,0,0,1-2.63,14.31c-.43,1.43-.33.72-3,6.94s1.82,8.06,3.57,7.39a18.68,18.68,0,0,1,4.84-.77s15.52.66,27.05,1.19,22.48-.35,28.56,1.5,6.94,1,8-.25.19-5.06-.31-7a9,9,0,0,1-.2-3.54c1.74-12.45,3-30.29,3.88-34.65S399,196.9,399,196.9C402.13,188.63,394.81,189.56,393,190.68Z" fill="#231f20" opacity="0.61"/><path d="M352.07,192.54s-5.72,2.64-5.9,2.64a2,2,0,0,1-.47-.07l-5.31-2.79a20.27,20.27,0,0,1-4.75-.56l-2.57-1.17a7.66,7.66,0,0,0-7.79,5.34c.08.36.66,2.61.66,2.61a8.27,8.27,0,0,1,7.79-6.48c1.16.17,11.21,7.26,11.21,7.26l14.46-6.89Z" fill="#fff"/><path d="M360.84,192.4s2.1.25,6,3.08,6.69,4.57,6.69,4.57,12.17-7.15,14.33-8.18l-5.75.13-7.82,3.81s-5.52-3.56-6.14-3.55Z" fill="#fff"/><path d="M389.73,191.66a17.59,17.59,0,0,1,5.44,6.48,15.63,15.63,0,0,1,.71,4.9s2.17-4.44,2.44-4.93c0,0-.05-4.73-5.86-7.17C392.46,190.94,390.39,191.57,389.73,191.66Z" fill="#414042"/><path d="M326.39,205.21s3.23-6.65,5.94-8.86l11.28,9.57s12.39-8.3,15.9-9.94c0,0,9.56,6.66,13.28,10.5,0,0,11.19-6.37,16.13-9.06,0,0,3.74,3.32,4.83,13.44l-.43,3.89s-2.69-9.09-5.17-12.46l-16.54,10.12s-9.91-9.79-13.09-12.34c0,0-11.83,8.16-15.4,11.5l-11.61-10.2s-4.62,5.39-5.69,9.28C325.82,210.65,326.38,206.86,326.39,205.21Z" fill="#fff"/><path d="M324.54,219.94a47.05,47.05,0,0,1,6-11.3l11.12,10.15s12.6-9.29,16-11.48c0,0,9.93,8.9,13.45,12.51,0,0,11-8,15.6-9.56,0,0,2.85,3.27,5.36,17.14l-.29,2.86S388.47,219.05,386,216c0,0-10,5.05-15.66,10.23l-13.8-13.56s-11.89,9.14-15.14,12.69l-11.64-11.23a36.15,36.15,0,0,0-5.48,8.83Z" fill="#fff"/><path d="M323.52,229.78s3.67-6.6,5.43-8.2l11.34,11.33,15.59-12.44,13.65,13.21s9.6-7.43,15.48-10.49c0,0,4.15,5,5.85,15l-.26,2.08s-3.76-8.3-5.85-11.33a89.58,89.58,0,0,0-15.7,11.78L355.4,226.38s-13.11,11.16-15.68,13.77l-11.55-12.62a29.84,29.84,0,0,0-5.62,6.76S323.41,230.45,323.52,229.78Z" fill="#fff"/><path d="M318.57,244.6s4.94-6.29,7.86-9.31c0,0,10.56,10.06,13.43,12.25l14.51-12.68s13.19,12.19,14.73,13.48c0,0,10.53-9,15.1-11.53,0,0,4.51,6.41,6.33,9.72,0,0,1.11,3.56.66,5.89,0,0-5.39-7.44-7.13-9.19,0,0-9.52,6.11-12.91,9.08l-4.23,0s-11-9.56-12.64-10.84l-12.09,10.08-3.51-.15-13.19-10.31s-5.29,4.83-7.11,8.78C318.38,249.83,317.2,248.41,318.57,244.6Z" fill="#fff"/><path d="M323.32,251.32a12.33,12.33,0,0,1,3-2.39l3.37,2s-2.21-.13-2.6-.11S323.88,251.17,323.32,251.32Z" fill="#414042"/><path d="M350.38,251.88a31.13,31.13,0,0,1,4.2-3.09,25.46,25.46,0,0,1,5.53,3.43S351,252.13,350.38,251.88Z" fill="#414042"/><path d="M378.41,252.72a25.2,25.2,0,0,1,4.67-1.19,23,23,0,0,1,4.77,2.54s.67.58,1.08.47c0,0-2.1.46-5.76-.86C383.17,253.68,378.9,252.77,378.41,252.72Z" fill="#414042"/><path d="M398.6,190.75h0c2.08,4.48-6.66,12.12-7.18,18.56s-3.5,22.67-4.1,30-1.13,9-1.95,9.39,0,0-13.43-3.07-31.13-2.27-38.43-1.81-14.89,6.49-14.89,6.49a3.4,3.4,0,0,0,3.59,1.31,18.68,18.68,0,0,1,4.84-.77s15.52.66,27.05,1.19,22.48-.35,28.56,1.5,6.94,1,8-.25.2-5.05-.31-7a9,9,0,0,1-.2-3.53c1.74-12.45,3-30.29,3.88-34.66s4.85-11.22,4.85-11.22C400.21,193.51,399.74,191.66,398.6,190.75Z" fill="#231f20" opacity="0.76"/><path d="M57.89,210.79c-.52-2.59-2-13.94-.89-15.55s15.1,4.52,15.1,4.52l106,51.48.75.13s-33.53,5.14-68.44,2.42a5,5,0,0,1-.63-2.29s-21,.74-34,1.41h0s-9.22,2.7-13.5,1c-3.64-1.46-1.56-9.49-.81-12.31-.36-3.62-.75-7.33-.76-9.44C60.64,228.2,58.41,213.39,57.89,210.79Z" fill="#3a0915" opacity="0.5"/><path d="M148.9,174.07s2.56-9,0-11.07-5.94-1.13-9.63.64l-3.69,1.84s-3.13,1.77-33.62,2l-36.51.45s-5.46,0-8-1.41-12.55-2.41-7.94,8.7c0,0,5.74,9.15,7.06,15.05s3.85,30.09,6.74,46.94a12.12,12.12,0,0,1-.12,4.81c-.6,2.65-1.68,7.83-.12,9.51s2.77,2.77,10.95,0,23.11-2,38.76-3.25,36.71-2.77,36.71-2.77a25.63,25.63,0,0,1,6.62.85c2.41.84,8.39-1.85,4.53-10.2s-3.69-7.38-4.33-9.3a78.75,78.75,0,0,1-4.17-19.35c-1-10.5-3.05-17.24-3.53-23.18A43.23,43.23,0,0,1,148.9,174.07Z" fill="#414042"/><path d="M57.42,166.53a15.66,15.66,0,0,0,5.73,1.31c2.55,23.09,12.19,61.13,48.13,61.35,51.62.32,29.6-65.26,29.6-65.26l-1.65-.28h0c3.69-1.77,7.06-2.73,9.63-.64s0,11.07,0,11.07a43.23,43.23,0,0,0-.32,10.27c.48,5.94,2.57,12.68,3.53,23.18a78.75,78.75,0,0,0,4.17,19.35c.64,1.92.48,1,4.33,9.31s-2.12,11-4.53,10.19a25.63,25.63,0,0,0-6.62-.85s-21.06,1.57-36.71,2.77-30.57.48-38.76,3.25-9.39,1.69-10.95,0-.48-6.86.12-9.51a12.12,12.12,0,0,0,.12-4.81c-2.89-16.85-5.42-41-6.74-46.94s-7.06-15.05-7.06-15.05C44.87,164.12,54.85,165.08,57.42,166.53Z" fill="#231f20" opacity="0.61"/><path d="M113.08,167.32s7.88,3.34,8.13,3.34a3,3,0,0,0,.63-.12l7.1-4a27.39,27.39,0,0,0,6.43-1l3.45-1.7c8.7-.33,10.81,6.93,10.81,6.93-.08.49-.78,3.57-.78,3.57A11.26,11.26,0,0,0,138,165.88c-1.56.29-14.92,10.35-14.92,10.35l-20-8.75Z" fill="#fff"/><path d="M101.15,167.5s-2.85.43-8,4.44-8.91,6.5-8.91,6.5-16.84-9.21-19.81-10.52l7.82-.06,10.79,4.84s7.34-5.07,8.18-5.08Z" fill="#fff"/><path d="M61.84,167.71s-5.14,3.87-7.11,9a20.9,20.9,0,0,0-.75,6.69s-3.14-5.95-3.53-6.6c0,0-.13-6.43,7.66-10C58.11,166.85,61,167.62,61.84,167.71Z" fill="#fff"/><path d="M148.52,183.45s-4.68-8.9-8.45-11.79l-14.92,13.48s-17.2-10.75-22-12.84c0,0-12.71,9.47-17.6,14.85,0,0-15.49-8.19-22.31-11.64,0,0-4.94,4.68-6,18.47l.75,5.27s3.27-12.46,6.5-17.16l22.9,13.06s13.06-13.72,17.27-17.33c0,0,16.43,10.59,21.43,15l15.35-14.37s6.5,7.14,8.12,12.38C149.52,190.82,148.6,185.69,148.52,183.45Z" fill="#fff"/><path d="M151.65,203.39a63.64,63.64,0,0,0-8.63-15.1l-14.68,14.26s-17.52-12.09-22.21-14.92c0,0-13.12,12.52-17.75,17.57,0,0-15.31-10.47-21.61-12.33,0,0-3.73,4.57-6.56,23.53l.52,3.87s4-15.37,7.19-19.58c0,0,13.78,6.44,21.72,13.24l18.17-19s16.55,11.92,21.13,16.61l15.34-15.77a49.37,49.37,0,0,1,7.83,11.77Z" fill="#fff"/><path d="M153.46,216.73s-5.27-8.82-7.73-10.92L130.8,221.69l-21.72-16.25L91.08,224s-13.36-9.69-21.48-13.6c0,0-5.43,7-7.32,20.65l.44,2.83s4.77-11.45,7.48-15.66a122.55,122.55,0,0,1,21.85,15.35L110,213.45s18.3,14.62,21.91,18.05l15.16-17.63s5.25,4.34,7.92,8.94C155,222.81,153.64,217.63,153.46,216.73Z" fill="#fff"/><path d="M160.82,236.65s-7-8.34-11.08-12.31c0,0-13.92,14.12-17.73,17.21l-20.26-16.61s-17.42,17.13-19.46,18.94c0,0-14.69-11.78-21-15,0,0-5.85,8.91-8.19,13.48,0,0-1.36,4.89-.64,8,0,0,7-10.33,9.3-12.78,0,0,13.2,7.9,17.93,11.79l5.74-.24s14.52-13.45,16.73-15.27L129,247.06l4.78-.37,17.48-14.57s7.4,6.35,10,11.64C161.3,243.76,162.84,241.78,160.82,236.65Z" fill="#fff"/><path d="M154.65,246a16.63,16.63,0,0,0-4.23-3.11l-4.48,2.91s3-.28,3.52-.27S153.88,245.81,154.65,246Z" fill="#414042"/><path d="M117.89,247.9s-4.29-3.42-5.84-4c0,0-5,2.49-7.37,4.89C104.68,248.77,117,248.27,117.89,247.9Z" fill="#414042"/><path d="M79.82,250.23a34.31,34.31,0,0,0-6.39-1.42,32,32,0,0,0-6.38,3.65s-.89.83-1.44.69c0,0,2.87.53,7.79-1.41C73.4,251.74,79.16,250.33,79.82,250.23Z" fill="#414042"/><path d="M49.75,166.85h0C47.12,173,59.33,183,60.3,191.77S66,222.45,67.14,232.4s1.93,12.2,3,12.68,0,0,18.13-4.74,42.21-4.41,52.16-4.09S161,244.43,161,244.43a4.62,4.62,0,0,1-4.83,1.94,25.63,25.63,0,0,0-6.62-.85s-21.06,1.57-36.71,2.77-30.57.48-38.75,3.25-9.39,1.69-11,0-.48-6.86.12-9.51a12.12,12.12,0,0,0,.12-4.81c-2.89-16.85-5.41-41-6.74-46.94s-7.06-15.05-7.06-15.05C47.68,170.67,48.24,168.15,49.75,166.85Z" fill="#231f20" opacity="0.3"/><path d="M110.55,248.21l-7.44.6s-.06-30.9-1.15-38.77-3.33-17.79-.58-18.9S126,205.72,126,206s9.13,12.47,9.94,13.93S138,233,138,233l-3,7.06-11.36,6Z" fill="#414042" opacity="0.4"/><path d="M174.38,197.6s2.1-6.55.26-8.14-4.34-1-7.1.26L164.79,191s-2.34,1.23-24.76.71l-26.84-.51s-4-.1-5.87-1.22-9.17-2.06-6,6.22c0,0,4,6.85,4.84,11.22s2.14,22.2,3.88,34.65a9,9,0,0,1-.2,3.54c-.5,1.93-1.42,5.71-.31,7s2,2.1,8,.26,17-1,28.56-1.5,27-1.2,27-1.2a19.16,19.16,0,0,1,4.84.77c1.75.68,6.21-1.16,3.57-7.38s-2.54-5.51-3-6.94A57.46,57.46,0,0,1,176,222.26c-.47-7.74-1.85-12.74-2.07-17.12A32.28,32.28,0,0,1,174.38,197.6Z" fill="#f5f5f5"/><path d="M107.32,190a11.34,11.34,0,0,0,4.18,1.1c1.35,17,7.56,45.21,34,46.19C183.4,238.67,168.72,190,168.72,190l-1.2-.24h0c2.76-1.22,5.26-1.85,7.1-.26s-.26,8.14-.26,8.14a32.28,32.28,0,0,0-.47,7.54c.22,4.38,1.6,9.38,2.07,17.13a57.45,57.45,0,0,0,2.62,14.31c.43,1.43.33.72,3,6.94s-1.82,8.06-3.57,7.38a19.16,19.16,0,0,0-4.84-.77s-15.52.67-27,1.2-22.48-.35-28.56,1.5-6.94,1-8-.26-.19-5,.31-7a9,9,0,0,0,.2-3.54c-1.74-12.45-3-30.29-3.88-34.65s-4.84-11.22-4.84-11.22C98.15,187.9,105.47,188.84,107.32,190Z" fill="#d5d3c7"/><path d="M148.21,191.82s5.72,2.63,5.9,2.64a1.9,1.9,0,0,0,.46-.07l5.31-2.79a20.32,20.32,0,0,0,4.76-.56l2.57-1.17a7.66,7.66,0,0,1,7.79,5.34c-.08.36-.66,2.6-.66,2.6a8.27,8.27,0,0,0-7.79-6.47c-1.16.17-11.21,7.26-11.21,7.26l-14.46-6.89Z" fill="#414042"/><path d="M139.44,191.68s-2.1.25-6,3.08-6.69,4.57-6.69,4.57-12.17-7.15-14.33-8.19l5.75.14,7.82,3.81s5.52-3.56,6.14-3.55Z" fill="#414042"/><path d="M110.55,190.93a17.67,17.67,0,0,0-5.44,6.49,15.55,15.55,0,0,0-.71,4.9s-2.17-4.45-2.44-4.93c0,0,.06-4.73,5.86-7.17C107.82,190.22,109.89,190.84,110.55,190.93Z" fill="#414042"/><path d="M173.89,204.49s-3.23-6.65-5.94-8.86l-11.28,9.56s-12.39-8.29-15.9-9.94c0,0-9.56,6.67-13.28,10.51,0,0-11.19-6.37-16.13-9.06,0,0-3.74,3.32-4.83,13.43L107,214s2.69-9.08,5.17-12.46l16.54,10.13s9.91-9.79,13.09-12.35c0,0,11.83,8.17,15.4,11.51l11.61-10.21s4.62,5.4,5.69,9.29C174.46,209.93,173.9,206.13,173.89,204.49Z" fill="#414042"/><path d="M175.74,219.22a47.05,47.05,0,0,0-6-11.3l-11.12,10.15s-12.6-9.3-16-11.48c0,0-9.93,8.9-13.45,12.51,0,0-11-8-15.6-9.57,0,0-2.85,3.28-5.36,17.15l.29,2.86s3.29-11.21,5.73-14.23c0,0,10,5.05,15.67,10.23L143.71,212s11.89,9.14,15.14,12.69l11.64-11.24a36.6,36.6,0,0,1,5.49,8.83Z" fill="#414042"/><path d="M176.76,229.06s-3.67-6.6-5.44-8.21L160,232.19,144.4,219.75,130.75,233s-9.6-7.43-15.48-10.49c0,0-4.15,5-5.85,15l.26,2.08s3.76-8.3,5.85-11.34A90.18,90.18,0,0,1,131.23,240l13.65-14.36s13.11,11.17,15.68,13.77l11.55-12.61a29.93,29.93,0,0,1,5.62,6.75S176.87,229.73,176.76,229.06Z" fill="#414042"/><path d="M181.71,243.87s-4.94-6.29-7.86-9.3c0,0-10.56,10.06-13.43,12.24l-14.51-12.67s-13.19,12.19-14.73,13.47c0,0-10.53-9-15.1-11.52,0,0-4.5,6.41-6.33,9.72,0,0-1.11,3.56-.66,5.88,0,0,5.39-7.43,7.13-9.18,0,0,9.52,6.11,12.91,9.08l4.23,0s11-9.56,12.64-10.85l12.09,10.09,3.51-.16,13.19-10.31s5.29,4.84,7.11,8.79C181.9,249.11,183.08,247.69,181.71,243.87Z" fill="#414042"/><path d="M177,250.59a12.42,12.42,0,0,0-3-2.38l-3.37,2s2.21-.13,2.6-.11S176.4,250.44,177,250.59Z" fill="#414042"/><path d="M149.9,251.16a30.28,30.28,0,0,0-4.2-3.09,25.46,25.46,0,0,0-5.53,3.43S149.24,251.41,149.9,251.16Z" fill="#414042"/><path d="M121.87,252a25.2,25.2,0,0,0-4.67-1.19,23.27,23.27,0,0,0-4.77,2.54s-.67.58-1.08.47c0,0,2.1.45,5.76-.86C117.11,253,121.37,252.05,121.87,252Z" fill="#414042"/><path d="M101.68,190h0c-2.08,4.49,6.66,12.12,7.18,18.56s3.5,22.68,4.1,30,1.13,9,2,9.39,0,0,13.43-3.07,31.13-2.27,38.43-1.81,14.89,6.48,14.89,6.49a3.37,3.37,0,0,1-3.59,1.3,19.16,19.16,0,0,0-4.84-.77s-15.52.67-27,1.2-22.48-.35-28.56,1.5-6.94,1-8.05-.25-.2-5.06.31-7a9,9,0,0,0,.2-3.54c-1.74-12.45-3-30.29-3.88-34.65s-4.85-11.22-4.85-11.22C100.07,192.78,100.54,190.94,101.68,190Z" fill="#231f20" opacity="0.3"/></svg>