<svg xmlns="http://www.w3.org/2000/svg" viewBox="0 0 500 500"><polygon points="486.52 346.29 483.91 354.33 476.88 354.33 475.84 346.29 486.52 346.29" fill="#fcd2b1"/><polygon points="13.48 346.29 16.09 354.33 23.12 354.33 24.16 346.29 13.48 346.29" fill="#fcd2b1"/><ellipse cx="247.66" cy="242.33" rx="205.78" ry="86.47" fill="#6128b2"/><polygon points="475.94 217.55 448.95 211.35 448.95 330.37 479.09 346.29 475.94 217.55" fill="#4f1f9b"/><path d="M484.12,210.3l-24.56-3.43a8.23,8.23,0,0,0-6.3,1.72l-5.55,2.76,28.65,6.2,7.55-2.32Z" fill="#7d38ce"/><path d="M478.48,346.06h10.87a2.64,2.64,0,0,0,2.64-2.64v-125a8.08,8.08,0,0,0-8.08-8.08h0a8.07,8.07,0,0,0-8.07,8.08v125A2.64,2.64,0,0,0,478.48,346.06Z" fill="#6128b2"/><path d="M15.88,210.3l24.56-3.43a8.23,8.23,0,0,1,6.3,1.72l5.55,2.76-28.65,6.2-7.55-2.32Z" fill="#7d38ce"/><polygon points="23.13 217.55 53.2 211.7 49.19 327.24 23.39 343.69 23.13 217.55" fill="#4f1f9b"/><path d="M26.77,300h447a0,0,0,0,1,0,0v41.24a6.65,6.65,0,0,1-6.65,6.65H33.41a6.65,6.65,0,0,1-6.65-6.65V300a0,0,0,0,1,0,0Z" fill="#7d38ce"/><rect x="26.77" y="299.97" width="446.99" height="7.9" fill="#1d1d1b" opacity="0.29"/><polygon points="23.07 261.92 53.34 243.84 449.27 243.84 479.09 261.92 23.07 261.92" fill="#6128b2"/><path d="M49.08,149.57a5.08,5.08,0,0,1,5.41-5.33c17.73,1.95,40.7,3.23,60.89,3.32a508.73,508.73,0,0,0,59.12-3.22,5.11,5.11,0,0,1,5.41,5.76,441.65,441.65,0,0,0-1.49,45.18c.3,17.18.79,32.93,2.34,47a5.16,5.16,0,0,1-5.17,5.94c-18.17-1.12-36.54-1.79-56.56-1.87-23.18-.09-45.29.61-66.22,1.88a5.12,5.12,0,0,1-5.19-5.73q2-24.5,3.68-49.49C52.3,178.43,49.21,163.94,49.08,149.57Z" fill="#7d38ce"/><path d="M186.21,149.57a5.07,5.07,0,0,1,5.4-5.33c17.73,1.95,40.7,3.23,60.9,3.32a508.73,508.73,0,0,0,59.12-3.22,5.11,5.11,0,0,1,5.4,5.76,447.45,447.45,0,0,0-1.49,45.18c.31,17.18.8,32.93,2.34,47a5.15,5.15,0,0,1-5.16,5.94c-18.17-1.12-36.54-1.79-56.57-1.87-23.17-.09-45.28.61-66.21,1.88a5.11,5.11,0,0,1-5.19-5.73q2-24.5,3.68-49.49C189.43,178.43,186.33,163.94,186.21,149.57Z" fill="#7d38ce"/><path d="M321.66,149.57a5.07,5.07,0,0,1,5.4-5.33c17.73,1.95,40.7,3.23,60.9,3.32a508.73,508.73,0,0,0,59.12-3.22,5.1,5.1,0,0,1,5.4,5.76A447.45,447.45,0,0,0,451,195.28c.31,17.18.8,32.93,2.35,47a5.16,5.16,0,0,1-5.17,5.94c-18.17-1.12-36.54-1.79-56.57-1.87-23.17-.09-45.28.61-66.21,1.88a5.11,5.11,0,0,1-5.19-5.73q1.95-24.5,3.68-49.49C324.88,178.43,321.79,163.94,321.66,149.57Z" fill="#7d38ce"/><path d="M21.52,346.06H10.65A2.64,2.64,0,0,1,8,343.42v-125a8.08,8.08,0,0,1,8.08-8.08h0a8.07,8.07,0,0,1,8.07,8.08v125A2.64,2.64,0,0,1,21.52,346.06Z" fill="#6128b2"/><rect x="22.08" y="256.39" width="456.37" height="43.59" rx="5.47" fill="#7d38ce"/><polygon points="96.67 199.96 92.25 201 93.73 205.29 89.87 202.9 87.88 206.99 86.84 202.57 82.55 204.05 84.94 200.19 80.86 198.21 85.28 197.16 83.79 192.87 87.65 195.26 89.64 191.18 90.68 195.6 94.97 194.11 92.58 197.98 96.67 199.96" fill="#6128b2"/><polygon points="147.72 199.96 143.3 201 144.78 205.29 140.92 202.9 138.94 206.99 137.9 202.57 133.6 204.05 136 200.19 131.91 198.21 136.33 197.16 134.85 192.87 138.71 195.26 140.69 191.18 141.73 195.6 146.03 194.11 143.63 197.98 147.72 199.96" fill="#6128b2"/><polygon points="234.2 199.96 229.78 201 231.26 205.29 227.4 202.9 225.42 206.99 224.38 202.57 220.09 204.05 222.48 200.19 218.39 198.21 222.81 197.16 221.33 192.87 225.19 195.26 227.17 191.18 228.21 195.6 232.51 194.11 230.12 197.98 234.2 199.96" fill="#6128b2"/><polygon points="285.25 199.96 280.83 201 282.32 205.29 278.46 202.9 276.47 206.99 275.43 202.57 271.14 204.05 273.53 200.19 269.45 198.21 273.87 197.16 272.38 192.87 276.24 195.26 278.23 191.18 279.27 195.6 283.56 194.11 281.17 197.98 285.25 199.96" fill="#6128b2"/><polygon points="369.65 199.96 365.23 201 366.71 205.29 362.85 202.9 360.87 206.99 359.83 202.57 355.54 204.05 357.93 200.19 353.84 198.21 358.26 197.16 356.78 192.87 360.64 195.26 362.63 191.18 363.67 195.6 367.96 194.11 365.57 197.98 369.65 199.96" fill="#6128b2"/><polygon points="420.71 199.96 416.29 201 417.77 205.29 413.91 202.9 411.92 206.99 410.88 202.57 406.59 204.05 408.98 200.19 404.9 198.21 409.32 197.16 407.83 192.87 411.69 195.26 413.68 191.18 414.72 195.6 419.01 194.11 416.62 197.98 420.71 199.96" fill="#6128b2"/></svg>