<svg xmlns="http://www.w3.org/2000/svg" viewBox="0 0 500 500"><path d="M172.15,308.81l-9.52,59.62s-1.62,5.11,4.76,6c0,0,4.06,1,5.69-4.18s17.28-61.48,17.28-61.48Z" fill="#fcd2b1"/><path d="M184.54,308.81l-11.46,61.48c1.62-5.22,17.28-61.48,17.28-61.48Z" fill="#bd9e85"/><path d="M328.69,308.81l9.52,59.62s1.62,5.11-4.76,6c0,0-4.06,1-5.69-4.18s-17.28-61.48-17.28-61.48Z" fill="#fcd2b1"/><path d="M316.3,308.81l11.46,61.48c-1.62-5.22-17.28-61.48-17.28-61.48Z" fill="#bd9e85"/><path d="M357.81,172.17s-2.42-42.78-17.27-51.95c0,0-4.41-3.13-14.85-2.44s-53.09,3.37-75.72,3.48c-22.63-.11-65.29-2.78-75.73-3.48s-14.84,2.44-14.84,2.44c-14.85,9.17-17.28,51.95-17.28,51.95l16.46,70.42L250,230.91l91.39,11.68Z" fill="#7d38ce"/><path d="M151.52,129.82c-5.07,18.56-2.67,46.81-2.53,48.41l.06.7,4.16-.38-.06-.71c-.05-.5-4.29-50.28,9.06-58.78l.36-.22C156.63,120.45,152.77,127.28,151.52,129.82Z" fill="#7f59c9"/><path d="M159.49,120.08a21.61,21.61,0,0,0-4.42,4.21c-7.92,16.83-4.88,52.63-4.72,54.42l1.39-.13C151.7,178.1,147.81,132.36,159.49,120.08Z" fill="#6128b2"/><path d="M348.55,129.82c5.07,18.56,2.68,46.81,2.54,48.41l-.06.7-4.16-.38.06-.71c0-.5,4.29-50.28-9.07-58.78l-.35-.22C343.44,120.45,347.3,127.28,348.55,129.82Z" fill="#7f59c9"/><path d="M340.59,120.08a21.55,21.55,0,0,1,4.41,4.21c7.93,16.83,4.88,52.63,4.72,54.42l-1.38-.13C348.38,178.1,352.27,132.36,340.59,120.08Z" fill="#6128b2"/><path d="M187.32,143.11a3.75,3.75,0,1,1-3.25-4.09A3.7,3.7,0,0,1,187.32,143.11Z" fill="#0b5e74" opacity="0.3"/><path d="M185.17,144.37a3,3,0,1,1,.68-4.17A3,3,0,0,1,185.17,144.37Z" fill="#6128b2"/><path d="M184.7,143.43a2.49,2.49,0,1,1,.56-3.47A2.49,2.49,0,0,1,184.7,143.43Z" fill="#8850d8"/><path d="M241.41,148.41s8.3,12.48,18,0c0,0-4.25-6.48-9-6.48S241.41,148.41,241.41,148.41Z" fill="#0b5e74" opacity="0.3"/><ellipse cx="250.68" cy="148.6" rx="3.74" ry="3.64" fill="#0b5e74" opacity="0.3"/><path d="M252.47,150.12a3,3,0,1,1,.13-4.22A3,3,0,0,1,252.47,150.12Z" fill="#6128b2"/><circle cx="250.17" cy="147.44" r="2.48" transform="matrix(0.58, -0.81, 0.81, 0.58, -15.13, 265.51)" fill="#8850d8"/><path d="M210,192.85s8.3,12.48,18,0c0,0-4.25-6.47-9-6.47S210,192.85,210,192.85Z" fill="#0b5e74" opacity="0.3"/><path d="M223.06,193a3.75,3.75,0,1,1-3.75-3.64A3.7,3.7,0,0,1,223.06,193Z" fill="#0b5e74" opacity="0.3"/><path d="M221.1,194.57a3,3,0,1,1,.13-4.23A3,3,0,0,1,221.1,194.57Z" fill="#6128b2"/><path d="M220.5,193.69a2.48,2.48,0,1,1,.11-3.51A2.48,2.48,0,0,1,220.5,193.69Z" fill="#8850d8"/><path d="M174.43,141.26s6.64,13.44,17.87,2.3c0,0-3.39-7-8.11-7.57S174.43,141.26,174.43,141.26Z" fill="#0b5e74" opacity="0.3"/><path d="M293.46,192.24s-8.29,12.48-18,0c0,0,4.25-6.48,9-6.48S293.46,192.24,293.46,192.24Z" fill="#0b5e74" opacity="0.3"/><path d="M280.45,192.43a3.75,3.75,0,1,0,3.74-3.64A3.69,3.69,0,0,0,280.45,192.43Z" fill="#0b5e74" opacity="0.3"/><path d="M282.41,194a3,3,0,1,0-.13-4.22A3,3,0,0,0,282.41,194Z" fill="#6128b2"/><path d="M283,193.08a2.48,2.48,0,1,0-.11-3.51A2.48,2.48,0,0,0,283,193.08Z" fill="#8850d8"/><path d="M329.08,140.64s-6.64,13.44-17.87,2.31c0,0,3.39-7,8.11-7.58S329.08,140.64,329.08,140.64Z" fill="#0b5e74" opacity="0.3"/><path d="M316.19,142.49a3.75,3.75,0,1,0,3.25-4.09A3.69,3.69,0,0,0,316.19,142.49Z" fill="#0b5e74" opacity="0.3"/><path d="M318.34,143.76a3,3,0,1,0-.68-4.18A3,3,0,0,0,318.34,143.76Z" fill="#6128b2"/><path d="M318.81,142.81a2.48,2.48,0,1,0-.56-3.46A2.48,2.48,0,0,0,318.81,142.81Z" fill="#8850d8"/><path d="M250,210.06c-30.55,0-57.81-7-75.71-18-9.42-5.19-13.1-9.73-13.1-9.73l-5.91,17.63,13.14,31.21H217.1l-.44.35H330l13.14-31.21L337.38,183C321.37,199.05,288.28,210.06,250,210.06Z" fill="#074f60" opacity="0.3"/><path d="M368.22,167.92s-12.87-1.39-26.8,20.65-15.78,26.66-25.29,39l-17.78,2.31H201.78l-17.91-2.33c-9.51-12.31-11.37-16.93-25.29-39s-26.8-20.65-26.8-20.65c-8.46.58-14.73,6.08-14.73,27.95s7.66,75.42,35.15,108.48c0,0,3.77,4.23,8.12,4.47H339.68c4.35-.23,8.12-4.46,8.12-4.46C375.29,271.28,383,217.74,383,195.87S376.68,168.5,368.22,167.92Z" fill="#7d38ce"/><path d="M180.39,223.24l7.43,1a39.18,39.18,0,0,0-11.6-16.94l-1.05-4.52c-8-23.78-24.36-24.94-24.36-24.94h-.87l29.15,45.28Z" fill="#864cd8"/><path d="M138.52,169.27s7.85,3.42,16.38,25.34,15.66,34.46,15.66,34.46l10.67-4.64-24.73-39S147.19,171.85,138.52,169.27Z" fill="#7d38ce"/><path d="M178.11,205.4c.71,1.58.4,3.26-.7,3.75s-2.56-.39-3.27-2-.4-3.25.7-3.74S177.4,203.82,178.11,205.4Z" fill="#8850d8"/><path d="M175.36,206.64a3.22,3.22,0,0,1,.16-3.33,1.56,1.56,0,0,0-.68.13c-1.1.49-1.41,2.17-.7,3.74s2.17,2.46,3.27,2a1.61,1.61,0,0,0,.54-.43A3.2,3.2,0,0,1,175.36,206.64Z" fill="#6128b2"/><path d="M318.26,224l-7.43,1.05a39.07,39.07,0,0,1,11.61-16.94l1-4.53c8-23.78,24.36-24.94,24.36-24.94h.87l-29.15,45.28Z" fill="#864cd8"/><path d="M360.14,170s-7.86,3.42-16.39,25.35-15.66,34.45-15.66,34.45l-10.67-4.64,24.73-39S351.46,172.63,360.14,170Z" fill="#7d38ce"/><path d="M320.54,206.17c-.71,1.58-.39,3.26.7,3.75s2.56-.38,3.27-2,.4-3.26-.7-3.75S321.25,204.6,320.54,206.17Z" fill="#8850d8"/><path d="M323.29,207.41a3.21,3.21,0,0,0-.15-3.32,1.4,1.4,0,0,1,.67.12c1.1.49,1.41,2.17.7,3.75s-2.17,2.46-3.27,2a1.47,1.47,0,0,1-.54-.42A3.22,3.22,0,0,0,323.29,207.41Z" fill="#6128b2"/><path d="M338.4,236.92v-.25H177.84V238l-19.24-1.29s1.78,43.3,45.29,43.82h93c43.5-.52,45.29-43.82,45.29-43.82ZM248,246.79h4.77l-2.38,16.78Z" fill="#4f1f9b"/><path d="M335.44,227.81c-17.33-9.84-75.38-9.52-83.83-9.42v0h-1.44s-66.17-1.22-84.87,9.39c0,0-7,3.83-6.72,8.7s4.27,41.94,70,41.94h20v0h23.55c65.74,0,69.77-37.06,70-41.93S335.44,227.81,335.44,227.81Z" fill="#6128b2"/><path d="M249.71,233.36h.58c31.38,0,80.88,2.73,91.85,3.36,0-.08,0-.15,0-.21.24-4.88-6.71-8.7-6.71-8.7-17.33-9.84-75.38-9.52-83.83-9.42v0h-1.44s-66.17-1.22-84.87,9.39c0,0-7,3.83-6.72,8.7,0,.07,0,.14,0,.21C170.88,236,219,233.36,249.71,233.36Z" fill="#7d38ce"/><path d="M164.62,289c.07,0,.37.2.89.44l2.91-3.33c-1-.4-1.58-.69-1.78-.79-33-21.93-36.28-107.55-36.55-117.3a15.5,15.5,0,0,0-4.15,1.33c.44,14.8,4.39,97,38.51,119.55Z" fill="#7f59c9"/><path d="M166.45,288.39l1-1.12c-1-.4-1.46-.66-1.47-.66-33.34-22-36.94-107.12-37.27-118.23l-1.39.45c.35,13.17,3.93,96.52,38,119C165.33,287.86,165.73,288.07,166.45,288.39Z" fill="#6128b2"/><path d="M336.1,289c-.08,0-.38.2-.9.44l-2.91-3.33c1-.4,1.59-.69,1.78-.78,33-21.94,36.29-107.56,36.56-117.31a15.4,15.4,0,0,1,4.14,1.33c-.43,14.8-4.38,97-38.5,119.55Z" fill="#7f59c9"/><path d="M334.27,288.38l-1-1.12c1-.4,1.45-.66,1.47-.66,33.34-22,36.94-107.12,37.27-118.23.46.14,1,.32,1.38.46-.35,13.16-3.92,96.51-37.94,119C335.39,287.85,335,288.06,334.27,288.38Z" fill="#6128b2"/><path d="M332.28,286.19c-4.81,2-19,6.77-43,6.63-30.73-.17-38.63,0-38.66,0h-.34c-.08,0-8-.18-38.71,0-24,.15-38.25-4.67-43.06-6.64l-2.91,3.32c3.7,1.7,18.65,7.7,46,7.52,30.63-.17,38.52,0,38.64,0h.44c.08,0,8-.17,38.59,0h1c26.67,0,41.27-5.83,44.94-7.51Z" fill="#a071e2"/><path d="M333.25,287.29c-4.53,1.93-19.08,7.1-44,6.93-30.72-.17-38.6,0-38.66,0h-.37c-.08,0-8-.17-38.67,0-25,.14-39.6-5.05-44-6.93l-1,1.11c4.06,1.82,18.32,7.22,44,7.22h1c30.67-.17,38.55,0,38.64,0h.41c.07,0,8-.17,38.63,0,26.22.17,40.79-5.33,45-7.21Z" fill="#6128b2"/></svg>