<svg xmlns="http://www.w3.org/2000/svg" viewBox="0 0 500 500"><polygon points="235.27 147.89 272.21 147.89 275.95 235.15 447.26 235.15 447.26 327.76 41.48 327.76 44.16 246.39 108.93 211.06 224.03 227.53 235.27 147.89" fill="#4e4d4f"/><rect x="36.66" y="339" width="20.88" height="22.21" fill="#fcd2b1"/><polygon points="249.49 245.32 249.72 259.24 57.54 259.24 78.75 242.65 249.49 242.65 249.49 245.32" fill="#b5b4b5"/><path d="M57.54,361.21c0-1.69,6.42-11.1,6.42-11.1l-.53-19.85-5.89,3.93Z" fill="#bd9e85"/><path d="M443,361.21c0-1.69-6.43-11.1-6.43-11.1l.54-19.85,5.89,3.93Z" fill="#bd9e85"/><path d="M21.84,220.1l38.62-2a1.86,1.86,0,0,1,2,1.79l3.63,117.18A1.86,1.86,0,0,1,64.19,339H27.67a1.85,1.85,0,0,1-1.85-1.71l-8.4-107.64a1.8,1.8,0,0,1,.1-.76l2.67-7.56A1.85,1.85,0,0,1,21.84,220.1Z" fill="#8b898c"/><path d="M20.77,220.63l20.71-19.34A12,12,0,0,1,49.13,198l34.64-1.9-23.55,24Z" fill="#b5b4b5"/><polygon points="60.46 219.72 80.86 199.04 80.86 242.65 63.53 256.03 60.46 219.72" fill="#686769"/><path d="M63.85,297l.39,38.05a4,4,0,0,0,4,3.95H431.11a4,4,0,0,0,4-4V297a4,4,0,0,0-4-4H67.86A4,4,0,0,0,63.85,297Z" fill="#686769"/><path d="M82.18,149.07l-2.82,90a3.38,3.38,0,0,0,3.35,3.54H245.42a4.11,4.11,0,0,0,4.07-4.16V148.31a9.41,9.41,0,0,0-9.3-9.52H87.61A13.15,13.15,0,0,0,82.18,149.07Z" fill="#8e8e90"/><rect x="442.46" y="339" width="20.88" height="22.21" fill="#fcd2b1"/><path d="M240.26,246.38l1.85,15.41,200.35-2.55-21.21-16.6H246.66a.31.31,0,0,0-.15.58Z" fill="#b5b4b5"/><path d="M478.16,220.1l-38.62-2a1.86,1.86,0,0,0-2,1.79L434,337.09a1.84,1.84,0,0,0,1.85,1.91h36.52a1.85,1.85,0,0,0,1.85-1.71l8.4-107.64a1.8,1.8,0,0,0-.1-.76l-2.67-7.56A1.85,1.85,0,0,0,478.16,220.1Z" fill="#8b898c"/><path d="M479.38,220.63l-20.77-19.26a12.34,12.34,0,0,0-7.86-3.41l-34.52-1.89,23.55,24Z" fill="#b5b4b5"/><polygon points="439.78 220.1 419.14 199.04 419.14 242.65 436.47 256.03 439.78 220.1" fill="#686769"/><path d="M417.82,149.07l2.82,90a3.38,3.38,0,0,1-3.35,3.54H254.58a4.12,4.12,0,0,1-4.07-4.16V148.31a9.41,9.41,0,0,1,9.3-9.52H412.39A13.15,13.15,0,0,1,417.82,149.07Z" fill="#8e8e90"/><rect x="62.36" y="256.03" width="187.36" height="36.94" rx="3.21" fill="#a0a0a2"/><rect x="250.28" y="256.03" width="187.36" height="36.94" rx="3.21" fill="#a0a0a2"/></svg>