<svg xmlns="http://www.w3.org/2000/svg" viewBox="0 0 500 500"><rect x="245.88" y="155.45" width="7.9" height="86.21" fill="#6128b2"/><path d="M248.34,277.15V157c0-9.35-6-16.92-13.49-16.92h-146c-7.45,0-13.49,7.57-13.49,16.92V277.15Z" fill="#7d38ce"/><path d="M427.4,277.15V157c0-9.35-6.15-16.92-13.74-16.92H264.94c-7.59,0-13.74,7.57-13.74,16.92V277.15Z" fill="#7d38ce"/><path d="M371.16,212.92s-7.41,21.53-24.53,21.07-70.64-4.46-98.4-3.43h0c-28.68-.56-78.27,3.11-94.65,3.54C136.42,234.56,129,213,129,213c-13.44-39.39-52.4-62.28-52.4-62.28l10,65.48,9.91,47.06,37,.69,117.19-11.66,115.82,11.54,37-.68,9.9-47.06,10-65.49S384.58,173.54,371.16,212.92Z" fill="#6128b2"/><path d="M80,292.39c0-7.06,6.16-12.78,13.74-12.78H236.09c7.59,0,13.74,5.72,13.74,12.78v29.23c0,7.06-6.15,12.78-13.74,12.78H93.7c-7.58,0-13.74-5.72-13.74-12.78Z" fill="#6128b2"/><path d="M419.53,292.39c0-7.06-6.15-12.78-13.74-12.78H263.4c-7.59,0-13.74,5.72-13.74,12.78v29.23c0,7.06,6.15,12.78,13.74,12.78H405.79c7.59,0,13.74-5.72,13.74-12.78Z" fill="#6128b2"/><path d="M69.39,358.9c-.8.94-13.39,18.43-21.52,13.51s.68-17.75.68-17.75c17.86-29.54,15.29-59.07,15.29-59.07L63.32,271c-.51-18.89-20.78-68.87-28.68-90.33s4.64-26.62,4.64-26.62l16.66-7.9s21-8.08,38.3,27.47S108.32,242,99,261.93l-.51,33.83S83.53,342.18,69.39,358.9Z" fill="#7f4ad3"/><path d="M430.61,358.9c.8.94,13.39,18.43,21.52,13.51s-.68-17.75-.68-17.75c-17.86-29.54-15.29-59.07-15.29-59.07l.52-24.56c.51-18.89,20.78-68.87,28.68-90.33s-4.64-26.62-4.64-26.62l-16.66-7.9s-20.95-8.08-38.3,27.47S391.68,242,401,261.93l.51,33.83S416.47,342.18,430.61,358.9Z" fill="#7f4ad3"/><path d="M277.76,238.23l-24.33-.09v0h-6.69v0l-25.08.1c-145.28-.18-141.85,39-141.85,39v3.38l166.93,4.27v.15l3-.08,3.72.1v-.19l166.18-4.25v-3.38S423.05,238.05,277.76,238.23Z" fill="#8f58dd"/><path d="M81,298.25H418.29a1.45,1.45,0,0,0,1.23-1.28V278.4a1.39,1.39,0,0,0-1-1.22H80.83a1.39,1.39,0,0,0-1,1.22V297A1.45,1.45,0,0,0,81,298.25Z" fill="#a67fe5"/><path d="M63.32,270.87l.52,24.56S66.41,325,48.55,354.5c0,0-6.54,9.53-3.14,15.32,0,0,4.52,2.89,9.84-6S73.62,336.07,75.34,302V277s1-63.45-25.3-108.11c0,0-10.91-20.26-17-7.5-1.41,4.09-1.67,10.19,1.62,19.13C42.54,202,62.81,252,63.32,270.87Z" fill="#a67fe5"/><path d="M436.68,270.87l-.52,24.56S433.59,325,451.45,354.5c0,0,6.54,9.53,3.14,15.32,0,0-4.52,2.89-9.84-6S426.38,336.07,424.66,302V277s-1-63.45,25.3-108.11c0,0,10.91-20.26,17-7.5,1.41,4.09,1.67,10.19-1.62,19.13C457.46,202,437.19,252,436.68,270.87Z" fill="#a67fe5"/><path d="M85.71,143.63H237.57s5.88-.22,8.42,3.91c0,0,0,0,0,0-2.42-4.51-6.53-7.49-11.2-7.49h-146c-4.75,0-8.92,3.09-11.32,7.75C78.19,147.07,81.43,143.74,85.71,143.63Z" fill="#a67fe5"/><path d="M416.74,143.54H262.13s-6-.21-8.57,3.91l0,.05C256,143,260.17,140,264.92,140H413.59c4.84,0,9.08,3.09,11.53,7.75C424.41,147,421.11,143.66,416.74,143.54Z" fill="#a67fe5"/></svg>