<svg xmlns="http://www.w3.org/2000/svg" viewBox="0 0 500 500"><path d="M143.15,257.13l-1.31-36.59v-.19a52.57,52.57,0,0,0-1.41-15.85c-.26-1-.52-1.93-.66-2.39-.58-1.86-1.31-3.68-2.75-7.28-.61-1.52-1.34-3.34-2.23-5.61-3.82-9.63-5.68-14.53-6.27-17.78-1-5.75-2.64-14.44,1.95-21.18,5-7.31,14.57-8.38,20.3-9a39,39,0,0,1,4.6-.27A48.16,48.16,0,0,1,168,143a96.17,96.17,0,0,0,20,3.25c3,.18,5.37.31,7.63.31a45,45,0,0,0,8.17-.71,46.44,46.44,0,0,0,12.76-4.28,76.43,76.43,0,0,1,8.83-3.55,66.63,66.63,0,0,1,20.32-3.09c1.21,0,2.44,0,3.65.1s2.44-.1,3.65-.1A66.82,66.82,0,0,1,273.4,138a75.17,75.17,0,0,1,8.82,3.55,47.83,47.83,0,0,0,12.8,4.28,45,45,0,0,0,8.17.71c2.27,0,4.59-.13,7.64-.31a95.93,95.93,0,0,0,20-3.25,48.16,48.16,0,0,1,12.64-2,41.06,41.06,0,0,1,4.6.26c5.73.65,15.33,1.72,20.3,9,4.59,6.74,3,15.43,1.95,21.18-.59,3.25-2.45,8.14-6.27,17.78-.89,2.26-1.62,4.08-2.23,5.59-1.44,3.6-2.17,5.41-2.75,7.27-.14.46-.4,1.35-.66,2.36A52.14,52.14,0,0,0,357,220.23v.31l-1.3,36.59Z" fill="#fcd2b1"/><path d="M367,151.2c-4.54-6.68-13.46-7.68-19.11-8.32-13.16-1.47-16.78,3.78-37,5-6.23.38-10.46.6-16.2-.41-9.61-1.7-13.12-5.08-21.84-7.89a66.1,66.1,0,0,0-23.5-2.91,65.88,65.88,0,0,0-23.47,2.91c-8.72,2.81-12.18,6.19-21.8,7.89-5.73,1-10,.79-16.19.41-20.19-1.2-23.81-6.45-37-5-5.65.64-14.57,1.64-19.11,8.32-4.18,6.14-2.73,14.23-1.69,19.94.57,3.09,2.41,7.94,6.18,17.47,3,7.66,4.17,10.25,5,13,.17.53.44,1.45.69,2.44a54,54,0,0,1,1.46,16.42c.41,11.56.82,23.42,1.24,34.79H354.1c.42-11.37.83-23.23,1.25-34.79a53.7,53.7,0,0,1,1.45-16.36c.26-1,.52-1.94.69-2.47.85-2.72,2-5.32,5-13,3.77-9.53,5.61-14.39,6.18-17.47C369.73,165.43,371.18,157.34,367,151.2Z" fill="#fcd2b1"/><path d="M151.93,255.23l-.11-34.73a62,62,0,0,0-1.73-18.5c-.26-1-.56-2.09-.8-2.87-.7-2.23-1.52-4.29-3-8-.6-1.5-1.33-3.32-2.22-5.56-3.07-7.77-5.28-13.46-5.73-15.91-.8-4.4-1.9-10.42.39-13.78,2.39-3.53,8.88-4.25,13.17-4.73a31,31,0,0,1,3.49-.21c3.51,0,6.31.71,10.19,1.69a105.83,105.83,0,0,0,21.86,3.53c3.22.2,5.69.33,8.23.33a55.28,55.28,0,0,0,25.08-5.89,67.39,67.39,0,0,1,7.73-3.13,56.7,56.7,0,0,1,17.27-2.6c1.06,0,2.14,0,3.21.08l.44,0,.44,0c1.06-.05,2.14-.08,3.21-.08a56.76,56.76,0,0,1,17.3,2.6,67.59,67.59,0,0,1,7.74,3.13,56.87,56.87,0,0,0,15.2,5,56.1,56.1,0,0,0,9.91.85c2.54,0,5-.13,8.23-.33a105.83,105.83,0,0,0,21.86-3.53c3.88-1,6.68-1.69,10.19-1.69a30.88,30.88,0,0,1,3.49.21c4.29.48,10.78,1.2,13.17,4.73,2.29,3.36,1.19,9.38.39,13.78-.45,2.45-2.66,8.13-5.73,15.9-.89,2.24-1.61,4-2.22,5.55-1.49,3.72-2.31,5.77-3,8-.24.78-.54,1.84-.8,2.84A62.44,62.44,0,0,0,347,220.5l-.11,34.73Z" fill="#fff"/><polygon points="116.46 231.88 146.61 223.99 146.61 276.58 113.88 279.07 116.46 231.88" fill="#4b6860"/><polygon points="379.41 231.88 347.49 223.99 347.49 276.58 381.11 279.07 379.41 231.88" fill="#4b6860"/><polygon points="146.61 302.61 146.61 332.22 148.46 335.13 154.19 332.64 154.19 302.61 146.61 302.61" fill="#bd9e85"/><polygon points="347.49 302.61 347.49 332.22 345.63 335.13 339.91 332.64 339.91 302.61 347.49 302.61" fill="#bd9e85"/><rect x="122.65" y="272.04" width="259.38" height="22.42" rx="5.92" fill="#f4f4f4"/><polygon points="120.08 273.24 144.59 254.29 352.2 254.29 378.77 273.24 120.08 273.24" fill="#fff"/><path d="M256.52,255.23h17.06V148.33a10.93,10.93,0,0,1-3-.87A62.44,62.44,0,0,0,256.52,145Z" fill="#7d38ce"/><path d="M224.31,255.23h17.05V145.07a55.19,55.19,0,0,0-12.72,2.39c-1.41.45-2.44.93-4.33,1.41Z" fill="#7d38ce"/><path d="M286.85,255.23h17V156.46c-1.89,0-.64,0-1.22,0a64.79,64.79,0,0,1-10.66-.85c-1.61-.29-3.28-.61-5.17-1Z" fill="#7d38ce"/><path d="M319.06,255.23h17.06V151.8c0,.24-2.85.51-4.07.82a105.28,105.28,0,0,1-13,2.57Z" fill="#7d38ce"/><path d="M158,255.23H175V155c-3.79-.71-8.39-1.58-11.4-2.35-1.91-.48-1.86-.9-5.65-1.2Z" fill="#7d38ce"/><path d="M359.41,155.87c-1.44-2.13-4.34-3.23-8.13-3.88v38.75c0-1.43,2-3.12,2.79-5.19,3.07-7.77,5.28-13.45,5.73-15.9C360.6,165.25,361.7,159.23,359.41,155.87Z" fill="#7d38ce"/><path d="M192.09,255.23h17.06V155a29.37,29.37,0,0,0-3.3.62,60.15,60.15,0,0,1-10.27.85c-1,0-1.6,0-3.49-.06Z" fill="#7d38ce"/><path d="M144.71,152.43c-5.68.68-4.66,1.73-5.82,3.44-2.29,3.36-1.27,9.38-.47,13.78.45,2.45,2.79,8.13,5.86,15.9.1.27-1.46.51.43.76Z" fill="#7d38ce"/><rect x="241.36" y="272.29" width="15.16" height="18.95" fill="#7d38ce"/><rect x="144.71" y="272.29" width="13.27" height="18.95" fill="#7d38ce"/><rect x="273.58" y="272.29" width="13.27" height="18.95" fill="#7d38ce"/><rect x="175.03" y="272.29" width="17.06" height="18.95" fill="#7d38ce"/><rect x="209.15" y="272.29" width="15.16" height="18.95" fill="#7d38ce"/><path d="M129.55,272.29h-5.71c-2.76,0-3.77.25-3.77,2.9v13.08c0,2.66,1,3,3.77,3h5.71Z" fill="#7d38ce"/><rect x="303.9" y="272.29" width="15.16" height="18.95" fill="#7d38ce"/><path d="M373.25,272.29h-3v18.95h3c2.75,0,4.56-.31,4.56-3V275.19C377.81,272.54,376,272.29,373.25,272.29Z" fill="#7d38ce"/><rect x="336.75" y="272.29" width="15.16" height="18.95" fill="#7d38ce"/><polygon points="144.61 272.29 160.53 255.23 174.65 255.23 157.98 272.29 144.61 272.29" fill="#8f58dd"/><polygon points="175.03 272.29 192.91 255.23 208.69 255.23 192.09 272.29 175.03 272.29" fill="#8f58dd"/><polygon points="208.69 272.29 224.47 255.23 241.08 255.23 224.47 272.29 208.69 272.29" fill="#8f58dd"/><polygon points="319.06 255.23 336.58 272.29 352.36 272.29 336.58 255.23 319.06 255.23" fill="#8f58dd"/><polygon points="286.85 255.23 303.9 272.29 319.06 272.29 303.9 255.23 286.85 255.23" fill="#8f58dd"/><polygon points="256.86 255.23 272.64 272.29 286.85 272.29 273.58 255.23 256.86 255.23" fill="#8f58dd"/><polygon points="241.08 272.29 249.39 255.23 256.86 272.29 241.08 272.29" fill="#8f58dd"/><polygon points="129.55 272.29 151.93 255.23 141.43 255.23 121.97 272.29 129.55 272.29" fill="#8f58dd"/><polygon points="370.23 272.29 346.53 255.23 361.5 255.23 376.05 272.56 370.23 272.29" fill="#8f58dd"/><path d="M387.22,230.91a69.41,69.41,0,0,0-11.62-6.23c-4.4-1.84-9.66-4-16.61-4.15-4.54-.12-7.28-.19-10,1.66-4.5,3.09-6.06,9.65-5,14.53.81,3.63.69,3.08,2.08,7.89a31.44,31.44,0,0,1,.81,10.86,46.57,46.57,0,0,1,10.81,2.43c13.45,5.37,18.84,18.83,20.76,17.85,1.15-.58,2.16-3.35.71-13.95-.7-5.15-3.8-10.65-3.61-18,.14-5.57.5-7.78,2.07-8.72,2.68-1.6,6.67,1.78,8.72,0C387.46,234.14,387.43,232.32,387.22,230.91Z" fill="#7d38ce"/><path d="M112.78,230.91a69.41,69.41,0,0,1,11.62-6.23c4.4-1.84,9.66-4,16.61-4.15,4.54-.12,7.28-.19,10,1.66,4.5,3.09,6.06,9.65,5,14.53-.81,3.63-1.52,3.08-2.91,7.89a35.09,35.09,0,0,0-1.12,10.62,41.56,41.56,0,0,0-9.67,2.67c-13.45,5.37-18.84,18.83-20.76,17.85-1.15-.58-2.61-4.62-1.16-15.22.7-5.14,4.25-9.38,4.06-16.75-.14-5.57-.5-7.78-2.07-8.72-2.68-1.6-6.67,1.78-8.72,0C112.54,234.14,112.57,232.32,112.78,230.91Z" fill="#7d38ce"/><path d="M122,234.93a69.22,69.22,0,0,1,7.35-3.61c4.39-1.83,9.65-4,16.6-4.15,4.28-.11,6.95-.15,9.49,1.37a12.23,12.23,0,0,0-4.5-6.35c-2.69-1.85-5.43-1.78-10-1.66-6.95.17-12.21,2.31-16.61,4.15a69.41,69.41,0,0,0-11.62,6.23c-.21,1.41-.24,3.23.83,4.15C115.59,236.78,119.38,233.7,122,234.93Z" fill="#8f58dd"/><path d="M383.27,310.19a4.13,4.13,0,0,1-4-2.61,5.54,5.54,0,0,0-.78-1.08c-1.07-1.43-3.71-2.06-7.45-2.06a35.83,35.83,0,0,0-6.06.64l-.15.07c-9.94,1.63-45.74,3.27-112.07,5.38v.2l-3.79-.1-3.79.1v-.2c-68.22-2.11-101.68-3.71-111.62-5.34l.07,0a36.66,36.66,0,0,0-5.95-.56c-3.73,0-6.32.79-7.4,2.22a8.41,8.41,0,0,0-.75,1.4c-.54,1.13-1.54,3.25-4,3.25h-.19c-3.91-.26-4.81-5.62-5.43-17.53l.65-4.58H389.09l-.19,4.59c-.65,11.9-1.56,16.08-5.38,16.33l-.22-.08Z" fill="#fcd2b1"/><path d="M112.12,364.54l-.42-.86c-2.07-4.21-2.67-8.22-1.79-11.91a14.89,14.89,0,0,1,1.58-3.87,26,26,0,0,0,1.4-3c1.44-3.77,1.49-7,1.55-10.65a48.66,48.66,0,0,0-2.82-16.86l-.08-.24-1.26-35.66,1.29-12.89.15-.29a25.93,25.93,0,0,0,2.74-8.2,26.27,26.27,0,0,0-.28-9.64c-3.68-3.36-5.21-8.21-3.8-12.24a9.7,9.7,0,0,1,6.09-6,9.4,9.4,0,0,1,2.61-.36,7,7,0,0,1,5.31,2.09c2.19,2.43,1.52,6,1.24,7.58-1.22,6.64-3.73,20.32-2.49,30.7.15,1.21.33,2.27.51,3.3a40.11,40.11,0,0,1,.75,8.13,48.39,48.39,0,0,1-1.23,10.48l0,.24c-1.54,7.05-.21,14.45,1.21,22.29A118.85,118.85,0,0,1,126.48,333a73.07,73.07,0,0,1-5.94,31l-.46,1.11Z" fill="#fcd2b1"/><path d="M115.68,249.59c-3.5-2.94-5-7.25-3.73-10.79a8,8,0,0,1,5-5c1.93-.55,4.72-.43,6.23,1.25,1.66,1.85,1.08,4.83.83,6.23-1.28,6.92-3.77,20.51-2.49,31.14.46,3.9,1.29,6.1,1.24,11.21A47.23,47.23,0,0,1,121.5,294c-2.66,12.11,2.73,24.72,3.32,39,.3,7.3-.54,17.61-5.82,30.32l-5.81-.42c-1.33-2.72-2.66-6.63-1.66-10.8.62-2.58,1.71-3.53,2.91-6.64,1.55-4,1.6-7.39,1.66-11.21a50.68,50.68,0,0,0-2.91-17.44q-.61-17.64-1.24-35.29.61-6.24,1.24-12.46a27.86,27.86,0,0,0,2.49-19.52Z" fill="#fcd2b1"/><path d="M378,234.93a69.22,69.22,0,0,0-7.35-3.61c-4.39-1.83-9.65-4-16.6-4.15-4.28-.11-6.95-.15-9.49,1.37a12.23,12.23,0,0,1,4.5-6.35c2.69-1.85,5.43-1.78,10-1.66,6.95.17,12.21,2.31,16.61,4.15a69.41,69.41,0,0,1,11.62,6.23c.21,1.41.24,3.23-.83,4.15C384.41,236.78,380.62,233.7,378,234.93Z" fill="#8f58dd"/><path d="M379.46,364a73.07,73.07,0,0,1-5.94-31,118.85,118.85,0,0,1,2.15-16.32c1.42-7.84,2.75-15.24,1.21-22.29l-.05-.25a48.36,48.36,0,0,1-1.23-10.47,40.11,40.11,0,0,1,.75-8.13c.18-1,.36-2.09.51-3.3,1.24-10.38-1.27-24.06-2.48-30.64-.29-1.6-1-5.21,1.23-7.64a7,7,0,0,1,5.31-2.09,9.4,9.4,0,0,1,2.61.36,9.7,9.7,0,0,1,6.09,6c1.41,4-.12,8.88-3.8,12.24a26.27,26.27,0,0,0-.28,9.64,25.93,25.93,0,0,0,2.74,8.2l.15.29,1.29,12.89-1.26,35.66-.08.24a48.66,48.66,0,0,0-2.82,16.86c.06,3.69.11,6.88,1.55,10.65a26,26,0,0,0,1.4,3,14.89,14.89,0,0,1,1.58,3.87c.88,3.69.28,7.7-1.79,11.91l-.42.86-8,.57Z" fill="#fcd2b1"/><path d="M384.32,249.59c3.5-2.94,5-7.25,3.73-10.79a8,8,0,0,0-5-5c-1.93-.55-4.72-.43-6.23,1.25-1.66,1.85-1.08,4.83-.83,6.23,1.28,6.92,3.77,20.51,2.49,31.14-.46,3.9-1.29,6.1-1.24,11.21A47.23,47.23,0,0,0,378.5,294c2.66,12.11-2.73,24.72-3.32,39-.3,7.3.54,17.61,5.82,30.32l5.81-.42c1.33-2.72,2.66-6.63,1.66-10.8-.62-2.58-1.71-3.53-2.91-6.64-1.55-4-1.6-7.39-1.66-11.21a50.68,50.68,0,0,1,2.91-17.44q.62-17.64,1.24-35.29-.62-6.24-1.24-12.46a27.86,27.86,0,0,1-2.49-19.52Z" fill="#fcd2b1"/><path d="M251.05,291.24H112.27l-.74,2.72c.65,12.54,1.71,15.21,3.83,15.35l.14.25c1.43,0,2-1.16,2.54-2.18a9.46,9.46,0,0,1,.94-1.62c1.79-2.38,6.33-2.85,9.35-2.85a66.35,66.35,0,0,1,6.91.62v0c7.58,1.63,41.69,3.24,111.81,5.37v.1l1.89,0,1.9,0v-.1c68.22-2.13,103.64-3.74,113.57-5.37l.22,0a39.49,39.49,0,0,1,6.36-.59c3,0,7,.5,8.79,2.88a9.37,9.37,0,0,1,1,1.68c.49,1,1.11,2.31,2.54,2.31h.14c2.1-.14,3.15-3.29,3.83-15.83l.1-2.73Z" fill="#fcd2b1"/></svg>