<svg xmlns="http://www.w3.org/2000/svg" viewBox="0 0 500 500"><path d="M146.65,374.84c.28-2.84,4.06-41.55,4.33-44.51s-14.3.09-14.3.09l.6,1.12s1.45,16.35,3.85,43.3Z" fill="#fcd2b1"/><path d="M353.69,374.6c-.27-2.84-4.06-41.55-4.32-44.51s14.3.09,14.3.09l-.61,1.11s-1.44,16.36-3.85,43.31Z" fill="#fcd2b1"/><rect x="139.36" y="281.82" width="223.31" height="51.15" fill="#8750d6"/><path d="M356.61,222.19l-.07-19.8s.57-49.56-6-77.3a8.9,8.9,0,0,0-1.13-2.61l-.13-.18-.05-.06a5.25,5.25,0,0,0-4.1-1.77H154.6a5.27,5.27,0,0,0-4.1,1.77s0,0,0,.06a1.1,1.1,0,0,0-.14.18,8.9,8.9,0,0,0-1.13,2.61c-6.59,27.74-6,77.3-6,77.3l-.07,19.8v69H356.61Z" fill="#7d38ce"/><path d="M356.09,304.56,356,222.1A613.07,613.07,0,0,1,251.93,233c-56.69-.27-108-11-108-11l-.06,82.46H242v0Z" fill="#6128b2"/><path d="M354.52,300.15c0,2.4-2.27,4.35-5.07,4.35H150.54c-2.8,0-5.06-1.95-5.06-4.35V276.27c0-2.4,2.26-4.35,5.06-4.35H349.45c2.8,0,5.07,1.95,5.07,4.35Z" fill="#6128b2"/><path d="M260,239.35h-20C164,241,148.68,253.66,145.72,257.72H354.4C351.44,253.66,336.12,241,260,239.35Z" fill="#9f74e2"/><rect x="145.52" y="254.52" width="208.99" height="40.53" fill="#8750d6"/><path d="M138.08,180.22h-5.79a6,6,0,0,0-5.32,2.72h0l-.07.13c0,.09-.07.17-.11.25-.17.38-.45,1-.77,1.8a23.59,23.59,0,0,0-1,2.63c-.14.39-.26.78-.37,1.16,0,0,0,.05,0,.08-3.59,12.61-4.73,38.86-4.46,68.53a463.93,463.93,0,0,0,6.41,72.12l0-.07c.53,2,2.87,3.5,5.68,3.5h5.79c3.2,0,5.79-1.94,5.79-4.34V184.56C143.87,182.17,141.28,180.22,138.08,180.22Z" fill="#6f34c1"/><path d="M361.92,180.12h5.79a6,6,0,0,1,5.32,2.71h0l.07.14c0,.08.07.16.11.25.17.38.44,1,.77,1.8a24.15,24.15,0,0,1,1,2.62c.14.4.26.79.37,1.16,0,0,0,.06,0,.09,3.59,12.6,4.73,38.86,4.46,68.53a463.88,463.88,0,0,1-6.41,72.11l0-.06c-.52,2-2.86,3.5-5.67,3.5h-5.79c-3.2,0-5.79-2-5.79-4.34V184.46C356.13,182.06,358.72,180.12,361.92,180.12Z" fill="#6f34c1"/></svg>