<svg xmlns="http://www.w3.org/2000/svg" viewBox="0 0 500 500"><polygon points="434.4 339.84 426.6 333.17 426.6 321.22 434.9 323.74 434.4 339.84" fill="#bd9e85"/><rect x="434.4" y="326.51" width="25.41" height="13.33" transform="translate(894.2 666.34) rotate(180)" fill="#fcd2b1"/><polygon points="63.34 339.84 71.14 333.17 71.14 321.22 62.84 323.74 63.34 339.84" fill="#bd9e85"/><rect x="37.93" y="326.51" width="25.41" height="13.33" fill="#fcd2b1"/><polygon points="39.44 198.21 70.76 201.23 89.59 199.29 98.69 197.08 71.45 197.45 39.44 198.21" fill="#807f81"/><polygon points="39.44 198.21 70.76 201.23 89.59 199.29 98.69 197.08 71.45 197.45 39.44 198.21" fill="#807f81"/><polygon points="237.93 150.66 271.13 150.66 271.13 293.3 227.36 293.3 237.93 150.66" fill="#807f81"/><polygon points="457.16 198.21 425.84 201.23 407.01 199.29 397.92 197.08 425.15 197.45 457.16 198.21" fill="#807f81"/><path d="M20.57,275.19v44.52a6.8,6.8,0,0,0,6.8,6.8H468.86a6.79,6.79,0,0,0,6.79-6.8V275.19Z" fill="#aaa8ab"/><polygon points="20.39 235.19 37.08 228.4 71.85 226.32 108.12 223.11 248.49 223.11 248.49 238.96 20.39 235.19" fill="#edecea"/><path d="M36.42,200.85v29.81H72.65V200.85A2.41,2.41,0,0,0,70,198.21H39.44C37.77,198.21,36.42,199.18,36.42,200.85Z" fill="#aaa8ab"/><polygon points="72.65 198.21 102.83 198.21 102.83 225.75 72.65 230.66 72.65 198.21" fill="#807f81"/><polygon points="476.78 235.19 461.69 228.4 426.22 226.32 390 223.11 248.49 223.11 248.49 238.96 476.78 235.19" fill="#edecea"/><path d="M461.31,200.85v30.56H425.09V200.85c0-1.67,1.35-2.64,3-2.64h30.56A2.41,2.41,0,0,1,461.31,200.85Z" fill="#aaa8ab"/><polygon points="425.09 198.21 394.9 198.21 394.9 225.75 425.09 231.41 425.09 198.21" fill="#807f81"/><path d="M76.13,148.19l-7.47,45.95a2.84,2.84,0,0,0,2.79,3.31H92.37a2.83,2.83,0,0,1,2.8,2.48l3.16,23.73a2.84,2.84,0,0,0,2.81,2.47h144c1.56,0,1.88-1.27,1.88-2.85V146.85c0-1.62-.87-2.92-2.48-2.85l-70.43,3.13c-2.07.09-4,.12-6.11.09L78.91,145.8A2.76,2.76,0,0,0,76.13,148.19Z" fill="#e5e3e4"/><path d="M422,148.19l7.41,45.95a2.83,2.83,0,0,1-2.77,3.31H405.93a2.82,2.82,0,0,0-2.79,2.48L400,223.66a2.82,2.82,0,0,1-2.79,2.47H254.33c-1.56,0-3.58-1.27-3.58-2.85V146.85a3.18,3.18,0,0,1,3.32-2.85l70.33,3.13c2.06.09,4.21.12,6.28.09l88.49-1.42A2.86,2.86,0,0,1,422,148.19Z" fill="#e5e3e4"/><path d="M480.94,269.78a5.39,5.39,0,0,1-5.38,5.41H255.37a5.39,5.39,0,0,1-5.37-5.41V240.59a5.38,5.38,0,0,1,5.37-5.4H475.56a5.39,5.39,0,0,1,5.38,5.4Z" fill="#cac4c8"/><path d="M247.74,240.59a5.09,5.09,0,0,0-5-5.4H21.43a5.39,5.39,0,0,0-5.38,5.4v29.19a5.39,5.39,0,0,0,5.38,5.41h221.3a5.09,5.09,0,0,0,5-5.41Z" fill="#cac4c8"/></svg>