<svg xmlns="http://www.w3.org/2000/svg" viewBox="0 0 2745 1830"><rect width="2745" height="1830" fill="#bbf2e0"/><path d="M994.39,1250.05s-11.41-13.87,8.44-23.16,82-40.49,92-34.89-53.93,61.42-62.76,65.57S994.39,1250.05,994.39,1250.05Z" fill="#ffe4ce"/><polygon points="910.03 1321.95 914.7 1357.77 1037.48 1338.49 1069.87 1299.63 910.03 1321.95" fill="#ffe4ce"/><path d="M1620.51,1524.51H1070.2c3-12.75,6-24.52,8.85-34.86,26.84-97.38,46.6-151.77,46.6-151.77l437.5,2.44s23,51.79,48.92,149.45C1614.78,1500.11,1617.68,1511.82,1620.51,1524.51Z" fill="#68818e"/><path d="M1575.61,792.85s-2.48,35-1.28,65.12,27.15,85.68,16.88,149.59-40.09,211.66-25.62,330.32c-48.35,46.53-357.17,55.57-439.94,0,14.47-118.66-15.36-266.41-25.62-330.32S1115.7,888.11,1116.91,858s-1.27-65.12-1.27-65.12Z" fill="#e9f0f4"/><path d="M1732,1210.77c3.62-12.06,22.91-37.38,24.11-67.53s-43.41-231.51-54.33-322-28.87-139.87-65-160.37S1511.5,644,1486.17,621.1c-32.73-38.45-126.36-37.23-210.52-42.18-24.45-15.12-38,12.25-53.06,33.76-25.32,22.91-135,27.74-171.22,48.24s-54.12,69.93-65,160.37-82.07,313.21-80.87,343.35,23.8,47,27.42,59c24.66,14.89,46.55,9.5,74.75,0,20.48-6.89,46.61-13.42,68.24-28.22l-11.85-62.9L1097.63,1007l484.31,55.81Z" fill="#e9f0f4"/><path d="M1324.59,197.65s75.34-34.17,146.8-4.66c39.62,16.31,50.49,5.44,84.67,31.85,21.75,17.09,42.72,58.26,42.72,58.26s19.42,39.61,16.31,60.58c-3.11,23.31-15.53,32.63-28.74,46.61-10.87,10.87-24.08,28-24.08,28L1281.87,447s-.78,34.95-8.55,67.58c-7,28.74-15.53,47.38-24.08,55.92s-15.53,6.22-18.64,11.66c-6,21-25.63,42.72-29.52,43.49-9.32,1.56-36.3,7.11-36.3,7.11s-3.31.66-1-21.09,10.87-43.49,10.87-43.49-12.42,10.09-25.63,12.42c-17.87,2.33-24.08-10.1-24.08-10.1s24.86-4.66,38.84-32.62,16.31-79.23,16.31-79.23-25.63-43.5-14.76-111.07c10.88-69.13,48.94-132,66.8-149.14,14-14,35.73-26.41,52.82-24.08C1307.5,177.46,1324.59,197.65,1324.59,197.65Z" fill="#e82d5e" fill-rule="evenodd"/><path d="M1258.56,602.34c38.84-41.94,39.62-146.81,39.62-146.81a55.74,55.74,0,0,1-22.53-14c-7.77-7.76-15.53-21.75-15.53-30.29-.78-50.49,38.83-34.95,38.83-34.95s39.62,17.86,61.37,14.75,32.62-28,32.62-28,.78,1.56,13.21-9.32,26.41-33.4,38.06-41.17c23.3-16.31,90.1-3.88,92.43,10.1,1.56,7.77,6.21,22.53,14,39.61,5.44,11.66,17.87,24.86,17.87,24.86s-7,32.62-7.77,46.61c-1.55,23.3-2.33,49.71-14,75.34-10.1,21.75-24.08,47.38-38.06,63.7a165.13,165.13,0,0,1-38.06,31.84l-34.18-3.88-6.21,26.41,7.17,25.63-63.1,71.84c-12.73-22.08-31.25-39.57-58.37-50.24C1315.93,674.43,1239.14,623.31,1258.56,602.34Z" fill="#ffe4ce" fill-rule="evenodd"/><path d="M1460.67,608.23c-25.4,0-60.46-19-86.26-41.27-22-18.85-30.72-35-41.52-57.4a4.58,4.58,0,1,1,8.25-4c10.3,21.39,18.59,36.74,39.24,54.44,28.62,24.75,70.42,45.46,90.87,37.29,31.66-13.37,65.62-68.19,78.88-111.28,3.87-12.76,4.73-27.51,5.63-43.12.85-14.44,1.71-29.38,5.19-42.9a5.22,5.22,0,0,1,.18-.56,56.51,56.51,0,0,0,2.53-9.9l.34-1.72a4.57,4.57,0,0,1,9,1.79l-.33,1.67a65.81,65.81,0,0,1-2.9,11.27c-3.2,12.6-4,27-4.84,40.88-.9,15.46-1.83,31.45-6,45.26-12,38.92-46,101-84.15,117.07A37.88,37.88,0,0,1,1460.67,608.23Z" fill="#571519"/><path d="M1305.17,461.67a5,5,0,0,1-.85-.08c-28.92-5.43-43.47-28.77-47.14-47.1-2.39-12.42,2-30.54,14.81-39.72,8.08-5.8,22.29-10.12,44,2.22a4.57,4.57,0,1,1-4.52,7.95c-13.85-7.87-25.65-8.81-34.13-2.73-9.37,6.71-13,20.79-11.16,30.52,3.1,15.5,15.41,35.28,39.85,39.86a4.58,4.58,0,0,1-.84,9.08Z" fill="#571519"/><path d="M1300.51,424.38a4.56,4.56,0,0,1-4-2.27c-1.88-3.2-6-8.95-9.2-10.76a4.58,4.58,0,0,1,4.54-8c6.32,3.62,11.94,13,12.56,14.1a4.56,4.56,0,0,1-1.65,6.25A4.46,4.46,0,0,1,1300.51,424.38Z" fill="#571519"/><path d="M1481.49,496.62a4.57,4.57,0,0,1-1.8-8.78c3.51-1.52,13.54-7.3,13.54-13.66a3,3,0,0,1,0-.42c.15-1.68-.67-2.8-3-5.59-3.32-3.89-7.86-9.21-7.86-19.63,0-6.35,2.67-16.48,6.63-25.19a4.57,4.57,0,0,1,8.33,3.78c-4,8.78-5.81,17.25-5.81,21.41,0,7,2.76,10.28,5.67,13.7,2.64,3.1,5.63,6.6,5.21,12.14-.17,13.38-17.14,21-19.09,21.87A4.57,4.57,0,0,1,1481.49,496.62Z" fill="#571519"/><path d="M1419.35,427.57c.78-10.1,5.44,0,12.43,0s13.2-8.54,13.2,1.55c-.77,10.1-6.21,17.87-13.2,17.09C1424,445.44,1419.35,436.89,1419.35,427.57Z" fill="#571519" fill-rule="evenodd"/><path d="M1436.82,431.29a65.44,65.44,0,0,1-28.06-6.62,4.57,4.57,0,1,1,4.09-8.18c9.78,4.89,24.68,7.92,36,3.69a4.58,4.58,0,0,1,3.21,8.57A43.39,43.39,0,0,1,1436.82,431.29Z" fill="#571519"/><path d="M1457.86,397.69c-10.65,0-21.84-5.44-32.07-10.42-8.7-4.23-17.69-8.6-23.43-7.8a4.57,4.57,0,0,1-1.27-9.06c8.48-1.2,18.31,3.58,28.7,8.63,13.14,6.4,26.74,13,36.65,7.33a4.57,4.57,0,0,1,4.54,7.94A25.92,25.92,0,0,1,1457.86,397.69Z" fill="#571519"/><path d="M1518,433c.78-9.32,4.66,0,10.87.78s12.43-7,11.65,1.55-7,16.31-13.2,15.53S1517.22,441.55,1518,433Z" fill="#571519" fill-rule="evenodd"/><path d="M1531,436.55a45.24,45.24,0,0,1-17.22-3.24,4.58,4.58,0,0,1,3.72-8.37c6.06,2.7,19.19,3.86,26-.45a4.57,4.57,0,0,1,4.91,7.72C1543.46,435.37,1537.13,436.55,1531,436.55Z" fill="#571519"/><path d="M1565.38,405.74a4.43,4.43,0,0,1-1.29-.19c-8.64-2.54-17.56-1.64-25.43-.85-10.82,1.08-22,2.21-25.17-9.06a4.57,4.57,0,0,1,8.81-2.47c.94,3.36,4.32,3.54,15.45,2.42,8.27-.83,18.56-1.86,28.92,1.18a4.58,4.58,0,0,1-1.29,9Z" fill="#571519"/><path d="M1497.84,538.56h-.37a60.59,60.59,0,0,1-10.85-2.3c-10.34-2.82-24.5-6.69-50.4-.9a4.58,4.58,0,1,1-2-8.93c28.12-6.28,44.19-1.9,54.81,1a53.47,53.47,0,0,0,9.18,2,4.57,4.57,0,0,1-.37,9.13Z" fill="#571519"/><path d="M1373.61,367.32c-13.07,0-25-3.53-31.53-8.3a4.57,4.57,0,1,1,5.41-7.37c9.47,6.94,42.75,13,61.52-7.2,3.75-4,8.39-10.48,13.3-17.3,15.18-21.07,34.17-47.27,55.44-46.23,11.17.55,21.34,8.61,30.22,24a4.57,4.57,0,1,1-7.91,4.59c-7.23-12.49-14.89-19-22.76-19.41-16.41-.85-34.42,24.18-47.56,42.44-5.31,7.36-9.88,13.72-14,18.18C1404.41,362.86,1388.3,367.32,1373.61,367.32Z" fill="#571519"/><path d="M1348.33,390.44a38.72,38.72,0,0,1-13-2.1,4.57,4.57,0,0,1,3.27-8.54c.79.29,17.78,6.36,32.42-8.28a4.57,4.57,0,1,1,6.47,6.47C1367.5,388,1356.56,390.44,1348.33,390.44Z" fill="#571519"/><path d="M1576.25,395.64a4.54,4.54,0,0,1-2.46-.72c-22.89-14.65-29-33.82-33.83-49.23-3.87-12.23-6.93-21.89-16.53-27.59a4.58,4.58,0,0,1,4.67-7.87c12.6,7.49,16.48,19.73,20.59,32.7,4.88,15.45,9.94,31.42,30,44.28a4.58,4.58,0,0,1-2.47,8.43Z" fill="#571519"/><path d="M1561.5,428.26a4.88,4.88,0,0,1-.93-.09,4.56,4.56,0,0,1-3.55-5.41c2.33-11.26,12.68-21.64,23.64-32.64,13.34-13.37,27.13-27.2,29.11-43.87,2.17-15.19-2.7-44.54-38.12-98.71-5-8.12-37.38-46.34-72.4-34.67a4.57,4.57,0,1,1-2.89-8.68c40.51-13.51,76.32,27.56,83,38.45,29.63,45.3,42.93,80.59,39.48,104.8-2.35,19.7-17.95,35.35-31.71,49.15-10,10-19.39,19.43-21.16,28A4.58,4.58,0,0,1,1561.5,428.26Z" fill="#571519"/><path d="M1263.22,402.63a4.59,4.59,0,0,1-4.33-3.09c-22.25-64.84-17.91-125.7,11.63-162.79,45.9-59.36,135.41-78.24,212.78-44.85a4.57,4.57,0,0,1-3.62,8.4c-73.6-31.77-158.54-14.05-202,42.1-27.62,34.68-31.41,92.3-10.17,154.17a4.57,4.57,0,0,1-2.84,5.81A4.53,4.53,0,0,1,1263.22,402.63Z" fill="#571519"/><path d="M1231.37,584.39a4.58,4.58,0,0,1-.35-9.14c24.47-1.88,42.79-50.55,47.83-127a4.57,4.57,0,0,1,9.13.6c-2.61,39.65-13.32,132.23-56.25,135.54Z" fill="#571519"/><path d="M1212.73,493.51a4.64,4.64,0,0,1-1.55-.27c-2.87-1-70.15-27-45.67-163.57,18.82-101.15,79.91-158.85,107.38-161.43,29.46-2.67,47.8,15.56,56.13,26.67a4.58,4.58,0,0,1-7.32,5.49c-7.18-9.58-23-25.3-48-23.05-19.78,1.86-80.26,52-99.23,154-16.11,89.89,9.54,129,26.59,144.37-6.42-15.09-14.93-40.66-17.78-74.92a4.58,4.58,0,1,1,9.12-.76c4.5,54,24,86.2,24.19,86.52a4.58,4.58,0,0,1-3.9,7Z" fill="#571519"/><path d="M1226.27,606.37a4.58,4.58,0,0,1-4.57-4.41c-.72-20.76,7.17-42.48,21.06-73a4.58,4.58,0,1,1,8.33,3.79c-13.32,29.25-20.9,49.9-20.24,68.86a4.59,4.59,0,0,1-4.42,4.73Z" fill="#571519"/><path d="M1203.15,627.54a4.58,4.58,0,0,1-4.3-3c-7.46-20.8-1.7-49.08-1.45-50.27a4.57,4.57,0,1,1,8.95,1.86c0,.27-5.47,27,1.11,45.32a4.57,4.57,0,0,1-2.76,5.85A4.64,4.64,0,0,1,1203.15,627.54Z" fill="#571519"/><path d="M1162.28,638.12a4.58,4.58,0,0,1-4.57-4.41c0-.88,0-1.76,0-2.63,0-29.54,5.39-44.47,11.63-61.75a269.94,269.94,0,0,0,11-36.33,4.57,4.57,0,0,1,8.93,2,280.24,280.24,0,0,1-11.31,37.46c-6.2,17.15-11.09,30.71-11.09,58.64,0,.76,0,1.53,0,2.3a4.57,4.57,0,0,1-4.41,4.74Z" fill="#571519"/><path d="M1149,584.88c-15.66,0-28.08-11.28-28.65-11.8a4.58,4.58,0,0,1,4-7.84c.74.13,19.43,3.23,33.81-25.53,17.14-34.28,16.62-81.3,16.61-81.77a4.58,4.58,0,0,1,4.5-4.65h.08a4.57,4.57,0,0,1,4.57,4.5c0,2,.58,49.7-17.57,86-9.35,18.69-20.77,26.18-29.62,29.05a28.34,28.34,0,0,0,15.14,2.7c7.72-1,14.62-6.15,20.52-15.3a4.57,4.57,0,0,1,7.69,5c-7.44,11.55-16.56,18.09-27.11,19.43A32.1,32.1,0,0,1,1149,584.88Z" fill="#571519"/><path d="M1229.82,424.38a4.52,4.52,0,0,1-2.86-1c-42.14-33.87-30.52-112.82-17-154.12a4.58,4.58,0,1,1,8.7,2.84c-11.9,36.39-24.27,113.34,14,144.15a4.57,4.57,0,0,1-2.87,8.14Z" fill="#571519"/><path d="M1274.09,587.5a4.58,4.58,0,0,1-4-6.72C1286,550.7,1292.71,490.66,1294.4,473a4.58,4.58,0,0,1,9.11.86c-1.73,18.12-8.66,79.67-25.37,111.23A4.58,4.58,0,0,1,1274.09,587.5Z" fill="#571519"/><path d="M1427.12,648.86l-.53,0a4.58,4.58,0,0,1-4-5.07,233.59,233.59,0,0,1,9.53-42.09,4.57,4.57,0,0,1,8.68,2.89,228.85,228.85,0,0,0-9.12,40.25A4.58,4.58,0,0,1,1427.12,648.86Z" fill="#571519"/><path d="M1481.24,405.74a4.58,4.58,0,0,1-3-8c1.7-1.47,2.76-5.59,3-7.24a4.58,4.58,0,0,1,9.08,1.21c-.12.89-1.3,8.83-6.07,12.95A4.56,4.56,0,0,1,1481.24,405.74Z" fill="#571519"/><path d="M1366.09,1356.42H1366a4.57,4.57,0,0,1-4.45-4.7c1.75-64.11,4.22-309.59,2.41-356-.82-21-.29-67.71.27-117.13.68-60.16,1.38-122.37-.26-144.37-2.2-29.5-18.72-39-41.59-52.15-6.32-3.64-12.85-7.39-19.67-11.9C1268.81,647.8,1253.6,612,1253,597.81a4.57,4.57,0,0,1,9.14-.4c.53,12.18,14.86,44.83,45.58,65.12,6.59,4.34,13,8,19.19,11.59,23.39,13.46,43.59,25.07,46.16,59.41,1.67,22.39,1,84.8.28,145.16-.56,49.3-1.08,95.86-.27,116.66,1.81,46.55-.66,292.43-2.41,356.62A4.58,4.58,0,0,1,1366.09,1356.42Z" fill="#571519"/><path d="M1581.94,1062.8c2.41,4.82,35.45,124.69,76.44,160.86s93.56,30.52,128.53-41.83,84.42-179.86,97.67-192.93L1770.69,993l-25.28,43.41Z" fill="#e9f0f4"/><path d="M2337.39,1529.09H431.08a4.58,4.58,0,1,1,0-9.15H2337.39a4.58,4.58,0,0,1,0,9.15Z" fill="#571519"/><path d="M932.86,1228.24a4.58,4.58,0,0,1-4.38-3.27c-1-3.28-4.12-7.59-7.76-12.59-8-11-19-26.08-19.82-47.56-.58-14.39,13.32-66,30.91-131.39,20.66-76.72,44.06-163.68,50-212.67,11.56-95.83,31.07-143.3,67.31-163.84,17.48-9.89,49.63-15.93,83.67-22.32,32.09-6,65.28-12.26,81.4-21.55a4.58,4.58,0,1,1,4.57,7.93c-17.48,10.06-49.93,16.16-84.28,22.61-31.81,6-64.7,12.15-80.85,21.3-33.39,18.91-51.56,64.39-62.74,157-6,49.64-29.49,136.94-50.22,214-16,59.47-31.13,115.65-30.6,128.65.73,18.7,10.35,31.91,18.07,42.53,4.14,5.68,7.7,10.59,9.13,15.36a4.58,4.58,0,0,1-3.08,5.69A4.3,4.3,0,0,1,932.86,1228.24Z" fill="#571519"/><path d="M1740.41,1040.34a4.59,4.59,0,0,1-4.5-3.74c-3.73-20-7.92-41.54-12-62.36-10.81-55.58-22-113.06-26.74-152.39-11.18-92.57-29.35-138.05-62.74-157-16.16-9.15-49-15.32-80.85-21.29-25.32-4.75-51.51-9.66-69.9-16.21a4.58,4.58,0,0,1,3.07-8.62c17.71,6.3,43.54,11.15,68.52,15.84,34,6.38,66.19,12.42,83.67,22.31,36.24,20.54,55.74,68,67.31,163.84,4.72,39,15.86,96.31,26.64,151.73,4,20.84,8.25,42.38,12,62.43a4.57,4.57,0,0,1-3.66,5.34A4.78,4.78,0,0,1,1740.41,1040.34Z" fill="#571519"/><path d="M1706.08,1250c-19.45,0-38.88-7.88-55.91-22.91-35.61-31.41-61.26-123-69.69-153.12-1.22-4.35-2.37-8.46-2.69-9.25a4.52,4.52,0,0,1,2.07-6.08,4.65,4.65,0,0,1,6.17,2.11c.55,1.1,1.17,3.3,3.26,10.75,8.25,29.46,33.35,119.11,66.93,148.73,19,16.76,41.1,23.64,62.25,19.39,25.68-5.18,47.92-25.85,64.32-59.78,7.19-14.87,15-31.22,23-47.94,31.72-66.52,64.52-135.31,75.62-146.26a4.58,4.58,0,1,1,6.42,6.52c-10,9.82-45.35,84-73.78,143.68-8,16.73-15.78,33.1-23,48-22.35,46.25-50.81,60.75-70.75,64.77A71.75,71.75,0,0,1,1706.08,1250Z" fill="#571519"/><path d="M1771.56,827.32l137.06,100.82,14.68,18.76-49,86.55s-50.53-33-103.64-40.45L1713,1012.49l-75-5.5s51.58-69.58,73.91-87,49.76-80.5,49.76-80.5Z" fill="#fff"/><path d="M1674.16,1169.22a4.59,4.59,0,0,1-4.57-4.31c-.1-1.81-2.26-44.66,22.72-75.49,28-34.52,76.68-98.24,77.17-98.88a4.58,4.58,0,1,1,7.27,5.56c-.49.64-49.28,64.46-77.33,99.08-22.72,28-20.71,68.8-20.69,69.2a4.58,4.58,0,0,1-4.31,4.83Z" fill="#571519"/><path d="M1874.33,1038a4.64,4.64,0,0,1-2.39-.67c-63.16-38.52-106.41-40.27-106.85-40.28a4.58,4.58,0,0,1,.14-9.15h.12c1.81,0,43.93,1.61,107,39,7.4-15.52,33-65.47,71.81-101.38a4.58,4.58,0,0,1,6.21,6.72c-44.09,40.78-71.54,102.43-71.82,103a4.56,4.56,0,0,1-4.18,2.73Z" fill="#571519"/><path d="M1276.25,748.69a4.53,4.53,0,0,1-1.1-.13,4.61,4.61,0,0,1-3.23-2.95c-1.37-4-2.88-9.48-4.63-15.84-6.28-22.78-15.76-57.2-34.42-82.79-4-5.43-7.53-9.79-10.68-13.65-7-8.5-11.56-14.12-10.78-20.57.65-5.29,4.85-9.06,8.44-11.75A76.68,76.68,0,0,0,1234,587.66a89.62,89.62,0,0,1,12.24-12.26c12.12-10,26.35-4.49,32.18-.15a4.58,4.58,0,0,1-5.45,7.35c-.49-.36-11.33-8.08-20.89-.16a81.19,81.19,0,0,0-11.13,11.17,85.82,85.82,0,0,1-15.57,14.72c-3,2.28-4.67,4.14-4.84,5.53-.31,2.58,3.69,7.48,8.77,13.68,3.07,3.75,6.88,8.41,11,14.05,19.65,26.93,29.39,62.33,35.85,85.75.85,3.1,1.65,6,2.39,8.57,9.08-8,27-22.88,38.29-26,12.8-3.47,31.56,16.25,35.19,20.24a4.57,4.57,0,1,1-6.76,6.16c-7.55-8.28-20.79-19-26-17.57-10.59,2.89-32.34,21.68-39.83,28.68A4.55,4.55,0,0,1,1276.25,748.69Z" fill="#571519"/><path d="M1394.42,740.25a4.57,4.57,0,0,1-4.24-6.29c1-2.4,9.93-23.3,24.12-20.24,8.94,1.92,30.73,7.67,39.88,10.1.81-2.31,1.7-4.83,2.65-7.52,6.48-18.33,16.26-46,22.24-69.1,5.62-21.65,2-29-11.2-38.87a4.58,4.58,0,0,1,5.49-7.32c15.07,11.3,21.46,21.91,14.57,48.49-6.08,23.44-15.94,51.37-22.47,69.84-1.53,4.34-2.9,8.22-4,11.49a4.59,4.59,0,0,1-5.51,2.93c-.32-.09-32.56-8.73-43.54-11.09-5.21-1.15-11.64,9.64-13.73,14.73A4.56,4.56,0,0,1,1394.42,740.25Z" fill="#571519"/><path d="M1369.2,755.32a4.68,4.68,0,0,1-1.16-.15,4.57,4.57,0,0,1-3.27-5.58c1.2-4.61,2-8.9,2.81-13.05,3.19-16.82,6-31.35,31.39-50.57,24.56-18.56,30.76-32,31.63-40.09.7-6.57-2.11-9.94-2.23-10.08a4.63,4.63,0,0,1,.39-6.43,4.53,4.53,0,0,1,6.37.27c.57.61,5.53,6.28,4.62,16.64-1.27,14.46-13.14,30.27-35.26,47-22.63,17.1-24.85,28.79-27.92,45-.82,4.3-1.66,8.74-2.94,13.65A4.58,4.58,0,0,1,1369.2,755.32Z" fill="#571519"/><path d="M1125.66,1342.45a5.25,5.25,0,0,1-.56,0,4.59,4.59,0,0,1-4-5.1c12.68-103.93-8.55-228.5-21.23-302.93-1.66-9.75-3.15-18.52-4.37-26.11-7-43.9,2.78-84.55,10-114.23,3.48-14.41,6.49-26.86,6.87-36.27,1.18-29.55-1.24-64.26-1.27-64.61a4.58,4.58,0,0,1,9.13-.64c0,.35,2.48,35.57,1.28,65.62-.41,10.32-3.52,23.17-7.12,38.05-7.38,30.54-16.57,68.55-9.81,110.63,1.21,7.57,2.7,16.3,4.35,26,12.77,74.93,34.13,200.32,21.29,305.58A4.57,4.57,0,0,1,1125.66,1342.45Z" fill="#571519"/><path d="M1345.36,1381c-90.19,0-181.67-12.06-222.26-39.3a4.58,4.58,0,0,1,5.1-7.6c79.73,53.52,380.53,45.85,432.57,2-12.23-104.77,8.9-228.86,21.57-303.21,1.66-9.73,3.14-18.46,4.36-26,6.76-42.09-2.44-80.1-9.82-110.65-3.6-14.88-6.71-27.72-7.12-38-1.2-30,1.25-65.27,1.28-65.62a4.58,4.58,0,0,1,9.13.64c0,.35-2.45,35.08-1.26,64.61.37,9.41,3.38,21.86,6.86,36.26,7.18,29.69,17,70.34,10,114.24-1.21,7.59-2.71,16.36-4.37,26.11-12.68,74.43-33.9,199-21.23,302.93a4.54,4.54,0,0,1-1.37,3.85C1542.64,1366.31,1444.79,1381,1345.36,1381Z" fill="#571519"/><path d="M1064,1137.11a4.43,4.43,0,0,1-.81-.07,4.57,4.57,0,0,1-3.7-5.31c9-50.37,33.52-125.42,33.77-126.17a4.57,4.57,0,1,1,8.69,2.85c-.25.75-24.59,75.19-33.46,124.93A4.56,4.56,0,0,1,1064,1137.11Z" fill="#571519"/><path d="M631.74,1315.67s212.34-28.79,307.48-95.36l113.61,21.42c28.6-21.52,48-50.09,63.65-81.61,68.53-45.42,159.84-70.81,260.46-88-54.91,56.27-94.94,122.82-122.12,198.23,0,0-175.78,58.56-364.71,70.54C793.47,1347,700.72,1337.88,631.74,1315.67Z" fill="#fff"/><path d="M1647.7,995.38c-83.28,15-145.09,50.78-182.23,88.78,0,0,65.87-31.56,137.89-18.8,0,0,96.13-55.66,207.06-87.16Z" fill="#fff"/><path d="M1075.86,1200a4.57,4.57,0,0,1-4.5-3.81c-.06-.33-5.72-33.69-11.8-60.38-3-13.31-47.91-12.75-74.71-12.43-13.45.16-25.06.31-32-.8a4.58,4.58,0,1,1,1.43-9c6.19,1,17.45.85,30.48.69,37.06-.44,79.06-1,83.74,19.54,6.14,27,11.84,60.56,11.9,60.89a4.58,4.58,0,0,1-3.75,5.28A5,5,0,0,1,1075.86,1200Z" fill="#571519"/><path d="M839.47,1347.55c-76.53,0-164.08-12.23-209.2-27.54a4.58,4.58,0,0,1,.87-8.87c1.71-.23,173.19-23.85,305.93-94.86a4.61,4.61,0,0,1,3.67-.29c.63.23,54.16,18.79,107.2,23.19,41.72-21.78,64-80.07,64.26-80.67a4.53,4.53,0,0,1,2-2.32c80.32-47.59,166.09-76.58,262.22-88.63a4.57,4.57,0,0,1,3.74,7.83c-64.48,62.14-117.17,195.67-118.27,198.5-.06.14-.11.27-.18.4h0v0h0v0h0l-.07.13h0v0h0a4.59,4.59,0,0,1-2.6,2.09c-85.66,26.91-278.43,58.38-357.76,67.71A537.54,537.54,0,0,1,839.47,1347.55Zm-187-30.55c62.46,16,173.8,26.92,247.59,18.25,76.18-9,257.27-38.38,346.47-64.44-33.4-17.3-107.66-24.09-169.11-21.71-57.54,2.22-125.39-19.62-137.84-23.82C832.73,1282,701.91,1308.49,652.51,1317Zm446.94-77.46c52.94,0,124.16,6.47,156,25.76,10.06-24.75,53.7-127.29,108.95-186.9-89,12.75-169,40.57-244.2,84.86-3.56,8.89-22.27,52.44-56.26,76.78,4.45.11,8.86.09,13.19-.08C1084,1239.69,1091.53,1239.54,1099.45,1239.54Z" fill="#571519"/><path d="M1070.21,1529.09a4.19,4.19,0,0,1-1-.13,4.56,4.56,0,0,1-3.41-5.49c3-12.81,6-24.6,8.89-35,26.58-96.44,46.52-151.56,46.71-152.11a4.58,4.58,0,1,1,8.6,3.13c-.19.54-20,55.36-46.49,151.42-2.87,10.33-5.83,22-8.8,34.69A4.58,4.58,0,0,1,1070.21,1529.09Z" fill="#571519"/><path d="M911.65,1347.93s0,23.86,6.65,32,41.66-1,48.67-3.72,51-12.63,53-22.75c2-10.64-21.81-16.55-37-12.46s-50.23,10.82-50.23,10.82Z" fill="#ffe4ce"/><path d="M987.61,1370.11s33.48.12,39.32-3.78,40.89-32.7,42.83-40.1-22.19-11.68-37.76-2.72-23,15-23,15Z" fill="#ffe4ce"/><path d="M1059.54,1319c.73-.42,1.49-.85,2.26-1.31,21.2-17.19,39.28-12.58,37.87-5-2,10.84-37.11,44-42.94,47.87-3.47,2.29-16.56,3.21-26.71,3.54Z" fill="#ffe4ce"/><path d="M1058.57,1359.14s25-4,37.67-16.22c17.35-16.69,20.3-24.16,20.56-31.49.3-8.66-9.27-9.13-19.17-3.34Z" fill="#ffe4ce"/><path d="M1620.51,1529.09a4.58,4.58,0,0,1-4.46-3.58c-2.54-11.36-5.37-23-8.41-34.58-25.45-96.09-48.44-148.23-48.67-148.75a4.57,4.57,0,1,1,8.35-3.72c.24.52,23.51,53.25,49.17,150.14,3.07,11.7,5.93,23.45,8.49,34.91a4.58,4.58,0,0,1-3.47,5.47A4.86,4.86,0,0,1,1620.51,1529.09Z" fill="#571519"/><path d="M990.11,1239.1a4.5,4.5,0,0,1-2.35-.66,4.57,4.57,0,0,1-1.57-6.27c3.15-5.25,12.14-8.68,26.54-13.83,5.3-1.91,10.79-3.87,15.4-5.88,5.46-2.4,10.44-4.12,15.27-5.78,7.91-2.73,14.74-5.09,20.93-9.57,7.38-5.34,22.28-13.41,31.35-9.76a10.47,10.47,0,0,1,6.45,8.19,4.57,4.57,0,1,1-9,1.64c-.19-1.07-.55-1.21-.86-1.34-3.62-1.47-14.17,2.6-22.58,8.69-7.29,5.27-15.07,8-23.31,10.8-4.65,1.61-9.46,3.26-14.58,5.51-4.9,2.14-10.54,4.16-16,6.11-8,2.87-20.15,7.22-21.77,9.92A4.58,4.58,0,0,1,990.11,1239.1Z" fill="#571519"/><path d="M930.6,1387.85c-6.9,0-12.85-1.3-15.85-5-7.25-9-8-38.46-8.06-44.29a4.58,4.58,0,0,1,9.15-.11c.17,13.17,2.15,33.86,6,38.65,3.62,4.46,32.08-.69,43.45-5.12,1.72-.66,4.91-1.57,9.34-2.84,25.73-7.33,39.46-12.91,40.8-16.57.06-.32.23-1.2-1.31-2.63-4.75-4.42-19.2-7.4-30-4.49-15.18,4.09-49.12,10.62-50.56,10.9a4.57,4.57,0,0,1-1.72-9c.34-.07,35-6.75,49.9-10.75,13-3.5,31-.41,38.62,6.62,3.38,3.15,4.82,7.1,4.05,11.12-1.73,9-18,15.23-47.26,23.59-3.87,1.1-7.21,2-8.53,2.56C968.33,1380.62,946.86,1387.85,930.6,1387.85Z" fill="#571519"/><path d="M988.86,1374.69h-1.27a4.58,4.58,0,0,1,0-9.15c.26,0,.64,0,1,0,15.11,0,32.85-1.19,35.83-3,7.27-4.85,36.88-30,40.65-36.88-3.24-2.63-19.09-4.89-30.78,1.83-15,8.62-22.3,14.52-22.37,14.57a4.57,4.57,0,0,1-5.78-7.09c.31-.26,7.87-6.37,23.59-15.41,13.62-7.83,33.2-7,41-1.06,3.09,2.36,4.37,5.62,3.5,8.92-2.6,9.88-41,40.28-44.72,42.74C1023.4,1374.19,1000,1374.69,988.86,1374.69Z" fill="#571519"/><path d="M1030,1368.66a4.58,4.58,0,0,1-.15-9.15c16.53-.55,23.1-2,24.37-2.79,6.27-4.21,39.36-36.46,40.94-44.89a7.91,7.91,0,0,0-3-1.1c-5.7-1.06-15.92,1.17-27.49,10.55a6,6,0,0,1-.52.36c-.53.32-1.05.61-1.56.91l-.76.44a4.58,4.58,0,0,1-4.6-7.91l.81-.47,1.12-.65c16.78-13.48,32.55-14.78,40.14-10.25,3.77,2.25,5.58,5.91,4.85,9.81-2.53,13.48-40.19,47.68-44.88,50.82-1.49,1-5.35,3.53-29.11,4.31Z" fill="#571519"/><path d="M1058.56,1363.72a4.57,4.57,0,0,1-.72-9.09c.24,0,23.71-3.93,35.23-15,17.36-16.7,19-22.94,19.15-28.34.06-1.65-.44-2-.61-2-1.31-.79-5.64-.71-11.67,2.81a4.58,4.58,0,1,1-4.62-7.9c8.1-4.73,16-5.77,21-2.77,3.43,2.05,5.23,5.68,5.07,10.23-.31,8.84-4,17.34-22,34.61-13.6,13.08-39,17.28-40.12,17.45A4.49,4.49,0,0,1,1058.56,1363.72Z" fill="#571519"/><path d="M2113,875.38a4.6,4.6,0,0,1-4.6-4.58,4.54,4.54,0,0,1,4.54-4.57h0a4.58,4.58,0,0,1,0,9.15Z" fill="#571519"/><path d="M1996.87,845.37s29.19,101.65,5.25,124-104.47,9-116.64.61-12.69-14.07-12.69-14.07-34.26-1.94-34.26-12.12,8-19.08,8-19.08-13.7,1.17-11.16-4.79,38.46-14.86,38.46-14.86Z" fill="#ffe4ce"/><path d="M2004.56,761.6s85,16.88,164.59,101.89c0,0-125.4,4.22-268.89,86.82,0,0-82.6-107.32-135-123C1765.21,827.32,1918.35,804.41,2004.56,761.6Z" fill="#fff"/><path d="M1900.26,954.89a4.56,4.56,0,0,1-3.63-1.79c-.82-1.06-82.3-106.32-132.74-121.4a4.58,4.58,0,0,1,.64-8.91c1.52-.22,153.43-23.3,238-65.29a4.53,4.53,0,0,1,2.92-.39c3.53.71,87.37,18.15,167,103.26a4.58,4.58,0,0,1-3.18,7.7c-1.25,0-126,5.19-266.77,86.21A4.59,4.59,0,0,1,1900.26,954.89ZM1781.54,829.27c47.33,25,106.91,98.63,119.88,115.1,118.51-67.31,225.42-81.78,257.69-84.73-69.92-71.09-142.8-90.57-154-93.22C1935.37,800.58,1822.66,822.17,1781.54,829.27Z" fill="#571519"/><path d="M1885.48,936.59h0l-5.9,0c-25.32-.1-47.19-.19-48.67-13.74-.47-4.45.45-8.13,2.75-11,4.95-6.07,15.09-7.06,30.45-8.56a4.58,4.58,0,0,1,.92,9.11h0c-12.13,1.18-21.71,2.12-24.24,5.23-.46.56-1,1.59-.75,4.19.59,5.41,26,5.52,39.61,5.57l5.93,0a4.58,4.58,0,0,1,0,9.15Z" fill="#571519"/><path d="M1935.1,936.14a4.58,4.58,0,0,1-.41-9.14,472.89,472.89,0,0,0,47.36-6.75,4.57,4.57,0,1,1,1.82,9,483.26,483.26,0,0,1-48.36,6.91Z" fill="#571519"/><path d="M1850,896.73a4.86,4.86,0,0,1-.92-.09c-5.91-1.21-9.65-4.9-10.52-10.38,0,0,0-.32-.06-.33a4.71,4.71,0,0,1,3.8-5.35,4.44,4.44,0,0,1,5.2,3.64s0,.33,0,.35c.24,1.48.63,2.54,3.37,3.1a4.58,4.58,0,0,1-.92,9.06Z" fill="#571519"/><path d="M1950,989.57c-10.15,0-22-1.6-36.43-4.86l-3.73-.79c-18.55-3.9-30.81-6.48-33.73-24.12a4.58,4.58,0,0,1,9-1.5c1.81,11,7.42,12.64,26.59,16.67l3.8.8c21.88,4.93,37.06,5.89,49.28,3.13l2.35-.53c10.88-2.41,31.15-6.92,35.42-17.24,11.44-27.64-5.43-55.84-5.6-56.12a4.58,4.58,0,0,1,7.81-4.77c.8,1.32,19.44,32.5,6.24,64.39-6.08,14.72-28.5,19.7-41.89,22.67l-2.3.52A76,76,0,0,1,1950,989.57Z" fill="#571519"/><path d="M1927.67,967.46a160.57,160.57,0,0,1-28.79-2.71c-.87-.19-3.85-.64-7-1.12-18.66-2.84-39.13-6.15-45.95-9.57-5.27-2.38-8.73-6.57-9.59-11.73a16.63,16.63,0,0,1,5.36-14.75,4.57,4.57,0,1,1,6.25,6.68,7.61,7.61,0,0,0-2.58,6.58c.43,2.62,2.68,4.14,4.49,5,6.27,3.13,32.29,7.09,43.4,8.78,4.34.66,6.47,1,7.41,1.2,24.48,4.38,39.57,2.36,60.46-.44,6.92-.93,14.08-1.89,22.4-2.73a4.57,4.57,0,0,1,.92,9.1c-8.17.82-15.25,1.77-22.1,2.69C1950.21,966,1939.56,967.46,1927.67,967.46Z" fill="#571519"/><path d="M1465.48,1088.73a4.57,4.57,0,0,1-3.28-7.77c25.19-25.77,82.67-71.75,184.69-90.08a4.58,4.58,0,1,1,1.62,9c-80.51,14.46-132.42,46.41-162.25,71.32,25.45-8.37,69.22-18.57,116.26-10.63,12.53-7.08,103.81-57.58,206.65-86.79a4.58,4.58,0,0,1,2.51,8.81c-109.13,31-205.07,86.17-206,86.72a4.56,4.56,0,0,1-3.09.55c-69.65-12.33-134.46,18.1-135.11,18.41A4.49,4.49,0,0,1,1465.48,1088.73Z" fill="#571519"/><path d="M1603.36,1069.94a4.58,4.58,0,0,1-4-6.85c.53-.92,53-91.83,99.81-140.66,54.73-57,61.42-95.44,61.49-95.82a4.57,4.57,0,0,1,9,1.4c-.26,1.66-6.91,41.31-63.93,100.75-46.06,48-98,138-98.47,138.88A4.59,4.59,0,0,1,1603.36,1069.94Z" fill="#571519"/><path d="M1651.18,377.17a4.65,4.65,0,0,1-1.84-.39,4.57,4.57,0,0,1-2.33-6c.16-.37,16.51-38.63-3.57-79.84a4.58,4.58,0,1,1,8.23-4c22,45.15,4.46,85.85,3.7,87.56A4.59,4.59,0,0,1,1651.18,377.17Z" fill="#571519"/><path d="M1670.06,362.83a5.24,5.24,0,0,1-.88-.08l-20.42-4a4.57,4.57,0,0,1,1.74-9l20.42,4a4.58,4.58,0,0,1-.86,9.07Z" fill="#571519"/><path d="M1651.51,332.7a4.57,4.57,0,0,1-.26-9.14l22.63-1.29a4.58,4.58,0,1,1,.52,9.14l-22.63,1.28Z" fill="#571519"/><path d="M1646,307.06a4.58,4.58,0,0,1-1-9l27.33-6.25a4.58,4.58,0,0,1,2,8.92L1647,306.94A4.44,4.44,0,0,1,1646,307.06Z" fill="#571519"/><path d="M1190.35,1691.5l111.69-6.58a1604.89,1604.89,0,0,0-143.44-113H1041.21s23.38,8,14.13,11.33,26.84,7,13.68,11-5.25,24.68,24.94,32.37,29.71,11.47,29.71,11.47,14.32.29,5,4,30.19,14.2,18.36,22.57,28.8,2.23,25.28,12.43S1190.35,1691.5,1190.35,1691.5Z" fill="#fff4e9"/><path d="M1190.35,1696.07a5.26,5.26,0,0,1-.89-.08c-2.67-.53-16.18-3.56-20.65-11.33a10.77,10.77,0,0,1-1.15-8.07c-2.43-1-8.66-1.65-12.19-2-8.28-.79-13.74-1.31-15-6-.73-2.74.56-5.32,3.83-7.66-1.76-2-7.58-5.28-10.54-6.93-6.86-3.83-11.4-6.35-11.1-10.91a5.68,5.68,0,0,1,.45-1.83c-6.55-3.12-22-8.09-35.42-11.69a4.65,4.65,0,0,1-1.71-.88c-9.94-8.13-26.34-23.18-24.47-32.55a7.83,7.83,0,0,1,1.37-3.11l-1.72-.51c-7.35-2.16-11.79-3.46-11.93-8a5.1,5.1,0,0,1,1.38-3.66,75.77,75.77,0,0,0-10.88-4.67,4.57,4.57,0,0,1,1.48-8.9H1158.6a4.58,4.58,0,0,1,2.63.83,1619.17,1619.17,0,0,1,143.85,113.37,4.58,4.58,0,0,1-2.77,8l-111.69,6.58Zm-37.62-30.94c1.24.14,2.53.27,3.61.37,8.48.81,16.5,1.57,19.58,6.36a7.52,7.52,0,0,1,.7,6.66,1.67,1.67,0,0,0,.13,1.58c1.7,3,9.11,5.74,13.94,6.8l100-5.89a1622.2,1622.2,0,0,0-133.53-104.56H1060c2.11,2.19,2.12,3.83,2.13,4.75a5.89,5.89,0,0,1-.32,1.93l2,.59c7.42,2.17,12.77,3.74,12.79,8.6,0,4.16-4.19,5.63-5.93,6.16,1,3.85,10.19,14,20.43,22.49,42.92,11.6,43.21,16.58,43.38,19.57a5.55,5.55,0,0,1-.64,2.89c1.41.86,3.12,1.82,4.46,2.56,7.5,4.19,15.26,8.52,15.6,14.78A7.69,7.69,0,0,1,1152.73,1665.13Zm-83.93-75.73Z" fill="#571519"/><path d="M919.68,1557s7.74,6.39,0,19.37c-3.27,5.47,8.78,17.13-4.72,23.36-8,3.68-31.38,7.56-40.49,13.5-6.33,4.12-7.23,17.65-13,18.5-14,2.07-15,19-24.4,20.07s-11.42,20.67-23.36,19.57-6,5.25-19.21,5.25h-24l45.78-93Z" fill="#fff4e9"/><path d="M770.54,1676.58H407.4Q481,1610.87,576.06,1557H919.68s-23.37,8-14.13,11.33-26.84,7-13.68,11,3.35,13.85-26.84,21.53-27.81,22.31-27.81,22.31-14.31.3-5,4-35.69,10.78-23.86,19.14-23.3,5.66-19.78,15.86S770.54,1676.58,770.54,1676.58Z" fill="#f9e2c7"/><path d="M1210.81,1691.5l111.69-6.58a1604.89,1604.89,0,0,0-143.44-113H1061.67s23.38,8,14.13,11.33,26.84,7,13.68,11-3.35,13.85,26.84,21.53,27.81,22.31,27.81,22.31,14.31.29,5,4,35.69,10.78,23.86,19.14,23.3,5.66,19.78,15.86S1210.81,1691.5,1210.81,1691.5Z" fill="#f9e2c7"/><path d="M770.54,1681.15H407.4a4.57,4.57,0,0,1-3-8c49.06-43.83,106.07-84.26,169.46-120.19a4.57,4.57,0,0,1,2.25-.6H919.68a4.57,4.57,0,0,1,1.48,8.9,76.92,76.92,0,0,0-10.88,4.67,5.06,5.06,0,0,1,1.38,3.66c-.14,4.52-4.57,5.82-11.93,8l-.7.21a7.86,7.86,0,0,1,3.13,6.39c-.2,9.87-19.69,16.89-36,21-25.09,6.38-24.41,17.18-24.4,17.28a4.45,4.45,0,0,1-3.71,5.1,6.41,6.41,0,0,1,0,.7c-.06,4.59-4.82,6.34-13.47,9.53-3.37,1.25-9.74,3.6-12.62,5.42,2.67,2.19,3.77,4.58,3.28,7.12-.92,4.75-6.37,6.06-12.69,7.57-2.64.63-7.9,1.89-9.53,3.1a10.75,10.75,0,0,1-1,8.69c-4.47,7.77-18,10.8-20.65,11.33A4.4,4.4,0,0,1,770.54,1681.15Zm-351-9.15H770.08c4.82-1,12.34-3.82,14.07-6.82a1.69,1.69,0,0,0,.12-1.58,8.12,8.12,0,0,1,.48-6.71c2.58-4.7,9.25-6.29,15.71-7.84,1-.23,2.18-.52,3.29-.82a7.16,7.16,0,0,1-1.9-5.77c.77-5.85,7.92-8.89,19.61-13.2,1.21-.45,2.6-1,3.9-1.46a4.94,4.94,0,0,1-.78-3.76c.56-3.07,3.09-4.69,8.51-5.28,1.52-6.18,7.65-16.51,30.81-22.4,19.19-4.89,26.68-9.79,28.64-11.95a10.71,10.71,0,0,0-2-.76c-1.54-.46-6.2-1.86-6.19-6.25,0-4.86,5.38-6.43,12.79-8.6l2-.59a5.69,5.69,0,0,1-.33-1.93c0-.92,0-2.56,2.14-4.75H577.27C518.74,1594.79,465.73,1631.92,419.52,1672Zm412.93-49.84Zm59.65-47.68Z" fill="#571519"/><path d="M1210.81,1696.07a5.26,5.26,0,0,1-.89-.08c-2.67-.53-16.18-3.56-20.65-11.33a10.76,10.76,0,0,1-1-8.69c-1.63-1.21-6.89-2.47-9.53-3.1-6.32-1.51-11.77-2.82-12.69-7.57-.49-2.54.61-4.93,3.28-7.12-2.88-1.82-9.26-4.17-12.63-5.42-8.64-3.19-13.4-4.94-13.46-9.53a6.58,6.58,0,0,1,0-.71,4.61,4.61,0,0,1-2.68-1.58,4.53,4.53,0,0,1-1-3.66h0s.62-10.76-24.43-17.13c-16.31-4.16-35.8-11.18-36-21.05a7.88,7.88,0,0,1,3.13-6.4l-.7-.2c-7.35-2.16-11.79-3.46-11.93-8a5.1,5.1,0,0,1,1.38-3.66,75.77,75.77,0,0,0-10.88-4.67,4.57,4.57,0,0,1,1.48-8.9h117.39a4.58,4.58,0,0,1,2.63.83,1620.44,1620.44,0,0,1,143.84,113.37,4.57,4.57,0,0,1-2.77,8l-111.69,6.58Zm-33.21-32.92c1.11.3,2.31.58,3.29.82,6.46,1.54,13.13,3.14,15.71,7.83a8.14,8.14,0,0,1,.48,6.72,1.67,1.67,0,0,0,.12,1.57c1.71,3,9.12,5.75,14,6.81l100-5.89a1620,1620,0,0,0-133.53-104.56h-97.2c2.11,2.19,2.12,3.83,2.13,4.75a5.89,5.89,0,0,1-.32,1.93l2,.59c7.42,2.17,12.77,3.74,12.79,8.6,0,4.39-4.66,5.78-6.19,6.24a11.34,11.34,0,0,0-2,.77c2,2.16,9.44,7.06,28.64,12,23.16,5.89,29.29,16.22,30.81,22.4,5.42.58,8,2.21,8.51,5.28a4.94,4.94,0,0,1-.78,3.76l3.9,1.46c11.69,4.31,18.84,7.35,19.61,13.2A7.16,7.16,0,0,1,1177.6,1663.15Zm-88.34-73.75Z" fill="#571519"/><path d="M794.52,1681.15h-24a4.58,4.58,0,0,1,0-9.15h24c4.9,0,5.86-.83,7.08-1.9,2.53-2.21,5.23-4,12.55-3.32,3.51.32,5.84-2.92,9.26-8.28,3.18-5,6.77-10.58,13.18-11.29,2-.22,3.7-2.55,6.27-6.36,3.51-5.17,8.3-12.26,18-13.69.65-.47,2.1-3.82,3-5.82,1.88-4.34,4-9.26,8.19-12,6.08-4,17.07-6.89,26.76-9.46,5.91-1.57,11.49-3.06,14.32-4.36,4.8-2.22,4.46-4.34,2.76-10.14-1.06-3.62-2.26-7.73-.06-11.41,5.4-9.06,1.4-13.14.93-13.58a4.63,4.63,0,0,1-.4-6.41,4.51,4.51,0,0,1,6.31-.57c3.73,3.07,8.74,12.31,1,25.25a21.72,21.72,0,0,0,1,4.15c1.58,5.38,4.51,15.38-7.71,21-3.54,1.63-9.22,3.14-15.8,4.89-8.58,2.28-19.26,5.12-24.11,8.28-1.88,1.23-3.43,4.8-4.79,8-2.11,4.88-4.51,10.42-10,11.23-5.68.84-8.61,5.18-11.72,9.77s-6.51,9.62-12.84,10.33c-2.07.22-4.31,3.73-6.48,7.12-3.59,5.62-8.49,13.25-17.81,12.46-4-.36-4.57.12-5.69,1.1C805.11,1679.18,802.22,1681.15,794.52,1681.15Z" fill="#571519"/><polygon points="665.25 1598.34 546.89 1598.34 582.71 1575.09 701.07 1575.09 665.25 1598.34" fill="#d8bea4"/><path d="M1790,1606.85s-357.81-3.32-361.13,0-12.18,10.36,17.71,19.49,226.6,71.8,226.6,71.8Z" fill="#bababa"/><path d="M1667,1698.25a4.4,4.4,0,0,1-1.34-.2l-238.15-72.75c-6-1.59-9-8.63-8.26-14.22.7-5.35,4.47-8.81,9.6-8.81h272a4.58,4.58,0,0,1,0,9.15h-272c-.22,0-.31,0-.31,0a4.19,4.19,0,0,0,0,2.87,3.1,3.1,0,0,0,1.52,2.18l238.3,72.79a4.57,4.57,0,0,1-1.33,9Z" fill="#571519"/><path d="M1670.61,1685.28a4.64,4.64,0,0,1-1.27-.18l-245.1-70.54a4.57,4.57,0,1,1,2.53-8.79l245.1,70.54a4.57,4.57,0,0,1-1.26,9Z" fill="#571519"/><path d="M1676.54,1660.78s-81.78-23.73-81.78-25.77,99.35.45,99.35.45Z" fill="#8e8e8e"/><path d="M2189.83,1698.14h-516.7a6.48,6.48,0,0,1-6-8.94L1800.75,1363a19.46,19.46,0,0,1,18-12.09h512.35a6.49,6.49,0,0,1,6,8.95l-135.27,330.25A13,13,0,0,1,2189.83,1698.14Z" fill="#bababa"/><path d="M2189.83,1702.72h-516.7a11.06,11.06,0,0,1-10.23-15.26l133.61-326.22a23.94,23.94,0,0,1,22.25-14.93h512.35a11.07,11.07,0,0,1,10.24,15.25l-135.27,330.26A17.5,17.5,0,0,1,2189.83,1702.72Zm-371.07-347.26a14.84,14.84,0,0,0-13.78,9.24l-133.62,326.23a1.86,1.86,0,0,0,.18,1.79,1.89,1.89,0,0,0,1.59.85h516.7a8.38,8.38,0,0,0,7.78-5.22l135.27-330.25a1.92,1.92,0,0,0-1.77-2.64Z" fill="#571519"/><path d="M2041.19,1535.42c-5,15.81-18,25.83-28.82,22.35s-15.57-19.11-10.51-34.93,18-25.83,28.82-22.36S2046.25,1519.6,2041.19,1535.42Z" fill="#8e8e8e"/></svg>