<svg xmlns="http://www.w3.org/2000/svg" viewBox="0 0 2745 1830"><path d="M0,1830H2745V0H0Z" fill="#7d38ce"/><path d="M867.59,612.71c2.45-8.64,6.36-17.6,6.09-26.78-.33-10.55-7.63-19.22-10.49-29-6.77-23.05-17.86-42.88-16.71-68.45,1-22.16,21.13-29.52,29.3-47.17,2.42-5.24-6.17-16.12-4.47-18.35,1.87-2.45,12.2-3.35,14.54-4.21,9.21-3.38,20-9.92,28.15-15.39,28.76-19.19,62.14-46.37,97.83-49.12,18.31-1.41,31.51,11.13,47,18.31,16.09,7.44,35.27-4.84,51.53,2.67,25.91,12,34,37.15,53.59,54.74,9.19,8.24,31.56,17.47,38,25.53,1.12,1.4-15.8,6.08-13.65,14.6,7,27.6,10.19,60.78-3.9,87.09-2.61,4.87-6.43,16.55-10.83,20.06-3.37,2.7-9.51.17-11.15,4.59-7.2,19.34-7,46.67-18.13,63.87Z" fill="#3dd8ac"/><path d="M891.77,1530.18c-.63-5.7,8.08-34.6,9.56-39.19,10.11-31.28,23.85-63.43,31.66-95.23,11.12-45.22,18-66.62,27.7-112,8.27-38.53,14.44-102.59,11.08-141.59C963.71,1048.75,932,959.11,927.64,865c-1-21.76-7.48-70.48,14.07-84.41,22.07-14.28,87.6,63.39,104.43,81.31,5.43,5.79,11.06,14.27,13.31,22,.15.48,3.26,17.73,5.24,17,4.75-1.76,15.83-25.21,20.12-29.85,20.83-22.53,51.77-40.69,61.47-72.09,4.44-14.37-11-70.3,3.59-65.68,30.09,9.56,33,121.61,32.76,152-.37,56.25,3.47,175.6-6.56,257.29-1.39,11.3-13.31,6-14.82,16.27-2.46,16.83,33.37,3.62,28.69,16.84-2.75,7.76,1.47,27.67-.84,40.21-3.93,21.42-14.62,37.55-22.59,52.26-6.7,12.37-27.55-5.64-27.54,4.81,0,3.91-1.69,10.61,6.31,15.32,11.69,6.89,34.51,11.86,34.54,16.75.26,36.38,7.69,49.17,7.69,49.17s20.86,93.47,30.58,134.12c1.38,5.77,9.14,47.86,8.94,48.25-5,9.66-49.67,14.74-59.49,17-24,5.39-42.82,4.77-66.81,5.82-21,.92-54.88.38-75.37-.75-9.75-.53-83.35-4.15-102.83-16.55Z" fill="#fff"/><path d="M774.88,1826s30.74-73.68,42.7-105.29c20.4-53.92,62.71-166.1,62.71-166.1s28.18-93.48,38.08-116.38c58.18-134.54,51.59-268.08,35.06-411.34-5.69-49.35-16.87-115.36-20.73-159.86-1-11.89,12.15-102.16,1.48-103.23-18.1-1.81-43.88,27.77-71.64,47.86-12.68,9.17-38.2,9.22-45.63,12.33-28.3,11.87-88.65,18.37-108,39.08-24.82,26.59-26.42,86.63-35.84,119.63-9.9,34.63-22,135.88-23.91,155.55-4.78,49.37-22.55,109-8.81,157.06,9.33,32.66,18.56,46.55,37,75.18,7.43,11.56,37.76,31.8,37.76,31.8S695,1502.9,686.2,1538.18c-10.94,43.78-20.72,80.56-31.28,124.3-9,37.28-12.6,38.61-21.15,75.63-7.39,32-13.74,45.23-13.74,45.23S659.88,1829,670,1825.67Z" fill="#79919e"/><path d="M910.18,534.17c-2.22-4.44-12.48,8.94-16.28,13.16s-12.77,10.27-13.21,14.23c-1.3,11.65,7.43,25.45,8.43,37.39,1.56,18.72-5.21,37.26-2.11,55.83,5.89,35.32,28.7,98.33,55.3,122.71,10.2,9.36,22.9,6.71,33.7,12.12,7.3,3.64,7.2,14.36,13.17,19.48,8.19,7,18.15,10.78,25.81,18.44,13.69,13.68,35.51,23.43,45.29,40.55,2.19,3.83,12.22,34.82,15.8,32.13,7.59-5.69,11.29-24,17.91-32.13,15.08-18.56,43.38-31.41,52.14-54.77,7.12-19-3.18-41.79-5.26-60.57-2.88-25.85-9.22-56.06-6.33-82.16,2.68-24.05,53.42-24.82,45.82-59-1.24-5.59-5.06-19.74-8.78-23.93-3.58-4-11.51-3.95-16-7.14-33.24-23.74-39.85,56.92-65.3,50.56-2.14-.54.86-17.8,1-20,1.24-14.94,4.79-36.29-7.37-48.46-6-6-27.66,4.32-36.87-1.05C1029.67,551.38,1012,546,995,535.75c-1-.61-6.11-3.9-7.38-2.63-5,5,19.67,50.17,23.35,57.54.42.83-4.16,4.13-4.39,4.08-3.24-.65-6.35-1-9.47-2.11-7.92-2.87-17.18-2.52-24.76-6.32-15.79-7.89-16.21-27.2-28.44-37.39-.33-.28-4.56-4.28-4.74-4.21-2.42.8,2.76,27.63,4.21,30.54.29.57,1.74,4,1.06,4.22-12.15,4-29.5-45-36.34-42.66-8.46,2.81-13.45,15.82-26.33,15.82Z" fill="#ffe4ce"/><path d="M710.3,1310.83c-16-11-32.12-36.87-39.37-54.68-2.21-5.42-4.33-22.55,4.9-21.59,25.43,2.68,37.13,52.48,60.14,50,17.56-1.92,41.41-34.82,57.91-45.28,3.42-2.16,14.66-5.49,19-5.49,9.49,0,10.37,7.43,17.11,6.49,11.93-1.67,24.65-10.91,37.25-3.18,7.37,4.53,1.54,5.89-1.51,11.81-.4.78-2.39,6.77.55,6,11.78-3.15,22.14-30.19,37.51-21.29,5.48,3.16-4.15,17.22,2.16,18.43,8.68,1.65,24.26-20.68,31.48-5.87,6.27,12.87-5,29.27-16.16,34.87-21.09,10.61-43.48,14-63.94,25.38-8.65,4.79-18.22,9.07-24.6,16.9-4.61,5.65-7.1,13-13.87,16.74-5.14,2.86-13.56-.2-19.24,1.61-8.77,2.8-50.73,5.73-54.21-5.19Z" fill="#ffe4ce"/><path d="M938.64,704c-1.1-2.09,7.92.07,10.1,0,5.54-.15,11,.12,16.59-.1,8.34-.32,31.93-7.42,38.81.39,5,5.68-6.83,13.68-10.15,15.53-9.14,5.08-34.09,13.81-43,2.8Z" fill="#fff"/><path d="M692.91,1297.83c-2.37,8.87,1.32,16,3.37,24.32,4,16.16,20.11,29.76,34.75,39.78,33.39,22.86,79.07,25.41,98-14.75,6.72-14.23-29.39,2-35.87.87-13.41-2.41-28.29-4.42-41.29-8.59-13.61-4.36-40.46-30.49-40.46-30.49Z" fill="#fff"/><path d="M1309.23,1803c-22.3-38.58-41.46-103.28-54.52-155.69-27.31-109.64-53.67-239.35-74.33-340.56-3.07-15-39.26-12-39.14-27.34,0-4.18-.84-11.28,2.81-10.87,4.75.55,14.73,9.12,19.41,5.09,11.07-9.55,20.45-40,21.54-52.88a482.56,482.56,0,0,0,1-57.13c-.16-4.41-19-2.38-19.24-6.85-.58-11.63,8.89-1.62,8.5-13.81-1.36-42.11,3.56-94.29,3-142.73-.47-44.69-3.44-96.75-.49-118.12,2.46-17.84,6.53-15.35,4.68-59.36-.6-14.32-20.86-60.71-12.58-71.81,24.18,12.23,61.54,35.41,80.18,49.84,10.61,8.22,27.29,4.87,37.8,9.24,48,20,91.08,26.21,130.17,66,11.92,12.14,20.3,39.19,25.55,55.38,17.58,54.2,26.72,111.54,38.82,167.22,11.13,51.23,20.68,109.89,26.64,162,4.94,43.18-12.52,83.3-28.94,98.85-33.33,31.55-155.14,11-155.14,11s9.6,96.85,20.47,191.17c3.92,34,16.14,90.15,15,115.86-1.25,28-21.18,72.79-22.93,81.24Z" fill="#79919e"/><path d="M1152.56,1168.71c.15,1.1-11-6-13.39-8.27-3.11-2.92-6.05-6-9.07-9-13.17-13.17-25.11-26-39.94-37.39-12.11-9.34-22.73-19.66-37.42-25.16-33.5-12.55-81.52-8.3-96.39,27.79a99.64,99.64,0,0,0-5.19,17.41c-10.41,53.15,40.09-20,47.44-21.47,7.67-1.52,19.54,5.92,27.37,6.69,2.81.28,19,5.27,18,6.51-.74,1-11,.44-12,.62-10.93,1.82-23.65,7.8-34.33,11.41s-25.57,18.74-27.28,30c-.84,5.6,16.34,48,19.82,54.4,15.44,28.58,35.5-8.21,53.09-4.77,26.6,5.21,47.75,27.5,72.9,35.23,15.46,4.75,41.75-48.5,38-59.74Z" fill="#ffe4ce"/><path d="M773.52,1824.12C817.6,1758,856.06,1614,856.06,1614l34.45-82.37s48.64,18.15,78,22.07c16.79,2.24,35.47,4.57,52.35,4.57,46.95,0,94.93,2.26,141.76-2.43,6.17-.62,67.07-14.46,67.07-14.46s11.39,74.84,26.23,113.82c20.82,54.64,45.36,113,54.84,169.93Z" fill="#79919e"/><path d="M620.31,1786.22a4.57,4.57,0,0,1-4.08-6.62c16.72-33.45,71.4-254.22,95.84-378.6a4.58,4.58,0,0,1,9,1.77C696,1530.47,641.74,1749,624.41,1783.69A4.58,4.58,0,0,1,620.31,1786.22Z" fill="#571419"/><path d="M731.36,1282.32h-.14a4.57,4.57,0,0,1-4.44-4.7c1.07-37,.28-77-.41-112.43-.18-8.81-.35-17.44-.48-25.81-.09-5.43-2-33.77-3.82-61.18-2.16-32.39-4.2-63-4.2-68.57a4.58,4.58,0,0,1,9.15,0c0,5.27,2.22,38.58,4.18,68,1.92,28.79,3.74,56,3.84,61.64.13,8.36.3,17,.47,25.78.7,35.48,1.49,75.69.42,112.87A4.58,4.58,0,0,1,731.36,1282.32Z" fill="#571419"/><path d="M775.28,1827.5a4.5,4.5,0,0,1-1.85-.4,4.57,4.57,0,0,1-2.34-6c28.12-63.71,55.24-137.92,79.16-203.4,8.54-23.36,16.61-45.42,24.46-66.35,38.87-103.66,77.44-213.7,85-319.29,2.46-34.37,3.07-58.34,2.09-82.72a4.57,4.57,0,1,1,9.14-.37c1,24.75.38,49-2.1,83.74-7.63,106.81-46.44,217.56-85.55,321.85-7.83,20.9-15.89,42.94-24.42,66.29-24,65.6-51.15,140-79.38,204A4.59,4.59,0,0,1,775.28,1827.5Z" fill="#571419"/><path d="M963.08,1110a4.57,4.57,0,0,1-4.54-4.11c-2.59-25.11-6.52-54.21-11.95-94.51l-1.53-11.33c-1.23-9.12-2.55-18.25-3.89-27.46-8.39-58-17.07-117.88-7.56-202.12a4.57,4.57,0,0,1,9.09,1c-9.37,83.06-.78,142.4,7.53,199.78,1.34,9.24,2.66,18.39,3.9,27.54l1.53,11.34c5.44,40.37,9.38,69.54,12,94.79a4.57,4.57,0,0,1-4.08,5Z" fill="#571419"/><path d="M949,1343.68a4.58,4.58,0,0,1-4.58-4.58c0-66.7-19.39-179.35-47.15-273.93-15.76-53.71-25.5-79-39-114.05-6-15.54-12.76-33.15-21.12-56-4.4-12,13.5-26,39.27-44.49,7.3-5.24,14.21-10.19,17.3-13.29-1.73-5.24-25.68-17.42-35.22-17.78a4.87,4.87,0,0,1-4.8-4.47c-.21-2.64-.46-5.65,35.71-30.92,8.2-5.73,35.51-24.52,42.89-26a4.58,4.58,0,0,1,1.82,9c-6.3,1.31-51.59,32.11-67,44.91,12.83,3.75,31.62,13.35,35.09,22a8.52,8.52,0,0,1-1.78,9.47c-3.56,3.66-10.58,8.7-18.7,14.52-11.47,8.23-38.35,27.51-36,33.91,8.34,22.79,15.1,40.36,21.07,55.87,13.55,35.23,23.34,60.69,39.21,114.75,28,95.33,47.52,209,47.52,276.51A4.58,4.58,0,0,1,949,1343.68Z" fill="#571419"/><path d="M1197,1154.32a4.19,4.19,0,0,1-.78-.07,4.56,4.56,0,0,1-3.73-5.28c6.56-38.31,12.37-66.64,19.45-94.72,13.77-54.65,22.57-80.48,34.76-116.22,5.35-15.72,11.42-33.53,18.87-56.6,2.09-6.49-25.51-24.71-37.3-32.5-8.34-5.5-15.54-10.25-19.25-13.78a8.13,8.13,0,0,1-2.56-7.52c1.36-7.29,12.22-14.55,38.57-25.64-6.5-6.69-32.43-23.38-79.48-48a4.58,4.58,0,1,1,4.24-8.11c86.34,45.11,86,53.91,85.8,57.67a6.4,6.4,0,0,1-4.16,5.64l-.65.27c-28.37,11.8-34,17.38-35.11,19.33,3.34,3,10.29,7.62,17.64,12.47,26.46,17.47,44.89,30.78,41,42.94-7.47,23.14-13.56,41-18.92,56.74-12.12,35.54-20.87,61.21-34.55,115.51-7,27.84-12.79,56-19.3,94A4.58,4.58,0,0,1,1197,1154.32ZM1246.53,804h0Z" fill="#571419"/><path d="M716.18,861.62a4.58,4.58,0,0,1-2.73-8.25c20.13-15,71.11-26.34,108.33-34.63,17.27-3.84,32.18-7.16,37.07-9.39a4.57,4.57,0,1,1,3.79,8.32c-5.76,2.63-19.65,5.72-38.87,10-34.36,7.65-86.3,19.22-104.86,33A4.57,4.57,0,0,1,716.18,861.62Z" fill="#571419"/><path d="M1307.36,1807.55a4.56,4.56,0,0,1-4.21-2.79c-40.6-95.68-64.67-203.09-88-307q-5.28-23.52-10.55-46.74c-8.57-37.53-20.47-92.53-28.43-141.39a4.57,4.57,0,0,1,9-1.47c7.93,48.62,19.78,103.42,28.33,140.82q5.3,23.22,10.54,46.77c23.2,103.48,47.18,210.47,87.45,305.39a4.58,4.58,0,0,1-2.42,6A4.73,4.73,0,0,1,1307.36,1807.55Z" fill="#571419"/><path d="M1173.86,1152.6h-.08a4.58,4.58,0,0,1-4.5-4.65c.46-28.24,1.51-55.31,2.53-81.5,2.41-61.74,4.68-120.05-.81-186.62a4.58,4.58,0,1,1,9.12-.75c5.53,67.12,3.25,125.7.83,187.73-1,26.13-2.06,53.16-2.52,81.29A4.57,4.57,0,0,1,1173.86,1152.6Z" fill="#571419"/><path d="M1308.17,1826.77a4.58,4.58,0,0,1-4.57-4.42l-.59-17.77a4.57,4.57,0,0,1,1.41-3.45c.2-.19,19.86-19.31,32.39-51,11.92-30.14,17.77-72.47,18.49-78-1.65-11.75-26-186.15-37.5-307.24a4.58,4.58,0,0,1,9.11-.86c11.8,124.53,37.28,305.62,37.54,307.43a4.46,4.46,0,0,1,0,1.21c-.24,1.93-6,47.56-19.15,80.78-11.41,28.82-28,47.47-33.09,52.71l.53,15.8a4.58,4.58,0,0,1-4.42,4.72Z" fill="#571419"/><path d="M1072,1558.15a4.58,4.58,0,0,1-4.46-3.58c-8.44-37.75,4.25-203.46,4.4-205.06,3.35-36.66,6.56-72.49,9.09-107.64a4.57,4.57,0,1,1,9.12.66c-2.53,35.23-5.75,71.1-9.1,107.82-1.4,15.4-12.15,168.36-4.58,202.23A4.57,4.57,0,0,1,1073,1558,4.86,4.86,0,0,1,1072,1558.15Z" fill="#571419"/><path d="M1090.91,1117.1h0a4.58,4.58,0,0,1-4.56-4.59c.11-60.8-3.91-116.57-12.27-170.47-4.18-27-16.24-65.62-36.44-85.85-9-9-19.21-16.66-29.06-24-17-12.77-33.13-24.82-42.47-42.94a4.58,4.58,0,0,1,8.14-4.19c8.37,16.25,23.65,27.69,39.82,39.8,10.1,7.57,20.55,15.4,30,24.89,21.74,21.77,34.41,61.23,39,90.92,8.44,54.37,12.49,110.6,12.38,171.89A4.58,4.58,0,0,1,1090.91,1117.1Z" fill="#571419"/><path d="M966.73,913.14a6.09,6.09,0,0,1-1-.09c-1.93-.36-7.06-1.3-21.27-32.48-.46-.92-12.32-25.41-14.83-43.66a4.57,4.57,0,1,1,9.06-1.25c2.32,16.79,13.93,40.77,14,41,4.49,9.83,10.37,21,13.75,25.67,1.67-2.2,3.61-5.12,5.75-8.34,10.45-15.77,26.27-39.62,49.8-37.46,10.75,1,27,7.23,40.42,21.82a4.58,4.58,0,1,1-6.74,6.19c-11.66-12.69-25.88-18.11-34.51-18.9-18.1-1.64-31.54,18.61-41.35,33.4-3.62,5.47-6.49,9.79-9.22,12.5A5.44,5.44,0,0,1,966.73,913.14Z" fill="#571419"/><path d="M1073.47,906.9h-.29a4.58,4.58,0,0,1-4.28-4.85c1.45-23.31,19.64-37.88,37.23-52,9.37-7.5,19.06-15.26,26.17-24.27,17.54-22.17,17-47.37,10.54-63.55a4.57,4.57,0,1,1,8.51-3.36c7.34,18.55,8.08,47.36-11.87,72.59-7.76,9.82-17.86,17.91-27.63,25.73-16.77,13.43-32.62,26.12-33.82,45.39A4.58,4.58,0,0,1,1073.47,906.9Z" fill="#571419"/><path d="M1077.1,905.68h-.18a4.57,4.57,0,0,1-4.39-4.75c.55-14.22,8.64-28,22.76-38.91,15.6-12,35.9-18.28,49.38-15.27,13.24,3,21.39,14.15,26.78,21.55,1,1.45,2.35,3.23,3.4,4.47,7.88-16.85,1.92-76-12.27-119.33-2.17-6.62-15.19-18.46-25.81-23.48a4.57,4.57,0,1,1,3.9-8.27c11.83,5.58,27.3,18.82,30.6,28.9,14.67,44.77,22.38,110.81,10.33,128.87-2,3-4.41,3.67-6.07,3.7-4.49.14-7.43-3.92-11.47-9.47-4.86-6.67-11.51-15.8-21.39-18-10.66-2.37-28.63,3.46-41.8,13.6-11.93,9.18-18.75,20.55-19.2,32A4.58,4.58,0,0,1,1077.1,905.68Z" fill="#571419"/><path d="M1072.55,1563.81c-68.6,0-139.24-9-182-28.5a4.57,4.57,0,1,1,3.79-8.32c78.29,35.73,252.22,35.26,329.9,8.83a4.57,4.57,0,1,1,3,8.66C1190.33,1557,1132.22,1563.81,1072.55,1563.81Z" fill="#571419"/><path d="M662.15,1829.53a4.59,4.59,0,0,1-3.19-1.3c-.29-.28-29.22-28.49-41.44-40.71a4.57,4.57,0,1,1,6.47-6.47c12.18,12.18,41.07,40.34,41.36,40.62a4.58,4.58,0,0,1-3.2,7.86Z" fill="#571419"/><path d="M1405.93,1382.05c-31.91,0-65.9-5.56-91.55-16.17-20-8.29-130.35-54.31-171.29-72.87-8.23-3.73-8.06-18-7.81-22.26a4.64,4.64,0,0,1,4.83-4.3,4.57,4.57,0,0,1,4.3,4.83c-.35,6.34,1.08,12.77,2.46,13.4,40.83,18.51,151,64.46,171,72.74,41.61,17.23,108.84,20.51,146.8,7.17,27.31-9.6,47.38-67.15,33.68-146.83a4.58,4.58,0,1,1,9-1.55c13.44,78.18-3.25,144.21-39.67,157C1450.79,1379.17,1428.9,1382.05,1405.93,1382.05Z" fill="#571419"/><path d="M1469.12,1224.69a4.55,4.55,0,0,1-2.9-1c-60.66-49.86-205.41-60.83-275-66.1-5.06-.38-9.74-.73-14-1.07-1.85-.1-6.11,2.73-8.32,4.86a4.58,4.58,0,0,1-6.35-6.6c1.38-1.33,8.68-7.91,15.39-7.38l13.94,1.07c70.5,5.34,217.21,16.45,280.09,68.14a4.58,4.58,0,0,1-2.9,8.12Z" fill="#571419"/><path d="M1146.69,1292.05c-.38,0-.76,0-1.14,0a4.58,4.58,0,0,1,.67-9.13c6.81.52,16.38-11.45,24.36-30.46,15.6-37.14,19.76-83.41,8.39-93.41a4.58,4.58,0,1,1,6-6.87c17.91,15.76,8,70.43-6,103.83C1172.05,1272.56,1160.85,1292.05,1146.69,1292.05Z" fill="#571419"/><path d="M1159.43,1279a4.58,4.58,0,0,1-1.62-.29c-42.51-16.06-42.48-16.35-41.87-21.2a5.06,5.06,0,0,1,4.85-4.36c2.79-.31,10.16-7.9,17.81-23.76,11-22.8,17.78-52.87,9.43-66.22a4.88,4.88,0,0,1,.16-5.5c1.88-2.56,3.24-4.41,38,4.64a4.57,4.57,0,1,1-2.3,8.85c-8.69-2.26-18.66-4.57-25-5.74,5.52,18-1.52,46-12.11,67.95-3.61,7.46-9.78,18.69-16.8,24.73,7.85,3.3,21.2,8.34,31,12.05a4.57,4.57,0,0,1-1.61,8.85Zm-37.6-16.76h0Z" fill="#571419"/><path d="M1506.61,1248.44a4.58,4.58,0,0,1-4.53-4c-9.12-76-55.69-290.94-57.38-298.74-1.16-3.65-19.33-60.11-41.38-75.93-41.89-30-107.94-53.82-151.78-65a4.58,4.58,0,0,1,2.27-8.87c44.61,11.42,111.92,35.67,154.85,66.47,25.16,18.05,44,78.28,44.83,80.83a2.48,2.48,0,0,1,.1.39c.49,2.21,48.28,222.34,57.57,299.79a4.57,4.57,0,0,1-4,5.08A3.39,3.39,0,0,1,1506.61,1248.44Z" fill="#571419"/><path d="M1325,1166.23a4.58,4.58,0,0,1-4.57-4.58c0-3.68-1-10.43-2.28-19-2.82-18.91-7.09-47.48-6.73-82.23a4.58,4.58,0,0,1,4.58-4.53h0a4.58,4.58,0,0,1,4.52,4.62c-.35,34,3.85,62.17,6.63,80.79,1.38,9.26,2.38,16,2.38,20.32A4.58,4.58,0,0,1,1325,1166.23Z" fill="#571419"/><path d="M746,1412.76c-25.42,0-51-15.46-67-33.25-35.95-40.22-52.08-109.46-44.58-148.9a4.57,4.57,0,1,1,9,1.71c-6.94,36.52,8.77,103.45,42.42,141.09,18.84,21.07,51.53,37.11,77.59,27,25.26-9.79,34.56-22.66,40.11-30.35a32.52,32.52,0,0,1,5.27-6.27,4.57,4.57,0,1,1,5.78,7.09,29.93,29.93,0,0,0-3.63,4.53c-5.75,8-16.44,22.77-44.23,33.53A57.08,57.08,0,0,1,746,1412.76Z" fill="#571519"/><path d="M777.83,1381.11c-19.25,0-43.86-11-62.09-28-17.58-16.36-27.53-36.6-28-57a4.58,4.58,0,0,1,4.46-4.69,4.68,4.68,0,0,1,4.69,4.47c.55,22.95,14,40.14,25.11,50.51,17,15.83,40.73,26.35,57.71,25.5l.76,0c8.51-.36,34.4-1.46,48.19-35a4.57,4.57,0,0,1,8.46,3.48c-10.63,25.81-29.56,39.48-56.27,40.61l-.71,0C779.36,1381.1,778.6,1381.11,777.83,1381.11Z" fill="#571519"/><path d="M782.23,1352c-28.57,0-52.07-15.77-85.19-51.46a4.57,4.57,0,1,1,6.71-6.22c48.37,52.13,72.1,59,126.94,36.5a4.57,4.57,0,0,1,3.46,8.47C814,1347.59,797.38,1352,782.23,1352Z" fill="#571519"/><path d="M973.54,790.46c-6.76,0-12.85-1.14-17.91-3.68-36.14-19-63.9-81.73-72.1-120.26-2.93-13.72-2.53-29.27-2.15-44.31.35-13.62.71-27.7-1.41-40.2-.27-2.3-.55-4.53-.84-6.88-.8-6.43-1.7-13.73-2.21-21.07a4.58,4.58,0,1,1,9.13-.63c.49,7.09,1.37,14.26,2.16,20.58.29,2.38.57,4.63.81,6.71,2.24,13.14,1.86,27.67,1.51,41.73-.39,15.17-.76,29.5,2,42.16,9.06,42.61,37.38,98.32,67.32,114,19,9.5,61.07-7.13,90.73-28.73,21.41-15.45,30.68-29.62,42.38-49.47a4.57,4.57,0,1,1,7.88,4.64c-12.28,20.85-22,35.75-44.89,52.23C1030.71,775.66,997.81,790.46,973.54,790.46Z" fill="#571519"/><path d="M1131.76,661.05a4.57,4.57,0,0,1-.46-9.12c24-2.45,37.44-20.54,41.69-35.29,2.32-9.39-.29-23.37-8.77-30.21-8.12-6.56-20.73-6-36.49,1.74a4.57,4.57,0,1,1-4-8.22c24.23-11.83,38.53-6.88,46.25-.64,11.74,9.48,14.87,27.53,11.86,39.7-5.09,17.66-21.1,39.11-49.6,42A3.7,3.7,0,0,1,1131.76,661.05Z" fill="#571519"/><path d="M1139.36,624.6a4.58,4.58,0,0,1-3.74-7.2c.69-1,6.91-9.67,13.35-12.67a4.57,4.57,0,0,1,3.86,8.29c-3.19,1.49-7.66,6.7-9.72,9.63A4.57,4.57,0,0,1,1139.36,624.6Z" fill="#571519"/><path d="M959,680.64a4.62,4.62,0,0,1-2.15-.53c-1.82-1-17.68-9.8-16.76-22.84,0-5.44,3.24-8.61,6.06-11.41,3.08-3.06,6-6,6.56-12.72.34-4-.73-12.34-3.88-21.13a4.58,4.58,0,0,1,8.62-3.08c3.14,8.77,4.89,18.81,4.38,25-.85,10.12-5.7,14.93-9.23,18.44-2.5,2.48-3.37,3.49-3.36,5.07a2.75,2.75,0,0,1,0,.41c-.51,6.09,8.68,12.45,11.94,14.2a4.58,4.58,0,0,1-2.16,8.61Z" fill="#571519"/><path d="M1034.83,570.35a4.61,4.61,0,0,1-2.2-.56c-.24-.13-24.33-13.14-42.75-6.89a4.57,4.57,0,1,1-2.94-8.66c22.28-7.57,49,6.91,50.1,7.53a4.57,4.57,0,0,1-2.21,8.58Z" fill="#571519"/><path d="M893.26,566.43a4.58,4.58,0,0,1-3-8.07c10.48-8.87,25.05-9.67,40-2.21a4.58,4.58,0,0,1-4.1,8.19c-6.75-3.38-19.61-7.74-30,1A4.52,4.52,0,0,1,893.26,566.43Z" fill="#571519"/><path d="M1091,632.66a4.59,4.59,0,0,1-4.29-6.18c.79-2.13,18.86-52.91-23.14-94.84a4.57,4.57,0,0,1,6.46-6.48c34.35,34.29,31.73,75,28,93.88,10.09-7,25-22.46,22.31-52a4.58,4.58,0,1,1,9.12-.84c4.62,50.21-36.48,66.06-36.89,66.21A4.65,4.65,0,0,1,1091,632.66Z" fill="#571519"/><path d="M1172.71,588a4.48,4.48,0,0,1-2.09-.51,4.58,4.58,0,0,1-2-6.16c13.79-26.86,26.62-59.55,17.21-98.3a4.58,4.58,0,0,1,8.9-2.16c10.11,41.67-3.41,76.28-18,104.64A4.57,4.57,0,0,1,1172.71,588Z" fill="#571519"/><path d="M864.91,620.52a4.58,4.58,0,0,1-2.71-8.26s10.19-8.68,3.24-36.42c-2.17-8.32-5.69-16.75-9.41-25.69-13.4-32.17-28.6-68.62,17.31-111.45a4.58,4.58,0,0,1,6.25,6.69c-41.26,38.49-28,70.39-15.11,101.24,3.68,8.83,7.48,18,9.83,26.94,4,15.89,3,26.84.69,34.06a23.07,23.07,0,0,0,6.88-6.25,4.57,4.57,0,1,1,7.42,5.34c-8.82,12.26-23.36,13.72-24,13.78Z" fill="#571519"/><path d="M888.45,433.49c-12.05,0-21.5-4.9-24.94-10.24-2.58-4-1.47-7.49.44-9.42a4.77,4.77,0,0,1,3.42-1.36c.16,0,15.18.27,38.13-11.27,11.94-5.66,21.19-12.82,31-20.4s20.18-15.63,33.92-22.6c31.17-16.7,66.55-13.28,88,8.56a4.57,4.57,0,1,1-6.53,6.4c-18.54-18.9-49.57-21.65-77.21-6.85-13,6.63-23,14.3-32.55,21.72-10.19,7.9-19.82,15.35-32.57,21.39-15.53,7.81-27.81,10.64-35.09,11.65,4.9,2.84,14.77,5.48,27.53.78a4.58,4.58,0,1,1,3.16,8.59A48.26,48.26,0,0,1,888.45,433.49Z" fill="#571519"/><path d="M1188.45,465.7a42.41,42.41,0,0,1-24.21-7.7,4.57,4.57,0,1,1,5.29-7.46,32.64,32.64,0,0,0,23.41,5.62,16.55,16.55,0,0,0,2-.46c-7-2.57-19.67-8.7-35.87-28.41-2.56-3.1-5-6.19-7.45-9.22-20.57-25.71-36.82-46-74.12-40.26a4.57,4.57,0,1,1-1.39-9c42.52-6.57,61.12,16.67,82.66,43.58,2.39,3,4.84,6.06,7.37,9.13,17.15,20.86,29.39,24.84,34.62,26.53,2.39.78,6.32,2.06,6.32,6.06.26,3.3-1.54,6.36-5,8.46S1193.86,465.7,1188.45,465.7Z" fill="#571519"/><path d="M1011.48,595.72c-2.71,0-35.85-.45-56-21.76-26.06-27.38-25.39-57.77-25.34-59.06a4.66,4.66,0,0,1,4.72-4.42,4.57,4.57,0,0,1,4.42,4.71h0c0,.28-.48,28,22.83,52.47,11.42,12.06,28.35,16.43,39.15,18-11-15.45-29.33-50.94-16.86-103.47a4.57,4.57,0,1,1,8.9,2.11c-15.61,65.77,21.15,103.21,21.52,103.59a4.55,4.55,0,0,1,1,5,4.6,4.6,0,0,1-4.21,2.85Z" fill="#571519"/><path d="M943.8,582.47a4.62,4.62,0,0,1-2.34-.65c-1.22-.73-30.11-18.34-34.75-57.59-6.55-51.94,17.14-79,18.15-80.14a4.58,4.58,0,0,1,6.82,6.1c-.36.41-21.86,25.5-15.89,72.93a72.23,72.23,0,0,0,19.35,41.49c-2.24-9.42-4.32-22-3.33-33.9a4.58,4.58,0,1,1,9.12.76c-1.72,20.55,7.07,44.59,7.16,44.83a4.58,4.58,0,0,1-4.29,6.17Z" fill="#571519"/><path d="M1073.26,567.7c-22.63,0-68-14.24-90.62-37.6a4.58,4.58,0,1,1,6.58-6.36c21,21.73,65.22,35.36,85.15,34.8a4.57,4.57,0,1,1,.24,9.14Z" fill="#571519"/><path d="M875.4,558.57a4.58,4.58,0,0,1-.6-9.11c33.58-4.49,31.8-31.1,31.71-32.23a4.57,4.57,0,1,1,9.12-.74c0,.36,2.48,36.41-39.62,42C875.81,558.55,875.6,558.57,875.4,558.57Z" fill="#571519"/><path d="M1149.12,788.17a4.58,4.58,0,0,1-4.25-2.88c-10.68-26.72-15.17-85.23-14.68-110.48a4.58,4.58,0,1,1,9.15.18c-.46,23.9,4,81.68,14,106.91a4.56,4.56,0,0,1-4.25,6.27Z" fill="#571519"/><path d="M970,735.22h-1.25c-24.52-.37-37.52-29.34-38.06-30.57a4.57,4.57,0,0,1,4-6.41c.18,0,18.52-.74,35.82-.8h.2c17.34.7,35.53,3,35.71,3a4.57,4.57,0,0,1,3.72,6.13C1006.4,716.59,993.29,735.22,970,735.22Zm-27.55-28.11c4.63,7.37,13.81,18.76,26.5,18.95,16.48.5,25.65-10.44,29.85-17.29-6.72-.72-17.71-1.76-28.36-2.19C960,706.62,949.31,706.9,942.42,707.11Z" fill="#571519"/><path d="M1151.66,1174.48a4.57,4.57,0,0,1-2.83-1c-5.2-4.11-13-10.7-17.62-14.63l-1.72-1.46c-9.63-8.5-19-18.32-28.16-27.82-14.34-14.95-27.88-29.08-38.37-33.9-12.86-6.26-54.42-8.35-73.76-6.39-8.24.84-15.08,7.9-22.18,22.92-1.11,2.33-2.35,4.8-3.61,7.32-4.61,9.2-10.93,21.8-9,26.62a2.51,2.51,0,0,0,1.7,1.5c5.51,2.07,17.86-13.35,24.5-21.63,3.28-4.09,6.37-7.94,9-10.59,11.65-11.77,44.33-4,61.72,6.59a4.57,4.57,0,0,1-4.75,7.82c-15.59-9.46-43.38-15.13-50.47-8-2.28,2.31-5.23,6-8.35,9.87-10.86,13.55-23.18,28.9-34.88,24.46a11.65,11.65,0,0,1-7-6.72c-3.35-8.61,3.13-21.54,9.4-34,1.23-2.46,2.44-4.86,3.51-7.14,5.82-12.28,14.43-26.57,29.53-28.1,20.74-2.11,63.84,0,78.6,7.22,12,5.5,26.11,20.24,41.07,35.84,9,9.36,18.27,19,27.53,27.23l1.65,1.39c4.6,3.9,12.31,10.43,17.38,14.44a4.57,4.57,0,0,1-2.84,8.16Z" fill="#571519"/><path d="M982.54,1204.67a4.57,4.57,0,0,1-3.75-2c-12.84-18.31-16.06-51-.8-64.07,14.65-12.57,52.5-17.19,80.46-17.34h0a4.58,4.58,0,0,1,0,9.15c-27.58.14-62.67,4.94-74.56,15.14-10.32,8.86-9.12,35.52,2.34,51.87a4.58,4.58,0,0,1-3.74,7.2Z" fill="#571519"/><path d="M1001,1237.42a4.54,4.54,0,0,1-3-1.12,66.12,66.12,0,0,1-17.1-26.33c-4.31-12.47-9-35.81.76-44.17,16.66-14.29,49.51-15.09,74.13-13.25a4.58,4.58,0,0,1-.68,9.13c-32.38-2.43-56.35,1.5-67.5,11.06-3.68,3.16-3.78,17.68,1.94,34.25A57.81,57.81,0,0,0,1004,1229.4a4.58,4.58,0,0,1-3,8Z" fill="#571519"/><path d="M1001.51,1236.14a4.58,4.58,0,0,1-4-2.36c-3.94-7.12-5.29-18.07-3.42-27.9.74-3.84,2.3-9.15,5.64-12.76,7.39-8.82,31.09-13.44,55.26-10.77a4.58,4.58,0,0,1-1,9.1c-24.26-2.69-43.35,2.78-47.26,7.58l-.23.25c-1.45,1.54-2.7,4.57-3.41,8.31-1.45,7.61-.45,16.55,2.44,21.75a4.58,4.58,0,0,1-4,6.8Z" fill="#571519"/><path d="M1023.58,1234.2a4.51,4.51,0,0,1-1-.11,4.58,4.58,0,0,1-3.43-5.49,17.33,17.33,0,0,1,9.4-11.8c11-5.59,28.53-2.74,41.06,2.57a30,30,0,0,1,8.33,4.87,4.57,4.57,0,1,1-5.77,7.1,21.18,21.18,0,0,0-6-3.48c-12.48-5.28-26.49-6.48-33.49-2.91a8.19,8.19,0,0,0-4.65,5.71A4.58,4.58,0,0,1,1023.58,1234.2Z" fill="#571519"/><path d="M1121.15,1257a4.84,4.84,0,0,1-1.34-.2c-17.45-5.37-31.66-12.87-44.72-23.6a4.58,4.58,0,1,1,5.81-7.07c12.11,10,25.33,16.92,41.6,21.92a4.58,4.58,0,0,1-1.35,9Z" fill="#571519"/><path d="M785.31,1293.65a5.33,5.33,0,0,1-2.9-9.81c7.29-4.73,21.25-18.44,30.4-31.34.52-.73,1.14-1.55,1.82-2.46,2.82-3.74,8.06-10.7,7.32-14.42-.07-.33-.24-1.23-2-2.26-2.11-.73-11.55,1-20.61,3.8a151.53,151.53,0,0,1-21.15,24.15l-1,.88c-8.38,7.71-21.06,19.35-34.69,21.8a36.18,36.18,0,0,1-21.81-3.29,5.34,5.34,0,0,1,5.08-9.39,25.33,25.33,0,0,0,14.84,2.17c10.59-1.9,21.88-12.28,29.36-19.15l1-.88a139.56,139.56,0,0,0,20.5-23.72,5.31,5.31,0,0,1,2.81-2.16c8.85-2.91,24.65-7.23,31.11-3.39a13.91,13.91,0,0,1,7,9.37c1.66,8.4-4.91,17.13-9.26,22.9-.61.83-1.18,1.58-1.65,2.23-9.09,12.81-24,28.11-33.3,34.11A5.24,5.24,0,0,1,785.31,1293.65Z" fill="#571419"/><path d="M829.53,1297.52a5.34,5.34,0,0,1-2.83-9.86c4.56-2.85,16.52-12.25,20.17-16.86,5-6.3,12.79-24.12,17.28-35.14a172.35,172.35,0,0,0-20.84-2.7c-.06,10.74-10.3,25-21.33,35.13-7.39,6.76-21,16.59-27,19.9a5.34,5.34,0,0,1-5.17-9.34c5.31-2.94,18.36-12.41,24.95-18.43,13.09-12,19.23-24.88,17.7-28.5a6.19,6.19,0,0,1,.88-6.47c1.8-2.2,4.83-5.89,39.2,1.15a5.34,5.34,0,0,1,3.91,7.15c-.52,1.36-12.91,33.4-21.24,43.89-4.87,6.13-18.27,16.39-22.87,19.27A5.32,5.32,0,0,1,829.53,1297.52Z" fill="#571419"/><path d="M826.49,1340.13a5.14,5.14,0,0,1-1.63-.26,5.33,5.33,0,0,1-3.46-6.69c.3-.94,7.59-23.22,28.6-31.63.94-.43,9.25-4.93,10.32-5.6,7.16-4.75,18.27-18.39,33-40.51,6.1-9.17,6.19-13.43,5.7-15.15-.22-.77-.73-1.78-2.76-2.71-4-1.83-13.5,8.35-17.09,12.18-1.37,1.45-2.56,2.71-3.53,3.63-.23.23-.65.72-1.2,1.35-5.15,5.86-11,12.51-16.81,9.72a5.33,5.33,0,0,1,2.28-10.15,50.48,50.48,0,0,0,6.51-6.62c.85-1,1.52-1.71,1.87-2,.86-.8,1.9-1.92,3.1-3.19,7.34-7.8,18.42-19.58,29.33-14.57,5.59,2.58,7.75,6.58,8.57,9.49,1.78,6.29-.53,14.13-7.08,24-15.71,23.64-27.49,37.87-36,43.53-.89.59-10.8,6-12.21,6.59-16.25,6.5-22.33,24.78-22.39,25A5.35,5.35,0,0,1,826.49,1340.13Z" fill="#571419"/><path d="M874.05,1305.29a11.33,11.33,0,0,1-8.45-3.18,5.34,5.34,0,1,1,7.6-7.49c3.3,1.4,18.62-6.12,24.39-8.95,2.63-1.29,5.06-2.49,7.11-3.41,5.88-2.63,18.86-14.16,28-23.78,2.25-2.37,4.37-7.11,2.68-9.45h0s-3.65-3.17-10-.84c-13.57,5-27.14,19.12-27.28,19.27a5.34,5.34,0,0,1-7.74-7.36c.63-.65,15.41-16.09,31.34-21.93,10.36-3.81,19.3.41,22.33,4.61,5.18,7.19,2.11,17-3.6,23-6.94,7.31-22.43,22.17-31.39,26.18-1.95.87-4.26,2-6.76,3.24C892.21,1300.21,881.88,1305.29,874.05,1305.29Z" fill="#571419"/><path d="M700.33,1303.39a5.27,5.27,0,0,1-3.46-1.27c-29-24.7-39.73-55.15-33-69.18,3.1-6.48,9.44-9.34,17.4-7.84,9.41,1.77,18.71,13.79,28.56,26.51,6.33,8.19,12.89,16.65,18,20.12a5.34,5.34,0,0,1-6,8.84c-6.53-4.43-13.29-13.17-20.45-22.42-7.43-9.6-16.67-21.54-22.1-22.56-4.44-.83-5.36,1-5.79,2-4.24,8.88,5.45,35.29,30.31,56.45a5.34,5.34,0,0,1-3.46,9.4Z" fill="#571419"/><path d="M905.33,617.77c-.08-8.29,3.62-15.12,8.89-15.93,5.27-.05,10.62,5.93,10.7,14.22S921.31,631.18,916,632,905.42,626.07,905.33,617.77Z" fill="#571519" fill-rule="evenodd"/><path d="M929.21,613.88a4.54,4.54,0,0,1-1.89-.41c-14.36-6.54-21.62-3.79-25.83-1.15a4.58,4.58,0,1,1-4.86-7.76c9.41-5.88,20.69-5.7,34.48.58a4.58,4.58,0,0,1-1.9,8.74Z" fill="#571519"/><path d="M1020.94,617.19c-.13-8.3-4.78-15-10.09-14.93-6.06.09-10.52,6.19-11.15,14.5.13,8.29,4.78,15,10.09,14.93C1015.85,631.59,1021.07,625.48,1020.94,617.19Z" fill="#571519" fill-rule="evenodd"/><path d="M1029.44,614.38a4.53,4.53,0,0,1-2.84-1c-5.16-4.09-21-7.77-28.18-1.87a4.58,4.58,0,0,1-5.79-7.09c10.69-8.73,31.11-5,39.66,1.79a4.58,4.58,0,0,1-2.85,8.16Z" fill="#571519"/><path d="M371.1,816.82l400.53-12.17L784,810.12l8.2,11.11,85.91,309.11,24.72,71,348.37,27-344-6.07-3.76,6.81-13.45,8L489.51,1224l-18-20L363.69,832.16Z" fill="#b6b6b6"/><path d="M919.05,1239c-2.12-2.62-9.65-1.67-11.2-7.14-1.63-5.74,13.49-7.92,16.45-7.94,19.62-.13,39.46-1.85,59-1.21,54.26,1.76,109,5.19,163.1,5,16.1,0,61.9-7.1,75.16-2.29,6.36,2.32-4.15,16.2-7.81,17.58Z" fill="#c7e1e6"/><path d="M603.65,1027.85c-6.24-13.22-5.72-28.28,1.16-33.64s17.52,1,23.75,14.24,5.73,28.29-1.15,33.65S609.89,1041.08,603.65,1027.85Z" fill="#fff"/><path d="M1202.44,1246.86c-.73,0-1.18,0-1.27,0l-263.64-3.15c-.8,0-20.65-.2-33.36-9.43a9.07,9.07,0,0,0,.32-12,4.58,4.58,0,0,1,4.57-4.49h.09l320.67,6a4.57,4.57,0,0,1,4.08,6.47c-.17.37-4.17,9-12.63,13.14C1214.68,1246.54,1205.74,1246.86,1202.44,1246.86Zm-292.86-20c10.31,7.45,27.86,7.66,28,7.66l263.79,3.15c2.8.11,10.88-.18,15.82-2.61a16.1,16.1,0,0,0,3.53-2.43Z" fill="#571419"/><path d="M888.49,1241a25.23,25.23,0,0,1-3.4-.22c-4.94,0-64.72-.15-151.1-3.22-89.73-3.19-210.52-9.61-211.73-9.68l-23.52-1.35c-2.24,0-15-.41-25.05-13.42-5.58-7.2-8.24-15.42-10-20.85-.5-1.53-.92-2.85-1.33-3.84-2.29-5.59-7.39-22.74-8.78-27.46a4.68,4.68,0,0,1-.45-1L362,841.53c-.13-.4-3.82-12.47,1.22-21.8,4.48-8.29,15.25-8.35,15.69-8.31l388.15-8.14c1.72-.12,12.1-.54,19.73,6.93s11.64,22.15,11.82,22.77l107.55,378.24c.61,2,3.57,12.57.68,19.35C903.33,1238.78,894.85,1241,888.49,1241Zm-389.67-23.63h.26l23.69,1.37c1.19.06,121.9,6.48,211.54,9.66s150.5,3.22,151.1,3.22a4,4,0,0,1,.69.06c.08,0,9.76,1.32,12.32-4.68,1.18-2.77.08-9.51-1-13.18L789.79,835.45c-1-3.65-4.63-14-9.4-18.7-5-5-12.59-4.34-12.67-4.34l-.33,0L379,820.57c-.16,0-5.88.13-7.71,3.52-3.17,5.86-.54,14.73-.51,14.82l90.82,317.27a4.83,4.83,0,0,1,.42,1c.06.22,6.38,21.82,8.82,27.74.47,1.16,1,2.7,1.56,4.49,1.66,5.12,3.94,12.14,8.54,18.08,7.82,10.08,17.3,9.91,17.7,9.87Z" fill="#571419"/><path d="M1228.9,1229.25h-.32l-325.82-22.47a4.58,4.58,0,1,1,.63-9.13l325.82,22.48a4.57,4.57,0,0,1-.31,9.13Z" fill="#571419"/><path d="M1422.79,520c-3,5.46-15,6.06-20.73,9.19-14.93,8.15-27.17,20.63-31.11,37.7-4.3,18.66,2.72,36.41,4.24,54.67,2.43,29.17-1,62.56,9,90.49,3.58,10,10.75,18.85,15.08,28.74,6.81,15.56,12.54,32.81,25,45.24,10.29,10.3,22.49,18.73,36.75,22.62,7.76,2.12,23.13-2.11,28.28,6.13,10.26,16.42,6.39,38.35,9.43,56.55,1.55,9.36,15.89,13.67,20.26,21.68,1.1,2,10.89,25.27,14.61,24,9.66-3.22,15-17.34,21.68-24,25.26-25.26,43.34-57.06,60.32-88.6,5.67-10.53,14.94-27.92,17-40,1-6.32-2.35-11.64-4.72-17-6.1-13.74-7.18-35.63-4.71-50.43,1.16-6.93,25.2-22.76,30.16-33.93,4.74-10.67,2.53-29.39-5.18-38.64-10.46-12.55-37.9-13.29-46.19,3.3-2.47,4.94-6.26,25.38-16.49,20.26-2.7-1.35-.67-14-.94-16.49-6.78-61-68-54.17-107-83.42C1462.57,536.89,1440.5,487.94,1422.79,520Z" fill="#ffe4ce"/><path d="M1185.55,987.28c-5.53-6.28-15.07-10.22-21.88-15.19-12.59-9.19-25-27-40.75-30.91-18.91-4.7-41.68,5.17-61.06,3.62-10.6-.84-26.09-8.95-36.28-7.35-10.46,1.63-12.92,19.69-20,25.89-21.57,19-28,3.16-47-1.56-4.61-1.15-10.65-.16-14.82-3.21-2.45-1.78-2.53-5.81-4.8-7.2-13.49-8.29-32.24-7.12-26.93-29.51,2.3-9.73,30.05-46.85,25.59-51-5.21-4.79-17.72.22-24.55-.84-6.23-1-13.27-.91-19.6-.94-9.79-.05-66.34-12.05-60.89-31.37,3.72-13.21,72.89-7.11,85.8-4.1,20.91,4.87,41.19,3,61.44,5,64.46,6.08,132.68,15.88,190.44,48.18,9.49,5.31,32.44,14.85,38.36,24.68,4.19,7-11.08,49.23-12.49,48.92Z" fill="#ffe4ce"/><path d="M1372.54,624.23c-22.82-19.15-30-37.57-33.12-65.55-23.21,6.34-14.89,10.13-27.4-1.49,35.58-32.83,41.59-75.34,65.48-105.19,22.36-27.94,61.91-44.14,113.26-49.57,37.78-4,58.32,2.33,66.75,12.32,1.19,1.4,35.71,4.3,44.27,11,17.82,13.9,86.72,81.78,73.06,114-3.74,8.8-10.2,10.09-13,19.23-5.72,18.75-1.38,52.58-12,57.57-10.32,4.84-25.86-6.39-34.18,1.4-10,9.38-15.71,23.7-27.62,30.5-7.34-9-5.28-22.92-10.72-33.2-6.57-12.42-14.46-25.12-25.94-33.21-17.89-12.6-41.07-15.78-59.76-27.16-11.19-6.82-40.2-39.54-53.26-46.08-10.47-5.23-6.92,14.38-17.37,15.46-32.73,3.41-48.22,30-54.82,59.51Z" fill="#f4c04d"/><path d="M1483.22,1520.38c.82-26.05,7-62.6,9.16-98.83,1.58-26.44,3.67-75.45,3.67-75.45s13.32-17,15.94-66c1.86-34.75-10.93-103.38-10.93-103.38l-40.81,1s-65.6-21.34-130.83-53.94-94.62-58.58-130.09-76.49c-13.59-6.86-34.06-22.62-36.26-31.35-2-8,1-32.07,8.52-36.72,4.84-3,14.08,14.2,16.77,8.53s5.51-11.47,7.76-17c9.75-24.12,11.11-49.78,14.23-66.6,124.89,43.06,130.81,56.72,255.7,99.78-2.06-9-8.5-47.21-12.34-59-5-15.41-7.52-24.46-14.62-38.89-4.15-8.44-10.64-20.53-15.75-27.92a145.35,145.35,0,0,0-11.91-14.41s29.8-13.5,51-28.26c7.42-5.17,9.82-18.73,16.61-22,3.91-1.88,6.24,5.52,9.63,3.77,8.4,19.47,5.49,51.85,10.63,62.05,7.51,14.87,20.79,13.12,33,41.49,25.92-29.06,58.32-71.3,74.14-102.43,13.3-26.19,20.18-54.4,24.41-64,3.76-8.54-7.07-25.26-3.45-33.81,9.65,1.86,17.88,4.55,25.49,12.07,5.39,5.32,10,16.27,16.56,16.87,16.72,1.54,36.78-5.91,59.91-7.89,28.35-2.42,60.09.8,81,7.15,36.06,11,75.29,52.35,85.55,91.32s14,84.42,19.88,128.7c13.6,102.21,19.58,213.17,31.92,313.14,10.85,87.87,7.61,178.2,23.87,265.24-32,8.14-110,22.2-142.88,25.15-92.56,8.31-206.89,1.78-270.31-14.67Z" fill="#fff"/><path d="M1485.6,1825.28c-4.42-63-15.33-258.5,2.41-308.26,66.61,59.09,184.78,58.89,261.74,59.73,76.78.84,112.75-4.72,188.69-16.08,12-1.8,31.23-7.65,31.23-7.65s4.34,78.89,3.11,99.11c-2.41,39.38.31,133.69-.42,173.15Z" fill="#86a8c3"/><g opacity="0"><path d="M1643.79,621.11c2.33-4.64,1.8-11.4,2.89-16.62,3.72-17.67,5.83-34.69,4.7-52.75-.16-2.59.76-6.15,0-8.67-3.75-12.51-13.65-22.16-17.7-34.33-.12-.34-.26-.83,0-1.09,2-2,8.2-2.26,10.84-3.25s5.85-3.42,8.31-5.06c.33-.22,1.82-1.78,1.08-2.53-9.47-9.46-32-9.64-44.08-17-23.85-14.48-41.6-36.86-70.46-42.27-14.35-2.69-27.49,9.59-41.91,6.5-7.92-1.7-14.53-7.8-22.41-10.12-14.16-4.16-33.34-2.3-47.33,1.81-8.54,2.51-19.3,9.58-24.93,16.62-2.72,3.4-4.47,7.36-7.59,10.48-2.74,2.74-6.57,4.58-9,7.59-6.85,8.37-11.86,19.63-21.32,25.65-11.73,7.46-26.9,11.55-38.3,19.15-2.14,1.43-11.46,4.23-10.84,8,.64,3.88,17,7.87,21,8.31,1.08.12,4.46-.63,5.42,0,.54.36-.38,1.26-.73,1.81a93.54,93.54,0,0,0-6.5,11.56c-5,11.31-11.67,22-15.18,34-6.36,21.64,9,55.75,19.52,72.62,8,12.86,18.43,41.25,19.51,56.37,0,.72,5-7.39,15.83-7.7,40.53-1.14,144-1.13,200.34-16,29.17-7.7,28.79-56.9,29.89-55.79Z" fill="#926359"/><path d="M1358.76,712.47a4.68,4.68,0,0,1-4.62-4.31c-1-14.43-11.38-42.37-18.82-54.27-10.73-17.17-27-52.56-20-76.35,2.44-8.28,6.29-16,10-23.38,1.83-3.65,3.72-7.42,5.38-11.15a68.67,68.67,0,0,1,3.8-7.23c-5.43-.95-22-4.45-23.28-11.84-1-6.26,6-9.43,10.73-11.52.88-.4,1.65-.72,2.1-1,6.18-4.13,13.36-7.25,20.29-10.26,6.24-2.71,12.68-5.51,18.08-8.94,5.6-3.57,9.54-9.43,13.72-15.63,2.05-3.05,4.17-6.2,6.51-9.06a30.28,30.28,0,0,1,5.85-5.13,29.6,29.6,0,0,0,3.49-2.8,31.47,31.47,0,0,0,4-5.34,56.71,56.71,0,0,1,3.29-4.76c6.16-7.69,17.61-15.32,27.22-18.15,12.93-3.8,33.76-6.56,49.91-1.81a55.21,55.21,0,0,1,11.42,5.29c3.65,2.05,7.11,4,10.65,4.74,6.08,1.31,12.27-.81,18.84-3.05,7.23-2.47,14.71-5,23-3.47,20.42,3.83,35.54,15.67,50.16,27.11,7,5.46,14.18,11.11,21.83,15.75,4.7,2.85,11.79,4.64,18.64,6.37,9.88,2.5,20.09,5.07,26.3,11.29a5.28,5.28,0,0,1,1.52,4.3,8,8,0,0,1-3.3,5.27l-1.59,1.09a37.37,37.37,0,0,1-7.65,4.45,28.3,28.3,0,0,1-4.56,1.09c-.65.12-1.55.28-2.41.47a92.66,92.66,0,0,0,7,12.54c3.67,5.85,7.47,11.9,9.59,19a18.9,18.9,0,0,1,.32,7.07,20.6,20.6,0,0,0-.14,2.63c1,16.66-.43,33.31-4.78,54a51.7,51.7,0,0,0-.69,5.65c-.36,4.11-.72,8.36-2.58,12.07a4.58,4.58,0,1,1-8.19-4.09c1.08-2.15,1.37-5.52,1.65-8.77a58.29,58.29,0,0,1,.86-6.74c4.17-19.83,5.59-35.72,4.6-51.53a26.43,26.43,0,0,1,.15-4,14,14,0,0,0,0-3.65c-1.76-5.87-5.08-11.14-8.58-16.73-3.42-5.44-7-11.06-9.08-17.47a5.34,5.34,0,0,1,1.1-5.76c2.33-2.33,6.12-3,9.46-3.64a24.15,24.15,0,0,0,3-.66,24.73,24.73,0,0,0,4.45-2.57c-4.84-2.87-11.89-4.65-18.76-6.39-7.5-1.89-15.27-3.85-21.15-7.42-8.11-4.93-15.54-10.74-22.72-16.36-14.39-11.27-28-21.91-46.2-25.33-5.89-1.1-11.94,1-18.33,3.14-7.45,2.54-15.15,5.17-23.7,3.34-4.9-1-9.13-3.42-13.22-5.71a48,48,0,0,0-9.52-4.49c-14.23-4.19-33-1.65-44.75,1.81-7.75,2.28-17.7,8.91-22.65,15.09a46.66,46.66,0,0,0-2.73,4,38.83,38.83,0,0,1-5.19,6.88,36.71,36.71,0,0,1-4.57,3.72,23,23,0,0,0-4.16,3.54c-2.07,2.53-4,5.36-6,8.37-4.51,6.71-9.18,13.65-16.4,18.24-6,3.82-12.78,6.76-19.34,9.61-6.87,3-13.36,5.81-18.88,9.49a24.64,24.64,0,0,1-3.43,1.72c-.88.4-2.47,1.1-3.76,1.81a67.63,67.63,0,0,0,15.27,4.38c.06,0,.45-.07.87-.11,2.16-.22,4.61-.47,6.58.85a5.26,5.26,0,0,1,2.14,3.27,5.94,5.94,0,0,1-1.45,4.68l-.21.32a87.81,87.81,0,0,0-6.06,10.76c-1.74,3.92-3.68,7.79-5.56,11.53-3.7,7.39-7.2,14.37-9.41,21.87-5.65,19.21,8.27,51.73,19,68.91,6.93,11.09,15.76,33.57,19,50.13a24.82,24.82,0,0,1,12.32-3.61c5.41-.15,11.95-.29,19.34-.44,46-.93,131.64-2.67,180-15.42,21.12-5.57,24.73-37.83,25.92-48.43.45-4,.7-6.26,3.58-7.27a4.67,4.67,0,0,1,4.8,1.11,4.57,4.57,0,0,1,1,5.06c-.06.51-.14,1.22-.24,2.11-1.36,12.15-5.5,49.1-32.67,56.27-49.38,13-132.47,14.71-182.12,15.72-7.36.15-13.87.28-19.26.44a16.82,16.82,0,0,0-12,5.73A5.61,5.61,0,0,1,1358.76,712.47Zm291.53-216.93h0Z" fill="#571519"/><path d="M1603.19,633.79c15.85-9.77,31-19.14,45.56.17,3.54,4.69,7.35,10.5,7.13,16.67-.49,14-7.32,30.17-16.41,39.47-6.37,6.52-11.25,4-14.51,12.27-1.75,4.46,5.65,32.81,5.39,42-1.19,42.5-24.75,95.1-56.08,123.27-7.86,7.07-38.3,59-43.78,49.67-10-17-32.55-30.84-42.73-41.95-20.94-22.85-44.34-43.21-65.54-65.82-7.55-8.06-20.18-26.91-25.83-36.39-12.68-21.28-16.36-43-20.1-66.76-4.26-27.19-16.54-55.56-16.54-55.56s18.82-18.75,21.74-20.88c1.29-.95,2.16-.57,3.22.42,11.87,11.18,26.75,19.35,38.37,30.46,1,.93,1.6,3.64,2.74,2.94,1.5-.93-1.94-5-2.26-5.45a38.61,38.61,0,0,1-8.18-16.57c-.4-1.83-2.37-5.43-.5-5.6s14.28,9.74,16.4,11.62c15,13.37,26.36,14.58,44.83,16.17,2,.17,13.6-1.45,14.83-2.92,2-2.43-6-6.26-8.18-8-9.84-7.7-25-28.78-28.71-40.86,0-.1-1.3-4-.42-4.56.37-.22,36.72,14.81,41.34,16.09,16.67,4.61,27.71.69,45.17.59,3.93,0,18.58-3.43,21.86-.69,9.65,8.07,11.4,55.94,14.56,57.18,5.62,2.2,11.73-12.15,11.36-16.3Z" fill="#ffe4ce"/><path d="M1532.29,923H1532a6.58,6.58,0,0,1-5.49-3.36c-6-10.26-17.3-19.58-27.23-27.8-5.7-4.72-11.09-9.18-14.94-13.38-10.92-11.92-22.76-23.39-34.22-34.49-10.4-10.07-21.15-20.49-31.28-31.29-8.28-8.84-21.29-28.58-26.42-37.18-13.52-22.67-17.16-45.91-20.69-68.39-4.12-26.31-16.1-54.17-16.22-54.45a4.58,4.58,0,0,1,1-5.06c3.19-3.17,19.22-19.12,22.28-21.34,1.39-1,5.06-3,9,.79,5.65,5.32,12.23,10.1,18.6,14.72,1.71,1.24,3.44,2.49,5.16,3.77-.26-.92-.5-1.86-.71-2.81a9.48,9.48,0,0,0-.39-1.18c-.74-2.1-1.76-5-.12-7.52a5.35,5.35,0,0,1,4.07-2.43c5-.4,19.26,12.23,19.87,12.76,14.19,12.62,24.72,13.53,42.18,15a46.48,46.48,0,0,0,6.42-.76l-.25-.16c-1.14-.71-2.13-1.34-2.74-1.82-10.86-8.49-26.41-30.65-30.26-43.11-1.14-3.21-1.85-7.69,1.54-9.79,2.13-1.31,2.12-1.33,19.93,5.81,9.58,3.84,22.71,9.1,25,9.75,10.43,2.88,18.61,2.17,28.07,1.33,4.9-.42,10-.87,15.85-.9.83,0,2.94-.31,5-.6,9.64-1.38,16.22-2.05,19.85,1,6.86,5.74,9.71,22.48,12.73,43.76.52,3.64,1.11,7.84,1.65,10.79,2-2.76,4.11-7.79,4-9.79a4.67,4.67,0,0,1,4.29-4.82,4.45,4.45,0,0,1,4.83,4c.41,4.56-3.65,15.35-9.23,19.53a8.39,8.39,0,0,1-8.37,1.44c-3.65-1.44-4.2-5.35-6.27-19.9-1.66-11.74-4.74-33.44-9.33-37.84-2.17-.65-9.65.42-12.9.88a54.39,54.39,0,0,1-6.21.69c-5.52,0-10.4.46-15.11.87-9.93.87-19.29,1.69-31.31-1.63-2.62-.73-12.43-4.63-26-10.08l-7.72-3.09c5.07,11.28,17.29,28,25.56,34.49.42.33,1.13.75,1.92,1.25,3.77,2.33,7.66,4.75,8.27,8.53a5.85,5.85,0,0,1-1.32,4.74c-3.19,3.82-18,4.61-18.73,4.54-18-1.55-31-2.67-47.48-17.31-1.27-1.13-4.1-3.41-7-5.58a36.42,36.42,0,0,0,5.85,9.84c2.91,3.61,4,6.14,3.56,8.53a5.3,5.3,0,0,1-2.47,3.68,5.21,5.21,0,0,1-4.1.62c-2.38-.63-3.47-2.64-4.12-3.83-.09-.16-.17-.33-.26-.48-5.61-5.33-12-9.94-18.67-14.81a210.49,210.49,0,0,1-18.27-14.33c-3.18,2.88-10.56,10.05-17.65,17.08,3.26,8,12.11,31.08,15.66,53.78,3.39,21.61,6.9,44,19.51,65.11,5.8,9.74,18.13,28,25.24,35.61,10,10.64,20.65,21,31,31,11.55,11.19,23.49,22.76,34.6,34.88,3.42,3.73,8.58,8,14,12.52,9.94,8.23,21.13,17.5,28.12,28.33,5.38-4,17.19-20.83,23.8-30.28,6.92-9.87,11.3-16,14.13-18.6,29.94-26.93,53.4-78.52,54.57-120,.1-3.77-1.46-12.33-2.84-19.89-2.6-14.23-3.53-20.34-2.23-23.63,2.55-6.5,6.29-8.27,9.59-9.84a18.06,18.06,0,0,0,5.9-4c8.44-8.64,14.66-23.62,15.11-36.44.17-4.65-3-9.55-6.21-13.74-11.51-15.22-21.95-9.86-39.42.91l-2.49-3.84-2.31-3.95c15.34-9.46,34.43-21.23,51.52,1.36,4.13,5.47,8.32,12.07,8.06,19.59-.54,15.13-7.66,32.21-17.72,42.5a26.42,26.42,0,0,1-8.52,5.82c-2.66,1.27-3.77,1.8-5,4.93-.33,1.94,1.51,12,2.72,18.64,1.61,8.77,3.12,17.06,3,21.79-1.24,44.43-25.46,97.65-57.59,126.54-2.2,2-7.57,9.65-12.75,17C1548,911.7,1539.35,923,1532.29,923Zm27.15-295.62Zm43.75,6.45h0Z" fill="#571519"/><path d="M1644.07,728.15c12,4,20.6,21,35.56,26,69.46,23.15,147.43,29,197.83,88.26,36,42.4,64.75,101.64,82.62,155.84s23.92,83.91,33.55,132.71c4.59,23.23,8.07,39.53,12.11,68.86s2.19,56-11.1,82.6c-6.69,13.38-35.56,36.51-35.56,36.51s4.23,60.19,7,80.6c4.3,32.23,4.69,67.47,4.69,99.89,0,11.7-.55,46-.55,46s-86.21,16.72-119.23,21.23c-37.47,5.1-77.93,8.2-115.81,6.55-39.37-1.71-75.22-.39-114.24-6.55-33.61-5.31-67.3-17.33-98.64-28.72-8.72-3.17-29-24.69-37-29.51-10-6,2.48-50.54,3.21-59.13a954.11,954.11,0,0,0,2.83-123.6c-.15-3.61-.18-27.9-3.26-31s-16.53,35.22-27,45.14c-12,11.43-74.68.14-88.84-8.18-10.93-6.43-39.86-11-46.65-22.34-6.22-10.36-7.87-26.05.6-29.55,5.8-2.41,16,9.22,23.11,8.76,4.88-.32,8.08-11.44,8.55-16.18,1.38-13.75,7-43,2.33-59-3.5-12-14.6-6.68-19.57-14.14-2.72-4.1-1.35-20.38-1.12-26.08.9-22.46,2.52-43.67-.8-66.28-8.66-58.9-17.64-120.24-10-172.59,2.93-20.06,8.08-25.93,18.58-43.44,7.31-12.18,32.32-28.89,43.45-37.44,10.19-7.85,25.21-26.53,38.58-28,12-1.34,28.91,24.67,48.79,41.55,18.08,15.36,29.71,20.91,35.81,28.76,5.52,7.09,14.16,26.26,19.73,24.86,3.57-.89,7.7-16.33,10.85-18.7,26.3-19.72,83-106.59,83-141.86Z" fill="#fff"/><path d="M1756.28,1578.28q-11,0-21.35-.45c-11.16-.49-22.19-.73-32.86-1-27.61-.62-53.69-1.19-81.89-5.65-35.22-5.56-70.86-18.52-99.49-28.94-5.5-2-13-8.5-23.8-18.19-5.43-4.87-11-9.9-14-11.68-9.66-5.8-6.12-27.5-.89-53.14.94-4.61,1.75-8.58,1.9-10.31a957.12,957.12,0,0,0,2.81-123c0-.5,0-1.38-.06-2.54-.17-8.26-.48-13.93-.82-17.81-1.14,2.27-2.35,4.76-3.46,7-5.63,11.61-12,24.77-18.15,30.6-14.2,13.53-79.33,1.25-94.31-7.56-3.48-2.05-9.51-4.06-15.89-6.18-13.34-4.43-27.12-9-32.36-17.75s-7.26-20.14-4.8-27.57a13.38,13.38,0,0,1,7.57-8.56c5.21-2.16,10.62,1.17,15.85,4.38,2.9,1.78,6.48,4,8.47,4,1.53-1.12,4.07-7.32,4.54-12.07.29-2.85.75-6.35,1.27-10.26,1.85-14,4.66-35.18,1.22-47-1.28-4.41-3.56-5-7.7-6.1-3.65-1-8.2-2.15-11.29-6.79-2.67-4-2.77-12.17-2-25.83.06-1.16.12-2.17.15-3,.12-3,.26-6.07.39-9.08.85-19.15,1.66-37.24-1.15-56.35-8.73-59.37-17.76-120.75-10-173.92,2.65-18.17,7.07-25.35,15.08-38.4,1.27-2.06,2.64-4.29,4.11-6.73,6.36-10.61,24-23.53,36.83-33,2.95-2.17,5.61-4.11,7.75-5.76,2.73-2.1,6-5.18,9.43-8.44,9.55-9,20.37-19.26,31.44-20.49,10-1.13,19.94,9.54,32.53,23,6.3,6.75,12.81,13.72,19.72,19.6,8,6.81,14.84,11.72,20.33,15.68,7.19,5.18,12.38,8.92,16.13,13.75a100.65,100.65,0,0,1,6.12,9.49c2.3,3.84,6.3,10.51,8.8,12.93,1-1.75,2.3-4.71,3.16-6.67,2.33-5.36,3.88-8.74,6.15-10.44,25.47-19.11,81.17-105,81.17-138.2a4.58,4.58,0,1,1,9.15,0c0,36.85-56.79,124.49-84.83,145.52a52.51,52.51,0,0,0-3.25,6.77c-2.85,6.52-5.09,11.67-9.24,12.71-7.13,1.78-12.62-7.34-19-17.92a96,96,0,0,0-5.49-8.57c-2.94-3.79-7.69-7.21-14.26-12-5.62-4-12.61-9.09-20.9-16.13-7.32-6.21-14.31-13.71-20.49-20.32-9.1-9.75-19.51-20.78-24.83-20.18-8,.89-18.08,10.4-26.16,18-3.62,3.42-7,6.66-10.14,9-2.19,1.68-4.9,3.68-7.91,5.88-11.55,8.47-29,21.27-34.41,30.29-1.49,2.48-2.87,4.73-4.15,6.82-7.62,12.4-11.44,18.63-13.82,34.94-7.56,51.83,1.37,112.54,10,171.26,2.93,20,2.11,38.49,1.23,58.09-.13,3-.27,6-.39,9,0,.84-.09,1.89-.15,3.09-.24,4.36-1,17.6.54,20.31,1.07,1.62,2.88,2.16,6,3,4.55,1.2,11.42,3,14.16,12.39,4,13.67,1.13,35.1-.94,50.76-.51,3.79-1,7.19-1.24,10,0,.19-2.41,19.61-12.81,20.28-4.81.3-9.53-2.57-14.09-5.37-2.22-1.37-6.35-4-7.64-3.7-.32.14-1.54.65-2.3,3-1.63,4.93.07,13.52,4,20,3.49,5.82,16.74,10.23,27.4,13.77,6.85,2.28,13.32,4.43,17.64,7,14.63,8.61,74,17.71,83.36,8.82,4.93-4.69,11.46-18.14,16.23-28,6.87-14.15,8.83-17.88,12.65-18.53a5.09,5.09,0,0,1,4.46,1.44c2.58,2.57,4.06,8.39,4.54,31.67,0,1.08,0,1.9.06,2.36a964.11,964.11,0,0,1-2.84,124.17c-.19,2.25-1,6.07-2,11.36-6.82,33.42-5.59,42.08-3.37,43.46,3.72,2.24,9.14,7.09,15.41,12.72,7.38,6.62,16.56,14.86,20.81,16.41,28.27,10.28,63.45,23.07,97.8,28.5,27.59,4.35,53.37,4.92,80.67,5.53,10.71.24,21.78.48,33,1,33.79,1.48,72.49-.72,115-6.52,28.66-3.91,98.58-17.26,115.34-20.48.14-9.21.48-33,.48-42.25,0-31.16-.36-67.1-4.65-99.28-2.7-20.32-6.8-78.43-7-80.89a4.55,4.55,0,0,1,1.7-3.89c7.82-6.27,29.21-24.75,34.33-35,11.74-23.48,15-48.13,10.65-79.94-3.53-25.71-6.59-41.08-10.46-60.56l-1.6-8c-10-50.45-16-79.24-33.4-132.16-19.9-60.34-49.7-116.58-81.77-154.31-37.18-43.74-88.93-57.44-143.72-71.93-17.21-4.56-35-9.26-52.07-15-8.89-3-15.64-9.55-21.58-15.36-4.8-4.69-9.34-9.11-14-10.66a4.58,4.58,0,1,1,2.9-8.68c6.64,2.21,11.9,7.35,17.47,12.8s11.18,10.92,18.08,13.22c16.8,5.59,34.45,10.26,51.52,14.78,53.74,14.22,109.32,28.92,148.35,74.85,32.81,38.6,63.24,96,83.49,157.38,17.61,53.43,23.66,82.44,33.69,133.25l1.59,8c3.9,19.62,7,35.12,10.56,61.1,4.64,33.74,1.08,60-11.54,85.27-6.1,12.2-28.25,31-34.91,36.5.81,11.34,4.38,60.21,6.75,78,4.36,32.74,4.72,69,4.72,100.49,0,11.6-.53,45.77-.54,46.11a4.58,4.58,0,0,1-3.7,4.42c-.87.17-86.72,16.8-119.49,21.27C1817.19,1575.92,1785.25,1578.28,1756.28,1578.28Zm213.89-32.8h0Z" fill="#571519"/><path d="M1970.18,1752.81c7.87-15.75.66-68.8.66-88.21,0-14-5.58-117.53-5.58-117.53s-62.75,17.74-75.18,19.52c-65.19,9.31-158.35,7.74-223.9,4.69-55.55-2.58-78.76-7.09-131.28-26-5.55-2-48.46-29.43-48.46-29.43s-6.67,62-6.25,79.64c1.33,56.14-3.4,99.18-3.4,155.4Z" fill="#698ab5"/><path d="M1970.17,1757.39a4.69,4.69,0,0,1-2-.48,4.57,4.57,0,0,1-2-6.14c5.11-10.22,2.87-42.08,1.39-63.17-.65-9.34-1.22-17.4-1.22-23,0-11.83-4.09-89.7-5.26-111.58-15.71,4.4-59.75,16.59-70.27,18.1-69.8,10-170.78,7.24-224.76,4.73-56.34-2.62-79.89-7.28-132.62-26.26-4.73-1.7-30.22-17.71-43.13-25.9-1.73,16.9-5.78,58.11-5.46,71.71.74,31.36-.37,58-1.55,86.31-.9,21.79-1.84,44.33-1.84,69.19a4.58,4.58,0,1,1-9.15,0c0-25.05.94-47.68,1.85-69.57,1.17-28.11,2.28-54.65,1.54-85.72-.42-17.77,6-77.7,6.28-80.24a4.57,4.57,0,0,1,7-3.37c17.64,11.28,44.06,27.72,47.55,29,51.66,18.6,74.73,23.17,129.94,25.73,53.66,2.49,154,5.22,223-4.65,12-1.71,74-19.22,74.59-19.39a4.58,4.58,0,0,1,5.81,4.15c.23,4.24,5.58,103.81,5.58,117.78,0,5.28.56,13.19,1.2,22.36,1.73,24.7,3.89,55.44-2.34,67.9A4.58,4.58,0,0,1,1970.17,1757.39Z" fill="#571519"/><path d="M1501.77,776.68c0,32.22-49.63,36.48-58.71,9.26Z" fill="#fff"/><path d="M1471.38,808.44c-13.6,0-27.86-6.64-32.66-21.06a4.57,4.57,0,0,1,8.68-2.89c4,11.91,17.61,16.25,29,14.4,10-1.63,20.76-8.32,20.76-22.21a4.58,4.58,0,0,1,9.15,0c0,16.18-11.16,28.44-28.44,31.24A40.3,40.3,0,0,1,1471.38,808.44Z" fill="#571519"/><path d="M1361.12,1214.06c.59-1.53-10-5.72-11.93-6.85-6.6-3.85-12.43-9.35-15.82-16.26-9.5-19.4-13.79-42.63-24.91-61.06-3.79-6.28-9.49-11-13.78-16.75-17.66-23.86-22.13-52.2-33.46-78.91-2.53-6-7.69-24.91-18.2-16.33-11.29,9.22-3,40.39-10.74,45.24-5.83,3.66-13.81-11.08-17.9-13.39-5.09-2.87-15.22,9.28-18.31,13-10,12.19-12.2,27.23-15.2,42.11-1.48,7.36-11.85,40.32-9.92,47.53,3.94,14.7,26.92,24.26,37.54,32.25,8.72,6.57,14.55,17.13,23,23.57,14.6,11.07,30.78,20.2,44.91,31.83,20.88,17.18,35,33.27,61,41.53,2,.65,12.39,6.84,12.53,6.79,5.91-1.78,13.18-35.32,12.58-41.55Z" fill="#ffe4ce"/><path d="M1349.92,1293c-1.15,0-2.3-.65-5-2.21-2.31-1.32-7.72-4.42-8.93-4.88-21.4-6.81-35.38-19-50.18-31.87-3.91-3.4-8-6.92-12.26-10.47-7.79-6.41-16.45-12.2-24.83-17.81-6.62-4.42-13.46-9-19.94-13.9-4.6-3.5-8.39-8-12-12.3s-7-8.26-11-11.26c-2.6-2-6.18-4.13-10-6.42-11.52-7-25.86-15.69-29.25-28.3-1.46-5.48,1.29-17.61,7.24-39.52,1.21-4.45,2.25-8.29,2.62-10.1l.81-4.11c2.7-13.8,5.5-28.05,15.33-40,7.26-8.82,16.56-18.38,24.09-14.13,2.08,1.17,4,3.43,6.36,6.28,1.75,2.08,5.26,6.27,7,7,1.28-1.85,1.5-9.63,1.63-14.37.32-11.23.68-24,8.47-30.32,4.38-3.58,8.23-3.54,10.69-2.88,7.44,2,11.14,11.84,13.59,18.34.39,1,.72,1.92,1,2.62,3.87,9.13,7,18.49,10,27.54,6,18.09,11.66,35.17,23,50.44a81.69,81.69,0,0,0,5.58,6.52,67.33,67.33,0,0,1,8.44,10.59c6.53,10.83,10.78,23.19,14.88,35.14,3.06,8.89,6.21,18.08,10.22,26.26,3.48,7.11,9.54,11.72,14,14.33.45.27,1.45.71,2.65,1.25,7.67,3.53,13.22,6.07,11.24,11.2a4.58,4.58,0,0,1-5.91,2.62,4.52,4.52,0,0,1-2.4-2.14c-1.51-1-5.1-2.6-6.74-3.36s-2.87-1.33-3.46-1.67c-8-4.66-14.06-11-17.61-18.2-4.27-8.7-7.52-18.17-10.66-27.32-3.95-11.5-8-23.39-14.06-33.38a59.31,59.31,0,0,0-7.35-9.13,91,91,0,0,1-6.2-7.27c-12.17-16.44-18.33-35-24.28-53-2.94-8.88-6-18.06-9.71-26.85-.34-.79-.73-1.81-1.16-3-1.23-3.27-4.5-11.95-7.41-12.73-.75-.2-1.9.62-2.53,1.13-4.55,3.71-4.85,14.68-5.1,23.49-.28,10-.52,18.57-6.09,22.07-7.29,4.57-14.19-3.65-18.75-9.09a47.15,47.15,0,0,0-3.58-4c-1,.25-4.63,1.84-12.79,11.76-8.37,10.17-10.82,22.69-13.42,35.94l-.82,4.16c-.43,2.12-1.46,5.9-2.76,10.7-2.49,9.16-8.32,30.62-7.23,34.75,2.43,9.07,15,16.71,25.15,22.84,4,2.42,7.75,4.7,10.72,6.94,4.82,3.62,8.7,8.21,12.46,12.65,3.5,4.14,6.8,8,10.6,10.92,6.26,4.75,13,9.25,19.5,13.6,8.56,5.73,17.42,11.65,25.55,18.34,4.41,3.63,8.5,7.2,12.46,10.64,14.68,12.78,27.35,23.82,47,30.07,1.53.49,4.57,2.16,10.35,5.47,3.9-7,9.29-30.46,8.81-35.43a4.58,4.58,0,1,1,9.11-.88c.54,5.56-5.8,43.34-15.81,46.37A4.16,4.16,0,0,1,1349.92,1293Zm6.93-80.61Z" fill="#571519"/><path d="M1703.4,1192.83c-5.19-2.42-14.46,1.17-20.72-1.09-17.26-6.23-36.54-23-50.19-34.83-39.53-34.35-67.62-76.6-126.53-70.49-15.33,1.58-4.89,13.86-13.4,20-11.44,8.28-10,9.6-11.41,21.71-.29,2.55-5.64,3.4-6.37,7.13-1.62,8.36,2.76,15.23,3,23.38.15,5.75-4,11.29-3.94,17.62.18,20.18,7,56.23,29.18,65.19,15.38,6.23,30,5.8,46.09,7.39,25.23,2.47,49,13.47,73.61,17.71,9.35,1.61,19.7-.64,28.82,1.59,10.72,2.62,22.39,3.34,32.86,7,9,3.15,20.74,10.32,30.26,9.33,4.93-.51,6.67-15.23,6.65-19.63-.07-13.75,4.55-48.78-6.8-59.54Z" fill="#ffe4ce"/><path d="M1712.82,1289.18c-7.39,0-15.2-3.42-22.16-6.48-2.8-1.22-5.44-2.38-7.8-3.21-6-2.09-12.33-3.16-19.08-4.3-4.4-.74-9-1.51-13.35-2.58s-9.12-1-14.23-.88a75.4,75.4,0,0,1-14.28-.65c-11.06-1.91-22-5.17-32.62-8.32-13.24-3.93-26.93-8-40.66-9.35-3.56-.35-7.06-.6-10.5-.85-12.47-.9-24.25-1.74-36.85-6.84-24.89-10.08-31.85-48.36-32-69.4,0-4,1.2-7.55,2.29-10.68.87-2.49,1.7-4.85,1.65-6.86a39.65,39.65,0,0,0-1.55-8.63c-1.17-4.61-2.5-9.83-1.35-15.74.76-3.87,3.68-5.85,5.62-7.16l.8-.55c.12-1.15.23-2.19.32-3.15.93-9.61,1.7-12.75,12.84-20.82,1.68-1.21,1.93-2.79,2.13-6.37.29-4.93.76-13.17,13.49-14.49,49.53-5.15,78,22.21,108,51.16,7,6.79,14.35,13.81,22,20.43,12.84,11.16,32.24,28,48.74,34,2.17.78,5.52.5,8.76.23,4.24-.36,8.63-.72,12.35,1a4.58,4.58,0,1,1-3.88,8.3c-1.5-.71-4.8-.44-7.71-.19-4,.33-8.57.72-12.62-.75-18.11-6.53-37.49-23.38-51.64-35.67-7.8-6.78-15.18-13.88-22.32-20.75-29.74-28.62-55.43-53.37-100.74-48.65-5,.51-5,1.34-5.29,5.91-.22,3.74-.54,9.39-5.9,13.26-8.3,6-8.35,6.48-9.1,14.29-.13,1.26-.26,2.66-.44,4.25-.38,3.26-3,5-4.66,6.15a8.39,8.39,0,0,0-1.8,1.42c-.73,3.81.2,7.44,1.27,11.65a47.26,47.26,0,0,1,1.82,10.64c.1,3.68-1,7-2.15,10.12-.93,2.66-1.81,5.17-1.78,7.58.18,20.31,7.35,53.31,26.32,61,11.27,4.56,22.35,5.36,34.08,6.2,3.52.26,7.09.51,10.74.87,14.59,1.44,28.72,5.63,42.37,9.69,10.34,3.08,21,6.26,31.56,8.07a67.51,67.51,0,0,0,12.56.52c5.46-.1,11.1-.2,16.58,1.14,4.07,1,8.26,1.7,12.69,2.45,6.83,1.15,13.89,2.34,20.6,4.69,2.68.94,5.47,2.17,8.43,3.46,6.41,2.82,13.65,6,19.22,5.69,1.6-2.09,3.19-10.3,3.17-15.11,0-2.85.15-6.45.35-10.61.69-14.38,1.84-38.45-5.73-45.63a4.58,4.58,0,1,1,6.3-6.64c10.61,10.06,9.43,34.71,8.57,52.71-.19,4-.36,7.51-.34,10.12,0,.24-.19,23.12-10.76,24.22C1714.35,1289.14,1713.59,1289.18,1712.82,1289.18Z" fill="#571519"/></g><path d="M1469.33,1009.23c-12.48,0-41.11-11.86-98.93-36.28-44.4-18.77-99.66-42.12-162.8-65.44a4.58,4.58,0,0,1,3.17-8.59c63.33,23.4,118.7,46.8,163.2,65.6,47.37,20,88.28,37.31,96.39,35.49,71-15.94,116.62-71.51,156.9-120.53,29-35.33,56.44-68.69,89.68-83.22a4.57,4.57,0,0,1,3.66,8.38c-31.22,13.65-58,46.2-86.27,80.65-41.22,50.16-87.93,107-162,123.65A14.36,14.36,0,0,1,1469.33,1009.23Z" fill="#571419"/><path d="M1971,1552.36a4.58,4.58,0,0,1-4.58-4.58c0-43.22-54.7-598.23-62.26-631.77a4.57,4.57,0,1,1,8.92-2c7.6,33.66,62.49,590.45,62.49,633.79A4.58,4.58,0,0,1,1971,1552.36Z" fill="#571419"/><path d="M1482.92,1514.94a3.17,3.17,0,0,1-.44,0,4.56,4.56,0,0,1-4.12-5c.51-5.39,1.16-11.69,1.9-18.77,3.88-37.34,9.75-93.78,9.23-151.74a4.58,4.58,0,0,1,4.54-4.62h0a4.57,4.57,0,0,1,4.57,4.53c.52,58.49-5.38,115.23-9.28,152.78-.73,7-1.38,13.32-1.9,18.69A4.56,4.56,0,0,1,1482.92,1514.94Z" fill="#571419"/><path d="M1728.93,1580.61c-54.87,0-104.36-3.35-132.21-9.68-37.1-8.44-87.53-25-117.11-56.21a4.57,4.57,0,1,1,6.63-6.3c28,29.52,76.64,45.43,112.51,53.59,72.39,16.46,292.73,12.59,367.73-18.28a4.57,4.57,0,1,1,3.48,8.46C1922.64,1571.67,1818.61,1580.61,1728.93,1580.61Z" fill="#571419"/><path d="M1971.85,1829.85a4.58,4.58,0,0,1-4.58-4.51c0-.82-1-82.07-.64-105.18.46-27.49,1.58-120.9-3.22-168.65a4.57,4.57,0,1,1,9.1-.92c4.86,48.25,3.73,142.11,3.27,169.73-.39,23,.63,104.08.64,104.9a4.56,4.56,0,0,1-4.51,4.63Z" fill="#571419"/><path d="M1483.21,1829.85a4.58,4.58,0,0,1-4.53-4c-6.16-47.22-5.89-95.11-5.76-118.12l0-6.53c.13-62,1.1-148.6,8-184.25a4.57,4.57,0,1,1,9,1.74c-7.53,38.92-7.76,147-7.83,182.53l0,6.56c-.13,22.82-.4,70.28,5.69,116.88a4.58,4.58,0,0,1-4,5.13A4,4,0,0,1,1483.21,1829.85Z" fill="#571419"/><path d="M1662.78,1829.85h0a4.56,4.56,0,0,1-4.55-4.6c.11-19.17-.47-71.27-4.38-81.9-2.24-6.12-11.11-18.56-18.24-28.56l-3.84-5.4c-13.74-19.45-21-58.82-21.25-60.49a4.57,4.57,0,1,1,9-1.62c.07.39,7.16,39,19.72,56.83l3.82,5.37c8.22,11.53,16.71,23.44,19.38,30.71,5.19,14.11,5,77.89,4.94,85.11A4.58,4.58,0,0,1,1662.78,1829.85Z" fill="#571419"/><path d="M1541.83,975a4.57,4.57,0,0,1-4.51-3.85c-2.51-15.5-5.37-29.62-8.76-43.16a4.58,4.58,0,0,1,8.88-2.21c3.44,13.79,6.36,28.15,8.91,43.92a4.57,4.57,0,0,1-3.79,5.24A4.49,4.49,0,0,1,1541.83,975Z" fill="#571419"/><path d="M1406,868.62a4.58,4.58,0,0,1-2.55-8.38c6.2-4.13,15.39-8.62,25.12-13.36,13.44-6.57,28.69-14,35.09-20.4a4.57,4.57,0,1,1,6.47,6.46c-7.48,7.48-22.77,14.94-37.55,22.16-9.44,4.61-18.36,9-24,12.75A4.47,4.47,0,0,1,1406,868.62Z" fill="#571419"/><path d="M1481.77,948.14a4.57,4.57,0,0,1-1.38-.21c-2.5-.82-5.07-1.66-12.24-38.47-2.16-11.11-7.35-39.61-8.87-64.38-.87-14,10.86-31,16.24-34.7a4.58,4.58,0,1,1,5.2,7.53c-3.24,2.23-12.94,16.44-12.31,26.61,1.91,31.14,9.87,71.33,14.33,88.34.06-.13.13-.25.19-.38,5.2-10.75,12.32-25.47,25.21-27,8.91-1,18.1,4.52,28.17,16.94a4.58,4.58,0,0,1-7.11,5.76c-7.72-9.52-14.6-14.23-20-13.61-7.89.91-13.75,13-18,21.86-2.09,4.33-3.75,7.75-5.59,9.95A5,5,0,0,1,1481.77,948.14Z" fill="#571419"/><path d="M1526.28,921.06a4.57,4.57,0,0,1-4.09-2.51c-.35-.69-.76-1.55-1.23-2.54-2.75-5.8-7.89-16.6-15.92-23.18-17.81-14.59-26.7-30.16-26.42-46.28a4.65,4.65,0,0,1,4.65-4.5,4.59,4.59,0,0,1,4.5,4.66c-.23,13.18,7.53,26.31,23.07,39,9.62,7.88,15.32,19.89,18.39,26.34.43.91.81,1.7,1.13,2.34a4.57,4.57,0,0,1-2,6.14A4.49,4.49,0,0,1,1526.28,921.06Z" fill="#571419"/><path d="M1534.23,928.56a4.47,4.47,0,0,1-1.56-.28,4.57,4.57,0,0,1-2.73-5.87c4.37-12,13.4-22.19,22.13-32.06,3.61-4.08,7-7.94,10-11.8a416.7,416.7,0,0,0,51-86.51c10.26-23.26,16.31-41.76,16.19-49.48a4.58,4.58,0,0,1,4.5-4.65h.07a4.58,4.58,0,0,1,4.58,4.51c.18,11.85-9.13,35.53-17,53.31a425.42,425.42,0,0,1-52.15,88.41c-3.16,4.11-6.84,8.26-10.39,12.27-8.17,9.23-16.61,18.78-20.39,29.14A4.57,4.57,0,0,1,1534.23,928.56Z" fill="#571419"/><path d="M1594.35,927.89a4.53,4.53,0,0,1-2.41-.69c-2.81-1.75-5.82-3.74-8.72-5.67-4.68-3.1-10-6.62-12-7.34-12.13-4.43-16.5-1-25.2,5.87-2.1,1.65-4.47,3.52-7.14,5.41a4.57,4.57,0,1,1-5.28-7.47c2.47-1.75,4.65-3.47,6.75-5.12,9.17-7.23,17.08-13.46,34-7.29,2.85,1,7.14,3.84,13.89,8.32,2.83,1.87,5.77,3.82,8.51,5.53a4.57,4.57,0,0,1-2.43,8.45Z" fill="#571419"/><path d="M1625.25,889.77a4.52,4.52,0,0,1-1.35-.21,4.57,4.57,0,0,1-3-5.72c.73-2.36,3-8.55,6.31-17.91,9.84-27.4,28.14-78.4,34.62-105.51,2.21-9.26-9.46-24.49-21.38-31.92-3.29-2-8.85-3.3-15.28-3.45l0-4.58.25-4.57c4.71.11,13.56.89,19.9,4.84,12.8,8,29.16,26.22,25.44,41.81-6.59,27.6-25,78.91-34.91,106.47-3.19,8.91-5.51,15.35-6.17,17.52A4.59,4.59,0,0,1,1625.25,889.77Zm-.14-169.3.12-4.57Z" fill="#571419"/><path d="M1477.94,1182.1c-85.67,0-305.3-148.69-314.82-155.16a4.57,4.57,0,1,1,5.15-7.56c2.35,1.6,236.59,160.31,314.6,153.36,41.05-3.64,113.44-33.41,215.16-88.47,87.3-47.26,171.48-114.34,172.32-115a4.58,4.58,0,0,1,5.72,7.15c-.85.67-85.64,68.24-173.69,115.91-102.81,55.65-176.4,85.78-218.7,89.54C1481.84,1182,1479.92,1182.1,1477.94,1182.1Z" fill="#571419"/><path d="M1909,919.58a4.57,4.57,0,0,1-4.53-4.06c-6.32-55.4-16.22-89.55-33.11-114.19-16.19-23.63-41.68-40.14-58.58-47.11-40.77-16.8-105.5-7.78-140.45-.92a4.57,4.57,0,1,1-1.77-9c36-7.07,102.73-16.29,145.71,1.43,18.06,7.45,45.31,25.11,62.64,50.4,17.79,26,28.15,61.34,34.65,118.32a4.59,4.59,0,0,1-4,5.07A4.71,4.71,0,0,1,1909,919.58Z" fill="#571419"/><path d="M1168,1029.16a6.46,6.46,0,0,1-3.85-1.27c-8.09-6-1.88-33.15,2.55-48.82a4.57,4.57,0,1,1,8.8,2.48c-5.57,19.75-6.53,31.66-6.08,36.78,4.52-4.77,12.51-18.36,24.8-56.57,10.58-32.91,12.15-49.75,10.61-53.94a9.79,9.79,0,0,0-.9.46,4.57,4.57,0,1,1-4.58-7.92c5.68-3.3,9.36-1.52,11-.16,2.6,2.09,10.51,8.48-7.46,64.36-12,37.41-21.72,57.49-30.5,63.19A8.17,8.17,0,0,1,1168,1029.16Z" fill="#571419"/><path d="M1616.52,1570.08h-.26a4.57,4.57,0,0,1-4.31-4.82,1114.46,1114.46,0,0,0-3.2-162c-.55-6.07-13.76-149.83-34.06-251.28a4.57,4.57,0,1,1,9-1.79c20.4,101.92,33.65,246.15,34.2,252.24a1123,1123,0,0,1,3.23,163.32A4.59,4.59,0,0,1,1616.52,1570.08Z" fill="#571419"/><path d="M1471.23,816.68c-1.16,0-2.21,0-3.14-.14-15.93-1.27-38.46-18.8-57.33-44.65-13.6-18.95-25.61-44.23-30.61-64.45-3-11.22-3.94-24-5-37.42-.5-6.41-1-13-1.75-19.46-.69-8.83-3.37-19.71-5.74-29.31-1-4.1-2-7.94-2.67-11.28-1.16-5.65-10.09-55.71,29.31-81.88a4.58,4.58,0,0,1,5.07,7.62c-28,18.56-29.13,54.24-25.42,72.4.68,3.2,1.6,6.95,2.59,10.94,2.45,10,5.24,21.22,6,30.63.75,6.42,1.27,13.14,1.77,19.63,1,13.05,2,25.38,4.73,35.87,4.76,19.24,16.19,43.3,29.15,61.34,16.81,23,37.68,39.87,50.72,40.9,10.77,1,41.91-5.15,83.45-36.11,22.49-16.88,37.4-44.41,37.55-44.68A4.58,4.58,0,0,1,1598,731c-.64,1.19-16,29.55-40.14,47.69C1517.33,808.81,1485.8,816.68,1471.23,816.68Z" fill="#571519"/><path d="M1498.68,873.32a4.57,4.57,0,0,1-4.54-4c-.05-.37-4.39-36.39-12.39-55.37a4.57,4.57,0,0,1,8.43-3.55c8.51,20.17,12.86,56.31,13,57.84a4.57,4.57,0,0,1-4,5.08Z" fill="#571519"/><path d="M1628.89,758.42a4.57,4.57,0,0,1-4.44-3.49,318.43,318.43,0,0,1-6.94-38.74c-.28-2.16-.55-4.26-.84-6.31a4.57,4.57,0,0,1,9.06-1.26c.29,2.09.57,4.21.85,6.4a312.62,312.62,0,0,0,6.76,37.74,4.57,4.57,0,0,1-4.45,5.66Z" fill="#571519"/><path d="M1619.11,696.56a4.57,4.57,0,0,1-1.3-9c20.08-6,29.38-23.69,31.39-38.31,1.68-11.77-1.48-21.55-8.45-26.17s-17.44-3.58-28.47,3a4.58,4.58,0,0,1-4.71-7.85c14.17-8.51,28.11-9.54,38.24-2.81s14.64,19.72,12.45,35.06c-2.4,17.42-13.6,38.62-37.85,45.81A4.5,4.5,0,0,1,1619.11,696.56Z" fill="#571519"/><path d="M1623.66,657.57a4.58,4.58,0,0,1-4.09-6.62c.49-1,5-9.65,12.5-12.15a4.57,4.57,0,0,1,2.89,8.68c-3.31,1.11-6.39,6-7.21,7.57A4.59,4.59,0,0,1,1623.66,657.57Z" fill="#571519"/><path d="M1451.09,699a4.58,4.58,0,0,1-1.72-.34c-1.87-.76-18.29-7.81-19.3-20.79-.45-5.81,2.47-9.46,5-12.68,2.71-3.39,5.26-6.59,5.08-13.34-.3-3.84-2.49-10.63-6.66-20.53a4.58,4.58,0,1,1,8.43-3.56c4.63,11,7,18.47,7.36,23.61.29,10.32-4,15.64-7.06,19.52-2.24,2.82-3.23,4.15-3.06,6.27.48,6.26,10.24,11.64,13.62,13a4.58,4.58,0,0,1-1.73,8.81Z" fill="#571519"/><path d="M1381.08,596.77a4.56,4.56,0,0,1-2.92-8.09c.66-.55,16.57-13.31,39.91-4.22a4.58,4.58,0,0,1-3.33,8.53c-18.15-7.08-30.28,2.37-30.79,2.77A4.57,4.57,0,0,1,1381.08,596.77Z" fill="#571519"/><path d="M1472.83,588.17A4.57,4.57,0,0,1,1470,580c19-14.92,53.11-1.31,54.55-.72a4.57,4.57,0,1,1-3.44,8.47c-.31-.12-30.61-12.19-45.46-.55A4.59,4.59,0,0,1,1472.83,588.17Z" fill="#571519"/><path d="M1393.56,645.69c-.64-8.29,2.54-16.11,8.57-16.57,5.27-.41,11,5.21,11.71,14.24.64,8.29-2.55,16.11-8.57,16.58C1400,660.34,1394.2,654,1393.56,645.69Z" fill="#571519" fill-rule="evenodd"/><path d="M1388.27,640.93a4.57,4.57,0,0,1-3.08-8c8.18-7.44,19.86-8.53,34.73-3.25a4.57,4.57,0,1,1-3.06,8.62c-11.44-4.07-20-3.59-25.51,1.4A4.56,4.56,0,0,1,1388.27,640.93Z" fill="#571519"/><path d="M1507.23,636.14c-.64-8.29-5.69-14.71-11.77-15-6,.46-10.83,6.9-10.13,15.93.64,8.29,5.69,14.72,11.76,15C1502.37,651.67,1507.11,644.48,1507.23,636.14Z" fill="#571519" fill-rule="evenodd"/><path d="M1483.16,633.59a4.57,4.57,0,0,1-3.19-7.85c9.91-9.64,30.6-7.68,39.72-1.66a4.58,4.58,0,0,1-5,7.64c-5.5-3.64-21.6-5.94-28.3.57A4.53,4.53,0,0,1,1483.16,633.59Z" fill="#571519"/><path d="M1458,742.87c-9.17,0-17.91-1.83-24.81-5.28a4.58,4.58,0,0,1,4.08-8.19c13.12,6.55,40.89,7,56.79-9.21a4.58,4.58,0,0,1,6.55,6.4C1489.59,737.79,1473.19,742.87,1458,742.87Z" fill="#571519"/><path d="M1321.57,566.8a43.73,43.73,0,0,1-16.93-3.3,4.57,4.57,0,0,1,1.55-8.72c.73-.08,19.25-2.36,31.67-36.14,13.36-35.42,28.7-71.51,56.37-89.8,33.71-22.44,108.35-39.46,147.39-27.34,12.62,3.92,20.88,10.55,24.55,19.7a4.58,4.58,0,0,1-8.5,3.41c-2.59-6.48-8.9-11.31-18.77-14.38-36.16-11.23-108.19,5.31-139.61,26.23-25.4,16.8-40,51.39-52.85,85.37-7.26,19.73-16.82,30.22-24.73,35.8a32.78,32.78,0,0,0,12.61-2.52,4.57,4.57,0,1,1,3.55,8.43A41.72,41.72,0,0,1,1321.57,566.8Z" fill="#571519"/><path d="M1530.73,572.11a78.43,78.43,0,0,1-19.54-2.29c-23.93-6-37.57-20.65-50.55-36.44-1.41-1.52-3-3.38-4.65-5.26-6.15-7.11-13.22-15.14-18.75-14.61-4.22.41-8.14,5.84-10.69,10.32a4.57,4.57,0,1,1-8-4.52c5.34-9.38,11.14-14.26,17.74-14.9,10.46-1,19,8.94,26.57,17.73,1.57,1.8,3.11,3.59,4.63,5.23,12.14,14.76,24.65,28.28,45.9,33.58,10.32,2.67,21.71,2.32,31.6,1a81.35,81.35,0,0,1-45.24-30.2,4.58,4.58,0,0,1,7.31-5.52c25,33.19,63.3,29.42,64.91,29.24a4.58,4.58,0,0,1,2.11,8.83C1573,564.67,1552.84,572.11,1530.73,572.11Z" fill="#571519"/><path d="M1375.06,636.65a4.57,4.57,0,0,1-4.28-2.95c-2.77-7.29-8.51-13.68-14.58-20.45-13.09-14.59-29.39-32.75-19.41-67.69a4.57,4.57,0,1,1,8.79,2.51c-8.58,30.08,4.64,44.82,17.43,59.07,6.66,7.42,13,14.43,16.32,23.31a4.57,4.57,0,0,1-2.65,5.9A4.38,4.38,0,0,1,1375.06,636.65Z" fill="#571519"/><path d="M1594.74,606.77a4.56,4.56,0,0,1-3.19-1.29c-7.16-7-14.52-9-23-11.35-11.47-3.16-24.46-6.75-39.56-22.58a4.58,4.58,0,0,1,6.63-6.32c13.34,14,24.54,17.09,35.36,20.08,8.92,2.46,18.15,5,27,13.61a4.57,4.57,0,0,1-3.19,7.85Z" fill="#571519"/><path d="M1589.26,653.41a4.49,4.49,0,0,1-2.43-.7,4.56,4.56,0,0,1-2.15-3.9c0-.25,0-25.11-12.93-40.66a4.58,4.58,0,1,1,7-5.85c10,12,13.33,28,14.47,37.75,4.36-4.46,9.46-12.42,9.25-25.09a4.56,4.56,0,0,1,4.5-4.65h.08a4.56,4.56,0,0,1,4.57,4.49c.45,27.56-19.53,37.72-20.38,38.14A4.5,4.5,0,0,1,1589.26,653.41Z" fill="#571519"/><path d="M1533.12,519.71c-25.25,0-44-16.17-59.74-29.68-9.66-8.31-18-15.49-25.35-16.74-19.06-2.89-29.77,25.26-29.87,25.55a4.57,4.57,0,1,1-8.57-3.2c.53-1.45,13.53-35.43,39.9-31.38,9.92,1.68,19.16,9.63,29.86,18.84,18.6,16,39.66,34.13,70,24.94a4.58,4.58,0,0,1,2.66,8.76A64.81,64.81,0,0,1,1533.12,519.71Z" fill="#571519"/><path d="M1389.89,505.19a4.57,4.57,0,0,1-4.12-2.59c-4.56-9.45-5-18.74-1.15-27.59,9.16-21.34,38.79-31.4,42.14-32.48a4.58,4.58,0,0,1,2.8,8.72c-10.68,3.43-30.39,13.06-36.53,27.37-2.75,6.4-2.43,12.94,1,20a4.58,4.58,0,0,1-2.13,6.11A4.73,4.73,0,0,1,1389.89,505.19Z" fill="#571519"/><path d="M1648.39,624.6a4.73,4.73,0,0,1-2-.44,4.59,4.59,0,0,1-2.17-6.1c7.13-15.07,14.17-44,12.93-60.09a4.57,4.57,0,0,1,9.12-.71c1.39,18-6.15,48.57-13.78,64.72A4.58,4.58,0,0,1,1648.39,624.6Z" fill="#571519"/><path d="M1654.34,574.13a4.58,4.58,0,0,1-4.4-5.83c.09-.31,8.66-31.31-6.37-49.86a4.58,4.58,0,0,1,7.11-5.76c10.26,12.66,11.59,29.23,10.76,41.45,7-10.46,13.51-26.56,4.58-43.51-26.94-52.77-52.33-80.41-77.67-84.55a4.58,4.58,0,0,1,1.48-9c28.41,4.65,56,33.88,84.31,89.36,18.3,34.75-16.41,66.26-16.76,66.57A4.6,4.6,0,0,1,1654.34,574.13Z" fill="#571519"/><path d="M939.29,953.82a4.59,4.59,0,0,1-.73-.06c-2.26-.36-22.36-3.87-29.69-15a16.05,16.05,0,0,1-2.14-13.12c4-15.82,41-77.51,64-90.74,4.46-2.57,8.49-3.38,12-2.39,24.38,6.67,66.37,14.47,124.75,23.19,24.69,3.68,96.68,47.47,99.74,49.33a4.58,4.58,0,0,1-4.77,7.81c-.73-.44-73.45-44.68-96.32-48.09-58.74-8.77-101.08-16.65-125.85-23.43-.39-.1-1.83-.3-5,1.5-20.31,11.71-56.09,71-59.7,85.09a6.88,6.88,0,0,0,.93,5.83c4.34,6.63,18.78,10.27,23.49,11a4.58,4.58,0,0,1-.72,9.1Z" fill="#571519"/><path d="M958.09,967.7a4.52,4.52,0,0,1-2.24-.59,21.79,21.79,0,0,0-5-1.5c-4.88-1.11-13.06-3-13.33-12-.58-28.63,29.23-84,30.49-86.35a4.58,4.58,0,0,1,8.05,4.36c-.3.55-29.92,55.58-29.39,81.76,0,1.42.56,2,6.21,3.33a26.89,26.89,0,0,1,7.41,2.45,4.57,4.57,0,0,1-2.24,8.56Z" fill="#571519"/><path d="M986.05,977c-11.48,0-24.88-4.27-29.93-11.88-9.4-13.92,14.16-55.9,21.61-68.44a4.58,4.58,0,0,1,7.87,4.68c-13.84,23.3-26.14,52.36-21.87,58.67,3.58,5.41,19.83,10,29.69,6.9,8.26-2.73,19.51-20.74,18.42-29.63a4.58,4.58,0,1,1,9.09-1.11c1.61,13.22-12.26,35.34-24.73,39.46A35.08,35.08,0,0,1,986.05,977Z" fill="#571519"/><path d="M1186.71,994.6a4.54,4.54,0,0,1-3.2-1.31c-26.69-26.21-60.65-52-69-47.87-27.92,14.45-78.51.6-100.11-5.31-3-.84-6.19-1.7-7.64-2-3.83,1.94-10.73,11.57-15.16,20a4.58,4.58,0,0,1-8.11-4.24c1.93-3.69,12-22.21,21.46-24.86a5.36,5.36,0,0,1,.78-.15c1.62-.18,3.49.32,11.09,2.4,20.57,5.63,68.74,18.81,93.57,6,18-8.88,65.41,35.65,79.51,49.5a4.58,4.58,0,0,1-3.21,7.84ZM1006.15,938Z" fill="#571519"/><path d="M936,932a4.57,4.57,0,0,1-3.09-7.95l14.58-13.35a4.58,4.58,0,0,1,6.18,6.75l-14.58,13.35A4.54,4.54,0,0,1,936,932Z" fill="#571519"/><path d="M941.06,874.94a4.26,4.26,0,0,1-.5,0c-6.95-.76-26-2.66-30.72-2.43h-.51l-1.62,0c-31.62-.44-52.14-3.7-61-9.69-13-8.78-19.87-16-19.27-29.27a6.93,6.93,0,0,1,2.7-5.12c9-7.23,52.58-.51,71.15,2.78l65.14,5a4.57,4.57,0,1,1-.7,9.12l-65.37-5-.45,0c-26.09-4.63-56.81-7.6-63.36-5,0,6.65,2.6,11.42,15.29,20,4.13,2.8,16.89,7.57,56,8.12l1.73,0c6.57-.25,29.39,2.2,32,2.48a4.57,4.57,0,0,1-.5,9.12Z" fill="#571519"/><path d="M1459.62,658.28a4.44,4.44,0,0,1-4.19-2.89,9.47,9.47,0,0,1,2.2-10.17c13-13.89,78.62-14,90.36-11,2.89-.28,13.77-5,22.56-8.77,26.86-11.59,46.63-19.53,56.11-15.87a4.58,4.58,0,1,1-3.29,8.54c-6.73-2.58-33.31,8.88-49.2,15.73-19.37,8.36-24.68,10.37-28.36,9.26-8.57-2.57-63.28-2.25-79.38,6.79-1.86,1.05-2.44,1.86-2.49,2.07a4.66,4.66,0,0,1-2.66,6A4.81,4.81,0,0,1,1459.62,658.28Z" fill="#571519"/><path d="M1485.33,683.07c-5.23,0-9.53-.29-11.91-1-10.76-3.3-17-22.2-18.17-26a4.58,4.58,0,0,1,8.76-2.67c2.2,7.2,7.57,18.49,12.09,19.88,7.1,2.18,47.63-1.76,51.83-3,11.86-4,14.14-17.66,16-28.64l.49-2.85a4.57,4.57,0,1,1,9,1.58l-.47,2.77c-2,12-5,30.06-22.11,35.83C1527.27,680.19,1501.75,683.07,1485.33,683.07Z" fill="#571519"/><path d="M1431.5,663.06l-.41,0a4.58,4.58,0,0,1-4.16-5c0-.22,0-.57-.9-1.24-10.82-7.64-62-1.4-69.44,2-4.17,1.9-6.25-1.26-6.47-1.62-2.41-3.93.1-6,10.64-14.68,5-4.15,10.12-8.18,10.12-8.18a4.58,4.58,0,0,1,5.68,7.18c-2.08,1.64-4.25,3.38-6.35,5.09,20-3,50.54-4.73,61.09,2.72a10.33,10.33,0,0,1,4.75,9.53A4.57,4.57,0,0,1,1431.5,663.06Z" fill="#571519"/><path d="M1381.64,690.23a44,44,0,0,1-8.14-.44c-14-4-18.16-16.7-21.48-26.94-.77-2.35-1.49-4.57-2.29-6.61a4.58,4.58,0,0,1,8.52-3.34c.9,2.29,1.7,4.75,2.47,7.12,3.06,9.43,6,18.33,15.27,21,4.23.75,40.67-.84,46.07-3.37,2.31-1.09,4.77-9.86,5.15-18.4a4.58,4.58,0,0,1,9.15.4c-.23,5.13-1.64,22.17-10.42,26.28C1420,688.71,1395,690.23,1381.64,690.23Z" fill="#571519"/><path d="M1430.91,658.06a4.58,4.58,0,0,1-2.2-8.59c13.86-7.6,29.15-3.92,29.79-3.76a4.58,4.58,0,0,1-2.21,8.88c-.12,0-12.52-2.94-23.19,2.9A4.45,4.45,0,0,1,1430.91,658.06Z" fill="#571519"/><path d="M1870.18,601.09S1840,577.7,1832.84,560c-18-44.46,22.81-115.28,54.26-135.74,10.39-6.77,27-3.16,38.45-7.83,26.8-10.91,60-29.82,91.88-28.73,53,1.81,95.92,27.44,95.92,27.44s37.23-23,67.63,2.4c26.05,21.75,42.77,79.93,49.2,111.19,6.19,30.13,7.22,70.79-.39,101.5-7.33,29.61-15.92,38-16.12,47.29-.64,31.16,6.58,72.69,42.51,103.05-9.15,4.23-29.56-.76-39.6-1.7-1.22,8,5.49,18.77,5.49,18.77l-51.83-11.36s-8.45-40.89-8.95-44.09c-2.86-17.9-32.38-19.42-32.38-19.42l-6.6-57.58s32.5-35.75,19.42-55.74c-4.47-6.83-29.28-1.8-47-4.9-18.32-3.2-29.58-14.48-35.81-18.31-10.84-6.67-17.9-24.52-28.73-31.22-23.85-14.77-28.38-6.27-51.46-22.22-5.92-4.09-22.43-16.34-26.82-22-16.24-21-34.71-33.26-49.58-13.1-13,17.62-13.41,29.14-24.36,48.1-2.06,3.57-13.33,15.08-14.42,19.06Z" fill="#e82d5e"/><path d="M1714.41,1533.87c-2.46-46.8,42.93-155.31,48.88-204.49,1.54-12.74,21.2-83.2,21.2-83.2s11.46-28.71,8-59.6c-2.5-22.38,9.35-49.67,6.56-72.11-.94-7.56,1.55-15.77,2.07-23.76,1-14.85,5.15-84,6.46-108.47,2.07-38.9,1.58-81.15,26.37-108.69,27.86-30.95,126.84-47.31,136.59-52.26s15.63-34.9,22.6-36.14c6.43-1.15,12.11,70.88,15.89,83.18,1.74,5.67-2,19.17,3.62,17.42,11.6-3.55,4.3-37.84,14.55-45.48,6.07-4.52,17-11.64,23.95-14.35,23.91-9.4,52.37-25.68,70.53-44.76,1.55-1.63,12.2-14.72,13.54-16.49,6.55-8.67-1.75-18.49-.61-29.44.34-3.15-4.07-19.15,2.26-15.79,7.25,3.85,20.88,11,25.36,18,9.6,15-1.46,34,8.42,47.73,1.64,2.28,11.27,4,13.81,4.81,29,8.85,99.73,12.53,127.31,37.35,5.92,5.33,20.93,16.26,23,23.15,5.51,18,10.4,29.21,17.19,47.13,11.45,30.23,14.88,76.7,17.37,110.46,5.3,71.8,6.39,129.61,11,182.46,3.17,36.66-2.25,69.38-3.14,105.91-.35,14.59-6.65,37.15-11.13,51.34-8.89,28.12-48.38,29.71-72.38,34.44-9.42,1.85-48.58-9.18-56.87-5.92-1.8.7,6.39,20.35,6.63,21.22,2.69,9.68,9.15,20.36,5,29.92-1.29,2.94-12.64,4.22-14.68,5.25-6.88,3.5-17,3.82-23.92,7.49-11.06,5.89-23.46,8.25-35.71,10.51-17.88,3.32-51,12.18-68.74,16.72-28.16,7.23-96.3,19.83-152.87,13.86-47.18-5-107.11-27.13-107.11-27.13l-52.14,115.44s-60.24-13.86-66-16.73Z" fill="#c0a0f2"/><path d="M1832.08,1826c-6-76.31,4.17-221.57,7.69-297.86.53-11.35,4.36-72.12,4.36-72.12s51.85,16.14,77.52,21.17c42.91,8.39,91.7,8.78,134.32,0,29.51-6.1,63.18-8.47,91.71-17.46,26.08-8.22,47.69-17.88,75.23-18.23,7.35-.09,28.06-11.13,28.06-11.13s40,84.93,44.76,100.51c16.17,52.84,31.16,94.1,41.45,156.61,3.73,22.68,7,36.12,6,59.14-.4,8.75,5.54,85.78,7.67,82Z" fill="#778196"/><path d="M2097.71,1323.07s-27.72-11.34-40.92-17c-35.23-15.17-68.19-34.06-104.6-45.43-4.71-1.47-20.09-9.61-24.9-10.9-15.81-4.26-44.45,10.75-44.45,10.75s-16.37,12.28-23.74,16.59c-19.85,11.6-32.89,24.66-66.29,26-4.28.17-24.6-3.24-39-3.21-18.72,0-63.57,8.64-71.3,2.14-9.25-7.76,9.55-24.57,9.55-24.57s-14.45-17-16.73-20.78c-1.83-3,4.37-9.45,14.37-9.16,11.7.34,27.28,7.53,21.32,4.4s-7.09-8.58-4.55-22.29c3-16.25,12.73,6.78,26.32,1.25,5.76-2.34,7.22-6.46,12.34-7.36,1.12-.19,14.53,3.59,25,10.77,9.26,6.38,15.43,16.56,19.68,12.06,3.58-3.8,44.58-12,40.76-26.52-3.25-12.31-31.76-5.94-32-6.93-1.51-6.57-38-1.68-42.7-2.52-16.33-2.93-5.84-17.43-5.84-17.43s67.6-16.62,63-19.77c-4.22-2.91,53.27-12.29,53.27-12.29s43.34-17.8,67.28,2.27c15.19,12.74,44.66,9,71.55,18.15,15.45,5.28,87.66,21.1,87.66,21.1s13.3,44.24,12.35,67.3c-.28,6.65,2.19,24.95-.89,35.48Z" fill="#ffe4ce"/><path d="M1922.8,486.37c-18.82,1.49-24.86,18-31.68,41-2.7,9.12-23.84,26.59-25,35.62-2,16.13,10.08,47.7,11.88,63.41,1.73,15.13-2,33.59,1.59,48.14,6.75,27,24.48,60.79,42.81,82.09,8.84,10.27,32.53,28.39,46.83,27.69,7.62-.37,23.06-7.06,29.58-1.49,7.2,6.16,4.78,6.26,2.83,15.36-1.23,5.74,1.58-9.83-5.74,14.48s11,38.3,12.29,45.31c.73,4,4.88,27.85,13.78,21.1,2.51-1.9.66-11.13,1.63-14.68,2.65-9.78,8.43-20.88,16-27.81,26.23-23.91,57.86-24.19,83.42-52.13,3.79-4.15,17.46-19.48,18.74-26.92,1.87-10.88-8.87-21.17-10.42-31.89-2.56-17.63-2.69-37.65-3.64-55.38-.43-8.07,8-7.15,9.64-12.88,3.34-12,13.08-40,3.29-50.77-12-13.11-29.75-6.08-44.36-8.23-4.24-.62-39.59-15.43-42.49-17.66-7.23-5.58-8.68-23.87-17.36-26-15.89-3.94-58.87-15.66-69.19-27C1952.8,511.79,1950.06,484.22,1922.8,486.37Z" fill="#ffe4ce"/><path d="M1716.54,1552c-7.9,33.54-19.9,42-44.59,65.6-15.4,14.74-28.24,26.33-36.86,47s-22.43,40.92-22.68,59.74c-.18,13.5,6.68,30.59,14.67,44.68,3.59,6.32,10.73,13.29,18.51,14.63,10.49,1.81,7.15-18.17,7.48-18.1,9.34,1.78,34.19,33.23,41.2,29.45,3.77-2,.73-7.15,1.91-9.26s7.41,6,9.45,2.9c10.58-15.91-6.13-39.9-6.48-56.89-.11-5.52.84-30.49,9.32-31.3,4.52-.44,4.51,10.3,4.83,12.77,1.75,13.87,2,28,4.22,41.77.77,4.78,1.52,16.57,5.28,13.52,14.08-11.4,5.45-60.31,8.49-77.58,3.75-21.22,25-39.41,35.13-57.43,5.55-9.94,5.5-20.23,7.34-31.15,2-11.85,10.08-20.92.93-31-6.61-7.25-32.6-6.88-44.07-15.32Z" fill="#ffe4ce"/><path d="M2227.66,1219.17a4.56,4.56,0,0,1-4.56-4.41c-.42-11.3-.7-25.49-1-41.92-1.17-58.93-2.93-148-13.74-175-4.38-10.93-7.82-18.09-10.23-21.3a4.57,4.57,0,0,1,7.31-5.49c3,4,6.6,11.39,11.41,23.38,11.43,28.56,13.15,115.07,14.4,178.23.32,16.39.6,30.54,1,41.77a4.57,4.57,0,0,1-4.41,4.74Z" fill="#571519"/><path d="M2293.89,1388.81c-20.27,0-42.28-3-64.22-6.78-37.86-6.53-131.93-33.81-144.81-39.24a4.58,4.58,0,1,1,3.56-8.43c11.7,4.94,105.76,32.26,142.81,38.66,47.19,8.14,94.53,12.61,121.17-9.56,15.22-12.68,22.78-33,23.12-62,.61-54.12-.6-111.9-3.92-187.36-.45-10-.81-20.53-1.18-31.4-2.39-68.92-5.35-154.7-32.9-218.5-17.78-41.17-59-48.6-102.66-56.47-22.87-4.13-46.52-8.39-66.86-17.88a4.58,4.58,0,1,1,3.88-8.29c19.25,9,42.31,13.14,64.61,17.16,44.1,8,89.7,16.17,109.42,61.85,28.24,65.39,31.24,152.13,33.65,221.81.38,10.85.74,21.33,1.18,31.32,3.33,75.63,4.54,133.57,3.92,187.86-.35,31.43-9.24,54.61-26.41,68.91C2341.87,1384.13,2319.24,1388.81,2293.89,1388.81Z" fill="#571519"/><path d="M2140.81,760.27a4.58,4.58,0,0,1-4.32-3.07c-3.27-9.35-6.06-21.17-8.3-35.15-3.37-21-4.3-39.37-4.34-40.14a4.57,4.57,0,0,1,4.34-4.79,4.51,4.51,0,0,1,4.8,4.34c0,.19.94,18.62,4.23,39.14,2.16,13.45,4.82,24.75,7.91,33.58a4.58,4.58,0,0,1-2.81,5.83A4.44,4.44,0,0,1,2140.81,760.27Z" fill="#571519"/><path d="M2331.87,1250.14a4.58,4.58,0,0,1-3.25-1.36c-9.86-10-28.07-14.53-42.71-18.2-2.49-.63-4.91-1.23-7.2-1.84-26.91-7.14-56.84-9-85.78-10.86-36.32-2.29-73.88-4.66-106.43-17.38a4.57,4.57,0,1,1,3.33-8.52c31.22,12.2,68.06,14.52,103.67,16.77,29.39,1.86,59.77,3.77,87.55,11.14,2.26.6,4.64,1.2,7.09,1.81,15.74,4,35.33,8.86,47,20.64a4.58,4.58,0,0,1,0,6.47A4.53,4.53,0,0,1,2331.87,1250.14Z" fill="#571519"/><path d="M2088.09,1342.83a9.65,9.65,0,0,1-2.66-.38c-8.43-2.45-12.13-16.14-12.24-22.93a4.57,4.57,0,0,1,4.51-4.64h.07a4.57,4.57,0,0,1,4.57,4.5c.1,6,3.44,13.64,5.64,14.28.32,0,1.81-.64,3.91-3.85,14.15-21.6,9.7-107.67-6.7-129.72a4.57,4.57,0,0,1,7.34-5.46c18.67,25.09,23.2,115.5,7,140.19C2095.44,1341.1,2091.35,1342.83,2088.09,1342.83Z" fill="#571519"/><path d="M1813.89,1176.37a4.57,4.57,0,0,1-4.52-3.92c-10.6-72.9-.91-103.53,3.23-116.61.44-1.37.8-2.52,1.05-3.47,4.44-16.88,12-32.9,19.34-48.38,13.17-27.86,25.62-54.17,19.57-83.14a4.58,4.58,0,0,1,9-1.87c6.67,32-7,60.92-20.26,88.92-7.15,15.11-14.54,30.74-18.76,46.8-.28,1.07-.68,2.35-1.17,3.9-3.95,12.48-13.2,41.71-2.91,112.54a4.57,4.57,0,0,1-3.87,5.18A3.67,3.67,0,0,1,1813.89,1176.37Z" fill="#571519"/><path d="M1794.2,1181.88a4.27,4.27,0,0,1-1-.12,4.56,4.56,0,0,1-3.47-5.46c2.89-13,7.23-79.38,9.83-119.07,1-15.28,1.79-27.36,2.22-32.3,1.1-12.62,1.83-25.09,2.54-37.16,1.75-29.77,3.41-57.9,10.22-80.28,3.08-10.12,7-18.46,12-25.48,19.2-27.21,59.72-38.41,95.46-48.28,20.09-5.56,39.07-10.8,52.19-18.18a4.58,4.58,0,0,1,4.49,8c-14.1,7.92-33.6,13.31-54.25,19-34.26,9.46-73.1,20.2-90.42,44.74-4.39,6.21-7.88,13.69-10.67,22.86-6.49,21.35-8.12,48.94-9.84,78.16-.71,12.13-1.45,24.67-2.55,37.41-.43,4.85-1.21,16.88-2.21,32.11-2.78,42.53-7,106.81-10,120.46A4.58,4.58,0,0,1,1794.2,1181.88Z" fill="#571519"/><path d="M1831.44,1827.72a4.57,4.57,0,0,1-4.5-3.83c-1.59-9.54-1-129.64.45-161.16,1.36-30.24,3.55-67.08,5.67-102.71,3.69-62.12,7.17-120.8,6.21-141-2-40.9-6.49-88.43-12.11-127.15a4.57,4.57,0,1,1,9-1.31c5.66,39,10.22,86.85,12.19,128,1,20.66-2.5,79.57-6.21,141.94-2.11,35.6-4.3,72.41-5.66,102.58-1.51,33.5-1.93,151.07-.57,159.25a4.58,4.58,0,0,1-3.76,5.27A4.87,4.87,0,0,1,1831.44,1827.72Z" fill="#571519"/><path d="M2348.75,1829.22a4.56,4.56,0,0,1-4.57-4.49c-.22-12.93-5.66-93.12-7-105.55-10.05-93.4-46.36-186.67-54.81-204.75-10.53-22.55-24-52.12-28.13-64.94-5-15.29-9.93-31.71-13.58-45-6.05-22.08-5.41-22.76-3.54-24.77a4.58,4.58,0,0,1,7.87,3.81c.49,4.45,7.33,30.58,17.95,63.18,3.18,9.8,12.77,31.9,27.72,63.9,8.58,18.35,45.43,113,55.61,207.65,1.4,13,6.81,92.8,7,106.36a4.58,4.58,0,0,1-4.5,4.65Zm-104.91-443.33h0Zm0,0h0Z" fill="#571519"/><path d="M1961.43,787.54a34.4,34.4,0,0,1-4.87-.3c-15.31-1.85-36.24-19.52-54.54-46.11-14.36-21.07-24.34-47.35-27.87-64-2-11.18-2.45-19.61-3-30.27-.25-4.81-.53-10.07-1-16.22-.69-10.74-2.24-20.52-3.74-30-2.15-13.6-4.18-26.45-3.29-39.83a4.58,4.58,0,1,1,9.13.61c-.82,12.35,1.13,24.71,3.2,37.79,1.53,9.67,3.11,19.67,3.83,30.78.47,6.18.75,11.51,1,16.38.55,10.34,1,18.51,2.86,29,3.32,15.69,12.8,40.62,26.44,60.64,16.33,23.73,35.7,40.7,48.17,42.21,10.42,1.45,41.16-3.33,83.24-31.8,23.1-15.89,38.38-42,38.53-42.21a4.57,4.57,0,0,1,7.91,4.59c-.65,1.14-16.42,28.06-41.28,45.18C2006.73,780.58,1976.41,787.54,1961.43,787.54Z" fill="#571519"/><path d="M1944,672.31a4.57,4.57,0,0,1-1.89-.41c-1.84-.84-17.93-8.54-18.4-21.54-.2-5.44,2.8-8.76,5.45-11.69,2.9-3.21,5.64-6.24,5.73-13.09-.15-4.14-2.47-12.52-5.76-20.64a4.58,4.58,0,1,1,8.48-3.44c3,7.29,6.19,17.41,6.43,24-.14,10.52-4.74,15.61-8.09,19.32-2.34,2.59-3.16,3.64-3.1,5.23.23,6.3,9.74,12,13,13.54a4.58,4.58,0,0,1-1.9,8.74Z" fill="#571519"/><path d="M1879.92,569.72a4.57,4.57,0,0,1-2.86-8.14c.65-.52,16.34-12.67,39.31-2.62a4.58,4.58,0,0,1-3.67,8.39c-17.73-7.77-29.48,1-30,1.41A4.52,4.52,0,0,1,1879.92,569.72Z" fill="#571519"/><path d="M2017.86,566.26a4.46,4.46,0,0,1-2-.45c-.29-.13-28.5-13.4-43.72-2.44a4.57,4.57,0,0,1-5.35-7.42c19.64-14.15,51.67,1,53,1.61a4.57,4.57,0,0,1-2,8.7Z" fill="#571519"/><path d="M1888.84,616c-.31-8.29,3.21-15.21,8.47-16.15,5.27-.19,10.76,5.65,11.06,13.93s-3.22,15.21-8.47,16.16S1889.13,624.26,1888.84,616Z" fill="#571519" fill-rule="evenodd"/><path d="M1884.5,613.34a4.58,4.58,0,0,1-2.68-8.29c9-6.49,20.27-7,34.44-1.66A4.58,4.58,0,1,1,1913,612c-14.76-5.6-21.82-2.38-25.85.52A4.53,4.53,0,0,1,1884.5,613.34Z" fill="#571519"/><path d="M2000.37,611.94c-.3-8.29-5.07-14.91-10.34-14.72-6,.22-10.34,6.41-10.79,14.73.3,8.29,5.06,14.91,10.34,14.71C1995.61,626.45,2000.67,620.23,2000.37,611.94Z" fill="#571519" fill-rule="evenodd"/><path d="M2011.15,610.27a4.51,4.51,0,0,1-2.67-.87c-5.34-3.85-21.29-6.8-28.24-.58a4.57,4.57,0,1,1-6.1-6.81c10.27-9.22,30.84-6.41,39.69,0a4.58,4.58,0,0,1-2.68,8.29Z" fill="#571519"/><path d="M2107.86,676.2a4.58,4.58,0,0,1-1.08-9c24.9-6.1,31.28-27.32,32.87-36.17,2.17-11.34-.54-21-7.24-25.78s-16.91-4.19-27.8,1.91a4.58,4.58,0,0,1-4.48-8c14.14-7.91,27.85-8.41,37.63-1.36s13.73,20,10.89,34.88c-4,22-18.81,38.27-39.7,43.38A4.53,4.53,0,0,1,2107.86,676.2Z" fill="#571519"/><path d="M2114.81,639a4.52,4.52,0,0,1-2.21-.57,4.57,4.57,0,0,1-1.79-6.21c.53-.95,5.39-9.42,13-11.61a4.58,4.58,0,0,1,2.54,8.8c-3.34,1-6.61,5.67-7.5,7.25A4.56,4.56,0,0,1,2114.81,639Z" fill="#571519"/><path d="M1951.06,716.5c-10.07,0-19.7-2.28-26.86-6.45a4.58,4.58,0,1,1,4.6-7.91c12.69,7.39,39.89,8.38,55.34-6.79a4.58,4.58,0,0,1,6.41,6.53C1980.25,712,1965.22,716.5,1951.06,716.5Z" fill="#571519"/><path d="M2074,574a4.58,4.58,0,0,1-3.82-2c-5.45-8.23-22-12.14-39.6-16.28-6.78-1.6-13.8-3.25-20.6-5.24-32.17-9.45-53.85-27.63-64.42-54.05A4.57,4.57,0,0,1,1954,493c9.48,23.68,29.17,40.05,58.51,48.66,6.56,1.93,13.45,3.56,20.12,5.12,19.38,4.57,37.68,8.88,45.13,20.14A4.58,4.58,0,0,1,2074,574Z" fill="#571519"/><path d="M2089.15,596.89H2089c-21.34-.81-29.63-3.83-43.46-22.26a4.57,4.57,0,1,1,7.31-5.49c12.09,16.09,17.71,17.9,36.49,18.61a4.58,4.58,0,0,1-.17,9.15Z" fill="#571519"/><path d="M1854.33,572.17a4.57,4.57,0,0,1-1.26-9c11.29-3.26,14.59-6,18.79-12.45,2.81-4.49,6.35-12.3,10.09-20.57,10.69-23.58,22.8-50.31,38.4-50.5h.18c7.57,0,14.11,5.92,20,18.07a4.58,4.58,0,0,1-8.24,4c-4-8.33-8.19-12.9-11.76-12.9h0c-9.78.12-22.54,28.3-30.17,45.13-4,8.93-7.53,16.63-10.72,21.71-5.81,9-11.18,12.63-24,16.32A4.64,4.64,0,0,1,1854.33,572.17Z" fill="#571519"/><path d="M1873.41,619.78a4.6,4.6,0,0,1-4.44-3.46c-2-8.1-9.28-16.2-16.93-24.77-10.62-11.88-22.65-25.35-25.59-43.51-4.86-30,12.89-72.54,26-93.84,5.29-8.6,42.79-52.81,81.44-41.74a4.58,4.58,0,1,1-2.52,8.8c-33.12-9.49-67.14,31.26-71.13,37.74-12.4,20.14-29.23,60.08-24.77,87.58,2.51,15.52,13.12,27.39,23.38,38.87,8.43,9.44,16.39,18.35,19,28.63a4.58,4.58,0,0,1-3.31,5.56A4.84,4.84,0,0,1,1873.41,619.78Z" fill="#571519"/><path d="M2142.64,615.33a4.59,4.59,0,0,1-4.16-6.48c22.4-49.17,35-122.82-3.36-168.58-42.24-49.23-120.41-62.34-185.85-31.12a4.57,4.57,0,0,1-3.93-8.26c69.1-33,151.85-18.89,196.77,33.47,41.08,49.05,28.2,126.69,4.69,178.29A4.58,4.58,0,0,1,2142.64,615.33Z" fill="#571519"/><path d="M2184.38,705.12a4.58,4.58,0,0,1-3.6-7.41c.25-.31,24.46-31.51,28.47-80.85a4.57,4.57,0,0,1,9.12.74,179.35,179.35,0,0,1-19.91,69c15.65-14.08,37-47.7,31.4-124.89-5.13-62.82-27.85-113.69-46.78-134.35-26.19-29.22-64.58-8.81-65-8.6a4.58,4.58,0,0,1-4.37-8c.45-.24,45.18-24,76.11,10.49C2209.78,443,2233.67,496,2239,561c9.19,126.59-50.93,143.3-53.49,144A4.35,4.35,0,0,1,2184.38,705.12Z" fill="#571519"/><path d="M2194.46,795.88a4.57,4.57,0,0,1-4.56-4.27c-.39-5.81-1.08-9.81-1.09-9.85a4.57,4.57,0,1,1,9-1.59c0,.18.79,4.49,1.21,10.83a4.58,4.58,0,0,1-4.26,4.87Z" fill="#571519"/><path d="M2225,805.91a4.57,4.57,0,0,1-4.48-3.7,197.33,197.33,0,0,0-6.5-23.54,271.21,271.21,0,0,1-9.19-34.39,4.58,4.58,0,0,1,9-1.74,259.28,259.28,0,0,0,8.91,33.32,203.34,203.34,0,0,1,6.76,24.59,4.59,4.59,0,0,1-4.49,5.46Z" fill="#571519"/><path d="M2241.85,790a29.65,29.65,0,0,1-3.95-.26c-9.92-1.32-18.49-7.52-25.49-18.44a4.58,4.58,0,0,1,7.71-4.93c5.47,8.54,11.86,13.35,19,14.3a24.65,24.65,0,0,0,12.11-1.67c-8-3-17.78-10.11-25.45-26.86-15.81-34-14.48-74.57-14.41-76.28a4.57,4.57,0,1,1,9.14.35c0,.39-1.29,40.13,13.58,72.09,12.1,26.45,29.12,23.49,29.83,23.35a4.62,4.62,0,0,1,5,2.45,4.56,4.56,0,0,1-1,5.43C2267.39,780,2256.15,790,2241.85,790Z" fill="#571519"/><path d="M2177,647.28a4.58,4.58,0,0,1-2.86-8.15c35.73-28.49,25.24-98.44,14.7-131.44a4.57,4.57,0,0,1,8.71-2.79c11.21,35.09,21.93,109.78-17.7,141.39A4.55,4.55,0,0,1,2177,647.28Z" fill="#571519"/><path d="M2006.52,835.78a4.57,4.57,0,0,1-4.54-4.07c0-.35-3.88-35.13-10-50.93a4.58,4.58,0,1,1,8.54-3.29c6.51,16.91,10.37,51.75,10.53,53.22a4.59,4.59,0,0,1-4,5A4.35,4.35,0,0,1,2006.52,835.78Z" fill="#571519"/><path d="M1982.21,1488c-50.11,0-92.26-9.35-138.91-27.34a4.57,4.57,0,1,1,3.29-8.53c106.23,40.94,189.15,36,403.31-23.87a4.57,4.57,0,0,1,2.47,8.81C2129,1471.6,2048.61,1488,1982.21,1488Z" fill="#571519"/><path d="M1927.35,1160.32a4.58,4.58,0,0,1-4.54-4c-3.15-27.53-1.51-52.33,5.32-80.42,8.53-35.06,27.73-79.76,57.09-132.84,8.32-15,27.79-50.28,34-81.57.31-1.56.56-3.3.81-5.08.93-6.5,2-13.87,6.45-17.9s7.24-5.36,14.85-9.06c5.65-2.75,14.2-6.91,28.57-14.59,39.39-21,76.42-53.75,70.24-72a4.58,4.58,0,0,1,8.67-2.94c9.78,28.94-44.52,67-74.6,83.06-14.52,7.76-23.17,12-28.88,14.75-7.32,3.55-9.28,4.51-12.71,7.61-2,1.82-2.89,8-3.53,12.42-.28,2-.55,3.85-.89,5.56-5.72,29-21.68,60.22-35,84.21-29,52.38-47.87,96.31-56.2,130.58-6.65,27.36-8.18,50.45-5.12,77.21a4.58,4.58,0,0,1-4,5.07Z" fill="#571519"/><path d="M2064.44,913.09a4.54,4.54,0,0,1-4.42-3.41c-3.94-15-17.27-55.53-31.41-62.44a4.57,4.57,0,1,1,4-8.22c16.8,8.21,29.42,45.08,34.25,61.25,6.3-6,13.82-14.28,22.8-24.19,9.46-10.45,20.19-22.28,33.4-35.84,27.54-28.26,41.14-53.71,41-60-.19-9.27-2.58-31.65-5.92-40.4-2.68-7-14.44-11.43-20-12.75a4.37,4.37,0,0,1-3.53.08c-3.66-1.52-4.15-3.86-3.91-5.56a5,5,0,0,1,4.29-4c3.78-.45,26.25,4.89,31.64,19,3.86,10.09,6.33,34,6.53,43.48.23,12-18.93,41.25-43.62,66.58-13.1,13.44-23.76,25.22-33.17,35.6-11.91,13.15-21.32,23.53-29.13,29.86A4.61,4.61,0,0,1,2064.44,913.09Z" fill="#571519"/><path d="M2012.65,901.42h-.05a4.58,4.58,0,0,1-4.53-4.62c.14-12.15-4.8-26.9-9.16-39.92-2.67-8-5.19-15.49-6.21-21.52a4.58,4.58,0,0,1,9-1.52c.89,5.32,3.3,12.52,5.85,20.14,4.59,13.7,9.79,29.23,9.64,42.92A4.56,4.56,0,0,1,2012.65,901.42Z" fill="#571519"/><path d="M1979.61,903a4.57,4.57,0,0,1-4.56-4.15,81.65,81.65,0,0,1-.36-10.78c-.74-20.64-2.43-65.23-2.58-67.41-.84-7.17,7.6-33.63,21.14-38.36a4.57,4.57,0,0,1,3,8.64c-8.51,3-15.46,25-15,28.82.08.75.83,20.21,1.33,33.29a115.5,115.5,0,0,1,9.62-18.67,4.58,4.58,0,1,1,7.69,5c-3.85,6-15.15,25.38-16,48.59.15,4.35.25,7.22.23,9.17,0,.28.05.56.07.83h-.09c-.11,3-.59,3.32-1.74,4.17A4.56,4.56,0,0,1,1979.61,903Z" fill="#571519"/><path d="M1957.21,1486.59a4.58,4.58,0,0,1-4.55-4.14c-1.8-18.8-2.69-42.11-3.62-66.8-2-52.64-4.24-112.3-15.86-161.27a4.58,4.58,0,1,1,8.91-2.11c11.82,49.84,14.09,110,16.1,163,.92,24.55,1.8,47.73,3.58,66.26a4.58,4.58,0,0,1-4.11,5Z" fill="#571519"/><path d="M1996.82,838.89a4.54,4.54,0,0,1-3.74-2c-4.46-6.39-9.79-22.29,1.94-36.67a4.58,4.58,0,0,1,7.09,5.79c-10.23,12.54-1.87,25.14-1.51,25.67a4.58,4.58,0,0,1-3.78,7.17Z" fill="#571519"/><path d="M1703.91,1307.57c-16,0-27.28-2.24-29.22-11.67a15,15,0,0,1,2.68-11.82c8.11-11.3,30.93-14.8,33.5-15.16,5.52-1.05,10.43-1.92,14.83-2.69,17.66-3.1,26.52-4.66,47.42-13.71,12.63-5.11,45-21.4,50.91-29.9.88-1.17,2-3.13,1.22-4.81-.71-1.47-2.73-2.43-5.27-2.49a112.63,112.63,0,0,0-11.94.93c-22.28,2.31-59.57,6.17-64.13-16.43-2.62-13.22,16.54-17.54,45.53-24.08,10.26-2.31,21.88-4.93,33.87-8.23,3.82-.92,9-2.45,14.91-4.23,17.13-5.12,40.59-12.13,58.84-12.54,10.27-.16,25.33,3,48.68,10.57,10.24,3.32,37.55,10.55,66.47,18.22,31.45,8.33,64,16.94,80.65,22.09a4.58,4.58,0,0,1-2.71,8.75c-16.5-5.1-48.93-13.69-80.28-22-29-7.7-56.47-15-66.95-18.35-15-4.86-33.75-10.52-45.65-10.13-17,.38-39.8,7.19-56.43,12.16-6.08,1.81-11.33,3.38-15.25,4.32-12,3.32-23.78,6-34.13,8.3-16.66,3.75-39.46,8.9-38.57,13.36,2.9,14.43,36.27,11,54.21,9.12a130.3,130.3,0,0,1,13.11-1c6.08.15,11,3,13.28,7.66,2.14,4.42,1.4,9.57-2,14.14-8.44,12.2-47.89,30.2-54.79,33-21.8,9.44-31.6,11.16-49.38,14.28-4.35.77-9.22,1.62-14.92,2.7-6.13.87-22.59,4.55-27.56,11.47a5.84,5.84,0,0,0-1.13,4.73c1.15,5.61,24.83,4.37,42.12,3.47,3.74-.19,7.57-.39,11.42-.56,28-1.19,49.49-8.26,85.21-28a4.58,4.58,0,1,1,4.43,8c-37.13,20.51-59.65,27.86-89.24,29.13-3.83.16-7.63.36-11.35.55C1718.2,1307.17,1710.64,1307.57,1703.91,1307.57Z" fill="#571519"/><path d="M2096.93,1324.23a4.57,4.57,0,0,1-1.09-.13c-20.78-5-69-27.67-107.81-45.84-24.45-11.45-49.73-23.3-54.16-24-20.39-3.49-42.19,8.6-67.44,22.58-14.45,8-29.39,16.27-45.56,22.43-31.68,12.28-46.15,12.52-71,7a4.57,4.57,0,1,1,2-8.93c21.52,4.78,34.24,5.61,65.72-6.6,15.59-5.93,30.24-14,44.41-21.89,25.64-14.2,49.86-27.62,73.31-23.61,5.39.79,24.07,9.45,56.6,24.7,38.41,18,86.21,40.39,106.1,45.23a4.58,4.58,0,0,1-1.08,9Z" fill="#571519"/><path d="M1697.73,1280.67a4.57,4.57,0,0,1-2.33-.64c-11.41-6.76-24.65-16.91-22.93-26.92.48-2.77,2.58-7.67,11.26-9.36,12.65-2.68,50,16.59,53.9,18.87a4.58,4.58,0,1,1-4.67,7.87c-9.76-5.78-40.26-19.32-47.39-17.78-2.86.56-4,1.47-4.08,2-.26,1.54,2.58,8,18.58,17.5a4.58,4.58,0,0,1-2.34,8.51Z" fill="#571519"/><path d="M1763.34,1264.35a4.59,4.59,0,0,1-3-1.12c-.21-.19-21.77-18.86-33.38-27.6-7.54-5.68-15.31-7-17.15-5.35-1,.91-1.89,6.33,6.28,20.25a4.58,4.58,0,0,1-7.9,4.63c-9.12-15.56-10.62-26.22-4.47-31.71,6.69-6,19.53-2.07,28.75,4.87,11.85,8.93,33,27.22,33.87,28a4.58,4.58,0,0,1-3,8Z" fill="#571519"/><path d="M1787.93,1253.1a4.55,4.55,0,0,1-2.24-.59,118.31,118.31,0,0,1-13.62-9.65c-9.32-7.22-19.9-15.43-27.58-14.23-2.83.43-5.3,2.22-7.55,5.46a4.58,4.58,0,1,1-7.52-5.22c3.71-5.34,8.31-8.46,13.69-9.29,11.55-1.81,23.79,7.7,34.56,16.05a113.67,113.67,0,0,0,12.49,8.9,4.58,4.58,0,0,1-2.23,8.57Z" fill="#571519"/><path d="M1792,1572.63a4.5,4.5,0,0,1-1.92-.42,4.58,4.58,0,0,1-2.23-6.07l3.12-6.76c15.35-33.16,34.45-74.44,47.09-109.38a4.58,4.58,0,0,1,8.61,3.12c-12.78,35.3-32,76.78-47.4,110.11l-3.12,6.74A4.56,4.56,0,0,1,1792,1572.63Z" fill="#571519"/><path d="M1790.87,1573.64c-1.43,0-23.16-.11-43.58-6.67-19.08-6.13-44.08-20.63-41.41-31.93,12-50.77,41.38-163.69,66.93-227.65a4.58,4.58,0,1,1,8.5,3.4c-25.31,63.36-54.51,175.46-66.47,226.12.81,3.41,14.58,14.71,35.25,21.35,19.22,6.17,40.38,6.23,40.8,6.23h0a4.58,4.58,0,0,1,0,9.15Z" fill="#571519"/><path d="M1785.61,1252a3,3,0,0,1-.42,0,4.57,4.57,0,0,1-4.14-5c.21-2.33.42-5.33.66-8.61.58-8,1.24-17.13,2.22-23a4.57,4.57,0,0,1,9,1.52c-.91,5.39-1.57,14.65-2.11,22.09-.24,3.34-.46,6.4-.68,8.77A4.57,4.57,0,0,1,1785.61,1252Z" fill="#571519"/><path d="M1820.87,1235a4.57,4.57,0,0,1-4.52-3.87c-.69-4.48-2.92-18-2.92-18l9-1.48s2.23,13.59,2.94,18.09a4.59,4.59,0,0,1-3.82,5.23A5.78,5.78,0,0,1,1820.87,1235Z" fill="#571519"/><path d="M1660.52,1753a13.57,13.57,0,0,1-8.41-3l-.26-.22c-5.76-5.2-3.5-13.52-.9-23.15.93-3.42,2-7.29,2.76-11.31.57-2.94,1-5.75,1.5-8.46,1.21-7.13,2.35-13.87,4.81-20.81a161.94,161.94,0,0,1,7-16.56c1.41-3,3-6.42,5-10.91,4.59-11.55,7-19.58,10.09-29.74l.87-2.85a4.57,4.57,0,1,1,8.75,2.66l-.86,2.84c-3,10-5.61,18.56-10.41,30.63-2.1,4.74-3.74,8.22-5.18,11.27a153,153,0,0,0-6.65,15.71c-2.19,6.2-3.23,12.27-4.42,19.29-.47,2.77-1,5.65-1.54,8.67-.85,4.35-1.94,8.39-2.91,12-1.56,5.76-3.32,12.28-1.88,13.89a4.22,4.22,0,0,0,3.53.86c1.75-.37,6.49-2.46,12.86-14.1,3.9-7.45,5.66-14.35,7.22-20.44,1.85-7.23,3.6-14,8.45-19.94,1.44-1.85,2.72-3.54,3.93-5.14,4.72-6.24,8.44-11.16,20.93-24.54,3.94-4.07,7.8-7.52,11.53-10.85,10.21-9.13,19-17,24.72-33.11a4.58,4.58,0,0,1,8.63,3.06c-6.48,18.3-16.57,27.32-27.25,36.87-3.61,3.22-7.34,6.56-11,10.34-12.12,13-15.72,17.73-20.28,23.75-1.23,1.63-2.54,3.35-4.08,5.34-3.64,4.41-5,9.74-6.72,16.49-1.68,6.57-3.59,14-8,22.49-6.16,11.25-12.38,17.35-19.07,18.74A13.85,13.85,0,0,1,1660.52,1753Z" fill="#571519"/><path d="M1733.72,1708.7a4.57,4.57,0,0,1-4.56-4.3c-.05-.66-.94-16.32,3-25.63,4.61-11.16,10.86-20.21,16.9-29,4.74-6.86,9.64-14,13.75-22.1a40,40,0,0,0,2.94-8.38,115,115,0,0,0,2.36-17.15c.8-9.11,1.63-18.53,5.53-29.12a4.58,4.58,0,0,1,8.59,3.16c-3.48,9.44-4.26,18.25-5,26.76a125,125,0,0,1-2.57,18.48,50.13,50.13,0,0,1-3.64,10.31c-4.43,8.76-9.51,16.12-14.42,23.24-6,8.74-11.74,17-16,27.28-2.59,6.14-2.55,17.65-2.31,21.56a4.57,4.57,0,0,1-4.29,4.84Z" fill="#571519"/><path d="M1648.25,1790.65a15.75,15.75,0,0,1-9.85-4c-7.6-6.14-18.05-19.91-20.28-25.68a341,341,0,0,1-10.32-33.4c-1.44-7.92,2.38-16.32,6.41-25.22,1.21-2.66,2.45-5.38,3.57-8.15,2.08-4.82,4.27-10.46,6.39-15.91,4.58-11.81,8.91-23,13-28.57s8.9-10,13.62-14.34c2.27-2.08,4.41-4,6.39-6.06,8.83-9.46,30.85-34.65,38.65-45.49,5.8-7.93,13.93-20,17.71-33.78a4.57,4.57,0,1,1,8.82,2.42c-4.18,15.21-12.92,28.25-19.13,36.74-8,11.09-30.39,36.74-39.44,46.44-2.23,2.28-4.56,4.41-6.82,6.48-4.39,4-8.93,8.17-12.39,12.95s-7.68,15.77-11.85,26.52c-2.15,5.53-4.37,11.26-6.48,16.13-1.12,2.78-2.41,5.63-3.67,8.41-3.43,7.55-6.67,14.69-5.77,19.71.52,2.54,6.06,22.09,9.86,31.8,1.44,3.72,10.46,16.19,17.56,21.92,2.48,2.06,4.25,2.11,4.83,1.67.73-.54,1.29-2.77-.32-6.43-2.22-5.08-4.19-8.81-5.78-11.81a56.54,56.54,0,0,1-4.22-9.24s-.09-.31-.1-.35c-1.43-5-4.79-16.64-3.88-26.17.4-10.83,14.4-32.87,17.81-37a4.57,4.57,0,1,1,7.06,5.81c-4.17,5.08-15.47,24.56-15.74,31.8-.76,8.07,2.37,18.95,3.55,23a47.39,47.39,0,0,0,3.62,7.85c1.65,3.13,3.71,7,6.06,12.41,3.1,7.07,2.1,13.91-2.55,17.41A10.31,10.31,0,0,1,1648.25,1790.65Z" fill="#571519"/><path d="M1698.13,1696.78c-1.81,0-3.65-.08-5.53-.23a4.58,4.58,0,1,1,.76-9.12c9.75.82,18.27-.88,28.88-3.87a4.57,4.57,0,0,1,2.48,8.8C1715.36,1695,1707,1696.78,1698.13,1696.78Z" fill="#571519"/><path d="M1690.58,1800.05c-3.78,0-7.69-2.09-11.42-4.46-3.78-2.76-35-26.42-41.12-58.46-1.54-7.58,2.23-19.8,6.57-32.71.89-2.63,1.65-4.9,2-6.21a4.57,4.57,0,1,1,8.84,2.33c-.42,1.6-1.19,3.9-2.17,6.8-2.6,7.75-7.46,22.16-6.27,28,5.54,29.15,36,51.73,37.31,52.68,4.52,2.86,6,2.9,6.35,2.85a7,7,0,0,0,.68-1.67c.35-1.39-.58-6.56-5.16-14.4-1.38-2.18-3-4.56-4.55-7-6.59-9.91-12.81-19.27-12.83-26.93a4.57,4.57,0,0,1,4.56-4.59h0a4.58,4.58,0,0,1,4.58,4.56c0,4.91,6,13.94,11.3,21.89,1.63,2.46,3.25,4.9,4.75,7.27,2.64,4.52,8.35,15.43,6.06,21.92-1,3.69-3.13,6.3-6.14,7.45A9.31,9.31,0,0,1,1690.58,1800.05Z" fill="#571519"/><path d="M1704.32,1794.07a16.87,16.87,0,0,1-12.13-6,4.57,4.57,0,0,1,7.32-5.48c.75,1,3.7,2.45,4.93,2.31a4,4,0,0,0,.15-.65c1.11-7.14-1.13-13-7.13-28.65l-.85-2.2c-7.23-18.9-7.62-28.44,3.38-59.53a4.58,4.58,0,0,1,8.63,3c-10.32,29.16-9.83,36.56-3.46,53.21l.84,2.2c6.45,16.82,9.12,23.79,7.64,33.27-.61,4.21-3.07,7.19-6.76,8.13A10.55,10.55,0,0,1,1704.32,1794.07Z" fill="#571519"/><path d="M1722.09,1774.14a9.88,9.88,0,0,1-7.95-4.46c-2.74-3.44-3.39-8.63-4.08-14.13-.58-5.34-1-11.79-1.44-18.62-.94-14.42-2-30.75-4.81-41.84a4.57,4.57,0,1,1,8.87-2.24c3,11.9,4.1,28.68,5.07,43.48.43,6.73.85,13.09,1.4,18.11.42,3.43,1,8.16,2.16,9.54l.19.26a2.57,2.57,0,0,0,.76.77c.36-.17,2.79-2.25,4.51-9.76,1.38-6.86,2.53-22.58,2.6-35.68,0-4.67.05-9,.05-12.85,0-11.61,0-17.33.64-20.31a4.57,4.57,0,0,1,9,1.8c-.45,2.23-.46,9.78-.46,18.52,0,3.89,0,8.22,0,12.9-.07,13.82-1.28,30-2.8,37.54-3,13.17-8.73,16.17-11.87,16.79A8.84,8.84,0,0,1,1722.09,1774.14Z" fill="#571519"/><path d="M630.09,776.41a4.35,4.35,0,0,1-.51,0,4.57,4.57,0,0,1-4-5l6.33-57.26a4.57,4.57,0,0,1,9.09,1l-6.33,57.25A4.57,4.57,0,0,1,630.09,776.41Z" fill="#571419"/><path d="M589.13,775.94a4.57,4.57,0,0,1-4.44-3.51l-9.39-39.07a4.57,4.57,0,1,1,8.89-2.14l9.4,39.07a4.58,4.58,0,0,1-3.38,5.52A5,5,0,0,1,589.13,775.94Z" fill="#571419"/><path d="M668.75,781a4.48,4.48,0,0,1-2.49-.75,4.56,4.56,0,0,1-1.34-6.32l13.42-20.64a4.57,4.57,0,0,1,7.67,5l-13.42,20.64A4.58,4.58,0,0,1,668.75,781Z" fill="#571419"/></svg>