<svg xmlns="http://www.w3.org/2000/svg" viewBox="0 0 2745 1830"><polygon points="0 0 0 1830 2745 1830 2745 0 0 0 0 0" fill="#ffeab8"/><path d="M1148.47,1087.73a5.34,5.34,0,0,0-7.39-1.52L10.23,1830H29.66l1117.28-734.87a5.35,5.35,0,0,0,1.53-7.4Z" fill="#f9c04e"/><path d="M1566,773.84s10.94,25.17,4.89,41.5-14.74,102.46-15.55,131.5l88.27,66.41,33.76-256.52-18.12-47.63L1566,773.84Z" fill="#ffeab8"/><path d="M1651.48,601.24c-5-9.65-13.73-20.1-28.94-31-9.11-6.47-14.08-5.17-19.54-4.46-3.74.62-6.38,1.32-8.8.18-32.34-14.2-68.37,9-68.37,9s-10.14,5.83-26.52,18.94c-13.17,10.5-10.78,17-13.06,21.79s-10.67,12-11,17.37c-.21,3.24-1,5.57,3.43,10.42,2.94,3.12,9.86,6.62,13,9.33a111.5,111.5,0,0,1,9.55,9.52l102.38,38.71,26.18-4,5.42-4.95c4.85-4.45,5.17-14.08,8.4-23.41,1.85-5.08,6.56-15.5,8-25.05a39,39,0,0,0-.23-14.44l5.6-12.42a58.18,58.18,0,0,0-5.47-15.55Z" fill="#ffeab8" fill-rule="evenodd"/><path d="M1622.16,688.08a88.12,88.12,0,0,1-9.31-8.54,20.33,20.33,0,0,0,3.21-10.74c.27-7.13-2-17.14-7.9-19.49-4.76-1.95-15.43,1.89-15.43,1.89s-1.35,13.79-5.8,17.09c-.82.91-5.3-9.58-8.84-15-4.73-7.26-10.89-7.78-12.88-8.66-1.58-.67-11.52,1.92-24.24-2.17-8.94-3-18.09-15.1-26.42-17.17-19.88-4.36-17.08,15.77-16.77,22.42.76,9.7,7,20.1,9.55,33.91,1.06,5.4-9.67,10.31-8.45,16.35,2,7.63,6.95,6.32,12.07,15.22.37,1.34,5.46,12.75,9.61,21.9,3.42,7.59,6.13,14,14.55,19.18,7.93,4.67,33.83-11.28,40-4,3.69,4.69,8.63,16.84,10.67,22a62.16,62.16,0,0,1,2.41,9.18,4.25,4.25,0,0,1,.49.58c3.63,5.24,60.45-50.72,59.23-53.53a267.36,267.36,0,0,1-13-36.2s-7.41.15-12.75-4.12Z" fill="#ffeab8" fill-rule="evenodd"/><path d="M1650.11,626.17a5.35,5.35,0,0,0-4.52,6.05,48.72,48.72,0,0,1-4,27.54,105.13,105.13,0,0,0-6.81,19.63,36.52,36.52,0,0,1-2.86,8.49c-1.7.39-8.69-3.79-13.87-10.7a5.33,5.33,0,1,0-8.54,6.39c4,5.29,13.55,15,22.31,15,.26,0,.53,0,.79,0a10.42,10.42,0,0,0,8.61-5.61,42.35,42.35,0,0,0,3.92-10.93,93.66,93.66,0,0,1,6.13-17.75,58.54,58.54,0,0,0,4.89-33.55,5.34,5.34,0,0,0-6.05-4.52Z" fill="#571519"/><path d="M1593.58,562.44a5.34,5.34,0,1,0,4.09,9.87c17.76-7.37,36.52,10.77,48.14,30.19a34.22,34.22,0,0,1,3.89,8.93,31.89,31.89,0,0,0-15.21-15.94,5.34,5.34,0,0,0-4.71,9.58c14.32,7,13.18,25.89,13.12,26.67a5.34,5.34,0,0,0,8.31,4.83c6.75-4.56,16.22-18.7,3.76-39.54-13.9-23.25-37.34-44.55-61.39-34.59Z" fill="#571519"/><path d="M1515.32,575.06c-1.06.79-2.24,1.64-3.5,2.55-14.62,10.56-36.71,26.52-29,42.83a5.33,5.33,0,0,0,4.83,3.07,5.33,5.33,0,0,0,4.83-7.61c-3.9-8.3,16-22.71,25.64-29.64,1.29-.93,2.5-1.8,3.57-2.59,19.08-13.92,56-22.09,63.74-14.1a5.34,5.34,0,1,0,7.68-7.42c-13.48-13.93-57.32-2-77.74,12.91Z" fill="#f9c04e"/><path d="M1573.94,629.76c-1,.36-25.09,8.52-39-12.63a5.34,5.34,0,0,0-8.92,5.86,42.33,42.33,0,0,0,13.35,13.14c-4.85-2.29-8.19-5.34-12.34-10.9-4.7-6.23-11.07-13.31-18.66-12.54-3.1.31-7.46,2.08-10.71,8.83a5.34,5.34,0,0,0,9.62,4.62c1.09-2.26,2-2.81,2.14-2.83s2.78,0,9.07,8.32c6.67,8.92,12.5,13.24,22.18,16.47a27.64,27.64,0,0,0,9.56,1.64c14.64,0,28-10.2,28.72-10.72a5.34,5.34,0,0,0-5-9.26Z" fill="#f9c04e"/><path d="M1488.52,644.59a37.94,37.94,0,0,1-6.38-4.5c-3.24-3.17-.84-9.73,3.36-14.24a5.34,5.34,0,0,0-7.83-7.27c-7.75,8.35-11.27,21-3,29.14a45.42,45.42,0,0,0,8.25,5.95c5.13,3.17,10.44,6.45,14.1,13a5.34,5.34,0,0,0,4.66,2.72,5.26,5.26,0,0,0,2.61-.69,5.33,5.33,0,0,0,2-7.26c-5-8.92-12.11-13.29-17.81-16.8Z" fill="#f9c04e"/><path d="M1591.09,643a5.33,5.33,0,0,0-4.39,6.14,18.14,18.14,0,0,1-.25,7.73,34.15,34.15,0,0,0-11.88-15.71,5.34,5.34,0,1,0-6.26,8.65c9.75,7.06,10,18.89,10,19.36a5.34,5.34,0,0,0,2.63,4.6,5.27,5.27,0,0,0,2.71.74,5.32,5.32,0,0,0,2.59-.67c.57-.32,14.07-8,11-26.45a5.33,5.33,0,0,0-6.14-4.39Z" fill="#571519"/><path d="M1565.6,607.19c-13.55,4.77-25.91-1.89-36.82-7.76-5.83-3.13-10.86-5.84-15.71-6.48-12.39-1.41-19.54,10.53-21.82,17.81a5.34,5.34,0,0,0,10.18,3.21c0-.11,3.77-11.15,10.33-10.42,2.83.37,7.27,2.76,12,5.28,8.69,4.68,19.8,10.65,32.42,10.65a38.91,38.91,0,0,0,13-2.22,5.34,5.34,0,0,0-3.54-10.07Z" fill="#f9c04e"/><path d="M1602.44,610.07a5.34,5.34,0,0,0-7.42,1.38c-3,4.36-13.09,12.13-29.92,10.34a5.34,5.34,0,1,0-1.13,10.62,57,57,0,0,0,6,.32c18.27,0,29.73-9.24,33.84-15.24a5.32,5.32,0,0,0-1.38-7.42Z" fill="#571519"/><path d="M1609.07,643.55c-5.15-2-11.19-1.06-18,2.75a5.34,5.34,0,0,0,5.24,9.31c3.74-2.11,6.9-2.86,8.89-2.09,2.18.83,3.55,3.75,4.33,6.06,2,5.8,1.73,11.31-.61,15.53a15,15,0,0,1-10.1,7.18,5.34,5.34,0,0,0,1.21,10.53,5.08,5.08,0,0,0,1.22-.14,25.69,25.69,0,0,0,17-12.38c3.83-6.88,4.33-15.45,1.41-24.12-2.19-6.51-5.77-10.76-10.62-12.63Z" fill="#571519"/><path d="M1599.92,659.67c-.8.52-4.84,3.5-5.8,11.05a5.34,5.34,0,0,0,4.63,6,5,5,0,0,0,.67,0,5.34,5.34,0,0,0,5.29-4.67c.34-2.72,1.31-3.65,1.35-3.69a1.16,1.16,0,0,1-.32.24l-5.82-8.94Z" fill="#571519"/><path d="M1570.5,742c-5.33-.43-10.25,1-15.94,2.76-3.58,1.07-7.64,2.3-12.72,3.35-4.66,1-7.3.42-12.91-9.69a219.64,219.64,0,0,1-9.71-21.33,5.34,5.34,0,0,0-9.9,4,232.32,232.32,0,0,0,10.21,22.39c4.91,8.83,11.28,18,24.54,15.06,5.47-1.13,9.78-2.43,13.57-3.57,5-1.52,8.68-2.61,12-2.34,1.32.11,6,2,11.38,22.59a5.34,5.34,0,0,0,5.16,4,5.28,5.28,0,0,0,1.35-.18,5.34,5.34,0,0,0,3.82-6.51c-3.58-13.72-9.18-29.6-20.85-30.53Z" fill="#f9c04e"/><path d="M1512.4,704.87a29.52,29.52,0,0,0-4.74-4.53c-1.51-1.23-3.38-2.76-3.63-3.72,0-.12-.11-.29-.15-.4a13.58,13.58,0,0,1,2.14-2.66,32.66,32.66,0,0,0,3.72-4.56c3.91-5.85,3.2-11,.53-18.52a5.33,5.33,0,1,0-10,3.57c2.31,6.52,1.65,7.51.6,9.09a25.44,25.44,0,0,1-2.63,3.16c-2.56,2.77-6.43,7-4.44,13.19,1.17,4.22,4.48,6.93,7.15,9.11a20.52,20.52,0,0,1,3.11,2.87l.24.29c1.6,1.83,3.78,6.84,4.82,9.8a5.34,5.34,0,0,0,5,3.58,5.47,5.47,0,0,0,1.76-.3,5.33,5.33,0,0,0,3.28-6.79c-.52-1.5-3.28-9.11-6.75-13.18Z" fill="#f9c04e"/><path d="M1503.3,646.45c-.34-2.17-.62-5.72.91-11.52a5.34,5.34,0,0,0-10.33-2.71,37.62,37.62,0,0,0-1.17,15.6c1,10,4.66,19.11,7.57,26.42a5.36,5.36,0,0,0,5,3.36,5.34,5.34,0,0,0,5-7.31c-2.67-6.7-6-15-6.9-23.84Z" fill="#f9c04e"/><path d="M1640.75,690.8a5.34,5.34,0,0,0-10.4,2.43,213,213,0,0,0,12,35.06,5.34,5.34,0,1,0,9.8-4.23,202.84,202.84,0,0,1-11.44-33.26Z" fill="#f9c04e"/><path d="M1660.61,718.14a5.24,5.24,0,0,0-1.52,7.31c.11.2,2.56,4.85-2.14,14.69a58.55,58.55,0,0,1-7,11c-5.64,7.16-30.27,32-42,43.66a49,49,0,0,0-4.93-10.39,10.47,10.47,0,0,0-1-1.24,8.21,8.21,0,0,0-6.54-2.48c-5.75.37-10.88,6.55-12.32,8.43a5.34,5.34,0,0,0,8.48,6.48,21.36,21.36,0,0,1,3.57-3.6,79.79,79.79,0,0,1,5.19,14.15,5.34,5.34,0,0,0,3.76,3.77,5.12,5.12,0,0,0,1.39.19,5.36,5.36,0,0,0,3.76-1.55c1.68-1.66,41.2-40.88,49-50.81a70,70,0,0,0,8.32-13.06c7.37-15.47,2.1-24.1,1.47-25a5.41,5.41,0,0,0-7.46-1.55Z" fill="#f9c04e"/><path d="M1657.61,745c-1,6.45-.15,31.26-.15,31.26l33.34-21.06-24.66-32.57s-7.52,15.91-8.53,22.37Z" fill="#ffeab8"/><path d="M1798.7,696c1.07-25.79-7-41.91-26.17-46.45l-105,117.53S1624.83,925,1616.35,996.52L1708.24,1103l133-346.27c-18.1-45.81-42.57-60.7-42.57-60.7Z" fill="#ffeab8" fill-rule="evenodd"/><path d="M1230.63,1039l169.44,23a2.5,2.5,0,0,0,2.45-1.52L1455,956.08l-95-11.86L1230.63,1039Z" fill="#ffeab8"/><path d="M1336.1,859l-139.41,14.9a2.5,2.5,0,0,0-2.18,3L1230.63,1039,1360,944.22,1338.8,860.9a2.51,2.51,0,0,0-2.7-1.87Z" fill="#ffeab8"/><path d="M1234.06,1029.91l-33.65-151,133.82-14.3L1354,942l-119.92,87.87Zm-36.8-150.67h0ZM1344,859.58a7.87,7.87,0,0,0-8.44-5.86l-139.41,14.9a7.84,7.84,0,0,0-6.82,9.51l36.12,162.07a5.34,5.34,0,0,0,3.33,3.84,5.53,5.53,0,0,0,1.88.34,5.32,5.32,0,0,0,3.15-1l129.42-94.82a5.34,5.34,0,0,0,2-5.63L1344,859.58Z" fill="#f9c04e"/><path d="M1455.7,950.79l-95-11.87a5.34,5.34,0,1,0-1.32,10.59l87.48,10.93-48.28,96-167.24-22.68a5.34,5.34,0,0,0-1.44,10.58l169.44,23a3,3,0,0,0,.42,0h.44a7.89,7.89,0,0,0,7.14-4.56l52.45-104.31a5.33,5.33,0,0,0-4.1-7.69Z" fill="#f9c04e"/><path d="M1430.87,976.05l-20.76-2.12a3,3,0,0,0-2.82,1.31l-20.64,30.15a3,3,0,0,0,2.3,4.76l26.8,1.88a3.06,3.06,0,0,0,3-1.71l14.59-29.89a3.06,3.06,0,0,0-2.43-4.38Z" fill="#a3a3a3"/><path d="M1694.39,894.91a5.3,5.3,0,0,0-5.56,5.11l-4.29,102.88a5.33,5.33,0,0,0,5.11,5.55h.22a5.34,5.34,0,0,0,5.33-5.12l4.3-102.88a5.35,5.35,0,0,0-5.11-5.55Z" fill="#f9c04e"/><path d="M1800.77,691.11a5.34,5.34,0,0,0-4.19,9.82c.21.09,20.57,9.54,37.42,52.17a5.34,5.34,0,0,0,5,3.38,5.4,5.4,0,0,0,2-.37,5.35,5.35,0,0,0,3-6.93c-18.72-47.35-42.18-57.65-43.16-58.07Z" fill="#f9c04e"/><path d="M1385.47,954.16c-4.48-.2-9.6-.42-10,3.53a4.12,4.12,0,0,0,.4,2.43l40.73-3.83c-10.3.83-20.84-1.68-31.09-2.13Z" fill="#bac5dd"/><path d="M1437.74,944.64c-18.4,1-35.9-.93-54.06.58-9.4.75-17.28,4.89-26,7.85-10.94,3.62-24.33,7.4-22.69,11.07,1.14,3.25,8.33,3.18,16.74,1.63,6.34-1.26,19.73-5,23.86-5.63l.25,0a4.12,4.12,0,0,1-.4-2.43c.44-4,5.56-3.73,10-3.53,10.25.45,20.79,3,31.09,2.13l-40.73,3.83c1.77,3.6,8.86,5.28,15,6.72,7.48,2,29.48,12.59,40.39,9.6,11.17-3.1,42.71,3.52,42.71,3.52L1467,946.61s-18.49-2.39-29.29-2Z" fill="#ffeab8"/><path d="M1475,974.74c-3.36-.7-33.17-6.81-45.22-3.45-6.52,1.77-20.66-3.5-29.11-6.66-3.55-1.33-6.36-2.38-8.7-3-2-.48-5.46-1.28-8.06-2.19l1.31,0c3.69.16,7.43.61,11.38,1.08,6.62.78,13.46,1.6,20.37,1a5.34,5.34,0,0,0-.86-10.64c-5.87.47-11.87-.24-18.25-1-4-.48-8.08-1-12.18-1.14-4.75-.23-14.6-.64-15.55,8.13-1.42,10.16,11.1,13.11,19.29,15,1.64.43,4.36,1.45,7.52,2.63,10.9,4.07,25.83,9.65,35.68,7,7.21-2,28.48,1.14,40.19,3.6a5.07,5.07,0,0,0,1.1.11,5.34,5.34,0,0,0,1.09-10.56Z" fill="#f9c04e"/><path d="M1467.71,941.32c-.77-.11-19-2.44-30.26-2-8.25.44-16.53.29-24.54.13a289.49,289.49,0,0,0-29.65.46c-7.59.6-14.12,3.13-20.44,5.57-2.26.87-4.53,1.75-6.83,2.53l-4,1.29c-12.94,4.2-19.79,6.62-21.91,11.39a6.81,6.81,0,0,0-.11,5.4c1.76,4.7,6.75,6.07,12.29,6.07a58.56,58.56,0,0,0,10.46-1.15c3.08-.61,7.62-1.76,12-2.87s9.63-2.43,11.57-2.71a5.33,5.33,0,1,0-1.51-10.56c-2.5.35-7.21,1.54-12.67,2.92-2.51.64-5.06,1.28-7.3,1.82l.47-.15,4.05-1.33c2.48-.84,4.89-1.77,7.29-2.69,5.86-2.27,11.4-4.41,17.46-4.89,9.54-.8,18.79-.61,28.57-.43,8.2.16,16.68.32,25.24-.13,10.24-.41,28.23,1.9,28.41,1.92a5.33,5.33,0,0,0,1.36-10.58Z" fill="#f9c04e"/><path d="M1381.55,959.26c-6.92,1.71-14.56,5.65-20.36,9.36l.56-.49a5.34,5.34,0,1,0-7.08-8c-3,2.64-5.84,5-8.44,7.17-9.65,8-16.62,13.79-13,20.86a7.16,7.16,0,0,0,4.84,3.71,8.57,8.57,0,0,0,2.06.24c3.75,0,9.81-2.23,23-11.93,5.3-3.9,14.13-8.87,20.95-10.56a5.34,5.34,0,1,0-2.57-10.36Z" fill="#f9c04e"/><path d="M1402.1,966.34a46.18,46.18,0,0,0-8.78,4.27,5.34,5.34,0,0,0-9.3-4.71c-14.08,17.16-16.31,23.33-15.34,27.71a7,7,0,0,0,3.88,4.93,8.37,8.37,0,0,0,3.69.88c6,0,11.27-6.94,15.61-12.7.79-1.05,1.56-2.07,2.29-3,3-3.73,9.26-6.53,11.43-7.28a5.34,5.34,0,0,0-3.48-10.1Z" fill="#f9c04e"/><path d="M1442.56,934.66s-6,18.33,0,45.6c0,0,23.77,3.87,48.2,2.25l74.87-11.37-5.07-36.48c-57.51,2.58-118,0-118,0Z" fill="#ffeab8"/><path d="M1560.32,929.33c-56.6,2.53-116.93,0-117.53,0a5.43,5.43,0,0,0-5.3,3.66c-.26.8-6.44,20-.14,48.43a5.35,5.35,0,0,0,4.36,4.11,251.54,251.54,0,0,0,36.49,2.72c4.19,0,8.54-.12,12.91-.41a5.34,5.34,0,1,0-.71-10.65c-18,1.19-35.9-.72-43.36-1.69-3.11-16.6-1.52-29.32-.33-35.34,15,.52,65.85,2,114.09-.16a5.34,5.34,0,0,0-.48-10.67Z" fill="#f9c04e"/><path d="M1440.94,991.29c-12.36-2.37-33.58-12.17-38.54-14.4-8.64-4.23-26.06-14.92-30.56-14.94-6.09.1-16.84,7.25-26.5,16.25l13.61,2.1c.43-.07.84-.17,1.29-.22,6.36-.75,18.77,2.26,29.87,5L1359,980.3c-5.68,1-9.91,4.18-17.26,10.35-7.92,6.32-17.11,12.72-14.91,16.75s7.75.76,14.57-2.92,11-8.45,17.69-8.91,29.18,4.12,29.14,8.29c0,4.5-17.93,5.4-25,10s-10.32,8.73-14.88,12.57-7.87,7-5.76,9.7,6.2,1.51,12.42-1.48c6.52-3.34,7.26-6.6,19.18-10.62a47.9,47.9,0,0,1,19.16-1.62c9.07,1.31,26.34,5,33.46,5.75,12.27,1.09,30.29-3,47.16-5.14l-2.35-34.51s-17.93,5.39-30.63,2.73Z" fill="#ffeab8"/><path d="M1360.24,980.08c-.45,0-.86.15-1.29.22l31.16,4.81c-11.1-2.77-23.51-5.78-29.87-5Z" fill="#bac5dd"/><path d="M1473.26,1017.78c-5.11.63-10.32,1.46-15.36,2.25-11.67,1.83-22.72,3.56-30.55,2.87-3.66-.41-10.53-1.68-17.18-2.91-5.82-1.08-11.84-2.2-16.23-2.83a53.45,53.45,0,0,0-21.5,1.86c-8.46,2.86-12,5.48-15.1,7.8a31.1,31.1,0,0,1-4.69,3.07l-.27.13c1.32-1.15,2.55-2.31,3.81-3.5a66.82,66.82,0,0,1,9.92-8.15c2.39-1.57,7.34-2.81,11.7-3.91,8.42-2.11,15.69-3.93,15.71-10.55a7.16,7.16,0,0,0-2.43-5.32c-5.7-5.37-26.4-8.73-32.41-8.34s-10.23,3.29-14.36,6.08a63.88,63.88,0,0,1-5.51,3.45l-.2.11c1.22-1,2.41-1.92,3.42-2.71l3.1-2.44c7.91-6.65,11.11-8.81,15.73-9.36,5.64-.68,19.08,2.69,28,4.91a5.34,5.34,0,0,0,2.59-10.36c-13.24-3.31-24.78-6-31.8-5.15-8.12,1-13.4,5.1-21.25,11.7-1,.77-1.94,1.54-2.92,2.3-9,7-17.44,13.68-13.34,21.18,4.64,8.5,14,3.44,20.83-.27l1-.51c2.44-1.32,4.56-2.75,6.43-4,3.48-2.36,6-4.06,9.09-4.27,3.59-.23,11.53,1.16,17.46,2.79l-1.64.42c-5.45,1.36-11.08,2.77-15,5.34a76.19,76.19,0,0,0-11.39,9.32c-1.31,1.24-2.59,2.45-4,3.63-4.16,3.51-11.92,10.06-6.55,17a8.93,8.93,0,0,0,7.45,3.59c4.2,0,8.65-2.15,11.63-3.58a42.31,42.31,0,0,0,6.32-4.06,36.3,36.3,0,0,1,12-6.21,42.93,42.93,0,0,1,16.82-1.44c4.06.59,10,1.68,15.69,2.74,7.14,1.33,13.89,2.58,18,3,9.27.84,20.94-1,33.28-3,5-.78,10.09-1.58,15-2.2a5.34,5.34,0,0,0-1.33-10.59Z" fill="#f9c04e"/><path d="M1393.47,971.78c-.57-.15-14.1-3.64-21.53-4.74-7.28-1.37-16.09-1.87-26.17,4.89a82.27,82.27,0,0,0-16.87,14.61c-8.89,8.9-7,15.22-5.05,18.2a5.58,5.58,0,0,0,4.64,2.54,5.25,5.25,0,0,0,4.41-8.06s.08-1.66,3.69-5.28a72.92,72.92,0,0,1,15.13-13.14c6.5-4.37,11.8-4.48,18.44-3.23,7.09,1,20.49,4.51,20.63,4.54a5.34,5.34,0,1,0,2.68-10.33Z" fill="#f9c04e"/><path d="M1470,983.45c-.17,0-16.81,5-28.1,2.59-11-2.1-30-10.69-36.25-13.52l-1-.43c-2.6-1.27-6.12-3.2-9.85-5.25-12.64-6.94-19-10.21-23.13-10.22-10.18.16-24.41,12.42-30.06,17.68a5.34,5.34,0,0,0,7.28,7.81c10.36-9.66,19.39-14.77,22.65-14.83,2.53.35,12.29,5.71,18.12,8.91,3.84,2.12,7.47,4.11,10.46,5.57l1.09.49c6.53,3,26.42,11.94,38.54,14.26a45,45,0,0,0,9.07.85,95.12,95.12,0,0,0,24.2-3.69,5.34,5.34,0,1,0-3.07-10.22Z" fill="#f9c04e"/><path d="M1777.67,516.67c-.41-15.57-14.82-55.53-23.39-68.64-9.88-15-26.45-12.44-42.5-29.4s-41.11-11.16-51.45-14.54C1604.45,385.78,1555.18,443,1555.18,443s-44.46,13.68-72,33.72c-18.15,12.87-25.75,34.49-24.36,38.2,5.45,16.1,19.51,32.59,19.85,41.54.94,15.38-2.83,29.5,24.62,34.91,43.35,9.11,194.09,38.35,194.09,38.35l44.82,19.45s2.84-15,25.18-16.72c15.17-1.47,4.43-10.74-2.08-26.44-3.32-7.23-3.2-23-2.67-28,3.49-21.28,15.28-36.6,15.06-61.32Z" fill="#ffeab8" fill-rule="evenodd"/><path d="M1757.82,632.75l1.13-.15s-1.07-.94-1.13.15Z" fill="#ffe4ce" fill-rule="evenodd"/><path d="M1757.82,632.75c-4.63.61-22.41,2.56-30.71-2.71-9.55-6.07-23.4-26.87-23.4-26.87s9.86-18.85,8.91-29.37c-.79-11.81-6.25-27.91-16.38-30.75-8.17-2.38-25.07,5.8-25.07,5.8s.15,22.93-6.59,29.1c-3.66,3.17-5.91-4.46-11.52-6.56-4.92-1.8-12.27,2.8-18.92,2.86a84.53,84.53,0,0,1-9.45.55c-29.71,1.47-64.75,3.15-71.74-.88-17.75-10.25-19.3-41.76-29.12-45.32s-11.59,20.71-9.58,30.83c2.93,15.83,15,31.87,21.59,54.2,2.66,8.69-14.18,18.63-11.13,28.37,4.58,12.2,12.53,9.2,22.57,23,.79,2.11,11.13,20,19.58,34.37,6.89,11.93,12.48,21.94,27.24,29.1,13.33,6.47,53.74-24.46,65.09-13.57,5.55,5.7,13.26,19.28,18.3,28.52,19.55-11,71.27-41.76,98.88-74.42-2.78-4.21-5.07-7.9-6.62-10.8-10-18.24-12-23.88-11.93-25.44Z" fill="#ffeab8" fill-rule="evenodd"/><path d="M1695.7,538.05c-7.76-2.08-16.56.3-26.14,7.09a5.34,5.34,0,1,0,6.17,8.71c6.87-4.87,12.65-6.71,17.2-5.49,4,1.09,7.57,4.84,10.46,11.16,4.58,10,5.14,20.07,1.57,28.45-3.11,7.3-9.1,12.67-17.32,15.53a5.34,5.34,0,0,0,1.75,10.38,5.07,5.07,0,0,0,1.75-.3c11-3.82,19.38-11.42,23.64-21.43,4.76-11.18,4.17-24.36-1.69-37.08-4.27-9.35-10.13-15.07-17.39-17Z" fill="#571519"/><path d="M1686.53,565.49c-.62.5-6.1,5.26-6.34,16.56a5.34,5.34,0,0,0,5.22,5.45h.12a5.33,5.33,0,0,0,5.33-5.22c.13-6,2.3-8.37,2.54-8.62a5.34,5.34,0,0,0-6.87-8.17Z" fill="#571519"/><path d="M1650.19,706.84c-8.21.19-15.4,3.2-24.5,7-5.78,2.42-12.34,5.17-20.63,7.81-10.27,3.44-16.31,0-26.92-15.09a380,380,0,0,1-19.87-33.75,5.34,5.34,0,1,0-9.42,5,390.86,390.86,0,0,0,20.48,34.74c9.28,13.23,20,25.62,39.05,19.22,8.66-2.76,15.45-5.6,21.44-8.11,8.37-3.51,14.42-6.05,20.63-6.19,9.59-.15,19,21.08,22,28.1a5.34,5.34,0,0,0,9.78-4.28c-7.55-17.28-17.38-34.92-32.06-34.49Z" fill="#f9c04e"/><path d="M1545.6,654.78a45.46,45.46,0,0,0-8.06-6.21c-3.59-2.35-7-4.58-8-7.18l-.13-.33c-1-2.14-.21-3.62,3.36-8.38a52.36,52.36,0,0,0,5-7.68c4.27-8.1,3.69-14.77-2.38-27.45a5.34,5.34,0,1,0-9.63,4.61c5.43,11.33,4.51,14.18,2.53,17.94a44.14,44.14,0,0,1-4.1,6.18c-3.65,4.87-8.19,10.93-4.61,19,2.24,5.75,7.44,9.16,12,12.17a36.52,36.52,0,0,1,6.26,4.73c.09.09.17.18.26.26,3.94,3.65,8.85,13,10.41,16.37a5.33,5.33,0,0,0,4.84,3.07,5.21,5.21,0,0,0,2.26-.51,5.33,5.33,0,0,0,2.56-7.1c-.65-1.4-6.57-13.77-12.67-19.53Z" fill="#f9c04e"/><path d="M1519.4,558.06c-1-3.81-2.17-10.09-.56-20.55a5.34,5.34,0,0,0-10.55-1.62c-1.46,9.47-1.21,17.38.73,24.64,3.32,15.81,10.74,29.93,16.7,41.27a5.34,5.34,0,1,0,9.45-5c-5.65-10.76-12.69-24.15-15.77-38.78Z" fill="#f9c04e"/><path d="M1517.52,455.1c-43.4,15.09-67.86,40.7-62.34,65.21,2.45,11.29,7.75,18.84,12,24.9,3.29,4.69,5.89,8.4,6.36,12.41a50.84,50.84,0,0,1,0,7.81c-.49,10-1.22,25.09,18.5,31.07a5.26,5.26,0,0,0,1.55.24,5.34,5.34,0,0,0,1.55-10.45c-11.23-3.41-11.47-9.32-10.94-20.34a58.54,58.54,0,0,0,0-9.55c-.77-6.7-4.39-11.86-8.22-17.32-4.1-5.83-8.33-11.85-10.33-21.07-3.49-15.49,12.29-37.83,55.42-52.82a5.34,5.34,0,0,0-3.5-10.09Z" fill="#f9c04e"/><path d="M1611.49,566.22a75.2,75.2,0,0,1-8.91,1.74c-10.71.74-16.52-3.5-19.5-7.17a2.2,2.2,0,0,0-.2-.23c-1.45-1.59-2.86-3.49-4.35-5.5-4.45-6-10-13.45-19.7-15.41a5.34,5.34,0,1,0-2.11,10.47c5.7,1.14,9.36,6.08,13.24,11.3,1.55,2.09,3.16,4.26,4.93,6.22,6.47,7.88,16.57,11.79,28.41,11a77.19,77.19,0,0,0,10.57-2c20.71-4.73,39.77-7.5,45.36,10.27a5.34,5.34,0,0,0,5.09,3.74,5.24,5.24,0,0,0,1.6-.25,5.35,5.35,0,0,0,3.49-6.7c-9-28.62-40.83-21.36-57.92-17.47Z" fill="#f9c04e"/><path d="M1666.45,534.06a5.34,5.34,0,1,0-7.11,8c8,7.15,7.92,17.85,4.44,24.77a5.35,5.35,0,0,0,2.37,7.17,5.42,5.42,0,0,0,2.4.57,5.34,5.34,0,0,0,4.77-2.95c5.25-10.43,5.33-26.63-6.87-37.52Z" fill="#f9c04e"/><path d="M1698,395.52c-8.14,7.32-14.9,8.71-36.64,1.89-35-11.1-86.11,12.63-110.11,40.89a5.34,5.34,0,0,0,8.14,6.91c21.33-25.12,69.12-47,98.76-37.61,21.3,6.67,33.76,7.75,47-4.15a5.33,5.33,0,1,0-7.13-7.93Z" fill="#f9c04e"/><path d="M1742.71,627c-4.46,1.86-9.55,0-13-1.86-9.63-5.16-19-17.07-20.86-26.55a5.34,5.34,0,1,0-10.47,2.06c2.48,12.63,13.79,27.2,26.29,33.9a29.85,29.85,0,0,0,14,3.9,21.06,21.06,0,0,0,8.12-1.59,5.34,5.34,0,0,0-4.09-9.86Z" fill="#f9c04e"/><path d="M1771.26,626.55c-3.8.93-9.14,1.52-13-1-2.77-1.8-4.59-5-5.43-9.61a5.34,5.34,0,1,0-10.5,1.91c1.36,7.48,4.86,13.24,10.12,16.65a23,23,0,0,0,12.76,3.5,36.3,36.3,0,0,0,8.57-1.1,5.34,5.34,0,1,0-2.53-10.37Z" fill="#f9c04e"/><path d="M1773.78,557.54c4.6-12.89,8.58-24,7.7-43.47-.26-9.26-2.85-41.65-25.57-69.67a5.34,5.34,0,1,0-8.29,6.73c20.6,25.4,23,54.83,23.19,63.33.79,17.44-2.68,27.17-7.08,39.49-1.34,3.73-2.71,7.58-4.15,12.13-3.21,11.44-5,43.47,9.44,54.81a5.34,5.34,0,1,0,6.59-8.4c-9.16-7.17-8.49-33.76-5.8-43.36,1.33-4.19,2.67-8,4-11.59Z" fill="#f9c04e"/><path d="M1568.58,570.91c-10.45,1.89-14.45-.46-18.06-5.32-3.48-5.05-6.07-10.89-8.82-17.07-4.18-9.44-8.52-19.22-16.41-26.53a16.13,16.13,0,0,0-16.32-4.11c-7.68,2.37-13.89,9.91-15.81,19.21a5.34,5.34,0,1,0,10.45,2.16c1.12-5.37,4.61-10,8.5-11.17,2.11-.65,4-.13,5.84,1.66,6.36,5.9,10.07,14.26,14,23.11,2.82,6.36,5.73,12.93,9.9,18.95,5.26,7.11,11.6,10.43,20.4,10.43a46.29,46.29,0,0,0,8.24-.82,5.34,5.34,0,1,0-1.91-10.5Z" fill="#f9c04e"/><path d="M1522.93,587.37a13.83,13.83,0,0,1-11.6-1.25,13.37,13.37,0,0,1-6.72-9.24,5.33,5.33,0,1,0-10.53,1.72,23.94,23.94,0,0,0,11.9,16.76,25.28,25.28,0,0,0,12.61,3.46,22.93,22.93,0,0,0,8.1-1.46,5.34,5.34,0,0,0-3.76-10Z" fill="#f9c04e"/><path d="M1623.19,542.16q-4.18,3.55-10.78,3c-8.29-.68-18.09-6.4-25-14.56a5.34,5.34,0,0,0-8.17,6.88c8.76,10.38,21.11,17.4,32.26,18.32.86.07,1.7.11,2.54.11a24.19,24.19,0,0,0,16-5.65,5.33,5.33,0,1,0-6.91-8.12Z" fill="#f9c04e"/><path d="M1761.29,630.19a5.34,5.34,0,1,0-9.75,4.34,368.61,368.61,0,0,0,19.84,37.61,5.34,5.34,0,0,0,9.18-5.45,358.34,358.34,0,0,1-19.27-36.5Z" fill="#f9c04e"/><path d="M966.49,1234.12l322.11,43.67a4.76,4.76,0,0,0,4.66-2.89l99.82-198.48-180.57-22.55-246,180.25Z" fill="#ffeab8"/><path d="M1162.93,883.4,902,920.24a4.77,4.77,0,0,0-4.15,5.78l68.67,308.1,246-180.25L1168.06,887a4.76,4.76,0,0,0-5.13-3.56Z" fill="#ffeab8"/><path d="M969.92,1225,903.17,925.46,1163,888.77l43.4,163L969.92,1225ZM902,920.24h0Zm260.93-31.9h0Zm10.33-2.7a10.19,10.19,0,0,0-11-7.53L901.3,914.94a10.12,10.12,0,0,0-8.69,12.24l68.67,308.1a5.34,5.34,0,0,0,8.36,3.15l246-180.26a5.35,5.35,0,0,0,2-5.68l-44.44-166.85Z" fill="#f9c04e"/><path d="M1393.75,1071.13l-180.58-22.56a5.34,5.34,0,1,0-1.32,10.59l173.07,21.62-96.37,191.62L967.2,1228.83a5.34,5.34,0,0,0-1.43,10.58l322.11,43.67.42,0,.58,0a10.14,10.14,0,0,0,9.21-6l99.77-198.36a5.37,5.37,0,0,0-.07-4.92,5.29,5.29,0,0,0-4-2.77Z" fill="#f9c04e"/><path d="M1571.35,1108.69a5.47,5.47,0,0,0-5.43,5.24L1553.51,1830h10.68l12.41-715.88a5.34,5.34,0,0,0-5.25-5.43Z" fill="#f9c04e"/><path d="M1191.92,1126.83c3.39,6.55,25-8.79,33.22-14.83s22.53-14.32,34.49-17.29l-37.2-.47c-18.36,16.26-33.91,26-30.51,32.59Z" fill="#bac5dd"/><path d="M1214.9,1142.19c6.25,3.37,15.11-8.65,21.69-17.27,6.76-8.24,10.84-12.91,21.78-19.21,3.78-2.16,16.57-6.45,16.57-6.45l-31.11-10c-7.06,10.74-35.36,49.19-28.93,53Z" fill="#bac5dd"/><path d="M1247.61,1139c6.64,3.2,15.81-11.33,22.79-20.13s20.95-13.62,20.95-13.62l-23.71-3.18c-11.05,13.48-26.68,33.73-20,36.93Z" fill="#bac5dd"/><path d="M1258.35,1089.54c-12.14,3-27,11.29-36.37,18.16-12.66,9.31-19.71,13-23.39,14.45,3-3.42,9.1-8.49,14.29-12.79,3.95-3.29,8.44-7,13.09-11.12a5.34,5.34,0,0,0-7.08-8c-4.51,4-8.93,7.66-12.83,10.89-14.1,11.69-23.41,19.42-18.88,28.15a8.16,8.16,0,0,0,5.5,4.21,10.42,10.42,0,0,0,2.39.27c4.85,0,13.6-3,33.23-17.46,8.23-6.06,22-13.77,32.61-16.42a5.33,5.33,0,1,0-2.56-10.35Z" fill="#f9c04e"/><path d="M1218.76,1139.24h0Zm54.48-45c-1.36.46-13.4,4.52-17.53,6.88-11.69,6.74-16.23,11.9-23.36,20.6l-.65.85c-2.49,3.27-8.31,10.91-12.14,13.78,2.22-5.11,8.45-14,11.78-18.71,1.8-2.56,3.49-5,4.85-7a5.34,5.34,0,1,0-8.92-5.87c-1.31,2-2.93,4.29-4.66,6.76-9.6,13.65-15.78,23.1-14.31,29.9a8.36,8.36,0,0,0,4.06,5.51,10.15,10.15,0,0,0,4.9,1.29c8.33,0,16.31-10.48,22.93-19.18l.53-.69c6.58-8,10.2-12.13,20.3-18,2.42-1.38,10.86-4.42,15.61-6a5.34,5.34,0,1,0-3.39-10.12Z" fill="#f9c04e"/><path d="M1251.35,1136.09h0Zm38.26-35.92c-.63.22-15.54,5.44-23.4,15.35-1.16,1.48-2.39,3.11-3.66,4.79-2.38,3.16-6.62,8.8-9.86,11.79,2-4.11,7-12,19.08-26.67a5.34,5.34,0,0,0-8.25-6.77c-20.5,25-23.87,33.87-22.62,39.54a8,8,0,0,0,4.39,5.58,10,10,0,0,0,4.37,1c7.8,0,15-9.52,21.42-18.08,1.21-1.61,2.38-3.17,3.5-4.58,5.9-7.44,18.39-11.85,18.51-11.88a5.34,5.34,0,1,0-3.48-10.1Z" fill="#f9c04e"/><path d="M1259,1083.89c-6.77-.3-14.51-.64-15.16,5.34a6.14,6.14,0,0,0,.59,3.66l61.54-5.78c-15.57,1.26-31.49-2.54-47-3.22Z" fill="#bac5dd"/><path d="M1337.94,1069.52c-27.78,1.49-54.22-1.41-81.65.87-14.2,1.13-26.11,7.39-39.3,11.85-16.52,5.48-36.74,11.18-34.27,16.72,1.72,4.92,12.58,4.82,25.29,2.47,9.58-1.91,29.8-7.62,36-8.5l.36,0a6.14,6.14,0,0,1-.59-3.66c.65-6,8.39-5.64,15.16-5.34,15.48.68,31.4,4.48,47,3.22l-61.54,5.78c2.69,5.45,13.38,8,22.65,10.16,11.3,3,44.53,19,61,14.5,16.88-4.69,64.52,5.32,64.52,5.32,6.29-17.79,6.69-34.13,0-48.72,0,0-38.35-5.27-54.66-4.63Z" fill="#ffeab8"/><path d="M1393.7,1117.65c-5-1.06-49.42-10.14-67-5.25-10.67,2.91-32.56-5.26-45.64-10.14-5.09-1.9-9.49-3.54-12.81-4.42-5.35-1.26-19.56-4.61-19.19-8,1.22-1,7-.76,9.73-.64,5.68.25,11.36.93,17.38,1.64,9.87,1.18,20.06,2.4,30.25,1.57a5.33,5.33,0,1,0-.86-10.63c-9.13.73-18.78-.42-28.13-1.54-5.94-.71-12.1-1.44-18.19-1.7-7.28-.32-19.5-.85-20.67,9.94-1.8,12.89,15,16.84,27.15,19.71,2.6.69,6.77,2.25,11.6,4,16.13,6,38.21,14.27,52.22,10.43,12.81-3.57,49.09,2.69,62,5.4a5.15,5.15,0,0,0,1.1.12,5.34,5.34,0,0,0,1.09-10.56Z" fill="#f9c04e"/><path d="M1393.33,1068.87c-1.59-.22-39-5.39-55.67-4.68-12.57.67-25.13.44-37.27.19-14.47-.27-29.44-.57-44.52.7-11.06.87-20.75,4.61-30.11,8.22-3.41,1.32-7,2.69-10.45,3.87-2,.65-4,1.31-6,2-18.26,5.93-28.73,9.58-31.45,15.71a7.63,7.63,0,0,0-.12,6.07c1.85,5,7,7.43,15.88,7.43a87.28,87.28,0,0,0,15.42-1.67c4.58-.92,11.42-2.64,18-4.32,7.22-1.81,14.67-3.7,17.74-4.14a5.34,5.34,0,0,0-1.51-10.57c-3.62.52-11,2.39-18.84,4.37-6.48,1.63-13.18,3.32-17.42,4.17-8.54,1.58-13.77,1.65-16.68,1.31,5.17-2.66,15.5-6,22.26-8.2l6.09-2c3.74-1.26,7.38-2.67,10.9-4,9-3.49,17.59-6.8,27.12-7.55,14.56-1.21,28.6-.94,43.45-.65,12.34.23,25.09.48,38-.21,15.63-.64,53.35,4.54,53.73,4.59a5.33,5.33,0,1,0,1.45-10.57Z" fill="#f9c04e"/><path d="M1571.17,1108.69a5.34,5.34,0,0,0-5.25,5.42L1577.71,1830h10.68l-11.79-716.06a5.37,5.37,0,0,0-5.43-5.25Z" fill="#f9c04e"/><path d="M1368.5,1053.5s-13.41,32.06,1.5,73.68l21.45,5.36,234.12,33.29-14.92-124.74c-31.6-.13-242.15,12.41-242.15,12.41Z" fill="#ffeab8"/><path d="M1361.35,1165.71c-21.63-4.15-58.74-21.28-67.43-25.18-15.1-7.4-45.58-26.11-53.45-26.13-10.66.16-29.46,12.67-46.36,28.43,0,0-7.09,6-20.9,17.61-13.85,11.06-15.42,26.42-11.57,33.46s13.56,1.32,25.48-5.11,19.22-14.78,31-15.58,51,7.2,51,14.5c0,7.87-31.37,9.44-43.73,17.58s-18.06,15.27-26,22-13.78,12.17-10.08,17,10.85,2.64,21.73-2.6c11.4-5.82,12.69-11.53,33.56-18.57a84.21,84.21,0,0,1,33.5-2.84c15.88,2.29,46.08,8.66,58.54,10.06,21.47,1.91,53-5.29,82.51-9l-4.11-60.38s-31.37,9.44-53.59,4.77Z" fill="#ffeab8"/><path d="M1418.38,1216c-8.86,1.11-17.94,2.54-26.72,3.92-20.68,3.25-40.24,6.33-54.53,5.06-6.55-.74-18.65-3-30.36-5.16-10.14-1.87-20.62-3.82-28.13-4.9a89.22,89.22,0,0,0-35.85,3.09c-14.19,4.78-20.1,9.18-25.31,13a59.4,59.4,0,0,1-8.85,5.76c-8.9,4.29-14,5.68-15.22,4.29.22-2.09,7.07-7.87,9.32-9.77,2.72-2.29,5.2-4.64,7.6-6.92a120.9,120.9,0,0,1,17.92-14.69c4.74-3.12,13.75-5.38,21.7-7.38,13.64-3.42,24.41-6.12,24.44-14.61a8.56,8.56,0,0,0-3-6.36c-8.91-8.4-43.37-14.22-53.67-13.52-9.38.64-16.07,5.17-23.15,10a115.32,115.32,0,0,1-10,6.26l-1.69.91c-5.35,2.9-14.31,7.72-16.3,6.72a1.17,1.17,0,0,0-.21-.12c.08-3.55,12.7-13.44,19.48-18.75,1.73-1.36,3.48-2.72,5.29-4.17,13.55-11.39,20-16.15,29.63-17.28,10.61-1.27,34.52,4.72,50.35,8.68a5.34,5.34,0,0,0,2.59-10.36c-22.79-5.69-42.59-10.28-54.19-8.93-13.07,1.55-21.91,8.5-35.14,19.63l-5.11,4c-15,11.72-27.89,21.85-22.34,32,6.22,11.37,19.4,4.23,31-2.06l1.68-.91c4.09-2.21,7.7-4.65,10.89-6.8,6.36-4.31,11.39-7.72,17.89-8.16,10.11-.69,35.41,4.91,43.52,9.18-3.46,1.51-10,3.14-14.61,4.31-9.2,2.31-18.72,4.69-25,8.81a132.67,132.67,0,0,0-19.4,15.86c-2.39,2.28-4.66,4.42-7.13,6.51-7.57,6.38-17.93,15.12-10.87,24.31a12,12,0,0,0,10,4.77c6.16,0,13.06-3.33,18.36-5.88a69.27,69.27,0,0,0,10.48-6.75c5-3.74,9.77-7.27,22.22-11.47a78,78,0,0,1,31.17-2.65c7.18,1,17.55,3,27.59,4.81,12.43,2.31,24.18,4.49,31.24,5.28,15.73,1.39,35.9-1.78,57.25-5.13,8.7-1.37,17.7-2.78,26.39-3.87a5.34,5.34,0,0,0-1.33-10.6Z" fill="#f9c04e"/><path d="M1277.3,1135.46c-1-.25-24.45-6.32-37.41-8.23-12.54-2.37-26.41-3-42.8,8-14.22,9.55-20.3,15.79-28.91,25-12.88,12.91-11.63,21.73-8.32,26.85a5.34,5.34,0,0,0,4.49,2.43,5.28,5.28,0,0,0,2.89-.85,5.34,5.34,0,0,0,1.58-7.39c-1.59-2.46,1.06-7.63,7-13.63,8.47-9.09,13.9-14.67,27.18-23.59,12.5-8.39,22.61-8.64,35.08-6.28,12.61,1.85,36.26,8,36.5,8a5.34,5.34,0,1,0,2.68-10.34Z" fill="#f9c04e"/><path d="M1413.41,1155.83c-.3.09-30.36,9-51.06,4.64-19.68-3.78-53.28-19-64.32-23.94l-1.76-.79c-4.63-2.27-10.82-5.67-17.38-9.28-19.69-10.81-32.1-17.38-38.5-17.4-16.87.26-42.48,22.92-49.92,29.86a5.34,5.34,0,1,0,7.28,7.81c16.91-15.77,34.52-26.87,42.7-27,4.17.09,22.4,10.11,33.3,16.09,6.67,3.66,13,7.13,18,9.58l1.89.85c11.33,5.12,45.8,20.69,66.62,24.68a74.06,74.06,0,0,0,15.11,1.41c19.91,0,40.06-6,41.12-6.28a5.34,5.34,0,0,0-3.07-10.23Z" fill="#f9c04e"/><path d="M1276.5,1368.67c-5,0-9,5.54-9,12.37s4,12.38,9,12.38,9-5.54,9-12.38-4-12.37-9-12.37Z" fill="#e9f0f4"/><path d="M1669.29,762.09a5.33,5.33,0,0,0-6.83,3.21c-2,5.47-48.22,134.9-51.45,220.48a5.34,5.34,0,0,0,5.13,5.54h.21a5.33,5.33,0,0,0,5.33-5.13c3.17-83.92,50.35-216,50.82-217.27a5.34,5.34,0,0,0-3.21-6.83Z" fill="#f9c04e"/><path d="M1386.73,1153.71s-25.62,42.7-7.52,93.21c0,0,168,8.88,252.22,1.7l10.62-109.5-20.56-.69c-88.77,10.77-234.76,15.28-234.76,15.28Z" fill="#ffeab8"/><path d="M1631,1243.3c-76.08,6.49-223-.3-247.88-1.53-12.61-39.32,2.2-73.52,6.88-82.83,21.6-.72,151.29-5.4,232.16-15.21a5.34,5.34,0,0,0-1.29-10.6c-87.51,10.62-232.83,15.2-234.28,15.25a5.32,5.32,0,0,0-4.42,2.58c-1.1,1.84-26.7,45.48-8,97.76a5.32,5.32,0,0,0,4.74,3.53c1.2.07,86.16,4.49,165.25,4.49,32.23,0,63.49-.74,87.7-2.8a5.34,5.34,0,0,0-.9-10.64Z" fill="#f9c04e"/><path d="M1504.67,1050c-31.2-.12-135-1.85-136.08-1.87a5.41,5.41,0,0,0-5,3.28c-.58,1.38-14,34.47,1.39,77.54a5.31,5.31,0,0,0,4.07,3.45l119.59,21.91a5.34,5.34,0,1,0,1.92-10.5L1374,1122.5c-9.94-30.23-4.37-54.92-1.74-63.6,19.25.31,104.53,1.7,132.34,1.8h0a5.34,5.34,0,0,0,0-10.67Z" fill="#f9c04e"/><path d="M1789.47,650c-7.93-6.42-17-7-25.45-1.56a5.34,5.34,0,1,0,5.75,9c4.54-2.89,8.67-2.62,13,.87,9.32,7.53,14,25.37,11.63,31.84-3.29,7.58-53.5,48-102.44,84.5-6.78-30.33-11.79-29.41-15.54-28.73-10.46,1.9-13.22,27.77-13.24,28a5.34,5.34,0,1,0,10.65.71,59.9,59.9,0,0,1,3.26-13.91,221.32,221.32,0,0,1,6.13,24.19,5.35,5.35,0,0,0,8.41,3.26c25.16-18.65,107.64-80.56,112.77-94.29,4.52-12.12-3-34.28-14.92-43.9Z" fill="#f9c04e"/><path d="M1783.54,659.92a5.34,5.34,0,0,0-7.49,1c-1.2,1.56-2.43,3.11-3.76,4.67-31.31,37.05-77.19,63.88-86.06,68.88-5.69,3.17-12,11.93-13.23,13.65a5.34,5.34,0,0,0,8.73,6.15c2.44-3.47,7.06-9,9.72-10.49,9.16-5.17,56.5-32.85,89-71.29,1.43-1.68,2.76-3.35,4.06-5a5.32,5.32,0,0,0-1-7.48Z" fill="#f9c04e"/><path d="M1586,779a5.33,5.33,0,0,0-7.07,2.65c-.07.15-7,15.49-13.05,31.82-7.45,20.12-10.61,131.07-10.64,132.19a5.32,5.32,0,0,0,5.18,5.48h.15a5.34,5.34,0,0,0,5.33-5.19c1.19-42.56,4.95-115.16,10-128.78,5.91-16,12.7-31,12.76-31.12A5.33,5.33,0,0,0,1586,779Z" fill="#f9c04e"/><path d="M1668.42,717.84a5.34,5.34,0,0,0-7.11,2.54c-.8,1.7-7.88,16.81-9,23.83-1,6.75-.29,29.68-.2,32.27a5.34,5.34,0,0,0,5.33,5.15h.19a5.35,5.35,0,0,0,5.15-5.52c-.34-9.77-.6-25.89.08-30.26.65-4.14,5.3-15,8.08-20.9a5.34,5.34,0,0,0-2.54-7.11Z" fill="#f9c04e"/><path d="M1575.51,759.65c-2.54,2.13-15.22,13.34-15.22,24.23,0,9.49,4.21,26.83,4.39,27.56a5.34,5.34,0,0,0,5.19,4.07,5,5,0,0,0,1.26-.15,5.33,5.33,0,0,0,3.92-6.45c-1.13-4.65-4.08-18.22-4.08-25,0-4.39,6.81-12.18,11.41-16.06a5.34,5.34,0,0,0-6.87-8.17Z" fill="#f9c04e"/><path d="M1585.74,446c-38.17-10.67-83.84-4.9-80.83,12.29l12.54-3.28c.29-.06,30.06-5.82,65.2,4.13,46.7,13.24,80.49,46.7,100.44,99.43a6.73,6.73,0,0,0,6.74,4.35,6.74,6.74,0,0,0,5.88-9.12c-26.94-71.24-74.67-97.94-110-107.8Z" fill="#ffeab8"/><path d="M1689.87,611.06a5.34,5.34,0,0,0-7.26,2.09c-22.81,41.35-48.7,59.58-49,59.76a5.34,5.34,0,0,0,6.06,8.79c1.13-.78,28.13-19.66,52.25-63.39a5.33,5.33,0,0,0-2.09-7.25Z" fill="#f9c04e"/><path d="M1621.23,680.94c-5.94,4.15-7.33,9.06-5,12.33s7.37,3.65,13.31-.51,10.48-11.28,8.2-14.54-10.53-1.44-16.47,2.72Z" fill="#ffeab8"/><path d="M1634.11,682h0Zm-7.67,6.44c-2.66,1.86-4.39,2.06-5,2.07-.34-.05-.75-.08-.87-.25-.31-.44.35-2.54,3.73-4.9a19.89,19.89,0,0,1,8.09-3.37,20,20,0,0,1-5.94,6.45Zm15.63-13.23c-4.5-6.44-15.69-4.34-23.9,1.4-9.31,6.52-9.82,14.82-6.36,19.76a11.49,11.49,0,0,0,9.6,4.81h.1a19.93,19.93,0,0,0,11-4c8.21-5.74,14-15.53,9.52-22Z" fill="#f9c04e"/><path d="M1689.9,557.51a1.6,1.6,0,0,1-.41.09,1.41,1.41,0,0,1-1.41-.91c-20.58-54.41-55.56-89-104-102.68a163.91,163.91,0,0,0-44.35-6,149.61,149.61,0,0,0-19.29,1.18c14.13-4.46,39.72-4.77,63.84,2,34.12,9.53,80.27,35.4,106.42,104.55a1.43,1.43,0,0,1-.82,1.82ZM1587.17,440.85c-32.52-9.09-69.52-7-82.46,4.76-4.14,3.75-5.94,8.58-5.06,13.6a5.33,5.33,0,1,0,10.51-1.84c-.17-1-.09-2.21,1.72-3.85.2-.18.41-.36.63-.53a5.26,5.26,0,0,0-.29,3.08,5.35,5.35,0,0,0,6.27,4.17c.29-.05,29-5.5,62.7,4,45,12.75,77.59,45.11,96.9,96.19a12,12,0,0,0,11.29,7.81l.81,0a11.92,11.92,0,0,0,3.48-.76,12.1,12.1,0,0,0,7-15.58c-27.73-73.32-77-100.86-113.53-111.06Z" fill="#f9c04e"/><path d="M1692.56,543.37c-16.83,3.09-27.22,23.33-23.21,45.21s20.91,37.12,37.74,34,27.22-23.33,23.2-45.21-20.9-37.12-37.73-34Z" fill="#ffeab8"/><path d="M1695.41,546.51c-12.84,3.89-18.71,22-13.12,40.5s20.55,30.3,33.39,26.42,18.71-22,13.11-40.5-20.54-30.31-33.38-26.42Z" fill="#ffeab8"/><path d="M1706.13,617.37c-13.94,2.54-28.05-10.8-31.53-29.75s5-36.45,18.92-39a19.46,19.46,0,0,1,3.4-.31c5.41,0,10.89,2.31,15.74,6.68,6.26,5.64,10.66,14,12.38,23.38,3.48,19-5,36.45-18.91,39Zm13.68-70.31c-8.39-7.56-18.41-10.74-28.21-8.94-19.7,3.62-32,26.68-27.5,51.42,4.13,22.53,20.86,38.81,38.68,38.81a28.56,28.56,0,0,0,5.27-.49c19.7-3.61,32-26.67,27.49-51.41-2.15-11.74-7.74-22.18-15.73-29.39Z" fill="#f9c04e"/><path d="M1724.07,597c-1.92,5.94-5.45,10-9.94,11.32-9.84,3-22.07-7.49-26.73-22.86-2.39-7.9-2.53-15.91-.38-22.53,1.92-5.93,5.45-9.95,9.94-11.31a12,12,0,0,1,3.47-.51c9.07,0,19.14,9.76,23.25,23.36,2.4,7.91,2.54,15.91.39,22.53Zm-30.21-55.6c-7.93,2.4-14,8.88-17,18.25-2.81,8.67-2.69,18.94.33,28.91,5.64,18.62,19.46,31,33.34,31a22.66,22.66,0,0,0,6.69-1c7.94-2.4,14-8.88,17-18.24,2.8-8.67,2.69-18.94-.33-28.91-6.55-21.62-24.12-34.79-40-30Z" fill="#f9c04e"/><path d="M1274.61,1393.08c-7.92-4-6.63-13.6-6.56-14.09a5.34,5.34,0,0,0-10.54-1.68c-.12.72-2.7,17.77,12.31,25.31a5.28,5.28,0,0,0,2.39.57,5.34,5.34,0,0,0,2.4-10.11Z" fill="#571519"/><path d="M1647.66,717.64c-.33.39-33.32,39.44-62.82,55.69a5.34,5.34,0,0,0,5.16,9.35c31.25-17.22,64.44-56.52,65.83-58.18a5.33,5.33,0,0,0-8.17-6.86Z" fill="#f9c04e"/><path d="M924.22,1263.2,317.56,996.52s-38.79,0-35.14,13.78l136.22,623.29a10,10,0,0,0,8.74,7.79c71.74,7,638.07,51.15,707.52,56.56a9.32,9.32,0,0,0,9.49-6c18.59-48.16,134.06-347.41,138.68-361.4,5.48-16.56,0-22.54,0-22.54L924.22,1263.2Z" fill="#cecece"/><path d="M832.76,932.84l-525.69,64.8a9.48,9.48,0,0,0-8.24,11.49l136.46,612.3L924.22,1263.2,843,939.92a9.46,9.46,0,0,0-10.19-7.08Z" fill="#fff"/><path d="M1203.87,1400.57l-95.51-9.78a3.08,3.08,0,0,0-2.83,1.31l-89.15,130.26a3.05,3.05,0,0,0,2.3,4.77l121.7,8.52a3.06,3.06,0,0,0,3-1.71l63-129a3,3,0,0,0-2.43-4.37Z" fill="#a3a3a3"/><path d="M1116,1312.24l-190.57-22.92a3,3,0,0,0-2.25.63L536.48,1594.33a3,3,0,0,0,1.67,5.43L901.45,1626a3.07,3.07,0,0,0,2.73-1.31l214-307.66a3,3,0,0,0-2.14-4.76Z" fill="#a3a3a3"/><path d="M917.75,1261.32l-479,351L304,1008a4.14,4.14,0,0,1,3.6-5h.09l525.59-64.8.44,0a4.16,4.16,0,0,1,4,3.1L918,1260.52a.77.77,0,0,1-.29.8ZM307.1,997.64h0Zm541-59a14.91,14.91,0,0,0-16-11.06l-525.64,64.8a14.81,14.81,0,0,0-12.84,17.95l136.46,612.3a5.34,5.34,0,0,0,8.36,3.14l485.62-355.8a11.38,11.38,0,0,0,4.33-12L848.12,938.6Z" fill="#571519"/><path d="M1283.74,1302.72l-358.86-44.81a5.34,5.34,0,1,0-1.32,10.59l351.9,44-148.19,357a4.16,4.16,0,0,1-4.17,2.54l-687.38-55.91a5.34,5.34,0,1,0-.86,10.64l687.38,55.91c.41,0,.81,0,1.22,0a14.79,14.79,0,0,0,13.67-9.14L1288,1310.06a5.35,5.35,0,0,0-4.27-7.34Z" fill="#571519"/><path d="M1283.08,1308l-4.13,3.38s3.26,4.76-.94,17.48c-4.67,14.12-124.91,325.68-138.6,361.16a4,4,0,0,1-4.09,2.57c-64.81-5-635.2-49.48-707.42-56.55a4.58,4.58,0,0,1-4-3.61L287.58,1008.93c-.14-.5-.06-.6.13-.84,2.85-3.72,17.74-6.22,29.85-6.23a5.34,5.34,0,0,0,0-10.68c-5.06,0-30.7.51-38.31,10.39a11.15,11.15,0,0,0-2.05,9.87l136.23,623.29a15.24,15.24,0,0,0,13.43,12c72.32,7.07,642.81,51.52,707.62,56.56.4,0,.8,0,1.19,0a14.61,14.61,0,0,0,13.7-9.42c22.36-57.92,134.12-347.59,138.77-361.65,6.15-18.58.14-26.43-1.12-27.82l-3.94,3.61Z" fill="#571519"/><path d="M2095.26,650.4l-170.6,49L1869,748.86s-86.45,20.76-108.92,50.32c-16.3,21.44-86.11,256.58-86.11,256.58l169.14,158.52,314.57,233.07V750.41l-26.18-55.75-36.23-44.26Z" fill="#fff"/><path d="M2200.75,619.11a296.22,296.22,0,0,1-21.8-81.47s10.4-17.42,16.44-47.7c5-31.11,6.49-76.13-2.23-110.43-12.68-52-29.74-100.59-66.36-145s-95-12.9-95-12.9-24.62-6.7-41.94-16.15c-15.32-8.73-92.69-9.35-131.26,3.69-51.33,18.32-61,25.17-76.5,31.72-25.51,10.58-44.52,19.45-63.87,50.31-13.62,22.56-28.43,59.58-34.52,81.28-2,15.5-.36,38.21,6.09,52.74,15.75,37.31,60.37,68.42,60.37,68.42l315,41.92s7.82,67.81,24.41,104.07,41,41.08,41,41.08a39.69,39.69,0,0,1,7.53,23.94c-1.19,14.45-9.6,32.6-9.6,32.6l23.18,10.68L2168.74,733l9.87,25.18,27.55,24.42s12-37.57,8.09-62.89c-2.93-25.43-19.8-55.92-19.8-55.92s17.2,8.51,30.6,8.87,21.84-9.2,21.84-9.2-34.3-16.08-46.14-44.3Z" fill="#e7b890" fill-rule="evenodd"/><path d="M939.4,1388.07c5.78,11.14,42.55-15,56.53-25.23s38.34-24.38,58.69-29.43l-63.31-.8c-31.23,27.66-57.69,44.32-51.91,55.46Z" fill="#ffe4ce"/><path d="M978.5,1414.19c10.64,5.75,25.72-14.7,36.91-29.39,11.51-14,18.46-22,37.07-32.68,6.43-3.67,28.19-11,28.19-11l-52.94-17.06c-12,18.27-60.16,83.69-49.23,90.1Z" fill="#ffe4ce"/><path d="M1034.16,1408.72c11.31,5.44,26.91-19.28,38.78-34.26s35.66-23.18,35.66-23.18l-40.34-5.39c-18.82,22.92-45.41,57.38-34.1,62.83Z" fill="#ffe4ce"/><path d="M944.14,1385.61h0Zm109.19-57.38c-20.15,5-44.94,18.82-60.56,30.3-37.39,27.48-47.31,27.11-48.73,26.85-1.73-4.75,14.39-18.12,28.64-29.94,6.71-5.56,14.32-11.88,22.18-18.83a5.34,5.34,0,0,0-7.08-8c-7.72,6.84-15.26,13.09-21.92,18.6-22.59,18.74-37.52,31.12-31.2,43.3a10.11,10.11,0,0,0,6.89,5.25,14.25,14.25,0,0,0,3.25.36c7.2,0,21.24-4.7,54.29-29,14.77-10.86,38.07-23.9,56.81-28.55a5.34,5.34,0,1,0-2.57-10.36Z" fill="#571519"/><path d="M981.4,1409.83h0Zm97.57-73.74c-2.27.77-22.45,7.57-29.16,11.41-19.32,11.13-26.86,19.71-38.64,34.07l-1.09,1.43c-7.33,9.63-22.56,29.63-28.74,26.66-1.7-5.64,14.93-29.29,22.08-39.46,3-4.29,5.87-8.35,8.18-11.86a5.34,5.34,0,0,0-8.92-5.86c-2.22,3.37-5,7.36-8,11.58-15.28,21.73-25.93,37.89-23.75,47.94a10.24,10.24,0,0,0,5,6.89,13.49,13.49,0,0,0,6.48,1.67c12.45,0,25.4-17,36.13-31.09l1-1.28c11.5-14,17.81-21.19,35.59-31.43,4.89-2.8,21.32-8.56,27.24-10.55a5.34,5.34,0,1,0-3.4-10.12Z" fill="#571519"/><path d="M1036.84,1404.34h0Zm70-58.1c-1,.35-25.4,8.88-38.09,24.91-2,2.48-4,5.23-6.18,8.06-7.07,9.39-20.11,26.73-25.82,24.81-.44-2.59,1.65-13.37,35.62-54.75a5.34,5.34,0,0,0-8.25-6.77c-29,35.37-40,53.94-37.72,64.1a9.88,9.88,0,0,0,5.44,6.93,13,13,0,0,0,5.7,1.33c11.56,0,23.15-15.4,33.56-29.23,2.08-2.76,4.1-5.43,6-7.85,10.74-13.55,33-21.37,33.22-21.45a5.34,5.34,0,1,0-3.49-10.09Z" fill="#571519"/><path d="M1187.88,1290.54c-47.29,2.54-92.27-2.4-139,1.49-24.16,1.91-44.42,12.57-66.86,20.16-28.12,9.32-62.52,19-58.32,28.45,2.93,8.37,21.42,8.2,43,4.2,16.31-3.25,50.71-13,61.34-14.46l.62-.07a10.54,10.54,0,0,1-1-6.22c1.11-10.18,14.28-9.6,25.8-9.1,26.34,1.16,53.44,7.62,79.92,5.49l-104.71,9.83c4.57,9.27,22.77,13.57,38.53,17.28,19.24,5.14,75.78,32.36,103.83,24.68,28.71-8,109.78,9,109.78,9,10.7-30.27,11.39-58.08,0-82.9,0,0-65.25-9-93-7.88Z" fill="#ffe4ce"/><path d="M1053.53,1315c-11.52-.5-24.69-1.08-25.8,9.1a10.54,10.54,0,0,0,1,6.22l104.71-9.83c-26.48,2.13-53.58-4.33-79.92-5.49Z" fill="#ffe4ce"/><path d="M1282,1376.1c-3.36-.7-82.69-17.2-112.29-9-19.32,5.28-55.83-8.34-80-17.36-8.57-3.2-16-6-21.32-7.39-15.45-3.63-36.62-8.62-35.35-17.7.47-4.41,7.2-4.92,20.26-4.34,9.8.43,20,1.64,29.85,2.81,16.6,2,33.78,4,50.73,2.66a5.34,5.34,0,0,0-.86-10.64c-15.9,1.27-32.53-.7-48.61-2.62-10.05-1.19-20.45-2.43-30.64-2.88-11.83-.53-29.7-1.3-31.32,13.69-2.6,18.56,23,24.58,43.45,29.4,4.59,1.23,11.77,3.9,20.07,7,27,10.07,63.88,23.86,86.55,17.65,27.15-7.53,106.47,9,107.27,9.14a5.2,5.2,0,0,0,1.1.11,5.34,5.34,0,0,0,1.09-10.56Z" fill="#571519"/><path d="M1281.61,1293.14c-2.68-.37-66-9.1-94-7.93-21.52,1.15-43,.74-63.69.34-24.53-.47-49.9-1-75.39,1.16-18.28,1.44-34.5,7.71-50.17,13.77-5.85,2.26-11.9,4.6-18,6.64-3.34,1.11-6.76,2.22-10.2,3.34-29.2,9.47-47.29,15.73-51.28,24.69a9.21,9.21,0,0,0-.12,7.45c2.51,6.85,10.29,10.25,23.61,10.25a143.68,143.68,0,0,0,25.42-2.78c7.71-1.53,19.31-4.46,30.52-7.3,12.35-3.11,25.12-6.34,30.53-7.11a5.34,5.34,0,0,0-1.51-10.57c-6,.85-18.44,4-31.64,7.34-11.08,2.8-22.53,5.7-29.91,7.16-27.33,5.05-35.74,1.53-36.92-.5,3.42-5.12,29.09-13.45,44.59-18.48,3.46-1.12,6.91-2.24,10.3-3.37,6.29-2.13,12.45-4.5,18.4-6.8,15.66-6.06,30.45-11.77,47.19-13.09,25-2.08,50.07-1.59,74.32-1.13,20.93.41,42.56.83,64.4-.35,27-1.09,91.42,7.76,92.07,7.84a5.33,5.33,0,0,0,1.45-10.57Z" fill="#571519"/><path d="M2131.63,675.2c-25.68-.69-46.71-50.31-59.21-139.71a5.34,5.34,0,1,0-10.58,1.48c13.7,97.93,37.08,148,69.51,148.9h.15a5.34,5.34,0,0,0,.13-10.67Z" fill="#571519"/><path d="M1653.63,1667.74c-16,46.64-16.06,81.22-28.19,162.26h607.93c-18.85-81.36-45-152.62-45-152.62l-534.74-9.64Z" fill="#77a6c6"/><path d="M1659,1114l-32.88,142.83c-54.52,20.56-87.28,9.28-128.31,13.21-88.34,8.47-220.71,14.26-220.71,14.26,17.18,40.23,23.88,68.36-4.74,106.76,0,0,92.08,17.47,171.85,19.37,134.33,3.18,232,23.63,259.48-43.85L1682.08,1093,1659,1114Z" fill="#fff"/><path d="M1705.7,1361.65a5.33,5.33,0,0,0-7,2.93c-21,51.53-89.3,48.13-183.9,43.4-22.45-1.12-45.67-2.28-70.51-2.87-64.45-1.53-137.91-8.92-162.77-11.6,21.41-35.22,17-78.74,2.92-102.64,32.54-1.9,140-8.42,213.83-15.5,11.23-1.08,24-1.41,37.41-1.77,36.37-1,77.59-2.09,117.79-17.25a5.34,5.34,0,1,0-3.76-10c-38.52,14.53-78.79,15.61-114.31,16.56-13.66.37-26.55.71-38.15,1.83-87.23,8.36-221.73,16-223.08,16a5.34,5.34,0,0,0-3.68,8.89c17.21,19.28,24.55,68.56-2.6,105a5.34,5.34,0,0,0,3.66,8.49c.93.11,93.39,10.75,172.48,12.63,24.71.59,47.85,1.74,70.24,2.86,26.09,1.3,50.26,2.51,72.17,2.51,61.18,0,104.6-9.43,122.15-52.55a5.34,5.34,0,0,0-2.94-6.95Z" fill="#571519"/><path d="M2188.37,1310.18l-514.16-235.41c-16.74,119.9,9.4,131.18,19.08,250.59s-49.73,299.6-49.73,299.6c-17.42,31.6,20.6,50.71,79.33,66.65,81.21,22,240.15,17.36,384,4.67,69.51-6.14,119.31-28,100.29-71.32-39-88.78-18.76-314.78-18.76-314.78Z" fill="#fff"/><path d="M1765.62,920.64a5.32,5.32,0,0,0-7,2.91c-.16.37-15.4,37.4-26.52,61.21s-41,78.4-41.34,79a5.34,5.34,0,0,0,9.36,5.13c1.23-2.25,30.42-55.47,41.66-79.56s26.56-61.3,26.71-61.67a5.34,5.34,0,0,0-2.91-7Z" fill="#571519"/><path d="M1909.24,803.29a5.38,5.38,0,0,0-6.64,3.57c-1.35,4.38-19,28.84-36.15,52.49-38.73,53.55-91.76,126.88-105,164.9-2.9,8.35-6,16.11-9,23.61-17.56,44.08-35.71,89.66-28.83,282.89,5.21,146.44-7.87,300-8,301.51a5.34,5.34,0,0,0,4.85,5.78l.47,0a5.34,5.34,0,0,0,5.31-4.88c.13-1.54,13.27-155.71,8-302.81-6.79-191,10.94-235.51,28.09-278.56,3-7.61,6.16-15.48,9.14-24.06,12.69-36.53,67.36-112.12,103.53-162.14,24.31-33.62,36.07-50,37.74-55.75a5.3,5.3,0,0,0-3.6-6.57Z" fill="#571519"/><path d="M2088.87,476.46c-1-8.47-7.13-28.75-31.51-25-11.2,2.24-26.66,8.8-26.66,8.8s-27.82,7-49.15-12.46c-22.39-20.32-24.34-37.27-58.61-44.77-34.37-8.45-60.2-25.5-81.1-41.23-10.5-8.33-40.17-17.31-73,3.66-8,4.74-14.31,33.14-19.71,44.26-6.74,16-12.46,24.34-13,28.22-1,16.33,6,35.57,13.29,73.85,2.35,12.14.11,50.56,23.43,95.59s47.81,67,69.87,84.51c24,18.22,52.88,3.44,52.88,3.44l12.24,48.21,4.55,13.18-3.91,47.79L1955,767.11l126.72-91.56c-22.71-48-29.95-131.82-29.95-131.82s46.3-20.61,37.1-67.27Z" fill="#ffe4ce" fill-rule="evenodd"/><path d="M2022.35,586.47a5.33,5.33,0,0,0-7.12,2.51c-.17.34-16.78,34.58-44.23,56.84-50,39.91-88.22,49-101.46,48.17-15.89-.66-42-20.07-64.84-48.29-19.1-23.77-33.48-54.14-39.2-73.53-3.4-13-4.75-23.17-6.46-36.1-.79-6-1.68-12.7-2.87-20.43-2-13.84-5-26.21-7.84-38.17-3.89-16.21-7.57-31.52-7.75-47.12a5.27,5.27,0,0,0-5.4-5.27,5.34,5.34,0,0,0-5.28,5.39c.2,16.8,4,32.68,8,49.5,2.81,11.72,5.72,23.84,7.66,37.25,1.18,7.66,2.07,14.35,2.85,20.25,1.75,13.3,3.14,23.79,6.76,37.57,6.07,20.55,21.15,52.44,41.17,77.37,25.49,31.42,53.35,51.44,72.61,52.24.67,0,1.39.07,2.15.07,17,0,56.3-10.49,106.54-50.58,29.39-23.84,46.45-59.07,47.16-60.55a5.34,5.34,0,0,0-2.5-7.12Z" fill="#571519"/><path d="M1902.57,693.54a5.34,5.34,0,0,0-9.93,3.93c9.16,23.07,18.68,64.38,18.78,64.79a5.33,5.33,0,0,0,5.19,4.15,5.46,5.46,0,0,0,1.2-.14,5.34,5.34,0,0,0,4-6.4c-.39-1.72-9.79-42.5-19.25-66.33Z" fill="#571519"/><path d="M1843.23,551.53c-4.68-1.72-17-8-18-16-.24-2.12.75-3.64,3.45-7.14,3.79-4.94,9-11.7,8.14-24.72-.94-8.16-6-20.47-10.38-29.28a5.34,5.34,0,0,0-9.55,4.78c4.95,9.89,8.7,20.22,9.3,25.45.57,8.75-2.61,12.88-6,17.25-3,3.87-6.36,8.26-5.59,14.89,1.84,16,22.56,24,24.91,24.83a5.33,5.33,0,0,0,3.66-10Z" fill="#571519"/><path d="M1861.29,589c-25.53,2.16-43,8.11-43,8.11s14.69,42.1,47.74,39c30.23-2.73,38-48.54,38-48.54s-21-.3-42.8,1.4Z" fill="#fff" fill-rule="evenodd"/><path d="M1786.65,476c-6.49,1.71-10.22,10.73-9,21.08s8.76,18.08,15.25,16.38,10.21-10.72,9-21.08-8.65-17.14-15.24-16.38Z" fill="#571519" fill-rule="evenodd"/><path d="M1795.92,423.34c-29.52-10.24-47.83,6.37-48.59,7.08a5.34,5.34,0,0,0,7.25,7.83c.58-.53,14.59-12.89,37.85-4.82a5.34,5.34,0,1,0,3.49-10.09Z" fill="#571519"/><path d="M1800.2,479c-18.15-5.29-32.09-3.52-42.62,5.4a5.34,5.34,0,1,0,6.9,8.14c4.84-4.09,13.49-8.9,32.72-3.29a5.34,5.34,0,0,0,3-10.25Z" fill="#571519"/><path d="M1902.59,463.6c-7.53.87-12.32,9-12.06,19.52,1.19,10.36,7.82,18.18,14.42,17.42,7.53-.87,13.25-9.16,12.06-19.52s-7.83-18.19-14.42-17.42Z" fill="#571519" fill-rule="evenodd"/><path d="M1925.44,411.35c-1.75-.68-43.17-16.35-66.19,3.15a5.34,5.34,0,0,0,6.9,8.15c18.18-15.41,55.08-1.48,55.45-1.34a5.34,5.34,0,0,0,3.84-10Z" fill="#571519"/><path d="M1922.23,467.59c-11.6-7.06-37.4-8.54-49.23,3.88a5.34,5.34,0,1,0,7.73,7.36c8.22-8.62,28.79-6.48,36-2.12a5.34,5.34,0,1,0,5.54-9.12Z" fill="#571519"/><path d="M2077.13,450.1c-12.82-7.79-29.79-5.81-46.57,5.41a5.33,5.33,0,1,0,5.93,8.87c13.18-8.81,26-10.7,35.1-5.15s13.43,17.41,11.82,32c-2.34,23.57-16.52,41.86-37.91,48.92a5.34,5.34,0,0,0,1.68,10.41,5.45,5.45,0,0,0,1.67-.27c25.52-8.43,42.41-30.11,45.18-57.95,2.07-18.76-4.25-34.55-16.9-42.23Z" fill="#571519"/><path d="M2062.21,480.05c-9.12,3.44-14.3,14.38-14.86,15.62a5.34,5.34,0,0,0,9.72,4.42c1-2.1,4.67-8.45,8.9-10a5.34,5.34,0,1,0-3.76-10Z" fill="#571519"/><path d="M1940.54,396.63c-8.51-1.31-17.32-2.66-25.74-4.43-37.76-7.93-64.15-26.58-78.42-55.43a5.34,5.34,0,0,0-9.57,4.74c15.8,31.93,44.67,52.5,85.8,61.14,8.71,1.82,17.66,3.2,26.31,4.53,22.5,3.46,43.75,6.73,51.5,16.64a5.34,5.34,0,1,0,8.41-6.57c-10.35-13.24-33.63-16.82-58.29-20.62Z" fill="#571519"/><path d="M2015.89,442.33h-.22c-23.41,1-31.16-.87-47.9-19.86a5.34,5.34,0,0,0-8,7.06c16.91,19.19,27.19,23.66,47.94,23.66,2.62,0,5.41-.07,8.4-.19a5.34,5.34,0,0,0-.21-10.67Z" fill="#571519"/><path d="M1793.24,323.61c-19.27,1.76-31.75,36.32-42.77,66.81-3.88,10.75-7.54,20.89-10.65,26.84-4.67,8.64-8.58,12.4-22.54,17.64a5.34,5.34,0,0,0,1.88,10.34,5.42,5.42,0,0,0,1.88-.34c15.55-5.85,21.87-10.91,28.2-22.63,3.48-6.65,7.09-16.65,11.27-28.22,8.44-23.36,21.2-58.67,33.7-59.81,4.6-.42,10.5,5,16.48,15.2a5.34,5.34,0,1,0,9.21-5.39c-8.54-14.61-17.23-21.3-26.66-20.44Z" fill="#571519"/><path d="M1803.47,238c-49.3-10-91.73,48.88-97.5,60.13-14.3,27.94-32.31,82.92-23.29,119.89,5.45,22.36,21.82,38,36.25,51.8,10.49,10,20.39,19.49,23.78,29.54a5.34,5.34,0,0,0,10.12-3.42c-4.24-12.53-15.06-22.88-26.52-33.83-14-13.42-28.55-27.29-33.26-46.61-8.32-34.15,8.85-86,22.43-112.5,4.37-8.55,43.16-63.19,85.86-54.54a5.34,5.34,0,0,0,2.13-10.46Z" fill="#571519"/><path d="M1816.94,222.34a5.34,5.34,0,1,0,5.34,9.24c79.08-45.67,178.56-36.94,236.49,20.72,52.68,53.69,44.21,147.42,20.95,211.36a5.35,5.35,0,0,0,3.2,6.85,5.5,5.5,0,0,0,1.82.32,5.35,5.35,0,0,0,5-3.52c24.31-66.86,32.79-165.25-23.41-222.53-61.34-61.05-166.23-70.48-249.41-22.44Z" fill="#571519"/><path d="M2124.91,223.62c-42-40-95.39-5.92-95.92-5.57a5.33,5.33,0,0,0,5.83,8.93c.47-.3,46.77-29.88,82.77,4.4,25.81,24.07,59.37,85.67,72,164,15.1,99.13-10.22,143.23-28.71,161.58a224.28,224.28,0,0,0,19-90.37,5.34,5.34,0,0,0-5.33-5.34h0a5.33,5.33,0,0,0-5.34,5.32c-.14,62.37-27.48,104-27.75,104.36a5.34,5.34,0,0,0,6.15,8c3.13-1.06,76.51-27.84,52.53-185.24-13.07-80.85-48.19-144.87-75.25-170.1Z" fill="#571519"/><path d="M2107.28,620.12a5.34,5.34,0,0,0-2.19,7.23c21.71,40.55,31.32,64.19,27.23,89-.48,3.64-1.05,6.37-1.67,9.35a5.3,5.3,0,0,0,4.14,6.27,5,5,0,0,0,1.08.11,5.41,5.41,0,0,0,5.25-4.29c.61-2.95,1.26-6,1.76-9.87,5-30.16-9.26-59.88-28.38-95.61a5.33,5.33,0,0,0-7.22-2.19Z" fill="#571519"/><path d="M2165.43,688.09a5.34,5.34,0,0,0-3.83,6.5c.1.38,9.67,38.07-1.78,59.38a5.34,5.34,0,1,0,9.4,5c13.41-24.95,3.16-65.39,2.72-67.1a5.34,5.34,0,0,0-6.51-3.83Z" fill="#571519"/><path d="M2201.8,665.28c-5.1-11.77-10.37-23.95-15.25-41.55a5.34,5.34,0,1,0-10.29,2.86c5.08,18.3,10.74,31.39,15.74,42.93,8,18.46,14.89,34.4,16.81,66,.33,3.13-2.58,21-4,29.51-1.1,6.75-1.73,10.64-1.87,12.37a5.33,5.33,0,0,0,4.87,5.76l.45,0a5.35,5.35,0,0,0,5.32-4.9c.11-1.39.92-6.31,1.77-11.52,3.1-18.94,4.49-28.63,4.08-32.18-2-33.21-9.26-50-17.64-69.34Z" fill="#571519"/><path d="M2252.67,655.55c-.21.06-21.92,6.14-40.1-26.53-21.86-38.68-24.18-88.7-24.2-89.2a5.33,5.33,0,1,0-10.66.43c.08,2.15,2.42,53,25.55,94,11.57,20.79,24.94,28.59,35.29,31.23a31.87,31.87,0,0,1-16.21,3.82c-9.12-.51-17.69-6-25.45-16.21a5.34,5.34,0,0,0-8.51,6.45c9.76,12.89,21,19.76,33.46,20.43.66,0,1.32,0,2,0,19.25,0,33.66-15,34.28-15.69a5.33,5.33,0,0,0-5.42-8.77Z" fill="#571519"/><path d="M2135.75,324.65a5.35,5.35,0,0,0-2.92,7c16.51,40.41,36.6,127.25-5.52,166.64a5.34,5.34,0,1,0,7.29,7.8c46.38-43.37,25.59-135.71,8.11-178.48a5.34,5.34,0,0,0-7-2.92Z" fill="#571519"/><path d="M2059,559.81a5.34,5.34,0,1,0-10.53,1.76c4.74,28.5,16.61,85.17,28.25,115.87a5.35,5.35,0,0,0,5,3.45,5.24,5.24,0,0,0,1.89-.36,5.33,5.33,0,0,0,3.1-6.88c-11.36-30-23-85.73-27.7-113.84Z" fill="#571519"/><path d="M1865.59,630.77c-21.91,2.07-35.07-19.95-40-30.29a211.58,211.58,0,0,1,36.12-6.21c14-1.09,27.78-1.34,35.65-1.39-3.2,11.74-12.17,36.12-31.78,37.89Zm38.58-48.56c-.21,0-21.55-.28-43.3,1.42h0c-25.88,2.19-43.49,8.12-44.22,8.38a5.33,5.33,0,0,0-3.31,6.8c.63,1.81,15.32,42.78,49.22,42.78,1.32,0,2.66-.06,4-.19,33.94-3.06,42.45-50.92,42.8-52.95a5.35,5.35,0,0,0-5.19-6.24Z" fill="#571519"/><path d="M2053.81,947.29h0a5.34,5.34,0,0,0-5.34,5.32c-.07,26-41.19,286.65-67.15,355.69a5.34,5.34,0,0,0,10,3.76c27.21-72.35,67.76-332.69,67.84-359.42a5.34,5.34,0,0,0-5.32-5.35Z" fill="#571519"/><path d="M2191.67,1341.65a5.34,5.34,0,0,0-10.63-1c-.75,8-17.92,197.43,21.21,286.46,4.87,11.09,4.86,20.51,0,28.79-10.71,18.1-44.74,30.55-95.84,35.06-103,9.09-289.59,20.6-382.08-4.5-29.75-8.08-70.22-21-78.23-39.89-2.43-5.74-1.72-12,2.17-19a5.15,5.15,0,0,0,.4-.9c.59-1.82,59.64-182.6,50-301.71-3.61-44.56-9.45-73.93-14.61-99.85-8.66-43.54-14.91-75-4.5-149.57a5.34,5.34,0,0,0-10.58-1.47c-10.66,76.35-3.92,110.23,4.61,153.13,5.1,25.63,10.88,54.68,14.44,98.62,9.25,114.07-46.06,287-49.33,297-5.28,9.82-6.09,19.2-2.4,27.89,7.58,17.89,33.87,32.08,85.25,46,42.73,11.59,104.82,15.54,169.59,15.54,77.87,0,159.62-5.71,216.23-10.7,38.64-3.41,88.06-13.17,104.09-40.26,6.68-11.29,6.89-24.26.62-38.52-38-86.5-20.54-279.23-20.35-281.17Z" fill="#571519"/><path d="M2072,646.61a5.33,5.33,0,1,0,3.54,10.06c16.67-5.87,32.35,3.88,41.45,15,8,9.69,11.33,20.84,8,26.51-9.86,16.69-19,25.13-60.2,48.92-35.72,20.61-70.59,70.58-82,87.87-15.9-17.25-34.59-35.55-42.44-35.74-10.92-.36-18.9,13.47-20.41,16.23a5.34,5.34,0,1,0,9.38,5.1c2.35-4.31,7.38-10.45,10.55-10.66,5.15,1.63,24.51,20.55,39.7,37.38a5.33,5.33,0,0,0,4,1.76l.48,0a5.38,5.38,0,0,0,4.06-2.51c.41-.67,41.71-66.9,82-90.16,43.36-25,53.09-34.18,64.06-52.74,5.73-9.7,2.15-25.26-8.92-38.72-11.4-13.88-31.38-26-53.24-18.24Z" fill="#571519"/><path d="M1663,1113.51a5.33,5.33,0,0,0-6.49,3.85L1620.4,1258a5.33,5.33,0,0,0,3.84,6.5,5.51,5.51,0,0,0,1.33.17,5.34,5.34,0,0,0,5.17-4L1666.8,1120a5.34,5.34,0,0,0-3.85-6.5Z" fill="#571519"/><path d="M1900.58,710.27c-23.49,20.53-42.67,48.7-55.47,81.47a5.33,5.33,0,0,0,7.52,6.63c11.67-6.36,25.83-13.34,31.29-15.07,1.47,3.05,3.54,10.13,4.87,16.9a5.34,5.34,0,0,0,5.23,4.32,5.14,5.14,0,0,0,1-.1,5.35,5.35,0,0,0,4.22-6.26c-4.53-23.22-9.63-24.93-11.56-25.57-1.71-.58-5-1.69-26.79,9.33,11.85-25.32,27.81-47.12,46.69-63.62a5.34,5.34,0,0,0-7-8Z" fill="#571519"/><path d="M2082.07,667.94c-5.1,5.62-22,17.17-39.91,29.38-15.93,10.87-34,23.19-49,34.82-11.06,8.58-21.26,16-30.26,22.55-26,18.89-46.47,33.81-65,60.21a5.34,5.34,0,1,0,8.73,6.14c17.55-24.95,36.44-38.69,62.59-57.72,9.06-6.59,19.33-14.06,30.52-22.75,14.73-11.42,32.63-23.65,48.43-34.43,20-13.67,35.87-24.47,41.81-31a5.33,5.33,0,1,0-7.91-7.16Z" fill="#571519"/><path d="M1873.28,741.64c-8.54,3.27-18.65,4.91-29.34,6.64-27.44,4.45-61.58,10-88.23,47.83-15.85,22.49-80.72,246.74-83.48,256.28a5.35,5.35,0,0,0,3.65,6.61,5.52,5.52,0,0,0,1.49.21,5.33,5.33,0,0,0,5.12-3.86c18.62-64.48,69.64-235.63,82-253.1,24.06-34.16,54.42-39.09,81.21-43.43,11.25-1.82,21.89-3.55,31.45-7.22a5.33,5.33,0,0,0-3.82-10Z" fill="#571519"/><path d="M1658.68,1669.47a5.33,5.33,0,0,0-10.09-3.45c-11.36,33.18-14.8,60.3-20,101.37-2.26,17.84-4.84,38.12-8.52,62.61h10.79c3.57-23.88,6.1-43.75,8.32-61.27,5.13-40.41,8.53-67.11,19.52-99.26Z" fill="#571519"/><path d="M1915.65,615.44c-10.13,5.38-13.25,12.83-10.29,18.39s10.88,7.15,21,1.76S1945,619.9,1942,614.33s-16.26-4.27-26.39,1.11Z" fill="#6f7684"/><path d="M2186.53,1672.37a5.34,5.34,0,0,0-3.17,6.85A1461.33,1461.33,0,0,1,2227.82,1830h10.92c-18.8-81.52-44.94-153.33-45.36-154.46a5.33,5.33,0,0,0-6.85-3.17Z" fill="#571519"/><path d="M1905.05,239.71c-57.89-24.08-105.21-17.68-107.34-17.51-5.87.46-13.54,2.86-13.09,8.73a10.7,10.7,0,0,0,11.46,9.82c.48,0,48.33-3.37,101.59,19,70.79,29.75,117.43,88.77,138.61,175.41a10.7,10.7,0,0,0,9.77,8.13,10.92,10.92,0,0,0,3.14-.29,10.67,10.67,0,0,0,7.83-12.91c-28.62-117-98.44-168.13-152-190.4Z" fill="#6f7684"/><path d="M2035,521.41a5.34,5.34,0,0,0-7.45,1.2c-44.26,61.24-89,85.12-89.44,85.36a5.34,5.34,0,1,0,4.95,9.46c1.9-1,47.28-25.12,93.14-88.57a5.33,5.33,0,0,0-1.2-7.45Z" fill="#571519"/><path d="M1923.86,630.88c-6.43,3.42-12.1,3.6-13.79.45s1.65-7.76,8.09-11.18a33.65,33.65,0,0,1,15.09-4.07c2,0,3.5.31,4,.77.22,2-4.56,9.31-13.44,14Zm7.35-25.43a46,46,0,0,0-18.06,5.28c-14.07,7.47-16.41,18.25-12.5,25.61,2.45,4.61,7.39,7.94,14.2,7.94a30.21,30.21,0,0,0,14-4,45.75,45.75,0,0,0,14.47-12c4.63-6,5.84-11.88,3.41-16.45s-8-6.82-15.54-6.38Z" fill="#571519"/><path d="M1907.1,234.78c-47.65-19.81-106-23.8-127.42-8.7-6.41,4.52-9.6,10.63-9.24,17.68a5.34,5.34,0,0,0,10.66-.54c-.11-2.11.26-5.26,4.74-8.42,16.38-11.55,70-9.79,117.16,9.84,52.39,21.79,120.75,71.87,148.84,186.74a5.35,5.35,0,0,1-3.93,6.45,5.11,5.11,0,0,1-1.56.15,5.37,5.37,0,0,1-4.88-4.06c-21.62-88.38-69.3-148.63-141.74-179.08-54.29-22.82-103.6-19.45-104.1-19.41a5.34,5.34,0,0,0,.86,10.64c.46,0,47.22-3.19,99.11,18.62,69.14,29.06,114.73,86.85,135.5,171.77a15.93,15.93,0,0,0,14.64,12.18c.3,0,.61,0,.91,0a16,16,0,0,0,15.56-19.82c-29.15-119.2-100.44-171.32-155.11-194.06Z" fill="#571519"/><path d="M2054.08,413.13c-27,1.62-47.22,31.4-45.12,66.53s25.69,62.3,52.71,60.69,47.22-31.4,45.12-66.53-25.7-62.3-52.71-60.69Z" fill="#6f7684"/><path d="M2058,418.61c-20.91,3.64-33.62,31-28.38,61.07s26.44,51.53,47.34,47.89,33.61-31,28.37-61.07S2078.86,415,2058,418.61Z" fill="#6f7684"/><path d="M2061.36,535c-24,1.47-45.15-23.54-47.07-55.68s16.07-59.45,40.11-60.88c.66,0,1.31-.06,2-.06,23.21,0,43.23,24.49,45.09,55.74,1.92,32.14-16.07,59.45-40.1,60.88Zm50.76-61.51c-2.27-38-28.37-67.47-58.36-65.71S2001.36,442,2003.63,480c2.2,36.92,27,65.78,55.78,65.78.86,0,1.72,0,2.58-.08,29.91-1.78,52.4-34.16,50.13-72.17Z" fill="#571519"/><path d="M2096.07,504.71c-4.6,9.9-11.72,16.15-20.06,17.6-18,3.15-36.44-16.4-41.17-43.54s6.06-51.77,24-54.9a21.43,21.43,0,0,1,3.75-.33c7.19,0,14.55,3.51,21.08,10.12,8.19,8.28,14,20.27,16.34,33.75h0c2.34,13.49.94,26.73-4,37.29Zm-4.77-78.56c-10.21-10.32-22.36-14.87-34.26-12.8-23.77,4.14-38.45,34.3-32.72,67.24,5.29,30.41,26.16,52.71,48,52.71a31.8,31.8,0,0,0,5.49-.47c11.88-2.07,21.8-10.46,27.91-23.63,5.82-12.51,7.52-28,4.8-43.62S2101,436,2091.3,426.15Z" fill="#571519"/><path d="M1914.67,743.14a5.33,5.33,0,0,0-7.36,1.65c-8,12.55-6.36,28.2-4.93,42,.82,7.88,1.59,15.32.22,20.06a5.33,5.33,0,0,0,3.62,6.62,5.6,5.6,0,0,0,1.5.21,5.34,5.34,0,0,0,5.12-3.84c2-6.75,1.09-15.2.16-24.16-1.25-12.08-2.68-25.76,3.31-35.19a5.33,5.33,0,0,0-1.64-7.37Z" fill="#571519"/><path d="M1587.58,957.12c-12.79-15.87-19.67-47.43-23.94-59.22-16.64-41.31-7-74.79-22.72-73.06s-22.47,25.26-23.26,44.93c-.9,23.09,9.56,36.07,7.36,68.77l-109.37,37s4.16,74.93,23.52,109.78c-6.86,7.43,5.29,24.28,13.92,24.94s35.61-7.77,52.58-3.83c11.76,3.37,54.67,13.51,77.41,12.79,18.51-.65,42.39,27.22,65.77,91.64l113.21-21.3c-50.39-95-99-140.09-103.6-145.86-20.29-27-50-60.6-70.88-86.56Z" fill="#ffe4ce"/><path d="M1654.84,1032c-13.56-18-28-35.45-41.88-52.33-7.11-8.62-14.22-17.22-21.23-25.92-9.11-11.31-15.35-32.33-19.48-46.25-1.36-4.57-2.53-8.52-3.66-11.62-7.41-18.4-9.46-35.58-11-48.13-1.91-16-3.57-29.78-17.28-28.23-19.27,2.12-27.14,28.27-28,50-.43,11,1.5,19.6,3.54,28.76,2.46,11,5,22.45,3.84,39.86a5.34,5.34,0,1,0,10.65.72c1.27-18.95-1.57-31.68-4.07-42.9-2-8.83-3.66-16.46-3.29-26,.74-18.29,6.85-38.55,18.52-39.84,2.83-.3,3.79,4.46,5.51,18.89,1.58,13.14,3.73,31.13,11.6,50.67,1,2.63,2.08,6.44,3.39,10.85,4.37,14.72,11,37,21.41,49.91,7,8.72,14.17,17.37,21.31,26,13.85,16.78,28.17,34.15,41.69,52.09,4.74,5.89,111.92,94.93,133.36,112.72a5.33,5.33,0,0,0,7.51-.7,5.33,5.33,0,0,0-.7-7.51c-50.62-42-127.52-106.3-131.75-111.07Z" fill="#571519"/><path d="M1418.09,980.67l0-.13,0,.13ZM1542,937.13h0c-45.18.07-132.36,22.48-134.45,42-2,13.1,10.21,31.61,11.61,33.68a5.34,5.34,0,1,0,8.84-6c-4.33-6.39-10.79-19-9.9-26.07,4.39-9.35,74.09-32.9,123.92-33a5.34,5.34,0,0,0,0-10.68Z" fill="#571519"/><path d="M1485.08,969.86c-5.82,2.43-57.19,24.37-69.41,45.67-7.49,13-.24,29.93,9,41.45a5.34,5.34,0,0,0,8.31-6.7c-6.74-8.36-12.92-21.09-8.11-29.43,8.83-15.39,49.39-34.92,64.28-41.14a5.34,5.34,0,0,0-4.12-9.85Z" fill="#571519"/><path d="M1487,1008.59c-9.46,5.26-57,32.22-63.85,46.3-6.66,13.75,5.22,26.72,13.3,32.21a5.25,5.25,0,0,0,3,.93,5.34,5.34,0,0,0,3-9.74c-.14-.1-14-9.8-9.7-18.74,3.93-8.11,37.11-29.22,59.43-41.63a5.34,5.34,0,0,0-5.19-9.33Z" fill="#571519"/><path d="M1583.21,1113.86h-.3c-21.7.69-63.71-9.14-76-12.66-11.93-2.76-27.29-.14-39.63,2-5.82,1-11.31,2-13.75,1.75s-7.93-4.7-10.22-10.51c-.36-.94-1.47-4.11-.23-5.45,10.09-10.7,42.41-25.58,54-30.42a5.34,5.34,0,0,0-4.11-9.85c-1.78.75-44,18.41-57.7,33-3.76,4.07-4.45,10.13-1.9,16.63,3.14,8,11.23,16.63,19.33,17.25,3.78.3,9.32-.66,16.37-1.86,10.79-1.84,25.58-4.38,35.15-2.16,13,3.72,55.91,13.76,79.07,13h.11c10.06,0,52.83,43,86.88,83a5.34,5.34,0,1,0,8.13-6.92c-17.37-20.43-75.34-86.8-95.18-86.8Z" fill="#571519"/><path d="M2126.37,709.73l-74.16,568.07c-46.8-40.34-360.64-228.92-360.64-228.92-90.36,51.63-80.61,134-80.61,134s206,146.36,286.65,198.41c118.27,76.31,169.85,94.55,205.5,81.9,55.25-19.61,71.16-75.21,108.11-208.8,30.12-108.92,96.63-284.71,41.06-410.76-21.49-48.75-108.17-117.79-125.91-133.93Z" fill="#fff"/><path d="M2141.83,716.09c-5.2-4.45-9.3-8-11.88-10.31a5.33,5.33,0,0,0-7.17,7.9c2.68,2.44,6.84,6,12.1,10.51,28.34,24.31,94.69,81.21,112.51,121.62,47.37,107.43,4,253.49-27.65,360.15-4.95,16.68-9.63,32.44-13.67,47-35.37,127.91-51.52,186.3-104.74,205.19-35.16,12.47-89.58-9.57-200.83-81.35-75.39-48.65-262.83-181.52-284.43-196.84-.8-13.4-.68-79.89,75.45-124.92,30.82,18.55,313.58,189.16,357.21,226.76a5.34,5.34,0,0,0,7-8.08c-46.61-40.18-348.55-221.75-361.38-229.46a5.35,5.35,0,0,0-5.4-.06c-92.36,52.78-83.36,138.44-83.26,139.3a5.33,5.33,0,0,0,2.21,3.72c2.06,1.47,207,147,286.84,198.55,94.21,60.78,148.18,86.41,186.16,86.41a71,71,0,0,0,24-4c58.46-20.75,75.07-80.81,111.46-212.4,4-14.51,8.67-30.22,13.61-46.85,32.13-108.25,76.13-256.49,27.19-367.49-18.8-42.64-84-98.55-115.33-125.42Z" fill="#571519"/></svg>