<svg xmlns="http://www.w3.org/2000/svg" viewBox="0 0 2745 1830"><rect x="0.17" y="2.45" width="2744.65" height="1825.1" fill="#bbf2e0"/><path d="M419.47,1119.15l620,2.34c14.77,0,29.43,11.76,32.75,26.15L1176,1596.18c3.32,14.39-5.93,25.38-20.68,24.57l-619.16-34.16c-14.74-.81-29.6-13.08-33.19-27.41L399.23,1145C395.64,1130.66,404.7,1119.09,419.47,1119.15Z" fill="#c5c5c5"/><path d="M1216,1178.76l-35.89,146.31s-88.64-15.49-74,41,22.49,92.94,42.94,95.44c31.94,3.88,118.22,7.5,140.74-5.7l7.74-244.1Z" fill="#3dd8ac"/><path d="M1423.67,501.59c-3-34.59-12.5-102,7.81-149.41S1497.6,273.51,1533,263s150.85-61.81,240.35,70.57a64.35,64.35,0,0,1-34.94,23c-23.31,6-57.57,16.93-46.29,38s-3.84,38.46-3.84,38.46,30.84,57.16,58.67,39.86,47.38-17.3,48.89,9-21.81,61.67-33.85,69.94-23.32,41.37-21.06,60.18,10.72,54.33,9.72,61.81-40,27.2-85.35,51.7c-52.64,28.46-114.56,52.9-126.7,61-22.56,15-36.21,29.24-36.21,29.24s16.71-90,6.94-102c0,0-29.89-30.09-50.57-52.31C1415.48,615.05,1426.68,536.19,1423.67,501.59Z" fill="#f9ebe0"/><path d="M1504.27,710c5.11,16.49,16.07,67.33,14.33,80.48s70.56-41.7,114.92-67.13c28.44-16.31,19.55-89.17,19.09-78.51s2.68,12.11-25.88,30.22-39.09,27.52-66.84,35.58S1523.79,710.29,1504.27,710Z" fill="#fcc8ba"/><path d="M1675.93,399.28c3,23-.32,24.74,5.43,55.13s33.71,67.87,72.58,33.2c0,0-36,14.77-49.41-16.11s-10.6-40.8-15.36-50.68S1672.93,376.29,1675.93,399.28Z" fill="#fcc8ba"/><path d="M1550,544.8c0-10.76,13.27-19.48,29.64-19.48s29.64,8.72,29.64,19.48-13.27,19.48-29.64,19.48S1550,555.56,1550,544.8Z" fill="#fdaca8"/><path d="M1422.06,544.83c0-10.76,13.27-19.48,29.64-19.48s29.64,8.72,29.64,19.48-13.27,19.48-29.64,19.48S1422.06,555.59,1422.06,544.83Z" fill="#fdaca8"/><path d="M1502.29,512.89c7.52,14.77,10.48,46.74,2.42,61.52,0,0-18.81-13.17-16.93-21.5s11.29-20.14,12.09-24.44S1494.76,498.12,1502.29,512.89Z" fill="#fdaca8"/><path d="M1476,605.38l86.21-6.72s-7.18,32.48-19.46,42.42-22.62,13.39-36.56,6.78S1476,605.38,1476,605.38Z" fill="#fff"/><path d="M1674.77,382.61c12.13,23.47,19.79,28.72,16.62,47.73s23.24,79.54,50,59.77c18.66-13.79,37.12-16.28,42.92,2.73s.57,52.09-9.46,62.65-25.34,19-25.34,19L1747.37,593s23.77-9,43.83-38,21.63-65.66,21.1-103.68-27.92-108.43-36.37-121.64c0,0-8.42,13.67-28,21.49-20.22,8.07-26.85,13.71-35.35,2.49s-19.38,11.67-21.22,18.62S1673,381.68,1674.77,382.61Z" fill="#7d38ce"/><path d="M1424.24,505.57c-4-24.22-7.43-43.22-7.29-68.81s11.47-81.15,11.47-81.15-8.43-6.11-17.69,15.32-14.81,55.87-8.39,82.72S1428.19,529.8,1424.24,505.57Z" fill="#7d38ce"/><path d="M1746.66,394.25c5.45,17.9,16,35.41,19.07,27.24S1741.21,376.35,1746.66,394.25Z" fill="#858484"/><path d="M1729.85,400.7c7.79,23.05,22.82,45.6,27.28,35.08S1722.05,377.65,1729.85,400.7Z" fill="#858484"/><path d="M1508.31,734.52s-43.79,17.16-46.43,68.63l-34.8,59.27s-4.28,68.59,68.65,70.48c47.19,1.22,148.16-74.59,188.56-103.07s109-112.28,109-112.28L1780,713s-10,2.43-11.24-12.43-8.34-54.2-25-32.31c0,0-28.75,7.83-22.94,18.24l-156.88,70.88s-38,24.2-46.37,38.85Z" fill="#fff"/><path d="M1469,769.71c-10.71,62.87,10.83,95.58,72.23,88.59s123.81-65.47,154-91.53,40.26-43.7,40.26-43.7l34.2-24.09s74.72,11.09,133.41,42.81c36.68,19.82,64.1,54.16,72.36,79,21.51,64.5,47.79,333.28,47.79,333.28s27.17,246.93-2.73,304-26.53,47.33-70.41,62-191-24.62-256.42-58.73l-410.9-.17s3.2-25.51,1.82-71.67c-2-68.2-2-156.16,10.9-173.45,0,0,58.16,13.81,71.43,26.61s57.82-107.85,57.82-107.85-78.2-7.72-89.46-30.23-34.89-76.91-34.89-76.91l-55.2-4.14S1290,993.25,1305,964.59s50.16-102.11,77-138.06S1470.53,760.52,1469,769.71Z" fill="#3dd8ac"/><path d="M1374,1277.39c16.93-20.56,33-133,57.58-150.13,0,0-16.44-17.27-33.66-17.24-6.47,0-17.43-5.64-23.92.2-10.77,9.7-17.38,36.18-30.62,63.3-21.22,43.47-35.68,69.14-29.2,76.71S1372.91,1278.72,1374,1277.39Z" fill="#fff"/><path d="M1164.84,1538.2l281.82-4.82.54,33.16-278.08,54.55s8.56-21.93,5.34-35.83S1164.84,1538.2,1164.84,1538.2Z" fill="#aaabab"/><path d="M701.52,1360.58a52.22,52.22,0,1,1,52.22,52A52.11,52.11,0,0,1,701.52,1360.58Z" fill="#e1e1e1"/><path d="M1368,1105.93c-13.67-11.27-33.21-56.46-41.55-70.23s-22-43.29-26-66.16,8-57.55-3.67-65.3-36.65,3.24-38.72,29-4.5,57.41-7,63.61-10.21,13.55-10.21,13.55-35.12-6.6-57.58-3.68-34.13,14.84-21.73,38.07c0,0-24.39,31.07-4.52,44.83,0,0-20.58,27.53-1.72,39.53,0,0-9.17,23.34,8.76,36.53s64.24,32.45,85.22,37.49,59.15,17.46,66.58,28.12c0,0,20-54.73,32.36-77.12S1381.69,1117.19,1368,1105.93Z" fill="#f9ebe0"/><path d="M1267.94,1015.33c1.34-10.25-12.92-41.43-12.92-41.43l-18.27,33.42S1266.61,1025.58,1267.94,1015.33Z" fill="#fcc8ba"/><path d="M1361.16,1102.07c-4.53,19.84-61.77,84.44-55,121.27l14.17,14.74s-6.24-21,6.24-36.84,29.17-53.68,29.17-53.68l19.51-38.19Z" fill="#fcc8ba"/><path d="M1425,510.7a3.83,3.83,0,0,1-3.77-3.2c-6.76-41.22-12.36-88.94-2.68-130.38a149.66,149.66,0,0,1,23.93-53.69c12.15-17.08,28-32.05,48.62-45.76,11.74-7.83,37.51-19.67,71.48-27.26,26.8-6,67.23-11.07,107.67-1.24,45.19,11,79.81,37.71,102.92,79.44a3.82,3.82,0,0,1-6.68,3.7c-22-39.79-55-65.26-98-75.72-68.33-16.62-146.47,9.67-173.12,27.43-77.65,51.77-83.21,120.7-66.56,222.25a3.81,3.81,0,0,1-3.15,4.38A3.31,3.31,0,0,1,1425,510.7Z" fill="#2e2020"/><path d="M1502,576.77a3.81,3.81,0,0,1-2.3-.77c-17.67-13.31-17.39-23.59-14-29.87.8-1.51,1.7-3.06,2.64-4.7,6.34-11,13.51-23.45,1.67-35.9a3.82,3.82,0,1,1,5.54-5.26c15.76,16.59,5.92,33.67-.59,45-.91,1.58-1.78,3.08-2.53,4.48-3.7,7,5.88,15.63,11.92,20.19a3.81,3.81,0,0,1-2.3,6.86Z" fill="#2e2020"/><path d="M1736,579.73a3.82,3.82,0,0,1-.7-7.57c18.52-3.45,39.45-23,47.67-44.58,4-10.63,6.72-26.09-3.58-39.4-3.91-5.11-10.39-8.05-16.16-7.34-3.31.42-7.82,2.21-10.47,8.38a3.81,3.81,0,1,1-7-3c3.18-7.41,9-12,16.54-12.94,8.49-1.06,17.58,3,23.16,10.26,9.7,12.55,11.36,29.17,4.65,46.77-9.22,24.19-32.18,45.41-53.4,49.37A4.14,4.14,0,0,1,1736,579.73Z" fill="#2e2020"/><path d="M1740.5,540.93a3.77,3.77,0,0,1-1.52-.32,3.82,3.82,0,0,1-2-5c5.13-11.75,13.51-18.83,27.16-22.94a3.81,3.81,0,0,1,2.2,7.3c-11.46,3.46-18.15,9-22.37,18.7A3.81,3.81,0,0,1,1740.5,540.93Z" fill="#2e2020"/><path d="M1530.82,718.43a80.55,80.55,0,0,1-18.32-1.95c-15.93-3.79-25.55-15.2-37.72-29.64l-3.48-4.11c-33.9-40.18-50-79.49-50.57-123.71-.19-5.15-.06-8.93.09-13.3a328.09,328.09,0,0,0-.55-35.12,3.82,3.82,0,0,1,7.62-.44,336.69,336.69,0,0,1,.56,35.83c-.14,4.23-.27,7.89-.09,12.79v.09c.57,42.38,16.06,80.17,48.77,118.92l3.48,4.12c11.71,13.9,20.18,23.94,33.66,27.14,17.42,4.16,45.6,1.45,63.55-11.76,9.66-7.1,20.43-13,30.85-18.61,20.12-10.93,39.11-21.26,42.17-37.31a3.82,3.82,0,1,1,7.5,1.42c-3.73,19.61-24.28,30.77-46,42.59-10.19,5.54-20.73,11.26-30,18.06C1568.09,713.93,1548.05,718.43,1530.82,718.43Z" fill="#2e2020"/><path d="M1598.93,466.09a3.82,3.82,0,0,1-3.45-2.18c-2.15-4.55-7.07-8.23-13.52-10.12-10.44-3.05-22.42-1-32.89,5.52a3.82,3.82,0,1,1-4-6.47c12.31-7.72,26.56-10,39.08-6.38,8.54,2.5,15.21,7.67,18.28,14.19a3.8,3.8,0,0,1-3.45,5.44Z" fill="#2e2020"/><path d="M1550.59,509.86a3.82,3.82,0,0,1-2.94-6.25c10.72-12.95,31.24-10.82,44.11-1.42a3.82,3.82,0,1,1-4.51,6.16c-10.07-7.36-25.83-9.4-33.72.13A3.83,3.83,0,0,1,1550.59,509.86Z" fill="#2e2020"/><path d="M1438.79,515.22a3.82,3.82,0,0,1-2.94-6.25,26.86,26.86,0,0,1,22.36-9.55c7.65.39,14.32,3.77,17.83,9a3.81,3.81,0,1,1-6.34,4.23c-2.16-3.21-6.71-5.38-11.89-5.65a19.27,19.27,0,0,0-16.08,6.8A3.81,3.81,0,0,1,1438.79,515.22Z" fill="#2e2020"/><path d="M1521.26,652.73c-13.46,0-25.54-7.38-35.11-21.52A90,90,0,0,1,1475.09,608a3.8,3.8,0,0,1,2.68-4.74,185.08,185.08,0,0,1,41-5.46c14.41-.15,40.71-1.08,41-1.09a3.82,3.82,0,0,1,4,4,80.49,80.49,0,0,1-5.3,24.13c-6.61,16.63-18.16,26.22-33.41,27.71A35.41,35.41,0,0,1,1521.26,652.73Zm-37.53-43c3.86,10.26,16.48,37.59,40.49,35.23,24.24-2.38,30.08-29.86,31.44-40.43-8.15.27-25.88.83-36.83,1A179.84,179.84,0,0,0,1483.73,609.72Z" fill="#2e2020"/><path d="M1447.46,516.12c.18-6.81,4.56-11.81,10.54-12.51,6,.16,10.08,5.37,9.91,12.18s-4.56,11.8-10.54,12.5C1452.27,528.16,1447.29,522.92,1447.46,516.12Z" fill="#2e2020"/><path d="M1561.17,511.13c.18-6.81,4.57-11.81,10.54-12.5,6,.15,10.08,5.36,9.91,12.17s-4.56,11.8-10.54,12.5C1565.12,523.15,1561,517.93,1561.17,511.13Z" fill="#2e2020"/><path d="M1746.88,665.12a3.82,3.82,0,0,1-3.61-2.57c-6.43-18.61-7.65-54.86,4.08-93.91a3.82,3.82,0,1,1,7.31,2.2c-11.25,37.42-10.2,71.77-4.17,89.22a3.82,3.82,0,0,1-3.61,5.06Z" fill="#2e2020"/><path d="M1598.71,623a4,4,0,0,1-1.45-.29,3.81,3.81,0,0,1-2.09-5c7.22-17.67-15.39-34.66-15.62-34.83a3.82,3.82,0,0,1,4.54-6.14c1.14.84,27.58,20.76,18.15,43.85A3.82,3.82,0,0,1,1598.71,623Z" fill="#2e2020"/><path d="M1458.53,628.44a3.82,3.82,0,0,1-3.62-2.6c-4.92-14.72-1-30.14,10-39.29a3.82,3.82,0,0,1,4.88,5.88c-8.59,7.12-11.61,19.28-7.69,31a3.81,3.81,0,0,1-3.62,5Z" fill="#2e2020"/><path d="M1607,509.16a22.66,22.66,0,0,1-3.64-.28,3.81,3.81,0,1,1,1.2-7.53c6.49,1,13.07-2.5,13.14-2.54a3.82,3.82,0,0,1,3.68,6.7A33,33,0,0,1,1607,509.16Z" fill="#2e2020"/><path d="M1611.91,521.87a20.53,20.53,0,0,1-9.76-2.19,3.82,3.82,0,1,1,3.64-6.71c4.37,2.37,13.57,1.21,18.92-2.38a3.82,3.82,0,0,1,4.26,6.34A32.36,32.36,0,0,1,1611.91,521.87Z" fill="#2e2020"/><path d="M1499.52,441.36c-12,0-26.14-1.55-34.37-6a3.82,3.82,0,0,1,3.64-6.71c6.49,3.52,20.66,5.53,35.23,5,14.88-.53,27-3.57,30.86-7.76a3.81,3.81,0,0,1,5.6,5.18c-7.69,8.33-27.87,9.91-36.19,10.21C1502.75,441.34,1501.15,441.36,1499.52,441.36Z" fill="#2e2020"/><path d="M1500,422.55c-1.27,0-2.5,0-3.7-.06-15.08-.5-31.2-4.09-41-9.17a3.82,3.82,0,1,1,3.49-6.79c7.32,3.77,21.85,7.81,37.81,8.33,12.42.4,29.76-1.16,41.79-10.91a3.81,3.81,0,1,1,4.8,5.93C1530.44,420.14,1513.29,422.55,1500,422.55Z" fill="#2e2020"/><path d="M1685.43,454.58a3.76,3.76,0,0,1-1.6-.35,3.81,3.81,0,0,1-1.86-5.07c7.71-16.61,9.74-32.26-5.41-54.69a3.81,3.81,0,1,1,6.32-4.27c7.92,11.7,12,22.6,12.56,33.3.46,9.09-1.62,18.27-6.54,28.87A3.83,3.83,0,0,1,1685.43,454.58Z" fill="#2e2020"/><path d="M1735.67,497.08c-7.57,0-15.57-3.05-23-8.84-13.71-10.72-23.35-28.77-24.55-46a3.81,3.81,0,1,1,7.61-.53c1,14.93,9.74,31.21,21.64,40.51,7.24,5.66,14.94,8.12,21.66,6.93a3.82,3.82,0,1,1,1.33,7.52A27.2,27.2,0,0,1,1735.67,497.08Z" fill="#2e2020"/><path d="M1718.34,420.54a3.8,3.8,0,0,1-2.17-.69c-6.67-4.64-9.8-14.75-13.12-25.46-5-16-8.61-25.53-17.49-22.87a3.82,3.82,0,0,1-2.2-7.31c5.23-1.57,12.71-1.58,18.63,7.29,3.66,5.48,6,13.19,8.35,20.64,2.79,9,5.67,18.3,10.19,21.44a3.82,3.82,0,0,1-2.19,7Z" fill="#2e2020"/><path d="M1743,398.09a3.77,3.77,0,0,1-1.8-.46c-9.24-5-14.73-14.51-20-23.73-5.1-8.86-9.92-17.23-17.18-19.57a3.81,3.81,0,1,1,2.34-7.26c10.06,3.23,15.85,13.29,21.45,23,4.78,8.3,9.71,16.88,17,20.82a3.82,3.82,0,0,1-1.82,7.18Z" fill="#2e2020"/><path d="M1721.42,365.08a3.82,3.82,0,0,1-.24-7.63c19-1.24,47.28-20.73,49.25-29.24a3.82,3.82,0,0,1,7.44,1.73c-3.11,13.42-35.67,33.78-56.19,35.13Z" fill="#2e2020"/><path d="M1421.71,498.45a3.83,3.83,0,0,1-3.26-1.84c-14.92-24.47-18-44.07-19.11-78.75-1.11-33.39,11.07-62.92,29-70.21a3.82,3.82,0,1,1,2.88,7.07c-12.76,5.2-25.31,30.14-24.22,62.88,1.11,33.3,4,52,18,75a3.82,3.82,0,0,1-3.26,5.81Z" fill="#2e2020"/><path d="M1749.31,592.25a3.82,3.82,0,0,1-1.93-7.11c32.69-19,53-51.45,58.66-93.74,6-45-4.65-100.34-30.94-160.16a3.82,3.82,0,0,1,7-3.07c26.86,61.1,37.76,117.9,31.52,164.25-6,44.71-27.59,79.06-62.38,99.31A3.85,3.85,0,0,1,1749.31,592.25Z" fill="#2e2020"/><path d="M1424.64,473.07a3.82,3.82,0,0,1-3.45-5.45c3.08-6.51,9.74-11.68,18.28-14.18,12.53-3.67,26.77-1.34,39.09,6.38a3.82,3.82,0,0,1-4,6.47c-10.47-6.56-22.46-8.58-32.89-5.53-6.45,1.89-11.38,5.58-13.53,10.12A3.81,3.81,0,0,1,1424.64,473.07Z" fill="#2e2020"/><path d="M1159.61,1623.39c-.58,0-1.17,0-1.76-.05l-619.16-34.16c-16.54-.91-32.65-14.22-36.68-30.29L398.29,1144.68c-2-8.09-.63-15.76,3.93-21.59s11.61-9,19.9-9h.12l620,2.35c16.41.06,32.77,13.12,36.46,29.1l103.72,448.55c1.88,8.15.33,15.72-4.36,21.3C1173.73,1620.59,1167.22,1623.39,1159.61,1623.39ZM422.12,1121.74c-5.89,0-10.82,2.15-13.89,6.06s-4,9.27-2.54,15L509.42,1557c3.2,12.79,16.52,23.79,29.69,24.52l619.16,34.16c5.91.32,10.87-1.53,14-5.23s4.09-8.91,2.76-14.67l-103.71-448.55c-3-12.74-16-23.13-29.06-23.18l-620-2.35Z" fill="#2c201f"/><path d="M1178.16,1592.38a3.82,3.82,0,0,1-.64-7.58l266-45.74a12.74,12.74,0,0,0,3.31-1,11,11,0,0,0-2.16-1.49l-278.17,3.6a3.82,3.82,0,0,1-.1-7.63l279.15-3.62a4,4,0,0,1,1.76.41c6.92,3.47,7.93,7.29,7.56,9.88s-2.4,6-10,7.37l-266.07,45.75A3.68,3.68,0,0,1,1178.16,1592.38Z" fill="#2c201f"/><path d="M1167,1623.31a3.81,3.81,0,0,1-.77-7.55l281.65-58.33,1.32-18.18a3.81,3.81,0,1,1,7.61.55l-1.53,21.06a3.8,3.8,0,0,1-3,3.46l-284.48,58.91A3.42,3.42,0,0,1,1167,1623.31Z" fill="#2c201f"/><path d="M1518.93,796.57a4.28,4.28,0,0,1-.6-.05,3.81,3.81,0,0,1-3.17-4.36c2.18-13.82-2.35-51.84-14.14-77.63a3.82,3.82,0,1,1,6.94-3.18c12.55,27.48,17.12,66.91,14.74,82A3.82,3.82,0,0,1,1518.93,796.57Z" fill="#2c201f"/><path d="M1562.34,760.43a3.82,3.82,0,0,1-1-7.49c20.25-5.78,156.57-62,183-90.54a3.82,3.82,0,1,1,5.6,5.2c-27.88,30-165.27,86.61-186.52,92.68A3.74,3.74,0,0,1,1562.34,760.43Z" fill="#2c201f"/><path d="M1597.36,814.94a3.91,3.91,0,0,1-1.63-.37,3.82,3.82,0,0,1-2.17-3.08c-1.31-13.49-13.79-46.89-32-50.34a3.82,3.82,0,0,1,1.42-7.51c20.58,3.91,33.45,34,37.19,51,13.58-9.06,52.61-34.91,83.11-53.57,58.37-35.7,74.65-48.64,78-53.21,5.17-7,3.48-23.72-16.46-39a3.82,3.82,0,1,1,4.64-6.06C1762.79,663,1768,673.28,1770,680.08c2.49,8.45,1.53,16.81-2.56,22.35-3.55,4.81-15.74,15.77-80.17,55.19C1650,780.38,1600,814,1599.49,814.29A3.81,3.81,0,0,1,1597.36,814.94Z" fill="#2c201f"/><path d="M1490.45,853.25a4,4,0,0,1-1-.14,3.82,3.82,0,0,1-2.67-4.7c9.94-36.22,56.39-82.33,72.37-93.74a3.82,3.82,0,0,1,4.44,6.21c-16.69,11.92-60.45,56.77-69.45,89.56A3.82,3.82,0,0,1,1490.45,853.25Z" fill="#2e2020"/><path d="M1466,806.15a3.82,3.82,0,0,1-3.79-4.21c5.35-51.7,33.08-67.59,48.61-68.84a3.82,3.82,0,0,1,.61,7.61c-2.91.23-13.2,1.89-23.38,13.45-7.5,8.52-13,20.36-16.06,34.7,6.3-6.66,15.36-14.12,25.54-16.1a25.72,25.72,0,0,1,20.29,4.45,3.82,3.82,0,1,1-4.37,6.26,18.13,18.13,0,0,0-14.47-3.21c-15.87,3.08-29.64,24-29.78,24.16A3.83,3.83,0,0,1,1466,806.15Z" fill="#2e2020"/><path d="M1784.3,1249.33a3.82,3.82,0,0,1-3.6-2.56c-7.06-20.16-17.94-71.34-27.07-127.35-10.05-61.61-15-110.77-13.1-131.5a3.82,3.82,0,0,1,7.6.68c-4,45,25.32,214.35,39.77,255.65a3.81,3.81,0,0,1-2.34,4.86A3.68,3.68,0,0,1,1784.3,1249.33Z" fill="#2e2020"/><path d="M1922,1525.91q-11.09,0-23.51-1.11c-31.45-2.81-69-10.88-111.71-24-34.59-10.61-124-51-208.08-93.93-60.56-30.94-167.38-88.24-202.45-124.44-7.37-7.6-1.82-31.67,19.78-85.85.73-1.82,1.51-3.8,2.34-5.89,9-22.8,22.61-57.25,34.7-67.1a3.81,3.81,0,0,1,3.56-.68c2.71.86,272.62,86.19,395.19,142.91a3.82,3.82,0,0,1-3.21,6.93c-116.41-53.88-366.67-133.79-392.19-141.9-10.31,10.4-23.14,42.87-31,62.64-.83,2.11-1.62,4.09-2.35,5.92-9,22.55-14.85,39-18.43,51.62-6.06,21.48-3.53,25.5-3,26.08,57.54,59.4,340.63,195.93,407.29,216.39,42.17,13,79.23,20.91,110.15,23.68,41.41,3.7,70.86-2,87.53-17,48-43.17,47.61-101.22,47.24-162.68-.05-8.37-.1-17,0-25.62.61-71.69-33.92-374.68-65.4-486.13C1947.11,750.07,1853.67,725,1797.84,710c-14.1-3.78-25.23-6.77-32.32-9.84a3.81,3.81,0,1,1,3-7c6.57,2.84,17.47,5.77,31.27,9.47,27.78,7.45,65.82,17.66,99.9,35.89,18.77,10,34.44,21.58,46.59,34.31,14.29,15,24.21,32,29.51,50.82,31.61,111.94,66.3,416.26,65.68,488.27-.07,8.53,0,17.16,0,25.5.39,63.22.75,122.94-49.76,168.4C1976.93,1519.19,1953.51,1525.91,1922,1525.91Z" fill="#2c201f"/><path d="M1376.18,1111.5a3.87,3.87,0,0,1-1.28-.22c-26.77-9.49-34-29.42-41-48.69-3-8.38-5.9-16.29-10.31-23.32l-1.35-2.16c-14.25-22.68-20.14-32.06-25.22-61.8-2.37-13.88.31-27.88,2.68-40.23,2.85-14.89,4.31-24.15-1.54-26.73-4-1.75-9.92-.36-16.33,3.82-12.8,8.34-25.76,26.91-25.76,46.24,0,31.08-9.16,41.73-18.85,53-.58.67-1.15,1.33-1.72,2a3.82,3.82,0,0,1-5.81-4.95c.58-.69,1.16-1.36,1.74-2,9.12-10.6,17-19.77,17-48,0-23.07,15.15-43.46,29.22-52.64,8.74-5.69,17.11-7.26,23.59-4.41,5.44,2.4,8.32,7.34,8.57,14.68.19,5.8-1.11,12.6-2.63,20.48-2.24,11.71-4.79,25-2.65,37.51,4.83,28.24,10.09,36.62,24.16,59l1.36,2.16c4.84,7.73,8,16.39,11,24.78,6.67,18.41,13,35.81,36.36,44.1a3.81,3.81,0,0,1-1.28,7.41Z" fill="#2e2020"/><path d="M1204.28,1060.66l-.36,0c-24.32-2.28-40.59-8.61-48.34-18.82-4.48-5.9-6-12.93-4.6-20.88,4.19-23.21,55.59-16.75,61.43-15.93h.08c1,.15,24.29,3.94,52.63,15.87a3.82,3.82,0,0,1-3,7,249.65,249.65,0,0,0-50.83-15.37,165.06,165.06,0,0,0-26.55-1.14c-9.16.46-24.77,2.47-26.28,10.88-1.06,5.84,0,10.71,3.16,14.91,6.32,8.31,21.18,13.79,43,15.83a3.82,3.82,0,0,1-.35,7.62Z" fill="#2e2020"/><path d="M1188.68,1104.08h-.17c-15-.66-31.13-8.35-39.36-18.7-5.28-6.64-7.32-14.16-5.91-21.77,2-10.54,5.69-17.46,11.08-20.57a12.92,12.92,0,0,1,10.78-1,3.81,3.81,0,0,1-2.55,7.19,5.29,5.29,0,0,0-4.42.45c-3.27,1.88-5.9,7.33-7.38,15.34-1,5.45.46,10.71,4.37,15.63,6.85,8.61,21,15.27,33.72,15.82a3.82,3.82,0,0,1-.16,7.63Z" fill="#2e2020"/><path d="M1184.56,1147.83a3.61,3.61,0,0,1-.73-.07c-10.53-2-40.47-12.07-40-30.75.37-15.44,4.13-26.23,10.58-30.36a3.81,3.81,0,1,1,4.12,6.42c-3.18,2-6.71,9.45-7.07,24.12-.28,11.61,21.9,20.76,33.84,23.08a3.81,3.81,0,0,1-.72,7.56Z" fill="#2e2020"/><path d="M1314,1235.39a3.88,3.88,0,0,1-1.55-.32c-4.62-2-10.42-4.73-16.57-7.57-20.7-9.55-49-22.64-64.9-26.6-12.44-3.11-42-15.1-59-22.61-11.7-5.17-19.63-18.55-22.29-29.53-1.9-7.84-1.17-14.36,2.06-18.35a3.82,3.82,0,0,1,5.94,4.8c-1.63,2-1.85,6.51-.58,11.75,2.14,8.86,8.68,20.25,18,24.34,16.3,7.2,46,19.23,57.82,22.19,16.55,4.13,45.27,17.4,66.25,27.08,6.12,2.83,11.9,5.49,16.46,7.51a3.82,3.82,0,0,1-1.54,7.31Z" fill="#2e2020"/><path d="M1377.46,1283.1a3.81,3.81,0,0,1-1-.13,302.61,302.61,0,0,1-31.52-10.74c-22.51-9.18-34.6-18.08-37-27.19-1.48-5.7,5.5-20.62,20.67-51,3.48-6.95,6.76-13.52,9.3-18.88,5.25-11.14,9.67-21.15,13.56-30,6.14-13.92,11-24.92,15.55-32,2.27-3.54,8.3-12.94,17.68-9.81,4.09,1.36,9.26,2.79,14.73,4.31,13.13,3.63,28,7.75,36.75,13.25a3.81,3.81,0,0,1-4.06,6.46c-7.8-4.9-22.1-8.86-34.73-12.36-5.56-1.54-10.82-3-15.1-4.42-6.29-2.09-13.65,14.59-23.83,37.68-3.92,8.88-8.35,18.94-13.65,30.16-2.57,5.45-5.88,12.06-9.37,19-7.66,15.3-20.45,40.87-20.09,45.7,3.3,12,40.41,26.25,63.08,32.39a3.82,3.82,0,0,1-1,7.5Z" fill="#2e2020"/><path d="M1284.43,1463.49a3.82,3.82,0,0,1-3.8-3.49l-.09-1.16c-7.11-83.22-4.3-167.68,7.89-237.82a3.82,3.82,0,0,1,7.53,1.31c-12.09,69.51-14.87,153.28-7.82,235.87l.1,1.15a3.82,3.82,0,0,1-3.48,4.13Z" fill="#2e2020"/><path d="M1325.86,1035.51a3.73,3.73,0,0,1-1.7-.41,3.81,3.81,0,0,1-1.71-5.12c1.91-3.82,4.15-8.49,6.53-13.43,10.43-21.75,24.73-51.54,38.16-66.61a3.81,3.81,0,1,1,5.7,5.07c-12.71,14.27-26.74,43.5-37,64.84-2.39,5-4.64,9.67-6.58,13.55A3.84,3.84,0,0,1,1325.86,1035.51Z" fill="#2e2020"/><path d="M1878.07,1275.93a3.85,3.85,0,0,1-2.7-1.12c-25.92-25.92-63.36-33-87.17-28.55a3.82,3.82,0,0,1-1.39-7.51c25.72-4.77,66.09,2.8,94,30.66a3.82,3.82,0,0,1-2.7,6.52Z" fill="#2c201f"/><path d="M1177.6,1326a3.73,3.73,0,0,1-1.18-.19A3.81,3.81,0,0,1,1174,1321c8-24.52,23.79-84.63,34.9-128.65a3.82,3.82,0,1,1,7.41,1.87c-11.15,44.13-27,104.44-35,129.14A3.81,3.81,0,0,1,1177.6,1326Z" fill="#2e2020"/><path d="M1232.57,1352.36a3.78,3.78,0,0,1-3.17-1.7c-19.61-29.34-79.19-21.5-101.63-18.55-2.76.36-4.94.65-6.54.8a3.82,3.82,0,0,1-.73-7.6c1.47-.14,3.59-.42,6.28-.77,23.72-3.12,86.72-11.4,109,21.88a3.81,3.81,0,0,1-3.17,5.94Z" fill="#2e2020"/><path d="M1697.69,1464.81H1146.14a3.82,3.82,0,1,1,0-7.63h551.55a3.82,3.82,0,1,1,0,7.63Z" fill="#2e2020"/><path d="M2280,1464.81H2022.24a3.82,3.82,0,1,1,0-7.63H2280a3.82,3.82,0,1,1,0,7.63Z" fill="#2e2020"/><path d="M1302,974.61a3.7,3.7,0,0,1-1.61-.36,3.81,3.81,0,0,1-1.85-5.06c14.73-31.63,49.47-97.49,62-117.45,7.06-11.29,22.1-33.09,43.51-52.28,22.14-19.83,45.38-32,69.08-36.15a3.81,3.81,0,1,1,1.32,7.51c-55,9.66-93.48,62.64-107.44,85-12.38,19.78-46.87,85.18-61.51,116.61A3.79,3.79,0,0,1,1302,974.61Z" fill="#2e2020"/><path d="M1518.31,866.83a58.85,58.85,0,0,1-11.25-1c-33.27-6.54-47.43-30.1-41-68.13a3.82,3.82,0,0,1,7.53,1.28c-5.83,34.18,5.59,53.6,34.9,59.36,7.07,1.39,34,3.95,82.71-21.41,44.48-23.12,91.84-62.2,137-113a3.82,3.82,0,0,1,5.71,5.07c-45.74,51.49-93.86,91.16-139.16,114.72C1566.12,858.6,1538.58,866.83,1518.31,866.83Z" fill="#2e2020"/><path d="M1598.78,543.37h-60.07c-8.12,0-14.72-6-14.72-13.4V502.56c0-7.39,6.6-13.4,14.72-13.4h60.07c8.12,0,14.72,6,14.72,13.4V530C1613.5,537.36,1606.9,543.37,1598.78,543.37Zm-60.07-46.58c-3.9,0-7.09,2.59-7.09,5.77V530c0,3.18,3.19,5.77,7.09,5.77h60.07c3.91,0,7.09-2.59,7.09-5.77V502.56c0-3.18-3.18-5.77-7.09-5.77Z" fill="#2e2020"/><path d="M1480.4,545.42h-60.06c-8.12,0-14.73-6-14.73-13.4V504.6c0-7.38,6.61-13.39,14.73-13.39h60.06c8.12,0,14.72,6,14.72,13.39V532C1495.12,539.41,1488.52,545.42,1480.4,545.42Zm-60.06-46.58c-3.91,0-7.09,2.59-7.09,5.76V532c0,3.18,3.18,5.77,7.09,5.77h60.06c3.91,0,7.09-2.59,7.09-5.77V504.6c0-3.17-3.18-5.76-7.09-5.76Z" fill="#2e2020"/><path d="M1527.8,508.86a3.74,3.74,0,0,1-1.62-.36c-22.45-10.57-31.72-1.48-32.1-1.09a3.8,3.8,0,0,1-5.37.21,3.85,3.85,0,0,1-.21-5.42c.52-.56,13.07-13.72,40.93-.61a3.82,3.82,0,0,1-1.63,7.27Z" fill="#2e2020"/><path d="M1612.6,506.86a3.82,3.82,0,0,1-.6-7.59l139.78-22.64a3.81,3.81,0,1,1,1.22,7.53L1613.22,506.8A3.26,3.26,0,0,1,1612.6,506.86Z" fill="#2e2020"/><path d="M2086.88,1462.62h-.31a3.83,3.83,0,0,1-3.49-4.12c.29-3.59,29.22-359.6,29.22-444.69,0-16.71-5.38-30.45-16-40.84-17.74-17.37-49.36-25.71-93.94-24.77-1.36,0-2.41,0-3.13,0-3.68,0-4.67-1.89-4.86-3.47-.42-3.56,3.1-4.32,4.6-4.65a3.83,3.83,0,0,1,2.77.45h.45c7.53-.16,25.16-.53,44.3,2.62,24.17,4,42.73,12.16,55.15,24.33,12.12,11.88,18.27,27.45,18.27,46.29,0,85.4-28.95,441.72-29.24,445.31A3.83,3.83,0,0,1,2086.88,1462.62Z" fill="#2e2020"/><path d="M1102.24,1115a4.15,4.15,0,0,1-4-2.87c-5.59-17-21.93-28.67-51.41-36.82-20.58-5.68-28.09-6.75-30.43-6.94H1015a4.17,4.17,0,0,1-1-8.19,8.25,8.25,0,0,1,2.39-.14c7.95-.07,51.11-1.12,65.8-15.95a13.87,13.87,0,0,0,4.45-10.42,4.18,4.18,0,0,1,4.08-4.25h.09a4.17,4.17,0,0,1,4.16,4.09,22.1,22.1,0,0,1-6.87,16.45c-9.33,9.41-27.12,14-42.82,16.27l3.86,1c32.41,9,50.56,22.38,57.1,42.25a4.17,4.17,0,0,1-4,5.47Z" fill="#2c201f"/><path d="M1107.14,1015.06a4.16,4.16,0,0,1-3.11-6.93c14.79-16.64-14.93-50.33-27.63-61.91a4.16,4.16,0,0,1,5.52-6.23c10.56,9.06,41.42,30.34,57.09,20,2.57-1.7,9.65-11.43-7.24-65.57-9.4-30.15-21.63-59-21.75-59.26a4.16,4.16,0,0,1,7.45-3.69c12.88,22.6,52.23,82.13,79.24,86.15a15.3,15.3,0,0,0,13.51-4.26,4.16,4.16,0,1,1,5.71,6.05,23.44,23.44,0,0,1-20.45,6.45c-15.61-2.33-34.77-18.36-56.93-47.67-2.19-2.89-4.3-5.77-6.32-8.6,2.51,7.06,5.08,14.64,7.48,22.3,5.63,18.06,9.2,33.11,10.61,44.73,2,16.14-.25,26.06-6.73,30.32-11.69,7.69-27.4,3.42-40.7-3.2,11.09,15.58,20,35.62,7.36,49.89A4.16,4.16,0,0,1,1107.14,1015.06Z" fill="#2c201f"/><path d="M1235.05,893.64a4.16,4.16,0,0,1-1.31-8.12c7.76-2.56,13.3-11,17.43-26.66,3-11.18,3.55-15.28,3.67-16.49,0-.34,0-.61,0-.8a4.17,4.17,0,0,1,8.23-.8,5.87,5.87,0,0,1,.08,2c-.15,11.23,1.65,30.11,7.3,36a4.33,4.33,0,0,0,3.21,1.58,4.17,4.17,0,0,1-.12,8.33,12.74,12.74,0,0,1-9.09-4.14c-3.64-3.78-5.92-10-7.33-16.51-4.83,14.23-11.52,22.38-20.78,25.44A4.21,4.21,0,0,1,1235.05,893.64Z" fill="#2c201f"/></svg>