<svg xmlns="http://www.w3.org/2000/svg" viewBox="0 0 2745 1830"><rect x="3.06" y="2.04" width="2738.88" height="1825.92" fill="#bbf2e0"/><polygon points="2274.26 1562.41 2444.18 1563.78 2433.82 1596.06 2424.07 1605.76 2382.41 1618.87 368.22 1620.02 333.64 1612.78 309.55 1595.03 300.82 1563.78 471.39 1561.45 2274.26 1562.41" fill="#8f8f8f" fill-rule="evenodd"/><path d="M2274.26,856.88v706.89H471.39V421.41a62.12,62.12,0,0,1,61.94-61.94h1679a62.12,62.12,0,0,1,61.93,61.94Z" fill="#666462" fill-rule="evenodd"/><path d="M1802.91,423.43h388.22c32.46,0,59,24.5,59,54.45V1453c0,13.83,1.91,24-1.47,27.85-3.77,4.3-13.59,1.46-29.4,1.39H526.1c-14.48-.54-24.06,2.9-28-.62-3.79-3.34-2.31-13.33-2.31-26.24V477.88c0-29.95,26.55-54.45,59-54.45H1802.91Z" fill="#7d868c" fill-rule="evenodd"/><path d="M644.8,423.43H548.26c-10.14,0-27.9,8.64-38.57,20.71-10.2,11.52-13.56,26.31-13.57,33.74l-.36,317.18v672.76l.49,14.16,9.8.71H1654.59l9.34-.32.77-13.34V451.11l.09-27.59-19.76-.09H644.8Z" fill="#6ea0a2" fill-rule="evenodd"/><circle cx="786.39" cy="679.58" r="175.04" transform="translate(-17.88 1337.91) rotate(-80.13)" fill="#8ccacb"/><path d="M786.39,854.62a174.75,174.75,0,0,1-139.67-69.53,145.7,145.7,0,0,1,108-101.25,66.75,66.75,0,1,1,63.29,0,145.7,145.7,0,0,1,108,101.25A174.77,174.77,0,0,1,786.39,854.62Z" fill="#7db7b8" fill-rule="evenodd"/><polygon points="2101.17 961.71 2200.03 961.8 2249.34 961.8 2250.15 998.35 2250.51 1315.53 2250.51 1467.4 2250.02 1481.56 2240.2 1482.27 1674.83 1482.27 1665.47 1481.95 1664.7 1468.61 1664.7 989.4 1664.61 961.8 1684.4 961.71 2009.65 961.71 2105.73 961.71 2101.17 961.71" fill="#ffaa9e" fill-rule="evenodd"/><path d="M2101.17,423.43h96.73c10.16,0,27.95,8.64,38.65,20.71,10.22,11.52,13.59,26.31,13.6,33.74l.36,317.18V946.93L2250,961.1l-9.82.7H1674.83l-9.36-.31-.77-13.35v-497l-.1-27.59,19.8-.09h416.77Z" fill="#fddab9" fill-rule="evenodd"/><path d="M757.2,1172.18v-76.9a25.64,25.64,0,0,1,25.63-25.63h220.58a25.64,25.64,0,0,1,25.63,25.63v76.9a25.63,25.63,0,0,1-25.63,25.62H974.67l16.92,41.06-78.08-41.06H782.83A25.63,25.63,0,0,1,757.2,1172.18Z" fill="#8ccacb" fill-rule="evenodd"/><path d="M991.59,1241.24a2.31,2.31,0,0,1-1.1-.28l-77.57-40.78H782.83a28,28,0,0,1-28-28v-76.9a28,28,0,0,1,28-28h220.58a28,28,0,0,1,28,28v76.9a28,28,0,0,1-28,28H978.23L993.79,1238a2.39,2.39,0,0,1-.6,2.67A2.35,2.35,0,0,1,991.59,1241.24ZM782.83,1072a23.28,23.28,0,0,0-23.25,23.25v76.9a23.28,23.28,0,0,0,23.25,23.25H913.51a2.35,2.35,0,0,1,1.1.27l72.29,38-14.43-35a2.39,2.39,0,0,1,2.2-3.28h28.74a23.28,23.28,0,0,0,23.25-23.25v-76.9a23.28,23.28,0,0,0-23.25-23.25Z" fill="#8ccacb"/><path d="M771.78,1351.93v-64.87a21.63,21.63,0,0,0-21.62-21.62H564.09a21.64,21.64,0,0,0-21.63,21.62v64.87a21.64,21.64,0,0,0,21.63,21.62h24.24l-14.28,34.63,65.87-34.63H750.16A21.63,21.63,0,0,0,771.78,1351.93Z" fill="#8ccacb" fill-rule="evenodd"/><path d="M574.05,1410.56a2.37,2.37,0,0,1-1.6-.62,2.39,2.39,0,0,1-.6-2.67l12.92-31.34H564.09a24,24,0,0,1-24-24v-64.87a24,24,0,0,1,24-24H750.16a24,24,0,0,1,24,24v64.87a24,24,0,0,1-24,24H640.51l-65.35,34.35A2.32,2.32,0,0,1,574.05,1410.56Zm-10-142.74a19.26,19.26,0,0,0-19.25,19.24v64.87a19.26,19.26,0,0,0,19.25,19.24h24.24a2.37,2.37,0,0,1,2,1.06,2.34,2.34,0,0,1,.22,2.22L578.75,1403l60.07-31.58a2.35,2.35,0,0,1,1.1-.27H750.16a19.26,19.26,0,0,0,19.24-19.24v-64.87a19.26,19.26,0,0,0-19.24-19.24Z" fill="#8ccacb"/><path d="M2274.26,1566.33H471.39A2.38,2.38,0,0,1,469,1564V421.58a64.38,64.38,0,0,1,64.31-64.31H1022a2.38,2.38,0,1,1,0,4.76H533.33a59.62,59.62,0,0,0-59.56,59.55v1140H2271.88v-1140A59.61,59.61,0,0,0,2212.33,362H1143.69a2.38,2.38,0,0,1,0-4.76H2212.33a64.38,64.38,0,0,1,64.31,64.31V1564A2.39,2.39,0,0,1,2274.26,1566.33Z" fill="#571519"/><path d="M2360.82,1622.59H384.74c-56.46,0-86.3-20.27-86.3-58.64a2.38,2.38,0,0,1,2.38-2.38H2444.18a2.38,2.38,0,0,1,2.38,2.38C2446.56,1602.32,2416.91,1622.59,2360.82,1622.59ZM303.24,1566.33c1.55,42.49,45,51.51,81.5,51.51H2360.82c36.28,0,79.4-9,80.94-51.51Z" fill="#571519"/><path d="M1294.42,1596.69c-57.44,0-90.55-.5-98.92-1.5-9.34-1.12-16.11-4.69-20.13-10.62-6.29-9.26-3.36-20.74-3.23-21.23a2.37,2.37,0,0,1,4.59,1.21c0,.1-2.49,9.93,2.59,17.38,3.22,4.72,8.85,7.59,16.75,8.54,16,1.92,125.17,2,324.39.14,10.62-.1,17.28-.16,18.56-.16,5.37,0,16.54,0,23.16-7,4.06-4.32,5.87-10.82,5.37-19.34a2.37,2.37,0,1,1,4.74-.28c.59,9.87-1.65,17.57-6.65,22.88-8,8.52-21.05,8.52-26.62,8.52-1.28,0-7.91.06-18.51.15Q1375.58,1596.7,1294.42,1596.69Z" fill="#571519"/><path d="M1664.6,1484.75a2.37,2.37,0,0,1-2.37-2.38V423.6a2.38,2.38,0,0,1,4.75,0V1482.37A2.37,2.37,0,0,1,1664.6,1484.75Z" fill="#571519"/><path d="M1080.74,1484.91a2.39,2.39,0,0,1-2.38-2.38V848.46a2.38,2.38,0,1,1,4.76,0v634.07A2.39,2.39,0,0,1,1080.74,1484.91Z" fill="#571519"/><path d="M2249.34,964.18H1664.6a2.38,2.38,0,0,1,0-4.75h584.74a2.38,2.38,0,1,1,0,4.75Z" fill="#571519"/><path d="M496,1485.06a2.37,2.37,0,0,1-2.37-2.37l-.53-1002.56c0-32.48,27.54-58.9,61.4-58.9h310a2.38,2.38,0,1,1,0,4.75h-310c-31.23,0-56.65,24.29-56.65,54.15l.53,1000.18,1749.46-.5-.1-25.67v-974c0-29.86-25.41-54.15-56.65-54.15H1443.6a2.38,2.38,0,1,1,0-4.75h747.52c33.86,0,61.41,26.42,61.41,58.9v974l.1,28a2.37,2.37,0,0,1-2.38,2.38ZM1331.24,426H1252.8a2.38,2.38,0,1,1,0-4.75h78.44a2.38,2.38,0,1,1,0,4.75Z" fill="#571519"/><path d="M1266.92,698c52.32,111.32,57.69,319.62,115.22,367,62.32,51.36,85.7,110,137.2,188.16-13.66,33.55-33.53,44.08-58.8,51.52-7.43-11.29-82.82-99.58-136.26-166.67-19.3-24.23-28.33-19.75-48.08-48.63-31.8-46.51-51-85.56-91.81-180.74-10.17-23.73-23.81-45.52-37-61-1.12-1.31-1.71-4.1-3.41-3.88-78.62,10.28-194.55-.11-245.76,18.39-1.25.45.77,2.5,1.33,3.7,16.5,35.46,20.49,111.26,30.88,233.73-15,16.49-60.25,18.6-78.52,9-10.4-66.62-48.17-172-66.85-260.55-5.31-25.18-6.53-50.45,5.66-63.1,45-46.7,197.22-68.57,255.52-73.21Z" fill="#666462" fill-rule="evenodd"/><path d="M1008.79,442.07l-19.45,8.51s.21,7.95-4.1,10a34,34,0,0,0-7.67,5.12s-81,42.75-95.07,45.3-42.15,5.13-48.18-5.63-9.36-17.45-7.27-26.58,8.39-36.44,42.89-58.88,68.75-42.17,68.75-42.17,48.14-31,49.12-31.62,15.86-8.87,30-9.68,39.13.11,39.13.11.79-12.87,3.57-14.9,8.6-3.36,8.6-3.36,62.43-22.68,66-22.19,10.21,2.28,11.54,4.73,4.91,12.7,4.91,12.7l13.15-3.34s44.34-10.67,57.06-10.84a106.36,106.36,0,0,1,30.58,4.2c6.41,1.93,73.76,25.08,88.57,31s65,28.09,77.39,34.93,18.57,13.22,19.8,16.51,6.29,35.18,5.48,60-7.88,130.81-7.88,130.81-13.19,2.55-20.62,2.67-18.74.6-27-1.28a118.75,118.75,0,0,1-13.81-3.91l-.43-49.23V452.51s-2.4-11.81-2.64-12.8a38.31,38.31,0,0,0-2.39-4.71l-9.87-3.07-104.11-29.34-1.9,14.39-1.26,40.14s1.74,75.7,6.23,125.39,12.43,114,12.43,114-34.86,13.51-43.7,14.7-66.75,15.26-108.89,12.53-55.32-5.3-55.32-5.3l-17.75-7.92S1026.32,539,1023.3,511.82,1016,438.24,1008.79,442.07Z" fill="#fff" fill-rule="evenodd"/><path d="M911.45,1131.86c-27.26,22.69-51.16-19.34-61.6-11.65-26.28,19.36-38.63,40.91-72.15,50.75-3.1.9-41.91,2.52-39.29,23.46.42,3.32,1,9,5.26,12.36,6.82,5.35,19.3,7.86,27.12,8.81,37.67,4.62,71-14.72,98.6-14.94,12.57-.11,37.71,3.78,48,1.17,11.61-2.94,11.51-12.64,12.7-23.39C930.59,1174.25,937.42,1110.25,911.45,1131.86Z" fill="#a3856b" fill-rule="evenodd"/><path d="M1513.62,1277.13c9.37,34.21-38.77,38.58-36.1,51.25,6.75,31.95,21.26,52.11,16.34,86.69-.46,3.2-16.73,38.19,3.22,45.07,4.73,1.63,11.08,2.61,16,.34,7.85-3.65,13.87-12.83,18-19.56,19.79-32.38,20.34-79.64,31.58-104.9,5.23-11.76,16.11-25.55,17-34.36,1-9.45-5.38-15.76-15.86-22.25C1560.17,1277.19,1504.7,1244.55,1513.62,1277.13Z" fill="#a3856b" fill-rule="evenodd"/><path d="M1479.39,1323.11l-9.54-21.36s25-12.29,29.36-17.09,11.63-13.85,11.63-13.85,4.39,15.55,3.86,18.06-9.17,17.56-13.32,19.66S1479.39,1323.11,1479.39,1323.11Z" fill="#ffe4ce" fill-rule="evenodd"/><path d="M858.44,1119.27l2.38-7.33s21.55,2.38,27.11,2.32,16.88-1.79,21.33-3.27,8.94-3.11,8.94-3.11.25,13.22,1,15.86,1.12,3.71,1.12,3.71-7.31,3.82-11.62,6.47-7.57,4.75-14.26,4.73-13.75-4.17-20.21-7.74S858.44,1119.27,858.44,1119.27Z" fill="#ffe4ce" fill-rule="evenodd"/><path d="M1378.47,576.44s-5.2,12.82-8.35,17.55-18.13,23.57-16.38,29.94,5.82,18.83,6.46,22.11,1.14,8.82,1.41,11.05,1.59,8.32,4.27,8.7,7.32-.76,7.32-.76,1.75,4.72,3.46,5.91,2.32,2.19,3.94,1.69,5.87-4.44,5.87-4.44a7.68,7.68,0,0,0,4.23,2c2.45.22,5.65.66,6.62-.15a12.7,12.7,0,0,0,2.06-3s6-.19,7.45-.41,7-1.8,7-1.8a28,28,0,0,0,6.64-1.62c2.38-1.11,7.22-7.75,8.74-13.53s3.56-14.93,3.56-14.93-1.91-18.32-3.2-26.49-2.41-19.17-2.41-19.17l.21-10.74S1400.21,581.56,1378.47,576.44Z" fill="#ffe4ce" fill-rule="evenodd"/><path d="M973.42,405.52l19-7.73,31.09-16.66s8.79-5.17,11.65-4.67,9,3.83,11.26,6.62,12.13,18.67,12.13,18.67,2.4,11.18-2.47,17.15-3.32,5.63-6.73,7.77a55.38,55.38,0,0,1-5.79,3.21s-1.51,4.67-4.51,6.59-4.18,1.55-6.34,4.22-3,4.44-8.54,5.79-9.88-1.48-12.26-2.52-4.68-3.27-5.72-3.42-7.86-.43-11.21-.47-8.34.08-9.28.21S975,443.69,975,443.69,971.52,411.57,973.42,405.52Z" fill="#ffe4ce" fill-rule="evenodd"/><path d="M1068.81,338.49s1.78-16-5.47-20.08-13.09-7.06-15.29-5.87-15.41-.18-17-1.22-7.2-6.1-8-12.29-2-22.9-2-22.9-.84-14.79-2.63-16.95a41,41,0,0,1-3.92-6.61s2.64-5.46,4.51-6.39,7.81-5.83,7.89-11-1.79-17.82-1.79-17.82-.08-34.83,10.22-36.58,26.63-5.62,43.87,6,40.41,30.32,44,36,11.29,6.84,10.11,24.07-3.25,43.31-1.55,48.11,3.15,15,3.47,15.9,2,5.86,2,5.86-25,20.52-27.28,23.1a60.22,60.22,0,0,0-8.65,13.65l-2.34,5.37-8.35.68a12.33,12.33,0,0,0-6.06-9.2C1078.8,346.78,1068.81,338.49,1068.81,338.49Z" fill="#ffe4ce" fill-rule="evenodd"/><path d="M1475.09,1312.22l-4.72-10.66s15.33-6.73,20.94-10.55,11.31-9.24,13.47-12.51,6.39-9,6.39-9l3,10.06S1508.51,1296.85,1475.09,1312.22Z" fill="#ffbca9" fill-rule="evenodd"/><path d="M859.65,1116.5l1.17-4.56A125.9,125.9,0,0,0,878,1114.3c7.35.29,18.64.15,21.39-.74s9.66-1.64,12.26-2.83,6.59-2.85,6.59-2.85l.18,12.13S886.87,1128.05,859.65,1116.5Z" fill="#ffbca9" fill-rule="evenodd"/><path d="M1377.23,581.81l1.24-5.37s14.36,3.29,17.26,3.36,13.44.67,16.64.45,11.64-1.51,11.64-1.51l3.31-.39-.35,7.46S1397.66,591.32,1377.23,581.81Z" fill="#ffbca9" fill-rule="evenodd"/><path d="M1010.27,439.46s4.34-4.8,7.33-2.74,7.88,6.78,10.87,7,3.73-.23,1.27,1.59-8.77,4.58-12.71,2.57-6.69-2.52-7.13-4.53A6.87,6.87,0,0,1,1010.27,439.46Z" fill="#ffbca9" fill-rule="evenodd"/><path d="M979.87,403.57l-6.58,2.52a87.44,87.44,0,0,0-1.06,9c-.07,3,1.48,23.8,2.11,26a22.87,22.87,0,0,1,.79,3.8l11.44-4.19S980.1,433.14,979.87,403.57Z" fill="#ffbca9" fill-rule="evenodd"/><path d="M1035.07,198.26c6.39-1.79,5.66,5.37,9.82,14.59,8.5,18.82,18.74,15.94,34.27,19.47,10,2.26,11.92,5.9,18,12.62,2.27,2.51,8.17-1.33,7.28-8.91s-11.89-33-19.77-40.57-24.07-23.18-31.35-21.25-14.54-3-18.79,4.54-3,20.13-3,20.13Z" fill="#ffbca9" fill-rule="evenodd"/><path d="M1085.33,375.28l-5.52-3.66.55-9.08.88-7.64a32.16,32.16,0,0,0,5,4.08c1.8.93,5.67,1,5.63.81s4-.75,4.7-.13a4.5,4.5,0,0,0,2.21,1.06c.3-.07,7.37-5.2,7.37-5.2l5.84,12.91-9,7.9s-.53,5-.48,6.72a64.4,64.4,0,0,0,1.19,6.83s3.93,19.89,9.33,29.8,19.86,30.91,29.42,39.48,41,34.49,81.66,51.46,76.61,28.43,76.61,28.43,9.25,6.6,12.79,10.06,13.61,24,14.24,25.74-.45,2.31-2.6,2.68-18.13,2.85-18.8,2.87-10.58.34-16.1-.52-6.33-.45-12.35-3.6a147.65,147.65,0,0,0-14.14-6.14L1214,544.51s-51.9-33.92-70.62-52.57-37-43.77-45.5-66.17S1089,385,1089,385l-2.94-8.8Z" fill="#7d38ce" fill-rule="evenodd"/><path d="M1137.07,317.45a2.39,2.39,0,0,1-2.13-1.31c-3.1-6.22-4.22-13.05-5.3-19.65-.19-1.17-.38-2.35-.59-3.53a2.38,2.38,0,0,1,4.69-.81c.21,1.19.4,2.39.6,3.58,1.06,6.54,2.08,12.71,4.86,18.28a2.38,2.38,0,0,1-2.13,3.44Z" fill="#571519"/><path d="M1116.48,372.85a7,7,0,0,1-1.38-.14c-5.08-1.07-7.6-7.45-9.83-13.08a48.43,48.43,0,0,0-2.09-4.78,27.35,27.35,0,0,0-2,4.68,2.38,2.38,0,0,1-4.5-1.54c1.74-5.08,3.5-8.48,6.41-8.55,3.29-.2,4.61,3.5,6.57,8.44,1.52,3.83,3.81,9.63,6.39,10.17,1.39.31,3.2-1.11,4.45-2.35,13.85-13.68,31.81-40.12,28-52.14l-.36-1.22c-1-3.62-3.23-11.14-8.06-13.66-2.1-1.08-4.51-1.14-7.38-.16a2.38,2.38,0,1,1-1.53-4.51c4.11-1.4,7.84-1.24,11.1.46,6.64,3.45,9.2,12.29,10.44,16.54l.33,1.14c4.57,14.61-14.75,42.61-29.24,56.94C1121.34,371.59,1118.86,372.85,1116.48,372.85Z" fill="#571519"/><path d="M1035,194.7s-7.65,12.71-7.65,17.76-.36,15.3-.36,15.3-3.45,2.69-6.85-1.18c-2.72.95-10,2.89-14.48-1.49s-6.18-12.36-2.94-20,8.7-10.38,8.7-10.38,4.27-4.95,4.49-15.57,10.92-20.36,14.56-21.62,13.52-1.64,15.68-.9,13.91,5.25,21.3-4.62,25.81-17.68,40.59-13.77a104.75,104.75,0,0,1,27,11.41c3.57,1.93,7.66,4.84,11.45,5.21a83.26,83.26,0,0,0,10.92-.22s5.42,1,3.12,4.15-6.2,3.87-6.32,4.38,5.31,2.18,9.27,8.26,6.28,12.77,8.7,14.87,8.68,4.09,11.07,4.3,4.47,3.11,3.8,4.82c-1.54,3.94-11.17,3-14.57,2.68,0,0,8.78,7.72,4,26.74s-17.19,35.71-22.67,41.4-9,11.06-9.68,13.55-1.38,6.53.12,8.12c8.85,9.39-1.82,10.76-4.76,6.9-1.3-1.21-5.44,5.29-14.72-2.51-3.27-2.75-6.39-7.75-7.91-11.12S1115,272,1115,272s8.43-6.07,10.15-12,.82-16.06-3-17.78a26.77,26.77,0,0,0-9.58-1.83c-.74,0-5.93-.18-5.93-.18l-2.24,3.82s-3.67,4.82-7-7.81-16.58-9.45-18.67-11.14-6-4.59-6-4.59-8.16,0-12.15-2.6-9.79-9-11.28-13.4-.63-12.7-2-14.22S1039.81,187.35,1035,194.7Z" fill="#7d38ce" fill-rule="evenodd"/><path d="M1048.05,312.54s10.77-3,15.73-5.47c.81-.4,16.13-10.16,15.54-6.52a29.78,29.78,0,0,1-13.27,20.55S1062.78,314.43,1048.05,312.54Z" fill="#ffbca9" fill-rule="evenodd"/><path d="M1027.19,238.62s-2.77,4.71-5.83,6.7-7,5-6.1,7.77,4,10.47,4,10.47S1027.54,261.11,1027.19,238.62Z" fill="#ffaaa9" fill-rule="evenodd"/><path d="M1106.52,276c-.56,0-1.1,0-1.62-.05a2.37,2.37,0,1,1,.3-4.74c5,.31,12.07-1.23,15.55-6.6,4-6.12,4.9-13.69,2.25-18s-8-4.52-12-4.08a2.38,2.38,0,1,1-.51-4.73c9.82-1.06,14.44,2.85,16.57,6.31,4.23,6.89,1.77,16.8-2.31,23.09C1120.51,273.67,1112.84,276,1106.52,276Z" fill="#571519"/><path d="M1109,261.72a2.38,2.38,0,0,1-2-3.61c.52-.86,3.31-5.2,6.76-6.08a2.38,2.38,0,1,1,1.17,4.61c-1.13.29-3,2.47-3.87,3.94A2.39,2.39,0,0,1,1109,261.72Z" fill="#571519"/><path d="M1049.47,241.35a2.38,2.38,0,0,1-1.78-.8c-4.48-5-9.27-4.54-9.47-4.52a2.38,2.38,0,0,1-.61-4.72c.3,0,7.4-.91,13.63,6.08a2.38,2.38,0,0,1-1.77,4Z" fill="#571519"/><path d="M1053.38,225.78a2.33,2.33,0,0,1-1.14-.29c-9.27-5.08-15.58-2.57-15.85-2.47a2.37,2.37,0,0,1-1.88-4.36c.35-.16,8.58-3.6,20,2.66a2.38,2.38,0,0,1-1.15,4.46Z" fill="#571519"/><path d="M1042.81,233.52c2.16.19,3.68,2.71,3.41,5.61s-2.23,5.09-4.38,4.89-3.68-2.71-3.41-5.61S1040.66,233.31,1042.81,233.52Z" fill="#571519" fill-rule="evenodd"/><path d="M1069.8,341.44a2.37,2.37,0,0,1-2.37-2.34c-.2-14.36-2.2-17.43-9.44-21.24-3.86-2-8.42-2-13.21-2-8.38,0-17.86.09-22.92-12.23-1.5-3.65-2-10.69-2.51-18.85-.62-9.36-1.39-21-4-24.42-2.43-3.13-3.42-5.75-3.1-8.25.44-3.48,3.24-5.65,6.21-7.94a43.47,43.47,0,0,0,4-3.41c2.09-2,2.6-4.49,2-16.71-.47-9,2.64-20.79,7.91-30.07a2.38,2.38,0,0,1,4.14,2.35c-4.79,8.42-7.72,19.46-7.3,27.47.66,12.55.3,16.75-3.36,20.35a50.32,50.32,0,0,1-4.47,3.78c-2.26,1.75-4.21,3.26-4.4,4.77-.15,1.14.57,2.73,2.13,4.74,3.55,4.57,4.3,16,5,27,.47,7.09,1,14.42,2.16,17.35,3.84,9.36,10.31,9.32,18.49,9.28,5.2,0,10.54-.06,15.45,2.52,9.41,4.94,11.76,9.93,12,25.38a2.38,2.38,0,0,1-2.34,2.41Z" fill="#571519"/><path d="M1033.37,283.31A27.44,27.44,0,0,1,1029,283a2.38,2.38,0,0,1,.74-4.7c6.55,1,9.92-.72,14.18-2.94l1.08-.56a2.37,2.37,0,1,1,2.17,4.22l-1,.55C1042.59,281.39,1038.91,283.31,1033.37,283.31Z" fill="#571519"/><path d="M1051.28,244.48c6.71.6,11.86,4.22,11.51,8.08s-6.07,6.5-12.77,5.89-11.86-4.22-11.51-8.08S1044.58,243.87,1051.28,244.48Z" fill="#ffaaa9" fill-rule="evenodd"/><path d="M1059.67,159.1a2.33,2.33,0,0,1-.82-.15c-9.35-3.42-11.31-8.1-12.88-11.86-.3-.72-.58-1.41-.93-2.06a2.38,2.38,0,1,1,4.2-2.23c.42.78.76,1.6,1.12,2.46,1.4,3.35,2.72,6.52,10.13,9.23a2.38,2.38,0,0,1-.82,4.61Z" fill="#571519"/><path d="M1004.39,226.31a2.41,2.41,0,0,1-1.24-.34,10.86,10.86,0,0,1-4.94-8c-1-6.29,1.85-14.66,5-18.24,2-2.34,3.84-4.08,5.42-5.61,4.24-4.12,5.83-5.66,5.27-11.66-1.35-14.47,7.29-21.77,12.56-24.83,8.67-5,20.11-5.74,26.06-1.58a2.37,2.37,0,1,1-2.72,3.89c-3.93-2.74-13.28-2.67-21,1.8-5.24,3-11.26,9-10.21,20.28.77,8.27-2.2,11.15-6.7,15.51-1.52,1.47-3.24,3.14-5.16,5.34s-4.65,9.28-3.86,14.38a6.17,6.17,0,0,0,2.71,4.64,2.38,2.38,0,0,1-1.23,4.41Z" fill="#571519"/><path d="M1021,229a2.45,2.45,0,0,1-1-.2c-1.86-.81-3.32-2.66-4.21-5.34-1.55-4.63-1.19-10.83.83-14.42a2.38,2.38,0,1,1,4.14,2.34c-1.36,2.41-1.57,7.26-.46,10.57a4.08,4.08,0,0,0,1.6,2.49A2.38,2.38,0,0,1,1021,229Z" fill="#571519"/><path d="M1073.54,223.53c-18-.67-27.41-13.05-27.49-24.95,0-8.68-2.8-12.08-5.13-12.34a2.79,2.79,0,0,0-3,2.16,2.38,2.38,0,1,1-4.63-1.1,7.55,7.55,0,0,1,8.18-5.79c2.17.25,9.27,2.21,9.36,17,.06,9.63,7.92,19.67,22.81,20.23a2.38,2.38,0,0,1-.08,4.75Z" fill="#571519"/><path d="M1097.41,238.61a2.38,2.38,0,0,1-2.31-1.82c-.83-3.43-3.44-4.49-8.81-6.4-8.77-3.12-22-7.83-29.53-33.33a2.38,2.38,0,1,1,4.56-1.34c6.82,23.17,17.77,27.06,26.57,30.19,5.33,1.89,10.36,3.68,11.83,9.76a2.37,2.37,0,0,1-1.75,2.87A2.2,2.2,0,0,1,1097.41,238.61Z" fill="#571519"/><path d="M1099.45,210.9c-12.52,0-26.45-16.18-28.47-23.34a2.37,2.37,0,0,1,4.57-1.29c1.51,5.34,14.55,20.94,24.87,19.82a2.38,2.38,0,1,1,.5,4.73A14.32,14.32,0,0,1,1099.45,210.9Z" fill="#571519"/><path d="M1105.28,245a2.34,2.34,0,0,1-1.26-.37,2.38,2.38,0,0,1-.75-3.28c1.34-2.11,5.33-9.41.91-14.83a2.38,2.38,0,1,1,3.68-3c4.34,5.32,4.13,12.94-.56,20.38A2.39,2.39,0,0,1,1105.28,245Z" fill="#571519"/><path d="M1126.84,295a2.5,2.5,0,0,1-1-.22c-7.69-3.58-12.28-11.37-13.26-22.52a2.38,2.38,0,0,1,4.74-.42c.83,9.5,4.38,15.76,10.52,18.62a2.38,2.38,0,0,1-1,4.54Z" fill="#571519"/><path d="M1151.06,157.68c-8.39,0-13.39-3.48-18.61-7.13a50.17,50.17,0,0,0-12.72-7c-18.16-6.31-41.81-5.66-50.84,10.68a2.38,2.38,0,1,1-4.17-2.3c10.37-18.75,36.59-19.82,56.57-12.87a54.55,54.55,0,0,1,13.88,7.58c6.15,4.29,11,7.68,21.82,5.68a2.38,2.38,0,0,1,.87,4.68A37.76,37.76,0,0,1,1151.06,157.68Z" fill="#571519"/><path d="M1182.24,193c-10.5,0-14.48-8-18-15.12-4-8-6.81-12.83-14.75-12.08a2.38,2.38,0,1,1-.46-4.73c11.62-1.1,15.79,7.29,19.47,14.69,3.53,7.09,6.56,13.23,15.4,12.4a2.38,2.38,0,0,1,.43,4.74C1183.6,193,1182.91,193,1182.24,193Z" fill="#571519"/><path d="M1145.78,291.91a2.39,2.39,0,0,1-1.51-.54c-8.28-6.8-.15-16.78,4.22-22.14.55-.67,1.06-1.3,1.49-1.86l1.6-2.06c13.66-17.63,34.29-44.26,18.48-66.51a2.38,2.38,0,0,1,3.88-2.76c17.85,25.13-4.08,53.45-18.6,72.18l-1.6,2.06c-.45.59-1,1.24-1.56,2-6,7.38-8.76,12.28-4.89,15.45a2.38,2.38,0,0,1-1.51,4.22Z" fill="#571519"/><path d="M1140.71,298.22a2.38,2.38,0,0,1-1.41-.46c-.67-.5-6.59-5-6.55-11a2.38,2.38,0,0,1,4.76,0c0,3.07,3.32,6.23,4.62,7.19a2.38,2.38,0,0,1-1.42,4.29Z" fill="#571519"/><path d="M1032.36,173.34a10.26,10.26,0,0,0-3.74,3.7c-2.41,3.91-7.61,5.16-7-.44.61-5.85,11-16.59,16.46-14.7C1045.87,164.6,1035.35,172.21,1032.36,173.34Z" fill="#a68278" fill-rule="evenodd"/><path d="M1036.05,179.61a6.93,6.93,0,0,1,2.65-2.38c2.75-1.48,3.79-4.95,0-4.78-4,.18-11.66,6.79-10.6,10.56C1029.6,188.41,1035.17,181.59,1036.05,179.61Z" fill="#a68278" fill-rule="evenodd"/><path d="M1165,222.47a10.19,10.19,0,0,1-.92,5.18c-1.87,4.2,0,9.2,4.34,5.55,4.48-3.82,7.45-18.46,2.79-21.9C1164.52,206.39,1164.2,219.37,1165,222.47Z" fill="#69423a" fill-rule="evenodd"/><path d="M1157.7,223a6.88,6.88,0,0,0,.48-3.53c-.34-3.1,1.93-5.93,3.94-2.69s1,13.45-2.7,14.72C1154.11,233.28,1156.57,224.83,1157.7,223Z" fill="#69423a" fill-rule="evenodd"/><path d="M920.35,1129.82a2.38,2.38,0,0,1-2.26-1.63c-2.93-8.84-3-14.25-2.25-20.6a2.38,2.38,0,1,1,4.72.59c-.73,5.81-.62,10.48,2,18.52a2.37,2.37,0,0,1-1.5,3A2.18,2.18,0,0,1,920.35,1129.82Z" fill="#571519"/><path d="M783,1207.28a93.24,93.24,0,0,1-11.43-.68c-18.28-2.25-29-5.71-33.56-10.91-3.58-4-3.43-7.49-2.68-9.68,3.15-9.14,22.52-13.79,39-16.82,1.36-.25,2.3-.42,2.65-.52,22.09-6.48,34.47-17.9,48.8-31.12a263.07,263.07,0,0,1,22.61-19.26c5.29-3.89,11.94.81,19.65,6.25,11.67,8.25,26.19,18.5,41.84,5.49,8.07-6.71,13.32-5.4,16.31-3.11,11.39,8.69,7.73,48.81,6,52.5-7.14,15.63-20.54,14-36,12.13a158.57,158.57,0,0,0-20.88-1.56c-11.09.09-24.25,3.72-38.19,7.55C820.42,1202.15,801.8,1207.28,783,1207.28Zm69.84-85.63a2.67,2.67,0,0,0-1.59.47,259.63,259.63,0,0,0-22.21,18.93c-14.15,13-27.52,25.39-50.68,32.19-.41.11-1.51.33-3.13.63-27.07,5-34.2,10.18-35.4,13.69-.19.54-.75,2.17,1.74,5,3.69,4.17,14,7.31,30.58,9.35,21.68,2.66,44-3.49,63.75-8.92,14.24-3.93,27.7-7.63,39.41-7.72a157.27,157.27,0,0,1,21.49,1.59c15.33,1.86,25.46,3.08,31.15-9.39,1.31-3.54,4.2-40.53-4.75-46.85-2.35-1.66-5.78-.61-10.24,3.09-18.45,15.36-35.31,3.44-47.63-5.25C860.44,1125,855.76,1121.65,852.85,1121.65Z" fill="#571519"/><path d="M778.29,1218.29a85.43,85.43,0,0,1-9-.45c-7.1-.73-25.22-6.24-28.66-10.65-2.44-3.12-4-9.41-5.18-15.15l-.23-1.09a2.38,2.38,0,0,1,4.65-1l.24,1.16c.6,2.88,2.18,10.52,4.26,13.18s17.7,8,25.41,8.85c18.27,1.91,39.46-3,60-7.75,12.16-2.81,23.66-5.47,34.37-6.72,8.25-1,17.4,0,26.25.86,15.56,1.57,30.26,3.06,34.89-6.68,2-4.23,2.55-12.06,2.59-14.72a2.38,2.38,0,0,1,4.76.07c0,.43-.19,10.66-3.06,16.69-6.07,12.77-22.39,11.11-39.66,9.37-8.6-.87-17.48-1.78-25.22-.87-10.45,1.22-21.82,3.85-33.85,6.64C813.17,1214.08,795,1218.28,778.29,1218.29Z" fill="#571519"/><path d="M857.23,1122.82a2.39,2.39,0,0,1-2-1.15,2.37,2.37,0,0,1,.82-3.26c1.08-.65,1.89-4,2-6.64a2.46,2.46,0,0,1,2.42-2.33,2.37,2.37,0,0,1,2.33,2.42c0,1.36-.34,8.28-4.26,10.63A2.43,2.43,0,0,1,857.23,1122.82Z" fill="#571519"/><path d="M1495.92,1462.09a8.26,8.26,0,0,1-5.89-2.23c-7-6.64-3.23-26.2.84-42.49.34-1.34.58-2.27.64-2.63,3.24-22.8-2-38.79-8.14-57.31a259.79,259.79,0,0,1-8.17-28.55c-1.36-6.43,5.67-10.54,13.82-15.3,12.34-7.21,27.69-16.18,22.31-35.82-2.77-10.12.6-14.36,3.92-16.14,12.66-6.78,47.64,13.17,50.29,16.23,11.29,13,4.26,24.49-3.88,37.84a159.47,159.47,0,0,0-10.05,18.36c-4.51,10.13-6.66,23.61-8.93,37.88-3.29,20.64-7,44-18.91,63.46-9.6,15.72-17.17,24-23.82,26A13.65,13.65,0,0,1,1495.92,1462.09Zm20-185.58c6.34,23.15-11.49,33.57-24.5,41.17-6.28,3.68-12.22,7.14-11.57,10.21a256.69,256.69,0,0,0,8,28c6,18.3,11.72,35.57,8.32,59.47-.06.41-.32,1.51-.72,3.11-6.68,26.7-4.88,35.34-2.19,37.89.42.39,1.66,1.59,5.25.48,5.33-1.64,12.45-9.71,21.17-24,11.39-18.62,15-41.52,18.26-61.73,2.33-14.58,4.52-28.36,9.28-39.06a163.73,163.73,0,0,1,10.34-18.9c8-13.19,13.35-21.9,4.35-32.25-2.68-2.66-35.14-20.62-44.62-15.06-2.47,1.44-2.94,5-1.41,10.6Z" fill="#571519"/><path d="M1508.23,1464.13a62.78,62.78,0,0,1-12.65-1.89l-1.09-.25a2.38,2.38,0,1,1,1-4.65l1.16.26c2.87.65,10.49,2.37,13.76,1.58s14.66-12.78,18.57-19.46c9.3-15.86,13.6-37.17,17.76-57.78,2.48-12.24,4.81-23.81,8.11-34.08,2.54-7.91,7.17-15.86,11.64-23.54,7.88-13.52,15.31-26.28,8.37-34.52-3-3.59-9.93-7.32-12.33-8.46a2.37,2.37,0,1,1,2-4.29c.4.18,9.63,4.58,13.93,9.68,9.11,10.81.85,25-7.89,40-4.34,7.47-8.84,15.19-11.22,22.6-3.22,10-5.53,21.46-8,33.57-4.24,21-8.62,42.7-18.31,59.24-3.61,6.15-16.12,20.36-21.56,21.68A14.22,14.22,0,0,1,1508.23,1464.13Z" fill="#571519"/><path d="M1479.39,1325.49a2.38,2.38,0,0,1-2.29-1.72c-2.23-7.79-9.26-20.76-9.34-20.89a2.38,2.38,0,0,1,4.18-2.27c.3.55,7.36,13.56,9.73,21.85a2.37,2.37,0,0,1-1.62,2.94A2.5,2.5,0,0,1,1479.39,1325.49Z" fill="#571519"/><path d="M1118.88,726.26c-36,0-65.65-4.69-75.82-14a2.36,2.36,0,0,1-.75-1.41c-6.82-46.37-11.71-98.21-16-144-4.37-46.27-8.49-90-13.83-120.16a2.38,2.38,0,0,1,4.69-.83c5.36,30.38,9.5,74.18,13.87,120.54,4.29,45.39,9.14,96.81,15.88,142.84,24.45,20.2,155.62,15.31,220.79-14.19-4.27-26.41-9.58-77.1-13.32-127.3a2.38,2.38,0,0,1,4.74-.35c3.82,51.23,9.27,102.93,13.56,128.66a2.38,2.38,0,0,1-1.34,2.55C1231.77,717.13,1169.12,726.26,1118.88,726.26ZM1253.8,524.79a2.38,2.38,0,0,1-2.37-2.25c-2.23-41.23-3.86-95.58,1.06-120.42a2.38,2.38,0,0,1,4.66.93c-4.82,24.35-3.19,78.28-1,119.23a2.38,2.38,0,0,1-2.25,2.51Z" fill="#571519"/><path d="M1117.72,726.11a2.38,2.38,0,0,1-2.33-2c-19.06-104.64-26.81-239-24.43-312.29a2.42,2.42,0,0,1,2.45-2.29,2.38,2.38,0,0,1,2.3,2.45c-2.37,73.05,5.36,207,24.36,311.27a2.4,2.4,0,0,1-1.92,2.77A3,3,0,0,1,1117.72,726.11Zm-19.11-363.77a2.72,2.72,0,0,1-.63-.08,2.38,2.38,0,0,1-1.66-2.93c5-18.13,17.23-26.74,27.06-33.65,5.71-4,10.64-7.48,12.68-11.82a7.13,7.13,0,0,0,.21-5.71,4.22,4.22,0,0,0-2.78-2.37,2.38,2.38,0,0,1,1.33-4.57,9,9,0,0,1,5.78,5,11.88,11.88,0,0,1-.24,9.69c-2.58,5.47-8,9.28-14.24,13.68-9.69,6.81-20.67,14.54-25.22,31A2.37,2.37,0,0,1,1098.61,362.34Z" fill="#571519"/><path d="M1090.62,361.82a2.38,2.38,0,0,1-2.17-1.4c-2.75-6.05-5.12-8.83-10.18-11.9-10.27-6.22-15.28-11.58-15.78-16.87-.3-3.16,1-6.08,3.93-8.7a2.38,2.38,0,1,1,3.18,3.54c-1.75,1.57-2.53,3.11-2.38,4.71.34,3.57,4.88,8,13.51,13.25,5.88,3.56,8.92,7.1,12,14a2.38,2.38,0,0,1-1.18,3.15A2.47,2.47,0,0,1,1090.62,361.82Z" fill="#571519"/><path d="M1077.55,376.61c-3,0-6.55-3.69-12.31-12.78l-1.43-2.22c-3.92-6.09-8.36-13-9.09-21.17-.63-7.22.55-16.92,4.66-21.15a6.82,6.82,0,0,1,5.31-2.22,2.38,2.38,0,0,1-.26,4.75,2,2,0,0,0-1.64.78c-2.5,2.58-4,10.23-3.33,17.42.62,7,4.55,13.12,8.35,19l1.45,2.25c4.64,7.33,6.93,9.59,7.9,10.28.5-1.56.66-5.33.76-7.7.27-6.3.52-12.26,4.18-13.93,1.92-.88,4.18-.31,6.71,1.69a2.38,2.38,0,1,1-3,3.73c-1.34-1.06-1.89-1.07-1.9-1.07-.91.83-1.16,6.65-1.29,9.78-.27,6.39-.49,11.44-4.12,12.41A3.77,3.77,0,0,1,1077.55,376.61Z" fill="#571519"/><path d="M1406.18,582c-11.88,0-24.57-1.36-33-5.67a2.39,2.39,0,0,1-1.3-2.13c.11-18.77-.22-37.3-.53-55.21-.67-38-1.25-70.91,2.75-89.67,2.41-11.31,5.88-22.55,19.28-24.84a2.37,2.37,0,0,1,.8,4.68c-9.53,1.64-12.78,8.7-15.43,21.15-3.89,18.23-3.31,50.84-2.65,88.59.31,17.47.63,35.51.55,53.82,15.82,7,47.08,4.38,56.75,2.17.2-6.61,1.13-18.49,2.29-33.16,3.93-50.11,11.26-143.37-1.73-158.21-20.64-23.56-174.61-78.87-199.74-82.07-15.51-2-28.42,1.06-54.15,7.11-8.21,1.93-17.51,4.12-28.7,6.58a2.38,2.38,0,0,1-1-4.65c11.15-2.45,20.44-4.63,28.63-6.56,26.29-6.18,39.5-9.28,55.84-7.2,21.23,2.7,180.5,58.29,202.72,83.66,13.2,15.08,8.67,88.15,2.89,161.71-1.26,16.05-2.26,28.72-2.32,34.65a2.36,2.36,0,0,1-1.66,2.24C1432.76,580.2,1420,582,1406.18,582Z" fill="#571519"/><path d="M1373.41,448.5a2.37,2.37,0,0,1-2.16-1.38c-5.46-11.83-5.57-31.43,3-41.73a2.38,2.38,0,1,1,3.66,3c-7.29,8.8-7.07,26.41-2.31,36.71a2.37,2.37,0,0,1-1.17,3.15A2.33,2.33,0,0,1,1373.41,448.5Z" fill="#571519"/><path d="M1370.35,437.89a2.45,2.45,0,0,1-.93-.19c-5.09-1.82-116.51-36-137.2-36.88a2.39,2.39,0,0,1-2.28-2.48,2.34,2.34,0,0,1,2.48-2.28c18.74.78,137.07,35.51,139.51,37.67a2.38,2.38,0,0,1-1.58,4.16Z" fill="#571519"/><path d="M860.19,516.25c-12.72,0-24.77-3.39-30.81-13.5-9.53-16-5.44-37.36,11.24-58.72,18.43-23.62,52.63-43.12,85.69-62,20.58-11.74,40-22.83,55.33-34.57,19.67-15.09,42.11-14.63,68.1-14.1l7.24.14a2.38,2.38,0,0,1,2.34,2.41,2.32,2.32,0,0,1-2.41,2.34l-7.27-.13c-25.09-.53-46.76-1-65.11,13.11-15.56,11.94-35.14,23.11-55.86,34.93C896,404.81,862.22,424.08,844.37,447c-7.29,9.34-22.94,33.22-10.91,53.36,10.53,17.62,45.86,11,62.43,3.59,19.22-8.62,41.82-20.92,60-30.79,13.54-7.37,23.33-12.69,27.18-14a2.38,2.38,0,0,1,1.56,4.5c-3.48,1.2-14.13,7-26.47,13.7-18.23,9.92-40.92,22.26-60.3,31A100.64,100.64,0,0,1,860.19,516.25Z" fill="#571519"/><path d="M856.17,451.73a2.29,2.29,0,0,1-1.13-.29,2.38,2.38,0,0,1-1-3.22c9.09-16.83,24.68-21.13,53-28.92,17.59-4.85,39.48-10.88,68.53-22a2.38,2.38,0,0,1,1.69,4.45,700.76,700.76,0,0,1-69,22.09c-27.91,7.69-41.92,11.55-50,26.6A2.37,2.37,0,0,1,856.17,451.73Z" fill="#571519"/><path d="M1460.54,1307.13a2.39,2.39,0,0,1-2-1.07c-3.5-5.33-23.06-28.88-47.82-58.71-27-32.52-60.59-73-88.31-107.79a107.28,107.28,0,0,0-21.45-20.62c-7.73-5.92-15.72-12-26.73-28.15-32.79-48-52.62-89.15-92-181.14-18.6-43.43-46.17-75.66-62.07-81.74a2.38,2.38,0,1,1,1.7-4.44c19.19,7.34,47.63,44.37,64.75,84.3,39.28,91.69,59,132.71,91.58,180.34,10.59,15.48,17.93,21.1,25.7,27.06a111.49,111.49,0,0,1,22.28,21.43c27.69,34.76,61.27,75.21,88.25,107.71,24,28.87,41.76,50.3,47.12,57.67,25.31-7.68,42.59-18.42,55.15-48.49-13.85-21.07-25.49-40.44-36.76-59.18-30.37-50.5-54.35-90.39-99.27-127.4-32.89-27.11-48.89-104.89-65.83-187.24-13.35-64.86-27.15-131.93-50-180.62a2.38,2.38,0,0,1,4.3-2c23.13,49.2,37,116.55,50.39,181.68,16.76,81.51,32.6,158.49,64.19,184.52,45.55,37.55,70.93,79.75,100.32,128.62,11.44,19,23.26,38.68,37.35,60.07a2.41,2.41,0,0,1,.22,2.21c-13.53,33.24-33.11,44.88-60.33,52.91A2.57,2.57,0,0,1,1460.54,1307.13Z" fill="#571519"/><path d="M882.65,1116.67c-12.69,0-24.58-2.1-31.81-5.9a2.36,2.36,0,0,1-1.25-1.74c-5.51-35.32-18.77-81.64-32.81-130.67-12.42-43.38-25.27-88.24-34-129.75-6.74-32-4.63-53.92,6.28-65.24,45.81-47.5,201.08-69.48,257-73.93a2.38,2.38,0,0,1,.38,4.74c-55.47,4.41-209.22,26.05-254,72.49-9.74,10.11-11.44,30.62-5,61C796.13,889,809,933.75,821.35,977.05c13.92,48.63,27.08,94.59,32.75,130,18.41,8.73,59.68,5.9,73.9-8.3q-2.13-25.1-3.94-47.59c-9.56-116.73-14.82-181-38.23-200.5a2.38,2.38,0,1,1,3-3.66c25,20.75,30.27,85.76,39.93,203.77q1.88,23,4,48.65a2.42,2.42,0,0,1-.61,1.8C922.46,1112,901.65,1116.67,882.65,1116.67Z" fill="#571519"/><path d="M897.89,864.91a2.38,2.38,0,0,1-.81-4.61c30.38-11,82.24-12,137.14-13.07,37.88-.74,77-1.51,109.48-5.74a2.37,2.37,0,1,1,.61,4.71c-32.68,4.27-72,5-110,5.79-54.5,1.06-106,2.07-135.61,12.78A2.56,2.56,0,0,1,897.89,864.91Z" fill="#571519"/><path d="M1368.09,668.55a7.9,7.9,0,0,1-4.33-1.18c-4.31-2.75-4.54-9.15-4.69-13.39,0-.57,0-1.09-.07-1.56-.24-4-1.85-8.26-3.56-12.74-3.34-8.76-7.12-18.7-.21-28.63,1.43-2.06,3-4.18,4.54-6.35,6.45-8.9,13.77-19,16.4-28.88a2.38,2.38,0,0,1,4.6,1.23c-2.86,10.74-10.45,21.21-17.15,30.44-1.56,2.15-3.07,4.24-4.49,6.27-5.48,7.88-2.45,15.82.75,24.23,1.76,4.62,3.58,9.39,3.87,14.15,0,.5,0,1.06.07,1.67.11,3,.29,8.14,2.5,9.55,1.49.95,4.06.2,6-.6a2.38,2.38,0,0,1,1.85,4.39A15.75,15.75,0,0,1,1368.09,668.55Z" fill="#571519"/><path d="M1379.83,675.06l-.72,0c-3.56-.3-7.6-3-8.28-9.84-.32-3.26-.44-6.93-.57-10.81-.34-10.65-.72-22.73-5.42-32.87a2.38,2.38,0,0,1,4.31-2c5.11,11,5.53,24.16,5.87,34.72.12,3.8.23,7.38.54,10.49.33,3.31,1.81,5.39,3.94,5.57s4.61-1.38,5.65-5.19a134.36,134.36,0,0,0,3.44-24.28,2.38,2.38,0,1,1,4.75.23,139.1,139.1,0,0,1-3.6,25.3C1388.31,671.58,1384.29,675.06,1379.83,675.06Z" fill="#571519"/><path d="M1392.79,673.6a12,12,0,0,1-6.6-2.24,2.38,2.38,0,1,1,2.62-4c3.16,2.08,4.94,1.52,6,.91,6.64-3.78,8.76-23.71,8.64-26.21a2.42,2.42,0,0,1,2.15-2.53,2.32,2.32,0,0,1,2.57,2c.19,1.32-1.24,24.71-10.59,30.65A8.85,8.85,0,0,1,1392.79,673.6Z" fill="#571519"/><path d="M1403.09,669.72c-1.22,0-2.55-.05-4-.15a2.37,2.37,0,0,1-2.21-2.53,2.4,2.4,0,0,1,2.53-2.21c11.43.77,13-1.15,15.16-10.46.49-2.11,3.05-13.19,3.27-14.3a2.38,2.38,0,0,1,4.7-.05c.11.62.11.62-3.34,15.43C1416.71,666.24,1413.15,669.72,1403.09,669.72Z" fill="#571519"/><path d="M1415.56,667.3a24.25,24.25,0,0,1-3.29-.25,2.38,2.38,0,0,1,.68-4.71c6.54.94,10.18-.4,15-16.78,3.76-12.78,3.08-16.41.2-31.72l-.56-3c-1.26-6.72-4-23.38-2.61-32.84a2.38,2.38,0,0,1,4.71.7c-1.31,8.76,1.36,24.78,2.57,31.27l.56,3c2.9,15.41,3.78,20.06-.3,33.94C1428.13,661.78,1423.76,667.3,1415.56,667.3Z" fill="#571519"/><path d="M983.48,463.73c-3.78,0-6.9-4.49-9.51-13.7-4.46-15.74-7.62-48.82,2.52-53.31a5,5,0,0,1,4.29,0c1.13.55,2.63,1.85,3.35,4.83a2.38,2.38,0,0,1-4.63,1.12c-.27-1.15-.66-1.61-.82-1.69-3.39,1.43-5.38,13.45-3.29,31.17,2,17.2,6.32,26.44,8.15,26.78,1.69-1,3-11.63,1.63-18.35a2.37,2.37,0,1,1,4.65-.94c1.2,5.9.92,17.3-2.24,21.75a5,5,0,0,1-3.43,2.25A3.85,3.85,0,0,1,983.48,463.73Z" fill="#571519"/><path d="M1051.92,424.43a2.38,2.38,0,0,1-1-4.52c4.65-2.24,6.86-7.72,7-9,.77-5.52-3.4-14-12.41-25.25-2.28-2.85-8.16-9.07-13.94-5.93-7,3.42-13.9,7.2-20.57,10.86-12.41,6.82-24.14,13.25-36.32,17.5a2.38,2.38,0,0,1-1.57-4.49c11.81-4.12,23.37-10.46,35.61-17.17,6.72-3.69,13.67-7.5,20.67-10.92,6.19-3.38,13.45-.79,19.81,7.15,3.7,4.61,14.88,18.55,13.43,28.91-.41,3-3.67,9.73-9.68,12.62A2.22,2.22,0,0,1,1051.92,424.43Z" fill="#571519"/><path d="M977.08,444.87a2.38,2.38,0,0,1-.87-4.59c7.77-3,14-2.79,19.55-2.56,6.63.27,12.35.5,19.69-5a2.38,2.38,0,0,1,2.83,3.82c-8.68,6.45-15.82,6.15-22.71,5.88-5.3-.21-10.78-.44-17.62,2.24A2.43,2.43,0,0,1,977.08,444.87Z" fill="#571519"/><path d="M1020.45,450.43c-3.62,0-8.27-2.47-11.1-5-1.55-1.39-3.43-3.56-3.54-6a2.38,2.38,0,0,1,4.75-.23c0,.34.44,1.33,2,2.69,2.43,2.17,6.14,3.9,8.1,3.79,5.42-.32,9.14-1.82,13.25-8.76,1.05-1.77-4-11-13.31-18.36a2.38,2.38,0,0,1,3-3.73c7.94,6.31,18,18.46,14.44,24.51-5.13,8.66-10.53,10.69-17.06,11.09Z" fill="#571519"/><path d="M1022.12,442.08a2.36,2.36,0,0,1-.78-.13c-1.24-.43-7.27-5.44-9.87-11.43a2.38,2.38,0,0,1,4.36-1.89c2,4.57,6.63,8.44,7.4,9a2.38,2.38,0,0,1-1.11,4.48Z" fill="#571519"/><path d="M1036.05,440.53a2.58,2.58,0,0,1-.93-.17,2.38,2.38,0,0,1,.8-4.62c1.46-.6,6.07-4.41,5.54-9-1-8.44-4.79-13.87-11-20.39a2.38,2.38,0,0,1,3.44-3.28c6.74,7.07,11.14,13.4,12.28,23.11.76,6.48-4.27,11-5.82,12.28C1038.26,440.17,1036.89,440.53,1036.05,440.53Z" fill="#571519"/><path d="M1043.59,432.26a2.38,2.38,0,0,1-.35-4.73c6-.89,6.88-8.23,6.89-8.3.48-4.86-5.45-15.94-14.11-26.36a2.38,2.38,0,0,1,3.66-3c7.48,9,15.94,22.22,15.18,29.86-.44,4.46-3.7,11.47-10.92,12.54A2.07,2.07,0,0,1,1043.59,432.26Z" fill="#571519"/><path d="M987.93,453.79a2.38,2.38,0,0,1-1.25-4.4,100.16,100.16,0,0,1,22-9.76,2.38,2.38,0,1,1,1.32,4.57,97.26,97.26,0,0,0-20.8,9.24A2.36,2.36,0,0,1,987.93,453.79Z" fill="#571519"/><path d="M1095.88,384.47c-4.36,0-9.66-2.75-10.27-6.46-1.38-8.29-2.12-14.44.94-18.12,1.55-1.85,3.91-2.82,7-2.87,4,0,6.9,1.09,8.94,3.42,4,4.63,2.8,12.63,2.27,16-.77,5-4.08,8-8.86,8Zm-2-22.7h-.24c-2.52,0-3.22.89-3.46,1.17-1.75,2.11-1,8,.1,14.3.24.8,3,2.65,6,2.46,2.21-.15,3.42-1.4,3.81-3.94.43-2.76,1.42-9.23-1.16-12.19C1097.88,362.36,1096.23,361.77,1093.9,361.77Z" fill="#571519"/><path d="M1101,362.11a2.37,2.37,0,0,1-1.44-4.27l.83-.59a27.56,27.56,0,0,0,3.79-3.09,2.38,2.38,0,0,1,3.34,3.39,32,32,0,0,1-4.41,3.6c-.26.18-.49.34-.67.48A2.35,2.35,0,0,1,1101,362.11Z" fill="#571519"/><path d="M1102.44,378.5a2.38,2.38,0,0,1-.93-4.57c3.51-1.49,6.1-4,8.92-7.34a2.38,2.38,0,0,1,3.62,3.08c-3.25,3.84-6.31,6.78-10.68,8.64A2.35,2.35,0,0,1,1102.44,378.5Z" fill="#571519"/><path d="M1086.82,378.78a2.35,2.35,0,0,1-.64-.09c-3-.84-6.8-2.91-8.62-6.2a2.38,2.38,0,0,1,4.17-2.3c.9,1.63,3.2,3.21,5.74,3.93a2.37,2.37,0,0,1-.65,4.66Z" fill="#571519"/><path d="M1302.47,582.83c-8.59,0-17-.83-21.42-2.66-45.54-18.66-194.16-88.26-194.56-200.88a2.38,2.38,0,0,1,4.76,0c.38,109.66,146.75,178.12,191.6,196.49,10.71,4.38,38.82,1.68,43.36-.51-.55-5.13-14.78-29.23-24.28-33.17-4.47-1.85-11.11-4.1-19.51-7-52.44-17.77-175.22-59.39-182.84-156a2.38,2.38,0,1,1,4.74-.37c7.37,93.45,128.08,134.37,179.62,151.84,8.49,2.88,15.2,5.15,19.81,7.06,10,4.15,24.29,26.52,26.79,35.32.44,1.55.81,3.52-.24,5C1328.08,581.05,1315,582.83,1302.47,582.83Z" fill="#571519"/><path d="M1088,362.29a2.4,2.4,0,0,1-1.39-.45,7,7,0,0,0-1-.49c-2.12-1-6.06-2.89-6.32-7.66a2.38,2.38,0,1,1,4.75-.26c.1,1.81,1.56,2.65,3.61,3.62a11.89,11.89,0,0,1,1.71.94,2.38,2.38,0,0,1-1.4,4.3Z" fill="#571519"/><path d="M1616.53,1212.15h-79a2.38,2.38,0,1,1,0-4.75h79a2.38,2.38,0,1,1,0,4.75Z" fill="#571519"/><path d="M1547,1224.19h-31.92a2.38,2.38,0,1,1,0-4.76H1547a2.38,2.38,0,0,1,0,4.76Z" fill="#571519"/><path d="M1574.67,1239.1h-44.6a2.38,2.38,0,1,1,0-4.75h44.6a2.38,2.38,0,1,1,0,4.75Z" fill="#571519"/><path d="M1489.49,623h-38.26a2.38,2.38,0,1,1,0-4.75h38.26a2.38,2.38,0,1,1,0,4.75Z" fill="#571519"/><path d="M1464.71,613.32h-20.36a2.38,2.38,0,1,1,0-4.75h20.36a2.38,2.38,0,1,1,0,4.75Z" fill="#571519"/><path d="M1005.16,1098.92H956.1a2.38,2.38,0,1,1,0-4.76h49.06a2.38,2.38,0,0,1,0,4.76Z" fill="#571519"/><path d="M978.48,1110.45H940.55a2.38,2.38,0,1,1,0-4.75h37.93a2.38,2.38,0,1,1,0,4.75Z" fill="#571519"/><path d="M2197.6,959.13,2194.48,885s-6.13-131.75-12.8-154.72-13-45.38-34.12-52.46l-77.46-26-11.55-3.66s-.69-12.17-2.26-14.91-.89-5.56-5.34-6.63a30.19,30.19,0,0,1-6.3-2s-75.72,14.34-77.21,14.93-4.47,4.82-5,5.73a15.49,15.49,0,0,1-2.4,2.55s-17.67,0-21.75-1.44-39.63-8.24-55.85,3.46-31.63,28.85-31.63,28.85l-43.95,52.6-17.51,18.27-11.59-31-17.14-54.92s-.94-3.9-3-4.38-41,25.21-42.43,30.85.64,9.53,1.28,13c.45,2.46,5.49,40.63,13.07,73.15,3,12.86,5.82,24.09,9,33.09,11,31.77,17,44.22,24.69,45.6s19-1.77,22.83-3.69,28.08-18.79,33-23.06,35.55-33.63,35.55-33.63l27.86-29.88,4.69-5.07,6.4,99,1.29,100.6Z" fill="#fff" fill-rule="evenodd"/><path d="M1757,669.33s-3.5-9-1.37-17.94,3.61-17.84,3.61-17.84-.21-10.77,0-15.86,1.41-18,1.41-18,1.39-21.63.6-24.15-10.49-18.08-10.49-18.08-10.7-14.76-12.32-13.71-2.15,3.87-1.63,6.25,2.15,10.17,4.23,14.41,5.1,5.75,5.53,10.64-.38,14.94-.38,14.94l-3.33,6.82s-7.21-18.09-8.73-21.38-11.48-11.39-15.34-13.84-15.23-6.43-15.8-6.54-7.44-.29-7.41,1.52,2.26,5.46,4.49,6.73,8.31,4.29,11.58,6.86,10.45,8.36,11.15,10.75,4.71,13.57,4.71,13.57l-18.6-5.77-6.32,6.1-7.51,4s-2.69,18.57-1.18,23.32,2.63,6.21,4.05,5.36,4.59-7,4.59-7a4,4,0,0,0,4.43-1,25.37,25.37,0,0,0,3.17-4.29l-.74,30.27s1.27,11.25,7.18,19.6,6.88,13.23,6.88,13.23l4,13.32S1751.14,677.91,1757,669.33Z" fill="#ffe4ce" fill-rule="evenodd"/><path d="M1990.14,715.42s-3.53-20-7.46-27.46-10-19.93-10.91-24.19-2.18-8.81-.73-12.13a29.07,29.07,0,0,0,1.92-6.88s-9.85-6.66-13-6.31-18.18,1-21.71-2.41-6.24-8.09-6.57-9.53-2.81-33.77-4.34-37.67-4.64-9.85-4.64-9.85,1.55-5.16,4.41-6.94,6.27-3.7,6.9-6.69,1-13.76,1-13.76a101.65,101.65,0,0,1,5.37-26.93c4.93-14.09,14.14-23.45,15-23.45s38.93,11.3,41.46,13.38,21.1,14.11,24.22,17.23,21.25,42.95,22.44,52.75.3,35.52.37,37.82,2.28,13.68,2.28,13.68l2.49,7.33s-19.66,19-27.34,24.71-20.44,21.21-23.7,29.44S1990.14,715.42,1990.14,715.42Z" fill="#ffe4ce" fill-rule="evenodd"/><path d="M1728.67,600.92s-5-8.52-7.83-9c-3.59-.65-5.64,6.13-5.94,7.27-.53,2.05-2.39,7.31-3.06,9.46s-1.73,6.61-1.73,6.61,0,4.16-.1,5.57,9.49-5.72,10.08-15.45C1721.35,605.79,1724.47,609,1728.67,600.92Z" fill="#ffbca9" fill-rule="evenodd"/><path d="M1755.53,663.9l.89,4.45-15.11,14.9L1726.83,692l-1.4-7S1750.08,676.35,1755.53,663.9Z" fill="#ffbca9" fill-rule="evenodd"/><path d="M1974.19,648.14s3.06,4.32,3.36,8.47-.09,18.42-1.87,15.9-5.21-12.6-5.06-15.18c.07-1.18-.38-3.84.42-5.69A8.66,8.66,0,0,1,1974.19,648.14Z" fill="#ffbca9" fill-rule="evenodd"/><path d="M1940.18,525.09c12-5.56,16.46,18.81,33.6,27.87,15.65,8.28,20.59,1.47,33.69,15.93,0,0,6.28-23.65,3.61-26.48s-28.38-25.85-35.66-28.53-25.35-14.69-29.39-11.36-5.4,21.73-5.4,21.73Z" fill="#ffbca9" fill-rule="evenodd"/><path d="M1935.48,540.59s-2.31-14.67-5.62-19.28-4.68-11.74-4.68-11.74.24-18.36,10.86-24,12.18-5.9,14.55-5.49,6,2,7.81,2.64,6.41-.62,7.4-2.32,14.36-14.1,39.62-14.18,46,9.08,52.52,15.91,7.39,12.6,11.58,15,12,10.69,12,10.69,9.17,14.65,7.28,28-4.41,20.19-4.41,20.19l-2.14-3.13-5,13s-6.06,11.4-11.78,18.8-14.67,19.13-15.11,24-4,9.39-5,10-9-.16-12.76-3.65-6.51-6.36-7.68-9-2.85-8.45-2.85-8.45,10-4.52,11.1-12.62.27-16.22-3.14-17.73-10-2.05-10-2.05l-4.44.53s-4.53,4.69-5,4.84-3.87,2.74-3.87,2.74,1.39-5.76.5-9-6.81-11.77-6.81-11.77-12-1.44-15.34-3-16.08-10.4-22.6-19.08-12-14-13.33-14.66-5.27,2.91-7.24,5.65S1935.48,540.59,1935.48,540.59Z" fill="#f4c04d" fill-rule="evenodd"/><path d="M2047.92,645.69a2.36,2.36,0,0,1-2.27-1.67c-2.9-9.3-3.75-23.84-3.78-24.46a2.37,2.37,0,1,1,4.74-.27c0,.15.86,14.58,3.58,23.32a2.38,2.38,0,0,1-1.57,3A2.42,2.42,0,0,1,2047.92,645.69Z" fill="#571519"/><path d="M1956.18,637.82s10.78-3,15.74-5.47c.8-.4,16.12-10.16,15.54-6.52a29.82,29.82,0,0,1-13.27,20.55S1970.92,639.71,1956.18,637.82Z" fill="#ffbca9" fill-rule="evenodd"/><path d="M1935.32,563.9s-2.76,4.71-5.83,6.71-7,5-6.09,7.76,3.95,10.47,3.95,10.47S1935.67,586.39,1935.32,563.9Z" fill="#ffaaa9" fill-rule="evenodd"/><path d="M2014.65,601.23c-.55,0-1.09,0-1.62-.05a2.37,2.37,0,0,1,.3-4.74c5,.32,12.07-1.22,15.55-6.6,4-6.12,4.91-13.69,2.25-18-2.56-4.16-7.94-4.51-12-4.08a2.38,2.38,0,0,1-.5-4.73c9.82-1.06,14.43,2.85,16.56,6.32,4.24,6.88,1.77,16.79-2.3,23.08C2028.65,599,2021,601.23,2014.65,601.23Z" fill="#571519"/><path d="M2017.08,587a2.32,2.32,0,0,1-1.23-.35,2.37,2.37,0,0,1-.8-3.26c.53-.86,3.31-5.2,6.76-6.08a2.39,2.39,0,0,1,2.89,1.72,2.36,2.36,0,0,1-1.72,2.89c-1.13.29-3,2.47-3.86,3.94A2.39,2.39,0,0,1,2017.08,587Z" fill="#571519"/><path d="M1958.2,563.81a2.4,2.4,0,0,1-2-1.07,9.69,9.69,0,0,0-9.17-4.27,2.38,2.38,0,1,1-.77-4.69,14.44,14.44,0,0,1,13.91,6.34,2.38,2.38,0,0,1-2,3.69Z" fill="#571519"/><path d="M1962.56,550.62a2.4,2.4,0,0,1-1.76-.77c-7.08-7.73-17.34-4.9-17.44-4.86a2.38,2.38,0,0,1-1.31-4.58c.53-.15,13.21-3.64,22.26,6.22a2.37,2.37,0,0,1-.15,3.36A2.35,2.35,0,0,1,1962.56,550.62Z" fill="#571519"/><path d="M1951,558.8c2.15.19,3.68,2.71,3.41,5.61s-2.24,5.09-4.39,4.89-3.67-2.71-3.41-5.61S1948.8,558.6,1951,558.8Z" fill="#571519" fill-rule="evenodd"/><path d="M1978,670.16a2.39,2.39,0,0,1-2.37-2.39c.05-17.7-1.87-20.64-9.46-24.63-3.86-2-8.39-2-13.21-2-8.37,0-17.86.09-22.91-12.23-1.51-3.65-2-10.69-2.51-18.84-.62-9.36-1.4-21-4-24.43-2.43-3.13-3.41-5.75-3.1-8.25.44-3.47,3.25-5.64,6.21-7.94a43.57,43.57,0,0,0,4-3.41c2.08-2.05,2.59-4.49,2-16.71-.47-9,2.63-20.79,7.91-30.07a2.38,2.38,0,1,1,4.13,2.35c-4.78,8.41-7.71,19.45-7.29,27.47.66,12.55.3,16.75-3.36,20.35a47.44,47.44,0,0,1-4.48,3.78c-2.26,1.75-4.21,3.26-4.4,4.77-.14,1.14.57,2.74,2.14,4.74,3.54,4.57,4.3,16,5,27,.47,7.08,1,14.41,2.16,17.34,3.85,9.36,10.29,9.34,18.5,9.28,5.18,0,10.53-.06,15.44,2.52,10.48,5.51,12.05,11.41,12,28.85A2.39,2.39,0,0,1,1978,670.16Z" fill="#571519"/><path d="M1942.41,598c5.95.44,22.07,7.35,10,13.63-3.42,1.78-13.15,1.58-14.71-1.34C1934.73,604.69,1934.71,597.48,1942.41,598Z" fill="#c24e4e" fill-rule="evenodd"/><path d="M1945.89,615.18c-4.31,0-8.82-1.07-10.24-3.74-2-3.69-3.25-8.92-.89-12.54,1.07-1.66,3.31-3.57,7.82-3.24,4,.29,15.2,3.8,16.48,10,.45,2.17-.14,5.34-5.51,8.13A18.07,18.07,0,0,1,1945.89,615.18Zm-4.32-14.8a3.14,3.14,0,0,0-2.83,1.11c-1,1.48-.5,4.72,1.1,7.71,1.06,1.31,8.71,1.81,11.51.35,2-1.07,3.21-2.2,3.06-2.95-.51-2.45-7.91-5.89-12.17-6.19Z" fill="#571519"/><path d="M1959.42,569.76c6.7.61,11.86,4.23,11.51,8.08s-6.07,6.5-12.78,5.89-11.85-4.22-11.51-8.08S1952.71,569.15,1959.42,569.76Z" fill="#ffaaa9" fill-rule="evenodd"/><path d="M1939.22,499.53a10.27,10.27,0,0,0-3.21,4.16c-1.86,4.21-6.85,6.14-7,.52-.19-5.88,8.66-17.92,14.33-16.78C1951.43,489.05,1942,498,1939.22,499.53Z" fill="#e38681" fill-rule="evenodd"/><path d="M1943.72,505.25a7,7,0,0,1,2.31-2.73c2.52-1.83,3.09-5.41-.66-4.72-3.93.71-10.65,8.29-9.09,11.89C1938.52,514.83,1943.11,507.33,1943.72,505.25Z" fill="#e38681" fill-rule="evenodd"/><path d="M2067.18,557.27a10.18,10.18,0,0,1-1.19,5.13c-2.07,4.1-.4,9.18,4.06,5.75,4.66-3.58,8.37-18,3.89-21.72C2067.55,541.19,2066.58,554.14,2067.18,557.27Z" fill="#b04d4a" fill-rule="evenodd"/><path d="M2059.9,557.42a6.89,6.89,0,0,0,.65-3.51c-.18-3.11,2.23-5.82,4.08-2.49,1.93,3.49.33,13.49-3.45,14.57C2055.79,567.52,2058.68,559.2,2059.9,557.42Z" fill="#b04d4a" fill-rule="evenodd"/><path d="M1990.37,959.13c-.19-29.54-.57-60.67-.95-92.07-.56-46.29-1.13-93.15-1.13-134.19,0-13.41,2-23.92,5.72-32.92s9-16.38,15.59-23.58c7.66-8.39,15.69-14.83,22.48-20.29a121.75,121.75,0,0,0,11.55-10c4.78-5,5.91-9.5-.1-15.2a2.37,2.37,0,1,1,3.27-3.44c8.71,8.26,7.12,14.68.27,21.91a125.67,125.67,0,0,1-12,10.42c-6.69,5.37-14.58,11.71-22,19.78-6.22,6.81-11.24,13.78-14.69,22.19S1993,720.1,1993,732.87c0,42.47.56,88.58,1.12,134.14.38,31.65.77,63,1,92.12Z" fill="#571519" fill-rule="evenodd"/><path d="M2017.54,711.73a7.11,7.11,0,0,1-1.85-.23c-5.73-1.53-7.26-9.28-8.62-16.12a42.57,42.57,0,0,0-1.51-6.19c-1,1-3.06,3.88-7,12.3a2.38,2.38,0,0,1-4.3-2c6.36-13.43,9.14-15.8,12.11-15.42,3.44.42,4.31,4.84,5.42,10.42.92,4.65,2.31,11.68,5.17,12.44,1.16.31,4.68,0,12.62-9.13,11.69-13.48,23.45-38.38,26.73-50.28.9-3.27-.15-11.19-3.85-16.17a9.8,9.8,0,0,0-7.82-4.39,2.39,2.39,0,0,1-2.32-2.44,2.55,2.55,0,0,1,2.44-2.32,14.55,14.55,0,0,1,11.52,6.31c4.45,6,6,15.32,4.61,20.27-3.39,12.34-15.59,38.15-27.72,52.14C2026.76,708.23,2021.74,711.73,2017.54,711.73Z" fill="#571519"/><path d="M2057.85,650.38a2.37,2.37,0,0,1,1.41-4.53c5.86,1.84,17,5.4,29.63,9.45,11.56,3.69,24.5,7.83,40.6,12.92,17,5.39,28.58,11.17,37,20.49s13.46,21.93,17.52,41c8.69,40.94,11.74,124,14.23,191.73.49,13.29.95,26,1.44,37.66h-4.75c-.48-11.62-.94-24.27-1.43-37.5-2.48-67.5-5.52-150.32-14.14-190.9-3.87-18.26-8.63-30.24-16.4-38.85s-18.67-14-34.89-19.12c-10.75-3.4-26.61-8.47-40.6-13C2076,656.15,2066,652.93,2057.85,650.38Z" fill="#571519" fill-rule="evenodd"/><path d="M2137.51,772a2.37,2.37,0,0,1,4.07,2.44c-10.39,17.31-10.14,95-9.9,169.54l0,15.12H2127l0-15.12C2126.7,868.85,2126.45,790.47,2137.51,772Z" fill="#571519" fill-rule="evenodd"/><path d="M1990.67,739.34a2.39,2.39,0,0,1-2.38-2.38c0-20.78-3.75-41.31-9.32-51.1-11.82-20.74-14-34.63-6.35-41.27a2.38,2.38,0,1,1,3.13,3.58c-5.5,4.81-2.89,17.36,7.35,35.34,6,10.6,10,31.58,10,53.45A2.39,2.39,0,0,1,1990.67,739.34Z" fill="#571519"/><path d="M1968.48,709.72h-.25c-3.28-.19-4.92-4.39-6.2-8.89-5.14-18-10.82-56.92,4.44-62a2.38,2.38,0,1,1,1.51,4.51c-9.09,3.05-8.22,32.2-1.38,56.22a21.21,21.21,0,0,0,1.92,5,44.77,44.77,0,0,0,3.28-6.84c2.54-6.09,4.73-11.35,8.75-11.45,3.21-.07,5,3,6.1,5.38a2.37,2.37,0,1,1-4.28,2.06c-1.15-2.38-1.86-2.71-1.86-2.72-1,.53-3.15,5.75-4.32,8.55C1973.83,705.2,1971.94,709.72,1968.48,709.72Z" fill="#571519"/><path d="M1790.08,752.55a2.4,2.4,0,0,1-1.68-.7,2.37,2.37,0,0,1,0-3.36c8-8,18.25-20.62,29.09-34,26.48-32.6,56.48-69.54,79-73.3,14.09-2.35,26.11-.51,38.83,1.44a197.89,197.89,0,0,0,24.84,2.72,2.38,2.38,0,0,1-.07,4.76,202,202,0,0,1-25.5-2.78c-12.33-1.89-24-3.67-37.32-1.45-20.72,3.46-51.41,41.25-76.07,71.6-10.92,13.45-21.24,26.16-29.42,34.34A2.38,2.38,0,0,1,1790.08,752.55Z" fill="#571519"/><path d="M1877.33,730.17a2.37,2.37,0,1,1,3.38-3.32c14.18,14.4,16.54,157.45,16.93,232.28h-4.74C1892.54,884.84,1890.36,743.41,1877.33,730.17Z" fill="#571519" fill-rule="evenodd"/><path d="M1769.75,858a21.36,21.36,0,0,1-5.26-.62,18.17,18.17,0,0,1-11.6-9c-21.06-36.65-29.18-86.58-35.71-126.7-1.6-9.83-3.12-19.11-4.69-27.45a2.38,2.38,0,0,1,4.67-.89c1.59,8.4,3.1,17.72,4.71,27.58,6.47,39.74,14.52,89.19,35.14,125.09a13.63,13.63,0,0,0,8.64,6.81c6.69,1.68,16.16-1.14,27.38-8.15,32-20,73.6-66.06,87.27-81.19,3.77-4.18,4.88-5.4,5.42-5.83a2.38,2.38,0,0,1,3,3.7c-.43.39-2.49,2.67-4.87,5.31-13.78,15.26-55.72,61.7-88.28,82C1785.59,854.91,1776.94,858,1769.75,858Z" fill="#571519"/><path d="M1798.46,803.49l-.29,0a2.38,2.38,0,0,1-2.08-2.65c2.53-20.76-6.23-43.81-16.37-70.5-7.45-19.64-15.91-41.89-21.7-67.61a2.37,2.37,0,0,1,4.63-1.05c5.73,25.39,14.12,47.48,21.52,67,10.36,27.28,19.31,50.84,16.64,72.77A2.37,2.37,0,0,1,1798.46,803.49Z" fill="#571519"/><path d="M1717.28,697.27a6.25,6.25,0,0,1-2.46-.44,4.22,4.22,0,0,1-2.57-3.57c-.47-4.54,4.93-11.25,10.42-15.12a2.38,2.38,0,0,1,2.73,3.9c-5.51,3.87-8.38,8.88-8.44,10.51,3.64.73,19.48-7.19,32.12-18.5,7.75-6.93,9.18-10.81,8.85-11.89-.14-.48-1.14-.91-2.59-1.12a2.38,2.38,0,0,1,.68-4.71c4.42.64,6,2.78,6.46,4.46,1.21,4-2.23,9.65-10.22,16.8C1743.62,685.32,1725.93,697.27,1717.28,697.27Z" fill="#571519"/><path d="M1756.42,670.72a2.38,2.38,0,0,1-2.31-1.81c-2.84-11.6-.88-18.89,1-25.93,2.15-8,4.38-16.21-.24-32a48.64,48.64,0,0,1-.94-8.7c-.13-2.31-.27-4.78-.51-7.08-.67-6.28-2.18-7.07-2.19-7.07a2,2,0,0,0-1,.54c-2.32,1.9-4.6,6.85-4.78,10.4-.1,2,0,4.24.1,6.62.31,6.78.65,14.47-3.3,21.43a40.13,40.13,0,0,1-4.94,6.94c-2.12,2.45-2.75,3.2-2.16,9.67a2.38,2.38,0,1,1-4.74.43c-.74-8.14.48-9.93,3.3-13.2a35.94,35.94,0,0,0,4.41-6.19c3.27-5.77,3-12.43,2.68-18.87-.11-2.49-.22-4.85-.1-7.07.3-6,4.91-15.3,10.4-15.46,3.93,0,6.25,3.81,7.05,11.32.26,2.38.41,4.93.54,7.32a49.58,49.58,0,0,0,.76,7.63c5,17,2.47,26.33.26,34.53-1.83,6.76-3.55,13.14-1,23.56a2.39,2.39,0,0,1-1.74,2.88A2.83,2.83,0,0,1,1756.42,670.72Z" fill="#571519"/><path d="M1759.22,621a2.39,2.39,0,0,1-2.38-2.33,159,159,0,0,1,1.21-17.28c1-10.16,2.34-22.8.22-27.42-1-2.13-7.22-11.93-12.85-20.16-3.87-5.65-5.92-7.17-6.7-7.58-.66,2,.16,8.88,2.93,13.64,8,13.71,9.58,17.09,6.54,31.07a2.37,2.37,0,1,1-4.64-1c2.75-12.66,1.41-15-6-27.66-3.1-5.31-6-17.35-1.33-20.33,4.24-2.69,9.24,3.5,13.13,9.18,5.4,7.9,12,18.17,13.25,20.88,2.65,5.79,1.39,18,.18,29.88a153.15,153.15,0,0,0-1.18,16.68,2.38,2.38,0,0,1-2.32,2.44Z" fill="#571519"/><path d="M1729.31,604.07a2.39,2.39,0,0,1-2.31-1.85c-4.12-17.85-8.44-25.7-16.5-30-1.67-.89-3.32-1.64-4.88-2.36-3.15-1.44-6.13-2.8-8.26-4.83-3.89-3.72-5.25-7.55-3.62-10.22,1.93-3.16,6.81-3.42,14.51-.78,11.24,3.86,19.41,8.84,24.28,14.8,4.73,5.78,6.89,12.23,9.38,19.7,1,3.07,2.08,6.23,3.4,9.59a2.38,2.38,0,0,1-4.43,1.74c-1.36-3.48-2.44-6.7-3.48-9.82-2.35-7-4.37-13.1-8.55-18.2-4.3-5.26-11.75-9.74-22.14-13.31-7.2-2.47-8.91-1.24-8.93-1.22,0,.19.26,1.79,2.86,4.28,1.56,1.48,4.06,2.63,7,3.95,1.64.75,3.37,1.54,5.14,2.48,10.72,5.72,15,16.47,18.89,33.12a2.38,2.38,0,0,1-1.78,2.86A2.48,2.48,0,0,1,1729.31,604.07Z" fill="#571519"/><path d="M1703.65,623.2a4.67,4.67,0,0,1-1.28-.19c-3.89-1.15-5.11-6.73-3.66-16.57,1.87-12.63,4.07-18.11,8.13-20.2,4.68-2.41,10.17.39,19.27,5l1.55.78a2.38,2.38,0,1,1-2.16,4.24l-1.54-.78c-7.23-3.68-12.44-6.33-14.94-5-3,1.55-4.57,9.72-5.6,16.66-1.2,8.09-.09,11,.39,11.36.38-.09,2.61-1.72,4.87-6.67a58.57,58.57,0,0,0,3.1-10.05c.31-1.23.58-2.35.84-3.27a2.38,2.38,0,0,1,4.57,1.3c-.24.87-.5,1.93-.79,3.1a62.74,62.74,0,0,1-3.39,10.89C1710.26,619.81,1706.85,623.2,1703.65,623.2Z" fill="#571519"/><path d="M1697.18,630a3.91,3.91,0,0,1-.49,0c-3.11-.32-6.58-3.85-6.16-12.74l.16-3.43c.7-15.33.87-19,11.35-21.3a2.38,2.38,0,0,1,1,4.64c-6.94,1.54-6.94,1.54-7.64,16.88l-.16,3.44c-.27,5.74,1.4,7.73,1.9,7.78s2-1.2,2.63-5.34a2.35,2.35,0,0,1,2.72-2,2.38,2.38,0,0,1,2,2.73C1703.38,627.55,1700,630,1697.18,630Z" fill="#571519"/><path d="M1719.75,608.74a2.35,2.35,0,0,1-1.46-.5c-.42-.33-.84-.7-1.28-1.08a8.63,8.63,0,0,0-3.45-2.21,2.38,2.38,0,1,1,.93-4.67,12.46,12.46,0,0,1,5.65,3.3c.37.32.72.64,1.08.91a2.38,2.38,0,0,1,.4,3.34A2.34,2.34,0,0,1,1719.75,608.74Z" fill="#571519"/><path d="M1726.82,694.35a2.38,2.38,0,0,1-2.35-2c-1.41-9.67-5-19.29-9.31-25.1-9.12-12.24-8.68-21.39-7.94-36.55.24-4.72.49-10.08.52-16.38a2.38,2.38,0,0,1,4.76,0c0,6.41-.29,11.82-.53,16.59-.73,15.05-1.1,22.61,7,33.47,4.78,6.42,8.69,16.86,10.21,27.26a2.38,2.38,0,0,1-2,2.7Z" fill="#571519"/><path d="M1935.38,543.56a2.4,2.4,0,0,1-2.37-2.19c-.66-8.31-3.07-12.82-5.62-17.58a52,52,0,0,1-3.76-8.14c-4.91-14.41,3.17-27.24,13.34-33.56,9-5.62,18.69-5.81,24-.48a2.38,2.38,0,1,1-3.37,3.35c-3.66-3.66-11.11-3.19-18.12,1.17-8,4.94-15.69,15.23-11.35,28a48.77,48.77,0,0,0,3.45,7.42c2.55,4.76,5.43,10.15,6.18,19.45a2.38,2.38,0,0,1-2.19,2.56Z" fill="#571519"/><path d="M2063.89,492.74a2.36,2.36,0,0,1-2.11-1.28c-9.33-17.95-34.65-23.81-55.17-23.26-18.8.47-35.42,6.16-38.65,13.22a2.38,2.38,0,1,1-4.33-2c4.07-8.88,21.69-15.46,42.86-16,10.66-.25,46.5.8,59.51,25.83a2.37,2.37,0,0,1-1,3.2A2.29,2.29,0,0,1,2063.89,492.74Z" fill="#571519"/><path d="M2082.88,561.29a2,2,0,0,1-.54-.07,2.37,2.37,0,0,1-1.83-2.15c-.55-7.9-2-17-9-24.4a2.38,2.38,0,1,1,3.47-3.26,36.66,36.66,0,0,1,9.21,18.66,53,53,0,0,0-.8-33.11c-3.37-9.22-9.16-15.7-16.29-18.24a2.38,2.38,0,0,1,1.59-4.48c8.5,3,15.3,10.51,19.16,21.09,5.36,14.67,4.19,32.66-2.9,44.78A2.38,2.38,0,0,1,2082.88,561.29Z" fill="#571519"/><path d="M2042.92,621.92a13.06,13.06,0,0,1-2.57-.27c-9.89-2-21.61-14.89-19.6-24.83a2.38,2.38,0,0,1,4.67.95c-1.42,7,8.55,17.73,15.88,19.22,3.65.74,5.74-.87,6.59-5,2.39-11.74,8.29-19.22,14.54-27.14,7.17-9.11,14.59-18.52,16.83-35.6a2.37,2.37,0,0,1,4.71.61c-2.4,18.38-10.59,28.77-17.81,37.93-5.88,7.47-11.44,14.52-13.61,25.15C2051.37,618.68,2047.85,621.92,2042.92,621.92Z" fill="#571519"/><path d="M2005.13,514.78h-.19c-9.37-.74-16.51-6.52-22.8-11.62-10-8.08-16.55-13.43-28.14-.69a2.38,2.38,0,0,1-3.52-3.2c14.61-16.06,24.81-7.79,34.66.19,6,4.9,12.27,10,20.17,10.58a2.38,2.38,0,0,1-.18,4.75Z" fill="#571519"/><path d="M2001,555c-23.42,0-34.93-15.56-43.46-27.09-6.1-8.24-9.79-12.82-14.33-11.17a2.37,2.37,0,1,1-1.63-4.46c8.14-3,13.53,4.35,19.79,12.8,7.62,10.31,16.86,22.8,34.46,24.87-5.48-3.73-11.74-9.7-14.34-19.53a2.38,2.38,0,1,1,4.6-1.22c3.26,12.34,13.23,17.6,18.59,20.43l1.43.76a2.38,2.38,0,0,1-1,4.46Q2003,555,2001,555Z" fill="#571519"/><path d="M2023.85,545.84c-5.84,0-12.61-1.65-21.59-5.73a2.38,2.38,0,1,1,2-4.33c15.58,7.07,23.34,6.24,32.21,2.23a2.38,2.38,0,1,1,2,4.33A34,34,0,0,1,2023.85,545.84Z" fill="#571519"/><path d="M2007.1,576.71a2.38,2.38,0,0,1-2.29-3,21.08,21.08,0,0,0-1.15-13,2.38,2.38,0,0,1,4.38-1.85,26.93,26.93,0,0,1,2.08,9.72c3-3.53,4.7-8.06,4.61-11.31a2.39,2.39,0,0,1,2.32-2.45,2.36,2.36,0,0,1,2.44,2.32c.16,6-4,14.88-11.16,19.22A2.39,2.39,0,0,1,2007.1,576.71Z" fill="#571519"/><path d="M1805.4,773.34a2.38,2.38,0,0,1-2.29-1.72c-4.08-14.16-14-19.27-14.09-19.32a2.38,2.38,0,0,1,2.11-4.27c.48.24,11.86,6,16.55,22.27a2.37,2.37,0,0,1-1.62,2.94A2.21,2.21,0,0,1,1805.4,773.34Z" fill="#571519"/><path d="M1884.93,1480a150,150,0,0,0,.57-21.61c-1.55-30.62-8.74-48.94-9.57-51.33s-6.59-25.29-6.59-25.29-9.89,18.37-11,20-17.62,21.09-23.95,25.38-19.1,11.32-26,12.41-20.09,2.68-27.55-10.82-3.88-33-2.4-39.81,27.62-89,27.62-89,27.22-79.42,48.09-92.89,21.44-10.39,22.8-10.65,37.75-1.32,42.51-3.4,25.58-14,25.58-14l7.25-1.29s65.09-21.1,77.12-9.51,18.13,17.53,27.64,26.6,25.16,17.32,25.16,17.32,17.14,8.6,21.23,11.6a54,54,0,0,1,22.81,35.29c4.13,22.28,9.19,68.58,10.22,103.29.64,21.82,2.26,78.58,3.37,117.73Z" fill="#fff" fill-rule="evenodd"/><path d="M1978.64,1260.5s-4-18-6.94-24-6.68-13.61-11.39-17.72-10.06-12.72-10.21-17.18,1.27-14.61,0-17.7-7.31-10.09-13.41-9.79-15.45,7-15.45,7-4.27,15.25-4.61,19.43-2.09,38.5-2.09,38.5-.92,27.31-4.36,32.74-9.25,16.12-9.67,17.1-2.36,5.92-2.36,5.92-13.6-13.77-17.82-19.59a66.44,66.44,0,0,1-6-9.6s8.72-13.06,7.68-33.42-2.41-25.38-2.41-25.38l-.42-28.52s4.91-24,6.54-29.46,2.67-57.65,2.67-57.65,4.76-49.33,10.41-50.82,47.84-3.57,55-.89,46.66,20.21,55.28,33.88,20.81,39.82,19.62,47.25-12.33,45-11.36,49.69,3.71,14.12,3.71,14.12-3.66,14-18,25.67-16.14,18.84-18,23.93S1978.64,1260.5,1978.64,1260.5Z" fill="#ffe4ce" fill-rule="evenodd"/><path d="M1905.3,1052.14c21.24,14.64,12.63,30,48.35,38.55,9.73,2.32,21.6,14.49,34.83-1.22,3.3-3.92-15-30.5-28.79-38.08s-39.08-17.53-45-11.74A54.11,54.11,0,0,0,1905.3,1052.14Z" fill="#ffbca9" fill-rule="evenodd"/><path d="M1877.62,1261l-2.49,6.43,8.65,12.89,10.94,11.77,4.58,4.16,1.75-8.53S1877.9,1271.6,1877.62,1261Z" fill="#ffbca9" fill-rule="evenodd"/><path d="M1899.87,1139.91s-1.92-15-3.29-18.26-5.27-10.27-5.27-10.27a13.51,13.51,0,0,1,4.61-7.09c3.68-2.85,6.63-8.15,6.63-8.15s0-13.43,0-15.88.45-15.75.45-15.75,5.29-20.94,10.14-16.86,13.11,14.11,14.82,15.89,14,14.57,16.42,15.71,8.47,2.42,10,2.2,7.42,4.47,9.94,6,11.9,5.24,15.62,4.35,8.54-2.3,8.54-2.3l.88,3.5,8.37,1.07s9.76,6.32,7.08,14.85-4.57,11.52-4.57,11.52l2.17,13.49s6.4,22.64,15.39,31.86,12.1,14.27,12.1,14.27l1.86,7.9,1.59,3.1,17.28,8.62,29.64,12.3,7.1,3.16,3.18-13.72,1.46-19.94s4.91-2.9,6.1-10.93-.66-17.15-1.15-19-5.07-15.49-12.31-24.17-16.82-23.18-17.82-25.41-4.34-11-6.71-27.88-11.11-39.48-18.24-47-20.15-22.49-47.08-27-48.13,1.23-60.27,7.27-20.52,16.47-26.08,17-23.18,5.23-27.38,17.12-2.69,39-1.6,49.11.34,31.63-4.59,40.15-12.81,37.84-11,46.62,5,20.63,5,20.63l9.39-1.79s-.7-19,4.2-32.66,7.22-17.52,7.22-17.52,1.9-3.89,2.94-1,2.43,5.73,2.43,5.73,5.3-9.69,4.76-10.77Zm24.65,31.26s11.75.31,14.2,1.14,7,3.89,7.76,5.56a3.81,3.81,0,0,1-.08,3.21s-4.45,4.93-5.28,6.79-3.38,7-3.38,7l-20.88-.13Z" fill="#e82d5e" fill-rule="evenodd"/><path d="M1928.31,1169.72s10.75-3.61,15.64-6.36c.8-.44,15.79-11.12,15.39-7.4-.48,4.5-4.42,15.8-14.3,23C1945,1179,1943.32,1170.87,1928.31,1169.72Z" fill="#ffbca9" fill-rule="evenodd"/><path d="M1903.36,1096s-2.55,4.91-5.55,7.08-6.81,5.39-5.77,8.17,4.54,10.4,4.54,10.4S1904.88,1118.74,1903.36,1096Z" fill="#ffaaa9" fill-rule="evenodd"/><path d="M1921,1134.16c-2.49-8.68-17-13.58-15.76-.3.23,2.42.16,7.4.87,10.31C1910,1160.05,1926.6,1149.86,1921,1134.16Z" fill="#ffaaa9" fill-rule="evenodd"/><path d="M1984.24,1129.66h-.3a2.38,2.38,0,1,1,.06-4.76c5,0,12.17-1.87,15.43-7.5,3.69-6.41,4.26-14.14,1.33-18.38s-8.3-4.17-12.39-3.52a2.37,2.37,0,0,1-.75-4.69c9.88-1.6,14.73,2.13,17.06,5.51,4.63,6.74,2.66,16.88-1.14,23.46C1999.33,1127.07,1990.87,1129.66,1984.24,1129.66Z" fill="#571519"/><path d="M1987.18,1115.09a2.42,2.42,0,0,1-1.13-.28,2.39,2.39,0,0,1-1-3.22c.49-.9,3.07-5.42,6.51-6.49a2.38,2.38,0,0,1,1.41,4.55c-1.13.35-2.9,2.66-3.73,4.2A2.39,2.39,0,0,1,1987.18,1115.09Z" fill="#571519"/><path d="M1926.9,1097a2.38,2.38,0,0,1-2.05-1.16,8.16,8.16,0,0,0-5.26-3.82,7.42,7.42,0,0,0-4.92.35,2.38,2.38,0,0,1-2.58-4c2.05-1.33,5.42-1.72,8.58-1a12.78,12.78,0,0,1,8.26,6,2.37,2.37,0,0,1-.82,3.26A2.34,2.34,0,0,1,1926.9,1097Z" fill="#571519"/><path d="M1929.07,1077.08a2.39,2.39,0,0,1-1.89-.93c-5.15-6.72-13.12-3.55-14.48-2.64a2.38,2.38,0,0,1-2.63-4c3.74-2.49,14.19-5,20.89,3.71a2.38,2.38,0,0,1-.45,3.33A2.34,2.34,0,0,1,1929.07,1077.08Z" fill="#571519"/><path d="M1917.53,1089.2c2.19.09,3.87,2.56,3.74,5.51s-2,5.26-4.18,5.17-3.86-2.55-3.74-5.5S1915.34,1089.11,1917.53,1089.2Z" fill="#571519" fill-rule="evenodd"/><path d="M1952.63,1204.73a2.38,2.38,0,0,1-2.37-2.27c-.91-19.56-3.83-24.31-11.6-27.9-4-1.85-8.7-1.58-13.23-1.33a2.38,2.38,0,1,1-.27-4.75c4.87-.27,10.4-.59,15.49,1.77,11.25,5.18,13.53,14.06,14.36,32a2.38,2.38,0,0,1-2.26,2.49Zm-52.46-59.88a2.38,2.38,0,0,1-2.36-2.1c-1-8.78-2.45-20.8-5.32-24.12-2.61-3-3.74-5.64-3.56-8.18.27-3.52,3-5.86,5.87-8.33a45.89,45.89,0,0,0,3.92-3.66c2-2.19,2.39-4.69,1.11-17-.94-9.07,1.58-21.17,6.44-30.83a2.37,2.37,0,0,1,4.24,2.14c-4.4,8.76-6.79,20.1-6,28.2,1.32,12.66,1.17,16.92-2.34,20.74a47.78,47.78,0,0,1-4.32,4c-2.2,1.89-4.11,3.53-4.22,5.09-.09,1.16.72,2.75,2.41,4.71,3.55,4.11,4.91,13.65,6.45,26.68a2.39,2.39,0,0,1-2.09,2.64Z" fill="#571519"/><path d="M1906.2,1135.16c.24-9.39,14.14-5.89,15.48,2.54S1905.67,1155.94,1906.2,1135.16Z" fill="#c24e4e" fill-rule="evenodd"/><path d="M1912.82,1149.93a7.73,7.73,0,0,1-3.63-.89c-2.58-1.36-5.59-4.89-5.36-14,.11-4.57,2.9-7.6,7.27-7.88,5.24-.37,11.91,3.72,12.93,10.12.59,3.72-1.4,7.83-5.09,10.46A10.63,10.63,0,0,1,1912.82,1149.93Zm-4.24-14.71c-.13,5.09.9,8.59,2.84,9.62,1.47.77,3.42,0,4.76-.92,2.16-1.54,3.45-4,3.15-5.84-.59-3.71-4.76-6.28-7.92-6.13-1.88.12-2.78,1.16-2.83,3.27Z" fill="#571519"/><path d="M1927.07,1099.76c6.82-.3,12.49,2.63,12.66,6.56s-5.21,7.34-12,7.64-12.48-2.63-12.66-6.55S1920.26,1100.06,1927.07,1099.76Z" fill="#ffaaa9" fill-rule="evenodd"/><path d="M1978.11,1480c0-10,0-21.42,0-33.62-.18-67.84-1-159.81-1.21-173-.35-20,2.71-33.33,7.3-43s10.77-15.83,16.54-21.21c6.82-6.36,12.42-12.45,15.51-17.85,2.72-4.75,3.4-8.84,1-11.87a2.37,2.37,0,0,1,3.71-3c3.84,4.82,3.13,10.69-.59,17.18-3.35,5.85-9.25,12.3-16.4,19-4.39,4.1-9,8.58-12.85,14.9,2.38,1.25,3.58,5.07,4.91,9.3,1.28,4.07,2.71,8.61,4.65,9.86,1.66,1.07,4.56-.81,10-9.2a176.25,176.25,0,0,0,11.55-22,131.24,131.24,0,0,0,7.57-20.75,13.34,13.34,0,0,0,0-4.12,29.9,29.9,0,0,0-3-10.14c-1.53-2.92-3.57-5.28-6-5.88a5.4,5.4,0,0,0-1.94-.11,2.37,2.37,0,0,1-.5-4.72,10.23,10.23,0,0,1,3.55.22c4,1,7,4.27,9.14,8.3a35,35,0,0,1,3.55,11.81,17.39,17.39,0,0,1-.16,5.75,134.81,134.81,0,0,1-7.84,21.57,182.27,182.27,0,0,1-11.89,22.63c-7.35,11.42-12.54,13.18-16.51,10.62-3.39-2.18-5.1-7.59-6.62-12.43-1-3.25-2-6.18-2.58-6.52-.08,0-.35,1-1.62,3.37-3.64,8.9-6,20.91-5.66,38.23.23,13.22,1,105.22,1.21,173.11,0,12.17,0,23.57,0,33.62Z" fill="#571519" fill-rule="evenodd"/><path d="M1979.12,1265a2.38,2.38,0,0,1-2.32-1.86c-5.55-24.59-8.46-31.39-18.29-42.77-6.83-7.9-18.26-21.13-10.24-36.65a2.37,2.37,0,0,1,4.22,2.18c-6,11.69,1.1,21.51,9.62,31.36,10.36,12,13.62,19.55,19.33,44.84a2.38,2.38,0,0,1-1.8,2.84A2.31,2.31,0,0,1,1979.12,1265Z" fill="#571519"/><path d="M1954.94,1251.14c-3.74,0-7-4.63-11.32-15.92-4.11-10.84-8.56-27.38-7.53-38.34.8-8.54,5.83-17,11.45-19.15a2.38,2.38,0,0,1,1.74,4.43c-3.46,1.35-7.78,7.91-8.46,15.17-.89,9.49,3,25,7.25,36.2,4.51,11.85,6.72,12.8,7,12.87.93-.55,2.6-5.59,3.49-8.3,1.91-5.78,3.56-10.76,7.36-11,3.22-.15,5.49,3.28,7.08,6.38a2.38,2.38,0,0,1-4.24,2.16,11.45,11.45,0,0,0-2.48-3.67c-1,1-2.37,5.15-3.2,7.67-2,5.89-3.79,11.46-8,11.55Z" fill="#571519"/><path d="M2032.33,1193.18a2.38,2.38,0,0,1,2-4.3c10.93,5.18,20.78,9.24,29.85,13,14.3,5.89,26.68,11,38.13,18.29,9.72,6.19,15.66,12.39,19.75,20s6.2,16.18,8.42,27.5c7.77,39.76,9,108.75,10.14,168.66.28,15.4.56,30.19.93,43.74h-4.74c-.37-13.52-.64-28.29-.93-43.67-1.09-59.68-2.36-128.4-10.07-167.82-2.13-10.89-4.18-19.22-7.93-26.16s-9.15-12.51-18.11-18.22c-11.08-7.06-23.3-12.1-37.39-17.91C2053.23,1202.46,2043.26,1198.35,2032.33,1193.18Z" fill="#571519" fill-rule="evenodd"/><path d="M2089.79,1292.53a2.38,2.38,0,0,1,4.15,2.32c-10.94,19.52-8.13,32.19-4.86,47,3.64,16.41,7.82,35.31-3.93,68-5.76,16-8.78,35.18-8.86,54.62,0,5.2.17,10.41.58,15.59h-4.76c-.39-5.18-.58-10.41-.56-15.61.08-20,3.2-39.68,9.14-56.2,11.29-31.38,7.26-49.57,3.77-65.36S2078,1313.61,2089.79,1292.53Z" fill="#571519" fill-rule="evenodd"/><path d="M1801.61,1442.66a28.83,28.83,0,0,1-13.88-3.37c-23.56-12.74-8.65-61.78-3.76-77.89,15.68-51.58,26.83-84.1,34.1-99.42,12.22-25.75,24.85-52.38,41.55-61.83a57.49,57.49,0,0,1,18.69-6.41,2.38,2.38,0,1,1,.83,4.68,52.72,52.72,0,0,0-17.18,5.87c-15.39,8.7-27.7,34.65-39.6,59.73-7.16,15.11-18.23,47.41-33.83,98.76-12.4,40.76-11.9,65.09,1.46,72.32,21.12,11.43,55.3-14.38,68-37.34,7.38-13.33,16.47-30.79,25.27-47.68,10.65-20.47,20.72-39.8,25.92-48.2a2.38,2.38,0,0,1,4,2.51c-5.12,8.24-15.14,27.5-25.76,47.89-8.8,16.91-17.9,34.4-25.32,47.78C1851.06,1420.1,1824.32,1442.66,1801.61,1442.66Zm137.17-245.46c-7.16,0-13.83-.11-20-.22h-1a2.39,2.39,0,0,1-2.34-2.42,2.5,2.5,0,0,1,2.42-2.34l1,0c6.2.1,12.84.22,20,.22a2.38,2.38,0,1,1,0,4.75Z" fill="#571519"/><path d="M1787.13,1391.57a2.38,2.38,0,0,1-2.36-2.14c-1.93-18.78,31.48-59.54,58.32-92.29,13.55-16.52,25.24-30.79,28.24-37.31a2.38,2.38,0,0,1,4.32,2c-3.25,7.07-14.56,20.87-28.88,38.34-24.9,30.37-59,72-57.27,88.79a2.38,2.38,0,0,1-2.12,2.61Z" fill="#571519"/><path d="M1910.53,1305.67a6.81,6.81,0,0,1-2.39-.49c-9-3.43-38.38-31.91-37-44.61a4.17,4.17,0,0,1,1.69-3.13c1.7-1.19,3.86-.65,5.43-.26a2.38,2.38,0,0,1-1.13,4.62c-.57-.15-1-.23-1.26-.28.07,3.29,3.29,10,12.2,20.22,8,9.09,16,15.8,20.1,18.21a110.38,110.38,0,0,0-8.55-11.47,2.38,2.38,0,0,1,3.69-3c11.66,14.29,11.57,16.79,10.17,18.76A3.44,3.44,0,0,1,1910.53,1305.67Z" fill="#571519"/><path d="M1875.13,1269.85a2.37,2.37,0,0,1-2.19-3.31c5-11.69,9.09-26.13,5.15-52.51a178,178,0,0,1-1.19-36.73c0-.34,6.24-34.49,14.67-35,4.18-.32,5.4,5.67,5.87,7.91a2.38,2.38,0,1,1-4.66,1,14.88,14.88,0,0,0-1.18-3.8c-3.57,3.56-9.55,25.2-9.95,30.32a172.32,172.32,0,0,0,1.14,35.65c3.33,22.27,1.74,38.22-5.48,55.08A2.38,2.38,0,0,1,1875.13,1269.85Z" fill="#571519"/><path d="M1887.35,1210.38A2.38,2.38,0,0,1,1885,1208l0-6.48c0-8.26,0-15.4.77-21.38.6-4.8,3.25-15.74,5.6-25.4,1.37-5.66,5.28-14,9.67-15a3.94,3.94,0,0,1,4,1.57c3.4,4.49,1.18,14.41-.79,23.18a71.44,71.44,0,0,0-1.61,8.55,2.43,2.43,0,0,1-2.54,2.21,2.38,2.38,0,0,1-2.21-2.54,72.2,72.2,0,0,1,1.72-9.26c1.31-5.86,3.47-15.45,1.93-18.77-1.47,1.22-4.27,5.78-5.57,11.13-2.31,9.54-4.94,20.34-5.5,24.87-.7,5.69-.72,12.36-.73,20.8l0,6.5A2.38,2.38,0,0,1,1887.35,1210.38Z" fill="#571519"/><path d="M1898.18,1297.23a2.39,2.39,0,0,1-2.23-3.2,82.25,82.25,0,0,1,9.79-19.54c4-6,6-9,6.35-30.45.19-10.73.58-20.18,1.14-28.1.17-2.4.3-4.6.43-6.65.49-8.06.84-13.88,2.72-21.12a83.42,83.42,0,0,1,2.92-8.53c.49-1.27,1-2.61,1.52-4,2.41-6.58,1.64-10.14,1.11-10.63-.3.12-2.94,1.84-6,9.39-3.42,8.29-6.05,14.67-8.81,38.52a2.4,2.4,0,0,1-2.63,2.09,2.37,2.37,0,0,1-2.09-2.63c2.84-24.51,5.58-31.16,9.05-39.59,5.43-13.21,10.43-12.91,12.33-12.16,4,1.55,4.62,8.24,1.54,16.65-.52,1.43-1,2.79-1.53,4.09a78.37,78.37,0,0,0-2.77,8c-1.76,6.79-2.1,12.42-2.58,20.21-.12,2.07-.25,4.28-.43,6.69-.55,7.84-.94,17.21-1.12,27.85-.42,22.89-2.81,26.48-7.15,33a77.71,77.71,0,0,0-9.29,18.55A2.38,2.38,0,0,1,1898.18,1297.23Z" fill="#571519"/><path d="M1895.2,1212.68a2.4,2.4,0,0,1-2.38-2.49c.11-2.39,1.1-23.59,2.92-30.23a140.47,140.47,0,0,1,8.23-23.2c3.69-7.85,7.13-8.43,9.33-7.55,4.09,1.64,4.41,9,2.35,15.17a158,158,0,0,0-6.41,33,2.38,2.38,0,0,1-4.74-.33,160.79,160.79,0,0,1,6.64-34.13c1.53-4.58,1-8,.46-9.06-.5.36-1.71,1.51-3.33,5a136.62,136.62,0,0,0-7.94,22.44c-1.37,5-2.41,21.28-2.76,29.19A2.38,2.38,0,0,1,1895.2,1212.68Z" fill="#571519"/><path d="M2020.67,1184.75a2.37,2.37,0,0,1-2.13-1.32c-2.08-4.19-3.45-11.65-4.62-19.08a2.38,2.38,0,1,1,4.7-.73c.69,4.4,2.13,13.58,4.18,17.69a2.39,2.39,0,0,1-1.07,3.19A2.36,2.36,0,0,1,2020.67,1184.75Z" fill="#571519"/><path d="M1868.69,1199.57a2.37,2.37,0,0,1-2.26-1.64c-8.74-26.84-2.47-44,3.58-60.67,5.09-14,10.35-28.43,7.21-49.31-4-26.68-1.66-44.84,7.18-55.53,5.42-6.56,13.28-10.1,23.37-10.5a2.33,2.33,0,0,1,2.47,2.28,2.38,2.38,0,0,1-2.28,2.47c-8.8.36-15.31,3.23-19.9,8.78-7.81,9.45-9.87,26.88-6.13,51.79,3.31,22.08-2.16,37.11-7.45,51.64-6,16.61-11.76,32.3-3.53,57.58a2.36,2.36,0,0,1-2.26,3.11Z" fill="#571519"/><path d="M1974,1085.21a2.29,2.29,0,0,1-.88-.17c-6.84-2.73-11.15-2.15-15.33-1.59-7.33,1-13.67,1.83-27.43-13.14-2.9-3.16-5.41-6.35-7.84-9.42-7.17-9.12-11.52-14.13-17.32-11.81a2.38,2.38,0,0,1-1.78-4.41c9.38-3.78,15.62,4.11,22.84,13.27,2.37,3,4.82,6.12,7.6,9.15,12.08,13.14,16.78,12.51,23.3,11.64a31.15,31.15,0,0,1,17.73,1.9,2.38,2.38,0,0,1-.89,4.58Z" fill="#571519"/><path d="M1976.67,1094.25c-3.66,0-8.13-1.17-14.28-5.25a2.38,2.38,0,1,1,2.63-4c8.71,5.77,12.84,4.66,17.22,3.48a20.07,20.07,0,0,1,7.53-1,2.38,2.38,0,1,1-.45,4.73,15.91,15.91,0,0,0-5.85.84A25.21,25.21,0,0,1,1976.67,1094.25Z" fill="#571519"/><path d="M2097.18,1176.41a2.77,2.77,0,0,1-.56-.07,2.38,2.38,0,0,1-1.75-2.87c4.28-17.7-3.73-35-12.65-45.23-20.13-23.13-21.75-34.68-23.8-49.32-1.23-8.8-2.63-18.79-8.48-33.48-8.71-21.9-29-37.58-55.53-43-28.42-5.82-57.72,1.44-74.64,18.48a2.38,2.38,0,1,1-3.37-3.35c18-18.15,49-25.91,79-19.79,28.17,5.76,49.68,22.5,59,45.91,6.06,15.23,7.5,25.51,8.77,34.58,2,14.4,3.48,24.8,22.67,46.86,9.71,11.16,18.4,30,13.69,49.47A2.38,2.38,0,0,1,2097.18,1176.41Z" fill="#571519"/><path d="M2087.53,1217a2.25,2.25,0,0,1-.76-.13,2.38,2.38,0,0,1-1.5-3c3.79-11.2,7.54-37.65-2.38-65.72a2.38,2.38,0,1,1,4.48-1.58c9.69,27.38,7.35,54.19,2.41,68.82A2.39,2.39,0,0,1,2087.53,1217Z" fill="#571519"/><path d="M2045.45,1194.88a2.38,2.38,0,0,1-2-1.16c-3.71-6.18-9-10.36-14.53-14.78-11.46-9.11-24.45-19.45-29.35-50.14a2.37,2.37,0,1,1,4.69-.75c4.61,28.87,16.31,38.17,27.62,47.17,5.91,4.69,11.49,9.13,15.65,16.06a2.38,2.38,0,0,1-.82,3.26A2.34,2.34,0,0,1,2045.45,1194.88Z" fill="#571519"/><path d="M1867.37,1381.12a2.37,2.37,0,1,1,4.74-.13,58,58,0,0,0,2.12,12.88c1.23,4.66,2.87,9.49,4.62,14.34,5.94,16.52,9.06,36.24,9.14,56.2,0,5.2-.16,10.43-.56,15.61h-4.75c.4-5.18.59-10.39.57-15.59-.08-19.44-3.1-38.61-8.86-54.62-1.8-5-3.49-10-4.75-14.74A61.82,61.82,0,0,1,1867.37,1381.12Z" fill="#571519" fill-rule="evenodd"/><path d="M2043.77,1057.62a10.25,10.25,0,0,1,1.58,5c.3,4.59,4.32,8.12,6.42,2.9,2.2-5.45-2-19.8-7.68-20.68C2035.92,1043.58,2041.66,1055.22,2043.77,1057.62Z" fill="#b37f52" fill-rule="evenodd"/><path d="M2037.58,1061.44a7.07,7.07,0,0,0-1.22-3.35c-1.74-2.59-1-6.15,2.24-4.21,3.44,2,7.14,11.45,4.44,14.29C2039.17,1072.23,2037.44,1063.6,2037.58,1061.44Z" fill="#b37f52" fill-rule="evenodd"/><path d="M2079.49,1179.31a10.22,10.22,0,0,1,.73,5.21c-.46,4.57,2.92,8.72,5.85,3.92,3.07-5,1.34-19.86-4.16-21.67C2074.06,1164.17,2077.8,1176.6,2079.49,1179.31Z" fill="#b37f52" fill-rule="evenodd"/><path d="M2072.75,1182.06a7,7,0,0,0-.65-3.51c-1.29-2.84,0-6.24,2.91-3.78s5.15,12.47,2,14.82C2072.54,1193,2072.26,1184.16,2072.75,1182.06Z" fill="#b37f52" fill-rule="evenodd"/><path d="M1890.44,1059.92a10.22,10.22,0,0,0-.73,5.21c.46,4.57-2.92,8.72-5.85,3.92-3.07-5-1.34-19.86,4.16-21.68C1895.87,1044.78,1892.13,1057.21,1890.44,1059.92Z" fill="#e6b68d" fill-rule="evenodd"/><path d="M1897.18,1062.66a6.91,6.91,0,0,1,.66-3.5c1.28-2.84,0-6.24-2.92-3.79s-5.15,12.48-2,14.83C1897.39,1073.57,1897.68,1064.77,1897.18,1062.66Z" fill="#e6b68d" fill-rule="evenodd"/></svg>