<svg xmlns="http://www.w3.org/2000/svg" viewBox="0 0 2745 1830"><rect width="2745" height="1830" fill="#ffeab8"/><rect x="1372.5" width="1372.5" height="1830" fill="#bbf2e0"/><path d="M2466.08,1403.85v167.2c-25.56,16.75-53.65,30.26-85.89,41.18-1.25.43-2.53.85-3.81,1.25s-2.54.82-3.82,1.25c-50.41,16.11-110.83,26.14-186.84,32.36-1.28.12-2.56.21-3.84.34s-2.56.18-3.88.3c-5.54.43-11.22.82-16.95,1.22v-245.1Z" fill="#fed89f"/><path d="M2660.46,1143.11l-.19,3.87-.76,16c-24.52,154.39-68.72,287.22-117.46,341.63-9.85,11-19.85,21.19-30.19,30.68-2.53,2.32-5.06,4.57-7.63,6.8a350.26,350.26,0,0,1-38.15,28.91c-25.56,16.75-53.65,30.26-85.89,41.18-1.25.43-2.53.85-3.81,1.25V1292.13a297.23,297.23,0,0,1,2-35.38c.24-2,.52-3.84.79-5.73,6.9-47.49,25.66-77.78,46.45-91.32a.52.52,0,0,1,.19-.06,51.84,51.84,0,0,1,9.63-5.06c1.2-.46,2.36-.89,3.54-1.25a70.78,70.78,0,0,1,10.47-2.08c3.62-.54,7.87-1,12.62-1.49l.52-.09c16.9-1.56,40-2.81,64.78-3.75,1.47-.06,3-.13,4.46-.16h0a1.58,1.58,0,0,1,.39,0h0c1.29,0,2.53-.09,3.81-.12C2585.39,1143.9,2638.65,1143.29,2660.46,1143.11Z" fill="#fed89f"/><path d="M2300.84,903.44s-17.52,86.51-26.69,134.28S2253.49,1200,2203,1218.56c-45.06,16.59-211.92,33.91-211.92,33.91-10.65-24.72-13.4-50.11-10.06-76,0,0,149.79-37,163.78-44.62s26.45,16.74,26.45,16.74l-21.77-18.14c13.92-39.64,19.6-214.21,19.73-216.45,6.42-111.47,31.52-164.06,57.82-164.06Z" fill="#fff"/><path d="M2005.63,1240.79c-15.6,1-32.59,10.63-42.41,15.11-27.26,11.9-49.64,22.37-61.72,30-21.41,13.19-46.21,31.08-58.21,36.55-15.28,7-16-3.25-9.88-8.94,18.88-17.57,53.54-41,49.88-43.83-6.25-5.05-53.22,17.41-88.5,28.49-18.46,5.78-19.66-5.54-9.78-11.62,30.19-18.78,84.56-38.29,83.59-41-.92-4.32-42.43,15.65-52.23,19.59-24.51,9.86-48.53,21.33-51.94,11.55-3.42-9.24,35.29-26.1,46.2-31.08,35.48-16.43,53.4-22.23,52-27.11s-78,19.74-87.1,19.41c-12.87-.46-13.62-9.61,4.36-17,34.87-14.31,107-35.87,107-35.87l-23.33,7.21s-29.35-4.81-31.07-16.68,13.65-6.48,24.87-5c17.63,2.25,37.42,4,51.86,5.63,29.94,3.22,57.73,6.37,73.85,5.87,9.15-.74,20.49-2.48,20.49-2.48Z" fill="#ffe4ce"/><path d="M1863.54,1196a4.44,4.44,0,0,1-.62,0c-5.36-.88-32.21-6-34.22-19.9-.56-3.9.26-7,2.46-9.07,4.4-4.24,12.2-2.81,20.45-1.3,2.13.39,4.24.77,6.23,1,11.55,1.46,24.23,2.76,35.41,3.9,5.88.6,11.44,1.16,16.37,1.71l5.34.57c27.3,2.95,53.1,5.73,68,5.28,8.71-.71,19.91-2.42,20-2.44a3.81,3.81,0,0,1,1.16,7.54c-.47.07-11.58,1.76-20.76,2.51-15.65.46-41.66-2.33-69.22-5.31l-5.35-.57c-4.92-.55-10.45-1.11-16.31-1.71-11.23-1.14-24-2.44-35.62-3.92-2.12-.28-4.37-.69-6.62-1.1-4.56-.84-12.2-2.24-13.79-.71-.23.23-.42,1-.2,2.49.89,6.19,17.18,11.7,27.91,13.46a3.82,3.82,0,0,1-.62,7.58Z" fill="#571519"/><path d="M1834.7,1328.58c-4.19,0-6.33-1.93-7.38-3.5-2.66-4-1.19-10,3.5-14.38,7.78-7.24,18.22-15.48,27.43-22.75,6.33-5,13.73-10.83,18.07-14.77-8.49,1.82-25.12,8.23-39.06,13.6s-28.23,10.89-41.33,15c-14.66,4.59-19-.9-20.16-3.48-2.21-4.86.76-11,7.24-15,1.39-.86,2.82-1.73,4.3-2.59-9.86,3.36-16.94,4.58-21.69,2.45a8.77,8.77,0,0,1-4.79-5.23c-3.23-8.71,9.26-18.17,46.09-34.83l2.13-1c9.8-4.54,18.43-8.34,25.36-11.4,6.5-2.86,12.53-5.52,17-7.71-10.26,2.19-26.27,6.53-38.13,9.75-20.78,5.64-33.67,9-37.94,8.94-10.52-.38-12.58-5.59-13-7.81-1-5.88,4.79-11.91,16-16.55,34.64-14.21,106.66-35.77,107.38-36a3.81,3.81,0,1,1,2.18,7.31c-.71.21-72.37,21.66-106.66,35.74-9.55,3.93-11.46,7.49-11.42,8.16.12.22,1.6,1.37,5.74,1.52,3.36.07,21.24-4.76,35.67-8.68,49.15-13.34,53.37-13.44,55-8,2,6.74-5.76,10.16-28.76,20.29-6.91,3-15.5,6.83-25.26,11.35l-2.17,1c-38.8,17.55-42,23.9-42,25.42a1.18,1.18,0,0,0,.72.73c5.08,2.29,22.06-4.71,37-10.87,3-1.24,6.08-2.5,9.15-3.74,2.21-.88,6.25-2.69,10.93-4.78,33.62-15,40.49-16.94,44.09-15.1a4.48,4.48,0,0,1,2.27,2.69c1.51,4.4-1.22,5.59-25,16-18.21,7.94-43.14,18.81-60.17,29.4-3.66,2.26-4.58,4.79-4.31,5.38.17.38,2.91,1.88,10.94-.63,12.87-4,27.1-9.53,40.87-14.84,33.71-13,46-17.16,51.17-13a4.41,4.41,0,0,1,1.68,3.5c0,4-4.6,8.12-24.4,23.74-9.09,7.17-19.4,15.31-27,22.34-2.12,2-2.54,4.1-2.34,4.59a5.56,5.56,0,0,0,1,.11c1.12,0,3.29-.32,7-2,7.13-3.25,19.44-11.37,32.48-20,8.38-5.53,17-11.25,25.31-16.34,10.83-6.83,30.6-16.44,62.2-30.23,1.6-.73,3.48-1.64,5.51-2.63,10.34-5,24.5-11.88,38.16-12.79a3.81,3.81,0,1,1,.51,7.6c-12.17.82-25.56,7.31-35.34,12.05-2.1,1-4,1.95-5.74,2.73-31.28,13.66-50.74,23.1-61.27,29.74-8.19,5.05-16.81,10.73-25.14,16.23-13.29,8.78-25.85,17.07-33.52,20.56C1840.57,1327.86,1837.26,1328.58,1834.7,1328.58Z" fill="#571519"/><path d="M1991.07,1257.37a3.83,3.83,0,0,1-3.5-2.3c-10.42-24.19-13.9-50.43-10.34-78a3.81,3.81,0,0,1,2.86-3.21c41.53-10.25,151.75-38.17,162.87-44.26a15,15,0,0,1,12.06-1.24c11.28,3.47,19.28,18.93,19.61,19.58a3.81,3.81,0,1,1-6.78,3.47c-1.89-3.68-8.28-13.68-15.08-15.77a7.51,7.51,0,0,0-6.15.64c-13.4,7.35-141.65,39.27-162.15,44.35-2.78,24.59.17,47.17,9,68.86,22.08-2.37,167.27-18.33,208.18-33.4,41.47-15.27,56-102.61,64.71-154.8,1.42-8.51,2.76-16.56,4-23.18,9.06-47.24,26.52-133.45,26.69-134.31a3.82,3.82,0,0,1,7.48,1.51c-.18.87-17.63,87-26.68,134.23-1.26,6.53-2.53,14.17-4,23-9.55,57.3-24,143.89-69.59,160.69-45,16.57-206,33.42-212.85,34.13Z" fill="#571519"/><path d="M2149.47,1135.33a4,4,0,0,1-1.27-.21,3.82,3.82,0,0,1-2.33-4.87c12.57-35.78,18.44-185.73,19.49-215.43l0-1c5-110.76,29.06-147,43-158.75a3.81,3.81,0,1,1,4.91,5.82c-10.44,8.82-35.27,41.39-40.28,153.27l0,.94c-1.06,29.89-7,180.86-19.92,217.69A3.81,3.81,0,0,1,2149.47,1135.33Z" fill="#571519"/><path d="M2532.36,1145.8c-46.19-50.47-67.1-251.93-75.23-297.24S2436.87,784,2401.76,743c-23.24-27.14-58.59-34-76-44L2213,771s-50.66,150.88-51.82,185.74,9.29,60.42,38.34,86,38.88,87.1,38.88,87.1c9.54,36,12.33,75.51,3.38,120.89l134.64,2.85s13-77.17,49.31-93.85S2532.36,1145.8,2532.36,1145.8Z" fill="#fff"/><path d="M2376.38,1257.58l-1.22,41.54-2.6,89.06-.45,15.67s-126.55,8.12-211.06,8.15c-23,0-42.92-.58-56.31-2.11l-4.69-29.55s2,32.45.42,72.25v.28c-.12,3.2-.24,6.43-.42,9.73-.4,7.32-1,17.5-1.74,29.4v0c-3.48,54.56-9.91,145.21-11,160.8l-11.59.45c-1.25,0-2.53.09-3.82.12s-2.56.1-3.84.16c-11.77.36-23.85.73-36.26,1a.19.19,0,0,1,0,.18l-5.25,0h-.37l-2,0-48.28-.31s-2.9-54.17-6-113.15c0-.52-.09-1-.12-1.53-.36-6.68-.73-13.42-1.1-20.16-.06-1.22-.15-2.44-.18-3.66s-.18-2.62-.24-3.93c-.37-7-.77-13.94-1.13-20.74-2.41-43.4-4.58-81.65-5.43-93.79-1.5-21-.46-55.94,6.22-82.75v0c.4-1.74.86-3.47,1.34-5.12v0q.82-2.83,1.74-5.49a66.34,66.34,0,0,1,7.72-16.2,29.61,29.61,0,0,1,6.34-6.89,40.42,40.42,0,0,1,8-4.61s0,0,.07,0c9.54-4.36,23.57-8,40.41-11,4.21-.76,8.6-1.46,13.14-2.13h0c2-.31,4-.61,6.1-.89l4.09-.54,2.74-.37h.07c.39-.06.85-.09,1.28-.15,54.29-6.84,124-9.24,170.77-10.1h.73c1.86-.06,3.69-.09,5.46-.12,1.43,0,2.87,0,4.24-.06s2.62,0,3.9-.06,2.65,0,3.93,0h.37c20.22-.25,33-.19,33-.19l16.66,1.22h.15l.21,0,74.08,5.45,1.29.12s0,0,.06,0Z" fill="#8b9aa5"/><path d="M1605.34,1187s20.7-12.28,36.08-7.93,47.28,10.71,66.19,3.19,98.64-77.36,98.64-77.36l36.86-62.29,49.32,30.32-70.61,76.1-153.15,74.4Z" fill="#ffe4ce"/><path d="M1859.65,1005.91l-27.48,42.45s3.07,10.29,17.64,16.05Z" fill="#fdf5ed"/><path d="M1979,1607.09a3.82,3.82,0,0,1-3.8-3.49c-.15-1.76-15-176.16-17.29-208.64-2.21-31.2,1-101.54,24.86-119.79,42.11-32.18,250.32-24,259.16-23.66a3.81,3.81,0,0,1-.15,7.62h-.16c-2.15-.09-214.28-8.42-254.22,22.1-18.5,14.13-24.6,74.82-21.88,113.2,2.29,32.42,17.13,206.77,17.28,208.52a3.82,3.82,0,0,1-3.48,4.13Z" fill="#571519"/><path d="M2029.87,1493.47s-13.28,53.32-12.44,65,10.55,44.81,10.55,95.94c-7.26,1.17-74.94.19-120.21,0,0,0-19.53-92.91-20.17-98.12-3.33-27.26,0-67.85,0-67.85Z" fill="#ffe4ce"/><path d="M1906.18,1658.22a3.82,3.82,0,0,1-3.74-3.08c-.74-3.8-18.13-93.12-18.73-98.43-3.1-27.3-.14-66.89,0-68.56a3.77,3.77,0,0,1,4.09-3.51,3.81,3.81,0,0,1,3.51,4.09c0,.4-3,40.55,0,67.13.47,4.15,13.61,72,18.64,97.82a3.81,3.81,0,0,1-3,4.47A3.61,3.61,0,0,1,1906.18,1658.22Z" fill="#571519"/><path d="M1942.78,1655.16a3.81,3.81,0,0,1-3.77-3.26c-.5-3.41-12.24-83.54-12.83-88.76-3.1-27.3-.14-66.89,0-68.56a3.77,3.77,0,0,1,4.09-3.51,3.82,3.82,0,0,1,3.52,4.09c0,.4-3,40.55,0,67.13.58,5.09,12.68,87.67,12.8,88.5a3.8,3.8,0,0,1-3.21,4.33A3.6,3.6,0,0,1,1942.78,1655.16Z" fill="#571519"/><path d="M2031.79,1654.41a.44.44,0,0,1,0,.19.19.19,0,0,1,0,.18l-5.25,0h-.37l-2,0a0,0,0,0,1,0-.06,1.09,1.09,0,0,1,0-.31c0-35.84-6.71-63.2-10.73-79.54-1.77-7.23-3-12.41-3.3-16.14-.45-7,3.17-26.59,6.5-42.73.27-1.31.55-2.56.79-3.81.31-1.4.61-2.78.89-4.09,1.52-7.1,2.8-12.72,3.29-14.94.06-.21.12-.4.15-.55a3.8,3.8,0,0,1,7.51.82,3.86,3.86,0,0,1-.1.89c-.73,3.17-1.7,7.5-2.77,12.44-.28,1.31-.58,2.69-.85,4.09s-.55,2.56-.83,3.9c-.58,2.65-1.13,5.43-1.68,8.18-.15.67-.27,1.31-.42,2s-.28,1.4-.43,2.1c-2.62,13.48-4.76,26.48-4.45,31.2.21,3,1.49,8.24,3.11,14.83C2024.93,1589.72,2031.79,1617.63,2031.79,1654.41Z" fill="#571519"/><path d="M1854.25,1240.29c16.32,35.94.57,177.54,10.33,262.39,0,0,123.07,38,233-14.53,0,0,0-80.72-13.11-156.14-7.07-40.69-46.57-103.62-46.57-103.62Z" fill="#ffbab8"/><path d="M1965.62,1519.6c-58,0-101.43-13-102.16-13.27a3.82,3.82,0,0,1-2.67-3.21c-4.39-38.18-3.67-86.8-3-133.82.83-55.71,1.62-108.34-7-127.44a3.81,3.81,0,0,1,6.93-3.15c9.39,20.65,8.63,71.65,7.74,130.71-.68,45.73-1.39,93,2.63,130.3,17.45,4.78,127.26,31.85,225.69-14-.13-14-1.39-86.07-13-153.08-6.86-39.47-45.65-101.62-46-102.24a3.81,3.81,0,0,1,6.46-4.05c1.63,2.59,40,64,47.1,105,13,74.88,13.16,156,13.16,156.8a3.8,3.8,0,0,1-2.17,3.44C2054,1513.21,2006.21,1519.6,1965.62,1519.6Z" fill="#571519"/><polygon points="1894.45 1293.56 1809.43 1213.92 1381.65 1213.92 1381.65 1293.56 1894.45 1293.56" fill="#e8e9ea"/><path d="M1888.73,961.66s-20.42,19.12-29.08,44.25c-17,49.36-14.28,191.22-3.22,240.83,67.21,27,146-18.62,173.77-59.78,7.56-9.71-5.12-23.47-5.93-47s-4.39-114.93-5.67-148.14c-1.62-42.09-22.86-66.38-38.93-66.38Z" fill="#fdf5ed"/><path d="M1521.3,882.17l-74.75-35.83c-4.89-1.4-9.94,2-9.94,6.68l-.6,406.82c0,7.52,6.85,13.63,15.3,13.63l347.39,2.76c3.22,0,10.92-4.8,10.92-4.8l-5.56-53.33-283.57-4.18Z" fill="#ccc"/><path d="M1448.28,859.62s-2.81,404.52,2.2,401c0,0,70-44.58,70-46.66l.8-306.08c0-3,0-30,0-30l-63.09-24.72C1453.28,851.75,1448.28,855,1448.28,859.62Z" fill="#fff"/><path d="M1525,1202.71l.12-320.53c0-4.54-2.41-8.57-6.13-10.09L1513.1,870l-57-20.37a7.29,7.29,0,0,0-3.9-.55,7.85,7.85,0,0,0-3.48,1.31,9,9,0,0,0-.85.64,11.38,11.38,0,0,0-3.69,8.6c0,1.56-.46,101.32-.52,200,0,58.1.09,104.46.33,137.8,0,6,.1,11.53.13,16.5.42,48.83.94,49,3.87,50.2a3.68,3.68,0,0,0,1.4.28,6,6,0,0,0,.73-.06,3.71,3.71,0,0,0,1.44-.58L1462,1257l59.62-39.23,1-.64a1.53,1.53,0,0,0,.4-.33.75.75,0,0,0,.27-.22,5.76,5.76,0,0,0,1.31-2.56s0,0,0-.06a17,17,0,0,0,.43-3.75c.09-1.62.06-3.6,0-6C1525,1203.56,1525,1203,1525,1202.71Zm-73.2,11.22c-.79-77.68-.52-238.2,0-354.29v0c0-1.92,1-2.9,1.5-2.9h.05l56.37,20.17.4.15.36.12,1.13.4,4.61,1.64a1.88,1.88,0,0,1,.79.95s0,0,0,0a4.71,4.71,0,0,1,.43,2l-.13,320.53c0,.39,0,1,.06,1.74a58.92,58.92,0,0,1-.08,7l-3.82,2.5-60.94,40C1452.26,1246.69,1452,1232.72,1451.8,1213.93Z" fill="#571519"/><path d="M1808.47,1250.74l-.12-4.15-.13-4.11-.27-8.3-.12-3.9-.12-3.91v0l-.07-2.35c0-.12,0-.24,0-.36a18.09,18.09,0,0,0-1.58-5.89,6.2,6.2,0,0,0-1.56-2.1,7.6,7.6,0,0,0-3.93-1.71.49.49,0,0,0-.22,0l-.76,0a4.56,4.56,0,0,0-1-.12h0a7.77,7.77,0,0,0-.85,0l-9.73-.12h0l-14-.19-8.81-.12h0l-13.15-.15h-.06l-13.21-.18h0l-47-.61-43.25-.59-20.52-.24h0l-2.72,0-10.55-.15h-.61l-10.52-.15-4.64-.07L1592,1211h-.28l-3.87,0-3.87-.06-5.86-.06-3.81-.06-3.88-.06-45.38-.58a0,0,0,0,0-.06,0l-4.42-.06h-.07a3.82,3.82,0,0,0-3.81,3.75v.06a3.84,3.84,0,0,0,.95,2.5,3.79,3.79,0,0,0,2.8,1.31h1.16l49.26.64,3.78.07,3.81,0,4.37.07,2.41,0h1.46l3.85.06,2.62,0,1.61,0,7.41.09,13.76.18h.37l16.56.22,29.06.36,14.4.19h0l36.29.48,13.61.19h0l13.51.15h.06l31.23.43,2.63,0h0l5.55.06,10,.12h.06l8.24.12a10.23,10.23,0,0,1,1.8.09s0,0,0,.07a13.69,13.69,0,0,1,.61,2.92l.12,4v0l.12,3.87.12,3.94.31,9.73.15,4.11.13,4.15.24,7.93a8.68,8.68,0,0,1-3.78.67l-12.91-.21-7.31-.15-6.81-.13L1462,1257l-5.59-.13h0l-5.8-.09a4.33,4.33,0,0,0-.89.09,3.92,3.92,0,0,0-3,3.66,3.77,3.77,0,0,0,3.47,3.85.92.92,0,0,0,.28,0l311.86,5.46,5,.09,5.46.09,20.53.36,4,.07c.09,0,.19,0,.31,0a17.43,17.43,0,0,0,6.83-1.41,16.67,16.67,0,0,0,2.71-1.43,3.8,3.8,0,0,0,1.74-3.14V1264Z" fill="#571519"/><polygon points="1542.26 1222.44 1705.9 1224.25 1691.05 1254.19 1505.09 1253.43 1542.26 1222.44" fill="#a7a7a8"/><path d="M1801.91,1280.06h-.65l-350-2.78a20,20,0,0,1-14.11-5.69,16.56,16.56,0,0,1-5-11.76l.59-406.81a10.52,10.52,0,0,1,4.31-8.43,12,12,0,0,1,10.5-1.91l.42.14L1513.09,870a3.81,3.81,0,0,1-2.93,7L1445.32,850a4.36,4.36,0,0,0-3.63.72,3,3,0,0,0-1.27,2.34l-.59,406.82a9,9,0,0,0,2.74,6.36,12.41,12.41,0,0,0,8.74,3.45l350,2.78a14.76,14.76,0,0,0,3.17-.22c-.14-8.52-.67-39.07-1.37-46.84a15.3,15.3,0,0,0-.63-3.82,4.94,4.94,0,0,1-.51,0l-28.25-.51a3.82,3.82,0,0,1-3.74-3.88,3.89,3.89,0,0,1,3.88-3.75l28.21.52c7.66,0,8.27,6.76,8.64,10.77.83,9.29,1.4,48,1.43,49.62a3.82,3.82,0,0,1-1.11,2.74C1808.28,1279.85,1804.36,1280.06,1801.91,1280.06Z" fill="#571519"/><path d="M1602.54,1207.1s-20.49,19.23-11.25,31.22,23.72,16,33.23,15.87,16.9-21.92,16.9-21.92l-19.33-29.47Z" fill="#ffe4ce"/><path d="M2032.75,467.07c3.34-3.88,8.27-11.22,15.36-14.79,4.92-2.43,13.44-5.14,20.23-7.41,12.56-3.7,17.65-12.91,32.12-21.36,25.16-14.74,61.87-29.87,94.91-32.46,15.59-1.38,37.52-1.86,54.38,2,19.6,5,37.58,15.89,37.58,15.89l10-14.09s27.41-33.06,68.34,8.95c11.35,11.31,36.46,41.28,52.63,102.22,5.4,19.5,8.76,40.72,6,54.27-2.21,11-4.53,14-1.86,29.85,5.49,29.89,23.52,63.43,30.13,67.93,6,4.65,18.58,8.31,19.71,12.93.42,1.73-5.36,5.6-12,6-7.79.68-16.87-1.38-16.87-1.38s16.31,29.07,14.62,52.14c-2.26,23.22-27.48,50.22-22.53,40.44,2.47-4.9,3.25-19.17.42-30.73a65.73,65.73,0,0,0-9.42-21s-7.85,12.94-15.37,17.24c-10.85,5.72-23.38,2.06-25.1,0-2.59-3,12.69-.66,16.92-10.89,4.53-11.52-1.43-35.78-1.43-35.78s-13.14,3.84-26.62-13.68c-13.77-18.67-28.15-59.84-31.8-82.22-4.07-26.56-8.67-62.79-8.67-62.79s-6.32,26.66-13.46,42.5-16.92,43.34-25.59,45.47c-25.85,7-39.13-24.7-39.13-24.7l-24.93-4.29s-154.79-96.76-161.48-51.64c-3.12,19.75-16.17,36.42-16.85,26.18s0-4.9-4.12-14.3c-3.72-7.66-13.19-18.81-17.07-22.15C2014.24,511.41,2024.34,477.7,2032.75,467.07Z" fill="#7d38ce" fill-rule="evenodd"/><path d="M2068.69,496.22s21.83,21.59,43,30.48c13,5.4,40.93,9.56,40.93,9.56s9.8,2.5,17.27,8c9.78,7.4,15.82,12.05,26.06,11.37,21.21-.91,33-27.69,52.16-19.53,10.23,4.23,13.76,21.12,13.13,33.53a35.65,35.65,0,0,1-5,17.14s9.46,13.6,19.81,20.86a43.6,43.6,0,0,0,20.88,7.74s10.49,42.74,25.61,79.45c2,4.79,22,10.45,17.48,16.51-13.12,17.58-70.36,40-98,66.48-23.79,22.73-24.39,52.47-45.33,63.1-6.08,3.09,15-73.39,15-73.39s-.16-18.52-5.44-32.54c-3.42-9-10.44-20.09-16.75-28.34-9.75-12.31-54.73,14-67.82,5.61-14.39-8.72-18.38-20-24.09-33.29-6.85-15.46-14.84-35.55-15.85-37.14-8.15-15.76-17.25-12.91-19.79-25.77-2-10.53,16.38-18.1,15.27-27.62-3.93-23.53-14.53-41.76-15.32-57.48C2060.8,519,2064,502.26,2068.69,496.22Z" fill="#ffe4ce" fill-rule="evenodd"/><path d="M2234.11,605.21a3.81,3.81,0,0,1-.81-7.54c9.15-2,16.22-7,20.46-14.34,4.85-8.44,5.52-19.24,1.9-30.41-2.5-7.1-6.15-11.64-10.82-13.4-6.78-2.56-14.89,1-19.12,3.41a3.81,3.81,0,0,1-3.74-6.65c6.59-3.69,16.36-7.36,25.56-3.89,6.87,2.59,12,8.68,15.34,18.09,4.33,13.33,3.43,26.31-2.5,36.64-5.27,9.17-14.31,15.56-25.46,18A3.79,3.79,0,0,1,2234.11,605.21Z" fill="#571519"/><path d="M2232.36,578.08a4.46,4.46,0,0,1-.63-.05,3.82,3.82,0,0,1-3.14-4.39c1.72-10.33,7.35-14.14,8-14.54a3.81,3.81,0,0,1,4.12,6.41c-.24.17-3.46,2.58-4.58,9.38A3.82,3.82,0,0,1,2232.36,578.08Z" fill="#571519"/><path d="M2096.73,580.59c-1.42-5.78.34-11.11,3.8-12,4-1,7.93,2.35,9.92,8,1.42,5.78-.34,11.11-3.8,12C2102.75,590.14,2098.15,586.37,2096.73,580.59Z" fill="#571519" fill-rule="evenodd"/><path d="M2082.9,548a3.82,3.82,0,0,1-2.47-6.72c8.49-7.21,20.07-9,31-4.86a3.81,3.81,0,1,1-2.72,7.12c-8.39-3.2-16.88-1.91-23.31,3.55A3.8,3.8,0,0,1,2082.9,548Z" fill="#571519"/><path d="M2293.3,619.12a21.11,21.11,0,0,1-3.63-.33c-11.64-2-24.92-12.68-36.42-29.26a3.82,3.82,0,0,1,6.27-4.35c15.1,21.77,27.89,25.48,31.46,26.1,2.7.47,4.9.17,6.35-.87,5.74-4.1,6.62-6.75,11.49-21.44.79-2.38,1.67-5.05,2.69-8.06a146.78,146.78,0,0,1,6.39-15.4c8.8-19.24,19.75-43.18,4.93-80.89a3.81,3.81,0,0,1,7.1-2.79c16,40.72,4.3,66.3-5.1,86.85a140,140,0,0,0-6.08,14.63c-1,3-1.91,5.69-2.7,8.06-5.14,15.52-6.53,19.69-14.29,25.24A14.27,14.27,0,0,1,2293.3,619.12Z" fill="#571519"/><path d="M2150,539.28c-1.92,0-3.91-.08-6-.27-27.11-2.44-63.46-17.13-84.2-51.07a3.81,3.81,0,0,1,6.51-4c24.87,40.69,69.65,46.66,78.37,47.45s16-.53,22.93-1.8c10-1.82,19.4-3.54,30.78,1.48a3.81,3.81,0,1,1-3.08,7c-9.23-4.07-16.78-2.69-26.33-1A101.62,101.62,0,0,1,2150,539.28Z" fill="#571519"/><path d="M2198.12,559.7c-8.35,0-17.38-4-25.6-11.42a3.81,3.81,0,1,1,5.1-5.66c7.1,6.39,15,9.83,21.59,9.42a13.31,13.31,0,0,0,9.6-4.6,3.81,3.81,0,0,1,5.76,5,20.94,20.94,0,0,1-14.89,7.21C2199.16,559.68,2198.64,559.7,2198.12,559.7Z" fill="#571519"/><path d="M2051.81,566a4,4,0,0,1-.49,0,3.81,3.81,0,0,1-3.3-4.26c2.22-17.25-4.43-22.82-12.84-29.87-7.57-6.34-16.16-13.54-17.35-29.95-1.07-15.19,7.18-35.09,19.19-46.3,8.32-7.76,17.82-11.13,27.5-9.78a3.81,3.81,0,0,1-1.06,7.55c-9.24-1.3-16.65,3.52-21.24,7.8-10.32,9.64-17.7,27.29-16.78,40.19,1,13.18,7.6,18.75,14.64,24.65,8.55,7.17,18.25,15.3,15.51,36.68A3.82,3.82,0,0,1,2051.81,566Z" fill="#571519"/><path d="M2314.82,457.42a3.83,3.83,0,0,1-3.7-2.91c-10.15-41.39-47.13-54.14-68.27-58.06-51.41-9.63-122,10.86-160.8,46.65a3.81,3.81,0,1,1-5.17-5.6c41-37.87,113-58.74,167.37-48.54,39.61,7.33,66,30,74.28,63.74a3.81,3.81,0,0,1-2.8,4.61A4,4,0,0,1,2314.82,457.42Z" fill="#571519"/><path d="M2217.61,790.48a3.82,3.82,0,0,1-3.75-3.13c0-.21-3.88-21.17-8.48-39.9s-13.47-39.32-24.5-40.51c-6.78-.66-13.31,1.22-22.37,3.82-6.32,1.81-13.49,3.87-22.56,5.59-17.6,3.61-26.52-6.44-35.19-23.82a394.41,394.41,0,0,1-16.71-37.9,3.81,3.81,0,0,1,7.11-2.76,387.67,387.67,0,0,0,16.42,37.24c8.76,17.58,15,22.19,26.89,19.76,8.78-1.67,15.77-3.67,21.94-5.44,9.5-2.73,17-4.88,25.25-4.08,17.68,1.92,27.09,29.82,31.13,46.29,4.65,19,8.53,40.13,8.57,40.34a3.82,3.82,0,0,1-3.07,4.44A4,4,0,0,1,2217.61,790.48Z" fill="#571519"/><path d="M2088.33,657.5a3.82,3.82,0,0,1-3.62-2.6c-1.2-3.59-5.17-13.89-9-18.41a46.87,46.87,0,0,0-6-5.48c-4.55-3.71-9.25-7.54-10.73-13.6-2.46-7.72,2.24-12.55,6.38-16.81a43.33,43.33,0,0,0,5.2-6.07c2.51-3.59,3.8-6.87-.62-19.89a3.81,3.81,0,0,1,7.22-2.45c4.48,13.2,4.4,19.93-.31,26.64a49.08,49.08,0,0,1-6,7.08c-4.28,4.4-5.57,6.11-4.52,9.44.95,3.82,4.48,6.71,8.22,9.76a51.85,51.85,0,0,1,7,6.45c5.58,6.56,10.24,20.33,10.43,20.92a3.81,3.81,0,0,1-2.4,4.82A3.65,3.65,0,0,1,2088.33,657.5Z" fill="#571519"/><path d="M2073.54,577.23a3.81,3.81,0,0,1-3.57-2.45c-5-13-10.58-27.71-11.88-43.51a58.26,58.26,0,0,1,2.43-24.66,3.81,3.81,0,1,1,7.28,2.26,50.89,50.89,0,0,0-2.13,21.59c1.24,14.91,6.65,29.09,11.43,41.6a3.81,3.81,0,0,1-3.56,5.17Z" fill="#571519"/><path d="M2110.1,658.9a3.81,3.81,0,0,1-.27-7.62h0c.16,0,16.3-1.32,28-12.52a3.81,3.81,0,1,1,5.27,5.51c-13.73,13.15-32,14.56-32.72,14.62Z" fill="#571519"/><path d="M2115.8,577.27a3.77,3.77,0,0,1-2.52-.95c-5.8-5.13-14.47-3.44-17.49-1.1a3.82,3.82,0,0,1-4.68-6c5.59-4.32,18.5-6.31,27.22,1.42a3.81,3.81,0,0,1-2.53,6.66Z" fill="#571519"/><path d="M2328.65,712.69a3.81,3.81,0,0,1-3.55-2.44c-1.12-2.87-27.36-70.64-32.32-93.34a3.81,3.81,0,1,1,7.45-1.63c4.83,22.13,31.71,91.52,32,92.21a3.81,3.81,0,0,1-2.18,4.94A3.92,3.92,0,0,1,2328.65,712.69Z" fill="#571519"/><path d="M2397.1,691.1c-6,0-12-2.52-17.75-7.51-26.9-23.35-45-97.43-49-158.53a3.81,3.81,0,1,1,7.6-.5c4.48,68.29,24.43,134.18,46.42,153.27,4.68,4.06,9.35,5.94,13.83,5.6a3.82,3.82,0,0,1,.57,7.61Q2397.92,691.1,2397.1,691.1Z" fill="#571519"/><path d="M2401.67,619.22a3.81,3.81,0,0,1-3.51-5.3c.11-.27,11.24-27.11,7.67-68.11a3.81,3.81,0,1,1,7.59-.66,183,183,0,0,1-2.69,52.35c9.65-17.9,18.6-53.23-4.52-112.52-27.45-70.2-57.32-104-86.38-97.88-16.6,3.45-25.36,16.23-29.11,23.55a3.81,3.81,0,0,1-6.79-3.48c4.37-8.53,14.65-23.44,34.33-27.53,23.13-4.92,58.42,8.9,95,102.57C2451.85,581,2405.93,617,2404,618.46A3.79,3.79,0,0,1,2401.67,619.22Z" fill="#571519"/><path d="M2399.71,739.31a37.68,37.68,0,0,1-18.07-4.71,3.81,3.81,0,0,1,2.61-7s6.12,1,10.75-2.7c3.56-2.84,5.54-7.84,5.9-14.86.64-17.06-9-35-23.61-56.63a3.81,3.81,0,1,1,6.31-4.27c15.48,22.88,25.64,42.06,24.92,61.24-.48,9.4-3.46,16.3-8.86,20.56q-.54.44-1.11.81a22,22,0,0,0,16.59-6.05c10.71-10.1,4.45-35.77,1.13-44.81a3.81,3.81,0,1,1,7.15-2.63c.56,1.52,13.51,37.37-3.05,53A29.35,29.35,0,0,1,2399.71,739.31Z" fill="#571519"/><path d="M2434.3,774.73a3.83,3.83,0,0,1-2.5-.94,3.79,3.79,0,0,1-.91-4.57c.48-1,11.74-25-8.56-54.61a3.81,3.81,0,1,1,6.29-4.31c13.38,19.51,14.44,37.07,12.88,48.54,6.83-8.22,14.39-22,11.48-40.61-3.3-21-8.52-30.55-15.14-42.66a210.3,210.3,0,0,1-13-27.37,3.81,3.81,0,0,1,7.12-2.74,200.09,200.09,0,0,0,12.61,26.45c6.7,12.25,12.48,22.83,16,45.14,5.63,36.17-22.85,56.17-24.06,57A3.8,3.8,0,0,1,2434.3,774.73Z" fill="#571519"/><path d="M2457.83,681.42c-8,0-15.57-4-22.47-11.83a3.82,3.82,0,1,1,5.73-5c5.52,6.29,11.31,9.36,17.17,9.24a20.59,20.59,0,0,0,10.13-3.28c-7.08-1.27-16.36-5.75-25.28-18.53-17.49-25.6-24.7-66.7-25-68.44a3.81,3.81,0,0,1,3.11-4.4,3.84,3.84,0,0,1,4.4,3.11c.07.41,7.24,41.21,23.76,65.4,14,20,27.75,15.24,28.32,15a3.83,3.83,0,0,1,4.41,1.33,3.78,3.78,0,0,1-.06,4.58c-.4.51-9.89,12.44-23.54,12.82Z" fill="#571519"/><path d="M2380.83,569.22a3.78,3.78,0,0,1-2.54-1,3.81,3.81,0,0,1-.3-5.39c23.64-26.44,9-80.59-6.67-110.54a3.82,3.82,0,1,1,6.77-3.53c14.29,27.39,33.85,87.54,5.58,119.16A3.81,3.81,0,0,1,2380.83,569.22Z" fill="#571519"/><path d="M1869.51,646.37s52.42-16.59,95.48,5c34.45,17.41,59.78,70.47,68.42,95.11,5.7,15.76,8.12,34.4,7,48.8-1.17,18.5-6.9,32.36-6.83,43.07,0,10.21,13.23,14.48,13.23,14.48s-6.77,3.75-12.43,3.31a14.89,14.89,0,0,1-9.11-4.17s1,9.6,5.7,15.75,13,7.35,13,7.35-7.81,8.46-17.57,7.92-21.5-10.56-21.5-10.56a26.88,26.88,0,0,0,3.61,10.35,43.79,43.79,0,0,0,7.15,10s-5.1,0-11.63-3.92-14-12.35-14-12.35a45.65,45.65,0,0,1-8.56,11.09,44.81,44.81,0,0,1-12.12,6.34l-165.3,1.07A17.46,17.46,0,0,1,1796,901c-5,1.52-11.22.12-11.22.12l8.77-9.06,3.87-12.14,1.56-49.68L1787,783s-27.41-8.43-34.47-47.53c-3.63-20.56,15.7-31.22,15.7-31.22s.94-10.82,7.9-17.65c7.92-7.45,21.86-10.92,35.33-18.93C1836.53,653.31,1869.51,646.37,1869.51,646.37Z" fill="#3dd8ac" fill-rule="evenodd"/><path d="M1782,753.85l18.58,11.88-11.94-26.86s13.38,16,25.22,21.93a28.5,28.5,0,0,0,22.59,1.27s13.42,11.39,31.06,14.18c17.69,3.3,39.11-2,39.11-2a47.5,47.5,0,0,1,5.8,16.76c2,10,1.36,23.35,1.36,23.35s8.28-3.91,11.65-10.89,1.83-17,1.83-17,30.18-19.42,37.21,4.37c.76,2.47-.73,12.84-4.56,20.37a34.65,34.65,0,0,1-11.49,12.41s5.25,21.42.28,37.75c-4.46,16.28-19.09,28-19.09,28l15.71-1.1s4.76,1.56,10.52,3a57.27,57.27,0,0,0,13.4,1.19s4.34,22.53,10.71,44.85,14.25,44.49,14.25,44.49L1884.52,993s-9.31-7.49-8.76-13.57,10.92-10.4,11.3-14.66c1.65-18.65,1.82-36.47-7.91-49.78-4.76-6.66-15-6.19-21.45-4.5-13,2.35-30.75,8.76-44.31,1-10.33-6.09-15.8-34.63-23-55.34-4.22-11.31-10.85-16.25-14-22.05-4.42-8.23,13.92-13.67,14.75-25.5s-3.89-23.09-6.49-33.54A171.57,171.57,0,0,1,1782,753.85Z" fill="#ffe4ce" fill-rule="evenodd"/><path d="M1887.5,976.63a3.85,3.85,0,0,1-1.16-.18,3.8,3.8,0,0,1-2.47-4.79s2.44-8.52-.15-29.25c-2.81-21-7.52-29.42-16.27-29.09-6.43.25-13,1.58-19.31,2.86-7.26,1.47-14.74,3-22.16,2.9-16.59-.15-22.57-8.78-27.78-24.66-1.74-5.53-3.37-11.13-4.94-16.52-3.17-10.92-6.17-21.23-9.14-27.54a24.6,24.6,0,0,0-3.95-4.33c-3.84-3.7-8.62-8.31-8.37-14.6.26-6.46,4-9.69,7.4-12.53a32,32,0,0,0,4.24-4.1c3.28-4.49,4.58-8.18,2.82-16.57-.8-4.52-1.91-8.83-3.08-13.39-2.39-9.32-4.86-19-5-30.94a3.82,3.82,0,0,1,3.76-3.87h0a3.83,3.83,0,0,1,3.82,3.76c.15,11.07,2.51,20.27,4.79,29.16,1.21,4.7,2.34,9.15,3.18,13.83,2.29,10.92.17,16.6-4.27,22.68a38.08,38.08,0,0,1-5.34,5.24c-3.1,2.64-4.6,4-4.72,7s3.16,6,6,8.8c2.21,2.12,4.29,4.13,5.5,6.43,3.28,7,6.36,17.59,9.62,28.8,1.56,5.34,3.17,10.89,4.88,16.32,5,15.27,9.25,19.26,20.6,19.36,6.58.08,13.38-1.29,20.57-2.74,6.62-1.34,13.47-2.73,20.52-3,19.34-.69,22.54,23.88,24.13,35.72,2.85,22.78,0,32.16-.15,32.55A3.82,3.82,0,0,1,1887.5,976.63Z" fill="#571519"/><path d="M1816,857.44c-8.07,1.47-11.52,4.07-11.52,4.07s7.06,16.58,18.71,15.92c14.1-.62,15.75-23.21,15.75-23.21A159.61,159.61,0,0,0,1816,857.44Z" fill="#fff" fill-rule="evenodd"/><path d="M1979.66,935.52a3.82,3.82,0,0,1-3.66-2.76l-10.82-37.67a3.81,3.81,0,1,1,7.33-2.11l10.82,37.68a3.81,3.81,0,0,1-2.61,4.71A3.88,3.88,0,0,1,1979.66,935.52Z" fill="#571519"/><path d="M2048.81,855.36c-5.66,0-10.37-1.63-13.7-4.77-3.6-3.38-5.52-8.46-5.57-14.68,0-5.08,1.58-11.12,3.46-18.12,2.34-8.74,5-18.66,4.58-28-1.15-30.64-21.3-83.57-51.86-115.67-24.53-26.15-43.86-28.21-78.7-29.83-1.36,0-2.89,0-4.47.06-7.79.23-17.52.5-24.37-7.37a3.81,3.81,0,0,1,5.75-5c4.49,5.15,11.57,5,18.4,4.76,1.72-.05,3.39-.09,5-.05,35.92,1.66,57.49,4,84,32.2,32.2,33.82,52.72,87.89,53.94,120.61.45,10.49-2.36,21-4.84,30.28-1.65,6.2-3.22,12-3.19,16.09s1.09,7.24,3.16,9.19,5.42,2.89,9.73,2.66a3.81,3.81,0,1,1,.42,7.61C2049.91,855.35,2049.36,855.36,2048.81,855.36Z" fill="#571519"/><path d="M1804.84,676.7a3.81,3.81,0,0,1-2.47-6.72c18.81-15.9,48.24-24.48,67.72-27a3.81,3.81,0,1,1,1,7.56c-19.91,2.57-47.35,11.37-63.77,25.25A3.73,3.73,0,0,1,1804.84,676.7Z" fill="#571519"/><path d="M1772.4,779.06a3.77,3.77,0,0,1-2.44-.89c-.9-.75-22-18.77-21.57-45.85.27-15.55,6.89-26.73,18.16-30.66a3.81,3.81,0,0,1,2.52,7.2c-8.09,2.82-12.84,11.42-13,23.59-.42,23.48,18.64,39.71,18.84,39.87a3.82,3.82,0,0,1-2.46,6.74Z" fill="#571519"/><path d="M1794.27,768.14a3.81,3.81,0,0,1-1.82-7.16,37,37,0,0,1,31.69-2,3.81,3.81,0,1,1-3,7,29.33,29.33,0,0,0-25.11,1.71A3.69,3.69,0,0,1,1794.27,768.14Z" fill="#571519"/><path d="M1808.46,801.16a3.82,3.82,0,0,1-3.3-5.72,15.13,15.13,0,0,1,11.16-7.08c5.1-.74,10.18.62,13.28,3.56a3.81,3.81,0,1,1-5.24,5.53c-1.38-1.3-4.23-2-6.95-1.55a7.58,7.58,0,0,0-5.64,3.36A3.82,3.82,0,0,1,1808.46,801.16Z" fill="#571519"/><path d="M1942.47,829.58a3.82,3.82,0,0,1-1.09-7.47c12.22-3.67,17.39-14.57,18.11-22.8.72-6.75-1.24-12.23-5.26-14.73-4.2-2.61-10.25-1.8-16.58,2.22a3.81,3.81,0,0,1-4.09-6.44c8.91-5.65,17.91-6.47,24.7-2.25,6.56,4.08,9.85,12.28,8.82,21.94-.91,10.52-7.62,24.6-23.51,29.37A3.85,3.85,0,0,1,1942.47,829.58Z" fill="#571519"/><path d="M1943.07,805.51a3.8,3.8,0,0,1-3.56-5.15c.28-.74,2.9-7.26,8.71-8.59a3.81,3.81,0,1,1,1.71,7.43c-1.33.3-2.75,2.49-3.29,3.88A3.85,3.85,0,0,1,1943.07,805.51Z" fill="#571519"/><path d="M1802.76,771.36l-.46,0c-.53-.06-13.2-1.78-24.24-17.79-8.8-12.49-19.13-46.08-9.52-63.41,3-5.38,9.24-11.63,22.23-10.91a3.81,3.81,0,0,1,3.59,4,3.75,3.75,0,0,1-4,3.59c-7.34-.4-12.29,1.88-15.13,7-7.61,13.72,1.48,44.53,9.11,55.35a43.6,43.6,0,0,0,8.14,9c-4.11-7.86-8.49-18.92-8.85-30.84a3.81,3.81,0,1,1,7.62-.23c.6,19.9,14.41,37.89,14.55,38.07a3.81,3.81,0,0,1-3,6.15Z" fill="#571519"/><path d="M1823.18,766.21a2.61,2.61,0,0,1-.4,0c-11.7-1.21-22.63-8.33-30.77-20.05-7.69-11.09-11.36-24.36-9.12-33a3.81,3.81,0,0,1,7.38,1.91c-1.43,5.52.87,16.49,8,26.77,4,5.71,12.53,15.49,25.28,16.82a3.81,3.81,0,0,1-.38,7.6Z" fill="#571519"/><path d="M1880.11,780.63c-34.49,0-62.19-21.84-69.8-56.82a3.81,3.81,0,0,1,7.45-1.62c7.76,35.7,39,56.09,76,49.59a3.81,3.81,0,0,1,1.33,7.51A86.65,86.65,0,0,1,1880.11,780.63Z" fill="#571519"/><path d="M1912.84,819.33a3.81,3.81,0,0,1-3.79-4.25c0-.31,3.42-31.33-11.41-51.17a3.81,3.81,0,1,1,6.1-4.57c12.29,16.42,13.55,38.6,13.3,49.72a17.08,17.08,0,0,0,4.58-5.48c3.24-6.1,3.08-14.45-.45-24.81a3.81,3.81,0,1,1,7.22-2.46c4.27,12.52,4.23,23-.12,31a24.92,24.92,0,0,1-14.48,11.9A3.87,3.87,0,0,1,1912.84,819.33Z" fill="#571519"/><path d="M1927.67,895.26a28.33,28.33,0,0,1-2.86-.12,3.81,3.81,0,0,1-1.08-7.32c1.15-.48,28.53-12.56,22.71-55.7a3.81,3.81,0,1,1,7.56-1c3.89,28.91-6.13,45.82-15.12,54.88a27.7,27.7,0,0,0,11.51-6.6c6.41-6.34,9.14-16.19,8.09-29.3a3.81,3.81,0,0,1,7.6-.61c1.24,15.5-2.26,27.4-10.4,35.39C1946.24,894.13,1933.35,895.26,1927.67,895.26Z" fill="#571519"/><path d="M1863.4,738.12c-19.15,0-35.69-11.73-49.26-35a3.81,3.81,0,1,1,6.58-3.85c14.3,24.48,31.07,34.39,51.31,30.31a3.81,3.81,0,1,1,1.51,7.47A51.07,51.07,0,0,1,1863.4,738.12Z" fill="#571519"/><path d="M1790,906.17a24.08,24.08,0,0,1-9.29-1.82,3.81,3.81,0,0,1,1.44-7.3c.29,0,9.32-.9,10.73-19.91a3.75,3.75,0,0,1,4.09-3.52,3.82,3.82,0,0,1,3.52,4.09c-.75,10.11-3.51,16.43-6.67,20.38a12.15,12.15,0,0,0,6-3.86,3.81,3.81,0,0,1,5.78,5A20.07,20.07,0,0,1,1790,906.17Z" fill="#571519"/><path d="M1962.35,897a39,39,0,0,1-10-1.29,3.81,3.81,0,1,1,1.94-7.37c8.77,2.31,18.67.6,25.22-4.34a20.9,20.9,0,0,0,8.3-16.89,3.81,3.81,0,0,1,3.81-3.74h.08a3.8,3.8,0,0,1,3.73,3.89c-.18,9.47-4.1,17.36-11.32,22.82A36.33,36.33,0,0,1,1962.35,897Z" fill="#571519"/><path d="M2017.38,898.5c-1.59,0-20.06-.47-29.89-21.44a3.81,3.81,0,0,1,6.9-3.24,30.17,30.17,0,0,0,11.74,13.54c-3.65-6.07-7.06-15-7.31-27.33-.14-8.39,1.72-15.88,3.7-23.8,3.93-15.74,8-32-2.37-59.27a3.81,3.81,0,0,1,7.13-2.71c11.2,29.49,6.65,47.73,2.64,63.82-1.85,7.43-3.6,14.44-3.48,21.82.46,22.47,12.63,31.3,13.15,31.66a3.83,3.83,0,0,1,1.45,4.25,3.79,3.79,0,0,1-3.57,2.7Z" fill="#571519"/><path d="M2026.76,886.72a17.46,17.46,0,0,1-2.78-.22c-6.11-1-11.07-5-14.74-12A3.81,3.81,0,1,1,2016,871c2.52,4.81,5.52,7.43,9.17,8,3.48.56,7.31-.85,10.49-2.64a20.61,20.61,0,0,1-5.82-4.33c-7.52-7.91-10-21.88-7.39-41.51a3.81,3.81,0,1,1,7.56,1c-2.84,21.31,1.28,30.86,5.23,35.13a12.1,12.1,0,0,0,9,4.14,3.83,3.83,0,0,1,2.93,6.53C2046.69,877.71,2037.34,886.72,2026.76,886.72Z" fill="#571519"/><path d="M1841.65,851.56a3.76,3.76,0,0,0-3-1.13,160,160,0,0,0-23.48,3.26c-8.63,1.62-12.6,4.46-13,4.76A3.8,3.8,0,0,0,1801,863c.3.76,7.92,18.27,21.46,18.27.31,0,.61,0,.92,0,17.3-.77,19.31-25.69,19.37-26.75A3.75,3.75,0,0,0,1841.65,851.56Zm-32.06,11.59a36,36,0,0,1,7.08-1.95.22.22,0,0,1,.15,0,145.75,145.75,0,0,1,17.57-2.75c-1.19,5.71-4.24,14.89-11.43,15.19C1817.07,874,1812.25,867.73,1809.59,863.15Z" fill="#571519"/><path d="M1993.51,1026.68l-55,53.43s-11.35-48.88-72.87-54.09c0,0,49.86-84.64,72.06-91.62,25.91-8.15,52.65,4.81,52.65,4.81Z" fill="#fdf5ed"/><path d="M1899.85,1258.74a119.21,119.21,0,0,1-44.84-8.47,3.82,3.82,0,0,1-2.3-2.7c-11.32-50.74-14-192.63,3.34-242.9,8.86-25.73,29.22-45,30.08-45.8a3.81,3.81,0,0,1,5.21,5.57c-.2.18-19.85,18.81-28.09,42.71-16.4,47.63-14,186.28-3.52,236.78,62.89,23.85,139.56-18,167.31-59.1,3-3.9,1.67-8.78-1.17-17.83-2.25-7.13-5-16-5.41-26.86-.6-17.37-2.74-72.46-4.3-112.68L2014.79,992c-1.55-40.38-21.75-62.71-35.12-62.71a3.82,3.82,0,1,1,0-7.63c19.26,0,41.08,26.78,42.74,70.05l1.37,35.44c1.56,40.23,3.7,95.32,4.3,112.71.34,9.82,2.85,17.8,5.06,24.84,3,9.43,5.53,17.57.07,24.58C2010.58,1222.82,1956,1258.74,1899.85,1258.74Z" fill="#571519"/><path d="M1432,1217.74H1372.5a3.81,3.81,0,1,1,0-7.62H1432a3.81,3.81,0,0,1,0,7.62Z" fill="#571519"/><path d="M1894.45,1297.38a3.8,3.8,0,0,1-2.61-1l-83.93-78.61H1525.49a3.81,3.81,0,1,1,0-7.62h283.92a3.83,3.83,0,0,1,2.61,1l85,79.63a3.81,3.81,0,0,1-2.6,6.6Z" fill="#571519"/><path d="M2238.35,1133.63a3.81,3.81,0,0,1-3.76-3.21c-.1-.6-10-60.49-37.64-84.84-29-25.53-40.86-52.14-39.63-89,1.16-35,49.94-180.64,52-186.82a3.81,3.81,0,0,1,7.23,2.43c-.51,1.5-50.5,150.74-51.63,184.65-1.16,34.77,9.57,58.81,37,83,29.74,26.17,39.72,86.8,40.13,89.37a3.81,3.81,0,0,1-3.17,4.36A3,3,0,0,1,2238.35,1133.63Z" fill="#571519"/><path d="M2532.36,1149.62a3.8,3.8,0,0,1-2.81-1.24c-39.13-42.77-59.79-186.78-70.88-264.15-2.19-15.29-3.93-27.36-5.3-35-7.91-44.07-19.33-62.67-54.51-103.74C2383,726.94,2361,718.12,2343.32,711c-7.59-3-14.14-5.67-19.42-8.7a3.81,3.81,0,1,1,3.79-6.61c4.82,2.76,11.15,5.3,18.47,8.24,18.44,7.4,41.4,16.61,58.49,36.58,35.66,41.63,48.06,61.87,56.23,107.35,1.39,7.77,3.13,19.9,5.34,35.27,10.19,71.1,31.41,219.05,69,260.08a3.81,3.81,0,0,1-2.81,6.39Z" fill="#571519"/><path d="M2363.89,1258.46c-10.85,0-24.11-1.64-38.74-3.45-26.88-3.32-57.35-7.09-78-.45a3.81,3.81,0,1,1-2.34-7.25c22.22-7.17,53.58-3.29,81.25.13,19.78,2.45,38.46,4.76,49.48,2.4a3.81,3.81,0,1,1,1.6,7.45A64.12,64.12,0,0,1,2363.89,1258.46Z" fill="#571519"/><path d="M2241.72,1254.52a3.81,3.81,0,0,1-3.14-6c2.86-4.2,9.78-16.68,7.45-23.93a3.81,3.81,0,0,1,7.26-2.33c3.88,12.07-7.15,28.71-8.42,30.56A3.8,3.8,0,0,1,2241.72,1254.52Z" fill="#571519"/><path d="M1936,1073s-67.77,96.62-89.07,108.47c-23.36,13-148.61,46.68-148.61,46.68l-5.22,2.72s-23.07,8.79-30.13,9.19c-20.83,1.48-32-.92-40.12,5.39l-11.67-44.64c-5.4.87-21.56,3.81-23.2,9.79s-1.24,22.72-9.74,21.66c-4.89-.47-3-7.12-3.77-18-.76-10.58.41-14.9,4-17.85s21.07-11.83,29.69-12.71c9.58-1,29.44,7,44.31,10.32,6.26,1.29,16,5.46,30.26,2.39,9.17-1.91,23.44-9.66,23.44-9.66s105.17-61.53,111-64.76,58.63-91.76,58.63-91.76C1900.78,1030.27,1920.13,1046.58,1936,1073Z" fill="#ffe4ce"/><path d="M1579.13,1236.1a11.17,11.17,0,0,1-1.39-.09c-6.84-.65-6.86-7.54-6.88-13.62,0-2.32,0-5-.23-7.9-.71-10-.06-16.58,5.37-21,3.91-3.23,22.2-12.6,31.72-13.58,7-.7,17.7,2.48,29,5.86,5.62,1.67,11.43,3.4,16.49,4.54,1.18.24,2.54.6,4,1,5.88,1.56,13.93,3.69,24.59,1.39,8.53-1.77,22.28-9.2,22.42-9.28,4.19-2.46,105.17-61.53,111-64.75,7.68-4.25,17.89,2.39,19,3.16a3.81,3.81,0,1,1-4.26,6.32h0c-2.38-1.59-8.22-4.39-11.06-2.81-5.74,3.18-109.89,64.1-110.94,64.72-.7.39-15,8.11-24.58,10.1-12.42,2.69-21.87.18-28.12-1.47-1.35-.36-2.58-.69-3.69-.92-5.39-1.2-11.32-3-17.07-4.68-10.12-3-20.59-6.09-26.08-5.58-7.62.78-24.34,9.14-27.65,11.87-1.82,1.5-3.39,3.75-2.61,14.62.23,3.2.24,6,.25,8.43a33.76,33.76,0,0,0,.31,6.05c2.71-.27,3.8-8.28,4.39-12.66a50.74,50.74,0,0,1,1.08-6.2c.59-2.14,2.39-8.67,26.27-12.55a3.81,3.81,0,0,1,1.22,7.53c-15.55,2.52-19.86,6-20.14,7a48.3,48.3,0,0,0-.87,5.19C1589.76,1224.1,1588.13,1236.1,1579.13,1236.1Z" fill="#571519"/><path d="M1600.64,1250.21a3.8,3.8,0,0,1-1.75-.43c-10.1-5.22-18.83-18.07-15.21-28.16,3.7-9.79,20.61-20.91,30-25.94a3.81,3.81,0,1,1,3.6,6.72c-13,7-24.37,16.35-26.46,21.86-1.9,5.3,3.93,14.8,11.57,18.75a3.81,3.81,0,0,1-1.76,7.2Z" fill="#571519"/><path d="M1614.66,1257.77a19.93,19.93,0,0,1-13.8-5.72c-3-3-12.65-13.16-9.61-20.41,3.25-8.16,12.87-15.85,28.58-22.8a3.81,3.81,0,0,1,3.08,7c-13.42,5.94-22.16,12.59-24.6,18.72-.3,1.29,2.08,6.4,7.88,12.07a12.06,12.06,0,0,0,8.76,3.54,3.85,3.85,0,0,1,4.12,3.45,3.8,3.8,0,0,1-3.39,4.14A9.59,9.59,0,0,1,1614.66,1257.77Z" fill="#571519"/><path d="M1620.86,1258.34a16.9,16.9,0,0,1-6.84-1.28c-6.67-2.72-10.94-12-9.67-17.74,1.86-6.21,11-13.63,21.74-17.93a3.81,3.81,0,1,1,2.82,7.08c-10.58,4.23-16.5,10.51-17.19,12.78-.42,2,2.07,7.48,5.3,8.8,3,1.35,9.65.59,13.3-2.14,2.37-1.78,2.15-3.38,2.07-4a3.81,3.81,0,1,1,7.55-1c.59,4.29-1.2,8.24-5.06,11.13A24.51,24.51,0,0,1,1620.86,1258.34Z" fill="#571519"/><path d="M1622.82,1249.23a3.81,3.81,0,0,1-2.35-6.81c6.67-5.22,14.86-5.37,26.2-5.58,4.64-.09,9.91-.18,16-.62,4.76-.26,19.77-5.42,28.84-8.87l5-2.61a5,5,0,0,1,.76-.3c1.25-.33,125.06-33.71,147.74-46.33,16.85-9.37,69.09-80.65,87.8-107.33a3.81,3.81,0,1,1,6.25,4.37c-2.79,4-68.53,97.49-90.34,109.63-23.07,12.83-139.91,44.45-149.07,46.92l-4.85,2.52a2.87,2.87,0,0,1-.4.18c-2.42.92-23.84,9-31.28,9.43-6.24.45-11.6.55-16.34.63-10.59.2-17,.31-21.64,4A3.79,3.79,0,0,1,1622.82,1249.23Z" fill="#571519"/><path d="M1817.13,1125.76a3.76,3.76,0,0,1-2.29-.77,3.8,3.8,0,0,1-.75-5.34c18.24-24.21,58-93.49,58.37-94.19a3.81,3.81,0,1,1,6.61,3.79c-1.64,2.86-40.36,70.39-58.9,95A3.77,3.77,0,0,1,1817.13,1125.76Z" fill="#571519"/><path d="M1938.46,1083.92a3.89,3.89,0,0,1-1.07-.15,3.82,3.82,0,0,1-2.64-2.8c-.45-1.88-11.61-46.25-69.48-51.15a3.82,3.82,0,0,1-3-5.74c5.18-8.79,51.27-86.1,74.21-93.32,27-8.51,54.31,4.46,55.45,5a3.81,3.81,0,0,1-3.32,6.86c-.25-.12-25.76-12.19-49.84-4.6-15.94,5-51.18,58.85-66.9,84.84,45.78,6.25,62.91,37.06,68.22,50.31l50.73-49.24a3.81,3.81,0,1,1,5.31,5.47l-55,53.42A3.78,3.78,0,0,1,1938.46,1083.92Z" fill="#571519"/><rect x="1381.65" y="1293.56" width="512.81" height="67.3" transform="translate(3276.09 2654.42) rotate(-180)" fill="#e8e9ea"/><rect x="1817.16" y="1360.85" width="55.88" height="293.56" fill="#e8e9ea"/><path d="M1894.46,1364.67H1375.55a3.82,3.82,0,0,1,0-7.63h515.09v-59.67H1375.55a3.82,3.82,0,0,1,0-7.63h518.91a3.81,3.81,0,0,1,3.81,3.81v67.3a3.82,3.82,0,0,1-3.81,3.81Z" fill="#571519"/><path d="M1873,1658.22a3.81,3.81,0,0,1-3.82-3.81V1364.66H1821v289.75a3.81,3.81,0,1,1-7.62,0V1360.85a3.8,3.8,0,0,1,3.81-3.81H1873a3.81,3.81,0,0,1,3.81,3.81v293.56A3.81,3.81,0,0,1,1873,1658.22Z" fill="#571519"/><path d="M2376.38,1299.12v169.73s-1.34,0-3.82-.12c-11.77-.37-49.1-1.68-89.36-3.91h-.06c-12.14-.67-24.59-1.4-36.63-2.25-17.66-1.22-34.53-2.66-48.68-4.27h-.09l-.61-3.75-4.09-25.81s.7,11.38.95,28.92v0c0,.48,0,.94,0,1.43v.06c.15,14.31,0,32.45-1,51.79-1.92,36.75-8.87,112.18-11.16,136.46-1.28.09-2.56.18-3.88.3-5.54.43-11.22.82-16.95,1.22-23.15,1.59-47.7,2.87-73.78,3.88l-11.59.45c-1.25,0-2.53.09-3.82.12-.82-9.66-7.47-87.84-12.32-146.67-.12-1.28-.21-2.56-.3-3.81v0c-.12-1.35-.25-2.59-.34-3.91-2-24.15-3.6-44.1-4.24-53.16-2.31-32.82,1.53-99.79,23.37-116.51.55-.42,1.13-.82,1.77-1.25,1-.67,2.19-1.34,3.44-2h0c1.1-.58,2.26-1.13,3.51-1.68,35.41-15.62,129-21.59,200.32-23.88,3.72-.12,7.41-.25,11-.34,19.55-.51,36.94-.79,50.33-.91,11.19-.12,19.61-.12,24.15-.12h3.82Z" fill="#8b9aa5"/><path d="M2348.41,1299.24a3.76,3.76,0,0,1-1.68,3.17c-6.16,4.15-30.93,5-77.8,6.19-63.38,1.65-148.39,3.88-181.33,19.46a35.14,35.14,0,0,0-3.51,1.86,28.3,28.3,0,0,0-3.44,2.23c-.12.06-.21.15-.31.21-18.48,14.12-24.58,74.82-21.86,113.19.61,8.9,2.19,28.51,4.14,52.3.12,1.28.22,2.6.34,3.91s.21,2.53.31,3.81c4.9,59.29,11.67,138.87,12.41,147.71-1.25,0-2.53.09-3.82.12s-2.56.1-3.84.16c-.88-10.49-7.41-87.44-12.23-145.76-.09-1.28-.21-2.57-.3-3.81s-.22-2.63-.31-3.91c-2-24.52-3.69-44.86-4.33-54-2.19-31.2,1-101.54,24.89-119.81a35.85,35.85,0,0,1,3.11-2.13c1.07-.64,2.23-1.28,3.44-1.93s2.29-1.12,3.51-1.64c36.09-15.77,120-18,182.91-19.61,6.16-.15,12.35-.34,18.39-.49,3.72-.12,7.41-.25,11-.34,22.6-.79,41.12-1.89,44.41-4.05a3.79,3.79,0,0,1,5.92,3.14Z" fill="#571519"/><path d="M2196.85,1511.18c-1.89,36.24-8.78,110.87-11.13,135.91-1.28.12-2.56.21-3.84.34s-2.56.18-3.88.3c2.2-23.51,9.31-100.16,11.23-136.94a812.9,812.9,0,0,0,0-81.83,3.82,3.82,0,0,1,7.62-.46c0,.21.62,10.31.92,26,0,1.25,0,2.51.06,3.82s0,2.53,0,3.84C2198,1476.08,2197.8,1493.16,2196.85,1511.18Z" fill="#571519"/><path d="M2376.37,1472.66h-.11c-1.17,0-117-3.53-179-10.58a3.81,3.81,0,1,1,.86-7.58c61.69,7,177.16,10.5,178.32,10.54a3.81,3.81,0,0,1-.11,7.62Z" fill="#571519"/><path d="M2670.37,1143.08a3.82,3.82,0,0,1-3.78,3.84c-1.44,0-3,0-4.61,0-.55,0-1.13,0-1.71,0-45.69.46-158.39,2.08-203.92,7.23-7.32.83-12.9,1.74-16.2,2.75l-.52.18h0c-29.67,9.54-59.41,54.84-59.41,135v320.1c-1.25.43-2.53.85-3.81,1.25s-2.54.82-3.82,1.25v-322.6a300.26,300.26,0,0,1,1.86-34.34,2.38,2.38,0,0,0,.06-.37c.13-1.31.31-2.62.49-3.9s.31-2.44.49-3.66c9-61.73,37.46-92.51,62.43-100.19.07,0,.1,0,.13,0,11.37-3.45,46.18-5.8,86.56-7.32l4.69-.19c1.59-.06,3.17-.12,4.79-.15h0c46-1.65,97.36-2.35,129-2.65,1.19,0,2.32,0,3.44,0h0A3.81,3.81,0,0,1,2670.37,1143.08Z" fill="#571519"/><path d="M2504.23,1542.14c0-102.48-1.65-235.86-9.63-292.62-12.51-89-50.73-92.29-55-92.38h-.36a3.86,3.86,0,0,1-3.18-1.43,3.34,3.34,0,0,1-.61-1.13,2.77,2.77,0,0,1-.24-1,3.81,3.81,0,0,1,2.65-3.9c.07,0,.1,0,.13,0,.24-.06.45-.09.7-.13a28.84,28.84,0,0,1,10.77,1.74c.51.15,1,.34,1.52.55h0a39.09,39.09,0,0,1,5.31,2.41c15.52,8.36,37,31.38,45.81,94.28,7.87,55.9,9.64,185.1,9.7,286.85C2509.33,1537.66,2506.8,1539.91,2504.23,1542.14Z" fill="#571519"/><path d="M1932.68,1086.73a15.55,15.55,0,0,1-4.22-.59,3.81,3.81,0,0,1,2.15-7.32c.72.21,3.77.72,4.56-.63a3.81,3.81,0,1,1,6.59,3.84C1939.64,1085.66,1935.93,1086.73,1932.68,1086.73Z" fill="#571519"/><path d="M1868.14,1040.48a3.66,3.66,0,0,1-1.8-.46,12.08,12.08,0,0,1-5.59-7,11.37,11.37,0,0,1,1.57-9,3.81,3.81,0,1,1,6.53,3.94,4.1,4.1,0,0,0-.75,3,4.43,4.43,0,0,0,1.93,2.33,3.84,3.84,0,0,1,1.43,5.18A3.8,3.8,0,0,1,1868.14,1040.48Z" fill="#571519"/><path d="M1849.82,1068.22a3.79,3.79,0,0,1-1.4-.27c-16.12-6.36-19.76-18-19.91-18.5a3.86,3.86,0,0,1,.46-3.17l27.48-42.45a3.81,3.81,0,0,1,6.4,4.15l-26.38,40.76c1.37,2.67,5.27,8.38,14.75,12.12a3.81,3.81,0,0,1-1.4,7.36Z" fill="#571519"/><path d="M1686.46,1190.85c-9.38,0-19.33-1.73-29.12-3.41-14.52-2.52-29.55-5.11-41-1.51a3.81,3.81,0,1,1-2.28-7.27c13.24-4.16,29.2-1.41,44.62,1.26,17.1,3,34.77,6,47.1-.94,4.68-2.84,92.82-71,97.54-76.43,2.51-3.23,19.19-31.25,29.78-49.28a3.81,3.81,0,1,1,6.57,3.86c-2.72,4.64-26.69,45.42-30.37,50.15-4.08,5.25-95.17,75.74-99.78,78.34C1702.6,1189.51,1694.75,1190.85,1686.46,1190.85Z" fill="#571519"/><path d="M1883.12,993.19a10.09,10.09,0,0,1-5.68-1.66c-6.24-4.16-5.57-14.18-5.47-15.3a3.77,3.77,0,0,1,4.12-3.48,3.82,3.82,0,0,1,3.48,4.12c-.22,2.65.31,7.12,2.11,8.32,1.2.79,3.69.3,6.84-1.35a3.81,3.81,0,1,1,3.53,6.76A19.66,19.66,0,0,1,1883.12,993.19Z" fill="#571519"/><path d="M2376.37,1498.68a3.82,3.82,0,0,1-1.79-.44c-31.16-16.6-123.95-31.5-124.88-31.65a3.81,3.81,0,0,1,1.2-7.53c3.86.61,95,15.26,127.26,32.45a3.8,3.8,0,0,1-1.79,7.17Z" fill="#571519"/><path d="M2374.23,1602.48a4.11,4.11,0,0,1-.77-.08c-50.07-10.3-132.09-36.71-132.91-37a3.81,3.81,0,0,1,2.34-7.25c.82.26,82.45,26.54,132.11,36.76a3.82,3.82,0,0,1-.77,7.55Z" fill="#571519"/><path d="M2193.05,849.85a22.64,22.64,0,0,1-4.78-.53,3.81,3.81,0,0,1,1.59-7.46c11.52,2.47,18.44-8.86,29.7-29.1,9.26-16.66,20.8-37.39,40.18-51.46,17.31-12.57,34.25-22,47.86-29.52,17.41-9.66,31.16-17.3,34.71-25.4a3.81,3.81,0,1,1,7,3.06c-4.58,10.46-18.59,18.24-38,29-14.13,7.85-30.14,16.73-47.08,29-18,13.08-28.64,32.16-38,49C2216.33,834.26,2207.66,849.85,2193.05,849.85Z" fill="#571519"/><path d="M2118,1235c-15,1-31.36,10.23-40.82,14.54-26.24,11.46-47.79,21.53-59.42,28.86-20.6,12.7-44.47,29.92-56,35.19-14.7,6.7-15.38-3.14-9.5-8.61,18.17-16.91,51.53-39.48,48-42.19-6-4.87-51.23,16.76-85.2,27.42-17.76,5.56-18.92-5.33-9.41-11.19,29.06-18.07,81.4-36.85,80.47-39.47-.89-4.16-40.85,15.06-50.28,18.86-23.59,9.48-46.72,20.53-50,11.12-3.3-8.9,34-25.13,44.48-29.92,34.14-15.82,51.4-21.4,50-26.1s-75.08,19-83.85,18.68c-12.38-.44-13.1-9.25,4.21-16.38,33.56-13.77,103-34.52,103-34.52l-22.47,6.94s-28.25-4.64-29.9-16.06,13.14-6.24,23.94-4.82c17,2.16,36,3.88,49.92,5.41,28.82,3.1,55.58,6.13,71.09,5.66,8.81-.72,19.72-2.39,19.72-2.39Z" fill="#ffe4ce"/><path d="M1981.2,1192a4.21,4.21,0,0,1-.62,0c-5.18-.85-31.11-5.77-33.07-19.27-.55-3.8.27-6.78,2.42-8.85,4.28-4.14,11.82-2.76,19.8-1.3,2,.37,4.08.75,6,1,11.08,1.41,23.24,2.64,34,3.74,5.71.58,11.1,1.13,15.88,1.66l5.22.56c26.24,2.84,51,5.47,65.34,5.08,8.38-.69,19.16-2.34,19.26-2.35a3.81,3.81,0,1,1,1.16,7.53c-.45.07-11.15,1.71-20,2.43-15,.47-40.07-2.24-66.59-5.11l-5.22-.56c-4.78-.53-10.15-1.07-15.83-1.66-10.77-1.09-23-2.34-34.17-3.76-2-.27-4.2-.66-6.38-1.06-4.07-.74-11.67-2.13-13.14-.72-.21.2-.34,1-.16,2.27.86,5.9,16.47,11.15,26.75,12.84a3.82,3.82,0,0,1-.61,7.58Z" fill="#571519"/><path d="M1953.43,1319.61c-4.1,0-6.19-1.9-7.22-3.44-2.59-3.88-1.17-9.78,3.39-14,7.5-7,17.55-14.91,26.42-21.91,5.9-4.65,12.77-10.08,17-13.85-8.29,1.88-23.91,7.91-37.06,13-13.35,5.15-27.17,10.48-39.79,14.43-14.22,4.46-18.43-.91-19.57-3.43-2.16-4.74.72-10.76,7-14.64q1.45-.9,3-1.8c-8.85,2.92-15.28,3.9-19.69,1.92a8.57,8.57,0,0,1-4.69-5.11c-3.14-8.48,8.9-17.63,44.46-33.72l2-.92c9.44-4.37,17.75-8,24.42-11,5.75-2.54,11.12-4.9,15.3-6.91-9.88,2.17-24.56,6.16-35.54,9.13-20,5.44-32.55,8.75-36.56,8.61-10.23-.36-12.24-5.46-12.63-7.63-.61-3.37.6-9.94,15.52-16.08,33.35-13.69,102.68-34.45,103.38-34.66a3.81,3.81,0,0,1,2.18,7.31c-.69.21-69.66,20.85-102.66,34.4-8.95,3.69-10.91,7.08-10.91,7.72.13.15,1.53,1.18,5.39,1.32h.12c3.41,0,20.45-4.62,34.17-8.35,47.76-13,51.49-13,53.08-7.59,2,6.61-5.54,9.91-27.76,19.7-6.65,2.93-14.92,6.58-24.31,10.93l-2.08.94c-36,16.3-40.25,22.47-40.39,24.36a1,1,0,0,0,.6.57c4.84,2.17,21.86-4.84,35.56-10.47,2.9-1.2,5.85-2.41,8.81-3.6,2.13-.85,6-2.6,10.54-4.61,32.39-14.47,39-16.32,42.54-14.53a4.47,4.47,0,0,1,2.26,2.68c1.49,4.36-1.15,5.51-24.21,15.56-17.52,7.64-41.51,18.1-57.89,28.29-3.48,2.14-4.3,4.53-4.09,5s2.83,1.67,10.35-.68c12.39-3.89,26.08-9.17,39.33-14.28,32.51-12.54,44.35-16.55,49.41-12.47a4.45,4.45,0,0,1,1.67,3.49c0,4-4.44,7.89-23.54,23-8.75,6.9-18.68,14.73-26,21.5-1.94,1.81-2.37,3.81-2.21,4.26.29.11,2.59.34,7.54-1.91,6.86-3.13,18.72-11,31.27-19.24,8.06-5.32,16.4-10.83,24.34-15.72,10.43-6.58,29.47-15.83,59.9-29.11,1.54-.71,3.35-1.58,5.32-2.54,10-4.82,23.59-11.43,36.77-12.32a3.81,3.81,0,1,1,.51,7.61c-11.69.78-24.56,7-34,11.58-2,1-3.88,1.88-5.54,2.63-30.12,13.15-48.84,22.23-59,28.62-7.88,4.85-16.16,10.32-24.18,15.61-12.81,8.46-24.91,16.44-32.31,19.82A24.33,24.33,0,0,1,1953.43,1319.61Z" fill="#571519"/><path d="M2422.56,892.17s-17.52,86.51-26.68,134.28-20.67,162.24-71.16,180.84c-45.06,16.59-211.92,33.91-211.92,33.91-10.65-24.72-13.41-50.11-10.06-76,0,0,149.79-37,163.78-44.62S2293,1137.3,2293,1137.3l-21.77-18.14c13.92-39.64,9.49-214.92,9.3-217.16-9.3-112.7,33.92-137.67,60.21-137.67Z" fill="#fff"/><path d="M2112.8,1245a3.83,3.83,0,0,1-3.5-2.3c-10.42-24.18-13.9-50.43-10.34-78a3.81,3.81,0,0,1,2.86-3.22c41.53-10.24,151.75-38.17,162.87-44.26a15,15,0,0,1,12.06-1.24c11.28,3.47,19.28,18.93,19.61,19.58a3.81,3.81,0,1,1-6.78,3.47c-1.89-3.68-8.28-13.68-15.08-15.77a7.51,7.51,0,0,0-6.15.65c-13.4,7.34-141.65,39.27-162.15,44.34-2.78,24.59.17,47.17,9,68.86,22.08-2.37,167.27-18.33,208.18-33.4,41.47-15.28,56-102.62,64.71-154.8,1.42-8.52,2.76-16.56,4-23.18,9.07-47.24,26.52-133.45,26.7-134.31a3.81,3.81,0,0,1,7.47,1.51c-.17.87-17.62,87-26.68,134.24-1.25,6.52-2.52,14.15-4,23-9.54,57.3-24,143.9-69.59,160.7-45,16.57-206,33.42-212.85,34.13Z" fill="#571519"/><path d="M2271.2,1123a3.77,3.77,0,0,1-1.27-.22,3.81,3.81,0,0,1-2.33-4.86c13.67-38.93,9.19-214,9.1-215.62-6-72.91,2.3-125.74,23.44-148.69,6.92-7.52,15.1-11.49,23.64-11.49a3.81,3.81,0,1,1,0,7.62c-6.44,0-12.51,3-18,9-19.39,21.06-27.21,73.17-21.45,143,.13,1.55,4.82,178-9.51,218.73A3.81,3.81,0,0,1,2271.2,1123Z" fill="#571519"/><path d="M588.22,1553.12c-.24,16.1-.61,31.45-1,45.05,0,1.28-.07,2.56-.09,3.81s-.1,2.53-.13,3.79c-.64,20.22-1.31,35.83-1.64,43.27-1.13-.06-2.23-.15-3.33-.24q-15.19-1-29.58-2.26c-2.57-.24-5.1-.45-7.63-.7C371.25,1630.1,281.58,1592.47,203,1504.66c-29.89-33.34-58-96.2-81-175.41l-2.2-7.62c-3.17-11.32-6.28-22.94-9.24-34.87-.3-1.28-.64-2.53-.94-3.81,10.12,0,43.09,0,86.28,0h8.51c111.14,0,281.06.06,312.93,0a82.27,82.27,0,0,1,20.28,2.2h.22a38,38,0,0,1,4.27,1.34h0a37.19,37.19,0,0,1,5.27,2.13c20.62,9.8,27.7,32,31.54,63,.15,1.09.3,2.19.43,3.29s.27,2.44.39,3.66c1.71,15.74,2.84,33.52,4.55,52.92.12,1.22.21,2.44.33,3.69s.25,2.53.37,3.81v.09c1.92,19.77,2.9,43.68,3.32,68.6,0,1.25.06,2.5.06,3.78,0,2.2.07,4.39.07,6.59,0,3.26.06,6.56.06,9.88C588.53,1523.17,588.44,1538.48,588.22,1553.12Z" fill="#877572"/><path d="M630.53,1002.67l41.57,60.74s69.4,89.78,56.42,107.82-145.85,15.22-145.85,15.22S503.38,1079.51,504.94,1079,630.53,1002.67,630.53,1002.67Z" fill="#ffe4ce"/><path d="M524.87,810.22s32.48,9.42,61,83c33.89,87.38,65.32,117.65,65.32,117.65-11.25,27.66-72.49,69.66-117.84,51.26,0,0-90.09-67.88-144-76.74Z" fill="#c6dee9"/><path d="M557.75,1070.52a68.21,68.21,0,0,1-25.81-4.83,3.89,3.89,0,0,1-.86-.49c-.89-.67-90-67.41-142.37-76a3.82,3.82,0,0,1,1.24-7.53c53,8.7,137.83,71.56,145.31,77.16,41.62,16.44,98.34-20.48,111.43-47.12-7.37-8-34.83-41-64.34-117.06C555,824.22,524.09,814,523.78,813.87a3.81,3.81,0,0,1,2.16-7.31c1.4.4,34.61,10.8,63.52,85.31,33.09,85.32,64.1,116,64.41,116.29a3.81,3.81,0,0,1,.88,4.18C644.69,1037.07,599.83,1070.51,557.75,1070.52Z" fill="#571519"/><path d="M199.62,1283c39.44-136.3,47.63-241.94,57.68-296.37C279,869.21,308.87,818.72,347.12,784c32.67-29.64,56.5-41.85,56.5-41.85L553.7,911.58s19,49.66,14.82,85.89c-3.94,34.28-23.79,226-22.91,287.74Z" fill="#c6dee9"/><path d="M867.79,1593.2c0,.43,0,.85,0,1.28-1,20.83-2.25,41.2-3.2,59.93H696.28c.1-3.84.22-7.65.34-11.37.49-14.37,1.19-27.82,2.14-39.84.06-.94.15-1.89.21-2.8s.15-1.86.24-2.75c.15-1.83.31-3.6.49-5.34.25-2.62.49-5.15.79-7.56.1-.79.19-1.59.28-2.38.55-4.7,1.19-9,1.86-12.87.21-1.28.42-2.5.67-3.69l-6.71,31.45c-36,1.21-73.81,4.78-109.28,4.72,1.34-52,2.35-131.48-1.83-182.88-.09-1.31-.21-2.59-.31-3.9-1.74-22.39-2.74-42.67-4.45-60.27l6.71,1c.85.15,1.71.27,2.59.4s1.74.27,2.63.39c1.76.25,3.53.52,5.33.76s3.6.52,5.43.8c1.5.21,3,.43,4.45.61,3.21.46,6.5.91,9.79,1.37,3.48.49,7,.94,10.59,1.43,5.28.74,10.67,1.47,16.1,2.17l17.27,2.32c1.86.27,3.75.51,5.64.76,1.52.21,3,.39,4.57.61,2.63.36,5.25.7,7.87,1.07l1.34.18c3.08.4,6.13.82,9.18,1.25,2.51.33,5,.7,7.48,1,3,.42,6,.85,8.9,1.25,1,.15,2,.27,3,.42,2,.28,3.94.55,5.86.86l6.31.91c2.72.4,5.4.8,8.08,1.22,8.48,1.28,16.72,2.6,24.59,3.94l5.18.88,3.63.64c3,.52,5.95,1.07,8.78,1.62,3.57.67,7,1.37,10.37,2.07.07,0,.16,0,.22.06l.95.19,1.31.27c1.61.34,3.23.7,4.78,1,3.6.82,7,1.65,10.22,2.5.64.15,1.25.31,1.86.49,1.8.46,3.57.94,5.22,1.46.55.15,1.1.34,1.61.49,6.44,2,11.62,4,15.22,6.1,12.87,7.47,22.3,19.64,29.1,35.11,0,0,0,.09.06.12v0a130.58,130.58,0,0,1,5.77,16c6.62,22.17,9.42,48.86,10.18,77.07,0,.58,0,1.16,0,1.74C869.43,1549,868.82,1571.36,867.79,1593.2Z" fill="#8dabc6"/><path d="M840.64,1658.22h-.18a3.81,3.81,0,0,1-3.63-4c4.25-87.64,2.11-172.25-41.9-197.76-21.06-12.21-100.22-22.76-170.06-32.07-13.76-1.83-27.31-3.64-40.22-5.42a3.82,3.82,0,0,1,1.05-7.56c12.89,1.79,26.43,3.59,40.18,5.42,74,9.86,150.5,20.06,172.88,33,47.53,27.56,50,114.67,45.69,204.72A3.81,3.81,0,0,1,840.64,1658.22Z" fill="#571519"/><path d="M865.55,1650.47h-.18a3.8,3.8,0,0,1-3.63-4c1-20.83,1.51-33.3,2.21-52.14,0-.47,0-.81,0-1.14,1-27.31,1.32-48.12,1.1-65.62,0-.5,0-1.14,0-1.79-.58-35.51-3.65-59.63-10-78.12a93.41,93.41,0,0,0-5.54-13.14l-.15-.32c-11.87-22.69-31.52-35.89-67.78-45.55l-.12,0-.1,0h0c-31.28-8.34-72.66-13.53-129.94-20.71-21.22-2.66-45.28-5.68-71.22-9.18a3.81,3.81,0,1,1,1-7.56c25.9,3.5,49.94,6.51,71.15,9.17,57.57,7.22,99.17,12.43,131,20.91l.11,0,.1,0h0c38.15,10.17,59.88,25,72.67,49.57h0s0,.08.07.13a2.55,2.55,0,0,1,.13.29,100.31,100.31,0,0,1,5.85,13.92c6.6,19.28,9.81,44.12,10.4,80.53,0,.58,0,1.09,0,1.61.23,17.77-.12,38.7-1.09,66,0,.38,0,.9,0,1.42-.69,18.73-1.23,31.22-2.2,52.07A3.82,3.82,0,0,1,865.55,1650.47Z" fill="#571519"/><path d="M588.18,1605.79h-.88a3.81,3.81,0,0,1,0-7.62h0c21.46-.06,44.26-1.29,66.27-2.57,14.15-.83,28.78-1.68,42.88-2.15a3.74,3.74,0,0,1,3.94,3.68,3.82,3.82,0,0,1-3.68,3.94c-14,.47-28.6,1.32-42.7,2.14C632.19,1604.48,609.63,1605.79,588.18,1605.79Z" fill="#571519"/><path d="M696.29,1658.22h-.1a3.81,3.81,0,0,1-3.72-3.9c1-41,3.69-73.37,7.47-91.1a3.81,3.81,0,1,1,7.45,1.58c-3.67,17.3-6.27,49.15-7.29,89.71A3.81,3.81,0,0,1,696.29,1658.22Z" fill="#571519"/><polygon points="1372.5 1297.59 829.05 1290.02 842.19 1223.61 1372.5 1223.61 1372.5 1297.59" fill="#c6a3a6"/><polygon points="1372.5 1305.74 829.05 1305.74 829.05 1269.74 1372.5 1265.17 1372.5 1305.74" fill="#c6a3a6"/><path d="M829.05,1273.57a3.81,3.81,0,0,1-3.1-6l15.55-21.84a3.81,3.81,0,1,1,6.21,4.42L832.16,1272A3.82,3.82,0,0,1,829.05,1273.57Z" fill="#571519"/><rect x="858.67" y="1305.74" width="40.47" height="348.67" fill="#c6a3a6"/><path d="M1222.89,864.81,1297.64,829c4.9-1.4,9.95,2,9.95,6.68l.59,406.82c0,7.52-6.84,13.63-15.3,13.63l-347.38,2.76c-3.22,0-10.92-4.8-10.92-4.8l5.55-53.33,283.58-4.17Z" fill="#ccc"/><path d="M1295.92,842.26s2.8,404.52-2.21,401c0,0-70-44.58-70-46.65l-.81-306.09c0-3,0-30,0-30l63.1-24.73C1290.91,834.39,1295.92,837.67,1295.92,842.26Z" fill="#fff"/><path d="M1300.52,1042.25c-.06-98.67-.52-198.44-.52-200a11.37,11.37,0,0,0-3.69-8.6,8.55,8.55,0,0,0-4.3-2h0a7.13,7.13,0,0,0-3.75.46l-56.82,20.34-.31.13-6.07,2.16c-3.57,1.47-5.94,5.49-5.94,10l.09,320.55c0,.34,0,.86,0,1.5-.06,2.41-.1,4.36,0,6a16,16,0,0,0,.48,3.82,5.88,5.88,0,0,0,1.32,2.56,3.92,3.92,0,0,0,.67.55l1,.64h.34l34.92,23.21,24.16,16h.18l10.37,6.8a4.25,4.25,0,0,0,1.46.58,5.67,5.67,0,0,0,.7.06,3.69,3.69,0,0,0,1.41-.27c2.26-.88,3.08-1.22,3.51-23.18.21-9.67.33-23.55.51-43.52C1300.43,1146.74,1300.55,1100.38,1300.52,1042.25Zm-8.91,194.37-19.82-13-44.93-29.52a61.44,61.44,0,0,1-.09-7c0-.73,0-1.34,0-1.74l-.09-320.55a4.52,4.52,0,0,1,.43-2v0a1.87,1.87,0,0,1,.64-.85l4.6-1.65,58.68-21c.28,0,1.32,1,1.32,3v0c.61,132.06.88,321.56-.37,381.31C1291.89,1229.09,1291.77,1233.48,1291.61,1236.62Z" fill="#571519"/><path d="M946.6,1253.11a17.51,17.51,0,0,1-9.57-2.84,3.82,3.82,0,0,1-1.74-3.32l1.27-40.31c0-.12,0-.24,0-.36.95-7.47,3.37-9.88,10-9.93l277.11-3.6h0a3.82,3.82,0,0,1,0,7.63L946.63,1204a13.28,13.28,0,0,0-1.82.09,12.52,12.52,0,0,0-.63,3L943,1244.8a9.08,9.08,0,0,0,3.78.68l346.88-6.07a3.86,3.86,0,0,1,3.87,3.75,3.81,3.81,0,0,1-3.74,3.87l-346.87,6.07Z" fill="#571519"/><polygon points="1201.94 1205.08 1038.3 1206.89 1053.15 1236.84 1239.11 1236.07 1201.94 1205.08" fill="#a7a7a8"/><path d="M942.28,1262.7c-2.45,0-6.36-.21-9.14-3A3.77,3.77,0,0,1,932,1257c0-1.64.59-40.33,1.43-49.62.36-4,1-10.72,8.68-10.77l28.17-.51a3.89,3.89,0,0,1,3.88,3.74,3.81,3.81,0,0,1-3.74,3.88l-28.21.51a2,2,0,0,0-.71.08c0,.2-.28,1.52-.48,3.75-.69,7.78-1.23,38.32-1.37,46.84a15.66,15.66,0,0,0,3.18.23l350-2.78a12.37,12.37,0,0,0,8.77-3.46,9,9,0,0,0,2.75-6.36l-.59-406.81a3,3,0,0,0-1.28-2.35,4.38,4.38,0,0,0-3.62-.72l-64.84,27a3.81,3.81,0,1,1-2.93-7l65.07-27.16.41-.14a12,12,0,0,1,10.5,1.91,10.52,10.52,0,0,1,4.31,8.43l.59,406.81a16.57,16.57,0,0,1-5,11.76,20.08,20.08,0,0,1-14.14,5.69l-350,2.78Z" fill="#571519"/><path d="M598.37,449.73s-69.45-36.16-125.93-4.92c-4.21,2.48-9.14,1.66-16,1.16-10.07-.39-19.32-1.92-34.82,11.37-25.87,22.35-40,42.83-47.49,61.24a106.74,106.74,0,0,0-7.35,29.2L379,569.45s-1.83,11.1,2,26.31c4.14,17.15,14.45,35.33,18.68,44.27,7.43,16.43,9.62,33.9,19.19,41.18l10.71,8.1,48.31,2.9,179.83-87.58a204.74,204.74,0,0,1,15.79-18.94c5.34-5.46,17.35-13,22.17-19.16,7.28-9.57,5.42-13.68,4.49-19.53-1.56-9.76-18-21.35-23-29.77s-1.68-20.55-27.41-37.47C617.81,458.64,598.37,449.73,598.37,449.73Z" fill="#f4c04d" fill-rule="evenodd"/><path d="M668,669.05c-2.32,14.21-11.59,12.69-19.46,29.74-.43,2.47-7.78,24.06-13.82,41.45-4.9,14.39-8.78,26.44-23.27,37.36-13.63,9.79-63.44-14.89-73.38-.7-6,9.15-12.9,32.08-15.77,41.75,13.22-2.4,30.61,76.28,30.61,76.28.78,16.65-20.21,20.65-36.59-12-1.76-4.57-3.32-8.66-4.66-12.16-12.6-32.82-41.7-51.85-63.2-61.89-5.61-2-10.67-4.15-15.28-6.25-23.33-10.83-34.28-22.21-39.34-30.59,2.92-7.51,5.67-15.13,8.11-22.63a489.06,489.06,0,0,0,17.54-68.08S433,680.36,442,671.7a167.82,167.82,0,0,0,15.49-17.08,37.25,37.25,0,0,1-7.65-19c-1.65-12.93.76-31.57,11.16-36.81,8.29-4.33,28.36.88,28.36.88s4.76,24.86,13.42,30.07c1.65,1.56,8.08-18.3,13.61-28.79,7.38-14,18.48-16,22-17.93,2.78-1.44,21.29,1.61,43.77-8,15.74-6.9,30.38-30.47,45.17-35.63,35.44-11.28,33.77,25.84,34.32,38,.21,17.78-9.4,37.72-11.72,63.31C648.89,650.69,669.23,657.85,668,669.05Z" fill="#ffe4ce" fill-rule="evenodd"/><path d="M424.25,686.54a13.1,13.1,0,0,1-11.19-6.17c-4.19-6.2-6-11.35-8.29-17.87a177.78,177.78,0,0,0-14.68-32.41,101,101,0,0,1-13.63-56.84,3.81,3.81,0,0,1,7.61.41c-.57,10.73.32,31.83,12.62,52.61A185.24,185.24,0,0,1,412,660c2.19,6.24,3.77,10.74,7.41,16.13a5.55,5.55,0,0,0,5,2.81c8-.17,21.08-12.88,28.29-24.63a3.81,3.81,0,1,1,6.5,4c-6.87,11.2-21.77,28-34.62,28.27Z" fill="#571519"/><path d="M385.2,578.08a3.9,3.9,0,0,1-1.84-.47c-.33-.18-32.54-18.55-10.95-63.56,20.33-42.4,57-83.09,98.81-70.1a3.81,3.81,0,1,1-2.26,7.28c-37.21-11.55-70.72,26.58-89.68,66.11-12.38,25.82-5,40.9,1.39,48.18-.29-14.12,2.65-40.61,26.49-55.19a3.81,3.81,0,1,1,4,6.51c-28.39,17.36-22.24,56.4-22.17,56.8a3.81,3.81,0,0,1-3.76,4.44Z" fill="#571519"/><path d="M675.17,525.78a4,4,0,0,1-1.3-.23,3.83,3.83,0,0,1-2.29-4.89c7.39-20.39-31.15-43.17-54.18-56.79-2.48-1.46-4.8-2.84-6.91-4.11-37.36-22.33-110.17-33.33-126-13.6a3.81,3.81,0,0,1-5.94-4.78c20.06-25,98.89-10.28,135.89,11.84,2.11,1.28,4.42,2.64,6.87,4.09,26.69,15.77,67,39.61,57.47,65.95A3.81,3.81,0,0,1,675.17,525.78Z" fill="#571519"/><path d="M560.72,584.27c-22.68,0-44-13.37-45.19-14.11a3.81,3.81,0,0,1,3-6.9c2.09.53,51.53,12.59,75.49-32.47a3.81,3.81,0,0,1,6.73,3.58c-16.15,30.38-43.18,37.37-62.23,38.1,11.58,4,26.55,6.58,39.22.59,14.9-6.56,22.61-13.48,31.84-28.52,6.67-10.78,15.72-23.14,26.67-23.14h.1c6,.05,11.4,3.88,15.91,11.39a3.81,3.81,0,0,1-6.54,3.93c-3-5.08-6.21-7.67-9.42-7.69h0c-8.11,0-17.19,14.68-20.18,19.51-10,16.36-18.91,24.3-35.16,31.45A46.79,46.79,0,0,1,560.72,584.27Z" fill="#571519"/><path d="M657.23,611.53a3.9,3.9,0,0,1-1.56-.33,3.82,3.82,0,0,1-1.92-5c7-15.65,18.5-24.29,27.73-31.23,4.57-3.43,8.88-6.66,11.83-10.14,8-9.42,1.3-24.36-9.06-33.63a3.81,3.81,0,0,1,5.09-5.68c13.37,12,21,31,9.78,44.24-3.5,4.13-8.14,7.62-13.06,11.31-9,6.74-19.15,14.39-25.35,28.24A3.82,3.82,0,0,1,657.23,611.53Z" fill="#571519"/><path d="M508.94,634.6a3.72,3.72,0,0,1-1.53-.32c-.94-.42-23.11-10.54-20.93-40.43a3.81,3.81,0,1,1,7.6.56c-1.16,15.89,5.86,24.91,11.09,29.35.67-9.86,4.15-27.58,19.49-41a3.81,3.81,0,0,1,5,5.74c-18.95,16.57-16.95,41.68-16.93,41.94a3.8,3.8,0,0,1-3.8,4.15Z" fill="#571519"/><path d="M543.92,530.15a64.58,64.58,0,0,1-15.84-2,3.81,3.81,0,1,1,1.86-7.39c28,7.05,51.53-8.55,70.44-21.08,9.59-6.36,17.87-11.85,25.38-13.55,23.21-4.86,35.54,24,36.06,25.23a3.81,3.81,0,0,1-7,2.94c-.1-.25-10.39-24.27-27.4-20.71-6.08,1.37-13.82,6.5-22.79,12.44C588.82,516.5,568.22,530.15,543.92,530.15Z" fill="#571519"/><path d="M518.88,556.72c-26.21,0-43.74-11.92-50.76-20.35A3.81,3.81,0,0,1,474,531.5c7.47,9,28.93,22.44,61.93,15.85a3.81,3.81,0,1,1,1.49,7.47A94.16,94.16,0,0,1,518.88,556.72Z" fill="#571519"/><path d="M482.08,670.73a3.23,3.23,0,0,1-.53,0c-12.24-1.7-22.5-7.8-28.9-17.15-7.16-10.48-9.19-24.31-5.72-38.95,2.47-10.4,7.21-17.4,14.08-20.79,7.37-3.64,16.81-2.94,28.06,2.1a3.81,3.81,0,1,1-3.11,7c-9.08-4.06-16.34-4.81-21.58-2.22-4.73,2.34-8.11,7.62-10,15.71-3,12.53-1.34,24.2,4.6,32.88,5.24,7.68,13.42,12.48,23.66,13.91a3.81,3.81,0,0,1-.53,7.59Z" fill="#571519"/><path d="M480.59,641.34a3.82,3.82,0,0,1-3.72-3c-1.71-7.75-5.41-10-5.56-10.12a3.86,3.86,0,0,1-1.42-5.17,3.76,3.76,0,0,1,5.06-1.53c.69.37,6.88,3.91,9.36,15.18a3.81,3.81,0,0,1-3.72,4.64Z" fill="#571519"/><path d="M627.67,633.26c1-6.17-1.15-12.23-4.86-12.84-4.31-.71-8.83,3.61-9.85,9.78s1.16,12.23,4.86,12.84C622.14,643.75,626.65,639.43,627.67,633.26Z" fill="#571519" fill-rule="evenodd"/><path d="M639.42,596.55a3.8,3.8,0,0,1-2.24-.72,25.14,25.14,0,0,0-25.53-2,3.81,3.81,0,1,1-3.26-6.89,32.78,32.78,0,0,1,33.27,2.67,3.81,3.81,0,0,1-2.24,6.9Z" fill="#571519"/><path d="M521.82,825.56a4.44,4.44,0,0,1-.62,0,3.8,3.8,0,0,1-3.14-4.38c3.59-21.8,10.4-51.12,28-54.17,8.52-1.49,16.78.19,27.24,2.32,6.82,1.39,14.56,3,24.11,4,13,1.66,19.53-3.85,28.21-23.5a413.56,413.56,0,0,0,14.26-40.91,3.81,3.81,0,0,1,7.3,2.2,416.51,416.51,0,0,1-14.55,41.7c-7.22,16.34-15.37,30.72-36.13,28.08-9.83-1.11-17.74-2.72-24.72-4.14-10-2-17.3-3.52-24.42-2.27-9.49,1.64-16.81,17.75-21.78,47.89A3.82,3.82,0,0,1,521.82,825.56Z" fill="#571519"/><path d="M643.94,715.16a4.2,4.2,0,0,1-.92-.11,3.82,3.82,0,0,1-2.78-4.62c.16-.65,4-16,9.31-23.33a47.15,47.15,0,0,1,7.05-8c3.62-3.56,7-6.93,7.66-10.63.92-4-.93-6-6-10.63a56.33,56.33,0,0,1-6.91-7c-5.83-7.2-6.54-14.11-2.9-28.38a3.81,3.81,0,1,1,7.39,1.89c-3.61,14.12-1.85,17.63,1.47,21.73a49.33,49.33,0,0,0,6.05,6.12c4.87,4.38,10.39,9.33,8.41,17.79-1,5.9-5.66,10.51-9.8,14.58a41.54,41.54,0,0,0-6.07,6.85c-3.82,5.28-7.23,16.87-8.23,20.91A3.82,3.82,0,0,1,643.94,715.16Z" fill="#571519"/><path d="M652.12,627.16A4.09,4.09,0,0,1,651,627a3.81,3.81,0,0,1-2.57-4.74c3.84-13,8.63-29.16,8.81-45.64.29-4.74.2-12.07-3.93-23.42a3.82,3.82,0,0,1,7.17-2.61c3.51,9.66,4.9,18,4.37,26.31-.18,17.35-5.13,34.08-9.11,47.52A3.81,3.81,0,0,1,652.12,627.16Z" fill="#571519"/><path d="M606.59,630.43a3.82,3.82,0,0,1-2.74-6.47c7.9-8.17,21-8.24,28.65-3.63a3.81,3.81,0,1,1-3.94,6.52c-4.36-2.63-13.71-3.29-19.23,2.42A3.83,3.83,0,0,1,606.59,630.43Z" fill="#571519"/><path d="M393.46,775.24a3.87,3.87,0,0,1-1.4-.27,3.81,3.81,0,0,1-2.14-5c17.38-44,21.15-64.81,24.58-89.44a3.81,3.81,0,1,1,7.55,1c-3.39,24.35-7.39,46.52-25,91.19A3.82,3.82,0,0,1,393.46,775.24Z" fill="#571519"/><path d="M618.41,719.83c-1.53,0-20.2-.26-35.28-12.63a3.81,3.81,0,0,1,4.83-5.9c13.17,10.8,30.18,10.9,30.48,10.9h0a3.82,3.82,0,0,1,0,7.63Z" fill="#571519"/><path d="M729.73,1167.21c59.47-54.37,166.59-187.52,185.51-212.27,0,0,25.73-15.72,36.66-34.69,7.67-12.66,14.9-37.08,26.53-67.86,6.75-16.92,15.09-33.7,18.77-44.78,3.61-12.21,3.56-17.19-1.55-19.39s-8.78,5-13.85,15.5-13.88,27.06-19.93,32.16l-36.45-3.61c2.86-29.61,7.22-44.8,10.31-62.19,3.76-17.66,5.47-35.65-3.43-36.74-9.82-1.48-8.67,15-16.22,37.62-7,21.23-9.43,25.67-11.45,38a371.72,371.72,0,0,1-9.8,43.14c-1.48,6-8.85,32-13.13,44.46-8,22-37.35,42.78-81.07,79-48,39.8-112.75,70.94-124.37,85.7Z" fill="#ffe4ce"/><path d="M960.33,861.77s24-104.21,15.84-113.26c-2.23-2.48-6.65,1-8.93-1.72-6-7.07-9.67-19.32-12.82-14.92-4.34,6.07-37.8,106.75-37.8,106.75Z" fill="#ffe4ce"/><path d="M926.22,918.49a3.74,3.74,0,0,1-1-.13,3.81,3.81,0,0,1-2.7-4.67c3-11.06,3.55-20.78,4.05-29.36.4-6.69.74-12.47,2.22-17.14a127,127,0,0,1,8.91-21.94A81,81,0,0,0,942.56,834c2.9-9.31.94-20.34-1.3-21.09-2.41-.75-3-.94-5.85,7.45a81.18,81.18,0,0,1-3.62,9.28,154.88,154.88,0,0,1-15.06,25.55,85,85,0,0,0-6.15,9.55c-3.93,7.29-6,14.23-8.12,21.58-.76,2.59-1.52,5.2-2.38,7.84a3.81,3.81,0,0,1-7.25-2.35c.83-2.57,1.57-5.11,2.31-7.63,2.17-7.41,4.42-15.07,8.72-23.06a95.17,95.17,0,0,1,6.66-10.35,146.47,146.47,0,0,0,14.4-24.44,75,75,0,0,0,3.27-8.42c2.33-6.87,5.23-15.42,15.42-12.25,9.4,3.15,9,21.6,6.23,30.61a87.73,87.73,0,0,1-5.29,12.29,120.78,120.78,0,0,0-8.45,20.81c-1.22,3.85-1.54,9.19-1.91,15.37-.5,8.5-1.12,19.07-4.29,30.89A3.82,3.82,0,0,1,926.22,918.49Z" fill="#571519"/><path d="M676.25,1067.74a3.79,3.79,0,0,1-2.35-.81,3.83,3.83,0,0,1-.64-5.36c5.92-7.51,22.73-18.35,46-33.36,24-15.49,53.94-34.77,78.94-55.51,7.36-6.11,14.32-11.78,20.83-17.09,31.8-25.92,52.8-43,59.09-60.34,4.11-12,11.51-38,13-44.07a370.4,370.4,0,0,0,9.74-42.84c1.48-9.05,3.17-13.94,6.54-23.69,1.36-3.94,3-8.7,5-14.9a196.74,196.74,0,0,0,5.21-19.44c2.73-12,5.09-22.28,15.21-20.75a9.43,9.43,0,0,1,6.62,4c4.16,5.82,4.15,17.66,0,37.26-.84,4.73-1.8,9.42-2.8,14.29a408.73,408.73,0,0,0-7.45,47.48,3.81,3.81,0,0,1-7.58-.74,413.38,413.38,0,0,1,7.56-48.27c1-4.81,1.94-9.43,2.79-14.22,4.92-23.1,2.55-29.63,1.31-31.37a1.88,1.88,0,0,0-1.45-.91c-2.81-.42-4,3-6.75,14.9a205.81,205.81,0,0,1-5.4,20.13c-2,6.23-3.7,11-5.07,15-3.23,9.33-4.85,14-6.23,22.42a369.61,369.61,0,0,1-9.92,43.64c-1.5,6.11-8.88,32.11-13.16,44.58-7,19.34-28.68,37-61.46,63.71-6.5,5.3-13.44,11-20.78,17.05-25.36,21-55.48,40.45-79.68,56-20.93,13.5-39,25.15-44.14,31.67A3.79,3.79,0,0,1,676.25,1067.74Z" fill="#571519"/><path d="M948.5,823.46a4.62,4.62,0,0,1-.73-.07,3.81,3.81,0,0,1-3-4.47c2.4-12.44,5.23-22.76,8-32.74,2.8-10.22,5.44-19.87,7-30,2.09-13.28-.54-19.22-2.42-20.64a1.1,1.1,0,0,0-1.31-.17c-2.07,1.31-5.51,12.73-6.64,16.48-1.57,5-3.28,11.14-5.09,17.62-3.21,11.52-6.84,24.57-10.47,33.83a3.81,3.81,0,1,1-7.1-2.78c3.49-8.9,7.07-21.75,10.23-33.1,1.82-6.54,3.54-12.72,5.14-17.81,4.07-13.53,6.5-19.49,10.91-21.24a8.56,8.56,0,0,1,8.91,1.08c5.55,4.17,7.51,14.35,5.37,27.91-1.67,10.6-4.37,20.45-7.22,30.87-2.7,9.85-5.49,20-7.83,32.18A3.82,3.82,0,0,1,948.5,823.46Z" fill="#571519"/><path d="M960.33,844.54a4,4,0,0,1-1-.14,3.83,3.83,0,0,1-2.66-4.7c2.29-8.22,4.23-14.83,6-20.68,3.53-12,6.08-20.71,8.81-33.82,5.6-29.69,2.15-34.09,1.6-34.59h0c-2.77,0-5.17,5.15-6.52,10.11a3.81,3.81,0,0,1-7.35-2c4-14.9,11.31-16.17,15.26-15.63l.33.07c8.33,1.93,9.58,14.94,4.18,43.53-2.8,13.49-5.39,22.3-9,34.49-1.71,5.82-3.64,12.39-5.91,20.57A3.82,3.82,0,0,1,960.33,844.54Z" fill="#571519"/><path d="M729.73,1171a3.82,3.82,0,0,1-1.64-7.26c24.74-11.76,148.17-165.45,171.49-196a3.94,3.94,0,0,1,.64-.65c.38-.3,37.92-30.67,48.38-48.8,5.09-8.4,10.07-22.42,16.39-40.16,2.9-8.15,6.19-17.4,9.87-27.15,3-7.49,6.19-14.74,9.28-21.75,3.82-8.63,7.42-16.8,9.44-22.88,3.92-13.24,2.06-14,.56-14.69-1.88-.83-6.46,8.6-8.91,13.66-3.88,8-13.69,27.34-20.91,33.41a3.81,3.81,0,0,1-4.91-5.83c4.17-3.5,11.43-15.35,19-30.9,5.24-10.83,10.2-21,18.79-17.34,8.85,3.81,6.91,13.11,3.69,24-2.17,6.55-5.84,14.87-9.73,23.68-3.07,7-6.24,14.13-9.15,21.43-3.63,9.62-6.91,18.83-9.8,27-6.46,18.15-11.56,32.48-17,41.48-10.67,18.52-45.61,47.17-49.8,50.57-17.59,22.93-146,184.55-174,197.85A3.84,3.84,0,0,1,729.73,1171Z" fill="#571519"/><path d="M545.61,1289a3.81,3.81,0,0,1-3.81-3.76c-.91-64,19.78-260.74,22.93-288.22,4.06-35.46.61-84.69.58-85.18a3.81,3.81,0,1,1,7.6-.55c0,.5,3.54,50.43-.6,86.6-3.15,27.41-23.79,223.67-22.88,287.25a3.82,3.82,0,0,1-3.76,3.86Z" fill="#571519"/><polygon points="552.99 1021.85 630.53 1161.01 517.57 1200.05 419.42 1043.78 552.99 1021.85" fill="#ffe4ce"/><path d="M199.62,1286.76a3.57,3.57,0,0,1-1.06-.15,3.81,3.81,0,0,1-2.6-4.72c28.57-98.74,40.27-180.46,48.82-240.13,3.14-22,5.86-41,8.78-55.91,24.23-124.1,51.71-169,91-204.65,32.68-29.65,56.34-41.91,57.33-42.42a3.81,3.81,0,1,1,3.47,6.79c-.23.12-23.82,12.38-55.67,41.28-38.1,34.56-64.81,78.44-88.63,200.46-2.89,14.77-5.59,33.66-8.73,55.53-8.57,59.89-20.32,141.91-49,241.17A3.82,3.82,0,0,1,199.62,1286.76Z" fill="#571519"/><path d="M628.88,1150.8a3.81,3.81,0,0,1-3.19-1.71c-2.58-3.93-63.53-96.48-79.17-132.2a3.81,3.81,0,0,1,7-3.06c15.39,35.12,77.93,130.1,78.56,131.05a3.82,3.82,0,0,1-3.18,5.92Z" fill="#571519"/><path d="M610.11,1150.55c44.4-12.62,76.13,7.67,104.57,16.81s158.5,36,171.18,31.4c18.2-6.22,60-25.6,76-30.55,16.1-5.54,27.12-8.74,42.83-6.18,16.29,2.73,34.58,2.86,39.11,13.63l52.69,13.34-4.88,16.08c26.43,18.25,16,25.46,6.61,34.06l-77.22-2.3-29.71,8.53c-8.17-2.88,11.46,1.43,35,3.06,41.34,3.51,46.69,6.93,41.7,15.62-2.83,5.52-33.15,3.24-64.72,3.13-7.52-.24-66-1-82.79-5.1s-42.39-5.91-42.39-5.91-149.6,3.84-192.9-.06-105.86,2.85-136.81-16.68C506.75,1213.16,430,1066.67,430,1066.67Z" fill="#ffe4ce"/><path d="M989,1245.46a3.81,3.81,0,0,1-2.48-6.71c5.58-4.76,18.06-5.46,32.52-6.28l3.55-.2c10.84-.34,28.38,1,41.18,2,6.25.48,11.64.9,13.87.92l2,.09c18.61.94,20.5-2.19,20.64-3.18,0-.06,0-.21-.26-.57-3.25-4.2-19-8-46.81-11.33-26.36-3.15-59.6-3.2-59.93-3.2a3.82,3.82,0,0,1,0-7.63c.08,0,33.91,0,60.84,3.26,32,3.82,47.06,7.94,51.93,14.23a8.27,8.27,0,0,1,1.78,6.26c-1.51,11.17-19.8,10.23-28.59,9.78l-1.77-.09c-2.4,0-7.65-.42-14.29-.94-12.64-1-29.93-2.3-40.25-2l-3.47.2c-11.43.65-24.38,1.38-28,4.47A3.82,3.82,0,0,1,989,1245.46Z" fill="#571519"/><path d="M1073.17,1257.85a7.84,7.84,0,0,0-2-3.78,13.38,13.38,0,0,0-4.42-3.08h-.22c-6.34-2.75-18.14-4.52-40-6.38-1.74-.12-3.27-.27-4.88-.45h-.7c-7-.58-13.06-1.41-17.82-2.2-.7-.12-1.34-.24-2-.37-2.5-.45-4.54-.91-6.07-1.34a7.72,7.72,0,0,0-.12-.82,3.9,3.9,0,0,0-4.67-2.75c-.42.12-.79.25-1.12.37h0l-.19.09a6,6,0,0,0-2.29,1.53l0,0a4.26,4.26,0,0,0-1.06,3.23,3.69,3.69,0,0,0,1.64,2.84,7.9,7.9,0,0,0,.74.51h0s0,0,.06,0h0s0,0,.06,0c3.48,2.2,11.86,4.73,32.06,6.47h.21c1.77.16,3.6.31,5.55.43,7.62.64,14.18,1.31,19.61,2h.85c8.27,1.16,14.1,2.38,17.12,3.66h.36a4.61,4.61,0,0,1,1.8,1.53s.12.51-.79,2.28a2.15,2.15,0,0,1-.15.31c-3.42,2.35-23.67,2-40,1.65-6.89-.16-14.18-.28-21.41-.31l-4.94-.12c-5.8-.12-16.11-.37-27.42-.76h-1.1c-12.41-.49-25.89-1.19-36.11-2.23a102.42,102.42,0,0,1-12.45-1.89c-16.86-4.09-42-5.92-43-6H878c-.42,0-13.27.34-32.33.7-3,.06-6.07.12-9.3.15a.39.39,0,0,1-.21,0c-47.61.82-122.37,1.61-150.61-1-12.72-1.13-26.75-1.37-41.63-1.62-35.29-.58-71.77-1.19-92.91-14.12-.21-.12-.39-.24-.58-.37-1-.64-2-1.34-3.08-2.13s-2.41-1.86-3.66-2.93c-28.73-24.52-70.3-94.3-93.33-135.24-.64-1.12-1.25-2.22-1.86-3.32l-1.86-3.35c-3.75-6.81-6.89-12.48-9.12-16.66,0,0,0,0,0-.06-.64-1.19-1.22-2.22-1.71-3.14v0c-1.46-2.71-2.28-4.27-2.34-4.42a3.83,3.83,0,0,0-1.77-1.68,3.78,3.78,0,0,0-3.39.06,3.84,3.84,0,0,0-1.62,5.15c.77,1.44,5.59,10.62,13.09,24.13.58,1.07,1.19,2.17,1.86,3.32s1.22,2.2,1.86,3.36c24.22,43.19,69.27,118.8,99.7,141.19,1.1.82,2.17,1.55,3.21,2.22.15.09.3.22.48.31,1.19.73,2.41,1.43,3.69,2.1,23.12,12.08,58.75,12.66,93.24,13.24,14.73.24,28.64.48,41.09,1.58,27.84,2.51,98,1.87,145.79,1.07l4.18-.09c1.79,0,3.56,0,5.3-.06,20.56-.4,35.32-.76,37.88-.82,2.17.18,22.94,1.83,38.4,5.21h.67c.86.18,1.68.4,2.51.58,5.3,1.28,14.3,2.26,25,3h.31c16.59,1.16,36.84,1.74,53.44,2.1,2.25.07,3.93.09,4.94.13,7.32,0,14.58.15,21.41.3,7.16.12,13.26.21,18.51.21,15.65,0,23.36-.82,26.72-3.78a5.38,5.38,0,0,0,1.4-1.77,18.94,18.94,0,0,0,1.07-2.07,12.67,12.67,0,0,0,.73-2.23A8.71,8.71,0,0,0,1073.17,1257.85Z" fill="#571519"/><path d="M1103.66,1231.22a3.81,3.81,0,0,1-2-7c3.43-2.15,4.52-3.83,4.42-4.61-.17-1.27-2.69-6-27.94-13.78-28.63-8.77-61.07-9-86.13-8.19a3.71,3.71,0,0,1-3.94-3.69,3.82,3.82,0,0,1,3.69-3.93c25.65-.81,58.91-.58,88.61,8.52,22.66,6.94,32.29,12.75,33.27,20.07.58,4.34-2.09,8.4-7.92,12.07A3.78,3.78,0,0,1,1103.66,1231.22Z" fill="#571519"/><path d="M1086.94,1203.84c-2.25,0-4.6-.13-6.93-.27-2.65-.16-5.39-.32-8.26-.35a3.81,3.81,0,0,1,.08-7.62c3.05,0,6,.2,8.63.36,11.08.65,13.41.16,13.85-2.91.09-.44.1-.58-.12-.89-2.92-4.12-19.64-6.28-25.13-7l-2.08-.28c-22.28-4.45-75.75-2.85-76.29-2.83a3.7,3.7,0,0,1-3.93-3.69,3.81,3.81,0,0,1,3.69-3.93c2.24-.07,54.9-1.64,77.79,2.94l1.8.23c12.35,1.59,25.9,3.81,30.37,10.13a8.24,8.24,0,0,1,1.4,6.64C1100.67,1202.35,1094.33,1203.84,1086.94,1203.84Z" fill="#571519"/><path d="M881.09,1203c-29.81,0-142.46-23.94-167.58-32-6-1.93-12-4.29-18.34-6.78-23.44-9.22-50-19.67-84-10a3.81,3.81,0,1,1-2.09-7.33c36.47-10.37,64.32.58,88.89,10.24,6.24,2.45,12.13,4.77,17.88,6.62,31.09,10,157.85,35.4,168.72,31.43,8.62-2.94,22.86-9,36.62-14.81,15.94-6.76,31-13.15,39.51-15.79,16.12-5.55,28-9,44.58-6.3,3,.5,6.09.92,9.13,1.33,13.94,1.87,28.35,3.81,32.88,14.58a3.81,3.81,0,0,1-7,3c-2.84-6.75-14.51-8.32-26.87-10-3.12-.42-6.27-.84-9.35-1.36-14.85-2.41-25.38.66-41,6-8.27,2.57-23.84,9.18-38.91,15.57-13.89,5.88-28.25,12-37.06,15A19.64,19.64,0,0,1,881.09,1203Z" fill="#571519"/><path d="M1372.5,1309.55H829.05a3.81,3.81,0,0,1-3.81-3.81v-36a3.82,3.82,0,0,1,3.78-3.81l543.45-4.57h0a3.81,3.81,0,0,1,0,7.62l-539.67,4.54v28.4H1372.5a3.82,3.82,0,0,1,0,7.63Z" fill="#571519"/><path d="M552.42,1646.54c-2.57-.24-5.1-.45-7.63-.7.89-24.64,3.51-114.68-2.1-183.91-1.16-14.28-1.8-27.45-2.41-40.2-2.87-59.57-4.46-92.48-50.66-92.48h-.34c-35,.12-298.23,0-367.37,0l-2.2-7.62c40.75,0,160,.06,252.94.06,56.49,0,103.24,0,116.63-.06h.31c53.49,0,55.51,41.87,58.31,99.73.61,12.69,1.22,25.81,2.38,40C556,1531.37,553.3,1622.39,552.42,1646.54Z" fill="#571519"/><path d="M591.21,1598.14c0,1.31-.06,2.56-.09,3.84v.09c0,1.25-.06,2.47-.09,3.7-.55,20.34-1.13,36.14-1.4,43.58-1.47-.12-2.9-.21-4.3-.31-1.13-.06-2.23-.15-3.33-.24.31-8,.92-25,1.5-46.82v-.09c1.15-45.38,2.5-129.44-1.83-182.48l-.31-3.94c-.7-9-1.28-17.63-1.83-25.89-.82-12.11-1.55-23.55-2.56-33.95,0-.12,0-.21,0-.33s0-.25,0-.37c-4.39-44.19-13.42-68.17-48.31-68.17h-.31c-37.45.13-369.72,0-417.82,0-.3-1.28-.64-2.53-.94-3.81s-.61-2.53-1-3.81c11,0,44.53,0,88.15,0h10.58c116.57,0,294.17.06,321,0h.31a67.44,67.44,0,0,1,13.17,1.22,35.39,35.39,0,0,1,3.81.91,29.42,29.42,0,0,1,3.82,1.23c25.68,9.36,31.56,37.69,34.8,69,.09,1,.21,2,.3,3,0,.3.06.61.09.94.13,1.25.25,2.53.34,3.85.85,9.27,1.52,19.24,2.22,29.7q.74,11,1.59,22.79c.09,1,.15,2,.24,3.05l.31,3.93c0,.27,0,.52.06.79C593.32,1469.12,592.58,1543.18,591.21,1598.14Z" fill="#571519"/><path d="M899.14,1658.22a3.8,3.8,0,0,1-3.81-3.81V1309.55H862.48v344.86a3.82,3.82,0,0,1-7.63,0V1305.74a3.82,3.82,0,0,1,3.82-3.82h40.47a3.81,3.81,0,0,1,3.81,3.82v348.67A3.8,3.8,0,0,1,899.14,1658.22Z" fill="#571519"/><path d="M1372.5,1224.77h-64.32a3.82,3.82,0,0,1,0-7.63h64.32a3.82,3.82,0,0,1,0,7.63Z" fill="#571519"/><path d="M422.66,799.35s67.82,16.2,89,71.4c16.23,42.3,64.63,171.79,64.63,171.79s-81.71,25.62-145.29,58.73c0,0-59.05-118.49-109.11-140.48Z" fill="#c6dee9"/><path d="M431,1105.08a3.94,3.94,0,0,1-1.18-.19,3.87,3.87,0,0,1-2.24-1.92c-.58-1.18-59-117.52-107.22-138.7a3.81,3.81,0,0,1,3.07-7C369.9,977.7,422.3,1076,432.66,1096.12c54.77-28,122.07-50.58,138.67-56-7.33-19.61-41.55-111.1-58.56-155.88-1.29-3.35-2.48-6.46-3.55-9.26l-1.11-2.9c-12.06-31.43-40-49.86-61.25-59.79C442,810.05,437,808,431.92,806.2c-6.17-2.18-10.11-3.14-10.14-3.15a3.81,3.81,0,1,1,1.78-7.41c.17,0,4.33,1.05,10.9,3.37,5.31,1.87,10.57,4,15.63,6.4,22.55,10.52,52.16,30.17,65.14,64l1.11,2.91c1.07,2.79,2.25,5.89,3.55,9.25,19,50.11,59.57,158.59,60,159.68a3.82,3.82,0,0,1-2.43,5c-.82.25-82.13,25.87-144.68,58.46A3.91,3.91,0,0,1,431,1105.08Z" fill="#571519"/><path d="M448.47,812.67a3.72,3.72,0,0,1-1.3-.23c-5.32-1.94-10.56-4.08-15.56-6.36-24.87-11.54-36-23.82-41-32.09s-5.08-14.3-5.06-15a3.87,3.87,0,0,1,4-3.67,3.8,3.8,0,0,1,3.67,3.94h0s0,4.32,4,10.71c4.45,7.39,14.6,18.41,37.7,29.13,4.8,2.19,9.85,4.26,15,6.13a3.81,3.81,0,0,1-1.31,7.39Z" fill="#571519"/><path d="M542,912.43c-10.62,0-21.69-11-22.95-12.3a3.81,3.81,0,1,1,5.45-5.33c2.86,2.91,11.68,10.42,18,10a5.79,5.79,0,0,0,4.47-2.54c9-11.9-10.84-61.69-25.49-90.29a3.81,3.81,0,0,1,6.79-3.48c4.1,8,39.65,78.8,24.78,98.38A13.46,13.46,0,0,1,543,912.4C542.65,912.42,542.35,912.43,542,912.43Z" fill="#571519"/><path d="M668.06,1102.21a3.82,3.82,0,0,1-3.75-3.14c-2.31-12.92,4.72-29.08,7.52-34.83l-35-50.2a3.81,3.81,0,1,1,6.26-4.36l36.28,52.07a3.82,3.82,0,0,1,.23,4c-.1.18-10.12,18.94-7.79,32a3.82,3.82,0,0,1-3.76,4.48Z" fill="#571519"/><path d="M1372.5,1658.22a3.8,3.8,0,0,1-3.81-3.81V144.51a3.81,3.81,0,0,1,7.62,0v1509.9A3.8,3.8,0,0,1,1372.5,1658.22Z" fill="#571519"/></svg>