<svg xmlns="http://www.w3.org/2000/svg" viewBox="0 0 2745 1830"><path d="M1.5,1h2742V1829H1.5Z" fill="#bbf2e0" fill-rule="evenodd"/><path d="M578.31,1303a4.57,4.57,0,0,1-4.57-4.57V160.1a4.57,4.57,0,0,1,9.14,0V1298.46A4.57,4.57,0,0,1,578.31,1303Z" fill="#96b5b1"/><path d="M556.78,1303a4.56,4.56,0,0,1-4.57-4.57V160.1a4.57,4.57,0,0,1,9.14,0V1298.46A4.57,4.57,0,0,1,556.78,1303Z" fill="#96b5b1"/><path d="M1388.36,1303a4.56,4.56,0,0,1-4.57-4.57V160.11a4.57,4.57,0,0,1,9.14,0V1298.47A4.56,4.56,0,0,1,1388.36,1303Z" fill="#96b5b1"/><path d="M1409.89,1303a4.57,4.57,0,0,1-4.57-4.57V160.11a4.57,4.57,0,1,1,9.14,0V1298.47A4.56,4.56,0,0,1,1409.89,1303Z" fill="#96b5b1"/><path d="M2378.82,1623.69a4.56,4.56,0,0,1-4.57-4.57v-1459a4.57,4.57,0,1,1,9.14,0v1459A4.56,4.56,0,0,1,2378.82,1623.69Z" fill="#96b5b1"/><path d="M2358.22,1622.64a4.57,4.57,0,0,1-4.57-4.57v-1458a4.57,4.57,0,0,1,9.14,0v1458A4.56,4.56,0,0,1,2358.22,1622.64Z" fill="#96b5b1"/><path d="M1007.6,1306.18a4.57,4.57,0,0,1-4.57-4.57V623.93H724.38v676a4.57,4.57,0,0,1-9.14,0V619.36a4.57,4.57,0,0,1,4.57-4.57H1007.6a4.56,4.56,0,0,1,4.57,4.57v682.25A4.56,4.56,0,0,1,1007.6,1306.18Z" fill="#96b5b1"/><path d="M497.43,1310.54a4.56,4.56,0,0,1-4.57-4.57V695.3a4.56,4.56,0,0,1,4.57-4.57h53.68a4.57,4.57,0,1,1,0,9.14H502V1306A4.57,4.57,0,0,1,497.43,1310.54Z" fill="#96b5b1"/><path d="M691.66,1304.5a4.57,4.57,0,0,1-4.57-4.57V699.87H582.39a4.57,4.57,0,1,1,0-9.14H691.66a4.56,4.56,0,0,1,4.57,4.57v604.63A4.56,4.56,0,0,1,691.66,1304.5Z" fill="#96b5b1"/><path d="M259.56,1523.54A4.58,4.58,0,0,1,255,1519V262.38a4.58,4.58,0,0,1,4.57-4.57H414.38a4.57,4.57,0,0,1,4.57,4.57V1518.26a4.57,4.57,0,1,1-9.14,0V267H264.13V1519A4.58,4.58,0,0,1,259.56,1523.54Z" fill="#96b5b1"/><path d="M1151.17,1312.49a4.57,4.57,0,0,1-4.57-4.57V720.34H1037.51v586.53a4.57,4.57,0,0,1-9.14,0V715.77a4.58,4.58,0,0,1,4.57-4.57h118.23a4.58,4.58,0,0,1,4.57,4.57v592.15A4.57,4.57,0,0,1,1151.17,1312.49Z" fill="#96b5b1"/><path d="M1065.31,1312.84a4.57,4.57,0,0,1-4.57-4.57V721.53a4.57,4.57,0,0,1,9.14,0v586.74A4.56,4.56,0,0,1,1065.31,1312.84Z" fill="#96b5b1"/><path d="M1111.76,1312.67a4.57,4.57,0,0,1-4.57-4.57V716.59a4.57,4.57,0,0,1,9.14,0V1308.1A4.58,4.58,0,0,1,1111.76,1312.67Z" fill="#96b5b1"/><path d="M1605.87,1606.86a4.57,4.57,0,0,1-4.57-4.57V635.23H1418.75a4.57,4.57,0,1,1,0-9.14h187.12a4.56,4.56,0,0,1,4.57,4.57v971.63A4.57,4.57,0,0,1,1605.87,1606.86Z" fill="#96b5b1"/><path d="M1999.62,1617a4.57,4.57,0,0,1-4.57-4.57V705.86H1686.12v906.52a4.57,4.57,0,0,1-9.14,0V701.29a4.57,4.57,0,0,1,4.57-4.57h318.07a4.57,4.57,0,0,1,4.57,4.57v911.09A4.57,4.57,0,0,1,1999.62,1617Z" fill="#96b5b1"/><path d="M2319,1622.56a4.56,4.56,0,0,1-4.57-4.57V689.52H2110.22V1618a4.57,4.57,0,1,1-9.14,0V685a4.56,4.56,0,0,1,4.57-4.57H2319a4.57,4.57,0,0,1,4.57,4.57v933A4.57,4.57,0,0,1,2319,1622.56Z" fill="#96b5b1"/><path d="M2038.53,1622.79a4.57,4.57,0,0,1-4.57-4.57V301.84h-96.69V690.52a4.57,4.57,0,1,1-9.14,0V297.27a4.57,4.57,0,0,1,4.57-4.57h105.83a4.57,4.57,0,0,1,4.57,4.57v1321A4.56,4.56,0,0,1,2038.53,1622.79Z" fill="#96b5b1"/><path d="M1195,1608.3a4.58,4.58,0,0,1-4.57-4.57V522.53A4.58,4.58,0,0,1,1195,518h186.77a4.58,4.58,0,0,1,4.57,4.57V622.87a4.57,4.57,0,0,1-9.14,0V527.1H1199.56V1603.73A4.57,4.57,0,0,1,1195,1608.3Z" fill="#96b5b1"/><path d="M1149,772.48H1037.07a4.57,4.57,0,1,1,0-9.14H1149a4.57,4.57,0,1,1,0,9.14Z" fill="#96b5b1"/><path d="M1149,818.26H1037.07a4.57,4.57,0,0,1,0-9.14H1149a4.57,4.57,0,1,1,0,9.14Z" fill="#96b5b1"/><path d="M1149,864.05H1037.07a4.57,4.57,0,0,1,0-9.14H1149a4.57,4.57,0,1,1,0,9.14Z" fill="#96b5b1"/><path d="M1149,909.84H1037.07a4.57,4.57,0,1,1,0-9.14H1149a4.57,4.57,0,1,1,0,9.14Z" fill="#96b5b1"/><path d="M1149,955.62H1037.07a4.57,4.57,0,1,1,0-9.14H1149a4.57,4.57,0,1,1,0,9.14Z" fill="#96b5b1"/><path d="M1149,1001.41H1037.07a4.57,4.57,0,0,1,0-9.14H1149a4.57,4.57,0,1,1,0,9.14Z" fill="#96b5b1"/><path d="M1149,1047.2H1037.07a4.57,4.57,0,0,1,0-9.14H1149a4.57,4.57,0,1,1,0,9.14Z" fill="#96b5b1"/><path d="M1149,1093H1037.07a4.57,4.57,0,0,1,0-9.14H1149a4.57,4.57,0,1,1,0,9.14Z" fill="#96b5b1"/><path d="M1149,1143.86H1037.07a4.57,4.57,0,1,1,0-9.14H1149a4.57,4.57,0,1,1,0,9.14Z" fill="#96b5b1"/><path d="M1149,1189.65H1037.07a4.57,4.57,0,1,1,0-9.14H1149a4.57,4.57,0,1,1,0,9.14Z" fill="#4f9ecb"/><path d="M1149,1235.43H1037.07a4.57,4.57,0,1,1,0-9.14H1149a4.57,4.57,0,1,1,0,9.14Z" fill="#4f9ecb"/><path d="M1149,1281.22H1037.07a4.57,4.57,0,0,1,0-9.14H1149a4.57,4.57,0,1,1,0,9.14Z" fill="#4f9ecb"/><path d="M2263.59,1622.69a4.57,4.57,0,0,1-4.57-4.57V694.6a4.57,4.57,0,1,1,9.14,0v923.52A4.58,4.58,0,0,1,2263.59,1622.69Z" fill="#96b5b1"/><path d="M2178,1616.58a4.56,4.56,0,0,1-4.57-4.57V688.5a4.57,4.57,0,1,1,9.14,0V1612A4.57,4.57,0,0,1,2178,1616.58Z" fill="#96b5b1"/><path d="M2315.63,728.23H2109.41a4.57,4.57,0,1,1,0-9.14h206.22a4.57,4.57,0,0,1,0,9.14Z" fill="#96b5b1"/><path d="M2315.63,782.12H2109.41a4.57,4.57,0,1,1,0-9.14h206.22a4.57,4.57,0,0,1,0,9.14Z" fill="#96b5b1"/><path d="M2315.63,836H2109.41a4.57,4.57,0,1,1,0-9.14h206.22a4.57,4.57,0,0,1,0,9.14Z" fill="#96b5b1"/><path d="M2315.63,889.88H2109.41a4.57,4.57,0,1,1,0-9.14h206.22a4.57,4.57,0,0,1,0,9.14Z" fill="#96b5b1"/><path d="M2315.63,943.76H2109.41a4.57,4.57,0,1,1,0-9.14h206.22a4.57,4.57,0,0,1,0,9.14Z" fill="#96b5b1"/><path d="M2315.63,997.64H2109.41a4.57,4.57,0,1,1,0-9.14h206.22a4.57,4.57,0,0,1,0,9.14Z" fill="#96b5b1"/><path d="M2315.63,1051.52H2109.41a4.57,4.57,0,1,1,0-9.14h206.22a4.57,4.57,0,0,1,0,9.14Z" fill="#96b5b1"/><path d="M2315.63,1105.4H2109.41a4.57,4.57,0,1,1,0-9.14h206.22a4.57,4.57,0,1,1,0,9.14Z" fill="#96b5b1"/><path d="M2315.63,1165.27H2109.41a4.57,4.57,0,1,1,0-9.14h206.22a4.57,4.57,0,0,1,0,9.14Z" fill="#96b5b1"/><path d="M2315.63,1219.16H2109.41a4.58,4.58,0,0,1,0-9.15h206.22a4.58,4.58,0,0,1,0,9.15Z" fill="#96b5b1"/><path d="M2315.63,1273H2109.41a4.57,4.57,0,1,1,0-9.14h206.22a4.57,4.57,0,0,1,0,9.14Z" fill="#96b5b1"/><path d="M2315.63,1326.92H2109.41a4.57,4.57,0,1,1,0-9.14h206.22a4.57,4.57,0,0,1,0,9.14Z" fill="#96b5b1"/><path d="M2315.63,1380.8H2109.41a4.57,4.57,0,1,1,0-9.14h206.22a4.57,4.57,0,0,1,0,9.14Z" fill="#96b5b1"/><path d="M2315.63,1434.68H2109.41a4.57,4.57,0,1,1,0-9.14h206.22a4.57,4.57,0,0,1,0,9.14Z" fill="#96b5b1"/><path d="M2315.63,1488.56H2109.41a4.57,4.57,0,1,1,0-9.14h206.22a4.57,4.57,0,0,1,0,9.14Z" fill="#96b5b1"/><path d="M2314.05,1560.74H2107.82a4.57,4.57,0,0,1,0-9.14h206.23a4.57,4.57,0,0,1,0,9.14Z" fill="#96b5b1"/><path d="M545.37,1030.13H265.29a4.57,4.57,0,1,1,0-9.14H545.37a4.57,4.57,0,0,1,0,9.14Z" fill="#96b5b1"/><path d="M545.37,1087H265.29a4.57,4.57,0,0,1,0-9.14H545.37a4.57,4.57,0,1,1,0,9.14Z" fill="#96b5b1"/><path d="M545.37,1150.23H265.29a4.57,4.57,0,1,1,0-9.14H545.37a4.57,4.57,0,0,1,0,9.14Z" fill="#96b5b1"/><path d="M545.37,1207.11H265.29a4.57,4.57,0,0,1,0-9.14H545.37a4.57,4.57,0,1,1,0,9.14Z" fill="#96b5b1"/><path d="M545.37,1264H265.29a4.57,4.57,0,1,1,0-9.14H545.37a4.57,4.57,0,0,1,0,9.14Z" fill="#96b5b1"/><path d="M416,497.32a4.57,4.57,0,0,1-.06-9.14l132.7-2a4.74,4.74,0,0,1,4.64,4.5,4.56,4.56,0,0,1-4.5,4.64l-132.7,2Z" fill="#96b5b1"/><path d="M666.48,700.19a4.58,4.58,0,0,1-4.57-4.57V495.31H584.84a4.57,4.57,0,0,1,0-9.14h81.64a4.58,4.58,0,0,1,4.57,4.57V695.62A4.58,4.58,0,0,1,666.48,700.19Z" fill="#96b5b1"/><path d="M860.84,1552.9c0-10.64,3.41-37.62,15.47-67.35s31.59-60.07,50.69-98.7c12.47-25.23,29.48-55.53,42.69-81.55,24.37-48,41.87-93.57,60.39-128.57,16.43-31.07,34.89-53.83,41.29-62.28,7.47-9.86,24-22,40.94-28,18.89-6.7,39.15-7.1,65.82-14.51,9.88-2.74,22.92-7.65,33.21-10.85,17.4-5.42,39.06-13.65,55.64-20.87,7.41-3.21,26.31-5.66,33-9.39,15.4-8.52,18.7-26.37,29.76-24.62,36.41,5.76,136-5.1,157.83-5.1,11.18,0,17.51,13.3,28.4,20.89,6.56,4.58,7.67,8.48,14.29,13.67,4.8,3.76,10,3.91,18.7,7.2,15.93,6,38.42,15,54.85,21.95,18.71,8,51.23,11.65,79.66,18.49,24.81,6,45.37,14.46,65.57,29.06,21.28,15.36,30.85,35.87,40,61.44,5.12,14.26,12.69,34.16,15.92,45.84,3.15,11.38,23.1,76.91,51.1,149.17,19.27,49.75,48.09,103.13,54.7,142.39,3.29,19.52,0,28.41-3.12,40.16-.85,3.17-9.41,19.54-23,32.37-13.9,13.07-35.61,25.53-53.61,32-4.71,1.69-10.77-10.64-15.41-8.76-5.78,2.33-4.25,12.47-16.1,15.79-12.2,3.42-32,2.64-42.25,1.38-37.37-4.58-36.84-81.94-52.84-91.49-4.17-2.49,5.07-9.5,15.2-18.26,4.27-3.69,9-9.48,13.81-13.31,7.17-5.76,15.19-7.72,20.85-11.58,6.8-4.62,10.54-10.55,10.07-10.1-1.61,1.54-12-10-17.6-20.27-6.19-11.47-10.94-32.25-18.14-49.16-16.26-38.16-34.49-75-35.2-71.7-11,51.22-27.85,138.26-36.85,200.53-6.12,42.34-60.92,82.55-60.92,82.55l-223.31,1.72s-100.38-35-154.31-39.24c-27.62-2.16-46.64-15.4-46.64-15.4S1155.53,1506.84,1145,1451c-9.9-52.65-14.36-99.79-17.12-99.53-1.3.12-35.92,50.26-57,90.1-13.06,24.64-13.69,41-19.88,52.25-2.18,4-13,17.81-13,17.81a140,140,0,0,0,24.29,11.35c20.31,7.1,49.25,14.61,76.09,26.29,4.92,2.14,3.61,7.15,8.15,9.35,26.54,12.81,51.64,22.66,50.53,22.79-6.74.76-55.29,50.5-62.31,51-17.18,1.36-85.1-5.32-101.46-5.22-19.18.13-49.14-7.22-65.83-9-27-2.91-57.07-9.64-73.51-19.2C876.37,1588.78,860.84,1573.13,860.84,1552.9Z" fill="#fff" fill-rule="evenodd"/><path d="M1300,657.65c21.2-18.47,59.52-36.94,80-36.94,19.16,0,29.42-4.1,47.21,10.26,11.63,9.58,35.57,5.47,56.78,16.42C1505.93,659,1514.82,670,1523,683s13.68,34.2,13.68,34.2,6.17,45.84,2.74,65.68-15.73,61.57-15.73,61.57-25.32,26-45.16,21.2c-33.52-8.2-71.15-49.93-91-49.93-23.95,0-83.46,54.73-114.94,39.68-8.89-4.11-21.89-56.1-23.26-84.15-.68-28.74,2.74-39.68,8.21-55.42C1264.43,700.07,1281.54,672.7,1300,657.65Z" fill="#f4c04d" fill-rule="evenodd"/><path d="M1319.16,979.88a169.94,169.94,0,0,1-16.42-30.1c-7.52-18.47-13.68-44.47-13.68-44.47s-26.68-3.42-33.52-31.47c-8.21-30.79,17.1-34.89,17.1-34.89l21.21,12.31a50.09,50.09,0,0,1-4.1-18.47c0-9.58,5.47-23.95,5.47-23.95l13.68-24.63s10.26-12.31,15.74-21.2c8.21-13,13.68-30.79,36.26-33.53,9.57-1.36,31.46-5.46,44.46-.68,19.16,6.84,20.53,28.05,34.21,39.68,14.37,11.63,40.36,13,40.36,14.37,0,7.52,12.32,13,15.74,30.1,2.73,13-3.42,39.68-2.06,40.36,7.53,3.42,24.63-15,24.63-15s26-1.36,19.16,36.26c-3.42,17.1-34.21,31.47-34.21,31.47a210.65,210.65,0,0,1-11.63,40.37c-8.21,19.83-21.2,38.31-21.2,38.31s-43.14,37.21-72.61,36.81C1366.42,1021.06,1319.16,979.88,1319.16,979.88Z" fill="#ffe4ce" fill-rule="evenodd"/><path d="M1324.53,982.71c35,17.53,75.7,12,111.65.73,12-3.73,22-11.82,33.55-15.67,2.6-.86,8.25-3.49,10.77-1,6,6,2.16,23,3.67,30.6,1.85,9.24,6.37,23.68,11.27,31.83,2,3.33,8.6,11.61,7.58,15.67-1.18,4.74-14.47,11.29-18.11,14.94-16.34,16.33-36.49,29-56.81,41.14-7.88,4.72-16.7,13.52-22.53,20.81-.94,1.18-5.47,9.79-6.61,9.79-2.24,0-4.9-4.65-6.36-6.12a93.63,93.63,0,0,0-19.1-15.18c-22.37-13.42-53-25.29-60-53.38-1.52-6.06,13.45-10.41,14.45-18.36,2.56-20.55,4-40.74-5.88-60.48Z" fill="#ffe4ce" fill-rule="evenodd"/><path d="M1730.73,1521.8c4.58-.64,10.85,2.4,14.77,4.45,17.75,9.29,27.66,20.12,36.67,38.3,2.91,5.87,10,18.18,6.92,25-7.43,16.62-34.71,24.14-48.45,35.21-8.33,6.73-13.66,18.13-23.38,23-5.9,2.92-13.47,5.17-20.13,3.75-2.36-.5-7.67-6.33-8.3-6.11-12.13,4.23-15.51,21-31.88,15.51-5.8-2-6.11-11.17-5.48-16.05.37-2.88,4.74-8.89,1.88-8.49-1.62.23-4.52,6.45-5.63,7.67-4.89,5.37-11.94,11.23-19.65,11.33-4.19.05-7.22-2.86-11-3.26-4.72-.5-12,2.28-15.07-3.83-1.91-3.86-.85-12.24-5.08-14.59-1.66-.91-5.74.8-7.5,1-6.31.88-22.2-2.07-17.75-12.06,3.83-8.54,16.33-9.83,21.74-17,15.31-20.25,22.69-55,48.93-64.73,8.91-3.32,19.91-2.1,29.26-2.73,23.07-1.54,44-2.88,63.16-16Z" fill="#ffe4ce" fill-rule="evenodd"/><path d="M1349.36,1134.77l19.73-15,9.21,10.71,11.46,12-15,16.35-15.6-10.72Z" fill="#f4c04d" fill-rule="evenodd"/><path d="M1411.93,1142.1l17.67-22.74L1445,1132.7l-7.52,14.85-13.91,10.9Z" fill="#f4c04d" fill-rule="evenodd"/><path d="M1379,1142.84l11-1.46,11,2.34,12.12-1.1,8.87,4.63.6,14.53-7.06,20.94-2.37,23.26-7,5.38-15-3-11.42-3.49-4.72-8.34,1.78-13.77-2.22-27Z" fill="#f4c04d" fill-rule="evenodd"/><path d="M1381.88,1205.49,1370,1239.58l-17,363.11,21.49,19.64,60-.37-16.31-378.67-10.74-35.58Z" fill="#f4c04d" fill-rule="evenodd"/><path d="M1133.49,1631.8a72.56,72.56,0,0,0,4-7c1.42-3.9,5.06-6.55,7.3-10a72.31,72.31,0,0,1,28.08-24.23c8.56-4,18.95-10.78,28.39-12.33,12-2,25.1.69,37-.29,17-1.42,33.75-4.38,50.89-6.63,23.85-3.12,31.06,13.25,48.44,23.86,10.11,6.18,22.92,14.07,31.4,22.44,3.83,3.78,18.47,19.44,17.18,25.41-.52,2.41-5.25,1.9-5.9,3.87-1.73,5.32,6.78,9,1.46,15.26-1.75,2.07-7.12.86-8.46,2.61-1.87,2.43,3.79,6-1.31,8.73-8.24,4.42-16.37,5-25.39,6.22-2.64.35-3.87,3.73-6,5-5.19,3-14.86,1.94-20.54.84-25-4.85-44.49-23.37-70.91-24.76-23.51-1.25-55.92,4.14-77.84-6.66-1.38-.68-6.17-1.66-6.73-3.31-1.71-5,12.17-8.37,8.78-14.21-1.33-2.3-6.79-1.29-9-1.47-7-.54-13.49.19-20.47-1.31C1141.61,1633.42,1134.4,1629.91,1133.49,1631.8Z" fill="#ffe4ce" fill-rule="evenodd"/><path d="M1397.16,1026.17H1397c-1,0-25.08-1-59.35-26.19-23.63-17.19-31.61-35.42-36.38-46.32-9-19.55-14.64-46.24-18.09-64.61a4.57,4.57,0,0,1,9-1.68c3.35,17.88,8.81,43.83,17.44,62.54,4.72,10.78,11.79,27,33.43,42.69,31.75,23.33,54,24.43,54.24,24.44a4.57,4.57,0,0,1-.14,9.13Z" fill="#571519"/><path d="M1393,912.61a4.51,4.51,0,0,1-2.28-.61c-1.58-.92-15.44-9.31-14.58-21.39.45-5.48,3.75-8.39,6.4-10.72,2.86-2.53,5.33-4.71,5.92-10.61.77-5.39-1.78-15.61-2.62-19a4.57,4.57,0,0,1,8.87-2.22c2.64,10.59,3.51,17.46,2.83,22.28-.93,9.28-5.57,13.37-9,16.36-2.41,2.13-3.2,3-3.33,4.58-.39,5.39,7.33,11.18,10.06,12.77a4.57,4.57,0,0,1-2.31,8.52Z" fill="#571519"/><path d="M1332.85,860.84c0-7.53,4.1-13.68,9.57-14.37,5.48,0,10.26,5.47,10.26,13.69,0,7.52-4.1,13.68-9.57,14.36C1338.32,874.52,1333.53,868.36,1332.85,860.84Z" fill="#571519" fill-rule="evenodd"/><path d="M1290.44,909.19a4.88,4.88,0,0,1-.93-.09c-19.51-4-34.34-18.9-37.78-37.87-1.41-7.76-2.58-19,3.59-27.2,4.15-5.49,11-8.73,20.3-9.63a4.57,4.57,0,1,1,.88,9.09c-6.76.66-11.31,2.64-13.88,6-3,4-3.65,10.41-1.9,20.06a38.54,38.54,0,0,0,30.64,30.55,4.57,4.57,0,0,1-.92,9Z" fill="#571519"/><path d="M1321.23,820.25a4.57,4.57,0,0,1-2.52-8.39c1-.64,24.43-15.69,49.8-2.26a4.57,4.57,0,1,1-4.28,8.07c-20.5-10.85-39.71,1.32-40.52,1.84A4.54,4.54,0,0,1,1321.23,820.25Z" fill="#571519"/><path d="M1504.56,907.14a4.57,4.57,0,0,1-.92-9,38.52,38.52,0,0,0,30.63-30.54c1.76-10.14.25-18.69-4.06-22.85-3.53-3.41-9.3-4.31-17.18-2.65a4.57,4.57,0,1,1-1.89-8.94c11-2.32,19.57-.63,25.42,5,9.35,9,7.81,24.71,6.71,31-3.45,19-18.28,33.86-37.78,37.9A4.88,4.88,0,0,1,1504.56,907.14Z" fill="#571519"/><path d="M1281.54,875a4.58,4.58,0,0,1-4-2.34c-1.15-2-3.64-5.38-5.57-6.34a4.57,4.57,0,1,1,4.09-8.18c5.21,2.61,9,9.32,9.47,10.08a4.56,4.56,0,0,1-1.77,6.2A4.49,4.49,0,0,1,1281.54,875Z" fill="#571519"/><path d="M1514.82,872.93a4.56,4.56,0,0,1-4-6.79c.42-.75,4.26-7.46,9.48-10.07a4.57,4.57,0,1,1,4.08,8.17c-2.12,1.07-4.72,4.8-5.57,6.34A4.57,4.57,0,0,1,1514.82,872.93Z" fill="#571519"/><path d="M1325.32,858.57a4.57,4.57,0,0,1-2.81-8.18c7.41-5.76,26.16-8.94,36.88-1.52a4.57,4.57,0,1,1-5.2,7.52c-6.91-4.78-21.13-2.62-26.07,1.22A4.52,4.52,0,0,1,1325.32,858.57Z" fill="#571519"/><path d="M1395.59,956.38c-13.1,0-25.29-3.39-32.48-8.31a4.57,4.57,0,1,1,5.15-7.54c11.17,7.63,39.89,10.73,57.71-2a4.57,4.57,0,0,1,5.31,7.44C1420.85,953.42,1407.83,956.38,1395.59,956.38Z" fill="#571519"/><path d="M1398,1026.17h-.3a4.57,4.57,0,0,1,.28-9.13c.38.09,19.16,0,50.53-23.06,22.45-16.32,32.71-34.56,36.83-44,8.66-18.76,14.13-44.73,17.49-62.64a4.57,4.57,0,0,1,9,1.69c-3.45,18.39-9.08,45.1-18.13,64.69-4.46,10.19-15.6,30-39.77,47.62C1421.3,1025.3,1400.78,1026.17,1398,1026.17Z" fill="#571519"/><path d="M1455.3,860.84c0-7.53-4.1-13.68-9.57-14.37-5.47,0-10.26,5.47-10.26,13.69,0,7.52,4.1,13.68,9.57,14.36C1449.83,874.52,1454.62,868.36,1455.3,860.84Z" fill="#571519" fill-rule="evenodd"/><path d="M1464.19,820.25a4.58,4.58,0,0,1-2.5-.74c-.8-.52-20-12.69-40.51-1.84a4.57,4.57,0,1,1-4.27-8.07c25.34-13.42,48.81,1.62,49.8,2.26a4.57,4.57,0,0,1-2.52,8.39Z" fill="#571519"/><path d="M1462.82,858.57a4.55,4.55,0,0,1-2.8-1c-4.7-3.66-18.86-6.75-25.87-1.36a4.57,4.57,0,1,1-5.57-7.24c10.66-8.21,29.37-4.6,37.06,1.39a4.57,4.57,0,0,1-2.82,8.17Z" fill="#571519"/><path d="M1529.2,839.41a4.45,4.45,0,0,1-1.09-.13,4.57,4.57,0,0,1-3.36-5.52c7.24-29.63,16.25-66.51,9.52-105.55-5.66-33.93-30-73.12-70.06-79a4.57,4.57,0,0,1,1.34-9c44.59,6.58,71.55,49.48,77.73,86.55,7,40.89-2.21,78.79-9.65,109.25A4.57,4.57,0,0,1,1529.2,839.41Z" fill="#571519"/><path d="M1263.75,844.2a4.56,4.56,0,0,1-4.33-3.11c-1.2-3.57-29-88-1.77-139.73,26.22-49.59,84.09-78.92,114.94-83.12,41.18-5.07,73.38,6.39,80.24,28.48a4.57,4.57,0,0,1-8.73,2.71c-5.42-17.45-34.34-26.56-70.33-22.13-28.92,3.94-83.32,31.57-108,78.33-25.45,48.28,2.06,131.71,2.34,132.55a4.56,4.56,0,0,1-2.88,5.78A4.32,4.32,0,0,1,1263.75,844.2Z" fill="#571519"/><path d="M1474.46,784.25a51.43,51.43,0,0,1-23.25-5.52C1432.7,769.47,1422.88,757,1413,740c-3.56-5.92-12.9-21.49-21.21-21.55h0c-3.27,0-6.6,2.69-9.9,8a4.57,4.57,0,1,1-7.76-4.83c5.07-8.17,11-12.31,17.66-12.31h.12c13.45.11,23.9,17.54,28.93,25.92,10.75,18.61,20.05,28.14,34.47,35.34,12.6,6.31,25,5,34.5,2-16.32-2.41-39-11.85-55.63-42.95a4.57,4.57,0,0,1,8.07-4.3c25.25,47.36,64.37,38.48,66,38.08a4.57,4.57,0,0,1,3.89,8C1511.26,772.1,1495.26,784.25,1474.46,784.25Z" fill="#571519"/><path d="M1496.35,857.2a4.58,4.58,0,0,1-4.37-5.93c.1-.31,9.38-31.23-7-57.08a4.57,4.57,0,0,1,7.73-4.89c12,18.92,12.09,39.6,10.49,52.37,3.66-4.21,7.21-10.66,7.77-20.09a4.57,4.57,0,0,1,9.12.53c-1.52,25.8-21.11,34.37-21.94,34.73A4.6,4.6,0,0,1,1496.35,857.2Z" fill="#571519"/><path d="M1491.51,724.14c-36.2,0-57.68-26.64-67.57-38.91-2-2.45-4.2-5.22-5-5.78-9.66-5.1-26.17,1-36.93,20.12a4.57,4.57,0,0,1-8-4.48c14-24.89,35.79-30.78,49.21-23.69,2.18,1.09,4.31,3.73,7.83,8.1,11.14,13.82,34.31,42.59,75.29,33.89a4.57,4.57,0,0,1,1.9,8.94A80.62,80.62,0,0,1,1491.51,724.14Z" fill="#571519"/><path d="M1276.74,792.89a4.57,4.57,0,0,1-.39-9.12c34.22-3,42.57-18.59,50.65-33.66,5.84-10.92,11.89-22.21,27.4-25.76a4.57,4.57,0,1,1,2,8.91c-11.46,2.63-15.84,10.8-21.39,21.16-8.35,15.6-18.75,35-57.9,38.45Z" fill="#571519"/><path d="M1295.22,859.25a4.6,4.6,0,0,1-1.78-.36c-.84-.35-20.42-8.92-21.94-34.73a4.56,4.56,0,0,1,4.3-4.82,4.5,4.5,0,0,1,4.82,4.29c.56,9.43,4.11,15.88,7.77,20.1-1.6-12.78-1.51-33.46,10.49-52.38a4.57,4.57,0,1,1,7.72,4.89c-16.46,26-7.12,56.77-7,57.08a4.56,4.56,0,0,1-4.36,5.93Z" fill="#571519"/><path d="M1317.55,1055.86a4.56,4.56,0,0,1-3-8c14.55-12.33,14.69-43,5.1-62.15a4.57,4.57,0,1,1,8.18-4.09c11.12,22.24,10.84,57.78-7.37,73.21A4.55,4.55,0,0,1,1317.55,1055.86Z" fill="#571519"/><path d="M1503.59,1045.07a4.56,4.56,0,0,1-3.81-2c-16.71-25.07-19.62-46.17-22.14-75.49a4.57,4.57,0,0,1,4.16-4.95,4.5,4.5,0,0,1,4.94,4.16c2.41,27.92,5.15,48,20.65,71.21a4.57,4.57,0,0,1-3.8,7.1Z" fill="#571519"/><path d="M1399.55,1136.05c-1.78,0-3.2-1.45-6.43-4.74-1.94-2-5.19-5.27-5.79-5.8a107.85,107.85,0,0,0-19.5-12c-24.43-12.21-54.4-32-58.44-56.88-2.05-12.66,2.83-25,14.52-36.68a4.57,4.57,0,0,1,6.46,6.46c-9.62,9.62-13.53,19-12,28.76,3.6,22.17,35.07,41,53.51,50.17a116,116,0,0,1,21.19,13.07c.54.43,1.62,1.49,5.14,5.06a11.71,11.71,0,0,1,1.37-2.39c6.23-7.78,16.17-14.7,19.07-16.63,5.74-3.83,11.54-7.36,17.15-10.78,10.18-6.2,19.8-12.06,29.18-19.57l2.19-1.74c25.63-20.28,37.8-34.68,36.18-42.8-.47-2.32-2.68-3.58-6.25-5.43a40.79,40.79,0,0,1-4-2.25,4.57,4.57,0,1,1,5.07-7.6,33.22,33.22,0,0,0,3.1,1.74c4.07,2.11,9.65,5,11,11.75,3.12,15.62-18.2,34.93-39.47,51.76l-2.14,1.71c-9.84,7.87-20.17,14.16-30.15,20.24-5.53,3.37-11.25,6.85-16.83,10.57-7,4.67-13.36,10.18-17,14.74-.14.27-1,2.3-1.48,3.39-1.47,3.41-1.91,4.44-3.53,5.27A5.6,5.6,0,0,1,1399.55,1136.05Z" fill="#571519"/><path d="M1335.44,1150.54a6.42,6.42,0,0,1-1.57-.19c-3.27-.82-5.46-3.8-14.63-23.23-1.1-2.31-2.33-4.93-2.66-5.48-24.23-39.36-29.08-72.11-14-94.69,5.65-8.49,11.93-17.9,22.31-21a4.57,4.57,0,1,1,2.63,8.75c-7.23,2.17-12.31,9.79-17.21,17.15-16.46,24.69-1.42,59.85,14.08,85,.54.88,1.39,2.68,3.13,6.36,2,4.33,6.43,13.6,8.88,17.47a73,73,0,0,0,7.15-6.39c1.19-1.17,2.16-2.1,2.71-2.54,1.56-1.26,3.12-2.59,4.67-3.92,9.06-7.75,19.33-16.55,33.73-11.74a4.56,4.56,0,1,1-2.89,8.66c-9.48-3.13-16.63,3-24.89,10-1.64,1.4-3.27,2.79-4.91,4.11-.41.32-1.12,1-2,1.92C1344.21,1146.45,1339.69,1150.54,1335.44,1150.54Zm-.43-9.1Z" fill="#571519"/><path d="M1453.56,1145.83h-.24c-4.84-.27-17.52-14.56-17.63-14.71-7.89-9.85-14.84-12.4-24.78-9.1a4.57,4.57,0,0,1-2.89-8.67c17.58-5.87,27.84,3.37,34.81,12.07,1.14,1.37,6.87,7.07,10.25,10a541.49,541.49,0,0,0,56.12-68.53c9.39-13.67,13.36-24.5,11.83-32.19-.55-2.74-7.53-8.24-11.29-11.19a76.4,76.4,0,0,1-6.28-5.29c-.88-.88-1.8-1.87-2.78-2.91-3.25-3.46-7.3-7.78-10.73-8.92a4.58,4.58,0,1,1,2.9-8.68c5.62,1.88,10.54,7.13,14.5,11.35.91,1,1.77,1.89,2.57,2.7,1.2,1.19,3.28,2.83,5.48,4.57,6.27,4.94,13.38,10.54,14.59,16.57,2.07,10.36-2.27,23.16-13.26,39.17-17.43,25.34-39.75,52.41-59.73,72.38A5.05,5.05,0,0,1,1453.56,1145.83Z" fill="#571519"/><path d="M1136.52,1632.75a4.45,4.45,0,0,1-2.29-.63,4.56,4.56,0,0,1-1.65-6.24c4.15-7.11,10.66-17.48,19.27-25.37,10-9.18,22.76-15.4,31.18-19.09-10.29-5.15-23-11-38.42-17.77-4.53-2-5.78-5.31-6.6-7.51-.63-1.69-.77-2-1.86-2.45-14-5.93-30.73-11.24-47-16.38-15.57-4.93-30.27-9.58-42.09-14.6-56.62-24-97.23-41.27-125.17-38.38a4.62,4.62,0,0,1-5-4.08,4.57,4.57,0,0,1,4.07-5c30.3-3.08,69.67,13.59,129.28,38.89,11.84,5,26.34,9.62,41.69,14.47,16.43,5.21,33.43,10.59,47.78,16.69a11.89,11.89,0,0,1,6.84,7.66c.63,1.69.77,1.93,1.7,2.34,20.1,8.79,35.57,16.09,47.3,22.31a4.7,4.7,0,0,1,2.47,4.3c-.13,3.14-2.13,4-7,6-7.2,3-22.19,9.38-33.06,19.34-7.69,7-13.69,16.64-17.54,23.23A4.57,4.57,0,0,1,1136.52,1632.75Z" fill="#571519"/><path d="M1014.24,1627a5.1,5.1,0,0,1-.86-.08c-5.89-1.13-9.61-1.77-11.35-2-4.77-.52-10-1-15.46-1.49-52.12-4.74-130.88-11.91-129.47-79.57.81-39.29,23.54-80.08,43.59-116.08,4.43-7.95,8.61-15.46,12.42-22.7,37-70.3,69.35-138.69,98.82-202.12,21.54-46.39,46.68-92.21,84.39-113.22,15.66-8.72,34.16-12.07,52.06-15.32,8.06-1.46,15.67-2.84,23-4.67,18.8-4.73,37.37-11.84,55.32-18.71,11.62-4.44,23.63-9,35.68-13l5.68-1.82c14.2-4.48,33.63-10.63,41.69-20.28a4.57,4.57,0,0,1,7,5.85c-9.77,11.71-30.68,18.32-46,23.15-2,.63-3.86,1.22-5.59,1.79-11.84,3.88-23.74,8.43-35.26,12.84-18.21,7-37,14.17-56.36,19-7.58,1.91-15.7,3.38-23.56,4.81-17.16,3.11-34.91,6.32-49.24,14.31-35.44,19.74-59.66,64.09-80.56,109.08-29.51,63.53-61.93,132-99,202.53-3.86,7.34-8.07,14.89-12.53,22.89-19.53,35.06-41.67,74.8-42.43,111.82-1.23,59.14,69.51,65.58,121.16,70.28,5.54.5,10.79,1,15.62,1.5,2,.22,5.86.88,12.08,2.07a4.57,4.57,0,0,1-.86,9.06Z" fill="#571519"/><path d="M1329.21,1690.46c-14.77,0-29.93-7.15-43.68-13.64-8.22-3.87-16-7.54-23-9.42-13.53-3.66-27.84-3.71-43-3.76-12.76,0-25.95-.09-38.62-2.5a105.06,105.06,0,0,1-13.21-3.43,4.57,4.57,0,1,1,2.83-8.69,97.05,97.05,0,0,0,12.08,3.14c11.85,2.26,24.61,2.3,36.95,2.34,15.07,0,30.65.11,45.33,4.07,7.76,2.1,15.88,5.93,24.48,10,17,8,34.55,16.3,49.62,11.22a4.57,4.57,0,0,1,2.91,8.67A39.65,39.65,0,0,1,1329.21,1690.46Z" fill="#571519"/><path d="M1341.37,1685.5a4.57,4.57,0,0,1-3.84-7.06c-.85-1.12-3.39-3.28-10.61-7.15l-1.3-.7c-7.57-4.22-14.73-8.86-21.65-13.34-12.33-8-24-15.56-37.74-20.9a4.57,4.57,0,0,1,3.31-8.52c14.63,5.68,27.22,13.85,39.4,21.74,6.8,4.41,13.83,9,21.14,13l1.15.63c7.11,3.8,14.77,8.36,15.65,14.29a7.64,7.64,0,0,1-2.27,6.62A4.59,4.59,0,0,1,1341.37,1685.5Zm-3.49-6.48h0Z" fill="#571519"/><path d="M1348.77,1686.43a22.31,22.31,0,0,1-2.33-.11,4.57,4.57,0,0,1,1-9.09c5,.51,12.64-2.07,16.75-3.45l.85-.29a17.32,17.32,0,0,0,2.91-1.32c-3.63-4.69-10.31-8.8-16.28-12.48-2.92-1.8-5.67-3.49-8.07-5.23q-4.71-3.42-9.4-6.87c-18.91-13.9-36.77-27-58.12-35.34a4.57,4.57,0,1,1,3.32-8.51c22.46,8.73,41.66,22.84,60.22,36.48q4.65,3.43,9.34,6.84c2.12,1.53,4.73,3.14,7.5,4.84,7.67,4.73,16.37,10.09,20.65,17.54a6.3,6.3,0,0,1,.43,5.47c-1.57,4.15-7.23,6.45-9.59,7.24l-.84.29C1362.52,1684,1355.24,1686.43,1348.77,1686.43Zm20.37-12.43h0Z" fill="#571519"/><path d="M1373.52,1670.34a4.57,4.57,0,0,1,0-9.14c2.23,0,3.79-.91,4.3-2.48.41-1.27.12-3.33-2.07-4.92-7.31-5.28-14.67-10.94-22.47-16.94-19.57-15-39.81-30.59-59.67-40.47a4.57,4.57,0,1,1,4.07-8.18c20.66,10.27,41.25,26.1,61.17,41.41,7.74,6,15.05,11.57,22.25,16.78,5.07,3.67,7.2,9.61,5.41,15.13s-6.72,8.8-13,8.81Z" fill="#571519"/><path d="M1379.57,1653.8a4.57,4.57,0,0,1-1.46-8.9c2.41-.81,3.22-1.65,3.32-2,.58-2.16-4.62-8.14-6.85-10.69-1.23-1.41-2.35-2.71-3.21-3.84-6.91-9.17-18-16.95-28.76-24.47-4.39-3.06-8.53-6-12.37-8.93a48.91,48.91,0,0,1-5.79-5.62c-2.26-2.46-4.39-4.77-6.66-5.91-21-10.44-36.92-7.83-57.06-4.53-7.74,1.27-15.74,2.59-24.79,3.31-4.14.32-9.53.24-15.24.17-9.38-.13-20-.28-25.14,1.44a4.57,4.57,0,0,1-2.91-8.67c6.58-2.21,17.56-2.06,28.18-1.91,5.49.08,10.68.16,14.38-.15,8.68-.68,16.49-2,24-3.21,20.9-3.42,38.94-6.39,62.6,5.37,3.79,1.88,6.61,4.94,9.33,7.9a40.6,40.6,0,0,0,4.66,4.58c3.66,2.84,7.72,5.67,12,8.67,11.33,7.93,23.05,16.13,30.83,26.45.74,1,1.73,2.12,2.81,3.34,4.73,5.45,10.63,12.22,8.76,19.1-1,3.78-4.12,6.56-9.22,8.27A4.59,4.59,0,0,1,1379.57,1653.8Z" fill="#571519"/><path d="M1084.1,1628.87a4.7,4.7,0,0,1-1.37-.21,4.56,4.56,0,0,1-3-5.73c9.34-29.74,35-56.14,65.33-67.26a4.57,4.57,0,1,1,3.15,8.57c-27.78,10.19-51.24,34.3-59.76,61.43A4.57,4.57,0,0,1,1084.1,1628.87Z" fill="#571519"/><path d="M1830.17,1619.72c-5.72,0-11.29-2.68-16-10.49a4.57,4.57,0,1,1,7.83-4.7c5.58,9.27,11.28,7.11,25-1,1.72-1,3.45-2,5.19-3,19.41-10.79,44.39-29.19,53.21-55.67,6.51-19.52-1.34-41.43-8.27-60.75l-.91-2.56c-6.35-17.76-13.73-35.51-20.87-52.68-6-14.36-12.15-29.22-17.73-44.08-14.46-38.58-27.89-78.15-40.88-116.41-7.13-21-14.51-42.77-22-64.1l-1.61-4.63c-9.19-26.38-19.59-56.28-38.81-75.49-28-28-70.21-36.83-111-45.33-13.54-2.82-26.32-5.49-38.56-8.83-15.9-4.33-30.51-11.06-44.64-17.58-11.52-5.31-22.4-10.33-34-14.19a4.57,4.57,0,1,1,2.89-8.67c12.06,4,23.69,9.38,34.93,14.56,13.79,6.36,28,12.93,43.21,17.06,12,3.27,24.63,5.91,38,8.7,42.09,8.77,85.62,17.84,115.59,47.81,20.69,20.7,31.46,51.65,41,79l1.61,4.62c7.48,21.36,14.87,43.12,22,64.17,13,38.2,26.37,77.7,40.78,116.14,5.52,14.71,11.66,29.49,17.61,43.78,7.18,17.28,14.61,35.13,21,53.12l.91,2.54c7.06,19.7,15.86,44.22,8.34,66.73-9.74,29.26-36.62,49.2-57.44,60.76-1.68.94-3.35,1.92-5,2.89C1845.29,1615.2,1837.6,1619.72,1830.17,1619.72Z" fill="#571519"/><path d="M1726.47,1514a4.56,4.56,0,0,1-3.8-7.1c5.6-8.39,13-12.55,20.18-16.58a80,80,0,0,0,12.4-8c29-24.15,49.91-35.64,90.53-35.64a4.57,4.57,0,0,1,0,9.14c-37.8,0-57.42,10.81-84.68,33.53a87.63,87.63,0,0,1-13.77,9c-6.8,3.82-12.68,7.12-17,13.68A4.56,4.56,0,0,1,1726.47,1514Z" fill="#571519"/><path d="M1759.23,1620.28a4.57,4.57,0,0,1-.11-9.14c13.67-.34,22.2-4.56,25.36-12.53,6-15.17-7.43-41.45-19.72-53.61-11.32-11.19-35.55-21.9-48.76-18.43-4,1.06-6.38,3.28-7.41,7a4.57,4.57,0,0,1-8.8-2.47c1.92-6.83,6.71-11.43,13.87-13.32,17-4.48,44,7.34,57.53,20.76,14.14,14,29.57,43.84,21.79,63.48-3.19,8-11.61,17.74-33.63,18.3Z" fill="#571519"/><path d="M1770.25,1630c-3.49,0-6.36-.12-8.17-.27-7.44-.61-15.13-2-15.78-7.71a4.57,4.57,0,0,1,8.51-2.78c5.47,2.51,32.33,2.75,46.47-2.54,5.09-1.9,5.6-3.51,5.61-3.52,6.71-23.51-5.67-51.87-20.93-69.55-15.42-17.87-35.66-27.58-55.73-27.07-4.48.15-7.12,2.39-11.11,5.77-1.38,1.18-2.83,2.4-4.45,3.62a4.57,4.57,0,1,1-5.5-7.3c1.47-1.1,2.78-2.22,4-3.29,4.45-3.77,9-7.68,16.72-7.93,22.81-.81,45.72,10.25,63,30.23,16.86,19.54,30.45,51.25,22.8,78C1812.23,1627.73,1785.37,1630,1770.25,1630Zm-14.87-9h0Z" fill="#571519"/><path d="M1611.32,1659.29a13.9,13.9,0,0,1-10-3.89c-8.31-8.07-5.55-25.15-4.92-28.5,1.18-6.21,1.18-12.4,1.18-19,0-2.6,0-5.22.08-7.86.49-17.29,17.48-38.83,26.6-50.4,12.62-16,35.7-16.73,58-17.45,17.63-.57,35.85-1.15,46.68-9.6a4.57,4.57,0,1,1,5.62,7.21c-13.18,10.27-32.92,10.91-52,11.53-21.16.68-41.15,1.33-51.13,14-7.87,10-24.24,30.73-24.64,45-.08,2.55-.08,5.09-.08,7.61,0,6.69,0,13.6-1.34,20.66-1.44,7.54-1.1,16.92,2.31,20.24.85.82,2.4,1.81,6.07,1a4.57,4.57,0,0,1,2,8.92A20.69,20.69,0,0,1,1611.32,1659.29Z" fill="#571519"/><path d="M1626.53,1662.86a13.76,13.76,0,0,1-7.53-2.15c-5.08-3.24-7.49-9.49-6.46-16.73,2.39-16.72,9.82-31.32,17-45.45,5.88-11.56,11.43-22.48,14.46-34.49a4.57,4.57,0,0,1,8.86,2.23c-3.28,13-9.32,24.9-15.18,36.41-7.15,14.07-13.91,27.37-16.09,42.6-.51,3.58.36,6.47,2.33,7.73s5.2.8,8.46-1.33c10.08-6.54,18.5-17.13,25-31.48a4.57,4.57,0,1,1,8.32,3.78c-7.25,16-16.79,27.86-28.36,35.37A20.1,20.1,0,0,1,1626.53,1662.86Z" fill="#571519"/><path d="M1664.56,1666.57a17.27,17.27,0,0,1-8.76-2.32,14.78,14.78,0,0,1-7.38-14.19c.87-14.3,9.79-30.93,15.7-41.94,2.59-4.83,5.56-9.66,8.45-14.32,4.81-7.8,9.79-15.85,13-24a4.57,4.57,0,1,1,8.51,3.31c-3.47,8.94-8.67,17.36-13.7,25.5-2.95,4.76-5.72,9.25-8.18,13.84-5.53,10.3-13.88,25.88-14.63,38.18a5.78,5.78,0,0,0,2.87,5.74,9.13,9.13,0,0,0,9.33-.47c14.42-9.35,24.94-26.06,35.11-42.22,6.08-9.65,12.36-19.63,19.38-27.78a4.57,4.57,0,0,1,6.93,6c-6.57,7.64-12.4,16.89-18.57,26.69-10.71,17-21.77,34.57-37.88,45A18.72,18.72,0,0,1,1664.56,1666.57Z" fill="#571519"/><path d="M1701,1655.59a20.48,20.48,0,0,1-9.46-1.9,9.63,9.63,0,0,1-5.16-6.57,4.57,4.57,0,1,1,8.92-2c0,.08,0,.21.51.46,3.7,2,14.14.17,18.39-1.53,4.73-1.91,8.1-6,11.66-10.33a80.29,80.29,0,0,1,5.73-6.48c5.18-5.08,11.15-8.85,16.93-12.49,2.86-1.82,5.73-3.62,8.46-5.58a42.71,42.71,0,0,1,3.86-2.24c6.59-3.56,20.31-11,23.4-22.36a4.57,4.57,0,1,1,8.82,2.39c-4.11,15.19-20.16,23.85-27.88,28-1.31.71-2.33,1.24-2.88,1.63-2.91,2.09-6,4-8.9,5.87-5.62,3.55-10.93,6.91-15.41,11.29a73.52,73.52,0,0,0-5.07,5.76c-3.94,4.8-8.41,10.23-15.31,13A51.34,51.34,0,0,1,1701,1655.59Z" fill="#571519"/><path d="M1584.09,1640.27c-4.71,0-9.36-1-12.73-3.21-5.16-3.32-7.13-8.82-5.41-15.08,1.63-5.9,8-9.63,12.68-12.35,1-.57,1.9-1.11,2.66-1.61a54,54,0,0,0,16.43-17.33,4.57,4.57,0,0,1,7.78,4.81,63,63,0,0,1-19.21,20.17c-.87.58-1.92,1.19-3.06,1.86-2.93,1.71-7.83,4.56-8.47,6.87-.81,3,.26,4.14,1.55,5,4.45,2.87,13.92,2,17.24-.76a4.57,4.57,0,1,1,5.86,7C1595.74,1638.69,1589.87,1640.27,1584.09,1640.27Z" fill="#571519"/><path d="M1170,1566.74a4.58,4.58,0,0,1-4.38-3.26c-3.62-12.09-21.19-86.31-35.56-170.38-3.53-20.64-6.6-42.31-9.58-63.25-6.13-43.19-11.92-84-19-94a4.57,4.57,0,1,1,7.48-5.26c7.94,11.3,13,44.61,20.57,98,3,20.88,6,42.48,9.54,63,14.08,82.39,31.85,157.75,35.31,169.3a4.57,4.57,0,0,1-4.38,5.88Z" fill="#571519"/><path d="M1763.3,1482.23a4.52,4.52,0,0,1-1.44-.23c-16.25-5.42-23.93-31.09-30.1-51.71-2.35-7.85-4.57-15.26-6.74-19.6-2.88-5.77-5.87-11.64-8.91-17.6-34-66.8-72.64-142.51-36-215.71a4.57,4.57,0,1,1,8.18,4.09c-34.54,69.07,2.94,142.6,36,207.47,3,6,6,11.88,8.94,17.66,2.52,5.05,4.74,12.47,7.31,21.07,5.28,17.62,12.5,41.74,24.24,45.66a4.57,4.57,0,0,1-1.45,8.9Z" fill="#571519"/><path d="M1656.7,1541.81a5.63,5.63,0,0,1-.58,0,4.57,4.57,0,0,1-4-5.12c5.93-46.22,14.27-89.05,22.34-130.48,4-20.28,8-41.25,11.76-62.22a4.53,4.53,0,0,1,5.3-3.7,4.57,4.57,0,0,1,3.7,5.3c-3.73,21-7.83,42-11.79,62.37-8,41.28-16.36,84-22.24,129.89A4.57,4.57,0,0,1,1656.7,1541.81Z" fill="#571519"/><path d="M1037,1515.61a4.57,4.57,0,0,1-1.32-8.94c7.57-2.29,14.42-23.36,18.1-34.68,1.55-4.76,2.89-8.87,4.13-11.67,16.12-36.54,37.68-74.26,62.35-109.11a4.57,4.57,0,1,1,7.46,5.29c-24.32,34.35-45.57,71.52-61.45,107.51-1,2.38-2.32,6.28-3.79,10.81-5.36,16.45-12,36.94-24.16,40.6A4.68,4.68,0,0,1,1037,1515.61Z" fill="#571519"/><path d="M1400.9,1214.32c-9.73,0-21.71-3.41-25.82-7.24-4.57-4.25-4-11.64-3.62-17,.08-1.15.17-2.18.17-3,0-2.51-.39-6-.8-9.78-1.48-13.52-3.32-30.35,7-37.81h0c4.05-2.92,9.08-1.89,13.53-1a27.08,27.08,0,0,0,4.75.73c1.44,0,3.44-.19,5.66-.39,7.82-.68,14.12-1.07,18.18.81,12.06,5.62,6.23,25.11,2.37,38-.8,2.67-1.55,5.19-1.79,6.51s-.39,2.94-.58,4.85c-.84,8.28-1.89,18.6-7.94,22.82C1409.47,1213.58,1405.42,1214.32,1400.9,1214.32Zm-17.71-67.46h0c-6,4.34-4.43,18.83-3.27,29.4.43,4,.85,7.77.85,10.78,0,1-.09,2.29-.2,3.69-.18,2.51-.62,8.4.74,9.66,3.73,3.48,22.06,6.3,25.46,3.92,2.62-1.82,3.61-11.57,4.08-16.26.23-2.17.43-4.1.68-5.52.33-1.85,1.08-4.35,2-7.53,2-6.78,7.43-24.81,2.53-27.09-2.16-1-9.54-.34-13.51,0-2.54.22-4.83.42-6.47.42a34.13,34.13,0,0,1-6.6-.91C1387.72,1147.07,1384,1146.3,1383.19,1146.86Z" fill="#571519"/><path d="M1384.83,1142.49a4.56,4.56,0,0,1-3.23-1.34l-1.61-1.59c-4.16-4.1-8.08-8-11.2-14.2a4.57,4.57,0,0,1,8.18-4.09c2.43,4.87,5.53,7.92,9.44,11.78l1.65,1.64a4.57,4.57,0,0,1-3.23,7.8Z" fill="#571519"/><path d="M1369.55,1161.07a4.55,4.55,0,0,1-2-.48,44.33,44.33,0,0,1-20-20,4.57,4.57,0,1,1,8.17-4.09,35.32,35.32,0,0,0,15.88,15.88,4.57,4.57,0,0,1-2,8.65Z" fill="#571519"/><path d="M1412.71,1145.81a4.57,4.57,0,0,1-3.23-7.8c5.24-5.25,9.4-11,14-17.9a4.57,4.57,0,1,1,7.6,5.07,123.65,123.65,0,0,1-15.18,19.29A4.56,4.56,0,0,1,1412.71,1145.81Z" fill="#571519"/><path d="M1425.32,1161.07a4.57,4.57,0,1,1,0-9.13c2.64-.17,10-9.09,13.84-16.73a4.57,4.57,0,1,1,8.18,4.09C1447.23,1139.51,1436.32,1161.07,1425.32,1161.07Z" fill="#571519"/><path d="M1354.29,1606h-.17a4.56,4.56,0,0,1-4.4-4.73c.12-3,11.55-301.7,16.61-358.44.68-7.62,3.59-16.31,6.15-24a97.81,97.81,0,0,0,3.3-11,4.57,4.57,0,1,1,9,1.61,97.44,97.44,0,0,1-3.62,12.34c-2.4,7.19-5.13,15.34-5.71,21.89-5,56.52-16.47,355-16.58,358A4.58,4.58,0,0,1,1354.29,1606Z" fill="#571519"/><path d="M1434.61,1625a4.58,4.58,0,0,1-4.56-4.38c-4.2-100.85-15.61-365.07-17.84-376.48a230.66,230.66,0,0,0-9.1-31.13,4.57,4.57,0,0,1,8.58-3.14,238.56,238.56,0,0,1,9.49,32.52c2.83,14.41,17.39,363,18,377.85a4.57,4.57,0,0,1-4.37,4.76Z" fill="#571519"/><path d="M2467.1,1626.05H1814a4.57,4.57,0,0,1,0-9.14H2467.1a4.57,4.57,0,1,1,0,9.14Z" fill="#571519"/><path d="M1564.46,1626.05H1378.93a4.57,4.57,0,0,1,0-9.14h185.53a4.57,4.57,0,0,1,0,9.14Z" fill="#571519"/><path d="M929.88,1617.6,1239.69,1637s-3.76,7.66-12.82,16-8.78,11.69-24.12,14.3-259,37.78-259,37.78Z" fill="#c8c8c8" fill-rule="evenodd"/><path d="M281.26,1221.05l553.68,21.78a9.13,9.13,0,0,1,9.14,9.14l106.19,442.89a9.14,9.14,0,0,1-9.14,9.14l-553.69-21.78a9.14,9.14,0,0,1-9.14-9.14L272.12,1230.19A9.14,9.14,0,0,1,281.26,1221.05Z" fill="#c8c8c8" fill-rule="evenodd"/><path d="M565.75,1463c0-23.73,18.08-43,40.37-43s40.37,19.25,40.37,43-18.07,43-40.37,43S565.75,1486.74,565.75,1463Z" fill="#fff" fill-rule="evenodd"/><path d="M941.13,1708.57l-553.86-21.78h0a13.67,13.67,0,0,1-13.51-13.11L267.67,1231.25a4.72,4.72,0,0,1-.12-1.06,13.73,13.73,0,0,1,13.71-13.71h.18l553.68,21.78h0a13.67,13.67,0,0,1,13.51,13.11l106.07,442.42a4.29,4.29,0,0,1,.13,1.07A13.73,13.73,0,0,1,941.13,1708.57ZM276.71,1229.74l106,442.28a4.79,4.79,0,0,1,.12,1.06,4.57,4.57,0,0,0,4.57,4.57l553.87,21.78a4.53,4.53,0,0,0,4.37-4.12L839.64,1253a4.82,4.82,0,0,1-.13-1.07,4.58,4.58,0,0,0-4.57-4.57l-553.75-21.77A4.57,4.57,0,0,0,276.71,1229.74Z" fill="#571519"/><path d="M947,1709.06a4.57,4.57,0,0,1-.61-9.1c2-.27,201.38-27.55,256-38.07,10.81-2.09,20.7-11.32,26.94-18.47l-278.65,44a4.57,4.57,0,1,1-1.42-9l290-45.77a4.57,4.57,0,0,1,4.55,7c-.71,1.1-17.75,27-39.7,31.26-54.87,10.57-254.5,37.88-256.51,38.16A4.4,4.4,0,0,1,947,1709.06Z" fill="#571519"/><path d="M1238.86,1640.8h-.28L933,1622.41a4.57,4.57,0,0,1,.54-9.12l305.62,18.38a4.57,4.57,0,0,1-.27,9.13Z" fill="#571519"/><path d="M1656.94,860.94s-2.26-18.68-7.71-28.5-14.09-10.79-14.09-10.79,8.65-1,14.09-10.79,7.71-28.5,7.71-28.5,2.26,18.68,7.71,28.5,14.08,10.79,14.08,10.79-8.64,1-14.08,10.79S1656.94,860.94,1656.94,860.94Z" fill="#fff" fill-rule="evenodd"/><path d="M1602.41,993s-1.57-13-5.36-19.85-9.81-7.51-9.81-7.51,6-.67,9.81-7.51,5.36-19.85,5.36-19.85,1.58,13,5.37,19.85,9.81,7.51,9.81,7.51-6,.67-9.81,7.51S1602.41,993,1602.41,993Z" fill="#fff" fill-rule="evenodd"/><path d="M1576.45,724.19s-1.58-13-5.37-19.84-9.81-7.51-9.81-7.51,6-.67,9.81-7.51,5.37-19.84,5.37-19.84,1.56,13,5.36,19.84,9.81,7.51,9.81,7.51-6,.67-9.81,7.51S1576.45,724.19,1576.45,724.19Z" fill="#fff" fill-rule="evenodd"/><path d="M1191.63,929.13s-2.26-18.68-7.71-28.5-14.09-10.79-14.09-10.79,8.65-1,14.09-10.78,7.71-28.51,7.71-28.51,2.26,18.69,7.71,28.51,14.09,10.78,14.09,10.78-8.65,1-14.09,10.79S1191.63,929.13,1191.63,929.13Z" fill="#fff" fill-rule="evenodd"/><path d="M1184.67,748.26s-1.56-13-5.36-19.84-9.81-7.51-9.81-7.51,6-.68,9.81-7.51,5.36-19.85,5.36-19.85,1.58,13,5.37,19.85,9.81,7.51,9.81,7.51-6,.67-9.81,7.51S1184.67,748.26,1184.67,748.26Z" fill="#fff" fill-rule="evenodd"/></svg>