<svg xmlns="http://www.w3.org/2000/svg" viewBox="0 0 2745 1830"><path d="M1.5,1h2742V1829H1.5Z" fill="#7d38ce" fill-rule="evenodd"/><path d="M2332.83,816.2a4.57,4.57,0,0,1-2.29-8.53,261.18,261.18,0,0,0,36.93-25.46,4.57,4.57,0,1,1,5.87,7,270.75,270.75,0,0,1-38.22,26.37A4.53,4.53,0,0,1,2332.83,816.2ZM1315.89,805.84a4.57,4.57,0,0,1-2.25-8.54c13.46-7.61,26.38-15.65,38.41-23.9a4.57,4.57,0,0,1,5.17,7.53c-12.24,8.41-25.39,16.59-39.08,24.32A4.59,4.59,0,0,1,1315.89,805.84Zm1084.89-49.46a4.56,4.56,0,0,1-3.83-7,175.6,175.6,0,0,0,18.93-40.18,4.57,4.57,0,0,1,8.67,2.87,184.51,184.51,0,0,1-19.93,42.27A4.54,4.54,0,0,1,2400.78,756.38ZM1391,754.11A4.57,4.57,0,0,1,1388,746c11.3-9.51,22.15-19.57,33.15-30.73a4.57,4.57,0,1,1,6.51,6.41c-11.2,11.37-22.25,21.62-33.78,31.32A4.56,4.56,0,0,1,1391,754.11Zm64.3-64.7a4.56,4.56,0,0,1-3.47-7.54c10.16-11.81,20-23.83,29.08-35a4.57,4.57,0,1,1,7.1,5.76c-9.15,11.28-19,23.35-29.25,35.24A4.55,4.55,0,0,1,1455.25,689.41Zm974.93-18.79a4.12,4.12,0,0,1-.6,0,4.57,4.57,0,0,1-3.94-5.12,283.45,283.45,0,0,0,2.31-36.3q0-4.39-.06-8.64a4.57,4.57,0,1,1,9.14-.15q.06,4.32.06,8.79a290.87,290.87,0,0,1-2.39,37.48A4.57,4.57,0,0,1,2430.18,670.62Zm-917-51.8a4.58,4.58,0,0,1-3.53-7.47c10.87-13.24,20.26-24.37,29.53-35a4.58,4.58,0,0,1,6.9,6c-9.23,10.57-18.55,21.63-29.36,34.79A4.55,4.55,0,0,1,1513.18,618.82Zm478.87-35.53a4.56,4.56,0,0,1-.89-.09c-16.93-3.33-28.76-15.56-33.33-34.45a4.57,4.57,0,1,1,8.89-2.15c3.73,15.44,12.79,25,26.21,27.63a4.57,4.57,0,0,1-.88,9.06Zm435.52-3.61a4.59,4.59,0,0,1-4.45-3.52c-1-4.42-2.3-8.86-3.75-13.21a224,224,0,0,0-11.8-28.55,4.57,4.57,0,1,1,8.18-4.07A230.53,230.53,0,0,1,2428,560.06c1.54,4.6,2.88,9.31,4,14a4.57,4.57,0,0,1-3.4,5.5A4.7,4.7,0,0,1,2427.57,579.68Zm-391.94-6.32a4.57,4.57,0,0,1-2.39-8.47,77.82,77.82,0,0,0,26.18-26.3q1.51-2.55,2.86-5.06a4.57,4.57,0,0,1,8,4.32q-1.42,2.67-3,5.38A86,86,0,0,1,2038,572.69,4.59,4.59,0,0,1,2035.63,573.36Zm-462.3-23.26a4.51,4.51,0,0,1-3.15-1.26,4.57,4.57,0,0,1-.16-6.46c10.4-10.92,21.59-21.66,33.27-31.91a4.57,4.57,0,1,1,6,6.86c-11.48,10.08-22.47,20.63-32.68,31.35A4.53,4.53,0,0,1,1573.33,550.1Zm390.26-43.05a5,5,0,0,1-1.2-.16,4.57,4.57,0,0,1-3.22-5.61c4-14.69,11.35-28.76,21.89-41.83a4.57,4.57,0,0,1,7.12,5.74c-9.75,12.07-16.54,25-20.19,38.48A4.56,4.56,0,0,1,1963.59,507.05Zm423.87-8.78a4.56,4.56,0,0,1-3.63-1.79,250.53,250.53,0,0,0-30.42-32.9,4.57,4.57,0,0,1,6.14-6.78,260.26,260.26,0,0,1,31.53,34.11,4.58,4.58,0,0,1-3.62,7.36Zm-308.4-1.43H2079a4.58,4.58,0,0,1-4.51-4.64v-.92c0-13.88-4.75-26.68-14.11-38a4.57,4.57,0,1,1,7.05-5.81c10.75,13,16.2,27.8,16.2,43.85v1.05A4.58,4.58,0,0,1,2079.06,496.84Zm-437.15-7a4.56,4.56,0,0,1-2.72-8.24c12.35-9.13,25.19-17.81,38.17-25.82a4.57,4.57,0,1,1,4.81,7.78c-12.78,7.88-25.41,16.42-37.55,25.39A4.58,4.58,0,0,1,1641.91,489.81Zm77.75-47.89a4.57,4.57,0,0,1-2.05-8.65c13.93-7,28.1-13.31,42.13-18.77a4.57,4.57,0,0,1,3.31,8.52c-13.76,5.36-27.67,11.55-41.34,18.42A4.56,4.56,0,0,1,1719.66,441.92Zm600.54-4.87a4.54,4.54,0,0,1-2.46-.72,285.82,285.82,0,0,0-39.63-21.18,4.57,4.57,0,0,1,3.67-8.38,296.65,296.65,0,0,1,40.9,21.87,4.57,4.57,0,0,1-2.48,8.41Zm-302-.95a4.57,4.57,0,0,1-2.62-8.31q2.54-1.79,5.16-3.51a233.19,233.19,0,0,0-36.7-13.61,4.57,4.57,0,0,1,2.51-8.79,234.38,234.38,0,0,1,43.29,16.72,251.45,251.45,0,0,1,26.35-13.54,4.57,4.57,0,1,1,3.7,8.36,232.18,232.18,0,0,0-39.07,21.85A4.45,4.45,0,0,1,2018.2,436.1ZM1804.76,409a4.57,4.57,0,0,1-1.19-9,376.07,376.07,0,0,1,45.26-9.37,4.57,4.57,0,1,1,1.28,9.06,366.29,366.29,0,0,0-44.16,9.13A4.38,4.38,0,0,1,1804.76,409Zm135.82-7.67a5,5,0,0,1-.67-.05,388.15,388.15,0,0,0-45-4,4.56,4.56,0,0,1-4.44-4.69,4.61,4.61,0,0,1,4.7-4.44,395.74,395.74,0,0,1,46.09,4.09,4.57,4.57,0,0,1-.67,9.09Zm296.25-.85a4.69,4.69,0,0,1-1.17-.15,284.64,284.64,0,0,0-44.21-8,4.57,4.57,0,1,1,.91-9.1,293,293,0,0,1,45.63,8.27,4.57,4.57,0,0,1-1.16,9Zm-135.65-1.66a4.57,4.57,0,0,1-1.12-9c5.18-1.32,10.36-2.48,15.4-3.43a261.07,261.07,0,0,1,30.49-3.93,4.61,4.61,0,0,1,4.87,4.25,4.56,4.56,0,0,1-4.24,4.87,249.75,249.75,0,0,0-29.42,3.79c-4.85.92-9.84,2-14.84,3.31A4.45,4.45,0,0,1,2101.18,398.84Z" fill="#a376e5"/><path d="M2085.27,880c-14.44,0-28.71-.69-42.42-2a4.57,4.57,0,0,1,.89-9.09c13.42,1.31,27.39,2,41.53,2l3.62,0h0a4.57,4.57,0,0,1,0,9.14Zm49.27-2.52a4.57,4.57,0,0,1-.45-9.12c14.78-1.48,29.87-3.64,44.85-6.41a4.57,4.57,0,1,1,1.67,9c-15.23,2.83-30.58,5-45.61,6.53Zm-136.35-6.66a4.4,4.4,0,0,1-1-.11c-9.58-2.16-19-4.73-28-7.62q-8.2-2.65-16.3-5.37a4.57,4.57,0,1,1,2.92-8.66q8,2.7,16.19,5.33c8.71,2.81,17.86,5.3,27.17,7.4a4.57,4.57,0,0,1-1,9Zm226.15-9.94a4.57,4.57,0,0,1-1.19-9c14.67-4,29.22-8.52,43.24-13.56a4.57,4.57,0,1,1,3.09,8.6c-14.25,5.12-29,9.76-43.95,13.78A4.48,4.48,0,0,1,2224.34,860.88Zm-313-18.38a4.5,4.5,0,0,1-1.64-.31c-14.68-5.64-29-11.56-42.42-17.59a4.57,4.57,0,1,1,3.73-8.34c13.32,6,27.44,11.81,42,17.41a4.57,4.57,0,0,1-1.64,8.83ZM2310,829.27a4.57,4.57,0,0,1-2-8.66c7.84-3.91,15.44-8.06,22.59-12.33a4.57,4.57,0,0,1,4.68,7.85c-7.34,4.38-15.14,8.64-23.18,12.66A4.52,4.52,0,0,1,2310,829.27Zm-481.9-24.17a4.53,4.53,0,0,1-2.12-.53c-13.71-7.19-27.15-14.84-40-22.75a4.57,4.57,0,1,1,4.81-7.78c12.63,7.8,25.89,15.35,39.41,22.44a4.57,4.57,0,0,1-2.13,8.62Zm-77.67-48a4.51,4.51,0,0,1-2.67-.87c-12.32-8.91-24.53-18.43-36.28-28.3a4.57,4.57,0,0,1,5.87-7c11.59,9.73,23.62,19.11,35.76,27.89a4.57,4.57,0,0,1-2.68,8.28Zm-70-58.68a4.51,4.51,0,0,1-3.19-1.3,442.6,442.6,0,0,1-31.23-34,4.57,4.57,0,0,1,7-5.85,434.19,434.19,0,0,0,30.58,33.28,4.57,4.57,0,0,1-3.19,7.84Zm-58.82-69.79a4.55,4.55,0,0,1-3.71-1.89c-7.76-10.71-15.82-22.32-26.17-37.65a4.57,4.57,0,1,1,7.58-5.11c10.28,15.24,18.3,26.78,26,37.4a4.56,4.56,0,0,1-3.69,7.25Zm-51.54-75.49a4.56,4.56,0,0,1-3.79-2c-10.32-15.31-18.33-26.86-26-37.43a4.57,4.57,0,0,1,7.41-5.35c7.7,10.65,15.76,22.27,26.14,37.67a4.58,4.58,0,0,1-1.24,6.35A4.52,4.52,0,0,1,1570.07,553.16Zm-54-73.74a4.59,4.59,0,0,1-3.52-1.64A421,421,0,0,0,1482,444.53a4.57,4.57,0,1,1,6.37-6.55,429.73,429.73,0,0,1,31.25,33.95,4.56,4.56,0,0,1-3.51,7.49Zm-65.82-63a4.58,4.58,0,0,1-2.63-.83,221.56,221.56,0,0,0-39-21.81,4.57,4.57,0,0,1,3.65-8.38,230.69,230.69,0,0,1,40.63,22.72,4.57,4.57,0,0,1-2.64,8.3Zm-83-36.94a4.92,4.92,0,0,1-1.13-.14,330.87,330.87,0,0,0-44.33-8,4.57,4.57,0,0,1,1-9.08,341.13,341.13,0,0,1,45.55,8.22,4.57,4.57,0,0,1-1.12,9Z" fill="#fff"/><path d="M1013.2,440.29a4.56,4.56,0,0,1-2.51-8.38A331.63,331.63,0,0,1,1050.92,409a4.57,4.57,0,1,1,3.9,8.26,324.17,324.17,0,0,0-39.11,22.3A4.57,4.57,0,0,1,1013.2,440.29Zm82.23-39.22a4.57,4.57,0,0,1-1.73-8.8c7.25-3,14.4-6.08,21.55-9.21,6.8-3,13.6-5.94,20.45-8.76a4.57,4.57,0,0,1,3.48,8.46c-6.8,2.79-13.53,5.73-20.27,8.68-7.21,3.15-14.44,6.31-21.76,9.29A4.54,4.54,0,0,1,1095.43,401.07Zm85.4-32.08a4.57,4.57,0,0,1-.95-9,167.55,167.55,0,0,1,19.75-3c8.74-.8,17.66-1.32,26.49-1.56a4.57,4.57,0,1,1,.24,9.14c-8.64.23-17.36.74-25.91,1.52a157.75,157.75,0,0,0-18.66,2.86A4.47,4.47,0,0,1,1180.83,369Zm100.69-2.26-.5,0q-4.76-.52-9.5-.93a4.57,4.57,0,0,1,.77-9.11c3.24.28,6.48.59,9.73.95a4.57,4.57,0,0,1-.5,9.11Z" fill="#a376e5"/><path d="M1406.71,1164.73a4.56,4.56,0,0,1-3.41-7.61,206.23,206.23,0,0,0,25.85-36.36,4.57,4.57,0,0,1,8,4.46,215,215,0,0,1-27,38A4.56,4.56,0,0,1,1406.71,1164.73Zm44.48-79.07a4.57,4.57,0,0,1-4.36-5.94,222.44,222.44,0,0,0,9.05-43.78,4.57,4.57,0,1,1,9.1.94,233.19,233.19,0,0,1-9.43,45.58A4.58,4.58,0,0,1,1451.19,1085.66Zm9.26-90.3a4.56,4.56,0,0,1-4.54-4.09,199.39,199.39,0,0,0-9.51-43.56,4.57,4.57,0,0,1,8.65-3,208,208,0,0,1,9.94,45.56,4.56,4.56,0,0,1-4.06,5Zm-29.58-85.57a4.58,4.58,0,0,1-3.84-2.08A168.93,168.93,0,0,0,1398.2,874a4.57,4.57,0,1,1,6.11-6.8,178.31,178.31,0,0,1,30.39,35.53,4.57,4.57,0,0,1-3.83,7.06Zm-67.19-60.39a4.48,4.48,0,0,1-2.09-.51l-1.82-.92A271.54,271.54,0,0,0,1320,832a4.57,4.57,0,0,1,2.75-8.72,280.73,280.73,0,0,1,41.07,16.56l1.92,1a4.57,4.57,0,0,1-2.1,8.63ZM1277,821.61a4,4,0,0,1-.76-.07,441,441,0,0,0-44.92-5.08,4.57,4.57,0,1,1,.59-9.12,447.87,447.87,0,0,1,45.85,5.19,4.57,4.57,0,0,1-.76,9.08ZM1056.42,818q-3.8,0-7.59,0a4.57,4.57,0,0,1,0-9.14h0c13.61.13,27.38-.07,45.53-.57a4.45,4.45,0,0,1,4.69,4.44,4.57,4.57,0,0,1-4.44,4.7C1079.79,817.83,1067.63,818,1056.42,818Zm-53.2-1.92h-.37A412.84,412.84,0,0,1,957.08,810a4.57,4.57,0,1,1,1.74-9,404.34,404.34,0,0,0,44.77,6,4.57,4.57,0,0,1-.37,9.12Zm137-.14a4.57,4.57,0,0,1-.13-9.14c12.62-.38,29.23-.83,45.83-.83a4.57,4.57,0,0,1,0,9.14c-16.47,0-33,.44-45.55.83ZM915,795.19a4.45,4.45,0,0,1-2.19-.57,141.64,141.64,0,0,1-36.87-29.13,4.57,4.57,0,1,1,6.77-6.15,132.69,132.69,0,0,0,34.49,27.27,4.57,4.57,0,0,1-2.2,8.58Zm-60.62-66.27a4.59,4.59,0,0,1-4.17-2.68,155.07,155.07,0,0,1-12.69-45.15,4.57,4.57,0,0,1,9.08-1.12,145.58,145.58,0,0,0,11.94,42.49,4.57,4.57,0,0,1-2.28,6A4.49,4.49,0,0,1,854.34,728.92ZM843.47,639.6a4.24,4.24,0,0,1-.86-.08,4.56,4.56,0,0,1-3.64-5.34A151.59,151.59,0,0,1,842.68,619a193.93,193.93,0,0,1,11.45-29.09,4.57,4.57,0,0,1,8.22,4,184.39,184.39,0,0,0-10.92,27.71A141.89,141.89,0,0,0,848,635.88,4.56,4.56,0,0,1,843.47,639.6Zm38.74-81.92a4.58,4.58,0,0,1-3.66-7.31,346.19,346.19,0,0,1,30.28-35,4.57,4.57,0,1,1,6.52,6.41,337.41,337.41,0,0,0-29.48,34.08A4.56,4.56,0,0,1,882.21,557.68Zm63.48-65.52a4.57,4.57,0,0,1-3-8c12.74-10.93,24.38-20.43,35.59-29.05a4.57,4.57,0,1,1,5.57,7.25c-11.08,8.51-22.6,17.91-35.21,28.74A4.54,4.54,0,0,1,945.69,492.16Z" fill="#fff"/><path d="M1266.38,1227.07c-6,0-12.21-.22-18.57-.65a4.58,4.58,0,0,1,.62-9.13c6.22.43,12.44.65,18.13.64a213.06,213.06,0,0,0,26.61-1.6,4.57,4.57,0,1,1,1.13,9.07A189.37,189.37,0,0,1,1266.38,1227.07Zm-63.53-6.71a5,5,0,0,1-.85-.08c-6.58-1.24-13.32-2.63-20.61-4.25-7.92-1.76-16.09-3.77-24.28-6a4.57,4.57,0,0,1,2.38-8.83c8.06,2.18,16.1,4.16,23.89,5.89,7.19,1.6,13.83,3,20.31,4.19a4.57,4.57,0,0,1-.84,9.06Zm135-6.19a4.57,4.57,0,0,1-1.71-8.81,166.39,166.39,0,0,0,33.32-18.12c1.78-1.24,3.52-2.52,5.26-3.81a4.57,4.57,0,0,1,5.48,7.31c-1.81,1.36-3.64,2.68-5.5,4a175.37,175.37,0,0,1-35.15,19.11A4.4,4.4,0,0,1,1337.88,1214.17Zm-223.24-17.38a4.5,4.5,0,0,1-1.48-.24c-13.24-4.52-27.33-9.7-43.07-15.82a4.57,4.57,0,1,1,3.31-8.52c15.63,6.08,29.6,11.21,42.71,15.69a4.57,4.57,0,0,1-1.47,8.89Zm-538.2-1.24a4.56,4.56,0,0,1-4.25-6.27,143.69,143.69,0,0,1,24.25-40.2,4.57,4.57,0,1,1,6.94,6,134.23,134.23,0,0,0-22.7,37.64A4.56,4.56,0,0,1,576.44,1195.55ZM1029.33,1164a4.58,4.58,0,0,1-1.73-.33l-7.88-3.23c-11.46-4.7-22.92-9.39-34.42-14a4.57,4.57,0,0,1,3.4-8.49c11.52,4.61,23,9.31,34.48,14l7.88,3.22a4.57,4.57,0,0,1-1.73,8.8Zm-85-33.59a4.74,4.74,0,0,1-1.56-.27c-15.42-5.6-29.52-10.31-43.09-14.39a4.57,4.57,0,0,1,2.63-8.76c13.74,4.13,28,8.89,43.58,14.55a4.57,4.57,0,0,1-1.56,8.87Zm-309.72-3.21a4.57,4.57,0,0,1-2.41-8.46,198.13,198.13,0,0,1,42.42-19.44,4.57,4.57,0,1,1,2.86,8.68A189.3,189.3,0,0,0,637,1126.54,4.58,4.58,0,0,1,634.62,1127.22Zm222.17-22.75a4.13,4.13,0,0,1-1-.11c-11.08-2.39-22.16-4.39-32.94-5.93q-5.75-.83-11.67-1.48a4.57,4.57,0,1,1,1-9.08q6.07.68,11.95,1.51c11,1.57,22.29,3.61,33.59,6a4.57,4.57,0,0,1-1,9ZM720.53,1098a4.57,4.57,0,0,1-.65-9.09,342.51,342.51,0,0,1,46.18-3.42h0a4.57,4.57,0,0,1,0,9.14,333.7,333.7,0,0,0-44.94,3.32A5.16,5.16,0,0,1,720.53,1098Z" fill="#a376e5"/><path d="M714.34,1332.77a4.57,4.57,0,0,1-.07-9.14c2.49,0,5-.18,7.32-.42a179,179,0,0,0,36.19-7.4,4.57,4.57,0,0,1,2.77,8.71,187.51,187.51,0,0,1-38,7.79c-2.62.26-5.33.41-8.08.46Zm-45-7.22a4.72,4.72,0,0,1-1.38-.21,191.91,191.91,0,0,1-42.5-19.49,4.57,4.57,0,1,1,4.81-7.77,183.07,183.07,0,0,0,40.45,18.54,4.57,4.57,0,0,1-1.38,8.93Zm131-20.15a4.57,4.57,0,0,1-2.46-8.42,181.45,181.45,0,0,0,34.13-28.46,4.57,4.57,0,0,1,6.66,6.27,190.21,190.21,0,0,1-35.87,29.88A4.52,4.52,0,0,1,800.39,1305.4ZM593,1277.28a4.53,4.53,0,0,1-3.47-1.6c-11.43-13.34-18.73-27.55-21.7-42.23a4.57,4.57,0,1,1,8.95-1.81c2.66,13.13,9.28,25.95,19.69,38.1a4.57,4.57,0,0,1-3.47,7.54Zm269.82-37.48a4.5,4.5,0,0,1-2.35-.66,4.56,4.56,0,0,1-1.55-6.27,246,246,0,0,0,19.42-40.39,4.57,4.57,0,0,1,8.55,3.21,253.16,253.16,0,0,1-20.15,41.9A4.57,4.57,0,0,1,862.84,1239.8Zm32.21-85.09a4.59,4.59,0,0,1-4.49-5.45,287.26,287.26,0,0,0,5.16-44.65,4.57,4.57,0,1,1,9.13.33,295.79,295.79,0,0,1-5.32,46.08A4.57,4.57,0,0,1,895.05,1154.71Zm3.22-91a4.57,4.57,0,0,1-4.53-4A249.74,249.74,0,0,0,884.2,1016a4.57,4.57,0,1,1,8.71-2.76,258.93,258.93,0,0,1,9.9,45.39,4.57,4.57,0,0,1-4,5.11A3.86,3.86,0,0,1,898.27,1063.74ZM870.7,977.15a4.57,4.57,0,0,1-4-2.43A265.77,265.77,0,0,0,842.43,937a4.57,4.57,0,0,1,7.24-5.58,274.61,274.61,0,0,1,25.07,39.06,4.56,4.56,0,0,1-4,6.7Zm-55.64-71.9a4.53,4.53,0,0,1-3-1.17,233,233,0,0,0-36-26.57,4.57,4.57,0,1,1,4.69-7.84,240.29,240.29,0,0,1,37.39,27.61,4.57,4.57,0,0,1-3.06,8ZM459.93,894a110.91,110.91,0,0,1-35.14-5.57,4.57,4.57,0,0,1,2.84-8.69,104.59,104.59,0,0,0,43.26,4.6,4.57,4.57,0,1,1,.85,9.1C467.75,893.81,463.77,894,459.93,894Zm55.8-10.82a4.57,4.57,0,0,1-1.46-8.9c9.75-3.28,19.41-7,29.63-10.88,4.33-1.65,8.68-3.32,13.07-5a4.57,4.57,0,1,1,3.21,8.56c-4.37,1.63-8.71,3.29-13,4.94-10.32,3.94-20.06,7.66-30,11A4.65,4.65,0,0,1,515.73,883.18ZM386.36,866.77a4.55,4.55,0,0,1-2.84-1,166.24,166.24,0,0,1-32-34.22,4.57,4.57,0,1,1,7.47-5.28,156.66,156.66,0,0,0,30.21,32.34,4.57,4.57,0,0,1-2.85,8.15Zm350.74-8a4.44,4.44,0,0,1-1.51-.26,221.84,221.84,0,0,0-43.45-10.48,4.57,4.57,0,1,1,1.24-9.06,231,231,0,0,1,45.24,10.92,4.57,4.57,0,0,1-1.52,8.88ZM602.05,853.3a4.57,4.57,0,0,1-1.09-9,256.51,256.51,0,0,1,45.94-7,4.57,4.57,0,0,1,.54,9.13,247.36,247.36,0,0,0-44.29,6.78A4.1,4.1,0,0,1,602.05,853.3ZM333.51,793.4a4.57,4.57,0,0,1-4.24-2.86,211.43,211.43,0,0,1-12.6-44.89,4.57,4.57,0,1,1,9-1.47,202.63,202.63,0,0,0,12.06,42.94,4.58,4.58,0,0,1-2.53,6A4.48,4.48,0,0,1,333.51,793.4ZM319.25,704l-.39,0a4.57,4.57,0,0,1-4.17-4.94,152.36,152.36,0,0,1,10.85-45.65,4.57,4.57,0,1,1,8.44,3.51,143.06,143.06,0,0,0-10.18,42.91A4.58,4.58,0,0,1,319.25,704Zm30.36-85.43a4.72,4.72,0,0,1-1.92-.42,4.58,4.58,0,0,1-2.22-6.07c6.24-13.46,14.1-28.61,28.41-38.15a4.57,4.57,0,1,1,5.07,7.6c-11.1,7.4-18.1,19.1-25.19,34.39A4.56,4.56,0,0,1,349.61,618.52Z" fill="#fff"/><path d="M851,591.91a66.15,66.15,0,0,1-12.16-1.24,4.57,4.57,0,0,1,1.68-9A57.62,57.62,0,0,0,851,582.77c10.33,0,18.72-3.78,27.2-12.26a4.57,4.57,0,0,1,6.46,6.46C874.44,587.16,863.74,591.91,851,591.91Zm-55.45-13a4.46,4.46,0,0,1-1.24-.17c-18.38-5.18-31.9-9.71-43.81-14.69a4.57,4.57,0,1,1,3.52-8.43c11.56,4.83,24.75,9.25,42.77,14.32a4.57,4.57,0,0,1-1.24,9Zm-82.58-37.43a4.57,4.57,0,0,1-2.91-1.05,122.85,122.85,0,0,1-15.3-15c-4.6.5-9.19.81-13.63.88a4.57,4.57,0,1,1-.15-9.14c2.32,0,4.69-.14,7.07-.31a140.36,140.36,0,0,1-8-12.61,4.57,4.57,0,1,1,8-4.5,128.26,128.26,0,0,0,10.65,16,131.41,131.41,0,0,0,25.7-6.2,4.57,4.57,0,1,1,3.12,8.59,135,135,0,0,1-21.82,5.73,113.32,113.32,0,0,0,10.25,9.57,4.57,4.57,0,0,1-2.91,8.1Zm-349-8.64a4.57,4.57,0,0,1-3.84-2.08,129.32,129.32,0,0,1-17.9-43.57,4.57,4.57,0,0,1,8.94-1.9,120.06,120.06,0,0,0,16.64,40.5,4.57,4.57,0,0,1-3.84,7.05Zm272.86-16.09a4.64,4.64,0,0,1-1.88-.4c-14.08-6.37-26.48-15.52-37.91-28a4.57,4.57,0,1,1,6.73-6.18c10.58,11.51,22,20,35,25.81a4.57,4.57,0,0,1-1.89,8.73Zm122-28a4.5,4.5,0,0,1-1.92-.42,4.58,4.58,0,0,1-2.23-6.07A70,70,0,0,0,761,453a73.2,73.2,0,0,0-1.1-12.63,4.57,4.57,0,1,1,9-1.59A81.69,81.69,0,0,1,770.11,453a79.37,79.37,0,0,1-7.19,33.14A4.58,4.58,0,0,1,758.77,488.77Zm-91-24.7a4.57,4.57,0,0,1-4.52-3.91,102.34,102.34,0,0,1-1-14.83A106,106,0,0,1,667,412.88a4.57,4.57,0,0,1,8.69,2.84,98.28,98.28,0,0,0-4.43,29.61,94.17,94.17,0,0,0,.94,13.51,4.56,4.56,0,0,1-3.85,5.18A3.85,3.85,0,0,1,667.72,464.07Zm-94-11.19a4.6,4.6,0,0,1-3.91-2.18c-2.35-3.84-4.66-7.7-7-11.57-5.42-9.05-11-18.4-17-27.13a4.57,4.57,0,1,1,7.55-5.14c6.1,8.94,11.77,18.42,17.25,27.58,2.3,3.84,4.59,7.68,6.93,11.49a4.57,4.57,0,0,1-1.51,6.28A4.62,4.62,0,0,1,573.71,452.88ZM345.2,445.37a4.89,4.89,0,0,1-.66-.05,4.57,4.57,0,0,1-3.87-5.17A123.81,123.81,0,0,1,356,395.56a4.57,4.57,0,0,1,7.89,4.62,114.82,114.82,0,0,0-14.21,41.27A4.57,4.57,0,0,1,345.2,445.37Zm398.1-40.9a4.54,4.54,0,0,1-3.1-1.21,59,59,0,0,0-24.13-13.51,38.08,38.08,0,0,0-10.4-1.57,22.07,22.07,0,0,0-3.28.19,4.57,4.57,0,1,1-1-9.08,37.16,37.16,0,0,1,4.28-.25h.06A47,47,0,0,1,718.59,381a68,68,0,0,1,27.81,15.58,4.57,4.57,0,0,1-3.1,7.92ZM519.49,380a4.5,4.5,0,0,1-2.87-1A103.06,103.06,0,0,0,478,359.35a4.57,4.57,0,0,1,2.39-8.82,112,112,0,0,1,42,21.29,4.57,4.57,0,0,1-2.87,8.13Zm-128.4-10.38a4.57,4.57,0,0,1-2.48-8.41,98,98,0,0,1,44.95-15.07,4.57,4.57,0,0,1,.8,9.11,88.91,88.91,0,0,0-40.81,13.65A4.54,4.54,0,0,1,391.09,369.57Z" fill="#a376e5"/><path d="M498.57,1189a4.56,4.56,0,0,1-3.66-1.82,134.44,134.44,0,0,1-11.22-17.53,4.57,4.57,0,1,1,8.07-4.29,124.83,124.83,0,0,0,10.46,16.33,4.57,4.57,0,0,1-3.65,7.31Zm-21.4-60.79h-.25a4.56,4.56,0,0,1-4.32-4.8c.83-15.26,6.21-30.31,16-44.72a4.57,4.57,0,0,1,7.56,5.14c-8.84,13-13.7,26.5-14.43,40.07A4.57,4.57,0,0,1,477.17,1128.23Zm512.92-57.39a167.23,167.23,0,0,1-36.64-4.26,4.57,4.57,0,1,1,2-8.92,151.43,151.43,0,0,0,44.06,3.71,4.57,4.57,0,0,1,.65,9.11C996.84,1070.72,993.46,1070.84,990.09,1070.84Zm53.77-11.58a4.57,4.57,0,0,1-1.9-8.73c3.49-1.58,7-3.35,10.38-5.27,7.63-4.29,15-12.38,20.64-22.77a4.57,4.57,0,0,1,8,4.38c-6.59,12.05-15,21.16-24.18,26.35-3.63,2-7.36,3.94-11.07,5.63A4.57,4.57,0,0,1,1043.86,1059.26ZM524,1053.05a4.57,4.57,0,0,1-2.82-8.17,257.24,257.24,0,0,1,39.19-25,4.57,4.57,0,1,1,4.25,8.09,248.86,248.86,0,0,0-37.8,24.13A4.54,4.54,0,0,1,524,1053.05Zm387-.37a4.48,4.48,0,0,1-1.71-.33c-14.79-6-29.39-12.91-41.91-18.92a4.57,4.57,0,1,1,4-8.24c12.4,6,26.84,12.79,41.4,18.69a4.57,4.57,0,0,1-1.73,8.8Zm190.5-32.14a103.09,103.09,0,0,1-12.61-.75,4.57,4.57,0,1,1,1.12-9.07c13.17,1.62,28.25.33,43.55-3.72a4.57,4.57,0,0,1,2.34,8.84A135.05,135.05,0,0,1,1101.49,1020.54Zm-273.9-5.21A4.62,4.62,0,0,1,826,1015a379.78,379.78,0,0,0-43.06-13.5,4.57,4.57,0,1,1,2.2-8.87,390.15,390.15,0,0,1,44.11,13.82,4.57,4.57,0,0,1-1.63,8.84Zm-223.3-5.27a4.57,4.57,0,0,1-1.57-8.86,353.3,353.3,0,0,1,44.46-13,4.57,4.57,0,1,1,2,8.92,344.27,344.27,0,0,0-43.3,12.69A4.7,4.7,0,0,1,604.29,1010.06Zm445.09-9.88a4.57,4.57,0,0,1-3.48-1.6c-.33-.39-.66-.79-1-1.2-5.76-7.2-10.46-25.42-10.46-40.61,0-1.8.07-3.56.21-5.27a4.57,4.57,0,1,1,9.1.74c-.11,1.47-.17,3-.17,4.53,0,13.93,4.47,29.92,8.47,34.92l.79,1a4.56,4.56,0,0,1-3.48,7.53Zm127.07-2.42a4.57,4.57,0,0,1-2.49-8.41c11.38-7.36,20.24-15.85,25.62-24.55q2-3.24,3.76-6.59a4.57,4.57,0,1,1,8.09,4.24c-1.27,2.43-2.63,4.81-4.08,7.16-6.09,9.84-15.92,19.32-28.43,27.42A4.56,4.56,0,0,1,1176.45,997.76Zm-437.36-4.29-.54,0a313.87,313.87,0,0,0-45-2.09,4.57,4.57,0,0,1-.25-9.14,324.75,324.75,0,0,1,46.27,2.15,4.57,4.57,0,0,1-.52,9.11Zm349.34-8a4.57,4.57,0,0,1-4.57-4.55c0-11.35-2.8-26.95-15.71-36.83a4.57,4.57,0,1,1,5.55-7.25c12.38,9.46,19.24,25.11,19.3,44a4.56,4.56,0,0,1-4.55,4.58Zm132.94-63.86a5,5,0,0,1-.77-.07,4.56,4.56,0,0,1-3.74-5.27,267.68,267.68,0,0,0,3.3-44.76,4.57,4.57,0,1,1,9.14,0,276.24,276.24,0,0,1-3.43,46.29A4.57,4.57,0,0,1,1221.37,921.6Z" fill="#fff"/><path d="M720.12,582.34l-.48,0L491.81,558.23a4.57,4.57,0,0,1,1-9.09L720.6,573.23a4.57,4.57,0,0,1-.48,9.11Z" fill="#fff"/><path d="M579.76,1175.05a4.56,4.56,0,0,1-4.17-6.42L778.17,711.41a4.57,4.57,0,0,1,8.35,3.71L583.94,1172.34A4.56,4.56,0,0,1,579.76,1175.05Z" fill="#fff"/><path d="M1166.75,770a4.53,4.53,0,0,1-2.68-.87l-123.45-89.33a4.57,4.57,0,1,1,5.36-7.4l123.45,89.33a4.57,4.57,0,0,1-2.68,8.27Z" fill="#a376e5"/><path d="M1376.52,1045a4.58,4.58,0,0,1-4.2-2.75l-42.16-97.36a4.57,4.57,0,0,1,8.39-3.63l42.16,97.36a4.57,4.57,0,0,1-2.38,6A4.69,4.69,0,0,1,1376.52,1045Z" fill="#a376e5"/><path d="M1304.26,704.78a4.19,4.19,0,0,1-.93-.09,4.58,4.58,0,0,1-3.56-5.4l49.73-241.55a4.57,4.57,0,1,1,9,1.84l-49.72,241.56A4.57,4.57,0,0,1,1304.26,704.78Z" fill="#fff"/><path d="M2156.37,551.23a5,5,0,0,1-1-.11L1485.88,401.25a4.57,4.57,0,0,1,2-8.92L2157.36,542.2a4.57,4.57,0,0,1-1,9Z" fill="#fff"/><path d="M1534.1,1129.33a4.57,4.57,0,0,1-1.94-8.71l735.68-344.25a4.57,4.57,0,0,1,3.87,8.28L1536,1128.9A4.62,4.62,0,0,1,1534.1,1129.33Z" fill="#fff"/><path d="M645.69,1246.47a4.57,4.57,0,0,1-.7-9.08l688.67-107.1a4.57,4.57,0,0,1,1.4,9l-688.67,107.1A5.49,5.49,0,0,1,645.69,1246.47Z" fill="#fff"/><path d="M1061.52,535.07a4.57,4.57,0,0,1-2.36-8.49L1290.9,387.15a4.57,4.57,0,1,1,4.71,7.83L1063.87,534.42A4.58,4.58,0,0,1,1061.52,535.07Z" fill="#fff"/><path d="M1407.73,807.14a4.57,4.57,0,0,1-1.11-9l748.89-188.39a4.57,4.57,0,0,1,2.23,8.87L1408.85,807A4.3,4.3,0,0,1,1407.73,807.14Z" fill="#a376e5"/><path d="M408.62,1264.05c0-74,60.47-134,135.07-134s135.07,60,135.07,134-60.48,134-135.07,134S408.62,1338.06,408.62,1264.05Z" fill="#7d38ce" fill-rule="evenodd"/><path d="M543.69,1402.62c-77,0-139.64-62.16-139.64-138.57s62.64-138.58,139.64-138.58,139.64,62.16,139.64,138.58S620.69,1402.62,543.69,1402.62Zm0-268c-72,0-130.5,58.07-130.5,129.44s58.54,129.43,130.5,129.43,130.5-58.06,130.5-129.43S615.65,1134.61,543.69,1134.61Z" fill="#fff"/><path d="M495.05,1275.58a7.34,7.34,0,0,1,4.68-1.84,5.19,5.19,0,0,1,3.82,1.56,5.37,5.37,0,0,1,1.56,4,8.86,8.86,0,0,1-.71,3.11,76.07,76.07,0,0,1-5.31,7.16,37.84,37.84,0,0,1-6.45,6.09,33.1,33.1,0,0,1-7.72,4.25,25.46,25.46,0,0,1-9.28,1.63,31,31,0,0,1-13.95-3.12,34.17,34.17,0,0,1-10.91-8.5,38.05,38.05,0,0,1-7.08-12.68,48.38,48.38,0,0,1-2.48-15.65,37.59,37.59,0,0,1,1.56-11,63,63,0,0,1,5-11.91,40.5,40.5,0,0,1,6.72-9,47,47,0,0,1,8.93-6.94,86.15,86.15,0,0,1,11.54-5.74,61,61,0,0,1,7.87-2.83,26,26,0,0,1,6.87-1,14.94,14.94,0,0,1,8.92,2.83q4,2.83,7.51,9.63a8.12,8.12,0,0,1,.43,2.55,5.54,5.54,0,0,1-1.56,4.11,5.2,5.2,0,0,1-3.83,1.56,6.94,6.94,0,0,1-5-2.27,22.38,22.38,0,0,0-3.54-5.38,4.85,4.85,0,0,0-3.54-1.56,10.91,10.91,0,0,0-3.68.78c-1.42.52-3.21,1.16-5.39,1.91a66.15,66.15,0,0,0-10.34,5.18,37.4,37.4,0,0,0-8.71,7.36,33.74,33.74,0,0,0-6,10,35.58,35.58,0,0,0-2.2,12.89,32.68,32.68,0,0,0,1.56,10,29.75,29.75,0,0,0,4.47,8.79,22.07,22.07,0,0,0,7.15,6.23,20,20,0,0,0,9.77,2.33,14.68,14.68,0,0,0,6.1-1.27,21,21,0,0,0,5.24-3.4,34.13,34.13,0,0,0,4.39-4.68A54,54,0,0,0,495.05,1275.58Z" fill="#fff" fill-rule="evenodd"/><path d="M522.25,1275.16a7.19,7.19,0,0,1-4.6-2.13,5.49,5.49,0,0,1-1.49-3.68,5.64,5.64,0,0,1,1.63-3.9,6.77,6.77,0,0,1,4.89-1.91H538.4v-20.83a8.27,8.27,0,0,1,2.27-4.24,5.1,5.1,0,0,1,3.54-1.42,5.51,5.51,0,0,1,3.47,1.27,7.15,7.15,0,0,1,2.34,4v21.25h18.84a7.11,7.11,0,0,1,4,2.34,5.51,5.51,0,0,1,1.27,3.47,5.14,5.14,0,0,1-1.41,3.54,8.34,8.34,0,0,1-4.25,2.27H550v21.25a6.7,6.7,0,0,1-1.92,4.88,5.58,5.58,0,0,1-3.89,1.63,5.44,5.44,0,0,1-3.68-1.49,7.09,7.09,0,0,1-2.13-4.6v-21.67Z" fill="#fff" fill-rule="evenodd"/><path d="M591.39,1275.16a7.22,7.22,0,0,1-4.61-2.13,5.48,5.48,0,0,1-1.48-3.68,5.67,5.67,0,0,1,1.62-3.9,6.78,6.78,0,0,1,4.89-1.91h15.73v-20.83a8.26,8.26,0,0,1,2.26-4.24,5.1,5.1,0,0,1,3.54-1.42,5.51,5.51,0,0,1,3.47,1.27,7.15,7.15,0,0,1,2.34,4v21.25H638a7.12,7.12,0,0,1,4,2.34,5.52,5.52,0,0,1,1.28,3.47,5.15,5.15,0,0,1-1.42,3.54,8.26,8.26,0,0,1-4.25,2.27H619.15v21.25a6.7,6.7,0,0,1-1.91,4.88,5.62,5.62,0,0,1-3.9,1.63,5.46,5.46,0,0,1-3.68-1.49,7.14,7.14,0,0,1-2.12-4.6v-21.67Z" fill="#fff" fill-rule="evenodd"/><path d="M293.37,550.72c0-53.2,43.47-96.33,97.09-96.33s97.1,43.13,97.1,96.33-43.48,96.33-97.1,96.33S293.37,603.93,293.37,550.72Z" fill="#7d38ce" fill-rule="evenodd"/><path d="M390.46,651.62c-56.06,0-101.66-45.26-101.66-100.9s45.6-100.9,101.66-100.9,101.67,45.26,101.67,100.9S446.52,651.62,390.46,651.62Zm0-192.66c-51,0-92.52,41.16-92.52,91.76s41.5,91.76,92.52,91.76S483,601.32,483,550.72,441.48,459,390.46,459Z" fill="#fff"/><path d="M367.61,567.1a6.25,6.25,0,0,1,4-1.58,4.44,4.44,0,0,1,3.27,1.33,4.6,4.6,0,0,1,1.34,3.39,7.81,7.81,0,0,1-.61,2.67,65.36,65.36,0,0,1-4.54,6.12,31.94,31.94,0,0,1-5.52,5.21,28.13,28.13,0,0,1-6.61,3.64,21.61,21.61,0,0,1-7.93,1.39,26.66,26.66,0,0,1-11.94-2.66,29,29,0,0,1-9.33-7.28,32.48,32.48,0,0,1-6.06-10.84,41.22,41.22,0,0,1-2.12-13.4,32.17,32.17,0,0,1,1.33-9.45,54,54,0,0,1,4.24-10.18,34.58,34.58,0,0,1,5.76-7.69,40.1,40.1,0,0,1,7.63-5.94,72.75,72.75,0,0,1,9.88-4.91,52.29,52.29,0,0,1,6.73-2.43,22.43,22.43,0,0,1,5.88-.84,12.79,12.79,0,0,1,7.63,2.42q3.39,2.43,6.42,8.24a6.7,6.7,0,0,1,.37,2.18,4.76,4.76,0,0,1-1.34,3.52,4.44,4.44,0,0,1-3.27,1.33,5.88,5.88,0,0,1-4.24-1.94,19.42,19.42,0,0,0-3-4.6,4.17,4.17,0,0,0-3-1.33,9.2,9.2,0,0,0-3.15.66c-1.21.45-2.75,1-4.61,1.64a55.69,55.69,0,0,0-8.84,4.42,32.12,32.12,0,0,0-7.46,6.3,28.91,28.91,0,0,0-5.09,8.55,30.39,30.39,0,0,0-1.87,11,27.92,27.92,0,0,0,1.33,8.55,25.22,25.22,0,0,0,3.82,7.51,18.92,18.92,0,0,0,6.12,5.34,17.09,17.09,0,0,0,8.36,2,12.52,12.52,0,0,0,5.21-1.1,17.23,17.23,0,0,0,4.48-2.91,29,29,0,0,0,3.76-4A49.12,49.12,0,0,0,367.61,567.1Z" fill="#fff" fill-rule="evenodd"/><path d="M438.63,517.28a6,6,0,0,1,2.24-3.81,4.55,4.55,0,0,1,3.34-.91,4.87,4.87,0,0,1,3,1.75,5.71,5.71,0,0,1,1.22,4.18q-.61,4-1.09,7.94c-.33,2.63-.69,5.23-1.09,7.82h13.81a6.45,6.45,0,0,1,3.39,2.18,4.52,4.52,0,0,1,1,3,4.68,4.68,0,0,1-1.27,2.91,6.13,6.13,0,0,1-3.51,1.88H444.93c-.4,2.58-.74,5.13-1,7.63s-.63,5-1,7.51h13.94a6.61,6.61,0,0,1,3.39,2.19,4.57,4.57,0,0,1,1,3A4.68,4.68,0,0,1,460,567.4a6.28,6.28,0,0,1-3.52,1.88h-14.9c-.41,3.07-.81,6.11-1.21,9.14s-.81,6.09-1.21,9.15a6.2,6.2,0,0,1-2.43,3.16,4.45,4.45,0,0,1-5.88-.67,5.86,5.86,0,0,1-1.51-3.7c.4-2.83.78-5.67,1.15-8.54s.75-5.72,1.15-8.54H411.12c-.4,3.07-.83,6.11-1.27,9.14s-.87,6.09-1.28,9.15a6.13,6.13,0,0,1-2.42,3.16,4.45,4.45,0,0,1-5.88-.67,5.86,5.86,0,0,1-1.51-3.7c.4-2.83.79-5.67,1.15-8.54s.75-5.72,1.15-8.54H389.43a6,6,0,0,1-3.94-1.88,4.68,4.68,0,0,1-1.21-3.27,4.79,4.79,0,0,1,1.45-3.22,5.78,5.78,0,0,1,4.06-1.58h12.6q.62-3.75,1-7.51c.28-2.5.63-5.05,1-7.63H393.18a6,6,0,0,1-3.94-1.88A4.72,4.72,0,0,1,388,539a4.8,4.8,0,0,1,1.46-3.2,5.67,5.67,0,0,1,4.05-1.58h12.25c.4-2.83.78-5.63,1.15-8.42s.75-5.6,1.15-8.42a6,6,0,0,1,2.24-3.82,4.59,4.59,0,0,1,3.33-.92,4.92,4.92,0,0,1,3,1.77,5.68,5.68,0,0,1,1.22,4.18l-2.18,15.63h20.48q.6-4.25,1.21-8.48C437.82,522.94,438.23,520.11,438.63,517.28Zm-5.7,42.05q.61-3.75,1-7.51c.29-2.5.59-5.05.91-7.63H414.39c-.32,2.58-.65,5.13-1,7.63s-.64,5-1,7.51Z" fill="#fff" fill-rule="evenodd"/><path d="M1293.81,362.57c0-53.2,43.47-96.33,97.09-96.33s97.1,43.13,97.1,96.33-43.47,96.33-97.1,96.33S1293.81,415.77,1293.81,362.57Z" fill="#7d38ce" fill-rule="evenodd"/><path d="M1390.9,463.47c-56.05,0-101.66-45.26-101.66-100.9s45.61-100.9,101.66-100.9,101.67,45.27,101.67,100.9S1447,463.47,1390.9,463.47Zm0-192.66c-51,0-92.52,41.16-92.52,91.76s41.51,91.76,92.52,91.76,92.53-41.16,92.53-91.76S1441.92,270.81,1390.9,270.81Z" fill="#fff"/><path d="M1386.29,327a5.42,5.42,0,0,1,3.94,1.64,4.68,4.68,0,0,1,0,6.36,6.45,6.45,0,0,1-3.63,1.82c-1.45.08-3.11.12-5,.12h-4.84l.12,43.63a22,22,0,0,1-3.28,12,20.94,20.94,0,0,1-3.87,4.61,23.52,23.52,0,0,1-5,3.45,28.93,28.93,0,0,1-5.7,2.19,23.53,23.53,0,0,1-6,.78,21.34,21.34,0,0,1-7.94-1.51,16.72,16.72,0,0,1-6.6-4.79,16.92,16.92,0,0,1-1.33-1.7c-.65-.88-1.34-1.83-2.06-2.84s-1.38-2-1.94-2.85a5.76,5.76,0,0,1-.85-1.58,5.44,5.44,0,0,1-1.21-3.39,4.54,4.54,0,0,1,1.27-3.27,4.4,4.4,0,0,1,3.33-1.34,6.27,6.27,0,0,1,3.76,1.34,12.78,12.78,0,0,1,1.82,2.24c.48.77.92,1.53,1.33,2.3s.85,1.54,1.33,2.31a11.22,11.22,0,0,0,1.94,2.24,9.81,9.81,0,0,0,3.58,2.12,12.88,12.88,0,0,0,4.06.66,14.48,14.48,0,0,0,5.21-1,12.12,12.12,0,0,0,4.36-2.78,10.52,10.52,0,0,0,1.34-1.34,7.8,7.8,0,0,0,.78-1.15c.2-.36.41-.76.61-1.21s.42-1,.67-1.64q.6-4.72.78-9.45t.19-9.45c0-2.18,0-4.47-.06-6.85s-.09-4.83-.13-7.33-.1-5-.18-7.39-.16-4.73-.24-6.91q-7.15.24-14.18.24t-14.18.12a6,6,0,0,1-3.76-1.88,4.3,4.3,0,0,1-1.21-3.21q0-3.15,4.12-4.85,11.76-.12,24-.18t24.11-.3Z" fill="#fff" fill-rule="evenodd"/><path d="M1403.38,395a6.42,6.42,0,0,1-1.94-4.49,4.67,4.67,0,0,1,5-4.84,7.35,7.35,0,0,1,2.31.36,30.76,30.76,0,0,0,6.54,3.27,21.06,21.06,0,0,0,7.15,1.21,16,16,0,0,0,5.94-1.09,15.5,15.5,0,0,0,5-3.09,14.67,14.67,0,0,0,3.46-4.78,14.85,14.85,0,0,0,1.27-6.18,10.13,10.13,0,0,0-1.58-5.76,12.59,12.59,0,0,0-3.94-3.82,17.33,17.33,0,0,0-5.15-2.12,22.7,22.7,0,0,0-5.21-.67,27.33,27.33,0,0,0-4.06.31,30.92,30.92,0,0,0-4.06.9,6.37,6.37,0,0,0-1.39,1c-.36.36-.73.7-1.09,1a5,5,0,0,1-1.21.78,3.84,3.84,0,0,1-1.64.31,4.93,4.93,0,0,1-3.33-1.34,6.47,6.47,0,0,1-1.88-4.24q-.24-6.18-.37-12.36t-.36-12.6a5.33,5.33,0,0,1-1.82-4,5.49,5.49,0,0,1,1.46-3.64,5.28,5.28,0,0,1,4.24-1.7c.65,0,1.82,0,3.52-.06l6-.12,7.27-.12,7.21-.12,6-.12,3.45-.06a6,6,0,0,1,3.51,2.06,5.14,5.14,0,0,1,1.1,3.15,4.84,4.84,0,0,1-1.28,3.27,6.94,6.94,0,0,1-3.7,2.06q-6.78.24-13.39.24t-13.27.25c.09,2.58.16,5.19.24,7.81s.16,5.27.25,7.94a32.6,32.6,0,0,1,4.48-.91,35.57,35.57,0,0,1,4.61-.3,27.64,27.64,0,0,1,10.72,2,24.38,24.38,0,0,1,8.12,5.39,24.69,24.69,0,0,1,5.15,7.64,22.11,22.11,0,0,1,1.82,8.84,21.8,21.8,0,0,1-1.88,8.73,26.46,26.46,0,0,1-5.33,7.94,28,28,0,0,1-8.18,5.82,24.08,24.08,0,0,1-10.42,2.24,32,32,0,0,1-10.06-1.64A38.37,38.37,0,0,1,1403.38,395Z" fill="#fff" fill-rule="evenodd"/><path d="M1155.5,825.14c0-68.28,55.79-123.64,124.61-123.64s124.62,55.36,124.62,123.64-55.79,123.63-124.62,123.63S1155.5,893.41,1155.5,825.14Z" fill="#7d38ce" fill-rule="evenodd"/><path d="M1280.11,953.34c-71.23,0-129.18-57.51-129.18-128.2s58-128.21,129.18-128.21,129.19,57.52,129.19,128.21S1351.35,953.34,1280.11,953.34Zm0-247.27c-66.19,0-120,53.41-120,119.07s53.85,119.06,120,119.06,120.05-53.41,120.05-119.06S1346.31,706.07,1280.11,706.07Z" fill="#fff"/><path d="M1194.89,799.17a6.64,6.64,0,0,1,1.94-3.57,4.51,4.51,0,0,1,3-1.16,3.23,3.23,0,0,1,1.45.25,61.71,61.71,0,0,1,9.7-3.4,39.92,39.92,0,0,1,10.18-1.33,32.69,32.69,0,0,1,6.6.66A21.91,21.91,0,0,1,1234,793a23.93,23.93,0,0,1,5.94,4.36,27.25,27.25,0,0,1,4.48,5.88,30.19,30.19,0,0,1,2.85,6.85,26.43,26.43,0,0,1,1,7.27,23.79,23.79,0,0,1-3.75,13,32.15,32.15,0,0,1-9.82,9.88,28.64,28.64,0,0,1-13.33,4.3c-1,.09-2,.15-3,.19s-2,.06-2.85.06c-1.86,0-3.68-.08-5.45-.25s-3.55-.36-5.33-.6v10.42c0,3.88,0,7.35.12,10.42a5.81,5.81,0,0,1-1.64,4.19,4.86,4.86,0,0,1-3.33,1.39,4.66,4.66,0,0,1-3.15-1.28,6.09,6.09,0,0,1-1.82-3.93V841.46a1.81,1.81,0,0,1-.85-.24,6.9,6.9,0,0,1-2.67-2.3,5,5,0,0,1-.84-2.67,4.22,4.22,0,0,1,1.09-2.84,5.66,5.66,0,0,1,3.15-1.76Zm34.42,2.54a17.78,17.78,0,0,0-8.25-1.93,29.36,29.36,0,0,0-8.48,1.27,51.5,51.5,0,0,0-7.75,3v29.81a45.13,45.13,0,0,0,5.08.91,44.65,44.65,0,0,0,5.22.3,36.41,36.41,0,0,0,5.09-.36,46.38,46.38,0,0,0,7-1.76,14.83,14.83,0,0,0,6.13-3.94,18.42,18.42,0,0,0,3.63-5.82,17.35,17.35,0,0,0,1.21-6.3,17.58,17.58,0,0,0-2.24-8.66A16.44,16.44,0,0,0,1229.31,801.71Z" fill="#fff" fill-rule="evenodd"/><path d="M1311.24,827.16c2.33,0,3.85.57,4.54,1.7a7.36,7.36,0,0,1,0,7.51c-.69,1.14-2.21,1.74-4.54,1.82V861.7c0,2.51-.63,4.2-1.88,5.1a7,7,0,0,1-4.07,1.33,4.56,4.56,0,0,1-3.33-1.58,6.78,6.78,0,0,1-1.52-4.85V838.19h-33.08v23.39c0,2.51-.62,4.21-1.88,5.09a6.68,6.68,0,0,1-3.93,1.34,4.38,4.38,0,0,1-3.28-1.58,6.94,6.94,0,0,1-1.45-4.85V798.93a8.32,8.32,0,0,1,.6-3.4,4.92,4.92,0,0,1,1.64-2,6,6,0,0,1,2.24-1,11.91,11.91,0,0,1,2.3-.24,3.36,3.36,0,0,1,2.67,1.33,6.45,6.45,0,0,1,1.09,4.13v29.44h33.08V798.93a7.65,7.65,0,0,1,.67-3.4,5.63,5.63,0,0,1,1.64-2,5.41,5.41,0,0,1,2.24-1,12.86,12.86,0,0,1,2.37-.24,3.47,3.47,0,0,1,2.78,1.33,6.45,6.45,0,0,1,1.1,4.13Z" fill="#fff" fill-rule="evenodd"/><path d="M1326.63,799.17a6.63,6.63,0,0,1,1.93-3.57,4.51,4.51,0,0,1,3-1.16,3.27,3.27,0,0,1,1.46.25,61.71,61.71,0,0,1,9.7-3.4,39.9,39.9,0,0,1,10.17-1.33,32.79,32.79,0,0,1,6.61.66,22,22,0,0,1,6.24,2.37,23.93,23.93,0,0,1,5.94,4.36,27.25,27.25,0,0,1,4.48,5.88,30.65,30.65,0,0,1,2.85,6.85,26.43,26.43,0,0,1,1,7.27,23.71,23.71,0,0,1-3.76,13,32,32,0,0,1-9.81,9.88,28.68,28.68,0,0,1-13.34,4.3c-1,.09-2,.15-3,.19s-2,.06-2.85.06c-1.86,0-3.68-.08-5.45-.25s-3.56-.36-5.34-.6v10.42q0,5.82.13,10.42a5.81,5.81,0,0,1-1.64,4.19,4.86,4.86,0,0,1-3.34,1.39,4.7,4.7,0,0,1-3.15-1.28,6.13,6.13,0,0,1-1.82-3.93V841.46a1.87,1.87,0,0,1-.85-.24,6.87,6.87,0,0,1-2.66-2.3,4.91,4.91,0,0,1-.85-2.67,4.27,4.27,0,0,1,1.09-2.84,5.72,5.72,0,0,1,3.16-1.76Zm34.41,2.54a17.71,17.71,0,0,0-8.24-1.93,29.31,29.31,0,0,0-8.48,1.27,52,52,0,0,0-7.76,3v29.81a45.71,45.71,0,0,0,5.09.91,44.48,44.48,0,0,0,5.21.3,36.19,36.19,0,0,0,5.09-.36,46.5,46.5,0,0,0,7-1.76A14.8,14.8,0,0,0,1365,829a18.27,18.27,0,0,0,3.64-5.82,17.35,17.35,0,0,0,1.21-6.3,17.69,17.69,0,0,0-2.24-8.66A16.53,16.53,0,0,0,1361,801.71Z" fill="#fff" fill-rule="evenodd"/><path d="M1336.3,1123.77c0-53.2,43.47-96.32,97.1-96.32s97.09,43.12,97.09,96.32-43.47,96.34-97.09,96.34S1336.3,1177,1336.3,1123.77Z" fill="#7d38ce" fill-rule="evenodd"/><path d="M1433.4,1224.68c-56.06,0-101.67-45.27-101.67-100.91s45.61-100.9,101.67-100.9,101.66,45.27,101.66,100.9S1489.45,1224.68,1433.4,1224.68Zm0-192.67c-51,0-92.53,41.17-92.53,91.76s41.51,91.77,92.53,91.77,92.52-41.17,92.52-91.77S1484.42,1032,1433.4,1032Z" fill="#fff"/><path d="M1400.9,1151.28a6.27,6.27,0,0,1,1.34,3.76,4.26,4.26,0,0,1-1.34,3.21,4.73,4.73,0,0,1-3.39,1.27,7.73,7.73,0,0,1-3-.73q-3-2.18-6.78-5t-7.64-5.7q-3.88-2.89-7.64-5.75t-6.9-5a5.66,5.66,0,0,1-2-4,5.31,5.31,0,0,1,2.31-4.24l2.73-2.18c1.41-1.13,3.13-2.47,5.15-4s4.14-3.19,6.36-5,4.34-3.43,6.36-5,3.76-2.88,5.21-4.06,2.35-1.88,2.67-2.12a7.81,7.81,0,0,1,2.67-.61,4.6,4.6,0,0,1,3.39,1.34,4.44,4.44,0,0,1,1.33,3.27,6.27,6.27,0,0,1-1.58,4q-2.06,1.7-5.2,4.12t-6.55,5.09c-2.26,1.78-4.45,3.47-6.54,5.09s-3.84,3-5.22,4.12c1.62,1.21,3.5,2.61,5.64,4.18s4.3,3.19,6.49,4.85,4.34,3.27,6.48,4.85S1399.29,1150.06,1400.9,1151.28Z" fill="#fff" fill-rule="evenodd"/><path d="M1449.62,1076.5c1.3-2.1,2.87-3.15,4.73-3.15a4.68,4.68,0,0,1,3.27,1.34,4.51,4.51,0,0,1,1.46,3.51,7.54,7.54,0,0,1-.61,2.66q-9.09,21.21-18.24,42.18t-18.36,42.18a5.5,5.5,0,0,1-4.48,2.42,4.35,4.35,0,0,1-3.16-1.33,5.12,5.12,0,0,1-1.33-3.76v-.79a3.86,3.86,0,0,1,.12-.91q9.09-21.21,18.24-42.17T1449.62,1076.5Z" fill="#fff" fill-rule="evenodd"/><path d="M1472.53,1151.28q2.43-1.83,5.63-4.18c2.15-1.58,4.31-3.19,6.49-4.85s4.34-3.28,6.48-4.85,4-3,5.64-4.18q-2.07-1.7-5.21-4.12c-2.11-1.62-4.28-3.31-6.55-5.09s-4.44-3.48-6.54-5.09-3.84-3-5.22-4.12a6.36,6.36,0,0,1-1.57-4,4.44,4.44,0,0,1,1.33-3.27,4.62,4.62,0,0,1,3.4-1.34,7.76,7.76,0,0,1,2.66.61,30,30,0,0,1,2.73,2.12q2.12,1.77,5.15,4.06c2,1.54,4.14,3.19,6.36,5s4.35,3.44,6.37,5,3.73,2.87,5.15,4l2.72,2.18a5.3,5.3,0,0,1,2.3,4.24,5.67,5.67,0,0,1-1.93,4q-3,2.17-6.85,5l-7.69,5.75q-3.89,2.91-7.64,5.7t-6.79,5a7.15,7.15,0,0,1-3,.73,4.75,4.75,0,0,1-3.39-1.27,4.26,4.26,0,0,1-1.34-3.21A6.27,6.27,0,0,1,1472.53,1151.28Z" fill="#fff" fill-rule="evenodd"/><path d="M2155.85,577c0-128.08,104.66-231.91,233.75-231.91S2623.36,448.94,2623.36,577,2518.7,808.94,2389.6,808.94,2155.85,705.1,2155.85,577Z" fill="#7d38ce" fill-rule="evenodd"/><path d="M2389.6,813.5c-131.41,0-238.32-106.08-238.32-236.48s106.91-236.48,238.32-236.48S2627.93,446.62,2627.93,577,2521,813.5,2389.6,813.5Zm0-463.82c-126.37,0-229.18,102-229.18,227.34s102.81,227.34,229.18,227.34,229.19-102,229.19-227.34S2516,349.68,2389.6,349.68Z" fill="#fff"/><path d="M2219.78,559.46a3.37,3.37,0,0,1,2.43,1,2.67,2.67,0,0,1,.79,2.06,2.7,2.7,0,0,1-.75,1.87,3.94,3.94,0,0,1-2.24,1.12c-.9.05-1.93.08-3.07.08h-3l.07,26.95a13.65,13.65,0,0,1-2,7.42,12.88,12.88,0,0,1-2.39,2.84,15,15,0,0,1-3.11,2.14,18,18,0,0,1-3.52,1.35,14.59,14.59,0,0,1-3.71.49,13.26,13.26,0,0,1-4.9-.94,10.37,10.37,0,0,1-4.08-3,10.72,10.72,0,0,1-.83-1l-1.27-1.76c-.45-.62-.85-1.21-1.2-1.76a3.62,3.62,0,0,1-.52-1,3.38,3.38,0,0,1-.75-2.1,2.79,2.79,0,0,1,.79-2,2.7,2.7,0,0,1,2.06-.82,3.87,3.87,0,0,1,2.32.82,8.33,8.33,0,0,1,1.12,1.39c.3.47.57,1,.82,1.42s.53,1,.83,1.42a6.85,6.85,0,0,0,1.2,1.39,5.86,5.86,0,0,0,2.2,1.3,7.78,7.78,0,0,0,2.51.42,8.92,8.92,0,0,0,3.22-.6,7.71,7.71,0,0,0,2.7-1.72,6.3,6.3,0,0,0,.82-.83,4.78,4.78,0,0,0,.49-.71c.12-.22.25-.47.37-.75s.27-.61.42-1c.24-1.94.41-3.89.48-5.84s.12-3.89.12-5.84c0-1.34,0-2.76,0-4.23s0-3-.08-4.53-.06-3.07-.11-4.57-.1-2.92-.15-4.27q-4.43.15-8.76.15t-8.76.08a3.69,3.69,0,0,1-2.32-1.16,2.66,2.66,0,0,1-.75-2c0-1.29.85-2.29,2.54-3q7.27-.07,14.83-.11t14.9-.19Z" fill="#fff" fill-rule="evenodd"/><path d="M2262.53,602.06a4.06,4.06,0,0,1-.74,2.33,2.63,2.63,0,0,1-1.65,1.08,2.79,2.79,0,0,1-1.95-.34,4.06,4.06,0,0,1-1.64-1.79,63.63,63.63,0,0,0-1.28-6.93c-.55-2.27-1.19-4.53-1.94-6.77l-19.84.14-.34,0a1.48,1.48,0,0,0-.34,0q-1.87,6.36-3.37,13.18a3.56,3.56,0,0,1-1.73,2.1,2.79,2.79,0,0,1-3.78-1.12,3.81,3.81,0,0,1-.33-2.7q2.47-10.86,6-21.23a134.26,134.26,0,0,1,8.73-20.26,2.59,2.59,0,0,1,2.09-1.79,2.68,2.68,0,0,1,1.57-.12,2.78,2.78,0,0,1,1.28.71c.05,0,.07,0,.07,0s0,0,.08,0a35.9,35.9,0,0,1,6.51,8.46q2.63,4.72,4.79,9.59c.55,1.15,1.06,2.29,1.54,3.44s.94,2.3,1.38,3.45l4-.08a4,4,0,0,1,2.1,1.35,2.8,2.8,0,0,1,.63,1.84,2.84,2.84,0,0,1-.78,1.79,3.77,3.77,0,0,1-2.17,1.16h-1.57c.64,2.05,1.21,4.1,1.68,6.18A55.22,55.22,0,0,1,2262.53,602.06Zm-20.66-36q-2.1,4.28-3.86,8.69t-3.25,8.91l16.32-.15q-1-2.25-2-4.42c-.68-1.45-1.36-2.9-2.06-4.34s-1.6-2.93-2.4-4.42A29.69,29.69,0,0,0,2241.87,566.05Z" fill="#fff" fill-rule="evenodd"/><path d="M2298.78,560.81a3.44,3.44,0,0,1,2.92-1.95,2.9,2.9,0,0,1,2,.82,2.81,2.81,0,0,1,.9,2.17,4.52,4.52,0,0,1-.38,1.65,166,166,0,0,0-9.47,19.62q-4.16,10.26-8,20.29a3.79,3.79,0,0,1-1.27,1.8,2.93,2.93,0,0,1-1.73.6,3,3,0,0,1-1.61-.52,4,4,0,0,1-1.3-1.58q-4-10.26-7.83-20.44t-7.75-20.44a1.48,1.48,0,0,0,0-.34,1.42,1.42,0,0,1,0-.34,3.27,3.27,0,0,1,.87-2.43,2.72,2.72,0,0,1,2-.86,3.5,3.5,0,0,1,2.92,1.72q1.93,5,3.52,9.29t3.07,8.27c1,2.67,2,5.32,3,7.94s2.05,5.43,3.14,8.42c.56-1.44,1.14-2.91,1.77-4.38s1.23-2.93,1.83-4.38q2.63-6.36,5.32-12.65A117.18,117.18,0,0,1,2298.78,560.81Z" fill="#fff" fill-rule="evenodd"/><path d="M2345,602.06a4.14,4.14,0,0,1-.75,2.33,2.63,2.63,0,0,1-1.65,1.08,2.8,2.8,0,0,1-1.95-.34,4.12,4.12,0,0,1-1.64-1.79,63.61,63.61,0,0,0-1.27-6.93q-.82-3.4-1.95-6.77l-19.84.14-.34,0a1.48,1.48,0,0,0-.34,0q-1.87,6.36-3.37,13.18a3.55,3.55,0,0,1-1.72,2.1,2.78,2.78,0,0,1-3.78-1.12,3.76,3.76,0,0,1-.34-2.7q2.48-10.86,6-21.23a134.2,134.2,0,0,1,8.72-20.26,2.62,2.62,0,0,1,2.09-1.79,2.72,2.72,0,0,1,1.58-.12,2.8,2.8,0,0,1,1.27.71c.05,0,.07,0,.07,0s0,0,.08,0a35.94,35.94,0,0,1,6.52,8.46q2.61,4.72,4.79,9.59c.55,1.15,1.06,2.29,1.53,3.44s.94,2.3,1.39,3.45l4-.08a4,4,0,0,1,2.1,1.35,2.81,2.81,0,0,1,.64,1.84,2.86,2.86,0,0,1-.79,1.79,3.74,3.74,0,0,1-2.17,1.16h-1.57c.65,2.05,1.21,4.1,1.68,6.18A57.52,57.52,0,0,1,2345,602.06Zm-20.67-36q-2.1,4.28-3.86,8.69t-3.25,8.91l16.32-.15q-1-2.25-2-4.42t-2.06-4.34c-.8-1.45-1.6-2.93-2.4-4.42A28.86,28.86,0,0,0,2324.31,566.05Z" fill="#fff" fill-rule="evenodd"/><path d="M2378.75,598.85a5,5,0,0,1-.45-2,2.77,2.77,0,0,1,.79-2.06,2.65,2.65,0,0,1,2-.79,3.88,3.88,0,0,1,2.32.83,11.82,11.82,0,0,0,3,2.5A15.26,15.26,0,0,0,2390,599a22.34,22.34,0,0,0,3.89.78,34.08,34.08,0,0,0,3.85.23,17.46,17.46,0,0,1,1.77-.56,3.34,3.34,0,0,0,.78-.27,3.79,3.79,0,0,0,.67-.44c.25-.2.73-.55,1.42-1.05.26-.35.48-.68.68-1s.43-.63.67-1l.68-2v-1c0-.33,0-.69-.07-1.09a7.22,7.22,0,0,0-.38-1c-.15-.32-.3-.66-.45-1-.3-.35-.59-.67-.86-1l-.86-1c-.45-.25-.9-.52-1.35-.82a5.09,5.09,0,0,0-1.5-.67,33.72,33.72,0,0,0-5.65-1.46,46,46,0,0,1-4.86-1,15,15,0,0,1-4.32-2,14.66,14.66,0,0,1-4-4.34,3.64,3.64,0,0,1-.45-.9,8.46,8.46,0,0,1-.15-1c-.05-.4-.09-.78-.11-1.16s0-.73,0-1.08a10.2,10.2,0,0,1,.26-2.4,8.92,8.92,0,0,1,.79-2,12.87,12.87,0,0,1,1.34-2c.56-.67,1.2-1.4,2-2.2a10.88,10.88,0,0,1,2.92-2.21,16.48,16.48,0,0,1,3.45-1.35,23.47,23.47,0,0,1,3.7-.68c1.28-.12,2.51-.18,3.71-.18h1.08a6,6,0,0,1,1,.08,10.09,10.09,0,0,1,3.26.82,22.58,22.58,0,0,0,3.18,1.12,3.51,3.51,0,0,1,1.72,2.92,2.76,2.76,0,0,1-.86,2,3.31,3.31,0,0,1-2.44.86,1.35,1.35,0,0,1-.33,0,1.48,1.48,0,0,0-.34,0c-1.6-.5-3-.88-4.23-1.16a16.56,16.56,0,0,0-3.56-.41,11.88,11.88,0,0,0-3.66.6,23.07,23.07,0,0,0-4.35,2,12.86,12.86,0,0,1-.9,1.08l-.9,1c-.15.3-.28.59-.41.89s-.24.6-.33.9,0,.6,0,.9a6.13,6.13,0,0,0,.1.82,8,8,0,0,1,.53.75,6.76,6.76,0,0,0,.52.75l3.15,1.8c1.49.35,2.89.65,4.19.9s2.55.53,3.74.86a35.19,35.19,0,0,1,3.56,1.16,30.15,30.15,0,0,1,3.78,1.8,6.32,6.32,0,0,1,1.8,1.53c.5.63,1,1.21,1.42,1.76A9,9,0,0,1,2410,589a12.35,12.35,0,0,1,.57,3.75,13.67,13.67,0,0,1-1.06,5.24,10.71,10.71,0,0,1-3,4.19,13.6,13.6,0,0,1-1.38,1.08c-.48.33-.94.65-1.39.94a11.58,11.58,0,0,1-3.52,1.57,15.3,15.3,0,0,1-4.12.53,23,23,0,0,1-5-.56,27.37,27.37,0,0,1-4.84-1.57,25.58,25.58,0,0,1-4.26-2.36A17.54,17.54,0,0,1,2378.75,598.85Z" fill="#fff" fill-rule="evenodd"/><path d="M2445.09,592.33a3.88,3.88,0,0,1,2.48-1,2.72,2.72,0,0,1,2,.82,2.81,2.81,0,0,1,.83,2.1,5,5,0,0,1-.37,1.65,41.53,41.53,0,0,1-2.81,3.78,20,20,0,0,1-3.41,3.22,17.37,17.37,0,0,1-4.08,2.24,13.29,13.29,0,0,1-4.91.87,16.38,16.38,0,0,1-7.37-1.65,18.15,18.15,0,0,1-5.77-4.5,20.25,20.25,0,0,1-3.74-6.7,25.6,25.6,0,0,1-1.31-8.27,19.82,19.82,0,0,1,.82-5.84,32.61,32.61,0,0,1,2.63-6.29,21.25,21.25,0,0,1,3.55-4.76,25.2,25.2,0,0,1,4.72-3.67,45,45,0,0,1,6.1-3,31.35,31.35,0,0,1,4.16-1.5,14.07,14.07,0,0,1,3.63-.52,7.92,7.92,0,0,1,4.72,1.5,14.29,14.29,0,0,1,4,5.09,4.53,4.53,0,0,1,.22,1.34,2.94,2.94,0,0,1-.83,2.18,2.72,2.72,0,0,1-2,.82,3.67,3.67,0,0,1-2.63-1.2,12.19,12.19,0,0,0-1.87-2.84,2.57,2.57,0,0,0-1.87-.82,5.68,5.68,0,0,0-1.95.41c-.75.27-1.69.61-2.85,1a35.67,35.67,0,0,0-5.46,2.73,19.83,19.83,0,0,0-4.6,3.89,17.93,17.93,0,0,0-3.15,5.28,18.86,18.86,0,0,0-1.16,6.82,17.63,17.63,0,0,0,.82,5.28,15.74,15.74,0,0,0,2.36,4.64,11.81,11.81,0,0,0,3.78,3.29,10.49,10.49,0,0,0,5.17,1.24,7.75,7.75,0,0,0,3.22-.68,10.67,10.67,0,0,0,2.77-1.79,18.09,18.09,0,0,0,2.32-2.47A29.17,29.17,0,0,0,2445.09,592.33Z" fill="#fff" fill-rule="evenodd"/><path d="M2466.21,602.37a3.6,3.6,0,0,1-1,2.58,3,3,0,0,1-2.06.86,2.89,2.89,0,0,1-1.95-.79,3.75,3.75,0,0,1-1.12-2.43V566.87a3,3,0,0,1-1.91-.93,2.77,2.77,0,0,1-.71-1.91,3.46,3.46,0,0,1,.34-1.43,3.77,3.77,0,0,1,1.08-1.35,30.64,30.64,0,0,1,7.19-3.25,26.65,26.65,0,0,1,8-1.24,22.11,22.11,0,0,1,6.33.9,16.42,16.42,0,0,1,5.58,2.92,15.22,15.22,0,0,1,4.34,5.24,13.52,13.52,0,0,1,1.35,5.85,14.69,14.69,0,0,1-.79,4.71,17.34,17.34,0,0,1-2.21,4.38,19.09,19.09,0,0,1-3.4,3.75,18.88,18.88,0,0,1-4.46,2.8q2.85,3.23,6.14,6.82t6.14,6.74a3.66,3.66,0,0,1,.82,2.32,2.72,2.72,0,0,1-.82,2.06,2.83,2.83,0,0,1-2,.79,3.74,3.74,0,0,1-1.31-.27,3.24,3.24,0,0,1-1.31-.93c-.3-.35-.83-.94-1.57-1.76s-1.6-1.75-2.55-2.77-1.95-2.13-3-3.3l-3-3.3c-.93-1-1.76-1.93-2.51-2.73s-1.27-1.37-1.58-1.72a36.89,36.89,0,0,1-4,.52c-1.34.11-2.69.18-4,.23Zm15.8-37.14a11.51,11.51,0,0,0-3.93-1.8,18.24,18.24,0,0,0-4.38-.53,19.41,19.41,0,0,0-3.82.38,22.56,22.56,0,0,0-3.67,1.05v19.54c1.9-.1,3.79-.25,5.69-.45a22.46,22.46,0,0,0,5.62-1.35,11.78,11.78,0,0,0,3.11-1.72,15.13,15.13,0,0,0,2.58-2.54,11.75,11.75,0,0,0,1.75-3,8.49,8.49,0,0,0,.65-3.18,7.45,7.45,0,0,0-.83-3.37A8.09,8.09,0,0,0,2482,565.23Z" fill="#fff" fill-rule="evenodd"/><path d="M2519.75,598.17a3.5,3.5,0,0,1,2.58.75,3,3,0,0,1,1.09,1.87,2.79,2.79,0,0,1-.57,2.06,3.7,3.7,0,0,1-2.35,1.39c-2.6.1-5.18.13-7.75.11s-5.16,0-7.76,0a3.66,3.66,0,0,1-2.42-1.16,2.87,2.87,0,0,1-.75-2,2.94,2.94,0,0,1,.9-2,3.56,3.56,0,0,1,2.5-1h2.21c.72,0,1.46,0,2.21.08V565.52h-4.72a3.62,3.62,0,0,1-2.43-1.16,2.9,2.9,0,0,1-.75-2,3,3,0,0,1,.9-2,3.5,3.5,0,0,1,2.51-1h15.42a4,4,0,0,1,2.1,1.34,2.66,2.66,0,0,1-.15,3.63,3.72,3.72,0,0,1-2.17,1.16h-4.57v32.8c.65,0,1.3,0,1.95,0S2519.05,598.22,2519.75,598.17Z" fill="#fff" fill-rule="evenodd"/><path d="M2532.11,562.9a4,4,0,0,1,1.19-2.2,2.78,2.78,0,0,1,1.87-.72,2.07,2.07,0,0,1,.9.16,37.85,37.85,0,0,1,6-2.1,24.71,24.71,0,0,1,6.29-.83,20.31,20.31,0,0,1,4.08.41,13.56,13.56,0,0,1,3.86,1.46,14.8,14.8,0,0,1,3.67,2.7,17,17,0,0,1,2.77,3.63,18.86,18.86,0,0,1,1.76,4.24,16.51,16.51,0,0,1,.64,4.49,14.77,14.77,0,0,1-2.32,8,20,20,0,0,1-6.07,6.1,17.81,17.81,0,0,1-8.24,2.66c-.59.05-1.21.09-1.83.11s-1.21,0-1.76,0c-1.15,0-2.27,0-3.37-.15s-2.19-.22-3.3-.38V597q0,3.6.08,6.44a3.6,3.6,0,0,1-1,2.59,3,3,0,0,1-2.06.86,2.89,2.89,0,0,1-1.95-.79,3.75,3.75,0,0,1-1.12-2.43V589a1.16,1.16,0,0,1-.52-.14,4.28,4.28,0,0,1-1.65-1.43,3,3,0,0,1-.53-1.64,2.63,2.63,0,0,1,.68-1.76,3.49,3.49,0,0,1,2-1.09Zm21.26,1.58a10.94,10.94,0,0,0-5.09-1.2,18.28,18.28,0,0,0-5.24.78,33.12,33.12,0,0,0-4.8,1.84v18.42a27,27,0,0,0,3.15.56,28.28,28.28,0,0,0,3.22.19,22,22,0,0,0,3.14-.23,29.86,29.86,0,0,0,4.31-1.08,9.38,9.38,0,0,0,3.78-2.43,11.22,11.22,0,0,0,2.24-3.6,10.58,10.58,0,0,0,.75-3.89,10.87,10.87,0,0,0-1.38-5.36A10.08,10.08,0,0,0,2553.37,564.48Z" fill="#fff" fill-rule="evenodd"/><path d="M2601.37,559.83a4.08,4.08,0,0,1,2,1.35,2.72,2.72,0,0,1,.6,1.87,2.92,2.92,0,0,1-.83,1.84,4.22,4.22,0,0,1-2.24,1.09l-11.68.07.07,36.54a3.56,3.56,0,0,1-1,2.58,2.84,2.84,0,0,1-4,.08,3.86,3.86,0,0,1-1.12-2.44l-.07-36.76h-11.83a3.87,3.87,0,0,1-2.36-1.24,2.7,2.7,0,0,1-.72-2,3.19,3.19,0,0,1,.94-2,3.43,3.43,0,0,1,2.58-.9h21.19c2,0,3.76,0,5.29,0Z" fill="#fff" fill-rule="evenodd"/><path d="M722.23,581.78c0-94.51,77.23-171.13,172.5-171.13s172.5,76.62,172.5,171.13S990,752.92,894.73,752.92,722.23,676.3,722.23,581.78Z" fill="#7d38ce" fill-rule="evenodd"/><path d="M894.73,757.49c-97.63,0-177.07-78.82-177.07-175.71s79.44-175.7,177.07-175.7,177.06,78.82,177.06,175.7S992.36,757.49,894.73,757.49Zm0-342.27c-92.59,0-167.93,74.72-167.93,166.56s75.34,166.57,167.93,166.57,167.92-74.72,167.92-166.57S987.32,415.22,894.73,415.22Z" fill="#fff"/><path d="M757.66,566.32a4.67,4.67,0,0,1,1.33-2.46,3.12,3.12,0,0,1,2.08-.79,2.34,2.34,0,0,1,1,.17,43.27,43.27,0,0,1,6.66-2.33,27.51,27.51,0,0,1,7-.92,22.62,22.62,0,0,1,4.54.46,15.09,15.09,0,0,1,4.29,1.63,16.6,16.6,0,0,1,4.08,3,19,19,0,0,1,3.08,4,21.37,21.37,0,0,1,1.95,4.7,18.35,18.35,0,0,1,.71,5,16.29,16.29,0,0,1-2.58,8.9,22.06,22.06,0,0,1-6.74,6.79,19.85,19.85,0,0,1-9.16,3q-1,.07-2,.12c-.7,0-1.35,0-2,0-1.27,0-2.53,0-3.75-.16s-2.43-.25-3.66-.42v7.16q0,4,.09,7.16a4,4,0,0,1-1.13,2.87,3.29,3.29,0,0,1-2.29,1,3.23,3.23,0,0,1-2.16-.87,4.24,4.24,0,0,1-1.25-2.71V595.37a1.31,1.31,0,0,1-.58-.16,4.67,4.67,0,0,1-1.83-1.58,3.38,3.38,0,0,1-.59-1.83,2.92,2.92,0,0,1,.75-2,3.94,3.94,0,0,1,2.17-1.21Zm23.64,1.75a12.14,12.14,0,0,0-5.66-1.33,20.3,20.3,0,0,0-5.83.87,35.65,35.65,0,0,0-5.33,2v20.48a28.54,28.54,0,0,0,3.5.62,28.09,28.09,0,0,0,3.58.22,24.36,24.36,0,0,0,3.5-.26,34.11,34.11,0,0,0,4.78-1.2,10.27,10.27,0,0,0,4.21-2.71,12.57,12.57,0,0,0,2.49-4,12,12,0,0,0,.84-4.34,12.12,12.12,0,0,0-1.55-6A11.23,11.23,0,0,0,781.3,568.07Z" fill="#fff" fill-rule="evenodd"/><path d="M820.26,609.53a3.94,3.94,0,0,1-1.12,2.87,3.32,3.32,0,0,1-2.29,1,3.25,3.25,0,0,1-2.17-.87,4.29,4.29,0,0,1-1.25-2.71q0-5.09,0-10.12t0-10.19a92,92,0,0,1-9.45-10.7,41.27,41.27,0,0,1-6.45-12.7,1.67,1.67,0,0,0,0-.37,1.82,1.82,0,0,1,0-.38,3.69,3.69,0,0,1,1-2.7,3,3,0,0,1,2.21-1,3.9,3.9,0,0,1,3.25,1.91,37.41,37.41,0,0,0,5.24,10.7,71.77,71.77,0,0,0,7.66,9c2.67-3.16,5.34-6.34,8-9.53a58.19,58.19,0,0,0,6.95-10.28,4.27,4.27,0,0,1,1.54-1.67,3.43,3.43,0,0,1,1.7-.49,3.25,3.25,0,0,1,2.25.91,3.11,3.11,0,0,1,1,2.41,5.42,5.42,0,0,1-.41,1.84,71.75,71.75,0,0,1-8.08,11.78q-4.67,5.54-9.16,11l-.33.33v10Q820.18,604.53,820.26,609.53Z" fill="#fff" fill-rule="evenodd"/><path d="M885.86,562.91a4.44,4.44,0,0,1,2.25,1.5,3,3,0,0,1,.67,2.08,3.2,3.2,0,0,1-.92,2,4.56,4.56,0,0,1-2.49,1.2l-13,.09.08,40.63a4,4,0,0,1-1.12,2.87,3.31,3.31,0,0,1-2.29.95,3.25,3.25,0,0,1-2.17-.87,4.26,4.26,0,0,1-1.25-2.71l-.08-40.87H852.4a4.39,4.39,0,0,1-2.63-1.38,3,3,0,0,1-.79-2.2,3.56,3.56,0,0,1,1-2.25,3.79,3.79,0,0,1,2.87-1h23.56c2.22,0,4.18,0,5.88,0S885.2,562.91,885.86,562.91Z" fill="#fff" fill-rule="evenodd"/><path d="M931.65,585.55q2.42,0,3.12,1.17a5,5,0,0,1,0,5.16c-.47.77-1.51,1.19-3.12,1.24v16.16c0,1.72-.43,2.88-1.29,3.5a4.79,4.79,0,0,1-2.79.91,3.11,3.11,0,0,1-2.28-1.08,4.64,4.64,0,0,1-1-3.33V593.12H901.52v16.07c0,1.73-.43,2.89-1.3,3.5a4.6,4.6,0,0,1-2.7.92,3,3,0,0,1-2.25-1.08,4.85,4.85,0,0,1-1-3.34v-43a5.65,5.65,0,0,1,.42-2.33,3.4,3.4,0,0,1,1.12-1.41,4.07,4.07,0,0,1,1.54-.67,8.27,8.27,0,0,1,1.58-.17,2.3,2.3,0,0,1,1.84.92,4.49,4.49,0,0,1,.75,2.83v20.23h22.72v-19.4a5.17,5.17,0,0,1,.46-2.33,4,4,0,0,1,1.12-1.41,3.75,3.75,0,0,1,1.54-.67,9,9,0,0,1,1.63-.17,2.37,2.37,0,0,1,1.91.92,4.43,4.43,0,0,1,.75,2.83Z" fill="#fff" fill-rule="evenodd"/><path d="M980.19,590.22c.16-1.12.32-2.24.46-3.38a30.43,30.43,0,0,0,.2-3.45,24.71,24.71,0,0,0-.41-4.41,13.49,13.49,0,0,0-1.5-4.17,13,13,0,0,0-5.58-5.49,16.26,16.26,0,0,0-7.66-1.92,14,14,0,0,0-8.49,2.75,19.37,19.37,0,0,0-4.12,4.25,28.17,28.17,0,0,0-3,5.33,31.53,31.53,0,0,0-1.83,5.78,27,27,0,0,0-.62,5.62,23.06,23.06,0,0,0,.87,6.37,14.77,14.77,0,0,0,2.75,5.33,14.26,14.26,0,0,0,4.7,3.7,14.66,14.66,0,0,0,6.66,1.42,12.75,12.75,0,0,0,3.21-.42,12.27,12.27,0,0,0,2.95-1.17,18.07,18.07,0,0,0,4.29-3.24,25.29,25.29,0,0,0,3.29-4.16,28.63,28.63,0,0,0,2.41-4.79,46.42,46.42,0,0,0,1.67-5Zm6.66.83a45.21,45.21,0,0,1-2.12,6.16,42.51,42.51,0,0,1-3.25,6.16,30.87,30.87,0,0,1-4.33,5.33,17.63,17.63,0,0,1-5.37,3.66l-2.33.87a19.22,19.22,0,0,1-2,.63c-.66.16-1.37.31-2.12.46a23.86,23.86,0,0,1-2.54.29,2.43,2.43,0,0,0-.42,0,2.74,2.74,0,0,1-.5,0,14.71,14.71,0,0,1-4.41-.71c-1.5-.47-2.91-.93-4.25-1.37a15.64,15.64,0,0,1-5.74-3.58,19.63,19.63,0,0,1-3.79-5.29,24.4,24.4,0,0,1-2.08-6.28,35.74,35.74,0,0,1-.62-6.66c0-.84,0-1.66.08-2.46s.14-1.59.25-2.37a35.24,35.24,0,0,1,1.45-5.74,39.59,39.59,0,0,1,2.63-6,33.28,33.28,0,0,1,3.62-5.45,18.88,18.88,0,0,1,4.37-4,22.64,22.64,0,0,1,6.24-2.87,24.25,24.25,0,0,1,6.75-1A22.43,22.43,0,0,1,977,563.57a19.12,19.12,0,0,1,7.9,8.16,20.17,20.17,0,0,1,2,5.62,30.61,30.61,0,0,1,.58,5.95c0,1.28,0,2.57-.16,3.88S987.07,589.77,986.85,591.05Z" fill="#fff" fill-rule="evenodd"/><path d="M1030.14,563.82a4.85,4.85,0,0,1,1.33-2.49,3,3,0,0,1,2.08-.84,3.24,3.24,0,0,1,2,.75,4.23,4.23,0,0,1,1.38,2.33q0,11.91-.17,23.07T1036,609.7l.09.08H1036a4.15,4.15,0,0,0-.08.71v.62a4.37,4.37,0,0,1-1.37,2,3.06,3.06,0,0,1-1.88.66,4,4,0,0,1-2.82-1.33c-.12-.22-.23-.41-.34-.58l-.33-.5h-.08v-.16q-3-5.09-6.16-9.71t-6.5-9.07q-3.33-4.45-6.78-8.82t-7.12-9V591.5c0,2.81,0,5.73,0,8.79s0,6.35,0,9.9a4,4,0,0,1-1.12,2.88,3.36,3.36,0,0,1-2.29.95,3.21,3.21,0,0,1-2.16-.87,4.19,4.19,0,0,1-1.26-2.7q0-11.25,0-22.78t0-22.76a4.31,4.31,0,0,1,1.25-2.34,3,3,0,0,1,2.08-.83,4.49,4.49,0,0,1,2.5.92l7.49,9q3.66,4.36,7.21,8.78t6.86,9q3.33,4.62,6.49,9.62.35-9.16.47-17.57T1030.14,563.82Z" fill="#fff" fill-rule="evenodd"/><path d="M1840,1734.58l375.92,19.14-.78,75.23-377.62-1.74Z" fill="#495a5f" fill-rule="evenodd"/><path d="M1777.59,668.44c3.49-4.72,8.52-13.54,16.32-18.23,5.42-3.2,14.94-7,22.52-10.2,14.07-5.29,19.11-16.26,34.94-27.16,27.55-19,68.27-39.44,105.86-45.21,17.72-2.89,42.77-5.3,62.39-2.35,22.85,4,44.35,15,44.35,15l10.27-17s28.56-40.15,79,4.45c13.94,12,45.22,44.14,68.9,112.51,7.83,21.85,13.49,45.85,11.43,61.59-1.6,12.72-4,16.37.4,34.32,8.82,33.73,32.3,70.59,40.25,75.17,7.31,4.81,22,7.93,23.65,13.12.63,1.95-5.66,6.87-13.22,7.9-8.86,1.44-19.42-.14-19.42-.14s21.13,31.87,21.16,58.42c-.63,26.76-27.19,59.8-22.36,48.18,2.42-5.81,2.1-22.21-2.12-35.19a75.64,75.64,0,0,0-12.57-23.18s-7.88,15.48-16.12,21c-11.93,7.47-26.58,4.35-28.72,2.17-3.22-3.26,14.47-1.84,18.44-13.9,4.2-13.56-4.67-40.82-4.67-40.82s-14.72,5.51-31.63-13.39c-17.34-20.2-37.29-66.09-43.37-91.39C2136.32,754.1,2128,713,2128,713s-5,31-11.8,49.76-15.69,51-25.43,54.21c-29,10.15-46.87-24.94-46.87-24.94l-28.89-2.8s-185.34-97.58-189.17-45.38c-1.89,22.86-15.42,43.05-17.06,31.39-2.29-11.46-.39-5.62-5.93-16-4.9-8.45-16.69-20.4-21.41-23.89C1760.17,720.76,1768.87,681.33,1777.59,668.44Z" fill="#e82d5e" fill-rule="evenodd"/><path d="M1821.4,699.4s26.81,22.86,51.79,31.23c15.29,5.08,47.64,7.47,47.64,7.47s11.43,2,20.45,7.7c11.82,7.64,19.12,12.43,30.79,10.79,24.19-2.84,35.42-34.49,58-26.78,12.07,4,17.54,23,17.87,37.25.34,12.09-4.25,20-4.25,20s12,14.77,24.45,22.2,27.35,4.63,27.35,4.63,2.43,27.75,11.18,48.73a203,203,0,0,0,21,37.64s-44,13.45-73.54,55.12c-24.42,34.42-29.64,72.88-29.64,72.88s-29.08,25.78-53.06,38.12c-16,8.23-29,10.1-37.16,7-8.83-3.31-6.83-23-4-37.57a169.5,169.5,0,0,1,10.5-34.05l43.26-30.59a102.09,102.09,0,0,0-3.63-22c-2.68-9.21-8.23-18.93-8.86-19.55-12.2-13.25-54.91,20.77-70.6,12.24-17.21-8.76-22.73-21.32-30.39-36-9.16-17.12-20-39.42-21.29-41.16-10.67-17.34-20.84-13.31-24.84-27.8-3.15-11.89,17.21-22.11,15.13-32.91-6.5-26.59-20.17-46.55-22.41-64.48C1813.65,726.32,1816.6,706.7,1821.4,699.4Z" fill="#ffe4ce" fill-rule="evenodd"/><path d="M1832.76,710.06s34,20.53,54.21,25.42c17.88,4.23,25.91-2,37.11,1.56,15.93,4.86,31.18,14.25,31.18,14.25s17,6,12.89,8.73c-1.73,1.28-8.22,3.39-20.29,1.58s-23.46-10.31-31.86-11.88c-15.3-2.92-23.72-2.33-42.66-9.81C1838,726.28,1832.76,710.06,1832.76,710.06Z" fill="#ffbca9" fill-rule="evenodd"/><path d="M1923.52,936s27.69-9.72,52-25.52A215,215,0,0,0,2001.11,890c9.78-9.64,9.91,1.8.69,24.18-4.39,10.76-21,36.33-21,36.33s1.91-17.91-13.58-23.63C1957.49,923.53,1923.52,936,1923.52,936Z" fill="#ffbca9" fill-rule="evenodd"/><path d="M1867.59,819.3c3,9.08,17.24,4.44,21.13,3.17,9.08-3,17.77-11.53,16.31-18.23-.81-6.91-14.41-6.79-22.84-4C1874.61,803.38,1864.64,810.21,1867.59,819.3Z" fill="#ffaaa9" fill-rule="evenodd"/><path d="M1822.13,838.39c-2.32-7.14,8.11-17,12.47-23.43,3.92-5.59,6.93-3,9.22,8.48,1.68,7.35-.79,19.64-7.92,22S1824.46,845.53,1822.13,838.39Z" fill="#ffaaa9" fill-rule="evenodd"/><path d="M2098.81,687.36c-.9,6,1.44,11-3.17,21.13-4.39,10.76-3.59,19.82,5,19.89,5-.18,8.46-4.9,9.59-12.45.67-4.53,1-14.67-.08-20.07C2107.3,678.14,2099.08,681.53,2098.81,687.36Z" fill="#c76755" fill-rule="evenodd"/><path d="M2083.27,688.11c-1.52,1.93-.27,8-2.47,14.45s-4.6,8-4.2,13.56c.61,4.11,6.21,5.87,9.91,1.8,5.44-5.36,6.18-18.52,6-25.64C2091.9,688.17,2086.32,684.25,2083.27,688.11Z" fill="#c76755" fill-rule="evenodd"/><path d="M1895.68,603.46c-13.21,5.73-22.77,16-19.56,19.28,3.86,3,12.34-4,24-7.81,12.33-4,21.81-1.35,22.51-8S1908.89,597.73,1895.68,603.46Z" fill="#ffbaae" fill-rule="evenodd"/><path d="M1904.41,619.28c-10.17,4-17.77,11.53-14.77,14.13s9.3-2.3,18.38-5.26c9.3-2.3,16.62.34,17.09-4.84C1924.93,618.35,1914.15,616.11,1904.41,619.28Z" fill="#ffbaae" fill-rule="evenodd"/><path d="M1907.74,878.72c13.9-12.42,8.35-20.66-13.3-12.18-14.71,5.5-6.94,5.13-11.51,10.92C1883.58,877.25,1893.4,892,1907.74,878.72Z" fill="#ffbca9" fill-rule="evenodd"/><path d="M1646.72,1518.61s-35.35-14.88-46.27-14.36-23.15-2.82-34.38-1.74-29.89-1.67-41.59-1.4-20.17-1.37-33-5.17-28-7.24-41.76-11.94-24.13-8.28-36.25-13-19.68-5.32-29.32-10.89-13.86-8.6-10.44-11.89,8-4.64,16.49-3.36,18,.71,28.9,3.52,17.33,4.23,26.47,7.34,19.3,2.5,30.35,4.44,54.33-2.61,47.54-5c-2-.69-4.08-4.77-12.56-10.76-9.24-6.54-25.14-15.3-33.93-23.09-11.06-9.79-19-19.83-12.37-18.68,16,2.75,30.1,9.54,39.63,11.62,13.34,2.91,30.34,4.32,45.07,6.24s24.79,15.22,38.29,19.77,53.12,25.29,53.12,25.29,4.88,12.92,6.38,18,2.4,16.35,2.4,16.35l-1.2,11.56Z" fill="#ffe4ce" fill-rule="evenodd"/><path d="M1943.67,998.32s-5.72,12.26-8.23,20.81-5.52,17.68-5.61,26.58-1.15,18.6,1.12,24.27,8.43,7.83,18.86,5.15,24.64-8.52,33.73-15.15,14.89-10.66,24-18.7,17.34-11.76,12.55,5-12.13,52-16.71,68.06-10.43,41.72-14.55,63.15-10.3,60.59-11.8,77.25-4.24,44.45-3.9,60.69,2.55,54.77,2.55,54.77-10.77,21.92-14.8,29.72-9.56,14.27-14.41,19.57a124,124,0,0,1-10.29,9.85s-13.64-.73-18.47-.42-24.09,7.11-30.93,10.08-23.75,7-30.08,7.58-30.31,1.68-30.31,1.68,2-26.46-4.1-63.08c-6.2-37.46-20.3-85.68-8.7-139.05C1828,1180,1869.27,1120.77,1895.2,1078a239,239,0,0,0,23-51.93Z" fill="#fff" fill-rule="evenodd"/><path d="M1834.12,1574.62s33.05,1.9,41.7,2.08,21.63,1.9,35.12,1.55a380.62,380.62,0,0,1,40.14.87c12.45,1,26.3,2.07,26.3,2.07s4.32,50.52,4.14,66.27.7,36.33.87,49-.34,23.18.52,35.29-.13,41.29-.13,41.29-34.75-2.27-48-2.27-33.24-2.64-41.36-5.48-22.85-7.54-32.29-11.32-21.15-9.82-21.15-9.82,0-59.21-1.46-101.58S1834.12,1574.62,1834.12,1574.62Z" fill="#fff" fill-rule="evenodd"/><path d="M1897.14,1074.4s-4.27-7.8-4.09-20.1,3.52-29.45,6.33-36.16a125.62,125.62,0,0,1,16.75-29.23c10-13.41,12.62-18,21.4-27.53s10.58-13.66,19.13-19.83a160.63,160.63,0,0,1,16.29-10.3s4.5,3.67,8.19,16.87,3.48,22,3.48,22a87,87,0,0,0-14.81,9.32c-7.9,6.11-18.88,12.88-29.82,23.1s-15.52,13.12-20.5,21.32-5.4,11.64-8.29,18.95-4.09,11.53-7.37,17.43S1897.14,1074.4,1897.14,1074.4Z" fill="#3dd8ac" fill-rule="evenodd"/><path d="M1980.51,1226.93c6.66-35.25,15.93-96.4,33.36-159.67,8.7-31.6,11.7-58.61,25.41-87.3,10.12-21.15,29.49-43.43,50.67-59.33,16.9-12.7,37.38-21.47,37.38-21.47s-10.75-11.41-8.08-13.09c7.43-4.67,31.73-12.35,38.71-12.35,29,0,105.84,29.87,119.24,95,1.83,8.89,9,28,4.58,37.68-3.44,7.63-19,6.3-15.55,10.69,11.77,14.88,21.52,43.08,23.9,63.57,3.77,32.44-12.25,72.37-18.14,93.14-7.49,26.37-6.93,53.7-14.45,76.76-6.05,18.52-11.84,43.24-17.71,63.82-16.46,57.63-30.62,111.37-30.13,126.05.19,6,37.81,274.36,36.09,283.44-.69,3.61-9.81,16.93-29.8,32-15,11.27-37.5,24.47-59,30.18-34.8,9.21-86.45,14.27-118.85,14.76-37,.56-52.53-4.19-52.53-4.19l-7-214.1s-25.14-3.19-54.91-4.76c-53.37-2.81-133-5.58-190-12.21-15.37-1.78-32.39,1.7-42.32-.68-12.08-2.89-12.59-18.46-13.21-21.42-.58-2.78-30.86-9.48-32.22-14.5-2-7.4,3.69-24.58,1.25-38.17-2.2-12.27-12.33-22.46-4.51-32.24,2.66-3.33,43.55.52,45.86-2.49,4.57-5.93,9.94-12.68,17.65-16,15.76-6.84,35.05,1.25,61.3,4.78a429.76,429.76,0,0,0,74.39,3.25c10.93-.54,21.07-.87,28-3.12,14-4.58,36.91-12.12,46.12-15.07,11.54-3.71,26-.3,25-1.18-1.55-1.48,7.66-12.12,17.92-27.3,8.58-12.69,18.5-30.21,17.57-32.28C1968.62,1351.66,1976.68,1247.2,1980.51,1226.93Z" fill="#3dd8ac" fill-rule="evenodd"/><path d="M1810.08,1287.66s.12,22.1,1.18,29.85,3.4,24.87,4.83,34.58,4.09,18.08,5.64,27.89,2.7,22,2.7,22-11.32-2.15-18.28-4.24-32.89-5.38-41.49-6.45-30.13-3-38.15-3.2-23.94-2.37-30.8-2.7-15.13-3.44-18.25-5.88-5.22-8.07-6.91-11.27-11.26-1.68-15.36-1.53-11.59-.46-16.51-2.21-8-8-7.19-13.59,5.89-22,7.32-28.66,3.1-19.79,1.45-26.52-3.35-9.13-5.21-13.72-.56-6.52,6.33-6,21.3,3.86,21.3,3.86a84.46,84.46,0,0,1,10.15-4.42c4.53-1.49,13,1.12,19.58,4.19a68.85,68.85,0,0,0,28.83,6.82c13.7.44,32.09,3.66,44.93,2.85S1810.08,1287.66,1810.08,1287.66Z" fill="#3dd8ac" fill-rule="evenodd"/><path d="M1087.11,911.85l67.36,36.29,140,495-96.69-144.8Z" fill="#b1b1b1" fill-rule="evenodd"/><path d="M1253.5,1302.41l265.83,3.07,128.53,142.83-37,4.08-52.26-30.71-60.23-9.17-21.17-8.34-13.53.36,7.58,16.75,53.29,29.48-231.37-5.93Z" fill="#b1b1b1" fill-rule="evenodd"/><path d="M1290.82,1303.84l99.43.9,87.12,136.2-136.21-3.21Z" fill="#606060" fill-rule="evenodd"/><path d="M1633.72,1345.46s-8.88,1.41-16.68,3.37-19.24,4.57-26.87,4.7-21.53-1.86-29.37-2.43-28.28-3.81-37.37-3.09a187.32,187.32,0,0,1-26.89.61c-8.61-.59-12.78,0-17.21-2.33s-1.43-7.72.47-10.62,10.64-7.08,14.92-9.71,15.17-5.33,20.88-6.25,10.54.24,19.26-1.25,16-1.23,21.93-4.54,2.56-6.43-4.59-6.84-24.66-3.67-31-3.45-19.31-1.28-25,1.94-13.41,11.66-17.85,15.37-10.78,9.93-14.37,13.5-14.74,12.72-21.86,14.85-15.87,1.46-15.91-1.47-.7-10.25-5-8.77-9.83,3.24-9.78.17a6.37,6.37,0,0,0-6.45-6.64c-4.54-.22-8.19-3.28-7.38-6a50.68,50.68,0,0,1,11.28-18.78c7-7,8.92-15,21.48-26.09s19.47-20.35,32.23-24,22.08-4.45,33-5.37,19-1.8,31.74-1.77,34.93,7.44,45.86,12.91,23.23,11.66,32.12,15.11,31.08,6.68,31.08,6.68a20.79,20.79,0,0,1,4.48,11.49c.37,6.78-1.13,20.3-2,23.53s-.62,5.61-2.06,10.35S1633.72,1345.46,1633.72,1345.46Z" fill="#ffe4ce" fill-rule="evenodd"/><path d="M2019.62,810.28a4.57,4.57,0,0,1-1.3-8.95c10.25-3.05,17.88-9.29,22.08-18,4.81-10,4.66-22.38-.41-34.81-3.43-7.85-8-12.69-13.39-14.3-7.9-2.33-16.82,2.45-21.43,5.51a4.57,4.57,0,0,1-5.05-7.62c7.25-4.81,18.19-9.86,29.07-6.65,8.15,2.4,14.61,9,19.22,19.5,6.1,15,6.17,29.94.24,42.32-5.27,11-15.12,19.1-27.72,22.85A4.61,4.61,0,0,1,2019.62,810.28Z"/><path d="M2015.32,779.39l-.42,0a4.57,4.57,0,0,1-4.14-5c1.1-12,7.28-16.94,8-17.46a4.57,4.57,0,0,1,5.51,7.3c-.26.22-3.68,3.22-4.39,11A4.56,4.56,0,0,1,2015.32,779.39Z"/><path d="M1860.66,793.56c-2.12-6.49-.56-12.73,3.33-14,4.54-1.48,9.26,2,12,8.28s.55,12.75-3.34,14C1868.14,803.33,1862.77,800.06,1860.66,793.56Z" fill-rule="evenodd"/><path d="M1841.73,757.64a4.53,4.53,0,0,1-3.25-1.36,4.57,4.57,0,0,1,0-6.46c9.16-9,22.33-12.11,35.22-8.25a4.57,4.57,0,0,1-2.62,8.76c-9.79-2.93-19.34-.75-26.18,6A4.55,4.55,0,0,1,1841.73,757.64Z"/><path d="M2087.19,821.23c-.82,0-1.66-.05-2.52-.13-13.55-1.33-29.7-12.43-44.3-30.47a4.57,4.57,0,0,1,7.11-5.75c15.16,18.73,29.61,26.3,38.08,27.12,3.09.3,5.51-.21,7.05-1.49,5.94-5,6.75-7.45,11.27-25.43.7-2.78,1.48-5.9,2.39-9.42a169.82,169.82,0,0,1,6-18.2c8.43-22.73,18.92-51-1.21-92.82a4.57,4.57,0,0,1,8.24-4c21.81,45.3,10.57,75.61,1.54,100a164.88,164.88,0,0,0-5.71,17.24c-.91,3.55-1.69,6.66-2.39,9.43-4.47,17.8-5.82,23.17-14.28,30.22A17.2,17.2,0,0,1,2087.19,821.23Z"/><path d="M1912.46,742.18h-1.19c-31.28-.5-74.19-14.25-100.84-51.38a4.57,4.57,0,0,1,7.43-5.33c31.85,44.37,83.52,47.41,93.55,47.57s18.18-2,26-4c11.29-2.93,22-5.71,35.45-.92a4.57,4.57,0,1,1-3.05,8.61c-10.85-3.85-19.35-1.64-30.1,1.15C1932,739.9,1923.21,742.18,1912.46,742.18Z"/><path d="M1972.41,760.68c-9,0-18.82-3.82-28.1-11a4.57,4.57,0,0,1,5.59-7.23c8.63,6.68,17.88,9.91,25.36,8.91a15.07,15.07,0,0,0,10.47-6,4.57,4.57,0,1,1,7.32,5.47,24.23,24.23,0,0,1-16.56,9.59A30.5,30.5,0,0,1,1972.41,760.68Z"/><path d="M1807.69,780.92h-.25a4.56,4.56,0,0,1-4.32-4.8c1.06-19.82-7-25.6-17.15-32.92-9.24-6.64-19.7-14.17-22.47-32.93-2.53-17.35,5.24-40.9,18.08-54.78,8.9-9.63,19.55-14.32,30.79-13.58a4.57,4.57,0,0,1-.61,9.12c-10.58-.69-18.61,5.41-23.47,10.66-11,11.86-17.88,32.62-15.75,47.26,2.2,14.92,10.25,20.71,18.76,26.83,10.45,7.51,22.28,16,21,40.83A4.58,4.58,0,0,1,1807.69,780.92Z"/><path d="M1828.78,638.41a4.56,4.56,0,0,1-3.34-7.68c43.77-46.86,124.42-76.86,187.56-69.82,46,5.05,78.21,28.76,90.58,66.77a4.57,4.57,0,1,1-8.69,2.83c-15.1-46.41-58.41-57.83-82.89-60.52-59.53-6.64-138.59,22.77-179.88,67A4.53,4.53,0,0,1,1828.78,638.41Z"/><path d="M1984.76,986.81h-.25a4.56,4.56,0,0,1-4.31-4.81c1.47-27.11-9.82-47.92-13.64-51.45-7.43.05-14.58,2.68-24.32,6.27-7.08,2.62-15.11,5.57-25.35,8.32-19.92,5.65-31.05-5.12-42.5-24.36a453.31,453.31,0,0,1-22.35-42,4.57,4.57,0,0,1,8.26-3.93,444.61,444.61,0,0,0,21.93,41.21c11.47,19.27,19,24,32.23,20.24,9.9-2.66,17.72-5.54,24.62-8.08,10.67-3.93,19.2-6.93,28.63-6.83,2.65.09,4.6,1.9,5.84,3.26,5.83,6.37,17.35,28.87,15.77,57.82A4.57,4.57,0,0,1,1984.76,986.81Z"/><path d="M1857.24,882.49a4.57,4.57,0,0,1-4.21-2.79c-1.68-4-7.08-15.42-11.84-20.24a52.71,52.71,0,0,0-7.3-5.74c-5.28-3.7-11.28-7.89-13.51-14.76-3.5-8.71,1.5-14.69,5.91-20a49.78,49.78,0,0,0,5.42-7.36c2.54-4.27,3.71-8.09-2.42-22.53a4.57,4.57,0,0,1,8.42-3.57c6.28,14.8,6.76,22.54,1.9,30.69a58,58,0,0,1-6.31,8.64c-4.47,5.33-5.79,7.35-4.33,11,1.39,4.25,5.65,7.23,10.16,10.38a60.27,60.27,0,0,1,8.57,6.81c7,7.07,13.48,22.46,13.75,23.11a4.56,4.56,0,0,1-4.21,6.34Z"/><path d="M1832.65,791.46a4.58,4.58,0,0,1-4.15-2.63C1821.72,774.38,1814,758,1811.2,740a66.72,66.72,0,0,1,.69-28.49,4.57,4.57,0,1,1,8.91,2,57.67,57.67,0,0,0-.6,24.8c2.66,16.93,10,32.69,16.58,46.59a4.57,4.57,0,0,1-2.2,6.08A4.62,4.62,0,0,1,1832.65,791.46Z"/><path d="M1882.06,881.59a4.57,4.57,0,0,1-.66-9.09h0c.19,0,18.48-2.89,30.85-16.64A4.57,4.57,0,0,1,1919,862c-14.64,16.26-35.44,19.44-36.32,19.57A4.87,4.87,0,0,1,1882.06,881.59Z"/><path d="M1855.54,789a4.57,4.57,0,0,1-3.06-8c6.07-5.46,20.78-8.86,31.51-.69a4.57,4.57,0,0,1-5.53,7.27c-7-5.32-16.64-2.68-19.87.22A4.51,4.51,0,0,1,1855.54,789Z"/><path d="M2211.05,894.35c-6.36,0-12.81-2.41-19.22-7.19C2159,862.69,2132,779.4,2122.19,709.78a4.57,4.57,0,0,1,9-1.27c10.91,77.72,39.31,151.37,66.06,171.33,5.65,4.21,11.09,6,16.15,5.19a4.57,4.57,0,1,1,1.35,9A24.82,24.82,0,0,1,2211.05,894.35Z"/><path d="M2212.56,812.09a4.53,4.53,0,0,1-2.54-.77,4.58,4.58,0,0,1-1.79-5.27c.11-.31,10.54-31.93,3-78.49a4.57,4.57,0,0,1,9-1.46,211.42,211.42,0,0,1,1.53,58.85c9.22-21.6,15.6-62.41-15.27-127-37.33-77.92-74.28-114.06-106.92-104.58-18.62,5.34-27.54,20.65-31.19,29.31a4.57,4.57,0,0,1-8.42-3.56c4.29-10.16,14.81-28.15,37.07-34.53,26.14-7.6,67.77,5.19,117.7,109.41,52.56,109.94,3,155.07.83,156.93A4.57,4.57,0,0,1,2212.56,812.09Z"/><path d="M2217.84,949.77a43.48,43.48,0,0,1-18.17-4,4.57,4.57,0,0,1,2.5-8.65s7,.62,11.91-3.95c3.79-3.53,5.62-9.36,5.43-17.36-.71-19.52-13.22-39.18-31.78-62.69a4.57,4.57,0,0,1,7.17-5.66c19.68,24.91,32.94,46,33.75,68.07.25,10.86-2.59,19.06-8.45,24.43l-.76.67a24.91,24.91,0,0,0,17.75-8.25c11.35-12.43,2-41.14-2.55-51.15a4.57,4.57,0,1,1,8.32-3.79c.77,1.69,18.69,41.73,1,61.1C2236.16,947.07,2226.51,949.77,2217.84,949.77Z"/><path d="M2263.1,987.27a4.58,4.58,0,0,1-4.24-6.29c.47-1.17,11.27-29.52-14.4-61.57a4.57,4.57,0,0,1,7.14-5.71c16.71,20.87,19.61,40.61,18.94,53.91,7-10,14.08-26.11,9.27-46.74-5.55-23.71-12.33-34.19-20.92-47.47a241.85,241.85,0,0,1-17.26-30.24,4.57,4.57,0,0,1,8.27-3.9,231.09,231.09,0,0,0,16.66,29.18c8.72,13.46,16.24,25.09,22.15,50.35,9.55,41-21.43,66.42-22.76,67.47A4.54,4.54,0,0,1,2263.1,987.27Z"/><path d="M2279.74,878.78c-8.52,0-16.85-3.95-24.82-11.77a4.57,4.57,0,1,1,6.4-6.52c6.8,6.67,13.65,9.71,20.28,9a22.94,22.94,0,0,0,10.8-4.29c-8.19-1-19-5.43-30.12-19.06-22.22-27.85-34-74.3-34.46-76.27a4.57,4.57,0,0,1,8.87-2.21c.12.47,11.78,46.5,32.7,72.74,17.57,21.57,32.8,15,33.45,14.74a4.62,4.62,0,0,1,5.39,1.2,4.57,4.57,0,0,1,.34,5.49c-.42.62-10.31,15.14-26,16.75A27.16,27.16,0,0,1,2279.74,878.78Z"/><path d="M2184.46,756.65a4.58,4.58,0,0,1-3.62-7.36c24.76-32.19,3.38-92.82-17-125.71a4.57,4.57,0,0,1,7.77-4.82c18.71,30.16,46.24,97.43,16.5,136.1A4.58,4.58,0,0,1,2184.46,756.65Z"/><path d="M2126.11,902.41a4.55,4.55,0,0,1-3.6-1.75c-17.57-22.36-25-53.17-31.06-82.82a4.57,4.57,0,1,1,9-1.84c6.11,29.77,12.94,58.2,29.3,79a4.57,4.57,0,0,1-3.59,7.39Z"/><path d="M1974.79,1371.84a4.58,4.58,0,0,1-4.55-4.13c-10.17-105.13,29.33-264.54,41.68-310.89,1.21-4.54,2.4-9.15,3.59-13.79,8.43-32.81,17.15-66.72,38.25-93.64,11.14-14.21,26.25-27.53,47.55-41.91,7.2-4.85,14.92-7.93,22.39-10.9,9.87-3.93,19.2-7.65,26.56-15.1a4.57,4.57,0,0,1,6.5,6.43c-8.71,8.81-19.37,13.05-29.68,17.16-7.34,2.92-14.28,5.68-20.65,10-20.49,13.83-34.94,26.53-45.48,40-19.91,25.41-28.39,58.39-36.59,90.27-1.2,4.68-2.39,9.31-3.61,13.88-12.25,46-51.44,204-41.41,307.64a4.57,4.57,0,0,1-4.11,5Z"/><path d="M2120.87,890.57a4.57,4.57,0,0,1-2.07-8.65c26.24-13.31,41.95-14.85,67.22-6.6a4.57,4.57,0,1,1-2.84,8.69c-22.77-7.44-36.3-6.09-60.24,6.06A4.54,4.54,0,0,1,2120.87,890.57Z"/><path d="M2268.25,1018.34a4.57,4.57,0,0,1-.67-9.09c4.14-.62,6.89-2,8.4-4.2,3.32-4.83,1.26-14.1-.57-22.28a90.44,90.44,0,0,1-2-11,4.58,4.58,0,0,1,4.15-5,4.52,4.52,0,0,1,5,4.15,83.8,83.8,0,0,0,1.82,9.8c2.23,10,4.76,21.34-.82,29.45-3,4.35-7.89,7.06-14.59,8.06A5,5,0,0,1,2268.25,1018.34Z"/><path d="M1827,1446.55a4.56,4.56,0,0,1-4.56-4.57c0-25.83-4.26-52-8.37-77.2-6.32-38.77-12.85-78.87-4.63-120,9.34-46.69,34.53-89.36,58.89-130.61,16.17-27.39,32.89-55.71,44.38-84.45a4.57,4.57,0,1,1,8.49,3.39c-11.76,29.4-28.66,58-45,85.71-24,40.59-48.76,82.58-57.8,127.75-7.89,39.47-1.5,78.73,4.69,116.7,4.17,25.61,8.49,52.1,8.49,78.67A4.57,4.57,0,0,1,1827,1446.55Z"/><path d="M1836.78,1829a5.2,5.2,0,0,1-1-.1,4.58,4.58,0,0,1-3.53-5.42c5.3-25.19,2.65-196.74-1.72-251.2a4.57,4.57,0,0,1,9.12-.73c4.51,56.32,7.1,227.41,1.55,253.82A4.58,4.58,0,0,1,1836.78,1829Z"/><path d="M2008.52,1506.25a4.59,4.59,0,0,1-4.1-2.52c-11.58-23.17-27-44.44-42.32-58.36-1-.89-4.88-3-8-4.66-10.81-5.78-16-9-17.07-13.15s2.14-8.49,12.18-19.54c1.59-1.74,3.57-3.93,4-4.56,12.4-18.59,21.67-39.52,30.63-59.75,2.2-5,4.39-9.91,6.63-14.83,14.69-32.33,26.1-66.8,37.14-100.13,11.66-35.22,23.72-71.64,39.75-106,3-6.42,5.92-13,8.87-19.66,13.23-29.82,26.91-60.66,50.1-83.86a4.57,4.57,0,0,1,6.47,6.46c-22,22-35.33,52-48.22,81.11-3,6.7-5.92,13.35-8.94,19.82-15.81,33.87-27.78,70-39.35,105-11.12,33.56-22.6,68.27-37.5,101-2.23,4.9-4.41,9.82-6.59,14.75-9.12,20.59-18.56,41.88-31.39,61.13a60.71,60.71,0,0,1-4.83,5.63c-2.43,2.68-7.7,8.48-9.49,11.4,2.38,2,8.45,5.22,11.93,7.09,5,2.66,8.11,4.37,9.84,5.94,16.12,14.66,32.29,36.91,44.36,61a4.57,4.57,0,0,1-2,6.13A4.48,4.48,0,0,1,2008.52,1506.25Zm-62.6-79.59Z"/><path d="M2029,1071.19a4.56,4.56,0,0,1-4.08-6.61q3-5.92,5.78-11.65c25.45-51.46,45.55-92.1,108.21-110.9l4.57-1.4c12.85-4,26.13-8.06,40.16-5.25a4.57,4.57,0,1,1-1.79,9c-11.73-2.34-23.91,1.4-35.67,5l-4.64,1.42c-58.86,17.65-77.22,54.79-102.64,106.19q-2.85,5.74-5.81,11.69A4.56,4.56,0,0,1,2029,1071.19Z"/><path d="M1984,1585.69c-12.3,0-24.84-.94-36.76-1.84-10.64-.79-20.69-1.55-29.5-1.55-64.79,0-132.2-6.56-183.69-12.29-4.14-.46-9.65-.14-15.48.2-13.59.79-29,1.68-37.77-6.6-4.27-4-6.43-9.73-6.43-16.95a4.57,4.57,0,1,1,9.14,0c0,4.67,1.16,8,3.57,10.3,5.9,5.58,19.23,4.81,31,4.13,6.22-.37,12.12-.7,17-.16,51.25,5.7,118.34,12.23,182.68,12.23,9.15,0,19.36.77,30.18,1.58,29.77,2.23,63.5,4.75,85.23-8.28,30.9-18.55,57-72.43,74.25-108.08,2.65-5.47,5.13-10.58,7.43-15.17,19.89-39.78,43.45-78.61,66.23-116.17,33.45-55.13,68-112.14,91.42-172.92,6.33-16.46,16.31-48.56,12-78.67-8-56-69.74-124.47-130.4-124.47a4.57,4.57,0,1,1,0-9.14c66.78,0,130.9,72.38,139.45,132.31,4.6,32.17-5.87,66-12.52,83.25-23.67,61.55-58.48,118.91-92.14,174.39-22.68,37.39-46.15,76.06-65.87,115.51-2.28,4.55-4.74,9.63-7.37,15.06-18.79,38.82-44.54,92-77.78,111.93C2022.92,1583.26,2003.77,1585.69,1984,1585.69Z"/><path d="M1678.94,1547.14a4.57,4.57,0,0,1-3.23-7.8c14.24-14.23,20.28-58.78,10.59-78.14a4.57,4.57,0,0,1,8.18-4.09c10.52,21,5.93,70.46-12.31,88.69A4.52,4.52,0,0,1,1678.94,1547.14Z"/><path d="M1686.58,1462.21a4.57,4.57,0,0,1-2.85-8.14,62.63,62.63,0,0,0,6.06-5.92c4.81-5.09,10.25-10.86,17.77-12.46,12.33-2.62,24.73-.57,36.71,1.41,4.34.72,8.43,1.4,12.49,1.85,30.1,3.4,74.6,7.17,113.31.68,4.9-.83,12.12-3.53,19.77-6.4,18.66-7,39.8-14.93,52.58-6.63a4.57,4.57,0,1,1-5,7.67c-8.91-5.81-28.58,1.59-44.39,7.52-8.08,3-15.7,5.89-21.47,6.85-39.83,6.68-85.19,2.85-115.85-.6-4.29-.49-8.69-1.21-13-1.92-11.16-1.85-22.69-3.76-33.31-1.49-4.74,1-9,5.47-13,9.79a69.11,69.11,0,0,1-7,6.8A4.53,4.53,0,0,1,1686.58,1462.21Z"/><path d="M1786.5,1293.79c-26.58,0-61.82-2.3-84.06-5.83a66.14,66.14,0,0,1-14.3-4.48c-9.16-3.67-14.62-5.52-20.54-.8a4.57,4.57,0,1,1-5.7-7.15c10.37-8.26,20.6-4.15,29.64-.54a58.53,58.53,0,0,0,12.33,3.94c28,4.45,79.13,7,103.28,5.07a4.57,4.57,0,1,1,.71,9.11C1802,1293.57,1794.64,1293.79,1786.5,1293.79Z"/><path d="M1821.48,1405.26a4.13,4.13,0,0,1-1.15-.15c-25.61-6.65-52.66-9.4-78.82-12.06-7.11-.73-14.21-1.45-21.29-2.25-2.74-.31-6.45-.45-10.38-.6-12.45-.49-27.94-1.08-36.13-7.35a19,19,0,0,1-7.32-12.28,4.61,4.61,0,0,1-1.29,0,91.53,91.53,0,0,0-9.53-.39c-10.7-.11-22.83-.23-27-9.39-2.65-5.82-.17-16.86,3.93-33,1.76-7,3.59-14.22,3.72-17.77.18-4.94.18-14.21-1.71-21.44-.21-.35-.53-.86-.91-1.46-3.83-6-6.58-10.42-2.69-13.54,4.81-3.84,32.3,2.33,32.56,2.41,1.84.59,7.44,2.38,8.18,27.81a159.57,159.57,0,0,0,2.28,19.83c1.22,7.89,2.5,16,2.48,24.36a77.4,77.4,0,0,1-.67,8.66c-1.06,9.29-1.35,15.2,3.54,18.94,5.89,4.5,20.36,5.06,30.93,5.47,4.1.16,8,.31,11.06.66,7,.79,14.11,1.51,21.19,2.23,26.5,2.7,53.9,5.49,80.18,12.32a4.57,4.57,0,0,1-1.14,9Zm-180.57-123.64.39.62a13.08,13.08,0,0,1,1.89,3.48c2.33,8.46,2.35,19.06,2.14,24.62-.16,4.53-1.93,11.56-4,19.7-2.24,8.85-6,23.65-4.47,27,1.77,3.87,11.2,4,18.79,4a100,100,0,0,1,10.4.44c.14-2,.37-4,.58-5.9a71,71,0,0,0,.61-7.63c0-7.6-1.2-15.4-2.38-23a172.34,172.34,0,0,1-2.38-21c-.21-7.32-1.38-16.74-2.7-19.59C1656.46,1283.74,1647.18,1282.25,1640.91,1281.62Zm-5.63-.23Z"/><path d="M1674.65,1544.52a4.62,4.62,0,0,1-1.16-.15c-1.1-.29-2.2-.61-3.26-.92-1.54-.45-3-.88-4.37-1.16-14-2.89-20.75-5.9-23.91-10.73s-2-10.41-.65-16.8a78.12,78.12,0,0,0,2.23-19.87c0-1.72-1.41-7.22-2.62-12.07-3.89-15.68-5.23-22.42-2.88-26,6.72-10.36,49.18-2.64,49.59-2.54a4.57,4.57,0,1,1-2.31,8.85c-6.78-1.77-33.62-3.93-39.33-1.32,0,3.49,2.44,13.36,3.8,18.86,1.74,7,2.81,11.43,2.89,14a87.68,87.68,0,0,1-2.43,22.05c-1.12,5.23-1.7,8.26-.63,9.89,2.3,3.53,14.19,6,18.09,6.78,1.58.32,3.3.82,5.08,1.34,1,.28,2,.58,3,.85a4.57,4.57,0,0,1-1.16,9Z"/><path d="M1586.78,1356.66c-12.45,0-24.72-1.28-36.8-2.53s-23.28-2.41-34.63-2.41h-.56c-3,0-6.48.18-10,.34-16.34.74-26.55.82-30.58-4.71a8.22,8.22,0,0,1-.84-8c7.5-20.08,31.36-22.17,52.42-24,13.86-1.22,28.21-2.47,35.9-8.6a4.57,4.57,0,1,1,5.69,7.15c-9.84,7.84-25.58,9.22-40.8,10.55-20,1.75-38.89,3.4-44.53,17.79,3.43,1.61,15.59,1,22.31.73,3.71-.17,7.31-.34,10.45-.34,12.07,0,24.29,1.23,36.15,2.45,25.07,2.59,51,5.28,76.65-4.12a4.57,4.57,0,0,1,3.14,8.58C1615.87,1354.94,1601.21,1356.66,1586.78,1356.66Z"/><path d="M1435.53,1354.65a26.24,26.24,0,0,1-6.61-.85c-4.59-1.2-6.1-4.23-6.59-5.94-2-6.85,4.54-15.57,15.69-27.44.91-1,1.6-1.7,1.92-2.09,20.3-25.15,37.25-43.9,70.6-56.12a4.57,4.57,0,0,1,3.14,8.58c-31.21,11.43-46.65,28.52-66.63,53.28-.4.5-1.24,1.41-2.37,2.61-11.29,12-13.33,16.59-13.54,18.25l.09,0c13.33,3.49,27.47-10.86,40-23.5,7.23-7.32,14.07-14.24,20.78-18,13.52-7.53,31.52-4.48,47.38-1.79,7.72,1.31,15,2.55,21.24,2.55a4.57,4.57,0,0,1,0,9.14h0c-7,0-14.64-1.3-22.75-2.68-15.09-2.56-30.69-5.2-41.41.76-5.57,3.11-12,9.57-18.72,16.42C1465.18,1340.52,1451.22,1354.65,1435.53,1354.65Z"/><path d="M1414.74,1345.56a9.45,9.45,0,0,1-4.63-1.06,7,7,0,0,1-3.57-5.49c-.88-7.73,6.27-16.48,11.5-22.87,1.07-1.32,2-2.5,2.76-3.47,2.93-4,5.77-8.45,8.78-13.2,9.19-14.51,19.61-31,36.11-36.7,2.6-.9,5.24-1.85,7.92-2.81,19.55-7,41.72-15,63.24-12.64,18,1.91,34.92,9.68,51.26,17.2,14.7,6.77,29.9,13.76,45.51,16.17a4.57,4.57,0,1,1-1.4,9c-16.87-2.61-32.66-9.88-47.93-16.91-16.39-7.54-31.86-14.66-48.4-16.42-19.48-2.06-40.58,5.5-59.2,12.17-2.7,1-5.37,1.92-8,2.83-13.49,4.7-22.59,19.06-31.4,33-3.1,4.9-6,9.52-9.15,13.74-.8,1.08-1.85,2.37-3,3.82-3,3.72-8.36,10.24-9.36,14.43a20.1,20.1,0,0,0,4.73-1.48,4.57,4.57,0,1,1,3.87,8.29A25.56,25.56,0,0,1,1414.74,1345.56Z"/><path d="M1405.69,1338c-7,0-9.91-3-11.12-5.52-4.23-8.86,7-23,20.88-39.18,2-2.32,3.62-4.2,4.52-5.4,20.71-27.56,49.21-41.47,82.27-40.66a4.56,4.56,0,0,1,4.43,4.7,4.7,4.7,0,0,1-4.7,4.44c-30.31-.91-55.56,11.56-74.69,37-1,1.3-2.73,3.35-4.9,5.87-17.33,20.16-20.22,27-19.56,29.28a12.17,12.17,0,0,0,2.83.32h.54a4.63,4.63,0,0,1,4.71,4.43,4.58,4.58,0,0,1-4.43,4.71Z"/><path d="M1644.33,1522.77a4.56,4.56,0,0,1-2.72-.89c-8.8-6.53-56-14.46-69.93-15-6.37-.24-13-.3-19.7-.35-18.1-.14-36.82-.29-54-4.07a188.1,188.1,0,0,1-21.13-6.4,176.92,176.92,0,0,0-20-6.09c-20.75-4.57-53.79-17.15-70.94-24.5-12.32-5.27-17.6-9.36-18.22-14.11a7,7,0,0,1,2.85-6.53c9.08-7.15,23.1-5.07,33.33-3.56,1.73.25,3.36.49,4.86.67,9,1.07,18.81,3.4,29.21,5.87,26.24,6.22,56,13.28,85,3.45a4.57,4.57,0,0,1,2.93,8.65c-31.49,10.67-62.6,3.3-90.05-3.21-10.14-2.4-19.72-4.67-28.19-5.68-1.57-.19-3.29-.44-5.11-.71-7.83-1.16-18.3-2.7-24.64.61,1.53,1.19,4.78,3.22,11.62,6.15,20.3,8.69,51.49,20,69.31,24a189.59,189.59,0,0,1,21.06,6.38,183.06,183.06,0,0,0,20.11,6.12c16.2,3.57,34.43,3.71,52.06,3.85,6.8.06,13.5.11,20,.35,11,.43,62.9,7.8,75,16.78a4.57,4.57,0,0,1-2.72,8.24Z"/><path d="M1909.19,1047.42h0a4.56,4.56,0,0,1-4.54-4.6c.06-8.54,7.06-16.84,12.18-22.89l1.76-2.11c13.33-16.18,31-28.85,48.08-41.11,4-2.86,7.94-5.69,11.77-8.53a4.57,4.57,0,0,1,5.44,7.34c-3.87,2.87-7.86,5.73-11.88,8.61-16.61,11.92-33.78,24.24-46.35,39.5l-1.84,2.19c-4,4.71-10,11.83-10,17.06A4.57,4.57,0,0,1,1909.19,1047.42Z"/><path d="M1893.65,1068.22a4.58,4.58,0,0,1-4.53-4c-5-42.32,18.35-73.73,44.83-104.82l.78-.91c8.27-9.71,20.76-24.37,33.8-28.63a4.58,4.58,0,0,1,2.84,8.7c-10.59,3.44-22.08,16.93-29.68,25.86l-.78.91c-25.12,29.48-47.29,59.15-42.71,97.82a4.57,4.57,0,0,1-4,5.07A3.27,3.27,0,0,1,1893.65,1068.22Z"/><path d="M1294.47,1447.7a4.57,4.57,0,0,1-3.8-2l-91.16-136.51a31.56,31.56,0,0,1-5.92-9,68.7,68.7,0,0,1-3.72-12.84L1087,928.1c-1.15-3.67-3-10.54-2.08-14.06h0a5.89,5.89,0,0,1,3.82-4.22c3.11-1,6.24.71,8,2l50.8,27.37a26.12,26.12,0,0,1,9.11,7,31.1,31.1,0,0,1,5.12,11.07l137.07,484.61a4.59,4.59,0,0,1-2.48,5.4A4.65,4.65,0,0,1,1294.47,1447.7ZM1094.56,921.05c.34,1.42.75,3,1.21,4.43l103,359.53a3.63,3.63,0,0,1,.1.45,61.31,61.31,0,0,0,3.15,11,22,22,0,0,0,4.24,6.43,4.35,4.35,0,0,1,.65.77l75.33,112.81-129.25-457a22.47,22.47,0,0,0-3.42-7.66,17.9,17.9,0,0,0-5.92-4.43Z"/><path d="M1511.85,1453.8h-.11l-215.45-5.31a4.57,4.57,0,0,1-4.45-4.68,4.64,4.64,0,0,1,4.68-4.46l215.44,5.31a4.57,4.57,0,0,1-.11,9.14Z"/><path d="M1622.64,1456.54h-.12l-10.26-.25a4.58,4.58,0,0,1-4.46-4.69,4.7,4.7,0,0,1,4.68-4.45l9.78.24,16.21-3.13-86.37-90.14a4.57,4.57,0,1,1,6.6-6.32l92.18,96.2a4.56,4.56,0,0,1-2.43,7.64l-25,4.82A4.91,4.91,0,0,1,1622.64,1456.54Z"/><path d="M1528.17,1320.7a4.54,4.54,0,0,1-3.38-1.49l-7.46-8.18-17.09-.24a4.58,4.58,0,0,1-4.51-4.64,4.52,4.52,0,0,1,4.64-4.5l19.07.27a4.59,4.59,0,0,1,3.31,1.49l8.79,9.64a4.57,4.57,0,0,1-.29,6.45A4.52,4.52,0,0,1,1528.17,1320.7Z"/><path d="M1407.45,1309.45h-.07l-150.29-2.15a4.58,4.58,0,0,1-4.51-4.64,4.8,4.8,0,0,1,4.64-4.5l150.3,2.15a4.57,4.57,0,0,1-.07,9.14Z"/><path d="M1638.65,1450h-.15l-32.19-1a4.57,4.57,0,1,1,.29-9.14l32.19,1a4.57,4.57,0,0,1-.14,9.14Z"/><path d="M1500.22,1445.67h-.15l-205.27-6.39a4.57,4.57,0,0,1,.14-9.14h.15l205.27,6.38a4.57,4.57,0,0,1-.14,9.14Z"/><path d="M1340.25,1437.68a4.56,4.56,0,0,1-4.27-3L1288,1308a4.57,4.57,0,0,1,8.55-3.23l48,126.77a4.56,4.56,0,0,1-2.65,5.89A4.64,4.64,0,0,1,1340.25,1437.68Z"/><path d="M1476.82,1442.54a4.59,4.59,0,0,1-3.84-2.07l-62.11-95.19a4.57,4.57,0,0,1,7.66-5l62.11,95.19a4.57,4.57,0,0,1-3.82,7.07Z"/><path d="M1397.38,1320.79a4.57,4.57,0,0,1-3.84-2.07l-7.22-11.06a4.57,4.57,0,0,1,7.66-5l7.22,11.06a4.57,4.57,0,0,1-3.82,7.07Z"/><path d="M2194.44,1556.7a4.57,4.57,0,0,1-4.57-4.57c0-74.77,20.66-147.81,40.64-218.44,5.1-18,10.37-36.66,15.18-54.94,7.19-27.32,13-54,17.17-79.19.53-3.2,1-6.67,1.4-10.27,1.3-10.55,2.79-22.5,7.36-31.66a4.57,4.57,0,0,1,8.18,4.09c-3.88,7.75-5.26,18.88-6.47,28.69-.46,3.73-.91,7.34-1.46,10.65-4.25,25.51-10.08,52.43-17.34,80-4.83,18.35-10.12,37-15.23,55.1-19.8,70-40.29,142.45-40.29,216A4.56,4.56,0,0,1,2194.44,1556.7Z"/><path d="M2020.42,1805.25c-19.28,0-34.14-1.11-38-4a5.75,5.75,0,0,1-2.44-4.06c-1.31-12.61-1.72-44-2.2-80.45-.64-49.12-1.36-104.8-4.47-132.44a4.57,4.57,0,1,1,9.08-1c3.16,28.09,3.89,84,4.53,133.34.45,34.36.84,64.27,2,77.64,14.3,4.11,110.54.72,147-6.87,34.87-7.27,91.91-34.45,104.48-64.71.24-5.56-4.77-42.44-10.07-81.43-9.63-70.88-22.83-168-22.83-206.08a4.57,4.57,0,0,1,9.14,0c0,37.5,13.15,134.22,22.75,204.84,9.68,71.24,10.95,82.44,9.68,85.61-14.65,36.63-79.71,64.13-111.29,70.72C2117.45,1800.59,2059.75,1805.25,2020.42,1805.25ZM2240.29,1723Z"/><path d="M2215.1,1829a4.19,4.19,0,0,1-.5,0,4.57,4.57,0,0,1-4-5c2.24-20.58,2.2-42.09,2.15-62.89v-9a4.57,4.57,0,1,1,9.14,0v9c0,21,.1,42.82-2.2,63.9A4.58,4.58,0,0,1,2215.1,1829Z"/><path d="M1943.44,1080.4a37.08,37.08,0,0,1-7.32-.71c-11.81-2.36-11.8-15.34-11.79-22.31v-.56c0-13.87,4.84-44.6,16.49-56.25a4.57,4.57,0,1,1,6.46,6.46c-8.56,8.55-13.81,34.76-13.81,49.79v.57c0,8.07.7,12.59,4.44,13.34,18.55,3.71,46.65-12.19,79.19-44.73a4.57,4.57,0,0,1,6.46,6.46C2001.08,1054.94,1969.8,1080.4,1943.44,1080.4Z"/><path d="M1980.31,1777.07c-41.59,0-101.33-3-139.94-28.72a4.57,4.57,0,1,1,5.07-7.6c36.54,24.36,94.47,27.18,134.87,27.18a4.57,4.57,0,1,1,0,9.14Z"/><path d="M1640.34,1470.52a4.41,4.41,0,0,1-1.38-.21c-18.39-5.83-35.23-16.29-50.09-25.52-11.9-7.39-23.14-14.37-32.71-17.34-11.61-3.61-24.4-5.37-36.77-7.06-6.54-.9-13.31-1.82-19.81-3-1.24-.22-3-.91-7.33-2.61-4.94-1.94-18.9-7.43-24.47-7.72,1.4,5.34,6.81,9.4,12.07,13.33l2.48,1.89c6.62,5.1,13.74,8.82,20.63,12.41,10.85,5.66,22.06,11.5,31.13,22.69a4.57,4.57,0,1,1-7.09,5.76c-7.88-9.72-17.78-14.88-28.26-20.35-7.25-3.77-14.73-7.68-22-13.28l-2.38-1.8c-6.76-5.07-15.16-11.37-16-21.72a7,7,0,0,1,2.74-6.34c5.17-3.83,15.67-.77,34.5,6.63,2.35.93,5,2,5.69,2.14,6.24,1.14,12.9,2,19.34,2.93,12.74,1.75,25.91,3.55,38.24,7.39,10.69,3.33,22.41,10.61,34.82,18.31,14.41,9,30.74,19.09,48,24.57a4.57,4.57,0,0,1-1.38,8.92Z"/></svg>