<svg xmlns="http://www.w3.org/2000/svg" viewBox="0 0 430 294"><g style="isolation:isolate"><path d="M345.14,165.38c-1.3-.18-2.55-.7-3.84-1-11.21-14.46-25.52-27.12-38.76-39.67a1.56,1.56,0,0,0-.51-.3l-.24-.23a1.39,1.39,0,0,0-.8-.36c-5.36-1.8-11.16-1.18-16.75-1.2l-21.23,0-45.51-.08q-40.89-.06-81.77-.07h-6.26a2,2,0,0,0-.67.13h-.16a3.69,3.69,0,0,0-2.14,1.07,5.94,5.94,0,0,0-2.59,1.92,4.73,4.73,0,0,0-.61,1c-13.5,11.07-25.87,24.84-37.58,37.8-2.25-.05-4.26,3.93-2.51,4.44a1.24,1.24,0,0,0,.49.06h1c6.59,0,13.88.75,20.67.1,17.66,1.89,36.27.18,54,.19h57.8q27.3,0,54.6.06c18.53,0,37.5,1.13,56-.86a38,38,0,0,1,4.51.52c2,.47,3.11.71,5-.47a3.6,3.6,0,0,0,.46-.4.87.87,0,0,0,.26.4c1.61,1.4,3.76,1.38,5.73,1a3.66,3.66,0,0,0,2.29-2C346.37,166.56,346.28,165.49,345.14,165.38Z" fill="#7f7f7f"/><path d="M346.2,245.15l-.42-.06a2.55,2.55,0,0,0,.64-1.39c.41-10-.3-20.15-.27-30.17,0-11.18.46-22.35.38-33.53a1.06,1.06,0,0,0-.31-.87c0-.28-.06-.56-.12-.86-.13-.67-.63-.73-1.21-.49-.05-.66-.58-1.06-1.89-.86-2.44.38-4.9.63-7.37.8a40.15,40.15,0,0,0-7.9.28c-2.68,0-5.36,0-8-.08.23-.88,0-1.56-1.24-1.52a46.09,46.09,0,0,0-5.39.45,2.85,2.85,0,0,0-1.29.87l-.18,0c-.29-.34-.57-.69-.89-1-1.12-1.14-3.11.15-3.95,1a3.29,3.29,0,0,0-.29.32C291,175.35,274.29,177,258.77,177H200.46q-57,0-113.93.79a2.09,2.09,0,0,0-.55.08.87.87,0,0,0-.55-.38,1.5,1.5,0,0,0-.6,0,1,1,0,0,0-.12-.17c-.36-.42-1.09-.23-1.5,0a2.87,2.87,0,0,0-1.34,4.12,2.45,2.45,0,0,0,.26.37,1.42,1.42,0,0,0-.27.54c0,.34-.09.67-.13,1a2.12,2.12,0,0,0-.29,1c0,10.85.16,21.7.1,32.55-.05,9.5-1.55,20.16.3,29.47a.76.76,0,0,0,.36.56c-.33.81-.2,1.52.75,1.72a1.65,1.65,0,0,0,.32.06h.32a33.22,33.22,0,0,0,3.73.14,2.32,2.32,0,0,0,1-.25c42-1.1,84.23-.34,126.29-.4,22.26,0,44.5.35,66.75.28,11.09,0,22.17-.22,33.26-.33,10.07-.1,20.57.71,30.54-.79C345.77,247.18,347.3,245.34,346.2,245.15Z" fill="#c49257"/><path d="M378.07,184.5c-1.52-5.39-5.17-9.84-7-15.14-2-5.72-2.66-11.29-5.83-16.57-2.74-4.58-5.62-7.9-7-13.19-1.32-5-1-15.55-7.89-16.93-4-.81-7.49,2.89-9.75,5.7s-8.37,13.65-8.1,20.18c-.91,1-1.46,2.21-1,3,3.45,5.64,7.26,10.83,12.46,15,4,3.19,11,2.86,16.21,3.08-.4,4.76-1.71,9.37-1.95,14.16-.08,1.57.83,1.79,1.93,1.48q.06,1.64.18,3.27a4.69,4.69,0,0,0-1.11,1.85,25.75,25.75,0,0,0,.37,10.65c-.13,1.62-.23,3.25-.24,4.9,0,1,.43,1.35,1.05,1.39-.14.81-.25,1.62-.34,2.42a2.69,2.69,0,0,0-.6,1.4c-.05,1.26-.07,2.51-.09,3.77,0,0,0,.09,0,.13,0,1.62,0,3.23,0,4.85a2.42,2.42,0,0,0-.17,1.32c1.21,5.47,8.27,4,11.3.94,5.15-5.21,8.2-16.86,8.8-23.88A37.51,37.51,0,0,0,378.07,184.5Z" fill="#5ba354"/><path d="M94.65,129.19c-4-3.3-11.5-9.15-17-6-4.88,2.77-6.6,7-8,12.28-3.1,11.78-10.13,20-16.68,29.84-2.89,4.35-6.49,13-5,18.25,1.38,4.8,3.94,8.5,4,13.71.08,4.95-1.59,9.9-1.76,14.87-.29,7.95,7.4,14.72,10.12,21.79,1.78,4.63,5.18,7.52,9.52,4.14,1.35-1,1.63-2.92,1-3.6,2.46-10.79.74-23.48.76-34.47,0-9.63,1.51-20.94-.15-30.75,5.16-1,9.24-.38,13-4.8.4-.48.83-.94,1.26-1.4a51.58,51.58,0,0,0,6.52-6.28,52.43,52.43,0,0,0,8.07-8.71,3,3,0,0,0,.62-1.57,1.84,1.84,0,0,0,.29-.55C103.23,138.64,100.21,133.81,94.65,129.19Z" fill="#5ba354"/><path d="M163.86,218.85c.06-8.43.5-17-.14-25.38.57-.63.94-1.43.12-1.74l-.38-.13a.88.88,0,0,0-1.2-.4c-7.58-2.21-17.25-.77-24.95-.78-8.92,0-19-1.46-27.68.92a2.4,2.4,0,0,0-.68.38l0-.2c-.35-1.92-3.51.75-3.67,1.77-1.36,8.78-.52,18-.42,26.87.09,8-1.69,18.43.92,26,.25.71.86.58,1.44.17,2.37,1,5.6.51,8,.52h4.31l.13,0c5.61,1.84,11.9,1,17.74,1,7.15,0,14.68.62,21.66-1a1.33,1.33,0,0,0,.26-.11,1.11,1.11,0,0,0,.91.4,2.33,2.33,0,0,0,.53-.07c.68,1.1,2.35-.43,2.69-1.12,1.42-2.84.21-6.54-.19-9.58A158.16,158.16,0,0,0,163.86,218.85Z" fill="#7f7f7f"/><path d="M320.51,218.85c.05-8.43.5-17-.15-25.38.58-.63.95-1.43.12-1.74l-.37-.13a.9.9,0,0,0-1.21-.4c-7.58-2.21-17.25-.77-24.94-.78-8.92,0-19.06-1.46-27.68.92a2.4,2.4,0,0,0-.68.38,1.62,1.62,0,0,1,0-.2c-.35-1.92-3.51.75-3.67,1.77-1.37,8.78-.53,18-.43,26.87.09,8-1.68,18.43.92,26,.25.71.86.58,1.44.17,2.37,1,5.6.51,8,.52h4.32a.43.43,0,0,0,.12,0c5.61,1.84,11.9,1,17.74,1,7.15,0,14.68.62,21.67-1a1.28,1.28,0,0,0,.25-.11,1.12,1.12,0,0,0,.91.4,2.5,2.5,0,0,0,.54-.07c.67,1.1,2.34-.43,2.69-1.12,1.42-2.84.2-6.54-.2-9.58A160.64,160.64,0,0,0,320.51,218.85Z" fill="#7f7f7f"/><path d="M228.15,244.14l-.13-.08s0,0,0-.07a.89.89,0,0,0-.53-.51c1.35-8.14.63-16.85.74-25,.13-8.47,1.18-18.1-.79-26.36-.18-.75-.79-.7-1.44-.33l-.11,0c-2.23-.14-4.45,0-6.73-.2a20.93,20.93,0,0,0-7.69.17,1.55,1.55,0,0,0-.47.23c-3.64-.52-6.9-1.51-10.64-.62-1.52.36-3.38,3.37-1.75,3.79a47.86,47.86,0,0,0-.55,9.35v.73c-.46,8.84-.3,17.72-.1,26.6a42.65,42.65,0,0,0,.21,11.48v.12a1.89,1.89,0,0,0,.28,1.09l0,.08a2.61,2.61,0,0,0-.77,1.42c0,.32-.14.94.22,1.17,3,1.9,7.75.69,11.12.45,3.81-.27,8.89-1.29,12.6-.23a2.46,2.46,0,0,0,1.71-.23l.16.16a2.09,2.09,0,0,0,1.61.37,1.77,1.77,0,0,0,.35.23C227.14,248.57,230,245.29,228.15,244.14Z" fill="#7f7f7f"/><path d="M228.76,200.9c-.14-1-.74-1.16-1.42-.87-4.08-.93-8.46-.48-12.62-.48-5.3,0-10.7-.38-15.95.35-.77.11-2,1.85-.75,2l.75.1a2.89,2.89,0,0,0-1,1.69c-.69,14.08-2.06,29.12-.63,43.16.13,1.28,1,1.24,2,.69l0,0c3.9,1.84,9.37.85,13.61.85s8.7.55,12.83-1a1.57,1.57,0,0,0,.37-.21c.6.55,1.84-.79,2-1.32,2-6.84,1.14-14.44,1.15-21.53C229.13,216.65,229.77,208.59,228.76,200.9Z" fill="#b7b7b7"/><path d="M153.24,198c-.08-.61-.5-.57-.92-.3-5.16-.94-10.55-.47-15.78-.47-6.26,0-12.57-.25-18.81.17-.74,0-1.92,1.36-1.69,2-.09,8-.2,16.08-.19,24.12,0,7.87-1.13,16.28.42,24,.08.44.57.2.92-.13a1.5,1.5,0,0,0,1.11-.37c5.46.93,11.27.46,16.76.1,3.72-.24,7.39-1.21,11.14-.47,1.74.35,2.45,1.43,4.38,1.4a1.62,1.62,0,0,0,.8-.3c.48.56,2-.7,2-1.48.47-8,.18-16.19.21-24.24S154.27,205.91,153.24,198Z" fill="#b7b7b7"/><path d="M309.63,198c-.08-.61-.5-.57-.92-.3-5.15-.94-10.55-.47-15.78-.47-6.26,0-12.56-.25-18.81.17-.74,0-1.92,1.36-1.69,2-.09,8-.2,16.08-.19,24.12,0,7.87-1.13,16.28.42,24,.09.44.57.2.92-.13a1.53,1.53,0,0,0,1.12-.37c5.45.93,11.26.46,16.75.1,3.72-.24,7.39-1.21,11.14-.47,1.74.35,2.45,1.43,4.38,1.4a1.62,1.62,0,0,0,.8-.3c.49.56,2-.7,2.05-1.48.46-8,.17-16.19.2-24.24S310.66,205.91,309.63,198Z" fill="#b7b7b7"/><path d="M346.66,177.51c-.42-.75-1.22-.12-1.65.47-42.39-2.44-85.25-.79-127.7-.79-44.64,0-89.28-.34-133.92,0A2.23,2.23,0,0,0,82,178a2.43,2.43,0,0,0-.69.75c-.73,1.57-.59,3.25-.59,5a11.32,11.32,0,0,0,.6,4.88.45.45,0,0,0,.31.27c-.31.59-.34,1.15.1,1.36-1.69,8.2-.44,17.45-.31,25.69.08,5.12,0,10.24-.12,15.35s-1.32,10.55.92,15.2a.93.93,0,0,0,.94.62,2.13,2.13,0,0,0,1.74-.13,18,18,0,0,0,4.4.39,2.31,2.31,0,0,0,.19.14,5,5,0,0,0,2.07.27,9.39,9.39,0,0,0,2.37-.13c.86-.21,2.21-.68,2.13-1.54-.82-8,1.4-55.76.67-55.76l116,0q33.42,0,66.83-.06c21.61,0,43.67,1.25,65.2-.65a1.77,1.77,0,0,0,1.08-.88,2.09,2.09,0,0,0,.65-.7,13.07,13.07,0,0,0,.63-5.21C347.14,181.08,347.49,179,346.66,177.51Z" fill="#b7b7b7" style="mix-blend-mode:multiply"/><path d="M380,253.39c-.12-.64-.62-1.06-1.65-1-107.55-.49-215.12.15-322.67.16a2.77,2.77,0,0,0-.56.07A6.75,6.75,0,0,0,51,257.46c-.06.86.39,1.49,1.63,1.49h13.3a3.84,3.84,0,0,0-.91,2.65c.11.56.55.93,1.46.93h1.09l.18,0c6.85,0,13.7,0,20.55,0-1.57,1.18-2.9,3.34-2.6,4.6.12.61.59,1,1.58,1h.43a3.11,3.11,0,0,0,.32,0l134.61,0,67.2,0c21.61,0,44.76,2.38,66.07-1.52,1-.17,3.61-3.14,1.72-3.56-.38-.08-.77-.14-1.15-.21,4.56-.26,9.09-.66,13.58-1.24a4.22,4.22,0,0,0,2.66-2.63h2.42C377.47,259.17,380.48,255.29,380,253.39Z" fill="#b7b7b7"/><path d="M20.55,254.71c51,.13,102.06,0,153.09,0l151.94,0h83.75c.13,0,.33-.31.14-.31H107.82q-42.09,0-84.19,0c-.13,0-.32.29-.14.29h4.93c.14,0,.33-.31.15-.31H24.62c-.14,0-.34.31-.15.31H33c.14,0,.35-.33.15-.33H31.53c-.14,0-.35.33-.15.33H33c.14,0,.35-.33.15-.33H24.62c-.14,0-.34.31-.15.31h4c.14,0,.33-.31.15-.31H23.63c-.13,0-.32.29-.14.29q75.36-.08,150.73,0H409.33c.13,0,.33-.31.14-.31l-151.13,0H106.18q-42.77,0-85.53,0c-.09,0-.23.21-.1.21Z"/><path d="M81.74,173.8c-.07,10,0,20,0,30q0,14.58,0,29.16v8.92c0,.16.27,0,.27-.13v-1c0-.16-.27,0-.27.13V251c0,.17.27,0,.27-.13V185.57c0-.17-.28,0-.28.14v13.06c0,.17.28,0,.28-.14V183.79c0-.17-.29,0-.28.14v.59c0,.17.28,0,.28-.14,0-1,0-2,0-3,0-.17-.27,0-.27.13,0,4.74.06,9.48.06,14.22,0,.1.16,0,.16-.08,0-4.75,0-9.51,0-14.27,0-.17-.27,0-.27.13v3c0,.17.28,0,.28-.14v-.59c0-.17-.28,0-.28.14,0,4.94,0,9.89,0,14.84,0,.17.28,0,.28-.14V185.57c0-.17-.28,0-.28.14V251c0,.17.27,0,.27-.13V240.79c0-.16-.27,0-.27.13v1c0,.16.27,0,.27-.13V220.31l0-29.67c0-5.64,0-11.27,0-16.91,0-.08-.13,0-.13.07Z"/><path d="M83.5,177H84c.1,0,.25-.23.11-.23l-5.69,0c-.12,0-.3.27-.13.27q53,.08,106.07,0H290.28c19.86,0,39.73.13,59.59,0,.1,0,.25-.23.11-.23l-3.73,0c-.08,0-.21.19-.09.19l3.71,0c.1,0,.26-.23.11-.23-35.35-.27-70.71,0-106.06,0H138q-29.79,0-59.58,0c-.12,0-.3.27-.13.27L84,177c.1,0,.25-.23.11-.23h-.5c-.09,0-.24.21-.1.21Z"/><path d="M346.57,175.35c0,3.63,0,7.26,0,10.9,0,.13.22,0,.22-.11,0-1.94,0-3.87,0-5.81,0-.14-.23,0-.23.11v3.24c0,.14.23,0,.23-.11V176c0-.15-.24,0-.24.11q0,14.74,0,29.48v46c0,.15.26,0,.26-.13v-8c0-.16-.26,0-.26.12v8c0,.15.26,0,.26-.13V222q0-14.65,0-29.33V176c0-.15-.24,0-.24.11,0,2.53,0,5.06,0,7.59,0,.15.23,0,.23-.11v-3.24c0-.14-.23,0-.23.11v5.81c0,.13.22,0,.22-.11,0-3.63,0-7.25,0-10.88,0-.1-.17,0-.17.09Z"/><path d="M69.66,165.85q0,9.6,0,19.2c0,1.82,0,3.64,0,5.46,0,.15.25,0,.25-.12,0-5.82,0-11.64,0-17.45,0-.15-.24,0-.24.11q0,5.4,0,10.78c0,.15.25,0,.25-.12V163.18c0-.15-.25,0-.25.12v73.57c0,7,0,13.91,0,20.87,0,.13.22,0,.22-.11,0-1.88,0-3.75,0-5.63,0-.1-.16,0-.16.08,0,1.88,0,3.77,0,5.66,0,.13.22,0,.22-.11.06-12.38,0-24.77,0-37.16V163.18c0-.15-.25,0-.25.12v20.53c0,.15.25,0,.25-.12V172.94c0-.15-.24,0-.24.11,0,5.82,0,11.64,0,17.46,0,.15.25,0,.25-.12,0-6.39,0-12.79,0-19.18,0-1.81,0-3.63,0-5.44,0-.11-.17,0-.17.08Z"/><path d="M359.14,162.26q0,10.41,0,20.81V189c0,.14.23,0,.23-.11q0-10.28,0-20.56v-5.62c0-.14-.24,0-.24.12v14.88c0,.15.24,0,.24-.11v-18c0-.15-.24,0-.24.12v38.4q0,19,0,37.92,0,10.6,0,21.21c0,.16.27,0,.27-.13v-2.57c0-.15-.26,0-.26.13,0,1.7,0,3.41,0,5.12,0,.12.2,0,.2-.1v-.51c0-.12-.2,0-.2.09,0,.68,0,1.36,0,2.05,0,.1.16,0,.16-.08,0-.69,0-1.38,0-2.06,0-.12-.2,0-.2.09v.52c0,.12.2,0,.2-.1l0-5.15c0-.15-.26,0-.26.13,0,.85,0,1.71,0,2.57,0,.16.27,0,.27-.13q0-19,0-38V159.59c0-.15-.24,0-.24.12v18c0,.15.24,0,.24-.11V162.67c0-.14-.24,0-.24.12q0,10.14,0,20.29V189c0,.14.23,0,.23-.11q0-10.4,0-20.79c0-2,0-3.92,0-5.88,0-.11-.17,0-.17.08Z"/><path d="M69.17,169h3.08c.12,0,.29-.26.13-.26H67.24c-.12,0-.29.26-.13.26h2.06c.12,0,.29-.26.13-.26H65.7c-.12,0-.29.26-.13.26h233q31.36,0,62.73,0c.15,0,.35-.32.16-.32-1.6,0-3.19,0-4.78,0-.11,0-.27.24-.12.24,1.58,0,3.16,0,4.74,0,.15,0,.35-.32.16-.32q-57.22,0-114.44,0H65.7c-.12,0-.29.26-.13.26h3.6c.12,0,.29-.26.13-.26H67.24c-.12,0-.29.26-.13.26h5.14c.12,0,.29-.27.13-.26H69.29c-.11,0-.27.24-.12.24Z"/><path d="M83.27,247.8c8.75,0,17.49,0,26.24,0,.12,0,.3-.29.13-.29H82.26c-.13,0-.31.29-.14.29H291.38q29.24,0,58.47,0c.14,0,.34-.31.15-.31-3.18,0-6.35,0-9.53,0-.1,0-.24.22-.11.22h.77c.09,0,.23-.21.1-.21h-1.15c-.08,0-.21.19-.09.2h1.14c.09,0,.23-.21.1-.21h-.76c-.1,0-.24.22-.11.22,3.17,0,6.33,0,9.49,0,.14,0,.34-.31.15-.31q-52.41,0-104.83,0H82.26c-.13,0-.31.29-.14.29h27.39c.12,0,.3-.29.13-.29-8.75,0-17.5,0-26.25,0-.11,0-.27.25-.12.25Z"/><path d="M105.19,196.14q0,6.54,0,13.1c0,.15.24,0,.24-.12V191c0-.15-.24,0-.24.12v6.54c0,.15.24,0,.24-.12v-2.73c0-.15-.24,0-.24.11q0,10,0,20v20.49c0,3.82,0,7.65,0,11.48,0,.15.24,0,.24-.11,0-1.28,0-2.56,0-3.83,0-.1-.16,0-.16.07,0,1.29,0,2.58,0,3.87,0,.15.24,0,.24-.11,0-6.83,0-13.66,0-20.49s0-13.66,0-20.49v-11c0-.15-.24,0-.24.11v2.74c0,.15.24,0,.24-.12V191c0-.15-.24,0-.24.12v18.09c0,.15.24,0,.24-.12q0-6.54,0-13.07c0-.12-.18,0-.19.09Z"/><path d="M104.86,191.18q6.35,0,12.68,0c.13,0,.3-.28.13-.28H107.28c-.12,0-.3.28-.13.28h44.93c4.15,0,8.29,0,12.44,0,.1,0,.24-.23.1-.22h-.77c-.08,0-.21.19-.09.19l.76,0c.1,0,.24-.22.1-.22-7.41-.06-14.83,0-22.24,0h-35.1c-.12,0-.3.27-.13.28h10.39c.13,0,.3-.28.13-.28L105,191c-.09,0-.21.19-.09.19Z"/><path d="M164.1,191.51q0,8.27,0,16.54v4.65c0,.15.24,0,.24-.11V191c0-.14-.23,0-.23.11q0,7.49,0,15v4.31c0,.15.25,0,.25-.13V193.72c0-.14-.24,0-.24.12q0,10.4,0,20.79v20.86c0,3.95,0,7.91,0,11.86,0,.16.25,0,.25-.12,0-1,0-2,0-3.06,0-.1-.17,0-.17.08,0,1,0,2.07,0,3.1,0,.16.25,0,.25-.12q0-10.53,0-21.06V193.72c0-.14-.24,0-.24.12q0,6.38,0,12.75v3.81c0,.15.25,0,.25-.13q0-7.47,0-14.94V191c0-.14-.23,0-.23.11V212.7c0,.15.24,0,.24-.11,0-5.5,0-11,0-16.51v-4.65c0-.1-.16,0-.17.08Z"/><path d="M197.78,196.14q0,6.54,0,13.1c0,.15.25,0,.25-.12V191c0-.15-.25,0-.25.12v6.54c0,.15.25,0,.25-.12v-2.73c0-.15-.25,0-.25.11v40.53c0,3.82,0,7.65,0,11.48,0,.15.24,0,.23-.11,0-1.28,0-2.56,0-3.83,0-.1-.15,0-.15.07,0,1.29,0,2.58,0,3.87,0,.15.23,0,.23-.11,0-6.83,0-13.66,0-20.49V194.84c0-.15-.25,0-.25.11v2.74c0,.15.25,0,.25-.12V191c0-.15-.25,0-.25.12v18.09c0,.15.25,0,.25-.12q0-6.54,0-13.07c0-.12-.19,0-.19.09Z"/><path d="M197.63,191.18c2.18,0,4.36,0,6.54,0,.12,0,.3-.28.13-.28h-5.37c-.12,0-.29.28-.13.28h23.1c2.17,0,4.35,0,6.52,0,.1,0,.24-.23.11-.22h-.41c-.08,0-.21.19-.09.19l.39,0c.1,0,.24-.22.11-.22-3.81-.08-7.62,0-11.43,0H198.93c-.12,0-.29.27-.13.28h5.37c.12,0,.3-.28.13-.28l-6.58,0c-.08,0-.21.19-.09.19Z"/><path d="M228.19,191.51q0,8.27,0,16.54v4.65c0,.15.24,0,.24-.11,0-5.64,0-11.27,0-16.9V191c0-.14-.23,0-.23.11q0,7.49,0,15v4.31c0,.15.25,0,.25-.13V197.33c0-1.2,0-2.4,0-3.61,0-.14-.24,0-.24.12v41.65c0,3.95,0,7.91,0,11.86,0,.16.25,0,.25-.12,0-1,0-2,0-3.06,0-.1-.17,0-.17.08,0,1,0,2.07,0,3.1,0,.16.25,0,.25-.12,0-7,0-14,0-21.06V193.72c0-.14-.24,0-.24.12,0,4.25,0,8.5,0,12.75v3.81c0,.15.25,0,.25-.13q0-7.47,0-14.94V191c0-.14-.23,0-.23.11V212.7c0,.15.24,0,.24-.11q0-8.25,0-16.51v-4.65c0-.1-.17,0-.17.08Z"/><path d="M261.87,196.14q0,6.54,0,13.1c0,.15.24,0,.24-.12V191c0-.15-.24,0-.24.12v6.54c0,.15.25,0,.25-.12v-2.73c0-.15-.25,0-.25.11v40.53c0,3.82,0,7.65,0,11.48,0,.15.24,0,.24-.11,0-1.28,0-2.56,0-3.83,0-.1-.16,0-.16.07,0,1.29,0,2.58,0,3.87,0,.15.24,0,.24-.11,0-6.83,0-13.66,0-20.49V194.84c0-.15-.25,0-.25.11v2.74c0,.15.25,0,.25-.12q0-3.27,0-6.54c0-.15-.24,0-.24.12v18.09c0,.15.24,0,.24-.12q0-6.54,0-13.07c0-.12-.19,0-.19.09Z"/><path d="M261.53,191.18q6.35,0,12.69,0c.12,0,.3-.28.13-.28H264c-.12,0-.3.28-.13.28h44.94c4.14,0,8.29,0,12.43,0,.1,0,.24-.23.11-.22h-.78c-.08,0-.21.19-.09.19l.76,0c.1,0,.24-.22.11-.22-7.42-.06-14.83,0-22.25,0H264c-.12,0-.3.27-.13.28h10.4c.12,0,.3-.28.13-.28l-12.73,0c-.08,0-.21.19-.09.19Z"/><path d="M320.78,191.51q0,8.27,0,16.54v4.65c0,.15.24,0,.24-.11V191c0-.14-.24,0-.24.11V210.4c0,.15.26,0,.26-.13q0-6.47,0-12.94v-3.61c0-.14-.24,0-.24.12q0,10.4,0,20.79v20.86c0,3.95,0,7.91,0,11.86,0,.16.26,0,.26-.12,0-1-.05-2-.05-3.06,0-.1-.16,0-.16.08,0,1,0,2.07,0,3.1,0,.16.26,0,.26-.12,0-7,0-14,0-21.06V193.72c0-.14-.24,0-.24.12v12.75c0,1.27,0,2.54,0,3.81,0,.15.26,0,.26-.13q0-7.47,0-14.94V191c0-.14-.24,0-.24.11V212.7c0,.15.24,0,.24-.11q0-8.25,0-16.51l0-4.65c0-.1-.16,0-.16.08Z"/><path d="M82.23,167.26q7.69-7.65,15.37-15.34l15.27-15.26,8.65-8.64-.12-.12-14.47,14.46L92.55,156.74l-8.11,8.11.12.12,15.93-15.91,16-16c3-3,5.9-6,8.86-8.91.09-.09,0-.18-.09-.09q-8,8-15.94,15.9l-16,16-8.88,8.89c-.13.13,0,.25.12.12L99,150.51l14.37-14.38,8.12-8.11c.12-.12,0-.24-.12-.12q-7.68,7.68-15.35,15.35L90.79,158.52c-2.88,2.89-5.76,5.77-8.63,8.67-.07.07,0,.14.07.07Z"/><path d="M124.88,123.42c24.23.19,48.48.06,72.71.06H270q20.42,0,40.83,0c.12,0,.28-.26.12-.26l-5.78,0c-.1,0-.23.21-.1.21l5.76,0c.12,0,.28-.26.12-.26-24.24,0-48.49,0-72.73,0H165.81c-13.61,0-27.23,0-40.85.06-.07,0-.19.17-.08.17Z"/><path d="M346.34,168.31q-7.65-7.71-15.33-15.39l-15.25-15.27L307.11,129c-.09-.08-.3.13-.21.22l10.43,10.43,3,3,.22-.22-16-16-4.37-4.38c-.1-.09-.32.13-.23.23l9,9,9.12,9.12,9.21,9.22,9.21,9.21c3.08,3.08,6.14,6.17,9.25,9.21l1.16,1.13c.07.07.24-.1.17-.17-1.54-1.54-3-3.14-4.6-4.67l-4.59-4.59-9.21-9.21-9.23-9.22-9.12-9.13-9.06-9.05-1.12-1.12-.23.23,15.83,15.82,4.58,4.57c.09.09.31-.13.22-.22L310.15,132l-3-3-.21.22,15.35,15.35,15.28,15.25q4.32,4.32,8.67,8.63c.06.05.19-.09.14-.14Z"/><path d="M100.77,147.93c-1-6-4.37-14.36-11.56-14.49A8.42,8.42,0,0,0,84.09,135a20.18,20.18,0,0,0-3.71,4.06A7.44,7.44,0,0,1,78,141.45a2,2,0,0,1-2.32-.72,24.36,24.36,0,0,1-2-2.54,31.27,31.27,0,0,0-2.07-2.53A14.1,14.1,0,0,0,63,130.92a22.27,22.27,0,0,0-11.2,1.9,21.7,21.7,0,0,0-9.21,7,17.17,17.17,0,0,0-2.45,5.19,20.32,20.32,0,0,0-1.05,6,8.78,8.78,0,0,0,1.59,5c1,1.51,2.46,2.87,3.1,4.63,1.15,3.19-1.54,5.72-4,7.27s-5.35,2.79-7.48,4.92a7.38,7.38,0,0,0-2.11,7.59c1.05,2.89,3.85,4.9,6.33,6.51,1.38.9,2.81,1.71,4.24,2.54a21.74,21.74,0,0,1,4,2.6c3,2.78,4.06,6.9,4.12,10.86a31.74,31.74,0,0,1-.5,6c-.42,2.41-.82,4.83-1.17,7.25a18.34,18.34,0,0,0-.26,2.45,2.38,2.38,0,0,0,.3,1.41,2.08,2.08,0,0,0,1.19.76,10.55,10.55,0,0,0,2.55.43,19.56,19.56,0,0,1,3.59,0,2.94,2.94,0,0,1,1.82,1.85A24,24,0,0,1,57.81,228a27.24,27.24,0,0,0,1.31,4.61,7.23,7.23,0,0,0,2.63,2.91c.75.51,1.49,1,2.2,1.58s1.48,1.25,2.28,1.8c1.11.77,2.85,1.78,4.15.8,1.13-.85,1-2.73,1.5-3.95.06-.14-.13-.09-.17,0a23,23,0,0,0-.62,2.3c-.23.91-.61,1.72-1.65,1.82a4,4,0,0,1-2.42-.75,20.45,20.45,0,0,1-2.45-1.82,17.72,17.72,0,0,0-1.95-1.5,12.53,12.53,0,0,1-2-1.48A7.14,7.14,0,0,1,58.8,231c-.44-1.53-.77-3.09-1.16-4.63a11.33,11.33,0,0,0-1.85-4.49,2.84,2.84,0,0,0-2.37-.81c-.54,0-1.07.05-1.61.08a9.44,9.44,0,0,1-1.68-.13c-1.18-.16-2.8-.3-3-1.75a7.88,7.88,0,0,1,.09-2c.15-1.27.36-2.54.56-3.81.33-2.08.75-4.16,1-6.25a21.6,21.6,0,0,0-1.07-11.1,12,12,0,0,0-3.18-4.4,24.7,24.7,0,0,0-3.65-2.31,39.82,39.82,0,0,1-8.14-5.55,9.32,9.32,0,0,1-2.42-3.59,6.47,6.47,0,0,1,.17-4.34c1.07-2.91,3.91-4.6,6.47-6.06,2.28-1.3,5-2.59,6.39-4.9a5.13,5.13,0,0,0,.75-3.71c-.35-1.66-1.57-3-2.57-4.3a9.58,9.58,0,0,1-2.25-5.08,17.17,17.17,0,0,1,.8-6.16,18.14,18.14,0,0,1,2.43-5.51,18.63,18.63,0,0,1,4.26-4.33,24.82,24.82,0,0,1,11.07-4.57A14.72,14.72,0,0,1,68.05,133a17.74,17.74,0,0,1,4,3.56c.71.84,1.37,1.72,2,2.61a10.79,10.79,0,0,0,1.89,2.21c1.4,1.08,2.75,0,3.71-1.15a52.09,52.09,0,0,1,3.64-4.33,8.4,8.4,0,0,1,10.2-.88c2.87,1.82,4.65,5,5.79,8.13a27.74,27.74,0,0,1,1.29,4.89c0,.12.21,0,.2-.09Z"/><path d="M102.68,148.7c-.59-3.93-.73-7.9-1-11.87a30.45,30.45,0,0,0-.7-5.46,43,43,0,0,0-1.64-5.2c-.64-1.71-1.35-3.39-2-5.08a37.33,37.33,0,0,0-1.95-4.27c-1.23-2.23-3.08-4.13-5.75-4.4a4.3,4.3,0,0,0-4.48,2.13c-.46.75-.8,1.56-1.28,2.3a5.22,5.22,0,0,1-1,1.12,3.67,3.67,0,0,1-.61.42c-.37.21-.43.2-.64-.17a64.69,64.69,0,0,1-2.6-6.66c-.7-1.71-1.7-4.17-3.61-4.84-2.07-.72-4.06.72-5.55,2a11.61,11.61,0,0,1-2.5,1.86,3.05,3.05,0,0,1-3.21-.4c-.08-.06-.17,0-.2.11-.94,2.62-.59,5.62-2.29,8a14.66,14.66,0,0,1-7.1,5c-2.32.86-4.64,1.56-6.55,3.21a8.67,8.67,0,0,0-2.77,4.39,14.32,14.32,0,0,0-.14,5.61c.32,2.33,1.09,4.58,1.4,6.91a16.86,16.86,0,0,1-1,8c-.87,2.44-1.93,4.81-2.61,7.32a42.62,42.62,0,0,0-1.3,16.59c.76,5.7,4.62,10.62,4.34,16.52a43.69,43.69,0,0,1-1.85,8.75,23.55,23.55,0,0,0-.86,8.43c.58,5.92,4.32,10.54,6.73,15.79a53.85,53.85,0,0,1,2.65,8.81A28.43,28.43,0,0,0,54,237.66a6.61,6.61,0,0,0,1.26,2.06,15.74,15.74,0,0,0,4.64,3.17,12.39,12.39,0,0,0,5.4,1.5,3.82,3.82,0,0,0,1.9-.47c.09-.06.14-.27,0-.19-1.52.91-3.64.32-5.18-.22a18.87,18.87,0,0,1-5.39-2.91,8.58,8.58,0,0,1-1.69-1.66,11.34,11.34,0,0,1-1.4-3.16c-1-2.87-1.45-5.87-2.39-8.74-1.81-5.49-5.85-10-7.28-15.65a20,20,0,0,1-.05-9c.58-2.74,1.52-5.4,2-8.15a17.38,17.38,0,0,0-.39-7.95c-.8-2.76-2.05-5.37-2.9-8.12a27.15,27.15,0,0,1-1-8.32,42.46,42.46,0,0,1,.91-8.64,49.11,49.11,0,0,1,2.45-7.75,26.17,26.17,0,0,0,1.94-6.69c.52-4.67-1.83-9.05-1.63-13.73A8.93,8.93,0,0,1,47,127.66a13.27,13.27,0,0,1,6.34-3.86A19.07,19.07,0,0,0,60,120.38a11.12,11.12,0,0,0,2.37-2.88,10.36,10.36,0,0,0,1-3.49,19.69,19.69,0,0,1,.81-3.79l-.19.12a3.27,3.27,0,0,0,3.79.2c1.31-.78,2.33-2,3.6-2.81,1.52-1,3.53-1.44,5-.11s2.18,3.34,2.85,5.12a33.77,33.77,0,0,0,2.45,6.05s.06,0,.1,0c2-.82,2.55-2.68,3.6-4.35A3.65,3.65,0,0,1,88,112.64a6.52,6.52,0,0,1,4.73,1.26,10,10,0,0,1,2.69,3.45c.86,1.62,1.5,3.32,2.2,5,1.54,3.78,3.25,7.71,3.72,11.8.28,2.37.3,4.79.44,7.17s.36,5,.73,7.45c0,.11.18,0,.17-.08Z"/><path d="M332.87,150.61a40.59,40.59,0,0,1-1.78-14.07,22,22,0,0,1,1.25-7.11,9.56,9.56,0,0,1,4.65-5.18,8.53,8.53,0,0,1,8.05,0c.07,0,.23-.13.16-.19-1.22-1.07-1-2.5,0-3.64a7.72,7.72,0,0,1,3.38-2.06,19.51,19.51,0,0,1,8.92-.53,14.54,14.54,0,0,1,7.12,3.09,19,19,0,0,1,4.75,6.07,24.18,24.18,0,0,1,2.33,7.4,21.64,21.64,0,0,1,.23,3.86,16.88,16.88,0,0,1-1.1,5.15,49.4,49.4,0,0,1-2,4.68,16,16,0,0,0-1.23,2.86,1.87,1.87,0,0,0,.14,1.57,4.1,4.1,0,0,0,1.78,1.18c4.34,1.89,9.08,3,12.84,6.06a13.86,13.86,0,0,1,4,5.17,17.68,17.68,0,0,1,1.1,3.56,30.46,30.46,0,0,1,.42,4.48c.29,6.36.42,13-1.45,19.16a26.05,26.05,0,0,1-4.36,8.85,15.41,15.41,0,0,1-3.36,3.19,21.07,21.07,0,0,0-2.29,1.38,3.08,3.08,0,0,0-.94,2.1,25.45,25.45,0,0,0-.05,3.6,60.55,60.55,0,0,1,.18,7.5c-.22,2.57-1.11,5-3.52,6.23a5,5,0,0,1-4,.38,5.77,5.77,0,0,1-2.75-2.37,8.78,8.78,0,0,1-1.23-3.8c0-.12-.2,0-.19.1.22,2.42,1.4,5.08,3.74,6.14a5.73,5.73,0,0,0,6.45-1.82c1.5-1.79,1.77-4.28,1.79-6.53,0-2.57-.33-5.14-.28-7.72,0-1.12-.1-2.58.69-3.48a11.12,11.12,0,0,1,2.43-1.54,15.46,15.46,0,0,0,3.2-2.95,20.73,20.73,0,0,0,2.62-4c3-5.94,3.72-12.6,3.69-19.17,0-1.67-.06-3.34-.13-5a32.24,32.24,0,0,0-.37-4.49,15.83,15.83,0,0,0-2.77-6.68c-2.87-3.8-7.54-5.62-11.86-7.22-1.22-.45-2.46-.88-3.64-1.42-.63-.29-1.43-.66-1.66-1.37a3.66,3.66,0,0,1,.53-2.42c.63-1.43,1.33-2.82,1.94-4.26a24.91,24.91,0,0,0,1.6-4.76,16.59,16.59,0,0,0,.25-4.56,24.31,24.31,0,0,0-1.8-7.61c-2-4.81-5.76-9.15-11-10.45a21.18,21.18,0,0,0-8.79-.27c-2.28.41-5,1.42-6.13,3.67a2.3,2.3,0,0,0,.62,2.88l.16-.19c-4.32-2.54-10.13-.06-12.41,4.09a17.37,17.37,0,0,0-1.76,6.64,40.47,40.47,0,0,0,.11,8.16,38,38,0,0,0,1.59,7.83c0,.08.19,0,.16-.12Z"/><path d="M333.65,152.17c-.76-8.36-1.51-16.82.5-25.08a67.57,67.57,0,0,1,2.26-8c1-2.57,2.44-5.39,5-6.7,4.92-2.52,10.47,1.06,14.2,4.18a39.07,39.07,0,0,1,5.72,5.92,23.68,23.68,0,0,1,1.93,2.81,16.28,16.28,0,0,1,1.65,4.69c1.54,7.27-.36,14.75-1.39,22a23.11,23.11,0,0,0-.31,5.32,7.61,7.61,0,0,0,1.73,4.15c2,2.51,5,3.92,7.42,6a31,31,0,0,1,9.32,15.74,65.16,65.16,0,0,1,1.54,18.79c-.12,3.12-.36,6.24-.64,9.36s-.41,6.48-1.41,9.56a15.83,15.83,0,0,1-6.23,8.19,6.49,6.49,0,0,1-5.08,1.14A7.61,7.61,0,0,1,366,228a11.73,11.73,0,0,0-3.12-2.36l-.13.22c.66,0,1.26.35,1.92.38.1,0,.24-.21.11-.22-.67,0-1.26-.36-1.93-.39-.07,0-.24.17-.13.22a13.89,13.89,0,0,1,3.46,2.69,7.1,7.1,0,0,0,3.71,1.91,6.43,6.43,0,0,0,4.49-.84,16.91,16.91,0,0,0,4-3.38,17.13,17.13,0,0,0,3.75-8.56c.27-1.61.37-3.23.52-4.86s.29-3.17.41-4.76a92.39,92.39,0,0,0-.11-19.53c-.84-6.17-2.79-12.26-6.62-17.24a28.54,28.54,0,0,0-3.28-3.58,38.09,38.09,0,0,0-3.92-3,20,20,0,0,1-3.8-3.19,7.78,7.78,0,0,1-1.94-4.89,30,30,0,0,1,.5-5.83c.27-1.76.56-3.51.84-5.27a57.43,57.43,0,0,0,.91-11.41,19.68,19.68,0,0,0-2.59-9.61,33.84,33.84,0,0,0-4.92-6,32.36,32.36,0,0,0-6.87-5.29,12.26,12.26,0,0,0-7.22-1.87c-5.62.65-7.79,7-9,11.67a66.38,66.38,0,0,0-2,9.77,70.8,70.8,0,0,0-.06,12.94c.16,2.17.36,4.34.56,6.51,0,.1.18,0,.17-.08Z"/><path d="M134,193l0-4.63c0-.13-.22,0-.22.11v3.85c0,.14.23,0,.23-.11v-1.54c0-.15-.23,0-.23.11V192c0,.15.23,0,.23-.11v-3.85c0-.15-.24,0-.24.12q0,11.82,0,23.64v23.6c0,4.44,0,8.88,0,13.33,0,.16.27,0,.27-.13,0-.94,0-1.87,0-2.8,0-.11-.17,0-.17.08,0,1,0,1.9,0,2.85,0,.16.27,0,.27-.13.05-7.88,0-15.77,0-23.65s0-15.72,0-23.58q0-6.66,0-13.33c0-.15-.24,0-.24.12,0,1.28,0,2.56,0,3.84,0,.15.23,0,.23-.11v-1.28c0-.15-.23,0-.23.11v1.54c0,.14.23,0,.23-.11,0-1.29,0-2.57,0-3.85,0-.13-.22,0-.22.11l0,4.6c0,.11.17,0,.17-.08Z"/><path d="M291,192.21c0-.78,0-1.56.05-2.33,0-.15-.24,0-.24.11v1.29c0,.14.24,0,.24-.12,0-.94,0-1.89,0-2.83,0-.15-.25,0-.25.12v5.4c0,.15.26,0,.26-.13,0-.86,0-1.71,0-2.57,0-.16-.27,0-.27.13v45.91q0,6.44,0,12.86c0,.15.25,0,.25-.13v-.65c0-.16-.25,0-.25.12v1.17c0,.15.25,0,.25-.12v-.77c0-.16-.25,0-.25.12,0,.6,0,1.19,0,1.79,0,.15.23,0,.23-.11,0-.6,0-1.2,0-1.8,0-.16-.26,0-.25.12v.77c0,.15.25,0,.25-.12v-1.17c0-.16-.25,0-.25.12v.66c0,.15.25,0,.25-.13q0-11.49,0-23V191.15c0-.16-.27,0-.27.13v2.57c0,.15.26,0,.26-.13v-5.39c0-.15-.25,0-.25.12v2.83c0,.14.24,0,.24-.12v-1.28c0-.15-.24,0-.24.11q0,1.14.06,2.28c0,.09.13,0,.13-.06Z"/><path d="M69.54,168.67q-.09,1.08-.09,2.16c0,.39.43.4.7.28a1.19,1.19,0,0,0,.68-1c0-1.08,0-2.18,0-3.26,0-.85-1.4,0-1.38.66,0,.82,0,1.65,0,2.48,0,.37.4.37.66.26a1.12,1.12,0,0,0,.64-.88V165c0-.36-.4-.36-.65-.25a1.08,1.08,0,0,0-.63.87c0,11.76.11,23.53.12,35.3s0,23.59-.06,35.38q0,5-.08,10l-.06,4.92a44.62,44.62,0,0,0,.09,5c.09.77,1.31,0,1.25-.6l0-.37c0-.32-.33-.34-.59-.23a1,1,0,0,0-.58.79l0,.41c0,.36.42.34.64.24a1,1,0,0,0,.61-.84,41.19,41.19,0,0,0,.1-4.58l0-4.33q0-4.42-.08-8.85c0-5.85-.08-11.7-.08-17.55,0-11.79,0-23.59.06-35.38.05-6.66.05-13.32.07-20,0-.36-.4-.36-.65-.25a1.08,1.08,0,0,0-.63.87V170c0,.37.4.37.66.26a1.1,1.1,0,0,0,.64-.88c0-.85,0-1.68,0-2.52,0-.4-.44-.4-.7-.28a1.19,1.19,0,0,0-.68.94c0,1.09,0,2.18,0,3.27,0,.39.42.4.7.28a1.17,1.17,0,0,0,.68-1c0-.69,0-1.37-.09-2.07,0-.33-.35-.35-.61-.23a1,1,0,0,0-.59.81Z"/><path d="M51.49,254.15h3.08c.68,0,1.66-1.52.73-1.52H53.24c-.68,0-1.64,1.51-.72,1.5h2.57c.67,0,1.62-1.48.71-1.48H52.21c-.67,0-1.61,1.48-.71,1.48H63.82c.66,0,1.61-1.48.71-1.48H51.69c-.66,0-1.6,1.48-.7,1.48l128.6,0c42.8,0,85.59-.08,128.39.06,24,.07,48,.22,72,0,.68,0,1.66-1.53.73-1.52h-1c-.68,0-1.64,1.51-.72,1.5s2.06,0,3.09,0c.65,0,1.55-1.47.69-1.44l-1.05.05c-.6,0-1.45,1.38-.64,1.34l2.06-.08c.53,0,1.27-1.21.56-1.18l-.49,0c-.51,0-1.23,1.14-.54,1.14l.47,0c.53,0,1.29-1.14.56-1.18l-2-.08c-.6,0-1.47,1.31-.64,1.34l1,.05c.66,0,1.57-1.41.69-1.44s-2,0-3.06,0c-.68,0-1.65,1.49-.72,1.5h1c.68,0,1.66-1.51.73-1.52-42.75-.41-85.51.07-128.26.06l-128.5,0-72.26,0c-.66,0-1.6,1.48-.7,1.48H63.82c.66,0,1.61-1.48.71-1.48H52.21c-.67,0-1.62,1.48-.71,1.48h3.59c.67,0,1.62-1.48.71-1.48H53.24c-.68,0-1.65,1.5-.72,1.5h2c.68,0,1.66-1.52.73-1.52H52.22c-.68,0-1.66,1.52-.73,1.52Z"/><path d="M359.12,167a10.49,10.49,0,0,0-.24,1.76c0,.38.43.39.68.26a1.12,1.12,0,0,0,.67-.91c0-.17,0-.34,0-.52,0-.39-.43-.39-.69-.27a1.18,1.18,0,0,0-.68.93v1c0,.39.44.4.71.27a1.2,1.2,0,0,0,.69-.95l0-1.81c0-.41-.46-.42-.74-.29a1.24,1.24,0,0,0-.72,1v.78c0,.41.46.42.75.29a1.24,1.24,0,0,0,.72-1v-.77c0-.43-.46-.43-.75-.3a1.26,1.26,0,0,0-.74,1c-.05,5.77,0,11.55,0,17.32v17.28c0,11.45,0,22.9,0,34.35V251a20.34,20.34,0,0,0,.23,4.2c.06.28.48.11.61,0a.73.73,0,0,0,.34-.7,1.18,1.18,0,0,0,0-.2c0-.05-.05-.09-.05-.13,0,.17,0,.07,0,0,0-.51-.83,0-.83.4,0,0,0,.09,0,0s0,.09,0,.12a2,2,0,0,0,0,.24c-.12.7.88.21,1-.24a23.08,23.08,0,0,0,.23-3.9c0-1.46,0-2.92,0-4.37v-8.57q0-8.64,0-17.29,0-17.19,0-34.38c0-6.47.06-12.95,0-19.41,0-.42-.46-.44-.75-.3a1.27,1.27,0,0,0-.74,1v.77c0,.41.46.43.75.29a1.24,1.24,0,0,0,.72-1v-.77c0-.41-.45-.42-.74-.29a1.22,1.22,0,0,0-.72,1c0,.6,0,1.19,0,1.79,0,.39.43.4.71.27a1.18,1.18,0,0,0,.69-.95l0-1c0-.38-.42-.4-.69-.27a1.18,1.18,0,0,0-.68.93c0,.17,0,.34,0,.51,0,.38.42.39.68.26a1.11,1.11,0,0,0,.67-.91,3.82,3.82,0,0,0-.06-.83l-.18-.69c-.12-.47-.82.19-.87.41Z"/><path d="M70.46,168.68h-.52c-.71,0-1.73,1.58-.76,1.58h1.28c.72,0,1.73-1.58.77-1.58H68.66c-.71,0-1.73,1.58-.76,1.58l59.83,0,60.13,0H307.51c16.68,0,33.36.16,50.05.15l5.05,0c.77,0,1.85-1.7.82-1.7-2.14,0-4.26.07-6.39.22-.56,0-1.36,1.31-.61,1.26l.5,0c.53,0,1.27-1.23.57-1.18l-.5,0c-.44,0-1.27,1.05-.53,1.11l.46,0c.54,0,1.3-1.12.57-1.18l-.46,0c-.57,0-1.39,1.2-.61,1.26,2.06.16,4.12.21,6.18.22.77,0,1.86-1.69.82-1.7-15.86-.08-31.71.13-47.56.13H195.93l-59.8,0-60.11,0H68.66c-.71,0-1.73,1.58-.76,1.58h2.56c.72,0,1.73-1.58.77-1.58H69.94c-.71,0-1.73,1.58-.76,1.58h.51c.72,0,1.74-1.58.77-1.58Z"/><path d="M80.8,177.76v.93c0,.39.43.4.7.28a1.2,1.2,0,0,0,.69-.95v-.16c0-.39-.43-.4-.7-.27a1.17,1.17,0,0,0-.69.94c0,.51,0,1,0,1.54s.42.4.69.27a1.14,1.14,0,0,0,.68-.93c0-1,0-2,0-3.08,0-.38-.42-.39-.68-.26a1.13,1.13,0,0,0-.67.91l0,13.86c0,4.6.09,9.2.09,13.81,0,9.22,0,18.44,0,27.67l-.07,7.77c0,2.56-.11,5.13.06,7.69.05.76,1.27,0,1.23-.59,0-.37-.07-.73-.12-1.09s-.28-.3-.5-.2a.86.86,0,0,0-.49.67c0,.4-.09.81-.12,1.21s.4.35.62.25a1,1,0,0,0,.61-.84c.15-2.3.09-4.6.07-6.91l-.06-6.86c-.05-4.6-.05-9.19-.05-13.79s0-9.22,0-13.83.06-9.26.09-13.9c0-5.19,0-10.38,0-15.57,0-.38-.42-.39-.68-.26a1.13,1.13,0,0,0-.67.91c0,1,0,2.06,0,3.09,0,.39.43.4.69.27a1.16,1.16,0,0,0,.68-.93c0-.52,0-1,0-1.55s-.43-.4-.7-.27a1.17,1.17,0,0,0-.69.94v.16c0,.39.43.4.7.28a1.18,1.18,0,0,0,.69-.95v-.93c0-.39-.43-.4-.7-.27a1.19,1.19,0,0,0-.69.94Z"/><path d="M82,248.49h1.28C84,248.49,85,247,84,247h-.77c-.68,0-1.64,1.49-.72,1.49h.77C84,248.5,85,247,84,247H83c-.68,0-1.64,1.5-.72,1.51,34.56.06,69.12-.08,103.68-.09,34.37,0,68.75-.21,103.12.08q28.5.24,57,0c.71,0,1.72-1.58.76-1.58l-3.35,0c-.69,0-1.67,1.54-.74,1.53s1.73,0,2.59,0c.65,0,1.57-1.48.7-1.45-1.05,0-2.1.07-3.15.14-.52,0-1.25,1.21-.56,1.17l1.59-.11c.38,0,1.08-.9.46-.95l-1.49-.11c-.53,0-1.28,1.11-.56,1.17,1,.07,2,.11,3,.14.66,0,1.59-1.42.7-1.45s-1.7,0-2.55,0c-.69,0-1.67,1.52-.74,1.53l3.33,0c.71,0,1.73-1.57.76-1.58-34.12-.24-68.24.24-102.36.19q-51.57-.09-103.13-.09c-19.45,0-38.9-.09-58.35-.06-.68,0-1.64,1.51-.72,1.51h1c.67,0,1.63-1.5.72-1.49h-.77c-.68,0-1.64,1.49-.72,1.49h.77C84,248.49,85,247,84,247H82.75c-.67,0-1.63,1.49-.71,1.49Z"/><path d="M346.5,178.06a8.27,8.27,0,0,0-.19,1.31l0,1.21c0,.4.44.41.71.28a1.17,1.17,0,0,0,.69-1c0-.63,0-1.26,0-1.89,0-.4-.43-.41-.71-.28a1.18,1.18,0,0,0-.69.95v.36c0,.39.44.4.71.27a1.18,1.18,0,0,0,.69-.95v-2.56c0-.4-.43-.41-.71-.28a1.18,1.18,0,0,0-.69.95c0,4.66,0,9.32,0,14l.1,14.15q0,7.14.05,14.26c0,4.7-.05,9.39-.08,14.08s-.08,9.16-.12,13.74c0,.55,0,1.11,0,1.67,0,.4.43.42.73.28a1.18,1.18,0,0,0,.71-1,11.39,11.39,0,0,0-.31-2.25c-.11-.44-.78.18-.82.39a18.44,18.44,0,0,0-.31,2.56c0,.41.47.41.73.28a1.22,1.22,0,0,0,.71-1c.07-1.12,0-2.25,0-3.37l0-3.39-.06-6.81c-.05-4.66-.06-9.31-.09-14s0-9.52,0-14.28l.1-14.26c0-4.67,0-9.35,0-14v-1.73c0-.4-.43-.41-.71-.28a1.18,1.18,0,0,0-.69.95v2.57c0,.39.44.4.71.27a1.18,1.18,0,0,0,.69-.95V178c0-.4-.43-.41-.71-.28a1.18,1.18,0,0,0-.69.95c0,.63,0,1.26,0,1.89,0,.4.43.41.71.28a1.18,1.18,0,0,0,.69-1l0-1.19a5.36,5.36,0,0,0-.19-1.12c0-.22-.35-.16-.48-.1a.89.89,0,0,0-.48.56Z"/><path d="M80.82,177.78l3,.07c.62,0,1.49-1.34.66-1.36l-1.11,0c-.63,0-1.53,1.38-.67,1.4h.34c.64,0,1.55-1.4.68-1.42l-1,0c-.66,0-1.59,1.45-.7,1.46,11.14.11,22.29,0,33.42,0s22.11,0,33.17,0c22.05,0,44.1-.06,66.15.1,12.27.1,24.54.1,36.81.11.82,0,2-1.82.88-1.82-2.75,0-5.49,0-8.23,0a1.45,1.45,0,0,0-1.19.86c-.16.34-.16.89.34.89,1.58,0,3.14-.08,4.71-.19.56,0,1.57-1.31.67-1.38q-2.27-.16-4.53-.18c-.79,0-1.92,1.73-.85,1.75,2.74,0,5.47,0,8.2,0,.82,0,2-1.82.88-1.82-22.11,0-44.21.22-66.31.21s-44.2,0-66.3,0c-12.37,0-24.75-.15-37.12,0-.66,0-1.58,1.48-.7,1.46l1,0c.64,0,1.54-1.43.68-1.42h-.35c-.63,0-1.52,1.42-.67,1.4l1.12,0c.61,0,1.48-1.37.66-1.36l-3.11.07c-.54,0-1.36,1.21-.59,1.22Z"/><path d="M260.7,177.82a12.59,12.59,0,0,0,1.73.13,1.34,1.34,0,0,0,1.06-.77c.14-.3.14-.79-.31-.79h-.77a1.29,1.29,0,0,0-1.05.76c-.14.3-.14.78.3.78H264a1.29,1.29,0,0,0,1-.76c.14-.3.14-.78-.31-.78l-4.12,0a1.23,1.23,0,0,0-1,.73c-.14.28-.14.75.29.74,11.44-.21,22.89-.08,34.33-.08h17.14c5.71,0,11.43-.05,17.14,0,3.16,0,6.32,0,9.48.1,1.6,0,3.21.09,4.81.08.78,0,1.56,0,2.35-.08l.94-.07.35-.05s.49,0,.26,0a1,1,0,0,0,.83-.6c.11-.23.12-.64-.24-.62s-.72.09-1.08.09a.88.88,0,0,0-.7.51c-.09.21-.09.53.21.53s.65.08,1,.09a1,1,0,0,0,.83-.6c.11-.24.11-.62-.24-.62.2,0-.08,0-.13,0l-.3,0c-.24,0-.48-.06-.72-.07-.67,0-1.34-.08-2-.09-1.45,0-2.9,0-4.35,0-2.84.06-5.69.07-8.53.1-5.73.06-11.45,0-17.17,0H279.78c-6.4,0-12.79,0-19.19-.09a1.22,1.22,0,0,0-1,.73c-.14.3-.13.74.29.74,1.36,0,2.72,0,4.09,0a1.29,1.29,0,0,0,1-.76c.14-.3.14-.78-.31-.78h-2.3a1.3,1.3,0,0,0-1.05.76c-.14.3-.14.78.3.78h.77a1.31,1.31,0,0,0,1.06-.77c.14-.31.14-.78-.31-.79a14.54,14.54,0,0,0-1.86.13,1.11,1.11,0,0,0-.88.64c-.14.3-.1.61.26.66Z"/><path d="M261.22,190.53c-.15,2.21-.22,4.42-.22,6.65v3.23c0,1.09.08,2.16.13,3.24,0,.36.39.38.65.26a1.06,1.06,0,0,0,.63-.87c-.09-1.81,0-3.62,0-5.44,0-1.53,0-3.06.05-4.6,0-.39-.44-.4-.71-.27a1.19,1.19,0,0,0-.69.94c0,6.89,0,13.78,0,20.67s0,13.76,0,20.65c0,3.77-.13,7.55,0,11.32,0,.42.46.44.76.3a1.27,1.27,0,0,0,.74-1,12.21,12.21,0,0,0-.07-1.35l-.16-1.11c0-.28-.29-.32-.53-.21a.94.94,0,0,0-.51.71l-.16,1.26a13.63,13.63,0,0,0-.07,1.42c0,.43.47.43.76.3a1.29,1.29,0,0,0,.74-1c.08-3.37,0-6.73,0-10.1s0-6.78,0-10.17q0-10.38,0-20.76c0-3.85,0-7.7,0-11.56,0-.39-.44-.4-.71-.27a1.17,1.17,0,0,0-.69.94c0,1.52,0,3,.05,4.56,0,1.81.09,3.62,0,5.42,0,.37.41.37.65.26a1.12,1.12,0,0,0,.63-.87c.05-1.1.13-2.2.13-3.3v-3.31c0-2.15-.06-4.29-.22-6.44,0-.31-.33-.33-.57-.22a1,1,0,0,0-.55.76Z"/><path d="M262.45,191.91c.1-.13.21-.25.32-.38l.21-.25.06-.09a1.23,1.23,0,0,0,.14-.25v0l.06-.16a.68.68,0,0,0,0-.14.27.27,0,0,0-.29-.29l-.14,0-.16,0,0,0a.89.89,0,0,0-.25.14l-.09.06c-.09.06-.17.14-.26.21s-.24.22-.37.32a1,1,0,0,0-.21.29.72.72,0,0,0-.13.28.46.46,0,0,0,0,.26.29.29,0,0,0,.09.21l.13.08a.65.65,0,0,0,.34,0l.19-.07a1.65,1.65,0,0,0,.38-.27Z"/><path d="M262.13,191.62a4.51,4.51,0,0,0,.89.17h2.76a1.28,1.28,0,0,0,1-.75c.14-.3.14-.78-.3-.78h-.26a1.27,1.27,0,0,0-1,.76c-.14.3-.14.77.3.77h.77a1.27,1.27,0,0,0,1-.75c.15-.3.14-.78-.3-.77h-2.57a1.28,1.28,0,0,0-1,.75c-.14.3-.13.77.31.77,7.72,0,15.45-.07,23.18-.11s15.23,0,22.84.07l6.39,0a60.86,60.86,0,0,0,6.19-.2,1,1,0,0,0,.77-.56c.09-.19.11-.6-.23-.57l-.8.08a.86.86,0,0,0-.67.48c-.1.22-.07.47.2.5l.73.07c.51.06,1.25-1.05.54-1.13a50.82,50.82,0,0,0-5.38-.2l-5.69,0-11.51.07c-7.63,0-15.27,0-22.9-.05l-12.94,0a1.28,1.28,0,0,0-1,.75c-.14.3-.13.77.31.77h2.56a1.27,1.27,0,0,0,1-.75c.15-.3.14-.77-.3-.77h-.77a1.27,1.27,0,0,0-1,.76c-.15.3-.14.77.3.77h.26a1.28,1.28,0,0,0,1-.75c.14-.3.14-.78-.3-.78h-2.76a6.19,6.19,0,0,0-1.05.16,1.1,1.1,0,0,0-.69.59c-.08.17-.14.54.12.6Z"/><path d="M320,190.76a32.89,32.89,0,0,0-.15,4.44c0,.37.41.38.67.26a1.12,1.12,0,0,0,.65-.9c0-.68,0-1.36,0-2,0-.35-.39-.36-.64-.25a1.07,1.07,0,0,0-.62.86c0,.51,0,1,0,1.54,0,.35.39.36.64.24a1.06,1.06,0,0,0,.62-.85l0-4.12c0-.37-.41-.38-.67-.26a1.12,1.12,0,0,0-.65.9c-.06,7.41,0,14.83,0,22.25s0,14.82,0,22.23c0,3.93-.13,7.89.23,11.8.05.59,1,0,.94-.45,0-.07,0-.14,0-.21s0-.08,0-.12,0-.13,0-.06v0c0-.25-.27-.25-.44-.18a.75.75,0,0,0-.43.59v0q0-.12,0,.06a.62.62,0,0,0,0,.13l0,.23c0,.28.31.27.47.19a.8.8,0,0,0,.47-.64c.3-3.55.25-7.11.23-10.67l-.05-11.05c0-7.42,0-14.85,0-22.27,0-4.16,0-8.32,0-12.48,0-.37-.41-.38-.67-.26a1.12,1.12,0,0,0-.65.9l0,4.09c0,.35.39.36.64.24a1.06,1.06,0,0,0,.62-.85c0-.51,0-1,0-1.54,0-.35-.4-.36-.64-.25a1.09,1.09,0,0,0-.62.86c0,.69,0,1.38,0,2.07,0,.37.41.38.67.26a1.12,1.12,0,0,0,.65-.9,29.21,29.21,0,0,0-.15-4.29c0-.28-.29-.31-.52-.2a.86.86,0,0,0-.5.69Z"/><path d="M197.14,190.64c-.06.26-.14.52-.18.79s0,.59,0,.88c0,.45,0,.9,0,1.35s.4.38.67.26a1.11,1.11,0,0,0,.65-.9c0-.51,0-1,0-1.53s-.4-.37-.65-.26a1.1,1.1,0,0,0-.63.88v1.54c0,.36.4.37.65.25a1.08,1.08,0,0,0,.63-.87v-2.57c0-.36-.4-.37-.65-.25a1.08,1.08,0,0,0-.63.87q0,11,0,22v22.08c0,4.12-.09,8.25,0,12.36,0,.37.4.39.66.26a1.09,1.09,0,0,0,.64-.88,17.38,17.38,0,0,0-.13-2.5c-.1-.63-1,0-1,.37a23,23,0,0,0-.15,2.75c0,.38.41.38.66.26a1.09,1.09,0,0,0,.64-.88c.07-3.66,0-7.33,0-11v-11c0-7.37,0-14.73,0-22.09,0-4.12,0-8.24,0-12.36,0-.36-.4-.37-.65-.25a1.08,1.08,0,0,0-.63.87v2.57c0,.36.4.37.65.25a1.08,1.08,0,0,0,.63-.87v-1.54c0-.36-.4-.37-.65-.26a1.1,1.1,0,0,0-.63.88c0,.51,0,1,0,1.55,0,.37.42.38.67.26a1.13,1.13,0,0,0,.65-.9c0-.46,0-.91,0-1.37,0-.26,0-.53,0-.78a3.46,3.46,0,0,0-.19-.7c-.06-.21-.34-.16-.48-.09a.86.86,0,0,0-.48.56Z"/><path d="M197.27,191.51a7.19,7.19,0,0,0,1.13.18c.4,0,.79,0,1.19,0a1.18,1.18,0,0,0,1-.69c.13-.29.12-.71-.28-.72l-1.78,0a1.27,1.27,0,0,0-1,.74c-.14.3-.13.74.3.75,2,0,3.95,0,5.93,0h6.1l11.93,0a55.35,55.35,0,0,0,6.44-.19.87.87,0,0,0,.67-.49c.1-.22.07-.45-.2-.49a38.57,38.57,0,0,0-5.48-.19l-5.89,0-12,0c-2.25,0-4.5,0-6.75,0a1.27,1.27,0,0,0-1,.74c-.13.28-.13.76.3.75l1.81,0a1.18,1.18,0,0,0,1-.69c.13-.27.13-.73-.28-.72l-1.24.05a11.39,11.39,0,0,0-1.29.17.92.92,0,0,0-.56.48c-.06.14-.12.45.09.49Z"/><path d="M227.69,191.26a23.44,23.44,0,0,0-.19,2.65c0,.38.41.39.67.27a1.14,1.14,0,0,0,.66-.91v-1c0-.38-.42-.38-.68-.26a1.12,1.12,0,0,0-.66.91c0,.36,0,.71,0,1.07s.41.39.68.27a1.12,1.12,0,0,0,.66-.92c0-.78,0-1.56,0-2.34,0-.37-.41-.38-.67-.26a1.12,1.12,0,0,0-.65.89q0,10.88,0,21.73t.1,21.76c0,2,0,4,0,5.95,0,1,0,2,0,3s.08,1.92.16,2.89c0,.52.87,0,.84-.4l-.07-.74c0-.2-.2-.21-.35-.14a.58.58,0,0,0-.35.48l-.07.8c0,.24.28.23.43.16a.69.69,0,0,0,.41-.56c.07-.9.16-1.8.16-2.7s0-1.76,0-2.63c0-1.78,0-3.56,0-5.34l.06-10.79c0-7.32.06-14.63.05-21.94V191c0-.37-.41-.38-.67-.26a1.12,1.12,0,0,0-.65.89c0,.79,0,1.57,0,2.36,0,.38.42.39.68.27a1.14,1.14,0,0,0,.66-.92c0-.35,0-.71,0-1.07s-.41-.39-.68-.26a1.14,1.14,0,0,0-.66.91v1c0,.38.41.39.67.27a1.14,1.14,0,0,0,.66-.91,22.63,22.63,0,0,0-.2-2.47c0-.26-.27-.28-.47-.19a.82.82,0,0,0-.47.65Z"/><path d="M105.54,192l0-.54c0-.31-.33-.35-.54-.27a1.05,1.05,0,0,0-.67.72,14.9,14.9,0,0,0,0,1.64c0,.54-.07,1.08,0,1.62s.42.42.71.28a1.17,1.17,0,0,0,.69-1c0-1.1-.07-2.2-.07-3.3,0-.36-.39-.37-.64-.25a1,1,0,0,0-.62.85v1.8c0,.36.4.37.64.26a1.06,1.06,0,0,0,.63-.87v-3.59c0-.37-.4-.38-.65-.26a1.09,1.09,0,0,0-.64.88c0,3.66,0,7.33.06,11s0,7.6,0,11.41l0,11.57c0,3.77,0,7.54-.07,11.31,0,3.54-.14,7.1,0,10.63a11.69,11.69,0,0,0,.12,1.19c0,.29.3.32.53.21a.92.92,0,0,0,.53-.72,41.75,41.75,0,0,0,.18-5.25l0-5.36c0-3.71-.06-7.42-.07-11.13l0-11.52q0-5.76,0-11.51l.06-11.13v-1.31c0-.37-.4-.38-.65-.26a1.09,1.09,0,0,0-.64.88v3.58c0,.36.4.37.64.26a1.06,1.06,0,0,0,.63-.87v-1.79c0-.36-.39-.37-.64-.25a1,1,0,0,0-.62.85c0,1.13,0,2.25-.07,3.37,0,.4.44.41.71.28a1.18,1.18,0,0,0,.69-1c0-.51,0-1-.05-1.52a12.86,12.86,0,0,0,0-1.52c-.12-.77-1.28,0-1.23.59l0,.49c0,.31.33.34.57.23a1,1,0,0,0,.56-.77Z"/><path d="M104.36,191.27a2,2,0,0,0,.77.25H108a1.26,1.26,0,0,0,1-.74c.14-.29.13-.76-.3-.76h-2.82a1.23,1.23,0,0,0-1,.73c-.14.29-.14.76.29.75,8,0,15.92,0,23.88,0s15.81,0,23.72,0c2.19,0,4.38.06,6.57.09,1.12,0,2.24.08,3.35,0a22.84,22.84,0,0,0,3.51-.24,1.11,1.11,0,0,0,.77-.77c.09-.35-.14-.53-.46-.47l-.81.14a.87.87,0,0,0-.55.48c-.06.13-.12.43.09.48l.67.14a1,1,0,0,0,.91-.45c.12-.17.34-.71,0-.79a16.52,16.52,0,0,0-2.9-.22c-1,0-2,0-3,0l-6,.09c-4,.05-7.92,0-11.88,0-7.91,0-15.82,0-23.73,0-4.45,0-8.89,0-13.34,0a1.23,1.23,0,0,0-1,.73c-.14.29-.13.75.29.75H108a1.26,1.26,0,0,0,1-.74c.14-.29.13-.76-.3-.76h-2.76a3.88,3.88,0,0,0-1.06.24c-.28.09-1,.79-.49,1Z"/><path d="M163.83,190.21c-.06,1.48-.18,3-.19,4.45,0,.35.39.36.63.25a1.06,1.06,0,0,0,.61-.84c0-.6,0-1.2,0-1.8,0-.36-.39-.37-.64-.25a1.06,1.06,0,0,0-.62.85v1c0,.35.38.36.63.25a1,1,0,0,0,.61-.84c0-1,0-2.05,0-3.08,0-.34-.38-.35-.62-.24a1,1,0,0,0-.6.83l-.06,22.25q0,11.07,0,22.13l0,6.18c0,1,0,2.06,0,3.09a24,24,0,0,0,0,3.06c0,.33.34.36.61.24a1,1,0,0,0,.59-.82,24.78,24.78,0,0,0,0-2.86c0-.9,0-1.81,0-2.71v-5.45c0-3.69,0-7.37,0-11q0-11.09,0-22.17l0-12.48c0-.34-.38-.35-.62-.24a1,1,0,0,0-.6.83c0,1,0,2.05,0,3.08,0,.35.39.36.63.25a1.09,1.09,0,0,0,.61-.84v-1c0-.36-.4-.37-.64-.25a1.06,1.06,0,0,0-.62.85c0,.6,0,1.19,0,1.79,0,.35.38.36.63.25a1,1,0,0,0,.61-.84c0-1.43-.13-2.85-.19-4.28,0-.24-.26-.25-.44-.17a.75.75,0,0,0-.42.59Z"/><path d="M80.31,169.18q4-3.74,7.82-7.57c.21-.2.5-.67.24-.93s-.74,0-.94.23L79.2,169.1c-.21.22-.52.71-.24,1s.77,0,1-.24l9.18-9.18,9.17-9.19,9.17-9.19,9.18-9.19,4.59-4.59,2.29-2.3c.38-.38.76-.77,1.16-1.13a15.62,15.62,0,0,0,1.19-1.11q.57-.63,1.11-1.29c.14-.16.27-.51.08-.69s-.53-.06-.69.08q-.66.54-1.29,1.11a15.62,15.62,0,0,0-1.11,1.19c-.72.8-1.51,1.55-2.28,2.31l-4.59,4.59-9.19,9.17-9.19,9.17-9.19,9.18q-4.59,4.58-9.18,9.17L79.2,169.1l.74.74,8.19-8.23-.7-.7q-3.84,3.85-7.57,7.83c-.12.13-.31.41-.14.59s.46,0,.59-.15Z"/><path d="M126.44,124l1.51.06c.71,0,1.75-1.53.76-1.59-1.19-.06-2.38,0-3.57,0-.75,0-1.82,1.66-.8,1.66q34.59,0,69.17-.09h69.08c6.37,0,12.75,0,19.12.06s12.6.13,18.89.12c.83,0,2-1.85.89-1.84-.44,0-.87,0-1.31,0a1.49,1.49,0,0,0-1.19.87c-.15.32-.17.91.35.89,1,0,1.91-.08,2.87-.11.66,0,1.73-1.51.75-1.55l-2.78-.1c-.79,0-1.93,1.71-.84,1.76l1.26,0c.83,0,2-1.84.89-1.84-11.43,0-22.86.17-34.28.17H232.83q-34.53,0-69.06,0c-12.88,0-25.76-.05-38.63-.06-.75,0-1.82,1.66-.8,1.66,1.2,0,2.41,0,3.61,0a1.34,1.34,0,0,0,1.08-.78c.13-.3.15-.83-.32-.81l-1.57.07c-.61,0-1.63,1.42-.7,1.46Z"/><path d="M302.19,122.9l-1.2-1.37-.92.92c.48.55,1,1.09,1.47,1.62l1.07-1.07-2-2.08c-.45-.47-1.58.65-1.12,1.12l2.79,2.85c.48.49,1.66-.69,1.18-1.18l-2.3-2.31-1.19,1.19q4.57,4.57,9.16,9.15l9.07,9.08q4.56,4.55,9.14,9.07c1.53,1.51,3.06,3,4.54,4.57s2.95,3.08,4.43,4.6l4.5,4.64c.75.78,1.49,1.57,2.27,2.31l1.18,1.11a13.84,13.84,0,0,0,1.19,1.11c.22.16.47.29.68.46l.62.53c.46.41,1.49-.65,1-1l-.55-.48c-.43-.36-1.34.54-1,1l.48.55,1-1-.49-.57c-.19-.23-.33-.49-.51-.73a12.31,12.31,0,0,0-1.1-1.19c-.74-.78-1.47-1.58-2.25-2.33-1.56-1.48-3.1-3-4.65-4.49-3.07-3-6.19-5.91-9.2-9s-6-6.11-9.07-9.15l-9.07-9.07-9.15-9.15-1.14-1.15c-.49-.49-1.68.7-1.19,1.19l2.31,2.3,1.18-1.18-2.85-2.79L299.46,122c.69.68,1.38,1.36,2.08,2,.44.43,1.51-.64,1.07-1.07s-1.07-1-1.62-1.47-1.31.58-.92.92l1.37,1.2c.33.29,1-.42.75-.75Z"/><path d="M126,198.42c-3.2,3.13-6.34,6.32-9.48,9.51-.07.07,0,.14.07.07,3.19-3.14,6.39-6.27,9.51-9.48.11-.1,0-.2-.1-.1Z"/><path d="M124.94,203.55Q121.48,207,118,210.5c-.07.07,0,.14.07.07q3.5-3.44,7-6.92c.1-.1,0-.2-.11-.1Z"/><path d="M148,205.1,138.11,215q-5,4.94-9.88,9.89l-5.58,5.62c-.06.06,0,.13.07.06q5-4.94,9.95-9.9l9.88-9.88,5.59-5.61c.09-.1,0-.19-.1-.09Z"/><path d="M146,219.72l-3.47,3.46-1.71,1.71c-.58.59-1.2,1.15-1.74,1.77-.06.08,0,.14.08.08.62-.54,1.18-1.16,1.77-1.74l1.71-1.71,3.46-3.47c.11-.1,0-.21-.1-.1Z"/><path d="M151.37,227.67l-12.11,12.11c-1.18,1.19-2.35,2.38-3.53,3.56-.07.08,0,.16.08.08q6.16-6.09,12.27-12.22l3.4-3.42c.12-.11,0-.22-.11-.11Z"/><path d="M219.64,198.93c-2.82,2.83-5.64,5.65-8.45,8.49-.07.07,0,.14.07.07q4.26-4.22,8.48-8.45c.11-.11,0-.21-.1-.11Z"/><path d="M217.07,210c-3.39,3.39-6.8,6.78-10.18,10.19L204,223.07c-.07.08,0,.15.07.07q5.12-5.07,10.21-10.17l2.9-2.9c.1-.1,0-.21-.11-.1Z"/><path d="M218.62,232c-1.63,1.63-3.26,3.24-4.86,4.89-.07.07,0,.14.06.07,1.65-1.6,3.27-3.23,4.9-4.86.1-.1,0-.2-.1-.1Z"/><path d="M282.77,201c-3.8,3.8-7.62,7.59-11.41,11.41l-3.19,3.24c-.07.06,0,.12.06.06Q274,210,279.66,204.31l3.21-3.22c.1-.1,0-.2-.1-.1Z"/><path d="M296.12,198.68q-4.69,4.68-9.37,9.36c-.9.9-1.79,1.81-2.68,2.71-.07.08,0,.15.07.08,3.15-3.1,6.27-6.23,9.39-9.35l2.69-2.7c.1-.1,0-.2-.1-.1Z"/><path d="M300.22,212l-10.73,10.72-10.67,10.69-6,6.07c-.06.07,0,.13.07.07l10.74-10.71,10.68-10.67,6.06-6.07c.1-.1,0-.21-.11-.1Z"/><path d="M305.87,225.37c-2.05,2-4.11,4.1-6.15,6.17-.08.08,0,.16.08.08q3.1-3.08,6.17-6.15c.1-.1,0-.2-.1-.1Z"/><path d="M311.27,232.57q-3.74,3.69-7.43,7.44c-.07.07,0,.13.06.07q3.75-3.69,7.45-7.44c.07-.08,0-.15-.08-.07Z"/><path d="M135.46,123.74q-5.72,5.69-11.41,11.41t-11.41,11.41q-3.21,3.23-6.43,6.44c-.09.1,0,.19.1.09l11.42-11.4,11.41-11.41,6.43-6.44c.11-.1,0-.21-.11-.1Z"/><path d="M146.77,122.47q-6.63,6.6-13.25,13.21t-13.23,13.24q-3.71,3.71-7.39,7.43c-.08.07,0,.15.07.07q6.65-6.58,13.25-13.21T139.45,130l7.4-7.42c.08-.08,0-.16-.08-.08Z"/><path d="M156.51,123.49q-5.72,5.69-11.41,11.41c-1.07,1.07-2.13,2.16-3.2,3.23-.05.06,0,.11.06.06q5.73-5.69,11.44-11.39l3.21-3.22c.1-.1,0-.19-.1-.09Z"/><path d="M169.34,124.51l-13.87,13.86-13.78,13.78q-3.88,3.89-7.75,7.79c-.08.08,0,.16.08.08q7-6.9,13.88-13.85l13.77-13.78,7.77-7.78c.11-.1,0-.21-.1-.1Z"/><path d="M182.43,123.23l-9.93,9.91L162.62,143c-1.87,1.86-3.73,3.74-5.58,5.62-.08.07,0,.15.07.07q5-4.93,9.95-9.9l9.88-9.88,5.59-5.61c.11-.11,0-.21-.1-.1Z"/><path d="M198.09,122.46q-8.22,8.19-16.41,16.41l-4.62,4.65c-.07.06,0,.13.06.06q8.24-8.18,16.43-16.39l4.63-4.63c.1-.1,0-.2-.09-.1Z"/><path d="M220.16,123,204.3,138.82l-15.81,15.81-8.88,8.89.1.1,7.69-7.71c.08-.08,0-.17-.09-.08q-3.85,3.84-7.7,7.69c-.11.1,0,.2.1.1l15.86-15.85L211.37,132l8.88-8.9c.09-.08,0-.17-.09-.08Z"/><path d="M238.38,124.25q-4.68,4.66-9.35,9.34T219.65,143l-5.39,5.41c-.07.08,0,.15.08.08q4.78-4.75,9.54-9.51t9.34-9.34l5.26-5.27c.1-.1,0-.2-.1-.1Z"/><path d="M252.24,124.51l-11.93,11.91q-5.92,5.93-11.85,11.87c-2.26,2.25-4.5,4.51-6.75,6.78-.07.07,0,.13.07.06q6-5.92,11.94-11.89l11.85-11.86,6.76-6.77c.1-.1,0-.19-.09-.1Z"/><path d="M276.36,123.23l-17,17q-2.4,2.4-4.79,4.82c-.08.09,0,.17.09.08,5.7-5.63,11.35-11.33,17-17l4.81-4.81c.09-.09,0-.19-.1-.09Z"/><path d="M287.91,123.23,277.6,133.52l-10.36,10.35-5.77,5.79c-.12.11,0,.22.11.11l10.3-10.3,10.35-10.36,5.77-5.79c.09-.09,0-.17-.09-.09Z"/><path d="M307.67,129.14c-3.43,3.38-6.83,6.8-10.23,10.21l-10.18,10.18q-2.88,2.9-5.75,5.8c-.06.06,0,.12.06.06q5.15-5.08,10.25-10.2T302,135c1.92-1.92,3.85-3.85,5.76-5.78.09-.1,0-.18-.09-.09Z"/><path d="M313.07,135.82c-.78.69-1.5,1.46-2.24,2.2l-2.19,2.19c-1.45,1.45-2.91,2.9-4.35,4.36-.84.84-1.68,1.69-2.51,2.54-.08.08,0,.15.07.07,2.95-2.9,5.87-5.82,8.79-8.75.83-.84,1.72-1.65,2.5-2.54.06-.08,0-.13-.07-.07Z"/><path d="M325.89,149.15q-6.08,6-12.11,12.11-1.77,1.77-3.53,3.56c-.07.07,0,.14.07.07q6.15-6.09,12.26-12.23l3.41-3.41c.09-.1,0-.2-.1-.1Z"/></g></svg>