<svg xmlns="http://www.w3.org/2000/svg" viewBox="0 0 430 294"><g style="isolation:isolate"><path d="M176.31,89C174.89,83,169.54,80.6,164,79.21a29.25,29.25,0,0,0-7.92-.61c-4.9.12-3.66-4.85-7.2-6.17-5.53-2.05-10.68,5.09-15.33,6.32-4.5,1.19-6.93,3.81-6.65,8.56.25,4.42,6.8,6.89.8,11.86-2.18,1.81-5.37,2.82-7.82,4.33-4.51,2.79-5.58,8.11-5.54,13,.06,6,5.51,8.53,10.33,10.17,4.43,1.51,5.58,4.36,3.86,8.71-1.25,3.16.82,8.44.36,11.65-.16,1.13.11,2.11,1.42,2.19a19.92,19.92,0,0,0,4.65-.14c2.42.85,5.32.41,7.82.41a23,23,0,0,0,6.38-.65,1.87,1.87,0,0,0,.55.18c.65.1,1.33,0,2,.19a3.2,3.2,0,0,0,3.47-3c0-.14,0-.28,0-.42a1,1,0,0,0-1.07-1.06s0,0,0,.07a1.45,1.45,0,0,1-.22-.21,1.14,1.14,0,0,0-.59-.33,2.93,2.93,0,0,0,.39-.68c1.79-5.33,1.19-11.33,1.19-17s1.32-13.14-1.1-18.39a7,7,0,0,0,1.73-1.37,37.34,37.34,0,0,1,5.74-5c3.69-2.67,8.88-4.44,11.4-8.4a6.05,6.05,0,0,0,.33-.59C174.53,92.92,176.66,90.43,176.31,89Z" fill="#5ba354"/><path d="M154.32,195.19l-.22-.1a17.59,17.59,0,0,0,.44-5.15c0-3.12.87-7-.26-9.93-.35-.9-1.09-.82-1.83-.37-1.58-.73-3.92-.39-5.52-.43-2.71-.07-5.36-.42-7.91.46-1.85-.6-4.44-.37-6-.59a1.9,1.9,0,0,0-1.59.72l-.21.18V180c-.85,1.08-1.13,2.66.1,2.55l.77-.08a1.37,1.37,0,0,0,.47-.14c2.86.14,5.18,3.54,7.19,5.1,2.39,1.85,3.16,4.44,4.46,7,1.78,3.55,5.64,6.87,9.32,3.83C154.24,197.75,155.79,195.87,154.32,195.19Z" fill="#84b266"/><path d="M309.91,180.48c-.34-2,7.12-21.75-3.33-15.75-.64.37-2.21,1.78-2,2.83a2.83,2.83,0,0,0-.65,1.66,41.24,41.24,0,0,0,0,7.37c.17,1.11.95,1.24,1.77.91-.32,1.52-.59,2.68-.6,2.86a16.93,16.93,0,0,0,.51,5.61,3.61,3.61,0,0,0-1,1.79,149.84,149.84,0,0,0,.07,22.72c.14,2.42-.68,5.81,1.89,7.09,1.81.9,3.9-1.77,4.35-3.17a16,16,0,0,0,.41-5.28,53.48,53.48,0,0,1,1.77-12.9C314.65,189.71,311,186.6,309.91,180.48Z" fill="#5ba354"/><path d="M302.4,233.76h0c2.34-7.36,1.24-15.47,1.24-23.16V177.92c0-21.82.16-43.64-.11-65.45,0-.89-.35-1.31-.89-1.41a1.8,1.8,0,0,0-.52,0,1.65,1.65,0,0,0-.32-.44c-.87-.83-1.74-1.57-2.61-2.29,0-.11,0-.22,0-.33-1.09-4.26-5.92-9-10-10.46a2.37,2.37,0,0,0-1.61.08c-1-.89-2-1.77-3-2.61a.53.53,0,0,0-.08-.17c-3.82-5.76-9.15-9.55-14.2-14.12a1.77,1.77,0,0,0-1.94-.22l-1-.91a1.6,1.6,0,0,0-.76-1.75c-2.61-1.61-4.62-4.22-7-6.15a1.81,1.81,0,0,0-1.78-.22c-.92-.91-1.81-1.87-2.65-2.86a2.31,2.31,0,0,0-.1-2.46,43.2,43.2,0,0,0-6.4-7.23,1.43,1.43,0,0,0-.51-.28,1.79,1.79,0,0,0-.38-.72,9.73,9.73,0,0,0-1.42-1.21c-3.66-3-7.6-5.71-10.58-9.45a1.32,1.32,0,0,0-.72-.5,6.3,6.3,0,0,0-1.47-1.54,1.57,1.57,0,0,0-1.1-.28c-.46-.29-1.14-.28-2.08.25a24.56,24.56,0,0,0-6.6,5.48c-3.37,3.82-8.23,5.62-12,8.92a86.33,86.33,0,0,0-10.77,11.6,43.72,43.72,0,0,0-6.18,5.07c-3.55,1.78-6.35,4.52-9.88,6.59a15.73,15.73,0,0,0-6.53,6.84,2.9,2.9,0,0,0-.24.72c-1.2,1-2.38,2-3.58,3-1.64,1.23-3.27,2.46-4.92,3.68a4.51,4.51,0,0,0-1.26,1.41q-2.26,1.51-4.48,3.1a13,13,0,0,0-3.46,2.5,2.61,2.61,0,0,0-.24.23,2.12,2.12,0,0,0-1.71.59c-12.56,9.78,10.59,23.59,17.85,26.84,17.91,8,38.27,5.38,56.82,10.84,20.19,6,31,23.33,25.1,44.07-2.18,7.7-7.28,11.5-14.82,12.88a14.36,14.36,0,0,0-7.87,3.6c-1.45,1.46-3.17,3.9-3.08,6.12s.21,4.58.36,6.88c-.1,1-.15,2-.17,3a19.71,19.71,0,0,0,0,4.67c-.13,3.15-.26,6.3-.46,9.45,0,.56.13.87.39,1-.11,1.38-.2,2.76-.23,4.14,0,.64.19,1,.5,1.16a1.42,1.42,0,0,0,1.36.61,3.06,3.06,0,0,0,1.6-.57c7.75,1.51,15.71,1.18,23.56.64,2.64-.18,5.27-.41,7.9-.66a1.58,1.58,0,0,0,1.35.62c6.27.32,14.16,1.12,21.15.09h.32c1.38.82,3.23.52,4.82.58a19.47,19.47,0,0,0,6.05-.34c1.4-.41,3.4-2.2,2.8-3.87C303.34,235.54,303.29,234.62,302.4,233.76Z" fill="#c4c4c4"/><path d="M230.58,174.4a2.18,2.18,0,0,0,.4-3c-.45-.67-1.27-.16-1.87.48-9.4-2-19.92-.76-29.49-.76H130.37c-10.24,0-21.41-1.22-31.58.5h-.08a10.86,10.86,0,0,0-1.4,0c0-.27-.24-.48-.68-.54-2.4-.32-7-1.53-9,.63,0-.53,0-1.06-.09-1.59-.09-1.38-2.06.14-2.1,1a257.3,257.3,0,0,0,1.32,40.5c.22,2.09.64,11.31,4.45,9.48,3.42-1.64,2.67-9.46,2.79-12.32.39-9,1.51-18.65.37-27.58a7.68,7.68,0,0,1,.56-1.76c42.12.78,84.3-.06,126.42-.11a1.13,1.13,0,0,0,.13,1.42,7,7,0,0,0,1,.76l.1,0a.06.06,0,0,1,0,0,3.68,3.68,0,0,0,.13,1.58.49.49,0,0,0,.42.37,138.35,138.35,0,0,0,.21,20,2.11,2.11,0,0,0-.71,1.43c-.1,6.14-.05,12.28-.06,18.42,0,5-.88,10.72.78,15.54a.66.66,0,0,0,.15.23.8.8,0,0,0,.53,1.09,4,4,0,0,0,4.19-.67c.41,1.18,2.29-.2,2.42-1.09,1.48-10.17.35-21.1.35-31.38C231,196.62,232.49,184.83,230.58,174.4Z" fill="#9b805a"/><path d="M259.37,118.5a16.63,16.63,0,0,0,.29-4.73c0-2.78-.12-5.55-.11-8.33,0-.46-.19-.68-.46-.74h0c-.08-.22-.3-.38-.73-.43-9-1-18.45-.31-27.54-.31-10.55,0-21.19-.4-31.72.23a1.25,1.25,0,0,0-.31.07.66.66,0,0,0-.29-.09h0a.29.29,0,0,0-.1,0,1.37,1.37,0,0,0-.77.1c-.18,0-.37,0-.56,0a2.31,2.31,0,0,0-1.35,1l-.09.09-.05.08a2.49,2.49,0,0,0-.15.28,1.21,1.21,0,0,1,0,.14,1.45,1.45,0,0,0-.11.26s0,.08,0,.12c-.09.41,0,.81.37.93-.1,8.68-.11,17.36-.12,26,0,6.52-1,13.84.28,20.35a3.36,3.36,0,0,0-1.2,1.32c-.3.63-.3,1.59.5,1.72,0,.29.26.51.77.56,8.61.83,17.43.63,26.17.46a11,11,0,0,0,2.07,0c2.7-.05,5.39-.09,8.06-.09,7.08,0,17.93,2.19,24.6-.76.24,1.57,3-.35,3-1.64C260,143,260.47,130.54,259.37,118.5ZM256.62,154c-1.3-.45-2.69-.17-4.29-.17H233.85l-4.51,0c2.44-4.19,1.79-10.42.53-15.1.36-3.52.24-7.15.33-10.78.1-4.16.1-8.25-.16-12.34a3.12,3.12,0,0,0,.47-1.58v-4.75a1.37,1.37,0,0,0-.21-.73c0-.31,0-.64.06-1,8.72.13,17.59.51,26.22-.32,0,2.34-.09,4.68-.1,7,0,1.56-.51,4,.26,5.48a2.88,2.88,0,0,0-.53.37c-.32.32-1.19,1.78-.24,2a1.76,1.76,0,0,0,.91-.08C256.16,132.59,256.38,143.42,256.62,154Z" fill="#515151"/><path d="M256.23,131.12c-.13-7.92.69-15.94-.09-23.83-.07-.75-.61-1-1.3-.84-5.64,1.09-12.78.85-18.71.41a.92.92,0,0,0-1.21-.59c-.1,0-.19.09-.29.12a.88.88,0,0,0,0-.16c-.28-1.92-3,0-3.11,1.14-.86,6.72-.49,13.53-.47,20.3,0,8.56-.69,17.5.7,26,.17,1,1.15.72,1.85.11,2,1,4.53.82,6.66.76,4.22-.13,8.38.62,12.59.51a2.37,2.37,0,0,0,1.32-.6c1-.17,2.54-1.48,2.57-2.51C256.92,145,256.34,138,256.23,131.12Z" fill="#9b805a"/><path d="M222.26,232.92a.94.94,0,0,0-.49-.54c1.28-7.13.23-15.19.26-22.23,0-9.67.85-19.67-.15-29.29-.23-2.16-2.12-1.42-3.54-.07-3.29-1.23-6.85-.68-10.51-.72-5.25,0-10.49-.16-15.74-.23-10.58-.14-21.57-.74-32.09.51h0a1.87,1.87,0,0,0-.5-.08,3.37,3.37,0,0,0-.89.14,2.89,2.89,0,0,0-1.62-.06c-1.49.4-4.35,3.29-2.2,4.56l0,0A2.1,2.1,0,0,0,155,186c-1.67,7.66-.66,16.21-.67,24,0,9-1.05,18.68.2,27.56.14,1,.55,1.49,1.1,1.62a1.26,1.26,0,0,0,.39.87,1.4,1.4,0,0,0,1.45.32,3.24,3.24,0,0,0,.83-.32l.09,0c10.88,1.4,22.4.42,33.36.42,7.46,0,17.28,1.93,24.26-1.19.16.56.94.64,1.4.51s.73,0,1.15.36c1.36,1.28,3.68-1.1,3.94-2.37A9.47,9.47,0,0,0,222.26,232.92Z" fill="#515151"/><path d="M155,167.09a2.45,2.45,0,0,0-1.12-1.42,1,1,0,0,0-.32-.55c.94-2.38.95-5,1.13-7.59a18.93,18.93,0,0,0-.7-7.41c-.35-.93-1.3-.59-2.05-.07a1.59,1.59,0,0,0-.58-.14c-.52,0-1-.11-1.55-.12a2.37,2.37,0,0,0-.83.14c-3.25-1.34-6.73-.86-10.41-.86l-16,0c-10.7,0-21.39-.07-32.08,0a2.46,2.46,0,0,0-1.09.18c-1.31-.05-3.28,1.81-3.55,3a4.46,4.46,0,0,0-.13,1.75c-.29,4.87,0,9.77-.06,14.66,0,1.91,1.66,1.79,3.27.84,9,1.89,19.25.55,28.3.54,9.88,0,21.7,1.72,31.52-.64a2.39,2.39,0,0,0,.13.21,11.79,11.79,0,0,0,2.73,1,2.65,2.65,0,0,0,2.49-.93C154.63,169.06,155.44,167.91,155,167.09Z" fill="#c4c4c4"/><path d="M368.33,241.53c-23.09,0-46.23-.78-69.32-.09a2.94,2.94,0,0,0-.63.1h-8.49q-52.89-.2-105.81-.25a4,4,0,0,0,1.19-1.11c1.35-2.07,1.52-5.07,1.34-7.85.92-7.21.13-15,.12-22.07,0-9.69,1.54-20.82-.9-30.24-.2-.79-.79-.83-1.44-.53a2.3,2.3,0,0,0-.52-.14,39.71,39.71,0,0,0-12.07-.05,2.34,2.34,0,0,0-.41.12c-.63-3-4.89.81-5.09,2.74-2,18.63-.12,38.16-.08,56.89,0,1.54,1.17,1.59,2.41,1a1.59,1.59,0,0,0,1,.41c3,.4,6.1.1,9.09.29a2.73,2.73,0,0,0,1.53-.47,1,1,0,0,0,.36.13,3.79,3.79,0,0,1,.84.13,3.85,3.85,0,0,0,.82.78q-34.47,0-68.92.32-20.47,0-40.95,0c-2.39,0-5.54,4-5.13,5.95.13.66.66,1.1,1.74,1.1H95.78c-1.41,1.3-2.45,3.22-2.14,4.41.11.66.61,1.09,1.67,1q15.16.48,30.35.56c-1.48,1.28-2.64,3.29-2.36,4.52.12.64.62,1.07,1.67,1.05,31.5.44,63,.18,94.52.21,31,0,62.23,1.13,93.22.25,2.49.11,5.68-3.74,5.63-6,5.21.13,10.42-.1,15.64-.13,2.28,0,5.18-3.3,5.56-5.58,8.43-.1,16.87-.2,25.29-.21,2.26,0,5.19-3.44,5.34-5.59C370.24,242.24,369.73,241.53,368.33,241.53Z" fill="#c4c4c4"/><path d="M231.52,147.4a1.64,1.64,0,0,0-1.34-1.09c.38-7.73,0-15.54-.06-23.28a1,1,0,0,0-.42-.93,1.84,1.84,0,0,0,.05-.41c0-2.31-3.41-1.9-4.84-1.9-2.71,0-5.82-.5-8.23.85-1,.54-2.52,2-2.21,3.28-1.25,3.41-1.05,6.65-1,10.28,0,4.82.08,9.61,0,14.44a1.42,1.42,0,0,0,.14.63,2.71,2.71,0,0,0-.08.69c0,.32,0,.64,0,1a1.33,1.33,0,0,0,.28.93,1.22,1.22,0,0,0,.75.46,1,1,0,0,0,.24,0,0,0,0,0,0,0,0,2.32,2.32,0,0,0,1.54-.2l.1-.07c1.65.43,3.11.12,5,.1a27,27,0,0,1,2.95.18c.87,3,5.13.25,6.31-1.4A4.09,4.09,0,0,0,231.52,147.4Z" fill="#c4c4c4"/><path d="M59.74,240.81c40.29.1,80.59,0,120.88,0q60.21,0,120.43.06h67.44c.24,0,.59-.55.26-.55l-111.61,0H84.54c-.28,0-.68.61-.3.61q24.57,0,49.13,0c.27,0,.65-.59.29-.59h-7.9c-.26,0-.64.59-.28.59,7.32,0,14.65-.08,22-.08.19,0,.47-.43.2-.43-7.29,0-14.59-.07-21.89-.08-.26,0-.64.59-.28.59h7.89c.27,0,.65-.59.29-.59q-24.57,0-49.12,0c-.28,0-.68.61-.3.61q55.5,0,111,0H305.78q31.35,0,62.71,0c.24,0,.59-.55.26-.55l-120.91,0q-60.22,0-120.47,0-33.74,0-67.46,0c-.16,0-.39.37-.17.37Z"/><path d="M303.52,138.07q-.09,15.56-.08,31.1v47.9c0,.32.53,0,.53-.26V179.9q0-18.53,0-37.05,0-10.4,0-20.79c0-.35-.57,0-.57.27v28.08c0,.36.59,0,.59-.28V109.19c0-.36-.58,0-.58.28v26.89q0,13.5,0,27v26.85q0,13.2,0,26.4c0,7.32-.08,14.65.09,22v.71c0,.18.3,0,.3-.15s0-.42,0-.64-.27,0-.27.13,0,.44,0,.66.3,0,.3-.15c.14-6.53.1-13.06.1-19.58q0-13.15,0-26.29l0-26.86V109.19c0-.36-.58,0-.58.28v40.94c0,.36.59,0,.59-.28V122.06c0-.35-.57,0-.57.27q0,18.45,0,36.91v57.83c0,.32.53,0,.53-.26V186.59q0-15.72,0-31.45,0-8.62-.07-17.24c0-.22-.36,0-.36.17Z"/><path d="M154.4,115.26q0,19.19,0,38.37,0,19,0,38,0,10.64,0,21.28c0,.26.42,0,.42-.21q0-19.53.05-39.07t0-39.06V112.7c0-.34-.56,0-.56.27v43.87c0,.34.56,0,.56-.27V134.35c0-.34-.54,0-.54.26q0,19.09,0,38.19t0,38c0,7.17,0,14.34,0,21.51,0,.32.54,0,.54-.26,0-1.86,0-3.72-.07-5.57,0-.25-.41,0-.4.19s0,.61,0,.91.36,0,.36-.17c0-.31,0-.62,0-.93s-.4,0-.4.19c0,1.88-.06,3.76-.07,5.64,0,.32.54,0,.54-.26,0-12.74,0-25.47,0-38.2s0-25.31,0-38V134.35c0-.34-.54,0-.54.26v22.23c0,.34.56,0,.56-.27q0-17.12,0-34.21V112.7c0-.34-.56,0-.56.27q0,19.53,0,39.05t0,39q0,10.94,0,21.89c0,.26.42,0,.42-.21q0-19,0-37.93t0-38.14V115.09c0-.21-.34,0-.34.17Z"/><path d="M162.22,105.94q8.5-6.3,16.78-12.9t16.49-13.55q8.13-6.85,16.08-13.92c5.05-4.48,9.92-9.17,15-13.68S236.66,43.08,242,39.06l2.06-1.52c.16-.11.23-.43,0-.32a29.87,29.87,0,0,0-8.82,5.59c-2.76,2.35-5.29,4.94-7.84,7.51-1.4,1.42-2.91,2.72-4.41,4s-3.31,2.88-5,4.3q-5.07,4.31-10.21,8.51t-10.12,8.19c-3.24,2.59-6.51,5.14-9.68,7.82-5.83,4.9-11.38,10.12-17.17,15.07a106,106,0,0,1-18.43,13.13c-.83.44-1.66.86-2.5,1.27l.23.09a6.56,6.56,0,0,1,1.35-3.16c.14-.2,1.39-2,1.71-1.78s.63-.27.44-.43c-.68-.59-2,1.35-2.24,1.74a7.66,7.66,0,0,0-1.72,3.85c0,.13.15.13.23.09a93.23,93.23,0,0,0,18.61-12.43c5.88-4.86,11.45-10.09,17.22-15.09,6.33-5.48,13-10.57,19.48-15.85,6.74-5.48,13.41-11,19.91-16.8C230.57,48,235.18,42,241.77,38.59a19.34,19.34,0,0,1,2.28-1l-.06-.32c-5.41,3.91-10.58,8.14-15.59,12.55s-9.81,9.1-14.81,13.56q-8,7.11-16.08,14T181,91.1q-8.26,6.66-16.75,13l-2.09,1.56c-.17.12-.13.4.09.24Z"/><path d="M226.77,38.33l.86,0c.07,0,.2-.13.11-.18-.55-.28-1.16-.38-1.71-.64-.12,0-.35.18-.24.28,5.15,4.85,10.38,9.61,15.65,14.34S252,61.62,257.2,66.4s10.45,9.69,15.51,14.71,9.87,10,14.53,15.31c1.13,1.29,2.21,2.63,3.38,3.89a41.72,41.72,0,0,0,3.62,3.42c2.49,2.12,5.13,4.06,7.56,6.23.59.52,1.16,1.06,1.71,1.61l.39-.39a96.59,96.59,0,0,1-15.6-13.74c-4.89-5.07-9.57-10.36-14.9-15-2.79-2.43-5.7-4.7-8.62-7-1.44-1.12-2.86-2.26-4.21-3.49s-2.63-2.5-3.91-3.78-2.6-2.65-3.93-4-2.66-2.5-3.93-3.81c-2.62-2.68-5.05-5.54-7.57-8.31-1.24-1.36-2.52-2.69-3.81-4a33.64,33.64,0,0,0-3.51-3,45,45,0,0,1-7-5.8,15.41,15.41,0,0,1-1.37-1.84l-.46.39c1.59,1.59,3.32,3,4.95,4.57a23.91,23.91,0,0,1,4.37,5.05c.15.26.63-.16.51-.37a23.39,23.39,0,0,0-4.34-5c-1.67-1.57-3.43-3-5.06-4.65-.16-.16-.57.21-.46.39a24.63,24.63,0,0,0,6.42,6.25c1.23.92,2.48,1.83,3.67,2.82a45.36,45.36,0,0,1,3.59,3.48c2.61,2.73,5,5.6,7.6,8.37s5.24,5.21,7.85,7.84,5.14,5.24,8,7.59,5.82,4.52,8.66,6.87a105.06,105.06,0,0,1,8.08,7.42c2.42,2.46,4.77,5,7.16,7.48,4.8,5,9.71,10,15.35,14.14.68.5,1.37,1,2.07,1.45.18.12.56-.22.39-.39a95.34,95.34,0,0,0-7.44-6.31c-1.27-1-2.52-2.08-3.71-3.2A48.26,48.26,0,0,1,289.31,98c-4.59-5.33-9.41-10.46-14.37-15.44s-10.19-10-15.43-14.77S249,58.23,243.74,53.51s-10.57-9.45-15.81-14.23l-1.88-1.72-.24.28c.58.26,1.22.28,1.8.52l.11-.18-.9,0s-.12.12,0,.12Z"/><path d="M155.32,107.35c-.14,3.13-.12,6.27-.12,9.41,0,.3.5,0,.5-.24,0-2.25,0-4.49,0-6.74,0-.34-.56,0-.56.27v2.34c0,.35.58,0,.58-.28V111c0-.35-.58,0-.58.27,0,.61,0,1.21,0,1.81a8.87,8.87,0,0,0,.06,1.71c0,.23.4-.09.42-.2a10.48,10.48,0,0,0,.06-1.77c0-.61,0-1.22,0-1.82,0-.35-.58,0-.58.27v1.17c0,.35.58,0,.58-.28v-2.33c0-.34-.56,0-.56.27,0,2.24,0,4.47,0,6.71,0,.3.5,0,.5-.24,0-3.1,0-6.21-.12-9.3,0-.17-.26,0-.26.13Z"/><path d="M84.69,180.16q-.06,11.49,0,23v6.43c0,.24.38,0,.38-.18v-15.2c0-5.11,0-10.22,0-15.33,0-2.85,0-5.69,0-8.54,0-.31-.51,0-.51.25q0,7.11,0,14.23V207c0,.34.56,0,.56-.27V182.15c0-.35-.57,0-.57.28v22.13q0,11.12,0,22.23l0,12.67c0,.4.65,0,.65-.31q0-4.82,0-9.63c0-.37-.6,0-.6.28,0,1.74.12,3.47.12,5.21,0,.21.35,0,.35-.17,0-1.77.12-3.55.13-5.32,0-.37-.6,0-.6.28,0,3.22,0,6.44,0,9.66,0,.4.65,0,.65-.31l0-22.43q0-11.07,0-22.13V182.15c0-.35-.57,0-.57.28q0,9.56,0,19.12V207c0,.34.56,0,.56-.27V192.5q0-7.06,0-14.13c0-2.68,0-5.37,0-8.05,0-.31-.51,0-.51.25,0,5.06,0,10.11.05,15.17s0,10.21,0,15.31v8.52c0,.24.38,0,.38-.18,0-7.65,0-15.29,0-22.94L85,180c0-.17-.27,0-.27.13Z"/><path d="M85.18,170.62c12.48.16,24.95.12,37.43.12l37.47,0h21.09c.29,0,.71-.65.31-.65H87.18c-.3,0-.72.65-.32.65H212.31c.3,0,.72-.65.32-.65H188.06c-.29,0-.72.67-.31.67,4.82,0,9.64,0,14.46,0,.32,0,.76-.69.34-.69-2.27,0-4.54,0-6.81,0s-4.57.11-6.86.11c-.19,0-.46.43-.2.43,2.25,0,4.5.1,6.74.11s4.53,0,6.79,0c.32,0,.76-.69.34-.69-4.83,0-9.66,0-14.49,0-.29,0-.72.67-.31.67h24.56c.3,0,.72-.65.32-.65H87.18c-.3,0-.72.65-.32.65h94.31c.29,0,.71-.65.31-.65l-37.49,0-37.49,0c-7,0-14.1,0-21.15.11-.15,0-.38.34-.17.35Z"/><path d="M212.85,171l15.78,0c.13,0,.31-.29.14-.29-1.56,0-3.12-.08-4.67-.1l-2.4,0a15.16,15.16,0,0,0-2.61.09c-.09,0-.35.31-.17.35a12.74,12.74,0,0,0,2.47.09l2.47,0c1.59,0,3.18-.09,4.77-.09.13,0,.31-.29.14-.29l-15.81,0c-.1,0-.26.24-.11.24Z"/><path d="M215,171.05c4.26.09,8.52.11,12.78.11h3.4c.24,0,.59-.54.26-.54-1.77,0-3.54,0-5.31.1-.15,0-.4.34-.17.35,1.74.07,3.48.09,5.22.09.24,0,.59-.53.26-.54-4.21,0-8.41,0-12.62,0l-3.66.08c-.15,0-.37.33-.16.33Z"/><path d="M231.61,171c-.09,6.64-.08,13.29-.09,19.93s0,13.21,0,19.81v11.19c0,.31.51,0,.51-.25V186.7c0-3.27,0-6.54,0-9.8,0-.33-.53,0-.53.25q0,11.85,0,23.69v36.41c0,.34.56,0,.56-.27V213q0-12.07,0-24.17V176c0-.35-.58,0-.58.28,0,7.88,0,15.77,0,23.66v3.23c0,1.11.06,2.23.06,3.34,0,.27.45,0,.45-.21,0-1,.06-2.05.07-3.08V176c0-.35-.58,0-.58.28v61c0,.34.56,0,.56-.27V190.13q0-6.62,0-13.23c0-.33-.53,0-.53.25q0,8.73,0,17.47v27.27c0,.31.51,0,.51-.25V201.75q0-9.88,0-19.79c0-3.72,0-7.43-.06-11.15,0-.2-.32,0-.32.15Z"/><path d="M93.42,177.55q0,11-.06,22v6.13c0,.3.49,0,.49-.23v-27.2c0-.32-.52,0-.52.24q0,11.88,0,23.76v37.22c0,.34.56,0,.56-.26q0-10.12,0-20.25t0-20.37V189.9c0-1-.05-1.94-.05-2.91,0-.3-.5,0-.5.24,0,.88,0,1.77,0,2.65v7.66c0,3.42,0,6.85,0,10.27q0,10.13,0,20.26v11.37c0,.34.56,0,.56-.26V215.43q0-11.93,0-23.84V178.22c0-.32-.52,0-.52.24q0,10.56,0,21.1v6.09c0,.3.49,0,.49-.23q0-11,0-21.93l0-6.11c0-.23-.36,0-.36.17Z"/><path d="M95.7,179.41c5,.14,10,.09,15,.1h23.59c.27,0,.66-.6.29-.6H101.2c-.27,0-.65.59-.28.59H228.55c.28,0,.67-.61.29-.61l-7.88,0c-.29,0-.71.65-.31.65l7.9,0c.28,0,.67-.61.29-.61H101.2c-.27,0-.65.59-.28.59h33.33c.27,0,.66-.6.29-.6q-15.06,0-30.1,0c-2.85,0-5.71,0-8.56.1-.16,0-.42.37-.18.38Z"/><path d="M222,177.08c-.15,3.3-.1,6.62-.12,9.93,0,.28.47,0,.47-.23,0-3,0-6,.05-9,0-.35-.56,0-.57.27q0,12.08,0,24.15t0,24q0,6.63,0,13.27c0,.33.54,0,.54-.26q0-3.08,0-6.15c0-.34-.56,0-.56.27,0,1.84,0,3.67,0,5.5,0,.39.63,0,.64-.3v-1.19c0-.39-.64,0-.64.31,0,.48,0,.95,0,1.43s.65,0,.65-.31V234.1c0-1.67,0-3.34-.05-5,0-.35-.54,0-.55.26-.07,1.69,0,3.37,0,5.06v4.64c0,.39.65,0,.65-.31v-1.43c0-.39-.65,0-.64.31v1.18c0,.39.64,0,.64-.3,0-1.82,0-3.64,0-5.47,0-.34-.56,0-.56.27,0,2,0,4.09,0,6.14,0,.33.54,0,.54-.26,0-8,0-15.9,0-23.85v-24q0-6.78,0-13.57c0-.35-.57,0-.57.27,0,3,0,6,0,9,0,.28.47,0,.47-.23,0-3.27,0-6.55-.11-9.81,0-.16-.24,0-.24.11Z"/><path d="M203.32,154l18.14.07q9.16,0,18.32,0h9.7c.24,0,.58-.54.26-.54H203.25c-.26,0-.62.57-.28.57l24.69,0h38.46c.29,0,.7-.64.31-.64q-15.31,0-30.62,0H188.06c-.29,0-.69.63-.31.63H201.5c.28,0,.68-.63.3-.63H189.22c-.28,0-.67.62-.29.62h5.26c.28,0,.68-.62.3-.62h-.88c-.28,0-.68.62-.3.62,5.92,0,11.83,0,17.74,0,1.71,0,3.41-.07,5.11-.07.2,0,.49-.44.22-.44-1.48,0-2.95-.06-4.42-.07l-4.45,0h-13.9c-.28,0-.68.62-.3.62h.88c.28,0,.68-.62.3-.62h-5.27c-.28,0-.67.62-.29.62H201.5c.28,0,.68-.63.3-.63H188.06c-.29,0-.69.63-.31.63h78.37c.29,0,.7-.64.31-.64H241.72l-24.55,0H203.25c-.26,0-.62.57-.28.57h46.51c.24,0,.58-.54.26-.54H232.18q-9.26,0-18.53,0l-10.16,0c-.16,0-.39.35-.17.35Z"/><path d="M198.31,107.63c-.17,3.34-.11,6.7-.12,10s0,6.57,0,9.85v5.61c0,.3.49,0,.49-.23,0-6.89,0-13.78,0-20.67v-5.67c0-.37-.59,0-.59.28q0,9.06,0,18.11V153c0,.36.59,0,.59-.28q0-5.82-.12-11.64c0-.22-.35,0-.35.17-.09,3.92-.12,7.83-.12,11.75,0,.36.59,0,.59-.28v-46.2c0-.37-.59,0-.59.28q0,10.25,0,20.47c0,1.94,0,3.88,0,5.82,0,.3.49,0,.49-.23,0-6.61,0-13.22,0-19.82,0-1.86,0-3.71-.1-5.57,0-.16-.25,0-.25.12Z"/><path d="M256.17,108.82c-.08,6.38-.09,12.75-.09,19.13v4.9c0,.31.51,0,.51-.25,0-6.89,0-13.77,0-20.66,0-1.9,0-3.79,0-5.68,0-.38-.61,0-.61.29V125q0,9.26,0,18.51c0,3.38,0,6.75,0,10.13,0,.35.58,0,.58-.29,0-2.22-.07-4.44-.13-6.66,0-.19-.31,0-.31.15-.07,2.27-.14,4.53-.14,6.8,0,.35.58,0,.58-.29q0-9.1,0-18.23V106.26c0-.38-.61,0-.61.29,0,6.82.05,13.65.05,20.47v5.83c0,.31.51,0,.51-.25,0-6.2,0-12.41,0-18.61,0-1.78,0-3.55-.05-5.33,0-.2-.33,0-.33.16Z"/><path d="M199.82,107.15c3.7.13,7.41.11,11.11.12h33.38l12.46,0c.27,0,.66-.6.29-.6-2.17,0-4.35,0-6.53,0s-4.24,0-6.36.09c-.2,0-.55.46-.24.48,2.09.14,4.19.1,6.28.1l6.56,0c.27,0,.66-.6.29-.6-7.45,0-14.9,0-22.34,0H212.5c-4.17,0-8.35,0-12.53.11-.13,0-.35.31-.15.32Z"/><path d="M230.86,107.52q.33,9,.52,18,.09,4.45.13,8.91c0,3,.06,5.91,0,8.87a42.16,42.16,0,0,0,0,4.9c.12,1.58.48,3.12.49,4.71,0,.29.47,0,.47-.23,0-6.1,0-12.21-.11-18.31s-.38-12.13-.69-18.2c-.09-1.64-.19-3.27-.25-4.91a12.16,12.16,0,0,1,.15-4.13l-.42.19a21.15,21.15,0,0,1,.28,4.42c0,1.52,0,3,0,4.55s0,3.18-.06,4.77c0,1.41-.09,2.8,0,4.21,0,.72,0,1.44,0,2.15a10.67,10.67,0,0,1-.13,1.12,5.87,5.87,0,0,1-.22,1c-.11.25.23.17.3,0a6.85,6.85,0,0,0,.51-1.78,14.58,14.58,0,0,0,.09-2c0-.65,0-1.3,0-2s0-1.53.05-2.29c.1-3.19.06-6.38.08-9.58a22.09,22.09,0,0,0-.34-4.94c0-.23-.39.11-.42.2a10.49,10.49,0,0,0-.19,3.58c.08,1.4.12,2.81.19,4.22.15,3.06.32,6.12.45,9.19.26,6.1.35,12.2.39,18.31,0,3.46,0,6.92,0,10.38l.47-.23a39.92,39.92,0,0,0-.43-4.09,32.63,32.63,0,0,1-.11-4.42c0-1.47.1-2.94.1-4.41s0-3,0-4.49q-.07-8.91-.37-17.81c-.11-3.36-.25-6.72-.39-10.08,0-.22-.37,0-.36.18Z"/><path d="M231.67,112.59c5.91.11,11.82.09,17.72.09h5.05c.26,0,.63-.58.28-.58h-.47c-.26,0-.64.58-.28.58h.46c.27,0,.65-.59.29-.6-4.43,0-8.86,0-13.29,0-1.29,0-2.58,0-3.87.14-.14,0-.42.34-.18.36a63.35,63.35,0,0,0,6.61.14c2.21,0,4.42,0,6.62,0l3.82,0c.27,0,.65-.6.29-.6h-.47c-.26,0-.64.59-.28.58h.47c.26,0,.63-.58.28-.58-5.93,0-11.85,0-17.78,0-1.69,0-3.39.05-5.08.08-.17,0-.43.38-.19.38Z"/><path d="M231.54,118.87c6,.17,12,.08,18,.08h5c.24,0,.59-.54.26-.54a24.26,24.26,0,0,0-2.83.12c-.12,0-.35.27-.15.3a22.51,22.51,0,0,0,2.72.12c.24,0,.59-.54.26-.54h-18c-1.71,0-3.42,0-5.13.08-.16,0-.4.35-.17.36Z"/><path d="M232.14,126.43c3,.22,5.93.12,8.88.12h9c1.7,0,3.4,0,5.1-.11.12,0,.35-.28.14-.31-1.47-.14-3-.1-4.44-.1H237.38c-1.71,0-3.41,0-5.11.12-.11,0-.31.26-.13.28Z"/><path d="M231.69,134.79q9.28.06,18.57.06h2.59a26.57,26.57,0,0,0,2.68-.08c.11,0,.33-.25.14-.28a22.09,22.09,0,0,0-2.3-.07h-6.92c-3.12,0-6.23,0-9.35,0l-5.25,0c-.15,0-.37.33-.16.33Z"/><path d="M233,142.24q8.7.06,17.41.06c1.62,0,3.23-.06,4.84-.13.08,0,.21-.18.09-.18-2.82-.13-5.63-.12-8.46-.12s-5.82,0-8.73,0l-5,0c-.14,0-.34.3-.15.31Z"/><path d="M232.42,148.09c2.89.19,5.81.09,8.71.09h8.68c1.65,0,3.32.05,5-.07.15,0,.43-.36.18-.38-1.44-.11-2.89-.07-4.34-.07H237.56c-1.66,0-3.33,0-5,.09-.13,0-.36.3-.16.32Z"/><path d="M176.75,181.06c-.1,1-.08,1.92-.09,2.89s0,1.9,0,2.85v5.69q0,5.64,0,11.28c0,7.57,0,15.14,0,22.7,0,4.23,0,8.46.12,12.69,0,.17.27,0,.28-.14.21-7.57.12-15.15.13-22.72s0-15.15,0-22.72v-6.32c0-1.07,0-2.14,0-3.21a30.51,30.51,0,0,0-.09-3.17c0-.25-.36,0-.38.18Z"/><path d="M199.13,180.18c-.1,8-.07,16-.07,23.94s0,15.84,0,23.76c0,4.42-.06,8.84.1,13.26,0,.19.3,0,.3-.15.14-4,.1-8,.1-11.93V193.39q0-6.69-.07-13.38c0-.22-.36,0-.36.17Z"/><path d="M154.3,234.22a29.91,29.91,0,0,0-.14,3.9c0,.32.53,0,.53-.25V234.5c0-.33-.54,0-.54.26V235c0,.33.54,0,.54-.26v-.71c0-.33-.55,0-.55.26,0,2.88,0,5.76,0,8.63,0,.34.56,0,.56-.27a21.7,21.7,0,0,0-.06-2.28c0-.28-.46,0-.44.21a.84.84,0,0,0,.08.27c.06.15.27-.07.29-.14a2.05,2.05,0,0,0,.07-.34c0-.26-.42,0-.44.21-.07.78,0,1.56-.06,2.34,0,.34.56,0,.56-.27,0-2.87,0-5.75,0-8.62,0-.33-.55,0-.55.26V235c0,.33.55,0,.54-.26v-.27c0-.33-.54,0-.54.26v3.36c0,.32.53,0,.53-.25a25.88,25.88,0,0,0-.14-3.74c0-.16-.24,0-.25.09Z"/><path d="M195.35,106.08v.09c0,.29.46,0,.47-.23v-.62c0-.29-.48,0-.48.23-.07,5.14,0,10.28,0,15.42v4.2c0,.33.54,0,.54-.25,0-5.2,0-10.4,0-15.6V105c0-.34-.56,0-.56.26v52.2c0,.34.56,0,.56-.27V115.06c0-4,0-7.91,0-11.86,0-.35-.56,0-.56.27,0,.72.06,1.44.06,2.16,0,.27.44,0,.44-.21,0-.74.06-1.48.06-2.22,0-.35-.56,0-.56.27q0,10.56,0,21.11v32.84c0,.34.56,0,.56-.27V105c0-.34-.56,0-.56.26l0,15.59c0,1.46,0,2.91,0,4.36,0,.33.54,0,.54-.25,0-5.22,0-10.43,0-15.65,0-1.32,0-2.63,0-4,0-.3-.49,0-.48.23v.62c0,.29.47,0,.47-.23v-.09c0-.28-.46,0-.46.23Z"/><path d="M195.49,104c2.1.15,4.22.09,6.33.09h44.46q7.14,0,14.28,0c.29,0,.72-.65.31-.66-1.26,0-2.5,0-3.76.09-.2,0-.56.47-.24.49,1.23.08,2.45.09,3.69.08.29,0,.72-.66.31-.66-8.5.06-17,0-25.5,0H202.86c-2.39,0-4.8-.07-7.19.09-.15,0-.42.35-.18.37Z"/><path d="M259,103.41c-.14,1.82-.11,3.65-.11,5.48v5.43c0,3.58,0,7.15,0,10.73v33.69c0,.34.56,0,.56-.27,0-.6,0-1.19,0-1.79a7.32,7.32,0,0,0,0-.81,3.27,3.27,0,0,1-.06-.42c0-.22-.36,0-.36.17s0,.32-.05.47a6.35,6.35,0,0,0-.05.87v1.78c0,.34.56,0,.56-.27V136.88q0-10.78,0-21.58c0-2,0-4,0-6s.05-4-.11-6.06c0-.2-.3,0-.31.15Z"/><path d="M196.56,156.65l-.41-.06c-.24,0-.58.47-.26.52a10.46,10.46,0,0,0,1.48,0h57.51a30,30,0,0,0,3.55-.14c.14,0,.43-.34.18-.37a48.8,48.8,0,0,0-6.05-.13H197.79a14,14,0,0,0-1.71,0c-.24,0-.5.56-.12.51l.45-.06c.15,0,.39-.36.15-.39Z"/><path d="M230.51,44.64c.06,1.06-.87,1.94-1.6,2.58a25,25,0,0,1-2.73,2,16.87,16.87,0,0,0-1.58,1.24l-2,1.7-4.16,3.41c-2.81,2.31-5.56,4.68-8.38,7s-5.52,4.4-8.32,6.55-5.64,4.33-8.42,6.54-5.49,4.49-8.29,6.69A192.42,192.42,0,0,0,169.2,95.41c-2.4,2.33-4.57,4.88-7.09,7.09a36.18,36.18,0,0,1-3.84,2.87,29.56,29.56,0,0,0-3.7,2.72,9.25,9.25,0,0,1-.69.7,3.08,3.08,0,0,0-.55.33c-.17.16-.16.51.15.37a16.6,16.6,0,0,0,3.23-2,25.48,25.48,0,0,0,2.62-2.23c.11-.1.28-.47,0-.47a3,3,0,0,0-2.87,1.92.18.18,0,0,0,.16.25,1.6,1.6,0,0,0,1.2-.38c.12-.1.28-.49,0-.49h-.66c-.3,0-.71.65-.32.65h.66v-.49c-.12.11-.41.06-.55.06l.16.25c.22-.81,1.2-1.13,1.95-1.15v-.47a22,22,0,0,1-2.46,2.16,16,16,0,0,1-3.09,1.93l.14.37c.08-.07.18-.06.27-.1a1.22,1.22,0,0,0,.34-.3c.28-.29.57-.57.87-.83a19.45,19.45,0,0,1,1.86-1.42c1.32-.91,2.7-1.75,4-2.74a75.55,75.55,0,0,0,7.17-6.92c4.83-5,10.31-9.15,15.74-13.39,2.81-2.19,5.55-4.47,8.33-6.7s5.67-4.45,8.53-6.65,5.68-4.37,8.46-6.62,5.56-4.65,8.35-7,5.52-4.62,8.31-6.89c.81-.66,1.77-1.16,2.59-1.81a7.65,7.65,0,0,0,2.2-2.37,2.2,2.2,0,0,0,.24-1.21c0-.2-.33,0-.32.16Z"/><path d="M85.08,152.11c-.14,5-.08,10-.08,15,0,.32.54,0,.54-.26V148.16c0-.33-.55,0-.55.27,0,4.87,0,9.75,0,14.62,0,1.4,0,2.79.11,4.18,0,.21.32,0,.33-.15.15-2.49.11-5,.11-7.47V148.16c0-.33-.55,0-.55.27v18.64c0,.32.54,0,.54-.26,0-5,0-9.92-.08-14.88,0-.23-.38,0-.38.18Z"/><path d="M85.38,149.61c2.24.13,4.5.1,6.74.11H154c.28,0,.69-.63.3-.63-3.24,0-6.48.06-9.72.15-.14,0-.36.32-.16.32,3.2.09,6.39.15,9.58.16.28,0,.69-.63.3-.63l-26.81,0H93.25c-2.55,0-5.11,0-7.66.11-.18,0-.5.43-.21.44Z"/><path d="M85.34,167.44h-.42a.34.34,0,0,0-.12.06s-.09.09-.07.14a.11.11,0,0,0,.06.07h.4a.25.25,0,0,0,.12,0,.23.23,0,0,0,.09-.11.15.15,0,0,0,0-.11.09.09,0,0,0-.08-.05Z"/><path d="M87.14,151.34a3.43,3.43,0,0,0,.06-.55c0-.22-.36,0-.36.18-.11,4.58-.07,9.17-.08,13.75v3.65c0,.32.52,0,.52-.24V154.47c0-1.28,0-2.57-.08-3.84,0-.23-.32,0-.34.16-.1,1.16-.08,2.33-.08,3.49v14.09c0,.32.52,0,.52-.24q0-6.84,0-13.67c0-1.22,0-2.44-.06-3.67,0-.22-.37,0-.36.18a2.63,2.63,0,0,0,.06.48c0,.12.23,0,.24-.11Z"/><path d="M109.29,153.46c-3.52,3.49-7.12,6.92-10.5,10.55-.14.16,0,.29.15.15,3.63-3.38,7.06-7,10.55-10.5.2-.2,0-.4-.2-.2Z"/><path d="M114.34,154.78l-2.43,2.39c-.82.8-1.63,1.59-2.38,2.44-.16.19,0,.33.16.17.86-.75,1.65-1.57,2.45-2.38l2.39-2.43c.2-.2,0-.39-.19-.19Z"/><path d="M144,153q-5.13,5-10.18,10.1c-.92.94-1.84,1.89-2.75,2.85-.14.15,0,.29.15.14,3.41-3.26,6.75-6.62,10.06-10,1-1,1.92-2,2.88-2.94.17-.17,0-.33-.16-.16Z"/><path d="M134.06,158.05l-2.68,2.66c-.88.87-1.79,1.72-2.59,2.67-.12.14,0,.29.17.17.94-.8,1.79-1.71,2.67-2.59l2.65-2.69c.22-.22,0-.44-.22-.22Z"/><path d="M222,114.19c-4.45,4.43-8.9,8.85-13.31,13.32q-1.89,1.9-3.76,3.83c-.13.14,0,.27.14.13q6.73-6.57,13.36-13.26l3.79-3.8c.22-.22,0-.44-.22-.22Z"/><path d="M217,127.59l-2.58,2.54a28.53,28.53,0,0,0-2.48,2.56c-.09.12,0,.23.14.13a28.41,28.41,0,0,0,2.55-2.48l2.54-2.58c.17-.17,0-.34-.17-.17Z"/><path d="M223.78,135.48q-4.89,4.85-9.75,9.71c-.93.92-1.83,1.87-2.73,2.81-.15.16,0,.3.15.15,3.3-3.18,6.53-6.43,9.76-9.7l2.75-2.79c.18-.18,0-.36-.18-.18Z"/><path d="M171.17,191.21c-1,.88-1.92,1.84-2.86,2.77l-2.78,2.77c-1.86,1.87-3.73,3.73-5.58,5.61-.2.21,0,.42.2.21.95-1,1.88-1.93,2.82-2.89.12-.13,0-.26-.13-.13-1,.93-1.93,1.87-2.89,2.81l.2.21c1.89-1.85,3.75-3.72,5.61-5.58.93-.92,1.85-1.85,2.77-2.78s1.89-1.87,2.78-2.86c.13-.15,0-.27-.14-.14Z"/><path d="M166.74,200.6c-1.18,1.16-2.37,2.31-3.47,3.55-.14.15,0,.28.14.14,1.24-1.1,2.39-2.29,3.55-3.47.06-.06.16-.21.07-.29s-.23,0-.29.07Z"/><path d="M190.66,214.22c-3.43,3.39-6.86,6.79-10.25,10.23l-2.88,3c-.13.13,0,.26.13.13,3.47-3.36,6.88-6.78,10.29-10.2,1-1,1.93-2,2.9-2.93.18-.19,0-.37-.19-.18Z"/><path d="M192.84,208.71c-1.61,1.61-3.26,3.18-4.79,4.87-.13.15,0,.28.15.14,1.68-1.52,3.25-3.18,4.86-4.79.22-.22,0-.44-.22-.22Z"/><path d="M215.23,193.16l-5.09,5.08-2.55,2.54a30.65,30.65,0,0,0-2.44,2.53c-.08.1,0,.19.11.11a28.17,28.17,0,0,0,2.49-2.4l2.58-2.58,5.08-5.09c.19-.19,0-.38-.18-.19Z"/><path d="M213.24,224.72c-2.42,2.42-4.84,4.82-7.19,7.29-.12.13,0,.25.12.12,2.47-2.35,4.87-4.77,7.29-7.19.22-.22,0-.44-.22-.22Z"/><path d="M206.92,228.72a44.58,44.58,0,0,0-3.51,3.5c-.14.15,0,.28.14.14a46.37,46.37,0,0,0,3.5-3.51c.13-.14,0-.26-.13-.13Z"/><path d="M159.9,234.77c2.29-2.24,4.62-4.45,6.8-6.8.13-.14,0-.27-.14-.13-2.35,2.17-4.55,4.51-6.8,6.79-.14.15,0,.29.14.14Z"/><path d="M192.87,185.71c-1.7,1.67-3.39,3.34-5,5.07-.13.13,0,.26.13.13,1.72-1.64,3.39-3.34,5.06-5,.17-.17,0-.34-.16-.17Z"/><path d="M85.74,171.32l0-.24c0-.29-.33-.27-.5-.2a.87.87,0,0,0-.49.68c-.08.72-.1,1.47-.13,2.25-.07,1.54-.06,3.09,0,4.63,0,.37.4.38.66.26a1.13,1.13,0,0,0,.66-.9c-.05-2.34-.05-4.67,0-7,0-.37-.41-.38-.66-.26a1.09,1.09,0,0,0-.64.89c-.16,9-.1,18.05-.11,27.07,0,4.48,0,9,0,13.45s.13,8.9.17,13.36c0,2.51.07,5,0,7.54s-.2,4.86-.24,7.3c0,.47.51.47.83.32a1.37,1.37,0,0,0,.8-1.11c0-.6.08-1.23,0-1.82s-.19-1.13-.29-1.69c0-.25-.42-.17-.56-.11a1,1,0,0,0-.55.65c-.1.64-.24,1.3-.29,2s0,1.21,0,1.8.5.48.83.32a1.36,1.36,0,0,0,.8-1.11c0-2.08-.17-4.16-.22-6.25s0-4.48,0-6.72,0-4.5.07-6.75.1-4.52.11-6.77c0-9,0-17.93,0-26.89,0-5.06,0-10.12-.09-15.18,0-.37-.4-.38-.66-.26a1.1,1.1,0,0,0-.64.89c0,2.34,0,4.68,0,7,0,.37.41.38.66.26a1.14,1.14,0,0,0,.66-.9c0-1.52,0-3.07,0-4.59,0-.75-.05-1.46-.14-2.13s-1.05,0-1,.48l0,.21c0,.26.27.28.47.18a.79.79,0,0,0,.47-.63Z"/><path d="M84.74,170.86c3.33.11,6.66.13,10,.22.78,0,1.85-1.71.82-1.71h-5.7a1.44,1.44,0,0,0-1.17.86c-.16.33-.16.87.34.87q27.3,0,54.59,0T198.2,171l15.44,0c2.57,0,5.13,0,7.7,0a51,51,0,0,1,7.62.09c.74.1,1.82-1.51.79-1.65l-.62-.08c-.71-.1-1.93,1.6-1.06,1.78a10.16,10.16,0,0,0,1.91.11c.88,0,2.17-1.94,1-2-1,0-2.05,0-3.07,0a1.68,1.68,0,0,0-1.36,1c-.17.4-.18,1,.4,1,2.15,0,4.28,0,6.42-.12a1.5,1.5,0,0,0,1.19-.86c.15-.33.16-.91-.35-.89a22.4,22.4,0,0,0-3.15.39c-.26,0-1,.86-.47,1a16.32,16.32,0,0,0,2.78.39c.79,0,1.92-1.71.84-1.75-2.1-.08-4.19-.13-6.3-.12a1.68,1.68,0,0,0-1.36,1c-.17.39-.18,1,.4,1,1,0,2,0,3.08,0a1.66,1.66,0,0,0,1.34-1c.17-.38.18-1-.39-1a13.4,13.4,0,0,0-2,.1,1.57,1.57,0,0,0-1.06,1c-.11.3-.08.86.4.8l.7-.08a1.44,1.44,0,0,0,1.12-.82c.13-.27.16-.89-.33-.83a51.88,51.88,0,0,1-6.83.11q-3.39-.06-6.76-.06l-13.63,0q-13.64,0-27.27-.05l-54.54,0H89.85a1.44,1.44,0,0,0-1.17.86c-.16.33-.16.87.34.87h5.71a1.42,1.42,0,0,0,1.15-.84c.15-.33.16-.88-.33-.87-3.4.09-6.8.11-10.2.22-.54,0-1.42,1.25-.61,1.27Z"/><path d="M231.09,172.64c-.22,2.21-.1,4.43-.14,6.65,0,.33.38.34.61.23a1,1,0,0,0,.59-.81c0-3.37,0-6.74,0-10.11,0-.36-.4-.37-.65-.25a1.08,1.08,0,0,0-.63.87q-.06,14-.07,28.09c0,9.3.08,18.59.08,27.88v15.08c0,.35.39.36.64.25a1.09,1.09,0,0,0,.62-.85v-.88c0-.36-.39-.36-.64-.25a1.08,1.08,0,0,0-.62.85c0,.4,0,.81,0,1.21s.43.39.69.27a1.15,1.15,0,0,0,.67-.92c.06-1.22.11-2.43.1-3.65,0-.44-.48-.45-.79-.3a1.33,1.33,0,0,0-.77,1.05c0,1.19,0,2.37.1,3.55,0,.38.41.4.69.27a1.15,1.15,0,0,0,.67-.92c0-.39-.06-.78,0-1.16s-.39-.36-.64-.25a1.06,1.06,0,0,0-.62.85v.88c0,.35.39.36.64.25a1.09,1.09,0,0,0,.62-.85c0-9.12,0-18.23,0-27.35,0-9.31.09-18.63,0-27.94q0-7.89-.07-15.78c0-.36-.4-.37-.65-.25a1,1,0,0,0-.63.87c0,3.35,0,6.71,0,10.07,0,.33.37.34.61.23a1,1,0,0,0,.59-.81c0-2.17.09-4.35-.14-6.51,0-.26-.27-.27-.47-.18a.79.79,0,0,0-.45.62Z"/><path d="M93.18,180.3a23.85,23.85,0,0,0-.12,3.78c0,1.24.1,2.49,0,3.73,0,.3.34.29.54.2a.9.9,0,0,0,.52-.71c.15-2.22.15-4.44.17-6.66,0-.4-.44-.41-.71-.28a1.2,1.2,0,0,0-.69.95c-.07,7.74,0,15.48,0,23.22,0,3.81,0,7.63.07,11.45s0,7.7.13,11.55c.11,4.18-.14,8.37-.21,12.56,0,.4.44.4.71.27a1.16,1.16,0,0,0,.69-1l0-1.33c0-.41-.46-.42-.74-.29a1.24,1.24,0,0,0-.72,1v.92c0,.42.46.43.75.3a1.26,1.26,0,0,0,.73-1c0-.29,0-.58,0-.87a2.15,2.15,0,0,0-.28-.91c-.22-.5-.88.21-1,.46a3.76,3.76,0,0,0-.28,1.18c0,.28,0,.57,0,.85s.45.44.75.3a1.24,1.24,0,0,0,.73-1v-.91c0-.41-.45-.42-.74-.29a1.26,1.26,0,0,0-.72,1l0,1.31c0,.39.43.41.71.27a1.16,1.16,0,0,0,.69-1c0-1.76-.08-3.52-.13-5.28s-.16-3.79-.11-5.68c.1-3.9.11-7.79.14-11.69q.12-11.56.11-23.15c0-4.32,0-8.65,0-13,0-.4-.43-.41-.71-.28a1.18,1.18,0,0,0-.69.95c0,2.16,0,4.34.17,6.5.05.65,1.09,0,1.06-.51-.18-2.47.23-5-.11-7.41,0-.23-.24-.25-.42-.16a.72.72,0,0,0-.42.57Z"/><path d="M93.34,180.24a24.06,24.06,0,0,0,4.06.39c.69,0,1.64-1.51.73-1.51H94.4a1.26,1.26,0,0,0-1,.74c-.13.29-.13.75.3.75h98.7c4.61,0,9.22-.08,13.82,0s9.19.4,13.76.11a1.4,1.4,0,0,0,1.13-.83c.15-.32.16-.84-.33-.84h-.22a1.39,1.39,0,0,0-1.12.82c-.14.3-.16.86.33.83l1.57-.07a1.3,1.3,0,0,0,1-.75c.13-.27.14-.78-.3-.76l-.58,0-.31,0c-.06,0-.44,0-.19,0-.62,0-1.51,1.39-.66,1.39a3.43,3.43,0,0,0,.56-.07c.6-.1,1.23-1.39.32-1.25l-1.15.18c-.23,0-.88.8-.42.88l1,.18a1,1,0,0,0,.91-.44c.11-.17.34-.73,0-.79a2.09,2.09,0,0,0-.5-.08c-.62,0-1.51,1.39-.66,1.39-.21,0,.07,0,.13,0l.34,0,.55,0c.68,0,1.65-1.46.72-1.51l-1.5-.07c-.75,0-1.82,1.6-.79,1.65H220c.72,0,1.86-1.6.8-1.67-2.12-.14-4.25-.06-6.37,0s-4.13,0-6.2.11c-4.09.14-8.19,0-12.29,0H94.4a1.26,1.26,0,0,0-1,.74c-.13.29-.13.75.3.75H97.4a1.26,1.26,0,0,0,1-.75c.13-.29.14-.76-.3-.76a31.56,31.56,0,0,0-4.44.39c-.2,0-.73.66-.35.73Z"/><path d="M221,179.68a.61.61,0,0,1,.15.13c.07.08,0,0,0,0l.07.13.09.28c0,.05,0,.11,0,.17s0,.19,0,.12a12,12,0,0,1,.14,1.8c0,1.38-.1,2.77-.21,4.15,0,.52-.09,1.05-.08,1.58l1.28-.62c0-1.9.17-3.79.2-5.69l-1.25.6a66.29,66.29,0,0,1,.48,10.91c-.07,3.69-.08,7.38-.09,11.07v11.43c0,3.8,0,7.61.05,11.42,0,2.15.12,4.3.17,6.45,0,1.09.08,2.19.1,3.28a31,31,0,0,1,0,3.34l1.25-.6a11.48,11.48,0,0,0-.07-1.17c0-.44-.48-.45-.78-.31a1.31,1.31,0,0,0-.77,1.05l-.05,1c0,.47.53.47.84.32a1.4,1.4,0,0,0,.81-1.12c0,.39,0,0,0-.1,0-.47-.51-.48-.83-.33a1.39,1.39,0,0,0-.82,1.13c0,.1,0,.44,0,.1,0,.46.5.48.84.32a1.38,1.38,0,0,0,.81-1.12l0-.95-1.55.74a1.91,1.91,0,0,0,.18.71,2.35,2.35,0,0,1,.22.45c.08.3.51.17.68.07s.57-.48.54-.8c-.11-1-.07-2-.09-3s0-1.92,0-2.88c0-2-.05-3.92-.06-5.88,0-3.83,0-7.65,0-11.47,0-7.51-.1-15,.05-22.55a60.84,60.84,0,0,0-.56-12.29c-.06-.32-.53-.17-.69-.07a1,1,0,0,0-.54.8c0,1.91-.22,3.8-.23,5.71,0,.36.4.37.65.25a1.08,1.08,0,0,0,.63-.87c0-1.15.16-2.3.22-3.45,0-.74.07-1.47.06-2.2a7.81,7.81,0,0,0-.2-1.93,1.62,1.62,0,0,0-.79-1.18c-.25-.1-.56.14-.7.31s-.35.52-.13.67Z"/><path d="M154.56,181.74a8.6,8.6,0,0,0-.2,1.82c0,.57,0,1.13,0,1.7,0,1.16,0,2.33-.05,3.49,0,.37.41.38.67.26a1.15,1.15,0,0,0,.65-.9c0-2,0-4,0-5.93,0-.39-.43-.4-.69-.27a1.15,1.15,0,0,0-.67.92c0,7.5,0,15,.07,22.51q0,5.67,0,11.35c0,3.73-.06,7.47-.12,11.21l-.08,6.28c0,2.07-.16,4.14-.09,6.21,0,.48.54.53.89.35s.91-.7.87-1.2c0-.14,0-.28,0-.42s0-.09,0-.14,0-.3,0-.16c0-.15-.06-.31-.09-.46-.09-.41-.71-.17-.91,0a1,1,0,0,0-.51,1c.06.29.1.57.14.86.11.69,1.06,0,1.12-.41s.1-.76.17-1.14-.16-.63-.54-.54a1.3,1.3,0,0,0-.9.9c0,.18-.07.36-.09.55,0-.17,0,.11,0,.13s0,.1,0,.16,0,.33,0,.5c0,.5.57.51.89.35a1.53,1.53,0,0,0,.87-1.2c.06-1.84,0-3.69-.08-5.53s-.05-3.65-.08-5.48c0-3.69-.13-7.38-.13-11.07,0-7.54,0-15.08.05-22.63,0-4.21,0-8.43,0-12.65,0-.39-.42-.4-.69-.27a1.16,1.16,0,0,0-.67.92c0,2,0,3.95,0,5.92,0,.37.4.38.67.26a1.14,1.14,0,0,0,.65-.9c0-1.14-.08-2.29-.06-3.43,0-.58,0-1.16,0-1.74a7.3,7.3,0,0,0,0-.81,6,6,0,0,0-.17-.82c-.05-.2-.33-.15-.46-.09a.82.82,0,0,0-.44.52Z"/><path d="M154.32,112.77c0,.29,0,.59,0,.88s.29.28.48.19a.8.8,0,0,0,.47-.64,7.07,7.07,0,0,1,.06-1.13c0-.3-.35-.29-.54-.21a.91.91,0,0,0-.52.72c0,.22,0,.44,0,.66s.34.32.54.22a.94.94,0,0,0,.54-.73l0-1.55c0-.32-.35-.32-.57-.22a.93.93,0,0,0-.55.76c0,3.61,0,7.23,0,10.85s0,7.07.18,10.6c.08,1.77,0,3.56,0,5.34l-.12,5.4c-.09,3.63-.14,7.27-.19,10.9q-.09,5.94-.16,11.88c0,.48.54.51.87.34a1.48,1.48,0,0,0,.85-1.16v-1.54c0-.48-.54-.51-.87-.34a1.45,1.45,0,0,0-.85,1.17c0,.81,0,1.62-.05,2.43,0,.51.58.54.92.36a1.58,1.58,0,0,0,.9-1.23l0-1.33c0-.53-.6-.56-.95-.38a1.64,1.64,0,0,0-.94,1.28c0,.29,0,.58,0,.87,0,.5.55.54.92.36s1-.74.9-1.24a5.71,5.71,0,0,0-.13-.72,3,3,0,0,0-.23-.56c-.1-.22-.37-.19-.56-.1a1.09,1.09,0,0,0-.55.64,8.38,8.38,0,0,0-.33,1.4c-.07.54.25.8.78.62a1.56,1.56,0,0,0,1-1.28c0-.3,0-.6,0-.89,0-.53-.58-.57-.95-.38a1.62,1.62,0,0,0-.94,1.28l0,1.3c0,.5.56.55.92.36a1.55,1.55,0,0,0,.9-1.23c0-.8,0-1.59,0-2.39,0-.48-.54-.51-.87-.34a1.45,1.45,0,0,0-.85,1.17c0,.51,0,1,0,1.53s.53.51.87.34a1.48,1.48,0,0,0,.85-1.16c-.07-7-.16-14.07-.32-21.1-.08-3.53-.21-7.07-.18-10.6,0-1.85.17-3.7.18-5.55l0-5.35c0-4,.05-8.06,0-12.09,0-.31-.35-.33-.57-.22a.93.93,0,0,0-.55.76l0,1.52c0,.31.33.32.54.22a.92.92,0,0,0,.54-.73c0-.22,0-.44,0-.66,0-.62-1.13,0-1.06.51a5.48,5.48,0,0,1,.05,1.07c0,.27.3.27.48.19a.8.8,0,0,0,.47-.64c0-.3,0-.59,0-.88s-.28-.27-.47-.18a.8.8,0,0,0-.46.63Z"/><path d="M154.91,108a.26.26,0,0,1,.05.26c0-.12-.11.19,0,0-.16.29,0,0,.06-.06a.87.87,0,0,0,.09-.11s-.17.19-.07.08l.08-.09a16.67,16.67,0,0,1,1.43-1.36l.24-.21.13-.11.54-.45c.39-.33.79-.65,1.19-1,.88-.71,1.77-1.4,2.67-2.09,3.69-2.85,7.45-5.59,11.18-8.38,1.36-1,2.64-2.06,3.91-3.19q5.15-4.56,10.36-9.06t10.64-8.83c1.78-1.43,3.57-2.82,5.27-4.34s3.15-2.9,4.68-4.39A120.15,120.15,0,0,1,216.84,56c3.51-2.77,7.27-5.22,10.86-7.89.86-.65,1.73-1.31,2.56-2l-1.18-.23v.22l1.37-1.37h-.66a1.53,1.53,0,0,0-1.25.91c-.17.36-.17.92.36.93h.66a1.52,1.52,0,0,0,1.37-1.37V45c0-.68-.84-.5-1.18-.23-3.56,2.91-7.33,5.53-11,8.32a105.76,105.76,0,0,0-10,8.81,124.79,124.79,0,0,1-9.57,8.82q-5.5,4.37-10.87,8.9t-10.67,9.27L175,91.26l-.6.53c-.07.07-.2.12.07-.06-.09.06-.16.14-.24.2-.49.4-1,.78-1.5,1.15-3.67,2.77-7.38,5.46-11,8.26-1.79,1.37-3.57,2.77-5.29,4.25-.57.49-1.14,1-1.67,1.53a3.74,3.74,0,0,0-1,1.42.63.63,0,0,0,.08.61c.38.5,1.48-.58,1.11-1.11Z"/><path d="M229.28,53.08c.09,0,.23-.22.1-.22s-.23.22-.1.22Z"/><path d="M229.14,53.14h-.21a.07.07,0,0,0-.06,0s0,0,0,0h.21s.05,0,.05,0,0,0,0,0Z"/><path d="M233.83,44.35h-.43l.33.33a2.45,2.45,0,0,1-.08-.41l-.16.34.07-.09-.93.45A11,11,0,0,1,236,47.39c.53.5,1,1,1.58,1.5s1.16,1,1.73,1.57c2.31,2.13,4.54,4.35,6.76,6.57,1.11,1.11,2.26,2.17,3.39,3.27s2.22,2.21,3.31,3.33c2.2,2.27,4.36,4.58,6.56,6.85s4.32,4.39,6.49,6.57,4.24,4.22,6.53,6.13,4.84,3.52,7.21,5.34a73.29,73.29,0,0,1,7,6.08q1.59,1.58,3.06,3.27c.93,1.08,1.75,2.25,2.64,3.37a15.53,15.53,0,0,0,1.43,1.61c.51.5,1,1,1.51,1.54,1,1,2,2,2.94,3.06a12.46,12.46,0,0,1,1.2,1.61l1.22-1a6.57,6.57,0,0,1-1.24-2.08l-1.12,1.12a7.45,7.45,0,0,1,2.17,1.94,11.26,11.26,0,0,0,1,1,3.63,3.63,0,0,0,1.33.86l.94-1.58a6.09,6.09,0,0,1-.95-.08c-.59,0-1.45,1.26-.63,1.33l.29.17a1.39,1.39,0,0,0,.35.16,1.11,1.11,0,0,0,1.05-.46c.17-.2.52-.78.19-1s-.88-.49-1.28-.82-.73-.69-1.08-1.05a7.77,7.77,0,0,0-2.47-1.82c-.53-.22-1.26.62-1.11,1.12a8.46,8.46,0,0,0,1.39,2.3c.18.27.68,0,.84-.16s.55-.59.38-.87a18.34,18.34,0,0,0-2.66-3.29c-1-1-2-2.1-3-3.09a25.58,25.58,0,0,1-2.73-3.33c-.88-1.17-1.83-2.27-2.82-3.35a66.68,66.68,0,0,0-6.72-6.29c-1.19-1-2.42-1.91-3.67-2.81s-2.48-1.69-3.67-2.6a72.59,72.59,0,0,1-6.74-6q-3.24-3.23-6.44-6.52c-4.43-4.52-8.66-9.23-13.3-13.55-2.31-2.14-4.48-4.43-6.77-6.59-1.16-1.09-2.34-2.17-3.54-3.22a35.13,35.13,0,0,0-3.17-2.79,8.48,8.48,0,0,0-1.83-1c-.35-.13-.75.2-.93.45a1.24,1.24,0,0,0-.28.68,3.56,3.56,0,0,0,.1.47c0,.19.12.34.34.34h.44a1.08,1.08,0,0,0,.88-.63c.12-.26.11-.66-.26-.66Z"/><path d="M304.08,110.59c-.27,5.17-.2,10.36-.21,15.53s0,10.19-.05,15.29q-.06,15.35-.08,30.68,0,8.7,0,17.4c0,.49.53.49.86.34a1.41,1.41,0,0,0,.84-1.15V158.85c0-.48-.53-.48-.86-.33a1.41,1.41,0,0,0-.84,1.15q0,12.83,0,25.66c0,.49.53.49.87.34a1.45,1.45,0,0,0,.85-1.16c0-1.17-.07-2.33,0-3.49,0-.48-.52-.47-.83-.33a1.38,1.38,0,0,0-.81,1.12c-.09,3.83-.05,7.66-.06,11.5s0,7.6.12,11.4c.07,1.81.23,3.63.18,5.44s-.07,3.88-.07,5.82q0,5.68-.15,11.35-.15,6.44-.11,12.87c0,.52.56.52.92.36a1.52,1.52,0,0,0,.9-1.24v-1.53c0-.52-.56-.52-.91-.36a1.51,1.51,0,0,0-.89,1.23c0,1.37,0,2.73.14,4.1.06.94,1.57,0,1.52-.74-.06-.86-.06-1.73-.07-2.6s-1.37.06-1.38.67c0,.89,0,1.78-.07,2.67,0,.44.49.42.77.3a1.32,1.32,0,0,0,.75-1c.09-1.41.13-2.82.14-4.23,0-.52-.56-.52-.91-.36a1.5,1.5,0,0,0-.89,1.23v1.54c0,.52.57.52.92.36a1.53,1.53,0,0,0,.9-1.24c.05-7.56-.26-15.1-.26-22.65,0-1.84,0-3.68,0-5.51s0-3.88.08-5.83c.14-3.8.17-7.6.17-11.41,0-4.3,0-8.6-.06-12.89,0-1-1.66,0-1.64.79,0,1.17,0,2.35,0,3.52,0,.49.53.49.87.34a1.45,1.45,0,0,0,.85-1.16q0-12.82,0-25.66c0-.48-.53-.48-.86-.33a1.41,1.41,0,0,0-.84,1.15v29.82c0,.49.53.49.86.34a1.41,1.41,0,0,0,.84-1.15q0-15.35,0-30.68c0-10.2-.08-20.39-.1-30.59,0-5.76.1-11.54-.23-17.29,0-.64-1,.06-1,.47Z"/><path d="M194.4,104.25l-.08,1.15c0,.38-.12.75-.16,1.13a18.57,18.57,0,0,0,0,2.24c0,1.47,0,2.94-.06,4.41,0,.41.45.41.73.28a1.19,1.19,0,0,0,.7-1c0-2.64,0-5.27,0-7.91,0-.42-.46-.43-.75-.29a1.25,1.25,0,0,0-.73,1q0,10.1,0,20.19c0,6.75,0,13.49-.07,20.23l-.08,5.65a53.79,53.79,0,0,0,.12,5.68c.09.91,1.58,0,1.47-.7l-.17-1c-.11-.7-1.21,0-1.13.54a1.59,1.59,0,0,1,0,.23c0,.29.33.3.53.21a.91.91,0,0,0,.52-.72.56.56,0,0,0,0-.13c.12-.8-1-.25-1.09.28l-.16,1.16c-.07.43.19.65.62.5a1.27,1.27,0,0,0,.82-1c.15-1.73.15-3.45.13-5.18l-.07-4.95c0-3.35-.09-6.7-.1-10.06,0-6.74,0-13.48,0-20.22,0-3.78,0-7.57,0-11.35,0-.42-.46-.43-.75-.29a1.25,1.25,0,0,0-.73,1c0,2.63,0,5.25,0,7.88,0,.4.44.42.73.28a1.19,1.19,0,0,0,.7-1c0-1.46-.07-2.91-.05-4.36a15.41,15.41,0,0,0,0-2.15c0-.33-.13-.64-.16-1l-.09-1.13c0-.21-.22-.22-.38-.15a.66.66,0,0,0-.37.51Z"/><path d="M195.27,158.26a5.09,5.09,0,0,0,.67.18c.24,0,.5,0,.74,0l1.62,0c1,0,2.09,0,3.13,0h6.17l12.5,0q12.5,0,25,0c2.3,0,4.6,0,6.9,0s4.68.19,7,0a1.47,1.47,0,0,0,1.18-.86c.15-.31.17-.91-.34-.87a4.81,4.81,0,0,0-1.3.29,1.11,1.11,0,0,0-.67.57c-.09.2-.12.47.12.58s.24.13.37.18a2.26,2.26,0,0,0,.64.11,1.42,1.42,0,0,0,1.18-.86c.18-.37.15-.83-.34-.87a62.24,62.24,0,0,0-6.26,0c-2.05,0-4.1,0-6.16,0H234.94q-12.52,0-25,0H203l-3.54,0c-.59,0-1.19,0-1.78,0l-.9,0a5.37,5.37,0,0,0-1,.17,1,1,0,0,0-.63.54c-.07.16-.13.48.11.54Z"/><path d="M259.9,103.21l0-.3c.12-.8-1-.25-1.08.27a9.12,9.12,0,0,0-.09,1c0,.36.4.36.64.25a1.06,1.06,0,0,0,.62-.85l0-.45c0-.37-.41-.37-.66-.25a1.11,1.11,0,0,0-.64.87c0,.44,0,.87,0,1.31s.39.37.64.25a1.06,1.06,0,0,0,.62-.85c0-.69,0-1.37,0-2,0-.35-.39-.36-.63-.24a1,1,0,0,0-.61.84c-.12,7.13,0,14.26,0,21.38s0,14.22,0,21.33v6c0,2,0,4,0,6,0,.36.4.37.65.25a1.08,1.08,0,0,0,.63-.86c0-.66,0-1.31.1-2,0-.42-.48-.42-.75-.29a1.25,1.25,0,0,0-.73,1,24.26,24.26,0,0,0-.16,2.56c0,.5.56.54.91.36a1.54,1.54,0,0,0,.89-1.22,21.85,21.85,0,0,0-.16-2.42c-.09-.92-1.55,0-1.48.72s.08,1.23.1,1.85c0,.36.39.38.65.25a1.07,1.07,0,0,0,.63-.86c0-1.79,0-3.58,0-5.37v-5.35c0-3.55,0-7.1,0-10.64l.06-21.37c0-4,0-8-.06-12,0-.35-.38-.36-.63-.24a1,1,0,0,0-.61.84c0,.68,0,1.36,0,2,0,.36.4.36.64.25a1.08,1.08,0,0,0,.62-.85c0-.45,0-.89,0-1.33s-.4-.38-.66-.25a1.09,1.09,0,0,0-.64.87l0,.43c0,.36.38.37.64.25a1.06,1.06,0,0,0,.62-.85,7.71,7.71,0,0,0-.07-.84c-.12-.7-1.2,0-1.12.53l.05.27c.11.62.95,0,1-.37Z"/><path d="M195.45,103.82a3,3,0,0,0,.63.22c.24,0,.49,0,.73,0l1.59,0c1,0,2,0,3,0h6.14c4.07,0,8.13,0,12.19,0s8.15,0,12.23,0,8.17-.12,12.25-.13c2.28,0,4.57,0,6.85,0,1.13,0,2.25,0,3.37,0h.87a4.82,4.82,0,0,1,.74.14,14.28,14.28,0,0,0,1.72.16,1.52,1.52,0,0,0,1.24-.9c.19-.4.15-.88-.36-.93s-1.15,0-1.72-.07a1.6,1.6,0,0,0-1.34,1c-.18.43-.17,1,.39,1a3.23,3.23,0,0,0,1.12-.07,1.65,1.65,0,0,0,1.15-1.14c.12-.5-.21-.8-.69-.69l-.3.06a1.59,1.59,0,0,0-1,.84c-.12.25-.2.76.17.86l.24.07a1.38,1.38,0,0,0,1.34-.66c.18-.27.5-1,0-1.17a3.15,3.15,0,0,0-1.06-.07,1.68,1.68,0,0,0-1.34,1c-.15.35-.2,1.05.39,1s1.2,0,1.79-.07a1.59,1.59,0,0,0,1.24-.9c.15-.33.17-1-.36-.93l-1.55.12a6.13,6.13,0,0,0-.84.14,3.52,3.52,0,0,1-.86,0c-1,0-2,0-3,0-2-.07-4.09,0-6.14,0-4,0-8.09-.1-12.13-.12-8.13-.06-16.25-.06-24.38,0H202.9c-1.12,0-2.24,0-3.36,0-.59,0-1.18,0-1.76,0l-.9,0a4.58,4.58,0,0,0-1,.21.94.94,0,0,0-.56.49c-.08.16-.11.42.09.49Z"/><path d="M198.48,108.29a5.49,5.49,0,0,0-.13,1.07c0,.38.42.38.67.26a1.09,1.09,0,0,0,.66-.9,3.64,3.64,0,0,0,0-.57c0-.35-.37-.37-.63-.25a1.08,1.08,0,0,0-.62.85l0,1c0,.36.41.37.65.25a1.06,1.06,0,0,0,.64-.87l0-1.33c0-.38-.42-.39-.68-.27a1.14,1.14,0,0,0-.66.91c0,2.9,0,5.8,0,8.69s.07,5.76.07,8.64c0,5.79.05,11.58,0,17.37,0,1.62-.06,3.24-.11,4.86,0,.81-.1,1.65-.07,2.46,0,.41.05.81.08,1.21a7,7,0,0,0,.13,1.21c.1.37.64.16.83,0s.64-.62.46-.94l-.18-.31c-.21-.38-.79.05-.89.33l-.16.43c-.12.32-.11.71.35.67a1.13,1.13,0,0,0,.88-.82,14.77,14.77,0,0,0,.19-2.3c.05-.72,0-1.45,0-2.17-.05-1.42-.09-2.83-.11-4.25-.05-2.89-.06-5.77-.06-8.65v-8.67c0-2.9.06-5.8.06-8.71,0-3.23,0-6.47,0-9.71,0-.38-.42-.39-.68-.27a1.12,1.12,0,0,0-.66.91l0,1.31c0,.36.4.37.65.25a1.06,1.06,0,0,0,.64-.87l0-1c0-.35-.38-.36-.63-.25a1.09,1.09,0,0,0-.62.85c0,.2,0,.41,0,.61,0,.37.41.39.67.26a1.09,1.09,0,0,0,.66-.9,3.74,3.74,0,0,0-.13-.94c-.06-.24-.39-.18-.54-.11a1,1,0,0,0-.53.62Z"/><path d="M198.27,153.53c1.89.16,3.8.09,5.69.09l5.6,0H232c1.91,0,3.83,0,5.74,0,.95,0,1.88-.11,2.83-.19a26.39,26.39,0,0,1,2.95-.18c2.08.06,4.15.16,6.23.26.66,0,1.32.1,2,.17l.45.06.17,0c.08,0,.08,0,0,0a.54.54,0,0,0,.25,0c.17,0,.34,0,.5,0a1.45,1.45,0,0,0,1.18-.86c.16-.34.16-.88-.34-.88h-.38a4.73,4.73,0,0,0-.52,0l-.44.07c.12,0-.14,0-.13,0l-.19,0-.41,0c-.3,0-.61.07-.91.08-1.91.09-3.82.2-5.73.25l-1.39,0a12,12,0,0,1-1.46-.06l-2.62-.24c-1.88-.17-3.78-.11-5.67-.11q-11.24,0-22.49,0l-6.35,0c-2.13,0-4.28-.08-6.4.09a1.09,1.09,0,0,0-.86.62c-.12.27-.1.61.25.64Z"/><path d="M254.51,108l0,.47c0,.32.37.31.56.22a1,1,0,0,0,.55-.76c0-.29,0-.59,0-.88s-.36-.34-.58-.23a1,1,0,0,0-.57.78l0,.59c0,.34.38.34.6.24a1,1,0,0,0,.58-.81v-.44l-1.19.58c-.12,6,.36,11.92.72,17.87.18,3,.34,6,.44,9s.07,5.87.12,8.8l.09,5c0,.8,0,1.59,0,2.39,0,.4,0,.8,0,1.2a9.78,9.78,0,0,1,0,1.21c0,.35.14.61.52.52a1.25,1.25,0,0,0,.85-.86.06.06,0,0,1,0,0l.05-.13a1.56,1.56,0,0,0,.08-.44,2.09,2.09,0,0,0-.17-.59c-.27-.82-2.15.5-1.51,1.29a.64.64,0,0,0,.13.15c.09.1,0,.08,0,0s0,.16,0,.13a.65.65,0,0,0,0,.14c.14.88,1.51,0,1.41-.68-.05-.32,0-.65-.05-1s0-.74,0-1.11v-2.16c0-1.48,0-3,0-4.43,0-3,0-6-.06-8.93-.13-5.94-.63-11.87-1-17.8-.19-3.36-.31-6.71-.39-10.07,0-.34-.36-.35-.6-.24a1,1,0,0,0-.59.82v.43c0,.33.37.35.6.24a1,1,0,0,0,.58-.81V107c0-.33-.35-.34-.58-.23a1,1,0,0,0-.57.78c0,.29,0,.58,0,.87,0,.67,1.17,0,1.11-.54l0-.41c0-.28-.29-.31-.51-.2a.88.88,0,0,0-.5.68Z"/><path d="M199.13,107.52a43.79,43.79,0,0,0,5.25.16h5.24c3.55,0,7.09,0,10.64,0,7.06,0,14.12-.08,21.19-.08h5.87c.93,0,1.86.06,2.79.11.46,0,.91.1,1.36.13a2.5,2.5,0,0,0,.82,0,3.27,3.27,0,0,0,1-.51c.19-.12.56-.56.4-.81a1.13,1.13,0,0,0-.4-.49,1.49,1.49,0,0,0-.63-.09c-.45,0-.91.08-1.36.12-.89.06-1.78.11-2.67.13-1.72,0-3.43,0-5.14,0-3.51,0-7,0-10.51,0-7.07,0-14.13-.09-21.2-.09h-6a54.83,54.83,0,0,0-6,.16,1.15,1.15,0,0,0-.92.67c-.14.3-.11.64.27.68Z"/><path d="M230.62,108.43c-.11,5.65-.15,11.3-.16,16.94s.12,11.24.06,16.85c0,3.16-.1,6.31-.17,9.47,0,.47.53.48.84.33a1.4,1.4,0,0,0,.82-1.13,10,10,0,0,0,0-1.34,6.83,6.83,0,0,0-.11-.79c0-.12-.06-.39-.17-.46l.09.23v0c0-.34-.38-.35-.61-.24a1,1,0,0,0-.6.82h0c0,.34.37.35.61.24a1,1,0,0,0,.6-.82h0c0-.34-.38-.35-.61-.24a1,1,0,0,0-.6.82v0l.16-.46a3.87,3.87,0,0,0-.35,1.62,11.07,11.07,0,0,0,0,1.41c0,.47.51.49.84.33a1.4,1.4,0,0,0,.82-1.13c-.11-5.56-.22-11.12-.16-16.68s.07-11.28,0-16.92c0-3.13-.07-6.27-.14-9.4,0-.32-.34-.33-.56-.22a1,1,0,0,0-.56.76Z"/><path d="M85.54,149.76c-.05.58-.13,1.18-.14,1.77s0,1.1,0,1.65c0,1.13,0,2.25,0,3.38v6.75c0,1.26,0,2.53,0,3.79,0,.36.4.37.64.25a1.07,1.07,0,0,0,.64-.87l0-3.23c0-.38-.42-.39-.68-.26a1.11,1.11,0,0,0-.66.91c0,1.11-.1,2.22-.11,3.34s0,2.2,0,3.3c0,.46.5.47.82.32a1.36,1.36,0,0,0,.79-1.1q0-7.59,0-15.18c0-1.42,0-2.84,0-4.26,0-.46-.51-.47-.82-.32a1.35,1.35,0,0,0-.8,1.1c0,.9,0,1.81,0,2.71,0,.45,0,.9,0,1.34,0,.19,0,.38.07.58a1.71,1.71,0,0,0,.25.61c.24.42.87-.05,1-.36a4.81,4.81,0,0,0,.27-.81c0-.23.07-.47.09-.7,0-.47,0-.95,0-1.42,0-.91,0-1.82,0-2.73,0-.46-.5-.48-.82-.32a1.35,1.35,0,0,0-.8,1.1c0,2.49,0,5,0,7.48s0,5.09,0,7.63v4.33c0,.46.5.47.82.32a1.36,1.36,0,0,0,.79-1.1c0-1.09,0-2.18,0-3.27s-.1-2.16-.11-3.24c0-.38-.42-.39-.68-.26a1.09,1.09,0,0,0-.66.91l0,3.2c0,.36.39.37.64.25a1.06,1.06,0,0,0,.64-.87c0-4.49,0-9,0-13.46l0-1.82c0-.63-.09-1.26-.15-1.88,0-.25-.26-.27-.46-.18a.79.79,0,0,0-.45.62Z"/><path d="M77.51,238c.29,0,.7-.64.31-.64s-.71.64-.31.64Z"/><path d="M70.57,241.4h.58c.7,0,1.69-1.55.74-1.55H69c-.71,0-1.72,1.57-.76,1.57,7,0,14,.12,21.06,0,.7,0,1.69-1.57.75-1.55-5,.09-10,.06-14.94.06-.65,0-1.57,1.43-.7,1.43q48.06,0,96.12,0,47.88,0,95.74,0c17.59,0,35.18.14,52.76.21.9,0,2.18-2,1-2h-2.92c-.91,0-2.2,2-1,2,2,0,4.09,0,6.13,0,1,0,2.25-2.07,1-2.07s-2.23.21-3.34.21c-.75,0-1.81,1.65-.79,1.65h0c.74,0,1.81-1.65.79-1.65h0c-.75,0-1.81,1.65-.79,1.65s2.08.21,3.13.21,2.24-2.11,1-2.07c-2,.06-4.11,0-6.16,0-.91,0-2.2,2-1,2H319c.9,0,2.18-2,1-2q-47.52.19-95,.2-47.87,0-95.72.06l-54.13,0c-.65,0-1.57,1.43-.7,1.43,5,0,9.93,0,14.89.06.7,0,1.7-1.53.75-1.55-7-.13-14,0-21,0-.71,0-1.72,1.57-.76,1.57h2.93c.7,0,1.69-1.55.74-1.55h-.58c-.69,0-1.69,1.55-.74,1.55Z"/><path d="M176.34,86.9a56.24,56.24,0,0,0-4.09-5.27c-1.38-1.46-3.27-3-5.43-2.82a5.26,5.26,0,0,0-3.21,1.83s-.11.17,0,.17.71.1.93,0,.18-.28.25-.39.19-.36.27-.55a1.74,1.74,0,0,0,.2-1.26c-.27-.7-1.44-.45-2-.36l-1.46.26a1.57,1.57,0,0,1-1.15-.09,8.41,8.41,0,0,1-2.06-3c-.72-1.43-1.33-2.92-2-4.4a37.26,37.26,0,0,0-1.53-3.49,21.44,21.44,0,0,0-2.43-3.6,7.36,7.36,0,0,0-3.76-2.7,3.55,3.55,0,0,0-3.68,1.49,8.5,8.5,0,0,0-.77,4.26c0,.78,0,1.57,0,2.35a4.83,4.83,0,0,1-.4,2c-.59,1.15-1.92.81-2.91.47a32.1,32.1,0,0,1-4-1.87,11.56,11.56,0,0,0-3.28-1.4,8.11,8.11,0,0,0-4.72.55,8.32,8.32,0,0,0-3.27,2.9,14,14,0,0,0-1.2,2.18,11.12,11.12,0,0,0-.83,2.85,19.86,19.86,0,0,0,.08,6.25c.66,4,2.28,7.82,3.35,11.75.27,1,.51,2,.68,3.07l.13-.15c-2.43.76-4.92,1.37-7.31,2.25a15.88,15.88,0,0,0-6.06,3.59,10.39,10.39,0,0,0-2.78,7c-.13,3.47,1.39,6.73,3.32,9.52a5.69,5.69,0,0,0,2.36,2.1,8.4,8.4,0,0,0,3.11.52h1.46c.35,0,.34.08.38.42a20.15,20.15,0,0,1,.08,2.06,3.61,3.61,0,0,0,.25,1.52A3.56,3.56,0,0,0,124,128a5.25,5.25,0,0,0,1.34.72c.35.12.71.18,1.06.29.94.31,1.19,1.36,1.4,2.23.46,1.92-.7,3.72-1.31,5.48a3,3,0,0,0-.21,2.09c.31.71,1.23.8,1.9.78l.47,0c.07,0,.36-.09.42,0,.24.16,0,.82-.06,1a4.17,4.17,0,0,1-1.13,1.38,6.44,6.44,0,0,0-2.26,2.93,4.1,4.1,0,0,0-.08,1,1.69,1.69,0,0,1-.18,1.07c-.13.15.08.18.17.07.49-.57.15-1.57.33-2.25a4.77,4.77,0,0,1,1.53-2.13c.95-.89,2.2-1.82,1.94-3.28,0,0-.06,0-.08,0a3.79,3.79,0,0,1-2.38-.2,1.25,1.25,0,0,1-.46-1.31,20.64,20.64,0,0,1,1.37-3.91,5.77,5.77,0,0,0,.37-1.89,5.58,5.58,0,0,0-.61-2.29,1.7,1.7,0,0,0-1-.91,8.75,8.75,0,0,1-1.68-.57,3.47,3.47,0,0,1-2-2.25,8.87,8.87,0,0,1-.07-1.46,11.51,11.51,0,0,0-.14-1.94,0,0,0,0,0-.05,0c-2.2,0-4.65.15-6.33-1.52a7.82,7.82,0,0,1-1.07-1.36c-.45-.68-.88-1.39-1.27-2.11a14.68,14.68,0,0,1-1.72-5,10.74,10.74,0,0,1,2-8.16A13.74,13.74,0,0,1,120,100.5c2.59-1,5.31-1.68,8-2.5,0,0,.14-.08.13-.15-.66-3.88-2.17-7.53-3.22-11.3a27.5,27.5,0,0,1-1.06-6,14.23,14.23,0,0,1,.85-6.24,11.2,11.2,0,0,1,2.61-4,6.9,6.9,0,0,1,4.21-1.85,7.75,7.75,0,0,1,2.45.14,8,8,0,0,1,1.45.58c1.29.61,2.54,1.31,3.84,1.91a8.15,8.15,0,0,0,3.42,1.07,1.9,1.9,0,0,0,1.75-1.45,13.68,13.68,0,0,0,.28-4.09c0-1.39,0-3.24,1-4.35A3.38,3.38,0,0,1,148,61.29a4,4,0,0,1,2.06.62,11.38,11.38,0,0,1,3.39,3.45,20.4,20.4,0,0,1,1.85,3.16c.57,1.26,1.07,2.55,1.61,3.83a40.9,40.9,0,0,0,1.91,4.08,10.25,10.25,0,0,0,.95,1.47,2.27,2.27,0,0,0,.91.83c.83.25,4.28-1.21,4.37.22a3.5,3.5,0,0,1-.69,1.75l.16-.12h-.84v.18A4.91,4.91,0,0,1,166.8,79a4.73,4.73,0,0,1,2.74.71,16.7,16.7,0,0,1,4.7,4.7c.65.87,1.27,1.77,1.92,2.64.06.08.25-.09.18-.18Z"/><path d="M131.31,180.11c-.8,1-2.28,2.86-1.23,4.15a3.23,3.23,0,0,0,1.58.91,14.86,14.86,0,0,0,2.37.48,21.67,21.67,0,0,1,5,1,8.61,8.61,0,0,1,2.84,2.17c.93,1,1.73,2.09,2.68,3.06a9.34,9.34,0,0,0,4.14,2.59,18.64,18.64,0,0,0,5.27.48c.09,0,.23-.21.1-.21a20.49,20.49,0,0,1-4.76-.35,9,9,0,0,1-4-2.09c-2-1.77-3.27-4.2-5.6-5.57a6.42,6.42,0,0,0-2-.69c-.83-.18-1.67-.29-2.51-.4s-1.71-.23-2.56-.4a6.27,6.27,0,0,1-1.92-.67c-1.79-1.11-.28-3.23.65-4.39.07-.09,0-.1-.1,0Z"/><path d="M125,72.72a19.19,19.19,0,0,1-3.37,4.5A19.48,19.48,0,0,0,120,79.34a14,14,0,0,0-1.13,2.3,20,20,0,0,0-1.18,9.59,8.83,8.83,0,0,0,1.83,4.67l.12-.21a19.62,19.62,0,0,0-7.7,4.2,25.4,25.4,0,0,0-5.82,7.14,18.81,18.81,0,0,0-1.64,4,9.87,9.87,0,0,0-.18,3.94,13.53,13.53,0,0,0,3.38,6.9,21.63,21.63,0,0,0,6.58,5,32.88,32.88,0,0,0,7.49,2.46c3.84.88,8.42,1.09,11.25,4.19a11.53,11.53,0,0,1,1.84,2.84,11.69,11.69,0,0,1,1.23,4,20.06,20.06,0,0,1-1.62,8.5c-.2.51-.42,1-.67,1.52-.08.16.14.11.19,0a23.24,23.24,0,0,0,2.22-7.51,10.11,10.11,0,0,0-.13-4,16.65,16.65,0,0,0-1.53-3.67,9.44,9.44,0,0,0-4.07-3.89,23.86,23.86,0,0,0-5.69-1.61c-1.15-.23-2.3-.46-3.43-.73s-2.5-.62-3.72-1a22.39,22.39,0,0,1-7.21-3.88,16.84,16.84,0,0,1-5-6.28,10.74,10.74,0,0,1-.34-7.9A22.9,22.9,0,0,1,110,102a22.12,22.12,0,0,1,7.53-5.39,13.86,13.86,0,0,1,2.09-.7c.06,0,.19-.13.12-.21A8.26,8.26,0,0,1,118,91.52a18,18,0,0,1,0-5,20.23,20.23,0,0,1,1-4.56A13.08,13.08,0,0,1,120,79.6a16.29,16.29,0,0,1,1.7-2.26,18.83,18.83,0,0,0,3.4-4.61c.06-.13-.11-.09-.15,0Z"/><path d="M136.33,179.33c0,1.16.85,2.09,1.17,3.18a12.39,12.39,0,0,1,.13,4.74,23.31,23.31,0,0,0-.29,4.72,10.16,10.16,0,0,0,1.24,3.93,13.32,13.32,0,0,0,5.7,5.69,7.92,7.92,0,0,0,2.72.66,17.8,17.8,0,0,0,3,.05c1.75-.14,4.11-.77,4.11-2.92,0-.13-.21,0-.21.1,0,2-2.26,2.48-3.86,2.6a16.59,16.59,0,0,1-2.82-.05,8,8,0,0,1-2.65-.58,13,13,0,0,1-5.67-5.5,10.2,10.2,0,0,1-1.31-3.78,17.85,17.85,0,0,1,.18-4.44,15.47,15.47,0,0,0,0-4.85,7,7,0,0,0-.79-2,3.36,3.36,0,0,1-.57-1.61c0-.09-.13,0-.13.07Z"/><path d="M305.08,165.51a31.2,31.2,0,0,1,4.1-2.31c1.32-.53,3.13-.91,4.26.23a3.88,3.88,0,0,1,.93,3,13.13,13.13,0,0,1-1,3.84c-.91,2.39-2.18,4.63-3.2,7a21.26,21.26,0,0,0-1.6,5.53,12.48,12.48,0,0,0,.35,5.7c1.06,3,3.44,5.12,5.4,7.54a18.45,18.45,0,0,1,2.5,4c.71,1.61,1.21,3.31,1.76,5s1.23,3.21,1.62,4.89a9.4,9.4,0,0,1,.08,4.91,4.69,4.69,0,0,1-2.52,2.9,12.53,12.53,0,0,1-2.66.8,15.22,15.22,0,0,1-6.41,0c-1.79-.43-3.57-1.44-4-3.38a4.9,4.9,0,0,1,0-1.53c0-.1-.16,0-.17.09a4.23,4.23,0,0,0,.52,2.83,4.63,4.63,0,0,0,2,1.68,12.39,12.39,0,0,0,6.35.74,16.88,16.88,0,0,0,3.06-.59,6.6,6.6,0,0,0,2.38-1.16c2.65-2.25,2-6.06,1.1-9-.26-.83-.62-1.62-.9-2.45s-.57-1.73-.85-2.59a22.38,22.38,0,0,0-2-4.82c-.41-.67-.81-1.34-1.28-2s-1-1.24-1.52-1.84a31.83,31.83,0,0,1-3-3.71,12,12,0,0,1-1.16-2.29,9.39,9.39,0,0,1-.56-3,17.53,17.53,0,0,1,.91-6.18c.89-2.76,2.38-5.26,3.52-7.91a20.07,20.07,0,0,0,1.3-3.9,5.81,5.81,0,0,0-.16-3.38,3.09,3.09,0,0,0-1-1.22,3,3,0,0,0-2-.48,9.86,9.86,0,0,0-4.39,1.71c-.64.38-1.26.8-1.91,1.19-.09.05-.07.19.05.12Z"/><path d="M302.92,171c4.07,0,9,.49,11.81,3.86a9.88,9.88,0,0,1,2,6,12.75,12.75,0,0,1-.53,4.34,15.66,15.66,0,0,0-1,3.84,4.41,4.41,0,0,0,.33,1.9,6.29,6.29,0,0,0,1.17,1.73,15.26,15.26,0,0,1,2.28,2.85,3.66,3.66,0,0,1-.41,3.63,8.52,8.52,0,0,1-2.37,2.34,7.77,7.77,0,0,0-2.08,2,3.72,3.72,0,0,0-.32,3,9.67,9.67,0,0,0,1.61,3,6,6,0,0,1,1.3,3,10.4,10.4,0,0,1-.12,2.23,7.69,7.69,0,0,1-.47,1.83,4.11,4.11,0,0,1-1.89,2.17c-1.81.92-4.06.41-5.86-.23-.54-.19-1.07-.41-1.59-.64-.08,0-.23.14-.13.19a11.25,11.25,0,0,0,6.19,1.3,4.32,4.32,0,0,0,2.33-1.1,5.48,5.48,0,0,0,1.46-2.73,13.64,13.64,0,0,0,.28-2,5.89,5.89,0,0,0-.15-2,8.82,8.82,0,0,0-1.53-2.72,6.74,6.74,0,0,1-1.4-3.64,3.49,3.49,0,0,1,1.36-2.69c.8-.69,1.7-1.23,2.47-2a5.83,5.83,0,0,0,1.85-3.3,3.84,3.84,0,0,0-1-2.89c-.4-.5-.85-1-1.28-1.46a8.51,8.51,0,0,1-1.33-1.72,5.39,5.39,0,0,1-.08-4.17,18.36,18.36,0,0,0,1.1-4.3,12.1,12.1,0,0,0-1.23-6.83c-2.17-3.79-6.83-4.76-10.86-4.95-.62,0-1.24,0-1.85,0-.07,0-.17.15-.08.15Z"/><path d="M222.56,234.55l-.1,0c1.63-8.58,0-17.85,0-26.55.06-9.22,1.12-19-.56-28.09-.37-2-2.89-.52-4.33,1a1.64,1.64,0,0,0-.29-.2c-7.06-3.86-19.26-1.47-27.16-1.47-9.56,0-19.83-1.12-29.22.75a1.85,1.85,0,0,0-.56.24c-1.76-.78-4.59,2.42-5,3.8a9.58,9.58,0,0,0-.15,4c.12,1.49.09,3,.1,4.47a1.36,1.36,0,0,0,1.09,1.46l.29,0c-1.87.87-2.57,2.57-2.74,4.51-.06.72.53,1,1.12,1.11a18.37,18.37,0,0,0,8.62-.86c8.07.8,17.07-.36,24.66-.36s16.12,1.14,23.87,0c-1.09,6.18-.78,12.46-.8,18.74,0,6.8-1.59,15.55,1.36,21.81a1.14,1.14,0,0,0,1.64.61,11.2,11.2,0,0,0,5,.35,4.57,4.57,0,0,0,3.27-2C223.26,237,224,235.06,222.56,234.55Z" fill="#c4c4c4" style="mix-blend-mode:multiply"/><path d="M256.47,148.7c-.08-.49-.46-.82-1.27-.81-.42,0,0-37.29-.46-40.72-.27-2.1-2.25-1-3.44.42a3.68,3.68,0,0,0-1.3.12c-6.27-1.65-13.84-.46-20.1-.46-8,0-16.13-.24-24.16.13,0,0,0-.07,0-.1-.45-1.41-1.86-.71-2.93.29-2.68.71-6.72,6.12-2.68,6.4l.59,0c-.64,5.46-.36,11.08-.37,16.53,0,5.19-1,11.59.11,16.9-.11,1-.2,2-.35,3-.08.58-.1,1.38.62,1.59l.84.24.85.24.11,0c.36.84,1.63.61,2.26.31a4,4,0,0,0,2.37-3.25,1.68,1.68,0,0,0-.14-.74s0,0,0,0c-.23-.82-.42-1.65-.61-2.48,1.38-6.08.56-12.79.54-19,0-4.21.31-8.73,0-13.09,6.54.14,13.11-.06,19.62-.06s13.16.62,19.56-.36a2.57,2.57,0,0,0,1.95.58,2.45,2.45,0,0,0,.85-.05c-.47,6.11-1.23,12.05-1.25,18.31,0,5.42-1.26,12.14.84,17.25-1,1.51-1.24,3.24.55,3.19l3.69-.12C254.48,153,256.82,150.15,256.47,148.7Z" fill="#c4c4c4" style="mix-blend-mode:multiply"/><path d="M260,157.35c-.1-.74-.63-1.23-1.83-1.16-17-1.07-34.19-.54-51.25-.39-2.4-.14-4.89,0-7.32,0a5.92,5.92,0,0,0-3.82,2.17,5.34,5.34,0,0,0-2,3.1,3.33,3.33,0,0,0-.21,1.68c.16.77.78,1.29,2,1.29,19.58,0,39.36.81,58.91-.36C257.17,163.89,260.67,159.51,260,157.35Z" fill="#c4c4c4" style="mix-blend-mode:multiply"/></g></svg>