<svg xmlns="http://www.w3.org/2000/svg" viewBox="0 0 430 294"><g style="isolation:isolate"><path d="M241.44,118.76c-.39-1.14-1.42-.79-2.34-.08-6.33-2.6-15.48-1-22.15-1l-26.55,0c-17.46,0-35.9-1.62-53.24.42a2.32,2.32,0,0,0-.47.12c-.1-.17-.19-.36-.3-.53-1.17-1.78-4,1.72-4,2.92-.05,16.73-.91,33.51-.73,50.24,0,1.67,1.6,1.66,3.1.89,17,1.67,34.85.26,51.91.27l26.94,0c7.66,0,16.59,1.32,24.15-.6.85,1.43,3.45-1.2,3.69-2.15,1.89-7.61.79-16.33.88-24.15C242.37,136.88,244.12,126.62,241.44,118.76Z" fill="#c4c4c4"/><path d="M222.64,148.4h-.08a62.37,62.37,0,0,1-.5-9.12,15.34,15.34,0,0,0,.37-4.33c0-.38,0-.85,0-1.35a2.43,2.43,0,0,0,.57-1.16,10.86,10.86,0,0,0,.18-1.79c0-.36,0-.74,0-1.1,0,0,0,0,0-.06-.25-1.41-1.48-1.05-2.41-.39a1.28,1.28,0,0,0-.34,0c-3.2-2.09-9.13-.8-12.7-.79-4,0-8.13-.36-12,.43a31.14,31.14,0,0,0-4-.48,1.2,1.2,0,0,0-.36-.05h-.24a3.2,3.2,0,0,0-1.88.88c-8.94-.75-18.1-1.58-26.39.56a1.72,1.72,0,0,0-.26.1,27.75,27.75,0,0,0-6.9-.54,6.77,6.77,0,0,0-2.23-.66,3,3,0,0,0-3.24,2.77l0,.55a1,1,0,0,0,.4.77c-.66,2.72-.31,5.43-.27,8.32s-.77,7,.92,9.49a1.08,1.08,0,0,0-.06.72c-4.75-.09-9.83-.53-14.41.61a3.44,3.44,0,0,0-.9-.35,2.77,2.77,0,0,0-2.82,1.71,1.27,1.27,0,0,0,.06,1.48,1,1,0,0,0,.16.68c-.52,4.85.93,9.8.23,14.69-.45,3.09,3.84.93,4.16-1a43.43,43.43,0,0,0,.16-12.23c3.14.33,6.55-.09,9.52-.08,5.56,0,11.38.61,16.69-1.21.84-.29,2.85-2.12,1.54-2.94h1.3l21.15,0,18.12,0c4.46,0,9.15.75,13.28-1a1,1,0,0,0,.24.42c.75.75,2.06-.1,2.62-.66S224,148.72,222.64,148.4Z" fill="#515151"/><path d="M297.24,204.91c.19-6.77,1.26-14-.51-20.6a.76.76,0,0,0-.88-.66c.21-9.59-5.6-20.33-15.85-20.05a2,2,0,0,0-.92.4c-3.48-1.18-7.64-.57-11.25-.49-3.24.08-6.45-.17-9.53.64l.06-.71a1.14,1.14,0,0,0-.38-1v0l-.06-.05a1.51,1.51,0,0,0-.17-.1,1.81,1.81,0,0,0-1.42-.15l-.27.09-.07,0a1.63,1.63,0,0,0-.31.11l0,0-.19.11a3.59,3.59,0,0,0-.38.21l0,0-.08.06a4.91,4.91,0,0,0-.57.22,4.77,4.77,0,0,0-2.79,3.6h0a2.48,2.48,0,0,0,0,.27,1.25,1.25,0,0,0,.76,1.27,1.27,1.27,0,0,0,.12.1,1.34,1.34,0,0,0,.79.18c-.39,3.58-.51,7.13-.57,10.77-8.29-.15-16.7.31-24.89.31H156.54c-11.8,0-24.07-.93-35.79.42a2,2,0,0,0-.31.07c.33-2.09.41-4.28.61-6.28.29-2.83.93-8.72-1.57-10.88a1.72,1.72,0,0,0-2.19.15l-8.84,0a3.68,3.68,0,0,0-2.08,1.06c-2.75-.07-5.49-.11-8.24,0l-.75,0c-1.58-.28-3.16-.58-4.77-.92-4-.87-7.69-.86-11.23.81-6-.8-12.07-3-17.89-.52l-.21.13c-4.37-1-8.82-1.3-12.68-.07-1.3.41-4.54,4.61-1.63,4.44A40.32,40.32,0,0,1,77.77,178c9,8.18,11.73,19.43,12.27,31.05.4,8.53.44,16.94,5.58,24.15,4.75,6.69,18.87,8,26.21,7.51h0c8.59,2.09,19.25.54,27.85.54H186c20.29,0,41,1,61.32-.34a1.15,1.15,0,0,0,.79.15c7.67.4,15.38.21,23.06.22,7,0,14.25.69,21.1-1a2.09,2.09,0,0,0,.6-.32,1.39,1.39,0,0,0,1,.45c5.16.79,3.73-10.13,3.58-12.22C296.89,220.45,297,212.68,297.24,204.91Z" fill="#c4c4c4"/><path d="M288.86,137.77A71.31,71.31,0,0,0,279.11,106c-2.81-4.83-7.45-8.59-11.15-12.71-4.22-4.69-6.83-9.76-12.29-13.26a1.86,1.86,0,0,0-1.92.23c.4-.67.46-1.35-.36-1.73-6.75-3.17-16.54-1.37-23.87-1.38-10.05,0-20.1,0-30.15,0-18.9,0-38.65-1.6-57.44.36a3.41,3.41,0,0,0-1.49.64,1.15,1.15,0,0,0-.87-.2c-8.17.66-16.25,9.77-21.82,15.15-8.69,8.4-17.71,18.41-23.67,29-5,8.88-10.62,19.57-3.63,28.55a36.66,36.66,0,0,0,11.71,9.77c4.54,2.36,9.34,1,14.08,1.43a1.18,1.18,0,0,0,1,.11h.07c2.37.36,5.75-4.57,3-5.41.94-6.69.22-14.1.33-20.78.09-6-.43-11.71-.88-17.51a3.6,3.6,0,0,0,.92-1.74,1.7,1.7,0,0,0,0-.44,52.83,52.83,0,0,0,0-5.34c0-.4,0-.83-.1-1.27q34.72.07,69.43.07l35.67,0c8,0,18.64,1.9,26.57-.61v.69a.88.88,0,0,0,0,.16c0,8.41.13,16.83.21,25.24,0,4.9.13,9.8.16,14.7,0,3.61-.72,6.91.25,10.21-.45.92-.4,1.77.77,1.8a.89.89,0,0,0,1.2,0c8.83.27,17.57,1.32,25.31-4.13C287.15,152.76,289.24,146.09,288.86,137.77Z" fill="#515151"/><path d="M251.39,173.46v0c3-8.65,1.19-19.88,1.17-29s1.46-19.83-.54-28.92a5.88,5.88,0,0,0,.83-1.59,1.21,1.21,0,0,0,0-.18,1.56,1.56,0,0,0-.83-2c.29-1,0-1.9-1.31-1.87-20.7.4-41.44.07-62.15,0s-41.93-1.25-62.6.56c-.38-.54-1.14-.37-1.92.1a6.86,6.86,0,0,0-1.68.22,3.56,3.56,0,0,0-2.21,1.88c-.36.75-.36,2,.78,2h.63c-.05.44-.13.88-.17,1.32a2.54,2.54,0,0,0-.3,1.12c0,3.55,0,7.09,0,10.63a2.87,2.87,0,0,0,0,.44l0,20.8c0,4.83,0,9.66,0,14.49,0,4.49-1,9.38.57,13.59a2.11,2.11,0,0,0-.11,2.49c0,.7.41,1.21,1.37,1.23,21.75.58,43.56.15,65.32.12,10.94,0,21.87-.2,32.8-.23,4.81,0,9.57-.13,14.37-.43s8.55,1.62,13.22.3a2.5,2.5,0,0,0,.57-.26c.42,1,2.16-.49,2.38-1-.26.27-.17.17.26-.32a2.81,2.81,0,0,0,.45-.94,9,9,0,0,0,.14-1.27,19.57,19.57,0,0,0,.08-2.42A1,1,0,0,0,251.39,173.46ZM221,171.7l-30,0c-19,0-38-.09-57,.1a2.58,2.58,0,0,0-1.53.5c.07-16.46.1-33-.22-49.45q0-1.39-.06-2.79c0-.21,0-.41,0-.62a4.64,4.64,0,0,0,1-1.29c18.18,1.17,36.79.07,55,.05h27.17c8.18,0,16.48.73,24.61-.15,0,0,0,0,0,0a4.36,4.36,0,0,0,2,1.12.53.53,0,0,0,.12,0c-1.55,8.22-.65,17.13-.65,25.41s-1.67,18.75.47,27C235,171.23,227.83,171.7,221,171.7Z" fill="#9b805a"/><path d="M384.1,187.69a7.92,7.92,0,0,0,.58-1.12c.52-1.24-.17-2-1.34-1.64-.18-.58-.79-.66-1.52-.43-4.9-1.33-10.61-.49-15.62-.49L343,184c-13.44,0-28.1-1.63-41.36.64,0-.25,0-.49,0-.73-.19-3-4.43.32-4.54,2.19-.6,9.78-.19,19.69-.19,29.49,0,4.89,0,9.79,0,14.69,0,1.86-.88,7.18.64,9.11h0a2.26,2.26,0,0,0,.25.28.88.88,0,0,0,.29.18,1.39,1.39,0,0,0,.61.68c3.29,2,10.33.68,14,.73,7.67.09,15.34.06,23,.09C349.89,241.44,385,210.64,384.1,187.69Z" fill="#9b805a"/><path d="M354.56,153.86c-5.26-4.74.32-9.33,2-14.09,1.75-4.94,1.22-8.85-.89-13.62-3.57-8-11.4-13-20-11.08-4.49,1-9.19,7.13-14.14,3.33-3.3-2.55-3.53-8.37-4.63-12.05-4.67-15.62-22.82.35-22,11.07a1.21,1.21,0,0,0,.18.59,1.82,1.82,0,0,0,0,1.06c1.5,4.08,4.33,6.88,7.59,9.68,4.63,4,8.72,8.56,13.37,12.45a75.63,75.63,0,0,1,11.38,11.86c2,2.5,8,6.28,10.55,9.93-.37,0-.74,0-1.08,0a32.87,32.87,0,0,0-6.72.35c-1.18.22-3.39,2.41-2.19,3.65.08.09.18.15.26.23.05,1.79.09,3.57.2,5.36a33.49,33.49,0,0,0,.92,4.82,1.89,1.89,0,0,0-.32,1,29,29,0,0,0,.16,3.61c.08.69.37,1,.76,1.06.62.53,1.73,0,2.57-.8,2.61,1.66,7,1,10.53-.11,5.19-1.62,15.28-.76,18.06-6.79C365,167,360.85,159.53,354.56,153.86Z" fill="#5ba354"/><path d="M70.69,124.13a5.69,5.69,0,0,0-3.87.83c-1,.52-4.26-.89-5.52-1-2.77-.25-5.86,4-7.34,5.59-3.38,3.72-8.07,4.95-12.84,4.91a5.56,5.56,0,0,0-3,.94,8.2,8.2,0,0,0-3.65,6.76c-.15,6.44-.46,12.15-2.53,18.35-1.39,4.14-2.56,7.46.09,11.28.94,1.34,3.88,1.5,5.12,2.49,1.67,1.34,2.67,4,3.74,5.82s2.21,4.19,4.51,4.15c1.29,0,3.6-2.2,2.52-3.4v0c1.94-5.37.37-11.78,1.11-17.39.21-1.67-.85-1.87-2-1.4-.55,0-1.11.1-1.63.12-1.48.05-3,.05-4.44.15a14.77,14.77,0,0,0-4,.77c0-.52,0-1,0-1.57a1.24,1.24,0,0,0,.21-.19c.91-1,1.86-2,2.81-2.92s2-1.74,2.89-2.67c3.8-2,7.94-5.56,9.56-9.55,0-.08,0-.14.07-.21,1.68-1.23,3.33-2.46,4.89-3.77,4.44-3.72,10.54-9.27,13.43-14.71C72,126.15,72.45,124.19,70.69,124.13Z" fill="#5ba354"/><path d="M91.15,206.65c.77-2.54.45-5.75.37-8.17A11.35,11.35,0,0,0,91,195a3.06,3.06,0,0,0,.3-.49c.35-.72.42-1.61-.38-2a1.83,1.83,0,0,0-.76-.17,1.28,1.28,0,0,0-1.31-1.4,86.47,86.47,0,0,0-17.32.51c-5.86.61-11.75,0-17.61.7a3.8,3.8,0,0,0-1.62.81c0-.11-.07-.22-.11-.32-1-2.65-4.71,1.27-4.79,2.85a2.29,2.29,0,0,0,.06.9,1.48,1.48,0,0,0,.6,1.08,22.65,22.65,0,0,1,.67,2.31,3.18,3.18,0,0,0-.53,3.38,1.08,1.08,0,0,0,.46.5c0,.3,0,.6,0,.89a30.32,30.32,0,0,0-.26,7.73,2.57,2.57,0,0,0,.11.36c-.23.73-.15,1.51.84,1.59a79.92,79.92,0,0,0,11.78-.34c4,1,8,.74,12.13.59,4.93-.19,9.77.65,14.66-.18a3.76,3.76,0,0,0,.28.32c1.3,1.27,3.84-1.3,3.7-2.67Q91.6,209.29,91.15,206.65Z" fill="#515151"/><path d="M201,238.29a3.51,3.51,0,0,0-.49-.7,1.11,1.11,0,0,0-1.06-.19l-.05,0c1.81-5.88,1.07-12.23,1.1-18.34,0-7.8.19-15.64-.21-23.43,0-.78-.27-1.13-.76-1.2a2.9,2.9,0,0,0-2.21.68c-6.2-3.15-16.38-1.14-23.22-1.11-9,0-18.17-.31-27.19.23a2.8,2.8,0,0,0-1.29.5,1.12,1.12,0,0,0-.77-.58,2,2,0,0,0-.82,0c-.43-1.73-3.29.4-3.73,1.34a4.1,4.1,0,0,0-.49,3.19.67.67,0,0,0,.25.38c0,1.37.05,2.74.11,4.1.09,1.69-.43,4.54,1,5.68-.16,3.6-.17,7.21-.17,10.84,0,6.58-.89,13.41-.3,19.89,0,0,0,.08,0,.12a1.09,1.09,0,0,0,.28.73c.61.77,2,.33,3.1-.59,7.22,1.25,15.18.4,22.43.43,7.6,0,16.31,1.19,24.1.14a1.31,1.31,0,0,0,.06.27c0,.11.09.21.13.32a1,1,0,0,0,1,.64,11.16,11.16,0,0,0,1.54-.13,18.7,18.7,0,0,1,2.27-.63,21,21,0,0,1,2.1,0l0,0,.09.11s0,0,0,0,.17.14.27.2C199.29,241.78,201.63,239.43,201,238.29Z" fill="#515151"/><path d="M234.8,215.43c0-6.11.93-13-.62-19a1.07,1.07,0,0,0-.13-1.17,2.93,2.93,0,0,0-1.13-.79c-.16-.39-.52-.44-.94-.3a25.23,25.23,0,0,0-4.88-.11c-3.12,0-6.29-.43-9.21.82,0,0,0,0-.07,0a2.6,2.6,0,0,0-1.45-.44c-1.43-.08-2.73,1.55-2.84,2.85a10.73,10.73,0,0,0,1.17,5.09,3,3,0,0,0-.42,1.07c-.62,6.13.5,12.7.77,18.87.13,3-.07,6-.1,9a3,3,0,0,0-.55,1.45,20.37,20.37,0,0,0,0,2.07.93.93,0,0,0,.4.79,2,2,0,0,0-.19.62,10.92,10.92,0,0,0-.05,2.49,1.11,1.11,0,0,0,.34.81c.31.77,1.07.78,1.82.48,4.67.78,10,2.69,14.27.2a.76.76,0,0,0,.34.25s0,0,0,.06c.39.63,1,.57,1.6.31h0a2.91,2.91,0,0,0,1.72-2.36v-.06a.69.69,0,0,0-.08-.41,4.26,4.26,0,0,0,.15-.76.89.89,0,0,0-.08-.55,18.91,18.91,0,0,0-.26-5.63C235.13,225.94,234.81,220.67,234.8,215.43Z" fill="#515151"/><path d="M387.75,242.09c-11.35-2.89-24.54-1.14-36.18-1.16l-45.07-.08-90.14-.12q-22.76,0-45.5,0a5.47,5.47,0,0,0,3.36-1.27c0,.12,0,.24,0,.36.2,1.75,1.51-.71,1.59-1.57.65-6.87.26-14.24.37-21.23.1-6.52.52-13.87-.18-20.33a1.57,1.57,0,0,0,0-1.59c-1.9-2-4.26-1.35-6.34-1.35-2.54,0-5.31-.74-7.74.9a2,2,0,0,0-.17-.85c-.35-.72-.95-.16-1.28.31l0,.07a1,1,0,0,0-.28.22l-.1.11a4.87,4.87,0,0,0-.74,1.21,4.18,4.18,0,0,0-.38,1.18.45.45,0,0,1,0,.11,5.5,5.5,0,0,0-.08,1.08c-.5,6.45-.32,13.08-.34,19.6,0,6.94-.64,16.06.63,22.54a.83.83,0,0,0,.22.5q-60.23,0-120.46.13c-2.11,0-4.89,3.5-4.53,5.25.12.58.58,1,1.54,1l18.2,0a3.24,3.24,0,0,0-.67,2.32c.09.53.5.88,1.35.85,3.51.08,7,.13,10.52.2a1.76,1.76,0,0,0,0,.81c.1.48.48.8,1.27.8,4.32,0,8.64.06,13,.09-1.29,1.16-2.3,2.92-2.06,4,.11.58.56,1,1.51.95,38.89.37,77.78.31,116.68.33l59.91,0c19,0,39.17,1.9,58-1.06.85-.13,2.63-1.94,3-3.28,6-.29,11.91-.79,17.79-1.62a3,3,0,0,0,1.57-1c8.85-.23,17.68-.65,26.5-1.44a3.56,3.56,0,0,0,2.1-1.69,100.91,100.91,0,0,0,21.45-1.54C386.93,245.64,389.77,242.6,387.75,242.09ZM160.19,240c2.27,1.11,4.73.67,7,.67.78,0,1.55.07,2.32.1h-9.92A2.09,2.09,0,0,0,160.19,240Z" fill="#c4c4c4"/><path d="M79,201.57c0-2.8.55-6.4-1-8.89a1.16,1.16,0,0,0-.3-.32,1.7,1.7,0,0,0,0-.39c-.32-1.41-1.69-1.41-2.89-1.4A15.67,15.67,0,0,0,70,191a4.34,4.34,0,0,0-1.22.76.9.9,0,0,0-.59-.5l-.65-.17a2.31,2.31,0,0,0-2.21,1.08c-2.45,3-1.57,7.63-1.56,11.25,0,2.89-1,8.36.59,11,0,.39.25.68.82.74l.17,0c3.49.14,7.14.89,10.5-.45,1.14-.46,3.46-3.79,1.85-4.45C79.05,207.42,79,204.69,79,201.57Z" fill="#c4c4c4"/><path d="M227.55,194.42c-.66-1.86-3.23.76-3.47,1.67-2,7.45-1.1,15.74-.89,23.37.18,6.64-.16,14.34,1.54,20.73.31,1.18,2.07-.48,2.19-1.06,1.51-7.1,1.24-14.91,1.53-22.2C228.73,209.89,230,201.15,227.55,194.42Z" fill="#c4c4c4"/><path d="M210.62,139.52a52.11,52.11,0,0,0-.82-9.42.69.69,0,0,0-.6-.64.61.61,0,0,0,0-.11l-.07-.18a1.34,1.34,0,0,0-1.27-.82,11.53,11.53,0,0,0-6.23.85c0-.23,0-.47-.08-.7-.37-2.43-3.75,0-3.94,1.44a86.32,86.32,0,0,0-.6,10.91c0,2.35-.71,6.07.31,8.49a1.83,1.83,0,0,0-.21.93c0,.11,0,.21,0,.31a1.3,1.3,0,0,0,1.3,1.3c2.86.36,6.08.6,8.63-.87,1.21,0,2.78-1.83,3.09-2.72C211.1,145.48,210.69,142.46,210.62,139.52Z" fill="#c4c4c4"/><path d="M181.82,171.57c-7.2-.16-13.83-13.41-14-18.93-.07-2.51-3.36.3-3.72,1.37a.85.85,0,0,0,0,.17c-.16-.08-.3-.17-.47-.25-2.69-1.2-6.49-.36-9.27-.07-4.27.45-8.52.48-12.74,1.23-1.66-.71-5.48,2.37-5.54,4.53-.07,2.32-.28,4.62-.42,6.94a1.37,1.37,0,0,0,.89,1.39h-.38c-1.36-.09-4.25,3.08-2.25,3.77,5.12,1.8,10.37,1.19,15.67.53a64.67,64.67,0,0,1,9.43-.73c1.35,0,9.22,0,9.62.84.64,1.3,2.42.4,3.32-.83a10.17,10.17,0,0,0,2.62.55C176.26,172.2,184.05,171.62,181.82,171.57Z" fill="#515151"/><path d="M241.83,162a1.85,1.85,0,0,0-.23-.72,2.19,2.19,0,0,0-.18-2.2,30.11,30.11,0,0,0-.74-6.69c-.23-1-1.19-.86-2.15-.32a1.79,1.79,0,0,0-.64.08c-.2.06-.4.14-.59.21-.09-.42-.42-.7-1.16-.69-3,0-5.73.75-8.76.29a2.68,2.68,0,0,0-2.17,1.2,2.53,2.53,0,0,0-1.24.87c-3.69,4.83-5.41,11.29-9.72,15.54-.82.82-1.62,2.7.07,3a11.71,11.71,0,0,0,6.8-.75h0a135,135,0,0,0,16.69,1,4.57,4.57,0,0,0,4.07-4.07A55.29,55.29,0,0,0,241.83,162Z" fill="#515151"/><path d="M241.33,125.17c-.08-1.91,0-4.87-1.59-6.15a1.32,1.32,0,0,0-1.71.19,2.56,2.56,0,0,0-2.1.31c-4.48-2.66-11.59-1.28-16.57-1.28-9.29,0-18.58,0-27.86,0-17.2.06-34.74-.88-51.89.43a2,2,0,0,0-.55.13c-.17-1.12-1.18-1.38-2.16-1.18a.5.5,0,0,0-.07-.08.82.82,0,0,0-.21-.63.93.93,0,0,0-1-.31,2.41,2.41,0,0,0-.82.2,3.77,3.77,0,0,0-1.64,1.62l0,.1c0,.06-.07.12-.1.19a1.91,1.91,0,0,0-.18.71c-1,1.78-.89,4-.88,6.13,0,1.82-.63,5.8,1.45,6.72-2,1.64-3.56,4.72-.74,4.86,18,.94,36.17.25,54.19.25H214c7.14,0,15.24.93,22.2-1.07,1.54,1.4,4.37-1.78,4.83-3.14C241.91,130.63,241.43,127.81,241.33,125.17Z" fill="#c4c4c4" style="mix-blend-mode:multiply"/><path d="M240.59,166.18c-.13-.64-1.06-.46-1.45-.28a3,3,0,0,0-1.11,1c-6.2-1.51-13.64-.61-19.85-.75q-13.43-.3-26.84-.49c-9-.15-18.07,0-27.1,0-9.21,0-18.94-.95-28,.74l-.28.09c-.2-1-1.2-1.14-2.08-.71a3.62,3.62,0,0,0-2.07,2.84c-.15,1.34-.51,3.25.37,4.39.4.5,1.29.25,1.74,0a3.91,3.91,0,0,0,1.48-1.29c7.33,1.3,15.29.46,22.68.46h27.11c9.09,0,18.19-.22,27.29-.43,7-.16,14.75.48,21.88-.55a1.72,1.72,0,0,0,0,.78c.18,1.4,1.71.49,2.13.45a1.18,1.18,0,0,1,1,.4c.6.59,1.61.14,2.17-.26a3.06,3.06,0,0,0,1.41-2.32A28.07,28.07,0,0,0,240.59,166.18Z" fill="#c4c4c4" style="mix-blend-mode:multiply"/><path d="M253,180c-.86-.36-1.91.54-2.36,1.16a3.73,3.73,0,0,0-.31.54c-6.72-3.14-17.5-1-24.56-1H193c-23,0-49.33-1.72-72.23.18-.57,1.14-1.9,4-.8,6.58,21.86.25,88.67,0,99.64,0,9.53,0,30.11.17,31,.18a3.41,3.41,0,0,0,2.81-2,7.52,7.52,0,0,0,.58-3C254,181.68,254.05,180.45,253,180Z" fill="#c4c4c4" style="mix-blend-mode:multiply"/><path d="M121.33,164.27a.83.83,0,0,0-.56-.56s0-.07,0-.1c-.1-1-1-1.07-1.78-.7a3.21,3.21,0,0,0-.93.7c-4.08-2.15-10-1.16-14.4-1.25-7.8-.16-15.6-.15-23.41-.12-9.74,0-20.16-1-29.8.7a4.55,4.55,0,0,0-2.69,2.38c-.8,1.2-1,2.46.23,2.71,9.28,2,19.72.68,29.13.72,7.84,0,15.68,0,23.52-.11,2.88-.06,5.78.05,8.63-.09a12.44,12.44,0,0,0,3.8.49,10.55,10.55,0,0,0,4.54-.39,1.08,1.08,0,0,0,.52.07c1.31.3,2.83-1.35,3.11-2.48A3.24,3.24,0,0,0,121.33,164.27Z" fill="#c4c4c4" style="mix-blend-mode:multiply"/><path d="M327.31,163.71c-4-2.26-9.5-1.34-13.93-1.37l-18-.12c-12-.08-24.13-.33-36.16.27a3,3,0,0,0-1.8.61l-.85.06a2,2,0,0,0-1.72.37,3.16,3.16,0,0,0-1.33,1.12c-1.14,1.29-1.66,2.92.3,3.14h.25l.88.07c.18.41.6.67,1.37.63,11.95.62,23.95.3,35.91.26,10.56,0,23.84,2,33.85-1.65C327.13,166.72,328.78,164.55,327.31,163.71Z" fill="#c4c4c4" style="mix-blend-mode:multiply"/><path d="M39.86,241.59c28.9.33,57.82.08,86.72.08h173q30.78,0,61.56,0c14.22,0,28.44.1,42.66-.07l2.22,0c.14,0,.34-.31.15-.31-13.11,0-26.23-.12-39.35-.11q-28.21,0-56.44,0H137.39q-43.21,0-86.43,0c-3.65,0-7.3,0-11,.06-.14,0-.35.31-.15.31Z"/><path d="M328.88,241.87c.14-3,.09-6.1.09-9.15v-55.1c0-5.76.11-11.54,0-17.3,0-.76,0-1.53-.07-2.29,0-.17-.27,0-.28.14-.2,5.88-.09,11.77-.09,17.65v46.59c0,5.77,0,11.53,0,17.3,0,.76,0,1.53.06,2.29,0,.17.26,0,.26-.13Z"/><path d="M153.32,181.08c-1.91-.1-3.81-.07-5.72-.07H124c-.21,0-.51.46-.22.46h11.12c.22,0,.52-.48.23-.48q-4.57,0-9.16.12c-.1,0-.27.24-.12.24q4.53.1,9,.12c.22,0,.52-.48.23-.48H124c-.21,0-.51.46-.22.46h23c2.12,0,4.25,0,6.38-.07.13,0,.37-.31.16-.32Z"/><path d="M121.25,110.39c0,4.38-.06,8.76-.06,13.14s0,8.91,0,13.36v26.58c0,4.26,0,8.52,0,12.77,0,.51,0,1,0,1.53,0,.18.28,0,.28-.14.08-2.1,0-4.21,0-6.31V138.37q0-6.69,0-13.37c0-4.38,0-8.75,0-13.13l0-1.59c0-.15-.24,0-.24.11Z"/><path d="M122.81,110.08c16.92.11,33.83.07,50.75.07h50.68c9.52,0,19,.06,28.57-.08.13,0,.32-.29.14-.29-16.91-.26-33.83-.09-50.74-.09H151.53c-9.52,0-19,0-28.57.08-.14,0-.33.3-.15.31Z"/><path d="M252.74,110c0,8,0,15.93,0,23.9s-.05,15.9-.05,23.85v10c0,1.11,0,2.23.08,3.33,0,.18.26,0,.27-.13.17-2,.08-4,.08-6v-17.9c0-7.94-.06-15.87-.06-23.8V109.85c0-.17-.28,0-.28.14Z"/><path d="M241.88,120.48c-.14,6.58-.07,13.17-.07,19.75v19.71c0,3.69,0,7.38.06,11.07,0,.18.28,0,.29-.13.09-3.3.06-6.59.06-9.89V131.43c0-3.69,0-7.38-.08-11.07,0-.15-.25,0-.25.12Z"/><path d="M133,120.19c0,6.71-.06,13.42-.06,20.13v20.05c0,3.75,0,7.49.12,11.24,0,.12.19,0,.18-.09v-.61c0-.1-.16,0-.16.07v.63c0,.11.18,0,.18-.09.07-3.39.12-6.78.12-10.17v-30c0-3.76,0-7.52-.06-11.28,0-.19-.32,0-.32.16Z"/><path d="M132.65,118.75c7.09.11,14.17,0,21.26,0h64.2c6.94,0,13.89.11,20.82,0l2.64-.06c.1,0,.27-.24.12-.24-6.9-.15-13.79-.1-20.68-.1H156.86c-7.11,0-14.21,0-21.31,0-.9,0-1.8,0-2.7,0-.18,0-.45.4-.2.4Z"/><path d="M121.28,77.48c8.6.17,17.21,0,25.8,0H224.3c9.67,0,19.35.1,29-.09.12,0,.29-.26.13-.26-8.59-.18-17.19-.09-25.78-.09h-77.2c-9.67,0-19.35-.14-29,0-.16,0-.41.37-.18.37Z"/><path d="M253.28,77.41q7.77,8,15.67,15.82l15.8,15.82L300.5,124.8l15.8,15.81c5.26,5.24,10.47,10.53,15.8,15.7l2,1.91c.1.1.34-.14.24-.24-5.17-5.33-10.43-10.57-15.68-15.82s-10.53-10.54-15.8-15.81L287.08,110.6,271.26,94.8C266,89.56,260.8,84.26,255.47,79.09c-.66-.63-1.32-1.26-2-1.9-.09-.09-.31.13-.22.22Z"/><path d="M121.31,78c-5.59,5.4-11,11-16.51,16.48L88.25,111l-16.5,16.51L55.2,144.06Q47,152.31,38.71,160.58l-2,2c-.12.12,0,.25.12.12q8.28-8.22,16.52-16.47L69.89,129.7l16.5-16.51L103,96.64c5.5-5.49,11-11,16.5-16.5.66-.67,1.33-1.34,2-2,.13-.13,0-.26-.12-.13Z"/><path d="M47.61,156.28q0,9,0,17.92V222c0,5.88,0,11.75,0,17.63,0,.79,0,1.57,0,2.36,0,.17.28,0,.29-.14.09-3.1,0-6.2,0-9.3V176.12q0-8.82,0-17.62v-2.38c0-.2-.33,0-.33.16Z"/><path d="M156.58,182.15c6.86.09,13.73,0,20.6,0h61.68q11.56,0,23.12.05c.25,0,.6-.54.26-.55-2.32,0-4.65,0-7,.08-.18,0-.43.4-.19.39h.5c.15,0,.4-.36.17-.36l-.48,0c-.18,0-.43.39-.19.39,2.3.07,4.6.09,6.9.08.25,0,.6-.55.26-.55q-20.61.08-41.22.07H179.89c-7.72,0-15.45-.05-23.17,0-.13,0-.33.3-.14.3Z"/><path d="M133.93,172.58c3.51.11,7,0,10.55,0H218.4c7.93,0,15.86.13,23.79-.09.13,0,.33-.3.14-.3-7-.2-14.07-.1-21.11-.1H146c-4,0-7.94-.07-11.9.06-.16,0-.42.37-.18.38Z"/><path d="M252.52,171.18c-.17,2.79-.1,5.6-.1,8.39,0,.26.42,0,.42-.2,0-.51,0-1,0-1.52,0-.25-.41,0-.41.2v1.52c0,.26.42,0,.42-.2,0-2.76.07-5.54-.1-8.3,0-.14-.21,0-.22.11Z"/><path d="M38.07,163.22c2.7.08,5.4,0,8.09,0h57c5.32,0,10.65.13,16-.05l2-.06c.11,0,.28-.25.12-.25-5.28-.16-10.56-.13-15.84-.12H56.54c-5.42,0-10.84,0-16.27,0q-1,0-2,0c-.17,0-.43.38-.19.38Z"/><path d="M334.69,158.1c1.43,1.51,2.89,3,4.36,4.44s2.87,2.94,4.35,4.35l2.44,2.32c.09.09.31-.13.22-.22-2.79-3-5.68-5.8-8.56-8.67-.84-.84-1.69-1.66-2.55-2.47-.11-.11-.36.15-.26.25Z"/><path d="M252.81,163.42c1.76.12,3.52.07,5.28.07h82.18c.22,0,.52-.47.23-.47H258.13c-1.73,0-3.46,0-5.18.07-.12,0-.32.27-.14.28Z"/><path d="M297.56,187.23a18,18,0,0,0,.08-1.94c0-.3-.5,0-.5.24-.09,7.24,0,14.48,0,21.72s0,14.33,0,21.5c0,4.05,0,8.11,0,12.16,0,.3.48,0,.48-.23l0-2.64c0-.25-.42,0-.41.2l0,1.13c0,.23.36,0,.37-.18l0-1.15c0-.25-.41,0-.41.2,0,.89,0,1.78,0,2.67,0,.29.48,0,.48-.23.07-7.23,0-14.48,0-21.71s0-14.34,0-21.51c0-4.06,0-8.11,0-12.17,0-.3-.5,0-.5.24,0,.63,0,1.24.08,1.86,0,.23.33,0,.34-.16Z"/><path d="M298.05,184.48c2.84.13,5.7.06,8.55.06h59.23c6.36,0,12.72,0,19.08,0,.21,0,.52-.49.23-.49-.64,0-1.28,0-1.92,0-.18,0-.44.41-.19.41.62,0,1.25,0,1.88,0,.21,0,.52-.48.23-.49-11.29-.1-22.57,0-33.86,0h-43.4c-3.2,0-6.43-.09-9.63.06-.17,0-.47.4-.2.41Z"/><path d="M385.22,185.88q0,10.78,0,21.57v27.19c0,1,0,2,0,2.94a26,26,0,0,0,0,2.65c0,.23.38,0,.36-.17s-.05-.31-.05-.46-.26,0-.26.12a4.2,4.2,0,0,1,0,.51c0,.22.35,0,.36-.17.07-.77,0-1.56,0-2.33s0-1.75,0-2.63V219.15q0-10.68,0-21.36l0-12.08c0-.22-.36,0-.36.17Z"/><path d="M131.38,152.14c14.53.12,29.08,0,43.62,0h43.63l24.26,0c.24,0,.6-.55.26-.55-7.5,0-15,0-22.49,0-.28,0-.68.63-.3.63h6.07c.28,0,.67-.61.3-.61-1.6,0-3.21,0-4.81,0-.28,0-.67.62-.29.61h.76c.25,0,.65-.58.28-.58l-.75,0c-.28,0-.67.6-.29.61,1.6,0,3.2,0,4.8,0,.28,0,.67-.61.3-.61h-6.07c-.28,0-.68.63-.3.63,7.51,0,15,0,22.53,0,.24,0,.59-.55.26-.55q-21.72.06-43.43,0H156.09c-8.17,0-16.33-.07-24.49,0-.21,0-.51.46-.22.47Z"/><path d="M140.64,193.73c-.1,6.09,0,12.19,0,18.28v18.21c0,3.44,0,6.87,0,10.31,0,.28.45,0,.45-.22s0-.66,0-1-.38,0-.39.18c0,.35,0,.69,0,1s.45,0,.45-.22q0-9.13,0-18.26t0-18.21c0-3.43,0-6.87-.06-10.3,0-.25-.39,0-.4.19Z"/><path d="M140,193.86c2,.11,3.94,0,5.91,0h51.68c1.12,0,2.25-.06,3.37-.09.17,0,.43-.38.19-.39-1,0-1.95-.08-2.92-.09H146.88c-2.22,0-4.47-.08-6.69,0-.18,0-.5.43-.21.45Z"/><path d="M200.41,194.7c-.12,1.56-.11,3.12-.12,4.68s0,3.08,0,4.62c0,3.05,0,6.11,0,9.16q0,9.15,0,18.3v7.64a13.3,13.3,0,0,0,.11,2.44c0,.15.27-.07.28-.14a14.71,14.71,0,0,0,.11-2.3v-6.78c0-3,0-6.07,0-9.1q0-9.16,0-18.34c0-1.71,0-3.41,0-5.11s0-3.46-.12-5.18c0-.16-.23,0-.24.11Z"/><path d="M235,191.7q-.06,9.51-.06,19v19.07c0,3.58,0,7.15,0,10.73,0,.3.49,0,.49-.24q0-8.94,0-17.9l0-17.91v-4.9a45,45,0,0,0-.1-4.79c0-.27-.39,0-.41.2-.14,1.44-.1,2.88-.1,4.32v13.25l0,18c0,3.33,0,6.65,0,10,0,.3.49,0,.49-.24q0-9.5,0-19t0-19.06q0-5.35-.05-10.7c0-.22-.35,0-.35.17Z"/><path d="M214,194.24c-.13,3.08-.08,6.16-.08,9.24v27.26c0,3.42-.06,6.85.11,10.27,0,.21.33,0,.33-.16.15-3.09.11-6.18.11-9.26V204.33c0-3.43.08-6.86-.08-10.29,0-.26-.4,0-.41.2Z"/><path d="M213.87,194.28a34.33,34.33,0,0,0,3.93.14h12c.73,0,1.46,0,2.19,0h1.13c.41,0,.81-.07,1.23-.1.15,0,.43-.35.18-.38-.65-.06-1.29-.1-1.95-.1h-14c-1.52,0-3,0-4.56.14-.11,0-.32.26-.13.28Z"/><path d="M48.68,192.58c2.8.07,5.6,0,8.39,0H82.19c3.15,0,6.3,0,9.46,0,.25,0,.6-.56.26-.56q-8.55,0-17.12,0H57.57c-3.07,0-6.13,0-9.2.12-.16,0-.42.37-.18.38,5.51.22,11,.12,16.54.12H82.11l9.54,0c.25,0,.6-.56.26-.56q-8.39,0-16.79,0H58.38c-3.16,0-6.33,0-9.49,0-.19,0-.48.43-.21.43Z"/><path d="M92.13,193.2c-.11,1.41-.08,2.83-.1,4.24s0,2.82,0,4.23c0,2.79,0,5.57,0,8.35v4.74c0,.32.54,0,.53-.26a17.89,17.89,0,0,0-.1-2.74c0-.2-.31,0-.33.12a23,23,0,0,0-.1,2.88c0,.32.53,0,.53-.26,0-5.59,0-11.17,0-16.76,0-1.55,0-3.13-.1-4.69,0-.2-.3,0-.31.15Z"/><path d="M47.44,215.3c5.94.17,11.87.13,17.81.14h27.9c.28,0,.67-.62.3-.62H46.4c-.27,0-.65.6-.29.6,1.69,0,3.38,0,5.07,0,.24,0,.62-.55.27-.56-1.68,0-3.37,0-5.05,0-.27,0-.65.6-.29.6h47c.28,0,.67-.62.3-.62H57.7c-3.37,0-6.73,0-10.1.13-.14,0-.37.33-.16.34Z"/><path d="M302.91,184.17c-.12,3.68-.08,7.37-.08,11.05v11q0,11,0,22.09c0,4.1-.07,8.22.12,12.32,0,.16.24,0,.25-.12.16-3.69.11-7.38.11-11.07s0-7.36,0-11v-22.1c0-4.11.05-8.23-.09-12.34,0-.21-.33,0-.34.17Z"/><path d="M308.38,184.75q0,11.3-.07,22.59t0,22.48l0,6.31c0,2.09,0,4.18.08,6.27,0,.22.36,0,.35-.17s0-.49,0-.74-.27,0-.28.13l0,.78c0,.21.34,0,.35-.17.1-1.9.07-3.82.07-5.72l0-5.59c0-3.76,0-7.53,0-11.29q0-11.24,0-22.47,0-6.3,0-12.6c0-.25-.41,0-.41.19Z"/><path d="M314.83,184.75q0,11-.05,22.08t0,22.09c0,2.06,0,4.13,0,6.19s0,4.1.1,6.14c0,.18.28,0,.28-.14.1-1.87.09-3.74.1-5.61s0-3.64,0-5.45V219q0-11,0-22.09c0-4.12,0-8.24,0-12.35,0-.25-.41,0-.41.19Z"/><path d="M320.35,184c-.07,7.61-.06,15.21-.07,22.82s0,15.24,0,22.86c0,4.24,0,8.5.07,12.74,0,.23.37,0,.36-.17l0-.94c0-.19-.31,0-.31.15l0,1c0,.22.36,0,.36-.17.1-3.82.07-7.64.07-11.46V219.41q0-11.41,0-22.85,0-6.37-.06-12.75c0-.22-.36,0-.36.17Z"/><path d="M325.65,184.75c-.11,1.83-.08,3.69-.08,5.53v5.5c0,3.66,0,7.32,0,11q0,11,0,21.89c0,2,0,4,0,6.07s0,4.1.08,6.15c0,.18.28,0,.29-.14.09-1.82.06-3.66.07-5.48s0-3.65,0-5.47q0-5.47,0-10.94,0-11,0-22c0-2,0-4.07,0-6.11s.05-4.15-.09-6.21c0-.24-.37,0-.38.19Z"/><path d="M331.73,184.74c-.14,7.31-.08,14.62-.07,21.93s0,14.6,0,21.91c0,4-.1,7.95.12,11.91,0,.17.27,0,.27-.14.18-3.56.11-7.15.11-10.72s0-7.21,0-10.82q0-11,0-22c0-4.08,0-8.15-.07-12.23,0-.23-.37,0-.37.18Z"/><path d="M337.62,184.36q-.09,11.1-.08,22.19t0,22.1V238a28.62,28.62,0,0,0,.09,3.07c0,.2.29,0,.3-.14a53.41,53.41,0,0,0,.1-5.66v-5.48q0-5.53,0-11.06,0-11.06,0-22.11,0-6.21-.07-12.42c0-.22-.35,0-.35.17Z"/><path d="M343.85,185.13v16.6q0,8.28,0,16.58c0,3.11,0,6.22,0,9.33,0,.3.5,0,.5-.24v-2.08c0-.31-.5,0-.5.24v11.33a34.27,34.27,0,0,0,.11,3.79c0,.2.28,0,.29-.14.12-1.29.1-2.6.1-3.89s0-2.5,0-3.75v-7.58c0-.31-.5,0-.5.24v2.08c0,.3.5,0,.5-.24,0-5.52,0-11.05,0-16.58V184.94c0-.25-.41,0-.41.19Z"/><path d="M350.52,184.55q-.11,11.26-.09,22.53t0,22.36c0,4.2,0,8.4,0,12.6,0,.24.42,0,.41-.2l0-.55c0-.23-.34,0-.35.16l0,.59c0,.23.4,0,.41-.2.1-7.5,0-15,0-22.51s0-14.92,0-22.37c0-4.2,0-8.39-.09-12.58,0-.22-.35,0-.35.17Z"/><path d="M356.2,184.17c-.06,7.42-.07,14.83-.07,22.25s0,14.8,0,22.21c0,2.07,0,4.15,0,6.23s0,4.13.09,6.2c0,.18.28,0,.28-.14.19-3.71.1-7.44.1-11.15V218.66q0-11.11,0-22.22,0-6.23-.08-12.44c0-.22-.35,0-.36.17Z"/><path d="M362.43,184.75c-.05,7.41,0,14.82,0,22.23s0,14.81,0,22.21c0,4.14-.07,8.29.12,12.43,0,.15.24,0,.24-.12.16-3.72.12-7.44.12-11.16V219.23q0-11.11,0-22.22,0-6.22-.05-12.45c0-.26-.4,0-.41.19Z"/><path d="M368.17,184.35q-.09,11.31-.1,22.62t0,22.57v9.52c0,1,0,2,0,3,0,.27.45,0,.44-.21s0-.27,0-.4-.38,0-.38.18,0,.29,0,.43.42,0,.44-.21c.05-.88,0-1.78,0-2.67V219.36c0-7.51,0-15,0-22.53,0-4.21-.06-8.42-.09-12.63,0-.19-.32,0-.32.15Z"/><path d="M373.1,184.54c-.09,7.4-.1,14.8-.11,22.2s0,14.74,0,22.11v9.33a22.5,22.5,0,0,0,.1,3.07c0,.21.29,0,.3-.14a23.68,23.68,0,0,0,.1-2.92v-2.74c0-1.83,0-3.65,0-5.48q0-5.53,0-11.07c0-7.37,0-14.74,0-22.1q0-6.21-.1-12.41c0-.2-.32,0-.32.15Z"/><path d="M378.37,184.37c-.09,4-.06,8.1-.07,12.15s0,8,0,12q0,11.92,0,23.83c0,2.21,0,4.41,0,6.61,0,1,0,1.93.05,2.88,0,.26.44,0,.42-.2s0-.1,0-.15c0-.24-.4,0-.4.19a.81.81,0,0,1,0,.16c0,.25.41,0,.42-.2.06-.77.05-1.54.05-2.32,0-2,0-3.92,0-5.89,0-3.93,0-7.86,0-11.79q0-12,0-24c0-4.48,0-9-.07-13.45,0-.26-.41,0-.41.19Z"/><path d="M151.17,129.73c-.08,5.83-.09,11.66-.1,17.49,0,1.64,0,3.28,0,4.92,0,.3.48,0,.48-.23,0-.42-.05-.85-.1-1.27,0-.19-.27,0-.28.13,0,.46-.09.92-.1,1.37,0,.29.48,0,.48-.23.06-2.91,0-5.83,0-8.74s0-5.8,0-8.7l-.06-4.9c0-.21-.34,0-.34.16Z"/><path d="M151.35,129.46a1.55,1.55,0,0,0,.09-.71c0-.17-.18-.17-.29-.12a.49.49,0,0,0-.29.4c0,.44,0,.88,0,1.32,0,.2,0,.41,0,.61a6.57,6.57,0,0,0,.09.66c0,.21.31,0,.33-.12a6,6,0,0,0,.1-.74c0-.21,0-.43,0-.65,0-.45,0-.91,0-1.36,0-.17-.18-.17-.29-.12a.49.49,0,0,0-.29.4,1,1,0,0,0,.09.63c.12.14.36-.1.4-.2Z"/><path d="M151.27,128.26h-.56c-.24,0-.57.52-.25.52,2,0,4,0,6.07,0,.23,0,.56-.52.24-.52h-7c-.24,0-.57.52-.25.52h57.6c5.39,0,10.79,0,16.19,0,.22,0,.54-.51.24-.5-.59,0-1.17,0-1.75.08-.13,0-.38.32-.16.34.56,0,1.11.07,1.67.08.23,0,.55-.5.24-.5-4.81,0-9.62,0-14.42,0H149.76c-.24,0-.57.52-.25.52h7c.23,0,.56-.52.24-.52-2,0-4,0-6.06,0-.24,0-.57.52-.25.52H151c.22,0,.55-.5.24-.5Z"/><path d="M222.87,128.59c0,5.79-.08,11.58-.08,17.37v4.86c0,.31.5,0,.5-.24V128.2c0-.3-.5,0-.5.24q0,9.26,0,18.51c0,1.73,0,3.47,0,5.2,0,.31.5,0,.5-.24,0-.38,0-.75,0-1.13s-.46,0-.47.22c0,.39,0,.77,0,1.15s.5,0,.5-.24q0-9.25,0-18.5c0-1.74,0-3.47,0-5.21,0-.3-.5,0-.5.24v22.38c0,.31.5,0,.5-.24,0-5.76-.06-11.53-.07-17.29v-4.86c0-.21-.34,0-.34.16Z"/><path d="M172.94,129.75c-.13,2.84-.05,5.69-.05,8.53s0,5.69,0,8.53c0,1.57,0,3.14.1,4.71,0,.17.26,0,.26-.12.23-5.7.13-11.42.14-17.12,0-1.57,0-3.16-.06-4.73,0-.27-.41,0-.42.2Z"/><path d="M197.06,129.55c-.11,1.41-.06,2.86-.06,4.28s0,2.79,0,4.19v8.43c0,1.57,0,3.15.08,4.71,0,.21.35,0,.34-.16l0-.37c0-.19-.29,0-.29.14l0,.39c0,.21.33,0,.34-.16.1-1.43.08-2.86.08-4.29v-4.19c0-2.81,0-5.62,0-8.43,0-1.57.06-3.16-.07-4.72,0-.24-.35,0-.36.18Z"/><path d="M151.36,157.24c-2.16,2.14-4.34,4.25-6.42,6.48-.15.16,0,.3.15.15,2.22-2.08,4.34-4.26,6.48-6.42.22-.22,0-.43-.21-.21Z"/><path d="M153.9,161.8c-1.73,1.72-3.48,3.43-5.16,5.21-.14.15,0,.28.14.14,1.78-1.67,3.49-3.43,5.21-5.16.18-.19,0-.37-.19-.19Z"/><path d="M195.87,154.83q-2.38,2.4-4.79,4.78L188.71,162c-.79.79-1.59,1.56-2.3,2.41-.09.1,0,.21.12.12.83-.7,1.59-1.48,2.36-2.26l2.41-2.41,4.78-4.79c.22-.22,0-.43-.21-.22Z"/><path d="M186.77,159.76c-2.32,2.33-4.64,4.64-6.92,7-.14.14,0,.27.14.14,2.35-2.29,4.67-4.6,7-6.92.22-.22,0-.43-.21-.22Z"/><path d="M223.44,158.25c-3.5,3.5-7,7-10.45,10.54-.12.12,0,.24.12.12,3.56-3.43,7-6.95,10.54-10.45.21-.21,0-.43-.21-.21Z"/><path d="M221.67,155.72c-1.14,1.14-2.29,2.27-3.39,3.44-.17.17,0,.33.16.16,1.17-1.1,2.3-2.25,3.44-3.39.06-.06.15-.2.07-.28s-.22,0-.28.07Z"/><path d="M167.81,133.34c-3,2.95-5.93,5.9-8.87,8.87-.84.84-1.66,1.69-2.49,2.54-.13.15,0,.28.14.14,3-2.91,5.95-5.87,8.9-8.83l2.51-2.52c.21-.2,0-.4-.19-.2Z"/><path d="M163,142.44,161.46,144l-.75.75a5.77,5.77,0,0,0-.74.82c-.07.12,0,.2.13.12a5.36,5.36,0,0,0,.79-.72l.78-.76c.51-.51,1-1,1.54-1.54.06-.06.14-.2.07-.28s-.23,0-.29.07Z"/><path d="M191.07,135.87l-4.68,4.67c-1.57,1.56-3.15,3.09-4.65,4.71-.15.16,0,.31.15.16,1.62-1.5,3.15-3.09,4.71-4.65l4.67-4.69c.21-.21,0-.41-.2-.2Z"/><path d="M189.3,133.34,187,135.67l-1.2,1.2c-.22.21-.44.42-.64.65a6.71,6.71,0,0,0-.6.7c-.07.1,0,.18.11.11s.44-.39.66-.58.44-.42.65-.63l1.23-1.23,2.34-2.34c.21-.22,0-.43-.21-.21Z"/><path d="M217.12,136.63q-4.68,4.68-9.32,9.39c-.13.14,0,.26.13.13,3.15-3.08,6.27-6.2,9.39-9.32.2-.2,0-.4-.2-.2Z"/><path d="M169.72,194.43q-.06,9-.05,17.94l0,17.88v10.09c0,.28.46,0,.46-.22,0-2.2,0-4.4-.09-6.6,0-.18-.28,0-.28.14-.12,2.22-.09,4.45-.09,6.68,0,.28.46,0,.46-.22q0-9,0-17.93t0-17.89c0-3.36,0-6.72,0-10.07,0-.26-.42,0-.42.2Z"/><path d="M185.2,199.55c-3,3-6,5.93-9,8.94l-2.58,2.64c-.15.16,0,.3.15.15q4.57-4.47,9.08-9l2.5-2.52c.18-.18,0-.36-.18-.18Z"/><path d="M187.46,211.1c-1.51,1.52-3.06,3-4.52,4.59-.14.15,0,.28.15.14,1.57-1.45,3.07-3,4.58-4.52.22-.21,0-.42-.21-.21Z"/><path d="M192.58,223.81q-5.47,5.44-10.92,10.92c-1,1-2.06,2.09-3.08,3.15-.15.15,0,.3.15.15,3.7-3.58,7.33-7.23,11-10.88l3.1-3.13c.22-.21,0-.42-.21-.21Z"/><path d="M158.25,200.29q-2.17,2.19-4.32,4.4c-.14.14,0,.27.13.14q2.22-2.15,4.4-4.33c.07-.06.15-.2.07-.28s-.22,0-.28.07Z"/><path d="M161.86,209.4c-3.86,3.83-7.72,7.66-11.53,11.54l-3.22,3.3c-.13.12,0,.24.12.12q5.84-5.72,11.58-11.49l3.25-3.27c.2-.2,0-.4-.2-.2Z"/><path d="M161.68,230.27c-1.27,1.27-2.54,2.53-3.78,3.81-.15.16,0,.31.15.16,1.29-1.24,2.55-2.51,3.82-3.78,0-.05.13-.18.06-.25s-.2,0-.25.06Z"/><path d="M227.49,203c-2.53,2.53-5.06,5.06-7.55,7.63-.12.13,0,.25.13.12,2.56-2.49,5.09-5,7.63-7.54.21-.21,0-.43-.21-.21Z"/><path d="M226.16,216c-2.6,2.59-5.19,5.18-7.74,7.81-.12.13,0,.26.13.13,2.64-2.54,5.23-5.14,7.82-7.73.21-.22,0-.43-.21-.21Z"/><path d="M223.51,224.57l2.3-2.3,1.12-1.13c.38-.39.78-.76,1.13-1.17.09-.11,0-.21-.12-.12-.4.33-.77.72-1.14,1.09l-1.16,1.15-2.31,2.31c-.18.18,0,.35.18.17Z"/><path d="M86.19,199.55l-3.91,3.87c-1.3,1.28-2.63,2.56-3.85,3.92-.14.16,0,.29.15.15,1.36-1.23,2.63-2.55,3.92-3.85l3.87-3.91c.19-.19,0-.37-.18-.18Z"/><path d="M79.39,202c.11,0,.26-.23.12-.23s-.26.23-.12.23Z"/><path d="M78.22,204.1c-2.42,2.39-4.82,4.79-7.18,7.23-.14.14,0,.28.14.14q3.64-3.56,7.23-7.18c.19-.2,0-.39-.19-.19Z"/><path d="M60.61,198.63l-3,3-1.49,1.48a13.23,13.23,0,0,0-1.43,1.47c-.1.13,0,.25.15.15a14.42,14.42,0,0,0,1.44-1.38l1.51-1.54,3-3c.13-.14,0-.26-.13-.13Z"/><path d="M294.52,118.23A49.44,49.44,0,0,1,298.6,106a24.64,24.64,0,0,1,3.73-5.42,17,17,0,0,1,4.88-3.85,6.76,6.76,0,0,1,5.22-.56c2,.71,3.23,2.57,4.17,4.36s1.72,4,2.69,6,2.13,3.81,4.08,4.73c3.69,1.74,7.13-1.81,8.87-4.7,2.2-3.66,2.8-8,4.7-11.85a19.5,19.5,0,0,1,10.22-9.1,17.93,17.93,0,0,1,6.68-1.48,6.74,6.74,0,0,1,4.7,1.83c2.39,2.35,2.83,6.18,2.44,9.35a18.78,18.78,0,0,1-2.48,6.89c-.6,1.05-1.25,2.07-1.91,3.07a19.89,19.89,0,0,1-2.08,2.4,6.27,6.27,0,0,0-1.44,2.38.12.12,0,0,0,.06.15,20.28,20.28,0,0,0,6.51,1.92,58.12,58.12,0,0,0,6,.71,30.79,30.79,0,0,1,5.67.56c1.71.41,3.4,1.32,3.89,3.14s-.21,3.92-.87,5.6a11.59,11.59,0,0,1-.94,1.64c-.42.68-.84,1.37-1.2,2.09s-1.15,2.41,0,3.07a4.9,4.9,0,0,0,2.2.44,8.52,8.52,0,0,1,2.47.27c2,.71,2,3.39,1.64,5.13-.43,2-1.44,4.46-3.44,5.39a.36.36,0,0,0-.2.28c0,1.87,1.59,3.33,1.06,5.26-.64,2.36-2.9,4-5,4.93a11.3,11.3,0,0,1-3.16,1,25.51,25.51,0,0,1-3.15.11,10.25,10.25,0,0,0-3,.36,3.17,3.17,0,0,0-1.83,1.46,9.64,9.64,0,0,0-.9,5.48c.11,1.91.3,3.85.57,5.74a16,16,0,0,1,.24,3.45,3.15,3.15,0,0,1-1.38,2.68,10.36,10.36,0,0,1-2.28.61,3.53,3.53,0,0,0-1.88,1.11c-1.37,1.62-1.17,3.95-1.08,5.94,0,.5,0,1,.05,1.49,0,.76.43,1.65.1,2.38s-1.89,2.28-2.79,1.49c-.14-.13-.46.2-.32.33.61.54,1.52.11,2.09-.3a3.17,3.17,0,0,0,1.52-2.2c0-.69-.2-1.37-.22-2.06,0-.44,0-.87-.05-1.31a21.36,21.36,0,0,1,0-3.2,3.89,3.89,0,0,1,1.28-2.76,5.74,5.74,0,0,1,2.4-.8,3.62,3.62,0,0,0,2-1,4.39,4.39,0,0,0,.95-2.58,16.62,16.62,0,0,0-.27-3.59c-.14-1-.2-2-.31-3.06a19.23,19.23,0,0,1,0-6.15,3.7,3.7,0,0,1,1.49-2.53,7.11,7.11,0,0,1,3.13-.56c1.08,0,2.18,0,3.26-.1a11.15,11.15,0,0,0,3-.85,10.11,10.11,0,0,0,5.64-4.79,4.1,4.1,0,0,0,.18-3.15,9.16,9.16,0,0,1-.9-3l-.2.28a7.09,7.09,0,0,0,3.34-4.16,8.71,8.71,0,0,0,.44-5.31,2.67,2.67,0,0,0-1.38-1.67,5.75,5.75,0,0,0-2.37-.4,6.43,6.43,0,0,1-2.5-.39c-.64-.34-.63-1-.45-1.6a19.85,19.85,0,0,1,2.25-4.21,9.72,9.72,0,0,0,.8-2,12.19,12.19,0,0,0,.58-2.73,4.38,4.38,0,0,0-2.4-4.42,13.82,13.82,0,0,0-5.4-1.09c-1-.06-2-.09-3-.16-1.2-.09-2.41-.29-3.6-.45a23.2,23.2,0,0,1-7.9-2.11l.06.16a7.18,7.18,0,0,1,2-2.84,15.38,15.38,0,0,0,1.91-2.49,29.2,29.2,0,0,0,3.29-6.41c1.13-3.33,1.24-7.47-.43-10.66A6.92,6.92,0,0,0,357,84.31a9.53,9.53,0,0,0-5.74-.31,21.56,21.56,0,0,0-6.45,2.36,21.18,21.18,0,0,0-5.45,4.23c-2.92,3.27-4.09,7.4-5.5,11.45a19.85,19.85,0,0,1-3.09,6.08c-1.27,1.58-3.09,3.15-5.23,3.14-2.38,0-4.09-1.94-5.21-3.84s-1.86-4.07-2.8-6.1c-.85-1.84-1.93-3.86-3.68-5a6,6,0,0,0-4.81-.67,13,13,0,0,0-5,2.84,22.76,22.76,0,0,0-4.2,4.77,39.15,39.15,0,0,0-4.94,12c-.26,1-.49,2-.71,3.07-.05.23.29.07.32-.08Z"/><path d="M321.25,109.76c.38-.34.85-.2,1.31-.17a7.47,7.47,0,0,1,1.41.19,8.5,8.5,0,0,0,2.48.47c1.35,0,2.16-1.29,2.6-2.44a17.06,17.06,0,0,0,.84-4,36.57,36.57,0,0,0,.21-4.18c.06-2.94,0-6.11,1.44-8.79,1.57-3,4.82-4.4,8-5a16.4,16.4,0,0,1,9.81.92,12.94,12.94,0,0,1,4.15,2.91,16.5,16.5,0,0,1,3,4.82c1.56,3.54,2.31,7.35,3.37,11.05.85,2.95,1.88,6.33,4.36,8.35,2.1,1.71,4.85,1.68,7.37,1,1.4-.35,2.75-.91,4.13-1.35a28.49,28.49,0,0,1,4.63-1.15,9.3,9.3,0,0,1,4.51.25,5.44,5.44,0,0,1,2.95,2.88,17.06,17.06,0,0,1,1.46,9.08,14.47,14.47,0,0,1-3,8.36,24.7,24.7,0,0,1-8.57,5.89,73.05,73.05,0,0,0-9.08,4.51,15.18,15.18,0,0,0-3.78,3.27,14.77,14.77,0,0,0-2.65,4.92,7.72,7.72,0,0,0,0,5,8.33,8.33,0,0,0,3,3.41c1.31.94,2.73,1.71,4,2.7a7.7,7.7,0,0,1,3.05,3.87,4,4,0,0,1-1.26,4.24c-1,.79-2.12,1.31-3,2.17a3.4,3.4,0,0,0-1.18,3.28c.38,1.28,1.78,1.94,2.66,2.82a4.38,4.38,0,0,1,1.08,1.67c.19.57.43,1.74-.14,2.17-.2.15-.15.48.11.29,1-.78.62-2.48.07-3.42-.72-1.24-2-1.85-2.93-2.92s-.47-2.79.6-3.76,2.18-1.39,3.15-2.26a4.34,4.34,0,0,0,1.4-3.68,6.26,6.26,0,0,0-2.27-4,32.07,32.07,0,0,0-4-2.83,10.83,10.83,0,0,1-3.64-3.35c-2-3.46.23-7.87,2.51-10.59a16.49,16.49,0,0,1,4.32-3.32,50.53,50.53,0,0,1,4.66-2.32,47.68,47.68,0,0,0,9.1-4.81,17.38,17.38,0,0,0,3.55-3.46,12.43,12.43,0,0,0,1.78-3.66,20.26,20.26,0,0,0,.63-9.44c-.43-2.6-1.47-5.87-4.12-7-2.81-1.15-6.23-.21-9,.65s-5.6,2.24-8.59,1.87-4.8-2.66-6-5.19c-1.63-3.52-2.29-7.43-3.38-11.13-1-3.54-2.44-7.33-5.23-9.88a14.47,14.47,0,0,0-8.9-3.59,17.22,17.22,0,0,0-9.59,2.12,9.81,9.81,0,0,0-4.61,7c-.52,3-.26,6-.51,9a19.23,19.23,0,0,1-.71,4,4.89,4.89,0,0,1-1,2,2.39,2.39,0,0,1-2.49.43,12.46,12.46,0,0,0-2.34-.48c-.72,0-1.36-.18-1.94.35-.19.17,0,.34.17.18Z"/><path d="M322.78,109.82a15.61,15.61,0,0,0,4.8,3.46,7.61,7.61,0,0,0,5.27.67c2.75-.8,4.65-3.17,7.3-4.18a5.48,5.48,0,0,1,4.33.21,13.93,13.93,0,0,1,4.06,3.09c2.38,2.56,4.28,6,4.32,9.6a12,12,0,0,1-1.53,5.34,55,55,0,0,1-3.13,5.35c-1.07,1.71-2.15,3.42-3.05,5.23a24.52,24.52,0,0,0-1.17,2.74,11.79,11.79,0,0,0-.67,2.66,5.75,5.75,0,0,0,2.13,4.76,22.83,22.83,0,0,1,3.87,4.05c2.12,3.41-.29,7.29-1,10.76-.45,2.27,0,4.57.17,6.85a9.56,9.56,0,0,1-1,5.84,16.67,16.67,0,0,0-1.49,2.38,18,18,0,0,0-.69,2.27A3.12,3.12,0,0,1,344,183a2.23,2.23,0,0,1-1.89,0,5.27,5.27,0,0,1-1.82-1.39c-.13-.14-.48.2-.35.35.88,1,2.25,2,3.65,1.58,1.63-.47,2-2.28,2.39-3.7a8.62,8.62,0,0,1,1.12-2.47,10.15,10.15,0,0,0,1.33-2.27,14.55,14.55,0,0,0,.3-6.4,27.17,27.17,0,0,1-.21-3.6,12.61,12.61,0,0,1,.55-3.05,30.63,30.63,0,0,0,1.45-5.65,6.41,6.41,0,0,0-1.55-4.83c-1.21-1.45-2.76-2.56-4-4a5,5,0,0,1-1.27-2.82,7,7,0,0,1,.42-2.74,27.15,27.15,0,0,1,2.62-5.69c2.09-3.56,4.64-6.92,6-10.86,1.19-3.41.08-7.11-1.77-10.07a17.15,17.15,0,0,0-3.54-4.1,9.41,9.41,0,0,0-4.29-2.25c-3-.51-5.36,1.72-7.69,3.24a7.3,7.3,0,0,1-4.18,1.46,11.59,11.59,0,0,1-6-2.36,21.88,21.88,0,0,1-2.23-1.85c-.13-.13-.43.17-.31.3Z"/><path d="M73.33,124.52c-4.64-1.91-7-7.4-12-8.73A7.15,7.15,0,0,0,55,117.17a31.22,31.22,0,0,0-4.57,5.48c-1.44,1.94-2.94,4.1-5,5.44a4.41,4.41,0,0,1-2.78.79A3.65,3.65,0,0,1,40,127.2c-1.15-1.59-1.92-4.16-4.11-4.57-2.71-.51-4.82,2-6.2,3.91-.86,1.22-1.61,2.52-2.35,3.81a13.88,13.88,0,0,0-1.72,4.73c-.44,3,.61,5.77,1.74,8.48a47.35,47.35,0,0,1,1.76,4.6c.26.88.45,1.77.66,2.67a20.1,20.1,0,0,1,.53,3,9.11,9.11,0,0,1-1.5,5.73,46.18,46.18,0,0,1-2.93,3.64c-1.7,2.17-2.76,5.3-1.83,8,.79,2.34,3,3.81,5,4.92,2.55,1.35,5.49,2.2,7.71,4.08A5.08,5.08,0,0,1,38.69,183a8.33,8.33,0,0,1-.21,3.22,37.69,37.69,0,0,0-.77,3.92,19.1,19.1,0,0,0,.56,5.78c.42,1.9,1,3.77,1.24,5.69a29,29,0,0,1,.21,6c-.13,2-.38,4.06-.32,6.09a16.88,16.88,0,0,0,1.19,5.57c.63,1.62,1.51,3.12,2.12,4.74.47,1.26.4,2.69,1,3.9a3.4,3.4,0,0,0,2.84,1.72c.18,0,.43-.35.19-.38A3.15,3.15,0,0,1,43.82,227a14.55,14.55,0,0,1-.35-1.84,9.76,9.76,0,0,0-.75-2.25c-.69-1.59-1.54-3.11-2.08-4.76a17.42,17.42,0,0,1-.87-5.77c0-2,.3-4,.38-6a25.9,25.9,0,0,0-.39-5.63c-.66-3.72-2.22-7.5-1.57-11.33.35-2.12,1.31-4.46.85-6.63-.53-2.53-3.21-4-5.35-4.94-2.38-1.1-4.91-2.07-7-3.75a7.1,7.1,0,0,1-2.18-2.82,6.76,6.76,0,0,1-.21-4,10,10,0,0,1,2.23-4.37,28.32,28.32,0,0,0,2.86-3.7,9,9,0,0,0,1.31-4.94,23.86,23.86,0,0,0-.95-5.22c-.8-3.08-2.35-5.87-3.29-8.89a11.79,11.79,0,0,1-.58-4.33,12.4,12.4,0,0,1,1.61-5.09c.74-1.31,1.5-2.63,2.36-3.86a10.71,10.71,0,0,1,3.22-3.31,3.63,3.63,0,0,1,3.47-.16,6.33,6.33,0,0,1,2.06,2.44c1,1.7,2.07,3.62,4.31,3.52,2-.08,3.67-1.63,4.95-3,1.68-1.85,3.08-3.93,4.61-5.91,1.39-1.79,2.84-3.57,5.13-4.14,5.41-1.34,8.87,4,12.53,7a12,12,0,0,0,2.88,1.76c.18.07.48-.3.28-.39Z"/><path d="M40.18,240.42l-1.13,0c-.71,0-1.72,1.54-.76,1.56l2.64,0c.76,0,1.8-1.67.8-1.66-2.92,0-5.83,0-8.75,0-.71,0-1.74,1.6-.76,1.6q43.38-.09,86.76-.07t86.82,0c28.81,0,57.61-.15,86.42-.13q27.82,0,55.64.06c11.56,0,23.14-.25,34.69.06,3.23.08,6.47,0,9.7.06.67,0,1.63-1.5.72-1.5h-.63c-.68,0-1.64,1.49-.72,1.5,3.35,0,6.71.08,10.06.1.77,0,1.87-1.7.82-1.7-2.15,0-4.3,0-6.46,0-.75,0-1.81,1.66-.8,1.66h1.91c.73,0,1.8-1.64.79-1.64H396c-.75,0-1.81,1.65-.8,1.66,2.15,0,4.3,0,6.44,0,.77,0,1.86-1.71.82-1.7-3.39,0-6.77.09-10.16.1-.68,0-1.64,1.5-.72,1.5h.63c.67,0,1.63-1.5.72-1.5-12.67,0-25.33.11-38,.11q-28,0-55.91.06c-27.31,0-54.62-.12-81.93-.12q-43.39,0-86.8,0t-86.72,0l-10.64,0c-.71,0-1.74,1.59-.76,1.6l8.71,0c.76,0,1.79-1.68.8-1.66l-2.68.05c-.71,0-1.71,1.58-.76,1.56l1.15,0c.67,0,1.69-1.51.74-1.52Z"/><path d="M296.77,185.05c-.13,5-.14,10-.2,15s-.08,9.91-.08,14.86v8.42c0,.4.45.41.73.28a1.22,1.22,0,0,0,.71-1V204.79c0-.41-.45-.42-.74-.29a1.24,1.24,0,0,0-.72,1c0,4.38,0,8.75,0,13.13s.07,8.71,0,13.07c0,2.38,0,4.77,0,7.15,0,.38.41.39.67.26a1.1,1.1,0,0,0,.65-.9V238c0-.38-.41-.39-.66-.27a1.14,1.14,0,0,0-.66.9c0,.36,0,.72.08,1.08a6.87,6.87,0,0,1,.18.88c0,.24.25.24.41.17a.69.69,0,0,0,.4-.56c0-.34.14-.71.17-1.05a11.11,11.11,0,0,0,.08-1.15c0-.38-.41-.39-.66-.27a1.14,1.14,0,0,0-.66.9v.19c0,.38.41.38.67.26a1.1,1.1,0,0,0,.65-.9c.05-4.29,0-8.58,0-12.87s0-8.74.06-13.12l0-7.42c0-.41-.45-.42-.74-.29a1.24,1.24,0,0,0-.72,1q0,6.94,0,13.88v3.95c0,.4.45.41.73.28a1.23,1.23,0,0,0,.71-1q0-7.44,0-14.88c0-4.92-.08-9.84-.12-14.76,0-2.78-.07-5.56-.14-8.35,0-.24-.27-.25-.44-.17a.73.73,0,0,0-.43.59Z"/><path d="M297.81,184.6l1.88,0a1.27,1.27,0,0,0,1-.74c.14-.29.13-.74-.3-.74-1.19,0-2.39,0-3.59,0a1.26,1.26,0,0,0-1,.75c-.14.29-.14.76.3.76h34.81l34.65,0c3.24,0,6.49,0,9.73,0l4.79,0,2.49,0c.7,0,1.38-.11,2.08-.17a.76.76,0,0,0,.58-.42c.07-.15.08-.45-.17-.43l-.4,0c-.31,0-.9.75-.38.79l.37,0c.38,0,.94-.81.41-.85s-1-.14-1.57-.17c-.75,0-1.52,0-2.28,0l-4.31,0c-2.91,0-5.82,0-8.72,0l-17.31,0q-17.3,0-34.61,0H296.81a1.26,1.26,0,0,0-1,.75c-.14.29-.14.76.3.76,1.2,0,2.41,0,3.61,0a1.25,1.25,0,0,0,1-.74c.13-.28.13-.75-.3-.74l-1.91,0a1.18,1.18,0,0,0-.95.7c-.14.28-.13.7.27.71Z"/><path d="M384,183.92c-.07,1.35-.09,2.68-.08,4,0,.3.33.31.54.21a.9.9,0,0,0,.52-.71c0-1.21,0-2.41,0-3.62,0-.31-.34-.32-.55-.22a.94.94,0,0,0-.55.75c-.09,7.34-.1,14.67-.08,22s.15,14.59.05,21.88l-.08,6.12c0,2.06-.17,4.14,0,6.2,0,.38.4.41.69.27a1.16,1.16,0,0,0,.68-.93l-.07-.92c0-.34-.37-.36-.62-.24a1.06,1.06,0,0,0-.62.84l-.06,1c0,.39.44.39.69.27a1.18,1.18,0,0,0,.68-.93c.12-1.81,0-3.63,0-5.44l-.08-5.42c-.05-3.64,0-7.28,0-10.93,0-7.32.1-14.65.06-22,0-4.11,0-8.21-.09-12.32,0-.31-.34-.32-.55-.22a1,1,0,0,0-.55.75c0,1.2,0,2.39,0,3.59,0,.3.33.31.54.21a.88.88,0,0,0,.52-.71c0-1.32,0-2.63-.07-3.95,0-.26-.28-.27-.46-.18a.74.74,0,0,0-.45.61Z"/><path d="M328,163.91a6.83,6.83,0,0,0-.17,2.07c0,.64,0,1.29,0,1.93,0,1.29.05,2.58.08,3.87.06,2.56.09,5.12.07,7.67,0,1.45,0,2.89,0,4.34,0,.32.35.32.57.22a.93.93,0,0,0,.55-.76c0-.77,0-1.53,0-2.29,0-.32-.35-.33-.58-.22a1,1,0,0,0-.57.78l0,.56c0,.31.34.32.57.22a1,1,0,0,0,.55-.76V181c0-.32-.36-.33-.58-.22a1,1,0,0,0-.57.78c0,.75,0,1.51,0,2.27,0,.32.34.33.57.22a.93.93,0,0,0,.55-.76c0-2.57,0-5.13,0-7.69s.13-5.2.14-7.8c0-.73,0-1.46,0-2.18l0-1.11a2.24,2.24,0,0,0-.16-1c-.25-.51-.89.2-1,.47Z"/><path d="M253.09,163.65c2.81.19,5.64.12,8.46.12l8.37,0q8.38,0,16.75,0c5.64,0,11.28,0,16.92,0s11.16-.07,16.74,0c3.11,0,6.22,0,9.33.09s6,.29,9,.24a1.61,1.61,0,0,0,1.3-1c.18-.37.18-1-.38-1-.77,0-1.53,0-2.3.06a1.55,1.55,0,0,0-1.22.89c-.15.32-.17.95.35.91a7,7,0,0,0,1.43-.32c.31-.09,1.16-.91.55-1.15a3.94,3.94,0,0,0-1.11-.33,1.48,1.48,0,0,0-1.22.89c-.18.37-.15.88.35.91.75,0,1.5,0,2.25.06a1.59,1.59,0,0,0,1.3-1c.18-.38.17-1-.38-1-2.72,0-5.46.12-8.19.21s-5.6.08-8.4.11c-5.58.05-11.16,0-16.73,0-11.21-.07-22.41,0-33.62-.06l-9.36,0c-3.19,0-6.41-.09-9.59.11a1.07,1.07,0,0,0-.85.61c-.12.27-.11.61.25.63Z"/><path d="M255.25,80.18a10,10,0,0,0,.83,1.18l1,1.12c.66.73,1.31,1.46,2,2.16l4.09,4.11c2.73,2.74,5.46,5.47,8.27,8.11s5.55,5.46,8.31,8.2l8.2,8.17,16.4,16.34q8.22,8.18,16.36,16.44t16.15,16.57l2,2c.67.7,2.36-1,1.68-1.68-.3-.33-.65-.62-1-.92-.69-.64-2.26.93-1.62,1.62.3.33.59.68.92,1l1.68-1.68c-2.78-2.69-5.59-5.35-8.38-8s-5.49-5.39-8.22-8.09q-8.25-8.15-16.45-16.34T291.15,114.1L274.74,97.62c-1.36-1.37-2.65-2.81-4-4.2s-2.75-2.79-4.14-4.18c-2.74-2.72-5.42-5.51-8.29-8.1l-1-.9a10.79,10.79,0,0,0-1.24-.89c-.41-.28-1.11.42-.83.83Z"/><path d="M122.47,78h.27a1.43,1.43,0,0,0,1.16-.85c.16-.34.16-.87-.34-.87h-1.4a1.41,1.41,0,0,0-1.16.85c-.15.33-.16.86.34.86,16.56,0,33.13-.13,49.7-.17s33.05,0,49.57.07l13.79,0c4.66,0,9.32.18,14,.18a1.6,1.6,0,0,0,1.29-.94c.17-.38.18-1-.38-1H247a1.59,1.59,0,0,0-1.3.95c-.17.37-.17,1,.38,1a40.74,40.74,0,0,0,6.72-.19c.72-.13,1.49-1.71.38-1.52l-.6.1c-.35.06-1.32,1.17-.63,1.31l.5.1a1.13,1.13,0,0,0,1.1-.54c.15-.21.42-.88,0-1a33.11,33.11,0,0,0-6.53-.2,1.59,1.59,0,0,0-1.3.95c-.17.37-.17,1,.38,1h2.28a1.6,1.6,0,0,0,1.29-.94c.17-.38.18-1-.38-1-4.19,0-8.38,0-12.58.17s-8.17,0-12.25,0c-8.27,0-16.54.13-24.81.09-16.54-.09-33.08,0-49.62-.08q-13.93-.06-27.87-.11a1.41,1.41,0,0,0-1.16.85c-.16.33-.16.86.34.86h1.4a1.43,1.43,0,0,0,1.16-.85c.16-.34.16-.87-.34-.87h-.26a1.44,1.44,0,0,0-1.17.85c-.15.33-.15.87.34.87Z"/><path d="M121.11,77.61c-1,.86-2,1.69-2.87,2.59l-2.81,2.72c-1.86,1.81-3.66,3.68-5.49,5.52-.26.25-.61.81-.29,1.15s.92-.06,1.15-.29l4-4c.25-.25.59-.81.28-1.13s-.9,0-1.13.28L99,99.39l-15,15q-7.5,7.5-15,15l-14.94,15q-7.44,7.48-14.93,14.91L37.54,161c-.22.22-.52.71-.24,1s.78-.05,1-.25L41,159.06c.23-.23.55-.74.26-1s-.83,0-1,.26c-1.15,1.13-2.31,2.24-3.44,3.39-.24.24-.58.78-.28,1.1s.88-.05,1.11-.27c.94-1,1.87-1.92,2.79-2.9.2-.22.5-.68.23-1s-.75.05-1,.24c-1,.91-1.94,1.85-2.9,2.79l.83.83c1.14-1.13,2.26-2.29,3.39-3.44l-.78-.78L37.54,161l.74.74q7.29-7.4,14.66-14.72T68,132q7.51-7.48,15-15t15-15q7.47-7.45,14.94-14.92l1.88-1.87-.85-.85-4,4,.86.86c1.84-1.83,3.71-3.63,5.51-5.49L119,81c.9-.93,1.73-1.91,2.59-2.88.14-.15.37-.48.17-.68s-.53,0-.69.17Z"/><path d="M38.47,161.88l-1.65-.12a1.47,1.47,0,0,0-1.2.88c-.18.37-.16.87.35.9.88.06,1.79,0,2.68,0a1.41,1.41,0,0,0,1.14-.83c.15-.33.15-.85-.34-.85h-1.9a1.41,1.41,0,0,0-1.12.82c-.15.32-.15.84.33.84h1.9a1.37,1.37,0,0,0,1.1-.81c.15-.32.15-.83-.32-.82H37a1.34,1.34,0,0,0-1.09.79c-.15.31-.14.82.32.81q16.44-.07,32.89-.07t33,0h9.27c1.5,0,3,0,4.5.08.75,0,1.48.09,2.23.11a11.24,11.24,0,0,0,2.32,0,1.54,1.54,0,0,0,1.07-1.07c.12-.48-.19-.73-.64-.65a4.52,4.52,0,0,1-.62.12,1.26,1.26,0,0,0-1,.73c-.13.29-.13.75.3.75a3,3,0,0,1,.5.12,1.32,1.32,0,0,0,1.26-.62c.16-.24.47-1,0-1.1a8.19,8.19,0,0,0-2,0c-.72,0-1.44,0-2.16.1-1.35.08-2.72.09-4.07.1-2.75,0-5.5,0-8.25,0H88.28l-32.92,0q-9.2,0-18.39-.06a1.36,1.36,0,0,0-1.09.79c-.15.32-.14.81.32.81l2.46,0a1.37,1.37,0,0,0,1.1-.81c.16-.32.15-.82-.32-.82l-1.89,0a1.39,1.39,0,0,0-1.12.82c-.16.33-.15.84.33.84h1.89a1.39,1.39,0,0,0,1.14-.83c.15-.33.15-.85-.34-.85-.87,0-1.76-.1-2.63-.05a1.51,1.51,0,0,0-1.2.88c-.16.33-.17.93.35.9s1.17-.07,1.76-.12a1.3,1.3,0,0,0,1.05-.76c.16-.33.13-.74-.31-.78Z"/><path d="M120.35,112c0,.24,0,.49-.06.72s-.22.59-.29.89a6.75,6.75,0,0,0,0,1.62c0,.47.51.48.84.33a1.41,1.41,0,0,0,.83-1.14c0-1.76,0-3.52,0-5.29,0-.44-.49-.45-.8-.31a1.33,1.33,0,0,0-.77,1.07c0,9.09.16,18.17.19,27.26s.2,18.08.06,27.13c-.08,5.13-.21,10.26-.22,15.39,0,.43.47.44.76.3a1.26,1.26,0,0,0,.74-1v-.19c0-.42-.46-.43-.76-.3a1.28,1.28,0,0,0-.74,1c0,.56,0,1.13,0,1.69,0,.41.44.43.74.29a1.23,1.23,0,0,0,.73-1,4.92,4.92,0,0,0-.24-1.14c-.07-.22-.36-.16-.5-.1a.93.93,0,0,0-.5.58,7.73,7.73,0,0,0-.23,1.36c0,.42.47.42.74.29a1.25,1.25,0,0,0,.73-1c0-.57,0-1.15,0-1.72,0-.42-.46-.43-.76-.3a1.31,1.31,0,0,0-.74,1v.18c0,.43.47.44.76.3a1.26,1.26,0,0,0,.74-1c0-9-.36-18.06-.26-27.09s0-18.19.18-27.28c.07-5.15.12-10.29.12-15.45,0-.44-.49-.45-.8-.31a1.33,1.33,0,0,0-.77,1.07c0,1.78,0,3.56,0,5.34,0,.47.52.48.84.33a1.43,1.43,0,0,0,.83-1.14c0-.23,0-.46,0-.69a3.28,3.28,0,0,0-.05-.89c-.07-.21-.23-.39-.29-.61a4.76,4.76,0,0,1-.06-.66c0-.25-.26-.26-.45-.18a.78.78,0,0,0-.45.61Z"/><path d="M123.08,180.07l-1.13,0c-.73,0-1.77,1.6-.78,1.62h1a1.37,1.37,0,0,0,1.1-.8c.14-.32.15-.82-.32-.82h-1.14a1.39,1.39,0,0,0-1.1.8c-.14.32-.15.82.32.82q25.71-.07,51.42-.12c17,0,34.09,0,51.13-.08,4.79,0,9.58-.13,14.36,0,2.27,0,4.53.09,6.8.16a44,44,0,0,0,7,.06c.76-.1,1.56-1.73.4-1.58a4.38,4.38,0,0,1-.62.08c-.64,0-1.55,1.42-.68,1.42a5.77,5.77,0,0,1,.71.1c.73.11,1.8-1.47.78-1.62a34.66,34.66,0,0,0-6.36.07c-2.05.07-4.09.1-6.14.14-4.27.09-8.52,0-12.78,0-8.51-.06-17-.07-25.51-.08q-25.53,0-51.07-.07l-28.64-.07a1.37,1.37,0,0,0-1.1.8c-.14.32-.14.82.32.82h1.14a1.37,1.37,0,0,0,1.1-.8c.14-.32.15-.82-.32-.82h-1a1.39,1.39,0,0,0-1.1.8c-.14.31-.15.83.32.82l1.15,0a1.32,1.32,0,0,0,1.07-.78c.14-.32.14-.79-.31-.8Z"/><path d="M252.2,110.6c-.07,1.22-.11,2.43-.11,3.65,0,.41.45.42.74.29a1.23,1.23,0,0,0,.71-1c0-1.13,0-2.26,0-3.39,0-.38-.42-.39-.68-.27a1.17,1.17,0,0,0-.67.91v1.71c0,.38.42.39.69.27a1.14,1.14,0,0,0,.66-.92v-2.46c0-.39-.43-.4-.69-.27a1.13,1.13,0,0,0-.67.92q0,14,.05,28l.09,27.87c0,2.61,0,5.22,0,7.82,0,1.31-.13,2.61-.16,3.91l-.1,4c0,.47.52.47.84.32a1.38,1.38,0,0,0,.81-1.12l0-1.34c0-.49-.55-.49-.87-.34a1.45,1.45,0,0,0-.85,1.16c0,.45,0,.89,0,1.33s.53.5.87.34a1.46,1.46,0,0,0,.84-1.16c0-.44,0-.89,0-1.33s-.53-.5-.87-.34a1.45,1.45,0,0,0-.85,1.16l0,1.32c0,.46.51.48.84.32a1.38,1.38,0,0,0,.81-1.12l-.09-3.5c0-1.11-.12-2.22-.15-3.33-.05-2.31-.05-4.62-.05-6.93q0-7,.05-14,.06-14,.1-28c0-5.23,0-10.47,0-15.7,0-.39-.43-.4-.69-.27a1.13,1.13,0,0,0-.67.92v2.46c0,.38.42.39.69.27a1.14,1.14,0,0,0,.66-.92v-1.7c0-.38-.42-.39-.68-.27a1.15,1.15,0,0,0-.67.91c0,1.15,0,2.3,0,3.44,0,.41.45.42.74.29a1.23,1.23,0,0,0,.71-1c0-1.19,0-2.37-.11-3.55,0-.35-.36-.37-.62-.25a1.07,1.07,0,0,0-.61.84Z"/><path d="M122.14,110.51l.55,0c.72,0,1.76-1.55.77-1.6l-1.5,0a1.43,1.43,0,0,0-1.14.83c-.15.34-.15.85.34.85l1.08,0a1.45,1.45,0,0,0,1.16-.85c.15-.34.15-.86-.34-.86h-.14a1.4,1.4,0,0,0-1.16.84c-.16.34-.16.86.34.87,8.43.1,16.87,0,25.3,0s16.73-.12,25.1-.15c16.77,0,33.55-.09,50.32,0,9.15,0,18.31.07,27.46.3a1.56,1.56,0,0,0,1.27-.93c.18-.38.17-.93-.37-.95H251a1.56,1.56,0,0,0-1.29.93c-.17.38-.16.94.38,1s1,0,1.52,0a1.59,1.59,0,0,0,1.26-.92c.16-.35.17-.95-.37-.93a5.7,5.7,0,0,0-1.16.17l-.53.13c-.08,0-.47.06-.19.06-.51,0-1.23,1.13-.54,1.13a3,3,0,0,1,.62.2,3.55,3.55,0,0,0,.91.16,1.55,1.55,0,0,0,1.26-.92c.17-.37.16-.92-.37-.93s-1,0-1.5,0a1.59,1.59,0,0,0-1.29.93c-.16.36-.17,1,.38,1h.19a1.55,1.55,0,0,0,1.27-.93c.17-.35.18-1-.37-.95-16.63.42-33.27.31-49.91.31s-33.48-.1-50.23-.17c-9.37,0-18.75-.17-28.12-.05a1.4,1.4,0,0,0-1.16.84c-.15.33-.16.87.34.87h.14a1.45,1.45,0,0,0,1.16-.85c.15-.33.16-.87-.34-.86H122a1.43,1.43,0,0,0-1.14.83c-.15.33-.15.86.34.85s1,0,1.53,0a1.36,1.36,0,0,0,1.09-.79c.13-.3.15-.83-.32-.81l-.58,0a1.32,1.32,0,0,0-1,.76c-.15.32-.14.77.31.79Z"/><path d="M131.94,119.7c-.12,2.18-.14,4.35-.15,6.53,0,.43.48.44.78.3a1.29,1.29,0,0,0,.76-1l0-6.83c0-.44-.49-.45-.8-.31a1.31,1.31,0,0,0-.77,1.06q0,10.47,0,20.93c0,6.95.1,13.89,0,20.83,0,1.92,0,3.84-.05,5.76l0,2.85a16,16,0,0,0,.16,2.86c.14.8,1.38,0,1.28-.61a6,6,0,0,1-.12-.7c0-.3-.32-.31-.52-.21a.88.88,0,0,0-.52.71,5,5,0,0,1-.1.66c-.05.32.12.55.47.47a1.12,1.12,0,0,0,.77-.78,32.59,32.59,0,0,0,.16-5.23c0-1.72,0-3.44-.05-5.16,0-3.45,0-6.89,0-10.34q.06-10.55.1-21.09c0-3.9,0-7.8,0-11.7,0-.44-.49-.46-.8-.31a1.33,1.33,0,0,0-.77,1.06v6.83c0,.43.48.44.78.3a1.3,1.3,0,0,0,.76-1c0-2.12,0-4.25-.15-6.37,0-.35-.37-.37-.63-.25a1.07,1.07,0,0,0-.61.84Z"/><path d="M133.53,173.08c1.69.11,3.36.13,5.06.12a1.48,1.48,0,0,0,1.19-.86c.16-.35.16-.89-.35-.89l-5.51,0a1.43,1.43,0,0,0-1.16.85c-.16.33-.16.86.34.86,7,0,14.07-.09,21.1-.09H175c14,0,27.92,0,41.88-.08q5.91,0,11.82,0c3.92,0,7.84.09,11.76.14a1.29,1.29,0,0,0,1.06-.78c.14-.3.15-.79-.31-.79h-.38a1.29,1.29,0,0,0-1.05.77c-.14.3-.15.79.3.78h.77a1.29,1.29,0,0,0,1-.76c.13-.28.14-.79-.3-.77a10.49,10.49,0,0,0-1.58.3c-.24,0-.95.79-.45.93a6.36,6.36,0,0,0,1.29.3c.71,0,1.66-1.52.74-1.53h-.76a1.28,1.28,0,0,0-1.05.77c-.15.31-.14.78.3.78h.38a1.29,1.29,0,0,0,1.06-.78c.14-.3.15-.79-.31-.79-7,.09-14.07.16-21.12.13s-13.85-.08-20.78-.09l-41.83,0c-7.86,0-15.72-.09-23.59-.09a1.43,1.43,0,0,0-1.16.85c-.16.33-.16.86.34.86l5.49,0a1.47,1.47,0,0,0,1.19-.86c.16-.35.16-.89-.35-.89-1.73,0-3.45,0-5.18.12a1.3,1.3,0,0,0-1,.75c-.15.31-.13.73.3.76Z"/><path d="M240.6,119.52c-.1.41-.19.81-.25,1.23a5.37,5.37,0,0,0,0,1.2c0,.78,0,1.56,0,2.35,0,.4.44.41.72.28a1.21,1.21,0,0,0,.7-1q0-2.19,0-4.38c0-.43-.46-.44-.75-.3a1.25,1.25,0,0,0-.74,1c0,6.73.05,13.45.1,20.17,0,3.36,0,6.73,0,10.1s0,6.74,0,10.11c0,1.89,0,3.77-.09,5.66s-.11,3.84-.05,5.76c0,.43.48.45.79.3a1.31,1.31,0,0,0,.76-1,4.77,4.77,0,0,0-.15-.84c-.06-.28-.46-.2-.63-.12a1.16,1.16,0,0,0-.62.73,7.83,7.83,0,0,0-.15,1c0,.44.49.44.79.3a1.29,1.29,0,0,0,.76-1c.1-3.35-.08-6.71-.12-10s0-6.73,0-10.1q0-10.12.09-20.25c0-3.79,0-7.58,0-11.37,0-.43-.46-.44-.75-.3a1.25,1.25,0,0,0-.74,1c0,1.45,0,2.9,0,4.35,0,.4.44.41.72.28a1.21,1.21,0,0,0,.7-1c0-.78-.08-1.55,0-2.33a5,5,0,0,0,0-1.16,7.67,7.67,0,0,0-.26-1c-.06-.19-.32-.15-.46-.09a.91.91,0,0,0-.45.53Z"/><path d="M134.63,117.51l-.74,0c-.72,0-1.76,1.54-.76,1.6.62,0,1.25.05,1.87,0a1.41,1.41,0,0,0,1.15-.83c.15-.33.15-.86-.34-.86l-1.72,0a1.36,1.36,0,0,0-1.11.81c-.15.31-.15.84.33.83h.57a1.37,1.37,0,0,0,1.1-.8c.16-.32.15-.83-.32-.83h-.57a1.36,1.36,0,0,0-1.11.81c-.15.32-.14.82.33.82q20.69,0,41.37,0c13.77,0,27.53-.06,41.3-.16,3.85,0,7.7-.13,11.55,0s7.59.19,11.39.27a1.49,1.49,0,0,0,1.21-.88c.17-.36.16-.89-.35-.9l-1.32,0a1.53,1.53,0,0,0-1.24.91c-.18.36-.16.91.36.93a12,12,0,0,0,1.34,0,1.57,1.57,0,0,0,1.22-.88c.14-.31.17-1-.36-.91a7,7,0,0,1-.8.08,1.36,1.36,0,0,0-1.1.81c-.15.32-.15.82.32.82.23,0,.48.06.72.08.81.09,2-1.66.86-1.79a9.67,9.67,0,0,0-1.32,0,1.56,1.56,0,0,0-1.24.91c-.17.35-.17.94.36.93l1.34,0a1.51,1.51,0,0,0,1.21-.88c.16-.34.16-.91-.35-.9-3.5.07-7,.13-10.48.23s-6.94.07-10.41,0q-10.27-.09-20.54-.14c-13.73-.06-27.46,0-41.19-.06H134.09a1.36,1.36,0,0,0-1.11.81c-.15.32-.14.82.33.82h.57a1.37,1.37,0,0,0,1.1-.8c.16-.32.15-.83-.32-.83h-.57a1.38,1.38,0,0,0-1.11.81c-.15.32-.14.82.33.83l1.69,0a1.42,1.42,0,0,0,1.15-.83c.16-.34.15-.85-.34-.86-.64,0-1.28,0-1.92,0a1.35,1.35,0,0,0-1.08.79c-.14.29-.15.83.32.81l.77,0a1.3,1.3,0,0,0,1-.75c.15-.32.14-.75-.3-.77Z"/><path d="M150.59,129.17a26,26,0,0,0-.32,4.41c0,.4.43.41.7.28a1.16,1.16,0,0,0,.68-.94c0-.71,0-1.42,0-2.12s0-1.22,0-1.83c0-.36-.39-.37-.64-.25a1,1,0,0,0-.62.85c0,5.65,0,11.29,0,16.93a24.74,24.74,0,0,0,.18,4c.08.55.84,0,.89-.33a26,26,0,0,0,.19-3.74c0-1.38,0-2.77,0-4.16,0-2.89,0-5.79,0-8.69V129c0-.36-.39-.37-.64-.25a1.06,1.06,0,0,0-.62.85c0,.63,0,1.26-.05,1.88s0,1.43,0,2.13c0,.4.43.41.7.28a1.16,1.16,0,0,0,.68-.94c0-.71,0-1.42,0-2.12a12.07,12.07,0,0,0-.28-2c-.08-.39-.71.17-.74.36Z"/><path d="M151.65,128.07c-.21,0-.44-.09-.65-.15-.67-.19-1.46,1.14-.71,1.2.56,0,1.11.07,1.67.07a1.14,1.14,0,0,0,.93-.67c.13-.27.12-.69-.27-.69l-2.26,0a1.23,1.23,0,0,0-1,.71c-.13.29-.12.72.29.73,4.78.06,9.56,0,14.34,0h14.17l28.35,0,8,0h3.91a18.29,18.29,0,0,0,4.12-.18.91.91,0,0,0,.63-.63c.06-.26-.11-.43-.38-.37l-.4.08c-.21,0-.84.72-.4.83l.32.09c.47.12,1.23-.86.72-1a13.32,13.32,0,0,0-3.51-.19c-1.19,0-2.37,0-3.56,0l-7.16,0-14.16,0q-14.16,0-28.33,0c-5.32,0-10.63-.07-15.94,0a1.22,1.22,0,0,0-1,.71c-.13.28-.13.73.29.73l2.29,0a1.14,1.14,0,0,0,.93-.67c.12-.27.12-.7-.27-.69-.59,0-1.16,0-1.75.07a1,1,0,0,0-.85.68c-.11.33,0,.61.41.52l.8-.15c.23,0,.89-.77.42-.88Z"/><path d="M222.52,129.14l0,2.3c0,.31.34.32.55.22a.92.92,0,0,0,.54-.74c0-.9,0-1.79,0-2.69,0-.33-.37-.33-.59-.23a1,1,0,0,0-.57.79c-.09,3-.05,6,0,9s0,6,0,9v5c0,.34.38.35.62.24a1,1,0,0,0,.59-.82c0-.44,0-.87,0-1.31a5.57,5.57,0,0,0-.1-1.08c-.16-.51-1.13.24-1,.7,0,.05,0,.24,0,.11,0,.25.28.25.45.17a.74.74,0,0,0,.44-.6c0,.15,0-.1.05-.15.07-.26-.11-.43-.37-.37a.9.9,0,0,0-.62.61,6.66,6.66,0,0,0-.09,1.17c0,.45,0,.89,0,1.33s.38.35.62.24a1,1,0,0,0,.59-.82c0-6,0-12,0-17.94,0-1.67,0-3.33,0-5,0-.32-.36-.34-.59-.23a1,1,0,0,0-.57.79c0,.88,0,1.77,0,2.65,0,.31.34.32.55.22a.9.9,0,0,0,.54-.74l0-2.28c0-.3-.32-.31-.53-.21a.86.86,0,0,0-.51.71Z"/><path d="M139.63,195.15c-.34,5.88-.26,11.79-.26,17.68a33.32,33.32,0,0,0,.26,4.89c.09.63,1,0,1-.38a69.39,69.39,0,0,0,.28-9c0-2.92,0-5.85-.06-8.77,0-1.64-.1-3.27-.2-4.91,0-.29-.31-.31-.53-.21a.88.88,0,0,0-.51.71Z"/><path d="M139.77,215l0,2.4c0,.85-.17,1.69-.22,2.53-.09,1.6-.11,3.19-.11,4.79v12.06a18,18,0,0,0,.07,2.65c.14.85,1.47,0,1.37-.66a1.84,1.84,0,0,0-.16-.61c-.27-.53-.94.21-1,.5a3.36,3.36,0,0,0-.14.61c0,.34.13.58.5.5a1.2,1.2,0,0,0,.83-.83,18.4,18.4,0,0,0,.1-2.46V224.68c0-1.59,0-3.18-.08-4.76,0-.43,0-.85-.09-1.27s-.14-.86-.16-1.3c0-.9,0-1.81,0-2.72,0-.21-.24-.21-.39-.15a.68.68,0,0,0-.37.51Z"/><path d="M142,193.27a5.49,5.49,0,0,0-1.55-.27c-.55,0-1.1,0-1.65,0a1.3,1.3,0,0,0-1.06.77c-.15.31-.15.79.31.79h55c1.12,0,2.24,0,3.36,0a17.14,17.14,0,0,0,1.76-.08c.61-.06,1.22-.15,1.82-.22.33-.05.85-.79.32-.87l-1.39-.2a13.6,13.6,0,0,0-1.56-.09c-1,0-2,0-2.95,0H138.82a1.3,1.3,0,0,0-1.06.77c-.15.3-.15.8.31.79s1.11,0,1.67,0a9.09,9.09,0,0,0,1.8-.26,1,1,0,0,0,.58-.5c.07-.15.11-.43-.1-.49Z"/><path d="M200.14,193.82c-.2,3-.21,5.93-.22,8.91s0,5.83,0,8.74v22.41c0,.84,0,1.67,0,2.5s-.08,1.68,0,2.51,1.59,0,1.52-.73a7.56,7.56,0,0,1-.07-.82c0-.81-1.5,0-1.38.67v.08c.15.84,1.46,0,1.35-.65v-.1c-.15-.82-1.43,0-1.32.63l.05.31c.13.75,1.31,0,1.21-.59l0-.18s0-.33,0-.2c0-.3-.34-.31-.55-.21a.94.94,0,0,0-.54.73c0-.14,0,.16,0,.15l0,.15c0,.3.11.52.44.44a1,1,0,0,0,.73-.73l.06-.34c0-.33-.13-.57-.48-.48a1.13,1.13,0,0,0-.8.8l0,.11c-.05.34.13.58.49.49a1.17,1.17,0,0,0,.82-.82l0-.09c.06-.41-.19-.61-.59-.47a1.16,1.16,0,0,0-.77,1c0,.29,0,.59-.07.88-.05.44.5.42.76.3a1.33,1.33,0,0,0,.76-1c.05-.74,0-1.5,0-2.24s0-1.42,0-2.12V220.62c0-5.85,0-11.7,0-17.54,0-3.26,0-6.51-.23-9.76,0-.29-.3-.31-.52-.2a.87.87,0,0,0-.51.7Z"/><path d="M213.57,195.54c-.07.72-.12,1.43-.13,2.15s0,1.39,0,2.08c0,.38.41.39.67.26a1.11,1.11,0,0,0,.66-.9c0-1.08,0-2.16,0-3.23,0-.39-.43-.4-.69-.28a1.16,1.16,0,0,0-.68.93V197c0,.39.42.4.69.27a1.16,1.16,0,0,0,.68-.93v-1.55c0-.39-.43-.4-.69-.27a1.14,1.14,0,0,0-.68.92c0,2.93.09,5.85.1,8.78s0,5.84,0,8.77c0,5.86.05,11.72,0,17.58,0,3.27-.13,6.54-.08,9.81,0,.37.4.38.65.26a1.09,1.09,0,0,0,.64-.88,10.87,10.87,0,0,0-.05-1.28c0-.36-.11-.72-.17-1.08-.09-.52-.79,0-.84.31a19.9,19.9,0,0,0-.23,2.67c0,.37.4.38.65.26a1.09,1.09,0,0,0,.64-.88c0-2.9,0-5.8-.07-8.7s0-5.82,0-8.72c0-5.88,0-11.75,0-17.63,0-3.3.1-6.61.11-9.92,0-.39-.43-.4-.69-.27a1.14,1.14,0,0,0-.68.92V197c0,.39.42.4.69.27a1.14,1.14,0,0,0,.68-.93v-.41c0-.39-.43-.4-.69-.28a1.16,1.16,0,0,0-.68.93c0,1.08,0,2.15,0,3.22,0,.38.41.39.67.26a1.11,1.11,0,0,0,.66-.9c0-.7,0-1.4,0-2.1s-.06-1.34-.13-2c0-.31-.32-.33-.56-.22a1,1,0,0,0-.55.75Z"/><path d="M215.82,193.24a10.8,10.8,0,0,0-1.88-.28,1.33,1.33,0,0,0-1.08.79c-.15.31-.15.8.31.8l2.46,0a1.36,1.36,0,0,0,1.11-.8c.15-.32.14-.82-.33-.83h-3a1.39,1.39,0,0,0-1.12.82c-.15.32-.15.83.33.83H221c2.81,0,5.61-.12,8.41-.14h2.35a8,8,0,0,0,2.49-.08,1.15,1.15,0,0,0,.69-.59c.1-.21.13-.5-.11-.61a4.79,4.79,0,0,0-2.1-.09c-.7,0-1.41,0-2.11,0-1.39,0-2.79,0-4.18-.06s-2.76-.08-4.15-.08h-8.93a1.39,1.39,0,0,0-1.12.82c-.15.32-.15.83.33.83h3a1.38,1.38,0,0,0,1.11-.8c.14-.32.14-.83-.33-.83l-2.47,0a1.33,1.33,0,0,0-1.08.79c-.15.31-.15.81.31.8a12.9,12.9,0,0,0,2.15-.27,1,1,0,0,0,.61-.51c.06-.15.13-.49-.11-.53Z"/><path d="M234.28,194.39c-.09,1.74-.16,3.48-.18,5.23s0,3.53,0,5.29c0,.4.44.41.72.28a1.2,1.2,0,0,0,.69-1c0-3.34,0-6.68-.06-10,0-.36-.4-.37-.65-.25a1.07,1.07,0,0,0-.63.87c0,5.92,0,11.85,0,17.77s0,11.85,0,17.77c0,3.33.08,6.66,0,10,0,.38.42.38.67.26a1.11,1.11,0,0,0,.64-.88c0-.37,0-.74,0-1.11a1.63,1.63,0,0,0,0-.49c-.06-.16-.14-.32-.21-.47-.18-.44-.76.18-.83.4a4.57,4.57,0,0,0-.25,1.21c0,.36,0,.72,0,1.08s.4.39.67.26a1.08,1.08,0,0,0,.64-.88c-.07-3,0-5.94,0-8.92l0-8.86c0-5.92,0-11.83,0-17.75,0-3.33,0-6.66,0-10,0-.36-.4-.37-.65-.25a1.07,1.07,0,0,0-.63.87c0,3.36-.07,6.72-.07,10.08,0,.4.44.41.72.28a1.2,1.2,0,0,0,.69-1c0-1.76,0-3.52,0-5.28s-.09-3.37-.18-5.06c0-.29-.31-.31-.53-.21a.92.92,0,0,0-.51.71Z"/><path d="M47.34,163.71c-.08,1.15-.15,2.3-.17,3.46s0,2.31,0,3.46c0,2.25,0,4.52.13,6.77,0,.38.41.4.69.27a1.16,1.16,0,0,0,.68-.93c-.06-1-.18-2.1-.14-3.14s.05-2.18.06-3.27c0-2.16,0-4.31,0-6.47,0-.36-.4-.37-.64-.25a1.08,1.08,0,0,0-.63.87c0,9.92,0,19.85.06,29.78s.13,19.91,0,29.87q-.06,4.22-.09,8.45l0,4.14c0,.71,0,1.42,0,2.13a14.76,14.76,0,0,0,.06,1.88c.13.82,1.38-.1,1.25-.75a3.64,3.64,0,0,1-.15-.73c0-.27-.29-.27-.47-.19a.79.79,0,0,0-.46.63,6.47,6.47,0,0,1-.15.88c-.15.9,1.15.3,1.23-.3s.05-1.09.07-1.62,0-1.34,0-2l0-3.65c0-2.48,0-5-.07-7.45-.07-5-.08-10-.07-15q0-14.94.08-29.9,0-8.4,0-16.81c0-.36-.39-.37-.64-.25a1.08,1.08,0,0,0-.63.87c0,2.14,0,4.29,0,6.43,0,1.05,0,2.09.06,3.14s-.08,2.24-.14,3.35c0,.39.44.39.69.27a1.19,1.19,0,0,0,.68-.93c.11-2.29.14-4.6.13-6.89,0-1.13,0-2.25,0-3.37s-.08-2.24-.17-3.37c0-.34-.37-.37-.63-.25a1.09,1.09,0,0,0-.62.85Z"/><path d="M49.07,191.14l-.37,0a1.23,1.23,0,0,0-1,.73c-.15.31-.13.73.29.75s1.13,0,1.7,0a1.28,1.28,0,0,0,1-.75c.14-.29.13-.77-.3-.77H48.51a1.25,1.25,0,0,0-1,.74c-.14.3-.14.76.29.76H65.13c5.77,0,11.55,0,17.33,0l4.82,0c1.63,0,3.25,0,4.87.12a1.35,1.35,0,0,0,1.1-.81c.17-.35.14-.79-.32-.82l-1.27-.12a1.52,1.52,0,0,0-1.26.92c-.14.33-.19,1,.37.94l1.38-.11a1.4,1.4,0,0,0,1.1-.81c.14-.29.16-.86-.32-.82-2.89.21-5.81.11-8.71.08s-5.77,0-8.65,0H48.51a1.25,1.25,0,0,0-1,.74c-.14.3-.14.76.29.76h1.9a1.3,1.3,0,0,0,1-.75c.14-.3.13-.76-.3-.77s-1.15,0-1.72,0a1.25,1.25,0,0,0-1,.73c-.13.28-.14.77.29.75h.39a1.24,1.24,0,0,0,1-.72c.14-.3.12-.72-.29-.73Z"/><path d="M50.31,214.46c-.42-.05-.84-.12-1.26-.13a1.13,1.13,0,0,0-.92.67c-.12.26-.12.67.27.68l2.63,0a1.23,1.23,0,0,0,1-.71c.13-.28.13-.72-.29-.72l-2.64,0a1.24,1.24,0,0,0-1,.72c-.14.29-.13.74.29.75,2.86,0,5.71,0,8.57,0s5.76-.07,8.64-.07h8.61c2.86,0,5.72,0,8.58,0l4.69.13c1.63,0,3.25,0,4.88,0a1.34,1.34,0,0,0,1.09-.8c.15-.3.15-.82-.31-.81l-.77,0a1.32,1.32,0,0,0-1.07.77c-.15.32-.14.79.31.8l.75,0a1.34,1.34,0,0,0,1.09-.8c.16-.32.15-.8-.31-.81-1.44,0-2.87-.07-4.3,0s-2.88.09-4.32.12c-2.87.07-5.75.06-8.62.06H67.27c-2.86,0-5.71-.07-8.57-.08-3.21,0-6.41,0-9.62,0a1.24,1.24,0,0,0-1,.72c-.13.29-.13.75.29.75l2.66,0a1.2,1.2,0,0,0,1-.71c.13-.28.13-.73-.29-.72-.89,0-1.78,0-2.67,0a1.15,1.15,0,0,0-.92.67c-.12.25-.12.68.27.68s.93-.09,1.39-.13a.94.94,0,0,0,.74-.54c.11-.24.09-.52-.22-.55Z"/><path d="M91.06,192.5c-.25,3.63-.29,7.26-.19,10.9,0,.41.44.42.73.29a1.23,1.23,0,0,0,.71-1c0-.76,0-1.51-.08-2.26,0-.36,0-.71-.07-1.07s0-.79-.29-1-.47.11-.57.28a2.87,2.87,0,0,0-.27,1.23c0,.38,0,.76-.08,1.14,0,.78-.06,1.56-.08,2.34,0,.41.46.42.73.29a1.23,1.23,0,0,0,.71-1A103.6,103.6,0,0,0,92.12,192c0-.3-.31-.32-.54-.21a.91.91,0,0,0-.52.72Z"/><path d="M92.12,197.2c0-.5.09-1,.16-1.48.12-.74-.93-.23-1,.25a31.17,31.17,0,0,0-.18,3.61c0,1.18,0,2.36,0,3.53,0,2.37-.06,4.73,0,7.09,0,.66,0,1.32,0,2s-.07,1.39,0,2.07c0,.46.49.48.82.33s.86-.66.8-1.1a1.62,1.62,0,0,0-.33-.85c-.26-.36-.87.24-1,.47a3.86,3.86,0,0,0-.32,1.15c0,.47.54.46.82.33a1.38,1.38,0,0,0,.8-1.1c0-1.17-.07-2.34-.06-3.51s0-2.34,0-3.52c0-2.3,0-4.61-.07-6.91,0-.65,0-1.3,0-1.95a16.35,16.35,0,0,0-.13-2c0-.33-.35-.31-.59-.17a.78.78,0,0,0-.43.77c.08.45.12.88.16,1.33,0,.19.2.2.34.13a.58.58,0,0,0,.34-.46Z"/><path d="M55.79,144.9c3.53,3.58,7.09,7.12,10.65,10.67,1,1,2,2,3,3,0,0,.16-.07.11-.12-3.5-3.6-7.06-7.15-10.62-10.7l-3-3c-.07-.06-.23.1-.16.16Z"/><path d="M63.88,140.35q5.43,5.44,10.88,10.89l3,3s.17-.07.12-.12c-3.59-3.66-7.22-7.28-10.86-10.9l-3-3c-.06-.06-.22.1-.16.16Z"/><path d="M71.47,133.77c4.06,4.07,8.11,8.14,12.2,12.19l3.5,3.47s.16-.07.11-.11q-6.07-6.12-12.16-12.22l-3.49-3.49c-.07-.06-.23.1-.16.16Z"/><path d="M82.59,123.16q6.89,6.9,13.8,13.79l3.92,3.89c.06.06.19-.07.13-.13-4.56-4.63-9.17-9.22-13.77-13.82L82.76,123c-.07-.07-.24.11-.17.18Z"/><path d="M95.24,113.55c5.71,5.71,11.4,11.45,17.14,17.14l4.88,4.83s.17-.07.12-.11q-8.52-8.62-17.11-17.18l-4.86-4.85c-.07-.07-.24.1-.17.17Z"/><path d="M103.83,98.63c2.87,2.86,5.76,5.71,8.64,8.56,0,0,.14-.06.1-.1-2.85-2.88-5.7-5.77-8.56-8.64-.07-.07-.25.11-.18.18Z"/><path d="M120.79,85.47l7.85,7.82c.05,0,.18-.07.13-.12-2.61-2.62-5.21-5.25-7.83-7.86-.06-.06-.22.09-.15.16Z"/><path d="M131.4,82.69l13.8,13.8,3.92,3.89c.06.06.2-.08.14-.14q-6.87-6.93-13.78-13.81l-3.91-3.9c-.07-.07-.23.09-.17.16Z"/><path d="M159,81.93q6.38,6.39,12.75,12.78,1.84,1.83,3.7,3.65c.06.06.21-.08.15-.15-4.2-4.31-8.49-8.52-12.75-12.77l-3.69-3.67c-.06-.07-.22.09-.16.16Z"/><path d="M180.73,82.43q6.2,6.21,12.4,12.42c1.17,1.17,2.36,2.33,3.55,3.5,0,.05.16-.07.12-.12-4.1-4.18-8.25-8.3-12.39-12.44l-3.53-3.51c-.06-.07-.22.09-.15.15Z"/><path d="M208.79,80.93c5.71,5.71,11.41,11.44,17.15,17.13l4.88,4.84c.05,0,.17-.07.12-.12q-8.55-8.59-17.12-17.17L209,80.75c-.07-.07-.24.1-.17.18Z"/><path d="M236.61,80.67,252.93,97q8.19,8.19,16.37,16.37l9.29,9.29c.07.07.25-.11.18-.18q-8.25-8.26-16.51-16.51L245.94,89.65l-9.16-9.15c-.07-.07-.24.1-.17.17Z"/><path d="M284.42,117.58q6.51,6.54,13,13.07t13.14,13.13l7.5,7.43c.05,0,.17-.07.12-.12q-6.57-6.66-13.17-13.27t-13.1-13.07l-7.35-7.31c-.06-.06-.21.08-.15.14Z"/><path d="M283.66,131l16.55,16.59c1.56,1.56,3.13,3.1,4.71,4.64.05.05.17-.07.12-.13-5.46-5.58-11-11.07-16.55-16.59l-4.68-4.66c-.06-.06-.21.09-.15.15Z"/><path d="M267.71,135.3l8.87,8.87q4.43,4.44,8.87,8.87l5.05,5c.05.05.18-.08.13-.13q-4.41-4.46-8.84-8.89l-8.87-8.87-5-5c-.07-.07-.25.11-.18.18Z"/><path d="M261.4,144.15c2.78,2.78,5.52,5.61,8.36,8.33.05.05.19-.08.13-.14-2.72-2.84-5.54-5.58-8.33-8.36-.06-.07-.23.1-.16.17Z"/><path d="M92.47,141.61q6,6,12,12.06c1.13,1.12,2.25,2.26,3.41,3.36.06.05.19-.08.13-.14-1.94-2-4-4-6-6l-6-6-3.4-3.38c-.06-.06-.2.09-.14.15Z"/><path d="M109.15,142.12q2,2,4.06,4c.06.05.19-.08.14-.14l-4-4.07c-.07-.06-.24.1-.17.17Z"/><path d="M144.72,109.08q-5-5-9.9-9.92c-.91-.91-1.82-1.82-2.77-2.7-.05,0-.16.06-.11.11,1.54,1.68,3.19,3.27,4.8,4.88l4.94,4.93,2.88,2.87c.06.06.23-.1.16-.17Z"/><path d="M171,109.08c-3.2-3.21-6.4-6.42-9.65-9.57,0,0-.13,0-.1.09,3.16,3.25,6.36,6.45,9.57,9.65.07.07.25-.1.18-.17Z"/><path d="M197.32,108.33c-3.58-3.61-7.16-7.22-10.77-10.79Q185,96,183.39,94.43c0-.05-.17.07-.12.13,3.59,3.68,7.24,7.31,10.88,10.93l3,3c.07.07.23-.09.16-.15Z"/><path d="M226.91,110.1q-8.52-8.62-17.12-17.17c-1.62-1.62-3.2-3.29-4.9-4.82,0,0-.17.07-.12.12,1.36,1.52,2.85,2.93,4.29,4.37l4.24,4.25c2.86,2.85,5.71,5.71,8.58,8.56l4.87,4.84c.07.07.22-.09.16-.15Z"/><path d="M250.18,109.85c-3.42-3.44-6.82-6.91-10.28-10.31-1-1-1.92-1.9-2.89-2.83,0,0-.17.07-.12.12,3.36,3.49,6.82,6.89,10.26,10.31L250,110c.07.06.22-.09.16-.15Z"/><path d="M197.41,87.75c3.54,3.54,7.07,7.09,10.64,10.61,0,0,.19-.08.13-.14-3.51-3.57-7.06-7.1-10.6-10.64-.07-.07-.24.1-.17.17Z"/></g></svg>