<svg xmlns="http://www.w3.org/2000/svg" viewBox="0 0 430 294"><g style="isolation:isolate"><path d="M394.36,245.81c-5.11-2.85-11.5-1.68-17.21-1.67h-.52c1-1.84,1.06-3.65-1.17-3.57-13.34.45-26.67-.55-40-.44-9.21.07-18.45,1.46-27.61,2.91-9.52-.64-19.27,0-28.74,0h-74.4c-10.83,0-22.59-1.25-33.4.46-14.57-.9-29.15-1.7-43.75-1.95-24.42-.43-49.1,1.68-73.5.7a10.47,10.47,0,0,0-3.17-2.45c-1.89-.87-4.95,1.77-5.29,4a1.82,1.82,0,0,0-.18.65c-1.37.14-2.75.28-4.11.47-2.28.31-5.95,5.45-2.22,6,2.13.34,4.28.57,6.45.76l.2.08c48.43,12.82,99.63,9.06,149.22,8.67,49.87-.38,99.83,5.12,149.74,4.2,7.18-.14,14.61-1.09,20.95-4.61,2.13-1.18,7.35-5.06,6.92-8.43,6.71.14,13.5.62,19.84-1.69C393.6,249.45,396.41,247,394.36,245.81Z" fill="#c4c4c4"/><path d="M265.19,116.42c.08-10,4.71-21.26-8.87-21.74a5.45,5.45,0,0,0-3.66,2c-8.45-.93-17.06.36-25.56-.12-13-.72-26-.93-39-1.11-24.68-.32-49.34-1.25-74-1.61-11.48-.17-23,.68-34.41,1.34-5.7.33-11.39.73-17.1.77-4.94,0-10.35-1.33-15.19-.74-4.34.53-6.13,5.14-6.84,8.85-.68,3.55.42,7.57.65,11.14.3,4.85-.1,9.87-.22,14.79,0,.86-.06,1.73,0,2.6a2.41,2.41,0,0,0,.1.7c.07.54.5,1,1.46,1.11,19.95,3.11,39.81,4,59.68,8.32A573.61,573.61,0,0,1,157.8,157.8c16.82,5.47,33.64,13.13,51.1,16.17,17.67,3.07,36-1.6,53.81-.25,2.52.19,5.37-2.93,5.34-5.34C267.88,151,265,133.74,265.19,116.42Z" fill="#c4c4c4"/><path d="M242,140.2c-1.74-7.14.14-14.77-.63-22.08.47-1.22.41-2.34-.51-2.89-.36-.81-1.16-.81-2.06-.41-11.74-.81-23.36,0-35.1-1.56-15.17-2-30.84,1.44-46.11.94-29.1-1-58.45.23-87.57.42a1.29,1.29,0,0,0-.4-.16,3.06,3.06,0,0,0-1.45.18H67c-1.85,0-4.59,3.31-3.76,4.69a2.38,2.38,0,0,0-.12.68q0,6.69,0,13.38c0,3.17-.88,8,1.16,10.65,0,.3,0,.6,0,.89,0,.8.32,1.19.81,1.28a.6.6,0,0,0,.19,0h0a1.09,1.09,0,0,0,.81,1,2.17,2.17,0,0,0,1.68.23c27.51,2.59,56.12.79,83.73.81l82.25.06a5.38,5.38,0,0,0,3.48-2C239.69,145.64,242.59,142.77,242,140.2Z" fill="#515151"/><path d="M357.23,122.56c2.16-5.82,3.82-13.39,2.1-19.54-2.58-9.21-9.15-9.08-16.23-13.67-3.63-2.35-2.8-8.71-5.11-12-2.48-3.5-5.53-4.7-9.44-6.25-9.36-3.71-3.53-14.65-7.38-21.91-2.39-4.52-8.54-6.8-12.95-3.78a23.44,23.44,0,0,0-5.13,5c-3.29,4.13-6.84-7.21-7.41-8.68a20,20,0,0,0-14.94-12.31c-5-1-9.57,2.39-12,6.4-1.29,2.1-1.52,4.37-1.71,6.77-.17,2.1.16,4.32.2,6.42.07,3.63-3.3,1.24-4.53,1.37-10.59,1.11-9.63,11.19-8,19.65-2.53,2.2-4.19,6-.55,6.56.63.09,1.27.15,1.91.2.55,1.92,2.51,1.43,4.09.15,4,0,8.1-.38,12.13-.29,2.89.08,7.26.27,8.58,3.38,1.86,4.39-1.76,10.93-6.27,12.64a3.65,3.65,0,0,0-1.4,0,7.56,7.56,0,0,0-2.08.52c-2,.65-6.46,5.57-4,7-1.71,6.27-.87,14.64-.93,19.16-.14,12.49-.24,25.3,1,37.75a1.85,1.85,0,0,0,1.89,1.9,27,27,0,0,0,3.31-.28c11.19,1.36,22.66,1.06,33.91,1.3,11.74.24,24.4,1.49,36-.81,7.94.63,16.44-.92,16.44-9.48C358.6,140,353.61,132.37,357.23,122.56Z" fill="#5ba354"/><path d="M67.42,187.45c-3,.45-4.74,2.34-5.85,4.92-1.16-4-3.59-6.36-8.7-3.64-3.58,1.9-5.37,5.44-6.28,9.4-.08-4.1-.94-9.91-5-8.9-8.3,2.07-6.9,15.88-6.47,21.84.35,4.73,1.21,17.39,8.89,15.47a7.65,7.65,0,0,0,3.13-1.61c1.79,3.84,4.7,6.52,9.21,4.36a10.49,10.49,0,0,0,5.53-7.13c2.3,1.3,5.15,1.29,8.36-1.09,6-4.42,5-13.7,5.18-20.21C75.64,195.12,75.11,186.31,67.42,187.45Z" fill="#5ba354"/><path d="M280.14,79.19c-.18-2.56-2.5-2-4.22-1.08a31.28,31.28,0,0,0-5.2-.43c-3.59-4-8.68-4.14-15.51-4.2-13.92-.11-27.69,1-41.56,2-27.2,1.9-55.29-3.11-82.23,1.44-27.3-.84-54.9-3-81.93-.75a4.09,4.09,0,0,0-2.22,1.2c-.84,0-1.67,0-2.5,0-4.94-.24-9.61-1.61-14.59-1.54-2.15,0-3.87,2.13-4.12,4.11l-.12,1a1.32,1.32,0,0,0,.83,1.29l.24.13a2.56,2.56,0,0,0,2.48-.55c.61.12,1.22.2,1.83.31a6.73,6.73,0,0,0-.66.77c-2.18,0-5.5,4-3.64,5.34,6.25,4.36,8.14,7.16,16.26,7.43,10.27.33,20.51-.49,30.78-.19,24.13.72,48.27.6,72.41,1.3,24.87.71,49.77.34,74.65.25,11.47,0,22.88-.42,34.34-.91,8.58-.36,14-.49,21.09-5.51a5.73,5.73,0,0,0,1.82-2.17,5.32,5.32,0,0,0,2-3.46A40.9,40.9,0,0,0,280.14,79.19ZM55.85,84.3c-3.37.12-6.76.11-10.25.22a5.56,5.56,0,0,0-2.66,1.25A14.08,14.08,0,0,1,40,84a5.86,5.86,0,0,0-.62-.7C44.87,83.9,50.35,84.19,55.85,84.3Zm26.6,4.08c6-.24,12.08-.27,18.14-.2l-.18.25q-8-.08-16.07-.06ZM214,89.66l-4.58,0a10.55,10.55,0,0,0,.72-.78,2.65,2.65,0,0,0,1.27.39l4.08.37Z" fill="#515151"/><path d="M203.93,175.37c-.07-1.15-.71-1.6-1.77-1.77a29.71,29.71,0,0,0-6.58-.62,5,5,0,0,0-3.42,2.1c-7.7-1.68-17.5,0-24.68.25-11.46.34-22.83-.65-34.25-1.33-11.26-.66-22.55,0-33.82.09-5.8,0-11.3-.79-16.56,1.25-.93-2.51-5.57,1-5.51,3.33.13,6,1.19,12,.91,18-.24,5.21-1.08,10.78-.06,15.95.66,3.34,1.89,4.24,5.23,4.45,7.15.45,15.22-1,22.35-1.49,16.7-1.18,38.53-4.33,52.93,5.82,6.19,4.37,11.61,9.66,17.9,13.94,6.9,4.69,12.44,4.56,20.46,6,2.66.48,5.39-2.1,5.53-4.72q.78-14.56.59-29.15C203,196.75,204.56,186.15,203.93,175.37Z" fill="#515151"/><path d="M171.72,140.62c0-3.54,0-7.08,0-10.62a28.14,28.14,0,0,0,0-4.11c0-1.48,0-3,0-4.45,0-1.07-.42-1.59-1.08-1.72a4.17,4.17,0,0,0-2.8.81c-6.48-3.72-17.19-1.54-24.55-1.53-10.69,0-21.64-.62-32.28.45-1.47.15-3.91,2.47-4.15,4.08a7.23,7.23,0,0,0-.51.84,6,6,0,0,0-.32.89s0,0,0,0a3.64,3.64,0,0,0,.25,2.78c-1.52,5.34-.3,12-.27,17.17,0,1,.4,1.47,1,1.59a3.68,3.68,0,0,0,2.49-.72s.08,0,.14,0c7.58,2.06,16.09,1.33,23.86,1.17,5.25-.1,10.49-.13,15.73-.12,4.46,0,9.65.94,13.9-.52a7.4,7.4,0,0,0,1.91-1,1.25,1.25,0,0,0,.77.49,2,2,0,0,0,.64,0c0,.17,0,.33.06.49.47,2.74,4,.39,4.56-1.13C171.65,144.19,172.51,142,171.72,140.62Z" fill="#fff" style="mix-blend-mode:soft-light"/><path d="M240.7,115.68c-.14-.67-.51-1-1-1a1.74,1.74,0,0,0-1.54-.81c-4.26.12-8.18.76-12.44.31a10.36,10.36,0,0,0-5.16.69c-1.54.13-3.94,2.52-4.13,3.56-.84,4.51-.54,9.24-.53,13.8,0,2.81-1,7.24.71,9.69.06,1.36.14,2.72.3,4.09.24,2.12,2.18,1.2,3.49-.18a2,2,0,0,0,1.08.42c5.05.58,9.71,1.1,14.81.56a5.51,5.51,0,0,0,4.86-4.86c.12-2,.35-3.95-.31-5.54C241.65,129.55,242.06,122.22,240.7,115.68Z" fill="#fff" style="mix-blend-mode:soft-light"/><path d="M86.39,127.11c.2-3.74,1-9.12-1.64-12.16-.78-.89-1.83-.37-2.67.49l0-.11c-.58-2-3.56.83-3.79,1.83-1,4.42-.81,8.88-.82,13.38,0,4.84-.55,9.85.08,14.65.11.81.53,1.48,1.45,1.45l.58,0c0,.23,0,.47,0,.69.13,3.91,6.43-.16,6.31-3,0-.25,0-.5,0-.75a2.75,2.75,0,0,0,.15-1c0-.32-.05-.65-.07-1a1.79,1.79,0,0,0-.12-.53C85.82,136.4,86.14,131.74,86.39,127.11Z" fill="#fff" style="mix-blend-mode:soft-light"/><path d="M163.51,182.71a25.18,25.18,0,0,0,0-7.94c-.1-.73-.46-1.3-1.29-1.29a7,7,0,0,0-4,1.38c-.8-2.15-4.83,1.16-5,3.08-1.06,15.63-2.77,33.08.58,48.51.35,1.62,2.4.23,3.4-1a62.41,62.41,0,0,0,1.23,7.19c.46,2,3.51-.81,3.7-1.79,1.67-8.63,1.7-17.36,1.75-26.13C163.94,197.61,164.39,190,163.51,182.71Z" fill="#fff" style="mix-blend-mode:soft-light"/><path d="M203,174.87c-.79-1.92-2.82-1-4.27.56a4.28,4.28,0,0,0-1.77-.88c-3.71-.88-8.32-.13-12.08.07-6.61.34-13.18.46-19.79.45-26.32,0-52.59-.86-78.89.4a3.55,3.55,0,0,0-1.57.54,3.83,3.83,0,0,0-1,.36A12.77,12.77,0,0,0,83,174c-.91-2.3-4,.92-4.38,2.11-1.61,6,.18,12.58-.45,18.72a1.62,1.62,0,0,0,.22,1.11,1.14,1.14,0,0,0,1,.77c9,2,19,.84,28.25.84h66.46c8.71,0,18.5,1.46,26.76-1.64,1.2-.44,2.94-2.72,1.61-3.77a5.92,5.92,0,0,0,1.54-2.88C204.21,184.67,204.84,179.23,203,174.87Z" fill="#c4c4c4" style="mix-blend-mode:multiply"/><path d="M359,185.36c-7.55-3.88-19.74-1.51-28.12-1.51l-35.23,0c-22.52,0-45.15-.14-67.66.93-2.31.11-6.23,5.35-2.65,5.53,22.2,1.11,44.54.95,66.76.93l31.72,0c10.54,0,23.07,2,33.09-1.5C358.19,189.26,361.25,186.49,359,185.36Z" fill="#c4c4c4" style="mix-blend-mode:multiply"/><path d="M247.54,128.54c-.65-5.17-1.23-11.78-.35-16.9.34-2-.94-2.18-2.25-1.7a1.51,1.51,0,0,0-.18-.09c-10.38-3.6-23.95-.33-34.79-.26-16.2.1-32.37.58-48.58.46-32.36-.24-64.65-1.26-97-.7a3.71,3.71,0,0,0-1.74.68c-1.24-2.72-5.08,1.29-5.5,2.77-1.68,5.88-.68,12.68-.51,18.73a88.42,88.42,0,0,0,1.16,13.88c.18,1,.7,1.32,1.37,1.3a1.16,1.16,0,0,0,.14.24c1,1,2.55.17,3.48-.42a8.94,8.94,0,0,0,3-3.77c.56-1.22.51-2.76-.93-3,0-3.91-.7-7.82-.86-11.71-.13-3.18.14-6.88,0-10.44l.25,0a3.76,3.76,0,0,0,2.31-.83q42,.68,84,1.21,22.76.33,45.5-.2c7.73-.17,15.46-.17,23.19-.39,6.68-.19,13.48-2.11,20,.15a2.75,2.75,0,0,0,1.25.09,54.59,54.59,0,0,0-.28,9.2,73.65,73.65,0,0,0,.53,8.13c.4,3.21-.21,6.57.33,9.66.3,1.69,3,.73,3.76.1C249.81,140.5,248.26,134.36,247.54,128.54Z" fill="#c4c4c4" style="mix-blend-mode:multiply"/><path d="M279.65,82.62c-6.27,0-12.25,2-18.51,1.89-6.62-.08-13.16-1.27-19.72,0a3.43,3.43,0,0,0-1.18.63c-6.69-1.06-14.1-1.74-20.27-.35a4.05,4.05,0,0,0-1.26.6,2.61,2.61,0,0,0-1.31-.53A145.42,145.42,0,0,0,194,83.75c-6.5-.51-13-.94-19.54-1.08a375.88,375.88,0,0,0-44.5,2.17c-3.49,0-7,0-10.48,0-16.36-.07-32.67-1.48-49-1.55-7.76,0-15.43,1.16-23.15,1.65-3.94.24-7.23,0-10.64.79l-1.22-1a1.37,1.37,0,0,0-.13-.31c-.75-1.32-2.09-1.13-3.28-.34-2.25,1-4.33,4-2.72,5.54a1.82,1.82,0,0,1,.5.63,1.43,1.43,0,0,0,.62.54c.11.37.47.63,1.17.66h.15c9.92,6.63,25,5.09,36.38,3.94a165.23,165.23,0,0,1,20.24-1.23,40.35,40.35,0,0,0,6.43-.29,201,201,0,0,0,27.85-.46c0,.62.29,1,1.21,1,7.72-.22,15.41,1.84,23.21,1.76,9.32-.09,18.56-1.34,27.89-1.36,18.27,0,37.53,2,55.62-1h0c8.27,0,16.55.12,24.47,1.42a3.68,3.68,0,0,0,2.58-.91c.68,0,1.35,0,2,0,3.34,0,6,1.08,9.29,0a4.61,4.61,0,0,0,1.29-.79c-1.3,3.36,3.9,2.75,5.42.28a45.12,45.12,0,0,1,4.14-6.1C280.79,86.56,282.83,82.65,279.65,82.62Z" fill="#c4c4c4" style="mix-blend-mode:multiply"/><path d="M204.16,177.54c-.07,0-.17.15-.08.15S204.25,177.54,204.16,177.54Z" fill="#9b805a"/><path d="M385.61,160.29c-.51-.6-1.49-.4-2.15-.12a5.18,5.18,0,0,0-1.7.39c-.3.12-.56.26-.83.39a8.85,8.85,0,0,0-1.86-.33c-4.56-.34-9.05.44-13.6.58h-1.06a.94.94,0,0,0-.83-.83c-14.15-3.5-30.13-1.64-44.61-1.62-8.06,0-16.13,0-24.19.12-7.39.08-14.95-.68-22,1.68a2.45,2.45,0,0,0-.54.27c-.09-.21-.18-.41-.29-.61-1-1.71-3.51.21-4,1.46a21.37,21.37,0,0,0-1.26,6.81c-.05,1.39-.17,2.8-.14,4.2l-3.14.06c-13,.08-25.9.06-38.84.44a2.59,2.59,0,0,0-.77.1c-5,.26-9.39.42-14.29,1.14-.05-.18-.07-.37-.11-.55-.62-2.46-4.35,1-4.59,2.21,0,.1,0,.21,0,.32a2.35,2.35,0,0,0-.51,2.22c0,.08.08.14.11.22-1.39,9.45-.43,19.41-.31,28.9.11,9.11-2.34,21.28.62,30a3.1,3.1,0,0,0,.07,2,1.7,1.7,0,0,0,1.64,1,3.38,3.38,0,0,0,2.09-.61c1.43,1.2,4.73.83,6,.8a14.28,14.28,0,0,0,2-.21c.05.19.08.38.14.58.63,2,2.79.89,4.22-.24l0,.06c.21,1.1,1.8.78,2.45.47a4.31,4.31,0,0,0,2.48-3.41,3.5,3.5,0,0,0-.23-1.43c1.7-8.59.89-17.68.88-26.4,0-8.41,1.36-18.43-.65-26.84,19.82.84,40.14-.51,59.76-.39,23.34.13,47.68,2.05,71,0,3.19.68,6.89-.32,10-.93a3.77,3.77,0,0,0,1.26-.6,22,22,0,0,0,5.76-3.46A33.26,33.26,0,0,0,382,171.6a12.54,12.54,0,0,0,1.08-1.54,4.49,4.49,0,0,0,.82-.72,9.54,9.54,0,0,0,2.52-4.87A4.81,4.81,0,0,0,385.61,160.29Z" fill="#9b805a"/><path d="M36.5,245.1c0-2.25-4.61-1.07-5.81-1-.09,0-.23.22-.1.21,48.09-3.06,96.28-2.5,144.43-2.5,48.33,0,96.65-.38,145-.14,26.26.13,52.77,1.19,78.89-2.14.12,0,.25-.28.06-.26-24.4,3.12-49.15,2.3-73.69,2.16q-37.15-.21-74.31-.05c-24.89.06-49.79.17-74.69.17s-49.62-.17-74.42.1c-12.41.13-24.83.37-37.24.79q-9.3.32-18.6.77c-3,.15-6.07.32-9.1.5q-2.19.12-4.38.27c-.26,0-1.77.12-.95.25a11.88,11.88,0,0,0,2.05-.16c1-.05,2.66-.32,2.7,1.08,0,.11.19,0,.19-.09Z"/><path d="M203.18,159.78c24,1.49,48.08.19,72.12.3,23.88.11,47.75,1,71.63.81q20.11-.15,40.21-.76c.12,0,.3-.28.13-.28-23.88.72-47.74.94-71.62.5-11.95-.22-23.89-.41-35.84-.48s-23.92.12-35.89.28c-13.55.19-27.12.21-40.66-.56-.08,0-.2.18-.08.19Z"/><path d="M203.14,159.42c0,10.47,0,20.94,0,31.41v31.29c0,5.89-.05,11.77,0,17.65,0,.09.14,0,.14-.06.08-5.26,0-10.52,0-15.78V177c0-5.89,0-11.77,0-17.66,0-.1-.16,0-.16.08Z"/><path d="M385.77,160.19c0,8.28,0,16.56,0,24.85s-.06,16.71-.06,25.07v14.06c0,.2.31,0,.31-.15V209.9q0-7.1,0-14.17V188.6c0-.19-.31,0-.31.14,0,4.14,0,8.28,0,12.41,0,.15.25,0,.25-.12q0-3.25,0-6.53c0-.14-.23,0-.23.11q0,8.61,0,17.22,0,9.27,0,18.53,0,4.48,0,9c0,.14.24,0,.24-.12,0-5.62,0-11.24,0-16.86q0-9.42,0-18.85c0-3,0-6,0-9,0-.14-.23,0-.23.11q0,3.27,0,6.54c0,.15.24,0,.25-.12,0-4.14,0-8.29,0-12.43,0-.19-.31,0-.31.14v35.43c0,.19.31,0,.31-.15,0-8.37,0-16.74,0-25.1S386,182.32,386,174c0-4.63,0-9.27,0-13.9,0-.11-.17,0-.17.08Z"/><path d="M385.89,161.46a.71.71,0,0,0-.2,0h-.22c-.11,0-.23,0-.34,0h-.07a.17.17,0,0,0-.12.1s0,.09,0,.09h.09l.33,0s.11-.1,0-.11l-.17,0h-.2a.14.14,0,0,0-.12.1s0,.09,0,.09h.6a2,2,0,0,0,.25,0,.14.14,0,0,0,.08-.07s0-.07,0-.07Z"/><path d="M385,162.88c0-1.84,0-3.67.09-5.5,0-.3.05-.6.08-.9a2.63,2.63,0,0,1,.1-.53s0-.06,0,0h0l0,0s0,0,0,0l0,0a1.6,1.6,0,0,1,.21.54c.33,1.2.46,2.45.72,3.67,0,.06.13,0,.12-.07-.07-.74-.19-1.47-.33-2.2-.08-.46-.18-.93-.3-1.39,0-.14-.2-1-.51-.72a.78.78,0,0,0-.17.42,7.22,7.22,0,0,0-.08.8c-.05.83-.07,1.66-.08,2.49,0,1.14,0,2.28,0,3.42,0,.08.13,0,.13-.06Z"/><path d="M225.21,241.05c0-6.82,0-13.64,0-20.45s0-13.49,0-20.24V188.81c0-.15-.24,0-.24.12v2c0,.14.24,0,.24-.12v-6.51c0-.15-.24,0-.24.12,0,4.13,0,8.27,0,12.41q0,8.11,0,16.24v9.18c0,.2.32,0,.32-.16V205.45c0-.2-.34,0-.34.16v3.51c0,.21.34,0,.34-.16v-3.61c0-.2-.34,0-.34.16V216c0,.2.34,0,.34-.16V211c0-.21-.33,0-.33.15q0,5.29,0,10.59v2.36c0,.2.32,0,.32-.16q0-11.9,0-23.8c0-1.11,0-2.22,0-3.33s-.05-2.3-.05-3.45c0-.12-.2,0-.2.1,0,2-.05,4.06-.06,6.09v24.55c0,.2.32,0,.32-.16V211c0-.21-.33,0-.33.15V216c0,.2.34,0,.34-.16V205.35c0-.2-.34,0-.34.16v3.61c0,.21.34,0,.34-.16v-3.51c0-.2-.34,0-.34.16v16.65c0,.2.32,0,.32-.16q0-8.15,0-16.29c0-5.41,0-10.81,0-16.22v-5.28c0-.15-.24,0-.24.12v6.51c0,.14.24,0,.24-.12v-2c0-.15-.24,0-.24.12q0,10.22,0,20.43v20.23c0,3.85,0,7.69,0,11.54,0,.1.16,0,.16-.08Z"/><path d="M225.55,183.52c4.52.19,9.06.08,13.59.08H363.28c.12,0,.29-.27.13-.27H240.9c-5.09,0-10.21-.13-15.29.08-.05,0-.13.11-.06.11Z"/><path d="M361.89,185.76c0,3.64-.18,7.28-.36,10.92-.2,4.21-.44,8.42-.67,12.62q-.18,3.33-.35,6.64l.26-.12v-32c0-.15-.25,0-.25.13,0,3.52.12,7.05.16,10.58s0,7,0,10.49c0,7-.07,14-.12,21.08q0,5.93,0,11.86a0,0,0,0,0,0,0c.3,0,.61,0,.9,0a.49.49,0,0,0,.38-.21,2.28,2.28,0,0,0,.23-1.29l-.21.1c0,.28,0,.56,0,.83s.06.51-.05.63c-.22.27-1.44-1-1.58-1.16s-.28.12-.2.2a6.23,6.23,0,0,0,1.33,1.12.44.44,0,0,0,.56,0,.87.87,0,0,0,.16-.63c0-.36,0-.71,0-1.07,0-.13-.21,0-.21.1a4,4,0,0,1-.05.78.5.5,0,0,1-.18.39.9.9,0,0,1-.4,0c-.14,0-.43.06-.52-.07s0-.31,0-.38v-1.74c0-1.88,0-3.75,0-5.62,0-3.75,0-7.5.11-11.24.14-7.45.13-14.9.07-22.35,0-4.2-.17-8.39-.17-12.59,0-.15-.25,0-.25.13v32c0,.16.25,0,.26-.12.19-4.06.43-8.13.65-12.19s.44-8.17.58-12.26c.06-1.9.11-3.8.09-5.7,0-.13-.2,0-.2.09Z"/><path d="M38.71,172.27c29.79,1.09,59.61,1.44,89.42,1.53,30,.09,59.93-.11,89.9-.16,16.46,0,32.93.13,49.38-.46.07,0,.18-.16.08-.16-8,0-16.07-.3-24.1-.44s-15.89-.23-23.83-.31q-23.87-.24-47.73-.1t-47.75.73c-16.08.4-32.15,1.08-48.22,1.66l-24,.87-5.94.21a10.54,10.54,0,0,1-2.86-.16c-.4-.09-.79-.22-1.19-.31s-.23,0,.05,0,.61,0,.91,0c.92.07,1.84.18,2.76.29s1.71.23,2.55.38c.09,0,.23-.16.13-.18-1.61-.3-3.26-.49-4.9-.64-.17,0-1.94-.31-1.85.16,0,.25,1.37.42,1.54.46a19.84,19.84,0,0,0,5,.06L60,175.32c15.88-.57,31.75-1.26,47.63-1.76q23.57-.75,47.13-1t47-.19q23.7.09,47.41.53l11.84.22,2.74.06c.41,0,3,.3,3.16,0s-.64-.12-.84-.12l-1.36.05-3.16.09c-7.65.2-15.3.25-23,.26q-23.43,0-46.85.08c-15.75,0-31.49.1-47.24.09s-31.59-.06-47.39-.23q-23.46-.26-46.93-.91l-11.46-.36c-.06,0-.15.13-.07.14Z"/><path d="M212.52,181.23s0,0,0,0,0,0,0,0Z"/><path d="M267.52,171.72c0-8.21,0-16.43,0-24.64s0-16.36,0-24.54V108.69c0-.11-.18,0-.18.08-.53,7.94-.92,15.89-1.09,23.85s-.14,16,.2,23.94c.2,4.49.48,9,.88,13.45,0,.12.2,0,.2-.1q-.53-14.41-.85-28.84t-.44-28.74q-.06-8.13-.05-16.26l-.22.11c0,5.1.44,10.2.45,15.31l.22-.11c0-2.38-.3-4.77-.51-7.14-.11-1.22-.23-2.45-.33-3.68,0-.39-.07-.78-.1-1.17a1.71,1.71,0,0,0,0-.32s0-.06,0-.08a2.12,2.12,0,0,0-.2.12c0,.06,0,.2.05.26l.09.64c.12.82.23,1.65.34,2.47,0,.14.23,0,.22-.11-.11-.79-.21-1.58-.32-2.37a3.66,3.66,0,0,0-.16-1c-.08-.18-.22-.07-.24.1a3.12,3.12,0,0,0,0,.75c.2,2.63.47,5.26.68,7.89.1,1.24.23,2.49.23,3.74,0,.13.22,0,.22-.11,0-5.11-.45-10.2-.45-15.31,0-.13-.22,0-.22.11q0,14.41.21,28.83t.62,28.75q.24,8.12.53,16.25l.2-.1c-.71-7.93-1.07-15.88-1.16-23.84s.06-16,.4-23.94q.3-6.72.75-13.44l-.18.08q0,12.33,0,24.64t0,24.54q0,6.93,0,13.85c0,.09.15,0,.15-.08Z"/><path d="M41.81,92.11c0,5.21-.08,10.42-.17,15.62s-.22,10.46-.3,15.68-.15,10.47-.12,15.71.13,10.45.38,15.68c.12,2.59.27,5.18.47,7.77.1,1.32.21,2.64.34,4s.3,2.49.3,3.73v1.09c0,.11.18,0,.18-.08,0-9.74.06-19.48.1-29.22s0-19.43-.14-29.15q-.12-8.18-.41-16.37c0-.11-.18,0-.18.09-.18,9.44-.43,18.89-.67,28.33s-.46,18.82-.59,28.24q-.11,8-.11,15.92c0,.13.21,0,.21-.1,0-9.45.14-18.89.33-28.33s.44-18.82.67-28.23q.18-8,.34-15.92l-.18.09c.36,9.73.49,19.47.54,29.21s0,19.43,0,29.15q0,8.19,0,16.37l.18-.08c0-1,0-1.92-.11-2.89-.13-1.29-.25-2.59-.36-3.88q-.31-3.92-.53-7.85c-.28-5.22-.41-10.45-.46-15.67s0-10.47.06-15.7.19-10.46.29-15.69S42,99.18,42,94V92c0-.1-.17,0-.17.08Z"/><path d="M46.8,95.32l84.34,0h131.3c.11,0,.26-.25.11-.25H117.08l-40.89,0c-.15,0-.35.33-.16.33H212.62l38.56,0c.12,0,.3-.27.13-.27q-34.22,0-68.43,0H76.19c-.15,0-.35.33-.16.33l72.76,0H262.44c.11,0,.26-.25.11-.25H94.25l-47.35,0c-.09,0-.22.19-.1.19Z"/><path d="M77.81,177.21c.19,3.51.36,7,.5,10.52q.25,6.22.38,12.46.15,6.72.15,13.45c0,4.48-.07,9-.22,13.45-.14,4.2-.35,8.41-.7,12.6l-.12,1.46L78,241c.35-8.31.56-16.63.69-24.95s.18-16.79.2-25.19q0-7.12,0-14.24l-.23.11q.27,11.31.5,22.64t.34,22.65q.06,6.39.06,12.78l.23-.11q-.26-11.82-.5-23.65T79,187.65q-.06-6.63-.06-13.25l-.23.12c.17,8.43.35,16.87.69,25.29s.83,16.89,1.65,25.31c.46,4.75,1,9.5,1.71,14.23,0,.14.24,0,.23-.12a1.88,1.88,0,0,0-.34-.73c-.24-.44-.49-.86-.72-1.3s-1.15-2-.4-2.31l-.12,0a9.48,9.48,0,0,1,.15,1,5.63,5.63,0,0,1,0,.82,1.11,1.11,0,0,1-.14.69l.13.12a2.15,2.15,0,0,0,.24-1.54c0-.58-.17-1.15-.18-1.73,0-.15-.25,0-.25.12a6.76,6.76,0,0,0,0,.9,7.27,7.27,0,0,0,.29,1c.13.43.25.87.34,1.31a2,2,0,0,1,.06.34.48.48,0,0,0,0,.12h0v0a.15.15,0,0,1,.12-.11s0,0,0-.05-.1-.11-.15-.17c-.28-.39-.51-.82-.75-1.23l-.33-.59a1.92,1.92,0,0,0-.25-.38c-.13-.11-.28,0-.31.14a1.44,1.44,0,0,0,.14.54c0,.13.29-.06.25-.18s-.07-.42-.13-.47c.57.51-.2.18-.21.15s0,0,0,0l0,0c0,.06.09.12.12.17.25.41.48.83.72,1.24a3.07,3.07,0,0,0,.67,1c.32.23.38-.28.35-.49a8.61,8.61,0,0,0-.28-1.22c-.1-.34-.2-.68-.31-1a4,4,0,0,1-.08-1.15l-.25.12c0,.47.11.95.16,1.42a9.1,9.1,0,0,1,0,.91,1.14,1.14,0,0,1-.14.7c-.12.13,0,.26.13.12a2.12,2.12,0,0,0,.23-1.53,11.46,11.46,0,0,0-.18-1.31c0-.06-.09,0-.12,0-.92.33-.33,1.61-.06,2.19s.54,1,.83,1.54a2.72,2.72,0,0,1,.47.93l.23-.12c-1.22-8.39-2-16.83-2.62-25.29s-.88-16.86-1.11-25.3c-.13-4.75-.22-9.49-.32-14.24,0-.14-.23,0-.23.12,0,7.88.06,15.77.17,23.65s.27,15.62.43,23.43l.3,13.24c0,.15.23,0,.23-.11q0-11.32-.18-22.64t-.43-22.65q-.15-6.39-.29-12.78c0-.14-.23,0-.23.11,0,8.42,0,16.84,0,25.26s-.16,16.74-.38,25.11q-.18,7-.47,14c0,.14.22,0,.23-.11.37-4.14.61-8.28.76-12.43.17-4.48.25-9,.27-13.44s0-9-.11-13.51q-.12-6.28-.36-12.57c-.14-3.61-.3-7.21-.51-10.81L78,177.11c0-.13-.22,0-.21.1Z"/><path d="M25.61,74.57a7.4,7.4,0,0,1,1,3.9c0,.13,0,.78-.21.82S26,78.6,26,78.5a14.91,14.91,0,0,1-.23-3.13c0-.11-.18,0-.18.09,0,1.05,0,2.11,0,3.16,0,.13.22,0,.22-.11V74c0-.15-.21,0-.22.11a61.16,61.16,0,0,0-.06,9.76c0,.64.05,1.28.1,1.92,0,.09.13,0,.13-.06a34.93,34.93,0,0,0-.07-4c-.06-1.71-.1-3.42-.06-5.13,0-.88.08-1.76.18-2.64l-.22.11v4.5c0,.13.22,0,.22-.11,0-1,0-2.09,0-3.14l-.18.09a15.46,15.46,0,0,0,.22,3.11c.05.22.15.87.46.9s.39-.42.43-.62a4.91,4.91,0,0,0,0-1.71,8.22,8.22,0,0,0-.93-2.68c0-.09-.2.05-.16.11Z"/><path d="M271,89a2.75,2.75,0,0,0,1.39.13c.22-.06.46-.24.39-.49s-.5-.48-.76-.57a6,6,0,0,0-2-.3,15.27,15.27,0,0,0-3.86.57c-.08,0-.24.23-.09.23a6,6,0,0,0,1,0l1.4-.25c1-.15,2-.27,3-.36,2-.17,3.92-.22,5.87-.24h3.55c.12,0,.3-.28.13-.28a84.69,84.69,0,0,0-11.81.55c-.54.08-1.09.17-1.62.27a8.73,8.73,0,0,1-1.44.11l-.08.22a11.57,11.57,0,0,1,5.29-.42,2.29,2.29,0,0,1,1.05.44c.13.12.22.26.06.33a2.24,2.24,0,0,1-1.35-.11c-.09,0-.24.17-.14.2Z"/><path d="M281,74c0-.08.07-.49,0-.55s-.06.22-.06.24c0,.59.05,1.19.07,1.79.08,1.83.15,3.67.21,5.5,0,.7.05,1.4.05,2.1l.23-.1c0-.9-.42-1.77,0-2.65l-.2,0a7.81,7.81,0,0,0-.18,2.73c.05,1.05.17,2.1.17,3.15l.23-.11c-.08-1-.14-2-.13-3,0-.31,0-.61,0-.92a2.4,2.4,0,0,0,.07-.52c0-.09-.12,0-.14,0s0,.12,0,.15a3.66,3.66,0,0,1,0,.66c0,.92-.06,1.84-.13,2.76,0,.14.23,0,.23-.12.08-.86.13-1.73.13-2.6,0-.23,0-.46,0-.7a.87.87,0,0,0-.06-.32c-.14-.19-.28.09-.31.22a6.37,6.37,0,0,0-.1,1.31c0,1,0,2.07.13,3.11,0,.14.23,0,.23-.11,0-1-.11-2-.17-3a7.87,7.87,0,0,1,.16-2.78c.05-.15-.17,0-.2,0a2.77,2.77,0,0,0-.19,1.48c0,.43.16.85.17,1.27,0,.14.23,0,.23-.1,0-1.67-.1-3.34-.18-5,0-1-.09-1.91-.15-2.86,0-.34-.05-.69-.08-1a5.9,5.9,0,0,0-.06-.59c0-.09-.06-.16-.13,0a1.66,1.66,0,0,0,0,.59c0,.06.09,0,.09,0Z"/><path d="M26.55,75c32.72.34,65.45.06,98.17.06h27.86c.12,0,.3-.27.13-.27H108.14c-.12,0-.29.27-.13.27h68.47q34.2,0,68.39,0l34.75,0c.1,0,.25-.23.11-.23l-13.12,0c-.12,0-.29.27-.12.27h9.45c.12,0,.28-.25.12-.25h-9.45c-.12,0-.29.27-.12.27l13.13,0c.1,0,.25-.23.11-.23l-64.7,0H108.14c-.12,0-.29.27-.13.27h44.57c.12,0,.3-.27.13-.27H54.51c-9.29,0-18.59,0-27.89,0-.06,0-.16.15-.07.15Z"/><path d="M278.75,74c-32.35,2.49-64.86,2-97.27,1.76s-64.81.79-97.22,1c-9,0-18,0-27.05-.07a234.29,234.29,0,0,1-27.4-1.35c-.13,0-.33.27-.14.29a229.86,229.86,0,0,0,24.47,1.31q12,.1,24.07.1c16.16,0,32.32-.32,48.48-.59s32.46-.53,48.69-.44,32.31.24,48.46.2c18.28,0,36.6-.37,54.82-2,.08,0,.21-.2.09-.19Z"/><path d="M203.44,172.25q-.18,12-.37,24t-.36,23.85q-.11,6.71-.19,13.41l.2-.1q-.18-11.59,0-23.2c.11-7.7.33-15.4.73-23.1q.33-6.42.82-12.83l-.22.1c0,1.43-.07,2.86-.1,4.28q-.07,3-.13,6.09-.08,3.71-.14,7.39c-.06,2.73-.1,5.45-.15,8.18s-.1,5.63-.14,8.44-.09,5.48-.13,8.22q-.06,3.71-.1,7.41,0,3-.07,6.11c0,1.43,0,2.86,0,4.29,0,.44,0,.88,0,1.31a3.64,3.64,0,0,0,0,.66c0,.06,0,.12.09.13s.28-.24.12-.26c.08,0,.06.06.05-.05s0-.19,0-.29c0-.36,0-.71,0-1.07,0-1.29,0-2.59,0-3.88,0-1.92,0-3.84.05-5.75l.09-7.16c0-2.67.07-5.33.11-8s.09-5.59.14-8.39.09-5.5.14-8.24l.15-7.58c0-2.13.08-4.25.13-6.38,0-1.58.07-3.15.11-4.72,0-.28,0-.56,0-.84,0-.13-.21,0-.22.1q-.87,11.47-1.24,23c-.26,7.71-.36,15.43-.36,23.15q0,6.5.11,13c0,.12.2,0,.2-.1l.36-24,.33-23.84q.09-6.69.19-13.4c0-.09-.16,0-.16.08Z"/><path d="M387.57,173.08c-.42-3-1.14-6-.87-9l-.19.09a3.69,3.69,0,0,1-.21,1.09c-.09.34-.08.57.24.76.06,0,.16-.08.16-.14a75.47,75.47,0,0,1,0-8.1l-.19.09c0,5.39-.15,10.78-.31,16.16-.18,6.1-.4,12.2-.59,18.3s-.35,12.3-.41,18.45c-.05,5.6,0,11.2.25,16.8a92.8,92.8,0,0,0,1.37,13.1c.09.43.17.85.27,1.27,0,.12.26-.06.23-.17a77.82,77.82,0,0,1-1.55-12.64c-.31-5.47-.38-11-.35-16.43,0-6.11.16-12.23.34-18.34s.4-12.24.58-18.36c.17-5.48.33-11,.36-16.45v-1.78c0-.13-.19,0-.19.09a73,73,0,0,0,0,8.1l.16-.14c-.45-.27-.1-.77,0-1.15a3,3,0,0,0,0-.6c0-.12-.18,0-.19.09-.26,3.06.47,6,.93,9,0,.08.14,0,.13-.06Z"/><path d="M377.86,241A162.74,162.74,0,0,0,398,242h5.68c.12,0,.29-.27.13-.27-1.68,0-3.36.17-5,.26s-3.37.14-5.05.18q-4.94.12-9.87,0c-1.85,0-3.71-.14-5.56-.14-.11,0-.28.23-.12.25,7.07.46,14.15.59,21.24.61h6.06c.13,0,.31-.28.14-.28-7.14,0-14.27,0-21.4-.28q-3-.1-5.92-.3l-.12.25c1.63,0,3.27.08,4.9.12s3.32.07,5,.08c3.31,0,6.63-.05,9.93-.21,1.9-.08,3.81-.28,5.71-.28.12,0,.29-.27.13-.27-6.74,0-13.48,0-20.21-.4q-2.82-.18-5.63-.44c-.07,0-.17.14-.08.15Z"/><path d="M226.3,197.27h104c9.76,0,19.52.05,29.28,0,0,0,.11-.11.05-.11-17.37-.14-34.75,0-52.12,0H255.63l-29.27,0c-.06,0-.15.14-.06.14Z"/><path d="M223.9,212.79c17.54.08,35.08,0,52.62,0H329c9.8,0,19.6,0,29.4,0,.07,0,.17-.16.08-.16-17.55-.05-35.09,0-52.64,0H253.35c-9.8,0-19.59,0-29.39,0-.06,0-.13.12-.06.12Z"/><path d="M226,229.31c17.54.06,35.08,0,52.62,0h52.57c9.86,0,19.72.06,29.58,0,.06,0,.14-.13.06-.13-17.53-.17-35.08,0-52.61,0H255.64q-14.79,0-29.57,0c-.07,0-.17.15-.08.15Z"/><path d="M32.94,242.8c-1,0-2.08,0-3.12,0h-.21a.22.22,0,0,0-.18.13c0,.05,0,.13.05.13h2.9a.23.23,0,0,0,.18-.14s0-.13-.05-.13H29.45a.23.23,0,0,0-.19.14c0,.05,0,.14.06.14h1.26a.23.23,0,0,0,.18-.14s0-.13-.05-.13H29.45a.23.23,0,0,0-.19.14c0,.05,0,.14.06.14h3.06a.23.23,0,0,0,.18-.14s0-.13-.05-.13h-2.9a.22.22,0,0,0-.18.13c0,.05,0,.13.05.13h2.21l1.16,0c.08,0,.21-.19.09-.19Z"/><path d="M33.39,243.25c-1.26-.13-2.51-.24-3.77-.35l-.44,0a.34.34,0,0,0-.14,0c-.05,0-.18.15-.14.19a2.5,2.5,0,0,0,.25,0h3.24c.1,0,.24-.22.11-.22H26.65c-.11,0-.26.24-.12.24h2.32c.11,0,.27-.24.12-.24H25.75l-.06.23a2.7,2.7,0,0,1,1-.18,14,14,0,0,1,1.45,0c.79,0,1.59.16,2.39.16.11,0,.27-.24.12-.24-1.51,0-3-.43-4.5-.45l-.12.24H31.2c1.6,0,3.2.05,4.8,0,.08,0,.22-.19.09-.2-1.58-.08-3.18,0-4.77,0H26.2c-.11,0-.27.24-.12.24,1.51,0,3,.44,4.5.45l.12-.24c-.85,0-1.71-.13-2.56-.17a5.34,5.34,0,0,0-2.45.19c-.06,0-.2.22-.06.22h3.22c.11,0,.27-.24.12-.24H26.65c-.11,0-.26.24-.12.24h5.86l.11-.22H29.8a2.48,2.48,0,0,0-.86,0c-.34.15,0,.24.17.25l1.4.12,2.79.25c.08,0,.21-.18.09-.19Z"/><path d="M188.74,175.85V193q0,8.5,0,17v9.65c0,.11.17,0,.17-.08q0-7.92,0-15.84V179.06c0-.15-.23,0-.23.11q0,11.49,0,23V238c0,.15.25,0,.25-.12V177.25c0-.15-.25,0-.25.12v18.9c0,6.26,0,12.52,0,18.77,0,3.54,0,7.09,0,10.63,0,.09.15,0,.15-.07,0-6.31.05-12.62.06-18.93s0-12.51,0-18.77V177.25c0-.15-.25,0-.25.12V238c0,.15.25,0,.25-.12v-23q0-11.52,0-23V179.06c0-.15-.23,0-.23.11V195q0,7.89,0,15.77c0,3,0,5.93,0,8.9,0,.11.17,0,.17-.08,0-5.72,0-11.43,0-17.15s0-11.34,0-17v-9.64c0-.09-.15,0-.15.07Z"/><path d="M164,180.58l0-4.83c0-.12-.19,0-.19.09,0,.9,0,1.8,0,2.7v.38c0,.13.2,0,.2-.09,0-.84,0-1.68,0-2.52,0-.13-.22,0-.22.1v2.52c0,.14.22,0,.22-.11v-5.18c0-.14-.23,0-.23.11q0,10.62,0,21.25v33.4c0,.17.28,0,.28-.13v-15c0-.17-.26,0-.26.12V238.6c0,.17.27,0,.27-.12V231c0-.16-.27,0-.27.13v3.47c0,.17.27,0,.27-.13V227.5c0-.16-.28,0-.28.14v2c0,.17.28,0,.28-.13,0-6.14,0-12.28,0-18.42q0-9.84,0-19.7V180.25c0-.14-.24,0-.24.12v45.27c0,4.22,0,8.43,0,12.65,0,.12.2,0,.2-.1,0-7.56,0-15.12,0-22.68s0-15.06,0-22.6V180.25c0-.14-.24,0-.24.12v19.71q0,9.85,0,19.72v9.86c0,.17.28,0,.28-.13v-2c0-.16-.28,0-.28.14v6.93c0,.17.27,0,.27-.13V231c0-.16-.27,0-.27.13v7.5c0,.17.27,0,.27-.12q0-9.82,0-19.66v-5.55c0-.17-.26,0-.26.12v15c0,.17.28,0,.28-.13V185.43q0-5.9,0-11.79c0-.14-.23,0-.23.11v5.18c0,.14.22,0,.22-.11v-2.51c0-.14-.22,0-.22.1,0,.84,0,1.68,0,2.51,0,.13.2,0,.2-.09v-3.08c0-.12-.19,0-.19.09,0,1.6,0,3.2,0,4.81,0,.08.13,0,.13-.07Z"/><path d="M164.87,207.29c0-8.76,0-17.54.46-26.29.12-2.45.26-4.9.48-7.34l-.21.1c0,8.56-.15,17.12-.26,25.68s-.21,17-.12,25.44c.05,4.77.21,9.54.36,14.32,0,.16.22,0,.24-.09s.1-.33-.1-.31-.37.34-.47.47a3.65,3.65,0,0,0-.88,1.74l.27-.13c0-.4-.32-1.06,0-1.4l-.23,0a34.38,34.38,0,0,1,0,5.37l.27-.1a62.63,62.63,0,0,1-.31-7.5c0-.16-.26,0-.26.12a60.69,60.69,0,0,0,.3,7.51c0,.17.25,0,.27-.1a34.07,34.07,0,0,0,0-5.44c0-.15-.2,0-.24,0-.37.45-.05,1.1,0,1.61,0,.17.26,0,.27-.13a2.61,2.61,0,0,1,.54-1.17,4.54,4.54,0,0,1,.36-.5,2.09,2.09,0,0,0,.14-.17s-.06,0-.06,0,0,.1,0,.12l.25-.09c-.43-8.47-.44-17-.4-25.46s.18-17,.28-25.49q.09-7.23.1-14.47c0-.14-.21,0-.21.1-.64,8.75-.85,17.5-.87,26.27,0,2.45,0,4.89,0,7.33,0,.09.14,0,.14-.07Z"/><path d="M188.83,238.29l0,0,0,0h0l.11-.06h0l.06,0h.16l0,0h0v0a.1.1,0,0,1,0,.07.28.28,0,0,1,0,.09c0,.06,0,.08,0,.13a3.25,3.25,0,0,1-.11.42c0,.08-.06.17-.1.26l-.06.16c0,.05-.06.11,0,.17s.08,0,.1,0a.73.73,0,0,0,.17-.31c0-.09.07-.19.1-.28a2,2,0,0,0,.11-.4,1,1,0,0,0,0-.17.37.37,0,0,0,0-.11.33.33,0,0,0,0-.17c-.12-.2-.39-.07-.53,0l-.16.1s-.06.06-.05.09.06,0,.08,0Z"/><path d="M153.46,175.41a119,119,0,0,1-.12,12.81c-.09,1.22-.21,2.42-.36,3.63l.23-.11c0-5.18-.22-10.36,0-15.53l-.23.11q.14,12.19.08,24.41c0,8.1-.09,16.19-.16,24.29l-.15,13.65c0,.15.23,0,.24-.11a218.64,218.64,0,0,0,.48-22.61c0-2.14-.05-4.28,0-6.42,0-.13-.21,0-.21.1,0,7.9-.15,15.8,0,23.7,0,2.23.11,4.46.21,6.7,0,.15.26,0,.25-.13-.34-7.89-.3-15.79-.26-23.68,0-2.23,0-4.46,0-6.69l-.21.1c0,7.54.27,15.08,0,22.61q-.13,3.22-.43,6.43l.24-.11q.13-12.13.24-24.25T153.3,190q0-6.87-.09-13.76c0-.15-.22,0-.23.11-.22,5.17,0,10.35,0,15.53,0,.15.22,0,.23-.11a88.17,88.17,0,0,0,.55-12.69c0-1.24-.07-2.49-.12-3.73,0-.12-.19,0-.18.09Z"/><path d="M56.67,111v7c0,2.94,0,5.87,0,8.81v9.07c0,2.58,0,5.17,0,7.76v5.21c0,.13.21,0,.21-.1V113.63c0-.14-.23,0-.23.11v14.7q0,7.31,0,14.6v8.07c0,.15.24,0,.24-.12v-14.4c0-.15-.24,0-.24.11v15.76c0,.14.24,0,.24-.12V110.93c0-.15-.23,0-.23.11v28.08c0,2.64,0,5.28,0,7.91,0,.09.15,0,.15-.07,0-4.7,0-9.4.05-14.11s0-9.32,0-14v-7.93c0-.15-.23,0-.23.11q0,8.17,0,16.34v25.08c0,.14.24,0,.24-.12V136.59c0-.15-.24,0-.24.11v14.41c0,.15.24,0,.24-.12V113.63c0-.14-.23,0-.23.11v13.68q0,6.84,0,13.68v7.75c0,.13.21,0,.21-.1V136.83c0-3,0-6,0-9v-16.9c0-.11-.17,0-.17.08Z"/><path d="M56.26,146.64c6.75.05,13.49,0,20.24,0,.11,0,.28-.25.12-.25H63.57c-.12,0-.29.26-.13.26h8.29c.12,0,.3-.27.13-.27H65.18c-.12,0-.3.28-.13.28h142q20.26,0,40.52,0c.13,0,.33-.31.14-.31l-9.91,0c-.12,0-.3.27-.13.27,3.3,0,6.6,0,9.9,0,.13,0,.33-.31.14-.31q-35.93.06-71.86,0H65.18c-.12,0-.3.28-.13.28h6.68c.12,0,.3-.27.13-.27H63.57c-.12,0-.29.26-.13.26H76.5c.11,0,.28-.25.12-.25-6.76,0-13.52,0-20.27,0-.08,0-.2.17-.09.18Z"/><path d="M246.66,112.37c0,7.24.25,14.47.38,21.71,0,2.07.06,4.14.06,6.21,0,.11.18,0,.18-.09q0-11.61,0-23.21v-6.5c0-.12-.18,0-.18.09,0,.63,0,1.26.05,1.89s.13,1.23.19,1.85c.11,1.24.22,2.48.31,3.72q.25,3.72.35,7.44a140.2,140.2,0,0,1-.42,14.92c-.23,2.82-.57,5.63-1,8.43,0,.2.26.07.28-.07a129.21,129.21,0,0,0,1.3-14.83,147.51,147.51,0,0,0-.26-15c-.09-1.41-.21-2.81-.34-4.21-.06-.68-.13-1.35-.2-2a19.88,19.88,0,0,1-.1-2.18c0-.12-.18,0-.18.09q0,11.61,0,23.23v6.48l.18-.09c0-7.31-.26-14.62-.4-21.93q0-3-.06-6c0-.1-.16,0-.16.07Z"/><path d="M56.35,110.44l-3.94,0c-.11,0-.26.24-.11.24h6.94c.12,0,.28-.25.13-.25h-7.9c-.11,0-.28.26-.12.26H207.67q19.49,0,39,0h4.52c.15,0,.37-.34.16-.34H184.69c-.15,0-.37.34-.16.34h14c.15,0,.37-.34.16-.34l-10.82,0c-.13,0-.31.28-.13.28,3,0,6,0,9,0,.07,0,.18-.17.08-.17l-9-.06c-.13,0-.31.28-.13.28q5.38,0,10.79,0c.15,0,.37-.34.16-.34h-14c-.15,0-.37.34-.16.34h66.63c.15,0,.37-.34.16-.34q-19.27,0-38.57,0H51.47c-.11,0-.28.26-.12.26h7.89c.12,0,.28-.25.13-.25h-7c-.11,0-.26.24-.11.24l4,0c.08,0,.2-.19.09-.19Z"/><path d="M59.05,110.43q-.87-.12-1.74-.27a4.41,4.41,0,0,0-.88-.17c-.24,0-.23,0,0,.09a3.86,3.86,0,0,0,.68,0c1.36,0,2.73.1,4.09.11.08,0,.25-.21.13-.23a41,41,0,0,0-7.67-.45l-.11.23c25.34-.44,50.66-1.63,76-1.78,25.17-.14,50.28,1.61,75.42,2.41,14.19.46,28.42.44,42.59-.16.13,0,.3-.28.14-.28-12.64.55-25.34.64-38,.31-12.5-.34-25-1-37.49-1.53s-25.27-1-37.92-1-25.21.31-37.81.67c-14.28.41-28.56.91-42.84,1.15-.11,0-.26.23-.11.23a41.43,41.43,0,0,1,7.63.44l.13-.22c-1,0-2,0-3.06-.08a5.44,5.44,0,0,0-1.93,0c-.16.07-.27.08-.19.26s.72.17.83.19c.66.12,1.33.21,2,.3.08,0,.21-.18.09-.2Z"/><path d="M247.16,108.65a9.1,9.1,0,0,0-1.85,1.42c-.13.15-.28.41,0,.47a2,2,0,0,0,.84-.16l.58-.19-.12,0a21,21,0,0,1-.54,6.17c-.2,1-.41,2-.56,3a12.19,12.19,0,0,0-.21,3c0,.1.15,0,.15-.07.1-1.06.19-2.12.36-3.18s.37-2,.57-3a20.1,20.1,0,0,0,.47-6c0-.07-.07-.07-.12,0a4.73,4.73,0,0,1-1.16.33c-.23,0-.22,0-.08-.19a9.48,9.48,0,0,1,1.72-1.3c.11-.08.08-.25-.06-.16Z"/><path d="M56.83,110.51A3.82,3.82,0,0,1,57,110a.65.65,0,0,0,0-.13s0,0,0,0-.13.07-.11,0,.05.16.05.19a3.15,3.15,0,0,1,0,.43c.07.91.06,1.83.06,2.74,0,.47,0,1,0,1.43,0,.14.23,0,.23-.11q0-1.55,0-3.09c0-.44,0-.89-.08-1.33,0-.11,0-.5-.21-.47s-.29.73-.32.91.13,0,.15,0Z"/><path d="M25.72,83.91H24.29c-.06,0-.15.14-.07.14q8.27.06,16.53.07c.12,0,.3-.28.13-.28h-.46c-.12,0-.3.28-.13.28h.19c.13,0,.31-.28.13-.28H34.16c-.13,0-.32.3-.14.3h239.2c.15,0,.36-.32.16-.32h-8.55c-.15,0-.36.32-.16.32h8.1c.15,0,.36-.32.16-.32h-2.8c-.15,0-.35.32-.15.32,1.68,0,3.36,0,5,0,.14,0,.34-.32.15-.32h-2.59c-.13,0-.33.3-.14.3,1.77,0,3.54-.07,5.31-.07.08,0,.19-.16.08-.16-1.75,0-3.5-.07-5.25-.07-.13,0-.33.3-.14.3H275c.14,0,.35-.32.15-.32-1.68,0-3.37,0-5.05,0-.15,0-.35.32-.15.32h2.79c.15,0,.36-.32.16-.32h-8.1c-.15,0-.36.32-.16.32h8.55c.15,0,.36-.32.16-.32q-47,0-94,0H34.16c-.13,0-.32.3-.14.3h6.46c.13,0,.31-.28.13-.28h-.19c-.12,0-.3.28-.13.28h.46c.12,0,.3-.28.13-.28q-8.3,0-16.59.07c-.06,0-.15.14-.07.14h1.44c.05,0,.13-.12.06-.12Z"/><path d="M24.24,84.07c2.86,2.88,5.87,5.62,8.59,8.64.76.85,1.5,1.72,2.2,2.63l.23-.23A41.39,41.39,0,0,1,31,91.74c-1.28-1.13-2.52-2.34-3.89-3.37-.09-.07-.29.13-.2.2,1.3,1.12,2.58,2.26,3.87,3.39A41.64,41.64,0,0,0,35,95.34c.11.07.31-.12.23-.23a88.69,88.69,0,0,0-8.38-8.85c-.82-.8-1.64-1.59-2.44-2.39-.08-.08-.28.12-.2.2Z"/><path d="M34.2,94.86c1.39,0,2.79-.06,4.17-.15.51,0,1,0,1.51-.12a.57.57,0,0,0,.32-.09c.14-.12.08-.21-.06-.24a5.32,5.32,0,0,0-.69,0c-.52,0-1,0-1.55,0-.1,0-.24.21-.11.21.69,0,1.38,0,2.06.06a1.09,1.09,0,0,0,.17,0s0,0,0,0,.08-.19.08-.18,0,0,0,0l-.07,0-.2,0c-1.15.15-2.31.2-3.47.25-.7,0-1.39.05-2.09.06-.08,0-.2.17-.09.17Z"/><path d="M272.87,94.38c1.42-1.1,2.81-2.24,4.12-3.47a15.18,15.18,0,0,0,1.47-1.53s.58-.69.21-.57c-.16,0-.32.29-.42.42-.26.3-.5.62-.74.94-.65.87-1.28,1.74-1.92,2.61L274.67,94a8.32,8.32,0,0,1-.53.68c-.11.12,0,.23.12.11A72,72,0,0,0,279.69,89c.1-.12-.05-.18-.14-.09-2.94,2.93-5.92,5.79-9,8.58-.06,0,0,.15.06.09a117.74,117.74,0,0,0,9-8.55l-.14-.09a74.13,74.13,0,0,1-5.38,5.83l.12.11a11.67,11.67,0,0,0,1.05-1.38c.58-.79,1.16-1.6,1.75-2.39.45-.62.9-1.26,1.41-1.85a1.19,1.19,0,0,0,.19-.2c0-.05,0,0,0,0s0-.06,0-.06a1,1,0,0,0-.14.2,12,12,0,0,1-1.33,1.43c-1.36,1.32-2.83,2.5-4.29,3.7-.07.06-.06.19,0,.11Z"/><path d="M267.54,97.45c.08-.22.44-.33.64-.41a8.28,8.28,0,0,1,1.21-.32c.81-.17,1.63-.28,2.45-.42a1.49,1.49,0,0,0,.59-.17c.17-.12.08-.23-.08-.27a6.45,6.45,0,0,0-1.16-.14L270,95.65l-.65,0a4.2,4.2,0,0,1-.87,0c-.13,0-.12,0,0-.13a1.05,1.05,0,0,1,.31-.18,6.61,6.61,0,0,1,1-.4,5.91,5.91,0,0,1,1.64-.42c.11,0,.26-.23.12-.23H268c-.11,0-.28.22-.12.25a17.54,17.54,0,0,0,4.69-.1c1.61-.23,3.21-.52,4.8-.84.06,0,.17-.19.07-.18-1.56.14-3.08.51-4.62.74a17.31,17.31,0,0,1-4.82.13l-.12.25h3.6l.12-.23a5.42,5.42,0,0,0-1.43.34,6,6,0,0,0-1.63.68c-.12.08-.28.21-.3.36-.05.32.47.22.66.23.84,0,1.67.08,2.51.15.22,0,.44,0,.65.06a1.84,1.84,0,0,0,.3.07s.05-.15.07-.13l-.09,0-.37.08c-.84.16-1.7.27-2.54.45a8.15,8.15,0,0,0-1.36.4,1.15,1.15,0,0,0-.67.57c-.05.12.15,0,.18,0Z"/><path d="M58.06,112.84a5.64,5.64,0,0,0,.86.41l.75.31c.39.16.77.31,1.16.45a6.23,6.23,0,0,0,.73.24,1.76,1.76,0,0,0,.4.07c.11,0,.25-.09.25-.22a.37.37,0,0,0-.11-.2,3.87,3.87,0,0,0-.67-.54l-.5-.35-.26-.17a.6.6,0,0,0-.28-.13s-.13.07-.1.12.25.24.38.32l.43.3a6.51,6.51,0,0,1,.72.55l.1.1,0,.05s0,0,0,0a0,0,0,0,1,0,0s0,0,0,0,0,0,0,0l.07-.07s0,0,0,0h0a.86.86,0,0,1-.32,0,5.16,5.16,0,0,1-.67-.2l-1.19-.44-.77-.32a9.78,9.78,0,0,0-1-.37c-.06,0-.15.08-.09.12Z"/><path d="M63,116.41q0,9.16,0,18.31v5.12c0,.12.19,0,.19-.09v-19c0-1.79,0-3.58,0-5.36,0-.13-.2,0-.2.09q0,9.7,0,19.41v5.36c0,.15.25,0,.25-.11V129.83c0-.16-.25,0-.25.12,0,4.5-.07,9,0,13.51,0,.15.25,0,.25-.12.07-4.5,0-9,0-13.51,0-.16-.25,0-.25.12V140.3c0,.15.25,0,.25-.11q0-9.7,0-19.39v-5.36c0-.13-.2,0-.2.09q0,9.48,0,18.95v5.36c0,.12.19,0,.19-.09,0-6.1,0-12.19,0-18.28,0-1.71,0-3.41,0-5.12,0-.07-.13,0-.13.06Z"/><path d="M65.26,114.69l20.73,0h45.88c.13,0,.32-.3.14-.3H77.09c-.14,0-.34.31-.15.31H242.16c.14,0,.34-.31.15-.31h-8.26c-.14,0-.35.32-.15.32h3.76c.14,0,.35-.33.15-.33-3,0-6,0-9,0-.11,0-.26.23-.12.23,3,0,6,0,9,0,.14,0,.35-.33.15-.33h-3.76c-.14,0-.35.32-.15.32h8.26c.14,0,.34-.31.15-.31H77.09c-.14,0-.34.31-.15.31h54.93c.13,0,.32-.3.14-.3H103.54c-9.59,0-19.19,0-28.79,0l-9.39,0c-.1,0-.23.21-.1.21Z"/><path d="M240.91,115.09c1-.7,1.9-1.4,2.88-2.06l.23-.15.09-.06.09,0h0a.05.05,0,0,1,0,0l0,0,.09-.06.07,0h0s0,0,0,0l0,0,.22-.12h0s0,0,0,0h0s0,0,0,0,0,0,0,0,0,0,0,0h0v0h0v0s0,0,0,0v0l-.12.16-.09.11,0,0v0s0,0,0,0l-.05.06c-.4.47-.83.92-1.25,1.37-.58.62-1.17,1.25-1.73,1.89a1.93,1.93,0,0,0-.22.28s-.05.08,0,.11a.08.08,0,0,0,.11,0,4.1,4.1,0,0,0,.5-.52l.45-.51.87-.94c.45-.49.9-1,1.33-1.47a5.63,5.63,0,0,0,.38-.45c0-.07.16-.23.09-.31s-.26,0-.33.07l-.28.16-.17.11s0,0,0,0l0,0,0,0-.1.07c-.91.6-1.78,1.25-2.66,1.89l-.48.36s-.07.07-.06.11.07,0,.1,0Z"/><path d="M241,116c0,4.28,0,8.56,0,12.85,0,.15.26,0,.26-.13q0-7,0-14c0-.17-.28,0-.28.14q0,7.08,0,14.18c0,.18.3,0,.3-.14v-8.55c0-.18-.3,0-.3.14v9.29c0,3.36,0,6.72,0,10.08,0,.73.05,1.49.05,2.21,0,.12.19,0,.19-.09,0-.58,0-1.22,0-1.82,0-1.43,0-2.85,0-4.28V120.37c0-.18-.3,0-.3.14v8.55c0,.18.3,0,.3-.14q0-7.09,0-14.18c0-.17-.28,0-.28.14q0,7,0,14c0,.15.26,0,.26-.13,0-4.27,0-8.54,0-12.81,0-.11-.18,0-.18.09Z"/><path d="M265.67,72.63c-4.19,1.34-2.52-5.72-2-7.62a22.65,22.65,0,0,1,1-2.65,5.79,5.79,0,0,1,1-1.7c1.11-1.11,2.87-1.19,4.27-1.71a5.56,5.56,0,0,0,2.88-2.69,45,45,0,0,0,1.84-4.35,12.58,12.58,0,0,1,2.78-4.09,14.2,14.2,0,0,1,7.78-4,24.7,24.7,0,0,1,9.26.48,29.74,29.74,0,0,1,3.32,1c1.3.44,2.62.86,4,1.19,2.19.53,4.88,1.1,6.92-.18A2.91,2.91,0,0,0,310.12,44a28.33,28.33,0,0,1-.1-3.19c.58-3.27,4.87-1.69,6.8-.84a17.69,17.69,0,0,1,6.69,4.73,14.45,14.45,0,0,1,3.22,7.91c.09.82.29,1.62.33,2.45a25.44,25.44,0,0,1,0,2.62,42.31,42.31,0,0,0-.11,5.28c.21,2.52,1.12,4.86,3.52,6,2.22,1,4.7,1.16,7,1.91a2.81,2.81,0,0,1,1.81,1.62,10.5,10.5,0,0,1,.88,3.65c.15,2.23-.28,5.31,1.7,6.89s4.74.42,7,.26c1.31-.09,2.51.16,3,1.5a7.78,7.78,0,0,1,.08,4,24.25,24.25,0,0,0-.47,3.39.05.05,0,0,0,0,.05c1.9.7,3.53-.41,5.35-.79.27-.06.67-.19.9,0s.26.55.32.8a6.32,6.32,0,0,1,.15,1.79A6.52,6.52,0,0,1,357,97.44l.21,0c0-1.64.26-3.79,1.51-5,1.08-1,2.62-.26,3.7.38a27.1,27.1,0,0,1,6.79,6.25c1.74,2.1,3.18,4.29,3.41,7.07a16.85,16.85,0,0,1-1.83,8.79c-1.5,3-4,5.87-7.37,6.75-.07,0-.24.24-.08.23,2.66,0,5.79-.76,8,1.22a7.34,7.34,0,0,1,2.28,7.33,9.34,9.34,0,0,1-5.26,6.14,24.26,24.26,0,0,1-4.1,1.25c-.68.16-1.36.32-2,.5l-1.12.33a1.5,1.5,0,0,1-1.1-.08c-.49-.19-.54-.35-1,0a7.51,7.51,0,0,0-1.27,1.37,6.55,6.55,0,0,1-2.63,1.29c-.81.29-1.64.52-2.48.73-.07,0-.21.19-.07.22,2.05.32,4.12.13,6.18.28.44,0,1.31-.06,1.4.44a4.58,4.58,0,0,1-.17,1.6,20.55,20.55,0,0,1-.72,2.55.06.06,0,0,0,.06.08,5.26,5.26,0,0,1,1.54.42c.2.09.22.12.25.34a2,2,0,0,1,0,.54,2.07,2.07,0,0,1-.93,1.32,25,25,0,0,1-3,1.36c-.68.35-1.3.89-1.09,1.73a4.33,4.33,0,0,0,1.07,1.63,5.17,5.17,0,0,0,2.05,1.41,11.24,11.24,0,0,1,2.43,1,2.4,2.4,0,0,1,.77,2.76c0,.16.2.05.22,0a2.93,2.93,0,0,0-.17-2.27,3.18,3.18,0,0,0-1.54-1.11c-.72-.29-1.48-.48-2.18-.82a5.73,5.73,0,0,1-1.93-1.77,1.93,1.93,0,0,1-.51-1.47c.1-.42.52-.66.88-.85.91-.46,1.91-.7,2.79-1.23a2.46,2.46,0,0,0,1.31-2.69s0,0-.05,0a7.73,7.73,0,0,1-1.41-.38c-.26-.06-.31,0-.23-.32s.17-.51.25-.77a12.34,12.34,0,0,0,.54-3.42s0-.05-.06-.05c-2.53-.4-5.11,0-7.65-.45l-.08.21a23.85,23.85,0,0,0,4.57-1.61c.62-.3.86-.76,1.31-1.27.19-.21.6-.7.88-.69s.52.23.72.29a2.68,2.68,0,0,0,1.75-.21c.76-.22,1.53-.4,2.3-.59a24,24,0,0,0,4.25-1.29,9.8,9.8,0,0,0,5.22-5.54,7.42,7.42,0,0,0-1.16-7.35,6,6,0,0,0-3.84-2.28,36.34,36.34,0,0,0-5.11.06l-.09.23a11.91,11.91,0,0,0,7-5.73,17.78,17.78,0,0,0,2.58-9.23,10.32,10.32,0,0,0-.84-4.14,16.41,16.41,0,0,0-2.27-3.48,39,39,0,0,0-3.7-4,18.91,18.91,0,0,0-3.7-2.85c-1.17-.65-2.62-1.24-3.74-.2-1.37,1.25-1.66,3.51-1.68,5.26,0,.13.17,0,.2,0a6.63,6.63,0,0,0,.93-6.41.07.07,0,0,0-.06,0c-1.67,0-3.11,1-4.77,1.15A2.56,2.56,0,0,1,351.9,92c-.27-.18-.11-.73-.07-1,.09-.65.22-1.3.32-1.94.34-2,.85-5.61-1.94-6-2.58-.38-5.67,1.57-8-.13s-1.57-5.27-1.92-7.8a8.69,8.69,0,0,0-1.08-3.34,3,3,0,0,0-1.89-1.26c-2.44-.67-5.24-.85-7.43-2.21-2.89-1.78-2.88-5.69-2.74-8.69a33.3,33.3,0,0,0,0-5.56,28.28,28.28,0,0,0-.84-4.57,14.17,14.17,0,0,0-4.86-7.1,18.76,18.76,0,0,0-7.39-3.61,4.17,4.17,0,0,0-3.16.27,3,3,0,0,0-1.21,2.54c0,1.11.43,2.34-.05,3.41-.63,1.4-2.38,1.84-3.77,1.86-2.91,0-5.83-1-8.54-1.95a26,26,0,0,0-3.79-1.06,28.3,28.3,0,0,0-4.69-.53,16.17,16.17,0,0,0-8.38,1.9,14,14,0,0,0-6,6.59,40.38,40.38,0,0,1-2,4.59,5.08,5.08,0,0,1-2.16,2.17,13.62,13.62,0,0,1-2.35.73,4.89,4.89,0,0,0-2.77,1.63,9.84,9.84,0,0,0-1,2,21.19,21.19,0,0,0-1.48,5.74c-.13,1.22-.28,3.3,1,4.07a2.35,2.35,0,0,0,1.91,0c.07,0,.15-.2,0-.17Z"/><path d="M255.34,75c.74-.8.59-2.21.47-3.19a32.07,32.07,0,0,0-.91-4.44,7.9,7.9,0,0,1-.39-1.86c0-.92,0-1.84,0-2.76a22.4,22.4,0,0,1,.54-5.83,5,5,0,0,1,3.51-4c1.56-.41,3.2-.3,4.77-.69a3.21,3.21,0,0,0,2.5-2.23,17.62,17.62,0,0,0,.28-5.13,8,8,0,0,1,.18-2.53,15.74,15.74,0,0,1,1.25-2.62,20.67,20.67,0,0,1,4-5.13,11.38,11.38,0,0,1,2.57-1.84,8,8,0,0,1,2.77-.68,13,13,0,0,1,5.24.74,30.84,30.84,0,0,1,9.8,6c1.37,1.18,2.68,2.43,3.94,3.73A30.12,30.12,0,0,1,299.55,47c2.3,3.5,3.19,7.63,3.57,11.75.19,2.07.27,4.15.37,6.23.05,1.07.1,2.14.18,3.21.05.79.16,1.58.14,2.37-.05,2.7-.27,5.61.47,8.25a3.82,3.82,0,0,0,.64,1.35,1.16,1.16,0,0,0,1.28.3,22.36,22.36,0,0,0,2.35-.79,10.09,10.09,0,0,1,2.38-.37,4.27,4.27,0,0,1,5.18,3.94,24.6,24.6,0,0,1,.31,4.7c0,2,0,3.93-.13,5.89a27.09,27.09,0,0,1-3.32,12,14.46,14.46,0,0,1-4.24,4.85,27.38,27.38,0,0,0-4.53,3.23c-2.49,2.51-1.32,6.13-1.3,9.26a19.72,19.72,0,0,1-.85,7.05,7.2,7.2,0,0,1-1.13,2,2.28,2.28,0,0,0-.56,1.17,3.4,3.4,0,0,0,.46,2.18c.53.65,1.56.7,2,1.43.56.91,0,2.38-.21,3.34-.09.4-.1.83-.2,1.23a6.66,6.66,0,0,1-.75,1.57,15.73,15.73,0,0,0-1.31,2.67,5.17,5.17,0,0,0-.13,2.41,15.1,15.1,0,0,0,1.55,3.83c.5,1.11,1.33,3-.11,3.77-.12.06-.18.33,0,.23a2.1,2.1,0,0,0,.92-2.62,36,36,0,0,0-1.77-4.14,6.2,6.2,0,0,1-.45-2.07,6.29,6.29,0,0,1,1-3.22,8.88,8.88,0,0,0,1.29-2.62c.14-1,.42-2,.54-3a1.93,1.93,0,0,0-.73-2.08c-.37-.24-.8-.38-1.15-.64a2,2,0,0,1-.69-1.46,2.13,2.13,0,0,1,.41-1.87,7.2,7.2,0,0,0,1.05-1.77,17.86,17.86,0,0,0,1-6.41c0-1.91-.26-3.79-.29-5.7a7.13,7.13,0,0,1,.39-2.9,5.58,5.58,0,0,1,1.5-1.94c1.49-1.32,3.3-2.21,4.9-3.38a11.64,11.64,0,0,0,2-2.16,21.23,21.23,0,0,0,1.73-2.59,22.9,22.9,0,0,0,2.2-5.52,46.68,46.68,0,0,0,1.07-12.08,28,28,0,0,0-.28-4.58,5.81,5.81,0,0,0-1.32-3c-1.92-2-5.37-1.11-7.63-.33-.62.22-1.66.69-2.21.14a3.37,3.37,0,0,1-.72-1.51,18.92,18.92,0,0,1-.48-4.69c0-1.26,0-2.52,0-3.78,0-1-.15-2-.21-2.93s-.11-2.14-.16-3.21c-.19-4.09-.36-8.26-1.6-12.2a19.39,19.39,0,0,0-2.6-5.38,33.61,33.61,0,0,0-3.79-4.3,47.09,47.09,0,0,0-8.79-7.21c-3-1.85-6.57-3.37-10.18-3a8.87,8.87,0,0,0-2.33.54A9.22,9.22,0,0,0,272,34a19.65,19.65,0,0,0-4,4.55A23.48,23.48,0,0,0,266.68,41a6.77,6.77,0,0,0-.78,2.25c-.17,1.76.06,3.54-.07,5.31a4.85,4.85,0,0,1-.71,2.53,3.48,3.48,0,0,1-2.18,1.08c-1.61.31-3.29.21-4.86.76-3.34,1.16-3.73,5.33-3.82,8.35,0,1,0,2,0,3a9.08,9.08,0,0,0,.12,2.15c.37,1.42.77,2.85,1,4.3a13.44,13.44,0,0,1,.27,2.36,2.65,2.65,0,0,1-.43,1.85c-.08.09,0,.18.09.09Z"/><path d="M48,219.07a30.07,30.07,0,0,1-.13,4.35,5,5,0,0,1-2,3.66,7.89,7.89,0,0,1-7.82-.46,6.21,6.21,0,0,1-2-2.94,23.16,23.16,0,0,1-1-3.75,41.06,41.06,0,0,1-.82-4.69,51.36,51.36,0,0,1-.14-5.55,71.52,71.52,0,0,1,.64-11,17.16,17.16,0,0,1,1.56-5.15A4,4,0,0,1,39.39,191a3.46,3.46,0,0,1,2.47.84,6.56,6.56,0,0,1,1.65,2.91c.35,1,.59,2.14,1,3.18.23.65.45,1.3.73,1.92s.73,1.45,1.07,2.19a8.6,8.6,0,0,1,.77,2.31c0,.14.18,0,.2-.07a30.76,30.76,0,0,0,.55-6.64c.08-2,.14-4.45,1.32-6.22,1.37-2.05,4.15-2.14,6.34-1.62a4.52,4.52,0,0,1,2.82,1.92,7.92,7.92,0,0,1,1.1,3.41c.33,2.59,0,5.2.2,7.79,0,.28,0,.55.08.83,0,.12.2,0,.19-.09a17.93,17.93,0,0,1,.48-5.21A15.32,15.32,0,0,1,62.53,193a6.29,6.29,0,0,1,1.86-1.81,4.66,4.66,0,0,1,2.47-.62,4,4,0,0,1,3.56,2.3,12.73,12.73,0,0,1,1.15,5c.12,1.63.09,3.27.08,4.9,0,2.65.11,5.31,0,8a22.45,22.45,0,0,1-1.55,8.35c-.86,1.95-2.69,4.73-5.21,3.78-2-.76-2.3-3.36-2.51-5.2,0-.45-.09-.9-.16-1.35,0-.14-.21,0-.21.1,0,2.55,0,5.1,0,7.65,0,1.24-.06,2.74-1.07,3.62a5.07,5.07,0,0,1-1.76.9,9.24,9.24,0,0,1-2.7.53,5.86,5.86,0,0,1-4.25-1.9,19.26,19.26,0,0,1-2.15-2.54c-.74-1-1.47-2.28-.76-3.51.08-.14-.14-.09-.19,0a2.81,2.81,0,0,0,.25,3,17.15,17.15,0,0,0,2,2.62,6.84,6.84,0,0,0,4.27,2.57,7.39,7.39,0,0,0,2.84-.33,8,8,0,0,0,2.06-.83,3.77,3.77,0,0,0,1.6-3.1,39,39,0,0,0,0-3.9v-4.84l-.21.1c.14,1,.21,2,.4,3a5.84,5.84,0,0,0,1.18,2.83,3,3,0,0,0,2.85.93,4.84,4.84,0,0,0,2.6-1.94,15.46,15.46,0,0,0,2.61-7.48,66.67,66.67,0,0,0,.19-9.05c0-1.89,0-3.77,0-5.66a17.76,17.76,0,0,0-.83-5.37,4.62,4.62,0,0,0-3-3.18,5,5,0,0,0-4.66,1.3,11.75,11.75,0,0,0-2.8,5.06,21,21,0,0,0-1,5.79c0,.38,0,.75,0,1.13l.19-.09c-.32-2.65,0-5.33-.2-8-.21-2.33-.92-4.9-3.32-5.84a7.2,7.2,0,0,0-2.06-.43,8.45,8.45,0,0,0-2,0,4.71,4.71,0,0,0-2.72,1.26c-1.48,1.47-1.74,3.79-1.87,5.77a62.75,62.75,0,0,1-.45,7.13c-.05.25-.1.5-.17.75l.2-.07a18,18,0,0,0-1.88-4.65,25.59,25.59,0,0,1-1.21-3.55c-.57-2.05-1.31-4.68-3.7-5.18-3.6-.77-5.09,3.57-5.71,6.29a49.3,49.3,0,0,0-.92,10.43c0,1.93-.08,3.86,0,5.79a32,32,0,0,0,.71,5.52c.28,1.3.53,2.6.92,3.86a8.77,8.77,0,0,0,1.74,3.41c1.81,2,5.1,2.3,7.55,1.54a4.05,4.05,0,0,0,1.67-.9,4.87,4.87,0,0,0,1.09-1.57,10.31,10.31,0,0,0,.64-4.05c0-.74,0-1.48,0-2.23,0-.09-.16,0-.16.08Z"/><path d="M65.07,208.56c.35,4.48.56,9,.69,13.46s.16,9,.18,13.51c0,2.51,0,5,.06,7.54,0,.05.1,0,.1,0,.11-4.49.05-9,0-13.47s-.17-9-.38-13.5c-.13-2.52-.28-5-.48-7.56,0-.09-.16,0-.16.07Z"/><path d="M55.76,218.17c.46,6.45.93,12.9,1.26,19.36.09,1.85.12,3.7.27,5.54,0,.07.11,0,.11,0,0-1.65-.1-3.31-.18-5s-.17-3.18-.26-4.77c-.19-3.22-.41-6.43-.64-9.65l-.39-5.55c0-.1-.17,0-.17.08Z"/><path d="M42,217.27c.53,6.61,1,13.22,1.36,19.84.09,1.86.14,3.72.25,5.58,0,.06.1,0,.1-.05,0-3.34-.2-6.7-.4-10s-.43-6.63-.69-9.94c-.15-1.83-.29-3.65-.44-5.48,0-.11-.19,0-.18.08Z"/><path d="M151,114.85c-.24,4.41-.1,8.83,0,13.24.06,2.2.11,4.4.11,6.61,0,1.1,0,2.21-.06,3.31,0,.56,0,1.14-.08,1.7-.05.35-.13.69-.2,1a7.28,7.28,0,0,0-.28,2.32,2.62,2.62,0,0,0,1.19,2c.07,0,.16-.05.17-.12a42.11,42.11,0,0,0-.17-5.94c-.11-2,0-4,0-6s.14-4,.15-6c0-1.73.15-3.46.19-5.2a14.61,14.61,0,0,0-.64-5.46c0-.1-.19,0-.2.1a35,35,0,0,0-.16,11c.18,1.85.39,3.71.51,5.57s.09,3.82.14,5.73c.07,2.18.18,4.35.18,6.53,0,.12.2,0,.2-.1,0-.68,0-1.35,0-2,0-.12-.18,0-.18.09,0,.67,0,1.35,0,2l.2-.1c0-1.94-.08-3.88-.14-5.82s0-3.79-.12-5.68c-.19-3.7-.78-7.37-.89-11.08a24.89,24.89,0,0,1,.48-6.21l-.2.1a13.45,13.45,0,0,1,.64,4.89c0,1.73-.16,3.45-.19,5.18,0,2-.06,3.93-.12,5.9s-.16,4-.08,6a52.4,52.4,0,0,1,.21,6.63l.16-.12a2.58,2.58,0,0,1-1.15-1.89,6.81,6.81,0,0,1,.25-2.15c.07-.35.15-.7.21-1.05a11,11,0,0,0,.1-1.4c0-1.09.06-2.18.07-3.26,0-4.34-.18-8.68-.25-13,0-2.46,0-4.92.11-7.38,0-.11-.18,0-.18.09Z"/><path d="M106.11,117v-.71c0-.08-.13,0-.13.06-.1,7.44.51,14.88.75,22.31q.11,3.17.11,6.33c0,.12.2,0,.2-.09,0-7.75.41-15.49.38-23.24,0-2.16-.05-4.32-.15-6.48,0-.14-.19,0-.21.07a16.39,16.39,0,0,0-.28,5.5c.1,2,0,3.94,0,5.91s-.13,4.22-.15,6.33,0,4.08.16,6.12c.13,2.34.28,4.67.29,7,0,.13.18,0,.19-.08a3.36,3.36,0,0,0-.22-2.07c0-.11-.23.05-.2.15a3.27,3.27,0,0,1,.23,2l.2-.07c0-4.07-.47-8.13-.45-12.2,0-2.1.07-4.19.13-6.29s.15-4,.08-6-.36-4.26.24-6.31l-.21.08c.36,7.7,0,15.41-.14,23.11,0,2.2-.08,4.4-.08,6.6l.2-.09c0-7.51-.56-15-.8-22.5-.07-2-.11-4.07-.13-6.11,0-.08-.14,0-.13.06v.71c0,.07.12,0,.12-.06Z"/><path d="M198.93,115.75c0,4.21,0,8.42.11,12.63s.12,8.2.07,12.3a28.17,28.17,0,0,0,.48,6.61c0,.11.21,0,.21-.12q0-7,0-14c0-4.34.26-8.67.47-13,0-.86.12-1.71.09-2.57a3.77,3.77,0,0,0-.57-2.16c-.05-.07-.18.06-.18.11-.49,3.72,0,7.5.22,11.23.12,2,.17,4,.19,6s0,4,0,6,.42,4,.43,6c0,.14.23,0,.23-.11,0-1.76-.27-3.52-.39-5.27-.13-2-.06-3.93-.08-5.89s-.05-4-.16-6-.27-3.81-.38-5.72a34.32,34.32,0,0,1,.09-6.33l-.18.11a3.61,3.61,0,0,1,.54,2.08,21.62,21.62,0,0,1-.08,2.28c-.11,2-.22,4-.31,6-.2,4.5-.17,9-.17,13.51v7.8l.2-.12a26.19,26.19,0,0,1-.47-6c0-2,0-4,0-6,0-4.12-.11-8.24-.17-12.36,0-2.37-.06-4.74-.06-7.11,0-.11-.18,0-.18.08Z"/><path d="M94.08,122.2c-2.28,2.18-4.49,4.43-6.72,6.66s-4.44,4.44-6.64,6.67L77,139.31c-.08.07,0,.15.07.07q6.7-6.63,13.37-13.32c1.25-1.26,2.51-2.5,3.74-3.79.07-.07,0-.14-.08-.07Z"/><path d="M91.59,131.64c-.82.83-1.65,1.65-2.45,2.5-.07.06,0,.12.06.06.85-.8,1.67-1.63,2.5-2.46.1-.1,0-.21-.11-.1Z"/><path d="M140.44,120.61l-10.5,10.51-3,3c-.08.08,0,.15.07.07q5.28-5.22,10.52-10.48l3-3c.11-.1,0-.21-.1-.1Z"/><path d="M126.71,130.07l-13.35,13.34c-1.25,1.26-2.5,2.51-3.74,3.78-.07.07,0,.13.06.07,4.5-4.4,8.92-8.89,13.37-13.34l3.76-3.76c.09-.09,0-.19-.1-.09Z"/><path d="M186.81,115.89q-7.87,7.88-15.76,15.76l-4.48,4.52c0,.05,0,.11.06.05,5.29-5.22,10.54-10.49,15.79-15.74l4.49-4.5c.1-.1,0-.19-.1-.09Z"/><path d="M180.51,127.59q-2.14,2.13-4.27,4.28c-.08.09,0,.17.08.09,1.44-1.42,2.86-2.84,4.29-4.27.11-.1,0-.21-.1-.1Z"/><path d="M231.38,126c-4.21,4.21-8.44,8.42-12.64,12.64l-3.56,3.58c-.09.09,0,.18.09.09l12.65-12.64,3.57-3.56c.1-.11,0-.22-.11-.11Z"/><path d="M232.28,118.36q-3,3-6.07,6.08c-.09.09,0,.18.09.09l6.09-6.07c.11-.1,0-.21-.11-.1Z"/><path d="M36,84.82c-1.73,1.68-3.41,3.4-5.09,5.12-.06.06,0,.12.06.06,1.72-1.68,3.45-3.36,5.12-5.08.09-.1,0-.19-.09-.1Z"/><path d="M38.39,86.32c-1.8,1.8-3.61,3.59-5.39,5.41-.08.09,0,.17.08.08,1.83-1.77,3.62-3.58,5.42-5.39.1-.1,0-.21-.11-.1Z"/><path d="M42.59,86q-4.2,4.2-8.38,8.42c-.08.07,0,.15.07.07q4.23-4.17,8.42-8.38c.11-.11,0-.22-.11-.11Z"/><path d="M48.6,86c-3,3-6,6-9,9-.07.07,0,.14.07.07,3-3,6-6,9-9,.09-.1,0-.19-.1-.1Z"/><path d="M56.4,86.32c-2.4,2.4-4.83,4.77-7.18,7.22-.07.07,0,.13.06.07,2.45-2.36,4.83-4.78,7.23-7.18.11-.12,0-.23-.11-.11Z"/><path d="M63.61,86.32c-2.1,2.1-4.21,4.2-6.3,6.31-.07.08,0,.16.08.08,2.12-2.08,4.21-4.19,6.31-6.29.1-.1,0-.19-.09-.1Z"/><path d="M71.41,86.62c-2.7,2.7-5.42,5.39-8.09,8.12-.08.08,0,.15.07.07,2.73-2.67,5.42-5.39,8.12-8.09.09-.1,0-.19-.1-.1Z"/><path d="M76.51,86.62c-2.9,2.9-5.82,5.78-8.68,8.72-.07.07,0,.13.06.07,2.94-2.87,5.82-5.78,8.72-8.69.11-.1,0-.21-.1-.1Z"/><path d="M83.12,87.22Q80,90.37,76.83,93.54c-.06.07,0,.13.06.07,2.13-2.08,4.22-4.19,6.32-6.29.1-.1,0-.2-.09-.1Z"/><path d="M91.82,84.52c-2.6,2.6-5.27,5.15-7.79,7.82-.07.07,0,.14.07.07,2.67-2.52,5.22-5.19,7.82-7.79.1-.1,0-.2-.1-.1Z"/><path d="M96.62,86.62c-1.9,1.9-3.81,3.8-5.69,5.71l.08.09.3-.31c.07-.08,0-.15-.08-.08l-.89.91c-.06.06,0,.12.06.06l.91-.89L91.23,92l-.3.3c-.09.09,0,.17.08.09,1.91-1.89,3.81-3.8,5.71-5.7.1-.1,0-.2-.1-.1Z"/><path d="M101.42,86.62c-2.7,2.7-5.44,5.37-8.1,8.1-.11.11,0,.22.1.11l.6-.61c.09-.09,0-.19-.1-.09l-.6.59.1.11c2.74-2.67,5.41-5.4,8.11-8.11.11-.1,0-.21-.11-.1Z"/><path d="M106.22,87.52c-2.7,2.7-5.41,5.39-8.08,8.12-.08.07,0,.15.07.07,2.73-2.67,5.42-5.38,8.12-8.09.1-.1,0-.21-.11-.1Z"/><path d="M110.43,87.52c-2.61,2.6-5.23,5.18-7.79,7.82-.08.07,0,.15.07.07,2.64-2.56,5.22-5.18,7.82-7.79.11-.1,0-.21-.1-.1Z"/><path d="M116.43,87.82c-2.5,2.5-5,5-7.49,7.52-.08.07,0,.15.07.07,2.54-2.46,5-5,7.52-7.49.1-.1,0-.2-.1-.1Z"/><path d="M123.93,85.12l-3.3,3.3c-1.1,1.1-2.24,2.17-3.28,3.32-.07.07,0,.14.07.07,1.15-1,2.22-2.18,3.32-3.28l3.3-3.31c.1-.1,0-.21-.11-.1Z"/><path d="M128.73,83.32c-2.6,2.6-5.23,5.17-7.78,7.82-.06.07,0,.13.06.06,2.66-2.54,5.23-5.18,7.83-7.78.1-.1,0-.21-.11-.1Z"/><path d="M135.64,86.32q-4.2,4.22-8.39,8.42c-.06.07,0,.13.07.07l8.42-8.39c.09-.1,0-.19-.1-.1Z"/><path d="M143.44,86.92c-2.8,2.8-5.6,5.6-8.38,8.43-.05.05,0,.11.06.05q4.23-4.17,8.42-8.38c.11-.1,0-.21-.1-.1Z"/><path d="M150.34,88.72q-4.05,4.05-8.07,8.13c-.06.05,0,.11,0,.05,2.71-2.68,5.43-5.37,8.13-8.08.1-.1,0-.2-.11-.1Z"/><path d="M160,87.52c-1.9,1.9-3.81,3.8-5.69,5.72-.08.07,0,.15.08.07,1.91-1.88,3.81-3.79,5.71-5.69.1-.1,0-.2-.1-.1Z"/><path d="M169.55,85.42c-2.9,2.9-5.81,5.79-8.68,8.72-.08.07,0,.14.07.07,2.93-2.87,5.82-5.78,8.72-8.69.11-.1,0-.21-.11-.1Z"/><path d="M173.15,86.92c-2.9,2.9-5.81,5.79-8.68,8.72-.07.07,0,.13.07.07,2.92-2.87,5.82-5.78,8.72-8.68.11-.11,0-.22-.11-.11Z"/><path d="M183.66,86.32l-7.5,7.51c-.08.09,0,.17.09.09l7.51-7.5c.11-.1,0-.2-.1-.1Z"/><path d="M193.86,83.32c-3,2.94-5.91,5.88-8.85,8.84-.85.86-1.7,1.71-2.54,2.57-.09.09,0,.17.08.09Q187,90.43,191.41,86L194,83.42c.11-.11,0-.22-.11-.1Z"/><path d="M195.36,86c-2.6,2.6-5.21,5.2-7.79,7.82-.1.09,0,.18.09.09,2.62-2.58,5.21-5.19,7.81-7.79.12-.12,0-.23-.11-.12Z"/><path d="M205.26,83.61q-4.27,4.27-8.54,8.56l-2.54,2.57c-.07.07,0,.14.07.07q4.38-4.34,8.73-8.68l2.4-2.4c.12-.12,0-.24-.12-.12Z"/><path d="M210.67,83.31Q206,88,201.38,92.64c-.08.07,0,.15.08.07q4.68-4.62,9.32-9.28c.12-.12,0-.24-.11-.12Z"/><path d="M211.87,84.81q-4.51,4.5-9,9c-.06.07,0,.14.07.07,3-3,6-6,9-9,.12-.12,0-.23-.11-.12Z"/><path d="M213.67,86.32q-3.15,3.15-6.28,6.32c-.08.07,0,.14.07.07q3.18-3.12,6.32-6.28c.11-.12,0-.23-.11-.11Z"/><path d="M219.67,86q-3.75,3.75-7.49,7.52c-.07.09,0,.16.08.08q3.78-3.72,7.53-7.48c.12-.12,0-.24-.12-.12Z"/><path d="M220.87,87.51c-1.7,1.7-3.4,3.4-5.08,5.12-.08.08,0,.16.07.08,1.73-1.68,3.42-3.38,5.13-5.08.12-.12,0-.24-.12-.12Z"/><path d="M226.28,85.12c-2.21,2.2-4.42,4.39-6.59,6.61-.08.08,0,.16.08.08,2.22-2.17,4.41-4.38,6.61-6.58.12-.12,0-.23-.1-.11Z"/><path d="M233.18,84.82q-3.3,3.3-6.58,6.63s0,.11.06,0l6.63-6.58c.1-.1,0-.21-.11-.1Z"/><path d="M235,85.42c-3,3-6,6-9,9-.07.07,0,.14.06.07q4.55-4.47,9-9c.11-.11,0-.21-.11-.1Z"/><path d="M242.18,85.12q-3.45,3.45-6.88,6.92c-.07.07,0,.14.07.07q3.48-3.44,6.92-6.89c.11-.1,0-.21-.11-.1Z"/><path d="M245.78,86c-2.5,2.5-5,5-7.48,7.52-.06.07,0,.13.07.07,2.53-2.47,5-5,7.52-7.48.12-.12,0-.23-.11-.11Z"/><path d="M250.28,86c-2.4,2.4-4.81,4.8-7.18,7.23-.08.07,0,.15.08.07,2.42-2.37,4.82-4.78,7.22-7.18.11-.12,0-.23-.12-.12Z"/><path d="M251.18,86.61q-3.45,3.45-6.88,6.92c-.08.09,0,.17.08.08q3.48-3.42,6.92-6.88c.11-.12,0-.23-.12-.12Z"/><path d="M259.59,84.51c-3.2,3.2-6.41,6.4-9.58,9.63-.06.07,0,.13.06.07,3.24-3.17,6.43-6.38,9.63-9.58.12-.12,0-.23-.11-.12Z"/><path d="M263.49,83.62c-3,3-6,6-9,9-.06.07,0,.13.06.06,3-3,6-6,9-9,.11-.1,0-.21-.11-.1Z"/><path d="M267.39,85.71c-2.9,2.9-5.81,5.8-8.68,8.73-.07.07,0,.14.07.07,2.93-2.87,5.83-5.78,8.73-8.68.12-.12,0-.24-.12-.12Z"/><path d="M267.09,86.91c-2.7,2.7-5.43,5.38-8.09,8.12-.1.1,0,.19.09.09,2.75-2.66,5.42-5.39,8.12-8.09.12-.12,0-.24-.12-.12Z"/><path d="M271.59,85.71c-2.3,2.3-4.6,4.6-6.88,6.93-.07.07,0,.14.07.07,2.33-2.28,4.63-4.58,6.93-6.88.12-.12,0-.24-.12-.12Z"/><path d="M273.09,87.51q-4.35,4.35-8.69,8.72c-.1.1,0,.2.1.1l8.71-8.7c.12-.12,0-.24-.12-.12Z"/><path d="M279.7,86q-4.35,4.33-8.66,8.69l-2.43,2.44c-.06.07,0,.14.07.07q4.36-4.3,8.7-8.65l2.43-2.43c.12-.12,0-.24-.11-.12Z"/><path d="M208.62,174.5c-.11,9,0,18.06,0,27.09v27c0,5.07,0,10.13,0,15.2,0,.09.15,0,.15-.07,0-.6,0-1.2,0-1.8,0-.07-.11,0-.11.06,0,.6,0,1.2,0,1.81,0,.09.15,0,.15-.07.06-9,0-18.07,0-27.1v-27c0-5.06,0-10.13,0-15.2,0-.09-.15,0-.15.08Z"/><path d="M213.81,174.49c-.05,8.73,0,17.45,0,26.17s0,17.35,0,26c0,4.89,0,9.78,0,14.67,0,.1.17,0,.17-.08l0-2.24c0-.07-.11,0-.11.05l0,2.27c0,.1.17,0,.17-.08,0-8.72,0-17.45,0-26.17v-26c0-4.88,0-9.77,0-14.66,0-.08-.13,0-.13.06Z"/><path d="M220.77,175.17c0,3.82,0,7.64,0,11.45v38c0,4.71,0,9.41,0,14.11,0,.59,0,1.17,0,1.75,0,.1.17,0,.16-.07,0-.23,0-.45,0-.67s-.13,0-.14.06c0,.23,0,.46,0,.68s.16,0,.16-.07c0-4.72,0-9.44,0-14.16V188c0-3.87,0-7.74,0-11.61V175.1c0-.1-.16,0-.16.07Z"/><path d="M228.22,173.14l0,4.77c0,.79,0,1.58,0,2.37a21.53,21.53,0,0,0,0,2.54c0,.09.13,0,.14-.06a23.33,23.33,0,0,0,0-2.51c0-.81,0-1.61,0-2.42v-4.75c0-.08-.13,0-.13.06Z"/><path d="M233.16,172.92V178c0,1.74-.08,3.51,0,5.25,0,.08.12,0,.12-.06.11-1.75,0-3.52,0-5.27v-5.09c0-.1-.15,0-.15.07Z"/><path d="M237.44,171.57v8.83a7.76,7.76,0,0,0,0,1.28c0,.06.08,0,.08,0a17.37,17.37,0,0,0,0-2.5V171.5c0-.09-.14,0-.14.07Z"/><path d="M243.74,171.57v9.5c0,1-.06,2.07,0,3.1,0,.07.1,0,.11-.06.08-1,0-2.08,0-3.12V171.5c0-.09-.14,0-.14.07Z"/><path d="M250.49,174.27v7.54a24.64,24.64,0,0,0,0,2.58c0,.07.11,0,.11,0,.08-.84,0-1.71,0-2.55V174.2c0-.09-.15,0-.15.07Z"/><path d="M255.89,173.37V180a23.59,23.59,0,0,0,0,2.38c0,.07.11,0,.12-.06.07-.77,0-1.56,0-2.33V173.3c0-.09-.15,0-.15.07Z"/><path d="M262.21,173.36c0,4.28-.08,8.56,0,12.83,0,.06.09,0,.09-.05.09-4.27,0-8.56,0-12.83,0-.08-.12,0-.12.05Z"/><path d="M266.83,174.21v-.68c0-.07-.12,0-.12.06,0,1.77,0,3.53,0,5.3s-.08,3.52,0,5.27c0,.07.1,0,.1,0,.11-1.77,0-3.55,0-5.31s0-3.52,0-5.28c0-.07-.12,0-.12.06v.67c0,.08.12,0,.12,0Z"/><path d="M272.1,161c0,5.2,0,10.4,0,15.6,0,1.47,0,2.95,0,4.43,0,.07.11,0,.11-.06.07-1.32,0-2.65,0-4v-3.86l0-7.77v-4.44c0-.09-.15,0-.15.07Z"/><path d="M276.85,161c-.05,5.16,0,10.32,0,15.48,0,1.44-.08,2.9,0,4.34,0,.09.14,0,.15-.07.08-1.29,0-2.59,0-3.88V173c0-2.58,0-5.16,0-7.74l0-4.34c0-.07-.11,0-.11,0Z"/><path d="M282,160.76l0,15.6c0,1.47-.09,3,.05,4.42,0,.06.08,0,.08,0,.12-1.31.05-2.65.05-4V160.69c0-.09-.14,0-.14.07Z"/><path d="M286.19,163.85c0-.22,0-.45,0-.68,0-.08-.14,0-.14.07-.06,4.57,0,9.14,0,13.71,0,1.28,0,2.56,0,3.84,0,.07.11,0,.11,0,.11-4.57,0-9.15,0-13.72,0-1.28,0-2.56,0-3.85,0-.08-.14,0-.14.07,0,.22,0,.45,0,.67,0,.07.12,0,.12-.06Z"/><path d="M291.88,161.45v15c0,.73,0,1.45,0,2.17s0,1.44,0,2.16c0,.08.13,0,.13-.07.11-1.25,0-2.54,0-3.8V161.36c0-.13-.21,0-.21.09Z"/><path d="M297.08,161.9v15c0,1.44-.05,2.89,0,4.32,0,.07.11,0,.11-.05.07-1.27,0-2.54,0-3.8V161.81c0-.1-.17,0-.17.09Z"/><path d="M303.38,160.54q0,8.44,0,16.88c0,1.57-.07,3.16,0,4.73,0,.08.13,0,.13-.07.08-1.41,0-2.84,0-4.26v-4.19c0-2.81,0-5.61,0-8.42,0-1.58,0-3.16,0-4.74,0-.1-.17,0-.17.07Z"/><path d="M310.37,161.89v17.25a16.34,16.34,0,0,0,0,2.1c0,.08.12,0,.12-.05a14.9,14.9,0,0,0,0-1.89V161.82c0-.09-.15,0-.15.07Z"/><path d="M317.54,161.9v18.21c0,1.73,0,3.46,0,5.19,0,.08.13,0,.13-.06.08-3.05,0-6.1,0-9.15V161.81c0-.13-.21,0-.21.09Z"/><path d="M324.07,161.68c0,5.26,0,10.52,0,15.79,0,1.48,0,3,0,4.45,0,.07.12,0,.13-.06.1-5.27,0-10.54,0-15.81v-4.47c0-.12-.21,0-.21.1Z"/><path d="M329.72,160.77q0,9.1,0,18.22v2.59a24.83,24.83,0,0,0,0,2.59c0,.08.12,0,.12-.06a23.58,23.58,0,0,0,0-2.38c0-.74,0-1.48,0-2.22,0-1.52,0-3,0-4.55V160.69c0-.09-.16,0-.16.08Z"/><path d="M334.89,161.9v15.91q0,1.11,0,2.22c0,.78,0,1.57,0,2.35,0,.1.15,0,.16-.08.09-1.36,0-2.74,0-4.1V161.81c0-.12-.18,0-.18.09Z"/><path d="M340.54,159.86q0,8.23,0,16.46c0,1.56-.05,3.14.05,4.7,0,.08.11,0,.12-.06.08-1.41,0-2.83,0-4.24s0-2.75,0-4.12V159.8c0-.09-.14,0-.14.06Z"/><path d="M346.37,159.2q0,9.69,0,19.39c0,1.79,0,3.57,0,5.36,0,.09.14,0,.14-.07.11-6.42,0-12.85,0-19.28v-5.49c0-.1-.18,0-.18.09Z"/><path d="M350.42,161.9q0,9.1,0,18.22c0,1.73,0,3.46,0,5.19,0,.12.2,0,.2-.09.05-3.05,0-6.09,0-9.14s0-6.05,0-9.08v-5.19c0-.11-.18,0-.18.09Z"/><path d="M355.84,160.32q-.06,9.87,0,19.74c0,1.82,0,3.64,0,5.46,0,.09.13,0,.13-.06.07-6.58,0-13.16,0-19.74,0-1.83,0-3.65,0-5.48,0-.09-.15,0-.15.08Z"/><path d="M360.78,163.92q0,10.17,0,20.35c0,1.91-.08,3.85,0,5.76,0,.1.15,0,.15-.07.09-1.7,0-3.41,0-5.11v-5.13c0-3.37,0-6.74,0-10.11v-5.77c0-.1-.17,0-.17.08Z"/><path d="M365.08,160.76c-.12,10.45-.06,20.9-.05,31.35s0,20.86,0,31.29c0,5.76,0,11.51,0,17.27,0,.06.11,0,.11-.06v-.89c0-.06-.09,0-.09,0v.91c0,.06.11,0,.11-.06.08-10.34,0-20.68,0-31s0-20.94,0-31.41c0-5.83,0-11.66-.05-17.48,0-.09-.13,0-.13.06Z"/><path d="M370.46,160.32c-.1,10.43,0,20.86,0,31.3s0,20.77,0,31.16c0,5.81,0,11.63,0,17.44,0,.06.11,0,.11-.05.14-10.44,0-20.88,0-31.31s0-20.79,0-31.18c0-5.82,0-11.63,0-17.44,0-.11-.17,0-.17.08Z"/><path d="M377.24,161c-.13,10.4-.06,20.8-.05,31.2s0,20.68,0,31c0,5.83-.06,11.66,0,17.48,0,.08.12,0,.12-.06.09-5.2,0-10.4,0-15.6V209.42q0-15.51,0-31c0-5.83,0-11.65-.05-17.47,0-.08-.12,0-.12,0Z"/><path d="M382.85,161c-.1,5.16,0,10.32-.05,15.48v15.46q0,15.36,0,30.74c0,5.78,0,11.55.05,17.33,0,.09.14,0,.14-.07.13-10.31,0-20.62.05-30.93V178.24c0-5.77.07-11.55-.05-17.32,0-.09-.15,0-.15.07Z"/><path d="M41.29,96.79c-.28,2.78-.16,5.61-.18,8.39s.08,5.46.13,8.18.09,5.54.06,8.31-.17,5.59-.26,8.39-.16,5.57-.2,8.36c0,1.4,0,2.81,0,4.21s.1,2.71.16,4.06c.11,2.75.08,5.51.11,8.27s.08,5.46.07,8.2c0,3.62-.07,7.25,0,10.87v.29c0,.33.37.35.6.23a1,1,0,0,0,.59-.8v-.32c0-.34-.37-.34-.6-.24a1,1,0,0,0-.58.8c0,.11,0,.22,0,.33,0,.34.38.34.6.23a1,1,0,0,0,.59-.8c0-3,0-6.07,0-9.11,0-5.54,0-11.07.12-16.61.05-2.78.2-5.56.2-8.35s-.05-5.52-.14-8.27c-.19-5.48-.41-11-.32-16.45s.26-11.07.11-16.61c0-.67,0-1.33-.12-2,0-.26-.26-.27-.46-.18a.79.79,0,0,0-.45.61Z"/><path d="M41.45,174.63c7.41.39,14.89,0,22.31.05s14.54.24,21.81.26q21.9.06,43.81.08c29.36,0,58.72-.31,88.08-.32q12.38,0,24.74,0c4.17,0,8.34,0,12.52,0s8.2.31,12.3.18c.76,0,2-1.76.86-1.8-3.71-.12-7.42.16-11.14.18s-7.45,0-11.18,0c-7.35,0-14.7,0-22,0-14.64,0-29.27,0-43.9-.14-29.25-.29-58.51-.19-87.77-.11-8.25,0-16.49.06-24.74.22-4.18.08-8.37.08-12.55.07s-8.35-.18-12.52,0c-.51,0-1.39,1.2-.59,1.24Z"/><path d="M265.18,96.69a29.79,29.79,0,0,0-.37,3.52c0,.57,0,1.13,0,1.7s.09,1.09.1,1.64.48.46.79.31a1.31,1.31,0,0,0,.77-1.06l0-6.28c0-.42-.46-.43-.75-.29a1.25,1.25,0,0,0-.73,1l0,2.69c0,.41.44.42.73.29a1.23,1.23,0,0,0,.71-1V97.4c0-.4-.44-.41-.72-.28a1.19,1.19,0,0,0-.7,1v0c0,.39.44.41.72.28a1.19,1.19,0,0,0,.69-1v-.15c0-.4-.44-.41-.71-.28a1.2,1.2,0,0,0-.7,1c0,.26,0,.52,0,.78s.43.41.71.28a1.18,1.18,0,0,0,.69-1l0-2.73c0-.39-.42-.4-.69-.28A1.18,1.18,0,0,0,265,96c0,4.9.07,9.8.08,14.7s0,9.92.07,14.88.05,10,0,14.94-.11,9.91-.16,14.87-.11,9.72-.16,14.58l0,1.76c0,.5.55.51.89.35a1.5,1.5,0,0,0,.87-1.19c0-.51,0-1,0-1.51s-.55-.52-.9-.35a1.49,1.49,0,0,0-.88,1.21c0,.69,0,1.39,0,2.08,0,.48.52.5.87.34a1.45,1.45,0,0,0,.85-1.16c0-.61,0-1.23-.09-1.84s-.19-1.12-.31-1.69c0-.2-.34-.14-.47-.09a.87.87,0,0,0-.46.55c-.12.65-.22,1.31-.3,2s-.07,1.28-.09,1.92.54.5.87.34a1.47,1.47,0,0,0,.85-1.16c0-.71,0-1.41,0-2.12,0-.5-.56-.51-.9-.35a1.5,1.5,0,0,0-.88,1.21c0,.5,0,1,0,1.49s.54.52.89.35a1.46,1.46,0,0,0,.87-1.19q-.09-7.2-.16-14.38-.09-7.33-.16-14.69t0-14.91c0-5,.08-10,.09-15s0-9.87.06-14.8c0-.6,0-1.2,0-1.8,0-.39-.42-.4-.69-.28A1.16,1.16,0,0,0,265,96v2.75c0,.4.43.41.71.28a1.18,1.18,0,0,0,.69-1v-.79c0-.4-.44-.41-.71-.28a1.2,1.2,0,0,0-.7,1v.15c0,.4.44.4.72.28a1.21,1.21,0,0,0,.69-1v0c0-.4-.45-.41-.72-.28a1.17,1.17,0,0,0-.7,1v1.84c0,.41.45.42.73.29a1.25,1.25,0,0,0,.71-1l0-2.71c0-.42-.46-.43-.75-.29a1.25,1.25,0,0,0-.73,1l0,6.32c0,.45.48.45.79.31a1.31,1.31,0,0,0,.77-1.06c0-.55.09-1.11.09-1.66s0-1.11,0-1.67a23.43,23.43,0,0,0-.36-3.13c-.1-.58-.9,0-.95.35Z"/><path d="M36.39,94.66l-.89,0c-.67,0-1.65,1.47-.72,1.51l2.36.08c.76,0,1.83-1.64.81-1.67l-.89,0c-.77,0-1.9,1.68-.83,1.73a8.75,8.75,0,0,0,.89,0c.79,0,2-1.75.85-1.77l-1.48,0c-.83,0-2,1.81-.89,1.85,7.88.25,15.82,0,23.71,0,7.74,0,15.49.09,23.23,0,4,0,8-.21,12-.3,3.79-.08,7.58,0,11.36.06,7.75.07,15.5-.14,23.24,0,31.16.58,62.36.27,93.52.24,16.61,0,33.22,0,49.82-.2.68,0,1.69-1.52.74-1.53-30.17-.36-60.34-.21-90.51-.2-15.71,0-31.42,0-47.13.14-7.76.07-15.51.11-23.28.07s-15.46.13-23.2-.08c-8.67-.24-17.36-.12-26-.12-8.85,0-17.74-.25-26.58,0-.82,0-2,1.87-.89,1.85l1.52,0c.79,0,1.94-1.79.85-1.77-.3,0-.61,0-.91,0-.76,0-1.88,1.76-.83,1.73l.91,0c.75,0,1.82-1.7.81-1.67l-2.45.08c-.67,0-1.63,1.54-.72,1.51l.92,0c.61,0,1.61-1.41.69-1.44Z"/><path d="M24.56,84.07a6.3,6.3,0,0,0,.86,1.07l.93,1.12c.65.79,1.27,1.6,1.89,2.41l1.85,2.46L31,92.3a8,8,0,0,1,.58,1,13.79,13.79,0,0,0,.75,1.28,2.83,2.83,0,0,0,.78.87c.26.18.58,0,.78-.19s.44-.59.19-.78a4.71,4.71,0,0,1-1.2-1.9,6.45,6.45,0,0,0-.53-1.09c-.27-.4-.58-.77-.86-1.16-1.23-1.63-2.48-3.25-3.82-4.79-.36-.42-.74-.84-1.13-1.23a5.07,5.07,0,0,0-1.17-1c-.33-.16-.94.45-.78.78Z"/><path d="M280.61,85.87c-1.35,1.72-2.79,3.36-4.19,5-.69.83-1.37,1.65-2,2.49-.33.4-.65.81-1,1.22a4.76,4.76,0,0,0-.88,1.35c-.17.54.48.53.76.3a6.44,6.44,0,0,0,1.08-1.3c.32-.41.63-.82.95-1.22.67-.84,1.35-1.66,2-2.49,1.37-1.66,2.71-3.35,3.93-5.12.12-.17.24-.49,0-.6s-.55.17-.68.34Z"/><path d="M25.74,84.79c4.5,0,9,0,13.48.06.79,0,1.92-1.76.85-1.76-5.11,0-10.21,0-15.32,0-.77,0-1.88,1.72-.83,1.72q49.47-.06,98.94-.18t98.8-.08c9.23,0,18.46,0,27.69,0,4.55,0,9.1-.08,13.65-.1,2.34,0,4.69-.06,7,0s4.58.34,6.88.36c.83,0,2-1.83.88-1.84h-.29c-.83,0-2,1.83-.89,1.84h1.18c.83,0,2.06-1.82.9-1.86a2.81,2.81,0,0,0-.29,0c-.84,0-2,1.86-.89,1.86h.28c.82,0,2-1.87.9-1.86H277.5c-.83,0-2,1.85-.89,1.84h.3c.83,0,2-1.85.88-1.84-4.26,0-8.51.43-12.78.41-4,0-8-.1-12-.11-8.23,0-16.46,0-24.69,0q-24.51,0-49,0-49.38,0-98.77-.18-27.87-.06-55.74,0c-.77,0-1.88,1.72-.83,1.72,5.1,0,10.2,0,15.3,0,.79,0,1.92-1.76.85-1.76-4.51,0-9,0-13.54.06-.72,0-1.8,1.63-.79,1.64Z"/><path d="M25.66,75.05a.63.63,0,0,0,.51-.38c.07-.15.07-.39-.15-.39a.66.66,0,0,0-.52.38c-.06.15-.07.39.16.39Z"/><path d="M25.42,76a28.66,28.66,0,0,0-.32,3.2c0,1,0,2,0,3.07,0,.43.47.44.77.3a1.28,1.28,0,0,0,.75-1l0-6c0-.41-.45-.42-.74-.29a1.24,1.24,0,0,0-.72,1c0,.5,0,1,0,1.49,0,.26,0,.53,0,.78s0,.65.25.84.77-.19.91-.45A4.22,4.22,0,0,0,26.57,77c0-.5,0-1,0-1.48s-.46-.42-.74-.29a1.24,1.24,0,0,0-.72,1l0,6c0,.43.47.44.77.3a1.28,1.28,0,0,0,.75-1c0-1,0-2,0-3a13.31,13.31,0,0,0-.07-1.41c-.07-.48-.16-1-.24-1.44s-.81,0-.85.31Z"/><path d="M281.18,74.46a31.5,31.5,0,0,0-.27,5.41l0,5.32c0,.38.41.39.67.26a1.11,1.11,0,0,0,.66-.9c0-2.7,0-5.41,0-8.11,0-.39-.42-.4-.69-.28a1.16,1.16,0,0,0-.68.94v1a1.37,1.37,0,0,0,.3.84c.19.29.71-.22.78-.39a2.9,2.9,0,0,0,.29-1.11v-1c0-.39-.42-.4-.69-.28a1.16,1.16,0,0,0-.68.94q0,4,0,8.09c0,.38.41.39.67.26a1.11,1.11,0,0,0,.66-.9v-5.3a26,26,0,0,0-.28-5.15c-.09-.4-.72.16-.75.36Z"/><path d="M26.27,76.22a20.83,20.83,0,0,0,3.44.28c.7,0,1.41,0,2.11,0s1.42-1.26.62-1.29h-.28c-.6,0-1.45,1.28-.63,1.31,2.17.09,4.34.16,6.51.18.75,0,1.83-1.65.81-1.67-2.61,0-5.21,0-7.81,0-.75,0-1.81,1.66-.8,1.65,10.91,0,21.81-.15,32.72-.21,10.76,0,21.53,0,32.29,0q32.3-.08,64.6-.09l18,0c6.11,0,12.24.15,18.34-.2.22,0,.61-.52.26-.54-5.36-.33-10.74-.21-16.11-.21H164.05l-32.26,0c-21.5,0-43,0-64.51-.09C55.2,75.2,43.12,75.05,31,75c-.75,0-1.81,1.65-.8,1.65,2.6,0,5.21,0,7.8,0,.75,0,1.82-1.67.81-1.67-2.24,0-4.46.09-6.69.18-.59,0-1.43,1.34-.63,1.31h.29c.58,0,1.4-1.32.62-1.29s-1.51,0-2.27,0a26,26,0,0,0-3.64.29c-.26,0-.69.63-.26.7Z"/><path d="M209.1,76.43c.54,0,1.08.18,1.62.21s1.23,0,1.85,0l3.43,0,7,.09c4.67.06,9.35.13,14,.14l28,.09c5.26,0,10.51,0,15.76.13a1.69,1.69,0,0,0,1.37-1c.19-.4.18-1-.4-1l-1.59,0c-.29,0-.59,0-.89,0a4.5,4.5,0,0,0-1.13.3,1.38,1.38,0,0,0-.81.69c-.11.24-.14.57.14.7a2.5,2.5,0,0,0,.84.31,6,6,0,0,0,.85,0l1.62,0a1.72,1.72,0,0,0,1.37-1c.18-.39.18-1-.4-1-9.42.15-18.84.13-28.26.16s-18.75.06-28.12.18l-8,.1-3.9.05c-.68,0-1.36,0-2,0s-1.41.16-2.12.22c-.21,0-.61.5-.25.53Z"/><path d="M77.54,175.76a48.88,48.88,0,0,0-.2,5.8c0,.91,0,1.81.08,2.72s0,2,0,3c0,.39.43.4.69.27a1.15,1.15,0,0,0,.67-.92c.08-3.71.06-7.42.06-11.13,0-.42-.46-.43-.75-.29a1.24,1.24,0,0,0-.72,1c0,8.37,0,16.73,0,25.1l.06,12.55c0,4.15.1,8.29.06,12.43q-.08,7.09-.24,14.2c0,.47.52.47.83.32a1.39,1.39,0,0,0,.82-1.12V239c0-.48-.53-.49-.85-.34a1.45,1.45,0,0,0-.83,1.14l0,1.52c0,.5.55.51.88.35a1.5,1.5,0,0,0,.87-1.19c0-1.5,0-3,0-4.52a30.8,30.8,0,0,0-.21-4.4c-.13-.84-1.3,0-1.37.51a19.43,19.43,0,0,0-.21,2.41c0,.76,0,1.53,0,2.29,0,1.52,0,3,0,4.55,0,.49.53.52.88.35a1.48,1.48,0,0,0,.87-1.19l0-1.48c0-.47-.51-.49-.85-.34a1.43,1.43,0,0,0-.83,1.14l0,.6c0,.46.5.48.83.32a1.37,1.37,0,0,0,.82-1.12q-.15-6.21-.22-12.42c0-4.2,0-8.39,0-12.59q.06-12.54.08-25.08l0-14.09c0-.42-.46-.43-.75-.29a1.24,1.24,0,0,0-.72,1c0,3.7,0,7.39,0,11.08,0,.39.42.4.69.27a1.12,1.12,0,0,0,.67-.92c0-1-.07-1.91,0-2.86s.06-1.91.08-2.86a45.67,45.67,0,0,0-.19-5.61c0-.29-.31-.32-.53-.21a.89.89,0,0,0-.52.71Z"/><path d="M203.15,173.18c-.57-.45-1.22.47-1.22,1s.09.88.11,1.33c.06,1.12.21,2.23.28,3.35.28,4.42.29,8.86.24,13.28,0,2.48-.08,5-.08,7.44l1.48-.71c-.17-1.47-.38-2.93-.45-4.41a10.42,10.42,0,0,1,.42-4.12l-1.44.53c0,7.74.16,15.48.25,23.22,0,1.94,0,3.89.06,5.84,0,1.66,0,3.34.09,5,.21,2.47.66,4.91.83,7.38a18.05,18.05,0,0,1-.06,4.09,5.17,5.17,0,0,1-.47,1.58l-.1.17c.07-.11,0,0,0,.06l-.13.17a1.47,1.47,0,0,0-.41.8c0,.3,0,.61,0,.91s.46.42.74.29a1.24,1.24,0,0,0,.72-1c.05-2.3,0-4.61,0-6.91l-1.5.72a62.86,62.86,0,0,1,.27,7.52c0,.44.49.45.79.3a1.33,1.33,0,0,0,.77-1.05c0-1.16.16-2.31.2-3.47a6.29,6.29,0,0,0-.55-3.29c-.21-.36-.64-.23-.93,0s-.74.72-.53,1.07a6,6,0,0,1,.43,3.09c0,1.13-.18,2.24-.18,3.37l1.56-.75a60.39,60.39,0,0,0-.33-7.49c-.05-.42-.43-.46-.76-.3a1.26,1.26,0,0,0-.74,1c0,2.29,0,4.59,0,6.89,0,.41.45.42.74.29a1.24,1.24,0,0,0,.72-1l0-.89-.19.53a1.92,1.92,0,0,0,.18-.28c-.13.22,0-.08.08-.15s.1-.17.14-.26a7.16,7.16,0,0,0,.29-.75,9.76,9.76,0,0,0,.36-1.51,18.56,18.56,0,0,0,.13-3.65c-.12-2.52-.59-5-.69-7.55-.07-1.48,0-3,0-4.44,0-1.95,0-3.89,0-5.84,0-3.81-.09-7.61-.14-11.42,0-4.34-.09-8.68-.09-13,0-.37-.37-.43-.65-.33a1.39,1.39,0,0,0-.79.85,11.5,11.5,0,0,0-.48,4.37c.07,1.51.28,3,.45,4.52.05.4.43.44.75.29a1.25,1.25,0,0,0,.73-1c0-4.11.08-8.21,0-12.32a81.34,81.34,0,0,0-.53-10.23c-.08-.59-.19-1.18-.29-1.77a4.91,4.91,0,0,1-.05-.67c0-.08,0-.16,0-.25s0,0,0,0a.09.09,0,0,1,0,0c.05-.17,0,0-.25.4l-.31.22h0l-.3.08c-.2-.11-.26-.13-.2-.07.45.44,1.52-.69,1.06-1.06Z"/><path d="M266.28,160.47a47.1,47.1,0,0,0,5.82.18h17c7.64,0,15.29,0,22.93,0,15.24,0,30.48-.2,45.72-.2q6.38,0,12.74.05l6.32.05c2.13,0,4.29-.07,6.42.09.66.05,1.62-1.41.71-1.47a5.25,5.25,0,0,1-.68-.08,1.2,1.2,0,0,0-1.19.59c-.16.22-.45.93,0,1a10.62,10.62,0,0,0,2.18.23,1.76,1.76,0,0,0,1.42-1c.18-.38.19-1.1-.42-1.06l-1.23.08a1.66,1.66,0,0,0-1.32.95c-.19.41-.16.94.39,1l1.16.08a1.74,1.74,0,0,0,1.42-1c.19-.41.19-1.07-.42-1.06a13.71,13.71,0,0,0-2.39.22,1.48,1.48,0,0,0-1,1c-.09.45.18.69.62.61.25,0,.49-.06.75-.08a1.26,1.26,0,0,0,1-.73c.12-.26.14-.77-.29-.74-1.93.13-3.87.07-5.8.08l-5.66.05c-3.79,0-7.57,0-11.36,0-7.63,0-15.26,0-22.89-.09q-22.78-.15-45.57-.11H273.53a60.08,60.08,0,0,0-6.71.19c-.43,0-1.31,1-.54,1.13Z"/><path d="M385.79,160.15c-.19,10.6-.24,21.21-.24,31.81,0,5.26,0,10.51.06,15.77s.09,10.54.06,15.81c0,3-.08,6-.1,9s0,6.08-.06,9.12c0,.46.5.46.8.32a1.35,1.35,0,0,0,.79-1.08l.09-6.35c0-.5-.56-.51-.9-.35a1.49,1.49,0,0,0-.87,1.21c0,1.89,0,3.78,0,5.68,0,.48.52.5.86.34a1.42,1.42,0,0,0,.84-1.16c0-.65-.18-1.32-.26-2,0-.33-.34-.35-.59-.24a1,1,0,0,0-.59.8c-.08.74-.23,1.49-.26,2.23,0,.49.54.49.86.34a1.44,1.44,0,0,0,.84-1.16c.06-1.91.07-3.81,0-5.72,0-.5-.55-.52-.9-.35a1.48,1.48,0,0,0-.87,1.21l.09,6.25c0,.45.49.47.8.32a1.33,1.33,0,0,0,.79-1.08c0-2.7,0-5.4-.06-8.09s-.08-5.27-.09-7.9,0-5.28,0-7.92,0-5.29,0-7.93c.23-10.53.14-21.08.08-31.61,0-5.92-.1-11.84-.21-17.75,0-.3-.32-.3-.52-.21a.86.86,0,0,0-.51.7Z"/><path d="M224.73,184.41l-.16,5.7c0,1.84,0,3.68,0,5.52,0,3.67,0,7.33,0,11v11.12c0,3.68-.1,7.37-.09,11.05,0,2.06.13,4.12.12,6.18s-.06,4.2-.11,6.3c0,.4.45.41.72.28a1.21,1.21,0,0,0,.7-1c0-.52,0-1,0-1.57a6.06,6.06,0,0,0,0-.73,3,3,0,0,0-.22-.7c-.18-.49-1,.22-1,.58l.07.56c0,.23.24.25.42.16a.72.72,0,0,0,.42-.56l.07-.64c0-.25-.27-.27-.43-.22a.91.91,0,0,0-.54.58,5.47,5.47,0,0,0-.21.91c0,.25,0,.51,0,.77,0,.51,0,1,0,1.54s.44.41.72.28a1.19,1.19,0,0,0,.7-1c-.05-1.86-.09-3.71-.1-5.57,0-.92,0-1.84,0-2.76s.09-1.86.09-2.8c0-3.65-.09-7.3-.09-10.95,0-7.37,0-14.74,0-22.11,0-2.07,0-4.15-.05-6.22l-.17-6.16c0-.23-.25-.23-.4-.16a.68.68,0,0,0-.4.54Z"/><path d="M225.16,184.48c2.2.21,4.42.16,6.63.16h72.44c8.8,0,17.59-.16,26.38-.17,4.91,0,9.83.05,14.74.05,4.71,0,9.42-.07,14.12.27.79.06,1.94-1.69.85-1.77a14.59,14.59,0,0,0-1.87,0,1.53,1.53,0,0,0-1.23.89c-.16.35-.18.94.36.92H358a1.49,1.49,0,0,0,1.21-.88c.16-.35.17-.91-.35-.91h-.37c-.82,0-2,1.77-.87,1.81a17.05,17.05,0,0,0,1.89,0,1.52,1.52,0,0,0,1.2-.87c.14-.32.17-.93-.35-.9-4.27.29-8.52.28-12.79.28s-8.77.05-13.15,0c-8.74,0-17.48-.17-26.22-.17H233.29c-2.53,0-5.07-.06-7.59.16-.44,0-1.3,1.06-.54,1.13Z"/><path d="M360.69,186.23c.19,0,.46-.43.2-.43s-.46.43-.2.43Z"/><path d="M360.1,184.61a62,62,0,0,0-.36,7.71c0,2.52,0,5.05,0,7.57,0,.43.47.44.77.3a1.26,1.26,0,0,0,.75-1l-.07-7.17c0-.39-.43-.4-.7-.28a1.19,1.19,0,0,0-.68.94c.06,6.23.16,12.45.16,18.67s0,12.5,0,18.75c0,1.76,0,3.51,0,5.26s-.1,3.58-.15,5.36c0,.42.46.43.74.3a1.28,1.28,0,0,0,.73-1c0-.81,0-1.64.08-2.45.05-.47-.54-.46-.83-.32a1.4,1.4,0,0,0-.81,1.11,8.47,8.47,0,0,0,0,1.51c0,.46.49.49.84.33a1.38,1.38,0,0,0,.82-1.13c0-.38-.09-1-.49-1.21l.15.24V238c0-.28-.3-.29-.49-.2a.85.85,0,0,0-.49.66v.07l.14-.37a3.43,3.43,0,0,0-.48,1.67c0,.48.54.47.84.33a1.42,1.42,0,0,0,.82-1.13,8.35,8.35,0,0,0,0-1.5c-.1-1-1.72.05-1.64.79s.06,1.58.09,2.36c0,.42.44.43.74.3a1.26,1.26,0,0,0,.73-1c-.09-3.09-.2-6.17-.2-9.26v-9.39c0-6.26,0-12.52.05-18.77q.06-5.3.11-10.58c0-.39-.43-.4-.7-.28a1.17,1.17,0,0,0-.68.94l-.07,7.24c0,.43.48.44.77.3a1.28,1.28,0,0,0,.75-1q0-3.75,0-7.5c0-1.22,0-2.45-.06-3.67a28.21,28.21,0,0,0-.29-3.67c-.08-.48-.75,0-.79.29Z"/><path d="M22.6,242.79c2.4,0,4.78.06,7.18.06.77,0,1.88-1.72.83-1.72l-7.67,0c-.76,0-1.83,1.68-.81,1.68h3.61c.75,0,1.83-1.68.8-1.68H22c-.75,0-1.82,1.67-.8,1.67q51.87,0,103.75-.15c9.71,0,19.43,0,29.14,0,.6,0,1.44-1.32.64-1.32H143.51c-.59,0-1.43,1.31-.63,1.31l21.61,0c.58,0,1.41-1.28.62-1.28h-.45c-.58,0-1.4,1.28-.62,1.28,15.84,0,31.67.3,47.51.3l47.12,0c31.4,0,62.81-.27,94.22-.26h26.48c8.91,0,17.82.39,26.73.29.87,0,2.1-1.94.93-1.92h-.58c-.86,0-2.08,1.92-.92,1.91l2.39,0c.83,0,2-1.85.88-1.84l-.9,0c-.8,0-2,1.79-.87,1.81h.89c.83,0,2-1.82.88-1.84l-2.35,0c-.86,0-2.09,1.89-.92,1.91h.57c.87,0,2.1-1.91.93-1.92-8-.08-16,.29-23.94.29H359.28c-15.69,0-31.39.12-47.09,0-31.33-.31-62.66-.22-94-.23-17.85,0-35.69.3-53.54.29-.58,0-1.4,1.28-.62,1.28h.45c.58,0,1.41-1.28.62-1.28h-21.6c-.59,0-1.43,1.3-.63,1.31h11.25c.6,0,1.44-1.32.64-1.32q-51.81,0-103.62-.14-14.55,0-29.11,0c-.75,0-1.83,1.67-.8,1.67h4.5c.75,0,1.83-1.68.8-1.68h-3.6c-.76,0-1.83,1.68-.81,1.68,2.55,0,5.1,0,7.65,0,.77,0,1.88-1.72.83-1.72-2.42,0-4.83,0-7.24.06-.7,0-1.76,1.58-.77,1.6Z"/><path d="M56.81,109.28a6.38,6.38,0,0,0,.13-.86c0-.36-.41-.36-.64-.25a1.1,1.1,0,0,0-.63.87,45.63,45.63,0,0,0,0,6.51c.07.76,1.27,0,1.22-.58l-.1-1.14a9.49,9.49,0,0,1,0-1.19c0-.8.09-1.61.1-2.41,0-.36-.39-.36-.63-.25a1,1,0,0,0-.62.85c-.09,5,0,10,0,15s.11,10,0,15l-.08,4.29c0,.69,0,1.39,0,2.08a15.69,15.69,0,0,0,0,2.17c.1.88,1.48,0,1.41-.67l-.08-.64c0-.35-.36-.38-.63-.25a1.09,1.09,0,0,0-.63.85l-.07.71c-.05.41.47.4.71.28a1.23,1.23,0,0,0,.7-.95,31.28,31.28,0,0,0,0-3.75c0-1.24,0-2.48-.08-3.72,0-2.48-.07-5-.08-7.46s0-5,.06-7.52l0-7.52c0-2.83,0-5.66,0-8.49,0-.35-.39-.36-.63-.25a1,1,0,0,0-.62.85c0,.77.06,1.55.1,2.32a8.23,8.23,0,0,1,0,1.11l-.11,1.29c0,.35.4.35.62.24a1,1,0,0,0,.6-.82,47.73,47.73,0,0,0,0-6.55c0-.35-.38-.37-.64-.25a1.06,1.06,0,0,0-.63.87,3.6,3.6,0,0,0,.13.73c.05.22.37.16.51.1a.92.92,0,0,0,.5-.59Z"/><path d="M54,147.43c1,0,2.1,0,3.14,0,.61,0,1.48-1.36.65-1.35l-3.41.06c-.54,0-1.32,1.24-.58,1.22s1.36,0,2,0c.52,0,1.25-1.14.55-1.14H55.23c-.52,0-1.26,1.15-.55,1.15q38,.09,76,0H237.73c1.75,0,3.51,0,5.26,0a49,49,0,0,0,5.14.2c.88-.08,1.92-1.86.62-1.69l-1.17.15c-.65.09-1.34,1.49-.33,1.36l.69-.09c.45-.06,1.17-1.08.44-1.19l-.63-.1c-.62-.09-1.54,1.27-.67,1.4l1,.16c.78.12,1.88-1.61.82-1.72a33.5,33.5,0,0,0-4.58.2c-1.63.06-3.27,0-4.9,0H97.92q-21.35,0-42.69,0c-.52,0-1.25,1.15-.55,1.15H55.8c.52,0,1.25-1.14.55-1.14s-1.34,0-2,0-1.33,1.2-.58,1.22c1.11,0,2.23.06,3.34.07.61,0,1.48-1.34.65-1.35-1,0-2.1,0-3.16,0-.57,0-1.44,1.29-.63,1.31Z"/><path d="M245.65,110.41a5.2,5.2,0,0,0-.19,1.17,2.38,2.38,0,0,0,.06.92c.24.56,1.3-.29,1.09-.78a1.21,1.21,0,0,1-.06-.6c0-.28,0-.56,0-.84s-.34-.3-.53-.21a.89.89,0,0,0-.52.71l0,.69c0,.32.35.32.56.22a1,1,0,0,0,.55-.75c0-.6,0-1.21,0-1.81,0-.33-.36-.34-.58-.23a1,1,0,0,0-.57.78c-.05,4.78,0,9.55,0,14.32s0,9.53-.12,14.29c0,1.25-.07,2.51-.09,3.77a12.56,12.56,0,0,0,.28,3.41c.08.3.52.13.68,0a.82.82,0,0,0,.39-.79l-.07-.28c-.06-.2-.34-.16-.47-.09a.84.84,0,0,0-.46.53l-.08.36a.31.31,0,0,0,.41.4,1,1,0,0,0,.68-.67,28.34,28.34,0,0,0,.2-6.51c-.06-2.35-.08-4.69-.11-7-.06-4.74,0-9.48,0-14.22,0-2.69,0-5.37,0-8.05,0-.33-.36-.34-.58-.23a1,1,0,0,0-.57.78c0,.6,0,1.2,0,1.79,0,.31.33.33.56.22a.94.94,0,0,0,.55-.75l0-.66c0-.3-.32-.31-.53-.21a.89.89,0,0,0-.52.71,4.46,4.46,0,0,1,0,1.46c-.08.29.14.48.42.42a1,1,0,0,0,.68-.69,3.63,3.63,0,0,0-.13-2c-.13-.45-.79.19-.83.4Z"/><path d="M56.64,109.22l2,0c.67,0,1.61-1.48.71-1.48H57.78c-.66,0-1.61,1.48-.71,1.48h2c.67,0,1.61-1.48.71-1.48h-.9c-.67,0-1.62,1.48-.71,1.48l73.49,0h93.8c3.31,0,6.63,0,9.95-.08,1.71-.06,3.41-.09,5.12-.1s3.26.24,4.9.26c.71,0,1.74-1.58.76-1.59l-1.79,0c-.74,0-1.8,1.64-.79,1.65h1.71c.75,0,1.82-1.67.8-1.67H246c-.76,0-1.83,1.67-.81,1.67h.14c.75,0,1.82-1.67.8-1.67h-1.72c-.74,0-1.79,1.66-.79,1.65l1.82,0c.71,0,1.73-1.6.76-1.59-1.48,0-2.94.21-4.42.26s-3.13,0-4.68,0c-2.91-.14-5.83-.12-8.74-.13-6,0-12,0-18,0H58.91c-.67,0-1.62,1.48-.71,1.48h.9c.67,0,1.61-1.48.71-1.48h-2c-.66,0-1.61,1.48-.71,1.48h1.58c.67,0,1.61-1.49.71-1.48-.68,0-1.36,0-2,0s-1.57,1.4-.68,1.42Z"/></g></svg>