<svg xmlns="http://www.w3.org/2000/svg" viewBox="0 0 430 294"><path d="M308.84,224.1c-14.44-3.36-30.65-1.39-45.42-1.39h-35.8c1.3-.16,2.59-.33,3.87-.54a4.56,4.56,0,0,0,2.19-2.15c10.44-4.07,18.14-14.09,22.63-24.46a144.29,144.29,0,0,0,11.32-61.64c-.94-21.42-12.77-37.34-30.87-48.07-16.53-9.8-38-13.51-56.14-6.32a4.67,4.67,0,0,0-2.92,1.3c-.36.17-.72.3-1.06.48a3.27,3.27,0,0,0-1.41,1.74c-15,13.56-28.68,29-42.81,43.46a5.17,5.17,0,0,0-.83,1.09l-.13.13h-.18a3.76,3.76,0,0,0-2.66,1.38,5.73,5.73,0,0,0-.49.64c-.1.16-.18.31-.26.47a2.52,2.52,0,0,0-.22,1.59,1.14,1.14,0,0,0,.09.26,2.15,2.15,0,0,0-.26.94l-.12,7.67c0,1.94-.56,4.36.59,6-1.11,1-2.17,2.74-.68,3.12,8,2,17,1,25.23,1l28.35,0c12,0,24.16.38,36.26.14-.92,8.32-.4,16.85-.4,25.18,0,6.46-.87,14-.53,21-4.92-.61-10.08-.07-15,0-7.44.07-14.89.13-22.33.14-15.87,0-32.18-1-48,.38a2.87,2.87,0,0,0-1.17.45c-1.5,0-3.42,2.11-2.54,3.31a1,1,0,0,0,.33.85c-.75,3-.37,6.25-.31,9.33,0,2.93-.68,6.31.43,9.08-.35.72-.33,1.42.56,1.81l.37.14c-6.37-.15-12.83-.24-18.94,1.06-1.22.26-4.75,4-2.25,4.66,5,1.35,10.53,1.25,15.91,1.09-2,1.64-3.49,4.59-.67,4.79,6.53.47,13.11.72,19.7.87-.83,1.18-1.17,2.45.19,2.72,10.4,2,21.79.86,32.36.89l35.4.1q17.7,0,35.41,0c11.78,0,25.16,1.78,36.58-1.34a5.79,5.79,0,0,0,2.76-2.73,66.34,66.34,0,0,0,9-1.42c1-.24,3.93-3.17,2.23-4a101,101,0,0,0,10.77-1.4C308,227.73,310.89,224.58,308.84,224.1Z" fill="#b7b7b7"/><path d="M216.69,192.52a4.38,4.38,0,0,0-.37-.67.58.58,0,0,0-.48-.25c1.45-5.87.89-12.13.89-18.14,0-7.2.06-14.4-.15-21.6,0-1-.37-1.42-1-1.52a3.21,3.21,0,0,0-2.08.49c-5.9-1.87-13.57-.65-19.55-.7-8.57-.08-17.14,0-25.71-.06q-25.75,0-51.52,0a2.58,2.58,0,0,0-.29,0c-1.62.08-3.51,2.37-3.54,3.88a1.51,1.51,0,0,0,0,.52.94.94,0,0,0,.23.43l.07.08a.43.43,0,0,0,.1.09,1.09,1.09,0,0,0,.59.19,2.72,2.72,0,0,0,.31,0q25.74.09,51.49,0c8.59,0,17.18,0,25.77-.06,6.15-.05,12.8.6,18.95-.49-.2,7.23-.15,14.47-.14,21.7,0,5-.74,10.73.46,15.73-5.7-1.16-12.32-.19-17.92-.19H119.16a2,2,0,0,0-.81.19s0,0,0,0a2.18,2.18,0,0,0-2.46-.06c-1.34.64-3.46,2.75-2.71,4.45l.06.13c.49,1.11,1.79,1,2.71.52.08,0,.15-.1.23-.15a2.06,2.06,0,0,0,.53.07h73.69c6.54,0,13.5.77,20-.57a10.2,10.2,0,0,0,4,.16,3.66,3.66,0,0,0,2.93-2.13C217.54,194,217.61,192.66,216.69,192.52Z" fill="#c49257"/><path d="M210,188.23c-.45-.15-.9-.27-1.35-.38a.59.59,0,0,1,0-.08c1.45-4.66,1-9.73,1-14.58,0-5.34.41-10.88-.75-16.11-.28-1.29-2.59-.9-3.59,0-3.83-1.7-6.78-1-11-1l-18.91,0-37.81.07a3.05,3.05,0,0,0-1.45.43,1.5,1.5,0,0,0-.91-1,2.3,2.3,0,0,0-2.11.55,4.68,4.68,0,0,0-1.43-.18l0,0a2.47,2.47,0,0,0-1.09.24,3.76,3.76,0,0,0-2.22,3.06,4.91,4.91,0,0,0,.16,1.43,2.5,2.5,0,0,0,.61.82c-.08,4.55,0,9.07.23,13.61a1.94,1.94,0,0,0-.19.54c-.07.38-.12.67-.15.95-.66,4.17-1.12,8.39,0,12.5a1.82,1.82,0,0,0,.1,2.14,1.5,1.5,0,0,0,1.51.32c12.13,2.52,26.15.67,38.53.67s27.21,2.16,39.33-1C209.29,191.15,211.66,188.81,210,188.23Z" fill="#7f7f7f"/><path d="M195.1,158.19c.82-1.35,1-3.3-.48-4.13a1.61,1.61,0,0,0-.28-.38c-.92-.93-2.35-.14-3.23.38a8,8,0,0,0-1,.71c-4-1.56-8.87-.72-13.13-.72-5.81,0-12.13-1-17.57,1.16v-.28c-.21-2.86-4.23.33-4.35,2.09-.43,6.29-.88,12.55-.88,18.85,0,4.89-1.26,11.3,1.26,15.61a1,1,0,0,0,.28.3c-.52.82-.61,1.67.39,2.17,4.81,2.39,11.68,1.14,17,1.16,5.62,0,11,.66,16.18-1.76a4.1,4.1,0,0,0,1.12-.94v.3c.08,3.91,6.17-.27,6.23-3C196.8,179.06,195.57,168.75,195.1,158.19Z" fill="#b7b7b7"/><path d="M268.41,130.45c-3.2-4.54-8.61-2.86-11.92.45-4.88,4.88-5.24,13.09-5.94,19.54a94,94,0,0,0,5.63,44.5c1.29,3.29,3.12,6.12,6.86,4.37,3.47-1.63,4.79-6,5.52-10a42.14,42.14,0,0,0,1.62-6c1.82-8.57,2-17.43,2.36-26.15C272.89,147.83,274,138.4,268.41,130.45Z" fill="#5ba354"/><path d="M105,223.22q21,.08,42.1.05c.23,0,.56-.52.25-.52h-41c-.23,0-.56.52-.25.52l88.89,0q44.28,0,88.57,0,24.94,0,49.9,0c.25,0,.61-.56.27-.56h-8.11c-.25,0-.6.55-.26.55h1.08c.24,0,.59-.55.26-.54q-6.22,0-12.46.09c-.16,0-.4.36-.18.36l12.38.09c.24,0,.59-.54.26-.54h-1.08c-.25,0-.6.55-.26.55,2.7,0,5.4,0,8.1,0,.25,0,.61-.56.27-.56q-44.26,0-88.52,0l-88.67,0H106.3c-.23,0-.56.52-.25.52H147.1c.23,0,.56-.52.25-.52q-21.07,0-42.15.05c-.19,0-.46.42-.2.42Z"/><path d="M127.6,132.36l0,25.81q0,12.79,0,25.59v14.51c0,.26.43,0,.43-.21V174.18l0-23.69V137c0-.29-.48,0-.48.24v33q0,16.42,0,32.85c0,6,.1,11.91.1,17.86,0,.2.33,0,.33-.16,0-5.33.08-10.65.09-16s0-10.84,0-16.26V137c0-.29-.48,0-.48.24q0,11.93,0,23.87t0,23.67v13.47c0,.26.43,0,.43-.21q0-12.88,0-25.79t0-25.58l0-14.5c0-.21-.36,0-.36.17Z"/><path d="M298.31,131.8c0,9.3-.11,18.6-.12,27.9s0,18.56,0,27.84v15.6c0,.27.45,0,.45-.22q0-13.2,0-26.41V135.4c0-.3-.49,0-.49.24v87c0,.29.49,0,.49-.24,0-3-.07-6.1-.07-9.15,0-.21-.35,0-.35.17,0,3.07-.07,6.14-.07,9.22,0,.29.49,0,.49-.24V154.53q0-9.56,0-19.13c0-.3-.49,0-.49.24V162q0,13.1,0,26.19c0,5,0,9.94,0,14.91,0,.27.45,0,.45-.22,0-9.29,0-18.57,0-27.85s.05-18.56,0-27.83q-.08-7.78-.07-15.56c0-.16-.26,0-.26.12Z"/><path d="M127.33,131.16c5.69-5.58,11.3-11.23,16.93-16.86l17-17,16.91-16.92,17-17L212,46.57l2.05-2c.27-.27,0-.54-.26-.27l-13,13L187.68,70.36,174.59,83.47Q168,90,161.46,96.64l-13.2,13.25-1.65,1.66c-.15.15,0,.29.15.15q6.62-6.63,13.26-13.21L173.2,85.35l13.11-13.1,13.07-13.06,13.05-13,1.62-1.62c.27-.27,0-.54-.26-.27l-16.9,16.9L179.94,78.1,163,95l-17,17c-5.63,5.63-11.3,11.24-16.89,16.92l-2,2.07c-.18.19,0,.37.18.19Z"/><path d="M300,130.09c-5.73-6-11.63-11.76-17.46-17.61q-8-8-16-16L250.86,80.83l-16-16q-8.62-8.63-17.3-17.23l-2.27-2.24c-.16-.16-.56.24-.39.4l.9.88.37-.37-2-2c-.13-.13-.44.18-.31.31.37.36.75.71,1.12,1.08.11.11.39-.16.27-.28-.36-.36-.72-.74-1.08-1.11-.12-.13-.43.18-.31.31l2,2c.15.16.53-.21.37-.37s-.58-.61-.88-.91-.55.23-.39.4c5.79,5.9,11.64,11.74,17.48,17.59l16,16L264.06,95q8,8,16,16,8.64,8.61,17.3,17.22c.75.75,1.52,1.48,2.29,2.22.14.13.47-.19.33-.33Z"/><path d="M119.06,151.08c6.3.13,12.6.07,18.9.07h29.26c.22,0,.55-.5.24-.5l-20.53,0H114.82c-.25,0-.6.54-.27.54h93.56c.26,0,.63-.57.28-.57H193.8c-.25,0-.62.58-.27.58,6.39,0,12.79,0,19.19,0,1.58,0,3.17-.07,4.76-.07.16,0,.37-.34.17-.34-2.91,0-5.82-.07-8.73-.09q-4.87,0-9.75,0H193.8c-.25,0-.62.58-.27.58h14.58c.26,0,.63-.57.28-.57H114.82c-.25,0-.6.54-.27.54H155.6l11.62,0c.22,0,.55-.5.24-.5q-18.79,0-37.59,0c-3.55,0-7.1,0-10.65.08-.14,0-.37.32-.16.33Z"/><path d="M113.7,150.59c0,6.12,0,12.24,0,18.35l0,18.68c0,3.33,0,6.66,0,10,0,.31.51,0,.51-.24q0-9.15,0-18.29V160.75c0-3.19,0-6.36,0-9.54,0-.29-.45,0-.46.22-.1,5.81,0,11.62,0,17.43v18.57q0,5.1,0,10.18c0,.31.51,0,.51-.24q0-9,0-18,0-9.37,0-18.74l0-10.18c0-.21-.35,0-.35.17Z"/><path d="M112.55,197.71c6.92.16,13.86,0,20.78.06h85.31c.26,0,.62-.56.27-.56H209.6c-.26,0-.62.56-.27.56,2.57,0,5.15,0,7.72-.05.2,0,.49-.46.22-.46l-.82,0c-.18,0-.45.39-.2.4l.8,0c.2,0,.5-.45.22-.46-2.56-.07-5.12,0-7.67,0-.26,0-.62.56-.27.56h9.31c.26,0,.62-.56.27-.56H136.12c-7.78,0-15.57-.12-23.35.05-.2,0-.5.44-.22.44Z"/><path d="M216.58,150.59q-.06,9.51-.07,19l0,18.94v10.68c0,.34.55,0,.55-.26V163.27c0-3.36,0-6.71,0-10.06,0-.33-.54,0-.53.26,0,.8,0,1.59.08,2.39,0,.24.37,0,.37-.18,0-.82.08-1.64.08-2.47,0-.32-.53,0-.53.26,0,6,0,11.93,0,17.9v27.87c0,.34.55,0,.55-.26q0-9.49,0-19t0-18.91c0-3.56,0-7.11-.06-10.66,0-.22-.35,0-.35.17Z"/><path d="M114.16,156.3c6.27.1,12.55,0,18.83,0h56.08c7,0,14,.14,21-.11.14,0,.37-.33.16-.34-6.26-.23-12.53-.11-18.79-.11H135.35c-7,0-14-.08-20.94,0-.23,0-.58.52-.25.52Z"/><path d="M210,155.85c-.11,4.93-.08,9.85-.08,14.78v14.69c0,2.7,0,5.41,0,8.11,0,.32.52,0,.52-.25,0-1.44,0-2.87,0-4.31,0-.3-.47,0-.47.23,0,1.44,0,2.89,0,4.33,0,.32.52,0,.52-.25q0-7.27,0-14.54t0-14.74c0-2.74,0-5.47-.07-8.21,0-.21-.34,0-.34.16Z"/><path d="M209.45,192.25c-6.19-.14-12.39-.05-18.58-.05H116.41c-.77,0-1.53,0-2.3.06-.19,0-.46.45-.2.43s.37-.05.56-.05.37-.33.16-.33-.34,0-.52-.05-.47.41-.2.43c1.49.14,3,.06,4.5.06h69.85c6.21,0,12.42,0,18.63,0,.77,0,1.55,0,2.32,0,.21,0,.54-.48.24-.49Z"/><path d="M155.21,162.14c-3.44,3.44-6.9,6.87-10.32,10.34-1,1-1.91,2-2.87,2.93-.14.15,0,.29.14.14q5.22-5.12,10.38-10.28l2.9-2.91c.23-.22,0-.45-.23-.22Z"/><path d="M165.48,161.33c-1.35,1.36-2.7,2.7-4,4.09-.16.15,0,.3.15.15,1.38-1.32,2.73-2.67,4.08-4,.06-.06.16-.21.07-.29s-.22,0-.28.07Z"/><path d="M161.68,176.17c-3.15,3.15-6.33,6.28-9.4,9.5-.14.15,0,.29.15.15,3.22-3.08,6.35-6.25,9.5-9.4.24-.25,0-.5-.25-.25Z"/><path d="M193.82,161.33c-2.7,2.69-5.41,5.38-8.06,8.14-.15.15,0,.3.15.15,2.75-2.65,5.45-5.36,8.14-8.06.24-.24,0-.47-.23-.23Z"/><path d="M251.83,139.24c-.5,4.85-1,9.7-1.3,14.56a120.24,120.24,0,0,0-.12,14.58,71.87,71.87,0,0,0,2.22,14.37,54.06,54.06,0,0,0,3.44,9.62,18.33,18.33,0,0,0,2.5,4,7.2,7.2,0,0,0,3.33,2.35,4.39,4.39,0,0,0,1,.16c.1,0,.18-.09.23-.16a58.91,58.91,0,0,0,6.2-16,100.06,100.06,0,0,0,2.56-18.3,107.56,107.56,0,0,0-.45-17.4,59.29,59.29,0,0,0-1.57-9,22.16,22.16,0,0,0-3.93-8.25,9.47,9.47,0,0,0-3-2.58,6.18,6.18,0,0,0-2.94-.78,4.9,4.9,0,0,0-4.46,3.5,9.59,9.59,0,0,0-.46,2c0,.27.34.09.37-.09.3-2.17,1.32-4.56,3.71-5,2.22-.37,4.44,1,5.86,2.56,4.11,4.58,5.22,11,5.93,16.93a105.71,105.71,0,0,1,.64,16.59,102.24,102.24,0,0,1-2.17,17.95A61.45,61.45,0,0,1,263.77,197c-.3.57-.62,1.14-1,1.69l.2-.12c-3-.31-4.93-3.28-6.2-5.7a48.5,48.5,0,0,1-3.41-9,69.56,69.56,0,0,1-2.52-14.25,111,111,0,0,1-.09-14.36c.24-4.82.7-9.63,1.19-14.43.05-.58.11-1.17.17-1.75,0-.19-.3,0-.32.15Z"/><path d="M260.72,198.52c-.06,6.28,0,12.56,0,18.84,0,1.73,0,3.45.07,5.18,0,.19.3,0,.3-.14.16-3.1.06-6.2.07-9.3s0-6.27,0-9.41c0-1.78,0-3.56,0-5.34,0-.23-.37,0-.37.17Z"/><path d="M113.72,151c1.78.08,3.56.11,5.34.14a1.25,1.25,0,0,0,1-.73c.13-.29.13-.74-.29-.75-2.07,0-4.14,0-6.21,0a1.27,1.27,0,0,0-1,.75c-.14.3-.14.77.3.77H154l41,0c3.85,0,7.71,0,11.56,0,1.89,0,3.77,0,5.66,0s4-.1,6-.26a.9.9,0,0,0,.71-.51c.08-.19.1-.56-.21-.53l-.56,0c-.38,0-1.09.91-.46,1l.52,0c.47,0,1.15-1,.5-1-1.71-.15-3.41-.24-5.13-.25s-3.37,0-5,0c-3.44,0-6.88,0-10.31,0H113.56a1.27,1.27,0,0,0-1,.75c-.14.3-.14.77.3.77,2.07,0,4.14,0,6.22,0a1.25,1.25,0,0,0,1-.73c.13-.28.13-.75-.29-.75-1.83,0-3.65.07-5.47.14a1.05,1.05,0,0,0-.82.59c-.11.25-.1.6.24.61Z"/><path d="M216.69,150.76a4,4,0,0,0-.16.9c0,.24,0,.47,0,.71,0,.52,0,1,0,1.55,0,.36.4.37.65.25a1.08,1.08,0,0,0,.63-.87c0-1.53,0-3.06,0-4.6,0-.38-.42-.39-.68-.26a1.11,1.11,0,0,0-.66.9c0,6.4,0,12.8,0,19.2s0,12.81,0,19.22l0,5.17c0,.87,0,1.73,0,2.6a10.12,10.12,0,0,0,.05,1.23c.05.4.14.79.21,1.19,0,.2.34.14.46.09a.85.85,0,0,0,.45-.53,16,16,0,0,0,.25-2.39c0-.75,0-1.5,0-2.25l0-4.63c0-3.14,0-6.29,0-9.43V159.42c0-3.57,0-7.15,0-10.72,0-.38-.42-.39-.68-.26a1.13,1.13,0,0,0-.66.9c0,1.53,0,3,0,4.58,0,.36.4.37.65.25a1,1,0,0,0,.63-.87c0-.51,0-1,0-1.53,0-.24,0-.48,0-.72a2.72,2.72,0,0,0-.16-.74c-.06-.21-.33-.16-.48-.1a.87.87,0,0,0-.46.55Z"/><path d="M114,198c.53,0,1.06,0,1.6,0a1.18,1.18,0,0,0,1-.71c.13-.28.13-.72-.28-.72h-1.62a1.24,1.24,0,0,0-1,.72c-.13.28-.13.73.29.73,13.61.08,27.22,0,40.83,0s27,0,40.47,0h11.34c3.76,0,7.54.13,11.3.08a1.31,1.31,0,0,0,1-.77c.14-.29.14-.78-.31-.77a9,9,0,0,0-1.86.26c-.26.06-1,.87-.49,1a6.32,6.32,0,0,0,1.61.28,1.31,1.31,0,0,0,1-.77c.14-.3.13-.77-.31-.77-3.41-.05-6.83,0-10.24.06s-6.8,0-10.21,0H178l-40.5,0c-7.61,0-15.21,0-22.82,0a1.24,1.24,0,0,0-1,.72c-.13.28-.13.74.29.73h1.63a1.2,1.2,0,0,0,1-.71c.13-.28.13-.72-.28-.72s-1.1,0-1.65.05a1.14,1.14,0,0,0-.9.66c-.13.27-.12.65.26.67Z"/><path d="M113.13,193.33c0,1.27,0,2.53,0,3.8,0,.36.41.39.66.26a1.1,1.1,0,0,0,.64-.89c0-1.25,0-2.5,0-3.76,0-.34-.37-.37-.62-.24a1,1,0,0,0-.6.83Z"/><path d="M114.26,192.83c.53,0,1,.1,1.57.11a1.19,1.19,0,0,0,1-.71c.14-.28.13-.71-.28-.71l-1.34,0a1.2,1.2,0,0,0-1,.72c-.13.28-.13.74.29.74h73.74l10.39,0,5.11,0,2.66,0c.92,0,1.83-.13,2.75-.23.33,0,1-.8.42-.87s-1.44-.2-2.17-.22-1.62,0-2.44,0H200.4l-9.23,0h-76a1.22,1.22,0,0,0-1,.72c-.13.28-.13.74.29.74l1.36,0a1.19,1.19,0,0,0,1-.71c.13-.27.13-.72-.28-.71a15.61,15.61,0,0,0-1.67.11,1,1,0,0,0-.81.59c-.13.26-.1.57.23.61Z"/><path d="M208.8,156c0,2.8-.07,5.6-.07,8.4,0,.34.37.35.61.24a1,1,0,0,0,.59-.82c0-2.43,0-4.87,0-7.31,0-.36-.4-.37-.65-.25a1.08,1.08,0,0,0-.63.87c0,4.6,0,9.2,0,13.81s0,9.16,0,13.74q0,3.9,0,7.82c0,.35.39.36.63.24a1,1,0,0,0,.61-.84,11.49,11.49,0,0,0-.12-2.49c-.05-.22-.37-.16-.51-.1a.91.91,0,0,0-.49.58,14.23,14.23,0,0,0-.12,2.61c0,.35.38.36.63.24a1,1,0,0,0,.61-.84c0-4.61,0-9.21,0-13.81s0-9.17,0-13.76c0-2.6,0-5.21,0-7.82,0-.36-.4-.37-.65-.25a1.08,1.08,0,0,0-.63.87c0,2.42,0,4.85,0,7.27,0,.34.37.35.61.24a1,1,0,0,0,.59-.82c0-2.78,0-5.55-.07-8.33,0-.3-.33-.31-.54-.21a.88.88,0,0,0-.52.72Z"/><path d="M114.62,155.08h-.54a1.19,1.19,0,0,0-1,.69c-.13.28-.12.71.28.72l2.69,0a1.22,1.22,0,0,0,1-.72c.13-.28.13-.73-.29-.73h-1.62a1.2,1.2,0,0,0-1,.71c-.14.29-.13.74.28.74l37.2,0,37.25,0c3.43,0,6.87,0,10.31,0l5.22.06a17.77,17.77,0,0,0,2.63-.06,6,6,0,0,1,.92-.19c.47,0,1.13-1,.5-1a4.58,4.58,0,0,1-.56-.14,10,10,0,0,0-2.19-.12c-1.57,0-3.14,0-4.71.05-3.07,0-6.15,0-9.22,0l-18.6,0-37.23,0H115.17a1.2,1.2,0,0,0-1,.71c-.14.29-.13.74.28.74h1.62a1.22,1.22,0,0,0,1-.72c.13-.28.13-.73-.29-.73l-2.71,0a1.2,1.2,0,0,0-1,.69c-.12.28-.12.72.28.72H114a1.18,1.18,0,0,0,.94-.69c.13-.28.13-.7-.27-.7Z"/><path d="M112.45,152c-.08.7-.15,1.38-.18,2.08s0,1.2,0,1.8c0,.37.42.39.68.26a1.12,1.12,0,0,0,.66-.91v-1.66a7.48,7.48,0,0,0,0-.82,4.73,4.73,0,0,0-.21-.76c-.06-.2-.33-.16-.46-.09a.81.81,0,0,0-.46.53,7.43,7.43,0,0,0-.21,1c0,.27,0,.55,0,.83v1.66c0,.37.42.4.68.26a1.12,1.12,0,0,0,.66-.91c0-.59,0-1.19,0-1.78,0-.31,0-.62,0-.93s-.08-.65-.13-1-.27-.29-.48-.19a.81.81,0,0,0-.48.65Z"/><path d="M127.77,157.39c-.12,3-.11,6-.11,9,0,.37.41.38.67.26a1.12,1.12,0,0,0,.65-.89v-8.37c0-.37-.4-.38-.66-.26a1.11,1.11,0,0,0-.64.89l0,13.44q0,6.74.14,13.48c0,2.52.07,5,0,7.56,0,.28.31.28.5.2a.86.86,0,0,0,.48-.67l.05-2,0-.9a2.35,2.35,0,0,0-.17-1c-.15-.42-.72.17-.78.37a3.46,3.46,0,0,0-.17,1.06l0,.94,0,1.92c0,.28.3.29.5.2a.84.84,0,0,0,.48-.67c-.11-4.5.08-9,.12-13.5s0-9.05,0-13.58v-7.56c0-.37-.4-.38-.66-.26a1.11,1.11,0,0,0-.64.89v8.37c0,.37.41.38.67.26a1.12,1.12,0,0,0,.65-.89c0-3,0-5.91-.1-8.86,0-.32-.34-.33-.56-.22a.92.92,0,0,0-.55.75Z"/><path d="M127.32,131.15a54.38,54.38,0,0,0-.22,5.85c0,1.76,0,3.54.05,5.3,0,.36.39.37.64.25a1.06,1.06,0,0,0,.62-.85c0-2.34,0-4.69,0-7,0-.37-.4-.38-.66-.26a1.11,1.11,0,0,0-.64.88c0,5,0,10.08,0,15.12,0,.37.41.38.66.26a1.09,1.09,0,0,0,.64-.88,20.54,20.54,0,0,0-.2-2.6c0-.25-.26-.27-.45-.18a.78.78,0,0,0-.44.61,23.65,23.65,0,0,0-.21,2.79c0,.37.41.38.66.26a1.09,1.09,0,0,0,.64-.88c0-5,0-10.08,0-15.12,0-.37-.4-.38-.66-.26a1.11,1.11,0,0,0-.64.88c0,2.34,0,4.68,0,7,0,.36.4.37.64.25a1,1,0,0,0,.62-.85c0-1.79.07-3.58.05-5.36a48,48,0,0,0-.21-5.63c0-.26-.27-.28-.47-.19a.81.81,0,0,0-.46.63Z"/><path d="M127.83,130.71q7.67-7.61,15.3-15.23l15.33-15.31L167,91.6c.22-.22.51-.68.24-1s-.76,0-.95.24L145,112.14l-6,6c-.21.22-.51.7-.24,1s.78,0,1-.24l14.41-14.4,14.41-14.4,14.34-14.34,14.43-14.39L211.72,47l1.82-1.82-.86-.86-2.47,2.46c-.42.42-.86.83-1.27,1.27s-.84,1-1.31,1.49c-.2.2-.48.65-.23.92s.74,0,.92-.23c.47-.47,1-.86,1.5-1.31s.84-.84,1.26-1.27l2.46-2.47c.26-.25.61-.81.29-1.15s-.92,0-1.15.29L198.3,58.79Q191.11,66,183.92,73.22L169.58,87.57,155.18,102l-14.34,14.34L139,118.14l.74.74L161,97.6l6-6-.71-.72L151,106.14l-15.32,15.33c-2.85,2.85-5.68,5.73-8.52,8.6-.19.19-.45.6-.22.85s.67,0,.85-.21Z"/><path d="M214.53,45.8c1.82,2,3.66,3.9,5.54,5.8l1.2-1.2c-2.05-2.08-4.11-4.17-6.18-6.24l-1.26,1.26L230.43,62l16.62,16.62Q255.38,87,263.7,95.29L280.4,112c5.58,5.57,11.11,11.2,16.87,16.59l2.12,2c.34.31,1.11-.46.8-.8-2.72-2.9-5.46-5.79-8.25-8.62s-5.51-5.55-8.28-8.32L267,96.07q-8.33-8.34-16.64-16.65L233.73,62.8,217.12,46.19l-2-2c-.52-.51-1.78.74-1.26,1.26q3.1,3.11,6.24,6.18c.49.49,1.7-.71,1.2-1.2-1.91-1.88-3.83-3.72-5.8-5.54-.4-.37-1.32.54-.94.94Z"/><path d="M297.28,130.68c0,2.68-.07,5.35-.1,8s0,5.3,0,8c0,.4.43.41.71.28a1.17,1.17,0,0,0,.68-.94c0-4.05,0-8.1,0-12.14,0-.39-.42-.39-.68-.27a1.13,1.13,0,0,0-.67.91c0,11.51,0,23,0,34.52v48.8c0,.79,0,1.58,0,2.37a9,9,0,0,0,0,1.27c.05.37.17.73.25,1.09.12.51.91-.22,1-.46a10.5,10.5,0,0,0,.24-2.23c0-.73,0-1.45,0-2.18V153.28c0-6.48,0-13,0-19.43,0-.39-.42-.39-.68-.27a1.13,1.13,0,0,0-.67.91c0,4.06,0,8.11,0,12.16,0,.4.44.41.71.28a1.16,1.16,0,0,0,.68-.94c0-2.66.05-5.32,0-8s-.08-5.28-.1-7.92c0-.35-.38-.35-.62-.24a1.07,1.07,0,0,0-.61.83Z"/><path d="M127.34,199.19c-.07.75-.16,1.5-.19,2.25,0,.36.4.36.64.25a1.06,1.06,0,0,0,.62-.86c0-.45,0-.91,0-1.37s-.41-.39-.68-.26a1.11,1.11,0,0,0-.66.91q0,8.88,0,17.77v3.58a2.32,2.32,0,0,0,.16,1.14c.31.57,1-.21,1.13-.54a6.64,6.64,0,0,0,.15-2.18v-6.56q0-4.47,0-8.95l0-4.91c0-.38-.41-.39-.68-.26a1.14,1.14,0,0,0-.66.91c0,.44,0,.89,0,1.33s.38.37.64.25a1,1,0,0,0,.62-.86c0-.69-.11-1.38-.18-2.07,0-.24-.26-.26-.45-.17a.73.73,0,0,0-.44.6Z"/><path d="M106,221.7c-.89,0-1.79-.06-2.68,0-.73,0-1.77,1.64-.78,1.63,1.71,0,3.43,0,5.14,0,.71,0,1.72-1.58.76-1.58H96.84c-.72,0-1.74,1.59-.76,1.6q43.1,0,86.2,0H268c16.12,0,32.23.09,48.34.09.79,0,1.91-1.75.84-1.75l-5.15,0c-.76,0-1.79,1.69-.8,1.65,1.38,0,2.76-.13,4.15-.19.56,0,1.37-1.3.6-1.26-.36,0-.73,0-1.1,0-.53,0-1.28,1.17-.56,1.17.35,0,.7,0,1.06,0,.57,0,1.39-1.23.6-1.26-1.32-.06-2.63-.15-3.95-.2-.76,0-1.8,1.64-.8,1.65,1.7,0,3.41.05,5.11.05.79,0,1.91-1.75.84-1.75q-43.12,0-86.24.09H96.84c-.72,0-1.74,1.6-.76,1.6h11.61c.71,0,1.72-1.58.76-1.58-1.71,0-3.41,0-5.12,0-.73,0-1.78,1.62-.78,1.63s1.81,0,2.72,0c.67,0,1.71-1.53.74-1.54Z"/></svg>