<svg xmlns="http://www.w3.org/2000/svg" viewBox="0 0 430 294"><g style="isolation:isolate"><path d="M331.17,134c1.26-.91,3.3-3.33,1.79-4.4-4.91-3.47-12.77-2-18.38-2l-29.28-.07-62.69-.15q-31.37-.06-62.73,0c-20.91,0-42.15-1.06-63,.39-3.44.24-9.7,8.09-4.09,8.51.64.05,1.27.07,1.91.11a87.88,87.88,0,0,0-.45,13.08c0,3.2-.74,7.46.6,10.51a1.15,1.15,0,0,0,1,1.52l.09,0a1.45,1.45,0,0,0,.83.12c17.29,3,35.83,1.32,53.31,1.33l62.58,0c37.34,0,75.05,1.56,112.36-.06,3.57-.15,9.42-8,4.6-8.65C333.5,148.86,332,140.66,331.17,134Z" fill="#b7b7b7"/><path d="M157.66,236.83c-1.46-5.07-1.52-10.16-1.56-15.33a26.72,26.72,0,0,0,0-3.46,2,2,0,0,0-.17-.69c0-.75.07-1.49.1-2.24a2.55,2.55,0,0,0-.06-.59,110.83,110.83,0,0,0,.72-11.14c.29-6.32.8-13.26-.54-19.49-.16-.72-1-1-1.64-1a131.34,131.34,0,0,0-21.35.95c-2.32.28-4.81,2.51-4.3,5a23.78,23.78,0,0,0,1.11,4.18,60.83,60.83,0,0,0-.47,13.63c-.1,6.06-.2,12.11-.25,18.17,0,4.58-1.33,10.9.24,15.33a1.57,1.57,0,0,0,.93.94c3.29.58,6.63-.19,10-.25,3,1.8,8.9.27,11.68,1.62S158.37,239.26,157.66,236.83Z" fill="#c49257"/><path d="M313.62,172.07c0-1.27-1.42-.73-2.3.16-14.73-1.71-30.36-.33-45.17-.34H167.3c-17.73,0-36.26-1.52-53.86.65a2.39,2.39,0,0,0-.9.42c-1.67.23-3.71,3.28-1.75,3.84-.28,6.31-.9,12.49-.9,18.86,0,5.17-.89,11.12.76,16.07-1.24.93-2.31,2.86-.58,3,33.28,2,67.15.25,100.49.24h50.32c16.36,0,33.79,1.62,50-.79a.13.13,0,0,1,0,.06c.38,1.31,2.31-.54,2.45-1.18,1-4.32.26-8.58.35-12.93a1.55,1.55,0,0,0,.23-.91C314.24,190.19,313.65,181.08,313.62,172.07Z" fill="#b7b7b7" style="mix-blend-mode:multiply"/><path d="M197,114a61.64,61.64,0,0,0-.11-8.38c-.2-5.59.09-11.53-1.34-17-.37-1.43-1.63-1.15-2.84-.33a1.74,1.74,0,0,0-1.68-1c-18.69.59-37.3,3.4-55.9.2-2.18-.37-6,3.73-4.11,5.71a.43.43,0,0,0,.1.09,1.35,1.35,0,0,0,0,.18c-.23,4.66-.3,9.33-.41,14-.09,3.89-.44,8.17.9,11.87a1.14,1.14,0,0,0,1,1.38A98.71,98.71,0,0,0,160.71,122c4.67-.43,9.29-1.12,14-1.49,3.76-.3,7.38.75,11.15.67,2,2.54,4.7,1.92,6.94.14,1.71.06,3.67-2,4.3-3.22A3.74,3.74,0,0,0,197,114Z" fill="#7f7f7f"/><path d="M286.27,89.5c-.63-1.22-1.74-.9-2.7-.14-3-1.73-7.44-1.54-10.81-1.78a79.69,79.69,0,0,0-12.74,0,5.1,5.1,0,0,0-2.1.77c-1.55-1.1-4.92,2.29-5.13,4.14-1.14,9.89.74,20.1,1,30,.29,13.27.17,26.66.06,39.94a1.7,1.7,0,0,0,1.07,1.68c7.7,2.12,17.22,1.13,25-.46-.09.45-.15.9-.28,1.34-1.25,4.51,5.33,1.71,6.32-.79,1.53-3.86,1.37-7.19.93-11.36-.87-8.25-.07-16.53.32-24.79.31-6.69.39-13.39.47-20.09C287.74,102.23,289,94.8,286.27,89.5Z" fill="#7f7f7f"/><path d="M170.73,235.84c-2.33-2.23-.37-8.2-.16-11.1a152.85,152.85,0,0,0,.32-17.39c-.06-1.49-1-1.75-2-1.38,0-1.15.09-2.33.16-3.53.3-5.5,1-11.05.54-16.56a1.71,1.71,0,0,0-1.07-1.67,47.65,47.65,0,0,0-6.86-1.48c-2.24-.35-4.84,2.77-4.81,4.81a10,10,0,0,0,.28,3.13,2.37,2.37,0,0,0,.33.91,1.38,1.38,0,0,0,0,.2,1,1,0,0,0,.6.88c-3.47,10-.1,23-.06,33.45,0,3.38-.49,7.16-.1,10.08a6.85,6.85,0,0,0-.93,1.15c-1,1.64-1.51,5.39,1.7,4.36l.52-.2a59.5,59.5,0,0,1,6,.85C167.74,242.84,173.49,238.48,170.73,235.84Z" fill="#7f7f7f"/><path d="M303.77,207.05c-2.74-4.43-11.2-3.54-15.4-3.27-9,.57-17.61.1-26.62-.26-4.46-.17-15,3.28-17.84-.25-.87-1.07-2.32-.94-3.75-.2-1.35-1-4.21,2.11-4.54,3.19-3.37,11.13-2.57,22.32,10.43,23.8,7.72.87,16.16-.15,23.94-.16,9.42,0,19.36-2.88,28.65-1.53,2.32.34,5.29-2.7,5.62-4.81C305,218.75,306.45,211.37,303.77,207.05Z" fill="#5ba354"/><path d="M339,117.78c0-17.41,2.2-36.48-.62-53.65-.13-.76-.64-.87-1.2-.67-39.06-1.68-78.35-.54-117.44-.55h-66c-21.9,0-44.25-1.27-66.09.37-1.3.1-3.53,2.63-2.63,3.52-2.24,16-.64,33.05-.63,49.17q0,14.37,0,28.75c0,7.59-.84,15.63.74,23.09-.86.82-2.13,2.48-.7,2.85,10,2.64,20.43.58,30.63,1.75a2.54,2.54,0,0,0,1.81-.82c36.32,1.48,73,.17,109.32.17h53.47c18.84,0,38.19,1.22,56.93-.86.92-.1,2.68-2.06,1.4-2.44a.77.77,0,0,0,.07-.17C340.87,152,339,134.28,339,117.78Zm-11.82-3.94c0,14.63-1.9,30.69.92,45.07,0,.05,0,.06.05.1s-.07.27-.1.41c-13.95-1.58-29.17.09-43,.08H227.57q-57.66,0-115.32,0h-.08a114.35,114.35,0,0,0-15,1c2.22-14,.86-29,.86-43.1,0-14.5,1-29.55.07-44.15,39.46.92,79,.15,118.49.15h57.66c17.66,0,36.3,1.68,53.81-1C326.11,85.93,327.21,100.15,327.21,113.84Z" fill="#c49257"/><path d="M180.29,92.56c-.59-.85-1.62-.57-2.58.07-3.33-1.83-7.63-1.34-11.35-1.35-4.83,0-9.89-.57-14.57.7-.6-.91-1.93-.88-3-.36l0,0c-1.55.32-3.69,2.62-3.84,4a86,86,0,0,0-.14,13.71c.16,3.18-.78,7.54.56,10.53a1.94,1.94,0,0,0,.42,2,1.83,1.83,0,0,0,1.63.49c4.15,1.87,10.28.73,14.7.72,5.1,0,10.19.85,14.73-1.72a5.37,5.37,0,0,0,.94-.72,5,5,0,0,0,2.12-2c2-3.92,1.46-8.3,1.57-12.64S182.81,96.22,180.29,92.56Z" fill="#b7b7b7"/><path d="M278.82,95.08c-.09-.77-.39-1.15-.79-1.28a1.48,1.48,0,0,0,0-.21,1.43,1.43,0,0,0-.86-.86c-2.07-.63-4.29-.38-6.43-.37a17.1,17.1,0,0,0-6.64,1c-1.26-.94-4.6,1.85-4.68,3.63-1,20.26.59,40.39-.31,60.59-.05,1.16.64,1.51,1.56,1.37a1.41,1.41,0,0,0,.91,1.34,17.72,17.72,0,0,0,8.24.57,7.36,7.36,0,0,0,.74-.22,5.88,5.88,0,0,0,1,1.34c2.82,2.75,7-2.77,7.24-5.22a40.81,40.81,0,0,0,.27-5.48c.95-7.93.19-16.18.63-24.12A191,191,0,0,0,278.82,95.08Z" fill="#b7b7b7"/><path d="M326.76,79.73a2.17,2.17,0,0,0,.07-.91c0-.36-.11-.71-.18-1.06a.1.1,0,0,1,0,0,1.35,1.35,0,0,0-1.33-.85,3.07,3.07,0,0,0-.23-.39c-.56-.68-1.76-.11-2.28.27a3.49,3.49,0,0,0-.32.25c-15.68-3.14-31.83-2-47.8-2.09q-28.81-.09-57.63-.06c-38.51,0-77.15-.79-115.65.62-2.61-.1-6.08,4.25-5.5,6.4.1.66.58,1.09,1.53,1.15-2.17,2.34-3.33,5.65,0,5.74C136,90,174.79,89,213.44,89.05l58.06.08c16.06,0,34.48,2.6,50.18-.95,1.58-.35,5.87-4.7,4-6.27a3.71,3.71,0,0,0,1.17-2.57Z" fill="#b7b7b7"/><path d="M331.49,242.45c-18-4.84-39.18-2-57.68-2l-62.2,0c-42.79,0-85.78-1.2-128.56.08-3.94.12-10.23,9-4.4,9.17,4.48.14,9,.23,13.44.32-1.57,2.1-2.08,4.46.82,4.66,5.52.39,11.07.65,16.62.84-2,1.78-3.6,4.64-.53,5,16.18,2.11,33,1,49.31,1l49.83.08,49.8.11c11.85,0,28.69,3.81,39.54-1.87,1.32-.69,3.91-3.23,2.55-4.91a96.76,96.76,0,0,0,12.18-1.83,6.38,6.38,0,0,0,3.2-3.4,109.9,109.9,0,0,0,13.51-2C330.32,247.48,334.36,243.22,331.49,242.45Z" fill="#b7b7b7"/><path d="M134.6,134l-11.42,11.42q-1.62,1.63-3.23,3.28c-.06.06,0,.12.06.05,3.84-3.76,7.64-7.59,11.45-11.39q1.62-1.63,3.25-3.25c.1-.11,0-.22-.11-.11Z"/><path d="M130.76,145.14c-2.79,2.8-5.59,5.59-8.36,8.41-.06.06,0,.11,0,0,2.83-2.76,5.61-5.56,8.41-8.36.1-.1,0-.2-.1-.1Z"/><path d="M180,133.27c-3.76,3.75-7.54,7.5-11.28,11.27l-3,3.06c-.07.07,0,.14.07.07q5.58-5.52,11.12-11.08l3.22-3.23c.09-.1,0-.19-.1-.09Z"/><path d="M180,142.69l-4.54,4.54c-1.51,1.51-3.07,3-4.52,4.56-.07.08,0,.14.07.07,1.57-1.45,3-3,4.56-4.52l4.54-4.54c.11-.11,0-.22-.11-.11Z"/><path d="M200.62,137.45c-2.82,2.82-5.65,5.64-8.46,8.47-.79.79-1.56,1.59-2.34,2.38-.07.07,0,.14.06.07,2.85-2.8,5.67-5.62,8.49-8.44l2.37-2.37c.12-.11,0-.23-.12-.11Z"/><path d="M246.39,134.31q-5.46,5.44-10.91,10.91l-3,3.08c-.07.07,0,.14.06.07q5.49-5.43,10.94-10.89l3.06-3.07c.1-.1,0-.21-.11-.1Z"/><path d="M234.51,142c-3,3-6,6-9,9-.85.86-1.69,1.72-2.54,2.57-.06.07,0,.14.07.07q4.52-4.46,9-9l2.55-2.55c.11-.11,0-.21-.11-.11Z"/><path d="M317.31,135,305,147.28l-3.43,3.46c-.07.08,0,.15.08.08,4.12-4.06,8.2-8.17,12.29-12.26l3.44-3.45c.11-.1,0-.21-.1-.1Z"/><path d="M90.58,242.77q23.74,0,47.5,0c.12,0,.3-.28.13-.28H77.42c-.12,0-.29.27-.13.27l114.38,0H369.34c.14,0,.33-.3.14-.3H60.66c-.13,0-.32.3-.14.3,12.35,0,24.7-.06,37.06-.06.07,0,.18-.18.08-.18-12.34,0-24.67,0-37-.06-.13,0-.32.3-.14.3H369.34c.14,0,.33-.3.14-.3H255.59q-57.08,0-114.15,0-32,0-64,0c-.12,0-.29.27-.13.27h60.79c.12,0,.3-.28.13-.28q-23.76,0-47.53,0c-.1,0-.24.22-.1.22Z"/><path d="M109.39,168.55q0,12.16,0,24.33v24.28c0,4.53,0,9.06,0,13.59,0,.15.26,0,.26-.13v-61c0-.16-.25,0-.25.12v57.65c0,5.33,0,10.66,0,16,0,.14.23,0,.23-.1,0-.8,0-1.61,0-2.41,0-.1-.17,0-.17.09,0,.8,0,1.61,0,2.42,0,.14.23,0,.23-.1.1-9.53,0-19.06,0-28.59V169.65c0-.16-.25,0-.25.12v61c0,.15.26,0,.26-.13q0-12.15,0-24.31V182q0-6.79,0-13.58c0-.12-.21,0-.21.1Z"/><path d="M110.14,171.87c-4.66,0-9.32,0-14,0-.13,0-.32.29-.14.29h9.57c.13,0,.32-.29.14-.29H85.11c-.13,0-.32.29-.14.29H287.65c16.59,0,33.18.07,49.77,0l6.1,0c.07,0,.18-.16.08-.16-16.54-.12-33.07-.06-49.61-.06H85.11c-.13,0-.32.29-.14.29h20.62c.13,0,.32-.29.14-.29H96.16c-.13,0-.32.29-.14.29,4.67,0,9.34,0,14,0,.1,0,.25-.22.11-.23Z"/><path d="M312.73,167.94c-.09,6.36,0,12.72,0,19.08v4.48c0,.16.25,0,.25-.12V175.69c0-.16-.25,0-.25.12V180c0,.16.25,0,.25-.12v-7.24c0-.16-.26,0-.26.12v54.54c0,5.16,0,10.31,0,15.47,0,.1.17,0,.18-.09.07-9.11,0-18.23,0-27.35V172.67c0-.16-.26,0-.26.12V180c0,.16.25,0,.25-.12v-4.22c0-.16-.25,0-.25.12V191.5c0,.16.25,0,.25-.12q0-9.21,0-18.43c0-1.7,0-3.39,0-5.09,0-.11-.17,0-.17.08Z"/><path d="M84.42,172.75c.19-14.13,0-28.28,0-42.42V88.15q0-11.9,0-23.8c0-.16-.27,0-.27.13V82.94c0,.16.26,0,.26-.12,0-5.89,0-11.77,0-17.66,0-.15-.25,0-.25.12,0,2.4,0,4.8,0,7.2,0,.1.16,0,.16-.07,0-2.42,0-4.84,0-7.25,0-.15-.25,0-.25.12,0,5.89,0,11.78,0,17.66,0,.16.26,0,.26-.12q0-9.24,0-18.47c0-.16-.27,0-.27.13v84.58c0,7.92-.06,15.85,0,23.77,0,.09.15,0,.15-.08Z"/><path d="M96.74,164.73c.09-6,0-12.06.05-18.09V72.38c0-.16-.26,0-.26.13,0,5.24,0,10.48,0,15.73,0,.16.26,0,.26-.13,0-5,0-10,0-15,0-.16-.25,0-.25.12,0,2,0,4.08,0,6.13,0,.1.16,0,.16-.08,0-2.06,0-4.11,0-6.17,0-.16-.25,0-.25.12,0,5,0,10,0,15,0,.16.26,0,.26-.13V72.38c0-.16-.26,0-.26.13v72.05c0,6.74,0,13.49,0,20.24,0,.1.15,0,.16-.07Z"/><path d="M85,63.86q16.76.09,33.5.08c.13,0,.31-.29.14-.29H83.72c-.14,0-.33.3-.15.3H286.42c19,0,38.06.06,57.09,0,.1,0,.24-.23.11-.23l-5.61,0c-.07,0-.18.17-.08.17l5.58,0c.1,0,.25-.23.11-.23-33.89-.18-67.78,0-101.67,0H83.72c-.14,0-.33.3-.15.3h34.94c.13,0,.31-.29.14-.29q-16.8,0-33.58.08c-.06,0-.14.13-.06.13Z"/><path d="M95,74.07q15.45.09,30.89.08c.13,0,.31-.28.14-.28H93.85c-.14,0-.33.3-.14.3h187c17.54,0,35.09.06,52.63,0,.11,0,.25-.22.11-.22l-5.16,0c-.08,0-.19.17-.09.17l5.14,0c.11,0,.25-.22.11-.22-31.24-.18-62.49,0-93.74,0H93.85c-.14,0-.33.3-.14.3h32.21c.13,0,.31-.28.14-.28q-15.5,0-31,.08c-.06,0-.14.12-.07.12Z"/><path d="M126.4,162.28c-4.07,0-8.14,0-12.21,0-.14,0-.32.29-.14.29h8.36c.13,0,.32-.29.14-.29h-18c-.13,0-.32.29-.14.29H281.51c14.49,0,29,.06,43.49,0l5.34-.05c.07,0,.17-.16.07-.16-14.45-.11-28.9-.05-43.35-.05H104.53c-.13,0-.32.29-.14.29h18c.13,0,.32-.29.14-.29h-8.36c-.14,0-.32.29-.14.29,4.08,0,8.16,0,12.24,0,.1,0,.25-.23.11-.23Z"/><path d="M338.77,169.53q0-3.61,0-7.23c0-.15-.24,0-.24.11,0,1.34,0,2.68,0,4,0,.15.26,0,.26-.12v-4c0-.15-.26,0-.26.13v9.63c0,.16.26,0,.26-.12V59.54c0-.17-.27,0-.27.13q0,11.6,0,23.2c0,2.16,0,4.32.05,6.47,0,.11.17,0,.17-.08.16-7.74.06-15.49.06-23.23,0-2.16,0-4.33,0-6.49,0-.17-.27,0-.27.13q0,22,0,44v68.41c0,.16.26,0,.26-.12v-9.64c0-.15-.26,0-.26.13v4c0,.15.26,0,.26-.12,0-1.34,0-2.68,0-4,0-.15-.24,0-.24.11,0,2.41,0,4.81,0,7.22,0,.12.2,0,.2-.1Z"/><path d="M115.72,162.28c-4.08,0-8.15,0-12.22,0-.13,0-.32.29-.14.29h8.37c.13,0,.32-.29.14-.29h-18c-.13,0-.32.29-.14.29H270.83c14.49,0,29,.06,43.49,0l5.33-.05c.08,0,.18-.16.08-.16-14.45-.11-28.9-.05-43.35-.05H93.85c-.13,0-.32.29-.14.29h18c.13,0,.32-.29.14-.29H103.5c-.13,0-.32.29-.14.29,4.08,0,8.16,0,12.25,0,.1,0,.25-.23.11-.23Z"/><path d="M326.55,158.16c0-1.9,0-3.8,0-5.71,0-.15-.25,0-.25.12v3.17c0,.15.25,0,.25-.13v-3.16c0-.15-.25,0-.25.12q0,3.81,0,7.6c0,.16.26,0,.26-.12V71.41c0-.16-.27,0-.27.13,0,6.1,0,12.2,0,18.3,0,1.7,0,3.4.05,5.1,0,.11.17,0,.17-.08.16-6.1.05-12.22.05-18.32V71.41c0-.16-.27,0-.27.13v88.63c0,.16.26,0,.26-.12v-7.6c0-.15-.25,0-.25.12v3.17c0,.15.25,0,.25-.13v-3.16c0-.15-.25,0-.25.12,0,1.9,0,3.79,0,5.69,0,.12.21,0,.21-.1Z"/><path d="M96.88,129.21c15.19.14,30.37,0,45.55,0H280c15.13,0,30.26,0,45.39,0h4.89c.11,0,.25-.23.11-.23l-3.16,0c-.07,0-.17.15-.07.15l3.12,0c.11,0,.25-.23.11-.23-14.86-.09-29.72,0-44.58,0H148.12q-22.69,0-45.37,0c-1.93,0-3.86,0-5.79,0-.07,0-.18.17-.08.17Z"/><path d="M130.71,89.34q0,6.39,0,12.78,0,7.57,0,15.15v6.32c0,.15.24,0,.24-.12V105.31c0-.15-.24,0-.24.12v7c0,.15.24,0,.24-.11V93.5c0-1.77,0-3.54,0-5.31,0-.15-.26,0-.26.12q0,9.41,0,18.8v5.3c0,.15.24,0,.24-.11v-7c0-.15-.24,0-.24.12v18.16c0,.15.24,0,.24-.12V110.71q0-7.58,0-15.13,0-3.17,0-6.33c0-.11-.19,0-.19.09Z"/><path d="M130.43,87.61c4.39.12,8.78.07,13.17.07h53.52c.12,0,.3-.28.13-.28h-4.54c-1.52,0-3,0-4.56,0-.08,0-.22.19-.09.2,1.5.08,3,0,4.52,0h4.54c.12,0,.3-.28.13-.28H145.19c-4.9,0-9.8-.06-14.7.07-.05,0-.13.12-.06.12Z"/><path d="M196.42,87.24q-.06,6.69,0,13.39t0,13.3v7.57c0,.16.26,0,.26-.13,0-1.39,0-2.77-.05-4.16,0-.1-.16,0-.16.07,0,1.41,0,2.81,0,4.22,0,.16.26,0,.26-.13q0-6.68,0-13.36c0-4.43,0-8.86,0-13.29,0-2.52,0-5,0-7.55,0-.09-.14,0-.14.07Z"/><path d="M196.88,121.36c-4.38-.13-8.76-.06-13.13-.06H144.24c-4.92,0-9.84,0-14.76,0-.12,0-.29.26-.13.26h1.05c.11,0,.26-.24.12-.24l-.94,0c-.1,0-.23.2-.1.2h.23c.09,0,.22-.19.1-.19h-.23c-.1,0-.23.2-.1.2l.92,0c.11,0,.26-.24.12-.24h-1c-.12,0-.29.26-.13.26,8.79.06,17.57,0,26.36,0H182c4.93,0,9.86.08,14.79-.06.07,0,.18-.16.08-.16Z"/><path d="M286,88.33l-12.77,0H251.74c-.11,0-.26.24-.11.24h18.16c.11,0,.27-.24.12-.24h-7c-.11,0-.27.24-.12.24h24.11c.11,0,.27-.25.12-.25H262.92c-.11,0-.27.24-.12.24h7c.11,0,.27-.24.12-.24H251.74c-.11,0-.26.24-.11.24h34.24c.09,0,.21-.19.1-.19Z"/><path d="M287.61,88.06c-.12,5-.07,9.91-.07,14.86V146.8q0,8.13,0,16.28c0,.16.28,0,.28-.14v-5.1c0-1.7,0-3.39,0-5.08,0-.13-.2,0-.2.09-.08,1.71-.05,3.42,0,5.13v5.1c0,.16.28,0,.28-.14q0-14.59,0-29.21V104.45c0-5.48.06-11-.07-16.45,0-.07-.12,0-.12.06Z"/><path d="M279.67,162.16c-4.45,0-8.9,0-13.35-.06H245.46c-.12,0-.29.27-.13.27l4.22-.05c.07,0,.18-.16.08-.16q-2.08,0-4.17-.06c-.12,0-.29.27-.13.27H272c2.54,0,5.07,0,7.6,0,.06,0,.15-.14.07-.14Z"/><path d="M253.86,162.58c.13-4.94.06-9.88.06-14.82V103.37c0-5.53,0-11.05,0-16.58,0-.16-.26,0-.26.13,0,.39,0,.78,0,1.17,0,.14.24,0,.24-.12,0-.34,0-.69,0-1,0-.12-.2,0-.2.1v.26c0,.12.19,0,.19-.09v-.27c0-.12-.2,0-.2.1,0,.35,0,.71,0,1.06,0,.14.24,0,.24-.12,0-.39,0-.78,0-1.18,0-.16-.26,0-.26.13-.07,9.87,0,19.75,0,29.63V146.1c0,5.52-.08,11,.06,16.56,0,.1.16,0,.16-.08Z"/><path d="M181.48,243.76c4.73-4.67,9.43-9.38,14.13-14.08l14-14.05q7-7,14-14l14-14,14.09-14.09,1.73-1.74c.14-.14,0-.28-.14-.14-1.16,1.17-2.3,2.37-3.46,3.53-.07.07,0,.14.07.07,1.17-1.16,2.36-2.3,3.53-3.46l-.14-.14c-4.73,4.68-9.41,9.4-14.11,14.1l-14.05,14.06-14,14-14,14q-7,7.05-14.08,14.11c-.58.57-1.15,1.16-1.72,1.74-.1.09,0,.18.09.09Z"/><path d="M128.62,181.57c0,3.84,0,7.67,0,11.51v23.66c0,3.89,0,7.78,0,11.67s0,7.48,0,11.21l0,1.33c0,.09.14,0,.14-.07.1-3.73.07-7.46.07-11.19V206.21q0-5.91,0-11.81t0-11.53v-1.39c0-.12-.19,0-.19.09Z"/><path d="M127.63,182.3c3,.08,6,0,9.05.06H151c.13,0,.32-.29.14-.29h-1.4c-.13,0-.31.29-.14.29H157c.12,0,.29-.27.13-.27-1.06,0-2.12,0-3.17,0-.08,0-.2.17-.09.17,1,0,2.08.05,3.13.05.12,0,.29-.27.13-.27h-7.34c-.13,0-.31.29-.14.29H151c.13,0,.32-.29.14-.29l-18.29,0c-1.72,0-3.43,0-5.15.05-.07,0-.17.15-.07.15Z"/><path d="M157.28,183c-.08,7.82-.06,15.64-.06,23.46v23.49c0,4.38-.07,8.76,0,13.14,0,.11.17,0,.18-.08.1-3.9,0-7.81,0-11.71V219.52q0-11.75,0-23.49,0-6.57-.05-13.14c0-.1-.16,0-.16.07Z"/><path d="M155.57,93.09q-6.16,6.12-12.29,12.27l-3.42,3.47c-.07.07,0,.14.07.07q6.18-6.09,12.3-12.26l3.43-3.45c.1-.1,0-.19-.09-.1Z"/><path d="M162.55,93.79c-2.45,2.44-4.91,4.87-7.32,7.35-.06.07,0,.13.07.07,2.48-2.41,4.91-4.87,7.35-7.32.11-.11,0-.21-.1-.1Z"/><path d="M185.26,98q-5.46,5.44-10.92,10.91-1.53,1.53-3.05,3.07c-.08.09,0,.18.09.09,3.66-3.61,7.29-7.26,10.92-10.9l3.06-3.07c.11-.1,0-.21-.1-.1Z"/><path d="M171.63,107.76c-1.63,1.63-3.27,3.25-4.87,4.91-.07.07,0,.14.07.07,1.65-1.61,3.28-3.24,4.91-4.87.1-.11,0-.22-.11-.11Z"/><path d="M276.79,93.79q-7.11,7.09-14.21,14.21c-1.32,1.32-2.63,2.65-3.94,4-.06.07,0,.13.06.07,4.77-4.71,9.5-9.46,14.23-14.19l4-4c.11-.11,0-.21-.1-.1Z"/><path d="M272.24,107.41c-3.37,3.38-6.75,6.76-10.1,10.16-.06.06,0,.12.06.06,3.4-3.36,6.77-6.74,10.15-10.11.11-.11,0-.22-.11-.11Z"/><path d="M281,125.23q-8.19,8.19-16.39,16.38-2.28,2.29-4.55,4.6c-.07.06,0,.13.06.06,5.5-5.42,10.95-10.89,16.41-16.35l4.57-4.59c.11-.1,0-.21-.1-.1Z"/><path d="M275,141c-3.15,3.14-6.3,6.27-9.42,9.45-.08.07,0,.15.08.07,3.17-3.12,6.3-6.27,9.45-9.42.1-.1,0-.21-.11-.1Z"/><path d="M156.46,181.94c1.9.06,3.81.05,5.71.06H165c.94,0,1.89,0,2.83-.05.06,0,.18-.14.08-.15-.91-.08-1.82,0-2.73,0h-2.86c-1.93,0-3.85,0-5.77.05-.06,0-.14.13-.06.13Z"/><path d="M167.76,181.92c-.08,3.91,0,7.83,0,11.75V228.4c0,4.36,0,8.73,0,13.09,0,.14.23,0,.23-.11,0-.74,0-1.49-.06-2.24,0-.08-.12,0-.12.06,0,.76-.05,1.53-.05,2.29,0,.14.22,0,.23-.11.06-7.77,0-15.54,0-23.31V194.91c0-4.35,0-8.72-.05-13.07,0-.11-.16,0-.16.08Z"/><path d="M168.49,188.64c-2.28,2.26-4.56,4.53-6.8,6.83-.07.07,0,.13.07.06q3.45-3.36,6.83-6.79c.1-.1,0-.2-.1-.1Z"/><path d="M165.35,197c-.94.93-1.87,1.86-2.78,2.81-.07.07,0,.13.06.07,1-.91,1.88-1.85,2.81-2.78.1-.1,0-.19-.09-.1Z"/><path d="M167.79,224.79l-4.81,4.8c-1.61,1.59-3.25,3.16-4.78,4.82-.08.08,0,.15.07.08,1.67-1.53,3.23-3.18,4.83-4.78l4.79-4.81c.1-.11,0-.21-.1-.11Z"/><path d="M157.75,229.25c2.22-2.2,4.46-4.39,6.63-6.64.07-.07,0-.14-.07-.07-2.25,2.18-4.44,4.41-6.64,6.63-.08.08,0,.16.08.08Z"/><path d="M83.45,62.66c-.06,1.13-.14,2.25-.14,3.39,0,.39.42.39.69.27a1.16,1.16,0,0,0,.68-.94V63.64c0-.4-.43-.4-.7-.28a1.17,1.17,0,0,0-.69.94V65c0,.4.43.4.7.28a1.2,1.2,0,0,0,.69-1c0-1.38-.06-2.77-.09-4.15,0-.75-1.21,0-1.21.59-.09,7.37,0,14.75,0,22.12v22.23c0,14.78,0,29.56,0,44.34v12.29c0,2,0,4.08,0,6.12S83.27,172,83.3,174c0,.83,1.44,0,1.39-.67l0-.54c0-.11,0-.23,0-.35s0-.29,0-.17c0-.75-1.23,0-1.23.59v0c0,.75,1.23,0,1.23-.59v0c0-.75-1.23,0-1.23.59,0-.13,0,.07,0,.15l0,.41,0,.58c0,.4.45.39.7.27a1.17,1.17,0,0,0,.69-.94c0-1.8-.07-3.6-.07-5.4s0-3.63,0-5.45v-11q0-11,0-22.1,0-22.23,0-44.47c0-8.25.07-16.51,0-24.76,0-.75-1.2,0-1.21.59,0,1.41-.09,2.82-.09,4.23,0,.4.43.4.7.28a1.2,1.2,0,0,0,.69-1v-.69c0-.4-.43-.4-.7-.28a1.17,1.17,0,0,0-.69.94v1.75c0,.39.42.39.69.27a1.16,1.16,0,0,0,.68-.94c0-1.08-.07-2.16-.14-3.24-.05-.71-1.06.07-1.09.52Z"/><path d="M83.71,172.35l3.42,0c.68,0,1.64-1.51.72-1.5H83.39c-.67,0-1.63,1.5-.71,1.49q50-.06,99.94-.06c33.33,0,66.65,0,100-.08q13.82,0,27.64.05c9.14.06,18.3.23,27.44,0,.59,0,1.35-1.32.61-1.27l-.54,0c-.54,0-1.29,1.25-.58,1.2l2.17-.15c.36,0,1-.86.43-.91l-2-.14c-.54,0-1.32,1.14-.58,1.2l.51,0c.59.05,1.38-1.25.61-1.27-16.48-.45-33,0-49.49,0s-33.11-.06-49.67-.06l-99.9,0q-27.91,0-55.83-.05c-.67,0-1.63,1.49-.71,1.49h4.45c.68,0,1.64-1.5.72-1.5l-3.39,0c-.72,0-1.7,1.57-.75,1.56Z"/><path d="M338.41,62.87c0,1.58-.07,3.16-.07,4.74,0,.39.42.39.69.27a1.13,1.13,0,0,0,.67-.92V65.65c0-.39-.42-.39-.69-.27a1.15,1.15,0,0,0-.67.92v.44c0,.39.42.39.69.27a1.15,1.15,0,0,0,.67-.92v-2.8c0-.38-.42-.38-.69-.26a1.12,1.12,0,0,0-.67.91q0,21.63,0,43.25t0,43.14q0,6,0,12c0,2,0,4,0,6,0,1,0,2.07,0,3.11s-.07,2.08,0,3.12c0,.82,1.36,0,1.34-.64v-.52c0-.38-.4-.38-.67-.26a1.1,1.1,0,0,0-.65.89v.53c0,.39.42.38.68.27a1.12,1.12,0,0,0,.66-.91c0-1.83-.06-3.68-.06-5.51s0-3.55,0-5.33c0-3.55,0-7.11,0-10.66V130.81q0-21.6,0-43.21,0-12.15,0-24.31c0-.38-.42-.38-.69-.26a1.14,1.14,0,0,0-.67.91v2.8c0,.39.42.39.69.27a1.15,1.15,0,0,0,.67-.92v-.44c0-.39-.42-.39-.69-.27a1.15,1.15,0,0,0-.67.92v1.31c0,.39.42.39.69.27a1.15,1.15,0,0,0,.67-.92c0-1.56,0-3.12-.07-4.68,0-.77-1.21,0-1.22.59Z"/><path d="M84.51,63.59h2.88c.68,0,1.65-1.51.73-1.52H85c-.69,0-1.67,1.53-.73,1.53,33.72.06,67.45-.1,101.17-.12q50.28,0,100.56,0c18,0,36,.19,54,.05.62,0,1.5-1.38.66-1.38-1.08,0-2.16.13-3.24.2-.39,0-1.11.93-.47,1,1,.08,2,.19,3.05.2.62,0,1.51-1.37.66-1.38-32.82-.25-65.66,0-98.49,0-33.51,0-67,.06-100.52-.07Q113.32,62,85,62.07c-.69,0-1.67,1.53-.73,1.53h3.15c.68,0,1.65-1.52.73-1.52H85.23c-.68,0-1.65,1.5-.72,1.51Z"/><path d="M96.17,74.07c-.1,1-.19,2-.23,3,0,.41.46.41.73.29a1.22,1.22,0,0,0,.7-1c0-.62,0-1.23,0-1.84,0-.41-.45-.42-.73-.28a1.2,1.2,0,0,0-.71,1V76c0,.4.45.41.73.28a1.2,1.2,0,0,0,.71-1c0-1.13,0-2.26,0-3.39,0-.39-.42-.4-.69-.27a1.12,1.12,0,0,0-.67.92c0,2.9,0,5.79,0,8.69v8.66q0,8.57,0,17.12c0,11.4.07,22.8.05,34.21q0,4.81,0,9.63c0,1.58,0,3.16,0,4.74,0,.83,0,1.65,0,2.47,0,.4,0,.82,0,1.22a5.28,5.28,0,0,0,.26,1c.14.5.87-.21.92-.45a9.19,9.19,0,0,0,.26-2.16c0-.75,0-1.51,0-2.27,0-1.42,0-2.85,0-4.28,0-2.88,0-5.76,0-8.64q0-8.56,0-17.13,0-17.13.05-34.26V81.56c0-3.2-.06-6.41,0-9.62,0-.39-.43-.39-.69-.27a1.13,1.13,0,0,0-.67.92c0,1.14,0,2.29,0,3.43,0,.4.45.42.73.28a1.2,1.2,0,0,0,.71-1v-.79c0-.41-.45-.42-.73-.28a1.2,1.2,0,0,0-.71,1v1.83c0,.41.45.42.73.29a1.2,1.2,0,0,0,.7-1c0-.94-.12-1.85-.22-2.78,0-.27-.28-.29-.5-.19a.81.81,0,0,0-.48.66Z"/><path d="M97.09,160.15a1.07,1.07,0,0,0,.2-.38.43.43,0,0,1,0-.11,2,2,0,0,0,0-.35l0-.2a1.33,1.33,0,0,0,0-.2.31.31,0,0,0-.07-.21.25.25,0,0,0-.16-.14.36.36,0,0,0-.23,0,.53.53,0,0,0-.27.08,1.42,1.42,0,0,0-.51.43l-.11.19a.82.82,0,0,0-.09.35c0,.05,0,.1,0,.16a.41.41,0,0,0,.11.29l0,0,.08.06.08,0,.1,0a.48.48,0,0,0,.31,0,1.12,1.12,0,0,0,.33-.28,2.49,2.49,0,0,0,.25-.38l0-.05a1.67,1.67,0,0,0,.08-.2,1.23,1.23,0,0,0,0-.19c0-.05,0-.11,0-.17a.31.31,0,0,0-.07-.21.25.25,0,0,0-.16-.14.36.36,0,0,0-.23,0,.53.53,0,0,0-.27.08,1.42,1.42,0,0,0-.51.43l-.11.19a.82.82,0,0,0-.09.35c0,.07,0,.13,0,.2l0,.18a1.54,1.54,0,0,0,.05.31l0,.07a.32.32,0,0,0,.21.21.41.41,0,0,0,.19,0,.6.6,0,0,0,.23-.06,1.25,1.25,0,0,0,.42-.37Z"/><path d="M95,161c1,0,2.06.08,3.1.09.67,0,1.62-1.47.71-1.48l-2.35,0c-.69,0-1.66,1.52-.73,1.52h2.35c.7,0,1.69-1.54.74-1.54H97.3c-.71,0-1.7,1.56-.75,1.56l46.34,0,46.1,0,46.3,0q23,0,46,0c7.74,0,15.48,0,23.22,0,6.55,0,13.13.25,19.68.11.6,0,1.21-.05,1.82-.05s1.55-1.42.68-1.42h-.19c-.64,0-1.55,1.42-.68,1.42H326c.64,0,1.55-1.42.68-1.42-13,0-26,0-39,0h-46c-15.42,0-30.83,0-46.25,0l-46.07,0-46.31,0H97.3c-.71,0-1.7,1.56-.75,1.56h1.57c.7,0,1.69-1.54.74-1.54H96.5c-.68,0-1.66,1.53-.73,1.52l2.37,0c.66,0,1.62-1.49.71-1.48s-2.12.05-3.19.09c-.55,0-1.45,1.28-.62,1.3Z"/><path d="M326.23,74.59l0,2c0,.66,0,1.33,0,2,0,.3.34.3.53.21a.89.89,0,0,0,.52-.71c.1-1.32.08-2.64.07-4,0-.33-.37-.35-.6-.23a1,1,0,0,0-.59.81c0,.59,0,1.19,0,1.78,0,.32,0,.64.08,1s.09.77.48.6.44-.7.48-1.06.05-.69.07-1c0-.61,0-1.22,0-1.83,0-.33-.37-.35-.6-.23a1,1,0,0,0-.59.81c0,1.3,0,2.6.07,3.89,0,.29.31.32.53.21a.88.88,0,0,0,.52-.71c-.05-.65,0-1.3,0-2v-2c0-.27-.3-.28-.49-.19a.82.82,0,0,0-.47.65Z"/><path d="M326.35,74.13c0,1.23-.07,2.46,0,3.69s0,2.44,0,3.67c0,.36.41.37.66.25a1.11,1.11,0,0,0,.64-.88c0-2.18,0-4.37,0-6.55,0-.38-.41-.39-.67-.27a1.13,1.13,0,0,0-.65.9c0,11.21.05,22.42.06,33.63s0,22.43-.06,33.64l-.06,9.4a76.85,76.85,0,0,0,.17,9.48c.08.68,1.15,0,1.1-.53l-.11-1c-.06-.55-.92,0-.88.42l.06.5c.05.51.73-.08.76-.37l.06-.55c0-.26-.29-.24-.45-.18a.79.79,0,0,0-.43.6l-.11,1.1c0,.32.36.3.55.22a.94.94,0,0,0,.55-.75,79.58,79.58,0,0,0,.18-8.6c0-2.77-.05-5.54-.06-8.3,0-5.6-.08-11.19-.08-16.78l0-33.62c0-6.32,0-12.64.05-19,0-.38-.41-.39-.67-.27a1.13,1.13,0,0,0-.65.9q0,3.27,0,6.55c0,.36.4.37.66.25a1.11,1.11,0,0,0,.64-.88c0-1.22,0-2.45,0-3.67s0-2.43-.05-3.65c0-.35-.38-.35-.62-.24a1.05,1.05,0,0,0-.61.83Z"/><path d="M96.86,74.51c1.21,0,2.41.09,3.62.09.69,0,1.67-1.52.74-1.53H97.29c-.69,0-1.68,1.53-.74,1.53q44.9,0,89.78,0t89.76-.12c16.58,0,33.15.33,49.73.17.68,0,1.65-1.53.73-1.52s-2,.15-3,.25c-.39,0-1.17.94-.48,1,.91.1,1.84.25,2.76.26.68,0,1.66-1.51.73-1.52-14.8-.15-29.6.07-44.4.17s-29.87-.11-44.8-.11q-44.85,0-89.68,0-25.18,0-50.38,0c-.69,0-1.68,1.53-.74,1.53q2,0,3.93,0c.69,0,1.67-1.53.74-1.53-1.24,0-2.48.05-3.71.1-.57,0-1.51,1.31-.65,1.34Z"/><path d="M253.21,87.82a11.31,11.31,0,0,0-.28,2.39c0,.77,0,1.53,0,2.3,0,.39.42.4.69.27a1.14,1.14,0,0,0,.68-.93l0-2.08c0-.38-.4-.39-.66-.27a1.11,1.11,0,0,0-.65.9c0,.17,0,.35,0,.52,0,.38.42.39.67.27a1.14,1.14,0,0,0,.66-.9c0-1.14,0-2.28,0-3.42,0-.39-.43-.4-.7-.28a1.18,1.18,0,0,0-.69.94v14.12q0,7.21,0,14.41v14.46c0,4.76,0,9.51,0,14.27,0,4.55-.09,9.1,0,13.64,0,.55.06,1.08.13,1.62,0,.31.32.34.57.22a1,1,0,0,0,.56-.76,55.1,55.1,0,0,0,.17-6.8l0-6.9q0-7.06,0-14.15V117.22q0-7.25,0-14.49V86.87c0-.39-.43-.4-.7-.28a1.18,1.18,0,0,0-.69.94c0,1.13,0,2.26,0,3.39,0,.38.41.39.67.27a1.14,1.14,0,0,0,.66-.9c0-.18,0-.35,0-.52,0-.38-.41-.39-.66-.27a1.11,1.11,0,0,0-.65.9l0,2.11c0,.39.43.4.69.27a1.16,1.16,0,0,0,.68-.93c0-.77,0-1.53,0-2.29,0-.35,0-.69-.05-1a5,5,0,0,0-.23-1.09c-.12-.43-.75.18-.79.38Z"/><path d="M254.14,88.77c.5.06,1,.11,1.51.14a1.1,1.1,0,0,0,.89-.65c.13-.28.11-.65-.26-.67-.87,0-1.74,0-2.61,0a1.12,1.12,0,0,0-.93.67c-.12.27-.12.69.27.69h2.88a1.16,1.16,0,0,0,.94-.68c.13-.27.12-.7-.27-.7H254.2a1.13,1.13,0,0,0-.93.67c-.13.27-.12.69.27.69l13.5,0q6.75,0,13.48,0l3.74,0c1.28,0,2.57.07,3.86,0a1.22,1.22,0,0,0,.95-.69c.12-.27.12-.73-.28-.71s-.66,0-1,0a4.44,4.44,0,0,0-1.08.24c-.23.08-.82.61-.4.83a2.09,2.09,0,0,0,.85.25c.31,0,.63,0,.95,0a1.2,1.2,0,0,0,.95-.69c.13-.29.12-.7-.28-.71-1.13,0-2.26,0-3.39,0H282l-6.76,0c-4.49,0-9,0-13.47,0l-7.6,0a1.11,1.11,0,0,0-.93.67c-.13.27-.12.69.27.69h2.35a1.16,1.16,0,0,0,.94-.68c.13-.27.12-.7-.27-.7h-2.89a1.14,1.14,0,0,0-.93.67c-.12.27-.12.69.27.69.88,0,1.76,0,2.64,0a1.14,1.14,0,0,0,.89-.65c.12-.25.12-.69-.26-.67-.55,0-1.09.08-1.64.14a.91.91,0,0,0-.7.51c-.11.23-.08.49.2.53Z"/><path d="M286.1,89.55c-.05,1.5-.12,3-.14,4.52,0,.37.41.38.67.26a1.15,1.15,0,0,0,.65-.9c0-1,0-1.92,0-2.88,0-.38-.42-.39-.68-.27a1.14,1.14,0,0,0-.66.91v2.1c0,.37.42.38.68.26a1.13,1.13,0,0,0,.66-.91V89.5c0-.38-.41-.39-.67-.26a1.13,1.13,0,0,0-.66.9q0,13.44.13,26.88c.07,9,0,18-.1,26.94l0,7.48c0,1.25,0,2.5,0,3.75,0,.63,0,1.27.06,1.91s.12,1.23.19,1.85c0,.24.26.26.45.17a.76.76,0,0,0,.45-.61c.13-1.19.21-2.37.24-3.58s0-2.21,0-3.31l0-6.76-.08-13.34c-.05-9,0-18,.05-26.92,0-5,0-10.07,0-15.1,0-.38-.41-.39-.67-.26a1.11,1.11,0,0,0-.66.9v3.15c0,.37.42.38.68.26a1.13,1.13,0,0,0,.66-.91V90.55c0-.38-.42-.39-.68-.27a1.14,1.14,0,0,0-.66.91c0,1,0,1.92,0,2.88,0,.37.41.38.67.26a1.14,1.14,0,0,0,.65-.9c0-1.46-.1-2.92-.14-4.38,0-.3-.32-.31-.53-.21a.88.88,0,0,0-.51.71Z"/><path d="M130.54,87.31c-.08.61-.19,1.21-.25,1.82a13.34,13.34,0,0,0,0,1.55c0,.4.44.41.71.28a1.16,1.16,0,0,0,.69-.95c0-.35,0-.69,0-1s-.4-.4-.67-.27a1.1,1.1,0,0,0-.66.91l0,.77c0,.35.38.37.64.25a1.07,1.07,0,0,0,.63-.86c0-1-.05-1.91,0-2.87,0-.33-.37-.34-.6-.23a1,1,0,0,0-.59.81q0,6.8,0,13.6t0,13.53c0,1.19,0,2.38,0,3.57,0,.57,0,1.15,0,1.73a8,8,0,0,0,.23,1.62c0,.18.29.13.4.08a.74.74,0,0,0,.39-.46,11.22,11.22,0,0,0,.23-1.63c0-.51,0-1,0-1.52,0-1.06,0-2.11,0-3.17v-6.61c0-4.58,0-9.16,0-13.74l0-7.58c0-.33-.37-.34-.6-.23a1,1,0,0,0-.59.81c0,1,0,1.93,0,2.9,0,.36.4.36.64.25a1.08,1.08,0,0,0,.63-.86l0-.8c0-.39-.42-.39-.67-.27a1.12,1.12,0,0,0-.66.91c0,.35,0,.71,0,1.06s.44.41.71.28a1.16,1.16,0,0,0,.69-.95,14.63,14.63,0,0,0,0-1.48c-.05-.51-.17-1-.25-1.55s-.86,0-.9.33Z"/><path d="M129.82,122.05a7.38,7.38,0,0,0,1.05.15l1.09,0a1.16,1.16,0,0,0,.95-.69c.13-.27.12-.71-.28-.71h-2.36a1.17,1.17,0,0,0-1,.7c-.13.27-.13.71.28.71,8.81,0,17.63,0,26.45,0s17.5,0,26.26,0q3.67,0,7.37,0l3.62,0c.63,0,1.26,0,1.89,0s1.31-.14,2-.22c.35,0,.92-.86.34-.94s-1-.18-1.51-.21-1.16,0-1.74,0l-3.24,0c-2.2,0-4.39,0-6.59,0H145l-14.77,0a1.17,1.17,0,0,0-1,.7c-.13.27-.13.71.28.71H132a1.18,1.18,0,0,0,.95-.69c.12-.26.13-.72-.28-.71s-.74,0-1.11,0a9.65,9.65,0,0,0-1.19.14,1,1,0,0,0-.61.53c-.07.14-.13.49.1.53Z"/><path d="M195.79,87.41c0,.63,0,1.26-.11,1.89a16.44,16.44,0,0,0-.05,1.86c0,.33.37.34.6.23a1,1,0,0,0,.59-.81c0-.35,0-.69,0-1,0-.7-1.17,0-1.13.54,0,.34.07.68.06,1s.32.29.51.2a.85.85,0,0,0,.49-.68l0-2.11c0-.29-.32-.29-.52-.2a.85.85,0,0,0-.51.7q0,6.24,0,12.47t0,12.42c0,2.16-.09,4.34.11,6.5,0,.22.24.23.41.16a.74.74,0,0,0,.4-.55c.17-1.93.1-3.86.1-5.79l0-6.17q0-6.3,0-12.59c0-2.32,0-4.63,0-7,0-.29-.32-.3-.52-.2a.88.88,0,0,0-.51.7v2.09c0,.28.31.29.51.2a.85.85,0,0,0,.49-.68c0-.36,0-.72.07-1.08s-.37-.32-.57-.23a1,1,0,0,0-.56.77c0,.36,0,.71,0,1.07s.37.34.6.23a1,1,0,0,0,.59-.81,15.57,15.57,0,0,0,0-1.81c-.07-.59-.08-1.19-.11-1.78,0-.24-.26-.25-.44-.17a.74.74,0,0,0-.43.59Z"/><path d="M131.27,88.21a12.19,12.19,0,0,0,1.58.2h1.47a1.16,1.16,0,0,0,.93-.68c.12-.26.12-.69-.27-.69h-3.41a1.13,1.13,0,0,0-.92.68c-.13.27-.13.68.27.69,8.35.07,16.7,0,25.05,0l25.05,0h12.42c.3,0,.6,0,.9,0a5.74,5.74,0,0,0,1-.25c.23-.07.89-.7.42-.89a3.33,3.33,0,0,0-.6-.22,3.49,3.49,0,0,0-.79,0h-23.7c-8.34,0-16.67,0-25,0-4.7,0-9.39,0-14.09,0a1.14,1.14,0,0,0-.92.68c-.13.26-.13.69.27.69h3.4a1.16,1.16,0,0,0,.93-.68c.12-.26.12-.69-.27-.69H133.5a15,15,0,0,0-1.76.2.85.85,0,0,0-.66.48c-.1.22-.08.46.19.49Z"/><path d="M96.57,130.38l2.33.05c.72,0,1.7-1.57.76-1.57h-.79c-.7,0-1.7,1.56-.75,1.56q44.52-.17,89-.13c29.68,0,59.37-.07,89-.05h25c4.06,0,8.11.11,12.17.16a81.4,81.4,0,0,0,11.37-.25c.5-.07,1-1.15.26-1l-.38,0c-.43,0-1,1-.46,1a2.46,2.46,0,0,1,.45.07c.48.07,1.19-1,.52-1.08a64.23,64.23,0,0,0-10.1-.25L304,129c-7.41.1-14.84,0-22.25,0-14.83,0-29.65,0-44.48,0H148.73c-16.62,0-33.24-.07-49.86-.12-.71,0-1.71,1.55-.75,1.56h.78c.72,0,1.7-1.58.76-1.57l-2.39,0c-.63,0-1.62,1.45-.7,1.47Z"/><path d="M109.33,172.82c-.14,2-.17,3.91-.21,5.87s-.08,3.86-.06,5.79c0,.4.43.41.71.28a1.16,1.16,0,0,0,.69-.95l0-7.58c0-.37-.41-.38-.67-.26a1.12,1.12,0,0,0-.65.89c.06,8,0,16,0,24l0,24.14c0,4.38.07,8.77,0,13.15,0,.38.41.39.67.27a1.15,1.15,0,0,0,.65-.9l0-1.85c0-.39-.43-.39-.7-.27a1.18,1.18,0,0,0-.68.93c0,2.28,0,4.55,0,6.83,0,.4.44.41.72.28a1.19,1.19,0,0,0,.7-1V242c0-.41-.45-.42-.73-.29a1.23,1.23,0,0,0-.71,1c0,.7,0,1.4,0,2.09,0,.41.43.43.73.29a1.2,1.2,0,0,0,.71-1c0-.51,0-1-.07-1.54,0-.36-.39-.38-.66-.26a1.1,1.1,0,0,0-.64.89c0,.53,0,1.07-.07,1.6s.46.42.73.29a1.22,1.22,0,0,0,.71-1c0-.7,0-1.4,0-2.09,0-.41-.45-.42-.73-.29a1.23,1.23,0,0,0-.71,1v.52c0,.4.44.41.72.28a1.17,1.17,0,0,0,.7-1c0-2.26,0-4.53,0-6.8,0-.38-.43-.4-.7-.27a1.18,1.18,0,0,0-.68.93l0,1.82c0,.38.41.39.67.27a1.1,1.1,0,0,0,.65-.9c0-3.91,0-7.83,0-11.75V213.9c0-8.08,0-16.17,0-24.25,0-4.47-.06-9,0-13.42,0-.37-.41-.38-.67-.26a1.14,1.14,0,0,0-.65.89l0,7.62c0,.4.44.41.71.28a1.18,1.18,0,0,0,.69-.95c0-1.91,0-3.83-.06-5.74s-.06-3.78-.21-5.66c0-.24-.26-.25-.44-.17a.75.75,0,0,0-.42.58Z"/><path d="M312.92,172.29q-.1,3-.2,6.09c-.05,1.93,0,3.86,0,5.78,0,.33.35.34.58.23a1,1,0,0,0,.57-.79c0-1.69,0-3.39,0-5.09s.07-3.28.07-4.91c0-.39-.43-.4-.69-.27a1.13,1.13,0,0,0-.68.93q0,6.78,0,13.57c0,4.63,0,9.26,0,13.89s.06,9.23.08,13.84.05,9.13,0,13.69c0,2.23,0,4.45-.05,6.68s-.13,4.35,0,6.51a9.25,9.25,0,0,0,.21,1.48c.1.45.81-.18.85-.4a12.19,12.19,0,0,0,.21-1.69c0-.55,0-1.09,0-1.64,0-1.06,0-2.13,0-3.19l0-6.59c0-4.56,0-9.11,0-13.66s0-9.26.06-13.89,0-9.31.06-14,0-9.08,0-13.62V173.6c0-.39-.43-.4-.69-.27a1.13,1.13,0,0,0-.68.93c0,1.61,0,3.23.07,4.84s0,3.37,0,5.06c0,.33.36.34.58.23a1,1,0,0,0,.57-.79c0-1.93.1-3.87.05-5.81s-.13-3.93-.21-5.9c0-.24-.25-.24-.42-.17a.75.75,0,0,0-.42.57Z"/><path d="M181.24,243.57c2.59-2.48,5.16-5,7.71-7.48.2-.19.47-.62.22-.88s-.69,0-.87.22l-5.8,5.74c-.21.21-.5.68-.24,1s.76,0,1-.24l4.2-4.18c.22-.22.51-.69.24-1s-.77.05-1,.25l-5,5c-.21.21-.53.71-.25,1s.79,0,1-.24c4.57-4.56,9.11-9.13,13.67-13.69l13.71-13.73q6.84-6.87,13.69-13.76l13.68-13.75c4.56-4.57,9.12-9.14,13.74-13.63l1.72-1.67c.22-.21.52-.7.25-1s-.78.05-1,.25c-2,2-4.12,3.92-6,6.06-.19.2-.48.62-.23.88s.7,0,.89-.22c2.14-1.87,4.08-3.95,6.06-6,.22-.22.52-.69.25-1s-.78,0-1,.25q-6.75,6.93-13.6,13.76l-13.75,13.68q-6.89,6.84-13.76,13.69l-13.73,13.71L183.4,240.24l-1.7,1.7c-.21.21-.53.71-.25,1s.79,0,1-.24l5-5c.21-.22.51-.69.24-1s-.77.05-1,.25l-4.19,4.2c-.21.21-.5.68-.24,1s.77,0,1-.24q2.88-2.88,5.73-5.79c.2-.2.47-.62.22-.88s-.7,0-.87.22q-3.78,3.82-7.48,7.72c-.12.12-.31.4-.14.56s.44,0,.56-.14Z"/><path d="M128.36,182c-.06,1.46-.15,2.92-.13,4.38s.11,2.86.09,4.28c0,.33.36.33.57.23a.94.94,0,0,0,.56-.77c0-3.24.07-6.49.08-9.73,0-.36-.4-.37-.65-.25a1.08,1.08,0,0,0-.64.87c0,8.09.13,16.18.12,24.28s0,16.17-.11,24.26c0,4.44-.09,8.89-.1,13.34,0,.42.46.43.75.29a1.24,1.24,0,0,0,.72-1c0-.49,0-1,0-1.48a4.28,4.28,0,0,0,0-.72c-.05-.23-.13-.45-.19-.67s-.34-.16-.48-.09a.89.89,0,0,0-.47.55,8,8,0,0,0-.23,1.61c0,.5,0,1,0,1.51s.46.43.75.29a1.22,1.22,0,0,0,.72-1c0-8-.2-15.95-.2-23.92s0-16.16.06-24.24c0-4.55.07-9.09.05-13.63,0-.36-.4-.37-.65-.25a1.08,1.08,0,0,0-.64.87c0,3.22,0,6.44.08,9.65,0,.32.35.33.57.23a.94.94,0,0,0,.56-.77c0-1.45.07-2.91.09-4.36s-.06-2.85-.13-4.27c0-.29-.31-.31-.53-.21a.91.91,0,0,0-.52.72Z"/><path d="M128.85,183.77a36.1,36.1,0,0,0,6,.32,1.22,1.22,0,0,0,1-.72c.14-.29.13-.74-.29-.75-1.92,0-3.83,0-5.75,0a1.29,1.29,0,0,0-1,.76c-.14.3-.14.78.3.78,5.18,0,10.36,0,15.55,0l7.78,0c2.61,0,5.23,0,7.84,0,1.43,0,2.85,0,4.28,0,.72,0,1.47.09,2.19,0l.82-.05a2,2,0,0,0,.95-.39c.19-.11.48-.39.31-.62s-.2-.31-.4-.36a3.48,3.48,0,0,0-.73-.06,16,16,0,0,0-2,0c-1.27,0-2.55.08-3.82.05-2.6-.07-5.19-.05-7.79-.06-5.19,0-10.39,0-15.58,0h-8.7a1.29,1.29,0,0,0-1,.76c-.14.3-.14.77.3.78,1.93,0,3.86,0,5.78,0a1.24,1.24,0,0,0,1-.72c.13-.29.13-.75-.29-.75a47,47,0,0,0-6.28.32.78.78,0,0,0-.48.41c-.05.12-.1.39.08.42Z"/><path d="M168.2,182c-.06,2.47-.15,4.94-.15,7.41,0,.37.41.38.67.26a1.12,1.12,0,0,0,.65-.89v-3.67c0-.38-.41-.39-.66-.26a1.09,1.09,0,0,0-.66.89c0,.61,0,1.21,0,1.82,0,.35.38.36.63.25a1.09,1.09,0,0,0,.62-.85c0-1.22,0-2.44,0-3.66,0-.34-.38-.35-.61-.24a1,1,0,0,0-.6.82c0,7.58,0,15.15-.06,22.73s0,15.08,0,22.61c0,2.11,0,4.21,0,6.32,0,1,0,2.05,0,3.08,0,.53,0,1,.05,1.58s.12,1,.18,1.51c0,.25.26.27.46.18a.78.78,0,0,0,.44-.61,28.87,28.87,0,0,0,.23-2.94c0-1,0-1.9,0-2.85,0-1.85,0-3.7,0-5.55V218.69q0-11.33,0-22.65,0-6.36,0-12.71c0-.34-.38-.35-.61-.24a1,1,0,0,0-.6.82c0,1.23,0,2.45,0,3.68,0,.35.39.36.63.25a1.08,1.08,0,0,0,.62-.85c0-.62,0-1.24,0-1.85,0-.38-.41-.39-.66-.26a1.11,1.11,0,0,0-.66.89c0,1.23,0,2.45,0,3.67,0,.37.41.38.67.26a1.12,1.12,0,0,0,.65-.89c0-2.43-.09-4.85-.15-7.27,0-.29-.31-.3-.51-.2a.87.87,0,0,0-.51.69Z"/><path d="M157.09,183.79l-.17,1.75c0,.53-.17,1-.17,1.56s.43.4.7.27a1.17,1.17,0,0,0,.69-.94v-1.05c0-.39-.43-.4-.7-.27a1.17,1.17,0,0,0-.69.94c0,.43,0,.87,0,1.3s.41.39.68.27a1.15,1.15,0,0,0,.67-.92l-.11-3.61c0-.32-.34-.34-.57-.23a1,1,0,0,0-.56.77c.11,4,0,7.9,0,11.85s0,7.86,0,11.79v23.34c0,2.18,0,4.35,0,6.53v4.92a5.44,5.44,0,0,0,.14,1.66c.16.52,1.14-.25,1-.72a1.52,1.52,0,0,0-.18-.46l.06.15v0c0-.22-.24-.22-.39-.15a.63.63,0,0,0-.38.52c0-.11,0-.16,0,0s0,.14-.05.21l-.07.28a.29.29,0,0,0,.38.37.93.93,0,0,0,.63-.63,13.14,13.14,0,0,0,.13-3v-8.75c0-3.91,0-7.81,0-11.72q0-11.69,0-23.37,0-3.28,0-6.57c0-2.24-.08-4.48,0-6.72,0-.33-.36-.33-.57-.23a1,1,0,0,0-.56.77l-.11,3.72c0,.38.43.39.68.27a1.15,1.15,0,0,0,.67-.92c0-.44,0-.88,0-1.32s-.43-.4-.7-.27a1.17,1.17,0,0,0-.69.94v1c0,.39.43.4.7.27a1.15,1.15,0,0,0,.69-.94A13.18,13.18,0,0,0,158,185l-.17-1.59c0-.2-.2-.21-.36-.14a.62.62,0,0,0-.35.48Z"/><path d="M71,243.8l2.86,0a1.65,1.65,0,0,1,.31,0c.11,0,.18.11.29.14a2.68,2.68,0,0,0,.8.06h1.36a1.25,1.25,0,0,0,1-.73c.13-.29.13-.75-.3-.75q-3.66,0-7.33,0a1.27,1.27,0,0,0-1,.74c-.14.29-.13.76.3.76a54.87,54.87,0,0,0,6.41-.25.91.91,0,0,0,.68-.49c.1-.23.07-.47-.2-.51a47,47,0,0,0-6.17-.25,1.27,1.27,0,0,0-1,.74c-.14.3-.13.76.3.76,2.45,0,4.9,0,7.34,0a1.24,1.24,0,0,0,1-.73c.13-.29.13-.75-.3-.75H76a4,4,0,0,0-.85.05c-.15,0-.29.11-.43.15a2.09,2.09,0,0,1-.35,0l-2.9,0a.72.72,0,0,0-.6.43c-.08.18-.08.44.17.45Z"/><path d="M72.55,242.35c3.63.2,7.26.21,10.9.21.7,0,1.69-1.55.74-1.55H70c-.69,0-1.68,1.54-.74,1.54q56.72-.09,113.41-.06c37.66,0,75.31-.06,113,.07,20.94.07,41.89.3,62.83.1.8,0,1.93-1.78.85-1.77-3.37,0-6.74.21-10.11.32-.48,0-1.27,1.11-.55,1.14,3.27.11,6.54.27,9.81.31.8,0,1.93-1.76.85-1.77-18.86-.17-37.72,0-56.57.09s-37.73.08-56.59.08q-56.44,0-112.88,0-31.63,0-63.28,0c-.69,0-1.68,1.54-.74,1.54H83.45c.7,0,1.69-1.55.74-1.55-3.7,0-7.4,0-11.1.22-.47,0-1.27,1.08-.54,1.12Z"/><path d="M236,204.3c.29-.17.2.47.18.61s-.09.51-.1.76c-.06,1.17,0,2.35,0,3.51,0,2.34.19,4.67.28,7s.19,4.88.22,7.32c0,1.17,0,2.34,0,3.51,0,.47,0,.94,0,1.41a1.51,1.51,0,0,0,.15.69c.28.49,1,.53,1.53.57a21.91,21.91,0,0,0,3.34,0c2.28-.12,4.55-.4,6.84-.39a56.54,56.54,0,0,0,7.13-.14c2.25-.27,4.43-.85,6.65-1.27a17.14,17.14,0,0,1,3.42-.38,21,21,0,0,1,3.35.38,54.16,54.16,0,0,0,6.45,1.05c1.15.06,2.3,0,3.44-.07l3.59-.07c2.37,0,4.75-.07,7.13,0s4.51.49,6.78.67c.79.06,1.57.12,2.35.22a15.07,15.07,0,0,0,2.51.18,2.66,2.66,0,0,0,2.61-1.53,10.32,10.32,0,0,0,.58-3.82c0-1.22-.05-2.43-.06-3.65,0-2.31,0-4.63,0-6.94,0-1.05,0-2.1,0-3.14,0-.53.07-1,.11-1.58a11.6,11.6,0,0,0-.17-3.9,1.54,1.54,0,0,0-.67-1c-.08,0-.22.13-.13.18a1.73,1.73,0,0,1,.69,1.21,8.77,8.77,0,0,1,.15,2c0,1.13-.16,2.26-.17,3.38-.05,3.91-.05,7.82,0,11.72A22.65,22.65,0,0,1,304,227a5.1,5.1,0,0,1-.52,1.66,2,2,0,0,1-1.33.92c-1.58.36-3.27-.13-4.84-.26-1-.08-1.95-.15-2.92-.27s-2.21-.29-3.31-.38-2.33-.08-3.5-.07h-3.53c-2.33,0-4.66.06-7,.15a28,28,0,0,1-6.63-.79,19.51,19.51,0,0,0-6.13-.58c-2.26.28-4.46.87-6.7,1.28a35.28,35.28,0,0,1-7,.48c-1.17,0-2.33-.06-3.49,0s-2.26.14-3.39.23-2.24.18-3.36.2a9.84,9.84,0,0,1-3-.21c-.64-.19-.69-.69-.7-1.28,0-1.1,0-2.21,0-3.31,0-2.37-.06-4.75-.15-7.12s-.25-4.67-.32-7c0-1.14-.05-2.29-.06-3.43,0-.54,0-1.09,0-1.63,0-.26.06-.51.08-.76s.07-.89-.37-.62c-.06,0-.07.18,0,.12Z"/><path d="M235.92,204a126.91,126.91,0,0,0,13.23.15c2.2-.06,4.4-.11,6.6-.13s4.29.15,6.44.26c1.06.05,2.12.07,3.17,0s2.16-.21,3.24-.33a50.77,50.77,0,0,1,6.53-.14c4.41.06,8.83-.16,13.25-.28,2.16-.05,4.34,0,6.49-.17,1.06-.1,2.11-.23,3.17-.27s2,.1,3,.08a4,4,0,0,0,1.28-.23c.12,0,.18-.27,0-.21a7.68,7.68,0,0,1-3.06.15,21.6,21.6,0,0,0-3.12.14,31.29,31.29,0,0,1-3.2.23l-3.26,0c-4.37.09-8.73.31-13.09.31-2.18,0-4.36-.11-6.54,0-1.08.07-2.14.26-3.21.37a28.58,28.58,0,0,1-3.2.1c-2.11-.05-4.21-.26-6.32-.3s-4.36,0-6.53.09c-4.4.11-8.8.25-13.19,0l-1.61-.1c-.08,0-.2.16-.09.17Z"/><path d="M246.36,230.3c0,3.55-.08,7.1,0,10.65,0,.08.13,0,.13-.07.1-3.55.06-7.11,0-10.66,0-.11-.17,0-.17.08Z"/><path d="M259.47,228q0,3.56,0,7.11c0,2.4-.05,4.81.06,7.2,0,.08.11,0,.11-.05.11-2.42.06-4.84.06-7.26s0-4.72,0-7.08c0-.09-.15,0-.15.08Z"/><path d="M263.66,227.85q0,3,0,6c0,2-.07,4,0,6,0,.08.13,0,.13-.06.11-2,.05-4,.05-6.05s0-4,0-6c0-.1-.16,0-.16.07Z"/><path d="M287.42,228.9c0,1.95,0,3.91,0,5.86v2.92c0,1,0,1.94.06,2.91,0,.06.09,0,.09-.05.08-1,.06-1.94.06-2.9v-3c0-1.94,0-3.89,0-5.83,0-.09-.14,0-.14.07Z"/><path d="M291.41,228.39v12a17.82,17.82,0,0,0,0,1.79c0,.11.16,0,.17-.08,0-.58,0-1.17,0-1.75V228.29c0-.12-.2,0-.2.1Z"/><path d="M272.91,229.08c0,3.66-.09,7.33,0,11,0,.07.11,0,.11-.06.12-3.67.07-7.35,0-11,0-.1-.17,0-.17.09Z"/></g></svg>