<svg xmlns="http://www.w3.org/2000/svg" viewBox="0 0 430 294"><g style="isolation:isolate"><path d="M163.64,239.12a1,1,0,0,0-1.13-.22c1-7.55.25-15.37.4-23,.1-5.05.15-10.09.22-15.14a1.42,1.42,0,0,0,.12-.59c0-.78,0-1.55,0-2.32a41.59,41.59,0,0,0,.08-8.13,1.07,1.07,0,0,0-.06-1.11c0-.57-.26-.86-.63-.94a1.65,1.65,0,0,0-.69,0c-2.5-1.15-5.6-.59-8.32-.59H134.72c-13.67,0-27.35-.06-41,0a2.79,2.79,0,0,0-1.24.37l-.16.09v-.14c0-.71-.24-1.06-.69-1.15-1.38-.44-4.34,1.72-4.2,3.5-.05,8.67,0,17.34,0,26,0,7.59-1.09,16.4.47,23.95-.76,1.08-1,2.25.18,2.52a1.65,1.65,0,0,0,.63.09c12.52.49,25.1,0,37.63,0,10.76,0,23.08,1.63,33.59-.8l.22-.09h0s0,0,0,.06a1.16,1.16,0,0,0,.06.52c.31.84,1.42.4,1.93,0h0C163,241.71,164.62,240.11,163.64,239.12Z" fill="#7f7f7f"/><path d="M193.63,225.43c0-.86-.48-1-1.06-.87,0-2.31-.07-4.63-.16-6.94,1.64-8.44.33-18.22-.06-26.69a1.9,1.9,0,0,0,.33-1.18,2.11,2.11,0,0,0-.44-1.31,3.61,3.61,0,0,0-1.19-.6,7.29,7.29,0,0,0-2.87-.28A2.62,2.62,0,0,0,187,188c-.64,0-1.29,0-1.86,0a39.76,39.76,0,0,0-4.88-.11h0a.94.94,0,0,0-.47-.17,2.57,2.57,0,0,1-1.2-.5c-1.52-1.19-3.89,1.26-3.85,2.78a4.4,4.4,0,0,0,.1.74,1.88,1.88,0,0,0,.56,1.8,2.56,2.56,0,0,0,.57.89,1.76,1.76,0,0,0-.13.61c0,7.87.14,15.74.27,23.6.13,7.25-1,15.49.44,22.62a4.33,4.33,0,0,0-.55.86c-.58,1.26.29,2.13,1.54,1.55a5.14,5.14,0,0,0,.95-.61c2,.07,4,0,6,0a18.49,18.49,0,0,0,3-.16.64.64,0,0,0,.31.25c2,.64,5.11.71,6.07-1.6.25-.63.3-1.28-.12-1.63C195.23,234.87,193.72,229.39,193.63,225.43Z" fill="#7f7f7f"/><path d="M330,231.45a.74.74,0,0,0-.38-.64c.24-5.79.21-11.62.33-17.39.17-8,1.52-17.39-.81-25.12-.49-1.64-2.39-.3-3.4.91-5-2.76-13-1.2-18.46-1.14-8.25.11-16.49.12-24.74.14-16.39,0-33.26-1-49.59.49a2,2,0,0,0-.4.08,1.44,1.44,0,0,0-.36-.6c-.7-.71-1.76-.37-2.55-.06l-.11,0a1.91,1.91,0,0,0-.32.16c-.26-1.57-2.7-.53-3.42.6a3.06,3.06,0,0,0-.57,2.51,9.65,9.65,0,0,0-.42,2.24,4.22,4.22,0,0,0,.4,2.5s0,0,0,.06l0,.07a1.15,1.15,0,0,0,.64.48c-.39,6.68.16,13.57.15,20.21,0,5.23-.42,10.78-.22,16.18,0,2.55.36,5.3-.76,7.67-.22.48-.39,1.43.32,1.63a4,4,0,0,0,3.31-.31h.05c15.23,1.57,31.17.31,46.48.31h25c5.89,0,12.08.57,18-.15a1.2,1.2,0,0,0,.71.29c2.91.39,5.87-.39,8.79-.23a3,3,0,0,0,2.62-2.24C331,237.12,330.16,234.47,330,231.45Z" fill="#7f7f7f"/><path d="M342.77,168.75a1.07,1.07,0,0,0-1.09-1.09c-1-.12.48-18.85.87-24.54a3,3,0,0,0,.09-1.51c-.2-1.36-1-1.65-1.89-1.37-1-2.16-3.22-3.56-5.84-5-6.55-3.63-13.14-7.14-19.41-11.27-6.45-4.24-11.1-9.8-18.23-13.19-1-.48-17.38-8.46-17.18-10.53.12-1.28-.77-1.26-1.77-.75-.15-1.4-2.39-1.75-4,.33-1.91,2.41-7,3.83-9.68,5.5-5.54,3.42-10.6,7.72-16,11.43-6,4.13-12,8.36-18.56,11.55-4.05,2-8.37,6.08-12.68,7.95a10.86,10.86,0,0,0-3,1,4.86,4.86,0,0,0-1.71,1.73c-1.61.62-3.34,2.79-3.31,4.1.19,8.61-.39,17.21-.33,25.81-.85.92-1.44,2.12-.24,2.5,8.35,2.69,18.89,1.13,27.63,1.24,11.32.14,22.65,0,34,0l33.93,0c8.1,0,18.08,1.71,25.8-1.33,3.18.93,6.05.93,9.49,1.22,1.46.12,3.13-1.71,3.11-3.1C342.77,169.18,342.77,169,342.77,168.75Z" fill="#c49257"/><path d="M190.43,172.76c-.67-1.23-2.19-.44-3.07.58l-.26-.13c-5-2.07-10.95-1.13-16.27-1.12-6.59,0-13.67-.84-20,1a1.33,1.33,0,0,0-.23.1c-5.59-2-12.13-1.39-18-1.4q-12.36,0-24.72,0c-14.42,0-29.91-1.53-44.17.7a1.36,1.36,0,0,0-.47.19c-1.23-1.45-4.45,1.68-4.37,3.22.15,2.86.53,5.63.94,8.42,0,4-.49,8.23-.57,11.79-.18,7.75-.9,15.45-1.18,23.19-.21,5.62-1.75,15.42.69,20.64,1.57,3.36,5,3,8.19,2,1.8.44,3.72.55,5.55.83s3.79-2.18,3.79-3.79a44.06,44.06,0,0,0-.31-5.26c0-.4-.06-.85-.09-1.31.08-.75.14-1.44.15-1.91,0-2.61,0-5.19-.18-7.79,0-.5,0-1,0-1.51a4.06,4.06,0,0,0,.44-.78c2.08-5.75,1.34-12.53,1.51-18.6a71.42,71.42,0,0,0-1-16.4c7.39,1.58,15.59.64,23.08.66l30.59.07,30.58.07c5.89,0,12.77,1,18.86,0a2.37,2.37,0,0,0,1.65.58c1.84.07,3.76-.36,5.58,0,2.05.38,3.89-1.59,4.11-3.51C191.52,179.93,192.11,175.86,190.43,172.76Z" fill="#c49257"/><path d="M366.13,243.23a1.28,1.28,0,0,0-.86-.21c-10.12-2-21.44-.75-31.7-.76H310.32c.44-.11.88-.21,1.31-.35a3.42,3.42,0,0,0,.4-.19c.94.53,2.53-1.26,2.78-2,2-6.25,1-13.48,1.09-20,.1-7.48.64-14.87-.58-22.28-.25-1.5-1.55-1.26-2.64-.49-4.24-1.91-9.51-1-14.08-1H280.49c-13,0-26.43-1-39.38.3a2.69,2.69,0,0,0-1,.34c-1.07-.18-2.93,1.73-3.1,2.5-1.48,6.6-.9,13.51-.83,20.24.06,6.48-.91,13.92.65,20.31-.81.95-1.38,2.12-.84,2.67h-24.2q-30.56,0-61.13,0c1.7-.73,4-3.57,2.27-4.32.85-6.31.72-12.77.76-19.12,0-7.68,1.51-16.32-.37-23.79-.39-1.57-2.26-.34-3.29.83-7.1-1.47-15.19-.43-22.35-.43-8,0-16.66-1-24.49.81-.86-.53-3,1.41-3.17,2.23-1.11,7.3-.58,14.76-.3,22.11.26,7.07-.79,14.65.7,21.55a.56.56,0,0,0,.07.18l-50.92.07a2.46,2.46,0,0,0-.94.21c-2.54.47-5.92,5.41-3.2,6.05a2.05,2.05,0,0,0,1,.23l16.56,0a6.85,6.85,0,0,0-2.49,4c-.06.89.39,1.54,1.67,1.54h21.2c-1.44,1.82-2,4.06.41,4.12,43.87,1,87.84.1,131.72.18q33,0,65.89.07c20.41,0,41.18,1.1,61.43-1.7,1.15-.16,2.9-2.39,2-3.28,2.22-.24,4.43-.51,6.63-.86,1-.15,3.7-3.33,1.77-3.68l-.64-.1a78.55,78.55,0,0,0,10.8-1.09,3.47,3.47,0,0,0,1.87-1.27C366.55,245.54,367.21,243.73,366.13,243.23Z" fill="#b7b7b7"/><path d="M193.74,189.6c-.41-1.13-1.27-1.15-2.19-.7a1.16,1.16,0,0,0-.62-.62c-6.79-3.33-16.69-1.51-24.11-1.51l-29,0c-19,0-38.17-.86-57.1.2-2.53.14-6.83,5.62-3.56,6.32a32.65,32.65,0,0,0-.51,8.44c.06,1.06.64,1.47,1.62,1.62a18.69,18.69,0,0,0,5.23,0c6.43,1.48,14.51.13,20.63.13q14.11,0,28.21,0h28.22c9.57,0,19.72,1,29.15-.72a6.36,6.36,0,0,0,2.77-2.32l.11-.1a5,5,0,0,0,1-1.38,7.94,7.94,0,0,0,.65-3.54C194.17,193.55,194.41,191.42,193.74,189.6Z" fill="#b7b7b7" style="mix-blend-mode:multiply"/><path d="M345.49,197.15c-.06-.3-.11-.6-.14-.9a2.09,2.09,0,0,0-.13-.48,38.68,38.68,0,0,0-.24-6.54c-.09-1.12-1.16-1.21-2-.79a3,3,0,0,0-.61.39c-5.69-2.86-15.57-.92-21.48-.92H284q-35.44,0-70.89.42c-2.68,0-6.69,6-2.91,6.06h1.26a8.08,8.08,0,0,0-.66.65c-1.55,1.46-2.69,3.52-1.58,4.43a1.53,1.53,0,0,0,1.56.68c22.95.24,45.91.16,68.86.17H314.1c6.65,0,14.73,1.06,21.75-.21.11.54.54,1,1.45,1a49.49,49.49,0,0,0,5-.26C343.93,200.72,346,199,345.49,197.15Z" fill="#b7b7b7" style="mix-blend-mode:multiply"/><path d="M149.65,148.3c-5.54-7.6-13-10.15-12.1-21.09.4-5.15-1.3-9.09-7.09-10-2.94-.46-6.31-.65-9.1.72-5.38,2.65-9.72,8-16.63,6.52-4.14-.89-8.52-1.92-11.6,1.89-3.29,4.09-10.63,4.14-12.23,9.88C79,143,81.13,148.72,84,154.78c1.64,3.44,1.33,11.47,4,15.16-.6.58-1,1.4,0,1.52,11,1.4,22.56.48,33.64.5,10.19,0,21.32,1.32,31.32-.68a2.32,2.32,0,0,0,1-1,2.08,2.08,0,0,0,.82-1.23C155.18,162,154,154.18,149.65,148.3Z" fill="#5ba354"/><path d="M386.38,203.51c-2.72.68-3.78,3.2-4.47,5.8-1.72-2.36-4.13-4.1-7.28-3.54-2.5.45-3.78,2.63-4.31,5-.27-3.41-2.33-8.22-6.27-6.78-4.16,1.51-4.24,5.58-4.13,9.49.12,4.27,1.09,10.42,5.84,11.66,2.22.58,3.94-1.12,5.16-3.15,1.2,2.87,3.44,5.29,6.79,5.32a4.22,4.22,0,0,0,3.88-2.49c1.38,1.94,3.55,3,6,1.26,3.64-2.61,2.39-9.22,2.33-12.94C389.86,210.5,391.88,202.14,386.38,203.51Z" fill="#5ba354"/><path d="M411.69,241.88c-12.26-.4-24.54-.24-36.8-.26H33.2c-.78,0-1.88,1.72-.83,1.72H76.54c.78,0,1.89-1.73.84-1.73l-34.7,0c-.8,0-2,1.78-.86,1.78h4c.8,0,1.95-1.79.86-1.79-9.2,0-18.4-.11-27.6,0-.82,0-2,1.86-.89,1.86,22.38,0,44.75,0,67.13-.16.68,0,1.69-1.54.74-1.55-22.33-.2-44.65-.14-67-.15-.83,0-2,1.85-.89,1.86,9.21.08,18.42,0,27.63,0,.8,0,1.95-1.79.86-1.79h-4c-.8,0-2,1.78-.86,1.78l34.72,0c.78,0,1.89-1.73.84-1.73H33.2c-.78,0-1.88,1.72-.83,1.72h337c13.91,0,27.85.18,41.76-.26.48,0,1.27-1.12.55-1.14Z"/><path d="M345,192q0,9.88,0,19.76t0,19.83c0,3.7,0,7.39,0,11.09,0,.29.48,0,.48-.23l0-23.16q0-11.55,0-23.1c0-4.26,0-8.53,0-12.79,0-.35-.58,0-.58.28v25q0,12.36,0,24.73,0,6.94,0,13.88c0,.34.55,0,.55-.26v-2.51c0-.33-.55,0-.55.26,0,.83.06,1.66.06,2.48,0,.27.43,0,.43-.2,0-.85.06-1.7.06-2.54,0-.33-.55,0-.55.26v2.51c0,.34.55,0,.55-.26q0-12.36,0-24.72V183.41c0-.35-.58,0-.58.28,0,7.62,0,15.23,0,22.85s0,15.44,0,23.16v13c0,.29.48,0,.48-.23V222.72q0-9.9,0-19.81l0-11.07c0-.22-.36,0-.36.17Z"/><path d="M193.81,172.15c-15.72-.12-31.46,0-47.18,0q-23,0-46-.06-13.42,0-26.86,0c-.28,0-.67.61-.29.61H78.4c.28,0,.68-.62.3-.62q-7,0-14.08,0c-.27,0-.65.59-.29.59H74.65c.27,0,.64-.59.29-.59H59.23c-.28,0-.67.61-.3.61H70c.27,0,.66-.61.29-.61H60.17c-.28,0-.67.61-.3.61,2.84,0,5.68,0,8.51-.14.14,0,.37-.32.16-.33-2.79-.13-5.58-.14-8.37-.14-.28,0-.67.61-.3.61H70c.27,0,.66-.61.29-.61h-11c-.28,0-.67.61-.3.61H74.65c.27,0,.64-.59.29-.59H64.62c-.27,0-.65.59-.29.59l14.07,0c.28,0,.68-.62.3-.62H73.77c-.28,0-.67.61-.29.61q23.59-.06,47.21-.08,23,0,46,0c9,0,17.92.09,26.87,0,.21,0,.5-.45.22-.45Z"/><path d="M58.89,167.87l0,16.95v4.62c0,.25.42,0,.42-.21,0-4.38,0-8.76,0-13.14,0-.25-.42,0-.42.2V181c0,.26.42,0,.42-.2,0-4.56,0-9.11,0-13.67,0-.25-.42,0-.42.2q0,15.6,0,31.22v30.92c0,5.76,0,11.52,0,17.28,0,.31.5,0,.5-.23q0-3.16,0-6.33c0-.33-.54,0-.54.27,0,1.92,0,3.84,0,5.77,0,.3.5,0,.5-.24,0-1.93,0-3.86,0-5.8,0-.33-.54,0-.54.27,0,2.1,0,4.19,0,6.29,0,.31.5,0,.5-.23-.06-10.28,0-20.56,0-30.83v-31q0-8.77,0-17.54c0-.25-.42,0-.42.2q0,6.84,0,13.67c0,.25.42,0,.42-.2v-4.73c0-.25-.42,0-.42.2,0,4.38,0,8.76,0,13.15,0,.25.42,0,.42-.21q0-8.32,0-16.66v-4.88c0-.23-.38,0-.38.18Z"/><path d="M191.71,133.75l0,14c0,.21.34,0,.34-.17,0-2.63,0-5.27,0-7.9,0-.22-.35,0-.35.17,0,2.63,0,5.26,0,7.9,0,.21.34,0,.34-.17l0-14c0-.16-.26,0-.26.13Z"/><path d="M192,137.84c0-1.21,0-2.42,0-3.64,0-.22-.38,0-.38.18,0,3.27,0,6.55,0,9.82v2.35c0,.27.44,0,.44-.21q0-6.69,0-13.38c0-.29-.48,0-.48.24v50.42c0,.3.5,0,.5-.23v-2.53c0-.3-.49,0-.49.24,0,1.85,0,3.7,0,5.56,0,.28.48,0,.47-.23,0-1.4-.09-2.8-.09-4.21,0-.17-.28,0-.28.14,0,1.43-.09,2.86-.1,4.3,0,.28.47,0,.47-.23,0-1.86,0-3.71,0-5.57,0-.3-.49,0-.49.24v2.52c0,.3.5,0,.5-.23V133c0-.29-.48,0-.48.24q0,6.68,0,13.35c0,.27.44,0,.44-.21l0-9.47V134.2c0-.22-.38,0-.38.18,0,1.22,0,2.44,0,3.66,0,.24.42,0,.41-.2Z"/><path d="M190.76,188l5.3,0c.24,0,.58-.53.26-.53H192c-.24,0-.58.53-.26.53H344.45c6.27,0,12.58.21,18.85-.05.21,0,.52-.49.23-.48l-.57,0c-.2,0-.47.45-.21.43l.57,0c.17,0,.42-.38.18-.38l-.54,0c-.2,0-.48.42-.21.43l.55,0c.21,0,.52-.47.23-.48-5.57-.25-11.18-.06-16.75-.05H192c-.24,0-.58.53-.26.53h4.35c.24,0,.58-.53.26-.53-1.78,0-3.56,0-5.33,0-.22,0-.53.47-.23.48Z"/><path d="M362.09,185.87c.1-6.87.09-13.75.1-20.63s0-13.58,0-20.37v-11.3c0-.31-.5,0-.5.24,0,6.71,0,13.41,0,20.12v31.53c0,.34.56,0,.56-.27v-2.71c0-.34-.56,0-.56.27V183c0,.34.56,0,.56-.27v-.28c0-.34-.56,0-.56.27v2.71c0,.34.56,0,.56-.27q0-10,0-20.11c0-6.74,0-13.48,0-20.23q0-5.64,0-11.28c0-.31-.5,0-.5.24V154q0,10.25,0,20.48c0,3.85,0,7.71.09,11.57,0,.16.26,0,.26-.13Z"/><path d="M190.91,133.11c5.79-3.63,11.53-7.36,17.27-11.07l17.26-11.13,17.27-11.16L260,88.62l17.34-11.2L279.44,76c.3-.19.23-.65-.15-.4L262,86.84,244.64,98q-8.64,5.58-17.27,11.17t-17.18,11.11c-5.75,3.72-11.51,7.43-17.23,11.18l-2.13,1.42c-.14.09-.11.32.08.2Z"/><path d="M209.78,140.8c4.61-2.91,9.19-5.87,13.77-8.82l13.7-8.84L251,114.3l13.78-8.9,13.74-8.88,1.72-1.1c.28-.19.22-.64-.15-.4l-13.8,8.92-13.72,8.87-13.71,8.86-13.75,8.9c-4.56,3-9.14,5.89-13.67,8.9l-1.7,1.12c-.14.1-.11.33.08.21Z"/><path d="M362.08,132.89c-5.69-3.86-11.48-7.56-17.25-11.29s-11.55-7.49-17.33-11.22L310.14,99.15,292.82,88,275.39,76.68l-2.16-1.39c-.24-.16-.7.33-.48.47L290.2,87l17.4,11.24,17.45,11.26q8.68,5.61,17.36,11.2c5.75,3.7,11.49,7.42,17.27,11.07l2.18,1.34c.1.07.32-.18.22-.25Z"/><path d="M342.85,140.72c-4.5-3-9.05-6-13.6-8.91L315.65,123,302,114.18l-13.7-8.86-13.66-8.83-1.7-1.1c-.24-.16-.69.33-.47.47l13.73,8.86,13.71,8.85,13.69,8.84q6.83,4.4,13.64,8.79c4.54,2.91,9.05,5.87,13.64,8.72l1.72,1.06c.1.06.32-.19.22-.26Z"/><path d="M191.69,187.17c-8-.19-15.93-.07-23.9-.07H70c-.24,0-.59.54-.26.54,3.86,0,7.72.06,11.57,0,.24,0,.58-.54.26-.53h-.8c-.22,0-.55.5-.24.5l.78,0c.24,0,.58-.53.26-.53-3.86-.07-7.72,0-11.57,0-.24,0-.59.54-.26.54h95.14c8.88,0,17.76.13,26.63-.07.17,0,.44-.39.19-.39Z"/><path d="M75.2,188.59q-.06,7.36,0,14.73c0,.29.47,0,.47-.22q0-6.89,0-13.76v-3.8c0-.31-.49,0-.49.23,0,7.62,0,15.24,0,22.86V231.4q0,6.38,0,12.76c0,.34.56,0,.56-.27v-1.75c0-.33-.55,0-.55.26s0,.71.06,1.07.41,0,.43-.2c0-.38.05-.75.06-1.13s-.55,0-.55.26c0,.59,0,1.17,0,1.76,0,.34.56,0,.56-.27,0-7.56,0-15.12,0-22.68s0-15.21,0-22.81q0-6.43,0-12.86c0-.31-.5,0-.49.23q0,6.82,0,13.64v3.91c0,.29.47,0,.47-.22q0-7.35-.06-14.68c0-.23-.36,0-.36.17Z"/><path d="M209.53,142.11q0,11.32-.05,22.66v6.29c0,.32.53,0,.53-.26V146.61c0-.32-.53,0-.53.26V158.7c0,.32.53,0,.53-.26V139.51c0-.33-.54,0-.54.26,0,1.3,0,2.59.12,3.89,0,.2.29,0,.3-.15.09-1.33.12-2.66.12-4,0-.33-.54,0-.54.26q0,7.38,0,14.76v4.17c0,.32.53,0,.53-.26V146.61c0-.32-.53,0-.53.26v24.19c0,.32.53,0,.53-.26q0-11.24,0-22.48l0-6.41c0-.26-.42,0-.42.2Z"/><path d="M210.68,172l5.24,0c.25,0,.6-.54.26-.54l-5.51,0c-.26,0-.62.57-.28.57h1.32c.25,0,.62-.57.27-.57h-3.42c-.25,0-.62.57-.27.57h52.76l52.81,0c9.87,0,19.75.17,29.61,0,.19,0,.46-.43.2-.42l-1.86,0c-.14,0-.37.33-.16.34l1.82,0c.19,0,.46-.41.2-.42-8.77-.2-17.55-.06-26.33,0H291l-52.8,0H208.56c-.25,0-.62.57-.27.57h3.42c.25,0,.62-.57.27-.57h-1.31c-.26,0-.62.57-.28.57h5.53c.25,0,.59-.55.26-.54-1.76,0-3.52,0-5.28,0-.2,0-.51.46-.22.46Z"/><path d="M342.7,172.42c.12-4.14.07-8.28.07-12.43l0-12.45v-7c0-.33-.54,0-.54.26q0,6.23,0,12.45c0,4.13,0,8.26,0,12.39,0,2.19,0,4.38,0,6.57,0,.34.57,0,.56-.27,0-.64-.05-1.27-.08-1.91,0-.25-.38,0-.39.18,0,.67-.08,1.33-.09,2,0,.34.56,0,.56-.27,0-4,0-8,0-11.94q0-6.2,0-12.39v-7.07c0-.33-.54,0-.54.26q0,6.19,0,12.39t0,12.44c0,2.31,0,4.63.07,6.94,0,.22.34,0,.35-.17Z"/><path d="M286.17,104.32c-4.37,4.26-8.67,8.59-13,12.9l-13,13-13,13-13,13-12.95,12.95-1.57,1.58c-.26.26,0,.52.25.26l1.83-1.85c.24-.24,0-.48-.24-.24-.61.62-1.2,1.25-1.81,1.86-.2.2,0,.4.19.2.61-.62,1.24-1.21,1.86-1.82.24-.24,0-.48-.24-.24l-1.84,1.83.25.26,12.95-12.94,13-13,13-13,13-13c4.32-4.32,8.65-8.62,12.93-13l1.56-1.6c.17-.17,0-.33-.17-.17Z"/><path d="M269.34,101.43q-5.89,5.85-11.78,11.71l-11.75,11.73L234,136.66,222.27,148.4c-3.92,3.92-7.84,7.83-11.72,11.78l-1.43,1.45c-.19.19,0,.38.19.19q5.92-5.82,11.78-11.71l11.74-11.74,11.79-11.8,11.74-11.74q5.86-5.89,11.72-11.78l1.44-1.45c.17-.18,0-.35-.18-.17Z"/><path d="M298.25,112.73q-5.75,5.68-11.47,11.4t-11.44,11.42L263.85,147l-11.43,11.44L241,169.93q-.71.69-1.38,1.41c-.23.24,0,.46.23.23,2-1.85,3.83-3.79,5.73-5.69l5.73-5.73,11.44-11.43,11.49-11.48,11.43-11.44q5.72-5.73,11.41-11.48l1.39-1.4c.19-.2,0-.39-.2-.19Z"/><path d="M309.28,119.55q-5.31,5.27-10.6,10.55T288.1,140.68l-10.53,10.53L267,161.79c-3.52,3.53-7,7.05-10.54,10.6l-1.32,1.34c-.19.19,0,.38.19.19q5.34-5.25,10.62-10.54l10.58-10.58,10.53-10.53q5.29-5.29,10.58-10.58l10.55-10.59,1.32-1.33c.23-.23,0-.45-.22-.22Z"/><path d="M320.84,126.9q-8.28,8.23-16.53,16.51L287.84,159.9c-3.1,3.11-6.21,6.22-9.29,9.37-.16.16,0,.32.16.16,5.57-5.44,11.06-11,16.57-16.48l16.48-16.46q4.67-4.68,9.32-9.35c.23-.24,0-.47-.24-.24Z"/><path d="M332.94,133q-8,8-16,16t-15.81,15.84q-4.47,4.5-8.92,9c-.13.14,0,.28.14.14,5.37-5.27,10.7-10.59,16-15.9s10.56-10.54,15.83-15.82q4.47-4.5,8.95-9c.24-.25,0-.48-.24-.24Z"/><path d="M341.89,144c-3.44,3.31-6.8,6.73-10.18,10.11l-10.14,10.16c-1.91,1.91-3.82,3.82-5.7,5.76-.19.2,0,.39.19.2,3.44-3.33,6.8-6.74,10.19-10.12S333,153.37,336.4,150c1.9-1.92,3.82-3.82,5.7-5.77.2-.21,0-.41-.21-.2Z"/><path d="M341.63,164.25c-2.68,2.58-5.33,5.2-7.86,7.91-.16.17,0,.32.16.17,2.71-2.54,5.33-5.19,7.91-7.87.21-.22,0-.42-.21-.21Z"/><path d="M224.8,190q-.06,10.14-.07,20.27t0,20.21c0,3.41,0,6.82.12,10.23,0,.21.32,0,.32-.15.13-3,.13-6.07.12-9.11v-9.83q0-10.27,0-20.56,0-5.62-.05-11.25c0-.24-.39,0-.39.19Z"/><path d="M330,187.78c-.1,7.75-.08,15.51-.08,23.27v6.57c0,.3.49,0,.49-.24V194.55c0-.29-.49,0-.49.24q0,9.54,0,19.1v29.73c0,.31.51,0,.51-.24s0-.42,0-.64-.49,0-.49.24,0,.43,0,.64.5,0,.51-.24V205.25c0-3.57,0-7.13,0-10.7,0-.29-.49,0-.49.24v22.83c0,.3.49,0,.49-.24,0-7.74,0-15.49,0-23.23l-.06-6.54c0-.21-.35,0-.35.17Z"/><path d="M193.53,187.52q-.09,10.57-.09,21.14t0,21.05c0,3.94,0,7.88,0,11.82,0,.33.54,0,.54-.26v-4.39c0-1.45,0-2.91-.05-4.36,0-.28-.42,0-.43.2-.08,1.47-.05,2.95-.05,4.42s0,2.93,0,4.39c0,.33.54,0,.54-.26q0-10.54,0-21.1l0-21c0-3.93,0-7.86-.07-11.79,0-.22-.35,0-.35.17Z"/><path d="M174.57,186.9q0,11,0,22t0,22c0,4,0,8.09,0,12.14,0,.31.51,0,.51-.25,0-.83,0-1.65-.08-2.47,0-.24-.35,0-.36.17-.05.85-.07,1.69-.07,2.55,0,.31.5,0,.51-.25,0-7.26,0-14.52,0-21.78s0-14.71,0-22.07l0-12.29c0-.25-.4,0-.4.19Z"/><path d="M162.75,188.46c-.14,3.45-.07,6.91-.08,10.35s0,6.88,0,10.31q0,10.24,0,20.48c0,3.85,0,7.71.14,11.55,0,.17.25,0,.26-.12.15-3.46.13-6.91.14-10.37s0-6.88,0-10.32q0-10.23,0-20.48c0-1.93,0-3.87,0-5.8s0-3.85-.08-5.77c0-.24-.36,0-.37.17Z"/><path d="M87.28,188.16c-.11,7-.08,14.06-.08,21.09s0,14,0,21v5.6a52.77,52.77,0,0,0,.08,5.34c0,.26.38,0,.39-.18.15-1.63.09-3.27.09-4.9v-4.93c0-3.46,0-6.91,0-10.37q0-10.62,0-21.24c0-3.86,0-7.73-.07-11.6,0-.25-.4,0-.4.2Z"/><path d="M251.62,188.42q-.06,10.5-.08,21t0,20.84c0,3.7-.06,7.41.06,11.11,0,.26.41,0,.42-.2.1-3.33.07-6.65.07-10V220.85q0-10.5,0-21,0-5.81-.05-11.61c0-.24-.39,0-.39.19Z"/><path d="M277.89,189.06q0,10.31-.05,20.6V236c0,1.91,0,3.83,0,5.74,0,.28.46,0,.45-.21,0-.41-.06-.82-.1-1.22,0-.17-.24,0-.25.12,0,.44-.08.87-.1,1.31,0,.28.44,0,.45-.21.07-1.73,0-3.45,0-5.18V220.9q0-10.26,0-20.5c0-3.85,0-7.69-.05-11.54,0-.25-.41,0-.42.2Z"/><path d="M304.21,190c-.09,3.43,0,6.86,0,10.29s0,6.87,0,10.31v20.51c0,3.84-.05,7.69,0,11.54,0,.27.44,0,.43-.21s0-.41,0-.62-.36,0-.37.18,0,.43,0,.65.43,0,.43-.21c.06-3.42,0-6.85,0-10.27V201.35c0-3.84.05-7.69-.05-11.53,0-.24-.38,0-.38.18Z"/><path d="M243.89,200.15q-4.08,4-8,8.12c-.13.13,0,.26.13.13q4.13-4,8.11-8.06c.19-.19,0-.38-.19-.19Z"/><path d="M257.29,196.19l-8.78,8.75q-4.44,4.44-8.87,8.89c-1.67,1.68-3.34,3.38-5,5.07-.16.17,0,.32.16.16q4.5-4.41,8.95-8.86t8.83-8.84l4.93-5c.22-.22,0-.44-.22-.22Z"/><path d="M266.17,212.76c-1.72,1.71-3.44,3.4-5.09,5.17-.14.14,0,.27.13.13,1.77-1.65,3.46-3.37,5.17-5.09.22-.21,0-.43-.21-.21Z"/><path d="M267.15,220.06q-6,6-12.08,12.07c-1.16,1.17-2.31,2.36-3.46,3.54-.14.15,0,.28.14.14,4.11-4,8.16-8.07,12.22-12.13l3.39-3.41c.22-.21,0-.43-.21-.21Z"/><path d="M295.34,211.57c3.5-3.47,7-6.9,10.44-10.46.14-.15,0-.28-.14-.14-3.56,3.4-7,6.94-10.46,10.43-.17.17,0,.34.16.17Z"/><path d="M295.35,217.89c2.37-2.36,4.79-4.68,7.07-7.14.1-.11,0-.22-.12-.11-2.45,2.28-4.77,4.7-7.13,7.07-.19.18,0,.36.18.18Z"/><path d="M304.83,234.47,319.35,220c1.34-1.35,2.68-2.7,4-4.08.14-.15,0-.29-.15-.15-2.48,2.35-4.86,4.78-7.27,7.2l-7.27,7.27-4,4c-.21.21,0,.42.21.21Z"/><path d="M110.09,188.12q0,10.62,0,21.26t0,21.23l0,6v3a22.47,22.47,0,0,0,.08,2.72c0,.19.27,0,.28-.14a49.51,49.51,0,0,0,.08-5.17c0-1.75,0-3.5,0-5.25,0-3.54,0-7.08,0-10.63V199.9q0-6,0-12c0-.25-.4,0-.4.19Z"/><path d="M136.53,188.11q-.06,10.41-.07,20.83t0,20.73v5.66c0,1.87,0,3.74.09,5.61,0,.19.28,0,.29-.14.11-1.67.08-3.34.08-5v-5.07l0-10.34q0-10.42,0-20.85c0-3.87,0-7.73,0-11.6,0-.22-.37,0-.37.18Z"/><path d="M115.51,191.08,102,204.55c-1.16,1.16-2.31,2.31-3.42,3.52-.13.14,0,.27.14.13,2.23-2,4.31-4.22,6.44-6.35l6.89-6.9,3.66-3.67c.2-.21,0-.41-.2-.2Z"/><path d="M119.06,196.4c-1.19,1.18-2.37,2.36-3.52,3.58-.15.15,0,.29.15.14,1.21-1.15,2.39-2.33,3.58-3.51.06-.07.15-.21.07-.29s-.23,0-.28.08Z"/><path d="M122.61,207.44l-10.17,10.13q-5.07,5.07-10.14,10.15c-1.91,1.92-3.81,3.84-5.69,5.78-.15.15,0,.29.14.15,3.43-3.34,6.81-6.72,10.2-10.1l10.14-10.16,5.73-5.74c.21-.21,0-.43-.21-.21Z"/><path d="M127.34,216.31c-2.57,2.56-5.17,5.09-7.66,7.72-.15.16,0,.31.15.15,2.63-2.49,5.16-5.09,7.72-7.66.21-.21,0-.42-.21-.21Z"/><path d="M157.31,200.93q-7.08,7-14.13,14.08t-13.93,14q-3.91,3.93-7.79,7.88c-.15.15,0,.29.14.15q7.05-6.92,14-13.91t14-14q4-4,7.92-8c.22-.21,0-.42-.21-.21Z"/><path d="M154.55,191.86q-2.64,2.59-5.25,5.2c-1.75,1.73-3.51,3.46-5.18,5.27-.17.18,0,.34.17.17,1.81-1.67,3.54-3.43,5.28-5.17s3.47-3.5,5.19-5.26c.21-.22,0-.42-.21-.21Z"/><path d="M191,192.85c-2.11,2.1-4.25,4.17-6.29,6.33-.16.17,0,.32.16.16,2.16-2,4.23-4.18,6.33-6.29.2-.2,0-.4-.2-.2Z"/><path d="M189.26,200.34l-2.9,2.89-1.42,1.41a15,15,0,0,0-1.39,1.49c-.09.12,0,.22.13.13a14.32,14.32,0,0,0,1.45-1.36l1.45-1.45,2.89-2.9c.21-.21,0-.43-.21-.21Z"/><path d="M190.25,206.46q-5.48,5.41-10.91,10.88c-1,1-2,2.09-3.06,3.15-.14.14,0,.28.14.14,3.69-3.57,7.32-7.21,10.94-10.85l3.09-3.12c.21-.21,0-.41-.2-.2Z"/><path d="M183.73,229.52c-2,2-4,3.91-5.88,5.95-.16.16,0,.31.16.15,2-1.89,4-3.91,5.94-5.88.23-.22,0-.44-.22-.22Z"/><path d="M192.2,132.68c0-.33,0-.67,0-1s-.44-.4-.7-.28a1.18,1.18,0,0,0-.69.95c0,3,0,6.05,0,9.07,0,.39.43.4.7.27a1.14,1.14,0,0,0,.68-.93l0-5.32c0-.37-.41-.38-.67-.26a1.11,1.11,0,0,0-.66.9v.79c0,.37.41.38.67.26a1.12,1.12,0,0,0,.65-.9c0-1.7,0-3.4,0-5.11,0-.36-.39-.37-.63-.25a1.08,1.08,0,0,0-.63.86c0,7.51,0,15,0,22.55s0,15-.1,22.52c0,4-.12,8.11,0,12.16,0,.4.44.41.72.28a1.21,1.21,0,0,0,.71-1,11.47,11.47,0,0,0-.16-2.62c-.08-.32-.55-.14-.71,0a.84.84,0,0,0-.41.82l.13.5c.05.19.31.14.44.08a.77.77,0,0,0,.43-.5l.13-.62a.34.34,0,0,0-.43-.43,1,1,0,0,0-.7.71,15,15,0,0,0-.15,2.77c0,.4.45.41.72.28a1.21,1.21,0,0,0,.71-1c.09-3.59,0-7.19,0-10.79l-.08-11.25c0-7.49,0-15,0-22.46,0-4.22,0-8.43,0-12.65,0-.36-.39-.36-.63-.25a1.06,1.06,0,0,0-.63.86l0,5.14c0,.37.41.38.67.26a1.1,1.1,0,0,0,.65-.9v-.79c0-.37-.42-.38-.67-.26a1.11,1.11,0,0,0-.66.9l0,5.34c0,.39.43.4.7.27a1.16,1.16,0,0,0,.68-.93c0-3,.05-6,0-9.08,0-.39-.43-.41-.7-.28a1.16,1.16,0,0,0-.69.95c0,.33,0,.65,0,1s.41.4.68.27a1.12,1.12,0,0,0,.66-.91Z"/><path d="M194.22,187.16l-.59,0c-.61,0-1.48,1.34-.65,1.36l1.17,0c.64,0,1.54-1.4.68-1.41l-3.14,0c-.67,0-1.63,1.47-.71,1.49,5.67.09,11.34,0,17,0H325.78c12.43,0,24.87-.14,37.3.11.77,0,1.86-1.68.82-1.7l-1.76,0c-.81,0-1.9,1.76-.84,1.75l1.78,0c.77,0,1.85-1.72.82-1.7-11.21.23-22.43.12-33.64.12H296.69q-33.62,0-67.22,0H210.59c-6.3,0-12.6-.11-18.9,0-.66,0-1.62,1.5-.71,1.49l3.17,0c.64,0,1.53-1.43.68-1.41l-1.2,0c-.61,0-1.47,1.38-.65,1.36h.6c.58,0,1.48-1.32.64-1.33Z"/><path d="M361.19,134.91a6.52,6.52,0,0,0-.17,1.39c0,.39.44.4.7.27a1.18,1.18,0,0,0,.7-.95c0-.79,0-1.58,0-2.37,0-.41-.44-.42-.72-.29a1.23,1.23,0,0,0-.71,1v.59c0,.4.45.41.72.28a1.2,1.2,0,0,0,.71-1v-1c0-.4-.44-.41-.72-.28a1.2,1.2,0,0,0-.71,1v.24c0,.41.45.42.72.28a1.2,1.2,0,0,0,.71-1v-1.18c0-.41-.44-.42-.72-.28a1.2,1.2,0,0,0-.71,1c0,7.29.1,14.59.1,21.88s.06,14.64,0,22c0,4-.15,8.09,0,12.13,0,.37.4.39.66.26a1.08,1.08,0,0,0,.65-.89,9.71,9.71,0,0,0-.18-1.41c-.09-.59-1,0-.95.46,0,0,0,.22,0,.11,0,.26.28.26.46.18a.76.76,0,0,0,.46-.62c0,.06,0,0,0,0,.09-.68-.86-.21-.93.23s-.17,1.13-.19,1.7c0,.38.41.38.66.26a1.1,1.1,0,0,0,.65-.89c.1-3.59,0-7.19,0-10.78s0-7.23,0-10.85c0-7.35,0-14.71.07-22.06,0-4.12,0-8.23,0-12.34,0-.41-.44-.42-.72-.28a1.2,1.2,0,0,0-.71,1v1.18c0,.41.45.42.72.28a1.2,1.2,0,0,0,.71-1v-.24c0-.4-.44-.41-.72-.28a1.2,1.2,0,0,0-.71,1v1c0,.4.45.41.72.28a1.2,1.2,0,0,0,.71-1v-.59c0-.41-.44-.42-.72-.29a1.21,1.21,0,0,0-.71,1c0,.78,0,1.57,0,2.36,0,.39.43.41.7.27a1.19,1.19,0,0,0,.7-.95c0-.18,0-.37,0-.55a3.87,3.87,0,0,0-.17-.67c-.06-.23-.38-.17-.53-.1a1,1,0,0,0-.52.61Z"/><path d="M193.89,130.79c-1,.59-1.89,1.46-3,2l.36.95a4.21,4.21,0,0,1,.84-.74,1.23,1.23,0,0,0,.66-.77c.06-.24,0-.52-.33-.52a3.73,3.73,0,0,0-2.66,1.12c-.23.22-.62,1.08,0,1,1.58,0,2.77-1.22,3.88-2.21a8.41,8.41,0,0,1,1.91-1,19.63,19.63,0,0,0,2.29-1.27c1.45-1,2.82-2,4.29-2.9a46.29,46.29,0,0,1,4.45-2.38,74.6,74.6,0,0,0,9.31-5.43c1.46-1,2.89-2,4.31-3.07s2.75-2.14,4.16-3.16,2.94-2,4.42-2.93,2.79-2,4.26-3,3-1.57,4.45-2.37,3-1.81,4.43-2.74a93.21,93.21,0,0,0,8.48-5.72,39.33,39.33,0,0,0,3.84-3.46,26.12,26.12,0,0,1,3.77-3.1c2.69-1.88,5.54-3.53,8.21-5.45,1.54-1.1,3.12-2.14,4.71-3.16.7-.44,1.39-.91,2.13-1.29s1.47-.7,2.19-1.08a11.22,11.22,0,0,0,2-1.26l-.55-.88c-1.63,1.59-3.48,3.49-5.74,4.07a1.53,1.53,0,0,0-1,1,.49.49,0,0,0,.63.63c2.8-.76,4.92-3,6.88-5,.21-.22.51-.69.24-1s-.75.06-1,.24a22.46,22.46,0,0,1-4,2.2c-1.59.87-3.1,1.92-4.61,2.93s-2.83,2-4.28,3-2.71,1.73-4.07,2.61a48.36,48.36,0,0,0-4,2.82c-1.33,1.08-2.48,2.33-3.74,3.48a57.6,57.6,0,0,1-8,5.86c-1.44.92-2.93,1.77-4.33,2.75a37.92,37.92,0,0,1-4.41,2.46,30.91,30.91,0,0,0-4.25,2.62c-1.41,1.06-2.92,2-4.4,3-2.92,1.89-5.6,4.11-8.43,6.15a83.5,83.5,0,0,1-8.85,5.66c-1.55.85-3.16,1.56-4.73,2.38a47.46,47.46,0,0,0-4.27,2.58,43.48,43.48,0,0,1-4.25,2.76c-.75.38-1.52.73-2.25,1.13a13.51,13.51,0,0,0-1.67,1.35,2.84,2.84,0,0,1-1.66.79l0,1.06a1.72,1.72,0,0,1,1.28-.46l.33-1.29a6.77,6.77,0,0,0-1.53,1.24c-.18.18-.42.54-.31.82s.45.24.67.12a32.58,32.58,0,0,0,3.08-2.4c.19-.13.42-.41.36-.65s-.31-.26-.5-.15Z"/><path d="M279.17,79.48c-.72-.6-1.36-1.27-2.09-1.85-.51-.4-1.59.7-1.11,1.1a1.21,1.21,0,0,0,.83.3c.41,0,1.35-.81.88-1.22a36.77,36.77,0,0,0-4.25-3.42l-.77,1.29a5.63,5.63,0,0,1,3.28,1.23,27.47,27.47,0,0,1,3.39,2.9c.95.91,1.87,1.86,2.89,2.69a38.2,38.2,0,0,0,4.36,2.88,34.51,34.51,0,0,1,4.62,3.24,45.64,45.64,0,0,0,4.49,3.32,79.2,79.2,0,0,0,9.92,5.39c1.71.79,3.42,1.56,5.06,2.51A53.42,53.42,0,0,1,315.4,103c2.91,2.09,5.44,4.84,8.77,6.29a23.29,23.29,0,0,1,4.6,2.24c.77.55,1.47,1.23,2.19,1.84s1.53,1.31,2.32,1.93a24,24,0,0,0,4.88,3.07c.84.39,1.68.77,2.51,1.19s1.53.91,2.3,1.38a50.16,50.16,0,0,1,4.65,3c1.34,1,2.5,2.31,3.77,3.44a15.49,15.49,0,0,0,3.88,2.57,9.69,9.69,0,0,1,2.34,1.49,12.13,12.13,0,0,0,2.12,1.43c.63.33,1.16.59,1.37,1.33a.37.37,0,0,0,.23.23c.11,0,.25.17.39.2l-.26-.41a.58.58,0,0,0,.64.64l.81-1.7a3.78,3.78,0,0,1-1.42-.14c-.7-.28-1.95,1.19-1.13,1.58a4.1,4.1,0,0,0,1.74.26,1.43,1.43,0,0,0,1.15-.84c.16-.34.15-.85-.34-.86l.25.24c0-.14-.1-.37-.27-.41s-.24-.16-.39-.19l.23.23a2.61,2.61,0,0,0-1.62-1.41,12.77,12.77,0,0,1-2.25-1,22.56,22.56,0,0,0-2.44-1.47,15.73,15.73,0,0,1-2.23-1.16,29.73,29.73,0,0,1-3.64-3.09c-.65-.6-1.29-1.21-2-1.75s-1.52-1.09-2.31-1.6L344,120c-.74-.47-1.45-1-2.23-1.41-1.65-.9-3.41-1.59-5-2.56a31.88,31.88,0,0,1-4.73-3.78c-.71-.63-1.38-1.33-2.14-1.89a12.17,12.17,0,0,0-2.24-1.29,32.36,32.36,0,0,1-4.68-2.23c-1.54-1-2.9-2.28-4.33-3.45a53.25,53.25,0,0,0-4.55-3.35,42.48,42.48,0,0,0-4.94-2.85c-1.68-.82-3.4-1.56-5.07-2.39S300.55,93,298.88,92a51.44,51.44,0,0,1-4.72-3.13c-1.5-1.13-2.87-2.41-4.45-3.45s-3.2-1.92-4.76-2.95a24.1,24.1,0,0,1-3.24-2.64c-1.08-1.05-2.15-2.11-3.31-3.08A11.62,11.62,0,0,0,275,74.64a4.44,4.44,0,0,0-1.69-.27c-.49,0-1.4.89-.77,1.29a35.19,35.19,0,0,1,4,3.28l.88-1.22a.45.45,0,0,1-.35-.09L276,78.73c.76.56,1.48,1.16,2.25,1.7.45.31,1.38-.6.95-1Z"/><path d="M209.81,141.55a10.52,10.52,0,0,0,.15-2.17c0-.38-.42-.4-.69-.27a1.15,1.15,0,0,0-.67.92l0,1.37c0,.37.4.38.66.26a1.1,1.1,0,0,0,.65-.89c0-.59,0-1.19,0-1.78,0-.38-.42-.39-.68-.26a1.13,1.13,0,0,0-.66.9V140c0,.38.42.39.68.26a1.11,1.11,0,0,0,.66-.91l0-1.72c0-.39-.43-.4-.7-.27a1.18,1.18,0,0,0-.68.93c0,4.64,0,9.27,0,13.91s0,9.27-.05,13.91c0,1.31,0,2.62,0,3.93,0,.59,0,1.19,0,1.79a9.14,9.14,0,0,0,.17,1.65c.09.33.57.14.74,0a.86.86,0,0,0,.42-.85l-.13-.5c0-.2-.33-.15-.45-.09a.82.82,0,0,0-.45.53l-.13.62a.34.34,0,0,0,.44.44,1.07,1.07,0,0,0,.73-.73,17.09,17.09,0,0,0,.19-3.2c0-1.16,0-2.33,0-3.49,0-2.3,0-4.6,0-6.89,0-4.63,0-9.25,0-13.88,0-2.61,0-5.22,0-7.83,0-.39-.43-.4-.7-.27a1.18,1.18,0,0,0-.68.93l0,1.71c0,.38.41.39.68.26a1.1,1.1,0,0,0,.66-.91V139c0-.38-.41-.39-.68-.26a1.13,1.13,0,0,0-.66.9c0,.59,0,1.18,0,1.77,0,.37.41.38.66.26a1.12,1.12,0,0,0,.65-.89l0-1.39c0-.39-.43-.39-.69-.27a1.15,1.15,0,0,0-.67.92,8.65,8.65,0,0,0,.16,2c0,.23.39.16.53.1a1,1,0,0,0,.52-.61Z"/><path d="M211,171.27h-2A1.32,1.32,0,0,0,208,172c-.14.31-.14.79.31.79h1.38c.71,0,1.71-1.57.76-1.57h-3c-.7,0-1.7,1.56-.75,1.55q26.91-.06,53.82-.08l53.41,0c5,0,10,0,14.95.05l7.33,0a58.4,58.4,0,0,0,7.6-.29c.36-.05.94-.87.35-1a43.68,43.68,0,0,0-6.67-.27l-6.55,0-13.37.06c-8.89,0-17.79,0-26.68,0-17.81,0-35.62,0-53.43,0l-30-.07c-.7,0-1.7,1.55-.75,1.55h2.95c.71,0,1.72-1.56.76-1.57h-1.38A1.32,1.32,0,0,0,208,172c-.14.31-.14.79.31.79h2c.69,0,1.7-1.55.75-1.56Z"/><path d="M341.61,139.4c0,2-.09,4-.1,6,0,.39.43.39.69.27a1.16,1.16,0,0,0,.68-.93c0-1.32,0-2.64,0-3.95,0-.41-.44-.42-.71-.29a1.21,1.21,0,0,0-.71,1v3c0,.4.44.41.71.28a1.2,1.2,0,0,0,.7-1v-2c0-.4-.44-.41-.71-.28a1.2,1.2,0,0,0-.7,1c0,4.23,0,8.45.08,12.67s0,8.4-.05,12.59c0,2.37-.07,4.74-.08,7.11,0,.43.47.44.76.3a1.3,1.3,0,0,0,.75-1,25.14,25.14,0,0,0-.15-2.88c0-.33-.35-.37-.61-.24a1,1,0,0,0-.6.82,25.51,25.51,0,0,0-.15,3c0,.43.47.44.76.3a1.3,1.3,0,0,0,.75-1c0-4.17-.1-8.34-.12-12.51,0-2.08-.05-4.17,0-6.25s.08-4.26.08-6.39v-7.17c0-.4-.44-.41-.71-.28a1.2,1.2,0,0,0-.7,1v2c0,.4.44.41.71.28a1.2,1.2,0,0,0,.7-1v-2.95c0-.41-.44-.42-.71-.29a1.21,1.21,0,0,0-.71,1c0,1.31,0,2.62,0,3.93,0,.39.42.4.69.27a1.18,1.18,0,0,0,.68-.93c0-1.95-.07-3.91-.1-5.87,0-.33-.36-.34-.59-.23a1,1,0,0,0-.58.8Z"/><path d="M209,139.73s0,0,0,0l.18.28h0l-.42.69c-.18.15,0,0-.09.05l.26-.09c.19-.06.39-.13.58-.21a1.12,1.12,0,0,0,.58-.68c.05-.22,0-.47-.3-.46a3.13,3.13,0,0,0-1.29.43,1.22,1.22,0,0,0-.62.73c-.05.24,0,.48.32.49a6.17,6.17,0,0,0,2.9-.78,21.33,21.33,0,0,0,2.95-1.83c.93-.66,1.82-1.35,2.75-2s1.72-1,2.7-1.6c2.12-1.27,3.94-3,6.17-4.09a14.05,14.05,0,0,1,1.63-.63,20.86,20.86,0,0,0,2-.85A38.76,38.76,0,0,0,233,127a34.75,34.75,0,0,1,3.39-2.1,34.28,34.28,0,0,0,3.7-1.82c.55-.36,1.12-.67,1.64-1.08s1-.88,1.56-1.32c1-.89,2.17-1.64,3.26-2.45,4.81-3.53,9.49-7.3,14.61-10.38,1.24-.75,2.54-1.41,3.84-2s2.57-1.33,3.88-2c2.35-1.13,4.15-3,6.08-4.67a13.58,13.58,0,0,1,1.59-1.17l-.86-.55s-.05.11-.08.16,0,0,0,0-.07.09,0,0l-.12.12c-.05,0-.09.08,0,0l-.15.11-.34.24a11.83,11.83,0,0,0-1.41,1c-.22.21-.75,1.11-.15,1.27a1.56,1.56,0,0,0,1.61-.39,2.21,2.21,0,0,0,.42-.58.94.94,0,0,0,.06-.15c.05-.09,0-.07,0,0l.16-.27-.29.4.06-.06c.22-.24.58-.77.27-1.09s-.87,0-1.09.28a3.91,3.91,0,0,0-.45.54c-.21.35.3.22.57-.35.12,0,.12,0,0,0h-.11l-.15,1.27c0-.06.11-.11.17-.17s-.26.21.07-.07l.12-.1.16-.12c.24-.18.49-.35.72-.54A4,4,0,0,0,277,97.51c.09-.22.17-.54-.08-.69a.75.75,0,0,0-.78.14,13.47,13.47,0,0,0-1.79,1.4l-1.44,1.39a19.38,19.38,0,0,1-2.66,2.21,16.94,16.94,0,0,1-1.61.9c-.63.31-1.24.65-1.87,1-1.31.66-2.63,1.29-3.92,2a70.78,70.78,0,0,0-7.45,4.77c-2.41,1.71-4.76,3.49-7.13,5.25l-3.62,2.66c-1.07.77-2,1.63-3,2.45a10.82,10.82,0,0,1-1.55,1c-.28.15-.53.35-.81.51s-.62.32-.94.46c-.61.28-1.23.52-1.84.81a15.6,15.6,0,0,0-1.77,1,36.15,36.15,0,0,1-7.08,4c-.61.22-1.23.41-1.82.68a15.7,15.7,0,0,0-1.7,1c-1,.64-2,1.38-3,2.08a27.66,27.66,0,0,1-3,1.88,22.69,22.69,0,0,0-2.61,1.73c-.92.67-1.83,1.36-2.77,2a10.86,10.86,0,0,1-2.66,1.38,5.41,5.41,0,0,1-1.24.23l-.3,1.22a1.9,1.9,0,0,1,.69-.36l.28-1.14c-.54.28-1.42.42-1.46,1.19a.3.3,0,0,0,.18.28.56.56,0,0,0,.23,0,1,1,0,0,0,.77-.57c.11-.23.1-.55-.23-.57Z"/><path d="M276,97.83l.22.29L277.33,97c-.06-.08-.14-.09-.23-.15a.8.8,0,0,1-.17-.15c-.5-.48-1.7.72-1.21,1.21a2.86,2.86,0,0,1,.52.68c.38.72,1.53-.38,1.36-1a3.35,3.35,0,0,0-1.6-1.93L275.08,97a29.25,29.25,0,0,1,3.25,2.18c1.06.79,2.1,1.59,3.12,2.41,2.05,1.65,4.05,3.36,6.11,5,1,.81,2.06,1.61,3.13,2.36A23.13,23.13,0,0,0,294,111c2.35,1.11,4.92,1.73,7.15,3.1a70.67,70.67,0,0,1,6.31,4.74c2.13,1.63,4.19,3.36,6.32,5a51.31,51.31,0,0,0,6.6,4.42c1.21.67,2.47,1.28,3.73,1.87a27.57,27.57,0,0,0,3.9,1.51,8.92,8.92,0,0,1,3.38,1.54,30.29,30.29,0,0,1,2.86,2.33c.44.39.88.78,1.33,1.16s.95.86,1.47,1.25c1,.76,2.08,1.35,3.1,2.06a9.76,9.76,0,0,1,1.4,1.17l1.16-1.37a7.51,7.51,0,0,1-1.57-1c-.66-.5-2,.8-1.45,1.44a12.19,12.19,0,0,0,2.69,2.28l1.2-1.67c-.4-.2-.82-.35-1.24-.51s-.81.19-1,.45-.51.77-.19,1a11.61,11.61,0,0,0,1.26.75c.72.36,2-1.17,1.2-1.67a17.09,17.09,0,0,1-2.44-2.05l-1.3,1.53a8.26,8.26,0,0,0,1.84.9,1,1,0,0,0,1-.43c.16-.2.47-.71.18-.94a37.1,37.1,0,0,0-3.19-2.08c-.51-.33-1-.66-1.51-1s-.94-.82-1.42-1.22c-1.86-1.57-3.6-3.35-5.79-4.46a10.18,10.18,0,0,0-1.82-.66,17.7,17.7,0,0,1-2-.67c-1.28-.49-2.53-1.09-3.77-1.7a47.42,47.42,0,0,1-6.89-4.19c-2.17-1.58-4.23-3.29-6.33-5-1-.83-2.1-1.64-3.14-2.47s-2-1.63-3.1-2.39a20.76,20.76,0,0,0-3.47-2.09c-1.18-.54-2.41-1-3.62-1.44a28.26,28.26,0,0,1-6.55-4c-4.18-3.18-8-6.83-12.46-9.67-.54-.35-1.1-.68-1.65-1a.74.74,0,0,0-.91.23c-.17.16-.53.7-.23.92a3.21,3.21,0,0,1,1.27,1.69l1.36-1a3.69,3.69,0,0,0-.67-.91l-1.21,1.21a1,1,0,0,0,.69.25l-.25-.09.06.05c.28.22.68,0,.89-.23s.5-.67.22-.89l-.28-.22c-.48-.38-1.43.57-1.05,1Z"/><path d="M58.64,172.92c-.07,1.34-.13,2.68-.17,4,0,.42.47.42.75.29a1.25,1.25,0,0,0,.73-1c0-.66,0-1.33,0-2,0-.43-.48-.44-.78-.3a1.3,1.3,0,0,0-.75,1c0,.67,0,1.35,0,2,0,.43.47.44.77.3a1.26,1.26,0,0,0,.75-1l0-7.53c0-.42-.46-.43-.75-.3a1.22,1.22,0,0,0-.72,1c0,4.79,0,9.57,0,14.35v29.39q0,7.23,0,14.45v12.23a15.14,15.14,0,0,0,0,1.65c.06.55.14,1.07.16,1.62,0,.35.37.36.62.25a1,1,0,0,0,.6-.83c0-.6.1-1.17.16-1.76a15.69,15.69,0,0,0,0-1.68V228.69q0-7.2,0-14.39V168.74c0-.42-.46-.43-.75-.3a1.24,1.24,0,0,0-.72,1l0,7.56c0,.43.47.44.77.3a1.26,1.26,0,0,0,.75-1c0-.68,0-1.35,0-2,0-.43-.48-.44-.78-.3a1.28,1.28,0,0,0-.75,1c0,.65,0,1.31,0,2,0,.41.45.43.75.29a1.23,1.23,0,0,0,.73-1c0-1.29-.1-2.58-.16-3.87,0-.32-.35-.34-.58-.23a1,1,0,0,0-.57.79Z"/><path d="M61.53,171.13c-.52,0-1,0-1.56,0s-1.67,1.5-.73,1.52l4.3.09c.76,0,1.86-1.67.81-1.7-3.41-.1-6.84,0-10.26,0a1.41,1.41,0,0,0-1.14.83c-.15.33-.15.85.34.85,17.86,0,35.72-.05,53.58,0s35.59.06,53.39.08H175.2c2.44,0,4.87,0,7.31,0s5.1.1,7.63-.08a1.43,1.43,0,0,0,1.14-.83c.14-.3.16-.88-.33-.85-1.51.11-3,.16-4.5.34-.38,0-1.17.91-.48,1,1.39.19,2.77.23,4.17.34.76.05,1.85-1.6.81-1.68-4.39-.33-8.86-.06-13.27,0H164.36c-8.9,0-17.8.07-26.71.07q-26.75,0-53.5,0-15,0-30.06,0a1.42,1.42,0,0,0-1.14.83c-.15.33-.15.85.34.85,3.41,0,6.84.1,10.25,0a1.46,1.46,0,0,0,1.15-.84c.15-.32.16-.87-.34-.86l-4.38.09a1.3,1.3,0,0,0-1,.75c-.14.3-.14.77.3.77s1.07,0,1.6,0,1.6-1.42.69-1.44Z"/><path d="M76.36,186.73c-.09.88-.18,1.75-.23,2.62s0,1.48,0,2.21c0,.46.5.47.81.32a1.36,1.36,0,0,0,.79-1.09v-2.37c0-.46-.5-.47-.82-.32a1.37,1.37,0,0,0-.8,1.1v2c0,.46.5.47.82.33a1.37,1.37,0,0,0,.8-1.11V188c0-.46-.51-.47-.83-.32a1.38,1.38,0,0,0-.81,1.11q0,10.22,0,20.42c0,6.85,0,13.7,0,20.55,0,1.89,0,3.79.07,5.68s0,3.78.22,5.66c0,.63,1.07,0,1-.5l-.1-1.13c0-.23-.24-.24-.41-.16a.69.69,0,0,0-.41.55l-.1,1.24c0,.29.33.29.52.2a.87.87,0,0,0,.5-.7c.15-1.74.18-3.49.21-5.24s0-3.38.06-5.07c0-3.42,0-6.83,0-10.25V199.49c0-3.82,0-7.65,0-11.47,0-.46-.51-.48-.83-.32a1.37,1.37,0,0,0-.81,1.11v2.36c0,.46.5.48.82.33a1.35,1.35,0,0,0,.8-1.11v-2c0-.46-.5-.47-.82-.32a1.39,1.39,0,0,0-.8,1.1v2.36c0,.46.5.47.81.32a1.36,1.36,0,0,0,.79-1.09c0-.74.07-1.48,0-2.23s-.14-1.6-.23-2.41c0-.33-.35-.36-.61-.24a1,1,0,0,0-.59.82Z"/><path d="M76.75,187.27l.73.12c.5.08,1.22-1,.54-1.11l-.88-.12-.43,0c-.19,0,.21,0-.17,0a1.25,1.25,0,0,0-1,.75c-.14.3-.14.76.3.77l2,0a1.31,1.31,0,0,0,1.06-.77c.14-.32.14-.79-.31-.8H77a1.34,1.34,0,0,0-1.09.79c-.14.31-.14.8.32.81,14.88.11,29.76.1,44.64.1l44.57-.05c4.16,0,8.32,0,12.48,0l6.1,0c2,0,4.1.12,6.14,0a1.55,1.55,0,0,0,1.24-.9c.16-.34.17-.95-.36-.93-1.31.07-2.58.24-3.87.43-.27.05-1,.88-.47,1a28.94,28.94,0,0,0,3.46.43c.83.05,2-1.78.88-1.83-1.83-.07-3.68,0-5.5,0l-5.57,0c-3.74,0-7.48,0-11.22,0-7.41,0-14.83,0-22.24,0l-44.54,0q-12.48,0-25,.1a1.34,1.34,0,0,0-1.09.79c-.14.31-.14.81.32.81l1.59,0a1.31,1.31,0,0,0,1.06-.77c.14-.31.15-.8-.31-.8l-2,0a1.25,1.25,0,0,0-1,.75c-.14.3-.14.77.3.77l.19,0c.62,0-.21,0,0,0a1.85,1.85,0,0,0,.52-.06c.37,0,.75-.08,1.12-.14s1.06-1.19.27-1.07l-.82.12c-.31.05-.83.76-.31.85Z"/><path d="M345.46,187.07l-.22,4.44c-.07,1.45-.05,2.91-.05,4.37,0,.42.47.43.76.3a1.28,1.28,0,0,0,.74-1l0-6.71c0-.44-.49-.45-.79-.31a1.31,1.31,0,0,0-.77,1.05q0,11.19,0,22.36t.08,22.29l0,6.24c0,1.82,0,3.65-.06,5.47,0,.4.44.41.71.28a1.18,1.18,0,0,0,.69-.95c0-.22,0-.44-.05-.65a3.24,3.24,0,0,0-.26-.87c-.16-.42-.72.17-.78.38a6.25,6.25,0,0,0-.31,1.81c0,.4.43.41.71.28a1.16,1.16,0,0,0,.69-.95c0-1.6-.07-3.2-.06-4.81l0-5.52c0-3.75,0-7.49,0-11.23l.07-22.37c0-4.16,0-8.33,0-12.5,0-.44-.48-.46-.79-.31a1.31,1.31,0,0,0-.77,1.05l0,6.7c0,.42.46.43.76.3a1.26,1.26,0,0,0,.74-1c0-1.44,0-2.88-.05-4.31l-.22-4.23c0-.27-.29-.29-.48-.2a.82.82,0,0,0-.48.66Z"/><path d="M163.28,187.84c-.13,1.24-.22,2.48-.26,3.73s0,2.6,0,3.91c0,.42.46.43.75.29a1.25,1.25,0,0,0,.73-1c0-2.1,0-4.2,0-6.3,0-.42-.45-.43-.74-.29a1.23,1.23,0,0,0-.73,1c0,7.1,0,14.2,0,21.29s0,14.29.06,21.43c0,3.89,0,7.78.05,11.67,0,.36.4.37.66.25a1.06,1.06,0,0,0,.63-.87c0-1.55-.11-3.09-.21-4.63,0-.24-.26-.25-.44-.17a.71.71,0,0,0-.42.58c-.1,1.61-.2,3.22-.22,4.84,0,.36.41.37.66.25a1.08,1.08,0,0,0,.63-.87c.07-7,.07-14,.09-21q0-10.78,0-21.55l0-11.88c0-.42-.45-.43-.74-.29a1.25,1.25,0,0,0-.73,1c0,2.11,0,4.21,0,6.32,0,.42.46.43.75.29a1.25,1.25,0,0,0,.73-1c0-1.29,0-2.58,0-3.88,0-.58,0-1.17-.08-1.75s-.12-1.15-.19-1.72c0-.24-.25-.26-.45-.17a.75.75,0,0,0-.44.6Z"/><path d="M174.7,188.24c-.12,1.28-.27,2.56-.28,3.84,0,1.13,0,2.27,0,3.41,0,.43.48.44.77.3a1.29,1.29,0,0,0,.76-1l0-4.35c0-.45-.5-.46-.8-.31a1.32,1.32,0,0,0-.78,1.07c0,.66,0,1.32,0,2,0,.45.49.46.8.31a1.31,1.31,0,0,0,.79-1.08v-1.74c0-.45-.49-.46-.8-.31a1.33,1.33,0,0,0-.79,1.08v41.74q0,5.82,0,11.66c0,.44.49.45.79.31A1.32,1.32,0,0,0,176,244c0-1.11,0-2.23,0-3.35,0-.49,0-1,0-1.48,0-.24,0-.49,0-.72a1.93,1.93,0,0,0-.32-.68c-.23-.41-.74.16-.83.4a4.91,4.91,0,0,0-.3.89,4.61,4.61,0,0,0,0,.83l0,1.5c0,1.12,0,2.25,0,3.37,0,.44.49.45.79.31A1.34,1.34,0,0,0,176,244c0-7,0-14,0-20.95V190.63c0-.45-.49-.46-.8-.31a1.33,1.33,0,0,0-.79,1.08v1.74c0,.45.49.46.8.31a1.31,1.31,0,0,0,.79-1.08v-2c0-.44-.49-.46-.8-.31a1.3,1.3,0,0,0-.78,1.07l0,4.33c0,.43.47.44.77.3a1.29,1.29,0,0,0,.76-1c0-1.13,0-2.26,0-3.39s-.16-2.38-.28-3.56c0-.26-.27-.28-.47-.19a.81.81,0,0,0-.46.63Z"/><path d="M209.25,189.5c0,2.65-.09,5.3-.11,7.94,0,.42.46.42.74.29a1.22,1.22,0,0,0,.72-1c0-1.45,0-2.9,0-4.36,0-.43-.48-.44-.78-.3a1.31,1.31,0,0,0-.76,1c0,1.45,0,2.9,0,4.35,0,.44.49.45.79.3a1.3,1.3,0,0,0,.77-1.05c0-1.46,0-2.91,0-4.36,0-.47-.51-.48-.83-.33a1.4,1.4,0,0,0-.81,1.12q0,9.65,0,19.3v19.14c0,1.79,0,3.59,0,5.39s0,3.65,0,5.47c0,.46.5.48.83.32a1.36,1.36,0,0,0,.81-1.11v-.39c0-.45-.49-.47-.82-.32a1.37,1.37,0,0,0-.8,1.1l.06,1.16c0,.42.45.44.76.29a1.27,1.27,0,0,0,.75-1c0-.89-.15-1.77-.24-2.65,0-.28-.3-.31-.52-.2a.86.86,0,0,0-.51.7c-.09,1-.2,1.91-.24,2.88,0,.43.48.43.76.29a1.27,1.27,0,0,0,.75-1c0-.4,0-.81.05-1.21s-.51-.46-.82-.32a1.39,1.39,0,0,0-.8,1.1v.4c0,.47.52.47.83.32a1.36,1.36,0,0,0,.81-1.11c.06-1.62,0-3.25,0-4.87l0-4.85v-9.58q0-9.57,0-19.14l0-10.86c0-.47-.51-.48-.83-.33a1.4,1.4,0,0,0-.81,1.12c0,1.44,0,2.88,0,4.32,0,.44.49.45.79.3a1.31,1.31,0,0,0,.77-1.05c0-1.45,0-2.89,0-4.34,0-.43-.47-.45-.78-.3a1.29,1.29,0,0,0-.76,1c0,1.44,0,2.88,0,4.32,0,.41.45.43.74.29a1.2,1.2,0,0,0,.72-1c0-2.61-.07-5.22-.11-7.83,0-.35-.38-.36-.62-.25a1.08,1.08,0,0,0-.62.84Z"/><path d="M87.32,188.23l-.07,1.34c0,.46-.08.9-.08,1.35s.35.34.58.23a1,1,0,0,0,.56-.77c0-.45,0-.9,0-1.34s-.35-.33-.57-.22a.92.92,0,0,0-.55.75v.56c0,.31.35.32.57.22a1,1,0,0,0,.55-.76v-.78c0-.32-.35-.33-.57-.22a.92.92,0,0,0-.55.75v12.89c0,4.31,0,8.62,0,12.93,0,1.2,0,2.4,0,3.59s.07,2.43.06,3.65c0,.23.26.23.42.16a.68.68,0,0,0,.4-.55c0-.69,0-1.37,0-2a4.82,4.82,0,0,0-.11-1.93c-.14-.34-.59.14-.64.31a6.62,6.62,0,0,0-.11,2c0,.67,0,1.35,0,2,0,.23.25.23.42.16a.68.68,0,0,0,.4-.55c0-2.18.08-4.35.09-6.53s0-4.28,0-6.43c0-4.32,0-8.64,0-13v-7.28c0-.32-.35-.33-.57-.22a.92.92,0,0,0-.55.75v.79c0,.31.35.32.57.22a1,1,0,0,0,.55-.76V189c0-.32-.35-.33-.57-.22a.92.92,0,0,0-.55.75c0,.45,0,.9,0,1.35s.36.33.58.23a1,1,0,0,0,.56-.77c0-.44,0-.85-.08-1.28l-.06-1.28c0-.24-.26-.25-.43-.17a.71.71,0,0,0-.42.58Z"/><path d="M110.79,188.05c0,1,0,1.92,0,2.88,0,.34.36.35.59.24a1,1,0,0,0,.58-.8v-2.11c0-.33-.36-.34-.59-.23a1,1,0,0,0-.58.8v.41c0,.34.36.34.59.24a1,1,0,0,0,.58-.8v-.42c0-.33-.36-.34-.59-.23a1,1,0,0,0-.58.8V204c0,5,0,10.1.08,15.15l0,4.22c0,.7,0,1.39,0,2.08s.1,1.42.16,2.13c0,.37.55,0,.56-.27.06-.66.15-1.32.17-2s0-1.27,0-1.91l0-3.83q0-3.8,0-7.61c0-5.06,0-10.13,0-15.2v-8.54c0-.33-.36-.34-.59-.23a1,1,0,0,0-.58.8v.41c0,.34.36.34.59.24a1,1,0,0,0,.58-.8v-.42c0-.33-.36-.34-.59-.23a1,1,0,0,0-.58.8v2.1c0,.34.36.35.59.24a1,1,0,0,0,.58-.8q0-1.45,0-2.91c0-.35-.39-.35-.62-.24a1,1,0,0,0-.61.83Z"/><path d="M137.27,188c0,.89-.05,1.77-.05,2.65,0,.27.3.28.48.19a.8.8,0,0,0,.47-.64c0-.52,0-1,0-1.57,0-.26-.29-.27-.47-.18a.75.75,0,0,0-.45.62l0,2.38c0,.28.31.28.49.19a.82.82,0,0,0,.49-.66c0-.88,0-1.76,0-2.63,0-.29-.31-.29-.51-.2a.84.84,0,0,0-.49.68v16.85c0,5.54,0,11.08,0,16.62,0,3.09,0,6.18.19,9.27,0,.35.52,0,.53-.25.31-5.58.2-11.18.22-16.77s0-11.13,0-16.7v-9.5c0-.29-.31-.29-.51-.2a.84.84,0,0,0-.49.68c0,.87,0,1.75,0,2.62,0,.28.3.29.49.19a.82.82,0,0,0,.49-.66l0-2.35c0-.26-.29-.27-.47-.18a.77.77,0,0,0-.45.62c0,.53,0,1.06,0,1.58,0,.27.3.28.48.19a.8.8,0,0,0,.47-.64c0-.87,0-1.74,0-2.61,0-.24-.26-.24-.43-.17a.75.75,0,0,0-.42.58Z"/><path d="M192.76,188.22c0,1.51-.13,3-.13,4.53,0,.31.34.32.55.22a.92.92,0,0,0,.54-.74v-1c0-.31-.34-.32-.55-.22a.92.92,0,0,0-.54.74v1.05c0,.3.33.31.54.21a.88.88,0,0,0,.53-.73v-2.36c0-.31-.33-.31-.54-.21a.89.89,0,0,0-.53.72q0,7.34,0,14.66c0,4.82,0,9.64,0,14.45l.05,3.67,0,1.74a10.4,10.4,0,0,0,.08,1.68c.08.44.68,0,.72-.26a22.75,22.75,0,0,0,.11-3.09l0-3.28c0-2.34,0-4.69,0-7,0-5,0-9.93,0-14.9l0-8.15c0-.31-.33-.31-.54-.21a.9.9,0,0,0-.53.72v2.37c0,.3.33.31.54.21a.88.88,0,0,0,.53-.73v-1c0-.31-.34-.32-.55-.22a.92.92,0,0,0-.54.74v1.05c0,.31.34.32.55.22a.92.92,0,0,0,.54-.74c0-1.47-.08-2.94-.13-4.41,0-.24-.25-.24-.42-.16a.69.69,0,0,0-.41.56Z"/><path d="M225,188.26l0,2.12c0,.31.35.32.55.22a.92.92,0,0,0,.54-.74v-.53c0-.31-.35-.32-.56-.22a.94.94,0,0,0-.54.75l0,.8c0,.32.36.33.57.22a.92.92,0,0,0,.56-.77c0-.61,0-1.23,0-1.84,0-.33-.36-.34-.59-.23a1,1,0,0,0-.57.79c0,5.33,0,10.67,0,16s0,10.56,0,15.85c0,3,0,5.92,0,8.88,0,.32.35.33.57.22a.94.94,0,0,0,.56-.76,4.88,4.88,0,0,0-.07-.76c-.09-.59-.92,0-1,.36s-.08.62-.09.94.36.33.57.22a.94.94,0,0,0,.56-.76c0-5.28,0-10.56,0-15.83s0-10.6,0-15.9c0-3,0-6,0-9,0-.33-.36-.34-.59-.23a1,1,0,0,0-.57.79c0,.61,0,1.22,0,1.83,0,.32.35.33.57.22a.92.92,0,0,0,.56-.77v-.78c0-.31-.34-.32-.56-.22a.94.94,0,0,0-.54.75v.52c0,.31.34.32.55.22a.89.89,0,0,0,.54-.74l0-2.08c0-.29-.32-.3-.52-.2a.85.85,0,0,0-.5.68Z"/><path d="M252.28,191.21c0-.53,0-1,0-1.58,0-.26-.3-.26-.47-.18a.79.79,0,0,0-.47.64c0,.27,0,.54,0,.81s.32.29.52.2a.86.86,0,0,0,.5-.7l0-1.06c0-.3-.33-.3-.54-.21a.93.93,0,0,0-.52.72c-.08,5.42,0,10.83,0,16.25s0,10.75,0,16.12v4.53c0,.75,0,1.5,0,2.24s.07,1.54.13,2.3c0,.18.19.19.32.13a.53.53,0,0,0,.32-.43c.05-.71.13-1.42.13-2.12s0-1.37,0-2.06V214.66c0-5.39,0-10.79.07-16.18,0-3,0-6.09,0-9.14,0-.29-.33-.3-.54-.21a.93.93,0,0,0-.52.72l0,1.05c0,.29.31.3.52.2a.85.85,0,0,0,.5-.7c0-.25,0-.51,0-.77,0-.57-1,0-.94.46a11.9,11.9,0,0,1,0,1.58c0,.27.3.27.48.18a.76.76,0,0,0,.46-.64Z"/><path d="M278.76,189.53l0,1.06c0,.25.27.25.43.17a.71.71,0,0,0,.43-.58c0-.72,0-1.43.09-2.15,0-.3-.34-.3-.53-.21a.88.88,0,0,0-.52.72c0,.61,0,1.23,0,1.85,0,.31.33.31.54.21a.88.88,0,0,0,.53-.73v-.53c0-.31-.34-.31-.55-.22a.91.91,0,0,0-.53.74c0,4.42,0,8.84,0,13.26s0,8.89,0,13.33l0,3.71c0,.64,0,1.28,0,1.92s.09,1.24.14,1.86c0,.2.2.2.35.14a.6.6,0,0,0,.34-.47c.1-1.15.16-2.28.16-3.44s0-2.24,0-3.36l0-6.73c0-4.44,0-8.87,0-13.3q0-3.72,0-7.44c0-.31-.34-.32-.55-.22a.91.91,0,0,0-.53.74v.53c0,.3.33.31.54.21a.9.9,0,0,0,.53-.73c0-.61,0-1.23,0-1.84,0-.3-.32-.31-.53-.21a.86.86,0,0,0-.52.72c.06.68.08,1.37.1,2.05,0,.53.87,0,.86-.41l0-1c0-.23-.25-.23-.41-.16a.67.67,0,0,0-.39.55Z"/><path d="M305,189.56c0,.54,0,1.07-.07,1.61,0,.31.34.3.54.21a.89.89,0,0,0,.52-.72,16.14,16.14,0,0,0,0-1.84c0-.29-.32-.31-.53-.21a.88.88,0,0,0-.51.71c0,1.14,0,2.27,0,3.4,0,.27.3.28.48.19a.81.81,0,0,0,.48-.65v-2.89c0-.28-.3-.28-.49-.19a.8.8,0,0,0-.47.65c0,6.08,0,12.17,0,18.25s0,12.19.06,18.29c0,3.38,0,6.76.16,10.14,0,.31.47,0,.48-.22.12-3.07.14-6.13.15-9.19s.05-6.12.05-9.18q0-9.16,0-18.32c0-3.41,0-6.82,0-10.23,0-.28-.3-.28-.49-.19a.8.8,0,0,0-.47.65v2.89c0,.27.3.28.48.19a.81.81,0,0,0,.48-.65c0-1.15,0-2.29,0-3.44,0-.3-.33-.3-.53-.21a.88.88,0,0,0-.51.71,14.28,14.28,0,0,0,0,1.85c.05.67,1.09,0,1.06-.51s-.05-1-.07-1.55c0-.26-.28-.27-.47-.18a.79.79,0,0,0-.45.63Z"/><path d="M328.66,189.29c-.06,1.76-.11,3.53-.07,5.29,0,.3.32.31.53.21a.88.88,0,0,0,.52-.71c0-1.49-.07-3-.05-4.45,0-.27-.3-.27-.48-.19a.8.8,0,0,0-.47.65l0,2.38c0,.29.31.29.51.2a.88.88,0,0,0,.5-.69v-.79c0-.29-.32-.3-.52-.2a.85.85,0,0,0-.51.69c-.06,4.94,0,9.88,0,14.82s0,9.86,0,14.78l0,4.18v2.06q0,.49,0,1a2.88,2.88,0,0,0,.19,1c.09.25.44-.11.47-.23a14.54,14.54,0,0,0,.23-3.79v-3.69l0-7.39q0-7.4,0-14.81c0-2.79,0-5.58,0-8.37,0-.29-.32-.3-.52-.2a.85.85,0,0,0-.51.69v.79c0,.28.31.29.51.2a.88.88,0,0,0,.5-.69l0-2.35c0-.27-.29-.28-.48-.19a.8.8,0,0,0-.47.65c0,1.5,0,3-.05,4.49,0,.31.33.31.53.21a.88.88,0,0,0,.52-.71c0-1.74,0-3.49-.07-5.23,0-.25-.28-.26-.46-.18a.78.78,0,0,0-.45.62Z"/><path d="M371.64,221.94a14.81,14.81,0,0,1-2.56,3.92,4,4,0,0,1-1.92,1.18,3.86,3.86,0,0,1-2.46-.29,4.71,4.71,0,0,1-1.91-1.74,8.34,8.34,0,0,1-1-2.33c-.52-1.77-.94-3.57-1.29-5.39a46.21,46.21,0,0,1-.8-5.85,10.54,10.54,0,0,1,.38-4.87c1.08-2.55,4.47-5.26,7.19-3.25,3,2.2,2.14,6.19,2.87,9.35a8.2,8.2,0,0,0,.37,1.19c.05.1.19-.06.19-.12.11-2-.18-3.9-.2-5.86,0-1.79.16-3.8,1.5-5.14a5.56,5.56,0,0,1,2.79-1.42,4.1,4.1,0,0,1,2.68.05c1.47.68,1.93,2.52,2.22,4,.37,1.85.4,3.84,1.08,5.62,0,.09.16,0,.17-.06.73-1.86.69-3.93,1.38-5.8a3.81,3.81,0,0,1,1.77-2.22,4.08,4.08,0,0,1,3.3.07c2,.94,2.87,3.34,3.35,5.37.25,1.05.44,2.12.59,3.19a46.12,46.12,0,0,1,.49,4.84,17.76,17.76,0,0,1-.47,5.24,11.18,11.18,0,0,1-2.63,4.79c0,.06,0,.11.06.06a11.61,11.61,0,0,0,2.46-4,15.41,15.41,0,0,0,.78-4.72,35.51,35.51,0,0,0-.34-5.05c-.16-1.24-.35-2.48-.6-3.71-.43-2.11-1.12-4.63-3.05-5.87a4.41,4.41,0,0,0-3.23-.58,3.38,3.38,0,0,0-2.17,1.63c-1.1,1.85-1.08,4.11-1.64,6.14-.06.22-.13.43-.21.65l.17-.07a29.88,29.88,0,0,1-1-5.25c-.27-1.5-.67-3.41-2.08-4.26a3.5,3.5,0,0,0-2.4-.32,7.05,7.05,0,0,0-3,1.19,6,6,0,0,0-2.1,4.77c-.11,2.3.31,4.58.19,6.88l.19-.12a18.84,18.84,0,0,1-.84-5.39,10.66,10.66,0,0,0-.52-2.57,6,6,0,0,0-1.4-2.17,3.82,3.82,0,0,0-4.07-.9,7.08,7.08,0,0,0-3.43,2.87,6.45,6.45,0,0,0-.86,2,9.9,9.9,0,0,0-.14,2.49,41.23,41.23,0,0,0,.63,6.07c.34,2,.77,3.93,1.3,5.86a14.93,14.93,0,0,0,.84,2.55,5.36,5.36,0,0,0,1.66,2,3.86,3.86,0,0,0,4.37.14,10,10,0,0,0,3-3.77c.18-.32.34-.65.5-1,.06-.11-.09-.07-.13,0Z"/><path d="M385.69,227.68a11.87,11.87,0,0,1-2.33-3.25,9.64,9.64,0,0,1-.52-3.85l-.18.09a47.05,47.05,0,0,1,.07,4.75,4.91,4.91,0,0,1-.69,2.15,4.58,4.58,0,0,1-2,1.67,3.8,3.8,0,0,1-3.79,0,5.89,5.89,0,0,1-1.84-3,40.56,40.56,0,0,1-1-4.36c0-.11-.23,0-.21.15a35.52,35.52,0,0,0,.94,4.18,6.18,6.18,0,0,0,1.91,3.18,3.74,3.74,0,0,0,3.6.23,4.91,4.91,0,0,0,3.17-3.42c.44-1.82.06-3.76,0-5.61,0-.11-.18,0-.18.09a10,10,0,0,0,.6,3.84,12.11,12.11,0,0,0,2.34,3.26s.12-.05.09-.09Z"/><path d="M365.57,227.24c0,3.87,0,7.73,0,11.6,0,.95,0,1.91,0,2.86,0,.11.17,0,.18-.08.09-1.75,0-3.52,0-5.28,0-2,0-3.93,0-5.9v-3.29c0-.11-.18,0-.18.09Z"/><path d="M377.13,228.82V239.7a9.25,9.25,0,0,0,0,1.49c0,.09.15,0,.16-.07a11.17,11.17,0,0,0,0-1.53V228.73c0-.12-.2,0-.2.09Z"/><path d="M387.67,227.23c0,5.17-.1,10.34,0,15.5,0,.06.09,0,.09,0,.13-5.17.06-10.35,0-15.53,0-.09-.15,0-.15.07Z"/><path d="M89.89,168.21c-2.25.28-4.79.74-6.94-.21-2.32-1-3.47-3.68-4-6a20.23,20.23,0,0,1-.11-8.38,9.64,9.64,0,0,1,3.69-5.38c3.52-2.81,8-4.34,11.16-7.65a11.69,11.69,0,0,0,3-7.38c.2-3-.3-6,0-8.94a10.24,10.24,0,0,1,1.16-4.1,9.77,9.77,0,0,1,2.33-2.75,18.54,18.54,0,0,1,6.45-3.26,40.45,40.45,0,0,1,6.72-1.46,23.63,23.63,0,0,1,5.25-.09,18.7,18.7,0,0,1,2.68.43,5,5,0,0,1,1.54.7c1,.63,1.94,1.31,3,1.89a5.48,5.48,0,0,0,2.85,1c1.19-.07,1.8-1.29,2.16-2.27.82-2.21,1.21-6.79,4.55-6.28,2.51.39,4.27,2.57,5.7,4.48.73,1,1.42,2,2.15,3a47.56,47.56,0,0,1,2.84,4.2,24.06,24.06,0,0,1,2.11,4.51,13.07,13.07,0,0,1,.83,4.54,6.44,6.44,0,0,1-1.07,3.32,14.48,14.48,0,0,1-2.28,2.54c-.9.85-1.82,1.68-2.66,2.59,0,0-.07.09,0,.13a24.63,24.63,0,0,0,5.32,2.88c1.84.88,3.83,1.93,4.9,3.74s.76,3.68.76,5.62a3.9,3.9,0,0,0,.45,2.1,3.45,3.45,0,0,0,2.28,1.35c.13,0,.34,0,.44.12s.09.31.09.45a2.73,2.73,0,0,1-.21.93,6.32,6.32,0,0,1-1.12,1.68c-.81.93-1.76,1.7-2.63,2.56,0,0-.08.14,0,.14a24.77,24.77,0,0,1,2.86-.1,3.16,3.16,0,0,1,2.15,1.33,12.29,12.29,0,0,1,2,4.52,10.25,10.25,0,0,1,.16,4.2,7.41,7.41,0,0,1-1.6,3.76,4.22,4.22,0,0,1-4.46,1.09c-.09,0-.23.16-.13.19a4.52,4.52,0,0,0,4.08-.61,6.4,6.4,0,0,0,2.08-3.46,10.56,10.56,0,0,0,.2-4.51,12.87,12.87,0,0,0-1.78-4.68,4.21,4.21,0,0,0-2.15-1.91,12.34,12.34,0,0,0-3.38,0v.13c.93-.91,1.94-1.74,2.79-2.74a3.84,3.84,0,0,0,1.2-3.15.05.05,0,0,0-.05,0,4.36,4.36,0,0,1-2.37-1,2.69,2.69,0,0,1-.74-1.67c-.17-1.4.13-2.8-.05-4.2-.44-3.37-3.47-5-6.26-6.31a21.84,21.84,0,0,1-4.74-2.6l0,.13c1.63-1.76,3.71-3.21,5-5.25,1.44-2.25,1.17-4.83.45-7.29a29.19,29.19,0,0,0-4.77-8.85c-1.6-2.18-3.05-4.59-5.08-6.41-1.23-1.09-3.27-2.24-4.94-1.46-1.22.58-1.78,2-2.17,3.2a18.53,18.53,0,0,1-1.47,4.18,1.81,1.81,0,0,1-1.39,1,5.85,5.85,0,0,1-3.08-1.15c-1-.62-2-1.33-3-2a5.76,5.76,0,0,0-2-.65,20.77,20.77,0,0,0-2.48-.32,30.3,30.3,0,0,0-8.27.76c-4.46,1-9.65,2.67-12.11,6.84-1.46,2.45-1.46,5.43-1.36,8.19.12,3.15.38,6.41-.89,9.38-2,4.68-7.22,6.63-11.2,9.24a14.68,14.68,0,0,0-4.72,4.49c-1.25,2.13-1.39,4.76-1.3,7.17a14.73,14.73,0,0,0,2.11,7.67A5.7,5.7,0,0,0,83,168.26a8.32,8.32,0,0,0,3.24.48,36,36,0,0,0,3.6-.35c.07,0,.17-.19.07-.18Z"/><path d="M89.64,171.37A24.93,24.93,0,0,1,81.52,166a32.34,32.34,0,0,1-6.08-8A25.81,25.81,0,0,1,73.3,138.9a27.33,27.33,0,0,1,4.46-9,11.46,11.46,0,0,1,6.7-4.5,24.47,24.47,0,0,1,8,0,8,8,0,0,0,6.66-1.92,13.93,13.93,0,0,0,3.24-5.89c.39-1.18.68-2.39,1.08-3.57a18.18,18.18,0,0,1,1.76-3.83c1.37-2.22,3.39-4.26,6-4.81a9.35,9.35,0,0,1,7.59,2.33c3.79,3.2,5,8.48,5.52,13.19.26,2.41.33,4.84.35,7.26,0,3.3-.08,6.59-.24,9.88-.19,3.84-.42,7.68-.43,11.53,0,1.9,0,3.8.2,5.7a13.11,13.11,0,0,0,.77,4.35,10,10,0,0,0,1.8,2.62,16.57,16.57,0,0,1,1.91,2.36,4.86,4.86,0,0,1,.62,3.12,9.84,9.84,0,0,1-.56,2.13,3.19,3.19,0,0,1-.84,1.4c-.92.75-2.14-.42-2.76-1-.08-.07-.26.11-.19.19.65.64,1.72,1.66,2.73,1.19S129,170,129.26,169a6,6,0,0,0,.11-3.51,7.44,7.44,0,0,0-1.58-2.48,20,20,0,0,1-2.1-2.58,7.1,7.1,0,0,1-.73-1.55,11.27,11.27,0,0,1-.39-2.31,85.91,85.91,0,0,1-.22-11.68c.25-6.67.76-13.31.51-20a46.88,46.88,0,0,0-.84-7.66,20.65,20.65,0,0,0-2.6-6.88,11.64,11.64,0,0,0-5.65-4.69,8.1,8.1,0,0,0-4.07-.52,7.76,7.76,0,0,0-3.41,1.43,14.42,14.42,0,0,0-4.69,6.53c-.47,1.2-.78,2.45-1.16,3.68a26.07,26.07,0,0,1-1.3,3.52,8.1,8.1,0,0,1-5,4.73,11,11,0,0,1-4.24.11,34.55,34.55,0,0,0-4.19-.28,12.26,12.26,0,0,0-7.19,2,13.73,13.73,0,0,0-3.08,3.1,29.3,29.3,0,0,0-2.63,4.32,25.8,25.8,0,0,0-1.58,19.05,28.93,28.93,0,0,0,4.78,9,30.57,30.57,0,0,0,7.35,7,21.32,21.32,0,0,0,4.14,2.13c.08,0,.21-.14.12-.18Z"/></g></svg>