<svg width="337" height="103" viewBox="0 0 337 103" fill="none" xmlns="http://www.w3.org/2000/svg">
<path d="M79.6172 11.7344H46.7109V103H33.2812V11.7344H0.445312V0.625H79.6172V11.7344ZM118.008 70.7266L119.977 84.2266L122.859 72.0625L143.109 0.625H154.5L174.258 72.0625L177.07 84.4375L179.25 70.6562L195.141 0.625H208.711L183.891 103H171.586L150.492 28.3984L148.875 20.5938L147.258 28.3984L125.391 103H113.086L88.3359 0.625H101.836L118.008 70.7266ZM245.836 70.7266L247.805 84.2266L250.688 72.0625L270.938 0.625H282.328L302.086 72.0625L304.898 84.4375L307.078 70.6562L322.969 0.625H336.539L311.719 103H299.414L278.32 28.3984L276.703 20.5938L275.086 28.3984L253.219 103H240.914L216.164 0.625H229.664L245.836 70.7266Z" fill="black"/>
</svg>
