<svg xmlns="http://www.w3.org/2000/svg" viewBox="0 0 250 250"><path d="M125,249a36.17,36.17,0,0,1-18.09-4.83l-76-43.91a36.28,36.28,0,0,1-18.09-31.33V81.09A36.28,36.28,0,0,1,30.86,49.76L106.91,5.85a36.29,36.29,0,0,1,36.18,0l76,43.91a36.28,36.28,0,0,1,18.09,31.33v87.82a36.28,36.28,0,0,1-18.09,31.33l-76,43.91A36.17,36.17,0,0,1,125,249ZM125,6.55a30.69,30.69,0,0,0-15.32,4.09L33.63,54.55A30.73,30.73,0,0,0,18.3,81.09v87.82a30.73,30.73,0,0,0,15.33,26.54l76.05,43.91a30.75,30.75,0,0,0,30.64,0l76.05-43.91a30.73,30.73,0,0,0,15.33-26.54V81.09a30.73,30.73,0,0,0-15.33-26.54L140.32,10.64A30.69,30.69,0,0,0,125,6.55Z" fill="#a78bfa"/><path d="M180.4,141.16a30,30,0,0,1-30,30H127.31a30,30,0,1,1,0-60h9.23a2.31,2.31,0,1,1,0,4.62h-9.23a25.39,25.39,0,1,0,0,50.78h23.08a25.4,25.4,0,0,0,12.7-47.39,2.31,2.31,0,0,1,2.31-4,30.11,30.11,0,0,1,15,26ZM86.91,130.84A25.4,25.4,0,0,1,99.6,83.45h23.09a25.39,25.39,0,0,1,0,50.78h-9.24a2.31,2.31,0,0,0,0,4.62h9.24a30,30,0,0,0,0-60H99.6a30,30,0,0,0-15,56,2.31,2.31,0,0,0,2.31-4Z" fill="#a78bfa"/></svg>