<svg xmlns="http://www.w3.org/2000/svg" viewBox="0 0 250 250"><path d="M125,249a36.17,36.17,0,0,1-18.09-4.83l-76-43.91a36.28,36.28,0,0,1-18.09-31.33V81.09A36.28,36.28,0,0,1,30.86,49.76L106.91,5.85a36.29,36.29,0,0,1,36.18,0l76,43.91a36.28,36.28,0,0,1,18.09,31.33v87.82a36.28,36.28,0,0,1-18.09,31.33l-76,43.91A36.17,36.17,0,0,1,125,249ZM125,6.55a30.69,30.69,0,0,0-15.32,4.09L33.63,54.55A30.73,30.73,0,0,0,18.3,81.09v87.82a30.73,30.73,0,0,0,15.33,26.54l76.05,43.91a30.75,30.75,0,0,0,30.64,0l76.05-43.91a30.73,30.73,0,0,0,15.33-26.54V81.09a30.73,30.73,0,0,0-15.33-26.54L140.32,10.64A30.69,30.69,0,0,0,125,6.55Z" fill="#a78bfa"/><path d="M168.47,170.36H96.65a17,17,0,0,1-17-17V81.53a1.89,1.89,0,0,1,3.78,0v71.82a13.24,13.24,0,0,0,13.23,13.23h71.82a1.89,1.89,0,1,1,0,3.78ZM159,94.76a11.34,11.34,0,1,0-11.34,11.34A11.37,11.37,0,0,0,159,94.76Zm-3.78,0a7.56,7.56,0,1,1-7.56-7.56A7.58,7.58,0,0,1,155.24,94.76Zm0,37.8A11.34,11.34,0,1,0,143.9,143.9,11.37,11.37,0,0,0,155.24,132.56Zm-3.78,0A7.56,7.56,0,1,1,143.9,125,7.58,7.58,0,0,1,151.46,132.56ZM121.22,108a9.45,9.45,0,1,0-9.45,9.45A9.45,9.45,0,0,0,121.22,108Zm-3.78,0a5.67,5.67,0,1,1-5.67-5.67A5.66,5.66,0,0,1,117.44,108Zm0,34a9.45,9.45,0,1,0-9.45,9.45A9.45,9.45,0,0,0,117.44,142Zm-3.78,0a5.67,5.67,0,1,1-5.67-5.67A5.66,5.66,0,0,1,113.66,142Z" fill="#a78bfa"/></svg>