<svg xmlns="http://www.w3.org/2000/svg" viewBox="0 0 250 250"><path d="M125,249a36.17,36.17,0,0,1-18.09-4.83l-76-43.91a36.28,36.28,0,0,1-18.09-31.33V81.09A36.28,36.28,0,0,1,30.86,49.76L106.91,5.85a36.29,36.29,0,0,1,36.18,0l76,43.91a36.28,36.28,0,0,1,18.09,31.33v87.82a36.28,36.28,0,0,1-18.09,31.33l-76,43.91A36.17,36.17,0,0,1,125,249ZM125,6.55a30.69,30.69,0,0,0-15.32,4.09L33.63,54.55A30.73,30.73,0,0,0,18.3,81.09v87.82a30.73,30.73,0,0,0,15.33,26.54l76.05,43.91a30.75,30.75,0,0,0,30.64,0l76.05-43.91a30.73,30.73,0,0,0,15.33-26.54V81.09a30.73,30.73,0,0,0-15.33-26.54L140.32,10.64A30.69,30.69,0,0,0,125,6.55Z" fill="#a78bfa"/><path d="M111.77,121.22h-7.56a5.67,5.67,0,0,1-5.67-5.67,1.89,1.89,0,1,0-3.78,0v15.12a9.46,9.46,0,0,0,9.45,9.45h11.34a5.68,5.68,0,0,0,5.67-5.67v-3.78A9.46,9.46,0,0,0,111.77,121.22Zm5.67,13.23a1.89,1.89,0,0,1-1.89,1.89H104.21a5.67,5.67,0,0,1-5.67-5.67v-7.56a9.45,9.45,0,0,0,5.67,1.89h7.56a5.68,5.68,0,0,1,5.67,5.67v3.78Zm39.33-41.82a44.93,44.93,0,0,0-32.62-13c-24.54.45-44.51,21.44-44.51,46.79v26.91a17,17,0,0,0,17,17H102a13.31,13.31,0,0,0,11.39-6.48l1.81-3.06a11.38,11.38,0,0,1,19.58,0l1.82,3.07A13.28,13.28,0,0,0,148,170.36h5.36a17,17,0,0,0,17-17V125a45,45,0,0,0-13.58-32.37Zm9.81,60.72a13.25,13.25,0,0,1-13.23,13.23H148a9.48,9.48,0,0,1-8.12-4.63L138,158.89a15.16,15.16,0,0,0-26.08,0L110.15,162a9.51,9.51,0,0,1-8.14,4.63H96.65a13.25,13.25,0,0,1-13.23-13.23V126.44c0-23.31,19.09-42.61,41.58-43A41.58,41.58,0,0,1,166.58,125v28.35Zm-15.12-37.8a5.68,5.68,0,0,1-5.67,5.67h-7.56a9.46,9.46,0,0,0-9.45,9.45v3.78a5.67,5.67,0,0,0,5.67,5.67h11.34a9.46,9.46,0,0,0,9.45-9.45V115.55a1.89,1.89,0,0,0-3.78,0Zm0,15.12a5.68,5.68,0,0,1-5.67,5.67H134.45a1.89,1.89,0,0,1-1.89-1.89v-3.78a5.67,5.67,0,0,1,5.67-5.67h7.56a9.47,9.47,0,0,0,5.67-1.89Z" fill="#a78bfa"/></svg>