<svg xmlns="http://www.w3.org/2000/svg" viewBox="0 0 250 250"><path d="M125,249a36.17,36.17,0,0,1-18.09-4.83l-76-43.91a36.28,36.28,0,0,1-18.09-31.33V81.09A36.28,36.28,0,0,1,30.86,49.76L106.91,5.85a36.29,36.29,0,0,1,36.18,0l76,43.91a36.28,36.28,0,0,1,18.09,31.33v87.82a36.28,36.28,0,0,1-18.09,31.33l-76,43.91A36.17,36.17,0,0,1,125,249ZM125,6.55a30.69,30.69,0,0,0-15.32,4.09L33.63,54.55A30.73,30.73,0,0,0,18.3,81.09v87.82a30.73,30.73,0,0,0,15.33,26.54l76.05,43.91a30.75,30.75,0,0,0,30.64,0l76.05-43.91a30.73,30.73,0,0,0,15.33-26.54V81.09a30.73,30.73,0,0,0-15.33-26.54L140.32,10.64A30.69,30.69,0,0,0,125,6.55Z" fill="#a78bfa"/><path d="M143.67,109.05,127.72,125l15.95,16a1.93,1.93,0,0,1,0,2.72,1.94,1.94,0,0,1-2.73,0l-15.94-16-16,16a1.93,1.93,0,0,1-2.72,0,1.93,1.93,0,0,1,0-2.72l15.94-16-15.94-15.94a1.92,1.92,0,0,1,2.72-2.72L125,122.27l16-15.94a1.92,1.92,0,1,1,2.72,2.72Zm27.48,17.31v27.48a17.34,17.34,0,0,1-17.31,17.31H129.35c-14.82,0-28.23-5.32-37.74-15a43.91,43.91,0,0,1-12.75-31.72c.35-24.31,20.4-44.76,44.71-45.59a45.1,45.1,0,0,1,32.89,12.75,48.51,48.51,0,0,1,14.69,34.74Zm-3.85,0a44.65,44.65,0,0,0-13.51-32,41,41,0,0,0-28.67-11.7c-.47,0-1,0-1.42,0-22.29.75-40.68,19.51-41,41.8a40.12,40.12,0,0,0,11.64,29c8.79,8.92,21.23,13.83,35,13.83h24.49a13.48,13.48,0,0,0,13.46-13.46V126.36Z" fill="#a78bfa"/></svg>