<svg xmlns="http://www.w3.org/2000/svg" viewBox="0 0 250 250"><path d="M125,249a36.17,36.17,0,0,1-18.09-4.83l-76-43.91a36.28,36.28,0,0,1-18.09-31.33V81.09A36.28,36.28,0,0,1,30.86,49.76L106.91,5.85a36.29,36.29,0,0,1,36.18,0l76,43.91a36.28,36.28,0,0,1,18.09,31.33v87.82a36.28,36.28,0,0,1-18.09,31.33l-76,43.91A36.17,36.17,0,0,1,125,249ZM125,6.55a30.69,30.69,0,0,0-15.32,4.09L33.63,54.55A30.73,30.73,0,0,0,18.3,81.09v87.82a30.73,30.73,0,0,0,15.33,26.54l76.05,43.91a30.75,30.75,0,0,0,30.64,0l76.05-43.91a30.73,30.73,0,0,0,15.33-26.54V81.09a30.73,30.73,0,0,0-15.33-26.54L140.32,10.64A30.69,30.69,0,0,0,125,6.55Z" fill="#a78bfa"/><path d="M175.65,125A50.65,50.65,0,1,1,125,74.35,50.71,50.71,0,0,1,175.65,125Zm-7.79,0A42.86,42.86,0,1,0,125,167.86,42.91,42.91,0,0,0,167.86,125Zm-26.08-6.86-17.29,16.59a6.83,6.83,0,0,1-9.53,0l-8.82-8.64a3.9,3.9,0,0,0-5.45,5.58l8.82,8.63a14.66,14.66,0,0,0,20.43,0l17.25-16.55a3.9,3.9,0,0,0-5.4-5.62Z" fill="#a78bfa"/></svg>