<svg xmlns="http://www.w3.org/2000/svg" viewBox="0 0 250 250"><path d="M125,249a36.17,36.17,0,0,1-18.09-4.83l-76-43.91a36.28,36.28,0,0,1-18.09-31.33V81.09A36.28,36.28,0,0,1,30.86,49.76L106.91,5.85a36.29,36.29,0,0,1,36.18,0l76,43.91a36.28,36.28,0,0,1,18.09,31.33v87.82a36.28,36.28,0,0,1-18.09,31.33l-76,43.91A36.17,36.17,0,0,1,125,249ZM125,6.55a30.69,30.69,0,0,0-15.32,4.09L33.63,54.55A30.73,30.73,0,0,0,18.3,81.09v87.82a30.73,30.73,0,0,0,15.33,26.54l76.05,43.91a30.75,30.75,0,0,0,30.64,0l76.05-43.91a30.73,30.73,0,0,0,15.33-26.54V81.09a30.73,30.73,0,0,0-15.33-26.54L140.32,10.64A30.69,30.69,0,0,0,125,6.55Z" fill="#a78bfa"/><path d="M145.84,152.78H104.16a2.32,2.32,0,0,1,0-4.63h41.68a2.32,2.32,0,0,1,0,4.63ZM125,106.48a4.63,4.63,0,1,0-4.63-4.63A4.65,4.65,0,0,0,125,106.48ZM78.69,148.15a4.63,4.63,0,1,0-4.63,4.63A4.65,4.65,0,0,0,78.69,148.15Zm101.88,0a4.63,4.63,0,1,0-4.63,4.63A4.65,4.65,0,0,0,180.57,148.15Zm-18.52-27.78a4.63,4.63,0,1,0-4.63-4.63A4.65,4.65,0,0,0,162.05,120.37Zm-74.1,0a4.63,4.63,0,1,0-4.63-4.63A4.64,4.64,0,0,0,88,120.37Z" fill="#a78bfa"/></svg>