<svg xmlns="http://www.w3.org/2000/svg" viewBox="0 0 250 250"><path d="M155.48,84.36h-61a18.31,18.31,0,0,0-18.29,18.29v44.7a18.31,18.31,0,0,0,18.29,18.29h61a18.31,18.31,0,0,0,18.29-18.29v-44.7A18.31,18.31,0,0,0,155.48,84.36Zm-61,4.06h61a14.25,14.25,0,0,1,14.23,14.23v2H80.29v-2A14.25,14.25,0,0,1,94.52,88.42ZM80.29,147.35V108.74H123v52.84H94.52A14.25,14.25,0,0,1,80.29,147.35Zm75.19,14.23H127V108.74h42.68v38.61A14.25,14.25,0,0,1,155.48,161.58Z" fill="#a78bfa"/><path d="M125,249a36.17,36.17,0,0,1-18.09-4.83l-76-43.91a36.28,36.28,0,0,1-18.09-31.33V81.09A36.28,36.28,0,0,1,30.86,49.76L106.91,5.85a36.29,36.29,0,0,1,36.18,0l76,43.91a36.28,36.28,0,0,1,18.09,31.33v87.82a36.28,36.28,0,0,1-18.09,31.33l-76,43.91A36.17,36.17,0,0,1,125,249ZM125,6.55a30.69,30.69,0,0,0-15.32,4.09L33.63,54.55A30.73,30.73,0,0,0,18.3,81.09v87.82a30.73,30.73,0,0,0,15.33,26.54l76.05,43.91a30.75,30.75,0,0,0,30.64,0l76.05-43.91a30.73,30.73,0,0,0,15.33-26.54V81.09a30.73,30.73,0,0,0-15.33-26.54L140.32,10.64A30.69,30.69,0,0,0,125,6.55Z" fill="#a78bfa"/></svg>