<svg xmlns="http://www.w3.org/2000/svg" viewBox="0 0 250 250"><path d="M125,249a36.17,36.17,0,0,1-18.09-4.83l-76-43.91a36.28,36.28,0,0,1-18.09-31.33V81.09A36.28,36.28,0,0,1,30.86,49.76L106.91,5.85a36.29,36.29,0,0,1,36.18,0l76,43.91a36.28,36.28,0,0,1,18.09,31.33v87.82a36.28,36.28,0,0,1-18.09,31.33l-76,43.91A36.17,36.17,0,0,1,125,249ZM125,6.55a30.69,30.69,0,0,0-15.32,4.09L33.63,54.55A30.73,30.73,0,0,0,18.3,81.09v87.82a30.73,30.73,0,0,0,15.33,26.54l76.05,43.91a30.75,30.75,0,0,0,30.64,0l76.05-43.91a30.73,30.73,0,0,0,15.33-26.54V81.09a30.73,30.73,0,0,0-15.33-26.54L140.32,10.64A30.69,30.69,0,0,0,125,6.55Z" fill="#a78bfa"/><path d="M125,73.21A51.79,51.79,0,1,0,176.79,125,51.84,51.84,0,0,0,125,73.21Zm40.39,26.87L156,109.52a8.66,8.66,0,0,1-6.1,2.53H137.09a7.84,7.84,0,0,0,.86-3.57v-3.59a7.83,7.83,0,0,0-2.31-5.57l-3.45-3.45a7.88,7.88,0,0,0-9.64-1.2l-6.68,4a2.88,2.88,0,0,1-1.52.42h-2.3V96.37a7.78,7.78,0,0,0-2.61-5.83l-7.53-7a47.41,47.41,0,0,1,63.48,16.55Zm-24,23.62a3.17,3.17,0,0,1,.92,2.24v5.62a3.09,3.09,0,0,1-.45,1.62l-10.62,17.71h-2.82l-2.9-11.59a7.45,7.45,0,0,0-7.26-5.67h-6.16a4.32,4.32,0,0,1-4.31-4.31v-4.51a3.37,3.37,0,0,1,1.51-2.82l7.58-5a3.37,3.37,0,0,1,1.87-.57h11.37a7.85,7.85,0,0,0,3.24-.7l8,8ZM125,172.47A47.46,47.46,0,0,1,98.11,85.9l8.44,7.85a3.46,3.46,0,0,1,1.19,2.62v3.56a3.48,3.48,0,0,0,3.48,3.49h3.14a7.33,7.33,0,0,0,3.74-1l6.67-4a3.54,3.54,0,0,1,4.36.54l3.46,3.45a3.57,3.57,0,0,1,1,2.52v3.59a3.58,3.58,0,0,1-3.57,3.57H118.7a7.7,7.7,0,0,0-4.26,1.29l-7.58,5.05a7.68,7.68,0,0,0-3.43,6.41v4.51a8.64,8.64,0,0,0,8.63,8.63h6.16a3.17,3.17,0,0,1,3.07,2.4l3,12a3.81,3.81,0,0,0,3.71,2.89h3.48a3.85,3.85,0,0,0,3.28-1.85l10.76-18a7.45,7.45,0,0,0,1.07-3.85v-5.62a7.43,7.43,0,0,0-2.19-5.29l-4.28-4.28h9.74a13,13,0,0,0,9.16-3.79l8.56-8.57A47.44,47.44,0,0,1,125,172.47Z" fill="#a78bfa"/></svg>