<svg xmlns="http://www.w3.org/2000/svg" viewBox="0 0 250 250"><path d="M125,249a36.17,36.17,0,0,1-18.09-4.83l-76-43.91a36.28,36.28,0,0,1-18.09-31.33V81.09A36.28,36.28,0,0,1,30.86,49.76L106.91,5.85a36.29,36.29,0,0,1,36.18,0l76,43.91a36.28,36.28,0,0,1,18.09,31.33v87.82a36.28,36.28,0,0,1-18.09,31.33l-76,43.91A36.17,36.17,0,0,1,125,249ZM125,6.55a30.69,30.69,0,0,0-15.32,4.09L33.63,54.55A30.73,30.73,0,0,0,18.3,81.09v87.82a30.73,30.73,0,0,0,15.33,26.54l76.05,43.91a30.75,30.75,0,0,0,30.64,0l76.05-43.91a30.73,30.73,0,0,0,15.33-26.54V81.09a30.73,30.73,0,0,0-15.33-26.54L140.32,10.64A30.69,30.69,0,0,0,125,6.55Z" fill="#a78bfa"/><path d="M125,80a45,45,0,1,0,45,45A45,45,0,0,0,125,80Zm0,86.22A41.24,41.24,0,1,1,166.24,125,41.29,41.29,0,0,1,125,166.24Zm0-63.73a15,15,0,1,0,11.18,25c-.69,11.23-7.11,16.26-20.55,16.26a1.88,1.88,0,1,0,0,3.75c16.4,0,24.36-7.23,24.36-22.12V117.5A15,15,0,0,0,125,102.51Zm0,26.24a11.25,11.25,0,1,1,11.25-11.25A11.27,11.27,0,0,1,125,128.75Z" fill="#a78bfa"/></svg>