<svg xmlns="http://www.w3.org/2000/svg" viewBox="0 0 250 250"><path d="M125,249a36.17,36.17,0,0,1-18.09-4.83l-76-43.91a36.28,36.28,0,0,1-18.09-31.33V81.09A36.28,36.28,0,0,1,30.86,49.76L106.91,5.85a36.29,36.29,0,0,1,36.18,0l76,43.91a36.28,36.28,0,0,1,18.09,31.33v87.82a36.28,36.28,0,0,1-18.09,31.33l-76,43.91A36.17,36.17,0,0,1,125,249ZM125,6.55a30.69,30.69,0,0,0-15.32,4.09L33.63,54.55A30.73,30.73,0,0,0,18.3,81.09v87.82a30.73,30.73,0,0,0,15.33,26.54l76.05,43.91a30.75,30.75,0,0,0,30.64,0l76.05-43.91a30.73,30.73,0,0,0,15.33-26.54V81.09a30.73,30.73,0,0,0-15.33-26.54L140.32,10.64A30.69,30.69,0,0,0,125,6.55Z" fill="#a78bfa"/><path d="M125,170.39A45.39,45.39,0,1,1,170.39,125,45.44,45.44,0,0,1,125,170.39Zm0-87A41.61,41.61,0,1,0,166.61,125,41.66,41.66,0,0,0,125,83.39Zm10.59,60.15a1.89,1.89,0,0,0,.38-2.65l-11-14.63V100.41a1.89,1.89,0,0,0-3.78,0v26.48a1.88,1.88,0,0,0,.38,1.14L133,143.16a1.89,1.89,0,0,0,1.51.75,1.94,1.94,0,0,0,1.14-.37Z" fill="#a78bfa"/></svg>