<svg xmlns="http://www.w3.org/2000/svg" viewBox="0 0 250 250"><path d="M125,249a36.17,36.17,0,0,1-18.09-4.83l-76-43.91a36.28,36.28,0,0,1-18.09-31.33V81.09A36.28,36.28,0,0,1,30.86,49.76L106.91,5.85a36.29,36.29,0,0,1,36.18,0l76,43.91a36.28,36.28,0,0,1,18.09,31.33v87.82a36.28,36.28,0,0,1-18.09,31.33l-76,43.91A36.17,36.17,0,0,1,125,249ZM125,6.55a30.69,30.69,0,0,0-15.32,4.09L33.63,54.55A30.73,30.73,0,0,0,18.3,81.09v87.82a30.73,30.73,0,0,0,15.33,26.54l76.05,43.91a30.75,30.75,0,0,0,30.64,0l76.05-43.91a30.73,30.73,0,0,0,15.33-26.54V81.09a30.73,30.73,0,0,0-15.33-26.54L140.32,10.64A30.69,30.69,0,0,0,125,6.55Z" fill="#a78bfa"/><path d="M125,172.91a5.35,5.35,0,0,1-3.57-1.36l-13.91-11.72H94.65a12.5,12.5,0,0,1-12.49-12.49V100.93a12.51,12.51,0,0,1,12.49-12.5h60.7a12.51,12.51,0,0,1,12.49,12.5v46.41a12.5,12.5,0,0,1-12.49,12.49H142.74l-14.23,11.76a5.21,5.21,0,0,1-3.49,1.32ZM94.65,92a8.94,8.94,0,0,0-8.92,8.93v46.41a8.93,8.93,0,0,0,8.92,8.92h13.53a1.79,1.79,0,0,1,1.15.42l14.45,12.17a1.79,1.79,0,0,0,2.41,0L141,156.67a1.81,1.81,0,0,1,1.14-.41h13.25a8.93,8.93,0,0,0,8.92-8.92V100.93A8.94,8.94,0,0,0,155.35,92Z" fill="#a78bfa"/></svg>