<svg xmlns="http://www.w3.org/2000/svg" viewBox="0 0 250 250"><path d="M125,249a36.17,36.17,0,0,1-18.09-4.83l-76-43.91a36.28,36.28,0,0,1-18.09-31.33V81.09A36.28,36.28,0,0,1,30.86,49.76L106.91,5.85a36.29,36.29,0,0,1,36.18,0l76,43.91a36.28,36.28,0,0,1,18.09,31.33v87.82a36.28,36.28,0,0,1-18.09,31.33l-76,43.91A36.17,36.17,0,0,1,125,249ZM125,6.55a30.69,30.69,0,0,0-15.32,4.09L33.63,54.55A30.73,30.73,0,0,0,18.3,81.09v87.82a30.73,30.73,0,0,0,15.33,26.54l76.05,43.91a30.75,30.75,0,0,0,30.64,0l76.05-43.91a30.73,30.73,0,0,0,15.33-26.54V81.09a30.73,30.73,0,0,0-15.33-26.54L140.32,10.64A30.69,30.69,0,0,0,125,6.55Z" fill="#a78bfa"/><path d="M162.8,134.45V136a1.58,1.58,0,0,1-3.15,0v-1.58a6.32,6.32,0,0,0-6.3-6.3h-6.3v29.93a1.58,1.58,0,0,1-3.15,0V128.15h-6.3a6.32,6.32,0,0,0-6.3,6.3V136a1.58,1.58,0,0,1-3.15,0v-1.58A9.47,9.47,0,0,1,137.6,125h15.75A9.47,9.47,0,0,1,162.8,134.45ZM132.88,93.5a11,11,0,0,1,11,11v3.15a1.58,1.58,0,1,0,3.15,0v-3.15a14.19,14.19,0,0,0-14.17-14.17H101.37A14.19,14.19,0,0,0,87.2,104.52v3.15a1.58,1.58,0,1,0,3.15,0v-3.15a11,11,0,0,1,11-11h14.18v64.58a1.58,1.58,0,0,0,3.15,0V93.5Z" fill="#a78bfa"/></svg>