<svg xmlns="http://www.w3.org/2000/svg" viewBox="0 0 250 250"><path d="M125,249a36.17,36.17,0,0,1-18.09-4.83l-76-43.91a36.28,36.28,0,0,1-18.09-31.33V81.09A36.28,36.28,0,0,1,30.86,49.76L106.91,5.85a36.29,36.29,0,0,1,36.18,0l76,43.91a36.28,36.28,0,0,1,18.09,31.33v87.82a36.28,36.28,0,0,1-18.09,31.33l-76,43.91A36.17,36.17,0,0,1,125,249ZM125,6.55a30.69,30.69,0,0,0-15.32,4.09L33.63,54.55A30.73,30.73,0,0,0,18.3,81.09v87.82a30.73,30.73,0,0,0,15.33,26.54l76.05,43.91a30.75,30.75,0,0,0,30.64,0l76.05-43.91a30.73,30.73,0,0,0,15.33-26.54V81.09a30.73,30.73,0,0,0-15.33-26.54L140.32,10.64A30.69,30.69,0,0,0,125,6.55Z" fill="#a78bfa"/><path d="M125,170.36A45.36,45.36,0,1,1,170.36,125,45.41,45.41,0,0,1,125,170.36Zm0-86.94A41.58,41.58,0,1,0,166.58,125,41.62,41.62,0,0,0,125,83.42Zm0,71.82A30.24,30.24,0,1,1,155.24,125,30.28,30.28,0,0,1,125,155.24Zm0-56.7A26.46,26.46,0,1,0,151.46,125,26.49,26.49,0,0,0,125,98.54Zm0,41.58A15.12,15.12,0,1,1,140.12,125,15.13,15.13,0,0,1,125,140.12Zm0-26.46A11.34,11.34,0,1,0,136.34,125,11.36,11.36,0,0,0,125,113.66Z" fill="#a78bfa"/></svg>