<svg xmlns="http://www.w3.org/2000/svg" viewBox="0 0 250 250"><path d="M125,249a36.17,36.17,0,0,1-18.09-4.83l-76-43.91a36.28,36.28,0,0,1-18.09-31.33V81.09A36.28,36.28,0,0,1,30.86,49.76L106.91,5.85a36.29,36.29,0,0,1,36.18,0l76,43.91a36.28,36.28,0,0,1,18.09,31.33v87.82a36.28,36.28,0,0,1-18.09,31.33l-76,43.91A36.17,36.17,0,0,1,125,249ZM125,6.55a30.69,30.69,0,0,0-15.32,4.09L33.63,54.55A30.73,30.73,0,0,0,18.3,81.09v87.82a30.73,30.73,0,0,0,15.33,26.54l76.05,43.91a30.75,30.75,0,0,0,30.64,0l76.05-43.91a30.73,30.73,0,0,0,15.33-26.54V81.09a30.73,30.73,0,0,0-15.33-26.54L140.32,10.64A30.69,30.69,0,0,0,125,6.55Z" fill="#a78bfa"/><path d="M150.06,70.33H99.94a20.52,20.52,0,0,0-20.5,20.5v68.34a20.52,20.52,0,0,0,20.5,20.5h50.12a20.52,20.52,0,0,0,20.5-20.5V90.83A20.52,20.52,0,0,0,150.06,70.33ZM166,159.17a16,16,0,0,1-15.95,16H99.94a16,16,0,0,1-16-16V90.83a16,16,0,0,1,16-16h50.12a16,16,0,0,1,15.95,16ZM136.39,88.55H113.61a11.4,11.4,0,0,0-11.39,11.39v54.68a6.85,6.85,0,0,0,6.83,6.83H141a6.85,6.85,0,0,0,6.83-6.83V99.94A11.4,11.4,0,0,0,136.39,88.55Zm-29.61,13.67h36.44V125H106.78Zm6.83-9.11h22.78a6.84,6.84,0,0,1,6.44,4.55H107.17A6.84,6.84,0,0,1,113.61,93.11ZM141,156.89h-31.9a2.27,2.27,0,0,1-2.27-2.27V129.56h36.44v25.06A2.27,2.27,0,0,1,141,156.89Z" fill="#a78bfa"/></svg>