<svg xmlns="http://www.w3.org/2000/svg" viewBox="0 0 250 250"><path d="M125,249a36.17,36.17,0,0,1-18.09-4.83l-76-43.91a36.28,36.28,0,0,1-18.09-31.33V81.09A36.28,36.28,0,0,1,30.86,49.76L106.91,5.85a36.29,36.29,0,0,1,36.18,0l76,43.91a36.28,36.28,0,0,1,18.09,31.33v87.82a36.28,36.28,0,0,1-18.09,31.33l-76,43.91A36.17,36.17,0,0,1,125,249ZM125,6.55a30.69,30.69,0,0,0-15.32,4.09L33.63,54.55A30.73,30.73,0,0,0,18.3,81.09v87.82a30.73,30.73,0,0,0,15.33,26.54l76.05,43.91a30.75,30.75,0,0,0,30.64,0l76.05-43.91a30.73,30.73,0,0,0,15.33-26.54V81.09a30.73,30.73,0,0,0-15.33-26.54L140.32,10.64A30.69,30.69,0,0,0,125,6.55Z" fill="#a78bfa"/><path d="M162.64,138.28H87.36a15.51,15.51,0,0,1-15.49-15.49V87.36A15.51,15.51,0,0,1,87.36,71.87h75.28a15.51,15.51,0,0,1,15.49,15.49v35.43A15.51,15.51,0,0,1,162.64,138.28Zm-75.28-62A11.07,11.07,0,0,0,76.29,87.36v35.43a11.07,11.07,0,0,0,11.07,11.07h75.28a11.07,11.07,0,0,0,11.07-11.07V87.36a11.07,11.07,0,0,0-11.07-11.07Zm2.22,101.84H80.72a8.87,8.87,0,0,1-8.85-8.85v-8.86a8.87,8.87,0,0,1,8.85-8.85h8.86a8.87,8.87,0,0,1,8.85,8.85v8.86A8.87,8.87,0,0,1,89.58,178.13ZM80.72,156a4.44,4.44,0,0,0-4.43,4.42v8.86a4.45,4.45,0,0,0,4.43,4.43h8.86A4.44,4.44,0,0,0,94,169.28v-8.86A4.43,4.43,0,0,0,89.58,156Zm88.56,22.13h-8.86a8.87,8.87,0,0,1-8.85-8.85v-8.86a8.87,8.87,0,0,1,8.85-8.85h8.86a8.87,8.87,0,0,1,8.85,8.85v8.86A8.87,8.87,0,0,1,169.28,178.13ZM160.42,156a4.43,4.43,0,0,0-4.42,4.42v8.86a4.44,4.44,0,0,0,4.42,4.43h8.86a4.45,4.45,0,0,0,4.43-4.43v-8.86a4.44,4.44,0,0,0-4.43-4.42Zm-31,22.13h-8.86a8.87,8.87,0,0,1-8.85-8.85v-8.86a8.87,8.87,0,0,1,8.85-8.85h8.86a8.87,8.87,0,0,1,8.85,8.85v8.86A8.87,8.87,0,0,1,129.43,178.13ZM120.57,156a4.44,4.44,0,0,0-4.43,4.42v8.86a4.45,4.45,0,0,0,4.43,4.43h8.86a4.45,4.45,0,0,0,4.43-4.43v-8.86a4.44,4.44,0,0,0-4.43-4.42Z" fill="#a78bfa"/></svg>