<svg xmlns="http://www.w3.org/2000/svg" viewBox="0 0 250 250"><path d="M125,249a36.17,36.17,0,0,1-18.09-4.83l-76-43.91a36.28,36.28,0,0,1-18.09-31.33V81.09A36.28,36.28,0,0,1,30.86,49.76L106.91,5.85a36.29,36.29,0,0,1,36.18,0l76,43.91a36.28,36.28,0,0,1,18.09,31.33v87.82a36.28,36.28,0,0,1-18.09,31.33l-76,43.91A36.17,36.17,0,0,1,125,249ZM125,6.55a30.69,30.69,0,0,0-15.32,4.09L33.63,54.55A30.73,30.73,0,0,0,18.3,81.09v87.82a30.73,30.73,0,0,0,15.33,26.54l76.05,43.91a30.75,30.75,0,0,0,30.64,0l76.05-43.91a30.73,30.73,0,0,0,15.33-26.54V81.09a30.73,30.73,0,0,0-15.33-26.54L140.32,10.64A30.69,30.69,0,0,0,125,6.55Z" fill="#a78bfa"/><path d="M158.15,96.21l-24-14.31a17.93,17.93,0,0,0-18.38,0l-24,14.31a17.89,17.89,0,0,0-8.68,15.27v27a17.89,17.89,0,0,0,8.68,15.27l24,14.31a17.91,17.91,0,0,0,18.39,0l24-14.32a17.87,17.87,0,0,0,8.68-15.26v-27a17.9,17.9,0,0,0-8.68-15.27ZM93.8,99.48l24-14.32a14.11,14.11,0,0,1,14.48,0l24,14.31a14,14,0,0,1,4,3.59L125,122.81,89.81,103.06A13.84,13.84,0,0,1,93.8,99.48Zm0,51a14.07,14.07,0,0,1-6.83-12v-27a13.77,13.77,0,0,1,1-5.1l35.15,19.73v40.6a14.33,14.33,0,0,1-5.34-1.87l-24-14.32Zm69.23-12a14.07,14.07,0,0,1-6.83,12l-24,14.31a14,14,0,0,1-5.34,1.88v-40.6l35.15-19.73a13.94,13.94,0,0,1,1,5.1v27Z" fill="#a78bfa"/></svg>