<svg xmlns="http://www.w3.org/2000/svg" viewBox="0 0 250 250"><path d="M125,249a36.17,36.17,0,0,1-18.09-4.83l-76-43.91a36.28,36.28,0,0,1-18.09-31.33V81.09A36.28,36.28,0,0,1,30.86,49.76L106.91,5.85a36.29,36.29,0,0,1,36.18,0l76,43.91a36.28,36.28,0,0,1,18.09,31.33v87.82a36.28,36.28,0,0,1-18.09,31.33l-76,43.91A36.17,36.17,0,0,1,125,249ZM125,6.55a30.69,30.69,0,0,0-15.32,4.09L33.63,54.55A30.73,30.73,0,0,0,18.3,81.09v87.82a30.73,30.73,0,0,0,15.33,26.54l76.05,43.91a30.75,30.75,0,0,0,30.64,0l76.05-43.91a30.73,30.73,0,0,0,15.33-26.54V81.09a30.73,30.73,0,0,0-15.33-26.54L140.32,10.64A30.69,30.69,0,0,0,125,6.55Z" fill="#a78bfa"/><path d="M155.22,128.56H141A12.45,12.45,0,0,0,128.56,141v5.33H116.11a12.45,12.45,0,0,1-12.44-12.44V121.44H109A12.45,12.45,0,0,0,121.44,109V94.78A12.46,12.46,0,0,0,109,82.33H94.78A12.47,12.47,0,0,0,82.33,94.78V109a12.46,12.46,0,0,0,12.45,12.44h5.33v12.45a16,16,0,0,0,16,16h12.45v5.33A12.46,12.46,0,0,0,141,167.67h14.22a12.47,12.47,0,0,0,12.45-12.45V141A12.46,12.46,0,0,0,155.22,128.56ZM85.89,109V94.78a8.89,8.89,0,0,1,8.89-8.89H109a8.89,8.89,0,0,1,8.89,8.89V109a8.89,8.89,0,0,1-8.89,8.89H94.78A8.89,8.89,0,0,1,85.89,109Zm78.22,46.22a8.89,8.89,0,0,1-8.89,8.89H141a8.89,8.89,0,0,1-8.89-8.89V141a8.89,8.89,0,0,1,8.89-8.89h14.22a8.89,8.89,0,0,1,8.89,8.89Z" fill="#a78bfa"/></svg>