<svg xmlns="http://www.w3.org/2000/svg" viewBox="0 0 250 250"><path d="M125,249a36.17,36.17,0,0,1-18.09-4.83l-76-43.91a36.28,36.28,0,0,1-18.09-31.33V81.09A36.28,36.28,0,0,1,30.86,49.76L106.91,5.85a36.29,36.29,0,0,1,36.18,0l76,43.91a36.28,36.28,0,0,1,18.09,31.33v87.82a36.28,36.28,0,0,1-18.09,31.33l-76,43.91A36.17,36.17,0,0,1,125,249ZM125,6.55a30.69,30.69,0,0,0-15.32,4.09L33.63,54.55A30.73,30.73,0,0,0,18.3,81.09v87.82a30.73,30.73,0,0,0,15.33,26.54l76.05,43.91a30.75,30.75,0,0,0,30.64,0l76.05-43.91a30.73,30.73,0,0,0,15.33-26.54V81.09a30.73,30.73,0,0,0-15.33-26.54L140.32,10.64A30.69,30.69,0,0,0,125,6.55Z" fill="#a78bfa"/><path d="M137.35,167.31a1.77,1.77,0,0,1-1.77-1.76v-6a12,12,0,0,1,6.15-10.68,35.28,35.28,0,0,0-.81-62.55,1.17,1.17,0,0,0-1.18.06,1.26,1.26,0,0,0-.63,1.1v23.35a14.11,14.11,0,1,1-28.22,0V87.5a1.3,1.3,0,0,0-.63-1.1,1.22,1.22,0,0,0-1.18-.06,35.29,35.29,0,0,0-.81,62.56,12,12,0,0,1,6.15,10.68v6a1.77,1.77,0,0,1-3.53,0v-6A8.51,8.51,0,0,0,106.6,152a38.81,38.81,0,0,1,.89-68.81,4.7,4.7,0,0,1,4.62.2,4.8,4.8,0,0,1,2.31,4.1v23.36a10.58,10.58,0,1,0,21.16,0V87.5a4.8,4.8,0,0,1,2.31-4.1,4.7,4.7,0,0,1,4.62-.2A38.81,38.81,0,0,1,143.4,152a8.5,8.5,0,0,0-4.29,7.57v6a1.76,1.76,0,0,1-1.76,1.76Z" fill="#a78bfa"/></svg>