<svg xmlns="http://www.w3.org/2000/svg" viewBox="0 0 250 250"><path d="M125,249a36.17,36.17,0,0,1-18.09-4.83l-76-43.91a36.28,36.28,0,0,1-18.09-31.33V81.09A36.28,36.28,0,0,1,30.86,49.76L106.91,5.85a36.29,36.29,0,0,1,36.18,0l76,43.91a36.28,36.28,0,0,1,18.09,31.33v87.82a36.28,36.28,0,0,1-18.09,31.33l-76,43.91A36.17,36.17,0,0,1,125,249ZM125,6.55a30.69,30.69,0,0,0-15.32,4.09L33.63,54.55A30.73,30.73,0,0,0,18.3,81.09v87.82a30.73,30.73,0,0,0,15.33,26.54l76.05,43.91a30.75,30.75,0,0,0,30.64,0l76.05-43.91a30.73,30.73,0,0,0,15.33-26.54V81.09a30.73,30.73,0,0,0-15.33-26.54L140.32,10.64A30.69,30.69,0,0,0,125,6.55Z" fill="#a78bfa"/><path d="M155.93,92.19A44.26,44.26,0,0,0,123.6,79.66c-23.9.81-43.61,20.92-44,44.81a43.2,43.2,0,0,0,12.53,31.17c9.36,9.49,22.54,14.72,37.11,14.72h24.07a17,17,0,0,0,17-17v-27a47.71,47.71,0,0,0-14.43-34.15Zm10.66,61.16a13.25,13.25,0,0,1-13.23,13.23H129.28c-13.55,0-25.77-4.82-34.41-13.59a39.44,39.44,0,0,1-11.45-28.46c.32-21.91,18.4-40.35,40.31-41.09.47,0,.93,0,1.4,0A40.28,40.28,0,0,1,153.3,94.9a43.94,43.94,0,0,1,13.29,31.44Z" fill="#a78bfa"/><path d="M136.34,106.09H113.66a9.46,9.46,0,0,0-9.45,9.45,1.89,1.89,0,1,0,3.78,0,5.68,5.68,0,0,1,5.67-5.67h9.45v34h-5.67a1.89,1.89,0,1,0,0,3.78h15.12a1.89,1.89,0,0,0,0-3.78h-5.67v-34h9.45a5.68,5.68,0,0,1,5.67,5.67,1.89,1.89,0,1,0,3.78,0A9.46,9.46,0,0,0,136.34,106.09Z" fill="#a78bfa"/></svg>