<svg id="Layer_1" data-name="Layer 1" xmlns="http://www.w3.org/2000/svg" xmlns:xlink="http://www.w3.org/1999/xlink" viewBox="0 0 168.11 366.88"><defs><style>.cls-1{fill:none;}.cls-2{clip-path:url(#clip-path);}.cls-3{fill:#f3bd73;}.cls-13,.cls-4{fill:#ece1c4;}.cls-12,.cls-4{opacity:0.7;}.cls-5{fill:url(#linear-gradient);}.cls-6{fill:#908652;}.cls-7{fill:#615e3e;}.cls-8{fill:#6f7a2e;}.cls-9{fill:#586724;}.cls-10{fill:#4a5e24;}.cls-11{fill:#e0c9bd;}.cls-14{fill:#8f7b8d;}.cls-15,.cls-18,.cls-19,.cls-21,.cls-22{fill:#7c647b;}.cls-16{fill:#ebe1c6;}.cls-17,.cls-18{opacity:0.5;}.cls-19{opacity:0.6;}.cls-20{opacity:0.2;}.cls-21{opacity:0.8;}.cls-22{opacity:0.3;}.cls-23{fill:#8c7888;}.cls-24{fill:#6b546d;}.cls-25{fill:#7b667c;}.cls-26{fill:#48515a;}.cls-27{fill:#7b6679;}.cls-28{fill:#473c4c;}.cls-29{fill:#a0a438;}.cls-30{fill:#8b8b29;}.cls-31{fill:#66793c;}.cls-32{fill:#a29c3c;}.cls-33{fill:#78883a;}.cls-34{fill:#354336;}.cls-35{fill:#002d33;}</style><clipPath id="clip-path"><rect class="cls-1" x="-0.13" width="168.24" height="369.64"/></clipPath><linearGradient id="linear-gradient" x1="93.1" y1="357.26" x2="93.1" y2="219.25" gradientUnits="userSpaceOnUse"><stop offset="0" stop-color="#8b983c"/><stop offset="1" stop-color="#7c753e"/></linearGradient></defs><g class="cls-2"><rect class="cls-3" x="-28.4" width="243" height="370.58"/><path class="cls-4" d="M214.6,31.75C185,41.76,44.24,89.19,36.27,87c-8.91-2.51,83.57-34.36,90.25-39.08C132.33,43.75,4.6,93.36-28.4,106.2v25.33c18.16-8.66,59.13-27.9,64.67-27.9s-43.37,26-64.67,37.22v5.22c30.4-12.78,92-38.9,96.26-42.44,5.66-4.73-28.35,6.61-25.72,5.57S57.47,99.85,62.25,98,83.93,85.67,87,87s16.81-11.68,24.62-13.57,19.6-8.5,32-9.45-68.15,34-65.16,35C81.05,99.73,189,56.06,214.6,45.67Z"/><rect class="cls-5" x="-28.11" y="217.38" width="242.41" height="153.1"/><path class="cls-6" d="M131,255.5c3.27,1,60.66.82,83.35,2.51v-5.66S126.79,254.24,131,255.5Z"/><path class="cls-6" d="M-28.11,220.79c29.33-.42,213.83-2.86,242.41,1.45v-4.86H-28.11Z"/><path class="cls-6" d="M69.37,239.75c4.16,1.89,75.48-2.52,82,0s-22.69,4.41-16.21,5.67c5,1,57.76-2.95,79.18-2.15V232.19C214.3,232.82,65.2,237.86,69.37,239.75Z"/><path class="cls-6" d="M67.51,279.45c-2.77-1.89-91.22,6.93-91.22,4.4s55.57-5,55.57-7.55c0-2.05-45.19,0-60-.76v14.14C1,287.14,69.71,280.94,67.51,279.45Z"/><path class="cls-6" d="M214.3,261c-39.4,2.68-196.4,4.54-242.41,5v7.62C2.57,270.79,182,267,214.3,269.38Z"/><path class="cls-7" d="M-28.11,225.4v10.83c13.71-1.27,51.77-4.17,55.22-4,4.17.16-9-1.57-10.76-3.46s53.48.47,56.61,0,69.8-2.37,72.58-3.31C148.1,224.55-4.25,225.28-28.11,225.4Z"/><path class="cls-7" d="M23.64,255.18c0-.46,21.53-1.41,16.67-2.83-4.13-1.2-53.61,1.68-68.42,2.58V261c20.82-.49,151.77-3.63,151.77-5.8C123.66,252.83,23.64,255.65,23.64,255.18Z"/><path class="cls-8" d="M-28.11,315.64v8.84l242.41-5.06V308.65c-43.19.55-158.2,1.83-163.45-.22-6.49-2.52,147.71-4.41,152.34-5s-147.25-3.78-148.64-5.67c-1.2-1.63,125-.45,159.75-.09v-7.8l-242.41,4.06v5.82c21.33.22,68.23.82,71.08,1.79,3.08,1.05-52.15,2.52-71.08,3v6.59c22.21.48,92,2.15,92.38,4.27C64.64,317.33,0,316.22-28.11,315.64Z"/><path class="cls-9" d="M214.3,310.68c-29.43,1.51-142.53,7.37-145,8.46s115-1.63,145-2.35Z"/><path class="cls-10" d="M17.5,318.73c-3,.09-10.41.85-12,0-1.33-.7-23.84-1.38-33.57-.67V321c18.28-.15,90.47-.81,90.07-1.59s-20.62-.89-24.55,0S20.51,318.64,17.5,318.73Z"/><path class="cls-9" d="M-28.11,308.28c21-.73,114.64-4,114.84-4.89s-32.87.63-35.65,0-13.43-1.26-14.36-.31c-.75.76-47.62,1.9-64.83,2.29Z"/><path class="cls-8" d="M-28.11,327.36v19.53C-7.7,344,95.55,338.51,99.7,337.09c4.63-1.57-108.82-1.26-110.44-2.51S111.51,330.8,115,329.85C118.19,329-9.28,327.56-28.11,327.36Z"/><path class="cls-8" d="M-28.11,355.6v3c18.26-.43,66.9-1.75,69.83-3.54C44.87,353.13-13.14,356.23-28.11,355.6Z"/><path class="cls-10" d="M214.3,341.94c-10.91-.29-46.74,1.85-49.77,2.4-3.48.63-79.42,1.26-81.27,2.55-1.68,1.17,110.42.22,131,0Z"/><path class="cls-11" d="M-28.11,229.67c34.22-.28,227.86-1.64,228.7,3.53.93,5.67-169-3.15-148.18,46.63C71.1,324.47,190,341.21,214.3,344.18V271.91c-18.46-2.64-89.52-13.08-88.07-17.39s70-7.18,88.07-11.8v-15.1l-242.41-2.57Z"/><g class="cls-12"><path class="cls-13" d="M105.67,153.08c5.57-4.24,84.3-38.47,108.93-49.13V61.44c-28,12.17-126.53,55.15-118,53.53,10-1.89,85.07-34.93,75.4-28.33S93.53,126.31,85,130.09,53,141.27,59,135.68s45.86-28.47,35.38-26.48c-8.13,1.54-87.55,43.54-122.81,62.33v17.18l73.73-3.25s126.13-47,119.7-49.78S99.05,158.11,105.67,153.08Z"/></g><path class="cls-14" d="M214.61,162,207.23,154l-17-22.88s-10.2-11.44-13-15.46S162.7,93.4,161.78,92.79a56.89,56.89,0,0,1-5.88-6.19c-.93-1.24-9.59-7.42-11.75-7.73s-4.64,4-4.64,4S126.83,97.42,125.91,98a41,41,0,0,1-5.88,4c-3.4,1.86-14.53,17-14.53,17L81.07,93.71a36.74,36.74,0,0,0-2.17-6.18c-1.23-2.48-9.58-13.3-10.51-13.92s-5-7.42-6.8-8a6.51,6.51,0,0,0-3.71,0L45.82,79.8S33.76,90.93,28.5,97.42s-13.92,21-13.92,21c-1.54,1.24-17,11.13-20.1,13.61S-28.4,150.61-28.4,150.61v35.87h243Z"/><path class="cls-15" d="M117.63,130.4,126,118.65s3.09-6.89,4.33-6.38,7.11-8.77,7.11-8.77l1.86-3.09,1.47-.51s.07,4.95-.54,4.9-2.79,3.31-3.1,4.1-3.4,5.42-4,6.35c-.3.45-1.25,2-2.16,3.58s-1.9,3.22-1.9,3.22l-2.74,2.48s10.2-8.66,11.44-9.9,2.17-5.17,3.09-5.37,1.55,1,1.55,1S130.22,124.47,129,125.89s-4.59,6.51-5.83,8.45-3.71,5-3.71,5,16.08,10.36,17,12.46,16.38,6.73,17.93,7.66,8.63-8,10.5-9.58,2.8-18.55,3.72-19.48S160,96.87,157.49,88.45c-.71-.78-1.3-1.46-1.59-1.85-.82-1.1-7.73-6.09-10.78-7.41l-6.74,5h0s-1,4.16-2.8,6.32-6.81,8.35-8,9.59-5.26,4.94-5.88,5.87,14.23-13.39,14.23-13.39,3.71-3.31,4.94-4.54,4.88-4.22,4.88-4.22-.39,5.15-1.24,7-2.71,2.78-4.87,4-4.74,5.26-5.93,6.8-5.2,6.67-7.68,8.59-13.62,13.25-13.62,13.25l1.25,3.83Z"/><path class="cls-15" d="M57.88,74.54a15.73,15.73,0,0,0-4,3.29c-1.85,2.17-3.71,5.57-5.57,7.42s-5.25,5.88-5.25,5.88,12.37-8.55,12.68-8.29,4.63,1.8,4.63,1.8l3.33.72,1.62-6Z"/><path class="cls-15" d="M35.61,144.24a26.81,26.81,0,0,1-3.94,3.48,22.88,22.88,0,0,1-6.2,2.43c-1.84.35-9-8.51-9-8.51a21.34,21.34,0,0,0-3.64,4.26c-1.23,2.13-3.4,2.37-4.32,4.26s-2.79,5-2.79,5-4-1.55-6.18,0A67.35,67.35,0,0,0-7,160.4c-1.23,1.23-3.4,4-4.94,5.25s-4,3.1-4,3.1l-4.32-1.55L-28.4,174v12.48l52.34-2,31.85-8-7.12-19.79Z"/><path class="cls-15" d="M58.36,87.62S51.77,93,49.29,96.39s-5.25,6.8-6.18,8-4.64,6.49-4.64,6.49,9.9-9.89,11.44-10.2,8.45-2.79,8.45-2.79l5.14,2.59v5.14l-7.79-5.14s-6.11,5.76-6.42,7-1.23,1.54-2.47,3.4-3.71,4-5,5.57-6.49,7.11-6.49,7.11,8-6.19,9.58-6.8,3.39-1.24,4.48-1.55a10.83,10.83,0,0,0,3-2.17l3.32-3.91a28.31,28.31,0,0,0,.16,3.75c.22,1.73,2.16,4.75,2.16,4.75a4.12,4.12,0,0,0-3.17,1c-1.24,1.24-3.73,6.75-5.42,7.24s-8.81,7.91-8.81,7.91,7.73-3.09,6.5-2.47S45.89,134.11,45,135s-4.64,2.73-5.87,4.3-3.48,4.9-3.48,4.9,13,19.25,13.83,20.18S69.7,180.5,69.7,180.5s8.35-3.4,10.51-5.26,9.28-10.82,9.9-14.84S71.56,98.24,70.94,97.31,58.36,87.62,58.36,87.62Z"/><path class="cls-16" d="M214.61,162,207.23,154l-17-22.88s-10.2-11.44-13-15.46S162.7,93.4,161.78,92.79a56.89,56.89,0,0,1-5.88-6.19c-.82-1.1-7.73-6.09-10.78-7.41,1.46,2.25,2.93,4.53,3.36,5.24.93,1.55-2.78-.61-2.78-.61s1.23,3.4,2.16,5.25,1.86,4.64,4,7.11S159.3,107,159.3,107l1.86,5.26s-4-4.33-5.57-4.64-6.49-2.48-7.11-3.4-7.73-4.33-7.73-4.33,4.95,9.89,5.87,11.75.93,2.78,1.55,4.94,3.71,9.44,3.71,9.44l9.59,11.59s2.16,3.4,1.23,4-18.24-15.75-18.24-15.75,2.16,5.55,2.16,7.09,1.24,4,1.55,5,4.33,2.73,4.33,6.31c0,3.29,3.38,5.38,3.93,5.7l-25.89-14.79-25-16.08L81.07,93.71a36.74,36.74,0,0,0-2.17-6.18c-1.23-2.48-9.58-13.3-10.51-13.92s-5-7.42-6.8-8a7.7,7.7,0,0,0-.87-.2A8.5,8.5,0,0,0,60,69a10.57,10.57,0,0,0,1.85,5.57h-4s-1.24,1.24,0,2.16,4.33,8,5.87,8.66,6.19,6.81,6.19,6.81-9.59-4.33-10.83-4.64-2.64,1.85-1.78,2.78.54,2.48,1.16,4.33,5.38,5,5,5.88,6.44,6.8,6.44,6.8l-14.23-6.8a35.64,35.64,0,0,1,3.4,4.32l2.17,4.33s-4.33-.62-5.57,0-.31,1.55,0,2.79S56,116.29,57,116.9s5.56,4,5.56,4-5.87-1.23-5.56,0,.92,4.37,1.54,5,1.86,5.24,2.17,6.78,1.55,5.26,3.71,7.12,6.49,5.56,7.42,6.18,6.19,4.64,7.11,5.57-5.56,0-5.56,0l7.73,7.73-11.75-6.18,4,6.18s-6.19-2.17-6.81-1.86,3.41,2.79,4,5.88a35.25,35.25,0,0,0,2.17,6.49s-6.19-.62-7.42-2.16-11.44-6.19-13-7.42-9-9-9-9l-7.73-7s8,11.63,9,14.72.93,4.95,1.24,5.88-4.33-.93-8.66-2.48A18.53,18.53,0,0,1,27.57,154c-1.54-3.09-4-7.11-4-7.11l-7.11-5.26s6.49,11.13,7.11,14.23.62,8.65.93,10.51,4.33,6.5,4.33,6.5-7.11-4.33-9-5.26-10.2-5.88-10.2-5.88a15.57,15.57,0,0,1,2.47,6.19,19.69,19.69,0,0,0,2.78,7.42c.93,1.54,1.86,5,1.24,6.49s-14.23-4-15.46-3.4-29.07,5.88-29.07,5.88v2.16h243Z"/><g class="cls-17"><path class="cls-15" d="M156.91,108.33l4.25,3.94A38.13,38.13,0,0,0,156.91,108.33Z"/><path class="cls-18" d="M148.48,84.43c.93,1.55-2.78-.61-2.78-.61s1.23,3.4,2.16,5.25,1.86,4.64,4,7.11S159.3,107,159.3,107l1.86,5.26s4.4,7.62,6,8.24,7.11,7.42,7.73,8.35,5.26,5.2,5.26,5.2l4.64,5.28S174.22,125.15,173,123s-3.4-3.71-3.09-5.87,1.24-1.86-.31-3.72-2.47-4-4-4.49-4.32-3.86-4.32-3.86v-2.78l8,6.64,6.19,7.28s-11.13-13.92-12.68-15.46-4.64-5-5.57-5.26-2.78-3.4-3.71-4.64-2.47-1.15-2.78-3.2-1.55-2.37-.31-2.06,3.17,3.08,4.33,2.06,10.7,10.27,10.7,10.27h0a49.16,49.16,0,0,0-3.66-5.1,56.89,56.89,0,0,1-5.88-6.19c-.82-1.1-7.73-6.09-10.78-7.41C146.58,81.44,148.05,83.72,148.48,84.43Z"/><path class="cls-15" d="M145.61,143.76s13.46,11.07,14.7,11.69,9.89,8.35,11.13,9,4.95,6.49,6.18,7.42,4.95,4.95,7.11,5.87a73.38,73.38,0,0,1-6.18-9.58,19.73,19.73,0,0,0-5.87-7.39c-1.86-1.58-9-6.53-9-6.53s-5-5.25-5.26-6.18-4.64-8.69-4.64-8.69l1.22-3.73c-5-4.45-10.57-9.72-10.57-9.72s2.16,5.55,2.16,7.09,1.24,4,1.55,5,4.33,2.73,4.33,6.31c0,3.29,3.38,5.38,3.93,5.7l-10.82-6.18Z"/><path class="cls-19" d="M167.42,137.51c-2.47-1.85-6.8-5.25-7.42-7.11s-1.86-5-1.86-6.49-2.16-4.64-3.4-5.57a43.63,43.63,0,0,1-4.33-5s-2.2-1.51-4.49-3.16c.31.63.56,1.12.7,1.42.93,1.85.93,2.78,1.55,4.94s3.71,9.44,3.71,9.44l9.59,11.59s2.16,3.4,1.23,4l8.12,6.08a18.5,18.5,0,0,0,4.33,4.95c1.89,1.47,5.51,4,7.72,5.77-2.68-3.32-7.46-9.72-9-11.65C171.75,144,169.89,139.37,167.42,137.51Z"/></g><g class="cls-20"><path class="cls-18" d="M61.27,120l1.24.9-.12,0c2,1.61,6.23,4.85,6.69,5,.62.18,1.16,2.35,3.21,3.27s4.83,5.15,5.45,4.9,5.57,7.07,6.19,7.58,6.2,2.37,6.2,2.37l3.31,5.56,5.64,4.64s-5.41-6.18-5.64-8-4.88-9.89-4.88-9.89a5.3,5.3,0,0,1-2.47-.62,30.58,30.58,0,0,0-3.11-1.6s-3.07-5.51-3.38-6.44-5-6.19-5.46-6.5-14-9.37-14-9.37,1.1-.73-.56-2.76a9.69,9.69,0,0,0-3.85.18c-1.24.62-.31,1.55,0,2.79S56,116.29,57,116.9c.62.42,2.88,2.06,4.32,3.12Z"/><path class="cls-15" d="M72.4,78.4,77.31,85C76,83.11,74.1,80.59,72.4,78.4Z"/><path class="cls-21" d="M57.88,76.7c1.23.93,4.33,8,5.87,8.66s6.19,6.81,6.19,6.81,3.47,3,4.4,4.53,3.4,6.49,4.64,8,8.66,14.22,9.89,15.15,6.5,10.51,6.5,10.51-6.5-14.53-7.73-17-3.48-8.35-5-9.27a21.29,21.29,0,0,1-4.91-5.88c-.31-.93-1.85-7.11-1.85-7.11s-5.88-8.66-7.43-9.9-5.71-6.69-5.71-6.69h4.48L72.4,78.4a47.76,47.76,0,0,0-4-4.79c-.93-.62-5-7.42-6.8-8a7.7,7.7,0,0,0-.87-.2A8.5,8.5,0,0,0,60,69a10.57,10.57,0,0,0,1.85,5.57h-4S56.64,75.78,57.88,76.7Z"/><path class="cls-22" d="M61.27,93l5.34,2.79-7.5-8.24c-.78-.2-1.63.6-1.93,1.45Z"/></g><path class="cls-15" d="M-25.54,156.07c.93-1.24,19.79-17.63,22.57-19.79s11.75-6.5,11.75-6.5l8.35-9s4.64-4.63,5.88-5.56,6.18-10.82,6.49-11.75,5.88-10.82,5.88-10.82l9-9.84,5.56-4.39s4.58-8.88,5.88-9.28A34.22,34.22,0,0,0,60.23,67l1-1.47a6.79,6.79,0,0,0-3.39.08L45.82,79.8S33.76,90.93,28.5,97.42s-13.92,21-13.92,21c-1.54,1.24-17,11.13-20.1,13.61S-28.4,150.61-28.4,150.61v7.58A15.19,15.19,0,0,0-25.54,156.07Z"/><g class="cls-17"><path class="cls-22" d="M155.67,180.5s-4.95-5.57-6.19-6.81-4.33-5.25-5-5.56-15.39-9.94-15.39-9.94l7.12,5.87,2.47,3.76s10.51,9.89,8.66,9.89a35.1,35.1,0,0,1-6.79-1.23c-2.76-.62-7.13-5.88-8.67-6.81s-4.64-6.18-6.19-7.42a45.58,45.58,0,0,0-6.8-3.81,17.11,17.11,0,0,1-5-4.23c-1.23-1.55-16.08-12.57-16.08-12.57s13.92,16.28,14.52,17.89,8.67,9.84,9.29,10.76,4,5.26,5.26,7.42,0,3.1,0,4.64a16.69,16.69,0,0,0,1.35,4.13h32.49C158.67,184.16,155.67,180.5,155.67,180.5Z"/><path class="cls-15" d="M108.36,129.16,117,139.34l13,8.07s13.92,12.68,15.12,13.08,4.67,7,6.84,7,4.33,4,7.07,6.18c1.83,1.44,8.33,8.32,12.49,12.79h9.81s-8.65-12.17-10.2-12.79-7.73-4-10-3.71-6.73-7.11-8-5.92-8.73-12.26-8.73-12.26-8.58-5.94-10.13-6.55-12.68-6.5-14.23-7.43-18.55-18.46-18.55-18.46Z"/></g><path class="cls-23" d="M-28.4,204.74V167.18s11.89.55,15.78,1.09,5.94,2.45,8.23,2.45,6.4,1.09,7.78,1.09,10.81-2.18,11.81-3,4.88-4.08,6.71-4.9a35.61,35.61,0,0,0,5.26-3.26c1.6-1.09,5.49-3.27,7.78-3.54s5.56,1.64,6.78,2.72a53.64,53.64,0,0,0,7.17,4.36c2.06,1.09,6.86,3.81,8.23,3s4.35-2.45,5.49-3.27,2.74-3.8,5.26-3.8,6,2.17,6.63,2.72,5.72,4.35,8.24,5.44,5.71,4.08,7.31,4.63,2.29,0,4.35-1.37,3.2-2.17,5-3.26,4.12-3.54,6.18-3,8.23,2.72,9.6,3,2.75,1.09,3.66.27,4.12-3,5-3.81a48.93,48.93,0,0,0,5-5.44c.92-1.36,1.83-2.77,3.2-2.2s3,2.2,4.12,3a47.35,47.35,0,0,0,5.72,2.72,49.35,49.35,0,0,0,8,1.63c1.61,0,8.92-8.71,10.53-10.34s2.28-2.18,3.88-1.63,5,2.44,6.18,3a41.2,41.2,0,0,0,4.57,1.9c2.29.82,4.35.55,6.17,1.09s4.12-.27,5,.28,4.8,1.08,6.86,1.9,3.49,1.36,4.95,1.9,3.05-.54,4.88.55a38.29,38.29,0,0,1,6.41,5.44c.94,1.15,1.82,1.91,2.05,2.72s-80.73,17.87-80.73,17.87-32.7,15.61-33.85,15.61-50.09,4.62-51.46,3.8S-28.4,204.74-28.4,204.74Z"/><path class="cls-24" d="M94.41,211.09H-28.4V200.65s6.63,1.36,8.69,1.64,6.17-2.45,6.86-1.64,6.17-2.45,7.55-3,6.4-3.54,8-3.81,6.18,3.27,7.55,3.54a71.8,71.8,0,0,1,7.09,2.45c1.37.54,9.14-1.91,10.75-3.54s6.4-5.35,8.46-7.17,3.51-4.26,5.18-4.26,5.57,4.72,6.48,4.26,3.2,3.09,5.26,3.9,7.32,3.91,9.38,4.95,8.92,2.67,10.75,2.94,6.86,2.73,9.83,3.82S94.41,211.09,94.41,211.09Z"/><path class="cls-25" d="M214.6,168.35c-1.52.71-3.88,1.6-5.76,1.37-3.05-.36-18.3-1.09-21.35-2.18s-7.62.44-10.37,2.22-6.1,5-8.23,5H163.7c-1.52,0-6.09-1.45-7.62,0s-7.32,5.08-8.54,5.81-7.62,2.53-9.45,2.9-10.67-1.09-12.2,0-10.06,3.63-11,4-4,4.72-8.23,5.81S95.4,191.13,93,191.49s-11,.45-11.89,2-6,3.33-8.23,5.22c-4.27,3.63-12.51,3.63-14,4s-7.32.73-9.15,2.54-7.93,5.81-7.93,5.81H214.6Z"/><path class="cls-26" d="M70.24,187a2.14,2.14,0,0,0,.35.29C70.79,187.44,70.64,187.31,70.24,187Z"/><path class="cls-27" d="M45.28,173.19c-2.14,2.2-4.58.7-7.32,0s-5.19,2.15-8.85,3.77-9.75,7.09-8.53,7.91,2.74-1.18,4.27-1.54,4.26-1.09,5.49-2.87,4,.33,6.09,0,4.27-2.21,5.3-3.5,3.24.2,4.77,0a9.65,9.65,0,0,1,4.57,0c1.83.53,6.4,3.83,7.93,3.5,1.27-.27,9.28,5.15,11.24,6.57-1.25-1.25-3.12-5.28-4.23-6.57s-5.49-2.94-5.79-3.5a3.84,3.84,0,0,1,1.52-3.79c1.53-1.09-.3-1.82,0-2.91s2.14-3.26,3.05-3.08,1.22-3.45,3-5.26A8.22,8.22,0,0,1,70,160.5a7,7,0,0,0-2.14-.39c-2.52,0-4.12,3-5.26,3.8s-4.12,2.45-5.49,3.27a22.47,22.47,0,0,1-5.45,3.45C48.94,171.72,47.41,171,45.28,173.19Z"/><path class="cls-27" d="M131.57,160.11a7.36,7.36,0,0,1,2.47-1.8,8.19,8.19,0,0,0-1.9-1.22c-1.37-.57-2.28.84-3.2,2.2a48.93,48.93,0,0,1-5,5.44c-.91.82-4.12,3-5,3.81s-2.29,0-3.66-.27c-.58-.12-2-.57-3.63-1.1h0c.89.29,5.63,4.54,6.54,4.9s8.85,4.35,8.85,4.35-1.49,1.82-2.1-1.05-2.17-3.66-2.17-3.66,1.22-2.54,2.13-4.54S129.74,162.28,131.57,160.11Z"/><path class="cls-27" d="M21.91,163.91c-1.83.82-5.72,4.09-6.71,4.9s-10.44,3-11.81,3-5.49-1.09-7.78-1.09A5.46,5.46,0,0,1-6,170.44c4,1.56,5.55,3.27,6.46,3.13s8.92,1.77,10.75,1.23a14.53,14.53,0,0,0,5.49-3.27,41.42,41.42,0,0,1,3.73-3.26c1.67-1.36,2,0,3.36,0a7.83,7.83,0,0,0,4.57-2.45A22.89,22.89,0,0,0,30.64,162c.92-1.63,2.52-1.09,5-3.26a7,7,0,0,1,2-1.21,6.42,6.42,0,0,0-2.75-.43c-2.29.27-6.18,2.45-7.78,3.54A35.61,35.61,0,0,1,21.91,163.91Z"/><path class="cls-27" d="M143.29,163.2A35.15,35.15,0,0,0,145.9,166c.92.72,8.7,2.55,9.38,2.28s2.52-3,3.66-4.36.91-3,2.06-3.8,1.37-3.54,3.2-5.72a5.06,5.06,0,0,1,1.71-1.27,13.93,13.93,0,0,0-1.52-.63c-1.6-.55-2.29,0-3.88,1.63s-8.92,10.34-10.53,10.34A45.47,45.47,0,0,1,143.29,163.2Z"/><path class="cls-28" d="M214.6,202.81a7.71,7.71,0,0,1-1.9-1.67c-1.9-2.32-1.9-.35-2.67,0a25,25,0,0,1-5.33,1.55,4.36,4.36,0,0,1-3.82-1.55c-1.91-2.32-1.52-2.26-2.29-4.17s-2.92,1.53-2.92.38,0-3-3.18-5.34-2.29,2.29-3.81,2.67-2.67-.38-3.43-2.29-1.15-3.81-3.44-6.14-2.66,1.18-4.19,2.33a5.07,5.07,0,0,1-4.58.76c-1.52-.38-2.29.38-4.19,1.14s-.76,2.67-1.91,5.73,0,0-1.52,0a7.7,7.7,0,0,0-4.2,1.14c-1.15.76-.38,1.91-1.91,4.18s-1.14,1.93-3.05,3.07-1.91,3.05-2.67,1.91-.76-2.29-1.91-3.44-.76-3.81-1.14-6.48a22.38,22.38,0,0,0-1.91-5.72,15.77,15.77,0,0,0-.76,4.12,5.49,5.49,0,0,1-1.52,4.27c-1.15,1.14-1.15,4.2-1.15,4.2s-.76,3-1.91,2.67-.76-1.91-1.14-3.06a24.9,24.9,0,0,1-1.52-4.19c-.39-1.91-1.53-2.67-2.29-3.89s-.38-5.65-1.53-8.17-1.14,4.05-1.14,5.57-1.15,3.44-1.53,4.58a10.16,10.16,0,0,0,0,4.84c.38,2.17-.38,1.26-2.67.12s0,0,0-.12-.38-2.93-.76-4.46a4.65,4.65,0,0,0-1.14-2.36c-.39-.46-1.15-8.17-1.15-8.17s-.76,5.19-1.52,6.33a18.52,18.52,0,0,0-1.53,3.82s-.38,8-1.14,9.16-3.44.76-3.44-.38-1.9-1.91-2.29-3.94-3.81-1.41-5.33-4.08,0,0-1.15-2.74-2.29,0-2.29,0h-1.9s-1.53,3.51-4.58,4.65,0,0-1.14,2-1.15,2.16-2.29,2.16-1.91.76-3,1.52-.38,3.06-1.53,5.33-4.19-4.94-4.19-4.94l-.77-1.15c-.76-1.14-2.67-.76-4.19-.76s-2.67.38-4.2-2-5,1.65-5,1.65l-.77-1.65c-.76-1.64-1.14-1-.76-3.7S73.12,196.21,72,195s-2.67-1.07-5.72-3.36,0,0-1.15-1.15-2.67,1.15-3.81,1.15-1.53,2.29-2.86,3.36-.57,3.12-3.63,2.74-3.81,6.87-5,8.4-.77,3.05-2.67,4.56-1.15-4.18-1.53-6.09a15.3,15.3,0,0,0-1.52-5c-.77-1.14-2.29-4.58-1.53-7.25s-.76,2.67-1.52,4.2a14.84,14.84,0,0,0-1.53,5.09c-.38,2.41-.76,3.68-3.81,1s0,0-.39-1-.38-4-.76-6.69-1.52-4.89-2.29-7.56-2.28,4.2-2.28,4.2L28.5,197l-1.14,4.71a18.93,18.93,0,0,1-1.53,4.07c-.76,1.14-1.91-2.29-1.91-4.07s-1.52-1.28-4.57-3.18,0,0-1.14-1.15-2.29-.38-3.82-.38-2.29,2.67-3.82,1.91-2.28,1.52-4.19,3.24L5.62,205a3.2,3.2,0,0,1-2.29-2.86c-.38-2.48-1.53,1.72-4.19,1.72H-2c-1.14,0-1.53,1.91-1.91,3s-1.52,2.29-3,.38,0,0-.38-1.52a15.79,15.79,0,0,0-1.14-3.63c-.76-1.72-1.53-.19-3.44-1.33s0,0-1.52-.77-2.29-.38-2.29-.38L-16.5,197c-.76-2.67,0,0-1.53-2s-3.43.45-3.43.45L-23,195c-1.52-.46-1.9,0-1.9,0a5.25,5.25,0,0,1-3.44,3.89l-.07,0v18.7c69.77.11,180.91.22,243-.1Z"/><rect class="cls-29" x="-28.4" y="216.23" width="243" height="9.32"/><polygon class="cls-30" points="214.6 223.1 16.43 223.1 214.6 220.02 214.6 217.78 -28.4 218.27 -28.4 225.55 214.6 225.55 214.6 223.1"/><path class="cls-4" d="M-28.4,42.72c8.19-2.64,18-5.87,22.39-7.64,8.35-3.33,21.9-8,27.26-9.9S50.85,20.46,59,19.51,20.71,39.36,20.71,39.36s14.08-1,17,0S0,50.21-10.49,56c4.19-2.56,11.38-6.94,15-9,4.81-2.74-19.4,3-32.93,6.33V87C-16.83,82.51-.14,75.11,4.53,72.44,11.13,68.66,24.39,67.71,33,63s-13.33.94-6.07-4.73S149.14,27.07,154.6,20.93,58.41,44.09,62.25,38.41c3.08-4.55,110.27-24.34,152.35-32V0h-243Z"/><path class="cls-31" d="M-24.06,187.49a6.84,6.84,0,0,0,4.77,2.5s.43-4,2.17-1.81-.44,1.39,1.74,2.22,4.33,2.5,3.9,3.76-1.19,2.5.06,2.91a2.72,2.72,0,0,0,2.54,0c1.31-.41-1.73-.41,1.31-.41s.87-4.14,2.17-4.78a2.72,2.72,0,0,1,3,0c1.74,1,.29,1.28,1.74,1s-2.32-1.95,0-2.5-.29-1.39,2.32-.56,1.73,1.62,2.89,2.06.58-1.23,2-1.23a2.62,2.62,0,0,1,2.61,1.23c.86,1-2,2.11,0,2.94s3.47,2.63,4.63,2.57a2.87,2.87,0,0,1,2.6,2.44c.29,1.39,2,3.33,0,3.61s-3.47.83-2.6,1.94-.87,0,.86,1.12,1.36.55,2.71,2.5.76,2.78,1.63,3.61.58-1.11,2,0S26,216,26,217.34s-2,2.5,0,3.33,2-1.95,3.18,0,.58-.56,1.16,2-1.74,1.38.58,2.5,1.15-.56,2.89,0,4,.27,5.21,1.66-1.16-.55,1.15,1.39-.57,1.11,2.32,2,2,.83,3.18,2.22,2.61,0,3.19,0,2-5,3.76-3.61,2.31-2.78,3.18-3.89,1.16-5.56,2.89-4.73,4.92-.83,5.79,2.51,1.16,3,3.18,3.89,4.05,1.39,3.18,2.77.13,2.63.21,3.68,2.81,2.72,0,2.72a9.33,9.33,0,0,1-4.84-1.39L65,235.68a7.48,7.48,0,0,0,2.31,1.39c1.45.55,0-1.95,1.45.55s1.45.56,1.45,2.5-2,3.62.57,4.17,3.19.28,3.48,2.23-1.45,1.11-1.45,2.5-2,2.78,1.48,2.78,5.18-1.39,6.33,1.39-2.31,3.89,0,5,2.32-.28,4.63,1.67,2.9,3.61,2.6,4.44,0,2.5-1.73,2.5-3.47-1.94-3.18,0-.58,3.06,2,3.34,4.34-2.22,5.5,0,1.73,3.89,1.45,4.72-2,.56-1.74,1.39,2.31.56,3.18,1.4,0,1.94,0,2.78a1.57,1.57,0,0,1-2,1.39c-1.16-.28-1.16-2.23-1.16-.28s.58,0,0,1.94a11.09,11.09,0,0,1-2.6,3.89l2.6,2.78s3.47-1.11,5.5,1.39,2.6,3.34,4,3.62,2-2.23,2.89,0,2,3.33,1.45,4.72,2.89,0,5.21,0,4.63,1.11,4.91,2.78,1.45,3,3.19,2.78-.58-1.11,1.73-.28,3.77.83,4.05,2.22,1.16,1.67,2.61,1.95,6.07-7.51,7.81-6.12,3.18,5.58,4.34,6.13,1.16-.55,3.47,0,3.18.26,4.05,1.38-2.31,1.11.87,1.11,3.18-3.06,4.63,0,.87,4.45,2.6,5.56-2-5.28,3.19-7.23c0,0-3.77-2.5,0-2.78s2.89,1.39,3.76-.27-2.6-4.73,0-4.73,3.18-5.56,4.92-3.89.29,2.22,2.31,0,.58-5.56,1.74-5.28.29-3.89,2.6-1.95,3.19.84,5.21-.27.58-4.73,2.89-3.62,3.19,2.5,4.92,3.62,4.92-.84,6.08,1.11,0,3.61,2.31,4.72,6.66,4.45,6.95,7.51,0,5.27,2,6.11,2.32.28,3.76,1.94a1.93,1.93,0,0,1,2.32-2.22c2.6.28,2-.83,3.47-1.11s-2-.83,1.45-.28a3,3,0,0,0,1.5,0v60.88H-28.84V187.49S-26.23,185-24.06,187.49Z"/><path class="cls-32" d="M22.78,218c-3.18.69,0,0-.28-2.32s0,0-2.61-.57,0,0-2.14-.3-1.33-1.15-2.2-2,.58-2.31,1.84-3.81c1.34,1.94.76,2.78,1.63,3.61s.58-1.11,2,0a31.81,31.81,0,0,1,4.29,3.48A4.66,4.66,0,0,1,22.78,218Z"/><path class="cls-32" d="M16.42,203.44c-2,.28-3.47.83-2.6,1.94s-.87,0,.86,1.12a7.92,7.92,0,0,1,1.72,1.15c-.84-.11-2-.17-3.45-.33-3.52-.39,0,0-2.61,0s0,0-.58-1.16.87-1.15,0-2.89,0,0-2.89.29,0,0-1.45-.87,2-1.73,2-1.73,1.16-.87,0-3.74-2.31.55-3.76-.6,0,0-1.74-1.74,0,0-1.16.29-.86,1.74-1.73,2-1.45-1.73-2.31-3.18a12.57,12.57,0,0,0-2-2.25,2.8,2.8,0,0,1,2.83.12c1.74,1,.29,1.28,1.74,1s-2.32-1.95,0-2.5-.29-1.39,2.32-.56,1.73,1.62,2.89,2.06.58-1.23,2-1.23a2.62,2.62,0,0,1,2.61,1.23c.86,1-2,2.11,0,2.94s3.47,2.63,4.63,2.57a2.87,2.87,0,0,1,2.6,2.44C16.71,201.22,18.45,203.16,16.42,203.44Z"/><path class="cls-32" d="M64.45,222.62a7.7,7.7,0,0,0,1,2.73,5.93,5.93,0,0,1-1.9.78c-2.23.45-.58-1.74-2.89-2s0,1.45,0,2.89-1.45-.57-2.89-1.73-1.74,3.18-1.45,4.05-.58,3.76-2.89,3.18a14.39,14.39,0,0,0-2.22-.43c-2.22-.44-.39,2.46-.1,3.62s0,3.18-1.74,2.89-.57-2-2.6-2.32,0,4.06-2.6,5.21S43,240,41.55,238.57s.62-1.16-.25-2,.87-1.15,0-2.89-1.16.87-2.6,0,0,0-.29-.87.87-.86,0-2a4.25,4.25,0,0,0-2.32-1.45l-.28-1.49c-.29-1.5-.58-.83-2.32-.25s0,0-2-.58c-.75-.21-.59-.89-.1-1.66,1.66.65.81-.73,2.41-.21s4,.27,5.21,1.66-1.16-.55,1.15,1.39-.57,1.11,2.32,2,2,.83,3.18,2.22,2.61,0,3.19,0,2-5,3.76-3.61,2.31-2.78,3.18-3.89,1.16-5.56,2.89-4.73S63.58,219.28,64.45,222.62Z"/><path class="cls-33" d="M70.81,229.28c-.86,1.39.13,2.63.21,3.68s2.81,2.72,0,2.72a9.33,9.33,0,0,1-4.84-1.39L65,235.68a7.48,7.48,0,0,0,2.31,1.39c1.45.55,0-1.95,1.45.55s1.45.56,1.45,2.5-2,3.62.57,4.17,3.19.28,3.48,2.23-1.45,1.11-1.45,2.5-2,2.78,1.48,2.78,5.18-1.39,6.33,1.39-2.31,3.89,0,5,2.32-.28,4.63,1.67,2.9,3.61,2.6,4.44,0,2.5-1.73,2.5-3.47-1.94-3.18,0-.58,3.06,2,3.34,4.34-2.22,5.5,0,1.73,3.89,1.45,4.72-2,.56-1.74,1.39,2.31.56,3.18,1.4,0,1.94,0,2.78a1.57,1.57,0,0,1-2,1.39c-1.16-.28-1.16-2.23-1.16-.28s.58,0,0,1.94a11.09,11.09,0,0,1-2.6,3.89l2.6,2.78s3.47-1.11,5.5,1.39,2.6,3.34,4,3.62,2-2.23,2.89,0,2,3.33,1.45,4.72,2.89,0,5.21,0h.31c-1,1.46-.79,4.11-1.47,3.2-.87-1.16-2.31,1.45-4.34,1.74s-.58-2-1.45-3.76-2.6-1.16-4.92-1.74,0,0-1.15-1.74-2.61.29-3.48.87a1.82,1.82,0,0,1-2.6,0c-1.16-.87.87-1.44,0-2.6s-1.74,0-3.18,0-1.16-1.45-2-3.5-2.89-.22-2.89-.22c-1.45.62-2-.33-2.54,0s-3.83-.87-4.12-2.32,0-2-3.47-2,0,0-1.16-2,0,0-.28-.64-1.45-.8-4.06-.23,0,0-1.44-1.45-.58-1.73-.87-3.76,1.73.87,2.6,0-.29-3.47,0-5.49,3.77,0,4.63,0,1.74-1.74,1.16-3.18,3.18.28,4.92,0,2.31-1.16,2-3.14-1.74-.33-4.35,0,.29-.86,0-3.76,0,0-2.6-.87.58-1.15,0-1.44-1.74,2-3.72,2.6,1.12-2.6,0-3.47-2.36,2-5.25,1.45-.29-3.48-.29-3.48a8.65,8.65,0,0,0,.58-4c-.29-2-2,.29-3.76,0S60.4,253,61,251s0,0-.87-1.45,2-1.44,3.47-1.73,2.31-1.45,2.31-3.47,0,0-.74-.58-2.15-1.45-2.15-2,.87-2,.87-3.63-.58-1-1.74-1.87-1.73,1.16-2.6,1.74-2-.87-1.73-3.18,0,0,1.73-.29,0-1.45,0-2.9,1.45,0,2.31,0,2.32-.28,1.74-2,1.16,0,2,0,1.44,0,2-3.09C69.66,227.34,71.68,227.9,70.81,229.28Z"/><path class="cls-33" d="M173,295.57c-.29,1.45.87,2.89,0,4.92s-2-.58-2.9,0,.59,3.76,0,5.78-3.76,2-4.91,3.47,1.44,2.32,2.31,3.74-.58,1.76-4.25,1.19-1.24,1.15-.67,2.6,1.16,7.23,0,7.69-2-1.61-3.76-3.06-.86,2-2.31,2.89-1.45-1.73-2.9-4.34-2.31-1.15-4.34.58-2.31.29-4.34,0-.29-2.61-1.86-3.95-1.9-.39-1.9-.39-2,.87-3.47,0,1.16-2,0-4.63-1.74.29-2.89-.58-1.45-2.31-2.61-3.07,0,3.94-1.16,3.65a5.19,5.19,0,0,0-2.89-.29c-.86.29-.58,2.32-2.89,2.9s0,0-.58-1.45-1.16-1.45-2.31-1.74-1.74,1.74-1.74,1.74v-1.16c0-1.16-1.16-2.6-3.76-3.76s0,0-1.52,0,.6-3.07,0-3.45l0,0a2.44,2.44,0,0,0,2.07.61c1.73-.28-.58-1.11,1.73-.28s3.77.83,4.05,2.22,1.16,1.67,2.61,1.95,6.07-7.51,7.81-6.12,3.18,5.58,4.34,6.13,1.16-.55,3.47,0,3.18.26,4.05,1.38-2.31,1.11.87,1.11,3.18-3.06,4.63,0,.87,4.45,2.6,5.56-2-5.28,3.19-7.23c0,0-3.77-2.5,0-2.78s2.89,1.39,3.76-.27-2.6-4.73,0-4.73,3.18-5.56,4.92-3.89.29,2.22,2.31,0,.58-5.56,1.74-5.28.29-3.89,2.6-1.95a4,4,0,0,0,1.94,1A15.08,15.08,0,0,0,173,295.57Z"/><path class="cls-34" d="M-25.53,198.56c1.15,2.11-.87,2.69,0,3.55a9,9,0,0,0,2.6,2c1.16.58.58,1.16,1.45,2l.86.87s.29.46,0,2-.89,4.09.13,3.81.45,1.15,2.19,0,2.6-.59,3.47,0-1.45.59.87.59,1.74-1.45,1.74-2.32S-14,209.52-14.83,209s-2.89-1.68-2.6-2.55-.58-2,1.44-2,.71-.58,3.83-2,3.7-3.18,4.85-1.44.71,3.18,2.09,3.47,2.54-2.32,3.7,0A36.81,36.81,0,0,0,1.37,209a16,16,0,0,1,1.74,4.4l-3.47-.59s-3.47,0-2.61.59.87-.87.87.58-2.6-1.16-4.05,0-5.21,2-3.18,2.31,11.28-1.45,12.44,0,2.19,1.09,3,2,.49.82,2.23,1.73-.29-.82,1.73.91,2.95,1.74,5.24,3.47,1,2.6,2.1,4.05-3.29,1.45-4.15,0-2.32-4.34-3.48-3.18-2.15,0-3.67,0-3-2-3.85-1.74a36.26,36.26,0,0,1-4.34.58s-1.61-3.47-3.12-1.73S-5,225.73-3,226.51a13.69,13.69,0,0,1,4.34,3c.3.36-.58-1.38.3.36s2-.58.86,1.73-3.76.87-1.16,2.32,3.64,0,4.72,1.16.78-1.16,1.07,1.15,2.32,1.74,2.32,3.48-1.29,2.6-3.39,2a5.23,5.23,0,0,0-5,1.45c-.57.87-.29,1.45-2.6,1.74s-4.65-.29-5.22,1.44-5.2,1.45-5.48,3.18.28,2.61-.29,3.77-2.61,2.6-.87,2.6,6.05-.29,6.64-1.16,1.75-4.63,4.06-4.34,3.19.87,4.05,0,1.45-1.73,2.9-.58,3.47.87,4.63.87a19.72,19.72,0,0,0,4.34-.58c.86-.29,2.84-2.89,4.31-2s.58.29,2.76.87,3.63-1.16,2.77-1.74a22.37,22.37,0,0,0-5.69-1.45,25.84,25.84,0,0,1-3.57-.58c-1.45-.28-3.19-1.73-1.45-2s-1.16-2.32,1.15-2.89.2.29,3.87-1.16,3.59-2,5.94-1.16,2.35-3.76,0-2.31-5.26.28-5.94,0-1.06-1.45,0-1.74.16.29,2.92-.29,3.05-2,7.1.29,1.16.58,4.06,2.31,4.62.58,5.49,2.32-2.89,2,0,3.18,3.76.58,4.63,2.9,2.32,3.47,0,2.89a10.36,10.36,0,0,1-4.34-2.89s-3.18-4.92-4-2.9-2.89,2.61,0,3.76,3.18,1.45,4.34,3.19a5,5,0,0,0,5.3,2.6c2.8-.29,3.61-4.92,5.38-2.6s2.34,4.34,4.08,5.78c0,0,2.31-.87,2,1.45s1.74,2-.29,2.32-2.6-2.32-3.47-1.45,1.16,1.73-.87.87-2.89-4.34-3.76-2.61-2.6,2.65-1.45,3.21,5.79,5.88,6.66,7.41-.58,5.58,1.45,6.16,4.82,0,5.16,1.16.82,6,0,5-1.4-.83-2.27.12-2-.79-3.18-1.66-1.45-3.47-2.9-2.89-.35-.87-1.18-1.74,2-3.47,0-4-2.58-2.78-3.74-2.11-.57.78-2.31,0-3.47-1.82-2.89,0,2,2.11,2.89,3,2,2.6,1.45,3.76-.87,2.61.29,2.9,2.6.28,2.89,1.44a13.69,13.69,0,0,0,1.42,3.18c.61,1.16,1.47-.29,2.05,1.45s4.34,4.63,3.47,6.37-2,1.44-1.73,3.18,3.18,3.47,4.05,2.89,1.35-4.05,1.69-4.05a2,2,0,0,1,2.65.87c1.16,1.73,0,.58,2.6.87s3.18,1.38,3.76,2.43-2.31.46.58,1,3.76-.29,4.63,1.45.87,2.31,0,3.18-4,0-5.21,0-2.85.87-1.28,1.73,3.6,0,3.6,1.45,2.46.05,3.54,2.05,2.39,4.61,0,4.89a5.2,5.2,0,0,1-4.7-2.31c-.58-.87-1.12-4-2.44-2.58s-2.77,1.42-1.32,3.16,5.21,2.6,3.76,3.76-2.31,2.32-3.76,1.74-2.89-1.14-3.18.15,1.15,1.87.86,3-2,2.31.58,2.61,2.9-2,4.34,0,.87,2,.87,5.2v3.18s3.18,2.9,3.47,0-1.73-4.05-.57-4.91-1.16-4.35.28-4.35-.57-4,1.45-2.6.87,3.48,3.18,4.05,2.9-1.45,4.92,0,1.14,4.24,3.32,5.16,4.5-1.22,5.94,0,1.16-1.4,0-2.26-2.89-.58-3.76-1.74-1.45-3.76.29-3.18,4.63.57,5.79,2.31,0,2.9,2.6,2.9,3.47-1.27,4.92,2-2.61,4.68,0,5.84,3.47,4,2.6,4.33,7-.86,6.37-2-5.79-2.31-4.05-3.76,2.6-3.29.87-4.39a4.91,4.91,0,0,1-2.61-4c0-1.45-2.6-1.16-2.89-3.18s-3.47-2-.29-2,.29-2.89,3.18,0,5.56,2,5.82,1.45-1.43-3.18,1.15-2,4.49-.29,5.13,2,1.79,3.18,2.37,2.31-3.59-4.05-2.37-5.2.74-2,2.42-.58,2,4.62,3.42,4.92,2-.3,3.18,2.6,1.74,2.49,0,3.71-2-1.11-3.47-1.4-2.6,2.5-3.76,1.4,1-3.71-1.79-3.71-5.54.29-3.9,1.74,3.09-.11,2.8,2-1.27,4.1,1.1,3.81,2.66-1.73,5-.87-.29-1.73,2.32.87,6.07.29,6.94,1.45,3.76-.29,6.94,1.15.29-2.89,0-2.89-2.31,1.45-2.89-.29-2-2.42.29-3.23,3.54,1.39,4.09,0-.33-5.73,1.7-3.13,2.63,4.34,3.92,4.92,4.76.57,5.34,2.89,2.31,4.05,0,3.47-6.05-1.74-5.34-.58,3.16,2.1,1.36,2.65-5,1.4-3.26,2.85.14,0,3.26,1.45,2.24,4.34,3.69,4.05,2.63-1.45,1.46-3.19-2,0-1.17-1.73,1.73-3.19,3.47-1.74,2.31-.3,2.31-1.74-2-4,0-3.17,1.74,2.29,3.77,3.17,5.78,3.48,6.94,5.5-.29,3.77,2,4.35,2-1.74,2.32.57,2.6,1.74.29,2.32-4.92-.87-6.37-1.74-3.47-2.6-3.47-.86-1.16,1.71,1.16,2.73a3.57,3.57,0,0,1,2.31,3.05s-1.15,1.45,1.74,1.45,5.51-1.74,5.65,0,3.71,1.16,3.52,0-2.68-4.92,0-4.92,3.76-4,1.92-4.92-3.57.29-5-.87-4-3.47-1.15-3.76,3.29,1.74,4.25-.29-.2-5.49,2.84-5.78,3.32,1.44,4.48.86,1.16-2.89,0-3.76.29-3.18.87-2.89,1.44-1,2.31-1.21.6-2.56,3.2-3.42,1.16-3.19,0-2.61-2.91.58-3.78,1.74-2,2.89-3.18,2.32-1.45-2.32-2.6-1.74-4.23,2.89-4.14,0,0-2.32,1.92-3.47-1.35-2.61.44-4.05-1.69-4.75,2.36-4.4,4.91.34,6.94,2.08,0,0,3.49-1.15,6.06-2.32,5.77.28-.58,1.74,2.89,3.77,4.63,1.73,3.76,3.76-1.6,4.33-1.09,4.63,6.3.47,6,2.26.29,3.23-1.73,2.08S201.3,323,200.44,325s-1.45,3.23,0,3.52a10.87,10.87,0,0,1,4.63,1.49c2.6,1.4.86-.91,2.6,1.4s1.74.88,4.92,1.45a2.39,2.39,0,0,0,2.37-.68v9.52c-1.23.08-3.88,2.62-1.5,1.87a4.33,4.33,0,0,1,1.5-.17v26.21H-28.84V196.17A6.64,6.64,0,0,1-25.53,198.56Z"/><path class="cls-35" d="M-21.9,262.9c3.91.87,1.31,3,3.91.87s-1.73-1.3,2.61-2.17,2.6-3,4.33-.87,1.31,5.13,4.35,4.95,0-2.35,3-.18.44.87,3,2.17S2,269,6.09,269.84l4.13.87s3,2.17,1.74,0-1.74-6.16-3.48-5-6.94,2.78-4.77,0,2.6-3.65,4.34-3.21,1.95,2.95,4.23,3.21-.32.26,2.28.26a4.72,4.72,0,0,0-1.32-2.2c-.87-.58-2.32-1.73-2.32-1.73s-1.16-.87-2-1.45-2.16-3.49-2.81-1.74S2.82,261.14,3.4,260s1.61-2.89,2.69-2.89,2.23,1.16,2.81,0-.87-3.18.58-2.61.28-1.44,1.44.58,2.32,3.76,2.32,3.76,1.5-2.89,2-1.73-.61-.29.55,1.16,1.07-1.45,1.55-2,2.77-.29,2.92.58a.59.59,0,0,1,0,.14c.13-.39.52-.54,1.59-.14,2.31.87,4.24.56,3.42,2s-1.79,2.32,0,2.61.05-2.32,1.79.29-.87,3,0,4-1.26,1.25-1.79,1.25-1.11-2.32-2-2.61-4.07.69-3.05,1.36,2.47.67,3.05,2.11-.39,4.58,2,3.88,3.81-2,3.81.11-2,3,0,2.09.58-4.05,0-4.63-2.31,1.16-.58-.58.42-2.89,2.38-1.45.52,2.61,2.83,2.9,2.89-.29,3.47,1.73-.29-.29.58,2,.87,3.36,1.45,4.14,1.15,1.07,0,1.93-3.76,1.16-4.34,0-1.74-3-2.32-1.93-.87.86,0,2.7.87,3.58-.29,4.15-3.47-1.15-4,0,.58,2.9,0,3.76-1,1.74-2.94.87-7.21-1.59-5,.36a15,15,0,0,0,5,3.12c.92.29,3.23-2.13,4.1-2.22s-1-1.36,1.51,0,2.25,3.13,3.7,2.24,1.44-3.6,3.18-2.24.47.72,2.11,2.48a6.3,6.3,0,0,1,1.94,4.07c.29,1.45-1.16,3.77-2.31,3.48S37,297.88,35.81,299s-.58,3.47-.58,3.47a5.39,5.39,0,0,0-2.32,0c-1.16.29-.29-1.16-1.16.29s-2.31.92-2.89,2.05-3.28.27-3.52,1.42-3.42-.82-2.56,1.61,2.32-.7,4.35,0,.71,1.48,3.82.95,3.12-2.84,5.72-2.56,1.74.58,4,0,4.63-2.31,5.5,0-.92,1.41,2,2.73,4.37,2.19,4.37,3.64,3.47,8.1,2,7.81-2,0-2.89-1.15-3.24-3.19-3.5-1.74,2.05,0-.26,1.44-4.34-.27-5.21,1.46-.29,6.25.87,4.57,2.25-3.13,4.6-2.56,2.92,1.92,4.65,2.56,1.16-1.92,3.77.37,3.47,1.71,3.76,4.31,2,1.73,2.89,3.47,1.45,1.16,0,3.47-4.72-.86-5.54,0-3.43-.59-2.85.86,3.18,1.75,5.21,2.33,2.92,0,4.06,0,1.15-3.47,3.17-2.61,4,2,3.47.29a6.36,6.36,0,0,0-2.89-3.76c-1.45-.87-4.05.29-1.45-.87s2.23-.57,4.44,0,2.8-2,3.67-2.89-.58-3.18,1.73-2.61,2.61.29,4.63,1.16,3.19.29,4.63,1.45,2.61,4.61,2.61,5.2-.87,2-2,1.45-3.2,0-2.47.87-2.16.58.73.87,4.92,2.83,7.24,1.7,2.6-.9,2.6.29-1.45,2.06,0,2.35,4.63-.87,4.92,0-1.45,2.89,0,2.89,1.16-.28,2.6,0-1.44,3.76,0,2,0,2.6,1.74,2,5.5-.86,4.34-1.73-1.74-2-1.45-2.89.58-2.9-.87-2.9-3.76.87-4-.58-.57-3.18-1.73-2.89-4.63-.58-2.61-1.16a9.28,9.28,0,0,1,4.92,0c1.16.29,1.74-1.73,3.47-.29s2.37-.29,4.08-.86,5.18.86,5.18.86,2.61-3.49,4-2-1.73,2.32,0,4.06,2.9,2.6,3.77,2.31.86-1.73,0-2.89-.29-2-.58-3.48-4-1.15-2.9-2.31,2.75-1.73,4.13-.29a13.44,13.44,0,0,0,3.68,2.6c1.45.88-1.44-1.15,1.45.88s4.05,2.89,4.34,4.91.87,5.21,0,4.92-1.16-3.18-2-2.31-2.61,1.45-1.16,2.6.63,3,3.64,3.53.41,1.68,3,.52,0-1.73,0-3.76,2.61-3.18,1.16-4.34-6.08-3.76-3.18-3.47,1.45,1.16,3.62,1.45,4.8,1.15,5.22,3.18-3,2.89,0,4.34,3.89,1,4.18,3.1-3.76,2.68,0,3.56,2-9.26,4.63-8.4,2.31,1.74,3.47,2.32,3.18.58,2.89,1.44-3.18.87-2,1.74,3.81,2.71,2.05,2.95a8.39,8.39,0,0,1-3.79,0c-1.16-.35-2.6-2.66-1.16-.35s2.9,4.35,1.16,4.05-4.05-1.1-4.34,0a2.34,2.34,0,0,1-2.6,2c-1.74,0-3.24-3.47-4.66-2.89s-2.86-.58-3.44.58-.87-.58-2.61,0-.58-1.45-1.73.58-2.61,0-3.48,1.73-1.15.87-2.31,2.6-.58,3.48,1.16,2.9,4.05-1.74,6.36-2,9.26,2.25,10.71,2.14,5.21-.46,7.23,0,9.55-2.73,11.86-1.57a23,23,0,0,0,4.06,1.61v-1.61s-1.74-1.73-2.9-1.73-5.21,2-4.34,0,.29-2.9,2.32-2.9,1.15,2.32,2,0-.87-1.15.87-2.31-.29-.29,2-.29,3.66-3.18,5.3-1.74,3.66.58,3.08-.58-3.56-.86-2.64-1.73,2.64-2.61,4.38-1.74.29-2.89,0-3.76,0-2.89,2.61-1.45,3.49,3.76,4.35,4,4.33,1.45,4.33,3.47-2.59,1.74-4.33,1.74-4.07,1.16-2.62,1.74,4.34.29,5.5,1.15-.58,1.74,1.45,2.61,3.18.58,3.47,1.74,6.5-2.61,3.54-3.77-7-.28-5.28-1.73,2.6-1.45,3.47-2.6a2.4,2.4,0,0,0-.87-3.62c-1.44-.73-3.18-1.88-3.18-2.75s-1.15-2.6-2.31-2.32-3.16-.87-3.17-1.73a2,2,0,0,0-2-1.74c-1.16,0-2-2-3.76-1.45s-1.74,2-3.18,1.74-2.61-1.45-1.16-2.6-.58-3.76,2.31-2.9,1.16,2,2.9.87.58-2.32,3.47-1.44a20.35,20.35,0,0,0,4.63.86c1.74.29.29-3.47-.87-4.63s-3.45-1.07-2.3-2.56,1.43-2.36,3.17-1.49,1.16-2,3.18,0,2.31,2.61,2.6,4.34,1.45.56,3.19,2.31,4.63,3.19,2.89,4.06-4.2-.29-3.69,1.15,1.38,2.9,2.53,2.61,2-2.32,3.76-1.74.87-1.44,0-3.47-4-4.92-2-4.63,2.89,0,4.63,2,3.47.59,4,2.9-.87,2.6-1.45,3.47.87,3.48,0,3.77-3.18-.59-4.34-.59-2.6,1.16-1.44,2,1.73.29,4.63,1.16,1.13,1.73,2.73,2.75c.73.45,1.77,1.35,2.82,2.06v16.89H-28.84V267.05C-27,264.9-24.2,262.39-21.9,262.9Z"/><path class="cls-35" d="M20.33,258.31a2.18,2.18,0,0,1,0,.51C20.22,259.47,20.29,259,20.33,258.31Z"/></g></svg>