<svg id="Layer_1" data-name="Layer 1" xmlns="http://www.w3.org/2000/svg" viewBox="0 0 180 108.71"><defs><style>.cls-1{fill:#ea7631;}.cls-2{fill:#b85625;}.cls-3{fill:#ab491a;}.cls-4{fill:#f98043;}</style></defs><path class="cls-1" d="M179.2,108.71,180,97s-.81-9.32-3.65-11-3.65-10.54-3.65-10.54V64.51s-2.63-4.05-5.67-5.27-6.08.82-6.08.82-4.87-6.49-8.11-6.49-5.68,7.3-5.68,7.3-1.62-3.65-3.24-3.25-3.65,4.46-3.65,4.46l-.81-3.24-3.25-5.27-3.64-.41s-.82,2.84-2.84,1.62l-2,2,2.43,6.08s-2.43-.81-2.84,2-4.46,9.73-4.46,9.73.41-1.62-7.29.81-11.76,28-11.76,28l-1.51,5.27Z"/><path class="cls-1" d="M0,108.71H122.59l-3.5-29-3-6.08c-4.26.61-5.48-4.86-5.48-4.86L96.06,63.7l-.69-8.89-4.86-4.87s0-14-2.44-15.81-9.73-1.22-9.73-1.22l-5.47,5.48-1.22-5.48s-7.9-3-11.55-2.43-7,12.67-7,12.67A25.86,25.86,0,0,0,53.41,39c0-2.44-6.69-7.3-6.69-7.3l-4.26,2.43-1.22-3.65-6.69-1.21-1.21,3A34.82,34.82,0,0,1,29,36.26c-2.43,1.82-2.41,11.94-2.41,11.94l-4.18,6.61L17,62.26,11.44,79.74,7.19,87.35l1.21,15.5Z"/><polygon class="cls-2" points="68.89 41.81 67.27 51.95 68.48 58.43 71.32 54.38 70.92 47.89 73.35 40.59 71.65 32.97 68.89 41.81"/><polygon class="cls-2" points="50.65 49.92 37.27 46.67 36.05 54.38 50.65 55.59 50.65 49.92"/><path class="cls-1" d="M95.45,54.58s6.28-5.07,11.55-4.66,13,1.22,13,1.22,3.24,4.86,4.46,5.27,2.83,10.94,2.83,10.94l3.25,1.22,7.3-2.43,6.08-7.71s-10.54-12.16-13.38-13.38-8.52-.4-8.52-.4l-8.92-3.25-16.21-2S92,36.94,88.35,36.94s-5.67,8.92-5.67,8.92Z"/><polygon class="cls-2" points="100.92 85.6 85.77 92.09 81.86 100.6 75.38 102.22 78.62 88.03 78.22 74.65 83.89 86.41 100.92 85.6"/><path class="cls-3" d="M44.56,67,49,61.68l6.49,1.62,3.65-2.43L53.89,54l6.89.41,2-7.7-3.25-4.06-1.62-6.08-1.62,8.92-.4,2.84c-1.63-1.62-2.44-9.53-2.44-9.53l-1.21,7.5-1.63,3.65v5.67Z"/><path class="cls-3" d="M33.62,63.3l4.05-6.89L46,55.19l-7.9-2.43V49.11l8.71.1s-4.66-2.53-4.66-7.4a65.43,65.43,0,0,1,.41-7.91l-7.3,9.94.4,6.08s0,5.67-1.62,6.89S33.62,63.3,33.62,63.3Z"/><path class="cls-3" d="M7,86.85s-.23-1.75,2.33-4.5,3.65-7.29,4.05-11.75,2.44-8.11,4.46-11.36,4.87-4.46,4.46-6.48,3.85-4.87,3.85-4.87-2.63-7.09.21-10.54a21.19,21.19,0,0,1,7.09-5.27s-1,2.84.21,4.46.81,4.86-1.63,5.68-2,4.05-.81,5.27a30.69,30.69,0,0,1,2.44,2.83L29.16,48.7,32.4,54S32,58,30,58.43a26.54,26.54,0,0,1-4.46.41l2.43,4.86-2.43,5.68,2,4.87-7.29-1.63-.81,6.9-4.87.4L17.4,84l5.67,1.21-3.47.16c-2,.09-3.1,1-2.72,2.49Z"/><polygon class="cls-2" points="38.85 108.71 63.07 108.71 68.89 103.44 76.19 100.6 75.99 76.48 60.78 82.76 50.65 81.95 42.94 86.21 39.29 92.9 40.91 97.76 38.48 102.63 38.85 108.71"/><path class="cls-3" d="M7,86.85l.71,9.7,11.76-2.39-2.59-6.43A93.34,93.34,0,0,0,7,86.85Z"/><path class="cls-3" d="M68.08,95.33s-9.73-1.22-15.41-5.27-6.49-4.87-6.49-4.87l2.44,7.71-2,5.27a31.61,31.61,0,0,1,8.11,3.65c3.65,2.43,4.46,5.27,6.49,1.21S68.08,95.33,68.08,95.33Z"/><polygon class="cls-3" points="81.05 34.11 78.34 32.91 75.95 35.35 81.05 34.11"/><path class="cls-3" d="M110.45,68.87s-7.76.87-11.15.92-12.57-2.44-12.57-2.44l12.16,4.06Z"/><polygon class="cls-3" points="89.97 74.65 89.97 84.38 91.19 77.89 89.97 74.65"/><polygon class="cls-3" points="60.78 82.76 72.54 91.68 61.19 79.11 50.65 81.95 60.78 82.76"/><path class="cls-3" d="M125.25,82.35l-8.11-6.89L124,70.19s.81,6.08,3.24,7.7a62.46,62.46,0,0,0,6.9,3.65S126.87,83.17,125.25,82.35Z"/><polygon class="cls-2" points="141.13 108.71 161.63 108.71 159.71 101.41 150.79 96.55 147.14 99.79 139.44 90.06 138.32 99.89 141.97 105.06 141.13 108.71"/><polygon class="cls-3" points="129.71 70.6 130.52 76.68 130.11 81.95 134.17 81.54 132.14 78.3 129.71 70.6"/><path class="cls-3" d="M146.33,63.1l-3.65,2.43.41,3.65L148,70l1.22,6.08,2,6.49V74l-1.63-7.3c2.44-2-.81-3.24-.81-3.24l3.65-2-5.27-.81Z"/><polygon class="cls-3" points="131.33 90.87 122.41 89.25 119.57 91.68 131.33 90.87"/><path class="cls-3" d="M139.44,86.41c1.21.4,13.38,1.62,13.38,1.62l3.65,1.62,7.7-2-10.54-2.84L149.57,86Z"/><path class="cls-2" d="M96.06,63.7l-.61-9.12L105,50.32l15,.82,4.46,5.27,2.83,10.94L124,70.19l.41,3.65,12.16-7.7,6.08-3.65s-4.86-7.71-6.49-8.92-10.54-2.43-13.38-3.25-7.7-4-15-4-17.23,3.45-17.23,3.45L88.35,61.27Z"/><path class="cls-3" d="M61.19,62.49s1.62,5.67,4,6.08,1.62-5.27,1.62-5.27l4.06,3.24,3.24.41a58.84,58.84,0,0,1,1.22,8.11c0,2.43-.81,9.73-.81,9.73l.81,8.11v9.32l4.86-13.38L78.62,77.08l-.4-13s-4.87-1.62-5.68-3.24-4.06-2.44-4.06-2.44L68.08,54l.81-12.16-6.08,4.87-2,7.7,3.65,3.24S63.62,62.49,61.19,62.49Z"/><polygon class="cls-3" points="114.05 103.29 109.44 96.95 107.41 92.09 103.35 89.25 113.49 77.49 109.13 87.73 116.33 93.3 114.05 103.29"/><polygon class="cls-3" points="134.98 77.08 134.98 64.92 130.92 64.92 132.14 56.81 132.95 61.68 135.79 62.89 137.41 60.46 138.22 62.89 142.68 62.49 136.6 66.14 134.98 77.08"/><polygon class="cls-3" points="161.63 108.71 169.64 108.71 162.95 95.73 150.79 96.55 159.71 101.41 161.63 108.71"/><polygon class="cls-3" points="146.33 101.82 151.6 105.47 151.81 108.51 154.17 108.71 158.5 108.71 154.03 104.25 147.14 99.79 139.44 90.06 141.47 96.14 146.33 101.82"/><polygon class="cls-3" points="134.57 105.87 122 102.63 118.76 94.92 117.95 103.03 115.01 108.66 134.98 108.71 134.57 105.87"/><polygon class="cls-2" points="129.64 108.71 115.42 105.67 112.68 100.15 107.56 92.06 92.91 94.74 89.97 100.16 82.66 108.71 129.64 108.71"/><path class="cls-3" d="M63.85,108.71a14.06,14.06,0,0,1,7.07-4.06c4.86-.81,10.94-4.05,10.94-4.05l5.68-8.51,13.38-6.49L90,88.84,84.7,91.27l-3.24,6.49-5.27,2.84s-6.49.41-9.33,3.24a23.33,23.33,0,0,0-3.62,4.87Z"/><path class="cls-3" d="M37.27,104.86a29.26,29.26,0,0,1,1.43,3.85h5.43l-3.62-2.64v-4.46L43.35,100l1.21-2.84-2.43-5.27L45,90.67l-2-4.46c-1.62,1.21-6.08,2.83-5.67,6.08s2.83,5.27,1.62,6.89S36.45,103.24,37.27,104.86Z"/><polygon class="cls-2" points="35.47 108.71 33.21 106.07 29.16 98.57 34.02 89.86 34.43 84.79 13.75 95.73 0 108.71 35.47 108.71"/><path class="cls-3" d="M8.48,102.63s2-3.25,4-3.25,4.06,3.25,4.06,3.25l6.48-3.25.81-3.24,4.06-3.65,6.49-7.7,1.62-5.68,5.27-5.68-6.08,3.65L32,84.38l-6.48,5.27L13.34,93.71,7.67,96.55Z"/><path class="cls-3" d="M25.68,108.71h9.79l-2.26-2.64s0-5.27-1.22-7.7,2-8.51,2-8.51l-6.89,8.51,2.43,5.68Z"/><polygon class="cls-3" points="71.65 32.91 74.16 35.73 73.35 42.62 71.73 45.86 72.54 51.54 71.32 54.38 79.43 52.76 80.65 48.3 81.31 47.5 86.73 41 88.35 36.94 86.73 44.24 82.67 48.7 81.86 53.57 79.84 57.22 84.7 58.84 91.19 62.08 83.49 60.46 79.43 61.27 75.78 57.62 69.83 56.52 70.11 50.32 72.64 38.67 71.65 32.91"/><path class="cls-4" d="M160.93,60.06s1.62-1.93,6.08-.82a8.2,8.2,0,0,1,5.67,5.27l-5.16.71v8.52l-3.05-9.43-3-1.21-1.21,4.25L161.43,71l-4-5.17Z"/><path class="cls-4" d="M176.33,86s4,1.32,3.65,11-.78,11.76-.78,11.76h-5.6l2.13-6.39-3.65-8.82-7.91-2.12,8.21.3,4,5.47V91.07l-5.77-5.17V79.21l2.73,6.08Z"/><polygon class="cls-4" points="98.89 71.41 110.45 68.87 101.83 73.44 101.53 80.43 98.89 71.41"/><polygon class="cls-4" points="90.58 49.72 104.87 46.37 90.28 46.67 90.58 49.72"/><polygon class="cls-4" points="72.54 91.68 61.19 79.11 64.43 77.39 72.54 91.68"/><polygon class="cls-4" points="49.02 61.68 55.51 63.3 48.31 65.22 49.02 61.68"/><polygon class="cls-4" points="71.65 32.91 68.89 41.81 62.81 46.67 59.56 42.62 57.94 36.54 61.09 41.2 65.95 39.07 71.65 32.91"/><polygon class="cls-4" points="113.49 77.49 109.13 87.73 116.33 93.3 111.56 86.51 113.49 77.49"/><polygon class="cls-4" points="107.56 92.06 92.91 94.74 92.41 91.98 107.56 92.06"/><polygon class="cls-4" points="139.44 90.06 147.14 99.79 150.79 96.55 139.44 90.06"/><polygon class="cls-4" points="119.57 91.68 131.33 90.87 122.81 94.92 122 102.63 118.76 94.92 119.57 91.68"/></svg>