<svg id="Layer_1" data-name="Layer 1" xmlns="http://www.w3.org/2000/svg" viewBox="0 0 180 108.71"><defs><style>.cls-1{fill:#2a935e;}.cls-2{fill:#3da573;}.cls-3{fill:#298253;}.cls-4{fill:#197241;}.cls-5{fill:#2e895b;}.cls-6{fill:#5aba93;}.cls-7{fill:#6bd1a6;}</style></defs><polygon class="cls-1" points="180 108.69 121.11 23.91 86.45 79.37 151.6 108.69 180 108.69"/><path class="cls-2" d="M121.15,24l7,17.72s0,0,0,0l-5.79-1.26a0,0,0,0,0,0,0l14.16,19.7a0,0,0,0,1,0,0l-6.2.63s0,0,0,0l13.74,10.17h0l4.59,4.45v0L146.18,80v0l6.67,6.36h0l27.08,22.26s0,0,0,0L121.17,24S121.15,24,121.15,24Z"/><polygon class="cls-3" points="121.11 23.91 128.21 41.76 122.37 40.48 136.57 60.24 130.3 60.88 125.71 72.36 108.58 43.03 121.11 23.91"/><polygon class="cls-1" points="80.39 0 124.46 67.26 141.16 81.28 151.6 108.69 66.4 108.69 57.93 70.77 50.95 55.78 80.39 0"/><polygon class="cls-4" points="80.39 0 77.68 14.98 79.77 28.37 75.17 38.57 83.94 56.42 78.1 65.34 73.92 89.57 60.14 86.38 50.95 55.78 80.39 0"/><path class="cls-3" d="M56.38,66l8.35-19.76-2.5,23.59,4.59-5.1L66.4,75.54l5.39-13.91s0,0,0,0L71,88.93l-7.94,3.83L52.2,81.92Z"/><path class="cls-2" d="M77.73,108.71,75,94.91a19.08,19.08,0,0,0-4-8.7L60.56,74.27h0L44.27,41.76,23.67,83.37l-1.41.48L13,88.39.27,108.71Z"/><polygon class="cls-2" points="133.22 87.02 124.46 67.26 109.84 48.13 103.16 70.44 119.86 85.74 124.87 108.69 142.38 108.23 133.22 87.02"/><path class="cls-5" d="M23.39,82.56l14.2-27.42s-6.27,23.59-4.18,26.78S44.69,84.47,48,88.29s-.42,20.4-.42,20.4H0l13-21Z"/><path class="cls-6" d="M44.27,41.76,40.8,48.81a2.34,2.34,0,0,0-.18,1.32l1,6.85A1.71,1.71,0,0,0,42.19,58c5.28,4.22,10.45,6.2,11.27,12.4L54,74.23c.09.67.71.71.83.06l1.45-7.53a2.34,2.34,0,0,0-.17-1.42Z"/><path class="cls-2" d="M80.91.78,108.37,42.7a.89.89,0,0,1,.07.75L104,56.32a.67.67,0,0,1-.08.17l-8,11.67a.88.88,0,0,0-.06.82l1.07,2.47c.18.41,0,1-.32,1L93,72.9c-.32,0-.49.6-.32,1h0c.19.43,0,1-.35,1h-5a.41.41,0,0,0-.18,0L81.4,78.9c-.4.27-.78-.48-.49-1l4.58-8.49a1,1,0,0,0,.09-.54L84.05,57.19c-.06-.4.14-.77.41-.77h5.46c.32,0,.52-.52.37-1l-4.37-12.4c-.22-.63.3-1.26.65-.78l8,10.85c.36.49.88-.16.65-.8l-7-18.68a.49.49,0,0,0-.21-.27L81.61,29.5c-.42-.26-.31-1.22.14-1.25l8.64-.51a.42.42,0,0,1,.37.28l3.6,8c.24.54.8.25.77-.4l-.31-8.15a.71.71,0,0,0-.24-.54L85.2,20.08,78,15.21a.78.78,0,0,1-.23-.76L80.2,1.07C80.29.59,80.68.43,80.91.78Z"/><polygon class="cls-6" points="108.58 43.03 95.64 68.53 87.29 74.91 84.36 83.83 91.04 75.55 93.13 85.11 94.39 74.27 97.73 80.01 98.14 72.36 101.07 73.63 102.74 86.38 105.66 71.08 119.86 85.74 109.42 64.71 111.51 55.78 108.58 43.03"/><polygon class="cls-7" points="108.58 43.03 124.46 67.26 118.19 60.88 120.7 74.27 113.6 58.33 109.42 64.71 111.51 55.78 108.58 43.03"/><polygon class="cls-1" points="121.11 23.91 113.6 35.38 119.86 32.83 122.37 40.48 128.21 41.76 121.11 23.91"/><polygon class="cls-3" points="119.86 85.74 105.66 71.08 98.14 108.69 124.87 108.69 119.86 85.74"/><polygon class="cls-3" points="133.22 87.02 135.73 100.41 125.29 81.28 129.05 101.04 125.29 94.03 124.87 108.69 146.59 108.69 133.22 87.02"/><polygon class="cls-4" points="112.2 100.76 112.43 106.56 108.44 97.11 109.14 106.56 107.02 103.51 104.91 106.25 105.38 102.59 102.32 108.69 117.37 108.69 112.2 100.76"/><polygon class="cls-3" points="77.76 108.71 89.25 108.71 87.29 93.08 83.11 101.36 84.36 84.79 77.76 108.71"/><polygon class="cls-3" points="64.27 99.62 65.62 105.67 60.57 97.11 61.91 106.17 59.22 102.65 55.85 106.17 57.2 99.62 51.8 108.69 69.33 108.69 64.27 99.62"/><polygon class="cls-4" points="27.84 108.71 24.24 97.11 22.57 106.03 19.65 95.83 16.72 105.39 15.47 97.11 10.46 106.03 12.95 87.66 0 108.69 0.74 108.71 27.84 108.71"/></svg>