<svg id="Layer_1" data-name="Layer 1" xmlns="http://www.w3.org/2000/svg" viewBox="0 0 180 108.71"><defs><style>.cls-1{fill:#a6885a;}.cls-2{fill:#91734d;}.cls-3{fill:#8c704c;}.cls-4{fill:#ba9865;}.cls-5{fill:#92ac22;}.cls-6{fill:#879e1f;}.cls-7{fill:#778c1b;}.cls-8{fill:#8ca621;}</style></defs><path class="cls-1" d="M3.33,109s-2.13-12.75,0-16.26S5.47,70.94,6.18,69.57s-1.43-20.35,0-22.34,10.3-1,13.5-1.35c0,0,1.78-7.22,1.6-8.24s3.38-.82,9.42-1.39,15.8-.73,16.25-.81,2.74,9.32,2.49,11.79a89.69,89.69,0,0,0,10.06,0c3.91-.36,6.2,3.94,6.65,6.79a49.27,49.27,0,0,1,7.59-.77c1.47,0,5-16.42,5.84-19.53s2.31-11.5,8.35-11.77,13.87-1.64,17.07,0,2.84,7.91,2.84,8.45,6.75,1.27,10.31,1.22,1.62,4,4.33,6.83c1,1,11.31,1.61,12.38,4.38s1.68,10.81,3.64,15.56c.72,1.76,12.47,2.75,16.19,4.92,1.38.81,3.27,14.17,3.27,14.17s15.29-2.55,16.35.32.71,10.84,2.85,14.35S180,109,180,109Z"/><path class="cls-2" d="M18.38,57c-.63,3.1-2.24,6.4-1.92,8.92s2.64,15.57,3.22,23.43,1.06,16,1.06,16,2.36-16.51,2.68-21.86-3-5-2.52-9c1.28-11.41,2.53-28.66,4.4-32.13s23.24-1.73,23.24-1.73c-.25-1.13-.52-2.23-.77-3.13-.36-1.31-.67-2.2-.82-2.17-.45.08-10.2.23-16.25.81s-9.59.38-9.42,1.39-1.6,8.24-1.6,8.24S19,53.93,18.38,57Z"/><path class="cls-3" d="M10.05,97.08c-.26-2.2,1.15-8.64-.14-11.55C7.73,80.62,8.63,78.37,8.63,74.6s-2.45-5-2.45-5c-.71,1.37-.71,19.67-2.85,23.18s0,16.26,0,16.26H11.2S10.31,99.29,10.05,97.08Z"/><path class="cls-2" d="M51.52,70.53c.41-1.81-1.26-8.23,0-11.24,0,0,.21-4.83.21-6.5s6.29-3.55,8.38-3.35,6,4.54,6,4.54c-.45-2.85-2.74-7.15-6.65-6.79s-9.77-1.27-9.77-1.27c0,.84-1.19-5.18-1.19-5.18C47.89,43,47.11,56.08,47.11,57a111.33,111.33,0,0,0,1.16,12.54C49,74,48,80.46,47.53,82.7S51.1,72.34,51.52,70.53Z"/><path class="cls-2" d="M73.74,53.21s-.63,14.95.63,18.64A33.34,33.34,0,0,1,76,82.74c0,3.49,1.25,13,1.57,15.78s0,10.49,0,10.49l-10.28,0s-2.22-9,.1-12.42,2-11.8,2-15.49-3.06-6.89-2-13.31S66.15,54,66.15,54Z"/><path class="cls-2" d="M36.21,49.44s-2.6,7.12-2,9.22.54,4.82,1,7.34S34.49,73.34,34,76.06s2.22,15.1,2.22,15.1-.21-13.63,0-14.26-2.52-.21,1-1.47,5.24-1.88,5.24-1.88l-4.29-.42a18.61,18.61,0,0,0,0-4.62c-.32-2.3-1.16-4.51-1.37-6.66S36.21,49.44,36.21,49.44Z"/><path class="cls-2" d="M174.31,77.76c-1.06-2.87-16.35-.32-16.35-.32s-1.89-13.36-3.27-14.17c-3.72-2.17-15.47-3.16-16.19-4.92-2-4.75-2.58-12.79-3.64-15.56s-11.41-3.38-12.38-4.38c-2.71-2.81-.78-6.88-4.33-6.83s-10.31-.69-10.31-1.22c0,0-3.69,19.91-3.27,22.85s2.34,13.68,2.22,17.32-1.92,24.2-.6,20.63.36-16.61,2.51-19.31,3.84-3.73,3.84-6.79-4.73-7-3.84-14.27.48-13.83,1.74-15.36,7.71-1.8,7.84-.82,2.23-1.67,2.23,7.41-.42,5.92,0,12.33,3.35,12.23,3.35,17.5-.42,17,0,16.17,3.78-10.49,3.78-13.42-1.68-7-2.52-13.58a158.41,158.41,0,0,1-.84-16.86c0-1-2.1-4.93,3.36-2.14s5.87,1.56,5.87,7.42S136,61.75,136,63.77s7.44.15,10.85,1.29,6.12,3.2,6.24,6.79-3.05,5.73,0,9.27,4.3,2.7,4.3,6.9.42,10.48,0,12.58,2.52-2.9,3.36-6.69.84-10.13,2.09-11,5.88-.22,5.88-.22l2.46,6.55s2.15,5.06,3.41,9.23S180,109,180,109s-.71-13.39-2.84-16.9S175.38,80.63,174.31,77.76Z"/><path class="cls-2" d="M89.68,44.16S88,51.32,88,53.21s1.68,8.38,1.68,10.48.51,17.83,1.51,21a92.72,92.72,0,0,1,2.06,9.25s.2-6.9,0-12.79-1-10.3-1-14.07-1.4-8.6-1.65-12,1.18-5.84,0-7.72,3.74-8.1,3.74-8.1Z"/><path class="cls-2" d="M81.92,56.56s-1.47.52-1.47,5.29A92.69,92.69,0,0,0,81.92,74.6a47.78,47.78,0,0,1,0-8c.42-2.69-1.68-.91,0-4.74s3.57-8.85,2.73-8.64S81.92,56.56,81.92,56.56Z"/><path class="cls-2" d="M136,63.77a24.35,24.35,0,0,0,0,8.73c.84,5.24,1.89,9.22,1.89,12.16s-1.13,17.41-1.13,17.41,2.18,4.82,2.18,3.35-.84-5.87,0-8.6a55.43,55.43,0,0,0,1.47-12.09c0-3.21-.84-6.57-1.47-10.13s-1.47-7.21-.21-8,3.52-1.91,3.52-1.91Z"/><path class="cls-2" d="M48.54,40.74a46.4,46.4,0,0,1,.9,6.49A28.77,28.77,0,0,0,48.54,40.74Z"/><path class="cls-4" d="M38.21,42c-1.81-.06-4.94-1.32-7.45,0s-5,.91-5,4.06-1,10.21-1,13.07,1,3,2.31-2.12.42-8.19,1.89-9.05,2-.23,3.61-.75,0-1.57,0-2.2S33,44.56,35.25,44,39.68,42.08,38.21,42Z"/><path class="cls-4" d="M17.13,47.23c-3.06.7-5.51.17-7.24,2.21S7.53,50.52,7.37,53.2s-.15,16.21,1,14.16,0-4.78.63-8.21.74-5.63,2.25-6.73,5.14-2,5.93-3S18.8,46.84,17.13,47.23Z"/><path class="cls-4" d="M105.62,28.88c1.39-.46.42-4-2.52-4.4s-4-.84-7.34,0-4,11.87-2.51,10.13,1-1.73,2.72-4.25.74-3.16,3.1-3.16S104.36,29.3,105.62,28.88Z"/><path class="cls-4" d="M112.33,40.15c.84-1.62,1-2,4.19-3.3s2.94-1.66,2.73,2.42.63,6.19.1,10.17-.73,9.62-1.36,3.76-.21-10-.84-11.18S112.33,40.15,112.33,40.15Z"/><path class="cls-5" d="M3.33,109s-4.13.5-3.19-3.59,3.05-5.35,4.2-7.23,1.15-3.53,3.66,0a45.71,45.71,0,0,0,7.14,7.23s-.22.63,5.6,0,5.4-1,9.38-2.85,4.62-2.5,6.82-3.44,4.2-3.78,5.56-5,1.65-5,2.61-7.87A47,47,0,0,1,49,78.78s2.1,4.94,1.78,7.77,2.83,4.61,2.83,4.61-2.51,6.71,1.58,8.91,10.29,4.72,11,5.35S74.37,109,74.37,109Z"/><path class="cls-6" d="M6.79,100.81A5.91,5.91,0,0,0,4.34,104C3.7,106.05,2,109,4.34,109s62.9,0,62.9,0,1.05-.25-3.77-1.3-5.66-2.1-7.76-2.31-6.17-1.68-7.28-4.61.78-4.79.57-6.9S48.54,88,48.54,88s-.59,5.24-1.43,7.13a61.11,61.11,0,0,0-2.3,6.71c-.42,1.46-2.73,4.82-5,4.61s-10.48,1-10.48,1-3.36.21-8.6.21-8.18.42-10.48,0S6.53,104,6.79,103.32A7.56,7.56,0,0,0,6.79,100.81Z"/><path class="cls-5" d="M180,109s-.1-1.91-.26-3.59-4.08-.63-5.34,0-4.79-.39-6.64.28-5.32-.28-5.32-.28-3.8-14.53-4.32-11.51a14.36,14.36,0,0,1-3.22,7.34c-1.58,1.65-6,4.8-8,4.17s-1.52.63-7.91,0-9.23.63-11.12-2.2-6.56-2.36-8.31-2-5.84,5.11-9,4.17a16.57,16.57,0,0,0-9.65.28c-3.24,1-7,3.31-9.7,3.31s-10-3.59-10.74-4.53,1-4.68-1.2-6-1.5-7.18-2.75-4a113.56,113.56,0,0,0-3.27,10.93c-.12.63-3,1.94-3,1.94V109Z"/><path class="cls-6" d="M101.11,109s3.3-.6,5.66-.92,4.88,1.42,7.23,0a45.88,45.88,0,0,1,5.53-2.67,5.47,5.47,0,0,1,4.85.28c2.36,1.45,3.94,2.24,5.67,2.39s3.19,0,8.91,0,13.26-.31,13.26-.31l5-2.08,2.21-4.44a16.41,16.41,0,0,0,.78,3.88c.63,1.7-.31,1.85,3.62,2.17S180,109,180,109Z"/><path class="cls-7" d="M18.07,46a35.11,35.11,0,0,0-3.88.65,23.48,23.48,0,0,0-4.51,1.15,13.25,13.25,0,0,0-4,2.83s-.94-.33-1.25-2.1.1-2.19,1.26-2.82a7.56,7.56,0,0,1,4.51-1.47c2.41,0,2.3-.21,4.19.52S18.07,46,18.07,46Z"/><path class="cls-8" d="M47.79,37.16c2.36.08,1.52-2.12-1-2.54s-1.52-.82-4.54-1.54c-7.52-1.82-5.45-.63-10.91,0s-9.22.78-11.11,2.07-1.75,2.16-.86,6-.95,8.56.07,8.33a12.66,12.66,0,0,0,1.89-5.58c.42-3.57,1.21-4.48,2.89-5.11s9.64-1.26,11.32-1.89S45.7,37.09,47.79,37.16Z"/><path class="cls-7" d="M47.79,37.16c1.48.05,1.7-.79,1.05-1.54a6.75,6.75,0,0,0-1.19-.77s2.26,1.61-.41,1.29-1.49-.31-4.56-.55-2.91-1.49-5-.75-2.87,1.07-5.17,1.7-5,.47-7.18,1.1-3.22-.16-3.93,2.43-.31,6.1-1.69,5.81a.29.29,0,0,0-.18,0c-.24,2.08-.61,3.65,0,3.52a12.66,12.66,0,0,0,1.89-5.58c.42-3.57,1.21-4.48,2.89-5.11s9.64-1.26,11.32-1.89S45.7,37.09,47.79,37.16Z"/><path class="cls-8" d="M49.44,48.05S48,45.59,48.54,45s-.09-.91.92-1,.9.65,3.42.85A59.31,59.31,0,0,1,59.59,46s4.82,2.47,4.93,2.89.94,2.23,0,1.85-1.79-1.43-3.67-2-1.72-.95-4.22-.74S49.44,48.05,49.44,48.05Z"/><path class="cls-8" d="M73.74,53.21a10.63,10.63,0,0,1,.63-5.84c1.26-2.76,1.64-6.72,3.29-9.68S77.1,28.57,79,24.79s2.09-2.63,5.24-3.67A22.31,22.31,0,0,1,93,19.45c5-.21,8.38.41,10.06,0s4.82,1.67,5.45,2.72-.9,4.62-.9,4.62-1.4-3.57-4.34-4-6.71-.63-8,0-2.3-.21-2.93,2.52-.22,4.19-1.26,5.24-1.47,0-1.68-2.1.42-4-2.1-3.56-3.77-.21-3.77,2.51,1.26,1.64,0,4.7-2.31,4.11-2.73,6.42-.77,8.38-3.21,12.26S74.51,61,73.6,58.66,73.74,53.21,73.74,53.21Z"/><path class="cls-7" d="M107.65,26.79a3,3,0,0,0-.88-3.47,6.9,6.9,0,0,0-5.56-2c-3,0-4-.63-6.18.42s-3.69,1.78-3.84,2.83-.25,2.1-.88.74.52-2.52-2.83-1.89-4.2.21-4.61,3A11.34,11.34,0,0,1,81.4,31.4c-1.16,2.51-2.1,1.88-2,5.34a25.21,25.21,0,0,1-1.16,9c-.84,2.2-1.68,5.66-2.83,7.45s-.84,1.78-1.68,0c0,0-1,3.14-.14,5.45s1.61-4,4.06-7.87,2.79-10,3.21-12.26,1.47-3.36,2.73-6.42,0-2,0-4.7,1.26-2.09,3.77-2.51,1.89,1.46,2.1,3.56.63,3.15,1.68,2.1.63-2.52,1.26-5.24,1.67-1.89,2.93-2.52,5-.42,8,0S107.65,26.79,107.65,26.79Z"/><path class="cls-8" d="M107.81,28.34a15.28,15.28,0,0,1,7.45,0c3.62,1.12,6.45,1,6.92,2.69s-.78,3.15,1.73,5,6.92,2.59,6.92,2.59a6.51,6.51,0,0,1,4.82,2.84c1.63,2.66,1.6,4.75,2,5.75s-1,2.93-2,0-.26-3.74-2.93-5.15-6.92-1.4-9-1.87-2.05.84-2.84-1.86.79-4.43-4.08-5.37a44.32,44.32,0,0,0-9-.81Z"/><path class="cls-8" d="M137.28,55.3a6.1,6.1,0,0,0,0,2.52c.32,1.15-1.36.84,2.31,2.1A69.74,69.74,0,0,0,147,62.33a46.32,46.32,0,0,1,5.87,1.44c2.52.86,1.65,1.83,2.62,3.49s.27,2.75,1.14,2.42.12-2.11.54-4.1,1.47-1.79-.73-3.73-.63-1.09-6.61-3.19-6.92-3.15-8.7-3.36A21.12,21.12,0,0,0,137.28,55.3Z"/><path class="cls-8" d="M158,77.44s-.13,1.76,2.81,1.34,4-.86,6.92-.63,6.08-1,5.66,1.9.82,1.62,1.2,5.4a14.63,14.63,0,0,0,2.61,6.66c.54-.29.56-2.46-.09-7-.47-3.3.72-2.28-.47-5.9-.29-.88-.49-3.56-3.85-3.56s-6.48-.94-9.83.1S158,77.44,158,77.44Z"/><path class="cls-7" d="M173.35,80.05c-.42,2.93.82,1.62,1.2,5.4a14.63,14.63,0,0,0,2.61,6.66c.38-.21.5-1.4.3-3.69-1,2.25-1.27.5-1.8-1.64s-.63-3.38-1-5.82,0-1.65-.32-3.2-1.56-.49-5.34-.26a57.25,57.25,0,0,1-6.45,0c-2.91,0-3.06.63-4.4.56.25.46.91,1,2.65.72,2.93-.41,4-.86,6.92-.63S173.77,77.11,173.35,80.05Z"/></svg>