<?xml version="1.0" encoding="utf-8"?>
<!-- Generator: Adobe Illustrator 25.2.0, SVG Export Plug-In . SVG Version: 6.00 Build 0)  -->
<svg version="1.1" id="Layer_1" xmlns="http://www.w3.org/2000/svg" xmlns:xlink="http://www.w3.org/1999/xlink" x="0px" y="0px"
	 viewBox="0 0 500 335" style="enable-background:new 0 0 500 335;" xml:space="preserve">
<style type="text/css">
	.st0{fill:#9A2DE0;}
	.st1{fill:#7E2448;}
	.st2{fill:#AC3062;}
	.st3{fill:#38312D;}
	.st4{fill:#EE5C30;}
	.st5{fill:#F2844F;}
	.st6{fill:#4F3E37;}
	.st7{fill:#15100D;}
	.st8{fill:#FBBB9E;}
	.st9{fill:#C13E24;}
	.st10{fill:#DA4E33;}
	.st11{fill:#B95D38;}
	.st12{fill:#F85939;}
	.st13{fill:#150F0C;}
	.st14{fill:#CC492F;}
</style>
<path class="st0" d="M36.9,336c0-118,95.7-213.7,213.7-213.7S464.3,218,464.3,336"/>
<g>
	<g>
		<g>
			<g>
				<path class="st1" d="M253.4,23c4.5-1.3,9.2-1.9,13.7-1.1c1.8,0.3,3.5,1,5.3,1.6c1.3,0.5,2.7,1,4,1.5c1.8,0.6,3.4,1.6,5,2.7
					c1,0.6,1.9,1.5,2.9,2.3c0.8,0.8,1.3,1.8,1.9,2.7c0.6,1.1,1.1,2.4,1.6,3.5c0.3,0,0.6,0,0.8,0c-0.8,0.5-1.8,0.6-2.6,0.8
					c-1.8,0.6-3.5,1.3-5.3,2.1c-2.1,0.8-4.2,1.8-6.1,2.9c-2.7,1.5-5.3,3.1-7.9,5c-1.9,1.5-3.9,2.9-5.6,4.7c-1.8,1.6-3.4,3.4-4.8,5.3
					c-1.8,2.1-3.2,4.7-4.7,7.1c-1.6,2.7-2.9,5.6-4,8.7c-0.8,2.6-1.8,5.2-2.4,7.7c-0.6,2.9-1.3,6-1.6,8.9c0,1-0.2,1.9-0.3,2.9
					c-0.2,1.9,0.2,3.9,0.3,5.8c0.2,2.7,0.8,5.5,1.6,8.1c0.6,1.9,1.3,3.9,2.4,5.5c0.6,1,1.1,2.1,1.8,3.2c1.3,2.1,2.9,3.9,4,6
					c1.3,1.9,2.3,4.2,2.9,6.4c0.8,2.7,1.5,5.3,1.6,8.2c0,1-0.2,1.9-0.2,2.9c-1.5,0.5-3.1,1-4.7,1.3c-1,0.3-2.1-0.2-3.1,0
					c-0.6,0-1.1,0-1.6-0.2c-1.6-0.5-3.1-1.1-4.7-1.3c-1.5-0.2-2.6,0.8-3.4,1.8c-1.6,1.3-3.9,1.9-6,1.8c-1.3,0-2.4-0.3-3.4-0.6
					c-1.9-0.6-3.4-1.8-5.2-2.7s-3.7-1.6-5.8-1.6c-1.8,0-3.4,0.6-5.2,1c-1.3,0.3-2.6,0.6-3.9,0.5c-3.1-0.3-5.6-1.9-7.9-4
					c-1.5-1.3-2.7-2.9-3.5-4.7c-0.6-1.3-0.8-2.7-1.5-4c-0.3-0.6-0.6-1.1-0.8-1.8c-0.3-0.6-1-1-1.5-1.5c-2.1-1.9-3.9-4.5-4-7.4
					c-0.2-1.6,0.5-3.1,0.8-4.7c0.5-1.9,1.6-3.5,2.4-5.3c1.3-2.7,0.5-5.8,1.6-8.4c0.8-1.8,2.3-3.4,4-4c1.6-0.6,3.4-0.8,4.8-1.9
					c1.3-1,1.9-2.4,2.1-3.9c0.3-1.8,0.3-3.5-0.5-5.2c-0.5-1.5-1.1-2.9-1.3-4.5c-0.2-1.5,0-3.1,0.3-4.5c0.5-2.9,1.3-5.8,2.9-8.2
					c1.5-2.1,3.2-3.9,5-5.6c1.1-1,1.6-2.3,2.3-3.5c1.1-2.1,2.3-4.2,4.2-5.6c1.3-1,2.7-1.6,4.2-1.9c1.1-0.2,2.4-0.2,3.4-0.6
					c1.5-0.5,2.7-1.3,3.9-2.3c1.3-1.3,2.3-3.1,3.1-4.7c0.6-1.5,1.3-2.9,2.1-4.2c0.6-1.1,1.6-2.3,2.4-3.2c2.1-3.2,5.2-6,8.7-7.6
					C249.8,24.5,251.6,23.5,253.4,23z"/>
				<path class="st2" d="M345.1,73c-1-3.2-2.3-6.3-4.2-9.2c0,0.3,0,0.5,0,0.8c-0.2-0.3-0.5-0.6-0.8-1c-0.2-0.2-0.5-0.3-0.6-0.5
					c-0.3-1.3-0.8-2.7-1.6-3.9c-0.2-0.3-0.6-0.8-0.3-1.3c-1.1-1.6-2.6-2.9-3.7-4.4c-1-1.1-2.3-2.1-3.2-3.4c-0.8-1-1.8-1.8-2.7-2.6
					c0,0-0.2,0-0.3,0c0-0.2-0.2-0.2-0.3-0.3c-0.8-1-1.8-1.8-2.7-2.4c-0.8-0.6-1.8-1.3-2.7-1.8c-2.3-1.3-4.8-2.4-7.3-3.5
					c-5.8-2.7-12.3-3.9-18.5-4c-1.5,0-3.1,0.2-4.5,0.2c-1.1,0-2.1,0.2-3.2,0.5c-0.8,0.5-1.8,0.6-2.6,0.8c-1.8,0.6-3.5,1.3-5.3,2.1
					c-2.1,0.8-4.2,1.8-6.1,2.9c-2.7,1.5-5.3,3.1-7.9,5c-1.9,1.5-3.9,2.9-5.6,4.7c-1.8,1.6-3.4,3.4-4.8,5.3c-1.8,2.1-3.2,4.7-4.7,7.1
					c-1.6,2.7-3.1,5.6-4,8.7c-1,2.6-1.8,5.2-2.4,7.7c-0.6,2.9-1.3,6-1.6,8.9c0,1-0.2,1.9-0.3,2.9c-0.2,1.9,0.2,3.9,0.3,5.8
					c0.2,2.7,0.8,5.5,1.6,8.1c0.6,1.9,1.3,3.9,2.4,5.5c0.6,1,1.1,2.1,1.8,3.2c1.3,2.1,2.7,3.9,4,6c1.3,1.9,2.3,4.2,2.9,6.4
					c0.8,2.7,1.5,5.3,1.6,8.2c0,1-0.2,1.9-0.2,2.9c2.4-0.8,4.8-1.8,6.9-3.4c3.2-2.7,5.6-6,8.2-9.2c2.7-3.2,6-5.8,9.7-7.6
					c3.1-1.3,6.1-2.4,9.2-3.7c6.3-2.7,12.1-6.3,17.9-10.2c4.8-3.4,9.8-6.8,15.2-9.4c1.6-0.8,3.4-1.3,5-1.9c1.3-0.5,2.4-1.1,3.5-1.6
					c1.1-0.5,2.1-1,3.2-1.5c1.5-0.8,3.1-1.3,4.2-2.4c-0.3,0.5-0.5,0.8-0.2,1.3c0.3,0,0.6,0,0.8,0c0.5-0.3,1.1,0,1.5-0.3
					c1-1,1.8-2.4,2.3-3.7c0.6-1.3,1-2.9,1.3-4.4c0-1,0-1.9,0-2.7C345.9,76.2,345.6,74.6,345.1,73z"/>
				<path class="st3" d="M177.8,334.4c0.2-0.5,0.3-0.8,0.6-1.3c0.6-1.6,1.3-3.4,1.9-4.8c2.1-4.5,4.2-8.9,6-13.4
					c0.6-1.8,1.5-3.4,2.3-5c0.6-1.5,1.3-2.9,1.9-4.4c1.6-2.9,2.7-6,4-9c0.6-1.1,1.1-2.4,1.8-3.5h0.2c0.3,1.3,0.8,2.6,1.3,3.7
					c1.1,2.6,2.3,4.8,3.4,7.4c1.6,3.5,3.2,7.3,4.8,10.8c0.6,1.3,1.1,2.4,1.6,3.7c0.8,2.3,1.8,4.7,2.7,6.9c0.6,1.3,0.6,2.9,1.1,4.4
					c0.3,1.6,0.6,3.2,1,4.7H310c0.3-1.1,0.6-2.1,1.1-3.2c0.6-1.9,1.1-3.9,1.9-5.6c0.6-1.6,1.1-3.4,1.9-5c0.5-1,1-1.9,1.3-2.7
					c0.6-1.5,1.5-2.7,2.4-4c-0.2,0-0.3,0-0.5,0c0.6-0.8,1.3-1.8,1.9-2.7c0.3-0.6,0.6-1.3,1.1-1.8c1-1.3,1.9-2.6,2.6-4
					c0.3-0.6,0.8-1.1,1.3-1.6c0.6-0.6,0.8-1.3,1.1-2.1c0.3-1.1,0.8-2.3,1.1-3.4c0.5-1.8,1-3.7,0.8-5.5c-0.2-1.9-0.3-3.9-1-5.6
					c-0.3-1-0.6-2.1-1.1-3.1c-1-1.8-1.9-3.4-2.9-5c-1.5-2.9-2.3-6-3.1-9.2c-0.3-1.3-0.8-2.7-1-4.2c0-1.9-0.3-3.9-0.3-5.8
					c0-4.2,0-8.5,0.6-12.7c-0.2,1.8,0.3,3.4,0.5,5.2c0.3,1.6,0,3.4,0,5c0,2.1-0.2,4.2,0.2,6.1c1-1.8,1.5-3.5,2.3-5.3
					c1.1-3.2,2.1-6.3,2.9-9.7c0,1.6-0.2,3.4-0.5,5c-0.3,1.5-0.3,3.1-1,4.5c-0.6,1.6-1.3,3.2-2.1,4.7c-0.5,0.8-1,1.5-1.3,2.3
					c-0.2,0.8,0.2,1.8,0.3,2.6c0.5,2.1,1.1,4.4,1.9,6.3c1,2.6,1.9,5,3.4,7.4c0.8,1.3,1.3,2.7,1.9,4c0.6,1.3,1,2.9,1.3,4.4
					c0.2,1.6,0.5,3.4,0.5,5c-0.2,1.5-0.5,2.9-1,4.4c-0.5,1.6-1.5,3.1-2.3,4.5c-0.3,0.8-0.8,1.5-1.5,2.1c-1.1,1.5-2.3,2.9-3.4,4.5
					c-0.8,1.1-1.1,2.6-1.9,3.5v0.2c0.2,0.2,0.2,0.5,0.3,0.6c0.6,2.7,1.5,5.3,2.1,7.9c0.5,1.6,0.8,3.4,1.1,5c0.5,2.3,1.1,4.5,1.6,6.8
					h31.1c0-0.3,0-0.6-0.2-1c-0.3-2.7-0.5-5.6-0.8-8.4c-0.5-4-0.8-8.2-1.5-12.3c-0.5-2.7-0.8-5.3-1.1-8.1c-0.3-3.9-0.8-7.7-1.8-11.4
					c-0.5-1.8-0.6-3.5-0.8-5.3c-0.5-2.9-0.8-5.8-1.6-8.5c-0.6-1.8-0.8-3.7-1.3-5.5c-0.6-3.1-1.3-6.3-2.1-9.4
					c-0.5-3.7-1.3-7.4-1.9-11c-0.6-3.7-1.8-7.4-2.7-11c-0.6-1.9-1.1-4-1.8-6c-0.3-1.1-0.8-2.1-1.3-3.2c0-0.2-0.5-1-0.6-1.3
					c-0.6-1.3-1.3-2.6-1.9-3.9h-0.2v-0.2c-0.6-1.5-1.5-2.9-2.3-4.2s-1.6-2.6-3.1-3.4c-0.8-0.6-1.6-1.5-2.4-2.1
					c-1.5-1.3-3.1-2.6-4.7-3.9c-2.3-1.8-4.8-3.2-7.1-5c-1.3-1-2.6-1.8-3.7-2.7c-1.5-1.1-2.7-2.4-4-3.7c-1-1-2.1-1.9-2.9-3.1
					c-0.6-0.6-1.1-1.5-1.8-2.3c-0.8-1-1.3-1.9-2.1-3.1c-1-1.3-1.6-3.1-2.4-4.5c-0.3-0.6-0.5-1.5-1-1.9c-0.3-1.1-0.6-2.3-1-3.4
					c-0.6-1.9-1-4-1.1-6.1c0-1.3,0-2.7-0.2-4.2c-0.2,0-0.3,0-0.5,0v-0.3v0.2c0,0,0,0.2-0.2,0.2c-0.6,1-1.9,1.3-3.1,1.8
					c-1.3,0.6-2.7,1.1-4,1.3c-2.1,0.3-4.4-0.3-6.4-0.2c-1.6,0-3.1-0.3-4.7-0.3c-1.3,0-2.4-0.5-3.7-0.5s-2.3-0.6-3.5-1
					c-1.3-0.3-2.4-0.6-3.5-1.1c-2.6-1-5.3-1.6-7.9-3.1c-0.8-0.3-1.5-1.1-2.3-1.5c-1.1-0.6-2.3-1.3-3.2-2.1c-0.6-0.6-1.3-1-1.9-1.6
					c-0.3-0.3-0.3-0.8-0.5-1.3c-1.3,1.1-1.5,2.7-2.1,4.2c-0.8,1.8-1.6,3.7-2.1,5.6c-0.3,1.1-1,2.1-1.3,3.2c-0.6,1.3-1,2.7-1.8,3.9
					c-1.9,3.1-3.9,6-6.3,8.7c-0.3,0.5-0.8,0.8-1.1,1.3l0,0c-0.5,0.5-0.8,1-1.3,1.5c-2.1,1.9-4.4,3.5-6.6,5.2
					c-2.7,1.9-5.3,3.5-8.1,5.3c-2.7,1.8-5.5,3.4-8.1,5.3c-1.8,1.3-3.7,2.1-5.5,3.2c-5.3,2.9-10.2,6.6-14.5,10.8
					c-1.9,1.8-3.9,3.5-5.5,5.5c-1,1.1-1.8,2.3-2.7,3.4c-1,1.5-1.9,2.9-2.7,4.5c-0.8,1.3-1.3,2.9-2.1,4.2c-0.8,1.3-1.6,2.4-2.3,3.7
					c-0.6,1.3-1.3,2.7-2.1,4c-0.6,1.3-1.3,2.4-1.9,3.7c-1.5,3.2-2.7,6.4-4.2,9.5c-0.8,1.5-1.6,3.1-2.1,4.7c-0.6,1.6-1,3.2-1.6,4.7
					c-1.1,2.9-2.3,5.6-3.4,8.5c-0.6,1.6-1,3.2-1.5,4.7c-0.6,2.1-1.3,4.2-2.1,6.3c-1.1,3.2-2.3,6.3-3.2,9.5c-0.8,3.1-1.9,6.1-2.7,9.4
					c-0.6,1.9-4,14.7-6.6,24.3L177.8,334.4L177.8,334.4z"/>
			</g>
			<g>
				<path class="st4" d="M342.9,88.8c-0.8-1.1-2.3-1.3-3.4-1.5c-1.1-0.3-2.1-0.6-3.2-0.8c0-0.2,0-0.5,0-0.6c0.5-1.5,0.6-3.1,0.8-4.7
					c0-1.3,0.3-2.4,0.2-3.7c-0.6,2.3-1.3,4.5-2.3,6.6c0,0.2,0,0.5-0.2,0.6c0,0,0,0.2-0.2,0.2c0,0.3-0.2,0.6-0.2,1
					c-1.6-0.5-3.4-1-5-1.6c-1.5-0.5-3.1-1.1-4.5-1.9c0-1.3-0.2-2.7-0.2-4c0-1.6-0.2-3.1,0-4.7c0-0.8,0-1.8,0.2-2.7
					c0,0.5-0.2,0.8-0.2,1.3c0,0.2,0,0.3-0.2,0.3c0,1.1-0.3,2.1-0.5,3.1c0,1.1-0.3,2.3-0.5,3.4c-0.2,0.6-0.2,1.5-0.6,2.3
					c0,0-0.2,0-0.3,0c-0.2-0.3-0.6-0.6-1-0.8c-4.2-2.3-8.5-4.2-13.1-5.6c0.3-2.4,0.3-4.7,0.6-7.1c0.3-1.5,0.5-3.1,0.8-4.7
					c-1.3,3.7-2.3,7.4-3.2,11.1c-3.5-1.1-7.3-1.9-10.8-2.7c1-3.4,1.9-6.8,3.2-10.2c0.6-1.6,1.1-3.4,2.1-4.8
					c-0.2,0.2-0.3,0.3-0.5,0.3c-1.8,2.7-3.2,5.6-4.5,8.7c-0.8,1.9-1.5,3.9-2.3,5.6c-1.3-0.3-2.6-0.6-4-0.6c-0.6,0-1.3-0.5-1.9-0.6
					c-0.8-0.2-1.6-0.6-2.4-0.8c0,0-0.3,0-0.5,0c1.1,0.6,2.1,1.5,3.2,2.3c0.6,0.5,1.1,1,1.8,1.3c0.5,0.2,1.1,0.5,1.5,0.6
					c3.1,2.3,6.4,4,10,5.5c2.7,1.3,5.5,2.9,8.2,4c2.9,1.1,5.6,2.7,8.5,4c1.3,0.6,2.7,1.1,4,1.8c1.3,0.6,2.7,1.3,4.2,1.9
					c2.7,1.6,5.6,3.1,8.5,4.7c2.1,1.1,3.9,2.9,5.6,4.4c0.6-2.4,1.3-4.8,1.8-7.4C342.7,91.2,342.5,89.9,342.9,88.8z"/>
				<path class="st5" d="M282.1,64.8c0.8-0.3,1.9-0.2,2.7-0.6c0.2,0,0.3,0,0.5,0c0,0.5,0,0.8,0,1.3c-0.3,1.1-0.3,2.1-0.5,3.4
					c0.3,0.2,0.6,0.3,1,0.5c0,0-0.3,0-0.5,0c1.1,0.6,2.1,1.5,3.2,2.3c0.6,0.5,1.1,1,1.8,1.3c0.5,0.2,1.1,0.5,1.5,0.6
					c3.1,2.3,6.4,4,10,5.5c2.7,1.3,5.5,2.9,8.2,4c2.9,1.1,5.6,2.7,8.5,4c1.3,0.6,2.7,1.1,4,1.8c1.3,0.6,2.7,1.3,4.2,1.9
					c2.7,1.6,5.6,3.1,8.5,4.7c2.1,1.1,3.9,2.9,5.6,4.4c-0.3,1.3-0.8,2.6-1.3,4c-0.8,2.3-1.3,4.5-2.3,6.6c-0.5,1.3-1,2.6-1.6,3.7
					c-0.6,1.3-1.3,2.7-1.9,4c-0.6,1.6-1.6,3.1-2.6,4.7c-1.3,2.4-2.6,5-4,7.4c-1,1.8-1.9,3.5-3.1,5.3c-0.5,0.6-1,1.5-1.3,2.3
					c-1.6-0.8-3.5-0.8-5.3-0.5c-2.3,0.5-4.4,1.5-6,3.4c-0.8,1-1.6,2.1-2.4,3.2c-1.1,1.8-1.6,3.9-1.3,6c0.2,1.5,0.8,2.7,1.3,4
					c0.2,0.6,0.6,1.3,1.1,1.8c-2.1,2.4-4.5,4.5-6.9,6.3c-2.1,1.5-4,3.2-6.3,4.4c-0.2,0.2-0.5,0.2-0.6,0.2c-0.6,0-1.3,0.2-1.8,0.6
					c-1.3,0.8-2.7,0.8-4.2,1c-1.3,0-2.4,0.5-3.7,0.2c-1.8-0.5-3.5-1-5.3-1.8c-1.1-0.6-2.3-1-3.5-1.3c-1-0.2-2.1-0.5-2.7-1.3
					c-2.7-2.6-5.8-4.7-8.1-7.7c-1.1-1.5-2.1-2.9-3.1-4.7c-0.3-0.6-0.8-1.3-1.3-1.9c-0.5-0.6-1.1-1.1-1.6-1.8
					c-0.8-1.3-1.3-2.7-1.9-4.2c-0.5-1.3-1-2.6-1.3-3.9c-0.2-0.6-1.1-0.5-1.3-1.1c-0.5-0.8-0.6-1.8-1-2.7c-0.3,0-0.5,0-0.8,0
					c0,0.5,0,1.1,0.2,1.6c0.5,1.6,1,3.4,1.8,4.8c1.3,2.7,2.7,5.6,3.7,8.7c0.6,1.9,1.6,3.7,2.4,5.6c0.5,1,0.8,1.9,1.3,2.9
					s0.8,1.9,1.1,2.9c0.5,1.9,1.1,3.9,1.8,5.8c0.5,1.3,0.8,2.6,1.3,3.9c0.3,0.8,0.5,1.6,0.8,2.4c0.2,0.5,0.5,1,0.6,1.5
					c-1.6-0.3-3.2-0.8-4.7-1.3c-1.5-0.6-3.1-1.1-4.7-1.6c-1.1-0.3-1.9-1-3.1-1.3c-0.8-0.3-1.5-1.1-2.3-1.5c-1.1-0.6-2.3-1.3-3.2-2.1
					c-0.6-0.6-1.3-1-1.9-1.6c-0.3-0.3-0.3-0.8-0.5-1.3c0-1.8,0.3-3.4,0.5-5.2c0.2-2.7,0.3-5.3,0.6-7.9c0-2.7,0.2-5.3,0.2-8.1
					c0.2-2.9,0-5.8-0.2-8.7c-0.2-1.5,0-3.1-0.2-4.5c0-2.4-0.5-4.7-0.6-7.1c-0.2-1.5-0.2-2.9-0.2-4.4c0-0.6-0.2-1.3,0-1.9
					c0.5-2.3,1-4.5,1.6-6.6c0.5-1.9,0.8-3.9,1.3-5.8c0.6-2.9,1.8-5.8,2.3-8.7c0.8-1.9,1.3-3.9,2.1-5.6c1.3-2.7,2.7-5.5,4.5-8.1
					c2.6-3.5,5.3-6.8,8.5-10c1.9-1.9,4.2-3.7,6.6-5.2C278.2,66.7,280.2,65.6,282.1,64.8z"/>
				<path class="st4" d="M238.1,76.6c2.1-0.8,4.4-0.8,6.4-0.5c1.9,0.5,3.7,1,5.3,1.9c1.1,0.6,2.4,1.3,3.1,2.4c0.3,1,0.3,2.1,0.5,3.1
					c0.2,1,0.5,1.9,0.6,3.1c0.2,1.6,0.5,3.2,0.6,4.8c0.2,1.8,0,3.4,0,5.2c-0.5,2.9-1.5,5.8-2.3,8.7c-0.5,1.9-1,3.9-1.3,5.8
					c-0.6,2.3-1.3,4.5-1.6,6.6c0-0.3-0.5-0.3-0.8-0.5c-1.5-0.3-2.7-0.8-4.2-1.3c-2.1-0.6-4.5-1.6-6.1-3.2c-1.3-1.1-2.6-2.1-3.4-3.5
					c-0.5-0.8-1.1-1.8-1.6-2.6c-0.8-1.3-1.5-2.7-1.9-4.4c-0.3-1-0.8-1.9-1.1-3.1c-0.3-1.3-0.5-2.6-0.6-3.9c-0.3-1.8-0.2-3.4,0-5.2
					c0.2-1.6,0.6-3.4,1-5c0.5-1.3,1-2.7,1.6-3.9c0.8-1.3,1.9-2.4,3.1-3.4C235.8,77.5,236.9,76.9,238.1,76.6z"/>
				<path class="st4" d="M275,99.5c-0.2-0.3,0.2-0.6,0.3-0.6c0.8,0,1.3,1,2.1,1.3c1,0.3,1.9,0.6,2.9,1c1.9,0.8,4.2,1.6,6,2.9
					c1,0.6,1.9,1.5,2.9,2.1c1,0.6,2.1,1.5,2.9,2.4c0.6,1,1.9,1.5,2.7,2.3c0.2,0.2,0.2,0.5,0.3,0.8c-1.5,0.3-3.1,0.5-4.5,0.2
					c-0.6-0.2-1.3-0.3-1.8-0.8c-0.3-0.6-0.8-1.1-1.3-1.8c-0.5-0.5-1.1-0.5-1.8-0.6c-1.5-0.3-3.1-0.3-4.5-0.8
					c-0.6-0.2-1.3-0.2-1.6-0.6c-0.6-0.6-1.5-1.3-1.9-2.1c-0.6-1-1.1-1.9-1.5-3.1C275.6,101.1,275.2,100.3,275,99.5z"/>
				<path class="st4" d="M316.6,118.8c0.5-0.2,1-0.5,1.5-0.2c0.3,0.2,0.6,0.6,1,0.8c1,0,1.9,0,2.9,0.2c0.2,0.5,0,0.8-0.3,1.3
					c0.5,0.5,1.1,1,1.6,1.3c0.5,0.3,1.1,0.5,1.3,1.1c0.5,0.8,1.3,1.5,1.5,2.4v0.3c-1-1-1.9-2.1-3.2-2.7c-1.1-0.3-2.3-0.3-3.4-0.5
					c-0.6,1.1-1.9,1.6-2.7,2.7c-1.6,2.1-3.1,4.4-4.4,6.6c-0.5,0.8-0.8,1.5-1,2.4c-0.3,1,0,1.9-0.5,2.9c-0.3,0.6-1.1,0.6-1.8,0.8
					c-1.5,0.3-3.1,0.8-4.5,1.1c-0.3,0-0.8,0.2-1.1,0c0-0.6,0.8-0.8,1.3-1c1.3-0.2,2.6-0.6,3.4-1.6c0-0.3,0-0.6,0-1.1
					c-0.3-1-0.5-1.9-1.1-2.7c-0.6-1-0.6-2.1-0.6-3.2c0.2-1,0-1.9,0.2-2.7c0.2-1.3,0.5-2.4,1-3.5c0.6-1.5,1.5-2.7,2.7-3.5
					c0.5-0.3,1.1-0.3,1.6-0.5c1.1-0.2,2.3-0.5,3.4-0.5C315.6,118.8,316.1,119,316.6,118.8z"/>
				<path class="st4" d="M269.8,120.3c0.8-0.2,1.6-0.3,2.6-0.2c0.8,0,1.6,0.2,2.4,0.3c1.3,0,2.4,0.5,3.5,0.8
					c1.3,0.5,2.1,1.3,3.1,2.1c1.1,1,1.6,2.4,2.3,3.7c0.5,1,1,2.1,1,3.2c0,0.8-0.2,1.6-0.2,2.4c0,1-0.3,1.9-0.8,2.9
					c-0.8,1.5-1.6,3.1-2.9,4.2c-1.3,1-2.3,1.9-3.9,2.4c-1,0.3-1.9,0-3.1,0c-1.8,0.2-3.4-0.5-5-1.1c-1.5-0.6-3.2-1.3-4-2.7
					c-0.6-0.8-0.3-1.9-1.1-2.7c-1-1.3-1.1-2.9-1.1-4.4c-0.2-1.5-0.2-2.9,0.3-4.4c0.2-0.6,0.6-1.3,1-1.8c0.2-0.5,0.3-1,0.6-1.5
					c0.6-0.8,1.5-1.5,2.4-1.9c0.6-0.3,1.3-0.8,1.9-1.3c0.3,2.4,0.6,4.7,1.3,7.1c0.3,1,0.6,1.9,1,2.7c0.2,0.6,0.3,1.3,1,1.5
					c-0.2-1.3-0.3-2.6-0.6-3.7c-0.3-1.5-0.3-3.1-0.8-4.7C270.2,122.7,269.8,121.4,269.8,120.3z"/>
				<path class="st4" d="M254.8,135.9c0.2,0,0.5,0,0.8,0c0.3,1,0.6,1.9,1,2.7c0.2,0.6,1.1,0.5,1.3,1.1c0.3,1.3,0.8,2.6,1.3,3.9
					c0.6,1.5,1.1,2.9,1.9,4.2c0.5,0.6,1.1,1.1,1.6,1.8s1,1.3,1.3,1.9c0.8,1.6,1.9,3.1,3.1,4.7c2.3,3.1,5.3,5.2,8.1,7.7
					c0.8,0.6,1.8,1,2.7,1.3c1.3,0.3,2.4,0.6,3.5,1.3c1.6,0.8,3.4,1.3,5.3,1.8c1.3,0.3,2.4-0.2,3.7-0.2c1.5-0.2,3.1-0.2,4.2-1
					c0.5-0.3,1.1-0.6,1.8-0.6c-0.6,0.3-0.6,1.1-0.8,1.6c-0.3,0.6-0.3,1.5-0.6,2.1c-0.3,1.5-0.5,3.1-0.6,4.5c0,0,0,0.2-0.2,0.2
					c-1,0.6-1.9,1.1-3.1,1.8c-1.3,0.6-2.7,1.1-4,1.3c-2.1,0.3-4.4-0.3-6.4-0.2c-1.6,0-3.1-0.3-4.7-0.3c-1.3,0-2.4-0.5-3.7-0.5
					s-2.3-0.6-3.5-1c-1.3-0.3-2.4-0.6-3.5-1.1c-2.6-1-5.3-1.6-7.9-3.1c1.1,0.3,1.9,0.8,3.1,1.3c1.6,0.5,3.1,1,4.7,1.6
					c1.5,0.6,3.1,1.1,4.7,1.3c-0.2-0.5-0.3-1-0.6-1.5c-0.3-0.8-0.5-1.6-0.8-2.4c-0.5-1.3-1-2.6-1.3-3.9c-0.6-1.9-1.3-3.9-1.8-5.8
					c-0.2-1-0.6-1.9-1.1-2.9c-0.5-1-0.8-1.9-1.3-2.9c-0.8-1.9-1.8-3.7-2.4-5.6c-1-3.1-2.4-6-3.7-8.7c-0.6-1.6-1.3-3.2-1.8-4.8
					C254.8,137,254.8,136.4,254.8,135.9z"/>
				<path class="st4" d="M317.6,137c1.8-0.3,3.7-0.3,5.3,0.5c-0.8,1.3-1.6,2.7-2.6,4.2c-3.1,4.7-6.3,9.5-10.2,13.9
					c-0.6-0.5-1-1.1-1.1-1.8c-0.5-1.3-1.1-2.7-1.3-4c-0.2-2.1,0.3-4.2,1.3-6c0.6-1.1,1.5-2.3,2.4-3.2
					C313.2,138.6,315.3,137.7,317.6,137z"/>
			</g>
			<g>
				<g>
					<path class="st6" d="M271.3,97.2c1.1-0.6,2.4-0.6,3.7-0.5c2.9,0,5.8,0.6,8.7,1.5c3.2,1,6.1,2.6,9,4.4c1.3,0.8,2.7,1.9,3.5,3.4
						c0.3,0.6,0.5,1.1,0.6,1.8c0.2-0.6,0.2-1.1,0.6-1.5c0.2,0.6,0,1.3,0,1.8c0.2,0,0.3,0,0.5,0c0,0.5-0.2,1-0.3,1.5
						c-0.5,0.8-1,1.8-1.6,2.6c-0.8-0.2-1.5-0.6-2.1-1.3c-2.4-2.4-5-4.7-8.1-6.3c-1.8-1-3.4-1.8-5.3-2.7c-2.9-1.3-6-2.6-8.7-3.9
						C271.6,97.5,271.4,97.4,271.3,97.2z"/>
					<path class="st7" d="M281.9,107.2c0.5-0.3,1.1-0.2,1.8,0c0.5,0.2,0.6,0.8,0.6,1.3c0.2,1.3-0.6,2.4-1.6,3.2
						c-0.6,0.6-1.8,0.6-2.4,0s-0.6-1.6-0.3-2.3C280.3,108.5,281,107.7,281.9,107.2z"/>
					<path class="st8" d="M276.8,111.1c0.6,0.5,1.1,1,1.8,1.5s1.3,1,1.9,1.5c0.5,0.3,1,0.5,1.3,1c-1-0.2-1.6-0.6-2.4-1.3
						c-0.8-0.6-1.6-1.1-2.3-1.8C276.9,111.9,276.9,111.4,276.8,111.1z"/>
					<path class="st6" d="M314.5,116.1c2.4-1.6,5.5-1.6,8.2-0.8c3.4,1,6.4,2.6,8.9,5.2c0.3,0.3,0.2,0.6,0.2,1.1c-0.5,0-0.8,0-1.3,0
						c-3.7-1.3-7.6-1.6-11.4-1.9c-2.3,0-4.4,0.2-6.6,0.3c-0.2-0.3-0.5-0.6-0.2-1.1c0.6-1.3,0.8-3.1,2.3-3.9
						C314.7,115.4,314.5,115.9,314.5,116.1z"/>
					<path class="st7" d="M319,123.5c0.6-0.3,1.5,0,1.9,0.5c0.3,0.5,0.2,1,0.2,1.5c-0.2,1-1,1.6-1.6,2.3c-0.5,0.5-1.3,0.6-1.9,0.2
						c-0.3-0.3-0.5-0.6-0.5-1.1C316.9,125.4,317.9,124.1,319,123.5z"/>
					<path class="st8" d="M314,127.5c0.3,0,0.6,0,0.8,0.2c1.1,0.8,2.3,1.6,3.5,1.9c0.6,0.2,1.3,0.2,1.8,0.5
						c-1.3,0.2-2.4-0.3-3.5-0.6C315.5,129.1,314.5,128.5,314,127.5z"/>
					<path class="st9" d="M286.4,142.2c0.2,0,0.3,0.2,0.5,0.3c1,0.6,1.8,1.8,3.1,2.1c0.2,0.3,0.3,0.6,0.6,1c0.3,0,0.6,0,0.8,0
						c0,0.2,0,0.5,0,0.6c0.5,0.3,1,0.6,1.3,1c0.2-0.3,0.5-0.6,0.6-1c0.2,0,0.3,0,0.5,0.2c-0.2,0.5-0.3,0.8-0.6,1.3
						c0.8,0.5,1.8,0.8,2.7,1.3c0.6-0.6,1.3-1.3,1.6-2.3c0.2,0,0.3,0,0.5,0c-0.2,1-0.8,1.8-1.5,2.4c0.5,0,1.1,0.5,1.5,0
						c0.6-0.6,1-1.6,1.8-2.1c0,1-0.6,1.8-1.3,2.6c0.6,0,1.5,0,1.9-0.6c0.3-0.6,0.6-1.1,1.3-1.6c-0.2,0.8-0.6,1.5-1,2.1
						c1.1-0.3,1.6-1.3,2.6-1.9c-0.2,0.5-0.5,1-0.6,1.5c-0.2,0.2-0.5,0.5-0.6,0.6c-1.1,0.6-2.6,0.5-3.9,0.3c-1.6,0-2.9-0.8-4.4-1.5
						c-2.6-1.3-4.4-3.5-6.8-5C286.6,143.1,286.4,142.7,286.4,142.2z"/>
					<path class="st10" d="M286.9,142.5c1.3,0,2.4,0.5,3.7,0.6c1.1,0.2,2.4,0.5,3.5,0.5c1.5,0.2,2.9,0.6,4.4,1.1
						c0,0,0.2,0.2,0.3,0.2c0.3,0.2,0.6,0.6,1,0.6s0.6-0.2,1-0.3c0,0,0.2,0,0.3,0c1,0,2.1,0.3,2.4,1.3c0.2,1-0.3,1.9-1.1,2.6
						c0.2-0.5,0.5-1,0.6-1.5c-1,0.6-1.5,1.6-2.6,1.9c0.3-0.6,0.8-1.3,1-2.1c-0.5,0.5-0.8,1-1.3,1.6s-1.3,0.5-1.9,0.6
						c0.6-0.6,1.3-1.5,1.3-2.6c-0.8,0.5-1.1,1.5-1.8,2.1c-0.5,0.5-1,0-1.5,0c0.6-0.6,1.3-1.5,1.5-2.4c-0.2,0-0.3,0-0.5,0
						c-0.5,0.8-1,1.6-1.6,2.3c-0.8-0.5-1.8-0.8-2.7-1.3c0.2-0.5,0.3-0.8,0.6-1.3c-0.2,0-0.3,0-0.5-0.2c-0.2,0.3-0.5,0.6-0.6,1
						c-0.5-0.3-1-0.6-1.3-1c0-0.2,0-0.5,0-0.6c-0.3,0-0.5,0.2-0.8,0c-0.3-0.2-0.5-0.6-0.6-1C288.7,144.3,287.9,143.3,286.9,142.5z"
						/>
					<g>
						<path class="st11" d="M281.9,106.5c2.1,0.6,4.4,1.5,6,3.2c0.5,0.5,0.6,1,1,1.5c0.2,0,0.3,0,0.5,0c-0.2-1-0.6-1.9-1.5-2.6
							c-1.6-1.6-3.9-2.7-6-3.1c-0.8,0-2.1,0.2-2.4,1.1C280.2,106.5,281,106.2,281.9,106.5z"/>
						<path class="st11" d="M307.9,122c-0.6,0.6-1,1.5-1.3,2.3c-0.5,1.1-0.8,2.3-1,3.5c0,1-0.2,2.1,0,3.1c0.3,1.5,1.1,2.9,1.6,4.4
							c0.2,0.5,0.3,1.3-0.2,1.8c-1.1,0.6-2.4,1.1-3.7,1.3c-0.5,0.2-1.1,0.2-1.5,0.6c0.2,0.3,0.5,0.5,0.8,0.5c1.3,0,2.4-0.6,3.5-1.1
							c0.8-0.2,1.6-0.6,1.9-1.3c0.5-0.6-0.2-1.5-0.3-2.3c-0.3-1.1-1-2.1-1.3-3.2c-0.6-3.2,0-6.6,1.9-9.4c0.5-0.5,0.6-1.3,0.8-1.8
							C308.8,120.6,308.4,121.2,307.9,122z"/>
						<path class="st11" d="M324.8,124.3c-1.1-0.8-2.4-1.5-3.9-1.9c-1.3-0.5-2.7-0.3-3.9,0c2.4,0.2,4.7,0.8,6.9,1.9
							c0.6,0.3,1,1,1.8,1.1C325.6,125.1,325.3,124.6,324.8,124.3z"/>
						<path class="st11" d="M301.1,135.2c-0.6,0-1.3,0.6-1.1,1.3c0.6,0.5,1.8,0,2.1-0.6C302.2,135.4,301.6,135.2,301.1,135.2z"/>
						<path class="st11" d="M298.7,139.6c-0.8,1.5-0.5,3.4-0.3,5.2c0,0,0.2,0.2,0.3,0.2c0-0.8-0.2-1.6-0.2-2.3
							C298.5,141.7,298.9,140.7,298.7,139.6z"/>
						<path class="st11" d="M300.8,139.9c-0.6,1.8-0.5,3.7,0,5.5c0,0,0.2,0,0.3,0c0-1.1-0.3-2.3-0.3-3.4
							C300.8,141.4,300.9,140.6,300.8,139.9z"/>
						<path class="st11" d="M289.3,167.8c-0.8,0.2-1.8,0-2.6,0c-1.3-0.2-2.7-0.5-4-1c-1.6-0.6-3.1-1.5-4.5-2.3
							c-2.3-1.3-4.2-3.1-6-4.7c-2.3-2.1-4.4-4.4-6.3-6.8c-2.1-2.7-4-5.5-6-8.4c-0.5-1-1.1-1.9-1.6-2.9c-0.8-1.6-1.6-3.2-2.4-4.8
							c-0.6-1.8-1.5-3.4-2.6-4.8c0.2,1,0.6,1.8,0.8,2.7c0.3,1.1,0.6,2.4,1.3,3.4c1.1,1.9,2.1,4,3.1,6c1,1.8,1.8,3.5,2.9,5
							c1,1.3,1.6,2.6,2.7,3.9c0.8,1.1,1.6,2.1,2.6,3.1c1,1,1.8,2.1,2.7,3.1c2.1,1.9,4.2,4.2,6.6,5.8c1.5,1,3.1,1.6,4.5,2.4
							c1.6,0.8,3.4,1.1,5.2,1.5c0.6,0.2,1.3,0,1.9,0s1.1,0,1.8,0c1.1-0.2,2.4-0.3,3.5-0.6c1.1-0.3,2.1-0.6,2.9-1.5
							c-1.1,0.3-2.4,0.6-3.5,0.8C291.6,167.5,290.5,167.5,289.3,167.8z"/>
					</g>
					<path class="st12" d="M286.8,143.6c2.4,1.5,4.2,3.7,6.8,5c1.3,0.6,2.7,1.5,4.4,1.5c1.3,0,2.7,0.2,3.9-0.3c0,1-0.5,1.9-1.1,2.6
						c-1,0.6-2.1,1.1-3.4,1.3c-1.9,0.3-4-0.5-5.5-1.8c-1.5-1-2.4-2.3-3.4-3.7C287.9,146.7,287.1,145.2,286.8,143.6z"/>
				</g>
				<g>
					<path class="st1" d="M330.6,62.4c-0.2-3.9-0.5-7.7-1.8-11.3c-0.3-1-0.8-1.9-1.5-2.7c0.3,0,0.5-0.2,0.8-0.2
						c-0.8-0.6-1.5-1.3-2.3-1.9c-2.1-0.5-4-1.3-6.1-1.6c-1.6-0.2-3.1-0.2-4.7-0.3c-1.6-0.2-3.4,0-5,0.2c-1.9,0.3-4,0.6-5.8,1.5
						c-1.5,0.6-2.9,1.1-4.2,1.9c-1.5,0.8-2.9,1.5-4.4,2.6c-3.9,2.7-6.6,6.4-8.9,10.5c-0.6,1.1-1.3,2.3-1.9,3.4c-0.2,0.3,0,0.6,0.2,1
						c0.3-0.6,0.6-1.1,0.8-1.5c1.1-1.9,2.6-4.2,4.4-5.6c0.2-0.3,0.5-0.6,0.6-0.8c1.3-1.9,3.2-3.5,5-5c1.1-1,2.3-1.6,3.5-2.3
						c0.8-0.5,1.6-0.8,2.6-1.1c-1.5,1.8-2.7,3.5-3.9,5.5c-2.3,4-4.2,8.2-5.8,12.6c-0.5,1.3-0.8,2.6-1.3,4v0.2c0.2,0,0.3,0,0.5,0
						c0.2-0.3,0.2-0.8,0.3-1.1c1.5-4.4,3.1-8.5,5.3-12.6c1.1-2.1,2.4-4.2,3.9-6.1c0.6-0.6,1.1-1.5,1.8-2.1c0.5-0.6,1.3-1,1.9-1.1
						c1.3-0.3,2.4-0.8,3.7-1.1c-0.6,1.5-1.6,2.9-2.3,4.4c-1.9,4-3.7,8.2-5.2,12.6c-1,2.7-1.9,5.6-2.6,8.5c0.2,0,0.3,0.2,0.5,0.3
						c0.2-0.8,0.5-1.5,0.6-2.3c1.5-5,3.4-10,5.3-14.7c1.3-2.9,2.6-5.8,4.2-8.5c0.2-0.3,0.5-0.6,0.8-0.6c1.1-0.2,2.4-0.3,3.5-0.5
						c-2.7,6.3-4.7,12.9-6.3,19.5c-0.6,2.7-1.3,5.5-1.8,8.2c0.2,0,0.5,0,0.6,0.2c1-5.3,2.4-10.5,4-15.5c1.3-4.2,2.6-8.4,4.2-12.4
						c1.1,0,2.3,0,3.4,0.2c0,2.1-0.2,4.4-0.5,6.6c-0.3,3.1-0.6,6.1-1.3,9.2c-0.8,4.8-1.9,9.5-3.2,14.3c0.2,0,0.2,0,0.3,0.2
						c1.5-5.6,2.9-11.3,4-17.1c0.6-4.4,1.5-8.7,1.3-13.1c1.5,0.2,2.9,0.5,4.4,0.8c1,2.7,1.3,5.5,1.3,8.4c0,4-0.3,8.1-0.8,12.1
						s-1,7.9-1.6,11.9c0,0.2,0,0.5-0.2,0.6c0.2,0,0.3,0,0.5,0l0,0c0-0.3,0.2-0.6,0.2-1.1c0.8-4.2,1.5-8.5,1.9-12.7
						c0.5-3.5,0.8-7.3,0.8-10.8c0-1.8-0.2-3.7-0.5-5.5c-0.2-1-0.6-1.8-0.8-2.7c0.8,0.2,1.6,0.3,2.4,0.6c0.3,0,0.5,0.5,0.6,0.6
						c1.5,2.7,2.1,5.8,2.6,8.9c0.5,3.7,0.6,7.4,0.5,11c-0.2,3.5-0.3,7.1-0.6,10.6c-0.2,1.1-0.3,2.3-0.5,3.4c0,0.5-0.2,1-0.3,1.5l0,0
						c0.2,0,0.3,0,0.5,0c0,0,0-0.2,0-0.3c0.8-2.9,1.1-6,1.3-8.9c0.2-2.3,0.3-4.5,0.5-6.8C330.5,66.1,330.6,64.1,330.6,62.4z"/>
					<path class="st1" d="M335,63c0.3,1.8,0.3,3.7,0.5,5.5c0,3.4,0.2,6.6-0.3,10c0.2,1,0.2,1.9,0,2.7l0,0c0,0.6,0,1.1,0,1.8
						c0-0.2,0.2-0.3,0.5-0.5c0.2-2.1,0.2-4.4,0.6-6.6c0.6-3.7,0.5-7.6,0.2-11.3c-0.2-1.6-0.5-3.4-1-5c-0.5-1.3-0.8-2.6-1.5-3.7
						c-0.8-1.6-1.6-3.2-2.7-4.7c-0.6-0.6-1.3-1.5-1.9-2.1c0,0.8,0.6,1.5,1.1,2.1c1.3,1.8,2.3,3.5,3.2,5.3c0.2,0.6,0.3,1.1,0.6,1.8
						C334.5,59.9,334.6,61.4,335,63z"/>
					<path class="st1" d="M337.9,59.5c-0.2-0.3-0.6-0.8-0.3-1.3c0.6,1,1.3,2.1,1.9,3.2c0.5,0.8,1,1.6,1.5,2.4c0,1.1,0.3,2.4,0.5,3.5
						c0.5,5.3,0,10.6-1.1,15.8c-0.3,1.3-0.5,2.6-1.3,3.5c0.2-1.3,0.6-2.4,0.8-3.5c0.6-3.2,1-6.3,1-9.5c0-1.9,0-4-0.2-6
						C340,64.8,339.5,61.9,337.9,59.5z"/>
					<path class="st2" d="M254.2,137C254.4,137.2,254.4,137.2,254.2,137L254.2,137z"/>
				</g>
				<g>
					<path class="st13" d="M294.3,174.9c-1,0.6-1.9,1.1-3.1,1.8C292.4,176.2,293.7,176,294.3,174.9z"/>
					<path class="st13" d="M248.1,183.6c1,0.6,1.9,1.1,2.7,1.9c0.6,0.6,1.8,1,2.6,1.5c0.2-0.2,0.3-0.3,0.5-0.5
						c-0.6-0.6-1.5-1.1-2.3-1.8c-1.8-1.1-3.4-2.4-4.8-3.7c-0.5-0.3-1-0.8-1.5-1c-0.5-0.2-0.8,0.2-1.1,0.3
						C245.2,181.8,246.8,182.6,248.1,183.6z"/>
					<path class="st13" d="M245.2,187.8c0.8,0.8,1.8,1.5,2.7,2.3c1.3,1,2.6,1.9,3.9,2.9c0-0.2,0.2-0.3,0.3-0.5
						c-0.2-0.2-0.2-0.2-0.3-0.3v-0.3c-1-0.6-2.1-1.3-2.9-2.1c0-0.2,0.2-0.3,0.2-0.6c-0.6-0.6-1.5-1.3-2.1-1.9c-1-1-1.8-2.1-2.7-3.2
						c-0.3-0.3-0.6-0.3-1.1-0.3c0.2,1.1,0.8,1.9,1.5,2.7C244.7,186.8,244.8,187.5,245.2,187.8z"/>
					<path class="st13" d="M329.2,289.5c-0.2-1.5-0.5-3.1-1.3-4.4c-0.6-1.3-1.3-2.7-1.9-4c-1.5-2.3-2.4-4.8-3.4-7.4
						c-0.8-2.1-1.5-4.2-1.9-6.3c-0.2-0.8-0.5-1.6-0.3-2.6c0.3-0.8,1-1.5,1.3-2.3c0.8-1.5,1.5-3.1,2.1-4.7c0.6-1.5,0.6-3.1,1-4.5
						c0.3-1.6,0.5-3.4,0.5-5c-0.8,3.2-1.9,6.4-2.9,9.7c-0.6,1.8-1.3,3.7-2.3,5.3c-0.3-2.1-0.3-4-0.2-6.1c0-1.6,0.3-3.4,0-5
						c-0.3-1.8-0.6-3.4-0.5-5.2c-0.5,4.2-0.6,8.5-0.6,12.7c0,1.9,0.3,3.9,0.3,5.8c0,1.5,0.6,2.7,1,4.2c0.8,3.1,1.8,6.3,3.1,9.2
						c0.8,1.8,1.9,3.4,2.9,5c0.5,1,0.8,1.9,1.1,3.1c0.6,1.8,0.8,3.7,1,5.6c0.2,1.9-0.3,3.7-0.8,5.5c-0.3,1.1-0.8,2.3-1.1,3.4
						c-0.3,0.8-0.6,1.5-1.1,2.1c-0.5,0.5-1,1-1.3,1.6c-0.6,1.5-1.6,2.7-2.6,4c-0.5,0.5-0.6,1.1-1.1,1.8c-0.5,1-1.1,1.9-1.9,2.7
						c0.2,0,0.3,0,0.5,0c0.3-0.3,0.6-0.8,1-1.1c0,0.5-0.2,0.8-0.2,1.3c0.8-1.1,1.1-2.6,1.9-3.5c1-1.5,2.1-3.1,3.4-4.5
						c0.6-0.6,1.1-1.3,1.5-2.1c0.6-1.5,1.8-2.9,2.3-4.5c0.5-1.5,0.8-2.9,1-4.4C329.8,292.9,329.5,291.2,329.2,289.5z"/>
					<path class="st13" d="M200.2,285.8c1.3-1.9,1.5-4.2,1.9-6.3c0.8-4.7,1.1-9.4,1-14c0-1.8,0-3.5-0.2-5.3c-0.2,0-0.3,0-0.5,0
						c-0.3,2.4,0,4.8-0.3,7.4c-0.3,1.3-0.5,2.7-0.6,4.2c-0.3,2.1-0.6,4.4-1.1,6.4c-0.2,1.3-0.5,2.4-0.8,3.5
						c-0.6,1.9-1.3,3.9-1.8,5.8c-0.5,1.3-0.6,2.7-1.3,4c-0.2,0.3-0.5,0.8,0,1c0.3,0.2,0.6-0.2,1-0.5c0.8-1.1,1.3-2.3,1.9-3.4
						C199.5,287.6,199.7,286.8,200.2,285.8z"/>
					<path class="st13" d="M208.2,271.2c-0.8,2.7-2.1,5.2-3.2,7.9c-1.1,2.7-2.3,5.6-4,8.4c-0.5,1.1-1.3,2.1-1.9,3.4
						c-0.5,0.6-1,1.3-1.3,2.1c0.6-0.6,1.3-1.3,1.9-1.9c1.1-1.1,1.8-2.6,2.7-4c1.6-2.6,2.7-5.3,3.9-8.2c1.3-3.2,2.4-6.6,3.2-10
						c-0.2,0-0.3,0-0.5,0C208.7,269.4,208.6,270.2,208.2,271.2z"/>
					<path class="st13" d="M250.5,318.9c-1.8-0.6-3.5-1.5-5.3-2.3c-1.3-0.6-2.4-1.5-3.4-2.3c-2.3-1.8-4.4-3.5-6.3-5.6
						c-1.9-2.1-3.5-4.4-5-6.8c-1.6-2.6-3.2-5.2-4.7-7.9h-0.2c0.5,1.3,1,2.7,1.5,4c0.6,2.7,2.4,4.8,3.5,7.4c0.8,1.8,2.4,3.1,3.7,4.5
						c2.6,2.6,5.5,5.2,8.9,6.6c1.6,0.6,3.1,1.5,4.7,1.9c1.8,0.6,3.5,1.1,5.3,1.6c0.5,0,1,0,1.5,0c0,0,0-0.2,0-0.3
						C253.2,319.4,251.8,319.2,250.5,318.9z"/>
				</g>
				<path class="st14" d="M243.9,91.2c-1.3-2.9-3.2-6-6.3-7.3c-0.5-0.2-0.6,0.6-0.2,0.8c2.9,1.1,4.7,4.5,6,7.3
					c1.3,3.2,1.9,6.6,1.9,10c0,0.5,0.8,0.5,0.8,0C246.3,98.2,245.5,94.6,243.9,91.2z"/>
			</g>
		</g>
	</g>
</g>
</svg>
