<svg xmlns="http://www.w3.org/2000/svg" viewBox="0 0 410 404" style="enable-background:new 0 0 410 404" xml:space="preserve"><linearGradient id="a" gradientUnits="userSpaceOnUse" x1="132.55" y1="385.252" x2="301.99" y2="155.139" gradientTransform="matrix(1 0 0 -1 0 406)"><stop offset="0" style="stop-color:#41d1ff"/><stop offset="1" style="stop-color:#bd34fe"/></linearGradient><path d="M349 95.4 212.9 338.9c-2.8 5-10 5.1-12.9.1L61.2 95.5c-3.1-5.5 1.6-12.1 7.7-10.9L205.2 109c.9.2 1.8.2 2.6 0l133.4-24.3c6.2-1.3 10.9 5.3 7.8 10.7z" style="fill:url(#a)"/><linearGradient id="b" gradientUnits="userSpaceOnUse" x1="212.45" y1="350.289" x2="243.101" y2="140.027" gradientTransform="matrix(1 0 0 -1 0 406)"><stop offset="0" style="stop-color:#ffea83"/><stop offset=".083" style="stop-color:#ffdd35"/><stop offset="1" style="stop-color:#ffa800"/></linearGradient><path d="M270.1 52.6 169.4 72.3c-1.7.3-2.9 1.7-3 3.4l-6.2 104.7c-.1 2.5 2.1 4.4 4.5 3.8l28.1-6.5c2.6-.6 5 1.7 4.5 4.3l-8.3 40.8c-.6 2.7 2 5.1 4.7 4.3l17.3-5.3c2.7-.8 5.3 1.5 4.7 4.3l-13.2 64.1c-.8 4 4.5 6.2 6.7 2.8l1.5-2.3 82.1-163.8c1.4-2.7-1-5.9-4-5.3l-28.9 5.6c-2.7.5-5-2-4.3-4.7l18.8-65.3c.7-2.7-1.6-5.2-4.3-4.6z" style="fill:url(#b)"/></svg>