<?xml version="1.0" encoding="utf-8"?>
<!-- Generator: Adobe Illustrator 25.2.0, SVG Export Plug-In . SVG Version: 6.00 Build 0)  -->
<svg version="1.1" id="Layer_1" xmlns="http://www.w3.org/2000/svg" xmlns:xlink="http://www.w3.org/1999/xlink" x="0px" y="0px"
	 viewBox="0 0 480 480" style="enable-background:new 0 0 480 480;" xml:space="preserve">
<style type="text/css">
	.st0{opacity:0.9746;}
	.st1{fill-rule:evenodd;clip-rule:evenodd;fill:#8E75FF;}
	.st2{opacity:0.405;fill-rule:evenodd;clip-rule:evenodd;fill:#8E75FF;enable-background:new    ;}
</style>
<g id="Branding">
	<g id="Logo-White-Background" transform="translate(-436.000000, -387.000000)">
		<g id="Logo" transform="translate(435.000000, 387.000000)">
			<g id="Monogram" transform="translate(0.000000, 23.000000)" class="st0">
				<g>
					<path id="Combined-Shape-Copy" class="st1" d="M290.9,271.7v-98.5c0-3.5-2.8-6.4-6.4-6.4h-98V65.1h199.2c3.5,0,6.4,2.8,6.4,6.4
						v200.3L290.9,271.7L290.9,271.7z"/>
					<path id="Rectangle-Copy-6" class="st2" d="M186.6,65.1v101.7H93c-1.8,0-3.2-1.4-3.2-3.2c0-0.8,0.4-1.6,0.9-2.2L186.6,65.1z"/>
					<path id="Rectangle-Copy-7" class="st2" d="M290.9,365.6v-94h101.2L296.3,368c-1.3,1.3-3.3,1.3-4.5,0
						C291.3,367.3,290.9,366.4,290.9,365.6z"/>
					<path id="Rectangle-Copy-8" class="st2" d="M186.6,166.8h101.2c1.8,0,3.2,1.4,3.2,3.2v101.7H193c-3.5,0-6.4-2.8-6.4-6.4
						C186.6,265.3,186.6,166.8,186.6,166.8z"/>
				</g>
			</g>
		</g>
	</g>
</g>
</svg>
