<?xml version="1.0" encoding="utf-8"?>
<!-- Generator: Adobe Illustrator 25.2.0, SVG Export Plug-In . SVG Version: 6.00 Build 0)  -->
<svg version="1.1" id="Calque_1" xmlns="http://www.w3.org/2000/svg" xmlns:xlink="http://www.w3.org/1999/xlink" x="0px" y="0px"
	 viewBox="0 0 250 250" style="enable-background:new 0 0 250 250;" xml:space="preserve">
<style type="text/css">
	.st0{fill:#F05138;}
	.st1{fill:#FFFFFF;}
</style>
<rect class="st0" width="250" height="250"/>
<g>
	<g>
		<path class="st0" d="M205.8,81c0-1.7,0-3.2-0.1-4.9c-0.1-3.5-0.3-7.1-1-10.6c-0.6-3.6-1.7-6.8-3.3-10.1c-1.6-3.1-3.8-6-6.2-8.6
			c-2.5-2.5-5.4-4.6-8.6-6.2c-3.2-1.7-6.6-2.7-10.1-3.3c-3.5-0.6-7.1-0.9-10.6-1c-1.7-0.1-3.2-0.1-4.9-0.1c-1.9,0-3.8,0-5.8,0h-42.7
			H94.8c-1.9,0-3.8,0-5.8,0c-1.7,0-3.2,0-4.9,0.1c-0.9,0-1.7,0.1-2.6,0.1c-2.6,0.1-5.3,0.3-8,0.9c-2.6,0.4-5.2,1.2-7.6,2.2
			c-0.8,0.3-1.7,0.7-2.4,1.1c-2.4,1.2-4.6,2.7-6.6,4.5c-0.7,0.6-1.3,1.2-1.9,1.8c-2.5,2.5-4.6,5.4-6.2,8.6
			c-1.7,3.2-2.7,6.6-3.3,10.1c-0.6,3.5-0.9,7.1-1,10.6c-0.1,1.7-0.1,3.2-0.1,4.9c0,1.9,0,3.8,0,5.8v26.3v34.2c0,1.9,0,3.8,0,5.8
			c0,1.7,0,3.2,0.1,4.9c0.1,3.5,0.3,7.1,1,10.6c0.6,3.6,1.7,6.9,3.3,10.1c1.6,3.1,3.8,6,6.2,8.6c2.5,2.5,5.4,4.6,8.6,6.2
			c3.2,1.7,6.6,2.7,10.1,3.3c3.5,0.6,7.1,0.9,10.6,1c1.7,0,3.2,0.1,4.9,0.1c1.9,0,3.8,0,5.8,0h60.5c1.9,0,3.8,0,5.8,0
			c1.7,0,3.2,0,4.9-0.1c3.6-0.1,7.1-0.3,10.6-1c3.6-0.6,6.8-1.7,10.1-3.3c3.1-1.6,6-3.8,8.6-6.2c2.5-2.5,4.6-5.4,6.2-8.6
			c1.7-3.2,2.7-6.6,3.3-10.1c0.6-3.5,0.9-7.1,1-10.6c0.1-1.7,0.1-3.2,0.1-4.9c0-1.9,0-3.8,0-5.8V86.8C205.8,84.9,205.8,83,205.8,81z
			"/>
		<path class="st1" d="M172.2,136L172.2,136c0.2-0.6,0.3-1.2,0.5-1.8c6.7-26.7-9.6-58.3-37.3-74.9c12.2,16.4,17.5,36.4,12.8,53.8
			c-0.4,1.6-1,3.1-1.5,4.5c-0.6-0.4-1.4-0.9-2.4-1.4c0,0-27.5-17-57.4-47.1c-0.8-0.8,15.9,23.9,34.9,43.9
			c-8.9-5-33.8-23.2-49.6-37.5c1.9,3.2,4.2,6.3,6.7,9.4c13.2,16.7,30.3,37.2,50.9,53.1c-14.4,8.8-34.9,9.5-55.2,0
			c-5.1-2.4-9.8-5.2-14.2-8.4c8.6,13.7,21.9,25.6,37.9,32.5c19.2,8.3,38.4,7.7,52.6,0.2l0,0c0.1,0,0.2-0.1,0.2-0.1
			c0.6-0.3,1.1-0.6,1.7-1c6.8-3.6,20.4-7.2,27.6,7C182.4,171.4,186.1,153.1,172.2,136z"/>
	</g>
</g>
</svg>
