<?xml version="1.0" encoding="utf-8"?>
<!-- Generator: Adobe Illustrator 25.2.0, SVG Export Plug-In . SVG Version: 6.00 Build 0)  -->
<svg version="1.1" id="Layer_1" xmlns="http://www.w3.org/2000/svg" xmlns:xlink="http://www.w3.org/1999/xlink" x="0px" y="0px"
	 viewBox="0 0 480 480" style="enable-background:new 0 0 480 480;" xml:space="preserve">
<style type="text/css">
	.st0{fill-rule:evenodd;clip-rule:evenodd;fill:#36CCB2;}
</style>
<path class="st0" d="M170,212c9.3-37.3,32.7-56,70-56c56,0,63,42,91,49c18.7,4.7,35-2.3,49-21c-9.3,37.3-32.7,56-70,56
	c-56,0-63-42-91-49C200.3,186.4,184,193.3,170,212z M100,296c9.3-37.3,32.7-56,70-56c56,0,63,42,91,49c18.7,4.7,35-2.3,49-21
	c-9.3,37.3-32.7,56-70,56c-56,0-63-42-91-49C130.3,270.4,114,277.3,100,296z"/>
</svg>
