<?xml version="1.0" encoding="utf-8"?>
<!-- Generator: Adobe Illustrator 25.2.0, SVG Export Plug-In . SVG Version: 6.00 Build 0)  -->
<svg version="1.1" id="Layer_1" xmlns="http://www.w3.org/2000/svg" xmlns:xlink="http://www.w3.org/1999/xlink" x="0px" y="0px"
	 viewBox="0 0 500 500" style="enable-background:new 0 0 500 500;" xml:space="preserve">
<style type="text/css">
	.st0{fill:#9662EC;}
	.st1{fill:#FFFFFF;}
</style>
<rect x="0.3" class="st0" width="500" height="500"/>
<g>
	<path class="st1" d="M246.6,151.4c-55.3,1.8-71.8,41.3-75.5,62.7c4.9-7.9,20.4-25.4,43.2-25.4c26.6,0,46.8,29.6,59.1,38.9
		c15,11.2,45.1,26.1,84.6,14c31.5-9.6,46.1-43.1,49.3-58.9c-15.2,20.7-38.4,33.2-67,18.5C320.6,191.2,305.8,149.5,246.6,151.4z"/>
	<path class="st1" d="M168.3,245.5c-55.3,1.8-71.8,41.3-75.5,62.7c4.9-7.9,20.4-25.4,43.2-25.4c26.6,0,46.8,29.6,59.1,38.9
		c15,11.2,45.1,26.1,84.6,14c31.5-9.6,46.1-43.1,49.3-58.9c-15.2,20.7-38.4,33.2-67,18.5C242.3,285.2,227.6,243.6,168.3,245.5z"/>
</g>
</svg>
