<?xml version="1.0" encoding="utf-8"?>
<!-- Generator: Adobe Illustrator 25.2.0, SVG Export Plug-In . SVG Version: 6.00 Build 0)  -->
<svg version="1.1" id="Calque_1" xmlns="http://www.w3.org/2000/svg" xmlns:xlink="http://www.w3.org/1999/xlink" x="0px" y="0px"
	 viewBox="0 0 250 250" style="enable-background:new 0 0 250 250;" xml:space="preserve">
<style type="text/css">
	.st0{fill:#007ACC;}
	.st1{fill:#FFFFFF;}
</style>
<path class="st0" d="M68.4,125V93.5c0-13.9,11.3-25.1,25.1-25.1h63.1c13.9,0,25.1,11.3,25.1,25.1v63.1c0,13.9-11.3,25.1-25.1,25.1
	H68.4"/>
<path class="st1" d="M85.4,104.1v4.6h14.7v41.9h10.4v-41.9h14.7v-4.6c0-2.5,0-4.6-0.1-4.6c0-0.1-9-0.1-19.8-0.1l-19.8,0.1v4.6
	L85.4,104.1L85.4,104.1z M151.6,99.4c2.9,0.7,5.1,2,7.1,4c1.1,1.2,2.6,3.1,2.7,3.6c0,0.2-4.9,3.5-7.9,5.3c-0.1,0.1-0.5-0.4-1-1.2
	c-1.5-2.1-2.9-3-5.3-3.2c-3.4-0.2-5.6,1.5-5.6,4.6c0,0.9,0.2,1.4,0.5,2.2c0.8,1.5,2.2,2.5,6.6,4.4c8.1,3.5,11.6,5.8,13.7,9
	c2.4,3.7,2.9,9.4,1.3,13.8c-1.8,4.7-6.3,8-12.5,9c-2,0.3-6.5,0.3-8.6-0.1c-4.6-0.8-8.9-3.1-11.5-6c-1.1-1.2-3.1-4.2-2.9-4.3l1.1-0.7
	l4.2-2.5l3.2-1.9l0.8,1c0.9,1.5,3,3.5,4.2,4.2c3.7,1.9,8.6,1.6,11-0.5c1.1-0.9,1.5-2,1.5-3.4c0-1.3-0.2-1.9-0.8-2.9
	c-0.9-1.2-2.7-2.2-7.8-4.6c-5.9-2.5-8.3-4.1-10.7-6.5c-1.3-1.5-2.5-3.8-3.1-5.6c-0.4-1.6-0.5-5.6-0.2-7.3c1.2-5.6,5.5-9.7,11.6-10.7
	C145,98.6,149.7,98.8,151.6,99.4L151.6,99.4L151.6,99.4z"/>
</svg>
