<?xml version="1.0" encoding="utf-8"?>
<!-- Generator: Adobe Illustrator 23.0.1, SVG Export Plug-In . SVG Version: 6.00 Build 0)  -->
<svg version="1.1" id="Layer_1" xmlns="http://www.w3.org/2000/svg" xmlns:xlink="http://www.w3.org/1999/xlink" x="0px" y="0px"
	 viewBox="0 0 410 404" style="enable-background:new 0 0 410 404;" xml:space="preserve">
<style type="text/css">
	.st0{fill:url(#SVGID_1_);}
	.st1{fill:url(#SVGID_2_);}
</style>
<g>
	
		<linearGradient id="SVGID_1_" gradientUnits="userSpaceOnUse" x1="132.55" y1="385.2524" x2="301.99" y2="155.1393" gradientTransform="matrix(1 0 0 -1 0 406)">
		<stop  offset="0" style="stop-color:#41D1FF"/>
		<stop  offset="1" style="stop-color:#BD34FE"/>
	</linearGradient>
	<path class="st0" d="M349,95.4L212.9,338.9c-2.8,5-10,5.1-12.9,0.1L61.2,95.5c-3.1-5.5,1.6-12.1,7.7-10.9l136.3,24.4
		c0.9,0.2,1.8,0.2,2.6,0l133.4-24.3C347.4,83.4,352.1,90,349,95.4z"/>
	
		<linearGradient id="SVGID_2_" gradientUnits="userSpaceOnUse" x1="212.4499" y1="350.2886" x2="243.1008" y2="140.0268" gradientTransform="matrix(1 0 0 -1 0 406)">
		<stop  offset="0" style="stop-color:#FFEA83"/>
		<stop  offset="8.333330e-02" style="stop-color:#FFDD35"/>
		<stop  offset="1" style="stop-color:#FFA800"/>
	</linearGradient>
	<path class="st1" d="M270.1,52.6L169.4,72.3c-1.7,0.3-2.9,1.7-3,3.4l-6.2,104.7c-0.1,2.5,2.1,4.4,4.5,3.8l28.1-6.5
		c2.6-0.6,5,1.7,4.5,4.3l-8.3,40.8c-0.6,2.7,2,5.1,4.7,4.3l17.3-5.3c2.7-0.8,5.3,1.5,4.7,4.3l-13.2,64.1c-0.8,4,4.5,6.2,6.7,2.8
		l1.5-2.3l82.1-163.8c1.4-2.7-1-5.9-4-5.3l-28.9,5.6c-2.7,0.5-5-2-4.3-4.7l18.8-65.3C275.1,54.5,272.8,52,270.1,52.6z"/>
</g>
</svg>
