<?xml version="1.0" encoding="utf-8"?>
<!-- Generator: Adobe Illustrator 23.0.1, SVG Export Plug-In . SVG Version: 6.00 Build 0)  -->
<svg version="1.1" id="Layer_1" xmlns="http://www.w3.org/2000/svg" xmlns:xlink="http://www.w3.org/1999/xlink" x="0px" y="0px"
	 viewBox="0 0 456 330" style="enable-background:new 0 0 456 330;" xml:space="preserve">
<style type="text/css">
	.st0{fill:#FFFFFF;}
	.st1{fill:none;stroke:#A2A5B9;stroke-width:4;stroke-linecap:round;stroke-miterlimit:10;}
	.st2{fill:#FFFFFF;stroke:#A2A5B9;stroke-width:4;stroke-linecap:round;stroke-miterlimit:10;}
</style>
<g>
	<path class="st0" d="M32.2,307c-6.8,0-12.3-5.5-12.3-12.3V39.3c0-6.8,5.5-12.3,12.3-12.3h391.6c6.8,0,12.3,5.5,12.3,12.3v255.4
		c0,6.8-5.5,12.3-12.3,12.3L32.2,307L32.2,307z"/>
	<path class="st1" d="M423.8,28c6.2,0,11.3,5.1,11.3,11.3v255.4c0,6.2-5.1,11.3-11.3,11.3H32.2c-6.2,0-11.3-5.1-11.3-11.3V39.3
		C20.9,33.1,26,28,32.2,28H423.8"/>
</g>
<g>
	<circle class="st2" cx="91.5" cy="137" r="25"/>
	<line class="st1" x1="133.5" y1="125" x2="264.5" y2="125"/>
	<line class="st1" x1="134" y1="137.6" x2="224" y2="137.6"/>
	<line class="st1" x1="134" y1="150.4" x2="238" y2="150.4"/>
	<line class="st1" x1="66.5" y1="184.3" x2="197.5" y2="184.3"/>
	<line class="st1" x1="67" y1="196.9" x2="157" y2="196.9"/>
	<line class="st1" x1="67" y1="209.7" x2="171" y2="209.7"/>
	<line class="st1" x1="258.5" y1="184.3" x2="389.5" y2="184.3"/>
	<line class="st1" x1="259" y1="196.9" x2="349" y2="196.9"/>
	<line class="st1" x1="259" y1="209.7" x2="363" y2="209.7"/>
	<line class="st1" x1="66.5" y1="250.3" x2="197.5" y2="250.3"/>
	<line class="st1" x1="67" y1="262.9" x2="157" y2="262.9"/>
	<line class="st1" x1="67" y1="275.7" x2="171" y2="275.7"/>
	<line class="st1" x1="258.5" y1="250.3" x2="389.5" y2="250.3"/>
	<line class="st1" x1="259" y1="262.9" x2="349" y2="262.9"/>
	<line class="st1" x1="259" y1="275.7" x2="363" y2="275.7"/>
</g>
<path class="st1" d="M20.9,91.3V40.5c0-7.4,7.6-13.5,17-13.5h380.2c9.4,0,17,6.1,17,13.5v50.8"/>
<circle class="st2" cx="45.2" cy="46.1" r="11"/>
<circle class="st2" cx="412" cy="46.1" r="11"/>
<circle class="st2" cx="384.2" cy="46.1" r="5.3"/>
<circle class="st2" cx="361.9" cy="46.1" r="5.3"/>
<circle class="st2" cx="340.6" cy="46.1" r="5.3"/>
<circle class="st2" cx="417.7" cy="78.1" r="5.3"/>
<line class="st1" x1="70" y1="46.1" x2="86.3" y2="46.1"/>
<g>
	<line class="st1" x1="166.7" y1="77.7" x2="182.9" y2="77.7"/>
	<line class="st1" x1="202.8" y1="77.7" x2="219" y2="77.7"/>
	<line class="st1" x1="237.9" y1="77.7" x2="254.2" y2="77.7"/>
	<line class="st1" x1="273.1" y1="77.7" x2="289.3" y2="77.7"/>
</g>
<line class="st1" x1="371.9" y1="77.8" x2="400.4" y2="77.8"/>
<line class="st1" x1="34.2" y1="77.8" x2="62.7" y2="77.8"/>
<path class="st1" d="M315.4,53.2H113.3c-2,0-3.6-1.6-3.6-3.6v-6.9c0-2,1.6-3.6,3.6-3.6h202.1c2,0,3.6,1.6,3.6,3.6v6.9
	C319.1,51.5,317.4,53.2,315.4,53.2z"/>
</svg>
