<?xml version="1.0" encoding="utf-8"?>
<!-- Generator: Adobe Illustrator 25.2.0, SVG Export Plug-In . SVG Version: 6.00 Build 0)  -->
<svg version="1.1" id="Layer_1" xmlns="http://www.w3.org/2000/svg" xmlns:xlink="http://www.w3.org/1999/xlink" x="0px" y="0px"
	 viewBox="0 0 500 500" style="enable-background:new 0 0 500 500;" xml:space="preserve">
<style type="text/css">
	.st0{fill:#47474C;}
	.st1{opacity:0.3;fill-rule:evenodd;clip-rule:evenodd;fill:#E0E0E0;enable-background:new    ;}
	.st2{opacity:0.3;}
	.st3{fill-rule:evenodd;clip-rule:evenodd;fill:#F5F5F5;}
	.st4{opacity:0.1;fill-rule:evenodd;clip-rule:evenodd;fill:#E0E0E0;enable-background:new    ;}
	.st5{opacity:0.1;}
	.st6{opacity:0.1;fill-rule:evenodd;clip-rule:evenodd;fill:#EBEBEB;enable-background:new    ;}
	.st7{fill:#EBEBEB;}
	.st8{opacity:0.1;fill:#E0E0E0;enable-background:new    ;}
	.st9{fill:#E0E0E0;}
	.st10{opacity:0.1;fill:#F5F5F5;enable-background:new    ;}
	.st11{fill:#F5F5F5;}
	.st12{fill:#455A64;}
	.st13{fill:#263238;}
	.st14{fill:#8026CD;}
	.st15{opacity:0.2;enable-background:new    ;}
	.st16{fill:#353538;}
	.st17{fill:#62626B;}
	.st18{fill:#28282B;}
	.st19{fill:#FFFFFF;}
	.st20{fill:#E8505B;}
	.st21{fill:#46464C;}
	.st22{fill:#36363A;}
	.st23{fill:#1B1B1E;}
	.st24{fill:#FFBE9D;}
	.st25{fill:#EB996E;}
	.st26{opacity:0.3;enable-background:new    ;}
	.st27{fill:#FAFAFA;}
</style>
<g id="Background_Complete">
	<path class="st0" d="M94.2,162.3h-4c-0.4,0-0.8,0-1.2,0.1c-0.4,0.2-0.7,0.5-1,0.9c-0.1,0.2-0.2,0.4-0.2,0.6v2.2
		c-0.1,0.5-0.4,1-0.9,1.3c-0.2,0.1-0.5,0.2-0.8,0.3H70.5c-0.2,0-0.4,0-0.6-0.1c-0.4-0.1-0.7-0.3-1-0.6s-0.4-0.7-0.5-1.1v-1.2
		c0-0.4,0-0.8-0.1-1.2s-0.4-0.7-0.7-0.9c-0.3-0.2-0.7-0.3-1.2-0.3h-9.3c-0.9,0-1.9,0.1-2.7,0.5c-0.9,0.4-1.6,1-2.3,1.7
		c-0.6,0.7-1.1,1.6-1.3,2.6c-0.1,0.2-0.1,0.5-0.1,0.7V268c0,0.7,0,1.3,0.2,2c0.4,1.3,1.3,2.5,2.4,3.3c1.2,0.8,2.6,1.2,4,1.1h40.6
		c1.3-0.1,2.5-0.6,3.5-1.4c0.5-0.4,0.9-0.9,1.3-1.4s0.6-1.1,0.8-1.7c0.2-0.6,0.2-1.2,0.2-1.9v-99.3c0-0.9-0.2-1.8-0.5-2.5
		s-0.7-1.4-1.2-1.8c-0.5-0.5-0.9-0.9-1.4-1.1c-0.9-0.6-1.8-0.7-2.3-0.8c-0.3-0.1-0.5,0-0.6-0.1h-1C96.2,162.3,95.3,162.3,94.2,162.3
		L94.2,162.3z M445.9,162.3h-4c-0.4,0-0.8,0-1.2,0.1c-0.4,0.2-0.7,0.5-1,0.9c-0.1,0.2-0.2,0.4-0.2,0.6v2.2c-0.1,0.5-0.4,1-0.9,1.3
		c-0.2,0.1-0.5,0.2-0.8,0.3h-15.6c-0.2,0-0.4,0-0.6-0.1c-0.4-0.1-0.7-0.3-1-0.6s-0.4-0.7-0.5-1.1v-1.2c0-0.4,0-0.8-0.1-1.2
		s-0.4-0.7-0.7-0.9c-0.3-0.2-0.7-0.3-1.2-0.3h-9.3c-0.9,0-1.9,0.1-2.7,0.5c-0.9,0.4-1.6,1-2.3,1.7c-0.6,0.7-1.1,1.6-1.3,2.6
		c-0.1,0.2-0.1,0.5-0.1,0.7V268c0,0.7,0,1.3,0.2,2c0.4,1.3,1.3,2.5,2.4,3.3c1.2,0.8,2.6,1.2,4,1.1h40.6c1.3-0.1,2.5-0.6,3.5-1.4
		c0.5-0.4,0.9-0.9,1.3-1.4s0.6-1.1,0.8-1.7c0.2-0.6,0.2-1.2,0.2-1.9v-99.3c0-0.9-0.2-1.8-0.5-2.5s-0.7-1.4-1.2-1.8
		c-0.5-0.5-0.9-0.9-1.4-1.1c-0.9-0.6-1.8-0.7-2.3-0.8c-0.3-0.1-0.5,0-0.6-0.1h-1C447.8,162.3,447,162.3,445.9,162.3L445.9,162.3z"/>
	<path class="st1" d="M216.3,82.8c0.3,1.8,0.3,3.6,0.1,5.4l4.1,2.8l-3,7.7l-4.9-0.7c-1,1.4-2.3,2.8-3.7,3.9l1,4.9l-7.5,3.3l-3-4
		c-1.8,0.3-3.6,0.3-5.4,0.1l-2.8,4.1l-7.7-3l0.7-4.9c-1.4-1-2.8-2.3-3.9-3.7l-4.9,1l-3.3-7.5l4-3c-0.3-1.8-0.3-3.6-0.1-5.4l-4.1-2.8
		l3-7.7l4.9,0.7c1-1.4,2.3-2.8,3.7-3.9l-1-4.9l7.5-3.3l3,4c1.8-0.3,3.6-0.3,5.4-0.1l2.8-4.1l7.7,3l-0.7,4.9c1.4,1,2.8,2.3,3.9,3.7
		l4.9-1l3.3,7.5C220.3,79.8,216.3,82.8,216.3,82.8z M204.5,82.8c-2-4.5-7.2-6.5-11.7-4.5s-6.5,7.2-4.5,11.7s7.2,6.5,11.7,4.5
		C204.4,92.5,206.5,87.2,204.5,82.8z"/>
	<g class="st2">
		<path class="st3" d="M210.3,38.1c0.2,1.2,0.2,2.4,0.1,3.6l2.7,1.8l-2,5.1l-3.3-0.5c-0.7,1-1.5,1.8-2.4,2.6l0.6,3.2l-5,2.2l-2-2.6
			c-1.2,0.2-2.4,0.2-3.6,0.1l-1.8,2.7l-5.1-2L189,51c-1-0.7-1.8-1.5-2.6-2.4l-3.2,0.6l-2.2-5l2.6-2c-0.2-1.2-0.2-2.4-0.1-3.6
			l-2.7-1.8l2-5.1l3.3,0.5c0.7-1,1.5-1.8,2.4-2.6l-0.6-3.2l5-2.2l2,2.6c1.2-0.2,2.4-0.2,3.6-0.1l1.8-2.7l5.1,2l-0.5,3.3
			c1,0.7,1.8,1.5,2.6,2.4l3.2-0.6l2.2,5C212.9,36.1,210.3,38.1,210.3,38.1z M202.5,38.1c-1.3-3-4.8-4.3-7.7-3c-3,1.3-4.3,4.8-3,7.7
			c1.3,3,4.8,4.3,7.7,3C202.5,44.5,203.8,41,202.5,38.1z"/>
	</g>
	<path class="st4" d="M352.7,369.1c0.3,2.1,0.4,4.2,0.2,6.3l4.9,3.3l-3.5,9l-5.8-0.8c-1.2,1.7-2.7,3.2-4.3,4.6l1.1,5.7l-8.8,3.9
		l-3.5-4.7c-2.1,0.3-4.2,0.4-6.3,0.2l-3.3,4.9l-9-3.5l0.8-5.8c-1.7-1.2-3.2-2.7-4.6-4.3l-5.7,1.1l-3.9-9l4.7-3.5
		c-0.3-2.1-0.4-4.2-0.2-6.3l-4.9-3.3l3.5-9l5.8,0.8c1.2-1.7,2.7-3.2,4.3-4.6l-1.1-5.7l8.8-3.9l3.5,4.7c2.1-0.3,4.2-0.4,6.3-0.2
		l3.3-4.9l9,3.5l-0.8,5.8c1.7,1.2,3.2,2.7,4.6,4.3l5.7-1.1l3.9,8.8L352.7,369.1z M338.9,369c-2.3-5.2-8.5-7.6-13.7-5.3
		c-5.2,2.3-7.6,8.5-5.3,13.7c2.3,5.2,8.5,7.6,13.7,5.3C338.8,380.4,341.2,374.2,338.9,369z"/>
	<g class="st5">
		<path class="st3" d="M329.4,422.6c0.2,1.2,0.2,2.5,0.1,3.7l2.8,1.9l-2,5.3l-3.4-0.5c-0.7,1-1.6,1.9-2.5,2.7l0.7,3.3l-5.1,2.3
			l-2-2.7c-1.2,0.2-2.5,0.2-3.7,0.1l-1.9,2.8l-5.3-2l0.5-3.4c-1-0.7-1.9-1.6-2.7-2.5l-3.3,0.7l-2.3-5.1l2.7-2
			c-0.2-1.2-0.2-2.5-0.1-3.7l-2.8-1.9l2-5.3l3.4,0.5c0.7-1,1.6-1.9,2.5-2.7l-0.7-3.3l5.1-2.3l2,2.7c1.2-0.2,2.5-0.2,3.7-0.1l1.9-2.8
			l5.3,2l-0.5,3.4c1,0.7,1.9,1.6,2.7,2.5l3.3-0.7l2.3,5.1L329.4,422.6z M321.3,422.6c-1.4-3.1-4.9-4.4-8-3.1c-3.1,1.4-4.4,4.9-3.1,8
			c1.4,3.1,4.9,4.4,8,3.1C321.3,429.2,322.7,425.6,321.3,422.6z"/>
	</g>
	<path class="st6" d="M243.4,62.9c0.2,1.1,0.2,2.2,0.1,3.2l2.5,1.7l-1.8,4.6l-2.9-0.4c-0.6,0.9-1.4,1.6-2.2,2.3l0.6,2.9l-4.5,2
		l-1.8-2.4c-1.1,0.2-2.2,0.2-3.2,0.1l-1.7,2.5l-4.6-1.8l0.4-2.9c-0.9-0.6-1.6-1.4-2.3-2.2l-2.9,0.6l-2-4.5l2.4-1.8
		c-0.2-1.1-0.2-2.2-0.1-3.2l-2.5-1.7l1.8-4.6l2.9,0.4c0.6-0.9,1.4-1.6,2.2-2.3l-0.6-2.9l4.5-2l1.8,2.4c1.1-0.2,2.2-0.2,3.2-0.1
		l1.7-2.5L239,52l-0.4,2.9c0.9,0.6,1.6,1.4,2.3,2.2l2.9-0.6l2,4.5L243.4,62.9L243.4,62.9z M236.4,62.8c-1.2-2.7-4.3-3.9-7-2.7
		s-3.9,4.3-2.7,7s4.3,3.9,7,2.7C236.4,68.6,237.6,65.5,236.4,62.8z"/>
	<g class="st5">
		<path class="st7" d="M420.9,395.3c3.7-1.9,8-2.1,12-1.5c2.2,0.4,4.4,1,5.9,2.6s1.8,4.5,0.1,5.9c-1,0.8-2.4,1-3.7,0.9
			c-3.2,0-6.7-0.6-9.2,1.3c-1.4,1.1-2.4,2.9-4.1,3.4s-3.6-0.5-4.5-2s-0.9-3.4-0.5-5.2C416.8,400.9,417.2,397.2,420.9,395.3
			L420.9,395.3z"/>
	</g>
	<g class="st5">
		<path class="st7" d="M412.5,379.1c2.2,3.2,6.6,2.1,8.6,0.2s2.9-4.8,3.6-7.5c1.8-6.1,3.6-12.6,2.2-18.9c-0.4-1.9-1.1-3.7-2.4-5.1
			s-3.3-2.2-5.2-1.7c-2.2,0.6-3.5,2.7-4.5,4.8c-2.9,6-4.4,12.6-4.4,19.3C410.4,373.3,410.8,376.6,412.5,379.1"/>
	</g>
	<g class="st5">
		<path class="st7" d="M406.4,383.7c2.4-2.9,2.9-7.1,1.8-10.7s-3.5-6.7-6.3-9.2c-3.3-2.9-7.2-5.2-11.3-6.7c-1.6-0.6-3.4-1-5.1-0.9
			c-1.7,0.2-3.5,1-4.3,2.6c-1.2,2.3,0,5,1.2,7.3c2.2,4,4.7,7.8,7.4,11.3c2.2,2.9,4.8,5.7,8.2,7c3.4,1.3,6.9,1.1,8.7-1.2"/>
	</g>
	<g class="st2">
		<path class="st8" d="M412.4,427.3c0,0,0.1-0.5,0.2-1.4c0.1-1.1,0.2-2.4,0.4-4c0.2-1.7,0.4-3.6,0.9-5.8c0.5-2.2,1.2-4.5,2.1-6.8
			c1-2.4,2.1-4.5,3.5-6.2s2.9-3,4.4-3.7s2.8-1,3.7-1.2c0.9-0.1,1.4-0.2,1.4-0.2h-1.5c-0.9,0.1-2.3,0.3-3.9,1s-3.2,2-4.7,3.7
			c-1.4,1.7-2.6,3.9-3.6,6.3c-0.9,2.4-1.7,4.8-2.1,7s-0.6,4.2-0.8,5.9c-0.1,1.7-0.2,3-0.2,4C412.3,426.7,412.3,427.3,412.4,427.3
			L412.4,427.3z"/>
	</g>
	<path class="st8" d="M412.7,424.2v-2.6c0-1.7,0-4.1,0.1-7.1c0.1-6,0.7-12.4,1.7-21.4c0.9-8.5,2.2-18.4,3.5-24.9
		c0.3-1.5,0.6-2.8,0.8-3.9c0.3-1.2,0.5-2.2,0.7-3s0.3-1.4,0.4-1.9c0.1-0.4,0.1-0.7,0.1-0.7s-0.1,0.2-0.2,0.6
		c-0.1,0.5-0.3,1.1-0.6,1.8c-0.2,0.8-0.5,1.8-0.8,2.9s-0.6,2.5-0.9,3.9c-1.3,5.8-2.7,14-3.7,23.1s-1.4,17.3-1.5,23.3
		c0,3,0,5.4,0.1,7.1c0,0.8,0.1,1.4,0.1,1.9C412.6,424,412.6,424.2,412.7,424.2L412.7,424.2z"/>
	<path class="st8" d="M412.7,408.3v-2c-0.1-1.3-0.3-3.2-0.6-5.4c-0.4-2.3-0.9-5-1.8-7.9c-0.4-1.3-1.2-4.6-3.3-9.4
		c-2.8-6.5-6.5-11.9-9.7-15.2c-0.8-0.9-1.6-1.5-2.3-2.1c-0.4-0.3-0.7-0.6-1-0.8l-0.9-0.6c-1.1-0.7-1.7-1.1-1.7-1.1
		c-0.1,0.1,2.4,1.6,5.5,4.9s6.8,8.6,9.5,15.1c1.5,3.5,2.6,6.6,3.3,9.3c0.9,2.9,1.4,5.6,1.9,7.9c0.4,2.3,0.7,4.1,0.8,5.4
		C412.6,407.6,412.7,408.3,412.7,408.3L412.7,408.3z"/>
	<g class="st5">
		<path class="st9" d="M397.3,436.4l1.6,21.8H427l1.6-21.8H397.3z"/>
	</g>
	<g class="st5">
		<path class="st9" d="M394.6,427.8h37.3v8.6h-37.3V427.8z"/>
	</g>
	<g class="st5">
		<path class="st7" d="M394.6,457.4v2.4h36.7v-2.4H394.6z"/>
	</g>
	<g class="st5">
		<path class="st9" d="M398.1,464l-1.8-4.2H430l-2,4.2H398.1z"/>
	</g>
	<path class="st10" d="M428.1,443.5c0,0,0,0.1-0.1,0.2s-0.2,0.3-0.4,0.6c-0.4,0.5-0.9,1.2-1.6,2.1l-0.1,0.1l-0.1-0.1
		c-1-1.4-2.4-3.3-4-5.6h0.2c-1.2,1.7-2.5,3.6-4,5.6l-0.1,0.2l-0.1-0.2c-1.5-1.7-3-3.6-4.7-5.6h0.3l-0.3,0.3
		c-1.5,1.8-2.9,3.6-4.2,5.3l-0.1,0.2l-0.1-0.2c-1.4-2-2.8-3.9-4-5.6h0.2c-2,2.2-3.6,4.1-4.9,5.6l-0.1,0.1l-0.1-0.1
		c-0.6-1.1-1.2-1.9-1.5-2.6c-0.2-0.3-0.3-0.5-0.4-0.7l-0.1-0.2l0.2,0.2c0.1,0.2,0.3,0.4,0.4,0.7c0.4,0.6,0.9,1.5,1.6,2.5h-0.2
		c1.2-1.5,2.9-3.4,4.8-5.6l0.1-0.1l0.1,0.2c1.2,1.7,2.6,3.6,4,5.6h-0.3c1.3-1.7,2.7-3.4,4.2-5.3l0.3-0.3l0.1-0.2l0.1,0.2
		c1.6,2,3.2,3.9,4.7,5.6h-0.3c1.4-2,2.8-3.9,4-5.6l0.1-0.2l0.1,0.2c1.6,2.3,2.9,4.2,3.9,5.6h-0.1c0.7-0.9,1.3-1.5,1.7-2
		c0.2-0.2,0.3-0.4,0.5-0.5C428,443.6,428.1,443.5,428.1,443.5L428.1,443.5z"/>
	<path class="st11" d="M429,436.2c0,0.1-7,0.2-15.7,0.2s-15.7-0.1-15.7-0.2s7-0.2,15.7-0.2C421.9,436.1,429,436.1,429,436.2z"/>
	<path class="st10" d="M430.4,460c0,0.1-7.6,0.2-17.1,0.2c-9.4,0-17.1-0.1-17.1-0.2s7.6-0.2,17.1-0.2
		C422.7,459.9,430.4,459.9,430.4,460z"/>
</g>
<path id="Floor" class="st12" d="M462.5,464.5c0,0.1-95.1,0.3-212.5,0.3s-212.5-0.1-212.5-0.3c0-0.1,95.1-0.3,212.5-0.3
	S462.5,464.3,462.5,464.5z"/>
<g id="Plant">
	<path class="st13" d="M88.1,417.1h56.4v7.8H88.1V417.1z"/>
	<path class="st13" d="M144.6,424.9H88V417h56.6V424.9z M88.2,424.7h56.2v-7.6H88.2C88.2,417.1,88.2,424.7,88.2,424.7z"/>
	<path class="st13" d="M93.3,422.3l8.2,40h30l7.9-37.5L93.3,422.3z"/>
	<path class="st12" d="M93.3,458.5l4.4,6h36.5l5.2-6H93.3z"/>
	<path class="st13" d="M114.2,423.4c-0.1,0-0.3-18.6-0.3-41.5c-0.1-22.9,0-41.5,0.1-41.5s0.3,18.6,0.3,41.5
		C114.4,404.9,114.3,423.4,114.2,423.4z M126.8,377c0,0,0,0.2-0.2,0.4c-0.1,0.3-0.3,0.7-0.5,1.2c-0.1,0.3-0.2,0.6-0.4,0.9
		c-0.1,0.3-0.2,0.7-0.4,1.1c-0.1,0.4-0.3,0.8-0.4,1.2c-0.2,0.4-0.3,0.9-0.4,1.4c-0.6,1.9-1.1,4.3-1.6,6.9c-0.4,2.6-0.7,5.6-0.9,8.6
		c-0.3,6.2,0.1,11.8,0.4,15.8c0.2,2,0.4,3.6,0.5,4.8c0.1,0.5,0.1,1,0.1,1.3v0.5c0,0,0-0.2-0.1-0.4c-0.1-0.3-0.1-0.8-0.2-1.3
		c-0.2-1.1-0.4-2.7-0.6-4.8c-0.4-4-0.8-9.6-0.6-15.8c0.2-3.1,0.5-6,0.9-8.7c0.5-2.6,1-5,1.7-6.9c0.2-0.5,0.3-0.9,0.4-1.4
		c0.2-0.4,0.3-0.8,0.5-1.2c0.1-0.4,0.3-0.7,0.4-1s0.3-0.6,0.4-0.9c0.2-0.5,0.4-0.9,0.6-1.2C126.7,377.1,126.8,377,126.8,377z"/>
	<path class="st13" d="M125.3,362c0,0,0,0.2-0.2,0.6c-0.1,0.4-0.3,1-0.6,1.7c-0.1,0.4-0.3,0.8-0.4,1.2c-0.1,0.5-0.3,1-0.5,1.5
		c-0.3,1.1-0.7,2.3-1.1,3.7l-0.6,2.1c-0.2,0.8-0.3,1.5-0.5,2.3c-0.4,1.6-0.7,3.4-1,5.2c-0.6,3.7-1.2,7.8-1.5,12.1
		c-0.4,4.3-0.5,8.4-0.6,12.2c0,3.7,0,7.1,0.2,9.9c0,1.4,0.1,2.7,0.2,3.8c0.1,1.1,0.1,2.1,0.2,2.9s0.1,1.4,0.1,1.8v0.6
		c0,0,0-0.2-0.1-0.6c-0.1-0.5-0.1-1.1-0.2-1.8c-0.1-0.8-0.2-1.8-0.3-2.9c-0.1-1.1-0.2-2.4-0.3-3.8c-0.2-2.8-0.3-6.2-0.3-10
		c0-3.7,0.2-7.9,0.5-12.2c0.4-4.3,0.9-8.4,1.6-12.1c0.4-1.8,0.7-3.6,1.1-5.2c0.2-0.8,0.4-1.6,0.6-2.3c0.2-0.7,0.4-1.5,0.6-2.1
		c0.4-1.4,0.8-2.6,1.1-3.7c0.2-0.5,0.3-1,0.5-1.5c0.2-0.4,0.3-0.9,0.5-1.2c0.3-0.7,0.5-1.3,0.7-1.7C125.2,362.2,125.3,362,125.3,362
		L125.3,362z M110.6,426.7v-0.2c0-0.2,0-0.4-0.1-0.6c0-0.6-0.1-1.4-0.2-2.5c-0.1-2.2-0.3-5.2-0.6-9c-0.5-7.6-1.2-18.2-2.5-29.8
		c-0.7-5.8-1.4-11.3-2.2-16.3c-0.4-2.5-0.8-4.9-1.2-7.1c-0.4-2.2-0.8-4.3-1.2-6.1c-0.4-1.9-0.8-3.6-1.1-5c-0.3-1.5-0.6-2.8-0.9-3.8
		c-0.2-1-0.4-1.8-0.6-2.4c-0.1-0.3-0.1-0.5-0.1-0.6v-0.2c0,0,0,0.1,0.1,0.2c0,0.2,0.1,0.4,0.2,0.6c0.2,0.6,0.4,1.4,0.7,2.4
		c0.3,1,0.6,2.3,1,3.8s0.8,3.2,1.2,5c0.4,1.9,0.9,3.9,1.3,6.1s0.8,4.6,1.3,7.1c0.8,5,1.6,10.5,2.2,16.3c1.3,11.6,1.9,22.2,2.4,29.8
		c0.2,3.8,0.4,6.9,0.4,9.1c0,1,0.1,1.9,0.1,2.5v0.6C110.6,426.6,110.6,426.7,110.6,426.7L110.6,426.7z"/>
	<path class="st14" d="M113.7,349.4c-0.2-2.6-2.9-4.6-5.5-4.6s-5.1,1.6-6.7,3.6c-1.6,2.1-2.5,4.6-3.2,7.2c-1.8,6.2-2.8,12.7-2,19.1
		s3.4,12.7,8,17.2c0.7,0.7,1.7,1.5,2.7,1.3c0.6-0.1,1-0.5,1.4-0.9c9-8.2,14.2-20.4,13.9-32.5c-0.1-2.4-0.4-5-1.7-7
		C119.2,350.8,116,348.6,113.7,349.4 M94,328.4c-1.2,2.2-2.5,4.5-3.7,6.7c-0.1,0.2-0.2,0.3-0.4,0.3s-0.3-0.2-0.4-0.3
		c-3.3-5-6.6-10.1-9.8-15.1l2.3-1.3L94,328.4L94,328.4z"/>
	<path class="st15" d="M94,328.4c-1.2,2.2-2.5,4.5-3.7,6.7c-0.1,0.2-0.2,0.3-0.4,0.3s-0.3-0.2-0.4-0.3c-3.3-5-6.6-10.1-9.8-15.1
		l2.3-1.3L94,328.4L94,328.4z"/>
	<path class="st14" d="M114,340.5c-11.2-6.6-22.4-13.2-33.5-19.8c-0.3-0.2-0.7-0.4-0.8-0.8c-0.1-0.5,0.2-1,0.6-1.3
		c4.6-4.8,11.3-7.5,17.9-7s13,4.3,16.2,10.1C117.6,327.4,117.7,335,114,340.5"/>
	<path class="st13" d="M85.3,314.4c0,0,0.2,0,0.4-0.1c0.3,0,0.7-0.1,1.3-0.1c1.1,0,2.7,0,4.7,0.4c1.9,0.3,4.2,0.9,6.6,2
		s4.9,2.6,7.1,4.6s4,4.3,5.3,6.6c1.3,2.3,2.2,4.5,2.7,6.4s0.7,3.5,0.8,4.6c0.1,0.5,0,0.7,0.1,1c0,0.3-0.2,0.7-0.3,0.7
		c0,0,0.2-0.6,0.1-1.7s-0.4-2.7-0.9-4.5c-1.1-3.7-3.5-8.8-8-12.8c-4.4-4-9.7-6-13.5-6.6c-1.9-0.4-3.5-0.5-4.6-0.5
		C87.1,314.4,85.3,314.4,85.3,314.4z"/>
	<path class="st13" d="M109.4,326.8c0,0.1-0.6,0.3-1.7,0.8c-1.1,0.4-2.6,1-4.2,1.5c-1.7,0.5-3.2,1-4.3,1.2c-1.1,0.3-1.8,0.4-1.8,0.3
		s0.7-0.3,1.8-0.6c1.2-0.4,2.7-0.8,4.3-1.3c1.6-0.5,3-1,4.3-1.4C108.7,327,109.4,326.8,109.4,326.8z M104.1,312.7
		c0.1,0,0.3,1.7,0.4,3.7c0.1,2.1-0.1,3.8-0.2,3.8s-0.1-1.7-0.2-3.7C104.1,314.3,104,312.7,104.1,312.7z M80.1,320.3
		c0-0.1,0.9-0.4,2.4-0.9s3.6-1.1,6-1.6c2.4-0.6,4.5-1,6.1-1.3s2.6-0.4,2.6-0.3s-1,0.3-2.5,0.6c-1.6,0.3-3.7,0.8-6.1,1.4
		s-4.5,1.1-6,1.5C81.1,320.2,80.1,320.4,80.1,320.3L80.1,320.3z"/>
	<path class="st14" d="M99.8,343.7c-2.9-2.2-5.9-2.6-9.6-2.5c-3.6,0.1-7.1,1.2-10.5,2.7c-5.7,2.5-11,6.1-14.4,11.3
		c-3.4,5.2-4.6,12-2,17.6c0.3,0.6,0.6,1.1,1.1,1.4c0.6,0.3,1.3,0.1,1.9-0.1c6.4-2.1,12.9-4.2,18.8-7.5s11.3-7.9,14.5-13.8
		c0.8-1.4,1.4-3,1.5-4.6C101.4,346.6,101,344.9,99.8,343.7"/>
	<path class="st13" d="M99.9,343c0,0-0.2,0.1-0.5,0.2s-0.8,0.3-1.3,0.5c-0.3,0.1-0.6,0.2-1,0.3c-0.4,0.1-0.7,0.3-1.1,0.4
		c-0.8,0.3-1.8,0.7-2.8,1.1c-0.5,0.2-1,0.5-1.6,0.7c-0.5,0.3-1.1,0.6-1.7,0.9c-1.2,0.6-2.3,1.3-3.6,2c-2.5,1.6-5.1,3.4-7.6,5.6
		s-4.7,4.6-6.6,6.8c-0.9,1.2-1.8,2.2-2.5,3.3c-0.4,0.5-0.7,1-1.1,1.5l-0.9,1.5c-0.6,0.9-1.1,1.8-1.5,2.6c-0.2,0.4-0.4,0.7-0.6,1.1
		c-0.2,0.3-0.3,0.6-0.4,0.9c-0.3,0.5-0.5,0.9-0.6,1.3c-0.1,0.3-0.2,0.4-0.2,0.4s0-0.2,0.2-0.5c0.1-0.3,0.3-0.8,0.6-1.3
		c0.1-0.3,0.3-0.6,0.4-0.9c0.2-0.3,0.4-0.7,0.6-1.1c0.4-0.8,0.8-1.7,1.4-2.6l0.9-1.5c0.3-0.5,0.7-1,1.1-1.6c0.7-1.1,1.6-2.2,2.5-3.4
		c1.9-2.3,4.1-4.7,6.6-6.9c2.6-2.2,5.2-4.1,7.7-5.7c1.3-0.7,2.5-1.5,3.6-2c0.6-0.3,1.1-0.6,1.7-0.8c0.6-0.2,1.1-0.5,1.6-0.7
		c1-0.5,2-0.8,2.8-1.1c0.4-0.1,0.8-0.3,1.2-0.4c0.4-0.1,0.7-0.2,1-0.3c0.6-0.2,1-0.3,1.4-0.4C99.7,343.1,99.9,343,99.9,343z
		 M77.3,355.3c0,0.1-3.1,1.1-7,2.3c-3.9,1.1-7.1,2-7.1,1.9s3.1-1.1,7-2.3C74.1,356,77.3,355.1,77.3,355.3z"/>
	<path class="st13" d="M77,370.7c-0.1,0-0.1-0.8-0.2-2.2v-5.3c0.1-2.1,0.2-3.9,0.3-5.3c0.1-1.3,0.2-2.2,0.3-2.2c0.1,0,0,0.8,0,2.2
		c0,1.5-0.1,3.3-0.2,5.3c0,2-0.1,3.8-0.1,5.3C77.1,369.9,77.1,370.7,77,370.7L77,370.7z M90.3,364c-0.1,0-0.5-3.8-0.8-8.5
		S89,347,89.1,347s0.5,3.8,0.8,8.5C90.3,360.2,90.4,364,90.3,364z M73.8,346.6c0-0.1,0.9-0.1,2.2-0.1s3.3,0.1,5.4,0.1
		c2.1,0.1,4,0.2,5.4,0.2c1.4,0.1,2.2,0.2,2.2,0.2c0,0.1-0.9,0.1-2.2,0.1c-1.4,0-3.3-0.1-5.4-0.1c-2.1-0.1-4-0.2-5.4-0.2
		C74.7,346.8,73.8,346.7,73.8,346.6z M105.6,392.8v-0.4c0-0.3,0-0.8-0.1-1.3c-0.1-1.1-0.1-2.7,0-4.8c0-2,0.2-4.4,0.4-7
		c0.3-2.6,0.6-5.5,1.2-8.6c0.6-3,1.2-5.9,1.9-8.4c0.7-2.6,1.4-4.8,2.1-6.7c0.7-1.9,1.3-3.4,1.7-4.5c0.2-0.5,0.4-0.9,0.5-1.2
		c0.1-0.3,0.2-0.4,0.2-0.4s0,0.2-0.1,0.4c-0.1,0.3-0.3,0.7-0.4,1.2c-0.4,1-0.9,2.6-1.6,4.5c-0.6,1.9-1.3,4.2-2,6.7
		c-0.7,2.6-1.3,5.4-1.9,8.4c-0.5,3-0.9,5.9-1.2,8.5c-0.3,2.6-0.4,5-0.5,7s-0.1,3.6-0.1,4.7v1.3C105.7,392.7,105.7,392.8,105.6,392.8
		L105.6,392.8z"/>
	<path class="st13" d="M107.4,370.9c0,0-0.5,0.6-1.3,1.5c-0.9,0.9-2.1,2-3.5,3.3c-1.4,1.2-2.7,2.3-3.7,3s-1.6,1.2-1.6,1.1
		c0,0,0.5-0.6,1.5-1.4c1-0.9,2.3-2,3.6-3.1c1.3-1.2,2.6-2.3,3.6-3.2C106.8,371.3,107.4,370.8,107.4,370.9L107.4,370.9z M118,379.4
		c0,0-0.6-0.7-1.4-2c-0.9-1.3-2.1-3-3.3-4.8c-1.3-1.8-2.4-3.5-3.4-4.8c-0.9-1.2-1.4-2-1.4-2s0.7,0.7,1.6,1.9
		c0.9,1.2,2.2,2.8,3.5,4.7c1.3,1.9,2.4,3.6,3.2,4.9C117.6,378.6,118.1,379.4,118,379.4L118,379.4z M112.5,352.5
		c0.1,0.1-3.5,2.5-7.9,5.3s-8,5.1-8.1,5s3.5-2.5,7.9-5.3C108.8,354.6,112.4,352.4,112.5,352.5z M122.4,363.3
		c-0.1,0.1-2.5-2.1-5.3-4.9c-2.9-2.8-5.1-5.1-5.1-5.2c0.1-0.1,2.5,2.1,5.3,4.9C120.2,360.8,122.5,363.2,122.4,363.3z"/>
	<path class="st14" d="M124.9,363l3-0.3c2.1-0.2,4.2-0.8,6.1-1.9c0.9-0.5,1.9-1,2.8-1.4c3.7-1.5,7.9-1.2,11.9-1.4
		c6.6-0.3,13.1-2,19-4.9c0.3-0.2,0.6-0.4,0.8-0.8c0.6-1.1-0.5-2.1-1.5-2.8c-5.1-3.1-10.3-6.3-16.1-7.9s-12.4-1.3-17.3,2.1
		C128,347.9,125.9,356.1,124.9,363"/>
	<path class="st13" d="M168.8,352.1c0,0-0.2-0.1-0.5-0.2c-0.4-0.2-0.8-0.4-1.4-0.8c-1.2-0.7-3-1.6-5.3-2.7s-5-2.3-8.2-3.2
		c-3.2-0.9-6.9-1.3-10.6-0.9c-3.8,0.5-7.2,2-9.7,4.2s-4,4.8-5,7.1c-1.1,2.3-1.7,4.2-2.2,5.5c-0.2,0.6-0.4,1.1-0.5,1.5
		c-0.1,0.3-0.2,0.5-0.2,0.5s0-0.2,0.1-0.5c0.1-0.4,0.3-0.9,0.5-1.6c0.4-1.3,1-3.3,2.1-5.6c1-2.3,2.5-5,5.1-7.2
		c2.5-2.3,6.1-3.8,9.9-4.3c3.8-0.5,7.6,0,10.8,0.9s6,2.2,8.2,3.3c2.3,1.1,4,2.1,5.3,2.8c0.6,0.3,1,0.6,1.4,0.8
		C168.6,351.9,168.8,352.1,168.8,352.1L168.8,352.1z"/>
	<path class="st13" d="M161.5,356c-0.1,0.1-4-2.5-8.8-5.7c-4.8-3.3-8.7-6-8.6-6.1c0.1-0.1,4,2.5,8.8,5.7
		C157.7,353.2,161.6,355.9,161.5,356z M157.3,344c0,0.1-1.3,0.4-2.9,0.5c-1.6,0.1-2.9,0.1-2.9,0s1.3-0.2,2.9-0.3
		C156,344,157.3,343.9,157.3,344z M139.9,341.7c0.1,0-0.5,1-1.3,2c-0.8,1.1-1.5,1.9-1.6,1.9s0.5-1,1.3-2
		C139.1,342.5,139.8,341.7,139.9,341.7z M143.5,358.3c0,0-0.8-0.3-1.9-1c-1.1-0.7-2.7-1.7-4.3-2.9c-1.7-1.2-3.1-2.3-4.2-3.2
		c-1-0.8-1.7-1.4-1.6-1.4c0,0,0.7,0.4,1.8,1.2c1.2,0.9,2.6,1.9,4.2,3.1c1.6,1.2,3.2,2.2,4.3,3C142.8,357.8,143.5,358.3,143.5,358.3
		L143.5,358.3z"/>
	<path class="st14" d="M129.4,375.9c-2.9-0.8-6.3,2-6.9,5c-0.6,2.9,0.5,5.9,1.8,8.6c2.8,6,6.8,11.5,11.9,15.6
		c5.2,4.1,11.6,6.8,18.3,6.7c-1.2-5.7,0.3-11.6-0.4-17.4c-0.6-5-2.9-9.8-6.5-13.4s-8.4-5.9-13.5-6.4
		C132.2,374.5,130.1,374.2,129.4,375.9"/>
	<path class="st13" d="M154.4,411.8c0,0-0.1-0.1-0.4-0.2c-0.3-0.1-0.6-0.4-1.1-0.7c-0.9-0.7-1.9-2-2.9-3.8c-0.5-0.9-1-1.9-1.5-2.9
		c-0.5-1.1-1-2.2-1.6-3.4c-0.6-1.2-1.2-2.5-1.9-3.7s-1.6-2.4-2.6-3.6c-2-2.3-4.1-4.3-5.9-6.3c-1.8-1.9-3.4-3.8-4.5-5.4
		c-1.1-1.7-1.8-3.2-2.2-4.2c-0.2-0.5-0.3-0.9-0.4-1.2c-0.1-0.3-0.1-0.4-0.1-0.4s0.2,0.6,0.6,1.6c0.4,1,1.1,2.5,2.3,4.1
		c1.1,1.6,2.7,3.4,4.6,5.3c1.8,1.9,4,3.9,6,6.2c1,1.2,1.9,2.4,2.7,3.6s1.4,2.5,1.9,3.7s1,2.4,1.5,3.4c0.5,1.1,1,2.1,1.4,2.9
		c0.9,1.8,1.8,3.1,2.7,3.8C153.9,411.5,154.5,411.8,154.4,411.8z"/>
	<path class="st13" d="M139.5,407.1c-0.1,0,0-0.8,0.3-1.9c0.2-1.2,0.6-2.8,1.1-4.6c0.5-1.8,1-3.4,1.5-4.5c0.4-1.1,0.7-1.8,0.8-1.8
		s-0.2,0.7-0.5,1.9c-0.4,1.2-0.8,2.7-1.3,4.5s-0.9,3.4-1.2,4.6C139.8,406.4,139.6,407.1,139.5,407.1L139.5,407.1z M153.9,393.2
		c0,0.1-0.8-0.1-2-0.5c-1.2-0.3-3-0.8-4.9-1.2c-1.9-0.4-3.7-0.8-4.9-1c-1.3-0.2-2-0.4-2-0.4c0-0.1,0.8,0,2.1,0.2s3,0.5,5,0.9
		c1.9,0.4,3.6,0.9,4.9,1.3C153.2,392.9,153.9,393.2,153.9,393.2L153.9,393.2z M128.8,397.3c-0.1,0,0.1-0.9,0.3-2.3
		c0.3-1.4,0.7-3.3,1.2-5.3c0.5-2.1,1.1-3.9,1.6-5.2c0.5-1.3,0.8-2.1,0.8-2.1c0.1,0-0.2,0.9-0.6,2.2c-0.4,1.3-0.9,3.2-1.4,5.3
		c-0.5,2.1-1,3.9-1.3,5.3C129.1,396.4,128.8,397.3,128.8,397.3z M147.3,381.1c0,0.1-3.6-0.2-8.1-0.7c-4.4-0.5-8-0.9-8-1.1
		c0-0.1,3.6,0.2,8.1,0.7C143.7,380.5,147.3,381,147.3,381.1z"/>
	<path class="st12" d="M144.6,424.8c0,0.1-12.7,0.2-28.3,0.2S88,424.9,88,424.8s12.7-0.2,28.3-0.2
		C132,424.6,144.6,424.7,144.6,424.8z M135.8,441.1c0,0.1-8.5,0.2-19.1,0.2c-10.5,0-19.1-0.1-19.1-0.2s8.5-0.2,19.1-0.2
		S135.8,441,135.8,441.1z M135.5,443.4c0,0.1-8.4,0.2-18.7,0.2c-10.4,0-18.7-0.1-18.7-0.2s8.4-0.2,18.7-0.2S135.5,443.3,135.5,443.4
		z M136.1,439.2c0,0.1-8.8,0.2-19.7,0.2s-19.7-0.1-19.7-0.2s8.8-0.2,19.7-0.2S136.1,439.1,136.1,439.2z"/>
</g>
<g id="Screens">
	<path class="st16" d="M149.2,120.3h-6.5c-0.6,0-1.3-0.1-1.9,0.2c-0.6,0.2-1.2,0.7-1.5,1.4c-0.2,0.3-0.3,0.7-0.4,1
		c-0.1,0.4,0,0.7,0,1.1v1.2c0,0.4,0,0.8-0.1,1.2c-0.2,0.8-0.7,1.6-1.4,2.1c-0.4,0.2-0.8,0.4-1.3,0.4h-24.8c-0.3,0-0.6,0-0.9-0.1
		c-0.6-0.2-1.2-0.5-1.6-1s-0.7-1.1-0.8-1.7v-2c0-0.6,0-1.3-0.2-1.9s-0.6-1.1-1.2-1.5c-0.5-0.4-1.2-0.5-1.9-0.5H89.8
		c-1.5,0-3,0.2-4.3,0.8c-1.4,0.6-2.6,1.5-3.6,2.7s-1.7,2.6-2,4.1c-0.1,0.4-0.1,0.8-0.2,1.2v159.8c0,1.1,0.1,2.1,0.4,3.1
		c0.6,2.1,2,4,3.8,5.3s4.1,1.8,6.3,1.7h64.9c2-0.1,4-0.9,5.6-2.2c0.8-0.6,1.5-1.4,2-2.2c0.6-0.8,1-1.8,1.2-2.7c0.3-1,0.4-2,0.4-3
		v-97.9c0-23.6,0-42.8,0.1-56v-4.7c0-1.5-0.2-2.8-0.7-4s-1.1-2.2-1.9-2.9c-0.7-0.8-1.5-1.4-2.2-1.8c-1.5-0.9-2.8-1.2-3.7-1.3
		c-0.4-0.1-0.8-0.1-1-0.1h-1.7C152.2,120.3,150.9,120.3,149.2,120.3L149.2,120.3z"/>
	<path class="st13" d="M154.6,120.4h0.3c0.2,0,0.6,0,1,0.1c0.9,0.1,2.2,0.4,3.7,1.3c0.8,0.4,1.5,1,2.3,1.8c0.7,0.8,1.4,1.8,1.9,3
		s0.8,2.6,0.7,4v158.6c0,1-0.1,2-0.4,3c-0.3,1-0.7,1.9-1.3,2.8s-1.3,1.6-2.1,2.3c-1.6,1.3-3.6,2.1-5.7,2.2c-2.1,0.1-4.1,0-6.2,0
		H90.3c-2.2,0.1-4.6-0.5-6.5-1.8s-3.3-3.3-3.9-5.4c-0.3-1.1-0.4-2.2-0.4-3.4V130.5c0-0.4,0-0.8,0.1-1.2s0.1-0.8,0.2-1.2
		c0.4-1.6,1.1-3,2.1-4.2s2.3-2.1,3.7-2.8c1.4-0.6,2.9-0.9,4.4-0.8h14.8c0.7,0,1.4,0.2,2,0.5c0.6,0.4,1,1,1.2,1.6
		c0.3,0.6,0.2,1.3,0.2,2v1.9c0.1,0.6,0.3,1.2,0.7,1.7c0.4,0.5,0.9,0.8,1.5,0.9c0.3,0.1,0.6,0.1,0.9,0.1h24.8c0.4,0,0.9-0.2,1.2-0.4
		c0.7-0.5,1.2-1.2,1.4-2c0.1-0.4,0.1-0.8,0.1-1.2v-1.2c0-0.4,0-0.8,0.1-1.2c0.1-0.4,0.2-0.7,0.4-1.1c0.4-0.7,0.9-1.1,1.6-1.4
		c0.7-0.3,1.3-0.2,2-0.2h10.4C154.1,120.4,154.6,120.4,154.6,120.4l-11.7,0c-0.6,0-1.3-0.1-1.9,0.2c-0.6,0.2-1.2,0.7-1.5,1.4
		c-0.2,0.3-0.3,0.7-0.4,1c-0.1,0.4,0,0.7,0,1.1v1.2c0,0.4,0,0.8-0.1,1.2c-0.2,0.8-0.7,1.6-1.4,2.1c-0.4,0.2-0.8,0.4-1.3,0.4h-24.8
		c-0.3,0-0.6,0-0.9-0.1c-0.6-0.2-1.2-0.5-1.6-1s-0.7-1.1-0.8-1.7v-2c0-0.6,0-1.3-0.2-1.9s-0.6-1.1-1.1-1.5s-1.2-0.5-1.9-0.5H90.2
		c-1.5,0-3,0.2-4.3,0.8c-1.4,0.6-2.6,1.5-3.6,2.7s-1.7,2.6-2,4.1c-0.1,0.4-0.1,0.8-0.2,1.2c0,0.4,0,0.8-0.1,1.2v158.4
		c0,1.1,0.1,2.2,0.4,3.3c0.6,2.1,2,4,3.8,5.3s4.1,1.8,6.3,1.7h64.7c2-0.1,4-0.9,5.6-2.2c0.8-0.6,1.5-1.4,2-2.2
		c0.6-0.8,1-1.8,1.2-2.7c0.3-1,0.4-2,0.4-3V191c0-23.6,0-42.8,0.1-56v-4.7c0-1.5-0.2-2.8-0.7-4s-1.1-2.2-1.9-2.9
		c-0.7-0.8-1.5-1.4-2.2-1.8c-1.5-0.9-2.8-1.2-3.7-1.3c-0.4-0.1-0.8-0.1-1-0.1C154.7,120.4,154.6,120.4,154.6,120.4L154.6,120.4z"/>
	<path class="st13" d="M156.5,136.5c0,0-1.6,0.1-3.7,0.1h-3.7c0,0,1.6-0.1,3.7-0.1C154.9,136.4,156.5,136.4,156.5,136.5z
		 M156.5,138.4c0,0-1.6,0.1-3.7,0.1h-3.7c0,0,1.6-0.1,3.7-0.1C154.9,138.3,156.5,138.3,156.5,138.4z M156.6,140.2
		c0,0-1.6,0.1-3.7,0.1h-3.7c0,0,1.6-0.1,3.7-0.1H156.6z"/>
	<path class="st17" d="M89.9,142.4h2.2v-1.8c0-0.2,0.3-0.5,0.5-0.5h0.7c0.3,0,0.5,0.3,0.5,0.6v1.7l-0.1-0.1h2l-0.1,0.1v-3.1
		c0-0.2-0.1-0.3-0.3-0.5l-0.9-0.9l-0.8-0.8l-0.4-0.4c-0.1-0.1-0.2-0.3-0.4-0.3s-0.3,0-0.5,0.1l-0.4,0.4l-0.7,0.7
		c-0.4,0.5-0.9,0.9-1.2,1.3c-0.1,0.2-0.1,0.5-0.1,0.7L89.9,142.4l0-3.1c0-0.1,0-0.3,0.1-0.4c0.4-0.4,0.8-0.8,1.2-1.3l0.7-0.7
		l0.4-0.4c0.2-0.1,0.4-0.2,0.6-0.1c0.2,0,0.3,0.2,0.5,0.3l0.4,0.4c0.3,0.3,0.6,0.5,0.8,0.8c0.3,0.3,0.6,0.6,0.9,0.8
		c0.1,0.1,0.2,0.1,0.2,0.2c0.1,0.1,0.1,0.2,0.1,0.3v3.2h-2.2v-1.8c0-0.2-0.2-0.4-0.4-0.5h-0.7c-0.2,0-0.4,0.2-0.4,0.4v1.7h-2
		C90.1,142.2,89.9,142.4,89.9,142.4z M139.6,208c0,0.3-7.8,0.5-17.5,0.5s-17.5-0.2-17.5-0.5s7.8-0.5,17.5-0.5S139.6,207.7,139.6,208
		z"/>
	<path class="st14" d="M99.5,196.1l0.2-34l45.3,0.3l-0.2,34L99.5,196.1z"/>
	<path class="st14" d="M99.4,196.1l16-21l9.7,13.3l6.7-7.1l12.9,15.1L99.4,196.1z M129.3,172.6c0,2-1.6,3.6-3.6,3.5
		c-2,0-3.6-1.6-3.5-3.6c0-2,1.6-3.6,3.6-3.5C127.8,169,129.3,170.6,129.3,172.6z"/>
	<path class="st15" d="M99.4,196.1l16-21l9.7,13.3l6.7-7.1l12.9,15.1L99.4,196.1z M129.3,172.6c0,2-1.6,3.6-3.6,3.5
		c-2,0-3.6-1.6-3.5-3.6c0-2,1.6-3.6,3.6-3.5C127.8,169,129.3,170.6,129.3,172.6z"/>
	<path class="st17" d="M153.3,220.5c0,0.3-13.9,0.5-31.1,0.5s-31.1-0.2-31.1-0.5s13.9-0.5,31.1-0.5S153.3,220.3,153.3,220.5z
		 M153.3,229.2c0,0.3-13.9,0.5-31.1,0.5s-31.1-0.2-31.1-0.5s13.9-0.5,31.1-0.5S153.3,228.9,153.3,229.2z M153.3,237.9
		c0,0.3-13.9,0.5-31.1,0.5s-31.1-0.2-31.1-0.5s13.9-0.5,31.1-0.5S153.3,237.6,153.3,237.9z M153.3,246.5c0,0.3-13.9,0.5-31.1,0.5
		s-31.1-0.2-31.1-0.5s13.9-0.5,31.1-0.5S153.3,246.2,153.3,246.5z M153.3,255.2c0,0.3-13.9,0.5-31.1,0.5s-31.1-0.2-31.1-0.5
		s13.9-0.5,31.1-0.5S153.3,254.9,153.3,255.2z M139.9,263.1c0,0.1-2,0.3-5.2,0.4s-7.7,0.2-12.6,0.2s-9.4-0.1-12.6-0.2
		s-5.2-0.2-5.2-0.4s2-0.3,5.2-0.4s7.7-0.2,12.6-0.2s9.4,0.1,12.6,0.2S139.9,263,139.9,263.1z"/>
	<path class="st18" d="M211.3,105.8h-7.2c-0.7,0-1.5-0.1-2.2,0.2c-0.7,0.3-1.3,0.8-1.7,1.5c-0.2,0.4-0.3,0.7-0.4,1.2
		c-0.1,0.4,0,0.8-0.1,1.3v1.3c0,0.4,0,0.9-0.1,1.4c-0.2,0.9-0.8,1.8-1.6,2.3c-0.4,0.3-0.9,0.4-1.4,0.5h-27.5c-0.3,0-0.7,0-1-0.1
		c-0.7-0.2-1.3-0.6-1.8-1.1s-0.8-1.2-0.9-1.9v-2.2c0-0.7,0.1-1.5-0.2-2.1c-0.2-0.7-0.7-1.3-1.3-1.7c-0.6-0.4-1.3-0.6-2.1-0.6h-16.5
		c-1.6,0-3.3,0.2-4.8,0.9s-2.9,1.7-4,3s-1.9,2.9-2.3,4.6c-0.1,0.4-0.1,0.9-0.2,1.3v178.2c0,1.2,0.1,2.4,0.4,3.5
		c0.7,2.4,2.2,4.5,4.3,5.9c2,1.4,4.5,2.1,7,1.9h72.2c2.3-0.1,4.5-1,6.2-2.4c0.9-0.7,1.6-1.6,2.2-2.5c0.6-0.9,1.1-2,1.4-3
		c0.3-1.1,0.4-2.2,0.4-3.3v-16.6c0-34.8,0-66.2,0.1-92.6c0-26.4,0-47.7,0.1-62.4v-5.2c0-1.6-0.3-3.1-0.8-4.5
		c-0.5-1.3-1.3-2.4-2.1-3.3s-1.7-1.6-2.5-2c-1.7-1-3.1-1.3-4.1-1.5c-0.5-0.1-0.9-0.1-1.1-0.1h-1.9
		C214.7,105.8,213.2,105.8,211.3,105.8L211.3,105.8z"/>
	<path class="st13" d="M217.3,105.7h0.4c0.3,0,0.6,0,1.1,0.1c1,0.1,2.5,0.4,4.2,1.4c0.8,0.5,1.7,1.2,2.5,2c0.8,0.9,1.6,2,2.1,3.3
		s0.8,2.9,0.8,4.5v176.8c0,1.1-0.1,2.3-0.4,3.4c-0.3,1.1-0.8,2.2-1.4,3.1c-0.6,1-1.4,1.8-2.3,2.6c-1.8,1.4-4.1,2.4-6.4,2.5
		c-2.3,0.1-4.6,0-7,0h-65.3c-2.5,0.1-5.1-0.5-7.2-2c-2.1-1.4-3.7-3.6-4.4-6.1c-0.4-1.2-0.5-2.5-0.5-3.7V116.9c0-0.4,0-0.9,0.1-1.3
		s0.1-0.9,0.2-1.3c0.4-1.7,1.2-3.4,2.3-4.7c1.1-1.3,2.5-2.4,4.1-3.1s3.3-1,4.9-0.9h16.5c0.8,0,1.6,0.2,2.2,0.6
		c0.6,0.4,1.1,1.1,1.4,1.8c0.3,0.7,0.2,1.5,0.2,2.2v2.2c0.1,0.7,0.4,1.3,0.8,1.9c0.4,0.5,1,0.9,1.7,1c0.3,0.1,0.7,0.1,1,0.1h27.5
		c0.5-0.1,1-0.2,1.4-0.5c0.8-0.5,1.4-1.3,1.6-2.2c0.1-0.4,0.1-0.9,0.1-1.3v-1.3c0-0.4,0-0.9,0.1-1.3s0.2-0.8,0.4-1.2
		c0.4-0.7,1-1.3,1.8-1.6c0.7-0.3,1.5-0.2,2.2-0.2h11.6C216.8,105.7,217.3,105.7,217.3,105.7h-13.1c-0.7,0-1.5-0.1-2.2,0.2
		c-0.7,0.3-1.3,0.8-1.7,1.5c-0.2,0.4-0.3,0.7-0.4,1.2c-0.1,0.4,0,0.8-0.1,1.3v1.3c0,0.4,0,0.9-0.1,1.4c-0.2,0.9-0.8,1.8-1.6,2.3
		c-0.4,0.3-0.9,0.4-1.4,0.5h-27.5c-0.3,0-0.7,0-1-0.1c-0.7-0.2-1.3-0.6-1.8-1.1s-0.8-1.2-0.9-1.9v-2.2c0-0.7,0.1-1.5-0.2-2.1
		c-0.2-0.7-0.7-1.3-1.3-1.7c-0.6-0.4-1.3-0.6-2.1-0.6h-16.5c-1.6,0-3.3,0.2-4.8,0.9s-2.9,1.7-4,3s-1.9,2.9-2.3,4.6
		c-0.1,0.4-0.1,0.9-0.2,1.3c0,0.4-0.1,0.9-0.1,1.3v176.7c0,1.2,0.1,2.5,0.4,3.7c0.7,2.4,2.2,4.5,4.3,5.9c2,1.4,4.5,2.1,7,1.9h72.2
		c2.3-0.1,4.5-1,6.2-2.4c0.9-0.7,1.6-1.6,2.2-2.5c0.6-0.9,1.1-2,1.4-3c0.3-1.1,0.4-2.2,0.4-3.3v-16.6c0-34.8,0-66.2,0.1-92.6
		c0-26.4,0-47.7,0.1-62.4V117c0-1.6-0.3-3.1-0.8-4.5c-0.5-1.3-1.3-2.4-2.1-3.3s-1.7-1.6-2.5-2c-1.7-1-3.1-1.3-4.1-1.5
		c-0.5-0.1-0.9-0.1-1.1-0.1C217.4,105.7,217.3,105.7,217.3,105.7L217.3,105.7z"/>
	<path class="st13" d="M219.4,123.6c0,0-1.8,0.1-4.1,0.1s-4.1,0-4.1-0.1c0,0,1.8-0.1,4.1-0.1S219.4,123.5,219.4,123.6z M219.4,125.7
		c0,0-1.8,0.1-4.1,0.1s-4.1,0-4.1-0.1c0,0,1.8-0.1,4.1-0.1S219.4,125.6,219.4,125.7z M219.5,127.8c0,0-1.8,0.1-4.1,0.1
		s-4.1,0-4.1-0.1c0,0,1.8-0.1,4.1-0.1C217.6,127.7,219.5,127.7,219.5,127.8z"/>
	<path class="st17" d="M145.1,130.1h2.4v-2c0-0.3,0.3-0.5,0.6-0.5h0.8c0.3,0,0.6,0.3,0.6,0.7v1.8l-0.1-0.1h2.2l-0.1,0.1v-3.4
		c0-0.2-0.1-0.4-0.3-0.5c-0.3-0.3-0.6-0.6-1-0.9l-0.9-0.9c-0.2-0.1-0.3-0.3-0.4-0.4c-0.2-0.1-0.3-0.3-0.5-0.3s-0.4,0-0.5,0.1
		l-0.4,0.4l-0.8,0.8l-1.4,1.4c-0.2,0.2-0.1,0.5-0.1,0.8v2.8C145.1,130,145.1,130.1,145.1,130.1v-3.6c0-0.2,0-0.3,0.1-0.5
		c0.4-0.5,0.9-0.9,1.4-1.5l0.8-0.8l0.4-0.4c0.2-0.1,0.4-0.2,0.6-0.1c0.2,0.1,0.4,0.2,0.5,0.4c0.1,0.1,0.3,0.3,0.5,0.4l0.9,0.9
		c0.3,0.3,0.6,0.6,1,0.9c0.1,0.1,0.2,0.2,0.2,0.3c0.1,0.1,0.1,0.2,0.1,0.4v3.5h-2.4v-1.9c0-0.3-0.2-0.5-0.4-0.5H148
		c-0.2,0-0.4,0.2-0.5,0.4v2h-2.3C145.2,130.2,145.1,130.2,145.1,130.1L145.1,130.1z"/>
	<path class="st14" d="M189.6,141.6c0,4.1-3.3,7.4-7.4,7.4c-4.1,0-7.4-3.3-7.4-7.4c0-4.1,3.3-7.4,7.4-7.4
		C186.3,134.2,189.6,137.5,189.6,141.6z"/>
	<path class="st19" d="M184.8,144.6h-5.1V144c0-1.4,1.1-2.5,2.5-2.5s2.5,1.1,2.5,2.5v0.6H184.8z"/>
	<path class="st19" d="M183.7,140.1c0,0.8-0.7,1.5-1.5,1.5s-1.5-0.7-1.5-1.5s0.7-1.5,1.5-1.5S183.7,139.3,183.7,140.1z"/>
	<path class="st17" d="M200.6,161.1c0,0.3-8.8,0.6-19.5,0.6c-10.8,0-19.5-0.3-19.5-0.6s8.7-0.6,19.5-0.6
		C191.8,160.5,200.6,160.8,200.6,161.1z"/>
	<path class="st14" d="M141,205.9l0.1-25.4l33.7,0.2l-0.1,25.4L141,205.9z"/>
	<path class="st14" d="M141,205.9l11.9-15.7l7.3,9.9l4.9-5.3l9.7,11.3L141,205.9z M163.3,188.3c0,1.5-1.2,2.7-2.7,2.6
		c-1.5,0-2.7-1.2-2.6-2.7c0-1.5,1.2-2.7,2.7-2.6C162.1,185.6,163.3,186.8,163.3,188.3z"/>
	<path class="st15" d="M141,205.9l11.9-15.7l7.3,9.9l4.9-5.3l9.7,11.3L141,205.9z M163.3,188.3c0,1.5-1.2,2.7-2.7,2.6
		c-1.5,0-2.7-1.2-2.6-2.7c0-1.5,1.2-2.7,2.7-2.6C162.1,185.6,163.3,186.8,163.3,188.3z"/>
	<path class="st14" d="M140.7,272.3l0.3-58.6l78,0.4l-0.3,58.6L140.7,272.3z"/>
	<path class="st14" d="M140.7,272.3l27.5-36.3l16.7,22.9l11.5-12.1l22.3,26L140.7,272.3z M192.2,231.7c0,3.4-2.8,6.1-6.2,6.1
		s-6.1-2.8-6.1-6.2s2.8-6.1,6.2-6.1S192.3,228.3,192.2,231.7z"/>
	<path class="st15" d="M140.7,272.3l27.5-36.3l16.7,22.9l11.5-12.1l22.3,26L140.7,272.3z M192.2,231.7c0,3.4-2.8,6.1-6.2,6.1
		s-6.1-2.8-6.1-6.2s2.8-6.1,6.2-6.1S192.3,228.3,192.2,231.7z"/>
	<path class="st14" d="M185.6,205.9l0.1-25.4l33.7,0.2l-0.1,25.4L185.6,205.9z"/>
	<path class="st14" d="M185.6,205.9l11.9-15.7l7.2,9.9l5-5.3l9.6,11.3L185.6,205.9z"/>
	<circle class="st20" cx="205.2" cy="188.3" r="2.7"/>
	<path class="st15" d="M185.6,205.9l11.9-15.7l7.2,9.9l5-5.3l9.6,11.3L185.6,205.9z"/>
	<circle class="st15" cx="205.2" cy="188.3" r="2.7"/>
	<path class="st16" d="M420.8,115.7h-6.4c-0.6,0-1.3-0.1-1.9,0.2c-0.6,0.2-1.2,0.7-1.5,1.4c-0.2,0.3-0.3,0.7-0.4,1
		c-0.1,0.4,0,0.7,0,1.1v1.2c0,0.4,0,0.8-0.1,1.2c-0.2,0.8-0.7,1.6-1.4,2.1c-0.4,0.2-0.8,0.4-1.3,0.4H383c-0.3,0-0.6,0-0.9-0.1
		c-0.6-0.2-1.2-0.5-1.6-1s-0.7-1.1-0.8-1.7v-2c0-0.6,0-1.3-0.2-1.9s-0.6-1.1-1.1-1.5s-1.2-0.5-1.9-0.5h-14.8c-1.5,0-3,0.2-4.3,0.8
		c-1.4,0.6-2.6,1.5-3.6,2.7s-1.7,2.6-2,4.1c-0.1,0.4-0.1,0.8-0.2,1.2v159.9c0,1.1,0.1,2.1,0.4,3.1c0.6,2.1,2,4,3.8,5.3
		s4.1,1.8,6.3,1.7h64.7c2-0.1,4-0.9,5.6-2.2c0.8-0.6,1.5-1.4,2-2.2c0.6-0.8,1-1.8,1.2-2.7c0.3-1,0.4-2,0.4-3v-97.9
		c0-23.6,0-42.8,0.1-56v-4.7c0-1.5-0.2-2.8-0.7-4s-1.1-2.2-1.9-2.9c-0.7-0.8-1.5-1.4-2.2-1.8c-1.5-0.9-2.8-1.2-3.7-1.3
		c-0.4-0.1-0.8-0.1-1-0.1H425C423.9,115.6,422.6,115.6,420.8,115.7L420.8,115.7z"/>
	<path class="st21" d="M365.3,182.9h55.8v11.4h-55.8V182.9z"/>
	<path class="st13" d="M426.3,115.6h0.3c0.2,0,0.6,0,1,0.1c0.9,0.1,2.2,0.4,3.7,1.3c0.8,0.4,1.5,1,2.3,1.8c0.7,0.8,1.4,1.8,1.9,3
		s0.8,2.6,0.7,4v158.6c0,1-0.1,2-0.4,3s-0.7,1.9-1.3,2.8c-0.6,0.9-1.3,1.6-2.1,2.3c-1.6,1.3-3.6,2.1-5.7,2.2s-4.1,0-6.2,0H362
		c-2.2,0.1-4.6-0.5-6.5-1.8s-3.3-3.3-3.9-5.4c-0.3-1.1-0.4-2.2-0.4-3.4V125.7c0-0.4,0-0.8,0.1-1.2c0.1-0.4,0.1-0.8,0.2-1.2
		c0.4-1.6,1.1-3,2.1-4.2s2.3-2.1,3.7-2.8c1.4-0.6,2.9-0.9,4.4-0.8h14.8c0.7,0,1.4,0.2,2,0.5c0.6,0.4,1,1,1.2,1.6
		c0.3,0.6,0.2,1.3,0.2,2v1.9c0.1,0.6,0.3,1.2,0.7,1.7c0.4,0.5,0.9,0.8,1.5,0.9c0.3,0.1,0.6,0.1,0.9,0.1h24.8c0.4,0,0.9-0.2,1.2-0.4
		c0.7-0.5,1.2-1.2,1.4-2c0.1-0.4,0.1-0.8,0.1-1.2v-1.2c0-0.4,0-0.8,0.1-1.2c0.1-0.4,0.2-0.7,0.4-1.1c0.4-0.7,0.9-1.1,1.6-1.4
		s1.3-0.2,2-0.2H425C425.9,115.6,426.3,115.6,426.3,115.6l-11.7,0c-0.6,0-1.3-0.1-1.9,0.2c-0.6,0.2-1.2,0.7-1.5,1.4
		c-0.2,0.3-0.3,0.7-0.4,1c-0.1,0.4,0,0.7,0,1.1v1.2c0,0.4,0,0.8-0.1,1.2c-0.2,0.8-0.7,1.6-1.4,2.1c-0.4,0.2-0.8,0.4-1.3,0.4h-24.8
		c-0.3,0-0.6,0-0.9-0.1c-0.6-0.2-1.2-0.5-1.6-1s-0.7-1.1-0.8-1.7v-2c0-0.6,0-1.3-0.2-1.9s-0.6-1.1-1.1-1.5s-1.2-0.5-1.9-0.5h-14.8
		c-1.5,0-3,0.2-4.3,0.8c-1.4,0.6-2.6,1.5-3.6,2.7s-1.7,2.6-2,4.1c-0.1,0.4-0.1,0.8-0.2,1.2c0,0.4,0,0.8-0.1,1.2v158.4
		c0,1.1,0.1,2.2,0.4,3.3c0.6,2.1,2,4,3.8,5.3s4.1,1.8,6.3,1.7h64.7c2-0.1,4-0.9,5.6-2.2c0.8-0.6,1.5-1.4,2-2.2
		c0.6-0.8,1-1.8,1.2-2.7c0.3-1,0.4-2,0.4-3v-97.9c0-23.6,0-42.8,0.1-56v-4.7c0-1.5-0.2-2.8-0.7-4s-1.1-2.2-1.9-2.9
		c-0.7-0.8-1.5-1.4-2.2-1.8c-1.5-0.9-2.8-1.2-3.7-1.3c-0.4-0.1-0.8-0.1-1-0.1C426.5,115.6,426.3,115.6,426.3,115.6L426.3,115.6z"/>
	<path class="st13" d="M428.3,131.6c0,0-1.6,0.1-3.7,0.1h-3.7c0,0,1.6-0.1,3.7-0.1H428.3z M428.3,133.5c0,0-1.6,0.1-3.7,0.1h-3.7
		c0,0,1.6-0.1,3.7-0.1C426.6,133.4,428.3,133.5,428.3,133.5z M428.3,135.4c0,0-1.6,0.1-3.7,0.1h-3.7c0,0,1.6-0.1,3.7-0.1
		C426.6,135.3,428.3,135.3,428.3,135.4z M361.6,137.5h2.2v-1.8c0-0.2,0.3-0.5,0.5-0.5h0.7c0.3,0,0.5,0.3,0.5,0.6v1.7l-0.1-0.1h2
		l-0.1,0.1v-3.1c0-0.2-0.1-0.3-0.3-0.5l-0.9-0.9l-0.8-0.8l-0.4-0.4c-0.1-0.1-0.2-0.3-0.4-0.3s-0.3,0-0.5,0.1l-0.4,0.4l-0.7,0.7
		c-0.4,0.5-0.9,0.9-1.2,1.3c-0.1,0.2-0.1,0.5-0.1,0.7L361.6,137.5l0-3.1c0-0.1,0-0.3,0.1-0.4c0.4-0.4,0.8-0.8,1.2-1.3l0.7-0.7
		l0.4-0.4c0.2-0.1,0.4-0.2,0.6-0.1c0.2,0,0.3,0.2,0.5,0.3l0.4,0.4c0.3,0.3,0.6,0.5,0.8,0.8c0.3,0.3,0.6,0.6,0.9,0.8
		c0.1,0.1,0.2,0.1,0.2,0.2c0.1,0.1,0.1,0.2,0.1,0.3v3.2h-2.2v-1.8c0-0.2-0.2-0.4-0.4-0.5h-0.7c-0.2,0-0.4,0.2-0.4,0.4v1.7h-2
		C361.7,137.5,361.6,137.5,361.6,137.5L361.6,137.5z"/>
	<path class="st21" d="M365.5,200h55.8v11.4h-55.8V200z M365.5,216.5h55.8v11.4h-55.8V216.5z"/>
	<path class="st14" d="M407.9,250.6h-28c-3.1,0-5.7-2.6-5.7-5.7s2.6-5.7,5.7-5.7h28c3.1,0,5.7,2.6,5.7,5.7S411,250.6,407.9,250.6z"
		/>
	<path class="st17" d="M411.3,171.1c0,0.3-7.8,0.5-17.5,0.5s-17.5-0.2-17.5-0.5s7.8-0.5,17.5-0.5
		C403.4,170.6,411.3,170.9,411.3,171.1z"/>
	<path class="st18" d="M375.1,103.8h-7.2c-0.7,0-1.5-0.1-2.2,0.2c-0.7,0.3-1.3,0.8-1.7,1.5c-0.2,0.4-0.3,0.7-0.4,1.2
		c-0.1,0.4,0,0.8-0.1,1.3v1.3c0,0.4,0,0.9-0.1,1.4c-0.2,0.9-0.8,1.8-1.6,2.3c-0.4,0.3-0.9,0.4-1.4,0.5h-27.5c-0.3,0-0.7,0-1-0.1
		c-0.7-0.2-1.3-0.6-1.8-1.1s-0.8-1.2-0.9-1.9v-2.2c0-0.7,0.1-1.5-0.2-2.1c-0.2-0.7-0.7-1.3-1.3-1.7c-0.6-0.4-1.3-0.6-2.1-0.6h-16.5
		c-1.6,0-3.3,0.2-4.8,0.9s-2.9,1.7-4,3s-1.9,2.9-2.3,4.6c-0.1,0.4-0.1,0.9-0.2,1.3c0,0.4,0,0.7-0.1,1.1v177.1c0,1.2,0.1,2.4,0.4,3.5
		c0.7,2.4,2.2,4.5,4.3,5.9c2,1.4,4.5,2.1,7,1.9h72.2c2.3-0.1,4.5-1,6.2-2.4c0.9-0.7,1.6-1.6,2.2-2.5s1.1-2,1.4-3
		c0.3-1.1,0.4-2.2,0.4-3.3v-16.6c0-34.8,0-66.2,0.1-92.6c0-26.4,0-47.7,0.1-62.4v-5.2c0-1.6-0.3-3.1-0.8-4.5
		c-0.5-1.3-1.3-2.4-2.1-3.3c-0.8-0.9-1.7-1.6-2.5-2c-1.7-1-3.1-1.3-4.1-1.5c-0.5-0.1-0.9-0.1-1.1-0.1h-1.9
		C378.5,103.8,377,103.8,375.1,103.8L375.1,103.8z"/>
	<path class="st13" d="M381.1,104h0.4c0.3,0,0.6,0,1.1,0.1c1,0.1,2.5,0.4,4.2,1.4c0.8,0.5,1.7,1.2,2.5,2c0.8,0.9,1.6,2,2.1,3.3
		s0.8,2.9,0.8,4.5v176.8c0,1.1-0.1,2.3-0.4,3.4s-0.8,2.2-1.4,3.1c-0.6,1-1.4,1.8-2.3,2.6c-1.8,1.4-4.1,2.4-6.4,2.5s-4.6,0-7,0h-65.3
		c-2.5,0.1-5.1-0.5-7.2-2c-2.1-1.4-3.7-3.6-4.4-6.1c-0.4-1.2-0.5-2.5-0.5-3.7V115.2c0-0.4,0-0.9,0.1-1.3s0.1-0.9,0.2-1.3
		c0.4-1.7,1.2-3.4,2.3-4.7c1.1-1.3,2.5-2.4,4.1-3.1s3.3-1,4.9-0.9h16.5c0.8,0,1.6,0.2,2.2,0.6s1.1,1.1,1.4,1.8
		c0.3,0.7,0.2,1.5,0.2,2.2v2.2c0.1,0.7,0.4,1.3,0.8,1.9c0.4,0.5,1,0.9,1.7,1c0.3,0.1,0.7,0.1,1,0.1h27.5c0.5-0.1,1-0.2,1.4-0.5
		c0.8-0.5,1.4-1.3,1.6-2.2c0.1-0.4,0.1-0.9,0.1-1.3v-1.3c0-0.4,0-0.9,0.1-1.3s0.2-0.8,0.4-1.2c0.4-0.7,1-1.3,1.8-1.6
		c0.7-0.3,1.5-0.2,2.2-0.2h11.6C380.6,104,381.1,104,381.1,104l-13.1,0c-0.7,0-1.5-0.1-2.2,0.2c-0.7,0.3-1.3,0.8-1.7,1.5
		c-0.2,0.4-0.3,0.7-0.4,1.2c-0.1,0.4,0,0.8-0.1,1.3v1.3c0,0.4,0,0.9-0.1,1.4c-0.2,0.9-0.8,1.8-1.6,2.3c-0.4,0.3-0.9,0.4-1.4,0.5H333
		c-0.3,0-0.7,0-1-0.1c-0.7-0.2-1.3-0.6-1.8-1.1s-0.8-1.2-0.9-1.9v-2.2c0-0.7,0.1-1.5-0.2-2.1c-0.2-0.7-0.7-1.3-1.3-1.7
		c-0.6-0.4-1.3-0.6-2.1-0.6h-16.5c-1.6,0-3.3,0.2-4.8,0.9s-2.9,1.7-4,3s-1.9,2.9-2.3,4.6c-0.1,0.4-0.1,0.9-0.2,1.3
		c0,0.4-0.1,0.9-0.1,1.3v176.7c0,1.2,0.1,2.5,0.4,3.7c0.7,2.4,2.2,4.5,4.3,5.9c2,1.4,4.5,2.1,7,1.9h72.2c2.3-0.1,4.5-1,6.2-2.4
		c0.9-0.7,1.6-1.6,2.2-2.5s1.1-2,1.4-3c0.3-1.1,0.4-2.2,0.4-3.3v-16.6c0-34.8,0-66.2,0.1-92.6c0-26.4,0-47.7,0.1-62.4v-5.2
		c0-1.6-0.3-3.1-0.8-4.5c-0.5-1.3-1.3-2.4-2.1-3.3c-0.8-0.9-1.7-1.6-2.5-2c-1.7-1-3.1-1.3-4.1-1.5c-0.5-0.1-0.9-0.1-1.1-0.1
		C381.2,104,381.1,104,381.1,104L381.1,104z"/>
	<path class="st13" d="M383.2,121.9c0,0-1.8,0.1-4.1,0.1s-4.1,0-4.1-0.1c0,0,1.8-0.1,4.1-0.1S383.2,121.8,383.2,121.9z M383.2,124
		c0,0-1.8,0.1-4.1,0.1s-4.1,0-4.1-0.1c0,0,1.8-0.1,4.1-0.1S383.2,123.9,383.2,124z M383.2,126.1c0,0-1.8,0.1-4.1,0.1s-4.1,0-4.1-0.1
		c0,0,1.8-0.1,4.1-0.1S383.2,126,383.2,126.1z M308.9,128.5h2.4v-2c0-0.3,0.3-0.5,0.6-0.5h0.8c0.3,0,0.6,0.3,0.6,0.7v1.8l-0.1-0.1
		h2.2l-0.1,0.1v-3.4c0-0.2-0.1-0.4-0.3-0.5c-0.3-0.3-0.6-0.6-1-0.9l-0.9-0.9c-0.2-0.1-0.3-0.3-0.4-0.4c-0.2-0.1-0.3-0.3-0.5-0.3
		s-0.4,0-0.5,0.1l-0.4,0.4l-0.8,0.8l-1.4,1.4c-0.2,0.2-0.1,0.5-0.1,0.8v2.8C308.9,128.4,308.9,128.5,308.9,128.5l0-3.6
		c0-0.2,0-0.3,0.1-0.5c0.4-0.5,0.9-0.9,1.4-1.5l0.8-0.8l0.4-0.4c0.2-0.1,0.4-0.2,0.6-0.1s0.4,0.2,0.5,0.4c0.1,0.1,0.3,0.3,0.5,0.4
		l0.9,0.9c0.3,0.3,0.6,0.6,1,0.9c0.1,0.1,0.2,0.2,0.2,0.3c0.1,0.1,0.1,0.2,0.1,0.4v3.5H313v-1.9c0-0.3-0.2-0.5-0.4-0.5h-0.8
		c-0.2,0-0.4,0.2-0.5,0.4v2H309L308.9,128.5z"/>
	<circle class="st14" cx="346.1" cy="169.7" r="18.5"/>
	<path class="st19" d="M352.4,177.1h-12.7v-1.6c0-3.5,2.8-6.3,6.3-6.3s6.3,2.8,6.3,6.3v1.6H352.4L352.4,177.1z"/>
	<circle class="st19" cx="346.1" cy="166" r="3.7"/>
	<path class="st22" d="M313.2,209.3h62.3V222h-62.3V209.3z M313.2,227.8h62.3v12.7h-62.3V227.8z"/>
	<path class="st14" d="M360.5,265.8h-31.3c-3.5,0-6.4-2.8-6.4-6.4c0-3.5,2.8-6.4,6.4-6.4h31.3c3.5,0,6.4,2.8,6.4,6.4
		C366.8,262.9,364,265.8,360.5,265.8z"/>
	<path class="st17" d="M364.4,201.7c0,0.3-8.8,0.6-19.5,0.6c-10.8,0-19.5-0.3-19.5-0.6s8.7-0.6,19.5-0.6
		C355.6,201.1,364.4,201.3,364.4,201.7z"/>
	<path class="st9" d="M321.8,218.5H319c-0.3,0-0.5-0.2-0.5-0.5c0-1,0.8-1.8,1.8-1.8h0.1c1,0,1.8,0.8,1.8,1.8
		C322.3,218.3,322,218.5,321.8,218.5z"/>
	<path class="st9" d="M321.5,215.2c0,0.6-0.5,1.1-1.1,1.1s-1.1-0.5-1.1-1.1s0.5-1.1,1.1-1.1S321.5,214.6,321.5,215.2z M318.8,234.4
		h3.3v2.3h-3.3V234.4z"/>
	<path class="st9" d="M322.4,234.8h-1.1v-0.7c0-0.5-0.4-0.9-0.9-0.9s-0.9,0.4-0.9,0.9v0.7h-1.1v-0.7c0-1.1,0.9-2,2-2s2,0.9,2,2
		V234.8z"/>
	<path class="st23" d="M309.1,64.8h-10.7c-1.1,0-2.2-0.1-3.2,0.3s-2,1.2-2.5,2.3c-0.3,0.5-0.5,1.1-0.6,1.7S292,70.3,292,71v2
		c0,0.7,0,1.4-0.1,2c-0.3,1.4-1.1,2.7-2.4,3.4c-0.6,0.4-1.3,0.7-2.1,0.7c-0.8,0.1-1.5,0-2.3,0h-38.7c-0.5,0-1,0-1.6-0.2
		c-1-0.3-2-0.8-2.7-1.6c-0.7-0.8-1.2-1.8-1.3-2.9c-0.1-0.5-0.1-1.1-0.1-1.6v-1.6c0-1.1,0.1-2.2-0.3-3.2c-0.3-1-1-1.9-1.9-2.5
		s-2-0.9-3.1-0.8h-24.7c-2.4,0-4.9,0.3-7.2,1.4c-2.3,1-4.3,2.5-6,4.5c-1.6,1.9-2.8,4.3-3.4,6.8c-0.2,0.6-0.2,1.3-0.3,1.9
		c0,0.5-0.1,1.1-0.1,1.6v263.6c0,1.8,0.1,3.5,0.7,5.2c1.1,3.5,3.3,6.7,6.4,8.8c3.1,2.1,6.8,3.1,10.5,2.9h97.2c3.5,0,6.9,0.1,10.3,0
		c3.4-0.2,6.7-1.5,9.3-3.6c1.3-1.1,2.4-2.3,3.3-3.7c0.9-1.4,1.6-2.9,2-4.5c0.5-1.6,0.6-3.2,0.6-4.9V320c0-51.9,0.1-98.6,0.1-137.8
		s0.1-71,0.1-92.9v-7.8c0-2.4-0.4-4.7-1.2-6.6c-0.8-2-1.9-3.6-3.1-4.9s-2.5-2.3-3.7-3c-2.5-1.5-4.7-2-6.1-2.2
		c-0.7-0.1-1.3-0.1-1.7-0.2h-2.8C314.2,64.8,312,64.8,309.1,64.8z"/>
	<path class="st13" d="M318.1,64.9h0.6c0.4,0,0.9,0,1.7,0.1c1.5,0.2,3.7,0.6,6.2,2.1c1.3,0.7,2.5,1.7,3.8,3c1.2,1.3,2.3,2.9,3.1,4.9
		c0.8,2,1.3,4.2,1.2,6.7v7.7c0,21.9,0,53.6,0.1,92.7v162.1c0,1.7-0.1,3.4-0.6,5s-1.1,3.2-2.1,4.6c-0.9,1.4-2.1,2.7-3.4,3.8
		c-2.7,2.1-6,3.5-9.5,3.7c-3.4,0.1-6.9,0-10.3,0h-97c-3.7,0.2-7.6-0.8-10.7-3c-3.1-2.1-5.4-5.4-6.5-9c-0.6-1.8-0.7-3.7-0.7-5.6V81.2
		c0-0.7,0.1-1.3,0.1-2c0.1-0.7,0.2-1.3,0.3-2c0.6-2.6,1.8-5,3.5-7s3.8-3.5,6.1-4.6c2.3-1,4.9-1.4,7.3-1.4h24.6
		c1.1-0.1,2.3,0.3,3.2,0.9c0.9,0.7,1.6,1.6,2,2.6c0.4,1.1,0.3,2.2,0.3,3.2v1.6c0,0.5,0,1.1,0.1,1.6c0.1,1,0.6,2,1.2,2.8
		c0.7,0.8,1.5,1.3,2.5,1.6c0.5,0.1,1,0.2,1.5,0.1h40.9c0.7-0.1,1.4-0.3,2-0.7c1.2-0.8,2-2,2.3-3.3c0.2-0.7,0.1-1.3,0.1-2v-2
		c0-0.6,0-1.3,0.1-1.9s0.3-1.2,0.6-1.8c0.6-1.1,1.6-1.9,2.6-2.3c1.1-0.5,2.2-0.3,3.3-0.3h17.3C317.3,64.9,318.1,64.9,318.1,64.9
		l-19.5,0c-1,0-2.2-0.1-3.2,0.3s-2,1.2-2.5,2.3c-0.3,0.5-0.5,1.1-0.6,1.7s-0.1,1.2-0.1,1.9v2c0,0.7,0,1.4-0.1,2
		c-0.3,1.4-1.1,2.7-2.4,3.4c-0.6,0.4-1.3,0.7-2.1,0.7c-0.8,0.1-1.5,0-2.3,0h-38.7c-0.5,0-1,0-1.5-0.2c-1-0.3-2-0.8-2.7-1.6
		c-0.7-0.8-1.2-1.8-1.3-2.9c-0.1-0.5-0.1-1.1-0.1-1.6v-1.6c0-1.1,0.1-2.2-0.3-3.1c-0.3-1-1-1.9-1.9-2.5s-2-0.9-3.1-0.8h-24.6
		c-2.4,0-4.9,0.3-7.2,1.4c-2.3,1-4.3,2.5-6,4.5c-1.6,1.9-2.8,4.3-3.4,6.8c-0.2,0.6-0.2,1.3-0.3,1.9c0,0.7-0.1,1.3-0.1,2V344
		c0,1.8,0.1,3.7,0.7,5.4c1,3.5,3.3,6.7,6.3,8.7c3,2.1,6.7,3.1,10.4,2.9h97c3.4,0,6.9,0.1,10.3,0c3.4-0.2,6.6-1.5,9.2-3.6
		c1.3-1.1,2.4-2.3,3.3-3.7c0.9-1.4,1.6-2.9,2-4.5c0.5-1.6,0.6-3.2,0.6-4.9v-24.6c0-51.8,0.1-98.4,0.1-137.5
		c0-39.2,0.1-70.8,0.1-92.7v-7.7c0-2.4-0.4-4.7-1.2-6.6c-0.8-1.9-1.9-3.6-3.1-4.9s-2.5-2.3-3.7-3c-2.5-1.5-4.7-2-6.1-2.2
		c-0.7-0.1-1.3-0.1-1.7-0.2L318.1,64.9L318.1,64.9z"/>
	<path class="st17" d="M321.3,91.5c0,0.1-2.7,0.2-6.1,0.2s-6.1,0-6.1-0.1s2.7-0.2,6.1-0.2C318.5,91.4,321.3,91.4,321.3,91.5z
		 M321.3,94.6c0,0.1-2.7,0.2-6.1,0.2s-6.1,0-6.1-0.1s2.7-0.2,6.1-0.2S321.3,94.5,321.3,94.6z M321.3,97.7c0,0.1-2.7,0.2-6.1,0.2
		s-6.1,0-6.1-0.1s2.7-0.2,6.1-0.2S321.3,97.6,321.3,97.7z M210.9,101.2h1c0.7,0,1.5,0,2.6-0.1l-0.1,0.1v-3c0.1-0.4,0.4-0.8,0.9-0.8
		h1.2c0.5,0.1,0.9,0.5,0.8,1v2.7l-0.1-0.1h3.3l-0.1,0.1V96c0-0.3-0.2-0.5-0.5-0.8c-0.5-0.5-1-0.9-1.4-1.4l-1.4-1.4l-0.7-0.7
		c-0.2-0.2-0.4-0.4-0.7-0.5s-0.5,0-0.7,0.1l-0.6,0.6l-1.2,1.2c-0.7,0.8-1.5,1.5-2.1,2.1c-0.2,0.4-0.1,0.8-0.2,1.2V101.2v-5.3
		c0-0.2,0.1-0.5,0.2-0.7c0.6-0.7,1.3-1.4,2.1-2.2l1.2-1.2l0.6-0.6c0.3-0.2,0.6-0.3,0.9-0.2c0.3,0.1,0.6,0.4,0.8,0.6l0.7,0.7
		c0.5,0.4,0.9,0.9,1.4,1.4l1.4,1.4c0.1,0.1,0.3,0.2,0.4,0.4c0.1,0.2,0.2,0.4,0.2,0.6v5.2h-3.5v-2.8c0-0.4-0.3-0.7-0.7-0.8h-1.2
		c-0.4,0-0.6,0.3-0.7,0.6v3h-3.4C211,101.3,210.9,101.2,210.9,101.2L210.9,101.2z"/>
	<path class="st16" d="M311.8,138.5h-97c-4.9,0-8.8-3.9-8.8-8.8v-3.3c0-4.9,3.9-8.8,8.8-8.8h97c4.9,0,8.8,3.9,8.8,8.8v3.3
		C320.6,134.6,316.7,138.5,311.8,138.5z"/>
	<path class="st13" d="M311.8,138.5c0,0,0.2,0,0.7-0.1c0.4,0,1.1-0.1,1.9-0.4c0.8-0.3,1.8-0.7,2.8-1.5c1-0.7,2-1.8,2.6-3.3
		c0.3-0.7,0.6-1.5,0.7-2.4s0.1-1.8,0.1-2.8s0-2-0.1-3.1c-0.2-1-0.5-2.1-1.1-3.1c-1.2-1.9-3.2-3.6-5.8-4c-1.3-0.2-2.6-0.1-4-0.2h-4.2
		c-23.2,0-55.1,0-90.4,0.1c-2.2,0-4.3,0.8-5.8,2.3c-1.6,1.4-2.5,3.5-2.7,5.6c-0.1,1,0,2.1,0,3.2c0,1.1,0,2.1,0.3,3.1
		c0.6,2,1.9,3.7,3.6,4.9c0.8,0.6,1.8,1,2.8,1.2s2,0.2,3,0.2h58.6c11.6,0,20.9,0.1,27.4,0.1h9.4C311.6,138.5,311.8,138.5,311.8,138.5
		h-10.1c-6.5,0-15.8,0-27.4,0.1h-58.6c-1,0-2.1,0-3.1-0.2s-2-0.6-2.9-1.2c-1.8-1.2-3.1-3-3.7-5.1c-0.3-1-0.4-2.2-0.3-3.2v-3.2
		c0.2-2.2,1.2-4.3,2.8-5.8s3.9-2.4,6.1-2.4c35.3,0,67.3,0,90.4,0.1h4.2c1.4,0,2.7-0.1,4,0.2c2.6,0.5,4.8,2.2,5.9,4.2
		c0.6,1,1,2.1,1.2,3.1c0.2,1.1,0.1,2.1,0.1,3.1s0,1.9-0.1,2.8c-0.1,0.9-0.4,1.7-0.7,2.5c-0.7,1.5-1.7,2.6-2.7,3.3
		c-1,0.8-2,1.2-2.8,1.4s-1.5,0.3-1.9,0.3H311.8L311.8,138.5z"/>
	<path class="st17" d="M313.6,127.6c0,0,0-0.3-0.2-0.9s-0.5-1.4-1.4-2c-0.8-0.6-2.1-1-3.4-0.5c-1.3,0.4-2.4,1.8-2.3,3.4
		c0,1.6,1.1,2.9,2.3,3.4c1.3,0.5,2.6,0.1,3.4-0.5s1.2-1.4,1.4-2C313.6,127.9,313.6,127.6,313.6,127.6v0.2c0,0.2,0,0.4-0.1,0.7
		c-0.1,0.6-0.5,1.5-1.4,2.2s-2.3,1.1-3.7,0.6c-1.4-0.5-2.7-2-2.6-3.7c0-1.8,1.2-3.3,2.6-3.7c1.4-0.5,2.9-0.1,3.7,0.6
		c0.9,0.7,1.2,1.6,1.4,2.2c0.1,0.3,0.1,0.5,0.1,0.7V127.6z"/>
	<path class="st17" d="M315.7,134.1c-0.1,0.1-0.9-0.7-1.8-1.7s-1.6-1.9-1.5-2s0.9,0.7,1.8,1.7S315.8,134,315.7,134.1z"/>
	<path class="st9" d="M221.5,126h-2v-0.5h4.7v0.5h-2v5.3h-0.6L221.5,126L221.5,126z M228.3,129.3h-3.7c0.1,0.9,0.8,1.5,1.7,1.5
		c0.5,0,1-0.2,1.3-0.6l0.3,0.4c-0.4,0.5-1,0.7-1.7,0.7c-1.4,0-2.3-0.9-2.3-2.2s0.9-2.2,2.1-2.2c1.2,0,2.1,0.9,2.1,2.2
		C228.4,129.1,228.3,129.2,228.3,129.3L228.3,129.3z M224.7,128.8h3.1c-0.1-0.9-0.7-1.5-1.6-1.5C225.4,127.4,224.8,128,224.7,128.8z
		 M232.2,131.3l-1.4-1.8l-1.4,1.8h-0.7l1.7-2.2l-1.6-2.1h0.7l1.3,1.7l1.3-1.7h0.6l-1.6,2.1l1.7,2.2L232.2,131.3L232.2,131.3z
		 M236.2,131c-0.2,0.2-0.6,0.3-0.9,0.3c-0.8,0-1.3-0.5-1.3-1.3v-2.6h-0.8v-0.5h0.8v-1h0.6v1h1.3v0.5h-1.3v2.6c0,0.5,0.3,0.8,0.8,0.8
		c0.2,0,0.5-0.1,0.6-0.2L236.2,131L236.2,131z"/>
	<path class="st17" d="M284.2,158.4c0,0.1-8.4,0.2-18.7,0.2c-10.3,0-18.7-0.1-18.7-0.2s8.4-0.2,18.7-0.2
		C275.8,158.1,284.2,158.2,284.2,158.4z M314.1,166c0,0.1-15.1,0.2-33.7,0.2s-33.7-0.1-33.7-0.2s15.1-0.2,33.7-0.2
		S314.1,165.9,314.1,166z M313.3,171.5c0,0.1-14.9,0.2-33.3,0.2s-33.3-0.1-33.3-0.2s14.9-0.2,33.3-0.2S313.3,171.4,313.3,171.5z
		 M286,176.8c0,0.1-8.8,0.2-19.6,0.2c-10.9,0-19.6-0.1-19.6-0.2s8.8-0.2,19.6-0.2C277.2,176.6,286,176.7,286,176.8z"/>
	<path class="st20" d="M284.2,200.2c0,0.1-8.4,0.2-18.7,0.2c-10.3,0-18.7-0.1-18.7-0.2s8.4-0.2,18.7-0.2
		C275.8,199.9,284.2,200,284.2,200.2z"/>
	<path class="st13" d="M314.1,207.8c0,0.1-15.1,0.2-33.7,0.2s-33.7-0.1-33.7-0.2s15.1-0.2,33.7-0.2S314.1,207.7,314.1,207.8z"/>
	<path class="st17" d="M313.3,213.3c0,0.1-14.9,0.2-33.3,0.2s-33.3-0.1-33.3-0.2s14.9-0.2,33.3-0.2S313.3,213.2,313.3,213.3z"/>
	<path class="st13" d="M286,218.6c0,0.1-8.8,0.2-19.6,0.2c-10.9,0-19.6-0.1-19.6-0.2s8.8-0.2,19.6-0.2
		C277.2,218.4,286,218.5,286,218.6z"/>
	<path class="st20" d="M284.2,242c0,0.1-8.4,0.2-18.7,0.2c-10.3,0-18.7-0.1-18.7-0.2s8.4-0.2,18.7-0.2
		C275.8,241.7,284.2,241.8,284.2,242z"/>
	<path class="st17" d="M314.1,249.6c0,0.1-15.1,0.2-33.7,0.2s-33.7-0.1-33.7-0.2s15.1-0.2,33.7-0.2S314.1,249.5,314.1,249.6z
		 M313.3,255.1c0,0.1-14.9,0.2-33.3,0.2s-33.3-0.1-33.3-0.2s14.9-0.2,33.3-0.2S313.3,255,313.3,255.1z"/>
	<path class="st13" d="M286,260.4c0,0.1-8.8,0.2-19.6,0.2c-10.9,0-19.6-0.1-19.6-0.2s8.8-0.2,19.6-0.2
		C277.2,260.2,286,260.3,286,260.4z"/>
	<path class="st20" d="M284.2,283.8c0,0.1-8.4,0.2-18.7,0.2c-10.3,0-18.7-0.1-18.7-0.2s8.4-0.2,18.7-0.2
		C275.8,283.5,284.2,283.6,284.2,283.8z"/>
	<path class="st17" d="M314.1,291.4c0,0.1-15.1,0.2-33.7,0.2s-33.7-0.1-33.7-0.2s15.1-0.2,33.7-0.2S314.1,291.3,314.1,291.4z
		 M313.3,296.9c0,0.1-14.9,0.2-33.3,0.2s-33.3-0.1-33.3-0.2s14.9-0.2,33.3-0.2S313.3,296.8,313.3,296.9z"/>
	<path class="st13" d="M286,302.2c0,0.1-8.8,0.2-19.6,0.2c-10.9,0-19.6-0.1-19.6-0.2s8.8-0.2,19.6-0.2
		C277.2,302,286,302.1,286,302.2z"/>
	<path class="st17" d="M284.2,325.3c0,0.1-8.4,0.2-18.7,0.2c-10.3,0-18.7-0.1-18.7-0.2s8.4-0.2,18.7-0.2
		C275.8,325,284.2,325.1,284.2,325.3z M314.1,332.9c0,0.1-15.1,0.2-33.7,0.2s-33.7-0.1-33.7-0.2s15.1-0.2,33.7-0.2
		S314.1,332.8,314.1,332.9z M313.3,338.4c0,0.1-14.9,0.2-33.3,0.2s-33.3-0.1-33.3-0.2s14.9-0.2,33.3-0.2S313.3,338.3,313.3,338.4z
		 M286,343.7c0,0.1-8.8,0.2-19.6,0.2c-10.9,0-19.6-0.1-19.6-0.2s8.8-0.2,19.6-0.2C277.2,343.5,286,343.6,286,343.7z"/>
	<path class="st14" d="M206.4,181l0.1-22.9l30.5,0.2l-0.1,22.9L206.4,181z"/>
	<path class="st14" d="M206.5,181l10.7-14.2l6.6,8.9l4.5-4.7l8.7,10.2L206.5,181z M226.6,165.1c0,1.3-1.1,2.4-2.4,2.4
		c-1.3,0-2.4-1.1-2.4-2.4c0-1.3,1.1-2.4,2.4-2.4C225.6,162.7,226.6,163.8,226.6,165.1z"/>
	<path class="st15" d="M206.5,181l10.7-14.2l6.6,8.9l4.5-4.7l8.7,10.2L206.5,181z M226.6,165.1c0,1.3-1.1,2.4-2.4,2.4
		c-1.3,0-2.4-1.1-2.4-2.4c0-1.3,1.1-2.4,2.4-2.4C225.6,162.7,226.6,163.8,226.6,165.1z"/>
	<path class="st14" d="M206.5,222.3l0.1-22.9l30.5,0.2l-0.1,22.9L206.5,222.3z"/>
	<path class="st14" d="M206.5,222.3l10.7-14.2l6.6,8.9l4.5-4.7l8.7,10.1L206.5,222.3z M226.6,206.4c0,1.3-1.1,2.4-2.4,2.4
		c-1.3,0-2.4-1.1-2.4-2.4c0-1.3,1.1-2.4,2.4-2.4C225.6,204,226.6,205,226.6,206.4z"/>
	<path class="st15" d="M206.5,222.3l10.7-14.2l6.6,8.9l4.5-4.7l8.7,10.1L206.5,222.3z M226.6,206.4c0,1.3-1.1,2.4-2.4,2.4
		c-1.3,0-2.4-1.1-2.4-2.4c0-1.3,1.1-2.4,2.4-2.4C225.6,204,226.6,205,226.6,206.4z"/>
	<path class="st14" d="M206.5,263.5l0.1-22.9l30.5,0.2l-0.1,22.9L206.5,263.5z"/>
	<path class="st14" d="M206.5,263.5l10.7-14.2l6.6,9l4.5-4.8l8.7,10.2L206.5,263.5z M226.6,247.6c0,1.3-1.1,2.4-2.4,2.4
		c-1.3,0-2.4-1.1-2.4-2.4c0-1.3,1.1-2.4,2.4-2.4C225.6,245.2,226.6,246.3,226.6,247.6z"/>
	<path class="st15" d="M206.5,263.5l10.7-14.2l6.6,9l4.5-4.8l8.7,10.2L206.5,263.5z M226.6,247.6c0,1.3-1.1,2.4-2.4,2.4
		c-1.3,0-2.4-1.1-2.4-2.4c0-1.3,1.1-2.4,2.4-2.4C225.6,245.2,226.6,246.3,226.6,247.6z"/>
	<path class="st14" d="M206.4,304.8l0.1-22.9l30.5,0.2l-0.1,22.9L206.4,304.8z"/>
	<path class="st14" d="M206.5,304.8l10.7-14.2l6.6,8.9l4.5-4.7L237,305L206.5,304.8z M226.6,288.9c0,1.3-1.1,2.4-2.4,2.4
		c-1.3,0-2.4-1.1-2.4-2.4s1.1-2.4,2.4-2.4C225.6,286.5,226.6,287.6,226.6,288.9z"/>
	<path class="st15" d="M206.5,304.8l10.7-14.2l6.6,8.9l4.5-4.7L237,305L206.5,304.8z M226.6,288.9c0,1.3-1.1,2.4-2.4,2.4
		c-1.3,0-2.4-1.1-2.4-2.4s1.1-2.4,2.4-2.4C225.6,286.5,226.6,287.6,226.6,288.9z"/>
	<path class="st14" d="M206.5,345.9l0.1-22.9l30.5,0.2l-0.1,22.9L206.5,345.9z"/>
	<path class="st14" d="M206.5,345.9l10.7-14.2l6.6,8.9l4.5-4.7L237,346L206.5,345.9z M226.6,330c0,1.3-1.1,2.4-2.4,2.4
		c-1.3,0-2.4-1.1-2.4-2.4s1.1-2.4,2.4-2.4C225.6,327.5,226.6,328.6,226.6,330z"/>
	<path class="st15" d="M206.5,345.9l10.7-14.2l6.6,8.9l4.5-4.7L237,346L206.5,345.9z M226.6,330c0,1.3-1.1,2.4-2.4,2.4
		c-1.3,0-2.4-1.1-2.4-2.4s1.1-2.4,2.4-2.4C225.6,327.5,226.6,328.6,226.6,330z"/>
	<circle class="st14" cx="436" cy="118.7" r="10.9"/>
	<path class="st19" d="M435.4,122.3c-0.1,0-0.2,0-0.3-0.1l-3.7-3c-0.2-0.2-0.2-0.5-0.1-0.7c0.2-0.2,0.5-0.2,0.7-0.1l3.3,2.7l4.6-5.7
		c0.2-0.2,0.5-0.2,0.7-0.1c0.2,0.2,0.2,0.5,0.1,0.7l-5,6.1C435.7,122.2,435.5,122.3,435.4,122.3L435.4,122.3z"/>
	<circle class="st14" cx="389.1" cy="103.8" r="14.9"/>
	<path class="st19" d="M388.2,109c-0.2,0-0.5-0.1-0.6-0.2l-5-4.1c-0.4-0.4-0.5-1-0.1-1.4s1-0.5,1.4-0.1l4.2,3.5l6.2-7.6
		c0.3-0.4,1-0.5,1.4-0.1c0.4,0.3,0.5,1,0.1,1.4l-6.8,8.3C388.8,108.8,388.5,109,388.2,109L388.2,109z"/>
</g>
<g id="Magnifying_Glass">
	<path class="st13" d="M325.8,306.4c-15.7-4.5-25.1-20.3-22-36c-0.3,0.8-0.6,1.5-0.8,2.3c-4.7,16.5,4.9,33.7,21.4,38.4
		c16.5,4.7,33.7-4.9,38.4-21.4l0.6-2.4C357.8,302.4,341.5,310.9,325.8,306.4z"/>
	<path class="st12" d="M341.1,251.5c15.7,4.5,25.1,20.3,22,36c0.3-0.8,0.6-1.5,0.8-2.3c4.7-16.5-4.9-33.7-21.4-38.4
		s-33.7,4.9-38.4,21.4l-0.6,2.4C309.1,255.5,325.4,247,341.1,251.5z"/>
	<path class="st13" d="M364.2,284.9c0,0,0-0.2,0.1-0.5s0.2-0.8,0.3-1.4c0.1-0.3,0.1-0.7,0.2-1.1s0.1-0.8,0.2-1.3
		c0.1-0.9,0.3-2,0.2-3.3c0.1-2.5-0.2-5.5-1.1-8.9s-2.5-7.1-5.2-10.6c-2.6-3.5-6.3-6.8-10.9-9.1c-1.2-0.5-2.3-1.1-3.6-1.5
		c-0.6-0.2-1.3-0.4-1.9-0.6c-0.7-0.2-1.3-0.3-2-0.5c-0.3-0.1-0.7-0.2-1-0.2l-1-0.1c-0.7-0.1-1.4-0.2-2.1-0.2c-1.4,0-2.8-0.1-4.3,0
		c-1.5,0-2.9,0.4-4.4,0.6c-0.7,0.2-1.4,0.4-2.2,0.6c-0.7,0.2-1.4,0.4-2.1,0.7c-1.4,0.5-2.8,1.2-4.2,1.9c-1.3,0.8-2.7,1.6-3.9,2.6
		c-2.5,1.9-4.8,4.2-6.6,7c-1.8,2.7-3.2,5.7-4.2,8.9c-0.9,3.2-1.3,6.5-1.1,9.8c0.1,3.3,0.8,6.4,1.9,9.4c0.5,1.5,1.2,2.9,1.9,4.3
		c0.8,1.3,1.6,2.6,2.6,3.8c0.5,0.6,0.9,1.2,1.4,1.7s1,1.1,1.5,1.6c1.1,1,2.2,2,3.4,2.8c1.1,0.9,2.4,1.6,3.6,2.3
		c0.6,0.3,1.3,0.6,1.9,0.9l0.9,0.4c0.3,0.1,0.7,0.2,1,0.3c0.7,0.2,1.3,0.4,1.9,0.7c0.6,0.2,1.3,0.3,2,0.5c1.3,0.4,2.6,0.5,3.9,0.6
		c5.1,0.5,10-0.4,14.1-2s7.4-3.9,10-6.3c2.5-2.4,4.4-4.8,5.6-7c0.7-1,1.1-2,1.5-2.9c0.2-0.4,0.4-0.8,0.5-1.2c0.1-0.4,0.3-0.7,0.4-1
		c0.2-0.6,0.4-1.1,0.5-1.4C364.2,285.1,364.2,284.9,364.2,284.9c0,0,0,0.2-0.1,0.5s-0.3,0.8-0.5,1.4c-0.1,0.3-0.2,0.7-0.3,1
		c-0.1,0.4-0.3,0.8-0.5,1.2c-0.4,0.9-0.8,1.9-1.5,2.9c-1.2,2.2-3,4.6-5.5,7.1c-2.5,2.4-5.9,4.8-10,6.4s-9,2.6-14.3,2.1
		c-1.3-0.2-2.6-0.3-3.9-0.6c-0.7-0.2-1.3-0.3-2-0.5s-1.3-0.4-2-0.7c-0.3-0.1-0.7-0.2-1-0.3l-1-0.4c-0.6-0.3-1.3-0.6-1.9-0.9
		c-1.2-0.7-2.5-1.4-3.7-2.3c-1.2-0.8-2.3-1.8-3.4-2.8c-0.5-0.5-1-1.1-1.6-1.7c-0.5-0.5-1-1.2-1.5-1.8c-1-1.2-1.8-2.5-2.6-3.9
		c-0.7-1.4-1.5-2.8-2-4.3c-1.1-3-1.9-6.2-2-9.5s0.3-6.7,1.1-10c1-3.3,2.4-6.3,4.3-9.1c1.8-2.8,4.2-5.1,6.7-7.1c1.2-1,2.6-1.8,4-2.7
		c1.4-0.7,2.8-1.4,4.2-1.9c0.7-0.3,1.4-0.6,2.2-0.7c0.7-0.2,1.5-0.4,2.2-0.6c1.5-0.3,2.9-0.6,4.4-0.6c1.5-0.2,2.9,0,4.4,0l2.1,0.3
		l1,0.1c0.3,0.1,0.7,0.2,1,0.2c0.7,0.2,1.4,0.3,2,0.5c0.7,0.2,1.3,0.4,1.9,0.6c1.3,0.4,2.5,1,3.7,1.5c4.7,2.3,8.4,5.7,11,9.3
		c2.7,3.6,4.3,7.3,5.2,10.7c0.9,3.4,1.1,6.5,1,8.9c0,1.2-0.2,2.3-0.3,3.3c-0.1,0.5-0.1,0.9-0.2,1.3s-0.2,0.7-0.3,1.1
		c-0.2,0.6-0.3,1.1-0.4,1.4C364.3,284.7,364.2,284.9,364.2,284.9L364.2,284.9z M352.4,302.6c0.4,0.3,29.8,27.4,40.7,37.6
		c1.8,1.7,4.7,1.7,6.5-0.1c1.9-1.9,1.9-5-0.1-6.8L359.1,296L352.4,302.6z"/>
</g>
<g id="Character">
	<path class="st24" d="M201.1,204.1l0.6-2.4c0.4-1.5,0.4-3.2-0.1-4.7l-2.5-8.2c-0.2-0.8-0.7-1.4-1.4-1.8c-1.9-1.1-5.6-3.2-5.9-2.9
		c-2.3,1.9,2.8,5.2,2.8,5.2s2,2.2,0.4,3.8c-1.8,1.8-5.1-2.2-5.1-2.2s0.2-0.4,0.3-0.3c0.1,0,1.7,1.4,3.2,1.4v-2.7l-3-1.9
		c-0.7-0.4-1.5-0.6-2.2-0.4l-1,0.2c-0.7,0.1-1.3,0.5-1.6,1.1l-1,1.5l-0.4,0.6c-0.4,0.5-0.5,1.3-0.2,1.9l0.5,1l-0.7,0.9
		c-0.5,0.8-0.7,1.8-0.3,2.6l5.1,7l7.5,12.2l8.1-8.7L201.1,204.1L201.1,204.1z"/>
	<path class="st25" d="M185.4,196.9c0,0-0.2-0.2-0.3-0.5s-0.1-0.9,0.2-1.3V195c0-0.1-0.1-0.1-0.1-0.2c-0.5-1.1-1-2-1.1-2
		c0,0,0.4,1,0.9,2.1c0,0.1,0.1,0.1,0.1,0.2V195c-0.4,0.5-0.4,1.1-0.2,1.5C185.2,196.8,185.4,196.9,185.4,196.9L185.4,196.9z
		 M186,187.8c0,0-0.3,0.5-0.2,1.4c0.2,0.9,0.7,2.1,1.4,3.2c0.2,0.3,0.4,0.6,0.5,0.9c0.1,0.3,0.1,0.7,0.1,1c-0.1,0.6,0,1.1,0.2,1.5
		c0.4,0.8,1,1,1,1s-0.7-0.1-1.2-0.9c-0.3-0.4-0.3-1-0.3-1.6c0-0.3,0-0.6-0.1-0.9c-0.1-0.3-0.3-0.6-0.4-0.9c-0.7-1.2-1.2-2.4-1.3-3.4
		C185.5,188.2,186,187.7,186,187.8z M190,190.8c-0.1,0-0.1-0.5-0.4-1.1c-0.3-0.6-0.6-1-0.6-1.1c0.1-0.1,0.5,0.3,0.8,0.9
		C190.3,190.2,190.1,190.9,190,190.8L190,190.8z"/>
	<path class="st12" d="M203.9,246l3.1,3.9l16.1-19.3l-21-27.7l-10.4,8.2L203.9,246z"/>
	<path class="st14" d="M275.4,432.7l1.3,31.3l16.9-0.4l-1.2-31.4L275.4,432.7z"/>
	<path class="st13" d="M285,462.6c0.1,0-0.1-6.9-0.6-15.3c-0.5-8.5-1-15.3-1.1-15.3s0.1,6.9,0.6,15.3
		C284.4,455.8,284.9,462.6,285,462.6z"/>
	<path class="st13" d="M276.6,461.8l16.9-0.4l0.1,2.2l-16.9,0.4L276.6,461.8z M293.2,453.6c0,0-0.1-0.3-0.5-0.7
		c-0.3-0.4-0.9-0.9-1.6-1.5s-1.7-1.2-2.8-1.7c-1.1-0.5-2.5-0.8-4-0.7c-2.9,0.1-5.3,1.7-6.5,3.2c-0.6,0.7-1,1.4-1.2,1.9
		s-0.3,0.8-0.2,0.8c0.1,0,0.5-1.1,1.7-2.4c1.2-1.4,3.4-2.8,6.2-2.9c2.8-0.1,5.1,1.1,6.5,2.2C292.4,452.8,293.2,453.6,293.2,453.6
		L293.2,453.6z"/>
	<path class="st26" d="M292.7,441.2l0.2,3.4l-17,0.3l-0.1-2.6L292.7,441.2z"/>
	<path class="st14" d="M235.5,434.5l0.8,19.1c0,0-19.1,7.2-19.3,10.8l37-0.3l-0.1-29.8L235.5,434.5L235.5,434.5z"/>
	<path class="st9" d="M247.6,452c0.7,0.2,1.2,1,1.1,1.7c-0.2,0.7-1,1.3-1.7,1.1c-0.7-0.2-1.4-1.1-1.1-1.8c0.2-0.7,1.2-1.3,1.9-0.9"
		/>
	<path class="st13" d="M254.1,464.1v-3l-35.8,1.4c0,0-1.7,0.7-1.5,1.9L254.1,464.1z M236,453.7c0,0.2,0.9,0.3,1.8,0.8
		c0.9,0.6,1.4,1.3,1.6,1.3c0.2,0-0.1-1.1-1.2-1.8C237.1,453.3,236,453.6,236,453.7L236,453.7z M232.1,455.4c0,0.2,0.8,0.5,1.4,1.2
		c0.6,0.7,0.8,1.6,1,1.6s0.3-1-0.5-2C233.2,455.3,232.1,455.2,232.1,455.4L232.1,455.4z M229.9,460.1c0.2,0,0.4-0.9-0.1-1.9
		s-1.3-1.4-1.4-1.2c-0.1,0.2,0.5,0.7,0.8,1.5C229.7,459.3,229.8,460.1,229.9,460.1z M236.3,449.3c0.1,0.2,0.9-0.1,1.9,0
		c1,0,1.8,0.4,1.9,0.2c0.1-0.1-0.7-0.8-1.9-0.9C237.1,448.6,236.2,449.2,236.3,449.3L236.3,449.3z M235.6,445.2c0,0.1,0.7,0.2,1.9,0
		c0.6-0.1,1.2-0.3,2-0.6c0.4-0.2,0.7-0.4,1.1-0.6c0.2-0.1,0.4-0.2,0.6-0.4c0.2-0.2,0.3-0.7,0.1-1s-0.5-0.4-0.8-0.4s-0.5,0.1-0.7,0.1
		c-0.4,0.1-0.8,0.2-1.2,0.4c-0.7,0.3-1.3,0.7-1.7,1.1c-0.9,0.8-1.2,1.5-1.1,1.5c0.1,0.1,0.5-0.5,1.4-1.2c0.4-0.3,1-0.7,1.7-1
		c0.3-0.1,0.7-0.3,1.1-0.3c0.4-0.1,0.7-0.1,0.8,0.1v0.2c-0.1,0.1-0.2,0.2-0.4,0.3c-0.3,0.2-0.7,0.4-1,0.6c-0.6,0.3-1.3,0.6-1.8,0.7
		C236.3,445.1,235.6,445.1,235.6,445.2L235.6,445.2z"/>
	<path class="st13" d="M235.9,445.5c0.1,0,0.4-0.6,0.5-1.8c0-0.6,0-1.3-0.3-2c-0.1-0.4-0.3-0.8-0.5-1.1c-0.2-0.4-0.5-0.9-1.2-0.9
		c-0.4,0-0.7,0.3-0.8,0.5c-0.1,0.3-0.1,0.5-0.2,0.7c-0.1,0.4-0.1,0.9,0,1.3c0.1,0.8,0.5,1.5,0.8,1.9c0.7,1,1.5,1.2,1.5,1.1
		c0.1-0.1-0.6-0.4-1.1-1.4c-0.3-0.5-0.5-1.1-0.6-1.8v-1.1c0.1-0.4,0.2-0.7,0.4-0.7s0.5,0.3,0.7,0.6c0.2,0.3,0.3,0.7,0.5,1
		c0.2,0.7,0.3,1.3,0.4,1.9C236,444.8,235.8,445.5,235.9,445.5L235.9,445.5z"/>
	<path class="st26" d="M254.1,445.8v4.2h-17.9v-3.8L254.1,445.8z"/>
	<path class="st24" d="M314,128.3l2.7,10.3c0,0,1,5.7-1.7,5.7c-2.3,0-2.6-3.1-2.6-3.1s1.2-6.2-1.9-5.9c-0.4,0-1.5,4.3-2.1,6.5
		c-0.2,0.8-0.1,1.6,0.3,2.4l4.4,7.8c0.8,1.4,2,2.6,3.5,3.5l2.2,1.3l0.3,4.6l12.4,0.2l-3.8-14.5l-1.6-8.8c-0.4-0.9-1.3-1.5-2.2-1.6
		l-1.2-0.2l-0.4-1.1c-0.3-0.7-0.9-1.1-1.6-1.2l-0.7-0.1l-1-2.5c-0.3-0.8-2.8-6.3-3.7-6.3C315.4,125.2,313.3,125.8,314,128.3
		L314,128.3z"/>
	<path class="st25" d="M322.9,140.7c0,0,0-0.5-0.2-1.1c-0.2-0.7-0.7-1.5-1.7-2.1c-0.5-1-0.8-2-0.9-2.7c-0.2-0.7-0.2-1.2-0.1-1.2
		c0,0,0.1,0.4,0.3,1.1c0.2,0.7,0.5,1.7,0.9,2.6c0.2,0.2,0.4,0.3,0.6,0.5s0.4,0.4,0.5,0.6c0.3,0.4,0.5,0.8,0.6,1.2s0.1,0.7,0.1,0.9
		C322.9,140.6,322.9,140.7,322.9,140.7L322.9,140.7z M324.8,139.7c0,0,0-0.2-0.2-0.6c-0.2-0.3-0.6-0.7-1.2-0.7h-0.1v-0.1
		c0-0.1,0-0.1-0.1-0.2c-0.4-1.2-0.8-2.2-0.7-2.2c0.1,0,0.5,1,0.9,2.2c0,0.1,0,0.1,0.1,0.2l-0.1-0.1c0.6,0.1,1.1,0.5,1.3,0.9
		C324.9,139.4,324.8,139.7,324.8,139.7L324.8,139.7z"/>
	<path class="st24" d="M251.7,189.4l22.5-0.3l-2.5-19.2c0,0,1.5-0.3,1.6-8.7c0.1-8.3,0.5-22.5,0.5-22.5c-9.7-4.1-20.8-2.7-29.1,3.7
		l-1.2,1L251.7,189.4L251.7,189.4z"/>
	<path class="st24" d="M246.1,153.7c-0.1-0.1-5.7-1.7-5.5,4s5.9,4.3,5.9,4.2C246.4,161.7,246.1,153.7,246.1,153.7z M272.8,152.5
		c0.1-0.1,5.2-1.4,5,4.3s-5.9,4.3-5.9,4.2C272,160.8,272.8,152.5,272.8,152.5z"/>
	<path class="st13" d="M244.2,153c0.9,4.8,0.7,7.3,1.5,10.5c1.2,5,3.8,8.9,8.3,11.4s10.7,2.5,14.6-1c2.7-2.4,4.6-5.1,5-8.7
		c0.4-3.6,0.8-9.9,0.8-13.5c0-6.5,0.5-12.7,0.5-12.7l-18.6-3.4l-10.6,6.3L244.2,153L244.2,153z M263.4,177.8c0,0.1-1.4,0.5-3.3,0.3
		c-1.8-0.2-3.2-0.9-3.1-1s1.4,0.3,3.2,0.5C262,177.8,263.4,177.7,263.4,177.8L263.4,177.8z"/>
	<path class="st13" d="M245.1,161.2c-0.5-4.9-0.9-10.5-1.7-15.7c-0.3-1.9-1-4.7-0.8-6.7s0.4-4,1.2-5.7c1.1-2.2,3.2-3.9,5.7-4.4
		c2.4-0.5,5,0.2,6.9,1.8c1.4-2,4-3.1,6.4-2.5c2.4,0.5,4.3,2.7,4.6,5.1c1.3-1.3,3.5-1.5,5.1-0.5c1.6,0.9,2.4,3,1.9,4.7
		c1.3,0.2,2.5,1.2,3.1,2.4c0.5,1.2,0.4,2.7-0.3,3.9c-0.9,1.3-2.4,2.1-3.4,3.3c-1.1,1.5-1.2,3.6-0.3,5.1"/>
	<path class="st12" d="M270.9,143.5c0,0,0,0.2-0.2,0.5s-0.5,0.8-1.1,1.2s-1.4,0.8-2.4,0.8s-2.1-0.4-3-1.4l0.4-0.1
		c-0.2,1.2-1.2,2.4-2.5,2.9c-1.3,0.6-3,0.3-4.2-0.5c-1.1-0.8-1.9-1.9-2.4-3.1l0.5,0.1c-1,1.5-2.7,2.3-4.2,2.3s-2.8-0.7-3.5-1.4
		c-0.8-0.8-1.1-1.6-1.3-2.2c-0.1-0.6-0.1-0.9-0.1-0.9l0.3,0.9c0.2,0.5,0.6,1.3,1.3,2s1.9,1.3,3.3,1.2c1.4-0.1,2.9-0.8,3.8-2.1
		l0.3-0.4l0.2,0.5c0.4,1.1,1.1,2.1,2.2,2.8c1.1,0.8,2.6,1,3.7,0.5c1.2-0.4,2-1.4,2.2-2.5l0.1-0.5l0.3,0.4c0.7,0.9,1.7,1.3,2.7,1.3
		c0.9,0.1,1.7-0.3,2.3-0.6C270.6,144.2,270.9,143.4,270.9,143.5z M270.9,141.2c-0.1,0,0-0.9-0.8-2.1c-0.4-0.6-1.1-1.1-2-1.3
		s-2-0.1-2.8,0.5l-0.5,0.3V138c0-0.5,0-1.1-0.2-1.6c-0.4-1.2-1.3-2.2-2.3-2.7s-2.1-0.5-2.9-0.3c-1.7,0.4-2.4,1.4-2.4,1.4
		s0.1-0.3,0.5-0.6c0.4-0.4,1-0.8,1.9-1.1s2-0.3,3.2,0.2c1.1,0.5,2.1,1.6,2.6,2.9c0.2,0.6,0.3,1.2,0.2,1.8l-0.4-0.2
		c1-0.7,2.3-0.8,3.2-0.6c1,0.3,1.7,0.9,2.1,1.6c0.4,0.6,0.5,1.2,0.6,1.6C271,141,270.9,141.2,270.9,141.2L270.9,141.2z M259.1,141.4
		c-0.1,0,0-0.3,0-0.8s-0.2-1.1-0.6-1.7c-0.4-0.6-0.8-1.2-1.1-1.5c-0.3-0.3-0.6-0.1-0.6-0.1s0-0.1,0.1-0.2s0.5-0.1,0.7,0.1
		c0.2,0.2,0.4,0.4,0.6,0.7s0.4,0.5,0.6,0.9c0.4,0.7,0.6,1.4,0.5,2C259.3,141.1,259.1,141.4,259.1,141.4z M248,134.2
		c-0.1,0,0-0.4,0.3-1c0.2-0.3,0.4-0.6,0.8-0.9c0.4-0.3,1-0.4,1.5-0.3c1.1,0.2,1.8,0.9,2.3,1.4c0.4,0.5,0.6,0.9,0.6,0.9
		c-0.1,0-0.4-0.2-0.8-0.7c-0.5-0.4-1.2-1-2.1-1.1c-0.9-0.1-1.6,0.4-2,0.9C248.3,133.9,248.1,134.2,248,134.2L248,134.2z
		 M250.9,158.4c-0.1,0.1-1.2-1.5-2-3.6c-0.8-2.2-0.8-4.1-0.7-4.1c0.2,0,0.4,1.8,1.2,3.9C250.2,156.7,251.1,158.3,250.9,158.4
		L250.9,158.4z M253.4,159.7c-0.1,0.1-0.8-1.1-1.4-2.6c-0.6-1.5-0.8-2.8-0.7-2.9c0.1,0,0.6,1.2,1.2,2.7
		C253.1,158.5,253.5,159.7,253.4,159.7z M269.1,160.1c0.1,0,0.4,2.3-0.6,5s-2.8,4.3-2.8,4.2c-0.1-0.1,1.4-1.8,2.3-4.4
		C268.9,162.4,268.9,160.1,269.1,160.1z M271.6,156c0.1-0.1,0.8,2,0.4,4.5s-1.8,4.2-1.9,4.1c-0.1-0.1,1-1.8,1.4-4.2
		S271.4,156,271.6,156L271.6,156z"/>
	<path class="st13" d="M264.4,313.1l5.5,52.8l3.9,79.4h20.9l0.6-169.1l-60,4.3l-12.5,88.7l10.8,77.7h23l-5.4-73.9L264.4,313.1"/>
	<path class="st12" d="M264.4,313.1c0.1,0.1-1.7,1.9-4.1,4c-2.3,2.1-4.3,3.7-4.4,3.6s1.7-1.9,4.1-4
		C262.3,314.6,264.3,313,264.4,313.1z M264.3,312c-0.1,0,0-3,0.1-6.8c0.1-3.7,0.2-6.8,0.4-6.8c0.1,0,0.3,3,0.1,6.8
		C264.8,309,264.5,312.1,264.3,312z M271.3,292.3h0.3c0.3,0,0.6,0,1-0.1c1,0,2.3-0.1,4-0.2c3.5-0.1,8.4-0.4,14.2-0.6h0.2v15.5
		l-0.2,0.1c-3.2,1.3-6.3,2.5-9.2,3.7h-0.2c-2.9-1-5.7-2-8.2-2.8h-0.1v-0.1c-0.6-4.6-1.1-8.4-1.5-11.2c-0.2-1.3-0.3-2.3-0.4-3.1
		C271.3,292.7,271.2,292.3,271.3,292.3c0,0,0,0.1,0.1,0.3c0,0.2,0.1,0.5,0.1,0.8c0.1,0.8,0.3,1.8,0.5,3.1c0.4,2.7,1,6.5,1.7,11
		l-0.1-0.2c2.5,0.9,5.3,1.8,8.2,2.8h-0.2c2.9-1.2,6-2.4,9.2-3.7l-0.2,0.2v-15.1l0.2,0.2c-5.7,0.1-10.6,0.3-14.1,0.3
		c-1.7,0-3,0.1-4,0.1h-1.1C271.4,292.4,271.3,292.4,271.3,292.3L271.3,292.3z M241,292.6h1.2c0.9,0,2.1-0.1,3.6-0.1
		c3.2-0.1,7.7-0.2,13-0.3h0.2v0.2c-0.1,4.4-0.3,9.4-0.5,14.8v0.1l-0.1,0.1c-0.5,0.3-1,0.6-1.5,1c-2.6,1.7-5.2,3.4-7.6,5l-0.1,0.1
		l-0.1-0.1c-3.1-1.9-6-3.6-8.6-5.2l-0.1-0.1V308c0.2-4.6,0.3-8.4,0.4-11.2c0.1-1.3,0.1-2.3,0.1-3.1C240.9,293,241,292.6,241,292.6
		l0,4.2c0,2.7-0.1,6.5-0.2,11.1l-0.1-0.2c2.6,1.6,5.5,3.3,8.6,5.2H249c2.4-1.6,5-3.2,7.6-5c0.5-0.3,1-0.7,1.5-1l-0.1,0.2
		c0.2-5.4,0.4-10.4,0.5-14.8l0.2,0.2c-5.3,0-9.7,0.1-12.8,0.1L241,292.6L241,292.6z M288.8,316.5c0,0.1-1.1,0-2.8-0.1
		c-1.7-0.1-4.2-0.4-6.8-0.7c-2.7-0.3-5-0.7-6.8-1.1c-1.7-0.3-2.8-0.6-2.8-0.6c0-0.1,1.1,0,2.8,0.3c1.9,0.3,4.2,0.6,6.8,0.9
		c2.6,0.3,4.9,0.6,6.8,0.9C287.8,316.3,288.8,316.4,288.8,316.5L288.8,316.5z M288.4,375.3c0,0-0.1,0.3-0.5,0.7
		c-0.4,0.4-1.2,0.7-2.1,0.7c-1,0-2.1-0.4-3.1-1.2c-1-0.8-1.9-1.8-2.9-2.9c-1.9-2.2-3.3-4.3-4.2-6c-0.9-1.6-1.4-2.7-1.3-2.7
		s0.6,1,1.6,2.5c1,1.6,2.5,3.7,4.3,5.8c0.9,1.1,1.8,2.1,2.8,2.8c0.9,0.8,1.9,1.2,2.8,1.2s1.6-0.2,2-0.5
		C288.1,375.5,288.3,375.3,288.4,375.3L288.4,375.3z M246.9,377.2c0,0,0,0.3-0.3,0.7c-0.2,0.4-0.7,0.9-1.4,1.4
		c-0.7,0.4-1.7,0.8-2.9,0.8c-1.1,0-2.4-0.4-3.5-1.1c-2.2-1.4-3.4-3.5-4.2-5c-0.7-1.5-1.1-2.4-1-2.5c0.1,0,0.5,0.9,1.4,2.3
		c0.8,1.4,2,3.4,4.1,4.7c1,0.6,2.2,1,3.2,1.1c1,0,2-0.2,2.7-0.6C246.5,378.2,246.9,377.1,246.9,377.2z M248.3,369.2
		c0,0.1-0.6,0.5-1.7,1s-2.8,1-4.7,1c-1.9,0.1-3.6-0.3-4.8-0.7c-1.2-0.4-1.8-0.8-1.8-0.9c0-0.2,2.9,1.2,6.5,1
		C245.5,370.6,248.2,369.1,248.3,369.2z M316.5,183h-30.6c0,0-4.2-2.4-6.2-2s-3.8,2.5-3.8,2.5l4,33.7l9.9-7.3l36.9-3.8
		c3.2,0,6.2-1.4,8.4-3.7c2.4-2.5,3.5-6,3.1-9.4l-6.8-36.2l-14,0.5l-0.6,9.2L316.5,183z M232.4,191.5c0,0-4.9,2.7-7.4,8.6
		c-1.8,4.3-14,25.7-20.4,36.8c-2.3,4.1-1.7,9.2,1.5,12.6c3.9,4.1,8.6,2.5,14.2,0.6c2.6-0.8,14-18.4,14-18.4L232.4,191.5L232.4,191.5
		z"/>
	<path class="st12" d="M237.7,267.9l-7-60.3l1.7-16.1l17.8-7.6l23.1-1.5l22,2.4l-5.1,61.9l5.6,34.8l-61.6,2.8L237.7,267.9z"/>
	<path class="st13" d="M237.6,267.6c-0.1,0-1.8-13.4-3.7-30s-3.4-30-3.2-30.1c0.1,0,1.8,13.4,3.7,30S237.8,267.6,237.6,267.6z
		 M294.9,198.3v0.5c0,0.4-0.1,0.9-0.1,1.5c-0.1,1.4-0.3,3.3-0.6,5.7c-0.5,4.9-1.2,11.5-1.9,18.8c-0.7,7.3-1.3,14-1.6,18.8
		c-0.2,2.4-0.3,4.3-0.4,5.7c-0.1,0.6-0.1,1.1-0.1,1.5s-0.1,0.5-0.1,0.5v-2.1c0-1.4,0.1-3.3,0.2-5.7c0.3-4.8,0.8-11.5,1.5-18.8
		s1.4-14,2-18.8c0.3-2.4,0.6-4.3,0.7-5.7c0.1-0.6,0.2-1.1,0.2-1.5L294.9,198.3L294.9,198.3z M284.3,258.4c0,0-0.3,0.4-1,1.2
		c-0.3,0.4-0.7,0.8-1.3,1.3c-0.5,0.5-1.1,1.1-1.8,1.6c-0.7,0.6-1.4,1.2-2.3,1.8c-0.8,0.6-1.8,1.2-2.8,1.8c-2.1,1.1-4.4,2.2-7,3
		s-5.2,1.2-7.5,1.4c-1.2,0.1-2.3,0.1-3.3,0.1s-2-0.1-2.9-0.2s-1.7-0.2-2.4-0.4c-0.7-0.1-1.3-0.3-1.8-0.4c-1-0.3-1.5-0.4-1.5-0.5
		s2.1,0.5,5.6,0.9c0.9,0.1,1.8,0.2,2.9,0.1c1,0,2.1-0.1,3.3-0.1c2.3-0.2,4.8-0.6,7.4-1.4s4.9-1.8,7-2.9c1-0.6,2-1.1,2.8-1.7
		c0.9-0.6,1.6-1.1,2.3-1.7C282.8,260,284.2,258.3,284.3,258.4L284.3,258.4z"/>
	<path class="st26" d="M251.7,269.6c-3-0.9-3.2-3.7-2-4.9c1.2-1.2,3-1.4,4.7-1.1c1.7,0.2,3.3,0.8,5,0.7c2.7-0.2,5-2.1,6.9-4.1
		s3.7-4.2,6.2-5.3c2.5-1.1,6-0.7,7.3,1.7c0.8,1.5,0.6,3.5-0.3,5s-2.3,2.7-3.7,3.6C268.8,269.9,259.8,271.7,251.7,269.6"/>
	<path class="st13" d="M288.1,184.2c0-0.1,2.3,0.8,4,3.2s1.9,4.8,1.8,4.8c-0.2,0-0.5-2.3-2.2-4.5C290.1,185.5,288,184.4,288.1,184.2
		L288.1,184.2z"/>
	<path class="st27" d="M286,183.6c0,0-0.2-0.1-0.5-0.3s-0.9-0.3-1.7-0.1c-0.7,0.2-1.5,0.6-2.3,1.4c-0.8,0.7-1.4,1.7-2.5,2.6
		c-1.1,0.8-2.6,1.2-4.1,1.3c-1.6,0.1-3.2-0.1-5-0.1c-3.5-0.1-7.4-0.1-11.4,0.2c-8.1,0.7-15.3,2.5-20.2,4.5c-2.5,1-4.4,1.9-5.7,2.6
		c-0.6,0.3-1.1,0.6-1.5,0.8c-0.3,0.2-0.5,0.3-0.5,0.3s0.2-0.1,0.5-0.3c0.4-0.2,0.9-0.5,1.5-0.8c1.3-0.7,3.3-1.6,5.7-2.6
		c4.9-2,12.1-3.9,20.2-4.5c4-0.3,7.9-0.4,11.4-0.2c1.8,0.1,3.4,0.2,5,0.2c1.5-0.1,3-0.4,4.1-1.2s1.8-1.8,2.5-2.5
		c0.7-0.8,1.6-1.2,2.3-1.4c0.7-0.2,1.3,0,1.7,0.1C285.9,183.4,286,183.6,286,183.6z M292.9,195.9c0,0-0.2-0.1-0.6-0.1
		c-0.4-0.1-1-0.1-1.8-0.1c-0.8,0.1-1.7,0.3-2.8,0.7c-1,0.4-2.2,1.1-3.4,1.7c-1.2,0.7-2.6,1.4-4.3,1.8c-1.6,0.5-3.4,0.7-5.3,0.8
		c-3.7,0.2-7.9,0.3-12.2,0.6c-8.6,0.6-16.4,1.6-22,2.5c-2.8,0.4-5,0.9-6.6,1.2c-0.7,0.1-1.3,0.3-1.8,0.3c-0.4,0.1-0.6,0.1-0.6,0.1
		s0.2-0.1,0.6-0.1c0.5-0.1,1.1-0.2,1.8-0.4c1.6-0.3,3.8-0.8,6.6-1.2c5.6-0.9,13.3-2,22-2.6c4.3-0.3,8.4-0.4,12.2-0.6
		c1.9-0.1,3.6-0.4,5.2-0.8s3-1.1,4.2-1.8s2.4-1.3,3.4-1.7s2-0.6,2.8-0.7c0.8-0.1,1.4,0,1.8,0.1C292.7,195.8,292.9,195.9,292.9,195.9
		L292.9,195.9z M293.1,212.9c0,0-0.8,0.4-2.2,0.9c-1.4,0.6-3.6,1.3-6.2,2.1c-5.3,1.5-12.9,2.9-21.3,3.2s-16.1-0.1-21.6-0.5
		c-2.7-0.2-4.9-0.4-6.5-0.5c-0.7-0.1-1.3-0.1-1.8-0.2c-0.4,0-0.6-0.1-0.6-0.1h0.6c0.5,0,1.1,0.1,1.8,0.1c1.6,0.1,3.8,0.3,6.5,0.4
		c5.5,0.3,13.2,0.8,21.6,0.5c8.4-0.3,16-1.6,21.3-3.1c2.7-0.7,4.8-1.5,6.2-2c0.7-0.3,1.3-0.5,1.7-0.6
		C292.9,213,293.1,212.9,293.1,212.9L293.1,212.9z M290.7,232.5c0,0-0.7,0.3-2.1,0.8s-3.3,1-5.9,1.5c-2.5,0.5-5.5,0.8-8.9,0.9
		c-3.4,0.1-7.1,0-11-0.2c-7.8-0.5-14.8-1.1-19.9-0.9c-2.6,0.1-4.6,0.2-6,0.4c-0.7,0.1-1.3,0.2-1.6,0.2c-0.4,0-0.6,0.1-0.6,0.1
		s3.1-0.7,8.2-0.8c5.1-0.2,12.2,0.3,19.9,0.8c3.9,0.2,7.6,0.3,11,0.2s6.4-0.4,8.9-0.9c2.5-0.4,4.5-1,5.9-1.4
		c0.7-0.2,1.2-0.4,1.6-0.5C290.5,232.6,290.7,232.5,290.7,232.5L290.7,232.5z M288.8,247.7c0,0-2.8,0.9-7.5,2
		c-2.3,0.5-5.1,1.1-8.3,1.6c-3.1,0.5-6.6,0.9-10.3,1.1c-3.7,0.2-7.1,0.2-10.3,0.2c-3.2-0.1-6-0.3-8.4-0.6c-4.8-0.5-7.7-1.1-7.7-1.1
		s0.2,0,0.5,0.1c0.4,0.1,0.9,0.1,1.5,0.2c1.3,0.2,3.3,0.4,5.6,0.7c2.4,0.2,5.2,0.4,8.4,0.5s6.7,0,10.3-0.2c3.6-0.2,7.1-0.6,10.2-1.1
		s5.9-1,8.3-1.5c2.3-0.5,4.2-1,5.5-1.3c0.6-0.2,1.1-0.3,1.5-0.4C288.6,247.8,288.8,247.7,288.8,247.7L288.8,247.7z M290.9,253.3
		c0,0-0.2,0.1-0.5,0.2c-0.4,0.1-0.9,0.3-1.5,0.5c-1.3,0.5-3.2,1.2-5.4,2.2c-2.3,1-5,2.3-8,3.5s-6.5,2.4-10.2,3.1
		c-7.5,1.4-14.4,1.2-19.4,1.1c-2.5-0.1-4.5-0.2-5.9-0.3c-0.6,0-1.2-0.1-1.6-0.1c-0.4,0-0.6-0.1-0.6-0.1h0.6c0.4,0,1,0,1.6,0.1
		c1.5,0.1,3.5,0.1,5.9,0.3c5,0.1,11.9,0.3,19.3-1.1c3.7-0.7,7.2-1.9,10.2-3.1s5.7-2.5,8-3.5s4.2-1.7,5.5-2.2
		C290.2,253.5,290.9,253.3,290.9,253.3z M294.1,269.8c0,0-0.7,0.5-2,1.2s-3.3,1.7-5.8,2.6c-5,1.9-12.4,3.3-20.6,3.5
		c-8.2,0.1-15.6-0.5-20.9-0.7c-2.7-0.1-4.8-0.2-6.3-0.2h-2.3h2.3c1.5,0,3.7,0.1,6.3,0.2c5.4,0.2,12.8,0.8,20.9,0.7
		c8.2-0.1,15.5-1.5,20.5-3.4c2.5-0.9,4.5-1.9,5.8-2.6c0.7-0.3,1.2-0.7,1.5-0.8C293.9,269.9,294.1,269.8,294.1,269.8L294.1,269.8z
		 M303.4,208.8c0,0,0-0.1,0.1-0.3s0.1-0.5,0.2-0.7c0.2-0.6,0.4-1.5,0.6-2.6c0.5-2.2,0.9-5.4,0.8-8.8c-0.1-3.5-0.6-6.6-1.1-8.8
		c-0.3-1.1-0.5-2-0.7-2.6c-0.1-0.3-0.1-0.5-0.2-0.7c0-0.2-0.1-0.2-0.1-0.3c0,0,0,0.1,0.1,0.2c0.1,0.2,0.2,0.4,0.2,0.7
		c0.2,0.6,0.5,1.5,0.8,2.6c0.6,2.2,1.1,5.3,1.2,8.8c0,3.5-0.4,6.6-0.9,8.9c-0.3,1.1-0.5,2-0.7,2.6c-0.1,0.3-0.2,0.5-0.2,0.7
		C303.4,208.7,303.4,208.8,303.4,208.8L303.4,208.8z M318.2,205.2v-0.9c0-0.6,0.1-1.4,0-2.4c0-2-0.2-4.8-0.9-7.8s-1.7-5.6-2.6-7.5
		c-0.4-0.9-0.8-1.6-1.1-2.1l-0.3-0.6c-0.1-0.1-0.1-0.2-0.1-0.2s0.1,0.1,0.1,0.2l0.3,0.6c0.3,0.5,0.7,1.2,1.1,2.1
		c0.9,1.8,1.9,4.5,2.6,7.5s0.9,5.9,0.9,7.9c0,1,0,1.8-0.1,2.4c0,0.2,0,0.4-0.1,0.7C318.2,205.1,318.2,205.2,318.2,205.2z
		 M338.2,198.2L338,198c-0.2-0.2-0.3-0.4-0.5-0.6c-0.4-0.5-1.1-1.3-1.9-2.2c-1.7-1.8-4.1-4.1-7.1-6.2c-3-2.2-6-3.7-8.2-4.7
		c-1.1-0.5-2-0.9-2.7-1.1c-0.3-0.1-0.5-0.2-0.7-0.3s-0.3-0.1-0.2-0.1c0,0,0.1,0,0.3,0.1c0.2,0.1,0.5,0.2,0.7,0.3
		c0.6,0.2,1.6,0.6,2.7,1.1c2.2,1,5.2,2.5,8.3,4.7c3,2.2,5.5,4.5,7.1,6.3c0.8,0.9,1.5,1.7,1.9,2.2C337.9,197.7,338,197.9,338.2,198.2
		C338.2,198.1,338.2,198.2,338.2,198.2L338.2,198.2z M333.7,169.9h-8c-2.2,0-4.3,0.1-5.7,0.2c-0.6,0-1.2,0.1-1.7,0.1h-0.6
		c0,0,0.2,0,0.6-0.1c0.4,0,1-0.1,1.7-0.2c1.5-0.1,3.5-0.2,5.7-0.3c2.2,0,4.3,0,5.7,0.1c0.7,0,1.3,0.1,1.7,0.1
		C333.4,169.8,333.7,169.9,333.7,169.9L333.7,169.9z M220.4,209.6l0.4,0.4c0.2,0.3,0.6,0.6,1,1.1c0.9,0.9,2.2,2,3.7,3.1
		c1.6,1.1,3.1,1.9,4.2,2.5c0.5,0.2,0.9,0.5,1.3,0.7c0.3,0.2,0.5,0.3,0.5,0.3s-0.2-0.1-0.5-0.2s-0.8-0.4-1.3-0.7
		c-1.1-0.6-2.6-1.4-4.2-2.5s-2.9-2.3-3.7-3.2c-0.4-0.5-0.8-0.9-1-1.1L220.4,209.6L220.4,209.6z M224.6,201.6c0,0,0.2,0.3,0.7,0.8
		s1.2,1,2,1.6s1.6,1,2.2,1.3c0.6,0.3,1,0.5,0.9,0.5c0,0.1-1.6-0.5-3.3-1.7c-0.8-0.6-1.6-1.2-2-1.7
		C224.7,202,224.6,201.6,224.6,201.6L224.6,201.6z M231.7,235.7c0,0-0.1,0-0.2-0.1l-0.6-0.3c-0.5-0.3-1.3-0.7-2.2-1.3
		c-1.8-1.1-4.2-2.9-6.5-5.2c-2.4-2.2-4.2-4.5-5.4-6.3c-0.6-0.9-1.1-1.6-1.3-2.1l-0.3-0.6c-0.1-0.1-0.1-0.2-0.1-0.2s0.1,0.1,0.1,0.2
		c0.1,0.2,0.2,0.4,0.4,0.6c0.3,0.5,0.8,1.2,1.4,2.1c1.2,1.7,3.1,4,5.5,6.2c2.3,2.2,4.7,4,6.5,5.2c0.9,0.6,1.6,1,2.1,1.3
		c0.2,0.1,0.4,0.2,0.6,0.4C231.6,235.6,231.7,235.7,231.7,235.7L231.7,235.7z"/>
	<path class="st13" d="M203.9,246c0,0-0.1-0.4-0.2-1.1c-0.1-0.7-0.1-1.8-0.1-3.2c0.1-2.7,1-6.4,3.3-9.8c2.1-3.4,4.1-6.5,5.6-8.8
		c0.7-1,1.3-1.9,1.7-2.6c0.4-0.6,0.7-0.9,0.7-0.9l-0.5,1c-0.4,0.7-1,1.6-1.6,2.7c-1.4,2.3-3.3,5.4-5.4,8.8c-2.2,3.4-3.2,7-3.4,9.6
		C203.8,244.4,204,246,203.9,246z"/>
	<path class="st27" d="M221.4,250.1c0,0-1.4,0-3.5-0.5s-4.9-1.8-7.3-4.2c-2.4-2.4-3.6-5.2-4.2-7.3c-0.6-2.1-0.5-3.5-0.5-3.5v0.2
		c0,0.2,0,0.4,0.1,0.7c0.1,0.6,0.2,1.5,0.5,2.5c0.6,2.1,1.9,4.8,4.2,7.2c2.3,2.3,5.1,3.6,7.2,4.2c1,0.3,1.9,0.5,2.5,0.5
		c0.3,0,0.5,0.1,0.7,0.1S221.4,250.1,221.4,250.1z M211.4,215.9c0,0-0.1,0-0.2,0.1c-0.2,0.1-0.3,0.2-0.5,0.3
		c-0.5,0.3-1.1,0.7-1.9,1.2c-1.5,1.1-3.5,2.8-5.3,5c-1.8,2.3-3,4.6-3.7,6.3c-0.4,0.9-0.6,1.6-0.8,2.1c-0.1,0.2-0.1,0.4-0.2,0.6
		c0,0.1-0.1,0.2-0.1,0.2v-0.2c0-0.2,0.1-0.4,0.2-0.6c0.1-0.5,0.4-1.2,0.7-2.1c0.7-1.8,1.9-4.1,3.7-6.4c1.8-2.3,3.8-4,5.4-5
		c0.8-0.5,1.4-0.9,1.9-1.2c0.2-0.1,0.4-0.2,0.5-0.3L211.4,215.9L211.4,215.9z M205.8,208.5c0,0-0.2,0.1-0.6,0.2
		c-0.4,0.1-0.9,0.3-1.5,0.6c-1.3,0.5-3,1.4-4.6,2.8c-1.6,1.3-2.9,2.8-3.7,3.9c-0.4,0.5-0.8,1-1,1.3s-0.4,0.5-0.4,0.5
		s0.1-0.2,0.3-0.5s0.5-0.8,0.9-1.3c0.8-1.1,2.1-2.6,3.7-4s3.4-2.3,4.7-2.8c0.7-0.2,1.2-0.4,1.6-0.5
		C205.6,208.6,205.8,208.5,205.8,208.5z"/>
</g>
</svg>
