<?xml version="1.0" encoding="utf-8"?>
<!-- Generator: Adobe Illustrator 25.2.0, SVG Export Plug-In . SVG Version: 6.00 Build 0)  -->
<svg version="1.1" id="Layer_1" xmlns="http://www.w3.org/2000/svg" xmlns:xlink="http://www.w3.org/1999/xlink" x="0px" y="0px"
	 viewBox="0 0 500 500" style="enable-background:new 0 0 500 500;" xml:space="preserve">
<style type="text/css">
	.st0{opacity:0.1;fill:#EBEBEB;enable-background:new    ;}
	.st1{opacity:0.1;fill:#FAFAFA;enable-background:new    ;}
	.st2{opacity:0.1;fill:#E0E0E0;enable-background:new    ;}
	.st3{opacity:0.1;fill:#F5F5F5;enable-background:new    ;}
	.st4{opacity:0.1;}
	.st5{fill:#E0E0E0;}
	.st6{fill:#F5F5F5;}
	.st7{fill:#EBEBEB;}
	.st8{fill:#FAFAFA;}
	.st9{fill:#8026CD;}
	.st10{fill:#263238;}
	.st11{fill:#FFFFFF;}
	.st12{fill:#C69481;}
	.st13{fill:#936457;}
	.st14{opacity:0.6;}
	.st15{fill:#455A64;}
	.st16{opacity:0.3;enable-background:new    ;}
</style>
<g id="Background_Complete">
	<path class="st0" d="M43.5,41.3h147v264h-147V41.3z"/>
	<path class="st1" d="M49.4,48.9h133.7v248.5H49.4V48.9z"/>
	<path class="st2" d="M196.7,307.7l-6.2-2.4V36.8h6.2V307.7z"/>
	<path class="st3" d="M82.2,209.4c11.6-10.8,23.1-21.5,34.7-32.3c4.4-4.1,10.2-8.5,15.8-6.5c2.7,1,4.8,3.3,7.4,4.4
		c5.3,2.2,11.4-1,15.5-5.1s7.3-9.2,12.3-12.1c5-2.9,12.7-2.6,15.1,2.7v35.1l-50.5,21.6L82.2,209.4L82.2,209.4z"/>
	<path class="st2" d="M49.4,189.2c12.8-5.2,25.6-0.8,34.7,9.6c1.9,2.2,3.7,4.7,6.3,5.9c3.6,1.6,7.7,0.4,11.6,0
		c10.7-1.2,21.9,4.2,27.5,13.4l-42.7,21l-37.5-0.3L49.4,189.2L49.4,189.2z"/>
	<path class="st0" d="M183.1,189.4c-8.4-4.1-15.8,0.9-23.6,6.1c-7.8,5.2-15,11.9-24.1,14c-6.1,1.4-12.6,0.6-18.5,2.7
		c-12,4.3-18.9,19.5-31.7,20.2c-6.9,0.4-13.1-3.8-19.3-6.9c-6.2-3.1-11-6.1-16.5-1.9v73.8h133.7L183.1,189.4L183.1,189.4z"/>
	<path class="st2" d="M49.4,120.4H186v2.6H49.4V120.4z M49.4,179.6H186v2.6H49.4V179.6z M49.4,238.8H186v2.6H49.4V238.8z"/>
	<path class="st2" d="M112.8,121.7h6.8v182.7h-6.8V121.7z M75.1,48.9h3.1v72.8h-3.1V48.9z M101.5,48.9h3.1v72.8h-3.1V48.9z
		 M127.9,48.9h3.1v72.8h-3.1V48.9z M154.3,48.9h3.1v72.8h-3.1V48.9z M37.3,36.8h6.2v270.1h-6.2V36.8z"/>
	<path class="st2" d="M37.3,34.1h159.4v7.2H37.3V34.1z M32.9,308.6h168v6.7h-168L32.9,308.6z"/>
	<path class="st0" d="M190.5,305.3l10.4,3.3h-168l10.6-3.3H190.5z"/>
	<g class="st4">
		<path class="st5" d="M192.2,382.7c1.3-0.8,2.6-1.4,4-1.8l0.8-4l6.7-0.2l1,3.9c1.4,0.3,2.8,0.9,4.1,1.6l3.4-2.3l4.9,4.6L215,388
			c0.8,1.3,1.4,2.6,1.8,4l4,0.8l0.2,6.7l-3.9,1c-0.3,1.4-0.9,2.8-1.6,4.1l2.3,3.4l-4.6,4.9l-3.5-2.1c-1.3,0.8-2.6,1.4-4,1.8l-0.8,4
			l-6.7,0.2l-1-3.9c-1.4-0.3-2.8-0.9-4.1-1.6l-3.4,2.3l-4.9-4.6l2.1-3.5c-0.8-1.3-1.4-2.6-1.8-4l-4-0.8l-0.2-6.7l3.9-1
			c0.3-1.4,0.9-2.8,1.6-4.1l-2.3-3.4l4.6-4.9L192.2,382.7z M195.9,391.7c-2.7,2.9-2.6,7.5,0.3,10.2c2.9,2.7,7.5,2.6,10.2-0.3
			s2.6-7.5-0.3-10.2C203.2,388.7,198.6,388.8,195.9,391.7z"/>
	</g>
	<path class="st2" d="M195.9,391.7c0,0,0.4-0.5,1.3-1.2c0.9-0.6,2.6-1.4,4.7-1.1c1,0.1,2.2,0.4,3.2,1.1s2,1.6,2.6,2.9
		c0.3,0.6,0.5,1.3,0.7,2c0.1,0.7,0.2,1.5,0.1,2.2c-0.2,1.5-0.9,3-2,4.2s-2.6,1.9-4.1,2.2c-0.7,0.1-1.5,0.2-2.2,0.1s-1.4-0.3-2.1-0.6
		c-1.3-0.5-2.3-1.5-3-2.5s-1.1-2.1-1.3-3.1c-0.3-2.1,0.3-3.8,0.9-4.7C195.3,392.1,195.9,391.7,195.9,391.7c0,0-0.4,0.5-1,1.5
		c-0.5,1-1.1,2.6-0.8,4.6c0.2,1,0.6,2,1.3,3c0.7,0.9,1.7,1.8,2.9,2.3c0.6,0.3,1.3,0.4,1.9,0.5c0.7,0.1,1.4,0.1,2.1-0.1
		c1.4-0.2,2.8-1,3.8-2.1s1.7-2.5,1.9-3.9c0.1-0.7,0.1-1.4,0-2.1s-0.3-1.3-0.6-1.9c-0.6-1.2-1.5-2.1-2.5-2.8c-1-0.7-2.1-1-3.1-1.1
		c-2-0.2-3.6,0.4-4.6,1C196.3,391.2,195.9,391.7,195.9,391.7L195.9,391.7z"/>
	<path class="st2" d="M192.2,382.7c0,0-0.1,0-0.2-0.1c-0.2-0.1-0.4-0.2-0.7-0.4c-0.6-0.4-1.5-0.9-2.6-1.5h0.1
		c-1.2,1.3-2.7,2.9-4.6,4.9v-0.1c0.7,1,1.4,2.2,2.3,3.4v0.2c-0.7,1.2-1.2,2.6-1.6,4.1v0.1h-0.1c-1.2,0.3-2.6,0.7-3.9,1l0.1-0.1
		c0.1,2.1,0.1,4.4,0.2,6.7l-0.1-0.2c1.2,0.2,2.6,0.5,4,0.8h0.1v0.1c0.4,1.3,1,2.7,1.8,4l0.1,0.1l-0.1,0.1c-0.6,1.1-1.4,2.3-2.1,3.5
		v-0.2c1.5,1.5,3.2,3,4.9,4.6h-0.2c1.1-0.7,2.2-1.5,3.4-2.3l0.1-0.1l0.1,0.1c1.2,0.7,2.6,1.2,4,1.6h0.1v0.1c0.3,1.2,0.7,2.6,1,3.9
		l-0.2-0.2c2.1-0.1,4.4-0.1,6.7-0.2l-0.2,0.2c0.3-1.3,0.5-2.6,0.8-4v-0.1h0.1c1.3-0.4,2.7-1,4-1.8l0.1-0.1l0.1,0.1
		c1.2,0.7,2.3,1.4,3.5,2.1h-0.3c1.6-1.6,3.1-3.3,4.6-4.9v0.3c-0.8-1.1-1.5-2.3-2.3-3.4l-0.1-0.1l0.1-0.1c0.7-1.3,1.2-2.6,1.6-4v-0.1
		h0.1c1.3-0.3,2.6-0.7,3.9-1l-0.1,0.2c-0.1-2.3-0.1-4.5-0.2-6.7l0.2,0.2c-1.4-0.3-2.7-0.5-4-0.8h-0.1v-0.1c-0.4-1.4-1-2.8-1.8-4
		l-0.1-0.1l0.1-0.1c0.7-1.2,1.4-2.4,2.1-3.5v0.2c-1.7-1.6-3.3-3.2-4.9-4.6h0.2c-1.2,0.8-2.3,1.5-3.4,2.2h-0.2
		c-1.4-0.7-2.7-1.3-4.1-1.6h-0.1v-0.1c-0.4-1.4-0.7-2.7-1-3.9l0.1,0.1c-2.6,0.1-4.8,0.1-6.7,0.1l0.1-0.1c-0.3,1.6-0.6,2.9-0.8,4
		c-1.4,0.4-2.4,0.9-3.1,1.2c-0.3,0.2-0.5,0.3-0.7,0.4L192.2,382.7l0.2-0.2c0.2-0.1,0.4-0.2,0.7-0.4c0.6-0.3,1.6-0.8,3.1-1.3v0.1
		c0.2-1.1,0.5-2.4,0.8-4v-0.1h0.1c1.9-0.1,4.1-0.1,6.7-0.2h0.1v0.1c0.3,1.2,0.6,2.5,1,3.9l-0.1-0.1c1.4,0.3,2.7,0.8,4.1,1.6h-0.2
		c1.1-0.7,2.2-1.5,3.4-2.3l0.1-0.1l0.1,0.1c1.5,1.5,3.2,3,4.9,4.6l0.1,0.1l-0.1,0.1c-0.7,1.1-1.4,2.3-2.1,3.5v-0.2
		c0.8,1.2,1.4,2.6,1.8,4.1l-0.1-0.1c1.3,0.3,2.6,0.5,4,0.8h0.1v0.2c0.1,2.2,0.1,4.4,0.2,6.7v0.2h-0.2c-1.3,0.3-2.6,0.7-3.9,1
		l0.1-0.1c-0.3,1.4-0.9,2.8-1.6,4.1v-0.2c0.7,1.1,1.5,2.2,2.3,3.4l0.1,0.1l-0.1,0.1c-1.5,1.6-3.1,3.2-4.6,4.9l-0.1,0.1l-0.1-0.1
		c-1.2-0.7-2.3-1.4-3.5-2.1h0.2c-1.3,0.8-2.7,1.4-4.1,1.8l0.1-0.2c-0.3,1.4-0.5,2.7-0.8,4v0.2h-0.2c-2.3,0.1-4.6,0.1-6.7,0.2h-0.2
		v-0.2c-0.3-1.4-0.7-2.7-1-3.9l0.1,0.1c-1.5-0.4-2.9-0.9-4.1-1.6h0.2c-1.2,0.8-2.3,1.5-3.4,2.2l-0.1,0.1l-0.1-0.1
		c-1.7-1.6-3.3-3.2-4.9-4.6l-0.1-0.1l0.1-0.1c0.7-1.2,1.4-2.4,2.1-3.5v0.2c-0.8-1.3-1.4-2.7-1.8-4.1l0.1,0.1c-1.4-0.3-2.8-0.6-4-0.8
		h-0.1v-0.1c-0.1-2.4-0.1-4.6-0.2-6.7v-0.1h0.1c1.4-0.3,2.7-0.7,3.9-1l-0.1,0.1c0.4-1.5,0.9-2.9,1.6-4.1v0.1
		c-0.8-1.2-1.6-2.4-2.2-3.4v-0.1l0.1-0.1c1.9-2,3.5-3.6,4.7-4.8c1.1,0.7,2,1.2,2.6,1.6c0.3,0.2,0.5,0.3,0.7,0.4
		C192.1,382.7,192.2,382.7,192.2,382.7L192.2,382.7z"/>
	<g class="st4">
		<path class="st6" d="M160.5,339.8c1.3-0.8,2.8-1.5,4.3-1.9l0.9-4.2l7.2-0.2l1.1,4.2c1.5,0.4,3,0.9,4.4,1.7l3.6-2.4l5.2,4.9
			l-2.2,3.7c0.8,1.3,1.5,2.8,1.9,4.3l4.2,0.9l0.2,7.2l-4.2,1.1c-0.4,1.5-0.9,3-1.7,4.4l2.4,3.6l-4.9,5.2l-3.7-2.2
			c-1.3,0.8-2.8,1.5-4.3,1.9l-0.9,4.2l-7.2,0.2l-1.1-4.2c-1.5-0.4-3-0.9-4.4-1.7l-3.6,2.4l-5.2-4.9l2.2-3.7
			c-0.8-1.3-1.5-2.8-1.9-4.3l-4.2-0.9l-0.2-7.2l4.2-1.1c0.4-1.5,0.9-3,1.7-4.4l-2.4-3.6l4.9-5.2L160.5,339.8z M164.4,349.3
			c-2.9,3.1-2.8,7.9,0.3,10.9c3.1,2.9,7.9,2.8,10.9-0.3c2.9-3.1,2.8-7.9-0.3-10.9C172.2,346.1,167.3,346.2,164.4,349.3z"/>
	</g>
	<path class="st3" d="M164.4,349.3c0,0,0.4-0.6,1.4-1.3c1-0.7,2.8-1.4,5-1.2c1.1,0.1,2.3,0.5,3.4,1.2s2.1,1.7,2.8,3.1
		c0.3,0.7,0.6,1.4,0.7,2.2c0.1,0.8,0.2,1.6,0.1,2.4c-0.2,1.6-0.9,3.2-2.1,4.4c-1.2,1.2-2.7,2.1-4.3,2.3c-0.8,0.1-1.6,0.2-2.4,0.1
		c-0.8-0.1-1.5-0.3-2.2-0.6c-1.4-0.6-2.4-1.6-3.2-2.6c-0.8-1.1-1.2-2.3-1.4-3.4c-0.3-2.2,0.3-4,1-5.1S164.4,349.3,164.4,349.3
		s-0.5,0.5-1,1.6c-0.6,1-1.2,2.8-0.8,4.9c0.2,1,0.6,2.2,1.3,3.2s1.8,1.9,3.1,2.5c0.6,0.3,1.3,0.5,2.1,0.6c0.7,0.1,1.5,0.1,2.2-0.1
		c1.5-0.3,3-1,4.1-2.2s1.8-2.7,2-4.2c0.1-0.8,0.1-1.5,0-2.2s-0.3-1.4-0.7-2c-0.6-1.3-1.6-2.3-2.6-3s-2.2-1.1-3.2-1.2
		c-2.1-0.3-3.9,0.4-4.9,1.1C164.9,348.8,164.4,349.3,164.4,349.3L164.4,349.3z"/>
	<path class="st3" d="M160.5,339.8c0,0-0.1,0-0.2-0.1c-0.2-0.1-0.4-0.2-0.7-0.4c-0.6-0.4-1.6-0.9-2.8-1.6h0.1
		c-1.3,1.3-2.9,3.1-4.9,5.2v-0.1c0.7,1.1,1.5,2.3,2.4,3.6v0.2c-0.7,1.3-1.3,2.7-1.7,4.3v0.1h-0.1c-1.3,0.3-2.7,0.7-4.2,1.1l0.1-0.2
		c0.1,2.3,0.1,4.6,0.2,7.2l-0.1-0.2c1.3,0.3,2.8,0.5,4.2,0.8h0.1v0.1c0.4,1.4,1,2.8,1.9,4.2l0.1,0.1l-0.1,0.1
		c-0.7,1.2-1.4,2.4-2.2,3.7v-0.2c1.6,1.5,3.4,3.2,5.2,4.9h-0.3c1.1-0.7,2.4-1.6,3.6-2.4l0.1-0.1l0.1,0.1c1.3,0.7,2.7,1.3,4.3,1.7
		h0.1v0.1c0.3,1.3,0.7,2.7,1.1,4.2l-0.2-0.2c2.3-0.1,4.7-0.1,7.2-0.2l-0.2,0.2c0.3-1.3,0.6-2.8,0.9-4.2v-0.1h0.1
		c1.4-0.4,2.9-1,4.2-1.9l0.1-0.1l0.1,0.1c1.2,0.7,2.5,1.5,3.7,2.2h-0.3c1.7-1.8,3.3-3.5,4.9-5.2v0.3l-2.4-3.6l-0.1-0.1l0.1-0.1
		c0.8-1.4,1.3-2.8,1.7-4.3v-0.1h0.1c1.4-0.4,2.8-0.7,4.2-1.1l-0.2,0.2c-0.1-2.4-0.1-4.8-0.2-7.2l0.2,0.2c-1.4-0.3-2.9-0.6-4.2-0.9
		h-0.1V350c-0.4-1.5-1.1-2.9-1.9-4.2l-0.1-0.1l0.1-0.1c0.8-1.3,1.5-2.5,2.2-3.7v0.2c-1.8-1.7-3.5-3.4-5.2-4.9h0.2
		c-1.3,0.8-2.5,1.6-3.6,2.4l-0.1,0.1h-0.1c-1.4-0.8-2.9-1.3-4.3-1.7h-0.1v-0.1c-0.4-1.5-0.7-2.9-1-4.2l0.1,0.1
		c-2.8,0.1-5.1,0.1-7.2,0.1l0.1-0.1c-0.4,1.7-0.6,3.1-0.9,4.2c-1.5,0.4-2.6,0.9-3.3,1.3c-0.3,0.2-0.6,0.3-0.8,0.4
		C160.6,339.7,160.5,339.8,160.5,339.8l0.2-0.2c0.2-0.1,0.4-0.3,0.8-0.4c0.7-0.4,1.7-0.9,3.3-1.4v0.1c0.2-1.2,0.5-2.6,0.8-4.2v-0.1
		h0.1c2-0.1,4.4-0.1,7.2-0.2h0.1v0.1c0.3,1.3,0.7,2.7,1.1,4.2l-0.1-0.1c1.4,0.3,2.9,0.9,4.4,1.7h-0.2c1.1-0.8,2.3-1.6,3.6-2.4
		l0.1-0.1l0.1,0.1c1.6,1.6,3.4,3.2,5.2,4.9l0.1,0.1l-0.1,0.1c-0.7,1.2-1.5,2.4-2.2,3.7v-0.2c0.8,1.3,1.5,2.8,1.9,4.3l-0.2-0.1
		c1.4,0.3,2.8,0.6,4.2,0.8h0.2v0.2c0.1,2.3,0.1,4.7,0.2,7.2v0.2h-0.2c-1.4,0.3-2.8,0.7-4.2,1.1l0.2-0.2c-0.4,1.5-0.9,3-1.7,4.4v-0.2
		l2.4,3.6l0.1,0.1l-0.1,0.1c-1.6,1.7-3.3,3.4-4.9,5.2l-0.1,0.1l-0.2-0.1c-1.2-0.7-2.5-1.5-3.7-2.2h0.2c-1.4,0.9-2.9,1.5-4.3,1.9
		l0.2-0.2c-0.3,1.5-0.6,2.9-0.9,4.2v0.2h-0.2c-2.5,0.1-4.9,0.1-7.2,0.2h-0.2v-0.2c-0.4-1.4-0.7-2.9-1.1-4.2l0.2,0.2
		c-1.6-0.4-3.1-1-4.4-1.7h0.2c-1.2,0.8-2.5,1.6-3.6,2.4l-0.1,0.1l-0.1-0.1c-1.8-1.7-3.6-3.4-5.2-4.9l-0.1-0.1l0.1-0.1
		c0.8-1.3,1.5-2.6,2.2-3.7v0.2c-0.9-1.4-1.5-2.9-1.9-4.3l0.1,0.1c-1.5-0.3-2.9-0.6-4.2-0.9h-0.1V359c-0.1-2.5-0.1-4.9-0.2-7.2v-0.1
		h0.1c1.5-0.4,2.9-0.7,4.2-1l-0.1,0.1c0.4-1.6,1-3.1,1.7-4.4v0.1c-0.9-1.3-1.7-2.5-2.4-3.6v-0.1l0.1-0.1c2-2.1,3.7-3.8,5-5.2
		c1.2,0.7,2.1,1.3,2.7,1.7c0.3,0.2,0.5,0.3,0.7,0.4C160.4,339.7,160.5,339.7,160.5,339.8L160.5,339.8z"/>
	<path class="st5" d="M227.3,378l-1.6-6.5c-2.3-0.6-4.6-1.4-6.7-2.6l-5.6,3.7l-8-7.6l3.4-5.7c-1.3-2-2.2-4.3-2.9-6.6l-6.6-1.3
		l-0.3-11.1l6.5-1.6c0.6-2.3,1.4-4.6,2.6-6.7l-3.7-5.6l7.6-8l5.7,3.4c2-1.3,4.3-2.2,6.6-2.9l1.3-6.6l11.1-0.3l1.6,6.5
		c2.3,0.6,4.6,1.4,6.7,2.6l5.6-3.7l8,7.6l-3.4,5.7c1.3,2,2.2,4.3,2.9,6.6l6.6,1.3l0.3,11.1l-6.5,1.6c-0.6,2.3-1.4,4.6-2.6,6.7
		l3.7,5.6l-7.6,8l-5.7-3.4c-2,1.3-4.3,2.2-6.6,2.9l-1.3,6.6L227.3,378L227.3,378z M218.9,368.9c2.1,1.2,4.4,2,6.7,2.6l1.6,6.5
		l11-0.3l1.3-6.5c2.3-0.7,4.5-1.7,6.6-2.9l5.7,3.4l7.6-8l-3.7-5.6c1.2-2.1,2-4.4,2.6-6.7l6.5-1.6l-0.3-11l-6.5-1.3
		c-0.7-2.3-1.7-4.5-2.9-6.6l3.4-5.7l-8-7.6l-5.6,3.7c-2.1-1.2-4.4-2-6.7-2.6l-1.6-6.5l-11,0.3l-1.3,6.5c-2.3,0.7-4.5,1.7-6.6,2.9
		l-5.7-3.4l-7.6,8l3.7,5.6c-1.2,2.1-2,4.4-2.6,6.7l-6.5,1.6l0.3,11l6.5,1.3c0.7,2.3,1.7,4.5,2.9,6.6l-3.4,5.7l8,7.6L218.9,368.9z
		 M232.3,356.6c-3.1,0-6-1.2-8.2-3.3c-2.3-2.2-3.6-5.1-3.7-8.3c-0.1-3.2,1.1-6.2,3.3-8.5s5.1-3.6,8.3-3.7s6.2,1.1,8.5,3.3
		c2.3,2.2,3.6,5.1,3.7,8.3c0.1,3.2-1.1,6.2-3.3,8.5s-5.1,3.6-8.3,3.7H232.3z M223.8,336.5c-2.2,2.3-3.3,5.3-3.2,8.5s1.4,6.1,3.7,8.3
		c2.2,2.1,5.1,3.3,8.1,3.3h0.3c3.2-0.1,6.1-1.4,8.3-3.7c2.2-2.3,3.3-5.3,3.3-8.4c-0.1-3.2-1.4-6.1-3.7-8.3c-2.2-2.1-5.1-3.3-8.1-3.3
		h-0.3C228.9,332.9,226,334.3,223.8,336.5L223.8,336.5z"/>
	<path class="st0" d="M223.8,336.5c0,0,0.6-0.9,2.2-2c1.5-1,4.3-2.2,7.7-1.9c1.7,0.2,3.6,0.7,5.3,1.8c1.7,1.1,3.3,2.7,4.3,4.8
		c0.5,1,0.9,2.1,1.1,3.3c0.2,1.2,0.3,2.4,0.1,3.6c-0.3,2.5-1.4,4.9-3.2,6.9c-1.8,1.9-4.2,3.2-6.7,3.6c-1.2,0.2-2.5,0.3-3.6,0.1
		c-1.2-0.1-2.3-0.5-3.4-0.9c-2.1-0.9-3.8-2.4-5-4s-1.8-3.5-2.1-5.2c-0.5-3.4,0.5-6.2,1.5-7.8C222.9,337.2,223.8,336.5,223.8,336.5
		c0.1,0.1-0.7,0.8-1.6,2.4c-0.9,1.6-1.8,4.3-1.3,7.6c0.3,1.6,0.9,3.4,2.1,4.9c1.2,1.5,2.7,3,4.8,3.8c1,0.4,2.1,0.7,3.2,0.9
		c1.1,0.1,2.3,0.1,3.5-0.1c2.3-0.4,4.6-1.6,6.3-3.4s2.8-4.1,3.1-6.5c0.2-1.2,0.1-2.3-0.1-3.5c-0.2-1.1-0.5-2.2-1-3.2
		c-0.9-2-2.4-3.5-4-4.6s-3.4-1.6-5-1.8c-3.3-0.4-6,0.7-7.5,1.6C224.5,335.8,223.8,336.6,223.8,336.5L223.8,336.5z"/>
	<path class="st0" d="M217.8,321.9c0,0-0.1-0.1-0.4-0.2c-0.3-0.2-0.6-0.4-1.1-0.6c-1-0.6-2.4-1.4-4.3-2.5h0.1
		c-1.9,2.1-4.5,4.8-7.6,8v-0.2c1.1,1.7,2.4,3.5,3.7,5.5l0.1,0.1l-0.1,0.1c-1.1,2-2,4.2-2.5,6.7v0.1h-0.1c-2,0.5-4.2,1.1-6.5,1.7
		l0.2-0.2c0.1,3.5,0.2,7.2,0.3,11l-0.2-0.3c2,0.4,4.3,0.8,6.5,1.3h0.2v0.2c0.6,2.1,1.6,4.4,2.9,6.5l0.1,0.2l-0.1,0.2
		c-1.1,1.8-2.2,3.7-3.4,5.7l-0.1-0.4c2.5,2.4,5.2,5,8,7.6h-0.4c1.7-1.2,3.6-2.4,5.6-3.7l0.2-0.1l0.2,0.1c2,1.1,4.2,2,6.6,2.6h0.2
		v0.2c0.5,2,1.1,4.2,1.6,6.5l-0.3-0.3c3.5-0.1,7.2-0.2,11-0.3l-0.3,0.3c0.4-2.1,0.9-4.3,1.3-6.5V371l0.2-0.1
		c2.2-0.6,4.4-1.6,6.5-2.9l0.2-0.1l0.2,0.1c1.9,1.1,3.8,2.3,5.7,3.4l-0.4,0.1c2.6-2.7,5.1-5.4,7.6-8v0.4c-1.2-1.9-2.5-3.7-3.7-5.6
		l-0.1-0.2l0.1-0.2c1.2-2.1,2-4.4,2.6-6.6v-0.2h0.2c2.2-0.6,4.3-1.1,6.5-1.6l-0.2,0.3c-0.1-3.8-0.2-7.5-0.3-11l0.3,0.3
		c-2.2-0.4-4.4-0.9-6.5-1.3h-0.2l-0.1-0.2c-0.7-2.3-1.7-4.5-2.9-6.5l-0.1-0.2l0.1-0.2c1.2-2,2.3-3.9,3.4-5.7v0.3
		c-2.8-2.7-5.5-5.2-8-7.6h0.3c-2,1.3-3.8,2.5-5.6,3.7l-0.1,0.1l-0.1-0.1c-2.2-1.2-4.5-2.1-6.7-2.6H238v-0.1
		c-0.6-2.4-1.1-4.5-1.6-6.5l0.2,0.2c-4.3,0.1-7.9,0.2-11,0.2l0.1-0.1c-0.5,2.6-1,4.8-1.4,6.5v0.1h-0.1c-2.3,0.7-4,1.4-5,2
		c-0.5,0.3-0.9,0.5-1.2,0.6L217.8,321.9c0,0,0.1-0.1,0.4-0.3c0.3-0.2,0.6-0.4,1.2-0.7c1.1-0.6,2.7-1.4,5-2.1l-0.1,0.1
		c0.3-1.8,0.8-3.9,1.3-6.6v-0.1h0.1c3.1-0.1,6.8-0.2,11-0.3h0.2v0.2c0.5,2,1.1,4.1,1.7,6.5l-0.2-0.2c2.2,0.5,4.5,1.4,6.8,2.6h-0.3
		c1.8-1.2,3.6-2.4,5.5-3.7l0.2-0.1l0.2,0.1c2.5,2.4,5.2,4.9,8,7.6l0.2,0.2l-0.1,0.2c-1.1,1.9-2.2,3.8-3.4,5.7v-0.3
		c1.2,2,2.3,4.3,3,6.7l-0.2-0.2c2.1,0.4,4.3,0.9,6.5,1.3h0.2v0.3c0.1,3.6,0.2,7.3,0.3,11v0.3l-0.3,0.1c-2.1,0.5-4.3,1.1-6.5,1.6
		l0.2-0.2c-0.6,2.3-1.4,4.6-2.6,6.8v-0.3c1.2,1.8,2.5,3.7,3.7,5.6l0.1,0.2l-0.2,0.2c-2.5,2.6-5,5.3-7.6,8l-0.2,0.2l-0.2-0.1
		c-1.9-1.1-3.8-2.3-5.7-3.4h0.4c-2.1,1.3-4.4,2.3-6.7,2.9l0.2-0.3c-0.5,2.2-0.9,4.5-1.3,6.5l-0.1,0.3h-0.3c-3.8,0.1-7.5,0.2-11,0.3
		h-0.3l-0.1-0.3c-0.6-2.2-1.1-4.4-1.6-6.5l0.2,0.2c-2.5-0.6-4.8-1.5-6.8-2.6h0.3c-1.9,1.3-3.8,2.5-5.6,3.7l-0.2,0.1l-0.2-0.2
		c-2.8-2.6-5.5-5.2-8-7.6l-0.2-0.2l0.1-0.2c1.2-2,2.4-4,3.4-5.7v0.3c-1.3-2.2-2.3-4.5-2.9-6.7l0.2,0.2c-2.3-0.5-4.5-0.9-6.5-1.3
		h-0.2v-0.2c-0.1-3.9-0.2-7.6-0.2-11v-0.2h0.2c2.3-0.6,4.5-1.1,6.5-1.6l-0.2,0.2c0.6-2.5,1.5-4.8,2.6-6.8v0.2
		c-1.3-2-2.6-3.9-3.7-5.6l-0.1-0.1l0.1-0.1c3.1-3.2,5.7-5.9,7.7-8l0.1-0.1h0.1c1.8,1.1,3.2,2,4.2,2.6c0.5,0.3,0.8,0.5,1.1,0.7
		C217.6,321.8,217.8,321.8,217.8,321.9L217.8,321.9z"/>
	<g class="st4">
		<path class="st5" d="M408.2,53.9l8.1,0l0.2,40.2l-8.1,0L408.2,53.9z"/>
	</g>
	<g class="st4">
		<path class="st7" d="M338.3,54.2l20.9-0.1l0.1,22.2l-20.9,0.1L338.3,54.2z"/>
	</g>
	<g class="st4">
		<path class="st6" d="M359.1,54l20.9-0.1l0.1,22.2l-20.9,0.1L359.1,54z"/>
	</g>
	<path class="st2" d="M338.3,60.2c13.9,0.1,27.8,0,41.7-0.2c0.3,0,0.3-0.4,0-0.4c-13.9-0.1-27.8,0-41.7,0.3
		C338.1,59.9,338.1,60.2,338.3,60.2z"/>
	<g class="st4">
		<path class="st7" d="M325.3,76l38-0.2l0.1,18.1l-38,0.2L325.3,76z"/>
	</g>
	<g class="st4">
		<path class="st6" d="M363.1,75.8l38-0.2l0.1,18.1l-38,0.2L363.1,75.8z"/>
	</g>
	<path class="st2" d="M325.3,81c25.2,0.3,50.5,0,75.8-0.4c0.3,0,0.3-0.4,0-0.4c-25.2-0.1-50.5-0.1-75.8,0.4
		C325,80.7,325,81,325.3,81z"/>
	<g class="st4">
		<path class="st5" d="M311.1,94.1h147.1v6.5H311.1V94.1z"/>
		<path class="st5" d="M335.2,97.2h6v22.1h-6V97.2z M424.3,97.2h6v22.1h-6V97.2z"/>
	</g>
	<g class="st4">
		<path class="st7" d="M416.1,38.9l8.1,0l0.3,55.2l-8.1,0L416.1,38.9z"/>
	</g>
	<g class="st4">
		<path class="st6" d="M424.2,49.2l12.5-0.1l0.2,44.8L424.4,94L424.2,49.2z"/>
	</g>
	<path class="st2" d="M436.7,57.8c0,0.1-2.8,0.2-6.3,0.2s-6.3-0.1-6.3-0.2s2.8-0.2,6.3-0.2S436.7,57.7,436.7,57.8z M436.7,55.9
		c0,0.1-2.8,0.2-6.3,0.2s-6.3-0.1-6.3-0.2s2.8-0.2,6.3-0.2S436.7,55.8,436.7,55.9z M436.7,87.2c0,0.1-2.8,0.2-6.3,0.2
		s-6.3-0.1-6.3-0.2s2.8-0.2,6.3-0.2S436.7,87.1,436.7,87.2z M436.7,85.3c0,0.1-2.8,0.2-6.3,0.2s-6.3-0.1-6.3-0.2s2.8-0.2,6.3-0.2
		S436.7,85.2,436.7,85.3z M430.6,81.2c-0.1,0-0.2-4.5-0.2-10.1s0.1-10.1,0.2-10.1s0.2,4.5,0.2,10.1S430.7,81.2,430.6,81.2z"/>
	<g class="st4">
		<path class="st7" d="M436.8,60.2h13.6V94h-13.6V60.2z"/>
	</g>
	<g class="st4">
		<path class="st5" d="M422.3,48.4c0,1.3-1,2.3-2.3,2.3s-2.3-1-2.3-2.3s1-2.3,2.3-2.3C421.3,46,422.3,47.1,422.3,48.4z"/>
	</g>
	<path class="st2" d="M419.3,54.7h1.4v32.9h-1.4V54.7z"/>
	<g class="st4">
		<path class="st7" d="M350.6,433l5.5,35.9h31.7l7.4-35.4L350.6,433z"/>
	</g>
	<path class="st1" d="M390.8,456c0,0.1-8.1,0.2-18.2,0.2c-10,0-18.2-0.1-18.2-0.2s8.1-0.2,18.2-0.2
		C382.6,455.8,390.8,455.9,390.8,456z M390.9,454.3c0,0.1-8.2,0.2-18.3,0.2c-10.1,0-18.3-0.1-18.3-0.2s8.2-0.2,18.3-0.2
		C382.7,454.1,390.9,454.2,390.9,454.3z M390.8,452.3c0,0.1-8.2,0.2-18.3,0.2c-10.1,0-18.3-0.1-18.3-0.2s8.2-0.2,18.3-0.2
		C382.6,452.1,390.8,452.2,390.8,452.3z M359.7,466.9c-0.1,0-0.5-2-1-4.5c-0.4-2.5-0.7-4.6-0.6-4.6s0.5,2,1,4.5
		C359.5,464.8,359.8,466.9,359.7,466.9z M361.9,466.5c-0.1,0-0.2-2-0.4-4.4c-0.2-2.4-0.3-4.4-0.2-4.4c0.1,0,0.4,2,0.6,4.4
		C362,464.5,362,466.5,361.9,466.5z M365.8,466.5c-0.1,0-0.5-2-0.8-4.5s-0.3-4.6-0.2-4.6c0.1,0,0.3,2,0.6,4.6
		C365.6,464.4,365.9,466.5,365.8,466.5z M368.6,466.7c-0.1,0-0.4-2-0.4-4.6c-0.1-2.6,0-4.6,0.1-4.6s0.1,2.1,0.2,4.6
		S368.7,466.7,368.6,466.7L368.6,466.7z M373.5,466.5c-0.1,0-0.3-2-0.3-4.4c-0.1-2.4-0.1-4.4,0-4.4s0.3,2,0.3,4.4
		C373.6,464.5,373.6,466.5,373.5,466.5z M377,466.7c-0.1,0-0.2-2-0.1-4.5c0-2.5,0.1-4.5,0.2-4.5s0.2,2,0.1,4.5
		C377.2,464.7,377.1,466.7,377,466.7z M380.4,466.2c-0.1,0,0-2.1,0.3-4.7s0.5-4.7,0.6-4.7s0,2.1-0.3,4.7
		C380.8,464.1,380.5,466.2,380.4,466.2z M384.7,465.7c-0.1,0,0.1-1.8,0.5-4c0.5-2.2,1.1-3.9,1.2-3.9s-0.3,1.8-0.8,4
		S384.8,465.7,384.7,465.7L384.7,465.7z"/>
	<path class="st0" d="M381.7,362.1v0.2c0,0.1-0.1,0.3-0.1,0.5c-0.1,0.5-0.3,1.1-0.6,1.9c-0.3,0.8-0.6,1.9-0.9,3.1s-0.8,2.6-1.1,4.1
		c-0.4,1.5-0.8,3.2-1.2,5c-0.4,1.8-0.8,3.7-1.2,5.8c-0.8,4.1-1.5,8.6-1.9,13.4c-0.5,4.8-0.7,9.4-0.7,13.5c0,2.1,0,4.1,0.1,5.9
		c0,1.9,0.1,3.6,0.2,5.1c0.1,1.6,0.2,3,0.3,4.2c0.1,1.2,0.2,2.3,0.3,3.2c0.1,0.9,0.2,1.5,0.2,2v0.7v-0.2c0-0.1,0-0.3-0.1-0.5
		c-0.1-0.5-0.2-1.2-0.3-2c-0.1-0.9-0.3-1.9-0.4-3.2c-0.1-1.2-0.3-2.7-0.4-4.2c-0.1-1.6-0.2-3.3-0.3-5.2c-0.1-1.9-0.1-3.8-0.1-5.9
		c0-4.2,0.2-8.8,0.7-13.6c0.5-4.8,1.2-9.3,2-13.4c0.4-2,0.8-4,1.3-5.8c0.4-1.8,0.9-3.5,1.3-5s0.8-2.9,1.2-4.1c0.4-1.2,0.7-2.2,1-3.1
		c0.3-0.8,0.5-1.5,0.7-1.9c0.1-0.2,0.1-0.4,0.2-0.5C381.6,362.2,381.6,362.1,381.7,362.1z"/>
	<g class="st4">
		<path class="st7" d="M375.9,384.4c0.9-2.6,2.6-4.8,4.9-6.2c0.8-0.5,1.8-0.9,2.6-0.5c1.1,0.5,1.2,2.1,0.9,3.3
			c-0.6,2-1.9,3.8-3.6,4.9s-3.3,1.7-5.4,1.4"/>
	</g>
	<g class="st4">
		<path class="st7" d="M374,399.4c0.8-3.1,3.3-7.5,5.9-9.4c0.4-0.3,0.8-0.6,1.3-0.7s1.1,0,1.4,0.3c0.5,0.5,0.5,1.3,0.3,2.1
			c-1,4.5-4.8,8.3-9.3,9.3"/>
	</g>
	<g class="st4">
		<path class="st7" d="M373.5,412.6c1.3-2.9,3.3-5.5,5.9-7.4c0.6-0.4,1.3-0.9,2.1-0.7c1.1,0.2,1.6,1.6,1.5,2.7
			c-0.2,2.3-2,4.2-3.8,5.7c-2,1.6-5.5,2.8-5.5,2.8"/>
	</g>
	<g class="st4">
		<path class="st7" d="M373.8,422.1c1.3-2.2,2.9-4.3,5-5.7c0.5-0.3,1-0.6,1.5-0.7c0.6-0.1,1.2,0.1,1.5,0.6c0.5,0.7,0,1.7-0.5,2.5
			c-1.9,2.5-4.2,4.3-7.2,5.3"/>
	</g>
	<g class="st4">
		<path class="st7" d="M373.5,418.2c-2.2-2.7-4.6-5.1-7.2-7.3c-0.4-0.3-0.9-0.7-1.4-0.5c-0.4,0.1-0.6,0.6-0.7,1
			c0,0.4,0.1,0.8,0.3,1.2c1.6,3.8,5.3,6.8,9.3,7.8"/>
	</g>
	<g class="st4">
		<path class="st7" d="M373.7,405.9L368,399c-0.5-0.7-1.1-1.3-1.8-1.7c-0.7-0.4-1.7-0.5-2.4,0s-0.9,1.4-0.8,2.3
			c0.2,0.8,0.6,1.6,1.1,2.3c1.1,1.7,2.5,3.2,4.1,4.4c1.7,1.1,3.2,1.9,5.2,1.6"/>
	</g>
	<g class="st4">
		<path class="st7" d="M374.5,391.9c-1.1-3.3-3.1-6.3-5.7-8.5c-0.4-0.4-0.9-0.8-1.5-0.9c-1.1-0.2-2.2,0.7-2.6,1.8
			c-0.4,1.2-0.1,2.6,0.5,3.7s1.6,2,2.7,2.8c1.9,1.5,4,2.6,6.3,3.4"/>
	</g>
	<g class="st4">
		<path class="st7" d="M376.8,379.5c-0.5-4-2.6-7.3-5-10.6c-0.5-0.7-1.2-1.4-2.1-1.3c-0.5,0.1-1,0.5-1.2,1s-0.2,1.1-0.2,1.6
			c0.1,4.8,3.5,9.4,8,11"/>
	</g>
	<g class="st4">
		<path class="st7" d="M378.4,373.2c-0.2-2.1-0.4-4.1-0.2-6.2c0.2-2.1,0.8-4.1,2.1-5.8c0.5-0.7,1.2-1.3,2.1-1.6
			c0.8-0.3,1.8-0.2,2.5,0.3c0.6,0.5,0.9,1.4,0.9,2.2c0,0.8-0.3,1.6-0.6,2.4C383.5,368.2,381,372.2,378.4,373.2"/>
	</g>
	<path class="st2" d="M353.7,377.9v4.3c0,0.9,0,1.9,0.1,3c0.1,2.2,0.3,4.9,0.7,7.9c0.4,3,0.9,6.2,1.6,9.5c0.7,3.4,1.6,6.5,2.4,9.4
		c0.9,2.8,1.7,5.4,2.6,7.5c0.4,1.1,0.8,2,1.1,2.8c0.3,0.8,0.6,1.5,0.9,2.1c0.2,0.6,0.4,1,0.6,1.3c0.1,0.3,0.2,0.5,0.2,0.5
		s-0.1-0.1-0.2-0.4c-0.2-0.3-0.4-0.8-0.6-1.3c-0.3-0.6-0.6-1.3-0.9-2.1c-0.4-0.8-0.8-1.8-1.2-2.8c-0.8-2.1-1.7-4.6-2.6-7.5
		s-1.7-6-2.4-9.4c-0.7-3.4-1.2-6.6-1.5-9.6s-0.5-5.6-0.6-7.9c-0.1-1.1,0-2.1-0.1-3v-2.3c0-0.6,0-1.1,0.1-1.5
		C353.7,378.1,353.7,377.9,353.7,377.9z"/>
	<g class="st4">
		<path class="st5" d="M354.6,394.3c0-1.9,0.8-3.8,2-5.3c0.4-0.5,1-1,1.7-0.9c0.9,0.1,1.3,1.2,1.3,2c0.1,1.5-0.5,3-1.4,4.1
			s-1.9,1.9-3.4,2.1"/>
	</g>
	<g class="st4">
		<path class="st5" d="M356.5,405c-0.1-2.3,0.6-5.8,2-7.7c0.2-0.3,0.4-0.6,0.8-0.8c0.3-0.2,0.7-0.3,1-0.1c0.5,0.2,0.6,0.8,0.7,1.3
			c0.3,3.3-1.4,6.7-4.3,8.3"/>
	</g>
	<g class="st4">
		<path class="st5" d="M359,414.1c0.2-2.3,1.1-4.5,2.4-6.3c0.3-0.4,0.7-0.9,1.2-0.9c0.8-0.1,1.4,0.7,1.6,1.5
			c0.4,1.6-0.4,3.3-1.4,4.7c-1,1.5-3.1,3.1-3.1,3.1"/>
	</g>
	<g class="st4">
		<path class="st5" d="M361.3,420.5c0.4-1.8,1.1-3.5,2.2-5c0.2-0.3,0.5-0.6,0.9-0.8c0.4-0.2,0.8-0.2,1.1,0.1
			c0.5,0.4,0.4,1.2,0.2,1.8c-0.7,2.1-1.9,3.9-3.8,5.1"/>
	</g>
	<g class="st4">
		<path class="st5" d="M360.3,417.9c-2-1.3-4.2-2.5-6.5-3.4c-0.4-0.1-0.8-0.3-1.1-0.1c-0.2,0.2-0.3,0.5-0.2,0.8
			c0.1,0.3,0.3,0.5,0.4,0.8c1.9,2.2,5.1,3.5,8,3.3"/>
	</g>
	<g class="st4">
		<path class="st5" d="M357.8,409.4c-1.8-1.2-3.6-2.3-5.3-3.5c-0.5-0.3-1-0.7-1.6-0.8c-0.6-0.1-1.3,0-1.6,0.5
			c-0.4,0.5-0.3,1.2,0,1.7s0.8,0.9,1.2,1.3c1.1,0.9,2.4,1.7,3.7,2.1c1.4,0.4,2.6,0.6,3.9,0"/>
	</g>
	<g class="st4">
		<path class="st5" d="M355.3,399.8c-1.5-2-3.4-3.6-5.7-4.6c-0.4-0.2-0.8-0.3-1.2-0.3c-0.8,0.1-1.4,1-1.4,1.8c0,0.9,0.5,1.8,1.2,2.4
			s1.5,1,2.4,1.3c1.6,0.6,3.3,0.9,5,1"/>
	</g>
	<g class="st4">
		<path class="st5" d="M354.2,390.9c-1.2-2.6-3.4-4.4-5.7-6.1c-0.5-0.4-1.1-0.7-1.7-0.4c-0.3,0.2-0.5,0.6-0.6,0.9
			c0,0.4,0.1,0.8,0.2,1.1c1.1,3.3,4.4,5.7,7.8,5.8"/>
	</g>
	<g class="st4">
		<path class="st5" d="M353.9,386.2c-0.6-1.4-1.2-2.7-1.5-4.2c-0.3-1.4-0.3-3,0.2-4.4c0.2-0.6,0.5-1.2,1-1.6s1.2-0.6,1.8-0.3
			c0.5,0.2,0.9,0.8,1.1,1.3c0.2,0.6,0.1,1.2,0.1,1.7C356.3,381.7,355.5,384.9,353.9,386.2"/>
	</g>
	<path class="st0" d="M393.9,377.6v0.5c0,0.4,0,0.9,0.1,1.5v2.3c0,0.9,0,1.9-0.1,3c-0.1,2.3-0.3,4.9-0.6,7.9s-0.8,6.2-1.5,9.6
		s-1.6,6.5-2.4,9.4c-0.9,2.8-1.8,5.4-2.6,7.5c-0.4,1.1-0.8,2-1.2,2.8c-0.3,0.8-0.7,1.5-0.9,2.1c-0.3,0.5-0.5,1-0.6,1.3
		s-0.2,0.4-0.2,0.4s0-0.2,0.2-0.5c0.1-0.3,0.3-0.8,0.6-1.3c0.3-0.6,0.6-1.3,0.9-2.1c0.3-0.8,0.7-1.8,1.1-2.8
		c0.8-2.1,1.7-4.6,2.6-7.5c0.9-2.8,1.7-6,2.4-9.4c0.7-3.4,1.2-6.6,1.6-9.5c0.3-3,0.6-5.6,0.7-7.9c0.1-1.1,0.1-2.1,0.1-3v-3.8
		C393.9,377.8,393.9,377.6,393.9,377.6z"/>
	<g class="st4">
		<path class="st7" d="M393,394c0-1.9-0.8-3.8-2-5.3c-0.4-0.5-1-1-1.7-0.9c-0.9,0.1-1.3,1.2-1.3,2c-0.1,1.5,0.5,3,1.4,4.1
			s1.9,1.9,3.4,2.1"/>
	</g>
	<g class="st4">
		<path class="st7" d="M391.1,404.6c0.1-2.3-0.6-5.8-2-7.7c-0.2-0.3-0.4-0.6-0.8-0.8s-0.7-0.3-1-0.1c-0.5,0.2-0.6,0.8-0.7,1.3
			c-0.3,3.3,1.4,6.7,4.3,8.3"/>
	</g>
	<g class="st4">
		<path class="st7" d="M388.6,413.7c-0.2-2.3-1.1-4.5-2.4-6.3c-0.3-0.4-0.7-0.9-1.2-0.9c-0.8-0.1-1.4,0.7-1.6,1.5
			c-0.4,1.6,0.4,3.3,1.4,4.7c1,1.5,3.1,3.1,3.1,3.1"/>
	</g>
	<path class="st0" d="M386.4,420.1c-0.4-1.8-1.1-3.5-2.2-5c-0.2-0.3-0.5-0.6-0.9-0.8c-0.4-0.2-0.8-0.2-1.1,0.1
		c-0.5,0.4-0.4,1.2-0.2,1.8c0.7,2.1,1.9,3.9,3.8,5.1"/>
	<g class="st4">
		<path class="st7" d="M387.4,417.6c2-1.3,4.2-2.5,6.5-3.4c0.4-0.1,0.8-0.3,1.1-0.1c0.2,0.2,0.3,0.5,0.2,0.8
			c-0.1,0.3-0.3,0.5-0.4,0.8c-1.9,2.2-5.1,3.5-8,3.3"/>
	</g>
	<g class="st4">
		<path class="st7" d="M389.9,409.1c1.8-1.2,3.6-2.3,5.3-3.5c0.5-0.3,1-0.7,1.6-0.8c0.6-0.1,1.3,0,1.6,0.5c0.4,0.5,0.3,1.2,0,1.7
			s-0.8,0.9-1.2,1.3c-1.1,0.9-2.4,1.7-3.7,2.1c-1.4,0.4-2.6,0.6-3.9,0"/>
	</g>
	<g class="st4">
		<path class="st7" d="M392.3,399.5c1.5-2,3.4-3.6,5.7-4.6c0.4-0.2,0.8-0.3,1.2-0.3c0.8,0.1,1.4,1,1.4,1.8c0,0.9-0.5,1.8-1.2,2.4
			s-1.5,1-2.4,1.3c-1.6,0.6-3.3,0.9-5,1"/>
	</g>
	<g class="st4">
		<path class="st7" d="M393.5,390.5c1.2-2.6,3.4-4.4,5.7-6.1c0.5-0.4,1.1-0.7,1.7-0.4c0.3,0.2,0.5,0.6,0.6,0.9
			c0,0.4-0.1,0.8-0.2,1.1c-1.1,3.3-4.4,5.7-7.8,5.8"/>
	</g>
	<g class="st4">
		<path class="st7" d="M393.7,385.9c0.6-1.4,1.2-2.7,1.5-4.2c0.3-1.4,0.3-3-0.2-4.4c-0.2-0.6-0.5-1.2-1-1.6s-1.2-0.6-1.8-0.3
			c-0.5,0.2-0.9,0.8-1.1,1.3c-0.2,0.6-0.1,1.2-0.1,1.7C391.3,381.3,392.2,384.6,393.7,385.9"/>
	</g>
	<g class="st4">
		<path class="st7" d="M347,425.9v6.7c0,1.5,1.2,2.6,2.6,2.6h46c1.5,0,2.6-1.2,2.6-2.6v-6.7H347z"/>
	</g>
	<g class="st4">
		<path class="st5" d="M350.9,435.3l0.4,2.1l42.5,3l1-5.1H350.9z"/>
	</g>
	<path class="st2" d="M363.8,136.1h60v62.6h-60V136.1z"/>
	<g class="st4">
		<path class="st8" d="M359.7,136.1h60v62.6h-60V136.1z"/>
	</g>
	<path class="st2" d="M419.8,198.6h-60.1V136h60.1V198.6z M359.8,198.6h60v-62.5h-60V198.6z"/>
	<g class="st4">
		<path class="st8" d="M367.8,144.5h43.9v45.7h-43.9V144.5z"/>
	</g>
	<path class="st2" d="M367.8,190.5c0,0-0.4,0.5-1.1,1.3l-2.8,2.8c-1.1,1.1-2.1,2.1-2.9,2.7c-0.7,0.7-1.2,1.1-1.3,1.1
		c0,0,0.4-0.5,1.1-1.3l2.8-2.8c1.1-1.1,2.1-2.1,2.9-2.7C367.3,190.9,367.8,190.5,367.8,190.5z M411.7,190.4c0,0,0.5,0.4,1.3,1.1
		l2.8,2.8c1.1,1.1,2.1,2.1,2.7,2.9c0.7,0.7,1.1,1.2,1.1,1.3c0,0-0.5-0.4-1.3-1.1l-2.8-2.8c-1.1-1.1-2.1-2.1-2.7-2.9
		C412,190.9,411.6,190.4,411.7,190.4z M411.6,144.6c0,0,0.4-0.5,1.1-1.3l2.8-2.8c1.1-1.1,2.1-2.1,2.9-2.7c0.7-0.7,1.2-1.1,1.3-1.1
		c0,0-0.4,0.5-1.1,1.3l-2.8,2.8c-1.1,1.1-2.1,2.1-2.9,2.7C412.1,144.2,411.6,144.6,411.6,144.6z M367.7,144.7c0,0-0.5-0.4-1.3-1.1
		l-2.8-2.8c-1.1-1.1-2.1-2.1-2.7-2.9c-0.7-0.7-1.1-1.2-1.1-1.3c0,0,0.5,0.4,1.3,1.1l2.8,2.8c1.1,1.1,2.1,2.1,2.7,2.9
		C367.3,144.2,367.7,144.7,367.7,144.7z"/>
	<path class="st2" d="M411.6,190.2v-12.6c0-8-0.1-19.4-0.1-33.1l0.2,0.2h-43.8l0.2-0.2v45.7l-0.2-0.2c13.1,0,24,0.1,31.7,0.1h11.3
		C411.2,190.1,411.4,190.1,411.6,190.2C411.5,190.2,411.6,190.2,411.6,190.2l-12,0c-7.7,0-18.6,0.1-31.8,0.1h-0.2v-46.1h44.2v0.2
		c0,13.7-0.1,25.2-0.1,33.2v12.3C411.6,190.1,411.6,190.2,411.6,190.2L411.6,190.2z"/>
	<g class="st4">
		<path class="st7" d="M382.4,160H397v14.6h-14.6V160z"/>
	</g>
</g>
<g id="Browser">
	<path class="st8" d="M413.2,342.6H86c-12.5,0-22.5-10.1-22.5-22.5v-3.4c0-12.5,10.1-22.5,22.5-22.5h327.2
		c12.5,0,22.5,10.1,22.5,22.5v3.4C435.8,332.5,425.7,342.6,413.2,342.6z"/>
	<path class="st9" d="M414.1,342.6h-64.2v-48.5h64.2c12,0,21.7,9.7,21.7,21.7v5.1C435.8,332.9,426,342.6,414.1,342.6L414.1,342.6z"
		/>
	<path class="st10" d="M413.2,342.6c0,0,0.7-0.1,2.1-0.1c0.7-0.1,1.5-0.2,2.5-0.4c1-0.3,2.1-0.5,3.4-1c2.5-1,5.5-2.6,8.2-5.4
		c1.4-1.4,2.6-3.1,3.7-5.1s1.8-4.3,2.3-6.8s0.4-5.2,0.3-8s-0.7-5.7-2-8.5s-3.2-5.4-5.7-7.6s-5.6-3.9-9.1-4.8
		c-1.7-0.5-3.6-0.6-5.4-0.7H370c-72.6,0-173,0-283.8,0.1c-6.9,0-13.6,3.3-17.7,8.7c-2.1,2.7-3.5,5.8-4.2,9.1
		c-0.1,0.8-0.3,1.7-0.3,2.5s-0.1,1.7-0.1,2.5v2.5c0,0.8,0.1,1.7,0.1,2.5c0.6,6.7,4.4,12.9,10,16.5c2.8,1.8,5.9,3,9.1,3.4
		c0.8,0.2,1.6,0.2,2.4,0.2c0.8,0.1,1.6,0,2.5,0h207.9c36.3,0,65.7,0.1,86,0.1h29.5C412.5,342.6,413.2,342.6,413.2,342.6l-31.6,0
		c-20.3,0-49.7,0-86,0.1H85.2c-0.8,0-1.7-0.1-2.5-0.2c-3.3-0.5-6.5-1.7-9.3-3.5c-5.6-3.7-9.5-10-10.2-16.8c0-0.8-0.1-1.7-0.1-2.6
		v-2.5c0-0.8,0.1-1.7,0.1-2.6c0.1-0.9,0.2-1.7,0.4-2.5c0.7-3.4,2.2-6.6,4.3-9.3c4.1-5.6,11.1-8.9,18.1-8.9
		c110.8,0,211.2,0,283.8,0.1h43.5c1.9,0.1,3.7,0.2,5.5,0.7c3.5,0.9,6.7,2.6,9.2,4.8c2.5,2.2,4.5,4.9,5.8,7.7c1.3,2.8,1.9,5.8,2,8.6
		c0,2.8,0.1,5.5-0.3,8s-1.3,4.8-2.3,6.8c-1.1,2-2.4,3.7-3.7,5.1c-2.7,2.8-5.7,4.4-8.2,5.4c-1.2,0.5-2.4,0.7-3.4,1
		c-1,0.1-1.8,0.3-2.5,0.4C413.9,342.6,413.2,342.6,413.2,342.6L413.2,342.6z"/>
	<path class="st11" d="M386.3,325c-5.8,0-10.5-4.7-10.5-10.5s4.7-10.5,10.5-10.5s10.5,4.7,10.5,10.5S392.1,325,386.3,325z
		 M386.3,304.8c-5.3,0-9.7,4.3-9.7,9.7s4.3,9.7,9.7,9.7c5.3,0,9.7-4.3,9.7-9.7S391.7,304.8,386.3,304.8z"/>
	<path class="st11" d="M402.8,332.9c-0.1,0-0.2,0-0.3-0.1l-9.6-10.3c-0.2-0.2-0.1-0.4,0-0.6c0.2-0.2,0.4-0.1,0.6,0l9.6,10.3
		c0.2,0.2,0.1,0.4,0,0.6C403,332.9,402.9,332.9,402.8,332.9L402.8,332.9z"/>
</g>
<g id="Character">
	<path class="st10" d="M248.2,126.9c-1.6,12.9-1.6,26.1,0.1,39c0.4,3.3,1.1,6.9,3.7,8.9c3.1,2.4,7.9,1.6,10.7-1.2
		c2.8-2.7,3.8-6.9,3.8-10.8c-0.1-3.9-1.1-7.8-1.8-11.6c-0.9-5.1-1.4-10.4-3.7-15c-2.3-4.6-7-8.6-12.1-8.1 M255.8,88.8
		c5.9-5.8,18.5-4.3,25,0.7c6.6,5,10,13.2,11.4,21.3s1.1,16.4,1.7,24.7c0.7,8.2,2.5,16.7,7.6,23.2c2.2,2.8,4.9,5.1,6.8,8.1
		c3.7,5.6,4.1,13.3,0.8,19c-3.4,5.8-10.5,9.3-17,8c-6.8-1.3-12.1-7.1-14.7-13.5s-3-13.5-3.6-20.4c-1.7-21.5-4.6-43-8.7-64.2"/>
	<path class="st12" d="M248.6,152.3l6.1-1.7h26.9l14.6,8.6c0,0-25.5,11.5-35,6.9S248.5,153,248.5,153"/>
	<path class="st12" d="M281.8,103.6l0.2-3.6l-21.5-4.8c-6.6-0.9-14.1,5.5-14.7,12.2c-0.7,7.4-1.3,16.5-0.6,22.1
		c1.4,11.2,9.9,12.9,9.9,12.9l0.9,24.5l24.7,1.1L281.8,103.6z"/>
	<path class="st10" d="M249,115.3c-0.1,0.8,0.5,1.4,1.3,1.5s1.5-0.5,1.5-1.2c0-0.8-0.5-1.4-1.3-1.5C249.8,114,249.1,114.5,249,115.3
		z M248,111.4c0.2,0.2,1.3-0.6,2.8-0.5c1.5,0,2.6,0.9,2.8,0.7c0.1-0.1-0.1-0.4-0.6-0.8s-1.3-0.7-2.2-0.8c-1,0-1.8,0.3-2.3,0.7
		C248.1,111,247.9,111.3,248,111.4L248,111.4z M264.1,116c-0.1,0.8,0.5,1.4,1.3,1.5s1.5-0.5,1.5-1.2c0.1-0.8-0.5-1.4-1.3-1.5
		S264.1,115.3,264.1,116z M263.2,112.2c0.2,0.2,1.3-0.6,2.8-0.5c1.5,0,2.6,0.9,2.8,0.7c0.1-0.1-0.1-0.4-0.6-0.8s-1.3-0.7-2.2-0.8
		c-1,0-1.8,0.3-2.3,0.7C263.2,111.8,263.1,112.1,263.2,112.2L263.2,112.2z M257.2,124.3c0-0.1-0.9-0.3-2.5-0.5
		c-0.4-0.1-0.8-0.1-0.8-0.4c-0.1-0.3,0.1-0.7,0.3-1.2c0.4-0.9,0.8-1.9,1.3-3c1.7-4.2,3-7.7,2.9-7.8c-0.2-0.1-1.7,3.3-3.5,7.5l-1.2,3
		c-0.2,0.4-0.4,0.9-0.3,1.5c0.1,0.3,0.4,0.5,0.6,0.6c0.2,0.1,0.5,0.1,0.7,0.1C256.2,124.3,257.2,124.3,257.2,124.3z"/>
	<path class="st13" d="M255.2,142.5c0,0,7.9,0.7,15.4-3.5c0,0-3.8,7.7-15.3,6.3L255.2,142.5z M257.8,128c0.6-0.7,1.6-1.1,2.5-1
		c0.7,0.1,1.3,0.4,1.7,1c0.4,0.6,0.5,1.3,0.1,1.8c-0.4,0.6-1.3,0.7-2,0.4c-0.7-0.2-1.3-0.7-1.9-1.2c-0.2-0.1-0.3-0.3-0.4-0.5
		C257.6,128.4,257.6,128.2,257.8,128"/>
	<path class="st10" d="M261.7,125.5c-0.2,0-0.3,1.6-1.8,2.8c-1.5,1.1-3.2,0.9-3.3,1.1c0,0.1,0.4,0.3,1.1,0.4c0.7,0,1.8-0.2,2.7-0.9
		c0.9-0.7,1.3-1.7,1.4-2.3C262,125.9,261.8,125.5,261.7,125.5L261.7,125.5z M262.9,107.6c0.1,0.4,1.7,0.3,3.5,0.5s3.2,0.8,3.5,0.4
		c0.1-0.2-0.1-0.6-0.7-1s-1.5-0.8-2.6-1s-2.1,0-2.7,0.2C263.2,107,262.9,107.4,262.9,107.6L262.9,107.6z M248.2,106.1
		c0.3,0.4,1.3,0,2.6,0.1c1.3,0,2.3,0.3,2.6-0.1c0.1-0.2,0-0.5-0.5-0.9c-0.5-0.3-1.2-0.6-2.1-0.6c-0.9,0-1.6,0.3-2.1,0.6
		C248.3,105.6,248.1,106,248.2,106.1z"/>
	<path class="st9" d="M281.5,121.1c1.9-1.3,2.8-12.4,2.7-17c-0.1-4.6-2.5-8.6-5.7-11.9c-3.5-3.5-7.6-4.8-12.5-5.3
		c-2.8-0.3-5.7-0.7-8.4,0.1c-2.7,0.8-4.2,1.7-5.5,4.2c-0.7,1.4-0.9,3.3,0.3,4.2c1.2,0.8,2.8,0.2,4.2-0.2c3.7-1.1,7.8,0.1,11.1,2.3
		c3.2,2.2,5.8,5.2,8.3,8.2C279.3,109.6,280.8,116.1,281.5,121.1"/>
	<path class="st10" d="M243.8,95.1c1.4-4.5,10.3-10.2,19.6-6c4.3,0.2,8.5,0.9,13.1,5c8.3,7.5,5.1,26,5.1,26s-7-3.2-13.2-10.6
		c-5.3-6.4-8.2-11.4-9.3-14.5c-8.6,2.1-11.9,9.6-13.4,12.9C243.8,105.8,241.3,103.1,243.8,95.1L243.8,95.1z"/>
	<path class="st12" d="M279.8,119.1c0.2-0.1,7.4-2.5,7.4,4.9c0.1,7.4-7.4,6-7.4,5.8C279.8,129.8,279.8,119.1,279.8,119.1z"/>
	<path class="st13" d="M282.1,126.9c0,0,0.1,0.1,0.3,0.2c0.2,0.1,0.6,0.2,1,0c0.8-0.3,1.4-1.5,1.5-2.9c0-0.7-0.1-1.3-0.4-1.8
		c-0.2-0.5-0.6-0.9-1-1s-0.7,0.2-0.8,0.4c-0.1,0.2,0,0.4-0.1,0.4c0,0-0.2-0.1-0.1-0.4c0-0.1,0.1-0.3,0.3-0.5
		c0.2-0.1,0.4-0.2,0.7-0.2c0.6,0,1.1,0.6,1.4,1.1c0.3,0.6,0.5,1.3,0.5,2.1c0,1.5-0.8,2.9-1.9,3.2c-0.5,0.1-1,0-1.2-0.2
		S282,126.9,282.1,126.9L282.1,126.9z"/>
	<path class="st12" d="M199.8,284.8l-15,1.7l-9.1,5.7c0,0-0.2,1.9,2.4,1.6l5.1-2.2l-4.1,4.5c0,0,1,1.8,3.2,0.5s3.6-3.1,3.6-3.1
		l9-0.6c0,0-6.8,6.5-5.6,8.2c1.3,1.7,2.1,1.3,3,0.7c1-0.6,1.5-2.8,3.8-3.5c2.2-0.7,5.9-2.8,9.9-4.7c3.4-1.6,6.9-13.3,6.9-13.3
		l-11.5-2.2L199.8,284.8L199.8,284.8z"/>
	<path class="st13" d="M193.9,288.6c0,0.2-3.8,0.9-8.5,1.6h-0.1l0.2-0.1c-3.3,3.4-6.1,6-6.2,5.9c-0.1-0.1,2.4-3,5.7-6.4l0.1-0.1h0.2
		C190,288.9,193.9,288.5,193.9,288.6z"/>
	<path class="st12" d="M289.7,379l-2.8-24.2l-22.4,6.3l5.6,23.2L289.7,379z"/>
	<path class="st9" d="M289.9,378.9l3.8,28.2l9.4,21.4c0.7,1.5-0.1,3.3-1.7,3.9c-0.9,0.3-1.9,0.2-2.6-0.3c-4.9-3.4-23-16.2-23.2-18.2
		c-0.2-2.4-6-29.5-6-29.5L289.9,378.9L289.9,378.9z"/>
	<g class="st14">
		<path class="st11" d="M301.4,432.5L275.3,412l0.2,1.2c0.2,1,0.7,2,1.5,2.6c2.1,1.8,8.1,6.7,21.7,16.3
			C299.5,432.7,300.5,432.8,301.4,432.5L301.4,432.5z"/>
	</g>
	<g class="st14">
		<path class="st11" d="M279.6,402c0.8,0.4,1.2,1.4,0.8,2.2c-0.3,0.8-1.4,1.2-2.2,0.8c-0.8-0.4-1.3-1.6-0.9-2.3
			c0.4-0.8,1.7-1.2,2.4-0.6"/>
	</g>
	<path class="st10" d="M293.1,421.2c0.2,0.1,0.6-1.5,2.1-2.6s3.1-1,3.1-1.1s-0.4-0.2-1-0.2c-0.7,0-1.6,0.2-2.4,0.8
		c-0.8,0.6-1.4,1.4-1.6,2C293,420.8,293,421.2,293.1,421.2L293.1,421.2z M295.7,424.7c0.2,0.1,0.9-1,2.3-1.6
		c1.4-0.7,2.7-0.6,2.7-0.8c0.1-0.2-1.4-0.5-3,0.2S295.5,424.6,295.7,424.7L295.7,424.7z M288.6,417c0.2,0.1,1.3-1.5,3.4-2.7
		s4-1.4,4-1.6s-2.1-0.2-4.3,1.1C289.5,415,288.5,416.9,288.6,417z M286.7,408.5c0.1,0.2,1.6-0.7,3.6-1.1s3.7-0.2,3.7-0.3
		c0.1-0.1-1.7-0.7-3.8-0.3C288,407.2,286.6,408.4,286.7,408.5L286.7,408.5z M285.4,400.3c0.1,0.1,1.5-1,3.7-1.3
		c2.1-0.3,3.8,0.5,3.9,0.3c0-0.1-0.3-0.4-1-0.6c-0.7-0.3-1.8-0.5-2.9-0.3c-1.2,0.1-2.1,0.6-2.8,1
		C285.6,399.8,285.4,400.2,285.4,400.3L285.4,400.3z M288.8,397.4c0,0,0-0.4-0.1-1.1c-0.2-0.7-0.5-1.6-1.3-2.6
		c-0.4-0.5-0.8-1.1-1.7-1.3c-0.4-0.1-1,0-1.3,0.5c-0.3,0.4-0.3,0.9-0.2,1.3c0.3,1.8,2.1,3.3,4.2,3.2c2-0.1,3.7-1.5,4.2-3.2
		c0.1-0.4,0.2-0.9-0.1-1.4c-0.3-0.4-0.9-0.5-1.3-0.4c-0.8,0.3-1.3,0.8-1.7,1.3c-0.8,0.9-1.3,1.8-1.6,2.5c-0.3,0.6-0.3,1-0.3,1
		c0.1,0.1,0.5-1.5,2.2-3.2c0.4-0.4,0.9-0.9,1.5-1.1c0.3-0.1,0.6,0,0.7,0.2s0.1,0.6,0,0.9c-0.5,1.4-2,2.7-3.7,2.7
		c-1.7,0.1-3.3-1.2-3.6-2.7c-0.1-0.3,0-0.7,0.1-0.9c0.2-0.2,0.4-0.3,0.7-0.3c0.6,0.1,1,0.7,1.4,1.1
		C288.5,395.9,288.7,397.5,288.8,397.4L288.8,397.4z M237.8,240.5l-0.4,6.1c0,0-5.2,9.8-5.6,18.5c-0.3,5.1-0.4,12.6-0.4,17.9
		c0,4.3,1.2,8.6,3.5,12.3l10.3,16.5l-1.4,18.7l18.7,37.5l27.7-7l-3.3-69.2l-11.1-36.5l-2.1-17.4L237.8,240.5L237.8,240.5z"/>
	<path class="st10" d="M293.6,236.7l0.5,8c0,0,22.2-47.4,52.6-53.2c19.7-3.8,27.5,17.7,20.6,34.7c-4.2,10.3-21.4,29.9-21.5,30.4
		c-0.5,10.5-11.3,9-11.3,9S321,286.8,317,291c-2.7,2.9-31.6,1.8-31.6,1.8l-9.1-18.8l-3.7-36L293.6,236.7L293.6,236.7z"/>
	<path class="st15" d="M255.1,286.4c0,0-0.1,0.6-0.5,1.7c-0.4,1.2-0.9,2.7-1.6,4.6c-1.3,3.9-3,9.3-4.7,15.3
		c-1.6,6-2.9,11.5-3.7,15.5c-0.4,1.9-0.7,3.5-1,4.7c-0.2,1.1-0.4,1.7-0.4,1.7s0-0.6,0.2-1.8c0.1-1.1,0.4-2.8,0.8-4.8
		c0.7-4,1.9-9.6,3.5-15.6s3.4-11.4,4.9-15.2c0.7-1.9,1.3-3.5,1.8-4.5C254.8,286.9,255.1,286.4,255.1,286.4L255.1,286.4z
		 M248.2,278.9c0.1,0-0.1,1.7-0.4,4.5c-0.3,2.8-0.7,6.6-0.9,10.9s-0.2,8.1-0.2,10.9s0.1,4.5,0,4.5c0,0-0.1-0.4-0.2-1.2
		c-0.1-0.8-0.2-1.9-0.3-3.3c-0.2-2.8-0.2-6.7,0-10.9c0.2-4.3,0.7-8.1,1.1-10.9c0.2-1.4,0.4-2.5,0.6-3.3L248.2,278.9L248.2,278.9z
		 M290.1,359.5v-0.3c0-0.3,0-0.6-0.1-1c-0.1-0.9-0.1-2.2-0.2-3.8c-0.2-3.4-0.5-8.1-0.8-14c-0.6-11.9-1.4-28.1-2.3-46.1
		c-0.3-4.5-0.2-8.9-1.1-13s-2.5-7.9-4.6-11.2c-2.1-3.3-4.5-6.1-7.1-8.3c-2.6-2.2-5.4-3.9-8.1-5.1c-5.4-2.5-10.2-3.1-13.5-3.3
		c-1.6-0.1-2.9,0-3.8,0h-1.3c0,0,1.8-0.4,5.1-0.3c3.3,0.1,8.2,0.7,13.6,3.1c2.7,1.2,5.5,2.9,8.2,5.1s5.2,5.1,7.3,8.4
		c2.1,3.4,3.8,7.2,4.7,11.4c1,4.2,0.9,8.7,1.2,13.2c0.8,18,1.6,34.3,2.1,46.2c0.2,5.9,0.4,10.6,0.6,14c0.1,1.6,0.1,2.9,0.1,3.8
		L290.1,359.5L290.1,359.5z M277.4,261.1c-0.1-0.1,2.5-3.5,5.9-7.7c3.4-4.1,6.3-7.4,6.4-7.3c0.1,0.1-2.5,3.5-5.9,7.7
		S277.6,261.2,277.4,261.1z M321.7,233.1c3.1-5,6.2-9.3,8.6-12.3s4-4.7,4.1-4.6c0.1,0.1-1.3,2-3.6,5.1c-2.2,3.1-5.3,7.4-8.3,12.4
		s-5.9,9.6-6.5,13.4c-0.6,3.8,0.7,6.1,0.6,6.1c0,0-0.4-0.4-0.8-1.5c-0.4-1-0.7-2.7-0.4-4.7c0.2-2,1-4.3,2.2-6.6"/>
	<path class="st15" d="M337.2,210c0.1,0.1-0.9,1.5-1.6,3.4c-0.7,2-0.7,3.7-0.9,3.7c-0.2,0-0.5-1.8,0.3-3.9
		C335.7,211.1,337,209.9,337.2,210z M274.5,310.2c-0.2-0.1,1.2-3.3,3.1-7.3c1.9-3.9,3.5-7.1,3.7-7s-1.2,3.3-3.1,7.3
		S274.7,310.3,274.5,310.2z M258.8,299.5c0.2-0.1,0.9,1.5,1.6,3.4s1.1,3.5,1,3.6c-0.2,0.1-0.9-1.5-1.6-3.4S258.7,299.6,258.8,299.5z
		"/>
	<path class="st9" d="M222.9,173.1c1.6-13.8,10.5-16.9,10.5-16.9l1.3,81.8l-10.2,42.2c-1.3,5.3-6.7,8.4-12,6.8l-20.7-6.3
		C191.8,280.7,221.3,187,222.9,173.1L222.9,173.1z M309.1,166c0,0,5.1,11.6,5.1,17.8c0,6.1,6.1,45.8,0,54.2s-18.1,8.1-21.6,7.8
		c-4.7-0.4-26.5-40.7-25.6-41.2l12.2-2.7c0,0,8.6,0.5,12.7,4s8.1-0.5,8.1-0.5l8.6-37.2"/>
	<path class="st9" d="M292,156.2c0,0,14,4.8,17.1,9.8c3,5.1-14.6,70.4-14.6,70.4l-56.7,4.1c0,0-4.5-0.8-5.7-4.9
		c-1.2-4.1,1.2-79.4,1.2-79.4l15.8-5.6c0,0,6.8,7,11.7,8.4C265.6,160.5,292,156.2,292,156.2L292,156.2z"/>
	<path class="st10" d="M236.9,174.2c0,0,0,0.2,0.1,0.7c0,0.5,0,1.2,0.1,1.9v7.1c-0.1,6-0.6,14.3-1.7,23.4c-0.6,4.5-1.2,8.9-1.9,12.8
		c-0.7,3.9-1.5,7.4-1.4,10.4c0,3,0.8,5.3,1.6,6.7c0.8,1.5,1.5,2.1,1.5,2.1s-0.2-0.1-0.5-0.5c-0.3-0.3-0.7-0.8-1.2-1.6
		c-0.9-1.4-1.8-3.8-1.9-6.9c-0.1-3,0.6-6.6,1.3-10.5s1.3-8.2,1.9-12.7c1.1-9.1,1.7-17.3,1.9-23.3c0.1-2.9,0.2-5.3,0.2-7.1
		c0-0.8,0-1.4,0.1-1.9C236.8,174.4,236.9,174.2,236.9,174.2L236.9,174.2z M292,209.2c-0.1,0.1-0.6-1.1-2-2.4
		c-0.7-0.7-1.6-1.3-2.7-1.9c-1.1-0.5-2.5-0.8-3.9-1c-2.9-0.4-5.5-0.2-7.3,0.4c-0.9,0.3-1.5,0.8-1.9,1.1l-0.6,0.6
		c0,0,0.1-0.3,0.4-0.7c0.4-0.4,1-1,1.9-1.3c1.8-0.8,4.6-1,7.6-0.6c1.5,0.2,2.9,0.5,4.1,1.1s2.1,1.4,2.8,2.1c0.7,0.7,1.1,1.4,1.3,1.9
		C291.9,208.8,292,209.1,292,209.2L292,209.2z M277.2,221.6c0.1,0,0.5,1.5,1.6,3.9c1,2.4,2.7,5.6,4.8,9c2.1,3.4,4.2,6.3,5.9,8.3
		c0.8,1,1.6,1.7,2.1,2.2s0.9,0.6,0.9,0.6s-0.5,0-1.1-0.4s-1.4-1.1-2.3-2.1c-1.8-1.9-4-4.8-6.1-8.3c-2.1-3.4-3.7-6.7-4.7-9.2
		c-0.5-1.2-0.8-2.3-1-3C277.3,222.1,277.2,221.7,277.2,221.6L277.2,221.6z M298.8,172.5c-0.1-0.1,1.2-2.1,3.3-4.2
		c2.1-2.1,4.2-3.3,4.3-3.2c0.1,0.2-1.8,1.6-3.8,3.6C300.5,170.8,299,172.6,298.8,172.5L298.8,172.5z M231.4,158.3
		c0.1-0.1,2.4,1.3,4.4,3.8c2.1,2.5,3,5.1,2.8,5.1c-0.2,0.1-1.3-2.3-3.3-4.7S231.3,158.5,231.4,158.3L231.4,158.3z"/>
	<path class="st10" d="M283.9,230.2c-0.1,0-0.9-1.1-2-3.2s-2.4-5-3.4-8.4s-1.5-6.6-1.6-8.9c-0.2-2.3-0.1-3.8,0-3.8s0.2,1.4,0.5,3.7
		s0.8,5.4,1.8,8.8c1,3.4,2.2,6.3,3.1,8.4C283.3,228.9,284,230.2,283.9,230.2z M305,213.3c-0.1,0.1-0.8-0.8-2.1-2
		c-1.3-1.3-3.1-2.9-5.3-4.6c-1.1-0.8-2.2-1.6-3.2-2c-1.1-0.5-2.1-0.6-2.9-0.3c-0.8,0.2-1.4,0.7-1.6,1.1c-0.3,0.4-0.3,0.7-0.4,0.7
		c0,0-0.1-0.3,0.2-0.8c0.2-0.5,0.8-1.1,1.7-1.4c0.9-0.4,2.1-0.3,3.3,0.2c1.2,0.5,2.3,1.3,3.4,2.1c2.2,1.7,4.1,3.4,5.3,4.8
		C304.4,212.3,305,213.2,305,213.3z"/>
	<path class="st16" d="M278.6,226.2c-2.9,0.7-5.9-1-8.9-1.1c-2.7-0.1-5.4,1-8,1.7c-5.7,1.6-11.9,1.2-17.4-1.1
		c-0.6-0.3-1.3-0.6-1.8-1.1s-0.7-1.6-0.3-2.2c5.1-0.1,10.2,0.2,15.3,0.1c1,0,2.1,0,3-0.6c0.4-0.3,0.5-0.6,0.5-0.6s3-0.1,4.1-0.1
		c2.5,0,5.3,0.2,7.7,0.2c1.1,0,4.5,0.1,4.4,0.1 M295.3,204.4c4.3,0.8,8.4,2.8,11.7,5.7c0.4,0.3,0.7,0.7,0.9,1.1c0.2,0.4,0.2,1,0,1.4
		c-0.3,0.5-1,0.6-1.6,0.5c-0.6-0.2-1.1-0.6-1.5-1c-3.2-2.7-6.4-5.5-9.7-8.2"/>
	<path class="st10" d="M298.1,176.4c0.1,0,0.1,1.6,0.1,4.1c-0.1,2.6-0.2,6.1-0.6,10s-0.9,7.4-1.3,9.9s-0.8,4.1-0.9,4.1
		s0.1-1.6,0.4-4.1s0.7-6,1.1-9.9s0.6-7.4,0.8-9.9C297.9,177.9,298,176.4,298.1,176.4L298.1,176.4z"/>
	<path class="st15" d="M253.9,204.4l-5.9-12.8l-20.4-1.3l-0.8,1.2l15.5,29.8l18.6,0.1L253.9,204.4z"/>
	<path class="st15" d="M253.2,205.6l-5.9-12.8l-20.4-1.3l14.7,31l16.5,0.1c1,0,1.9-0.4,2.7-1l0.2-0.1L253.2,205.6L253.2,205.6z"/>
	<path class="st7" d="M237.7,197.5c0.4,0.4,1.1,0.4,1.4-0.1c0.4-0.4,0.4-1.1-0.1-1.4c-0.4-0.4-1.1-0.4-1.4,0.1
		C237.3,196.5,237.3,197.1,237.7,197.5z"/>
	<path class="st12" d="M277.1,206.2l-7.9,0.5c-2-2.8-5.1-4.5-8.5-4.7l-2.8-0.2l-2.1,2c0,0-13.8-0.3-14.4,1.4v0.8l11.7,1.5
		c0,0-10-0.7-10.6-0.7c-0.7,0-2.8-0.3-2.8,0.8c0,1,1.1,1.8,2.8,2.2c0.7,0.1,9.4,1.4,9.4,1.4s-9.1-0.7-9.6-0.7
		c-1.1-0.1-1,1.7-0.4,1.9c0.5,0.2,12.5,4.5,12.5,4.5s-2.1,1.3-3.8,1c-1.7-0.2-4.4-2.6-5.1-1.6c-0.7,1-0.6,1.6-0.2,1.9
		c0.3,0.3,4.2,2.6,5.5,3s14.7-0.2,14.7-0.2l14,0.5L277.1,206.2L277.1,206.2z"/>
	<path class="st13" d="M251.2,203.7c0-0.1,2.2,0,4.9,0.1c2.7,0.2,4.8,0.3,4.8,0.4c0,0.1-2.2,0-4.9-0.1S251.1,203.8,251.2,203.7z"/>
	<path class="st10" d="M252,203.1c0,0-0.1-0.3-0.4-0.8c-0.3-0.6-0.6-1.3-1-2.1c-0.9-1.9-2-4.5-3.3-7.4l0.1,0.1
		c-1.5-0.1-3-0.2-4.7-0.3c-4.4-0.3-8.3-0.6-11.3-0.8c-1.4-0.1-2.5-0.2-3.4-0.3c-0.4,0-0.7-0.1-0.9-0.1h-0.3h1.2c0.9,0,2,0.1,3.4,0.2
		c3,0.2,6.9,0.4,11.3,0.7c1.6,0.1,3.2,0.2,4.7,0.3h0.1v0.1c1.3,2.9,2.4,5.5,3.3,7.4c0.4,0.9,0.7,1.6,0.9,2.2
		C251.9,202.8,252,203.1,252,203.1L252,203.1z"/>
	<path class="st9" d="M330.8,271.4l-13.6,17.1c0,0,13.7,18.2,11.5,21.6l-35-23.8l20.1-27.5L330.8,271.4L330.8,271.4z"/>
	<g class="st14">
		<path class="st11" d="M307.8,279.2c-0.8-0.3-1.8,0.1-2.1,0.9c-0.3,0.8,0.1,1.8,0.9,2.1c0.8,0.3,2-0.1,2.3-0.9
			C309.1,280.5,308.6,279.3,307.8,279.2"/>
	</g>
	<g class="st14">
		<path class="st11" d="M293.8,286.3l2-2.8l33,24.2c0,0,0.8,1.3,0,2.8L293.8,286.3z"/>
	</g>
	<path class="st10" d="M317.9,288.7c-0.1,0.2-1-0.4-2.2-0.4c-1.2-0.1-2.2,0.3-2.3,0.1c-0.1-0.1,0.9-1,2.3-0.8
		C317.2,287.7,318.1,288.6,317.9,288.7L317.9,288.7z M320.4,292.8c-0.1,0.2-1-0.1-2.1,0.2c-1.1,0.3-1.8,0.9-2,0.8s0.4-1.1,1.8-1.5
		C319.5,292,320.5,292.7,320.4,292.8L320.4,292.8z M319.3,298.6c-0.2-0.1,0.2-1.1,1.3-1.7c1.1-0.6,2.1-0.4,2.1-0.2s-0.9,0.3-1.8,0.8
		C320,298.1,319.4,298.7,319.3,298.6L319.3,298.6z M320.6,284.5c-0.2,0.1-0.8-0.7-1.8-1.3c-1-0.6-1.9-0.9-1.9-1.1s1.2-0.3,2.3,0.5
		C320.4,283.3,320.7,284.4,320.6,284.5z M323.2,281c0,0.1-0.8-0.3-1.7-1.3c-0.5-0.5-0.9-1.1-1.4-1.9l-0.6-1.2
		c-0.1-0.2-0.2-0.5-0.2-0.8c-0.1-0.3,0.2-0.8,0.6-0.9s0.8,0,1,0.2c0.3,0.2,0.4,0.4,0.6,0.6c0.3,0.4,0.6,0.8,0.8,1.1
		c0.4,0.8,0.7,1.5,0.8,2.2c0.3,1.3,0.1,2.1,0,2.1s-0.1-0.8-0.5-2c-0.2-0.6-0.5-1.3-0.9-2c-0.2-0.3-0.5-0.7-0.8-1
		c-0.3-0.4-0.6-0.6-0.8-0.5c-0.1,0-0.1,0.1-0.1,0.2c0,0.2,0.1,0.4,0.2,0.6c0.2,0.4,0.3,0.8,0.5,1.2c0.4,0.7,0.8,1.4,1.2,1.8
		C322.7,280.4,323.3,280.9,323.2,281L323.2,281z"/>
	<path class="st10" d="M322.9,281.1c-0.1,0,0-0.9,0.8-2c0.4-0.6,0.9-1.2,1.6-1.7c0.4-0.3,0.8-0.5,1.2-0.7c0.4-0.2,1-0.5,1.7-0.1
		c0.3,0.2,0.4,0.7,0.4,1c-0.1,0.3-0.2,0.5-0.3,0.8c-0.2,0.4-0.5,0.8-0.8,1.1c-0.6,0.6-1.4,1-2,1.2c-1.3,0.4-2.2,0.1-2.1,0
		c0-0.1,0.8,0,2-0.5c0.6-0.2,1.2-0.6,1.7-1.2c0.3-0.3,0.5-0.6,0.7-1s0.3-0.8,0.1-0.9c-0.2-0.1-0.7-0.1-1,0.1
		c-0.4,0.2-0.8,0.4-1.1,0.6c-0.7,0.5-1.2,1-1.6,1.5C323.2,280.4,323,281.1,322.9,281.1L322.9,281.1z"/>
	<path class="st12" d="M334.5,265.6l-4.3,5.4l-16-11.9l2.9-4.4L334.5,265.6z"/>
</g>
<path id="Floor" class="st10" d="M469.3,468.9c0,0.1-97.1,0.3-216.7,0.3c-119.7,0-216.8-0.1-216.8-0.3c0-0.1,97-0.3,216.8-0.3
	C372.2,468.6,469.3,468.7,469.3,468.9z"/>
<g id="Plant">
	<path class="st9" d="M116.3,392.5c4.1-2.1,8.8-2.4,13.3-1.6c2.4,0.4,4.9,1.1,6.6,2.9c1.6,1.8,2,5,0.1,6.6c-1.1,0.9-2.7,1.1-4.2,1.1
		c-3.5,0-7.4-0.7-10.3,1.5c-1.6,1.2-2.7,3.2-4.6,3.8c-1.9,0.6-4-0.5-5-2.2s-1-3.8-0.6-5.7C111.7,398.8,112.2,394.6,116.3,392.5
		L116.3,392.5z M107,374.5c2.5,3.5,7.3,2.4,9.5,0.2c2.2-2.2,3.2-5.3,4-8.3c2-6.8,3.9-14,2.5-21c-0.4-2.1-1.2-4.2-2.7-5.7
		s-3.7-2.5-5.8-1.9c-2.4,0.6-3.9,3-5,5.3c-3.2,6.7-4.9,14-4.9,21.4C104.6,368.1,105,371.7,107,374.5 M100.2,379.6
		c2.7-3.2,3.2-7.9,2-11.9s-3.9-7.4-7-10.2c-3.7-3.3-8-5.8-12.6-7.4c-1.8-0.6-3.7-1.1-5.7-1c-1.9,0.2-3.9,1.2-4.8,2.9
		c-1.3,2.5-0.1,5.6,1.3,8.1c2.4,4.4,5.2,8.6,8.3,12.6c2.5,3.2,5.3,6.3,9.1,7.8c3.8,1.4,7.7,1.3,9.7-1.3"/>
	<path class="st10" d="M106.8,428c0,0,0.1-0.6,0.2-1.6c0.1-1.2,0.3-2.6,0.4-4.4c0.2-1.9,0.5-4.1,1-6.4c0.5-2.4,1.3-5,2.3-7.6
		c1.1-2.6,2.4-5,3.9-6.9s3.3-3.3,4.9-4.1c1.6-0.8,3.1-1.1,4.1-1.3c1-0.1,1.6-0.2,1.6-0.2s-0.6-0.1-1.6,0s-2.6,0.3-4.3,1.1
		c-1.7,0.8-3.6,2.2-5.2,4.1s-2.9,4.4-4,7c-1,2.7-1.8,5.3-2.3,7.7c-0.5,2.4-0.7,4.7-0.9,6.5c-0.1,1.9-0.2,3.4-0.2,4.4
		C106.8,427.4,106.8,428,106.8,428L106.8,428z"/>
	<path class="st10" d="M107.1,424.6v-2.8c0-1.9,0-4.5,0.1-7.9c0.2-6.6,0.7-13.8,1.8-23.8c1-9.5,2.4-20.5,3.9-27.6
		c0.3-1.6,0.6-3.1,0.9-4.4s0.5-2.4,0.8-3.3c0.2-0.8,0.4-1.5,0.5-2.1c0.1-0.5,0.2-0.7,0.1-0.7c0,0-0.1,0.2-0.3,0.7
		c-0.2,0.5-0.4,1.2-0.6,2c-0.3,0.9-0.6,2-0.9,3.3s-0.7,2.7-1,4.4c-1.5,6.5-3,15.6-4.1,25.6c-1.1,10.1-1.6,19.3-1.6,25.9
		c0,3.3,0,6,0.1,7.9c0.1,0.9,0.1,1.6,0.1,2.1C107.1,424.4,107.1,424.6,107.1,424.6L107.1,424.6z"/>
	<path class="st10" d="M107.2,406.9v-2.2c-0.1-1.4-0.3-3.5-0.7-6.1c-0.4-2.5-1-5.5-2-8.8c-0.4-1.5-1.4-5.1-3.7-10.4
		c-3.1-7.3-7.2-13.2-10.8-16.9c-0.8-1-1.8-1.7-2.5-2.4c-0.4-0.3-0.7-0.7-1.1-0.9c-0.4-0.2-0.7-0.5-1-0.7c-1.2-0.8-1.9-1.2-1.9-1.2
		c-0.1,0.1,2.7,1.8,6.2,5.5s7.5,9.6,10.6,16.8c1.7,3.9,2.9,7.4,3.7,10.3c1,3.2,1.6,6.2,2.1,8.7s0.7,4.6,0.9,6
		C107,406.1,107.1,406.9,107.2,406.9L107.2,406.9z M90.1,438.2l1.7,24.3h31.3l1.7-24.3H90.1z"/>
	<path class="st10" d="M87,428.6h41.5v9.6H87V428.6z"/>
	<path class="st15" d="M87,461.5v2.7h40.9v-2.7H87z M90.9,468.9l-1.9-4.7h37.4l-2.3,4.7H90.9z"/>
	<path class="st5" d="M124.2,446.1c0,0,0,0.1-0.1,0.2c-0.1,0.2-0.3,0.4-0.5,0.6c-0.4,0.6-1.1,1.3-1.8,2.3l-0.1,0.1l-0.1-0.1
		c-1.1-1.6-2.7-3.7-4.5-6.2h0.3c-1.3,1.9-2.8,4-4.4,6.2l-0.1,0.2l-0.2-0.2c-1.6-1.9-3.4-4-5.2-6.2h0.3c-0.1,0.1-0.2,0.2-0.3,0.4
		c-1.6,2-3.2,4-4.7,5.8l-0.2,0.2l-0.1-0.2c-1.6-2.2-3.1-4.3-4.4-6.2h0.3c-2.2,2.5-4,4.6-5.4,6.2l-0.1,0.1l-0.1-0.1
		c-0.7-1.2-1.3-2.2-1.7-2.9c-0.2-0.3-0.3-0.6-0.4-0.8c-0.1-0.2-0.1-0.3-0.1-0.3l0.2,0.2c0.1,0.2,0.3,0.4,0.5,0.7
		c0.4,0.7,1,1.6,1.8,2.8h-0.2c1.4-1.6,3.2-3.8,5.3-6.3l0.1-0.2l0.1,0.2c1.3,1.9,2.8,4,4.4,6.2h-0.3c1.5-1.9,3-3.8,4.7-5.9
		c0.1-0.1,0.2-0.2,0.3-0.4l0.1-0.2l0.2,0.2c1.8,2.2,3.6,4.3,5.2,6.2h-0.3c1.6-2.2,3.1-4.3,4.4-6.2l0.1-0.2l0.1,0.2
		c1.8,2.5,3.3,4.6,4.4,6.2h-0.2c0.8-1,1.4-1.7,1.9-2.3c0.2-0.2,0.4-0.4,0.5-0.6C124.2,446.2,124.2,446.1,124.2,446.1L124.2,446.1z"
		/>
	<path class="st15" d="M125.3,438c0,0.1-7.8,0.2-17.5,0.2s-17.5-0.1-17.5-0.2s7.8-0.2,17.5-0.2C117.4,437.8,125.3,437.9,125.3,438z"
		/>
	<path class="st10" d="M126.8,464.5c0,0.1-8.5,0.2-19,0.2s-19-0.1-19-0.2s8.5-0.2,19-0.2S126.8,464.4,126.8,464.5z"/>
</g>
</svg>
