<?xml version="1.0" encoding="utf-8"?>
<!-- Generator: Adobe Illustrator 25.2.0, SVG Export Plug-In . SVG Version: 6.00 Build 0)  -->
<svg version="1.1" id="Layer_1" xmlns="http://www.w3.org/2000/svg" xmlns:xlink="http://www.w3.org/1999/xlink" x="0px" y="0px"
	 viewBox="0 0 500 500" style="enable-background:new 0 0 500 500;" xml:space="preserve">
<style type="text/css">
	.st0{opacity:0.1;fill:#EBEBEB;enable-background:new    ;}
	.st1{fill:#EBEBEB;}
	.st2{fill:none;}
	.st3{opacity:0.1;fill:#263238;enable-background:new    ;}
	.st4{opacity:0.1;}
	.st5{fill:#E8505B;}
	.st6{fill:#7879E8;}
	.st7{opacity:0.1;fill:#7879E8;enable-background:new    ;}
	.st8{fill:#263238;}
	.st9{fill:#7879E6;}
	.st10{opacity:0.1;fill:#7879E6;enable-background:new    ;}
	.st11{fill:#8026CD;}
	.st12{opacity:0.3;enable-background:new    ;}
	.st13{fill:#FFBE9D;}
	.st14{fill:#EB996E;}
	.st15{fill:#FFFFFF;}
	.st16{fill:#6E21BF;}
	.st17{fill:#641CAF;}
	.st18{fill:#455A64;}
	.st19{fill:#FAFAFA;}
	.st20{fill:#E0E0E0;}
	.st21{opacity:0.5;enable-background:new    ;}
</style>
<g id="Background_Complete">
	<path class="st0" d="M48,236.8c-1.3-1.7-2.9-3.1-4.7-4.3c-0.1,0-0.1-0.1-0.2-0.1c-0.4-0.3-0.9-0.6-1.3-0.9
		c-1.8-1.1-3.8-1.8-5.8-2.3c-7.2-1.5-12.4,1.4-16.8,6.8c0,0-3.2,4.5-4.2,8.9c-0.3,1.3-0.3,2.8-0.6,3c-0.4,0.3-1.5,0-3.1,3.3
		c-1.2,2.5,2.4,5.7,4.1,7c0.5,0.4,0.6,1,0.3,1.5l-2.6,4.5c-0.3,0.6-0.1,1.3,0.4,1.6l0.5,0.3c0.5,0.3,1.2,0.2,1.5-0.3l0.6-1
		c0.3-0.5,1-0.7,1.5-0.3c0.6,0.3,0.7,1.1,0.4,1.6l-0.8,1.5c-0.3,0.6-0.1,1.3,0.4,1.6l0.5,0.3c0.6,0.3,1.3,0.2,1.6-0.4l0.8-1.4
		c0.3-0.6,1-0.7,1.6-0.4l0.2,0.1c0.5,0.3,0.7,1.1,0.4,1.6l-0.8,1.4c-0.3,0.5-0.1,1.3,0.4,1.6l0.5,0.3c0.5,0.3,1.3,0.2,1.6-0.4
		l0.8-1.5c0.3-0.5,1-0.7,1.6-0.4c0.5,0.3,0.7,1,0.4,1.6l-0.6,1.1c-0.3,0.5-0.1,1.3,0.4,1.6l0.5,0.3c0.5,0.3,1.3,0.2,1.6-0.4l2.6-4.5
		c0.3-0.5,0.9-0.7,1.4-0.4c1.9,0.9,6.3,2.8,7.8,0.5c2-3,1.2-3.9,1.3-4.4c0-0.3,1.3-1.1,2.2-2c3.2-3.1,5.5-8.1,5.5-8.1
		C52.7,249,52.7,242.7,48,236.8L48,236.8z M21.8,252.2c-2.6-1.5-3.7-4.8-2.4-7.5s4.6-3.6,7.2-2.1s3.7,4.8,2.4,7.5
		C27.7,252.8,24.5,253.7,21.8,252.2z M28.3,263.4c-1.9,0.4-2-1.3-2-1.3c-0.3,0.4-0.7,0.4-1.1,0.2c-1.2-0.5-1.7-2.1-1.1-3.2
		c1.3-2.7,5.6-4,5.8-4C29.8,255.1,31.4,262.8,28.3,263.4z M44.2,258.6c-1.3,2.6-4.6,3.6-7.2,2.1s-3.7-4.8-2.4-7.5
		c1.3-2.6,4.6-3.6,7.2-2.1C44.5,252.7,45.5,256,44.2,258.6z M444.2,91.2c2.5-0.8,8-3.1,7.4-6.4c-0.8-4.3-2.3-4.6-2.7-5
		c-0.3-0.3,0.2-2.1,0.3-3.7c0.2-5.5-2.2-12-2.2-12c-3.5-8-9-13.5-18.3-14.6c-2.7-0.3-5.3-0.2-7.9,0.2c-0.1,0-0.2,0-0.3,0.1
		c-0.6,0.1-1.3,0.2-1.9,0.4c-2.5,0.7-5,1.7-7.2,3.1c-7.7,4.9-9.8,12.1-9,20.7c0,0,1.1,6.7,4,11.6c0.8,1.4,2.2,2.8,2.1,3.2
		c-0.1,0.6-1.3,1.4,0.1,5.6c1.1,3.2,7.1,2.9,9.8,2.6c0.7-0.1,1.4,0.4,1.6,1.1l1.7,6.3c0.2,0.8,1,1.2,1.8,1.1l0.8-0.2
		c0.8-0.2,1.2-0.9,1.1-1.7l-0.3-1.5c-0.2-0.7,0.3-1.5,1.1-1.7c0.8-0.2,1.6,0.3,1.8,1.1l0.5,2c0.2,0.8,1,1.2,1.8,1.1l0.8-0.2
		c0.8-0.2,1.3-0.9,1.1-1.7l-0.5-1.9c-0.2-0.8,0.3-1.5,1.1-1.7L433,99c0.8-0.2,1.6,0.3,1.8,1.1l0.5,1.9c0.2,0.8,1,1.2,1.8,1.1
		l0.8-0.2c0.8-0.2,1.3-0.9,1.1-1.7l-0.5-2c-0.2-0.8,0.3-1.5,1.1-1.7c0.8-0.2,1.6,0.3,1.8,1l0.4,1.5c0.2,0.7,1,1.2,1.8,1l0.8-0.2
		c0.8-0.2,1.3-0.9,1.1-1.7l-1.6-6.3C443.1,92.2,443.5,91.4,444.2,91.2L444.2,91.2z M418.8,86c-3.6,1-7.5-1-8.6-4.5s0.9-7.2,4.6-8.2
		s7.5,1,8.6,4.5C424.5,81.4,422.5,85,418.8,86z M434.3,90.3c-1.4,2-2.9,0.5-2.9,0.5c0.1,0.6-0.3,1-0.8,1.2c-1.5,0.6-3.3-0.4-3.8-1.9
		c-1.2-3.5,1.5-8.5,1.7-8.6C428.4,81.6,436.5,87.1,434.3,90.3L434.3,90.3z M439.7,80.3c-3.6,1-7.5-1-8.6-4.5s0.9-7.2,4.6-8.2
		s7.5,1,8.6,4.5C445.4,75.7,443.3,79.3,439.7,80.3z"/>
</g>
<g id="Background_Simple">
	<path class="st1" d="M90.8,320.9c-0.2,0-0.3,0.1-0.4,0.1L90.8,320.9z"/>
	<path class="st0" d="M134,254.9c-1.3-15.7-12.2-31.5-27.8-34.1c-8.6-1.4-18.8,2.3-21.5,10.6c-3.3,10.2,5.7,22.2,0.6,31.6
		c-4,7.4-14.1,8.5-20.8,13.5c-9.5,7.1-10.7,22.3-3.8,32s18.2,14,30,12.4c11.3-2.7,24.2-11.4,30.1-21.4
		C128.9,286,135.3,270.6,134,254.9z M363.5,62.5c-4-8.1-13-12.7-21.9-14.2c-17.3-3-29.7-2-40.8,11.6c-4.3,4.8-6.7,11.9-8.4,18
		c-2,6.9-0.9,15,3.9,20.4s13.5,7.4,19.6,3.6c6.8-4.2,9.2-13.7,16.6-16.7c7.2-2.9,15.5,1.9,22.9-0.3
		C364.1,82.3,367.5,70.6,363.5,62.5L363.5,62.5z"/>
	
		<ellipse transform="matrix(0.8757 -0.4829 0.4829 0.8757 -36.0736 232.2814)" class="st0" cx="433.1" cy="186.2" rx="18.2" ry="18.2"/>
</g>
<g id="Screens">
	<path class="st2" d="M40.9,57.5h232.5v155.1H40.9V57.5z"/>
	<path class="st3" d="M273.4,212.7c0-1.7-0.1-60.6-0.2-155.1l0.2,0.2c-64,0-144.9,0-232.5,0.1l0.3-0.3v155.1l-0.2-0.2
		C177.8,212.6,271.3,212.6,273.4,212.7c-2.1,0-95.6,0.1-232.5,0.2h-0.2V57.3H41c87.6,0,168.5,0,232.5,0.1h0.2v0.2
		C273.5,152,273.4,211,273.4,212.7L273.4,212.7z"/>
	<g class="st4">
		<path class="st5" d="M83.3,76.1c0,0.1-4.7,0.2-10.4,0.2s-10.4-0.1-10.4-0.2s4.7-0.2,10.4-0.2C78.7,75.9,83.3,76,83.3,76.1z"/>
		<path class="st6" d="M72.9,76.5c-2.8,0-5.4,0-7.3-0.1c-3.2-0.1-3.2-0.1-3.2-0.3c0-0.2,0-0.2,3.2-0.3c2,0,4.6-0.1,7.3-0.1
			c2.8,0,5.4,0,7.3,0.1c3.2,0.1,3.2,0.1,3.2,0.3c0,0.2,0,0.2-3.2,0.3C78.3,76.5,75.7,76.5,72.9,76.5z M64.8,76.1
			c1.8,0.1,4.6,0.1,8.1,0.1s6.3,0,8.1-0.1C79.2,76,76.4,76,72.9,76C69.4,76.1,66.6,76.1,64.8,76.1z"/>
	</g>
	<path class="st7" d="M83.3,195.3c0,0.1-4.7,0.2-10.4,0.2s-10.4-0.1-10.4-0.2s4.7-0.2,10.4-0.2C78.7,195.1,83.3,195.2,83.3,195.3z"
		/>
	<path class="st3" d="M64.8,195.3c1.8,0.1,4.6,0.1,8.1,0.1"/>
	<g class="st4">
		<path class="st5" d="M112.2,93.6c0,0.1-8.7,0.2-19.4,0.2s-19.4-0.1-19.4-0.2s8.7-0.2,19.4-0.2S112.2,93.5,112.2,93.6z"/>
		<path class="st6" d="M92.8,94c-5.2,0-10.1,0-13.7-0.1c-5.8-0.1-5.8-0.1-5.8-0.3c0-0.2,0-0.2,5.8-0.3c3.7,0,8.6-0.1,13.7-0.1
			c5.2,0,10.1,0,13.7,0.1c5.8,0.1,5.8,0.1,5.8,0.3c0,0.2,0,0.2-5.8,0.3C102.9,94,98,94,92.8,94z M77.7,93.6
			c3.4,0.1,8.6,0.1,15.1,0.1s11.8,0,15.1-0.1c-3.4,0-8.6-0.1-15.1-0.1S81,93.5,77.7,93.6z"/>
	</g>
	<g class="st4">
		<path class="st8" d="M157.2,93.6c0,0.1-8.7,0.2-19.4,0.2s-19.4-0.1-19.4-0.2s8.7-0.2,19.4-0.2S157.2,93.5,157.2,93.6z"/>
		<path class="st3" d="M137.8,94c-5.2,0-10.1,0-13.7-0.1c-5.8-0.1-5.8-0.1-5.8-0.3c0-0.2,0-0.2,5.8-0.3c3.7,0,8.6-0.1,13.7-0.1
			c5.2,0,10.1,0,13.7,0.1c5.8,0.1,5.8,0.1,5.8,0.3c0,0.2,0,0.2-5.8,0.3C147.8,94,143,94,137.8,94z M122.6,93.6
			c3.4,0.1,8.6,0.1,15.1,0.1s11.8,0,15.1-0.1c-3.4,0-8.6-0.1-15.1-0.1S126,93.5,122.6,93.6z"/>
	</g>
	<g class="st4">
		<path class="st8" d="M140,102.1c0,0.1-12.8,0.2-28.6,0.2s-28.6-0.1-28.6-0.2s12.8-0.2,28.6-0.2C127.2,101.8,140,101.9,140,102.1z"
			/>
		<path class="st3" d="M111.4,102.5c-7.7,0-14.8,0-20.3-0.1c-8.5-0.1-8.5-0.1-8.5-0.3c0-0.2,0-0.2,8.5-0.3c5.4,0,12.6-0.1,20.3-0.1
			c7.6,0,14.8,0,20.3,0.1c8.5,0.1,8.5,0.1,8.5,0.3c0,0.2,0,0.2-8.5,0.3C126.2,102.4,119,102.5,111.4,102.5z M89,102.1
			c5,0.1,12.7,0.1,22.3,0.1s17.3,0,22.3-0.1c-5-0.1-12.7-0.1-22.3-0.1S94,102,89,102.1z"/>
	</g>
	<g class="st4">
		<path class="st8" d="M140,110.6c0,0.1-12.8,0.2-28.6,0.2s-28.6-0.1-28.6-0.2s12.8-0.2,28.6-0.2C127.2,110.3,140,110.4,140,110.6z"
			/>
		<path class="st3" d="M111.4,110.9c-7.6,0-14.8,0-20.3-0.1c-8.5-0.1-8.5-0.1-8.5-0.3c0-0.2,0-0.2,8.5-0.3c5.4,0,12.6-0.1,20.3-0.1
			s14.8,0,20.3,0.1c8.5,0.1,8.5,0.1,8.5,0.3c0,0.2,0,0.2-8.5,0.3C126.2,110.9,119,110.9,111.4,110.9z M89.1,110.6
			c5,0,12.7,0.1,22.3,0.1s17.3,0,22.3-0.1c-5-0.1-12.7-0.1-22.3-0.1S94,110.5,89.1,110.6z"/>
	</g>
	<g class="st4">
		<path class="st8" d="M179.5,136c0,0.1-12.8,0.2-28.6,0.2s-28.6-0.1-28.6-0.2s12.8-0.2,28.6-0.2C166.6,135.8,179.5,135.9,179.5,136
			z"/>
		<path class="st3" d="M150.8,136.4c-7.7,0-14.8,0-20.3-0.1c-8.5-0.1-8.5-0.1-8.5-0.3s0-0.2,8.5-0.3c5.4,0,12.6-0.1,20.3-0.1
			s14.8,0,20.3,0.1c8.5,0.1,8.5,0.1,8.5,0.3s0,0.2-8.5,0.3C165.7,136.3,158.5,136.4,150.8,136.4z M128.5,136c5,0,12.7,0.1,22.3,0.1
			s17.3,0,22.3-0.1c-5-0.1-12.7-0.1-22.3-0.1S133.5,135.9,128.5,136z"/>
	</g>
	<g class="st4">
		<path class="st8" d="M162.4,119c0,0.1-12.8,0.2-28.6,0.2s-28.6-0.1-28.6-0.2s12.8-0.2,28.6-0.2S162.4,118.9,162.4,119z"/>
		<path class="st8" d="M133.8,119.4c-7.7,0-14.8,0-20.3-0.1c-8.5-0.1-8.5-0.1-8.5-0.3c0-0.2,0-0.2,8.5-0.3c5.4,0,12.6-0.1,20.3-0.1
			c7.6,0,14.8,0,20.3,0.1c8.5,0.1,8.5,0.1,8.5,0.3c0,0.2,0,0.2-8.5,0.3C148.6,119.4,141.4,119.4,133.8,119.4z M111.5,119
			c5,0.1,12.7,0.1,22.3,0.1s17.3,0,22.3-0.1c-5,0-12.7-0.1-22.3-0.1S116.5,119,111.5,119z"/>
	</g>
	<path class="st3" d="M232.4,119c0,0.1-12.8,0.2-28.6,0.2s-28.6-0.1-28.6-0.2s12.8-0.2,28.6-0.2S232.4,118.9,232.4,119z"/>
	<path class="st3" d="M203.8,119.4c-7.7,0-14.8,0-20.3-0.1c-8.5-0.1-8.5-0.1-8.5-0.3c0-0.2,0-0.2,8.5-0.3c5.4,0,12.6-0.1,20.3-0.1
		c7.6,0,14.8,0,20.3,0.1c8.5,0.1,8.5,0.1,8.5,0.3c0,0.2,0,0.2-8.5,0.3C218.6,119.4,211.5,119.4,203.8,119.4z M181.5,119
		c5,0.1,12.7,0.1,22.3,0.1s17.3,0,22.3-0.1c-5,0-12.7-0.1-22.3-0.1S186.5,119,181.5,119z M208.1,102.1c0,0.1-12.8,0.2-28.6,0.2
		s-28.6-0.1-28.6-0.2s12.8-0.2,28.6-0.2C195.3,101.8,208.1,101.9,208.1,102.1z"/>
	<path class="st3" d="M179.5,102.5c-7.7,0-14.8,0-20.3-0.1c-8.5-0.1-8.5-0.1-8.5-0.3c0-0.2,0-0.2,8.5-0.3c5.4,0,12.6-0.1,20.3-0.1
		c7.6,0,14.8,0,20.3,0.1c8.5,0.1,8.5,0.1,8.5,0.3c0,0.2,0,0.2-8.5,0.3C194.3,102.4,187.1,102.5,179.5,102.5z M157.1,102.1
		c5,0.1,12.7,0.1,22.3,0.1s17.3,0,22.3-0.1c-5-0.1-12.7-0.1-22.3-0.1S162.1,102,157.1,102.1z M247.7,136c0,0.1-12.8,0.2-28.6,0.2
		s-28.6-0.1-28.6-0.2s12.8-0.2,28.6-0.2C234.8,135.8,247.7,135.9,247.7,136z"/>
	<g class="st4">
		<path class="st3" d="M219,136.4c-7.7,0-14.8,0-20.3-0.1c-8.5-0.1-8.5-0.1-8.5-0.3s0-0.2,8.5-0.3c5.4,0,12.6-0.1,20.3-0.1
			s14.8,0,20.3,0.1c8.5,0.1,8.5,0.1,8.5,0.3s0,0.2-8.5,0.3C233.9,136.3,226.7,136.4,219,136.4z M196.7,136c5,0,12.7,0.1,22.3,0.1
			s17.3,0,22.3-0.1c-5-0.1-12.7-0.1-22.3-0.1S201.7,135.9,196.7,136z"/>
	</g>
	<path class="st3" d="M239.8,110.6c0,0.1-19.9,0.2-44.5,0.2s-44.5-0.1-44.5-0.2s19.9-0.2,44.5-0.2
		C219.9,110.3,239.8,110.4,239.8,110.6z"/>
	<path class="st3" d="M195.3,110.9c-11.9,0-23.1,0-31.5-0.1c-9.7-0.1-12.3-0.1-12.9-0.2c-0.2,0-0.2-0.1-0.2-0.1c0-0.1,0-0.1,0.2-0.1
		c0.7-0.1,3.2-0.1,12.9-0.2c8.4,0,19.6-0.1,31.5-0.1s23.1,0,31.5,0.1c9.8,0.1,12.3,0.1,12.9,0.2c0.2,0,0.2,0.1,0.2,0.1
		s0,0.1-0.2,0.1c-0.7,0.1-3.2,0.1-12.9,0.2C218.3,110.9,207.2,110.9,195.3,110.9z M160.6,110.6c8.2,0.1,20.8,0.1,34.7,0.1
		s26.5,0,34.7-0.1c-8.2-0.1-20.8-0.1-34.7-0.1S168.8,110.5,160.6,110.6z"/>
	<g class="st4">
		<path class="st8" d="M83.3,85.1c0,0.1-4.7,0.2-10.4,0.2s-10.4-0.1-10.4-0.2s4.7-0.2,10.4-0.2C78.7,84.9,83.3,85,83.3,85.1z"/>
		<path class="st3" d="M72.9,85.5c-2.8,0-5.4,0-7.3-0.1c-3.2-0.1-3.2-0.1-3.2-0.3c0-0.2,0-0.2,3.2-0.3c2,0,4.6-0.1,7.3-0.1
			c2.8,0,5.4,0,7.3,0.1c3.2,0.1,3.2,0.1,3.2,0.3c0,0.2,0,0.2-3.2,0.3C78.3,85.5,75.7,85.5,72.9,85.5z M64.8,85.1
			c1.8,0.1,4.6,0.1,8.1,0.1s6.3,0,8.1-0.1C79.2,85,76.4,85,72.9,85S66.6,85.1,64.8,85.1z"/>
	</g>
	<path class="st3" d="M83.3,186.9c0,0.1-4.7,0.2-10.4,0.2s-10.4-0.1-10.4-0.2s4.7-0.2,10.4-0.2C78.7,186.6,83.3,186.7,83.3,186.9z"
		/>
	<path class="st3" d="M72.9,186.8c-3.5,0-6.3,0-8.1,0.1"/>
	<g class="st4">
		<path class="st8" d="M93.6,119c0,0.1-4.7,0.2-10.4,0.2s-10.4-0.1-10.4-0.2s4.7-0.2,10.4-0.2C89,118.8,93.6,118.9,93.6,119z"/>
		<path class="st3" d="M83.2,119.4c-2.8,0-5.4,0-7.3-0.1c-3.2-0.1-3.2-0.1-3.2-0.3c0-0.2,0-0.2,3.2-0.3c2,0,4.6-0.1,7.3-0.1
			c2.8,0,5.4,0,7.3,0.1c3.2,0.1,3.2,0.1,3.2,0.3c0,0.2,0,0.2-3.2,0.3C88.6,119.4,86,119.4,83.2,119.4z M75.1,119
			c1.8,0.1,4.6,0.1,8.1,0.1s6.3,0,8.1-0.1c-1.8,0-4.6-0.1-8.1-0.1S76.9,119,75.1,119z"/>
	</g>
	<path class="st3" d="M260.1,119c0,0.1-4.7,0.2-10.4,0.2s-10.4-0.1-10.4-0.2s4.7-0.2,10.4-0.2C255.5,118.8,260.1,118.9,260.1,119z"
		/>
	<g class="st4">
		<path class="st5" d="M112.2,152.9c0,0.1-8.7,0.2-19.4,0.2s-19.4-0.1-19.4-0.2s8.7-0.2,19.4-0.2S112.2,152.8,112.2,152.9z"/>
		<path class="st6" d="M92.8,153.3c-5.2,0-10.1,0-13.7-0.1c-5.8-0.1-5.8-0.1-5.8-0.3s0-0.2,5.8-0.3c3.7,0,8.6-0.1,13.7-0.1
			c5.2,0,10.1,0,13.7,0.1c5.8,0.1,5.8,0.1,5.8,0.3s0,0.2-5.8,0.3C102.9,153.2,98,153.3,92.8,153.3z M77.7,152.9
			c3.4,0.1,8.6,0.1,15.2,0.1c6.5,0,11.8,0,15.2-0.1c-3.4-0.1-8.6-0.1-15.2-0.1S81,152.8,77.7,152.9z"/>
	</g>
	<g class="st4">
		<path class="st8" d="M157.2,152.9c0,0.1-8.7,0.2-19.4,0.2s-19.4-0.1-19.4-0.2s8.7-0.2,19.4-0.2S157.2,152.8,157.2,152.9z"/>
		<path class="st3" d="M137.8,153.3c-5.2,0-10.1,0-13.7-0.1c-5.8-0.1-5.8-0.1-5.8-0.3s0-0.2,5.8-0.3c3.7,0,8.6-0.1,13.7-0.1
			c5.2,0,10.1,0,13.7,0.1c5.8,0.1,5.8,0.1,5.8,0.3s0,0.2-5.8,0.3C147.8,153.2,142.9,153.3,137.8,153.3z M122.6,152.9
			c3.4,0.1,8.6,0.1,15.2,0.1c6.5,0,11.8,0,15.2-0.1c-3.4-0.1-8.6-0.1-15.2-0.1S126,152.8,122.6,152.9z"/>
	</g>
	<g class="st4">
		<path class="st8" d="M140,161.4c0,0.1-12.8,0.2-28.6,0.2s-28.6-0.1-28.6-0.2s12.8-0.2,28.6-0.2C127.2,161.1,140,161.2,140,161.4z"
			/>
		<path class="st8" d="M111.4,161.7c-7.6,0-14.8,0-20.3-0.1c-8.5-0.1-8.5-0.1-8.5-0.3s0-0.2,8.5-0.3c5.4,0,12.6-0.1,20.3-0.1
			s14.8,0,20.3,0.1c8.5,0.1,8.5,0.1,8.5,0.3s0,0.2-8.5,0.3C126.2,161.7,119,161.7,111.4,161.7z M89.1,161.4c5,0,12.7,0.1,22.3,0.1
			s17.3,0,22.3-0.1c-5-0.1-12.7-0.1-22.3-0.1S94,161.3,89.1,161.4z"/>
	</g>
	<g class="st4">
		<path class="st8" d="M140,169.8c0,0.1-12.8,0.2-28.6,0.2s-28.6-0.1-28.6-0.2s12.8-0.2,28.6-0.2S140,169.7,140,169.8z"/>
		<path class="st3" d="M111.4,170.2c-7.7,0-14.8,0-20.3-0.1c-8.5-0.1-8.5-0.1-8.5-0.3s0-0.2,8.5-0.3c5.4,0,12.6-0.1,20.3-0.1
			c7.6,0,14.8,0,20.3,0.1c8.5,0.1,8.5,0.1,8.5,0.3s0,0.2-8.5,0.3C126.2,170.2,119,170.2,111.4,170.2z M89,169.8
			c5,0.1,12.7,0.1,22.3,0.1s17.3,0,22.3-0.1c-5-0.1-12.7-0.1-22.3-0.1C101.7,169.8,94,169.8,89,169.8z"/>
	</g>
	<g class="st4">
		<path class="st8" d="M162.4,178.3c0,0.1-12.8,0.2-28.6,0.2s-28.6-0.1-28.6-0.2s12.8-0.2,28.6-0.2S162.4,178.2,162.4,178.3z"/>
		<path class="st3" d="M133.8,178.7c-7.6,0-14.8,0-20.3-0.1c-8.5-0.1-8.5-0.1-8.5-0.3s0-0.2,8.5-0.3c5.4,0,12.6-0.1,20.3-0.1
			s14.8,0,20.3,0.1c8.5,0.1,8.5,0.1,8.5,0.3s0,0.2-8.5,0.3C148.6,178.7,141.4,178.7,133.8,178.7z M111.5,178.3
			c5,0.1,12.7,0.1,22.3,0.1s17.3,0,22.3-0.1c-5-0.1-12.7-0.1-22.3-0.1S116.4,178.3,111.5,178.3z"/>
	</g>
	<path class="st3" d="M232.4,178.3c0,0.1-12.8,0.2-28.6,0.2s-28.6-0.1-28.6-0.2s12.8-0.2,28.6-0.2S232.4,178.2,232.4,178.3z"/>
	<path class="st3" d="M203.8,178.7c-7.6,0-14.8,0-20.3-0.1c-8.5-0.1-8.5-0.1-8.5-0.3s0-0.2,8.5-0.3c5.4,0,12.6-0.1,20.3-0.1
		s14.8,0,20.3,0.1c8.5,0.1,8.5,0.1,8.5,0.3s0,0.2-8.5,0.3C218.6,178.7,211.4,178.7,203.8,178.7z M181.5,178.3
		c5,0.1,12.7,0.1,22.3,0.1s17.3,0,22.3-0.1c-5-0.1-12.7-0.1-22.3-0.1S186.5,178.3,181.5,178.3z M208.1,161.4
		c0,0.1-12.8,0.2-28.6,0.2s-28.6-0.1-28.6-0.2s12.8-0.2,28.6-0.2C195.3,161.1,208.1,161.2,208.1,161.4z"/>
	<path class="st3" d="M179.5,161.7c-7.7,0-14.8,0-20.3-0.1c-8.5-0.1-8.5-0.1-8.5-0.3s0-0.2,8.5-0.3c5.4,0,12.6-0.1,20.3-0.1
		s14.8,0,20.3,0.1c8.5,0.1,8.5,0.1,8.5,0.3s0,0.2-8.5,0.3C194.3,161.7,187.1,161.7,179.5,161.7z M157.1,161.4c5,0,12.7,0.1,22.3,0.1
		s17.3,0,22.3-0.1c-5-0.1-12.7-0.1-22.3-0.1S162.1,161.3,157.1,161.4z M239.8,169.8c0,0.1-19.9,0.2-44.5,0.2s-44.5-0.1-44.5-0.2
		s19.9-0.2,44.5-0.2S239.8,169.7,239.8,169.8z"/>
	<path class="st3" d="M195.3,170.2c-11.9,0-23.1,0-31.5-0.1c-9.8-0.1-12.3-0.1-12.9-0.2c-0.2,0-0.2-0.1-0.2-0.1s0-0.1,0.2-0.1
		c0.7-0.1,3.2-0.1,12.9-0.2c8.4,0,19.6-0.1,31.5-0.1s23,0,31.5,0.1c9.7,0.1,12.3,0.1,12.9,0.2c0.2,0,0.2,0.1,0.2,0.1s0,0.1-0.2,0.1
		c-0.7,0.1-3.2,0.1-12.9,0.2C218.3,170.2,207.2,170.2,195.3,170.2z M160.6,169.8c8.2,0.1,20.8,0.1,34.7,0.1s26.5,0,34.7-0.1
		c-8.2-0.1-20.8-0.1-34.7-0.1C181.3,169.8,168.8,169.8,160.6,169.8z"/>
	<g class="st4">
		<path class="st8" d="M93.6,178.3c0,0.1-4.7,0.2-10.4,0.2s-10.4-0.1-10.4-0.2s4.7-0.2,10.4-0.2C89,178.1,93.6,178.2,93.6,178.3z"/>
		<path class="st3" d="M83.2,178.7c-2.8,0-5.4,0-7.3-0.1c-3.2-0.1-3.2-0.1-3.2-0.3s0-0.2,3.2-0.3c2,0,4.6-0.1,7.3-0.1
			c2.8,0,5.4,0,7.3,0.1c3.2,0.1,3.2,0.1,3.2,0.3s0,0.2-3.2,0.3C88.6,178.7,86,178.7,83.2,178.7z M75.1,178.3
			c1.8,0.1,4.6,0.1,8.1,0.1s6.3,0,8.1-0.1c-1.8-0.1-4.6-0.1-8.1-0.1S76.9,178.3,75.1,178.3z"/>
	</g>
	<path class="st8" d="M260.1,178.3c0,0.1-4.7,0.2-10.4,0.2s-10.4-0.1-10.4-0.2s4.7-0.2,10.4-0.2
		C255.5,178.1,260.1,178.2,260.1,178.3z"/>
	<path class="st8" d="M249.7,178.7c-2.8,0-5.4,0-7.3-0.1c-3.2-0.1-3.2-0.1-3.2-0.3s0-0.2,3.2-0.3c2,0,4.6-0.1,7.3-0.1
		c2.8,0,5.4,0,7.3,0.1c3.2,0.1,3.2,0.1,3.2,0.3s0,0.2-3.2,0.3C255.1,178.7,252.5,178.7,249.7,178.7z M241.6,178.3
		c1.8,0.1,4.6,0.1,8.1,0.1s6.3,0,8.1-0.1c-1.8-0.1-4.6-0.1-8.1-0.1S243.4,178.3,241.6,178.3L241.6,178.3z"/>
	<path class="st2" d="M318.9,224.5h148.3v100.6H318.9V224.5z"/>
	<path class="st3" d="M467.2,325c0-1.1-0.1-39.3-0.1-100.6l0.1,0.1H318.9l0.2-0.2v100.6l-0.2-0.2C406.2,325,465.8,325,467.2,325
		c-1.4,0-61,0.1-148.3,0.2h-0.2v-101h148.6v0.1C467.2,285.8,467.2,323.9,467.2,325z"/>
	<g class="st4">
		<path class="st5" d="M345.9,236.5c0,0.1-3,0.2-6.6,0.2c-3.7,0-6.6-0.1-6.6-0.2s3-0.2,6.6-0.2C343,236.4,345.9,236.5,345.9,236.5z"
			/>
		<path class="st9" d="M339.3,236.8h-4.7c-2,0-2-0.1-2-0.2s0-0.2,2-0.2h9.4c2,0,2,0.1,2,0.2s0,0.2-2,0.2H339.3L339.3,236.8z
			 M334.1,236.5c1.2,0,3,0.1,5.2,0.1s4,0,5.2-0.1c-1.2,0-3-0.1-5.2-0.1C337.1,236.5,335.3,236.5,334.1,236.5z"/>
	</g>
	<path class="st10" d="M345.9,313.8c0,0.1-3,0.2-6.6,0.2c-3.7,0-6.6-0.1-6.6-0.2s3-0.2,6.6-0.2C343,313.7,345.9,313.7,345.9,313.8z"
		/>
	<path class="st3" d="M334.1,313.8c1.2,0,3,0.1,5.2,0.1"/>
	<g class="st4">
		<path class="st5" d="M364.4,247.9c0,0.1-5.6,0.2-12.4,0.2s-12.4-0.1-12.4-0.2s5.5-0.2,12.4-0.2
			C358.8,247.7,364.4,247.8,364.4,247.9z"/>
		<path class="st9" d="M352,248.1h-8.8c-3.7,0-3.7-0.1-3.7-0.2s0-0.2,3.7-0.2h17.6c3.7,0,3.7,0.1,3.7,0.2s0,0.2-3.7,0.2H352z
			 M342.3,247.9c2.2,0,5.5,0.1,9.7,0.1s7.5,0,9.7-0.1c-2.2,0-5.5-0.1-9.7-0.1S344.5,247.8,342.3,247.9z"/>
	</g>
	<g class="st4">
		<path class="st8" d="M393.1,247.9c0,0.1-5.6,0.2-12.4,0.2s-12.4-0.1-12.4-0.2s5.5-0.2,12.4-0.2
			C387.5,247.7,393.1,247.8,393.1,247.9z"/>
		<path class="st3" d="M380.7,248.1h-8.8c-3.7,0-3.7-0.1-3.7-0.2s0-0.2,3.7-0.2h17.6c3.7,0,3.7,0.1,3.7,0.2s0,0.2-3.7,0.2H380.7
			L380.7,248.1z M371,247.9c2.2,0,5.5,0.1,9.7,0.1s7.5,0,9.7-0.1c-2.2,0-5.5-0.1-9.7-0.1S373.2,247.8,371,247.9z"/>
	</g>
	<g class="st4">
		<path class="st8" d="M382.1,253.4c0,0.1-8.2,0.2-18.3,0.2c-10.1,0-18.3-0.1-18.3-0.2s8.2-0.2,18.3-0.2S382.1,253.3,382.1,253.4z"
			/>
		<path class="st3" d="M363.8,253.6h-12.9c-5.4,0-5.4-0.1-5.4-0.2s0-0.2,5.4-0.2h25.8c5.4,0,5.4,0.1,5.4,0.2s0,0.2-5.4,0.2H363.8z
			 M349.6,253.4c3.2,0,8.1,0.1,14.2,0.1s11.1,0,14.2-0.1c-3.2,0-8.1-0.1-14.2-0.1S352.8,253.3,349.6,253.4z"/>
	</g>
	<g class="st4">
		<path class="st8" d="M382.1,258.9c0,0.1-8.2,0.2-18.3,0.2c-10.1,0-18.3-0.1-18.3-0.2s8.2-0.2,18.3-0.2
			C373.9,258.7,382.1,258.8,382.1,258.9z"/>
		<path class="st3" d="M363.8,259.1h-12.9c-5.4,0-5.4-0.1-5.4-0.2s0-0.2,5.4-0.2h25.8c5.4,0,5.4,0.1,5.4,0.2s0,0.2-5.4,0.2H363.8z
			 M349.6,258.9c3.2,0,8.1,0.1,14.2,0.1s11.1,0,14.2-0.1c-3.2,0-8.1-0.1-14.2-0.1S352.8,258.8,349.6,258.9z"/>
	</g>
	<g class="st4">
		<path class="st8" d="M407.3,275.3c0,0.1-8.2,0.2-18.3,0.2c-10.1,0-18.3-0.1-18.3-0.2s8.2-0.2,18.3-0.2
			C399.1,275.2,407.3,275.3,407.3,275.3z"/>
		<path class="st3" d="M389,275.6h-12.9c-5.4,0-5.4-0.1-5.4-0.2s0-0.2,5.4-0.2h25.8c5.4,0,5.4,0.1,5.4,0.2s0,0.2-5.4,0.2H389z
			 M374.8,275.3c3.2,0,8.1,0.1,14.2,0.1s11.1,0,14.2-0.1c-3.2,0-8.1-0.1-14.2-0.1C382.9,275.3,377.9,275.3,374.8,275.3z"/>
	</g>
	<g class="st4">
		<path class="st8" d="M396.4,264.4c0,0.1-8.2,0.2-18.3,0.2c-10.1,0-18.3-0.1-18.3-0.2s8.2-0.1,18.3-0.1
			C388.2,264.2,396.4,264.3,396.4,264.4z"/>
		<path class="st8" d="M378.1,264.6h-12.9c-5.4,0-5.4-0.1-5.4-0.2s0-0.2,5.4-0.2H391c5.4,0,5.4,0.1,5.4,0.2s0,0.2-5.4,0.2H378.1z
			 M363.9,264.4c3.2,0,8.1,0.1,14.2,0.1s11.1,0,14.2-0.1c-3.2,0-8.1-0.1-14.2-0.1S367.1,264.3,363.9,264.4z"/>
	</g>
	<path class="st3" d="M441.1,264.4c0,0.1-8.2,0.2-18.3,0.2c-10.1,0-18.3-0.1-18.3-0.2s8.2-0.1,18.3-0.1
		C432.9,264.2,441.1,264.3,441.1,264.4z"/>
	<path class="st3" d="M422.8,264.6h-12.9c-5.4,0-5.4-0.1-5.4-0.2s0-0.2,5.4-0.2h25.8c5.4,0,5.4,0.1,5.4,0.2s0,0.2-5.4,0.2H422.8z
		 M408.6,264.4c3.2,0,8.1,0.1,14.2,0.1s11.1,0,14.2-0.1c-3.2,0-8.1-0.1-14.2-0.1S411.7,264.3,408.6,264.4z M425.5,253.4
		c0,0.1-8.2,0.2-18.3,0.2c-10.1,0-18.3-0.1-18.3-0.2s8.2-0.2,18.3-0.2S425.5,253.3,425.5,253.4z"/>
	<path class="st3" d="M407.3,253.6h-12.9c-5.4,0-5.4-0.1-5.4-0.2s0-0.2,5.4-0.2h25.8c5.4,0,5.4,0.1,5.4,0.2s0,0.2-5.4,0.2H407.3z
		 M393,253.4c3.2,0,8.1,0.1,14.2,0.1s11.1,0,14.2-0.1c-3.2,0-8.1-0.1-14.2-0.1S396.2,253.3,393,253.4z M450.8,275.3
		c0,0.1-8.2,0.2-18.3,0.2c-10.1,0-18.3-0.1-18.3-0.2s8.2-0.2,18.3-0.2C442.6,275.2,450.8,275.3,450.8,275.3z"/>
	<g class="st4">
		<path class="st3" d="M432.5,275.6h-12.9c-5.4,0-5.4-0.1-5.4-0.2s0-0.2,5.4-0.2h25.8c5.4,0,5.4,0.1,5.4,0.2s0,0.2-5.4,0.2H432.5z
			 M418.3,275.3c3.2,0,8.1,0.1,14.2,0.1s11.1,0,14.2-0.1c-3.2,0-8.1-0.1-14.2-0.1S421.4,275.3,418.3,275.3z"/>
	</g>
	<path class="st3" d="M445.7,258.9c0,0.1-12.7,0.2-28.4,0.2s-28.4-0.1-28.4-0.2s12.7-0.2,28.4-0.2S445.7,258.8,445.7,258.9z"/>
	<path class="st3" d="M417.4,259.1h-20.1c-6.2,0-7.8-0.1-8.3-0.1c-0.1,0-0.1,0-0.1-0.1c0,0,0-0.1,0.1-0.1c0.4-0.1,2-0.1,8.3-0.1
		h40.2c6.2,0,7.8,0.1,8.3,0.1c0.1,0,0.1,0,0.1,0.1c0,0,0,0.1-0.1,0.1c-0.4,0.1-2,0.1-8.3,0.1H417.4z M395.2,258.9
		c5.2,0,13.2,0.1,22.1,0.1s16.9,0,22.1-0.1c-5.2,0-13.2-0.1-22.1-0.1C408.5,258.8,400.5,258.8,395.2,258.9z"/>
	<g class="st4">
		<path class="st8" d="M345.9,242.4c0,0.1-3,0.2-6.6,0.2c-3.7,0-6.6-0.1-6.6-0.2s3-0.2,6.6-0.2C343,242.2,345.9,242.3,345.9,242.4z"
			/>
		<path class="st3" d="M339.3,242.6h-4.7c-2,0-2-0.1-2-0.2s0-0.2,2-0.2h9.4c2,0,2,0.1,2,0.2s0,0.2-2,0.2H339.3L339.3,242.6z
			 M334.1,242.4c1.2,0,3,0.1,5.2,0.1s4,0,5.2-0.1c-1.2,0-3-0.1-5.2-0.1S335.3,242.3,334.1,242.4z"/>
	</g>
	<path class="st3" d="M345.9,308.3c0,0.1-3,0.2-6.6,0.2c-3.7,0-6.6-0.1-6.6-0.2s3-0.2,6.6-0.2C343,308.2,345.9,308.2,345.9,308.3z"
		/>
	<path class="st3" d="M339.3,308.3c-2.2,0-4,0-5.2,0.1"/>
	<g class="st4">
		<path class="st8" d="M352.5,264.4c0,0.1-3,0.2-6.6,0.2c-3.7,0-6.6-0.1-6.6-0.2s3-0.1,6.6-0.1C349.5,264.2,352.5,264.3,352.5,264.4
			z"/>
		<path class="st3" d="M345.9,264.6h-4.7c-2,0-2-0.1-2-0.2s0-0.2,2-0.2h9.4c2,0,2,0.1,2,0.2s0,0.2-2,0.2H345.9L345.9,264.6z
			 M340.7,264.4c1.2,0,2.9,0.1,5.2,0.1c2.2,0,4,0,5.2-0.1c-1.2,0-2.9-0.1-5.2-0.1C343.7,264.3,341.9,264.3,340.7,264.4z"/>
	</g>
	<path class="st3" d="M458.7,264.4c0,0.1-3,0.2-6.6,0.2c-3.7,0-6.6-0.1-6.6-0.2s3-0.1,6.6-0.1C455.7,264.2,458.7,264.3,458.7,264.4z
		"/>
	<g class="st4">
		<path class="st5" d="M364.4,286.3c0,0.1-5.6,0.2-12.4,0.2s-12.4-0.1-12.4-0.2s5.5-0.2,12.4-0.2
			C358.8,286.2,364.4,286.2,364.4,286.3z"/>
		<path class="st9" d="M352,286.5h-8.8c-3.7,0-3.7-0.1-3.7-0.2s0-0.2,3.7-0.2h17.6c3.7,0,3.7,0.1,3.7,0.2s0,0.2-3.7,0.2H352z
			 M342.3,286.3c2.2,0,5.5,0.1,9.7,0.1s7.5,0,9.7-0.1c-2.2,0-5.5-0.1-9.7-0.1S344.5,286.3,342.3,286.3z"/>
	</g>
	<g class="st4">
		<path class="st8" d="M393.1,286.3c0,0.1-5.6,0.2-12.4,0.2s-12.4-0.1-12.4-0.2s5.5-0.2,12.4-0.2
			C387.5,286.2,393.1,286.2,393.1,286.3z"/>
		<path class="st3" d="M380.7,286.5h-8.8c-3.7,0-3.7-0.1-3.7-0.2s0-0.2,3.7-0.2h17.6c3.7,0,3.7,0.1,3.7,0.2s0,0.2-3.7,0.2H380.7
			L380.7,286.5z M371,286.3c2.2,0,5.5,0.1,9.7,0.1s7.5,0,9.7-0.1c-2.2,0-5.5-0.1-9.7-0.1S373.2,286.3,371,286.3z"/>
	</g>
	<g class="st4">
		<path class="st8" d="M382.1,291.8c0,0.1-8.2,0.2-18.3,0.2c-10.1,0-18.3-0.1-18.3-0.2s8.2-0.2,18.3-0.2
			C373.9,291.6,382.1,291.7,382.1,291.8z"/>
		<path class="st8" d="M363.8,292h-12.9c-5.4,0-5.4-0.1-5.4-0.2s0-0.2,5.4-0.2h25.8c5.4,0,5.4,0.1,5.4,0.2s0,0.2-5.4,0.2H363.8z
			 M349.6,291.8c3.2,0,8.1,0.1,14.2,0.1s11.1,0,14.2-0.1c-3.2,0-8.1-0.1-14.2-0.1S352.8,291.8,349.6,291.8z"/>
	</g>
	<g class="st4">
		<path class="st8" d="M382.1,297.3c0,0.1-8.2,0.2-18.3,0.2c-10.1,0-18.3-0.1-18.3-0.2s8.2-0.2,18.3-0.2
			C373.9,297.1,382.1,297.2,382.1,297.3z"/>
		<path class="st3" d="M363.8,297.5h-12.9c-5.4,0-5.4-0.1-5.4-0.2s0-0.2,5.4-0.2h25.8c5.4,0,5.4,0.1,5.4,0.2s0,0.2-5.4,0.2H363.8z
			 M349.6,297.3c3.2,0,8.1,0.1,14.2,0.1s11.1,0,14.2-0.1c-3.2,0-8.1-0.1-14.2-0.1S352.8,297.3,349.6,297.3z"/>
	</g>
	<g class="st4">
		<path class="st8" d="M396.4,302.8c0,0.1-8.2,0.2-18.3,0.2c-10.1,0-18.3-0.1-18.3-0.2s8.2-0.2,18.3-0.2
			C388.2,302.6,396.4,302.7,396.4,302.8z"/>
		<path class="st3" d="M378.1,303h-12.9c-5.4,0-5.4-0.1-5.4-0.2s0-0.2,5.4-0.2H391c5.4,0,5.4,0.1,5.4,0.2s0,0.2-5.4,0.2H378.1z
			 M363.9,302.8c3.2,0,8.1,0.1,14.2,0.1s11.1,0,14.2-0.1c-3.2,0-8.1-0.1-14.2-0.1S367.1,302.8,363.9,302.8z"/>
	</g>
	<path class="st3" d="M441.1,302.8c0,0.1-8.2,0.2-18.3,0.2c-10.1,0-18.3-0.1-18.3-0.2s8.2-0.2,18.3-0.2
		C432.9,302.6,441.1,302.7,441.1,302.8z"/>
	<path class="st3" d="M422.8,303h-12.9c-5.4,0-5.4-0.1-5.4-0.2s0-0.2,5.4-0.2h25.8c5.4,0,5.4,0.1,5.4,0.2s0,0.2-5.4,0.2H422.8z
		 M408.5,302.8c3.2,0,8.1,0.1,14.2,0.1s11.1,0,14.2-0.1c-3.2,0-8.1-0.1-14.2-0.1S411.7,302.8,408.5,302.8z M425.5,291.8
		c0,0.1-8.2,0.2-18.3,0.2c-10.1,0-18.3-0.1-18.3-0.2s8.2-0.2,18.3-0.2C417.3,291.6,425.5,291.7,425.5,291.8z"/>
	<path class="st3" d="M407.3,292h-12.9c-5.4,0-5.4-0.1-5.4-0.2s0-0.2,5.4-0.2h25.8c5.4,0,5.4,0.1,5.4,0.2s0,0.2-5.4,0.2H407.3z
		 M393,291.8c3.2,0,8.1,0.1,14.2,0.1s11.1,0,14.2-0.1c-3.2,0-8.1-0.1-14.2-0.1S396.2,291.8,393,291.8z M445.7,297.3
		c0,0.1-12.7,0.2-28.4,0.2s-28.4-0.1-28.4-0.2s12.7-0.2,28.4-0.2S445.7,297.2,445.7,297.3z"/>
	<path class="st3" d="M417.4,297.5h-20.1c-6.2,0-7.8-0.1-8.3-0.1c-0.1,0-0.1,0-0.1-0.1c0,0,0-0.1,0.1-0.1c0.4-0.1,2-0.1,8.3-0.1
		h40.2c6.2,0,7.8,0.1,8.3,0.1c0.1,0,0.1,0,0.1,0.1c0,0,0,0.1-0.1,0.1c-0.4,0.1-2,0.1-8.3,0.1H417.4z M395.2,297.3
		c5.2,0,13.3,0.1,22.1,0.1c8.9,0,16.9,0,22.1-0.1c-5.2,0-13.3-0.1-22.1-0.1S400.4,297.3,395.2,297.3z"/>
	<g class="st4">
		<path class="st8" d="M352.5,302.8c0,0.1-3,0.2-6.6,0.2c-3.7,0-6.6-0.1-6.6-0.2s3-0.2,6.6-0.2S352.5,302.7,352.5,302.8z"/>
		<path class="st3" d="M345.9,303h-4.7c-2,0-2-0.1-2-0.2s0-0.2,2-0.2h9.4c2,0,2,0.1,2,0.2s0,0.2-2,0.2H345.9L345.9,303z
			 M340.7,302.8c1.2,0,3,0.1,5.2,0.1s4,0,5.2-0.1c-1.2,0-3-0.1-5.2-0.1S341.9,302.8,340.7,302.8z"/>
	</g>
	<path class="st3" d="M458.7,302.8c0,0.1-3,0.2-6.6,0.2c-3.7,0-6.6-0.1-6.6-0.2s3-0.2,6.6-0.2S458.7,302.7,458.7,302.8z"/>
</g>
<path id="Table" class="st8" d="M483.5,445.4c0,0.1-104.5,0.3-233.5,0.3s-233.5-0.1-233.5-0.3c0-0.1,104.5-0.3,233.5-0.3
	C378.9,445.1,483.5,445.2,483.5,445.4z"/>
<g id="Character">
	<path class="st11" d="M334.9,274L311,263.7H198.3c0,0-8.5,5.2-15.9,8.7c-4.4,2-26.3,15.8-26.3,15.8L171.3,445l177.9,0.5l12-160.6
		L334.9,274L334.9,274z"/>
	<path class="st11" d="M156.1,288.1c0,0-34.6,39.4-35.8,42.6c-1.2,3.2-10.4,19.7-10.4,19.7s-14.5,6.8-16.5,10.4s-6,11.3-6,11.3
		s-28.5,34.3-31.2,45.7c-3,12.6,4,27.7,4,27.7H150l6.9-29.3c0.9-1.5-0.1-3.1-1.8-3.5c-4.9-1.4-8.7-2-12.1-5.6l0.6-4.7l16.7-12.8
		l15.1-11.6L156.1,288.1L156.1,288.1z M349.2,368.2c-0.1,0.4,13.3,9.9,13.3,9.9l12.3,18.7c-2.7,2.5-5.7,4.9-9.2,7l-8.3,2.9l-0.4,2
		l1.3,6.8c2.5,13.1,13.2,27,26.2,29.8l1.8-0.1l61.7,0.3c5.3-8.5,10.4-15.3,9.5-24.3L456,406l-23.9-32l-35.2-50.9
		c0,0-24.3-33.5-35.7-38.2l-12,28.6L349.2,368.2L349.2,368.2z"/>
	<path class="st8" d="M166.5,334.6c0,0-0.1-0.6-0.1-1.7s-0.2-2.7-0.3-4.7c-0.3-3.9-1.1-9.3-2.5-15.2c-1.4-5.8-3.2-11-4.7-14.6
		c-0.7-1.8-1.4-3.3-1.8-4.3c-0.4-1-0.7-1.6-0.6-1.6c0,0,0.3,0.5,0.8,1.5s1.2,2.4,2,4.2c1.6,3.6,3.4,8.8,4.9,14.7
		c1.4,5.9,2.1,11.3,2.3,15.3c0.1,2,0.2,3.6,0.2,4.7C166.5,334,166.5,334.6,166.5,334.6L166.5,334.6z M344.3,335.1v-1.9
		c0-0.6,0-1.4,0.1-2.2c0-0.9,0.1-1.9,0.2-2.9c0.2-2.2,0.5-4.8,1.1-7.6c0.6-2.8,1.3-5.9,2.3-9.1s2.2-6.1,3.5-8.7
		c1.2-2.6,2.5-4.9,3.6-6.8c0.5-0.9,1.1-1.8,1.6-2.5s0.9-1.3,1.3-1.8c0.3-0.4,0.6-0.8,0.8-1.1c0.2-0.3,0.3-0.4,0.3-0.4l-0.2,0.4
		c-0.2,0.3-0.5,0.7-0.8,1.2s-0.7,1.1-1.2,1.9c-0.4,0.7-1,1.6-1.5,2.5c-1.1,1.9-2.3,4.2-3.5,6.8c-1.2,2.6-2.4,5.5-3.4,8.7
		s-1.8,6.2-2.4,9s-0.9,5.4-1.2,7.5c-0.1,1.1-0.2,2.1-0.3,2.9c-0.1,0.9-0.1,1.6-0.1,2.2s-0.1,1-0.1,1.4
		C344.3,334.9,344.3,335.1,344.3,335.1L344.3,335.1z M112.1,370.7c0,0,0.2,0,0.5,0.1s0.8,0.1,1.3,0.3c1.2,0.3,2.8,0.7,4.8,1.5
		c3.9,1.5,9.1,4.6,13.5,9.4c2.2,2.4,4,4.9,5.5,7.3s2.5,4.7,3.4,6.6s1.5,3.5,1.9,4.6c0.2,0.5,0.3,0.9,0.5,1.3
		c0.1,0.3,0.1,0.5,0.1,0.5s-0.1-0.1-0.2-0.4c-0.2-0.3-0.3-0.7-0.6-1.2c-0.5-1.1-1.2-2.6-2.1-4.6c-0.9-1.9-2-4.2-3.5-6.5
		c-1.5-2.4-3.3-4.8-5.5-7.2c-4.3-4.8-9.4-7.8-13.3-9.4c-1.9-0.8-3.6-1.3-4.7-1.7C112.7,370.9,112,370.8,112.1,370.7L112.1,370.7z"/>
	<path class="st12" d="M142.9,406.7c-3.7-10.9-16.4-18.7-24.2-25.2c-4.7-3.8-10.5-7.1-16.5-6c-2.2,0.4-4.5,1.5-5.3,3.6
		s0.8,4.9,3,4.7c-4.9,2.6-9,4.6-14,7.3c-0.9,0.5-1.9,0.9-2.3,2.5c-0.2,0.9-0.5,1.6,0.3,1.3c10.6-3.3,18.7-1.8,18.7-1.8
		s2.3-0.7,10.6-0.3C122.2,393.1,127.8,393.2,142.9,406.7 M374.5,396.6c4.2-9.3,11.2-15.6,20.6-19.4c5.5-2.2,12.1-2.9,17,0.3
		c2.5,1.7,4.7,4.7,3.1,8.5c-2.1,4.8-8.9,3.9-10.7,4.1c0,0-7.4-1.5-14-0.2s-8.3,2.7-15.8,6.8"/>
	<path class="st8" d="M156.8,416.1c0,0,0.1-0.3,0.2-1c0-0.2,0.1-0.3,0-0.5v-0.3c0-0.1-0.1-0.2-0.1-0.3c-0.2-0.4-0.6-0.8-1.2-1
		c-1.1-0.5-2.6-0.8-4.4-1.3c-0.9-0.2-1.8-0.5-2.7-0.9s-1.9-0.9-2.8-1.5c-1.9-1.2-3.8-2.8-5.7-4.6c-1.9-1.8-4-3.7-6.5-5.3
		c-4.9-3.3-11.1-5.6-17.9-6.4s-13.3,0.1-19,1.7s-10.5,4-14.3,6.2c-3.9,2.2-6.8,4.4-8.7,5.9c-1,0.8-1.7,1.4-2.3,1.8
		c-0.2,0.2-0.4,0.3-0.6,0.5c-0.1,0.1-0.2,0.2-0.2,0.1l0.2-0.2c0.1-0.1,0.3-0.3,0.6-0.5c0.5-0.4,1.2-1.1,2.2-1.9
		c2-1.6,4.8-3.8,8.7-6.1c3.8-2.3,8.7-4.7,14.4-6.4c5.7-1.7,12.3-2.6,19.2-1.8c6.8,0.8,13.1,3.1,18.1,6.5c2.5,1.7,4.6,3.6,6.5,5.4
		s3.8,3.4,5.6,4.6c3.7,2.6,7.5,2.7,9.8,3.8c0.6,0.3,1,0.7,1.2,1.1c0,0.1,0.1,0.2,0.1,0.3v0.9c0,0.3-0.2,0.6-0.2,0.7
		C156.8,416,156.8,416.1,156.8,416.1L156.8,416.1z"/>
	<path class="st12" d="M139.9,414.1c-7.1,2.9-13,9.3-16.4,16.1c-1.1,2.1-1.9,5.7-1.8,8.1c0.1,2.1,0.5,3.6,2.3,4.8
		c2,1.3,4.9,2.5,4.9,2.5c3.9-0.1,16.4,0.1,20.3,0c5.1-0.2,7.4-2.8,7.4-3.2c0.3-2.5,3.8-8.9,4.4-13.7c0-0.2,0.1-0.5,0.1-0.8
		c1.2-8.7-6-16.3-14.7-15.3C144.1,412.7,142,413.2,139.9,414.1z"/>
	<path class="st13" d="M139.9,414.1l16.9,2.1c0,0,29.8-7.5,35.6-5.9c5.2,1.4,23.4,16.3,27,19.3c0.4,0.3,0.7,0.8,0.8,1.3
		c0.6,2.2-0.7,4.4-2.9,5.1l-0.4,0.1l0.1,0.6c0.1,0.7,0.2,1.6,0.1,2.4c-0.4,2.7-4.2,3.2-5.3,0.7l0.6,1.4c0.2,0.6,0.3,1.2,0.2,1.8
		l-0.2,1.2c-0.2,1.3-1.2,2.4-2.5,2.6c-1.2,0.3-2.5-0.2-3.3-1.2c-2.2-3-7-8.9-10.5-9.9c-3.2-0.9-8.5-1.5-11.7-1.8
		c-1.6-0.2-3.2,0.7-4,2.2c2.1,0.4,16.3,9.7,21.3,13c1.5,1,2.6,2.7,2.6,4.6c0,1.7-1,3.3-4.2,2.2c-6.9-2.3-18.9-9.4-18.9-9.4
		s-6.3-2.5-10.9,0c-6.4,3.6-9.2,4.9-14.2,2.7c-4.9-2.2-8.4-5-8.4-5l-21.6-1.1c-2.7-0.1-4.7-2.5-4.5-5.1
		C122.1,431.5,125.3,421.1,139.9,414.1L139.9,414.1z"/>
	<path class="st14" d="M182,424.3c0,0.1,2.1-0.3,5.5-0.2c3.4,0.1,8.1,1,12.6,3.5s7.8,6,9.6,8.8c1.9,2.8,2.6,4.8,2.7,4.7
		c0,0-0.1-0.5-0.5-1.4s-1-2.1-1.9-3.6c-1.8-2.9-5.1-6.5-9.7-9.1c-4.6-2.5-9.4-3.4-12.8-3.4c-1.7,0-3.1,0.1-4,0.3
		C182.5,424.1,182,424.3,182,424.3L182,424.3z M185.7,417.6c0,0.1,2.2-0.7,5.7-0.4c3.5,0.2,8.4,1.8,12.7,5c4.3,3.3,7.4,7.2,9.6,10
		c1,1.4,1.9,2.5,2.6,3.4c0.6,0.8,1,1.2,1,1.2s-0.3-0.5-0.8-1.3c-0.6-0.8-1.4-2-2.4-3.5c-2.1-2.9-5.2-6.8-9.6-10.2
		c-4.4-3.3-9.4-4.9-13-5c-1.8-0.1-3.3,0.1-4.2,0.3c-0.5,0.1-0.9,0.2-1.1,0.3C185.9,417.5,185.7,417.6,185.7,417.6z"/>
	<path class="st8" d="M156.4,416c0,0-0.5-0.7-1.8-1.5c-1.2-0.9-3.3-1.8-6-2s-5.9,0.5-9.1,2.1c-3.2,1.6-6.5,3.8-9.5,6.7
		c-2.9,2.9-5.2,6.2-6.8,9.4c-0.8,1.6-1.4,3.2-1.6,4.8c-0.1,0.8-0.1,1.5,0,2.3c0.1,0.7,0.2,1.4,0.4,2.1c0.4,1.3,1.1,2.3,1.9,3
		s1.6,1.1,2.3,1.5c0.6,0.3,1.1,0.6,1.5,0.8c0.4,0.2,0.5,0.3,0.5,0.3s-0.2-0.1-0.6-0.2c-0.4-0.2-0.9-0.4-1.6-0.7
		c-0.7-0.3-1.5-0.8-2.4-1.5s-1.7-1.7-2.1-3.1c-0.2-0.7-0.4-1.4-0.5-2.1s-0.1-1.6,0-2.4c0.2-1.6,0.7-3.3,1.6-4.9
		c1.6-3.3,3.8-6.6,6.8-9.6c3-3,6.3-5.2,9.6-6.8c3.3-1.6,6.6-2.3,9.4-2c2.8,0.2,4.9,1.3,6.1,2.2c0.6,0.5,1,0.9,1.3,1.2
		C156.3,415.8,156.5,416,156.4,416L156.4,416z M104.9,392.9h-1.4c-0.9-0.1-2.2-0.1-3.9-0.1c-1.6,0-3.6,0.1-5.7,0.3
		c-2.1,0.2-4.5,0.6-6.9,1.2s-4.7,1.3-6.7,2c-2,0.8-3.8,1.5-5.3,2.3c-1.5,0.7-2.6,1.3-3.4,1.8s-1.2,0.7-1.3,0.7c0,0,0.4-0.3,1.2-0.8
		c0.8-0.5,1.9-1.2,3.4-2s3.2-1.6,5.3-2.4c2-0.8,4.3-1.5,6.8-2.1s4.8-0.9,7-1.2c2.2-0.2,4.1-0.3,5.8-0.2c1.6,0,3,0.1,3.9,0.2
		C104.4,392.8,104.9,392.9,104.9,392.9L104.9,392.9z M108.8,442.9c0,0-0.1-0.2-0.2-0.5s-0.3-0.8-0.4-1.5c-0.3-1.3-0.6-3.2-0.6-5.6
		s0.5-5.2,1.6-8.1s2.7-6,5-8.8c4.7-5.6,10.5-8.9,14.8-10.8c2.1-1,3.9-1.6,5.2-2c0.6-0.2,1.1-0.3,1.4-0.4c0.3-0.1,0.5-0.1,0.5-0.1
		s-0.2,0.1-0.5,0.2c-0.4,0.1-0.8,0.3-1.4,0.5c-1.2,0.5-3,1.2-5.1,2.2c-4.2,2-9.9,5.3-14.5,10.8c-2.3,2.7-3.9,5.7-5,8.6
		s-1.6,5.6-1.7,8C107.8,440,109,442.8,108.8,442.9L108.8,442.9z M357.1,409c0,0-0.2-0.3-0.3-0.8c0-0.1-0.1-0.3,0-0.5v-0.3
		c0-0.1,0.1-0.2,0.1-0.3c0.2-0.4,0.6-0.7,1.1-1c2-0.9,5.4-1,8.7-3.1c1.7-1,3.3-2.4,5-3.9s3.6-3.2,5.8-4.6c4.4-2.8,10-4.7,16-5.2
		s11.8,0.4,16.7,2c5,1.6,9.1,3.8,12.4,6c3.3,2.1,5.8,4.1,7.4,5.6c0.8,0.7,1.5,1.3,1.9,1.7l0.6,0.6c0,0-0.2-0.2-0.7-0.5
		c-0.4-0.4-1.1-0.9-1.9-1.6c-1.7-1.4-4.2-3.3-7.5-5.4s-7.5-4.2-12.4-5.8c-4.9-1.6-10.6-2.5-16.5-2s-11.4,2.4-15.8,5.1
		c-2.2,1.4-4,3-5.8,4.5c-1.7,1.5-3.4,2.9-5.1,3.9c-3.4,2.1-6.8,2.1-8.8,3c-0.5,0.2-0.9,0.5-1.1,0.9c0,0.1-0.1,0.2-0.1,0.3v0.8
		C357,408.7,357.1,409,357.1,409L357.1,409z"/>
	<path class="st12" d="M371.9,407.6c6.1,2.7,11.2,8.4,14,14.5c0.9,1.9,1.5,5,1.4,7.1c-0.1,1.8-0.6,3.1-2.1,4.1
		c-1.8,1.1-4.9,2.3-7,2.2c-3.4-0.2-5.9-1.7-9.3-1.9c-4.4-0.3-12.2-1.5-12.2-1.8c-0.2-2.2-3.1-7.9-3.5-12.1c0-0.2,0-0.4-0.1-0.7
		c-0.8-7.6,5.7-14.1,13.3-13C368.3,406.4,370.1,406.8,371.9,407.6L371.9,407.6z"/>
	<path class="st13" d="M371.9,407.6l-14.8,1.4c0,0-25.9-7.3-31-6.1c-4.6,1.1-20.9,13.7-24.1,16.2c-0.4,0.3-0.6,0.7-0.7,1.1
		c-0.6,1.9,0.5,3.9,2.4,4.5l0.4,0.1l-0.1,0.5c-0.1,0.6-0.2,1.4-0.1,2.1c0.3,2.4,3.6,2.9,4.7,0.7l-0.6,1.2c-0.2,0.5-0.3,1-0.2,1.6
		l0.1,1c0.1,1.2,1,2.1,2.1,2.4s2.2-0.1,2.9-1c2-2.5,6.3-7.6,9.5-8.4c2.8-0.7,7.5-1.1,10.3-1.3c1.4-0.1,2.8,0.7,3.4,2
		c-1.9,0.3-14.5,8-18.9,10.8c-1.4,0.9-2.4,2.3-2.4,3.9c-0.1,1.5,0.8,2.9,3.6,2.1c6.1-1.9,16.8-7.8,16.8-7.8s5.6-2,9.5,0.3
		c5.5,3.3,8,4.5,12.3,2.7c4.4-1.8,7.5-4.2,7.5-4.2l18.9-0.4c2.4-0.1,4.2-2,4.1-4.4C387,423.4,384.5,414.2,371.9,407.6L371.9,407.6z"
		/>
	<path class="st14" d="M334.8,415.5c0,0.1-1.8-0.3-4.8-0.3c-2.9,0-7.1,0.6-11.1,2.7s-6.9,5.1-8.7,7.4c-1.7,2.4-2.4,4.1-2.5,4.1
		c0,0,0.1-0.4,0.5-1.2c0.3-0.8,0.9-1.8,1.8-3.1c1.7-2.5,4.6-5.6,8.7-7.7s8.3-2.7,11.3-2.6c1.5,0,2.7,0.2,3.5,0.3
		C334.4,415.4,334.8,415.5,334.8,415.5L334.8,415.5z M331.7,409.6c0,0.1-1.9-0.6-5-0.5s-7.4,1.3-11.2,4.1c-3.9,2.8-6.7,6.1-8.7,8.5
		c-0.9,1.2-1.7,2.1-2.3,2.9c-0.6,0.7-0.9,1-0.9,1s0.2-0.4,0.8-1.1s1.3-1.7,2.2-3c1.9-2.4,4.7-5.9,8.7-8.7c4-2.8,8.3-4,11.5-4
		c1.6,0,2.9,0.2,3.7,0.4c0.4,0.1,0.7,0.2,1,0.3C331.6,409.5,331.7,409.6,331.7,409.6L331.7,409.6z"/>
	<path class="st8" d="M357.4,408.9c0,0,0.1-0.2,0.3-0.4c0.2-0.3,0.6-0.6,1.1-1c1.1-0.8,2.9-1.7,5.3-1.8c2.4-0.2,5.3,0.5,8.1,2
		c2.8,1.4,5.7,3.5,8.2,6.1s4.4,5.6,5.7,8.5c0.7,1.4,1.2,2.9,1.3,4.3c0.2,1.4-0.1,2.8-0.7,3.9s-1.4,1.9-2.1,2.5s-1.4,1.1-1.9,1.5
		c-0.6,0.4-1,0.6-1.3,0.8c-0.3,0.2-0.5,0.3-0.5,0.2c0,0,0.6-0.4,1.7-1.2c0.5-0.4,1.2-0.9,1.9-1.5s1.4-1.4,1.9-2.4s0.8-2.3,0.6-3.6
		c-0.2-1.4-0.7-2.7-1.4-4.1c-1.3-2.8-3.2-5.7-5.7-8.3c-2.5-2.6-5.3-4.6-8.1-6c-2.8-1.4-5.5-2.1-7.9-2c-2.3,0.1-4.1,0.9-5.2,1.6
		C357.8,408.4,357.4,409,357.4,408.9z M403,390.1c0,0,0.4-0.1,1.2-0.2c0.8-0.1,2-0.1,3.4-0.1c2.9,0,6.9,0.4,11.1,1.5
		c4.3,1.1,7.9,2.8,10.4,4.3c1.3,0.7,2.2,1.3,2.9,1.8c0.7,0.5,1,0.7,1,0.8c-0.1,0.1-1.5-0.9-4.1-2.3c-2.5-1.3-6.2-2.9-10.4-4.1
		c-4.2-1.1-8.2-1.6-11-1.7C404.8,390,403,390.2,403,390.1L403,390.1z M398.3,433.6c-0.1,0,0.9-2.4,0.9-6.5c0-4-1.5-9.8-5.4-14.7
		c-3.9-4.9-8.8-8-12.4-9.8c-1.8-0.9-3.3-1.6-4.4-2s-1.6-0.7-1.6-0.7s0.2,0,0.5,0.1s0.7,0.2,1.3,0.4c1.1,0.4,2.6,1,4.5,1.9
		c3.7,1.8,8.7,4.8,12.6,9.8c1.9,2.5,3.3,5.2,4.2,7.8c0.8,2.6,1.2,5.1,1.2,7.2s-0.3,3.7-0.6,4.8c-0.1,0.6-0.3,1-0.4,1.3L398.3,433.6
		L398.3,433.6z"/>
	<path class="st15" d="M169,338.9c0,0-0.1-0.5-0.2-1.4c-0.1-1-0.3-2.3-0.5-3.9c-0.4-3.3-1-7.7-1.9-12.6s-1.9-9.3-2.7-12.5
		c-0.4-1.5-0.7-2.8-0.9-3.8c-0.2-0.9-0.3-1.4-0.3-1.4s0.2,0.5,0.5,1.3c0.3,0.9,0.7,2.1,1.1,3.7c0.9,3.2,1.9,7.6,2.8,12.5
		c0.9,4.9,1.5,9.4,1.8,12.7c0.2,1.6,0.3,3,0.3,3.9L169,338.9L169,338.9z M410.9,395.2c0,0-0.6-0.2-1.6-0.7c-1-0.4-2.6-1-4.5-1.6
		c-3.8-1.1-9.5-1.9-15.5-0.9c-6.1,1-11.1,3.5-14.4,5.8c-1.7,1.1-2.9,2.2-3.8,2.9c-0.8,0.7-1.3,1.2-1.3,1.1c0,0,0.1-0.1,0.3-0.4
		l0.9-0.9c0.8-0.8,2-1.9,3.7-3.1c3.3-2.4,8.4-5,14.5-6s11.8-0.2,15.7,1c1.9,0.6,3.5,1.2,4.5,1.7c0.5,0.2,0.9,0.5,1.2,0.6
		C410.8,395.1,411,395.1,410.9,395.2L410.9,395.2z M373.7,394.1c0,0-0.1-0.1-0.3-0.4c-0.2-0.3-0.4-0.7-0.7-1.1
		c-0.7-1.1-1.5-2.5-2.6-4.2c-2.2-3.5-5.2-8.5-9.1-13.5c-1.9-2.5-3.8-4.9-5.4-7.2c-1.6-2.2-2.9-4.4-3.9-6.3c-0.9-1.9-1.5-3.5-1.8-4.6
		c-0.2-0.6-0.2-1-0.3-1.3c-0.1-0.3-0.1-0.5-0.1-0.5s0.2,0.6,0.6,1.7s1,2.7,1.9,4.5c1,1.8,2.3,3.9,3.9,6.2c1.6,2.2,3.5,4.6,5.5,7.1
		c3.9,5.1,6.9,10.1,9,13.7c1.1,1.8,1.9,3.3,2.5,4.3c0.3,0.5,0.5,0.9,0.6,1.2C373.7,394,373.7,394.1,373.7,394.1L373.7,394.1z
		 M165.7,383.5c0.1,0.1-1.1,1.1-3,2.7c-1.9,1.5-4.7,3.6-7.7,5.9s-5.8,4.3-7.8,5.8c-0.9,0.7-1.7,1.2-2.4,1.7l-0.9,0.6
		c0,0,0.3-0.3,0.8-0.7c0.5-0.4,1.3-1.1,2.3-1.8c2-1.5,4.7-3.6,7.7-5.9c3-2.2,5.7-4.2,7.8-5.8c0.9-0.7,1.7-1.3,2.4-1.7
		C165.4,383.7,165.7,383.5,165.7,383.5L165.7,383.5z M144.4,411l-1.5-1.8c-1-1.1-2.5-2.7-4.6-4.4c-4.1-3.4-10.8-7.2-18.9-8.6
		s-15.6-0.3-20.8,1.1c-2.6,0.7-4.7,1.4-6.1,2c-0.7,0.3-1.2,0.5-1.6,0.6s-0.6,0.2-0.6,0.2s0.2-0.1,0.5-0.3c0.4-0.2,0.9-0.4,1.6-0.7
		c1.4-0.6,3.4-1.4,6-2.2c5.2-1.5,12.8-2.7,21-1.3c8.2,1.4,14.9,5.3,19,8.9c2.1,1.8,3.5,3.4,4.5,4.6c0.5,0.6,0.8,1.1,1,1.4
		C144.3,410.8,144.5,411,144.4,411L144.4,411z M141,397.9c0,0-0.1-0.2-0.3-0.5c-0.2-0.4-0.5-0.8-0.8-1.4c-0.2-0.3-0.4-0.6-0.6-1
		c-0.2-0.4-0.5-0.7-0.8-1.1c-0.6-0.8-1.1-1.8-1.9-2.7l-1.2-1.5c-0.4-0.5-0.9-1-1.4-1.6c-0.9-1.1-2.1-2.2-3.2-3.4
		c-2.4-2.2-5.2-4.5-8.4-6.5s-6.5-3.5-9.5-4.7c-1.5-0.5-3-1.1-4.4-1.4c-0.7-0.2-1.4-0.4-2-0.5c-0.7-0.1-1.3-0.3-1.9-0.4
		c-1.2-0.3-2.3-0.4-3.3-0.5c-0.5-0.1-0.9-0.1-1.4-0.2c-0.4,0-0.8-0.1-1.1-0.1c-0.6-0.1-1.2-0.1-1.6-0.1s-0.6-0.1-0.6-0.1h3.4
		c0.4,0,0.9,0.1,1.4,0.1c1,0.1,2.1,0.2,3.3,0.5c0.6,0.1,1.3,0.2,1.9,0.4c0.7,0.1,1.3,0.3,2.1,0.5c1.4,0.3,2.9,0.9,4.5,1.4
		c3.1,1.2,6.4,2.7,9.6,4.7s6,4.3,8.4,6.6c1.2,1.2,2.3,2.3,3.2,3.4c0.5,0.6,1,1.1,1.4,1.6s0.8,1.1,1.2,1.6c0.8,1,1.3,2,1.9,2.8
		c0.3,0.4,0.5,0.8,0.7,1.2c0.2,0.4,0.4,0.7,0.5,1l0.7,1.4C141,397.7,141.1,397.9,141,397.9L141,397.9z M362.7,290.1
		c0,0-0.1,0.2-0.3,0.5c-0.2,0.4-0.5,0.8-0.8,1.4c-0.4,0.6-0.8,1.4-1.3,2.3s-1.1,1.9-1.6,3c-1.2,2.3-2.5,5-3.8,8.1s-2.5,6.6-3.6,10.3
		c-1.1,3.7-1.9,7.4-2.5,10.7c-0.6,3.3-1,6.3-1.2,8.9c-0.1,1.3-0.2,2.4-0.3,3.4c-0.1,1-0.1,1.9-0.1,2.6s-0.1,1.2-0.1,1.6
		s0,0.6-0.1,0.6v-4.8c0-1,0.1-2.2,0.2-3.4c0.2-2.6,0.5-5.6,1.1-8.9s1.4-7,2.5-10.7s2.4-7.2,3.7-10.4c1.3-3.1,2.7-5.9,3.9-8.1
		c0.6-1.1,1.2-2.1,1.7-3s1-1.6,1.4-2.2s0.7-1,0.9-1.4C362.6,290.2,362.7,290,362.7,290.1L362.7,290.1z"/>
	<path class="st5" d="M178.9,251.4c0,0-8.2-12.8,0-22.8s58.8-20,62.4-20.7c3.6-0.7,22.1-3.2,24.2-2.5s29.9,14.3,40.3,21
		c10.3,6.8,26.5,17.5,16.3,30.7c-10.5,13.5-43.8,49.8-43.8,49.8L255.2,333c0,0-23.5-29.9-28.9-34.6
		C221,293.8,178.9,251.4,178.9,251.4z"/>
	<path class="st16" d="M178.9,251.4c0,0-8.2-12.8,0-22.8s58.8-20,62.4-20.7c3.6-0.7,22.1-3.2,24.2-2.5s29.9,14.3,40.3,21
		c10.3,6.8,25.6,18.6,17.2,29.7c-10.3,13.7-43,48.9-43,48.9l-24.8,28c0,0-23.5-29.9-28.9-34.6C221,293.8,178.9,251.4,178.9,251.4z"
		/>
	<path class="st5" d="M197.1,218.1c0,0-0.9,17.7,0.3,23.9s22.4,41.4,34.5,49.8c12,8.4,13.1,11.7,23.4,9
		c10.3-2.7,15.4-11.5,20.8-17.9c5.4-6.3,17.7-17.4,20.9-27.3c3.2-9.9,6.2-30.9,6.2-30.9l-40.6-20.5
		C242.5,205,220.1,210.8,197.1,218.1L197.1,218.1z"/>
	<path class="st17" d="M197.1,218.1c0,0-0.9,17.7,0.3,23.9s22.4,41.4,34.5,49.8c12,8.4,13.1,11.7,23.4,9
		c10.3-2.7,15.4-11.5,20.8-17.9c5.4-6.3,17.7-17.4,20.9-27.3c3.2-9.9,6.2-30.9,6.2-30.9l-40.6-20.5
		C242.5,205,220.1,210.8,197.1,218.1L197.1,218.1z"/>
	<path class="st13" d="M249.6,147.1c-24.4,0.4-44.2,19.4-44.6,43c-0.4,21.1-0.5,44.4,0.3,55.6c1.8,23.3,26.2,25.5,26.2,25.5
		l0.2,14.3c0,2.4-0.2,6-0.2,6c11.2,7.9,13.6,11.9,23.7,9.2c10.3-2.7,15.4-11.5,20.8-17.9c4.4-5.2,13.4-13.5,18.3-21.7l0.3-69.8
		C295.1,167,274.8,147,249.6,147.1L249.6,147.1z"/>
	<path class="st14" d="M204.7,222c0,0,23.6-7.7,38.3-8.1c9-0.2,51.5,12.1,51.5,12.1v-4c0,0-31.9-16.6-53.2-14.1s-36.6,8.9-36.6,8.9
		L204.7,222L204.7,222z M231.6,271.3c0,0,15.3,0.3,30.9-10.6c0,0-6.6,17.5-30.8,16.9L231.6,271.3L231.6,271.3z"/>
	<path class="st8" d="M212.6,203.6c0.4,0.4,3-1.5,6.7-1.6s6.5,1.7,6.9,1.2c0.2-0.2-0.3-1-1.5-1.8s-3.2-1.6-5.5-1.5s-4.2,0.9-5.3,1.8
		C212.8,202.6,212.4,203.4,212.6,203.6L212.6,203.6z M249.4,202.3c0.4,0.4,3-1.6,6.7-1.7c3.7-0.2,6.5,1.5,6.9,1.1
		c0.2-0.2-0.3-1-1.5-1.8s-3.2-1.5-5.5-1.4c-2.3,0.1-4.2,1-5.3,1.9S249.2,202.1,249.4,202.3z M235.8,227.4c0-0.2-2.3-0.4-6.1-0.7
		c-1,0-1.9-0.2-2.1-0.8c-0.3-0.6,0.1-1.7,0.5-2.8c0.7-2.3,1.5-4.7,2.4-7.2c3.2-10.2,5.5-18.5,5.1-18.6s-3.4,8-6.6,18.2
		c-0.8,2.5-1.5,4.9-2.2,7.2c-0.3,1.1-0.8,2.3-0.3,3.6c0.3,0.7,1,1.1,1.6,1.2c0.6,0.1,1.2,0.1,1.6,0.1
		C233.5,227.8,235.8,227.6,235.8,227.4z M246.9,194.1c0.6,0.9,4.1-0.4,8.5-0.9c4.4-0.6,8.1-0.2,8.4-1.2c0.1-0.5-0.7-1.2-2.3-1.8
		c-1.6-0.6-4-1-6.6-0.6c-2.6,0.3-4.8,1.3-6.2,2.2C247.2,192.7,246.6,193.6,246.9,194.1z M211.2,194.5c0.5,1,3.4,0.8,6.6,1.5
		c3.3,0.6,5.8,1.9,6.7,1.2c0.4-0.3,0.1-1.2-0.9-2.3c-1-1-2.8-2.1-5.1-2.6c-2.2-0.5-4.3-0.2-5.7,0.4C211.6,193.3,211,194,211.2,194.5
		L211.2,194.5z M250.2,234.9c-0.2,0.2-1-0.3-2.5-0.6c-1.4-0.4-3.5-0.6-5.7,0.1c-2.1,0.6-3.7,2-4.7,3c-1,1.1-1.4,1.9-1.7,1.9
		c-0.2-0.1-0.2-1.1,0.7-2.5c0.8-1.4,2.6-3.2,5.2-3.9c2.6-0.8,5.1-0.3,6.6,0.4C249.7,233.9,250.4,234.8,250.2,234.9L250.2,234.9z"/>
	<path class="st8" d="M216.1,206.7c0,1.7,1.6,3.1,3.5,3.1s3.4-1.4,3.3-3.2c0-1.7-1.6-3.1-3.5-3.1S216,205,216.1,206.7z M252.9,205.1
		c0,1.7,1.6,3.1,3.5,3.1s3.4-1.4,3.3-3.2c0-1.7-1.6-3.1-3.5-3.1S252.8,203.4,252.9,205.1L252.9,205.1z"/>
	<path class="st14" d="M231.6,271.3c0,0,15.3,0.3,30.9-10.6c0,0-6.6,17.5-30.8,16.9L231.6,271.3L231.6,271.3z"/>
	<path class="st8" d="M212.6,203.6c0.4,0.4,3-1.5,6.7-1.6s6.5,1.7,6.9,1.2c0.2-0.2-0.3-1-1.5-1.8s-3.2-1.6-5.5-1.5s-4.2,0.9-5.3,1.8
		C212.8,202.6,212.4,203.4,212.6,203.6L212.6,203.6z M249.4,202.3c0.4,0.4,3-1.6,6.7-1.7c3.7-0.2,6.5,1.5,6.9,1.1
		c0.2-0.2-0.3-1-1.5-1.8s-3.2-1.5-5.5-1.4c-2.3,0.1-4.2,1-5.3,1.9S249.2,202.1,249.4,202.3z M235.8,227.4c0-0.2-2.3-0.4-6.1-0.7
		c-1,0-1.9-0.2-2.1-0.8c-0.3-0.6,0.1-1.7,0.5-2.8c0.7-2.3,1.5-4.7,2.4-7.2c3.2-10.2,5.5-18.5,5.1-18.6s-3.4,8-6.6,18.2
		c-0.8,2.5-1.5,4.9-2.2,7.2c-0.3,1.1-0.8,2.3-0.3,3.6c0.3,0.7,1,1.1,1.6,1.2c0.6,0.1,1.2,0.1,1.6,0.1
		C233.5,227.8,235.8,227.6,235.8,227.4z M246.9,194.1c0.6,0.9,4.1-0.4,8.5-0.9c4.4-0.6,8.1-0.2,8.4-1.2c0.1-0.5-0.7-1.2-2.3-1.8
		c-1.6-0.6-4-1-6.6-0.6c-2.6,0.3-4.8,1.3-6.2,2.2C247.2,192.7,246.6,193.6,246.9,194.1z M211.2,194.5c0.5,1,3.4,0.8,6.6,1.5
		c3.3,0.6,5.8,1.9,6.7,1.2c0.4-0.3,0.1-1.2-0.9-2.3c-1-1-2.8-2.1-5.1-2.6c-2.2-0.5-4.3-0.2-5.7,0.4C211.6,193.3,211,194,211.2,194.5
		L211.2,194.5z M250.2,234.9c-0.2,0.2-1-0.3-2.5-0.6c-1.4-0.4-3.5-0.6-5.7,0.1c-2.1,0.6-3.7,2-4.7,3c-1,1.1-1.4,1.9-1.7,1.9
		c-0.2-0.1-0.2-1.1,0.7-2.5c0.8-1.4,2.6-3.2,5.2-3.9c2.6-0.8,5.1-0.3,6.6,0.4C249.7,233.9,250.4,234.8,250.2,234.9L250.2,234.9z"/>
	<path class="st8" d="M216.1,206.7c0,1.7,1.6,3.1,3.5,3.1s3.4-1.4,3.3-3.2c0-1.7-1.6-3.1-3.5-3.1S216,205,216.1,206.7z M252.9,205.1
		c0,1.7,1.6,3.1,3.5,3.1s3.4-1.4,3.3-3.2c0-1.7-1.6-3.1-3.5-3.1S252.8,203.4,252.9,205.1L252.9,205.1z"/>
	<path class="st11" d="M323.9,237.9c-3.4-5-6.6-13.5-6.6-13.5l-4.3-29.5c0,0-20.9-35.5-23.4-40.1S275,137.3,275,137.3
		s-7.7-7.7-16.4-11.2c-3.6-1.4-7.7-1.1-11,0.9c-8.6,5.1-27.4,16.8-31.7,22.8C210.2,157.6,197,183,197,183s-3.7,11.9-7.2,16.2
		c-3.6,4.3-15.1,27.1-15.1,34.2c0,1.4,0.7,4.2,0.8,5.6c0.3-2.7,0.7-6.9,2.9-9.5c8.2-10,58.8-20,62.4-20.7s19.5,1.7,21.7,2.4
		c2.1,0.7,32.1,9.4,42.8,15.6c8,4.6,17.4,11,20,19.4l-0.4-1.1C324.6,245,327.3,242.9,323.9,237.9L323.9,237.9z"/>
	<path class="st8" d="M322.2,257.1c0,0,0.1-0.1,0.3-0.4c0.2-0.3,0.5-0.7,0.8-1.2c0.6-1.1,1.6-2.7,1.9-5.1c0.2-1.2,0.1-2.5-0.2-3.9
		c-0.4-1.4-1.1-2.8-2-4.2s-1.9-3-3.1-4.4c-0.6-0.7-1.4-1.4-2.1-2c-0.7-0.7-1.5-1.4-2.4-2c-6.6-5.4-15.7-10.2-26.3-13.9
		c-5.3-1.9-11-3.6-16.9-5.3s-12-3.5-18.4-4.6c-3.2-0.5-6.4-0.8-9.6-0.8c-3.2,0-6.3,0.3-9.3,0.8c-6,1-11.8,2.6-17.2,4
		c-10.9,2.8-20.7,5.6-28.6,8.8c-3.9,1.6-7.3,3.6-9.6,6.1c-2,2-3.4,4.7-3.9,7.5c-0.5,2.3-0.1,4.2,0.2,5.4c0.4,1.2,0.8,1.7,0.7,1.8
		c0,0-0.1-0.1-0.2-0.4c-0.2-0.3-0.4-0.7-0.6-1.3c-0.4-1.2-0.8-3.1-0.3-5.5c0.4-2.3,1.6-5.2,3.9-7.7s5.7-4.6,9.7-6.2
		c7.9-3.3,17.7-6.1,28.6-8.9c5.5-1.4,11.2-3,17.3-4c3-0.5,6.2-0.8,9.4-0.8s6.4,0.3,9.6,0.8c6.4,1.1,12.6,2.9,18.5,4.6
		c5.9,1.7,11.6,3.4,16.9,5.4c10.6,3.8,19.8,8.6,26.4,14.1l2.4,2.1c0.8,0.7,1.5,1.3,2.1,2.1c1.3,1.5,2.3,3,3.1,4.4
		c0.9,1.5,1.7,2.9,2,4.3c0.4,1.4,0.4,2.8,0.2,4c-0.4,2.4-1.4,4-2,5.1L322.2,257.1L322.2,257.1z M250.3,164.8c0,0-0.2,0.1-0.5,0.2
		c-0.4,0.1-0.9,0.2-1.6,0.3c-0.7,0.1-1.5,0.3-2.5,0.6c-1,0.2-2.1,0.5-3.2,0.8c-2.4,0.6-5.2,1.5-8.3,2.7s-6.4,2.6-9.8,4.3
		c-3.4,1.7-6.5,3.5-9.2,5.3s-5.1,3.5-7.1,5.1c-1,0.7-1.8,1.5-2.6,2.1s-1.4,1.2-1.9,1.6c-0.5,0.4-0.9,0.8-1.2,1.1
		c-0.3,0.2-0.4,0.4-0.4,0.3c0,0,0.1-0.2,0.4-0.4l1.1-1.1c0.5-0.5,1.1-1.1,1.9-1.7c0.7-0.6,1.6-1.4,2.6-2.2c1.9-1.6,4.3-3.4,7-5.2
		c2.8-1.8,5.9-3.7,9.3-5.4c3.4-1.7,6.8-3.1,9.9-4.2c3.1-1.1,6-2,8.4-2.6c1.2-0.3,2.3-0.5,3.3-0.8c1-0.2,1.8-0.4,2.5-0.5
		c0.6-0.1,1.2-0.2,1.6-0.3L250.3,164.8L250.3,164.8z M269.6,153.3c0,0-0.4,0.2-1,0.4c-0.7,0.2-1.7,0.5-2.9,0.8
		c-2.5,0.6-5.9,1.4-9.7,2.2c-3.8,0.8-7.3,1.3-9.8,1.7c-1.3,0.2-2.3,0.3-3,0.4c-0.7,0.1-1.1,0.1-1.1,0.1s0.4-0.1,1.1-0.3
		c0.8-0.1,1.8-0.3,3-0.5c2.5-0.5,5.9-1.1,9.7-1.8c3.8-0.8,7.2-1.5,9.7-2c1.2-0.2,2.1-0.5,2.9-0.6
		C269.2,153.4,269.6,153.3,269.6,153.3L269.6,153.3z"/>
	<path class="st8" d="M303.8,234.4v0.9c0,0.6,0,1.5-0.1,2.6c-0.1,2.2-0.6,5.5-1.9,9.3s-3.3,8.2-6.3,12.6c-2.9,4.4-6.6,9-10.5,13.6
		c-7.9,9.3-15.1,17.6-20.3,23.8c-2.6,3-4.7,5.4-6.2,7.2c-0.7,0.8-1.3,1.5-1.7,1.9c-0.2,0.2-0.3,0.4-0.5,0.5l-0.2,0.2
		c0,0,0-0.1,0.1-0.2s0.2-0.3,0.4-0.5c0.4-0.5,0.9-1.2,1.6-2c1.5-1.8,3.5-4.2,6.1-7.3c5.2-6.1,12.3-14.6,20.2-23.9
		c4-4.6,7.6-9.1,10.5-13.5s5-8.7,6.3-12.4c1.3-3.8,1.8-7,2-9.2c0.1-1.1,0.1-2,0.2-2.6v-0.7C303.8,234.5,303.8,234.4,303.8,234.4
		L303.8,234.4z"/>
	<path class="st8" d="M259.1,303.2h-0.9c-0.6,0-1.5,0-2.7-0.1c-2.3-0.2-5.7-0.8-9.6-2.2c-3.9-1.5-8.3-3.8-12.7-7.2
		c-4.4-3.4-8.6-7.8-12.5-12.8s-7.3-10-10.3-14.6s-5.6-8.8-7.6-12.5c-2-3.7-3.4-6.7-4.2-8.9c-0.4-1.1-0.7-1.9-0.9-2.5
		c-0.1-0.3-0.2-0.5-0.2-0.7s-0.1-0.2-0.1-0.2s0,0.1,0.1,0.2l0.3,0.6c0.2,0.6,0.6,1.4,1,2.5c0.9,2.1,2.3,5.2,4.3,8.8
		s4.6,7.8,7.7,12.4c3,4.6,6.4,9.6,10.3,14.6c3.9,5,8.1,9.4,12.4,12.7c4.3,3.4,8.7,5.8,12.5,7.2c3.9,1.5,7.2,2.1,9.5,2.3
		c1.2,0.1,2.1,0.2,2.7,0.2h0.7C259.1,303.1,259.1,303.2,259.1,303.2L259.1,303.2z M248.7,323.1l-0.2-0.2l-0.5-0.5
		c-0.4-0.5-1.1-1.2-1.8-2.1c-1.6-1.8-3.9-4.4-6.8-7.6c-5.7-6.4-13.8-15.1-22.9-24.4c-9.2-9.3-17.7-17.5-24-23.4
		c-3.1-2.9-5.7-5.2-7.4-6.9c-0.9-0.8-1.5-1.4-2-1.9l-0.5-0.5l-0.2-0.2c0,0,0.1,0,0.2,0.1s0.3,0.3,0.6,0.5c0.5,0.4,1.2,1,2.1,1.8
		c1.8,1.6,4.4,3.9,7.6,6.8c6.3,5.8,14.9,14,24.1,23.3c9.2,9.4,17.2,18.1,22.8,24.5c2.8,3.2,5.1,5.9,6.6,7.7c0.7,0.9,1.3,1.6,1.8,2.1
		c0.2,0.2,0.3,0.4,0.4,0.6C248.7,323,248.7,323.1,248.7,323.1L248.7,323.1z M323.1,256.1c0.1,0.1-12.6,14.7-28.4,32.6
		C279,306.6,266.1,321,266,320.9s12.6-14.7,28.4-32.6C310.1,270.4,323,256,323.1,256.1z"/>
	<path class="st12" d="M200.7,189.2c7-7.7,15.2-14.2,23.4-20.6c2.7-2.1,5.4-4.3,8.5-5.7c5.2-2.5,11.1-3,16.8-3.4
		c4.7-0.3,9.4-0.6,14.1-0.8c1.3-0.1,2.7-0.1,3.8,0.5c1.1,0.6,1.9,2.1,1.2,3.3c-0.6,1.1-2.1,1.2-3.4,1.2
		c-22.6,0.4-45.1,8.7-62.5,23.2"/>
	<path class="st15" d="M253.9,332c-0.1,0.1-8.6-9.6-19-21.5c-10.4-12-18.7-21.8-18.6-21.9c0.1-0.1,8.6,9.5,19,21.5
		S254,331.9,253.9,332z M281,306.5c0.1,0.1-0.9,1-2.5,2.5s-3.7,3.7-6,6.1s-4.4,4.6-5.8,6.3c-1.5,1.6-2.4,2.6-2.4,2.6
		s0.2-0.3,0.5-0.8c0.4-0.5,0.9-1.2,1.6-2c1.4-1.7,3.4-4,5.7-6.4c2.3-2.4,4.5-4.5,6.2-6c0.8-0.7,1.5-1.3,2-1.7
		C280.7,306.7,281,306.5,281,306.5L281,306.5z M273.9,292.6c0.1,0.1-0.7,0.9-1.9,2.2c-1.3,1.4-2.9,3.1-4.7,5
		c-1.7,1.9-3.3,3.6-4.6,5.1c-1.2,1.3-1.9,2.1-2,2c-0.1,0,0.6-0.9,1.7-2.3s2.7-3.2,4.5-5.2s3.5-3.7,4.8-4.9
		C273.1,293.2,273.9,292.5,273.9,292.6L273.9,292.6z M262,257.6c0,0-0.1,0.1-0.3,0.4l-1,1c-0.2,0.2-0.5,0.4-0.7,0.7
		c-0.3,0.2-0.6,0.5-0.9,0.8c-0.7,0.5-1.4,1.2-2.3,1.8c-0.4,0.3-0.9,0.6-1.4,1c-0.5,0.3-1,0.6-1.6,0.9c-1.1,0.7-2.3,1.2-3.6,1.8
		c-2.6,1.1-5.6,2.1-8.9,2.7c-3.3,0.6-6.4,0.7-9.3,0.6c-1.4-0.1-2.8-0.2-4-0.4l-1.8-0.3c-0.6-0.1-1.1-0.3-1.6-0.4
		c-1.1-0.2-2-0.6-2.8-0.8c-0.4-0.1-0.8-0.3-1.1-0.4s-0.6-0.3-0.9-0.4c-0.5-0.2-0.9-0.4-1.3-0.6c-0.3-0.1-0.4-0.2-0.4-0.2
		s0.2,0,0.5,0.1c0.4,0.1,0.8,0.3,1.3,0.5c0.3,0.1,0.6,0.2,0.9,0.4c0.3,0.1,0.7,0.2,1.1,0.4c0.8,0.2,1.7,0.6,2.8,0.8
		c0.5,0.1,1.1,0.2,1.6,0.4l1.8,0.3c1.2,0.2,2.6,0.3,4,0.4c2.8,0.1,5.9-0.1,9.2-0.6c3.2-0.6,6.2-1.5,8.8-2.6c1.3-0.6,2.5-1.1,3.6-1.8
		c0.5-0.3,1.1-0.6,1.6-0.9s1-0.6,1.4-0.9c0.9-0.6,1.7-1.2,2.3-1.7c0.3-0.3,0.7-0.5,0.9-0.7c0.3-0.2,0.5-0.5,0.7-0.7
		c0.4-0.4,0.8-0.7,1-0.9C261.8,257.6,262,257.5,262,257.6L262,257.6z M288.4,217.8h-0.2c-0.2-0.1-0.4-0.1-0.7-0.2
		c-0.6-0.2-1.5-0.4-2.7-0.8c-2.3-0.7-5.7-1.9-9.8-3.4c-4.1-1.5-9-3.2-14.6-4.5c-2.8-0.7-5.8-1.2-8.9-1.5c-3.1-0.3-6.4-0.4-9.7-0.2
		c-3.3,0.1-6.5,0.6-9.5,1.4c-3,0.8-6,1.6-8.8,2.3c-5.6,1.5-10.6,2.9-14.8,4.1c-4.2,1.2-7.5,2.2-9.9,2.9c-1.1,0.3-2,0.6-2.7,0.8
		c-0.3,0.1-0.5,0.1-0.7,0.2c-0.2,0-0.2,0.1-0.2,0c0,0,0.1,0,0.2-0.1c0.2-0.1,0.4-0.1,0.7-0.2c0.7-0.2,1.5-0.5,2.7-0.9
		c2.3-0.7,5.7-1.8,9.9-3c4.2-1.3,9.2-2.7,14.8-4.2c2.8-0.7,5.7-1.5,8.8-2.3c3-0.9,6.3-1.4,9.7-1.5c3.3-0.1,6.6,0,9.8,0.3
		c3.1,0.3,6.1,0.9,9,1.6c5.6,1.4,10.5,3.2,14.6,4.7s7.4,2.8,9.7,3.5l2.7,0.9c0.3,0.1,0.5,0.2,0.7,0.2
		C288.3,217.7,288.4,217.7,288.4,217.8L288.4,217.8z"/>
</g>
<g id="Device">
	<path class="st18" d="M166.6,357l10,100H342l5.1-101.7c0.2-4.7-3.7-8.6-8.6-8.5L175,348.1C170,348.2,166.1,352.3,166.6,357z"/>
	<ellipse class="st19" cx="260.4" cy="398.2" rx="9.1" ry="8.7"/>
	<path class="st20" d="M223.5,390c-0.8-3.6-3.5-7.4-3.5-7.4c-3.7-4.6-8.2-7.2-14.4-6.3c-1.8,0.2-3.5,0.8-5.1,1.5
		c-0.1,0-0.1,0.1-0.2,0.1l-1.2,0.6c-1.5,0.9-2.9,2-4.1,3.2c-4.1,4.5-4.3,9.5-2.3,15c0,0,1.9,4.2,4.6,6.8c0.8,0.8,1.9,1.4,1.9,1.7
		c0,0.4-0.6,1.1,1,3.6c1.3,1.9,5.1,0.7,6.8,0c0.5-0.2,1,0,1.2,0.4l2.2,3.8c0.3,0.5,0.9,0.6,1.4,0.4l0.5-0.2c0.5-0.2,0.7-0.8,0.4-1.3
		l-0.5-0.9c-0.2-0.5-0.1-1,0.4-1.3s1.1-0.1,1.4,0.4l0.7,1.2c0.3,0.5,0.9,0.6,1.4,0.4l0.5-0.2c0.5-0.3,0.7-0.8,0.4-1.3l-0.7-1.1
		c-0.3-0.5-0.1-1,0.4-1.3l0.1-0.1c0.5-0.2,1.1-0.1,1.3,0.4l0.6,1.1c0.3,0.5,0.9,0.6,1.3,0.4l0.5-0.2c0.5-0.2,0.7-0.8,0.4-1.3
		l-0.7-1.2c-0.3-0.5-0.1-1,0.4-1.3c0.5-0.2,1.1-0.1,1.3,0.4l0.5,0.9c0.3,0.4,0.9,0.6,1.3,0.4l0.5-0.2c0.5-0.2,0.7-0.8,0.4-1.3
		l-2.1-3.8c-0.2-0.4-0.1-1,0.3-1.2c1.5-1,4.7-3.4,3.7-5.4c-1.3-2.7-2.3-2.6-2.6-2.8C223.7,392.3,223.8,391,223.5,390L223.5,390z"/>
	<path class="st8" d="M223.5,390c0,0,0.1,0.2,0.2,0.6c0,0.2,0.1,0.5,0.1,0.8c0.1,0.3,0.1,0.7,0.2,1c0.3,0.1,0.8,0.3,1.2,0.7
		c0.4,0.3,0.7,0.8,1,1.3c0.2,0.3,0.3,0.5,0.4,0.8c0.1,0.3,0.2,0.7,0.2,1c0,0.7-0.4,1.4-0.9,2s-1.1,1.2-1.7,1.7
		c-0.3,0.3-0.7,0.5-1,0.8c-0.4,0.2-0.6,0.5-0.5,0.9c0,0.2,0.2,0.4,0.3,0.6s0.2,0.4,0.4,0.6c0.2,0.4,0.5,0.8,0.7,1.3
		c0.2,0.4,0.5,0.9,0.7,1.3c0.1,0.2,0.3,0.5,0.3,0.8s-0.2,0.6-0.4,0.8c-0.3,0.2-0.5,0.3-0.7,0.4c-0.3,0.1-0.6,0.2-0.9,0
		c-0.3-0.1-0.6-0.4-0.7-0.6c-0.1-0.2-0.3-0.5-0.4-0.7c-0.2-0.4-0.8-0.5-1.2-0.2c-0.2,0.1-0.3,0.4-0.3,0.6c0,0.1,0,0.2,0.1,0.3
		l0.2,0.4l0.4,0.8c0.2,0.3,0.3,0.7,0.1,1c-0.1,0.4-0.5,0.6-0.8,0.7c-0.2,0.1-0.6,0.3-1,0.3s-0.7-0.3-0.9-0.6l-0.5-0.8
		c-0.2-0.3-0.3-0.5-0.5-0.6s-0.5-0.1-0.7,0l0.1-0.3l0.1,0.2l-0.2,0.1c-0.5,0.2-0.7,0.7-0.4,1.1l0.4,0.8l0.2,0.4
		c0.1,0.2,0.1,0.3,0.1,0.5c0,0.4-0.2,0.7-0.5,0.9c-0.3,0.2-0.5,0.3-0.9,0.4s-0.8,0-1.1-0.2c-0.2-0.1-0.3-0.3-0.4-0.4l-0.2-0.4
		l-0.5-0.8c-0.1-0.2-0.3-0.3-0.6-0.4c-0.5-0.1-1,0.4-0.8,0.9c0.1,0.2,0.3,0.5,0.4,0.8c0.1,0.2,0.4,0.7,0.2,1.1
		c-0.1,0.4-0.5,0.7-0.8,0.8c-0.2,0.1-0.3,0.1-0.5,0.2s-0.4,0.1-0.6,0.1c-0.4,0-0.8-0.3-1-0.6l-0.5-0.8c-0.3-0.6-0.7-1.1-1-1.7
		l-0.5-0.9c-0.2-0.3-0.3-0.5-0.5-0.6s-0.5-0.1-0.8,0s-0.6,0.2-1,0.3c-1.3,0.4-2.7,0.8-4.1,0.6c-0.7-0.1-1.5-0.5-1.9-1.2
		c-0.4-0.6-0.7-1.2-1-1.9c-0.1-0.4-0.2-0.8-0.1-1.3c0-0.1,0-0.2,0.1-0.3v-0.1l-0.3-0.3c-0.6-0.5-1.2-0.9-1.8-1.5
		c-1.1-1.1-2-2.4-2.8-3.6c-0.4-0.6-0.8-1.3-1.1-2c-0.2-0.3-0.3-0.7-0.5-1l-0.4-1.1c-0.5-1.4-0.8-2.8-0.9-4.3c-0.2-2.9,0.5-5.8,2.1-8
		c1.5-2.3,3.5-4,5.7-5.2l-0.1,0.3l-0.1-0.2l0.2-0.1c0.5-0.2,0.9-0.5,1.4-0.7l0.2-0.1l0.1,0.2l-0.3-0.1c4.2-1.9,8.7-2.2,12.2-0.9
		c3.5,1.3,5.9,3.7,7.5,5.8c1.5,2.2,2.3,4.1,2.8,5.4C223.4,389.2,223.5,390,223.5,390c0,0-0.1-0.2-0.2-0.5l-0.5-1.5
		c-0.5-1.3-1.4-3.2-2.9-5.3c-1.6-2-4-4.4-7.4-5.6s-7.8-1-11.9,0.9l-0.2,0.1l-0.1-0.2l0.3,0.1c-0.4,0.2-0.9,0.5-1.4,0.7l0.1-0.3
		l0.1,0.2l-0.2,0.1c-2.1,1.2-4.1,2.9-5.5,5.1c-1.5,2.2-2.2,4.9-2,7.7c0.1,1.4,0.4,2.8,0.9,4.2l0.4,1c0.2,0.3,0.3,0.7,0.5,1
		c0.3,0.6,0.7,1.3,1.1,1.9c0.8,1.3,1.7,2.5,2.7,3.5c0.5,0.5,1.1,1,1.7,1.5c0.2,0.2,0.3,0.2,0.5,0.5c0.1,0.3,0,0.3,0,0.4v0.3
		c0,0.3,0,0.7,0.1,1c0.2,0.6,0.5,1.2,0.9,1.8c0.3,0.6,0.9,0.8,1.5,0.9c1.3,0.2,2.6-0.1,3.9-0.5l0.9-0.3c0.3-0.2,0.8-0.2,1.2,0
		c0.2,0.1,0.4,0.2,0.5,0.4c0.1,0.2,0.2,0.3,0.3,0.5l0.5,0.9c0.3,0.6,0.7,1.1,1,1.7l0.5,0.8c0.1,0.2,0.3,0.4,0.6,0.4
		c0.2,0,0.5-0.1,0.8-0.3c0.3-0.1,0.4-0.3,0.5-0.5s0-0.4-0.2-0.7l-0.2-0.4c-0.1-0.1-0.2-0.3-0.2-0.5c-0.1-0.4,0-0.8,0.3-1.1
		c0.3-0.3,0.7-0.4,1.1-0.4c0.4,0,0.7,0.3,0.9,0.6l0.5,0.8l0.2,0.4c0.1,0.1,0.1,0.2,0.2,0.3c0.2,0.1,0.4,0.2,0.7,0.1
		c0.2,0,0.5-0.3,0.7-0.4s0.3-0.3,0.3-0.6c0-0.1,0-0.2-0.1-0.3l-0.2-0.4l-0.4-0.8c-0.2-0.3-0.2-0.7-0.1-1c0.1-0.3,0.5-0.6,0.7-0.7
		l-0.1,0.3l-0.1-0.2l0.2-0.1c0.4-0.2,0.8-0.2,1.1,0c0.2,0.1,0.3,0.2,0.4,0.4c0.1,0.2,0.2,0.3,0.3,0.4l0.5,0.8
		c0.1,0.2,0.3,0.4,0.6,0.4s0.5-0.1,0.7-0.2c0.3-0.1,0.5-0.3,0.5-0.5c0.1-0.2,0.1-0.4-0.1-0.7l-0.4-0.8l-0.2-0.4
		c-0.1-0.2-0.1-0.3-0.1-0.5c0-0.4,0.2-0.7,0.5-0.9c0.6-0.4,1.5-0.2,1.8,0.4c0.1,0.2,0.3,0.5,0.4,0.7c0.1,0.2,0.3,0.4,0.5,0.5
		s0.4,0.1,0.6,0c0.2-0.1,0.5-0.2,0.7-0.4c0.2-0.1,0.3-0.3,0.3-0.5s-0.1-0.4-0.2-0.6c-0.3-0.4-0.5-0.9-0.7-1.3s-0.5-0.9-0.7-1.3
		l-0.3-0.6c-0.1-0.2-0.3-0.4-0.3-0.7c-0.1-0.3,0-0.5,0.1-0.8c0.1-0.2,0.4-0.4,0.5-0.5c0.4-0.2,0.7-0.5,1-0.7
		c0.7-0.5,1.2-1.1,1.7-1.6c0.5-0.6,0.8-1.2,0.9-1.9c0.1-0.6-0.3-1.2-0.6-1.7s-0.6-0.9-1-1.3s-0.8-0.5-1.2-0.7
		c-0.2-0.2-0.2-0.4-0.2-0.6s0-0.3-0.1-0.5c0-0.3-0.1-0.6-0.1-0.8C223.5,390.2,223.5,390,223.5,390L223.5,390z"/>
	<path class="st18" d="M207.1,395.5c1.2,2.1,0.4,4.8-1.8,6c-2.3,1.2-5.1,0.4-6.3-1.8c-1.2-2.1-0.4-4.8,1.8-6
		C203,392.6,205.8,393.4,207.1,395.5z"/>
	<path class="st8" d="M207.1,395.5c0,0-0.2-0.3-0.8-0.8c-0.5-0.5-1.4-1.1-2.6-1.2c-1.2-0.2-2.8,0.2-3.9,1.4
		c-1.1,1.1-1.6,3.2-0.6,4.8c0.9,1.6,2.9,2.4,4.5,2.1c1.6-0.2,2.9-1.2,3.4-2.3c0.6-1.1,0.5-2.2,0.4-2.9
		C207.2,395.9,207,395.5,207.1,395.5l0.2,0.2c0.1,0.2,0.2,0.4,0.3,0.8c0.2,0.7,0.3,1.8-0.2,3.1c-0.5,1.2-1.9,2.4-3.7,2.7
		c-1.8,0.3-3.9-0.5-5-2.4c-0.5-0.9-0.7-2-0.5-2.9c0.1-1,0.6-1.8,1.3-2.5c1.3-1.3,3-1.6,4.3-1.4s2.2,0.9,2.7,1.5
		c0.2,0.3,0.4,0.5,0.5,0.7C207.1,395.4,207.1,395.5,207.1,395.5L207.1,395.5z"/>
	<path class="st18" d="M220,388.8c1.2,2.1,0.4,4.8-1.8,6c-2.3,1.2-5.1,0.4-6.3-1.8c-1.2-2.1-0.4-4.8,1.8-6
		C215.9,385.9,218.7,386.6,220,388.8z"/>
	<path class="st8" d="M220,388.8c0,0-0.2-0.3-0.8-0.8c-0.5-0.5-1.4-1.1-2.6-1.2c-1.2-0.2-2.8,0.2-3.9,1.4c-1.1,1.1-1.6,3.2-0.6,4.8
		c0.9,1.6,2.9,2.4,4.5,2.1c1.6-0.2,2.9-1.2,3.4-2.3c0.6-1.1,0.5-2.2,0.4-2.9C220.1,389.2,219.9,388.8,220,388.8l0.2,0.2
		c0.1,0.2,0.2,0.4,0.3,0.8c0.2,0.7,0.3,1.8-0.2,3.1c-0.5,1.2-1.9,2.4-3.7,2.7c-1.8,0.3-3.9-0.5-5-2.4c-0.5-0.9-0.7-2-0.5-2.9
		c0.1-1,0.6-1.8,1.3-2.5c1.3-1.3,3-1.6,4.3-1.4s2.2,0.9,2.7,1.5c0.2,0.3,0.4,0.5,0.5,0.7C219.9,388.7,220,388.8,220,388.8L220,388.8
		z"/>
	<path class="st18" d="M210.9,397.2c-0.1,0.1-1.2,3.7,0.1,5.9c0.6,0.9,1.8,1.3,2.8,0.7c0.3-0.2,0.5-0.5,0.4-0.9c0,0,1.2,0.7,1.8-0.8
		C217,399.7,210.9,397.2,210.9,397.2L210.9,397.2z"/>
	<path class="st8" d="M210.9,397.2c0-0.1,1.1,0.3,2.7,1.2c0.8,0.5,1.7,1,2.4,2.1c0.1,0.1,0.2,0.3,0.2,0.5c0.1,0.2,0.1,0.3,0.1,0.5
		s0,0.4-0.1,0.5c0,0.2-0.1,0.3-0.2,0.5c-0.2,0.3-0.5,0.6-0.9,0.8c-0.4,0.1-0.8,0-1.2-0.2l0.4-0.3v0.2c0,0.2,0,0.5-0.2,0.7
		c-0.1,0.2-0.3,0.3-0.5,0.4c-0.3,0.2-0.7,0.3-1.1,0.2c-0.7,0-1.4-0.4-1.8-1c-0.7-1.1-0.7-2.3-0.7-3.2
		C210.3,398.2,210.8,397.2,210.9,397.2c0,0,0,0.3-0.1,0.8s-0.2,1.2-0.2,2.1s0.1,2,0.7,2.9c0.3,0.4,0.9,0.7,1.4,0.8
		c0.3,0,0.6,0,0.8-0.2c0.3-0.1,0.4-0.3,0.4-0.5V403l-0.2-0.6l0.6,0.3c0.2,0.1,0.5,0.2,0.8,0.1c0.2-0.1,0.4-0.3,0.6-0.5
		c0.3-0.5,0.2-1.1,0-1.5c-0.6-1-1.5-1.6-2.2-2.1C211.9,397.7,210.9,397.3,210.9,397.2L210.9,397.2z"/>
</g>
<g id="Padlock">
	<path class="st5" d="M383.3,116.3c-6.2-9.7-19.2-12.5-28.9-6.2c-9.7,6.2-12.5,19.2-6.2,28.9l18.5,28.7l5.3-3.4l-18.5-28.7
		c-4.4-6.8-2.4-15.8,4.4-20.2c6.8-4.4,15.8-2.4,20.2,4.4l4.1,6.4l5.6-2.9C387.8,123.3,383.3,116.3,383.3,116.3z"/>
	<path class="st5" d="M383.3,116.3c-6.2-9.7-19.2-12.5-28.9-6.2c-9.7,6.2-12.5,19.2-6.2,28.9l18.5,28.7l5.3-3.4l-18.5-28.7
		c-4.4-6.8-2.4-15.8,4.4-20.2c6.8-4.4,15.8-2.4,20.2,4.4l4.1,6.4l5.6-2.9C387.8,123.3,383.3,116.3,383.3,116.3z"/>
	<path class="st16" d="M383.3,116.3c-6.2-9.7-19.2-12.5-28.9-6.2c-9.7,6.2-12.5,19.2-6.2,28.9l18.5,28.7l5.3-3.4l-18.5-28.7
		c-4.4-6.8-2.4-15.8,4.4-20.2c6.8-4.4,15.8-2.4,20.2,4.4l4.1,6.4l5.6-2.9C387.8,123.3,383.3,116.3,383.3,116.3z"/>
	<path class="st11" d="M414,162.1l-36.7,23.7c-2.9,1.9-6.8,1-8.7-1.9l-12.8-19.8c-1.9-2.9-1-6.8,1.9-8.7l36.7-23.7
		c2.9-1.9,6.8-1,8.7,1.9l12.8,19.8C417.7,156.3,416.9,160.2,414,162.1z"/>
	<path class="st8" d="M414,162.1c0,0,0.5-0.3,1.3-1.2c0.7-0.9,1.6-2.5,1.5-4.6c-0.1-0.5-0.2-1.1-0.4-1.7c-0.2-0.6-0.5-1.1-0.9-1.6
		c-0.7-1.1-1.5-2.3-2.4-3.6c-1.7-2.6-3.6-5.6-5.8-8.9c-1.1-1.7-2.2-3.4-3.4-5.2c-0.6-0.9-1.1-1.9-1.9-2.6c-0.8-0.7-1.8-1.3-2.9-1.5
		s-2.3-0.2-3.3,0.2c-1.1,0.4-2,1.2-3.1,1.8c-2.1,1.3-4.2,2.7-6.4,4.1c-8.7,5.6-18.4,11.9-28.4,18.4c-1.2,0.8-2.1,2-2.5,3.4
		s-0.3,2.9,0.3,4.1c0.3,0.6,0.7,1.2,1.1,1.8l1.2,1.8c0.8,1.2,1.6,2.4,2.3,3.6c3.1,4.8,6,9.3,8.8,13.7c1.5,2,4.2,2.9,6.5,2.2
		c1.1-0.3,2.1-1.1,3.1-1.7c1-0.6,2-1.3,3-1.9c3.9-2.5,7.5-4.8,10.8-6.9c6.6-4.2,12-7.6,15.7-10c1.8-1.2,3.3-2.1,4.3-2.7
		c0.5-0.3,0.8-0.5,1.1-0.7C413.8,162.2,414,162.1,414,162.1c0,0-0.1,0.1-0.4,0.3s-0.6,0.4-1.1,0.7c-1,0.7-2.4,1.6-4.2,2.8
		c-3.7,2.4-9,5.9-15.6,10.2c-3.3,2.1-6.9,4.5-10.8,7c-1,0.6-2,1.3-3,1.9c-0.5,0.3-1,0.7-1.5,1s-1.1,0.6-1.7,0.8
		c-2.5,0.8-5.4-0.1-7.1-2.3c-2.9-4.4-5.8-9-8.9-13.7c-0.8-1.2-1.5-2.4-2.3-3.6l-1.2-1.8c-0.4-0.6-0.8-1.2-1.1-1.9
		c-0.6-1.4-0.8-3-0.3-4.5c0.4-1.5,1.4-2.8,2.7-3.7c10.1-6.5,19.7-12.7,28.5-18.3c2.2-1.4,4.3-2.8,6.4-4.1c0.5-0.3,1-0.7,1.5-1
		s1.1-0.7,1.6-0.9c1.2-0.4,2.4-0.5,3.6-0.3c1.2,0.3,2.3,0.8,3.1,1.6c0.9,0.8,1.4,1.8,2,2.7c1.2,1.8,2.3,3.5,3.3,5.2
		c2.1,3.3,4,6.3,5.7,8.9c0.8,1.3,1.6,2.5,2.3,3.7c0.4,0.6,0.7,1.1,0.9,1.7c0.2,0.6,0.3,1.2,0.4,1.7c0.2,2.3-0.8,3.9-1.6,4.7
		C414.5,161.8,414,162.1,414,162.1L414,162.1z"/>
	<path class="st21" d="M387.2,152.3c-1.4-2.2-4.3-2.8-6.5-1.4s-2.8,4.3-1.4,6.5c1.2,1.8,3.4,2.5,5.3,1.9l3.8,5.9l2.2-1.4l-3.8-5.9
		C388.1,156.4,388.4,154.1,387.2,152.3z"/>
	<path class="st19" d="M372.6,184.7c-0.1,0.1-3.5-4.9-7.5-11.2c-4-6.2-7.2-11.4-7.1-11.4c0.1-0.1,3.5,4.9,7.5,11.2
		C369.5,179.5,372.7,184.6,372.6,184.7z M383.4,161.9c0,0-0.2,0.1-0.6,0c-0.4,0-1-0.1-1.7-0.4c-1.4-0.5-3.2-1.8-4-4
		s-0.2-4.4,0.6-5.6c0.4-0.6,0.8-1.1,1.1-1.4c0.3-0.3,0.5-0.4,0.5-0.4c0.1,0.1-0.7,0.6-1.3,1.9c-0.6,1.2-1.1,3.3-0.4,5.3
		s2.4,3.3,3.6,3.8C382.5,161.8,383.4,161.8,383.4,161.9L383.4,161.9z"/>
	<path class="st3" d="M393.1,114.2c-0.1,0,0.1-3.7,0.5-8.1c0.4-4.5,0.9-8.1,1-8.1s-0.1,3.7-0.5,8.1
		C393.7,110.6,393.3,114.2,393.1,114.2z M418.8,96.1c0.1,0.1-4.8,5.5-10.9,12.1c-6.2,6.6-11.2,11.9-11.3,11.8
		c-0.1-0.1,4.8-5.5,10.9-12.1S418.7,96,418.8,96.1z M423.7,122.7c0,0.1-4,0-9-0.4c-4.9-0.4-8.9-0.8-8.9-0.9s4,0,9,0.4
		C419.7,122.2,423.7,122.6,423.7,122.7z"/>
</g>
</svg>
