<?xml version="1.0" encoding="utf-8"?>
<!-- Generator: Adobe Illustrator 25.2.0, SVG Export Plug-In . SVG Version: 6.00 Build 0)  -->
<svg version="1.1" id="Layer_1" xmlns="http://www.w3.org/2000/svg" xmlns:xlink="http://www.w3.org/1999/xlink" x="0px" y="0px"
	 viewBox="0 0 500 500" style="enable-background:new 0 0 500 500;" xml:space="preserve">
<style type="text/css">
	.st0{opacity:0.1;fill:#E0E0E0;enable-background:new    ;}
	.st1{opacity:0.1;}
	.st2{fill:#EBEBEB;}
	.st3{fill:#FAFAFA;}
	.st4{fill:#E0E0E0;}
	.st5{fill:#F5F5F5;}
	.st6{fill:#FFFFFF;}
	.st7{fill:#263238;}
	.st8{fill:#FFBE9D;}
	.st9{fill:#EB996E;}
	.st10{fill:#455A64;}
	.st11{fill:#797AED;}
	.st12{fill:#8026CD;}
	.st13{opacity:0.4;enable-background:new    ;}
	.st14{fill:#E8505B;}
	.st15{opacity:0.2;enable-background:new    ;}
	.st16{fill:#B37BEF;}
	.st17{opacity:0.3;enable-background:new    ;}
	.st18{fill:#444C4F;}
</style>
<g id="Background_Complete">
	<path class="st0" d="M97,287h107.8v178.5H97V287z"/>
	<g class="st1">
		<path class="st2" d="M93.5,287h107.8v178.5H93.5V287z"/>
	</g>
	<g class="st1">
		<path class="st3" d="M98,290.6h98.6v171.2H98V290.6z"/>
	</g>
	<g class="st1">
		<path class="st2" d="M116.8,312.9h60.6v126.7h-60.6L116.8,312.9z"/>
	</g>
	<g class="st1">
		<path class="st4" d="M116.8,394.7c-0.1-11.8,10.5-23.4,22.2-25c5.6-0.8,11.5,0.3,16.8-1.8c9.3-3.8,12.3-16.2,21.7-19.9l0.4,91.6
			h-61.1L116.8,394.7L116.8,394.7z"/>
	</g>
	<g class="st1">
		<path class="st4" d="M39.8,236.8h136.9v226.6H39.8V236.8z"/>
		<path class="st2" d="M35.2,236.8h136.9v226.6H35.2V236.8z"/>
		<g class="st1">
			<path class="st3" d="M41.1,241.3h125.2v217.4H41.1V241.3z"/>
		</g>
		<path class="st2" d="M64.9,269.6h77v160.9h-77L64.9,269.6z"/>
		<path class="st4" d="M64.9,373.5c-0.2-15,13.3-29.7,28.2-31.8c7.1-1,14.6,0.4,21.3-2.3c11.8-4.9,15.6-20.6,27.5-25.2l0.5,116.3
			H64.9V373.5z"/>
	</g>
	<g class="st1">
		<path class="st4" d="M161.7,63.4h47v68.1h-47V63.4z"/>
	</g>
	<g class="st1">
		<path class="st5" d="M159.3,63.4h47v68.1h-47V63.4z"/>
	</g>
	<g class="st1">
		<path class="st6" d="M165.2,70.8h35.3v53.3h-35.3V70.8z"/>
	</g>
	<path class="st0" d="M200.5,124.1v-15c0-9.4,0-22.7-0.1-38.4l0.1,0.1h-35.3l0.1-0.1V124l-0.1-0.1c10.7,0,19.6,0,25.7,0.1h9
		C200.3,124.1,200.5,124.1,200.5,124.1H191c-6.1,0-15,0-25.8,0.1h-0.1V70.7h35.5v0.1c0,15.7,0,29.1-0.1,38.5L200.5,124.1
		L200.5,124.1z"/>
	<path class="st0" d="M206.4,63.4c0,0-0.3,0.5-0.8,1.2s-1.3,1.7-2.2,2.8c-0.9,1.1-1.7,2-2.3,2.7s-1,1.1-1,1.1s0.3-0.5,0.9-1.2
		c0.6-0.8,1.4-1.7,2.3-2.7c0.9-1,1.6-2,2.3-2.7C206,63.8,206.4,63.4,206.4,63.4z"/>
	<path class="st6" d="M200.7,123.9c1.8,2.8,3.8,5.4,6.2,7.7"/>
	<path class="st0" d="M206.8,131.6c0,0-0.4-0.3-1.1-1c-0.6-0.6-1.5-1.6-2.3-2.6c-0.9-1.1-1.6-2.1-2-2.8c-0.5-0.8-0.7-1.2-0.7-1.3
		l0.9,1.2c0.5,0.7,1.2,1.7,2.1,2.8c0.8,1.1,1.7,2,2.3,2.7C206.5,131.2,206.8,131.6,206.8,131.6L206.8,131.6z"/>
	<path class="st6" d="M159.3,131.4c2.1-2.5,4.1-5.1,6.2-7.6"/>
	<path class="st0" d="M165.5,123.8c0.1,0-1.3,1.8-3,3.9s-3.1,3.8-3.2,3.7c-0.1,0,1.3-1.8,3-3.9C164,125.5,165.4,123.8,165.5,123.8z
		 M159.3,63.4c0.1,0,1.4,1.6,3,3.6s2.8,3.7,2.8,3.7c-0.1,0-1.4-1.6-3-3.6S159.3,63.5,159.3,63.4z"/>
	<g class="st1">
		<path class="st3" d="M177.7,81.6h11.8v33.6h-11.8V81.6z"/>
	</g>
	<g class="st1">
		<path class="st4" d="M406.3,133.1h70.3V235h-70.3V133.1z"/>
	</g>
	<g class="st1">
		<path class="st5" d="M402.7,133.1H473V235h-70.3V133.1z"/>
	</g>
	<g class="st1">
		<path class="st6" d="M411.5,144.2h52.8V224h-52.8V144.2z"/>
	</g>
	<path class="st0" d="M464.3,224v-22.3c0-14.1-0.1-34-0.1-57.5l0.2,0.2h-52.8l0.2-0.2V224l-0.2-0.2c16.1,0,29.3,0.1,38.5,0.1h13.4
		C464,224,464.3,224,464.3,224l-14.3,0c-9.2,0-22.4,0-38.6,0.1h-0.2V144h53.2v0.2c0,23.5-0.1,43.5-0.1,57.6V224z"/>
	<path class="st0" d="M473.2,133.1c0,0-0.4,0.7-1.3,1.8c-0.8,1.1-2,2.6-3.3,4.2c-1.3,1.6-2.6,3-3.5,4s-1.5,1.6-1.5,1.6
		s0.5-0.7,1.3-1.8c0.9-1.1,2.1-2.6,3.4-4.1c1.3-1.6,2.4-3,3.4-4.1C472.6,133.7,473.2,133.1,473.2,133.1L473.2,133.1z"/>
	<path class="st6" d="M464.6,223.7c2.6,4.2,5.7,8,9.2,11.5"/>
	<path class="st0" d="M473.8,235.3c0,0-0.7-0.5-1.6-1.5s-2.2-2.3-3.5-3.9c-1.3-1.6-2.3-3.1-3.1-4.3c-0.7-1.1-1.1-1.9-1.1-1.9
		s0.5,0.6,1.3,1.7s1.9,2.6,3.1,4.2c1.3,1.6,2.5,3,3.4,4C473.3,234.6,473.8,235.2,473.8,235.3L473.8,235.3z"/>
	<path class="st6" d="M402.7,235c3.1-3.8,6.1-7.6,9.2-11.4"/>
	<path class="st0" d="M411.9,223.6c0.1,0.1-1.9,2.7-4.5,5.8c-2.5,3.1-4.7,5.6-4.8,5.6c-0.1-0.1,1.9-2.7,4.5-5.8
		C409.7,226,411.8,223.5,411.9,223.6z M402.7,133.1c0.1-0.1,2.1,2.3,4.5,5.3s4.3,5.5,4.2,5.6c-0.1,0.1-2.1-2.3-4.5-5.3
		S402.6,133.2,402.7,133.1z"/>
	<g class="st1">
		<path class="st4" d="M430.2,160.4h17.7v50.2h-17.7V160.4z"/>
	</g>
	<g class="st1">
		<path class="st4" d="M388.9,30.6h47v68.1h-47V30.6z"/>
	</g>
	<g class="st1">
		<path class="st5" d="M386.5,30.6h47v68.1h-47V30.6z"/>
	</g>
	<g class="st1">
		<path class="st6" d="M392.4,38h35.3v53.3h-35.3V38z"/>
	</g>
	<path class="st0" d="M427.7,91.3v-15c0-9.4,0-22.7-0.1-38.4l0.1,0.1h-35.3l0.1-0.1v53.3l-0.1-0.1c10.7,0,19.6,0,25.7,0.1h9
		C427.4,91.3,427.7,91.3,427.7,91.3l-9.5,0c-6.1,0-15,0-25.8,0.1h-0.1V37.9h35.5V38c0,15.7,0,29.1-0.1,38.5L427.7,91.3L427.7,91.3z"
		/>
	<path class="st0" d="M433.6,30.6c0,0-0.3,0.5-0.8,1.2c-0.5,0.7-1.3,1.7-2.2,2.8c-0.9,1.1-1.7,2-2.3,2.7c-0.6,0.7-1,1.1-1,1.1
		s0.3-0.5,0.9-1.2c0.6-0.8,1.4-1.7,2.3-2.7s1.6-2,2.3-2.7C433.2,31,433.6,30.6,433.6,30.6L433.6,30.6z"/>
	<path class="st6" d="M427.8,91.1c1.8,2.8,3.8,5.4,6.2,7.7"/>
	<path class="st0" d="M434,98.8c0,0-0.4-0.3-1.1-1c-0.6-0.6-1.5-1.6-2.3-2.6c-0.9-1.1-1.6-2.1-2-2.8c-0.5-0.8-0.7-1.2-0.7-1.3
		l0.9,1.2c0.5,0.7,1.2,1.7,2.1,2.8c0.8,1.1,1.7,2,2.3,2.7C433.6,98.4,434,98.8,434,98.8L434,98.8z"/>
	<path class="st6" d="M386.5,98.6c2.1-2.5,4.1-5.1,6.2-7.6"/>
	<path class="st0" d="M392.7,91c0.1,0-1.3,1.8-3,3.9s-3.1,3.8-3.2,3.7c-0.1,0,1.3-1.8,3-3.9S392.6,91,392.7,91z M386.5,30.6
		c0.1,0,1.4,1.6,3,3.6s2.8,3.7,2.8,3.7c-0.1,0-1.4-1.6-3-3.6S386.5,30.6,386.5,30.6z"/>
	<g class="st1">
		<path class="st3" d="M404.8,48.8h11.8v33.6h-11.8V48.8z"/>
	</g>
</g>
<path id="Floor" class="st7" d="M467.6,463.9c0,0.1-97.4,0.3-217.5,0.3c-120.2,0-217.6-0.1-217.6-0.3c0-0.1,97.4-0.3,217.6-0.3
	C370.1,463.7,467.6,463.8,467.6,463.9z"/>
<g id="Character">
	<path class="st8" d="M133.2,117.2l-2.9,35.7c-0.5,6.1,4.2,11.3,10.3,11.5c5.7,0.2,10.5-4.1,11-9.8c0.2-2.7,0.4-4.9,0.4-5.2
		c0,0,9.2-0.1,10.5-9c0.7-4.3,1.3-13.3,1.8-21.5c0.5-8.8-5.8-16.5-14.4-17.7l-0.9-0.1C139.6,100.3,133.7,107.8,133.2,117.2
		L133.2,117.2z"/>
	<path class="st9" d="M152,149.3c0,0-5.7-0.3-11.2-5c0,0,1.8,6.8,10.9,7.3L152,149.3z"/>
	<path class="st7" d="M161,123.5c-0.1,0.7-0.7,1.2-1.4,1.1s-1.2-0.7-1.2-1.3c0.1-0.7,0.7-1.2,1.4-1.1
		C160.5,122.2,161.1,122.8,161,123.5z"/>
	<path class="st7" d="M162,122.5c-0.2,0.1-1-0.7-2.4-0.9c-1.4-0.2-2.5,0.4-2.6,0.2c-0.1-0.1,0.1-0.4,0.6-0.6
		c0.5-0.3,1.3-0.5,2.1-0.3c0.9,0.1,1.5,0.5,1.9,0.9C162,122.1,162.1,122.4,162,122.5z M147.7,122.2c-0.1,0.7-0.7,1.2-1.4,1.1
		s-1.2-0.7-1.2-1.3c0.1-0.7,0.7-1.2,1.4-1.1C147.2,120.9,147.7,121.5,147.7,122.2z M148.3,121c-0.2,0.1-1-0.7-2.4-0.9
		c-1.4-0.2-2.5,0.4-2.6,0.2c-0.1-0.1,0.1-0.4,0.6-0.6c0.5-0.3,1.3-0.5,2.1-0.3c0.9,0.1,1.5,0.5,1.9,0.9
		C148.3,120.6,148.4,120.9,148.3,121z M151.7,132.2c0-0.1,0.9-0.1,2.3-0.1c0.4,0,0.7,0,0.8-0.2s0-0.6-0.1-1.1
		c-0.2-0.9-0.4-1.8-0.7-2.8c-0.9-4-1.5-7.3-1.3-7.3s1,3.2,1.9,7.2c0.2,1,0.4,1.9,0.6,2.8c0.1,0.4,0.2,0.9,0,1.4
		c-0.1,0.2-0.4,0.4-0.7,0.4h-0.6C152.6,132.4,151.7,132.3,151.7,132.2L151.7,132.2z M149.1,118.2c-0.2,0.4-1.5,0-3.2-0.1
		c-1.6-0.1-3,0.2-3.2-0.1c-0.1-0.2,0.2-0.5,0.8-0.8s1.5-0.5,2.4-0.5c1,0,1.8,0.3,2.4,0.6C148.9,117.7,149.2,118,149.1,118.2z
		 M161.4,117c-0.3,0.3-1.2-0.2-2.3-0.4c-1.1-0.2-2.1-0.1-2.3-0.4c-0.1-0.2,0.1-0.5,0.6-0.7s1.2-0.4,2-0.2c0.8,0.1,1.4,0.5,1.8,0.9
		C161.5,116.5,161.6,116.8,161.4,117z"/>
	<path class="st8" d="M133,124c-0.1-0.1-5.9-2.7-6.6,3.4s5.6,5.6,5.7,5.4C132.1,132.6,133,124,133,124z"/>
	<path class="st9" d="M130.4,130.3c0,0-0.1,0.1-0.3,0.1c-0.2,0.1-0.5,0.1-0.8-0.1c-0.6-0.3-1.1-1.4-1-2.5c0-0.6,0.2-1.1,0.5-1.5
		c0.2-0.4,0.6-0.7,0.9-0.7c0.3,0,0.5,0.2,0.6,0.4c0.1,0.2,0,0.3,0,0.3s0.1-0.1,0.1-0.3c0-0.1-0.1-0.3-0.2-0.4
		c-0.1-0.1-0.3-0.2-0.6-0.2c-0.5,0-1,0.4-1.2,0.8c-0.3,0.5-0.5,1-0.6,1.7c-0.1,1.2,0.4,2.5,1.3,2.8c0.4,0.2,0.8,0.1,1-0.1
		C130.4,130.4,130.5,130.3,130.4,130.3z"/>
	<path class="st7" d="M129.6,123.3c1-0.1,2.5,1,2.7,1.9c0.3,0.9,0.2,1.9,0.5,2.9c0.3,0.9,1.1,1.8,2,1.8c0.7-0.1,1.2-0.6,1.5-1.2
		c0.3-0.6,0.3-1.3,0.3-2c0-2.9-0.1-5.8,0.1-8.7c0.3-2.9,1.1-5.8,3-8.1c1.9-2.2,4.9-3.6,7.7-3c1.9,0.4,3.5,1.7,5.3,2.2
		c2.2,0.6,4.7,0.2,6.5-1.2c0.1,0,0.2-0.1,0.3-0.2c0.7-0.4,1-1.1,0.9-1.8c-0.1-0.2-0.1-0.5-0.3-0.6c-3.3-4-9.9-5.9-15-5.4
		s-10.3,3.4-13.1,7.7C129.4,111.9,129.1,118.4,129.6,123.3 M154.7,136.2c0,0.1-0.9-0.1-2-0.4c-1-0.3-1.9-0.7-1.8-0.8
		c0-0.1,0.9,0.1,2,0.4C153.9,135.8,154.7,136.1,154.7,136.2z"/>
	<path class="st9" d="M161.6,142.8c0,0-0.1,0.7-0.7,1.7s-1.7,2.1-3.2,3s-3,1.3-4.1,1.6s-1.8,0.4-1.8,0.3c0-0.1,0.6-0.3,1.7-0.6
		c1-0.3,2.5-0.8,3.9-1.7c1.4-0.8,2.5-1.9,3.1-2.8C161.3,143.4,161.6,142.7,161.6,142.8z"/>
	<path class="st10" d="M133.8,105.4c0.1-0.1,1.6,1.2,3.8,1.9c2.3,0.8,4.2,0.5,4.2,0.7c0,0.1-2,0.6-4.4-0.2
		C135.1,107.1,133.7,105.5,133.8,105.4z"/>
	<path class="st10" d="M153.5,109c-0.1,0.1-0.8-0.8-2.4-1.6c-1.6-0.9-4-1.7-6.8-1.4c-1.4,0.1-2.7,0.4-3.9,0.6s-2.3,0.2-3.3,0.1
		c-0.9-0.1-1.7-0.4-2.1-0.6c-0.5-0.3-0.7-0.5-0.7-0.5c0-0.1,1,0.6,2.8,0.8c0.9,0.1,2,0,3.2-0.2s2.5-0.5,3.9-0.6
		c2.9-0.3,5.4,0.6,7,1.6c0.8,0.5,1.4,1,1.7,1.3C153.4,108.8,153.6,109,153.5,109z"/>
	<path class="st7" d="M134.3,105.8c0.1-1.3,0.2-2.6,0-3.8c-0.2-1.3-0.7-2.5-1.7-3.4c-1.2-1.1-2.9-1.4-4.5-1
		c-1.6,0.4-2.9,1.5-3.7,2.9c-1.1,1.8-1.2,4.2-0.1,6s3.6,2.7,5.5,1.7c0.7-0.4,1.2-0.9,1.9-1.3s1.6-0.5,2.1,0"/>
	<path class="st11" d="M134.7,104.1c0.1,0.1-0.4,0.9-1.2,1.9c-0.8,0.9-1.5,1.6-1.6,1.5s0.5-0.9,1.2-1.8
		C133.9,104.7,134.6,104,134.7,104.1z"/>
	<path class="st10" d="M127.2,98c0.1,0.1-0.6,0.4-1.2,1.4c-0.2,0.5-0.5,1.1-0.4,1.8c0.1,0.7,0.5,1.4,1.1,2c1.2,1.2,2.8,1.6,3.9,1.9
		c1.1,0.3,1.8,0.4,1.8,0.5s-0.7,0.1-1.9-0.1c-1.1-0.2-2.8-0.6-4.2-1.9c-0.7-0.7-1.1-1.4-1.2-2.3c-0.1-0.8,0.2-1.6,0.5-2.1
		C126.4,98.2,127.2,98,127.2,98z"/>
	<path class="st10" d="M130.6,97.5c0,0.1-0.6,0.3-1,1c-0.2,0.4-0.4,0.9-0.4,1.4c0,0.6,0.2,1.2,0.5,1.8c0.6,1.2,1.6,2.1,2.4,2.6
		c0.8,0.5,1.3,0.7,1.3,0.8c0,0.1-0.6,0-1.5-0.5c-0.8-0.4-2-1.3-2.7-2.6c-0.3-0.7-0.5-1.4-0.5-2.1s0.3-1.2,0.6-1.6
		C129.8,97.5,130.6,97.5,130.6,97.5L130.6,97.5z"/>
	<path class="st8" d="M153.5,409.9l-8.3,38l14.2,0.1l10.4-33.3L153.5,409.9z"/>
	<path class="st12" d="M166.1,432.9l-5.2,17.3c0,0,15.8,11.1,15.2,14.4l-33.9-8.9l7-27.3L166.1,432.9z"/>
	<path class="st4" d="M150.8,446c-0.7,0-1.4,0.6-1.4,1.3c0,0.7,0.6,1.4,1.3,1.4s1.5-0.7,1.4-1.4c-0.1-0.7-0.8-1.4-1.5-1.3"/>
	<path class="st13" d="M142.1,455.7l0.8-2.7l32.2,9.5c0,0,1.3,1.1,0.9,2.1L142.1,455.7z"/>
	<path class="st7" d="M161.5,450.2c0,0.2-0.9,0-1.9,0.3s-1.6,0.9-1.7,0.8c-0.1-0.1,0.4-1,1.5-1.4
		C160.6,449.6,161.5,450.1,161.5,450.2L161.5,450.2z M164.6,452.6c0,0.2-0.8,0.3-1.5,0.8c-0.8,0.5-1.1,1.3-1.3,1.2
		c-0.2,0,0-1,0.9-1.7C163.7,452.3,164.7,452.5,164.6,452.6L164.6,452.6z M165.5,457.4c-0.2,0-0.2-0.9,0.5-1.7c0.7-0.8,1.5-1,1.6-0.8
		s-0.6,0.5-1.1,1.2C165.9,456.8,165.7,457.4,165.5,457.4z M162.2,446.1c-0.1,0.1-0.8-0.3-1.8-0.5c-0.9-0.2-1.8-0.1-1.8-0.2
		c-0.1-0.1,0.8-0.6,1.9-0.3C161.7,445.3,162.3,446,162.2,446.1L162.2,446.1z M163.2,442.6c0,0.1-0.7,0-1.7-0.5
		c-0.5-0.2-1.1-0.6-1.6-1c-0.3-0.2-0.6-0.5-0.8-0.8c-0.1-0.1-0.3-0.3-0.4-0.5c-0.1-0.2-0.1-0.7,0.2-0.9c0.2-0.2,0.6-0.2,0.8-0.2
		c0.3,0.1,0.4,0.2,0.6,0.3c0.4,0.2,0.7,0.4,1,0.6c0.6,0.5,1,1,1.3,1.4C163.2,441.9,163.3,442.6,163.2,442.6c-0.1,0-0.3-0.6-1-1.4
		c-0.3-0.4-0.7-0.8-1.3-1.3l-0.9-0.6c-0.3-0.2-0.6-0.3-0.8-0.1c0,0.1-0.1,0.1,0,0.2s0.2,0.3,0.3,0.4c0.2,0.3,0.5,0.5,0.8,0.7
		c0.5,0.4,1,0.8,1.5,1.1C162.6,442.3,163.2,442.5,163.2,442.6L163.2,442.6z"/>
	<path class="st7" d="M162.9,442.8c-0.1,0-0.2-0.7,0-1.8c0.1-0.5,0.3-1.2,0.7-1.8c0.2-0.3,0.4-0.6,0.7-0.9s0.6-0.7,1.3-0.6
		c0.3,0.1,0.5,0.4,0.6,0.7c0.1,0.3,0,0.5,0,0.7c0,0.4-0.2,0.8-0.3,1.1c-0.3,0.7-0.7,1.2-1.2,1.6c-0.9,0.7-1.6,0.7-1.6,0.7
		c0-0.1,0.6-0.3,1.4-1c0.4-0.4,0.7-0.8,1-1.5c0.1-0.3,0.2-0.6,0.2-1s0-0.7-0.2-0.7s-0.5,0.1-0.7,0.4c-0.3,0.3-0.5,0.5-0.7,0.8
		c-0.4,0.6-0.6,1.1-0.8,1.6C163,442.1,163,442.8,162.9,442.8L162.9,442.8z"/>
	<path class="st8" d="M116.2,416.4l0.8,38.9l13.9-3.2l2.2-34.8L116.2,416.4z"/>
	<path class="st12" d="M133.8,435.8l-1,18c0,0,18,7,18.2,10.4l-35-0.6l0.4-28.2L133.8,435.8L133.8,435.8z"/>
	<path class="st4" d="M122,452.2c-0.7,0.2-1.2,0.9-1,1.6c0.1,0.7,0.9,1.2,1.6,1s1.3-1,1.1-1.7c-0.2-0.7-1.1-1.2-1.8-0.9"/>
	<path class="st13" d="M115.9,463.7l0.1-2.8l33.5,1.7c0,0,1.5,0.7,1.4,1.8C150.9,464.4,115.9,463.7,115.9,463.7z"/>
	<path class="st7" d="M133.4,453.7c0,0.2-0.9,0.2-1.7,0.8c-0.9,0.5-1.3,1.2-1.5,1.2s0.1-1.1,1.2-1.7
		C132.4,453.3,133.4,453.6,133.4,453.7z M137,455.3c0,0.2-0.7,0.4-1.3,1.2c-0.6,0.7-0.8,1.5-0.9,1.5c-0.2,0-0.3-1,0.5-1.9
		C136,455.2,137,455.1,137,455.3L137,455.3z M139,459.7c-0.2,0-0.4-0.8,0.1-1.8c0.4-0.9,1.3-1.3,1.3-1.1c0.1,0.1-0.4,0.6-0.8,1.4
		C139.3,459,139.2,459.7,139,459.7z M133.1,449.6c-0.1,0.2-0.9-0.1-1.8,0c-1,0-1.7,0.3-1.8,0.2c-0.1-0.1,0.6-0.7,1.8-0.8
		C132.4,448.9,133.2,449.4,133.1,449.6L133.1,449.6z M133.3,445.9c0,0.1-0.7,0.2-1.8,0c-0.5-0.1-1.2-0.3-1.8-0.6
		c-0.3-0.2-0.7-0.3-1-0.6c-0.2-0.1-0.3-0.2-0.5-0.4s-0.3-0.6-0.1-0.9s0.5-0.4,0.8-0.4s0.5,0.1,0.7,0.1c0.4,0.1,0.8,0.2,1.1,0.4
		c0.6,0.3,1.1,0.6,1.6,1.1c0.8,0.8,1.1,1.4,1,1.4c-0.1,0.1-0.5-0.5-1.3-1.1c-0.4-0.3-0.9-0.6-1.5-0.9c-0.3-0.1-0.6-0.2-1-0.3
		c-0.4-0.1-0.7-0.1-0.8,0.1v0.2c0.1,0.1,0.2,0.2,0.4,0.3c0.3,0.2,0.6,0.4,0.9,0.5c0.6,0.3,1.2,0.5,1.7,0.7
		C132.6,445.8,133.3,445.8,133.3,445.9L133.3,445.9z"/>
	<path class="st7" d="M133,446.2c-0.1,0-0.4-0.6-0.4-1.7c0-0.6,0-1.2,0.3-1.9c0.1-0.3,0.3-0.7,0.5-1.1c0.2-0.3,0.5-0.8,1.1-0.9
		c0.3,0,0.6,0.3,0.7,0.5c0.1,0.2,0.1,0.4,0.2,0.6c0.1,0.4,0,0.8,0,1.2c-0.1,0.7-0.4,1.4-0.8,1.8c-0.7,0.9-1.4,1.1-1.4,1
		c-0.1-0.1,0.5-0.4,1.1-1.3c0.3-0.4,0.5-1,0.6-1.6v-1c0-0.4-0.2-0.7-0.3-0.6c-0.2,0-0.5,0.3-0.6,0.6c-0.2,0.3-0.3,0.6-0.5,0.9
		c-0.2,0.6-0.3,1.2-0.4,1.7C133,445.5,133.1,446.2,133,446.2L133,446.2z M161.5,266.4c0,0,27.7,71.6,25.5,91.7
		c-2.3,20.1-16.9,85-16.9,85l-23.5-8.3l9.4-80l-18.1-55.1l5.7-31.2L161.5,266.4L161.5,266.4z"/>
	<path class="st7" d="M108.2,260.4c0,0-0.1,14.1,1.6,19.9l1.4,8.4c-1,46-0.7,154.4-0.7,154.4l31.4,0.4l9.8-179.4L108.2,260.4
		L108.2,260.4z"/>
	<path class="st10" d="M152.5,280.8v0.4c0,0.3,0,0.7-0.1,1.2c-0.1,1.1-0.2,2.7-0.4,4.7c-0.3,4.1-0.8,10.1-1.3,17.4
		c-1.1,14.7-2.6,35-4,57.5c-1.3,22.5-2.5,42.8-3.4,57.5c-0.4,7.3-0.8,13.3-1,17.4c-0.1,2-0.2,3.6-0.3,4.7c0,0.5-0.1,0.9-0.1,1.2v0.4
		v-1.6c0-1.1,0.1-2.7,0.2-4.7c0.2-4.1,0.5-10.1,0.9-17.4c0.8-14.7,1.9-35.1,3.3-57.5c1.4-22.5,2.9-42.8,4.1-57.5
		c0.6-7.3,1.1-13.3,1.5-17.4c0.2-2,0.3-3.6,0.5-4.7c0.1-0.5,0.1-0.9,0.1-1.2V280.8z M127.5,285.1c0-0.1,1.2-0.4,3.1-1.1
		c0.9-0.3,2.1-0.8,3.2-1.4c1.1-0.7,2.3-1.6,3.1-2.9s1.2-2.7,1.4-4s0.2-2.5,0.1-3.5c-0.1-2-0.2-3.3-0.2-3.3s0.1,0.3,0.2,0.9
		c0.1,0.6,0.2,1.4,0.3,2.4s0.1,2.2,0,3.6c-0.2,1.3-0.5,2.9-1.4,4.2c-0.9,1.4-2.1,2.3-3.3,3s-2.3,1.1-3.3,1.4s-1.8,0.5-2.3,0.6
		C127.8,285.1,127.5,285.1,127.5,285.1L127.5,285.1z M160.4,367.1c0,0-0.3-0.4-0.6-1.3c-0.4-0.8-0.9-2-1.5-3.6
		c-1.2-3-2.8-7.2-4.3-12c-1.5-4.7-2.7-9.1-3.5-12.2c-0.4-1.6-0.7-2.9-0.9-3.8s-0.3-1.4-0.2-1.4c0,0,0.2,0.5,0.4,1.3
		c0.3,1,0.6,2.2,1,3.7c0.9,3.1,2.1,7.4,3.6,12.2c1.5,4.7,3,9,4.1,12c0.5,1.5,1,2.7,1.3,3.6C160.3,366.6,160.4,367.1,160.4,367.1
		L160.4,367.1z"/>
	<path class="st14" d="M147.6,161.9c0,0,43.1,41,42.9,50.6c-0.3,9.6-9.4,12.1-12.4,11.9c-3-0.2-26.8-24.3-26.8-24.3L147.6,161.9z"/>
	<path class="st12" d="M147.6,161.9c0,0,43.1,41,42.9,50.6c-0.3,9.6-9.4,12.1-12.4,11.9c-3-0.2-26.8-24.3-26.8-24.3L147.6,161.9z"/>
	<path class="st12" d="M127.8,152.7l2.7-9.7l21.2,8.6l-0.5,10.1l-10.2,3.5l-10.4-5.7L127.8,152.7z"/>
	<path class="st12" d="M161.5,266.4l-3.6-82c-0.5-9.8-3.6-21.4-10-28.8l-0.1-1.3l-17.6-3.4c0,0-20.9,4.8-22.1,22.9
		c-0.9,14.4-2.2,71.6-2.2,92.7h55.6L161.5,266.4L161.5,266.4z"/>
	<path class="st7" d="M134.1,150.8c-0.1,0,0.1-1.3,0.5-2.8s0.8-2.7,0.9-2.7c0.1,0-0.1,1.3-0.5,2.8S134.2,150.8,134.1,150.8z
		 M142.1,147.7c0.1,0,0,1.3-0.3,2.8s-0.6,2.7-0.7,2.7c-0.1,0,0-1.3,0.3-2.8C141.6,148.9,141.9,147.7,142.1,147.7z M148.2,150.4
		c0.1,0,0,1.1-0.1,2.5s-0.1,2.5-0.2,2.5s-0.3-1.1-0.2-2.5S148.1,150.4,148.2,150.4z"/>
	<path class="st15" d="M117,186c7,13.5,15.4,25.5,25,37.3c2.5,3,5.1,6.1,8.6,7.9c3.5,1.8,5.6,1.2,8.9-1c-3.8-1-4.8-1.3-8.1-3.5
		c-3.2-2.1-6-5.1-8.4-8.2c-8.5-10.5-16.7-21.4-25.2-31.9"/>
	<path class="st7" d="M125.5,214.2c0.1,0.1-1.4,1.4-3.4,2.7s-3.7,2.1-3.8,2c-0.1-0.1,1.5-1.2,3.5-2.4
		C123.8,215.1,125.4,214.1,125.5,214.2z M115.9,204.7c-0.1,0-0.2-1.5-0.2-3.4s0.2-3.4,0.3-3.4c0.1,0,0.2,1.5,0.2,3.4
		S116.1,204.7,115.9,204.7z M116.2,240.7c-0.1,0.1-1.5-1.3-2.8-3.3c-1.3-2.1-1.8-3.9-1.7-4c0.1-0.1,0.9,1.7,2.1,3.7
		C115.1,239.1,116.3,240.6,116.2,240.7z M137.2,235c0.1,0.1-1.9,1.2-4.2,2.6c-2.3,1.4-4.2,2.7-4.2,2.5c-0.1-0.1,1.6-1.6,4-3
		C135.1,235.7,137.2,234.8,137.2,235z M133.4,226.9c-0.1,0.1-1.5-0.6-3.3-1.6c-1.7-1-3.1-2-3-2.1s1.5,0.6,3.3,1.6
		S133.5,226.8,133.4,226.9z M134.1,217.9c-0.1-0.1,0.5-1.2,1.5-2.5c0.9-1.3,1.8-2.3,1.9-2.2s-0.5,1.2-1.5,2.5S134.2,218,134.1,217.9
		z M117.8,264.9c-0.1,0.1-1.4-0.9-2.9-2.2c-1.5-1.3-2.7-2.5-2.6-2.6s1.4,0.9,2.9,2.2C116.7,263.6,117.9,264.8,117.8,264.9z
		 M131.5,258.9c0.1,0.1-0.7,1.4-2,2.8s-2.6,2.2-2.7,2.1s1-1.1,2.3-2.5C130.4,260,131.4,258.8,131.5,258.9z M110.3,209.8
		c0.1,0,0.2,1.8,0.1,4s-0.2,4-0.4,4c-0.1,0-0.2-1.8-0.1-4S110.2,209.8,110.3,209.8z M113,187.6c0,0.1-0.9,0.2-2,0.2s-2-0.2-2-0.3
		s0.9-0.2,2-0.2C112.2,187.3,113,187.5,113,187.6z M116.4,163.6c0.1,0.1-0.8,1.3-2,2.7s-2.3,2.5-2.4,2.4s0.8-1.3,2-2.7
		S116.3,163.5,116.4,163.6z M129.3,161.1c-0.1,0-0.4-1.3-0.8-3c-0.4-1.6-0.8-3-0.6-3c0.1-0.1,0.7,1.2,1.2,2.9
		C129.4,159.7,129.4,161.1,129.3,161.1z"/>
	<path class="st8" d="M162.8,155.9c-3,0.1-3.3,0-6.7,0.4c-0.5,0.1-1,0.1-1.5,0.3s-0.9,0.6-1,1.1c-0.2,0.9,0.8,1.7,1.7,1.9
		s1.9,0,2.8,0.1c1.4,0.3,2.9,0.9,3.8,2c2.1,2.6,4,1.2,5.4,2.1l3.4-2.4l-1.5-5L162.8,155.9"/>
	<path class="st9" d="M167.8,163.8c0,0-0.3-0.2-1-0.2c-0.6-0.1-1.6,0.1-2.8-0.3c-0.6-0.2-1.1-0.6-1.6-1.2c-0.4-0.5-0.9-1-1.6-1.4
		c-0.7-0.4-1.4-0.6-2.2-0.8s-1.6,0-2.6-0.1c-0.9-0.1-1.9-0.5-2.2-1.5c-0.2-0.5,0-1,0.3-1.3c0.3-0.4,0.7-0.6,1.1-0.7
		c0.8-0.2,1.5-0.2,2.2-0.3s1.3-0.1,1.9-0.1h3.8c0,0-0.4,0.1-1,0.1c-0.7,0.1-1.6,0.1-2.8,0.2c-0.6,0-1.2,0.1-1.9,0.2
		s-1.4,0.1-2.1,0.3c-0.7,0.2-1.3,0.8-1.1,1.5s1.1,1.2,1.9,1.2c0.8,0.1,1.7-0.1,2.6,0.1c0.8,0.2,1.6,0.4,2.3,0.8
		c0.7,0.4,1.3,1,1.7,1.5s0.9,0.9,1.4,1.1c1,0.5,2,0.3,2.7,0.5c0.3,0.1,0.6,0.2,0.7,0.2C167.7,163.7,167.8,163.8,167.8,163.8
		L167.8,163.8z"/>
	<path class="st7" d="M159.7,153l17-9.1c0.5-0.3,1.1-0.1,1.4,0.3c0.4,0.5,0.2,1.3-0.4,1.6l-15.5,8.1L159.7,153L159.7,153z"/>
	<path class="st16" d="M106.3,251.4c0,0-0.2,0.1-0.6,0.2c-0.4,0.1-0.9,0.2-1.6,0.3c-1.4,0.2-3.5,0.3-6.1-0.1
		c-2.5-0.4-5.5-1.3-8.5-2.8c-1.5-0.8-3-1.7-4.5-2.8c-0.7-0.6-1.5-1.1-2.1-1.9c-0.3-0.4-0.6-0.8-0.7-1.4c-0.1-0.5,0-1.1,0.3-1.6
		c0.6-0.9,1.7-1.4,2.6-1.5c1-0.1,1.9,0,2.8,0.1c1.8,0.2,3.6,0.6,5.2,1.1c3.2,1,6,2.5,8,4.1c2.1,1.5,3.6,3,4.3,4.3
		c0.4,0.6,0.6,1.1,0.7,1.5C106.3,251.2,106.4,251.4,106.3,251.4c-0.1,0-0.2-0.8-1-2s-2.2-2.6-4.3-4.1c-2.1-1.5-4.8-2.9-8-3.9
		c-1.6-0.5-3.3-0.9-5.1-1.1c-0.9-0.1-1.8-0.2-2.7-0.1c-0.9,0.1-1.8,0.5-2.2,1.2c-0.5,0.7-0.2,1.7,0.4,2.4s1.3,1.3,2,1.8
		c1.4,1.1,2.9,2,4.4,2.8c3,1.6,5.9,2.5,8.4,2.9s4.6,0.4,6,0.3C105.6,251.6,106.3,251.4,106.3,251.4L106.3,251.4z"/>
	<path class="st16" d="M104.1,247.6c0,0-0.1-0.1-0.3-0.4c-0.2-0.3-0.5-0.7-0.8-1.1c-0.7-1-1.7-2.4-2.7-4.3c-1-1.9-2.1-4.3-2.4-7.1
		c-0.2-1.4-0.2-2.9,0.2-4.5c0.1-0.4,0.2-0.8,0.3-1.1c0.1-0.4,0.3-0.8,0.5-1.1s0.7-0.7,1.2-0.7s0.9,0.4,1.2,0.8
		c3.4,5.6,4.8,11.5,5.1,15.8c0.2,2.1,0.1,3.9,0,5.1c0,0.6-0.1,1.1-0.1,1.4c0,0.3-0.1,0.5-0.1,0.5v-1.8c0-1.2,0-2.9-0.2-5
		c-0.4-4.2-1.8-10-5.2-15.5c-0.2-0.3-0.5-0.5-0.8-0.5s-0.6,0.2-0.8,0.5c-0.4,0.6-0.6,1.4-0.8,2.1c-0.3,1.5-0.4,2.9-0.2,4.3
		c0.3,2.8,1.3,5.1,2.3,7s1.9,3.3,2.5,4.3c0.3,0.5,0.5,0.8,0.7,1.2C104.1,247.5,104.1,247.6,104.1,247.6z M79.9,271
		c0-0.1,1.9,1,5.2,1c1.6,0,3.6-0.3,5.6-1.1c2-0.8,4-2.2,5.8-3.9c3.6-3.6,5.7-7.8,7.1-10.8c0.7-1.5,1.2-2.7,1.6-3.6
		c0.4-0.9,0.6-1.3,0.6-1.3s-0.1,0.5-0.5,1.4c-0.3,0.9-0.8,2.1-1.5,3.7c-1.3,3-3.3,7.3-7,11c-1.8,1.8-3.9,3.2-6,4s-4.1,1.1-5.8,1.1
		c-1.7-0.1-3-0.4-3.9-0.7c-0.4-0.2-0.8-0.3-1-0.5C80,271.1,79.9,271,79.9,271z"/>
	<path class="st16" d="M102,286.5c0,0-0.2-0.5-0.3-1.4c0-0.2-0.1-0.5-0.1-0.8s-0.1-0.6-0.1-0.9c0-0.7-0.2-1.4-0.2-2.2
		c-0.1-3.3,0.2-7.8,1-12.8c0.7-5,1.7-9.4,2.5-12.6c0.4-1.6,0.7-2.9,1-3.8c0.3-0.9,0.4-1.3,0.4-1.4c0,0,0,0.5-0.2,1.4
		c-0.2,1-0.5,2.3-0.8,3.8c-0.7,3.2-1.6,7.6-2.3,12.6c-0.7,4.9-1.2,9.4-1.1,12.7C101.7,284.5,102.1,286.5,102,286.5L102,286.5z"/>
	<path class="st6" d="M124.2,152.9c0,0,0.1-0.1,0.3-0.2c0.2-0.2,0.6-0.3,1.1-0.5c1-0.3,2.4-0.6,4.2-0.3s3.9,1,5.9,2.3s4,3,5.9,4.9
		c3.9,3.9,6.3,8.4,7.5,11.7c0.3,0.8,0.5,1.6,0.7,2.3s0.3,1.3,0.4,1.8c0.2,1,0.2,1.5,0.2,1.5c-0.1,0-0.4-2.2-1.7-5.5
		s-3.7-7.6-7.5-11.5c-1.9-1.9-3.9-3.6-5.8-4.9c-1.9-1.3-3.9-2-5.7-2.3c-1.7-0.3-3.2-0.1-4.1,0.1C124.7,152.7,124.2,153,124.2,152.9
		L124.2,152.9z"/>
	<path class="st14" d="M149,222.6c0,0,0.1,23.5-3.8,24.8c-4.9,1.7-39.3,0-39.3,0v8.4c0,0,34.2-2.2,37,2.2
		c2.6,4.2,27.1,80.5,32.1,103.5h15.4c0,0-8.2-39.4-11.1-49.4c-1.5-5.4-6.7-22.4-11.3-35.6c-4.3-12.4-6.4-25.4-6.1-38.5l0.4-17.5
		l-2.7-45h-9.9L149,222.6L149,222.6z"/>
	<path class="st16" d="M149,222.6c0,0,0.1,23.5-3.8,24.8c-4.9,1.7-39.3,0-39.3,0v8.4c0,0,34.2-2.2,37,2.2
		c2.6,4.2,27.1,80.5,32.1,103.5h15.4c0,0-8.2-39.4-11.1-49.4c-1.5-5.4-6.7-22.4-11.3-35.6c-4.3-12.4-6.4-25.4-6.1-38.5l0.4-17.5
		l-2.7-45h-9.9L149,222.6L149,222.6z"/>
	<path class="st12" d="M180.2,277.4c0.9-0.4,1.6-1.1,1.9-2c0.3-0.9,0.2-1.9-0.3-2.8c-0.6-1-1.7-1.8-2-2.9c-0.4,0.3-0.6,0.8-0.7,1.3
		c-0.7-0.7,0.1-2-0.7-2.6c-0.4-0.3-1-0.2-1.4,0.1c-1,0.6-1.5,1.8-1.6,3c-0.2,1.8,0.7,3.7,2.1,4.8c0.7,0.5,1.6,0.9,2.3,1.5"/>
	<path class="st7" d="M178.7,277.9l-1.1,14.4c-0.1,1,1.1,1.5,1.8,0.8c0.2-0.2,0.2-0.4,0.3-0.6l1.1-14.4L178.7,277.9L178.7,277.9z"/>
	<path class="st4" d="M178.7,277.9l-0.4-1.2l2.9,0.1l-0.5,1.2L178.7,277.9z"/>
	<path class="st7" d="M173.4,288.1c-0.1-0.4-2-14.4-2.6-19.1c-0.1-0.8,0.5-1.6,1.4-1.6c0.7,0,1.3,0.5,1.4,1.2l3.3,20.1L173.4,288.1
		L173.4,288.1z"/>
	<path class="st14" d="M166.2,283.9h16.2c0,0,5,21.1-3.1,28.1l-5-0.9L166.2,283.9L166.2,283.9z"/>
	<path class="st16" d="M166.2,283.9h16.2c0,0,5,21.1-3.1,28.1l-5-0.9L166.2,283.9L166.2,283.9z"/>
	<path class="st7" d="M180,311c0,0-0.4,0.1-1.1,0.1c-0.7,0-1.7-0.3-2.8-1s-2.2-1.8-3.1-3.2c-0.9-1.4-1.7-3-2.6-4.7
		c-1.7-3.4-2.9-6.7-3.7-9.1c-0.4-1.2-0.6-2.2-0.8-2.8c-0.2-0.7-0.2-1.1-0.2-1.1s0.2,0.4,0.4,1c0.3,0.8,0.6,1.7,1,2.8
		c0.8,2.3,2.1,5.5,3.8,8.9c0.9,1.7,1.7,3.3,2.5,4.7c0.9,1.4,1.9,2.5,2.9,3.1c1,0.7,2,1,2.7,1.1C179.7,311,180,310.9,180,311L180,311
		z"/>
	<path class="st8" d="M183.9,202.5c0.1-0.9,0.2-1.9,0.6-2.7c0.4-0.8,1.2-1.5,2.1-1.6c0.9,0,1.9,0.8,1.7,1.7
		c-0.1,0.5-0.5,0.9-0.8,1.4c-0.9,1.4-0.8,3.3-0.7,5s0,3.7-1.4,4.7"/>
	<path class="st12" d="M119,165.7c-6.5,5-7.5,14.4-2.2,20.7l30.8,36.8c6.7,7.9,18,10,27.1,5c7.6-4.2,12-12.6,11.1-21.2l-7.5-33
		l-15.1,2.4l1.8,25.2l-25.8-33.1C134.3,162,125.3,160.8,119,165.7L119,165.7z"/>
	<path class="st8" d="M184.2,218.3c-3.9-0.7-4.6-1.3-8.4-2c-1.2-0.2-2.7-0.9-2.2-2.1c0.2-0.6,0.9-1.1,1.6-1c1.5,0,3.9,0.8,5.4,0.9
		c0.4,0,0.3-0.3,0.2-0.6c-2.4-0.6-4.8-1-7.2-1.2c-1.5-0.1-2.2-2.1-1-3.1c0.1-0.1,0.8-0.4,1-0.3c1.5,0.1,1.5,0.1,3.2,0.4
		c4.6,0.6,4-0.3,4-0.3c0-0.3-5.3-0.6-8-0.8c-0.6,0-1.2-0.1-1.6-0.5c-0.5-0.5-0.4-1.4,0.1-1.9c0.4-0.5,1.1-1,1.8-1
		c3-0.2,12.9,0.4,12.9,0.4s1.4,1.7,1.1,5.3C186.7,214.3,184.2,218.3,184.2,218.3L184.2,218.3z"/>
	<path class="st7" d="M170.8,229.7c0,0-0.1,0-0.4,0.1c-0.3,0-0.7,0.1-1.2,0.2c-1.1,0.1-2.6,0.4-4.7,0.5c-2,0.1-4.6,0.1-7.4-0.7
		c-2.8-0.8-5.8-2.6-8.4-5.1c-2.7-2.5-5.3-5.6-8.1-8.9c-2.8-3.3-5.7-6.9-8.7-10.7s-6.2-7.8-9.4-12c-1.6-2.1-3.2-4.2-4.9-6.4
		c-0.4-0.5-0.8-1.1-1.2-1.6l-0.6-0.9c-0.2-0.3-0.4-0.6-0.5-0.9c-0.7-1.2-1.2-2.6-1.5-3.9c-0.3-1.4-0.4-2.8-0.3-4.2
		c0-0.7,0.2-1.4,0.3-2.1c0.2-0.7,0.3-1.3,0.6-2c0.2-0.7,0.6-1.3,0.9-1.9c0.4-0.6,0.7-1.2,1.1-1.7c0.8-1.1,1.8-2,2.9-2.8
		s2.3-1.4,3.5-1.9c1.2-0.4,2.5-0.8,3.8-0.9c2.6-0.3,5.1,0.2,7.4,1.2c2.2,1,4.1,2.6,5.5,4.4c1.4,1.8,2.8,3.6,4.1,5.3
		c2.6,3.4,5.1,6.6,7.3,9.5c4.4,5.8,8,10.5,10.5,13.8c1.2,1.6,2.2,2.9,2.8,3.8c0.3,0.4,0.6,0.8,0.7,1c0.2,0.2,0.2,0.3,0.2,0.3
		l-0.3-0.3c-0.2-0.2-0.4-0.5-0.8-1c-0.7-0.9-1.7-2.1-2.9-3.7c-2.5-3.3-6.2-7.9-10.6-13.7c-2.2-2.9-4.7-6.1-7.3-9.5
		c-1.3-1.7-2.7-3.5-4.1-5.3c-1.4-1.8-3.2-3.3-5.4-4.3s-4.7-1.4-7.2-1.2c-1.3,0.1-2.5,0.4-3.7,0.9s-2.3,1.1-3.4,1.9
		c-1,0.8-2,1.7-2.8,2.8c-0.4,0.5-0.7,1.1-1.1,1.7c-0.3,0.6-0.6,1.2-0.8,1.8c-0.3,0.6-0.4,1.3-0.6,1.9c-0.1,0.7-0.3,1.3-0.3,2
		c-0.1,1.4,0,2.7,0.3,4.1c0.3,1.3,0.8,2.6,1.4,3.8c0.7,1.2,1.5,2.3,2.3,3.3c1.7,2.2,3.3,4.3,4.9,6.4c3.2,4.2,6.4,8.2,9.4,12
		s5.9,7.4,8.7,10.7s5.4,6.4,8,8.9s5.5,4.3,8.3,5.1s5.3,0.8,7.4,0.7c2-0.1,3.6-0.3,4.7-0.4c0.5-0.1,0.9-0.1,1.2-0.1L170.8,229.7
		L170.8,229.7z"/>
	<path class="st7" d="M167.2,213.2c-0.1,0,0.7-2.9-0.1-6.5c-0.7-3.6-2.6-5.9-2.5-6c0,0,0.6,0.5,1.2,1.5s1.3,2.5,1.7,4.3
		s0.4,3.5,0.2,4.7C167.5,212.6,167.3,213.3,167.2,213.2L167.2,213.2z M128.1,180.5c-0.1,0.1-1.8-0.7-3.9-1.8s-3.8-2.2-3.7-2.3
		c0.1-0.1,1.8,0.7,3.9,1.8C126.5,179.4,128.2,180.4,128.1,180.5z M138.6,186.8c-0.1,0-0.3-2.1,0-4.7s0.8-4.6,1-4.6
		c0.1,0-0.2,2.1-0.5,4.6C138.8,184.7,138.7,186.8,138.6,186.8z M139.7,199.4c0,0.1-1.7-0.1-3.7-0.8s-3.5-1.5-3.4-1.7
		c0.1-0.1,1.6,0.5,3.6,1.2C138.1,198.8,139.8,199.2,139.7,199.4L139.7,199.4z M151.8,206.2c-0.1,0-0.1-2,0.2-4.3
		c0.2-2.4,0.5-4.3,0.7-4.3c0.1,0,0.1,2-0.2,4.3C152.3,204.3,152,206.2,151.8,206.2z M154.1,218.6c-0.1,0.1-1.5-1.3-3-3.1
		c-1.6-1.8-2.7-3.4-2.6-3.5c0.1-0.1,1.5,1.3,3,3.1C153,217,154.2,218.5,154.1,218.6z M170.5,219.9c0,0.2-1.7,0.3-3.8,0.7
		s-3.8,0.9-3.8,0.7c-0.1-0.1,1.6-0.9,3.7-1.3C168.8,219.7,170.5,219.8,170.5,219.9L170.5,219.9z M172.5,197.1
		c-0.1-0.1,0.5-1.6,1.5-3.4c1-1.8,1.8-3.2,2-3.1c0.1,0.1-0.5,1.6-1.5,3.4C173.5,195.7,172.7,197.1,172.5,197.1z M172.7,184.2
		c-0.1,0.1-1.2-0.4-2.6-1.2c-1.4-0.8-2.4-1.5-2.4-1.6c0.1-0.1,1.2,0.4,2.6,1.2C171.7,183.3,172.7,184.1,172.7,184.2z"/>
	<path class="st9" d="M156.5,148.2c-2.1,1.2-3.5,4.2-4.8,6.1c-0.4,0.6-0.8,1.2-0.9,1.9c-0.1,0.8,0.2,1.5,0.5,2.2
		c0.4,1,0.9,2.1,1.4,3.1c0.1,0.3,0.3,0.6,0.6,0.7c0.4,0.1,0.7-0.3,0.9-0.7c0.4-0.9,0.3-2,0.4-3c0.1-1,0.5-2.1,1.4-2.6"/>
	<path class="st8" d="M160.3,156l-2.2-1.5c-0.3-0.2-0.7-0.2-0.9,0.1l-1,1.3l0.7,3.2c0.9,4.1-2.2,3.6-2.2,3.6l-0.3-0.8l-1.6-5
		c-0.4-2.4-0.2-2.7,0.9-4.5l2.4-3.8c0.5-0.8,1.5-1.2,2.4-0.9c3.8,1.2,11.9,3.3,12.9,6.4c1.9,5.6,3.9,19.8,3.9,20.1l-11.1,1.7
		l-0.5-9.6c0,0-1.7-0.9-2.3-2.6C161,162.1,160.3,156,160.3,156"/>
	<path class="st9" d="M168.2,157.5c0,0-0.1,0.2-0.4,0.5c-0.3,0.3-0.8,0.7-1.5,0.9c-0.4,0.1-0.8,0.1-1.2,0s-0.9-0.3-1.2-0.7
		c-0.7-0.8-0.8-1.9-1.5-2.7c-0.3-0.4-0.8-0.6-1.2-0.9c-0.4-0.3-0.9-0.5-1.3-0.6c-0.4-0.2-0.9-0.4-1.2-0.3c-0.3,0.1-0.6,0.4-0.9,0.6
		c-1,1-1.5,1.7-1.6,1.7c0,0,0.1-0.2,0.3-0.5s0.5-0.8,1-1.3c0.3-0.3,0.5-0.6,1-0.7c0.1,0,0.2-0.1,0.4,0c0.1,0,0.2,0,0.3,0.1
		c0.2,0.1,0.5,0.1,0.7,0.2c0.4,0.2,0.9,0.4,1.4,0.6c0.5,0.3,0.9,0.5,1.3,1c0.7,0.9,0.8,2,1.4,2.7c0.6,0.7,1.5,0.8,2.1,0.6
		c0.7-0.1,1.1-0.5,1.5-0.7C168,157.6,168.2,157.5,168.2,157.5L168.2,157.5z M167.1,161c0,0.1-1.5,0-3.2-0.4s-3.1-1-3-1.1
		c0-0.1,1.4,0.3,3.1,0.7C165.7,160.6,167.1,160.9,167.1,161L167.1,161z"/>
	<path class="st9" d="M162.4,153.6c0-0.1,0.2-0.1,0.5,0s0.7,0.5,0.8,1s-0.1,1-0.4,1.2c-0.2,0.2-0.5,0.3-0.5,0.2s0.1-0.2,0.3-0.4
		c0.1-0.2,0.3-0.6,0.2-1s-0.3-0.7-0.5-0.8C162.5,153.7,162.4,153.6,162.4,153.6L162.4,153.6z"/>
	<path class="st10" d="M145.2,161c-0.8-0.6-1.8-0.8-2.7-0.6s-1.8,0.8-2.2,1.6c-0.6,1-0.6,2.4-1.5,3.2c0.5,0.2,1,0.1,1.4-0.1
		c-0.2,0.9-1.8,1-1.9,1.9c-0.1,0.5,0.4,0.9,0.8,1.2c1.1,0.5,2.3,0.4,3.4-0.1c1.6-0.8,2.8-2.5,3-4.3c0.1-0.9,0-1.8,0.1-2.7"/>
	<path class="st7" d="M146.3,162.1l13-6.4c0.9-0.4,0.7-1.7-0.3-1.9c-0.2,0-0.5,0-0.7,0.1l-12.9,6.4L146.3,162.1L146.3,162.1z"/>
	<path class="st4" d="M146.3,162.1l-0.8,0.9l-1.4-2.5l1.3-0.2L146.3,162.1z"/>
</g>
<g id="Plant">
	<path class="st12" d="M428.1,394.5c1-3.3,3-6.5,6.1-7.8c3.3-1.4,7.1-0.6,10.4,0.6c3.4,1.2,6.6,2.8,10.2,3.1
		c3.6,0.2,7.6-1.5,8.6-4.9c1-3.2-0.9-6.6-3.3-8.9c-5.1-4.9-12.7-7-19.5-5.3c-6.8,1.6-12.7,6.9-15,13.6"/>
	<path class="st17" d="M428.1,394.5c1-3.3,3-6.5,6.1-7.8c3.3-1.4,7.1-0.6,10.4,0.6c3.4,1.2,6.6,2.8,10.2,3.1
		c3.6,0.2,7.6-1.5,8.6-4.9c1-3.2-0.9-6.6-3.3-8.9c-5.1-4.9-12.7-7-19.5-5.3c-6.8,1.6-12.7,6.9-15,13.6"/>
	<path class="st12" d="M399.9,408.8c-5.2-5-5-13.6-2.4-20.3c2.6-6.7,8.3-11.9,14.6-15.3c12.3-6.6,27.7-7.1,40.4-1.3
		c-6.2,0.2-12.3,3.8-15.5,9.1c-2.9,4.8-3.5,10.5-5.9,15.5c-2.6,5.6-7.5,10.1-13.2,12.4C412.2,411.1,405.6,411.1,399.9,408.8
		 M397.4,379c-5.8-6.8-6.5-17.8-5.7-26.7s2.9-17.9,1.5-26.7c-0.8-5.2-2.9-10.2-3.5-15.5c-0.7-5.3,0.3-11.2,4.4-14.6
		c4.7-3.9,12-3,16.9,0.7s7.7,9.4,9.7,15.1c4.5,12.6,6.2,26.5,2.5,39.4c-3.7,12.8-12.4,24.3-25.2,28.2"/>
	<path class="st7" d="M394.6,434.9v-3.1c0.1-2,0.3-4.8,0.7-8.3c0.4-3.5,1.1-7.6,2.2-12.1s2.9-9.3,5.5-14s5.8-8.7,9-12.1
		c3.2-3.3,6.5-5.9,9.5-7.9c1.4-1,2.8-1.8,4-2.5c1.2-0.6,2.3-1.2,3.2-1.6c0.9-0.4,1.6-0.7,2.1-0.9c0.5-0.2,0.7-0.3,0.7-0.3
		s-0.2,0.1-0.7,0.4c-0.5,0.2-1.2,0.6-2,1c-0.9,0.5-1.9,1-3.1,1.7s-2.6,1.5-4,2.5c-2.9,2-6.1,4.6-9.3,7.9c-3.2,3.3-6.3,7.3-8.9,12
		c-5.3,9.3-6.8,19.1-7.8,25.9c-0.5,3.5-0.7,6.3-0.9,8.2c-0.1,0.9-0.1,1.7-0.1,2.2C394.6,434.7,394.6,434.9,394.6,434.9L394.6,434.9z
		"/>
	<path class="st12" d="M344.7,352.1c-10.7,6.5-10.7,12.3-8.9,17.9c1.8,5.5,8.3,9.4,13.8,7.3c3.1-1.2,5.3-3.8,7.2-6.5
		c1.9-2.7,3.7-5.6,6.4-7.5s6.5-2.7,9.2-0.8"/>
	<path class="st17" d="M344.7,352.1c-10.7,6.5-10.7,12.3-8.9,17.9c1.8,5.5,8.3,9.4,13.8,7.3c3.1-1.2,5.3-3.8,7.2-6.5
		c1.9-2.7,3.7-5.6,6.4-7.5s6.5-2.7,9.2-0.8"/>
	<path class="st12" d="M336.7,359.1c2.8-3.9,9.7-5,14.1-3.1s7.6,5.8,10.4,9.6c2.9,3.8,5.6,7.8,9.6,10.5s9.5,3.6,13.4,0.9
		c2.6-1.8,4.1-4.8,4.6-7.9s0-6.3-0.6-9.3c-0.9-4.5-2.5-9.2-6.1-12c-4-3.2-9.5-3.3-14.7-3.2c-5.9,0.2-11.8,0.6-17.3,2.7
		C344.7,349.4,339.1,353.8,336.7,359.1"/>
	<path class="st7" d="M385.7,429.6v-0.9c0-0.7-0.1-1.6-0.1-2.7c-0.1-2.4-0.2-5.9-0.3-10.1c-0.1-4.3-0.3-9.3-0.6-15
		c-0.3-5.6-0.6-11.8-1.4-18.3c-0.4-3.2-0.9-6.4-1.6-9.3c-0.2-0.7-0.4-1.5-0.6-2.2c-0.3-0.7-0.5-1.4-0.8-2.1s-0.6-1.3-0.8-2
		c-0.3-0.6-0.6-1.3-0.9-1.9c-2.5-5-5.7-9.1-8.8-12c-3.1-2.9-6.1-4.7-8.2-5.7c-0.5-0.2-1-0.5-1.4-0.7s-0.8-0.3-1.1-0.4
		c-0.3-0.1-0.5-0.2-0.7-0.3c-0.1-0.1-0.2-0.1-0.2-0.1s0.1,0,0.2,0.1c0.2,0.1,0.4,0.1,0.7,0.2c0.3,0.1,0.7,0.2,1.1,0.4
		c0.4,0.2,0.9,0.4,1.5,0.6c2.2,1,5.2,2.7,8.4,5.6c3.2,2.9,6.4,7,8.9,12c0.3,0.6,0.6,1.3,0.9,1.9c0.3,0.7,0.6,1.3,0.9,2
		s0.5,1.4,0.8,2.1c0.2,0.7,0.4,1.5,0.6,2.2c0.7,3,1.2,6.2,1.6,9.4c0.8,6.5,1.1,12.7,1.4,18.3c0.3,5.6,0.4,10.7,0.5,15
		s0.1,7.7,0.1,10.1v3.4C385.7,429.5,385.7,429.6,385.7,429.6z M389.5,431.2c0,0-0.6-1.6-1.2-4.6s-1-7.4-0.5-12.9s1.8-11.9,4.1-18.7
		c2.2-6.9,5.2-14.2,7.7-22.1c1.3-4,2.3-7.9,3.1-11.7c0.7-3.8,1.2-7.6,1.5-11.2c0.6-7.2,0.5-13.7,0.3-19.1s-0.5-9.8-0.6-12.9
		c-0.1-1.5-0.2-2.7-0.2-3.5v-1.2v0.3c0,0.2,0.1,0.5,0.1,0.9c0.1,0.8,0.2,2,0.3,3.5c0.2,3,0.6,7.4,0.8,12.9c0.2,5.4,0.3,12-0.2,19.2
		c-0.3,3.6-0.8,7.4-1.5,11.2c-0.7,3.9-1.8,7.8-3.1,11.8c-2.6,7.9-5.5,15.3-7.8,22.1c-2.2,6.8-3.7,13.2-4.2,18.6s-0.2,9.8,0.3,12.8
		c0.3,1.5,0.5,2.7,0.7,3.4c0.1,0.4,0.2,0.7,0.2,0.9C389.5,431.1,389.6,431.2,389.5,431.2L389.5,431.2z"/>
	<path class="st7" d="M416.1,436h-50.2l-1.2-9.6h51.4L416.1,436z"/>
	<path class="st7" d="M371.2,434.9l6.3,29h27.3l5.9-29H371.2z"/>
	<path class="st10" d="M416.1,436c0,0.1-11,0.2-24.7,0.2c-13.6,0-24.7-0.2-24.7-0.3s11-0.2,24.7-0.2
		C405,435.7,416.1,435.9,416.1,436z M407.4,450.3c-0.1,0.1-1.5-1.4-4.4-2.5c-1.5-0.6-3.3-1-5.4-1.1s-4.3,0.4-6.6,1.2
		c-2.3,0.8-4.4,1.7-6.5,2.2s-4,0.4-5.6,0.2c-1.6-0.3-2.8-0.7-3.6-1.2c-0.4-0.2-0.7-0.4-0.9-0.6c-0.2-0.1-0.3-0.2-0.3-0.2l1.2,0.6
		c0.8,0.4,2,0.8,3.6,1s3.5,0.2,5.5-0.3s4.1-1.4,6.4-2.2c2.3-0.8,4.6-1.3,6.8-1.2c2.1,0.1,4,0.6,5.5,1.2s2.6,1.4,3.3,1.9
		c0.4,0.3,0.6,0.5,0.8,0.7C407.4,450.2,407.4,450.3,407.4,450.3z"/>
	<path class="st6" d="M407.1,452.3c-0.1,0.1-1.4-1.3-4.3-2.5c-1.4-0.6-3.2-1-5.2-1.1s-4.2,0.4-6.4,1.2c-2.2,0.7-4.3,1.6-6.3,2.1
		s-3.9,0.7-5.4,0.6c-1.6-0.1-2.8-0.6-3.5-1c-0.4-0.2-0.7-0.4-0.8-0.5c-0.2-0.1-0.3-0.2-0.3-0.2l1.2,0.6c0.8,0.3,2,0.7,3.5,0.8
		c1.5,0.1,3.3-0.1,5.3-0.7c1.9-0.5,4-1.4,6.2-2.2c2.2-0.8,4.5-1.2,6.6-1.1s3.9,0.6,5.3,1.2s2.5,1.4,3.1,1.9c0.3,0.3,0.6,0.5,0.7,0.7
		C407,452.2,407.1,452.3,407.1,452.3L407.1,452.3z"/>
	<path class="st6" d="M407.9,448.4c-0.1,0.1-1.5-1.4-4.5-2.7c-1.5-0.6-3.4-1.2-5.5-1.3c-2.1-0.1-4.5,0.4-6.8,1.2
		c-2.4,0.8-4.6,1.8-6.7,2.2c-2.2,0.4-4.2,0.3-5.8,0c-1.6-0.3-2.9-0.8-3.7-1.2c-0.4-0.2-0.7-0.4-0.9-0.6c-0.2-0.1-0.3-0.2-0.3-0.2
		s0.4,0.3,1.3,0.6c0.8,0.4,2.1,0.8,3.7,1s3.6,0.3,5.7-0.1s4.3-1.4,6.7-2.2c2.4-0.8,4.8-1.4,7-1.2c2.2,0.2,4.1,0.8,5.6,1.5
		s2.6,1.5,3.3,2c0.4,0.3,0.6,0.5,0.8,0.7C407.9,448.3,407.9,448.4,407.9,448.4L407.9,448.4z"/>
</g>
<g id="Blank_Canvas">
	<path class="st7" d="M254.5,321.1l-32.7,143.2h7.7l32-143.2L254.5,321.1z"/>
	<path class="st10" d="M250.6,321.1l-32.7,143.2h7.8l31.9-143.2L250.6,321.1z"/>
	<path class="st7" d="M338.9,312.5c0,1.3,28.4,151.5,28.4,151.5h8.3l-29-151.5H338.9L338.9,312.5z"/>
	<path class="st10" d="M335.4,312.5c0,1.3,28.4,151.5,28.4,151.5h8.9l-29.5-151.5H335.4z"/>
	<path class="st7" d="M316.6,321.1l-1.9,143.2h10.5l1.5-143.2L316.6,321.1z"/>
	<path class="st10" d="M240.5,312.5l-0.6,9.5l88,3l1-11.3L240.5,312.5z"/>
	<path class="st7" d="M327.9,325h4.9l0.9-11.3h-4.8L327.9,325z"/>
	<path class="st10" d="M246.5,358l67.1,3.1v11.5l-69.1-3.4L246.5,358z"/>
	<path class="st10" d="M313.6,321.1l-1.9,143.2h10.5l1.6-143.2L313.6,321.1z M269.1,321.1c-0.3,1.9,0,7.7,0,7.7l36.2,2.1v-8.3
		L269.1,321.1L269.1,321.1z M300.6,48.2c0.4,1,6.1,38.9,6.1,38.9l6.8-0.5L308,48.2C308,48.2,300.6,48.2,300.6,48.2z"/>
	<path class="st7" d="M311.3,51.1l-3.3-2.9l5.5,38.4l2.8-0.2L311.3,51.1z M320.2,66c0,0.7-0.5,20.3-0.5,20.3l7.2-0.5V66H320.2z"/>
	<path class="st10" d="M318.3,66c0,0.7-0.5,20.3-0.5,20.3l7.2-0.5V66H318.3z"/>
	<path class="st7" d="M296.3,66.6l-5.4,21.6l6.4-0.5l4.9-21.1H296.3z"/>
	<path class="st10" d="M293.5,66.6l-5.3,21.6l6.4-0.5l4.8-21.1H293.5z"/>
	<path class="st18" d="M375.2,80.7l4.4,3.9l-5.5,229.6h-6.4L375.2,80.7z"/>
	<path class="st7" d="M230.9,92.9l-18.8,218.7l155.6,2.6l7.5-233.5L230.9,92.9z"/>
	<path class="st7" d="M230.9,92.9c0,0,0.9-0.1,2.6-0.2c1.7-0.2,4.2-0.4,7.5-0.7c6.6-0.6,16.4-1.4,28.9-2.5
		c25.1-2.1,61.2-5.2,105.3-9h0.2v0.2c-2,63-4.6,143.9-7.4,231.8c0,0.6,0,1.1-0.1,1.7v0.3h-0.3c-55.7-0.9-108.6-1.8-155.6-2.6h-0.3
		v-0.3c5.6-64.7,10.4-119.4,13.7-157.9c1.7-19.2,3-34.4,3.9-44.8c0.5-5.2,0.8-9.2,1.1-11.9c0.1-1.3,0.2-2.4,0.3-3
		C230.9,93.3,230.9,92.9,230.9,92.9c0,0,0,0.4-0.1,1c-0.1,0.7-0.1,1.7-0.2,3.1c-0.2,2.7-0.6,6.7-1,11.9c-0.9,10.4-2.2,25.6-3.8,44.9
		c-3.3,38.5-8,93.1-13.5,157.8l-0.2-0.3c47,0.8,99.9,1.6,155.6,2.5l-0.3,0.3c0-0.5,0-1.1,0.1-1.7c2.9-87.9,5.5-168.8,7.5-231.8
		l0.2,0.2c-44.1,3.7-80.2,6.7-105.2,8.8c-12.5,1-22.3,1.8-28.9,2.4c-3.3,0.3-5.9,0.5-7.6,0.6C231.8,92.9,230.9,92.9,230.9,92.9
		L230.9,92.9z"/>
</g>
</svg>
