<svg xmlns="http://www.w3.org/2000/svg" aria-hidden="true" class="iconify iconify--ph" width="32" height="32" viewBox="0 0 256 256"><path fill="#a2a5b9" d="m32 80 96 56 96-56-96-56-96 56z" opacity=".2"/><path fill="#a2a5b9" d="m220 169.1-92 53.6-92-53.6a8 8 0 0 0-8 13.8l96 56a7.8 7.8 0 0 0 8 0l96-56a8 8 0 1 0-8-13.8Z"/><path fill="#a2a5b9" d="m220 121.1-92 53.6-92-53.6a8 8 0 0 0-8 13.8l96 56a7.8 7.8 0 0 0 8 0l96-56a8 8 0 1 0-8-13.8Z"/><path fill="#a2a5b9" d="m28 86.9 96 56a7.8 7.8 0 0 0 8 0l96-56a8 8 0 0 0 0-13.8l-96-56a7.7 7.7 0 0 0-8 0l-96 56a8 8 0 0 0 0 13.8Zm100-53.6L208.1 80 128 126.7 47.9 80Z"/></svg>